
<svg xmlns="http://www.w3.org/2000/svg" xmlns:xlink="http://www.w3.org/1999/xlink" width="16px" height="16px" viewBox="0 0 16 16" version="1.1">
<g id="surface1">
<defs>
  <style id="current-color-scheme" type="text/css">
   .ColorScheme-Text { color:#424242; } .ColorScheme-Highlight { color:#eeeeee; }
  </style>
 </defs>
<path style="fill:currentColor" class="ColorScheme-Text" d="M 8 0.898438 L 2.996094 8.707031 L 2.996094 10 L 5 10 L 5 9.289062 L 8 4.601562 L 11 9.289062 L 11 10 L 13 10 L 13 8.707031 Z M 3 10 C 3 12.769531 5.230469 15 8 15 C 10.769531 15 13 12.769531 13 10 L 11 10 C 11 11.660156 9.660156 13 8 13 C 6.339844 13 5 11.660156 5 10 Z M 6 10 C 6 11.109375 6.890625 12 8 12 L 8 11 C 7.445312 11 7 10.554688 7 10 Z M 6 10 "/>
</g>
</svg>
