
<svg xmlns="http://www.w3.org/2000/svg" xmlns:xlink="http://www.w3.org/1999/xlink" width="16px" height="16px" viewBox="0 0 16 16" version="1.1">
<g id="surface1">
<defs>
  <style id="current-color-scheme" type="text/css">
   .ColorScheme-Text { color:#424242; } .ColorScheme-Highlight { color:#eeeeee; }
  </style>
 </defs>
<path style="fill:currentColor" class="ColorScheme-Text" d="M 8 1 C 6.5 1 5.117188 1.46875 3.980469 2.265625 C 3.691406 2.101562 3.359375 2 3 2 C 1.890625 2 1 2.890625 1 4 C 1 4.519531 1.199219 4.988281 1.523438 5.34375 C 1.1875 6.160156 1 7.058594 1 8 C 1 11.878906 4.121094 15 8 15 C 11.878906 15 15 11.878906 15 8 C 15 7.058594 14.8125 6.160156 14.476562 5.34375 C 14.800781 4.988281 15 4.519531 15 4 C 15 2.890625 14.109375 2 13 2 C 12.640625 2 12.308594 2.101562 12.019531 2.265625 C 10.882812 1.46875 9.5 1 8 1 Z M 8 3 C 10.769531 3 13 5.230469 13 8 C 13 10.769531 10.769531 13 8 13 C 5.230469 13 3 10.769531 3 8 C 3 5.230469 5.230469 3 8 3 Z M 8 4 L 8 8 L 4.023438 7.582031 C 3.847656 9.230469 4.707031 10.8125 6.183594 11.5625 C 7.660156 12.316406 9.445312 12.082031 10.675781 10.972656 C 11.90625 9.863281 12.328125 8.113281 11.734375 6.566406 C 11.140625 5.019531 9.65625 4 8 4 Z M 8 4 "/>
</g>
</svg>
