<?xml version="1.0" encoding="UTF-8"?>
<svg xmlns="http://www.w3.org/2000/svg" xmlns:xlink="http://www.w3.org/1999/xlink" width="24px" height="24px" viewBox="0 0 24 24" version="1.1">
<g id="surface1">
<path style=" stroke:none;fill-rule:nonzero;fill:rgb(36.862746%,20.784314%,69.411767%);fill-opacity:1;" d="M 3.472656 2.667969 L 21.828125 2.667969 C 22.375 2.667969 22.820312 3.113281 22.820312 3.660156 L 22.820312 9.613281 C 22.820312 10.160156 22.375 10.605469 21.828125 10.605469 L 3.472656 10.605469 C 2.925781 10.605469 2.480469 10.160156 2.480469 9.613281 L 2.480469 3.660156 C 2.480469 3.113281 2.925781 2.667969 3.472656 2.667969 Z M 3.472656 2.667969 "/>
<path style=" stroke:none;fill-rule:nonzero;fill:rgb(96.078432%,96.078432%,96.078432%);fill-opacity:1;" d="M 11.90625 5.644531 L 21.828125 5.644531 C 22.101562 5.644531 22.324219 5.867188 22.324219 6.140625 L 22.324219 9.613281 C 22.324219 9.886719 22.101562 10.109375 21.828125 10.109375 L 11.90625 10.109375 C 11.632812 10.109375 11.410156 9.886719 11.410156 9.613281 L 11.410156 6.140625 C 11.410156 5.867188 11.632812 5.644531 11.90625 5.644531 Z M 11.90625 5.644531 "/>
<path style=" stroke:none;fill-rule:nonzero;fill:rgb(49.411765%,34.117648%,76.078433%);fill-opacity:1;" d="M 1.984375 4.652344 C 1.433594 4.652344 0.992188 5.09375 0.992188 5.644531 L 0.992188 20.527344 C 0.992188 21.078125 1.433594 21.519531 1.984375 21.519531 L 21.828125 21.519531 C 22.378906 21.519531 22.820312 21.078125 22.820312 20.527344 L 22.820312 8.621094 C 22.820312 8.070312 22.378906 7.628906 21.828125 7.628906 L 15.378906 7.628906 C 14.828125 7.628906 14.386719 7.1875 14.386719 6.636719 L 14.386719 5.644531 C 14.386719 5.09375 13.945312 4.652344 13.394531 4.652344 Z M 1.984375 4.652344 "/>
<path style=" stroke:none;fill-rule:nonzero;fill:rgb(100%,100%,100%);fill-opacity:0.27451;" d="M 8.929688 9.613281 C 8.65625 9.613281 8.433594 9.835938 8.433594 10.109375 L 8.433594 17.054688 C 8.433594 17.328125 8.65625 17.550781 8.929688 17.550781 L 14.882812 17.550781 C 15.15625 17.550781 15.378906 17.328125 15.378906 17.054688 L 15.378906 10.109375 C 15.378906 9.835938 15.15625 9.613281 14.882812 9.613281 Z M 9.671875 10.605469 L 14.136719 10.605469 C 14.277344 10.605469 14.386719 10.714844 14.386719 10.855469 L 14.386719 16.3125 C 14.386719 16.449219 14.277344 16.558594 14.136719 16.558594 L 9.671875 16.558594 C 9.535156 16.558594 9.425781 16.449219 9.425781 16.3125 L 9.425781 10.855469 C 9.425781 10.714844 9.535156 10.605469 9.671875 10.605469 Z M 10.046875 11.101562 C 9.976562 11.101562 9.921875 11.15625 9.921875 11.226562 L 9.921875 15.9375 C 9.921875 16.007812 9.976562 16.0625 10.046875 16.0625 L 13.765625 16.0625 C 13.835938 16.0625 13.890625 16.007812 13.890625 15.9375 L 13.890625 11.226562 C 13.890625 11.15625 13.835938 11.101562 13.765625 11.101562 Z M 10.046875 11.101562 "/>
</g>
</svg>
