<?xml version="1.0" encoding="UTF-8"?>
<svg xmlns="http://www.w3.org/2000/svg" xmlns:xlink="http://www.w3.org/1999/xlink" width="16px" height="16px" viewBox="0 0 16 16" version="1.1">
<g id="surface1">
<path style=" stroke:none;fill-rule:nonzero;fill:rgb(84.705883%,26.274511%,8.235294%);fill-opacity:1;" d="M 14.550781 15.339844 L 1.324219 15.339844 C 0.957031 15.339844 0.660156 15.042969 0.660156 14.675781 L 0.660156 1.449219 C 0.660156 1.082031 0.957031 0.785156 1.324219 0.785156 L 14.550781 0.785156 C 14.917969 0.785156 15.214844 1.082031 15.214844 1.449219 L 15.214844 14.675781 C 15.214844 15.042969 14.917969 15.339844 14.550781 15.339844 Z M 14.550781 15.339844 "/>
<path style=" stroke:none;fill-rule:nonzero;fill:rgb(100%,43.921569%,26.274511%);fill-opacity:1;" d="M 14.222656 14.675781 L 1.652344 14.675781 C 1.472656 14.675781 1.324219 14.527344 1.324219 14.347656 L 1.324219 1.777344 C 1.324219 1.597656 1.472656 1.449219 1.652344 1.449219 L 14.222656 1.449219 C 14.402344 1.449219 14.550781 1.597656 14.550781 1.777344 L 14.550781 14.347656 C 14.550781 14.527344 14.402344 14.675781 14.222656 14.675781 Z M 14.222656 14.675781 "/>
<path style=" stroke:none;fill-rule:nonzero;fill:rgb(93.333334%,93.333334%,93.333334%);fill-opacity:1;" d="M 8.597656 6.410156 L 8.597656 5.085938 C 8.597656 4.902344 8.746094 4.753906 8.929688 4.753906 L 12.238281 4.753906 C 12.417969 4.753906 12.566406 4.902344 12.566406 5.085938 L 12.566406 6.410156 C 12.566406 6.589844 12.417969 6.738281 12.238281 6.738281 L 8.929688 6.738281 C 8.746094 6.738281 8.597656 6.589844 8.597656 6.410156 Z M 8.597656 6.410156 "/>
<path style=" stroke:none;fill-rule:nonzero;fill:rgb(93.333334%,93.333334%,93.333334%);fill-opacity:1;" d="M 8.597656 11.039062 L 8.597656 9.714844 C 8.597656 9.535156 8.746094 9.386719 8.929688 9.386719 L 12.238281 9.386719 C 12.417969 9.386719 12.566406 9.535156 12.566406 9.714844 L 12.566406 11.039062 C 12.566406 11.222656 12.417969 11.371094 12.238281 11.371094 L 8.929688 11.371094 C 8.746094 11.371094 8.597656 11.222656 8.597656 11.039062 Z M 8.597656 11.039062 "/>
<path style=" stroke:none;fill-rule:nonzero;fill:rgb(93.333334%,93.333334%,93.333334%);fill-opacity:1;" d="M 3.308594 8.722656 L 3.308594 7.402344 C 3.308594 7.21875 3.457031 7.070312 3.636719 7.070312 L 6.945312 7.070312 C 7.128906 7.070312 7.277344 7.21875 7.277344 7.402344 L 7.277344 8.722656 C 7.277344 8.90625 7.128906 9.054688 6.945312 9.054688 L 3.636719 9.054688 C 3.457031 9.054688 3.308594 8.90625 3.308594 8.722656 Z M 3.308594 8.722656 "/>
</g>
</svg>
