<?xml version="1.0" encoding="UTF-8"?>
<svg xmlns="http://www.w3.org/2000/svg" xmlns:xlink="http://www.w3.org/1999/xlink" width="16px" height="16px" viewBox="0 0 16 16" version="1.1">
<g id="surface1">
<path style=" stroke:none;fill-rule:nonzero;fill:rgb(18.039216%,49.019608%,19.607843%);fill-opacity:1;" d="M 14.550781 15.339844 L 1.324219 15.339844 C 0.957031 15.339844 0.660156 15.042969 0.660156 14.675781 L 0.660156 1.449219 C 0.660156 1.082031 0.957031 0.785156 1.324219 0.785156 L 14.550781 0.785156 C 14.917969 0.785156 15.214844 1.082031 15.214844 1.449219 L 15.214844 14.675781 C 15.214844 15.042969 14.917969 15.339844 14.550781 15.339844 Z M 14.550781 15.339844 "/>
<path style=" stroke:none;fill-rule:nonzero;fill:rgb(40.000001%,73.333335%,41.568628%);fill-opacity:1;" d="M 14.222656 14.675781 L 1.652344 14.675781 C 1.472656 14.675781 1.324219 14.527344 1.324219 14.347656 L 1.324219 1.777344 C 1.324219 1.597656 1.472656 1.449219 1.652344 1.449219 L 14.222656 1.449219 C 14.402344 1.449219 14.550781 1.597656 14.550781 1.777344 L 14.550781 14.347656 C 14.550781 14.527344 14.402344 14.675781 14.222656 14.675781 Z M 14.222656 14.675781 "/>
<path style=" stroke:none;fill-rule:nonzero;fill:rgb(93.333334%,93.333334%,93.333334%);fill-opacity:1;" d="M 11.625 4.777344 C 11.539062 4.777344 11.457031 4.808594 11.390625 4.875 L 6.949219 9.316406 L 4.375 6.746094 C 4.246094 6.617188 4.039062 6.617188 3.90625 6.746094 L 2.972656 7.679688 C 2.84375 7.8125 2.84375 8.019531 2.972656 8.148438 L 5.777344 10.957031 L 6.714844 11.890625 C 6.71875 11.894531 6.722656 11.898438 6.726562 11.902344 C 6.734375 11.910156 6.742188 11.917969 6.753906 11.921875 C 6.761719 11.929688 6.769531 11.9375 6.78125 11.941406 C 6.785156 11.945312 6.789062 11.945312 6.792969 11.949219 C 6.804688 11.953125 6.8125 11.960938 6.824219 11.964844 C 6.832031 11.96875 6.84375 11.972656 6.855469 11.972656 C 6.863281 11.976562 6.875 11.980469 6.882812 11.980469 C 6.894531 11.984375 6.90625 11.984375 6.917969 11.984375 C 6.925781 11.988281 6.9375 11.988281 6.949219 11.988281 C 6.957031 11.988281 6.96875 11.988281 6.980469 11.984375 C 6.988281 11.984375 7 11.984375 7.011719 11.980469 C 7.019531 11.980469 7.03125 11.976562 7.039062 11.976562 C 7.039062 11.972656 7.042969 11.972656 7.046875 11.972656 C 7.054688 11.96875 7.0625 11.96875 7.070312 11.964844 C 7.082031 11.960938 7.089844 11.957031 7.097656 11.953125 C 7.101562 11.949219 7.109375 11.945312 7.117188 11.941406 C 7.125 11.9375 7.132812 11.929688 7.144531 11.921875 C 7.152344 11.917969 7.160156 11.910156 7.167969 11.902344 C 7.171875 11.898438 7.175781 11.894531 7.179688 11.890625 L 8.117188 10.957031 L 12.792969 6.277344 C 12.921875 6.148438 12.921875 5.941406 12.792969 5.808594 L 11.859375 4.875 C 11.792969 4.808594 11.710938 4.777344 11.625 4.777344 Z M 11.625 4.777344 "/>
</g>
</svg>
