<?xml version="1.0" encoding="UTF-8"?>
<svg xmlns="http://www.w3.org/2000/svg" xmlns:xlink="http://www.w3.org/1999/xlink" width="16px" height="16px" viewBox="0 0 16 16" version="1.1">
<g id="surface1">
<path style=" stroke:none;fill-rule:nonzero;fill:rgb(84.705883%,26.274511%,8.235294%);fill-opacity:1;" d="M 14.550781 15.339844 L 1.324219 15.339844 C 0.957031 15.339844 0.660156 15.042969 0.660156 14.675781 L 0.660156 1.449219 C 0.660156 1.082031 0.957031 0.785156 1.324219 0.785156 L 14.550781 0.785156 C 14.917969 0.785156 15.214844 1.082031 15.214844 1.449219 L 15.214844 14.675781 C 15.214844 15.042969 14.917969 15.339844 14.550781 15.339844 Z M 14.550781 15.339844 "/>
<path style=" stroke:none;fill-rule:nonzero;fill:rgb(100%,43.921569%,26.274511%);fill-opacity:1;" d="M 14.222656 14.675781 L 1.652344 14.675781 C 1.472656 14.675781 1.324219 14.527344 1.324219 14.347656 L 1.324219 1.777344 C 1.324219 1.597656 1.472656 1.449219 1.652344 1.449219 L 14.222656 1.449219 C 14.402344 1.449219 14.550781 1.597656 14.550781 1.777344 L 14.550781 14.347656 C 14.550781 14.527344 14.402344 14.675781 14.222656 14.675781 Z M 14.222656 14.675781 "/>
<path style=" stroke:none;fill-rule:nonzero;fill:rgb(93.333334%,93.333334%,93.333334%);fill-opacity:1;" d="M 7.9375 3.433594 L 7.9375 4.753906 C 5.738281 4.753906 3.96875 6.523438 3.96875 8.722656 C 3.96875 10.921875 5.738281 12.691406 7.9375 12.691406 C 10.132812 12.691406 11.902344 10.925781 11.90625 8.730469 C 11.90625 8.730469 11.90625 8.726562 11.90625 8.726562 L 11.90625 8.71875 C 11.90625 8.585938 11.785156 8.476562 11.636719 8.476562 L 10.191406 8.476562 C 10.042969 8.476562 9.921875 8.585938 9.921875 8.71875 L 9.921875 8.722656 C 9.921875 9.824219 9.035156 10.707031 7.9375 10.707031 C 6.839844 10.707031 5.953125 9.824219 5.953125 8.722656 C 5.953125 7.625 6.839844 6.738281 7.9375 6.738281 L 7.9375 8.394531 L 10.914062 5.746094 Z M 7.9375 3.433594 "/>
</g>
</svg>
