<?xml version="1.0" encoding="UTF-8"?>
<svg xmlns="http://www.w3.org/2000/svg" xmlns:xlink="http://www.w3.org/1999/xlink" width="48px" height="48px" viewBox="0 0 48 48" version="1.1">
<g id="surface1">
<path style=" stroke:none;fill-rule:nonzero;fill:rgb(12.941177%,58.823532%,95.294118%);fill-opacity:1;" d="M 3.96875 2.359375 L 43.65625 2.359375 C 44.753906 2.359375 45.640625 3.246094 45.640625 4.34375 L 45.640625 44.03125 C 45.640625 45.128906 44.753906 46.015625 43.65625 46.015625 L 3.96875 46.015625 C 2.871094 46.015625 1.984375 45.128906 1.984375 44.03125 L 1.984375 4.34375 C 1.984375 3.246094 2.871094 2.359375 3.96875 2.359375 Z M 3.96875 2.359375 "/>
<path style=" stroke:none;fill-rule:nonzero;fill:rgb(89.019608%,94.901961%,99.215686%);fill-opacity:1;" d="M 19.84375 3.351562 L 19.84375 17.242188 L 15.875 17.242188 L 23.8125 25.179688 L 31.75 17.242188 L 27.78125 17.242188 L 27.78125 3.351562 Z M 19.84375 3.351562 "/>
<path style=" stroke:none;fill-rule:nonzero;fill:rgb(39.215687%,70.980394%,96.470588%);fill-opacity:1;" d="M 3.96875 2.359375 C 3.230469 2.359375 2.589844 2.757812 2.25 3.351562 L 45.375 3.351562 C 45.035156 2.757812 44.394531 2.359375 43.65625 2.359375 Z M 3.96875 2.359375 "/>
<path style=" stroke:none;fill-rule:nonzero;fill:rgb(96.078432%,96.078432%,96.078432%);fill-opacity:1;" d="M 20.09375 2.359375 L 27.53125 2.359375 L 27.78125 3.351562 L 19.84375 3.351562 Z M 20.09375 2.359375 "/>
<path style=" stroke:none;fill-rule:nonzero;fill:rgb(89.019608%,94.901961%,99.215686%);fill-opacity:1;" d="M 29.902344 21.074219 L 26.355469 24.621094 C 26.628906 25.070312 26.789062 25.601562 26.789062 26.171875 C 26.789062 27.820312 25.460938 29.148438 23.8125 29.148438 C 22.164062 29.148438 20.835938 27.820312 20.835938 26.171875 C 20.835938 25.601562 20.996094 25.070312 21.269531 24.621094 L 17.722656 21.074219 C 17.4375 21.421875 17.171875 21.796875 16.9375 22.203125 C 16.632812 22.730469 16.394531 23.28125 16.222656 23.835938 C 16.359375 23.886719 16.492188 23.949219 16.617188 24.019531 C 17.359375 24.445312 17.859375 25.25 17.859375 26.171875 C 17.859375 27.25 17.175781 28.164062 16.21875 28.507812 C 16.566406 29.636719 17.167969 30.691406 17.996094 31.578125 C 18.769531 30.921875 19.902344 30.789062 20.835938 31.328125 C 21.769531 31.867188 22.21875 32.914062 22.039062 33.914062 C 23.222656 34.1875 24.433594 34.179688 25.585938 33.914062 C 25.40625 32.914062 25.855469 31.867188 26.789062 31.328125 C 27.589844 30.867188 28.53125 30.898438 29.273438 31.328125 C 29.398438 31.402344 29.519531 31.484375 29.628906 31.578125 C 30.027344 31.148438 30.382812 30.667969 30.6875 30.140625 C 30.992188 29.613281 31.230469 29.0625 31.402344 28.507812 C 30.445312 28.164062 29.765625 27.25 29.765625 26.171875 C 29.765625 25.09375 30.449219 24.179688 31.40625 23.835938 C 31.097656 22.835938 30.589844 21.894531 29.902344 21.074219 Z M 29.902344 21.074219 "/>
</g>
</svg>
