<?xml version="1.0" encoding="UTF-8"?>
<svg xmlns="http://www.w3.org/2000/svg" xmlns:xlink="http://www.w3.org/1999/xlink" width="48px" height="48px" viewBox="0 0 48 48" version="1.1">
<g id="surface1">
<path style=" stroke:none;fill-rule:nonzero;fill:rgb(25.882354%,64.705884%,96.078432%);fill-opacity:1;" d="M 3.96875 8.3125 L 43.65625 8.3125 C 44.753906 8.3125 45.640625 9.199219 45.640625 10.296875 L 45.640625 38.078125 C 45.640625 39.175781 44.753906 40.0625 43.65625 40.0625 L 3.96875 40.0625 C 2.871094 40.0625 1.984375 39.175781 1.984375 38.078125 L 1.984375 10.296875 C 1.984375 9.199219 2.871094 8.3125 3.96875 8.3125 Z M 3.96875 8.3125 "/>
<path style=" stroke:none;fill-rule:nonzero;fill:rgb(25.882354%,25.882354%,25.882354%);fill-opacity:1;" d="M 1.984375 12.28125 L 45.640625 12.28125 L 45.640625 20.21875 L 1.984375 20.21875 Z M 1.984375 12.28125 "/>
<path style=" stroke:none;fill-rule:nonzero;fill:rgb(96.078432%,96.078432%,96.078432%);fill-opacity:1;" d="M 6.945312 26.171875 L 24.804688 26.171875 C 25.351562 26.171875 25.796875 26.617188 25.796875 27.164062 L 25.796875 31.132812 C 25.796875 31.679688 25.351562 32.125 24.804688 32.125 L 6.945312 32.125 C 6.398438 32.125 5.953125 31.679688 5.953125 31.132812 L 5.953125 27.164062 C 5.953125 26.617188 6.398438 26.171875 6.945312 26.171875 Z M 6.945312 26.171875 "/>
<path style=" stroke:none;fill-rule:nonzero;fill:rgb(96.078432%,96.078432%,96.078432%);fill-opacity:1;" d="M 28.773438 26.171875 L 40.679688 26.171875 C 41.226562 26.171875 41.671875 26.617188 41.671875 27.164062 L 41.671875 31.132812 C 41.671875 31.679688 41.226562 32.125 40.679688 32.125 L 28.773438 32.125 C 28.226562 32.125 27.78125 31.679688 27.78125 31.132812 L 27.78125 27.164062 C 27.78125 26.617188 28.226562 26.171875 28.773438 26.171875 Z M 28.773438 26.171875 "/>
</g>
</svg>
