<?xml version="1.0" encoding="UTF-8"?>
<svg xmlns="http://www.w3.org/2000/svg" xmlns:xlink="http://www.w3.org/1999/xlink" width="48px" height="48px" viewBox="0 0 48 48" version="1.1">
<g id="surface1">
<path style=" stroke:none;fill-rule:nonzero;fill:rgb(92.54902%,25.098041%,47.843137%);fill-opacity:1;" d="M 31.75 2.359375 L 7.9375 2.359375 C 6.839844 2.359375 5.953125 3.246094 5.953125 4.34375 L 5.953125 44.03125 C 5.953125 45.128906 6.839844 46.015625 7.9375 46.015625 L 39.6875 46.015625 C 40.785156 46.015625 41.671875 45.128906 41.671875 44.03125 L 41.671875 12.28125 Z M 31.75 2.359375 "/>
<path style=" stroke:none;fill-rule:nonzero;fill:rgb(84.705883%,10.588235%,37.64706%);fill-opacity:1;" d="M 41.671875 12.28125 L 31.75 2.359375 L 31.75 10.296875 C 31.75 11.394531 32.636719 12.28125 33.734375 12.28125 Z M 41.671875 12.28125 "/>
<path style=" stroke:none;fill-rule:nonzero;fill:rgb(96.078432%,96.078432%,96.078432%);fill-opacity:1;" d="M 20.339844 17.242188 L 21.332031 17.242188 C 21.605469 17.242188 21.828125 17.464844 21.828125 17.738281 L 21.828125 32.621094 C 21.828125 32.894531 21.605469 33.117188 21.332031 33.117188 L 20.339844 33.117188 C 20.066406 33.117188 19.84375 32.894531 19.84375 32.621094 L 19.84375 17.738281 C 19.84375 17.464844 20.066406 17.242188 20.339844 17.242188 Z M 20.339844 17.242188 "/>
<path style=" stroke:none;fill-rule:nonzero;fill:rgb(96.078432%,96.078432%,96.078432%);fill-opacity:1;" d="M 20.835938 17.242188 L 20.835938 19.226562 L 26.292969 19.226562 C 27.667969 19.226562 28.773438 20.332031 28.773438 21.707031 C 28.773438 23.082031 27.667969 24.1875 26.292969 24.1875 L 20.835938 24.1875 L 20.835938 26.171875 L 26.292969 26.171875 C 28.765625 26.171875 30.757812 24.179688 30.757812 21.707031 C 30.757812 19.234375 28.765625 17.242188 26.292969 17.242188 Z M 20.835938 17.242188 "/>
<path style=" stroke:none;fill-rule:nonzero;fill:rgb(96.078432%,96.078432%,96.078432%);fill-opacity:1;" d="M 17.363281 24.1875 L 18.355469 24.1875 C 18.628906 24.1875 18.851562 24.410156 18.851562 24.683594 L 18.851562 25.675781 C 18.851562 25.949219 18.628906 26.171875 18.355469 26.171875 L 17.363281 26.171875 C 17.089844 26.171875 16.867188 25.949219 16.867188 25.675781 L 16.867188 24.683594 C 16.867188 24.410156 17.089844 24.1875 17.363281 24.1875 Z M 17.363281 24.1875 "/>
</g>
</svg>
