<?xml version="1.0" encoding="UTF-8"?>
<svg xmlns="http://www.w3.org/2000/svg" xmlns:xlink="http://www.w3.org/1999/xlink" width="48px" height="48px" viewBox="0 0 48 48" version="1.1">
<g id="surface1">
<path style=" stroke:none;fill-rule:nonzero;fill:rgb(98.431373%,54.901963%,0%);fill-opacity:1;" d="M 23.8125 2.359375 C 22.714844 2.359375 21.828125 5.898438 21.828125 10.296875 L 21.828125 19.398438 L 15.394531 12.960938 C 12.285156 9.851562 9.15625 7.976562 8.378906 8.753906 C 7.601562 9.53125 9.476562 12.660156 12.585938 15.769531 L 19.023438 22.203125 L 9.921875 22.203125 C 5.523438 22.203125 1.984375 23.089844 1.984375 24.1875 C 1.984375 25.285156 5.523438 26.171875 9.921875 26.171875 L 19.023438 26.171875 L 15.054688 30.140625 L 20.664062 30.140625 L 21.828125 28.976562 L 21.828125 30.140625 L 25.796875 30.140625 L 25.796875 28.976562 L 26.960938 30.140625 L 32.570312 30.140625 L 28.601562 26.171875 L 37.703125 26.171875 C 42.101562 26.171875 45.640625 25.285156 45.640625 24.1875 C 45.640625 23.089844 42.101562 22.203125 37.703125 22.203125 L 28.601562 22.203125 L 35.039062 15.769531 C 38.148438 12.660156 40.023438 9.53125 39.246094 8.753906 C 38.46875 7.976562 35.339844 9.851562 32.230469 12.960938 L 25.796875 19.398438 L 25.796875 10.296875 C 25.796875 5.898438 24.910156 2.359375 23.8125 2.359375 Z M 23.8125 2.359375 "/>
<path style=" stroke:none;fill-rule:nonzero;fill:rgb(100%,65.490198%,14.901961%);fill-opacity:1;" d="M 23.8125 8.3125 C 15.019531 8.3125 7.9375 15.394531 7.9375 24.1875 C 7.9375 28.421875 9.578125 32.261719 12.265625 35.101562 L 35.359375 35.101562 C 38.046875 32.261719 39.6875 28.421875 39.6875 24.1875 C 39.6875 15.394531 32.605469 8.3125 23.8125 8.3125 Z M 23.8125 8.3125 "/>
<path style=" stroke:none;fill-rule:nonzero;fill:rgb(56.470591%,64.313728%,68.235296%);fill-opacity:1;" d="M 16.867188 15.257812 C 21.523438 15.257812 25.300781 19.035156 25.300781 23.691406 C 25.300781 28.347656 21.523438 32.125 16.867188 32.125 C 12.210938 32.125 8.433594 28.347656 8.433594 23.691406 C 8.433594 19.035156 12.210938 15.257812 16.867188 15.257812 Z M 16.867188 15.257812 "/>
<path style=" stroke:none;fill-rule:nonzero;fill:rgb(56.470591%,64.313728%,68.235296%);fill-opacity:1;" d="M 30.757812 11.289062 C 36.511719 11.289062 41.175781 15.953125 41.175781 21.707031 C 41.175781 27.460938 36.511719 32.125 30.757812 32.125 C 25.003906 32.125 20.339844 27.460938 20.339844 21.707031 C 20.339844 15.953125 25.003906 11.289062 30.757812 11.289062 Z M 30.757812 11.289062 "/>
<path style=" stroke:none;fill-rule:nonzero;fill:rgb(69.01961%,74.509805%,77.254903%);fill-opacity:1;" d="M 23.8125 17.242188 C 29.566406 17.242188 34.230469 21.90625 34.230469 27.660156 C 34.230469 33.414062 29.566406 38.078125 23.8125 38.078125 C 18.058594 38.078125 13.394531 33.414062 13.394531 27.660156 C 13.394531 21.90625 18.058594 17.242188 23.8125 17.242188 Z M 23.8125 17.242188 "/>
<path style=" stroke:none;fill-rule:nonzero;fill:rgb(69.01961%,74.509805%,77.254903%);fill-opacity:1;" d="M 34.726562 18.234375 C 29.910156 18.234375 25.914062 21.632812 25 26.171875 L 17.796875 26.171875 C 16.425781 23.796875 13.863281 22.203125 10.914062 22.203125 C 6.515625 22.203125 2.976562 25.742188 2.976562 30.140625 C 2.976562 34.203125 5.996094 37.53125 9.921875 38.015625 L 9.921875 38.078125 L 35.71875 38.078125 L 35.71875 38.03125 C 40.746094 37.535156 44.648438 33.316406 44.648438 28.15625 C 44.648438 22.660156 40.222656 18.234375 34.726562 18.234375 Z M 34.726562 18.234375 "/>
<path style=" stroke:none;fill-rule:nonzero;fill:rgb(81.176472%,84.705883%,86.274511%);fill-opacity:1;" d="M 11.273438 40.0625 L 10.402344 40.933594 L 9.171875 40.933594 L 9.171875 42.167969 L 8.296875 43.039062 L 9.171875 43.910156 L 9.171875 45.144531 L 10.402344 45.144531 L 11.273438 46.015625 L 12.148438 45.144531 L 13.378906 45.144531 L 13.378906 43.910156 L 14.25 43.039062 L 13.378906 42.167969 L 13.378906 40.933594 L 12.148438 40.933594 Z M 11.273438 40.0625 "/>
<path style=" stroke:none;fill-rule:nonzero;fill:rgb(81.176472%,84.705883%,86.274511%);fill-opacity:1;" d="M 36.320312 38.949219 L 35.449219 39.820312 L 34.214844 39.820312 L 34.214844 41.054688 L 33.34375 41.925781 L 34.214844 42.796875 L 34.214844 44.03125 L 35.449219 44.03125 L 36.320312 44.902344 L 37.191406 44.03125 L 38.425781 44.03125 L 38.425781 42.796875 L 39.296875 41.925781 L 38.425781 41.054688 L 38.425781 39.820312 L 37.191406 39.820312 Z M 36.320312 38.949219 "/>
<path style=" stroke:none;fill-rule:nonzero;fill:rgb(81.176472%,84.705883%,86.274511%);fill-opacity:1;" d="M 28.140625 40.183594 L 27.269531 41.054688 L 26.039062 41.054688 L 26.039062 42.289062 L 25.164062 43.160156 L 26.039062 44.03125 L 26.039062 45.265625 L 27.269531 45.265625 L 28.140625 46.136719 L 29.015625 45.265625 L 30.246094 45.265625 L 30.246094 44.03125 L 31.117188 43.160156 L 30.246094 42.289062 L 30.246094 41.054688 L 29.015625 41.054688 Z M 28.140625 40.183594 "/>
<path style=" stroke:none;fill-rule:nonzero;fill:rgb(81.176472%,84.705883%,86.274511%);fill-opacity:1;" d="M 19.964844 38.949219 L 19.09375 39.820312 L 17.859375 39.820312 L 17.859375 41.054688 L 16.988281 41.925781 L 17.859375 42.796875 L 17.859375 44.03125 L 19.09375 44.03125 L 19.964844 44.902344 L 20.835938 44.03125 L 22.070312 44.03125 L 22.070312 42.796875 L 22.941406 41.925781 L 22.070312 41.054688 L 22.070312 39.820312 L 20.835938 39.820312 Z M 19.964844 38.949219 "/>
</g>
</svg>
