<?xml version="1.0" encoding="UTF-8"?>
<svg xmlns="http://www.w3.org/2000/svg" xmlns:xlink="http://www.w3.org/1999/xlink" width="48px" height="48px" viewBox="0 0 48 48" version="1.1">
<g id="surface1">
<path style=" stroke:none;fill-rule:nonzero;fill:rgb(69.01961%,74.509805%,77.254903%);fill-opacity:1;" d="M 23.8125 2.359375 C 34.222656 2.359375 42.664062 10.800781 42.664062 21.210938 C 42.664062 31.621094 34.222656 40.0625 23.8125 40.0625 C 13.402344 40.0625 4.960938 31.621094 4.960938 21.210938 C 4.960938 10.800781 13.402344 2.359375 23.8125 2.359375 Z M 23.8125 2.359375 "/>
<path style=" stroke:none;fill-rule:nonzero;fill:rgb(25.882354%,64.705884%,96.078432%);fill-opacity:1;" d="M 37.703125 24.1875 C 34.953125 24.1875 32.742188 26.398438 32.742188 29.148438 C 32.742188 29.699219 33.183594 30.140625 33.734375 30.140625 C 34.285156 30.140625 34.726562 29.699219 34.726562 29.148438 C 34.726562 27.5 36.054688 26.171875 37.703125 26.171875 C 39.351562 26.171875 40.679688 27.5 40.679688 29.148438 C 40.679688 30.796875 39.351562 32.125 37.703125 32.125 L 15.875 32.125 C 15.324219 32.125 14.882812 32.550781 14.882812 33.082031 L 14.882812 33.152344 C 14.882812 33.683594 15.324219 34.109375 15.875 34.109375 L 37.703125 34.109375 C 40.453125 34.109375 42.664062 31.898438 42.664062 29.148438 C 42.664062 26.398438 40.453125 24.1875 37.703125 24.1875 Z M 37.703125 24.1875 "/>
<path style=" stroke:none;fill-rule:nonzero;fill:rgb(25.882354%,64.705884%,96.078432%);fill-opacity:1;" d="M 27.78125 46.015625 C 25.03125 46.015625 22.820312 43.804688 22.820312 41.054688 C 22.820312 40.503906 23.261719 40.0625 23.8125 40.0625 C 24.363281 40.0625 24.804688 40.503906 24.804688 41.054688 C 24.804688 42.703125 26.132812 44.03125 27.78125 44.03125 C 29.429688 44.03125 30.757812 42.703125 30.757812 41.054688 C 30.757812 39.40625 29.429688 38.078125 27.78125 38.078125 L 5.953125 38.078125 C 5.402344 38.078125 4.960938 37.652344 4.960938 37.121094 L 4.960938 37.050781 C 4.960938 36.519531 5.402344 36.09375 5.953125 36.09375 L 27.78125 36.09375 C 30.53125 36.09375 32.742188 38.304688 32.742188 41.054688 C 32.742188 43.804688 30.53125 46.015625 27.78125 46.015625 Z M 27.78125 46.015625 "/>
</g>
</svg>
