
<svg xmlns="http://www.w3.org/2000/svg" xmlns:xlink="http://www.w3.org/1999/xlink" width="48px" height="48px" viewBox="0 0 48 48" version="1.1">
<g id="surface1">
<path style=" stroke:none;fill-rule:nonzero;fill:rgb(95.686275%,31.764707%,11.764706%);fill-opacity:1;" d="M 6.945312 5.335938 L 43.65625 5.335938 C 44.75 5.335938 45.640625 6.226562 45.640625 7.320312 L 45.640625 19.226562 C 45.640625 20.324219 44.75 21.210938 43.65625 21.210938 L 6.945312 21.210938 C 5.851562 21.210938 4.960938 20.324219 4.960938 19.226562 L 4.960938 7.320312 C 4.960938 6.226562 5.851562 5.335938 6.945312 5.335938 Z M 6.945312 5.335938 "/>
<path style=" stroke:none;fill-rule:nonzero;fill:rgb(96.078432%,96.078432%,96.078432%);fill-opacity:1;" d="M 23.8125 11.289062 L 43.65625 11.289062 C 44.203125 11.289062 44.648438 11.734375 44.648438 12.28125 L 44.648438 19.226562 C 44.648438 19.777344 44.203125 20.21875 43.65625 20.21875 L 23.8125 20.21875 C 23.265625 20.21875 22.820312 19.777344 22.820312 19.226562 L 22.820312 12.28125 C 22.820312 11.734375 23.265625 11.289062 23.8125 11.289062 Z M 23.8125 11.289062 "/>
<path style=" stroke:none;fill-rule:nonzero;fill:rgb(100%,43.921569%,26.274511%);fill-opacity:1;" d="M 3.96875 9.304688 C 2.867188 9.304688 1.984375 10.191406 1.984375 11.289062 L 1.984375 41.054688 C 1.984375 42.15625 2.867188 43.039062 3.96875 43.039062 L 43.65625 43.039062 C 44.757812 43.039062 45.640625 42.15625 45.640625 41.054688 L 45.640625 17.242188 C 45.640625 16.144531 44.757812 15.257812 43.65625 15.257812 L 30.757812 15.257812 C 29.65625 15.257812 28.773438 14.371094 28.773438 13.273438 L 28.773438 11.289062 C 28.773438 10.191406 27.886719 9.304688 26.789062 9.304688 Z M 3.96875 9.304688 "/>
<path style=" stroke:none;fill-rule:nonzero;fill:rgb(100%,100%,100%);fill-opacity:0.37451;" d="M 18.8125 19.226562 C 17.160156 19.226562 15.835938 20.554688 15.835938 22.203125 C 15.835938 23.855469 17.160156 25.179688 18.8125 25.179688 C 19.457031 25.179688 20.050781 24.976562 20.535156 24.628906 L 26.304688 30.398438 C 25.960938 30.886719 25.753906 31.480469 25.753906 32.125 C 25.753906 33.773438 27.082031 35.101562 28.730469 35.101562 C 30.378906 35.101562 31.707031 33.773438 31.707031 32.125 C 31.707031 30.472656 30.378906 29.148438 28.730469 29.148438 C 28.085938 29.148438 27.492188 29.351562 27.003906 29.699219 L 21.238281 23.929688 C 21.492188 23.574219 21.671875 23.152344 21.746094 22.699219 L 25.796875 22.699219 C 26.03125 24.113281 27.253906 25.179688 28.730469 25.179688 C 30.378906 25.179688 31.707031 23.855469 31.707031 22.203125 C 31.707031 20.554688 30.378906 19.226562 28.730469 19.226562 C 27.253906 19.226562 26.035156 20.296875 25.796875 21.707031 L 21.746094 21.707031 C 21.511719 20.296875 20.292969 19.226562 18.8125 19.226562 Z M 18.8125 19.226562 "/>
</g>
</svg>
