
<svg xmlns="http://www.w3.org/2000/svg" xmlns:xlink="http://www.w3.org/1999/xlink" width="48px" height="48px" viewBox="0 0 48 48" version="1.1">
<g id="surface1">
<path style=" stroke:none;fill-rule:nonzero;fill:rgb(36.078432%,41.960785%,75.294119%);fill-opacity:1;" d="M 3.96875 2.359375 L 43.65625 2.359375 C 44.75 2.359375 45.640625 3.25 45.640625 4.34375 L 45.640625 44.03125 C 45.640625 45.125 44.75 46.015625 43.65625 46.015625 L 3.96875 46.015625 C 2.875 46.015625 1.984375 45.125 1.984375 44.03125 L 1.984375 4.34375 C 1.984375 3.25 2.875 2.359375 3.96875 2.359375 Z M 3.96875 2.359375 "/>
<path style=" stroke:none;fill-rule:nonzero;fill:rgb(93.333334%,93.333334%,93.333334%);fill-opacity:1;" d="M 4.960938 4.34375 C 4.410156 4.34375 3.96875 4.785156 3.96875 5.335938 L 3.96875 43.039062 C 3.96875 43.589844 4.410156 44.03125 4.960938 44.03125 L 42.664062 44.03125 C 43.214844 44.03125 43.65625 43.589844 43.65625 43.039062 L 43.65625 5.335938 C 43.65625 4.785156 43.214844 4.34375 42.664062 4.34375 Z M 6.449219 6.328125 L 41.175781 6.328125 C 41.449219 6.328125 41.671875 6.550781 41.671875 6.824219 L 41.671875 41.550781 C 41.671875 41.824219 41.449219 42.046875 41.175781 42.046875 L 6.449219 42.046875 C 6.175781 42.046875 5.953125 41.824219 5.953125 41.550781 L 5.953125 6.824219 C 5.953125 6.550781 6.175781 6.328125 6.449219 6.328125 Z M 6.449219 6.328125 "/>
<path style=" stroke:none;fill-rule:nonzero;fill:rgb(93.333334%,93.333334%,93.333334%);fill-opacity:1;" d="M 26.839844 8.3125 C 24.824219 8.621094 22.816406 8.921875 20.808594 9.226562 L 20.808594 31.046875 C 22.816406 30.507812 24.824219 29.964844 26.839844 29.425781 L 26.839844 20.996094 C 28.851562 24.308594 30.863281 27.621094 32.871094 30.933594 C 34.878906 30.179688 36.894531 29.425781 38.90625 28.667969 C 36.390625 25.65625 33.878906 22.640625 31.363281 19.621094 C 33.878906 16.355469 36.394531 13.089844 38.910156 9.824219 C 36.957031 9.320312 35.003906 8.816406 33.050781 8.3125 C 30.980469 11.609375 28.910156 14.90625 26.839844 18.203125 Z M 14.554688 14.230469 C 13.808594 14.515625 13.355469 15.304688 12.738281 15.816406 C 12.347656 16.34375 11.320312 16.78125 11.789062 17.558594 C 12.605469 18.84375 13.425781 20.128906 14.242188 21.414062 C 14.113281 22.441406 13.503906 22.835938 12.558594 22.894531 C 11.40625 23.164062 10.230469 23.375 9.089844 23.6875 C 8.480469 24.097656 8.839844 24.949219 8.742188 25.574219 C 8.808594 26.214844 8.582031 26.9375 8.910156 27.507812 C 10.027344 27.972656 11.285156 28.082031 12.464844 28.398438 C 13.058594 28.617188 14.019531 28.421875 13.996094 29.34375 C 14.566406 30.007812 13.707031 30.558594 13.449219 31.15625 C 12.863281 32.167969 12.074219 33.089844 11.648438 34.164062 C 11.894531 34.890625 12.667969 35.316406 13.152344 35.902344 C 13.675781 36.292969 14.035156 37.152344 14.765625 37.035156 C 16.105469 36.171875 17.457031 35.324219 18.796875 34.464844 C 19.828125 34.613281 20.261719 35.207031 20.304688 36.167969 C 20.621094 37.378906 20.769531 38.660156 21.191406 39.820312 C 21.921875 40.148438 22.800781 39.910156 23.597656 39.980469 C 24.273438 39.894531 25.371094 40.308594 25.515625 39.339844 C 25.835938 37.835938 26.160156 36.339844 26.484375 34.839844 C 27.25 34.480469 27.945312 33.988281 28.582031 34.785156 C 29.636719 35.535156 30.679688 36.300781 31.738281 37.035156 C 32.488281 37.144531 32.855469 36.261719 33.398438 35.863281 C 33.863281 35.285156 34.628906 34.878906 34.859375 34.164062 C 34.503906 33.230469 33.796875 32.453125 33.289062 31.585938 C 32.3125 32.027344 31.984375 30.808594 31.546875 30.207031 C 31.269531 29.753906 31 29.300781 30.726562 28.851562 C 29.210938 32.71875 24.539062 34.890625 20.605469 33.578125 C 16.765625 32.460938 14.171875 28.304688 14.875 24.363281 C 15.300781 21.503906 17.355469 18.964844 20.054688 17.933594 L 20.054688 16.285156 C 19.324219 16.871094 18.511719 16.902344 17.832031 16.234375 C 16.738281 15.582031 15.699219 14.765625 14.554688 14.230469 Z M 14.554688 14.230469 "/>
</g>
</svg>
