<?xml version="1.0" encoding="UTF-8"?>
<svg xmlns="http://www.w3.org/2000/svg" xmlns:xlink="http://www.w3.org/1999/xlink" width="16px" height="16px" viewBox="0 0 16 16" version="1.1">
<g id="surface1">
<path style=" stroke:none;fill-rule:nonzero;fill:rgb(36.078432%,41.960785%,75.294119%);fill-opacity:1;" d="M 8 1 C 9.054688 1 9.910156 2.425781 9.910156 4.183594 C 9.910156 5.9375 9.054688 7.363281 8 7.363281 C 6.945312 7.363281 6.089844 5.9375 6.089844 4.183594 C 6.089844 2.425781 6.945312 1 8 1 Z M 8 1 "/>
<path style=" stroke:none;fill-rule:nonzero;fill:rgb(49.411765%,34.117648%,76.078433%);fill-opacity:1;" d="M 12.949219 3.050781 C 13.695312 3.796875 13.292969 5.40625 12.050781 6.648438 C 10.808594 7.894531 9.195312 8.296875 8.449219 7.550781 C 7.703125 6.804688 8.105469 5.191406 9.351562 3.949219 C 10.59375 2.707031 12.203125 2.304688 12.949219 3.050781 Z M 12.949219 3.050781 "/>
<path style=" stroke:none;fill-rule:nonzero;fill:rgb(92.54902%,25.098041%,47.843137%);fill-opacity:1;" d="M 15 8 C 15 9.054688 13.574219 9.910156 11.816406 9.910156 C 10.0625 9.910156 8.636719 9.054688 8.636719 8 C 8.636719 6.945312 10.0625 6.089844 11.816406 6.089844 C 13.574219 6.089844 15 6.945312 15 8 Z M 15 8 "/>
<path style=" stroke:none;fill-rule:nonzero;fill:rgb(93.725491%,32.549021%,31.37255%);fill-opacity:1;" d="M 12.949219 12.949219 C 12.203125 13.695312 10.59375 13.292969 9.351562 12.050781 C 8.105469 10.808594 7.703125 9.195312 8.449219 8.449219 C 9.195312 7.703125 10.808594 8.105469 12.050781 9.351562 C 13.292969 10.59375 13.695312 12.203125 12.949219 12.949219 Z M 12.949219 12.949219 "/>
<path style=" stroke:none;fill-rule:nonzero;fill:rgb(100%,43.921569%,26.274511%);fill-opacity:1;" d="M 8 8.636719 C 9.054688 8.636719 9.910156 10.0625 9.910156 11.816406 C 9.910156 13.574219 9.054688 15 8 15 C 6.945312 15 6.089844 13.574219 6.089844 11.816406 C 6.089844 10.0625 6.945312 8.636719 8 8.636719 Z M 8 8.636719 "/>
<path style=" stroke:none;fill-rule:nonzero;fill:rgb(100%,65.490198%,14.901961%);fill-opacity:1;" d="M 7.550781 8.449219 C 8.296875 9.195312 7.894531 10.808594 6.648438 12.050781 C 5.40625 13.292969 3.796875 13.695312 3.050781 12.949219 C 2.304688 12.203125 2.707031 10.59375 3.949219 9.351562 C 5.191406 8.105469 6.804688 7.703125 7.550781 8.449219 Z M 7.550781 8.449219 "/>
<path style=" stroke:none;fill-rule:nonzero;fill:rgb(61.176473%,80.000001%,39.607844%);fill-opacity:1;" d="M 7.363281 8 C 7.363281 9.054688 5.9375 9.910156 4.183594 9.910156 C 2.425781 9.910156 1 9.054688 1 8 C 1 6.945312 2.425781 6.089844 4.183594 6.089844 C 5.9375 6.089844 7.363281 6.945312 7.363281 8 Z M 7.363281 8 "/>
<path style=" stroke:none;fill-rule:nonzero;fill:rgb(14.901961%,65.098041%,60.392159%);fill-opacity:1;" d="M 7.550781 7.550781 C 6.804688 8.296875 5.191406 7.894531 3.949219 6.648438 C 2.707031 5.40625 2.304688 3.796875 3.050781 3.050781 C 3.796875 2.304688 5.40625 2.707031 6.648438 3.949219 C 7.894531 5.191406 8.296875 6.804688 7.550781 7.550781 Z M 7.550781 7.550781 "/>
<path style=" stroke:none;fill-rule:nonzero;fill:rgb(36.078432%,41.960785%,75.294119%);fill-opacity:1;" d="M 8 1 C 6.941406 1 6.089844 2.417969 6.089844 4.183594 C 6.089844 5.945312 6.941406 7.363281 8 7.363281 Z M 8 1 "/>
<path style=" stroke:none;fill-rule:nonzero;fill:rgb(61.960787%,61.960787%,61.960787%);fill-opacity:1;" d="M 8 6.726562 C 8.703125 6.726562 9.273438 7.296875 9.273438 8 C 9.273438 8.703125 8.703125 9.273438 8 9.273438 C 7.296875 9.273438 6.726562 8.703125 6.726562 8 C 6.726562 7.296875 7.296875 6.726562 8 6.726562 Z M 8 6.726562 "/>
</g>
</svg>
