<?xml version="1.0" encoding="UTF-8"?>
<svg xmlns="http://www.w3.org/2000/svg" xmlns:xlink="http://www.w3.org/1999/xlink" width="16px" height="16px" viewBox="0 0 16 16" version="1.1">
<g id="surface1">
<defs>
  <style id="current-color-scheme" type="text/css">
   .ColorScheme-Text { color:#424242; } .ColorScheme-Highlight { color:#eeeeee; }
  </style>
 </defs>
<path style="fill:currentColor" class="ColorScheme-Text" d="M 9.796875 1.121094 C 6.148438 0.386719 2.375 2.703125 1.652344 6.4375 C 1.011719 9.746094 3.121094 13.175781 6.527344 13.804688 C 9.503906 14.351562 12.578125 12.433594 13.109375 9.359375 C 13.566406 6.714844 11.855469 3.988281 9.109375 3.558594 C 6.800781 3.195312 4.417969 4.714844 4.089844 7.136719 C 3.820312 9.109375 5.144531 11.140625 7.25 11.359375 C 8.886719 11.53125 10.578125 10.394531 10.675781 8.605469 C 10.707031 7.953125 10.496094 7.324219 10.089844 6.828125 C 9.683594 6.328125 9.027344 5.964844 8.28125 6 L 8.355469 7.699219 C 8.53125 7.691406 8.648438 7.746094 8.777344 7.90625 C 8.90625 8.0625 8.988281 8.316406 8.976562 8.515625 C 8.9375 9.234375 8.167969 9.746094 7.425781 9.667969 C 6.355469 9.558594 5.625 8.441406 5.773438 7.367188 C 5.964844 5.953125 7.433594 5.019531 8.84375 5.238281 C 10.597656 5.515625 11.734375 7.328125 11.433594 9.070312 C 11.074219 11.164062 8.910156 12.511719 6.835938 12.128906 C 4.40625 11.679688 2.855469 9.164062 3.320312 6.753906 C 3.855469 3.984375 6.722656 2.238281 9.464844 2.789062 C 10.914062 3.082031 12.222656 3.976562 13.042969 5.21875 L 14.460938 4.28125 C 13.394531 2.664062 11.707031 1.503906 9.796875 1.121094 Z M 9.796875 1.121094 "/>
</g>
</svg>
