<?xml version="1.0" encoding="UTF-8"?>
<svg xmlns="http://www.w3.org/2000/svg" xmlns:xlink="http://www.w3.org/1999/xlink" width="16px" height="16px" viewBox="0 0 16 16" version="1.1">
<g id="surface1">
<defs>
  <style id="current-color-scheme" type="text/css">
   .ColorScheme-Text { color:#424242; } .ColorScheme-Highlight { color:#eeeeee; }
  </style>
 </defs>
<path style="fill:currentColor" class="ColorScheme-Text" d="M 6 1 L 5 3 L 13 3 L 13 6 L 15 6 L 15 1 Z M 5 3 L 1 3 L 1 15 L 6 15 L 6 13 L 3 13 L 3 7 L 7 7 L 9 5 L 6 5 Z M 11 7 C 8.785156 7 7 8.785156 7 11 C 7 13.214844 8.785156 15 11 15 C 13.214844 15 15 13.214844 15 11 C 15 8.785156 13.214844 7 11 7 Z M 11 9 C 12.109375 9 13 9.890625 13 11 C 13 12.109375 12.109375 13 11 13 C 9.890625 13 9 12.109375 9 11 C 9 9.890625 9.890625 9 11 9 Z M 10.292969 9.878906 L 9.585938 10.585938 L 11 12 L 12.414062 10.585938 L 11.707031 9.878906 L 11 10.585938 Z M 10.292969 9.878906 "/>
</g>
</svg>
