
<svg xmlns="http://www.w3.org/2000/svg" xmlns:xlink="http://www.w3.org/1999/xlink" width="16px" height="16px" viewBox="0 0 16 16" version="1.1">
<g id="surface1">
<defs>
  <style id="current-color-scheme" type="text/css">
   .ColorScheme-Text { color:#424242; } .ColorScheme-Highlight { color:#eeeeee; }
  </style>
 </defs>
<path style="fill:currentColor" class="ColorScheme-Text" d="M 9 2 L 11 5 L 13 2 Z M 9 6 L 9 14 L 13 14 C 14.109375 14 15 12.886719 15 11.5 C 15 10.113281 14.109375 9 13 9 L 11 9 L 11 6 Z M 3 9 C 1.890625 9 1 9.890625 1 11 L 1 12 C 1 13.109375 1.890625 14 3 14 L 7 14 L 7 9 Z M 3.5 11 L 5 11 L 5 12 L 3.5 12 C 3.222656 12 3 11.777344 3 11.5 C 3 11.222656 3.222656 11 3.5 11 Z M 11 11 L 12.5 11 C 12.777344 11 13 11.222656 13 11.5 C 13 11.777344 12.777344 12 12.5 12 L 11 12 Z M 11 11 "/>
</g>
</svg>
