
<svg xmlns="http://www.w3.org/2000/svg" xmlns:xlink="http://www.w3.org/1999/xlink" width="16px" height="16px" viewBox="0 0 16 16" version="1.1">
<g id="surface1">
<defs>
  <style id="current-color-scheme" type="text/css">
   .ColorScheme-Text { color:#424242; } .ColorScheme-Highlight { color:#eeeeee; }
  </style>
 </defs>
<path style="fill:currentColor" class="ColorScheme-Text" d="M 2 1 L 2 3 L 7 3 C 7.554688 3 8 3.445312 8 4 L 2 4 L 2 6 L 8 6 C 8 6.554688 7.554688 7 7 7 L 2 7 L 2 9 L 7.132812 15 L 10 15 L 5.070312 9 L 8 9 C 9.109375 9 10 8.109375 10 7 L 10 6 L 14 6 L 14 4 L 10 4 L 10 3 L 14 3 L 14 1 Z M 2 1 "/>
</g>
</svg>
