<?xml version="1.0" encoding="UTF-8"?>
<svg xmlns="http://www.w3.org/2000/svg" xmlns:xlink="http://www.w3.org/1999/xlink" width="16px" height="16px" viewBox="0 0 16 16" version="1.1">
<g id="surface1">
<defs>
  <style id="current-color-scheme" type="text/css">
   .ColorScheme-Text { color:#424242; } .ColorScheme-Highlight { color:#eeeeee; }
  </style>
 </defs>
<path style="fill:currentColor" class="ColorScheme-Text" d="M 1 1 L 1 3 L 15 3 L 15 1 Z M 1 4 L 1 6 L 3 6 L 3 4 Z M 13 4 L 13 6 L 15 6 L 15 4 Z M 1 7 L 1 9 L 15 9 L 15 7 Z M 1 10 L 1 12 L 3 12 L 3 10 Z M 13 10 L 13 12 L 15 12 L 15 10 Z M 1 13 L 1 15 L 15 15 L 15 13 Z M 1 13 "/>
</g>
</svg>
