<?xml version="1.0" encoding="UTF-8"?>
<svg xmlns="http://www.w3.org/2000/svg" xmlns:xlink="http://www.w3.org/1999/xlink" width="32px" height="32px" viewBox="0 0 32 32" version="1.1">
<g id="surface1">
<path style=" stroke:none;fill-rule:nonzero;fill:rgb(45.882353%,45.882353%,45.882353%);fill-opacity:1;" d="M 6.613281 1.574219 L 25.136719 1.574219 C 25.867188 1.574219 26.457031 2.164062 26.457031 2.894531 L 26.457031 29.355469 C 26.457031 30.085938 25.867188 30.675781 25.136719 30.675781 L 6.613281 30.675781 C 5.882812 30.675781 5.292969 30.085938 5.292969 29.355469 L 5.292969 2.894531 C 5.292969 2.164062 5.882812 1.574219 6.613281 1.574219 Z M 6.613281 1.574219 "/>
<path style=" stroke:none;fill-rule:nonzero;fill:rgb(25.882354%,25.882354%,25.882354%);fill-opacity:1;" d="M 5.953125 2.894531 L 25.796875 2.894531 C 26.164062 2.894531 26.457031 3.191406 26.457031 3.558594 L 26.457031 28.691406 C 26.457031 29.058594 26.164062 29.355469 25.796875 29.355469 L 5.953125 29.355469 C 5.585938 29.355469 5.292969 29.058594 5.292969 28.691406 L 5.292969 3.558594 C 5.292969 3.191406 5.585938 2.894531 5.953125 2.894531 Z M 5.953125 2.894531 "/>
<path style=" stroke:none;fill-rule:nonzero;fill:rgb(45.882353%,45.882353%,45.882353%);fill-opacity:1;" d="M 14.550781 2.234375 L 17.199219 2.234375 C 17.5625 2.234375 17.859375 2.53125 17.859375 2.894531 L 17.859375 4.21875 C 17.859375 4.585938 17.5625 4.878906 17.199219 4.878906 L 14.550781 4.878906 C 14.1875 4.878906 13.890625 4.585938 13.890625 4.21875 L 13.890625 2.894531 C 13.890625 2.53125 14.1875 2.234375 14.550781 2.234375 Z M 14.550781 2.234375 "/>
<path style=" stroke:none;fill-rule:nonzero;fill:rgb(25.882354%,25.882354%,25.882354%);fill-opacity:1;" d="M 15.875 2.894531 C 16.242188 2.894531 16.535156 3.191406 16.535156 3.558594 C 16.535156 3.921875 16.242188 4.21875 15.875 4.21875 C 15.507812 4.21875 15.214844 3.921875 15.214844 3.558594 C 15.214844 3.191406 15.507812 2.894531 15.875 2.894531 Z M 15.875 2.894531 "/>
<path style=" stroke:none;fill-rule:nonzero;fill:rgb(96.078432%,96.078432%,96.078432%);fill-opacity:1;" d="M 11.246094 24.722656 L 12.566406 24.722656 C 12.933594 24.722656 13.230469 25.019531 13.230469 25.386719 L 13.230469 26.707031 C 13.230469 27.074219 12.933594 27.371094 12.566406 27.371094 L 11.246094 27.371094 C 10.878906 27.371094 10.582031 27.074219 10.582031 26.707031 L 10.582031 25.386719 C 10.582031 25.019531 10.878906 24.722656 11.246094 24.722656 Z M 11.246094 24.722656 "/>
<path style=" stroke:none;fill-rule:nonzero;fill:rgb(96.078432%,96.078432%,96.078432%);fill-opacity:1;" d="M 15.875 24.722656 C 16.605469 24.722656 17.199219 25.316406 17.199219 26.046875 C 17.199219 26.777344 16.605469 27.371094 15.875 27.371094 C 15.144531 27.371094 14.550781 26.777344 14.550781 26.046875 C 14.550781 25.316406 15.144531 24.722656 15.875 24.722656 Z M 15.875 24.722656 "/>
<path style=" stroke:none;fill-rule:nonzero;fill:rgb(96.078432%,96.078432%,96.078432%);fill-opacity:1;" d="M 18.699219 25.6875 L 19.460938 24.921875 C 19.671875 24.710938 20.015625 24.710938 20.226562 24.921875 L 20.988281 25.6875 C 21.199219 25.898438 21.199219 26.238281 20.988281 26.449219 L 20.226562 27.210938 C 20.015625 27.421875 19.671875 27.421875 19.460938 27.210938 L 18.699219 26.449219 C 18.488281 26.238281 18.488281 25.898438 18.699219 25.6875 Z M 18.699219 25.6875 "/>
</g>
</svg>
