<?xml version="1.0" encoding="UTF-8"?>
<svg xmlns="http://www.w3.org/2000/svg" xmlns:xlink="http://www.w3.org/1999/xlink" width="32px" height="32px" viewBox="0 0 32 32" version="1.1">
<g id="surface1">
<path style=" stroke:none;fill-rule:nonzero;fill:rgb(95.686275%,26.274511%,21.176471%);fill-opacity:1;" d="M 9.261719 1.574219 L 26.457031 1.574219 C 27.1875 1.574219 27.78125 2.164062 27.78125 2.894531 L 27.78125 29.355469 C 27.78125 30.085938 27.1875 30.675781 26.457031 30.675781 L 9.261719 30.675781 C 8.53125 30.675781 7.9375 30.085938 7.9375 29.355469 L 7.9375 2.894531 C 7.9375 2.164062 8.53125 1.574219 9.261719 1.574219 Z M 9.261719 1.574219 "/>
<path style=" stroke:none;fill-rule:nonzero;fill:rgb(96.078432%,96.078432%,96.078432%);fill-opacity:1;" d="M 7.277344 2.234375 L 26.457031 2.234375 C 26.824219 2.234375 27.121094 2.53125 27.121094 2.894531 L 27.121094 29.355469 C 27.121094 29.71875 26.824219 30.015625 26.457031 30.015625 L 7.277344 30.015625 C 6.910156 30.015625 6.613281 29.71875 6.613281 29.355469 L 6.613281 2.894531 C 6.613281 2.53125 6.910156 2.234375 7.277344 2.234375 Z M 7.277344 2.234375 "/>
<path style=" stroke:none;fill-rule:nonzero;fill:rgb(93.725491%,32.549021%,31.37255%);fill-opacity:1;" d="M 7.277344 1.574219 L 25.136719 1.574219 C 25.867188 1.574219 26.457031 2.164062 26.457031 2.894531 L 26.457031 29.355469 C 26.457031 30.085938 25.867188 30.675781 25.136719 30.675781 L 7.277344 30.675781 C 6.546875 30.675781 5.953125 30.085938 5.953125 29.355469 L 5.953125 2.894531 C 5.953125 2.164062 6.546875 1.574219 7.277344 1.574219 Z M 7.277344 1.574219 "/>
<path style=" stroke:none;fill-rule:nonzero;fill:rgb(89.803922%,45.09804%,45.09804%);fill-opacity:1;" d="M 25.816406 12.179688 L 25.816406 12.183594 C 25.699219 12.183594 25.578125 12.183594 25.464844 12.207031 C 23.398438 12.445312 21.25 16.527344 21.101562 20.574219 C 18.386719 22.289062 15.484375 23.871094 12.597656 25.105469 C 11.171875 24.621094 7.867188 23.410156 5.742188 23.886719 C 4.984375 24.050781 4.34375 24.621094 3.96875 25.277344 L 3.96875 25.757812 C 4.304688 25.402344 4.894531 25.28125 5.558594 25.273438 L 5.558594 25.277344 C 6.054688 25.273438 6.589844 25.332031 7.09375 25.410156 C 7.199219 25.421875 7.34375 25.4375 7.46875 25.449219 C 8.355469 25.574219 8.949219 25.6875 9.363281 25.796875 L 9.367188 25.820312 C 9.640625 25.929688 9.929688 26.050781 10.226562 26.175781 C 8.777344 27.070312 5.125 27.648438 3.96875 27.097656 L 3.96875 27.402344 C 4.421875 27.949219 5.179688 28.441406 5.414062 28.441406 C 6.980469 28.734375 10.210938 27.765625 12.183594 27.035156 C 14.546875 28.097656 17.257812 29.417969 19.691406 30.675781 L 24.933594 30.675781 C 24.335938 27.957031 23.886719 24.574219 23.597656 21.726562 C 24.691406 20.945312 25.660156 20.105469 26.457031 19.257812 L 26.457031 16.597656 C 25.65625 17.378906 24.601562 18.21875 23.382812 19.066406 C 23.429688 14.914062 24.167969 11.964844 26.457031 12.476562 L 26.457031 12.238281 C 26.234375 12.1875 26.019531 12.191406 25.816406 12.179688 Z M 21.316406 22.867188 C 21.691406 25.597656 21.765625 26.328125 22.226562 29.96875 C 20.039062 28.695312 17.488281 27.214844 15.191406 26.152344 C 17.425781 25.234375 19.304688 24.164062 21.316406 22.867188 Z M 24.984375 30.675781 Z M 24.984375 30.675781 "/>
<path style=" stroke:none;fill-rule:nonzero;fill:rgb(25.882354%,25.882354%,25.882354%);fill-opacity:1;" d="M 5.292969 1.574219 C 4.558594 1.574219 3.96875 2.164062 3.96875 2.894531 L 3.96875 29.355469 C 3.96875 30.085938 4.558594 30.675781 5.292969 30.675781 L 7.9375 30.675781 L 7.9375 1.574219 Z M 5.292969 1.574219 "/>
<path style=" stroke:none;fill-rule:nonzero;fill:rgb(93.333334%,93.333334%,93.333334%);fill-opacity:1;" d="M 9.261719 1.574219 L 11.90625 1.574219 L 11.90625 18.769531 L 10.582031 16.785156 L 9.261719 18.769531 Z M 9.261719 1.574219 "/>
<path style=" stroke:none;fill-rule:nonzero;fill:rgb(38.039216%,38.039216%,38.039216%);fill-opacity:1;" d="M 3.96875 15.464844 L 7.277344 15.464844 L 7.277344 16.785156 L 3.96875 16.785156 Z M 3.96875 15.464844 "/>
<path style=" stroke:none;fill-rule:nonzero;fill:rgb(38.039216%,38.039216%,38.039216%);fill-opacity:1;" d="M 3.96875 8.1875 L 7.277344 8.1875 L 7.277344 9.511719 L 3.96875 9.511719 Z M 3.96875 8.1875 "/>
<path style=" stroke:none;fill-rule:nonzero;fill:rgb(38.039216%,38.039216%,38.039216%);fill-opacity:1;" d="M 3.96875 22.738281 L 7.277344 22.738281 L 7.277344 24.0625 L 3.96875 24.0625 Z M 3.96875 22.738281 "/>
</g>
</svg>
