<?xml version="1.0" encoding="UTF-8"?>
<svg xmlns="http://www.w3.org/2000/svg" xmlns:xlink="http://www.w3.org/1999/xlink" width="32px" height="32px" viewBox="0 0 32 32" version="1.1">
<g id="surface1">
<path style=" stroke:none;fill-rule:nonzero;fill:rgb(93.333334%,93.333334%,93.333334%);fill-opacity:1;" d="M 21.167969 1.574219 L 5.292969 1.574219 C 4.558594 1.574219 3.96875 2.164062 3.96875 2.894531 L 3.96875 29.355469 C 3.96875 30.085938 4.558594 30.675781 5.292969 30.675781 L 26.457031 30.675781 C 27.191406 30.675781 27.78125 30.085938 27.78125 29.355469 L 27.78125 8.1875 Z M 21.167969 1.574219 "/>
<path style=" stroke:none;fill-rule:nonzero;fill:rgb(25.882354%,25.882354%,25.882354%);fill-opacity:1;" d="M 17.570312 12.417969 C 17.101562 11.949219 16.328125 11.96875 15.832031 12.464844 C 15.386719 12.910156 14.71875 13.578125 14.050781 14.691406 L 15.386719 16.027344 C 16.5 15.359375 17.167969 14.691406 17.613281 14.246094 C 18.109375 13.75 18.128906 12.976562 17.660156 12.507812 Z M 13.605469 15.136719 L 13.027344 15.714844 C 12.609375 16.136719 12.425781 16.628906 12.894531 17.097656 L 12.984375 17.183594 C 13.453125 17.652344 13.945312 17.472656 14.363281 17.050781 L 14.941406 16.472656 Z M 13.605469 15.136719 "/>
<path style=" stroke:none;fill-rule:nonzero;fill:rgb(74.117649%,74.117649%,74.117649%);fill-opacity:1;" d="M 27.78125 8.1875 L 21.167969 1.574219 L 21.167969 6.863281 C 21.167969 7.597656 21.757812 8.1875 22.488281 8.1875 Z M 27.78125 8.1875 "/>
<path style=" stroke:none;fill-rule:nonzero;fill:rgb(25.882354%,25.882354%,25.882354%);fill-opacity:1;" d="M 21.828125 12.816406 C 21.359375 12.347656 20.585938 12.367188 20.089844 12.863281 C 19.644531 13.308594 18.976562 13.976562 18.308594 15.089844 L 19.644531 16.425781 C 20.757812 15.757812 21.425781 15.089844 21.871094 14.644531 C 22.367188 14.152344 22.386719 13.375 21.917969 12.90625 Z M 17.863281 15.535156 L 17.285156 16.113281 C 16.863281 16.535156 16.683594 17.027344 17.152344 17.496094 L 17.238281 17.585938 C 17.707031 18.054688 18.203125 17.871094 18.621094 17.449219 L 19.199219 16.871094 Z M 17.863281 15.535156 "/>
<path style=" stroke:none;fill-rule:nonzero;fill:rgb(67.058825%,27.843139%,73.725492%);fill-opacity:1;" d="M 17.242188 8.847656 C 20.722656 8.847656 23.527344 11.652344 23.527344 15.132812 C 23.527344 18.613281 20.722656 21.417969 17.242188 21.417969 C 15.75 21.417969 14.382812 20.902344 13.304688 20.039062 L 12.511719 20.832031 C 12.570312 21.050781 12.515625 21.296875 12.339844 21.46875 L 9.535156 24.277344 C 9.277344 24.535156 8.859375 24.535156 8.597656 24.277344 L 8.132812 23.808594 C 7.871094 23.550781 7.871094 23.132812 8.132812 22.875 L 10.9375 20.066406 C 11.113281 19.894531 11.355469 19.835938 11.578125 19.894531 L 12.367188 19.105469 C 11.484375 18.023438 10.957031 16.644531 10.957031 15.132812 C 10.957031 11.652344 13.761719 8.847656 17.242188 8.847656 Z M 17.242188 10.171875 C 14.496094 10.171875 12.28125 12.382812 12.28125 15.132812 C 12.28125 17.882812 14.496094 20.09375 17.242188 20.09375 C 19.992188 20.09375 22.203125 17.882812 22.203125 15.132812 C 22.203125 12.382812 19.992188 10.171875 17.242188 10.171875 Z M 17.242188 10.171875 "/>
</g>
</svg>
