<?xml version="1.0" encoding="UTF-8"?>
<svg xmlns="http://www.w3.org/2000/svg" xmlns:xlink="http://www.w3.org/1999/xlink" width="32px" height="32px" viewBox="0 0 32 32" version="1.1">
<g id="surface1">
<path style=" stroke:none;fill-rule:nonzero;fill:rgb(49.411765%,34.117648%,76.078433%);fill-opacity:1;" d="M 15.875 1.574219 C 23.910156 1.574219 30.425781 8.089844 30.425781 16.125 C 30.425781 24.160156 23.910156 30.675781 15.875 30.675781 C 7.839844 30.675781 1.324219 24.160156 1.324219 16.125 C 1.324219 8.089844 7.839844 1.574219 15.875 1.574219 Z M 15.875 1.574219 "/>
<path style=" stroke:none;fill-rule:evenodd;fill:rgb(93.333334%,93.333334%,93.333334%);fill-opacity:1;" d="M 14.070312 8.410156 C 12.144531 8.414062 10.210938 8.796875 8.429688 9.542969 C 9.875 9.714844 11.421875 9.714844 12.734375 10.398438 C 11.933594 10.449219 10.027344 10.5 9.113281 11.464844 C 6.804688 13.40625 5.824219 16.460938 5.351562 19.34375 C 5.289062 19.835938 5.097656 20.816406 5.621094 19.90625 C 6.425781 18.972656 7.144531 17.90625 8.167969 17.195312 C 9.164062 17.09375 7.625 18.300781 7.558594 18.863281 C 6.386719 21.082031 6.042969 23.617188 5.605469 26.058594 C 5.609375 26.179688 5.601562 26.304688 5.582031 26.429688 C 8.210938 29.058594 11.847656 30.675781 15.875 30.675781 C 19.492188 30.675781 22.792969 29.371094 25.332031 27.203125 C 23.316406 26.167969 21.546875 24.5625 20.945312 22.332031 C 20.546875 20.957031 20.734375 19.242188 22 18.375 C 23.679688 17.0625 25.902344 17.160156 27.917969 17.1875 C 28.515625 16.835938 27.523438 15.402344 27.066406 14.851562 C 26.132812 13.789062 24.8125 13.121094 23.441406 12.835938 C 21.910156 11.277344 20.195312 9.796875 18.089844 9.078125 C 16.863281 8.632812 15.5625 8.414062 14.257812 8.410156 C 14.195312 8.410156 14.132812 8.410156 14.070312 8.410156 Z M 14.070312 8.410156 "/>
<path style=" stroke:none;fill-rule:evenodd;fill:rgb(100%,65.490198%,14.901961%);fill-opacity:1;" d="M 10.125 9.382812 C 9.351562 9.382812 8.644531 9.429688 8.25 9.558594 C 8.253906 9.558594 11.742188 9.734375 12.734375 10.394531 C 13.0625 10.230469 13.558594 9.734375 13.597656 9.664062 C 13.324219 9.550781 11.601562 9.378906 10.125 9.382812 Z M 8.25 9.558594 Z M 17.945312 14.914062 C 17.945312 14.914062 6.203125 15.417969 5.269531 18.558594 C 4.960938 19.820312 5.125 20.671875 5.125 20.671875 C 5.128906 20.671875 9.777344 15.496094 17.945312 14.914062 Z M 22.710938 17.125 C 19.414062 17.125 9.167969 18.527344 3.480469 27.535156 C 3.804688 29.246094 4.464844 30.570312 4.464844 30.570312 C 4.464844 30.570312 11.359375 17.714844 24.320312 17.226562 C 24.320312 17.226562 23.722656 17.125 22.710938 17.125 Z M 22.710938 17.125 "/>
<path style=" stroke:none;fill-rule:evenodd;fill:rgb(25.882354%,25.882354%,25.882354%);fill-opacity:1;" d="M 19.296875 11.667969 C 18.773438 11.6875 18.375 11.828125 18.375 11.828125 L 18.28125 11.859375 L 18.300781 11.957031 C 18.300781 11.957031 18.402344 12.523438 18.863281 13.054688 C 19.320312 13.582031 20.144531 14.074219 21.53125 13.945312 L 21.648438 13.9375 L 21.632812 13.816406 C 21.542969 13.085938 21.292969 12.582031 20.964844 12.25 C 20.636719 11.917969 20.234375 11.761719 19.851562 11.699219 C 19.65625 11.667969 19.46875 11.660156 19.296875 11.667969 Z M 19.296875 11.667969 "/>
</g>
</svg>
