<?xml version="1.0" encoding="UTF-8"?>
<svg xmlns="http://www.w3.org/2000/svg" xmlns:xlink="http://www.w3.org/1999/xlink" width="32px" height="32px" viewBox="0 0 32 32" version="1.1">
<g id="surface1">
<path style=" stroke:none;fill-rule:nonzero;fill:rgb(93.725491%,32.549021%,31.37255%);fill-opacity:1;" d="M 15.875 1.574219 C 7.8125 1.574219 1.324219 8.0625 1.324219 16.125 C 1.324219 24.1875 7.8125 30.675781 15.875 30.675781 C 23.9375 30.675781 30.425781 24.1875 30.425781 16.125 C 30.425781 8.0625 23.9375 1.574219 15.875 1.574219 Z M 15.875 12.15625 C 18.074219 12.15625 19.84375 13.925781 19.84375 16.125 C 19.84375 18.324219 18.074219 20.09375 15.875 20.09375 C 13.675781 20.09375 11.90625 18.324219 11.90625 16.125 C 11.90625 13.925781 13.675781 12.15625 15.875 12.15625 Z M 15.875 12.15625 "/>
<path style=" stroke:none;fill-rule:nonzero;fill:rgb(93.333334%,93.333334%,93.333334%);fill-opacity:1;" d="M 15.875 2.234375 C 8.179688 2.234375 1.984375 8.429688 1.984375 16.125 C 1.984375 23.820312 8.179688 30.015625 15.875 30.015625 C 23.570312 30.015625 29.765625 23.820312 29.765625 16.125 C 29.765625 8.429688 23.570312 2.234375 15.875 2.234375 Z M 15.875 12.15625 C 18.074219 12.15625 19.84375 13.925781 19.84375 16.125 C 19.84375 18.324219 18.074219 20.09375 15.875 20.09375 C 13.675781 20.09375 11.90625 18.324219 11.90625 16.125 C 11.90625 13.925781 13.675781 12.15625 15.875 12.15625 Z M 15.875 12.15625 "/>
<path style=" stroke:none;fill-rule:nonzero;fill:rgb(100%,43.921569%,26.274511%);fill-opacity:1;" d="M 15.875 9.511719 C 12.210938 9.511719 9.261719 12.460938 9.261719 16.125 C 9.261719 19.789062 12.210938 22.738281 15.875 22.738281 C 19.539062 22.738281 22.488281 19.789062 22.488281 16.125 C 22.488281 12.460938 19.539062 9.511719 15.875 9.511719 Z M 15.875 14.140625 C 16.972656 14.140625 17.859375 15.027344 17.859375 16.125 C 17.859375 17.222656 16.972656 18.109375 15.875 18.109375 C 14.777344 18.109375 13.890625 17.222656 13.890625 16.125 C 13.890625 15.027344 14.777344 14.140625 15.875 14.140625 Z M 15.875 14.140625 "/>
<path style=" stroke:none;fill-rule:nonzero;fill:rgb(100%,43.921569%,26.274511%);fill-opacity:1;" d="M 20.8125 3.132812 C 21.894531 4.207031 25.128906 6.859375 23.800781 6.910156 C 21.929688 6.988281 20.503906 5.542969 20.503906 5.542969 C 20.503906 5.542969 22.488281 9.511719 25.769531 10.160156 C 28.535156 10.707031 28.976562 13.480469 25.742188 13.480469 C 24.472656 13.480469 23.152344 12.816406 23.152344 12.816406 C 23.648438 15.480469 25.136719 16.125 27.121094 16.785156 C 29.105469 17.449219 29.472656 20.839844 27.121094 20.753906 C 25.796875 20.707031 24.472656 18.109375 24.472656 18.109375 C 24.472656 18.109375 25.269531 22.605469 24.605469 25.253906 C 24.324219 26.375 23.542969 27.40625 22.734375 28.214844 C 26.941406 25.832031 29.765625 21.320312 29.765625 16.125 C 29.765625 10.171875 26.058594 5.113281 20.8125 3.132812 Z M 20.8125 3.132812 "/>
<path style=" stroke:none;fill-rule:nonzero;fill:rgb(74.117649%,74.117649%,74.117649%);fill-opacity:1;" d="M 5.953125 1.574219 L 15.214844 1.574219 C 15.945312 1.574219 16.535156 2.164062 16.535156 2.894531 L 16.535156 14.140625 C 16.535156 14.871094 15.945312 15.464844 15.214844 15.464844 L 5.953125 15.464844 C 5.222656 15.464844 4.628906 14.871094 4.628906 14.140625 L 4.628906 2.894531 C 4.628906 2.164062 5.222656 1.574219 5.953125 1.574219 Z M 5.953125 1.574219 "/>
<path style=" stroke:none;fill-rule:nonzero;fill:rgb(48.627451%,70.19608%,25.882354%);fill-opacity:1;" d="M 3.308594 16.785156 L 17.859375 16.785156 L 17.859375 26.046875 L 3.308594 26.046875 Z M 3.308594 16.785156 "/>
<path style=" stroke:none;fill-rule:nonzero;fill:rgb(100%,65.490198%,14.901961%);fill-opacity:1;" d="M 6.449219 3.558594 L 6.78125 3.558594 C 7.054688 3.558594 7.277344 3.851562 7.277344 4.21875 L 7.277344 9.511719 C 7.277344 9.875 7.054688 10.171875 6.78125 10.171875 L 6.449219 10.171875 C 6.175781 10.171875 5.953125 9.875 5.953125 9.511719 L 5.953125 4.21875 C 5.953125 3.851562 6.175781 3.558594 6.449219 3.558594 Z M 6.449219 3.558594 "/>
<path style=" stroke:none;fill-rule:nonzero;fill:rgb(100%,65.490198%,14.901961%);fill-opacity:1;" d="M 14.386719 3.558594 L 14.71875 3.558594 C 14.992188 3.558594 15.214844 3.851562 15.214844 4.21875 L 15.214844 9.511719 C 15.214844 9.875 14.992188 10.171875 14.71875 10.171875 L 14.386719 10.171875 C 14.113281 10.171875 13.890625 9.875 13.890625 9.511719 L 13.890625 4.21875 C 13.890625 3.851562 14.113281 3.558594 14.386719 3.558594 Z M 14.386719 3.558594 "/>
<path style=" stroke:none;fill-rule:nonzero;fill:rgb(100%,65.490198%,14.901961%);fill-opacity:1;" d="M 9.09375 5.542969 L 9.425781 5.542969 C 9.699219 5.542969 9.921875 5.835938 9.921875 6.203125 L 9.921875 9.511719 C 9.921875 9.875 9.699219 10.171875 9.425781 10.171875 L 9.09375 10.171875 C 8.820312 10.171875 8.597656 9.875 8.597656 9.511719 L 8.597656 6.203125 C 8.597656 5.835938 8.820312 5.542969 9.09375 5.542969 Z M 9.09375 5.542969 "/>
<path style=" stroke:none;fill-rule:nonzero;fill:rgb(100%,65.490198%,14.901961%);fill-opacity:1;" d="M 11.742188 5.542969 L 12.070312 5.542969 C 12.34375 5.542969 12.566406 5.835938 12.566406 6.203125 L 12.566406 9.511719 C 12.566406 9.875 12.34375 10.171875 12.070312 10.171875 L 11.742188 10.171875 C 11.46875 10.171875 11.246094 9.875 11.246094 9.511719 L 11.246094 6.203125 C 11.246094 5.835938 11.46875 5.542969 11.742188 5.542969 Z M 11.742188 5.542969 "/>
<path style=" stroke:none;fill-rule:nonzero;fill:rgb(61.176473%,80.000001%,39.607844%);fill-opacity:1;" d="M 3.96875 12.15625 C 3.234375 12.15625 2.644531 12.746094 2.644531 13.480469 L 2.644531 17.449219 L 18.519531 17.449219 L 18.519531 13.480469 C 18.519531 12.746094 17.929688 12.15625 17.199219 12.15625 Z M 3.96875 12.15625 "/>
<path style=" stroke:none;fill-rule:nonzero;fill:rgb(61.176473%,80.000001%,39.607844%);fill-opacity:1;" d="M 3.96875 30.675781 C 3.234375 30.675781 2.605469 30.085938 2.644531 29.355469 L 2.644531 25.386719 L 18.519531 25.386719 L 18.519531 29.355469 C 18.519531 30.085938 17.929688 30.675781 17.199219 30.675781 Z M 3.96875 30.675781 "/>
</g>
</svg>
