<?xml version="1.0" encoding="UTF-8"?>
<svg xmlns="http://www.w3.org/2000/svg" xmlns:xlink="http://www.w3.org/1999/xlink" width="32px" height="32px" viewBox="0 0 32 32" version="1.1">
<g id="surface1">
<path style=" stroke:none;fill-rule:nonzero;fill:rgb(100%,65.490198%,14.901961%);fill-opacity:0.995763;" d="M 15.875 1.574219 C 23.910156 1.574219 30.425781 8.089844 30.425781 16.125 C 30.425781 24.160156 23.910156 30.675781 15.875 30.675781 C 7.839844 30.675781 1.324219 24.160156 1.324219 16.125 C 1.324219 8.089844 7.839844 1.574219 15.875 1.574219 Z M 15.875 1.574219 "/>
<path style=" stroke:none;fill-rule:nonzero;fill:rgb(96.078432%,96.078432%,96.078432%);fill-opacity:0.995763;" d="M 9.550781 10.597656 C 11.097656 9.050781 13.402344 8.839844 14.695312 10.132812 C 15.984375 11.421875 15.777344 13.726562 14.226562 15.277344 C 12.675781 16.828125 10.371094 17.035156 9.082031 15.746094 C 7.789062 14.453125 8 12.148438 9.550781 10.597656 Z M 9.550781 10.597656 "/>
<path style=" stroke:none;fill-rule:nonzero;fill:rgb(25.882354%,25.882354%,25.882354%);fill-opacity:0.995763;" d="M 13.058594 11.769531 C 13.574219 11.253906 14.410156 11.253906 14.929688 11.769531 C 15.445312 12.285156 15.445312 13.121094 14.929688 13.640625 C 14.410156 14.15625 13.574219 14.15625 13.058594 13.640625 C 12.539062 13.121094 12.539062 12.285156 13.058594 11.769531 Z M 13.058594 11.769531 "/>
<path style=" stroke:none;fill-rule:nonzero;fill:rgb(96.078432%,96.078432%,96.078432%);fill-opacity:0.995763;" d="M 22.199219 10.597656 C 20.652344 9.050781 18.347656 8.839844 17.054688 10.132812 C 15.765625 11.421875 15.972656 13.726562 17.523438 15.277344 C 19.074219 16.828125 21.378906 17.035156 22.667969 15.746094 C 23.960938 14.453125 23.75 12.148438 22.199219 10.597656 Z M 22.199219 10.597656 "/>
<path style=" stroke:none;fill-rule:nonzero;fill:rgb(25.882354%,25.882354%,25.882354%);fill-opacity:0.995763;" d="M 18.691406 11.769531 C 18.175781 11.253906 17.339844 11.253906 16.820312 11.769531 C 16.304688 12.285156 16.304688 13.121094 16.820312 13.640625 C 17.339844 14.15625 18.175781 14.15625 18.691406 13.640625 C 19.210938 13.121094 19.210938 12.285156 18.691406 11.769531 Z M 18.691406 11.769531 "/>
<path style=" stroke:none;fill-rule:nonzero;fill:rgb(25.882354%,25.882354%,25.882354%);fill-opacity:1;" d="M 11.898438 22.074219 C 11.605469 22.070312 11.347656 22.265625 11.265625 22.546875 C 11.179688 22.828125 11.292969 23.128906 11.539062 23.289062 C 12.699219 24.066406 14.289062 24.394531 15.875 24.394531 C 17.460938 24.394531 19.050781 24.066406 20.210938 23.289062 C 20.410156 23.160156 20.523438 22.933594 20.511719 22.695312 C 20.496094 22.457031 20.355469 22.246094 20.140625 22.140625 C 19.925781 22.035156 19.671875 22.054688 19.476562 22.1875 C 18.652344 22.738281 17.265625 23.070312 15.875 23.070312 C 14.484375 23.070312 13.097656 22.738281 12.273438 22.1875 C 12.164062 22.113281 12.035156 22.074219 11.898438 22.074219 Z M 11.898438 22.074219 "/>
</g>
</svg>
