<?xml version="1.0" encoding="UTF-8"?>
<svg xmlns="http://www.w3.org/2000/svg" xmlns:xlink="http://www.w3.org/1999/xlink" width="32px" height="32px" viewBox="0 0 32 32" version="1.1">
<defs>
<linearGradient id="linear0" gradientUnits="userSpaceOnUse" x1="275.166656" y1="-20.499998" x2="275.166656" y2="106.5" gradientTransform="matrix(0.0625,0,0,0.0625,0,13.4375)">
<stop offset="0" style="stop-color:rgb(87.843138%,87.843138%,87.843138%);stop-opacity:1;"/>
<stop offset="1" style="stop-color:rgb(93.333334%,93.333334%,93.333334%);stop-opacity:1;"/>
</linearGradient>
<linearGradient id="linear1" gradientUnits="userSpaceOnUse" x1="269.875" y1="-20.500025" x2="269.875" y2="106.500023" gradientTransform="matrix(0.125,0,0,0.125,-15.874989,10.750002)">
<stop offset="0" style="stop-color:rgb(87.843138%,87.843138%,87.843138%);stop-opacity:1;"/>
<stop offset="1" style="stop-color:rgb(93.333334%,93.333334%,93.333334%);stop-opacity:1;"/>
</linearGradient>
</defs>
<g id="surface1">
<path style=" stroke:none;fill-rule:nonzero;fill:rgb(67.058825%,27.843139%,73.725492%);fill-opacity:1;" d="M 15.875 1.574219 C 23.910156 1.574219 30.425781 8.089844 30.425781 16.125 C 30.425781 24.160156 23.910156 30.675781 15.875 30.675781 C 7.839844 30.675781 1.324219 24.160156 1.324219 16.125 C 1.324219 8.089844 7.839844 1.574219 15.875 1.574219 Z M 15.875 1.574219 "/>
<path style=" stroke:none;fill-rule:nonzero;fill:url(#linear0);" d="M 15.875 12.15625 L 15.875 20.09375 C 18.074219 20.09375 19.84375 18.324219 19.84375 16.125 C 19.84375 13.925781 18.074219 12.15625 15.875 12.15625 Z M 15.875 12.15625 "/>
<path style=" stroke:none;fill-rule:nonzero;fill:rgb(93.333334%,93.333334%,93.333334%);fill-opacity:1;" d="M 15.875 4.21875 L 15.875 6.203125 C 21.371094 6.203125 25.796875 10.628906 25.796875 16.125 C 25.796875 21.621094 21.371094 26.046875 15.875 26.046875 L 15.875 28.03125 C 22.472656 28.03125 27.78125 22.722656 27.78125 16.125 C 27.78125 9.527344 22.472656 4.21875 15.875 4.21875 Z M 15.875 4.21875 "/>
<path style=" stroke:none;fill-rule:nonzero;fill:url(#linear1);" d="M 15.875 8.1875 L 15.875 10.171875 C 19.171875 10.171875 21.828125 12.828125 21.828125 16.125 C 21.828125 19.421875 19.171875 22.078125 15.875 22.078125 L 15.875 24.0625 C 20.273438 24.0625 23.8125 20.523438 23.8125 16.125 C 23.8125 11.726562 20.273438 8.1875 15.875 8.1875 Z M 15.875 8.1875 "/>
<path style=" stroke:none;fill-rule:nonzero;fill:rgb(93.333334%,93.333334%,93.333334%);fill-opacity:0.0784314;" d="M 15.875 12.15625 L 15.875 20.09375 C 13.675781 20.09375 11.90625 18.324219 11.90625 16.125 C 11.90625 13.925781 13.675781 12.15625 15.875 12.15625 Z M 15.875 12.15625 "/>
<path style=" stroke:none;fill-rule:nonzero;fill:rgb(93.333334%,93.333334%,93.333334%);fill-opacity:0.0784314;" d="M 15.875 4.21875 L 15.875 6.203125 C 10.378906 6.203125 5.953125 10.628906 5.953125 16.125 C 5.953125 21.621094 10.378906 26.046875 15.875 26.046875 L 15.875 28.03125 C 9.277344 28.03125 3.96875 22.722656 3.96875 16.125 C 3.96875 9.527344 9.277344 4.21875 15.875 4.21875 Z M 15.875 4.21875 "/>
<path style=" stroke:none;fill-rule:nonzero;fill:rgb(93.333334%,93.333334%,93.333334%);fill-opacity:0.0784314;" d="M 15.875 8.1875 L 15.875 10.171875 C 12.578125 10.171875 9.921875 12.828125 9.921875 16.125 C 9.921875 19.421875 12.578125 22.078125 15.875 22.078125 L 15.875 24.0625 C 11.476562 24.0625 7.9375 20.523438 7.9375 16.125 C 7.9375 11.726562 11.476562 8.1875 15.875 8.1875 Z M 15.875 8.1875 "/>
</g>
</svg>
