<?xml version="1.0" encoding="UTF-8"?>
<svg xmlns="http://www.w3.org/2000/svg" xmlns:xlink="http://www.w3.org/1999/xlink" width="32px" height="32px" viewBox="0 0 32 32" version="1.1">
<g id="surface1">
<path style=" stroke:none;fill-rule:nonzero;fill:rgb(93.333334%,93.333334%,93.333334%);fill-opacity:1;" d="M 2.644531 1.574219 L 29.105469 1.574219 C 29.835938 1.574219 30.425781 2.164062 30.425781 2.894531 L 30.425781 29.355469 C 30.425781 30.085938 29.835938 30.675781 29.105469 30.675781 L 2.644531 30.675781 C 1.914062 30.675781 1.324219 30.085938 1.324219 29.355469 L 1.324219 2.894531 C 1.324219 2.164062 1.914062 1.574219 2.644531 1.574219 Z M 2.644531 1.574219 "/>
<path style=" stroke:none;fill-rule:nonzero;fill:rgb(74.117649%,74.117649%,74.117649%);fill-opacity:1;" d="M 3.96875 3.558594 C 3.601562 3.558594 3.308594 3.851562 3.308594 4.21875 L 3.308594 8.917969 C 5.042969 8.488281 6.984375 8.363281 8.597656 9.167969 C 10.996094 10.367188 13.152344 10.941406 15.214844 10.773438 L 15.214844 4.21875 C 15.214844 3.851562 14.917969 3.558594 14.550781 3.558594 Z M 3.96875 3.558594 "/>
<path style=" stroke:none;fill-rule:nonzero;fill:rgb(92.54902%,25.098041%,47.843137%);fill-opacity:1;" d="M 3.96875 16.785156 L 14.550781 16.785156 C 14.917969 16.785156 15.214844 17.082031 15.214844 17.449219 L 15.214844 28.03125 C 15.214844 28.398438 14.917969 28.691406 14.550781 28.691406 L 3.96875 28.691406 C 3.601562 28.691406 3.308594 28.398438 3.308594 28.03125 L 3.308594 17.449219 C 3.308594 17.082031 3.601562 16.785156 3.96875 16.785156 Z M 3.96875 16.785156 "/>
<path style=" stroke:none;fill-rule:nonzero;fill:rgb(74.117649%,74.117649%,74.117649%);fill-opacity:1;" d="M 17.199219 3.558594 C 16.832031 3.558594 16.535156 3.851562 16.535156 4.21875 L 16.535156 10.554688 C 17.425781 10.335938 18.304688 9.96875 19.183594 9.445312 C 22.058594 7.71875 25.4375 8.316406 28.441406 8.9375 L 28.441406 4.21875 C 28.441406 3.851562 28.148438 3.558594 27.78125 3.558594 Z M 17.199219 3.558594 "/>
<path style=" stroke:none;fill-rule:nonzero;fill:rgb(92.54902%,25.098041%,47.843137%);fill-opacity:1;" d="M 5.898438 8.578125 C 5.027344 8.574219 4.144531 8.710938 3.308594 8.917969 L 3.308594 14.800781 C 3.308594 15.167969 3.601562 15.464844 3.96875 15.464844 L 14.550781 15.464844 C 14.917969 15.464844 15.214844 15.167969 15.214844 14.800781 L 15.214844 10.773438 C 13.152344 10.941406 10.996094 10.367188 8.597656 9.167969 C 7.761719 8.75 6.835938 8.582031 5.898438 8.578125 Z M 5.898438 8.578125 "/>
<path style=" stroke:none;fill-rule:nonzero;fill:rgb(92.54902%,25.098041%,47.843137%);fill-opacity:1;" d="M 23.621094 8.308594 C 22.089844 8.316406 20.578125 8.605469 19.183594 9.445312 C 18.304688 9.96875 17.425781 10.335938 16.535156 10.554688 L 16.535156 14.800781 C 16.535156 15.167969 16.832031 15.464844 17.199219 15.464844 L 27.78125 15.464844 C 28.148438 15.464844 28.441406 15.167969 28.441406 14.800781 L 28.441406 8.9375 C 26.894531 8.617188 25.246094 8.304688 23.621094 8.308594 Z M 23.621094 8.308594 "/>
<path style=" stroke:none;fill-rule:nonzero;fill:rgb(25.882354%,25.882354%,25.882354%);fill-opacity:1;" d="M 22.710938 16.785156 C 22.265625 16.785156 21.824219 16.835938 21.390625 16.9375 C 21.527344 17.6875 21.191406 18.472656 20.492188 18.875 C 19.792969 19.28125 18.945312 19.179688 18.363281 18.6875 C 18.066406 19.011719 17.796875 19.371094 17.570312 19.765625 C 17.339844 20.160156 17.164062 20.574219 17.035156 20.992188 C 17.136719 21.027344 17.234375 21.074219 17.328125 21.125 C 17.886719 21.445312 18.261719 22.046875 18.261719 22.738281 C 18.261719 23.546875 17.75 24.234375 17.03125 24.488281 C 17.292969 25.335938 17.742188 26.125 18.363281 26.792969 C 18.941406 26.300781 19.789062 26.199219 20.492188 26.605469 C 21.191406 27.007812 21.527344 27.792969 21.390625 28.542969 C 22.277344 28.746094 23.1875 28.742188 24.050781 28.542969 C 23.914062 27.792969 24.253906 27.007812 24.953125 26.605469 C 25.550781 26.257812 26.257812 26.28125 26.816406 26.605469 C 26.910156 26.660156 26.996094 26.722656 27.082031 26.792969 C 27.378906 26.46875 27.644531 26.109375 27.875 25.714844 C 28.101562 25.320312 28.28125 24.90625 28.410156 24.488281 C 27.691406 24.230469 27.183594 23.546875 27.183594 22.738281 C 27.183594 21.929688 27.695312 21.246094 28.410156 20.988281 C 28.152344 20.144531 27.703125 19.351562 27.082031 18.6875 C 26.5 19.179688 25.652344 19.28125 24.953125 18.875 C 24.253906 18.472656 23.914062 17.6875 24.050781 16.9375 C 23.605469 16.835938 23.160156 16.785156 22.710938 16.785156 Z M 22.722656 20.507812 C 23.957031 20.507812 24.953125 21.503906 24.953125 22.738281 C 24.953125 23.976562 23.957031 24.972656 22.722656 24.972656 C 21.484375 24.972656 20.492188 23.976562 20.492188 22.738281 C 20.492188 21.503906 21.484375 20.507812 22.722656 20.507812 Z M 22.722656 20.507812 "/>
</g>
</svg>
