<?xml version="1.0" encoding="UTF-8"?>
<svg xmlns="http://www.w3.org/2000/svg" xmlns:xlink="http://www.w3.org/1999/xlink" width="32px" height="32px" viewBox="0 0 32 32" version="1.1">
<g id="surface1">
<path style=" stroke:none;fill-rule:nonzero;fill:rgb(36.078432%,41.960785%,75.294119%);fill-opacity:1;" d="M 2.644531 1.574219 L 29.105469 1.574219 C 29.835938 1.574219 30.425781 2.164062 30.425781 2.894531 L 30.425781 29.355469 C 30.425781 30.085938 29.835938 30.675781 29.105469 30.675781 L 2.644531 30.675781 C 1.914062 30.675781 1.324219 30.085938 1.324219 29.355469 L 1.324219 2.894531 C 1.324219 2.164062 1.914062 1.574219 2.644531 1.574219 Z M 2.644531 1.574219 "/>
<path style=" stroke:none;fill-rule:nonzero;fill:rgb(14.901961%,77.64706%,85.490197%);fill-opacity:1;" d="M 15.824219 7.527344 C 15.269531 7.546875 14.78125 7.914062 14.613281 8.449219 L 11.027344 19.722656 L 9.140625 15.578125 C 8.929688 15.105469 8.457031 14.800781 7.9375 14.800781 L 2.644531 14.800781 C 2.636719 14.800781 2.628906 14.800781 2.621094 14.800781 L 1.652344 14.800781 C 1.289062 14.800781 0.992188 15.097656 0.992188 15.464844 L 0.992188 16.785156 C 0.992188 17.152344 1.289062 17.449219 1.652344 17.449219 L 2.605469 17.449219 C 2.621094 17.449219 2.632812 17.449219 2.644531 17.449219 L 7.085938 17.449219 L 10.039062 23.949219 C 10.265625 24.449219 10.777344 24.753906 11.324219 24.722656 C 11.871094 24.691406 12.339844 24.324219 12.507812 23.800781 L 15.875 13.214844 L 19.242188 23.800781 C 19.410156 24.324219 19.878906 24.691406 20.425781 24.722656 C 20.972656 24.753906 21.484375 24.449219 21.710938 23.949219 L 24.664062 17.449219 L 29.113281 17.449219 C 29.121094 17.449219 29.128906 17.449219 29.136719 17.449219 L 30.105469 17.449219 C 30.472656 17.449219 30.765625 17.152344 30.765625 16.785156 L 30.765625 15.464844 C 30.765625 15.097656 30.472656 14.800781 30.105469 14.800781 L 29.152344 14.800781 C 29.136719 14.800781 29.125 14.800781 29.113281 14.800781 L 23.8125 14.800781 C 23.292969 14.800781 22.820312 15.105469 22.609375 15.578125 L 20.722656 19.722656 L 17.136719 8.449219 C 16.957031 7.882812 16.417969 7.503906 15.824219 7.527344 Z M 15.824219 7.527344 "/>
</g>
</svg>
