<?xml version="1.0" encoding="UTF-8"?>
<svg xmlns="http://www.w3.org/2000/svg" xmlns:xlink="http://www.w3.org/1999/xlink" width="24px" height="24px" viewBox="0 0 24 24" version="1.1">
<g id="surface1">
<path style=" stroke:none;fill-rule:nonzero;fill:rgb(36.862746%,20.784314%,69.411767%);fill-opacity:1;" d="M 3.472656 2.667969 L 21.828125 2.667969 C 22.375 2.667969 22.820312 3.113281 22.820312 3.660156 L 22.820312 9.613281 C 22.820312 10.160156 22.375 10.605469 21.828125 10.605469 L 3.472656 10.605469 C 2.925781 10.605469 2.480469 10.160156 2.480469 9.613281 L 2.480469 3.660156 C 2.480469 3.113281 2.925781 2.667969 3.472656 2.667969 Z M 3.472656 2.667969 "/>
<path style=" stroke:none;fill-rule:nonzero;fill:rgb(96.078432%,96.078432%,96.078432%);fill-opacity:1;" d="M 11.90625 5.644531 L 21.828125 5.644531 C 22.101562 5.644531 22.324219 5.867188 22.324219 6.140625 L 22.324219 9.613281 C 22.324219 9.886719 22.101562 10.109375 21.828125 10.109375 L 11.90625 10.109375 C 11.632812 10.109375 11.410156 9.886719 11.410156 9.613281 L 11.410156 6.140625 C 11.410156 5.867188 11.632812 5.644531 11.90625 5.644531 Z M 11.90625 5.644531 "/>
<path style=" stroke:none;fill-rule:nonzero;fill:rgb(49.411765%,34.117648%,76.078433%);fill-opacity:1;" d="M 1.984375 4.652344 C 1.433594 4.652344 0.992188 5.09375 0.992188 5.644531 L 0.992188 20.527344 C 0.992188 21.078125 1.433594 21.519531 1.984375 21.519531 L 21.828125 21.519531 C 22.378906 21.519531 22.820312 21.078125 22.820312 20.527344 L 22.820312 8.621094 C 22.820312 8.070312 22.378906 7.628906 21.828125 7.628906 L 15.378906 7.628906 C 14.828125 7.628906 14.386719 7.1875 14.386719 6.636719 L 14.386719 5.644531 C 14.386719 5.09375 13.945312 4.652344 13.394531 4.652344 Z M 1.984375 4.652344 "/>
<path style=" stroke:none;fill-rule:nonzero;fill:rgb(100%,100%,100%);fill-opacity:0.27451;" d="M 10.167969 9.578125 C 10.03125 9.578125 9.921875 9.6875 9.921875 9.824219 L 9.921875 10.105469 C 9.53125 10.164062 9.167969 10.308594 8.871094 10.546875 C 8.445312 10.890625 8.1875 11.433594 8.1875 12.058594 C 8.1875 12.71875 8.574219 13.226562 9.003906 13.5 C 9.433594 13.773438 9.90625 13.898438 10.261719 14.015625 C 10.648438 14.144531 11.046875 14.269531 11.300781 14.429688 C 11.550781 14.589844 11.660156 14.703125 11.660156 15.035156 C 11.660156 15.40625 11.546875 15.605469 11.347656 15.761719 C 11.152344 15.917969 10.832031 16.027344 10.417969 16.027344 C 10.003906 16.027344 9.667969 15.917969 9.460938 15.773438 C 9.257812 15.632812 9.175781 15.488281 9.175781 15.28125 C 9.179688 15.101562 9.085938 14.9375 8.933594 14.847656 C 8.777344 14.753906 8.585938 14.753906 8.429688 14.847656 C 8.277344 14.9375 8.183594 15.101562 8.1875 15.28125 C 8.1875 15.820312 8.476562 16.296875 8.894531 16.585938 C 9.1875 16.792969 9.539062 16.921875 9.921875 16.980469 L 9.921875 17.265625 C 9.921875 17.402344 10.03125 17.515625 10.167969 17.515625 L 10.667969 17.515625 C 10.804688 17.515625 10.914062 17.402344 10.914062 17.265625 L 10.914062 16.980469 C 11.304688 16.917969 11.667969 16.777344 11.96875 16.535156 C 12.390625 16.199219 12.648438 15.652344 12.648438 15.035156 C 12.648438 14.371094 12.261719 13.863281 11.832031 13.589844 C 11.402344 13.316406 10.929688 13.191406 10.574219 13.074219 C 10.1875 12.945312 9.789062 12.820312 9.535156 12.660156 C 9.285156 12.5 9.175781 12.386719 9.175781 12.058594 C 9.175781 11.6875 9.292969 11.480469 9.492188 11.320312 C 9.691406 11.160156 10.003906 11.058594 10.410156 11.0625 C 10.410156 11.0625 10.414062 11.0625 10.417969 11.0625 C 10.832031 11.0625 11.167969 11.171875 11.375 11.316406 C 11.578125 11.460938 11.660156 11.601562 11.660156 11.808594 C 11.65625 11.988281 11.75 12.152344 11.90625 12.242188 C 12.058594 12.332031 12.25 12.332031 12.402344 12.242188 C 12.558594 12.152344 12.652344 11.988281 12.648438 11.808594 C 12.648438 11.269531 12.359375 10.792969 11.941406 10.503906 C 11.648438 10.296875 11.296875 10.167969 10.914062 10.109375 L 10.914062 9.824219 C 10.914062 9.6875 10.804688 9.578125 10.667969 9.578125 Z M 13.890625 15.777344 C 13.617188 15.777344 13.394531 16 13.394531 16.273438 C 13.394531 16.546875 13.617188 16.769531 13.890625 16.769531 L 15.128906 16.769531 C 15.40625 16.769531 15.628906 16.546875 15.628906 16.273438 C 15.628906 16 15.40625 15.777344 15.128906 15.777344 Z M 13.890625 15.777344 "/>
</g>
</svg>
