<?xml version="1.0" encoding="UTF-8"?>
<svg xmlns="http://www.w3.org/2000/svg" xmlns:xlink="http://www.w3.org/1999/xlink" width="24px" height="24px" viewBox="0 0 24 24" version="1.1">
<g id="surface1">
<path style=" stroke:none;fill-rule:nonzero;fill:rgb(36.862746%,20.784314%,69.411767%);fill-opacity:1;" d="M 3.472656 2.667969 L 21.828125 2.667969 C 22.375 2.667969 22.820312 3.113281 22.820312 3.660156 L 22.820312 9.613281 C 22.820312 10.160156 22.375 10.605469 21.828125 10.605469 L 3.472656 10.605469 C 2.925781 10.605469 2.480469 10.160156 2.480469 9.613281 L 2.480469 3.660156 C 2.480469 3.113281 2.925781 2.667969 3.472656 2.667969 Z M 3.472656 2.667969 "/>
<path style=" stroke:none;fill-rule:nonzero;fill:rgb(96.078432%,96.078432%,96.078432%);fill-opacity:1;" d="M 11.90625 5.644531 L 21.828125 5.644531 C 22.101562 5.644531 22.324219 5.867188 22.324219 6.140625 L 22.324219 9.613281 C 22.324219 9.886719 22.101562 10.109375 21.828125 10.109375 L 11.90625 10.109375 C 11.632812 10.109375 11.410156 9.886719 11.410156 9.613281 L 11.410156 6.140625 C 11.410156 5.867188 11.632812 5.644531 11.90625 5.644531 Z M 11.90625 5.644531 "/>
<path style=" stroke:none;fill-rule:nonzero;fill:rgb(49.411765%,34.117648%,76.078433%);fill-opacity:1;" d="M 1.984375 4.652344 C 1.433594 4.652344 0.992188 5.09375 0.992188 5.644531 L 0.992188 20.527344 C 0.992188 21.078125 1.433594 21.519531 1.984375 21.519531 L 21.828125 21.519531 C 22.378906 21.519531 22.820312 21.078125 22.820312 20.527344 L 22.820312 8.621094 C 22.820312 8.070312 22.378906 7.628906 21.828125 7.628906 L 15.378906 7.628906 C 14.828125 7.628906 14.386719 7.1875 14.386719 6.636719 L 14.386719 5.644531 C 14.386719 5.09375 13.945312 4.652344 13.394531 4.652344 Z M 1.984375 4.652344 "/>
<path style=" stroke:none;fill-rule:nonzero;fill:rgb(100%,100%,100%);fill-opacity:0.27451;" d="M 15.386719 9.621094 C 15.378906 9.621094 15.371094 9.621094 15.363281 9.621094 C 15.332031 9.621094 15.300781 9.625 15.269531 9.632812 L 10.804688 10.625 C 10.578125 10.675781 10.417969 10.875 10.417969 11.105469 L 10.417969 15.195312 C 10.191406 15.121094 9.9375 15.078125 9.671875 15.078125 C 8.710938 15.078125 7.933594 15.628906 7.933594 16.316406 C 7.933594 17.003906 8.710938 17.558594 9.671875 17.558594 C 10.632812 17.558594 11.40625 17.003906 11.40625 16.316406 C 11.40625 16.296875 11.40625 16.273438 11.40625 16.253906 L 11.40625 11.503906 L 14.882812 10.730469 L 14.882812 13.707031 C 14.65625 13.632812 14.402344 13.589844 14.136719 13.589844 C 13.175781 13.589844 12.398438 14.140625 12.398438 14.828125 C 12.398438 15.515625 13.175781 16.070312 14.136719 16.070312 C 15.097656 16.070312 15.871094 15.515625 15.871094 14.828125 C 15.871094 14.808594 15.871094 14.785156 15.871094 14.765625 L 15.871094 10.113281 C 15.871094 9.84375 15.65625 9.625 15.386719 9.621094 Z M 15.386719 9.621094 "/>
</g>
</svg>
