<?xml version="1.0" encoding="UTF-8"?>
<svg xmlns="http://www.w3.org/2000/svg" xmlns:xlink="http://www.w3.org/1999/xlink" width="24px" height="24px" viewBox="0 0 24 24" version="1.1">
<g id="surface1">
<path style=" stroke:none;fill-rule:nonzero;fill:rgb(36.862746%,20.784314%,69.411767%);fill-opacity:1;" d="M 3.472656 2.667969 L 21.828125 2.667969 C 22.375 2.667969 22.820312 3.113281 22.820312 3.660156 L 22.820312 9.613281 C 22.820312 10.160156 22.375 10.605469 21.828125 10.605469 L 3.472656 10.605469 C 2.925781 10.605469 2.480469 10.160156 2.480469 9.613281 L 2.480469 3.660156 C 2.480469 3.113281 2.925781 2.667969 3.472656 2.667969 Z M 3.472656 2.667969 "/>
<path style=" stroke:none;fill-rule:nonzero;fill:rgb(96.078432%,96.078432%,96.078432%);fill-opacity:1;" d="M 11.90625 5.644531 L 21.828125 5.644531 C 22.101562 5.644531 22.324219 5.867188 22.324219 6.140625 L 22.324219 9.613281 C 22.324219 9.886719 22.101562 10.109375 21.828125 10.109375 L 11.90625 10.109375 C 11.632812 10.109375 11.410156 9.886719 11.410156 9.613281 L 11.410156 6.140625 C 11.410156 5.867188 11.632812 5.644531 11.90625 5.644531 Z M 11.90625 5.644531 "/>
<path style=" stroke:none;fill-rule:nonzero;fill:rgb(49.411765%,34.117648%,76.078433%);fill-opacity:1;" d="M 1.984375 4.652344 C 1.433594 4.652344 0.992188 5.09375 0.992188 5.644531 L 0.992188 20.527344 C 0.992188 21.078125 1.433594 21.519531 1.984375 21.519531 L 21.828125 21.519531 C 22.378906 21.519531 22.820312 21.078125 22.820312 20.527344 L 22.820312 9.117188 C 22.820312 8.566406 22.378906 8.132812 21.828125 8.125 L 15.378906 8.125 C 14.828125 8.125 14.386719 7.683594 14.386719 7.132812 L 14.386719 5.644531 C 14.386719 5.09375 13.945312 4.652344 13.394531 4.652344 Z M 1.984375 4.652344 "/>
<path style=" stroke:none;fill-rule:nonzero;fill:rgb(100%,100%,100%);fill-opacity:0.313726;" d="M 6.449219 18.542969 C 6.996094 18.542969 7.441406 18.988281 7.441406 19.535156 C 7.441406 20.082031 6.996094 20.527344 6.449219 20.527344 C 5.902344 20.527344 5.457031 20.082031 5.457031 19.535156 C 5.457031 18.988281 5.902344 18.542969 6.449219 18.542969 Z M 6.449219 18.542969 "/>
<path style=" stroke:none;fill-rule:nonzero;fill:rgb(100%,100%,100%);fill-opacity:0.313726;" d="M 6.449219 12.589844 C 4.785156 12.589844 3.257812 13.195312 2.085938 14.199219 C 1.949219 14.3125 1.882812 14.492188 1.917969 14.667969 C 1.949219 14.84375 2.074219 14.988281 2.242188 15.046875 C 2.410156 15.105469 2.597656 15.070312 2.734375 14.953125 C 3.730469 14.097656 5.023438 13.582031 6.449219 13.582031 C 7.875 13.582031 9.167969 14.097656 10.164062 14.953125 C 10.300781 15.070312 10.488281 15.105469 10.65625 15.046875 C 10.824219 14.988281 10.949219 14.84375 10.980469 14.667969 C 11.015625 14.492188 10.949219 14.3125 10.8125 14.199219 C 9.640625 13.195312 8.113281 12.589844 6.449219 12.589844 Z M 6.449219 14.574219 C 5.277344 14.574219 4.203125 15 3.378906 15.707031 C 3.242188 15.820312 3.175781 16 3.207031 16.175781 C 3.242188 16.351562 3.367188 16.496094 3.535156 16.554688 C 3.703125 16.613281 3.890625 16.578125 4.023438 16.460938 C 4.675781 15.902344 5.519531 15.566406 6.449219 15.566406 C 7.378906 15.566406 8.222656 15.902344 8.875 16.460938 C 9.007812 16.578125 9.195312 16.613281 9.363281 16.554688 C 9.53125 16.496094 9.65625 16.351562 9.691406 16.175781 C 9.722656 16 9.65625 15.820312 9.519531 15.707031 C 8.695312 15 7.621094 14.574219 6.449219 14.574219 Z M 6.449219 16.558594 C 5.773438 16.558594 5.148438 16.804688 4.671875 17.214844 C 4.535156 17.328125 4.46875 17.507812 4.5 17.683594 C 4.535156 17.859375 4.65625 18.003906 4.828125 18.0625 C 4.996094 18.121094 5.183594 18.085938 5.316406 17.96875 C 5.621094 17.707031 6.011719 17.550781 6.449219 17.550781 C 6.886719 17.550781 7.277344 17.707031 7.582031 17.96875 C 7.714844 18.085938 7.902344 18.121094 8.070312 18.0625 C 8.242188 18.003906 8.363281 17.859375 8.398438 17.683594 C 8.429688 17.507812 8.363281 17.328125 8.226562 17.214844 C 7.75 16.804688 7.125 16.558594 6.449219 16.558594 Z M 6.449219 16.558594 "/>
</g>
</svg>
