<?xml version="1.0" encoding="UTF-8"?>
<svg xmlns="http://www.w3.org/2000/svg" xmlns:xlink="http://www.w3.org/1999/xlink" width="24px" height="24px" viewBox="0 0 24 24" version="1.1">
<g id="surface1">
<path style=" stroke:none;fill-rule:nonzero;fill:rgb(36.862746%,20.784314%,69.411767%);fill-opacity:1;" d="M 3.472656 2.667969 L 21.828125 2.667969 C 22.375 2.667969 22.820312 3.113281 22.820312 3.660156 L 22.820312 9.613281 C 22.820312 10.160156 22.375 10.605469 21.828125 10.605469 L 3.472656 10.605469 C 2.925781 10.605469 2.480469 10.160156 2.480469 9.613281 L 2.480469 3.660156 C 2.480469 3.113281 2.925781 2.667969 3.472656 2.667969 Z M 3.472656 2.667969 "/>
<path style=" stroke:none;fill-rule:nonzero;fill:rgb(96.078432%,96.078432%,96.078432%);fill-opacity:1;" d="M 11.90625 5.644531 L 21.828125 5.644531 C 22.101562 5.644531 22.324219 5.867188 22.324219 6.140625 L 22.324219 9.613281 C 22.324219 9.886719 22.101562 10.109375 21.828125 10.109375 L 11.90625 10.109375 C 11.632812 10.109375 11.410156 9.886719 11.410156 9.613281 L 11.410156 6.140625 C 11.410156 5.867188 11.632812 5.644531 11.90625 5.644531 Z M 11.90625 5.644531 "/>
<path style=" stroke:none;fill-rule:nonzero;fill:rgb(49.411765%,34.117648%,76.078433%);fill-opacity:1;" d="M 1.984375 4.652344 C 1.433594 4.652344 0.992188 5.09375 0.992188 5.644531 L 0.992188 20.527344 C 0.992188 21.078125 1.433594 21.519531 1.984375 21.519531 L 21.828125 21.519531 C 22.378906 21.519531 22.820312 21.078125 22.820312 20.527344 L 22.820312 9.117188 C 22.820312 8.566406 22.378906 8.132812 21.828125 8.125 L 15.378906 8.125 C 14.828125 8.125 14.386719 7.683594 14.386719 7.132812 L 14.386719 5.644531 C 14.386719 5.09375 13.945312 4.652344 13.394531 4.652344 Z M 1.984375 4.652344 "/>
<path style=" stroke:none;fill-rule:nonzero;fill:rgb(100%,100%,100%);fill-opacity:0.313726;" d="M 3.472656 12.589844 C 2.921875 12.589844 2.480469 13.03125 2.480469 13.582031 C 2.480469 14.046875 2.796875 14.433594 3.222656 14.542969 L 3.222656 19.027344 C 3.222656 19.027344 3.226562 19.03125 3.226562 19.03125 C 3.226562 19.035156 3.222656 19.035156 3.222656 19.039062 C 3.222656 19.175781 3.335938 19.285156 3.472656 19.285156 L 4.980469 19.285156 C 5.097656 19.992188 5.710938 20.527344 6.449219 20.527344 C 7.1875 20.527344 7.800781 19.992188 7.917969 19.285156 L 9.425781 19.285156 C 9.425781 19.285156 9.429688 19.285156 9.429688 19.285156 C 9.433594 19.285156 9.433594 19.285156 9.4375 19.285156 C 9.582031 19.285156 9.695312 19.171875 9.695312 19.027344 L 9.695312 14.535156 C 10.113281 14.417969 10.417969 14.039062 10.417969 13.582031 C 10.417969 13.03125 9.976562 12.589844 9.425781 12.589844 C 8.875 12.589844 8.433594 13.03125 8.433594 13.582031 C 8.433594 14.046875 8.75 14.433594 9.175781 14.542969 L 9.175781 18.789062 L 7.917969 18.789062 C 7.8125 18.167969 7.320312 17.675781 6.695312 17.570312 L 6.695312 16.28125 C 7.125 16.171875 7.441406 15.78125 7.441406 15.316406 C 7.441406 14.769531 7 14.324219 6.449219 14.324219 C 5.898438 14.324219 5.457031 14.769531 5.457031 15.316406 C 5.457031 15.78125 5.773438 16.171875 6.199219 16.28125 L 6.199219 17.570312 C 5.578125 17.675781 5.085938 18.167969 4.980469 18.789062 L 3.746094 18.789062 L 3.746094 14.535156 C 4.160156 14.417969 4.464844 14.039062 4.464844 13.582031 C 4.464844 13.03125 4.023438 12.589844 3.472656 12.589844 Z M 3.472656 12.589844 "/>
</g>
</svg>
