<?xml version="1.0" encoding="UTF-8"?>
<svg xmlns="http://www.w3.org/2000/svg" xmlns:xlink="http://www.w3.org/1999/xlink" width="16px" height="16px" viewBox="0 0 16 16" version="1.1">
<g id="surface1">
<defs>
  <style id="current-color-scheme" type="text/css">
   .ColorScheme-Text { color:#424242; } .ColorScheme-Highlight { color:#eeeeee; }
  </style>
 </defs>
<path style="fill:currentColor" class="ColorScheme-Text" d="M 8 1 C 5.785156 1 4 2.785156 4 5 C 4 5.015625 4.003906 5.035156 4.007812 5.050781 C 3.84375 5.019531 3.671875 5 3.5 5 C 2.113281 5 1 6.113281 1 7.5 C 1 8.878906 2.105469 9.988281 3.480469 10 L 6 10 L 6 9 C 6 7.890625 6.890625 7 8 7 C 9.109375 7 10 7.890625 10 9 L 10 10 L 11.5 10 C 13.4375 10 15 8.4375 15 6.5 C 15 4.5625 13.4375 3 11.5 3 C 11.484375 3 11.46875 3.003906 11.453125 3.003906 C 10.761719 1.808594 9.484375 1 8 1 Z M 8 1 "/>
<path style=" stroke:none;fill-rule:nonzero;fill:rgb(93.725491%,32.549021%,31.37255%);fill-opacity:1;" d="M 8 8 C 7.445312 8 7 8.445312 7 9 L 7 11 C 7 11.554688 7.445312 12 8 12 C 8.554688 12 9 11.554688 9 11 L 9 9 C 9 8.445312 8.554688 8 8 8 Z M 8 13 C 7.445312 13 7 13.445312 7 14 C 7 14.554688 7.445312 15 8 15 C 8.554688 15 9 14.554688 9 14 C 9 13.445312 8.554688 13 8 13 Z M 8 13 "/>
</g>
</svg>
