<?xml version="1.0" encoding="UTF-8"?>
<svg xmlns="http://www.w3.org/2000/svg" xmlns:xlink="http://www.w3.org/1999/xlink" width="64px" height="64px" viewBox="0 0 64 64" version="1.1">
<g id="surface1">
<path style=" stroke:none;fill-rule:nonzero;fill:rgb(36.862746%,20.784314%,69.411767%);fill-opacity:1;" d="M 9.261719 7.113281 L 58.207031 7.113281 C 59.667969 7.113281 60.855469 8.300781 60.855469 9.761719 L 60.855469 25.636719 C 60.855469 27.097656 59.667969 28.28125 58.207031 28.28125 L 9.261719 28.28125 C 7.800781 28.28125 6.613281 27.097656 6.613281 25.636719 L 6.613281 9.761719 C 6.613281 8.300781 7.800781 7.113281 9.261719 7.113281 Z M 9.261719 7.113281 "/>
<path style=" stroke:none;fill-rule:nonzero;fill:rgb(96.078432%,96.078432%,96.078432%);fill-opacity:1;" d="M 31.75 15.050781 L 58.207031 15.050781 C 58.9375 15.050781 59.53125 15.644531 59.53125 16.375 L 59.53125 25.636719 C 59.53125 26.367188 58.9375 26.957031 58.207031 26.957031 L 31.75 26.957031 C 31.019531 26.957031 30.425781 26.367188 30.425781 25.636719 L 30.425781 16.375 C 30.425781 15.644531 31.019531 15.050781 31.75 15.050781 Z M 31.75 15.050781 "/>
<path style=" stroke:none;fill-rule:nonzero;fill:rgb(49.411765%,34.117648%,76.078433%);fill-opacity:1;" d="M 5.292969 12.40625 C 3.824219 12.40625 2.644531 13.585938 2.644531 15.050781 L 2.644531 54.738281 C 2.644531 56.207031 3.824219 57.386719 5.292969 57.386719 L 58.207031 57.386719 C 59.675781 57.386719 60.855469 56.207031 60.855469 54.738281 L 60.855469 24.3125 C 60.855469 22.847656 59.675781 21.6875 58.207031 21.667969 L 41.011719 21.667969 C 39.542969 21.667969 38.363281 20.488281 38.363281 19.019531 L 38.363281 15.050781 C 38.363281 13.585938 37.183594 12.40625 35.71875 12.40625 Z M 5.292969 12.40625 "/>
<path style=" stroke:none;fill-rule:nonzero;fill:rgb(100%,100%,100%);fill-opacity:0.313726;" d="M 22.039062 42.316406 C 21.796875 42.085938 21.445312 41.984375 21.097656 42.078125 L 17.09375 43.148438 L 13.425781 39.480469 C 13.167969 39.222656 12.75 39.222656 12.492188 39.480469 C 12.234375 39.738281 12.234375 40.15625 12.492188 40.414062 L 15.964844 43.890625 C 15.898438 44.074219 15.886719 44.28125 15.941406 44.484375 C 16.085938 45.015625 16.625 45.328125 17.15625 45.1875 L 17.25 45.160156 C 17.507812 45.351562 17.871094 45.328125 18.105469 45.09375 C 18.164062 45.035156 18.207031 44.96875 18.238281 44.898438 L 21.609375 43.992188 C 22.140625 43.851562 22.453125 43.308594 22.3125 42.777344 C 22.261719 42.597656 22.167969 42.4375 22.039062 42.316406 Z M 22.039062 42.316406 "/>
<path style=" stroke:none;fill-rule:nonzero;fill:rgb(100%,100%,100%);fill-opacity:0.313726;" d="M 17.199219 33.574219 C 11.335938 33.574219 6.613281 38.292969 6.613281 44.15625 C 6.613281 50.019531 11.335938 54.738281 17.199219 54.738281 C 23.0625 54.738281 27.78125 50.019531 27.78125 44.15625 C 27.78125 38.292969 23.0625 33.574219 17.199219 33.574219 Z M 17.199219 36.21875 C 21.59375 36.21875 25.136719 39.757812 25.136719 44.15625 C 25.136719 48.554688 21.59375 52.09375 17.199219 52.09375 C 12.800781 52.09375 9.261719 48.554688 9.261719 44.15625 C 9.261719 39.757812 12.800781 36.21875 17.199219 36.21875 Z M 17.199219 36.21875 "/>
</g>
</svg>
