<?xml version="1.0" encoding="UTF-8"?>
<svg xmlns="http://www.w3.org/2000/svg" xmlns:xlink="http://www.w3.org/1999/xlink" width="32px" height="32px" viewBox="0 0 32 32" version="1.1">
<g id="surface1">
<path style=" stroke:none;fill-rule:nonzero;fill:rgb(38.039216%,38.039216%,38.039216%);fill-opacity:1;" d="M 5.953125 1.574219 L 25.796875 1.574219 C 26.527344 1.574219 27.121094 2.164062 27.121094 2.894531 L 27.121094 29.355469 C 27.121094 30.085938 26.527344 30.675781 25.796875 30.675781 L 5.953125 30.675781 C 5.222656 30.675781 4.628906 30.085938 4.628906 29.355469 L 4.628906 2.894531 C 4.628906 2.164062 5.222656 1.574219 5.953125 1.574219 Z M 5.953125 1.574219 "/>
<path style=" stroke:none;fill-rule:nonzero;fill:rgb(25.882354%,25.882354%,25.882354%);fill-opacity:1;" d="M 15.875 3.558594 C 20.625 3.558594 24.472656 7.40625 24.472656 12.15625 C 24.472656 16.90625 20.625 20.753906 15.875 20.753906 C 11.125 20.753906 7.277344 16.90625 7.277344 12.15625 C 7.277344 7.40625 11.125 3.558594 15.875 3.558594 Z M 15.875 3.558594 "/>
<path style=" stroke:none;fill-rule:nonzero;fill:rgb(38.039216%,38.039216%,38.039216%);fill-opacity:1;" d="M 15.875 4.21875 C 20.257812 4.21875 23.8125 7.773438 23.8125 12.15625 C 23.8125 16.539062 20.257812 20.09375 15.875 20.09375 C 11.492188 20.09375 7.9375 16.539062 7.9375 12.15625 C 7.9375 7.773438 11.492188 4.21875 15.875 4.21875 Z M 15.875 4.21875 "/>
<path style=" stroke:none;fill-rule:nonzero;fill:rgb(45.882353%,45.882353%,45.882353%);fill-opacity:1;" d="M 7.9375 26.707031 C 8.667969 26.707031 9.261719 27.300781 9.261719 28.03125 C 9.261719 28.761719 8.667969 29.355469 7.9375 29.355469 C 7.207031 29.355469 6.613281 28.761719 6.613281 28.03125 C 6.613281 27.300781 7.207031 26.707031 7.9375 26.707031 Z M 7.9375 26.707031 "/>
<path style=" stroke:none;fill-rule:nonzero;fill:rgb(45.882353%,45.882353%,45.882353%);fill-opacity:1;" d="M 23.8125 26.707031 C 24.542969 26.707031 25.136719 27.300781 25.136719 28.03125 C 25.136719 28.761719 24.542969 29.355469 23.8125 29.355469 C 23.082031 29.355469 22.488281 28.761719 22.488281 28.03125 C 22.488281 27.300781 23.082031 26.707031 23.8125 26.707031 Z M 23.8125 26.707031 "/>
<path style=" stroke:none;fill-rule:nonzero;fill:rgb(74.117649%,74.117649%,74.117649%);fill-opacity:1;" d="M 7.9375 27.371094 C 8.304688 27.371094 8.597656 27.664062 8.597656 28.03125 C 8.597656 28.398438 8.304688 28.691406 7.9375 28.691406 C 7.570312 28.691406 7.277344 28.398438 7.277344 28.03125 C 7.277344 27.664062 7.570312 27.371094 7.9375 27.371094 Z M 7.9375 27.371094 "/>
<path style=" stroke:none;fill-rule:nonzero;fill:rgb(74.117649%,74.117649%,74.117649%);fill-opacity:1;" d="M 23.8125 27.371094 C 24.179688 27.371094 24.472656 27.664062 24.472656 28.03125 C 24.472656 28.398438 24.179688 28.691406 23.8125 28.691406 C 23.445312 28.691406 23.152344 28.398438 23.152344 28.03125 C 23.152344 27.664062 23.445312 27.371094 23.8125 27.371094 Z M 23.8125 27.371094 "/>
<path style=" stroke:none;fill-rule:nonzero;fill:rgb(25.882354%,25.882354%,25.882354%);fill-opacity:1;" d="M 11.246094 22.738281 C 10.878906 22.738281 10.582031 23.035156 10.582031 23.402344 L 10.582031 30.675781 L 21.167969 30.675781 L 21.167969 23.402344 C 21.167969 23.035156 20.871094 22.738281 20.503906 22.738281 Z M 11.246094 22.738281 "/>
<path style=" stroke:none;fill-rule:nonzero;fill:rgb(100%,65.490198%,14.901961%);fill-opacity:1;" d="M 11.574219 27.371094 L 20.175781 27.371094 C 20.355469 27.371094 20.503906 27.519531 20.503906 27.699219 L 20.503906 28.363281 C 20.503906 28.542969 20.355469 28.691406 20.175781 28.691406 L 11.574219 28.691406 C 11.394531 28.691406 11.246094 28.542969 11.246094 28.363281 L 11.246094 27.699219 C 11.246094 27.519531 11.394531 27.371094 11.574219 27.371094 Z M 11.574219 27.371094 "/>
<path style=" stroke:none;fill-rule:nonzero;fill:rgb(100%,65.490198%,14.901961%);fill-opacity:1;" d="M 11.574219 25.386719 L 20.175781 25.386719 C 20.355469 25.386719 20.503906 25.535156 20.503906 25.714844 L 20.503906 26.378906 C 20.503906 26.558594 20.355469 26.707031 20.175781 26.707031 L 11.574219 26.707031 C 11.394531 26.707031 11.246094 26.558594 11.246094 26.378906 L 11.246094 25.714844 C 11.246094 25.535156 11.394531 25.386719 11.574219 25.386719 Z M 11.574219 25.386719 "/>
<path style=" stroke:none;fill-rule:nonzero;fill:rgb(100%,65.490198%,14.901961%);fill-opacity:1;" d="M 11.574219 23.402344 L 20.175781 23.402344 C 20.355469 23.402344 20.503906 23.550781 20.503906 23.730469 L 20.503906 24.394531 C 20.503906 24.574219 20.355469 24.722656 20.175781 24.722656 L 11.574219 24.722656 C 11.394531 24.722656 11.246094 24.574219 11.246094 24.394531 L 11.246094 23.730469 C 11.246094 23.550781 11.394531 23.402344 11.574219 23.402344 Z M 11.574219 23.402344 "/>
<path style=" stroke:none;fill-rule:nonzero;fill:rgb(25.882354%,25.882354%,25.882354%);fill-opacity:1;" d="M 15.875 7.527344 L 11.246094 14.140625 L 20.503906 14.140625 Z M 11.246094 15.464844 L 11.246094 16.785156 L 20.503906 16.785156 L 20.503906 15.464844 Z M 11.246094 15.464844 "/>
</g>
</svg>
