<?xml version="1.0" encoding="UTF-8"?>
<svg xmlns="http://www.w3.org/2000/svg" xmlns:xlink="http://www.w3.org/1999/xlink" width="48px" height="48px" viewBox="0 0 48 48" version="1.1">
<g id="surface1">
<path style=" stroke:none;fill-rule:nonzero;fill:rgb(95.686275%,26.274511%,21.176471%);fill-opacity:1;" d="M 30.28125 35.242188 C 29.734375 35.242188 29.296875 35.683594 29.296875 36.226562 L 29.296875 44.03125 C 29.296875 44.78125 30.101562 45.257812 30.757812 44.890625 L 39.6875 39.070312 C 40 38.898438 40.195312 38.566406 40.195312 38.210938 L 40.195312 36.226562 C 40.195312 35.683594 39.753906 35.242188 39.210938 35.242188 Z M 30.28125 35.242188 "/>
<path style=" stroke:none;fill-rule:nonzero;fill:rgb(93.725491%,32.549021%,31.37255%);fill-opacity:1;" d="M 3.96875 3.351562 L 43.65625 3.351562 C 44.753906 3.351562 45.640625 4.238281 45.640625 5.335938 L 45.640625 37.085938 C 45.640625 38.183594 44.753906 39.070312 43.65625 39.070312 L 3.96875 39.070312 C 2.871094 39.070312 1.984375 38.183594 1.984375 37.085938 L 1.984375 5.335938 C 1.984375 4.238281 2.871094 3.351562 3.96875 3.351562 Z M 3.96875 3.351562 "/>
<path style=" stroke:none;fill-rule:nonzero;fill:rgb(96.078432%,96.078432%,96.078432%);fill-opacity:1;" d="M 30.476562 13.84375 L 31.179688 14.546875 C 31.371094 14.738281 31.371094 15.054688 31.179688 15.246094 L 17.847656 28.578125 C 17.65625 28.769531 17.339844 28.769531 17.148438 28.578125 L 16.445312 27.875 C 16.253906 27.683594 16.253906 27.367188 16.445312 27.175781 L 29.777344 13.84375 C 29.96875 13.652344 30.285156 13.652344 30.476562 13.84375 Z M 30.476562 13.84375 "/>
<path style=" stroke:none;fill-rule:nonzero;fill:rgb(96.078432%,96.078432%,96.078432%);fill-opacity:1;" d="M 31.179688 27.875 L 30.476562 28.578125 C 30.285156 28.769531 29.96875 28.769531 29.777344 28.578125 L 16.445312 15.246094 C 16.253906 15.054688 16.253906 14.738281 16.445312 14.546875 L 17.148438 13.84375 C 17.339844 13.652344 17.65625 13.652344 17.847656 13.84375 L 31.179688 27.175781 C 31.371094 27.367188 31.371094 27.683594 31.179688 27.875 Z M 31.179688 27.875 "/>
</g>
</svg>
