<?xml version="1.0" encoding="UTF-8"?>
<svg xmlns="http://www.w3.org/2000/svg" xmlns:xlink="http://www.w3.org/1999/xlink" width="48px" height="48px" viewBox="0 0 48 48" version="1.1">
<g id="surface1">
<path style=" stroke:none;fill-rule:nonzero;fill:rgb(98.431373%,54.901963%,0%);fill-opacity:1;" d="M 23.8125 2.359375 C 22.714844 2.359375 21.828125 5.898438 21.828125 10.296875 L 21.828125 19.398438 L 15.394531 12.960938 C 12.285156 9.851562 9.15625 7.976562 8.378906 8.753906 C 7.601562 9.53125 9.476562 12.660156 12.585938 15.769531 L 19.023438 22.203125 L 9.921875 22.203125 C 5.523438 22.203125 1.984375 23.089844 1.984375 24.1875 C 1.984375 25.285156 5.523438 26.171875 9.921875 26.171875 L 19.023438 26.171875 L 12.585938 32.605469 C 9.476562 35.714844 7.601562 38.84375 8.378906 39.621094 C 9.15625 40.398438 12.285156 38.523438 15.394531 35.414062 L 21.828125 28.976562 L 21.828125 38.078125 C 21.828125 42.476562 22.714844 46.015625 23.8125 46.015625 C 24.910156 46.015625 25.796875 42.476562 25.796875 38.078125 L 25.796875 28.976562 L 32.230469 35.414062 C 35.339844 38.523438 38.46875 40.398438 39.246094 39.621094 C 40.023438 38.84375 38.148438 35.714844 35.039062 32.605469 L 28.601562 26.171875 L 37.703125 26.171875 C 42.101562 26.171875 45.640625 25.285156 45.640625 24.1875 C 45.640625 23.089844 42.101562 22.203125 37.703125 22.203125 L 28.601562 22.203125 L 35.039062 15.769531 C 38.148438 12.660156 40.023438 9.53125 39.246094 8.753906 C 38.46875 7.976562 35.339844 9.851562 32.230469 12.960938 L 25.796875 19.398438 L 25.796875 10.296875 C 25.796875 5.898438 24.910156 2.359375 23.8125 2.359375 Z M 23.8125 2.359375 "/>
<path style=" stroke:none;fill-rule:nonzero;fill:rgb(100%,65.490198%,14.901961%);fill-opacity:1;" d="M 23.8125 8.3125 C 32.578125 8.3125 39.6875 15.421875 39.6875 24.1875 C 39.6875 32.953125 32.578125 40.0625 23.8125 40.0625 C 15.046875 40.0625 7.9375 32.953125 7.9375 24.1875 C 7.9375 15.421875 15.046875 8.3125 23.8125 8.3125 Z M 23.8125 8.3125 "/>
<path style=" stroke:none;fill-rule:nonzero;fill:rgb(69.01961%,74.509805%,77.254903%);fill-opacity:1;" d="M 7.277344 21.273438 C 6.125 21.273438 5.179688 22.136719 5.058594 23.257812 C 5.054688 23.257812 5.046875 23.257812 5.042969 23.257812 C 3.394531 23.257812 2.066406 24.582031 2.066406 26.234375 C 2.066406 27.882812 3.394531 29.210938 5.042969 29.210938 L 11.492188 29.210938 L 11.492188 29.179688 C 13.457031 28.9375 14.964844 27.269531 14.964844 25.242188 C 14.964844 23.042969 13.195312 21.273438 10.996094 21.273438 C 10.199219 21.273438 9.457031 21.503906 8.839844 21.90625 C 8.4375 21.515625 7.886719 21.273438 7.277344 21.273438 Z M 7.277344 21.273438 "/>
<path style=" stroke:none;fill-rule:nonzero;fill:rgb(69.01961%,74.509805%,77.254903%);fill-opacity:1;" d="M 33.300781 32.15625 C 30.511719 32.15625 28.144531 33.921875 27.261719 36.402344 C 25.390625 37.121094 24.074219 38.929688 24.074219 41.058594 C 24.074219 43.609375 25.972656 45.703125 28.4375 46.007812 L 28.4375 46.046875 L 40.125 46.046875 L 40.125 46.015625 C 43.285156 45.703125 45.738281 43.054688 45.738281 39.808594 C 45.738281 36.355469 42.957031 33.574219 39.5 33.574219 C 38.875 33.574219 38.273438 33.664062 37.703125 33.835938 C 36.5625 32.789062 35.042969 32.15625 33.367188 32.15625 Z M 33.300781 32.15625 "/>
</g>
</svg>
