<?xml version="1.0" encoding="UTF-8"?>
<svg xmlns="http://www.w3.org/2000/svg" xmlns:xlink="http://www.w3.org/1999/xlink" width="64px" height="64px" viewBox="0 0 64 64" version="1.1">
<g id="surface1">
<path style=" stroke:none;fill-rule:nonzero;fill:rgb(61.176473%,80.000001%,39.607844%);fill-opacity:1;" d="M 42.332031 3.144531 L 10.582031 3.144531 C 9.117188 3.144531 7.9375 4.324219 7.9375 5.792969 L 7.9375 58.707031 C 7.9375 60.175781 9.117188 61.355469 10.582031 61.355469 L 52.917969 61.355469 C 54.382812 61.355469 55.5625 60.175781 55.5625 58.707031 L 55.5625 16.375 Z M 42.332031 3.144531 "/>
<path style=" stroke:none;fill-rule:nonzero;fill:rgb(48.627451%,70.19608%,25.882354%);fill-opacity:1;" d="M 55.5625 16.375 L 42.332031 3.144531 L 42.332031 13.730469 C 42.332031 15.195312 43.511719 16.375 44.980469 16.375 Z M 55.5625 16.375 "/>
<path style=" stroke:none;fill-rule:nonzero;fill:rgb(96.078432%,96.078432%,96.078432%);fill-opacity:1;" d="M 21.167969 22.988281 L 42.332031 22.988281 C 43.0625 22.988281 43.65625 23.582031 43.65625 24.3125 C 43.65625 25.042969 43.0625 25.636719 42.332031 25.636719 L 21.167969 25.636719 C 20.4375 25.636719 19.84375 25.042969 19.84375 24.3125 C 19.84375 23.582031 20.4375 22.988281 21.167969 22.988281 Z M 21.167969 22.988281 "/>
<path style=" stroke:none;fill-rule:nonzero;fill:rgb(96.078432%,96.078432%,96.078432%);fill-opacity:1;" d="M 21.167969 41.511719 L 39.6875 41.511719 C 40.417969 41.511719 41.011719 42.101562 41.011719 42.832031 C 41.011719 43.5625 40.417969 44.15625 39.6875 44.15625 L 21.167969 44.15625 C 20.4375 44.15625 19.84375 43.5625 19.84375 42.832031 C 19.84375 42.101562 20.4375 41.511719 21.167969 41.511719 Z M 21.167969 41.511719 "/>
<path style=" stroke:none;fill-rule:nonzero;fill:rgb(96.078432%,96.078432%,96.078432%);fill-opacity:1;" d="M 21.167969 28.941406 L 33.074219 28.941406 C 33.804688 28.941406 34.394531 29.535156 34.394531 30.265625 C 34.394531 30.996094 33.804688 31.589844 33.074219 31.589844 L 21.167969 31.589844 C 20.4375 31.589844 19.84375 30.996094 19.84375 30.265625 C 19.84375 29.535156 20.4375 28.941406 21.167969 28.941406 Z M 21.167969 28.941406 "/>
<path style=" stroke:none;fill-rule:nonzero;fill:rgb(96.078432%,96.078432%,96.078432%);fill-opacity:1;" d="M 21.167969 35.558594 L 42.332031 35.558594 C 43.0625 35.558594 43.65625 36.132812 43.65625 36.839844 L 43.65625 36.917969 C 43.65625 37.628906 43.0625 38.203125 42.332031 38.203125 L 21.167969 38.203125 C 20.4375 38.203125 19.84375 37.628906 19.84375 36.917969 L 19.84375 36.839844 C 19.84375 36.132812 20.4375 35.558594 21.167969 35.558594 Z M 21.167969 35.558594 "/>
</g>
</svg>
