<?xml version="1.0" encoding="UTF-8"?>
<svg xmlns="http://www.w3.org/2000/svg" xmlns:xlink="http://www.w3.org/1999/xlink" width="64px" height="64px" viewBox="0 0 64 64" version="1.1">
<g id="surface1">
<path style=" stroke:none;fill-rule:nonzero;fill:rgb(38.039216%,38.039216%,38.039216%);fill-opacity:1;" d="M 42.332031 3.144531 L 10.582031 3.144531 C 9.117188 3.144531 7.9375 4.324219 7.9375 5.792969 L 7.9375 58.707031 C 7.9375 60.175781 9.117188 61.355469 10.582031 61.355469 L 52.917969 61.355469 C 54.382812 61.355469 55.5625 60.175781 55.5625 58.707031 L 55.5625 16.375 Z M 42.332031 3.144531 "/>
<path style=" stroke:none;fill-rule:nonzero;fill:rgb(25.882354%,25.882354%,25.882354%);fill-opacity:1;" d="M 55.5625 16.375 L 42.332031 3.144531 L 42.332031 13.730469 C 42.332031 15.195312 43.511719 16.375 44.980469 16.375 Z M 55.5625 16.375 "/>
<path style=" stroke:none;fill-rule:nonzero;fill:rgb(96.078432%,96.078432%,96.078432%);fill-opacity:1;" d="M 28.820312 22.988281 C 27.566406 22.988281 25.882812 24.003906 25.882812 25.257812 C 25.882812 25.300781 25.882812 25.347656 25.886719 25.390625 C 25.652344 25.304688 25.398438 25.257812 25.128906 25.257812 C 23.871094 25.257812 22.863281 26.269531 22.863281 27.527344 C 22.863281 27.824219 22.914062 28.105469 23.019531 28.363281 C 22.054688 28.621094 21.347656 29.503906 21.347656 30.550781 C 21.347656 31.132812 21.566406 31.664062 21.925781 32.0625 C 21.566406 32.460938 21.347656 32.992188 21.347656 33.574219 C 21.347656 34.15625 21.566406 34.683594 21.925781 35.085938 C 21.566406 35.488281 21.347656 36.015625 21.347656 36.597656 C 21.347656 37.648438 22.054688 38.527344 23.019531 38.785156 C 22.914062 39.046875 22.863281 39.328125 22.863281 39.621094 C 22.863281 40.640625 23.523438 41.496094 24.441406 41.785156 C 24.742188 43.144531 26.617188 44.15625 28.066406 44.15625 C 29.480469 44.15625 30.660156 43.195312 30.996094 41.890625 C 31.089844 41.132812 31.058594 40.125 31.089844 39.242188 L 31.089844 25.257812 C 31.089844 24.003906 30.078125 22.988281 28.820312 22.988281 Z M 34.679688 22.988281 C 33.421875 22.988281 32.410156 24.003906 32.410156 25.257812 L 32.410156 39.242188 C 32.441406 40.125 32.410156 41.132812 32.503906 41.890625 C 32.839844 43.195312 34.019531 44.15625 35.433594 44.15625 C 36.882812 44.15625 38.761719 43.144531 39.0625 41.785156 C 39.980469 41.496094 40.640625 40.640625 40.640625 39.621094 C 40.640625 39.328125 40.582031 39.046875 40.484375 38.785156 C 41.449219 38.527344 42.152344 37.648438 42.152344 36.597656 C 42.152344 36.015625 41.933594 35.488281 41.578125 35.085938 C 41.933594 34.683594 42.152344 34.15625 42.152344 33.574219 C 42.152344 32.992188 41.933594 32.460938 41.578125 32.0625 C 41.933594 31.664062 42.152344 31.132812 42.152344 30.550781 C 42.152344 29.503906 41.449219 28.621094 40.484375 28.363281 C 40.582031 28.105469 40.640625 27.824219 40.640625 27.527344 C 40.640625 26.269531 39.632812 25.257812 38.375 25.257812 C 38.105469 25.257812 37.851562 25.304688 37.613281 25.390625 C 37.613281 25.347656 37.617188 25.300781 37.617188 25.257812 C 37.617188 24.003906 35.933594 22.988281 34.679688 22.988281 Z M 34.679688 22.988281 "/>
</g>
</svg>
