<?xml version="1.0" encoding="UTF-8"?>
<svg xmlns="http://www.w3.org/2000/svg" xmlns:xlink="http://www.w3.org/1999/xlink" width="64px" height="64px" viewBox="0 0 64 64" version="1.1">
<g id="surface1">
<path style=" stroke:none;fill-rule:nonzero;fill:rgb(100%,65.490198%,14.901961%);fill-opacity:1;" d="M 5.292969 11.082031 L 58.207031 11.082031 C 59.667969 11.082031 60.855469 12.269531 60.855469 13.730469 L 60.855469 50.769531 C 60.855469 52.230469 59.667969 53.417969 58.207031 53.417969 L 5.292969 53.417969 C 3.832031 53.417969 2.644531 52.230469 2.644531 50.769531 L 2.644531 13.730469 C 2.644531 12.269531 3.832031 11.082031 5.292969 11.082031 Z M 5.292969 11.082031 "/>
<path style=" stroke:none;fill-rule:nonzero;fill:rgb(25.882354%,64.705884%,96.078432%);fill-opacity:1;" d="M 31.75 19.019531 C 24.421875 19.019531 18.519531 24.921875 18.519531 32.25 C 18.519531 39.578125 24.421875 45.480469 31.75 45.480469 C 39.078125 45.480469 44.980469 39.578125 44.980469 32.25 C 44.980469 24.921875 39.078125 19.019531 31.75 19.019531 Z M 29.105469 24.761719 L 29.105469 38.863281 C 29.105469 39.191406 29.164062 39.507812 29.273438 39.796875 C 26.09375 38.757812 23.8125 35.78125 23.8125 32.25 C 23.8125 28.78125 26.015625 25.847656 29.105469 24.761719 Z M 34.394531 24.761719 C 37.484375 25.847656 39.6875 28.78125 39.6875 32.25 C 39.6875 35.78125 37.40625 38.757812 34.226562 39.796875 C 34.335938 39.507812 34.394531 39.191406 34.394531 38.863281 Z M 34.394531 24.761719 "/>
</g>
</svg>
