<?xml version="1.0" encoding="UTF-8"?>
<svg xmlns="http://www.w3.org/2000/svg" xmlns:xlink="http://www.w3.org/1999/xlink" width="64px" height="64px" viewBox="0 0 64 64" version="1.1">
<g id="surface1">
<path style=" stroke:none;fill-rule:nonzero;fill:rgb(87.843138%,87.843138%,87.843138%);fill-opacity:1;" d="M 42.332031 3.144531 L 10.582031 3.144531 C 9.117188 3.144531 7.9375 4.324219 7.9375 5.792969 L 7.9375 58.707031 C 7.9375 60.175781 9.117188 61.355469 10.582031 61.355469 L 52.917969 61.355469 C 54.382812 61.355469 55.5625 60.175781 55.5625 58.707031 L 55.5625 16.375 Z M 42.332031 3.144531 "/>
<path style=" stroke:none;fill-rule:nonzero;fill:rgb(74.117649%,74.117649%,74.117649%);fill-opacity:1;" d="M 55.5625 16.375 L 42.332031 3.144531 L 42.332031 13.730469 C 42.332031 15.195312 43.511719 16.375 44.980469 16.375 Z M 55.5625 16.375 "/>
<path style=" stroke:none;fill-rule:nonzero;fill:rgb(25.882354%,25.882354%,25.882354%);fill-opacity:1;" d="M 23.8125 22.988281 C 23.078125 22.988281 22.488281 23.578125 22.488281 24.3125 L 22.488281 26.957031 C 22.488281 27.691406 23.078125 28.28125 23.8125 28.28125 C 24.546875 28.28125 25.136719 27.691406 25.136719 26.957031 L 25.136719 25.636719 L 38.363281 25.636719 L 38.363281 26.957031 C 38.363281 27.691406 38.953125 28.28125 39.6875 28.28125 C 40.421875 28.28125 41.011719 27.691406 41.011719 26.957031 L 41.011719 24.3125 C 41.011719 23.945312 40.863281 23.617188 40.625 23.375 C 40.59375 23.347656 40.5625 23.316406 40.53125 23.289062 C 40.300781 23.101562 40.007812 22.988281 39.6875 22.988281 Z M 29.105469 28.28125 C 28.371094 28.28125 27.78125 28.871094 27.78125 29.605469 L 27.78125 37.542969 L 22.488281 37.542969 L 31.75 44.15625 L 41.011719 37.542969 L 35.71875 37.542969 L 35.71875 29.605469 C 35.71875 28.871094 35.128906 28.28125 34.394531 28.28125 Z M 29.105469 28.28125 "/>
</g>
</svg>
