
<svg xmlns="http://www.w3.org/2000/svg" xmlns:xlink="http://www.w3.org/1999/xlink" width="24px" height="24px" viewBox="0 0 24 24" version="1.1">
<g id="surface1">
<path style=" stroke:none;fill-rule:nonzero;fill:rgb(36.078432%,41.960785%,75.294119%);fill-opacity:1;" d="M 3.222656 2.976562 L 20.589844 2.976562 C 20.726562 2.976562 20.835938 3.085938 20.835938 3.222656 L 20.835938 20.589844 C 20.835938 20.726562 20.726562 20.835938 20.589844 20.835938 L 3.222656 20.835938 C 3.085938 20.835938 2.976562 20.726562 2.976562 20.589844 L 2.976562 3.222656 C 2.976562 3.085938 3.085938 2.976562 3.222656 2.976562 Z M 3.222656 2.976562 "/>
<path style=" stroke:none;fill-rule:nonzero;fill:rgb(67.058825%,27.843139%,73.725492%);fill-opacity:1;" d="M 1.953125 0.992188 L 21.859375 0.992188 C 22.390625 0.992188 22.820312 1.421875 22.820312 1.953125 L 22.820312 21.859375 C 22.820312 22.390625 22.390625 22.820312 21.859375 22.820312 L 1.953125 22.820312 C 1.421875 22.820312 0.992188 22.390625 0.992188 21.859375 L 0.992188 1.953125 C 0.992188 1.421875 1.421875 0.992188 1.953125 0.992188 Z M 1.953125 0.992188 "/>
<path style=" stroke:none;fill-rule:nonzero;fill:rgb(97.254902%,73.333335%,81.568629%);fill-opacity:1;" d="M 2.480469 1.984375 L 21.332031 1.984375 C 21.605469 1.984375 21.828125 2.207031 21.828125 2.480469 L 21.828125 21.332031 C 21.828125 21.605469 21.605469 21.828125 21.332031 21.828125 L 2.480469 21.828125 C 2.207031 21.828125 1.984375 21.605469 1.984375 21.332031 L 1.984375 2.480469 C 1.984375 2.207031 2.207031 1.984375 2.480469 1.984375 Z M 2.480469 1.984375 "/>
<path style=" stroke:none;fill-rule:nonzero;fill:rgb(67.058825%,27.843139%,73.725492%);fill-opacity:1;" d="M 3.222656 2.976562 L 20.589844 2.976562 C 20.726562 2.976562 20.835938 3.085938 20.835938 3.222656 L 20.835938 20.589844 C 20.835938 20.726562 20.726562 20.835938 20.589844 20.835938 L 3.222656 20.835938 C 3.085938 20.835938 2.976562 20.726562 2.976562 20.589844 L 2.976562 3.222656 C 2.976562 3.085938 3.085938 2.976562 3.222656 2.976562 Z M 3.222656 2.976562 "/>
<path style=" stroke:none;fill-rule:nonzero;fill:rgb(97.254902%,73.333335%,81.568629%);fill-opacity:0.999958;" d="M 16.121094 9.671875 C 16.261719 9.671875 16.371094 9.785156 16.371094 9.921875 L 16.371094 15.625 C 16.371094 15.765625 16.261719 15.875 16.121094 15.875 L 15.625 15.875 C 15.621094 15.875 15.613281 15.875 15.609375 15.875 C 15.605469 15.875 15.605469 15.875 15.605469 15.875 C 15.597656 15.875 15.59375 15.871094 15.585938 15.871094 C 15.582031 15.871094 15.578125 15.871094 15.574219 15.867188 C 15.566406 15.867188 15.5625 15.867188 15.558594 15.863281 C 15.554688 15.863281 15.554688 15.863281 15.550781 15.863281 C 15.542969 15.859375 15.539062 15.859375 15.535156 15.855469 C 15.53125 15.855469 15.53125 15.855469 15.53125 15.855469 C 15.523438 15.851562 15.515625 15.847656 15.511719 15.847656 C 15.507812 15.84375 15.503906 15.84375 15.503906 15.84375 C 15.5 15.839844 15.496094 15.835938 15.492188 15.835938 C 15.488281 15.832031 15.488281 15.832031 15.484375 15.828125 C 15.480469 15.828125 15.476562 15.824219 15.472656 15.820312 C 15.472656 15.820312 15.46875 15.816406 15.464844 15.816406 C 15.464844 15.8125 15.460938 15.808594 15.457031 15.808594 C 15.453125 15.804688 15.453125 15.804688 15.449219 15.800781 C 15.445312 15.796875 15.441406 15.792969 15.4375 15.785156 C 15.433594 15.785156 15.433594 15.78125 15.429688 15.777344 C 15.429688 15.773438 15.425781 15.773438 15.425781 15.769531 C 15.421875 15.765625 15.417969 15.761719 15.417969 15.761719 C 15.414062 15.757812 15.414062 15.753906 15.414062 15.753906 C 15.410156 15.75 15.410156 15.746094 15.40625 15.742188 C 15.40625 15.738281 15.402344 15.734375 15.402344 15.734375 C 15.402344 15.730469 15.398438 15.726562 15.398438 15.722656 C 15.394531 15.714844 15.394531 15.710938 15.390625 15.703125 C 15.164062 15.8125 14.90625 15.875 14.632812 15.875 C 13.671875 15.875 12.898438 15.101562 12.898438 14.136719 L 12.898438 13.144531 C 12.898438 12.183594 13.671875 11.410156 14.632812 11.410156 C 14.902344 11.410156 15.152344 11.46875 15.378906 11.578125 L 15.378906 9.921875 C 15.378906 9.785156 15.488281 9.671875 15.625 9.671875 Z M 14.632812 12.402344 C 14.222656 12.402344 13.890625 12.734375 13.890625 13.144531 L 13.890625 14.136719 C 13.890625 14.550781 14.222656 14.882812 14.632812 14.882812 C 15.046875 14.882812 15.378906 14.550781 15.378906 14.136719 L 15.378906 13.144531 C 15.378906 12.734375 15.046875 12.402344 14.632812 12.402344 Z M 14.632812 12.402344 "/>
<path style=" stroke:none;fill-rule:nonzero;fill:rgb(97.254902%,73.333335%,81.568629%);fill-opacity:0.999958;" d="M 8.035156 7.882812 C 7.992188 7.882812 7.953125 7.894531 7.917969 7.914062 L 7.488281 8.164062 C 7.367188 8.230469 7.328125 8.382812 7.394531 8.503906 L 9.359375 11.90625 L 7.394531 15.308594 C 7.328125 15.429688 7.367188 15.582031 7.488281 15.648438 L 7.917969 15.898438 C 8.035156 15.964844 8.1875 15.925781 8.253906 15.804688 L 9.933594 12.898438 L 11.613281 15.804688 C 11.679688 15.925781 11.832031 15.964844 11.953125 15.898438 L 12.382812 15.648438 C 12.5 15.582031 12.539062 15.429688 12.472656 15.308594 L 10.507812 11.90625 L 12.472656 8.503906 C 12.539062 8.382812 12.5 8.230469 12.382812 8.164062 L 11.953125 7.914062 C 11.832031 7.847656 11.679688 7.886719 11.613281 8.007812 L 9.933594 10.914062 L 8.253906 8.007812 C 8.207031 7.925781 8.121094 7.878906 8.035156 7.882812 Z M 8.035156 7.882812 "/>
</g>
</svg>
