<?xml version="1.0" encoding="UTF-8"?>
<svg xmlns="http://www.w3.org/2000/svg" xmlns:xlink="http://www.w3.org/1999/xlink" width="24px" height="24px" viewBox="0 0 24 24" version="1.1">
<g id="surface1">
<path style=" stroke:none;fill-rule:nonzero;fill:rgb(61.176473%,15.294118%,69.01961%);fill-opacity:1;" d="M 8.433594 1.179688 C 7.609375 1.179688 6.945312 1.84375 6.945312 2.667969 L 6.945312 11.101562 C 6.945312 11.75 7.359375 12.300781 7.9375 12.503906 L 7.9375 3.164062 C 7.9375 2.890625 8.160156 2.667969 8.433594 2.667969 L 15.378906 2.667969 C 15.652344 2.667969 15.875 2.890625 15.875 3.164062 L 15.875 12.503906 C 16.453125 12.300781 16.867188 11.75 16.867188 11.101562 L 16.867188 2.667969 C 16.867188 1.84375 16.203125 1.179688 15.378906 1.179688 Z M 8.433594 1.179688 "/>
<path style=" stroke:none;fill-rule:nonzero;fill:rgb(67.058825%,27.843139%,73.725492%);fill-opacity:1;" d="M 1.984375 3.660156 L 21.828125 3.660156 C 22.375 3.660156 22.820312 4.105469 22.820312 4.652344 L 22.820312 22.015625 C 22.820312 22.5625 22.375 23.007812 21.828125 23.007812 L 1.984375 23.007812 C 1.4375 23.007812 0.992188 22.5625 0.992188 22.015625 L 0.992188 4.652344 C 0.992188 4.105469 1.4375 3.660156 1.984375 3.660156 Z M 1.984375 3.660156 "/>
<path style=" stroke:none;fill-rule:nonzero;fill:rgb(55.686277%,14.117648%,66.666669%);fill-opacity:1;" d="M 0.992188 13.085938 L 22.820312 13.085938 L 22.820312 13.582031 L 0.992188 13.582031 Z M 0.992188 13.085938 "/>
<path style=" stroke:none;fill-rule:nonzero;fill:rgb(87.843138%,87.843138%,87.843138%);fill-opacity:1;" d="M 4.710938 11.101562 C 4.574219 11.101562 4.464844 11.210938 4.464844 11.347656 L 4.464844 15.320312 C 4.464844 15.457031 4.574219 15.566406 4.710938 15.566406 L 7.191406 15.566406 C 7.332031 15.566406 7.441406 15.457031 7.441406 15.320312 L 7.441406 11.347656 C 7.441406 11.210938 7.332031 11.101562 7.191406 11.101562 Z M 5.703125 12.09375 L 6.199219 12.09375 C 6.339844 12.09375 6.449219 12.203125 6.449219 12.34375 L 6.449219 14.328125 C 6.449219 14.464844 6.339844 14.574219 6.199219 14.574219 L 5.703125 14.574219 C 5.566406 14.574219 5.457031 14.464844 5.457031 14.328125 L 5.457031 12.34375 C 5.457031 12.203125 5.566406 12.09375 5.703125 12.09375 Z M 5.703125 12.09375 "/>
<path style=" stroke:none;fill-rule:nonzero;fill:rgb(87.843138%,87.843138%,87.843138%);fill-opacity:1;" d="M 16.617188 11.101562 C 16.480469 11.101562 16.371094 11.210938 16.371094 11.347656 L 16.371094 15.320312 C 16.371094 15.457031 16.480469 15.566406 16.617188 15.566406 L 19.097656 15.566406 C 19.238281 15.566406 19.347656 15.457031 19.347656 15.320312 L 19.347656 11.347656 C 19.347656 11.210938 19.238281 11.101562 19.097656 11.101562 Z M 17.609375 12.09375 L 18.105469 12.09375 C 18.246094 12.09375 18.355469 12.203125 18.355469 12.34375 L 18.355469 14.328125 C 18.355469 14.464844 18.246094 14.574219 18.105469 14.574219 L 17.609375 14.574219 C 17.472656 14.574219 17.363281 14.464844 17.363281 14.328125 L 17.363281 12.34375 C 17.363281 12.203125 17.472656 12.09375 17.609375 12.09375 Z M 17.609375 12.09375 "/>
</g>
</svg>
