<?xml version="1.0" encoding="UTF-8"?>
<svg xmlns="http://www.w3.org/2000/svg" xmlns:xlink="http://www.w3.org/1999/xlink" width="24px" height="24px" viewBox="0 0 24 24" version="1.1">
<g id="surface1">
<path style="fill-rule:nonzero;fill:rgb(61.960787%,61.960787%,61.960787%);fill-opacity:1;stroke-width:0.264583;stroke-linecap:round;stroke-linejoin:round;stroke:rgb(96.078432%,96.078432%,96.078432%);stroke-opacity:1;stroke-miterlimit:4;" d="M 80.083333 -112.083333 C 58.583333 -88 42.583333 -60 32.75 -30.083333 L 84.666667 21.833333 L 84.666667 64.166667 L 32.833333 116 C 37.75 130.833333 44.25 145.333333 52.333333 159.416667 C 60.5 173.5 69.833333 186.333333 80.166667 198 L 151 179.083333 L 187.666667 200.25 L 206.666667 271.166667 C 237.5 277.583333 269.75 277.75 301.333333 271.083333 L 320.333333 200.25 L 357 179.083333 L 427.916667 198.083333 C 449.416667 174 465.416667 146 475.25 116.083333 L 423.333333 64.166667 L 423.333333 21.833333 L 475.166667 -30 C 470.25 -44.833333 463.75 -59.333333 455.666667 -73.416667 C 447.5 -87.5 438.166667 -100.333333 427.833333 -112 L 357 -93.083333 L 320.333333 -114.25 L 301.333333 -185.166667 C 270.5 -191.583333 238.25 -191.75 206.666667 -185.083333 L 187.666667 -114.25 L 151 -93.083333 Z M 80.083333 -112.083333 " transform="matrix(0.046875,0,0,0.046875,0,10.078125)"/>
<path style=" stroke:none;fill-rule:nonzero;fill:rgb(74.117649%,74.117649%,74.117649%);fill-opacity:1;" d="M 11.90625 4.15625 C 16.289062 4.15625 19.84375 7.710938 19.84375 12.09375 C 19.84375 16.476562 16.289062 20.03125 11.90625 20.03125 C 7.523438 20.03125 3.96875 16.476562 3.96875 12.09375 C 3.96875 7.710938 7.523438 4.15625 11.90625 4.15625 Z M 11.90625 4.15625 "/>
<path style=" stroke:none;fill-rule:nonzero;fill:rgb(61.960787%,61.960787%,61.960787%);fill-opacity:1;" d="M 11.90625 6.140625 C 15.195312 6.140625 17.859375 8.804688 17.859375 12.09375 C 17.859375 15.382812 15.195312 18.046875 11.90625 18.046875 C 8.617188 18.046875 5.953125 15.382812 5.953125 12.09375 C 5.953125 8.804688 8.617188 6.140625 11.90625 6.140625 Z M 11.90625 6.140625 "/>
<path style=" stroke:none;fill-rule:nonzero;fill:rgb(74.117649%,74.117649%,74.117649%);fill-opacity:1;" d="M 11.90625 8.125 C 14.097656 8.125 15.875 9.902344 15.875 12.09375 C 15.875 14.285156 14.097656 16.0625 11.90625 16.0625 C 9.714844 16.0625 7.9375 14.285156 7.9375 12.09375 C 7.9375 9.902344 9.714844 8.125 11.90625 8.125 Z M 11.90625 8.125 "/>
</g>
</svg>
