<?xml version="1.0" encoding="UTF-8"?>
<svg xmlns="http://www.w3.org/2000/svg" xmlns:xlink="http://www.w3.org/1999/xlink" width="24px" height="24px" viewBox="0 0 24 24" version="1.1">
<g id="surface1">
<path style=" stroke:none;fill-rule:nonzero;fill:rgb(47.450981%,33.333334%,28.235295%);fill-opacity:1;" d="M 11.90625 1.179688 C 17.933594 1.179688 22.820312 6.066406 22.820312 12.09375 C 22.820312 18.121094 17.933594 23.007812 11.90625 23.007812 C 5.878906 23.007812 0.992188 18.121094 0.992188 12.09375 C 0.992188 6.066406 5.878906 1.179688 11.90625 1.179688 Z M 11.90625 1.179688 "/>
<path style=" stroke:none;fill-rule:nonzero;fill:rgb(55.29412%,43.137255%,38.82353%);fill-opacity:1;" d="M 11.90625 2.667969 C 17.113281 2.667969 21.332031 6.886719 21.332031 12.09375 C 21.332031 17.300781 17.113281 21.519531 11.90625 21.519531 C 6.699219 21.519531 2.480469 17.300781 2.480469 12.09375 C 2.480469 6.886719 6.699219 2.667969 11.90625 2.667969 Z M 11.90625 2.667969 "/>
<path style=" stroke:none;fill-rule:nonzero;fill:rgb(87.843138%,87.843138%,87.843138%);fill-opacity:1;" d="M 8.285156 5.820312 C 7.890625 6.050781 7.667969 6.476562 7.578125 6.980469 C 7.484375 7.484375 7.511719 8.089844 7.636719 8.769531 C 7.695312 9.085938 7.773438 9.417969 7.875 9.765625 C 7.523438 9.851562 7.195312 9.949219 6.890625 10.058594 C 6.484375 10.203125 6.121094 10.367188 5.8125 10.550781 C 5.628906 10.660156 5.460938 10.777344 5.3125 10.898438 C 4.921875 11.230469 4.664062 11.640625 4.664062 12.09375 C 4.664062 12.570312 4.945312 12.992188 5.367188 13.332031 C 5.792969 13.675781 6.375 13.957031 7.074219 14.191406 C 7.230469 14.246094 7.402344 14.160156 7.453125 14.003906 C 7.507812 13.847656 7.421875 13.679688 7.261719 13.628906 C 6.605469 13.410156 6.082031 13.144531 5.742188 12.871094 C 5.402344 12.597656 5.257812 12.335938 5.257812 12.09375 C 5.257812 11.863281 5.386719 11.613281 5.695312 11.351562 C 6.007812 11.089844 6.484375 10.832031 7.089844 10.617188 C 7.382812 10.511719 7.707031 10.417969 8.050781 10.332031 C 8.242188 10.898438 8.484375 11.488281 8.769531 12.09375 C 8.203125 13.292969 7.816406 14.4375 7.636719 15.417969 C 7.511719 16.097656 7.484375 16.703125 7.578125 17.207031 C 7.667969 17.710938 7.890625 18.136719 8.285156 18.367188 C 8.667969 18.585938 9.140625 18.574219 9.609375 18.414062 C 10.078125 18.25 10.574219 17.941406 11.085938 17.519531 C 11.214844 17.414062 11.234375 17.226562 11.128906 17.097656 C 11.023438 16.96875 10.832031 16.953125 10.707031 17.0625 C 10.230469 17.457031 9.785156 17.722656 9.414062 17.851562 C 9.046875 17.976562 8.777344 17.964844 8.582031 17.851562 C 8.378906 17.734375 8.230469 17.5 8.160156 17.101562 C 8.085938 16.703125 8.105469 16.160156 8.21875 15.527344 C 8.367188 14.722656 8.667969 13.777344 9.113281 12.773438 C 9.234375 13.011719 9.363281 13.246094 9.5 13.480469 C 10.476562 15.171875 11.597656 16.558594 12.652344 17.453125 C 13.179688 17.902344 13.6875 18.226562 14.167969 18.398438 C 14.652344 18.574219 15.132812 18.59375 15.527344 18.367188 C 15.921875 18.136719 16.144531 17.710938 16.234375 17.207031 C 16.328125 16.703125 16.300781 16.097656 16.175781 15.417969 C 15.929688 14.0625 15.289062 12.394531 14.3125 10.707031 C 14.230469 10.5625 14.046875 10.511719 13.902344 10.59375 C 13.761719 10.675781 13.714844 10.859375 13.796875 11 C 14.746094 12.644531 15.363281 14.261719 15.59375 15.527344 C 15.707031 16.160156 15.726562 16.703125 15.652344 17.101562 C 15.582031 17.5 15.433594 17.734375 15.230469 17.851562 C 15.03125 17.96875 14.75 17.980469 14.371094 17.84375 C 13.988281 17.703125 13.523438 17.417969 13.035156 17.003906 C 12.054688 16.171875 10.960938 14.828125 10.015625 13.1875 C 9.804688 12.820312 9.609375 12.453125 9.429688 12.09375 C 9.609375 11.734375 9.804688 11.367188 10.015625 11 C 10.226562 10.636719 10.445312 10.285156 10.667969 9.949219 C 11.070312 9.921875 11.484375 9.910156 11.90625 9.910156 C 13.800781 9.910156 15.511719 10.183594 16.722656 10.617188 C 17.328125 10.832031 17.804688 11.089844 18.117188 11.351562 C 18.425781 11.613281 18.554688 11.863281 18.554688 12.09375 C 18.554688 12.320312 18.433594 12.558594 18.136719 12.816406 C 17.84375 13.070312 17.386719 13.324219 16.808594 13.539062 C 16.652344 13.59375 16.574219 13.765625 16.628906 13.921875 C 16.6875 14.074219 16.859375 14.152344 17.015625 14.09375 C 17.636719 13.863281 18.152344 13.589844 18.527344 13.261719 C 18.902344 12.9375 19.148438 12.539062 19.148438 12.09375 C 19.148438 11.640625 18.890625 11.230469 18.5 10.898438 C 18.109375 10.570312 17.570312 10.292969 16.921875 10.058594 C 15.621094 9.59375 13.859375 9.316406 11.90625 9.316406 C 11.632812 9.316406 11.363281 9.324219 11.097656 9.332031 C 11.746094 8.449219 12.414062 7.714844 13.035156 7.183594 C 13.523438 6.769531 13.988281 6.484375 14.371094 6.34375 C 14.75 6.207031 15.03125 6.21875 15.230469 6.335938 C 15.441406 6.457031 15.597656 6.714844 15.664062 7.152344 C 15.730469 7.585938 15.695312 8.179688 15.554688 8.863281 C 15.515625 9.023438 15.621094 9.183594 15.78125 9.21875 C 15.945312 9.253906 16.101562 9.144531 16.132812 8.984375 C 16.285156 8.253906 16.332031 7.601562 16.25 7.0625 C 16.167969 6.519531 15.941406 6.0625 15.527344 5.820312 C 15.132812 5.59375 14.652344 5.613281 14.167969 5.789062 C 13.988281 5.851562 13.804688 5.9375 13.617188 6.042969 C 13.300781 6.222656 12.980469 6.453125 12.652344 6.734375 C 11.890625 7.378906 11.089844 8.285156 10.339844 9.378906 C 9.671875 9.433594 9.039062 9.519531 8.453125 9.636719 C 8.355469 9.292969 8.277344 8.96875 8.21875 8.660156 C 8.105469 8.027344 8.085938 7.484375 8.160156 7.085938 C 8.230469 6.6875 8.378906 6.453125 8.582031 6.335938 C 8.78125 6.222656 9.054688 6.207031 9.429688 6.339844 C 9.804688 6.472656 10.257812 6.75 10.742188 7.15625 C 10.867188 7.261719 11.054688 7.246094 11.160156 7.121094 C 11.269531 6.992188 11.25 6.804688 11.121094 6.699219 C 10.601562 6.265625 10.101562 5.949219 9.625 5.78125 C 9.148438 5.613281 8.675781 5.597656 8.285156 5.820312 Z M 8.636719 10.207031 C 9.039062 10.128906 9.46875 10.0625 9.917969 10.015625 C 9.777344 10.238281 9.636719 10.46875 9.5 10.707031 C 9.363281 10.941406 9.234375 11.179688 9.113281 11.414062 C 8.929688 11 8.769531 10.59375 8.636719 10.207031 Z M 8.636719 10.207031 "/>
<path style=" stroke:none;fill-rule:nonzero;fill:rgb(87.843138%,87.843138%,87.843138%);fill-opacity:1;" d="M 11.90625 11.347656 C 12.316406 11.347656 12.648438 11.683594 12.648438 12.09375 C 12.648438 12.503906 12.316406 12.835938 11.90625 12.835938 C 11.496094 12.835938 11.164062 12.503906 11.164062 12.09375 C 11.164062 11.683594 11.496094 11.347656 11.90625 11.347656 Z M 11.90625 11.347656 "/>
</g>
</svg>
