<?xml version="1.0" encoding="UTF-8"?>
<svg xmlns="http://www.w3.org/2000/svg" xmlns:xlink="http://www.w3.org/1999/xlink" width="24px" height="24px" viewBox="0 0 24 24" version="1.1">
<g id="surface1">
<path style=" stroke:none;fill-rule:nonzero;fill:rgb(0%,67.450982%,75.686276%);fill-opacity:1;" d="M 3.96875 1.179688 L 19.84375 1.179688 C 20.390625 1.179688 20.835938 1.625 20.835938 2.171875 L 20.835938 22.015625 C 20.835938 22.5625 20.390625 23.007812 19.84375 23.007812 L 3.96875 23.007812 C 3.421875 23.007812 2.976562 22.5625 2.976562 22.015625 L 2.976562 2.171875 C 2.976562 1.625 3.421875 1.179688 3.96875 1.179688 Z M 3.96875 1.179688 "/>
<path style=" stroke:none;fill-rule:nonzero;fill:rgb(96.078432%,96.078432%,96.078432%);fill-opacity:1;" d="M 5.457031 1.675781 L 19.84375 1.675781 C 20.117188 1.675781 20.339844 1.898438 20.339844 2.171875 L 20.339844 22.015625 C 20.339844 22.289062 20.117188 22.511719 19.84375 22.511719 L 5.457031 22.511719 C 5.183594 22.511719 4.960938 22.289062 4.960938 22.015625 L 4.960938 2.171875 C 4.960938 1.898438 5.183594 1.675781 5.457031 1.675781 Z M 5.457031 1.675781 "/>
<path style=" stroke:none;fill-rule:nonzero;fill:rgb(14.901961%,77.64706%,85.490197%);fill-opacity:1;" d="M 5.953125 1.179688 L 5.953125 23.007812 L 18.851562 23.007812 C 19.402344 23.007812 19.84375 22.566406 19.84375 22.015625 L 19.84375 2.171875 C 19.84375 1.621094 19.402344 1.179688 18.851562 1.179688 Z M 5.953125 1.179688 "/>
<path style=" stroke:none;fill-rule:nonzero;fill:rgb(25.882354%,25.882354%,25.882354%);fill-opacity:1;" d="M 3.96875 1.179688 C 3.417969 1.179688 2.976562 1.621094 2.976562 2.171875 L 2.976562 22.015625 C 2.976562 22.566406 3.417969 23.007812 3.96875 23.007812 L 5.953125 23.007812 L 5.953125 1.179688 Z M 3.96875 1.179688 "/>
<path style=" stroke:none;fill-rule:nonzero;fill:rgb(38.039216%,38.039216%,38.039216%);fill-opacity:1;" d="M 2.976562 11.597656 L 5.457031 11.597656 L 5.457031 12.589844 L 2.976562 12.589844 Z M 2.976562 11.597656 "/>
<path style=" stroke:none;fill-rule:nonzero;fill:rgb(38.039216%,38.039216%,38.039216%);fill-opacity:1;" d="M 2.976562 6.140625 L 5.457031 6.140625 L 5.457031 7.132812 L 2.976562 7.132812 Z M 2.976562 6.140625 "/>
<path style=" stroke:none;fill-rule:nonzero;fill:rgb(38.039216%,38.039216%,38.039216%);fill-opacity:1;" d="M 2.976562 17.054688 L 5.457031 17.054688 L 5.457031 18.046875 L 2.976562 18.046875 Z M 2.976562 17.054688 "/>
<path style=" stroke:none;fill-rule:nonzero;fill:rgb(25.882354%,25.882354%,25.882354%);fill-opacity:1;" d="M 15.875 1.179688 L 17.859375 1.179688 L 17.859375 14.078125 L 16.867188 12.589844 L 15.875 14.078125 Z M 15.875 1.179688 "/>
<path style=" stroke:none;fill-rule:nonzero;fill:rgb(36.470589%,25.098041%,21.568628%);fill-opacity:1;" d="M 22.078125 17.550781 C 22.488281 17.550781 22.820312 17.882812 22.820312 18.296875 C 22.820312 18.707031 22.488281 19.039062 22.078125 19.039062 L 13.144531 19.039062 C 11.410156 19.039062 7.191406 20.03125 7.191406 23.007812 C 5.707031 23.007812 3.96875 23.007812 4.21875 22.015625 C 4.960938 19.785156 7.191406 17.550781 11.160156 17.550781 Z M 22.078125 17.550781 "/>
<path style=" stroke:none;fill-rule:nonzero;fill:rgb(47.450981%,33.333334%,28.235295%);fill-opacity:1;" d="M 4.714844 17.550781 C 4.300781 17.550781 3.96875 17.882812 3.96875 18.296875 C 3.96875 18.707031 4.300781 19.039062 4.714844 19.039062 L 13.640625 19.039062 C 15.378906 19.039062 19.597656 20.03125 19.597656 23.007812 C 21.085938 23.007812 22.820312 23.007812 22.574219 22.015625 C 21.828125 19.785156 19.597656 17.550781 15.628906 17.550781 Z M 4.714844 17.550781 "/>
<path style=" stroke:none;fill-rule:nonzero;fill:rgb(69.01961%,74.509805%,77.254903%);fill-opacity:0.54902;" d="M 18.355469 16.558594 C 20.273438 16.558594 21.828125 17.75 21.828125 19.21875 L 21.828125 19.355469 C 21.828125 20.824219 20.273438 22.015625 18.355469 22.015625 C 16.4375 22.015625 14.882812 20.824219 14.882812 19.355469 L 14.882812 19.21875 C 14.882812 17.75 16.4375 16.558594 18.355469 16.558594 Z M 18.355469 16.558594 "/>
<path style=" stroke:none;fill-rule:nonzero;fill:rgb(55.29412%,43.137255%,38.82353%);fill-opacity:1;" d="M 13.394531 17.550781 C 12.570312 17.550781 11.90625 18.214844 11.90625 19.039062 C 11.90625 19.3125 12.128906 19.535156 12.402344 19.535156 C 12.675781 19.535156 12.898438 19.3125 12.898438 19.039062 C 12.898438 18.765625 13.121094 18.542969 13.394531 18.542969 C 13.667969 18.542969 13.890625 18.765625 13.890625 19.039062 L 13.910156 19.039062 C 13.898438 19.078125 13.890625 19.121094 13.890625 19.164062 C 13.890625 19.371094 14.054688 19.535156 14.261719 19.535156 C 14.46875 19.535156 14.636719 19.371094 14.636719 19.164062 C 14.636719 19.121094 14.628906 19.078125 14.613281 19.039062 L 14.882812 19.039062 C 14.882812 18.214844 14.21875 17.550781 13.394531 17.550781 Z M 13.394531 17.550781 "/>
<path style=" stroke:none;fill-rule:nonzero;fill:rgb(55.29412%,43.137255%,38.82353%);fill-opacity:1;" d="M 18.316406 15.566406 C 16.097656 15.566406 14.3125 17.144531 14.3125 19.101562 L 14.3125 19.472656 C 14.3125 21.429688 16.097656 23.007812 18.316406 23.007812 C 20.539062 23.007812 22.324219 21.429688 22.324219 19.472656 L 22.324219 19.101562 C 22.324219 17.144531 20.539062 15.566406 18.316406 15.566406 Z M 18.316406 16.558594 C 19.945312 16.558594 21.257812 17.714844 21.257812 19.152344 L 21.257812 19.421875 C 21.257812 20.859375 19.945312 22.015625 18.316406 22.015625 C 16.691406 22.015625 15.378906 20.859375 15.378906 19.421875 L 15.378906 19.152344 C 15.378906 17.714844 16.691406 16.558594 18.316406 16.558594 Z M 18.316406 16.558594 "/>
<path style=" stroke:none;fill-rule:nonzero;fill:rgb(69.01961%,74.509805%,77.254903%);fill-opacity:0.54902;" d="M 8.433594 16.558594 C 10.351562 16.558594 11.90625 17.75 11.90625 19.21875 L 11.90625 19.355469 C 11.90625 20.824219 10.351562 22.015625 8.433594 22.015625 C 6.515625 22.015625 4.960938 20.824219 4.960938 19.355469 L 4.960938 19.21875 C 4.960938 17.75 6.515625 16.558594 8.433594 16.558594 Z M 8.433594 16.558594 "/>
<path style=" stroke:none;fill-rule:nonzero;fill:rgb(55.29412%,43.137255%,38.82353%);fill-opacity:1;" d="M 8.433594 15.566406 C 6.214844 15.566406 4.425781 17.144531 4.425781 19.101562 L 4.425781 19.472656 C 4.425781 21.429688 6.214844 23.007812 8.433594 23.007812 C 10.652344 23.007812 12.441406 21.429688 12.441406 19.472656 L 12.441406 19.101562 C 12.441406 17.144531 10.652344 15.566406 8.433594 15.566406 Z M 8.433594 16.558594 C 10.0625 16.558594 11.371094 17.714844 11.371094 19.152344 L 11.371094 19.421875 C 11.371094 20.859375 10.0625 22.015625 8.433594 22.015625 C 6.804688 22.015625 5.496094 20.859375 5.496094 19.421875 L 5.496094 19.152344 C 5.496094 17.714844 6.804688 16.558594 8.433594 16.558594 Z M 8.433594 16.558594 "/>
</g>
</svg>
