
<svg xmlns="http://www.w3.org/2000/svg" xmlns:xlink="http://www.w3.org/1999/xlink" width="24px" height="24px" viewBox="0 0 24 24" version="1.1">
<g id="surface1">
<path style=" stroke:none;fill-rule:nonzero;fill:rgb(36.470589%,25.098041%,21.568628%);fill-opacity:1;" d="M 15.875 12.898438 C 18.109375 12.898438 18.851562 13.394531 20.339844 11.90625 C 20.210938 16.460938 19.617188 19.460938 16.371094 22.324219 L 11.90625 22.820312 C 14.574219 20.1875 16.726562 16.429688 15.875 12.898438 Z M 15.875 12.898438 "/>
<path style=" stroke:none;fill-rule:nonzero;fill:rgb(47.450981%,33.333334%,28.235295%);fill-opacity:1;" d="M 5.457031 13.394531 L 0.992188 14.882812 C 5.457031 17.363281 5.953125 22.820312 11.90625 22.820312 C 17.859375 22.820312 18.851562 16.867188 22.820312 14.386719 L 18.355469 13.394531 Z M 5.457031 13.394531 "/>
<path style=" stroke:none;fill-rule:nonzero;fill:rgb(47.450981%,33.333334%,28.235295%);fill-opacity:1;" d="M 7.9375 4.464844 L 7.191406 9.054688 C 6.203125 8.1875 5.210938 7.9375 3.472656 7.9375 C 0.992188 7.9375 0.25 2.976562 1.984375 0.992188 C 1.984375 3.722656 0.992188 5.953125 3.96875 5.953125 C 5.703125 5.953125 6.449219 5.210938 7.9375 4.464844 Z M 7.9375 4.464844 "/>
<path style=" stroke:none;fill-rule:nonzero;fill:rgb(47.450981%,33.333334%,28.235295%);fill-opacity:1;" d="M 15.875 4.464844 L 16.621094 9.054688 C 17.609375 8.1875 18.601562 7.9375 20.339844 7.9375 C 22.820312 7.9375 23.5625 2.976562 21.828125 0.992188 C 21.828125 3.722656 22.820312 5.953125 19.84375 5.953125 C 18.109375 5.953125 17.363281 5.210938 15.875 4.464844 Z M 15.875 4.464844 "/>
<path style=" stroke:none;fill-rule:nonzero;fill:rgb(25.882354%,25.882354%,25.882354%);fill-opacity:1;" d="M 11.609375 3.96875 C 9.691406 3.96875 8 4.914062 6.976562 6.367188 C 6.957031 6.558594 6.945312 6.75 6.945312 6.945312 C 6.945312 10.09375 6.945312 11.371094 5.953125 12.507812 L 5.953125 13.195312 C 5.953125 16.328125 8.476562 18.851562 11.609375 18.851562 L 12.203125 18.851562 C 15.335938 18.851562 17.859375 16.328125 17.859375 13.195312 L 17.859375 12.507812 C 16.867188 11.371094 16.867188 10.09375 16.867188 6.945312 C 16.867188 6.75 16.855469 6.558594 16.835938 6.367188 C 15.8125 4.914062 14.121094 3.96875 12.203125 3.96875 Z M 8.929688 6.449219 C 11.160156 6.945312 12.648438 6.945312 14.882812 6.449219 L 14.882812 9.425781 C 15.613281 10.882812 16.160156 3.90625 15.875 5.953125 L 8.433594 5.953125 C 8.171875 4.050781 8.71875 10.832031 9.425781 9.425781 L 8.929688 7.9375 Z M 8.929688 6.449219 "/>
<path style=" stroke:none;fill-rule:nonzero;fill:rgb(55.29412%,43.137255%,38.82353%);fill-opacity:1;" d="M 6.054688 13.640625 C 5.566406 14.488281 5.292969 15.453125 5.292969 16.480469 L 5.292969 16.757812 C 5.292969 20.117188 8.242188 22.820312 11.90625 22.820312 C 15.570312 22.820312 18.519531 20.117188 18.519531 16.757812 L 18.519531 16.480469 C 18.519531 15.453125 18.246094 14.488281 17.757812 13.640625 C 16.652344 15.5625 14.449219 16.867188 11.90625 16.867188 C 9.363281 16.867188 7.160156 15.5625 6.054688 13.640625 Z M 6.054688 13.640625 "/>
<path style=" stroke:none;fill-rule:nonzero;fill:rgb(55.29412%,43.137255%,38.82353%);fill-opacity:1;" d="M 11.90625 1.984375 C 9.15625 1.984375 6.945312 4.195312 6.945312 6.945312 C 6.945312 10.914062 6.945312 11.90625 4.960938 13.394531 L 11.410156 15.875 C 10.914062 12.898438 10.417969 10.417969 11.414062 8.433594 L 8.929688 7.9375 L 8.929688 6.449219 C 11.164062 6.945312 12.648438 6.945312 14.882812 6.449219 L 14.882812 7.9375 L 12.398438 8.433594 C 13.394531 10.417969 12.898438 12.402344 12.402344 15.875 L 18.851562 13.394531 C 16.867188 11.90625 16.867188 10.914062 16.867188 6.945312 C 16.867188 4.195312 14.65625 1.984375 11.90625 1.984375 Z M 11.90625 1.984375 "/>
<path style=" stroke:none;fill-rule:nonzero;fill:rgb(100%,79.215688%,15.686275%);fill-opacity:1;" d="M 10.636719 7.226562 C 10.902344 7.296875 11.074219 7.515625 11.019531 7.714844 C 10.96875 7.910156 10.710938 8.015625 10.445312 7.945312 C 10.179688 7.875 10.007812 7.65625 10.0625 7.457031 C 10.117188 7.257812 10.375 7.15625 10.636719 7.226562 Z M 10.636719 7.226562 "/>
<path style=" stroke:none;fill-rule:nonzero;fill:rgb(100%,65.490198%,14.901961%);fill-opacity:1;" d="M 10.605469 7.34375 C 10.804688 7.398438 10.9375 7.546875 10.902344 7.679688 C 10.867188 7.8125 10.675781 7.878906 10.476562 7.824219 C 10.28125 7.769531 10.148438 7.621094 10.183594 7.488281 C 10.21875 7.355469 10.40625 7.292969 10.605469 7.34375 Z M 10.605469 7.34375 "/>
<path style=" stroke:none;fill-rule:nonzero;fill:rgb(100%,79.215688%,15.686275%);fill-opacity:1;" d="M 13.175781 7.226562 C 13.4375 7.15625 13.695312 7.253906 13.75 7.453125 L 13.75 7.460938 C 13.804688 7.65625 13.632812 7.875 13.367188 7.945312 C 13.101562 8.015625 12.84375 7.914062 12.792969 7.71875 L 12.789062 7.707031 C 12.738281 7.511719 12.910156 7.296875 13.175781 7.226562 Z M 13.175781 7.226562 "/>
<path style=" stroke:none;fill-rule:nonzero;fill:rgb(100%,65.490198%,14.901961%);fill-opacity:1;" d="M 13.085938 7.378906 L 13.324219 7.3125 C 13.457031 7.277344 13.59375 7.355469 13.628906 7.488281 C 13.664062 7.621094 13.585938 7.757812 13.453125 7.792969 L 13.214844 7.855469 C 13.082031 7.890625 12.945312 7.8125 12.910156 7.679688 C 12.875 7.546875 12.953125 7.414062 13.085938 7.378906 Z M 13.085938 7.378906 "/>
<path style=" stroke:none;fill-rule:nonzero;fill:rgb(93.725491%,60.392159%,60.392159%);fill-opacity:1;" d="M 9.980469 3.703125 C 10.175781 3.898438 10.019531 4.367188 9.632812 4.753906 C 9.242188 5.144531 8.773438 5.300781 8.578125 5.105469 C 8.386719 4.914062 8.542969 4.441406 8.929688 4.054688 C 9.316406 3.667969 9.789062 3.507812 9.980469 3.703125 Z M 9.980469 3.703125 "/>
<path style=" stroke:none;fill-rule:nonzero;fill:rgb(100%,80.392158%,82.352942%);fill-opacity:1;" d="M 4.015625 14.449219 C 4.089844 14.621094 3.875 14.882812 3.53125 15.03125 C 3.1875 15.179688 2.847656 15.160156 2.773438 14.988281 C 2.699219 14.816406 2.914062 14.558594 3.257812 14.410156 C 3.601562 14.257812 3.941406 14.277344 4.015625 14.449219 Z M 4.015625 14.449219 "/>
<path style=" stroke:none;fill-rule:nonzero;fill:rgb(55.29412%,43.137255%,38.82353%);fill-opacity:1;" d="M 11.90625 1.984375 C 9.15625 1.984375 6.945312 4.195312 6.945312 6.945312 C 6.945312 10.914062 6.945312 11.90625 4.960938 13.394531 L 11.410156 15.875 C 10.914062 12.898438 10.417969 10.417969 11.414062 8.433594 L 8.929688 7.9375 L 8.929688 6.449219 C 11.164062 6.945312 12.648438 6.945312 14.882812 6.449219 L 14.882812 7.9375 L 12.398438 8.433594 C 13.394531 10.417969 12.898438 12.402344 12.402344 15.875 L 18.851562 13.394531 C 16.867188 11.90625 16.867188 10.914062 16.867188 6.945312 C 16.867188 4.195312 14.65625 1.984375 11.90625 1.984375 Z M 11.90625 1.984375 "/>
<path style=" stroke:none;fill-rule:nonzero;fill:rgb(100%,80.392158%,82.352942%);fill-opacity:1;" d="M 6.199219 14.550781 C 6.335938 14.597656 6.421875 14.832031 6.386719 15.078125 C 6.355469 15.324219 6.214844 15.484375 6.074219 15.4375 C 5.9375 15.394531 5.851562 15.15625 5.886719 14.914062 C 5.917969 14.667969 6.058594 14.507812 6.199219 14.550781 Z M 6.199219 14.550781 "/>
<path style=" stroke:none;fill-rule:nonzero;fill:rgb(100%,80.392158%,82.352942%);fill-opacity:1;" d="M 10.261719 3.257812 C 10.367188 3.414062 10.199219 3.710938 9.886719 3.917969 C 9.574219 4.125 9.238281 4.164062 9.132812 4.011719 C 9.027344 3.855469 9.199219 3.558594 9.511719 3.351562 C 9.820312 3.144531 10.160156 3.101562 10.261719 3.257812 Z M 10.261719 3.257812 "/>
<path style=" stroke:none;fill-rule:nonzero;fill:rgb(63.137257%,53.333336%,49.803922%);fill-opacity:1;" d="M 14.882812 15.378906 C 18.851562 14.386719 19.84375 13.890625 20.339844 11.90625 C 20.738281 13.855469 20.835938 14.140625 22.820312 14.140625 C 22.820312 15.875 21.578125 21.578125 19.597656 21.828125 L 11.90625 22.820312 C 14.574219 20.1875 15.734375 18.910156 14.882812 15.378906 Z M 14.882812 15.378906 "/>
<path style=" stroke:none;fill-rule:nonzero;fill:rgb(100%,80.392158%,82.352942%);fill-opacity:1;" d="M 16.238281 15.488281 C 16.371094 15.523438 16.394531 15.871094 16.292969 16.269531 C 16.191406 16.667969 16 16.964844 15.867188 16.929688 C 15.734375 16.894531 15.710938 16.542969 15.8125 16.144531 C 15.914062 15.75 16.105469 15.453125 16.238281 15.488281 Z M 16.238281 15.488281 "/>
</g>
</svg>
