<?xml version="1.0" encoding="UTF-8"?>
<svg xmlns="http://www.w3.org/2000/svg" xmlns:xlink="http://www.w3.org/1999/xlink" width="24px" height="24px" viewBox="0 0 24 24" version="1.1">
<g id="surface1">
<path style=" stroke:none;fill-rule:nonzero;fill:rgb(49.411765%,34.117648%,76.078433%);fill-opacity:1;" d="M 1.984375 1.179688 L 21.828125 1.179688 C 22.375 1.179688 22.820312 1.625 22.820312 2.171875 L 22.820312 22.015625 C 22.820312 22.5625 22.375 23.007812 21.828125 23.007812 L 1.984375 23.007812 C 1.4375 23.007812 0.992188 22.5625 0.992188 22.015625 L 0.992188 2.171875 C 0.992188 1.625 1.4375 1.179688 1.984375 1.179688 Z M 1.984375 1.179688 "/>
<path style=" stroke:none;fill-rule:nonzero;fill:rgb(93.333334%,93.333334%,93.333334%);fill-opacity:1;" d="M 2.976562 2.667969 C 2.703125 2.667969 2.480469 2.890625 2.480469 3.164062 L 2.480469 21.023438 C 2.480469 21.296875 2.703125 21.519531 2.976562 21.519531 L 20.835938 21.519531 C 21.109375 21.519531 21.332031 21.296875 21.332031 21.023438 L 21.332031 3.164062 C 21.332031 2.890625 21.109375 2.667969 20.835938 2.667969 Z M 3.71875 3.660156 L 20.089844 3.660156 C 20.230469 3.660156 20.339844 3.769531 20.339844 3.90625 L 20.339844 20.277344 C 20.339844 20.417969 20.230469 20.527344 20.089844 20.527344 L 3.71875 20.527344 C 3.582031 20.527344 3.472656 20.417969 3.472656 20.277344 L 3.472656 3.90625 C 3.472656 3.769531 3.582031 3.660156 3.71875 3.660156 Z M 3.71875 3.660156 "/>
<path style=" stroke:none;fill-rule:nonzero;fill:rgb(93.333334%,93.333334%,93.333334%);fill-opacity:1;" d="M 14.199219 7.503906 C 13.769531 7.503906 13.429688 7.605469 13.179688 7.8125 C 12.929688 8.019531 12.804688 8.304688 12.804688 8.675781 C 12.804688 8.863281 12.835938 9.023438 12.902344 9.15625 C 12.96875 9.292969 13.050781 9.410156 13.148438 9.503906 C 13.253906 9.597656 13.359375 9.675781 13.472656 9.742188 C 13.585938 9.800781 13.6875 9.855469 13.785156 9.902344 C 13.9375 9.976562 14.074219 10.046875 14.195312 10.109375 C 14.3125 10.171875 14.40625 10.238281 14.476562 10.3125 C 14.550781 10.386719 14.585938 10.472656 14.585938 10.578125 C 14.585938 10.703125 14.539062 10.808594 14.449219 10.894531 C 14.359375 10.976562 14.207031 11.015625 13.992188 11.015625 C 13.785156 11.015625 13.574219 10.980469 13.363281 10.910156 C 13.15625 10.839844 12.953125 10.757812 12.757812 10.675781 L 12.757812 11.488281 C 13.101562 11.652344 13.488281 11.734375 13.921875 11.734375 C 14.40625 11.734375 14.78125 11.628906 15.042969 11.414062 C 15.308594 11.191406 15.441406 10.902344 15.441406 10.535156 C 15.441406 10.320312 15.398438 10.140625 15.320312 9.996094 C 15.238281 9.847656 15.121094 9.722656 14.972656 9.613281 C 14.828125 9.507812 14.648438 9.402344 14.4375 9.300781 C 14.179688 9.179688 13.984375 9.074219 13.851562 8.992188 C 13.722656 8.90625 13.65625 8.792969 13.65625 8.644531 C 13.65625 8.523438 13.703125 8.421875 13.792969 8.34375 C 13.878906 8.265625 14.003906 8.230469 14.171875 8.230469 C 14.328125 8.230469 14.484375 8.25 14.632812 8.292969 C 14.78125 8.335938 14.953125 8.394531 15.140625 8.472656 L 15.421875 7.792969 C 15.210938 7.699219 15.007812 7.628906 14.8125 7.578125 C 14.621094 7.527344 14.414062 7.503906 14.199219 7.503906 Z M 9.96875 7.542969 L 8.515625 11.679688 L 9.457031 11.679688 L 9.757812 10.699219 L 11.253906 10.699219 L 11.554688 11.679688 L 12.496094 11.679688 L 11.039062 7.542969 Z M 5.160156 7.5625 L 5.160156 11.679688 L 6.699219 11.679688 C 7.167969 11.679688 7.539062 11.574219 7.808594 11.359375 C 8.078125 11.148438 8.210938 10.855469 8.210938 10.484375 C 8.210938 10.269531 8.179688 10.097656 8.113281 9.964844 C 8.046875 9.835938 7.960938 9.734375 7.847656 9.664062 C 7.738281 9.597656 7.609375 9.546875 7.472656 9.519531 L 7.472656 9.492188 C 7.675781 9.457031 7.832031 9.359375 7.941406 9.199219 C 8.050781 9.039062 8.109375 8.839844 8.109375 8.605469 C 8.109375 8.214844 7.96875 7.945312 7.6875 7.792969 C 7.40625 7.636719 6.988281 7.5625 6.441406 7.5625 Z M 16.1875 7.5625 L 16.1875 11.679688 L 18.558594 11.679688 L 18.558594 10.957031 L 17.058594 10.957031 L 17.058594 9.894531 L 18.453125 9.894531 L 18.453125 9.179688 L 17.058594 9.179688 L 17.058594 8.277344 L 18.558594 8.277344 L 18.558594 7.5625 Z M 10.507812 8.183594 C 10.523438 8.261719 10.550781 8.351562 10.582031 8.453125 C 10.613281 8.558594 10.644531 8.660156 10.671875 8.757812 C 10.703125 8.859375 10.730469 8.945312 10.746094 9.007812 L 11.046875 9.964844 L 9.976562 9.964844 L 10.269531 9.007812 C 10.285156 8.964844 10.304688 8.894531 10.332031 8.792969 C 10.363281 8.691406 10.394531 8.582031 10.425781 8.472656 C 10.460938 8.355469 10.488281 8.261719 10.507812 8.183594 Z M 6.03125 8.277344 L 6.492188 8.277344 C 6.742188 8.277344 6.925781 8.3125 7.039062 8.378906 C 7.15625 8.449219 7.214844 8.5625 7.214844 8.71875 C 7.214844 8.875 7.164062 8.992188 7.0625 9.074219 C 6.96875 9.152344 6.792969 9.191406 6.539062 9.191406 L 6.03125 9.191406 Z M 6.03125 9.882812 L 6.574219 9.882812 C 6.851562 9.882812 7.039062 9.933594 7.144531 10.027344 C 7.253906 10.121094 7.304688 10.246094 7.304688 10.398438 C 7.304688 10.566406 7.253906 10.703125 7.152344 10.808594 C 7.046875 10.90625 6.863281 10.957031 6.601562 10.957031 L 6.03125 10.957031 Z M 10.386719 13.324219 L 9.207031 16.683594 L 9.96875 16.683594 L 10.214844 15.886719 L 11.433594 15.886719 L 11.679688 16.683594 L 12.441406 16.683594 L 11.253906 13.324219 Z M 5.203125 13.335938 L 5.203125 16.683594 L 5.835938 16.683594 L 5.835938 15.128906 C 5.835938 15.011719 5.832031 14.882812 5.828125 14.742188 C 5.820312 14.597656 5.8125 14.464844 5.808594 14.339844 C 5.800781 14.214844 5.796875 14.121094 5.792969 14.058594 L 5.8125 14.058594 L 6.621094 16.683594 L 7.273438 16.683594 L 8.136719 14.0625 L 8.152344 14.0625 L 8.140625 14.34375 C 8.136719 14.464844 8.132812 14.597656 8.125 14.734375 C 8.125 14.871094 8.121094 14.992188 8.121094 15.101562 L 8.121094 16.683594 L 8.78125 16.683594 L 8.78125 13.335938 L 7.816406 13.335938 L 6.976562 15.898438 L 6.964844 15.898438 L 6.171875 13.335938 Z M 12.863281 13.335938 L 12.863281 16.683594 L 13.570312 16.683594 L 13.570312 15.398438 L 13.949219 15.398438 L 14.75 16.683594 L 15.535156 16.683594 L 14.550781 15.226562 C 14.660156 15.175781 14.761719 15.113281 14.855469 15.035156 C 14.953125 14.953125 15.03125 14.855469 15.085938 14.742188 C 15.144531 14.628906 15.175781 14.492188 15.175781 14.339844 C 15.175781 14 15.066406 13.75 14.847656 13.585938 C 14.632812 13.417969 14.296875 13.335938 13.839844 13.335938 Z M 15.957031 13.335938 L 15.957031 16.683594 L 16.667969 16.683594 L 16.667969 15.488281 L 16.96875 15.273438 L 17.84375 16.683594 L 18.652344 16.683594 L 17.476562 14.820312 L 18.640625 13.335938 L 17.855469 13.335938 L 16.949219 14.476562 C 16.902344 14.539062 16.855469 14.609375 16.808594 14.671875 L 16.667969 14.871094 L 16.667969 13.335938 Z M 10.824219 13.84375 C 10.839844 13.90625 10.859375 13.976562 10.886719 14.0625 C 10.910156 14.148438 10.933594 14.230469 10.960938 14.3125 C 10.984375 14.394531 11.003906 14.460938 11.019531 14.515625 L 11.265625 15.292969 L 10.394531 15.292969 L 10.632812 14.515625 C 10.644531 14.480469 10.660156 14.421875 10.683594 14.339844 C 10.707031 14.253906 10.734375 14.167969 10.757812 14.078125 C 10.785156 13.984375 10.808594 13.90625 10.824219 13.84375 Z M 13.570312 13.917969 L 13.785156 13.917969 C 14.019531 13.917969 14.1875 13.953125 14.292969 14.019531 C 14.402344 14.085938 14.457031 14.199219 14.457031 14.359375 C 14.457031 14.511719 14.40625 14.628906 14.304688 14.703125 C 14.203125 14.785156 14.035156 14.824219 13.800781 14.824219 L 13.570312 14.824219 Z M 13.570312 13.917969 "/>
</g>
</svg>
