
<svg xmlns="http://www.w3.org/2000/svg" xmlns:xlink="http://www.w3.org/1999/xlink" width="24px" height="24px" viewBox="0 0 24 24" version="1.1">
<g id="surface1">
<path style="fill-rule:nonzero;fill:rgb(38.039216%,38.039216%,38.039216%);fill-opacity:1;stroke-width:0.264583;stroke-linecap:butt;stroke-linejoin:miter;stroke:rgb(0%,0%,0%);stroke-opacity:1;stroke-miterlimit:4;" d="M 21.166667 -151.5 L 74.083333 -193.833333 L 74.083333 -119.75 Z M 21.166667 -151.5 " transform="matrix(0.046875,0,0,0.046875,0,10.078125)"/>
<path style="fill-rule:nonzero;fill:rgb(38.039216%,38.039216%,38.039216%);fill-opacity:1;stroke-width:0.264583;stroke-linecap:butt;stroke-linejoin:miter;stroke:rgb(0%,0%,0%);stroke-opacity:1;stroke-miterlimit:4;" d="M 486.833333 -151.5 L 433.916667 -193.833333 L 433.916667 -119.75 Z M 486.833333 -151.5 " transform="matrix(0.046875,0,0,0.046875,0,10.078125)"/>
<path style=" stroke:none;fill-rule:nonzero;fill:rgb(25.882354%,25.882354%,25.882354%);fill-opacity:1;" d="M 3.472656 1.984375 L 20.339844 1.984375 L 20.339844 3.472656 L 3.472656 3.472656 Z M 3.472656 1.984375 "/>
<path style=" stroke:none;fill-rule:nonzero;fill:rgb(38.039216%,38.039216%,38.039216%);fill-opacity:1;" d="M 3.472656 1.984375 L 20.339844 1.984375 L 20.339844 2.726562 L 3.472656 2.726562 Z M 3.472656 1.984375 "/>
<path style=" stroke:none;fill-rule:nonzero;fill:rgb(94.117647%,38.431373%,57.254905%);fill-opacity:1;" d="M 8.433594 1.984375 L 10.417969 1.984375 L 10.417969 2.230469 L 8.433594 2.230469 Z M 8.433594 1.984375 "/>
<path style=" stroke:none;fill-rule:nonzero;fill:rgb(94.117647%,38.431373%,57.254905%);fill-opacity:1;" d="M 13.394531 1.984375 L 15.378906 1.984375 L 15.378906 2.230469 L 13.394531 2.230469 Z M 13.394531 1.984375 "/>
<path style=" stroke:none;fill-rule:nonzero;fill:rgb(94.117647%,38.431373%,57.254905%);fill-opacity:1;" d="M 3.96875 1.984375 L 5.953125 1.984375 L 5.953125 2.230469 L 3.96875 2.230469 Z M 3.96875 1.984375 "/>
<path style=" stroke:none;fill-rule:nonzero;fill:rgb(95.686275%,56.078434%,69.411767%);fill-opacity:1;" d="M 3.96875 1.984375 L 3.96875 8.773438 C 4.675781 9.335938 5.457031 9.921875 5.457031 9.921875 L 4.960938 9.921875 L 4.464844 10.914062 L 4.464844 12.402344 L 3.96875 12.5 L 3.96875 18.851562 L 6.945312 20.339844 L 7.9375 19.347656 L 7.605469 20.671875 L 7.9375 20.835938 L 8.433594 20.339844 L 8.222656 20.976562 L 11.90625 22.820312 L 15.101562 21.222656 L 15.378906 19.84375 L 16.207031 20.671875 L 16.371094 20.585938 L 16.371094 19.347656 L 16.945312 20.300781 L 19.84375 18.851562 L 19.84375 11.410156 L 18.355469 10.914062 L 19.84375 10.617188 L 19.84375 10.167969 L 18.851562 9.921875 L 19.84375 9.589844 L 19.84375 1.984375 L 17.859375 1.984375 L 17.859375 4.960938 L 15.378906 4.960938 L 15.378906 1.984375 L 13.394531 1.984375 L 13.394531 4.960938 L 10.417969 4.960938 L 10.417969 1.984375 L 8.433594 1.984375 L 8.433594 4.960938 L 5.953125 4.960938 L 5.953125 1.984375 Z M 3.96875 1.984375 "/>
<path style=" stroke:none;fill-rule:nonzero;fill:rgb(92.54902%,25.098041%,47.843137%);fill-opacity:1;" d="M 4.464844 2.480469 L 4.464844 9.164062 C 4.996094 9.578125 5.457031 9.921875 5.457031 9.921875 L 4.960938 9.921875 L 4.464844 10.914062 L 4.464844 18.480469 L 7.328125 19.957031 L 7.9375 19.347656 L 7.734375 20.167969 L 8.308594 20.464844 L 8.433594 20.339844 L 8.378906 20.503906 L 11.90625 22.324219 L 15.226562 20.609375 L 15.378906 19.84375 L 15.832031 20.296875 L 16.371094 20.015625 L 16.371094 19.347656 L 16.679688 19.859375 L 19.347656 18.480469 L 19.347656 11.246094 L 18.355469 10.914062 L 19.347656 10.714844 L 19.347656 10.046875 L 18.851562 9.921875 L 19.347656 9.757812 L 19.347656 2.480469 L 18.355469 2.480469 L 18.355469 5.457031 L 14.882812 5.457031 L 14.882812 2.480469 L 13.890625 2.480469 L 13.890625 5.457031 L 9.921875 5.457031 L 9.921875 2.480469 L 8.929688 2.480469 L 8.929688 5.457031 L 5.457031 5.457031 L 5.457031 2.480469 Z M 4.464844 2.480469 "/>
<path style=" stroke:none;fill-rule:nonzero;fill:rgb(97.254902%,73.333335%,81.568629%);fill-opacity:1;" d="M 17.859375 1.984375 L 19.84375 1.984375 L 19.84375 2.730469 L 17.859375 2.730469 Z M 17.859375 1.984375 "/>
<path style=" stroke:none;fill-rule:nonzero;fill:rgb(94.117647%,38.431373%,57.254905%);fill-opacity:1;" d="M 18.355469 2.480469 L 19.347656 2.480469 L 19.347656 2.726562 L 18.355469 2.726562 Z M 18.355469 2.480469 "/>
<path style=" stroke:none;fill-rule:nonzero;fill:rgb(97.254902%,73.333335%,81.568629%);fill-opacity:1;" d="M 13.394531 1.984375 L 15.378906 1.984375 L 15.378906 2.730469 L 13.394531 2.730469 Z M 13.394531 1.984375 "/>
<path style=" stroke:none;fill-rule:nonzero;fill:rgb(94.117647%,38.431373%,57.254905%);fill-opacity:1;" d="M 13.890625 2.480469 L 14.882812 2.480469 L 14.882812 2.726562 L 13.890625 2.726562 Z M 13.890625 2.480469 "/>
<path style=" stroke:none;fill-rule:nonzero;fill:rgb(97.254902%,73.333335%,81.568629%);fill-opacity:1;" d="M 3.96875 1.984375 L 5.953125 1.984375 L 5.953125 2.730469 L 3.96875 2.730469 Z M 3.96875 1.984375 "/>
<path style=" stroke:none;fill-rule:nonzero;fill:rgb(94.117647%,38.431373%,57.254905%);fill-opacity:1;" d="M 4.464844 2.480469 L 5.457031 2.480469 L 5.457031 2.726562 L 4.464844 2.726562 Z M 4.464844 2.480469 "/>
<path style=" stroke:none;fill-rule:nonzero;fill:rgb(97.254902%,73.333335%,81.568629%);fill-opacity:1;" d="M 8.433594 1.984375 L 10.417969 1.984375 L 10.417969 2.730469 L 8.433594 2.730469 Z M 8.433594 1.984375 "/>
<path style=" stroke:none;fill-rule:nonzero;fill:rgb(94.117647%,38.431373%,57.254905%);fill-opacity:1;" d="M 8.929688 2.480469 L 9.921875 2.480469 L 9.921875 2.726562 L 8.929688 2.726562 Z M 8.929688 2.480469 "/>
<path style=" stroke:none;fill-rule:nonzero;fill:rgb(96.078432%,96.078432%,96.078432%);fill-opacity:1;" d="M 8.929688 7.9375 L 8.929688 9.921875 L 9.367188 9.921875 C 9.859375 9.707031 10.417969 9.425781 10.417969 9.425781 L 10.664062 9.671875 L 12.152344 9.921875 L 12.648438 9.425781 L 12.898438 9.671875 L 13.640625 9.671875 L 13.726562 9.757812 L 13.394531 8.929688 L 12.898438 8.929688 L 12.898438 7.9375 L 10.914062 7.9375 L 10.914062 8.929688 L 10.230469 8.929688 L 9.671875 9.300781 L 9.972656 8.929688 L 9.921875 8.929688 L 9.921875 7.9375 Z M 13.394531 8.929688 L 14.222656 9.757812 L 14.386719 9.671875 L 14.882812 9.871094 L 14.882812 7.9375 L 13.890625 7.9375 L 13.890625 8.929688 Z M 10.542969 10.417969 L 10.292969 10.542969 L 9.921875 10.449219 L 9.921875 11.90625 L 13.890625 11.90625 L 13.890625 10.589844 L 13.671875 10.417969 L 13.519531 10.417969 L 13.519531 10.542969 L 13.394531 10.417969 L 13.023438 10.542969 L 12.898438 10.417969 L 12.402344 10.542969 L 12.03125 10.664062 L 11.949219 10.417969 L 11.75 10.417969 L 11.285156 10.789062 L 10.914062 10.417969 Z M 9.921875 12.402344 L 9.921875 15.957031 L 10.914062 16.289062 L 10.914062 15.875 C 10.914062 15.324219 11.355469 14.882812 11.90625 14.882812 C 12.414062 14.882812 12.832031 15.261719 12.890625 15.757812 L 13.394531 15.378906 L 13.144531 15.378906 L 13.640625 14.882812 L 13.394531 14.882812 L 13.890625 14.511719 L 13.890625 12.402344 L 10.605469 12.402344 L 10.292969 13.023438 L 10.382812 12.402344 Z M 11.160156 12.898438 L 12.648438 12.898438 L 12.648438 14.386719 L 11.160156 14.386719 L 11.160156 13.394531 L 10.417969 13.640625 L 11.160156 13.269531 Z M 13.890625 15.128906 L 12.894531 15.792969 C 12.898438 15.820312 12.898438 15.847656 12.898438 15.875 L 12.898438 17.363281 L 13.890625 17.363281 Z M 10.230469 16.183594 L 10.914062 16.4375 L 10.914062 16.320312 Z M 9.921875 16.289062 L 9.921875 17.363281 L 10.914062 17.363281 L 10.914062 16.507812 Z M 9.921875 16.289062 "/>
</g>
</svg>
