<?xml version="1.0" encoding="UTF-8"?>
<svg xmlns="http://www.w3.org/2000/svg" xmlns:xlink="http://www.w3.org/1999/xlink" width="24px" height="24px" viewBox="0 0 24 24" version="1.1">
<g id="surface1">
<path style=" stroke:none;fill-rule:nonzero;fill:rgb(87.843138%,87.843138%,87.843138%);fill-opacity:1;" d="M 11.90625 2.292969 C 9.304688 4.128906 5.257812 4.15625 1.992188 4.15625 C 2.085938 8.148438 3.285156 12.578125 5.089844 16.019531 C 6.03125 17.808594 7.136719 19.328125 8.308594 20.382812 C 9.480469 21.4375 10.699219 22.015625 11.90625 22.015625 C 13.113281 22.015625 14.332031 21.4375 15.503906 20.382812 C 16.675781 19.328125 17.78125 17.808594 18.722656 16.019531 C 20.527344 12.578125 21.726562 8.148438 21.820312 4.15625 C 18.554688 4.15625 14.507812 4.128906 11.90625 2.292969 Z M 11.90625 2.292969 "/>
<path style=" stroke:none;fill-rule:nonzero;fill:rgb(74.117649%,74.117649%,74.117649%);fill-opacity:1;" d="M 11.894531 1.179688 C 11.785156 1.183594 11.679688 1.21875 11.597656 1.289062 C 9.34375 3.089844 4.960938 3.164062 1.488281 3.164062 C 1.214844 3.164062 0.992188 3.386719 0.992188 3.660156 C 0.992188 7.972656 2.25 12.742188 4.210938 16.480469 C 5.191406 18.347656 6.351562 19.957031 7.644531 21.121094 C 8.9375 22.285156 10.382812 23.007812 11.90625 23.007812 C 13.429688 23.007812 14.875 22.285156 16.167969 21.121094 C 17.460938 19.957031 18.621094 18.347656 19.601562 16.480469 C 21.5625 12.742188 22.820312 7.972656 22.820312 3.660156 C 22.820312 3.386719 22.597656 3.164062 22.324219 3.164062 C 18.851562 3.164062 14.46875 3.089844 12.214844 1.289062 C 12.125 1.214844 12.011719 1.175781 11.894531 1.179688 Z M 11.90625 2.292969 C 14.507812 4.128906 18.554688 4.15625 21.820312 4.15625 C 21.726562 8.148438 20.527344 12.578125 18.722656 16.019531 C 17.78125 17.808594 16.675781 19.328125 15.503906 20.382812 C 14.332031 21.4375 13.113281 22.015625 11.90625 22.015625 C 10.699219 22.015625 9.480469 21.4375 8.308594 20.382812 C 7.136719 19.328125 6.03125 17.808594 5.089844 16.019531 C 3.285156 12.578125 2.085938 8.148438 1.992188 4.15625 C 5.257812 4.15625 9.304688 4.128906 11.90625 2.292969 Z M 11.90625 2.292969 "/>
<path style=" stroke:none;fill-rule:nonzero;fill:rgb(25.882354%,64.705884%,96.078432%);fill-opacity:1;" d="M 11.90625 2.292969 C 9.304688 4.128906 5.257812 4.15625 1.992188 4.15625 C 2.085938 8.148438 3.285156 12.578125 5.089844 16.019531 C 6.03125 17.808594 7.136719 19.328125 8.308594 20.382812 C 9.480469 21.4375 10.699219 22.015625 11.90625 22.015625 C 13.113281 22.015625 14.332031 21.4375 15.503906 20.382812 C 16.675781 19.328125 17.78125 17.808594 18.722656 16.019531 C 20.527344 12.578125 21.726562 8.148438 21.820312 4.15625 C 18.554688 4.15625 14.507812 4.128906 11.90625 2.292969 Z M 11.90625 2.292969 "/>
<path style=" stroke:none;fill-rule:nonzero;fill:rgb(87.843138%,87.843138%,87.843138%);fill-opacity:1;" d="M 11.90625 2.292969 C 9.304688 4.128906 5.257812 4.15625 1.992188 4.15625 C 2.085938 8.148438 3.285156 12.578125 5.089844 16.019531 C 6.03125 17.808594 7.136719 19.328125 8.308594 20.382812 C 9.480469 21.4375 10.699219 22.015625 11.90625 22.015625 Z M 11.90625 2.292969 "/>
</g>
</svg>
