
<svg xmlns="http://www.w3.org/2000/svg" xmlns:xlink="http://www.w3.org/1999/xlink" width="24px" height="24px" viewBox="0 0 24 24" version="1.1">
<g id="surface1">
<path style=" stroke:none;fill-rule:nonzero;fill:rgb(25.882354%,25.882354%,25.882354%);fill-opacity:1;" d="M 10.914062 2.171875 L 10.914062 4.15625 L 8.929688 4.15625 L 8.929688 6.140625 L 6.945312 6.140625 L 6.945312 8.125 L 2.976562 8.125 L 2.976562 10.109375 L 0.992188 10.109375 L 0.992188 14.078125 L 2.976562 14.078125 L 2.976562 16.0625 L 6.945312 16.0625 L 6.945312 18.046875 L 8.929688 18.046875 L 8.929688 20.03125 L 10.914062 20.03125 L 10.914062 22.015625 L 16.867188 22.015625 L 16.867188 20.03125 L 18.851562 20.03125 L 18.851562 18.046875 L 20.835938 18.046875 L 20.835938 16.0625 L 22.820312 16.0625 L 22.820312 8.125 L 20.835938 8.125 L 20.835938 6.140625 L 18.851562 6.140625 L 18.851562 4.15625 L 16.867188 4.15625 L 16.867188 2.171875 Z M 10.914062 2.171875 "/>
<path style=" stroke:none;fill-rule:nonzero;fill:rgb(100%,65.490198%,14.901961%);fill-opacity:1;" d="M 11.90625 3.164062 L 11.90625 5.148438 L 9.921875 5.148438 L 9.921875 7.132812 L 7.9375 7.132812 L 7.9375 9.117188 L 4.464844 9.117188 L 4.464844 11.101562 L 1.984375 11.101562 L 1.984375 13.085938 L 4.464844 13.085938 L 4.464844 15.070312 L 7.9375 15.070312 L 7.9375 17.054688 L 9.921875 17.054688 L 9.921875 19.039062 L 11.90625 19.039062 L 11.90625 21.023438 L 15.875 21.023438 L 15.875 19.039062 L 17.859375 19.039062 L 17.859375 17.054688 L 19.84375 17.054688 L 19.84375 15.070312 L 21.828125 15.070312 L 21.828125 9.117188 L 19.84375 9.117188 L 19.84375 7.132812 L 17.859375 7.132812 L 17.859375 5.148438 L 15.875 5.148438 L 15.875 3.164062 Z M 11.90625 3.164062 "/>
<path style=" stroke:none;fill-rule:nonzero;fill:rgb(95.686275%,26.274511%,21.176471%);fill-opacity:1;" d="M 12.898438 4.15625 L 12.898438 6.140625 L 10.914062 6.140625 L 10.914062 8.125 L 8.929688 8.125 L 8.929688 10.109375 L 5.457031 10.109375 L 5.457031 12.09375 L 20.835938 12.09375 L 20.835938 10.109375 L 18.851562 10.109375 L 18.851562 8.125 L 16.867188 8.125 L 16.867188 6.140625 L 14.882812 6.140625 L 14.882812 4.15625 Z M 5.457031 12.09375 L 5.457031 14.078125 L 8.929688 14.078125 L 8.929688 16.0625 L 10.914062 16.0625 L 10.914062 18.046875 L 12.898438 18.046875 L 12.898438 20.03125 L 14.882812 20.03125 L 14.882812 18.046875 L 16.867188 18.046875 L 16.867188 16.0625 L 18.851562 16.0625 L 18.851562 14.078125 L 20.835938 14.078125 L 20.835938 12.09375 Z M 5.457031 12.09375 "/>
</g>
</svg>
