
<svg xmlns="http://www.w3.org/2000/svg" xmlns:xlink="http://www.w3.org/1999/xlink" width="24px" height="24px" viewBox="0 0 24 24" version="1.1">
<g id="surface1">
<path style=" stroke:none;fill-rule:nonzero;fill:rgb(61.960787%,61.960787%,61.960787%);fill-opacity:1;" d="M 1.488281 0.992188 L 22.324219 0.992188 L 22.324219 20.835938 L 1.488281 20.835938 Z M 1.488281 0.992188 "/>
<path style=" stroke:none;fill-rule:nonzero;fill:rgb(25.882354%,25.882354%,25.882354%);fill-opacity:1;" d="M 2.480469 16.371094 L 6.449219 16.371094 L 6.449219 22.820312 L 2.480469 22.820312 Z M 2.480469 16.371094 "/>
<path style=" stroke:none;fill-rule:nonzero;fill:rgb(25.882354%,25.882354%,25.882354%);fill-opacity:1;" d="M 17.363281 16.371094 L 21.332031 16.371094 L 21.332031 22.820312 L 17.363281 22.820312 Z M 17.363281 16.371094 "/>
<path style=" stroke:none;fill-rule:nonzero;fill:rgb(74.117649%,74.117649%,74.117649%);fill-opacity:1;" d="M 3.472656 17.859375 L 20.339844 17.859375 L 20.339844 21.828125 L 3.472656 21.828125 Z M 3.472656 17.859375 "/>
<path style=" stroke:none;fill-rule:nonzero;fill:rgb(61.960787%,61.960787%,61.960787%);fill-opacity:1;" d="M 1.984375 17.859375 L 3.472656 17.859375 L 3.472656 21.828125 L 1.984375 21.828125 Z M 1.984375 17.859375 "/>
<path style=" stroke:none;fill-rule:nonzero;fill:rgb(61.960787%,61.960787%,61.960787%);fill-opacity:1;" d="M 20.339844 17.859375 L 21.828125 17.859375 L 21.828125 21.828125 L 20.339844 21.828125 Z M 20.339844 17.859375 "/>
<path style=" stroke:none;fill-rule:nonzero;fill:rgb(93.333334%,93.333334%,93.333334%);fill-opacity:1;" d="M 6.945312 11.90625 L 16.867188 11.90625 L 16.867188 17.859375 L 6.945312 17.859375 Z M 6.945312 11.90625 "/>
<path style=" stroke:none;fill-rule:nonzero;fill:rgb(87.843138%,87.843138%,87.843138%);fill-opacity:1;" d="M 21.332031 9.921875 L 16.867188 11.90625 L 16.867188 17.859375 L 21.332031 17.859375 Z M 21.332031 9.921875 "/>
<path style=" stroke:none;fill-rule:nonzero;fill:rgb(74.117649%,74.117649%,74.117649%);fill-opacity:1;" d="M 21.332031 9.921875 L 16.867188 11.90625 L 6.945312 11.90625 L 2.480469 9.921875 Z M 21.332031 9.921875 "/>
<path style=" stroke:none;fill-rule:nonzero;fill:rgb(87.843138%,87.843138%,87.843138%);fill-opacity:1;" d="M 2.480469 9.921875 L 3.96875 3.96875 L 19.84375 3.96875 L 21.332031 9.921875 Z M 2.480469 9.921875 "/>
<path style=" stroke:none;fill-rule:nonzero;fill:rgb(25.882354%,25.882354%,25.882354%);fill-opacity:1;" d="M 3.472656 9.921875 L 4.960938 4.464844 L 18.851562 4.464844 L 20.339844 9.921875 Z M 3.472656 9.921875 "/>
<path style=" stroke:none;fill-rule:nonzero;fill:rgb(87.843138%,87.843138%,87.843138%);fill-opacity:1;" d="M 2.480469 9.921875 L 6.945312 11.90625 L 6.945312 17.859375 L 2.480469 17.859375 Z M 2.480469 9.921875 "/>
<path style=" stroke:none;fill-rule:nonzero;fill:rgb(74.117649%,74.117649%,74.117649%);fill-opacity:1;" d="M 1.488281 0.992188 L 22.324219 0.992188 L 22.324219 1.984375 L 1.488281 1.984375 Z M 1.488281 0.992188 "/>
</g>
</svg>
