<?xml version="1.0" encoding="UTF-8"?>
<svg xmlns="http://www.w3.org/2000/svg" xmlns:xlink="http://www.w3.org/1999/xlink" width="24px" height="24px" viewBox="0 0 24 24" version="1.1">
<defs>
<linearGradient id="linear0" gradientUnits="userSpaceOnUse" x1="18.524328" y1="56.074505" x2="18.524328" y2="5.792903" gradientTransform="matrix(0.475827,0,0,0.475827,-3.291355,-2.605971)">
<stop offset="0" style="stop-color:rgb(25.882354%,25.882354%,25.882354%);stop-opacity:1;"/>
<stop offset="1" style="stop-color:rgb(38.039216%,38.039216%,38.039216%);stop-opacity:1;"/>
</linearGradient>
</defs>
<g id="surface1">
<path style=" stroke:none;fill-rule:nonzero;fill:rgb(40.000001%,73.333335%,41.568628%);fill-opacity:1;" d="M 1.984375 1.179688 L 21.828125 1.179688 C 22.375 1.179688 22.820312 1.625 22.820312 2.171875 L 22.820312 22.015625 C 22.820312 22.5625 22.375 23.007812 21.828125 23.007812 L 1.984375 23.007812 C 1.4375 23.007812 0.992188 22.5625 0.992188 22.015625 L 0.992188 2.171875 C 0.992188 1.625 1.4375 1.179688 1.984375 1.179688 Z M 1.984375 1.179688 "/>
<path style=" stroke:none;fill-rule:nonzero;fill:url(#linear0);" d="M 6.605469 8.089844 L 4.375 14.082031 L 3.242188 14.082031 L 5.472656 8.089844 Z M 6.605469 8.089844 "/>
<path style=" stroke:none;fill-rule:nonzero;fill:rgb(93.333334%,93.333334%,93.333334%);fill-opacity:1;" d="M 7.824219 8.089844 L 10.058594 14.082031 L 8.925781 14.082031 L 6.691406 8.089844 Z M 7.824219 8.089844 "/>
<path style=" stroke:none;fill-rule:nonzero;fill:rgb(93.333334%,93.333334%,93.333334%);fill-opacity:1;" d="M 10.578125 13.496094 C 10.578125 13.238281 10.648438 13.058594 10.789062 12.957031 C 10.929688 12.851562 11.097656 12.800781 11.300781 12.800781 C 11.496094 12.800781 11.664062 12.851562 11.804688 12.957031 C 11.945312 13.058594 12.011719 13.238281 12.011719 13.496094 C 12.011719 13.742188 11.945312 13.917969 11.804688 14.035156 C 11.664062 14.140625 11.496094 14.191406 11.300781 14.191406 C 11.097656 14.191406 10.929688 14.140625 10.789062 14.035156 C 10.648438 13.917969 10.578125 13.742188 10.578125 13.496094 Z M 10.578125 13.496094 "/>
<path style=" stroke:none;fill-rule:nonzero;fill:rgb(25.882354%,25.882354%,25.882354%);fill-opacity:1;" d="M 6.605469 8.089844 L 4.375 14.082031 L 3.242188 14.082031 L 5.472656 8.089844 Z M 15.917969 8.089844 L 13.6875 14.082031 L 12.550781 14.082031 L 14.785156 8.089844 Z M 18.09375 9.417969 C 18.65625 9.417969 19.101562 9.640625 19.421875 10.085938 L 19.453125 10.085938 L 19.554688 9.5 L 20.613281 9.5 L 20.613281 14.089844 C 20.613281 14.746094 20.417969 15.242188 20.03125 15.585938 C 19.648438 15.925781 19.078125 16.097656 18.320312 16.097656 C 17.996094 16.097656 17.695312 16.078125 17.414062 16.039062 C 17.136719 16 16.867188 15.929688 16.609375 15.828125 L 16.609375 14.832031 C 17.175781 15.066406 17.78125 15.183594 18.394531 15.183594 C 19.039062 15.183594 19.359375 14.835938 19.359375 14.140625 L 19.359375 14.050781 C 19.359375 13.953125 19.363281 13.855469 19.371094 13.757812 C 19.378906 13.652344 19.386719 13.566406 19.394531 13.488281 L 19.359375 13.488281 C 19.203125 13.726562 19.015625 13.902344 18.796875 14.007812 C 18.578125 14.113281 18.335938 14.167969 18.058594 14.167969 C 17.515625 14.167969 17.089844 13.960938 16.785156 13.546875 C 16.480469 13.125 16.332031 12.542969 16.332031 11.796875 C 16.332031 11.050781 16.488281 10.464844 16.800781 10.046875 C 17.113281 9.625 17.542969 9.417969 18.09375 9.417969 Z M 18.488281 10.429688 C 17.898438 10.429688 17.605469 10.894531 17.605469 11.816406 C 17.605469 12.726562 17.90625 13.1875 18.503906 13.1875 C 18.824219 13.1875 19.058594 13.09375 19.210938 12.914062 C 19.367188 12.730469 19.445312 12.414062 19.445312 11.957031 L 19.445312 11.808594 C 19.445312 11.316406 19.371094 10.960938 19.21875 10.75 C 19.066406 10.539062 18.824219 10.429688 18.488281 10.429688 Z M 18.488281 10.429688 "/>
</g>
</svg>
