<?xml version="1.0" encoding="UTF-8"?>
<svg xmlns="http://www.w3.org/2000/svg" xmlns:xlink="http://www.w3.org/1999/xlink" width="24px" height="24px" viewBox="0 0 24 24" version="1.1">
<g id="surface1">
<path style=" stroke:none;fill-rule:nonzero;fill:rgb(67.058825%,27.843139%,73.725492%);fill-opacity:1;" d="M 1.984375 1.179688 L 21.828125 1.179688 C 22.375 1.179688 22.820312 1.625 22.820312 2.171875 L 22.820312 22.015625 C 22.820312 22.5625 22.375 23.007812 21.828125 23.007812 L 1.984375 23.007812 C 1.4375 23.007812 0.992188 22.5625 0.992188 22.015625 L 0.992188 2.171875 C 0.992188 1.625 1.4375 1.179688 1.984375 1.179688 Z M 1.984375 1.179688 "/>
<path style=" stroke:none;fill-rule:nonzero;fill:rgb(93.333334%,93.333334%,93.333334%);fill-opacity:1;" d="M 2.480469 2.171875 L 21.332031 2.171875 C 21.605469 2.171875 21.828125 2.394531 21.828125 2.667969 L 21.828125 21.519531 C 21.828125 21.792969 21.605469 22.015625 21.332031 22.015625 L 2.480469 22.015625 C 2.207031 22.015625 1.984375 21.792969 1.984375 21.519531 L 1.984375 2.667969 C 1.984375 2.394531 2.207031 2.171875 2.480469 2.171875 Z M 2.480469 2.171875 "/>
<path style=" stroke:none;fill-rule:nonzero;fill:rgb(67.058825%,27.843139%,73.725492%);fill-opacity:1;" d="M 12.0625 5.148438 C 11.53125 5.148438 11.175781 5.1875 10.84375 5.234375 C 7.679688 5.703125 4.882812 7.652344 5.773438 11.722656 C 6.292969 14.109375 8.195312 14.929688 10.265625 15.027344 C 10.3125 17.101562 10.355469 18.898438 10.355469 18.960938 L 10.355469 19.0625 L 13.074219 19.039062 L 14.835938 14.316406 C 15.851562 13.976562 16.542969 13.605469 16.578125 13.425781 C 16.632812 13.15625 16.699219 12.582031 16.675781 12.496094 C 16.472656 12.746094 15.65625 13 15.382812 13.089844 L 15.28125 13.121094 L 15.636719 12.164062 C 17.050781 8.382812 18.207031 5.269531 18.207031 5.25 C 18.207031 5.230469 17.914062 5.222656 17.550781 5.226562 L 16.898438 5.242188 L 14.960938 10.867188 C 14.636719 11.816406 14.34375 12.667969 14.074219 13.453125 C 13.746094 13.53125 13.375 13.605469 12.976562 13.667969 C 12.960938 12.824219 12.949219 11.890625 12.933594 10.839844 C 12.890625 7.734375 12.84375 5.183594 12.832031 5.171875 C 12.820312 5.15625 12.472656 5.148438 12.058594 5.148438 Z M 10.054688 6.386719 L 10.066406 6.742188 C 10.074219 6.957031 10.160156 10.496094 10.234375 13.734375 C 8.921875 13.539062 7.757812 12.914062 7.339844 11.445312 C 6.902344 9.914062 7.222656 7.800781 9.71875 6.542969 Z M 13.660156 14.65625 C 12.921875 17.230469 12.941406 17.9375 12.992188 14.800781 C 13.21875 14.757812 13.441406 14.707031 13.660156 14.65625 Z M 13.660156 14.65625 "/>
</g>
</svg>
