<?xml version="1.0" encoding="UTF-8"?>
<svg xmlns="http://www.w3.org/2000/svg" xmlns:xlink="http://www.w3.org/1999/xlink" width="24px" height="24px" viewBox="0 0 24 24" version="1.1">
<g id="surface1">
<path style=" stroke:none;fill-rule:nonzero;fill:rgb(61.176473%,80.000001%,39.607844%);fill-opacity:1;" d="M 1.984375 1.179688 L 21.828125 1.179688 C 22.375 1.179688 22.820312 1.625 22.820312 2.171875 L 22.820312 22.015625 C 22.820312 22.5625 22.375 23.007812 21.828125 23.007812 L 1.984375 23.007812 C 1.4375 23.007812 0.992188 22.5625 0.992188 22.015625 L 0.992188 2.171875 C 0.992188 1.625 1.4375 1.179688 1.984375 1.179688 Z M 1.984375 1.179688 "/>
<path style=" stroke:none;fill-rule:nonzero;fill:rgb(93.333334%,93.333334%,93.333334%);fill-opacity:1;" d="M 6.945312 6.140625 C 6.394531 6.140625 5.953125 6.582031 5.953125 7.132812 L 5.953125 17.054688 C 5.953125 17.605469 6.394531 18.046875 6.945312 18.046875 L 16.867188 18.046875 C 17.417969 18.046875 17.859375 17.605469 17.859375 17.054688 L 17.859375 7.132812 C 17.859375 6.582031 17.417969 6.140625 16.867188 6.140625 Z M 7.441406 7.132812 L 16.371094 7.132812 C 16.644531 7.132812 16.867188 7.355469 16.867188 7.628906 L 16.867188 16.558594 C 16.867188 16.832031 16.644531 17.054688 16.371094 17.054688 L 7.441406 17.054688 C 7.167969 17.054688 6.945312 16.832031 6.945312 16.558594 L 6.945312 7.628906 C 6.945312 7.355469 7.167969 7.132812 7.441406 7.132812 Z M 7.441406 7.132812 "/>
<path style=" stroke:none;fill-rule:nonzero;fill:rgb(25.882354%,25.882354%,25.882354%);fill-opacity:1;" d="M 4.960938 9.046875 C 4.765625 9.242188 4.765625 9.554688 4.960938 9.75 L 5.664062 10.449219 L 11.273438 16.0625 L 12.679688 14.660156 L 20.394531 6.941406 L 21.097656 6.242188 C 21.292969 6.046875 21.292969 5.734375 21.097656 5.539062 L 20.394531 4.835938 C 20.203125 4.644531 19.886719 4.644531 19.695312 4.835938 L 11.273438 13.257812 L 6.714844 8.695312 L 6.363281 8.34375 C 6.167969 8.152344 5.855469 8.152344 5.664062 8.34375 Z M 4.960938 9.046875 "/>
</g>
</svg>
