
<svg xmlns="http://www.w3.org/2000/svg" xmlns:xlink="http://www.w3.org/1999/xlink" width="24px" height="24px" viewBox="0 0 24 24" version="1.1">
<g id="surface1">
<path style=" stroke:none;fill-rule:nonzero;fill:rgb(45.882353%,45.882353%,45.882353%);fill-opacity:1;" d="M 3.96875 8.929688 C 2.320312 8.929688 0.992188 10.257812 0.992188 11.90625 C 0.992188 13.554688 2.320312 14.882812 3.96875 14.882812 L 7.011719 14.882812 L 6.945312 15.875 L 16.867188 15.875 L 16.800781 14.882812 L 19.84375 14.882812 C 21.492188 14.882812 22.820312 13.554688 22.820312 11.90625 C 22.820312 10.257812 21.492188 8.929688 19.84375 8.929688 Z M 3.96875 9.921875 L 19.84375 9.921875 C 20.941406 9.921875 21.828125 10.808594 21.828125 11.90625 C 21.828125 13.003906 20.941406 13.890625 19.84375 13.890625 C 19.828125 13.890625 19.8125 13.890625 19.792969 13.890625 C 19.789062 13.890625 19.78125 13.890625 19.777344 13.890625 C 19.765625 13.890625 19.757812 13.890625 19.746094 13.886719 C 19.738281 13.886719 19.734375 13.886719 19.726562 13.886719 C 19.714844 13.886719 19.707031 13.886719 19.695312 13.886719 C 19.6875 13.882812 19.683594 13.882812 19.675781 13.882812 C 19.667969 13.882812 19.65625 13.882812 19.648438 13.882812 C 19.640625 13.878906 19.632812 13.878906 19.625 13.878906 C 19.617188 13.878906 19.609375 13.875 19.601562 13.875 C 19.59375 13.875 19.585938 13.875 19.578125 13.875 C 19.570312 13.871094 19.558594 13.871094 19.550781 13.871094 C 19.542969 13.867188 19.539062 13.867188 19.53125 13.867188 C 19.523438 13.863281 19.511719 13.863281 19.503906 13.863281 C 19.496094 13.859375 19.492188 13.859375 19.484375 13.859375 C 19.472656 13.855469 19.464844 13.855469 19.457031 13.851562 C 19.449219 13.851562 19.441406 13.851562 19.4375 13.847656 C 19.425781 13.847656 19.417969 13.84375 19.410156 13.84375 C 19.402344 13.839844 19.394531 13.839844 19.390625 13.839844 C 19.382812 13.835938 19.375 13.835938 19.363281 13.832031 C 19.359375 13.832031 19.351562 13.828125 19.34375 13.828125 C 19.335938 13.824219 19.328125 13.824219 19.324219 13.820312 C 19.304688 13.816406 19.289062 13.8125 19.273438 13.808594 C 19.265625 13.804688 19.261719 13.804688 19.253906 13.800781 C 19.246094 13.800781 19.238281 13.796875 19.230469 13.796875 C 19.222656 13.792969 19.21875 13.789062 19.210938 13.789062 C 19.203125 13.785156 19.191406 13.78125 19.183594 13.777344 C 19.179688 13.777344 19.171875 13.773438 19.167969 13.773438 C 19.160156 13.769531 19.148438 13.765625 19.140625 13.765625 C 19.136719 13.761719 19.128906 13.757812 19.121094 13.757812 C 19.113281 13.753906 19.105469 13.75 19.097656 13.746094 C 19.09375 13.746094 19.085938 13.742188 19.078125 13.738281 C 19.070312 13.734375 19.0625 13.734375 19.054688 13.730469 C 19.050781 13.726562 19.042969 13.722656 19.035156 13.71875 C 19.027344 13.71875 19.023438 13.714844 19.015625 13.710938 C 19.007812 13.707031 19 13.703125 18.996094 13.703125 C 18.988281 13.699219 18.980469 13.695312 18.972656 13.691406 C 18.964844 13.6875 18.960938 13.683594 18.957031 13.683594 C 18.945312 13.679688 18.9375 13.675781 18.929688 13.667969 C 18.925781 13.667969 18.917969 13.664062 18.914062 13.660156 C 18.90625 13.65625 18.898438 13.652344 18.890625 13.648438 C 18.886719 13.644531 18.878906 13.644531 18.875 13.640625 C 18.867188 13.636719 18.859375 13.628906 18.847656 13.625 C 18.847656 13.625 18.84375 13.621094 18.84375 13.621094 C 18.796875 13.59375 18.75 13.566406 18.707031 13.535156 C 18.703125 13.53125 18.703125 13.53125 18.699219 13.53125 C 18.691406 13.523438 18.683594 13.515625 18.671875 13.511719 C 18.667969 13.507812 18.664062 13.503906 18.660156 13.503906 C 18.652344 13.496094 18.644531 13.488281 18.636719 13.484375 C 18.632812 13.480469 18.628906 13.476562 18.625 13.476562 C 18.617188 13.46875 18.609375 13.464844 18.601562 13.457031 C 18.597656 13.453125 18.59375 13.449219 18.589844 13.445312 C 18.582031 13.441406 18.574219 13.433594 18.566406 13.425781 C 18.5625 13.425781 18.558594 13.421875 18.554688 13.417969 C 18.546875 13.410156 18.539062 13.40625 18.53125 13.398438 C 18.53125 13.398438 18.53125 13.394531 18.527344 13.394531 C 18.480469 13.351562 18.433594 13.308594 18.390625 13.261719 C 18.390625 13.261719 18.390625 13.257812 18.390625 13.257812 C 18.363281 13.230469 18.339844 13.203125 18.3125 13.171875 C 18.269531 13.121094 18.230469 13.066406 18.191406 13.007812 C 18.183594 12.996094 18.171875 12.980469 18.164062 12.964844 C 18.164062 12.964844 18.164062 12.964844 18.160156 12.960938 C 18.152344 12.949219 18.144531 12.9375 18.136719 12.921875 C 18.136719 12.921875 18.136719 12.917969 18.132812 12.917969 C 18.125 12.902344 18.121094 12.890625 18.113281 12.878906 C 18.109375 12.875 18.109375 12.875 18.109375 12.871094 C 18.101562 12.859375 18.09375 12.847656 18.089844 12.835938 C 18.085938 12.832031 18.085938 12.828125 18.082031 12.824219 C 18.078125 12.8125 18.070312 12.800781 18.066406 12.789062 C 18.0625 12.785156 18.0625 12.785156 18.0625 12.78125 C 18.054688 12.769531 18.046875 12.753906 18.042969 12.742188 C 18.042969 12.738281 18.039062 12.738281 18.039062 12.734375 C 18.03125 12.722656 18.027344 12.707031 18.023438 12.695312 C 18.019531 12.691406 18.019531 12.691406 18.019531 12.6875 C 18.003906 12.65625 17.992188 12.625 17.980469 12.59375 C 17.980469 12.589844 17.980469 12.589844 17.980469 12.589844 C 17.972656 12.574219 17.96875 12.5625 17.964844 12.546875 C 17.964844 12.542969 17.960938 12.539062 17.960938 12.539062 C 17.957031 12.523438 17.953125 12.511719 17.949219 12.496094 C 17.949219 12.496094 17.945312 12.492188 17.945312 12.492188 C 17.941406 12.480469 17.9375 12.46875 17.9375 12.453125 C 17.933594 12.449219 17.933594 12.441406 17.929688 12.433594 C 17.929688 12.425781 17.925781 12.421875 17.925781 12.414062 C 17.921875 12.40625 17.921875 12.398438 17.917969 12.390625 C 17.917969 12.382812 17.914062 12.375 17.914062 12.367188 C 17.910156 12.363281 17.910156 12.355469 17.910156 12.351562 C 17.90625 12.339844 17.902344 12.324219 17.902344 12.3125 C 17.898438 12.304688 17.898438 12.300781 17.898438 12.296875 C 17.894531 12.285156 17.894531 12.277344 17.890625 12.269531 C 17.890625 12.261719 17.890625 12.257812 17.890625 12.25 C 17.886719 12.238281 17.886719 12.226562 17.882812 12.214844 C 17.882812 12.214844 17.882812 12.210938 17.882812 12.207031 C 17.878906 12.191406 17.878906 12.179688 17.875 12.164062 C 17.875 12.160156 17.875 12.15625 17.875 12.148438 C 17.871094 12.140625 17.871094 12.128906 17.871094 12.117188 C 17.871094 12.113281 17.871094 12.109375 17.867188 12.101562 C 17.867188 12.089844 17.867188 12.078125 17.867188 12.066406 C 17.867188 12.0625 17.867188 12.0625 17.863281 12.058594 C 17.863281 12.042969 17.863281 12.027344 17.863281 12.015625 C 17.863281 12.007812 17.863281 12.003906 17.863281 12 C 17.859375 11.988281 17.859375 11.976562 17.859375 11.964844 C 17.859375 11.960938 17.859375 11.957031 17.859375 11.953125 C 17.859375 11.9375 17.859375 11.921875 17.859375 11.90625 C 17.859375 11.355469 18.300781 10.914062 18.851562 10.914062 L 19.347656 10.914062 C 19.898438 10.914062 20.339844 11.355469 20.339844 11.90625 C 20.339844 12.042969 20.230469 12.152344 20.089844 12.152344 C 19.953125 12.152344 19.84375 12.042969 19.84375 11.90625 C 19.84375 11.632812 19.621094 11.410156 19.347656 11.410156 L 18.851562 11.410156 C 18.578125 11.410156 18.355469 11.632812 18.355469 11.90625 C 18.355469 12.730469 19.019531 13.394531 19.84375 13.394531 C 20.667969 13.394531 21.332031 12.730469 21.332031 11.90625 C 21.332031 11.082031 20.667969 10.417969 19.84375 10.417969 L 17.363281 10.417969 C 16.667969 10.417969 16.085938 10.890625 15.921875 11.539062 L 15.625 11.410156 L 11.90625 13.640625 L 8.183594 11.410156 L 7.890625 11.539062 C 7.726562 10.890625 7.144531 10.417969 6.449219 10.417969 L 3.96875 10.417969 C 3.144531 10.417969 2.480469 11.082031 2.480469 11.90625 C 2.480469 12.730469 3.144531 13.394531 3.96875 13.394531 C 4.792969 13.394531 5.457031 12.730469 5.457031 11.90625 C 5.457031 11.632812 5.234375 11.410156 4.960938 11.410156 L 4.464844 11.410156 C 4.191406 11.410156 3.96875 11.632812 3.96875 11.90625 C 3.96875 12.042969 3.859375 12.152344 3.71875 12.152344 C 3.582031 12.152344 3.472656 12.042969 3.472656 11.90625 C 3.472656 11.355469 3.914062 10.914062 4.464844 10.914062 L 4.960938 10.914062 C 5.511719 10.914062 5.953125 11.355469 5.953125 11.90625 C 5.953125 11.921875 5.953125 11.9375 5.953125 11.953125 C 5.953125 11.957031 5.953125 11.960938 5.953125 11.964844 C 5.953125 11.976562 5.953125 11.988281 5.949219 12 C 5.949219 12.003906 5.949219 12.007812 5.949219 12.015625 C 5.949219 12.027344 5.949219 12.042969 5.949219 12.058594 C 5.945312 12.0625 5.945312 12.0625 5.945312 12.066406 C 5.945312 12.078125 5.945312 12.089844 5.945312 12.101562 C 5.941406 12.109375 5.941406 12.113281 5.941406 12.117188 C 5.941406 12.128906 5.941406 12.140625 5.9375 12.148438 C 5.9375 12.15625 5.9375 12.160156 5.9375 12.164062 C 5.933594 12.179688 5.933594 12.191406 5.929688 12.207031 C 5.929688 12.210938 5.929688 12.214844 5.929688 12.214844 C 5.925781 12.226562 5.925781 12.238281 5.921875 12.25 C 5.921875 12.257812 5.921875 12.261719 5.921875 12.269531 C 5.917969 12.277344 5.917969 12.285156 5.914062 12.296875 C 5.914062 12.300781 5.914062 12.304688 5.910156 12.3125 C 5.910156 12.324219 5.90625 12.339844 5.902344 12.351562 C 5.902344 12.355469 5.902344 12.363281 5.898438 12.367188 C 5.898438 12.375 5.894531 12.382812 5.894531 12.390625 C 5.890625 12.398438 5.890625 12.40625 5.886719 12.414062 C 5.886719 12.421875 5.882812 12.425781 5.882812 12.433594 C 5.878906 12.441406 5.878906 12.449219 5.875 12.453125 C 5.875 12.46875 5.871094 12.480469 5.867188 12.492188 C 5.867188 12.492188 5.863281 12.496094 5.863281 12.496094 C 5.859375 12.511719 5.855469 12.523438 5.851562 12.539062 C 5.851562 12.539062 5.847656 12.542969 5.847656 12.546875 C 5.84375 12.5625 5.839844 12.574219 5.832031 12.589844 C 5.832031 12.589844 5.832031 12.589844 5.832031 12.59375 C 5.820312 12.625 5.808594 12.65625 5.792969 12.6875 C 5.792969 12.691406 5.792969 12.691406 5.789062 12.695312 C 5.785156 12.707031 5.78125 12.722656 5.773438 12.734375 C 5.773438 12.738281 5.769531 12.738281 5.769531 12.742188 C 5.765625 12.753906 5.757812 12.769531 5.75 12.78125 C 5.75 12.785156 5.75 12.785156 5.746094 12.789062 C 5.742188 12.800781 5.734375 12.8125 5.730469 12.824219 C 5.726562 12.828125 5.726562 12.832031 5.722656 12.835938 C 5.71875 12.847656 5.710938 12.859375 5.703125 12.871094 C 5.703125 12.875 5.703125 12.875 5.699219 12.878906 C 5.691406 12.890625 5.6875 12.902344 5.679688 12.917969 C 5.675781 12.917969 5.675781 12.921875 5.675781 12.921875 C 5.667969 12.9375 5.660156 12.949219 5.652344 12.960938 C 5.648438 12.964844 5.648438 12.964844 5.648438 12.964844 C 5.640625 12.980469 5.628906 12.996094 5.621094 13.007812 C 5.582031 13.066406 5.542969 13.121094 5.5 13.171875 C 5.472656 13.203125 5.449219 13.230469 5.421875 13.257812 C 5.421875 13.257812 5.421875 13.261719 5.421875 13.261719 C 5.378906 13.308594 5.332031 13.351562 5.285156 13.394531 C 5.28125 13.394531 5.28125 13.398438 5.28125 13.398438 C 5.273438 13.40625 5.265625 13.410156 5.257812 13.417969 C 5.253906 13.421875 5.25 13.425781 5.246094 13.425781 C 5.238281 13.433594 5.230469 13.441406 5.222656 13.445312 C 5.21875 13.449219 5.214844 13.453125 5.210938 13.457031 C 5.203125 13.464844 5.195312 13.46875 5.1875 13.476562 C 5.183594 13.476562 5.179688 13.480469 5.175781 13.484375 C 5.167969 13.488281 5.160156 13.496094 5.152344 13.503906 C 5.148438 13.503906 5.144531 13.507812 5.140625 13.511719 C 5.128906 13.515625 5.121094 13.523438 5.113281 13.53125 C 5.109375 13.53125 5.109375 13.53125 5.105469 13.535156 C 5.0625 13.566406 5.015625 13.59375 4.96875 13.621094 C 4.96875 13.621094 4.964844 13.625 4.964844 13.625 C 4.953125 13.628906 4.945312 13.636719 4.9375 13.640625 C 4.933594 13.644531 4.925781 13.644531 4.921875 13.648438 C 4.914062 13.652344 4.90625 13.65625 4.898438 13.660156 C 4.894531 13.664062 4.886719 13.667969 4.882812 13.667969 C 4.875 13.675781 4.867188 13.679688 4.855469 13.683594 C 4.851562 13.683594 4.847656 13.6875 4.839844 13.691406 C 4.832031 13.695312 4.824219 13.699219 4.816406 13.703125 C 4.8125 13.703125 4.804688 13.707031 4.796875 13.710938 C 4.789062 13.714844 4.785156 13.71875 4.777344 13.71875 C 4.769531 13.722656 4.761719 13.726562 4.757812 13.730469 C 4.75 13.734375 4.742188 13.734375 4.734375 13.738281 C 4.726562 13.742188 4.71875 13.746094 4.714844 13.746094 C 4.707031 13.75 4.699219 13.753906 4.691406 13.757812 C 4.683594 13.757812 4.675781 13.761719 4.671875 13.765625 C 4.664062 13.765625 4.652344 13.769531 4.644531 13.773438 C 4.640625 13.773438 4.632812 13.777344 4.628906 13.78125 C 4.621094 13.78125 4.609375 13.785156 4.601562 13.789062 C 4.59375 13.789062 4.589844 13.792969 4.582031 13.796875 C 4.574219 13.796875 4.566406 13.800781 4.558594 13.800781 C 4.550781 13.804688 4.546875 13.804688 4.539062 13.808594 C 4.523438 13.8125 4.507812 13.816406 4.488281 13.820312 C 4.484375 13.824219 4.476562 13.824219 4.46875 13.828125 C 4.460938 13.828125 4.453125 13.832031 4.449219 13.832031 C 4.4375 13.835938 4.429688 13.835938 4.421875 13.839844 C 4.417969 13.839844 4.410156 13.839844 4.402344 13.84375 C 4.394531 13.84375 4.386719 13.847656 4.375 13.847656 C 4.371094 13.851562 4.363281 13.851562 4.355469 13.851562 C 4.347656 13.855469 4.339844 13.855469 4.328125 13.859375 C 4.320312 13.859375 4.316406 13.859375 4.308594 13.863281 C 4.300781 13.863281 4.289062 13.863281 4.28125 13.867188 C 4.273438 13.867188 4.269531 13.867188 4.261719 13.871094 C 4.253906 13.871094 4.242188 13.871094 4.234375 13.875 C 4.226562 13.875 4.21875 13.875 4.210938 13.875 C 4.203125 13.875 4.195312 13.878906 4.1875 13.878906 C 4.179688 13.878906 4.171875 13.878906 4.164062 13.882812 C 4.15625 13.882812 4.144531 13.882812 4.136719 13.882812 C 4.128906 13.882812 4.125 13.882812 4.117188 13.886719 C 4.105469 13.886719 4.097656 13.886719 4.085938 13.886719 C 4.078125 13.886719 4.074219 13.886719 4.066406 13.886719 C 4.054688 13.890625 4.046875 13.890625 4.035156 13.890625 C 4.03125 13.890625 4.023438 13.890625 4.019531 13.890625 C 4 13.890625 3.984375 13.890625 3.96875 13.890625 C 2.871094 13.890625 1.984375 13.003906 1.984375 11.90625 C 1.984375 10.808594 2.871094 9.921875 3.96875 9.921875 Z M 10.914062 13.890625 L 12.898438 13.890625 L 12.898438 14.882812 L 10.914062 14.882812 Z M 6.945312 16.371094 L 6.945312 22.820312 L 8.433594 22.820312 L 8.433594 16.371094 Z M 9.425781 16.371094 L 9.425781 22.820312 L 10.417969 22.820312 L 10.417969 16.371094 Z M 11.410156 16.371094 L 11.410156 22.820312 L 12.402344 22.820312 L 12.402344 16.371094 Z M 13.394531 16.371094 L 13.394531 22.820312 L 14.386719 22.820312 L 14.386719 16.371094 Z M 15.378906 16.371094 L 15.378906 22.820312 L 16.867188 22.820312 L 16.867188 16.371094 Z M 15.378906 16.371094 "/>
<path style=" stroke:none;fill-rule:nonzero;fill:rgb(100%,79.215688%,15.686275%);fill-opacity:1;" d="M 9.554688 5.953125 C 5.945312 8.355469 7.074219 15.527344 4.960938 16.003906 L 9.921875 19.347656 L 10.417969 13.773438 L 8.433594 12.101562 L 8.929688 10.429688 L 11.160156 11.65625 L 11.410156 14.332031 L 11.90625 14.890625 L 11.90625 9.875 L 10.417969 9.316406 Z M 9.554688 5.953125 "/>
<path style=" stroke:none;fill-rule:nonzero;fill:rgb(93.725491%,32.549021%,31.37255%);fill-opacity:1;" d="M 11.90625 1.984375 L 9.921875 3.96875 L 10.914062 8.433594 L 11.90625 8.929688 Z M 11.90625 1.984375 "/>
<path style=" stroke:none;fill-rule:nonzero;fill:rgb(100%,87.843138%,50.980395%);fill-opacity:1;" d="M 8.964844 7.484375 C 9.082031 7.550781 9.039062 7.847656 8.867188 8.144531 C 8.695312 8.441406 8.460938 8.625 8.34375 8.558594 C 8.222656 8.488281 8.265625 8.191406 8.4375 7.898438 C 8.609375 7.601562 8.84375 7.414062 8.964844 7.484375 Z M 8.964844 7.484375 "/>
<path style=" stroke:none;fill-rule:nonzero;fill:rgb(95.686275%,26.274511%,21.176471%);fill-opacity:1;" d="M 11.90625 1.984375 L 11.90625 8.929688 L 12.898438 8.433594 L 13.890625 3.96875 Z M 11.90625 1.984375 "/>
<path style=" stroke:none;fill-rule:nonzero;fill:rgb(100%,70.19608%,0%);fill-opacity:1;" d="M 14.257812 5.953125 L 13.394531 9.316406 L 11.90625 9.875 L 11.90625 14.890625 L 12.402344 14.332031 L 12.648438 11.65625 L 14.882812 10.429688 L 15.378906 12.101562 L 13.394531 13.773438 L 13.890625 19.347656 L 18.851562 16.003906 C 16.738281 15.527344 17.867188 8.355469 14.257812 5.953125 Z M 14.257812 5.953125 "/>
</g>
</svg>
