
<svg xmlns="http://www.w3.org/2000/svg" xmlns:xlink="http://www.w3.org/1999/xlink" width="24px" height="24px" viewBox="0 0 24 24" version="1.1">
<g id="surface1">
<path style=" stroke:none;fill-rule:nonzero;fill:rgb(11.764706%,53.333336%,89.803922%);fill-opacity:1;" d="M 0.992188 12.09375 L 0.992188 22.015625 C 0.992188 22.566406 1.433594 23.007812 1.984375 23.007812 L 21.828125 23.007812 C 22.378906 23.007812 22.820312 22.566406 22.820312 22.015625 L 22.820312 12.09375 Z M 0.992188 12.09375 "/>
<path style=" stroke:none;fill-rule:nonzero;fill:rgb(12.941177%,12.941177%,12.941177%);fill-opacity:1;" d="M 0.992188 9.117188 L 22.820312 9.117188 L 22.820312 12.09375 L 0.992188 12.09375 Z M 0.992188 9.117188 "/>
<path style=" stroke:none;fill-rule:nonzero;fill:rgb(25.882354%,64.705884%,96.078432%);fill-opacity:1;" d="M 0.992188 9.117188 L 22.820312 9.117188 L 22.820312 12.09375 L 0.992188 12.09375 Z M 0.992188 9.117188 "/>
<path style=" stroke:none;fill-rule:nonzero;fill:rgb(93.333334%,93.333334%,93.333334%);fill-opacity:1;" d="M 2.964844 9.117188 L 1.246094 12.09375 L 4.113281 12.09375 L 5.832031 9.117188 Z M 8.917969 9.117188 L 7.199219 12.09375 L 10.066406 12.09375 L 11.785156 9.117188 Z M 15.035156 9.117188 L 13.316406 12.09375 L 16.183594 12.09375 L 17.902344 9.117188 Z M 20.824219 9.117188 L 19.105469 12.09375 L 21.972656 12.09375 L 22.820312 10.625 L 22.820312 9.117188 Z M 20.824219 9.117188 "/>
<path style=" stroke:none;fill-rule:nonzero;fill:rgb(25.882354%,64.705884%,96.078432%);fill-opacity:1;" d="M 20.921875 1.058594 C 21.453125 0.917969 21.996094 1.230469 22.136719 1.761719 L 22.648438 3.675781 L 1.566406 9.328125 L 1.050781 7.410156 C 0.910156 6.878906 1.222656 6.335938 1.753906 6.195312 Z M 20.921875 1.058594 "/>
<path style=" stroke:none;fill-rule:nonzero;fill:rgb(93.333334%,93.333334%,93.333334%);fill-opacity:1;" d="M 1.753906 6.195312 C 1.53125 6.253906 1.34375 6.386719 1.214844 6.558594 L 3.472656 8.816406 L 6.238281 8.074219 L 3.808594 5.644531 Z M 6.792969 4.84375 L 9.222656 7.277344 L 11.988281 6.535156 L 9.558594 4.105469 Z M 12.699219 3.261719 L 15.132812 5.691406 L 17.898438 4.949219 L 15.46875 2.519531 Z M 18.292969 1.761719 L 20.722656 4.195312 L 22.648438 3.675781 L 22.261719 2.222656 L 21.070312 1.03125 C 21.019531 1.035156 20.96875 1.046875 20.921875 1.058594 Z M 18.292969 1.761719 "/>
<path style=" stroke:none;fill-rule:nonzero;fill:rgb(25.882354%,64.705884%,96.078432%);fill-opacity:1;" d="M 2.726562 6.140625 C 1.765625 6.140625 0.992188 6.914062 0.992188 7.875 L 0.992188 11.84375 C 0.992188 11.929688 1 12.011719 1.007812 12.09375 L 4.449219 12.09375 C 4.457031 12.011719 4.464844 11.929688 4.464844 11.84375 L 4.464844 7.875 C 4.464844 6.914062 3.691406 6.140625 2.726562 6.140625 Z M 2.726562 6.140625 "/>
<path style=" stroke:none;fill-rule:nonzero;fill:rgb(8.235294%,39.607844%,75.294119%);fill-opacity:1;" d="M 2.726562 6.882812 C 3.140625 6.882812 3.472656 7.21875 3.472656 7.628906 C 3.472656 8.039062 3.140625 8.375 2.726562 8.375 C 2.316406 8.375 1.984375 8.039062 1.984375 7.628906 C 1.984375 7.21875 2.316406 6.882812 2.726562 6.882812 Z M 2.726562 6.882812 "/>
<path style=" stroke:none;fill-rule:nonzero;fill:rgb(8.235294%,39.607844%,75.294119%);fill-opacity:1;" d="M 2.726562 9.859375 C 3.140625 9.859375 3.472656 10.195312 3.472656 10.605469 C 3.472656 11.015625 3.140625 11.351562 2.726562 11.351562 C 2.316406 11.351562 1.984375 11.015625 1.984375 10.605469 C 1.984375 10.195312 2.316406 9.859375 2.726562 9.859375 Z M 2.726562 9.859375 "/>
<path style=" stroke:none;fill-rule:nonzero;fill:rgb(93.333334%,93.333334%,93.333334%);fill-opacity:1;" d="M 9.921875 14.113281 C 9.703125 14.117188 9.53125 14.296875 9.53125 14.515625 L 9.53125 20.207031 C 9.53125 20.523438 9.882812 20.71875 10.152344 20.546875 L 14.625 17.703125 C 14.875 17.542969 14.875 17.179688 14.625 17.019531 L 10.152344 14.175781 C 10.082031 14.128906 10.003906 14.109375 9.921875 14.113281 Z M 9.921875 14.113281 "/>
</g>
</svg>
