<?xml version="1.0" encoding="UTF-8"?>
<svg xmlns="http://www.w3.org/2000/svg" xmlns:xlink="http://www.w3.org/1999/xlink" width="24px" height="24px" viewBox="0 0 24 24" version="1.1">
<g id="surface1">
<path style=" stroke:none;fill-rule:nonzero;fill:rgb(100%,65.490198%,14.901961%);fill-opacity:1;" d="M 5.75 1.175781 C 5.726562 1.175781 5.699219 1.175781 5.671875 1.179688 L 2.265625 1.179688 C 1.988281 1.179688 1.769531 1.402344 1.769531 1.675781 C 1.769531 1.949219 1.988281 2.171875 2.265625 2.171875 L 5.457031 2.171875 L 9.28125 8.792969 C 9.417969 9.03125 9.71875 9.113281 9.957031 8.976562 C 10.195312 8.835938 10.277344 8.535156 10.140625 8.296875 L 6.171875 1.421875 C 6.082031 1.265625 5.917969 1.179688 5.75 1.175781 Z M 5.75 1.175781 "/>
<path style=" stroke:none;fill-rule:nonzero;fill:rgb(25.882354%,25.882354%,25.882354%);fill-opacity:1;" d="M 7.574219 17.726562 C 8.050781 18.003906 8.210938 18.609375 7.9375 19.082031 L 5.953125 22.519531 C 5.679688 22.996094 5.074219 23.15625 4.597656 22.882812 C 4.125 22.609375 3.960938 22.003906 4.234375 21.527344 L 6.21875 18.089844 C 6.492188 17.617188 7.101562 17.453125 7.574219 17.726562 Z M 7.574219 17.726562 "/>
<path style=" stroke:none;fill-rule:nonzero;fill:rgb(25.882354%,25.882354%,25.882354%);fill-opacity:1;" d="M 16.238281 17.726562 C 15.761719 18.003906 15.601562 18.609375 15.875 19.082031 L 17.859375 22.519531 C 18.132812 22.996094 18.738281 23.15625 19.214844 22.882812 C 19.6875 22.609375 19.851562 22.003906 19.578125 21.527344 L 17.59375 18.089844 C 17.320312 17.617188 16.710938 17.453125 16.238281 17.726562 Z M 16.238281 17.726562 "/>
<path style=" stroke:none;fill-rule:nonzero;fill:rgb(38.039216%,38.039216%,38.039216%);fill-opacity:1;" d="M 1.171875 8.125 C 1.054688 8.769531 0.992188 9.429688 0.992188 10.109375 C 0.992188 16.15625 5.859375 21.023438 11.90625 21.023438 C 17.953125 21.023438 22.820312 16.15625 22.820312 10.109375 C 22.820312 9.429688 22.757812 8.769531 22.640625 8.125 Z M 1.171875 8.125 "/>
<path style=" stroke:none;fill-rule:nonzero;fill:rgb(61.960787%,61.960787%,61.960787%);fill-opacity:1;" d="M 1.488281 6.636719 L 22.324219 6.636719 C 22.597656 6.636719 22.820312 6.859375 22.820312 7.132812 L 22.820312 8.125 C 22.820312 8.398438 22.597656 8.621094 22.324219 8.621094 L 1.488281 8.621094 C 1.214844 8.621094 0.992188 8.398438 0.992188 8.125 L 0.992188 7.132812 C 0.992188 6.859375 1.214844 6.636719 1.488281 6.636719 Z M 1.488281 6.636719 "/>
<path style=" stroke:none;fill-rule:nonzero;fill:rgb(100%,43.921569%,26.274511%);fill-opacity:1;" d="M 4.464844 18.046875 L 4.519531 18.15625 C 6.460938 19.9375 9.050781 21.023438 11.90625 21.023438 C 14.003906 21.023438 15.957031 20.4375 17.617188 19.421875 C 17.289062 19.273438 16.714844 19.039062 16.371094 19.039062 C 15.875 19.039062 15.378906 19.039062 14.386719 19.535156 C 13.394531 20.03125 13.394531 19.535156 11.410156 19.039062 C 9.425781 18.542969 9.425781 19.535156 7.9375 19.535156 C 6.449219 19.535156 4.464844 18.046875 4.464844 18.046875 Z M 4.464844 18.046875 "/>
<path style=" stroke:none;fill-rule:nonzero;fill:rgb(74.117649%,74.117649%,74.117649%);fill-opacity:1;" d="M 2.675781 12.367188 C 2.890625 12.160156 3.269531 12.570312 3.515625 13.285156 C 3.765625 13.996094 3.792969 14.742188 3.578125 14.945312 C 3.363281 15.152344 2.984375 14.742188 2.734375 14.027344 C 2.488281 13.316406 2.460938 12.570312 2.675781 12.367188 Z M 2.675781 12.367188 "/>
<path style=" stroke:none;fill-rule:nonzero;fill:rgb(74.117649%,74.117649%,74.117649%);fill-opacity:1;" d="M 2.464844 9.902344 C 2.65625 9.800781 2.84375 10.160156 2.886719 10.714844 C 2.929688 11.265625 2.804688 11.800781 2.613281 11.902344 C 2.421875 12.007812 2.234375 11.644531 2.191406 11.09375 C 2.152344 10.542969 2.273438 10.007812 2.464844 9.902344 Z M 2.464844 9.902344 "/>
<path style=" stroke:none;fill-rule:nonzero;fill:rgb(93.725491%,32.549021%,31.37255%);fill-opacity:1;" d="M 10.417969 19.757812 C 9.445312 19.761719 9.167969 20.296875 8.199219 20.382812 C 9.355469 20.796875 10.601562 21.023438 11.90625 21.023438 C 13.617188 21.023438 15.234375 20.632812 16.671875 19.9375 C 16.5625 19.914062 16.457031 19.898438 16.371094 19.898438 C 15.875 19.898438 15.378906 19.898438 14.386719 20.394531 C 13.394531 20.890625 13.394531 20.394531 11.410156 19.898438 C 11.007812 19.796875 10.6875 19.757812 10.417969 19.757812 Z M 10.417969 19.757812 "/>
<path style=" stroke:none;fill-rule:nonzero;fill:rgb(64.705884%,83.92157%,65.490198%);fill-opacity:1;" d="M 11.65625 5.148438 L 11.660156 5.148438 C 11.933594 5.148438 12.152344 5.371094 12.152344 5.644531 C 12.152344 5.917969 11.933594 6.140625 11.660156 6.140625 L 11.65625 6.140625 C 11.382812 6.140625 11.164062 5.917969 11.164062 5.644531 C 11.164062 5.371094 11.382812 5.148438 11.65625 5.148438 Z M 11.65625 5.148438 "/>
<path style=" stroke:none;fill-rule:nonzero;fill:rgb(64.705884%,83.92157%,65.490198%);fill-opacity:1;" d="M 13.765625 3.660156 C 14.246094 3.660156 14.636719 4.050781 14.636719 4.527344 C 14.636719 5.007812 14.246094 5.398438 13.765625 5.398438 C 13.289062 5.398438 12.898438 5.007812 12.898438 4.527344 C 12.898438 4.050781 13.289062 3.660156 13.765625 3.660156 Z M 13.765625 3.660156 "/>
<path style=" stroke:none;fill-rule:nonzero;fill:rgb(64.705884%,83.92157%,65.490198%);fill-opacity:1;" d="M 11.285156 1.925781 C 11.902344 1.925781 12.402344 2.421875 12.402344 3.039062 C 12.402344 3.65625 11.902344 4.15625 11.285156 4.15625 C 10.667969 4.15625 10.171875 3.65625 10.171875 3.039062 C 10.171875 2.421875 10.667969 1.925781 11.285156 1.925781 Z M 11.285156 1.925781 "/>
<path style=" stroke:none;fill-rule:nonzero;fill:rgb(45.882353%,45.882353%,45.882353%);fill-opacity:1;" d="M 1.488281 6.636719 C 1.214844 6.636719 0.992188 6.859375 0.992188 7.132812 L 0.992188 7.378906 L 22.820312 7.378906 L 22.820312 7.132812 C 22.820312 6.859375 22.597656 6.636719 22.324219 6.636719 Z M 1.488281 6.636719 "/>
</g>
</svg>
