<?xml version="1.0" encoding="UTF-8"?>
<svg xmlns="http://www.w3.org/2000/svg" xmlns:xlink="http://www.w3.org/1999/xlink" width="24px" height="24px" viewBox="0 0 24 24" version="1.1">
<g id="surface1">
<path style=" stroke:none;fill-rule:nonzero;fill:rgb(89.803922%,22.352941%,20.784314%);fill-opacity:1;" d="M 1.984375 1.179688 C 1.433594 1.179688 0.992188 1.621094 0.992188 2.171875 L 0.992188 2.195312 L 1.269531 2.476562 C 1.464844 2.667969 1.5625 2.921875 1.5625 3.175781 C 1.5625 3.429688 1.464844 3.683594 1.269531 3.878906 L 0.992188 4.15625 L 0.992188 5.148438 L 1.269531 5.425781 C 1.660156 5.816406 1.660156 6.441406 1.269531 6.828125 L 0.992188 7.109375 L 0.992188 8.125 L 1.269531 8.402344 C 1.660156 8.792969 1.660156 9.417969 1.269531 9.804688 L 0.992188 10.085938 L 0.992188 11.101562 L 1.269531 11.378906 C 1.660156 11.769531 1.660156 12.394531 1.269531 12.78125 L 0.992188 13.0625 L 0.992188 14.128906 L 1.269531 14.40625 C 1.660156 14.792969 1.660156 15.421875 1.269531 15.808594 L 0.992188 16.085938 L 0.992188 17.105469 L 1.269531 17.382812 C 1.660156 17.769531 1.660156 18.398438 1.269531 18.785156 L 0.992188 19.0625 L 0.992188 20.082031 L 1.269531 20.359375 C 1.660156 20.746094 1.660156 21.375 1.269531 21.761719 L 0.992188 22.039062 C 1.003906 22.578125 1.441406 23.007812 1.984375 23.007812 L 2.035156 23.007812 L 2.273438 22.765625 C 2.46875 22.574219 2.722656 22.476562 2.976562 22.476562 C 3.230469 22.476562 3.484375 22.574219 3.679688 22.765625 L 3.917969 23.007812 L 4.984375 23.007812 L 5.226562 22.765625 C 5.617188 22.378906 6.242188 22.378906 6.628906 22.765625 L 6.871094 23.007812 L 7.960938 23.007812 L 8.203125 22.765625 C 8.59375 22.378906 9.21875 22.378906 9.605469 22.765625 L 9.847656 23.007812 L 10.9375 23.007812 L 11.179688 22.765625 C 11.570312 22.378906 12.195312 22.378906 12.582031 22.765625 L 12.824219 23.007812 L 13.964844 23.007812 L 14.207031 22.765625 C 14.59375 22.378906 15.21875 22.378906 15.609375 22.765625 L 15.851562 23.007812 L 16.941406 23.007812 L 17.183594 22.765625 C 17.570312 22.378906 18.195312 22.378906 18.585938 22.765625 L 18.828125 23.007812 L 19.917969 23.007812 L 20.160156 22.765625 C 20.546875 22.378906 21.171875 22.378906 21.5625 22.765625 L 21.804688 23.007812 L 21.828125 23.007812 C 22.378906 23.007812 22.820312 22.566406 22.820312 22.015625 L 22.566406 21.761719 C 22.179688 21.375 22.179688 20.746094 22.566406 20.359375 L 22.820312 20.105469 L 22.820312 19.039062 L 22.566406 18.785156 C 22.179688 18.398438 22.179688 17.769531 22.566406 17.382812 L 22.820312 17.128906 L 22.820312 16.0625 L 22.566406 15.808594 C 22.179688 15.421875 22.179688 14.792969 22.566406 14.40625 L 22.820312 14.152344 L 22.820312 13.035156 L 22.566406 12.78125 C 22.179688 12.394531 22.179688 11.769531 22.566406 11.378906 L 22.820312 11.125 L 22.820312 10.058594 L 22.566406 9.804688 C 22.179688 9.417969 22.179688 8.792969 22.566406 8.402344 L 22.820312 8.148438 L 22.820312 7.082031 L 22.566406 6.828125 C 22.179688 6.441406 22.179688 5.816406 22.566406 5.425781 L 22.820312 5.171875 L 22.820312 4.132812 L 22.566406 3.878906 C 22.179688 3.488281 22.179688 2.863281 22.566406 2.476562 L 22.820312 2.222656 L 22.820312 2.171875 C 22.820312 1.628906 22.390625 1.191406 21.851562 1.179688 L 21.5625 1.46875 C 21.171875 1.859375 20.546875 1.859375 20.160156 1.46875 L 19.867188 1.179688 L 18.875 1.179688 L 18.585938 1.46875 C 18.195312 1.859375 17.570312 1.859375 17.183594 1.46875 L 16.890625 1.179688 L 15.898438 1.179688 L 15.609375 1.46875 C 15.21875 1.859375 14.59375 1.859375 14.207031 1.46875 L 13.914062 1.179688 L 12.875 1.179688 L 12.582031 1.46875 C 12.195312 1.859375 11.570312 1.859375 11.179688 1.46875 L 10.890625 1.179688 L 9.898438 1.179688 L 9.605469 1.46875 C 9.21875 1.859375 8.59375 1.859375 8.203125 1.46875 L 7.914062 1.179688 L 6.921875 1.179688 L 6.628906 1.46875 C 6.242188 1.859375 5.617188 1.859375 5.226562 1.46875 L 4.9375 1.179688 L 3.96875 1.179688 L 3.679688 1.46875 C 3.289062 1.859375 2.664062 1.859375 2.273438 1.46875 Z M 1.984375 1.179688 "/>
<path style=" stroke:none;fill-rule:nonzero;fill:rgb(93.725491%,32.549021%,31.37255%);fill-opacity:1;" d="M 3.335938 2.667969 C 2.863281 2.667969 2.480469 3.050781 2.480469 3.523438 L 2.480469 3.546875 L 2.71875 3.785156 C 2.886719 3.953125 2.972656 4.171875 2.972656 4.390625 C 2.972656 4.613281 2.886719 4.832031 2.71875 5 L 2.480469 5.238281 L 2.480469 6.09375 L 2.71875 6.335938 C 3.054688 6.671875 3.054688 7.210938 2.71875 7.546875 L 2.480469 7.789062 L 2.480469 8.667969 L 2.71875 8.90625 C 3.054688 9.242188 3.054688 9.78125 2.71875 10.117188 L 2.480469 10.359375 L 2.480469 11.238281 L 2.71875 11.476562 C 3.054688 11.8125 3.054688 12.351562 2.71875 12.6875 L 2.480469 12.929688 L 2.480469 13.851562 L 2.71875 14.089844 C 3.054688 14.425781 3.054688 14.96875 2.71875 15.300781 L 2.480469 15.542969 L 2.480469 16.421875 L 2.71875 16.660156 C 3.054688 16.996094 3.054688 17.539062 2.71875 17.875 L 2.480469 18.113281 L 2.480469 18.992188 L 2.71875 19.230469 C 3.054688 19.566406 3.054688 20.109375 2.71875 20.445312 L 2.480469 20.683594 C 2.492188 21.148438 2.871094 21.519531 3.335938 21.519531 L 3.378906 21.519531 L 3.589844 21.3125 C 3.757812 21.144531 3.976562 21.058594 4.195312 21.058594 C 4.414062 21.058594 4.632812 21.144531 4.800781 21.3125 L 5.007812 21.519531 L 5.929688 21.519531 L 6.136719 21.3125 C 6.472656 20.976562 7.011719 20.976562 7.347656 21.3125 L 7.558594 21.519531 L 8.5 21.519531 L 8.707031 21.3125 C 9.042969 20.976562 9.585938 20.976562 9.921875 21.3125 L 10.128906 21.519531 L 11.070312 21.519531 L 11.277344 21.3125 C 11.613281 20.976562 12.15625 20.976562 12.492188 21.3125 L 12.699219 21.519531 L 13.683594 21.519531 L 13.890625 21.3125 C 14.226562 20.976562 14.769531 20.976562 15.105469 21.3125 L 15.3125 21.519531 L 16.253906 21.519531 L 16.464844 21.3125 C 16.800781 20.976562 17.339844 20.976562 17.675781 21.3125 L 17.882812 21.519531 L 18.824219 21.519531 L 19.035156 21.3125 C 19.371094 20.976562 19.910156 20.976562 20.246094 21.3125 L 20.453125 21.519531 L 20.476562 21.519531 C 20.949219 21.519531 21.332031 21.136719 21.332031 20.664062 L 21.113281 20.445312 C 20.777344 20.109375 20.777344 19.566406 21.113281 19.230469 L 21.332031 19.011719 L 21.332031 18.09375 L 21.113281 17.875 C 20.777344 17.539062 20.777344 16.996094 21.113281 16.660156 L 21.332031 16.441406 L 21.332031 15.519531 L 21.113281 15.300781 C 20.777344 14.96875 20.777344 14.425781 21.113281 14.089844 L 21.332031 13.871094 L 21.332031 12.90625 L 21.113281 12.6875 C 20.777344 12.351562 20.777344 11.8125 21.113281 11.476562 L 21.332031 11.257812 L 21.332031 10.335938 L 21.113281 10.117188 C 20.777344 9.78125 20.777344 9.242188 21.113281 8.90625 L 21.332031 8.6875 L 21.332031 7.765625 L 21.113281 7.546875 C 20.777344 7.210938 20.777344 6.671875 21.113281 6.335938 L 21.332031 6.117188 L 21.332031 5.21875 L 21.113281 5 C 20.777344 4.664062 20.777344 4.121094 21.113281 3.785156 L 21.332031 3.566406 L 21.332031 3.523438 C 21.332031 3.058594 20.960938 2.679688 20.496094 2.667969 L 20.246094 2.917969 C 19.910156 3.253906 19.371094 3.253906 19.035156 2.917969 L 18.78125 2.667969 L 17.925781 2.667969 L 17.675781 2.917969 C 17.339844 3.253906 16.800781 3.253906 16.464844 2.917969 L 16.210938 2.667969 L 15.355469 2.667969 L 15.105469 2.917969 C 14.769531 3.253906 14.226562 3.253906 13.890625 2.917969 L 13.640625 2.667969 L 12.742188 2.667969 L 12.492188 2.917969 C 12.15625 3.253906 11.613281 3.253906 11.277344 2.917969 L 11.027344 2.667969 L 10.171875 2.667969 L 9.921875 2.917969 C 9.585938 3.253906 9.042969 3.253906 8.707031 2.917969 L 8.457031 2.667969 L 7.601562 2.667969 L 7.347656 2.917969 C 7.011719 3.253906 6.472656 3.253906 6.136719 2.917969 L 5.886719 2.667969 L 5.050781 2.667969 L 4.800781 2.917969 C 4.464844 3.253906 3.925781 3.253906 3.589844 2.917969 Z M 3.335938 2.667969 "/>
<path style=" stroke:none;fill-rule:nonzero;fill:rgb(93.333334%,93.333334%,93.333334%);fill-opacity:1;" d="M 10.417969 17.550781 C 10.144531 17.550781 9.921875 17.328125 9.921875 17.054688 L 9.921875 11.597656 L 7.9375 11.597656 L 11.90625 6.636719 L 15.875 11.597656 L 13.890625 11.597656 L 13.890625 17.054688 C 13.890625 17.328125 13.667969 17.550781 13.394531 17.550781 Z M 10.417969 17.550781 "/>
</g>
</svg>
