
<svg xmlns="http://www.w3.org/2000/svg" xmlns:xlink="http://www.w3.org/1999/xlink" width="24px" height="24px" viewBox="0 0 24 24" version="1.1">
<g id="surface1">
<path style=" stroke:none;fill-rule:nonzero;fill:rgb(81.176472%,84.705883%,86.274511%);fill-opacity:1;" d="M 9.921875 3.164062 L 9.921875 10.949219 C 7.460938 13.457031 3.492188 17.4375 2.746094 19.679688 C 1.597656 23.113281 11.90625 23.007812 11.90625 23.007812 C 11.90625 23.007812 22.210938 23.113281 21.066406 19.679688 C 20.320312 17.4375 16.351562 13.457031 13.890625 10.949219 L 13.890625 3.164062 Z M 9.921875 3.164062 "/>
<path style=" stroke:none;fill-rule:nonzero;fill:rgb(81.176472%,84.705883%,86.274511%);fill-opacity:1;" d="M 9.921875 1.179688 L 13.890625 1.179688 C 14.710938 1.179688 15.378906 1.847656 15.378906 2.667969 C 15.378906 3.488281 14.710938 4.15625 13.890625 4.15625 L 9.921875 4.15625 C 9.101562 4.15625 8.433594 3.488281 8.433594 2.667969 C 8.433594 1.847656 9.101562 1.179688 9.921875 1.179688 Z M 9.921875 1.179688 "/>
<path style=" stroke:none;fill-rule:nonzero;fill:rgb(25.882354%,64.705884%,96.078432%);fill-opacity:1;" d="M 6.449219 15.5625 C 5.390625 16.867188 4.207031 18.125 3.902344 19.042969 C 2.902344 22.039062 11.894531 21.949219 11.894531 21.949219 C 11.894531 21.949219 20.882812 22.039062 19.882812 19.042969 C 19.578125 18.125 18.421875 16.867188 17.363281 15.5625 C 14.742188 16.78125 7.839844 14.386719 6.449219 15.5625 Z M 6.449219 15.5625 "/>
<path style=" stroke:none;fill-rule:nonzero;fill:rgb(56.470591%,79.215688%,97.647059%);fill-opacity:1;" d="M 10.667969 17.054688 C 10.941406 17.054688 11.164062 17.277344 11.164062 17.550781 C 11.164062 17.824219 10.941406 18.046875 10.667969 18.046875 C 10.390625 18.046875 10.171875 17.824219 10.171875 17.550781 C 10.171875 17.277344 10.390625 17.054688 10.667969 17.054688 Z M 10.667969 17.054688 "/>
<path style=" stroke:none;fill-rule:nonzero;fill:rgb(56.470591%,79.215688%,97.647059%);fill-opacity:1;" d="M 13.269531 17.054688 C 13.476562 17.054688 13.640625 17.222656 13.640625 17.425781 C 13.640625 17.632812 13.476562 17.796875 13.269531 17.796875 C 13.066406 17.796875 12.898438 17.632812 12.898438 17.425781 C 12.898438 17.222656 13.066406 17.054688 13.269531 17.054688 Z M 13.269531 17.054688 "/>
<path style=" stroke:none;fill-rule:nonzero;fill:rgb(56.470591%,79.215688%,97.647059%);fill-opacity:1;" d="M 12.652344 19.039062 C 13.0625 19.039062 13.394531 19.371094 13.394531 19.785156 C 13.394531 20.195312 13.0625 20.527344 12.652344 20.527344 C 12.238281 20.527344 11.90625 20.195312 11.90625 19.785156 C 11.90625 19.371094 12.238281 19.039062 12.652344 19.039062 Z M 12.652344 19.039062 "/>
<path style=" stroke:none;fill-rule:nonzero;fill:rgb(56.470591%,79.215688%,97.647059%);fill-opacity:1;" d="M 8.1875 18.542969 C 8.597656 18.542969 8.929688 18.875 8.929688 19.285156 C 8.929688 19.699219 8.597656 20.03125 8.1875 20.03125 C 7.773438 20.03125 7.441406 19.699219 7.441406 19.285156 C 7.441406 18.875 7.773438 18.542969 8.1875 18.542969 Z M 8.1875 18.542969 "/>
<path style=" stroke:none;fill-rule:nonzero;fill:rgb(56.470591%,79.215688%,97.647059%);fill-opacity:1;" d="M 17.117188 18.542969 C 17.527344 18.542969 17.859375 18.875 17.859375 19.285156 C 17.859375 19.699219 17.527344 20.03125 17.117188 20.03125 C 16.703125 20.03125 16.371094 19.699219 16.371094 19.285156 C 16.371094 18.875 16.703125 18.542969 17.117188 18.542969 Z M 17.117188 18.542969 "/>
<path style=" stroke:none;fill-rule:nonzero;fill:rgb(56.470591%,79.215688%,97.647059%);fill-opacity:1;" d="M 8.0625 16.308594 C 8.265625 16.308594 8.433594 16.476562 8.433594 16.683594 C 8.433594 16.886719 8.265625 17.054688 8.0625 17.054688 C 7.855469 17.054688 7.691406 16.886719 7.691406 16.683594 C 7.691406 16.476562 7.855469 16.308594 8.0625 16.308594 Z M 8.0625 16.308594 "/>
<path style=" stroke:none;fill-rule:nonzero;fill:rgb(92.54902%,93.725491%,94.509804%);fill-opacity:1;" d="M 10.914062 4.652344 C 11.1875 4.652344 11.410156 4.875 11.410156 5.148438 L 11.410156 10.605469 C 11.410156 10.878906 11.1875 11.101562 10.914062 11.101562 C 10.640625 11.101562 10.417969 10.878906 10.417969 10.605469 L 10.417969 5.148438 C 10.417969 4.875 10.640625 4.652344 10.914062 4.652344 Z M 10.914062 4.652344 "/>
<path style=" stroke:none;fill-rule:nonzero;fill:rgb(92.54902%,93.725491%,94.509804%);fill-opacity:1;" d="M 10.039062 1.675781 L 11.292969 1.675781 C 11.769531 1.675781 12.15625 1.96875 12.15625 2.335938 L 12.15625 2.503906 C 12.15625 2.871094 11.769531 3.164062 11.292969 3.164062 L 10.039062 3.164062 C 9.5625 3.164062 9.179688 2.871094 9.179688 2.503906 L 9.179688 2.335938 C 9.179688 1.96875 9.5625 1.675781 10.039062 1.675781 Z M 10.039062 1.675781 "/>
<path style=" stroke:none;fill-rule:nonzero;fill:rgb(98.039216%,98.039216%,98.039216%);fill-opacity:1;" d="M 9.921875 1.925781 C 10.195312 1.925781 10.417969 2.035156 10.417969 2.171875 C 10.417969 2.308594 10.195312 2.421875 9.921875 2.421875 C 9.648438 2.421875 9.425781 2.308594 9.425781 2.171875 C 9.425781 2.035156 9.648438 1.925781 9.921875 1.925781 Z M 9.921875 1.925781 "/>
<path style=" stroke:none;fill-rule:nonzero;fill:rgb(92.54902%,93.725491%,94.509804%);fill-opacity:1;" d="M 10.066406 12.238281 C 10.261719 12.433594 10.261719 12.746094 10.066406 12.941406 L 8.839844 14.167969 C 8.644531 14.363281 8.332031 14.363281 8.136719 14.167969 C 7.945312 13.976562 7.945312 13.660156 8.136719 13.46875 L 9.367188 12.238281 C 9.558594 12.046875 9.875 12.046875 10.066406 12.238281 Z M 10.066406 12.238281 "/>
<path style=" stroke:none;fill-rule:nonzero;fill:rgb(56.470591%,79.215688%,97.647059%);fill-opacity:1;" d="M 7.972656 15.230469 C 7.28125 15.226562 6.742188 15.316406 6.449219 15.566406 C 10.914062 16.066406 16.371094 17.058594 17.363281 15.566406 C 15.292969 16.527344 10.558594 15.238281 7.972656 15.230469 Z M 7.972656 15.230469 "/>
<path style=" stroke:none;fill-rule:nonzero;fill:rgb(56.470591%,79.215688%,97.647059%);fill-opacity:1;" d="M 15.007812 18.046875 C 15.210938 18.046875 15.378906 18.214844 15.378906 18.417969 C 15.378906 18.625 15.210938 18.792969 15.007812 18.792969 C 14.800781 18.792969 14.636719 18.625 14.636719 18.417969 C 14.636719 18.214844 14.800781 18.046875 15.007812 18.046875 Z M 15.007812 18.046875 "/>
<path style=" stroke:none;fill-rule:nonzero;fill:rgb(56.470591%,79.215688%,97.647059%);fill-opacity:1;" d="M 16.246094 16.808594 C 16.453125 16.808594 16.617188 16.972656 16.617188 17.179688 C 16.617188 17.382812 16.453125 17.550781 16.246094 17.550781 C 16.042969 17.550781 15.875 17.382812 15.875 17.179688 C 15.875 16.972656 16.042969 16.808594 16.246094 16.808594 Z M 16.246094 16.808594 "/>
<path style=" stroke:none;fill-rule:nonzero;fill:rgb(56.470591%,79.215688%,97.647059%);fill-opacity:1;" d="M 6.078125 17.796875 C 6.28125 17.796875 6.449219 17.964844 6.449219 18.171875 C 6.449219 18.375 6.28125 18.542969 6.078125 18.542969 C 5.871094 18.542969 5.707031 18.375 5.707031 18.171875 C 5.707031 17.964844 5.871094 17.796875 6.078125 17.796875 Z M 6.078125 17.796875 "/>
<path style=" stroke:none;fill-rule:nonzero;fill:rgb(56.470591%,79.215688%,97.647059%);fill-opacity:1;" d="M 12.402344 11.410156 C 12.675781 11.410156 12.898438 11.632812 12.898438 11.90625 C 12.898438 12.179688 12.675781 12.402344 12.402344 12.402344 C 12.128906 12.402344 11.90625 12.179688 11.90625 11.90625 C 11.90625 11.632812 12.128906 11.410156 12.402344 11.410156 Z M 12.402344 11.410156 "/>
<path style=" stroke:none;fill-rule:nonzero;fill:rgb(56.470591%,79.215688%,97.647059%);fill-opacity:1;" d="M 14.015625 13.640625 C 14.21875 13.640625 14.386719 13.808594 14.386719 14.015625 C 14.386719 14.21875 14.21875 14.386719 14.015625 14.386719 C 13.808594 14.386719 13.640625 14.21875 13.640625 14.015625 C 13.640625 13.808594 13.808594 13.640625 14.015625 13.640625 Z M 14.015625 13.640625 "/>
<path style=" stroke:none;fill-rule:nonzero;fill:rgb(56.470591%,79.215688%,97.647059%);fill-opacity:1;" d="M 12.03125 14.386719 C 12.234375 14.386719 12.402344 14.554688 12.402344 14.757812 C 12.402344 14.964844 12.234375 15.132812 12.03125 15.132812 C 11.824219 15.132812 11.65625 14.964844 11.65625 14.757812 C 11.65625 14.554688 11.824219 14.386719 12.03125 14.386719 Z M 12.03125 14.386719 "/>
</g>
</svg>
