<?xml version="1.0" encoding="UTF-8"?>
<svg xmlns="http://www.w3.org/2000/svg" xmlns:xlink="http://www.w3.org/1999/xlink" width="24px" height="24px" viewBox="0 0 24 24" version="1.1">
<g id="surface1">
<path style=" stroke:none;fill-rule:nonzero;fill:rgb(93.333334%,93.333334%,93.333334%);fill-opacity:1;" d="M 15.875 1.179688 L 3.96875 1.179688 C 3.417969 1.179688 2.976562 1.621094 2.976562 2.171875 L 2.976562 22.015625 C 2.976562 22.566406 3.417969 23.007812 3.96875 23.007812 L 19.84375 23.007812 C 20.394531 23.007812 20.835938 22.566406 20.835938 22.015625 L 20.835938 6.140625 Z M 15.875 1.179688 "/>
<path style=" stroke:none;fill-rule:nonzero;fill:rgb(74.117649%,74.117649%,74.117649%);fill-opacity:1;" d="M 20.835938 6.140625 L 15.875 1.179688 L 15.875 5.148438 C 15.875 5.699219 16.316406 6.140625 16.867188 6.140625 Z M 20.835938 6.140625 "/>
<path style=" stroke:none;fill-rule:nonzero;fill:rgb(25.882354%,25.882354%,25.882354%);fill-opacity:1;" d="M 6.449219 9.117188 L 17.363281 9.117188 C 17.636719 9.117188 17.859375 9.332031 17.859375 9.59375 C 17.859375 9.855469 17.636719 10.070312 17.363281 10.070312 L 6.449219 10.070312 C 6.175781 10.070312 5.953125 9.855469 5.953125 9.59375 C 5.953125 9.332031 6.175781 9.117188 6.449219 9.117188 Z M 6.449219 9.117188 "/>
<path style=" stroke:none;fill-rule:nonzero;fill:rgb(25.882354%,25.882354%,25.882354%);fill-opacity:1;" d="M 6.449219 7.132812 L 17.363281 7.132812 C 17.636719 7.132812 17.859375 7.355469 17.859375 7.628906 C 17.859375 7.902344 17.636719 8.125 17.363281 8.125 L 6.449219 8.125 C 6.175781 8.125 5.953125 7.902344 5.953125 7.628906 C 5.953125 7.355469 6.175781 7.132812 6.449219 7.132812 Z M 6.449219 7.132812 "/>
<path style=" stroke:none;fill-rule:nonzero;fill:rgb(25.882354%,25.882354%,25.882354%);fill-opacity:1;" d="M 6.449219 13.085938 L 17.363281 13.085938 C 17.636719 13.085938 17.859375 13.292969 17.859375 13.546875 L 17.859375 13.617188 C 17.859375 13.871094 17.636719 14.078125 17.363281 14.078125 L 6.449219 14.078125 C 6.175781 14.078125 5.953125 13.871094 5.953125 13.617188 L 5.953125 13.546875 C 5.953125 13.292969 6.175781 13.085938 6.449219 13.085938 Z M 6.449219 13.085938 "/>
<path style=" stroke:none;fill-rule:nonzero;fill:rgb(25.882354%,25.882354%,25.882354%);fill-opacity:1;" d="M 6.449219 17.054688 L 17.363281 17.054688 C 17.636719 17.054688 17.859375 17.277344 17.859375 17.550781 C 17.859375 17.824219 17.636719 18.046875 17.363281 18.046875 L 6.449219 18.046875 C 6.175781 18.046875 5.953125 17.824219 5.953125 17.550781 C 5.953125 17.277344 6.175781 17.054688 6.449219 17.054688 Z M 6.449219 17.054688 "/>
<path style=" stroke:none;fill-rule:nonzero;fill:rgb(25.882354%,25.882354%,25.882354%);fill-opacity:1;" d="M 6.449219 11.140625 L 17.363281 11.140625 C 17.636719 11.140625 17.859375 11.355469 17.859375 11.617188 C 17.859375 11.878906 17.636719 12.09375 17.363281 12.09375 L 6.449219 12.09375 C 6.175781 12.09375 5.953125 11.878906 5.953125 11.617188 C 5.953125 11.355469 6.175781 11.140625 6.449219 11.140625 Z M 6.449219 11.140625 "/>
<path style=" stroke:none;fill-rule:nonzero;fill:rgb(25.882354%,25.882354%,25.882354%);fill-opacity:1;" d="M 6.449219 15.070312 L 17.363281 15.070312 C 17.636719 15.070312 17.859375 15.277344 17.859375 15.53125 L 17.859375 15.601562 C 17.859375 15.855469 17.636719 16.0625 17.363281 16.0625 L 6.449219 16.0625 C 6.175781 16.0625 5.953125 15.855469 5.953125 15.601562 L 5.953125 15.53125 C 5.953125 15.277344 6.175781 15.070312 6.449219 15.070312 Z M 6.449219 15.070312 "/>
<path style=" stroke:none;fill-rule:nonzero;fill:rgb(40.000001%,73.333335%,41.568628%);fill-opacity:1;" d="M 1.984375 6.140625 C 1.433594 6.140625 0.992188 6.582031 0.992188 7.132812 L 0.992188 22.015625 C 0.992188 22.023438 0.992188 22.03125 0.992188 22.042969 C 0.992188 22.058594 0.992188 22.074219 0.996094 22.09375 C 0.996094 22.101562 0.996094 22.109375 0.996094 22.117188 C 1 22.132812 1 22.152344 1.003906 22.167969 C 1.007812 22.183594 1.007812 22.199219 1.011719 22.214844 C 1.019531 22.25 1.027344 22.28125 1.035156 22.3125 C 1.046875 22.34375 1.058594 22.371094 1.070312 22.402344 C 1.078125 22.417969 1.082031 22.433594 1.089844 22.445312 C 1.097656 22.460938 1.105469 22.476562 1.113281 22.488281 C 1.121094 22.503906 1.128906 22.515625 1.136719 22.53125 C 1.152344 22.558594 1.167969 22.585938 1.1875 22.609375 C 1.207031 22.636719 1.226562 22.660156 1.25 22.683594 C 1.261719 22.695312 1.269531 22.707031 1.28125 22.71875 C 1.292969 22.730469 1.304688 22.738281 1.316406 22.75 C 1.386719 22.816406 1.464844 22.867188 1.554688 22.910156 C 1.597656 22.929688 1.640625 22.949219 1.6875 22.964844 C 1.71875 22.972656 1.75 22.980469 1.785156 22.988281 C 1.800781 22.992188 1.816406 22.992188 1.832031 22.996094 C 1.859375 23 1.882812 23.003906 1.90625 23.003906 C 1.933594 23.007812 1.957031 23.007812 1.984375 23.007812 L 16.867188 23.007812 C 17.417969 23.007812 17.859375 22.566406 17.859375 22.015625 L 17.859375 20.527344 L 17.851562 20.527344 L 17.855469 20.523438 L 3.472656 6.140625 Z M 3.96875 10.847656 L 13.152344 20.03125 L 3.96875 20.03125 Z M 3.96875 10.847656 "/>
<path style=" stroke:none;fill-rule:nonzero;fill:rgb(26.274511%,62.7451%,27.843139%);fill-opacity:1;" d="M 6.199219 21.402344 C 6.0625 21.402344 5.953125 21.515625 5.953125 21.652344 L 5.953125 23.007812 L 6.449219 23.007812 L 6.449219 21.652344 C 6.449219 21.515625 6.339844 21.402344 6.199219 21.402344 Z M 12.152344 21.402344 C 12.015625 21.402344 11.90625 21.515625 11.90625 21.652344 L 11.90625 23.007812 L 12.402344 23.007812 L 12.402344 21.652344 C 12.402344 21.515625 12.292969 21.402344 12.152344 21.402344 Z M 2.230469 21.898438 C 2.09375 21.898438 1.984375 22.011719 1.984375 22.148438 L 1.984375 23.007812 L 2.480469 23.007812 L 2.480469 22.148438 C 2.480469 22.011719 2.371094 21.898438 2.230469 21.898438 Z M 3.222656 21.898438 C 3.085938 21.898438 2.976562 22.011719 2.976562 22.148438 L 2.976562 23.007812 L 3.472656 23.007812 L 3.472656 22.148438 C 3.472656 22.011719 3.363281 21.898438 3.222656 21.898438 Z M 4.214844 21.898438 C 4.078125 21.898438 3.96875 22.011719 3.96875 22.148438 L 3.96875 23.007812 L 4.464844 23.007812 L 4.464844 22.148438 C 4.464844 22.011719 4.355469 21.898438 4.214844 21.898438 Z M 5.207031 21.898438 C 5.070312 21.898438 4.960938 22.011719 4.960938 22.148438 L 4.960938 23.007812 L 5.457031 23.007812 L 5.457031 22.148438 C 5.457031 22.011719 5.347656 21.898438 5.207031 21.898438 Z M 7.191406 21.898438 C 7.054688 21.898438 6.945312 22.011719 6.945312 22.148438 L 6.945312 23.007812 L 7.441406 23.007812 L 7.441406 22.148438 C 7.441406 22.011719 7.332031 21.898438 7.191406 21.898438 Z M 8.183594 21.898438 C 8.046875 21.898438 7.9375 22.011719 7.9375 22.148438 L 7.9375 23.007812 L 8.433594 23.007812 L 8.433594 22.148438 C 8.433594 22.011719 8.324219 21.898438 8.183594 21.898438 Z M 9.175781 21.898438 C 9.039062 21.898438 8.929688 22.011719 8.929688 22.148438 L 8.929688 23.007812 L 9.425781 23.007812 L 9.425781 22.148438 C 9.425781 22.011719 9.316406 21.898438 9.175781 21.898438 Z M 10.167969 21.898438 C 10.03125 21.898438 9.921875 22.011719 9.921875 22.148438 L 9.921875 23.007812 L 10.417969 23.007812 L 10.417969 22.148438 C 10.417969 22.011719 10.308594 21.898438 10.167969 21.898438 Z M 11.160156 21.898438 C 11.023438 21.898438 10.914062 22.011719 10.914062 22.148438 L 10.914062 23.007812 L 11.410156 23.007812 L 11.410156 22.148438 C 11.410156 22.011719 11.300781 21.898438 11.160156 21.898438 Z M 13.144531 21.898438 C 13.007812 21.898438 12.898438 22.011719 12.898438 22.148438 L 12.898438 23.007812 L 13.394531 23.007812 L 13.394531 22.148438 C 13.394531 22.011719 13.285156 21.898438 13.144531 21.898438 Z M 14.136719 21.898438 C 14 21.898438 13.890625 22.011719 13.890625 22.148438 L 13.890625 23.007812 L 14.386719 23.007812 L 14.386719 22.148438 C 14.386719 22.011719 14.277344 21.898438 14.136719 21.898438 Z M 15.128906 21.898438 C 14.992188 21.898438 14.882812 22.011719 14.882812 22.148438 L 14.882812 23.007812 L 15.378906 23.007812 L 15.378906 22.148438 C 15.378906 22.011719 15.269531 21.898438 15.128906 21.898438 Z M 16.121094 21.898438 C 15.984375 21.898438 15.875 22.011719 15.875 22.148438 L 15.875 23.007812 L 16.371094 23.007812 L 16.371094 22.148438 C 16.371094 22.011719 16.261719 21.898438 16.121094 21.898438 Z M 17.113281 21.898438 C 16.976562 21.898438 16.867188 22.011719 16.867188 22.148438 L 16.867188 23.007812 C 17.046875 23.007812 17.21875 22.960938 17.363281 22.875 L 17.363281 22.148438 C 17.363281 22.011719 17.253906 21.898438 17.113281 21.898438 Z M 17.113281 21.898438 "/>
</g>
</svg>
