<?xml version="1.0" encoding="UTF-8"?>
<svg xmlns="http://www.w3.org/2000/svg" xmlns:xlink="http://www.w3.org/1999/xlink" width="24px" height="24px" viewBox="0 0 24 24" version="1.1">
<g id="surface1">
<path style=" stroke:none;fill-rule:nonzero;fill:rgb(61.960787%,61.960787%,61.960787%);fill-opacity:1;" d="M 6.308594 20.03125 C 6.539062 20.03125 6.753906 20.082031 6.945312 20.171875 L 10.773438 21.023438 C 11.324219 21.023438 11.765625 21.464844 11.765625 22.015625 C 11.765625 22.566406 11.324219 23.007812 10.773438 23.007812 L 6.308594 23.007812 C 5.484375 23.007812 4.820312 22.34375 4.820312 21.519531 C 4.820312 20.695312 5.484375 20.03125 6.308594 20.03125 Z M 6.308594 20.03125 "/>
<path style=" stroke:none;fill-rule:nonzero;fill:rgb(74.117649%,74.117649%,74.117649%);fill-opacity:1;" d="M 15.875 9.984375 C 13.523438 9.984375 12.414062 13.039062 11.410156 16.0625 C 10.503906 16.71875 8.957031 18.128906 8.957031 19.769531 C 8.957031 22.042969 10.15625 23.007812 11.644531 23.007812 L 20.199219 23.007812 L 20.199219 23.003906 C 21.644531 22.933594 22.792969 21.996094 22.792969 19.769531 C 22.792969 18.128906 21.246094 16.71875 20.339844 16.0625 C 19.335938 13.039062 18.226562 9.984375 15.875 9.984375 Z M 15.875 9.984375 "/>
<path style=" stroke:none;fill-rule:nonzero;fill:rgb(82.352942%,82.352942%,82.352942%);fill-opacity:1;" d="M 15.378906 8.324219 C 16.476562 8.320312 17.371094 10.539062 17.378906 13.28125 L 17.378906 14.273438 C 17.386719 17.011719 16.507812 19.234375 15.410156 19.238281 C 14.316406 19.242188 13.417969 17.023438 13.410156 14.285156 L 13.410156 13.292969 C 13.402344 10.550781 14.28125 8.328125 15.378906 8.324219 Z M 15.378906 8.324219 "/>
<path style=" stroke:none;fill-rule:nonzero;fill:rgb(25.882354%,64.705884%,96.078432%);fill-opacity:1;" d="M 4.464844 11.597656 C 4.191406 11.597656 3.96875 11.820312 3.96875 12.09375 L 3.96875 18.046875 L 0.992188 18.046875 L 6.945312 23.007812 L 12.898438 18.046875 L 9.921875 18.046875 L 9.921875 12.09375 C 9.921875 11.820312 9.699219 11.597656 9.425781 11.597656 Z M 4.464844 11.597656 "/>
<path style=" stroke:none;fill-rule:nonzero;fill:rgb(61.960787%,61.960787%,61.960787%);fill-opacity:1;" d="M 17.25 3.050781 C 19.179688 1.933594 21.542969 0.570312 22.039062 1.429688 C 22.535156 2.285156 21.808594 4.996094 20.585938 6.847656 Z M 17.25 3.050781 "/>
<path style=" stroke:none;fill-rule:nonzero;fill:rgb(93.725491%,60.392159%,60.392159%);fill-opacity:1;" d="M 19.347656 4.40625 C 20.339844 3.414062 21.179688 1.925781 21.480469 2.4375 C 21.777344 2.953125 21.339844 4.582031 20.605469 5.691406 Z M 19.347656 4.40625 "/>
<path style=" stroke:none;fill-rule:nonzero;fill:rgb(61.960787%,61.960787%,61.960787%);fill-opacity:1;" d="M 13.394531 3.660156 C 11.160156 3.660156 8.433594 3.660156 8.433594 4.652344 C 8.433594 5.644531 10.417969 7.628906 12.402344 8.621094 Z M 13.394531 3.660156 "/>
<path style=" stroke:none;fill-rule:nonzero;fill:rgb(93.725491%,60.392159%,60.392159%);fill-opacity:1;" d="M 12.402344 4.652344 C 11.0625 4.652344 9.425781 4.652344 9.425781 5.246094 C 9.425781 5.84375 10.617188 7.035156 11.808594 7.628906 Z M 12.402344 4.652344 "/>
<path style=" stroke:none;fill-rule:nonzero;fill:rgb(74.117649%,74.117649%,74.117649%);fill-opacity:1;" d="M 15.875 2.667969 C 12.988281 2.667969 11.332031 4.003906 10.527344 6.664062 C 9.992188 8.015625 9.003906 8.90625 9.191406 9.484375 C 9.363281 10.019531 12.171875 13.363281 15.875 13.363281 C 19.578125 13.363281 22.386719 10.019531 22.558594 9.484375 C 22.746094 8.90625 21.757812 8.015625 21.222656 6.664062 C 20.417969 4.003906 18.761719 2.667969 15.875 2.667969 Z M 15.875 2.667969 "/>
<path style=" stroke:none;fill-rule:nonzero;fill:rgb(87.843138%,87.843138%,87.843138%);fill-opacity:1;" d="M 11.410156 11.347656 C 11.410156 11.503906 11.425781 11.65625 11.449219 11.800781 C 12.613281 12.632812 14.144531 13.363281 15.875 13.363281 C 17.320312 13.363281 18.628906 12.851562 19.695312 12.203125 C 19.347656 8.125 11.410156 8.621094 11.410156 11.347656 Z M 11.410156 11.347656 "/>
<path style=" stroke:none;fill-rule:nonzero;fill:rgb(93.725491%,32.549021%,31.37255%);fill-opacity:1;" d="M 14.261719 9.613281 C 14.632812 10.355469 14.867188 11.457031 15.378906 11.472656 C 15.875 11.472656 16.121094 10.355469 16.371094 9.488281 C 15.628906 9.367188 14.882812 9.367188 14.261719 9.613281 Z M 14.261719 9.613281 "/>
<path style=" stroke:none;fill-rule:nonzero;fill:rgb(25.882354%,25.882354%,25.882354%);fill-opacity:1;" d="M 17.363281 6.761719 C 16.976562 6.761719 16.667969 7.148438 16.667969 7.628906 L 16.667969 8.0625 C 16.667969 8.304688 16.863281 8.496094 17.101562 8.496094 L 17.679688 8.496094 C 17.921875 8.496094 18.117188 8.304688 18.117188 8.0625 L 18.117188 7.628906 C 18.117188 7.148438 17.804688 6.761719 17.421875 6.761719 Z M 17.363281 6.761719 "/>
<path style=" stroke:none;fill-rule:nonzero;fill:rgb(25.882354%,25.882354%,25.882354%);fill-opacity:1;" d="M 13.195312 6.761719 C 12.8125 6.761719 12.5 7.148438 12.5 7.628906 L 12.5 8.0625 C 12.5 8.304688 12.695312 8.496094 12.9375 8.496094 L 13.515625 8.496094 C 13.753906 8.496094 13.949219 8.304688 13.949219 8.0625 L 13.949219 7.628906 C 13.949219 7.148438 13.640625 6.761719 13.253906 6.761719 Z M 13.195312 6.761719 "/>
<path style=" stroke:none;fill-rule:nonzero;fill:rgb(93.333334%,93.333334%,93.333334%);fill-opacity:1;" d="M 16.851562 7.257812 C 16.929688 7.257812 16.992188 7.339844 16.992188 7.441406 C 16.992188 7.546875 16.929688 7.628906 16.851562 7.628906 C 16.773438 7.628906 16.710938 7.546875 16.710938 7.441406 C 16.710938 7.339844 16.773438 7.257812 16.851562 7.257812 Z M 16.851562 7.257812 "/>
<path style=" stroke:none;fill-rule:nonzero;fill:rgb(93.333334%,93.333334%,93.333334%);fill-opacity:1;" d="M 17.023438 7.628906 C 17.074219 7.628906 17.117188 7.683594 17.117188 7.753906 C 17.117188 7.820312 17.074219 7.878906 17.023438 7.878906 C 16.972656 7.878906 16.929688 7.820312 16.929688 7.753906 C 16.929688 7.683594 16.972656 7.628906 17.023438 7.628906 Z M 17.023438 7.628906 "/>
<path style=" stroke:none;fill-rule:nonzero;fill:rgb(93.333334%,93.333334%,93.333334%);fill-opacity:1;" d="M 12.789062 7.257812 C 12.867188 7.257812 12.929688 7.339844 12.929688 7.441406 C 12.929688 7.546875 12.867188 7.628906 12.789062 7.628906 C 12.710938 7.628906 12.648438 7.546875 12.648438 7.441406 C 12.648438 7.339844 12.710938 7.257812 12.789062 7.257812 Z M 12.789062 7.257812 "/>
<path style=" stroke:none;fill-rule:nonzero;fill:rgb(93.333334%,93.333334%,93.333334%);fill-opacity:1;" d="M 12.960938 7.628906 C 13.011719 7.628906 13.054688 7.683594 13.054688 7.753906 C 13.054688 7.820312 13.011719 7.878906 12.960938 7.878906 C 12.910156 7.878906 12.867188 7.820312 12.867188 7.753906 C 12.867188 7.683594 12.910156 7.628906 12.960938 7.628906 Z M 12.960938 7.628906 "/>
<path style=" stroke:none;fill-rule:nonzero;fill:rgb(89.803922%,45.09804%,45.09804%);fill-opacity:1;" d="M 16.113281 10.398438 C 15.617188 10.460938 15.15625 10.597656 14.757812 10.789062 C 14.929688 11.171875 15.117188 11.464844 15.378906 11.472656 C 15.707031 11.472656 15.929688 10.980469 16.113281 10.398438 Z M 16.113281 10.398438 "/>
<path style=" stroke:none;fill-rule:nonzero;fill:rgb(87.843138%,87.843138%,87.843138%);fill-opacity:1;" d="M 18.601562 20.03125 C 17.503906 20.03125 16.621094 20.695312 16.621094 21.519531 L 16.621094 22.511719 C 16.621094 22.785156 16.839844 23.007812 17.117188 23.007812 L 20.09375 23.007812 C 20.367188 23.007812 20.585938 22.785156 20.585938 22.511719 L 20.585938 21.519531 C 20.585938 20.695312 19.703125 20.03125 18.601562 20.03125 Z M 18.601562 20.03125 "/>
<path style=" stroke:none;fill-rule:nonzero;fill:rgb(87.843138%,87.843138%,87.843138%);fill-opacity:1;" d="M 11.90625 15.070312 C 10.808594 15.070312 9.921875 15.734375 9.921875 16.558594 L 9.921875 17.550781 C 9.921875 17.824219 10.144531 18.046875 10.417969 18.046875 L 13.394531 18.046875 C 13.667969 18.046875 13.890625 17.824219 13.890625 17.550781 L 13.890625 16.558594 C 13.890625 15.734375 13.003906 15.070312 11.90625 15.070312 Z M 11.90625 15.070312 "/>
<path style=" stroke:none;fill-rule:nonzero;fill:rgb(67.058825%,27.843139%,73.725492%);fill-opacity:1;" d="M 19 12.585938 C 18.078125 13.042969 17.019531 13.363281 15.875 13.363281 C 14.730469 13.363281 13.671875 13.042969 12.75 12.585938 C 12.660156 12.773438 12.570312 12.964844 12.480469 13.164062 C 13.464844 13.695312 14.617188 14.078125 15.875 14.078125 C 17.132812 14.078125 18.285156 13.695312 19.269531 13.164062 C 19.179688 12.964844 19.089844 12.773438 19 12.585938 Z M 19 12.585938 "/>
<path style=" stroke:none;fill-rule:nonzero;fill:rgb(100%,65.490198%,14.901961%);fill-opacity:1;" d="M 15.378906 13.832031 C 15.652344 13.832031 15.875 14.050781 15.875 14.328125 C 15.875 14.601562 15.652344 14.824219 15.378906 14.824219 C 15.105469 14.824219 14.882812 14.601562 14.882812 14.328125 C 14.882812 14.050781 15.105469 13.832031 15.378906 13.832031 Z M 15.378906 13.832031 "/>
<path style=" stroke:none;fill-rule:nonzero;fill:rgb(56.470591%,79.215688%,97.647059%);fill-opacity:1;" d="M 4.960938 12.589844 L 8.929688 12.589844 L 8.929688 15.070312 L 4.960938 15.070312 Z M 4.960938 12.589844 "/>
<path style=" stroke:none;fill-rule:nonzero;fill:rgb(56.470591%,79.215688%,97.647059%);fill-opacity:1;" d="M 4.960938 15.316406 L 6.945312 15.316406 L 6.945312 17.796875 L 4.960938 17.796875 Z M 4.960938 15.316406 "/>
<path style=" stroke:none;fill-rule:nonzero;fill:rgb(56.470591%,79.215688%,97.647059%);fill-opacity:1;" d="M 7.191406 15.316406 L 8.929688 15.316406 L 8.929688 16.308594 L 7.191406 16.308594 Z M 7.191406 15.316406 "/>
<path style=" stroke:none;fill-rule:nonzero;fill:rgb(56.470591%,79.215688%,97.647059%);fill-opacity:1;" d="M 7.191406 16.804688 L 8.433594 16.804688 L 8.433594 17.796875 L 7.191406 17.796875 Z M 7.191406 16.804688 "/>
<path style=" stroke:none;fill-rule:nonzero;fill:rgb(25.882354%,25.882354%,25.882354%);fill-opacity:1;" d="M 15.128906 8.867188 L 15.378906 8.867188 C 15.449219 8.867188 15.503906 8.925781 15.503906 8.992188 C 15.503906 9.0625 15.449219 9.117188 15.378906 9.117188 L 15.128906 9.117188 C 15.0625 9.117188 15.007812 9.0625 15.007812 8.992188 C 15.007812 8.925781 15.0625 8.867188 15.128906 8.867188 Z M 15.128906 8.867188 "/>
<path style=" stroke:none;fill-rule:nonzero;fill:rgb(87.843138%,87.843138%,87.843138%);fill-opacity:1;" d="M 14.386719 3.660156 L 13.144531 2.667969 L 14.386719 2.914062 L 13.890625 2.421875 L 15.128906 2.667969 L 14.882812 1.925781 L 15.875 2.667969 L 15.875 2.171875 L 16.371094 2.667969 L 16.617188 2.171875 L 16.867188 3.414062 Z M 14.386719 3.660156 "/>
<path style=" stroke:none;fill-rule:nonzero;fill:rgb(87.843138%,87.843138%,87.843138%);fill-opacity:1;" d="M 21.25 6.730469 C 20.257812 7.03125 19.546875 7.433594 19.609375 7.679688 C 19.679688 7.9375 20.605469 7.914062 21.703125 7.628906 C 21.542969 7.355469 21.382812 7.058594 21.25 6.730469 Z M 10.464844 6.816406 C 10.328125 7.136719 10.167969 7.429688 10.007812 7.695312 C 10.984375 7.917969 11.769531 7.917969 11.835938 7.679688 C 11.894531 7.457031 11.3125 7.101562 10.464844 6.816406 Z M 21.875 7.914062 C 20.84375 8.214844 20.085938 8.636719 20.15625 8.886719 C 20.226562 9.152344 21.191406 9.121094 22.320312 8.820312 C 22.351562 8.8125 22.382812 8.804688 22.414062 8.792969 C 22.28125 8.539062 22.082031 8.246094 21.875 7.914062 Z M 9.824219 7.992188 C 9.617188 8.324219 9.425781 8.613281 9.300781 8.863281 C 10.351562 9.125 11.222656 9.136719 11.289062 8.886719 C 11.351562 8.65625 10.722656 8.285156 9.824219 7.992188 Z M 9.824219 7.992188 "/>
<path style=" stroke:none;fill-rule:nonzero;fill:rgb(87.843138%,87.843138%,87.843138%);fill-opacity:1;" d="M 15.875 2.667969 C 15.875 3.492188 16.097656 4.15625 16.371094 4.15625 C 16.640625 4.15625 16.855469 3.523438 16.867188 2.726562 C 16.554688 2.6875 16.222656 2.667969 15.875 2.667969 Z M 15.875 2.667969 C 15.527344 2.667969 15.195312 2.6875 14.882812 2.726562 C 14.894531 3.523438 15.109375 4.15625 15.378906 4.15625 C 15.652344 4.15625 15.875 3.492188 15.875 2.667969 Z M 14.882812 2.726562 C 14.53125 2.769531 14.207031 2.835938 13.898438 2.929688 C 13.9375 3.628906 14.140625 4.15625 14.386719 4.15625 C 14.65625 4.15625 14.871094 3.523438 14.882812 2.726562 Z M 14.882812 2.726562 "/>
</g>
</svg>
