
<svg xmlns="http://www.w3.org/2000/svg" xmlns:xlink="http://www.w3.org/1999/xlink" width="24px" height="24px" viewBox="0 0 24 24" version="1.1">
<g id="surface1">
<path style=" stroke:none;fill-rule:nonzero;fill:rgb(93.333334%,93.333334%,93.333334%);fill-opacity:1;" d="M 2.171875 1.179688 L 21.640625 1.179688 C 22.292969 1.179688 22.820312 1.707031 22.820312 2.359375 L 22.820312 21.828125 C 22.820312 22.480469 22.292969 23.007812 21.640625 23.007812 L 2.171875 23.007812 C 1.519531 23.007812 0.992188 22.480469 0.992188 21.828125 L 0.992188 2.359375 C 0.992188 1.707031 1.519531 1.179688 2.171875 1.179688 Z M 2.171875 1.179688 "/>
<path style=" stroke:none;fill-rule:nonzero;fill:rgb(25.882354%,64.705884%,96.078432%);fill-opacity:1;" d="M 2.171875 1.179688 C 1.519531 1.179688 0.992188 1.707031 0.992188 2.359375 L 0.992188 9.597656 C 1.511719 10.183594 2.066406 10.707031 2.660156 11.164062 C 3.867188 12.09375 5.148438 12.765625 6.433594 13.285156 C 5.742188 13.796875 5.058594 14.210938 4.363281 14.496094 C 3.367188 14.90625 2.316406 15.144531 0.992188 15.03125 L 0.992188 20.53125 C 3.011719 20.632812 4.855469 20.300781 6.476562 19.636719 C 7.886719 19.054688 9.109375 18.28125 10.203125 17.429688 C 10.300781 18.285156 10.316406 19.082031 10.21875 19.828125 C 10.074219 20.890625 9.757812 21.921875 8.996094 23.007812 L 15.125 23.007812 C 15.417969 22.195312 15.613281 21.378906 15.722656 20.566406 C 15.925781 19.054688 15.867188 17.613281 15.675781 16.238281 C 16.464844 16.578125 17.164062 16.964844 17.757812 17.421875 C 19.164062 18.503906 20.242188 19.953125 20.765625 23.007812 L 21.640625 23.007812 C 22.292969 23.007812 22.820312 22.480469 22.820312 21.828125 L 22.820312 14.589844 C 22.300781 14.003906 21.746094 13.480469 21.152344 13.023438 C 19.945312 12.09375 18.664062 11.421875 17.378906 10.902344 C 18.070312 10.390625 18.753906 9.976562 19.449219 9.691406 C 20.445312 9.28125 21.496094 9.042969 22.820312 9.15625 L 22.820312 3.65625 C 20.800781 3.554688 18.957031 3.886719 17.335938 4.550781 C 15.925781 5.132812 14.703125 5.90625 13.609375 6.757812 C 13.511719 5.902344 13.496094 5.105469 13.59375 4.359375 C 13.738281 3.296875 14.054688 2.265625 14.816406 1.179688 L 8.6875 1.179688 C 8.394531 1.992188 8.199219 2.808594 8.089844 3.621094 C 7.886719 5.132812 7.945312 6.574219 8.136719 7.949219 C 7.347656 7.609375 6.648438 7.222656 6.054688 6.765625 C 4.648438 5.683594 3.570312 4.234375 3.046875 1.179688 Z M 2.171875 1.179688 "/>
<path style=" stroke:none;fill-rule:nonzero;fill:rgb(11.764706%,53.333336%,89.803922%);fill-opacity:1;" d="M 11.90625 5.148438 C 15.742188 5.148438 18.851562 8.257812 18.851562 12.09375 C 18.851562 15.929688 15.742188 19.039062 11.90625 19.039062 C 8.070312 19.039062 4.960938 15.929688 4.960938 12.09375 C 4.960938 8.257812 8.070312 5.148438 11.90625 5.148438 Z M 11.90625 5.148438 "/>
<path style=" stroke:none;fill-rule:nonzero;fill:rgb(93.333334%,93.333334%,93.333334%);fill-opacity:1;" d="M 11.90625 5.644531 C 15.46875 5.644531 18.355469 8.53125 18.355469 12.09375 C 18.355469 15.65625 15.46875 18.542969 11.90625 18.542969 C 8.34375 18.542969 5.457031 15.65625 5.457031 12.09375 C 5.457031 8.53125 8.34375 5.644531 11.90625 5.644531 Z M 11.90625 5.644531 "/>
<path style=" stroke:none;fill-rule:nonzero;fill:rgb(25.882354%,64.705884%,96.078432%);fill-opacity:1;" d="M 9.921875 8.125 C 9.65625 8.132812 9.445312 8.351562 9.445312 8.617188 L 9.445312 15.5625 C 9.445312 15.953125 9.875 16.1875 10.203125 15.980469 L 15.660156 12.507812 C 15.964844 12.3125 15.964844 11.867188 15.660156 11.675781 L 10.203125 8.203125 C 10.121094 8.148438 10.019531 8.121094 9.921875 8.125 Z M 9.921875 8.125 "/>
</g>
</svg>
