
<svg xmlns="http://www.w3.org/2000/svg" xmlns:xlink="http://www.w3.org/1999/xlink" width="24px" height="24px" viewBox="0 0 24 24" version="1.1">
<g id="surface1">
<path style=" stroke:none;fill-rule:nonzero;fill:rgb(38.039216%,38.039216%,38.039216%);fill-opacity:1;" d="M 5.457031 3.519531 C 5.386719 3.519531 5.328125 3.574219 5.316406 3.644531 L 5.308594 3.722656 L 5.394531 3.722656 C 5.429688 3.722656 5.457031 3.75 5.457031 3.785156 L 5.457031 3.90625 C 5.457031 3.941406 5.429688 3.96875 5.394531 3.96875 L 5.277344 3.96875 L 5.246094 4.21875 L 5.332031 4.21875 C 5.367188 4.21875 5.394531 4.246094 5.394531 4.28125 L 5.394531 4.402344 C 5.394531 4.4375 5.367188 4.464844 5.332031 4.464844 L 5.214844 4.464844 L 5.195312 4.636719 C 5.183594 4.71875 5.25 4.792969 5.332031 4.792969 L 6.078125 4.792969 C 6.160156 4.792969 6.226562 4.71875 6.214844 4.636719 L 6.195312 4.464844 L 6.078125 4.464844 C 6.042969 4.464844 6.015625 4.4375 6.015625 4.402344 L 6.015625 4.28125 C 6.015625 4.246094 6.042969 4.21875 6.078125 4.21875 L 6.164062 4.21875 L 6.132812 3.96875 L 6.015625 3.96875 C 5.980469 3.96875 5.953125 3.941406 5.953125 3.90625 L 5.953125 3.785156 C 5.953125 3.75 5.980469 3.722656 6.015625 3.722656 L 6.101562 3.722656 L 6.09375 3.644531 C 6.082031 3.574219 6.023438 3.519531 5.953125 3.519531 Z M 5.457031 3.519531 "/>
<path style=" stroke:none;fill-rule:nonzero;fill:rgb(45.882353%,45.882353%,45.882353%);fill-opacity:1;" d="M 1.984375 4.652344 L 21.828125 4.652344 C 22.375 4.652344 22.820312 5.054688 22.820312 5.550781 L 22.820312 18.636719 C 22.820312 19.132812 22.375 19.535156 21.828125 19.535156 L 1.984375 19.535156 C 1.4375 19.535156 0.992188 19.132812 0.992188 18.636719 L 0.992188 5.550781 C 0.992188 5.054688 1.4375 4.652344 1.984375 4.652344 Z M 1.984375 4.652344 "/>
<path style=" stroke:none;fill-rule:nonzero;fill:rgb(93.725491%,32.549021%,31.37255%);fill-opacity:1;" d="M 2.234375 9.613281 L 3.722656 9.613281 C 3.996094 9.613281 4.21875 9.390625 4.21875 9.117188 L 4.21875 7.628906 C 4.21875 7.355469 3.996094 7.132812 3.722656 7.132812 L 2.234375 7.132812 C 1.957031 7.132812 1.738281 7.355469 1.738281 7.628906 L 1.738281 9.117188 C 1.738281 9.390625 1.957031 9.613281 2.234375 9.613281 Z M 2.234375 9.613281 "/>
<path style=" stroke:none;fill-rule:nonzero;fill:rgb(93.333334%,93.333334%,93.333334%);fill-opacity:1;" d="M 5.210938 9.613281 L 6.699219 9.613281 C 6.972656 9.613281 7.195312 9.390625 7.195312 9.117188 L 7.195312 7.628906 C 7.195312 7.355469 6.972656 7.132812 6.699219 7.132812 L 5.210938 7.132812 C 4.933594 7.132812 4.714844 7.355469 4.714844 7.628906 L 4.714844 9.117188 C 4.714844 9.390625 4.933594 9.613281 5.210938 9.613281 Z M 5.210938 9.613281 "/>
<path style=" stroke:none;fill-rule:nonzero;fill:rgb(93.333334%,93.333334%,93.333334%);fill-opacity:1;" d="M 8.1875 9.613281 L 9.671875 9.613281 C 9.949219 9.613281 10.171875 9.390625 10.171875 9.117188 L 10.171875 7.628906 C 10.171875 7.355469 9.949219 7.132812 9.671875 7.132812 L 8.1875 7.132812 C 7.910156 7.132812 7.691406 7.355469 7.691406 7.628906 L 7.691406 9.117188 C 7.691406 9.390625 7.910156 9.613281 8.1875 9.613281 Z M 8.1875 9.613281 "/>
<path style=" stroke:none;fill-rule:nonzero;fill:rgb(93.333334%,93.333334%,93.333334%);fill-opacity:1;" d="M 11.164062 9.613281 L 12.648438 9.613281 C 12.925781 9.613281 13.148438 9.390625 13.148438 9.117188 L 13.148438 7.628906 C 13.148438 7.355469 12.925781 7.132812 12.648438 7.132812 L 11.164062 7.132812 C 10.886719 7.132812 10.667969 7.355469 10.667969 7.628906 L 10.667969 9.117188 C 10.667969 9.390625 10.886719 9.613281 11.164062 9.613281 Z M 11.164062 9.613281 "/>
<path style=" stroke:none;fill-rule:nonzero;fill:rgb(93.333334%,93.333334%,93.333334%);fill-opacity:1;" d="M 14.140625 9.613281 L 15.628906 9.613281 C 15.902344 9.613281 16.125 9.390625 16.125 9.117188 L 16.125 7.628906 C 16.125 7.355469 15.902344 7.132812 15.628906 7.132812 L 14.140625 7.132812 C 13.863281 7.132812 13.644531 7.355469 13.644531 7.628906 L 13.644531 9.117188 C 13.644531 9.390625 13.863281 9.613281 14.140625 9.613281 Z M 14.140625 9.613281 "/>
<path style=" stroke:none;fill-rule:nonzero;fill:rgb(93.333334%,93.333334%,93.333334%);fill-opacity:1;" d="M 17.113281 9.613281 L 18.601562 9.613281 C 18.878906 9.613281 19.097656 9.390625 19.097656 9.117188 L 19.097656 7.628906 C 19.097656 7.355469 18.878906 7.132812 18.601562 7.132812 L 17.113281 7.132812 C 16.839844 7.132812 16.617188 7.355469 16.617188 7.628906 L 16.617188 9.117188 C 16.617188 9.390625 16.839844 9.613281 17.113281 9.613281 Z M 17.113281 9.613281 "/>
<path style=" stroke:none;fill-rule:nonzero;fill:rgb(87.843138%,87.843138%,87.843138%);fill-opacity:1;" d="M 2.234375 12.589844 L 4.710938 12.589844 C 4.988281 12.589844 5.207031 12.367188 5.207031 12.09375 L 5.207031 10.605469 C 5.207031 10.332031 4.988281 10.109375 4.710938 10.109375 L 2.234375 10.109375 C 1.957031 10.109375 1.738281 10.332031 1.738281 10.605469 L 1.738281 12.09375 C 1.738281 12.367188 1.957031 12.589844 2.234375 12.589844 Z M 2.234375 12.589844 "/>
<path style=" stroke:none;fill-rule:nonzero;fill:rgb(93.333334%,93.333334%,93.333334%);fill-opacity:1;" d="M 6.203125 12.589844 L 7.691406 12.589844 C 7.964844 12.589844 8.1875 12.367188 8.1875 12.09375 L 8.1875 10.605469 C 8.1875 10.332031 7.964844 10.109375 7.691406 10.109375 L 6.203125 10.109375 C 5.925781 10.109375 5.707031 10.332031 5.707031 10.605469 L 5.707031 12.09375 C 5.707031 12.367188 5.925781 12.589844 6.203125 12.589844 Z M 6.203125 12.589844 "/>
<path style=" stroke:none;fill-rule:nonzero;fill:rgb(93.333334%,93.333334%,93.333334%);fill-opacity:1;" d="M 12.15625 12.589844 L 13.644531 12.589844 C 13.917969 12.589844 14.140625 12.367188 14.140625 12.09375 L 14.140625 10.605469 C 14.140625 10.332031 13.917969 10.109375 13.644531 10.109375 L 12.15625 10.109375 C 11.878906 10.109375 11.660156 10.332031 11.660156 10.605469 L 11.660156 12.09375 C 11.660156 12.367188 11.878906 12.589844 12.15625 12.589844 Z M 12.15625 12.589844 "/>
<path style=" stroke:none;fill-rule:nonzero;fill:rgb(93.333334%,93.333334%,93.333334%);fill-opacity:1;" d="M 15.132812 12.589844 L 16.621094 12.589844 C 16.894531 12.589844 17.117188 12.367188 17.117188 12.09375 L 17.117188 10.605469 C 17.117188 10.332031 16.894531 10.109375 16.621094 10.109375 L 15.132812 10.109375 C 14.855469 10.109375 14.636719 10.332031 14.636719 10.605469 L 14.636719 12.09375 C 14.636719 12.367188 14.855469 12.589844 15.132812 12.589844 Z M 15.132812 12.589844 "/>
<path style=" stroke:none;fill-rule:nonzero;fill:rgb(87.843138%,87.843138%,87.843138%);fill-opacity:1;" d="M 2.234375 15.566406 L 5.207031 15.566406 C 5.484375 15.566406 5.703125 15.34375 5.703125 15.070312 L 5.703125 13.582031 C 5.703125 13.308594 5.484375 13.085938 5.207031 13.085938 L 2.234375 13.085938 C 1.957031 13.085938 1.738281 13.308594 1.738281 13.582031 L 1.738281 15.070312 C 1.738281 15.34375 1.957031 15.566406 2.234375 15.566406 Z M 2.234375 15.566406 "/>
<path style=" stroke:none;fill-rule:nonzero;fill:rgb(93.333334%,93.333334%,93.333334%);fill-opacity:1;" d="M 6.699219 15.566406 L 8.1875 15.566406 C 8.460938 15.566406 8.683594 15.34375 8.683594 15.070312 L 8.683594 13.582031 C 8.683594 13.308594 8.460938 13.085938 8.1875 13.085938 L 6.699219 13.085938 C 6.421875 13.085938 6.203125 13.308594 6.203125 13.582031 L 6.203125 15.070312 C 6.203125 15.34375 6.421875 15.566406 6.699219 15.566406 Z M 6.699219 15.566406 "/>
<path style=" stroke:none;fill-rule:nonzero;fill:rgb(93.333334%,93.333334%,93.333334%);fill-opacity:1;" d="M 9.675781 15.566406 L 11.164062 15.566406 C 11.4375 15.566406 11.660156 15.34375 11.660156 15.070312 L 11.660156 13.582031 C 11.660156 13.308594 11.4375 13.085938 11.164062 13.085938 L 9.675781 13.085938 C 9.398438 13.085938 9.179688 13.308594 9.179688 13.582031 L 9.179688 15.070312 C 9.179688 15.34375 9.398438 15.566406 9.675781 15.566406 Z M 9.675781 15.566406 "/>
<path style=" stroke:none;fill-rule:nonzero;fill:rgb(93.333334%,93.333334%,93.333334%);fill-opacity:1;" d="M 15.628906 15.566406 L 17.117188 15.566406 C 17.390625 15.566406 17.613281 15.34375 17.613281 15.070312 L 17.613281 13.582031 C 17.613281 13.308594 17.390625 13.085938 17.117188 13.085938 L 15.628906 13.085938 C 15.351562 13.085938 15.132812 13.308594 15.132812 13.582031 L 15.132812 15.070312 C 15.132812 15.34375 15.351562 15.566406 15.628906 15.566406 Z M 15.628906 15.566406 "/>
<path style=" stroke:none;fill-rule:nonzero;fill:rgb(87.843138%,87.843138%,87.843138%);fill-opacity:1;" d="M 18.601562 15.566406 L 21.582031 15.566406 C 21.855469 15.566406 22.078125 15.34375 22.078125 15.070312 L 22.078125 13.582031 C 22.078125 13.308594 21.855469 13.085938 21.582031 13.085938 L 18.601562 13.085938 C 18.328125 13.085938 18.105469 13.308594 18.105469 13.582031 L 18.105469 15.070312 C 18.105469 15.34375 18.328125 15.566406 18.601562 15.566406 Z M 18.601562 15.566406 "/>
<path style=" stroke:none;fill-rule:nonzero;fill:rgb(87.843138%,87.843138%,87.843138%);fill-opacity:1;" d="M 5.707031 18.542969 L 7.691406 18.542969 C 7.964844 18.542969 8.1875 18.320312 8.1875 18.046875 L 8.1875 16.558594 C 8.1875 16.285156 7.964844 16.0625 7.691406 16.0625 L 5.707031 16.0625 C 5.429688 16.0625 5.210938 16.285156 5.210938 16.558594 L 5.210938 18.046875 C 5.210938 18.320312 5.429688 18.542969 5.707031 18.542969 Z M 5.707031 18.542969 "/>
<path style=" stroke:none;fill-rule:nonzero;fill:rgb(93.333334%,93.333334%,93.333334%);fill-opacity:1;" d="M 9.175781 18.542969 L 14.636719 18.542969 C 14.910156 18.542969 15.132812 18.320312 15.132812 18.046875 L 15.132812 16.558594 C 15.132812 16.285156 14.910156 16.0625 14.636719 16.0625 L 9.175781 16.0625 C 8.902344 16.0625 8.679688 16.285156 8.679688 16.558594 L 8.679688 18.046875 C 8.679688 18.320312 8.902344 18.542969 9.175781 18.542969 Z M 9.175781 18.542969 "/>
<path style=" stroke:none;fill-rule:nonzero;fill:rgb(87.843138%,87.843138%,87.843138%);fill-opacity:1;" d="M 16.125 18.542969 L 18.105469 18.542969 C 18.382812 18.542969 18.601562 18.320312 18.601562 18.046875 L 18.601562 16.558594 C 18.601562 16.285156 18.382812 16.0625 18.105469 16.0625 L 16.125 16.0625 C 15.847656 16.0625 15.625 16.285156 15.625 16.558594 L 15.625 18.046875 C 15.625 18.320312 15.847656 18.542969 16.125 18.542969 Z M 16.125 18.542969 "/>
<path style=" stroke:none;fill-rule:nonzero;fill:rgb(87.843138%,87.843138%,87.843138%);fill-opacity:1;" d="M 19.597656 18.542969 L 21.578125 18.542969 C 21.855469 18.542969 22.074219 18.320312 22.074219 18.046875 L 22.074219 16.558594 C 22.074219 16.285156 21.855469 16.0625 21.578125 16.0625 L 19.597656 16.0625 C 19.320312 16.0625 19.101562 16.285156 19.101562 16.558594 L 19.101562 18.046875 C 19.101562 18.320312 19.320312 18.542969 19.597656 18.542969 Z M 19.597656 18.542969 "/>
<path style=" stroke:none;fill-rule:nonzero;fill:rgb(87.843138%,87.843138%,87.843138%);fill-opacity:1;" d="M 18.109375 12.589844 L 21.582031 12.589844 C 21.855469 12.589844 22.078125 12.367188 22.078125 12.09375 L 22.078125 10.605469 C 22.078125 10.332031 21.855469 10.109375 21.582031 10.109375 L 18.109375 10.109375 C 17.832031 10.109375 17.613281 10.332031 17.613281 10.605469 L 17.613281 12.09375 C 17.613281 12.367188 17.832031 12.589844 18.109375 12.589844 Z M 18.109375 12.589844 "/>
<path style=" stroke:none;fill-rule:nonzero;fill:rgb(87.843138%,87.843138%,87.843138%);fill-opacity:1;" d="M 20.09375 9.613281 L 21.582031 9.613281 C 21.855469 9.613281 22.078125 9.390625 22.078125 9.117188 L 22.078125 7.628906 C 22.078125 7.355469 21.855469 7.132812 21.582031 7.132812 L 20.09375 7.132812 C 19.816406 7.132812 19.597656 7.355469 19.597656 7.628906 L 19.597656 9.117188 C 19.597656 9.390625 19.816406 9.613281 20.09375 9.613281 Z M 20.09375 9.613281 "/>
<path style=" stroke:none;fill-rule:nonzero;fill:rgb(93.333334%,93.333334%,93.333334%);fill-opacity:1;" d="M 16.867188 5.398438 C 17.140625 5.398438 17.363281 5.617188 17.363281 5.890625 C 17.363281 6.167969 17.140625 6.386719 16.867188 6.386719 C 16.59375 6.386719 16.371094 6.167969 16.371094 5.890625 C 16.371094 5.617188 16.59375 5.398438 16.867188 5.398438 Z M 16.867188 5.398438 "/>
<path style=" stroke:none;fill-rule:nonzero;fill:rgb(93.333334%,93.333334%,93.333334%);fill-opacity:1;" d="M 18.851562 5.398438 C 19.125 5.398438 19.347656 5.617188 19.347656 5.890625 C 19.347656 6.167969 19.125 6.386719 18.851562 6.386719 C 18.578125 6.386719 18.355469 6.167969 18.355469 5.890625 C 18.355469 5.617188 18.578125 5.398438 18.851562 5.398438 Z M 18.851562 5.398438 "/>
<path style=" stroke:none;fill-rule:nonzero;fill:rgb(93.333334%,93.333334%,93.333334%);fill-opacity:1;" d="M 20.835938 5.398438 C 21.109375 5.398438 21.332031 5.617188 21.332031 5.890625 C 21.332031 6.167969 21.109375 6.386719 20.835938 6.386719 C 20.5625 6.386719 20.339844 6.167969 20.339844 5.890625 C 20.339844 5.617188 20.5625 5.398438 20.835938 5.398438 Z M 20.835938 5.398438 "/>
<path style="fill:none;stroke-width:10.583;stroke-linecap:butt;stroke-linejoin:miter;stroke:rgb(38.039216%,38.039216%,38.039216%);stroke-opacity:1;stroke-miterlimit:4;" d="M 121.666667 -131.666667 C 121.666667 -221.583333 381 -99.833333 381 -189.833333 " transform="matrix(0.046875,0,0,0.046875,0,10.078125)"/>
<path style=" stroke:none;fill-rule:nonzero;fill:rgb(93.333334%,93.333334%,93.333334%);fill-opacity:1;" d="M 12.652344 15.566406 L 14.140625 15.566406 C 14.414062 15.566406 14.636719 15.34375 14.636719 15.070312 L 14.636719 13.582031 C 14.636719 13.308594 14.414062 13.085938 14.140625 13.085938 L 12.652344 13.085938 C 12.375 13.085938 12.15625 13.308594 12.15625 13.582031 L 12.15625 15.070312 C 12.15625 15.34375 12.375 15.566406 12.652344 15.566406 Z M 12.652344 15.566406 "/>
<path style=" stroke:none;fill-rule:nonzero;fill:rgb(93.333334%,93.333334%,93.333334%);fill-opacity:1;" d="M 9.179688 12.589844 L 10.667969 12.589844 C 10.941406 12.589844 11.164062 12.367188 11.164062 12.09375 L 11.164062 10.605469 C 11.164062 10.332031 10.941406 10.109375 10.667969 10.109375 L 9.179688 10.109375 C 8.902344 10.109375 8.683594 10.332031 8.683594 10.605469 L 8.683594 12.09375 C 8.683594 12.367188 8.902344 12.589844 9.179688 12.589844 Z M 9.179688 12.589844 "/>
<path style=" stroke:none;fill-rule:nonzero;fill:rgb(87.843138%,87.843138%,87.843138%);fill-opacity:1;" d="M 2.234375 18.542969 L 4.214844 18.542969 C 4.492188 18.542969 4.710938 18.320312 4.710938 18.046875 L 4.710938 16.558594 C 4.710938 16.285156 4.492188 16.0625 4.214844 16.0625 L 2.234375 16.0625 C 1.957031 16.0625 1.738281 16.285156 1.738281 16.558594 L 1.738281 18.046875 C 1.738281 18.320312 1.957031 18.542969 2.234375 18.542969 Z M 2.234375 18.542969 "/>
<path style=" stroke:none;fill-rule:nonzero;fill:rgb(36.078432%,41.960785%,75.294119%);fill-opacity:1;" d="M 14.386719 12.898438 L 22.324219 12.898438 C 22.597656 12.898438 22.820312 13.121094 22.820312 13.394531 L 22.820312 22.324219 C 22.820312 22.597656 22.597656 22.820312 22.324219 22.820312 L 14.386719 22.820312 C 14.113281 22.820312 13.890625 22.597656 13.890625 22.324219 L 13.890625 13.394531 C 13.890625 13.121094 14.113281 12.898438 14.386719 12.898438 Z M 14.386719 12.898438 "/>
<path style=" stroke:none;fill-rule:nonzero;fill:rgb(93.333334%,93.333334%,93.333334%);fill-opacity:1;" d="M 21.386719 16.253906 C 20.800781 16.335938 19.605469 16.417969 17.804688 16.496094 C 17.640625 17.144531 17.429688 17.761719 17.167969 18.347656 L 17.226562 18.378906 C 17.976562 17.875 18.613281 17.621094 19.140625 17.621094 C 19.808594 17.621094 20.324219 17.78125 20.6875 18.105469 C 21.050781 18.429688 21.234375 18.84375 21.234375 19.351562 C 21.234375 19.9375 21 20.382812 20.535156 20.6875 C 20.089844 20.96875 19.421875 21.113281 18.53125 21.113281 C 17.925781 21.113281 17.277344 21.082031 16.589844 21.019531 L 16.558594 20.203125 C 17.144531 20.34375 17.785156 20.414062 18.472656 20.414062 C 19.121094 20.414062 19.605469 20.332031 19.929688 20.171875 C 20.273438 19.988281 20.445312 19.714844 20.445312 19.351562 C 20.445312 19.027344 20.332031 18.773438 20.109375 18.59375 C 19.886719 18.390625 19.566406 18.289062 19.140625 18.289062 C 18.308594 18.289062 17.53125 18.644531 16.800781 19.351562 L 16.253906 18.925781 C 16.578125 18.398438 16.863281 17.601562 17.105469 16.527344 L 15.375 16.527344 L 15.375 15.859375 C 15.980469 15.859375 16.609375 15.851562 17.257812 15.828125 L 17.46875 14.554688 L 18.167969 14.644531 C 18.128906 14.949219 18.058594 15.332031 17.957031 15.800781 C 19.453125 15.738281 20.585938 15.65625 21.355469 15.554688 Z M 21.386719 16.253906 "/>
</g>
</svg>
