<?xml version="1.0" encoding="UTF-8"?>
<svg xmlns="http://www.w3.org/2000/svg" xmlns:xlink="http://www.w3.org/1999/xlink" width="24px" height="24px" viewBox="0 0 24 24" version="1.1">
<g id="surface1">
<path style=" stroke:none;fill-rule:nonzero;fill:rgb(74.117649%,74.117649%,74.117649%);fill-opacity:1;" d="M 3.96875 1.179688 C 3.695312 1.179688 3.472656 1.402344 3.472656 1.675781 L 3.472656 3.660156 L 1.488281 3.660156 C 1.214844 3.660156 0.992188 3.882812 0.992188 4.15625 C 0.992188 4.429688 1.214844 4.652344 1.488281 4.652344 L 3.472656 4.652344 L 3.472656 5.644531 L 1.488281 5.644531 C 1.214844 5.644531 0.992188 5.867188 0.992188 6.140625 C 0.992188 6.414062 1.214844 6.636719 1.488281 6.636719 L 3.472656 6.636719 L 3.472656 7.628906 L 1.488281 7.628906 C 1.214844 7.628906 0.992188 7.851562 0.992188 8.125 C 0.992188 8.398438 1.214844 8.621094 1.488281 8.621094 L 3.472656 8.621094 L 3.472656 9.613281 L 1.488281 9.613281 C 1.214844 9.613281 0.992188 9.835938 0.992188 10.109375 C 0.992188 10.382812 1.214844 10.605469 1.488281 10.605469 L 3.472656 10.605469 L 3.472656 11.597656 L 1.488281 11.597656 C 1.214844 11.597656 0.992188 11.820312 0.992188 12.09375 C 0.992188 12.367188 1.214844 12.589844 1.488281 12.589844 L 3.472656 12.589844 L 3.472656 13.582031 L 1.488281 13.582031 C 1.214844 13.582031 0.992188 13.804688 0.992188 14.078125 C 0.992188 14.351562 1.214844 14.574219 1.488281 14.574219 L 3.472656 14.574219 L 3.472656 15.566406 L 1.488281 15.566406 C 1.214844 15.566406 0.992188 15.789062 0.992188 16.0625 C 0.992188 16.335938 1.214844 16.558594 1.488281 16.558594 L 3.472656 16.558594 L 3.472656 17.550781 L 1.488281 17.550781 C 1.214844 17.550781 0.992188 17.773438 0.992188 18.046875 C 0.992188 18.320312 1.214844 18.542969 1.488281 18.542969 L 3.472656 18.542969 L 3.472656 19.535156 L 1.488281 19.535156 C 1.214844 19.535156 0.992188 19.757812 0.992188 20.03125 C 0.992188 20.304688 1.214844 20.527344 1.488281 20.527344 L 3.472656 20.527344 L 3.472656 22.511719 C 3.472656 22.785156 3.695312 23.007812 3.96875 23.007812 C 4.242188 23.007812 4.464844 22.785156 4.464844 22.511719 L 4.464844 20.527344 L 5.457031 20.527344 L 5.457031 22.511719 C 5.457031 22.785156 5.679688 23.007812 5.953125 23.007812 C 6.226562 23.007812 6.449219 22.785156 6.449219 22.511719 L 6.449219 20.527344 L 7.441406 20.527344 L 7.441406 22.511719 C 7.441406 22.785156 7.664062 23.007812 7.9375 23.007812 C 8.210938 23.007812 8.433594 22.785156 8.433594 22.511719 L 8.433594 20.527344 L 9.425781 20.527344 L 9.425781 22.511719 C 9.425781 22.785156 9.648438 23.007812 9.921875 23.007812 C 10.195312 23.007812 10.417969 22.785156 10.417969 22.511719 L 10.417969 20.527344 L 11.410156 20.527344 L 11.410156 22.511719 C 11.410156 22.785156 11.632812 23.007812 11.90625 23.007812 C 12.179688 23.007812 12.402344 22.785156 12.402344 22.511719 L 12.402344 20.527344 L 13.394531 20.527344 L 13.394531 22.511719 C 13.394531 22.785156 13.617188 23.007812 13.890625 23.007812 C 14.164062 23.007812 14.386719 22.785156 14.386719 22.511719 L 14.386719 20.527344 L 15.378906 20.527344 L 15.378906 22.511719 C 15.378906 22.785156 15.601562 23.007812 15.875 23.007812 C 16.148438 23.007812 16.371094 22.785156 16.371094 22.511719 L 16.371094 20.527344 L 17.363281 20.527344 L 17.363281 22.511719 C 17.363281 22.785156 17.585938 23.007812 17.859375 23.007812 C 18.132812 23.007812 18.355469 22.785156 18.355469 22.511719 L 18.355469 20.527344 L 19.347656 20.527344 L 19.347656 22.511719 C 19.347656 22.785156 19.570312 23.007812 19.84375 23.007812 C 20.117188 23.007812 20.339844 22.785156 20.339844 22.511719 L 20.339844 20.527344 L 22.324219 20.527344 C 22.597656 20.527344 22.820312 20.304688 22.820312 20.03125 C 22.820312 19.757812 22.597656 19.535156 22.324219 19.535156 L 20.339844 19.535156 L 20.339844 18.542969 L 22.324219 18.542969 C 22.597656 18.542969 22.820312 18.320312 22.820312 18.046875 C 22.820312 17.773438 22.597656 17.550781 22.324219 17.550781 L 20.339844 17.550781 L 20.339844 16.558594 L 22.324219 16.558594 C 22.597656 16.558594 22.820312 16.335938 22.820312 16.0625 C 22.820312 15.789062 22.597656 15.566406 22.324219 15.566406 L 20.339844 15.566406 L 20.339844 14.574219 L 22.324219 14.574219 C 22.597656 14.574219 22.820312 14.351562 22.820312 14.078125 C 22.820312 13.804688 22.597656 13.582031 22.324219 13.582031 L 20.339844 13.582031 L 20.339844 12.589844 L 22.324219 12.589844 C 22.597656 12.589844 22.820312 12.367188 22.820312 12.09375 C 22.820312 11.820312 22.597656 11.597656 22.324219 11.597656 L 20.339844 11.597656 L 20.339844 10.605469 L 22.324219 10.605469 C 22.597656 10.605469 22.820312 10.382812 22.820312 10.109375 C 22.820312 9.835938 22.597656 9.613281 22.324219 9.613281 L 20.339844 9.613281 L 20.339844 8.621094 L 22.324219 8.621094 C 22.597656 8.621094 22.820312 8.398438 22.820312 8.125 C 22.820312 7.851562 22.597656 7.628906 22.324219 7.628906 L 20.339844 7.628906 L 20.339844 6.636719 L 22.324219 6.636719 C 22.597656 6.636719 22.820312 6.414062 22.820312 6.140625 C 22.820312 5.867188 22.597656 5.644531 22.324219 5.644531 L 20.339844 5.644531 L 20.339844 4.652344 L 22.324219 4.652344 C 22.597656 4.652344 22.820312 4.429688 22.820312 4.15625 C 22.820312 3.882812 22.597656 3.660156 22.324219 3.660156 L 20.339844 3.660156 L 20.339844 1.675781 C 20.339844 1.402344 20.117188 1.179688 19.84375 1.179688 C 19.570312 1.179688 19.347656 1.402344 19.347656 1.675781 L 19.347656 3.660156 L 18.355469 3.660156 L 18.355469 1.675781 C 18.355469 1.402344 18.132812 1.179688 17.859375 1.179688 C 17.585938 1.179688 17.363281 1.402344 17.363281 1.675781 L 17.363281 3.660156 L 16.371094 3.660156 L 16.371094 1.675781 C 16.371094 1.402344 16.148438 1.179688 15.875 1.179688 C 15.601562 1.179688 15.378906 1.402344 15.378906 1.675781 L 15.378906 3.660156 L 14.386719 3.660156 L 14.386719 1.675781 C 14.386719 1.402344 14.164062 1.179688 13.890625 1.179688 C 13.617188 1.179688 13.394531 1.402344 13.394531 1.675781 L 13.394531 3.660156 L 12.402344 3.660156 L 12.402344 1.675781 C 12.402344 1.402344 12.179688 1.179688 11.90625 1.179688 C 11.632812 1.179688 11.410156 1.402344 11.410156 1.675781 L 11.410156 3.660156 L 10.417969 3.660156 L 10.417969 1.675781 C 10.417969 1.402344 10.195312 1.179688 9.921875 1.179688 C 9.648438 1.179688 9.425781 1.402344 9.425781 1.675781 L 9.425781 3.660156 L 8.433594 3.660156 L 8.433594 1.675781 C 8.433594 1.402344 8.210938 1.179688 7.9375 1.179688 C 7.664062 1.179688 7.441406 1.402344 7.441406 1.675781 L 7.441406 3.660156 L 6.449219 3.660156 L 6.449219 1.675781 C 6.449219 1.402344 6.226562 1.179688 5.953125 1.179688 C 5.679688 1.179688 5.457031 1.402344 5.457031 1.675781 L 5.457031 3.660156 L 4.464844 3.660156 L 4.464844 1.675781 C 4.464844 1.402344 4.242188 1.179688 3.96875 1.179688 Z M 4.464844 4.652344 L 5.457031 4.652344 L 5.457031 5.644531 L 4.464844 5.644531 Z M 6.449219 4.652344 L 7.441406 4.652344 L 7.441406 5.644531 L 6.449219 5.644531 Z M 8.433594 4.652344 L 9.425781 4.652344 L 9.425781 5.644531 L 8.433594 5.644531 Z M 10.417969 4.652344 L 11.410156 4.652344 L 11.410156 5.644531 L 10.417969 5.644531 Z M 12.402344 4.652344 L 13.394531 4.652344 L 13.394531 5.644531 L 12.402344 5.644531 Z M 14.386719 4.652344 L 15.378906 4.652344 L 15.378906 5.644531 L 14.386719 5.644531 Z M 16.371094 4.652344 L 17.363281 4.652344 L 17.363281 5.644531 L 16.371094 5.644531 Z M 18.355469 4.652344 L 19.347656 4.652344 L 19.347656 5.644531 L 18.355469 5.644531 Z M 4.464844 6.636719 L 5.457031 6.636719 L 5.457031 7.628906 L 4.464844 7.628906 Z M 6.449219 6.636719 L 7.441406 6.636719 L 7.441406 7.628906 L 6.449219 7.628906 Z M 8.433594 6.636719 L 9.425781 6.636719 L 9.425781 7.628906 L 8.433594 7.628906 Z M 10.417969 6.636719 L 11.410156 6.636719 L 11.410156 7.628906 L 10.417969 7.628906 Z M 12.402344 6.636719 L 13.394531 6.636719 L 13.394531 7.628906 L 12.402344 7.628906 Z M 14.386719 6.636719 L 15.378906 6.636719 L 15.378906 7.628906 L 14.386719 7.628906 Z M 16.371094 6.636719 L 17.363281 6.636719 L 17.363281 7.628906 L 16.371094 7.628906 Z M 18.355469 6.636719 L 19.347656 6.636719 L 19.347656 7.628906 L 18.355469 7.628906 Z M 4.464844 8.621094 L 5.457031 8.621094 L 5.457031 9.613281 L 4.464844 9.613281 Z M 6.449219 8.621094 L 7.441406 8.621094 L 7.441406 9.613281 L 6.449219 9.613281 Z M 8.433594 8.621094 L 9.425781 8.621094 L 9.425781 9.613281 L 8.433594 9.613281 Z M 10.417969 8.621094 L 11.410156 8.621094 L 11.410156 9.613281 L 10.417969 9.613281 Z M 12.402344 8.621094 L 13.394531 8.621094 L 13.394531 9.613281 L 12.402344 9.613281 Z M 14.386719 8.621094 L 15.378906 8.621094 L 15.378906 9.613281 L 14.386719 9.613281 Z M 16.371094 8.621094 L 17.363281 8.621094 L 17.363281 9.613281 L 16.371094 9.613281 Z M 18.355469 8.621094 L 19.347656 8.621094 L 19.347656 9.613281 L 18.355469 9.613281 Z M 4.464844 10.605469 L 5.457031 10.605469 L 5.457031 11.597656 L 4.464844 11.597656 Z M 6.449219 10.605469 L 7.441406 10.605469 L 7.441406 11.597656 L 6.449219 11.597656 Z M 8.433594 10.605469 L 9.425781 10.605469 L 9.425781 11.597656 L 8.433594 11.597656 Z M 10.417969 10.605469 L 11.410156 10.605469 L 11.410156 11.597656 L 10.417969 11.597656 Z M 12.402344 10.605469 L 13.394531 10.605469 L 13.394531 11.597656 L 12.402344 11.597656 Z M 14.386719 10.605469 L 15.378906 10.605469 L 15.378906 11.597656 L 14.386719 11.597656 Z M 16.371094 10.605469 L 17.363281 10.605469 L 17.363281 11.597656 L 16.371094 11.597656 Z M 18.355469 10.605469 L 19.347656 10.605469 L 19.347656 11.597656 L 18.355469 11.597656 Z M 4.464844 12.589844 L 5.457031 12.589844 L 5.457031 13.582031 L 4.464844 13.582031 Z M 6.449219 12.589844 L 7.441406 12.589844 L 7.441406 13.582031 L 6.449219 13.582031 Z M 8.433594 12.589844 L 9.425781 12.589844 L 9.425781 13.582031 L 8.433594 13.582031 Z M 10.417969 12.589844 L 11.410156 12.589844 L 11.410156 13.582031 L 10.417969 13.582031 Z M 12.402344 12.589844 L 13.394531 12.589844 L 13.394531 13.582031 L 12.402344 13.582031 Z M 14.386719 12.589844 L 15.378906 12.589844 L 15.378906 13.582031 L 14.386719 13.582031 Z M 16.371094 12.589844 L 17.363281 12.589844 L 17.363281 13.582031 L 16.371094 13.582031 Z M 18.355469 12.589844 L 19.347656 12.589844 L 19.347656 13.582031 L 18.355469 13.582031 Z M 4.464844 14.574219 L 5.457031 14.574219 L 5.457031 15.566406 L 4.464844 15.566406 Z M 6.449219 14.574219 L 7.441406 14.574219 L 7.441406 15.566406 L 6.449219 15.566406 Z M 8.433594 14.574219 L 9.425781 14.574219 L 9.425781 15.566406 L 8.433594 15.566406 Z M 10.417969 14.574219 L 11.410156 14.574219 L 11.410156 15.566406 L 10.417969 15.566406 Z M 12.402344 14.574219 L 13.394531 14.574219 L 13.394531 15.566406 L 12.402344 15.566406 Z M 14.386719 14.574219 L 15.378906 14.574219 L 15.378906 15.566406 L 14.386719 15.566406 Z M 16.371094 14.574219 L 17.363281 14.574219 L 17.363281 15.566406 L 16.371094 15.566406 Z M 18.355469 14.574219 L 19.347656 14.574219 L 19.347656 15.566406 L 18.355469 15.566406 Z M 4.464844 16.558594 L 5.457031 16.558594 L 5.457031 17.550781 L 4.464844 17.550781 Z M 6.449219 16.558594 L 7.441406 16.558594 L 7.441406 17.550781 L 6.449219 17.550781 Z M 8.433594 16.558594 L 9.425781 16.558594 L 9.425781 17.550781 L 8.433594 17.550781 Z M 10.417969 16.558594 L 11.410156 16.558594 L 11.410156 17.550781 L 10.417969 17.550781 Z M 12.402344 16.558594 L 13.394531 16.558594 L 13.394531 17.550781 L 12.402344 17.550781 Z M 14.386719 16.558594 L 15.378906 16.558594 L 15.378906 17.550781 L 14.386719 17.550781 Z M 16.371094 16.558594 L 17.363281 16.558594 L 17.363281 17.550781 L 16.371094 17.550781 Z M 18.355469 16.558594 L 19.347656 16.558594 L 19.347656 17.550781 L 18.355469 17.550781 Z M 4.464844 18.542969 L 5.457031 18.542969 L 5.457031 19.535156 L 4.464844 19.535156 Z M 6.449219 18.542969 L 7.441406 18.542969 L 7.441406 19.535156 L 6.449219 19.535156 Z M 8.433594 18.542969 L 9.425781 18.542969 L 9.425781 19.535156 L 8.433594 19.535156 Z M 10.417969 18.542969 L 11.410156 18.542969 L 11.410156 19.535156 L 10.417969 19.535156 Z M 12.402344 18.542969 L 13.394531 18.542969 L 13.394531 19.535156 L 12.402344 19.535156 Z M 14.386719 18.542969 L 15.378906 18.542969 L 15.378906 19.535156 L 14.386719 19.535156 Z M 16.371094 18.542969 L 17.363281 18.542969 L 17.363281 19.535156 L 16.371094 19.535156 Z M 18.355469 18.542969 L 19.347656 18.542969 L 19.347656 19.535156 L 18.355469 19.535156 Z M 18.355469 18.542969 "/>
<path style=" stroke:none;fill-rule:nonzero;fill:rgb(25.882354%,25.882354%,25.882354%);fill-opacity:1;" d="M 2.976562 2.171875 L 20.835938 2.171875 C 21.382812 2.171875 21.828125 2.617188 21.828125 3.164062 L 21.828125 21.023438 C 21.828125 21.570312 21.382812 22.015625 20.835938 22.015625 L 2.976562 22.015625 C 2.429688 22.015625 1.984375 21.570312 1.984375 21.023438 L 1.984375 3.164062 C 1.984375 2.617188 2.429688 2.171875 2.976562 2.171875 Z M 2.976562 2.171875 "/>
<path style=" stroke:none;fill-rule:nonzero;fill:rgb(69.01961%,74.509805%,77.254903%);fill-opacity:1;" d="M 11.90625 9.613281 C 14.921875 9.613281 17.363281 12.054688 17.363281 15.070312 C 17.363281 18.085938 14.921875 20.527344 11.90625 20.527344 C 8.890625 20.527344 6.449219 18.085938 6.449219 15.070312 C 6.449219 12.054688 8.890625 9.613281 11.90625 9.613281 Z M 11.90625 9.613281 "/>
<path style=" stroke:none;fill-rule:nonzero;fill:rgb(69.01961%,74.509805%,77.254903%);fill-opacity:1;" d="M 9.425781 4.15625 L 14.386719 4.15625 L 14.386719 13.582031 L 9.425781 13.582031 Z M 9.425781 4.15625 "/>
<path style=" stroke:none;fill-rule:nonzero;fill:rgb(100%,65.490198%,14.901961%);fill-opacity:1;" d="M 10.417969 7.132812 L 13.394531 7.132812 L 13.394531 11.597656 L 10.417969 11.597656 Z M 10.417969 7.132812 "/>
<path style=" stroke:none;fill-rule:nonzero;fill:rgb(93.725491%,32.549021%,31.37255%);fill-opacity:1;" d="M 11.90625 10.605469 C 14.371094 10.605469 16.371094 12.605469 16.371094 15.070312 C 16.371094 17.535156 14.371094 19.535156 11.90625 19.535156 C 9.441406 19.535156 7.441406 17.535156 7.441406 15.070312 C 7.441406 12.605469 9.441406 10.605469 11.90625 10.605469 Z M 11.90625 10.605469 "/>
<path style=" stroke:none;fill-rule:nonzero;fill:rgb(81.176472%,84.705883%,86.274511%);fill-opacity:1;" d="M 9.425781 3.164062 L 14.386719 3.164062 C 14.660156 3.164062 14.882812 3.386719 14.882812 3.660156 C 14.882812 3.933594 14.660156 4.15625 14.386719 4.15625 L 9.425781 4.15625 C 9.152344 4.15625 8.929688 3.933594 8.929688 3.660156 C 8.929688 3.386719 9.152344 3.164062 9.425781 3.164062 Z M 9.425781 3.164062 "/>
<path style=" stroke:none;fill-rule:nonzero;fill:rgb(40.000001%,73.333335%,41.568628%);fill-opacity:1;" d="M 10.417969 4.15625 L 13.394531 4.15625 L 13.394531 7.132812 L 10.417969 7.132812 Z M 10.417969 4.15625 "/>
<path style=" stroke:none;fill-rule:nonzero;fill:rgb(93.725491%,32.549021%,31.37255%);fill-opacity:1;" d="M 10.417969 10.109375 L 13.394531 10.109375 L 13.394531 12.589844 L 10.417969 12.589844 Z M 10.417969 10.109375 "/>
</g>
</svg>
