<?xml version="1.0" encoding="UTF-8"?>
<svg xmlns="http://www.w3.org/2000/svg" xmlns:xlink="http://www.w3.org/1999/xlink" width="24px" height="24px" viewBox="0 0 24 24" version="1.1">
<g id="surface1">
<path style=" stroke:none;fill-rule:nonzero;fill:rgb(14.901961%,65.098041%,60.392159%);fill-opacity:1;" d="M 1.984375 1.179688 C 1.433594 1.179688 0.992188 1.621094 0.992188 2.171875 L 0.992188 12.09375 L 11.90625 12.09375 L 11.90625 1.179688 Z M 1.984375 1.179688 "/>
<path style=" stroke:none;fill-rule:nonzero;fill:rgb(92.54902%,25.098041%,47.843137%);fill-opacity:1;" d="M 21.828125 1.179688 C 22.378906 1.179688 22.820312 1.621094 22.820312 2.171875 L 22.820312 12.09375 L 11.90625 12.09375 L 11.90625 1.179688 Z M 21.828125 1.179688 "/>
<path style=" stroke:none;fill-rule:nonzero;fill:rgb(49.411765%,34.117648%,76.078433%);fill-opacity:1;" d="M 1.984375 23.007812 C 1.433594 23.007812 0.992188 22.566406 0.992188 22.015625 L 0.992188 12.09375 L 11.90625 12.09375 L 11.90625 23.007812 Z M 1.984375 23.007812 "/>
<path style=" stroke:none;fill-rule:nonzero;fill:rgb(14.901961%,65.098041%,60.392159%);fill-opacity:1;" d="M 21.828125 23.007812 C 22.378906 23.007812 22.820312 22.566406 22.820312 22.015625 L 22.820312 12.09375 L 11.90625 12.09375 L 11.90625 23.007812 Z M 21.828125 23.007812 "/>
<path style=" stroke:none;fill-rule:nonzero;fill:rgb(25.882354%,25.882354%,25.882354%);fill-opacity:1;" d="M 5.921875 5.179688 L 17.890625 5.179688 C 18.421875 5.179688 18.851562 5.609375 18.851562 6.140625 L 18.851562 18.542969 C 18.851562 19.074219 18.421875 19.503906 17.890625 19.503906 L 5.921875 19.503906 C 5.390625 19.503906 4.960938 19.074219 4.960938 18.542969 L 4.960938 6.140625 C 4.960938 5.609375 5.390625 5.179688 5.921875 5.179688 Z M 5.921875 5.179688 "/>
<path style=" stroke:none;fill-rule:nonzero;fill:rgb(93.333334%,93.333334%,93.333334%);fill-opacity:1;" d="M 14.882812 8.125 C 13.507812 8.125 12.402344 9.230469 12.402344 10.605469 L 12.402344 13.582031 C 12.402344 14.957031 13.507812 16.0625 14.882812 16.0625 L 15.378906 16.0625 C 16.753906 16.0625 17.859375 14.957031 17.859375 13.582031 C 17.859375 13.535156 17.847656 13.496094 17.824219 13.457031 C 17.847656 13.421875 17.859375 13.378906 17.859375 13.332031 L 17.859375 12.835938 C 17.859375 12.699219 17.75 12.589844 17.609375 12.589844 L 15.625 12.589844 C 15.488281 12.589844 15.378906 12.699219 15.378906 12.835938 L 15.378906 13.332031 C 15.378906 13.472656 15.488281 13.582031 15.625 13.582031 L 16.867188 13.582031 C 16.867188 14.40625 16.203125 15.070312 15.378906 15.070312 L 14.882812 15.070312 C 14.058594 15.070312 13.394531 14.40625 13.394531 13.582031 L 13.394531 10.605469 C 13.394531 9.78125 14.058594 9.117188 14.882812 9.117188 L 15.378906 9.117188 C 16.203125 9.117188 16.867188 9.78125 16.867188 10.605469 C 16.867188 10.742188 16.976562 10.851562 17.113281 10.851562 L 17.609375 10.851562 C 17.75 10.851562 17.859375 10.742188 17.859375 10.605469 C 17.859375 9.230469 16.753906 8.125 15.378906 8.125 Z M 14.882812 8.125 "/>
<path style=" stroke:none;fill-rule:nonzero;fill:rgb(93.333334%,93.333334%,93.333334%);fill-opacity:1;" d="M 6.199219 8.125 C 6.0625 8.125 5.953125 8.234375 5.953125 8.371094 L 5.953125 15.8125 C 5.953125 15.933594 6.039062 16.035156 6.152344 16.058594 C 6.15625 16.058594 6.160156 16.058594 6.164062 16.058594 C 6.175781 16.0625 6.1875 16.0625 6.199219 16.0625 L 9.175781 16.0625 C 9.21875 16.0625 9.253906 16.054688 9.289062 16.035156 C 10.492188 15.863281 11.410156 14.835938 11.410156 13.582031 L 11.410156 10.605469 C 11.410156 9.351562 10.492188 8.324219 9.285156 8.152344 C 9.253906 8.132812 9.21875 8.125 9.175781 8.125 Z M 6.945312 9.117188 L 8.929688 9.117188 C 9.753906 9.117188 10.417969 9.78125 10.417969 10.605469 L 10.417969 13.582031 C 10.417969 14.40625 9.753906 15.070312 8.929688 15.070312 L 6.945312 15.070312 Z M 6.945312 9.117188 "/>
</g>
</svg>
