<?xml version="1.0" encoding="UTF-8"?>
<svg xmlns="http://www.w3.org/2000/svg" xmlns:xlink="http://www.w3.org/1999/xlink" width="24px" height="24px" viewBox="0 0 24 24" version="1.1">
<g id="surface1">
<path style=" stroke:none;fill-rule:nonzero;fill:rgb(56.470591%,64.313728%,68.235296%);fill-opacity:0.995763;" d="M 15.875 3.660156 C 19.320312 7.0625 22.183594 10.5 20.339844 14.078125 C 19.882812 11.628906 18.179688 8.386719 16.042969 6.136719 Z M 15.875 3.660156 "/>
<path style=" stroke:none;fill-rule:nonzero;fill:rgb(0%,73.725492%,83.137256%);fill-opacity:1;" d="M 11.90625 19.535156 C 6.683594 19.535156 2.480469 20.972656 2.480469 22.757812 C 2.480469 22.84375 2.488281 22.925781 2.507812 23.007812 L 21.304688 23.007812 C 21.324219 22.925781 21.332031 22.84375 21.332031 22.757812 C 21.332031 20.972656 17.128906 19.535156 11.90625 19.535156 Z M 11.90625 19.535156 "/>
<path style=" stroke:none;fill-rule:nonzero;fill:rgb(69.01961%,74.509805%,77.254903%);fill-opacity:0.995763;" d="M 18.796875 9.117188 C 20.609375 14.441406 19.011719 19.757812 15.875 22.511719 C 16.433594 19.734375 16.164062 15.480469 15.097656 12.035156 Z M 18.796875 9.117188 "/>
<path style=" stroke:none;fill-rule:nonzero;fill:rgb(30.19608%,81.568629%,88.235295%);fill-opacity:1;" d="M 11.136719 15.566406 L 12.675781 15.566406 C 14.714844 15.566406 16.371094 16.335938 16.371094 17.285156 L 16.371094 20.296875 C 16.371094 21.246094 14.714844 22.015625 12.675781 22.015625 L 11.136719 22.015625 C 9.097656 22.015625 7.441406 21.246094 7.441406 20.296875 L 7.441406 17.285156 C 7.441406 16.335938 9.097656 15.566406 11.136719 15.566406 Z M 11.136719 15.566406 "/>
<path style=" stroke:none;fill-rule:nonzero;fill:rgb(56.470591%,64.313728%,68.235296%);fill-opacity:0.995763;" d="M 18.851562 8.621094 C 21.605469 12.605469 21.09375 17.511719 18.613281 20.6875 C 18.621094 18.195312 17.550781 14.695312 15.867188 12.089844 Z M 18.851562 8.621094 "/>
<path style=" stroke:none;fill-rule:nonzero;fill:rgb(69.01961%,74.509805%,77.254903%);fill-opacity:0.995763;" d="M 3.726562 9.714844 C 2.445312 14.382812 4.550781 18.847656 7.9375 21.023438 C 7.109375 18.675781 6.964844 15.015625 7.6875 12 Z M 3.726562 9.714844 "/>
<path style=" stroke:none;fill-rule:nonzero;fill:rgb(81.176472%,84.705883%,86.274511%);fill-opacity:0.995763;" d="M 20.3125 9.28125 C 21.632812 13.9375 19.5625 18.417969 16.191406 20.621094 C 17.003906 18.269531 17.117188 14.605469 16.371094 11.597656 Z M 20.3125 9.28125 "/>
<path style=" stroke:none;fill-rule:nonzero;fill:rgb(81.176472%,84.705883%,86.274511%);fill-opacity:0.995763;" d="M 19.722656 6.039062 C 22.617188 9.921875 22.28125 14.847656 19.921875 18.109375 C 19.835938 15.617188 18.640625 12.15625 16.867188 9.613281 Z M 19.722656 6.039062 "/>
<path style=" stroke:none;fill-rule:nonzero;fill:rgb(56.470591%,64.313728%,68.235296%);fill-opacity:0.995763;" d="M 3.527344 8.621094 C 1.714844 13.945312 3.3125 19.261719 6.449219 22.015625 C 5.890625 19.238281 6.160156 14.984375 7.226562 11.539062 Z M 3.527344 8.621094 "/>
<path style=" stroke:none;fill-rule:nonzero;fill:rgb(81.176472%,84.705883%,86.274511%);fill-opacity:0.995763;" d="M 4.703125 8.363281 C 2.257812 12.542969 3.136719 17.398438 5.84375 20.378906 C 5.652344 17.894531 6.457031 14.324219 7.9375 11.597656 Z M 4.703125 8.363281 "/>
<path style=" stroke:none;fill-rule:nonzero;fill:rgb(81.176472%,84.705883%,86.274511%);fill-opacity:0.995763;" d="M 4.984375 6.148438 C 1.539062 9.550781 1.132812 14.46875 2.976562 18.046875 C 3.433594 15.597656 5.136719 12.355469 7.273438 10.105469 Z M 4.984375 6.148438 "/>
<path style=" stroke:none;fill-rule:nonzero;fill:rgb(0%,67.450982%,75.686276%);fill-opacity:1;" d="M 11.90625 18.296875 C 12.179688 18.296875 12.402344 18.515625 12.402344 18.789062 L 12.402344 21.023438 C 12.402344 21.296875 12.179688 21.519531 11.90625 21.519531 C 11.632812 21.519531 11.410156 21.296875 11.410156 21.023438 L 11.410156 18.789062 C 11.410156 18.515625 11.632812 18.296875 11.90625 18.296875 Z M 11.90625 18.296875 "/>
<path style=" stroke:none;fill-rule:nonzero;fill:rgb(100%,87.843138%,69.803923%);fill-opacity:0.995763;" d="M 11.90625 1.675781 C 16.289062 1.675781 19.84375 5.5625 19.84375 10.359375 C 19.84375 15.152344 16.289062 19.039062 11.90625 19.039062 C 7.523438 19.039062 3.96875 15.152344 3.96875 10.359375 C 3.96875 5.5625 7.523438 1.675781 11.90625 1.675781 Z M 11.90625 1.675781 "/>
<path style=" stroke:none;fill-rule:nonzero;fill:rgb(96.078432%,96.078432%,96.078432%);fill-opacity:0.995763;" d="M 16.804688 9.742188 C 15.90625 8.84375 14.570312 8.722656 13.820312 9.46875 C 13.074219 10.21875 13.195312 11.554688 14.09375 12.453125 C 14.992188 13.351562 16.324219 13.472656 17.074219 12.722656 C 17.824219 11.972656 17.699219 10.640625 16.804688 9.742188 Z M 16.804688 9.742188 "/>
<path style=" stroke:none;fill-rule:nonzero;fill:rgb(25.882354%,25.882354%,25.882354%);fill-opacity:0.995763;" d="M 15.03125 10.1875 C 14.734375 9.890625 14.253906 9.890625 13.960938 10.1875 C 13.664062 10.484375 13.664062 10.964844 13.960938 11.261719 C 14.253906 11.558594 14.734375 11.558594 15.03125 11.261719 C 15.328125 10.964844 15.328125 10.484375 15.03125 10.1875 Z M 15.03125 10.1875 "/>
<path style=" stroke:none;fill-rule:nonzero;fill:rgb(96.078432%,96.078432%,96.078432%);fill-opacity:0.995763;" d="M 7.128906 9.726562 C 8.015625 8.84375 9.332031 8.722656 10.070312 9.460938 C 10.808594 10.199219 10.6875 11.515625 9.800781 12.398438 C 8.917969 13.285156 7.601562 13.40625 6.863281 12.667969 C 6.125 11.929688 6.246094 10.613281 7.128906 9.726562 Z M 7.128906 9.726562 "/>
<path style=" stroke:none;fill-rule:nonzero;fill:rgb(25.882354%,25.882354%,25.882354%);fill-opacity:0.995763;" d="M 8.882812 10.1875 C 9.179688 9.890625 9.660156 9.890625 9.957031 10.1875 C 10.25 10.484375 10.25 10.964844 9.957031 11.261719 C 9.660156 11.558594 9.179688 11.558594 8.882812 11.261719 C 8.585938 10.964844 8.585938 10.484375 8.882812 10.1875 Z M 8.882812 10.1875 "/>
<path style=" stroke:none;fill-rule:nonzero;fill:rgb(93.725491%,32.549021%,31.37255%);fill-opacity:1;" d="M 11.90625 16.3125 C 12.453125 16.3125 12.898438 16.53125 12.898438 16.808594 C 12.898438 17.082031 12.453125 17.304688 11.90625 17.304688 C 11.359375 17.304688 10.914062 17.082031 10.914062 16.808594 C 10.914062 16.53125 11.359375 16.3125 11.90625 16.3125 Z M 11.90625 16.3125 "/>
<path style=" stroke:none;fill-rule:nonzero;fill:rgb(69.01961%,74.509805%,77.254903%);fill-opacity:0.995763;" d="M 4.960938 4.15625 C 2.515625 8.335938 2.144531 12.933594 4.851562 15.914062 C 4.660156 13.429688 5.464844 9.859375 6.945312 7.132812 Z M 4.960938 4.15625 "/>
<path style=" stroke:none;fill-rule:nonzero;fill:rgb(81.176472%,84.705883%,86.274511%);fill-opacity:0.995763;" d="M 11.90625 1.675781 C 5.453125 1.675781 1.46875 6.535156 1.238281 11.351562 C 3.421875 8.804688 8.277344 6.140625 11.90625 6.140625 C 15.535156 6.140625 20.390625 8.804688 22.570312 11.351562 C 22.34375 6.535156 17.859375 1.675781 11.90625 1.675781 Z M 11.90625 1.675781 "/>
<path style=" stroke:none;fill-rule:nonzero;fill:rgb(81.176472%,84.705883%,86.274511%);fill-opacity:0.995763;" d="M 11.90625 1.566406 C 7.222656 2.792969 4.410156 6.847656 4.214844 10.867188 C 5.835938 8.976562 8.933594 7.019531 11.90625 6.140625 Z M 11.90625 1.566406 "/>
<path style=" stroke:none;fill-rule:nonzero;fill:rgb(81.176472%,84.705883%,86.274511%);fill-opacity:0.995763;" d="M 11.90625 2.597656 C 10.546875 4.285156 9.769531 6.339844 9.671875 8.386719 C 10.253906 7.710938 11.023438 7.027344 11.90625 6.386719 Z M 11.90625 2.597656 "/>
<path style=" stroke:none;fill-rule:nonzero;fill:rgb(81.176472%,84.705883%,86.274511%);fill-opacity:0.995763;" d="M 12.402344 2.351562 C 13.761719 4.039062 14.539062 6.09375 14.632812 8.144531 C 14.054688 7.464844 13.285156 6.78125 12.402344 6.140625 Z M 12.402344 2.351562 "/>
<path style=" stroke:none;fill-rule:nonzero;fill:rgb(69.01961%,74.509805%,77.254903%);fill-opacity:0.995763;" d="M 17.15625 4.167969 C 19.917969 8.144531 22.105469 12.046875 19.632812 15.230469 C 19.632812 12.738281 18.554688 9.238281 16.867188 6.636719 Z M 17.15625 4.167969 "/>
<path style=" stroke:none;fill-rule:nonzero;fill:rgb(81.176472%,84.705883%,86.274511%);fill-opacity:0.995763;" d="M 14.171875 2.082031 L 13.539062 3.566406 C 15.929688 5.539062 18.015625 8.550781 18.765625 10.925781 C 19.09375 10.039062 19.289062 9.089844 19.347656 8.125 C 18.527344 5.261719 16.558594 3.058594 14.171875 2.082031 Z M 14.171875 2.082031 "/>
<path style=" stroke:none;fill-rule:nonzero;fill:rgb(25.882354%,25.882354%,25.882354%);fill-opacity:1;" d="M 11.90625 14.328125 C 11.75 14.328125 11.621094 14.273438 11.585938 14.203125 C 11.578125 14.1875 11.574219 14.175781 11.574219 14.160156 C 11.574219 14.128906 11.589844 14.101562 11.621094 14.078125 C 11.675781 14.128906 11.785156 14.160156 11.90625 14.160156 C 12.027344 14.160156 12.136719 14.128906 12.191406 14.078125 C 12.222656 14.101562 12.238281 14.128906 12.238281 14.160156 C 12.238281 14.175781 12.234375 14.1875 12.226562 14.203125 C 12.191406 14.273438 12.0625 14.324219 11.90625 14.324219 Z M 11.90625 14.328125 "/>
<path style=" stroke:none;fill-rule:nonzero;fill:rgb(69.01961%,74.509805%,77.254903%);fill-opacity:0.995763;" d="M 14.640625 4.652344 C 13.878906 3.15625 12.503906 1.886719 10.789062 1.054688 C 11.078125 1.679688 11.277344 2.425781 11.378906 3.230469 Z M 14.640625 4.652344 "/>
<path style=" stroke:none;fill-rule:nonzero;fill:rgb(69.01961%,74.509805%,77.254903%);fill-opacity:0.995763;" d="M 9.433594 3.785156 C 10.523438 2.503906 12.15625 1.589844 14.015625 1.179688 C 13.589844 1.71875 13.222656 2.398438 12.9375 3.15625 Z M 9.433594 3.785156 "/>
<path style=" stroke:none;fill-rule:nonzero;fill:rgb(69.01961%,74.509805%,77.254903%);fill-opacity:0.995763;" d="M 8.316406 3.785156 C 9.40625 2.503906 11.039062 1.589844 12.898438 1.179688 C 12.472656 1.71875 12.105469 2.398438 11.820312 3.15625 Z M 8.316406 3.785156 "/>
<path style=" stroke:none;fill-rule:nonzero;fill:rgb(69.01961%,74.509805%,77.254903%);fill-opacity:0.995763;" d="M 13.984375 3.164062 C 12.710938 2.070312 10.957031 1.421875 9.054688 1.304688 C 9.558594 1.769531 10.027344 2.386719 10.425781 3.089844 Z M 13.984375 3.164062 "/>
</g>
</svg>
