<?xml version="1.0" encoding="UTF-8"?>
<svg xmlns="http://www.w3.org/2000/svg" xmlns:xlink="http://www.w3.org/1999/xlink" width="24px" height="24px" viewBox="0 0 24 24" version="1.1">
<g id="surface1">
<path style=" stroke:none;fill-rule:nonzero;fill:rgb(100%,67.058825%,56.862748%);fill-opacity:1;" d="M 11.90625 1.179688 C 17.933594 1.179688 22.820312 6.066406 22.820312 12.09375 C 22.820312 18.121094 17.933594 23.007812 11.90625 23.007812 C 5.878906 23.007812 0.992188 18.121094 0.992188 12.09375 C 0.992188 6.066406 5.878906 1.179688 11.90625 1.179688 Z M 11.90625 1.179688 "/>
<path style=" stroke:none;fill-rule:nonzero;fill:rgb(100%,43.921569%,26.274511%);fill-opacity:1;" d="M 21.332031 8.125 C 13.648438 8.125 6.757812 11.386719 1.960938 16.605469 C 3.667969 20.386719 7.472656 23.007812 11.90625 23.007812 C 17.953125 23.007812 22.820312 18.140625 22.820312 12.09375 C 22.820312 10.695312 22.558594 9.363281 22.085938 8.136719 C 21.835938 8.128906 21.585938 8.125 21.332031 8.125 Z M 21.332031 8.125 "/>
</g>
</svg>
