<?xml version="1.0" encoding="UTF-8"?>
<svg xmlns="http://www.w3.org/2000/svg" xmlns:xlink="http://www.w3.org/1999/xlink" width="24px" height="24px" viewBox="0 0 24 24" version="1.1">
<g id="surface1">
<path style=" stroke:none;fill-rule:nonzero;fill:rgb(36.078432%,41.960785%,75.294119%);fill-opacity:1;" d="M 15.875 1.179688 L 3.96875 1.179688 C 3.417969 1.179688 2.976562 1.621094 2.976562 2.171875 L 2.976562 22.015625 C 2.976562 22.566406 3.417969 23.007812 3.96875 23.007812 L 19.84375 23.007812 C 20.394531 23.007812 20.835938 22.566406 20.835938 22.015625 L 20.835938 6.140625 Z M 15.875 1.179688 "/>
<path style=" stroke:none;fill-rule:nonzero;fill:rgb(22.352941%,28.627452%,67.058825%);fill-opacity:1;" d="M 20.835938 6.140625 L 15.875 1.179688 L 15.875 5.148438 C 15.875 5.699219 16.316406 6.140625 16.867188 6.140625 Z M 20.835938 6.140625 "/>
<path style=" stroke:none;fill-rule:nonzero;fill:rgb(96.078432%,96.078432%,96.078432%);fill-opacity:1;" d="M 10.664062 6.636719 C 8.054688 6.636719 5.953125 8.738281 5.953125 11.347656 C 5.953125 13.960938 8.054688 16.0625 10.664062 16.0625 C 11.785156 16.0625 12.8125 15.675781 13.617188 15.027344 L 14.214844 15.625 C 14.167969 15.789062 14.210938 15.972656 14.34375 16.101562 L 16.445312 18.207031 C 16.640625 18.402344 16.953125 18.402344 17.148438 18.207031 L 17.5 17.855469 C 17.695312 17.664062 17.695312 17.347656 17.5 17.15625 L 15.394531 15.050781 C 15.265625 14.921875 15.082031 14.878906 14.914062 14.921875 L 14.324219 14.328125 C 14.984375 13.519531 15.378906 12.480469 15.378906 11.347656 C 15.378906 8.738281 13.277344 6.636719 10.664062 6.636719 Z M 10.664062 7.628906 C 12.726562 7.628906 14.386719 9.289062 14.386719 11.347656 C 14.386719 13.410156 12.726562 15.070312 10.664062 15.070312 C 8.605469 15.070312 6.945312 13.410156 6.945312 11.347656 C 6.945312 9.289062 8.605469 7.628906 10.664062 7.628906 Z M 10.664062 7.628906 "/>
</g>
</svg>
