
<svg xmlns="http://www.w3.org/2000/svg" xmlns:xlink="http://www.w3.org/1999/xlink" width="24px" height="24px" viewBox="0 0 24 24" version="1.1">
<g id="surface1">
<path style=" stroke:none;fill-rule:nonzero;fill:rgb(74.117649%,74.117649%,74.117649%);fill-opacity:1;" d="M 1.984375 1.488281 L 9.921875 1.488281 C 10.46875 1.488281 10.914062 1.933594 10.914062 2.480469 L 10.914062 10.417969 C 10.914062 10.964844 10.46875 11.410156 9.921875 11.410156 L 1.984375 11.410156 C 1.4375 11.410156 0.992188 10.964844 0.992188 10.417969 L 0.992188 2.480469 C 0.992188 1.933594 1.4375 1.488281 1.984375 1.488281 Z M 1.984375 1.488281 "/>
<path style=" stroke:none;fill-rule:nonzero;fill:rgb(87.843138%,87.843138%,87.843138%);fill-opacity:1;" d="M 2.480469 1.984375 L 9.425781 1.984375 C 9.699219 1.984375 9.921875 2.207031 9.921875 2.480469 L 9.921875 9.425781 C 9.921875 9.699219 9.699219 9.921875 9.425781 9.921875 L 2.480469 9.921875 C 2.207031 9.921875 1.984375 9.699219 1.984375 9.425781 L 1.984375 2.480469 C 1.984375 2.207031 2.207031 1.984375 2.480469 1.984375 Z M 2.480469 1.984375 "/>
<path style=" stroke:none;fill-rule:nonzero;fill:rgb(74.117649%,74.117649%,74.117649%);fill-opacity:1;" d="M 12.898438 1.488281 L 20.835938 1.488281 C 21.382812 1.488281 21.828125 1.933594 21.828125 2.480469 L 21.828125 10.417969 C 21.828125 10.964844 21.382812 11.410156 20.835938 11.410156 L 12.898438 11.410156 C 12.351562 11.410156 11.90625 10.964844 11.90625 10.417969 L 11.90625 2.480469 C 11.90625 1.933594 12.351562 1.488281 12.898438 1.488281 Z M 12.898438 1.488281 "/>
<path style=" stroke:none;fill-rule:nonzero;fill:rgb(87.843138%,87.843138%,87.843138%);fill-opacity:1;" d="M 13.394531 1.984375 L 20.339844 1.984375 C 20.613281 1.984375 20.835938 2.207031 20.835938 2.480469 L 20.835938 9.425781 C 20.835938 9.699219 20.613281 9.921875 20.339844 9.921875 L 13.394531 9.921875 C 13.121094 9.921875 12.898438 9.699219 12.898438 9.425781 L 12.898438 2.480469 C 12.898438 2.207031 13.121094 1.984375 13.394531 1.984375 Z M 13.394531 1.984375 "/>
<path style=" stroke:none;fill-rule:nonzero;fill:rgb(74.117649%,74.117649%,74.117649%);fill-opacity:1;" d="M 2.976562 12.402344 L 10.914062 12.402344 C 11.460938 12.402344 11.90625 12.847656 11.90625 13.394531 L 11.90625 21.332031 C 11.90625 21.878906 11.460938 22.324219 10.914062 22.324219 L 2.976562 22.324219 C 2.429688 22.324219 1.984375 21.878906 1.984375 21.332031 L 1.984375 13.394531 C 1.984375 12.847656 2.429688 12.402344 2.976562 12.402344 Z M 2.976562 12.402344 "/>
<path style=" stroke:none;fill-rule:nonzero;fill:rgb(93.333334%,93.333334%,93.333334%);fill-opacity:1;" d="M 3.472656 12.898438 L 10.417969 12.898438 C 10.691406 12.898438 10.914062 13.121094 10.914062 13.394531 L 10.914062 20.339844 C 10.914062 20.613281 10.691406 20.835938 10.417969 20.835938 L 3.472656 20.835938 C 3.199219 20.835938 2.976562 20.613281 2.976562 20.339844 L 2.976562 13.394531 C 2.976562 13.121094 3.199219 12.898438 3.472656 12.898438 Z M 3.472656 12.898438 "/>
<path style=" stroke:none;fill-rule:nonzero;fill:rgb(74.117649%,74.117649%,74.117649%);fill-opacity:1;" d="M 13.890625 12.402344 L 21.828125 12.402344 C 22.375 12.402344 22.820312 12.847656 22.820312 13.394531 L 22.820312 21.332031 C 22.820312 21.878906 22.375 22.324219 21.828125 22.324219 L 13.890625 22.324219 C 13.34375 22.324219 12.898438 21.878906 12.898438 21.332031 L 12.898438 13.394531 C 12.898438 12.847656 13.34375 12.402344 13.890625 12.402344 Z M 13.890625 12.402344 "/>
<path style=" stroke:none;fill-rule:nonzero;fill:rgb(87.843138%,87.843138%,87.843138%);fill-opacity:1;" d="M 14.386719 12.898438 L 21.332031 12.898438 C 21.605469 12.898438 21.828125 13.121094 21.828125 13.394531 L 21.828125 20.339844 C 21.828125 20.613281 21.605469 20.835938 21.332031 20.835938 L 14.386719 20.835938 C 14.113281 20.835938 13.890625 20.613281 13.890625 20.339844 L 13.890625 13.394531 C 13.890625 13.121094 14.113281 12.898438 14.386719 12.898438 Z M 14.386719 12.898438 "/>
<path style=" stroke:none;fill-rule:nonzero;fill:rgb(38.039216%,38.039216%,38.039216%);fill-opacity:1;" d="M 15.378906 3.472656 C 15.242188 3.472656 15.128906 3.582031 15.128906 3.722656 L 15.128906 8.1875 C 15.128906 8.199219 15.132812 8.210938 15.132812 8.222656 C 15.152344 8.34375 15.253906 8.433594 15.378906 8.433594 L 18.355469 8.433594 C 18.492188 8.433594 18.605469 8.324219 18.605469 8.1875 L 18.605469 7.691406 C 18.605469 7.550781 18.492188 7.441406 18.355469 7.441406 L 16.125 7.441406 L 16.125 3.722656 C 16.125 3.582031 16.011719 3.472656 15.875 3.472656 Z M 15.378906 3.472656 "/>
<path style=" stroke:none;fill-rule:nonzero;fill:rgb(40.000001%,73.333335%,41.568628%);fill-opacity:1;" d="M 6.199219 14.386719 C 5.652344 14.386719 5.207031 14.828125 5.207031 15.378906 L 5.207031 19.097656 C 5.207031 19.238281 5.320312 19.347656 5.457031 19.347656 L 5.953125 19.347656 C 6.089844 19.347656 6.199219 19.238281 6.199219 19.097656 L 6.199219 17.859375 L 7.6875 17.859375 L 7.6875 19.097656 C 7.6875 19.238281 7.800781 19.347656 7.9375 19.347656 L 8.433594 19.347656 C 8.570312 19.347656 8.679688 19.238281 8.679688 19.097656 L 8.679688 15.378906 C 8.679688 14.828125 8.238281 14.386719 7.6875 14.386719 Z M 6.695312 15.378906 L 7.191406 15.378906 C 7.46875 15.378906 7.6875 15.601562 7.6875 15.875 L 7.6875 16.867188 L 6.199219 16.867188 L 6.199219 15.875 C 6.199219 15.601562 6.421875 15.378906 6.695312 15.378906 Z M 6.695312 15.378906 "/>
<path style=" stroke:none;fill-rule:nonzero;fill:rgb(38.039216%,38.039216%,38.039216%);fill-opacity:1;" d="M 7.101562 3.460938 C 7.039062 3.460938 6.972656 3.484375 6.925781 3.535156 L 5.21875 5.242188 L 5.199219 5.21875 L 5.199219 3.730469 C 5.199219 3.59375 5.085938 3.484375 4.949219 3.484375 L 4.453125 3.484375 C 4.316406 3.484375 4.207031 3.59375 4.207031 3.730469 L 4.207031 8.195312 C 4.207031 8.332031 4.316406 8.445312 4.453125 8.445312 L 4.949219 8.445312 C 5.085938 8.445312 5.199219 8.332031 5.199219 8.195312 L 5.199219 6.664062 L 5.21875 6.644531 L 6.925781 8.351562 C 7.023438 8.449219 7.179688 8.449219 7.277344 8.351562 L 7.628906 8 C 7.722656 7.902344 7.722656 7.746094 7.628906 7.648438 L 5.921875 5.941406 L 7.628906 4.238281 C 7.722656 4.140625 7.722656 3.984375 7.628906 3.886719 L 7.277344 3.535156 C 7.226562 3.484375 7.164062 3.460938 7.101562 3.460938 Z M 7.101562 3.460938 "/>
<path style=" stroke:none;fill-rule:nonzero;fill:rgb(38.039216%,38.039216%,38.039216%);fill-opacity:1;" d="M 16.902344 14.398438 C 16.878906 14.398438 16.851562 14.398438 16.828125 14.40625 L 16.347656 14.535156 C 16.214844 14.570312 16.136719 14.707031 16.171875 14.839844 L 17.328125 19.152344 C 17.363281 19.285156 17.488281 19.335938 17.636719 19.335938 C 17.859375 19.335938 17.859375 19.335938 18.082031 19.335938 C 18.230469 19.335938 18.355469 19.285156 18.390625 19.152344 L 19.546875 14.839844 C 19.582031 14.707031 19.503906 14.570312 19.371094 14.535156 L 18.890625 14.40625 C 18.757812 14.371094 18.621094 14.449219 18.585938 14.582031 L 17.859375 17.296875 L 17.132812 14.582031 C 17.101562 14.472656 17.007812 14.402344 16.902344 14.398438 Z M 16.902344 14.398438 "/>
</g>
</svg>
