<?xml version="1.0" encoding="UTF-8"?>
<svg xmlns="http://www.w3.org/2000/svg" xmlns:xlink="http://www.w3.org/1999/xlink" width="24px" height="24px" viewBox="0 0 24 24" version="1.1">
<g id="surface1">
<path style=" stroke:none;fill-rule:nonzero;fill:rgb(87.843138%,87.843138%,87.843138%);fill-opacity:1;" d="M 3.96875 1.179688 L 19.84375 1.179688 C 20.390625 1.179688 20.835938 1.625 20.835938 2.171875 L 20.835938 15.070312 C 20.835938 15.617188 20.390625 16.0625 19.84375 16.0625 L 3.96875 16.0625 C 3.421875 16.0625 2.976562 15.617188 2.976562 15.070312 L 2.976562 2.171875 C 2.976562 1.625 3.421875 1.179688 3.96875 1.179688 Z M 3.96875 1.179688 "/>
<path style=" stroke:none;fill-rule:nonzero;fill:rgb(93.333334%,93.333334%,93.333334%);fill-opacity:1;" d="M 1.984375 15.070312 L 21.828125 15.070312 C 22.375 15.070312 22.820312 15.515625 22.820312 16.0625 L 22.820312 22.015625 C 22.820312 22.5625 22.375 23.007812 21.828125 23.007812 L 1.984375 23.007812 C 1.4375 23.007812 0.992188 22.5625 0.992188 22.015625 L 0.992188 16.0625 C 0.992188 15.515625 1.4375 15.070312 1.984375 15.070312 Z M 1.984375 15.070312 "/>
<path style=" stroke:none;fill-rule:nonzero;fill:rgb(14.901961%,65.098041%,60.392159%);fill-opacity:1;" d="M 4.714844 2.667969 L 10.664062 2.667969 C 10.804688 2.667969 10.914062 2.777344 10.914062 2.917969 L 10.914062 3.410156 C 10.914062 3.550781 10.804688 3.660156 10.664062 3.660156 L 4.714844 3.660156 C 4.574219 3.660156 4.464844 3.550781 4.464844 3.410156 L 4.464844 2.917969 C 4.464844 2.777344 4.574219 2.667969 4.714844 2.667969 Z M 4.714844 2.667969 "/>
<path style=" stroke:none;fill-rule:nonzero;fill:rgb(25.882354%,64.705884%,96.078432%);fill-opacity:1;" d="M 13.148438 2.667969 L 19.097656 2.667969 C 19.238281 2.667969 19.347656 2.777344 19.347656 2.917969 L 19.347656 3.410156 C 19.347656 3.550781 19.238281 3.660156 19.097656 3.660156 L 13.148438 3.660156 C 13.007812 3.660156 12.898438 3.550781 12.898438 3.410156 L 12.898438 2.917969 C 12.898438 2.777344 13.007812 2.667969 13.148438 2.667969 Z M 13.148438 2.667969 "/>
<path style=" stroke:none;fill-rule:nonzero;fill:rgb(14.901961%,65.098041%,60.392159%);fill-opacity:1;" d="M 2.976562 19.535156 C 2.976562 19.261719 3.199219 19.039062 3.472656 19.039062 L 9.425781 19.039062 L 9.425781 17.550781 L 12.402344 20.03125 L 9.425781 22.511719 L 9.425781 21.023438 L 3.472656 21.023438 C 3.199219 21.023438 2.976562 20.800781 2.976562 20.527344 Z M 2.976562 19.535156 "/>
<path style=" stroke:none;fill-rule:nonzero;fill:rgb(61.960787%,61.960787%,61.960787%);fill-opacity:1;" d="M 4.714844 5.148438 L 10.664062 5.148438 C 10.804688 5.148438 10.914062 5.257812 10.914062 5.398438 L 10.914062 5.890625 C 10.914062 6.03125 10.804688 6.140625 10.664062 6.140625 L 4.714844 6.140625 C 4.574219 6.140625 4.464844 6.03125 4.464844 5.890625 L 4.464844 5.398438 C 4.464844 5.257812 4.574219 5.148438 4.714844 5.148438 Z M 4.714844 5.148438 "/>
<path style=" stroke:none;fill-rule:nonzero;fill:rgb(61.960787%,61.960787%,61.960787%);fill-opacity:1;" d="M 13.148438 5.148438 L 19.097656 5.148438 C 19.238281 5.148438 19.347656 5.257812 19.347656 5.398438 L 19.347656 5.890625 C 19.347656 6.03125 19.238281 6.140625 19.097656 6.140625 L 13.148438 6.140625 C 13.007812 6.140625 12.898438 6.03125 12.898438 5.890625 L 12.898438 5.398438 C 12.898438 5.257812 13.007812 5.148438 13.148438 5.148438 Z M 13.148438 5.148438 "/>
<path style=" stroke:none;fill-rule:nonzero;fill:rgb(61.960787%,61.960787%,61.960787%);fill-opacity:1;" d="M 4.714844 7.628906 L 10.664062 7.628906 C 10.804688 7.628906 10.914062 7.738281 10.914062 7.878906 L 10.914062 8.371094 C 10.914062 8.511719 10.804688 8.621094 10.664062 8.621094 L 4.714844 8.621094 C 4.574219 8.621094 4.464844 8.511719 4.464844 8.371094 L 4.464844 7.878906 C 4.464844 7.738281 4.574219 7.628906 4.714844 7.628906 Z M 4.714844 7.628906 "/>
<path style=" stroke:none;fill-rule:nonzero;fill:rgb(61.960787%,61.960787%,61.960787%);fill-opacity:1;" d="M 13.148438 7.628906 L 19.097656 7.628906 C 19.238281 7.628906 19.347656 7.738281 19.347656 7.878906 L 19.347656 8.371094 C 19.347656 8.511719 19.238281 8.621094 19.097656 8.621094 L 13.148438 8.621094 C 13.007812 8.621094 12.898438 8.511719 12.898438 8.371094 L 12.898438 7.878906 C 12.898438 7.738281 13.007812 7.628906 13.148438 7.628906 Z M 13.148438 7.628906 "/>
<path style=" stroke:none;fill-rule:nonzero;fill:rgb(61.960787%,61.960787%,61.960787%);fill-opacity:1;" d="M 4.714844 10.109375 L 10.664062 10.109375 C 10.804688 10.109375 10.914062 10.21875 10.914062 10.359375 L 10.914062 10.851562 C 10.914062 10.992188 10.804688 11.101562 10.664062 11.101562 L 4.714844 11.101562 C 4.574219 11.101562 4.464844 10.992188 4.464844 10.851562 L 4.464844 10.359375 C 4.464844 10.21875 4.574219 10.109375 4.714844 10.109375 Z M 4.714844 10.109375 "/>
<path style=" stroke:none;fill-rule:nonzero;fill:rgb(61.960787%,61.960787%,61.960787%);fill-opacity:1;" d="M 13.148438 10.109375 L 19.097656 10.109375 C 19.238281 10.109375 19.347656 10.21875 19.347656 10.359375 L 19.347656 10.851562 C 19.347656 10.992188 19.238281 11.101562 19.097656 11.101562 L 13.148438 11.101562 C 13.007812 11.101562 12.898438 10.992188 12.898438 10.851562 L 12.898438 10.359375 C 12.898438 10.21875 13.007812 10.109375 13.148438 10.109375 Z M 13.148438 10.109375 "/>
<path style=" stroke:none;fill-rule:nonzero;fill:rgb(61.960787%,61.960787%,61.960787%);fill-opacity:1;" d="M 4.714844 12.589844 L 10.664062 12.589844 C 10.804688 12.589844 10.914062 12.699219 10.914062 12.839844 L 10.914062 13.332031 C 10.914062 13.472656 10.804688 13.582031 10.664062 13.582031 L 4.714844 13.582031 C 4.574219 13.582031 4.464844 13.472656 4.464844 13.332031 L 4.464844 12.839844 C 4.464844 12.699219 4.574219 12.589844 4.714844 12.589844 Z M 4.714844 12.589844 "/>
<path style=" stroke:none;fill-rule:nonzero;fill:rgb(61.960787%,61.960787%,61.960787%);fill-opacity:1;" d="M 13.148438 12.589844 L 19.097656 12.589844 C 19.238281 12.589844 19.347656 12.699219 19.347656 12.839844 L 19.347656 13.332031 C 19.347656 13.472656 19.238281 13.582031 19.097656 13.582031 L 13.148438 13.582031 C 13.007812 13.582031 12.898438 13.472656 12.898438 13.332031 L 12.898438 12.839844 C 12.898438 12.699219 13.007812 12.589844 13.148438 12.589844 Z M 13.148438 12.589844 "/>
<path style=" stroke:none;fill-rule:nonzero;fill:rgb(25.882354%,64.705884%,96.078432%);fill-opacity:1;" d="M 20.835938 17.550781 C 20.835938 17.277344 20.613281 17.054688 20.339844 17.054688 L 14.386719 17.054688 L 14.386719 15.566406 L 11.410156 18.046875 L 14.386719 20.527344 L 14.386719 19.039062 L 20.339844 19.039062 C 20.613281 19.039062 20.835938 18.816406 20.835938 18.542969 Z M 20.835938 17.550781 "/>
</g>
</svg>
