<?xml version="1.0" encoding="UTF-8"?>
<svg xmlns="http://www.w3.org/2000/svg" xmlns:xlink="http://www.w3.org/1999/xlink" width="24px" height="24px" viewBox="0 0 24 24" version="1.1">
<g id="surface1">
<path style=" stroke:none;fill-rule:nonzero;fill:rgb(12.941177%,58.823532%,95.294118%);fill-opacity:1;" d="M 3.96875 17.554688 C 3.695312 17.554688 3.476562 17.773438 3.476562 18.046875 L 3.476562 22.015625 C 3.476562 22.390625 3.878906 22.628906 4.207031 22.445312 L 8.671875 19.46875 C 8.828125 19.382812 8.925781 19.21875 8.925781 19.039062 L 8.925781 18.046875 C 8.925781 17.773438 8.707031 17.554688 8.433594 17.554688 Z M 3.96875 17.554688 "/>
<path style=" stroke:none;fill-rule:nonzero;fill:rgb(25.882354%,64.705884%,96.078432%);fill-opacity:1;" d="M 1.984375 1.675781 L 21.828125 1.675781 C 22.375 1.675781 22.820312 2.121094 22.820312 2.667969 L 22.820312 18.542969 C 22.820312 19.089844 22.375 19.535156 21.828125 19.535156 L 1.984375 19.535156 C 1.4375 19.535156 0.992188 19.089844 0.992188 18.542969 L 0.992188 2.667969 C 0.992188 2.121094 1.4375 1.675781 1.984375 1.675781 Z M 1.984375 1.675781 "/>
<path style=" stroke:none;fill-rule:nonzero;fill:rgb(93.333334%,93.333334%,93.333334%);fill-opacity:1;" d="M 15.140625 6.640625 C 15.132812 6.640625 15.125 6.640625 15.117188 6.640625 C 15.0625 6.640625 15.007812 6.652344 14.957031 6.671875 L 11.074219 8.621094 L 10.667969 8.621094 L 10.667969 8.617188 L 10.171875 8.617188 L 10.171875 12.59375 L 10.667969 12.59375 L 10.667969 12.589844 L 11.074219 12.589844 L 14.957031 14.539062 C 15.28125 14.660156 15.621094 14.421875 15.621094 14.078125 L 15.621094 7.132812 C 15.621094 6.863281 15.40625 6.648438 15.140625 6.640625 Z M 8.683594 8.617188 C 8.40625 8.617188 8.1875 8.839844 8.1875 9.113281 L 8.1875 12.097656 C 8.1875 12.371094 8.410156 12.566406 8.683594 12.59375 L 9.671875 12.59375 L 9.671875 8.617188 Z M 8.683594 8.617188 "/>
</g>
</svg>
