<?xml version="1.0" encoding="UTF-8"?>
<svg xmlns="http://www.w3.org/2000/svg" xmlns:xlink="http://www.w3.org/1999/xlink" width="24px" height="24px" viewBox="0 0 24 24" version="1.1">
<g id="surface1">
<path style=" stroke:none;fill-rule:nonzero;fill:rgb(55.29412%,43.137255%,38.82353%);fill-opacity:1;" d="M 8.433594 1.179688 C 8.835938 2.390625 9.09375 3.476562 9.175781 4.402344 L 10.664062 3.90625 L 13.890625 3.660156 C 14.449219 2.34375 14.5625 2.277344 16.121094 1.925781 C 14.070312 1.515625 13.976562 1.667969 12.898438 2.914062 C 11.679688 2.453125 12.648438 1.59375 12.402344 1.179688 C 11.90625 1.839844 11.742188 2.503906 11.90625 3.164062 L 10.167969 1.425781 C 10.550781 2.007812 11.066406 2.585938 10.167969 3.164062 C 10.085938 2.363281 9.304688 1.757812 8.433594 1.179688 Z M 8.433594 1.179688 "/>
<path style=" stroke:none;fill-rule:nonzero;fill:rgb(47.450981%,33.333334%,28.235295%);fill-opacity:0.995763;" d="M 18.355469 4.15625 C 21.09375 4.15625 23.316406 6.378906 23.316406 9.117188 C 23.316406 11.855469 21.09375 14.078125 18.355469 14.078125 C 15.617188 14.078125 13.394531 11.855469 13.394531 9.117188 C 13.394531 6.378906 15.617188 4.15625 18.355469 4.15625 Z M 18.355469 4.15625 "/>
<path style=" stroke:none;fill-rule:nonzero;fill:rgb(73.725492%,66.666669%,64.313728%);fill-opacity:0.995763;" d="M 18.355469 5.644531 C 20.273438 5.644531 21.828125 7.199219 21.828125 9.117188 C 21.828125 11.035156 20.273438 12.589844 18.355469 12.589844 C 16.4375 12.589844 14.882812 11.035156 14.882812 9.117188 C 14.882812 7.199219 16.4375 5.644531 18.355469 5.644531 Z M 18.355469 5.644531 "/>
<path style=" stroke:none;fill-rule:nonzero;fill:rgb(47.450981%,33.333334%,28.235295%);fill-opacity:0.995763;" d="M 5.457031 4.15625 C 8.195312 4.15625 10.417969 6.378906 10.417969 9.117188 C 10.417969 11.855469 8.195312 14.078125 5.457031 14.078125 C 2.71875 14.078125 0.496094 11.855469 0.496094 9.117188 C 0.496094 6.378906 2.71875 4.15625 5.457031 4.15625 Z M 5.457031 4.15625 "/>
<path style=" stroke:none;fill-rule:nonzero;fill:rgb(73.725492%,66.666669%,64.313728%);fill-opacity:0.995763;" d="M 5.457031 5.644531 C 7.375 5.644531 8.929688 7.199219 8.929688 9.117188 C 8.929688 11.035156 7.375 12.589844 5.457031 12.589844 C 3.539062 12.589844 1.984375 11.035156 1.984375 9.117188 C 1.984375 7.199219 3.539062 5.644531 5.457031 5.644531 Z M 5.457031 5.644531 "/>
<path style=" stroke:none;fill-rule:nonzero;fill:rgb(55.29412%,43.137255%,38.82353%);fill-opacity:0.995763;" d="M 11.90625 2.667969 C 16.910156 2.667969 20.96875 6.726562 20.96875 11.730469 C 20.96875 16.734375 16.910156 20.792969 11.90625 20.792969 C 6.902344 20.792969 2.84375 16.734375 2.84375 11.730469 C 2.84375 6.726562 6.902344 2.667969 11.90625 2.667969 Z M 11.90625 2.667969 "/>
<path style=" stroke:none;fill-rule:nonzero;fill:rgb(96.078432%,96.078432%,96.078432%);fill-opacity:0.995763;" d="M 16.972656 10.53125 C 15.960938 9.519531 14.460938 9.382812 13.617188 10.226562 C 12.777344 11.070312 12.914062 12.570312 13.921875 13.582031 C 14.933594 14.589844 16.433594 14.726562 17.277344 13.886719 C 18.121094 13.042969 17.984375 11.542969 16.972656 10.53125 Z M 16.972656 10.53125 "/>
<path style=" stroke:none;fill-rule:nonzero;fill:rgb(25.882354%,25.882354%,25.882354%);fill-opacity:0.995763;" d="M 15.03125 11.179688 C 14.734375 10.882812 14.253906 10.882812 13.960938 11.179688 C 13.664062 11.476562 13.664062 11.957031 13.960938 12.253906 C 14.253906 12.550781 14.734375 12.550781 15.03125 12.253906 C 15.328125 11.957031 15.328125 11.476562 15.03125 11.179688 Z M 15.03125 11.179688 "/>
<path style=" stroke:none;fill-rule:nonzero;fill:rgb(96.078432%,96.078432%,96.078432%);fill-opacity:0.995763;" d="M 6.941406 10.53125 C 7.953125 9.519531 9.453125 9.382812 10.296875 10.226562 C 11.136719 11.070312 11 12.570312 9.992188 13.582031 C 8.980469 14.589844 7.480469 14.726562 6.636719 13.886719 C 5.796875 13.042969 5.929688 11.542969 6.941406 10.53125 Z M 6.941406 10.53125 "/>
<path style=" stroke:none;fill-rule:nonzero;fill:rgb(25.882354%,25.882354%,25.882354%);fill-opacity:0.995763;" d="M 8.882812 11.179688 C 9.179688 10.882812 9.660156 10.882812 9.957031 11.179688 C 10.25 11.476562 10.25 11.957031 9.957031 12.253906 C 9.660156 12.550781 9.179688 12.550781 8.882812 12.253906 C 8.585938 11.957031 8.585938 11.476562 8.882812 11.179688 Z M 8.882812 11.179688 "/>
<path style=" stroke:none;fill-rule:nonzero;fill:rgb(73.725492%,66.666669%,64.313728%);fill-opacity:0.995763;" d="M 11.90625 2.667969 C 9.21875 2.667969 6.808594 3.828125 5.152344 5.675781 C 5.246094 5.671875 5.339844 5.667969 5.433594 5.667969 C 9.019531 5.667969 11.90625 8.554688 11.90625 12.140625 C 11.90625 8.554688 14.792969 5.667969 18.378906 5.667969 C 18.472656 5.667969 18.566406 5.671875 18.660156 5.675781 C 17.003906 3.828125 14.59375 2.667969 11.90625 2.667969 Z M 11.90625 2.667969 "/>
<path style=" stroke:none;fill-rule:nonzero;fill:rgb(73.725492%,66.666669%,64.313728%);fill-opacity:1;" d="M 11.90625 15.378906 C 14.410156 15.378906 16.4375 16.683594 16.4375 18.292969 C 16.4375 19.898438 14.410156 21.203125 11.90625 21.203125 C 9.402344 21.203125 7.375 19.898438 7.375 18.292969 C 7.375 16.683594 9.402344 15.378906 11.90625 15.378906 Z M 11.90625 15.378906 "/>
<path style=" stroke:none;fill-rule:nonzero;fill:rgb(25.882354%,25.882354%,25.882354%);fill-opacity:1;" d="M 9.316406 18.613281 C 9.125 18.613281 8.957031 18.742188 8.902344 18.925781 C 8.847656 19.109375 8.921875 19.304688 9.082031 19.410156 C 9.839844 19.914062 10.875 20.128906 11.914062 20.128906 C 12.949219 20.128906 13.984375 19.914062 14.742188 19.410156 C 14.871094 19.324219 14.949219 19.175781 14.9375 19.019531 C 14.929688 18.867188 14.835938 18.726562 14.695312 18.660156 C 14.558594 18.589844 14.390625 18.601562 14.261719 18.691406 C 13.726562 19.046875 12.820312 19.265625 11.914062 19.265625 C 11.003906 19.265625 10.097656 19.046875 9.5625 18.691406 C 9.488281 18.640625 9.402344 18.613281 9.316406 18.613281 Z M 9.316406 18.613281 "/>
<path style=" stroke:none;fill-rule:nonzero;fill:rgb(89.803922%,45.09804%,45.09804%);fill-opacity:1;" d="M 11.90625 15.566406 C 12.453125 15.566406 12.898438 15.789062 12.898438 16.0625 C 12.898438 16.335938 12.453125 16.558594 11.90625 16.558594 C 11.359375 16.558594 10.914062 16.335938 10.914062 16.0625 C 10.914062 15.789062 11.359375 15.566406 11.90625 15.566406 Z M 11.90625 15.566406 "/>
</g>
</svg>
