<?xml version="1.0" encoding="UTF-8"?>
<svg xmlns="http://www.w3.org/2000/svg" xmlns:xlink="http://www.w3.org/1999/xlink" width="24px" height="24px" viewBox="0 0 24 24" version="1.1">
<g id="surface1">
<path style=" stroke:none;fill-rule:nonzero;fill:rgb(73.725492%,66.666669%,64.313728%);fill-opacity:1;" d="M 4.480469 11.9375 C 4.214844 12.996094 4.480469 13.796875 3.417969 15.652344 C 2.886719 15.652344 2.09375 15.914062 1.5625 15.386719 C 0.234375 14.058594 1.5625 11.40625 2.09375 10.875 C 2.886719 10.082031 3.417969 10.347656 4.480469 11.9375 Z M 4.480469 11.9375 "/>
<path style=" stroke:none;fill-rule:nonzero;fill:rgb(73.725492%,66.666669%,64.313728%);fill-opacity:1;" d="M 19.332031 11.9375 C 19.597656 12.996094 19.332031 13.796875 20.394531 15.652344 C 20.925781 15.652344 21.71875 15.914062 22.25 15.386719 C 23.578125 14.058594 22.25 11.40625 21.722656 10.875 C 20.925781 10.082031 20.394531 10.347656 19.332031 11.9375 Z M 19.332031 11.9375 "/>
<path style=" stroke:none;fill-rule:nonzero;fill:rgb(73.725492%,66.666669%,64.313728%);fill-opacity:1;" d="M 19.332031 11.9375 C 19.597656 12.996094 19.332031 13.796875 20.394531 15.652344 C 20.925781 15.652344 21.71875 15.914062 22.25 15.386719 C 23.578125 14.058594 22.25 11.40625 21.722656 10.875 C 20.925781 10.082031 20.394531 10.347656 19.332031 11.9375 Z M 19.332031 11.9375 "/>
<path style=" stroke:none;fill-rule:nonzero;fill:rgb(63.137257%,53.333336%,49.803922%);fill-opacity:1;" d="M 19.84375 12.273438 C 20.03125 13.023438 19.84375 13.585938 20.59375 14.898438 C 20.96875 14.898438 21.53125 15.085938 21.90625 14.710938 C 22.847656 13.773438 21.90625 11.894531 21.53125 11.519531 C 20.96875 10.957031 20.59375 11.144531 19.84375 12.273438 Z M 19.84375 12.273438 "/>
<path style=" stroke:none;fill-rule:nonzero;fill:rgb(63.137257%,53.333336%,49.803922%);fill-opacity:1;" d="M 3.96875 12.273438 C 3.78125 13.023438 3.96875 13.585938 3.21875 14.898438 C 2.84375 14.898438 2.28125 15.085938 1.90625 14.710938 C 0.964844 13.773438 1.90625 11.894531 2.28125 11.519531 C 2.84375 10.957031 3.21875 11.144531 3.96875 12.273438 Z M 3.96875 12.273438 "/>
<path style=" stroke:none;fill-rule:nonzero;fill:rgb(55.29412%,43.137255%,38.82353%);fill-opacity:1;" d="M 7.9375 2.667969 C 9.179688 3.660156 9.671875 4.402344 8.105469 5.40625 C 6.292969 5.859375 4.894531 6.820312 4.386719 8.753906 C 3.394531 14.589844 0.84375 15.382812 3.890625 19.101562 C 6.367188 21.75 9.621094 22.015625 11.816406 22.015625 C 14.011719 22.015625 17.261719 21.75 19.738281 19.101562 C 22.785156 15.382812 20.234375 14.589844 19.246094 8.753906 C 18.652344 6.503906 16.855469 5.570312 14.601562 5.222656 C 14.734375 4.585938 15.179688 3.71875 15.777344 2.917969 C 13.394531 3.90625 12.21875 4.390625 12.898438 2.421875 C 12.261719 2.824219 11.824219 4.851562 10.824219 4.511719 C 10.273438 3.082031 9.675781 2.421875 7.9375 2.667969 Z M 7.9375 2.667969 "/>
<path style=" stroke:none;fill-rule:nonzero;fill:rgb(84.313726%,80.000001%,78.431374%);fill-opacity:1;" d="M 11.816406 7.957031 C 10.082031 7.164062 7.820312 6.214844 5.871094 8.488281 C 4.625 10.046875 4.398438 11.625 4.964844 13.171875 C 4.277344 13.394531 3.96875 13.582031 3.890625 14.058594 C 4.589844 13.707031 4.773438 13.832031 5.128906 14.058594 C 4.492188 14.359375 4.03125 14.511719 3.644531 15.121094 C 4.09375 14.945312 4.253906 14.953125 4.464844 15.015625 C 3.984375 16.160156 4.191406 17.957031 4.878906 18.832031 C 6.128906 20.4375 9.007812 21.234375 11.816406 21.203125 C 14.621094 21.234375 17.5 20.4375 18.75 18.832031 C 19.4375 17.957031 19.648438 16.160156 19.167969 15.015625 C 18.996094 14.589844 18.75 14.324219 18.503906 14.058594 C 18.75 13.796875 18.957031 13.511719 19.84375 13.457031 C 19.597656 13.332031 19.347656 13.210938 18.664062 13.171875 C 19.230469 11.625 19.003906 10.046875 17.757812 8.488281 C 15.378906 5.894531 12.9375 7.238281 11.816406 7.957031 Z M 11.816406 7.957031 "/>
<path style=" stroke:none;fill-rule:nonzero;fill:rgb(96.078432%,96.078432%,96.078432%);fill-opacity:0.995763;" d="M 7.722656 10.117188 C 8.550781 9.289062 9.777344 9.179688 10.464844 9.867188 C 11.152344 10.554688 11.039062 11.78125 10.214844 12.605469 C 9.390625 13.429688 8.164062 13.542969 7.476562 12.855469 C 6.789062 12.167969 6.898438 10.941406 7.722656 10.117188 Z M 7.722656 10.117188 "/>
<path style=" stroke:none;fill-rule:nonzero;fill:rgb(25.882354%,25.882354%,25.882354%);fill-opacity:0.995763;" d="M 9.308594 10.644531 C 9.550781 10.402344 9.945312 10.402344 10.183594 10.644531 C 10.425781 10.886719 10.425781 11.28125 10.183594 11.519531 C 9.945312 11.761719 9.550781 11.761719 9.308594 11.519531 C 9.066406 11.28125 9.066406 10.886719 9.308594 10.644531 Z M 9.308594 10.644531 "/>
<path style=" stroke:none;fill-rule:nonzero;fill:rgb(96.078432%,96.078432%,96.078432%);fill-opacity:0.995763;" d="M 16.03125 10.117188 C 15.203125 9.289062 13.976562 9.179688 13.289062 9.867188 C 12.601562 10.554688 12.714844 11.78125 13.539062 12.605469 C 14.363281 13.429688 15.589844 13.542969 16.277344 12.855469 C 16.964844 12.167969 16.855469 10.941406 16.03125 10.117188 Z M 16.03125 10.117188 "/>
<path style=" stroke:none;fill-rule:nonzero;fill:rgb(25.882354%,25.882354%,25.882354%);fill-opacity:0.995763;" d="M 14.445312 10.644531 C 14.203125 10.402344 13.808594 10.402344 13.570312 10.644531 C 13.328125 10.886719 13.328125 11.28125 13.570312 11.519531 C 13.808594 11.761719 14.203125 11.761719 14.445312 11.519531 C 14.6875 11.28125 14.6875 10.886719 14.445312 10.644531 Z M 14.445312 10.644531 "/>
<path style=" stroke:none;fill-rule:nonzero;fill:rgb(89.803922%,45.09804%,45.09804%);fill-opacity:1;" d="M 10.914062 17.796875 C 10.960938 17.75 11.082031 17.796875 11.25 17.839844 C 11.425781 17.890625 11.644531 17.9375 11.90625 17.9375 C 12.167969 17.9375 12.386719 17.890625 12.5625 17.839844 C 12.730469 17.796875 12.851562 17.75 12.898438 17.796875 C 12.941406 17.84375 12.898438 17.980469 12.722656 18.128906 C 12.550781 18.277344 12.261719 18.410156 11.90625 18.40625 C 11.550781 18.410156 11.261719 18.277344 11.089844 18.128906 C 10.914062 17.980469 10.871094 17.84375 10.914062 17.796875 Z M 10.914062 17.796875 "/>
<path style=" stroke:none;fill-rule:nonzero;fill:rgb(42.745098%,29.803923%,25.490198%);fill-opacity:1;" d="M 11.265625 13.582031 C 11.355469 13.671875 11.273438 13.90625 11.078125 14.097656 C 10.886719 14.292969 10.65625 14.375 10.5625 14.285156 C 10.472656 14.191406 10.554688 13.960938 10.75 13.765625 C 10.941406 13.574219 11.171875 13.492188 11.265625 13.582031 Z M 11.265625 13.582031 "/>
<path style=" stroke:none;fill-rule:nonzero;fill:rgb(42.745098%,29.803923%,25.490198%);fill-opacity:1;" d="M 12.402344 13.582031 C 12.3125 13.671875 12.394531 13.90625 12.585938 14.097656 C 12.78125 14.292969 13.011719 14.375 13.105469 14.285156 C 13.195312 14.191406 13.113281 13.960938 12.917969 13.765625 C 12.726562 13.574219 12.492188 13.492188 12.402344 13.582031 Z M 12.402344 13.582031 "/>
</g>
</svg>
