<?xml version="1.0" encoding="UTF-8"?>
<svg xmlns="http://www.w3.org/2000/svg" xmlns:xlink="http://www.w3.org/1999/xlink" width="24px" height="24px" viewBox="0 0 24 24" version="1.1">
<defs>
<linearGradient id="linear0" gradientUnits="userSpaceOnUse" x1="338.666656" y1="138.25" x2="338.666656" y2="21.833334" gradientTransform="matrix(0.046875,0,0,0.046875,0,10.078125)">
<stop offset="0" style="stop-color:rgb(40.000001%,73.333335%,41.568628%);stop-opacity:1;"/>
<stop offset="1" style="stop-color:rgb(25.882354%,25.882354%,25.882354%);stop-opacity:0;"/>
</linearGradient>
</defs>
<g id="surface1">
<path style=" stroke:none;fill-rule:nonzero;fill:rgb(87.843138%,87.843138%,87.843138%);fill-opacity:1;" d="M 11.90625 1.179688 C 17.933594 1.179688 22.820312 6.066406 22.820312 12.09375 C 22.820312 18.121094 17.933594 23.007812 11.90625 23.007812 C 5.878906 23.007812 0.992188 18.121094 0.992188 12.09375 C 0.992188 6.066406 5.878906 1.179688 11.90625 1.179688 Z M 11.90625 1.179688 "/>
<path style=" stroke:none;fill-rule:nonzero;fill:rgb(25.882354%,25.882354%,25.882354%);fill-opacity:1;" d="M 11.90625 2.667969 C 17.113281 2.667969 21.332031 6.886719 21.332031 12.09375 C 21.332031 17.300781 17.113281 21.519531 11.90625 21.519531 C 6.699219 21.519531 2.480469 17.300781 2.480469 12.09375 C 2.480469 6.886719 6.699219 2.667969 11.90625 2.667969 Z M 11.90625 2.667969 "/>
<path style=" stroke:none;fill-rule:nonzero;fill:rgb(40.000001%,73.333335%,41.568628%);fill-opacity:1;" d="M 11.65625 2.667969 L 12.15625 2.667969 L 12.15625 21.519531 L 11.65625 21.519531 Z M 11.65625 2.667969 "/>
<path style=" stroke:none;fill-rule:nonzero;fill:rgb(40.000001%,73.333335%,41.568628%);fill-opacity:1;" d="M 21.332031 11.84375 L 21.332031 12.34375 L 2.480469 12.34375 L 2.480469 11.84375 Z M 21.332031 11.84375 "/>
<path style=" stroke:none;fill-rule:nonzero;fill:rgb(40.000001%,73.333335%,41.568628%);fill-opacity:1;" d="M 11.90625 6.636719 C 8.882812 6.636719 6.449219 9.070312 6.449219 12.09375 C 6.449219 15.117188 8.882812 17.550781 11.90625 17.550781 C 14.929688 17.550781 17.363281 15.117188 17.363281 12.09375 C 17.363281 9.070312 14.929688 6.636719 11.90625 6.636719 Z M 11.90625 7.132812 C 14.65625 7.132812 16.867188 9.34375 16.867188 12.09375 C 16.867188 14.84375 14.65625 17.054688 11.90625 17.054688 C 9.15625 17.054688 6.945312 14.84375 6.945312 12.09375 C 6.945312 9.34375 9.15625 7.132812 11.90625 7.132812 Z M 11.90625 7.132812 "/>
<path style=" stroke:none;fill-rule:nonzero;fill:rgb(40.000001%,73.333335%,41.568628%);fill-opacity:1;" d="M 12.402344 3.660156 L 12.402344 4.15625 L 11.410156 4.15625 L 11.410156 3.660156 Z M 12.402344 3.660156 "/>
<path style=" stroke:none;fill-rule:nonzero;fill:rgb(40.000001%,73.333335%,41.568628%);fill-opacity:1;" d="M 12.402344 5.148438 L 12.402344 5.644531 L 11.410156 5.644531 L 11.410156 5.148438 Z M 12.402344 5.148438 "/>
<path style=" stroke:none;fill-rule:nonzero;fill:rgb(40.000001%,73.333335%,41.568628%);fill-opacity:1;" d="M 12.402344 8.125 L 12.402344 8.621094 L 11.410156 8.621094 L 11.410156 8.125 Z M 12.402344 8.125 "/>
<path style=" stroke:none;fill-rule:nonzero;fill:rgb(40.000001%,73.333335%,41.568628%);fill-opacity:1;" d="M 12.402344 9.613281 L 12.402344 10.109375 L 11.410156 10.109375 L 11.410156 9.613281 Z M 12.402344 9.613281 "/>
<path style=" stroke:none;fill-rule:nonzero;fill:rgb(40.000001%,73.333335%,41.568628%);fill-opacity:1;" d="M 12.402344 14.078125 L 12.402344 14.574219 L 11.410156 14.574219 L 11.410156 14.078125 Z M 12.402344 14.078125 "/>
<path style=" stroke:none;fill-rule:nonzero;fill:rgb(40.000001%,73.333335%,41.568628%);fill-opacity:1;" d="M 12.402344 15.566406 L 12.402344 16.0625 L 11.410156 16.0625 L 11.410156 15.566406 Z M 12.402344 15.566406 "/>
<path style=" stroke:none;fill-rule:nonzero;fill:rgb(40.000001%,73.333335%,41.568628%);fill-opacity:1;" d="M 12.402344 18.542969 L 12.402344 19.039062 L 11.410156 19.039062 L 11.410156 18.542969 Z M 12.402344 18.542969 "/>
<path style=" stroke:none;fill-rule:nonzero;fill:rgb(40.000001%,73.333335%,41.568628%);fill-opacity:1;" d="M 12.402344 20.03125 L 12.402344 20.527344 L 11.410156 20.527344 L 11.410156 20.03125 Z M 12.402344 20.03125 "/>
<path style=" stroke:none;fill-rule:nonzero;fill:rgb(40.000001%,73.333335%,41.568628%);fill-opacity:1;" d="M 20.339844 12.589844 L 19.84375 12.589844 L 19.84375 11.597656 L 20.339844 11.597656 Z M 20.339844 12.589844 "/>
<path style=" stroke:none;fill-rule:nonzero;fill:rgb(40.000001%,73.333335%,41.568628%);fill-opacity:1;" d="M 18.851562 12.589844 L 18.355469 12.589844 L 18.355469 11.597656 L 18.851562 11.597656 Z M 18.851562 12.589844 "/>
<path style=" stroke:none;fill-rule:nonzero;fill:rgb(40.000001%,73.333335%,41.568628%);fill-opacity:1;" d="M 15.875 12.589844 L 15.378906 12.589844 L 15.378906 11.597656 L 15.875 11.597656 Z M 15.875 12.589844 "/>
<path style=" stroke:none;fill-rule:nonzero;fill:rgb(40.000001%,73.333335%,41.568628%);fill-opacity:1;" d="M 14.386719 12.589844 L 13.890625 12.589844 L 13.890625 11.597656 L 14.386719 11.597656 Z M 14.386719 12.589844 "/>
<path style=" stroke:none;fill-rule:nonzero;fill:rgb(40.000001%,73.333335%,41.568628%);fill-opacity:1;" d="M 9.921875 12.589844 L 9.425781 12.589844 L 9.425781 11.597656 L 9.921875 11.597656 Z M 9.921875 12.589844 "/>
<path style=" stroke:none;fill-rule:nonzero;fill:rgb(40.000001%,73.333335%,41.568628%);fill-opacity:1;" d="M 8.433594 12.589844 L 7.9375 12.589844 L 7.9375 11.597656 L 8.433594 11.597656 Z M 8.433594 12.589844 "/>
<path style=" stroke:none;fill-rule:nonzero;fill:rgb(40.000001%,73.333335%,41.568628%);fill-opacity:1;" d="M 5.457031 12.589844 L 4.960938 12.589844 L 4.960938 11.597656 L 5.457031 11.597656 Z M 5.457031 12.589844 "/>
<path style=" stroke:none;fill-rule:nonzero;fill:rgb(40.000001%,73.333335%,41.568628%);fill-opacity:1;" d="M 3.96875 12.589844 L 3.472656 12.589844 L 3.472656 11.597656 L 3.96875 11.597656 Z M 3.96875 12.589844 "/>
<path style=" stroke:none;fill-rule:nonzero;fill:rgb(10.588235%,36.862746%,12.54902%);fill-opacity:1;" d="M 7.441406 5.644531 C 7.714844 5.644531 7.9375 5.867188 7.9375 6.140625 C 7.9375 6.414062 7.714844 6.636719 7.441406 6.636719 C 7.167969 6.636719 6.945312 6.414062 6.945312 6.140625 C 6.945312 5.867188 7.167969 5.644531 7.441406 5.644531 Z M 7.441406 5.644531 "/>
<path style=" stroke:none;fill-rule:nonzero;fill:rgb(10.588235%,36.862746%,12.54902%);fill-opacity:1;" d="M 16.371094 6.636719 C 16.644531 6.636719 16.867188 6.859375 16.867188 7.132812 C 16.867188 7.40625 16.644531 7.628906 16.371094 7.628906 C 16.097656 7.628906 15.875 7.40625 15.875 7.132812 C 15.875 6.859375 16.097656 6.636719 16.371094 6.636719 Z M 16.371094 6.636719 "/>
<path style=" stroke:none;fill-rule:nonzero;fill:rgb(10.588235%,36.862746%,12.54902%);fill-opacity:1;" d="M 13.890625 13.582031 C 14.164062 13.582031 14.386719 13.804688 14.386719 14.078125 C 14.386719 14.351562 14.164062 14.574219 13.890625 14.574219 C 13.617188 14.574219 13.394531 14.351562 13.394531 14.078125 C 13.394531 13.804688 13.617188 13.582031 13.890625 13.582031 Z M 13.890625 13.582031 "/>
<path style=" stroke:none;fill-rule:nonzero;fill:rgb(10.588235%,36.862746%,12.54902%);fill-opacity:1;" d="M 5.953125 15.566406 C 6.226562 15.566406 6.449219 15.789062 6.449219 16.0625 C 6.449219 16.335938 6.226562 16.558594 5.953125 16.558594 C 5.679688 16.558594 5.457031 16.335938 5.457031 16.0625 C 5.457031 15.789062 5.679688 15.566406 5.953125 15.566406 Z M 5.953125 15.566406 "/>
<path style=" stroke:none;fill-rule:nonzero;fill:rgb(40.000001%,73.333335%,41.568628%);fill-opacity:1;" d="M 18.746094 18.582031 L 18.394531 18.933594 L 11.730469 12.269531 L 12.082031 11.917969 Z M 18.746094 18.582031 "/>
<path style=" stroke:none;fill-rule:nonzero;fill:url(#linear0);" d="M 11.90625 12.09375 L 18.570312 18.757812 C 22.265625 15.066406 22.265625 9.121094 18.570312 5.429688 Z M 11.90625 12.09375 "/>
</g>
</svg>
