<?xml version="1.0" encoding="UTF-8"?>
<svg xmlns="http://www.w3.org/2000/svg" xmlns:xlink="http://www.w3.org/1999/xlink" width="24px" height="24px" viewBox="0 0 24 24" version="1.1">
<g id="surface1">
<path style=" stroke:none;fill-rule:nonzero;fill:rgb(74.117649%,74.117649%,74.117649%);fill-opacity:1;" d="M 3.933594 3.359375 L 3.230469 4.0625 L 3.472656 4.304688 L 3.472656 19.824219 L 3.230469 20.066406 L 3.933594 20.769531 L 4.175781 20.527344 L 19.695312 20.527344 L 19.9375 20.769531 L 20.640625 20.066406 L 20.339844 19.765625 L 20.339844 4.363281 L 20.640625 4.0625 L 19.9375 3.359375 L 19.636719 3.660156 L 4.234375 3.660156 Z M 5.226562 4.652344 L 18.644531 4.652344 L 15.171875 8.125 L 8.699219 8.125 Z M 4.464844 5.296875 L 7.9375 8.769531 L 7.9375 15.359375 L 4.464844 18.832031 Z M 19.347656 5.355469 L 19.347656 18.773438 L 15.875 15.300781 L 15.875 8.828125 Z M 8.929688 9.117188 L 14.882812 9.117188 L 14.882812 15.070312 L 8.929688 15.070312 Z M 8.640625 16.0625 L 15.230469 16.0625 L 18.703125 19.535156 L 5.167969 19.535156 Z M 8.640625 16.0625 "/>
<path style=" stroke:none;fill-rule:nonzero;fill:rgb(87.843138%,87.843138%,87.843138%);fill-opacity:1;" d="M 3.96875 1.179688 C 5.613281 1.179688 6.945312 2.511719 6.945312 4.15625 C 6.945312 5.800781 5.613281 7.132812 3.96875 7.132812 C 2.324219 7.132812 0.992188 5.800781 0.992188 4.15625 C 0.992188 2.511719 2.324219 1.179688 3.96875 1.179688 Z M 3.96875 1.179688 "/>
<path style=" stroke:none;fill-rule:nonzero;fill:rgb(87.843138%,87.843138%,87.843138%);fill-opacity:1;" d="M 19.84375 1.179688 C 21.488281 1.179688 22.820312 2.511719 22.820312 4.15625 C 22.820312 5.800781 21.488281 7.132812 19.84375 7.132812 C 18.199219 7.132812 16.867188 5.800781 16.867188 4.15625 C 16.867188 2.511719 18.199219 1.179688 19.84375 1.179688 Z M 19.84375 1.179688 "/>
<path style=" stroke:none;fill-rule:nonzero;fill:rgb(87.843138%,87.843138%,87.843138%);fill-opacity:1;" d="M 19.84375 17.054688 C 21.488281 17.054688 22.820312 18.386719 22.820312 20.03125 C 22.820312 21.675781 21.488281 23.007812 19.84375 23.007812 C 18.199219 23.007812 16.867188 21.675781 16.867188 20.03125 C 16.867188 18.386719 18.199219 17.054688 19.84375 17.054688 Z M 19.84375 17.054688 "/>
<path style=" stroke:none;fill-rule:nonzero;fill:rgb(87.843138%,87.843138%,87.843138%);fill-opacity:1;" d="M 3.96875 17.054688 C 5.613281 17.054688 6.945312 18.386719 6.945312 20.03125 C 6.945312 21.675781 5.613281 23.007812 3.96875 23.007812 C 2.324219 23.007812 0.992188 21.675781 0.992188 20.03125 C 0.992188 18.386719 2.324219 17.054688 3.96875 17.054688 Z M 3.96875 17.054688 "/>
<path style=" stroke:none;fill-rule:nonzero;fill:rgb(87.843138%,87.843138%,87.843138%);fill-opacity:1;" d="M 8.433594 14.078125 C 9.253906 14.078125 9.921875 14.746094 9.921875 15.566406 C 9.921875 16.386719 9.253906 17.054688 8.433594 17.054688 C 7.613281 17.054688 6.945312 16.386719 6.945312 15.566406 C 6.945312 14.746094 7.613281 14.078125 8.433594 14.078125 Z M 8.433594 14.078125 "/>
<path style=" stroke:none;fill-rule:nonzero;fill:rgb(87.843138%,87.843138%,87.843138%);fill-opacity:1;" d="M 15.378906 14.078125 C 16.199219 14.078125 16.867188 14.746094 16.867188 15.566406 C 16.867188 16.386719 16.199219 17.054688 15.378906 17.054688 C 14.558594 17.054688 13.890625 16.386719 13.890625 15.566406 C 13.890625 14.746094 14.558594 14.078125 15.378906 14.078125 Z M 15.378906 14.078125 "/>
<path style=" stroke:none;fill-rule:nonzero;fill:rgb(87.843138%,87.843138%,87.843138%);fill-opacity:1;" d="M 15.378906 7.132812 C 16.199219 7.132812 16.867188 7.800781 16.867188 8.621094 C 16.867188 9.441406 16.199219 10.109375 15.378906 10.109375 C 14.558594 10.109375 13.890625 9.441406 13.890625 8.621094 C 13.890625 7.800781 14.558594 7.132812 15.378906 7.132812 Z M 15.378906 7.132812 "/>
<path style=" stroke:none;fill-rule:nonzero;fill:rgb(87.843138%,87.843138%,87.843138%);fill-opacity:1;" d="M 8.433594 7.132812 C 9.253906 7.132812 9.921875 7.800781 9.921875 8.621094 C 9.921875 9.441406 9.253906 10.109375 8.433594 10.109375 C 7.613281 10.109375 6.945312 9.441406 6.945312 8.621094 C 6.945312 7.800781 7.613281 7.132812 8.433594 7.132812 Z M 8.433594 7.132812 "/>
</g>
</svg>
