<?xml version="1.0" encoding="UTF-8"?>
<svg xmlns="http://www.w3.org/2000/svg" xmlns:xlink="http://www.w3.org/1999/xlink" width="24px" height="24px" viewBox="0 0 24 24" version="1.1">
<g id="surface1">
<path style=" stroke:none;fill-rule:nonzero;fill:rgb(36.078432%,41.960785%,75.294119%);fill-opacity:1;" d="M 3.96875 17.621094 C 3.695312 17.621094 3.476562 17.839844 3.476562 18.113281 L 3.476562 22.015625 C 3.476562 22.390625 3.878906 22.628906 4.207031 22.445312 L 8.671875 19.535156 C 8.828125 19.449219 8.925781 19.285156 8.925781 19.105469 L 8.925781 18.113281 C 8.925781 17.839844 8.707031 17.621094 8.433594 17.621094 Z M 3.96875 17.621094 "/>
<path style=" stroke:none;fill-rule:nonzero;fill:rgb(36.078432%,41.960785%,75.294119%);fill-opacity:1;" d="M 1.984375 1.675781 C 1.433594 1.675781 0.992188 2.117188 0.992188 2.667969 L 0.992188 18.542969 C 0.992188 19.09375 1.433594 19.535156 1.984375 19.535156 L 21.828125 19.535156 C 22.378906 19.535156 22.820312 19.09375 22.820312 18.542969 L 22.820312 2.667969 C 22.820312 2.117188 22.378906 1.675781 21.828125 1.675781 Z M 1.984375 1.675781 "/>
<path style=" stroke:none;fill-rule:nonzero;fill:rgb(14.901961%,77.64706%,85.490197%);fill-opacity:1;" d="M 1.984375 1.675781 C 1.433594 1.675781 0.992188 2.117188 0.992188 2.667969 L 0.992188 18.542969 C 0.992188 19.09375 1.433594 19.535156 1.984375 19.535156 L 17.484375 19.535156 C 20.84375 16.117188 21.722656 10.191406 18.371094 6.445312 C 16.988281 4.894531 14.945312 3.972656 12.925781 3.949219 C 11.425781 3.9375 9.625 4.421875 8.429688 5.519531 C 6.5625 7.238281 6.007812 10.785156 7.859375 12.730469 C 9.050781 13.984375 11.507812 14.351562 12.816406 13.054688 C 13.632812 12.25 13.863281 10.636719 12.984375 9.785156 C 12.460938 9.28125 11.539062 9.136719 11.007812 9.71875 C 10.707031 10.046875 10.628906 10.613281 10.992188 10.925781 C 11.1875 11.09375 11.519531 11.132812 11.691406 10.914062 C 11.777344 10.808594 11.800781 10.621094 11.675781 10.535156 C 11.621094 10.496094 11.527344 10.488281 11.488281 10.550781 C 11.472656 10.578125 11.46875 10.621094 11.5 10.636719 C 11.511719 10.644531 11.539062 10.644531 11.539062 10.628906 L 11.539062 10.617188 C 11.519531 10.617188 11.539062 10.609375 11.539062 10.609375 C 11.546875 10.605469 11.566406 10.613281 11.566406 10.625 C 11.570312 10.660156 11.542969 10.6875 11.511719 10.695312 C 11.433594 10.710938 11.378906 10.640625 11.363281 10.574219 C 11.335938 10.421875 11.480469 10.304688 11.621094 10.292969 C 11.898438 10.257812 12.105469 10.523438 12.125 10.777344 C 12.160156 11.257812 11.699219 11.601562 11.257812 11.625 C 10.472656 11.65625 9.925781 10.910156 9.910156 10.179688 C 9.886719 8.957031 11.0625 8.222656 12.207031 8.226562 C 14.050781 8.238281 15.308594 9.898438 15.261719 11.628906 C 15.195312 14.3125 12.605469 16.503906 10.066406 16.398438 C 6.253906 16.238281 3.3125 12.167969 3.515625 8.558594 C 3.683594 5.5625 5.539062 3.144531 8.03125 1.675781 Z M 1.984375 1.675781 "/>
</g>
</svg>
