<?xml version="1.0" encoding="UTF-8"?>
<svg xmlns="http://www.w3.org/2000/svg" xmlns:xlink="http://www.w3.org/1999/xlink" width="24px" height="24px" viewBox="0 0 24 24" version="1.1">
<g id="surface1">
<path style=" stroke:none;fill-rule:nonzero;fill:rgb(49.411765%,34.117648%,76.078433%);fill-opacity:1;" d="M 11.90625 1.179688 C 17.933594 1.179688 22.820312 6.066406 22.820312 12.09375 C 22.820312 18.121094 17.933594 23.007812 11.90625 23.007812 C 5.878906 23.007812 0.992188 18.121094 0.992188 12.09375 C 0.992188 6.066406 5.878906 1.179688 11.90625 1.179688 Z M 11.90625 1.179688 "/>
<path style=" stroke:none;fill-rule:nonzero;fill:rgb(93.333334%,93.333334%,93.333334%);fill-opacity:1;" d="M 11.90625 1.675781 C 17.660156 1.675781 22.324219 6.339844 22.324219 12.09375 C 22.324219 17.847656 17.660156 22.511719 11.90625 22.511719 C 6.152344 22.511719 1.488281 17.847656 1.488281 12.09375 C 1.488281 6.339844 6.152344 1.675781 11.90625 1.675781 Z M 11.90625 1.675781 "/>
<path style=" stroke:none;fill-rule:nonzero;fill:rgb(49.411765%,34.117648%,76.078433%);fill-opacity:1;" d="M 11.90625 2.667969 C 17.113281 2.667969 21.332031 6.886719 21.332031 12.09375 C 21.332031 17.300781 17.113281 21.519531 11.90625 21.519531 C 6.699219 21.519531 2.480469 17.300781 2.480469 12.09375 C 2.480469 6.886719 6.699219 2.667969 11.90625 2.667969 Z M 11.90625 2.667969 "/>
<path style=" stroke:none;fill-rule:nonzero;fill:rgb(93.333334%,93.333334%,93.333334%);fill-opacity:1;" d="M 7.9375 5.644531 C 8.621094 5.644531 9.175781 6.199219 9.175781 6.886719 C 9.175781 7.570312 8.621094 8.125 7.9375 8.125 C 7.253906 8.125 6.695312 7.570312 6.695312 6.886719 C 6.695312 6.199219 7.253906 5.644531 7.9375 5.644531 Z M 7.9375 5.644531 "/>
<path style=" stroke:none;fill-rule:nonzero;fill:rgb(93.333334%,93.333334%,93.333334%);fill-opacity:1;" d="M 5.457031 9.859375 C 6.003906 9.859375 6.449219 10.304688 6.449219 10.851562 C 6.449219 11.402344 6.003906 11.84375 5.457031 11.84375 C 4.910156 11.84375 4.464844 11.402344 4.464844 10.851562 C 4.464844 10.304688 4.910156 9.859375 5.457031 9.859375 Z M 5.457031 9.859375 "/>
<path style=" stroke:none;fill-rule:nonzero;fill:rgb(93.333334%,93.333334%,93.333334%);fill-opacity:1;" d="M 11.90625 6.886719 C 12.179688 6.886719 12.402344 7.105469 12.402344 7.382812 C 12.402344 7.65625 12.179688 7.878906 11.90625 7.878906 C 11.632812 7.878906 11.410156 7.65625 11.410156 7.382812 C 11.410156 7.105469 11.632812 6.886719 11.90625 6.886719 Z M 11.90625 6.886719 "/>
<path style=" stroke:none;fill-rule:nonzero;fill:rgb(93.333334%,93.333334%,93.333334%);fill-opacity:1;" d="M 14.140625 11.101562 C 14.550781 11.101562 14.882812 11.433594 14.882812 11.84375 C 14.882812 12.257812 14.550781 12.589844 14.140625 12.589844 C 13.726562 12.589844 13.394531 12.257812 13.394531 11.84375 C 13.394531 11.433594 13.726562 11.101562 14.140625 11.101562 Z M 14.140625 11.101562 "/>
<path style=" stroke:none;fill-rule:nonzero;fill:rgb(93.333334%,93.333334%,93.333334%);fill-opacity:1;" d="M 11.660156 14.574219 C 12.617188 14.574219 13.394531 15.351562 13.394531 16.3125 C 13.394531 17.269531 12.617188 18.046875 11.660156 18.046875 C 10.699219 18.046875 9.921875 17.269531 9.921875 16.3125 C 9.921875 15.351562 10.699219 14.574219 11.660156 14.574219 Z M 11.660156 14.574219 "/>
<path style=" stroke:none;fill-rule:nonzero;fill:rgb(93.333334%,93.333334%,93.333334%);fill-opacity:1;" d="M 14.636719 19.039062 C 15.046875 19.039062 15.378906 19.371094 15.378906 19.785156 C 15.378906 20.195312 15.046875 20.527344 14.636719 20.527344 C 14.222656 20.527344 13.890625 20.195312 13.890625 19.785156 C 13.890625 19.371094 14.222656 19.039062 14.636719 19.039062 Z M 14.636719 19.039062 "/>
<path style=" stroke:none;fill-rule:nonzero;fill:rgb(93.333334%,93.333334%,93.333334%);fill-opacity:1;" d="M 18.605469 15.566406 C 19.015625 15.566406 19.347656 15.898438 19.347656 16.308594 C 19.347656 16.722656 19.015625 17.054688 18.605469 17.054688 C 18.191406 17.054688 17.859375 16.722656 17.859375 16.308594 C 17.859375 15.898438 18.191406 15.566406 18.605469 15.566406 Z M 18.605469 15.566406 "/>
</g>
</svg>
