
<svg xmlns="http://www.w3.org/2000/svg" xmlns:xlink="http://www.w3.org/1999/xlink" width="24px" height="24px" viewBox="0 0 24 24" version="1.1">
<g id="surface1">
<path style="fill-rule:nonzero;fill:rgb(38.039216%,38.039216%,38.039216%);fill-opacity:1;stroke-width:0.999999;stroke-linecap:butt;stroke-linejoin:miter;stroke:rgb(0%,0%,0%);stroke-opacity:1;stroke-miterlimit:4;" d="M 806.299255 185.826781 C 720.000038 320.000017 214.17324 515.275618 158.740166 701.102399 C 69.921264 998.110289 160.000008 1480.000078 320.000017 1760.000093 C 576.377983 1832.756002 637.165388 1826.141828 960.00005 1840.000097 C 1282.834713 1826.141828 1383.62212 1832.756002 1640.000086 1760.000093 C 1760.000093 1440.000076 1840.000097 1320.000069 1761.259935 701.102399 C 1737.007965 508.976405 1232.75597 292.28348 1113.700846 185.826781 C 1040.000055 120.000006 1040.000055 80.000004 960.00005 80.000004 C 880.000046 80.000004 833.07091 144.566937 806.299255 185.826781 Z M 806.299255 185.826781 " transform="matrix(0.0124023,0,0,0.0124023,0,0)"/>
<path style="fill-rule:nonzero;fill:rgb(25.882354%,25.882354%,25.882354%);fill-opacity:1;stroke-width:0.238125;stroke-linecap:butt;stroke-linejoin:miter;stroke:rgb(0%,0%,0%);stroke-opacity:1;stroke-miterlimit:4;" d="M 217.333333 -145.333333 C 196.833333 -113.416667 76.333333 -66.833333 63.083333 -22.583333 C 42 48.083333 63.416667 186.083333 101.583333 252.75 C 162.583333 270.083333 177.083333 268.5 253.916667 271.833333 C 330.833333 268.5 354.833333 270.083333 415.916667 252.75 C 444.416667 176.583333 463.5 124.75 444.75 -22.583333 C 439 -68.416667 318.833333 -120 290.583333 -145.333333 C 273 -161 273 -170.583333 253.916667 -170.583333 C 234.916667 -170.583333 223.75 -155.166667 217.333333 -145.333333 Z M 217.333333 -145.333333 " transform="matrix(0.046875,0,0,0.046875,0,10.078125)"/>
<path style=" stroke:none;fill-rule:nonzero;fill:rgb(87.843138%,87.843138%,87.843138%);fill-opacity:1;" d="M 11.90625 4.464844 C 11.878906 4.464844 11.855469 4.464844 11.828125 4.464844 C 8.015625 4.507812 4.960938 7.589844 4.960938 11.410156 C 4.960938 11.425781 4.960938 11.441406 4.960938 11.457031 C 4.347656 12.082031 3.96875 12.941406 3.96875 13.890625 C 3.96875 15.570312 5.148438 16.964844 6.726562 17.289062 C 7.9375 17.859375 6.4375 19.398438 7.042969 20.757812 C 7.589844 21.984375 10.914062 22.324219 11.90625 22.324219 C 12.898438 22.324219 16.222656 21.984375 16.769531 20.757812 C 17.375 19.398438 15.875 17.859375 17.085938 17.289062 C 18.664062 16.964844 19.84375 15.570312 19.84375 13.890625 C 19.84375 12.941406 19.464844 12.082031 18.851562 11.457031 C 18.851562 11.441406 18.851562 11.425781 18.851562 11.410156 C 18.851562 7.589844 15.796875 4.507812 11.984375 4.464844 C 11.957031 4.464844 11.933594 4.464844 11.90625 4.464844 Z M 11.90625 4.464844 "/>
<path style=" stroke:none;fill-rule:nonzero;fill:rgb(96.078432%,96.078432%,96.078432%);fill-opacity:1;" d="M 10.617188 9.40625 C 11.328125 8.996094 11.683594 8.277344 11.410156 7.804688 C 11.136719 7.328125 10.335938 7.277344 9.625 7.691406 C 8.914062 8.101562 8.558594 8.816406 8.832031 9.292969 C 9.105469 9.765625 9.90625 9.820312 10.617188 9.40625 Z M 10.617188 9.40625 "/>
<path style=" stroke:none;fill-rule:nonzero;fill:rgb(96.078432%,96.078432%,96.078432%);fill-opacity:1;" d="M 13.195312 7.6875 C 12.484375 8.101562 12.128906 8.816406 12.402344 9.292969 C 12.675781 9.765625 13.476562 9.820312 14.1875 9.40625 C 14.898438 8.996094 15.253906 8.277344 14.980469 7.804688 C 14.707031 7.328125 13.90625 7.277344 13.195312 7.6875 Z M 13.195312 7.6875 "/>
<path style=" stroke:none;fill-rule:nonzero;fill:rgb(96.078432%,96.078432%,96.078432%);fill-opacity:1;" d="M 11.324219 7.917969 C 11.066406 8.203125 10.9375 8.699219 11.035156 9.027344 C 11.136719 9.355469 11.425781 9.390625 11.6875 9.105469 C 11.945312 8.824219 12.074219 8.328125 11.972656 8 C 11.875 7.671875 11.582031 7.636719 11.324219 7.917969 Z M 11.324219 7.917969 "/>
<path style=" stroke:none;fill-rule:nonzero;fill:rgb(74.117649%,74.117649%,74.117649%);fill-opacity:1;" d="M 11.972656 16.085938 C 10.257812 16.085938 9.425781 17.363281 6.945312 17.363281 C 7.238281 18.089844 6.550781 19.652344 7.042969 20.757812 C 7.589844 21.984375 10.914062 22.324219 11.90625 22.324219 C 12.898438 22.324219 16.222656 21.984375 16.769531 20.757812 C 17.261719 19.652344 16.574219 18.089844 16.867188 17.363281 C 13.890625 17.363281 13.6875 16.085938 11.972656 16.085938 Z M 11.972656 16.085938 "/>
<path style=" stroke:none;fill-rule:nonzero;fill:rgb(25.882354%,25.882354%,25.882354%);fill-opacity:1;" d="M 9.054688 18.601562 C 9.394531 18.601562 9.675781 18.992188 9.675781 19.472656 C 9.675781 19.949219 9.394531 20.339844 9.054688 20.339844 C 8.710938 20.339844 8.433594 19.949219 8.433594 19.472656 C 8.433594 18.992188 8.710938 18.601562 9.054688 18.601562 Z M 9.054688 18.601562 "/>
<path style=" stroke:none;fill-rule:nonzero;fill:rgb(25.882354%,25.882354%,25.882354%);fill-opacity:1;" d="M 11.039062 18.601562 C 11.378906 18.601562 11.65625 18.992188 11.65625 19.472656 C 11.65625 19.949219 11.378906 20.339844 11.039062 20.339844 C 10.695312 20.339844 10.417969 19.949219 10.417969 19.472656 C 10.417969 18.992188 10.695312 18.601562 11.039062 18.601562 Z M 11.039062 18.601562 "/>
<path style=" stroke:none;fill-rule:nonzero;fill:rgb(25.882354%,25.882354%,25.882354%);fill-opacity:1;" d="M 13.109375 18.355469 C 13.40625 18.355469 13.640625 18.6875 13.640625 19.097656 C 13.640625 19.511719 13.40625 19.84375 13.109375 19.84375 C 12.816406 19.84375 12.578125 19.511719 12.578125 19.097656 C 12.578125 18.6875 12.816406 18.355469 13.109375 18.355469 Z M 13.109375 18.355469 "/>
<path style=" stroke:none;fill-rule:nonzero;fill:rgb(25.882354%,25.882354%,25.882354%);fill-opacity:1;" d="M 15.09375 17.609375 C 15.390625 17.609375 15.628906 17.945312 15.628906 18.355469 C 15.628906 18.765625 15.390625 19.097656 15.09375 19.097656 C 14.800781 19.097656 14.5625 18.765625 14.5625 18.355469 C 14.5625 17.945312 14.800781 17.609375 15.09375 17.609375 Z M 15.09375 17.609375 "/>
<path style=" stroke:none;fill-rule:nonzero;fill:rgb(25.882354%,25.882354%,25.882354%);fill-opacity:1;" d="M 7.691406 11.90625 C 6.863281 11.90625 6.203125 12.570312 6.203125 13.394531 C 6.203125 14.21875 6.863281 14.882812 7.691406 14.882812 C 8.683594 14.882812 10.171875 14.632812 10.667969 13.394531 C 11.164062 12.152344 8.929688 11.90625 7.691406 11.90625 Z M 7.691406 11.90625 "/>
<path style=" stroke:none;fill-rule:nonzero;fill:rgb(25.882354%,25.882354%,25.882354%);fill-opacity:1;" d="M 15.875 11.90625 C 16.699219 11.90625 17.363281 12.570312 17.363281 13.394531 C 17.363281 14.21875 16.699219 13.394531 15.875 13.394531 C 14.882812 13.394531 13.394531 14.632812 12.898438 13.394531 C 12.402344 12.152344 14.632812 11.90625 15.875 11.90625 Z M 15.875 11.90625 "/>
<path style=" stroke:none;fill-rule:nonzero;fill:rgb(96.078432%,96.078432%,96.078432%);fill-opacity:1;" d="M 12.015625 8.082031 C 11.816406 8.300781 11.71875 8.679688 11.792969 8.929688 C 11.871094 9.183594 12.09375 9.210938 12.292969 8.992188 C 12.488281 8.773438 12.589844 8.394531 12.511719 8.144531 C 12.4375 7.894531 12.214844 7.867188 12.015625 8.082031 Z M 12.015625 8.082031 "/>
</g>
</svg>
