<?xml version="1.0" encoding="UTF-8"?>
<svg xmlns="http://www.w3.org/2000/svg" xmlns:xlink="http://www.w3.org/1999/xlink" width="24px" height="24px" viewBox="0 0 24 24" version="1.1">
<g id="surface1">
<path style=" stroke:none;fill-rule:nonzero;fill:rgb(61.176473%,15.294118%,69.01961%);fill-opacity:1;" d="M 3.96875 17.621094 C 3.695312 17.621094 3.476562 17.839844 3.476562 18.113281 L 3.476562 22.015625 C 3.476562 22.390625 3.878906 22.628906 4.207031 22.445312 L 8.671875 19.535156 C 8.828125 19.449219 8.925781 19.285156 8.925781 19.105469 L 8.925781 18.113281 C 8.925781 17.839844 8.707031 17.621094 8.433594 17.621094 Z M 3.96875 17.621094 "/>
<path style=" stroke:none;fill-rule:nonzero;fill:rgb(67.058825%,27.843139%,73.725492%);fill-opacity:1;" d="M 1.984375 1.675781 L 21.828125 1.675781 C 22.375 1.675781 22.820312 2.121094 22.820312 2.667969 L 22.820312 18.542969 C 22.820312 19.089844 22.375 19.535156 21.828125 19.535156 L 1.984375 19.535156 C 1.4375 19.535156 0.992188 19.089844 0.992188 18.542969 L 0.992188 2.667969 C 0.992188 2.121094 1.4375 1.675781 1.984375 1.675781 Z M 1.984375 1.675781 "/>
<path style=" stroke:none;fill-rule:nonzero;fill:rgb(93.333334%,93.333334%,93.333334%);fill-opacity:1;" d="M 7.9375 9.117188 C 8.757812 9.117188 9.425781 9.785156 9.425781 10.605469 C 9.425781 11.425781 8.757812 12.09375 7.9375 12.09375 C 7.117188 12.09375 6.449219 11.425781 6.449219 10.605469 C 6.449219 9.785156 7.117188 9.117188 7.9375 9.117188 Z M 7.9375 9.117188 "/>
<path style=" stroke:none;fill-rule:nonzero;fill:rgb(93.333334%,93.333334%,93.333334%);fill-opacity:1;" d="M 11.90625 9.117188 C 12.726562 9.117188 13.394531 9.785156 13.394531 10.605469 C 13.394531 11.425781 12.726562 12.09375 11.90625 12.09375 C 11.085938 12.09375 10.417969 11.425781 10.417969 10.605469 C 10.417969 9.785156 11.085938 9.117188 11.90625 9.117188 Z M 11.90625 9.117188 "/>
<path style=" stroke:none;fill-rule:nonzero;fill:rgb(93.333334%,93.333334%,93.333334%);fill-opacity:1;" d="M 15.875 9.117188 C 16.695312 9.117188 17.363281 9.785156 17.363281 10.605469 C 17.363281 11.425781 16.695312 12.09375 15.875 12.09375 C 15.054688 12.09375 14.386719 11.425781 14.386719 10.605469 C 14.386719 9.785156 15.054688 9.117188 15.875 9.117188 Z M 15.875 9.117188 "/>
</g>
</svg>
