<?xml version="1.0" encoding="UTF-8"?>
<svg xmlns="http://www.w3.org/2000/svg" xmlns:xlink="http://www.w3.org/1999/xlink" width="24px" height="24px" viewBox="0 0 24 24" version="1.1">
<g id="surface1">
<path style=" stroke:none;fill-rule:nonzero;fill:rgb(40.000001%,73.333335%,41.568628%);fill-opacity:1;" d="M 11.90625 1.179688 C 17.933594 1.179688 22.820312 6.066406 22.820312 12.09375 C 22.820312 18.121094 17.933594 23.007812 11.90625 23.007812 C 5.878906 23.007812 0.992188 18.121094 0.992188 12.09375 C 0.992188 6.066406 5.878906 1.179688 11.90625 1.179688 Z M 11.90625 1.179688 "/>
<path style=" stroke:none;fill-rule:nonzero;fill:rgb(93.333334%,93.333334%,93.333334%);fill-opacity:1;" d="M 11.90625 1.675781 C 17.660156 1.675781 22.324219 6.339844 22.324219 12.09375 C 22.324219 17.847656 17.660156 22.511719 11.90625 22.511719 C 6.152344 22.511719 1.488281 17.847656 1.488281 12.09375 C 1.488281 6.339844 6.152344 1.675781 11.90625 1.675781 Z M 11.90625 1.675781 "/>
<path style=" stroke:none;fill-rule:nonzero;fill:rgb(40.000001%,73.333335%,41.568628%);fill-opacity:1;" d="M 11.90625 2.667969 C 17.113281 2.667969 21.332031 6.886719 21.332031 12.09375 C 21.332031 17.300781 17.113281 21.519531 11.90625 21.519531 C 6.699219 21.519531 2.480469 17.300781 2.480469 12.09375 C 2.480469 6.886719 6.699219 2.667969 11.90625 2.667969 Z M 11.90625 2.667969 "/>
<path style=" stroke:none;fill-rule:nonzero;fill:rgb(93.333334%,93.333334%,93.333334%);fill-opacity:1;" d="M 7.6875 8.621094 C 5.628906 8.621094 3.96875 10.167969 3.96875 12.09375 C 3.96875 14.019531 5.628906 15.566406 7.6875 15.566406 C 8.527344 15.566406 9.300781 15.308594 9.921875 14.875 L 9.921875 19.535156 C 9.921875 19.808594 10.144531 20.03125 10.417969 20.03125 L 10.914062 20.03125 C 11.1875 20.03125 11.410156 19.808594 11.410156 19.535156 L 11.410156 9.117188 C 11.410156 8.84375 11.1875 8.621094 10.914062 8.621094 L 10.417969 8.621094 C 10.144531 8.621094 9.921875 8.84375 9.921875 9.117188 L 9.921875 9.3125 C 9.300781 8.878906 8.527344 8.621094 7.6875 8.621094 Z M 7.6875 10.109375 C 8.925781 10.109375 9.921875 10.996094 9.921875 12.09375 C 9.921875 13.191406 8.925781 14.078125 7.6875 14.078125 C 6.453125 14.078125 5.457031 13.191406 5.457031 12.09375 C 5.457031 10.996094 6.453125 10.109375 7.6875 10.109375 Z M 7.6875 10.109375 "/>
<path style=" stroke:none;fill-rule:nonzero;fill:rgb(93.333334%,93.333334%,93.333334%);fill-opacity:1;" d="M 12.898438 4.15625 C 12.625 4.15625 12.402344 4.378906 12.402344 4.652344 L 12.402344 11.597656 C 12.402344 11.644531 12.410156 11.691406 12.421875 11.734375 C 12.410156 11.851562 12.402344 11.972656 12.402344 12.09375 C 12.402344 14.019531 14.0625 15.566406 16.121094 15.566406 C 18.183594 15.566406 19.84375 14.019531 19.84375 12.09375 C 19.84375 11.820312 19.621094 11.597656 19.347656 11.597656 L 18.851562 11.597656 C 18.578125 11.597656 18.355469 11.820312 18.355469 12.09375 C 18.355469 13.191406 17.359375 14.078125 16.121094 14.078125 C 14.886719 14.078125 13.890625 13.191406 13.890625 12.09375 L 13.890625 10.109375 L 16.867188 10.109375 C 17.140625 10.109375 17.363281 9.886719 17.363281 9.613281 L 17.363281 9.117188 C 17.363281 8.84375 17.140625 8.621094 16.867188 8.621094 L 13.890625 8.621094 L 13.890625 4.652344 C 13.890625 4.378906 13.667969 4.15625 13.394531 4.15625 Z M 12.898438 4.15625 "/>
<path style=" stroke:none;fill-rule:nonzero;fill:rgb(100%,43.921569%,26.274511%);fill-opacity:1;" d="M 13.890625 16.0625 C 13.890625 15.789062 14.113281 15.566406 14.386719 15.566406 L 19.84375 15.566406 L 19.84375 14.574219 L 22.820312 16.558594 L 19.84375 18.542969 L 19.84375 17.550781 L 14.386719 17.550781 C 14.113281 17.550781 13.890625 17.328125 13.890625 17.054688 Z M 13.890625 16.0625 "/>
<path style=" stroke:none;fill-rule:nonzero;fill:rgb(92.54902%,25.098041%,47.843137%);fill-opacity:1;" d="M 21.828125 20.527344 C 21.828125 20.253906 21.605469 20.03125 21.332031 20.03125 L 15.875 20.03125 L 15.875 19.039062 L 12.898438 21.023438 L 15.875 23.007812 L 15.875 22.015625 L 21.332031 22.015625 C 21.605469 22.015625 21.828125 21.792969 21.828125 21.519531 Z M 21.828125 20.527344 "/>
</g>
</svg>
