
<svg xmlns="http://www.w3.org/2000/svg" xmlns:xlink="http://www.w3.org/1999/xlink" width="24px" height="24px" viewBox="0 0 24 24" version="1.1">
<g id="surface1">
<path style=" stroke:none;fill-rule:nonzero;fill:rgb(74.117649%,74.117649%,74.117649%);fill-opacity:1;" d="M 3.96875 1.179688 L 19.84375 1.179688 C 20.390625 1.179688 20.835938 1.625 20.835938 2.171875 L 20.835938 22.015625 C 20.835938 22.5625 20.390625 23.007812 19.84375 23.007812 L 3.96875 23.007812 C 3.421875 23.007812 2.976562 22.5625 2.976562 22.015625 L 2.976562 2.171875 C 2.976562 1.625 3.421875 1.179688 3.96875 1.179688 Z M 3.96875 1.179688 "/>
<path style=" stroke:none;fill-rule:nonzero;fill:rgb(93.333334%,93.333334%,93.333334%);fill-opacity:1;" d="M 11.90625 5.644531 C 16.289062 5.644531 19.84375 9.199219 19.84375 13.582031 C 19.84375 17.964844 16.289062 21.519531 11.90625 21.519531 C 7.523438 21.519531 3.96875 17.964844 3.96875 13.582031 C 3.96875 9.199219 7.523438 5.644531 11.90625 5.644531 Z M 11.90625 5.644531 "/>
<path style=" stroke:none;fill-rule:nonzero;fill:rgb(25.882354%,25.882354%,25.882354%);fill-opacity:1;" d="M 11.90625 7.132812 C 15.46875 7.132812 18.355469 10.019531 18.355469 13.582031 C 18.355469 17.144531 15.46875 20.03125 11.90625 20.03125 C 8.34375 20.03125 5.457031 17.144531 5.457031 13.582031 C 5.457031 10.019531 8.34375 7.132812 11.90625 7.132812 Z M 11.90625 7.132812 "/>
<path style=" stroke:none;fill-rule:nonzero;fill:rgb(100%,65.490198%,14.901961%);fill-opacity:1;" d="M 11.90625 8.125 C 14.921875 8.125 17.363281 10.566406 17.363281 13.582031 C 17.363281 16.597656 14.921875 19.039062 11.90625 19.039062 C 8.890625 19.039062 6.449219 16.597656 6.449219 13.582031 C 6.449219 10.566406 8.890625 8.125 11.90625 8.125 Z M 11.90625 8.125 "/>
<path style=" stroke:none;fill-rule:nonzero;fill:rgb(25.882354%,25.882354%,25.882354%);fill-opacity:1;" d="M 11.90625 11.101562 C 13.277344 11.101562 14.386719 12.210938 14.386719 13.582031 C 14.386719 14.953125 13.277344 16.0625 11.90625 16.0625 C 10.535156 16.0625 9.425781 14.953125 9.425781 13.582031 C 9.425781 12.210938 10.535156 11.101562 11.90625 11.101562 Z M 11.90625 11.101562 "/>
<path style=" stroke:none;fill-rule:nonzero;fill:rgb(61.960787%,61.960787%,61.960787%);fill-opacity:1;" d="M 17.300781 8.125 C 17.445312 8.273438 17.445312 8.507812 17.300781 8.652344 C 17.15625 8.796875 16.917969 8.796875 16.773438 8.652344 C 16.628906 8.507812 16.628906 8.273438 16.773438 8.125 C 16.917969 7.980469 17.15625 7.980469 17.300781 8.125 Z M 17.300781 8.125 "/>
<path style=" stroke:none;fill-rule:nonzero;fill:rgb(61.960787%,61.960787%,61.960787%);fill-opacity:1;" d="M 17.210938 18.386719 C 17.355469 18.53125 17.355469 18.769531 17.210938 18.914062 C 17.066406 19.058594 16.832031 19.058594 16.6875 18.914062 C 16.539062 18.769531 16.539062 18.53125 16.6875 18.386719 C 16.832031 18.242188 17.066406 18.242188 17.210938 18.386719 Z M 17.210938 18.386719 "/>
<path style=" stroke:none;fill-rule:nonzero;fill:rgb(61.960787%,61.960787%,61.960787%);fill-opacity:1;" d="M 7.039062 8.214844 C 7.183594 8.359375 7.183594 8.59375 7.039062 8.742188 C 6.894531 8.886719 6.65625 8.886719 6.511719 8.742188 C 6.367188 8.59375 6.367188 8.359375 6.511719 8.214844 C 6.65625 8.070312 6.894531 8.070312 7.039062 8.214844 Z M 7.039062 8.214844 "/>
<path style=" stroke:none;fill-rule:nonzero;fill:rgb(61.960787%,61.960787%,61.960787%);fill-opacity:1;" d="M 7.039062 18.386719 C 7.183594 18.53125 7.183594 18.769531 7.039062 18.914062 C 6.894531 19.058594 6.65625 19.058594 6.511719 18.914062 C 6.367188 18.769531 6.367188 18.53125 6.511719 18.386719 C 6.65625 18.242188 6.894531 18.242188 7.039062 18.386719 Z M 7.039062 18.386719 "/>
<path style=" stroke:none;fill-rule:nonzero;fill:rgb(93.333334%,93.333334%,93.333334%);fill-opacity:1;" d="M 5.953125 2.171875 C 6.773438 2.171875 7.441406 2.839844 7.441406 3.660156 C 7.441406 4.480469 6.773438 5.148438 5.953125 5.148438 C 5.132812 5.148438 4.464844 4.480469 4.464844 3.660156 C 4.464844 2.839844 5.132812 2.171875 5.953125 2.171875 Z M 5.953125 2.171875 "/>
<path style=" stroke:none;fill-rule:nonzero;fill:rgb(93.333334%,93.333334%,93.333334%);fill-opacity:1;" d="M 17.859375 2.171875 C 18.679688 2.171875 19.347656 2.839844 19.347656 3.660156 C 19.347656 4.480469 18.679688 5.148438 17.859375 5.148438 C 17.039062 5.148438 16.371094 4.480469 16.371094 3.660156 C 16.371094 2.839844 17.039062 2.171875 17.859375 2.171875 Z M 17.859375 2.171875 "/>
<path style=" stroke:none;fill-rule:nonzero;fill:rgb(25.882354%,25.882354%,25.882354%);fill-opacity:1;" d="M 5.953125 2.914062 C 6.363281 2.914062 6.699219 3.25 6.699219 3.660156 C 6.699219 4.070312 6.363281 4.40625 5.953125 4.40625 C 5.542969 4.40625 5.207031 4.070312 5.207031 3.660156 C 5.207031 3.25 5.542969 2.914062 5.953125 2.914062 Z M 5.953125 2.914062 "/>
<path style=" stroke:none;fill-rule:nonzero;fill:rgb(25.882354%,25.882354%,25.882354%);fill-opacity:1;" d="M 17.859375 2.914062 C 18.269531 2.914062 18.605469 3.25 18.605469 3.660156 C 18.605469 4.070312 18.269531 4.40625 17.859375 4.40625 C 17.449219 4.40625 17.117188 4.070312 17.117188 3.660156 C 17.117188 3.25 17.449219 2.914062 17.859375 2.914062 Z M 17.859375 2.914062 "/>
</g>
</svg>
