
<svg xmlns="http://www.w3.org/2000/svg" xmlns:xlink="http://www.w3.org/1999/xlink" width="24px" height="24px" viewBox="0 0 24 24" version="1.1">
<g id="surface1">
<path style=" stroke:none;fill-rule:nonzero;fill:rgb(32.941177%,43.137255%,47.843137%);fill-opacity:1;" d="M 13.394531 6.945312 L 13.394531 12.898438 L 17.363281 12.898438 L 17.363281 6.945312 Z M 13.394531 6.945312 "/>
<path style=" stroke:none;fill-rule:nonzero;fill:rgb(27.058825%,35.294119%,39.215687%);fill-opacity:1;" d="M 12.898438 4.960938 L 12.898438 7.441406 L 17.859375 7.441406 L 17.859375 4.960938 Z M 12.898438 4.960938 "/>
<path style=" stroke:none;fill-rule:nonzero;fill:rgb(37.64706%,49.019608%,54.509807%);fill-opacity:1;" d="M 15.378906 0.992188 L 11.90625 4.960938 L 18.851562 4.960938 Z M 15.378906 0.992188 "/>
<path style=" stroke:none;fill-rule:nonzero;fill:rgb(25.882354%,25.882354%,25.882354%);fill-opacity:1;" d="M 15.132812 5.457031 L 15.628906 5.457031 L 15.628906 6.449219 L 15.132812 6.449219 Z M 15.132812 5.457031 "/>
<path style=" stroke:none;fill-rule:nonzero;fill:rgb(25.882354%,25.882354%,25.882354%);fill-opacity:1;" d="M 14.261719 5.457031 L 14.757812 5.457031 L 14.757812 6.449219 L 14.261719 6.449219 Z M 14.261719 5.457031 "/>
<path style=" stroke:none;fill-rule:nonzero;fill:rgb(25.882354%,25.882354%,25.882354%);fill-opacity:1;" d="M 13.394531 5.457031 L 13.890625 5.457031 L 13.890625 6.449219 L 13.394531 6.449219 Z M 13.394531 5.457031 "/>
<path style=" stroke:none;fill-rule:nonzero;fill:rgb(25.882354%,25.882354%,25.882354%);fill-opacity:1;" d="M 16.867188 5.457031 L 17.363281 5.457031 L 17.363281 6.449219 L 16.867188 6.449219 Z M 16.867188 5.457031 "/>
<path style=" stroke:none;fill-rule:nonzero;fill:rgb(25.882354%,25.882354%,25.882354%);fill-opacity:1;" d="M 16 5.457031 L 16.496094 5.457031 L 16.496094 6.449219 L 16 6.449219 Z M 16 5.457031 "/>
<path style=" stroke:none;fill-rule:nonzero;fill:rgb(32.941177%,43.137255%,47.843137%);fill-opacity:1;" d="M 5.953125 6.945312 L 5.953125 12.898438 L 9.921875 12.898438 L 9.921875 6.945312 Z M 5.953125 6.945312 "/>
<path style=" stroke:none;fill-rule:nonzero;fill:rgb(27.058825%,35.294119%,39.215687%);fill-opacity:1;" d="M 5.457031 4.960938 L 5.457031 7.441406 L 10.417969 7.441406 L 10.417969 4.960938 Z M 5.457031 4.960938 "/>
<path style=" stroke:none;fill-rule:nonzero;fill:rgb(37.64706%,49.019608%,54.509807%);fill-opacity:1;" d="M 7.9375 0.992188 L 4.464844 4.960938 L 11.410156 4.960938 Z M 7.9375 0.992188 "/>
<path style=" stroke:none;fill-rule:nonzero;fill:rgb(25.882354%,25.882354%,25.882354%);fill-opacity:1;" d="M 7.691406 5.457031 L 8.1875 5.457031 L 8.1875 6.449219 L 7.691406 6.449219 Z M 7.691406 5.457031 "/>
<path style=" stroke:none;fill-rule:nonzero;fill:rgb(25.882354%,25.882354%,25.882354%);fill-opacity:1;" d="M 6.820312 5.457031 L 7.316406 5.457031 L 7.316406 6.449219 L 6.820312 6.449219 Z M 6.820312 5.457031 "/>
<path style=" stroke:none;fill-rule:nonzero;fill:rgb(25.882354%,25.882354%,25.882354%);fill-opacity:1;" d="M 5.953125 5.457031 L 6.449219 5.457031 L 6.449219 6.449219 L 5.953125 6.449219 Z M 5.953125 5.457031 "/>
<path style=" stroke:none;fill-rule:nonzero;fill:rgb(25.882354%,25.882354%,25.882354%);fill-opacity:1;" d="M 9.425781 5.457031 L 9.921875 5.457031 L 9.921875 6.449219 L 9.425781 6.449219 Z M 9.425781 5.457031 "/>
<path style=" stroke:none;fill-rule:nonzero;fill:rgb(25.882354%,25.882354%,25.882354%);fill-opacity:1;" d="M 8.558594 5.457031 L 9.054688 5.457031 L 9.054688 6.449219 L 8.558594 6.449219 Z M 8.558594 5.457031 "/>
<path style=" stroke:none;fill-rule:nonzero;fill:rgb(55.29412%,43.137255%,38.82353%);fill-opacity:1;" d="M 1.984375 12.898438 L 21.828125 12.898438 C 22.375 12.898438 22.820312 13.34375 22.820312 13.890625 L 22.820312 21.828125 C 22.820312 22.375 22.375 22.820312 21.828125 22.820312 L 1.984375 22.820312 C 1.4375 22.820312 0.992188 22.375 0.992188 21.828125 L 0.992188 13.890625 C 0.992188 13.34375 1.4375 12.898438 1.984375 12.898438 Z M 1.984375 12.898438 "/>
<path style=" stroke:none;fill-rule:nonzero;fill:rgb(73.725492%,66.666669%,64.313728%);fill-opacity:1;" d="M 19.347656 15.875 L 22.820312 15.875 L 22.820312 17.859375 L 19.347656 17.859375 Z M 19.347656 15.875 "/>
<path style=" stroke:none;fill-rule:nonzero;fill:rgb(73.725492%,66.666669%,64.313728%);fill-opacity:1;" d="M 13.148438 17.859375 L 16.621094 17.859375 L 16.621094 19.84375 L 13.148438 19.84375 Z M 13.148438 17.859375 "/>
<path style=" stroke:none;fill-rule:nonzero;fill:rgb(47.450981%,33.333334%,28.235295%);fill-opacity:1;" d="M 3.96875 15.875 L 7.441406 15.875 L 7.441406 17.859375 L 3.96875 17.859375 Z M 3.96875 15.875 "/>
<path style=" stroke:none;fill-rule:nonzero;fill:rgb(47.450981%,33.333334%,28.235295%);fill-opacity:1;" d="M 9.671875 17.859375 L 13.144531 17.859375 L 13.144531 19.84375 L 9.671875 19.84375 Z M 9.671875 17.859375 "/>
<path style=" stroke:none;fill-rule:nonzero;fill:rgb(73.725492%,66.666669%,64.313728%);fill-opacity:1;" d="M 11.410156 15.875 L 14.882812 15.875 L 14.882812 17.859375 L 11.410156 17.859375 Z M 11.410156 15.875 "/>
<path style=" stroke:none;fill-rule:nonzero;fill:rgb(40.000001%,73.333335%,41.568628%);fill-opacity:1;" d="M 1.984375 12.898438 C 1.433594 12.898438 0.992188 13.339844 0.992188 13.890625 L 0.992188 17.859375 L 3.96875 17.859375 L 3.96875 15.875 L 6.945312 15.875 L 6.945312 19.84375 L 9.921875 19.84375 L 9.921875 15.875 L 12.898438 15.875 L 12.898438 18.851562 L 15.875 18.851562 L 15.875 15.875 L 17.859375 15.875 L 17.859375 19.84375 L 20.835938 19.84375 L 20.835938 15.875 L 22.820312 15.875 L 22.820312 13.890625 C 22.820312 13.339844 22.378906 12.898438 21.828125 12.898438 Z M 1.984375 12.898438 "/>
<path style=" stroke:none;fill-rule:nonzero;fill:rgb(37.64706%,49.019608%,54.509807%);fill-opacity:1;" d="M 9.425781 5.953125 L 9.425781 7.9375 L 14.386719 7.9375 L 14.386719 5.953125 Z M 9.425781 5.953125 "/>
<path style=" stroke:none;fill-rule:nonzero;fill:rgb(47.058824%,56.470591%,61.176473%);fill-opacity:1;" d="M 9.921875 7.9375 L 9.921875 12.898438 L 13.890625 12.898438 L 13.890625 7.9375 Z M 9.921875 7.9375 "/>
<path style=" stroke:none;fill-rule:nonzero;fill:rgb(25.882354%,25.882354%,25.882354%);fill-opacity:1;" d="M 11.90625 8.929688 C 11.082031 8.929688 10.417969 9.59375 10.417969 10.417969 L 10.417969 12.898438 L 13.394531 12.898438 L 13.394531 10.417969 C 13.394531 9.59375 12.730469 8.929688 11.90625 8.929688 Z M 11.90625 8.929688 "/>
<path style=" stroke:none;fill-rule:nonzero;fill:rgb(73.725492%,66.666669%,64.313728%);fill-opacity:1;" d="M 0.992188 17.859375 L 2.726562 17.859375 L 2.726562 19.84375 L 0.992188 19.84375 Z M 0.992188 17.859375 "/>
<path style=" stroke:none;fill-rule:nonzero;fill:rgb(73.725492%,66.666669%,64.313728%);fill-opacity:1;" d="M 4.464844 19.84375 L 7.9375 19.84375 L 7.9375 21.828125 L 4.464844 21.828125 Z M 4.464844 19.84375 "/>
<path style=" stroke:none;fill-rule:nonzero;fill:rgb(63.137257%,53.333336%,49.803922%);fill-opacity:1;" d="M 2.726562 17.859375 L 6.199219 17.859375 L 6.199219 19.84375 L 2.726562 19.84375 Z M 2.726562 17.859375 "/>
<path style=" stroke:none;fill-rule:nonzero;fill:rgb(55.29412%,43.137255%,38.82353%);fill-opacity:1;" d="M 7.9375 19.84375 L 11.410156 19.84375 L 11.410156 21.828125 L 7.9375 21.828125 Z M 7.9375 19.84375 "/>
<path style=" stroke:none;fill-rule:nonzero;fill:rgb(47.450981%,33.333334%,28.235295%);fill-opacity:1;" d="M 11.410156 19.84375 L 14.882812 19.84375 L 14.882812 21.828125 L 11.410156 21.828125 Z M 11.410156 19.84375 "/>
<path style=" stroke:none;fill-rule:nonzero;fill:rgb(63.137257%,53.333336%,49.803922%);fill-opacity:1;" d="M 14.882812 19.84375 L 18.355469 19.84375 L 18.355469 21.828125 L 14.882812 21.828125 Z M 14.882812 19.84375 "/>
<path style=" stroke:none;fill-rule:nonzero;fill:rgb(63.137257%,53.333336%,49.803922%);fill-opacity:1;" d="M 21.578125 19.84375 L 22.820312 19.84375 L 22.820312 21.828125 L 21.578125 21.828125 Z M 21.578125 19.84375 "/>
<path style=" stroke:none;fill-rule:nonzero;fill:rgb(47.450981%,33.333334%,28.235295%);fill-opacity:1;" d="M 0.992188 19.84375 L 4.464844 19.84375 L 4.464844 21.828125 L 0.992188 21.828125 Z M 0.992188 19.84375 "/>
<path style=" stroke:none;fill-rule:nonzero;fill:rgb(56.470591%,64.313728%,68.235296%);fill-opacity:1;" d="M 11.90625 1.984375 L 8.433594 5.953125 L 15.378906 5.953125 Z M 11.90625 1.984375 "/>
<path style=" stroke:none;fill-rule:nonzero;fill:rgb(25.882354%,25.882354%,25.882354%);fill-opacity:1;" d="M 11.65625 6.449219 L 12.15625 6.449219 L 12.15625 7.441406 L 11.65625 7.441406 Z M 11.65625 6.449219 "/>
<path style=" stroke:none;fill-rule:nonzero;fill:rgb(25.882354%,25.882354%,25.882354%);fill-opacity:1;" d="M 10.789062 6.449219 L 11.285156 6.449219 L 11.285156 7.441406 L 10.789062 7.441406 Z M 10.789062 6.449219 "/>
<path style=" stroke:none;fill-rule:nonzero;fill:rgb(25.882354%,25.882354%,25.882354%);fill-opacity:1;" d="M 9.921875 6.449219 L 10.417969 6.449219 L 10.417969 7.441406 L 9.921875 7.441406 Z M 9.921875 6.449219 "/>
<path style=" stroke:none;fill-rule:nonzero;fill:rgb(25.882354%,25.882354%,25.882354%);fill-opacity:1;" d="M 13.394531 6.449219 L 13.890625 6.449219 L 13.890625 7.441406 L 13.394531 7.441406 Z M 13.394531 6.449219 "/>
<path style=" stroke:none;fill-rule:nonzero;fill:rgb(25.882354%,25.882354%,25.882354%);fill-opacity:1;" d="M 12.527344 6.449219 L 13.023438 6.449219 L 13.023438 7.441406 L 12.527344 7.441406 Z M 12.527344 6.449219 "/>
</g>
</svg>
