<?xml version="1.0" encoding="UTF-8"?>
<svg xmlns="http://www.w3.org/2000/svg" xmlns:xlink="http://www.w3.org/1999/xlink" width="24px" height="24px" viewBox="0 0 24 24" version="1.1">
<g id="surface1">
<path style=" stroke:none;fill-rule:nonzero;fill:rgb(22.352941%,28.627452%,67.058825%);fill-opacity:1;" d="M 19.347656 4.15625 C 17.972656 4.15625 16.867188 5.261719 16.867188 6.636719 C 16.867188 8.011719 17.972656 9.117188 19.347656 9.117188 C 20.722656 9.117188 21.828125 8.011719 21.828125 6.636719 C 21.828125 5.261719 20.722656 4.15625 19.347656 4.15625 Z M 16.867188 10.109375 C 16.316406 10.109375 15.875 10.550781 15.875 11.101562 L 15.875 16.558594 C 15.875 18.484375 17.421875 20.03125 19.347656 20.03125 C 21.273438 20.03125 22.820312 18.484375 22.820312 16.558594 L 22.820312 11.101562 C 22.820312 10.550781 22.378906 10.109375 21.828125 10.109375 Z M 16.867188 10.109375 "/>
<path style=" stroke:none;fill-rule:nonzero;fill:rgb(36.078432%,41.960785%,75.294119%);fill-opacity:1;" d="M 11.90625 1.179688 C 10.121094 1.179688 8.679688 2.617188 8.679688 4.402344 C 8.679688 6.191406 10.121094 7.628906 11.90625 7.628906 C 13.691406 7.628906 15.128906 6.191406 15.128906 4.402344 C 15.128906 2.617188 13.691406 1.179688 11.90625 1.179688 Z M 8.433594 9.117188 C 7.882812 9.117188 7.441406 9.558594 7.441406 10.109375 L 7.441406 18.542969 C 7.441406 21.015625 9.433594 23.007812 11.90625 23.007812 C 14.378906 23.007812 16.371094 21.015625 16.371094 18.542969 L 16.371094 10.109375 C 16.371094 9.558594 15.929688 9.117188 15.378906 9.117188 Z M 8.433594 9.117188 "/>
<path style=" stroke:none;fill-rule:nonzero;fill:rgb(22.352941%,28.627452%,67.058825%);fill-opacity:1;" d="M 1.984375 8.125 L 9.921875 8.125 C 10.46875 8.125 10.914062 8.570312 10.914062 9.117188 L 10.914062 17.054688 C 10.914062 17.601562 10.46875 18.046875 9.921875 18.046875 L 1.984375 18.046875 C 1.4375 18.046875 0.992188 17.601562 0.992188 17.054688 L 0.992188 9.117188 C 0.992188 8.570312 1.4375 8.125 1.984375 8.125 Z M 1.984375 8.125 "/>
<path style=" stroke:none;fill-rule:nonzero;fill:rgb(77.254903%,79.215688%,91.37255%);fill-opacity:1;" d="M 5.707031 11.101562 L 6.203125 11.101562 C 6.339844 11.101562 6.449219 11.210938 6.449219 11.351562 L 6.449219 15.316406 C 6.449219 15.457031 6.339844 15.566406 6.203125 15.566406 L 5.707031 15.566406 C 5.566406 15.566406 5.457031 15.457031 5.457031 15.316406 L 5.457031 11.351562 C 5.457031 11.210938 5.566406 11.101562 5.707031 11.101562 Z M 5.707031 11.101562 "/>
<path style=" stroke:none;fill-rule:nonzero;fill:rgb(77.254903%,79.215688%,91.37255%);fill-opacity:1;" d="M 4.21875 11.101562 L 7.691406 11.101562 C 7.828125 11.101562 7.9375 11.210938 7.9375 11.351562 L 7.9375 11.597656 C 7.9375 11.734375 7.828125 11.847656 7.691406 11.847656 L 4.21875 11.847656 C 4.078125 11.847656 3.96875 11.734375 3.96875 11.597656 L 3.96875 11.351562 C 3.96875 11.210938 4.078125 11.101562 4.21875 11.101562 Z M 4.21875 11.101562 "/>
</g>
</svg>
