
<svg xmlns="http://www.w3.org/2000/svg" xmlns:xlink="http://www.w3.org/1999/xlink" width="24px" height="24px" viewBox="0 0 24 24" version="1.1">
<g id="surface1">
<path style=" stroke:none;fill-rule:nonzero;fill:rgb(61.176473%,80.000001%,39.607844%);fill-opacity:1;" d="M 1.984375 1.179688 L 21.828125 1.179688 C 22.375 1.179688 22.820312 1.625 22.820312 2.171875 L 22.820312 22.015625 C 22.820312 22.5625 22.375 23.007812 21.828125 23.007812 L 1.984375 23.007812 C 1.4375 23.007812 0.992188 22.5625 0.992188 22.015625 L 0.992188 2.171875 C 0.992188 1.625 1.4375 1.179688 1.984375 1.179688 Z M 1.984375 1.179688 "/>
<path style=" stroke:none;fill-rule:nonzero;fill:rgb(96.078432%,96.078432%,96.078432%);fill-opacity:1;" d="M 11.65625 4.15625 C 9.871094 4.15625 8.433594 5.59375 8.433594 7.378906 L 8.433594 12.09375 L 5.953125 12.09375 L 5.953125 6.636719 L 2.976562 6.636719 L 2.976562 12.589844 L 3.355469 12.589844 C 3.117188 12.851562 2.976562 13.199219 2.976562 13.582031 C 2.976562 14.40625 3.640625 15.070312 4.464844 15.070312 L 8.433594 15.070312 L 8.433594 16.804688 C 8.433594 18.59375 9.871094 20.03125 11.65625 20.03125 L 17.113281 20.03125 C 18.902344 20.03125 20.339844 18.59375 20.339844 16.804688 L 20.339844 11.101562 L 16.371094 11.101562 L 16.371094 13.582031 L 18.355469 13.582031 L 14.386719 17.550781 L 10.417969 13.582031 L 12.402344 13.582031 L 12.402344 7.132812 L 16.371094 7.132812 L 16.371094 9.613281 L 20.339844 9.613281 L 20.339844 7.378906 C 20.339844 5.59375 18.902344 4.15625 17.113281 4.15625 Z M 11.65625 4.15625 "/>
<path style=" stroke:none;fill-rule:nonzero;fill:rgb(93.333334%,93.333334%,93.333334%);fill-opacity:1;" d="M 4.464844 11.101562 C 5.285156 11.101562 5.953125 11.769531 5.953125 12.589844 L 5.953125 13.582031 C 5.953125 14.402344 5.285156 15.070312 4.464844 15.070312 C 3.644531 15.070312 2.976562 14.402344 2.976562 13.582031 L 2.976562 12.589844 C 2.976562 11.769531 3.644531 11.101562 4.464844 11.101562 Z M 4.464844 11.101562 "/>
</g>
</svg>
