
<svg xmlns="http://www.w3.org/2000/svg" xmlns:xlink="http://www.w3.org/1999/xlink" width="24px" height="24px" viewBox="0 0 24 24" version="1.1">
<g id="surface1">
<path style=" stroke:none;fill-rule:nonzero;fill:rgb(87.843138%,87.843138%,87.843138%);fill-opacity:1;" d="M 16.121094 0.992188 C 19.820312 0.992188 22.820312 3.992188 22.820312 7.691406 C 22.820312 11.386719 19.820312 14.386719 16.121094 14.386719 C 12.425781 14.386719 9.425781 11.386719 9.425781 7.691406 C 9.425781 3.992188 12.425781 0.992188 16.121094 0.992188 Z M 16.121094 0.992188 "/>
<path style=" stroke:none;fill-rule:nonzero;fill:rgb(40.000001%,73.333335%,41.568628%);fill-opacity:1;" d="M 15.128906 3.96875 C 16.910156 3.96875 18.355469 5.414062 18.355469 7.191406 C 18.355469 8.972656 16.910156 10.417969 15.128906 10.417969 C 13.351562 10.417969 11.90625 8.972656 11.90625 7.191406 C 11.90625 5.414062 13.351562 3.96875 15.128906 3.96875 Z M 15.128906 3.96875 "/>
<path style=" stroke:none;fill-rule:nonzero;fill:rgb(25.882354%,25.882354%,25.882354%);fill-opacity:1;" d="M 15.132812 5.457031 C 16.089844 5.457031 16.867188 6.234375 16.867188 7.191406 C 16.867188 8.152344 16.089844 8.929688 15.132812 8.929688 C 14.171875 8.929688 13.394531 8.152344 13.394531 7.191406 C 13.394531 6.234375 14.171875 5.457031 15.132812 5.457031 Z M 15.132812 5.457031 "/>
<path style=" stroke:none;fill-rule:nonzero;fill:rgb(93.333334%,93.333334%,93.333334%);fill-opacity:1;" d="M 7.6875 9.425781 C 11.386719 9.425781 14.386719 12.425781 14.386719 16.125 C 14.386719 19.820312 11.386719 22.820312 7.6875 22.820312 C 3.992188 22.820312 0.992188 19.820312 0.992188 16.125 C 0.992188 12.425781 3.992188 9.425781 7.6875 9.425781 Z M 7.6875 9.425781 "/>
<path style=" stroke:none;fill-rule:nonzero;fill:rgb(40.000001%,73.333335%,41.568628%);fill-opacity:1;" d="M 8.183594 12.402344 C 9.964844 12.402344 11.410156 13.847656 11.410156 15.625 C 11.410156 17.40625 9.964844 18.851562 8.183594 18.851562 C 6.40625 18.851562 4.960938 17.40625 4.960938 15.625 C 4.960938 13.847656 6.40625 12.402344 8.183594 12.402344 Z M 8.183594 12.402344 "/>
<path style=" stroke:none;fill-rule:nonzero;fill:rgb(25.882354%,25.882354%,25.882354%);fill-opacity:1;" d="M 8.1875 13.890625 C 9.144531 13.890625 9.921875 14.667969 9.921875 15.625 C 9.921875 16.585938 9.144531 17.363281 8.1875 17.363281 C 7.226562 17.363281 6.449219 16.585938 6.449219 15.625 C 6.449219 14.667969 7.226562 13.890625 8.1875 13.890625 Z M 8.1875 13.890625 "/>
<path style=" stroke:none;fill-rule:nonzero;fill:rgb(38.039216%,38.039216%,38.039216%);fill-opacity:1;" d="M 14.511719 5.953125 C 14.851562 5.953125 15.128906 6.230469 15.128906 6.574219 C 15.128906 6.914062 14.851562 7.191406 14.511719 7.191406 C 14.167969 7.191406 13.890625 6.914062 13.890625 6.574219 C 13.890625 6.230469 14.167969 5.953125 14.511719 5.953125 Z M 14.511719 5.953125 "/>
<path style=" stroke:none;fill-rule:nonzero;fill:rgb(38.039216%,38.039216%,38.039216%);fill-opacity:1;" d="M 7.566406 14.386719 C 7.90625 14.386719 8.183594 14.664062 8.183594 15.007812 C 8.183594 15.347656 7.90625 15.625 7.566406 15.625 C 7.222656 15.625 6.945312 15.347656 6.945312 15.007812 C 6.945312 14.664062 7.222656 14.386719 7.566406 14.386719 Z M 7.566406 14.386719 "/>
</g>
</svg>
