
<svg xmlns="http://www.w3.org/2000/svg" xmlns:xlink="http://www.w3.org/1999/xlink" width="24px" height="24px" viewBox="0 0 24 24" version="1.1">
<g id="surface1">
<path style=" stroke:none;fill-rule:nonzero;fill:rgb(38.039216%,38.039216%,38.039216%);fill-opacity:1;" d="M 4.960938 0.992188 L 18.851562 0.992188 C 21.042969 0.992188 22.820312 2.769531 22.820312 4.960938 L 22.820312 18.851562 C 22.820312 21.042969 21.042969 22.820312 18.851562 22.820312 L 4.960938 22.820312 C 2.769531 22.820312 0.992188 21.042969 0.992188 18.851562 L 0.992188 4.960938 C 0.992188 2.769531 2.769531 0.992188 4.960938 0.992188 Z M 4.960938 0.992188 "/>
<path style=" stroke:none;fill-rule:nonzero;fill:rgb(38.039216%,38.039216%,38.039216%);fill-opacity:1;" d="M 11.90625 3.472656 C 16.5625 3.472656 20.339844 7.25 20.339844 11.90625 C 20.339844 16.5625 16.5625 20.339844 11.90625 20.339844 C 7.25 20.339844 3.472656 16.5625 3.472656 11.90625 C 3.472656 7.25 7.25 3.472656 11.90625 3.472656 Z M 11.90625 3.472656 "/>
<path style=" stroke:none;fill-rule:nonzero;fill:rgb(25.882354%,25.882354%,25.882354%);fill-opacity:1;" d="M 4.960938 1.984375 L 18.851562 1.984375 C 20.496094 1.984375 21.828125 3.316406 21.828125 4.960938 L 21.828125 18.851562 C 21.828125 20.496094 20.496094 21.828125 18.851562 21.828125 L 4.960938 21.828125 C 3.316406 21.828125 1.984375 20.496094 1.984375 18.851562 L 1.984375 4.960938 C 1.984375 3.316406 3.316406 1.984375 4.960938 1.984375 Z M 4.960938 1.984375 "/>
<path style=" stroke:none;fill-rule:nonzero;fill:rgb(0%,67.450982%,75.686276%);fill-opacity:1;" d="M 11.90625 3.96875 C 16.289062 3.96875 19.84375 7.523438 19.84375 11.90625 C 19.84375 16.289062 16.289062 19.84375 11.90625 19.84375 C 7.523438 19.84375 3.96875 16.289062 3.96875 11.90625 C 3.96875 7.523438 7.523438 3.96875 11.90625 3.96875 Z M 11.90625 3.96875 "/>
<path style=" stroke:none;fill-rule:nonzero;fill:rgb(38.039216%,38.039216%,38.039216%);fill-opacity:1;" d="M 19.84375 3.472656 C 20.390625 3.472656 20.835938 3.917969 20.835938 4.464844 C 20.835938 5.011719 20.390625 5.457031 19.84375 5.457031 C 19.296875 5.457031 18.851562 5.011719 18.851562 4.464844 C 18.851562 3.917969 19.296875 3.472656 19.84375 3.472656 Z M 19.84375 3.472656 "/>
<path style=" stroke:none;fill-rule:nonzero;fill:rgb(100%,43.921569%,26.274511%);fill-opacity:1;" d="M 19.84375 3.722656 C 20.253906 3.722656 20.585938 4.054688 20.585938 4.464844 C 20.585938 4.875 20.253906 5.207031 19.84375 5.207031 C 19.433594 5.207031 19.101562 4.875 19.101562 4.464844 C 19.101562 4.054688 19.433594 3.722656 19.84375 3.722656 Z M 19.84375 3.722656 "/>
<path style=" stroke:none;fill-rule:nonzero;fill:rgb(100%,67.058825%,56.862748%);fill-opacity:1;" d="M 19.59375 3.96875 C 19.734375 3.96875 19.84375 4.078125 19.84375 4.21875 C 19.84375 4.355469 19.734375 4.464844 19.59375 4.464844 C 19.457031 4.464844 19.347656 4.355469 19.347656 4.21875 C 19.347656 4.078125 19.457031 3.96875 19.59375 3.96875 Z M 19.59375 3.96875 "/>
<path style=" stroke:none;fill-rule:nonzero;fill:rgb(89.803922%,45.09804%,45.09804%);fill-opacity:1;" d="M 14.757812 14.632812 C 11.164062 18.355469 5.316406 12.261719 5.210938 8.683594 C 5.210938 8.265625 5.246094 7.859375 5.316406 7.464844 C 4.464844 8.730469 3.96875 10.257812 3.96875 11.90625 C 3.96875 14.875 5.582031 17.453125 7.988281 18.816406 C 8.214844 18.839844 8.445312 18.851562 8.683594 18.851562 C 11.496094 18.851562 14.261719 16.621094 14.757812 14.632812 Z M 14.757812 14.632812 "/>
<path style=" stroke:none;fill-rule:nonzero;fill:rgb(38.039216%,38.039216%,38.039216%);fill-opacity:1;" d="M 11.90625 7.9375 C 14.097656 7.9375 15.875 9.714844 15.875 11.90625 C 15.875 14.097656 14.097656 15.875 11.90625 15.875 C 9.714844 15.875 7.9375 14.097656 7.9375 11.90625 C 7.9375 9.714844 9.714844 7.9375 11.90625 7.9375 Z M 11.90625 7.9375 "/>
<path style=" stroke:none;fill-rule:nonzero;fill:rgb(25.882354%,25.882354%,25.882354%);fill-opacity:1;" d="M 11.90625 8.433594 C 13.824219 8.433594 15.378906 9.988281 15.378906 11.90625 C 15.378906 13.824219 13.824219 15.378906 11.90625 15.378906 C 9.988281 15.378906 8.433594 13.824219 8.433594 11.90625 C 8.433594 9.988281 9.988281 8.433594 11.90625 8.433594 Z M 11.90625 8.433594 "/>
<path style=" stroke:none;fill-rule:nonzero;fill:rgb(45.882353%,45.882353%,45.882353%);fill-opacity:1;" d="M 10.484375 9.445312 C 10.722656 9.582031 10.691406 10.078125 10.417969 10.550781 C 10.144531 11.027344 9.730469 11.300781 9.492188 11.160156 C 9.253906 11.023438 9.285156 10.53125 9.558594 10.054688 C 9.832031 9.582031 10.246094 9.304688 10.484375 9.445312 Z M 10.484375 9.445312 "/>
<path style=" stroke:none;fill-rule:nonzero;fill:rgb(100%,67.058825%,56.862748%);fill-opacity:1;" d="M 14.632812 9.054688 C 18.355469 12.652344 12.261719 18.496094 8.683594 18.605469 C 8.265625 18.605469 7.859375 18.566406 7.464844 18.496094 C 8.730469 19.347656 10.257812 19.84375 11.90625 19.84375 C 14.875 19.84375 17.453125 18.230469 18.816406 15.824219 C 18.839844 15.597656 18.851562 15.367188 18.851562 15.132812 C 18.851562 12.316406 16.617188 9.550781 14.632812 9.054688 Z M 14.632812 9.054688 "/>
<path style=" stroke:none;fill-rule:nonzero;fill:rgb(100%,71.764708%,30.19608%);fill-opacity:1;" d="M 9.054688 9.179688 C 12.652344 5.457031 18.496094 11.550781 18.601562 15.132812 C 18.601562 15.546875 18.566406 15.953125 18.496094 16.347656 C 19.347656 15.082031 19.84375 13.554688 19.84375 11.90625 C 19.84375 8.9375 18.230469 6.359375 15.824219 4.996094 C 15.597656 4.972656 15.367188 4.960938 15.128906 4.960938 C 12.316406 4.960938 9.550781 7.195312 9.054688 9.179688 Z M 9.054688 9.179688 "/>
<path style=" stroke:none;fill-rule:nonzero;fill:rgb(100%,87.843138%,69.803923%);fill-opacity:1;" d="M 9.179688 14.757812 C 5.457031 11.164062 11.550781 5.316406 15.132812 5.210938 C 15.546875 5.210938 15.953125 5.246094 16.347656 5.316406 C 15.082031 4.464844 13.554688 3.96875 11.90625 3.96875 C 8.9375 3.96875 6.359375 5.582031 4.996094 7.988281 C 4.972656 8.214844 4.960938 8.445312 4.960938 8.683594 C 4.960938 11.496094 7.195312 14.261719 9.179688 14.757812 Z M 9.179688 14.757812 "/>
</g>
</svg>
