<?xml version="1.0" encoding="UTF-8"?>
<svg xmlns="http://www.w3.org/2000/svg" xmlns:xlink="http://www.w3.org/1999/xlink" width="24" height="24" viewBox="0 0 24 24" version="1.1">
<g id="surface1">
<path style=" stroke:none;fill-rule:nonzero;fill:rgb(100%,70.19608%,0%);fill-opacity:1;" d="M 11.148438 4.519531 L 12.707031 4.519531 L 12.707031 7.246094 L 11.148438 7.246094 Z M 11.148438 4.519531 "/>
<path style=" stroke:none;fill-rule:nonzero;fill:rgb(0%,58.823532%,53.333336%);fill-opacity:1;" d="M 16.605469 14.277344 C 18.945312 14.277344 22.84375 15.058594 22.84375 8.820312 C 19.722656 7.261719 17.9375 9.652344 15.824219 11.160156 Z M 16.605469 14.277344 "/>
<path style=" stroke:none;fill-rule:nonzero;fill:rgb(14.901961%,65.098041%,60.392159%);fill-opacity:1;" d="M 7.25 14.277344 C 4.910156 14.277344 1.011719 15.058594 1.011719 8.820312 C 4.128906 7.261719 5.917969 9.652344 8.027344 11.160156 Z M 7.25 14.277344 "/>
<path style=" stroke:none;fill-rule:nonzero;fill:rgb(14.901961%,65.098041%,60.392159%);fill-opacity:1;" d="M 11.925781 6.480469 C 16.234375 6.480469 19.722656 9.972656 19.722656 14.277344 C 19.722656 18.585938 16.234375 22.078125 11.925781 22.078125 C 7.621094 22.078125 4.128906 18.585938 4.128906 14.277344 C 4.128906 9.972656 7.621094 6.480469 11.925781 6.480469 Z M 11.925781 6.480469 "/>
<path style=" stroke:none;fill-rule:nonzero;fill:rgb(100%,79.215688%,15.686275%);fill-opacity:1;" d="M 11.925781 1.984375 C 12.789062 1.984375 13.484375 2.683594 13.484375 3.542969 C 13.484375 4.40625 12.789062 5.101562 11.925781 5.101562 C 11.066406 5.101562 10.367188 4.40625 10.367188 3.542969 C 10.367188 2.683594 11.066406 1.984375 11.925781 1.984375 Z M 11.925781 1.984375 "/>
<path style=" stroke:none;fill-rule:nonzero;fill:rgb(30.19608%,71.372551%,67.450982%);fill-opacity:1;" d="M 11.925781 6.480469 C 7.605469 6.480469 4.128906 9.960938 4.128906 14.277344 C 4.128906 18.597656 7.605469 22.074219 11.925781 22.074219 Z M 11.925781 6.480469 "/>
<path style=" stroke:none;fill-rule:nonzero;fill:rgb(38.039216%,38.039216%,38.039216%);fill-opacity:1;" d="M 7.25 11.941406 C 7.679688 11.941406 8.027344 12.464844 8.027344 13.109375 C 8.027344 13.753906 7.679688 14.277344 7.25 14.277344 C 6.816406 14.277344 6.46875 13.753906 6.46875 13.109375 C 6.46875 12.464844 6.816406 11.941406 7.25 11.941406 Z M 7.25 11.941406 "/>
<path style=" stroke:none;fill-rule:nonzero;fill:rgb(38.039216%,38.039216%,38.039216%);fill-opacity:1;" d="M 10.839844 19.230469 L 9.199219 18.203125 C 8.617188 17.835938 8.40625 17.070312 8.75 16.472656 C 9.109375 15.851562 9.914062 15.65625 10.527344 16.035156 L 11.359375 16.5625 C 11.703125 16.78125 12.144531 16.78125 12.484375 16.5625 L 13.320312 16.035156 C 13.914062 15.660156 14.695312 15.839844 15.074219 16.429688 C 15.449219 17.023438 15.269531 17.804688 14.679688 18.183594 L 13.011719 19.230469 C 12.34375 19.648438 11.503906 19.648438 10.839844 19.230469 Z M 10.839844 19.230469 "/>
<path style=" stroke:none;fill-rule:nonzero;fill:rgb(95.686275%,26.274511%,21.176471%);fill-opacity:1;" d="M 11.925781 17.789062 C 11.183594 17.789062 10.554688 18.242188 10.296875 18.890625 L 10.839844 19.230469 C 11.503906 19.648438 12.34375 19.648438 13.011719 19.230469 L 13.558594 18.890625 C 13.300781 18.242188 12.667969 17.789062 11.925781 17.789062 Z M 11.925781 17.789062 "/>
<path style=" stroke:none;fill-rule:nonzero;fill:rgb(38.039216%,38.039216%,38.039216%);fill-opacity:1;" d="M 16.605469 11.941406 C 17.035156 11.941406 17.386719 12.464844 17.386719 13.109375 C 17.386719 13.753906 17.035156 14.277344 16.605469 14.277344 C 16.175781 14.277344 15.824219 13.753906 15.824219 13.109375 C 15.824219 12.464844 16.175781 11.941406 16.605469 11.941406 Z M 16.605469 11.941406 "/>
</g>
</svg>
