
<svg xmlns="http://www.w3.org/2000/svg" xmlns:xlink="http://www.w3.org/1999/xlink" width="24px" height="24px" viewBox="0 0 24 24" version="1.1">
<g id="surface1">
<path style=" stroke:none;fill-rule:nonzero;fill:rgb(25.882354%,64.705884%,96.078432%);fill-opacity:1;" d="M 2.480469 0.992188 L 21.332031 0.992188 C 22.152344 0.992188 22.820312 1.660156 22.820312 2.480469 L 22.820312 21.332031 C 22.820312 22.152344 22.152344 22.820312 21.332031 22.820312 L 2.480469 22.820312 C 1.660156 22.820312 0.992188 22.152344 0.992188 21.332031 L 0.992188 2.480469 C 0.992188 1.660156 1.660156 0.992188 2.480469 0.992188 Z M 2.480469 0.992188 "/>
<path style=" stroke:none;fill-rule:nonzero;fill:rgb(96.078432%,96.078432%,96.078432%);fill-opacity:1;" d="M 5.457031 7.9375 C 5.183594 7.9375 4.960938 8.160156 4.960938 8.433594 L 4.960938 9.425781 C 4.960938 9.484375 4.972656 9.539062 4.988281 9.589844 C 4.96875 9.699219 4.960938 9.808594 4.960938 9.921875 L 4.960938 13.890625 C 4.960938 14.988281 5.847656 15.875 6.945312 15.875 L 14.910156 15.875 C 15.183594 15.875 15.40625 15.652344 15.40625 15.378906 L 15.40625 14.386719 C 15.40625 14.328125 15.398438 14.273438 15.378906 14.222656 C 15.398438 14.113281 15.40625 14.003906 15.40625 13.890625 L 15.40625 9.921875 C 15.40625 8.824219 14.523438 7.9375 13.421875 7.9375 Z M 18.851562 7.9375 L 15.875 10.417969 L 15.875 13.394531 L 18.851562 15.875 Z M 18.851562 7.9375 "/>
</g>
</svg>
