<?xml version="1.0" encoding="UTF-8"?>
<svg xmlns="http://www.w3.org/2000/svg" xmlns:xlink="http://www.w3.org/1999/xlink" width="24px" height="24px" viewBox="0 0 24 24" version="1.1">
<g id="surface1">
<path style=" stroke:none;fill-rule:nonzero;fill:rgb(25.882354%,25.882354%,25.882354%);fill-opacity:1;" d="M 1.984375 3.660156 L 21.828125 3.660156 C 22.375 3.660156 22.820312 4.105469 22.820312 4.652344 L 22.820312 20.527344 C 22.820312 21.074219 22.375 21.519531 21.828125 21.519531 L 1.984375 21.519531 C 1.4375 21.519531 0.992188 21.074219 0.992188 20.527344 L 0.992188 4.652344 C 0.992188 4.105469 1.4375 3.660156 1.984375 3.660156 Z M 1.984375 3.660156 "/>
<path style=" stroke:none;fill-rule:nonzero;fill:rgb(74.117649%,74.117649%,74.117649%);fill-opacity:1;" d="M 1.984375 3.660156 C 1.433594 3.660156 0.992188 4.101562 0.992188 4.652344 L 22.820312 4.652344 C 22.820312 4.101562 22.378906 3.660156 21.828125 3.660156 Z M 0.992188 20.527344 C 0.992188 21.078125 1.433594 21.519531 1.984375 21.519531 L 21.828125 21.519531 C 22.378906 21.519531 22.820312 21.078125 22.820312 20.527344 Z M 0.992188 20.527344 "/>
<path style=" stroke:none;fill-rule:nonzero;fill:rgb(96.078432%,96.078432%,96.078432%);fill-opacity:1;" d="M 8.433594 17.550781 L 9.425781 17.550781 C 9.699219 17.550781 9.921875 17.773438 9.921875 18.046875 L 9.921875 19.039062 C 9.921875 19.3125 9.699219 19.535156 9.425781 19.535156 L 8.433594 19.535156 C 8.160156 19.535156 7.9375 19.3125 7.9375 19.039062 L 7.9375 18.046875 C 7.9375 17.773438 8.160156 17.550781 8.433594 17.550781 Z M 8.433594 17.550781 "/>
<path style=" stroke:none;fill-rule:nonzero;fill:rgb(96.078432%,96.078432%,96.078432%);fill-opacity:1;" d="M 11.90625 17.550781 C 12.453125 17.550781 12.898438 17.996094 12.898438 18.542969 C 12.898438 19.089844 12.453125 19.535156 11.90625 19.535156 C 11.359375 19.535156 10.914062 19.089844 10.914062 18.542969 C 10.914062 17.996094 11.359375 17.550781 11.90625 17.550781 Z M 11.90625 17.550781 "/>
<path style=" stroke:none;fill-rule:nonzero;fill:rgb(96.078432%,96.078432%,96.078432%);fill-opacity:1;" d="M 14.023438 18.273438 L 14.597656 17.699219 C 14.753906 17.542969 15.011719 17.542969 15.167969 17.699219 L 15.742188 18.273438 C 15.898438 18.429688 15.898438 18.6875 15.742188 18.84375 L 15.167969 19.417969 C 15.011719 19.574219 14.753906 19.574219 14.597656 19.417969 L 14.023438 18.84375 C 13.867188 18.6875 13.867188 18.429688 14.023438 18.273438 Z M 14.023438 18.273438 "/>
<path style=" stroke:none;fill-rule:nonzero;fill:rgb(74.117649%,74.117649%,74.117649%);fill-opacity:1;" d="M 2.976562 3.660156 L 4.960938 3.660156 C 5.234375 3.660156 5.457031 3.882812 5.457031 4.15625 L 5.457031 5.644531 C 5.457031 5.917969 5.234375 6.140625 4.960938 6.140625 L 2.976562 6.140625 C 2.703125 6.140625 2.480469 5.917969 2.480469 5.644531 L 2.480469 4.15625 C 2.480469 3.882812 2.703125 3.660156 2.976562 3.660156 Z M 2.976562 3.660156 "/>
<path style=" stroke:none;fill-rule:nonzero;fill:rgb(25.882354%,25.882354%,25.882354%);fill-opacity:1;" d="M 3.96875 4.652344 C 4.242188 4.652344 4.464844 4.875 4.464844 5.148438 C 4.464844 5.421875 4.242188 5.644531 3.96875 5.644531 C 3.695312 5.644531 3.472656 5.421875 3.472656 5.148438 C 3.472656 4.875 3.695312 4.652344 3.96875 4.652344 Z M 3.96875 4.652344 "/>
</g>
</svg>
