<?xml version="1.0" encoding="UTF-8"?>
<svg xmlns="http://www.w3.org/2000/svg" xmlns:xlink="http://www.w3.org/1999/xlink" width="48px" height="48px" viewBox="0 0 48 48" version="1.1">
<g id="surface1">
<path style=" stroke:none;fill-rule:nonzero;fill:rgb(38.039216%,38.039216%,38.039216%);fill-opacity:1;" d="M 31.75 2.359375 L 7.9375 2.359375 C 6.839844 2.359375 5.953125 3.246094 5.953125 4.34375 L 5.953125 44.03125 C 5.953125 45.128906 6.839844 46.015625 7.9375 46.015625 L 39.6875 46.015625 C 40.785156 46.015625 41.671875 45.128906 41.671875 44.03125 L 41.671875 12.28125 Z M 31.75 2.359375 "/>
<path style=" stroke:none;fill-rule:nonzero;fill:rgb(25.882354%,25.882354%,25.882354%);fill-opacity:1;" d="M 41.671875 12.28125 L 31.75 2.359375 L 31.75 10.296875 C 31.75 11.394531 32.636719 12.28125 33.734375 12.28125 Z M 41.671875 12.28125 "/>
<path style=" stroke:none;fill-rule:nonzero;fill:rgb(96.078432%,96.078432%,96.078432%);fill-opacity:1;" d="M 23.8125 13.28125 C 23.359375 13.28125 22.96875 13.589844 22.859375 14.027344 L 21.375 19.957031 L 19.640625 17.644531 C 19.453125 17.394531 19.160156 17.25 18.851562 17.25 L 16.867188 17.25 C 16.511719 17.246094 16.179688 17.429688 16.003906 17.738281 C 15.824219 18.042969 15.824219 18.425781 16.003906 18.730469 C 16.179688 19.039062 16.511719 19.222656 16.867188 19.21875 L 18.359375 19.21875 L 21.039062 22.792969 C 21.269531 23.097656 21.652344 23.242188 22.023438 23.167969 C 22.394531 23.09375 22.691406 22.808594 22.78125 22.441406 L 24.582031 15.25 L 30.757812 15.25 C 31.113281 15.253906 31.441406 15.066406 31.621094 14.761719 C 31.800781 14.453125 31.800781 14.074219 31.621094 13.769531 C 31.441406 13.464844 31.113281 13.277344 30.757812 13.28125 Z M 29.796875 16.246094 C 29.4375 16.238281 29.101562 16.425781 28.921875 16.734375 L 28.277344 17.808594 L 27.632812 16.734375 C 27.464844 16.445312 27.160156 16.261719 26.824219 16.246094 C 26.460938 16.230469 26.117188 16.417969 25.933594 16.730469 C 25.75 17.046875 25.753906 17.4375 25.945312 17.75 L 27.128906 19.722656 L 25.945312 21.695312 C 25.757812 22 25.75 22.375 25.921875 22.6875 C 26.089844 22.996094 26.417969 23.191406 26.769531 23.195312 C 27.125 23.203125 27.453125 23.015625 27.632812 22.710938 L 28.277344 21.636719 L 28.921875 22.710938 C 29.101562 23.015625 29.429688 23.203125 29.785156 23.195312 C 30.136719 23.191406 30.464844 22.996094 30.632812 22.6875 C 30.804688 22.375 30.796875 22 30.609375 21.695312 L 29.425781 19.722656 L 30.609375 17.75 C 30.796875 17.449219 30.804688 17.074219 30.640625 16.761719 C 30.472656 16.453125 30.148438 16.253906 29.796875 16.246094 Z M 13.890625 24.195312 C 13.535156 24.191406 13.203125 24.375 13.027344 24.683594 C 12.847656 24.988281 12.847656 25.371094 13.027344 25.675781 C 13.203125 25.984375 13.535156 26.167969 13.890625 26.164062 L 33.734375 26.164062 C 34.089844 26.167969 34.421875 25.984375 34.597656 25.675781 C 34.777344 25.371094 34.777344 24.988281 34.597656 24.683594 C 34.421875 24.375 34.089844 24.191406 33.734375 24.195312 Z M 26.792969 27.160156 C 26.433594 27.160156 26.101562 27.359375 25.929688 27.671875 L 24.050781 31.019531 L 22.191406 27.679688 C 22.015625 27.351562 21.671875 27.152344 21.304688 27.160156 C 20.957031 27.167969 20.636719 27.359375 20.46875 27.660156 C 20.296875 27.960938 20.296875 28.332031 20.472656 28.632812 L 22.914062 33.035156 L 21.464844 35.609375 C 21.292969 35.917969 21.296875 36.292969 21.476562 36.597656 C 21.65625 36.898438 21.984375 37.085938 22.335938 37.082031 C 22.6875 37.074219 23.011719 36.882812 23.183594 36.578125 L 27.648438 28.640625 C 27.824219 28.332031 27.824219 27.957031 27.648438 27.652344 C 27.472656 27.347656 27.144531 27.160156 26.792969 27.160156 Z M 26.792969 27.160156 "/>
</g>
</svg>
