<?xml version="1.0" encoding="UTF-8"?>
<svg xmlns="http://www.w3.org/2000/svg" xmlns:xlink="http://www.w3.org/1999/xlink" width="48px" height="48px" viewBox="0 0 48 48" version="1.1">
<g id="surface1">
<path style=" stroke:none;fill-rule:nonzero;fill:rgb(25.882354%,64.705884%,96.078432%);fill-opacity:1;" d="M 31.75 2.359375 L 7.9375 2.359375 C 6.839844 2.359375 5.953125 3.246094 5.953125 4.34375 L 5.953125 44.03125 C 5.953125 45.128906 6.839844 46.015625 7.9375 46.015625 L 39.6875 46.015625 C 40.785156 46.015625 41.671875 45.128906 41.671875 44.03125 L 41.671875 12.28125 Z M 31.75 2.359375 "/>
<path style=" stroke:none;fill-rule:nonzero;fill:rgb(11.764706%,53.333336%,89.803922%);fill-opacity:1;" d="M 41.671875 12.28125 L 31.75 2.359375 L 31.75 10.296875 C 31.75 11.394531 32.636719 12.28125 33.734375 12.28125 Z M 41.671875 12.28125 "/>
<path style=" stroke:none;fill-rule:nonzero;fill:rgb(96.078432%,96.078432%,96.078432%);fill-opacity:1;" d="M 18.394531 17.242188 C 17.296875 17.242188 16.410156 18.128906 16.410156 19.226562 C 16.410156 20.15625 17.042969 20.929688 17.898438 21.148438 L 17.898438 27.207031 C 16.488281 27.441406 15.417969 28.660156 15.417969 30.140625 C 15.417969 31.789062 16.746094 33.117188 18.394531 33.117188 C 19.875 33.117188 21.097656 32.046875 21.332031 30.636719 L 28.378906 30.636719 C 28.597656 31.496094 29.375 32.125 30.300781 32.125 C 31.402344 32.125 32.285156 31.238281 32.285156 30.140625 C 32.285156 29.042969 31.402344 28.15625 30.300781 28.15625 C 29.375 28.15625 28.601562 28.785156 28.378906 29.644531 L 21.332031 29.644531 C 21.125 28.394531 20.140625 27.414062 18.890625 27.207031 L 18.890625 21.148438 C 19.75 20.929688 20.378906 20.15625 20.378906 19.226562 C 20.378906 18.128906 19.496094 17.242188 18.394531 17.242188 Z M 18.394531 17.242188 "/>
</g>
</svg>
