<?xml version="1.0" encoding="UTF-8"?>
<svg xmlns="http://www.w3.org/2000/svg" xmlns:xlink="http://www.w3.org/1999/xlink" width="48px" height="48px" viewBox="0 0 48 48" version="1.1">
<g id="surface1">
<path style=" stroke:none;fill-rule:nonzero;fill:rgb(100%,65.490198%,14.901961%);fill-opacity:1;" d="M 31.75 2.359375 L 7.9375 2.359375 C 6.839844 2.359375 5.953125 3.246094 5.953125 4.34375 L 5.953125 44.03125 C 5.953125 45.128906 6.839844 46.015625 7.9375 46.015625 L 39.6875 46.015625 C 40.785156 46.015625 41.671875 45.128906 41.671875 44.03125 L 41.671875 12.28125 Z M 31.75 2.359375 "/>
<path style=" stroke:none;fill-rule:nonzero;fill:rgb(98.431373%,54.901963%,0%);fill-opacity:1;" d="M 41.671875 12.28125 L 31.75 2.359375 L 31.75 10.296875 C 31.75 11.394531 32.636719 12.28125 33.734375 12.28125 Z M 41.671875 12.28125 "/>
<path style=" stroke:none;fill-rule:nonzero;fill:rgb(96.078432%,96.078432%,96.078432%);fill-opacity:1;" d="M 23.660156 30.238281 C 23.855469 30.046875 23.855469 29.734375 23.660156 29.539062 L 19.449219 25.328125 C 19.273438 25.152344 19 25.136719 18.804688 25.277344 C 18.785156 25.292969 18.765625 25.308594 18.75 25.328125 L 14.539062 29.539062 C 14.34375 29.734375 14.34375 30.046875 14.539062 30.238281 L 15.242188 30.941406 C 15.433594 31.136719 15.75 31.136719 15.941406 30.941406 L 19.101562 27.785156 L 22.257812 30.941406 C 22.449219 31.136719 22.765625 31.136719 22.957031 30.941406 Z M 23.660156 30.238281 "/>
<path style=" stroke:none;fill-rule:nonzero;fill:rgb(96.078432%,96.078432%,96.078432%);fill-opacity:1;" d="M 23.964844 24.3125 C 23.769531 24.117188 23.769531 23.804688 23.964844 23.609375 L 27.472656 20.101562 L 28.175781 19.402344 C 28.351562 19.222656 28.625 19.207031 28.820312 19.351562 C 28.839844 19.367188 28.859375 19.382812 28.875 19.402344 L 29.578125 20.101562 L 33.085938 23.609375 C 33.28125 23.804688 33.28125 24.117188 33.085938 24.3125 L 32.382812 25.011719 C 32.191406 25.207031 31.875 25.207031 31.683594 25.011719 L 28.523438 21.855469 L 25.367188 25.011719 C 25.175781 25.207031 24.859375 25.207031 24.667969 25.011719 Z M 23.964844 24.3125 "/>
</g>
</svg>
