<?xml version="1.0" encoding="UTF-8"?>
<svg xmlns="http://www.w3.org/2000/svg" xmlns:xlink="http://www.w3.org/1999/xlink" width="48px" height="48px" viewBox="0 0 48 48" version="1.1">
<g id="surface1">
<path style=" stroke:none;fill-rule:nonzero;fill:rgb(38.039216%,38.039216%,38.039216%);fill-opacity:1;" d="M 35.71875 36.09375 C 35.71875 39.566406 29.765625 42.046875 26.789062 42.046875 L 26.789062 44.03125 C 31.253906 44.03125 37.703125 41.054688 37.703125 36.09375 Z M 35.71875 36.09375 "/>
<path style=" stroke:none;fill-rule:nonzero;fill:rgb(38.039216%,38.039216%,38.039216%);fill-opacity:1;" d="M 23.8125 2.359375 C 13.917969 2.359375 5.953125 10.324219 5.953125 20.21875 L 5.953125 23.195312 C 5.953125 23.527344 5.960938 23.859375 5.980469 24.1875 L 7.980469 24.1875 C 7.953125 23.804688 7.9375 23.417969 7.9375 23.03125 L 7.9375 20.382812 C 7.9375 11.589844 15.019531 4.507812 23.8125 4.507812 C 32.605469 4.507812 39.6875 11.589844 39.6875 20.382812 L 39.6875 23.03125 C 39.6875 23.417969 39.671875 23.804688 39.644531 24.1875 L 41.644531 24.1875 C 41.664062 23.859375 41.671875 23.527344 41.671875 23.195312 L 41.671875 20.21875 C 41.671875 10.324219 33.707031 2.359375 23.8125 2.359375 Z M 23.8125 2.359375 "/>
<path style=" stroke:none;fill-rule:nonzero;fill:rgb(38.039216%,38.039216%,38.039216%);fill-opacity:1;" d="M 43.589844 23.089844 C 42.53125 22.804688 41.441406 23.433594 41.160156 24.492188 L 39.359375 31.199219 C 39.078125 32.257812 39.707031 33.347656 40.765625 33.628906 C 41.824219 33.914062 42.910156 33.285156 43.195312 32.226562 L 44.992188 25.519531 C 45.277344 24.460938 44.648438 23.371094 43.589844 23.089844 Z M 43.589844 23.089844 "/>
<path style=" stroke:none;fill-rule:nonzero;fill:rgb(36.078432%,41.960785%,75.294119%);fill-opacity:1;" d="M 42.71875 18.667969 L 40.800781 18.15625 C 39.742188 17.871094 38.65625 18.5 38.371094 19.558594 L 34.519531 33.933594 C 34.234375 34.992188 34.863281 36.082031 35.921875 36.363281 L 37.839844 36.878906 C 38.898438 37.160156 39.984375 36.535156 40.269531 35.476562 L 44.121094 21.097656 C 44.40625 20.039062 43.777344 18.953125 42.71875 18.667969 Z M 42.71875 18.667969 "/>
<path style=" stroke:none;fill-rule:nonzero;fill:rgb(36.078432%,41.960785%,75.294119%);fill-opacity:1;" d="M 23.8125 2.359375 C 19.972656 2.359375 16.335938 3.378906 13.996094 4.550781 C 13.347656 4.863281 12.921875 5.496094 12.875 6.210938 C 12.828125 6.925781 13.171875 7.613281 13.769531 8.003906 C 14.371094 8.394531 15.136719 8.433594 15.769531 8.105469 C 17.398438 7.292969 20.734375 6.328125 23.8125 6.328125 C 26.890625 6.328125 30.226562 7.292969 31.855469 8.105469 C 32.488281 8.433594 33.253906 8.394531 33.855469 8.003906 C 34.453125 7.613281 34.796875 6.925781 34.75 6.210938 C 34.703125 5.496094 34.277344 4.863281 33.628906 4.550781 C 31.289062 3.378906 27.652344 2.359375 23.8125 2.359375 Z M 23.8125 2.359375 "/>
<path style=" stroke:none;fill-rule:nonzero;fill:rgb(38.039216%,38.039216%,38.039216%);fill-opacity:1;" d="M 4.035156 23.089844 C 5.09375 22.804688 6.183594 23.433594 6.464844 24.492188 L 8.265625 31.199219 C 8.546875 32.257812 7.917969 33.347656 6.859375 33.628906 C 5.800781 33.914062 4.714844 33.285156 4.429688 32.226562 L 2.632812 25.519531 C 2.347656 24.460938 2.976562 23.371094 4.035156 23.089844 Z M 4.035156 23.089844 "/>
<path style=" stroke:none;fill-rule:nonzero;fill:rgb(36.078432%,41.960785%,75.294119%);fill-opacity:1;" d="M 4.90625 18.667969 L 6.824219 18.15625 C 7.882812 17.871094 8.96875 18.5 9.253906 19.558594 L 13.105469 33.933594 C 13.390625 34.992188 12.761719 36.082031 11.703125 36.363281 L 9.785156 36.878906 C 8.726562 37.160156 7.640625 36.535156 7.355469 35.476562 L 3.503906 21.097656 C 3.21875 20.039062 3.847656 18.953125 4.90625 18.667969 Z M 4.90625 18.667969 "/>
<path style=" stroke:none;fill-rule:nonzero;fill:rgb(36.078432%,41.960785%,75.294119%);fill-opacity:1;" d="M 19.84375 40.0625 L 27.78125 40.0625 C 28.878906 40.0625 29.765625 40.949219 29.765625 42.046875 L 29.765625 44.03125 C 29.765625 45.128906 28.878906 46.015625 27.78125 46.015625 L 19.84375 46.015625 C 18.746094 46.015625 17.859375 45.128906 17.859375 44.03125 L 17.859375 42.046875 C 17.859375 40.949219 18.746094 40.0625 19.84375 40.0625 Z M 19.84375 40.0625 "/>
<path style=" stroke:none;fill-rule:nonzero;fill:rgb(22.352941%,28.627452%,67.058825%);fill-opacity:1;" d="M 22.820312 40.558594 C 23.09375 40.558594 23.316406 40.78125 23.316406 41.054688 C 23.316406 41.328125 23.09375 41.550781 22.820312 41.550781 C 22.546875 41.550781 22.324219 41.328125 22.324219 41.054688 C 22.324219 40.78125 22.546875 40.558594 22.820312 40.558594 Z M 22.820312 40.558594 "/>
<path style=" stroke:none;fill-rule:nonzero;fill:rgb(22.352941%,28.627452%,67.058825%);fill-opacity:1;" d="M 24.804688 40.558594 C 25.078125 40.558594 25.300781 40.78125 25.300781 41.054688 C 25.300781 41.328125 25.078125 41.550781 24.804688 41.550781 C 24.53125 41.550781 24.308594 41.328125 24.308594 41.054688 C 24.308594 40.78125 24.53125 40.558594 24.804688 40.558594 Z M 24.804688 40.558594 "/>
<path style=" stroke:none;fill-rule:nonzero;fill:rgb(22.352941%,28.627452%,67.058825%);fill-opacity:1;" d="M 26.789062 40.558594 C 27.0625 40.558594 27.285156 40.78125 27.285156 41.054688 C 27.285156 41.328125 27.0625 41.550781 26.789062 41.550781 C 26.515625 41.550781 26.292969 41.328125 26.292969 41.054688 C 26.292969 40.78125 26.515625 40.558594 26.789062 40.558594 Z M 26.789062 40.558594 "/>
<path style=" stroke:none;fill-rule:nonzero;fill:rgb(22.352941%,28.627452%,67.058825%);fill-opacity:1;" d="M 20.835938 40.558594 C 21.109375 40.558594 21.332031 40.78125 21.332031 41.054688 C 21.332031 41.328125 21.109375 41.550781 20.835938 41.550781 C 20.5625 41.550781 20.339844 41.328125 20.339844 41.054688 C 20.339844 40.78125 20.5625 40.558594 20.835938 40.558594 Z M 20.835938 40.558594 "/>
<path style=" stroke:none;fill-rule:nonzero;fill:rgb(22.352941%,28.627452%,67.058825%);fill-opacity:1;" d="M 18.851562 40.558594 C 19.125 40.558594 19.347656 40.78125 19.347656 41.054688 C 19.347656 41.328125 19.125 41.550781 18.851562 41.550781 C 18.578125 41.550781 18.355469 41.328125 18.355469 41.054688 C 18.355469 40.78125 18.578125 40.558594 18.851562 40.558594 Z M 18.851562 40.558594 "/>
<path style=" stroke:none;fill-rule:nonzero;fill:rgb(22.352941%,28.627452%,67.058825%);fill-opacity:1;" d="M 21.828125 41.550781 C 22.101562 41.550781 22.324219 41.773438 22.324219 42.046875 C 22.324219 42.320312 22.101562 42.542969 21.828125 42.542969 C 21.554688 42.542969 21.332031 42.320312 21.332031 42.046875 C 21.332031 41.773438 21.554688 41.550781 21.828125 41.550781 Z M 21.828125 41.550781 "/>
<path style=" stroke:none;fill-rule:nonzero;fill:rgb(22.352941%,28.627452%,67.058825%);fill-opacity:1;" d="M 23.8125 41.550781 C 24.085938 41.550781 24.308594 41.773438 24.308594 42.046875 C 24.308594 42.320312 24.085938 42.542969 23.8125 42.542969 C 23.539062 42.542969 23.316406 42.320312 23.316406 42.046875 C 23.316406 41.773438 23.539062 41.550781 23.8125 41.550781 Z M 23.8125 41.550781 "/>
<path style=" stroke:none;fill-rule:nonzero;fill:rgb(22.352941%,28.627452%,67.058825%);fill-opacity:1;" d="M 25.796875 41.550781 C 26.070312 41.550781 26.292969 41.773438 26.292969 42.046875 C 26.292969 42.320312 26.070312 42.542969 25.796875 42.542969 C 25.523438 42.542969 25.300781 42.320312 25.300781 42.046875 C 25.300781 41.773438 25.523438 41.550781 25.796875 41.550781 Z M 25.796875 41.550781 "/>
<path style=" stroke:none;fill-rule:nonzero;fill:rgb(22.352941%,28.627452%,67.058825%);fill-opacity:1;" d="M 28.773438 40.558594 C 29.046875 40.558594 29.269531 40.78125 29.269531 41.054688 C 29.269531 41.328125 29.046875 41.550781 28.773438 41.550781 C 28.5 41.550781 28.277344 41.328125 28.277344 41.054688 C 28.277344 40.78125 28.5 40.558594 28.773438 40.558594 Z M 28.773438 40.558594 "/>
<path style=" stroke:none;fill-rule:nonzero;fill:rgb(22.352941%,28.627452%,67.058825%);fill-opacity:1;" d="M 19.84375 41.550781 C 20.117188 41.550781 20.339844 41.773438 20.339844 42.046875 C 20.339844 42.320312 20.117188 42.542969 19.84375 42.542969 C 19.570312 42.542969 19.347656 42.320312 19.347656 42.046875 C 19.347656 41.773438 19.570312 41.550781 19.84375 41.550781 Z M 19.84375 41.550781 "/>
<path style=" stroke:none;fill-rule:nonzero;fill:rgb(22.352941%,28.627452%,67.058825%);fill-opacity:1;" d="M 27.78125 41.550781 C 28.054688 41.550781 28.277344 41.773438 28.277344 42.046875 C 28.277344 42.320312 28.054688 42.542969 27.78125 42.542969 C 27.507812 42.542969 27.285156 42.320312 27.285156 42.046875 C 27.285156 41.773438 27.507812 41.550781 27.78125 41.550781 Z M 27.78125 41.550781 "/>
<path style=" stroke:none;fill-rule:nonzero;fill:rgb(22.352941%,28.627452%,67.058825%);fill-opacity:1;" d="M 22.820312 42.542969 C 23.09375 42.542969 23.316406 42.765625 23.316406 43.039062 C 23.316406 43.3125 23.09375 43.535156 22.820312 43.535156 C 22.546875 43.535156 22.324219 43.3125 22.324219 43.039062 C 22.324219 42.765625 22.546875 42.542969 22.820312 42.542969 Z M 22.820312 42.542969 "/>
<path style=" stroke:none;fill-rule:nonzero;fill:rgb(22.352941%,28.627452%,67.058825%);fill-opacity:1;" d="M 24.804688 42.542969 C 25.078125 42.542969 25.300781 42.765625 25.300781 43.039062 C 25.300781 43.3125 25.078125 43.535156 24.804688 43.535156 C 24.53125 43.535156 24.308594 43.3125 24.308594 43.039062 C 24.308594 42.765625 24.53125 42.542969 24.804688 42.542969 Z M 24.804688 42.542969 "/>
<path style=" stroke:none;fill-rule:nonzero;fill:rgb(22.352941%,28.627452%,67.058825%);fill-opacity:1;" d="M 26.789062 42.542969 C 27.0625 42.542969 27.285156 42.765625 27.285156 43.039062 C 27.285156 43.3125 27.0625 43.535156 26.789062 43.535156 C 26.515625 43.535156 26.292969 43.3125 26.292969 43.039062 C 26.292969 42.765625 26.515625 42.542969 26.789062 42.542969 Z M 26.789062 42.542969 "/>
<path style=" stroke:none;fill-rule:nonzero;fill:rgb(22.352941%,28.627452%,67.058825%);fill-opacity:1;" d="M 20.835938 42.542969 C 21.109375 42.542969 21.332031 42.765625 21.332031 43.039062 C 21.332031 43.3125 21.109375 43.535156 20.835938 43.535156 C 20.5625 43.535156 20.339844 43.3125 20.339844 43.039062 C 20.339844 42.765625 20.5625 42.542969 20.835938 42.542969 Z M 20.835938 42.542969 "/>
<path style=" stroke:none;fill-rule:nonzero;fill:rgb(22.352941%,28.627452%,67.058825%);fill-opacity:1;" d="M 18.851562 42.542969 C 19.125 42.542969 19.347656 42.765625 19.347656 43.039062 C 19.347656 43.3125 19.125 43.535156 18.851562 43.535156 C 18.578125 43.535156 18.355469 43.3125 18.355469 43.039062 C 18.355469 42.765625 18.578125 42.542969 18.851562 42.542969 Z M 18.851562 42.542969 "/>
<path style=" stroke:none;fill-rule:nonzero;fill:rgb(22.352941%,28.627452%,67.058825%);fill-opacity:1;" d="M 28.773438 42.542969 C 29.046875 42.542969 29.269531 42.765625 29.269531 43.039062 C 29.269531 43.3125 29.046875 43.535156 28.773438 43.535156 C 28.5 43.535156 28.277344 43.3125 28.277344 43.039062 C 28.277344 42.765625 28.5 42.542969 28.773438 42.542969 Z M 28.773438 42.542969 "/>
</g>
</svg>
