
<svg xmlns="http://www.w3.org/2000/svg" xmlns:xlink="http://www.w3.org/1999/xlink" width="64px" height="64px" viewBox="0 0 64 64" version="1.1">
<g id="surface1">
<path style=" stroke:none;fill-rule:nonzero;fill:rgb(74.117649%,74.117649%,74.117649%);fill-opacity:1;" d="M 41.695312 48.152344 C 40.972656 48.152344 40.382812 48.738281 40.382812 49.464844 L 40.382812 59.871094 C 40.382812 60.871094 41.457031 61.503906 42.332031 61.019531 L 54.238281 53.257812 C 54.65625 53.027344 54.914062 52.585938 54.914062 52.109375 L 54.914062 49.464844 C 54.914062 48.738281 54.328125 48.152344 53.601562 48.152344 Z M 41.695312 48.152344 "/>
<path style=" stroke:none;fill-rule:nonzero;fill:rgb(87.843138%,87.843138%,87.843138%);fill-opacity:1;" d="M 10.582031 2.8125 L 52.917969 2.8125 C 54.378906 2.8125 55.5625 3.996094 55.5625 5.457031 L 55.5625 53.082031 C 55.5625 54.542969 54.378906 55.726562 52.917969 55.726562 L 10.582031 55.726562 C 9.121094 55.726562 7.9375 54.542969 7.9375 53.082031 L 7.9375 5.457031 C 7.9375 3.996094 9.121094 2.8125 10.582031 2.8125 Z M 10.582031 2.8125 "/>
<path style=" stroke:none;fill-rule:nonzero;fill:rgb(61.960787%,61.960787%,61.960787%);fill-opacity:1;" d="M 25.136719 20.007812 L 46.300781 20.007812 C 47.03125 20.007812 47.625 20.578125 47.625 21.277344 C 47.625 21.980469 47.03125 22.550781 46.300781 22.550781 L 25.136719 22.550781 C 24.40625 22.550781 23.8125 21.980469 23.8125 21.277344 C 23.8125 20.578125 24.40625 20.007812 25.136719 20.007812 Z M 25.136719 20.007812 "/>
<path style=" stroke:none;fill-rule:nonzero;fill:rgb(61.960787%,61.960787%,61.960787%);fill-opacity:1;" d="M 25.136719 14.71875 L 46.300781 14.71875 C 47.03125 14.71875 47.625 15.308594 47.625 16.039062 C 47.625 16.769531 47.03125 17.363281 46.300781 17.363281 L 25.136719 17.363281 C 24.40625 17.363281 23.8125 16.769531 23.8125 16.039062 C 23.8125 15.308594 24.40625 14.71875 25.136719 14.71875 Z M 25.136719 14.71875 "/>
<path style=" stroke:none;fill-rule:nonzero;fill:rgb(61.960787%,61.960787%,61.960787%);fill-opacity:1;" d="M 25.136719 30.59375 L 46.300781 30.59375 C 47.03125 30.59375 47.625 31.183594 47.625 31.914062 C 47.625 32.644531 47.03125 33.238281 46.300781 33.238281 L 25.136719 33.238281 C 24.40625 33.238281 23.8125 32.644531 23.8125 31.914062 C 23.8125 31.183594 24.40625 30.59375 25.136719 30.59375 Z M 25.136719 30.59375 "/>
<path style=" stroke:none;fill-rule:nonzero;fill:rgb(61.960787%,61.960787%,61.960787%);fill-opacity:1;" d="M 25.136719 41.175781 L 46.300781 41.175781 C 47.03125 41.175781 47.625 41.769531 47.625 42.5 C 47.625 43.230469 47.03125 43.820312 46.300781 43.820312 L 25.136719 43.820312 C 24.40625 43.820312 23.8125 43.230469 23.8125 42.5 C 23.8125 41.769531 24.40625 41.175781 25.136719 41.175781 Z M 25.136719 41.175781 "/>
<path style=" stroke:none;fill-rule:nonzero;fill:rgb(100%,54.11765%,39.607844%);fill-opacity:1;" d="M 25.082031 25.40625 L 46.355469 25.40625 C 47.054688 25.40625 47.625 25.976562 47.625 26.675781 C 47.625 27.378906 47.054688 27.945312 46.355469 27.945312 L 25.082031 27.945312 C 24.382812 27.945312 23.8125 27.378906 23.8125 26.675781 C 23.8125 25.976562 24.382812 25.40625 25.082031 25.40625 Z M 25.082031 25.40625 "/>
<path style=" stroke:none;fill-rule:nonzero;fill:rgb(61.960787%,61.960787%,61.960787%);fill-opacity:1;" d="M 25.136719 35.882812 L 46.300781 35.882812 C 47.03125 35.882812 47.625 36.476562 47.625 37.207031 C 47.625 37.9375 47.03125 38.53125 46.300781 38.53125 L 25.136719 38.53125 C 24.40625 38.53125 23.8125 37.9375 23.8125 37.207031 C 23.8125 36.476562 24.40625 35.882812 25.136719 35.882812 Z M 25.136719 35.882812 "/>
<path style=" stroke:none;fill-rule:nonzero;fill:rgb(61.960787%,61.960787%,61.960787%);fill-opacity:1;" d="M 18.519531 14.054688 C 19.617188 14.054688 20.503906 14.945312 20.503906 16.039062 C 20.503906 17.136719 19.617188 18.023438 18.519531 18.023438 C 17.425781 18.023438 16.535156 17.136719 16.535156 16.039062 C 16.535156 14.945312 17.425781 14.054688 18.519531 14.054688 Z M 18.519531 14.054688 "/>
<path style=" stroke:none;fill-rule:nonzero;fill:rgb(61.960787%,61.960787%,61.960787%);fill-opacity:1;" d="M 18.519531 19.347656 C 19.617188 19.347656 20.503906 20.234375 20.503906 21.332031 C 20.503906 22.429688 19.617188 23.316406 18.519531 23.316406 C 17.425781 23.316406 16.535156 22.429688 16.535156 21.332031 C 16.535156 20.234375 17.425781 19.347656 18.519531 19.347656 Z M 18.519531 19.347656 "/>
<path style=" stroke:none;fill-rule:nonzero;fill:rgb(100%,54.11765%,39.607844%);fill-opacity:1;" d="M 18.519531 24.640625 C 19.617188 24.640625 20.503906 25.527344 20.503906 26.625 C 20.503906 27.71875 19.617188 28.609375 18.519531 28.609375 C 17.425781 28.609375 16.535156 27.71875 16.535156 26.625 C 16.535156 25.527344 17.425781 24.640625 18.519531 24.640625 Z M 18.519531 24.640625 "/>
<path style=" stroke:none;fill-rule:nonzero;fill:rgb(61.960787%,61.960787%,61.960787%);fill-opacity:1;" d="M 18.519531 29.929688 C 19.617188 29.929688 20.503906 30.820312 20.503906 31.914062 C 20.503906 33.011719 19.617188 33.898438 18.519531 33.898438 C 17.425781 33.898438 16.535156 33.011719 16.535156 31.914062 C 16.535156 30.820312 17.425781 29.929688 18.519531 29.929688 Z M 18.519531 29.929688 "/>
<path style=" stroke:none;fill-rule:nonzero;fill:rgb(61.960787%,61.960787%,61.960787%);fill-opacity:1;" d="M 18.519531 35.222656 C 19.617188 35.222656 20.503906 36.109375 20.503906 37.207031 C 20.503906 38.304688 19.617188 39.191406 18.519531 39.191406 C 17.425781 39.191406 16.535156 38.304688 16.535156 37.207031 C 16.535156 36.109375 17.425781 35.222656 18.519531 35.222656 Z M 18.519531 35.222656 "/>
<path style=" stroke:none;fill-rule:nonzero;fill:rgb(61.960787%,61.960787%,61.960787%);fill-opacity:1;" d="M 18.519531 40.515625 C 19.617188 40.515625 20.503906 41.402344 20.503906 42.5 C 20.503906 43.59375 19.617188 44.484375 18.519531 44.484375 C 17.425781 44.484375 16.535156 43.59375 16.535156 42.5 C 16.535156 41.402344 17.425781 40.515625 18.519531 40.515625 Z M 18.519531 40.515625 "/>
<path style=" stroke:none;fill-rule:nonzero;fill:rgb(25.882354%,25.882354%,25.882354%);fill-opacity:1;" d="M 22.941406 52.601562 L 39.980469 35.371094 L 40.667969 30.367188 L 38.082031 27.8125 L 33.089844 28.554688 L 16.050781 45.785156 Z M 22.941406 52.601562 "/>
<path style=" stroke:none;fill-rule:nonzero;fill:rgb(50.588238%,78.039217%,51.764709%);fill-opacity:1;" d="M 21.800781 53.753906 L 20.652344 52.617188 L 21.792969 51.464844 L 22.941406 52.601562 Z M 21.800781 53.753906 "/>
<path style=" stroke:none;fill-rule:nonzero;fill:rgb(100%,54.11765%,39.607844%);fill-opacity:1;" d="M 12.707031 60.65625 C 13.339844 61.285156 14.359375 61.277344 14.988281 60.640625 L 17.261719 58.34375 L 21.804688 53.75 L 14.914062 46.933594 L 10.371094 51.527344 L 8.097656 53.824219 C 7.46875 54.460938 7.472656 55.480469 8.109375 56.109375 Z M 12.707031 60.65625 "/>
<path style=" stroke:none;fill-rule:nonzero;fill:rgb(50.588238%,78.039217%,51.764709%);fill-opacity:1;" d="M 16.058594 48.074219 L 14.910156 46.9375 L 16.050781 45.785156 L 17.199219 46.921875 Z M 16.058594 48.074219 "/>
<path style=" stroke:none;fill-rule:nonzero;fill:rgb(45.882353%,45.882353%,45.882353%);fill-opacity:1;" d="M 19.816406 49.550781 L 35.683594 32.824219 C 36.144531 32.335938 36.46875 31.898438 36.390625 31.820312 L 33.089844 28.554688 L 16.050781 45.785156 L 14.914062 46.933594 L 10.371094 51.527344 L 16.050781 45.785156 Z M 19.816406 49.550781 "/>
<path style=" stroke:none;fill-rule:nonzero;fill:rgb(100%,87.843138%,69.803923%);fill-opacity:1;" d="M 39.980469 35.371094 L 40.667969 30.367188 L 38.082031 27.8125 L 33.089844 28.554688 L 34.242188 30.546875 C 34.996094 30.589844 36.507812 30.800781 37.089844 31.375 L 37.113281 31.402344 C 37.695312 31.976562 37.644531 34.054688 37.691406 34.8125 Z M 39.980469 35.371094 "/>
<path style=" stroke:none;fill-rule:nonzero;fill:rgb(100%,87.843138%,69.803923%);fill-opacity:1;" d="M 37.84375 36.097656 C 38.238281 36.488281 38.941406 36.421875 39.414062 35.945312 L 39.980469 35.371094 L 40.386719 32.414062 C 40.136719 32.464844 39.886719 32.59375 39.679688 32.800781 L 37.976562 34.523438 C 37.503906 35.003906 37.445312 35.703125 37.84375 36.097656 Z M 32.929688 30.386719 C 33.378906 30.832031 34.167969 30.753906 34.699219 30.21875 L 36.613281 28.28125 C 36.703125 28.191406 36.777344 28.097656 36.835938 27.996094 L 33.15625 28.542969 L 33.082031 28.621094 C 32.550781 29.15625 32.484375 29.945312 32.929688 30.386719 Z M 32.929688 30.386719 "/>
<path style=" stroke:none;fill-rule:nonzero;fill:rgb(100%,34.117648%,13.333334%);fill-opacity:0.999893;" d="M 14.988281 60.640625 L 14.917969 52.382812 L 20.65625 52.613281 L 21.800781 53.753906 L 23.175781 52.363281 Z M 14.988281 60.640625 "/>
<path style=" stroke:none;fill-rule:nonzero;fill:rgb(38.039216%,38.039216%,38.039216%);fill-opacity:1;" d="M 21.792969 51.464844 L 33.152344 39.976562 L 35.421875 37.679688 L 37.128906 35.957031 C 38.386719 34.683594 38.378906 32.652344 37.113281 31.402344 L 37.089844 31.375 C 35.824219 30.125 33.792969 30.140625 32.53125 31.414062 L 30.828125 33.136719 L 28.558594 35.433594 L 17.199219 46.921875 Z M 21.792969 51.464844 "/>
<path style=" stroke:none;fill-rule:nonzero;fill:rgb(100%,43.921569%,26.274511%);fill-opacity:1;" d="M 12.691406 58.371094 C 13.328125 59 14.347656 58.992188 14.976562 58.355469 L 20.65625 52.613281 L 16.0625 48.070312 L 10.382812 53.8125 C 9.753906 54.449219 9.757812 55.46875 10.394531 56.097656 Z M 12.691406 58.371094 "/>
<path style=" stroke:none;fill-rule:nonzero;fill:rgb(100%,43.921569%,26.274511%);fill-opacity:1;" d="M 40.667969 30.367188 L 41.078125 27.367188 L 38.082031 27.8125 Z M 40.667969 30.367188 "/>
<path style=" stroke:none;fill-rule:nonzero;fill:rgb(100%,67.058825%,56.862748%);fill-opacity:1;" d="M 39.363281 28.167969 C 39.328125 28.0625 39.558594 27.890625 39.875 27.785156 C 40.195312 27.679688 40.480469 27.683594 40.515625 27.789062 C 40.550781 27.894531 40.320312 28.066406 40 28.167969 C 39.683594 28.273438 39.398438 28.273438 39.363281 28.167969 Z M 39.363281 28.167969 "/>
<path style=" stroke:none;fill-rule:nonzero;fill:rgb(74.117649%,74.117649%,74.117649%);fill-opacity:1;" d="M 20.652344 52.617188 L 16.058594 48.074219 L 17.199219 46.921875 L 21.792969 51.464844 Z M 20.652344 52.617188 "/>
<path style=" stroke:none;fill-rule:nonzero;fill:rgb(87.843138%,87.843138%,87.843138%);fill-opacity:1;" d="M 16.058594 48.074219 L 14.910156 46.9375 L 16.050781 45.785156 L 17.199219 46.921875 Z M 16.058594 48.074219 "/>
<path style=" stroke:none;fill-rule:nonzero;fill:rgb(45.882353%,45.882353%,45.882353%);fill-opacity:1;" d="M 21.804688 53.75 L 20.65625 52.613281 L 21.796875 51.460938 L 22.945312 52.597656 Z M 21.804688 53.75 "/>
</g>
</svg>
