<?xml version="1.0" encoding="UTF-8"?>
<svg xmlns="http://www.w3.org/2000/svg" xmlns:xlink="http://www.w3.org/1999/xlink" width="64px" height="64px" viewBox="0 0 64 64" version="1.1">
<g id="surface1">
<path style=" stroke:none;fill-rule:nonzero;fill:rgb(93.725491%,32.549021%,31.37255%);fill-opacity:1;" d="M 5.292969 3.144531 L 58.207031 3.144531 C 59.667969 3.144531 60.855469 4.332031 60.855469 5.792969 L 60.855469 58.707031 C 60.855469 60.167969 59.667969 61.355469 58.207031 61.355469 L 5.292969 61.355469 C 3.832031 61.355469 2.644531 60.167969 2.644531 58.707031 L 2.644531 5.792969 C 2.644531 4.332031 3.832031 3.144531 5.292969 3.144531 Z M 5.292969 3.144531 "/>
<path style=" stroke:none;fill-rule:nonzero;fill:rgb(93.333334%,93.333334%,93.333334%);fill-opacity:1;" d="M 14.550781 13.730469 C 14.03125 13.730469 13.585938 14.027344 13.367188 14.457031 L 25.324219 25.832031 C 25.445312 25.710938 25.613281 25.636719 25.796875 25.636719 L 37.703125 25.636719 C 38.070312 25.636719 38.363281 25.929688 38.363281 26.296875 L 38.363281 38.203125 C 38.363281 38.386719 38.289062 38.554688 38.167969 38.675781 L 49.542969 50.632812 C 49.972656 50.414062 50.269531 49.96875 50.269531 49.449219 L 50.269531 15.050781 C 50.269531 14.320312 49.679688 13.730469 48.949219 13.730469 Z M 25.140625 26.210938 L 13.230469 35.21875 L 13.230469 49.449219 C 13.230469 50.179688 13.820312 50.769531 14.550781 50.769531 L 28.78125 50.769531 L 37.789062 38.859375 C 37.761719 38.863281 37.730469 38.863281 37.703125 38.863281 L 25.796875 38.863281 C 25.429688 38.863281 25.136719 38.570312 25.136719 38.203125 L 25.136719 26.296875 C 25.136719 26.269531 25.136719 26.238281 25.140625 26.210938 Z M 25.140625 26.210938 "/>
</g>
</svg>
