<?xml version="1.0" encoding="UTF-8"?>
<svg xmlns="http://www.w3.org/2000/svg" xmlns:xlink="http://www.w3.org/1999/xlink" width="64px" height="64px" viewBox="0 0 64 64" version="1.1">
<g id="surface1">
<path style=" stroke:none;fill-rule:nonzero;fill:rgb(93.333334%,93.333334%,93.333334%);fill-opacity:1;" d="M 5.292969 3.144531 L 58.207031 3.144531 C 59.667969 3.144531 60.855469 4.332031 60.855469 5.792969 L 60.855469 58.707031 C 60.855469 60.167969 59.667969 61.355469 58.207031 61.355469 L 5.292969 61.355469 C 3.832031 61.355469 2.644531 60.167969 2.644531 58.707031 L 2.644531 5.792969 C 2.644531 4.332031 3.832031 3.144531 5.292969 3.144531 Z M 5.292969 3.144531 "/>
<path style=" stroke:none;fill-rule:nonzero;fill:rgb(61.960787%,61.960787%,61.960787%);fill-opacity:1;" d="M 21.167969 3.144531 L 22.488281 3.144531 L 22.488281 61.355469 L 21.167969 61.355469 Z M 21.167969 3.144531 "/>
<path style=" stroke:none;fill-rule:nonzero;fill:rgb(61.960787%,61.960787%,61.960787%);fill-opacity:1;" d="M 60.855469 21.667969 L 60.855469 22.988281 L 2.644531 22.988281 L 2.644531 21.667969 Z M 60.855469 21.667969 "/>
<path style=" stroke:none;fill-rule:nonzero;fill:rgb(61.960787%,61.960787%,61.960787%);fill-opacity:1;" d="M 41.011719 3.144531 L 42.332031 3.144531 L 42.332031 61.355469 L 41.011719 61.355469 Z M 41.011719 3.144531 "/>
<path style=" stroke:none;fill-rule:nonzero;fill:rgb(61.960787%,61.960787%,61.960787%);fill-opacity:1;" d="M 60.855469 41.511719 L 60.855469 42.832031 L 2.644531 42.832031 L 2.644531 41.511719 Z M 60.855469 41.511719 "/>
<path style=" stroke:none;fill-rule:nonzero;fill:rgb(49.411765%,34.117648%,76.078433%);fill-opacity:1;" d="M 45.980469 45.15625 C 45.644531 45.15625 45.304688 45.285156 45.046875 45.546875 C 44.527344 46.0625 44.527344 46.898438 45.046875 47.417969 L 49.722656 52.09375 L 45.046875 56.769531 C 44.527344 57.289062 44.527344 58.125 45.046875 58.640625 C 45.5625 59.160156 46.398438 59.160156 46.917969 58.640625 L 51.59375 53.964844 L 56.269531 58.640625 C 56.789062 59.160156 57.625 59.160156 58.140625 58.640625 C 58.660156 58.125 58.660156 57.289062 58.140625 56.769531 L 53.464844 52.09375 L 58.140625 47.417969 C 58.660156 46.898438 58.660156 46.0625 58.140625 45.546875 C 57.625 45.027344 56.789062 45.027344 56.269531 45.546875 L 51.59375 50.222656 L 46.917969 45.546875 C 46.65625 45.285156 46.320312 45.15625 45.980469 45.15625 Z M 45.980469 45.15625 "/>
<path style=" stroke:none;fill-rule:nonzero;fill:rgb(92.54902%,25.098041%,47.843137%);fill-opacity:1;" d="M 11.90625 5.792969 C 8.242188 5.792969 5.292969 8.742188 5.292969 12.40625 C 5.292969 16.070312 8.242188 19.019531 11.90625 19.019531 C 15.570312 19.019531 18.519531 16.070312 18.519531 12.40625 C 18.519531 8.742188 15.570312 5.792969 11.90625 5.792969 Z M 11.90625 8.4375 C 14.105469 8.4375 15.875 10.207031 15.875 12.40625 C 15.875 14.605469 14.105469 16.375 11.90625 16.375 C 9.707031 16.375 7.9375 14.605469 7.9375 12.40625 C 7.9375 10.207031 9.707031 8.4375 11.90625 8.4375 Z M 11.90625 8.4375 "/>
<path style=" stroke:none;fill-rule:nonzero;fill:rgb(92.54902%,25.098041%,47.843137%);fill-opacity:1;" d="M 31.75 25.636719 C 28.085938 25.636719 25.136719 28.585938 25.136719 32.25 C 25.136719 35.914062 28.085938 38.863281 31.75 38.863281 C 35.414062 38.863281 38.363281 35.914062 38.363281 32.25 C 38.363281 28.585938 35.414062 25.636719 31.75 25.636719 Z M 31.75 28.28125 C 33.949219 28.28125 35.71875 30.050781 35.71875 32.25 C 35.71875 34.449219 33.949219 36.21875 31.75 36.21875 C 29.550781 36.21875 27.78125 34.449219 27.78125 32.25 C 27.78125 30.050781 29.550781 28.28125 31.75 28.28125 Z M 31.75 28.28125 "/>
<path style=" stroke:none;fill-rule:nonzero;fill:rgb(49.411765%,34.117648%,76.078433%);fill-opacity:1;" d="M 6.292969 45.15625 C 5.957031 45.15625 5.617188 45.285156 5.359375 45.546875 C 4.839844 46.0625 4.839844 46.898438 5.359375 47.417969 L 10.035156 52.09375 L 5.359375 56.769531 C 4.839844 57.289062 4.839844 58.125 5.359375 58.640625 C 5.875 59.160156 6.710938 59.160156 7.230469 58.640625 L 11.90625 53.964844 L 16.582031 58.640625 C 17.101562 59.160156 17.9375 59.160156 18.453125 58.640625 C 18.972656 58.125 18.972656 57.289062 18.453125 56.769531 L 13.777344 52.09375 L 18.453125 47.417969 C 18.972656 46.898438 18.972656 46.0625 18.453125 45.546875 C 17.9375 45.027344 17.101562 45.027344 16.582031 45.546875 L 11.90625 50.222656 L 7.230469 45.546875 C 6.96875 45.285156 6.632812 45.15625 6.292969 45.15625 Z M 6.292969 45.15625 "/>
</g>
</svg>
