<?xml version="1.0" encoding="UTF-8"?>
<svg xmlns="http://www.w3.org/2000/svg" xmlns:xlink="http://www.w3.org/1999/xlink" width="64" height="64" viewBox="0 0 64 64" version="1.1">
<g id="surface1">
<path style=" stroke:none;fill-rule:nonzero;fill:rgb(93.725491%,32.549021%,31.37255%);fill-opacity:1;" d="M 5.292969 2.644531 L 58.207031 2.644531 C 59.667969 2.644531 60.855469 3.832031 60.855469 5.292969 L 60.855469 58.207031 C 60.855469 59.667969 59.667969 60.855469 58.207031 60.855469 L 5.292969 60.855469 C 3.832031 60.855469 2.644531 59.667969 2.644531 58.207031 L 2.644531 5.292969 C 2.644531 3.832031 3.832031 2.644531 5.292969 2.644531 Z M 5.292969 2.644531 "/>
<path style=" stroke:none;fill-rule:nonzero;fill:rgb(93.333334%,93.333334%,93.333334%);fill-opacity:1;" d="M 32.003906 11.90625 C 29.578125 11.945312 27.21875 12.472656 26.261719 13.453125 C 25.242188 14.496094 25.019531 15.964844 25.304688 17.589844 C 25.847656 20.683594 29.074219 24.480469 31.773438 27.894531 C 31.757812 27.917969 31.734375 27.945312 31.71875 27.964844 C 30.355469 29.554688 28.585938 31.011719 27.261719 32.242188 C 27.472656 31.339844 27.628906 30.359375 27.664062 29.734375 C 27.695312 29.199219 27.671875 28.78125 27.5 28.445312 C 27.410156 28.273438 27.253906 28.113281 27.035156 28.046875 C 26.816406 27.980469 26.589844 28.023438 26.394531 28.109375 C 26.003906 28.28125 25.632812 28.625 25.160156 29.175781 C 24.6875 29.730469 24.136719 30.65625 23.484375 31.671875 C 22.832031 32.6875 22.367188 33.503906 22.070312 34.152344 C 21.914062 34.484375 21.800781 34.773438 21.730469 35.027344 C 21.664062 35.265625 21.632812 35.476562 21.640625 35.671875 C 22.015625 36.140625 22.617188 36.074219 23.109375 36.105469 C 23.320312 36.101562 23.542969 36.066406 23.789062 35.929688 C 24.363281 35.601562 25.070312 35.082031 25.824219 34.480469 C 25.285156 36.148438 24.929688 37.683594 24.070312 39.550781 C 24.0625 39.578125 24.046875 39.601562 24.027344 39.628906 C 19.503906 39.050781 14.78125 39.417969 11.585938 40.449219 C 9.910156 40.988281 8.621094 42.191406 8.117188 43.523438 C 7.617188 44.851562 7.921875 46.542969 9.1875 48.636719 C 10.453125 50.734375 11.84375 51.699219 13.328125 51.996094 C 14.816406 52.296875 16.296875 51.902344 17.671875 50.863281 C 20.289062 48.878906 22.65625 44.273438 24.492188 40.394531 C 24.519531 40.398438 24.550781 40.402344 24.585938 40.40625 C 26.75 40.703125 28.824219 41.929688 30.640625 42.375 C 29.6875 42.65625 28.847656 42.941406 28.246094 43.226562 C 27.730469 43.472656 27.347656 43.695312 27.121094 44.003906 C 27.007812 44.160156 26.933594 44.367188 26.980469 44.574219 C 27.03125 44.785156 27.183594 44.945312 27.359375 45.058594 C 27.714844 45.285156 28.222656 45.414062 28.972656 45.515625 C 29.726562 45.621094 30.714844 45.679688 31.992188 45.695312 C 31.996094 45.695312 32 45.695312 32 45.695312 C 32.003906 45.695312 32.007812 45.695312 32.007812 45.695312 C 33.285156 45.679688 34.273438 45.621094 35.027344 45.515625 C 35.777344 45.414062 36.285156 45.285156 36.640625 45.058594 C 36.816406 44.945312 36.972656 44.785156 37.019531 44.574219 C 37.070312 44.367188 36.996094 44.160156 36.878906 44.003906 C 36.652344 43.695312 36.269531 43.472656 35.753906 43.226562 C 35.152344 42.941406 34.3125 42.65625 33.359375 42.375 C 35.175781 41.929688 37.25 40.703125 39.414062 40.40625 C 39.449219 40.402344 39.472656 40.398438 39.507812 40.394531 C 41.34375 44.273438 43.710938 48.878906 46.328125 50.863281 C 47.703125 51.902344 49.183594 52.296875 50.671875 51.996094 C 52.15625 51.699219 53.546875 50.734375 54.8125 48.636719 C 56.074219 46.542969 56.382812 44.851562 55.882812 43.523438 C 55.378906 42.191406 54.089844 40.988281 52.414062 40.449219 C 49.21875 39.417969 44.496094 39.050781 39.96875 39.628906 C 39.960938 39.601562 39.945312 39.578125 39.929688 39.550781 C 39.070312 37.683594 38.714844 36.148438 38.175781 34.480469 C 38.929688 35.082031 39.636719 35.601562 40.210938 35.929688 C 40.457031 36.066406 40.679688 36.101562 40.890625 36.105469 C 41.382812 36.074219 41.984375 36.140625 42.359375 35.667969 C 42.367188 35.476562 42.339844 35.265625 42.269531 35.027344 C 42.195312 34.773438 42.085938 34.484375 41.929688 34.152344 C 41.632812 33.503906 41.171875 32.6875 40.515625 31.671875 C 39.867188 30.65625 39.3125 29.730469 38.839844 29.175781 C 38.367188 28.625 37.996094 28.28125 37.605469 28.109375 C 37.410156 28.023438 37.183594 27.980469 36.964844 28.046875 C 36.746094 28.113281 36.589844 28.273438 36.5 28.445312 C 36.324219 28.78125 36.304688 29.199219 36.335938 29.734375 C 36.371094 30.359375 36.527344 31.339844 36.738281 32.242188 C 35.414062 31.011719 33.644531 29.554688 32.28125 27.964844 C 32.265625 27.945312 32.242188 27.917969 32.222656 27.894531 C 34.925781 24.480469 38.152344 20.683594 38.695312 17.589844 C 38.980469 15.964844 38.761719 14.496094 37.738281 13.453125 C 36.78125 12.472656 34.421875 11.945312 31.996094 11.90625 Z M 32.003906 11.90625 "/>
</g>
</svg>
