
<svg xmlns="http://www.w3.org/2000/svg" xmlns:xlink="http://www.w3.org/1999/xlink" width="64px" height="64px" viewBox="0 0 64 64" version="1.1">
<g id="surface1">
<path style=" stroke:none;fill-rule:nonzero;fill:rgb(93.333334%,93.333334%,93.333334%);fill-opacity:1;" d="M 5.292969 2.644531 C 3.824219 2.644531 2.644531 3.824219 2.644531 5.292969 L 2.644531 31.75 L 31.75 31.75 L 31.75 2.644531 Z M 5.292969 2.644531 "/>
<path style=" stroke:none;fill-rule:nonzero;fill:rgb(25.882354%,25.882354%,25.882354%);fill-opacity:1;" d="M 58.207031 2.644531 C 59.675781 2.644531 60.855469 3.824219 60.855469 5.292969 L 60.855469 31.75 L 31.75 31.75 L 31.75 2.644531 Z M 58.207031 2.644531 "/>
<path style=" stroke:none;fill-rule:nonzero;fill:rgb(25.882354%,25.882354%,25.882354%);fill-opacity:1;" d="M 5.292969 60.855469 C 3.824219 60.855469 2.644531 59.675781 2.644531 58.207031 L 2.644531 31.75 L 31.75 31.75 L 31.75 60.855469 Z M 5.292969 60.855469 "/>
<path style=" stroke:none;fill-rule:nonzero;fill:rgb(93.333334%,93.333334%,93.333334%);fill-opacity:1;" d="M 58.207031 60.855469 C 59.675781 60.855469 60.855469 59.675781 60.855469 58.207031 L 60.855469 31.75 L 31.75 31.75 L 31.75 60.855469 Z M 58.207031 60.855469 "/>
<path style=" stroke:none;fill-rule:nonzero;fill:rgb(25.882354%,25.882354%,25.882354%);fill-opacity:1;" d="M 17.199219 7.9375 C 22.3125 7.9375 26.457031 12.082031 26.457031 17.199219 C 26.457031 22.3125 22.3125 26.457031 17.199219 26.457031 C 12.082031 26.457031 7.9375 22.3125 7.9375 17.199219 C 7.9375 12.082031 12.082031 7.9375 17.199219 7.9375 Z M 17.199219 7.9375 "/>
<path style=" stroke:none;fill-rule:nonzero;fill:rgb(38.039216%,38.039216%,38.039216%);fill-opacity:1;" d="M 17.199219 9.261719 C 21.582031 9.261719 25.136719 12.8125 25.136719 17.199219 C 25.136719 21.582031 21.582031 25.136719 17.199219 25.136719 C 12.8125 25.136719 9.261719 21.582031 9.261719 17.199219 C 9.261719 12.8125 12.8125 9.261719 17.199219 9.261719 Z M 17.199219 9.261719 "/>
<path style=" stroke:none;fill-rule:nonzero;fill:rgb(87.843138%,87.843138%,87.843138%);fill-opacity:1;" d="M 46.300781 7.9375 C 51.417969 7.9375 55.5625 12.082031 55.5625 17.199219 C 55.5625 22.3125 51.417969 26.457031 46.300781 26.457031 C 41.1875 26.457031 37.042969 22.3125 37.042969 17.199219 C 37.042969 12.082031 41.1875 7.9375 46.300781 7.9375 Z M 46.300781 7.9375 "/>
<path style=" stroke:none;fill-rule:nonzero;fill:rgb(93.333334%,93.333334%,93.333334%);fill-opacity:1;" d="M 46.300781 9.261719 C 50.6875 9.261719 54.238281 12.8125 54.238281 17.199219 C 54.238281 21.582031 50.6875 25.136719 46.300781 25.136719 C 41.917969 25.136719 38.363281 21.582031 38.363281 17.199219 C 38.363281 12.8125 41.917969 9.261719 46.300781 9.261719 Z M 46.300781 9.261719 "/>
</g>
</svg>
