<?xml version="1.0" encoding="UTF-8"?>
<svg xmlns="http://www.w3.org/2000/svg" xmlns:xlink="http://www.w3.org/1999/xlink" width="64px" height="64px" viewBox="0 0 64 64" version="1.1">
<g id="surface1">
<path style=" stroke:none;fill-rule:nonzero;fill:rgb(87.843138%,87.843138%,87.843138%);fill-opacity:1;" d="M 31.75 3.144531 C 25.007812 8.5625 14.523438 8.644531 6.054688 8.640625 C 6.296875 20.429688 9.40625 33.503906 14.085938 43.652344 C 16.523438 48.9375 19.390625 53.425781 22.425781 56.535156 C 25.464844 59.648438 28.625 61.355469 31.75 61.355469 C 34.875 61.355469 38.035156 59.648438 41.074219 56.535156 C 44.109375 53.425781 46.976562 48.9375 49.414062 43.652344 C 54.09375 33.503906 57.203125 20.429688 57.445312 8.640625 C 48.976562 8.644531 38.492188 8.5625 31.75 3.144531 Z M 31.75 3.144531 "/>
<path style=" stroke:none;fill-rule:nonzero;fill:rgb(25.882354%,25.882354%,25.882354%);fill-opacity:1;" d="M 31.75 8.4375 C 26.195312 12.898438 17.558594 12.96875 10.582031 12.964844 C 10.78125 22.675781 13.34375 33.445312 17.199219 41.804688 C 19.207031 46.160156 21.566406 49.855469 24.070312 52.421875 C 26.570312 54.984375 29.175781 56.390625 31.75 56.390625 C 34.324219 56.390625 36.929688 54.984375 39.429688 52.421875 C 41.933594 49.855469 44.292969 46.160156 46.300781 41.804688 C 50.15625 33.445312 52.71875 22.675781 52.917969 12.964844 C 45.941406 12.96875 37.304688 12.898438 31.75 8.4375 Z M 31.75 8.4375 "/>
<path style=" stroke:none;fill-rule:nonzero;fill:rgb(37.64706%,49.019608%,54.509807%);fill-opacity:1;" d="M 26.492188 21.144531 L 37.007812 21.144531 L 37.007812 53.464844 C 37.007812 56.09375 34.378906 58.726562 31.75 61.355469 C 29.121094 58.726562 26.492188 56.09375 26.492188 53.464844 Z M 26.492188 21.144531 "/>
<path style=" stroke:none;fill-rule:nonzero;fill:rgb(38.039216%,38.039216%,38.039216%);fill-opacity:1;" d="M 23.863281 19.027344 L 39.636719 19.027344 L 39.636719 21.144531 L 23.863281 21.144531 Z M 23.863281 19.027344 "/>
<path style=" stroke:none;fill-rule:nonzero;fill:rgb(45.882353%,45.882353%,45.882353%);fill-opacity:1;" d="M 22.042969 17.96875 C 23.210938 17.96875 24.160156 18.917969 24.160156 20.085938 C 24.160156 21.253906 23.210938 22.203125 22.042969 22.203125 C 20.875 22.203125 19.925781 21.253906 19.925781 20.085938 C 19.925781 18.917969 20.875 17.96875 22.042969 17.96875 Z M 22.042969 17.96875 "/>
<path style=" stroke:none;fill-rule:nonzero;fill:rgb(45.882353%,45.882353%,45.882353%);fill-opacity:1;" d="M 41.464844 17.96875 C 42.632812 17.96875 43.582031 18.917969 43.582031 20.085938 C 43.582031 21.253906 42.632812 22.203125 41.464844 22.203125 C 40.296875 22.203125 39.351562 21.253906 39.351562 20.085938 C 39.351562 18.917969 40.296875 17.96875 41.464844 17.96875 Z M 41.464844 17.96875 "/>
<path style=" stroke:none;fill-rule:nonzero;fill:rgb(47.450981%,33.333334%,28.235295%);fill-opacity:1;" d="M 29.632812 8.449219 L 33.867188 8.449219 L 33.867188 19.027344 L 29.632812 19.027344 Z M 29.632812 8.449219 "/>
<path style=" stroke:none;fill-rule:nonzero;fill:rgb(45.882353%,45.882353%,45.882353%);fill-opacity:1;" d="M 31.75 3.15625 C 33.503906 3.15625 34.925781 4.578125 34.925781 6.332031 C 34.925781 8.085938 33.503906 9.503906 31.75 9.503906 C 29.996094 9.503906 28.574219 8.085938 28.574219 6.332031 C 28.574219 4.578125 29.996094 3.15625 31.75 3.15625 Z M 31.75 3.15625 "/>
<path style=" stroke:none;fill-rule:nonzero;fill:rgb(56.470591%,64.313728%,68.235296%);fill-opacity:1;" d="M 26.492188 21.144531 L 26.492188 53.464844 C 26.492188 56.09375 29.121094 58.726562 31.75 61.355469 L 31.75 21.144531 Z M 26.492188 21.144531 "/>
<path style=" stroke:none;fill-rule:nonzero;fill:rgb(69.01961%,74.509805%,77.254903%);fill-opacity:1;" d="M 28.574219 21.144531 C 28.574219 22.902344 29.992188 24.320312 31.75 24.320312 C 33.507812 24.320312 34.925781 22.902344 34.925781 21.144531 Z M 28.574219 21.144531 "/>
<path style=" stroke:none;fill-rule:nonzero;fill:rgb(74.117649%,74.117649%,74.117649%);fill-opacity:1;" d="M 30.769531 3.839844 C 31.320312 3.601562 31.617188 3.875 31.429688 4.445312 C 31.242188 5.015625 30.644531 5.671875 30.09375 5.910156 C 29.542969 6.148438 29.246094 5.878906 29.433594 5.308594 C 29.617188 4.734375 30.214844 4.078125 30.769531 3.839844 Z M 30.769531 3.839844 "/>
<path style=" stroke:none;fill-rule:nonzero;fill:rgb(74.117649%,74.117649%,74.117649%);fill-opacity:1;" d="M 40.800781 18.464844 C 41.078125 18.347656 41.226562 18.484375 41.132812 18.769531 C 41.039062 19.054688 40.738281 19.378906 40.460938 19.496094 C 40.1875 19.617188 40.039062 19.480469 40.132812 19.195312 C 40.226562 18.910156 40.527344 18.585938 40.800781 18.464844 Z M 40.800781 18.464844 "/>
<path style=" stroke:none;fill-rule:nonzero;fill:rgb(74.117649%,74.117649%,74.117649%);fill-opacity:1;" d="M 21.066406 18.46875 C 21.339844 18.347656 21.488281 18.480469 21.398438 18.765625 C 21.304688 19.050781 21.011719 19.382812 20.734375 19.503906 C 20.460938 19.621094 20.3125 19.488281 20.402344 19.203125 C 20.496094 18.917969 20.792969 18.589844 21.066406 18.46875 Z M 21.066406 18.46875 "/>
<path style=" stroke:none;fill-rule:nonzero;fill:rgb(55.29412%,43.137255%,38.82353%);fill-opacity:1;" d="M 29.613281 17.96875 L 33.886719 17.96875 C 34.160156 17.96875 34.378906 18.191406 34.378906 18.460938 C 34.378906 18.734375 34.160156 18.957031 33.886719 18.957031 L 29.613281 18.957031 C 29.339844 18.957031 29.121094 18.734375 29.121094 18.460938 C 29.121094 18.191406 29.339844 17.96875 29.613281 17.96875 Z M 29.613281 17.96875 "/>
<path style=" stroke:none;fill-rule:nonzero;fill:rgb(55.29412%,43.137255%,38.82353%);fill-opacity:1;" d="M 29.613281 16.324219 L 33.886719 16.324219 C 34.160156 16.324219 34.378906 16.546875 34.378906 16.820312 C 34.378906 17.089844 34.160156 17.3125 33.886719 17.3125 L 29.613281 17.3125 C 29.339844 17.3125 29.121094 17.089844 29.121094 16.820312 C 29.121094 16.546875 29.339844 16.324219 29.613281 16.324219 Z M 29.613281 16.324219 "/>
<path style=" stroke:none;fill-rule:nonzero;fill:rgb(55.29412%,43.137255%,38.82353%);fill-opacity:1;" d="M 29.613281 14.683594 L 33.886719 14.683594 C 34.160156 14.683594 34.378906 14.902344 34.378906 15.175781 C 34.378906 15.449219 34.160156 15.667969 33.886719 15.667969 L 29.613281 15.667969 C 29.339844 15.667969 29.121094 15.449219 29.121094 15.175781 C 29.121094 14.902344 29.339844 14.683594 29.613281 14.683594 Z M 29.613281 14.683594 "/>
<path style=" stroke:none;fill-rule:nonzero;fill:rgb(55.29412%,43.137255%,38.82353%);fill-opacity:1;" d="M 29.613281 13.039062 L 33.886719 13.039062 C 34.160156 13.039062 34.378906 13.261719 34.378906 13.53125 C 34.378906 13.804688 34.160156 14.023438 33.886719 14.023438 L 29.613281 14.023438 C 29.339844 14.023438 29.121094 13.804688 29.121094 13.53125 C 29.121094 13.261719 29.339844 13.039062 29.613281 13.039062 Z M 29.613281 13.039062 "/>
<path style=" stroke:none;fill-rule:nonzero;fill:rgb(55.29412%,43.137255%,38.82353%);fill-opacity:1;" d="M 29.613281 11.394531 L 33.886719 11.394531 C 34.160156 11.394531 34.378906 11.617188 34.378906 11.890625 C 34.378906 12.160156 34.160156 12.382812 33.886719 12.382812 L 29.613281 12.382812 C 29.339844 12.382812 29.121094 12.160156 29.121094 11.890625 C 29.121094 11.617188 29.339844 11.394531 29.613281 11.394531 Z M 29.613281 11.394531 "/>
<path style=" stroke:none;fill-rule:nonzero;fill:rgb(55.29412%,43.137255%,38.82353%);fill-opacity:1;" d="M 29.613281 9.753906 L 33.886719 9.753906 C 34.160156 9.753906 34.378906 9.972656 34.378906 10.246094 C 34.378906 10.519531 34.160156 10.738281 33.886719 10.738281 L 29.613281 10.738281 C 29.339844 10.738281 29.121094 10.519531 29.121094 10.246094 C 29.121094 9.972656 29.339844 9.753906 29.613281 9.753906 Z M 29.613281 9.753906 "/>
</g>
</svg>
