<?xml version="1.0" encoding="UTF-8"?>
<svg xmlns="http://www.w3.org/2000/svg" xmlns:xlink="http://www.w3.org/1999/xlink" width="64px" height="64px" viewBox="0 0 64 64" version="1.1">
<g id="surface1">
<path style=" stroke:none;fill-rule:nonzero;fill:rgb(100%,65.490198%,14.901961%);fill-opacity:1;" d="M 31.75 3.144531 C 47.824219 3.144531 60.855469 16.175781 60.855469 32.25 C 60.855469 48.324219 47.824219 61.355469 31.75 61.355469 C 15.675781 61.355469 2.644531 48.324219 2.644531 32.25 C 2.644531 16.175781 15.675781 3.144531 31.75 3.144531 Z M 31.75 3.144531 "/>
<path style=" stroke:none;fill-rule:nonzero;fill:rgb(100%,92.54902%,70.19608%);fill-opacity:1;" d="M 31.75 5.792969 C 46.363281 5.792969 58.207031 17.636719 58.207031 32.25 C 58.207031 46.863281 46.363281 58.707031 31.75 58.707031 C 17.136719 58.707031 5.292969 46.863281 5.292969 32.25 C 5.292969 17.636719 17.136719 5.792969 31.75 5.792969 Z M 31.75 5.792969 "/>
<path style=" stroke:none;fill-rule:nonzero;fill:rgb(100%,65.490198%,14.901961%);fill-opacity:1;" d="M 31.75 8.4375 C 28.085938 8.4375 25.136719 11.386719 25.136719 15.050781 L 31.75 30.925781 L 38.363281 15.050781 C 38.363281 11.386719 35.414062 8.4375 31.75 8.4375 Z M 31.75 8.4375 "/>
<path style=" stroke:none;fill-rule:nonzero;fill:rgb(100%,65.490198%,14.901961%);fill-opacity:1;" d="M 31.75 56.0625 C 28.085938 56.0625 25.136719 53.113281 25.136719 49.449219 L 31.75 33.574219 L 38.363281 49.449219 C 38.363281 53.113281 35.414062 56.0625 31.75 56.0625 Z M 31.75 56.0625 "/>
<path style=" stroke:none;fill-rule:nonzero;fill:rgb(100%,65.490198%,14.901961%);fill-opacity:1;" d="M 52.371094 20.34375 C 50.539062 17.171875 46.511719 16.089844 43.335938 17.921875 L 32.894531 31.589844 L 49.949219 29.378906 C 53.125 27.546875 54.203125 23.515625 52.371094 20.34375 Z M 52.371094 20.34375 "/>
<path style=" stroke:none;fill-rule:nonzero;fill:rgb(100%,65.490198%,14.901961%);fill-opacity:1;" d="M 11.128906 44.15625 C 9.296875 40.984375 10.375 36.953125 13.550781 35.121094 L 30.605469 32.910156 L 20.164062 46.578125 C 16.988281 48.410156 12.960938 47.328125 11.128906 44.15625 Z M 11.128906 44.15625 "/>
<path style=" stroke:none;fill-rule:nonzero;fill:rgb(100%,65.490198%,14.901961%);fill-opacity:1;" d="M 52.371094 44.15625 C 54.203125 40.984375 53.125 36.953125 49.949219 35.121094 L 32.894531 32.910156 L 43.335938 46.578125 C 46.511719 48.410156 50.539062 47.328125 52.371094 44.15625 Z M 52.371094 44.15625 "/>
<path style=" stroke:none;fill-rule:nonzero;fill:rgb(100%,65.490198%,14.901961%);fill-opacity:1;" d="M 11.128906 20.34375 C 12.960938 17.171875 16.988281 16.089844 20.164062 17.921875 L 30.605469 31.589844 L 13.550781 29.378906 C 10.375 27.546875 9.296875 23.515625 11.128906 20.34375 Z M 11.128906 20.34375 "/>
</g>
</svg>
