<?xml version="1.0" encoding="UTF-8"?>
<svg xmlns="http://www.w3.org/2000/svg" xmlns:xlink="http://www.w3.org/1999/xlink" width="64px" height="64px" viewBox="0 0 64 64" version="1.1">
<g id="surface1">
<path style=" stroke:none;fill-rule:nonzero;fill:rgb(40.000001%,73.333335%,41.568628%);fill-opacity:1;" d="M 31.75 3.144531 C 47.824219 3.144531 60.855469 16.175781 60.855469 32.25 C 60.855469 48.324219 47.824219 61.355469 31.75 61.355469 C 15.675781 61.355469 2.644531 48.324219 2.644531 32.25 C 2.644531 16.175781 15.675781 3.144531 31.75 3.144531 Z M 31.75 3.144531 "/>
<path style=" stroke:none;fill-rule:nonzero;fill:rgb(26.274511%,62.7451%,27.843139%);fill-opacity:1;" d="M 31.75 8.4375 C 44.902344 8.4375 55.5625 19.097656 55.5625 32.25 C 55.5625 45.402344 44.902344 56.0625 31.75 56.0625 C 18.597656 56.0625 7.9375 45.402344 7.9375 32.25 C 7.9375 19.097656 18.597656 8.4375 31.75 8.4375 Z M 31.75 8.4375 "/>
<path style=" stroke:none;fill-rule:nonzero;fill:rgb(87.843138%,87.843138%,87.843138%);fill-opacity:1;" d="M 31.75 13.726562 C 41.980469 13.726562 50.273438 22.019531 50.273438 32.25 C 50.273438 42.480469 41.980469 50.773438 31.75 50.773438 C 21.519531 50.773438 13.226562 42.480469 13.226562 32.25 C 13.226562 22.019531 21.519531 13.726562 31.75 13.726562 Z M 31.75 13.726562 "/>
<path style=" stroke:none;fill-rule:nonzero;fill:rgb(25.882354%,25.882354%,25.882354%);fill-opacity:1;" d="M 38.351562 14.933594 C 38.425781 15.773438 38.394531 16.707031 38.246094 17.746094 L 38.230469 17.847656 C 36.136719 17.996094 34.210938 18.414062 32.476562 19.097656 L 32.191406 18.917969 C 30.40625 17.773438 27.796875 17.1875 25.121094 17.121094 C 25.113281 16.265625 25.066406 15.558594 24.996094 14.988281 C 21.125 16.5 17.898438 19.261719 15.808594 22.792969 C 16.621094 22.628906 17.484375 22.640625 18.398438 22.8125 L 18.402344 22.941406 C 18.527344 25.992188 18.910156 28.421875 19.566406 30.261719 L 19.679688 30.582031 C 18.492188 32.28125 17.75 34.023438 17.449219 35.816406 L 17.273438 35.855469 C 16.207031 36.089844 15.085938 36.09375 13.882812 35.855469 L 13.5625 35.789062 C 13.628906 36.144531 13.707031 36.492188 13.796875 36.84375 C 13.796875 36.835938 13.796875 36.832031 13.796875 36.832031 C 15.074219 37.078125 16.308594 37.070312 17.484375 36.8125 L 17.566406 36.792969 C 18.417969 38.710938 19.816406 40.441406 21.777344 41.988281 L 21.804688 42.410156 C 21.914062 44.242188 22.464844 46.238281 23.222656 47.78125 C 22.703125 47.84375 22.15625 47.832031 21.570312 47.746094 C 24.382812 49.59375 27.734375 50.691406 31.347656 50.769531 C 34.171875 50.320312 36.546875 49.105469 37.964844 47.421875 L 38.265625 47.066406 C 40.742188 46.878906 42.722656 46.234375 44.203125 45.140625 L 44.226562 45.167969 L 44.621094 45.59375 C 44.851562 45.363281 45.082031 45.136719 45.304688 44.898438 L 44.945312 44.503906 L 44.839844 44.394531 C 45.824219 42.636719 46.460938 40.96875 46.753906 39.386719 L 46.851562 39.480469 L 47.199219 39.136719 C 48.285156 38.050781 49.324219 36.308594 50.152344 34.335938 C 50.230469 33.65625 50.269531 32.957031 50.269531 32.25 C 50.269531 29.507812 49.679688 26.910156 48.617188 24.574219 L 48.5 24.738281 C 47.203125 23.902344 45.507812 23.183594 43.9375 22.824219 L 43.464844 22.710938 L 43.453125 22.746094 C 41.984375 20.628906 40.558594 19.082031 39.179688 18.113281 L 39.210938 17.886719 C 39.335938 16.980469 39.390625 16.132812 39.359375 15.34375 C 39.027344 15.195312 38.691406 15.058594 38.351562 14.933594 Z M 24.15625 18.042969 L 24.15625 18.09375 L 24.644531 18.09375 C 27.34375 18.09375 30.03125 18.6875 31.664062 19.738281 L 32.039062 19.980469 C 32.335938 21.753906 32.59375 23.605469 32.808594 25.550781 L 32.558594 25.753906 C 29.527344 28.28125 27.5 30.175781 26.445312 31.492188 L 26.328125 31.644531 C 24.316406 31.027344 22.402344 30.546875 20.578125 30.199219 L 20.480469 29.933594 C 19.882812 28.246094 19.503906 25.890625 19.378906 22.898438 L 19.359375 22.410156 L 19.265625 22.414062 C 20.859375 20.335938 22.488281 18.878906 24.15625 18.039062 Z M 43.566406 23.738281 L 43.71875 23.773438 C 45.289062 24.132812 47.078125 24.921875 48.269531 25.757812 L 48.457031 25.890625 C 49.429688 28.394531 49.960938 30.457031 50.0625 32.089844 L 49.972656 32.058594 L 49.808594 32.519531 C 48.945312 34.988281 47.671875 37.28125 46.507812 38.445312 L 46.382812 38.574219 C 44.9375 37.902344 43.683594 37.347656 42.632812 36.914062 L 42.617188 36.6875 C 42.488281 34.234375 41.910156 31.488281 40.890625 28.433594 L 40.773438 28.078125 C 41.875 26.464844 42.808594 25.015625 43.566406 23.738281 Z M 33.480469 26.261719 C 35.597656 26.726562 37.710938 27.410156 39.828125 28.324219 L 39.964844 28.738281 C 40.964844 31.734375 41.515625 34.402344 41.644531 36.738281 L 41.667969 37.226562 L 41.699219 37.226562 C 40.203125 38.953125 38.582031 40.425781 36.832031 41.628906 L 36.835938 41.601562 L 36.351562 41.519531 C 33.371094 41.027344 30.835938 40.21875 28.75 39.113281 L 28.363281 38.910156 C 27.757812 36.449219 27.285156 34.289062 26.941406 32.4375 L 27.203125 32.101562 C 28.160156 30.90625 30.171875 29.015625 33.183594 26.507812 Z M 28 39.820312 L 28.296875 39.976562 C 30.5 41.140625 33.128906 41.972656 36.191406 42.484375 L 36.429688 42.523438 C 36.8125 43.8125 37.15625 45.140625 37.464844 46.503906 L 37.222656 46.789062 C 35.941406 48.304688 33.621094 49.488281 30.824219 49.855469 L 30.339844 49.921875 L 30.355469 50.035156 C 28.207031 49.742188 26.261719 49.097656 24.511719 48.101562 L 24.417969 47.941406 C 23.585938 46.519531 22.898438 44.273438 22.777344 42.347656 L 22.769531 42.1875 C 24.648438 41.445312 26.386719 40.652344 28 39.820312 Z M 28 39.820312 "/>
</g>
</svg>
