<?xml version="1.0" encoding="UTF-8"?>
<svg xmlns="http://www.w3.org/2000/svg" xmlns:xlink="http://www.w3.org/1999/xlink" width="64px" height="64px" viewBox="0 0 64 64" version="1.1">
<g id="surface1">
<path style=" stroke:none;fill-rule:nonzero;fill:rgb(25.882354%,64.705884%,96.078432%);fill-opacity:1;" d="M 5.292969 3.144531 L 58.207031 3.144531 C 59.667969 3.144531 60.855469 4.332031 60.855469 5.792969 L 60.855469 58.707031 C 60.855469 60.167969 59.667969 61.355469 58.207031 61.355469 L 5.292969 61.355469 C 3.832031 61.355469 2.644531 60.167969 2.644531 58.707031 L 2.644531 5.792969 C 2.644531 4.332031 3.832031 3.144531 5.292969 3.144531 Z M 5.292969 3.144531 "/>
<path style=" stroke:none;fill-rule:nonzero;fill:rgb(93.333334%,93.333334%,93.333334%);fill-opacity:1;" d="M 15.875 20.34375 L 18.519531 20.34375 C 19.25 20.34375 19.84375 20.9375 19.84375 21.667969 L 19.84375 48.125 C 19.84375 48.855469 19.25 49.449219 18.519531 49.449219 L 15.875 49.449219 C 15.144531 49.449219 14.550781 48.855469 14.550781 48.125 L 14.550781 21.667969 C 14.550781 20.9375 15.144531 20.34375 15.875 20.34375 Z M 15.875 20.34375 "/>
<path style=" stroke:none;fill-rule:nonzero;fill:rgb(93.333334%,93.333334%,93.333334%);fill-opacity:1;" d="M 33.074219 20.34375 L 35.71875 20.34375 C 36.449219 20.34375 37.042969 20.9375 37.042969 21.667969 L 37.042969 48.125 C 37.042969 48.855469 36.449219 49.449219 35.71875 49.449219 L 33.074219 49.449219 C 32.34375 49.449219 31.75 48.855469 31.75 48.125 L 31.75 21.667969 C 31.75 20.9375 32.34375 20.34375 33.074219 20.34375 Z M 33.074219 20.34375 "/>
<path style=" stroke:none;fill-rule:nonzero;fill:rgb(93.333334%,93.333334%,93.333334%);fill-opacity:1;" d="M 19.84375 32.25 L 31.75 32.25 C 32.480469 32.25 33.074219 32.84375 33.074219 33.574219 L 33.074219 36.21875 C 33.074219 36.949219 32.480469 37.542969 31.75 37.542969 L 19.84375 37.542969 C 19.113281 37.542969 18.519531 36.949219 18.519531 36.21875 L 18.519531 33.574219 C 18.519531 32.84375 19.113281 32.25 19.84375 32.25 Z M 19.84375 32.25 "/>
<path style=" stroke:none;fill-rule:nonzero;fill:rgb(93.333334%,93.333334%,93.333334%);fill-opacity:1;" d="M 50.269531 15.050781 C 51 15.050781 51.59375 15.644531 51.59375 16.375 L 51.59375 24.3125 C 51.59375 25.042969 51 25.636719 50.269531 25.636719 C 49.539062 25.636719 48.949219 25.042969 48.949219 24.3125 L 48.949219 16.375 C 48.949219 15.644531 49.539062 15.050781 50.269531 15.050781 Z M 50.269531 15.050781 "/>
<path style=" stroke:none;fill-rule:nonzero;fill:rgb(93.333334%,93.333334%,93.333334%);fill-opacity:1;" d="M 47.625 24.3125 L 52.917969 24.3125 C 53.648438 24.3125 54.238281 24.609375 54.238281 24.972656 L 54.238281 26.296875 C 54.238281 26.664062 53.648438 26.957031 52.917969 26.957031 L 47.625 26.957031 C 46.894531 26.957031 46.300781 26.664062 46.300781 26.296875 L 46.300781 24.972656 C 46.300781 24.609375 46.894531 24.3125 47.625 24.3125 Z M 47.625 24.3125 "/>
<path style=" stroke:none;fill-rule:nonzero;fill:rgb(93.333334%,93.333334%,93.333334%);fill-opacity:1;" d="M 47.625 15.050781 L 50.269531 15.050781 C 51 15.050781 51.59375 15.347656 51.59375 15.714844 L 51.59375 17.035156 C 51.59375 17.402344 51 17.699219 50.269531 17.699219 L 47.625 17.699219 C 46.894531 17.699219 46.300781 17.402344 46.300781 17.035156 L 46.300781 15.714844 C 46.300781 15.347656 46.894531 15.050781 47.625 15.050781 Z M 47.625 15.050781 "/>
</g>
</svg>
