<?xml version="1.0" encoding="UTF-8"?>
<svg xmlns="http://www.w3.org/2000/svg" xmlns:xlink="http://www.w3.org/1999/xlink" width="64px" height="64px" viewBox="0 0 64 64" version="1.1">
<g id="surface1">
<path style=" stroke:none;fill-rule:nonzero;fill:rgb(100%,43.921569%,26.274511%);fill-opacity:1;" d="M 31.75 3.144531 C 47.824219 3.144531 60.855469 16.175781 60.855469 32.25 C 60.855469 48.324219 47.824219 61.355469 31.75 61.355469 C 15.675781 61.355469 2.644531 48.324219 2.644531 32.25 C 2.644531 16.175781 15.675781 3.144531 31.75 3.144531 Z M 31.75 3.144531 "/>
<path style=" stroke:none;fill-rule:nonzero;fill:rgb(93.333334%,93.333334%,93.333334%);fill-opacity:1;" d="M 60.855469 36.21875 C 60.855469 36.953125 60.265625 37.542969 59.53125 37.542969 L 44.980469 37.542969 L 44.980469 42.832031 L 31.75 32.25 L 44.980469 21.667969 L 44.980469 26.957031 L 59.53125 26.957031 C 60.265625 26.957031 60.855469 27.546875 60.855469 28.28125 Z M 60.855469 36.21875 "/>
<path style=" stroke:none;fill-rule:nonzero;fill:rgb(25.882354%,25.882354%,25.882354%);fill-opacity:1;" d="M 2.644531 36.21875 C 2.644531 36.953125 3.234375 37.542969 3.96875 37.542969 L 18.519531 37.542969 L 18.519531 42.832031 L 31.75 32.25 L 18.519531 21.667969 L 18.519531 26.957031 L 3.96875 26.957031 C 3.234375 26.957031 2.644531 27.546875 2.644531 28.28125 Z M 2.644531 36.21875 "/>
<path style=" stroke:none;fill-rule:nonzero;fill:rgb(100%,79.215688%,15.686275%);fill-opacity:1;" d="M 34.007812 24.3125 L 34.46875 29.328125 L 39.496094 29.035156 L 35.863281 32.519531 L 39.222656 36.269531 L 34.234375 35.601562 L 33.398438 40.566406 L 30.808594 36.25 L 26.40625 38.691406 L 28.167969 33.976562 L 23.511719 32.058594 L 28.300781 30.492188 L 26.894531 25.660156 L 31.101562 28.425781 Z M 34.007812 24.3125 "/>
<path style=" stroke:none;fill-rule:nonzero;fill:rgb(95.686275%,26.274511%,21.176471%);fill-opacity:1;" d="M 33.074219 27.804688 L 33.34375 30.742188 L 36.285156 30.570312 L 34.160156 32.609375 L 36.128906 34.808594 L 33.203125 34.414062 L 32.714844 37.324219 L 31.199219 34.796875 L 28.621094 36.226562 L 29.652344 33.464844 L 26.925781 32.339844 L 29.730469 31.425781 L 28.90625 28.589844 L 31.371094 30.210938 Z M 33.074219 27.804688 "/>
</g>
</svg>
