<?xml version="1.0" encoding="UTF-8"?>
<svg xmlns="http://www.w3.org/2000/svg" xmlns:xlink="http://www.w3.org/1999/xlink" width="64px" height="64px" viewBox="0 0 64 64" version="1.1">
<g id="surface1">
<path style=" stroke:none;fill-rule:nonzero;fill:rgb(67.058825%,27.843139%,73.725492%);fill-opacity:1;" d="M 5.292969 3.144531 L 58.207031 3.144531 C 59.667969 3.144531 60.855469 4.332031 60.855469 5.792969 L 60.855469 58.707031 C 60.855469 60.167969 59.667969 61.355469 58.207031 61.355469 L 5.292969 61.355469 C 3.832031 61.355469 2.644531 60.167969 2.644531 58.707031 L 2.644531 5.792969 C 2.644531 4.332031 3.832031 3.144531 5.292969 3.144531 Z M 5.292969 3.144531 "/>
<path style=" stroke:none;fill-rule:nonzero;fill:rgb(93.333334%,93.333334%,93.333334%);fill-opacity:1;" d="M 24.339844 22.5625 C 23.902344 22.5625 23.421875 22.699219 23.335938 22.972656 L 18.234375 37.816406 L 18.160156 33.769531 C 18.125 31.546875 18.0625 28.171875 18.023438 26.261719 L 17.964844 22.800781 L 16.726562 22.859375 C 15.964844 22.890625 15.199219 22.988281 14.730469 23.113281 C 12.464844 23.707031 10.25 25.191406 9.195312 26.824219 C 8.628906 27.699219 8.445312 28.304688 8.449219 29.242188 C 8.453125 30.113281 8.667969 30.671875 9.140625 31.042969 C 9.445312 31.285156 10.25 31.539062 10.703125 31.539062 L 11.015625 31.539062 L 10.882812 31.171875 C 10.707031 30.671875 10.710938 28.996094 10.894531 28.222656 C 11.117188 27.308594 11.589844 26.472656 12.257812 25.8125 C 12.824219 25.253906 13.664062 24.683594 14.140625 24.542969 C 14.355469 24.484375 14.363281 24.507812 14.363281 25 C 14.359375 26.085938 14.660156 38.789062 14.714844 39.933594 L 14.777344 41.132812 C 15.070312 42.234375 17.816406 42.234375 18.324219 40.960938 C 18.578125 40.320312 25.03125 23.007812 25.03125 22.96875 C 25.152344 22.695312 24.769531 22.5625 24.335938 22.5625 Z M 41.417969 23.171875 C 40.449219 23.171875 39.109375 23.722656 38.835938 24.558594 C 38.796875 24.605469 38.226562 27.171875 37.566406 30.265625 C 36.910156 33.363281 36.289062 36.21875 36.183594 36.609375 C 35.8125 38.011719 35.1875 38.847656 34.445312 38.949219 C 33.605469 39.0625 33.230469 38.742188 33.242188 37.929688 C 33.242188 37.671875 33.644531 35.582031 34.128906 33.289062 C 34.617188 30.996094 35.015625 29.070312 35.015625 29.007812 C 35.46875 27.722656 31.933594 27.722656 31.511719 28.898438 L 31.449219 29.339844 C 31.375 29.851562 31.296875 29.886719 31.121094 29.492188 C 30.910156 29.019531 30.324219 28.800781 29.265625 28.800781 C 27.695312 28.800781 26.71875 29.246094 25.546875 30.511719 C 24.152344 32.011719 23.324219 33.96875 23.054688 36.410156 C 22.675781 39.859375 24.546875 41.886719 27.3125 41.035156 C 28.054688 40.804688 28.941406 40.1875 29.484375 39.523438 L 29.863281 39.0625 L 30.019531 39.585938 C 30.242188 40.296875 30.464844 40.605469 30.976562 40.90625 C 31.847656 41.414062 33.390625 41.289062 34.515625 40.613281 C 34.800781 40.441406 35.265625 40.046875 35.546875 39.742188 L 36.050781 39.1875 L 36.222656 39.667969 C 36.667969 40.929688 37.960938 41.464844 39.632812 41.089844 C 40.558594 40.886719 41.277344 40.46875 42.035156 39.699219 L 42.644531 39.078125 L 42.828125 39.5 C 43.101562 40.101562 43.570312 40.605469 44.160156 40.914062 C 44.59375 41.140625 44.773438 41.171875 45.585938 41.179688 C 46.4375 41.179688 46.578125 41.15625 47.191406 40.859375 C 47.6875 40.625 48.0625 40.339844 48.585938 39.8125 C 49.296875 39.09375 49.304688 39.085938 49.359375 39.347656 C 49.695312 40.890625 50.984375 41.542969 52.777344 41.082031 C 53.636719 40.855469 53.972656 40.667969 54.640625 39.949219 C 55.277344 39.292969 55.078125 37.722656 54.6875 38.3125 C 54.3125 38.910156 54.164062 38.976562 53.570312 38.976562 C 52.925781 38.976562 52.636719 38.675781 52.636719 38.023438 C 52.636719 37.65625 53.671875 32.480469 54.390625 29.265625 L 54.472656 28.894531 C 54.6875 27.722656 51.15625 27.722656 50.921875 28.945312 L 50.746094 29.980469 L 50.570312 29.578125 C 50.285156 28.957031 49.761719 28.769531 48.4375 28.816406 C 47.484375 28.847656 47.335938 28.878906 46.660156 29.199219 C 44.421875 30.265625 42.773438 33.144531 42.453125 36.566406 C 42.355469 37.582031 42.328125 37.667969 42.011719 38.054688 C 41.640625 38.503906 40.984375 38.878906 40.558594 38.878906 C 40.414062 38.878906 40.144531 38.816406 39.960938 38.742188 C 39.695312 38.628906 39.613281 38.527344 39.5625 38.253906 C 39.480469 37.804688 39.480469 37.78125 41.074219 30.367188 C 41.8125 26.894531 42.417969 24.039062 42.40625 24.023438 C 42.558594 23.425781 42.074219 23.171875 41.414062 23.171875 Z M 30.078125 30.265625 C 30.53125 30.265625 31.003906 30.703125 31.003906 31.125 C 31.003906 31.660156 29.824219 36.96875 29.59375 37.464844 C 29.324219 38.050781 28.9375 38.453125 28.410156 38.695312 C 27.9375 38.914062 27.617188 38.921875 27.261719 38.726562 C 26.652344 38.398438 26.484375 37.402344 26.738281 35.667969 C 27.03125 33.683594 27.683594 32.074219 28.605469 31.066406 C 29.136719 30.480469 29.535156 30.265625 30.078125 30.265625 Z M 49.390625 30.265625 C 49.839844 30.265625 50.164062 30.453125 50.324219 30.800781 C 50.46875 31.097656 50.441406 31.269531 49.839844 34.089844 C 49.429688 36.023438 49.117188 37.25 48.957031 37.582031 C 48.46875 38.589844 47.386719 39.128906 46.660156 38.738281 C 46.144531 38.460938 45.957031 37.628906 46.089844 36.222656 C 46.382812 33.085938 47.945312 30.265625 49.390625 30.265625 Z M 49.390625 30.265625 "/>
</g>
</svg>
