<?xml version="1.0" encoding="UTF-8"?>
<svg xmlns="http://www.w3.org/2000/svg" xmlns:xlink="http://www.w3.org/1999/xlink" width="64px" height="64px" viewBox="0 0 64 64" version="1.1">
<g id="surface1">
<path style=" stroke:none;fill-rule:nonzero;fill:rgb(74.117649%,74.117649%,74.117649%);fill-opacity:1;" d="M 44.316406 58.707031 L 52.917969 50.109375 L 46.300781 50.109375 C 45.203125 50.109375 44.316406 50.996094 44.316406 52.09375 Z M 44.316406 58.707031 "/>
<path style=" stroke:none;fill-rule:nonzero;fill:rgb(55.29412%,43.137255%,38.82353%);fill-opacity:1;" d="M 10.582031 8.4375 L 52.917969 8.4375 C 54.378906 8.4375 55.5625 9.621094 55.5625 11.082031 L 55.5625 58.707031 C 55.5625 60.167969 54.378906 61.355469 52.917969 61.355469 L 10.582031 61.355469 C 9.121094 61.355469 7.9375 60.167969 7.9375 58.707031 L 7.9375 11.082031 C 7.9375 9.621094 9.121094 8.4375 10.582031 8.4375 Z M 10.582031 8.4375 "/>
<path style=" stroke:none;fill-rule:nonzero;fill:rgb(93.333334%,93.333334%,93.333334%);fill-opacity:1;" d="M 11.90625 11.082031 C 11.171875 11.082031 10.582031 11.671875 10.582031 12.40625 L 10.582031 57.386719 C 10.582031 58.117188 11.171875 58.703125 11.90625 58.707031 L 42.332031 58.707031 L 52.917969 48.125 L 52.917969 12.40625 C 52.917969 11.671875 52.328125 11.082031 51.59375 11.082031 Z M 11.90625 11.082031 "/>
<path style=" stroke:none;fill-rule:nonzero;fill:rgb(81.176472%,84.705883%,86.274511%);fill-opacity:1;" d="M 31.75 3.144531 C 29.550781 3.144531 27.78125 4.914062 27.78125 7.113281 L 16.535156 7.113281 C 15.4375 7.113281 14.550781 8 14.550781 9.097656 L 14.550781 15.050781 L 48.949219 15.050781 L 48.949219 9.097656 C 48.949219 8 48.0625 7.113281 46.964844 7.113281 L 35.71875 7.113281 C 35.71875 4.914062 33.949219 3.144531 31.75 3.144531 Z M 31.75 5.792969 C 32.484375 5.792969 33.074219 6.382812 33.074219 7.113281 C 33.074219 7.847656 32.484375 8.4375 31.75 8.4375 C 31.015625 8.4375 30.425781 7.847656 30.425781 7.113281 C 30.425781 6.382812 31.015625 5.792969 31.75 5.792969 Z M 31.75 5.792969 "/>
<path style=" stroke:none;fill-rule:nonzero;fill:rgb(47.058824%,56.470591%,61.176473%);fill-opacity:1;" d="M 25.136719 19.019531 L 46.300781 19.019531 C 47.03125 19.019531 47.625 19.613281 47.625 20.34375 C 47.625 21.074219 47.03125 21.667969 46.300781 21.667969 L 25.136719 21.667969 C 24.40625 21.667969 23.8125 21.074219 23.8125 20.34375 C 23.8125 19.613281 24.40625 19.019531 25.136719 19.019531 Z M 25.136719 19.019531 "/>
<path style=" stroke:none;fill-rule:nonzero;fill:rgb(74.117649%,74.117649%,74.117649%);fill-opacity:1;" d="M 52.917969 48.125 L 42.332031 58.707031 L 51.59375 58.707031 C 52.328125 58.707031 52.917969 58.117188 52.917969 57.386719 Z M 52.917969 48.125 "/>
<path style=" stroke:none;fill-rule:nonzero;fill:rgb(87.843138%,87.843138%,87.843138%);fill-opacity:1;" d="M 42.332031 58.707031 L 52.917969 48.125 L 43.65625 48.125 C 42.921875 48.125 42.332031 48.714844 42.332031 49.449219 Z M 42.332031 58.707031 "/>
<path style=" stroke:none;fill-rule:nonzero;fill:rgb(47.058824%,56.470591%,61.176473%);fill-opacity:1;" d="M 18.519531 17.699219 C 17.054688 17.699219 15.875 18.878906 15.875 20.34375 C 15.875 21.808594 17.054688 22.988281 18.519531 22.988281 C 19.988281 22.988281 21.167969 21.808594 21.167969 20.34375 C 21.167969 18.878906 19.988281 17.699219 18.519531 17.699219 Z M 18.519531 19.019531 C 19.253906 19.019531 19.84375 19.609375 19.84375 20.34375 C 19.84375 21.078125 19.253906 21.667969 18.519531 21.667969 C 17.789062 21.667969 17.199219 21.078125 17.199219 20.34375 C 17.199219 19.609375 17.789062 19.019531 18.519531 19.019531 Z M 18.519531 19.019531 "/>
<path style=" stroke:none;fill-rule:nonzero;fill:rgb(47.058824%,56.470591%,61.176473%);fill-opacity:1;" d="M 18.519531 25.636719 C 17.054688 25.636719 15.875 26.816406 15.875 28.28125 C 15.875 29.746094 17.054688 30.925781 18.519531 30.925781 C 19.988281 30.925781 21.167969 29.746094 21.167969 28.28125 C 21.167969 26.816406 19.988281 25.636719 18.519531 25.636719 Z M 18.519531 26.957031 C 19.253906 26.957031 19.84375 27.546875 19.84375 28.28125 C 19.84375 29.015625 19.253906 29.605469 18.519531 29.605469 C 17.789062 29.605469 17.199219 29.015625 17.199219 28.28125 C 17.199219 27.546875 17.789062 26.957031 18.519531 26.957031 Z M 18.519531 26.957031 "/>
<path style=" stroke:none;fill-rule:nonzero;fill:rgb(47.058824%,56.470591%,61.176473%);fill-opacity:1;" d="M 18.519531 33.574219 C 17.054688 33.574219 15.875 34.753906 15.875 36.21875 C 15.875 37.683594 17.054688 38.863281 18.519531 38.863281 C 19.988281 38.863281 21.167969 37.683594 21.167969 36.21875 C 21.167969 34.753906 19.988281 33.574219 18.519531 33.574219 Z M 18.519531 34.894531 C 19.253906 34.894531 19.84375 35.484375 19.84375 36.21875 C 19.84375 36.953125 19.253906 37.542969 18.519531 37.542969 C 17.789062 37.542969 17.199219 36.953125 17.199219 36.21875 C 17.199219 35.484375 17.789062 34.894531 18.519531 34.894531 Z M 18.519531 34.894531 "/>
<path style=" stroke:none;fill-rule:nonzero;fill:rgb(47.058824%,56.470591%,61.176473%);fill-opacity:1;" d="M 18.519531 41.511719 C 17.054688 41.511719 15.875 42.691406 15.875 44.15625 C 15.875 45.621094 17.054688 46.800781 18.519531 46.800781 C 19.988281 46.800781 21.167969 45.621094 21.167969 44.15625 C 21.167969 42.691406 19.988281 41.511719 18.519531 41.511719 Z M 18.519531 42.832031 C 19.253906 42.832031 19.84375 43.421875 19.84375 44.15625 C 19.84375 44.890625 19.253906 45.480469 18.519531 45.480469 C 17.789062 45.480469 17.199219 44.890625 17.199219 44.15625 C 17.199219 43.421875 17.789062 42.832031 18.519531 42.832031 Z M 18.519531 42.832031 "/>
<path style=" stroke:none;fill-rule:nonzero;fill:rgb(47.058824%,56.470591%,61.176473%);fill-opacity:1;" d="M 25.136719 26.957031 L 46.300781 26.957031 C 47.03125 26.957031 47.625 27.550781 47.625 28.28125 C 47.625 29.011719 47.03125 29.605469 46.300781 29.605469 L 25.136719 29.605469 C 24.40625 29.605469 23.8125 29.011719 23.8125 28.28125 C 23.8125 27.550781 24.40625 26.957031 25.136719 26.957031 Z M 25.136719 26.957031 "/>
<path style=" stroke:none;fill-rule:nonzero;fill:rgb(47.058824%,56.470591%,61.176473%);fill-opacity:1;" d="M 25.136719 34.894531 L 46.300781 34.894531 C 47.03125 34.894531 47.625 35.488281 47.625 36.21875 C 47.625 36.949219 47.03125 37.542969 46.300781 37.542969 L 25.136719 37.542969 C 24.40625 37.542969 23.8125 36.949219 23.8125 36.21875 C 23.8125 35.488281 24.40625 34.894531 25.136719 34.894531 Z M 25.136719 34.894531 "/>
<path style=" stroke:none;fill-rule:nonzero;fill:rgb(47.058824%,56.470591%,61.176473%);fill-opacity:1;" d="M 25.136719 42.832031 L 46.300781 42.832031 C 47.03125 42.832031 47.625 43.425781 47.625 44.15625 C 47.625 44.886719 47.03125 45.480469 46.300781 45.480469 L 25.136719 45.480469 C 24.40625 45.480469 23.8125 44.886719 23.8125 44.15625 C 23.8125 43.425781 24.40625 42.832031 25.136719 42.832031 Z M 25.136719 42.832031 "/>
<path style=" stroke:none;fill-rule:nonzero;fill:rgb(93.725491%,32.549021%,31.37255%);fill-opacity:1;" d="M 15.714844 18.199219 L 18.519531 21.003906 L 19.457031 20.070312 L 22.261719 17.261719 L 21.328125 16.328125 L 18.519531 19.132812 L 16.648438 17.261719 Z M 15.714844 18.199219 "/>
<path style=" stroke:none;fill-rule:nonzero;fill:rgb(93.725491%,32.549021%,31.37255%);fill-opacity:1;" d="M 15.714844 26.136719 L 18.519531 28.941406 L 19.457031 28.007812 L 22.261719 25.199219 L 21.328125 24.265625 L 18.519531 27.070312 L 16.648438 25.199219 Z M 15.714844 26.136719 "/>
</g>
</svg>
