
<svg xmlns="http://www.w3.org/2000/svg" xmlns:xlink="http://www.w3.org/1999/xlink" width="64px" height="64px" viewBox="0 0 64 64" version="1.1">
<g id="surface1">
<path style=" stroke:none;fill-rule:nonzero;fill:rgb(100%,71.764708%,30.19608%);fill-opacity:1;" d="M 5.292969 6.613281 L 58.207031 6.613281 C 59.667969 6.613281 60.855469 7.800781 60.855469 9.261719 L 60.855469 54.238281 C 60.855469 55.699219 59.667969 56.886719 58.207031 56.886719 L 5.292969 56.886719 C 3.832031 56.886719 2.644531 55.699219 2.644531 54.238281 L 2.644531 9.261719 C 2.644531 7.800781 3.832031 6.613281 5.292969 6.613281 Z M 5.292969 6.613281 "/>
<path style=" stroke:none;fill-rule:nonzero;fill:rgb(94.117647%,38.431373%,57.254905%);fill-opacity:1;" d="M 3.511719 7.296875 C 2.980469 7.78125 2.644531 8.480469 2.644531 9.261719 L 2.644531 54.238281 C 2.644531 55.707031 3.824219 56.886719 5.292969 56.886719 L 58.207031 56.886719 C 58.878906 56.886719 59.488281 56.636719 59.953125 56.230469 L 16.078125 17.199219 Z M 3.511719 7.296875 "/>
<path style=" stroke:none;fill-rule:nonzero;fill:rgb(72.941178%,40.784314%,78.431374%);fill-opacity:1;" d="M 60.023438 7.332031 L 3.476562 56.167969 C 3.949219 56.613281 4.585938 56.886719 5.292969 56.886719 L 58.207031 56.886719 C 59.675781 56.886719 60.855469 55.707031 60.855469 54.238281 L 60.855469 9.261719 C 60.855469 8.5 60.535156 7.8125 60.023438 7.332031 Z M 60.023438 7.332031 "/>
<path style=" stroke:none;fill-rule:nonzero;fill:rgb(96.078432%,96.078432%,96.078432%);fill-opacity:1;" d="M 10.582031 44.980469 L 17.199219 44.980469 C 17.929688 44.980469 18.519531 45.570312 18.519531 46.300781 L 18.519531 52.917969 C 18.519531 53.648438 17.929688 54.238281 17.199219 54.238281 L 10.582031 54.238281 C 9.851562 54.238281 9.261719 53.648438 9.261719 52.917969 L 9.261719 46.300781 C 9.261719 45.570312 9.851562 44.980469 10.582031 44.980469 Z M 10.582031 44.980469 "/>
<path style=" stroke:none;fill-rule:nonzero;fill:rgb(96.078432%,96.078432%,96.078432%);fill-opacity:1;" d="M 22.488281 44.980469 L 29.105469 44.980469 C 29.835938 44.980469 30.425781 45.570312 30.425781 46.300781 L 30.425781 52.917969 C 30.425781 53.648438 29.835938 54.238281 29.105469 54.238281 L 22.488281 54.238281 C 21.757812 54.238281 21.167969 53.648438 21.167969 52.917969 L 21.167969 46.300781 C 21.167969 45.570312 21.757812 44.980469 22.488281 44.980469 Z M 22.488281 44.980469 "/>
<path style=" stroke:none;fill-rule:nonzero;fill:rgb(96.078432%,96.078432%,96.078432%);fill-opacity:1;" d="M 34.394531 44.980469 L 41.011719 44.980469 C 41.742188 44.980469 42.332031 45.570312 42.332031 46.300781 L 42.332031 52.917969 C 42.332031 53.648438 41.742188 54.238281 41.011719 54.238281 L 34.394531 54.238281 C 33.664062 54.238281 33.074219 53.648438 33.074219 52.917969 L 33.074219 46.300781 C 33.074219 45.570312 33.664062 44.980469 34.394531 44.980469 Z M 34.394531 44.980469 "/>
<path style=" stroke:none;fill-rule:nonzero;fill:rgb(96.078432%,96.078432%,96.078432%);fill-opacity:1;" d="M 46.300781 44.980469 L 52.917969 44.980469 C 53.648438 44.980469 54.238281 45.570312 54.238281 46.300781 L 54.238281 52.917969 C 54.238281 53.648438 53.648438 54.238281 52.917969 54.238281 L 46.300781 54.238281 C 45.570312 54.238281 44.980469 53.648438 44.980469 52.917969 L 44.980469 46.300781 C 44.980469 45.570312 45.570312 44.980469 46.300781 44.980469 Z M 46.300781 44.980469 "/>
</g>
</svg>
