
<svg xmlns="http://www.w3.org/2000/svg" xmlns:xlink="http://www.w3.org/1999/xlink" width="64px" height="64px" viewBox="0 0 64 64" version="1.1">
<g id="surface1">
<path style=" stroke:none;fill-rule:nonzero;fill:rgb(25.882354%,25.882354%,25.882354%);fill-opacity:1;" d="M 27.851562 12.117188 L 27.851562 12.121094 C 27.582031 11.96875 27.265625 11.929688 26.972656 12.007812 L 14.667969 15.304688 L 9.589844 24.101562 C 9.316406 24.578125 9.476562 25.183594 9.953125 25.457031 L 42.605469 44.308594 C 43.082031 44.582031 43.6875 44.421875 43.960938 43.945312 L 48.382812 36.285156 L 45.164062 26.582031 C 44.957031 25.960938 44.285156 25.625 43.660156 25.835938 L 32.882812 29.507812 L 28.417969 12.84375 C 28.335938 12.535156 28.128906 12.273438 27.851562 12.117188 Z M 27.851562 12.117188 "/>
<path style=" stroke:none;fill-rule:nonzero;fill:rgb(93.333334%,93.333334%,93.333334%);fill-opacity:1;" d="M 27.851562 12.121094 C 27.582031 11.96875 27.265625 11.929688 26.972656 12.007812 L 20.628906 13.707031 L 20.992188 15.707031 C 21.207031 16.515625 22.6875 17.410156 24.894531 17.273438 C 26.503906 16.847656 27.675781 17.648438 27.984375 19.058594 C 28.542969 20.863281 29.675781 21.40625 30.902344 22.113281 L 28.417969 12.84375 C 28.335938 12.535156 28.128906 12.273438 27.851562 12.121094 Z M 44.617188 25.921875 C 44.335938 25.761719 43.992188 25.722656 43.660156 25.835938 L 39.691406 27.1875 L 39.761719 27.230469 C 39.714844 27.726562 38.976562 29.179688 40.195312 28.855469 C 42.277344 28.296875 42.1875 28.972656 42.40625 29.785156 C 42.734375 31.007812 42.800781 32.074219 43.722656 32.265625 C 45.3125 32.492188 46.269531 31.351562 46.292969 29.984375 L 45.164062 26.582031 C 45.066406 26.292969 44.867188 26.0625 44.617188 25.921875 Z M 44.617188 25.921875 "/>
<path style=" stroke:none;fill-rule:nonzero;fill:rgb(93.333334%,93.333334%,93.333334%);fill-opacity:1;" d="M 21.496094 3.480469 L 55.867188 23.324219 C 56.816406 23.871094 57.140625 25.085938 56.59375 26.035156 L 40.71875 53.53125 C 40.171875 54.480469 38.957031 54.804688 38.007812 54.257812 L 3.636719 34.414062 C 2.6875 33.863281 2.363281 32.652344 2.910156 31.703125 L 18.785156 4.207031 C 19.335938 3.257812 20.546875 2.933594 21.496094 3.480469 Z M 21.496094 3.480469 "/>
<path style=" stroke:none;fill-rule:nonzero;fill:rgb(56.470591%,79.215688%,97.647059%);fill-opacity:1;" d="M 21.652344 5.859375 L 53.730469 24.378906 C 54.363281 24.746094 54.578125 25.554688 54.214844 26.1875 L 39.660156 51.394531 C 39.296875 52.023438 38.488281 52.242188 37.855469 51.875 L 5.777344 33.355469 C 5.144531 32.992188 4.925781 32.179688 5.292969 31.550781 L 19.84375 6.34375 C 20.210938 5.710938 21.019531 5.496094 21.652344 5.859375 Z M 21.652344 5.859375 "/>
<path style=" stroke:none;fill-rule:nonzero;fill:rgb(25.882354%,25.882354%,25.882354%);fill-opacity:1;" d="M 23.386719 19.851562 C 23.117188 19.703125 22.800781 19.660156 22.507812 19.742188 L 10.203125 23.039062 L 5.125 31.835938 C 4.851562 32.3125 5.011719 32.914062 5.488281 33.191406 L 38.140625 52.042969 C 38.617188 52.316406 39.222656 52.15625 39.496094 51.679688 L 43.917969 44.019531 L 40.699219 34.316406 C 40.492188 33.695312 39.820312 33.355469 39.195312 33.570312 L 28.417969 37.242188 L 23.953125 20.578125 C 23.871094 20.269531 23.664062 20.007812 23.386719 19.851562 Z M 23.386719 19.851562 "/>
<path style=" stroke:none;fill-rule:nonzero;fill:rgb(93.333334%,93.333334%,93.333334%);fill-opacity:1;" d="M 23.386719 19.851562 C 23.117188 19.703125 22.800781 19.660156 22.507812 19.742188 L 16.164062 21.441406 L 16.527344 23.4375 C 16.742188 24.25 18.222656 25.144531 20.429688 25.007812 C 22.039062 24.582031 23.210938 25.378906 23.519531 26.792969 C 24.078125 28.59375 25.210938 29.140625 26.4375 29.847656 L 23.953125 20.578125 C 23.871094 20.269531 23.664062 20.007812 23.386719 19.851562 Z M 40.152344 33.65625 C 39.871094 33.496094 39.527344 33.457031 39.195312 33.570312 L 35.226562 34.921875 L 35.296875 34.960938 C 35.25 35.457031 34.511719 36.914062 35.730469 36.585938 C 37.8125 36.03125 37.722656 36.707031 37.941406 37.519531 C 38.269531 38.738281 38.335938 39.808594 39.257812 40 C 40.847656 40.226562 41.804688 39.085938 41.828125 37.71875 L 40.699219 34.316406 C 40.601562 34.023438 40.402344 33.796875 40.152344 33.65625 Z M 40.152344 33.65625 "/>
<path style=" stroke:none;fill-rule:nonzero;fill:rgb(100%,65.490198%,14.901961%);fill-opacity:1;" d="M 46.082031 23.402344 C 47.746094 24.363281 48.3125 26.484375 47.355469 28.148438 C 46.394531 29.808594 44.273438 30.375 42.609375 29.417969 C 40.949219 28.457031 40.382812 26.335938 41.339844 24.675781 C 42.296875 23.011719 44.421875 22.445312 46.082031 23.402344 Z M 46.082031 23.402344 "/>
<path style=" stroke:none;fill-rule:nonzero;fill:rgb(25.882354%,25.882354%,25.882354%);fill-opacity:1;" d="M 22.40625 28.402344 C 22.109375 28.484375 21.855469 28.679688 21.707031 28.945312 L 15.339844 39.976562 L 17.964844 49.785156 C 18.109375 50.316406 18.652344 50.628906 19.183594 50.488281 L 55.601562 40.730469 C 56.132812 40.585938 56.445312 40.046875 56.300781 39.515625 L 54.011719 30.972656 L 44.871094 26.386719 C 44.289062 26.09375 43.574219 26.332031 43.285156 26.921875 L 38.257812 37.140625 L 23.316406 28.511719 C 23.042969 28.355469 22.710938 28.3125 22.40625 28.402344 Z M 22.40625 28.402344 "/>
<path style=" stroke:none;fill-rule:nonzero;fill:rgb(93.333334%,93.333334%,93.333334%);fill-opacity:1;" d="M 22.40625 28.402344 C 22.109375 28.484375 21.855469 28.679688 21.707031 28.945312 L 18.421875 34.632812 L 20.089844 35.789062 C 20.816406 36.207031 22.496094 35.792969 23.960938 34.136719 C 24.796875 32.699219 26.191406 32.433594 27.40625 33.210938 C 29.078125 34.09375 30.265625 33.675781 31.628906 33.3125 L 23.316406 28.511719 C 23.042969 28.355469 22.710938 28.3125 22.40625 28.402344 Z M 44.023438 26.304688 C 43.710938 26.390625 43.4375 26.609375 43.285156 26.921875 L 41.433594 30.683594 L 41.511719 30.664062 C 41.828125 31.046875 42.335938 32.597656 42.96875 31.507812 C 44.046875 29.636719 44.460938 30.183594 45.191406 30.601562 C 46.285156 31.230469 47.089844 31.941406 47.875 31.425781 C 49.160156 30.460938 49.03125 28.976562 48.078125 27.992188 L 44.871094 26.386719 C 44.597656 26.25 44.296875 26.226562 44.023438 26.304688 Z M 44.023438 26.304688 "/>
<path style=" stroke:none;fill-rule:nonzero;fill:rgb(93.333334%,93.333334%,93.333334%);fill-opacity:1;" d="M 11.804688 26.785156 L 50.140625 16.511719 C 51.199219 16.230469 52.285156 16.859375 52.570312 17.917969 L 60.785156 48.585938 C 61.070312 49.644531 60.441406 50.730469 59.382812 51.015625 L 21.046875 61.285156 C 19.988281 61.570312 18.902344 60.941406 18.617188 59.882812 L 10.398438 29.214844 C 10.117188 28.15625 10.746094 27.070312 11.804688 26.785156 Z M 11.804688 26.785156 "/>
<path style=" stroke:none;fill-rule:nonzero;fill:rgb(100%,43.921569%,26.274511%);fill-opacity:1;" d="M 13.59375 28.359375 L 49.375 18.773438 C 50.082031 18.582031 50.804688 19 50.996094 19.707031 L 58.527344 47.820312 C 58.714844 48.527344 58.296875 49.25 57.59375 49.441406 L 21.8125 59.027344 C 21.105469 59.214844 20.382812 58.796875 20.191406 58.09375 L 12.660156 29.980469 C 12.46875 29.273438 12.890625 28.546875 13.59375 28.359375 Z M 13.59375 28.359375 "/>
<path style=" stroke:none;fill-rule:nonzero;fill:rgb(25.882354%,25.882354%,25.882354%);fill-opacity:1;" d="M 24.714844 37.027344 C 24.421875 37.109375 24.167969 37.304688 24.015625 37.570312 L 17.648438 48.601562 L 20.277344 58.410156 C 20.421875 58.941406 20.960938 59.253906 21.492188 59.113281 L 57.910156 49.355469 C 58.441406 49.210938 58.753906 48.671875 58.613281 48.140625 L 56.324219 39.597656 L 47.183594 35.011719 C 46.597656 34.71875 45.886719 34.957031 45.59375 35.546875 L 40.570312 45.765625 L 25.628906 37.140625 C 25.355469 36.980469 25.023438 36.9375 24.714844 37.027344 Z M 24.714844 37.027344 "/>
<path style=" stroke:none;fill-rule:nonzero;fill:rgb(93.333334%,93.333334%,93.333334%);fill-opacity:1;" d="M 24.714844 37.027344 C 24.421875 37.109375 24.167969 37.304688 24.015625 37.570312 L 20.730469 43.257812 L 22.402344 44.414062 C 23.128906 44.832031 24.808594 44.417969 26.269531 42.761719 C 27.105469 41.324219 28.503906 41.058594 29.71875 41.839844 C 31.386719 42.71875 32.574219 42.300781 33.9375 41.9375 L 25.628906 37.140625 C 25.355469 36.980469 25.023438 36.9375 24.714844 37.027344 Z M 46.332031 34.929688 C 46.019531 35.015625 45.75 35.234375 45.597656 35.546875 L 43.746094 39.308594 L 43.824219 39.289062 C 44.140625 39.671875 44.648438 41.226562 45.277344 40.132812 C 46.355469 38.265625 46.769531 38.808594 47.503906 39.226562 C 48.59375 39.859375 49.398438 40.566406 50.183594 40.050781 C 51.46875 39.085938 51.339844 37.601562 50.390625 36.621094 L 47.183594 35.011719 C 46.910156 34.875 46.605469 34.855469 46.332031 34.929688 Z M 46.332031 34.929688 "/>
<path style=" stroke:none;fill-rule:nonzero;fill:rgb(100%,65.490198%,14.901961%);fill-opacity:1;" d="M 43.277344 23.488281 C 45.128906 22.992188 47.03125 24.089844 47.53125 25.941406 C 48.027344 27.796875 46.925781 29.699219 45.074219 30.195312 C 43.222656 30.691406 41.316406 29.59375 40.820312 27.742188 C 40.324219 25.886719 41.425781 23.984375 43.277344 23.488281 Z M 43.277344 23.488281 "/>
</g>
</svg>
