
<svg xmlns="http://www.w3.org/2000/svg" xmlns:xlink="http://www.w3.org/1999/xlink" width="64px" height="64px" viewBox="0 0 64 64" version="1.1">
<g id="surface1">
<path style=" stroke:none;fill-rule:nonzero;fill:rgb(25.882354%,25.882354%,25.882354%);fill-opacity:1;" d="M 28.316406 4.628906 L 9.980469 15.214844 C 7.855469 16.441406 6.546875 18.710938 6.546875 21.164062 L 6.546875 42.335938 C 6.546875 44.789062 7.855469 47.058594 9.980469 48.285156 L 28.316406 58.871094 C 30.441406 60.097656 33.058594 60.097656 35.183594 58.871094 L 53.519531 48.285156 C 55.644531 47.058594 56.953125 44.789062 56.945312 42.335938 L 56.894531 21.164062 C 56.890625 18.707031 55.578125 16.441406 53.453125 15.210938 L 35.183594 4.632812 C 33.058594 3.402344 30.441406 3.402344 28.316406 4.628906 Z M 28.316406 4.628906 "/>
<path style=" stroke:none;fill-rule:nonzero;fill:rgb(100%,79.215688%,15.686275%);fill-opacity:1;" d="M 34.683594 5.167969 C 33.039062 4.214844 30.390625 4.214844 28.746094 5.167969 L 10.933594 15.480469 C 9.289062 16.429688 9.289062 17.964844 10.933594 18.917969 L 28.746094 29.230469 C 30.390625 30.179688 33.039062 30.179688 34.683594 29.230469 L 52.496094 18.917969 C 54.140625 17.964844 54.140625 16.429688 52.496094 15.480469 Z M 34.683594 5.167969 "/>
<path style=" stroke:none;fill-rule:nonzero;fill:rgb(25.882354%,64.705884%,96.078432%);fill-opacity:1;" d="M 10.242188 20.121094 C 8.597656 19.167969 7.273438 19.933594 7.273438 21.839844 L 7.273438 42.464844 C 7.273438 44.367188 8.597656 46.667969 10.242188 47.621094 L 28.054688 57.933594 C 29.699219 58.882812 31.023438 58.117188 31.023438 56.214844 L 31.023438 35.589844 C 31.023438 33.683594 29.699219 31.382812 28.054688 30.433594 Z M 10.242188 20.121094 "/>
<path style=" stroke:none;fill-rule:nonzero;fill:rgb(93.725491%,32.549021%,31.37255%);fill-opacity:1;" d="M 35.410156 30.433594 C 33.765625 31.382812 32.441406 33.683594 32.441406 35.589844 L 32.441406 56.214844 C 32.441406 58.117188 33.765625 58.882812 35.410156 57.933594 L 53.222656 47.621094 C 54.867188 46.667969 56.191406 44.367188 56.191406 42.464844 L 56.191406 21.839844 C 56.191406 19.933594 54.867188 19.167969 53.222656 20.121094 Z M 35.410156 30.433594 "/>
</g>
</svg>
