
<svg xmlns="http://www.w3.org/2000/svg" xmlns:xlink="http://www.w3.org/1999/xlink" width="64px" height="64px" viewBox="0 0 64 64" version="1.1">
<g id="surface1">
<path style=" stroke:none;fill-rule:nonzero;fill:rgb(89.803922%,45.09804%,45.09804%);fill-opacity:1;" d="M 44.398438 9.839844 C 56.5 16.824219 60.648438 32.300781 53.660156 44.398438 C 46.675781 56.5 31.199219 60.648438 19.101562 53.660156 C 7 46.675781 2.851562 31.199219 9.839844 19.101562 C 16.824219 7 32.300781 2.851562 44.398438 9.839844 Z M 44.398438 9.839844 "/>
<path style=" stroke:none;fill-rule:nonzero;fill:rgb(25.882354%,25.882354%,25.882354%);fill-opacity:1;" d="M 46.300781 6.546875 C 60.222656 14.582031 64.992188 32.382812 56.953125 46.300781 C 48.917969 60.222656 31.117188 64.992188 17.199219 56.953125 C 3.277344 48.917969 -1.492188 31.117188 6.546875 17.199219 C 14.582031 3.277344 32.382812 -1.492188 46.300781 6.546875 Z M 46.300781 6.546875 "/>
<path style=" stroke:none;fill-rule:nonzero;fill:rgb(93.333334%,93.333334%,93.333334%);fill-opacity:1;" d="M 38.554688 8.597656 C 37.984375 8.609375 37.390625 8.660156 36.683594 8.800781 C 35.394531 9.054688 34.050781 9.835938 32.914062 10.625 C 29.0625 13.308594 28.046875 18.550781 30.636719 22.339844 C 32.800781 25.507812 36.851562 26.621094 40.382812 25.40625 C 41.128906 25.152344 41.429688 25.125 42.007812 25.078125 C 42.753906 25.015625 43.953125 25.105469 45.027344 25.636719 C 45.902344 26.066406 46.648438 26.445312 47.136719 27.445312 C 47.261719 27.707031 47.484375 28.171875 47.53125 28.757812 C 47.605469 29.691406 47.421875 30.144531 46.804688 31.328125 C 47.785156 30.535156 48.257812 30.40625 49.714844 28.632812 C 52.617188 25.101562 52.769531 19.207031 49.605469 14.582031 C 47.261719 11.15625 43.675781 8.964844 40.292969 8.683594 C 39.675781 8.632812 39.128906 8.589844 38.554688 8.597656 Z M 17.539062 19.425781 C 13.746094 19.511719 9.785156 22.128906 7.8125 26.417969 C 6.140625 30.050781 6.058594 34.132812 7.429688 37.125 C 7.929688 38.21875 8.335938 39.054688 9.230469 40.117188 C 10.046875 41.082031 11.3125 41.839844 12.492188 42.417969 C 16.488281 44.375 21.214844 42.703125 23.0625 38.6875 C 24.605469 35.332031 23.597656 31.375 20.945312 28.980469 C 20.386719 28.472656 20.222656 28.234375 19.910156 27.769531 C 19.507812 27.171875 19.015625 26.113281 18.933594 24.949219 C 18.871094 24.003906 18.820312 23.191406 19.402344 22.296875 C 19.554688 22.0625 19.828125 21.652344 20.28125 21.328125 C 21 20.816406 21.453125 20.753906 22.707031 20.703125 C 21.601562 20.253906 21.273438 19.921875 19.148438 19.546875 C 18.621094 19.453125 18.082031 19.414062 17.539062 19.425781 Z M 40.875 36.742188 C 40.605469 36.742188 40.335938 36.742188 40.0625 36.765625 C 36.40625 37.0625 33.542969 39.894531 32.847656 43.398438 C 32.699219 44.140625 32.578125 44.398438 32.339844 44.898438 C 32.03125 45.546875 31.375 46.503906 30.421875 47.144531 C 29.644531 47.664062 28.972656 48.109375 27.914062 48.035156 C 27.636719 48.015625 27.148438 47.976562 26.644531 47.738281 C 25.835938 47.359375 25.554688 46.996094 24.875 45.921875 C 25.054688 47.109375 24.933594 47.558594 25.695312 49.609375 C 27.210938 53.6875 32 56.613281 37.335938 56.183594 C 41.289062 55.863281 44.824219 53.929688 46.683594 51.257812 C 47.363281 50.28125 47.871094 49.515625 48.320312 48.207031 C 48.730469 47.015625 48.734375 45.53125 48.628906 44.214844 C 48.289062 40.027344 44.898438 36.835938 40.875 36.742188 Z M 40.875 36.742188 "/>
</g>
</svg>
