
<svg xmlns="http://www.w3.org/2000/svg" xmlns:xlink="http://www.w3.org/1999/xlink" width="64" height="64" viewBox="0 0 64 64" version="1.1">
<g id="surface1">
<path style=" stroke:none;fill-rule:nonzero;fill:rgb(74.117649%,74.117649%,74.117649%);fill-opacity:1;" d="M 41.671875 60.855469 L 50.269531 52.253906 L 43.65625 52.253906 C 42.558594 52.253906 41.671875 53.140625 41.671875 54.238281 Z M 41.671875 60.855469 "/>
<path style=" stroke:none;fill-rule:nonzero;fill:rgb(93.333334%,93.333334%,93.333334%);fill-opacity:1;" d="M 9.261719 2.648438 C 8.527344 2.648438 7.9375 3.238281 7.9375 3.972656 L 7.9375 59.53125 C 7.9375 60.265625 8.527344 60.855469 9.261719 60.855469 L 43.65625 60.855469 L 54.238281 50.269531 L 54.238281 3.972656 C 54.238281 3.238281 53.648438 2.648438 52.917969 2.648438 Z M 9.261719 2.648438 "/>
<path style=" stroke:none;fill-rule:evenodd;fill:rgb(74.117649%,74.117649%,74.117649%);fill-opacity:1;" d="M 16.855469 30.363281 C 17.179688 33.054688 17.199219 34.867188 16.335938 35.636719 C 15.1875 35.539062 14.113281 34.078125 12.753906 31.734375 C 13.625 34.308594 14.019531 36.078125 13.324219 37.007812 C 12.179688 37.160156 10.824219 35.949219 9.003906 33.929688 C 10.375 36.25 11.128906 37.894531 10.664062 38.945312 C 9.964844 39.175781 9.066406 38.878906 7.9375 38.214844 L 7.9375 39.429688 C 8.410156 40.199219 8.613281 40.859375 8.46875 41.429688 C 8.3125 41.53125 8.132812 41.589844 7.9375 41.628906 L 7.9375 42.285156 C 8.070312 42.078125 8.253906 41.820312 8.597656 41.34375 C 8.59375 41.34375 8.59375 41.34375 8.59375 41.34375 C 9.113281 40.640625 9.210938 40.527344 9.558594 40.144531 C 9.914062 39.75 10.007812 39.640625 10.710938 39 C 11.421875 38.359375 11.539062 38.273438 11.96875 37.960938 C 12.398438 37.640625 12.515625 37.558594 13.355469 37.058594 C 14.203125 36.570312 14.332031 36.507812 14.820312 36.285156 C 15.308594 36.066406 15.4375 36.007812 16.359375 35.695312 C 17.28125 35.394531 17.417969 35.359375 17.941406 35.246094 C 18.496094 35.121094 18.605469 35.097656 19.742188 34.960938 C 18.535156 34.765625 17.75 33.074219 16.855469 30.363281 Z M 21.375 36.238281 C 19.246094 36.234375 17.082031 36.703125 15.027344 37.722656 C 11.617188 39.386719 9.210938 42.1875 7.9375 45.40625 L 7.9375 56.285156 C 8.0625 56.601562 8.199219 56.914062 8.347656 57.21875 C 9.015625 58.5625 9.890625 59.785156 10.917969 60.855469 L 16.738281 60.855469 C 14.472656 59.800781 12.570312 57.996094 11.4375 55.667969 C 8.808594 50.382812 10.882812 43.789062 16.605469 40.925781 C 22.714844 37.964844 28.28125 41.558594 30.152344 44.246094 C 29.476562 44.566406 28.800781 44.890625 28.128906 45.210938 C 25.332031 41.746094 20.964844 41.105469 17.496094 42.8125 C 13.417969 44.820312 11.046875 49.785156 13.472656 54.726562 C 13.957031 55.703125 13.957031 55.703125 14.566406 56.433594 L 35.183594 46.257812 C 34.867188 45.160156 34.867188 45.160156 34.464844 44.34375 C 32.011719 39.359375 26.816406 36.25 21.375 36.238281 Z M 35.9375 44.257812 C 36.386719 45.308594 36.421875 45.417969 36.59375 45.957031 C 36.753906 46.46875 36.792969 46.605469 36.992188 47.550781 C 37.183594 48.507812 37.199219 48.648438 37.25 49.183594 C 37.300781 49.71875 37.316406 49.859375 37.3125 50.835938 C 37.300781 51.816406 37.289062 51.957031 37.226562 52.488281 C 37.167969 53.019531 37.152344 53.164062 36.957031 54.09375 C 36.75 55.027344 36.707031 55.164062 36.539062 55.667969 C 36.382812 56.160156 36.332031 56.300781 35.984375 57.101562 C 35.515625 58.140625 35.457031 58.242188 35.171875 58.734375 C 34.902344 59.199219 34.832031 59.320312 34.261719 60.117188 C 33.992188 60.484375 33.839844 60.683594 33.703125 60.855469 L 34.316406 60.855469 C 34.273438 60.605469 34.257812 60.371094 34.308594 60.152344 C 35.179688 59.621094 36.621094 59.996094 38.640625 60.855469 L 38.988281 60.855469 C 37.082031 59.441406 35.929688 58.324219 35.96875 57.253906 C 36.804688 56.441406 38.621094 56.632812 41.296875 57.222656 C 38.828125 56.132812 37.261719 55.234375 37.023438 54.109375 C 37.703125 53.183594 39.503906 53.011719 42.199219 53.042969 C 39.542969 52.472656 37.816406 51.90625 37.375 50.835938 C 37.828125 49.773438 39.5625 49.226562 42.226562 48.695312 C 39.515625 48.6875 37.714844 48.492188 37.054688 47.542969 C 37.289062 46.410156 38.871094 45.523438 41.363281 44.457031 C 38.566406 45.039062 36.710938 45.207031 35.9375 44.257812 Z M 35.996094 50.410156 L 32.433594 50.425781 C 32.265625 54.800781 30.203125 58.855469 26.394531 60.695312 C 26.28125 60.75 26.167969 60.800781 26.050781 60.855469 L 32.011719 60.855469 C 35.171875 57.574219 35.941406 53.472656 35.996094 50.410156 Z M 35.996094 50.410156 "/>
<path style=" stroke:none;fill-rule:nonzero;fill:rgb(74.117649%,74.117649%,74.117649%);fill-opacity:1;" d="M 54.238281 50.269531 L 43.65625 60.855469 L 52.917969 60.855469 C 53.648438 60.855469 54.238281 60.265625 54.238281 59.53125 Z M 54.238281 50.269531 "/>
<path style=" stroke:none;fill-rule:nonzero;fill:rgb(87.843138%,87.843138%,87.843138%);fill-opacity:1;" d="M 43.65625 60.855469 L 54.238281 50.269531 L 44.980469 50.269531 C 44.246094 50.269531 43.65625 50.859375 43.65625 51.59375 Z M 43.65625 60.855469 "/>
<path style=" stroke:none;fill-rule:nonzero;fill:rgb(14.901961%,77.64706%,85.490197%);fill-opacity:1;" d="M 60.828125 14.34375 C 58.660156 13.765625 53.972656 16.03125 48.707031 19.609375 C 48.679688 20.398438 48.691406 21.183594 48.757812 21.960938 C 48.726562 22.097656 48.492188 21.261719 48.21875 19.949219 C 46.621094 21.054688 44.976562 22.273438 43.339844 23.5625 C 43.484375 24.246094 43.660156 24.917969 43.875 25.574219 C 43.886719 25.710938 43.488281 25.019531 42.945312 23.875 C 38.054688 27.773438 33.265625 32.296875 30.011719 36.316406 C 29.371094 38.597656 29.007812 40.664062 29.394531 42.539062 C 29.394531 42.539062 28.617188 41.210938 27.761719 39.714844 C 26.769531 43.429688 26.714844 46.597656 28.199219 46.996094 C 31.597656 48.191406 37.269531 48.027344 40.136719 47.011719 C 37.265625 46.070312 32.1875 45.023438 32.707031 45.019531 C 36.394531 45.125 39.75 44.800781 42.480469 44.34375 C 47.703125 40.332031 51.839844 33.527344 54.917969 27.332031 C 51.675781 27.109375 48.777344 26.464844 49.03125 26.394531 C 51.28125 26.457031 53.652344 26.03125 55.855469 25.398438 C 56.527344 23.984375 57.144531 22.621094 57.699219 21.355469 C 55.734375 21.085938 54.351562 20.753906 54.53125 20.707031 C 55.703125 20.738281 56.902344 20.640625 58.097656 20.449219 C 59.308594 17.660156 60.21875 15.445312 60.828125 14.34375 Z M 60.828125 14.34375 "/>
<path style=" stroke:none;fill-rule:nonzero;fill:rgb(38.039216%,38.039216%,38.039216%);fill-opacity:1;" d="M 20.503906 60.855469 C 26.316406 48.082031 37.085938 28.679688 54.039062 18.894531 C 38.515625 32.25 28.542969 48.679688 24.269531 58.679688 Z M 20.503906 60.855469 "/>
</g>
</svg>
