<?xml version="1.0" encoding="UTF-8"?>
<svg xmlns="http://www.w3.org/2000/svg" xmlns:xlink="http://www.w3.org/1999/xlink" width="64px" height="64px" viewBox="0 0 64 64" version="1.1">
<g id="surface1">
<path style=" stroke:none;fill-rule:nonzero;fill:rgb(49.411765%,34.117648%,76.078433%);fill-opacity:1;" d="M 31.75 3.144531 C 47.824219 3.144531 60.855469 16.175781 60.855469 32.25 C 60.855469 48.324219 47.824219 61.355469 31.75 61.355469 C 15.675781 61.355469 2.644531 48.324219 2.644531 32.25 C 2.644531 16.175781 15.675781 3.144531 31.75 3.144531 Z M 31.75 3.144531 "/>
<path style=" stroke:none;fill-rule:evenodd;fill:rgb(93.333334%,93.333334%,93.333334%);fill-opacity:1;" d="M 28.144531 16.820312 C 24.289062 16.828125 20.421875 17.59375 16.859375 19.089844 C 19.746094 19.429688 22.84375 19.425781 25.46875 20.796875 C 23.867188 20.902344 20.050781 21.003906 18.226562 22.929688 C 13.613281 26.8125 11.644531 32.921875 10.707031 38.6875 C 10.582031 39.675781 10.195312 41.632812 11.242188 39.816406 C 12.855469 37.941406 14.292969 35.8125 16.339844 34.390625 C 18.328125 34.191406 15.25 36.597656 15.113281 37.726562 C 12.773438 42.164062 12.085938 47.234375 11.214844 52.117188 C 11.21875 52.355469 11.199219 52.605469 11.164062 52.863281 C 16.425781 58.113281 23.695312 61.355469 31.75 61.355469 C 38.984375 61.355469 45.582031 58.742188 50.664062 54.40625 C 46.632812 52.335938 43.089844 49.125 41.894531 44.664062 C 41.09375 41.910156 41.46875 38.484375 44 36.75 C 47.355469 34.128906 51.808594 34.324219 55.832031 34.371094 C 57.035156 33.667969 55.046875 30.808594 54.128906 29.703125 C 52.265625 27.578125 49.625 26.246094 46.882812 25.675781 C 43.816406 22.554688 40.394531 19.59375 36.179688 18.15625 C 33.730469 17.261719 31.121094 16.828125 28.515625 16.820312 C 28.390625 16.820312 28.269531 16.820312 28.144531 16.820312 Z M 28.144531 16.820312 "/>
<path style=" stroke:none;fill-rule:evenodd;fill:rgb(100%,65.490198%,14.901961%);fill-opacity:1;" d="M 20.25 18.761719 C 18.703125 18.765625 17.292969 18.863281 16.503906 19.121094 C 16.503906 19.121094 23.480469 19.46875 25.464844 20.792969 C 26.128906 20.460938 27.121094 19.46875 27.195312 19.328125 C 26.652344 19.101562 23.207031 18.757812 20.25 18.761719 Z M 16.503906 19.121094 C 16.503906 19.121094 16.5 19.121094 16.5 19.121094 C 16.5 19.121094 16.503906 19.121094 16.503906 19.121094 Z M 35.890625 29.832031 C 35.890625 29.832031 12.402344 30.835938 10.535156 37.117188 C 9.921875 39.644531 10.253906 41.34375 10.253906 41.34375 C 10.253906 41.34375 19.554688 30.992188 35.890625 29.832031 Z M 45.425781 34.25 C 38.832031 34.246094 18.335938 37.058594 6.964844 55.070312 C 7.605469 58.496094 8.929688 61.140625 8.929688 61.140625 C 8.929688 61.140625 22.71875 35.425781 48.636719 34.449219 C 48.636719 34.449219 47.445312 34.25 45.425781 34.25 Z M 45.425781 34.25 "/>
<path style=" stroke:none;fill-rule:evenodd;fill:rgb(25.882354%,25.882354%,25.882354%);fill-opacity:1;" d="M 38.589844 23.335938 C 37.546875 23.371094 36.75 23.65625 36.75 23.65625 L 36.5625 23.71875 L 36.597656 23.914062 C 36.597656 23.914062 36.808594 25.046875 37.722656 26.105469 C 38.640625 27.164062 40.289062 28.148438 43.058594 27.894531 L 43.296875 27.871094 L 43.265625 27.636719 C 43.082031 26.167969 42.585938 25.164062 41.929688 24.5 C 41.273438 23.835938 40.46875 23.523438 39.699219 23.398438 C 39.316406 23.335938 38.941406 23.324219 38.589844 23.335938 Z M 38.589844 23.335938 "/>
</g>
</svg>
