<?xml version="1.0" encoding="UTF-8"?>
<svg xmlns="http://www.w3.org/2000/svg" xmlns:xlink="http://www.w3.org/1999/xlink" width="64px" height="64px" viewBox="0 0 64 64" version="1.1">
<g id="surface1">
<path style=" stroke:none;fill-rule:nonzero;fill:rgb(74.117649%,74.117649%,74.117649%);fill-opacity:1;" d="M 3.851562 31.554688 L 45.097656 7.742188 C 46.363281 7.011719 47.980469 7.445312 48.710938 8.710938 L 60.617188 29.332031 C 61.347656 30.597656 60.914062 32.214844 59.648438 32.945312 L 18.402344 56.757812 C 17.136719 57.488281 15.519531 57.054688 14.789062 55.789062 L 2.882812 35.167969 C 2.152344 33.902344 2.585938 32.285156 3.851562 31.554688 Z M 3.851562 31.554688 "/>
<path style=" stroke:none;fill-rule:nonzero;fill:rgb(93.333334%,93.333334%,93.333334%);fill-opacity:1;" d="M 6.320312 33.183594 L 45.273438 10.695312 C 45.90625 10.328125 46.714844 10.546875 47.082031 11.179688 L 57.664062 29.507812 C 58.027344 30.140625 57.8125 30.949219 57.179688 31.316406 L 18.226562 53.804688 C 17.59375 54.171875 16.785156 53.953125 16.417969 53.320312 L 5.835938 34.992188 C 5.472656 34.359375 5.6875 33.550781 6.320312 33.183594 Z M 6.320312 33.183594 "/>
<path style=" stroke:none;fill-rule:nonzero;fill:rgb(74.117649%,74.117649%,74.117649%);fill-opacity:1;" d="M 15.664062 30.84375 C 20.09375 28.289062 25.753906 29.804688 28.3125 34.234375 C 30.871094 38.664062 29.351562 44.328125 24.921875 46.882812 C 20.496094 49.441406 14.832031 47.925781 12.273438 43.496094 C 9.714844 39.066406 11.234375 33.402344 15.664062 30.84375 Z M 15.664062 30.84375 "/>
<path style=" stroke:none;fill-rule:nonzero;fill:rgb(74.117649%,74.117649%,74.117649%);fill-opacity:1;" d="M 37.476562 19.015625 L 43.777344 15.378906 C 45.515625 14.371094 47.742188 14.96875 48.746094 16.707031 C 49.75 18.449219 49.15625 20.675781 47.414062 21.679688 L 41.113281 25.316406 C 39.375 26.320312 37.148438 25.726562 36.144531 23.984375 C 35.140625 22.246094 35.734375 20.019531 37.476562 19.015625 Z M 37.476562 19.015625 "/>
<path style=" stroke:none;fill-rule:nonzero;fill:rgb(93.725491%,32.549021%,31.37255%);fill-opacity:1;" d="M 37.804688 19.589844 C 39.230469 18.765625 41.050781 19.253906 41.871094 20.675781 C 42.695312 22.101562 42.207031 23.921875 40.78125 24.742188 C 39.359375 25.566406 37.539062 25.078125 36.714844 23.652344 C 35.894531 22.230469 36.382812 20.410156 37.804688 19.589844 Z M 37.804688 19.589844 "/>
<path style=" stroke:none;fill-rule:nonzero;fill:rgb(93.725491%,32.549021%,31.37255%);fill-opacity:1;" d="M 44.105469 15.949219 C 45.53125 15.128906 47.351562 15.617188 48.171875 17.039062 C 48.996094 18.464844 48.507812 20.285156 47.082031 21.105469 C 45.660156 21.925781 43.839844 21.441406 43.019531 20.015625 C 42.195312 18.59375 42.683594 16.773438 44.105469 15.949219 Z M 44.105469 15.949219 "/>
<path style=" stroke:none;fill-rule:nonzero;fill:rgb(74.117649%,74.117649%,74.117649%);fill-opacity:0.996639;" d="M 42.4375 27.609375 L 48.738281 23.96875 C 50.476562 22.964844 52.703125 23.5625 53.707031 25.300781 C 54.710938 27.042969 54.117188 29.265625 52.375 30.269531 L 46.074219 33.910156 C 44.335938 34.914062 42.109375 34.316406 41.105469 32.578125 C 40.101562 30.835938 40.695312 28.613281 42.4375 27.609375 Z M 42.4375 27.609375 "/>
<path style=" stroke:none;fill-rule:nonzero;fill:rgb(25.882354%,25.882354%,25.882354%);fill-opacity:1;" d="M 42.765625 28.179688 C 44.191406 27.359375 46.011719 27.847656 46.832031 29.269531 C 47.65625 30.695312 47.167969 32.515625 45.742188 33.335938 C 44.320312 34.160156 42.5 33.671875 41.675781 32.246094 C 40.855469 30.824219 41.34375 29.003906 42.765625 28.179688 Z M 42.765625 28.179688 "/>
<path style=" stroke:none;fill-rule:nonzero;fill:rgb(25.882354%,25.882354%,25.882354%);fill-opacity:1;" d="M 49.066406 24.542969 C 50.492188 23.722656 52.3125 24.207031 53.132812 25.632812 C 53.957031 27.054688 53.46875 28.875 52.042969 29.699219 C 50.621094 30.519531 48.800781 30.03125 47.980469 28.609375 C 47.15625 27.183594 47.644531 25.363281 49.066406 24.542969 Z M 49.066406 24.542969 "/>
<path style=" stroke:none;fill-rule:nonzero;fill:rgb(25.882354%,25.882354%,25.882354%);fill-opacity:1;" d="M 15.179688 32.652344 C 14.863281 32.835938 14.753906 33.238281 14.9375 33.554688 L 17.582031 38.136719 L 13 40.785156 C 12.683594 40.96875 12.574219 41.371094 12.757812 41.6875 L 14.082031 43.980469 C 14.265625 44.296875 14.667969 44.40625 14.984375 44.222656 L 19.566406 41.574219 L 22.210938 46.15625 C 22.394531 46.476562 22.800781 46.582031 23.117188 46.398438 L 25.40625 45.078125 C 25.726562 44.894531 25.832031 44.492188 25.648438 44.171875 L 23.003906 39.589844 L 27.585938 36.945312 C 27.902344 36.761719 28.011719 36.359375 27.828125 36.042969 L 26.503906 33.75 C 26.324219 33.433594 25.917969 33.324219 25.601562 33.507812 L 21.019531 36.152344 L 18.375 31.570312 C 18.191406 31.253906 17.789062 31.144531 17.46875 31.328125 Z M 15.179688 32.652344 "/>
<path style=" stroke:none;fill-rule:nonzero;fill:rgb(25.882354%,25.882354%,25.882354%);fill-opacity:1;" d="M 32.433594 38.726562 L 33.007812 38.398438 C 33.640625 38.03125 34.449219 38.25 34.816406 38.882812 C 35.179688 39.515625 34.964844 40.324219 34.332031 40.6875 L 33.757812 41.019531 C 33.125 41.386719 32.316406 41.167969 31.949219 40.535156 C 31.585938 39.902344 31.800781 39.09375 32.433594 38.726562 Z M 32.433594 38.726562 "/>
<path style=" stroke:none;fill-rule:nonzero;fill:rgb(25.882354%,25.882354%,25.882354%);fill-opacity:1;" d="M 36.445312 36.414062 L 37.019531 36.082031 C 37.652344 35.71875 38.460938 35.933594 38.824219 36.566406 C 39.191406 37.199219 38.972656 38.007812 38.339844 38.375 L 37.769531 38.703125 C 37.136719 39.070312 36.328125 38.851562 35.960938 38.21875 C 35.59375 37.585938 35.8125 36.777344 36.445312 36.414062 Z M 36.445312 36.414062 "/>
</g>
</svg>
