
<svg xmlns="http://www.w3.org/2000/svg" xmlns:xlink="http://www.w3.org/1999/xlink" width="64px" height="64px" viewBox="0 0 64 64" version="1.1">
<g id="surface1">
<path style=" stroke:none;fill-rule:nonzero;fill:rgb(81.176472%,84.705883%,86.274511%);fill-opacity:1;" d="M 26.457031 8.4375 L 26.457031 29.203125 C 19.894531 35.882812 9.308594 46.503906 7.320312 52.476562 C 4.265625 61.636719 31.75 61.351562 31.75 61.351562 C 31.75 61.351562 59.230469 61.636719 56.179688 52.476562 C 54.191406 46.503906 43.605469 35.882812 37.042969 29.203125 L 37.042969 8.4375 Z M 26.457031 8.4375 "/>
<path style=" stroke:none;fill-rule:nonzero;fill:rgb(81.176472%,84.705883%,86.274511%);fill-opacity:1;" d="M 26.457031 3.144531 L 37.042969 3.144531 C 39.234375 3.144531 41.011719 4.921875 41.011719 7.113281 C 41.011719 9.304688 39.234375 11.082031 37.042969 11.082031 L 26.457031 11.082031 C 24.265625 11.082031 22.488281 9.304688 22.488281 7.113281 C 22.488281 4.921875 24.265625 3.144531 26.457031 3.144531 Z M 26.457031 3.144531 "/>
<path style=" stroke:none;fill-rule:nonzero;fill:rgb(25.882354%,64.705884%,96.078432%);fill-opacity:1;" d="M 17.199219 41.503906 C 14.371094 44.976562 11.222656 48.328125 10.40625 50.777344 C 7.738281 58.769531 31.714844 58.527344 31.714844 58.527344 C 31.714844 58.527344 55.6875 58.769531 53.023438 50.777344 C 52.207031 48.332031 49.128906 44.976562 46.300781 41.503906 C 39.308594 44.746094 20.902344 38.363281 17.199219 41.503906 Z M 17.199219 41.503906 "/>
<path style=" stroke:none;fill-rule:nonzero;fill:rgb(56.470591%,79.215688%,97.647059%);fill-opacity:1;" d="M 28.441406 45.480469 C 29.171875 45.480469 29.765625 46.070312 29.765625 46.800781 C 29.765625 47.53125 29.171875 48.125 28.441406 48.125 C 27.710938 48.125 27.121094 47.53125 27.121094 46.800781 C 27.121094 46.070312 27.710938 45.480469 28.441406 45.480469 Z M 28.441406 45.480469 "/>
<path style=" stroke:none;fill-rule:nonzero;fill:rgb(56.470591%,79.215688%,97.647059%);fill-opacity:1;" d="M 35.386719 45.480469 C 35.9375 45.480469 36.378906 45.921875 36.378906 46.472656 C 36.378906 47.019531 35.9375 47.464844 35.386719 47.464844 C 34.839844 47.464844 34.394531 47.019531 34.394531 46.472656 C 34.394531 45.921875 34.839844 45.480469 35.386719 45.480469 Z M 35.386719 45.480469 "/>
<path style=" stroke:none;fill-rule:nonzero;fill:rgb(56.470591%,79.215688%,97.647059%);fill-opacity:1;" d="M 33.734375 50.769531 C 34.832031 50.769531 35.71875 51.660156 35.71875 52.753906 C 35.71875 53.851562 34.832031 54.738281 33.734375 54.738281 C 32.636719 54.738281 31.75 53.851562 31.75 52.753906 C 31.75 51.660156 32.636719 50.769531 33.734375 50.769531 Z M 33.734375 50.769531 "/>
<path style=" stroke:none;fill-rule:nonzero;fill:rgb(56.470591%,79.215688%,97.647059%);fill-opacity:1;" d="M 21.828125 49.449219 C 22.925781 49.449219 23.8125 50.335938 23.8125 51.433594 C 23.8125 52.527344 22.925781 53.417969 21.828125 53.417969 C 20.730469 53.417969 19.84375 52.527344 19.84375 51.433594 C 19.84375 50.335938 20.730469 49.449219 21.828125 49.449219 Z M 21.828125 49.449219 "/>
<path style=" stroke:none;fill-rule:nonzero;fill:rgb(56.470591%,79.215688%,97.647059%);fill-opacity:1;" d="M 45.640625 49.449219 C 46.738281 49.449219 47.625 50.335938 47.625 51.433594 C 47.625 52.527344 46.738281 53.417969 45.640625 53.417969 C 44.542969 53.417969 43.65625 52.527344 43.65625 51.433594 C 43.65625 50.335938 44.542969 49.449219 45.640625 49.449219 Z M 45.640625 49.449219 "/>
<path style=" stroke:none;fill-rule:nonzero;fill:rgb(56.470591%,79.215688%,97.647059%);fill-opacity:1;" d="M 21.496094 43.496094 C 22.046875 43.496094 22.488281 43.9375 22.488281 44.488281 C 22.488281 45.035156 22.046875 45.480469 21.496094 45.480469 C 20.949219 45.480469 20.503906 45.035156 20.503906 44.488281 C 20.503906 43.9375 20.949219 43.496094 21.496094 43.496094 Z M 21.496094 43.496094 "/>
<path style=" stroke:none;fill-rule:nonzero;fill:rgb(92.54902%,93.725491%,94.509804%);fill-opacity:1;" d="M 29.105469 12.40625 C 29.835938 12.40625 30.425781 13 30.425781 13.730469 L 30.425781 28.28125 C 30.425781 29.011719 29.835938 29.605469 29.105469 29.605469 C 28.375 29.605469 27.78125 29.011719 27.78125 28.28125 L 27.78125 13.730469 C 27.78125 13 28.375 12.40625 29.105469 12.40625 Z M 29.105469 12.40625 "/>
<path style=" stroke:none;fill-rule:nonzero;fill:rgb(92.54902%,93.725491%,94.509804%);fill-opacity:1;" d="M 26.765625 4.46875 L 30.117188 4.46875 C 31.386719 4.46875 32.410156 5.253906 32.410156 6.226562 L 32.410156 6.679688 C 32.410156 7.652344 31.386719 8.4375 30.117188 8.4375 L 26.765625 8.4375 C 25.5 8.4375 24.472656 7.652344 24.472656 6.679688 L 24.472656 6.226562 C 24.472656 5.253906 25.5 4.46875 26.765625 4.46875 Z M 26.765625 4.46875 "/>
<path style=" stroke:none;fill-rule:nonzero;fill:rgb(98.039216%,98.039216%,98.039216%);fill-opacity:1;" d="M 26.457031 5.128906 C 27.1875 5.128906 27.78125 5.425781 27.78125 5.792969 C 27.78125 6.15625 27.1875 6.453125 26.457031 6.453125 C 25.726562 6.453125 25.136719 6.15625 25.136719 5.792969 C 25.136719 5.425781 25.726562 5.128906 26.457031 5.128906 Z M 26.457031 5.128906 "/>
<path style=" stroke:none;fill-rule:nonzero;fill:rgb(92.54902%,93.725491%,94.509804%);fill-opacity:1;" d="M 26.847656 32.636719 C 27.363281 33.152344 27.363281 33.992188 26.847656 34.507812 L 23.570312 37.78125 C 23.054688 38.300781 22.21875 38.300781 21.699219 37.78125 C 21.183594 37.265625 21.183594 36.429688 21.699219 35.910156 L 24.976562 32.636719 C 25.492188 32.121094 26.328125 32.121094 26.847656 32.636719 Z M 26.847656 32.636719 "/>
<path style=" stroke:none;fill-rule:nonzero;fill:rgb(56.470591%,79.215688%,97.647059%);fill-opacity:1;" d="M 21.261719 40.613281 C 19.414062 40.609375 17.980469 40.847656 17.199219 41.511719 C 29.105469 42.839844 43.65625 45.484375 46.300781 41.511719 C 40.785156 44.066406 28.160156 40.632812 21.261719 40.613281 Z M 21.261719 40.613281 "/>
<path style=" stroke:none;fill-rule:nonzero;fill:rgb(56.470591%,79.215688%,97.647059%);fill-opacity:1;" d="M 40.019531 48.125 C 40.566406 48.125 41.011719 48.570312 41.011719 49.117188 C 41.011719 49.664062 40.566406 50.109375 40.019531 50.109375 C 39.46875 50.109375 39.027344 49.664062 39.027344 49.117188 C 39.027344 48.570312 39.46875 48.125 40.019531 48.125 Z M 40.019531 48.125 "/>
<path style=" stroke:none;fill-rule:nonzero;fill:rgb(56.470591%,79.215688%,97.647059%);fill-opacity:1;" d="M 43.324219 44.816406 C 43.875 44.816406 44.316406 45.261719 44.316406 45.808594 C 44.316406 46.359375 43.875 46.800781 43.324219 46.800781 C 42.777344 46.800781 42.332031 46.359375 42.332031 45.808594 C 42.332031 45.261719 42.777344 44.816406 43.324219 44.816406 Z M 43.324219 44.816406 "/>
<path style=" stroke:none;fill-rule:nonzero;fill:rgb(56.470591%,79.215688%,97.647059%);fill-opacity:1;" d="M 16.207031 47.464844 C 16.753906 47.464844 17.199219 47.90625 17.199219 48.457031 C 17.199219 49.003906 16.753906 49.449219 16.207031 49.449219 C 15.65625 49.449219 15.214844 49.003906 15.214844 48.457031 C 15.214844 47.90625 15.65625 47.464844 16.207031 47.464844 Z M 16.207031 47.464844 "/>
<path style=" stroke:none;fill-rule:nonzero;fill:rgb(56.470591%,79.215688%,97.647059%);fill-opacity:1;" d="M 33.074219 30.425781 C 33.804688 30.425781 34.394531 31.019531 34.394531 31.75 C 34.394531 32.480469 33.804688 33.074219 33.074219 33.074219 C 32.34375 33.074219 31.75 32.480469 31.75 31.75 C 31.75 31.019531 32.34375 30.425781 33.074219 30.425781 Z M 33.074219 30.425781 "/>
<path style=" stroke:none;fill-rule:nonzero;fill:rgb(56.470591%,79.215688%,97.647059%);fill-opacity:1;" d="M 37.371094 36.378906 C 37.921875 36.378906 38.363281 36.824219 38.363281 37.371094 C 38.363281 37.921875 37.921875 38.363281 37.371094 38.363281 C 36.824219 38.363281 36.378906 37.921875 36.378906 37.371094 C 36.378906 36.824219 36.824219 36.378906 37.371094 36.378906 Z M 37.371094 36.378906 "/>
<path style=" stroke:none;fill-rule:nonzero;fill:rgb(56.470591%,79.215688%,97.647059%);fill-opacity:1;" d="M 32.082031 38.363281 C 32.628906 38.363281 33.074219 38.808594 33.074219 39.355469 C 33.074219 39.90625 32.628906 40.347656 32.082031 40.347656 C 31.53125 40.347656 31.089844 39.90625 31.089844 39.355469 C 31.089844 38.808594 31.53125 38.363281 32.082031 38.363281 Z M 32.082031 38.363281 "/>
</g>
</svg>
