
<svg xmlns="http://www.w3.org/2000/svg" xmlns:xlink="http://www.w3.org/1999/xlink" width="64px" height="64px" viewBox="0 0 64 64" version="1.1">
<g id="surface1">
<path style=" stroke:none;fill-rule:nonzero;fill:rgb(36.078432%,41.960785%,75.294119%);fill-opacity:1;" d="M 8.597656 7.9375 L 54.902344 7.9375 C 55.265625 7.9375 55.5625 8.234375 55.5625 8.597656 L 55.5625 54.902344 C 55.5625 55.265625 55.265625 55.5625 54.902344 55.5625 L 8.597656 55.5625 C 8.234375 55.5625 7.9375 55.265625 7.9375 54.902344 L 7.9375 8.597656 C 7.9375 8.234375 8.234375 7.9375 8.597656 7.9375 Z M 8.597656 7.9375 "/>
<path style=" stroke:none;fill-rule:nonzero;fill:rgb(40.000001%,73.333335%,41.568628%);fill-opacity:1;" d="M 5.210938 2.644531 L 58.292969 2.644531 C 59.707031 2.644531 60.855469 3.792969 60.855469 5.210938 L 60.855469 58.289062 C 60.855469 59.707031 59.707031 60.855469 58.292969 60.855469 L 5.210938 60.855469 C 3.792969 60.855469 2.644531 59.707031 2.644531 58.289062 L 2.644531 5.210938 C 2.644531 3.792969 3.792969 2.644531 5.210938 2.644531 Z M 5.210938 2.644531 "/>
<path style=" stroke:none;fill-rule:nonzero;fill:rgb(96.078432%,96.078432%,96.078432%);fill-opacity:1;" d="M 6.613281 5.292969 C 5.882812 5.292969 5.292969 5.882812 5.292969 6.613281 L 5.292969 50.269531 L 13.230469 50.269531 L 13.230469 58.207031 L 56.886719 58.207031 C 57.617188 58.207031 58.207031 57.617188 58.207031 56.886719 L 58.207031 6.613281 C 58.207031 5.882812 57.617188 5.292969 56.886719 5.292969 Z M 6.613281 5.292969 "/>
<path style=" stroke:none;fill-rule:nonzero;fill:rgb(40.000001%,73.333335%,41.568628%);fill-opacity:1;" d="M 10.171875 9.261719 L 53.828125 9.261719 C 54.195312 9.261719 54.488281 9.554688 54.488281 9.921875 L 54.488281 53.578125 C 54.488281 53.945312 54.195312 54.238281 53.828125 54.238281 L 10.171875 54.238281 C 9.804688 54.238281 9.511719 53.945312 9.511719 53.578125 L 9.511719 9.921875 C 9.511719 9.554688 9.804688 9.261719 10.171875 9.261719 Z M 10.171875 9.261719 "/>
<path style=" stroke:none;fill-rule:nonzero;fill:rgb(93.333334%,93.333334%,93.333334%);fill-opacity:1;" d="M 5.292969 52.917969 L 5.292969 56.886719 C 5.292969 57.617188 5.882812 58.207031 6.613281 58.207031 L 10.582031 58.207031 L 10.582031 52.917969 Z M 5.292969 52.917969 "/>
<path style=" stroke:none;fill-rule:nonzero;fill:rgb(96.078432%,96.078432%,96.078432%);fill-opacity:1;" d="M 21.261719 17.199219 L 21.261719 46.242188 L 27.714844 46.242188 L 27.714844 34.949219 L 37.398438 34.949219 C 40.078125 34.949219 42.238281 32.789062 42.238281 30.105469 L 42.238281 22.039062 C 42.238281 19.355469 40.078125 17.199219 37.398438 17.199219 Z M 27.714844 23.652344 L 34.171875 23.652344 C 35.066406 23.652344 35.785156 24.371094 35.785156 25.265625 L 35.785156 26.878906 C 35.785156 27.773438 35.066406 28.492188 34.171875 28.492188 L 27.714844 28.492188 Z M 27.714844 23.652344 "/>
</g>
</svg>
