<?xml version="1.0" encoding="UTF-8"?>
<svg xmlns="http://www.w3.org/2000/svg" xmlns:xlink="http://www.w3.org/1999/xlink" width="64px" height="64px" viewBox="0 0 64 64" version="1.1">
<g id="surface1">
<path style=" stroke:none;fill-rule:nonzero;fill:rgb(74.117649%,74.117649%,74.117649%);fill-opacity:1;" d="M 31.75 3.144531 C 25.125 3.144531 19.03125 5.335938 14.148438 9.039062 L 13.042969 7.929688 C 11.488281 6.375 8.984375 6.375 7.429688 7.929688 C 5.875 9.484375 5.875 11.988281 7.429688 13.542969 L 8.539062 14.648438 C 4.835938 19.53125 2.644531 25.625 2.644531 32.25 C 2.644531 38.875 4.835938 44.96875 8.539062 49.851562 L 7.429688 50.957031 C 5.875 52.511719 5.875 55.015625 7.429688 56.570312 C 8.984375 58.125 11.488281 58.125 13.042969 56.570312 L 14.148438 55.460938 C 19.03125 59.164062 25.125 61.355469 31.75 61.355469 C 38.375 61.355469 44.46875 59.164062 49.351562 55.460938 L 50.457031 56.570312 C 52.011719 58.125 54.515625 58.125 56.070312 56.570312 C 57.625 55.015625 57.625 52.511719 56.070312 50.957031 L 54.960938 49.851562 C 58.664062 44.96875 60.855469 38.875 60.855469 32.25 C 60.855469 25.625 58.664062 19.53125 54.960938 14.648438 L 56.070312 13.542969 C 57.625 11.988281 57.625 9.484375 56.070312 7.929688 C 54.515625 6.375 52.011719 6.375 50.457031 7.929688 L 49.351562 9.039062 C 44.46875 5.335938 38.375 3.144531 31.75 3.144531 Z M 54.199219 8.476562 C 54.539062 8.476562 54.878906 8.605469 55.136719 8.863281 C 55.65625 9.382812 55.65625 10.214844 55.136719 10.734375 C 54.617188 11.253906 53.785156 11.253906 53.265625 10.734375 C 52.746094 10.214844 52.746094 9.382812 53.265625 8.863281 C 53.523438 8.605469 53.863281 8.476562 54.199219 8.476562 Z M 10.234375 9.410156 C 10.574219 9.410156 10.910156 9.539062 11.171875 9.800781 C 11.625 10.253906 11.679688 10.957031 11.335938 11.472656 C 11.210938 11.589844 11.089844 11.710938 10.972656 11.835938 C 10.457031 12.179688 9.753906 12.125 9.300781 11.671875 C 8.78125 11.152344 8.78125 10.316406 9.300781 9.800781 C 9.558594 9.539062 9.898438 9.410156 10.234375 9.410156 Z M 10.234375 52.441406 C 10.492188 52.441406 10.75 52.515625 10.972656 52.664062 C 11.089844 52.789062 11.210938 52.910156 11.335938 53.027344 C 11.679688 53.542969 11.625 54.246094 11.171875 54.699219 C 10.652344 55.21875 9.816406 55.21875 9.300781 54.699219 C 8.78125 54.183594 8.78125 53.347656 9.300781 52.828125 C 9.558594 52.570312 9.898438 52.441406 10.234375 52.441406 Z M 54.199219 53.375 C 54.539062 53.375 54.878906 53.507812 55.136719 53.765625 C 55.65625 54.285156 55.65625 55.117188 55.136719 55.636719 C 54.617188 56.15625 53.785156 56.15625 53.265625 55.636719 C 52.746094 55.117188 52.746094 54.285156 53.265625 53.765625 C 53.523438 53.507812 53.863281 53.375 54.199219 53.375 Z M 54.199219 53.375 "/>
<path style=" stroke:none;fill-rule:nonzero;fill:rgb(25.882354%,25.882354%,25.882354%);fill-opacity:1;" d="M 31.75 5.792969 C 46.363281 5.792969 58.207031 17.636719 58.207031 32.25 C 58.207031 46.863281 46.363281 58.707031 31.75 58.707031 C 17.136719 58.707031 5.292969 46.863281 5.292969 32.25 C 5.292969 17.636719 17.136719 5.792969 31.75 5.792969 Z M 31.75 5.792969 "/>
<path style=" stroke:none;fill-rule:nonzero;fill:rgb(100%,65.490198%,14.901961%);fill-opacity:1;" d="M 31.75 8.4375 C 44.902344 8.4375 55.5625 19.097656 55.5625 32.25 C 55.5625 45.402344 44.902344 56.0625 31.75 56.0625 C 18.597656 56.0625 7.9375 45.402344 7.9375 32.25 C 7.9375 19.097656 18.597656 8.4375 31.75 8.4375 Z M 31.75 8.4375 "/>
<path style=" stroke:none;fill-rule:nonzero;fill:rgb(25.882354%,25.882354%,25.882354%);fill-opacity:1;" d="M 31.75 21.667969 C 37.59375 21.667969 42.332031 26.40625 42.332031 32.25 C 42.332031 38.09375 37.59375 42.832031 31.75 42.832031 C 25.90625 42.832031 21.167969 38.09375 21.167969 32.25 C 21.167969 26.40625 25.90625 21.667969 31.75 21.667969 Z M 31.75 21.667969 "/>
</g>
</svg>
