
<svg xmlns="http://www.w3.org/2000/svg" xmlns:xlink="http://www.w3.org/1999/xlink" width="64px" height="64px" viewBox="0 0 64 64" version="1.1">
<g id="surface1">
<path style=" stroke:none;fill-rule:nonzero;fill:rgb(93.333334%,93.333334%,93.333334%);fill-opacity:1;" d="M 5.792969 3.144531 L 57.707031 3.144531 C 59.445312 3.144531 60.855469 4.554688 60.855469 6.292969 L 60.855469 58.207031 C 60.855469 59.945312 59.445312 61.355469 57.707031 61.355469 L 5.792969 61.355469 C 4.054688 61.355469 2.644531 59.945312 2.644531 58.207031 L 2.644531 6.292969 C 2.644531 4.554688 4.054688 3.144531 5.792969 3.144531 Z M 5.792969 3.144531 "/>
<path style=" stroke:none;fill-rule:nonzero;fill:rgb(25.882354%,64.705884%,96.078432%);fill-opacity:1;" d="M 5.792969 3.144531 C 4.050781 3.144531 2.644531 4.550781 2.644531 6.292969 L 2.644531 25.589844 C 4.027344 27.160156 5.515625 28.550781 7.09375 29.765625 C 10.3125 32.25 13.726562 34.039062 17.15625 35.429688 C 15.316406 36.792969 13.488281 37.898438 11.636719 38.660156 C 8.984375 39.753906 6.175781 40.390625 2.644531 40.082031 L 2.644531 54.746094 C 8.035156 55.019531 12.949219 54.140625 17.269531 52.363281 C 21.035156 50.816406 24.289062 48.753906 27.207031 46.480469 C 27.46875 48.753906 27.511719 50.886719 27.246094 52.875 C 26.863281 55.710938 26.015625 58.457031 23.992188 61.355469 L 40.335938 61.355469 C 41.113281 59.1875 41.636719 57.007812 41.929688 54.84375 C 42.46875 50.8125 42.3125 46.964844 41.804688 43.300781 C 43.902344 44.210938 45.773438 45.238281 47.359375 46.460938 C 51.097656 49.347656 53.980469 53.203125 55.375 61.355469 L 57.707031 61.355469 C 59.449219 61.355469 60.855469 59.949219 60.855469 58.207031 L 60.855469 38.910156 C 59.472656 37.339844 57.984375 35.949219 56.40625 34.734375 C 53.1875 32.25 49.773438 30.460938 46.34375 29.070312 C 48.183594 27.707031 50.011719 26.601562 51.863281 25.839844 C 54.515625 24.746094 57.324219 24.109375 60.855469 24.417969 L 60.855469 9.753906 C 55.464844 9.480469 50.550781 10.359375 46.230469 12.136719 C 42.464844 13.683594 39.210938 15.746094 36.292969 18.019531 C 36.03125 15.746094 35.988281 13.613281 36.253906 11.625 C 36.636719 8.789062 37.484375 6.042969 39.507812 3.144531 L 23.164062 3.144531 C 22.386719 5.3125 21.863281 7.492188 21.570312 9.65625 C 21.03125 13.6875 21.1875 17.535156 21.695312 21.199219 C 19.597656 20.289062 17.726562 19.261719 16.140625 18.039062 C 12.402344 15.152344 9.519531 11.296875 8.125 3.144531 Z M 5.792969 3.144531 "/>
<path style=" stroke:none;fill-rule:nonzero;fill:rgb(11.764706%,53.333336%,89.803922%);fill-opacity:1;" d="M 31.75 13.730469 C 41.980469 13.730469 50.269531 22.019531 50.269531 32.25 C 50.269531 42.480469 41.980469 50.769531 31.75 50.769531 C 21.519531 50.769531 13.230469 42.480469 13.230469 32.25 C 13.230469 22.019531 21.519531 13.730469 31.75 13.730469 Z M 31.75 13.730469 "/>
<path style=" stroke:none;fill-rule:nonzero;fill:rgb(93.333334%,93.333334%,93.333334%);fill-opacity:1;" d="M 31.75 15.050781 C 41.25 15.050781 48.949219 22.75 48.949219 32.25 C 48.949219 41.75 41.25 49.449219 31.75 49.449219 C 22.25 49.449219 14.550781 41.75 14.550781 32.25 C 14.550781 22.75 22.25 15.050781 31.75 15.050781 Z M 31.75 15.050781 "/>
<path style=" stroke:none;fill-rule:nonzero;fill:rgb(25.882354%,64.705884%,96.078432%);fill-opacity:1;" d="M 26.457031 21.667969 C 25.75 21.691406 25.1875 22.273438 25.1875 22.980469 L 25.1875 41.503906 C 25.1875 42.542969 26.332031 43.171875 27.210938 42.613281 L 41.761719 33.355469 C 42.574219 32.835938 42.574219 31.648438 41.761719 31.132812 L 27.210938 21.871094 C 26.984375 21.730469 26.722656 21.65625 26.457031 21.667969 Z M 26.457031 21.667969 "/>
</g>
</svg>
