
<svg xmlns="http://www.w3.org/2000/svg" xmlns:xlink="http://www.w3.org/1999/xlink" width="64px" height="64px" viewBox="0 0 64 64" version="1.1">
<g id="surface1">
<path style=" stroke:none;fill-rule:nonzero;fill:rgb(25.882354%,25.882354%,25.882354%);fill-opacity:1;" d="M 31.75 2.644531 C 47.824219 2.644531 60.855469 15.675781 60.855469 31.75 C 60.855469 47.824219 47.824219 60.855469 31.75 60.855469 C 15.675781 60.855469 2.644531 47.824219 2.644531 31.75 C 2.644531 15.675781 15.675781 2.644531 31.75 2.644531 Z M 31.75 2.644531 "/>
<path style=" stroke:none;fill-rule:nonzero;fill:rgb(67.058825%,27.843139%,73.725492%);fill-opacity:1;" d="M 15.214844 37.882812 L 17.199219 40.046875 L 46.300781 40.046875 L 48.285156 37.882812 Z M 15.214844 37.882812 "/>
<path style=" stroke:none;fill-rule:nonzero;fill:rgb(36.078432%,41.960785%,75.294119%);fill-opacity:1;" d="M 18.519531 40.769531 L 20.503906 42.933594 L 42.996094 42.933594 L 44.980469 40.769531 Z M 18.519531 40.769531 "/>
<path style=" stroke:none;fill-rule:nonzero;fill:rgb(36.078432%,41.960785%,75.294119%);fill-opacity:1;" d="M 39.027344 17.679688 L 48.285156 20.566406 L 50.269531 22.730469 L 54.238281 22.730469 L 54.238281 28.503906 L 51.59375 31.390625 L 48.285156 31.390625 L 44.316406 32.832031 L 31.75 32.832031 L 31.75 17.679688 Z M 60.855469 23.8125 L 55.894531 27.421875 L 55.894531 23.8125 Z M 60.855469 23.8125 "/>
<path style=" stroke:none;fill-rule:nonzero;fill:rgb(92.54902%,25.098041%,47.843137%);fill-opacity:1;" d="M 26.128906 23.453125 L 29.40625 20.980469 L 34.09375 20.980469 L 37.371094 23.453125 L 37.371094 25.925781 L 34.09375 28.085938 L 29.40625 28.085938 L 26.128906 25.925781 Z M 26.128906 23.453125 "/>
<path style=" stroke:none;fill-rule:nonzero;fill:rgb(36.078432%,41.960785%,75.294119%);fill-opacity:1;" d="M 24.472656 17.679688 L 15.214844 20.566406 L 13.230469 22.730469 L 9.261719 22.730469 L 9.261719 28.503906 L 11.90625 31.390625 L 15.214844 31.390625 L 19.183594 32.832031 L 31.75 32.832031 L 31.75 17.679688 Z M 2.644531 23.8125 L 7.605469 27.421875 L 7.605469 23.8125 Z M 2.644531 23.8125 "/>
<path style=" stroke:none;fill-rule:nonzero;fill:rgb(47.450981%,52.549022%,79.607844%);fill-opacity:1;" d="M 25.136719 16.234375 L 38.363281 16.234375 C 39.09375 16.234375 39.6875 16.882812 39.6875 17.679688 L 39.6875 31.390625 C 39.6875 32.1875 39.09375 32.832031 38.363281 32.832031 L 25.136719 32.832031 C 24.40625 32.832031 23.8125 32.1875 23.8125 31.390625 L 23.8125 17.679688 C 23.8125 16.882812 24.40625 16.234375 25.136719 16.234375 Z M 25.136719 16.234375 "/>
<path style=" stroke:none;fill-rule:nonzero;fill:rgb(24.705882%,31.764707%,70.980394%);fill-opacity:1;" d="M 23.8125 22.007812 L 28.441406 16.234375 L 35.058594 16.234375 L 39.6875 22.007812 L 39.6875 27.78125 L 35.058594 32.832031 L 28.441406 32.832031 L 23.8125 27.78125 Z M 23.8125 22.007812 "/>
<path style=" stroke:none;fill-rule:nonzero;fill:rgb(49.411765%,34.117648%,76.078433%);fill-opacity:1;" d="M 25.464844 23.019531 L 29.132812 19.554688 L 34.367188 19.554688 L 38.035156 23.019531 L 38.035156 26.480469 L 34.367188 29.511719 L 29.132812 29.511719 L 25.464844 26.480469 Z M 25.464844 23.019531 "/>
<path style=" stroke:none;fill-rule:nonzero;fill:rgb(100%,79.215688%,15.686275%);fill-opacity:1;" d="M 26.789062 23.707031 L 29.683594 21.816406 L 33.816406 21.816406 L 36.710938 23.707031 L 36.710938 25.597656 L 33.816406 27.25 L 29.683594 27.25 L 26.789062 25.597656 Z M 26.789062 23.707031 "/>
<path style=" stroke:none;fill-rule:nonzero;fill:rgb(24.705882%,31.764707%,70.980394%);fill-opacity:1;" d="M 20.503906 24.894531 L 22.820312 22.371094 L 22.820312 27.058594 Z M 20.503906 24.894531 "/>
<path style=" stroke:none;fill-rule:nonzero;fill:rgb(24.705882%,31.764707%,70.980394%);fill-opacity:1;" d="M 42.664062 24.894531 L 40.347656 22.371094 L 40.347656 27.058594 Z M 42.664062 24.894531 "/>
<path style=" stroke:none;fill-rule:nonzero;fill:rgb(92.54902%,25.098041%,47.843137%);fill-opacity:1;" d="M 9.921875 34.996094 L 11.90625 37.160156 L 51.59375 37.160156 L 53.578125 34.996094 Z M 9.921875 34.996094 "/>
<path style=" stroke:none;fill-rule:nonzero;fill:rgb(100%,79.215688%,15.686275%);fill-opacity:1;" d="M 20.503906 34.277344 L 42.996094 34.277344 L 34.394531 43.65625 L 29.105469 43.65625 Z M 20.503906 34.277344 "/>
<path style=" stroke:none;fill-rule:nonzero;fill:rgb(100%,75.686276%,2.745098%);fill-opacity:1;" d="M 27.78125 45.097656 L 31.089844 47.984375 L 32.410156 47.984375 L 35.71875 45.097656 Z M 27.78125 45.097656 "/>
</g>
</svg>
