<?xml version="1.0" encoding="UTF-8"?>
<svg xmlns="http://www.w3.org/2000/svg" xmlns:xlink="http://www.w3.org/1999/xlink" width="64px" height="64px" viewBox="0 0 64 64" version="1.1">
<g id="surface1">
<path style=" stroke:none;fill-rule:nonzero;fill:rgb(100%,43.921569%,26.274511%);fill-opacity:1;" d="M 31.75 3.144531 C 47.824219 3.144531 60.855469 16.175781 60.855469 32.25 C 60.855469 48.324219 47.824219 61.355469 31.75 61.355469 C 15.675781 61.355469 2.644531 48.324219 2.644531 32.25 C 2.644531 16.175781 15.675781 3.144531 31.75 3.144531 Z M 31.75 3.144531 "/>
<path style=" stroke:none;fill-rule:nonzero;fill:rgb(95.686275%,31.764707%,11.764706%);fill-opacity:1;" d="M 31.75 7.113281 C 45.632812 7.113281 56.886719 18.367188 56.886719 32.25 C 56.886719 46.132812 45.632812 57.386719 31.75 57.386719 C 17.867188 57.386719 6.613281 46.132812 6.613281 32.25 C 6.613281 18.367188 17.867188 7.113281 31.75 7.113281 Z M 31.75 7.113281 "/>
<path style=" stroke:none;fill-rule:nonzero;fill:rgb(93.333334%,93.333334%,93.333334%);fill-opacity:1;" d="M 27.453125 41.675781 C 27.453125 41.675781 26.203125 42.441406 28.34375 42.703125 C 30.9375 43.015625 32.265625 42.96875 35.121094 42.398438 C 35.121094 42.398438 35.875 42.894531 36.925781 43.324219 C 30.515625 46.21875 22.421875 43.15625 27.453125 41.675781 Z M 27.453125 41.675781 "/>
<path style=" stroke:none;fill-rule:nonzero;fill:rgb(93.333334%,93.333334%,93.333334%);fill-opacity:1;" d="M 26.671875 37.902344 C 26.671875 37.902344 25.269531 38.996094 27.410156 39.226562 C 30.183594 39.53125 32.371094 39.554688 36.15625 38.785156 C 36.15625 38.785156 36.679688 39.347656 37.503906 39.652344 C 29.757812 42.039062 21.128906 39.839844 26.671875 37.902344 Z M 26.671875 37.902344 "/>
<path style=" stroke:none;fill-rule:nonzero;fill:rgb(93.333334%,93.333334%,93.333334%);fill-opacity:1;" d="M 33.269531 31.496094 C 34.851562 33.410156 32.855469 35.132812 32.855469 35.132812 C 32.855469 35.132812 36.867188 32.953125 35.023438 30.222656 C 33.304688 27.675781 31.988281 26.414062 39.125 22.050781 C 39.125 22.050781 27.917969 25 33.269531 31.496094 Z M 33.269531 31.496094 "/>
<path style=" stroke:none;fill-rule:nonzero;fill:rgb(93.333334%,93.333334%,93.333334%);fill-opacity:1;" d="M 41.746094 44.46875 C 41.746094 44.46875 42.671875 45.273438 40.726562 45.894531 C 37.027344 47.074219 25.332031 47.429688 22.085938 45.941406 C 20.917969 45.40625 23.105469 44.664062 23.796875 44.507812 C 24.515625 44.34375 24.925781 44.375 24.925781 44.375 C 23.625 43.410156 16.53125 46.265625 21.320312 47.085938 C 34.382812 49.316406 45.132812 46.082031 41.746094 44.46875 Z M 41.746094 44.46875 "/>
<path style=" stroke:none;fill-rule:nonzero;fill:rgb(93.333334%,93.333334%,93.333334%);fill-opacity:1;" d="M 28.054688 33.988281 C 28.054688 33.988281 22.109375 35.476562 25.949219 36.019531 C 27.574219 36.246094 30.804688 36.195312 33.820312 35.929688 C 36.28125 35.710938 38.75 35.246094 38.75 35.246094 C 38.75 35.246094 37.882812 35.636719 37.257812 36.089844 C 31.214844 37.765625 19.546875 36.984375 22.90625 35.273438 C 25.746094 33.824219 28.054688 33.988281 28.054688 33.988281 Z M 28.054688 33.988281 "/>
<path style=" stroke:none;fill-rule:nonzero;fill:rgb(93.333334%,93.333334%,93.333334%);fill-opacity:1;" d="M 38.726562 40.273438 C 44.867188 36.910156 42.027344 33.679688 40.046875 34.117188 C 39.5625 34.222656 39.34375 34.316406 39.34375 34.316406 C 39.34375 34.316406 39.523438 34.015625 39.871094 33.886719 C 43.789062 32.4375 46.804688 38.171875 38.605469 40.441406 C 38.605469 40.441406 38.699219 40.351562 38.726562 40.273438 Z M 38.726562 40.273438 "/>
<path style=" stroke:none;fill-rule:nonzero;fill:rgb(93.333334%,93.333334%,93.333334%);fill-opacity:1;" d="M 35.027344 15.007812 C 35.027344 15.007812 38.425781 18.589844 31.800781 24.101562 C 26.484375 28.523438 30.585938 31.046875 31.796875 33.925781 C 28.695312 30.976562 26.421875 28.382812 27.945312 25.964844 C 30.1875 22.421875 36.398438 20.699219 35.027344 15.007812 Z M 35.027344 15.007812 "/>
<path style=" stroke:none;fill-rule:nonzero;fill:rgb(93.333334%,93.333334%,93.333334%);fill-opacity:1;" d="M 28.660156 49.386719 C 34.554688 49.78125 43.605469 49.164062 43.820312 46.226562 C 43.820312 46.226562 43.40625 47.339844 38.949219 48.222656 C 33.917969 49.222656 27.710938 49.105469 24.03125 48.464844 C 24.03125 48.464844 24.785156 49.121094 28.660156 49.386719 Z M 28.660156 49.386719 "/>
</g>
</svg>
