
<svg xmlns="http://www.w3.org/2000/svg" xmlns:xlink="http://www.w3.org/1999/xlink" width="64px" height="64px" viewBox="0 0 64 64" version="1.1">
<g id="surface1">
<path style=" stroke:none;fill-rule:nonzero;fill:rgb(67.058825%,27.843139%,73.725492%);fill-opacity:1;" d="M 31.75 3.96875 C 37.5 3.96875 63.371094 48.777344 60.496094 53.757812 C 57.621094 58.738281 5.878906 58.738281 3.003906 53.757812 C 0.128906 48.777344 26 3.96875 31.75 3.96875 Z M 31.75 3.96875 "/>
<path style=" stroke:none;fill-rule:nonzero;fill:rgb(61.176473%,15.294118%,69.01961%);fill-opacity:1;" d="M 31.75 15.214844 C 35.550781 15.214844 52.660156 44.84375 50.757812 48.136719 C 48.855469 51.429688 14.644531 51.429688 12.742188 48.136719 C 10.839844 44.84375 27.949219 15.214844 31.75 15.214844 Z M 31.75 15.214844 "/>
<path style=" stroke:none;fill-rule:nonzero;fill:rgb(96.078432%,96.078432%,96.078432%);fill-opacity:1;" d="M 31.75 16.535156 C 35.324219 16.535156 51.398438 44.378906 49.613281 47.472656 C 47.824219 50.566406 15.675781 50.566406 13.886719 47.472656 C 12.101562 44.378906 28.175781 16.535156 31.75 16.535156 Z M 31.75 16.535156 "/>
<path style=" stroke:none;fill-rule:nonzero;fill:rgb(40.392157%,22.745098%,71.764708%);fill-opacity:1;" d="M 31.75 26.457031 C 33.605469 26.457031 41.945312 40.90625 41.019531 42.511719 C 40.09375 44.117188 23.40625 44.117188 22.480469 42.511719 C 21.554688 40.90625 29.894531 26.457031 31.75 26.457031 Z M 31.75 26.457031 "/>
<path style=" stroke:none;fill-rule:nonzero;fill:rgb(49.411765%,34.117648%,76.078433%);fill-opacity:1;" d="M 31.75 27.78125 C 33.375 27.78125 40.6875 40.445312 39.875 41.851562 C 39.0625 43.257812 24.4375 43.257812 23.625 41.851562 C 22.8125 40.445312 30.125 27.78125 31.75 27.78125 Z M 31.75 27.78125 "/>
</g>
</svg>
