<?xml version="1.0" encoding="UTF-8"?>
<svg xmlns="http://www.w3.org/2000/svg" xmlns:xlink="http://www.w3.org/1999/xlink" width="64px" height="64px" viewBox="0 0 64 64" version="1.1">
<g id="surface1">
<path style=" stroke:none;fill-rule:nonzero;fill:rgb(25.882354%,64.705884%,96.078432%);fill-opacity:1;" d="M 5.292969 3.144531 L 58.207031 3.144531 C 59.667969 3.144531 60.855469 4.332031 60.855469 5.792969 L 60.855469 58.707031 C 60.855469 60.167969 59.667969 61.355469 58.207031 61.355469 L 5.292969 61.355469 C 3.832031 61.355469 2.644531 60.167969 2.644531 58.707031 L 2.644531 5.792969 C 2.644531 4.332031 3.832031 3.144531 5.292969 3.144531 Z M 5.292969 3.144531 "/>
<path style=" stroke:none;fill-rule:nonzero;fill:rgb(100%,65.490198%,14.901961%);fill-opacity:1;" d="M 5.292969 3.144531 C 3.824219 3.144531 2.644531 4.324219 2.644531 5.792969 L 2.644531 43.996094 L 5.671875 46.1875 C 13.839844 51.738281 20.046875 53.894531 27.199219 53.46875 C 37.761719 52.839844 46.292969 45.328125 46.300781 35.894531 C 46.304688 28.925781 41.367188 22.59375 35.972656 22.59375 C 31.277344 22.59375 27.238281 25.246094 27.539062 28.808594 C 27.707031 30.765625 28.9375 31.296875 30.835938 30.210938 C 32.804688 29.085938 34.4375 29.125 36.214844 30.746094 C 37.46875 31.886719 37.820312 32.722656 37.820312 34.683594 C 37.820312 39.855469 33.855469 43.832031 28.121094 43.804688 C 19.84375 43.765625 13.585938 35.972656 13.625 26.523438 C 13.652344 19.042969 16.257812 13.414062 23.320312 6.425781 C 24.539062 5.21875 25.445312 4.007812 25.933594 3.144531 Z M 38.28125 10.976562 C 37.632812 10.972656 36.984375 10.996094 36.316406 11.039062 C 25.75 11.664062 17.21875 19.175781 17.214844 28.613281 C 17.210938 35.578125 22.144531 41.910156 27.539062 41.910156 C 32.234375 41.910156 36.277344 39.253906 35.972656 35.699219 C 35.804688 33.738281 34.578125 33.207031 32.675781 34.292969 C 30.707031 35.414062 29.078125 35.382812 27.296875 33.753906 C 26.046875 32.613281 25.695312 31.789062 25.695312 29.824219 C 25.695312 24.648438 29.65625 20.667969 35.394531 20.695312 C 43.671875 20.738281 49.925781 28.535156 49.886719 37.980469 C 49.859375 45.460938 47.253906 51.089844 40.195312 58.078125 C 38.976562 59.28125 38.074219 60.492188 37.582031 61.355469 L 58.207031 61.355469 C 59.675781 61.355469 60.855469 60.175781 60.855469 58.707031 L 60.855469 20.492188 L 57.84375 18.316406 C 50.691406 13.464844 45.023438 11.195312 38.929688 10.988281 C 38.714844 10.980469 38.496094 10.976562 38.28125 10.976562 Z M 38.28125 10.976562 "/>
</g>
</svg>
