<?xml version="1.0" encoding="UTF-8"?>
<svg xmlns="http://www.w3.org/2000/svg" xmlns:xlink="http://www.w3.org/1999/xlink" width="64px" height="64px" viewBox="0 0 64 64" version="1.1">
<g id="surface1">
<path style=" stroke:none;fill-rule:nonzero;fill:rgb(93.333334%,93.333334%,93.333334%);fill-opacity:1;" d="M 18.519531 61.355469 L 55.5625 61.355469 C 57.027344 61.355469 58.207031 60.175781 58.207031 58.707031 L 58.207031 5.792969 C 58.207031 4.324219 57.027344 3.144531 55.5625 3.144531 L 18.519531 3.144531 Z M 18.519531 61.355469 "/>
<path style=" stroke:none;fill-rule:nonzero;fill:rgb(100%,65.490198%,14.901961%);fill-opacity:1;" d="M 18.519531 61.355469 L 18.519531 3.144531 L 7.9375 3.144531 C 6.472656 3.144531 5.292969 4.324219 5.292969 5.792969 L 5.292969 58.707031 C 5.292969 60.175781 6.472656 61.355469 7.9375 61.355469 Z M 18.519531 61.355469 "/>
<path style=" stroke:none;fill-rule:nonzero;fill:rgb(87.843138%,87.843138%,87.843138%);fill-opacity:1;" d="M 26.957031 3.144531 L 18.769531 17.328125 L 40.359375 29.789062 L 52.820312 8.203125 L 44.0625 3.144531 Z M 55.699219 9.863281 L 43.234375 31.453125 L 58.207031 40.097656 L 58.207031 11.3125 Z M 18.519531 21.019531 L 18.519531 49.800781 L 26.234375 54.253906 L 38.695312 32.667969 Z M 41.574219 34.328125 L 29.109375 55.917969 L 38.527344 61.355469 L 54.753906 61.355469 L 58.207031 55.371094 L 58.207031 43.933594 Z M 41.574219 34.328125 "/>
<path style=" stroke:none;fill-rule:nonzero;fill:rgb(100%,65.490198%,14.901961%);fill-opacity:1;" d="M 54.253906 56.097656 C 54.253906 56.035156 54.25 55.976562 54.238281 55.917969 L 54.238281 33.730469 C 54.351562 32.867188 53.613281 32.132812 52.75 32.25 L 34.394531 32.25 C 33.664062 32.25 33.074219 32.839844 33.074219 33.574219 L 33.074219 56.082031 C 33.074219 56.816406 33.664062 57.40625 34.394531 57.40625 L 52.738281 57.40625 C 53.539062 57.523438 54.253906 56.902344 54.253906 56.097656 Z M 51.59375 36.902344 L 51.59375 52.753906 L 43.492188 44.816406 Z M 49.847656 34.894531 L 40.710938 43.910156 C 40.226562 44.417969 40.226562 45.214844 40.710938 45.726562 L 49.847656 54.761719 L 36.378906 54.761719 C 36.015625 54.761719 35.71875 54.464844 35.71875 54.097656 L 35.71875 35.558594 C 35.71875 35.191406 36.015625 34.894531 36.378906 34.894531 Z M 49.847656 34.894531 "/>
</g>
</svg>
