
<svg xmlns="http://www.w3.org/2000/svg" xmlns:xlink="http://www.w3.org/1999/xlink" width="64px" height="64px" viewBox="0 0 64 64" version="1.1">
<g id="surface1">
<path style=" stroke:none;fill-rule:nonzero;fill:rgb(87.843138%,87.843138%,87.843138%);fill-opacity:1;" d="M 10.582031 5.292969 L 52.917969 5.292969 C 55.839844 5.292969 58.207031 7.660156 58.207031 10.582031 L 58.207031 52.917969 C 58.207031 55.839844 55.839844 58.207031 52.917969 58.207031 L 10.582031 58.207031 C 7.660156 58.207031 5.292969 55.839844 5.292969 52.917969 L 5.292969 10.582031 C 5.292969 7.660156 7.660156 5.292969 10.582031 5.292969 Z M 10.582031 5.292969 "/>
<path style=" stroke:none;fill-rule:nonzero;fill:rgb(87.843138%,87.843138%,87.843138%);fill-opacity:1;" d="M 31.75 2.644531 C 47.824219 2.644531 60.855469 15.675781 60.855469 31.75 C 60.855469 47.824219 47.824219 60.855469 31.75 60.855469 C 15.675781 60.855469 2.644531 47.824219 2.644531 31.75 C 2.644531 15.675781 15.675781 2.644531 31.75 2.644531 Z M 31.75 2.644531 "/>
<path style=" stroke:none;fill-rule:nonzero;fill:rgb(25.882354%,25.882354%,25.882354%);fill-opacity:1;" d="M 31.75 5.292969 C 46.363281 5.292969 58.207031 17.136719 58.207031 31.75 C 58.207031 46.363281 46.363281 58.207031 31.75 58.207031 C 17.136719 58.207031 5.292969 46.363281 5.292969 31.75 C 5.292969 17.136719 17.136719 5.292969 31.75 5.292969 Z M 31.75 5.292969 "/>
<path style=" stroke:none;fill-rule:nonzero;fill:rgb(100%,43.921569%,26.274511%);fill-opacity:1;" d="M 31.75 7.9375 C 44.902344 7.9375 55.5625 18.597656 55.5625 31.75 C 55.5625 44.902344 44.902344 55.5625 31.75 55.5625 C 18.597656 55.5625 7.9375 44.902344 7.9375 31.75 C 7.9375 18.597656 18.597656 7.9375 31.75 7.9375 Z M 31.75 7.9375 "/>
<path style=" stroke:none;fill-rule:nonzero;fill:rgb(100%,43.921569%,26.274511%);fill-opacity:1;" d="M 31.75 8.863281 C 44.390625 8.863281 54.636719 19.109375 54.636719 31.75 C 54.636719 44.390625 44.390625 54.636719 31.75 54.636719 C 19.109375 54.636719 8.863281 44.390625 8.863281 31.75 C 8.863281 19.109375 19.109375 8.863281 31.75 8.863281 Z M 31.75 8.863281 "/>
<path style=" stroke:none;fill-rule:nonzero;fill:rgb(25.882354%,25.882354%,25.882354%);fill-opacity:1;" d="M 31.75 21.167969 C 37.59375 21.167969 42.332031 25.90625 42.332031 31.75 C 42.332031 37.59375 37.59375 42.332031 31.75 42.332031 C 25.90625 42.332031 21.167969 37.59375 21.167969 31.75 C 21.167969 25.90625 25.90625 21.167969 31.75 21.167969 Z M 31.75 21.167969 "/>
<path style=" stroke:none;fill-rule:nonzero;fill:rgb(74.117649%,74.117649%,74.117649%);fill-opacity:1;" d="M 31.75 23.8125 C 36.132812 23.8125 39.6875 27.367188 39.6875 31.75 C 39.6875 36.132812 36.132812 39.6875 31.75 39.6875 C 27.367188 39.6875 23.8125 36.132812 23.8125 31.75 C 23.8125 27.367188 27.367188 23.8125 31.75 23.8125 Z M 31.75 23.8125 "/>
<path style=" stroke:none;fill-rule:nonzero;fill:rgb(87.843138%,87.843138%,87.843138%);fill-opacity:1;" d="M 28.925781 25.796875 C 29.558594 26.164062 29.332031 27.742188 28.417969 29.324219 C 27.503906 30.90625 26.253906 31.890625 25.621094 31.523438 C 24.988281 31.160156 25.214844 29.582031 26.128906 28 C 27.039062 26.417969 28.292969 25.429688 28.925781 25.796875 Z M 28.925781 25.796875 "/>
<path style=" stroke:none;fill-rule:nonzero;fill:rgb(25.882354%,25.882354%,25.882354%);fill-opacity:1;" d="M 52.917969 9.261719 C 53.648438 9.261719 54.238281 9.851562 54.238281 10.582031 C 54.238281 11.3125 53.648438 11.90625 52.917969 11.90625 C 52.1875 11.90625 51.59375 11.3125 51.59375 10.582031 C 51.59375 9.851562 52.1875 9.261719 52.917969 9.261719 Z M 52.917969 9.261719 "/>
<path style=" stroke:none;fill-rule:nonzero;fill:rgb(25.882354%,25.882354%,25.882354%);fill-opacity:1;" d="M 52.917969 51.59375 C 53.648438 51.59375 54.238281 52.1875 54.238281 52.917969 C 54.238281 53.648438 53.648438 54.238281 52.917969 54.238281 C 52.1875 54.238281 51.59375 53.648438 51.59375 52.917969 C 51.59375 52.1875 52.1875 51.59375 52.917969 51.59375 Z M 52.917969 51.59375 "/>
<path style=" stroke:none;fill-rule:nonzero;fill:rgb(25.882354%,25.882354%,25.882354%);fill-opacity:1;" d="M 10.582031 9.261719 C 11.3125 9.261719 11.90625 9.851562 11.90625 10.582031 C 11.90625 11.3125 11.3125 11.90625 10.582031 11.90625 C 9.851562 11.90625 9.261719 11.3125 9.261719 10.582031 C 9.261719 9.851562 9.851562 9.261719 10.582031 9.261719 Z M 10.582031 9.261719 "/>
<path style=" stroke:none;fill-rule:nonzero;fill:rgb(25.882354%,25.882354%,25.882354%);fill-opacity:1;" d="M 10.582031 51.59375 C 11.3125 51.59375 11.90625 52.1875 11.90625 52.917969 C 11.90625 53.648438 11.3125 54.238281 10.582031 54.238281 C 9.851562 54.238281 9.261719 53.648438 9.261719 52.917969 C 9.261719 52.1875 9.851562 51.59375 10.582031 51.59375 Z M 10.582031 51.59375 "/>
<path style=" stroke:none;fill-rule:nonzero;fill:rgb(100%,65.490198%,14.901961%);fill-opacity:1;" d="M 59.050781 31.046875 C 59.019531 31.046875 58.988281 31.046875 58.953125 31.046875 C 58.839844 31.050781 58.722656 31.066406 58.609375 31.089844 L 41.921875 34.796875 C 41.078125 34.988281 40.476562 35.734375 40.476562 36.601562 L 40.476562 51.886719 C 39.632812 51.601562 38.6875 51.441406 37.6875 51.441406 C 34.089844 51.441406 31.195312 53.507812 31.195312 56.078125 C 31.195312 58.644531 34.089844 60.710938 37.6875 60.710938 C 41.28125 60.710938 44.175781 58.644531 44.175781 56.078125 C 44.175781 55.996094 44.171875 55.914062 44.167969 55.832031 L 44.167969 38.078125 L 57.164062 35.191406 L 57.164062 46.328125 C 56.320312 46.039062 55.375 45.878906 54.375 45.878906 C 50.777344 45.878906 47.882812 47.945312 47.882812 50.515625 C 47.882812 53.082031 50.777344 55.152344 54.375 55.152344 C 57.96875 55.152344 60.863281 53.082031 60.863281 50.515625 C 60.863281 50.433594 60.859375 50.351562 60.855469 50.269531 L 60.855469 32.890625 C 60.855469 31.882812 60.046875 31.070312 59.050781 31.046875 Z M 59.050781 31.046875 "/>
<path style=" stroke:none;fill-rule:nonzero;fill:rgb(100%,80.000001%,50.196081%);fill-opacity:1;" d="M 35.203125 53.34375 C 35.589844 53.730469 35.378906 54.570312 34.734375 55.214844 C 34.089844 55.863281 33.25 56.070312 32.863281 55.683594 C 32.476562 55.296875 32.683594 54.457031 33.332031 53.8125 C 33.976562 53.167969 34.816406 52.957031 35.203125 53.34375 Z M 35.203125 53.34375 "/>
<path style=" stroke:none;fill-rule:nonzero;fill:rgb(100%,80.000001%,50.196081%);fill-opacity:1;" d="M 52.214844 47.585938 C 52.601562 47.972656 52.394531 48.808594 51.746094 49.457031 C 51.101562 50.101562 50.265625 50.3125 49.875 49.921875 C 49.488281 49.535156 49.699219 48.699219 50.34375 48.050781 C 50.988281 47.40625 51.828125 47.199219 52.214844 47.585938 Z M 52.214844 47.585938 "/>
</g>
</svg>
