
<svg xmlns="http://www.w3.org/2000/svg" xmlns:xlink="http://www.w3.org/1999/xlink" width="64px" height="64px" viewBox="0 0 64 64" version="1.1">
<defs>
<filter id="alpha" filterUnits="objectBoundingBox" x="0%" y="0%" width="100%" height="100%">
  <feColorMatrix type="matrix" in="SourceGraphic" values="0 0 0 0 1 0 0 0 0 1 0 0 0 0 1 0 0 0 1 0"/>
</filter>
<mask id="mask0">
  <g filter="url(#alpha)">
<rect x="0" y="0" width="64" height="64" style="fill:rgb(0%,0%,0%);fill-opacity:0.986432;stroke:none;"/>
  </g>
</mask>
<clipPath id="clip1">
  <rect x="0" y="0" width="64" height="64"/>
</clipPath>
<g id="surface5" clip-path="url(#clip1)">
<path style=" stroke:none;fill-rule:nonzero;fill:rgb(98.431373%,54.901963%,0%);fill-opacity:1;" d="M 22.488281 31.75 C 22.1875 32.351562 21.992188 33.074219 21.761719 33.703125 L 41.957031 40.632812 C 42.097656 39.878906 42.226562 39.121094 42.332031 38.363281 Z M 22.488281 31.75 "/>
</g>
</defs>
<g id="surface1">
<path style=" stroke:none;fill-rule:nonzero;fill:rgb(100%,65.490198%,14.901961%);fill-opacity:1;" d="M 21.960938 33.140625 L 42.332031 38.363281 C 41.011719 47.625 37.042969 56.886719 31.75 60.855469 C 31.75 60.855469 14.550781 60.855469 5.292969 43.65625 C 10.582031 42.332031 20.308594 38.429688 21.960938 33.140625 Z M 21.960938 33.140625 "/>
<use xlink:href="#surface5" mask="url(#mask0)"/>
<path style=" stroke:none;fill-rule:nonzero;fill:rgb(25.882354%,25.882354%,25.882354%);fill-opacity:1;" d="M 41.066406 2.667969 C 39.652344 2.289062 38.203125 3.128906 37.824219 4.539062 L 30.292969 32.652344 C 29.914062 34.0625 30.75 35.515625 32.164062 35.894531 C 33.574219 36.269531 35.023438 35.433594 35.402344 34.023438 L 42.9375 5.910156 C 43.3125 4.5 42.476562 3.046875 41.066406 2.667969 Z M 41.066406 2.667969 "/>
<path style=" stroke:none;fill-rule:nonzero;fill:rgb(38.039216%,38.039216%,38.039216%);fill-opacity:1;" d="M 34.902344 25.671875 C 40.566406 27.1875 43.902344 32.96875 42.386719 38.632812 L 21.941406 33.152344 C 23.457031 27.492188 29.238281 24.152344 34.902344 25.671875 Z M 34.902344 25.671875 "/>
<path style=" stroke:none;fill-rule:nonzero;fill:rgb(96.078432%,48.627451%,0%);fill-opacity:1;" d="M 19.433594 41.3125 C 16.015625 44.730469 11.414062 46.679688 7.773438 47.628906 C 8.40625 48.507812 9.066406 49.328125 9.738281 50.097656 C 13.785156 47.921875 16.964844 46.25 19.433594 41.3125 Z M 27.371094 42.636719 C 23.859375 47.320312 18.042969 52.382812 13.84375 54.015625 C 14.945312 54.890625 16.058594 55.652344 17.160156 56.316406 C 20.691406 54.3125 25.019531 48.515625 27.371094 42.636719 Z M 32.664062 49.25 C 30.308594 53.964844 25.945312 57.375 22.949219 59.0625 C 24.226562 59.519531 25.421875 59.859375 26.5 60.113281 C 30.304688 56.542969 32.664062 51.765625 32.664062 49.25 Z M 32.664062 49.25 "/>
</g>
</svg>
