<?xml version="1.0" encoding="UTF-8"?>
<svg xmlns="http://www.w3.org/2000/svg" xmlns:xlink="http://www.w3.org/1999/xlink" width="64px" height="64px" viewBox="0 0 64 64" version="1.1">
<g id="surface1">
<path style=" stroke:none;fill-rule:nonzero;fill:rgb(93.725491%,32.549021%,31.37255%);fill-opacity:1;" d="M 31.75 3.144531 C 17.09375 3.144531 5.292969 16.125 5.292969 32.25 C 5.292969 48.375 17.09375 61.355469 31.75 61.355469 L 31.75 53.417969 C 24.421875 53.417969 18.519531 43.976562 18.519531 32.25 C 18.519531 20.523438 24.421875 11.082031 31.75 11.082031 Z M 31.75 3.144531 "/>
<path style=" stroke:none;fill-rule:nonzero;fill:rgb(87.843138%,87.843138%,87.843138%);fill-opacity:1;" d="M 31.75 3.144531 L 31.75 11.082031 C 39.078125 11.082031 44.980469 20.523438 44.980469 32.25 C 44.980469 43.976562 39.078125 53.417969 31.75 53.417969 L 31.75 61.355469 C 46.40625 61.355469 58.207031 48.375 58.207031 32.25 C 58.207031 16.125 46.40625 3.144531 31.75 3.144531 Z M 31.75 3.144531 "/>
<path style=" stroke:none;fill-rule:nonzero;fill:rgb(89.803922%,22.352941%,20.784314%);fill-opacity:1;" d="M 31.75 9.761719 C 22.957031 9.761719 15.875 19.789062 15.875 32.25 C 15.875 44.710938 22.957031 54.738281 31.75 54.738281 L 31.75 53.417969 C 24.421875 53.417969 18.519531 43.976562 18.519531 32.25 C 18.519531 20.523438 24.421875 11.082031 31.75 11.082031 Z M 31.75 9.761719 "/>
<path style=" stroke:none;fill-rule:nonzero;fill:rgb(74.117649%,74.117649%,74.117649%);fill-opacity:1;" d="M 31.75 9.761719 L 31.75 11.082031 C 39.078125 11.082031 44.980469 20.523438 44.980469 32.25 C 44.980469 43.976562 39.078125 53.417969 31.75 53.417969 L 31.75 54.738281 C 40.542969 54.738281 47.625 44.710938 47.625 32.25 C 47.625 19.789062 40.542969 9.761719 31.75 9.761719 Z M 31.75 9.761719 "/>
</g>
</svg>
