<?xml version="1.0" encoding="UTF-8"?>
<svg xmlns="http://www.w3.org/2000/svg" xmlns:xlink="http://www.w3.org/1999/xlink" width="64px" height="64px" viewBox="0 0 64 64" version="1.1">
<g id="surface1">
<path style=" stroke:none;fill-rule:nonzero;fill:rgb(11.764706%,53.333336%,89.803922%);fill-opacity:1;" d="M 31.789062 3.144531 C 31.078125 3.144531 30.453125 3.625 30.257812 4.304688 L 24.515625 24.984375 L 3.839844 30.730469 C 2.292969 31.160156 2.292969 33.351562 3.839844 33.78125 L 24.515625 39.527344 L 30.257812 60.207031 C 30.691406 61.75 32.886719 61.75 33.316406 60.207031 L 39.058594 39.527344 L 59.734375 33.78125 C 60.421875 33.59375 60.898438 32.96875 60.894531 32.253906 C 60.894531 31.542969 60.421875 30.917969 59.734375 30.730469 L 39.058594 24.984375 L 33.316406 4.304688 C 33.125 3.621094 32.5 3.144531 31.789062 3.144531 Z M 31.789062 3.144531 "/>
<path style=" stroke:none;fill-rule:nonzero;fill:rgb(25.882354%,64.705884%,96.078432%);fill-opacity:1;" d="M 15.550781 14.449219 C 14.34375 14.464844 13.585938 15.777344 14.195312 16.835938 L 18.617188 24.464844 C 17.269531 26.742188 16.5 29.40625 16.5 32.253906 C 16.5 35.105469 17.269531 37.769531 18.617188 40.046875 L 14.195312 47.683594 C 13.839844 48.300781 13.945312 49.085938 14.449219 49.597656 C 14.960938 50.101562 15.746094 50.207031 16.363281 49.847656 L 23.996094 45.429688 C 26.277344 46.773438 28.941406 47.546875 31.789062 47.546875 C 34.636719 47.546875 37.300781 46.773438 39.582031 45.429688 L 47.210938 49.847656 C 47.835938 50.207031 48.621094 50.101562 49.128906 49.597656 C 49.636719 49.085938 49.738281 48.300781 49.378906 47.683594 L 44.957031 40.046875 C 46.308594 37.769531 47.082031 35.105469 47.082031 32.253906 C 47.082031 29.40625 46.308594 26.742188 44.957031 24.464844 L 49.378906 16.835938 C 49.992188 15.773438 49.226562 14.445312 47.996094 14.453125 C 47.722656 14.453125 47.449219 14.527344 47.210938 14.667969 L 39.582031 19.082031 C 37.300781 17.738281 34.636719 16.964844 31.789062 16.964844 C 28.941406 16.964844 26.277344 17.738281 23.996094 19.082031 L 16.363281 14.667969 C 16.132812 14.53125 15.875 14.460938 15.609375 14.453125 C 15.59375 14.449219 15.570312 14.449219 15.550781 14.449219 Z M 15.550781 14.449219 "/>
<path style=" stroke:none;fill-rule:nonzero;fill:rgb(93.333334%,93.333334%,93.333334%);fill-opacity:1;" d="M 31.789062 21.667969 C 37.632812 21.667969 42.375 26.410156 42.375 32.253906 C 42.375 38.105469 37.632812 42.84375 31.789062 42.84375 C 25.941406 42.84375 21.199219 38.105469 21.199219 32.253906 C 21.199219 26.410156 25.941406 21.667969 31.789062 21.667969 Z M 31.789062 21.667969 "/>
<path style=" stroke:none;fill-rule:nonzero;fill:rgb(25.882354%,25.882354%,25.882354%);fill-opacity:1;" d="M 31.789062 26.136719 C 35.167969 26.136719 37.90625 28.878906 37.90625 32.253906 C 37.90625 35.632812 35.167969 38.371094 31.789062 38.371094 C 28.414062 38.371094 25.671875 35.632812 25.671875 32.253906 C 25.671875 28.878906 28.414062 26.136719 31.789062 26.136719 Z M 31.789062 26.136719 "/>
</g>
</svg>
