<?xml version="1.0" encoding="UTF-8"?>
<svg xmlns="http://www.w3.org/2000/svg" xmlns:xlink="http://www.w3.org/1999/xlink" width="64px" height="64px" viewBox="0 0 64 64" version="1.1">
<g id="surface1">
<path style=" stroke:none;fill-rule:nonzero;fill:rgb(87.843138%,87.843138%,87.843138%);fill-opacity:1;" d="M 33.90625 3.976562 L 60.023438 30.09375 C 61.210938 31.285156 61.210938 33.214844 60.023438 34.40625 L 33.90625 60.523438 C 32.714844 61.710938 30.785156 61.710938 29.59375 60.523438 L 3.476562 34.40625 C 2.289062 33.214844 2.289062 31.285156 3.476562 30.09375 L 29.59375 3.976562 C 30.785156 2.789062 32.714844 2.789062 33.90625 3.976562 Z M 33.90625 3.976562 "/>
<path style=" stroke:none;fill-rule:nonzero;fill:rgb(36.078432%,41.960785%,75.294119%);fill-opacity:1;" d="M 24.15625 47.4375 L 25.242188 46.355469 C 25.839844 45.753906 26.816406 45.753906 27.414062 46.355469 L 33.921875 52.863281 C 34.519531 53.460938 34.519531 54.429688 33.921875 55.03125 L 32.835938 56.113281 C 32.234375 56.710938 31.265625 56.710938 30.664062 56.113281 L 24.15625 49.605469 C 23.558594 49.007812 23.558594 48.035156 24.15625 47.4375 Z M 24.15625 47.4375 "/>
<path style=" stroke:none;fill-rule:nonzero;fill:rgb(36.078432%,41.960785%,75.294119%);fill-opacity:1;" d="M 43.679688 27.910156 L 46.9375 24.660156 C 47.535156 24.058594 48.503906 24.058594 49.105469 24.660156 L 55.617188 31.167969 C 56.214844 31.765625 56.214844 32.734375 55.617188 33.335938 L 52.359375 36.589844 C 51.761719 37.1875 50.789062 37.1875 50.191406 36.589844 L 43.679688 30.082031 C 43.082031 29.484375 43.082031 28.511719 43.679688 27.910156 Z M 43.679688 27.910156 "/>
<path style=" stroke:none;fill-rule:nonzero;fill:rgb(58.431375%,45.882353%,80.392158%);fill-opacity:1;" d="M 24.15625 36.589844 C 23.558594 37.191406 23.558594 38.15625 24.15625 38.757812 L 25.242188 39.847656 C 25.839844 40.445312 26.808594 40.445312 27.414062 39.847656 L 35.003906 32.25 L 37.171875 34.421875 L 29.582031 42.015625 C 28.980469 42.613281 28.980469 43.582031 29.582031 44.183594 L 36.089844 50.691406 C 36.6875 51.292969 37.65625 51.292969 38.261719 50.691406 L 48.019531 40.929688 C 48.621094 40.328125 48.621094 39.363281 48.019531 38.757812 L 46.9375 37.675781 C 46.335938 37.074219 45.367188 37.074219 44.769531 37.675781 L 37.171875 45.265625 L 35.003906 43.097656 L 41.511719 36.589844 L 42.597656 35.507812 C 43.027344 35.074219 43.152344 34.453125 42.960938 33.914062 C 42.949219 33.867188 42.925781 33.824219 42.90625 33.777344 C 42.828125 33.617188 42.730469 33.46875 42.597656 33.335938 L 36.089844 26.828125 C 35.488281 26.226562 34.519531 26.226562 33.921875 26.828125 L 32.835938 27.910156 Z M 24.15625 36.589844 "/>
<path style=" stroke:none;fill-rule:nonzero;fill:rgb(25.882354%,64.705884%,96.078432%);fill-opacity:1;" d="M 7.886719 31.167969 C 7.285156 31.765625 7.285156 32.734375 7.886719 33.335938 L 8.96875 34.421875 C 9.574219 35.023438 10.542969 35.023438 11.140625 34.421875 L 18.734375 26.828125 L 20.90625 29 L 14.394531 35.507812 L 13.308594 36.589844 C 12.710938 37.191406 12.710938 38.15625 13.308594 38.757812 L 19.816406 45.265625 C 20.417969 45.871094 21.390625 45.871094 21.988281 45.265625 L 23.074219 44.183594 C 23.671875 43.582031 23.671875 42.613281 23.074219 42.015625 L 18.734375 37.675781 L 26.324219 30.082031 C 26.929688 29.480469 26.929688 28.515625 26.324219 27.910156 L 19.816406 21.402344 C 19.21875 20.800781 18.25 20.800781 17.648438 21.402344 Z M 7.886719 31.167969 "/>
<path style=" stroke:none;fill-rule:nonzero;fill:rgb(14.901961%,77.64706%,85.490197%);fill-opacity:1;" d="M 20.90625 18.152344 C 20.300781 18.75 20.300781 19.71875 20.90625 20.320312 L 27.414062 26.828125 C 27.542969 26.960938 27.695312 27.058594 27.851562 27.136719 C 27.898438 27.15625 27.941406 27.171875 27.988281 27.191406 C 28.410156 27.339844 28.882812 27.296875 29.273438 27.066406 C 29.296875 27.050781 29.320312 27.039062 29.34375 27.027344 C 29.421875 26.972656 29.503906 26.902344 29.582031 26.832031 L 30.664062 25.746094 L 37.171875 19.234375 L 39.34375 21.40625 L 38.261719 22.492188 C 37.65625 23.089844 37.65625 24.058594 38.261719 24.660156 L 39.34375 25.746094 C 39.945312 26.347656 40.914062 26.347656 41.511719 25.746094 L 43.679688 23.574219 L 44.769531 22.492188 C 45.367188 21.890625 45.367188 20.921875 44.769531 20.324219 L 38.261719 13.816406 C 37.65625 13.210938 36.6875 13.210938 36.089844 13.816406 L 35.003906 14.898438 L 28.496094 21.40625 L 26.324219 19.234375 L 33.921875 11.644531 C 34.519531 11.042969 34.519531 10.074219 33.921875 9.476562 L 32.835938 8.390625 C 32.238281 7.785156 31.265625 7.785156 30.664062 8.390625 L 21.988281 17.066406 Z M 20.90625 18.152344 "/>
</g>
</svg>
