<?xml version="1.0" encoding="UTF-8"?>
<svg xmlns="http://www.w3.org/2000/svg" xmlns:xlink="http://www.w3.org/1999/xlink" width="64px" height="64px" viewBox="0 0 64 64" version="1.1">
<g id="surface1">
<path style=" stroke:none;fill-rule:nonzero;fill:rgb(25.882354%,25.882354%,25.882354%);fill-opacity:1;" d="M 2.644531 32.25 L 2.644531 58.707031 C 2.644531 60.175781 3.824219 61.355469 5.292969 61.355469 L 58.207031 61.355469 C 59.675781 61.355469 60.855469 60.175781 60.855469 58.707031 L 60.855469 32.25 Z M 2.644531 32.25 "/>
<path style=" stroke:none;fill-rule:nonzero;fill:rgb(12.941177%,12.941177%,12.941177%);fill-opacity:1;" d="M 2.644531 24.3125 L 60.855469 24.3125 L 60.855469 32.25 L 2.644531 32.25 Z M 2.644531 24.3125 "/>
<path style=" stroke:none;fill-rule:nonzero;fill:rgb(25.882354%,25.882354%,25.882354%);fill-opacity:1;" d="M 2.644531 24.3125 L 60.855469 24.3125 L 60.855469 32.25 L 2.644531 32.25 Z M 2.644531 24.3125 "/>
<path style=" stroke:none;fill-rule:nonzero;fill:rgb(93.725491%,32.549021%,31.37255%);fill-opacity:1;" d="M 19.433594 24.3125 L 14.851562 32.25 L 22.488281 32.25 L 27.074219 24.3125 Z M 19.433594 24.3125 "/>
<path style=" stroke:none;fill-rule:nonzero;fill:rgb(40.000001%,73.333335%,41.568628%);fill-opacity:1;" d="M 36.632812 24.3125 L 32.050781 32.25 L 39.6875 32.25 L 44.269531 24.3125 Z M 36.632812 24.3125 "/>
<path style=" stroke:none;fill-rule:nonzero;fill:rgb(36.078432%,41.960785%,75.294119%);fill-opacity:1;" d="M 55.535156 24.3125 L 50.953125 32.25 L 58.589844 32.25 L 60.855469 28.328125 L 60.855469 24.3125 Z M 55.535156 24.3125 "/>
<path style=" stroke:none;fill-rule:nonzero;fill:rgb(25.882354%,25.882354%,25.882354%);fill-opacity:1;" d="M 55.878906 2.757812 C 57.292969 2.378906 58.738281 3.214844 59.117188 4.628906 L 60.488281 9.742188 L 4.261719 24.804688 L 2.894531 19.695312 C 2.511719 18.277344 3.347656 16.832031 4.765625 16.453125 Z M 55.878906 2.757812 "/>
<path style=" stroke:none;fill-rule:nonzero;fill:rgb(93.725491%,32.549021%,31.37255%);fill-opacity:1;" d="M 12.515625 14.375 L 18.996094 20.859375 L 26.375 18.878906 L 19.894531 12.398438 Z M 12.515625 14.375 "/>
<path style=" stroke:none;fill-rule:nonzero;fill:rgb(40.000001%,73.333335%,41.568628%);fill-opacity:1;" d="M 30.539062 9.546875 L 37.019531 16.027344 L 44.394531 14.050781 L 37.914062 7.570312 Z M 30.539062 9.546875 "/>
<path style=" stroke:none;fill-rule:nonzero;fill:rgb(36.078432%,41.960785%,75.294119%);fill-opacity:1;" d="M 48.867188 4.636719 L 55.347656 11.117188 L 60.488281 9.742188 L 59.449219 5.859375 L 56.269531 2.683594 C 56.140625 2.699219 56.007812 2.722656 55.878906 2.757812 Z M 48.867188 4.636719 "/>
<path style=" stroke:none;fill-rule:nonzero;fill:rgb(38.039216%,38.039216%,38.039216%);fill-opacity:1;" d="M 7.277344 16.375 C 4.710938 16.375 2.644531 18.441406 2.644531 21.003906 L 2.644531 31.589844 C 2.644531 31.8125 2.660156 32.035156 2.691406 32.25 L 11.859375 32.25 C 11.890625 32.035156 11.90625 31.8125 11.90625 31.589844 L 11.90625 21.003906 C 11.90625 18.441406 9.839844 16.375 7.277344 16.375 Z M 7.277344 16.375 "/>
<path style=" stroke:none;fill-rule:nonzero;fill:rgb(93.333334%,93.333334%,93.333334%);fill-opacity:1;" d="M 7.277344 18.359375 C 8.371094 18.359375 9.261719 19.246094 9.261719 20.34375 C 9.261719 21.441406 8.371094 22.328125 7.277344 22.328125 C 6.179688 22.328125 5.292969 21.441406 5.292969 20.34375 C 5.292969 19.246094 6.179688 18.359375 7.277344 18.359375 Z M 7.277344 18.359375 "/>
<path style=" stroke:none;fill-rule:nonzero;fill:rgb(93.333334%,93.333334%,93.333334%);fill-opacity:1;" d="M 7.277344 26.296875 C 8.371094 26.296875 9.261719 27.183594 9.261719 28.28125 C 9.261719 29.378906 8.371094 30.265625 7.277344 30.265625 C 6.179688 30.265625 5.292969 29.378906 5.292969 28.28125 C 5.292969 27.183594 6.179688 26.296875 7.277344 26.296875 Z M 7.277344 26.296875 "/>
<path style=" stroke:none;fill-rule:nonzero;fill:rgb(12.941177%,12.941177%,12.941177%);fill-opacity:1;" d="M 2.644531 32.25 L 60.855469 32.25 L 60.855469 32.910156 L 2.644531 32.910156 Z M 2.644531 32.25 "/>
</g>
</svg>
