
<svg xmlns="http://www.w3.org/2000/svg" xmlns:xlink="http://www.w3.org/1999/xlink" width="64px" height="64px" viewBox="0 0 64 64" version="1.1">
<g id="surface1">
<path style=" stroke:none;fill-rule:nonzero;fill:rgb(100%,43.921569%,26.274511%);fill-opacity:1;" d="M 31.75 2.644531 C 47.824219 2.644531 60.855469 15.675781 60.855469 31.75 C 60.855469 47.824219 47.824219 60.855469 31.75 60.855469 C 15.675781 60.855469 2.644531 47.824219 2.644531 31.75 C 2.644531 15.675781 15.675781 2.644531 31.75 2.644531 Z M 31.75 2.644531 "/>
<path style=" stroke:none;fill-rule:nonzero;fill:rgb(93.333334%,93.333334%,93.333334%);fill-opacity:1;" d="M 14.972656 7.9375 C 13.828125 8.742188 12.75 9.625 11.738281 10.582031 L 51.761719 10.582031 C 50.75 9.625 49.671875 8.742188 48.527344 7.9375 Z M 31.75 15.875 C 28.488281 15.875 25.464844 16.847656 22.949219 18.519531 L 5.800781 18.519531 C 5.363281 19.378906 4.96875 20.261719 4.617188 21.167969 L 19.898438 21.167969 C 17.949219 23.351562 16.597656 26.078125 16.09375 29.105469 L 2.761719 29.105469 C 2.6875 29.976562 2.644531 30.859375 2.644531 31.75 C 2.644531 32.640625 2.6875 33.523438 2.761719 34.394531 L 16.09375 34.394531 C 16.597656 37.421875 17.949219 40.148438 19.898438 42.332031 L 4.617188 42.332031 C 5.742188 45.234375 7.320312 47.910156 9.265625 50.269531 L 31.75 50.269531 L 31.75 47.625 C 40.542969 47.625 47.625 40.542969 47.625 31.75 C 47.625 22.957031 40.542969 15.875 31.75 15.875 Z M 31.75 15.875 "/>
<path style=" stroke:none;fill-rule:nonzero;fill:rgb(93.333334%,93.333334%,93.333334%);fill-opacity:1;" d="M 31.75 15.875 C 40.515625 15.875 47.625 22.984375 47.625 31.75 C 47.625 40.515625 40.515625 47.625 31.75 47.625 C 22.984375 47.625 15.875 40.515625 15.875 31.75 C 15.875 22.984375 22.984375 15.875 31.75 15.875 Z M 31.75 15.875 "/>
<path style=" stroke:none;fill-rule:nonzero;fill:rgb(16.078432%,71.372551%,96.470588%);fill-opacity:1;" d="M 47.625 7.328125 L 47.625 31.75 C 47.625 31.816406 47.625 31.886719 47.625 31.953125 C 47.621094 32.019531 47.621094 32.085938 47.621094 32.152344 C 47.617188 32.199219 47.617188 32.242188 47.617188 32.289062 C 47.613281 32.3125 47.613281 32.332031 47.613281 32.355469 C 47.613281 32.40625 47.609375 32.453125 47.605469 32.503906 C 47.605469 32.519531 47.605469 32.535156 47.605469 32.554688 C 47.601562 32.609375 47.597656 32.664062 47.597656 32.71875 C 47.59375 32.730469 47.59375 32.742188 47.59375 32.75 C 47.589844 32.808594 47.585938 32.863281 47.582031 32.921875 C 47.582031 32.929688 47.582031 32.941406 47.582031 32.949219 C 47.578125 33.003906 47.570312 33.0625 47.566406 33.117188 C 47.566406 33.125 47.566406 33.136719 47.566406 33.148438 C 47.558594 33.207031 47.554688 33.265625 47.546875 33.328125 C 47.546875 33.332031 47.546875 33.335938 47.546875 33.339844 L 59.113281 21.773438 C 56.941406 15.792969 52.871094 10.734375 47.625 7.328125 Z M 59.984375 24.640625 L 46.136719 38.492188 C 46.101562 38.566406 46.066406 38.640625 46.027344 38.714844 C 46.023438 38.730469 46.015625 38.742188 46.011719 38.753906 C 45.972656 38.832031 45.933594 38.90625 45.898438 38.980469 C 45.859375 39.058594 45.820312 39.132812 45.777344 39.207031 C 45.773438 39.21875 45.765625 39.234375 45.757812 39.246094 C 45.722656 39.3125 45.683594 39.382812 45.648438 39.449219 C 45.644531 39.457031 45.640625 39.460938 45.636719 39.46875 C 45.597656 39.542969 45.554688 39.617188 45.511719 39.691406 C 45.507812 39.699219 45.5 39.710938 45.496094 39.71875 C 45.457031 39.785156 45.417969 39.851562 45.378906 39.917969 C 45.375 39.925781 45.367188 39.9375 45.363281 39.945312 C 45.273438 40.09375 45.183594 40.238281 45.089844 40.382812 C 45.085938 40.390625 45.078125 40.398438 45.070312 40.410156 C 45.027344 40.480469 44.980469 40.550781 44.933594 40.621094 C 44.933594 40.621094 44.933594 40.621094 44.929688 40.621094 C 44.882812 40.695312 44.835938 40.765625 44.785156 40.835938 C 44.777344 40.84375 44.773438 40.851562 44.769531 40.859375 C 44.722656 40.925781 44.675781 40.988281 44.632812 41.054688 C 44.625 41.058594 44.621094 41.066406 44.617188 41.070312 C 44.566406 41.144531 44.515625 41.214844 44.460938 41.285156 C 44.410156 41.351562 44.359375 41.417969 44.308594 41.484375 C 44.300781 41.492188 44.296875 41.5 44.289062 41.507812 C 44.183594 41.644531 44.074219 41.78125 43.964844 41.914062 C 43.960938 41.917969 43.953125 41.921875 43.949219 41.929688 C 43.894531 41.996094 43.839844 42.0625 43.785156 42.125 C 43.726562 42.195312 43.667969 42.261719 43.609375 42.328125 C 43.605469 42.328125 43.605469 42.328125 43.605469 42.328125 C 43.605469 42.332031 43.601562 42.332031 43.601562 42.335938 C 43.542969 42.398438 43.484375 42.460938 43.425781 42.523438 C 43.425781 42.527344 43.425781 42.527344 43.421875 42.527344 C 43.421875 42.53125 43.421875 42.53125 43.421875 42.53125 C 43.300781 42.660156 43.179688 42.789062 43.058594 42.914062 C 43.054688 42.917969 43.046875 42.921875 43.042969 42.925781 C 42.921875 43.050781 42.792969 43.175781 42.664062 43.296875 C 42.46875 43.484375 42.265625 43.664062 42.0625 43.839844 C 41.925781 43.957031 41.785156 44.070312 41.644531 44.183594 C 41.503906 44.292969 41.359375 44.40625 41.214844 44.511719 C 41.144531 44.566406 41.070312 44.617188 40.996094 44.671875 C 40.851562 44.777344 40.699219 44.878906 40.550781 44.980469 L 57.699219 44.980469 C 59.71875 41.015625 60.855469 36.519531 60.855469 31.75 C 60.855469 29.296875 60.554688 26.914062 59.984375 24.640625 Z M 18.519531 40.550781 L 18.519531 57.699219 C 22.484375 59.71875 26.980469 60.855469 31.75 60.855469 C 34.203125 60.855469 36.585938 60.554688 38.859375 59.984375 L 25.007812 46.136719 C 24.933594 46.101562 24.859375 46.066406 24.785156 46.027344 C 24.769531 46.023438 24.757812 46.015625 24.746094 46.011719 C 24.667969 45.972656 24.59375 45.933594 24.519531 45.898438 C 24.441406 45.859375 24.367188 45.820312 24.292969 45.777344 C 24.28125 45.773438 24.265625 45.765625 24.253906 45.757812 C 24.1875 45.722656 24.117188 45.683594 24.050781 45.648438 C 24.042969 45.644531 24.039062 45.640625 24.03125 45.636719 C 23.957031 45.597656 23.882812 45.554688 23.808594 45.511719 C 23.800781 45.507812 23.789062 45.5 23.78125 45.496094 C 23.714844 45.457031 23.648438 45.417969 23.582031 45.378906 C 23.574219 45.375 23.5625 45.367188 23.554688 45.363281 C 23.40625 45.273438 23.261719 45.183594 23.117188 45.089844 C 23.109375 45.085938 23.101562 45.078125 23.089844 45.070312 C 23.019531 45.027344 22.949219 44.980469 22.878906 44.933594 C 22.878906 44.933594 22.878906 44.933594 22.878906 44.929688 C 22.804688 44.882812 22.734375 44.835938 22.664062 44.785156 C 22.65625 44.777344 22.648438 44.773438 22.640625 44.769531 C 22.574219 44.722656 22.511719 44.675781 22.445312 44.632812 C 22.441406 44.625 22.433594 44.621094 22.429688 44.617188 C 22.355469 44.566406 22.285156 44.515625 22.214844 44.460938 C 22.148438 44.410156 22.082031 44.359375 22.015625 44.308594 C 22.007812 44.300781 22 44.296875 21.992188 44.289062 C 21.855469 44.183594 21.71875 44.074219 21.585938 43.964844 C 21.582031 43.960938 21.578125 43.953125 21.570312 43.949219 C 21.503906 43.894531 21.4375 43.839844 21.375 43.785156 C 21.304688 43.726562 21.238281 43.667969 21.171875 43.609375 C 21.171875 43.605469 21.167969 43.601562 21.164062 43.601562 C 21.101562 43.542969 21.039062 43.484375 20.976562 43.425781 C 20.972656 43.425781 20.96875 43.421875 20.96875 43.421875 C 20.839844 43.300781 20.710938 43.179688 20.585938 43.058594 C 20.582031 43.054688 20.578125 43.046875 20.574219 43.042969 C 20.449219 42.921875 20.324219 42.792969 20.203125 42.664062 C 20.015625 42.46875 19.835938 42.265625 19.660156 42.0625 C 19.542969 41.925781 19.429688 41.785156 19.316406 41.644531 C 19.207031 41.503906 19.09375 41.359375 18.988281 41.214844 C 18.933594 41.144531 18.882812 41.070312 18.828125 40.996094 C 18.722656 40.851562 18.621094 40.699219 18.519531 40.550781 Z M 30.160156 47.546875 L 41.726562 59.113281 C 47.707031 56.941406 52.765625 52.871094 56.171875 47.625 L 30.425781 47.625 L 30.425781 47.570312 C 30.339844 47.5625 30.253906 47.554688 30.167969 47.546875 C 30.164062 47.546875 30.164062 47.546875 30.160156 47.546875 Z M 30.160156 47.546875 "/>
<path style=" stroke:none;fill-rule:nonzero;fill:rgb(93.333334%,93.333334%,93.333334%);fill-opacity:1;" d="M 44.980469 5.800781 L 44.980469 31.75 L 47.625 31.75 L 47.625 7.328125 C 46.773438 6.773438 45.890625 6.261719 44.980469 5.800781 Z M 59.113281 21.773438 L 40.167969 40.71875 L 42.039062 42.585938 L 59.984375 24.640625 C 59.742188 23.664062 59.449219 22.707031 59.113281 21.773438 Z M 15.875 29.105469 L 15.875 56.171875 C 16.726562 56.726562 17.609375 57.238281 18.519531 57.699219 L 18.519531 29.105469 Z M 21.460938 38.847656 L 19.589844 40.71875 L 38.859375 59.984375 C 39.835938 59.742188 40.792969 59.449219 41.726562 59.113281 Z M 30.425781 44.980469 L 30.425781 47.625 L 56.171875 47.625 C 56.726562 46.773438 57.238281 45.890625 57.699219 44.980469 Z M 30.425781 44.980469 "/>
<path style=" stroke:none;fill-rule:nonzero;fill:rgb(87.843138%,87.843138%,87.843138%);fill-opacity:1;" d="M 31.75 18.519531 C 39.054688 18.519531 44.980469 24.445312 44.980469 31.75 C 44.980469 39.054688 39.054688 44.980469 31.75 44.980469 C 24.445312 44.980469 18.519531 39.054688 18.519531 31.75 C 18.519531 24.445312 24.445312 18.519531 31.75 18.519531 Z M 31.75 18.519531 "/>
</g>
</svg>
