<?xml version="1.0" encoding="UTF-8"?>
<svg xmlns="http://www.w3.org/2000/svg" xmlns:xlink="http://www.w3.org/1999/xlink" width="64px" height="64px" viewBox="0 0 64 64" version="1.1">
<g id="surface1">
<path style=" stroke:none;fill-rule:nonzero;fill:rgb(100%,65.490198%,14.901961%);fill-opacity:1;" d="M 31.75 3.144531 C 47.824219 3.144531 60.855469 16.175781 60.855469 32.25 C 60.855469 48.324219 47.824219 61.355469 31.75 61.355469 C 15.675781 61.355469 2.644531 48.324219 2.644531 32.25 C 2.644531 16.175781 15.675781 3.144531 31.75 3.144531 Z M 31.75 3.144531 "/>
<path style=" stroke:none;fill-rule:nonzero;fill:rgb(25.882354%,25.882354%,25.882354%);fill-opacity:1;" d="M 30.425781 15.050781 C 28.226562 15.050781 26.457031 16.820312 26.457031 19.019531 C 26.457031 21.21875 28.226562 22.988281 30.425781 22.988281 C 32.625 22.988281 34.394531 21.21875 34.394531 19.019531 C 34.394531 16.820312 32.625 15.050781 30.425781 15.050781 Z M 30.425781 24.3125 C 28.226562 24.3125 26.457031 26.082031 26.457031 28.28125 L 26.457031 38.203125 C 26.457031 39.300781 27.34375 40.1875 28.441406 40.1875 L 39.6875 40.1875 L 39.6875 47.464844 C 39.6875 48.5625 40.574219 49.449219 41.671875 49.449219 C 42.769531 49.449219 43.65625 48.5625 43.65625 47.464844 L 43.65625 38.203125 C 43.65625 37.789062 43.53125 37.410156 43.316406 37.09375 C 43.28125 37.039062 43.246094 36.988281 43.203125 36.941406 C 42.902344 36.570312 42.46875 36.316406 41.976562 36.242188 C 41.910156 36.230469 41.84375 36.226562 41.773438 36.222656 C 41.742188 36.21875 41.707031 36.21875 41.671875 36.21875 L 34.394531 36.21875 L 34.394531 30.925781 L 41.671875 30.925781 C 42.769531 30.925781 43.65625 30.042969 43.65625 28.941406 C 43.65625 27.84375 42.769531 26.957031 41.671875 26.957031 L 34.171875 26.957031 C 33.628906 25.414062 32.160156 24.3125 30.425781 24.3125 Z M 25.136719 29.6875 C 21.96875 31.511719 19.84375 34.933594 19.84375 38.863281 C 19.84375 44.726562 24.5625 49.449219 30.425781 49.449219 C 33.59375 49.449219 36.429688 48.070312 38.363281 45.878906 L 38.363281 42.832031 L 35.726562 42.832031 C 34.519531 44.441406 32.601562 45.480469 30.425781 45.480469 C 26.761719 45.480469 23.8125 42.527344 23.8125 38.863281 C 23.8125 37.367188 24.304688 35.992188 25.136719 34.886719 Z M 25.136719 29.6875 "/>
</g>
</svg>
