<?xml version="1.0" encoding="UTF-8"?>
<svg xmlns="http://www.w3.org/2000/svg" xmlns:xlink="http://www.w3.org/1999/xlink" width="64px" height="64px" viewBox="0 0 64 64" version="1.1">
<g id="surface1">
<path style=" stroke:none;fill-rule:nonzero;fill:rgb(25.882354%,25.882354%,25.882354%);fill-opacity:1;" d="M 5.292969 7.113281 L 58.207031 7.113281 C 59.667969 7.113281 60.855469 8.300781 60.855469 9.761719 L 60.855469 54.738281 C 60.855469 56.199219 59.667969 57.386719 58.207031 57.386719 L 5.292969 57.386719 C 3.832031 57.386719 2.644531 56.199219 2.644531 54.738281 L 2.644531 9.761719 C 2.644531 8.300781 3.832031 7.113281 5.292969 7.113281 Z M 5.292969 7.113281 "/>
<path style=" stroke:none;fill-rule:nonzero;fill:rgb(100%,71.764708%,30.19608%);fill-opacity:1;" d="M 6.613281 9.761719 L 56.886719 9.761719 C 57.617188 9.761719 58.207031 10.351562 58.207031 11.082031 L 58.207031 29.605469 C 58.207031 30.335938 57.617188 30.925781 56.886719 30.925781 L 6.613281 30.925781 C 5.882812 30.925781 5.292969 30.335938 5.292969 29.605469 L 5.292969 11.082031 C 5.292969 10.351562 5.882812 9.761719 6.613281 9.761719 Z M 6.613281 9.761719 "/>
<path style=" stroke:none;fill-rule:nonzero;fill:rgb(94.117647%,38.431373%,57.254905%);fill-opacity:1;" d="M 5.867188 9.992188 C 5.519531 10.226562 5.292969 10.628906 5.292969 11.082031 L 5.292969 29.605469 C 5.292969 30.335938 5.882812 30.925781 6.613281 30.925781 L 56.886719 30.925781 C 57.164062 30.925781 57.421875 30.84375 57.632812 30.695312 Z M 5.867188 9.992188 "/>
<path style=" stroke:none;fill-rule:nonzero;fill:rgb(72.941178%,40.784314%,78.431374%);fill-opacity:1;" d="M 57.632812 9.992188 L 5.867188 30.695312 C 6.078125 30.84375 6.335938 30.925781 6.613281 30.925781 L 56.886719 30.925781 C 57.617188 30.925781 58.207031 30.335938 58.207031 29.605469 L 58.207031 11.082031 C 58.207031 10.628906 57.980469 10.226562 57.632812 9.992188 Z M 57.632812 9.992188 "/>
<path style=" stroke:none;fill-rule:nonzero;fill:rgb(39.215687%,70.980394%,96.470588%);fill-opacity:1;" d="M 6.613281 33.574219 L 56.886719 33.574219 C 57.617188 33.574219 58.207031 34.164062 58.207031 34.894531 L 58.207031 53.417969 C 58.207031 54.148438 57.617188 54.738281 56.886719 54.738281 L 6.613281 54.738281 C 5.882812 54.738281 5.292969 54.148438 5.292969 53.417969 L 5.292969 34.894531 C 5.292969 34.164062 5.882812 33.574219 6.613281 33.574219 Z M 6.613281 33.574219 "/>
<path style=" stroke:none;fill-rule:nonzero;fill:rgb(50.588238%,78.039217%,51.764709%);fill-opacity:1;" d="M 5.867188 33.804688 C 5.519531 34.039062 5.292969 34.441406 5.292969 34.894531 L 5.292969 53.417969 C 5.292969 54.148438 5.882812 54.738281 6.613281 54.738281 L 56.886719 54.738281 C 57.164062 54.738281 57.421875 54.65625 57.632812 54.507812 Z M 5.867188 33.804688 "/>
<path style=" stroke:none;fill-rule:nonzero;fill:rgb(36.078432%,41.960785%,75.294119%);fill-opacity:1;" d="M 57.632812 33.804688 L 5.867188 54.507812 C 6.078125 54.65625 6.335938 54.738281 6.613281 54.738281 L 56.886719 54.738281 C 57.617188 54.738281 58.207031 54.148438 58.207031 53.417969 L 58.207031 34.894531 C 58.207031 34.441406 57.980469 34.039062 57.632812 33.804688 Z M 57.632812 33.804688 "/>
</g>
</svg>
