<?xml version="1.0" encoding="UTF-8"?>
<svg xmlns="http://www.w3.org/2000/svg" xmlns:xlink="http://www.w3.org/1999/xlink" width="64px" height="64px" viewBox="0 0 64 64" version="1.1">
<g id="surface1">
<path style=" stroke:none;fill-rule:nonzero;fill:rgb(38.039216%,38.039216%,38.039216%);fill-opacity:1;" d="M 5.292969 19.019531 L 58.207031 19.019531 L 58.207031 24.3125 L 5.292969 24.3125 Z M 5.292969 19.019531 "/>
<path style=" stroke:none;fill-rule:nonzero;fill:rgb(38.039216%,38.039216%,38.039216%);fill-opacity:1;" d="M 5.292969 40.1875 L 58.207031 40.1875 L 58.207031 45.480469 L 5.292969 45.480469 Z M 5.292969 40.1875 "/>
<path style=" stroke:none;fill-rule:nonzero;fill:rgb(25.882354%,25.882354%,25.882354%);fill-opacity:1;" d="M 5.292969 3.144531 L 58.207031 3.144531 C 59.667969 3.144531 60.855469 4.332031 60.855469 5.792969 L 60.855469 17.699219 C 60.855469 19.160156 59.667969 20.34375 58.207031 20.34375 L 5.292969 20.34375 C 3.832031 20.34375 2.644531 19.160156 2.644531 17.699219 L 2.644531 5.792969 C 2.644531 4.332031 3.832031 3.144531 5.292969 3.144531 Z M 5.292969 3.144531 "/>
<path style=" stroke:none;fill-rule:nonzero;fill:rgb(40.000001%,73.333335%,41.568628%);fill-opacity:1;" d="M 9.921875 9.761719 C 11.019531 9.761719 11.90625 10.609375 11.90625 11.652344 L 11.90625 11.835938 C 11.90625 12.882812 11.019531 13.730469 9.921875 13.730469 C 8.824219 13.730469 7.9375 12.882812 7.9375 11.835938 L 7.9375 11.652344 C 7.9375 10.609375 8.824219 9.761719 9.921875 9.761719 Z M 9.921875 9.761719 "/>
<path style=" stroke:none;fill-rule:nonzero;fill:rgb(25.882354%,25.882354%,25.882354%);fill-opacity:1;" d="M 5.292969 23.652344 L 58.207031 23.652344 C 59.667969 23.652344 60.855469 24.835938 60.855469 26.296875 L 60.855469 38.203125 C 60.855469 39.664062 59.667969 40.847656 58.207031 40.847656 L 5.292969 40.847656 C 3.832031 40.847656 2.644531 39.664062 2.644531 38.203125 L 2.644531 26.296875 C 2.644531 24.835938 3.832031 23.652344 5.292969 23.652344 Z M 5.292969 23.652344 "/>
<path style=" stroke:none;fill-rule:nonzero;fill:rgb(25.882354%,25.882354%,25.882354%);fill-opacity:1;" d="M 5.292969 44.15625 L 58.207031 44.15625 C 59.667969 44.15625 60.855469 45.339844 60.855469 46.800781 L 60.855469 58.707031 C 60.855469 60.167969 59.667969 61.355469 58.207031 61.355469 L 5.292969 61.355469 C 3.832031 61.355469 2.644531 60.167969 2.644531 58.707031 L 2.644531 46.800781 C 2.644531 45.339844 3.832031 44.15625 5.292969 44.15625 Z M 5.292969 44.15625 "/>
<path style=" stroke:none;fill-rule:nonzero;fill:rgb(40.000001%,73.333335%,41.568628%);fill-opacity:1;" d="M 16.535156 9.761719 C 17.632812 9.761719 18.519531 10.609375 18.519531 11.652344 L 18.519531 11.835938 C 18.519531 12.882812 17.632812 13.730469 16.535156 13.730469 C 15.441406 13.730469 14.550781 12.882812 14.550781 11.835938 L 14.550781 11.652344 C 14.550781 10.609375 15.441406 9.761719 16.535156 9.761719 Z M 16.535156 9.761719 "/>
<path style=" stroke:none;fill-rule:nonzero;fill:rgb(40.000001%,73.333335%,41.568628%);fill-opacity:1;" d="M 23.152344 9.761719 C 24.246094 9.761719 25.136719 10.609375 25.136719 11.652344 L 25.136719 11.835938 C 25.136719 12.882812 24.246094 13.730469 23.152344 13.730469 C 22.054688 13.730469 21.167969 12.882812 21.167969 11.835938 L 21.167969 11.652344 C 21.167969 10.609375 22.054688 9.761719 23.152344 9.761719 Z M 23.152344 9.761719 "/>
<path style=" stroke:none;fill-rule:nonzero;fill:rgb(40.000001%,73.333335%,41.568628%);fill-opacity:1;" d="M 9.921875 30.265625 C 11.019531 30.265625 11.90625 31.113281 11.90625 32.160156 L 11.90625 32.339844 C 11.90625 33.386719 11.019531 34.234375 9.921875 34.234375 C 8.824219 34.234375 7.9375 33.386719 7.9375 32.339844 L 7.9375 32.160156 C 7.9375 31.113281 8.824219 30.265625 9.921875 30.265625 Z M 9.921875 30.265625 "/>
<path style=" stroke:none;fill-rule:nonzero;fill:rgb(40.000001%,73.333335%,41.568628%);fill-opacity:1;" d="M 16.535156 30.265625 C 17.632812 30.265625 18.519531 31.113281 18.519531 32.160156 L 18.519531 32.339844 C 18.519531 33.386719 17.632812 34.234375 16.535156 34.234375 C 15.441406 34.234375 14.550781 33.386719 14.550781 32.339844 L 14.550781 32.160156 C 14.550781 31.113281 15.441406 30.265625 16.535156 30.265625 Z M 16.535156 30.265625 "/>
<path style=" stroke:none;fill-rule:nonzero;fill:rgb(40.000001%,73.333335%,41.568628%);fill-opacity:1;" d="M 23.152344 30.265625 C 24.246094 30.265625 25.136719 31.113281 25.136719 32.160156 L 25.136719 32.339844 C 25.136719 33.386719 24.246094 34.234375 23.152344 34.234375 C 22.054688 34.234375 21.167969 33.386719 21.167969 32.339844 L 21.167969 32.160156 C 21.167969 31.113281 22.054688 30.265625 23.152344 30.265625 Z M 23.152344 30.265625 "/>
<path style=" stroke:none;fill-rule:nonzero;fill:rgb(40.000001%,73.333335%,41.568628%);fill-opacity:1;" d="M 9.921875 50.769531 C 11.019531 50.769531 11.90625 51.617188 11.90625 52.664062 L 11.90625 52.847656 C 11.90625 53.890625 11.019531 54.738281 9.921875 54.738281 C 8.824219 54.738281 7.9375 53.890625 7.9375 52.847656 L 7.9375 52.664062 C 7.9375 51.617188 8.824219 50.769531 9.921875 50.769531 Z M 9.921875 50.769531 "/>
<path style=" stroke:none;fill-rule:nonzero;fill:rgb(40.000001%,73.333335%,41.568628%);fill-opacity:1;" d="M 16.535156 50.769531 C 17.632812 50.769531 18.519531 51.617188 18.519531 52.664062 L 18.519531 52.847656 C 18.519531 53.890625 17.632812 54.738281 16.535156 54.738281 C 15.441406 54.738281 14.550781 53.890625 14.550781 52.847656 L 14.550781 52.664062 C 14.550781 51.617188 15.441406 50.769531 16.535156 50.769531 Z M 16.535156 50.769531 "/>
<path style=" stroke:none;fill-rule:nonzero;fill:rgb(40.000001%,73.333335%,41.568628%);fill-opacity:1;" d="M 23.152344 50.769531 C 24.246094 50.769531 25.136719 51.617188 25.136719 52.664062 L 25.136719 52.847656 C 25.136719 53.890625 24.246094 54.738281 23.152344 54.738281 C 22.054688 54.738281 21.167969 53.890625 21.167969 52.847656 L 21.167969 52.664062 C 21.167969 51.617188 22.054688 50.769531 23.152344 50.769531 Z M 23.152344 50.769531 "/>
<path style=" stroke:none;fill-rule:nonzero;fill:rgb(55.29412%,43.137255%,38.82353%);fill-opacity:1;" d="M 34.394531 32.25 L 58.207031 32.25 C 59.667969 32.25 60.855469 33.433594 60.855469 34.894531 L 60.855469 58.707031 C 60.855469 60.167969 59.667969 61.355469 58.207031 61.355469 L 34.394531 61.355469 C 32.933594 61.355469 31.75 60.167969 31.75 58.707031 L 31.75 34.894531 C 31.75 33.433594 32.933594 32.25 34.394531 32.25 Z M 34.394531 32.25 "/>
<path style=" stroke:none;fill-rule:nonzero;fill:rgb(25.882354%,25.882354%,25.882354%);fill-opacity:1;" d="M 46.300781 36.21875 C 49.417969 36.21875 51.941406 38.742188 51.941406 41.859375 C 51.941406 44.972656 49.417969 47.5 46.300781 47.5 C 43.1875 47.5 40.664062 44.972656 40.664062 41.859375 C 40.664062 38.742188 43.1875 36.21875 46.300781 36.21875 Z M 46.300781 36.21875 "/>
<path style=" stroke:none;fill-rule:nonzero;fill:rgb(25.882354%,25.882354%,25.882354%);fill-opacity:1;" d="M 40.664062 48.125 C 37.886719 48.125 35.664062 50.359375 35.648438 53.136719 L 35.648438 57.386719 L 39.410156 57.386719 L 39.410156 54.703125 C 39.410156 54.53125 39.546875 54.390625 39.722656 54.390625 C 39.894531 54.390625 40.035156 54.53125 40.035156 54.703125 L 40.035156 57.386719 L 52.570312 57.386719 L 52.570312 54.703125 C 52.570312 54.53125 52.707031 54.390625 52.882812 54.390625 C 53.054688 54.390625 53.195312 54.53125 53.195312 54.703125 L 53.195312 57.386719 L 56.953125 57.386719 L 56.953125 53.136719 C 56.953125 50.359375 54.71875 48.125 51.941406 48.125 Z M 40.664062 48.125 "/>
</g>
</svg>
