<?xml version="1.0" encoding="UTF-8"?>
<svg xmlns="http://www.w3.org/2000/svg" xmlns:xlink="http://www.w3.org/1999/xlink" width="64px" height="64px" viewBox="0 0 64 64" version="1.1">
<g id="surface1">
<path style=" stroke:none;fill-rule:nonzero;fill:rgb(98.431373%,54.901963%,0%);fill-opacity:1;" d="M 29.105469 3.144531 L 34.394531 3.144531 C 35.855469 3.144531 37.042969 4.332031 37.042969 5.792969 C 37.042969 7.253906 35.855469 8.4375 34.394531 8.4375 L 29.105469 8.4375 C 27.644531 8.4375 26.457031 7.253906 26.457031 5.792969 C 26.457031 4.332031 27.644531 3.144531 29.105469 3.144531 Z M 29.105469 3.144531 "/>
<path style=" stroke:none;fill-rule:nonzero;fill:rgb(98.431373%,54.901963%,0%);fill-opacity:1;" d="M 31.089844 52.09375 L 32.410156 52.09375 C 34.96875 52.09375 37.042969 54.167969 37.042969 56.722656 C 37.042969 59.28125 34.96875 61.355469 32.410156 61.355469 L 31.089844 61.355469 C 28.53125 61.355469 26.457031 59.28125 26.457031 56.722656 C 26.457031 54.167969 28.53125 52.09375 31.089844 52.09375 Z M 31.089844 52.09375 "/>
<path style=" stroke:none;fill-rule:nonzero;fill:rgb(100%,65.490198%,14.901961%);fill-opacity:1;" d="M 31.75 5.792969 C 20.023438 5.792969 10.582031 14.050781 10.582031 24.3125 L 10.582031 45.480469 C 10.582031 50.769531 2.644531 50.769531 2.644531 56.0625 L 60.855469 56.0625 C 60.855469 50.769531 52.917969 50.769531 52.917969 45.480469 L 52.917969 24.3125 C 52.917969 14.050781 43.476562 5.792969 31.75 5.792969 Z M 31.75 5.792969 "/>
<path style=" stroke:none;fill-rule:nonzero;fill:rgb(100%,80.000001%,50.196081%);fill-opacity:1;" d="M 22.914062 12.042969 C 23.691406 12.820312 23.0625 14.703125 21.511719 16.253906 C 19.960938 17.804688 18.078125 18.433594 17.304688 17.65625 C 16.527344 16.882812 17.15625 14.996094 18.707031 13.449219 C 20.257812 11.898438 22.140625 11.269531 22.914062 12.042969 Z M 22.914062 12.042969 "/>
</g>
</svg>
