<?xml version="1.0" encoding="UTF-8"?>
<svg xmlns="http://www.w3.org/2000/svg" xmlns:xlink="http://www.w3.org/1999/xlink" width="64px" height="64px" viewBox="0 0 64 64" version="1.1">
<g id="surface1">
<path style=" stroke:none;fill-rule:nonzero;fill:rgb(25.882354%,25.882354%,25.882354%);fill-opacity:1;" d="M 5.292969 3.144531 L 58.207031 3.144531 C 59.667969 3.144531 60.855469 4.332031 60.855469 5.792969 L 60.855469 58.707031 C 60.855469 60.167969 59.667969 61.355469 58.207031 61.355469 L 5.292969 61.355469 C 3.832031 61.355469 2.644531 60.167969 2.644531 58.707031 L 2.644531 5.792969 C 2.644531 4.332031 3.832031 3.144531 5.292969 3.144531 Z M 5.292969 3.144531 "/>
<path style=" stroke:none;fill-rule:nonzero;fill:rgb(87.843138%,87.843138%,87.843138%);fill-opacity:1;" d="M 7.9375 7.113281 L 21.167969 7.113281 C 21.898438 7.113281 22.488281 7.707031 22.488281 8.4375 L 22.488281 56.0625 C 22.488281 56.792969 21.898438 57.386719 21.167969 57.386719 L 7.9375 57.386719 C 7.207031 57.386719 6.613281 56.792969 6.613281 56.0625 L 6.613281 8.4375 C 6.613281 7.707031 7.207031 7.113281 7.9375 7.113281 Z M 7.9375 7.113281 "/>
<path style=" stroke:none;fill-rule:nonzero;fill:rgb(40.000001%,73.333335%,41.568628%);fill-opacity:1;" d="M 6.613281 24.3125 L 22.488281 24.3125 L 22.488281 40.1875 L 6.613281 40.1875 Z M 6.613281 24.3125 "/>
<path style=" stroke:none;fill-rule:nonzero;fill:rgb(87.843138%,87.843138%,87.843138%);fill-opacity:1;" d="M 42.332031 7.113281 L 55.5625 7.113281 C 56.292969 7.113281 56.886719 7.707031 56.886719 8.4375 L 56.886719 56.0625 C 56.886719 56.792969 56.292969 57.386719 55.5625 57.386719 L 42.332031 57.386719 C 41.601562 57.386719 41.011719 56.792969 41.011719 56.0625 L 41.011719 8.4375 C 41.011719 7.707031 41.601562 7.113281 42.332031 7.113281 Z M 42.332031 7.113281 "/>
<path style=" stroke:none;fill-rule:nonzero;fill:rgb(87.843138%,87.843138%,87.843138%);fill-opacity:1;" d="M 25.136719 7.113281 L 38.363281 7.113281 C 39.09375 7.113281 39.6875 7.707031 39.6875 8.4375 L 39.6875 56.0625 C 39.6875 56.792969 39.09375 57.386719 38.363281 57.386719 L 25.136719 57.386719 C 24.40625 57.386719 23.8125 56.792969 23.8125 56.0625 L 23.8125 8.4375 C 23.8125 7.707031 24.40625 7.113281 25.136719 7.113281 Z M 25.136719 7.113281 "/>
<path style=" stroke:none;fill-rule:nonzero;fill:rgb(45.882353%,45.882353%,45.882353%);fill-opacity:1;" d="M 6.613281 22.988281 L 22.488281 22.988281 L 22.488281 24.3125 L 6.613281 24.3125 Z M 6.613281 22.988281 "/>
<path style=" stroke:none;fill-rule:nonzero;fill:rgb(45.882353%,45.882353%,45.882353%);fill-opacity:1;" d="M 23.679688 22.988281 L 39.6875 22.988281 L 39.6875 24.3125 L 23.679688 24.3125 Z M 23.679688 22.988281 "/>
<path style=" stroke:none;fill-rule:nonzero;fill:rgb(45.882353%,45.882353%,45.882353%);fill-opacity:1;" d="M 41.011719 22.988281 L 56.886719 22.988281 L 56.886719 24.3125 L 41.011719 24.3125 Z M 41.011719 22.988281 "/>
<path style=" stroke:none;fill-rule:nonzero;fill:rgb(45.882353%,45.882353%,45.882353%);fill-opacity:1;" d="M 6.613281 40.1875 L 22.488281 40.1875 L 22.488281 41.511719 L 6.613281 41.511719 Z M 6.613281 40.1875 "/>
<path style=" stroke:none;fill-rule:nonzero;fill:rgb(45.882353%,45.882353%,45.882353%);fill-opacity:1;" d="M 23.8125 40.1875 L 39.6875 40.1875 L 39.6875 41.511719 L 23.8125 41.511719 Z M 23.8125 40.1875 "/>
<path style=" stroke:none;fill-rule:nonzero;fill:rgb(45.882353%,45.882353%,45.882353%);fill-opacity:1;" d="M 41.011719 40.1875 L 56.886719 40.1875 L 56.886719 41.511719 L 41.011719 41.511719 Z M 41.011719 40.1875 "/>
<path style=" stroke:none;fill-rule:nonzero;fill:rgb(40.000001%,73.333335%,41.568628%);fill-opacity:1;" d="M 23.8125 24.3125 L 39.6875 24.3125 L 39.6875 40.1875 L 23.8125 40.1875 Z M 23.8125 24.3125 "/>
<path style=" stroke:none;fill-rule:nonzero;fill:rgb(25.882354%,25.882354%,25.882354%);fill-opacity:1;" d="M 30.425781 26.296875 C 28.960938 26.296875 27.78125 27.476562 27.78125 28.941406 L 27.78125 30.265625 L 30.425781 30.265625 L 30.425781 29.605469 C 30.425781 29.238281 30.722656 28.941406 31.089844 28.941406 L 32.410156 28.941406 C 32.777344 28.941406 33.074219 29.238281 33.074219 29.605469 L 33.074219 31.589844 L 30.425781 31.589844 C 28.960938 31.589844 27.78125 32.769531 27.78125 34.234375 L 27.78125 37.542969 C 27.78125 37.90625 28.078125 38.203125 28.441406 38.203125 L 35.058594 38.203125 C 35.421875 38.203125 35.71875 37.90625 35.71875 37.542969 L 35.71875 36.21875 C 35.71875 35.851562 35.421875 35.558594 35.058594 35.558594 L 30.425781 35.558594 L 30.425781 34.894531 C 30.425781 34.53125 30.722656 34.234375 31.089844 34.234375 L 33.074219 34.234375 C 34.539062 34.234375 35.71875 33.054688 35.71875 31.589844 L 35.71875 28.941406 C 35.71875 27.476562 34.539062 26.296875 33.074219 26.296875 Z M 30.425781 26.296875 "/>
<path style=" stroke:none;fill-rule:nonzero;fill:rgb(25.882354%,25.882354%,25.882354%);fill-opacity:1;" d="M 47.625 42.832031 C 46.160156 42.832031 44.980469 44.011719 44.980469 45.480469 L 44.980469 46.800781 L 47.625 46.800781 L 47.625 46.140625 C 47.625 45.773438 47.921875 45.480469 48.285156 45.480469 L 49.609375 45.480469 C 49.976562 45.480469 50.269531 45.773438 50.269531 46.140625 L 50.269531 48.125 L 47.625 48.125 C 46.160156 48.125 44.980469 49.304688 44.980469 50.769531 L 44.980469 54.078125 C 44.980469 54.445312 45.273438 54.738281 45.640625 54.738281 L 52.253906 54.738281 C 52.621094 54.738281 52.917969 54.445312 52.917969 54.078125 L 52.917969 52.753906 C 52.917969 52.390625 52.621094 52.09375 52.253906 52.09375 L 47.625 52.09375 L 47.625 51.433594 C 47.625 51.066406 47.921875 50.769531 48.285156 50.769531 L 50.269531 50.769531 C 51.738281 50.769531 52.917969 49.589844 52.917969 48.125 L 52.917969 45.480469 C 52.917969 44.011719 51.738281 42.832031 50.269531 42.832031 Z M 47.625 42.832031 "/>
<path style=" stroke:none;fill-rule:nonzero;fill:rgb(25.882354%,25.882354%,25.882354%);fill-opacity:1;" d="M 13.230469 9.761719 C 11.761719 9.761719 10.582031 10.941406 10.582031 12.40625 L 10.582031 13.730469 L 13.230469 13.730469 L 13.230469 13.066406 C 13.230469 12.703125 13.523438 12.40625 13.890625 12.40625 L 15.214844 12.40625 C 15.578125 12.40625 15.875 12.703125 15.875 13.066406 L 15.875 15.050781 L 13.230469 15.050781 C 11.761719 15.050781 10.582031 16.230469 10.582031 17.699219 L 10.582031 21.003906 C 10.582031 21.371094 10.878906 21.667969 11.246094 21.667969 L 17.859375 21.667969 C 18.226562 21.667969 18.519531 21.371094 18.519531 21.003906 L 18.519531 19.683594 C 18.519531 19.316406 18.226562 19.019531 17.859375 19.019531 L 13.230469 19.019531 L 13.230469 18.359375 C 13.230469 17.992188 13.523438 17.699219 13.890625 17.699219 L 15.875 17.699219 C 17.339844 17.699219 18.519531 16.519531 18.519531 15.050781 L 18.519531 12.40625 C 18.519531 10.941406 17.339844 9.761719 15.875 9.761719 Z M 13.230469 9.761719 "/>
<path style=" stroke:none;fill-rule:nonzero;fill:rgb(25.882354%,25.882354%,25.882354%);fill-opacity:1;" d="M 13.230469 42.832031 C 11.761719 42.832031 10.582031 44.011719 10.582031 45.480469 L 10.582031 52.09375 C 10.582031 53.558594 11.761719 54.738281 13.230469 54.738281 L 15.875 54.738281 C 17.339844 54.738281 18.519531 53.558594 18.519531 52.09375 L 18.519531 45.480469 C 18.519531 44.011719 17.339844 42.832031 15.875 42.832031 Z M 13.890625 45.480469 L 15.214844 45.480469 C 15.578125 45.480469 15.875 45.773438 15.875 46.140625 L 15.875 51.433594 C 15.875 51.796875 15.578125 52.09375 15.214844 52.09375 L 13.890625 52.09375 C 13.523438 52.09375 13.230469 51.796875 13.230469 51.433594 L 13.230469 46.140625 C 13.230469 45.773438 13.523438 45.480469 13.890625 45.480469 Z M 13.890625 45.480469 "/>
<path style=" stroke:none;fill-rule:nonzero;fill:rgb(25.882354%,25.882354%,25.882354%);fill-opacity:1;" d="M 13.890625 26.296875 L 15.214844 26.296875 C 15.578125 26.296875 15.875 26.59375 15.875 26.957031 L 15.875 37.542969 C 15.875 37.90625 15.578125 38.203125 15.214844 38.203125 L 13.890625 38.203125 C 13.523438 38.203125 13.230469 37.90625 13.230469 37.542969 L 13.230469 26.957031 C 13.230469 26.59375 13.523438 26.296875 13.890625 26.296875 Z M 13.890625 26.296875 "/>
<path style=" stroke:none;fill-rule:nonzero;fill:rgb(25.882354%,25.882354%,25.882354%);fill-opacity:1;" d="M 31.089844 42.832031 L 32.410156 42.832031 C 32.777344 42.832031 33.074219 43.128906 33.074219 43.496094 L 33.074219 54.078125 C 33.074219 54.445312 32.777344 54.738281 32.410156 54.738281 L 31.089844 54.738281 C 30.722656 54.738281 30.425781 54.445312 30.425781 54.078125 L 30.425781 43.496094 C 30.425781 43.128906 30.722656 42.832031 31.089844 42.832031 Z M 31.089844 42.832031 "/>
<path style=" stroke:none;fill-rule:nonzero;fill:rgb(25.882354%,25.882354%,25.882354%);fill-opacity:1;" d="M 45.640625 9.761719 C 45.273438 9.761719 44.980469 10.054688 44.980469 10.421875 L 44.980469 17.035156 C 44.980469 17.402344 45.273438 17.699219 45.640625 17.699219 L 50.269531 17.699219 L 50.269531 21.003906 C 50.269531 21.371094 50.566406 21.667969 50.933594 21.667969 L 52.253906 21.667969 C 52.621094 21.667969 52.917969 21.371094 52.917969 21.003906 L 52.917969 10.421875 C 52.917969 10.054688 52.621094 9.761719 52.253906 9.761719 L 50.933594 9.761719 C 50.566406 9.761719 50.269531 10.054688 50.269531 10.421875 L 50.269531 15.050781 L 47.625 15.050781 L 47.625 10.421875 C 47.625 10.054688 47.328125 9.761719 46.964844 9.761719 Z M 45.640625 9.761719 "/>
<path style=" stroke:none;fill-rule:nonzero;fill:rgb(40.000001%,73.333335%,41.568628%);fill-opacity:1;" d="M 41.011719 24.3125 L 56.886719 24.3125 L 56.886719 40.1875 L 41.011719 40.1875 Z M 41.011719 24.3125 "/>
<path style=" stroke:none;fill-rule:nonzero;fill:rgb(25.882354%,25.882354%,25.882354%);fill-opacity:1;" d="M 47.625 26.296875 C 46.160156 26.296875 44.980469 27.476562 44.980469 28.941406 L 44.980469 30.265625 L 47.625 30.265625 L 47.625 29.605469 C 47.625 29.238281 47.921875 28.941406 48.285156 28.941406 L 49.609375 28.941406 C 49.976562 28.941406 50.269531 29.238281 50.269531 29.605469 L 50.269531 30.925781 L 48.949219 30.925781 C 48.582031 30.925781 48.285156 31.222656 48.285156 31.589844 L 48.285156 32.910156 C 48.285156 33.277344 48.582031 33.574219 48.949219 33.574219 L 50.269531 33.574219 L 50.269531 34.894531 C 50.269531 35.261719 49.976562 35.558594 49.609375 35.558594 L 48.285156 35.558594 C 47.921875 35.558594 47.625 35.261719 47.625 34.894531 L 47.625 34.234375 L 44.980469 34.234375 L 44.980469 35.558594 C 44.980469 37.023438 46.160156 38.203125 47.625 38.203125 L 50.269531 38.203125 C 51.738281 38.203125 52.917969 37.023438 52.917969 35.558594 L 52.917969 33.53125 C 52.917969 32.820312 52.328125 32.25 51.59375 32.25 C 52.328125 32.25 52.917969 31.679688 52.917969 30.96875 L 52.917969 28.941406 C 52.917969 27.476562 51.738281 26.296875 50.269531 26.296875 Z M 47.625 26.296875 "/>
<path style=" stroke:none;fill-rule:nonzero;fill:rgb(25.882354%,25.882354%,25.882354%);fill-opacity:1;" d="M 30.425781 9.761719 C 28.960938 9.761719 27.78125 10.941406 27.78125 12.40625 L 27.78125 13.730469 L 30.425781 13.730469 L 30.425781 13.066406 C 30.425781 12.703125 30.722656 12.40625 31.089844 12.40625 L 32.410156 12.40625 C 32.777344 12.40625 33.074219 12.703125 33.074219 13.066406 L 33.074219 14.390625 L 31.75 14.390625 C 31.382812 14.390625 31.089844 14.6875 31.089844 15.050781 L 31.089844 16.375 C 31.089844 16.742188 31.382812 17.035156 31.75 17.035156 L 33.074219 17.035156 L 33.074219 18.359375 C 33.074219 18.726562 32.777344 19.019531 32.410156 19.019531 L 31.089844 19.019531 C 30.722656 19.019531 30.425781 18.726562 30.425781 18.359375 L 30.425781 17.699219 L 27.78125 17.699219 L 27.78125 19.019531 C 27.78125 20.488281 28.960938 21.667969 30.425781 21.667969 L 33.074219 21.667969 C 34.539062 21.667969 35.71875 20.488281 35.71875 19.019531 L 35.71875 16.992188 C 35.71875 16.285156 35.128906 15.714844 34.394531 15.714844 C 35.128906 15.714844 35.71875 15.144531 35.71875 14.433594 L 35.71875 12.40625 C 35.71875 10.941406 34.539062 9.761719 33.074219 9.761719 Z M 30.425781 9.761719 "/>
</g>
</svg>
