<?xml version="1.0" encoding="UTF-8"?>
<svg xmlns="http://www.w3.org/2000/svg" xmlns:xlink="http://www.w3.org/1999/xlink" width="64px" height="64px" viewBox="0 0 64 64" version="1.1">
<g id="surface1">
<path style=" stroke:none;fill-rule:nonzero;fill:rgb(25.882354%,25.882354%,25.882354%);fill-opacity:1;" d="M 31.75 5.792969 C 46.363281 5.792969 58.207031 17.636719 58.207031 32.25 C 58.207031 46.863281 46.363281 58.707031 31.75 58.707031 C 17.136719 58.707031 5.292969 46.863281 5.292969 32.25 C 5.292969 17.636719 17.136719 5.792969 31.75 5.792969 Z M 31.75 5.792969 "/>
<path style=" stroke:none;fill-rule:nonzero;fill:rgb(74.117649%,74.117649%,74.117649%);fill-opacity:1;" d="M 31.75 3.144531 C 15.625 3.144531 2.644531 16.125 2.644531 32.25 C 2.644531 48.375 15.625 61.355469 31.75 61.355469 C 47.875 61.355469 60.855469 48.375 60.855469 32.25 C 60.855469 16.125 47.875 3.144531 31.75 3.144531 Z M 31.75 7.113281 C 45.675781 7.113281 56.886719 18.324219 56.886719 32.25 C 56.886719 46.175781 45.675781 57.386719 31.75 57.386719 C 17.824219 57.386719 6.613281 46.175781 6.613281 32.25 C 6.613281 18.324219 17.824219 7.113281 31.75 7.113281 Z M 31.75 7.113281 "/>
<path style=" stroke:none;fill-rule:nonzero;fill:rgb(74.117649%,74.117649%,74.117649%);fill-opacity:1;" d="M 31.75 11.082031 L 38.4375 23.042969 L 51.878906 25.710938 L 42.574219 35.765625 L 44.191406 49.375 L 31.75 43.628906 L 19.308594 49.375 L 20.925781 35.765625 L 11.621094 25.710938 L 25.0625 23.042969 Z M 31.75 11.082031 "/>
<path style=" stroke:none;fill-rule:nonzero;fill:rgb(74.117649%,74.117649%,74.117649%);fill-opacity:1;" d="M 53.207031 26.078125 C 53.765625 28.054688 52.617188 30.105469 50.640625 30.664062 C 48.664062 31.21875 46.613281 30.070312 46.054688 28.097656 C 45.5 26.121094 46.648438 24.066406 48.625 23.511719 C 50.597656 22.953125 52.652344 24.101562 53.207031 26.078125 Z M 53.207031 26.078125 "/>
<path style=" stroke:none;fill-rule:nonzero;fill:rgb(74.117649%,74.117649%,74.117649%);fill-opacity:1;" d="M 44.75 50.246094 C 43.082031 51.441406 40.761719 51.0625 39.5625 49.394531 C 38.367188 47.726562 38.75 45.402344 40.417969 44.207031 C 42.082031 43.011719 44.40625 43.394531 45.601562 45.058594 C 46.796875 46.726562 46.417969 49.050781 44.75 50.246094 Z M 44.75 50.246094 "/>
<path style=" stroke:none;fill-rule:nonzero;fill:rgb(74.117649%,74.117649%,74.117649%);fill-opacity:1;" d="M 18.65625 50.175781 C 16.992188 48.972656 16.625 46.648438 17.828125 44.988281 C 19.035156 43.324219 21.359375 42.957031 23.019531 44.160156 C 24.679688 45.367188 25.050781 47.691406 23.84375 49.351562 C 22.640625 51.011719 20.316406 51.382812 18.65625 50.175781 Z M 18.65625 50.175781 "/>
<path style=" stroke:none;fill-rule:nonzero;fill:rgb(74.117649%,74.117649%,74.117649%);fill-opacity:1;" d="M 17.445312 28.097656 C 16.886719 30.070312 14.835938 31.21875 12.859375 30.664062 C 10.882812 30.105469 9.734375 28.054688 10.292969 26.078125 C 10.847656 24.101562 12.902344 22.953125 14.875 23.511719 C 16.851562 24.066406 18 26.121094 17.445312 28.097656 Z M 17.445312 28.097656 "/>
<path style=" stroke:none;fill-rule:nonzero;fill:rgb(74.117649%,74.117649%,74.117649%);fill-opacity:1;" d="M 31.75 9.835938 C 33.800781 9.835938 35.464844 11.5 35.464844 13.550781 C 35.464844 15.605469 33.800781 17.265625 31.75 17.265625 C 29.699219 17.265625 28.035156 15.605469 28.035156 13.550781 C 28.035156 11.5 29.699219 9.835938 31.75 9.835938 Z M 31.75 9.835938 "/>
<path style=" stroke:none;fill-rule:nonzero;fill:rgb(87.843138%,87.843138%,87.843138%);fill-opacity:1;" d="M 13.75 24.042969 C 14.113281 24.40625 13.820312 25.289062 13.09375 26.011719 C 12.371094 26.738281 11.488281 27.03125 11.125 26.671875 C 10.761719 26.308594 11.054688 25.425781 11.78125 24.699219 C 12.507812 23.972656 13.390625 23.679688 13.75 24.042969 Z M 13.75 24.042969 "/>
<path style=" stroke:none;fill-rule:nonzero;fill:rgb(87.843138%,87.843138%,87.843138%);fill-opacity:1;" d="M 31.710938 10.417969 C 32.074219 10.78125 31.78125 11.664062 31.054688 12.386719 C 30.328125 13.113281 29.449219 13.40625 29.085938 13.046875 C 28.722656 12.683594 29.015625 11.800781 29.742188 11.074219 C 30.46875 10.347656 31.351562 10.054688 31.710938 10.417969 Z M 31.710938 10.417969 "/>
<path style=" stroke:none;fill-rule:nonzero;fill:rgb(87.843138%,87.843138%,87.843138%);fill-opacity:1;" d="M 49.671875 24.042969 C 50.035156 24.40625 49.742188 25.289062 49.015625 26.011719 C 48.289062 26.738281 47.410156 27.03125 47.046875 26.671875 C 46.683594 26.308594 46.976562 25.425781 47.703125 24.699219 C 48.429688 23.972656 49.308594 23.679688 49.671875 24.042969 Z M 49.671875 24.042969 "/>
<path style=" stroke:none;fill-rule:nonzero;fill:rgb(87.843138%,87.843138%,87.843138%);fill-opacity:1;" d="M 42.859375 43.863281 C 43.222656 44.222656 42.929688 45.105469 42.203125 45.832031 C 41.476562 46.558594 40.59375 46.851562 40.234375 46.488281 C 39.871094 46.125 40.164062 45.242188 40.890625 44.519531 C 41.617188 43.792969 42.496094 43.5 42.859375 43.863281 Z M 42.859375 43.863281 "/>
<path style=" stroke:none;fill-rule:nonzero;fill:rgb(87.843138%,87.843138%,87.843138%);fill-opacity:1;" d="M 21.183594 43.863281 C 21.546875 44.222656 21.253906 45.105469 20.527344 45.832031 C 19.800781 46.558594 18.917969 46.851562 18.554688 46.488281 C 18.191406 46.125 18.488281 45.242188 19.214844 44.519531 C 19.9375 43.792969 20.820312 43.5 21.183594 43.863281 Z M 21.183594 43.863281 "/>
<path style="fill:none;stroke-width:0.264583;stroke-linecap:butt;stroke-linejoin:miter;stroke:rgb(0%,0%,0%);stroke-opacity:1;stroke-miterlimit:4;" d="M 63.5 127.65625 C 64.5625 128.375 65.4375 129.46875 66.6875 129.78125 C 68.25 130.1875 67.5625 128.03125 67.71875 127.65625 C 67.96875 127.21875 69.28125 126.59375 68.78125 126.59375 C 67 126.59375 65.25 127.3125 63.5 127.65625 " transform="matrix(0.125,0,0,0.125,0,26.875)"/>
</g>
</svg>
