<?xml version="1.0" encoding="UTF-8"?>
<svg xmlns="http://www.w3.org/2000/svg" xmlns:xlink="http://www.w3.org/1999/xlink" width="64px" height="64px" viewBox="0 0 64 64" version="1.1">
<g id="surface1">
<path style=" stroke:none;fill-rule:nonzero;fill:rgb(14.901961%,77.64706%,85.490197%);fill-opacity:1;" d="M 12.613281 9.691406 L 21.78125 4.398438 C 23.046875 3.667969 24.664062 4.101562 25.394531 5.367188 L 51.851562 51.195312 C 52.582031 52.460938 52.148438 54.078125 50.886719 54.808594 L 41.71875 60.101562 C 40.453125 60.832031 38.835938 60.398438 38.105469 59.132812 L 11.648438 13.304688 C 10.917969 12.039062 11.351562 10.421875 12.613281 9.691406 Z M 12.613281 9.691406 "/>
<path style=" stroke:none;fill-rule:nonzero;fill:rgb(30.19608%,81.568629%,88.235295%);fill-opacity:1;" d="M 60.855469 26.957031 L 60.855469 37.542969 C 60.855469 39.003906 59.667969 40.1875 58.207031 40.1875 L 5.292969 40.1875 C 3.832031 40.1875 2.644531 39.003906 2.644531 37.542969 L 2.644531 26.957031 C 2.644531 25.496094 3.832031 24.3125 5.292969 24.3125 L 58.207031 24.3125 C 59.667969 24.3125 60.855469 25.496094 60.855469 26.957031 Z M 60.855469 26.957031 "/>
<path style=" stroke:none;fill-rule:nonzero;fill:rgb(50.196081%,87.058824%,91.764706%);fill-opacity:1;" d="M 41.71875 4.398438 L 50.886719 9.691406 C 52.148438 10.421875 52.582031 12.039062 51.851562 13.304688 L 25.394531 59.132812 C 24.664062 60.398438 23.046875 60.832031 21.78125 60.101562 L 12.613281 54.808594 C 11.351562 54.078125 10.917969 52.460938 11.648438 51.195312 L 38.105469 5.367188 C 38.835938 4.101562 40.453125 3.667969 41.71875 4.398438 Z M 41.71875 4.398438 "/>
</g>
</svg>
