<?xml version="1.0" encoding="UTF-8"?>
<svg xmlns="http://www.w3.org/2000/svg" xmlns:xlink="http://www.w3.org/1999/xlink" width="64px" height="64px" viewBox="0 0 64 64" version="1.1">
<g id="surface1">
<path style=" stroke:none;fill-rule:nonzero;fill:rgb(25.882354%,25.882354%,25.882354%);fill-opacity:1;" d="M 31.75 7.113281 C 45.632812 7.113281 56.886719 18.367188 56.886719 32.25 C 56.886719 46.132812 45.632812 57.386719 31.75 57.386719 C 17.867188 57.386719 6.613281 46.132812 6.613281 32.25 C 6.613281 18.367188 17.867188 7.113281 31.75 7.113281 Z M 31.75 7.113281 "/>
<path style=" stroke:none;fill-rule:nonzero;fill:rgb(25.882354%,64.705884%,96.078432%);fill-opacity:1;" d="M 31.730469 3.144531 C 31.511719 3.144531 31.285156 3.152344 31.066406 3.15625 C 27.808594 3.238281 24.566406 3.902344 21.476562 5.074219 L 41.554688 25.148438 L 41.554688 4.859375 C 38.402344 3.726562 35.078125 3.148438 31.730469 3.144531 Z M 43.753906 5.746094 L 43.753906 34.136719 L 58.09375 19.792969 C 55.132812 13.554688 50.046875 8.578125 43.753906 5.746094 Z M 19.285156 5.984375 C 13.042969 8.949219 8.054688 14.039062 5.222656 20.34375 L 33.644531 20.34375 Z M 59.023438 21.972656 L 38.949219 42.046875 L 59.234375 42.046875 C 61.550781 35.542969 61.476562 28.425781 59.023438 21.972656 Z M 4.367188 22.539062 C 2.054688 29.046875 2.128906 36.164062 4.582031 42.617188 L 24.65625 22.539062 Z M 29.960938 44.242188 L 44.304688 58.589844 C 50.542969 55.628906 55.519531 50.542969 58.347656 44.242188 Z M 29.960938 44.242188 "/>
<path style=" stroke:none;fill-rule:nonzero;fill:rgb(38.039216%,38.039216%,38.039216%);fill-opacity:1;" d="M 19.855469 30.453125 L 5.507812 44.796875 C 8.472656 51.03125 13.558594 56.011719 19.855469 58.839844 Z M 22.050781 39.441406 L 22.050781 59.730469 C 28.554688 62.042969 35.671875 61.96875 42.125 59.515625 Z M 22.050781 39.441406 "/>
<path style=" stroke:none;fill-rule:nonzero;fill:rgb(38.039216%,38.039216%,38.039216%);fill-opacity:1;" d="M 31.75 24.3125 C 36.132812 24.3125 39.6875 27.867188 39.6875 32.25 C 39.6875 36.632812 36.132812 40.1875 31.75 40.1875 C 27.367188 40.1875 23.8125 36.632812 23.8125 32.25 C 23.8125 27.867188 27.367188 24.3125 31.75 24.3125 Z M 31.75 24.3125 "/>
<path style=" stroke:none;fill-rule:nonzero;fill:rgb(61.960787%,61.960787%,61.960787%);fill-opacity:1;" d="M 29.492188 26.683594 C 30.007812 27.199219 29.589844 28.457031 28.554688 29.492188 C 27.523438 30.523438 26.265625 30.941406 25.75 30.425781 C 25.234375 29.910156 25.652344 28.652344 26.683594 27.621094 C 27.71875 26.585938 28.976562 26.167969 29.492188 26.683594 Z M 29.492188 26.683594 "/>
</g>
</svg>
