<?xml version="1.0" encoding="UTF-8"?>
<svg xmlns="http://www.w3.org/2000/svg" xmlns:xlink="http://www.w3.org/1999/xlink" width="64px" height="64px" viewBox="0 0 64 64" version="1.1">
<defs>
<linearGradient id="linear0" gradientUnits="userSpaceOnUse" x1="317.5" y1="74.75" x2="338.666656" y2="0.666667" gradientTransform="matrix(0.125,0,0,0.125,0,26.875)">
<stop offset="0" style="stop-color:rgb(14.901961%,65.098041%,60.392159%);stop-opacity:0.392157;"/>
<stop offset="1" style="stop-color:rgb(0.784314%,3.529412%,3.137255%);stop-opacity:0;"/>
</linearGradient>
</defs>
<g id="surface1">
<path style=" stroke:none;fill-rule:nonzero;fill:rgb(87.843138%,87.843138%,87.843138%);fill-opacity:1;" d="M 31.75 3.144531 C 47.824219 3.144531 60.855469 16.175781 60.855469 32.25 C 60.855469 48.324219 47.824219 61.355469 31.75 61.355469 C 15.675781 61.355469 2.644531 48.324219 2.644531 32.25 C 2.644531 16.175781 15.675781 3.144531 31.75 3.144531 Z M 31.75 3.144531 "/>
<path style=" stroke:none;fill-rule:nonzero;fill:rgb(25.882354%,25.882354%,25.882354%);fill-opacity:1;" d="M 31.75 7.113281 C 45.632812 7.113281 56.886719 18.367188 56.886719 32.25 C 56.886719 46.132812 45.632812 57.386719 31.75 57.386719 C 17.867188 57.386719 6.613281 46.132812 6.613281 32.25 C 6.613281 18.367188 17.867188 7.113281 31.75 7.113281 Z M 31.75 7.113281 "/>
<path style=" stroke:none;fill-rule:nonzero;fill:url(#linear0);" d="M 39.6875 18.5 L 31.75 32.25 L 45.5 40.1875 C 49.894531 32.570312 47.304688 22.898438 39.6875 18.5 Z M 39.6875 18.5 "/>
<path style=" stroke:none;fill-rule:nonzero;fill:rgb(14.901961%,65.098041%,60.392159%);fill-opacity:1;" d="M 31.75 11.082031 C 20.023438 11.082031 10.582031 20.523438 10.582031 32.25 C 10.582031 38.113281 12.945312 43.40625 16.769531 47.230469 L 18.640625 45.359375 C 15.292969 42.011719 13.230469 37.378906 13.230469 32.25 C 13.230469 21.988281 21.488281 13.730469 31.75 13.730469 Z M 31.75 11.082031 "/>
<path style=" stroke:none;fill-rule:nonzero;fill:rgb(16.078432%,71.372551%,96.470588%);fill-opacity:1;" d="M 31.75 11.082031 C 43.476562 11.082031 52.917969 20.523438 52.917969 32.25 C 52.917969 38.113281 50.554688 43.40625 46.730469 47.230469 L 44.859375 45.359375 C 48.207031 42.011719 50.269531 37.378906 50.269531 32.25 C 50.269531 21.988281 42.011719 13.730469 31.75 13.730469 Z M 31.75 11.082031 "/>
<path style=" stroke:none;fill-rule:nonzero;fill:rgb(14.901961%,65.098041%,60.392159%);fill-opacity:1;" d="M 32.082031 31.675781 L 31.417969 32.824219 L 45.742188 41.089844 L 46.402344 39.945312 Z M 32.082031 31.675781 "/>
<path style=" stroke:none;fill-rule:nonzero;fill:rgb(74.117649%,74.117649%,74.117649%);fill-opacity:1;" d="M 31.75 29.605469 C 33.210938 29.605469 34.394531 30.789062 34.394531 32.25 C 34.394531 33.710938 33.210938 34.894531 31.75 34.894531 C 30.289062 34.894531 29.105469 33.710938 29.105469 32.25 C 29.105469 30.789062 30.289062 29.605469 31.75 29.605469 Z M 31.75 29.605469 "/>
</g>
</svg>
