<?xml version="1.0" encoding="UTF-8"?>
<svg xmlns="http://www.w3.org/2000/svg" xmlns:xlink="http://www.w3.org/1999/xlink" width="64px" height="64px" viewBox="0 0 64 64" version="1.1">
<g id="surface1">
<path style=" stroke:none;fill-rule:nonzero;fill:rgb(92.54902%,25.098041%,47.843137%);fill-opacity:1;" d="M 31.75 4.46875 C 34.808594 4.46875 38.304688 20.964844 40.777344 22.761719 C 43.253906 24.5625 60.019531 22.785156 60.964844 25.695312 C 61.914062 28.605469 47.304688 37.023438 46.359375 39.933594 C 45.414062 42.84375 52.28125 58.242188 49.808594 60.042969 C 47.332031 61.839844 34.808594 50.550781 31.75 50.550781 C 28.691406 50.550781 16.167969 61.839844 13.691406 60.042969 C 11.21875 58.242188 18.085938 42.84375 17.140625 39.933594 C 16.195312 37.023438 1.585938 28.605469 2.535156 25.695312 C 3.480469 22.785156 20.246094 24.5625 22.722656 22.761719 C 25.195312 20.964844 28.691406 4.46875 31.75 4.46875 Z M 31.75 4.46875 "/>
</g>
</svg>
