
<svg xmlns="http://www.w3.org/2000/svg" xmlns:xlink="http://www.w3.org/1999/xlink" width="64px" height="64px" viewBox="0 0 64 64" version="1.1">
<g id="surface1">
<path style=" stroke:none;fill-rule:nonzero;fill:rgb(93.725491%,32.549021%,31.37255%);fill-opacity:1;" d="M 34.671875 9.796875 C 26.734375 9.796875 18.796875 15.085938 10.859375 28.316406 C 5.566406 36.253906 2.921875 37.578125 2.921875 44.191406 C 2.921875 50.054688 5.566406 56.097656 13.503906 56.097656 C 24.089844 56.097656 25.410156 56.097656 34.671875 56.097656 C 47.902344 57.421875 57.160156 44.746094 57.160156 32.285156 C 57.160156 19.824219 47.128906 9.796875 34.671875 9.796875 Z M 34.671875 9.796875 "/>
<path style=" stroke:none;fill-rule:nonzero;fill:rgb(89.803922%,22.352941%,20.784314%);fill-opacity:1;" d="M 14.992188 31.59375 L 15.023438 31.621094 C 15.84375 32.328125 15.683594 33.863281 14.660156 35.050781 L 14.472656 35.265625 C 13.453125 36.453125 11.960938 36.839844 11.136719 36.132812 L 11.105469 36.101562 C 10.285156 35.394531 10.445312 33.859375 11.46875 32.675781 L 11.65625 32.457031 C 12.675781 31.273438 14.171875 30.886719 14.992188 31.59375 Z M 14.992188 31.59375 "/>
<path style=" stroke:none;fill-rule:nonzero;fill:rgb(100%,65.490198%,14.901961%);fill-opacity:1;" d="M 14.144531 32.609375 C 14.421875 32.847656 14.164062 33.601562 13.566406 34.292969 C 12.96875 34.984375 12.261719 35.351562 11.984375 35.113281 C 11.707031 34.875 11.96875 34.121094 12.5625 33.429688 C 13.160156 32.738281 13.867188 32.371094 14.144531 32.609375 Z M 14.144531 32.609375 "/>
<path style=" stroke:none;fill-rule:nonzero;fill:rgb(89.803922%,45.09804%,45.09804%);fill-opacity:1;" d="M 35.332031 18.621094 C 37.160156 21.785156 34.023438 27.011719 28.328125 30.300781 C 22.632812 33.589844 16.539062 33.691406 14.710938 30.527344 C 12.882812 27.363281 16.019531 22.132812 21.714844 18.84375 C 27.410156 15.554688 33.507812 15.457031 35.332031 18.621094 Z M 35.332031 18.621094 "/>
<path style=" stroke:none;fill-rule:nonzero;fill:rgb(89.803922%,22.352941%,20.784314%);fill-opacity:1;" d="M 21.101562 39.53125 L 21.125 39.570312 C 21.667969 40.507812 21.011719 41.90625 19.65625 42.6875 L 19.410156 42.832031 C 18.054688 43.617188 16.519531 43.492188 15.972656 42.554688 L 15.953125 42.515625 C 15.410156 41.578125 16.066406 40.183594 17.417969 39.398438 L 17.667969 39.253906 C 19.023438 38.46875 20.558594 38.59375 21.101562 39.53125 Z M 21.101562 39.53125 "/>
<path style=" stroke:none;fill-rule:nonzero;fill:rgb(100%,65.490198%,14.901961%);fill-opacity:1;" d="M 19.96875 40.214844 C 20.152344 40.53125 19.660156 41.160156 18.871094 41.617188 C 18.082031 42.074219 17.292969 42.1875 17.109375 41.871094 C 16.925781 41.558594 17.417969 40.929688 18.207031 40.472656 C 18.996094 40.011719 19.785156 39.898438 19.96875 40.214844 Z M 19.96875 40.214844 "/>
<path style=" stroke:none;fill-rule:nonzero;fill:rgb(89.803922%,22.352941%,20.784314%);fill-opacity:1;" d="M 26.664062 48.675781 L 26.667969 48.722656 C 26.769531 49.800781 25.589844 50.796875 24.03125 50.941406 L 23.746094 50.96875 C 22.1875 51.117188 20.84375 50.363281 20.742188 49.285156 L 20.738281 49.242188 C 20.632812 48.160156 21.8125 47.167969 23.371094 47.019531 L 23.65625 46.992188 C 25.214844 46.84375 26.5625 47.597656 26.664062 48.675781 Z M 26.664062 48.675781 "/>
<path style=" stroke:none;fill-rule:nonzero;fill:rgb(100%,65.490198%,14.901961%);fill-opacity:1;" d="M 25.347656 48.824219 C 25.382812 49.1875 24.675781 49.554688 23.765625 49.640625 C 22.855469 49.726562 22.089844 49.5 22.054688 49.136719 C 22.019531 48.773438 22.730469 48.410156 23.640625 48.324219 C 24.546875 48.238281 25.3125 48.460938 25.347656 48.824219 Z M 25.347656 48.824219 "/>
<path style=" stroke:none;fill-rule:nonzero;fill:rgb(89.803922%,22.352941%,20.784314%);fill-opacity:1;" d="M 37.246094 50 L 37.25 50.042969 C 37.351562 51.125 36.175781 52.117188 34.617188 52.265625 L 34.332031 52.292969 C 32.773438 52.441406 31.425781 51.6875 31.324219 50.609375 L 31.320312 50.5625 C 31.21875 49.484375 32.398438 48.492188 33.953125 48.34375 L 34.242188 48.316406 C 35.796875 48.167969 37.144531 48.921875 37.246094 50 Z M 37.246094 50 "/>
<path style=" stroke:none;fill-rule:nonzero;fill:rgb(100%,65.490198%,14.901961%);fill-opacity:1;" d="M 35.933594 50.148438 C 35.964844 50.511719 35.257812 50.875 34.347656 50.960938 C 33.4375 51.050781 32.675781 50.824219 32.640625 50.460938 C 32.605469 50.097656 33.3125 49.730469 34.222656 49.644531 C 35.132812 49.558594 35.898438 49.785156 35.933594 50.148438 Z M 35.933594 50.148438 "/>
<path style=" stroke:none;fill-rule:nonzero;fill:rgb(89.803922%,22.352941%,20.784314%);fill-opacity:1;" d="M 30.835938 41.933594 L 30.851562 41.976562 C 31.226562 42.992188 30.347656 44.257812 28.878906 44.804688 L 28.609375 44.90625 C 27.144531 45.449219 25.648438 45.070312 25.269531 44.054688 L 25.253906 44.011719 C 24.878906 42.996094 25.757812 41.730469 27.226562 41.183594 L 27.496094 41.085938 C 28.960938 40.539062 30.457031 40.917969 30.835938 41.933594 Z M 30.835938 41.933594 "/>
<path style=" stroke:none;fill-rule:nonzero;fill:rgb(100%,65.490198%,14.901961%);fill-opacity:1;" d="M 29.601562 42.417969 C 29.730469 42.757812 29.140625 43.296875 28.285156 43.613281 C 27.429688 43.933594 26.628906 43.914062 26.503906 43.570312 C 26.375 43.230469 26.964844 42.695312 27.820312 42.375 C 28.675781 42.054688 29.476562 42.074219 29.601562 42.417969 Z M 29.601562 42.417969 "/>
<path style=" stroke:none;fill-rule:nonzero;fill:rgb(89.803922%,22.352941%,20.784314%);fill-opacity:1;" d="M 30.742188 35.304688 L 30.765625 35.34375 C 31.308594 36.28125 30.652344 37.679688 29.300781 38.460938 L 29.050781 38.605469 C 27.695312 39.390625 26.160156 39.269531 25.617188 38.332031 L 25.59375 38.292969 C 25.050781 37.355469 25.707031 35.957031 27.058594 35.171875 L 27.308594 35.03125 C 28.660156 34.246094 30.199219 34.367188 30.742188 35.304688 Z M 30.742188 35.304688 "/>
<path style=" stroke:none;fill-rule:nonzero;fill:rgb(100%,65.490198%,14.901961%);fill-opacity:1;" d="M 29.609375 35.988281 C 29.792969 36.304688 29.300781 36.933594 28.511719 37.390625 C 27.722656 37.847656 26.933594 37.964844 26.75 37.648438 C 26.566406 37.332031 27.058594 36.703125 27.847656 36.246094 C 28.636719 35.789062 29.425781 35.671875 29.609375 35.988281 Z M 29.609375 35.988281 "/>
<path style=" stroke:none;fill-rule:nonzero;fill:rgb(89.803922%,22.352941%,20.784314%);fill-opacity:1;" d="M 21.46875 23.761719 L 21.5 23.792969 C 22.320312 24.5 22.160156 26.035156 21.136719 27.21875 L 20.949219 27.4375 C 19.929688 28.621094 18.433594 29.007812 17.613281 28.300781 L 17.582031 28.273438 C 16.761719 27.566406 16.921875 26.03125 17.945312 24.847656 L 18.132812 24.628906 C 19.152344 23.441406 20.644531 23.054688 21.46875 23.761719 Z M 21.46875 23.761719 "/>
<path style=" stroke:none;fill-rule:nonzero;fill:rgb(100%,65.490198%,14.901961%);fill-opacity:1;" d="M 20.621094 24.78125 C 20.898438 25.019531 20.636719 25.773438 20.042969 26.464844 C 19.445312 27.15625 18.738281 27.523438 18.460938 27.285156 C 18.183594 27.046875 18.445312 26.292969 19.039062 25.601562 C 19.636719 24.910156 20.34375 24.542969 20.621094 24.78125 Z M 20.621094 24.78125 "/>
<path style=" stroke:none;fill-rule:nonzero;fill:rgb(89.803922%,22.352941%,20.784314%);fill-opacity:1;" d="M 22.625 30.976562 L 22.65625 31.007812 C 23.480469 31.714844 23.316406 33.25 22.292969 34.433594 L 22.105469 34.652344 C 21.085938 35.835938 19.59375 36.222656 18.769531 35.515625 L 18.738281 35.488281 C 17.917969 34.78125 18.078125 33.246094 19.101562 32.058594 L 19.289062 31.84375 C 20.308594 30.65625 21.804688 30.269531 22.625 30.976562 Z M 22.625 30.976562 "/>
<path style=" stroke:none;fill-rule:nonzero;fill:rgb(100%,65.490198%,14.901961%);fill-opacity:1;" d="M 21.777344 31.992188 C 22.054688 32.234375 21.796875 32.988281 21.199219 33.679688 C 20.601562 34.371094 19.894531 34.738281 19.617188 34.5 C 19.339844 34.261719 19.601562 33.507812 20.195312 32.816406 C 20.792969 32.125 21.5 31.753906 21.777344 31.992188 Z M 21.777344 31.992188 "/>
<path style=" stroke:none;fill-rule:nonzero;fill:rgb(89.803922%,22.352941%,20.784314%);fill-opacity:1;" d="M 24.351562 17.878906 L 24.386719 17.90625 C 25.207031 18.613281 25.046875 20.148438 24.023438 21.335938 L 23.835938 21.550781 C 22.816406 22.738281 21.320312 23.125 20.5 22.417969 L 20.46875 22.386719 C 19.644531 21.679688 19.808594 20.148438 20.828125 18.960938 L 21.015625 18.742188 C 22.039062 17.558594 23.53125 17.171875 24.351562 17.878906 Z M 24.351562 17.878906 "/>
<path style=" stroke:none;fill-rule:nonzero;fill:rgb(100%,65.490198%,14.901961%);fill-opacity:1;" d="M 23.507812 18.894531 C 23.78125 19.132812 23.523438 19.886719 22.929688 20.578125 C 22.332031 21.273438 21.625 21.640625 21.347656 21.402344 C 21.070312 21.164062 21.328125 20.40625 21.925781 19.714844 C 22.523438 19.023438 23.230469 18.65625 23.507812 18.894531 Z M 23.507812 18.894531 "/>
<path style=" stroke:none;fill-rule:nonzero;fill:rgb(89.803922%,22.352941%,20.784314%);fill-opacity:1;" d="M 30.464844 25.816406 L 30.488281 25.855469 C 31.03125 26.792969 30.375 28.191406 29.019531 28.972656 L 28.769531 29.117188 C 27.417969 29.902344 25.878906 29.777344 25.335938 28.839844 L 25.3125 28.800781 C 24.769531 27.863281 25.425781 26.46875 26.78125 25.683594 L 27.03125 25.539062 C 28.382812 24.757812 29.921875 24.878906 30.464844 25.816406 Z M 30.464844 25.816406 "/>
<path style=" stroke:none;fill-rule:nonzero;fill:rgb(100%,65.490198%,14.901961%);fill-opacity:1;" d="M 29.332031 26.5 C 29.515625 26.816406 29.023438 27.445312 28.230469 27.902344 C 27.441406 28.359375 26.652344 28.476562 26.46875 28.160156 C 26.285156 27.84375 26.777344 27.214844 27.570312 26.757812 C 28.359375 26.300781 29.148438 26.183594 29.332031 26.5 Z M 29.332031 26.5 "/>
<path style=" stroke:none;fill-rule:nonzero;fill:rgb(89.803922%,22.352941%,20.784314%);fill-opacity:1;" d="M 42.539062 43.386719 L 42.542969 43.429688 C 42.644531 44.507812 41.464844 45.503906 39.90625 45.652344 L 39.621094 45.679688 C 38.0625 45.828125 36.71875 45.070312 36.617188 43.992188 L 36.613281 43.949219 C 36.507812 42.871094 37.6875 41.875 39.246094 41.726562 L 39.53125 41.699219 C 41.089844 41.550781 42.4375 42.308594 42.539062 43.386719 Z M 42.539062 43.386719 "/>
<path style=" stroke:none;fill-rule:nonzero;fill:rgb(100%,65.490198%,14.901961%);fill-opacity:1;" d="M 41.222656 43.53125 C 41.257812 43.898438 40.550781 44.261719 39.640625 44.347656 C 38.730469 44.433594 37.964844 44.210938 37.929688 43.847656 C 37.894531 43.480469 38.605469 43.117188 39.515625 43.03125 C 40.421875 42.945312 41.1875 43.167969 41.222656 43.53125 Z M 41.222656 43.53125 "/>
<path style=" stroke:none;fill-rule:nonzero;fill:rgb(89.803922%,22.352941%,20.784314%);fill-opacity:1;" d="M 49.152344 50 L 49.15625 50.042969 C 49.257812 51.125 48.082031 52.117188 46.523438 52.265625 L 46.238281 52.292969 C 44.679688 52.441406 43.332031 51.6875 43.230469 50.609375 L 43.226562 50.5625 C 43.125 49.484375 44.304688 48.492188 45.859375 48.34375 L 46.148438 48.316406 C 47.703125 48.167969 49.050781 48.921875 49.152344 50 Z M 49.152344 50 "/>
<path style=" stroke:none;fill-rule:nonzero;fill:rgb(100%,65.490198%,14.901961%);fill-opacity:1;" d="M 47.839844 50.148438 C 47.871094 50.511719 47.164062 50.875 46.253906 50.960938 C 45.34375 51.050781 44.582031 50.824219 44.546875 50.460938 C 44.511719 50.097656 45.21875 49.730469 46.128906 49.644531 C 47.039062 49.558594 47.804688 49.785156 47.839844 50.148438 Z M 47.839844 50.148438 "/>
<path style=" stroke:none;fill-rule:nonzero;fill:rgb(89.803922%,22.352941%,20.784314%);fill-opacity:1;" d="M 40.09375 33.996094 L 40.109375 34.039062 C 40.488281 35.054688 39.605469 36.320312 38.140625 36.867188 L 37.871094 36.96875 C 36.40625 37.511719 34.910156 37.132812 34.53125 36.117188 L 34.515625 36.074219 C 34.136719 35.058594 35.019531 33.792969 36.484375 33.246094 L 36.753906 33.148438 C 38.222656 32.601562 39.714844 32.980469 40.09375 33.996094 Z M 40.09375 33.996094 "/>
<path style=" stroke:none;fill-rule:nonzero;fill:rgb(100%,65.490198%,14.901961%);fill-opacity:1;" d="M 38.863281 34.480469 C 38.992188 34.820312 38.398438 35.359375 37.542969 35.675781 C 36.6875 35.996094 35.890625 35.976562 35.761719 35.632812 C 35.636719 35.292969 36.226562 34.757812 37.082031 34.4375 C 37.9375 34.117188 38.734375 34.136719 38.863281 34.480469 Z M 38.863281 34.480469 "/>
<path style=" stroke:none;fill-rule:nonzero;fill:rgb(89.803922%,22.352941%,20.784314%);fill-opacity:1;" d="M 39.441406 25.738281 L 39.464844 25.777344 C 40.007812 26.714844 39.351562 28.109375 37.996094 28.894531 L 37.75 29.039062 C 36.394531 29.824219 34.859375 29.699219 34.3125 28.761719 L 34.292969 28.726562 C 33.75 27.789062 34.40625 26.390625 35.757812 25.605469 L 36.007812 25.460938 C 37.359375 24.675781 38.898438 24.800781 39.441406 25.738281 Z M 39.441406 25.738281 "/>
<path style=" stroke:none;fill-rule:nonzero;fill:rgb(100%,65.490198%,14.901961%);fill-opacity:1;" d="M 38.308594 26.421875 C 38.492188 26.738281 38 27.363281 37.210938 27.824219 C 36.417969 28.28125 35.628906 28.398438 35.449219 28.082031 C 35.265625 27.765625 35.757812 27.136719 36.546875 26.679688 C 37.335938 26.21875 38.125 26.105469 38.308594 26.421875 Z M 38.308594 26.421875 "/>
<path style=" stroke:none;fill-rule:nonzero;fill:rgb(89.803922%,22.352941%,20.784314%);fill-opacity:1;" d="M 41.34375 18.25 L 41.347656 18.292969 C 41.449219 19.375 40.269531 20.367188 38.714844 20.515625 L 38.425781 20.542969 C 36.871094 20.691406 35.523438 19.9375 35.421875 18.859375 L 35.417969 18.8125 C 35.316406 17.734375 36.496094 16.742188 38.050781 16.59375 L 38.335938 16.566406 C 39.894531 16.417969 41.242188 17.171875 41.34375 18.25 Z M 41.34375 18.25 "/>
<path style=" stroke:none;fill-rule:nonzero;fill:rgb(100%,65.490198%,14.901961%);fill-opacity:1;" d="M 40.027344 18.398438 C 40.0625 18.761719 39.355469 19.125 38.445312 19.210938 C 37.535156 19.300781 36.769531 19.074219 36.734375 18.710938 C 36.703125 18.347656 37.410156 17.980469 38.320312 17.894531 C 39.230469 17.808594 39.996094 18.035156 40.027344 18.398438 Z M 40.027344 18.398438 "/>
<path style=" stroke:none;fill-rule:nonzero;fill:rgb(89.803922%,22.352941%,20.784314%);fill-opacity:1;" d="M 32.328125 15.839844 L 32.351562 15.875 C 32.921875 16.796875 32.308594 18.210938 30.976562 19.035156 L 30.734375 19.1875 C 29.402344 20.011719 27.863281 19.933594 27.292969 19.011719 L 27.269531 18.972656 C 26.699219 18.050781 27.3125 16.636719 28.644531 15.8125 L 28.886719 15.664062 C 30.21875 14.839844 31.757812 14.917969 32.328125 15.839844 Z M 32.328125 15.839844 "/>
<path style=" stroke:none;fill-rule:nonzero;fill:rgb(100%,65.490198%,14.901961%);fill-opacity:1;" d="M 31.214844 16.554688 C 31.410156 16.863281 30.9375 17.507812 30.160156 17.988281 C 29.382812 18.46875 28.597656 18.605469 28.40625 18.296875 C 28.210938 17.984375 28.6875 17.34375 29.460938 16.863281 C 30.238281 16.382812 31.023438 16.242188 31.214844 16.554688 Z M 31.214844 16.554688 "/>
<path style=" stroke:none;fill-rule:nonzero;fill:rgb(89.803922%,22.352941%,20.784314%);fill-opacity:1;" d="M 8.9375 41.417969 L 8.953125 41.445312 C 9.351562 42.109375 8.867188 43.089844 7.867188 43.640625 L 7.683594 43.742188 C 6.683594 44.292969 5.550781 44.203125 5.152344 43.542969 L 5.132812 43.515625 C 4.734375 42.855469 5.222656 41.871094 6.21875 41.320312 L 6.402344 41.21875 C 7.402344 40.667969 8.535156 40.757812 8.9375 41.417969 Z M 8.9375 41.417969 "/>
<path style=" stroke:none;fill-rule:nonzero;fill:rgb(100%,65.490198%,14.901961%);fill-opacity:1;" d="M 8.101562 41.898438 C 8.234375 42.121094 7.871094 42.5625 7.289062 42.886719 C 6.703125 43.207031 6.121094 43.285156 5.988281 43.0625 C 5.851562 42.839844 6.214844 42.398438 6.800781 42.078125 C 7.382812 41.757812 7.964844 41.675781 8.101562 41.898438 Z M 8.101562 41.898438 "/>
<path style=" stroke:none;fill-rule:nonzero;fill:rgb(89.803922%,22.352941%,20.784314%);fill-opacity:1;" d="M 10.558594 40.316406 L 10.578125 40.355469 C 11.144531 41.285156 10.457031 42.671875 9.046875 43.449219 L 8.789062 43.59375 C 7.378906 44.371094 5.777344 44.246094 5.214844 43.3125 L 5.191406 43.273438 C 4.628906 42.339844 5.3125 40.957031 6.722656 40.179688 L 6.984375 40.035156 C 8.394531 39.257812 9.992188 39.382812 10.558594 40.316406 Z M 10.558594 40.316406 "/>
<path style=" stroke:none;fill-rule:nonzero;fill:rgb(100%,65.490198%,14.901961%);fill-opacity:1;" d="M 9.375 40.992188 C 9.566406 41.308594 9.054688 41.929688 8.230469 42.382812 C 7.40625 42.835938 6.585938 42.949219 6.394531 42.636719 C 6.207031 42.320312 6.71875 41.699219 7.542969 41.246094 C 8.363281 40.792969 9.1875 40.679688 9.375 40.992188 Z M 9.375 40.992188 "/>
<path style=" stroke:none;fill-rule:nonzero;fill:rgb(89.803922%,22.352941%,20.784314%);fill-opacity:1;" d="M 8.804688 47.277344 L 8.824219 47.304688 C 9.222656 47.964844 8.734375 48.949219 7.738281 49.5 L 7.554688 49.601562 C 6.554688 50.152344 5.417969 50.0625 5.019531 49.402344 L 5.003906 49.375 C 4.605469 48.714844 5.089844 47.730469 6.089844 47.179688 L 6.273438 47.078125 C 7.273438 46.527344 8.40625 46.617188 8.804688 47.277344 Z M 8.804688 47.277344 "/>
<path style=" stroke:none;fill-rule:nonzero;fill:rgb(100%,65.490198%,14.901961%);fill-opacity:1;" d="M 7.96875 47.757812 C 8.105469 47.980469 7.738281 48.421875 7.15625 48.742188 C 6.574219 49.0625 5.992188 49.144531 5.855469 48.921875 C 5.722656 48.699219 6.085938 48.257812 6.667969 47.9375 C 7.253906 47.613281 7.835938 47.535156 7.96875 47.757812 Z M 7.96875 47.757812 "/>
<path style=" stroke:none;fill-rule:nonzero;fill:rgb(89.803922%,22.352941%,20.784314%);fill-opacity:1;" d="M 14.097656 51.246094 L 14.113281 51.273438 C 14.511719 51.933594 14.027344 52.917969 13.027344 53.46875 L 12.84375 53.570312 C 11.84375 54.121094 10.710938 54.03125 10.3125 53.371094 L 10.296875 53.34375 C 9.894531 52.683594 10.382812 51.699219 11.382812 51.148438 L 11.566406 51.046875 C 12.5625 50.496094 13.699219 50.585938 14.097656 51.246094 Z M 14.097656 51.246094 "/>
<path style=" stroke:none;fill-rule:nonzero;fill:rgb(100%,65.490198%,14.901961%);fill-opacity:1;" d="M 13.261719 51.726562 C 13.394531 51.949219 13.03125 52.390625 12.449219 52.710938 C 11.863281 53.03125 11.28125 53.113281 11.148438 52.890625 C 11.011719 52.667969 11.378906 52.226562 11.960938 51.90625 C 12.542969 51.582031 13.125 51.503906 13.261719 51.726562 Z M 13.261719 51.726562 "/>
<path style=" stroke:none;fill-rule:nonzero;fill:rgb(89.803922%,22.352941%,20.784314%);fill-opacity:1;" d="M 15.996094 45.5625 L 16.015625 45.59375 C 16.472656 46.351562 15.914062 47.476562 14.769531 48.109375 L 14.558594 48.222656 C 13.414062 48.855469 12.117188 48.753906 11.65625 47.996094 L 11.640625 47.964844 C 11.179688 47.207031 11.738281 46.082031 12.882812 45.449219 L 13.09375 45.335938 C 14.238281 44.703125 15.539062 44.804688 15.996094 45.5625 Z M 15.996094 45.5625 "/>
<path style=" stroke:none;fill-rule:nonzero;fill:rgb(100%,65.490198%,14.901961%);fill-opacity:1;" d="M 15.035156 46.113281 C 15.191406 46.367188 14.773438 46.875 14.105469 47.242188 C 13.4375 47.609375 12.769531 47.703125 12.617188 47.445312 C 12.460938 47.191406 12.878906 46.6875 13.546875 46.316406 C 14.214844 45.949219 14.882812 45.855469 15.035156 46.113281 Z M 15.035156 46.113281 "/>
<path style=" stroke:none;fill-rule:nonzero;fill:rgb(89.803922%,22.352941%,20.784314%);fill-opacity:1;" d="M 47.578125 37.796875 L 47.59375 37.839844 C 47.972656 38.855469 47.089844 40.121094 45.625 40.667969 L 45.355469 40.765625 C 43.890625 41.3125 42.394531 40.933594 42.015625 39.917969 L 42 39.875 C 41.621094 38.859375 42.503906 37.59375 43.96875 37.046875 L 44.238281 36.949219 C 45.707031 36.402344 47.199219 36.78125 47.578125 37.796875 Z M 47.578125 37.796875 "/>
<path style=" stroke:none;fill-rule:nonzero;fill:rgb(100%,65.490198%,14.901961%);fill-opacity:1;" d="M 46.347656 38.28125 C 46.472656 38.621094 45.882812 39.160156 45.027344 39.476562 C 44.171875 39.796875 43.375 39.777344 43.246094 39.433594 C 43.121094 39.09375 43.710938 38.554688 44.566406 38.238281 C 45.421875 37.917969 46.21875 37.9375 46.347656 38.28125 Z M 46.347656 38.28125 "/>
<path style=" stroke:none;fill-rule:nonzero;fill:rgb(89.803922%,22.352941%,20.784314%);fill-opacity:1;" d="M 48.039062 29.777344 L 48.054688 29.816406 C 48.433594 30.832031 47.550781 32.101562 46.085938 32.644531 L 45.816406 32.746094 C 44.351562 33.292969 42.855469 32.910156 42.476562 31.894531 L 42.460938 31.855469 C 42.082031 30.839844 42.964844 29.574219 44.433594 29.027344 L 44.699219 28.925781 C 46.167969 28.378906 47.664062 28.761719 48.039062 29.777344 Z M 48.039062 29.777344 "/>
<path style=" stroke:none;fill-rule:nonzero;fill:rgb(100%,65.490198%,14.901961%);fill-opacity:1;" d="M 46.808594 30.257812 C 46.9375 30.601562 46.34375 31.136719 45.488281 31.457031 C 44.632812 31.773438 43.835938 31.757812 43.710938 31.414062 C 43.582031 31.070312 44.171875 30.535156 45.027344 30.214844 C 45.882812 29.898438 46.679688 29.917969 46.808594 30.257812 Z M 46.808594 30.257812 "/>
<path style=" stroke:none;fill-rule:nonzero;fill:rgb(89.803922%,22.352941%,20.784314%);fill-opacity:1;" d="M 52.871094 41.765625 L 52.886719 41.808594 C 53.265625 42.824219 52.382812 44.089844 50.917969 44.636719 L 50.648438 44.734375 C 49.179688 45.28125 47.683594 44.902344 47.308594 43.886719 L 47.292969 43.84375 C 46.914062 42.828125 47.796875 41.5625 49.261719 41.015625 L 49.53125 40.917969 C 50.996094 40.371094 52.492188 40.75 52.871094 41.765625 Z M 52.871094 41.765625 "/>
<path style=" stroke:none;fill-rule:nonzero;fill:rgb(100%,65.490198%,14.901961%);fill-opacity:1;" d="M 51.636719 42.25 C 51.765625 42.589844 51.175781 43.128906 50.320312 43.445312 C 49.464844 43.765625 48.667969 43.746094 48.539062 43.402344 C 48.410156 43.0625 49.003906 42.523438 49.859375 42.207031 C 50.714844 41.886719 51.511719 41.90625 51.636719 42.25 Z M 51.636719 42.25 "/>
<path style=" stroke:none;fill-rule:nonzero;fill:rgb(89.803922%,22.352941%,20.784314%);fill-opacity:1;" d="M 20.535156 53.695312 L 20.539062 53.726562 C 20.613281 54.507812 19.757812 55.226562 18.632812 55.332031 L 18.425781 55.351562 C 17.300781 55.457031 16.328125 54.914062 16.253906 54.132812 L 16.253906 54.101562 C 16.179688 53.324219 17.03125 52.605469 18.15625 52.496094 L 18.363281 52.476562 C 19.488281 52.371094 20.460938 52.914062 20.535156 53.695312 Z M 20.535156 53.695312 "/>
<path style=" stroke:none;fill-rule:nonzero;fill:rgb(100%,65.490198%,14.901961%);fill-opacity:1;" d="M 19.585938 53.800781 C 19.609375 54.0625 19.097656 54.328125 18.441406 54.390625 C 17.785156 54.453125 17.230469 54.289062 17.207031 54.027344 C 17.179688 53.765625 17.691406 53.5 18.351562 53.4375 C 19.007812 53.375 19.558594 53.539062 19.585938 53.800781 Z M 19.585938 53.800781 "/>
<path style=" stroke:none;fill-rule:nonzero;fill:rgb(89.803922%,22.352941%,20.784314%);fill-opacity:1;" d="M 28.378906 53.777344 L 28.382812 53.800781 C 28.445312 54.472656 27.714844 55.089844 26.75 55.179688 L 26.570312 55.195312 C 25.605469 55.289062 24.773438 54.820312 24.707031 54.152344 L 24.707031 54.125 C 24.640625 53.457031 25.375 52.839844 26.339844 52.746094 L 26.515625 52.730469 C 27.480469 52.640625 28.316406 53.105469 28.378906 53.777344 Z M 28.378906 53.777344 "/>
<path style=" stroke:none;fill-rule:nonzero;fill:rgb(100%,65.490198%,14.901961%);fill-opacity:1;" d="M 27.566406 53.867188 C 27.585938 54.09375 27.148438 54.316406 26.582031 54.371094 C 26.019531 54.425781 25.546875 54.285156 25.523438 54.0625 C 25.503906 53.835938 25.941406 53.609375 26.503906 53.554688 C 27.070312 53.5 27.542969 53.640625 27.566406 53.867188 Z M 27.566406 53.867188 "/>
<path style=" stroke:none;fill-rule:nonzero;fill:rgb(89.803922%,22.352941%,20.784314%);fill-opacity:1;" d="M 40.777344 53.894531 L 40.78125 53.914062 C 40.832031 54.457031 40.238281 54.960938 39.453125 55.035156 L 39.308594 55.046875 C 38.523438 55.121094 37.847656 54.742188 37.796875 54.199219 L 37.792969 54.175781 C 37.742188 53.632812 38.335938 53.132812 39.121094 53.058594 L 39.265625 53.042969 C 40.046875 52.96875 40.726562 53.351562 40.777344 53.894531 Z M 40.777344 53.894531 "/>
<path style=" stroke:none;fill-rule:nonzero;fill:rgb(100%,65.490198%,14.901961%);fill-opacity:1;" d="M 40.117188 53.96875 C 40.132812 54.148438 39.777344 54.335938 39.316406 54.378906 C 38.859375 54.421875 38.476562 54.308594 38.457031 54.125 C 38.441406 53.941406 38.796875 53.757812 39.253906 53.714844 C 39.714844 53.671875 40.097656 53.785156 40.117188 53.96875 Z M 40.117188 53.96875 "/>
<path style=" stroke:none;fill-rule:nonzero;fill:rgb(29.803923%,68.627453%,31.37255%);fill-opacity:1;" d="M 52.378906 17.796875 L 51.320312 8.800781 C 46.1875 10.609375 49.277344 14.453125 52.378906 17.796875 Z M 52.378906 17.796875 "/>
<path style=" stroke:none;fill-rule:nonzero;fill:rgb(40.000001%,73.333335%,41.568628%);fill-opacity:1;" d="M 37.855469 7.449219 C 41.121094 9.484375 45.613281 9.382812 49.4375 13.800781 L 52.378906 17.796875 C 56.03125 21.757812 58.527344 26.824219 58.140625 32.085938 C 62.683594 37.332031 61.148438 40.746094 59.789062 44.550781 C 58.347656 41.574219 56.847656 38.582031 56.316406 35.910156 C 55.507812 39.808594 52.167969 41.007812 49.261719 42.671875 C 52.941406 38.828125 51.476562 34.183594 52.144531 29.441406 C 49.199219 30.664062 46.300781 31.949219 42.148438 31.558594 C 43.1875 26.734375 45.835938 24.722656 48.734375 23.148438 C 45.207031 20.882812 40.792969 18.445312 36.03125 18.210938 C 40.710938 15.25 44.761719 14.585938 48.027344 16.796875 C 38.453125 12.632812 37.007812 10.765625 37.855469 7.449219 Z M 37.855469 7.449219 "/>
<path style=" stroke:none;fill-rule:nonzero;fill:rgb(29.803923%,68.627453%,31.37255%);fill-opacity:1;" d="M 48.804688 17.050781 C 50.183594 16.253906 52.902344 18.378906 54.875 21.796875 C 56.847656 25.214844 57.328125 28.628906 55.949219 29.425781 C 54.574219 30.21875 51.855469 28.09375 49.882812 24.679688 C 47.910156 21.261719 47.429688 17.847656 48.804688 17.050781 Z M 48.804688 17.050781 "/>
<path style=" stroke:none;fill-rule:nonzero;fill:rgb(40.000001%,73.333335%,41.568628%);fill-opacity:1;" d="M 53.546875 24.257812 C 56.945312 23.6875 59.0625 21.445312 60.292969 18.523438 C 61.203125 17.144531 58.351562 14.863281 58.359375 17.25 C 57.183594 19.96875 55.683594 21.429688 52.066406 21.699219 C 50.695312 21.980469 51.636719 24.019531 53.546875 24.257812 Z M 53.546875 24.257812 "/>
<path style=" stroke:none;fill-rule:nonzero;fill:rgb(64.705884%,83.92157%,65.490198%);fill-opacity:1;" d="M 46.761719 12.691406 C 46.59375 12.988281 45.597656 12.730469 44.542969 12.125 C 43.488281 11.515625 42.773438 10.78125 42.945312 10.484375 C 43.113281 10.191406 44.105469 10.445312 45.160156 11.054688 C 46.214844 11.664062 46.933594 12.394531 46.761719 12.691406 Z M 46.761719 12.691406 "/>
<path style=" stroke:none;fill-rule:nonzero;fill:rgb(64.705884%,83.92157%,65.490198%);fill-opacity:1;" d="M 41.195312 16.628906 C 41.214844 16.8125 40.90625 17.054688 40.5 17.175781 C 40.097656 17.296875 39.75 17.246094 39.730469 17.0625 C 39.710938 16.882812 40.019531 16.636719 40.425781 16.515625 C 40.828125 16.394531 41.175781 16.445312 41.195312 16.628906 Z M 41.195312 16.628906 "/>
<path style=" stroke:none;fill-rule:nonzero;fill:rgb(50.588238%,78.039217%,51.764709%);fill-opacity:1;" d="M 47.183594 25.421875 C 47.363281 25.726562 46.902344 26.4375 46.152344 27.007812 C 45.398438 27.578125 44.644531 27.796875 44.460938 27.492188 C 44.28125 27.1875 44.742188 26.480469 45.496094 25.90625 C 46.246094 25.335938 47.003906 25.121094 47.183594 25.421875 Z M 47.183594 25.421875 "/>
<path style=" stroke:none;fill-rule:nonzero;fill:rgb(64.705884%,83.92157%,65.490198%);fill-opacity:1;" d="M 51.976562 22.128906 C 51.921875 22.367188 52.273438 22.558594 52.757812 22.558594 C 53.238281 22.558594 53.671875 22.363281 53.722656 22.125 C 53.777344 21.886719 53.425781 21.691406 52.941406 21.695312 C 52.460938 21.695312 52.027344 21.890625 51.976562 22.128906 Z M 51.976562 22.128906 "/>
</g>
</svg>
