<?xml version="1.0" encoding="UTF-8"?>
<svg xmlns="http://www.w3.org/2000/svg" xmlns:xlink="http://www.w3.org/1999/xlink" width="64px" height="64px" viewBox="0 0 64 64" version="1.1">
<g id="surface1">
<path style=" stroke:none;fill-rule:nonzero;fill:rgb(100%,65.490198%,14.901961%);fill-opacity:1;" d="M 54.238281 3.144531 C 54.113281 3.148438 53.992188 3.171875 53.871094 3.210938 L 8.890625 17.761719 C 8.347656 17.9375 7.976562 18.445312 7.976562 19.019531 L 7.976562 30.925781 C 7.976562 31.824219 8.851562 32.464844 9.707031 32.1875 L 54.6875 17.632812 C 55.230469 17.457031 55.601562 16.949219 55.601562 16.375 L 55.601562 4.46875 C 55.601562 3.722656 54.984375 3.125 54.238281 3.144531 Z M 54.238281 3.144531 "/>
<path style=" stroke:none;fill-rule:nonzero;fill:rgb(100%,65.490198%,14.901961%);fill-opacity:1;" d="M 54.238281 32.25 C 54.113281 32.253906 53.992188 32.273438 53.871094 32.3125 L 8.890625 46.867188 C 8.347656 47.042969 7.976562 47.550781 7.976562 48.125 L 7.976562 60.03125 C 7.976562 60.929688 8.851562 61.566406 9.707031 61.289062 L 54.6875 46.738281 C 55.230469 46.5625 55.601562 46.054688 55.601562 45.480469 L 55.601562 33.574219 C 55.601562 32.828125 54.984375 32.226562 54.238281 32.25 Z M 54.238281 32.25 "/>
<path style=" stroke:none;fill-rule:nonzero;fill:rgb(100%,80.000001%,50.196081%);fill-opacity:1;" d="M 9.316406 17.695312 C 8.578125 17.6875 7.976562 18.28125 7.976562 19.019531 L 7.976562 30.925781 C 7.976562 31.5 8.347656 32.007812 8.890625 32.1875 L 53.871094 46.738281 C 54.726562 47.015625 55.601562 46.378906 55.601562 45.480469 L 55.601562 33.574219 C 55.601562 33 55.230469 32.492188 54.6875 32.3125 L 9.707031 17.761719 C 9.582031 17.71875 9.449219 17.699219 9.316406 17.695312 Z M 9.316406 17.695312 "/>
</g>
</svg>
