<?xml version="1.0" encoding="UTF-8"?>
<svg xmlns="http://www.w3.org/2000/svg" xmlns:xlink="http://www.w3.org/1999/xlink" width="64" height="64" viewBox="0 0 64 64" version="1.1">
<g id="surface1">
<path style=" stroke:none;fill-rule:nonzero;fill:rgb(93.725491%,32.549021%,31.37255%);fill-opacity:1;" d="M 5.292969 2.644531 L 58.207031 2.644531 C 59.667969 2.644531 60.855469 3.832031 60.855469 5.292969 L 60.855469 58.207031 C 60.855469 59.667969 59.667969 60.855469 58.207031 60.855469 L 5.292969 60.855469 C 3.832031 60.855469 2.644531 59.667969 2.644531 58.207031 L 2.644531 5.292969 C 2.644531 3.832031 3.832031 2.644531 5.292969 2.644531 Z M 5.292969 2.644531 "/>
<path style=" stroke:none;fill-rule:nonzero;fill:rgb(93.333334%,93.333334%,93.333334%);fill-opacity:1;" d="M 9.261719 7.9375 L 54.238281 7.9375 C 54.96875 7.9375 55.5625 8.53125 55.5625 9.261719 L 55.5625 54.238281 C 55.5625 54.96875 54.96875 55.5625 54.238281 55.5625 L 9.261719 55.5625 C 8.53125 55.5625 7.9375 54.96875 7.9375 54.238281 L 7.9375 9.261719 C 7.9375 8.53125 8.53125 7.9375 9.261719 7.9375 Z M 9.261719 7.9375 "/>
<path style=" stroke:none;fill-rule:nonzero;fill:rgb(93.725491%,32.549021%,31.37255%);fill-opacity:1;" d="M 31.75 13.230469 L 31.75 25.136719 L 23.8125 25.136719 L 23.8125 17.199219 L 15.875 17.199219 L 15.875 27.78125 L 7.9375 27.78125 L 7.9375 35.71875 L 15.875 35.71875 L 15.875 46.300781 L 23.8125 46.300781 L 23.8125 38.363281 L 31.75 38.363281 L 31.75 50.269531 L 39.6875 50.269531 L 39.6875 42.332031 L 47.625 42.332031 L 47.625 35.71875 L 55.5625 35.71875 L 55.5625 27.78125 L 47.625 27.78125 L 47.625 21.167969 L 39.6875 21.167969 L 39.6875 13.230469 Z M 31.75 13.230469 "/>
</g>
</svg>
