
<svg xmlns="http://www.w3.org/2000/svg" xmlns:xlink="http://www.w3.org/1999/xlink" width="64px" height="64px" viewBox="0 0 64 64" version="1.1">
<g id="surface1">
<path style=" stroke:none;fill-rule:nonzero;fill:rgb(100%,79.215688%,15.686275%);fill-opacity:1;" d="M 31.75 2.644531 C 47.824219 2.644531 60.855469 15.675781 60.855469 31.75 C 60.855469 47.824219 47.824219 60.855469 31.75 60.855469 C 15.675781 60.855469 2.644531 47.824219 2.644531 31.75 C 2.644531 15.675781 15.675781 2.644531 31.75 2.644531 Z M 31.75 2.644531 "/>
<path style=" stroke:none;fill-rule:nonzero;fill:rgb(25.882354%,25.882354%,25.882354%);fill-opacity:1;" d="M 31.75 38.90625 L 26.164062 41.054688 C 27.234375 46.257812 26.480469 51.464844 29.484375 56.667969 C 30.402344 56.1875 30.570312 55.902344 31.75 55.96875 C 32.929688 55.902344 33.097656 56.1875 34.015625 56.667969 C 37.019531 51.464844 36.265625 46.257812 37.335938 41.054688 Z M 31.75 38.90625 "/>
<path style=" stroke:none;fill-rule:nonzero;fill:rgb(38.039216%,38.039216%,38.039216%);fill-opacity:1;" d="M 31.75 38.90625 L 28.253906 40.253906 C 28.925781 43.507812 28.453125 46.765625 30.332031 50.023438 C 30.90625 49.722656 31.011719 49.542969 31.75 49.585938 C 32.488281 49.542969 32.59375 49.722656 33.167969 50.023438 C 35.046875 46.765625 34.574219 43.507812 35.246094 40.253906 Z M 31.75 38.90625 "/>
<path style=" stroke:none;fill-rule:nonzero;fill:rgb(45.882353%,45.882353%,45.882353%);fill-opacity:1;" d="M 51.480469 27.996094 L 57.632812 22.589844 L 52.917969 19.636719 L 43.488281 27.476562 Z M 51.480469 27.996094 "/>
<path style=" stroke:none;fill-rule:nonzero;fill:rgb(45.882353%,45.882353%,45.882353%);fill-opacity:1;" d="M 37.839844 11.75 L 43.691406 7.574219 L 47.101562 12.71875 L 36.460938 16.71875 Z M 37.839844 11.75 "/>
<path style=" stroke:none;fill-rule:nonzero;fill:rgb(25.882354%,25.882354%,25.882354%);fill-opacity:1;" d="M 44.324219 39.101562 C 44.382812 39.511719 45.617188 52.800781 45.617188 52.800781 L 36.089844 44.097656 L 36.328125 38.160156 Z M 44.324219 39.101562 "/>
<path style=" stroke:none;fill-rule:nonzero;fill:rgb(38.039216%,38.039216%,38.039216%);fill-opacity:1;" d="M 34.0625 30.058594 L 31.75 31.265625 L 36.328125 38.160156 L 56.671875 41.980469 L 49.730469 31.980469 Z M 27.996094 31.894531 L 13.769531 31.980469 L 6.828125 41.980469 L 27.171875 38.160156 L 28.878906 32.382812 Z M 27.996094 31.894531 "/>
<path style=" stroke:none;fill-rule:nonzero;fill:rgb(61.960787%,61.960787%,61.960787%);fill-opacity:1;" d="M 35.503906 33.351562 L 60.855469 31.945312 L 49.9375 26.390625 C 41.65625 26.832031 40.113281 30.921875 35.503906 33.351562 Z M 35.503906 33.351562 "/>
<path style=" stroke:none;fill-rule:nonzero;fill:rgb(61.960787%,61.960787%,61.960787%);fill-opacity:1;" d="M 27.386719 39.417969 C 27.550781 44.273438 27.40625 47.738281 28.429688 50.109375 C 28.015625 48.40625 27.921875 46.628906 28.210938 44.769531 C 28.328125 46.953125 28.140625 48.25 29.078125 49.882812 C 28.433594 46.007812 29.050781 40.582031 29.964844 39.207031 Z M 27.386719 39.417969 "/>
<path style=" stroke:none;fill-rule:nonzero;fill:rgb(45.882353%,45.882353%,45.882353%);fill-opacity:1;" d="M 12.019531 27.996094 L 5.867188 22.589844 L 10.582031 19.636719 L 20.011719 27.476562 Z M 12.019531 27.996094 "/>
<path style=" stroke:none;fill-rule:nonzero;fill:rgb(61.960787%,61.960787%,61.960787%);fill-opacity:1;" d="M 28.246094 10.75 L 26.894531 10.394531 L 24.277344 8.839844 L 25.746094 13.628906 L 29.628906 14.71875 Z M 28.246094 10.75 "/>
<path style=" stroke:none;fill-rule:nonzero;fill:rgb(45.882353%,45.882353%,45.882353%);fill-opacity:1;" d="M 25.660156 11.75 L 19.808594 7.574219 L 16.398438 12.71875 L 27.039062 16.71875 Z M 25.660156 11.75 "/>
<path style=" stroke:none;fill-rule:nonzero;fill:rgb(61.960787%,61.960787%,61.960787%);fill-opacity:1;" d="M 9.820312 6.0625 C 2.644531 16.390625 11.335938 21.257812 15.304688 26.789062 L 24.675781 16.53125 L 21.265625 13.679688 C 17.453125 11.34375 9.253906 11.734375 9.820312 6.0625 Z M 53.679688 6.0625 C 54.246094 11.734375 46.046875 11.34375 42.234375 13.679688 L 38.824219 16.53125 L 48.195312 26.789062 C 52.164062 21.257812 60.855469 16.390625 53.679688 6.0625 Z M 53.679688 6.0625 "/>
<path style=" stroke:none;fill-rule:nonzero;fill:rgb(45.882353%,45.882353%,45.882353%);fill-opacity:1;" d="M 9.554688 9.304688 C 5.804688 16.960938 12.003906 21.933594 15.722656 26.085938 L 24.5 18.390625 L 21.304688 16.25 C 17.734375 14.5 9.023438 13.558594 9.554688 9.304688 Z M 9.554688 9.304688 "/>
<path style=" stroke:none;fill-rule:nonzero;fill:rgb(25.882354%,25.882354%,25.882354%);fill-opacity:1;" d="M 19.175781 39.101562 C 19.117188 39.511719 17.882812 52.800781 17.882812 52.800781 L 27.410156 44.097656 L 27.171875 38.160156 Z M 19.175781 39.101562 "/>
<path style=" stroke:none;fill-rule:nonzero;fill:rgb(61.960787%,61.960787%,61.960787%);fill-opacity:1;" d="M 27.996094 33.351562 L 2.644531 31.945312 L 13.5625 26.390625 C 21.84375 26.832031 23.386719 30.921875 27.996094 33.351562 Z M 27.996094 33.351562 "/>
<path style=" stroke:none;fill-rule:nonzero;fill:rgb(45.882353%,45.882353%,45.882353%);fill-opacity:1;" d="M 31.75 35.796875 L 27.054688 37.035156 C 26.074219 38.371094 29.992188 41.015625 31.75 40.722656 C 33.507812 41.015625 37.425781 38.371094 36.445312 37.035156 Z M 31.75 35.796875 "/>
<path style=" stroke:none;fill-rule:nonzero;fill:rgb(61.960787%,61.960787%,61.960787%);fill-opacity:1;" d="M 27.878906 36.527344 C 28.398438 37.980469 29.992188 39.199219 31.75 38.90625 L 31.75 34.96875 Z M 27.878906 36.527344 "/>
<path style=" stroke:none;fill-rule:nonzero;fill:rgb(45.882353%,45.882353%,45.882353%);fill-opacity:1;" d="M 54.035156 9.304688 C 57.785156 16.960938 51.585938 21.933594 47.867188 26.085938 L 39.085938 18.390625 L 42.28125 16.25 C 45.855469 14.5 54.5625 13.558594 54.035156 9.304688 Z M 54.035156 9.304688 "/>
<path style=" stroke:none;fill-rule:nonzero;fill:rgb(61.960787%,61.960787%,61.960787%);fill-opacity:1;" d="M 35.253906 10.75 L 36.605469 10.394531 L 39.222656 8.839844 L 37.753906 13.628906 L 33.871094 14.71875 Z M 35.253906 10.75 "/>
<path style=" stroke:none;fill-rule:nonzero;fill:rgb(61.960787%,61.960787%,61.960787%);fill-opacity:1;" d="M 35.621094 36.527344 C 35.101562 37.980469 33.507812 39.199219 31.75 38.90625 L 31.75 34.96875 Z M 35.621094 36.527344 "/>
<path style=" stroke:none;fill-rule:nonzero;fill:rgb(74.117649%,74.117649%,74.117649%);fill-opacity:1;" d="M 26.367188 8.90625 L 28.136719 13.359375 L 23.074219 13.964844 C 21.019531 19.023438 17.8125 23.132812 13.5625 26.390625 C 17.785156 27.46875 21.601562 29.175781 24.804688 31.820312 C 26.933594 34.195312 25.871094 37.339844 27.054688 37.035156 C 29.386719 36.675781 30.152344 36.738281 31.75 36.785156 C 33.347656 36.738281 34.113281 36.675781 36.445312 37.035156 C 37.628906 37.339844 36.566406 34.195312 38.695312 31.820312 C 41.898438 29.175781 45.714844 27.46875 49.9375 26.390625 C 45.6875 23.132812 42.480469 19.023438 40.425781 13.964844 L 35.363281 13.359375 L 37.132812 8.90625 C 35.335938 9.195312 33.542969 9.574219 31.75 9.496094 C 29.957031 9.574219 28.164062 9.195312 26.367188 8.90625 Z M 26.367188 8.90625 "/>
<path style=" stroke:none;fill-rule:nonzero;fill:rgb(38.039216%,38.039216%,38.039216%);fill-opacity:1;" d="M 20.039062 21.800781 L 19.105469 23.214844 C 18.753906 28.246094 20.261719 31.4375 26.589844 29.847656 C 28.035156 31.089844 27.359375 34.597656 30.265625 35.003906 L 33.234375 35.003906 C 36.140625 34.597656 35.464844 31.089844 36.910156 29.847656 C 43.238281 31.4375 44.746094 28.246094 44.394531 23.214844 L 43.460938 21.800781 L 33.898438 26.539062 L 31.75 30.027344 L 29.601562 26.539062 Z M 20.039062 21.800781 "/>
<path style=" stroke:none;fill-rule:nonzero;fill:rgb(45.882353%,45.882353%,45.882353%);fill-opacity:1;" d="M 20.039062 19.972656 L 19.105469 21.382812 C 18.753906 26.417969 20.261719 29.609375 26.589844 28.019531 C 28.035156 29.257812 27.359375 32.769531 30.265625 33.175781 L 33.234375 33.175781 C 36.140625 32.769531 35.464844 29.257812 36.910156 28.019531 C 43.238281 29.609375 44.746094 26.417969 44.394531 21.382812 L 43.460938 19.972656 L 33.898438 24.710938 L 31.75 28.199219 L 29.601562 24.710938 Z M 20.039062 19.972656 "/>
<path style=" stroke:none;fill-rule:nonzero;fill:rgb(25.882354%,25.882354%,25.882354%);fill-opacity:1;" d="M 24.628906 18.246094 C 27.179688 18.246094 29.246094 20.3125 29.246094 22.863281 C 29.246094 25.410156 27.179688 27.476562 24.628906 27.476562 C 22.078125 27.476562 20.011719 25.410156 20.011719 22.863281 C 20.011719 20.3125 22.078125 18.246094 24.628906 18.246094 Z M 24.628906 18.246094 "/>
<path style=" stroke:none;fill-rule:nonzero;fill:rgb(100%,79.215688%,15.686275%);fill-opacity:1;" d="M 24.644531 21.820312 C 25.863281 21.820312 26.851562 22.808594 26.851562 24.027344 C 26.851562 25.246094 25.863281 26.234375 24.644531 26.234375 C 23.425781 26.234375 22.433594 25.246094 22.433594 24.027344 C 22.433594 22.808594 23.425781 21.820312 24.644531 21.820312 Z M 24.644531 21.820312 "/>
<path style=" stroke:none;fill-rule:nonzero;fill:rgb(100%,92.54902%,70.19608%);fill-opacity:1;" d="M 24.644531 22.667969 C 25.394531 22.667969 26.003906 23.277344 26.003906 24.027344 C 26.003906 24.78125 25.394531 25.390625 24.644531 25.390625 C 23.890625 25.390625 23.28125 24.78125 23.28125 24.027344 C 23.28125 23.277344 23.890625 22.667969 24.644531 22.667969 Z M 24.644531 22.667969 "/>
<path style=" stroke:none;fill-rule:nonzero;fill:rgb(38.039216%,38.039216%,38.039216%);fill-opacity:1;" d="M 22.574219 14.378906 C 21.316406 17.511719 30.800781 18.386719 28.132812 24.667969 L 19.871094 19.347656 Z M 22.574219 14.378906 "/>
<path style=" stroke:none;fill-rule:nonzero;fill:rgb(74.117649%,74.117649%,74.117649%);fill-opacity:1;" d="M 31.734375 23.609375 C 33.019531 23.609375 34.0625 24.351562 34.0625 25.265625 L 34.0625 30.160156 C 34.0625 31.074219 33.019531 31.820312 31.734375 31.820312 C 30.449219 31.820312 29.40625 31.074219 29.40625 30.160156 L 29.40625 25.265625 C 29.40625 24.351562 30.449219 23.609375 31.734375 23.609375 Z M 31.734375 23.609375 "/>
<path style=" stroke:none;fill-rule:nonzero;fill:rgb(25.882354%,25.882354%,25.882354%);fill-opacity:1;" d="M 26.617188 18.941406 L 30.410156 18.441406 L 31.75 28.226562 L 27.117188 24.378906 Z M 26.617188 18.941406 "/>
<path style=" stroke:none;fill-rule:nonzero;fill:rgb(87.843138%,87.843138%,87.843138%);fill-opacity:1;" d="M 19.871094 19.347656 L 30.777344 25.375 L 31.75 28.226562 L 18.429688 20.878906 Z M 19.871094 19.347656 "/>
<path style=" stroke:none;fill-rule:nonzero;fill:rgb(87.843138%,87.843138%,87.843138%);fill-opacity:1;" d="M 27.171875 38.160156 C 27.964844 37.542969 27.976562 37.417969 29.234375 39.113281 C 28.582031 40.359375 28.015625 41.621094 28.175781 43.023438 C 27.542969 41.578125 27.140625 39.996094 27.171875 38.160156 Z M 27.171875 38.160156 "/>
<path style=" stroke:none;fill-rule:nonzero;fill:rgb(87.843138%,87.843138%,87.843138%);fill-opacity:1;" d="M 29.25 39.355469 C 29.632812 39.113281 29.636719 39.0625 30.242188 39.738281 C 29.929688 40.234375 29.652344 40.734375 29.730469 41.292969 C 29.425781 40.71875 29.230469 40.089844 29.25 39.355469 Z M 29.25 39.355469 "/>
<path style=" stroke:none;fill-rule:nonzero;fill:rgb(87.843138%,87.843138%,87.843138%);fill-opacity:1;" d="M 30.453125 39.773438 C 30.835938 39.527344 31.257812 38.878906 31.480469 39.976562 C 31.164062 40.96875 30.886719 40.84375 30.964844 41.402344 C 30.613281 40.847656 30.195312 40.613281 30.453125 39.773438 Z M 30.453125 39.773438 "/>
<path style=" stroke:none;fill-rule:nonzero;fill:rgb(61.960787%,61.960787%,61.960787%);fill-opacity:1;" d="M 28.46875 54.890625 C 28.578125 53.617188 30.554688 54.214844 31.75 54.027344 L 31.75 57.414062 C 30.71875 57.34375 28.707031 56.96875 28.660156 56.480469 C 28.480469 55.980469 28.976562 55.523438 28.46875 54.890625 Z M 28.46875 54.890625 "/>
<path style=" stroke:none;fill-rule:nonzero;fill:rgb(87.843138%,87.843138%,87.843138%);fill-opacity:1;" d="M 28.46875 54.890625 C 29.261719 55.507812 28.84375 54.445312 29.632812 53.386719 C 28.984375 52.140625 28.738281 51.5625 28.429688 50.109375 C 27.800781 51.558594 28.007812 53.789062 28.46875 54.890625 Z M 28.46875 54.890625 "/>
<path style=" stroke:none;fill-rule:nonzero;fill:rgb(93.333334%,93.333334%,93.333334%);fill-opacity:1;" d="M 29.632812 53.386719 C 29.839844 53.320312 29.910156 53.457031 29.980469 53.59375 C 29.917969 54.144531 29.996094 54.488281 30.042969 54.882812 C 29.625 54.460938 29.316406 54.207031 29.632812 53.386719 Z M 29.632812 53.386719 "/>
<path style=" stroke:none;fill-rule:nonzero;fill:rgb(93.333334%,93.333334%,93.333334%);fill-opacity:1;" d="M 30.269531 53.621094 C 30.445312 53.5 30.558594 53.574219 30.664062 53.667969 C 30.640625 54.070312 30.707031 54.4375 30.808594 54.820312 L 30.285156 54.816406 C 30.191406 54.386719 30.199219 54.039062 30.269531 53.621094 Z M 30.269531 53.621094 "/>
<path style=" stroke:none;fill-rule:nonzero;fill:rgb(93.333334%,93.333334%,93.333334%);fill-opacity:1;" d="M 31.128906 53.609375 C 31.109375 54.25 30.636719 54.902344 31.554688 54.835938 L 31.445312 54.511719 L 31.390625 53.589844 Z M 31.128906 53.609375 "/>
<path style=" stroke:none;fill-rule:nonzero;fill:rgb(61.960787%,61.960787%,61.960787%);fill-opacity:1;" d="M 36.113281 39.417969 C 35.949219 44.273438 36.09375 47.738281 35.070312 50.109375 C 35.484375 48.40625 35.578125 46.628906 35.289062 44.769531 C 35.171875 46.953125 35.359375 48.25 34.421875 49.882812 C 35.066406 46.007812 34.449219 40.582031 33.535156 39.207031 Z M 36.113281 39.417969 "/>
<path style=" stroke:none;fill-rule:nonzero;fill:rgb(25.882354%,25.882354%,25.882354%);fill-opacity:1;" d="M 38.871094 18.246094 C 36.320312 18.246094 34.253906 20.3125 34.253906 22.863281 C 34.253906 25.410156 36.320312 27.476562 38.871094 27.476562 C 41.421875 27.476562 43.488281 25.410156 43.488281 22.863281 C 43.488281 20.3125 41.421875 18.246094 38.871094 18.246094 Z M 38.871094 18.246094 "/>
<path style=" stroke:none;fill-rule:nonzero;fill:rgb(100%,79.215688%,15.686275%);fill-opacity:1;" d="M 38.855469 21.820312 C 37.636719 21.820312 36.648438 22.808594 36.648438 24.027344 C 36.648438 25.246094 37.636719 26.234375 38.855469 26.234375 C 40.074219 26.234375 41.066406 25.246094 41.066406 24.027344 C 41.066406 22.808594 40.074219 21.820312 38.855469 21.820312 Z M 38.855469 21.820312 "/>
<path style=" stroke:none;fill-rule:nonzero;fill:rgb(100%,92.54902%,70.19608%);fill-opacity:1;" d="M 38.855469 22.667969 C 38.105469 22.667969 37.496094 23.277344 37.496094 24.027344 C 37.496094 24.78125 38.105469 25.390625 38.855469 25.390625 C 39.609375 25.390625 40.21875 24.78125 40.21875 24.027344 C 40.21875 23.277344 39.609375 22.667969 38.855469 22.667969 Z M 38.855469 22.667969 "/>
<path style=" stroke:none;fill-rule:nonzero;fill:rgb(38.039216%,38.039216%,38.039216%);fill-opacity:1;" d="M 40.925781 14.378906 C 42.183594 17.511719 32.699219 18.386719 35.367188 24.667969 L 43.628906 19.347656 Z M 40.925781 14.378906 "/>
<path style=" stroke:none;fill-rule:nonzero;fill:rgb(25.882354%,25.882354%,25.882354%);fill-opacity:1;" d="M 36.882812 18.941406 L 33.089844 18.441406 L 31.75 28.226562 L 36.382812 24.378906 Z M 36.882812 18.941406 "/>
<path style=" stroke:none;fill-rule:nonzero;fill:rgb(87.843138%,87.843138%,87.843138%);fill-opacity:1;" d="M 43.628906 19.347656 L 32.722656 25.375 L 31.75 28.226562 L 45.070312 20.878906 Z M 43.628906 19.347656 "/>
<path style=" stroke:none;fill-rule:nonzero;fill:rgb(87.843138%,87.843138%,87.843138%);fill-opacity:1;" d="M 36.328125 38.160156 C 35.535156 37.542969 35.523438 37.417969 34.265625 39.113281 C 34.917969 40.359375 35.484375 41.621094 35.324219 43.023438 C 35.957031 41.578125 36.359375 39.996094 36.328125 38.160156 Z M 36.328125 38.160156 "/>
<path style=" stroke:none;fill-rule:nonzero;fill:rgb(87.843138%,87.843138%,87.843138%);fill-opacity:1;" d="M 34.25 39.355469 C 33.867188 39.113281 33.863281 39.0625 33.257812 39.738281 C 33.570312 40.234375 33.847656 40.734375 33.769531 41.292969 C 34.074219 40.71875 34.269531 40.089844 34.25 39.355469 Z M 34.25 39.355469 "/>
<path style=" stroke:none;fill-rule:nonzero;fill:rgb(87.843138%,87.843138%,87.843138%);fill-opacity:1;" d="M 33.046875 39.773438 C 32.664062 39.527344 32.242188 38.878906 32.019531 39.976562 C 32.335938 40.96875 32.613281 40.84375 32.535156 41.402344 C 32.886719 40.847656 33.304688 40.613281 33.046875 39.773438 Z M 33.046875 39.773438 "/>
<path style=" stroke:none;fill-rule:nonzero;fill:rgb(61.960787%,61.960787%,61.960787%);fill-opacity:1;" d="M 35.03125 54.890625 C 34.921875 53.617188 32.945312 54.214844 31.75 54.027344 L 31.75 57.414062 C 32.78125 57.34375 34.792969 56.96875 34.839844 56.480469 C 35.019531 55.980469 34.523438 55.523438 35.03125 54.890625 Z M 35.03125 54.890625 "/>
<path style=" stroke:none;fill-rule:nonzero;fill:rgb(87.843138%,87.843138%,87.843138%);fill-opacity:1;" d="M 35.03125 54.890625 C 34.238281 55.507812 34.65625 54.445312 33.867188 53.386719 C 34.515625 52.140625 34.761719 51.5625 35.070312 50.109375 C 35.699219 51.558594 35.492188 53.789062 35.03125 54.890625 Z M 35.03125 54.890625 "/>
<path style=" stroke:none;fill-rule:nonzero;fill:rgb(93.333334%,93.333334%,93.333334%);fill-opacity:1;" d="M 33.867188 53.386719 C 33.660156 53.320312 33.589844 53.457031 33.519531 53.59375 C 33.582031 54.144531 33.503906 54.488281 33.457031 54.882812 C 33.875 54.460938 34.183594 54.207031 33.867188 53.386719 Z M 33.867188 53.386719 "/>
<path style=" stroke:none;fill-rule:nonzero;fill:rgb(93.333334%,93.333334%,93.333334%);fill-opacity:1;" d="M 33.230469 53.621094 C 33.054688 53.5 32.941406 53.574219 32.835938 53.667969 C 32.859375 54.070312 32.792969 54.4375 32.691406 54.820312 L 33.214844 54.816406 C 33.308594 54.386719 33.300781 54.039062 33.230469 53.621094 Z M 33.230469 53.621094 "/>
<path style=" stroke:none;fill-rule:nonzero;fill:rgb(93.333334%,93.333334%,93.333334%);fill-opacity:1;" d="M 32.371094 53.609375 C 32.390625 54.25 32.863281 54.902344 31.945312 54.835938 L 32.054688 54.511719 L 32.109375 53.589844 Z M 32.371094 53.609375 "/>
<path style=" stroke:none;fill-rule:nonzero;fill:rgb(25.882354%,25.882354%,25.882354%);fill-opacity:1;" d="M 30.625 33.652344 C 31.015625 33.78125 31.289062 34.015625 31.234375 34.175781 C 31.183594 34.339844 30.824219 34.371094 30.433594 34.242188 C 30.042969 34.113281 29.769531 33.878906 29.824219 33.714844 C 29.875 33.554688 30.234375 33.523438 30.625 33.652344 Z M 30.625 33.652344 "/>
<path style=" stroke:none;fill-rule:nonzero;fill:rgb(25.882354%,25.882354%,25.882354%);fill-opacity:1;" d="M 32.886719 33.652344 C 32.5 33.78125 32.226562 34.015625 32.277344 34.175781 C 32.332031 34.339844 32.691406 34.371094 33.082031 34.242188 C 33.472656 34.113281 33.742188 33.878906 33.691406 33.714844 C 33.636719 33.554688 33.277344 33.523438 32.886719 33.652344 Z M 32.886719 33.652344 "/>
</g>
</svg>
