<?xml version="1.0" encoding="UTF-8"?>
<svg xmlns="http://www.w3.org/2000/svg" xmlns:xlink="http://www.w3.org/1999/xlink" width="64px" height="64px" viewBox="0 0 64 64" version="1.1">
<g id="surface1">
<path style=" stroke:none;fill-rule:nonzero;fill:rgb(47.058824%,56.470591%,61.176473%);fill-opacity:1;" d="M 6.613281 3.144531 L 56.886719 3.144531 C 59.078125 3.144531 60.855469 4.921875 60.855469 7.113281 L 60.855469 57.386719 C 60.855469 59.578125 59.078125 61.355469 56.886719 61.355469 L 6.613281 61.355469 C 4.421875 61.355469 2.644531 59.578125 2.644531 57.386719 L 2.644531 7.113281 C 2.644531 4.921875 4.421875 3.144531 6.613281 3.144531 Z M 6.613281 3.144531 "/>
<path style=" stroke:none;fill-rule:nonzero;fill:rgb(74.117649%,74.117649%,74.117649%);fill-opacity:1;" d="M 31.75 13.730469 C 28.035156 13.730469 24.847656 15.894531 23.371094 19.035156 C 20.089844 19.210938 17.351562 21.363281 16.316406 24.332031 C 16.171875 24.320312 16.023438 24.3125 15.875 24.3125 C 12.945312 24.3125 10.582031 26.671875 10.582031 29.605469 C 10.582031 32.535156 12.945312 34.894531 15.875 34.894531 L 38.363281 34.894531 C 42.027344 34.894531 44.980469 31.945312 44.980469 28.28125 C 44.980469 25.546875 43.335938 23.207031 40.976562 22.199219 C 40.578125 17.441406 36.613281 13.730469 31.75 13.730469 Z M 31.75 13.730469 "/>
<path style=" stroke:none;fill-rule:nonzero;fill:rgb(93.333334%,93.333334%,93.333334%);fill-opacity:1;" d="M 41.042969 29.070312 C 37.332031 29.070312 34.140625 31.234375 32.664062 34.375 C 29.382812 34.554688 26.644531 36.707031 25.613281 39.671875 C 25.464844 39.660156 25.316406 39.65625 25.167969 39.65625 C 22.238281 39.65625 19.878906 42.015625 19.878906 44.945312 C 19.878906 47.878906 22.238281 50.238281 25.167969 50.238281 L 47.660156 50.238281 C 51.324219 50.238281 54.273438 47.289062 54.273438 43.625 C 54.273438 40.886719 52.628906 38.550781 50.269531 37.542969 C 49.871094 32.785156 45.90625 29.070312 41.042969 29.070312 Z M 41.042969 29.070312 "/>
</g>
</svg>
