
<svg xmlns="http://www.w3.org/2000/svg" xmlns:xlink="http://www.w3.org/1999/xlink" width="64px" height="64px" viewBox="0 0 64 64" version="1.1">
<g id="surface1">
<path style=" stroke:none;fill-rule:nonzero;fill:rgb(93.725491%,32.549021%,31.37255%);fill-opacity:1;" d="M 31.75 5.292969 C 46.363281 5.292969 58.207031 17.136719 58.207031 31.75 C 58.207031 46.363281 46.363281 58.207031 31.75 58.207031 C 17.136719 58.207031 5.292969 46.363281 5.292969 31.75 C 5.292969 17.136719 17.136719 5.292969 31.75 5.292969 Z M 31.75 5.292969 "/>
<path style=" stroke:none;fill-rule:nonzero;fill:rgb(100%,65.490198%,14.901961%);fill-opacity:1;" d="M 31.75 2.644531 C 15.625 2.644531 2.644531 15.625 2.644531 31.75 C 2.644531 47.875 15.625 60.855469 31.75 60.855469 C 47.875 60.855469 60.855469 47.875 60.855469 31.75 C 60.855469 15.625 47.875 2.644531 31.75 2.644531 Z M 31.75 7.9375 C 44.941406 7.9375 55.5625 18.558594 55.5625 31.75 C 55.5625 42.226562 48.863281 51.082031 39.5 54.28125 C 41.242188 51.261719 42.292969 46.421875 42.332031 37.570312 L 46.300781 38.363281 L 39.6875 25.136719 L 33.074219 38.363281 L 37.027344 37.574219 C 36.671875 43.9375 29.957031 47.324219 23.722656 49.285156 C 23.417969 35.386719 23.070312 21.566406 35.1875 21.175781 L 34.394531 25.136719 L 47.625 18.519531 L 34.394531 11.90625 L 35.191406 15.882812 C 21.863281 16.175781 11.976562 27.621094 10.71875 42.960938 C 8.941406 39.625 7.9375 35.808594 7.9375 31.75 C 7.9375 18.558594 18.558594 7.9375 31.75 7.9375 Z M 31.75 7.9375 "/>
<path style=" stroke:none;fill-rule:nonzero;fill:rgb(100%,79.215688%,15.686275%);fill-opacity:1;" d="M 31.75 2.644531 C 15.625 2.644531 2.644531 15.625 2.644531 31.75 C 2.644531 47.875 15.625 60.855469 31.75 60.855469 C 47.875 60.855469 60.855469 47.875 60.855469 31.75 C 60.855469 15.625 47.875 2.644531 31.75 2.644531 Z M 31.75 7.9375 C 44.941406 7.9375 55.5625 18.558594 55.5625 31.75 C 55.5625 42.226562 48.863281 51.082031 39.5 54.28125 C 41.242188 51.261719 42.292969 46.421875 42.332031 37.570312 L 46.300781 38.363281 L 39.6875 25.136719 L 33.074219 38.363281 L 37.027344 37.574219 C 36.671875 43.9375 29.957031 47.324219 23.722656 49.285156 C 23.417969 35.386719 23.070312 21.566406 35.1875 21.175781 L 34.394531 25.136719 L 47.625 18.519531 L 34.394531 11.90625 L 35.191406 15.882812 C 21.863281 16.175781 11.976562 27.621094 10.71875 42.960938 C 8.941406 39.625 7.9375 35.808594 7.9375 31.75 C 7.9375 18.558594 18.558594 7.9375 31.75 7.9375 Z M 31.75 7.9375 "/>
<path style=" stroke:none;fill-rule:nonzero;fill:rgb(100%,70.19608%,0%);fill-opacity:1;" d="M 60.382812 26.488281 C 58.585938 26.523438 56.800781 26.589844 55.027344 26.6875 C 55.378906 28.316406 55.5625 30.011719 55.5625 31.75 C 55.5625 42.226562 48.863281 51.082031 39.5 54.28125 C 41.242188 51.261719 42.292969 46.421875 42.332031 37.570312 L 46.300781 38.363281 L 41.15625 28.074219 C 40.085938 28.230469 39.019531 28.402344 37.964844 28.582031 L 33.074219 38.363281 L 37.027344 37.574219 C 36.671875 43.9375 29.957031 47.324219 23.722656 49.285156 C 23.585938 42.941406 23.4375 36.617188 24.46875 31.578125 C 20.136719 32.777344 15.976562 34.167969 12.019531 35.734375 C 11.367188 38.015625 10.925781 40.4375 10.71875 42.960938 C 9.761719 41.160156 9.027344 39.21875 8.554688 37.175781 C 6.886719 37.902344 5.253906 38.664062 3.667969 39.453125 C 7.027344 51.816406 18.296875 60.855469 31.75 60.855469 C 47.875 60.855469 60.855469 47.875 60.855469 31.75 C 60.855469 29.953125 60.691406 28.195312 60.382812 26.488281 Z M 60.382812 26.488281 "/>
<path style=" stroke:none;fill-rule:nonzero;fill:rgb(100%,87.843138%,50.980395%);fill-opacity:1;" d="M 22.527344 5.617188 C 22.660156 5.957031 21.941406 6.554688 20.921875 6.957031 C 19.902344 7.355469 18.964844 7.40625 18.832031 7.066406 C 18.699219 6.726562 19.417969 6.125 20.4375 5.726562 C 21.457031 5.324219 22.394531 5.277344 22.527344 5.617188 Z M 22.527344 5.617188 "/>
<path style=" stroke:none;fill-rule:nonzero;fill:rgb(100%,87.843138%,50.980395%);fill-opacity:1;" d="M 28.023438 19.136719 C 28.15625 19.476562 27.4375 20.078125 26.417969 20.476562 C 25.398438 20.878906 24.460938 20.925781 24.328125 20.585938 C 24.195312 20.246094 24.914062 19.644531 25.933594 19.246094 C 26.953125 18.84375 27.890625 18.796875 28.023438 19.136719 Z M 28.023438 19.136719 "/>
</g>
</svg>
