<?xml version="1.0" encoding="UTF-8"?>
<svg xmlns="http://www.w3.org/2000/svg" xmlns:xlink="http://www.w3.org/1999/xlink" width="64px" height="64px" viewBox="0 0 64 64" version="1.1">
<g id="surface1">
<path style=" stroke:none;fill-rule:nonzero;fill:rgb(87.843138%,87.843138%,87.843138%);fill-opacity:1;" d="M 31.75 3.144531 C 47.824219 3.144531 60.855469 16.175781 60.855469 32.25 C 60.855469 48.324219 47.824219 61.355469 31.75 61.355469 C 15.675781 61.355469 2.644531 48.324219 2.644531 32.25 C 2.644531 16.175781 15.675781 3.144531 31.75 3.144531 Z M 31.75 3.144531 "/>
<path style=" stroke:none;fill-rule:nonzero;fill:rgb(74.117649%,74.117649%,74.117649%);fill-opacity:1;" d="M 31.75 19.019531 C 39.054688 19.019531 44.980469 24.945312 44.980469 32.25 C 44.980469 39.554688 39.054688 45.480469 31.75 45.480469 C 24.445312 45.480469 18.519531 39.554688 18.519531 32.25 C 18.519531 24.945312 24.445312 19.019531 31.75 19.019531 Z M 31.75 19.019531 "/>
<path style=" stroke:none;fill-rule:nonzero;fill:rgb(25.882354%,25.882354%,25.882354%);fill-opacity:1;" d="M 49.523438 8.863281 L 55.136719 14.476562 C 55.652344 14.992188 55.652344 15.832031 55.136719 16.347656 L 15.847656 55.636719 C 15.332031 56.152344 14.492188 56.152344 13.976562 55.636719 L 8.363281 50.023438 C 7.847656 49.507812 7.847656 48.667969 8.363281 48.152344 L 47.652344 8.863281 C 48.167969 8.347656 49.007812 8.347656 49.523438 8.863281 Z M 49.523438 8.863281 "/>
<path style=" stroke:none;fill-rule:nonzero;fill:rgb(100%,65.490198%,14.901961%);fill-opacity:1;" d="M 49.523438 8.863281 C 49.003906 9.382812 49.003906 10.214844 49.523438 10.734375 L 53.265625 14.476562 C 53.785156 14.996094 54.617188 14.996094 55.136719 14.476562 Z M 49.523438 8.863281 "/>
<path style=" stroke:none;fill-rule:nonzero;fill:rgb(100%,65.490198%,14.901961%);fill-opacity:1;" d="M 10.234375 50.023438 C 9.714844 49.503906 8.882812 49.503906 8.363281 50.023438 L 13.976562 55.636719 C 14.496094 55.117188 14.496094 54.285156 13.976562 53.765625 Z M 10.234375 50.023438 "/>
<path style=" stroke:none;fill-rule:nonzero;fill:rgb(100%,65.490198%,14.901961%);fill-opacity:1;" d="M 17.71875 42.539062 L 21.460938 46.28125 C 21.976562 46.796875 21.976562 47.636719 21.460938 48.152344 L 17.71875 51.894531 C 17.203125 52.410156 16.363281 52.410156 15.847656 51.894531 L 12.105469 48.152344 C 11.589844 47.636719 11.589844 46.796875 12.105469 46.28125 L 15.847656 42.539062 C 16.363281 42.023438 17.203125 42.023438 17.71875 42.539062 Z M 17.71875 42.539062 "/>
<path style=" stroke:none;fill-rule:nonzero;fill:rgb(100%,65.490198%,14.901961%);fill-opacity:1;" d="M 47.652344 12.605469 L 51.394531 16.347656 C 51.910156 16.863281 51.910156 17.703125 51.394531 18.21875 L 47.652344 21.960938 C 47.136719 22.476562 46.296875 22.476562 45.78125 21.960938 L 42.039062 18.21875 C 41.523438 17.703125 41.523438 16.863281 42.039062 16.347656 L 45.78125 12.605469 C 46.296875 12.089844 47.136719 12.089844 47.652344 12.605469 Z M 47.652344 12.605469 "/>
<path style=" stroke:none;fill-rule:nonzero;fill:rgb(100%,65.490198%,14.901961%);fill-opacity:1;" d="M 40.167969 20.089844 L 43.910156 23.832031 C 44.425781 24.347656 44.425781 25.183594 43.910156 25.703125 L 40.167969 29.445312 C 39.652344 29.960938 38.816406 29.960938 38.296875 29.445312 L 34.554688 25.703125 C 34.039062 25.183594 34.039062 24.347656 34.554688 23.832031 L 38.296875 20.089844 C 38.816406 19.574219 39.652344 19.574219 40.167969 20.089844 Z M 40.167969 20.089844 "/>
<path style=" stroke:none;fill-rule:nonzero;fill:rgb(100%,65.490198%,14.901961%);fill-opacity:1;" d="M 32.683594 27.574219 L 36.425781 31.316406 C 36.945312 31.832031 36.945312 32.667969 36.425781 33.183594 L 32.683594 36.925781 C 32.167969 37.445312 31.332031 37.445312 30.816406 36.925781 L 27.074219 33.183594 C 26.554688 32.667969 26.554688 31.832031 27.074219 31.316406 L 30.816406 27.574219 C 31.332031 27.054688 32.167969 27.054688 32.683594 27.574219 Z M 32.683594 27.574219 "/>
<path style=" stroke:none;fill-rule:nonzero;fill:rgb(100%,65.490198%,14.901961%);fill-opacity:1;" d="M 25.203125 35.054688 L 28.945312 38.796875 C 29.460938 39.316406 29.460938 40.152344 28.945312 40.667969 L 25.203125 44.410156 C 24.683594 44.925781 23.847656 44.925781 23.332031 44.410156 L 19.589844 40.667969 C 19.074219 40.152344 19.074219 39.316406 19.589844 38.796875 L 23.332031 35.054688 C 23.847656 34.539062 24.683594 34.539062 25.203125 35.054688 Z M 25.203125 35.054688 "/>
<path style=" stroke:none;fill-rule:nonzero;fill:rgb(25.882354%,25.882354%,25.882354%);fill-opacity:1;" d="M 55.136719 50.023438 L 49.523438 55.636719 C 49.007812 56.152344 48.167969 56.152344 47.652344 55.636719 L 8.363281 16.347656 C 7.847656 15.832031 7.847656 14.992188 8.363281 14.476562 L 13.976562 8.863281 C 14.492188 8.347656 15.332031 8.347656 15.847656 8.863281 L 55.136719 48.152344 C 55.652344 48.667969 55.652344 49.507812 55.136719 50.023438 Z M 55.136719 50.023438 "/>
<path style=" stroke:none;fill-rule:nonzero;fill:rgb(100%,65.490198%,14.901961%);fill-opacity:1;" d="M 55.136719 50.023438 C 54.617188 49.503906 53.785156 49.503906 53.265625 50.023438 L 49.523438 53.765625 C 49.003906 54.285156 49.003906 55.117188 49.523438 55.636719 Z M 55.136719 50.023438 "/>
<path style=" stroke:none;fill-rule:nonzero;fill:rgb(100%,65.490198%,14.901961%);fill-opacity:1;" d="M 13.976562 10.734375 C 14.496094 10.214844 14.496094 9.382812 13.976562 8.863281 L 8.363281 14.476562 C 8.882812 14.996094 9.714844 14.996094 10.234375 14.476562 Z M 13.976562 10.734375 "/>
<path style=" stroke:none;fill-rule:nonzero;fill:rgb(100%,65.490198%,14.901961%);fill-opacity:1;" d="M 21.460938 18.21875 L 17.71875 21.960938 C 17.203125 22.476562 16.363281 22.476562 15.847656 21.960938 L 12.105469 18.21875 C 11.589844 17.703125 11.589844 16.863281 12.105469 16.347656 L 15.847656 12.605469 C 16.363281 12.089844 17.203125 12.089844 17.71875 12.605469 L 21.460938 16.347656 C 21.976562 16.863281 21.976562 17.703125 21.460938 18.21875 Z M 21.460938 18.21875 "/>
<path style=" stroke:none;fill-rule:nonzero;fill:rgb(100%,65.490198%,14.901961%);fill-opacity:1;" d="M 51.394531 48.152344 L 47.652344 51.894531 C 47.136719 52.410156 46.296875 52.410156 45.78125 51.894531 L 42.039062 48.152344 C 41.523438 47.636719 41.523438 46.796875 42.039062 46.28125 L 45.78125 42.539062 C 46.296875 42.023438 47.136719 42.023438 47.652344 42.539062 L 51.394531 46.28125 C 51.910156 46.796875 51.910156 47.636719 51.394531 48.152344 Z M 51.394531 48.152344 "/>
<path style=" stroke:none;fill-rule:nonzero;fill:rgb(100%,65.490198%,14.901961%);fill-opacity:1;" d="M 43.910156 40.667969 L 40.167969 44.410156 C 39.652344 44.925781 38.816406 44.925781 38.296875 44.410156 L 34.554688 40.667969 C 34.039062 40.152344 34.039062 39.316406 34.554688 38.796875 L 38.296875 35.054688 C 38.816406 34.539062 39.652344 34.539062 40.167969 35.054688 L 43.910156 38.796875 C 44.425781 39.316406 44.425781 40.152344 43.910156 40.667969 Z M 43.910156 40.667969 "/>
<path style=" stroke:none;fill-rule:nonzero;fill:rgb(100%,65.490198%,14.901961%);fill-opacity:1;" d="M 36.425781 33.183594 L 32.683594 36.925781 C 32.167969 37.445312 31.332031 37.445312 30.816406 36.925781 L 27.074219 33.183594 C 26.554688 32.667969 26.554688 31.832031 27.074219 31.316406 L 30.816406 27.574219 C 31.332031 27.054688 32.167969 27.054688 32.683594 27.574219 L 36.425781 31.316406 C 36.945312 31.832031 36.945312 32.667969 36.425781 33.183594 Z M 36.425781 33.183594 "/>
<path style=" stroke:none;fill-rule:nonzero;fill:rgb(100%,65.490198%,14.901961%);fill-opacity:1;" d="M 28.945312 25.703125 L 25.203125 29.445312 C 24.683594 29.960938 23.847656 29.960938 23.332031 29.445312 L 19.589844 25.703125 C 19.074219 25.183594 19.074219 24.347656 19.589844 23.832031 L 23.332031 20.089844 C 23.847656 19.574219 24.683594 19.574219 25.203125 20.089844 L 28.945312 23.832031 C 29.460938 24.347656 29.460938 25.183594 28.945312 25.703125 Z M 28.945312 25.703125 "/>
</g>
</svg>
