<?xml version="1.0" encoding="UTF-8"?>
<svg xmlns="http://www.w3.org/2000/svg" xmlns:xlink="http://www.w3.org/1999/xlink" width="64px" height="64px" viewBox="0 0 64 64" version="1.1">
<g id="surface1">
<path style=" stroke:none;fill-rule:nonzero;fill:rgb(77.64706%,15.686275%,15.686275%);fill-opacity:1;" d="M 58.207031 61.355469 L 5.292969 61.355469 C 3.832031 61.355469 2.644531 60.167969 2.644531 58.707031 L 2.644531 5.792969 C 2.644531 4.332031 3.832031 3.144531 5.292969 3.144531 L 58.207031 3.144531 C 59.667969 3.144531 60.855469 4.332031 60.855469 5.792969 L 60.855469 58.707031 C 60.855469 60.167969 59.667969 61.355469 58.207031 61.355469 Z M 58.207031 61.355469 "/>
<path style=" stroke:none;fill-rule:nonzero;fill:rgb(93.725491%,32.549021%,31.37255%);fill-opacity:1;" d="M 56.886719 58.707031 L 6.613281 58.707031 C 5.882812 58.707031 5.292969 58.117188 5.292969 57.386719 L 5.292969 7.113281 C 5.292969 6.382812 5.882812 5.792969 6.613281 5.792969 L 56.886719 5.792969 C 57.617188 5.792969 58.207031 6.382812 58.207031 7.113281 L 58.207031 57.386719 C 58.207031 58.117188 57.617188 58.707031 56.886719 58.707031 Z M 56.886719 58.707031 "/>
<path style=" stroke:none;fill-rule:nonzero;fill:rgb(93.333334%,93.333334%,93.333334%);fill-opacity:1;" d="M 27.78125 46.800781 C 27.78125 44.609375 29.558594 42.832031 31.75 42.832031 C 33.941406 42.832031 35.71875 44.609375 35.71875 46.800781 C 35.71875 48.992188 33.941406 50.769531 31.75 50.769531 C 29.558594 50.769531 27.78125 48.992188 27.78125 46.800781 Z M 27.78125 46.800781 "/>
<path style=" stroke:none;fill-rule:nonzero;fill:rgb(93.333334%,93.333334%,93.333334%);fill-opacity:1;" d="M 34.394531 38.863281 L 29.105469 38.863281 C 28.375 38.863281 27.78125 38.273438 27.78125 37.542969 L 27.78125 15.050781 C 27.78125 14.320312 28.375 13.730469 29.105469 13.730469 L 34.394531 13.730469 C 35.125 13.730469 35.71875 14.320312 35.71875 15.050781 L 35.71875 37.542969 C 35.71875 38.273438 35.125 38.863281 34.394531 38.863281 Z M 34.394531 38.863281 "/>
</g>
</svg>
