<?xml version="1.0" encoding="UTF-8"?>
<svg xmlns="http://www.w3.org/2000/svg" xmlns:xlink="http://www.w3.org/1999/xlink" width="64px" height="64px" viewBox="0 0 64 64" version="1.1">
<g id="surface1">
<path style=" stroke:none;fill-rule:nonzero;fill:rgb(0%,41.176471%,36.078432%);fill-opacity:1;" d="M 58.207031 61.355469 L 5.292969 61.355469 C 3.832031 61.355469 2.644531 60.167969 2.644531 58.707031 L 2.644531 5.792969 C 2.644531 4.332031 3.832031 3.144531 5.292969 3.144531 L 58.207031 3.144531 C 59.667969 3.144531 60.855469 4.332031 60.855469 5.792969 L 60.855469 58.707031 C 60.855469 60.167969 59.667969 61.355469 58.207031 61.355469 Z M 58.207031 61.355469 "/>
<path style=" stroke:none;fill-rule:nonzero;fill:rgb(14.901961%,65.098041%,60.392159%);fill-opacity:1;" d="M 56.886719 58.707031 L 6.613281 58.707031 C 5.882812 58.707031 5.292969 58.117188 5.292969 57.386719 L 5.292969 7.113281 C 5.292969 6.382812 5.882812 5.792969 6.613281 5.792969 L 56.886719 5.792969 C 57.617188 5.792969 58.207031 6.382812 58.207031 7.113281 L 58.207031 57.386719 C 58.207031 58.117188 57.617188 58.707031 56.886719 58.707031 Z M 56.886719 58.707031 "/>
<path style=" stroke:none;fill-rule:nonzero;fill:rgb(93.333334%,93.333334%,93.333334%);fill-opacity:1;" d="M 46.5 19.109375 C 46.160156 19.109375 45.824219 19.238281 45.5625 19.5 L 27.789062 37.273438 L 17.5 26.984375 C 16.984375 26.464844 16.148438 26.464844 15.628906 26.984375 L 11.886719 30.722656 C 11.371094 31.242188 11.371094 32.078125 11.886719 32.59375 L 26.855469 47.5625 C 26.871094 47.578125 26.886719 47.59375 26.90625 47.609375 C 26.9375 47.640625 26.972656 47.667969 27.007812 47.695312 C 27.042969 47.71875 27.082031 47.746094 27.121094 47.765625 C 27.136719 47.777344 27.15625 47.789062 27.175781 47.800781 C 27.214844 47.820312 27.253906 47.835938 27.292969 47.855469 C 27.332031 47.871094 27.375 47.882812 27.414062 47.894531 C 27.457031 47.910156 27.496094 47.917969 27.539062 47.925781 C 27.582031 47.933594 27.621094 47.941406 27.664062 47.945312 C 27.707031 47.949219 27.75 47.949219 27.789062 47.949219 C 27.792969 47.949219 27.792969 47.949219 27.792969 47.949219 C 27.835938 47.949219 27.875 47.949219 27.917969 47.945312 C 27.960938 47.941406 28 47.933594 28.042969 47.925781 C 28.082031 47.917969 28.117188 47.910156 28.152344 47.898438 C 28.164062 47.898438 28.171875 47.894531 28.183594 47.890625 C 28.21875 47.878906 28.253906 47.867188 28.289062 47.855469 C 28.320312 47.839844 28.355469 47.824219 28.386719 47.808594 C 28.414062 47.796875 28.4375 47.78125 28.460938 47.765625 C 28.5 47.746094 28.539062 47.71875 28.574219 47.695312 C 28.609375 47.667969 28.644531 47.640625 28.675781 47.609375 C 28.695312 47.59375 28.710938 47.578125 28.726562 47.5625 L 51.175781 25.113281 C 51.695312 24.59375 51.695312 23.757812 51.175781 23.242188 L 47.433594 19.5 C 47.175781 19.238281 46.839844 19.109375 46.5 19.109375 Z M 46.5 19.109375 "/>
</g>
</svg>
