<?xml version="1.0" encoding="UTF-8"?>
<svg xmlns="http://www.w3.org/2000/svg" xmlns:xlink="http://www.w3.org/1999/xlink" width="16px" height="16px" viewBox="0 0 16 16" version="1.1">
<g id="surface1">
<path style=" stroke:none;fill-rule:nonzero;fill:rgb(36.862746%,20.784314%,69.411767%);fill-opacity:1;" d="M 2.316406 1.777344 L 14.550781 1.777344 C 14.917969 1.777344 15.214844 2.074219 15.214844 2.441406 L 15.214844 6.410156 C 15.214844 6.773438 14.917969 7.070312 14.550781 7.070312 L 2.316406 7.070312 C 1.949219 7.070312 1.652344 6.773438 1.652344 6.410156 L 1.652344 2.441406 C 1.652344 2.074219 1.949219 1.777344 2.316406 1.777344 Z M 2.316406 1.777344 "/>
<path style=" stroke:none;fill-rule:nonzero;fill:rgb(96.078432%,96.078432%,96.078432%);fill-opacity:1;" d="M 7.9375 3.761719 L 14.550781 3.761719 C 14.734375 3.761719 14.882812 3.910156 14.882812 4.09375 L 14.882812 6.410156 C 14.882812 6.589844 14.734375 6.738281 14.550781 6.738281 L 7.9375 6.738281 C 7.753906 6.738281 7.605469 6.589844 7.605469 6.410156 L 7.605469 4.09375 C 7.605469 3.910156 7.753906 3.761719 7.9375 3.761719 Z M 7.9375 3.761719 "/>
<path style=" stroke:none;fill-rule:nonzero;fill:rgb(49.411765%,34.117648%,76.078433%);fill-opacity:1;" d="M 1.324219 3.101562 C 0.957031 3.101562 0.660156 3.398438 0.660156 3.761719 L 0.660156 13.683594 C 0.660156 14.050781 0.957031 14.347656 1.324219 14.347656 L 14.550781 14.347656 C 14.917969 14.347656 15.214844 14.050781 15.214844 13.683594 L 15.214844 6.078125 C 15.214844 5.710938 14.917969 5.421875 14.550781 5.417969 L 10.253906 5.417969 C 9.886719 5.417969 9.589844 5.121094 9.589844 4.753906 L 9.589844 3.761719 C 9.589844 3.398438 9.296875 3.101562 8.929688 3.101562 Z M 1.324219 3.101562 "/>
<path style=" stroke:none;fill-rule:nonzero;fill:rgb(100%,100%,100%);fill-opacity:0.313726;" d="M 4.300781 8.394531 C 4.171875 8.394531 4.042969 8.445312 3.941406 8.542969 L 1.804688 10.683594 C 1.605469 10.878906 1.605469 11.199219 1.804688 11.394531 L 3.941406 13.535156 C 4.140625 13.734375 4.457031 13.734375 4.65625 13.535156 L 6.796875 11.394531 C 6.992188 11.199219 6.992188 10.878906 6.796875 10.683594 L 4.65625 8.542969 C 4.558594 8.445312 4.429688 8.394531 4.300781 8.394531 Z M 4.300781 8.890625 C 4.574219 8.890625 4.796875 9.109375 4.796875 9.386719 C 4.796875 9.660156 4.574219 9.882812 4.300781 9.882812 C 4.023438 9.882812 3.804688 9.660156 3.804688 9.386719 C 3.804688 9.109375 4.023438 8.890625 4.300781 8.890625 Z M 2.644531 10.542969 C 2.921875 10.542969 3.140625 10.765625 3.140625 11.039062 C 3.140625 11.3125 2.921875 11.535156 2.644531 11.535156 C 2.371094 11.535156 2.148438 11.3125 2.148438 11.039062 C 2.148438 10.765625 2.371094 10.542969 2.644531 10.542969 Z M 4.300781 10.542969 C 4.574219 10.542969 4.796875 10.765625 4.796875 11.039062 C 4.796875 11.3125 4.574219 11.535156 4.300781 11.535156 C 4.023438 11.535156 3.804688 11.3125 3.804688 11.039062 C 3.804688 10.765625 4.023438 10.542969 4.300781 10.542969 Z M 5.953125 10.542969 C 6.226562 10.542969 6.449219 10.765625 6.449219 11.039062 C 6.449219 11.3125 6.226562 11.535156 5.953125 11.535156 C 5.679688 11.535156 5.457031 11.3125 5.457031 11.039062 C 5.457031 10.765625 5.679688 10.542969 5.953125 10.542969 Z M 4.300781 12.195312 C 4.574219 12.195312 4.796875 12.417969 4.796875 12.691406 C 4.796875 12.96875 4.574219 13.1875 4.300781 13.1875 C 4.023438 13.1875 3.804688 12.96875 3.804688 12.691406 C 3.804688 12.417969 4.023438 12.195312 4.300781 12.195312 Z M 4.300781 12.195312 "/>
</g>
</svg>
