<?xml version="1.0" encoding="UTF-8"?>
<svg xmlns="http://www.w3.org/2000/svg" xmlns:xlink="http://www.w3.org/1999/xlink" width="16px" height="16px" viewBox="0 0 16 16" version="1.1">
<g id="surface1">
<path style=" stroke:none;fill-rule:nonzero;fill:rgb(36.862746%,20.784314%,69.411767%);fill-opacity:1;" d="M 2.316406 1.777344 L 14.550781 1.777344 C 14.917969 1.777344 15.214844 2.074219 15.214844 2.441406 L 15.214844 6.410156 C 15.214844 6.773438 14.917969 7.070312 14.550781 7.070312 L 2.316406 7.070312 C 1.949219 7.070312 1.652344 6.773438 1.652344 6.410156 L 1.652344 2.441406 C 1.652344 2.074219 1.949219 1.777344 2.316406 1.777344 Z M 2.316406 1.777344 "/>
<path style=" stroke:none;fill-rule:nonzero;fill:rgb(96.078432%,96.078432%,96.078432%);fill-opacity:1;" d="M 7.9375 3.761719 L 14.550781 3.761719 C 14.734375 3.761719 14.882812 3.910156 14.882812 4.09375 L 14.882812 6.410156 C 14.882812 6.589844 14.734375 6.738281 14.550781 6.738281 L 7.9375 6.738281 C 7.753906 6.738281 7.605469 6.589844 7.605469 6.410156 L 7.605469 4.09375 C 7.605469 3.910156 7.753906 3.761719 7.9375 3.761719 Z M 7.9375 3.761719 "/>
<path style=" stroke:none;fill-rule:nonzero;fill:rgb(49.411765%,34.117648%,76.078433%);fill-opacity:1;" d="M 1.324219 3.101562 C 0.957031 3.101562 0.660156 3.398438 0.660156 3.761719 L 0.660156 13.683594 C 0.660156 14.050781 0.957031 14.347656 1.324219 14.347656 L 14.550781 14.347656 C 14.917969 14.347656 15.214844 14.050781 15.214844 13.683594 L 15.214844 6.078125 C 15.214844 5.710938 14.917969 5.421875 14.550781 5.417969 L 10.253906 5.417969 C 9.886719 5.417969 9.589844 5.121094 9.589844 4.753906 L 9.589844 3.761719 C 9.589844 3.398438 9.296875 3.101562 8.929688 3.101562 Z M 1.324219 3.101562 "/>
<path style=" stroke:none;fill-rule:nonzero;fill:rgb(100%,100%,100%);fill-opacity:0.313726;" d="M 3.308594 8.394531 C 3.125 8.394531 2.976562 8.539062 2.976562 8.722656 L 2.976562 9.386719 L 2.8125 9.386719 C 2.8125 9.292969 2.738281 9.21875 2.644531 9.21875 L 2.480469 9.21875 C 2.390625 9.21875 2.316406 9.292969 2.316406 9.386719 L 2.148438 9.386719 C 2.148438 9.292969 2.074219 9.21875 1.984375 9.21875 L 1.820312 9.21875 C 1.726562 9.21875 1.652344 9.292969 1.652344 9.386719 C 1.46875 9.386719 1.324219 9.53125 1.324219 9.714844 L 1.324219 13.355469 C 1.324219 13.539062 1.46875 13.683594 1.652344 13.683594 L 6.945312 13.683594 C 7.128906 13.683594 7.277344 13.539062 7.277344 13.355469 L 7.277344 9.714844 C 7.277344 9.53125 7.128906 9.386719 6.945312 9.386719 L 6.78125 9.386719 C 6.78125 9.292969 6.707031 9.21875 6.613281 9.21875 L 6.117188 9.21875 C 6.027344 9.21875 5.953125 9.292969 5.953125 9.386719 L 5.621094 9.386719 L 5.621094 8.722656 C 5.621094 8.539062 5.476562 8.394531 5.292969 8.394531 Z M 3.472656 8.722656 L 5.125 8.722656 C 5.21875 8.722656 5.292969 8.796875 5.292969 8.890625 L 5.292969 9.386719 L 3.308594 9.386719 L 3.308594 8.890625 C 3.308594 8.796875 3.382812 8.722656 3.472656 8.722656 Z M 1.984375 9.882812 L 2.480469 9.882812 C 2.570312 9.882812 2.644531 9.957031 2.644531 10.046875 L 2.644531 10.210938 C 2.644531 10.304688 2.570312 10.378906 2.480469 10.378906 L 1.984375 10.378906 C 1.894531 10.378906 1.820312 10.304688 1.820312 10.210938 L 1.820312 10.046875 C 1.820312 9.957031 1.894531 9.882812 1.984375 9.882812 Z M 4.300781 10.046875 C 5.125 10.046875 5.789062 10.710938 5.789062 11.535156 C 5.789062 12.359375 5.125 13.023438 4.300781 13.023438 C 3.476562 13.023438 2.8125 12.359375 2.8125 11.535156 C 2.8125 10.710938 3.476562 10.046875 4.300781 10.046875 Z M 4.300781 10.378906 C 3.65625 10.378906 3.140625 10.894531 3.140625 11.535156 C 3.140625 12.175781 3.65625 12.691406 4.300781 12.691406 C 4.941406 12.691406 5.457031 12.175781 5.457031 11.535156 C 5.457031 10.894531 4.941406 10.378906 4.300781 10.378906 Z M 4.300781 10.707031 C 4.757812 10.707031 5.125 11.078125 5.125 11.535156 C 5.125 11.992188 4.757812 12.363281 4.300781 12.363281 C 3.839844 12.363281 3.472656 11.992188 3.472656 11.535156 C 3.472656 11.078125 3.839844 10.707031 4.300781 10.707031 Z M 4.300781 11.039062 C 4.023438 11.039062 3.804688 11.261719 3.804688 11.535156 C 3.804688 11.808594 4.023438 12.03125 4.300781 12.03125 C 4.574219 12.03125 4.796875 11.808594 4.796875 11.535156 C 4.796875 11.261719 4.574219 11.039062 4.300781 11.039062 Z M 4.300781 11.039062 "/>
</g>
</svg>
