<?xml version="1.0" encoding="UTF-8"?>
<svg xmlns="http://www.w3.org/2000/svg" xmlns:xlink="http://www.w3.org/1999/xlink" width="16px" height="16px" viewBox="0 0 16 16" version="1.1">
<g id="surface1">
<defs>
  <style id="current-color-scheme" type="text/css">
   .ColorScheme-Text { color:#424242; } .ColorScheme-Highlight { color:#eeeeee; }
  </style>
 </defs>
<path style="fill:currentColor" class="ColorScheme-Text" d="M 3 1 C 1.890625 1 1 1.890625 1 3 C 1 3.742188 1.402344 4.386719 2 4.730469 L 2 9 L 7 9 L 7 11.269531 C 6.402344 11.613281 6 12.257812 6 13 C 6 14.109375 6.890625 15 8 15 C 9.109375 15 10 14.109375 10 13 C 10 12.257812 9.597656 11.613281 9 11.269531 L 9 9 L 14 9 L 14 4.730469 C 14.597656 4.386719 15 3.742188 15 3 C 15 1.890625 14.109375 1 13 1 C 11.890625 1 11 1.890625 11 3 C 11 3.742188 11.402344 4.386719 12 4.730469 L 12 7 L 4 7 L 4 4.730469 C 4.597656 4.386719 5 3.742188 5 3 C 5 1.890625 4.109375 1 3 1 Z M 3 1 "/>
</g>
</svg>
