
<svg xmlns="http://www.w3.org/2000/svg" xmlns:xlink="http://www.w3.org/1999/xlink" width="22px" height="22px" viewBox="0 0 22 22" version="1.1">
<g id="surface1">
<path style=" stroke:none;fill-rule:nonzero;fill:rgb(36.078432%,41.960785%,75.294119%);fill-opacity:1;" d="M 2.957031 2.726562 L 18.871094 2.726562 C 18.996094 2.726562 19.101562 2.832031 19.101562 2.957031 L 19.101562 18.871094 C 19.101562 18.996094 18.996094 19.101562 18.871094 19.101562 L 2.957031 19.101562 C 2.832031 19.101562 2.726562 18.996094 2.726562 18.871094 L 2.726562 2.957031 C 2.726562 2.832031 2.832031 2.726562 2.957031 2.726562 Z M 2.957031 2.726562 "/>
<path style=" stroke:none;fill-rule:nonzero;fill:rgb(100%,65.490198%,14.901961%);fill-opacity:1;" d="M 1.789062 0.910156 L 20.039062 0.910156 C 20.523438 0.910156 20.917969 1.304688 20.917969 1.789062 L 20.917969 20.039062 C 20.917969 20.523438 20.523438 20.917969 20.039062 20.917969 L 1.789062 20.917969 C 1.304688 20.917969 0.910156 20.523438 0.910156 20.039062 L 0.910156 1.789062 C 0.910156 1.304688 1.304688 0.910156 1.789062 0.910156 Z M 1.789062 0.910156 "/>
<path style=" stroke:none;fill-rule:nonzero;fill:rgb(100%,92.54902%,70.19608%);fill-opacity:1;" d="M 2.273438 1.820312 L 19.554688 1.820312 C 19.804688 1.820312 20.007812 2.023438 20.007812 2.273438 L 20.007812 19.554688 C 20.007812 19.804688 19.804688 20.007812 19.554688 20.007812 L 2.273438 20.007812 C 2.023438 20.007812 1.820312 19.804688 1.820312 19.554688 L 1.820312 2.273438 C 1.820312 2.023438 2.023438 1.820312 2.273438 1.820312 Z M 2.273438 1.820312 "/>
<path style=" stroke:none;fill-rule:nonzero;fill:rgb(100%,65.490198%,14.901961%);fill-opacity:1;" d="M 2.957031 2.726562 L 18.871094 2.726562 C 18.996094 2.726562 19.101562 2.832031 19.101562 2.957031 L 19.101562 18.871094 C 19.101562 18.996094 18.996094 19.101562 18.871094 19.101562 L 2.957031 19.101562 C 2.832031 19.101562 2.726562 18.996094 2.726562 18.871094 L 2.726562 2.957031 C 2.726562 2.832031 2.832031 2.726562 2.957031 2.726562 Z M 2.957031 2.726562 "/>
<path style=" stroke:none;fill-rule:nonzero;fill:rgb(100%,92.54902%,70.19608%);fill-opacity:0.999958;" d="M 12.503906 14.550781 C 11.625 14.550781 10.914062 13.84375 10.914062 12.960938 L 10.914062 10.6875 C 10.914062 10.5625 11.015625 10.460938 11.140625 10.460938 L 11.597656 10.460938 C 11.722656 10.460938 11.824219 10.5625 11.824219 10.6875 L 11.824219 12.960938 C 11.824219 13.339844 12.128906 13.640625 12.503906 13.640625 C 12.882812 13.640625 13.1875 13.339844 13.1875 12.960938 L 13.1875 10.6875 C 13.1875 10.5625 13.289062 10.460938 13.414062 10.460938 L 13.871094 10.460938 C 13.886719 10.460938 13.902344 10.460938 13.914062 10.464844 C 14.019531 10.484375 14.097656 10.578125 14.097656 10.6875 L 14.097656 12.960938 C 14.097656 13.339844 14.402344 13.640625 14.78125 13.640625 C 15.15625 13.640625 15.460938 13.339844 15.460938 12.960938 L 15.460938 10.6875 C 15.460938 10.5625 15.5625 10.460938 15.6875 10.460938 L 16.144531 10.460938 C 16.269531 10.460938 16.371094 10.5625 16.371094 10.6875 L 16.371094 12.960938 C 16.371094 13.84375 15.660156 14.550781 14.78125 14.550781 C 14.332031 14.550781 13.929688 14.371094 13.640625 14.078125 C 13.355469 14.371094 12.953125 14.550781 12.503906 14.550781 Z M 12.503906 14.550781 "/>
<path style=" stroke:none;fill-rule:nonzero;fill:rgb(100%,92.54902%,70.19608%);fill-opacity:0.999958;" d="M 6.140625 7.277344 C 6.011719 7.277344 5.910156 7.378906 5.910156 7.503906 L 5.910156 14.324219 C 5.910156 14.449219 6.011719 14.550781 6.140625 14.550781 L 6.59375 14.550781 C 6.71875 14.550781 6.820312 14.449219 6.820312 14.324219 L 6.820312 11.824219 L 9.324219 11.824219 C 9.449219 11.824219 9.550781 11.722656 9.550781 11.597656 L 9.550781 11.140625 C 9.550781 11.015625 9.449219 10.914062 9.324219 10.914062 L 6.820312 10.914062 L 6.820312 8.1875 L 10.6875 8.1875 C 10.8125 8.1875 10.914062 8.085938 10.914062 7.957031 L 10.914062 7.503906 C 10.914062 7.378906 10.8125 7.277344 10.6875 7.277344 Z M 6.140625 7.277344 "/>
</g>
</svg>
