
<svg xmlns="http://www.w3.org/2000/svg" xmlns:xlink="http://www.w3.org/1999/xlink" width="22px" height="22px" viewBox="0 0 22 22" version="1.1">
<g id="surface1">
<path style=" stroke:none;fill-rule:nonzero;fill:rgb(48.627451%,70.19608%,25.882354%);fill-opacity:1;" d="M 2.726562 0.910156 C 1.722656 0.910156 0.910156 1.722656 0.910156 2.726562 L 0.910156 20.917969 L 19.097656 20.917969 C 20.105469 20.917969 20.917969 20.105469 20.917969 19.097656 L 20.917969 0.910156 Z M 2.726562 0.910156 "/>
<path style=" stroke:none;fill-rule:nonzero;fill:rgb(61.176473%,80.000001%,39.607844%);fill-opacity:1;" d="M 20.007812 1.820312 L 1.820312 20.007812 L 18.355469 20.007812 C 19.273438 20.007812 20.007812 19.273438 20.007812 18.355469 Z M 20.007812 1.820312 "/>
<path style=" stroke:none;fill-rule:nonzero;fill:rgb(94.509804%,97.254902%,91.37255%);fill-opacity:1;" d="M 5.003906 4.320312 C 4.5 4.320312 4.097656 4.726562 4.09375 5.230469 L 4.09375 6.140625 L 6.140625 6.140625 L 6.140625 4.320312 Z M 6.59375 4.320312 L 6.59375 6.140625 L 8.414062 6.140625 L 8.414062 4.320312 Z M 8.867188 4.320312 L 8.867188 6.140625 L 10.6875 6.140625 L 10.6875 4.320312 Z M 11.140625 4.320312 L 11.140625 6.140625 L 12.960938 6.140625 L 12.960938 4.320312 Z M 13.414062 4.320312 L 13.414062 6.140625 L 15.234375 6.140625 L 15.234375 4.320312 Z M 15.6875 4.320312 L 15.6875 6.140625 L 17.734375 6.140625 L 17.734375 4.320312 Z M 4.09375 6.59375 L 4.09375 8.414062 L 6.140625 8.414062 L 6.140625 6.59375 Z M 6.59375 6.59375 L 6.59375 8.414062 L 8.414062 8.414062 L 8.414062 6.59375 Z M 8.867188 6.59375 L 8.867188 8.414062 L 10.6875 8.414062 L 10.6875 6.59375 Z M 11.140625 6.59375 L 11.140625 8.414062 L 12.960938 8.414062 L 12.960938 6.59375 Z M 13.414062 6.59375 L 13.414062 8.414062 L 15.234375 8.414062 L 15.234375 6.59375 Z M 15.6875 6.59375 L 15.6875 8.414062 L 17.734375 8.414062 L 17.734375 6.59375 Z M 4.09375 8.867188 L 4.09375 10.6875 L 6.140625 10.6875 L 6.140625 8.867188 Z M 6.59375 8.867188 L 6.59375 10.6875 L 8.414062 10.6875 L 8.414062 8.867188 Z M 8.867188 8.867188 L 8.867188 10.6875 L 10.6875 10.6875 L 10.6875 8.867188 Z M 11.140625 8.867188 L 11.140625 10.6875 L 12.960938 10.6875 L 12.960938 8.867188 Z M 13.414062 8.867188 L 13.414062 10.6875 L 15.234375 10.6875 L 15.234375 8.867188 Z M 15.6875 8.867188 L 15.6875 10.6875 L 17.734375 10.6875 L 17.734375 8.867188 Z M 4.09375 11.140625 L 4.09375 12.960938 L 6.140625 12.960938 L 6.140625 11.140625 Z M 6.59375 11.140625 L 6.59375 12.960938 L 8.414062 12.960938 L 8.414062 11.140625 Z M 8.867188 11.140625 L 8.867188 12.960938 L 10.6875 12.960938 L 10.6875 11.140625 Z M 11.140625 11.140625 L 11.140625 12.960938 L 12.960938 12.960938 L 12.960938 11.140625 Z M 13.414062 11.140625 L 13.414062 12.960938 L 15.234375 12.960938 L 15.234375 11.140625 Z M 15.6875 11.140625 L 15.6875 12.960938 L 17.734375 12.960938 L 17.734375 11.140625 Z M 4.09375 13.414062 L 4.09375 15.234375 L 6.140625 15.234375 L 6.140625 13.414062 Z M 6.59375 13.414062 L 6.59375 15.234375 L 8.414062 15.234375 L 8.414062 13.414062 Z M 8.867188 13.414062 L 8.867188 15.234375 L 10.6875 15.234375 L 10.6875 13.414062 Z M 11.140625 13.414062 L 11.140625 15.234375 L 12.960938 15.234375 L 12.960938 13.414062 Z M 13.414062 13.414062 L 13.414062 15.234375 L 15.234375 15.234375 L 15.234375 13.414062 Z M 15.6875 13.414062 L 15.6875 15.234375 L 17.734375 15.234375 L 17.734375 13.414062 Z M 4.09375 15.6875 L 4.09375 17.507812 L 6.140625 17.507812 L 6.140625 15.6875 Z M 6.59375 15.6875 L 6.59375 17.507812 L 8.414062 17.507812 L 8.414062 15.6875 Z M 8.867188 15.6875 L 8.867188 17.507812 L 10.6875 17.507812 L 10.6875 15.6875 Z M 11.140625 15.6875 L 11.140625 17.507812 L 12.960938 17.507812 L 12.960938 15.6875 Z M 13.414062 15.6875 L 13.414062 17.507812 L 15.234375 17.507812 L 15.234375 15.6875 Z M 15.6875 15.6875 L 15.6875 17.507812 L 16.824219 17.507812 C 17.328125 17.507812 17.734375 17.101562 17.734375 16.597656 L 17.734375 15.6875 Z M 15.6875 15.6875 "/>
</g>
</svg>
