<?xml version="1.0" encoding="UTF-8"?>
<svg xmlns="http://www.w3.org/2000/svg" xmlns:xlink="http://www.w3.org/1999/xlink" width="22px" height="22px" viewBox="0 0 22 22" version="1.1">
<g id="surface1">
<path style=" stroke:none;fill-rule:nonzero;fill:rgb(55.29412%,43.137255%,38.82353%);fill-opacity:1;" d="M 13.1875 3.808594 L 15.007812 3.808594 C 15.507812 3.808594 15.914062 4.21875 15.914062 4.71875 L 15.914062 20.179688 C 15.914062 20.683594 15.507812 21.089844 15.007812 21.089844 L 13.1875 21.089844 C 12.683594 21.089844 12.277344 20.683594 12.277344 20.179688 L 12.277344 4.71875 C 12.277344 4.21875 12.683594 3.808594 13.1875 3.808594 Z M 13.1875 3.808594 "/>
<path style=" stroke:none;fill-rule:nonzero;fill:rgb(38.039216%,38.039216%,38.039216%);fill-opacity:1;" d="M 16.824219 1.082031 C 17.078125 1.082031 17.28125 1.285156 17.28125 1.535156 L 17.28125 1.992188 L 17.734375 1.992188 L 17.734375 1.535156 C 17.734375 1.285156 17.9375 1.082031 18.191406 1.082031 L 20.464844 1.082031 C 20.714844 1.082031 20.917969 1.285156 20.917969 1.535156 L 20.917969 5.175781 C 20.917969 5.425781 20.714844 5.628906 20.464844 5.628906 L 18.191406 5.628906 C 17.9375 5.628906 17.734375 5.425781 17.734375 5.175781 L 17.734375 4.71875 L 17.28125 4.71875 L 17.28125 5.175781 C 17.28125 5.425781 17.078125 5.628906 16.824219 5.628906 L 6.820312 5.628906 C 6.566406 5.628906 6.359375 5.417969 6.367188 5.164062 C 6.390625 3.984375 7.164062 3.339844 8.132812 2.503906 C 9.097656 1.671875 10.28125 1.082031 11.367188 1.082031 Z M 16.824219 1.082031 "/>
<path style=" stroke:none;fill-rule:nonzero;fill:rgb(47.058824%,56.470591%,61.176473%);fill-opacity:1;" d="M 4.246094 6.910156 L 6.667969 6.910156 C 7.003906 6.910156 7.253906 7.183594 7.277344 7.515625 L 8.1875 20.179688 C 8.222656 20.683594 7.78125 21.089844 7.277344 21.089844 L 3.636719 21.089844 C 3.132812 21.089844 2.691406 20.683594 2.730469 20.179688 L 3.636719 7.515625 C 3.660156 7.183594 3.910156 6.910156 4.246094 6.910156 Z M 4.246094 6.910156 "/>
<path style=" stroke:none;fill-rule:nonzero;fill:rgb(56.470591%,64.313728%,68.235296%);fill-opacity:1;" d="M 6.0625 1.082031 C 4.320312 0.882812 2.546875 1.707031 1.613281 3.328125 C 0.351562 5.511719 1.09375 8.28125 3.277344 9.542969 C 5.460938 10.800781 8.230469 10.058594 9.488281 7.878906 C 10.425781 6.257812 10.257812 4.308594 9.210938 2.902344 L 7.125 6.511719 C 6.875 6.949219 6.320312 7.097656 5.882812 6.847656 L 4.308594 5.9375 C 3.871094 5.683594 3.722656 5.128906 3.976562 4.695312 Z M 6.0625 1.082031 "/>
<path style=" stroke:none;fill-rule:nonzero;fill:rgb(32.941177%,43.137255%,47.843137%);fill-opacity:1;" d="M 5.457031 11.085938 C 5.960938 11.085938 6.367188 11.492188 6.367188 11.996094 L 6.367188 18.816406 C 6.367188 19.320312 5.960938 19.726562 5.457031 19.726562 C 4.953125 19.726562 4.546875 19.320312 4.546875 18.816406 L 4.546875 11.996094 C 4.546875 11.492188 4.953125 11.085938 5.457031 11.085938 Z M 5.457031 11.085938 "/>
<path style=" stroke:none;fill-rule:nonzero;fill:rgb(25.882354%,25.882354%,25.882354%);fill-opacity:1;" d="M 17.28125 1.992188 L 17.734375 1.992188 L 17.734375 4.71875 L 17.28125 4.71875 Z M 17.28125 1.992188 "/>
</g>
</svg>
