<?xml version="1.0" encoding="UTF-8"?>
<svg xmlns="http://www.w3.org/2000/svg" xmlns:xlink="http://www.w3.org/1999/xlink" width="22px" height="22px" viewBox="0 0 22 22" version="1.1">
<g id="surface1">
<path style=" stroke:none;fill-rule:nonzero;fill:rgb(25.882354%,64.705884%,96.078432%);fill-opacity:1;" d="M 1.820312 1.082031 L 20.007812 1.082031 C 20.511719 1.082031 20.917969 1.488281 20.917969 1.992188 L 20.917969 20.179688 C 20.917969 20.683594 20.511719 21.089844 20.007812 21.089844 L 1.820312 21.089844 C 1.316406 21.089844 0.910156 20.683594 0.910156 20.179688 L 0.910156 1.992188 C 0.910156 1.488281 1.316406 1.082031 1.820312 1.082031 Z M 1.820312 1.082031 "/>
<path style=" stroke:none;fill-rule:nonzero;fill:rgb(93.333334%,93.333334%,93.333334%);fill-opacity:1;" d="M 2.726562 2.445312 C 2.476562 2.445312 2.273438 2.648438 2.273438 2.898438 L 2.273438 9.722656 C 2.273438 9.972656 2.476562 10.175781 2.726562 10.175781 L 9.550781 10.175781 C 9.800781 10.175781 10.003906 9.972656 10.003906 9.722656 L 10.003906 2.898438 C 10.003906 2.648438 9.800781 2.445312 9.550781 2.445312 Z M 3.410156 3.355469 L 8.867188 3.355469 C 8.992188 3.355469 9.09375 3.457031 9.09375 3.582031 L 9.09375 9.039062 C 9.09375 9.164062 8.992188 9.265625 8.867188 9.265625 L 3.410156 9.265625 C 3.285156 9.265625 3.183594 9.164062 3.183594 9.039062 L 3.183594 3.582031 C 3.183594 3.457031 3.285156 3.355469 3.410156 3.355469 Z M 3.410156 3.355469 "/>
<path style=" stroke:none;fill-rule:nonzero;fill:rgb(93.333334%,93.333334%,93.333334%);fill-opacity:1;" d="M 12.277344 2.445312 C 12.027344 2.445312 11.824219 2.648438 11.824219 2.898438 L 11.824219 9.722656 C 11.824219 9.972656 12.027344 10.175781 12.277344 10.175781 L 19.097656 10.175781 C 19.351562 10.175781 19.554688 9.972656 19.554688 9.722656 L 19.554688 2.898438 C 19.554688 2.648438 19.351562 2.445312 19.097656 2.445312 Z M 12.960938 3.355469 L 18.417969 3.355469 C 18.542969 3.355469 18.644531 3.457031 18.644531 3.582031 L 18.644531 9.039062 C 18.644531 9.164062 18.542969 9.265625 18.417969 9.265625 L 12.960938 9.265625 C 12.835938 9.265625 12.734375 9.164062 12.734375 9.039062 L 12.734375 3.582031 C 12.734375 3.457031 12.835938 3.355469 12.960938 3.355469 Z M 12.960938 3.355469 "/>
<path style=" stroke:none;fill-rule:nonzero;fill:rgb(93.333334%,93.333334%,93.333334%);fill-opacity:1;" d="M 2.726562 11.996094 C 2.476562 11.996094 2.273438 12.199219 2.273438 12.449219 L 2.273438 19.273438 C 2.273438 19.523438 2.476562 19.726562 2.726562 19.726562 L 9.550781 19.726562 C 9.800781 19.726562 10.003906 19.523438 10.003906 19.273438 L 10.003906 12.449219 C 10.003906 12.199219 9.800781 11.996094 9.550781 11.996094 Z M 3.410156 12.90625 L 8.867188 12.90625 C 8.992188 12.90625 9.09375 13.007812 9.09375 13.132812 L 9.09375 18.589844 C 9.09375 18.714844 8.992188 18.816406 8.867188 18.816406 L 3.410156 18.816406 C 3.285156 18.816406 3.183594 18.714844 3.183594 18.589844 L 3.183594 13.132812 C 3.183594 13.007812 3.285156 12.90625 3.410156 12.90625 Z M 3.410156 12.90625 "/>
<path style=" stroke:none;fill-rule:nonzero;fill:rgb(93.333334%,93.333334%,93.333334%);fill-opacity:1;" d="M 12.277344 11.996094 C 12.027344 11.996094 11.824219 12.199219 11.824219 12.449219 L 11.824219 19.273438 C 11.824219 19.523438 12.027344 19.726562 12.277344 19.726562 L 19.097656 19.726562 C 19.351562 19.726562 19.554688 19.523438 19.554688 19.273438 L 19.554688 12.449219 C 19.554688 12.199219 19.351562 11.996094 19.097656 11.996094 Z M 12.960938 12.90625 L 18.417969 12.90625 C 18.542969 12.90625 18.644531 13.007812 18.644531 13.132812 L 18.644531 18.589844 C 18.644531 18.714844 18.542969 18.816406 18.417969 18.816406 L 12.960938 18.816406 C 12.835938 18.816406 12.734375 18.714844 12.734375 18.589844 L 12.734375 13.132812 C 12.734375 13.007812 12.835938 12.90625 12.960938 12.90625 Z M 12.960938 12.90625 "/>
</g>
</svg>
