<?xml version="1.0" encoding="UTF-8"?>
<svg xmlns="http://www.w3.org/2000/svg" xmlns:xlink="http://www.w3.org/1999/xlink" width="22px" height="22px" viewBox="0 0 22 22" version="1.1">
<g id="surface1">
<path style=" stroke:none;fill-rule:nonzero;fill:rgb(25.882354%,25.882354%,25.882354%);fill-opacity:1;" d="M 10.914062 1.082031 C 13.175781 1.082031 15.007812 2.914062 15.007812 5.175781 C 15.007812 7.433594 13.175781 9.265625 10.914062 9.265625 C 8.652344 9.265625 6.820312 7.433594 6.820312 5.175781 C 6.820312 2.914062 8.652344 1.082031 10.914062 1.082031 Z M 10.914062 1.082031 "/>
<path style=" stroke:none;fill-rule:nonzero;fill:rgb(38.039216%,38.039216%,38.039216%);fill-opacity:1;" d="M 9.324219 1.878906 C 9.699219 1.878906 10.003906 2.183594 10.003906 2.558594 C 10.003906 2.9375 9.699219 3.242188 9.324219 3.242188 C 8.945312 3.242188 8.640625 2.9375 8.640625 2.558594 C 8.640625 2.183594 8.945312 1.878906 9.324219 1.878906 Z M 9.324219 1.878906 "/>
<path style=" stroke:none;fill-rule:nonzero;fill:rgb(87.843138%,87.843138%,87.843138%);fill-opacity:1;" d="M 8.878906 2.179688 C 8.992188 2.066406 9.136719 2.03125 9.203125 2.097656 C 9.269531 2.164062 9.234375 2.308594 9.121094 2.417969 C 9.011719 2.53125 8.867188 2.566406 8.800781 2.5 C 8.734375 2.433594 8.769531 2.289062 8.878906 2.179688 Z M 8.878906 2.179688 "/>
<path style=" stroke:none;fill-rule:nonzero;fill:rgb(38.039216%,38.039216%,38.039216%);fill-opacity:1;" d="M 12.503906 1.878906 C 12.882812 1.878906 13.1875 2.183594 13.1875 2.558594 C 13.1875 2.9375 12.882812 3.242188 12.503906 3.242188 C 12.128906 3.242188 11.824219 2.9375 11.824219 2.558594 C 11.824219 2.183594 12.128906 1.878906 12.503906 1.878906 Z M 12.503906 1.878906 "/>
<path style=" stroke:none;fill-rule:nonzero;fill:rgb(87.843138%,87.843138%,87.843138%);fill-opacity:1;" d="M 12.0625 2.179688 C 12.175781 2.066406 12.320312 2.03125 12.386719 2.097656 C 12.453125 2.164062 12.414062 2.308594 12.304688 2.417969 C 12.195312 2.53125 12.050781 2.566406 11.984375 2.5 C 11.917969 2.433594 11.953125 2.289062 12.0625 2.179688 Z M 12.0625 2.179688 "/>
<path style=" stroke:none;fill-rule:nonzero;fill:rgb(25.882354%,25.882354%,25.882354%);fill-opacity:1;" d="M 1.605469 7.34375 C 1.730469 7.128906 2.007812 7.050781 2.226562 7.179688 L 6.953125 9.90625 C 7.167969 10.03125 7.242188 10.308594 7.117188 10.527344 C 6.992188 10.746094 6.714844 10.820312 6.496094 10.695312 L 1.769531 7.964844 C 1.554688 7.839844 1.480469 7.5625 1.605469 7.34375 Z M 1.605469 7.34375 "/>
<path style=" stroke:none;fill-rule:nonzero;fill:rgb(25.882354%,25.882354%,25.882354%);fill-opacity:1;" d="M 20.238281 7.34375 C 20.109375 7.128906 19.832031 7.050781 19.617188 7.179688 L 14.890625 9.90625 C 14.671875 10.03125 14.597656 10.308594 14.722656 10.527344 C 14.847656 10.746094 15.125 10.820312 15.34375 10.695312 L 20.070312 7.964844 C 20.289062 7.839844 20.363281 7.5625 20.238281 7.34375 Z M 20.238281 7.34375 "/>
<path style=" stroke:none;fill-rule:nonzero;fill:rgb(38.039216%,38.039216%,38.039216%);fill-opacity:1;" d="M 7.808594 6.992188 C 6.386719 8.386719 5.457031 10.714844 5.457031 13.359375 C 5.457031 17.640625 7.890625 21.089844 10.914062 21.089844 C 13.9375 21.089844 16.371094 17.640625 16.371094 13.359375 C 16.371094 10.714844 15.441406 8.386719 14.019531 6.992188 Z M 7.808594 6.992188 "/>
<path style=" stroke:none;fill-rule:nonzero;fill:rgb(25.882354%,25.882354%,25.882354%);fill-opacity:1;" d="M 7.390625 7.449219 C 7.160156 7.722656 6.945312 8.027344 6.75 8.351562 C 6.773438 8.355469 6.796875 8.355469 6.820312 8.355469 L 15.007812 8.355469 C 15.03125 8.355469 15.054688 8.355469 15.078125 8.351562 C 14.882812 8.027344 14.667969 7.722656 14.4375 7.449219 Z M 6.820312 9.722656 C 6.570312 9.722656 6.367188 9.917969 6.367188 10.160156 L 6.367188 10.191406 C 6.367188 10.433594 6.570312 10.632812 6.820312 10.632812 L 15.007812 10.632812 C 15.257812 10.632812 15.460938 10.433594 15.460938 10.191406 L 15.460938 10.160156 C 15.460938 9.917969 15.257812 9.722656 15.007812 9.722656 Z M 6.820312 11.996094 C 6.570312 11.996094 6.367188 12.191406 6.367188 12.433594 L 6.367188 12.464844 C 6.367188 12.710938 6.570312 12.90625 6.820312 12.90625 L 15.007812 12.90625 C 15.257812 12.90625 15.460938 12.710938 15.460938 12.464844 L 15.460938 12.433594 C 15.460938 12.191406 15.257812 11.996094 15.007812 11.996094 Z M 6.820312 14.269531 C 6.570312 14.269531 6.367188 14.464844 6.367188 14.707031 L 6.367188 14.738281 C 6.367188 14.984375 6.570312 15.179688 6.820312 15.179688 L 15.007812 15.179688 C 15.257812 15.179688 15.460938 14.984375 15.460938 14.738281 L 15.460938 14.707031 C 15.460938 14.464844 15.257812 14.269531 15.007812 14.269531 Z M 6.820312 16.542969 C 6.570312 16.542969 6.367188 16.738281 6.367188 16.980469 L 6.367188 17.015625 C 6.367188 17.257812 6.570312 17.453125 6.820312 17.453125 L 15.007812 17.453125 C 15.257812 17.453125 15.460938 17.257812 15.460938 17.015625 L 15.460938 16.980469 C 15.460938 16.738281 15.257812 16.542969 15.007812 16.542969 Z M 7.042969 18.816406 C 7.277344 19.152344 7.535156 19.457031 7.808594 19.726562 L 14.019531 19.726562 C 14.292969 19.457031 14.550781 19.152344 14.785156 18.816406 Z M 7.042969 18.816406 "/>
<path style=" stroke:none;fill-rule:nonzero;fill:rgb(93.725491%,32.549021%,31.37255%);fill-opacity:1;" d="M 10.914062 6.199219 C 6.777344 5.089844 2.554688 7.527344 1.445312 11.664062 C 0.335938 15.800781 2.773438 20.023438 6.914062 21.132812 Z M 10.914062 6.199219 "/>
<path style=" stroke:none;fill-rule:nonzero;fill:rgb(93.725491%,32.549021%,31.37255%);fill-opacity:1;" d="M 10.914062 6.199219 C 15.050781 5.089844 19.273438 7.527344 20.382812 11.664062 C 21.492188 15.800781 19.054688 20.023438 14.914062 21.132812 Z M 10.914062 6.199219 "/>
<path style=" stroke:none;fill-rule:nonzero;fill:rgb(93.333334%,93.333334%,93.333334%);fill-opacity:1;" d="M 6.820312 7.449219 C 7.324219 7.449219 7.730469 7.855469 7.730469 8.359375 C 7.730469 8.859375 7.324219 9.265625 6.820312 9.265625 C 6.320312 9.265625 5.910156 8.859375 5.910156 8.359375 C 5.910156 7.855469 6.320312 7.449219 6.820312 7.449219 Z M 6.820312 7.449219 "/>
<path style=" stroke:none;fill-rule:nonzero;fill:rgb(93.333334%,93.333334%,93.333334%);fill-opacity:1;" d="M 7.277344 12.449219 C 7.777344 12.449219 8.1875 12.855469 8.1875 13.359375 C 8.1875 13.863281 7.777344 14.269531 7.277344 14.269531 C 6.773438 14.269531 6.367188 13.863281 6.367188 13.359375 C 6.367188 12.855469 6.773438 12.449219 7.277344 12.449219 Z M 7.277344 12.449219 "/>
<path style=" stroke:none;fill-rule:nonzero;fill:rgb(93.333334%,93.333334%,93.333334%);fill-opacity:1;" d="M 3.183594 11.085938 C 3.6875 11.085938 4.09375 11.492188 4.09375 11.996094 C 4.09375 12.496094 3.6875 12.90625 3.183594 12.90625 C 2.679688 12.90625 2.273438 12.496094 2.273438 11.996094 C 2.273438 11.492188 2.679688 11.085938 3.183594 11.085938 Z M 3.183594 11.085938 "/>
<path style=" stroke:none;fill-rule:nonzero;fill:rgb(93.333334%,93.333334%,93.333334%);fill-opacity:1;" d="M 5.003906 16.996094 C 5.503906 16.996094 5.910156 17.40625 5.910156 17.90625 C 5.910156 18.410156 5.503906 18.816406 5.003906 18.816406 C 4.5 18.816406 4.09375 18.410156 4.09375 17.90625 C 4.09375 17.40625 4.5 16.996094 5.003906 16.996094 Z M 5.003906 16.996094 "/>
<path style=" stroke:none;fill-rule:nonzero;fill:rgb(93.333334%,93.333334%,93.333334%);fill-opacity:1;" d="M 16.371094 16.542969 C 16.875 16.542969 17.28125 16.949219 17.28125 17.453125 C 17.28125 17.953125 16.875 18.363281 16.371094 18.363281 C 15.867188 18.363281 15.460938 17.953125 15.460938 17.453125 C 15.460938 16.949219 15.867188 16.542969 16.371094 16.542969 Z M 16.371094 16.542969 "/>
<path style=" stroke:none;fill-rule:nonzero;fill:rgb(93.333334%,93.333334%,93.333334%);fill-opacity:1;" d="M 15.007812 12.449219 C 15.507812 12.449219 15.917969 12.855469 15.917969 13.359375 C 15.917969 13.863281 15.507812 14.269531 15.007812 14.269531 C 14.503906 14.269531 14.097656 13.863281 14.097656 13.359375 C 14.097656 12.855469 14.503906 12.449219 15.007812 12.449219 Z M 15.007812 12.449219 "/>
<path style=" stroke:none;fill-rule:nonzero;fill:rgb(93.333334%,93.333334%,93.333334%);fill-opacity:1;" d="M 18.644531 10.632812 C 19.148438 10.632812 19.554688 11.039062 19.554688 11.539062 C 19.554688 12.042969 19.148438 12.449219 18.644531 12.449219 C 18.140625 12.449219 17.734375 12.042969 17.734375 11.539062 C 17.734375 11.039062 18.140625 10.632812 18.644531 10.632812 Z M 18.644531 10.632812 "/>
<path style=" stroke:none;fill-rule:nonzero;fill:rgb(93.333334%,93.333334%,93.333334%);fill-opacity:1;" d="M 14.550781 7.902344 C 15.054688 7.902344 15.460938 8.308594 15.460938 8.8125 C 15.460938 9.316406 15.054688 9.722656 14.550781 9.722656 C 14.050781 9.722656 13.640625 9.316406 13.640625 8.8125 C 13.640625 8.308594 14.050781 7.902344 14.550781 7.902344 Z M 14.550781 7.902344 "/>
</g>
</svg>
