<?xml version="1.0" encoding="UTF-8"?>
<svg xmlns="http://www.w3.org/2000/svg" xmlns:xlink="http://www.w3.org/1999/xlink" width="22px" height="22px" viewBox="0 0 22 22" version="1.1">
<g id="surface1">
<path style=" stroke:none;fill-rule:nonzero;fill:rgb(26.274511%,62.7451%,27.843139%);fill-opacity:1;" d="M 15.917969 1.761719 C 7.730469 -0.738281 8.640625 5.175781 3.636719 4.71875 C 7.277344 8.359375 15.617188 6.390625 15.917969 1.761719 Z M 15.917969 1.761719 "/>
<path style=" stroke:none;fill-rule:nonzero;fill:rgb(40.000001%,73.333335%,41.568628%);fill-opacity:1;" d="M 13.640625 1.082031 C 15.660156 2.695312 8.214844 6.589844 7.503906 11.3125 C 7.484375 11.570312 7.992188 11.65625 8.183594 11.539062 C 9.371094 7.34375 14.207031 5.195312 15.007812 1.992188 C 18.191406 4.265625 14.824219 9.25 14.78125 12.222656 C 14.78125 12.5625 15.664062 12.449219 15.6875 12.222656 C 16.144531 8.570312 18.75 4.707031 16.371094 1.535156 Z M 13.640625 1.082031 "/>
<path style=" stroke:none;fill-rule:nonzero;fill:rgb(89.803922%,22.352941%,20.784314%);fill-opacity:1;" d="M 6.542969 9.460938 C 4.964844 8.550781 2.855469 9.28125 1.808594 11.09375 C 1.757812 11.179688 1.710938 11.265625 1.667969 11.351562 L 1.667969 11.347656 C 0.15625 14.226562 0.875 17.609375 3.347656 19.039062 C 5.820312 20.464844 9.109375 19.398438 10.847656 16.648438 L 10.84375 16.648438 C 10.894531 16.566406 10.949219 16.484375 10.996094 16.398438 C 12.042969 14.585938 11.617188 12.390625 10.042969 11.480469 C 9.382812 11.101562 8.625 11.007812 7.894531 11.160156 C 7.664062 10.449219 7.203125 9.84375 6.542969 9.460938 Z M 6.542969 9.460938 "/>
<path style=" stroke:none;fill-rule:nonzero;fill:rgb(89.803922%,45.09804%,45.09804%);fill-opacity:1;" d="M 4.5 9.914062 C 5.105469 9.75 5.652344 9.816406 5.714844 10.058594 C 5.78125 10.300781 5.34375 10.628906 4.734375 10.792969 C 4.128906 10.953125 3.585938 10.890625 3.519531 10.648438 C 3.457031 10.402344 3.894531 10.074219 4.5 9.914062 Z M 4.5 9.914062 "/>
<path style=" stroke:none;fill-rule:nonzero;fill:rgb(93.725491%,32.549021%,31.37255%);fill-opacity:1;" d="M 13.632812 10.714844 C 11.875 10.242188 10.023438 11.496094 9.484375 13.519531 C 9.457031 13.613281 9.4375 13.707031 9.417969 13.800781 L 9.414062 13.800781 C 8.699219 16.972656 10.269531 20.054688 13.027344 20.792969 C 15.785156 21.53125 18.683594 19.648438 19.652344 16.542969 L 19.648438 16.542969 C 19.679688 16.453125 19.707031 16.359375 19.730469 16.265625 C 20.273438 14.242188 19.296875 12.230469 17.539062 11.761719 C 16.800781 11.5625 16.046875 11.667969 15.378906 12.007812 C 14.972656 11.382812 14.371094 10.914062 13.632812 10.714844 Z M 13.632812 10.714844 "/>
<path style=" stroke:none;fill-rule:nonzero;fill:rgb(89.803922%,45.09804%,45.09804%);fill-opacity:1;" d="M 12.351562 11.832031 C 12.898438 11.519531 13.441406 11.441406 13.566406 11.660156 C 13.691406 11.875 13.351562 12.308594 12.808594 12.621094 C 12.265625 12.933594 11.722656 13.011719 11.597656 12.796875 C 11.46875 12.578125 11.808594 12.148438 12.351562 11.832031 Z M 12.351562 11.832031 "/>
<path style=" stroke:none;fill-rule:nonzero;fill:rgb(50.588238%,78.039217%,51.764709%);fill-opacity:1;" d="M 15.917969 1.761719 C 19.164062 4.175781 18.941406 7.972656 18.808594 11.730469 C 17.523438 7.230469 13.34375 5.621094 15.917969 1.761719 Z M 15.917969 1.761719 "/>
</g>
</svg>
