<?xml version="1.0" encoding="UTF-8"?>
<svg xmlns="http://www.w3.org/2000/svg" xmlns:xlink="http://www.w3.org/1999/xlink" width="22px" height="22px" viewBox="0 0 22 22" version="1.1">
<g id="surface1">
<path style=" stroke:none;fill-rule:nonzero;fill:rgb(100%,65.490198%,14.901961%);fill-opacity:1;" d="M 10.914062 1.082031 C 16.4375 1.082031 20.917969 5.5625 20.917969 11.085938 C 20.917969 16.609375 16.4375 21.089844 10.914062 21.089844 C 5.390625 21.089844 0.910156 16.609375 0.910156 11.085938 C 0.910156 5.5625 5.390625 1.082031 10.914062 1.082031 Z M 10.914062 1.082031 "/>
<path style=" stroke:none;fill-rule:nonzero;fill:rgb(100%,92.54902%,70.19608%);fill-opacity:1;" d="M 10.914062 1.992188 C 15.9375 1.992188 20.007812 6.0625 20.007812 11.085938 C 20.007812 16.109375 15.9375 20.179688 10.914062 20.179688 C 5.890625 20.179688 1.820312 16.109375 1.820312 11.085938 C 1.820312 6.0625 5.890625 1.992188 10.914062 1.992188 Z M 10.914062 1.992188 "/>
<path style=" stroke:none;fill-rule:nonzero;fill:rgb(100%,65.490198%,14.901961%);fill-opacity:1;" d="M 10.914062 2.902344 C 9.65625 2.902344 8.640625 3.914062 8.640625 5.175781 L 10.914062 10.632812 L 13.1875 5.175781 C 13.1875 3.914062 12.171875 2.902344 10.914062 2.902344 Z M 10.914062 2.902344 "/>
<path style=" stroke:none;fill-rule:nonzero;fill:rgb(100%,65.490198%,14.901961%);fill-opacity:1;" d="M 10.914062 19.269531 C 9.65625 19.269531 8.640625 18.257812 8.640625 16.996094 L 10.914062 11.539062 L 13.1875 16.996094 C 13.1875 18.257812 12.171875 19.269531 10.914062 19.269531 Z M 10.914062 19.269531 "/>
<path style=" stroke:none;fill-rule:nonzero;fill:rgb(100%,65.490198%,14.901961%);fill-opacity:1;" d="M 18.003906 6.992188 C 17.375 5.902344 15.988281 5.53125 14.898438 6.160156 L 11.308594 10.859375 L 17.171875 10.097656 C 18.261719 9.46875 18.632812 8.085938 18.003906 6.992188 Z M 18.003906 6.992188 "/>
<path style=" stroke:none;fill-rule:nonzero;fill:rgb(100%,65.490198%,14.901961%);fill-opacity:1;" d="M 3.824219 15.179688 C 3.195312 14.085938 3.566406 12.703125 4.65625 12.074219 L 10.519531 11.3125 L 6.929688 16.011719 C 5.839844 16.640625 4.453125 16.269531 3.824219 15.179688 Z M 3.824219 15.179688 "/>
<path style=" stroke:none;fill-rule:nonzero;fill:rgb(100%,65.490198%,14.901961%);fill-opacity:1;" d="M 18.003906 15.179688 C 18.632812 14.085938 18.261719 12.703125 17.171875 12.074219 L 11.308594 11.3125 L 14.898438 16.011719 C 15.988281 16.640625 17.375 16.269531 18.003906 15.179688 Z M 18.003906 15.179688 "/>
<path style=" stroke:none;fill-rule:nonzero;fill:rgb(100%,65.490198%,14.901961%);fill-opacity:1;" d="M 3.824219 6.992188 C 4.453125 5.902344 5.839844 5.53125 6.929688 6.160156 L 10.519531 10.859375 L 4.65625 10.097656 C 3.566406 9.46875 3.195312 8.085938 3.824219 6.992188 Z M 3.824219 6.992188 "/>
</g>
</svg>
