<?xml version="1.0" encoding="UTF-8"?>
<svg xmlns="http://www.w3.org/2000/svg" xmlns:xlink="http://www.w3.org/1999/xlink" width="22px" height="22px" viewBox="0 0 22 22" version="1.1">
<g id="surface1">
<path style=" stroke:none;fill-rule:nonzero;fill:rgb(25.882354%,25.882354%,25.882354%);fill-opacity:1;" d="M 10.914062 1.082031 C 16.4375 1.082031 20.917969 5.5625 20.917969 11.085938 C 20.917969 16.609375 16.4375 21.089844 10.914062 21.089844 C 5.390625 21.089844 0.910156 16.609375 0.910156 11.085938 C 0.910156 5.5625 5.390625 1.082031 10.914062 1.082031 Z M 10.914062 1.082031 "/>
<path style=" stroke:none;fill-rule:nonzero;fill:rgb(93.725491%,32.549021%,31.37255%);fill-opacity:1;" d="M 3.695312 6.539062 C 4.785156 9.464844 7.597656 11.539062 10.914062 11.539062 C 14.230469 11.539062 17.042969 9.464844 18.132812 6.539062 C 15.886719 7.367188 13.457031 7.820312 10.914062 7.820312 C 8.371094 7.820312 5.941406 7.367188 3.695312 6.539062 Z M 3.695312 6.539062 "/>
<path style=" stroke:none;fill-rule:nonzero;fill:rgb(93.725491%,32.549021%,31.37255%);fill-opacity:1;" d="M 10.914062 4.71875 C 14.429688 4.71875 17.28125 7.570312 17.28125 11.085938 C 17.28125 14.601562 14.429688 17.453125 10.914062 17.453125 C 7.398438 17.453125 4.546875 14.601562 4.546875 11.085938 C 4.546875 7.570312 7.398438 4.71875 10.914062 4.71875 Z M 10.914062 4.71875 "/>
<path style=" stroke:none;fill-rule:nonzero;fill:rgb(93.333334%,93.333334%,93.333334%);fill-opacity:1;" d="M 7.128906 10.066406 C 6.933594 10.359375 6.820312 10.707031 6.820312 11.085938 C 6.820312 12.09375 7.632812 12.90625 8.640625 12.90625 C 9.648438 12.90625 10.460938 12.09375 10.460938 11.085938 C 10.460938 11.078125 10.460938 11.070312 10.460938 11.0625 C 10.308594 11.078125 10.15625 11.085938 10.003906 11.085938 C 8.914062 11.085938 7.914062 10.703125 7.128906 10.066406 Z M 7.128906 10.066406 "/>
<path style=" stroke:none;fill-rule:nonzero;fill:rgb(93.333334%,93.333334%,93.333334%);fill-opacity:1;" d="M 14.695312 10.066406 C 14.890625 10.359375 15.007812 10.707031 15.007812 11.085938 C 15.007812 12.09375 14.195312 12.90625 13.1875 12.90625 C 12.179688 12.90625 11.367188 12.09375 11.367188 11.085938 C 11.367188 11.078125 11.367188 11.070312 11.367188 11.0625 C 11.519531 11.078125 11.667969 11.085938 11.824219 11.085938 C 12.914062 11.085938 13.914062 10.703125 14.695312 10.066406 Z M 14.695312 10.066406 "/>
<path style=" stroke:none;fill-rule:nonzero;fill:rgb(25.882354%,25.882354%,25.882354%);fill-opacity:1;" d="M 8.320312 10.765625 C 8.234375 11.007812 8.183594 11.269531 8.183594 11.539062 C 8.183594 12.054688 8.355469 12.523438 8.636719 12.90625 C 8.640625 12.90625 8.640625 12.90625 8.640625 12.90625 C 8.796875 12.90625 8.949219 12.886719 9.097656 12.847656 C 9.109375 12.167969 9.371094 11.550781 9.792969 11.082031 C 9.273438 11.058594 8.777344 10.949219 8.320312 10.765625 Z M 8.320312 10.765625 "/>
<path style=" stroke:none;fill-rule:nonzero;fill:rgb(25.882354%,25.882354%,25.882354%);fill-opacity:1;" d="M 13.507812 10.765625 C 13.050781 10.949219 12.554688 11.058594 12.035156 11.082031 C 12.457031 11.550781 12.71875 12.167969 12.730469 12.847656 C 12.878906 12.886719 13.03125 12.90625 13.1875 12.90625 C 13.1875 12.90625 13.1875 12.90625 13.191406 12.90625 C 13.472656 12.523438 13.640625 12.054688 13.640625 11.539062 C 13.640625 11.269531 13.59375 11.007812 13.507812 10.765625 Z M 13.507812 10.765625 "/>
</g>
</svg>
