<?xml version="1.0" encoding="UTF-8"?>
<svg xmlns="http://www.w3.org/2000/svg" xmlns:xlink="http://www.w3.org/1999/xlink" width="22px" height="22px" viewBox="0 0 22 22" version="1.1">
<g id="surface1">
<path style=" stroke:none;fill-rule:nonzero;fill:rgb(55.29412%,43.137255%,38.82353%);fill-opacity:1;" d="M 1.820312 1.082031 L 20.007812 1.082031 C 20.511719 1.082031 20.917969 1.488281 20.917969 1.992188 L 20.917969 20.179688 C 20.917969 20.683594 20.511719 21.089844 20.007812 21.089844 L 1.820312 21.089844 C 1.316406 21.089844 0.910156 20.683594 0.910156 20.179688 L 0.910156 1.992188 C 0.910156 1.488281 1.316406 1.082031 1.820312 1.082031 Z M 1.820312 1.082031 "/>
<path style=" stroke:none;fill-rule:nonzero;fill:rgb(25.882354%,25.882354%,25.882354%);fill-opacity:1;" d="M 10.914062 10.339844 L 6.007812 16.71875 L 6.726562 17.273438 L 10.914062 11.832031 L 15.101562 17.273438 L 15.820312 16.71875 Z M 10.914062 10.339844 "/>
<path style=" stroke:none;fill-rule:nonzero;fill:rgb(25.882354%,25.882354%,25.882354%);fill-opacity:1;" d="M 10.460938 5.628906 L 11.367188 5.628906 L 11.367188 10.175781 L 10.460938 10.175781 Z M 10.460938 5.628906 "/>
<path style=" stroke:none;fill-rule:nonzero;fill:rgb(25.882354%,25.882354%,25.882354%);fill-opacity:1;" d="M 10.914062 5.175781 C 10.003906 5.175781 8.835938 5.164062 7.824219 5.480469 C 7.316406 5.636719 6.839844 5.882812 6.480469 6.285156 C 6.125 6.6875 5.910156 7.242188 5.910156 7.902344 C 5.910156 11.085938 5.921875 13.570312 5.910156 16.542969 L 6.820312 16.542969 C 6.832031 13.570312 6.820312 11.085938 6.820312 7.902344 C 6.820312 7.425781 6.949219 7.128906 7.160156 6.890625 C 7.371094 6.652344 7.691406 6.472656 8.09375 6.347656 C 8.898438 6.09375 10.003906 6.082031 10.914062 6.082031 Z M 10.914062 5.175781 "/>
<path style=" stroke:none;fill-rule:nonzero;fill:rgb(25.882354%,25.882354%,25.882354%);fill-opacity:1;" d="M 10.914062 5.175781 L 10.914062 6.082031 C 11.824219 6.082031 12.929688 6.09375 13.734375 6.347656 C 14.136719 6.472656 14.457031 6.652344 14.667969 6.890625 C 14.878906 7.128906 15.007812 7.425781 15.007812 7.902344 C 15.007812 11.085938 14.996094 13.570312 15.007812 16.542969 L 15.917969 16.542969 C 15.90625 13.570312 15.917969 11.085938 15.917969 7.902344 C 15.917969 7.242188 15.703125 6.6875 15.347656 6.285156 C 14.988281 5.882812 14.511719 5.636719 14.003906 5.480469 C 12.992188 5.164062 11.824219 5.175781 10.914062 5.175781 Z M 10.914062 5.175781 "/>
<path style=" stroke:none;fill-rule:nonzero;fill:rgb(93.333334%,93.333334%,93.333334%);fill-opacity:1;" d="M 10.914062 3.808594 C 11.917969 3.808594 12.734375 4.625 12.734375 5.628906 C 12.734375 6.632812 11.917969 7.449219 10.914062 7.449219 C 9.910156 7.449219 9.09375 6.632812 9.09375 5.628906 C 9.09375 4.625 9.910156 3.808594 10.914062 3.808594 Z M 10.914062 3.808594 "/>
<path style=" stroke:none;fill-rule:nonzero;fill:rgb(93.333334%,93.333334%,93.333334%);fill-opacity:1;" d="M 8.183594 9.722656 L 13.644531 9.722656 C 13.894531 9.722656 14.097656 9.925781 14.097656 10.175781 L 14.097656 11.996094 C 14.097656 12.246094 13.894531 12.449219 13.644531 12.449219 L 8.183594 12.449219 C 7.933594 12.449219 7.730469 12.246094 7.730469 11.996094 L 7.730469 10.175781 C 7.730469 9.925781 7.933594 9.722656 8.183594 9.722656 Z M 8.183594 9.722656 "/>
<path style=" stroke:none;fill-rule:nonzero;fill:rgb(93.333334%,93.333334%,93.333334%);fill-opacity:1;" d="M 3.636719 15.632812 L 9.09375 15.632812 C 9.347656 15.632812 9.550781 15.835938 9.550781 16.089844 L 9.550781 17.90625 C 9.550781 18.160156 9.347656 18.363281 9.09375 18.363281 L 3.636719 18.363281 C 3.386719 18.363281 3.183594 18.160156 3.183594 17.90625 L 3.183594 16.089844 C 3.183594 15.835938 3.386719 15.632812 3.636719 15.632812 Z M 3.636719 15.632812 "/>
<path style=" stroke:none;fill-rule:nonzero;fill:rgb(93.333334%,93.333334%,93.333334%);fill-opacity:1;" d="M 12.734375 15.632812 L 18.191406 15.632812 C 18.441406 15.632812 18.644531 15.835938 18.644531 16.089844 L 18.644531 17.90625 C 18.644531 18.160156 18.441406 18.363281 18.191406 18.363281 L 12.734375 18.363281 C 12.480469 18.363281 12.277344 18.160156 12.277344 17.90625 L 12.277344 16.089844 C 12.277344 15.835938 12.480469 15.632812 12.734375 15.632812 Z M 12.734375 15.632812 "/>
</g>
</svg>
