<?xml version="1.0" encoding="UTF-8"?>
<svg xmlns="http://www.w3.org/2000/svg" xmlns:xlink="http://www.w3.org/1999/xlink" width="22px" height="22px" viewBox="0 0 22 22" version="1.1">
<g id="surface1">
<path style=" stroke:none;fill-rule:nonzero;fill:rgb(87.843138%,87.843138%,87.843138%);fill-opacity:1;" d="M 10.914062 1.082031 C 16.4375 1.082031 20.917969 5.5625 20.917969 11.085938 C 20.917969 16.609375 16.4375 21.089844 10.914062 21.089844 C 5.390625 21.089844 0.910156 16.609375 0.910156 11.085938 C 0.910156 5.5625 5.390625 1.082031 10.914062 1.082031 Z M 10.914062 1.082031 "/>
<path style=" stroke:none;fill-rule:nonzero;fill:rgb(25.882354%,25.882354%,25.882354%);fill-opacity:1;" d="M 4.816406 10.511719 C 4.597656 10.636719 4.523438 10.914062 4.648438 11.132812 L 6.242188 13.890625 L 4.273438 15.027344 C 4.054688 15.152344 3.980469 15.429688 4.105469 15.648438 L 4.332031 16.042969 C 4.457031 16.257812 4.734375 16.332031 4.953125 16.207031 L 7.316406 14.84375 L 15.195312 10.296875 L 17.554688 8.933594 C 17.773438 8.804688 17.847656 8.527344 17.722656 8.3125 L 17.496094 7.917969 C 17.371094 7.699219 17.09375 7.625 16.875 7.75 L 14.90625 8.886719 L 13.3125 6.128906 C 13.1875 5.914062 12.910156 5.839844 12.691406 5.964844 Z M 4.816406 10.511719 "/>
</g>
</svg>
