<?xml version="1.0" encoding="UTF-8"?>
<svg xmlns="http://www.w3.org/2000/svg" xmlns:xlink="http://www.w3.org/1999/xlink" width="22px" height="22px" viewBox="0 0 22 22" version="1.1">
<g id="surface1">
<path style=" stroke:none;fill-rule:nonzero;fill:rgb(32.941177%,43.137255%,47.843137%);fill-opacity:1;" d="M 18.191406 16.152344 C 18.4375 16.152344 18.640625 16.355469 18.640625 16.601562 L 18.640625 20.179688 C 18.640625 20.523438 18.273438 20.742188 17.972656 20.574219 L 13.878906 17.90625 C 13.734375 17.828125 13.644531 17.675781 13.644531 17.511719 L 13.644531 16.601562 C 13.644531 16.355469 13.847656 16.152344 14.097656 16.152344 Z M 18.191406 16.152344 "/>
<path style=" stroke:none;fill-rule:nonzero;fill:rgb(47.058824%,56.470591%,61.176473%);fill-opacity:1;" d="M 1.820312 1.535156 L 20.007812 1.535156 C 20.511719 1.535156 20.917969 1.941406 20.917969 2.445312 L 20.917969 16.996094 C 20.917969 17.5 20.511719 17.90625 20.007812 17.90625 L 1.820312 17.90625 C 1.316406 17.90625 0.910156 17.5 0.910156 16.996094 L 0.910156 2.445312 C 0.910156 1.941406 1.316406 1.535156 1.820312 1.535156 Z M 1.820312 1.535156 "/>
<path style=" stroke:none;fill-rule:nonzero;fill:rgb(93.333334%,93.333334%,93.333334%);fill-opacity:1;" d="M 10.460938 5.628906 C 8.949219 5.628906 7.730469 6.847656 7.730469 8.355469 L 7.730469 11.085938 C 7.730469 12.597656 8.949219 13.8125 10.460938 13.8125 L 11.367188 13.8125 C 11.59375 13.8125 11.8125 13.789062 12.023438 13.734375 L 12.460938 14.496094 L 13.640625 13.816406 L 13.222656 13.089844 C 13.761719 12.59375 14.097656 11.878906 14.097656 11.085938 L 14.097656 8.355469 C 14.097656 6.847656 12.878906 5.628906 11.367188 5.628906 Z M 10.460938 6.992188 L 11.367188 6.992188 C 12.125 6.992188 12.734375 7.601562 12.734375 8.355469 L 12.734375 11.085938 C 12.734375 11.367188 12.648438 11.628906 12.503906 11.84375 L 12.277344 11.453125 L 11.097656 12.132812 L 11.28125 12.449219 L 10.460938 12.449219 C 9.703125 12.449219 9.09375 11.839844 9.09375 11.085938 L 9.09375 8.355469 C 9.09375 7.601562 9.703125 6.992188 10.460938 6.992188 Z M 10.460938 6.992188 "/>
<path style=" stroke:none;fill-rule:nonzero;fill:rgb(93.333334%,93.333334%,93.333334%);fill-opacity:1;" d="M 3.636719 5.628906 L 5.003906 5.628906 L 5.003906 7.902344 L 3.636719 7.902344 Z M 3.636719 5.628906 "/>
<path style=" stroke:none;fill-rule:nonzero;fill:rgb(93.333334%,93.333334%,93.333334%);fill-opacity:1;" d="M 5.457031 5.628906 L 6.820312 5.628906 L 6.820312 7.902344 L 5.457031 7.902344 Z M 5.457031 5.628906 "/>
<path style=" stroke:none;fill-rule:nonzero;fill:rgb(93.333334%,93.333334%,93.333334%);fill-opacity:1;" d="M 15.007812 5.628906 L 16.371094 5.628906 L 16.371094 7.902344 L 15.007812 7.902344 Z M 15.007812 5.628906 "/>
<path style=" stroke:none;fill-rule:nonzero;fill:rgb(93.333334%,93.333334%,93.333334%);fill-opacity:1;" d="M 16.824219 5.628906 L 18.191406 5.628906 L 18.191406 7.902344 L 16.824219 7.902344 Z M 16.824219 5.628906 "/>
</g>
</svg>
