<?xml version="1.0" encoding="UTF-8"?>
<svg xmlns="http://www.w3.org/2000/svg" xmlns:xlink="http://www.w3.org/1999/xlink" width="22px" height="22px" viewBox="0 0 22 22" version="1.1">
<g id="surface1">
<path style=" stroke:none;fill-rule:nonzero;fill:rgb(49.411765%,34.117648%,76.078433%);fill-opacity:1;" d="M 1.820312 2.445312 L 20.007812 2.445312 C 20.511719 2.445312 20.917969 2.8125 20.917969 3.269531 L 20.917969 18.902344 C 20.917969 19.359375 20.511719 19.726562 20.007812 19.726562 L 1.820312 19.726562 C 1.316406 19.726562 0.910156 19.359375 0.910156 18.902344 L 0.910156 3.269531 C 0.910156 2.8125 1.316406 2.445312 1.820312 2.445312 Z M 1.820312 2.445312 "/>
<path style=" stroke:none;fill-rule:nonzero;fill:rgb(58.431375%,45.882353%,80.392158%);fill-opacity:1;" d="M 0.910156 6.082031 L 0.910156 3.355469 C 0.910156 2.851562 1.316406 2.445312 1.820312 2.445312 L 20.007812 2.445312 C 20.511719 2.445312 20.917969 2.851562 20.917969 3.355469 L 20.917969 6.082031 Z M 0.910156 6.082031 "/>
<path style=" stroke:none;fill-rule:nonzero;fill:rgb(93.725491%,32.549021%,31.37255%);fill-opacity:1;" d="M 19.835938 3.300781 C 19.925781 3.390625 19.925781 3.53125 19.835938 3.621094 L 18.230469 5.230469 C 18.140625 5.316406 17.996094 5.316406 17.90625 5.230469 C 17.820312 5.140625 17.820312 4.996094 17.90625 4.90625 L 19.515625 3.300781 C 19.605469 3.210938 19.75 3.210938 19.835938 3.300781 Z M 19.835938 3.300781 "/>
<path style=" stroke:none;fill-rule:nonzero;fill:rgb(93.725491%,32.549021%,31.37255%);fill-opacity:1;" d="M 19.835938 5.230469 C 19.75 5.316406 19.605469 5.316406 19.515625 5.230469 L 17.90625 3.621094 C 17.820312 3.53125 17.820312 3.390625 17.90625 3.300781 C 17.996094 3.210938 18.140625 3.210938 18.230469 3.300781 L 19.835938 4.90625 C 19.925781 4.996094 19.925781 5.140625 19.835938 5.230469 Z M 19.835938 5.230469 "/>
<path style=" stroke:none;fill-rule:nonzero;fill:rgb(36.862746%,20.784314%,69.411767%);fill-opacity:1;" d="M 0.910156 6.082031 L 20.917969 6.082031 L 20.917969 6.3125 L 0.910156 6.3125 Z M 0.910156 6.082031 "/>
<path style=" stroke:none;fill-rule:nonzero;fill:rgb(93.333334%,93.333334%,93.333334%);fill-opacity:1;" d="M 10.460938 8.585938 C 9.199219 8.585938 8.1875 9.496094 8.1875 10.632812 L 8.1875 15.179688 C 8.1875 15.304688 8.285156 15.40625 8.414062 15.40625 L 9.324219 15.40625 C 9.449219 15.40625 9.550781 15.304688 9.550781 15.179688 L 9.550781 13.359375 L 12.277344 13.359375 L 12.277344 15.179688 C 12.277344 15.304688 12.378906 15.40625 12.503906 15.40625 L 13.414062 15.40625 C 13.542969 15.40625 13.640625 15.304688 13.640625 15.179688 L 13.640625 10.632812 C 13.640625 9.496094 12.628906 8.585938 11.367188 8.585938 Z M 10.460938 9.949219 L 11.367188 9.949219 C 11.871094 9.949219 12.277344 10.253906 12.277344 10.632812 L 12.277344 11.996094 L 9.550781 11.996094 L 9.550781 10.632812 C 9.550781 10.253906 9.957031 9.949219 10.460938 9.949219 Z M 10.460938 9.949219 "/>
</g>
</svg>
