<?xml version="1.0" encoding="UTF-8"?>
<svg xmlns="http://www.w3.org/2000/svg" xmlns:xlink="http://www.w3.org/1999/xlink" width="22px" height="22px" viewBox="0 0 22 22" version="1.1">
<g id="surface1">
<path style=" stroke:none;fill-rule:nonzero;fill:rgb(40.000001%,73.333335%,41.568628%);fill-opacity:1;" d="M 4.335938 3.332031 C 3.027344 4.085938 2.582031 5.75 3.335938 7.058594 C 5.15625 10.210938 7.066406 8.058594 10.914062 11.085938 C 10.214844 6.238281 13.035156 5.660156 11.214844 2.511719 C 10.457031 1.203125 8.796875 0.757812 7.488281 1.511719 C 6.878906 1.863281 6.460938 2.40625 6.257812 3.019531 C 5.625 2.890625 4.941406 2.980469 4.335938 3.332031 Z M 10.914062 11.085938 C 15.761719 10.386719 16.339844 13.207031 19.488281 11.386719 C 20.796875 10.628906 21.242188 8.96875 20.488281 7.660156 C 20.136719 7.050781 19.59375 6.632812 18.980469 6.429688 C 19.109375 5.796875 19.019531 5.113281 18.667969 4.507812 C 17.914062 3.199219 16.25 2.753906 14.941406 3.507812 C 11.789062 5.328125 13.941406 7.238281 10.914062 11.085938 Z M 10.914062 11.085938 C 11.613281 15.933594 8.792969 16.511719 10.613281 19.660156 C 11.371094 20.96875 13.03125 21.414062 14.339844 20.660156 C 14.949219 20.308594 15.367188 19.765625 15.570312 19.152344 C 16.203125 19.28125 16.886719 19.191406 17.492188 18.839844 C 18.800781 18.085938 19.246094 16.421875 18.492188 15.113281 C 16.671875 11.960938 14.761719 14.113281 10.914062 11.085938 Z M 10.914062 11.085938 C 6.066406 11.785156 5.488281 8.964844 2.339844 10.785156 C 1.03125 11.542969 0.585938 13.203125 1.339844 14.511719 C 1.691406 15.121094 2.234375 15.539062 2.847656 15.742188 C 2.71875 16.375 2.808594 17.058594 3.160156 17.664062 C 3.914062 18.972656 5.578125 19.417969 6.886719 18.664062 C 10.039062 16.84375 7.886719 14.933594 10.914062 11.085938 Z M 10.914062 11.085938 "/>
</g>
</svg>
