<?xml version="1.0" encoding="UTF-8"?>
<svg xmlns="http://www.w3.org/2000/svg" xmlns:xlink="http://www.w3.org/1999/xlink" width="22px" height="22px" viewBox="0 0 22 22" version="1.1">
<g id="surface1">
<path style="fill-rule:nonzero;fill:rgb(0%,53.725493%,48.235294%);fill-opacity:1;stroke-width:0.264583;stroke-linecap:round;stroke-linejoin:round;stroke:rgb(96.078432%,96.078432%,96.078432%);stroke-opacity:1;stroke-miterlimit:4;" d="M 80.090909 -112.090909 C 58.545455 -88 42.636364 -60 32.727273 -30.090909 L 84.636364 21.818182 L 84.636364 64.181818 L 32.818182 116 C 37.727273 130.818182 44.272727 145.363636 52.363636 159.454545 C 60.454545 173.454545 69.818182 186.363636 80.181818 198 L 151 179.090909 L 187.636364 200.272727 L 206.636364 271.181818 C 237.545455 277.545455 269.727273 277.727273 301.363636 271.090909 L 320.363636 200.272727 L 357 179.090909 L 427.909091 198.090909 C 449.454545 174 465.363636 146 475.272727 116.090909 L 423.363636 64.181818 L 423.363636 21.818182 L 475.181818 -30 C 470.272727 -44.818182 463.727273 -59.363636 455.636364 -73.454545 C 447.545455 -87.454545 438.181818 -100.363636 427.818182 -112 L 357 -93.090909 L 320.363636 -114.272727 L 301.363636 -185.181818 C 270.454545 -191.545455 238.272727 -191.727273 206.636364 -185.090909 L 187.636364 -114.272727 L 151 -93.090909 Z M 80.090909 -112.090909 " transform="matrix(0.0429688,0,0,0.0429688,0,9.238281)"/>
<path style=" stroke:none;fill-rule:nonzero;fill:rgb(74.117649%,74.117649%,74.117649%);fill-opacity:1;" d="M 10.914062 3.808594 C 14.933594 3.808594 18.191406 7.066406 18.191406 11.085938 C 18.191406 15.105469 14.933594 18.363281 10.914062 18.363281 C 6.894531 18.363281 3.636719 15.105469 3.636719 11.085938 C 3.636719 7.066406 6.894531 3.808594 10.914062 3.808594 Z M 10.914062 3.808594 "/>
<path style=" stroke:none;fill-rule:nonzero;fill:rgb(0%,53.725493%,48.235294%);fill-opacity:1;" d="M 10.914062 5.628906 C 13.929688 5.628906 16.371094 8.070312 16.371094 11.085938 C 16.371094 14.101562 13.929688 16.542969 10.914062 16.542969 C 7.898438 16.542969 5.457031 14.101562 5.457031 11.085938 C 5.457031 8.070312 7.898438 5.628906 10.914062 5.628906 Z M 10.914062 5.628906 "/>
<path style=" stroke:none;fill-rule:nonzero;fill:rgb(74.117649%,74.117649%,74.117649%);fill-opacity:1;" d="M 10.914062 7.449219 C 12.921875 7.449219 14.550781 9.078125 14.550781 11.085938 C 14.550781 13.09375 12.921875 14.722656 10.914062 14.722656 C 8.90625 14.722656 7.277344 13.09375 7.277344 11.085938 C 7.277344 9.078125 8.90625 7.449219 10.914062 7.449219 Z M 10.914062 7.449219 "/>
<path style=" stroke:none;fill-rule:nonzero;fill:rgb(25.882354%,25.882354%,25.882354%);fill-opacity:1;" d="M 14.402344 9.527344 L 12.472656 7.597656 L 13.757812 6.3125 L 15.6875 8.242188 Z M 14.402344 9.527344 "/>
<path style=" stroke:none;fill-rule:nonzero;fill:rgb(38.039216%,38.039216%,38.039216%);fill-opacity:1;" d="M 15.207031 8.722656 C 15.296875 8.8125 15.4375 8.8125 15.527344 8.722656 L 15.851562 8.402344 L 20.671875 3.578125 C 21.03125 3.222656 21.03125 2.648438 20.671875 2.292969 L 19.707031 1.328125 C 19.351562 0.96875 18.777344 0.96875 18.421875 1.328125 L 13.597656 6.148438 L 13.277344 6.472656 C 13.1875 6.5625 13.1875 6.703125 13.277344 6.792969 Z M 15.207031 8.722656 "/>
<path style=" stroke:none;fill-rule:nonzero;fill:rgb(38.039216%,38.039216%,38.039216%);fill-opacity:1;" d="M 10.703125 11.292969 C 10.824219 11.417969 11.003906 11.460938 11.171875 11.40625 C 12.164062 11.074219 13.8125 10.4375 14.886719 9.367188 L 12.632812 7.113281 C 11.5625 8.1875 10.925781 9.835938 10.59375 10.828125 C 10.539062 10.992188 10.582031 11.171875 10.703125 11.292969 Z M 10.703125 11.292969 "/>
</g>
</svg>
