<?xml version="1.0" encoding="UTF-8"?>
<svg xmlns="http://www.w3.org/2000/svg" xmlns:xlink="http://www.w3.org/1999/xlink" width="22px" height="22px" viewBox="0 0 22 22" version="1.1">
<g id="surface1">
<path style=" stroke:none;fill-rule:nonzero;fill:rgb(74.117649%,74.117649%,74.117649%);fill-opacity:1;" d="M 17.054688 17.90625 L 20.007812 14.953125 L 17.734375 14.953125 C 17.359375 14.953125 17.054688 15.253906 17.054688 15.632812 Z M 17.054688 17.90625 "/>
<path style=" stroke:none;fill-rule:nonzero;fill:rgb(25.882354%,25.882354%,25.882354%);fill-opacity:1;" d="M 1.820312 2.445312 L 20.007812 2.445312 C 20.511719 2.445312 20.917969 2.851562 20.917969 3.355469 L 20.917969 18.816406 C 20.917969 19.320312 20.511719 19.726562 20.007812 19.726562 L 1.820312 19.726562 C 1.316406 19.726562 0.910156 19.320312 0.910156 18.816406 L 0.910156 3.355469 C 0.910156 2.851562 1.316406 2.445312 1.820312 2.445312 Z M 1.820312 2.445312 "/>
<path style=" stroke:none;fill-rule:nonzero;fill:rgb(61.960787%,61.960787%,61.960787%);fill-opacity:1;" d="M 2.273438 5.175781 L 19.554688 5.175781 C 19.804688 5.175781 20.007812 5.378906 20.007812 5.628906 L 20.007812 18.363281 C 20.007812 18.613281 19.804688 18.816406 19.554688 18.816406 L 2.273438 18.816406 C 2.023438 18.816406 1.820312 18.613281 1.820312 18.363281 L 1.820312 5.628906 C 1.820312 5.378906 2.023438 5.175781 2.273438 5.175781 Z M 2.273438 5.175781 "/>
<path style=" stroke:none;fill-rule:nonzero;fill:rgb(74.117649%,74.117649%,74.117649%);fill-opacity:1;" d="M 2.273438 5.175781 L 19.554688 5.175781 C 19.804688 5.175781 20.007812 5.378906 20.007812 5.628906 L 20.007812 17.90625 C 20.007812 18.160156 19.804688 18.363281 19.554688 18.363281 L 2.273438 18.363281 C 2.023438 18.363281 1.820312 18.160156 1.820312 17.90625 L 1.820312 5.628906 C 1.820312 5.378906 2.023438 5.175781 2.273438 5.175781 Z M 2.273438 5.175781 "/>
<path style=" stroke:none;fill-rule:nonzero;fill:rgb(93.333334%,93.333334%,93.333334%);fill-opacity:1;" d="M 2.273438 4.71875 L 19.554688 4.71875 C 19.804688 4.71875 20.007812 4.921875 20.007812 5.175781 L 20.007812 17.453125 C 20.007812 17.703125 19.804688 17.90625 19.554688 17.90625 L 2.273438 17.90625 C 2.023438 17.90625 1.820312 17.703125 1.820312 17.453125 L 1.820312 5.175781 C 1.820312 4.921875 2.023438 4.71875 2.273438 4.71875 Z M 2.273438 4.71875 "/>
<path style=" stroke:none;fill-rule:nonzero;fill:rgb(38.039216%,38.039216%,38.039216%);fill-opacity:1;" d="M 1.589844 2.445312 C 1.214844 2.445312 0.910156 2.75 0.910156 3.128906 L 0.910156 6.082031 L 20.917969 6.082031 L 20.917969 3.128906 C 20.917969 2.75 20.613281 2.445312 20.238281 2.445312 Z M 1.589844 2.445312 "/>
<path style=" stroke:none;fill-rule:nonzero;fill:rgb(87.843138%,87.843138%,87.843138%);fill-opacity:1;" d="M 5.457031 3.355469 C 4.953125 3.355469 4.546875 3.761719 4.546875 4.265625 C 4.546875 4.769531 4.953125 5.175781 5.457031 5.175781 C 5.960938 5.175781 6.367188 4.769531 6.367188 4.265625 C 6.367188 3.761719 5.960938 3.355469 5.457031 3.355469 Z M 5.457031 3.808594 C 5.707031 3.808594 5.910156 4.011719 5.910156 4.265625 C 5.910156 4.515625 5.707031 4.71875 5.457031 4.71875 C 5.207031 4.71875 5.003906 4.515625 5.003906 4.265625 C 5.003906 4.011719 5.207031 3.808594 5.457031 3.808594 Z M 5.457031 3.808594 "/>
<path style=" stroke:none;fill-rule:nonzero;fill:rgb(87.843138%,87.843138%,87.843138%);fill-opacity:1;" d="M 10.914062 3.355469 C 10.410156 3.355469 10.003906 3.761719 10.003906 4.265625 C 10.003906 4.769531 10.410156 5.175781 10.914062 5.175781 C 11.417969 5.175781 11.824219 4.769531 11.824219 4.265625 C 11.824219 3.761719 11.417969 3.355469 10.914062 3.355469 Z M 10.914062 3.808594 C 11.164062 3.808594 11.367188 4.011719 11.367188 4.265625 C 11.367188 4.515625 11.164062 4.71875 10.914062 4.71875 C 10.664062 4.71875 10.460938 4.515625 10.460938 4.265625 C 10.460938 4.011719 10.664062 3.808594 10.914062 3.808594 Z M 10.914062 3.808594 "/>
<path style=" stroke:none;fill-rule:nonzero;fill:rgb(0%,0%,0%);fill-opacity:0.235294;" d="M 16.371094 3.808594 C 16.621094 3.808594 16.824219 4.011719 16.824219 4.265625 C 16.824219 4.515625 16.621094 4.71875 16.371094 4.71875 C 16.121094 4.71875 15.917969 4.515625 15.917969 4.265625 C 15.917969 4.011719 16.121094 3.808594 16.371094 3.808594 Z M 16.371094 3.808594 "/>
<path style=" stroke:none;fill-rule:nonzero;fill:rgb(87.843138%,87.843138%,87.843138%);fill-opacity:1;" d="M 16.371094 3.355469 C 15.867188 3.355469 15.460938 3.761719 15.460938 4.265625 C 15.460938 4.769531 15.867188 5.175781 16.371094 5.175781 C 16.875 5.175781 17.28125 4.769531 17.28125 4.265625 C 17.28125 3.761719 16.875 3.355469 16.371094 3.355469 Z M 16.371094 3.808594 C 16.621094 3.808594 16.824219 4.011719 16.824219 4.265625 C 16.824219 4.515625 16.621094 4.71875 16.371094 4.71875 C 16.121094 4.71875 15.917969 4.515625 15.917969 4.265625 C 15.917969 4.011719 16.121094 3.808594 16.371094 3.808594 Z M 16.371094 3.808594 "/>
<path style=" stroke:none;fill-rule:nonzero;fill:rgb(87.843138%,87.843138%,87.843138%);fill-opacity:1;" d="M 20.007812 14.269531 L 16.371094 17.90625 L 19.554688 17.90625 C 19.804688 17.90625 20.007812 17.703125 20.007812 17.453125 Z M 20.007812 14.269531 "/>
<path style=" stroke:none;fill-rule:nonzero;fill:rgb(98.039216%,98.039216%,98.039216%);fill-opacity:1;" d="M 16.371094 17.90625 L 20.007812 14.269531 L 16.824219 14.269531 C 16.574219 14.269531 16.371094 14.472656 16.371094 14.722656 Z M 16.371094 17.90625 "/>
<path style=" stroke:none;fill-rule:nonzero;fill:rgb(0%,0%,0%);fill-opacity:0.235294;" d="M 10.914062 3.808594 C 11.164062 3.808594 11.367188 4.011719 11.367188 4.265625 C 11.367188 4.515625 11.164062 4.71875 10.914062 4.71875 C 10.664062 4.71875 10.460938 4.515625 10.460938 4.265625 C 10.460938 4.011719 10.664062 3.808594 10.914062 3.808594 Z M 10.914062 3.808594 "/>
<path style=" stroke:none;fill-rule:nonzero;fill:rgb(0%,0%,0%);fill-opacity:0.235294;" d="M 5.457031 3.808594 C 5.707031 3.808594 5.910156 4.011719 5.910156 4.265625 C 5.910156 4.515625 5.707031 4.71875 5.457031 4.71875 C 5.207031 4.71875 5.003906 4.515625 5.003906 4.265625 C 5.003906 4.011719 5.207031 3.808594 5.457031 3.808594 Z M 5.457031 3.808594 "/>
<path style=" stroke:none;fill-rule:nonzero;fill:rgb(89.803922%,22.352941%,20.784314%);fill-opacity:1;" d="M 4.140625 10.078125 C 3.953125 10.082031 3.828125 10.105469 3.828125 10.105469 C 3.675781 10.125 3.546875 10.226562 3.488281 10.371094 C 3.429688 10.515625 3.457031 10.679688 3.554688 10.800781 C 3.652344 10.917969 3.804688 10.976562 3.960938 10.953125 C 3.960938 10.953125 4.324219 10.902344 4.648438 10.980469 C 4.808594 11.023438 4.941406 11.089844 5.027344 11.175781 C 5.109375 11.265625 5.171875 11.375 5.171875 11.625 C 5.171875 12.234375 5.003906 12.769531 4.988281 13.324219 C 4.984375 13.601562 5.027344 13.910156 5.210938 14.175781 C 5.398438 14.441406 5.691406 14.628906 6.066406 14.753906 C 7.160156 15.117188 7.5625 16.53125 7.5625 16.53125 C 7.597656 16.683594 7.710938 16.800781 7.859375 16.84375 C 8.007812 16.886719 8.167969 16.847656 8.277344 16.738281 C 8.390625 16.628906 8.433594 16.46875 8.390625 16.320312 C 8.390625 16.320312 7.96875 14.484375 6.339844 13.941406 C 6.070312 13.851562 5.96875 13.761719 5.917969 13.6875 C 5.867188 13.617188 5.84375 13.523438 5.847656 13.34375 C 5.855469 12.988281 6.03125 12.378906 6.03125 11.625 C 6.03125 11.195312 5.878906 10.828125 5.644531 10.582031 C 5.40625 10.335938 5.117188 10.214844 4.847656 10.148438 C 4.582031 10.085938 4.328125 10.074219 4.140625 10.078125 Z M 4.140625 10.078125 "/>
<path style=" stroke:none;fill-rule:nonzero;fill:rgb(95.294118%,25.882354%,20.784314%);fill-opacity:1;" d="M 17.597656 5.328125 C 17.421875 5.152344 17.136719 5.152344 16.960938 5.328125 L 10.222656 12.066406 C 10.046875 12.238281 10.046875 12.527344 10.222656 12.699219 L 10.226562 12.703125 L 9.902344 13.027344 L 9.898438 13.027344 C 9.667969 12.796875 9.28125 12.878906 9.160156 13.179688 L 7.878906 16.386719 C 7.734375 16.753906 8.097656 17.117188 8.464844 16.972656 L 11.671875 15.6875 C 11.972656 15.566406 12.050781 15.179688 11.824219 14.953125 L 11.820312 14.949219 L 12.144531 14.625 L 12.148438 14.625 C 12.324219 14.800781 12.609375 14.800781 12.785156 14.625 L 19.523438 7.890625 C 19.699219 7.710938 19.699219 7.429688 19.523438 7.25 Z M 17.597656 5.328125 "/>
<path style=" stroke:none;fill-rule:nonzero;fill:rgb(93.725491%,32.549021%,31.37255%);fill-opacity:1;" d="M 17.597656 5.328125 C 17.421875 5.152344 17.136719 5.152344 16.960938 5.328125 L 10.222656 12.066406 C 10.046875 12.238281 10.046875 12.527344 10.222656 12.699219 L 10.226562 12.703125 L 10.222656 12.710938 L 12.140625 14.628906 L 12.144531 14.625 L 12.148438 14.625 C 12.324219 14.800781 12.609375 14.800781 12.785156 14.625 L 19.523438 7.890625 C 19.699219 7.710938 19.699219 7.429688 19.523438 7.25 Z M 17.597656 5.328125 "/>
<path style=" stroke:none;fill-rule:nonzero;fill:rgb(89.803922%,22.352941%,20.784314%);fill-opacity:0.196078;" d="M 10.21875 12.703125 L 12.140625 14.628906 L 11.820312 14.949219 L 9.894531 13.023438 Z M 10.21875 12.703125 "/>
<path style=" stroke:none;fill-rule:nonzero;fill:rgb(93.725491%,32.549021%,31.37255%);fill-opacity:1;" d="M 9.898438 13.027344 C 9.667969 12.796875 9.28125 12.878906 9.160156 13.179688 L 7.878906 16.386719 C 7.734375 16.753906 8.097656 17.117188 8.464844 16.972656 L 11.671875 15.6875 C 11.972656 15.566406 12.050781 15.179688 11.824219 14.953125 L 11.820312 14.949219 L 9.902344 13.027344 Z M 9.898438 13.027344 "/>
<path style=" stroke:none;fill-rule:nonzero;fill:rgb(25.882354%,25.882354%,25.882354%);fill-opacity:1;" d="M 15.574219 6.726562 L 15.253906 7.050781 L 17.808594 9.601562 L 18.128906 9.28125 Z M 12.207031 10.097656 L 11.886719 10.417969 L 14.441406 12.972656 L 14.761719 12.648438 Z M 12.207031 10.097656 "/>
</g>
</svg>
