<?xml version="1.0" encoding="UTF-8"?>
<svg xmlns="http://www.w3.org/2000/svg" xmlns:xlink="http://www.w3.org/1999/xlink" width="22px" height="22px" viewBox="0 0 22 22" version="1.1">
<g id="surface1">
<path style=" stroke:none;fill-rule:nonzero;fill:rgb(25.882354%,64.705884%,96.078432%);fill-opacity:1;" d="M 1.820312 1.082031 L 20.007812 1.082031 C 20.511719 1.082031 20.917969 1.488281 20.917969 1.992188 L 20.917969 20.179688 C 20.917969 20.683594 20.511719 21.089844 20.007812 21.089844 L 1.820312 21.089844 C 1.316406 21.089844 0.910156 20.683594 0.910156 20.179688 L 0.910156 1.992188 C 0.910156 1.488281 1.316406 1.082031 1.820312 1.082031 Z M 1.820312 1.082031 "/>
<path style=" stroke:none;fill-rule:nonzero;fill:rgb(93.333334%,93.333334%,93.333334%);fill-opacity:1;" d="M 5.457031 6.992188 L 6.367188 6.992188 C 6.617188 6.992188 6.820312 7.195312 6.820312 7.449219 L 6.820312 16.542969 C 6.820312 16.792969 6.617188 16.996094 6.367188 16.996094 L 5.457031 16.996094 C 5.207031 16.996094 5.003906 16.792969 5.003906 16.542969 L 5.003906 7.449219 C 5.003906 7.195312 5.207031 6.992188 5.457031 6.992188 Z M 5.457031 6.992188 "/>
<path style=" stroke:none;fill-rule:nonzero;fill:rgb(93.333334%,93.333334%,93.333334%);fill-opacity:1;" d="M 11.367188 6.992188 L 12.277344 6.992188 C 12.53125 6.992188 12.734375 7.195312 12.734375 7.449219 L 12.734375 16.542969 C 12.734375 16.792969 12.53125 16.996094 12.277344 16.996094 L 11.367188 16.996094 C 11.117188 16.996094 10.914062 16.792969 10.914062 16.542969 L 10.914062 7.449219 C 10.914062 7.195312 11.117188 6.992188 11.367188 6.992188 Z M 11.367188 6.992188 "/>
<path style=" stroke:none;fill-rule:nonzero;fill:rgb(93.333334%,93.333334%,93.333334%);fill-opacity:1;" d="M 6.820312 11.085938 L 10.914062 11.085938 C 11.164062 11.085938 11.367188 11.289062 11.367188 11.539062 L 11.367188 12.449219 C 11.367188 12.703125 11.164062 12.90625 10.914062 12.90625 L 6.820312 12.90625 C 6.570312 12.90625 6.367188 12.703125 6.367188 12.449219 L 6.367188 11.539062 C 6.367188 11.289062 6.570312 11.085938 6.820312 11.085938 Z M 6.820312 11.085938 "/>
<path style=" stroke:none;fill-rule:nonzero;fill:rgb(93.333334%,93.333334%,93.333334%);fill-opacity:1;" d="M 17.28125 5.175781 C 17.53125 5.175781 17.734375 5.378906 17.734375 5.628906 L 17.734375 8.359375 C 17.734375 8.609375 17.53125 8.8125 17.28125 8.8125 C 17.03125 8.8125 16.824219 8.609375 16.824219 8.359375 L 16.824219 5.628906 C 16.824219 5.378906 17.03125 5.175781 17.28125 5.175781 Z M 17.28125 5.175781 "/>
<path style=" stroke:none;fill-rule:nonzero;fill:rgb(93.333334%,93.333334%,93.333334%);fill-opacity:1;" d="M 16.371094 8.359375 L 18.191406 8.359375 C 18.441406 8.359375 18.644531 8.460938 18.644531 8.585938 L 18.644531 9.039062 C 18.644531 9.164062 18.441406 9.265625 18.191406 9.265625 L 16.371094 9.265625 C 16.121094 9.265625 15.917969 9.164062 15.917969 9.039062 L 15.917969 8.585938 C 15.917969 8.460938 16.121094 8.359375 16.371094 8.359375 Z M 16.371094 8.359375 "/>
<path style=" stroke:none;fill-rule:nonzero;fill:rgb(93.333334%,93.333334%,93.333334%);fill-opacity:1;" d="M 16.371094 5.175781 L 17.28125 5.175781 C 17.53125 5.175781 17.734375 5.277344 17.734375 5.402344 L 17.734375 5.855469 C 17.734375 5.980469 17.53125 6.082031 17.28125 6.082031 L 16.371094 6.082031 C 16.121094 6.082031 15.917969 5.980469 15.917969 5.855469 L 15.917969 5.402344 C 15.917969 5.277344 16.121094 5.175781 16.371094 5.175781 Z M 16.371094 5.175781 "/>
</g>
</svg>
