<?xml version="1.0" encoding="UTF-8"?>
<svg xmlns="http://www.w3.org/2000/svg" xmlns:xlink="http://www.w3.org/1999/xlink" width="22px" height="22px" viewBox="0 0 22 22" version="1.1">
<g id="surface1">
<path style=" stroke:none;fill-rule:nonzero;fill:rgb(93.333334%,93.333334%,93.333334%);fill-opacity:1;" d="M 7.277344 1.082031 C 6.773438 1.082031 6.367188 1.488281 6.367188 1.992188 L 6.367188 12.90625 L 0.910156 12.90625 L 10.914062 21.089844 L 20.917969 12.90625 L 15.460938 12.90625 L 15.460938 1.992188 C 15.460938 1.488281 15.054688 1.082031 14.550781 1.082031 Z M 7.277344 1.082031 "/>
<path style=" stroke:none;fill-rule:nonzero;fill:rgb(11.764706%,53.333336%,89.803922%);fill-opacity:1;" d="M 6.367188 3.808594 L 6.367188 6.082031 L 9.550781 6.082031 C 9.550781 6.839844 10.160156 7.449219 10.914062 7.449219 C 11.667969 7.449219 12.277344 6.839844 12.277344 6.082031 L 15.460938 6.082031 L 15.460938 3.808594 L 12.277344 3.808594 C 12.277344 4.566406 11.667969 5.175781 10.914062 5.175781 C 10.160156 5.175781 9.550781 4.566406 9.550781 3.808594 Z M 6.367188 3.808594 "/>
<path style=" stroke:none;fill-rule:nonzero;fill:rgb(25.882354%,64.705884%,96.078432%);fill-opacity:1;" d="M 6.367188 6.082031 L 6.367188 8.359375 L 9.550781 8.359375 C 9.550781 9.113281 10.160156 9.722656 10.914062 9.722656 C 11.667969 9.722656 12.277344 9.113281 12.277344 8.359375 L 15.460938 8.359375 L 15.460938 6.082031 L 12.277344 6.082031 C 12.277344 6.839844 11.667969 7.449219 10.914062 7.449219 C 10.160156 7.449219 9.550781 6.839844 9.550781 6.082031 Z M 6.367188 6.082031 "/>
<path style=" stroke:none;fill-rule:nonzero;fill:rgb(56.470591%,79.215688%,97.647059%);fill-opacity:1;" d="M 6.367188 8.359375 L 6.367188 10.632812 L 9.550781 10.632812 C 9.550781 11.386719 10.160156 11.996094 10.914062 11.996094 C 11.667969 11.996094 12.277344 11.386719 12.277344 10.632812 L 15.460938 10.632812 L 15.460938 8.359375 L 12.277344 8.359375 C 12.277344 9.113281 11.667969 9.722656 10.914062 9.722656 C 10.160156 9.722656 9.550781 9.113281 9.550781 8.359375 Z M 6.367188 8.359375 "/>
</g>
</svg>
