<?xml version="1.0" encoding="UTF-8"?>
<svg xmlns="http://www.w3.org/2000/svg" xmlns:xlink="http://www.w3.org/1999/xlink" width="22px" height="22px" viewBox="0 0 22 22" version="1.1">
<g id="surface1">
<path style=" stroke:none;fill-rule:nonzero;fill:rgb(74.117649%,74.117649%,74.117649%);fill-opacity:1;" d="M 15.234375 20.179688 L 18.191406 17.226562 L 15.917969 17.226562 C 15.539062 17.226562 15.234375 17.53125 15.234375 17.90625 Z M 15.234375 20.179688 "/>
<path style=" stroke:none;fill-rule:nonzero;fill:rgb(55.29412%,43.137255%,38.82353%);fill-opacity:1;" d="M 3.636719 2.898438 L 18.191406 2.898438 C 18.691406 2.898438 19.101562 3.308594 19.101562 3.808594 L 19.101562 20.179688 C 19.101562 20.683594 18.691406 21.089844 18.191406 21.089844 L 3.636719 21.089844 C 3.136719 21.089844 2.726562 20.683594 2.726562 20.179688 L 2.726562 3.808594 C 2.726562 3.308594 3.136719 2.898438 3.636719 2.898438 Z M 3.636719 2.898438 "/>
<path style=" stroke:none;fill-rule:nonzero;fill:rgb(93.333334%,93.333334%,93.333334%);fill-opacity:1;" d="M 4.09375 3.808594 C 3.839844 3.808594 3.636719 4.011719 3.636719 4.265625 L 3.636719 19.726562 C 3.636719 19.976562 3.839844 20.179688 4.09375 20.179688 L 14.550781 20.179688 L 18.191406 16.542969 L 18.191406 4.265625 C 18.191406 4.011719 17.988281 3.808594 17.734375 3.808594 Z M 4.09375 3.808594 "/>
<path style=" stroke:none;fill-rule:nonzero;fill:rgb(81.176472%,84.705883%,86.274511%);fill-opacity:1;" d="M 10.914062 1.082031 C 10.160156 1.082031 9.550781 1.691406 9.550781 2.445312 L 5.683594 2.445312 C 5.304688 2.445312 5.003906 2.75 5.003906 3.128906 L 5.003906 5.175781 L 16.824219 5.175781 L 16.824219 3.128906 C 16.824219 2.75 16.523438 2.445312 16.144531 2.445312 L 12.277344 2.445312 C 12.277344 1.691406 11.667969 1.082031 10.914062 1.082031 Z M 10.914062 1.992188 C 11.164062 1.992188 11.367188 2.195312 11.367188 2.445312 C 11.367188 2.699219 11.164062 2.898438 10.914062 2.898438 C 10.664062 2.898438 10.460938 2.699219 10.460938 2.445312 C 10.460938 2.195312 10.664062 1.992188 10.914062 1.992188 Z M 10.914062 1.992188 "/>
<path style=" stroke:none;fill-rule:nonzero;fill:rgb(47.058824%,56.470591%,61.176473%);fill-opacity:1;" d="M 8.640625 6.539062 L 15.917969 6.539062 C 16.167969 6.539062 16.371094 6.742188 16.371094 6.992188 C 16.371094 7.246094 16.167969 7.449219 15.917969 7.449219 L 8.640625 7.449219 C 8.390625 7.449219 8.1875 7.246094 8.1875 6.992188 C 8.1875 6.742188 8.390625 6.539062 8.640625 6.539062 Z M 8.640625 6.539062 "/>
<path style=" stroke:none;fill-rule:nonzero;fill:rgb(74.117649%,74.117649%,74.117649%);fill-opacity:1;" d="M 18.191406 16.542969 L 14.550781 20.179688 L 17.734375 20.179688 C 17.988281 20.179688 18.191406 19.976562 18.191406 19.726562 Z M 18.191406 16.542969 "/>
<path style=" stroke:none;fill-rule:nonzero;fill:rgb(87.843138%,87.843138%,87.843138%);fill-opacity:1;" d="M 14.550781 20.179688 L 18.191406 16.542969 L 15.007812 16.542969 C 14.753906 16.542969 14.550781 16.746094 14.550781 16.996094 Z M 14.550781 20.179688 "/>
<path style=" stroke:none;fill-rule:nonzero;fill:rgb(47.058824%,56.470591%,61.176473%);fill-opacity:1;" d="M 6.367188 6.082031 C 5.863281 6.082031 5.457031 6.488281 5.457031 6.992188 C 5.457031 7.496094 5.863281 7.902344 6.367188 7.902344 C 6.871094 7.902344 7.277344 7.496094 7.277344 6.992188 C 7.277344 6.488281 6.871094 6.082031 6.367188 6.082031 Z M 6.367188 6.539062 C 6.617188 6.539062 6.820312 6.742188 6.820312 6.992188 C 6.820312 7.246094 6.617188 7.449219 6.367188 7.449219 C 6.113281 7.449219 5.910156 7.246094 5.910156 6.992188 C 5.910156 6.742188 6.113281 6.539062 6.367188 6.539062 Z M 6.367188 6.539062 "/>
<path style=" stroke:none;fill-rule:nonzero;fill:rgb(47.058824%,56.470591%,61.176473%);fill-opacity:1;" d="M 6.367188 8.8125 C 5.863281 8.8125 5.457031 9.21875 5.457031 9.722656 C 5.457031 10.226562 5.863281 10.632812 6.367188 10.632812 C 6.871094 10.632812 7.277344 10.226562 7.277344 9.722656 C 7.277344 9.21875 6.871094 8.8125 6.367188 8.8125 Z M 6.367188 9.265625 C 6.617188 9.265625 6.820312 9.46875 6.820312 9.722656 C 6.820312 9.972656 6.617188 10.175781 6.367188 10.175781 C 6.113281 10.175781 5.910156 9.972656 5.910156 9.722656 C 5.910156 9.46875 6.113281 9.265625 6.367188 9.265625 Z M 6.367188 9.265625 "/>
<path style=" stroke:none;fill-rule:nonzero;fill:rgb(47.058824%,56.470591%,61.176473%);fill-opacity:1;" d="M 6.367188 11.539062 C 5.863281 11.539062 5.457031 11.945312 5.457031 12.449219 C 5.457031 12.953125 5.863281 13.359375 6.367188 13.359375 C 6.871094 13.359375 7.277344 12.953125 7.277344 12.449219 C 7.277344 11.945312 6.871094 11.539062 6.367188 11.539062 Z M 6.367188 11.996094 C 6.617188 11.996094 6.820312 12.199219 6.820312 12.449219 C 6.820312 12.703125 6.617188 12.90625 6.367188 12.90625 C 6.113281 12.90625 5.910156 12.703125 5.910156 12.449219 C 5.910156 12.199219 6.113281 11.996094 6.367188 11.996094 Z M 6.367188 11.996094 "/>
<path style=" stroke:none;fill-rule:nonzero;fill:rgb(47.058824%,56.470591%,61.176473%);fill-opacity:1;" d="M 6.367188 14.269531 C 5.863281 14.269531 5.457031 14.675781 5.457031 15.179688 C 5.457031 15.683594 5.863281 16.089844 6.367188 16.089844 C 6.871094 16.089844 7.277344 15.683594 7.277344 15.179688 C 7.277344 14.675781 6.871094 14.269531 6.367188 14.269531 Z M 6.367188 14.722656 C 6.617188 14.722656 6.820312 14.925781 6.820312 15.179688 C 6.820312 15.429688 6.617188 15.632812 6.367188 15.632812 C 6.113281 15.632812 5.910156 15.429688 5.910156 15.179688 C 5.910156 14.925781 6.113281 14.722656 6.367188 14.722656 Z M 6.367188 14.722656 "/>
<path style=" stroke:none;fill-rule:nonzero;fill:rgb(47.058824%,56.470591%,61.176473%);fill-opacity:1;" d="M 8.640625 9.265625 L 15.917969 9.265625 C 16.167969 9.265625 16.371094 9.46875 16.371094 9.722656 C 16.371094 9.972656 16.167969 10.175781 15.917969 10.175781 L 8.640625 10.175781 C 8.390625 10.175781 8.1875 9.972656 8.1875 9.722656 C 8.1875 9.46875 8.390625 9.265625 8.640625 9.265625 Z M 8.640625 9.265625 "/>
<path style=" stroke:none;fill-rule:nonzero;fill:rgb(47.058824%,56.470591%,61.176473%);fill-opacity:1;" d="M 8.640625 11.996094 L 15.917969 11.996094 C 16.167969 11.996094 16.371094 12.199219 16.371094 12.449219 C 16.371094 12.703125 16.167969 12.90625 15.917969 12.90625 L 8.640625 12.90625 C 8.390625 12.90625 8.1875 12.703125 8.1875 12.449219 C 8.1875 12.199219 8.390625 11.996094 8.640625 11.996094 Z M 8.640625 11.996094 "/>
<path style=" stroke:none;fill-rule:nonzero;fill:rgb(47.058824%,56.470591%,61.176473%);fill-opacity:1;" d="M 8.640625 14.722656 L 15.917969 14.722656 C 16.167969 14.722656 16.371094 14.925781 16.371094 15.179688 C 16.371094 15.429688 16.167969 15.632812 15.917969 15.632812 L 8.640625 15.632812 C 8.390625 15.632812 8.1875 15.429688 8.1875 15.179688 C 8.1875 14.925781 8.390625 14.722656 8.640625 14.722656 Z M 8.640625 14.722656 "/>
<path style=" stroke:none;fill-rule:nonzero;fill:rgb(93.725491%,32.549021%,31.37255%);fill-opacity:1;" d="M 5.402344 6.257812 L 6.046875 6.898438 L 6.367188 7.21875 L 7.652344 5.933594 L 7.332031 5.613281 L 6.367188 6.578125 L 5.722656 5.933594 Z M 5.402344 6.257812 "/>
<path style=" stroke:none;fill-rule:nonzero;fill:rgb(93.725491%,32.549021%,31.37255%);fill-opacity:1;" d="M 5.402344 8.984375 L 6.367188 9.949219 L 7.652344 8.664062 L 7.332031 8.339844 L 6.367188 9.304688 L 5.722656 8.664062 Z M 5.402344 8.984375 "/>
</g>
</svg>
