<?xml version="1.0" encoding="UTF-8"?>
<svg xmlns="http://www.w3.org/2000/svg" xmlns:xlink="http://www.w3.org/1999/xlink" width="22px" height="22px" viewBox="0 0 22 22" version="1.1">
<g id="surface1">
<path style=" stroke:none;fill-rule:nonzero;fill:rgb(38.039216%,38.039216%,38.039216%);fill-opacity:1;" d="M 1.820312 1.082031 L 20.007812 1.082031 C 20.511719 1.082031 20.917969 1.488281 20.917969 1.992188 L 20.917969 20.179688 C 20.917969 20.683594 20.511719 21.089844 20.007812 21.089844 L 1.820312 21.089844 C 1.316406 21.089844 0.910156 20.683594 0.910156 20.179688 L 0.910156 1.992188 C 0.910156 1.488281 1.316406 1.082031 1.820312 1.082031 Z M 1.820312 1.082031 "/>
<path style=" stroke:none;fill-rule:nonzero;fill:rgb(25.882354%,25.882354%,25.882354%);fill-opacity:1;" d="M 10.914062 3.808594 C 6.882812 3.808594 3.636719 7.054688 3.636719 11.085938 C 3.636719 13.101562 4.449219 14.921875 5.765625 16.234375 L 7.375 14.625 C 6.46875 13.722656 5.910156 12.472656 5.910156 11.085938 C 5.910156 8.316406 8.144531 6.082031 10.914062 6.082031 C 13.683594 6.082031 15.917969 8.316406 15.917969 11.085938 C 15.917969 12.472656 15.359375 13.722656 14.453125 14.625 L 16.0625 16.234375 C 17.378906 14.921875 18.191406 13.101562 18.191406 11.085938 C 18.191406 7.054688 14.945312 3.808594 10.914062 3.808594 Z M 10.914062 3.808594 "/>
<path style=" stroke:none;fill-rule:nonzero;fill:rgb(14.901961%,65.098041%,60.392159%);fill-opacity:1;" d="M 10.914062 3.808594 C 6.882812 3.808594 3.636719 7.054688 3.636719 11.085938 C 3.636719 13.101562 4.449219 14.921875 5.765625 16.234375 L 7.375 14.625 C 6.46875 13.722656 5.910156 12.472656 5.910156 11.085938 C 5.910156 8.316406 8.144531 6.082031 10.914062 6.082031 Z M 10.914062 3.808594 "/>
</g>
</svg>
