
<svg xmlns="http://www.w3.org/2000/svg" xmlns:xlink="http://www.w3.org/1999/xlink" width="22px" height="22px" viewBox="0 0 22 22" version="1.1">
<g id="surface1">
<path style=" stroke:none;fill-rule:nonzero;fill:rgb(100%,79.215688%,15.686275%);fill-opacity:1;" d="M 2.726562 0.910156 L 19.097656 0.910156 C 20.105469 0.910156 20.917969 1.722656 20.917969 2.726562 L 20.917969 19.101562 C 20.917969 20.105469 20.105469 20.917969 19.097656 20.917969 L 2.726562 20.917969 C 1.722656 20.917969 0.910156 20.105469 0.910156 19.101562 L 0.910156 2.726562 C 0.910156 1.722656 1.722656 0.910156 2.726562 0.910156 Z M 2.726562 0.910156 "/>
<path style=" stroke:none;fill-rule:nonzero;fill:rgb(74.117649%,74.117649%,74.117649%);fill-opacity:1;" d="M 17.324219 10.714844 L 11.828125 17.082031 C 14.015625 16.695312 16.972656 17.367188 18.277344 15.878906 C 20.09375 13.484375 19.449219 11.140625 17.324219 10.714844 Z M 16.835938 12.460938 C 18.71875 13.363281 16.203125 15.359375 15.179688 14.769531 L 15.148438 13.558594 Z M 16.835938 12.460938 "/>
<path style=" stroke:none;fill-rule:nonzero;fill:rgb(87.843138%,87.843138%,87.843138%);fill-opacity:1;" d="M 5.734375 4.453125 C 10.582031 4.425781 15.636719 7.265625 17.816406 9.601562 C 16.519531 14.792969 13.003906 18.296875 8.953125 17.449219 C 7.710938 17.191406 6.898438 16.820312 5.75 16.109375 C 2.621094 14.140625 2.328125 9.257812 5.734375 4.453125 Z M 5.734375 4.453125 "/>
<path style=" stroke:none;fill-rule:nonzero;fill:rgb(96.078432%,96.078432%,96.078432%);fill-opacity:1;" d="M 7.628906 5.042969 C 8.417969 5.457031 8.574219 6.710938 7.980469 7.84375 C 7.386719 8.972656 6.265625 9.554688 5.476562 9.140625 C 4.6875 8.726562 4.527344 7.472656 5.125 6.339844 C 5.71875 5.210938 6.839844 4.628906 7.628906 5.042969 Z M 7.628906 5.042969 "/>
<path style=" stroke:none;fill-rule:nonzero;fill:rgb(12.941177%,12.941177%,12.941177%);fill-opacity:1;" d="M 7.40625 5.878906 C 7.058594 5.878906 6.679688 6.058594 6.359375 6.375 L 6.894531 7.507812 L 5.707031 7.546875 C 5.542969 8.222656 5.722656 8.855469 6.191406 9.105469 C 6.289062 9.15625 6.390625 9.1875 6.496094 9.199219 C 7.058594 9.019531 7.617188 8.535156 7.980469 7.84375 C 8.183594 7.453125 8.300781 7.050781 8.332031 6.675781 C 8.257812 6.367188 8.089844 6.117188 7.832031 5.980469 C 7.699219 5.910156 7.558594 5.878906 7.40625 5.878906 Z M 7.40625 5.878906 "/>
<path style=" stroke:none;fill-rule:nonzero;fill:rgb(74.117649%,74.117649%,74.117649%);fill-opacity:1;" d="M 13.898438 6.773438 C 15.007812 5.742188 16.242188 4.253906 18.3125 3.914062 C 19.578125 4.566406 19.820312 5.785156 19.835938 6.789062 C 18.835938 7.371094 17.847656 7.996094 16.929688 8.828125 Z M 13.898438 6.773438 "/>
<path style=" stroke:none;fill-rule:nonzero;fill:rgb(25.882354%,64.705884%,96.078432%);fill-opacity:1;" d="M 5.78125 7.65625 C 7.484375 8.113281 8.589844 9.515625 8.25 10.785156 C 7.910156 12.054688 6.25 12.714844 4.546875 12.257812 C 2.84375 11.800781 1.738281 10.402344 2.078125 9.132812 C 2.417969 7.859375 4.078125 7.203125 5.78125 7.65625 Z M 5.78125 7.65625 "/>
<path style=" stroke:none;fill-rule:nonzero;fill:rgb(56.470591%,79.215688%,97.647059%);fill-opacity:1;" d="M 3.511719 7.972656 C 4.007812 7.839844 4.488281 8.03125 4.585938 8.398438 C 4.683594 8.769531 4.363281 9.175781 3.867188 9.308594 C 3.375 9.441406 2.890625 9.25 2.792969 8.878906 C 2.695312 8.511719 3.015625 8.105469 3.511719 7.972656 Z M 3.511719 7.972656 "/>
<path style=" stroke:none;fill-rule:nonzero;fill:rgb(96.078432%,96.078432%,96.078432%);fill-opacity:1;" d="M 13.308594 6.5 C 14.40625 7.078125 14.625 8.820312 13.796875 10.394531 C 12.96875 11.96875 11.410156 12.777344 10.3125 12.199219 C 9.21875 11.625 9 9.878906 9.824219 8.304688 C 10.652344 6.734375 12.210938 5.925781 13.308594 6.5 Z M 13.308594 6.5 "/>
<path style=" stroke:none;fill-rule:nonzero;fill:rgb(12.941177%,12.941177%,12.941177%);fill-opacity:1;" d="M 13 7.664062 C 12.515625 7.664062 11.988281 7.914062 11.542969 8.355469 L 12.289062 9.925781 L 10.636719 9.980469 C 10.410156 10.925781 10.65625 11.804688 11.308594 12.148438 C 11.445312 12.21875 11.585938 12.261719 11.734375 12.28125 C 12.515625 12.035156 13.289062 11.359375 13.796875 10.394531 C 14.082031 9.855469 14.242188 9.296875 14.289062 8.769531 C 14.183594 8.339844 13.949219 7.992188 13.59375 7.804688 C 13.410156 7.710938 13.207031 7.664062 13 7.664062 Z M 13 7.664062 "/>
<path style=" stroke:none;fill-rule:nonzero;fill:rgb(25.882354%,25.882354%,25.882354%);fill-opacity:1;" d="M 10.144531 16.5 C 6.847656 16.460938 5.210938 13.113281 9.429688 13.304688 C 10.011719 13.335938 10.621094 13.390625 11.070312 13.214844 C 16.246094 10.890625 15.039062 15.789062 11.910156 16.308594 C 11.410156 16.40625 10.878906 16.492188 10.144531 16.5 Z M 10.144531 16.5 "/>
<path style=" stroke:none;fill-rule:nonzero;fill:rgb(93.725491%,32.549021%,31.37255%);fill-opacity:1;" d="M 14.042969 12.898438 C 13.210938 12.898438 12.488281 13.324219 12.109375 13.960938 C 12 14.144531 11.945312 14.339844 11.890625 14.53125 C 11.847656 14.324219 11.917969 14.125 12.007812 13.925781 C 11.839844 13.871094 11.65625 13.84375 11.464844 13.84375 C 10.523438 13.84375 9.765625 14.558594 9.765625 15.445312 C 9.765625 15.847656 9.921875 16.21875 10.183594 16.5 C 10.898438 16.488281 11.417969 16.40625 11.910156 16.308594 C 13.957031 15.96875 15.183594 13.753906 14.332031 12.914062 C 14.238281 12.902344 14.140625 12.898438 14.042969 12.898438 Z M 14.042969 12.898438 "/>
<path style=" stroke:none;fill-rule:nonzero;fill:rgb(11.764706%,53.333336%,89.803922%);fill-opacity:1;" d="M 15.601562 5.195312 C 14.960938 5.714844 14.414062 6.292969 13.898438 6.773438 L 16.929688 8.828125 C 17.359375 8.441406 17.800781 8.097656 18.25 7.785156 C 17.664062 6.730469 16.710938 5.898438 15.601562 5.195312 Z M 15.601562 5.195312 "/>
</g>
</svg>
