
<svg xmlns="http://www.w3.org/2000/svg" xmlns:xlink="http://www.w3.org/1999/xlink" width="22px" height="22px" viewBox="0 0 22 22" version="1.1">
<g id="surface1">
<path style=" stroke:none;fill-rule:nonzero;fill:rgb(36.078432%,41.960785%,75.294119%);fill-opacity:1;" d="M 15.917969 2.25 C 20.703125 5.011719 22.339844 11.132812 19.578125 15.917969 C 16.816406 20.703125 10.695312 22.339844 5.910156 19.578125 C 1.125 16.816406 -0.511719 10.695312 2.25 5.910156 C 5.011719 1.125 11.132812 -0.511719 15.917969 2.25 Z M 15.917969 2.25 "/>
<path style=" stroke:none;fill-rule:nonzero;fill:rgb(96.078432%,96.078432%,96.078432%);fill-opacity:1;" d="M 2 6.375 C 1.964844 6.441406 1.929688 6.511719 1.894531 6.582031 C 2.503906 6.914062 3.886719 7.613281 4.566406 8.039062 C 5.484375 8.601562 6.722656 9.746094 6.820312 9.941406 C 5.867188 11.601562 6.300781 13.074219 6.1875 13.230469 C 6.105469 13.359375 5.355469 14.183594 5.597656 14.304688 C 5.835938 14.425781 6.21875 14.238281 6.277344 14.199219 C 6.394531 14.125 6.519531 14.019531 6.46875 14.230469 C 6.367188 14.664062 5.90625 15.703125 6.542969 15.484375 C 6.617188 15.4375 7.640625 14.3125 7.765625 14.273438 C 9.800781 14.804688 12.074219 14.5625 12.496094 14.363281 C 12.714844 14.378906 13.335938 14.769531 13.691406 14.953125 C 14.042969 15.140625 15.007812 15.601562 14.722656 14.761719 C 14.632812 14.496094 14 13.816406 14.101562 13.773438 C 14.328125 13.683594 14.890625 14.007812 15.105469 14.070312 C 15.75 14.25 15.835938 14 15.429688 13.449219 C 15.027344 12.898438 14.96875 12.980469 14.839844 12.726562 C 14.738281 12.523438 14.839844 12.296875 14.914062 12.242188 C 15.042969 12.140625 16.96875 11.074219 17.421875 10.664062 C 18.089844 10.054688 17.421875 9.296875 17.257812 9.191406 C 15.871094 8.191406 14.445312 8.40625 14.425781 8.246094 C 14.398438 7.597656 14.558594 6.140625 13.617188 6.449219 C 13.050781 6.535156 13.257812 7.402344 13.496094 8.21875 C 13.515625 8.425781 13.300781 8.332031 13.171875 8.113281 C 12.738281 6.949219 12.554688 6.96875 12.4375 6.933594 C 12.320312 6.90625 11.910156 7.15625 11.917969 7.628906 C 11.917969 7.761719 12.078125 8.402344 12.078125 8.601562 C 11.8125 8.835938 11.800781 9.367188 11.519531 9.558594 C 10.84375 8.910156 8.191406 8.414062 7.144531 9.453125 C 6.042969 8.195312 4.363281 7.257812 3.636719 7.09375 C 3.351562 7.035156 2.402344 6.613281 2.058594 6.402344 Z M 17.015625 7.414062 C 17.011719 7.414062 17.007812 7.417969 17.007812 7.417969 C 16.742188 7.703125 16.789062 8.773438 16.84375 8.761719 C 17.105469 8.710938 17.089844 7.417969 17.015625 7.414062 Z M 17.765625 7.578125 C 17.679688 7.585938 17.050781 8.492188 17.167969 8.835938 C 17.222656 8.992188 17.867188 7.855469 17.773438 7.582031 C 17.773438 7.578125 17.769531 7.574219 17.765625 7.578125 Z M 14.101562 9.207031 L 14.148438 9.25 C 14.242188 9.605469 14.847656 9.753906 15.011719 9.777344 C 15.074219 9.785156 14.585938 10.070312 14.339844 9.941406 C 14.117188 9.804688 14.050781 9.269531 14.101562 9.207031 Z M 15.597656 10.597656 C 15.617188 10.597656 15.636719 10.601562 15.652344 10.605469 C 15.785156 10.636719 14.703125 11.199219 14.621094 11.121094 C 14.570312 11.070312 15.195312 10.667969 15.535156 10.605469 L 15.53125 10.605469 C 15.558594 10.601562 15.578125 10.597656 15.597656 10.597656 Z M 15.804688 10.957031 C 15.808594 10.957031 15.8125 10.957031 15.816406 10.960938 C 15.925781 10.96875 15.191406 11.730469 15.109375 11.652344 C 15.046875 11.597656 15.566406 10.960938 15.804688 10.957031 Z M 15.804688 10.957031 "/>
</g>
</svg>
