
<svg xmlns="http://www.w3.org/2000/svg" xmlns:xlink="http://www.w3.org/1999/xlink" width="22px" height="22px" viewBox="0 0 22 22" version="1.1">
<g id="surface1">
<path style=" stroke:none;fill-rule:nonzero;fill:rgb(100%,43.921569%,26.274511%);fill-opacity:1;" d="M 15.917969 2.25 C 20.703125 5.011719 22.339844 11.132812 19.578125 15.917969 C 16.816406 20.703125 10.695312 22.339844 5.910156 19.578125 C 1.125 16.816406 -0.511719 10.695312 2.25 5.910156 C 5.011719 1.125 11.132812 -0.511719 15.917969 2.25 Z M 15.917969 2.25 "/>
<path style=" stroke:none;fill-rule:nonzero;fill:rgb(93.333334%,93.333334%,93.333334%);fill-opacity:1;" d="M 12.292969 5.160156 C 10.957031 4.839844 9.566406 5 8.359375 5.578125 L 9.273438 7.160156 C 10.421875 6.65625 11.785156 6.691406 12.960938 7.371094 C 14.136719 8.046875 14.847656 9.210938 14.984375 10.460938 L 16.8125 10.460938 C 16.710938 9.121094 16.152344 7.839844 15.207031 6.84375 C 14.640625 7.28125 13.847656 7.355469 13.1875 6.976562 C 12.527344 6.59375 12.199219 5.871094 12.292969 5.160156 Z M 7.570312 6.03125 C 6.863281 6.515625 6.253906 7.164062 5.792969 7.957031 C 5.558594 8.371094 5.375 8.796875 5.242188 9.230469 C 5.316406 9.261719 5.386719 9.296875 5.453125 9.335938 C 6 9.648438 6.367188 10.238281 6.367188 10.914062 C 6.367188 11.675781 5.902344 12.324219 5.242188 12.597656 C 5.617188 13.859375 6.414062 15 7.574219 15.792969 L 8.484375 14.210938 C 6.820312 12.988281 6.3125 10.699219 7.371094 8.867188 C 7.660156 8.363281 8.042969 7.941406 8.484375 7.617188 Z M 16.8125 11.367188 L 14.984375 11.367188 C 14.921875 11.914062 14.75 12.453125 14.457031 12.960938 C 13.402344 14.789062 11.164062 15.496094 9.273438 14.664062 L 8.359375 16.246094 C 9.625 16.855469 11.011719 16.976562 12.292969 16.667969 C 12.199219 15.960938 12.527344 15.234375 13.1875 14.851562 C 13.773438 14.515625 14.46875 14.535156 15.011719 14.851562 C 15.078125 14.890625 15.144531 14.9375 15.207031 14.984375 C 15.515625 14.652344 15.796875 14.28125 16.035156 13.871094 C 16.492188 13.078125 16.746094 12.222656 16.8125 11.367188 Z M 16.8125 11.367188 "/>
<path style=" stroke:none;fill-rule:nonzero;fill:rgb(93.333334%,93.333334%,93.333334%);fill-opacity:1;" d="M 14.78125 4.21875 C 15.433594 4.597656 15.65625 5.429688 15.277344 6.082031 C 14.902344 6.738281 14.070312 6.960938 13.414062 6.582031 C 12.761719 6.203125 12.539062 5.371094 12.914062 4.71875 C 13.292969 4.0625 14.125 3.839844 14.78125 4.21875 Z M 14.78125 4.21875 "/>
<path style=" stroke:none;fill-rule:nonzero;fill:rgb(93.333334%,93.333334%,93.333334%);fill-opacity:1;" d="M 5.910156 10.914062 C 5.910156 11.667969 5.304688 12.277344 4.546875 12.277344 C 3.792969 12.277344 3.183594 11.667969 3.183594 10.914062 C 3.183594 10.160156 3.792969 9.550781 4.546875 9.550781 C 5.304688 9.550781 5.910156 10.160156 5.910156 10.914062 Z M 5.910156 10.914062 "/>
<path style=" stroke:none;fill-rule:nonzero;fill:rgb(93.333334%,93.333334%,93.333334%);fill-opacity:1;" d="M 14.449219 17.746094 C 13.71875 17.941406 12.976562 17.511719 12.78125 16.78125 C 12.582031 16.050781 13.015625 15.304688 13.746094 15.109375 C 14.472656 14.914062 15.21875 15.34375 15.414062 16.074219 C 15.609375 16.804688 15.179688 17.550781 14.449219 17.746094 Z M 14.449219 17.746094 "/>
</g>
</svg>
