<?xml version="1.0" encoding="UTF-8"?>
<svg xmlns="http://www.w3.org/2000/svg" xmlns:xlink="http://www.w3.org/1999/xlink" width="22px" height="22px" viewBox="0 0 22 22" version="1.1">
<defs>
<linearGradient id="linear0" gradientUnits="userSpaceOnUse" x1="31.753048" y1="45.483517" x2="31.753048" y2="16.376558" gradientTransform="matrix(0.386359,0,0,0.386359,-1.611833,-0.81278)">
<stop offset="0" style="stop-color:rgb(87.843138%,87.843138%,87.843138%);stop-opacity:1;"/>
<stop offset="1" style="stop-color:rgb(93.333334%,93.333334%,93.333334%);stop-opacity:1;"/>
</linearGradient>
</defs>
<g id="surface1">
<path style=" stroke:none;fill-rule:nonzero;fill:rgb(74.117649%,74.117649%,74.117649%);fill-opacity:1;" d="M 10.914062 1.082031 C 16.4375 1.082031 20.917969 5.5625 20.917969 11.085938 C 20.917969 16.609375 16.4375 21.089844 10.914062 21.089844 C 5.390625 21.089844 0.910156 16.609375 0.910156 11.085938 C 0.910156 5.5625 5.390625 1.082031 10.914062 1.082031 Z M 10.914062 1.082031 "/>
<path style=" stroke:none;fill-rule:nonzero;fill:rgb(67.058825%,27.843139%,73.725492%);fill-opacity:1;" d="M 10.914062 1.992188 C 15.9375 1.992188 20.007812 6.0625 20.007812 11.085938 C 20.007812 16.109375 15.9375 20.179688 10.914062 20.179688 C 5.890625 20.179688 1.820312 16.109375 1.820312 11.085938 C 1.820312 6.0625 5.890625 1.992188 10.914062 1.992188 Z M 10.914062 1.992188 "/>
<path style=" stroke:none;fill-rule:nonzero;fill:url(#linear0);" d="M 7.542969 16.003906 C 7.542969 16.003906 8.203125 16.316406 9.082031 16.425781 C 9.4375 16.46875 10.792969 16.625 11.828125 16.621094 C 11.828125 16.621094 13.09375 16.621094 13.792969 16.523438 C 14.519531 16.417969 14.933594 16.285156 15.164062 16.023438 C 15.171875 15.960938 15.273438 15.753906 14.992188 15.554688 C 14.265625 15.050781 13.328125 14.910156 11.507812 14.480469 C 9.492188 13.972656 8.859375 13.488281 8.558594 13.136719 C 8.273438 12.785156 8.644531 12.054688 10.265625 11.695312 C 11.089844 11.496094 13.976562 11.390625 13.976562 11.390625 C 13.101562 10.695312 11.621094 9.515625 11.285156 9.25 C 10.988281 9.015625 10.511719 8.660156 10.464844 8.339844 C 10.394531 8.03125 10.882812 7.878906 11.140625 7.863281 C 11.976562 7.804688 13.113281 8.023438 14.128906 8.226562 C 14.636719 8.328125 14.726562 8.3125 14.726562 8.3125 C 15.453125 8.347656 16.160156 7.84375 16.128906 7.046875 C 16.125 6.234375 15.171875 5.582031 14.273438 5.554688 C 13.363281 5.550781 11.210938 5.550781 11.210938 5.550781 C 13.640625 6.050781 14.167969 6.304688 14.296875 6.597656 C 14.371094 6.769531 14.171875 6.941406 13.5 6.90625 C 12.773438 6.871094 11.28125 6.695312 11.28125 6.695312 C 9.859375 6.476562 8.992188 6.269531 8.558594 6.832031 C 8.277344 7.203125 8.601562 7.648438 8.726562 7.914062 C 9.289062 8.898438 10.144531 9.574219 10.761719 10.050781 C 10.996094 10.230469 11.707031 10.625 11.707031 10.625 C 9.496094 10.019531 7.613281 10.359375 6.496094 10.945312 C 5.210938 11.707031 5.433594 12.988281 7.46875 14.1875 C 8.671875 14.894531 9.390625 15.234375 11.363281 15.476562 C 12.511719 15.660156 12.746094 15.734375 12.734375 15.832031 C 12.722656 15.964844 11.3125 16.015625 10.941406 16.042969 C 10 16.105469 7.558594 16.003906 7.542969 16.003906 Z M 7.542969 16.003906 "/>
</g>
</svg>
