<?xml version="1.0" encoding="UTF-8"?>
<svg xmlns="http://www.w3.org/2000/svg" xmlns:xlink="http://www.w3.org/1999/xlink" width="22" height="22" viewBox="0 0 22 22" version="1.1">
<g id="surface1">
<path style=" stroke:none;fill-rule:nonzero;fill:rgb(100%,87.843138%,50.980395%);fill-opacity:1;" d="M 10.914062 0.910156 C 16.4375 0.910156 20.917969 5.390625 20.917969 10.914062 C 20.917969 16.4375 16.4375 20.917969 10.914062 20.917969 C 5.390625 20.917969 0.910156 16.4375 0.910156 10.914062 C 0.910156 5.390625 5.390625 0.910156 10.914062 0.910156 Z M 10.914062 0.910156 "/>
<path style=" stroke:none;fill-rule:nonzero;fill:rgb(100%,83.529413%,30.980393%);fill-opacity:1;" d="M 10.914062 6.820312 C 6.636719 6.820312 2.941406 9.207031 1.070312 12.722656 C 1.917969 17.394531 5.988281 20.917969 10.914062 20.917969 C 15.839844 20.917969 19.910156 17.394531 20.757812 12.722656 C 18.886719 9.207031 15.191406 6.820312 10.914062 6.820312 Z M 10.914062 6.820312 "/>
<path style=" stroke:none;fill-rule:nonzero;fill:rgb(100%,75.686276%,2.745098%);fill-opacity:1;" d="M 10.914062 11.367188 C 7.226562 11.367188 4.109375 13.71875 2.96875 17.003906 C 4.792969 19.386719 7.667969 20.917969 10.914062 20.917969 C 14.160156 20.917969 17.035156 19.386719 18.859375 17.003906 C 17.71875 13.71875 14.601562 11.367188 10.914062 11.367188 Z M 10.914062 11.367188 "/>
<path style=" stroke:none;fill-rule:nonzero;fill:rgb(93.333334%,93.333334%,93.333334%);fill-opacity:1;" d="M 10.914062 0.910156 C 5.371094 0.910156 0.910156 5.371094 0.910156 10.914062 C 0.910156 16.457031 5.371094 20.917969 10.914062 20.917969 C 16.457031 20.917969 20.917969 16.457031 20.917969 10.914062 C 20.917969 5.371094 16.457031 0.910156 10.914062 0.910156 Z M 10.914062 2.273438 C 15.699219 2.273438 19.554688 6.128906 19.554688 10.914062 C 19.554688 15.699219 15.699219 19.554688 10.914062 19.554688 C 6.128906 19.554688 2.273438 15.699219 2.273438 10.914062 C 2.273438 6.128906 6.128906 2.273438 10.914062 2.273438 Z M 10.914062 2.273438 "/>
</g>
</svg>
