
<svg xmlns="http://www.w3.org/2000/svg" xmlns:xlink="http://www.w3.org/1999/xlink" width="22px" height="22px" viewBox="0 0 22 22" version="1.1">
<g id="surface1">
<path style=" stroke:none;fill-rule:nonzero;fill:rgb(25.882354%,64.705884%,96.078432%);fill-opacity:1;" d="M 1.820312 0.910156 L 20.007812 0.910156 C 20.511719 0.910156 20.917969 1.316406 20.917969 1.820312 L 20.917969 20.007812 C 20.917969 20.511719 20.511719 20.917969 20.007812 20.917969 L 1.820312 20.917969 C 1.316406 20.917969 0.910156 20.511719 0.910156 20.007812 L 0.910156 1.820312 C 0.910156 1.316406 1.316406 0.910156 1.820312 0.910156 Z M 1.820312 0.910156 "/>
<path style=" stroke:none;fill-rule:nonzero;fill:rgb(93.333334%,93.333334%,93.333334%);fill-opacity:1;" d="M 10.914062 4.09375 C 8.394531 4.09375 6.367188 6.121094 6.367188 8.640625 C 6.367188 11.160156 8.394531 13.1875 10.914062 13.1875 C 11.941406 13.1875 12.882812 12.851562 13.640625 12.285156 L 13.640625 13.1875 C 13.640625 14.699219 12.425781 15.917969 10.914062 15.917969 C 9.898438 15.917969 9.011719 15.363281 8.542969 14.542969 C 8.425781 14.550781 8.304688 14.550781 8.183594 14.550781 L 6.574219 14.550781 C 7.148438 16.402344 8.871094 17.734375 10.914062 17.734375 C 13.433594 17.734375 15.460938 15.707031 15.460938 13.1875 L 15.460938 4.09375 L 13.640625 4.09375 L 13.640625 4.996094 C 12.882812 4.429688 11.941406 4.09375 10.914062 4.09375 Z M 10.878906 5.910156 L 10.949219 5.910156 C 12.441406 5.910156 13.640625 7.125 13.640625 8.636719 L 13.640625 8.644531 C 13.640625 10.152344 12.441406 11.367188 10.949219 11.367188 L 10.878906 11.367188 C 9.386719 11.367188 8.183594 10.152344 8.183594 8.644531 L 8.183594 8.636719 C 8.183594 7.125 9.386719 5.910156 10.878906 5.910156 Z M 10.878906 5.910156 "/>
</g>
</svg>
