<?xml version="1.0" encoding="UTF-8"?>
<svg xmlns="http://www.w3.org/2000/svg" xmlns:xlink="http://www.w3.org/1999/xlink" width="22px" height="22px" viewBox="0 0 22 22" version="1.1">
<g id="surface1">
<path style=" stroke:none;fill-rule:nonzero;fill:rgb(87.843138%,87.843138%,87.843138%);fill-opacity:1;" d="M 12.625 1.226562 C 11.457031 1.019531 10.285156 1.027344 9.152344 1.230469 C 9.242188 2.191406 8.707031 3.136719 7.761719 3.53125 C 6.820312 3.921875 5.773438 3.640625 5.148438 2.898438 C 4.210938 3.558594 3.382812 4.390625 2.707031 5.363281 C 3.445312 5.984375 3.730469 7.027344 3.34375 7.96875 C 2.957031 8.910156 2.019531 9.449219 1.058594 9.371094 C 0.851562 10.539062 0.863281 11.714844 1.0625 12.84375 C 1.429688 12.8125 1.792969 12.867188 2.125 13.003906 C 2.660156 13.226562 3.113281 13.652344 3.355469 14.234375 C 3.746094 15.171875 3.46875 16.21875 2.730469 16.84375 C 3.394531 17.78125 4.21875 18.609375 5.195312 19.285156 C 5.816406 18.550781 6.855469 18.269531 7.796875 18.65625 C 8.734375 19.042969 9.277344 19.976562 9.199219 20.933594 C 10.367188 21.140625 11.539062 21.132812 12.667969 20.933594 C 12.585938 19.972656 13.121094 19.03125 14.0625 18.640625 C 15 18.25 16.046875 18.53125 16.667969 19.265625 C 17.609375 18.605469 18.441406 17.78125 19.117188 16.804688 C 18.378906 16.1875 18.09375 15.140625 18.480469 14.203125 C 18.867188 13.261719 19.808594 12.71875 20.769531 12.800781 C 20.976562 11.632812 20.96875 10.457031 20.765625 9.328125 C 19.804688 9.414062 18.859375 8.878906 18.46875 7.9375 C 18.074219 6.996094 18.359375 5.945312 19.097656 5.324219 C 18.4375 4.382812 17.609375 3.550781 16.636719 2.875 C 16.015625 3.617188 14.96875 3.902344 14.027344 3.515625 C 13.085938 3.128906 12.542969 2.1875 12.625 1.226562 Z M 12.625 1.226562 "/>
<path style=" stroke:none;fill-rule:nonzero;fill:rgb(61.960787%,61.960787%,61.960787%);fill-opacity:1;" d="M 10.914062 4.710938 C 14.429688 4.710938 17.28125 7.5625 17.28125 11.078125 C 17.28125 14.59375 14.429688 17.445312 10.914062 17.445312 C 7.398438 17.445312 4.546875 14.59375 4.546875 11.078125 C 4.546875 7.5625 7.398438 4.710938 10.914062 4.710938 Z M 10.914062 4.710938 "/>
<path style=" stroke:none;fill-rule:nonzero;fill:rgb(38.039216%,38.039216%,38.039216%);fill-opacity:1;" d="M 10.914062 5.621094 C 13.929688 5.621094 16.371094 8.066406 16.371094 11.078125 C 16.371094 14.09375 13.929688 16.535156 10.914062 16.535156 C 7.898438 16.535156 5.457031 14.09375 5.457031 11.078125 C 5.457031 8.066406 7.898438 5.621094 10.914062 5.621094 Z M 10.914062 5.621094 "/>
<path style=" stroke:none;fill-rule:nonzero;fill:rgb(40.000001%,73.333335%,41.568628%);fill-opacity:1;" d="M 10.914062 7.441406 C 12.921875 7.441406 14.550781 9.070312 14.550781 11.078125 C 14.550781 13.089844 12.921875 14.71875 10.914062 14.71875 C 8.90625 14.71875 7.277344 13.089844 7.277344 11.078125 C 7.277344 9.070312 8.90625 7.441406 10.914062 7.441406 Z M 10.914062 7.441406 "/>
<path style=" stroke:none;fill-rule:nonzero;fill:rgb(40.000001%,73.333335%,41.568628%);fill-opacity:1;" d="M 13.871094 1.082031 L 14.097656 1.082031 C 14.347656 1.082031 14.550781 1.285156 14.550781 1.535156 L 14.550781 10.632812 C 14.550781 10.882812 14.347656 11.085938 14.097656 11.085938 L 13.871094 11.085938 C 13.617188 11.085938 13.414062 10.882812 13.414062 10.632812 L 13.414062 1.535156 C 13.414062 1.285156 13.617188 1.082031 13.871094 1.082031 Z M 13.871094 1.082031 "/>
<path style=" stroke:none;fill-rule:nonzero;fill:rgb(40.000001%,73.333335%,41.568628%);fill-opacity:1;" d="M 14.097656 1.082031 C 20.917969 4.71875 22.28125 4.71875 16.371094 9.265625 C 17.734375 6.992188 19.554688 5.628906 13.640625 3.808594 Z M 14.097656 1.082031 "/>
</g>
</svg>
