<?xml version="1.0" encoding="UTF-8"?>
<svg xmlns="http://www.w3.org/2000/svg" xmlns:xlink="http://www.w3.org/1999/xlink" width="22px" height="22px" viewBox="0 0 22 22" version="1.1">
<g id="surface1">
<path style=" stroke:none;fill-rule:nonzero;fill:rgb(93.725491%,32.549021%,31.37255%);fill-opacity:1;" d="M 4.09375 14.722656 C 5.851562 14.722656 7.277344 16.148438 7.277344 17.90625 C 7.277344 19.664062 5.851562 21.089844 4.09375 21.089844 C 2.335938 21.089844 0.910156 19.664062 0.910156 17.90625 C 0.910156 16.148438 2.335938 14.722656 4.09375 14.722656 Z M 4.09375 14.722656 "/>
<path style=" stroke:none;fill-rule:nonzero;fill:rgb(40.000001%,73.333335%,41.568628%);fill-opacity:1;" d="M 10.914062 14.722656 C 12.671875 14.722656 14.097656 16.148438 14.097656 17.90625 C 14.097656 19.664062 12.671875 21.089844 10.914062 21.089844 C 9.15625 21.089844 7.730469 19.664062 7.730469 17.90625 C 7.730469 16.148438 9.15625 14.722656 10.914062 14.722656 Z M 10.914062 14.722656 "/>
<path style=" stroke:none;fill-rule:nonzero;fill:rgb(93.725491%,32.549021%,31.37255%);fill-opacity:1;" d="M 17.734375 14.722656 C 19.492188 14.722656 20.917969 16.148438 20.917969 17.90625 C 20.917969 19.664062 19.492188 21.089844 17.734375 21.089844 C 15.976562 21.089844 14.550781 19.664062 14.550781 17.90625 C 14.550781 16.148438 15.976562 14.722656 17.734375 14.722656 Z M 17.734375 14.722656 "/>
<path style=" stroke:none;fill-rule:nonzero;fill:rgb(40.000001%,73.333335%,41.568628%);fill-opacity:1;" d="M 4.09375 7.902344 C 5.851562 7.902344 7.277344 9.328125 7.277344 11.085938 C 7.277344 12.84375 5.851562 14.269531 4.09375 14.269531 C 2.335938 14.269531 0.910156 12.84375 0.910156 11.085938 C 0.910156 9.328125 2.335938 7.902344 4.09375 7.902344 Z M 4.09375 7.902344 "/>
<path style=" stroke:none;fill-rule:nonzero;fill:rgb(40.000001%,73.333335%,41.568628%);fill-opacity:1;" d="M 10.914062 7.902344 C 12.671875 7.902344 14.097656 9.328125 14.097656 11.085938 C 14.097656 12.84375 12.671875 14.269531 10.914062 14.269531 C 9.15625 14.269531 7.730469 12.84375 7.730469 11.085938 C 7.730469 9.328125 9.15625 7.902344 10.914062 7.902344 Z M 10.914062 7.902344 "/>
<path style=" stroke:none;fill-rule:nonzero;fill:rgb(93.725491%,32.549021%,31.37255%);fill-opacity:1;" d="M 4.09375 1.082031 C 5.851562 1.082031 7.277344 2.507812 7.277344 4.265625 C 7.277344 6.023438 5.851562 7.449219 4.09375 7.449219 C 2.335938 7.449219 0.910156 6.023438 0.910156 4.265625 C 0.910156 2.507812 2.335938 1.082031 4.09375 1.082031 Z M 4.09375 1.082031 "/>
</g>
</svg>
