<?xml version="1.0" encoding="UTF-8"?>
<svg xmlns="http://www.w3.org/2000/svg" xmlns:xlink="http://www.w3.org/1999/xlink" width="22px" height="22px" viewBox="0 0 22 22" version="1.1">
<defs>
<linearGradient id="linear0" gradientUnits="userSpaceOnUse" x1="254" y1="244.083328" x2="254" y2="254.666672" gradientTransform="matrix(0.00214844,0,0,0.0429688,10.36836,10.602539)">
<stop offset="0" style="stop-color:rgb(12.941177%,12.941177%,12.941177%);stop-opacity:0.392157;"/>
<stop offset="1" style="stop-color:rgb(49.411765%,34.117648%,76.078433%);stop-opacity:0;"/>
</linearGradient>
<radialGradient id="radial0" gradientUnits="userSpaceOnUse" cx="41.451393" cy="228.901123" fx="41.451393" fy="228.901123" r="10.583335" gradientTransform="matrix(-0.0859375,-0.0000000125743,0.00000000785895,-0.053711,14.021536,33.271306)">
<stop offset="0" style="stop-color:rgb(12.941177%,12.941177%,12.941177%);stop-opacity:0.392157;"/>
<stop offset="1" style="stop-color:rgb(12.941177%,12.941177%,12.941177%);stop-opacity:0;"/>
</radialGradient>
<radialGradient id="radial1" gradientUnits="userSpaceOnUse" cx="41.451393" cy="228.901123" fx="41.451393" fy="228.901123" r="10.583335" gradientTransform="matrix(0.0859375,-0.0000000125743,-0.00000000785895,-0.053711,7.806588,33.271306)">
<stop offset="0" style="stop-color:rgb(12.941177%,12.941177%,12.941177%);stop-opacity:0.392157;"/>
<stop offset="1" style="stop-color:rgb(12.941177%,12.941177%,12.941177%);stop-opacity:0;"/>
</radialGradient>
<linearGradient id="linear1" gradientUnits="userSpaceOnUse" x1="254" y1="74.75" x2="254" y2="-31.083334" gradientTransform="matrix(0.0859375,0,0,0.0859375,-10.91405,3.752624)">
<stop offset="0" style="stop-color:rgb(36.078432%,41.960785%,75.294119%);stop-opacity:1;"/>
<stop offset="1" style="stop-color:rgb(47.450981%,52.549022%,79.607844%);stop-opacity:1;"/>
</linearGradient>
<linearGradient id="linear2" gradientUnits="userSpaceOnUse" x1="283.934174" y1="55.399151" x2="224.065811" y2="-4.469225" gradientTransform="matrix(0.060767,0.060767,-0.060767,0.060767,0.664704,-9.534301)">
<stop offset="0" style="stop-color:rgb(67.058825%,27.843139%,73.725492%);stop-opacity:1;"/>
<stop offset="1" style="stop-color:rgb(72.941178%,40.784314%,78.431374%);stop-opacity:1;"/>
</linearGradient>
<linearGradient id="linear3" gradientUnits="userSpaceOnUse" x1="285.75" y1="21.83334" x2="222.25" y2="21.83334" gradientTransform="matrix(0.000000000000000005,0.0859375,-0.0859375,0.000000000000000005,18.247393,-10.742159)">
<stop offset="0" style="stop-color:rgb(92.54902%,25.098041%,47.843137%);stop-opacity:1;"/>
<stop offset="1" style="stop-color:rgb(94.117647%,38.431373%,57.254905%);stop-opacity:1;"/>
</linearGradient>
<linearGradient id="linear4" gradientUnits="userSpaceOnUse" x1="276.450623" y1="-11.952759" x2="216.58226" y2="47.915615" gradientTransform="matrix(-0.060767,0.060767,-0.060767,-0.060767,31.534317,0.836595)">
<stop offset="0" style="stop-color:rgb(93.725491%,32.549021%,31.37255%);stop-opacity:1;"/>
<stop offset="1" style="stop-color:rgb(89.803922%,45.09804%,45.09804%);stop-opacity:1;"/>
</linearGradient>
<linearGradient id="linear5" gradientUnits="userSpaceOnUse" x1="254" y1="85.333336" x2="254" y2="-20.500023" gradientTransform="matrix(0.0859375,0,0,0.0859375,-10.91405,13.757177)">
<stop offset="0" style="stop-color:rgb(100%,43.921569%,26.274511%);stop-opacity:1;"/>
<stop offset="1" style="stop-color:rgb(100%,54.11765%,39.607844%);stop-opacity:1;"/>
</linearGradient>
<linearGradient id="linear6" gradientUnits="userSpaceOnUse" x1="276.450623" y1="66.202751" x2="216.58226" y2="6.334379" gradientTransform="matrix(0.060767,0.060767,-0.060767,0.060767,-6.409584,-2.460013)">
<stop offset="0" style="stop-color:rgb(100%,65.490198%,14.901961%);stop-opacity:1;"/>
<stop offset="1" style="stop-color:rgb(100%,71.764708%,30.19608%);stop-opacity:1;"/>
</linearGradient>
<linearGradient id="linear7" gradientUnits="userSpaceOnUse" x1="285.75" y1="32.416649" x2="222.25" y2="32.416649" gradientTransform="matrix(0.000000000000000005,0.0859375,-0.0859375,0.000000000000000005,8.242839,-10.742159)">
<stop offset="0" style="stop-color:rgb(61.176473%,80.000001%,39.607844%);stop-opacity:1;"/>
<stop offset="1" style="stop-color:rgb(68.235296%,83.529413%,50.588238%);stop-opacity:1;"/>
</linearGradient>
<linearGradient id="linear8" gradientUnits="userSpaceOnUse" x1="254" y1="85.333336" x2="254" y2="-20.500023" gradientTransform="matrix(-0.060767,0.060767,-0.060767,-0.060767,24.460028,-6.237693)">
<stop offset="0" style="stop-color:rgb(14.901961%,65.098041%,60.392159%);stop-opacity:1;"/>
<stop offset="1" style="stop-color:rgb(30.19608%,71.372551%,67.450982%);stop-opacity:1;"/>
</linearGradient>
<linearGradient id="linear9" gradientUnits="userSpaceOnUse" x1="254" y1="74.75" x2="254" y2="-31.083334" gradientTransform="matrix(0.0859375,0,0,0.0859375,-10.91405,3.752624)">
<stop offset="0" style="stop-color:rgb(36.078432%,41.960785%,75.294119%);stop-opacity:1;"/>
<stop offset="1" style="stop-color:rgb(47.450981%,52.549022%,79.607844%);stop-opacity:1;"/>
</linearGradient>
<linearGradient id="linear10" gradientUnits="userSpaceOnUse" x1="254" y1="106.5" x2="254" y2="43" gradientTransform="matrix(0.123301,0,0,0.123301,-20.404447,1.364991)">
<stop offset="0" style="stop-color:rgb(16.078432%,71.372551%,96.470588%);stop-opacity:1;"/>
<stop offset="1" style="stop-color:rgb(30.980393%,76.47059%,96.862745%);stop-opacity:1;"/>
</linearGradient>
<linearGradient id="linear11" gradientUnits="userSpaceOnUse" x1="254" y1="106.5" x2="254" y2="45.645714" gradientTransform="matrix(0.123301,0,0,0.123301,-20.404447,1.364991)">
<stop offset="0" style="stop-color:rgb(16.078432%,71.372551%,96.470588%);stop-opacity:1;"/>
<stop offset="1" style="stop-color:rgb(30.980393%,76.47059%,96.862745%);stop-opacity:1;"/>
</linearGradient>
</defs>
<g id="surface1">
<path style=" stroke:none;fill-rule:nonzero;fill:url(#linear0);" d="M 10.460938 20.863281 L 11.367188 20.863281 L 11.367188 21.546875 L 10.460938 21.546875 Z M 10.460938 20.863281 "/>
<path style=" stroke:none;fill-rule:nonzero;fill:url(#radial0);" d="M 9.550781 20.636719 L 10.460938 20.636719 L 10.460938 21.546875 L 9.550781 21.546875 Z M 9.550781 20.636719 "/>
<path style=" stroke:none;fill-rule:nonzero;fill:url(#radial1);" d="M 12.277344 20.636719 L 11.367188 20.636719 L 11.367188 21.546875 L 12.277344 21.546875 Z M 12.277344 20.636719 "/>
<path style=" stroke:none;fill-rule:nonzero;fill:url(#linear1);" d="M 10.914062 1.082031 C 12.421875 1.082031 13.640625 3.117188 13.640625 5.628906 C 13.640625 8.140625 12.421875 10.175781 10.914062 10.175781 C 9.40625 10.175781 8.1875 8.140625 8.1875 5.628906 C 8.1875 3.117188 9.40625 1.082031 10.914062 1.082031 Z M 10.914062 1.082031 "/>
<path style=" stroke:none;fill-rule:nonzero;fill:url(#linear2);" d="M 17.988281 4.011719 C 19.054688 5.078125 18.476562 7.378906 16.703125 9.15625 C 14.925781 10.933594 12.621094 11.507812 11.558594 10.441406 C 10.492188 9.378906 11.066406 7.074219 12.84375 5.296875 C 14.621094 3.523438 16.921875 2.945312 17.988281 4.011719 Z M 17.988281 4.011719 "/>
<path style=" stroke:none;fill-rule:nonzero;fill:url(#linear3);" d="M 20.917969 11.085938 C 20.917969 12.59375 18.882812 13.816406 16.371094 13.816406 C 13.859375 13.816406 11.824219 12.59375 11.824219 11.085938 C 11.824219 9.578125 13.859375 8.359375 16.371094 8.359375 C 18.882812 8.359375 20.917969 9.578125 20.917969 11.085938 Z M 20.917969 11.085938 "/>
<path style=" stroke:none;fill-rule:nonzero;fill:url(#linear4);" d="M 17.988281 18.160156 C 16.921875 19.226562 14.621094 18.648438 12.84375 16.875 C 11.066406 15.097656 10.492188 12.792969 11.558594 11.730469 C 12.621094 10.664062 14.925781 11.238281 16.703125 13.015625 C 18.476562 14.792969 19.054688 17.09375 17.988281 18.160156 Z M 17.988281 18.160156 "/>
<path style=" stroke:none;fill-rule:nonzero;fill:url(#linear5);" d="M 10.914062 11.996094 C 12.421875 11.996094 13.640625 14.03125 13.640625 16.542969 C 13.640625 19.054688 12.421875 21.089844 10.914062 21.089844 C 9.40625 21.089844 8.1875 19.054688 8.1875 16.542969 C 8.1875 14.03125 9.40625 11.996094 10.914062 11.996094 Z M 10.914062 11.996094 "/>
<path style=" stroke:none;fill-rule:nonzero;fill:url(#linear6);" d="M 10.269531 11.730469 C 11.335938 12.792969 10.761719 15.097656 8.984375 16.875 C 7.207031 18.648438 4.90625 19.226562 3.839844 18.160156 C 2.773438 17.09375 3.351562 14.792969 5.125 13.015625 C 6.902344 11.238281 9.207031 10.664062 10.269531 11.730469 Z M 10.269531 11.730469 "/>
<path style=" stroke:none;fill-rule:nonzero;fill:url(#linear7);" d="M 10.003906 11.085938 C 10.003906 12.59375 7.96875 13.816406 5.457031 13.816406 C 2.945312 13.816406 0.910156 12.59375 0.910156 11.085938 C 0.910156 9.578125 2.945312 8.359375 5.457031 8.359375 C 7.96875 8.359375 10.003906 9.578125 10.003906 11.085938 Z M 10.003906 11.085938 "/>
<path style=" stroke:none;fill-rule:nonzero;fill:url(#linear8);" d="M 10.269531 10.441406 C 9.207031 11.507812 6.902344 10.933594 5.125 9.15625 C 3.351562 7.378906 2.773438 5.078125 3.839844 4.011719 C 4.90625 2.945312 7.207031 3.523438 8.984375 5.296875 C 10.761719 7.074219 11.335938 9.378906 10.269531 10.441406 Z M 10.269531 10.441406 "/>
<path style=" stroke:none;fill-rule:nonzero;fill:url(#linear9);" d="M 10.914062 1.082031 C 9.402344 1.082031 8.1875 3.109375 8.1875 5.628906 C 8.1875 8.148438 9.402344 10.175781 10.914062 10.175781 Z M 10.914062 1.082031 "/>
<path style=" stroke:none;fill-rule:nonzero;fill:url(#linear10);" d="M 10.914062 6.992188 C 9.609375 8.625 8.304688 9.929688 8.304688 11.886719 C 8.304688 13.332031 9.46875 14.496094 10.914062 14.496094 C 12.359375 14.496094 13.523438 13.332031 13.523438 11.886719 C 13.523438 9.929688 12.21875 8.625 10.914062 6.992188 Z M 10.914062 6.992188 "/>
<path style=" stroke:none;fill-rule:nonzero;fill:url(#linear11);" d="M 10.914062 6.992188 C 9.609375 8.625 8.304688 9.929688 8.304688 11.886719 C 8.304688 13.332031 9.46875 14.496094 10.914062 14.496094 C 12.359375 14.496094 13.523438 13.332031 13.523438 11.886719 C 13.523438 9.929688 12.21875 8.625 10.914062 6.992188 Z M 10.914062 6.992188 "/>
<path style=" stroke:none;fill-rule:nonzero;fill:rgb(100%,100%,100%);fill-opacity:0.313726;" d="M 10.914062 6.992188 C 9.609375 8.625 8.304688 9.929688 8.304688 11.886719 C 8.304688 12.09375 8.328125 12.296875 8.375 12.488281 C 8.9375 12.753906 9.566406 12.90625 10.230469 12.90625 C 11.539062 12.90625 12.707031 12.328125 13.5 11.417969 C 13.308594 9.714844 12.113281 8.492188 10.914062 6.992188 Z M 10.914062 6.992188 "/>
</g>
</svg>
