
<svg xmlns="http://www.w3.org/2000/svg" xmlns:xlink="http://www.w3.org/1999/xlink" width="22px" height="22px" viewBox="0 0 22 22" version="1.1">
<g id="surface1">
<path style=" stroke:none;fill-rule:nonzero;fill:rgb(25.882354%,64.705884%,96.078432%);fill-opacity:1;" d="M 10.914062 0.910156 C 16.4375 0.910156 20.917969 5.390625 20.917969 10.914062 C 20.917969 16.4375 16.4375 20.917969 10.914062 20.917969 C 5.390625 20.917969 0.910156 16.4375 0.910156 10.914062 C 0.910156 5.390625 5.390625 0.910156 10.914062 0.910156 Z M 10.914062 0.910156 "/>
<path style=" stroke:none;fill-rule:nonzero;fill:rgb(93.333334%,93.333334%,93.333334%);fill-opacity:1;" d="M 10.1875 0.933594 C 9.296875 1 8.4375 1.179688 7.625 1.457031 C 6.125 5.78125 4.617188 10.460938 3.121094 14.613281 C 3.234375 14.644531 3.34375 14.632812 3.460938 14.632812 C 4.109375 14.628906 4.757812 14.636719 5.402344 14.632812 C 5.492188 14.632812 5.480469 14.507812 5.515625 14.453125 C 6.296875 12.257812 7.085938 10.070312 7.867188 7.878906 C 7.914062 7.742188 7.964844 7.597656 8.027344 7.464844 C 8.433594 7.472656 8.832031 7.460938 9.238281 7.464844 C 8.390625 9.847656 7.542969 12.242188 6.679688 14.613281 C 6.769531 14.648438 6.863281 14.632812 6.957031 14.632812 C 7.632812 14.628906 8.308594 14.644531 8.988281 14.632812 C 9.753906 12.472656 10.546875 10.3125 11.316406 8.152344 C 11.480469 7.710938 11.503906 7.144531 11.222656 6.78125 C 10.632812 6.011719 9.3125 5.886719 8.460938 5.851562 C 9.027344 4.25 9.613281 2.582031 10.1875 0.933594 Z M 13.4375 6.167969 C 13.421875 6.203125 13.410156 6.292969 13.394531 6.328125 C 11.792969 10.8125 9.90625 15.953125 8.246094 20.5625 C 8.828125 20.722656 9.433594 20.828125 10.050781 20.882812 C 10.792969 18.949219 11.734375 16.777344 12.386719 14.957031 C 13.234375 14.9375 14.074219 14.945312 14.925781 14.929688 C 15.460938 14.914062 16.273438 14.589844 16.453125 14.0625 C 17.167969 12.050781 17.882812 10.058594 18.574219 8.039062 C 18.6875 7.734375 18.757812 7.398438 18.664062 7.082031 C 18.546875 6.675781 18.175781 6.367188 17.777344 6.257812 C 17.429688 6.148438 17.082031 6.195312 16.726562 6.1875 C 15.640625 6.1875 14.523438 6.179688 13.4375 6.167969 Z M 15.429688 7.4375 C 15.449219 7.4375 15.464844 7.4375 15.480469 7.441406 C 15.515625 7.445312 15.550781 7.449219 15.585938 7.445312 C 15.898438 7.453125 16.207031 7.4375 16.519531 7.445312 C 15.792969 9.527344 15.046875 11.613281 14.332031 13.699219 C 13.921875 13.730469 13.503906 13.703125 13.09375 13.699219 C 13.839844 11.632812 14.570312 9.5625 15.3125 7.488281 C 15.328125 7.46875 15.355469 7.449219 15.378906 7.445312 C 15.394531 7.441406 15.414062 7.4375 15.429688 7.4375 Z M 15.429688 7.4375 "/>
<path style=" stroke:none;fill-rule:nonzero;fill:rgb(73.333335%,87.058824%,98.431373%);fill-opacity:1;" d="M 17.570312 10.917969 C 16.800781 10.921875 16.039062 10.9375 15.285156 10.960938 C 14.964844 11.875 14.644531 12.785156 14.332031 13.699219 C 13.921875 13.730469 13.503906 13.703125 13.09375 13.699219 C 13.417969 12.804688 13.738281 11.90625 14.054688 11.011719 C 13.246094 11.050781 12.445312 11.097656 11.65625 11.160156 C 10.515625 14.300781 9.332031 17.542969 8.246094 20.5625 C 8.828125 20.722656 9.433594 20.828125 10.050781 20.882812 C 10.792969 18.949219 11.734375 16.777344 12.386719 14.957031 C 13.234375 14.9375 14.074219 14.945312 14.925781 14.929688 C 15.460938 14.914062 16.273438 14.589844 16.453125 14.0625 C 16.828125 13.011719 17.199219 11.964844 17.570312 10.917969 Z M 10.1875 11.285156 C 9.371094 11.363281 8.570312 11.449219 7.78125 11.550781 C 7.417969 12.574219 7.050781 13.59375 6.679688 14.613281 C 6.769531 14.648438 6.863281 14.632812 6.957031 14.632812 C 7.632812 14.628906 8.308594 14.644531 8.988281 14.632812 C 9.382812 13.515625 9.785156 12.402344 10.1875 11.285156 Z M 6.488281 11.726562 C 5.636719 11.851562 4.804688 11.988281 3.992188 12.140625 C 3.703125 12.980469 3.410156 13.804688 3.121094 14.613281 C 3.234375 14.644531 3.34375 14.632812 3.460938 14.632812 C 4.109375 14.628906 4.757812 14.636719 5.402344 14.632812 C 5.492188 14.632812 5.480469 14.507812 5.515625 14.453125 C 5.839844 13.542969 6.164062 12.632812 6.488281 11.726562 Z M 6.488281 11.726562 "/>
</g>
</svg>
