<?xml version="1.0" encoding="UTF-8"?>
<svg xmlns="http://www.w3.org/2000/svg" xmlns:xlink="http://www.w3.org/1999/xlink" width="22px" height="22px" viewBox="0 0 22 22" version="1.1">
<g id="surface1">
<path style=" stroke:none;fill-rule:nonzero;fill:rgb(49.411765%,34.117648%,76.078433%);fill-opacity:1;" d="M 10.914062 1.082031 C 16.4375 1.082031 20.917969 5.5625 20.917969 11.085938 C 20.917969 16.609375 16.4375 21.089844 10.914062 21.089844 C 5.390625 21.089844 0.910156 16.609375 0.910156 11.085938 C 0.910156 5.5625 5.390625 1.082031 10.914062 1.082031 Z M 10.914062 1.082031 "/>
<path style=" stroke:none;fill-rule:evenodd;fill:rgb(25.882354%,25.882354%,25.882354%);fill-opacity:1;" d="M 3.242188 4.335938 L 3.125 5.328125 C 4.742188 5.519531 6.527344 5.714844 7.824219 6.21875 C 8.472656 6.46875 8.992188 6.796875 9.328125 7.199219 C 9.667969 7.605469 9.851562 8.085938 9.828125 8.785156 L 9.828125 8.855469 L 9.84375 8.925781 C 10.085938 9.894531 9.996094 10.644531 9.878906 11.386719 C 9.765625 12.128906 9.601562 12.882812 9.851562 13.710938 L 9.859375 13.742188 C 10.878906 16.441406 12.714844 17.355469 14.417969 17.34375 C 16.117188 17.335938 17.679688 16.53125 18.488281 16.132812 L 18.046875 15.234375 C 17.234375 15.636719 15.789062 16.335938 14.410156 16.34375 C 13.035156 16.355469 11.71875 15.8125 10.804688 13.414062 C 10.648438 12.871094 10.75 12.304688 10.867188 11.539062 C 10.984375 10.789062 11.09375 9.867188 10.828125 8.746094 C 10.84375 7.871094 10.570312 7.125 10.09375 6.558594 C 9.609375 5.976562 8.9375 5.578125 8.1875 5.289062 C 6.691406 4.703125 4.847656 4.523438 3.242188 4.335938 Z M 3.242188 4.335938 "/>
<path style=" stroke:none;fill-rule:nonzero;fill:rgb(87.843138%,87.843138%,87.843138%);fill-opacity:1;" d="M 18.269531 13.039062 C 19.730469 13.039062 20.917969 14.222656 20.917969 15.683594 C 20.917969 17.144531 19.730469 18.332031 18.269531 18.332031 C 16.808594 18.332031 15.625 17.144531 15.625 15.683594 C 15.625 14.222656 16.808594 13.039062 18.269531 13.039062 Z M 18.269531 13.039062 "/>
<path style=" stroke:none;fill-rule:nonzero;fill:rgb(87.843138%,87.843138%,87.843138%);fill-opacity:1;" d="M 3.183594 4.039062 C 3.621094 4.039062 3.976562 4.394531 3.976562 4.832031 C 3.976562 5.273438 3.621094 5.625 3.183594 5.625 C 2.746094 5.625 2.390625 5.273438 2.390625 4.832031 C 2.390625 4.394531 2.746094 4.039062 3.183594 4.039062 Z M 3.183594 4.039062 "/>
<path style=" stroke:none;fill-rule:nonzero;fill:rgb(87.843138%,87.843138%,87.843138%);fill-opacity:1;" d="M 10.328125 7.746094 C 10.914062 7.746094 11.386719 8.21875 11.386719 8.804688 C 11.386719 9.386719 10.914062 9.863281 10.328125 9.863281 C 9.746094 9.863281 9.269531 9.386719 9.269531 8.804688 C 9.269531 8.21875 9.746094 7.746094 10.328125 7.746094 Z M 10.328125 7.746094 "/>
<path style=" stroke:none;fill-rule:nonzero;fill:rgb(87.843138%,87.843138%,87.843138%);fill-opacity:1;" d="M 10.328125 11.980469 C 11.207031 11.980469 11.917969 12.691406 11.917969 13.566406 C 11.917969 14.445312 11.207031 15.15625 10.328125 15.15625 C 9.453125 15.15625 8.742188 14.445312 8.742188 13.566406 C 8.742188 12.691406 9.453125 11.980469 10.328125 11.980469 Z M 10.328125 11.980469 "/>
</g>
</svg>
