
<svg xmlns="http://www.w3.org/2000/svg" xmlns:xlink="http://www.w3.org/1999/xlink" width="22px" height="22px" viewBox="0 0 22 22" version="1.1">
<g id="surface1">
<path style=" stroke:none;fill-rule:nonzero;fill:rgb(14.901961%,65.098041%,60.392159%);fill-opacity:1;" d="M 1.820312 0.910156 L 20.007812 0.910156 C 20.511719 0.910156 20.917969 1.316406 20.917969 1.820312 L 20.917969 20.007812 C 20.917969 20.511719 20.511719 20.917969 20.007812 20.917969 L 1.820312 20.917969 C 1.316406 20.917969 0.910156 20.511719 0.910156 20.007812 L 0.910156 1.820312 C 0.910156 1.316406 1.316406 0.910156 1.820312 0.910156 Z M 1.820312 0.910156 "/>
<path style=" stroke:none;fill-rule:nonzero;fill:rgb(81.176472%,84.705883%,86.274511%);fill-opacity:1;" d="M 15.917969 17.507812 C 15.804688 19.097656 15.203125 20.148438 13.414062 19.328125 C 13.90625 18.136719 14.957031 17.410156 15.917969 17.507812 Z M 15.917969 17.507812 "/>
<path style=" stroke:none;fill-rule:nonzero;fill:rgb(81.176472%,84.705883%,86.274511%);fill-opacity:1;" d="M 7.730469 18.191406 C 7.839844 19.777344 8.441406 20.832031 10.230469 20.007812 C 9.742188 18.816406 8.691406 18.09375 7.730469 18.191406 Z M 7.730469 18.191406 "/>
<path style=" stroke:none;fill-rule:nonzero;fill:rgb(98.431373%,91.37255%,90.588236%);fill-opacity:1;" d="M 5.835938 13.359375 C 6.230469 13.886719 6.621094 14.414062 6.710938 14.945312 C 7.199219 17.355469 9.535156 17.066406 11.566406 17.222656 C 13.074219 17.078125 14.378906 16.296875 15.542969 15.0625 C 18.496094 13.039062 15.988281 11.75 16.398438 9.605469 L 10.429688 5.457031 L 5.242188 7.734375 Z M 5.835938 13.359375 "/>
<path style=" stroke:none;fill-rule:nonzero;fill:rgb(25.882354%,25.882354%,25.882354%);fill-opacity:1;" d="M 7.273438 13.847656 C 5.625 12.355469 7.644531 10.191406 9.171875 11.671875 C 7.105469 10.511719 6.398438 13.070312 7.273438 13.847656 Z M 7.273438 13.847656 "/>
<path style=" stroke:none;fill-rule:nonzero;fill:rgb(93.333334%,93.333334%,93.333334%);fill-opacity:1;" d="M 12.539062 10.410156 C 12.351562 11.6875 12.253906 12.988281 14.59375 12.558594 C 16.078125 11.050781 13.402344 9.273438 12.539062 10.410156 Z M 12.539062 10.410156 "/>
<path style=" stroke:none;fill-rule:nonzero;fill:rgb(25.882354%,25.882354%,25.882354%);fill-opacity:1;" d="M 12.347656 11.027344 C 11.59375 9.523438 15.019531 8.914062 15.15625 12.015625 C 14.265625 9.183594 12.164062 10.199219 12.347656 11.027344 Z M 12.347656 11.027344 "/>
<path style=" stroke:none;fill-rule:nonzero;fill:rgb(93.333334%,93.333334%,93.333334%);fill-opacity:1;" d="M 9.171875 11.671875 C 9.359375 12.953125 9.617188 14.277344 7.273438 13.847656 C 5.886719 11.816406 8.066406 10.78125 9.171875 11.671875 Z M 9.171875 11.671875 "/>
<path style=" stroke:none;fill-rule:nonzero;fill:rgb(25.882354%,64.705884%,96.078432%);fill-opacity:1;" d="M 8.03125 11.4375 C 8.984375 11.503906 9.304688 13.132812 8.824219 13.527344 C 7.523438 14.4375 6.945312 11.648438 8.03125 11.4375 Z M 8.03125 11.4375 "/>
<path style=" stroke:none;fill-rule:nonzero;fill:rgb(25.882354%,64.705884%,96.078432%);fill-opacity:1;" d="M 13.289062 10.230469 C 14.410156 10.246094 14.703125 11.878906 14.078125 12.320312 C 12.78125 13.226562 12.199219 10.441406 13.289062 10.230469 Z M 13.289062 10.230469 "/>
<path style=" stroke:none;fill-rule:nonzero;fill:rgb(89.019608%,94.901961%,99.215686%);fill-opacity:1;" d="M 7.71875 11.726562 C 8.054688 11.75 8.167969 12.328125 8 12.46875 C 7.539062 12.789062 7.332031 11.800781 7.71875 11.726562 Z M 7.71875 11.726562 "/>
<path style=" stroke:none;fill-rule:nonzero;fill:rgb(89.019608%,94.901961%,99.215686%);fill-opacity:1;" d="M 13.003906 10.554688 C 13.34375 10.578125 13.457031 11.15625 13.285156 11.296875 C 12.824219 11.617188 12.617188 10.628906 13.003906 10.554688 Z M 13.003906 10.554688 "/>
<path style=" stroke:none;fill-rule:nonzero;fill:rgb(25.882354%,25.882354%,25.882354%);fill-opacity:1;" d="M 8.183594 12.195312 C 8.453125 12.214844 8.542969 12.671875 8.410156 12.785156 C 8.042969 13.042969 7.878906 12.253906 8.183594 12.195312 Z M 8.183594 12.195312 "/>
<path style=" stroke:none;fill-rule:nonzero;fill:rgb(25.882354%,25.882354%,25.882354%);fill-opacity:1;" d="M 13.390625 10.972656 C 13.660156 10.988281 13.75 11.449219 13.613281 11.558594 C 13.25 11.816406 13.085938 11.03125 13.390625 10.972656 Z M 13.390625 10.972656 "/>
<path style="fill:none;stroke-width:1.97768;stroke-linecap:butt;stroke-linejoin:miter;stroke:rgb(63.137257%,53.333336%,49.803922%);stroke-opacity:1;stroke-miterlimit:4;" d="M 247.090909 151.363636 C 247.090909 151.363636 245.818182 146.181818 251.454545 146.818182 C 257.090909 147.454545 260.181818 144.545455 260.181818 144.545455 " transform="matrix(0.0429688,0,0,0.0429688,0,9.238281)"/>
<path style="fill:none;stroke-width:1.97768;stroke-linecap:butt;stroke-linejoin:miter;stroke:rgb(63.137257%,53.333336%,49.803922%);stroke-opacity:1;stroke-miterlimit:4;" d="M 283.818182 144.636364 C 283.818182 144.636364 283.727273 139.272727 278.454545 141.363636 C 273.181818 143.363636 269.363636 141.363636 269.363636 141.363636 " transform="matrix(0.0429688,0,0,0.0429688,0,9.238281)"/>
<path style="fill:none;stroke-width:1.97768;stroke-linecap:round;stroke-linejoin:round;stroke:rgb(42.745098%,29.803923%,25.490198%);stroke-opacity:1;stroke-miterlimit:4;" d="M 250.636364 96.454545 C 246.909091 90.818182 247.090909 97 247.090909 97 " transform="matrix(0.0429688,0,0,0.0429688,0,9.238281)"/>
<path style=" stroke:none;fill-rule:nonzero;fill:rgb(100%,80.392158%,82.352942%);fill-opacity:1;" d="M 7.113281 15.359375 C 7.183594 15.257812 7.242188 15.144531 7.296875 15.035156 C 7.320312 14.988281 7.34375 14.941406 7.367188 14.894531 C 7.371094 14.882812 7.378906 14.875 7.371094 14.886719 C 7.371094 14.886719 7.34375 14.839844 7.34375 14.84375 C 7.335938 14.847656 7.332031 14.847656 7.328125 14.851562 C 7.3125 14.863281 7.300781 14.890625 7.292969 14.902344 C 7.273438 14.9375 7.253906 14.972656 7.234375 15.007812 C 7.179688 15.117188 7.121094 15.226562 7.066406 15.335938 C 7.0625 15.339844 7.113281 15.363281 7.113281 15.359375 Z M 7.113281 15.359375 "/>
<path style=" stroke:none;fill-rule:nonzero;fill:rgb(100%,80.392158%,82.352942%);fill-opacity:1;" d="M 7.367188 15.296875 C 7.4375 15.207031 7.496094 15.105469 7.550781 15.003906 C 7.582031 14.949219 7.605469 14.890625 7.628906 14.832031 C 7.640625 14.808594 7.648438 14.78125 7.667969 14.761719 C 7.667969 14.757812 7.625 14.726562 7.621094 14.726562 C 7.597656 14.753906 7.585938 14.777344 7.570312 14.8125 C 7.542969 14.867188 7.519531 14.921875 7.488281 14.976562 C 7.4375 15.078125 7.375 15.171875 7.320312 15.269531 C 7.316406 15.273438 7.363281 15.300781 7.367188 15.296875 Z M 7.367188 15.296875 "/>
<path style=" stroke:none;fill-rule:nonzero;fill:rgb(100%,80.392158%,82.352942%);fill-opacity:1;" d="M 7.613281 15.242188 C 7.714844 15.128906 7.808594 15.007812 7.898438 14.886719 C 7.992188 14.757812 8.070312 14.621094 8.140625 14.480469 C 8.152344 14.453125 8.160156 14.429688 8.171875 14.40625 C 8.175781 14.398438 8.109375 14.375 8.109375 14.378906 C 8.023438 14.539062 7.9375 14.699219 7.832031 14.847656 C 7.746094 14.96875 7.65625 15.089844 7.566406 15.210938 C 7.566406 15.214844 7.609375 15.246094 7.613281 15.242188 Z M 7.613281 15.242188 "/>
<path style=" stroke:none;fill-rule:nonzero;fill:rgb(100%,80.392158%,82.352942%);fill-opacity:1;" d="M 8.046875 15.023438 C 8.203125 14.8125 8.351562 14.59375 8.496094 14.375 C 8.621094 14.183594 8.5625 14.277344 8.675781 14.097656 C 8.675781 14.089844 8.601562 14.050781 8.597656 14.054688 C 8.476562 14.230469 8.539062 14.140625 8.414062 14.332031 C 8.269531 14.550781 8.125 14.769531 7.996094 14.996094 C 7.996094 15 8.046875 15.027344 8.046875 15.023438 Z M 8.046875 15.023438 "/>
<path style=" stroke:none;fill-rule:nonzero;fill:rgb(100%,80.392158%,82.352942%);fill-opacity:1;" d="M 8.664062 14.5 C 8.738281 14.40625 8.792969 14.304688 8.851562 14.199219 C 8.851562 14.195312 8.785156 14.164062 8.78125 14.171875 C 8.726562 14.273438 8.671875 14.375 8.613281 14.472656 C 8.613281 14.476562 8.664062 14.503906 8.664062 14.5 Z M 8.664062 14.5 "/>
<path style=" stroke:none;fill-rule:nonzero;fill:rgb(100%,80.392158%,82.352942%);fill-opacity:1;" d="M 13.222656 13.050781 C 13.125 13.082031 13.035156 13.128906 12.957031 13.1875 C 12.941406 13.199219 12.929688 13.214844 12.914062 13.226562 C 12.878906 13.269531 12.894531 13.246094 12.867188 13.289062 C 12.863281 13.292969 12.914062 13.320312 12.917969 13.316406 C 12.941406 13.285156 12.925781 13.300781 12.960938 13.269531 C 12.976562 13.257812 12.988281 13.246094 13 13.238281 C 13.078125 13.179688 13.164062 13.140625 13.25 13.097656 C 13.253906 13.097656 13.222656 13.050781 13.222656 13.050781 Z M 13.222656 13.050781 "/>
<path style=" stroke:none;fill-rule:nonzero;fill:rgb(100%,80.392158%,82.352942%);fill-opacity:1;" d="M 13.695312 12.898438 C 13.566406 12.996094 13.457031 13.117188 13.347656 13.230469 C 13.265625 13.3125 13.1875 13.398438 13.105469 13.480469 C 13.066406 13.523438 13.027344 13.5625 12.984375 13.597656 C 12.96875 13.605469 12.972656 13.605469 12.96875 13.601562 C 12.964844 13.605469 12.984375 13.652344 12.988281 13.652344 C 13.011719 13.648438 12.996094 13.648438 13.023438 13.640625 C 13.035156 13.632812 13.046875 13.625 13.058594 13.617188 C 13.09375 13.59375 13.132812 13.554688 13.167969 13.527344 C 13.25 13.449219 13.332031 13.363281 13.410156 13.277344 C 13.515625 13.164062 13.621094 13.046875 13.734375 12.933594 C 13.734375 12.933594 13.695312 12.894531 13.695312 12.898438 Z M 13.695312 12.898438 "/>
<path style=" stroke:none;fill-rule:nonzero;fill:rgb(100%,80.392158%,82.352942%);fill-opacity:1;" d="M 14.136719 12.929688 C 14.03125 13.007812 13.921875 13.082031 13.820312 13.160156 C 13.722656 13.230469 13.640625 13.316406 13.558594 13.398438 C 13.484375 13.472656 13.5 13.457031 13.421875 13.53125 C 13.351562 13.59375 13.28125 13.65625 13.203125 13.714844 C 13.199219 13.71875 13.242188 13.761719 13.246094 13.757812 C 13.332031 13.707031 13.40625 13.644531 13.480469 13.574219 C 13.503906 13.554688 13.527344 13.53125 13.550781 13.507812 C 13.652344 13.40625 13.75 13.296875 13.871094 13.207031 C 13.972656 13.128906 14.078125 13.054688 14.175781 12.96875 C 14.175781 12.964844 14.136719 12.929688 14.136719 12.929688 Z M 14.136719 12.929688 "/>
<path style=" stroke:none;fill-rule:nonzero;fill:rgb(100%,80.392158%,82.352942%);fill-opacity:1;" d="M 14.386719 12.882812 C 14.261719 12.9375 14.152344 13.019531 14.054688 13.109375 C 14.027344 13.136719 14 13.164062 13.972656 13.191406 C 13.878906 13.289062 13.792969 13.390625 13.703125 13.488281 C 13.675781 13.515625 13.648438 13.539062 13.617188 13.566406 C 13.585938 13.601562 13.582031 13.582031 13.640625 13.613281 C 13.644531 13.609375 13.597656 13.582031 13.59375 13.585938 C 13.636719 13.644531 13.617188 13.640625 13.664062 13.609375 C 13.707031 13.574219 13.714844 13.566406 13.757812 13.53125 C 13.855469 13.4375 13.9375 13.335938 14.03125 13.238281 C 14.058594 13.214844 14.085938 13.1875 14.113281 13.160156 C 14.207031 13.074219 14.308594 12.992188 14.421875 12.925781 C 14.421875 12.921875 14.390625 12.878906 14.386719 12.882812 Z M 14.386719 12.882812 "/>
<path style=" stroke:none;fill-rule:nonzero;fill:rgb(100%,80.392158%,82.352942%);fill-opacity:1;" d="M 14.65625 12.933594 C 14.503906 12.992188 14.378906 13.101562 14.253906 13.199219 C 14.109375 13.324219 13.972656 13.453125 13.847656 13.59375 C 13.839844 13.605469 13.828125 13.617188 13.820312 13.628906 C 13.816406 13.632812 13.867188 13.667969 13.867188 13.664062 C 13.878906 13.652344 13.890625 13.644531 13.902344 13.632812 C 14.035156 13.5 14.167969 13.371094 14.308594 13.253906 C 14.429688 13.15625 14.546875 13.054688 14.683594 12.980469 C 14.6875 12.980469 14.660156 12.933594 14.65625 12.933594 Z M 14.65625 12.933594 "/>
<path style=" stroke:none;fill-rule:nonzero;fill:rgb(100%,80.392158%,82.352942%);fill-opacity:1;" d="M 14.824219 13.113281 C 14.710938 13.144531 14.601562 13.199219 14.503906 13.257812 C 14.472656 13.277344 14.441406 13.296875 14.410156 13.320312 C 14.285156 13.40625 14.171875 13.511719 14.074219 13.625 C 14.054688 13.648438 14.035156 13.671875 14.015625 13.695312 C 14.011719 13.699219 14.074219 13.742188 14.074219 13.738281 C 14.113281 13.695312 14.171875 13.628906 14.207031 13.589844 C 14.285156 13.511719 14.371094 13.4375 14.460938 13.375 C 14.488281 13.355469 14.519531 13.335938 14.550781 13.316406 C 14.648438 13.253906 14.746094 13.203125 14.851562 13.15625 C 14.855469 13.15625 14.828125 13.109375 14.824219 13.113281 Z M 14.824219 13.113281 "/>
<path style=" stroke:none;fill-rule:nonzero;fill:rgb(81.176472%,84.705883%,86.274511%);fill-opacity:1;" d="M 15.460938 10.945312 L 14.398438 9.859375 C 12.554688 9.285156 11.25 8.25 10.59375 6.566406 C 11.324219 8.023438 10.605469 9.4375 11.453125 10.800781 C 10.835938 10.445312 10.882812 10.058594 10.605469 9.4375 C 10.675781 10.082031 10.757812 10.425781 11.0625 10.917969 C 10.238281 10.910156 9.488281 10.910156 8.949219 10.4375 C 9.054688 10.8125 9.359375 10.898438 9.570312 11.15625 C 9.570312 11.15625 7.960938 10.664062 7.734375 9.121094 C 7.507812 7.578125 7.507812 7.476562 7.507812 7.476562 C 6.976562 8.804688 7.160156 10.132812 7.164062 11.460938 C 6.835938 10.660156 6.332031 10.101562 6.609375 8.476562 C 6.078125 9.980469 6.082031 11.507812 5.835938 13.359375 C 4.824219 11.097656 4.023438 8.859375 4.886719 6.367188 C 5.460938 4.75 6.980469 3.757812 9.035156 3.117188 C 13.0625 3.550781 15.679688 5.96875 15.460938 10.945312 Z M 15.460938 10.945312 "/>
<path style=" stroke:none;fill-rule:nonzero;fill:rgb(81.176472%,84.705883%,86.274511%);fill-opacity:1;" d="M 9.035156 3.117188 C 19.554688 0.453125 19.800781 14.171875 15.6875 17.28125 C 15.460938 13.640625 16.410156 4.128906 9.035156 3.117188 Z M 9.035156 3.117188 "/>
<path style=" stroke:none;fill-rule:nonzero;fill:rgb(81.176472%,84.705883%,86.274511%);fill-opacity:1;" d="M 9.035156 3.117188 C 4.691406 4.726562 6.652344 6.34375 5.757812 8.132812 C 4.859375 9.921875 5.527344 12.953125 6.59375 14.324219 C 7.730469 17.734375 6.738281 16.234375 8.183594 18.433594 C 1.949219 17.359375 0.59375 3.953125 9.035156 3.117188 Z M 9.035156 3.117188 "/>
<path style=" stroke:none;fill-rule:nonzero;fill:rgb(92.54902%,93.725491%,94.509804%);fill-opacity:1;" d="M 5.242188 7.734375 C 5.363281 6.476562 6.066406 5.386719 7.601562 4.535156 C 5.988281 6.347656 6.484375 6.738281 5.242188 7.734375 Z M 5.242188 7.734375 "/>
<path style=" stroke:none;fill-rule:nonzero;fill:rgb(92.54902%,93.725491%,94.509804%);fill-opacity:1;" d="M 8.695312 9.898438 C 7.957031 8.875 7.769531 7.589844 8.363281 5.9375 C 8.34375 8.359375 8.972656 8.328125 8.695312 9.898438 Z M 8.695312 9.898438 "/>
<path style=" stroke:none;fill-rule:nonzero;fill:rgb(92.54902%,93.725491%,94.509804%);fill-opacity:1;" d="M 13.765625 9.3125 C 12.609375 8.804688 11.792969 7.796875 11.464844 6.070312 C 12.679688 8.167969 13.207031 7.820312 13.765625 9.3125 Z M 13.765625 9.3125 "/>
<path style=" stroke:none;fill-rule:nonzero;fill:rgb(92.54902%,93.725491%,94.509804%);fill-opacity:1;" d="M 15.234375 17.960938 C 14.53125 17.851562 14.085938 18.277344 14.019531 19.472656 C 14.628906 18.375 14.996094 18.875 15.234375 17.960938 Z M 15.234375 17.960938 "/>
<path style=" stroke:none;fill-rule:nonzero;fill:rgb(92.54902%,25.098041%,47.843137%);fill-opacity:1;" d="M 15.753906 17.089844 C 15.691406 16.78125 15.6875 16.628906 15.363281 16.519531 C 15.148438 16.5 14.949219 16.605469 14.820312 17.167969 C 14.601562 17.265625 14.542969 17.46875 14.417969 17.625 C 14.746094 17.683594 15.082031 17.863281 15.429688 17.59375 L 15.746094 17.679688 L 16.070312 17.992188 C 16.335938 17.941406 16.589844 17.871094 16.597656 17.507812 C 16.902344 17.304688 17.128906 17.15625 17.167969 16.835938 C 16.761719 16.519531 16.308594 16.949219 15.933594 17.199219 Z M 15.753906 17.089844 "/>
<path style=" stroke:none;fill-rule:nonzero;fill:rgb(92.54902%,25.098041%,47.843137%);fill-opacity:1;" d="M 7.652344 18.15625 C 7.554688 17.859375 7.480469 17.722656 7.707031 17.46875 C 7.882812 17.34375 8.105469 17.335938 8.503906 17.757812 C 8.738281 17.734375 8.890625 17.878906 9.078125 17.953125 C 8.820312 18.167969 8.621094 18.492188 8.183594 18.433594 L 7.953125 18.664062 L 7.828125 19.09375 C 7.574219 19.183594 7.320312 19.25 7.132812 18.941406 C 6.769531 18.917969 6.496094 18.902344 6.300781 18.644531 C 6.496094 18.164062 7.101562 18.3125 7.550781 18.34375 Z M 7.652344 18.15625 "/>
<path style=" stroke:none;fill-rule:nonzero;fill:rgb(92.54902%,25.098041%,47.843137%);fill-opacity:1;" d="M 7.652344 18.15625 C 7.554688 17.859375 7.480469 17.722656 7.707031 17.46875 C 7.882812 17.34375 8.105469 17.335938 8.503906 17.757812 C 8.738281 17.734375 8.890625 17.878906 9.078125 17.953125 C 8.820312 18.167969 8.621094 18.492188 8.183594 18.433594 L 7.953125 18.664062 L 7.828125 19.09375 C 7.574219 19.183594 7.320312 19.25 7.132812 18.941406 C 6.769531 18.917969 6.496094 18.902344 6.300781 18.644531 C 6.496094 18.164062 7.101562 18.3125 7.550781 18.34375 Z M 7.652344 18.15625 "/>
<path style=" stroke:none;fill-rule:nonzero;fill:rgb(92.54902%,25.098041%,47.843137%);fill-opacity:1;" d="M 4.546875 7.277344 C 4.644531 6.980469 4.71875 6.84375 4.492188 6.585938 C 4.316406 6.460938 4.09375 6.457031 3.695312 6.878906 C 3.460938 6.851562 3.308594 6.996094 3.121094 7.074219 C 3.378906 7.285156 3.578125 7.609375 4.015625 7.550781 L 4.246094 7.78125 L 4.371094 8.214844 C 4.625 8.304688 4.878906 8.367188 5.070312 8.0625 C 5.429688 8.035156 5.703125 8.023438 5.898438 7.761719 C 5.703125 7.285156 5.097656 7.429688 4.648438 7.464844 Z M 4.546875 7.277344 "/>
<path style=" stroke:none;fill-rule:nonzero;fill:rgb(92.54902%,93.725491%,94.509804%);fill-opacity:1;" d="M 8.050781 18.773438 C 7.816406 19.449219 8.160156 19.957031 9.324219 20.238281 C 8.351562 19.445312 8.90625 19.167969 8.050781 18.773438 Z M 8.050781 18.773438 "/>
<path style=" stroke:none;fill-rule:nonzero;fill:rgb(92.54902%,93.725491%,94.509804%);fill-opacity:1;" d="M 10.914062 3.183594 C 11.40625 2.945312 12.035156 3.042969 12.863281 3.625 C 11.667969 3.234375 11.695312 3.578125 10.914062 3.183594 Z M 10.914062 3.183594 "/>
<path style=" stroke:none;fill-rule:nonzero;fill:rgb(69.01961%,74.509805%,77.254903%);fill-opacity:1;" d="M 11.523438 2.777344 C 11.421875 2.777344 11.324219 2.777344 11.222656 2.78125 C 18.394531 3.085938 18.695312 13.097656 15.660156 16.65625 C 15.667969 16.878906 15.675781 17.089844 15.6875 17.28125 C 19.445312 14.4375 19.5625 2.734375 11.523438 2.777344 Z M 11.523438 2.777344 "/>
<path style=" stroke:none;fill-rule:nonzero;fill:rgb(92.54902%,25.098041%,47.843137%);fill-opacity:1;" d="M 15.1875 5.378906 C 14.890625 5.28125 14.753906 5.207031 14.496094 5.433594 C 14.371094 5.609375 14.367188 5.832031 14.789062 6.230469 C 14.761719 6.464844 14.90625 6.617188 14.984375 6.804688 C 15.195312 6.546875 15.519531 6.347656 15.460938 5.910156 L 15.691406 5.679688 L 16.125 5.554688 C 16.214844 5.300781 16.277344 5.046875 15.972656 4.859375 C 15.949219 4.496094 15.933594 4.222656 15.671875 4.027344 C 15.195312 4.222656 15.339844 4.828125 15.375 5.277344 Z M 15.1875 5.378906 "/>
</g>
</svg>
