<?xml version="1.0" encoding="UTF-8"?>
<svg xmlns="http://www.w3.org/2000/svg" xmlns:xlink="http://www.w3.org/1999/xlink" width="22px" height="22px" viewBox="0 0 22 22" version="1.1">
<g id="surface1">
<path style=" stroke:none;fill-rule:nonzero;fill:rgb(36.078432%,41.960785%,75.294119%);fill-opacity:1;" d="M 1.820312 1.082031 L 20.007812 1.082031 C 20.511719 1.082031 20.917969 1.488281 20.917969 1.992188 L 20.917969 20.179688 C 20.917969 20.683594 20.511719 21.089844 20.007812 21.089844 L 1.820312 21.089844 C 1.316406 21.089844 0.910156 20.683594 0.910156 20.179688 L 0.910156 1.992188 C 0.910156 1.488281 1.316406 1.082031 1.820312 1.082031 Z M 1.820312 1.082031 "/>
<path style=" stroke:none;fill-rule:nonzero;fill:rgb(93.333334%,93.333334%,93.333334%);fill-opacity:1;" d="M 2.273438 1.992188 C 2.023438 1.992188 1.820312 2.195312 1.820312 2.445312 L 1.820312 19.726562 C 1.820312 19.976562 2.023438 20.179688 2.273438 20.179688 L 19.554688 20.179688 C 19.804688 20.179688 20.007812 19.976562 20.007812 19.726562 L 20.007812 2.445312 C 20.007812 2.195312 19.804688 1.992188 19.554688 1.992188 Z M 2.957031 2.898438 L 18.871094 2.898438 C 19 2.898438 19.097656 3 19.097656 3.128906 L 19.097656 19.042969 C 19.097656 19.171875 19 19.269531 18.871094 19.269531 L 2.957031 19.269531 C 2.828125 19.269531 2.726562 19.171875 2.726562 19.042969 L 2.726562 3.128906 C 2.726562 3 2.828125 2.898438 2.957031 2.898438 Z M 2.957031 2.898438 "/>
<path style=" stroke:none;fill-rule:nonzero;fill:rgb(93.333334%,93.333334%,93.333334%);fill-opacity:1;" d="M 12.300781 3.808594 C 11.378906 3.949219 10.457031 4.089844 9.535156 4.226562 L 9.535156 14.230469 C 10.457031 13.980469 11.378906 13.734375 12.300781 13.488281 L 12.300781 9.621094 C 13.222656 11.140625 14.144531 12.660156 15.066406 14.179688 C 15.988281 13.832031 16.910156 13.488281 17.832031 13.140625 C 16.679688 11.757812 15.527344 10.378906 14.375 8.996094 C 15.527344 7.496094 16.679688 6 17.832031 4.503906 C 16.9375 4.269531 16.042969 4.042969 15.148438 3.808594 C 14.199219 5.320312 13.25 6.832031 12.300781 8.34375 Z M 6.671875 6.523438 C 6.328125 6.652344 6.121094 7.015625 5.839844 7.25 C 5.660156 7.492188 5.1875 7.691406 5.402344 8.046875 C 5.777344 8.636719 6.152344 9.222656 6.527344 9.8125 C 6.46875 10.285156 6.191406 10.46875 5.753906 10.492188 C 5.226562 10.617188 4.6875 10.714844 4.164062 10.855469 C 3.886719 11.046875 4.050781 11.433594 4.007812 11.722656 C 4.039062 12.015625 3.933594 12.347656 4.082031 12.609375 C 4.59375 12.820312 5.171875 12.871094 5.710938 13.015625 C 5.984375 13.117188 6.425781 13.027344 6.417969 13.449219 C 6.675781 13.753906 6.28125 14.003906 6.164062 14.28125 C 5.898438 14.742188 5.535156 15.164062 5.339844 15.65625 C 5.453125 15.992188 5.804688 16.1875 6.027344 16.457031 C 6.269531 16.632812 6.429688 17.027344 6.769531 16.976562 C 7.382812 16.578125 8 16.191406 8.617188 15.796875 C 9.089844 15.863281 9.285156 16.136719 9.308594 16.578125 C 9.453125 17.132812 9.519531 17.71875 9.714844 18.25 C 10.046875 18.402344 10.453125 18.292969 10.816406 18.324219 C 11.125 18.285156 11.628906 18.472656 11.695312 18.03125 C 11.84375 17.34375 11.992188 16.65625 12.140625 15.96875 C 12.488281 15.804688 12.808594 15.578125 13.101562 15.945312 C 13.582031 16.289062 14.0625 16.636719 14.546875 16.976562 C 14.890625 17.023438 15.058594 16.621094 15.308594 16.4375 C 15.519531 16.171875 15.871094 15.984375 15.976562 15.65625 C 15.816406 15.230469 15.492188 14.875 15.257812 14.476562 C 14.808594 14.679688 14.660156 14.121094 14.460938 13.84375 C 14.332031 13.636719 14.207031 13.429688 14.082031 13.222656 C 13.386719 14.996094 11.246094 15.992188 9.441406 15.390625 C 7.683594 14.878906 6.496094 12.972656 6.816406 11.167969 C 7.011719 9.855469 7.953125 8.691406 9.191406 8.21875 L 9.191406 7.464844 C 8.855469 7.734375 8.484375 7.746094 8.175781 7.441406 C 7.671875 7.140625 7.195312 6.765625 6.671875 6.523438 Z M 6.671875 6.523438 "/>
</g>
</svg>
