<?xml version="1.0" encoding="UTF-8"?>
<svg xmlns="http://www.w3.org/2000/svg" xmlns:xlink="http://www.w3.org/1999/xlink" width="22px" height="22px" viewBox="0 0 22 22" version="1.1">
<g id="surface1">
<path style=" stroke:none;fill-rule:nonzero;fill:rgb(25.882354%,25.882354%,25.882354%);fill-opacity:1;" d="M 10.460938 1.082031 C 10.207031 1.082031 10.003906 1.285156 10.003906 1.535156 L 10.003906 8.890625 L 4.804688 3.691406 C 4.625 3.511719 4.339844 3.511719 4.160156 3.691406 L 3.519531 4.332031 C 3.339844 4.511719 3.339844 4.796875 3.519531 4.976562 L 8.71875 10.175781 L 1.363281 10.175781 C 1.113281 10.175781 0.910156 10.378906 0.910156 10.632812 L 0.910156 11.539062 C 0.910156 11.792969 1.113281 11.996094 1.363281 11.996094 L 8.71875 11.996094 L 3.519531 17.195312 C 3.339844 17.375 3.339844 17.660156 3.519531 17.839844 L 4.160156 18.480469 C 4.339844 18.660156 4.625 18.660156 4.804688 18.480469 L 10.003906 13.28125 L 10.003906 20.636719 C 10.003906 20.886719 10.207031 21.089844 10.460938 21.089844 L 11.367188 21.089844 C 11.621094 21.089844 11.824219 20.886719 11.824219 20.636719 L 11.824219 13.28125 L 17.023438 18.480469 C 17.203125 18.660156 17.488281 18.660156 17.667969 18.480469 L 18.308594 17.839844 C 18.488281 17.660156 18.488281 17.375 18.308594 17.195312 L 13.109375 11.996094 L 20.464844 11.996094 C 20.714844 11.996094 20.917969 11.792969 20.917969 11.539062 L 20.917969 10.632812 C 20.917969 10.378906 20.714844 10.175781 20.464844 10.175781 L 13.109375 10.175781 L 18.308594 4.976562 C 18.488281 4.796875 18.488281 4.511719 18.308594 4.332031 L 17.667969 3.691406 C 17.488281 3.511719 17.203125 3.511719 17.023438 3.691406 L 11.824219 8.890625 L 11.824219 1.535156 C 11.824219 1.285156 11.621094 1.082031 11.367188 1.082031 Z M 10.460938 1.082031 "/>
<path style=" stroke:none;fill-rule:nonzero;fill:rgb(45.882353%,45.882353%,45.882353%);fill-opacity:1;" d="M 10.914062 2.898438 C 15.433594 2.898438 19.101562 6.566406 19.101562 11.085938 C 19.101562 15.605469 15.433594 19.269531 10.914062 19.269531 C 6.394531 19.269531 2.730469 15.605469 2.730469 11.085938 C 2.730469 6.566406 6.394531 2.902344 10.914062 2.898438 Z M 10.914062 2.898438 "/>
<path style=" stroke:none;fill-rule:nonzero;fill:rgb(25.882354%,25.882354%,25.882354%);fill-opacity:1;" d="M 10.914062 10.175781 C 11.417969 10.175781 11.824219 10.582031 11.824219 11.085938 C 11.824219 11.589844 11.417969 11.996094 10.914062 11.996094 C 10.410156 11.996094 10.003906 11.589844 10.003906 11.085938 C 10.003906 10.582031 10.410156 10.175781 10.914062 10.175781 Z M 10.914062 10.175781 "/>
</g>
</svg>
