<?xml version="1.0" encoding="UTF-8"?>
<svg xmlns="http://www.w3.org/2000/svg" xmlns:xlink="http://www.w3.org/1999/xlink" width="22px" height="22px" viewBox="0 0 22 22" version="1.1">
<g id="surface1">
<path style=" stroke:none;fill-rule:nonzero;fill:rgb(92.54902%,25.098041%,47.843137%);fill-opacity:1;" d="M 1.820312 1.082031 L 20.007812 1.082031 C 20.511719 1.082031 20.917969 1.488281 20.917969 1.992188 L 20.917969 20.179688 C 20.917969 20.683594 20.511719 21.089844 20.007812 21.089844 L 1.820312 21.089844 C 1.316406 21.089844 0.910156 20.683594 0.910156 20.179688 L 0.910156 1.992188 C 0.910156 1.488281 1.316406 1.082031 1.820312 1.082031 Z M 1.820312 1.082031 "/>
<path style=" stroke:none;fill-rule:nonzero;fill:rgb(93.333334%,93.333334%,93.333334%);fill-opacity:1;" d="M 6.222656 4.265625 C 4.808594 4.265625 3.667969 5.40625 3.667969 6.824219 C 3.667969 8.238281 4.808594 9.378906 6.222656 9.378906 C 6.464844 9.378906 6.699219 9.347656 6.921875 9.285156 L 9.28125 13.375 C 8.714844 13.84375 8.355469 14.554688 8.355469 15.347656 C 8.355469 16.765625 9.496094 17.90625 10.914062 17.90625 C 12.332031 17.90625 13.472656 16.765625 13.472656 15.347656 C 13.472656 14.554688 13.113281 13.84375 12.546875 13.375 L 14.90625 9.285156 C 15.128906 9.347656 15.363281 9.378906 15.605469 9.378906 C 17.019531 9.378906 18.160156 8.238281 18.160156 6.824219 C 18.160156 5.40625 17.019531 4.265625 15.605469 4.265625 C 14.1875 4.265625 13.046875 5.40625 13.046875 6.824219 C 13.046875 7.691406 13.476562 8.457031 14.132812 8.917969 L 11.808594 12.949219 C 11.527344 12.847656 11.226562 12.792969 10.914062 12.792969 C 10.601562 12.792969 10.300781 12.847656 10.019531 12.949219 L 7.695312 8.917969 C 8.351562 8.457031 8.78125 7.691406 8.78125 6.824219 C 8.78125 5.40625 7.640625 4.265625 6.222656 4.265625 Z M 6.222656 4.265625 "/>
</g>
</svg>
