<?xml version="1.0" encoding="UTF-8"?>
<svg xmlns="http://www.w3.org/2000/svg" xmlns:xlink="http://www.w3.org/1999/xlink" width="22px" height="22px" viewBox="0 0 22 22" version="1.1">
<g id="surface1">
<path style=" stroke:none;fill-rule:nonzero;fill:rgb(73.725492%,66.666669%,64.313728%);fill-opacity:1;" d="M 1.820312 1.082031 L 9.09375 1.082031 C 9.597656 1.082031 10.003906 1.488281 10.003906 1.992188 L 10.003906 12.449219 C 10.003906 12.953125 9.597656 13.359375 9.09375 13.359375 L 1.820312 13.359375 C 1.316406 13.359375 0.910156 12.953125 0.910156 12.449219 L 0.910156 1.992188 C 0.910156 1.488281 1.316406 1.082031 1.820312 1.082031 Z M 1.820312 1.082031 "/>
<path style=" stroke:none;fill-rule:nonzero;fill:rgb(55.29412%,43.137255%,38.82353%);fill-opacity:1;" d="M 2.726562 9.039062 L 2.726562 9.949219 L 3.183594 9.949219 L 3.183594 10.175781 L 2.726562 10.175781 L 2.726562 11.085938 L 3.183594 11.085938 L 3.183594 11.539062 L 2.726562 11.539062 L 2.726562 12.449219 L 5.003906 12.449219 L 5.003906 11.539062 L 4.546875 11.539062 L 4.546875 11.085938 L 5.003906 11.085938 L 5.003906 10.175781 L 4.546875 10.175781 L 4.546875 9.949219 L 5.003906 9.949219 L 5.003906 9.039062 Z M 2.726562 9.039062 "/>
<path style=" stroke:none;fill-rule:nonzero;fill:rgb(40.000001%,73.333335%,41.568628%);fill-opacity:1;" d="M 2.957031 9.265625 L 2.957031 9.722656 L 3.410156 9.722656 L 3.410156 10.402344 L 2.957031 10.402344 L 2.957031 10.859375 L 3.410156 10.859375 L 3.410156 11.769531 L 2.957031 11.769531 L 2.957031 12.222656 L 4.773438 12.222656 L 4.773438 11.769531 L 4.320312 11.769531 L 4.320312 10.859375 L 4.773438 10.859375 L 4.773438 10.402344 L 4.320312 10.402344 L 4.320312 9.722656 L 4.773438 9.722656 L 4.773438 9.265625 Z M 2.957031 9.265625 "/>
<path style=" stroke:none;fill-rule:nonzero;fill:rgb(73.725492%,66.666669%,64.313728%);fill-opacity:1;" d="M 11.824219 1.082031 L 19.101562 1.082031 C 19.601562 1.082031 20.007812 1.488281 20.007812 1.992188 L 20.007812 12.449219 C 20.007812 12.953125 19.601562 13.359375 19.101562 13.359375 L 11.824219 13.359375 C 11.320312 13.359375 10.914062 12.953125 10.914062 12.449219 L 10.914062 1.992188 C 10.914062 1.488281 11.320312 1.082031 11.824219 1.082031 Z M 11.824219 1.082031 "/>
<path style=" stroke:none;fill-rule:nonzero;fill:rgb(55.29412%,43.137255%,38.82353%);fill-opacity:1;" d="M 14.324219 9.039062 L 14.324219 9.949219 L 14.78125 9.949219 L 14.78125 10.175781 L 14.324219 10.175781 L 14.324219 11.085938 L 14.78125 11.085938 L 14.78125 11.539062 L 14.324219 11.539062 L 14.324219 12.449219 L 16.597656 12.449219 L 16.597656 11.539062 L 16.144531 11.539062 L 16.144531 11.085938 L 16.597656 11.085938 L 16.597656 10.175781 L 16.144531 10.175781 L 16.144531 9.949219 L 16.597656 9.949219 L 16.597656 9.039062 Z M 14.324219 9.039062 "/>
<path style=" stroke:none;fill-rule:nonzero;fill:rgb(40.000001%,73.333335%,41.568628%);fill-opacity:1;" d="M 14.550781 9.265625 L 14.550781 9.722656 L 15.007812 9.722656 L 15.007812 10.402344 L 14.550781 10.402344 L 14.550781 10.859375 L 15.007812 10.859375 L 15.007812 11.769531 L 14.550781 11.769531 L 14.550781 12.222656 L 16.371094 12.222656 L 16.371094 11.769531 L 15.917969 11.769531 L 15.917969 10.859375 L 16.371094 10.859375 L 16.371094 10.402344 L 15.917969 10.402344 L 15.917969 9.722656 L 16.371094 9.722656 L 16.371094 9.265625 Z M 14.550781 9.265625 "/>
<path style=" stroke:none;fill-rule:nonzero;fill:rgb(84.313726%,80.000001%,78.431374%);fill-opacity:1;" d="M 2.730469 8.8125 L 10.003906 8.8125 C 10.507812 8.8125 10.914062 9.21875 10.914062 9.722656 L 10.914062 20.179688 C 10.914062 20.683594 10.507812 21.089844 10.003906 21.089844 L 2.730469 21.089844 C 2.226562 21.089844 1.820312 20.683594 1.820312 20.179688 L 1.820312 9.722656 C 1.820312 9.21875 2.226562 8.8125 2.730469 8.8125 Z M 2.730469 8.8125 "/>
<path style=" stroke:none;fill-rule:nonzero;fill:rgb(55.29412%,43.137255%,38.82353%);fill-opacity:1;" d="M 2.726562 9.722656 L 2.726562 10.632812 L 3.183594 10.632812 L 3.183594 10.859375 L 2.726562 10.859375 L 2.726562 11.769531 L 3.183594 11.769531 L 3.183594 12.222656 L 2.726562 12.222656 L 2.726562 13.132812 L 5.003906 13.132812 L 5.003906 12.222656 L 4.546875 12.222656 L 4.546875 11.769531 L 5.003906 11.769531 L 5.003906 10.859375 L 4.546875 10.859375 L 4.546875 10.632812 L 5.003906 10.632812 L 5.003906 9.722656 Z M 2.726562 9.722656 "/>
<path style=" stroke:none;fill-rule:nonzero;fill:rgb(40.000001%,73.333335%,41.568628%);fill-opacity:1;" d="M 2.957031 9.949219 L 2.957031 10.402344 L 3.410156 10.402344 L 3.410156 11.085938 L 2.957031 11.085938 L 2.957031 11.539062 L 3.410156 11.539062 L 3.410156 12.449219 L 2.957031 12.449219 L 2.957031 12.90625 L 4.773438 12.90625 L 4.773438 12.449219 L 4.320312 12.449219 L 4.320312 11.539062 L 4.773438 11.539062 L 4.773438 11.085938 L 4.320312 11.085938 L 4.320312 10.402344 L 4.773438 10.402344 L 4.773438 9.949219 Z M 2.957031 9.949219 "/>
<path style=" stroke:none;fill-rule:nonzero;fill:rgb(55.29412%,43.137255%,38.82353%);fill-opacity:1;" d="M 5.230469 16.769531 L 5.230469 17.679688 L 5.683594 17.679688 L 5.683594 17.90625 L 5.230469 17.90625 L 5.230469 18.816406 L 5.683594 18.816406 L 5.683594 19.269531 L 5.230469 19.269531 L 5.230469 20.179688 L 7.503906 20.179688 L 7.503906 19.269531 L 7.046875 19.269531 L 7.046875 18.816406 L 7.503906 18.816406 L 7.503906 17.90625 L 7.046875 17.90625 L 7.046875 17.679688 L 7.503906 17.679688 L 7.503906 16.769531 Z M 5.230469 16.769531 "/>
<path style=" stroke:none;fill-rule:nonzero;fill:rgb(40.000001%,73.333335%,41.568628%);fill-opacity:1;" d="M 5.457031 16.996094 L 5.457031 17.453125 L 5.910156 17.453125 L 5.910156 18.132812 L 5.457031 18.132812 L 5.457031 18.589844 L 5.910156 18.589844 L 5.910156 19.5 L 5.457031 19.5 L 5.457031 19.953125 L 7.277344 19.953125 L 7.277344 19.5 L 6.820312 19.5 L 6.820312 18.589844 L 7.277344 18.589844 L 7.277344 18.132812 L 6.820312 18.132812 L 6.820312 17.453125 L 7.277344 17.453125 L 7.277344 16.996094 Z M 5.457031 16.996094 "/>
<path style=" stroke:none;fill-rule:nonzero;fill:rgb(55.29412%,43.137255%,38.82353%);fill-opacity:1;" d="M 7.730469 9.722656 L 7.730469 10.632812 L 8.183594 10.632812 L 8.183594 10.859375 L 7.730469 10.859375 L 7.730469 11.769531 L 8.183594 11.769531 L 8.183594 12.222656 L 7.730469 12.222656 L 7.730469 13.132812 L 10.003906 13.132812 L 10.003906 12.222656 L 9.550781 12.222656 L 9.550781 11.769531 L 10.003906 11.769531 L 10.003906 10.859375 L 9.550781 10.859375 L 9.550781 10.632812 L 10.003906 10.632812 L 10.003906 9.722656 Z M 7.730469 9.722656 "/>
<path style=" stroke:none;fill-rule:nonzero;fill:rgb(40.000001%,73.333335%,41.568628%);fill-opacity:1;" d="M 7.957031 9.949219 L 7.957031 10.402344 L 8.414062 10.402344 L 8.414062 11.085938 L 7.957031 11.085938 L 7.957031 11.539062 L 8.414062 11.539062 L 8.414062 12.449219 L 7.957031 12.449219 L 7.957031 12.90625 L 9.777344 12.90625 L 9.777344 12.449219 L 9.324219 12.449219 L 9.324219 11.539062 L 9.777344 11.539062 L 9.777344 11.085938 L 9.324219 11.085938 L 9.324219 10.402344 L 9.777344 10.402344 L 9.777344 9.949219 Z M 7.957031 9.949219 "/>
<path style=" stroke:none;fill-rule:nonzero;fill:rgb(55.29412%,43.137255%,38.82353%);fill-opacity:1;" d="M 2.726562 9.722656 L 2.726562 10.632812 L 3.183594 10.632812 L 3.183594 10.859375 L 2.726562 10.859375 L 2.726562 11.769531 L 3.183594 11.769531 L 3.183594 12.222656 L 2.726562 12.222656 L 2.726562 13.132812 L 5.003906 13.132812 L 5.003906 12.222656 L 4.546875 12.222656 L 4.546875 11.769531 L 5.003906 11.769531 L 5.003906 10.859375 L 4.546875 10.859375 L 4.546875 10.632812 L 5.003906 10.632812 L 5.003906 9.722656 Z M 2.726562 9.722656 "/>
<path style=" stroke:none;fill-rule:nonzero;fill:rgb(40.000001%,73.333335%,41.568628%);fill-opacity:1;" d="M 2.957031 9.949219 L 2.957031 10.402344 L 3.410156 10.402344 L 3.410156 11.085938 L 2.957031 11.085938 L 2.957031 11.539062 L 3.410156 11.539062 L 3.410156 12.449219 L 2.957031 12.449219 L 2.957031 12.90625 L 4.773438 12.90625 L 4.773438 12.449219 L 4.320312 12.449219 L 4.320312 11.539062 L 4.773438 11.539062 L 4.773438 11.085938 L 4.320312 11.085938 L 4.320312 10.402344 L 4.773438 10.402344 L 4.773438 9.949219 Z M 2.957031 9.949219 "/>
<path style=" stroke:none;fill-rule:nonzero;fill:rgb(55.29412%,43.137255%,38.82353%);fill-opacity:1;" d="M 7.730469 9.722656 L 7.730469 10.632812 L 8.183594 10.632812 L 8.183594 10.859375 L 7.730469 10.859375 L 7.730469 11.769531 L 8.183594 11.769531 L 8.183594 12.222656 L 7.730469 12.222656 L 7.730469 13.132812 L 10.003906 13.132812 L 10.003906 12.222656 L 9.550781 12.222656 L 9.550781 11.769531 L 10.003906 11.769531 L 10.003906 10.859375 L 9.550781 10.859375 L 9.550781 10.632812 L 10.003906 10.632812 L 10.003906 9.722656 Z M 7.730469 9.722656 "/>
<path style=" stroke:none;fill-rule:nonzero;fill:rgb(40.000001%,73.333335%,41.568628%);fill-opacity:1;" d="M 7.957031 9.949219 L 7.957031 10.402344 L 8.414062 10.402344 L 8.414062 11.085938 L 7.957031 11.085938 L 7.957031 11.539062 L 8.414062 11.539062 L 8.414062 12.449219 L 7.957031 12.449219 L 7.957031 12.90625 L 9.777344 12.90625 L 9.777344 12.449219 L 9.324219 12.449219 L 9.324219 11.539062 L 9.777344 11.539062 L 9.777344 11.085938 L 9.324219 11.085938 L 9.324219 10.402344 L 9.777344 10.402344 L 9.777344 9.949219 Z M 7.957031 9.949219 "/>
<path style=" stroke:none;fill-rule:nonzero;fill:rgb(55.29412%,43.137255%,38.82353%);fill-opacity:1;" d="M 1.820312 1.992188 L 1.820312 2.898438 L 2.273438 2.898438 L 2.273438 3.128906 L 1.820312 3.128906 L 1.820312 4.039062 L 2.273438 4.039062 L 2.273438 4.492188 L 1.820312 4.492188 L 1.820312 5.402344 L 4.09375 5.402344 L 4.09375 4.492188 L 3.636719 4.492188 L 3.636719 4.039062 L 4.09375 4.039062 L 4.09375 3.128906 L 3.636719 3.128906 L 3.636719 2.898438 L 4.09375 2.898438 L 4.09375 1.992188 Z M 1.820312 1.992188 "/>
<path style=" stroke:none;fill-rule:nonzero;fill:rgb(40.000001%,73.333335%,41.568628%);fill-opacity:1;" d="M 2.046875 2.21875 L 2.046875 2.671875 L 2.5 2.671875 L 2.5 3.355469 L 2.046875 3.355469 L 2.046875 3.808594 L 2.5 3.808594 L 2.5 4.71875 L 2.046875 4.71875 L 2.046875 5.175781 L 3.867188 5.175781 L 3.867188 4.71875 L 3.410156 4.71875 L 3.410156 3.808594 L 3.867188 3.808594 L 3.867188 3.355469 L 3.410156 3.355469 L 3.410156 2.671875 L 3.867188 2.671875 L 3.867188 2.21875 Z M 2.046875 2.21875 "/>
<path style=" stroke:none;fill-rule:nonzero;fill:rgb(55.29412%,43.137255%,38.82353%);fill-opacity:1;" d="M 6.820312 1.992188 L 6.820312 2.898438 L 7.277344 2.898438 L 7.277344 3.128906 L 6.820312 3.128906 L 6.820312 4.039062 L 7.277344 4.039062 L 7.277344 4.492188 L 6.820312 4.492188 L 6.820312 5.402344 L 9.09375 5.402344 L 9.09375 4.492188 L 8.640625 4.492188 L 8.640625 4.039062 L 9.09375 4.039062 L 9.09375 3.128906 L 8.640625 3.128906 L 8.640625 2.898438 L 9.09375 2.898438 L 9.09375 1.992188 Z M 6.820312 1.992188 "/>
<path style=" stroke:none;fill-rule:nonzero;fill:rgb(40.000001%,73.333335%,41.568628%);fill-opacity:1;" d="M 7.046875 2.21875 L 7.046875 2.671875 L 7.503906 2.671875 L 7.503906 3.355469 L 7.046875 3.355469 L 7.046875 3.808594 L 7.503906 3.808594 L 7.503906 4.71875 L 7.046875 4.71875 L 7.046875 5.175781 L 8.867188 5.175781 L 8.867188 4.71875 L 8.414062 4.71875 L 8.414062 3.808594 L 8.867188 3.808594 L 8.867188 3.355469 L 8.414062 3.355469 L 8.414062 2.671875 L 8.867188 2.671875 L 8.867188 2.21875 Z M 7.046875 2.21875 "/>
<path style=" stroke:none;fill-rule:nonzero;fill:rgb(55.29412%,43.137255%,38.82353%);fill-opacity:1;" d="M 14.324219 1.992188 L 14.324219 2.898438 L 14.78125 2.898438 L 14.78125 3.128906 L 14.324219 3.128906 L 14.324219 4.039062 L 14.78125 4.039062 L 14.78125 4.492188 L 14.324219 4.492188 L 14.324219 5.402344 L 16.597656 5.402344 L 16.597656 4.492188 L 16.144531 4.492188 L 16.144531 4.039062 L 16.597656 4.039062 L 16.597656 3.128906 L 16.144531 3.128906 L 16.144531 2.898438 L 16.597656 2.898438 L 16.597656 1.992188 Z M 14.324219 1.992188 "/>
<path style=" stroke:none;fill-rule:nonzero;fill:rgb(40.000001%,73.333335%,41.568628%);fill-opacity:1;" d="M 14.550781 2.21875 L 14.550781 2.671875 L 15.007812 2.671875 L 15.007812 3.355469 L 14.550781 3.355469 L 14.550781 3.808594 L 15.007812 3.808594 L 15.007812 4.71875 L 14.550781 4.71875 L 14.550781 5.175781 L 16.371094 5.175781 L 16.371094 4.71875 L 15.917969 4.71875 L 15.917969 3.808594 L 16.371094 3.808594 L 16.371094 3.355469 L 15.917969 3.355469 L 15.917969 2.671875 L 16.371094 2.671875 L 16.371094 2.21875 Z M 14.550781 2.21875 "/>
<path style=" stroke:none;fill-rule:nonzero;fill:rgb(84.313726%,80.000001%,78.431374%);fill-opacity:1;" d="M 12.734375 8.8125 L 20.007812 8.8125 C 20.511719 8.8125 20.917969 9.21875 20.917969 9.722656 L 20.917969 20.179688 C 20.917969 20.683594 20.511719 21.089844 20.007812 21.089844 L 12.734375 21.089844 C 12.230469 21.089844 11.824219 20.683594 11.824219 20.179688 L 11.824219 9.722656 C 11.824219 9.21875 12.230469 8.8125 12.734375 8.8125 Z M 12.734375 8.8125 "/>
<path style=" stroke:none;fill-rule:nonzero;fill:rgb(55.29412%,43.137255%,38.82353%);fill-opacity:1;" d="M 15.234375 16.769531 L 15.234375 17.679688 L 15.6875 17.679688 L 15.6875 17.90625 L 15.234375 17.90625 L 15.234375 18.816406 L 15.6875 18.816406 L 15.6875 19.269531 L 15.234375 19.269531 L 15.234375 20.179688 L 17.507812 20.179688 L 17.507812 19.269531 L 17.054688 19.269531 L 17.054688 18.816406 L 17.507812 18.816406 L 17.507812 17.90625 L 17.054688 17.90625 L 17.054688 17.679688 L 17.507812 17.679688 L 17.507812 16.769531 Z M 15.234375 16.769531 "/>
<path style=" stroke:none;fill-rule:nonzero;fill:rgb(40.000001%,73.333335%,41.568628%);fill-opacity:1;" d="M 15.460938 16.996094 L 15.460938 17.453125 L 15.917969 17.453125 L 15.917969 18.132812 L 15.460938 18.132812 L 15.460938 18.589844 L 15.917969 18.589844 L 15.917969 19.5 L 15.460938 19.5 L 15.460938 19.953125 L 17.28125 19.953125 L 17.28125 19.5 L 16.824219 19.5 L 16.824219 18.589844 L 17.28125 18.589844 L 17.28125 18.132812 L 16.824219 18.132812 L 16.824219 17.453125 L 17.28125 17.453125 L 17.28125 16.996094 Z M 15.460938 16.996094 "/>
<path style=" stroke:none;fill-rule:nonzero;fill:rgb(55.29412%,43.137255%,38.82353%);fill-opacity:1;" d="M 12.734375 9.722656 L 12.734375 10.632812 L 13.1875 10.632812 L 13.1875 10.859375 L 12.734375 10.859375 L 12.734375 11.769531 L 13.1875 11.769531 L 13.1875 12.222656 L 12.734375 12.222656 L 12.734375 13.132812 L 15.007812 13.132812 L 15.007812 12.222656 L 14.550781 12.222656 L 14.550781 11.769531 L 15.007812 11.769531 L 15.007812 10.859375 L 14.550781 10.859375 L 14.550781 10.632812 L 15.007812 10.632812 L 15.007812 9.722656 Z M 12.734375 9.722656 "/>
<path style=" stroke:none;fill-rule:nonzero;fill:rgb(40.000001%,73.333335%,41.568628%);fill-opacity:1;" d="M 12.960938 9.949219 L 12.960938 10.402344 L 13.414062 10.402344 L 13.414062 11.085938 L 12.960938 11.085938 L 12.960938 11.539062 L 13.414062 11.539062 L 13.414062 12.449219 L 12.960938 12.449219 L 12.960938 12.90625 L 14.78125 12.90625 L 14.78125 12.449219 L 14.324219 12.449219 L 14.324219 11.539062 L 14.78125 11.539062 L 14.78125 11.085938 L 14.324219 11.085938 L 14.324219 10.402344 L 14.78125 10.402344 L 14.78125 9.949219 Z M 12.960938 9.949219 "/>
<path style=" stroke:none;fill-rule:nonzero;fill:rgb(55.29412%,43.137255%,38.82353%);fill-opacity:1;" d="M 17.734375 9.722656 L 17.734375 10.632812 L 18.191406 10.632812 L 18.191406 10.859375 L 17.734375 10.859375 L 17.734375 11.769531 L 18.191406 11.769531 L 18.191406 12.222656 L 17.734375 12.222656 L 17.734375 13.132812 L 20.007812 13.132812 L 20.007812 12.222656 L 19.554688 12.222656 L 19.554688 11.769531 L 20.007812 11.769531 L 20.007812 10.859375 L 19.554688 10.859375 L 19.554688 10.632812 L 20.007812 10.632812 L 20.007812 9.722656 Z M 17.734375 9.722656 "/>
<path style=" stroke:none;fill-rule:nonzero;fill:rgb(40.000001%,73.333335%,41.568628%);fill-opacity:1;" d="M 17.960938 9.949219 L 17.960938 10.402344 L 18.417969 10.402344 L 18.417969 11.085938 L 17.960938 11.085938 L 17.960938 11.539062 L 18.417969 11.539062 L 18.417969 12.449219 L 17.960938 12.449219 L 17.960938 12.90625 L 19.78125 12.90625 L 19.78125 12.449219 L 19.328125 12.449219 L 19.328125 11.539062 L 19.78125 11.539062 L 19.78125 11.085938 L 19.328125 11.085938 L 19.328125 10.402344 L 19.78125 10.402344 L 19.78125 9.949219 Z M 17.960938 9.949219 "/>
</g>
</svg>
