
<svg xmlns="http://www.w3.org/2000/svg" xmlns:xlink="http://www.w3.org/1999/xlink" width="22px" height="22px" viewBox="0 0 22 22" version="1.1">
<g id="surface1">
<path style=" stroke:none;fill-rule:nonzero;fill:rgb(32.941177%,43.137255%,47.843137%);fill-opacity:1;" d="M 4.09375 0.910156 L 18.644531 0.910156 C 19.148438 0.910156 19.554688 1.316406 19.554688 1.820312 L 19.554688 20.007812 C 19.554688 20.511719 19.148438 20.917969 18.644531 20.917969 L 4.09375 20.917969 C 3.589844 20.917969 3.183594 20.511719 3.183594 20.007812 L 3.183594 1.820312 C 3.183594 1.316406 3.589844 0.910156 4.09375 0.910156 Z M 4.09375 0.910156 "/>
<path style=" stroke:none;fill-rule:nonzero;fill:rgb(96.078432%,96.078432%,96.078432%);fill-opacity:1;" d="M 5.457031 1.363281 L 18.644531 1.363281 C 18.894531 1.363281 19.097656 1.566406 19.097656 1.820312 L 19.097656 20.007812 C 19.097656 20.261719 18.894531 20.464844 18.644531 20.464844 L 5.457031 20.464844 C 5.207031 20.464844 5.003906 20.261719 5.003906 20.007812 L 5.003906 1.820312 C 5.003906 1.566406 5.207031 1.363281 5.457031 1.363281 Z M 5.457031 1.363281 "/>
<path style=" stroke:none;fill-rule:nonzero;fill:rgb(47.058824%,56.470591%,61.176473%);fill-opacity:1;" d="M 4.09375 0.910156 L 17.734375 0.910156 C 18.238281 0.910156 18.644531 1.316406 18.644531 1.820312 L 18.644531 20.007812 C 18.644531 20.511719 18.238281 20.917969 17.734375 20.917969 L 4.09375 20.917969 C 3.589844 20.917969 3.183594 20.511719 3.183594 20.007812 L 3.183594 1.820312 C 3.183594 1.316406 3.589844 0.910156 4.09375 0.910156 Z M 4.09375 0.910156 "/>
<path style=" stroke:none;fill-rule:nonzero;fill:rgb(96.078432%,96.078432%,96.078432%);fill-opacity:1;" d="M 4.546875 2.273438 L 4.546875 10.914062 L 6.367188 10.914062 L 6.367188 5.910156 C 6.367188 4.902344 7.179688 4.09375 8.1875 4.09375 C 9.191406 4.09375 10.003906 4.902344 10.003906 5.910156 L 10.003906 10.914062 L 11.824219 10.914062 L 11.824219 5.910156 C 11.824219 4.902344 12.636719 4.09375 13.640625 4.09375 C 14.648438 4.09375 15.460938 4.902344 15.460938 5.910156 L 15.460938 10.914062 L 17.28125 10.914062 L 17.28125 5.910156 C 17.28125 3.894531 15.65625 2.273438 13.640625 2.273438 C 12.554688 2.273438 11.578125 2.746094 10.914062 3.5 C 10.25 2.746094 9.273438 2.273438 8.1875 2.273438 C 7.523438 2.273438 6.902344 2.449219 6.367188 2.757812 L 6.367188 2.273438 Z M 4.546875 2.273438 "/>
<path style=" stroke:none;fill-rule:nonzero;fill:rgb(93.333334%,93.333334%,93.333334%);fill-opacity:1;" d="M 13.640625 5.910156 C 13.140625 5.910156 12.734375 6.316406 12.734375 6.820312 L 12.734375 7.730469 C 12.734375 8.234375 13.140625 8.640625 13.640625 8.640625 C 14.144531 8.640625 14.550781 8.234375 14.550781 7.730469 L 14.550781 6.820312 C 14.550781 6.316406 14.144531 5.910156 13.640625 5.910156 Z M 13.640625 6.59375 C 13.769531 6.59375 13.871094 6.695312 13.871094 6.820312 L 13.871094 7.730469 C 13.871094 7.855469 13.769531 7.957031 13.640625 7.957031 C 13.515625 7.957031 13.414062 7.855469 13.414062 7.730469 L 13.414062 6.820312 C 13.414062 6.695312 13.515625 6.59375 13.640625 6.59375 Z M 13.640625 6.59375 "/>
<path style=" stroke:none;fill-rule:nonzero;fill:rgb(81.176472%,84.705883%,86.274511%);fill-opacity:1;" d="M 17.308594 12.277344 L 4.546875 12.277344 L 4.546875 14.097656 L 13.671875 14.097656 C 14.679688 14.097656 15.492188 14.910156 15.492188 15.917969 C 15.492188 16.925781 14.679688 17.734375 13.671875 17.734375 L 13.21875 17.734375 L 13.21875 19.554688 L 13.671875 19.554688 C 15.6875 19.554688 17.308594 17.933594 17.308594 15.917969 C 17.308594 15.253906 17.132812 14.632812 16.824219 14.097656 L 17.308594 14.097656 Z M 17.308594 12.277344 "/>
<path style=" stroke:none;fill-rule:nonzero;fill:rgb(93.333334%,93.333334%,93.333334%);fill-opacity:1;" d="M 8.1875 5.910156 C 7.683594 5.910156 7.277344 6.316406 7.277344 6.820312 L 7.277344 7.730469 C 7.277344 8.234375 7.683594 8.640625 8.1875 8.640625 C 8.6875 8.640625 9.09375 8.234375 9.09375 7.730469 L 9.09375 6.820312 C 9.09375 6.316406 8.6875 5.910156 8.1875 5.910156 Z M 8.1875 6.59375 C 8.3125 6.59375 8.414062 6.695312 8.414062 6.820312 L 8.414062 7.730469 C 8.414062 7.855469 8.3125 7.957031 8.1875 7.957031 C 8.058594 7.957031 7.957031 7.855469 7.957031 7.730469 L 7.957031 6.820312 C 7.957031 6.695312 8.058594 6.59375 8.1875 6.59375 Z M 8.1875 6.59375 "/>
</g>
</svg>
