<?xml version="1.0" encoding="UTF-8"?>
<svg xmlns="http://www.w3.org/2000/svg" xmlns:xlink="http://www.w3.org/1999/xlink" width="22px" height="22px" viewBox="0 0 22 22" version="1.1">
<g id="surface1">
<path style=" stroke:none;fill-rule:nonzero;fill:rgb(25.882354%,25.882354%,25.882354%);fill-opacity:1;" d="M 1.820312 1.082031 L 20.007812 1.082031 C 20.511719 1.082031 20.917969 1.488281 20.917969 1.992188 L 20.917969 20.179688 C 20.917969 20.683594 20.511719 21.089844 20.007812 21.089844 L 1.820312 21.089844 C 1.316406 21.089844 0.910156 20.683594 0.910156 20.179688 L 0.910156 1.992188 C 0.910156 1.488281 1.316406 1.082031 1.820312 1.082031 Z M 1.820312 1.082031 "/>
<path style=" stroke:none;fill-rule:nonzero;fill:rgb(16.078432%,71.372551%,96.470588%);fill-opacity:1;" d="M 3.183594 6.539062 L 9.550781 6.539062 C 9.800781 6.539062 10.003906 6.742188 10.003906 6.992188 L 10.003906 18.816406 C 10.003906 19.066406 9.800781 19.273438 9.550781 19.273438 L 3.183594 19.273438 C 2.933594 19.273438 2.726562 19.066406 2.726562 18.816406 L 2.726562 6.992188 C 2.726562 6.742188 2.933594 6.539062 3.183594 6.539062 Z M 3.183594 6.539062 "/>
<path style=" stroke:none;fill-rule:nonzero;fill:rgb(16.078432%,71.372551%,96.470588%);fill-opacity:1;" d="M 12.277344 6.539062 L 18.644531 6.539062 C 18.894531 6.539062 19.101562 6.742188 19.101562 6.992188 L 19.101562 18.816406 C 19.101562 19.066406 18.894531 19.273438 18.644531 19.273438 L 12.277344 19.273438 C 12.027344 19.273438 11.824219 19.066406 11.824219 18.816406 L 11.824219 6.992188 C 11.824219 6.742188 12.027344 6.539062 12.277344 6.539062 Z M 12.277344 6.539062 "/>
<path style=" stroke:none;fill-rule:nonzero;fill:rgb(70.19608%,89.803922%,98.823529%);fill-opacity:1;" d="M 5.003906 7.902344 C 5.503906 7.902344 5.910156 8.308594 5.910156 8.8125 C 5.910156 9.316406 5.503906 9.722656 5.003906 9.722656 C 4.5 9.722656 4.09375 9.316406 4.09375 8.8125 C 4.09375 8.308594 4.5 7.902344 5.003906 7.902344 Z M 5.003906 7.902344 "/>
<path style=" stroke:none;fill-rule:nonzero;fill:rgb(70.19608%,89.803922%,98.823529%);fill-opacity:1;" d="M 5.003906 8.359375 L 7.046875 8.359375 L 8.300781 6.539062 L 9.550781 6.539062 L 7.730469 9.265625 L 5.003906 9.265625 Z M 5.003906 8.359375 "/>
<path style=" stroke:none;fill-rule:nonzero;fill:rgb(70.19608%,89.803922%,98.823529%);fill-opacity:1;" d="M 7.957031 11.085938 C 7.457031 11.085938 7.046875 11.492188 7.046875 11.996094 C 7.046875 12.496094 7.457031 12.90625 7.957031 12.90625 C 8.460938 12.90625 8.867188 12.496094 8.867188 11.996094 C 8.867188 11.492188 8.460938 11.085938 7.957031 11.085938 Z M 7.957031 11.085938 "/>
<path style=" stroke:none;fill-rule:nonzero;fill:rgb(70.19608%,89.803922%,98.823529%);fill-opacity:1;" d="M 7.503906 11.996094 L 6.367188 13.8125 L 2.726562 13.8125 L 2.726562 14.722656 L 6.820312 14.722656 L 8.414062 11.996094 Z M 7.503906 11.996094 "/>
<path style=" stroke:none;fill-rule:nonzero;fill:rgb(70.19608%,89.803922%,98.823529%);fill-opacity:1;" d="M 7.277344 16.089844 C 6.773438 16.089844 6.367188 16.496094 6.367188 16.996094 C 6.367188 17.5 6.773438 17.90625 7.277344 17.90625 C 7.777344 17.90625 8.1875 17.5 8.1875 16.996094 C 8.1875 16.496094 7.777344 16.089844 7.277344 16.089844 Z M 7.277344 16.089844 "/>
<path style=" stroke:none;fill-rule:nonzero;fill:rgb(70.19608%,89.803922%,98.823529%);fill-opacity:1;" d="M 5.003906 14.722656 L 5.910156 16.542969 L 7.277344 16.542969 L 7.277344 17.453125 L 5.457031 17.453125 L 4.09375 14.722656 Z M 5.003906 14.722656 "/>
<path style=" stroke:none;fill-rule:nonzero;fill:rgb(70.19608%,89.803922%,98.823529%);fill-opacity:1;" d="M 13.871094 6.992188 C 14.371094 6.992188 14.78125 7.398438 14.78125 7.902344 C 14.78125 8.40625 14.371094 8.8125 13.871094 8.8125 C 13.367188 8.8125 12.960938 8.40625 12.960938 7.902344 C 12.960938 7.398438 13.367188 6.992188 13.871094 6.992188 Z M 13.871094 6.992188 "/>
<path style=" stroke:none;fill-rule:nonzero;fill:rgb(70.19608%,89.803922%,98.823529%);fill-opacity:1;" d="M 14.324219 7.902344 L 15.460938 9.722656 L 19.101562 9.722656 L 19.101562 10.632812 L 15.007812 10.632812 L 13.414062 7.902344 Z M 14.324219 7.902344 "/>
<path style=" stroke:none;fill-rule:nonzero;fill:rgb(70.19608%,89.803922%,98.823529%);fill-opacity:1;" d="M 13.644531 11.996094 C 14.144531 11.996094 14.550781 12.402344 14.550781 12.90625 C 14.550781 13.40625 14.144531 13.816406 13.644531 13.816406 C 13.140625 13.816406 12.734375 13.40625 12.734375 12.90625 C 12.734375 12.402344 13.140625 11.996094 13.644531 11.996094 Z M 13.644531 11.996094 "/>
<path style=" stroke:none;fill-rule:nonzero;fill:rgb(70.19608%,89.803922%,98.823529%);fill-opacity:1;" d="M 17.28125 10.632812 L 16.371094 12.449219 L 14.097656 12.449219 L 14.097656 13.359375 L 16.824219 13.359375 L 18.191406 10.632812 Z M 17.28125 10.632812 "/>
<path style=" stroke:none;fill-rule:nonzero;fill:rgb(70.19608%,89.803922%,98.823529%);fill-opacity:1;" d="M 14.4375 17.90625 C 14.941406 17.90625 15.347656 17.5 15.347656 16.996094 C 15.347656 16.496094 14.941406 16.089844 14.4375 16.089844 C 13.9375 16.089844 13.527344 16.496094 13.527344 16.996094 C 13.527344 17.5 13.9375 17.90625 14.4375 17.90625 Z M 14.4375 17.90625 "/>
<path style=" stroke:none;fill-rule:nonzero;fill:rgb(70.19608%,89.803922%,98.823529%);fill-opacity:1;" d="M 13.984375 17.453125 L 16.03125 17.453125 L 17.28125 19.273438 L 18.53125 19.273438 L 16.710938 16.542969 L 13.984375 16.542969 Z M 13.984375 17.453125 "/>
<path style=" stroke:none;fill-rule:nonzero;fill:rgb(16.078432%,71.372551%,96.470588%);fill-opacity:1;" d="M 3.183594 2.445312 L 18.644531 2.445312 C 18.894531 2.445312 19.101562 2.648438 19.101562 2.898438 L 19.101562 4.71875 C 19.101562 4.96875 18.894531 5.175781 18.644531 5.175781 L 3.183594 5.175781 C 2.933594 5.175781 2.726562 4.96875 2.726562 4.71875 L 2.726562 2.898438 C 2.726562 2.648438 2.933594 2.445312 3.183594 2.445312 Z M 3.183594 2.445312 "/>
</g>
</svg>
