
<svg xmlns="http://www.w3.org/2000/svg" xmlns:xlink="http://www.w3.org/1999/xlink" width="22px" height="22px" viewBox="0 0 22 22" version="1.1">
<g id="surface1">
<path style=" stroke:none;fill-rule:nonzero;fill:rgb(93.333334%,93.333334%,93.333334%);fill-opacity:1;" d="M 1.820312 0.910156 L 20.007812 0.910156 C 20.511719 0.910156 20.917969 1.316406 20.917969 1.820312 L 20.917969 20.007812 C 20.917969 20.511719 20.511719 20.917969 20.007812 20.917969 L 1.820312 20.917969 C 1.316406 20.917969 0.910156 20.511719 0.910156 20.007812 L 0.910156 1.820312 C 0.910156 1.316406 1.316406 0.910156 1.820312 0.910156 Z M 1.820312 0.910156 "/>
<path style=" stroke:none;fill-rule:nonzero;fill:rgb(40.000001%,73.333335%,41.568628%);fill-opacity:1;" d="M 11.367188 4.09375 L 11.367188 10.460938 L 17.734375 10.460938 L 17.734375 5.003906 C 17.734375 4.5 17.328125 4.09375 16.824219 4.09375 Z M 11.367188 4.09375 "/>
<path style=" stroke:none;fill-rule:nonzero;fill:rgb(93.725491%,32.549021%,31.37255%);fill-opacity:1;" d="M 10.460938 4.09375 L 10.460938 10.460938 L 4.09375 10.460938 L 4.09375 5.003906 C 4.09375 4.5 4.5 4.09375 5.003906 4.09375 Z M 10.460938 4.09375 "/>
<path style=" stroke:none;fill-rule:nonzero;fill:rgb(100%,79.215688%,15.686275%);fill-opacity:1;" d="M 11.367188 17.734375 L 11.367188 11.367188 L 17.734375 11.367188 L 17.734375 16.824219 C 17.734375 17.328125 17.328125 17.734375 16.824219 17.734375 Z M 11.367188 17.734375 "/>
<path style=" stroke:none;fill-rule:nonzero;fill:rgb(25.882354%,64.705884%,96.078432%);fill-opacity:1;" d="M 10.460938 17.734375 L 10.460938 11.367188 L 4.09375 11.367188 L 4.09375 16.824219 C 4.09375 17.328125 4.5 17.734375 5.003906 17.734375 Z M 10.460938 17.734375 "/>
</g>
</svg>
