
<svg xmlns="http://www.w3.org/2000/svg" xmlns:xlink="http://www.w3.org/1999/xlink" width="22px" height="22px" viewBox="0 0 22 22" version="1.1">
<g id="surface1">
<path style=" stroke:none;fill-rule:nonzero;fill:rgb(55.29412%,43.137255%,38.82353%);fill-opacity:1;" d="M 2.726562 0.910156 L 19.097656 0.910156 C 20.105469 0.910156 20.917969 1.722656 20.917969 2.730469 L 20.917969 19.097656 C 20.917969 20.105469 20.105469 20.917969 19.097656 20.917969 L 2.726562 20.917969 C 1.722656 20.917969 0.910156 20.105469 0.910156 19.097656 L 0.910156 2.730469 C 0.910156 1.722656 1.722656 0.910156 2.726562 0.910156 Z M 2.726562 0.910156 "/>
<path style=" stroke:none;fill-rule:nonzero;fill:rgb(77.254903%,88.235295%,64.705884%);fill-opacity:1;" d="M 3.035156 2.273438 C 2.613281 2.273438 2.273438 2.613281 2.273438 3.035156 L 2.273438 3.84375 L 3.84375 3.84375 L 3.84375 2.273438 Z M 3.035156 2.273438 "/>
<path style=" stroke:none;fill-rule:nonzero;fill:rgb(68.235296%,83.529413%,50.588238%);fill-opacity:1;" d="M 3.84375 2.273438 L 5.414062 2.273438 L 5.414062 3.84375 L 3.84375 3.84375 Z M 3.84375 2.273438 "/>
<path style=" stroke:none;fill-rule:nonzero;fill:rgb(77.254903%,88.235295%,64.705884%);fill-opacity:1;" d="M 5.414062 2.273438 L 6.988281 2.273438 L 6.988281 3.84375 L 5.414062 3.84375 Z M 5.414062 2.273438 "/>
<path style=" stroke:none;fill-rule:nonzero;fill:rgb(61.176473%,80.000001%,39.607844%);fill-opacity:1;" d="M 6.988281 2.273438 L 8.558594 2.273438 L 8.558594 3.84375 L 6.988281 3.84375 Z M 6.988281 2.273438 "/>
<path style=" stroke:none;fill-rule:nonzero;fill:rgb(68.235296%,83.529413%,50.588238%);fill-opacity:1;" d="M 8.558594 2.273438 L 10.128906 2.273438 L 10.128906 3.84375 L 8.558594 3.84375 Z M 8.558594 2.273438 "/>
<path style=" stroke:none;fill-rule:nonzero;fill:rgb(68.235296%,83.529413%,50.588238%);fill-opacity:1;" d="M 10.128906 2.273438 L 11.699219 2.273438 L 11.699219 3.84375 L 10.128906 3.84375 Z M 10.128906 2.273438 "/>
<path style=" stroke:none;fill-rule:nonzero;fill:rgb(48.627451%,70.19608%,25.882354%);fill-opacity:1;" d="M 11.699219 2.273438 L 13.269531 2.273438 L 13.269531 3.84375 L 11.699219 3.84375 Z M 11.699219 2.273438 "/>
<path style=" stroke:none;fill-rule:nonzero;fill:rgb(48.627451%,70.19608%,25.882354%);fill-opacity:1;" d="M 13.269531 2.273438 L 14.839844 2.273438 L 14.839844 3.84375 L 13.269531 3.84375 Z M 13.269531 2.273438 "/>
<path style=" stroke:none;fill-rule:nonzero;fill:rgb(77.254903%,88.235295%,64.705884%);fill-opacity:1;" d="M 14.839844 2.273438 L 16.414062 2.273438 L 16.414062 3.84375 L 14.839844 3.84375 Z M 14.839844 2.273438 "/>
<path style=" stroke:none;fill-rule:nonzero;fill:rgb(54.509807%,76.47059%,29.019609%);fill-opacity:1;" d="M 16.414062 2.273438 L 17.984375 2.273438 L 17.984375 3.84375 L 16.414062 3.84375 Z M 16.414062 2.273438 "/>
<path style=" stroke:none;fill-rule:nonzero;fill:rgb(68.235296%,83.529413%,50.588238%);fill-opacity:1;" d="M 5.414062 3.84375 L 6.988281 3.84375 L 6.988281 5.414062 L 5.414062 5.414062 Z M 5.414062 3.84375 "/>
<path style=" stroke:none;fill-rule:nonzero;fill:rgb(68.235296%,83.529413%,50.588238%);fill-opacity:1;" d="M 18.792969 2.273438 C 19.214844 2.273438 19.554688 2.613281 19.554688 3.035156 L 19.554688 3.84375 L 17.984375 3.84375 L 17.984375 2.273438 Z M 18.792969 2.273438 "/>
<path style=" stroke:none;fill-rule:nonzero;fill:rgb(54.509807%,76.47059%,29.019609%);fill-opacity:1;" d="M 6.988281 3.84375 L 8.558594 3.84375 L 8.558594 5.414062 L 6.988281 5.414062 Z M 6.988281 3.84375 "/>
<path style=" stroke:none;fill-rule:nonzero;fill:rgb(61.176473%,80.000001%,39.607844%);fill-opacity:1;" d="M 8.558594 3.84375 L 10.128906 3.84375 L 10.128906 5.414062 L 8.558594 5.414062 Z M 8.558594 3.84375 "/>
<path style=" stroke:none;fill-rule:nonzero;fill:rgb(54.509807%,76.47059%,29.019609%);fill-opacity:1;" d="M 10.128906 3.84375 L 11.699219 3.84375 L 11.699219 5.414062 L 10.128906 5.414062 Z M 10.128906 3.84375 "/>
<path style=" stroke:none;fill-rule:nonzero;fill:rgb(68.235296%,83.529413%,50.588238%);fill-opacity:1;" d="M 11.699219 3.84375 L 13.269531 3.84375 L 13.269531 5.414062 L 11.699219 5.414062 Z M 11.699219 3.84375 "/>
<path style=" stroke:none;fill-rule:nonzero;fill:rgb(48.627451%,70.19608%,25.882354%);fill-opacity:1;" d="M 13.269531 3.84375 L 14.839844 3.84375 L 14.839844 5.414062 L 13.269531 5.414062 Z M 13.269531 3.84375 "/>
<path style=" stroke:none;fill-rule:nonzero;fill:rgb(61.176473%,80.000001%,39.607844%);fill-opacity:1;" d="M 14.839844 3.84375 L 16.414062 3.84375 L 16.414062 5.414062 L 14.839844 5.414062 Z M 14.839844 3.84375 "/>
<path style=" stroke:none;fill-rule:nonzero;fill:rgb(54.509807%,76.47059%,29.019609%);fill-opacity:1;" d="M 16.414062 3.84375 L 17.984375 3.84375 L 17.984375 5.414062 L 16.414062 5.414062 Z M 16.414062 3.84375 "/>
<path style=" stroke:none;fill-rule:nonzero;fill:rgb(54.509807%,76.47059%,29.019609%);fill-opacity:1;" d="M 2.273438 3.84375 L 3.84375 3.84375 L 3.84375 5.414062 L 2.273438 5.414062 Z M 2.273438 3.84375 "/>
<path style=" stroke:none;fill-rule:nonzero;fill:rgb(48.627451%,70.19608%,25.882354%);fill-opacity:1;" d="M 3.84375 3.84375 L 5.414062 3.84375 L 5.414062 5.414062 L 3.84375 5.414062 Z M 3.84375 3.84375 "/>
<path style=" stroke:none;fill-rule:nonzero;fill:rgb(68.235296%,83.529413%,50.588238%);fill-opacity:1;" d="M 11.699219 3.84375 L 13.269531 3.84375 L 13.269531 5.414062 L 11.699219 5.414062 Z M 11.699219 3.84375 "/>
<path style=" stroke:none;fill-rule:nonzero;fill:rgb(77.254903%,88.235295%,64.705884%);fill-opacity:1;" d="M 17.984375 3.84375 L 19.554688 3.84375 L 19.554688 5.414062 L 17.984375 5.414062 Z M 17.984375 3.84375 "/>
<path style=" stroke:none;fill-rule:nonzero;fill:rgb(54.509807%,76.47059%,29.019609%);fill-opacity:1;" d="M 2.273438 5.414062 L 3.84375 5.414062 L 3.84375 6.988281 L 2.273438 6.988281 Z M 2.273438 5.414062 "/>
<path style=" stroke:none;fill-rule:nonzero;fill:rgb(54.509807%,76.47059%,29.019609%);fill-opacity:1;" d="M 3.84375 5.414062 L 5.414062 5.414062 L 5.414062 6.988281 L 3.84375 6.988281 Z M 3.84375 5.414062 "/>
<path style=" stroke:none;fill-rule:nonzero;fill:rgb(54.509807%,76.47059%,29.019609%);fill-opacity:1;" d="M 5.414062 5.414062 L 6.988281 5.414062 L 6.988281 6.988281 L 5.414062 6.988281 Z M 5.414062 5.414062 "/>
<path style=" stroke:none;fill-rule:nonzero;fill:rgb(68.235296%,83.529413%,50.588238%);fill-opacity:1;" d="M 6.988281 5.414062 L 8.558594 5.414062 L 8.558594 6.988281 L 6.988281 6.988281 Z M 6.988281 5.414062 "/>
<path style=" stroke:none;fill-rule:nonzero;fill:rgb(48.627451%,70.19608%,25.882354%);fill-opacity:1;" d="M 8.558594 5.414062 L 10.128906 5.414062 L 10.128906 6.988281 L 8.558594 6.988281 Z M 8.558594 5.414062 "/>
<path style=" stroke:none;fill-rule:nonzero;fill:rgb(61.176473%,80.000001%,39.607844%);fill-opacity:1;" d="M 10.128906 5.414062 L 11.699219 5.414062 L 11.699219 6.988281 L 10.128906 6.988281 Z M 10.128906 5.414062 "/>
<path style=" stroke:none;fill-rule:nonzero;fill:rgb(77.254903%,88.235295%,64.705884%);fill-opacity:1;" d="M 11.699219 5.414062 L 13.269531 5.414062 L 13.269531 6.988281 L 11.699219 6.988281 Z M 11.699219 5.414062 "/>
<path style=" stroke:none;fill-rule:nonzero;fill:rgb(54.509807%,76.47059%,29.019609%);fill-opacity:1;" d="M 6.988281 5.414062 L 8.558594 5.414062 L 8.558594 6.988281 L 6.988281 6.988281 Z M 6.988281 5.414062 "/>
<path style=" stroke:none;fill-rule:nonzero;fill:rgb(54.509807%,76.47059%,29.019609%);fill-opacity:1;" d="M 13.269531 5.414062 L 14.839844 5.414062 L 14.839844 6.988281 L 13.269531 6.988281 Z M 13.269531 5.414062 "/>
<path style=" stroke:none;fill-rule:nonzero;fill:rgb(68.235296%,83.529413%,50.588238%);fill-opacity:1;" d="M 17.984375 5.414062 L 19.554688 5.414062 L 19.554688 6.988281 L 17.984375 6.988281 Z M 17.984375 5.414062 "/>
<path style=" stroke:none;fill-rule:nonzero;fill:rgb(68.235296%,83.529413%,50.588238%);fill-opacity:1;" d="M 14.839844 5.414062 L 16.414062 5.414062 L 16.414062 6.988281 L 14.839844 6.988281 Z M 14.839844 5.414062 "/>
<path style=" stroke:none;fill-rule:nonzero;fill:rgb(48.627451%,70.19608%,25.882354%);fill-opacity:1;" d="M 16.414062 5.414062 L 17.984375 5.414062 L 17.984375 6.988281 L 16.414062 6.988281 Z M 16.414062 5.414062 "/>
<path style=" stroke:none;fill-rule:nonzero;fill:rgb(48.627451%,70.19608%,25.882354%);fill-opacity:1;" d="M 11.699219 10.128906 L 13.269531 10.128906 L 13.269531 8.558594 L 11.699219 8.558594 Z M 11.699219 10.128906 "/>
<path style=" stroke:none;fill-rule:nonzero;fill:rgb(61.176473%,80.000001%,39.607844%);fill-opacity:1;" d="M 13.269531 10.128906 L 14.839844 10.128906 L 14.839844 8.558594 L 13.269531 8.558594 Z M 13.269531 10.128906 "/>
<path style=" stroke:none;fill-rule:nonzero;fill:rgb(61.960787%,61.960787%,61.960787%);fill-opacity:1;" d="M 5.414062 13.269531 L 6.988281 13.269531 L 6.988281 11.699219 L 5.414062 11.699219 Z M 5.414062 13.269531 "/>
<path style=" stroke:none;fill-rule:nonzero;fill:rgb(68.235296%,83.529413%,50.588238%);fill-opacity:1;" d="M 17.984375 10.128906 L 19.554688 10.128906 L 19.554688 8.558594 L 17.984375 8.558594 Z M 17.984375 10.128906 "/>
<path style=" stroke:none;fill-rule:nonzero;fill:rgb(54.509807%,76.47059%,29.019609%);fill-opacity:1;" d="M 16.414062 10.128906 L 17.984375 10.128906 L 17.984375 8.558594 L 16.414062 8.558594 Z M 16.414062 10.128906 "/>
<path style=" stroke:none;fill-rule:nonzero;fill:rgb(54.509807%,76.47059%,29.019609%);fill-opacity:1;" d="M 17.984375 8.558594 L 19.554688 8.558594 L 19.554688 6.988281 L 17.984375 6.988281 Z M 17.984375 8.558594 "/>
<path style=" stroke:none;fill-rule:nonzero;fill:rgb(61.176473%,80.000001%,39.607844%);fill-opacity:1;" d="M 2.273438 8.558594 L 3.84375 8.558594 L 3.84375 6.988281 L 2.273438 6.988281 Z M 2.273438 8.558594 "/>
<path style=" stroke:none;fill-rule:nonzero;fill:rgb(54.509807%,76.47059%,29.019609%);fill-opacity:1;" d="M 3.84375 8.558594 L 5.414062 8.558594 L 5.414062 6.988281 L 3.84375 6.988281 Z M 3.84375 8.558594 "/>
<path style=" stroke:none;fill-rule:nonzero;fill:rgb(68.235296%,83.529413%,50.588238%);fill-opacity:1;" d="M 5.414062 8.558594 L 6.988281 8.558594 L 6.988281 6.988281 L 5.414062 6.988281 Z M 5.414062 8.558594 "/>
<path style=" stroke:none;fill-rule:nonzero;fill:rgb(48.627451%,70.19608%,25.882354%);fill-opacity:1;" d="M 6.988281 8.558594 L 8.558594 8.558594 L 8.558594 6.988281 L 6.988281 6.988281 Z M 6.988281 8.558594 "/>
<path style=" stroke:none;fill-rule:nonzero;fill:rgb(61.176473%,80.000001%,39.607844%);fill-opacity:1;" d="M 8.558594 8.558594 L 10.128906 8.558594 L 10.128906 6.988281 L 8.558594 6.988281 Z M 8.558594 8.558594 "/>
<path style=" stroke:none;fill-rule:nonzero;fill:rgb(77.254903%,88.235295%,64.705884%);fill-opacity:1;" d="M 10.128906 8.558594 L 11.699219 8.558594 L 11.699219 6.988281 L 10.128906 6.988281 Z M 10.128906 8.558594 "/>
<path style=" stroke:none;fill-rule:nonzero;fill:rgb(68.235296%,83.529413%,50.588238%);fill-opacity:1;" d="M 5.414062 8.558594 L 6.988281 8.558594 L 6.988281 6.988281 L 5.414062 6.988281 Z M 5.414062 8.558594 "/>
<path style=" stroke:none;fill-rule:nonzero;fill:rgb(54.509807%,76.47059%,29.019609%);fill-opacity:1;" d="M 11.699219 8.558594 L 13.269531 8.558594 L 13.269531 6.988281 L 11.699219 6.988281 Z M 11.699219 8.558594 "/>
<path style=" stroke:none;fill-rule:nonzero;fill:rgb(68.235296%,83.529413%,50.588238%);fill-opacity:1;" d="M 16.414062 8.558594 L 17.984375 8.558594 L 17.984375 6.988281 L 16.414062 6.988281 Z M 16.414062 8.558594 "/>
<path style=" stroke:none;fill-rule:nonzero;fill:rgb(68.235296%,83.529413%,50.588238%);fill-opacity:1;" d="M 13.269531 8.558594 L 14.839844 8.558594 L 14.839844 6.988281 L 13.269531 6.988281 Z M 13.269531 8.558594 "/>
<path style=" stroke:none;fill-rule:nonzero;fill:rgb(48.627451%,70.19608%,25.882354%);fill-opacity:1;" d="M 14.839844 8.558594 L 16.414062 8.558594 L 16.414062 6.988281 L 14.839844 6.988281 Z M 14.839844 8.558594 "/>
<path style=" stroke:none;fill-rule:nonzero;fill:rgb(45.882353%,45.882353%,45.882353%);fill-opacity:1;" d="M 8.558594 14.839844 L 10.128906 14.839844 L 10.128906 13.269531 L 8.558594 13.269531 Z M 8.558594 14.839844 "/>
<path style=" stroke:none;fill-rule:nonzero;fill:rgb(61.960787%,61.960787%,61.960787%);fill-opacity:1;" d="M 13.269531 16.414062 L 14.839844 16.414062 L 14.839844 14.839844 L 13.269531 14.839844 Z M 13.269531 16.414062 "/>
<path style=" stroke:none;fill-rule:nonzero;fill:rgb(74.117649%,74.117649%,74.117649%);fill-opacity:1;" d="M 16.414062 14.839844 L 17.984375 14.839844 L 17.984375 13.269531 L 16.414062 13.269531 Z M 16.414062 14.839844 "/>
<path style=" stroke:none;fill-rule:nonzero;fill:rgb(73.725492%,66.666669%,64.313728%);fill-opacity:1;" d="M 2.273438 10.128906 L 3.84375 10.128906 L 3.84375 8.558594 L 2.273438 8.558594 Z M 2.273438 10.128906 "/>
<path style=" stroke:none;fill-rule:nonzero;fill:rgb(61.960787%,61.960787%,61.960787%);fill-opacity:1;" d="M 3.84375 10.128906 L 5.414062 10.128906 L 5.414062 8.558594 L 3.84375 8.558594 Z M 3.84375 10.128906 "/>
<path style=" stroke:none;fill-rule:nonzero;fill:rgb(84.313726%,80.000001%,78.431374%);fill-opacity:1;" d="M 8.558594 10.128906 L 10.128906 10.128906 L 10.128906 8.558594 L 8.558594 8.558594 Z M 8.558594 10.128906 "/>
<path style=" stroke:none;fill-rule:nonzero;fill:rgb(73.725492%,66.666669%,64.313728%);fill-opacity:1;" d="M 6.988281 10.128906 L 8.558594 10.128906 L 8.558594 8.558594 L 6.988281 8.558594 Z M 6.988281 10.128906 "/>
<path style=" stroke:none;fill-rule:nonzero;fill:rgb(63.137257%,53.333336%,49.803922%);fill-opacity:1;" d="M 10.128906 10.128906 L 11.699219 10.128906 L 11.699219 8.558594 L 10.128906 8.558594 Z M 10.128906 10.128906 "/>
<path style=" stroke:none;fill-rule:nonzero;fill:rgb(61.960787%,61.960787%,61.960787%);fill-opacity:1;" d="M 14.839844 10.128906 L 16.414062 10.128906 L 16.414062 8.558594 L 14.839844 8.558594 Z M 14.839844 10.128906 "/>
<path style=" stroke:none;fill-rule:nonzero;fill:rgb(63.137257%,53.333336%,49.803922%);fill-opacity:1;" d="M 3.84375 8.558594 L 5.414062 8.558594 L 5.414062 6.988281 L 3.84375 6.988281 Z M 3.84375 8.558594 "/>
<path style=" stroke:none;fill-rule:nonzero;fill:rgb(73.725492%,66.666669%,64.313728%);fill-opacity:1;" d="M 10.128906 11.699219 L 11.699219 11.699219 L 11.699219 10.128906 L 10.128906 10.128906 Z M 10.128906 11.699219 "/>
<path style=" stroke:none;fill-rule:nonzero;fill:rgb(63.137257%,53.333336%,49.803922%);fill-opacity:1;" d="M 11.699219 11.699219 L 13.269531 11.699219 L 13.269531 10.128906 L 11.699219 10.128906 Z M 11.699219 11.699219 "/>
<path style=" stroke:none;fill-rule:nonzero;fill:rgb(55.29412%,43.137255%,38.82353%);fill-opacity:1;" d="M 13.269531 11.699219 L 14.839844 11.699219 L 14.839844 10.128906 L 13.269531 10.128906 Z M 13.269531 11.699219 "/>
<path style=" stroke:none;fill-rule:nonzero;fill:rgb(63.137257%,53.333336%,49.803922%);fill-opacity:1;" d="M 14.839844 11.699219 L 16.414062 11.699219 L 16.414062 10.128906 L 14.839844 10.128906 Z M 14.839844 11.699219 "/>
<path style=" stroke:none;fill-rule:nonzero;fill:rgb(73.725492%,66.666669%,64.313728%);fill-opacity:1;" d="M 16.414062 11.699219 L 17.984375 11.699219 L 17.984375 10.128906 L 16.414062 10.128906 Z M 16.414062 11.699219 "/>
<path style=" stroke:none;fill-rule:nonzero;fill:rgb(63.137257%,53.333336%,49.803922%);fill-opacity:1;" d="M 17.984375 11.699219 L 19.554688 11.699219 L 19.554688 10.128906 L 17.984375 10.128906 Z M 17.984375 11.699219 "/>
<path style=" stroke:none;fill-rule:nonzero;fill:rgb(63.137257%,53.333336%,49.803922%);fill-opacity:1;" d="M 2.273438 11.699219 L 3.84375 11.699219 L 3.84375 10.128906 L 2.273438 10.128906 Z M 2.273438 11.699219 "/>
<path style=" stroke:none;fill-rule:nonzero;fill:rgb(55.29412%,43.137255%,38.82353%);fill-opacity:1;" d="M 3.84375 11.699219 L 5.414062 11.699219 L 5.414062 10.128906 L 3.84375 10.128906 Z M 3.84375 11.699219 "/>
<path style=" stroke:none;fill-rule:nonzero;fill:rgb(73.725492%,66.666669%,64.313728%);fill-opacity:1;" d="M 5.414062 11.699219 L 6.988281 11.699219 L 6.988281 10.128906 L 5.414062 10.128906 Z M 5.414062 11.699219 "/>
<path style=" stroke:none;fill-rule:nonzero;fill:rgb(63.137257%,53.333336%,49.803922%);fill-opacity:1;" d="M 6.988281 11.699219 L 8.558594 11.699219 L 8.558594 10.128906 L 6.988281 10.128906 Z M 6.988281 11.699219 "/>
<path style=" stroke:none;fill-rule:nonzero;fill:rgb(55.29412%,43.137255%,38.82353%);fill-opacity:1;" d="M 8.558594 11.699219 L 10.128906 11.699219 L 10.128906 10.128906 L 8.558594 10.128906 Z M 8.558594 11.699219 "/>
<path style=" stroke:none;fill-rule:nonzero;fill:rgb(73.725492%,66.666669%,64.313728%);fill-opacity:1;" d="M 17.984375 13.269531 L 19.554688 13.269531 L 19.554688 11.699219 L 17.984375 11.699219 Z M 17.984375 13.269531 "/>
<path style=" stroke:none;fill-rule:nonzero;fill:rgb(63.137257%,53.333336%,49.803922%);fill-opacity:1;" d="M 13.269531 13.269531 L 14.839844 13.269531 L 14.839844 11.699219 L 13.269531 11.699219 Z M 13.269531 13.269531 "/>
<path style=" stroke:none;fill-rule:nonzero;fill:rgb(55.29412%,43.137255%,38.82353%);fill-opacity:1;" d="M 16.414062 13.269531 L 17.984375 13.269531 L 17.984375 11.699219 L 16.414062 11.699219 Z M 16.414062 13.269531 "/>
<path style=" stroke:none;fill-rule:nonzero;fill:rgb(73.725492%,66.666669%,64.313728%);fill-opacity:1;" d="M 14.839844 13.269531 L 16.414062 13.269531 L 16.414062 11.699219 L 14.839844 11.699219 Z M 14.839844 13.269531 "/>
<path style=" stroke:none;fill-rule:nonzero;fill:rgb(73.725492%,66.666669%,64.313728%);fill-opacity:1;" d="M 11.699219 17.984375 L 10.128906 17.984375 L 10.128906 16.414062 L 11.699219 16.414062 Z M 11.699219 17.984375 "/>
<path style=" stroke:none;fill-rule:nonzero;fill:rgb(63.137257%,53.333336%,49.803922%);fill-opacity:1;" d="M 6.988281 17.984375 L 5.414062 17.984375 L 5.414062 16.414062 L 6.988281 16.414062 Z M 6.988281 17.984375 "/>
<path style=" stroke:none;fill-rule:nonzero;fill:rgb(73.725492%,66.666669%,64.313728%);fill-opacity:1;" d="M 5.414062 17.984375 L 3.84375 17.984375 L 3.84375 16.414062 L 5.414062 16.414062 Z M 5.414062 17.984375 "/>
<path style=" stroke:none;fill-rule:nonzero;fill:rgb(63.137257%,53.333336%,49.803922%);fill-opacity:1;" d="M 3.84375 17.984375 L 2.273438 17.984375 L 2.273438 16.414062 L 3.84375 16.414062 Z M 3.84375 17.984375 "/>
<path style=" stroke:none;fill-rule:nonzero;fill:rgb(63.137257%,53.333336%,49.803922%);fill-opacity:1;" d="M 19.554688 17.984375 L 17.984375 17.984375 L 17.984375 16.414062 L 19.554688 16.414062 Z M 19.554688 17.984375 "/>
<path style=" stroke:none;fill-rule:nonzero;fill:rgb(55.29412%,43.137255%,38.82353%);fill-opacity:1;" d="M 17.984375 17.984375 L 16.414062 17.984375 L 16.414062 16.414062 L 17.984375 16.414062 Z M 17.984375 17.984375 "/>
<path style=" stroke:none;fill-rule:nonzero;fill:rgb(73.725492%,66.666669%,64.313728%);fill-opacity:1;" d="M 13.269531 14.839844 L 11.699219 14.839844 L 11.699219 13.269531 L 13.269531 13.269531 Z M 13.269531 14.839844 "/>
<path style=" stroke:none;fill-rule:nonzero;fill:rgb(63.137257%,53.333336%,49.803922%);fill-opacity:1;" d="M 14.839844 17.984375 L 13.269531 17.984375 L 13.269531 16.414062 L 14.839844 16.414062 Z M 14.839844 17.984375 "/>
<path style=" stroke:none;fill-rule:nonzero;fill:rgb(55.29412%,43.137255%,38.82353%);fill-opacity:1;" d="M 13.269531 17.984375 L 11.699219 17.984375 L 11.699219 16.414062 L 13.269531 16.414062 Z M 13.269531 17.984375 "/>
<path style=" stroke:none;fill-rule:nonzero;fill:rgb(55.29412%,43.137255%,38.82353%);fill-opacity:1;" d="M 16.414062 19.554688 L 14.839844 19.554688 L 14.839844 17.984375 L 16.414062 17.984375 Z M 16.414062 19.554688 "/>
<path style=" stroke:none;fill-rule:nonzero;fill:rgb(55.29412%,43.137255%,38.82353%);fill-opacity:1;" d="M 6.988281 19.554688 L 5.414062 19.554688 L 5.414062 17.984375 L 6.988281 17.984375 Z M 6.988281 19.554688 "/>
<path style=" stroke:none;fill-rule:nonzero;fill:rgb(63.137257%,53.333336%,49.803922%);fill-opacity:1;" d="M 13.269531 19.554688 L 11.699219 19.554688 L 11.699219 17.984375 L 13.269531 17.984375 Z M 13.269531 19.554688 "/>
<path style=" stroke:none;fill-rule:nonzero;fill:rgb(73.725492%,66.666669%,64.313728%);fill-opacity:1;" d="M 14.839844 19.554688 L 13.269531 19.554688 L 13.269531 17.984375 L 14.839844 17.984375 Z M 14.839844 19.554688 "/>
<path style=" stroke:none;fill-rule:nonzero;fill:rgb(84.313726%,80.000001%,78.431374%);fill-opacity:1;" d="M 3.035156 19.554688 C 2.613281 19.554688 2.273438 19.214844 2.273438 18.792969 L 2.273438 17.984375 L 3.84375 17.984375 L 3.84375 19.554688 Z M 3.035156 19.554688 "/>
<path style=" stroke:none;fill-rule:nonzero;fill:rgb(55.29412%,43.137255%,38.82353%);fill-opacity:1;" d="M 18.792969 19.554688 C 19.214844 19.554688 19.554688 19.214844 19.554688 18.792969 L 19.554688 17.984375 L 17.984375 17.984375 L 17.984375 19.554688 Z M 18.792969 19.554688 "/>
<path style=" stroke:none;fill-rule:nonzero;fill:rgb(63.137257%,53.333336%,49.803922%);fill-opacity:1;" d="M 5.414062 19.554688 L 3.84375 19.554688 L 3.84375 17.984375 L 5.414062 17.984375 Z M 5.414062 19.554688 "/>
<path style=" stroke:none;fill-rule:nonzero;fill:rgb(84.313726%,80.000001%,78.431374%);fill-opacity:1;" d="M 8.558594 19.554688 L 6.988281 19.554688 L 6.988281 17.984375 L 8.558594 17.984375 Z M 8.558594 19.554688 "/>
<path style=" stroke:none;fill-rule:nonzero;fill:rgb(73.725492%,66.666669%,64.313728%);fill-opacity:1;" d="M 10.128906 19.554688 L 8.558594 19.554688 L 8.558594 17.984375 L 10.128906 17.984375 Z M 10.128906 19.554688 "/>
<path style=" stroke:none;fill-rule:nonzero;fill:rgb(55.29412%,43.137255%,38.82353%);fill-opacity:1;" d="M 11.699219 19.554688 L 10.128906 19.554688 L 10.128906 17.984375 L 11.699219 17.984375 Z M 11.699219 19.554688 "/>
<path style=" stroke:none;fill-rule:nonzero;fill:rgb(84.313726%,80.000001%,78.431374%);fill-opacity:1;" d="M 17.984375 19.554688 L 16.414062 19.554688 L 16.414062 17.984375 L 17.984375 17.984375 Z M 17.984375 19.554688 "/>
<path style=" stroke:none;fill-rule:nonzero;fill:rgb(45.882353%,45.882353%,45.882353%);fill-opacity:1;" d="M 6.988281 17.984375 L 8.558594 17.984375 L 8.558594 16.414062 L 6.988281 16.414062 Z M 6.988281 17.984375 "/>
<path style=" stroke:none;fill-rule:nonzero;fill:rgb(63.137257%,53.333336%,49.803922%);fill-opacity:1;" d="M 13.269531 16.414062 L 11.699219 16.414062 L 11.699219 14.839844 L 13.269531 14.839844 Z M 13.269531 16.414062 "/>
<path style=" stroke:none;fill-rule:nonzero;fill:rgb(73.725492%,66.666669%,64.313728%);fill-opacity:1;" d="M 10.128906 16.414062 L 8.558594 16.414062 L 8.558594 14.839844 L 10.128906 14.839844 Z M 10.128906 16.414062 "/>
<path style=" stroke:none;fill-rule:nonzero;fill:rgb(55.29412%,43.137255%,38.82353%);fill-opacity:1;" d="M 11.699219 16.414062 L 10.128906 16.414062 L 10.128906 14.839844 L 11.699219 14.839844 Z M 11.699219 16.414062 "/>
<path style=" stroke:none;fill-rule:nonzero;fill:rgb(63.137257%,53.333336%,49.803922%);fill-opacity:1;" d="M 5.414062 16.414062 L 3.84375 16.414062 L 3.84375 14.839844 L 5.414062 14.839844 Z M 5.414062 16.414062 "/>
<path style=" stroke:none;fill-rule:nonzero;fill:rgb(84.313726%,80.000001%,78.431374%);fill-opacity:1;" d="M 6.988281 16.414062 L 5.414062 16.414062 L 5.414062 14.839844 L 6.988281 14.839844 Z M 6.988281 16.414062 "/>
<path style=" stroke:none;fill-rule:nonzero;fill:rgb(55.29412%,43.137255%,38.82353%);fill-opacity:1;" d="M 3.84375 16.414062 L 2.273438 16.414062 L 2.273438 14.839844 L 3.84375 14.839844 Z M 3.84375 16.414062 "/>
<path style=" stroke:none;fill-rule:nonzero;fill:rgb(73.725492%,66.666669%,64.313728%);fill-opacity:1;" d="M 19.554688 16.414062 L 17.984375 16.414062 L 17.984375 14.839844 L 19.554688 14.839844 Z M 19.554688 16.414062 "/>
<path style=" stroke:none;fill-rule:nonzero;fill:rgb(84.313726%,80.000001%,78.431374%);fill-opacity:1;" d="M 17.984375 16.414062 L 16.414062 16.414062 L 16.414062 14.839844 L 17.984375 14.839844 Z M 17.984375 16.414062 "/>
<path style=" stroke:none;fill-rule:nonzero;fill:rgb(84.313726%,80.000001%,78.431374%);fill-opacity:1;" d="M 17.984375 16.414062 L 16.414062 16.414062 L 16.414062 14.839844 L 17.984375 14.839844 Z M 17.984375 16.414062 "/>
<path style=" stroke:none;fill-rule:nonzero;fill:rgb(73.725492%,66.666669%,64.313728%);fill-opacity:1;" d="M 14.839844 14.839844 L 13.269531 14.839844 L 13.269531 13.269531 L 14.839844 13.269531 Z M 14.839844 14.839844 "/>
<path style=" stroke:none;fill-rule:nonzero;fill:rgb(63.137257%,53.333336%,49.803922%);fill-opacity:1;" d="M 14.839844 16.414062 L 16.414062 16.414062 L 16.414062 14.839844 L 14.839844 14.839844 Z M 14.839844 16.414062 "/>
<path style=" stroke:none;fill-rule:nonzero;fill:rgb(55.29412%,43.137255%,38.82353%);fill-opacity:1;" d="M 14.839844 14.839844 L 16.414062 14.839844 L 16.414062 13.269531 L 14.839844 13.269531 Z M 14.839844 14.839844 "/>
<path style=" stroke:none;fill-rule:nonzero;fill:rgb(55.29412%,43.137255%,38.82353%);fill-opacity:1;" d="M 19.554688 14.839844 L 17.984375 14.839844 L 17.984375 13.269531 L 19.554688 13.269531 Z M 19.554688 14.839844 "/>
<path style=" stroke:none;fill-rule:nonzero;fill:rgb(63.137257%,53.333336%,49.803922%);fill-opacity:1;" d="M 16.414062 17.984375 L 14.839844 17.984375 L 14.839844 16.414062 L 16.414062 16.414062 Z M 16.414062 17.984375 "/>
<path style=" stroke:none;fill-rule:nonzero;fill:rgb(55.29412%,43.137255%,38.82353%);fill-opacity:1;" d="M 11.699219 13.269531 L 13.269531 13.269531 L 13.269531 11.699219 L 11.699219 11.699219 Z M 11.699219 13.269531 "/>
<path style=" stroke:none;fill-rule:nonzero;fill:rgb(55.29412%,43.137255%,38.82353%);fill-opacity:1;" d="M 6.988281 13.269531 L 8.558594 13.269531 L 8.558594 11.699219 L 6.988281 11.699219 Z M 6.988281 13.269531 "/>
<path style=" stroke:none;fill-rule:nonzero;fill:rgb(63.137257%,53.333336%,49.803922%);fill-opacity:1;" d="M 8.558594 13.269531 L 10.128906 13.269531 L 10.128906 11.699219 L 8.558594 11.699219 Z M 8.558594 13.269531 "/>
<path style=" stroke:none;fill-rule:nonzero;fill:rgb(84.313726%,80.000001%,78.431374%);fill-opacity:1;" d="M 3.84375 13.269531 L 5.414062 13.269531 L 5.414062 11.699219 L 3.84375 11.699219 Z M 3.84375 13.269531 "/>
<path style=" stroke:none;fill-rule:nonzero;fill:rgb(55.29412%,43.137255%,38.82353%);fill-opacity:1;" d="M 3.84375 14.839844 L 5.414062 14.839844 L 5.414062 13.269531 L 3.84375 13.269531 Z M 3.84375 14.839844 "/>
<path style=" stroke:none;fill-rule:nonzero;fill:rgb(84.313726%,80.000001%,78.431374%);fill-opacity:1;" d="M 8.558594 14.839844 L 6.988281 14.839844 L 6.988281 13.269531 L 8.558594 13.269531 Z M 8.558594 14.839844 "/>
<path style=" stroke:none;fill-rule:nonzero;fill:rgb(73.725492%,66.666669%,64.313728%);fill-opacity:1;" d="M 3.84375 13.269531 L 2.273438 13.269531 L 2.273438 11.699219 L 3.84375 11.699219 Z M 3.84375 13.269531 "/>
<path style=" stroke:none;fill-rule:nonzero;fill:rgb(73.725492%,66.666669%,64.313728%);fill-opacity:1;" d="M 6.988281 14.839844 L 5.414062 14.839844 L 5.414062 13.269531 L 6.988281 13.269531 Z M 6.988281 14.839844 "/>
<path style=" stroke:none;fill-rule:nonzero;fill:rgb(63.137257%,53.333336%,49.803922%);fill-opacity:1;" d="M 11.699219 13.269531 L 10.128906 13.269531 L 10.128906 11.699219 L 11.699219 11.699219 Z M 11.699219 13.269531 "/>
<path style=" stroke:none;fill-rule:nonzero;fill:rgb(84.313726%,80.000001%,78.431374%);fill-opacity:1;" d="M 11.699219 14.839844 L 10.128906 14.839844 L 10.128906 13.269531 L 11.699219 13.269531 Z M 11.699219 14.839844 "/>
<path style=" stroke:none;fill-rule:nonzero;fill:rgb(84.313726%,80.000001%,78.431374%);fill-opacity:1;" d="M 3.84375 14.839844 L 2.273438 14.839844 L 2.273438 13.269531 L 3.84375 13.269531 Z M 3.84375 14.839844 "/>
<path style=" stroke:none;fill-rule:nonzero;fill:rgb(68.235296%,83.529413%,50.588238%);fill-opacity:1;" d="M 5.414062 10.128906 L 6.988281 10.128906 L 6.988281 8.558594 L 5.414062 8.558594 Z M 5.414062 10.128906 "/>
<path style=" stroke:none;fill-rule:nonzero;fill:rgb(45.882353%,45.882353%,45.882353%);fill-opacity:1;" d="M 6.988281 16.414062 L 8.558594 16.414062 L 8.558594 14.839844 L 6.988281 14.839844 Z M 6.988281 16.414062 "/>
<path style=" stroke:none;fill-rule:nonzero;fill:rgb(45.882353%,45.882353%,45.882353%);fill-opacity:1;" d="M 8.558594 17.984375 L 10.128906 17.984375 L 10.128906 16.414062 L 8.558594 16.414062 Z M 8.558594 17.984375 "/>
</g>
</svg>
