
<svg xmlns="http://www.w3.org/2000/svg" xmlns:xlink="http://www.w3.org/1999/xlink" width="22px" height="22px" viewBox="0 0 22 22" version="1.1">
<g id="surface1">
<path style=" stroke:none;fill-rule:nonzero;fill:rgb(61.960787%,61.960787%,61.960787%);fill-opacity:1;" d="M 4.09375 1.082031 L 17.734375 1.082031 C 18.238281 1.082031 18.644531 1.488281 18.644531 1.992188 L 18.644531 20.179688 C 18.644531 20.683594 18.238281 21.089844 17.734375 21.089844 L 4.09375 21.089844 C 3.589844 21.089844 3.183594 20.683594 3.183594 20.179688 L 3.183594 1.992188 C 3.183594 1.488281 3.589844 1.082031 4.09375 1.082031 Z M 4.09375 1.082031 "/>
<path style=" stroke:none;fill-rule:nonzero;fill:rgb(40.000001%,73.333335%,41.568628%);fill-opacity:1;" d="M 4.09375 19.953125 L 17.734375 19.953125 L 17.734375 20.636719 L 4.09375 20.636719 Z M 4.09375 19.953125 "/>
<path style=" stroke:none;fill-rule:nonzero;fill:rgb(74.117649%,74.117649%,74.117649%);fill-opacity:1;" d="M 4.09375 1.082031 L 17.734375 1.082031 C 18.238281 1.082031 18.644531 1.488281 18.644531 1.992188 L 18.644531 19.273438 C 18.644531 19.773438 18.238281 20.179688 17.734375 20.179688 L 4.09375 20.179688 C 3.589844 20.179688 3.183594 19.773438 3.183594 19.273438 L 3.183594 1.992188 C 3.183594 1.488281 3.589844 1.082031 4.09375 1.082031 Z M 4.09375 1.082031 "/>
<path style=" stroke:none;fill-rule:nonzero;fill:rgb(45.882353%,45.882353%,45.882353%);fill-opacity:1;" d="M 10.914062 1.992188 C 14.429688 1.992188 17.28125 4.839844 17.28125 8.359375 C 17.28125 11.875 14.429688 14.722656 10.914062 14.722656 C 7.398438 14.722656 4.546875 11.875 4.546875 8.359375 C 4.546875 4.839844 7.398438 1.992188 10.914062 1.992188 Z M 10.914062 1.992188 "/>
<path style=" stroke:none;fill-rule:nonzero;fill:rgb(38.039216%,38.039216%,38.039216%);fill-opacity:1;" d="M 10.914062 2.902344 C 13.929688 2.902344 16.371094 5.34375 16.371094 8.355469 L 16.371094 8.359375 C 16.371094 11.371094 13.929688 13.8125 10.914062 13.8125 C 7.898438 13.8125 5.457031 11.371094 5.457031 8.359375 L 5.457031 8.355469 C 5.457031 5.34375 7.898438 2.902344 10.914062 2.902344 Z M 10.914062 2.902344 "/>
<path style=" stroke:none;fill-rule:nonzero;fill:rgb(93.333334%,93.333334%,93.333334%);fill-opacity:1;" d="M 9.425781 10.761719 C 9.359375 10.695312 9.257812 10.675781 9.167969 10.714844 L 6.351562 11.996094 C 5.890625 12 5.433594 12.175781 5.082031 12.527344 C 4.371094 13.242188 4.371094 14.390625 5.082031 15.101562 C 5.796875 15.8125 6.941406 15.8125 7.65625 15.101562 C 8.007812 14.75 8.183594 14.292969 8.1875 13.832031 L 9.46875 11.015625 C 9.507812 10.929688 9.492188 10.828125 9.425781 10.761719 Z M 9.425781 10.761719 "/>
<path style=" stroke:none;fill-rule:nonzero;fill:rgb(45.882353%,45.882353%,45.882353%);fill-opacity:1;" d="M 5.457031 17.453125 C 5.960938 17.453125 6.367188 17.859375 6.367188 18.363281 C 6.367188 18.863281 5.960938 19.273438 5.457031 19.273438 C 4.953125 19.273438 4.546875 18.863281 4.546875 18.363281 C 4.546875 17.859375 4.953125 17.453125 5.457031 17.453125 Z M 5.457031 17.453125 "/>
<path style=" stroke:none;fill-rule:nonzero;fill:rgb(45.882353%,45.882353%,45.882353%);fill-opacity:1;" d="M 16.371094 17.453125 C 16.875 17.453125 17.28125 17.859375 17.28125 18.363281 C 17.28125 18.863281 16.875 19.273438 16.371094 19.273438 C 15.867188 19.273438 15.460938 18.863281 15.460938 18.363281 C 15.460938 17.859375 15.867188 17.453125 16.371094 17.453125 Z M 16.371094 17.453125 "/>
<path style=" stroke:none;fill-rule:nonzero;fill:rgb(45.882353%,45.882353%,45.882353%);fill-opacity:1;" d="M 8.1875 16.542969 L 13.640625 16.542969 C 13.894531 16.542969 14.097656 16.746094 14.097656 16.996094 C 14.097656 17.25 13.894531 17.453125 13.640625 17.453125 L 8.1875 17.453125 C 7.933594 17.453125 7.730469 17.25 7.730469 16.996094 C 7.730469 16.746094 7.933594 16.542969 8.1875 16.542969 Z M 8.1875 16.542969 "/>
<path style=" stroke:none;fill-rule:nonzero;fill:rgb(74.117649%,74.117649%,74.117649%);fill-opacity:1;" d="M 5.457031 17.90625 C 5.707031 17.90625 5.910156 18.109375 5.910156 18.363281 C 5.910156 18.613281 5.707031 18.816406 5.457031 18.816406 C 5.207031 18.816406 5.003906 18.613281 5.003906 18.363281 C 5.003906 18.109375 5.207031 17.90625 5.457031 17.90625 Z M 5.457031 17.90625 "/>
<path style=" stroke:none;fill-rule:nonzero;fill:rgb(74.117649%,74.117649%,74.117649%);fill-opacity:1;" d="M 16.371094 17.90625 C 16.621094 17.90625 16.824219 18.109375 16.824219 18.363281 C 16.824219 18.613281 16.621094 18.816406 16.371094 18.816406 C 16.121094 18.816406 15.917969 18.613281 15.917969 18.363281 C 15.917969 18.109375 16.121094 17.90625 16.371094 17.90625 Z M 16.371094 17.90625 "/>
<path style=" stroke:none;fill-rule:nonzero;fill:rgb(74.117649%,74.117649%,74.117649%);fill-opacity:1;" d="M 10.914062 4.265625 C 13.179688 4.265625 15.007812 6.089844 15.007812 8.355469 C 15.007812 10.625 13.179688 12.449219 10.914062 12.449219 L 10.914062 11.085938 C 12.425781 11.085938 13.640625 9.867188 13.640625 8.355469 C 13.640625 6.847656 12.425781 5.628906 10.914062 5.628906 C 9.402344 5.628906 8.1875 6.847656 8.1875 8.355469 L 9.550781 8.355469 L 7.503906 10.859375 L 5.457031 8.355469 L 6.820312 8.355469 C 6.820312 6.089844 8.648438 4.265625 10.914062 4.265625 Z M 10.914062 4.265625 "/>
<path style=" stroke:none;fill-rule:nonzero;fill:rgb(74.117649%,74.117649%,74.117649%);fill-opacity:1;" d="M 10.914062 6.3125 C 10.789062 6.3125 10.6875 6.414062 10.6875 6.539062 L 10.6875 8.355469 L 10.460938 8.355469 C 10.332031 8.355469 10.230469 8.457031 10.230469 8.585938 C 10.230469 8.710938 10.332031 8.8125 10.460938 8.8125 L 10.6875 8.8125 L 10.6875 9.039062 C 10.6875 9.164062 10.789062 9.265625 10.914062 9.265625 C 11.039062 9.265625 11.140625 9.164062 11.140625 9.039062 L 11.140625 8.8125 L 12.960938 8.8125 C 13.085938 8.8125 13.1875 8.710938 13.1875 8.585938 C 13.1875 8.457031 13.085938 8.355469 12.960938 8.355469 L 11.140625 8.355469 L 11.140625 6.539062 C 11.140625 6.414062 11.039062 6.3125 10.914062 6.3125 Z M 10.914062 6.3125 "/>
</g>
</svg>
