<?xml version="1.0" encoding="UTF-8"?>
<svg xmlns="http://www.w3.org/2000/svg" xmlns:xlink="http://www.w3.org/1999/xlink" width="22px" height="22px" viewBox="0 0 22 22" version="1.1">
<g id="surface1">
<path style=" stroke:none;fill-rule:nonzero;fill:rgb(74.117649%,74.117649%,74.117649%);fill-opacity:1;" d="M 10.914062 1.082031 C 16.4375 1.082031 20.917969 5.5625 20.917969 11.085938 C 20.917969 16.609375 16.4375 21.089844 10.914062 21.089844 C 5.390625 21.089844 0.910156 16.609375 0.910156 11.085938 C 0.910156 5.5625 5.390625 1.082031 10.914062 1.082031 Z M 10.914062 1.082031 "/>
<path style=" stroke:none;fill-rule:nonzero;fill:rgb(25.882354%,25.882354%,25.882354%);fill-opacity:1;" d="M 10.914062 6.539062 C 13.425781 6.539062 15.460938 8.574219 15.460938 11.085938 C 15.460938 13.597656 13.425781 15.632812 10.914062 15.632812 C 8.402344 15.632812 6.367188 13.597656 6.367188 11.085938 C 6.367188 8.574219 8.402344 6.539062 10.914062 6.539062 Z M 10.914062 6.539062 "/>
<path style=" stroke:none;fill-rule:nonzero;fill:rgb(55.29412%,43.137255%,38.82353%);fill-opacity:1;" d="M 5.109375 5.324219 C 2.832031 7.605469 2.171875 10.871094 3.136719 13.71875 L 13.503906 3.351562 C 10.65625 2.390625 7.386719 3.046875 5.109375 5.324219 Z M 5.109375 5.324219 "/>
<path style=" stroke:none;fill-rule:nonzero;fill:rgb(55.29412%,43.137255%,38.82353%);fill-opacity:1;" d="M 2.734375 11.117188 C 2.734375 14.339844 4.582031 17.113281 7.277344 18.449219 L 7.277344 3.785156 C 4.582031 5.121094 2.734375 7.894531 2.734375 11.117188 Z M 2.734375 11.117188 "/>
<path style=" stroke:none;fill-rule:nonzero;fill:rgb(55.29412%,43.137255%,38.82353%);fill-opacity:1;" d="M 5.152344 16.890625 C 7.433594 19.167969 10.699219 19.828125 13.546875 18.863281 L 3.179688 8.496094 C 2.21875 11.34375 2.875 14.613281 5.152344 16.890625 Z M 5.152344 16.890625 "/>
<path style=" stroke:none;fill-rule:nonzero;fill:rgb(55.29412%,43.137255%,38.82353%);fill-opacity:1;" d="M 10.945312 19.265625 C 14.167969 19.265625 16.941406 17.417969 18.277344 14.722656 L 3.613281 14.722656 C 4.949219 17.417969 7.722656 19.265625 10.945312 19.265625 Z M 10.945312 19.265625 "/>
<path style=" stroke:none;fill-rule:nonzero;fill:rgb(55.29412%,43.137255%,38.82353%);fill-opacity:1;" d="M 16.71875 16.847656 C 18.996094 14.566406 19.65625 11.300781 18.691406 8.453125 L 8.324219 18.820312 C 11.171875 19.78125 14.441406 19.125 16.71875 16.847656 Z M 16.71875 16.847656 "/>
<path style=" stroke:none;fill-rule:nonzero;fill:rgb(55.29412%,43.137255%,38.82353%);fill-opacity:1;" d="M 19.09375 11.054688 C 19.09375 7.832031 17.246094 5.058594 14.550781 3.722656 L 14.550781 18.386719 C 17.246094 17.050781 19.09375 14.277344 19.09375 11.054688 Z M 19.09375 11.054688 "/>
<path style=" stroke:none;fill-rule:nonzero;fill:rgb(55.29412%,43.137255%,38.82353%);fill-opacity:1;" d="M 10.890625 2.878906 C 10.007812 2.878906 9.125 3.019531 8.28125 3.308594 L 8.3125 3.339844 C 9.996094 2.78125 11.824219 2.785156 13.503906 3.351562 L 10.914062 5.941406 L 18.648438 13.675781 C 19.609375 10.828125 18.953125 7.558594 16.675781 5.28125 C 15.074219 3.679688 12.980469 2.878906 10.890625 2.878906 Z M 10.890625 2.878906 "/>
<path style=" stroke:none;fill-rule:nonzero;fill:rgb(55.29412%,43.137255%,38.82353%);fill-opacity:1;" d="M 10.882812 2.90625 C 7.660156 2.90625 4.886719 4.753906 3.550781 7.449219 L 3.574219 7.449219 C 3.957031 6.683594 4.46875 5.964844 5.109375 5.324219 C 7.386719 3.046875 10.65625 2.390625 13.503906 3.351562 L 9.40625 7.449219 L 18.214844 7.449219 C 16.878906 4.753906 14.105469 2.90625 10.882812 2.90625 Z M 10.882812 2.90625 "/>
<path style=" stroke:none;fill-rule:nonzero;fill:rgb(25.882354%,25.882354%,25.882354%);fill-opacity:1;" d="M 9.632812 7.21875 L 9.40625 7.449219 L 18.214844 7.449219 C 18.175781 7.371094 18.136719 7.296875 18.097656 7.21875 Z M 9.632812 7.21875 "/>
<path style=" stroke:none;fill-rule:nonzero;fill:rgb(38.039216%,38.039216%,38.039216%);fill-opacity:1;" d="M 10.914062 8.355469 C 12.421875 8.355469 13.644531 9.578125 13.644531 11.085938 C 13.644531 12.59375 12.421875 13.816406 10.914062 13.816406 C 9.40625 13.816406 8.183594 12.59375 8.183594 11.085938 C 8.183594 9.578125 9.40625 8.355469 10.914062 8.355469 Z M 10.914062 8.355469 "/>
<path style=" stroke:none;fill-rule:nonzero;fill:rgb(25.882354%,25.882354%,25.882354%);fill-opacity:1;" d="M 7.277344 9.257812 L 7.277344 9.578125 L 13.503906 3.351562 C 13.421875 3.324219 13.34375 3.296875 13.261719 3.273438 Z M 7.277344 9.257812 "/>
<path style=" stroke:none;fill-rule:nonzero;fill:rgb(25.882354%,25.882354%,25.882354%);fill-opacity:1;" d="M 7.046875 12.367188 L 7.277344 12.59375 L 7.277344 3.785156 C 7.199219 3.824219 7.125 3.863281 7.046875 3.902344 Z M 7.046875 12.367188 "/>
<path style=" stroke:none;fill-rule:nonzero;fill:rgb(25.882354%,25.882354%,25.882354%);fill-opacity:1;" d="M 9.085938 14.722656 L 9.40625 14.722656 L 3.179688 8.496094 C 3.152344 8.578125 3.125 8.65625 3.101562 8.738281 Z M 9.085938 14.722656 "/>
<path style=" stroke:none;fill-rule:nonzero;fill:rgb(25.882354%,25.882354%,25.882354%);fill-opacity:1;" d="M 12.195312 14.953125 L 12.421875 14.722656 L 3.613281 14.722656 C 3.652344 14.800781 3.691406 14.875 3.730469 14.953125 Z M 12.195312 14.953125 "/>
<path style=" stroke:none;fill-rule:nonzero;fill:rgb(25.882354%,25.882354%,25.882354%);fill-opacity:1;" d="M 14.550781 12.914062 L 14.550781 12.59375 L 8.324219 18.820312 C 8.40625 18.847656 8.484375 18.875 8.566406 18.898438 Z M 14.550781 12.914062 "/>
<path style=" stroke:none;fill-rule:nonzero;fill:rgb(25.882354%,25.882354%,25.882354%);fill-opacity:1;" d="M 14.78125 9.804688 L 14.550781 9.578125 L 14.550781 18.386719 C 14.628906 18.347656 14.703125 18.308594 14.78125 18.269531 Z M 14.78125 9.804688 "/>
<path style=" stroke:none;fill-rule:nonzero;fill:rgb(25.882354%,25.882354%,25.882354%);fill-opacity:1;" d="M 12.742188 7.449219 L 12.421875 7.449219 L 18.648438 13.675781 C 18.675781 13.59375 18.703125 13.515625 18.726562 13.433594 Z M 12.742188 7.449219 "/>
<path style=" stroke:none;fill-rule:nonzero;fill:rgb(61.960787%,61.960787%,61.960787%);fill-opacity:1;" d="M 10.324219 9.132812 C 10.503906 9.3125 10.359375 9.742188 10.003906 10.097656 C 9.648438 10.453125 9.21875 10.597656 9.039062 10.421875 C 8.863281 10.242188 9.007812 9.808594 9.363281 9.457031 C 9.714844 9.101562 10.148438 8.957031 10.324219 9.132812 Z M 10.324219 9.132812 "/>
</g>
</svg>
