
<svg xmlns="http://www.w3.org/2000/svg" xmlns:xlink="http://www.w3.org/1999/xlink" width="22px" height="22px" viewBox="0 0 22 22" version="1.1">
<g id="surface1">
<path style=" stroke:none;fill-rule:nonzero;fill:rgb(25.882354%,64.705884%,96.078432%);fill-opacity:1;" d="M 1.820312 0.910156 L 20.007812 0.910156 C 20.511719 0.910156 20.917969 1.316406 20.917969 1.820312 L 20.917969 20.007812 C 20.917969 20.511719 20.511719 20.917969 20.007812 20.917969 L 1.820312 20.917969 C 1.316406 20.917969 0.910156 20.511719 0.910156 20.007812 L 0.910156 1.820312 C 0.910156 1.316406 1.316406 0.910156 1.820312 0.910156 Z M 1.820312 0.910156 "/>
<path style=" stroke:none;fill-rule:nonzero;fill:rgb(30.980393%,76.47059%,96.862745%);fill-opacity:1;" d="M 20.652344 1.175781 L 1.175781 20.652344 C 1.339844 20.816406 1.566406 20.917969 1.820312 20.917969 L 20.007812 20.917969 C 20.511719 20.917969 20.917969 20.511719 20.917969 20.007812 L 20.917969 1.820312 C 20.917969 1.566406 20.816406 1.339844 20.652344 1.175781 Z M 20.652344 1.175781 "/>
<path style=" stroke:none;fill-rule:nonzero;fill:rgb(93.333334%,93.333334%,93.333334%);fill-opacity:1;" d="M 6.734375 4.992188 L 5.449219 6.277344 L 9.949219 10.78125 L 8.917969 11.8125 L 7.277344 10.003906 L 2.273438 17.28125 L 19.554688 17.28125 L 14.550781 11.824219 L 14.097656 12.355469 L 11.878906 10.136719 L 16.058594 5.957031 L 15.414062 5.3125 L 11.234375 9.496094 Z M 10.59375 11.425781 L 12.910156 13.742188 L 11.824219 15.007812 L 9.53125 12.484375 Z M 10.59375 11.425781 "/>
</g>
</svg>
