
<svg xmlns="http://www.w3.org/2000/svg" xmlns:xlink="http://www.w3.org/1999/xlink" width="22px" height="22px" viewBox="0 0 22 22" version="1.1">
<g id="surface1">
<path style=" stroke:none;fill-rule:nonzero;fill:rgb(25.882354%,64.705884%,96.078432%);fill-opacity:1;" d="M 1.820312 0.910156 L 20.007812 0.910156 C 20.511719 0.910156 20.917969 1.316406 20.917969 1.820312 L 20.917969 20.007812 C 20.917969 20.511719 20.511719 20.917969 20.007812 20.917969 L 1.820312 20.917969 C 1.316406 20.917969 0.910156 20.511719 0.910156 20.007812 L 0.910156 1.820312 C 0.910156 1.316406 1.316406 0.910156 1.820312 0.910156 Z M 1.820312 0.910156 "/>
<path style=" stroke:none;fill-rule:nonzero;fill:rgb(96.078432%,96.078432%,96.078432%);fill-opacity:1;" d="M 16.824219 8.640625 C 15.566406 8.640625 14.550781 9.65625 14.550781 10.914062 C 14.550781 12.171875 15.566406 13.1875 16.824219 13.1875 C 18.085938 13.1875 19.097656 12.171875 19.097656 10.914062 C 19.097656 9.65625 18.085938 8.640625 16.824219 8.640625 Z M 16.824219 10.003906 C 17.328125 10.003906 17.734375 10.410156 17.734375 10.914062 C 17.734375 11.417969 17.328125 11.824219 16.824219 11.824219 C 16.320312 11.824219 15.917969 11.417969 15.917969 10.914062 C 15.917969 10.410156 16.320312 10.003906 16.824219 10.003906 Z M 16.824219 10.003906 "/>
<path style=" stroke:none;fill-rule:nonzero;fill:rgb(96.078432%,96.078432%,96.078432%);fill-opacity:1;" d="M 5.003906 8.640625 C 3.742188 8.640625 2.726562 9.65625 2.726562 10.914062 C 2.726562 12.171875 3.742188 13.1875 5.003906 13.1875 C 6.261719 13.1875 7.277344 12.171875 7.277344 10.914062 C 7.277344 9.65625 6.261719 8.640625 5.003906 8.640625 Z M 5.003906 10.003906 C 5.507812 10.003906 5.910156 10.410156 5.910156 10.914062 C 5.910156 11.417969 5.507812 11.824219 5.003906 11.824219 C 4.5 11.824219 4.09375 11.417969 4.09375 10.914062 C 4.09375 10.410156 4.5 10.003906 5.003906 10.003906 Z M 5.003906 10.003906 "/>
<path style=" stroke:none;fill-rule:nonzero;fill:rgb(96.078432%,96.078432%,96.078432%);fill-opacity:1;" d="M 10.914062 6.820312 C 8.648438 6.820312 6.820312 8.648438 6.820312 10.914062 C 6.820312 13.179688 8.648438 15.007812 10.914062 15.007812 C 13.179688 15.007812 15.007812 13.179688 15.007812 10.914062 C 15.007812 8.648438 13.179688 6.820312 10.914062 6.820312 Z M 10.914062 8.183594 C 12.425781 8.183594 13.640625 9.402344 13.640625 10.914062 C 13.640625 12.425781 12.425781 13.640625 10.914062 13.640625 C 9.402344 13.640625 8.183594 12.425781 8.183594 10.914062 C 8.183594 9.402344 9.402344 8.183594 10.914062 8.183594 Z M 10.914062 8.183594 "/>
</g>
</svg>
