
<svg xmlns="http://www.w3.org/2000/svg" xmlns:xlink="http://www.w3.org/1999/xlink" width="22px" height="22px" viewBox="0 0 22 22" version="1.1">
<g id="surface1">
<path style=" stroke:none;fill-rule:nonzero;fill:rgb(45.882353%,45.882353%,45.882353%);fill-opacity:1;" d="M 3.636719 0.910156 L 18.191406 0.910156 C 18.691406 0.910156 19.101562 1.316406 19.101562 1.820312 L 19.101562 20.007812 C 19.101562 20.511719 18.691406 20.917969 18.191406 20.917969 L 3.636719 20.917969 C 3.136719 20.917969 2.726562 20.511719 2.726562 20.007812 L 2.726562 1.820312 C 2.726562 1.316406 3.136719 0.910156 3.636719 0.910156 Z M 3.636719 0.910156 "/>
<path style=" stroke:none;fill-rule:nonzero;fill:rgb(40.000001%,73.333335%,41.568628%);fill-opacity:1;" d="M 2.726562 7.277344 L 19.101562 7.277344 L 19.101562 14.550781 L 2.726562 14.550781 Z M 2.726562 7.277344 "/>
<path style=" stroke:none;fill-rule:nonzero;fill:rgb(61.960787%,61.960787%,61.960787%);fill-opacity:1;" d="M 2.726562 1.589844 C 2.726562 1.214844 3.035156 0.886719 3.410156 0.910156 L 5.457031 0.910156 L 5.457031 20.917969 L 3.410156 20.917969 C 3.03125 20.917969 2.726562 20.613281 2.726562 20.238281 Z M 2.726562 1.589844 "/>
<path style=" stroke:none;fill-rule:nonzero;fill:rgb(0%,0%,0%);fill-opacity:0.235294;" d="M 4.09375 4.09375 C 4.34375 4.09375 4.546875 4.296875 4.546875 4.546875 C 4.546875 4.796875 4.34375 5.003906 4.09375 5.003906 C 3.839844 5.003906 3.636719 4.796875 3.636719 4.546875 C 3.636719 4.296875 3.839844 4.09375 4.09375 4.09375 Z M 4.09375 4.09375 "/>
<path style=" stroke:none;fill-rule:nonzero;fill:rgb(87.843138%,87.843138%,87.843138%);fill-opacity:1;" d="M 4.09375 3.636719 C 3.589844 3.636719 3.183594 4.042969 3.183594 4.546875 C 3.183594 5.050781 3.589844 5.457031 4.09375 5.457031 C 4.597656 5.457031 5.003906 5.050781 5.003906 4.546875 C 5.003906 4.042969 4.597656 3.636719 4.09375 3.636719 Z M 4.09375 4.09375 C 4.34375 4.09375 4.546875 4.296875 4.546875 4.546875 C 4.546875 4.800781 4.34375 5.003906 4.09375 5.003906 C 3.839844 5.003906 3.636719 4.800781 3.636719 4.546875 C 3.636719 4.296875 3.839844 4.09375 4.09375 4.09375 Z M 4.09375 4.09375 "/>
<path style=" stroke:none;fill-rule:nonzero;fill:rgb(0%,0%,0%);fill-opacity:0.235294;" d="M 4.09375 16.824219 C 4.34375 16.824219 4.546875 17.03125 4.546875 17.28125 C 4.546875 17.53125 4.34375 17.734375 4.09375 17.734375 C 3.839844 17.734375 3.636719 17.53125 3.636719 17.28125 C 3.636719 17.03125 3.839844 16.824219 4.09375 16.824219 Z M 4.09375 16.824219 "/>
<path style=" stroke:none;fill-rule:nonzero;fill:rgb(87.843138%,87.843138%,87.843138%);fill-opacity:1;" d="M 4.09375 16.371094 C 3.589844 16.371094 3.183594 16.777344 3.183594 17.28125 C 3.183594 17.785156 3.589844 18.191406 4.09375 18.191406 C 4.597656 18.191406 5.003906 17.785156 5.003906 17.28125 C 5.003906 16.777344 4.597656 16.371094 4.09375 16.371094 Z M 4.09375 16.824219 C 4.34375 16.824219 4.546875 17.027344 4.546875 17.28125 C 4.546875 17.53125 4.34375 17.734375 4.09375 17.734375 C 3.839844 17.734375 3.636719 17.53125 3.636719 17.28125 C 3.636719 17.027344 3.839844 16.824219 4.09375 16.824219 Z M 4.09375 16.824219 "/>
<path style=" stroke:none;fill-rule:nonzero;fill:rgb(96.078432%,96.078432%,96.078432%);fill-opacity:1;" d="M 7.730469 8.640625 C 7.226562 8.640625 6.820312 9.046875 6.820312 9.550781 L 6.820312 12.277344 L 7.277344 12.277344 L 7.277344 9.550781 C 7.277344 9.296875 7.480469 9.09375 7.730469 9.09375 L 9.09375 9.09375 C 9.347656 9.09375 9.550781 9.296875 9.550781 9.550781 L 9.550781 12.277344 L 10.003906 12.277344 L 10.003906 9.550781 C 10.003906 9.046875 9.597656 8.640625 9.09375 8.640625 Z M 7.730469 8.640625 "/>
<path style=" stroke:none;fill-rule:nonzero;fill:rgb(96.078432%,96.078432%,96.078432%);fill-opacity:1;" d="M 11.367188 8.640625 C 10.863281 8.640625 10.460938 9.046875 10.460938 9.550781 L 10.460938 11.367188 C 10.460938 11.871094 10.863281 12.277344 11.367188 12.277344 L 12.734375 12.277344 C 13.238281 12.277344 13.640625 11.871094 13.640625 11.367188 L 13.640625 9.550781 C 13.640625 9.046875 13.238281 8.640625 12.734375 8.640625 Z M 11.367188 9.09375 L 12.734375 9.09375 C 12.984375 9.09375 13.1875 9.296875 13.1875 9.550781 L 13.1875 11.367188 C 13.1875 11.621094 12.984375 11.824219 12.734375 11.824219 L 11.367188 11.824219 C 11.117188 11.824219 10.914062 11.621094 10.914062 11.367188 L 10.914062 9.550781 C 10.914062 9.296875 11.117188 9.09375 11.367188 9.09375 Z M 11.367188 9.09375 "/>
<path style=" stroke:none;fill-rule:nonzero;fill:rgb(96.078432%,96.078432%,96.078432%);fill-opacity:1;" d="M 13.414062 10.460938 C 13.539062 10.460938 13.640625 10.5625 13.640625 10.6875 L 13.640625 13.871094 C 13.640625 13.996094 13.539062 14.097656 13.414062 14.097656 C 13.289062 14.097656 13.1875 13.996094 13.1875 13.871094 L 13.1875 10.6875 C 13.1875 10.5625 13.289062 10.460938 13.414062 10.460938 Z M 13.414062 10.460938 "/>
<path style=" stroke:none;fill-rule:nonzero;fill:rgb(96.078432%,96.078432%,96.078432%);fill-opacity:1;" d="M 15.007812 8.640625 C 14.503906 8.640625 14.097656 9.046875 14.097656 9.550781 L 14.097656 11.367188 C 14.097656 11.871094 14.503906 12.277344 15.007812 12.277344 L 16.371094 12.277344 C 16.875 12.277344 17.28125 11.871094 17.28125 11.367188 L 17.28125 9.550781 C 17.28125 9.046875 16.875 8.640625 16.371094 8.640625 Z M 15.007812 9.09375 L 16.371094 9.09375 C 16.621094 9.09375 16.824219 9.296875 16.824219 9.550781 L 16.824219 11.367188 C 16.824219 11.621094 16.621094 11.824219 16.371094 11.824219 L 15.007812 11.824219 C 14.753906 11.824219 14.550781 11.621094 14.550781 11.367188 L 14.550781 9.550781 C 14.550781 9.296875 14.753906 9.09375 15.007812 9.09375 Z M 15.007812 9.09375 "/>
<path style=" stroke:none;fill-rule:nonzero;fill:rgb(96.078432%,96.078432%,96.078432%);fill-opacity:1;" d="M 17.054688 10.460938 C 17.179688 10.460938 17.28125 10.5625 17.28125 10.6875 L 17.28125 13.871094 C 17.28125 13.996094 17.179688 14.097656 17.054688 14.097656 C 16.925781 14.097656 16.824219 13.996094 16.824219 13.871094 L 16.824219 10.6875 C 16.824219 10.5625 16.925781 10.460938 17.054688 10.460938 Z M 17.054688 10.460938 "/>
</g>
</svg>
