
<svg xmlns="http://www.w3.org/2000/svg" xmlns:xlink="http://www.w3.org/1999/xlink" width="22px" height="22px" viewBox="0 0 22 22" version="1.1">
<g id="surface1">
<path style=" stroke:none;fill-rule:nonzero;fill:rgb(61.960787%,61.960787%,61.960787%);fill-opacity:1;" d="M 4.09375 0.910156 L 17.734375 0.910156 C 18.238281 0.910156 18.644531 1.316406 18.644531 1.820312 L 18.644531 20.007812 C 18.644531 20.511719 18.238281 20.917969 17.734375 20.917969 L 4.09375 20.917969 C 3.589844 20.917969 3.183594 20.511719 3.183594 20.007812 L 3.183594 1.820312 C 3.183594 1.316406 3.589844 0.910156 4.09375 0.910156 Z M 4.09375 0.910156 "/>
<path style=" stroke:none;fill-rule:nonzero;fill:rgb(74.117649%,74.117649%,74.117649%);fill-opacity:1;" d="M 4.09375 0.910156 L 17.734375 0.910156 C 18.238281 0.910156 18.644531 1.316406 18.644531 1.820312 L 18.644531 19.101562 C 18.644531 19.601562 18.238281 20.007812 17.734375 20.007812 L 4.09375 20.007812 C 3.589844 20.007812 3.183594 19.601562 3.183594 19.101562 L 3.183594 1.820312 C 3.183594 1.316406 3.589844 0.910156 4.09375 0.910156 Z M 4.09375 0.910156 "/>
<path style=" stroke:none;fill-rule:nonzero;fill:rgb(87.843138%,87.843138%,87.843138%);fill-opacity:1;" d="M 10.914062 1.820312 C 14.429688 1.820312 17.28125 4.671875 17.28125 8.1875 C 17.28125 11.703125 14.429688 14.554688 10.914062 14.554688 C 7.398438 14.554688 4.546875 11.703125 4.546875 8.1875 C 4.546875 4.671875 7.398438 1.820312 10.914062 1.820312 Z M 10.914062 1.820312 "/>
<path style=" stroke:none;fill-rule:nonzero;fill:rgb(38.039216%,38.039216%,38.039216%);fill-opacity:1;" d="M 10.914062 2.730469 C 13.929688 2.730469 16.371094 5.171875 16.371094 8.1875 C 16.371094 11.199219 13.929688 13.644531 10.914062 13.644531 C 7.898438 13.644531 5.457031 11.199219 5.457031 8.1875 C 5.457031 5.171875 7.898438 2.730469 10.914062 2.730469 Z M 10.914062 2.730469 "/>
<path style=" stroke:none;fill-rule:nonzero;fill:rgb(93.333334%,93.333334%,93.333334%);fill-opacity:1;" d="M 9.425781 10.574219 C 9.359375 10.503906 9.257812 10.484375 9.167969 10.523438 L 6.351562 11.804688 C 5.890625 11.808594 5.433594 11.988281 5.082031 12.339844 C 4.371094 13.050781 4.371094 14.199219 5.082031 14.914062 C 5.796875 15.625 6.941406 15.625 7.65625 14.914062 C 8.007812 14.5625 8.183594 14.101562 8.1875 13.644531 L 9.46875 10.828125 C 9.507812 10.742188 9.492188 10.640625 9.425781 10.574219 Z M 9.425781 10.574219 "/>
<path style=" stroke:none;fill-rule:nonzero;fill:rgb(45.882353%,45.882353%,45.882353%);fill-opacity:1;" d="M 5.457031 17.28125 C 5.960938 17.28125 6.367188 17.6875 6.367188 18.191406 C 6.367188 18.691406 5.960938 19.101562 5.457031 19.101562 C 4.953125 19.101562 4.546875 18.691406 4.546875 18.191406 C 4.546875 17.6875 4.953125 17.28125 5.457031 17.28125 Z M 5.457031 17.28125 "/>
<path style=" stroke:none;fill-rule:nonzero;fill:rgb(45.882353%,45.882353%,45.882353%);fill-opacity:1;" d="M 16.371094 17.28125 C 16.875 17.28125 17.28125 17.6875 17.28125 18.191406 C 17.28125 18.691406 16.875 19.101562 16.371094 19.101562 C 15.867188 19.101562 15.460938 18.691406 15.460938 18.191406 C 15.460938 17.6875 15.867188 17.28125 16.371094 17.28125 Z M 16.371094 17.28125 "/>
<path style=" stroke:none;fill-rule:nonzero;fill:rgb(45.882353%,45.882353%,45.882353%);fill-opacity:1;" d="M 8.1875 16.371094 L 13.640625 16.371094 C 13.894531 16.371094 14.097656 16.574219 14.097656 16.824219 C 14.097656 17.078125 13.894531 17.28125 13.640625 17.28125 L 8.1875 17.28125 C 7.933594 17.28125 7.730469 17.078125 7.730469 16.824219 C 7.730469 16.574219 7.933594 16.371094 8.1875 16.371094 Z M 8.1875 16.371094 "/>
<path style=" stroke:none;fill-rule:nonzero;fill:rgb(74.117649%,74.117649%,74.117649%);fill-opacity:1;" d="M 5.457031 17.734375 C 5.707031 17.734375 5.910156 17.9375 5.910156 18.191406 C 5.910156 18.441406 5.707031 18.644531 5.457031 18.644531 C 5.207031 18.644531 5.003906 18.441406 5.003906 18.191406 C 5.003906 17.9375 5.207031 17.734375 5.457031 17.734375 Z M 5.457031 17.734375 "/>
<path style=" stroke:none;fill-rule:nonzero;fill:rgb(74.117649%,74.117649%,74.117649%);fill-opacity:1;" d="M 16.371094 17.734375 C 16.621094 17.734375 16.824219 17.9375 16.824219 18.191406 C 16.824219 18.441406 16.621094 18.644531 16.371094 18.644531 C 16.121094 18.644531 15.917969 18.441406 15.917969 18.191406 C 15.917969 17.9375 16.121094 17.734375 16.371094 17.734375 Z M 16.371094 17.734375 "/>
<path style=" stroke:none;fill-rule:nonzero;fill:rgb(61.960787%,61.960787%,61.960787%);fill-opacity:1;" d="M 8.140625 5.710938 C 7.796875 6.097656 7.542969 6.542969 7.386719 7.019531 L 8.214844 7.847656 L 8.214844 8.523438 L 7.386719 9.351562 C 7.464844 9.585938 7.570312 9.816406 7.699219 10.042969 C 7.828125 10.265625 7.976562 10.472656 8.140625 10.65625 L 9.269531 10.355469 L 9.855469 10.691406 L 10.160156 11.824219 C 10.652344 11.925781 11.164062 11.929688 11.667969 11.824219 L 11.972656 10.691406 L 12.558594 10.355469 L 13.6875 10.660156 C 14.03125 10.273438 14.285156 9.828125 14.441406 9.351562 L 13.613281 8.523438 L 13.613281 7.847656 L 14.441406 7.019531 C 14.363281 6.785156 14.257812 6.554688 14.128906 6.328125 C 14 6.105469 13.851562 5.898438 13.6875 5.714844 L 12.558594 6.015625 L 11.972656 5.679688 L 11.667969 4.546875 C 11.175781 4.445312 10.664062 4.441406 10.160156 4.546875 L 9.855469 5.679688 L 9.269531 6.015625 Z M 8.140625 5.710938 "/>
<path style=" stroke:none;fill-rule:nonzero;fill:rgb(38.039216%,38.039216%,38.039216%);fill-opacity:1;" d="M 10.914062 6.820312 C 11.667969 6.820312 12.277344 7.433594 12.277344 8.183594 C 12.277344 8.9375 11.667969 9.550781 10.914062 9.550781 C 10.160156 9.550781 9.550781 8.9375 9.550781 8.183594 C 9.550781 7.433594 10.160156 6.820312 10.914062 6.820312 Z M 10.914062 6.820312 "/>
</g>
</svg>
