<?xml version="1.0" encoding="UTF-8"?>
<svg xmlns="http://www.w3.org/2000/svg" xmlns:xlink="http://www.w3.org/1999/xlink" width="22px" height="22px" viewBox="0 0 22 22" version="1.1">
<g id="surface1">
<path style=" stroke:none;fill-rule:nonzero;fill:rgb(25.882354%,25.882354%,25.882354%);fill-opacity:1;" d="M 10.914062 1.082031 C 16.4375 1.082031 20.917969 5.5625 20.917969 11.085938 C 20.917969 16.609375 16.4375 21.089844 10.914062 21.089844 C 5.390625 21.089844 0.910156 16.609375 0.910156 11.085938 C 0.910156 5.5625 5.390625 1.082031 10.914062 1.082031 Z M 10.914062 1.082031 "/>
<path style=" stroke:none;fill-rule:nonzero;fill:rgb(87.843138%,87.843138%,87.843138%);fill-opacity:1;" d="M 6.859375 4.578125 L 6.859375 13.164062 L 6.742188 13.164062 C 6.527344 13.164062 6.355469 13.390625 6.355469 13.671875 L 6.355469 17.207031 C 6.355469 17.484375 6.527344 17.710938 6.742188 17.710938 L 7.988281 17.710938 C 8.203125 17.710938 8.375 17.484375 8.375 17.207031 L 8.375 13.671875 C 8.375 13.390625 8.203125 13.164062 7.988281 13.164062 L 7.871094 13.164062 L 7.871094 12.152344 C 7.871094 12.152344 8.375 12.152344 8.632812 11.179688 C 9.578125 7.625 6.859375 4.578125 6.859375 4.578125 Z M 12.921875 4.578125 C 12.75 4.578125 12.578125 4.597656 12.417969 4.628906 L 12.417969 7.609375 C 12.417969 7.886719 12.246094 8.113281 12.03125 8.113281 L 11.792969 8.113281 C 11.578125 8.113281 11.40625 7.886719 11.40625 7.609375 L 11.40625 5.082031 C 10.792969 5.539062 10.398438 6.273438 10.398438 7.101562 L 10.398438 8.621094 C 10.398438 9.84375 11.261719 10.863281 12.417969 11.09375 C 12.417969 11.113281 12.417969 11.128906 12.417969 11.144531 L 12.417969 13.164062 L 12.300781 13.164062 C 12.085938 13.164062 11.910156 13.390625 11.910156 13.671875 L 11.910156 17.207031 C 11.910156 17.484375 12.085938 17.710938 12.300781 17.710938 L 13.546875 17.710938 C 13.757812 17.710938 13.933594 17.484375 13.933594 17.207031 L 13.933594 13.671875 C 13.933594 13.390625 13.757812 13.164062 13.546875 13.164062 L 13.425781 13.164062 L 13.425781 11.144531 C 13.425781 11.128906 13.425781 11.113281 13.425781 11.09375 C 14.582031 10.863281 15.449219 9.84375 15.449219 8.621094 L 15.449219 7.101562 C 15.449219 6.273438 15.050781 5.539062 14.4375 5.082031 L 14.4375 7.609375 C 14.4375 7.886719 14.265625 8.113281 14.050781 8.113281 L 13.816406 8.113281 C 13.601562 8.113281 13.425781 7.886719 13.425781 7.609375 L 13.425781 4.628906 C 13.265625 4.597656 13.097656 4.578125 12.921875 4.578125 Z M 12.921875 4.578125 "/>
</g>
</svg>
