<?xml version="1.0" encoding="UTF-8"?>
<svg xmlns="http://www.w3.org/2000/svg" xmlns:xlink="http://www.w3.org/1999/xlink" width="22px" height="22px" viewBox="0 0 22 22" version="1.1">
<g id="surface1">
<path style=" stroke:none;fill-rule:nonzero;fill:rgb(25.882354%,25.882354%,25.882354%);fill-opacity:1;" d="M 10.914062 1.082031 C 16.4375 1.082031 20.917969 5.5625 20.917969 11.085938 C 20.917969 16.609375 16.4375 21.089844 10.914062 21.089844 C 5.390625 21.089844 0.910156 16.609375 0.910156 11.085938 C 0.910156 5.5625 5.390625 1.082031 10.914062 1.082031 Z M 10.914062 1.082031 "/>
<path style=" stroke:none;fill-rule:nonzero;fill:rgb(100%,43.921569%,26.274511%);fill-opacity:1;" d="M 9.339844 5.175781 C 9.117188 5.175781 8.914062 5.292969 8.800781 5.484375 L 4.132812 13.574219 C 4.007812 13.789062 4.023438 14.058594 4.175781 14.257812 L 6.042969 16.746094 C 6.3125 17.105469 6.859375 17.070312 7.078125 16.679688 L 12.992188 6.097656 C 13.222656 5.683594 12.925781 5.175781 12.449219 5.175781 Z M 9.339844 5.175781 "/>
<path style=" stroke:none;fill-rule:nonzero;fill:rgb(45.882353%,45.882353%,45.882353%);fill-opacity:1;" d="M 9.144531 12.953125 L 7.078125 16.679688 C 6.972656 16.871094 6.785156 16.976562 6.589844 16.992188 L 6.617188 16.992188 L 15.253906 16.996094 L 15.253906 12.953125 Z M 9.144531 12.953125 "/>
<path style=" stroke:none;fill-rule:nonzero;fill:rgb(100%,65.490198%,14.901961%);fill-opacity:1;" d="M 12.449219 5.175781 C 12.671875 5.175781 12.878906 5.292969 12.988281 5.484375 L 17.65625 13.574219 C 17.78125 13.789062 17.765625 14.058594 17.613281 14.257812 L 15.746094 16.746094 C 15.480469 17.105469 14.929688 17.070312 14.710938 16.679688 L 8.796875 6.097656 C 8.566406 5.683594 8.863281 5.175781 9.339844 5.175781 Z M 12.449219 5.175781 "/>
<path style=" stroke:none;fill-rule:nonzero;fill:rgb(45.882353%,45.882353%,45.882353%);fill-opacity:1;" d="M 17.300781 12.945312 L 15.253906 12.949219 L 15.253906 12.953125 L 9.648438 12.953125 L 9.648438 16.996094 L 15.253906 16.996094 C 15.4375 16.996094 15.621094 16.914062 15.746094 16.746094 L 17.613281 14.257812 C 17.765625 14.058594 17.78125 13.789062 17.65625 13.574219 Z M 17.300781 12.945312 "/>
</g>
</svg>
