<?xml version="1.0" encoding="UTF-8"?>
<svg xmlns="http://www.w3.org/2000/svg" xmlns:xlink="http://www.w3.org/1999/xlink" width="22px" height="22px" viewBox="0 0 22 22" version="1.1">
<g id="surface1">
<path style=" stroke:none;fill-rule:nonzero;fill:rgb(98.431373%,54.901963%,0%);fill-opacity:1;" d="M 10.914062 1.082031 C 10.410156 1.082031 10.003906 2.703125 10.003906 4.71875 L 10.003906 8.890625 L 7.054688 5.941406 C 5.628906 4.515625 4.195312 3.65625 3.839844 4.011719 C 3.484375 4.367188 4.34375 5.800781 5.769531 7.226562 L 8.71875 10.175781 L 4.546875 10.175781 C 2.53125 10.175781 0.910156 10.582031 0.910156 11.085938 C 0.910156 11.589844 2.53125 11.996094 4.546875 11.996094 L 8.71875 11.996094 L 6.898438 13.8125 L 9.472656 13.8125 L 10.003906 13.28125 L 10.003906 13.8125 L 11.824219 13.8125 L 11.824219 13.28125 L 12.355469 13.8125 L 14.929688 13.8125 L 13.109375 11.996094 L 17.28125 11.996094 C 19.296875 11.996094 20.917969 11.589844 20.917969 11.085938 C 20.917969 10.582031 19.296875 10.175781 17.28125 10.175781 L 13.109375 10.175781 L 16.058594 7.226562 C 17.484375 5.800781 18.34375 4.367188 17.988281 4.011719 C 17.632812 3.65625 16.199219 4.515625 14.773438 5.941406 L 11.824219 8.890625 L 11.824219 4.71875 C 11.824219 2.703125 11.417969 1.082031 10.914062 1.082031 Z M 10.914062 1.082031 "/>
<path style=" stroke:none;fill-rule:nonzero;fill:rgb(100%,65.490198%,14.901961%);fill-opacity:1;" d="M 10.914062 3.808594 C 14.933594 3.808594 18.191406 7.066406 18.191406 11.085938 C 18.191406 15.105469 14.933594 18.363281 10.914062 18.363281 C 6.894531 18.363281 3.636719 15.105469 3.636719 11.085938 C 3.636719 7.066406 6.894531 3.808594 10.914062 3.808594 Z M 10.914062 3.808594 "/>
<path style=" stroke:none;fill-rule:nonzero;fill:rgb(56.470591%,64.313728%,68.235296%);fill-opacity:1;" d="M 7.730469 8.359375 C 9.867188 8.359375 11.597656 10.089844 11.597656 12.222656 C 11.597656 14.359375 9.867188 16.089844 7.730469 16.089844 C 5.597656 16.089844 3.867188 14.359375 3.867188 12.222656 C 3.867188 10.089844 5.597656 8.359375 7.730469 8.359375 Z M 7.730469 8.359375 "/>
<path style=" stroke:none;fill-rule:nonzero;fill:rgb(56.470591%,64.313728%,68.235296%);fill-opacity:1;" d="M 14.097656 6.539062 C 16.734375 6.539062 18.871094 8.675781 18.871094 11.3125 C 18.871094 13.949219 16.734375 16.089844 14.097656 16.089844 C 11.460938 16.089844 9.324219 13.949219 9.324219 11.3125 C 9.324219 8.675781 11.460938 6.539062 14.097656 6.539062 Z M 14.097656 6.539062 "/>
<path style=" stroke:none;fill-rule:nonzero;fill:rgb(69.01961%,74.509805%,77.254903%);fill-opacity:1;" d="M 10.914062 9.265625 C 13.550781 9.265625 15.6875 11.40625 15.6875 14.042969 C 15.6875 16.679688 13.550781 18.816406 10.914062 18.816406 C 8.277344 18.816406 6.140625 16.679688 6.140625 14.042969 C 6.140625 11.40625 8.277344 9.265625 10.914062 9.265625 Z M 10.914062 9.265625 "/>
<path style=" stroke:none;fill-rule:nonzero;fill:rgb(69.01961%,74.509805%,77.254903%);fill-opacity:1;" d="M 15.917969 9.722656 C 13.707031 9.722656 11.878906 11.277344 11.460938 13.359375 L 8.15625 13.359375 C 7.527344 12.269531 6.355469 11.539062 5.003906 11.539062 C 2.988281 11.539062 1.363281 13.164062 1.363281 15.179688 C 1.363281 17.039062 2.75 18.566406 4.546875 18.789062 L 4.546875 18.816406 L 16.371094 18.816406 L 16.371094 18.792969 C 18.675781 18.566406 20.464844 16.636719 20.464844 14.269531 C 20.464844 11.75 18.4375 9.722656 15.917969 9.722656 Z M 15.917969 9.722656 "/>
</g>
</svg>
