<?xml version="1.0" encoding="UTF-8"?>
<svg xmlns="http://www.w3.org/2000/svg" xmlns:xlink="http://www.w3.org/1999/xlink" width="22px" height="22px" viewBox="0 0 22 22" version="1.1">
<g id="surface1">
<path style=" stroke:none;fill-rule:nonzero;fill:rgb(14.901961%,77.64706%,85.490197%);fill-opacity:1;" d="M 10.914062 1.082031 C 8.25 1.082031 5.835938 2.113281 4.046875 3.796875 L 6.199219 5.949219 C 6.347656 5.867188 6.519531 5.820312 6.703125 5.820312 L 15.125 5.820312 C 15.308594 5.820312 15.480469 5.867188 15.628906 5.949219 L 17.78125 3.796875 C 15.992188 2.113281 13.578125 1.082031 10.914062 1.082031 Z M 10.914062 1.082031 "/>
<path style=" stroke:none;fill-rule:nonzero;fill:rgb(92.54902%,25.098041%,47.843137%);fill-opacity:1;" d="M 3.625 4.21875 C 1.941406 6.007812 0.910156 8.421875 0.910156 11.085938 C 0.910156 13.75 1.941406 16.164062 3.625 17.953125 L 5.777344 15.800781 C 5.695312 15.652344 5.648438 15.480469 5.648438 15.300781 L 5.648438 6.871094 C 5.648438 6.691406 5.695312 6.519531 5.777344 6.367188 Z M 3.625 4.21875 "/>
<path style=" stroke:none;fill-rule:nonzero;fill:rgb(100%,43.921569%,26.274511%);fill-opacity:1;" d="M 18.203125 4.21875 L 16.054688 6.367188 C 16.132812 6.519531 16.179688 6.691406 16.179688 6.871094 L 16.179688 15.300781 C 16.179688 15.480469 16.132812 15.652344 16.054688 15.804688 L 18.203125 17.953125 C 19.886719 16.164062 20.917969 13.75 20.917969 11.085938 C 20.917969 8.421875 19.886719 6.007812 18.203125 4.21875 Z M 18.203125 4.21875 "/>
<path style=" stroke:none;fill-rule:nonzero;fill:rgb(100%,65.490198%,14.901961%);fill-opacity:1;" d="M 15.628906 16.222656 C 15.480469 16.304688 15.308594 16.351562 15.125 16.351562 L 9.089844 16.351562 L 6.367188 18.683594 C 6.175781 18.851562 5.878906 18.714844 5.875 18.457031 L 5.875 16.546875 L 4.046875 18.375 C 5.835938 20.0625 8.25 21.089844 10.914062 21.089844 C 13.578125 21.089844 15.992188 20.0625 17.78125 18.375 Z M 15.628906 16.222656 "/>
</g>
</svg>
