
<svg xmlns="http://www.w3.org/2000/svg" xmlns:xlink="http://www.w3.org/1999/xlink" width="22px" height="22px" viewBox="0 0 22 22" version="1.1">
<g id="surface1">
<path style=" stroke:none;fill-rule:nonzero;fill:rgb(40.000001%,73.333335%,41.568628%);fill-opacity:1;" d="M 8.414062 0.910156 C 7.152344 0.910156 6.140625 1.621094 6.140625 2.5 C 6.140625 3.410156 8.414062 4.320312 6.140625 5.910156 L 2.273438 5.910156 C 1.519531 5.910156 0.910156 6.519531 0.910156 7.277344 L 0.910156 11.140625 C 2.5 13.414062 3.410156 11.140625 4.320312 11.140625 C 5.203125 11.140625 5.910156 12.15625 5.910156 13.414062 C 5.910156 14.675781 5.203125 15.6875 4.320312 15.6875 C 3.410156 15.6875 2.5 13.414062 0.910156 15.6875 L 0.910156 19.554688 C 0.910156 20.308594 1.519531 20.917969 2.273438 20.917969 L 6.140625 20.917969 C 8.414062 19.328125 6.140625 18.417969 6.140625 17.507812 C 6.140625 16.625 7.152344 15.917969 8.414062 15.917969 C 9.671875 15.917969 10.6875 16.625 10.6875 17.507812 C 10.6875 18.417969 8.414062 19.328125 10.6875 20.917969 L 14.550781 20.917969 C 15.308594 20.917969 15.917969 20.308594 15.917969 19.554688 L 15.917969 15.6875 C 17.507812 13.414062 18.417969 15.6875 19.328125 15.6875 C 20.207031 15.6875 20.917969 14.675781 20.917969 13.414062 C 20.917969 12.15625 20.207031 11.140625 19.328125 11.140625 C 18.417969 11.140625 17.507812 13.414062 15.917969 11.140625 L 15.917969 7.277344 C 15.917969 6.519531 15.308594 5.910156 14.550781 5.910156 L 10.6875 5.910156 C 8.414062 4.320312 10.6875 3.410156 10.6875 2.5 C 10.6875 1.621094 9.671875 0.910156 8.414062 0.910156 Z M 8.414062 0.910156 "/>
</g>
</svg>
