
<svg xmlns="http://www.w3.org/2000/svg" xmlns:xlink="http://www.w3.org/1999/xlink" width="22px" height="22px" viewBox="0 0 22 22" version="1.1">
<g id="surface1">
<path style=" stroke:none;fill-rule:nonzero;fill:rgb(45.882353%,45.882353%,45.882353%);fill-opacity:1;" d="M 3.183594 2.273438 L 20.007812 2.273438 C 20.511719 2.273438 20.917969 2.679688 20.917969 3.183594 L 20.917969 8.640625 C 20.917969 9.144531 20.511719 9.550781 20.007812 9.550781 L 3.183594 9.550781 C 2.679688 9.550781 2.273438 9.144531 2.273438 8.640625 L 2.273438 3.183594 C 2.273438 2.679688 2.679688 2.273438 3.183594 2.273438 Z M 3.183594 2.273438 "/>
<path style=" stroke:none;fill-rule:nonzero;fill:rgb(96.078432%,96.078432%,96.078432%);fill-opacity:1;" d="M 10.914062 5.003906 L 20.007812 5.003906 C 20.261719 5.003906 20.464844 5.207031 20.464844 5.457031 L 20.464844 8.640625 C 20.464844 8.890625 20.261719 9.09375 20.007812 9.09375 L 10.914062 9.09375 C 10.664062 9.09375 10.460938 8.890625 10.460938 8.640625 L 10.460938 5.457031 C 10.460938 5.207031 10.664062 5.003906 10.914062 5.003906 Z M 10.914062 5.003906 "/>
<path style=" stroke:none;fill-rule:nonzero;fill:rgb(61.960787%,61.960787%,61.960787%);fill-opacity:1;" d="M 1.820312 4.09375 C 1.316406 4.09375 0.910156 4.5 0.910156 5.003906 L 0.910156 18.644531 C 0.910156 19.148438 1.316406 19.554688 1.820312 19.554688 L 20.007812 19.554688 C 20.511719 19.554688 20.917969 19.148438 20.917969 18.644531 L 20.917969 7.730469 C 20.917969 7.226562 20.511719 6.820312 20.007812 6.820312 L 14.097656 6.820312 C 13.59375 6.820312 13.1875 6.414062 13.1875 5.910156 L 13.1875 5.003906 C 13.1875 4.5 12.78125 4.09375 12.277344 4.09375 Z M 1.820312 4.09375 "/>
</g>
</svg>
