<?xml version="1.0" encoding="UTF-8"?>
<svg xmlns="http://www.w3.org/2000/svg" xmlns:xlink="http://www.w3.org/1999/xlink" width="22px" height="22px" viewBox="0 0 22 22" version="1.1">
<g id="surface1">
<path style=" stroke:none;fill-rule:nonzero;fill:rgb(87.843138%,87.843138%,87.843138%);fill-opacity:1;" d="M 11.65625 1.367188 L 20.632812 10.34375 C 21.042969 10.753906 21.042969 11.417969 20.632812 11.828125 L 11.65625 20.804688 C 11.246094 21.214844 10.582031 21.214844 10.171875 20.804688 L 1.195312 11.828125 C 0.785156 11.417969 0.785156 10.753906 1.195312 10.34375 L 10.171875 1.367188 C 10.582031 0.957031 11.246094 0.957031 11.65625 1.367188 Z M 11.65625 1.367188 "/>
<path style=" stroke:none;fill-rule:nonzero;fill:rgb(36.078432%,41.960785%,75.294119%);fill-opacity:1;" d="M 8.304688 16.304688 L 8.675781 15.933594 C 8.882812 15.726562 9.21875 15.726562 9.421875 15.933594 L 11.660156 18.171875 C 11.867188 18.378906 11.867188 18.710938 11.660156 18.917969 L 11.285156 19.289062 C 11.082031 19.496094 10.75 19.496094 10.539062 19.289062 L 8.304688 17.050781 C 8.097656 16.847656 8.097656 16.511719 8.304688 16.304688 Z M 8.304688 16.304688 "/>
<path style=" stroke:none;fill-rule:nonzero;fill:rgb(36.078432%,41.960785%,75.294119%);fill-opacity:1;" d="M 15.015625 9.59375 L 16.136719 8.476562 C 16.339844 8.269531 16.671875 8.269531 16.878906 8.476562 L 19.117188 10.714844 C 19.324219 10.917969 19.324219 11.253906 19.117188 11.460938 L 18 12.578125 C 17.792969 12.785156 17.457031 12.785156 17.253906 12.578125 L 15.015625 10.339844 C 14.808594 10.136719 14.808594 9.800781 15.015625 9.59375 Z M 15.015625 9.59375 "/>
<path style=" stroke:none;fill-rule:nonzero;fill:rgb(58.431375%,45.882353%,80.392158%);fill-opacity:1;" d="M 8.304688 12.578125 C 8.097656 12.785156 8.097656 13.117188 8.304688 13.324219 L 8.675781 13.695312 C 8.882812 13.902344 9.214844 13.902344 9.421875 13.695312 L 12.03125 11.085938 L 12.777344 11.832031 L 10.167969 14.441406 C 9.960938 14.648438 9.960938 14.980469 10.167969 15.1875 L 12.40625 17.425781 C 12.613281 17.632812 12.945312 17.632812 13.152344 17.425781 L 16.507812 14.070312 C 16.714844 13.863281 16.714844 13.53125 16.507812 13.324219 L 16.136719 12.953125 C 15.929688 12.746094 15.59375 12.746094 15.390625 12.953125 L 12.777344 15.5625 L 12.03125 14.816406 L 14.269531 12.578125 L 14.644531 12.207031 C 14.792969 12.054688 14.832031 11.84375 14.769531 11.65625 C 14.761719 11.640625 14.757812 11.625 14.75 11.609375 C 14.722656 11.554688 14.6875 11.503906 14.644531 11.460938 L 12.40625 9.222656 C 12.199219 9.015625 11.867188 9.015625 11.660156 9.222656 L 11.285156 9.59375 Z M 8.304688 12.578125 "/>
<path style=" stroke:none;fill-rule:nonzero;fill:rgb(25.882354%,64.705884%,96.078432%);fill-opacity:1;" d="M 2.710938 10.714844 C 2.503906 10.917969 2.503906 11.253906 2.710938 11.460938 L 3.082031 11.832031 C 3.289062 12.039062 3.625 12.039062 3.828125 11.832031 L 6.441406 9.222656 L 7.1875 9.96875 L 4.949219 12.207031 L 4.574219 12.578125 C 4.371094 12.785156 4.371094 13.117188 4.574219 13.324219 L 6.8125 15.5625 C 7.019531 15.769531 7.351562 15.769531 7.558594 15.5625 L 7.933594 15.1875 C 8.136719 14.980469 8.136719 14.648438 7.933594 14.441406 L 6.441406 12.953125 L 9.050781 10.339844 C 9.257812 10.132812 9.257812 9.800781 9.050781 9.59375 L 6.8125 7.359375 C 6.605469 7.152344 6.273438 7.152344 6.066406 7.359375 Z M 2.710938 10.714844 "/>
<path style=" stroke:none;fill-rule:nonzero;fill:rgb(14.901961%,77.64706%,85.490197%);fill-opacity:1;" d="M 7.1875 6.238281 C 6.980469 6.445312 6.980469 6.777344 7.1875 6.984375 L 9.421875 9.222656 C 9.46875 9.269531 9.519531 9.300781 9.574219 9.328125 C 9.589844 9.335938 9.605469 9.339844 9.621094 9.347656 C 9.765625 9.398438 9.929688 9.382812 10.0625 9.304688 C 10.070312 9.300781 10.078125 9.292969 10.085938 9.289062 C 10.113281 9.269531 10.140625 9.25 10.167969 9.222656 L 10.539062 8.847656 L 12.777344 6.613281 L 13.523438 7.359375 L 13.152344 7.730469 C 12.945312 7.9375 12.945312 8.269531 13.152344 8.476562 L 13.523438 8.847656 C 13.730469 9.058594 14.0625 9.058594 14.269531 8.847656 L 15.015625 8.105469 L 15.390625 7.730469 C 15.59375 7.523438 15.59375 7.191406 15.390625 6.984375 L 13.152344 4.75 C 12.945312 4.542969 12.613281 4.542969 12.40625 4.75 L 12.03125 5.121094 L 9.796875 7.359375 L 9.050781 6.613281 L 11.660156 4.003906 C 11.867188 3.796875 11.867188 3.460938 11.660156 3.257812 L 11.285156 2.882812 C 11.082031 2.675781 10.75 2.675781 10.539062 2.882812 L 7.558594 5.867188 Z M 7.1875 6.238281 "/>
</g>
</svg>
