
<svg xmlns="http://www.w3.org/2000/svg" xmlns:xlink="http://www.w3.org/1999/xlink" width="22px" height="22px" viewBox="0 0 22 22" version="1.1">
<g id="surface1">
<path style=" stroke:none;fill-rule:nonzero;fill:rgb(61.960787%,61.960787%,61.960787%);fill-opacity:1;" d="M 1.820312 1.820312 L 20.007812 1.820312 C 20.511719 1.820312 20.917969 2.226562 20.917969 2.730469 L 20.917969 17.28125 C 20.917969 17.78125 20.511719 18.191406 20.007812 18.191406 L 1.820312 18.191406 C 1.316406 18.191406 0.910156 17.78125 0.910156 17.28125 L 0.910156 2.730469 C 0.910156 2.226562 1.316406 1.820312 1.820312 1.820312 Z M 1.820312 1.820312 "/>
<path style=" stroke:none;fill-rule:nonzero;fill:rgb(74.117649%,74.117649%,74.117649%);fill-opacity:1;" d="M 1.820312 1.363281 L 20.007812 1.363281 C 20.511719 1.363281 20.917969 1.769531 20.917969 2.273438 L 20.917969 16.824219 C 20.917969 17.328125 20.511719 17.734375 20.007812 17.734375 L 1.820312 17.734375 C 1.316406 17.734375 0.910156 17.328125 0.910156 16.824219 L 0.910156 2.273438 C 0.910156 1.769531 1.316406 1.363281 1.820312 1.363281 Z M 1.820312 1.363281 "/>
<path style=" stroke:none;fill-rule:nonzero;fill:rgb(93.333334%,93.333334%,93.333334%);fill-opacity:1;" d="M 1.820312 0.910156 L 20.007812 0.910156 C 20.511719 0.910156 20.917969 1.316406 20.917969 1.820312 L 20.917969 16.371094 C 20.917969 16.875 20.511719 17.28125 20.007812 17.28125 L 1.820312 17.28125 C 1.316406 17.28125 0.910156 16.875 0.910156 16.371094 L 0.910156 1.820312 C 0.910156 1.316406 1.316406 0.910156 1.820312 0.910156 Z M 1.820312 0.910156 "/>
<path style=" stroke:none;fill-rule:nonzero;fill:rgb(30.19608%,81.568629%,88.235295%);fill-opacity:1;" d="M 2.273438 1.820312 L 19.554688 1.820312 C 19.804688 1.820312 20.007812 2.023438 20.007812 2.273438 L 20.007812 15.917969 C 20.007812 16.167969 19.804688 16.371094 19.554688 16.371094 L 2.273438 16.371094 C 2.023438 16.371094 1.820312 16.167969 1.820312 15.917969 L 1.820312 2.273438 C 1.820312 2.023438 2.023438 1.820312 2.273438 1.820312 Z M 2.273438 1.820312 "/>
<path style=" stroke:none;fill-rule:nonzero;fill:rgb(25.882354%,25.882354%,25.882354%);fill-opacity:1;" d="M 6.320312 6.976562 C 6.179688 6.976562 6.046875 7.035156 5.945312 7.132812 L 1.820312 11.261719 L 1.820312 15.917969 C 1.820312 16.167969 2.023438 16.371094 2.273438 16.371094 L 19.554688 16.371094 C 19.804688 16.371094 20.007812 16.167969 20.007812 15.917969 L 20.007812 11.863281 L 16.507812 8.75 C 16.28125 8.550781 15.9375 8.570312 15.738281 8.796875 L 12.304688 12.726562 L 6.710938 7.132812 C 6.609375 7.03125 6.46875 6.972656 6.320312 6.976562 Z M 6.320312 6.976562 "/>
<path style=" stroke:none;fill-rule:nonzero;fill:rgb(98.823529%,89.411765%,92.54902%);fill-opacity:1;" d="M 6.320312 6.976562 C 6.179688 6.976562 6.046875 7.035156 5.945312 7.132812 L 3.816406 9.261719 L 4.421875 9.972656 C 4.691406 10.242188 5.484375 10.257812 6.328125 9.699219 C 6.871094 9.160156 7.519531 9.210938 7.964844 9.699219 C 8.597656 10.285156 9.175781 10.242188 9.820312 10.242188 L 6.710938 7.132812 C 6.609375 7.03125 6.46875 6.972656 6.320312 6.976562 Z M 16.140625 8.613281 C 15.992188 8.613281 15.84375 8.675781 15.738281 8.796875 L 14.472656 10.242188 L 14.511719 10.242188 C 14.605469 10.449219 14.644531 11.199219 15.054688 10.789062 C 15.753906 10.089844 15.875 10.378906 16.148438 10.652344 C 16.554688 11.0625 16.828125 11.46875 17.238281 11.335938 C 17.921875 11.0625 18.039062 10.386719 17.734375 9.839844 L 16.507812 8.75 C 16.402344 8.65625 16.269531 8.609375 16.140625 8.613281 Z M 16.140625 8.613281 "/>
<path style=" stroke:none;fill-rule:nonzero;fill:rgb(97.254902%,73.333335%,81.568629%);fill-opacity:1;" d="M 16.144531 3.183594 C 15.589844 3.183594 15.105469 3.460938 14.820312 3.886719 C 14.917969 3.875 15.019531 3.867188 15.121094 3.867188 C 16.191406 3.867188 17.054688 4.726562 17.054688 5.796875 C 17.054688 5.898438 17.046875 6 17.03125 6.097656 C 17.457031 5.8125 17.734375 5.328125 17.734375 4.773438 C 17.734375 3.894531 17.027344 3.183594 16.144531 3.183594 Z M 16.144531 3.183594 "/>
<path style=" stroke:none;fill-rule:nonzero;fill:rgb(45.882353%,45.882353%,45.882353%);fill-opacity:0.995763;" d="M 11.824219 12.960938 L 12.960938 12.960938 C 13.085938 12.960938 13.1875 13.0625 13.1875 13.1875 L 13.1875 13.414062 C 13.1875 13.539062 13.085938 13.644531 12.960938 13.644531 L 11.824219 13.644531 C 11.699219 13.644531 11.597656 13.539062 11.597656 13.414062 L 11.597656 13.1875 C 11.597656 13.0625 11.699219 12.960938 11.824219 12.960938 Z M 11.824219 12.960938 "/>
<path style=" stroke:none;fill-rule:nonzero;fill:rgb(45.882353%,45.882353%,45.882353%);fill-opacity:1;" d="M 14.78125 12.277344 C 14.699219 12.277344 14.625 12.320312 14.585938 12.386719 L 13.902344 13.527344 C 13.8125 13.675781 13.921875 13.871094 14.097656 13.871094 L 17.734375 13.871094 C 17.914062 13.871094 18.019531 13.675781 17.929688 13.527344 L 17.25 12.386719 C 17.207031 12.320312 17.132812 12.277344 17.054688 12.277344 Z M 14.78125 12.277344 "/>
<path style=" stroke:none;fill-rule:nonzero;fill:rgb(74.117649%,74.117649%,74.117649%);fill-opacity:0.995763;" d="M 11.34375 13.1875 L 20.488281 13.1875 C 20.726562 13.1875 20.917969 13.378906 20.917969 13.617188 L 20.917969 20.488281 C 20.917969 20.726562 20.726562 20.917969 20.488281 20.917969 L 11.34375 20.917969 C 11.105469 20.917969 10.914062 20.726562 10.914062 20.488281 L 10.914062 13.617188 C 10.914062 13.378906 11.105469 13.1875 11.34375 13.1875 Z M 11.34375 13.1875 "/>
<path style=" stroke:none;fill-rule:nonzero;fill:rgb(47.058824%,56.470591%,61.176473%);fill-opacity:1;" d="M 10.914062 15.007812 L 20.917969 15.007812 L 20.917969 19.101562 L 10.914062 19.101562 Z M 10.914062 15.007812 "/>
<path style=" stroke:none;fill-rule:nonzero;fill:rgb(47.450981%,52.549022%,79.607844%);fill-opacity:0.995763;" d="M 15.917969 14.324219 C 17.421875 14.324219 18.644531 15.546875 18.644531 17.054688 C 18.644531 18.558594 17.421875 19.78125 15.917969 19.78125 C 14.410156 19.78125 13.1875 18.558594 13.1875 17.054688 C 13.1875 15.546875 14.410156 14.324219 15.917969 14.324219 Z M 15.917969 14.324219 "/>
<path style=" stroke:none;fill-rule:nonzero;fill:rgb(87.843138%,87.843138%,87.843138%);fill-opacity:0.995763;" d="M 15.917969 14.324219 C 17.421875 14.324219 18.644531 15.546875 18.644531 17.054688 C 18.644531 18.558594 17.421875 19.78125 15.917969 19.78125 C 14.410156 19.78125 13.1875 18.558594 13.1875 17.054688 C 13.1875 15.546875 14.410156 14.324219 15.917969 14.324219 Z M 15.917969 14.324219 "/>
<path style=" stroke:none;fill-rule:nonzero;fill:rgb(38.039216%,38.039216%,38.039216%);fill-opacity:0.995763;" d="M 15.917969 14.78125 C 17.171875 14.78125 18.191406 15.796875 18.191406 17.054688 C 18.191406 18.308594 17.171875 19.328125 15.917969 19.328125 C 14.660156 19.328125 13.644531 18.308594 13.644531 17.054688 C 13.644531 15.796875 14.660156 14.78125 15.917969 14.78125 Z M 15.917969 14.78125 "/>
<path style=" stroke:none;fill-rule:nonzero;fill:rgb(25.882354%,25.882354%,25.882354%);fill-opacity:0.995763;" d="M 15.917969 15.6875 C 16.667969 15.6875 17.28125 16.300781 17.28125 17.054688 C 17.28125 17.808594 16.667969 18.417969 15.917969 18.417969 C 15.164062 18.417969 14.550781 17.808594 14.550781 17.054688 C 14.550781 16.300781 15.164062 15.6875 15.917969 15.6875 Z M 15.917969 15.6875 "/>
<path style=" stroke:none;fill-rule:nonzero;fill:rgb(25.882354%,25.882354%,25.882354%);fill-opacity:0.995763;" d="M 18.757812 13.644531 L 19.894531 13.644531 C 19.957031 13.644531 20.007812 13.695312 20.007812 13.757812 L 20.007812 13.984375 C 20.007812 14.046875 19.957031 14.097656 19.894531 14.097656 L 18.757812 14.097656 C 18.695312 14.097656 18.644531 14.046875 18.644531 13.984375 L 18.644531 13.757812 C 18.644531 13.695312 18.695312 13.644531 18.757812 13.644531 Z M 18.757812 13.644531 "/>
<path style=" stroke:none;fill-rule:nonzero;fill:rgb(74.117649%,74.117649%,74.117649%);fill-opacity:0.995763;" d="M 15.347656 16.144531 C 15.535156 16.144531 15.6875 16.296875 15.6875 16.484375 C 15.6875 16.671875 15.535156 16.824219 15.347656 16.824219 C 15.160156 16.824219 15.007812 16.671875 15.007812 16.484375 C 15.007812 16.296875 15.160156 16.144531 15.347656 16.144531 Z M 15.347656 16.144531 "/>
<path style=" stroke:none;fill-rule:nonzero;fill:rgb(74.117649%,74.117649%,74.117649%);fill-opacity:0.995763;" d="M 18.816406 13.757812 L 18.871094 13.757812 C 18.902344 13.757812 18.929688 13.78125 18.929688 13.8125 L 18.929688 13.925781 C 18.929688 13.957031 18.902344 13.984375 18.871094 13.984375 L 18.816406 13.984375 C 18.785156 13.984375 18.757812 13.957031 18.757812 13.925781 L 18.757812 13.8125 C 18.757812 13.78125 18.785156 13.757812 18.816406 13.757812 Z M 18.816406 13.757812 "/>
</g>
</svg>
