<?xml version="1.0" encoding="UTF-8"?>
<svg xmlns="http://www.w3.org/2000/svg" xmlns:xlink="http://www.w3.org/1999/xlink" width="22px" height="22px" viewBox="0 0 22 22" version="1.1">
<g id="surface1">
<path style=" stroke:none;fill-rule:nonzero;fill:rgb(100%,71.764708%,30.19608%);fill-opacity:1;" d="M 1.820312 2.445312 L 20.007812 2.445312 C 20.511719 2.445312 20.917969 2.851562 20.917969 3.355469 L 20.917969 18.816406 C 20.917969 19.320312 20.511719 19.726562 20.007812 19.726562 L 1.820312 19.726562 C 1.316406 19.726562 0.910156 19.320312 0.910156 18.816406 L 0.910156 3.355469 C 0.910156 2.851562 1.316406 2.445312 1.820312 2.445312 Z M 1.820312 2.445312 "/>
<path style=" stroke:none;fill-rule:nonzero;fill:rgb(94.117647%,38.431373%,57.254905%);fill-opacity:1;" d="M 1.207031 2.679688 C 1.023438 2.847656 0.910156 3.085938 0.910156 3.355469 L 0.910156 18.816406 C 0.910156 19.320312 1.316406 19.726562 1.820312 19.726562 L 20.007812 19.726562 C 20.238281 19.726562 20.449219 19.640625 20.609375 19.5 L 5.527344 6.082031 Z M 1.207031 2.679688 "/>
<path style=" stroke:none;fill-rule:nonzero;fill:rgb(72.941178%,40.784314%,78.431374%);fill-opacity:1;" d="M 20.632812 2.691406 L 1.195312 19.480469 C 1.359375 19.632812 1.578125 19.726562 1.820312 19.726562 L 20.007812 19.726562 C 20.511719 19.726562 20.917969 19.320312 20.917969 18.816406 L 20.917969 3.355469 C 20.917969 3.09375 20.808594 2.859375 20.632812 2.691406 Z M 20.632812 2.691406 "/>
<path style=" stroke:none;fill-rule:nonzero;fill:rgb(93.333334%,93.333334%,93.333334%);fill-opacity:1;" d="M 9.160156 6.324219 C 8.972656 6.324219 8.785156 6.34375 8.597656 6.382812 L 8.375 7.222656 L 7.9375 7.472656 L 7.101562 7.25 C 6.847656 7.53125 6.65625 7.863281 6.539062 8.21875 L 7.15625 8.832031 L 7.15625 9.332031 L 6.542969 9.945312 C 6.597656 10.121094 6.675781 10.292969 6.773438 10.460938 C 6.867188 10.625 6.980469 10.78125 7.101562 10.917969 L 7.9375 10.691406 L 8.375 10.941406 L 8.597656 11.78125 C 8.964844 11.859375 9.34375 11.859375 9.71875 11.78125 L 9.941406 10.941406 L 10.375 10.691406 L 11.214844 10.917969 C 11.46875 10.632812 11.660156 10.300781 11.777344 9.949219 L 11.160156 9.332031 L 11.160156 8.832031 L 11.773438 8.21875 C 11.714844 8.042969 11.640625 7.871094 11.542969 7.707031 C 11.449219 7.539062 11.335938 7.386719 11.214844 7.25 L 10.375 7.472656 L 9.941406 7.222656 L 9.71875 6.382812 C 9.535156 6.34375 9.347656 6.324219 9.160156 6.324219 Z M 9.15625 7.921875 C 9.800781 7.921875 10.320312 8.441406 10.320312 9.082031 C 10.320312 9.726562 9.800781 10.242188 9.15625 10.242188 C 8.515625 10.242188 7.996094 9.726562 7.996094 9.082031 C 7.996094 8.441406 8.515625 7.921875 9.15625 7.921875 Z M 9.15625 7.921875 "/>
<path style=" stroke:none;fill-rule:nonzero;fill:rgb(93.333334%,93.333334%,93.333334%);fill-opacity:1;" d="M 12.960938 10.578125 C 12.769531 10.578125 12.582031 10.597656 12.394531 10.636719 L 12.171875 11.476562 L 11.738281 11.726562 L 10.898438 11.5 C 10.644531 11.785156 10.453125 12.117188 10.335938 12.46875 L 10.953125 13.085938 L 10.953125 13.585938 L 10.339844 14.199219 C 10.398438 14.375 10.472656 14.546875 10.570312 14.714844 C 10.667969 14.878906 10.777344 15.03125 10.898438 15.171875 L 11.738281 14.945312 L 12.171875 15.195312 L 12.394531 16.035156 C 12.761719 16.109375 13.140625 16.113281 13.515625 16.035156 L 13.742188 15.195312 L 14.175781 14.945312 L 15.011719 15.171875 C 15.269531 14.886719 15.457031 14.554688 15.574219 14.199219 L 14.960938 13.585938 L 14.960938 13.085938 L 15.574219 12.472656 C 15.515625 12.296875 15.4375 12.125 15.339844 11.957031 C 15.246094 11.792969 15.136719 11.640625 15.011719 11.5 L 14.175781 11.726562 L 13.742188 11.476562 L 13.515625 10.636719 C 13.332031 10.597656 13.148438 10.578125 12.960938 10.578125 Z M 12.957031 12.175781 C 13.597656 12.175781 14.117188 12.691406 14.117188 13.335938 C 14.117188 13.980469 13.597656 14.496094 12.957031 14.496094 C 12.3125 14.496094 11.796875 13.980469 11.796875 13.335938 C 11.796875 12.691406 12.3125 12.175781 12.957031 12.175781 Z M 12.957031 12.175781 "/>
</g>
</svg>
