<?xml version="1.0" encoding="UTF-8"?>
<svg xmlns="http://www.w3.org/2000/svg" xmlns:xlink="http://www.w3.org/1999/xlink" width="22px" height="22px" viewBox="0 0 22 22" version="1.1">
<g id="surface1">
<path style=" stroke:none;fill-rule:nonzero;fill:rgb(30.19608%,71.372551%,67.450982%);fill-opacity:1;" d="M 10.914062 1.082031 C 16.4375 1.082031 20.917969 5.5625 20.917969 11.085938 C 20.917969 16.609375 16.4375 21.089844 10.914062 21.089844 C 5.390625 21.089844 0.910156 16.609375 0.910156 11.085938 C 0.910156 5.5625 5.390625 1.082031 10.914062 1.082031 Z M 10.914062 1.082031 "/>
<path style=" stroke:none;fill-rule:nonzero;fill:rgb(14.901961%,65.098041%,60.392159%);fill-opacity:1;" d="M 10.914062 1.082031 C 5.371094 1.082031 0.910156 5.542969 0.910156 11.085938 C 0.910156 13.351562 1.65625 15.4375 2.917969 17.113281 C 7.269531 12.175781 13.582031 9.015625 20.664062 8.820312 C 19.644531 4.375 15.675781 1.082031 10.914062 1.082031 Z M 10.914062 1.082031 "/>
<path style=" stroke:none;fill-rule:nonzero;fill:rgb(25.882354%,25.882354%,25.882354%);fill-opacity:1;" d="M 11.6875 5.628906 C 10.6875 5.699219 9.859375 5.847656 9.324219 6.59375 C 7.875 6.113281 4.972656 6.113281 4.007812 7.5625 C 5.941406 7.5625 9.375 8.042969 9.324219 9.496094 C 7.875 9.496094 6.90625 9.011719 5.941406 9.976562 C 7.390625 9.976562 8.890625 10.460938 9.804688 10.945312 C 9.804688 11.425781 10.5625 11.652344 10.773438 11.667969 C 11.214844 11.730469 9.804688 14.808594 9.324219 15.777344 C 10.046875 15.292969 10.289062 15.292969 10.289062 15.292969 C 9.804688 16.257812 9.5625 17.226562 9.804688 17.707031 C 11.21875 19.894531 16.570312 18.191406 18.503906 18.675781 C 20.4375 19.160156 20.917969 21.089844 20.917969 21.089844 C 20.917969 16.742188 17.539062 10.460938 16.085938 8.527344 C 14.636719 6.59375 13.292969 5.628906 11.6875 5.628906 Z M 11.6875 5.628906 "/>
<path style=" stroke:none;fill-rule:nonzero;fill:rgb(93.333334%,93.333334%,93.333334%);fill-opacity:1;" d="M 10.773438 6.59375 C 11.039062 6.59375 11.253906 6.8125 11.253906 7.078125 C 11.253906 7.34375 11.039062 7.5625 10.773438 7.5625 C 10.503906 7.5625 10.289062 7.34375 10.289062 7.078125 C 10.289062 6.8125 10.503906 6.59375 10.773438 6.59375 Z M 10.773438 6.59375 "/>
</g>
</svg>
