<?xml version="1.0" encoding="UTF-8"?>
<svg xmlns="http://www.w3.org/2000/svg" xmlns:xlink="http://www.w3.org/1999/xlink" width="22px" height="22px" viewBox="0 0 22 22" version="1.1">
<g id="surface1">
<path style=" stroke:none;fill-rule:nonzero;fill:rgb(45.882353%,45.882353%,45.882353%);fill-opacity:1;" d="M 3.183594 2.445312 L 20.007812 2.445312 C 20.511719 2.445312 20.917969 2.851562 20.917969 3.355469 L 20.917969 8.8125 C 20.917969 9.316406 20.511719 9.722656 20.007812 9.722656 L 3.183594 9.722656 C 2.679688 9.722656 2.273438 9.316406 2.273438 8.8125 L 2.273438 3.355469 C 2.273438 2.851562 2.679688 2.445312 3.183594 2.445312 Z M 3.183594 2.445312 "/>
<path style=" stroke:none;fill-rule:nonzero;fill:rgb(96.078432%,96.078432%,96.078432%);fill-opacity:1;" d="M 10.914062 5.175781 L 20.007812 5.175781 C 20.261719 5.175781 20.464844 5.378906 20.464844 5.628906 L 20.464844 8.8125 C 20.464844 9.0625 20.261719 9.265625 20.007812 9.265625 L 10.914062 9.265625 C 10.664062 9.265625 10.460938 9.0625 10.460938 8.8125 L 10.460938 5.628906 C 10.460938 5.378906 10.664062 5.175781 10.914062 5.175781 Z M 10.914062 5.175781 "/>
<path style=" stroke:none;fill-rule:nonzero;fill:rgb(61.960787%,61.960787%,61.960787%);fill-opacity:1;" d="M 1.820312 4.265625 C 1.316406 4.265625 0.910156 4.671875 0.910156 5.175781 L 0.910156 18.816406 C 0.910156 19.320312 1.316406 19.726562 1.820312 19.726562 L 20.007812 19.726562 C 20.511719 19.726562 20.917969 19.320312 20.917969 18.816406 L 20.917969 8.355469 C 20.917969 7.855469 20.511719 7.457031 20.007812 7.449219 L 14.097656 7.449219 C 13.59375 7.449219 13.1875 7.042969 13.1875 6.539062 L 13.1875 5.175781 C 13.1875 4.671875 12.78125 4.265625 12.277344 4.265625 Z M 1.820312 4.265625 "/>
<path style=" stroke:none;fill-rule:nonzero;fill:rgb(45.882353%,45.882353%,45.882353%);fill-opacity:1;" d="M 10.230469 12.90625 L 11.140625 12.90625 C 11.265625 12.90625 11.367188 13.007812 11.367188 13.132812 L 11.367188 13.585938 C 11.367188 13.710938 11.265625 13.8125 11.140625 13.8125 L 10.230469 13.8125 C 10.105469 13.8125 10.003906 13.710938 10.003906 13.585938 L 10.003906 13.132812 C 10.003906 13.007812 10.105469 12.90625 10.230469 12.90625 Z M 10.230469 12.90625 "/>
<path style=" stroke:none;fill-rule:nonzero;fill:rgb(45.882353%,45.882353%,45.882353%);fill-opacity:1;" d="M 12.503906 12.90625 L 13.414062 12.90625 C 13.539062 12.90625 13.644531 13.007812 13.644531 13.132812 L 13.644531 13.585938 C 13.644531 13.710938 13.539062 13.8125 13.414062 13.8125 L 12.503906 13.8125 C 12.378906 13.8125 12.277344 13.710938 12.277344 13.585938 L 12.277344 13.132812 C 12.277344 13.007812 12.378906 12.90625 12.503906 12.90625 Z M 12.503906 12.90625 "/>
<path style=" stroke:none;fill-rule:nonzero;fill:rgb(45.882353%,45.882353%,45.882353%);fill-opacity:1;" d="M 14.78125 12.90625 L 15.6875 12.90625 C 15.816406 12.90625 15.917969 13.007812 15.917969 13.132812 L 15.917969 13.585938 C 15.917969 13.710938 15.816406 13.8125 15.6875 13.8125 L 14.78125 13.8125 C 14.652344 13.8125 14.550781 13.710938 14.550781 13.585938 L 14.550781 13.132812 C 14.550781 13.007812 14.652344 12.90625 14.78125 12.90625 Z M 14.78125 12.90625 "/>
<path style=" stroke:none;fill-rule:nonzero;fill:rgb(45.882353%,45.882353%,45.882353%);fill-opacity:1;" d="M 14.78125 14.722656 L 15.6875 14.722656 C 15.816406 14.722656 15.917969 14.824219 15.917969 14.953125 L 15.917969 15.40625 C 15.917969 15.53125 15.816406 15.632812 15.6875 15.632812 L 14.78125 15.632812 C 14.652344 15.632812 14.550781 15.53125 14.550781 15.40625 L 14.550781 14.953125 C 14.550781 14.824219 14.652344 14.722656 14.78125 14.722656 Z M 14.78125 14.722656 "/>
<path style=" stroke:none;fill-rule:nonzero;fill:rgb(45.882353%,45.882353%,45.882353%);fill-opacity:1;" d="M 12.503906 14.722656 L 13.414062 14.722656 C 13.539062 14.722656 13.644531 14.824219 13.644531 14.953125 L 13.644531 15.40625 C 13.644531 15.53125 13.539062 15.632812 13.414062 15.632812 L 12.503906 15.632812 C 12.378906 15.632812 12.277344 15.53125 12.277344 15.40625 L 12.277344 14.953125 C 12.277344 14.824219 12.378906 14.722656 12.503906 14.722656 Z M 12.503906 14.722656 "/>
<path style=" stroke:none;fill-rule:nonzero;fill:rgb(45.882353%,45.882353%,45.882353%);fill-opacity:1;" d="M 10.230469 14.722656 L 11.140625 14.722656 C 11.265625 14.722656 11.367188 14.824219 11.367188 14.953125 L 11.367188 15.40625 C 11.367188 15.53125 11.265625 15.632812 11.140625 15.632812 L 10.230469 15.632812 C 10.105469 15.632812 10.003906 15.53125 10.003906 15.40625 L 10.003906 14.953125 C 10.003906 14.824219 10.105469 14.722656 10.230469 14.722656 Z M 10.230469 14.722656 "/>
<path style=" stroke:none;fill-rule:nonzero;fill:rgb(45.882353%,45.882353%,45.882353%);fill-opacity:1;" d="M 17.054688 12.90625 L 17.960938 12.90625 C 18.089844 12.90625 18.191406 13.007812 18.191406 13.132812 L 18.191406 13.585938 C 18.191406 13.710938 18.089844 13.8125 17.960938 13.8125 L 17.054688 13.8125 C 16.925781 13.8125 16.824219 13.710938 16.824219 13.585938 L 16.824219 13.132812 C 16.824219 13.007812 16.925781 12.90625 17.054688 12.90625 Z M 17.054688 12.90625 "/>
<path style=" stroke:none;fill-rule:nonzero;fill:rgb(45.882353%,45.882353%,45.882353%);fill-opacity:1;" d="M 17.054688 14.722656 L 17.960938 14.722656 C 18.089844 14.722656 18.191406 14.824219 18.191406 14.953125 L 18.191406 15.40625 C 18.191406 15.53125 18.089844 15.632812 17.960938 15.632812 L 17.054688 15.632812 C 16.925781 15.632812 16.824219 15.53125 16.824219 15.40625 L 16.824219 14.953125 C 16.824219 14.824219 16.925781 14.722656 17.054688 14.722656 Z M 17.054688 14.722656 "/>
<path style=" stroke:none;fill-rule:nonzero;fill:rgb(45.882353%,45.882353%,45.882353%);fill-opacity:1;" d="M 14.78125 11.085938 L 15.6875 11.085938 C 15.816406 11.085938 15.917969 11.1875 15.917969 11.3125 L 15.917969 11.769531 C 15.917969 11.894531 15.816406 11.996094 15.6875 11.996094 L 14.78125 11.996094 C 14.652344 11.996094 14.550781 11.894531 14.550781 11.769531 L 14.550781 11.3125 C 14.550781 11.1875 14.652344 11.085938 14.78125 11.085938 Z M 14.78125 11.085938 "/>
<path style=" stroke:none;fill-rule:nonzero;fill:rgb(45.882353%,45.882353%,45.882353%);fill-opacity:1;" d="M 12.503906 11.085938 L 13.414062 11.085938 C 13.539062 11.085938 13.640625 11.1875 13.640625 11.3125 L 13.640625 11.769531 C 13.640625 11.894531 13.539062 11.996094 13.414062 11.996094 L 12.503906 11.996094 C 12.378906 11.996094 12.277344 11.894531 12.277344 11.769531 L 12.277344 11.3125 C 12.277344 11.1875 12.378906 11.085938 12.503906 11.085938 Z M 12.503906 11.085938 "/>
<path style=" stroke:none;fill-rule:nonzero;fill:rgb(45.882353%,45.882353%,45.882353%);fill-opacity:1;" d="M 12.503906 16.542969 L 13.414062 16.542969 C 13.539062 16.542969 13.640625 16.644531 13.640625 16.769531 L 13.640625 17.226562 C 13.640625 17.351562 13.539062 17.453125 13.414062 17.453125 L 12.503906 17.453125 C 12.378906 17.453125 12.277344 17.351562 12.277344 17.226562 L 12.277344 16.769531 C 12.277344 16.644531 12.378906 16.542969 12.503906 16.542969 Z M 12.503906 16.542969 "/>
<path style=" stroke:none;fill-rule:nonzero;fill:rgb(45.882353%,45.882353%,45.882353%);fill-opacity:1;" d="M 14.78125 16.542969 L 15.6875 16.542969 C 15.816406 16.542969 15.917969 16.644531 15.917969 16.769531 L 15.917969 17.226562 C 15.917969 17.351562 15.816406 17.453125 15.6875 17.453125 L 14.78125 17.453125 C 14.652344 17.453125 14.550781 17.351562 14.550781 17.226562 L 14.550781 16.769531 C 14.550781 16.644531 14.652344 16.542969 14.78125 16.542969 Z M 14.78125 16.542969 "/>
<path style=" stroke:none;fill-rule:nonzero;fill:rgb(16.078432%,71.372551%,96.470588%);fill-opacity:0.392157;" d="M 14.097656 8.359375 C 17.363281 8.359375 20.007812 11.003906 20.007812 14.269531 C 20.007812 17.535156 17.363281 20.179688 14.097656 20.179688 C 10.832031 20.179688 8.1875 17.535156 8.1875 14.269531 C 8.1875 11.003906 10.832031 8.359375 14.097656 8.359375 Z M 14.097656 8.359375 "/>
<path style=" stroke:none;fill-rule:nonzero;fill:rgb(25.882354%,25.882354%,25.882354%);fill-opacity:1;" d="M 14.097656 7.449219 C 10.316406 7.449219 7.277344 10.488281 7.277344 14.269531 C 7.277344 18.046875 10.316406 21.089844 14.097656 21.089844 C 17.875 21.089844 20.917969 18.046875 20.917969 14.269531 C 20.917969 10.488281 17.875 7.449219 14.097656 7.449219 Z M 14.097656 8.8125 C 17.121094 8.8125 19.554688 11.246094 19.554688 14.269531 C 19.554688 17.292969 17.121094 19.726562 14.097656 19.726562 C 11.074219 19.726562 8.640625 17.292969 8.640625 14.269531 C 8.640625 11.246094 11.074219 8.8125 14.097656 8.8125 Z M 14.097656 8.8125 "/>
</g>
</svg>
