<?xml version="1.0" encoding="UTF-8"?>
<svg xmlns="http://www.w3.org/2000/svg" xmlns:xlink="http://www.w3.org/1999/xlink" width="22px" height="22px" viewBox="0 0 22 22" version="1.1">
<g id="surface1">
<path style=" stroke:none;fill-rule:nonzero;fill:rgb(100%,65.490198%,14.901961%);fill-opacity:1;" d="M 1.820312 1.082031 C 1.316406 1.082031 0.910156 1.488281 0.910156 1.992188 L 0.910156 11.085938 L 10.914062 11.085938 L 10.914062 1.082031 Z M 1.820312 1.082031 "/>
<path style=" stroke:none;fill-rule:nonzero;fill:rgb(92.54902%,25.098041%,47.843137%);fill-opacity:1;" d="M 20.007812 1.082031 C 20.511719 1.082031 20.917969 1.488281 20.917969 1.992188 L 20.917969 11.085938 L 10.914062 11.085938 L 10.914062 1.082031 Z M 20.007812 1.082031 "/>
<path style=" stroke:none;fill-rule:nonzero;fill:rgb(100%,43.921569%,26.274511%);fill-opacity:1;" d="M 1.820312 21.089844 C 1.316406 21.089844 0.910156 20.683594 0.910156 20.179688 L 0.910156 11.085938 L 10.914062 11.085938 L 10.914062 21.089844 Z M 1.820312 21.089844 "/>
<path style=" stroke:none;fill-rule:nonzero;fill:rgb(100%,65.490198%,14.901961%);fill-opacity:1;" d="M 20.007812 21.089844 C 20.511719 21.089844 20.917969 20.683594 20.917969 20.179688 L 20.917969 11.085938 L 10.914062 11.085938 L 10.914062 21.089844 Z M 20.007812 21.089844 "/>
<path style=" stroke:none;fill-rule:nonzero;fill:rgb(25.882354%,25.882354%,25.882354%);fill-opacity:1;" d="M 5.429688 4.746094 L 16.398438 4.746094 C 16.886719 4.746094 17.28125 5.140625 17.28125 5.628906 L 17.28125 16.996094 C 17.28125 17.484375 16.886719 17.878906 16.398438 17.878906 L 5.429688 17.878906 C 4.941406 17.878906 4.546875 17.484375 4.546875 16.996094 L 4.546875 5.628906 C 4.546875 5.140625 4.941406 4.746094 5.429688 4.746094 Z M 5.429688 4.746094 "/>
<path style=" stroke:none;fill-rule:nonzero;fill:rgb(93.333334%,93.333334%,93.333334%);fill-opacity:1;" d="M 6.351562 7.449219 C 6.222656 7.449219 6.121094 7.550781 6.121094 7.675781 L 6.121094 14.496094 C 6.121094 14.621094 6.222656 14.722656 6.351562 14.722656 L 6.804688 14.722656 C 6.929688 14.722656 7.03125 14.621094 7.03125 14.496094 L 7.03125 12.222656 L 8.84375 12.222656 L 10.222656 14.609375 C 10.285156 14.71875 10.425781 14.757812 10.535156 14.695312 L 10.929688 14.464844 C 11.039062 14.402344 11.074219 14.265625 11.011719 14.15625 L 9.777344 12.019531 C 10.574219 11.648438 11.125 10.8125 11.125 9.835938 C 11.125 8.511719 10.109375 7.449219 8.851562 7.449219 Z M 7.03125 8.355469 L 8.851562 8.355469 C 9.605469 8.355469 10.214844 8.964844 10.214844 9.722656 L 10.214844 9.949219 C 10.214844 10.703125 9.605469 11.3125 8.851562 11.3125 L 7.03125 11.3125 Z M 7.03125 8.355469 "/>
<path style=" stroke:none;fill-rule:nonzero;fill:rgb(93.333334%,93.333334%,93.333334%);fill-opacity:1;" d="M 13.1875 9.496094 C 13.0625 9.496094 12.960938 9.597656 12.960938 9.722656 L 12.960938 9.949219 L 12.734375 9.949219 C 12.605469 9.949219 12.503906 10.050781 12.503906 10.175781 L 12.503906 10.632812 C 12.503906 10.757812 12.605469 10.859375 12.734375 10.859375 L 12.960938 10.859375 L 12.960938 11.3125 L 12.734375 11.3125 C 12.605469 11.3125 12.503906 11.414062 12.503906 11.539062 L 12.503906 11.996094 C 12.503906 12.121094 12.605469 12.222656 12.734375 12.222656 L 12.960938 12.222656 L 12.960938 12.449219 C 12.960938 12.574219 13.0625 12.675781 13.1875 12.675781 L 13.640625 12.675781 C 13.769531 12.675781 13.871094 12.574219 13.871094 12.449219 L 13.871094 12.222656 L 14.324219 12.222656 L 14.324219 12.449219 C 14.324219 12.574219 14.425781 12.675781 14.550781 12.675781 L 15.007812 12.675781 C 15.132812 12.675781 15.234375 12.574219 15.234375 12.449219 L 15.234375 12.222656 L 15.460938 12.222656 C 15.585938 12.222656 15.6875 12.121094 15.6875 11.996094 L 15.6875 11.539062 C 15.6875 11.414062 15.585938 11.3125 15.460938 11.3125 L 15.234375 11.3125 L 15.234375 10.859375 L 15.460938 10.859375 C 15.585938 10.859375 15.6875 10.757812 15.6875 10.632812 L 15.6875 10.175781 C 15.6875 10.050781 15.585938 9.949219 15.460938 9.949219 L 15.234375 9.949219 L 15.234375 9.722656 C 15.234375 9.597656 15.132812 9.496094 15.007812 9.496094 L 14.550781 9.496094 C 14.425781 9.496094 14.324219 9.597656 14.324219 9.722656 L 14.324219 9.949219 L 13.871094 9.949219 L 13.871094 9.722656 C 13.871094 9.597656 13.769531 9.496094 13.640625 9.496094 Z M 13.871094 10.859375 L 14.324219 10.859375 L 14.324219 11.3125 L 13.871094 11.3125 Z M 13.871094 10.859375 "/>
</g>
</svg>
