
<svg xmlns="http://www.w3.org/2000/svg" xmlns:xlink="http://www.w3.org/1999/xlink" width="22px" height="22px" viewBox="0 0 22 22" version="1.1">
<g id="surface1">
<path style=" stroke:none;fill-rule:nonzero;fill:rgb(89.803922%,22.352941%,20.784314%);fill-opacity:1;" d="M 17.285156 7.390625 C 17.070312 7.390625 16.867188 7.472656 16.71875 7.621094 C 16.40625 7.933594 16.40625 8.4375 16.71875 8.75 L 18.335938 10.367188 L 18.761719 14.632812 C 18.804688 15.070312 19.195312 15.386719 19.632812 15.34375 C 20.070312 15.300781 20.390625 14.910156 20.347656 14.472656 L 19.890625 9.925781 C 19.875 9.742188 19.792969 9.570312 19.664062 9.441406 L 17.84375 7.621094 C 17.695312 7.472656 17.492188 7.390625 17.285156 7.390625 Z M 17.285156 7.390625 "/>
<path style=" stroke:none;fill-rule:nonzero;fill:rgb(93.725491%,32.549021%,31.37255%);fill-opacity:1;" d="M 17.023438 1.628906 C 15.5 1.628906 14.261719 2.867188 14.261719 4.390625 L 14.261719 4.515625 C 14.261719 6.039062 15.5 7.277344 17.023438 7.277344 C 18.546875 7.277344 19.78125 6.039062 19.78125 4.515625 L 19.78125 4.390625 C 19.78125 2.867188 18.546875 1.628906 17.023438 1.628906 Z M 17.023438 1.628906 "/>
<path style=" stroke:none;fill-rule:nonzero;fill:rgb(93.725491%,32.549021%,31.37255%);fill-opacity:1;" d="M 17.28125 6.027344 C 16.878906 6.027344 16.539062 6.328125 16.492188 6.726562 L 15.589844 14.394531 L 14.695312 17.515625 C 14.660156 17.636719 14.65625 17.765625 14.679688 17.890625 L 15.136719 20.164062 C 15.222656 20.597656 15.640625 20.875 16.074219 20.789062 C 16.503906 20.703125 16.78125 20.285156 16.695312 19.851562 L 16.28125 17.769531 L 17.136719 14.769531 C 17.148438 14.730469 17.15625 14.6875 17.160156 14.644531 L 18.070312 6.914062 C 18.121094 6.476562 17.808594 6.082031 17.375 6.03125 C 17.34375 6.027344 17.3125 6.027344 17.28125 6.027344 Z M 17.28125 6.027344 "/>
<path style=" stroke:none;fill-rule:nonzero;fill:rgb(93.725491%,32.549021%,31.37255%);fill-opacity:1;" d="M 17.28125 6.027344 C 16.878906 6.027344 16.539062 6.328125 16.492188 6.726562 L 15.640625 13.957031 L 12.027344 15.160156 C 11.789062 15.242188 11.601562 15.425781 11.523438 15.664062 L 10.160156 19.757812 C 10.019531 20.175781 10.246094 20.625 10.664062 20.765625 C 11.078125 20.902344 11.53125 20.679688 11.667969 20.261719 L 12.90625 16.546875 L 16.621094 15.308594 C 16.914062 15.210938 17.125 14.953125 17.160156 14.644531 L 18.070312 6.914062 C 18.121094 6.476562 17.808594 6.082031 17.375 6.03125 C 17.34375 6.027344 17.3125 6.027344 17.28125 6.027344 Z M 17.28125 6.027344 "/>
<path style=" stroke:none;fill-rule:nonzero;fill:rgb(11.764706%,53.333336%,89.803922%);fill-opacity:1;" d="M 6.363281 6.933594 C 6.046875 6.9375 5.761719 7.125 5.636719 7.417969 C 5.460938 7.820312 5.648438 8.289062 6.054688 8.460938 L 9.238281 9.828125 C 9.472656 9.925781 9.738281 9.910156 9.960938 9.777344 L 12.234375 8.414062 C 12.609375 8.1875 12.730469 7.699219 12.507812 7.320312 C 12.28125 6.945312 11.792969 6.824219 11.414062 7.046875 L 9.488281 8.203125 L 6.679688 7 C 6.578125 6.957031 6.472656 6.933594 6.363281 6.933594 Z M 6.363281 6.933594 "/>
<path style=" stroke:none;fill-rule:nonzero;fill:rgb(25.882354%,64.705884%,96.078432%);fill-opacity:1;" d="M 6.335938 1.175781 C 7.859375 1.175781 9.09375 2.410156 9.09375 3.933594 L 9.09375 4.0625 C 9.09375 5.585938 7.859375 6.820312 6.335938 6.820312 C 4.8125 6.820312 3.578125 5.585938 3.578125 4.0625 L 3.578125 3.933594 C 3.578125 2.410156 4.8125 1.175781 6.335938 1.175781 Z M 6.335938 1.175781 "/>
<path style=" stroke:none;fill-rule:nonzero;fill:rgb(25.882354%,64.705884%,96.078432%);fill-opacity:1;" d="M 6.367188 6.027344 C 5.925781 6.027344 5.570312 6.382812 5.570312 6.820312 L 5.570312 14.421875 L 4.78125 16.792969 L 1.339844 19.371094 C 0.988281 19.636719 0.917969 20.136719 1.183594 20.488281 C 1.445312 20.839844 1.945312 20.910156 2.296875 20.644531 L 5.933594 17.917969 C 6.0625 17.820312 6.160156 17.6875 6.210938 17.53125 L 7.121094 14.804688 C 7.148438 14.722656 7.164062 14.636719 7.164062 14.550781 L 7.164062 6.820312 C 7.164062 6.382812 6.804688 6.027344 6.367188 6.027344 Z M 6.367188 6.027344 "/>
<path style=" stroke:none;fill-rule:nonzero;fill:rgb(25.882354%,64.705884%,96.078432%);fill-opacity:1;" d="M 6.367188 6.027344 C 5.925781 6.027344 5.570312 6.382812 5.570312 6.820312 L 5.570312 14.550781 C 5.570312 14.84375 5.730469 15.113281 5.992188 15.253906 C 6.25 15.390625 6.5625 15.375 6.808594 15.214844 L 10.832031 12.53125 L 15.300781 10.742188 C 15.710938 10.582031 15.910156 10.117188 15.746094 9.710938 C 15.582031 9.300781 15.121094 9.101562 14.710938 9.265625 L 10.164062 11.085938 C 10.113281 11.105469 10.0625 11.128906 10.019531 11.160156 L 7.164062 13.066406 L 7.164062 6.820312 C 7.164062 6.382812 6.804688 6.027344 6.367188 6.027344 Z M 6.367188 6.027344 "/>
<path style=" stroke:none;fill-rule:nonzero;fill:rgb(39.215687%,70.980394%,96.470588%);fill-opacity:1;" d="M 5.90625 6.933594 C 5.742188 6.9375 5.582031 6.988281 5.449219 7.082031 L 2.265625 9.355469 C 2.046875 9.515625 1.921875 9.773438 1.933594 10.042969 C 1.949219 10.316406 2.097656 10.5625 2.332031 10.695312 L 5.515625 12.515625 C 5.898438 12.734375 6.382812 12.601562 6.601562 12.21875 C 6.820312 11.835938 6.6875 11.351562 6.304688 11.132812 L 4.203125 9.929688 L 6.375 8.378906 C 6.730469 8.121094 6.816406 7.625 6.558594 7.269531 C 6.410156 7.058594 6.164062 6.933594 5.90625 6.933594 Z M 5.90625 6.933594 "/>
<path style=" stroke:none;fill-rule:nonzero;fill:rgb(89.803922%,45.09804%,45.09804%);fill-opacity:1;" d="M 16.816406 7.390625 C 16.59375 7.390625 16.382812 7.488281 16.234375 7.652344 L 14.558594 9.515625 L 11.664062 8.355469 C 11.257812 8.191406 10.792969 8.390625 10.628906 8.800781 C 10.464844 9.207031 10.664062 9.671875 11.074219 9.832031 L 14.484375 11.199219 C 14.792969 11.320312 15.148438 11.238281 15.371094 10.992188 L 17.417969 8.71875 C 17.710938 8.390625 17.683594 7.886719 17.359375 7.59375 C 17.210938 7.460938 17.015625 7.386719 16.816406 7.390625 Z M 16.816406 7.390625 "/>
</g>
</svg>
