<?xml version="1.0" encoding="UTF-8"?>
<svg xmlns="http://www.w3.org/2000/svg" xmlns:xlink="http://www.w3.org/1999/xlink" width="22" height="22" viewBox="0 0 22 22" version="1.1">
<defs>
<radialGradient id="radial0" gradientUnits="userSpaceOnUse" cx="254" cy="-29.972973" fx="254" fy="-29.972973" r="211.666672" gradientTransform="matrix(0.0429688,0,0,0.0397461,0,9.204981)">
<stop offset="0" style="stop-color:rgb(61.176473%,80.000001%,39.607844%);stop-opacity:0.2;"/>
<stop offset="0.5" style="stop-color:rgb(61.176473%,80.000001%,39.607844%);stop-opacity:0.0784314;"/>
<stop offset="1" style="stop-color:rgb(61.176473%,80.000001%,39.607844%);stop-opacity:0;"/>
</radialGradient>
</defs>
<g id="surface1">
<path style=" stroke:none;fill-rule:nonzero;fill:rgb(87.843138%,87.843138%,87.843138%);fill-opacity:1;" d="M 1.820312 1.820312 L 20.007812 1.820312 C 20.511719 1.820312 20.917969 2.226562 20.917969 2.726562 L 20.917969 19.101562 C 20.917969 19.601562 20.511719 20.007812 20.007812 20.007812 L 1.820312 20.007812 C 1.316406 20.007812 0.910156 19.601562 0.910156 19.101562 L 0.910156 2.726562 C 0.910156 2.226562 1.316406 1.820312 1.820312 1.820312 Z M 1.820312 1.820312 "/>
<path style=" stroke:none;fill-rule:nonzero;fill:rgb(61.960787%,61.960787%,61.960787%);fill-opacity:1;" d="M 1.820312 1.820312 C 1.566406 1.820312 1.339844 1.921875 1.175781 2.085938 L 4.09375 5.003906 L 18.191406 5.003906 L 20.71875 2.160156 C 20.550781 1.953125 20.296875 1.820312 20.007812 1.820312 Z M 1.820312 1.820312 "/>
<path style=" stroke:none;fill-rule:nonzero;fill:rgb(93.333334%,93.333334%,93.333334%);fill-opacity:1;" d="M 1.820312 20.007812 C 1.566406 20.007812 1.339844 19.90625 1.175781 19.742188 L 4.09375 16.824219 L 18.191406 16.824219 L 20.71875 19.667969 C 20.550781 19.875 20.296875 20.007812 20.007812 20.007812 Z M 1.820312 20.007812 "/>
<path style=" stroke:none;fill-rule:nonzero;fill:rgb(25.882354%,25.882354%,25.882354%);fill-opacity:1;" d="M 18.605469 4.078125 C 19.367188 4.753906 19.367188 17.074219 18.605469 17.75 C 17.84375 18.425781 3.984375 18.425781 3.222656 17.75 C 2.460938 17.074219 2.460938 4.753906 3.222656 4.078125 C 3.984375 3.402344 17.84375 3.402344 18.605469 4.078125 Z M 18.605469 4.078125 "/>
<path style=" stroke:none;fill-rule:nonzero;fill:url(#radial0);" d="M 1.820312 2.5 L 1.820312 2.957031 L 20.007812 2.957031 L 20.007812 2.5 Z M 1.820312 3.867188 L 1.820312 4.320312 L 20.007812 4.320312 L 20.007812 3.867188 Z M 1.820312 5.230469 L 1.820312 5.683594 L 20.007812 5.683594 L 20.007812 5.230469 Z M 1.820312 6.59375 L 1.820312 7.046875 L 20.007812 7.046875 L 20.007812 6.59375 Z M 1.820312 7.957031 L 1.820312 8.414062 L 20.007812 8.414062 L 20.007812 7.957031 Z M 1.820312 9.324219 L 1.820312 9.777344 L 20.007812 9.777344 L 20.007812 9.324219 Z M 1.820312 10.6875 L 1.820312 11.140625 L 20.007812 11.140625 L 20.007812 10.6875 Z M 1.820312 12.050781 L 1.820312 12.503906 L 20.007812 12.503906 L 20.007812 12.050781 Z M 1.820312 13.414062 L 1.820312 13.871094 L 20.007812 13.871094 L 20.007812 13.414062 Z M 1.820312 14.78125 L 1.820312 15.234375 L 20.007812 15.234375 L 20.007812 14.78125 Z M 1.820312 16.144531 L 1.820312 16.597656 L 20.007812 16.597656 L 20.007812 16.144531 Z M 1.820312 17.507812 L 1.820312 17.960938 L 20.007812 17.960938 L 20.007812 17.507812 Z M 1.820312 18.871094 L 1.820312 19.328125 L 20.007812 19.328125 L 20.007812 18.871094 Z M 1.820312 18.871094 "/>
</g>
</svg>
