
<svg xmlns="http://www.w3.org/2000/svg" xmlns:xlink="http://www.w3.org/1999/xlink" width="22px" height="22px" viewBox="0 0 22 22" version="1.1">
<g id="surface1">
<path style=" stroke:none;fill-rule:nonzero;fill:rgb(100%,71.764708%,30.19608%);fill-opacity:1;" d="M 1.820312 2.273438 L 20.007812 2.273438 C 20.511719 2.273438 20.917969 2.679688 20.917969 3.183594 L 20.917969 18.644531 C 20.917969 19.148438 20.511719 19.554688 20.007812 19.554688 L 1.820312 19.554688 C 1.316406 19.554688 0.910156 19.148438 0.910156 18.644531 L 0.910156 3.183594 C 0.910156 2.679688 1.316406 2.273438 1.820312 2.273438 Z M 1.820312 2.273438 "/>
<path style=" stroke:none;fill-rule:nonzero;fill:rgb(94.117647%,38.431373%,57.254905%);fill-opacity:1;" d="M 1.207031 2.507812 C 1.023438 2.675781 0.910156 2.914062 0.910156 3.183594 L 0.910156 18.644531 C 0.910156 19.148438 1.316406 19.554688 1.820312 19.554688 L 20.007812 19.554688 C 20.238281 19.554688 20.449219 19.46875 20.609375 19.328125 L 5.527344 5.910156 Z M 1.207031 2.507812 "/>
<path style=" stroke:none;fill-rule:nonzero;fill:rgb(72.941178%,40.784314%,78.431374%);fill-opacity:1;" d="M 20.632812 2.519531 L 1.195312 19.308594 C 1.359375 19.460938 1.578125 19.554688 1.820312 19.554688 L 20.007812 19.554688 C 20.511719 19.554688 20.917969 19.148438 20.917969 18.644531 L 20.917969 3.183594 C 20.917969 2.921875 20.808594 2.6875 20.632812 2.519531 Z M 20.632812 2.519531 "/>
<path style=" stroke:none;fill-rule:nonzero;fill:rgb(96.078432%,96.078432%,96.078432%);fill-opacity:1;" d="M 2.273438 15.460938 L 19.554688 15.460938 C 19.804688 15.460938 20.007812 15.664062 20.007812 15.917969 L 20.007812 18.191406 C 20.007812 18.441406 19.804688 18.644531 19.554688 18.644531 L 2.273438 18.644531 C 2.023438 18.644531 1.820312 18.441406 1.820312 18.191406 L 1.820312 15.917969 C 1.820312 15.664062 2.023438 15.460938 2.273438 15.460938 Z M 2.273438 15.460938 "/>
<path style=" stroke:none;fill-rule:nonzero;fill:rgb(74.117649%,74.117649%,74.117649%);fill-opacity:1;" d="M 2.957031 15.917969 L 10.230469 15.917969 C 10.359375 15.917969 10.460938 16.019531 10.460938 16.144531 L 10.460938 17.960938 C 10.460938 18.089844 10.359375 18.191406 10.230469 18.191406 L 2.957031 18.191406 C 2.832031 18.191406 2.726562 18.089844 2.726562 17.960938 L 2.726562 16.144531 C 2.726562 16.019531 2.832031 15.917969 2.957031 15.917969 Z M 2.957031 15.917969 "/>
<path style=" stroke:none;fill-rule:nonzero;fill:rgb(74.117649%,74.117649%,74.117649%);fill-opacity:1;" d="M 11.597656 15.917969 L 18.871094 15.917969 C 18.996094 15.917969 19.101562 16.019531 19.101562 16.144531 L 19.101562 17.960938 C 19.101562 18.089844 18.996094 18.191406 18.871094 18.191406 L 11.597656 18.191406 C 11.46875 18.191406 11.367188 18.089844 11.367188 17.960938 L 11.367188 16.144531 C 11.367188 16.019531 11.46875 15.917969 11.597656 15.917969 Z M 11.597656 15.917969 "/>
<path style=" stroke:none;fill-rule:nonzero;fill:rgb(25.882354%,25.882354%,25.882354%);fill-opacity:1;" d="M 3.867188 16.371094 L 4.773438 16.371094 C 4.902344 16.371094 5.003906 16.472656 5.003906 16.597656 L 5.003906 17.507812 C 5.003906 17.632812 4.902344 17.734375 4.773438 17.734375 L 3.867188 17.734375 C 3.738281 17.734375 3.636719 17.632812 3.636719 17.507812 L 3.636719 16.597656 C 3.636719 16.472656 3.738281 16.371094 3.867188 16.371094 Z M 3.867188 16.371094 "/>
<path style=" stroke:none;fill-rule:nonzero;fill:rgb(25.882354%,25.882354%,25.882354%);fill-opacity:1;" d="M 12.503906 16.371094 L 13.414062 16.371094 C 13.539062 16.371094 13.640625 16.472656 13.640625 16.597656 L 13.640625 17.507812 C 13.640625 17.632812 13.539062 17.734375 13.414062 17.734375 L 12.503906 17.734375 C 12.378906 17.734375 12.277344 17.632812 12.277344 17.507812 L 12.277344 16.597656 C 12.277344 16.472656 12.378906 16.371094 12.503906 16.371094 Z M 12.503906 16.371094 "/>
</g>
</svg>
