<?xml version="1.0" encoding="UTF-8"?>
<svg xmlns="http://www.w3.org/2000/svg" xmlns:xlink="http://www.w3.org/1999/xlink" width="22px" height="22px" viewBox="0 0 22 22" version="1.1">
<g id="surface1">
<path style=" stroke:none;fill-rule:evenodd;fill:rgb(25.882354%,64.705884%,96.078432%);fill-opacity:1;" d="M 16.195312 0.988281 C 15.265625 1.132812 14.808594 6.910156 15.226562 7.691406 C 15.9375 7.226562 17.003906 4.996094 17.335938 4.238281 C 17.078125 4.941406 16.75 8.285156 16.882812 8.324219 C 17.167969 8.699219 20.988281 2.394531 19.878906 1.945312 C 19.71875 1.878906 18.644531 3.851562 17.75 5.863281 C 17.761719 5.003906 18.457031 2.402344 18.171875 1.617188 C 17.605469 1.449219 16.53125 3.914062 16.089844 5.070312 C 15.949219 4.484375 16.695312 1.277344 16.195312 0.988281 Z M 7.738281 2.914062 C 5.796875 2.914062 5.796875 4.859375 6.769531 7.769531 C 7.253906 9.226562 6.28125 8.742188 5.945312 8 C 4.339844 3.886719 2.882812 4.371094 1.914062 4.859375 C 0.941406 5.828125 2.414062 8.84375 2.417969 9.425781 C 0.789062 12.222656 0.457031 15.539062 1.914062 17.96875 C 5.796875 23.3125 11.136719 21.367188 19.582031 15.46875 C 21.734375 13.6875 20.851562 12.140625 19.007812 11.132812 C 14.550781 8.21875 9.679688 8.742188 9.679688 8.257812 C 9.679688 5.34375 10.015625 2.964844 7.738281 2.914062 Z M 12.59375 12.128906 C 12.4375 12.988281 10.71875 14.902344 10.183594 15.457031 C 10.585938 15.003906 13.730469 13.304688 13.820312 13.414062 C 14.277344 13.53125 10.085938 18.96875 9.238281 18.117188 C 9.121094 17.996094 10.167969 16.488281 11.886719 15.164062 C 11.097656 15.507812 8.804688 16.761719 7.96875 16.804688 C 7.59375 16.347656 10 14.820312 10.515625 13.941406 C 9.917969 14.042969 6.78125 15.515625 6.328125 15.167969 C 6.097656 14.253906 11.597656 12.648438 12.597656 12.128906 Z M 12.59375 12.128906 "/>
</g>
</svg>
