
<svg xmlns="http://www.w3.org/2000/svg" xmlns:xlink="http://www.w3.org/1999/xlink" width="48px" height="48px" viewBox="0 0 48 48" version="1.1">
<g id="surface1">
<path style=" stroke:none;fill-rule:nonzero;fill:rgb(45.490196%,59.215689%,31.764707%);fill-opacity:1;" d="M 6.945312 5.335938 C 5.847656 5.335938 4.960938 6.222656 4.960938 7.320312 L 4.960938 10.296875 L 3.972656 10.296875 C 2.871094 10.296875 1.984375 11.183594 1.984375 12.28125 L 1.984375 31.132812 C 1.984375 32.234375 2.871094 33.121094 3.972656 33.121094 L 40.679688 33.121094 C 41.777344 33.121094 42.664062 32.234375 42.664062 31.132812 L 42.664062 28.160156 L 43.652344 28.160156 C 44.753906 28.160156 45.640625 27.273438 45.640625 26.171875 L 45.640625 7.320312 C 45.640625 6.222656 44.753906 5.335938 43.652344 5.335938 Z M 6.945312 5.335938 "/>
<path style=" stroke:none;fill-rule:nonzero;fill:rgb(96.078432%,96.078432%,96.078432%);fill-opacity:1;" d="M 3.972656 13.269531 L 43.652344 13.269531 C 44.207031 13.269531 44.652344 13.722656 44.652344 14.265625 L 44.652344 25.175781 C 44.652344 25.730469 44.207031 26.171875 43.652344 26.171875 L 3.972656 26.171875 C 3.417969 26.171875 2.972656 25.730469 2.972656 25.175781 L 2.972656 14.265625 C 2.972656 13.722656 3.417969 13.269531 3.972656 13.269531 Z M 3.972656 13.269531 "/>
<path style=" stroke:none;fill-rule:nonzero;fill:rgb(57.254905%,70.19608%,44.705883%);fill-opacity:1;" d="M 3.972656 17.140625 C 2.871094 17.140625 1.984375 18.027344 1.984375 19.125 L 1.984375 41.054688 C 1.984375 42.152344 2.871094 43.039062 3.972656 43.039062 L 43.652344 43.039062 C 44.753906 43.039062 45.640625 42.152344 45.640625 41.054688 L 45.640625 23.097656 C 45.640625 21.996094 44.753906 21.109375 43.652344 21.109375 L 30.757812 21.109375 C 29.660156 21.109375 28.773438 20.222656 28.773438 19.125 C 28.773438 18.027344 27.886719 17.140625 26.785156 17.140625 Z M 3.972656 17.140625 "/>
</g>
</svg>
