
<svg xmlns="http://www.w3.org/2000/svg" xmlns:xlink="http://www.w3.org/1999/xlink" width="48px" height="48px" viewBox="0 0 48 48" version="1.1">
<g id="surface1">
<path style=" stroke:none;fill-rule:nonzero;fill:rgb(45.490196%,59.215689%,31.764707%);fill-opacity:1;" d="M 6.945312 5.335938 L 43.652344 5.335938 C 44.753906 5.335938 45.640625 6.222656 45.640625 7.320312 L 45.640625 19.226562 C 45.640625 20.328125 44.753906 21.214844 43.652344 21.214844 L 6.945312 21.214844 C 5.847656 21.214844 4.960938 20.328125 4.960938 19.226562 L 4.960938 7.320312 C 4.960938 6.222656 5.847656 5.335938 6.945312 5.335938 Z M 6.945312 5.335938 "/>
<path style=" stroke:none;fill-rule:nonzero;fill:rgb(96.078432%,96.078432%,96.078432%);fill-opacity:1;" d="M 23.8125 11.292969 L 43.652344 11.292969 C 44.207031 11.292969 44.652344 11.734375 44.652344 12.28125 L 44.652344 19.226562 C 44.652344 19.773438 44.207031 20.214844 43.652344 20.214844 L 23.8125 20.214844 C 23.265625 20.214844 22.824219 19.773438 22.824219 19.226562 L 22.824219 12.28125 C 22.824219 11.734375 23.265625 11.292969 23.8125 11.292969 Z M 23.8125 11.292969 "/>
<path style=" stroke:none;fill-rule:nonzero;fill:rgb(57.254905%,70.19608%,44.705883%);fill-opacity:1;" d="M 3.972656 9.308594 C 2.871094 9.308594 1.984375 10.191406 1.984375 11.292969 L 1.984375 41.054688 C 1.984375 42.152344 2.871094 43.039062 3.972656 43.039062 L 43.652344 43.039062 C 44.753906 43.039062 45.640625 42.152344 45.640625 41.054688 L 45.640625 17.242188 C 45.640625 16.140625 44.753906 15.253906 43.652344 15.253906 L 30.757812 15.253906 C 29.660156 15.253906 28.773438 14.371094 28.773438 13.269531 L 28.773438 11.292969 C 28.773438 10.191406 27.886719 9.308594 26.785156 9.308594 Z M 3.972656 9.308594 "/>
<path style=" stroke:none;fill-rule:nonzero;fill:rgb(100%,100%,100%);fill-opacity:0.352941;" d="M 17.863281 19.226562 C 17.308594 19.226562 16.867188 19.671875 16.867188 20.214844 L 16.867188 34.109375 C 16.867188 34.660156 17.308594 35.105469 17.863281 35.105469 L 18.851562 35.105469 L 18.851562 19.226562 Z M 19.839844 19.226562 L 19.839844 35.105469 L 29.761719 35.105469 C 30.316406 35.105469 30.757812 34.660156 30.757812 34.109375 L 30.757812 20.214844 C 30.757812 19.671875 30.316406 19.226562 29.761719 19.226562 Z M 22.824219 22.695312 L 27.28125 22.695312 C 27.5625 22.695312 27.785156 22.917969 27.785156 23.199219 C 27.785156 23.472656 27.5625 23.691406 27.28125 23.691406 L 22.824219 23.691406 C 22.542969 23.691406 22.320312 23.472656 22.320312 23.199219 C 22.320312 22.917969 22.542969 22.695312 22.824219 22.695312 Z M 22.824219 25.175781 L 27.28125 25.175781 C 27.5625 25.175781 27.785156 25.398438 27.785156 25.679688 C 27.785156 25.953125 27.5625 26.171875 27.28125 26.171875 L 22.824219 26.171875 C 22.542969 26.171875 22.320312 25.953125 22.320312 25.679688 C 22.320312 25.398438 22.542969 25.175781 22.824219 25.175781 Z M 22.824219 27.65625 L 27.28125 27.65625 C 27.5625 27.65625 27.785156 27.878906 27.785156 28.160156 C 27.785156 28.433594 27.5625 28.652344 27.28125 28.652344 L 22.824219 28.652344 C 22.542969 28.652344 22.320312 28.433594 22.320312 28.160156 C 22.320312 27.878906 22.542969 27.65625 22.824219 27.65625 Z M 22.824219 27.65625 "/>
</g>
</svg>
