
<svg xmlns="http://www.w3.org/2000/svg" xmlns:xlink="http://www.w3.org/1999/xlink" width="48px" height="48px" viewBox="0 0 48 48" version="1.1">
<g id="surface1">
<path style=" stroke:none;fill-rule:nonzero;fill:rgb(45.490196%,59.215689%,31.764707%);fill-opacity:1;" d="M 6.945312 5.335938 L 43.652344 5.335938 C 44.753906 5.335938 45.640625 6.222656 45.640625 7.320312 L 45.640625 19.226562 C 45.640625 20.328125 44.753906 21.214844 43.652344 21.214844 L 6.945312 21.214844 C 5.847656 21.214844 4.960938 20.328125 4.960938 19.226562 L 4.960938 7.320312 C 4.960938 6.222656 5.847656 5.335938 6.945312 5.335938 Z M 6.945312 5.335938 "/>
<path style=" stroke:none;fill-rule:nonzero;fill:rgb(96.078432%,96.078432%,96.078432%);fill-opacity:1;" d="M 23.8125 11.292969 L 43.652344 11.292969 C 44.207031 11.292969 44.652344 11.734375 44.652344 12.28125 L 44.652344 19.226562 C 44.652344 19.773438 44.207031 20.214844 43.652344 20.214844 L 23.8125 20.214844 C 23.265625 20.214844 22.824219 19.773438 22.824219 19.226562 L 22.824219 12.28125 C 22.824219 11.734375 23.265625 11.292969 23.8125 11.292969 Z M 23.8125 11.292969 "/>
<path style=" stroke:none;fill-rule:nonzero;fill:rgb(57.254905%,70.19608%,44.705883%);fill-opacity:1;" d="M 3.972656 9.308594 C 2.871094 9.308594 1.984375 10.191406 1.984375 11.292969 L 1.984375 41.054688 C 1.984375 42.152344 2.871094 43.039062 3.972656 43.039062 L 43.652344 43.039062 C 44.753906 43.039062 45.640625 42.152344 45.640625 41.054688 L 45.640625 17.242188 C 45.640625 16.140625 44.753906 15.246094 43.652344 15.253906 L 30.757812 15.253906 C 29.660156 15.253906 28.773438 14.371094 28.773438 13.269531 L 28.773438 11.292969 C 28.773438 10.191406 27.886719 9.308594 26.785156 9.308594 Z M 3.972656 9.308594 "/>
<path style=" stroke:none;fill-rule:nonzero;fill:rgb(100%,100%,100%);fill-opacity:0.352941;" d="M 23.8125 18.230469 C 25.457031 18.230469 26.785156 19.566406 26.785156 21.214844 C 26.785156 22.859375 25.457031 24.1875 23.8125 24.1875 C 22.167969 24.1875 20.839844 22.859375 20.839844 21.214844 C 20.839844 19.566406 22.167969 18.230469 23.8125 18.230469 Z M 23.8125 18.230469 "/>
<path style=" stroke:none;fill-rule:nonzero;fill:rgb(100%,100%,100%);fill-opacity:0.352941;" d="M 21.828125 25.175781 C 19.628906 25.175781 17.855469 26.949219 17.855469 29.148438 L 17.855469 33.121094 C 17.863281 33.664062 18.296875 34.109375 18.851562 34.109375 L 19.839844 34.109375 L 19.839844 29.890625 C 19.839844 29.617188 20.0625 29.394531 20.34375 29.394531 C 20.617188 29.394531 20.839844 29.617188 20.839844 29.890625 L 20.839844 34.109375 L 26.785156 34.109375 L 26.785156 29.890625 C 26.785156 29.617188 27.007812 29.394531 27.28125 29.394531 C 27.5625 29.394531 27.785156 29.617188 27.785156 29.890625 L 27.785156 34.109375 L 28.773438 34.109375 C 29.328125 34.109375 29.761719 33.664062 29.761719 33.121094 L 29.761719 29.148438 C 29.761719 26.949219 27.996094 25.175781 25.796875 25.175781 Z M 21.828125 25.175781 "/>
</g>
</svg>
