<?xml version="1.0" encoding="UTF-8"?>
<svg xmlns="http://www.w3.org/2000/svg" xmlns:xlink="http://www.w3.org/1999/xlink" width="22px" height="22px" viewBox="0 0 22 22" version="1.1">
<g id="surface1">
<path style=" stroke:none;fill-rule:nonzero;fill:rgb(36.862746%,20.784314%,69.411767%);fill-opacity:1;" d="M 3.183594 2.445312 L 20.007812 2.445312 C 20.511719 2.445312 20.917969 2.851562 20.917969 3.355469 L 20.917969 8.8125 C 20.917969 9.316406 20.511719 9.722656 20.007812 9.722656 L 3.183594 9.722656 C 2.679688 9.722656 2.273438 9.316406 2.273438 8.8125 L 2.273438 3.355469 C 2.273438 2.851562 2.679688 2.445312 3.183594 2.445312 Z M 3.183594 2.445312 "/>
<path style=" stroke:none;fill-rule:nonzero;fill:rgb(96.078432%,96.078432%,96.078432%);fill-opacity:1;" d="M 10.914062 5.175781 L 20.007812 5.175781 C 20.261719 5.175781 20.464844 5.378906 20.464844 5.628906 L 20.464844 8.8125 C 20.464844 9.0625 20.261719 9.265625 20.007812 9.265625 L 10.914062 9.265625 C 10.664062 9.265625 10.460938 9.0625 10.460938 8.8125 L 10.460938 5.628906 C 10.460938 5.378906 10.664062 5.175781 10.914062 5.175781 Z M 10.914062 5.175781 "/>
<path style=" stroke:none;fill-rule:nonzero;fill:rgb(49.411765%,34.117648%,76.078433%);fill-opacity:1;" d="M 1.820312 4.265625 C 1.316406 4.265625 0.910156 4.671875 0.910156 5.175781 L 0.910156 18.816406 C 0.910156 19.320312 1.316406 19.726562 1.820312 19.726562 L 20.007812 19.726562 C 20.511719 19.726562 20.917969 19.320312 20.917969 18.816406 L 20.917969 8.355469 C 20.917969 7.855469 20.511719 7.457031 20.007812 7.449219 L 14.097656 7.449219 C 13.59375 7.449219 13.1875 7.042969 13.1875 6.539062 L 13.1875 5.175781 C 13.1875 4.671875 12.78125 4.265625 12.277344 4.265625 Z M 1.820312 4.265625 "/>
</g>
</svg>
