<?xml version="1.0" encoding="UTF-8"?>
<svg xmlns="http://www.w3.org/2000/svg" xmlns:xlink="http://www.w3.org/1999/xlink" width="24px" height="24px" viewBox="0 0 24 24" version="1.1">
<g id="surface1">
<path style=" stroke:none;fill-rule:nonzero;fill:rgb(95.686275%,26.274511%,21.176471%);fill-opacity:1;" d="M 6.945312 1.179688 L 19.84375 1.179688 C 20.390625 1.179688 20.835938 1.625 20.835938 2.171875 L 20.835938 22.015625 C 20.835938 22.5625 20.390625 23.007812 19.84375 23.007812 L 6.945312 23.007812 C 6.398438 23.007812 5.953125 22.5625 5.953125 22.015625 L 5.953125 2.171875 C 5.953125 1.625 6.398438 1.179688 6.945312 1.179688 Z M 6.945312 1.179688 "/>
<path style=" stroke:none;fill-rule:nonzero;fill:rgb(96.078432%,96.078432%,96.078432%);fill-opacity:1;" d="M 5.457031 1.675781 L 19.84375 1.675781 C 20.117188 1.675781 20.339844 1.898438 20.339844 2.171875 L 20.339844 22.015625 C 20.339844 22.289062 20.117188 22.511719 19.84375 22.511719 L 5.457031 22.511719 C 5.183594 22.511719 4.960938 22.289062 4.960938 22.015625 L 4.960938 2.171875 C 4.960938 1.898438 5.183594 1.675781 5.457031 1.675781 Z M 5.457031 1.675781 "/>
<path style=" stroke:none;fill-rule:nonzero;fill:rgb(93.725491%,32.549021%,31.37255%);fill-opacity:1;" d="M 5.457031 1.179688 L 18.851562 1.179688 C 19.398438 1.179688 19.84375 1.625 19.84375 2.171875 L 19.84375 22.015625 C 19.84375 22.5625 19.398438 23.007812 18.851562 23.007812 L 5.457031 23.007812 C 4.910156 23.007812 4.464844 22.5625 4.464844 22.015625 L 4.464844 2.171875 C 4.464844 1.625 4.910156 1.179688 5.457031 1.179688 Z M 5.457031 1.179688 "/>
<path style=" stroke:none;fill-rule:nonzero;fill:rgb(89.803922%,45.09804%,45.09804%);fill-opacity:1;" d="M 19.363281 9.132812 L 19.363281 9.140625 C 19.273438 9.140625 19.183594 9.140625 19.097656 9.15625 C 17.550781 9.332031 15.9375 12.394531 15.828125 15.429688 C 13.789062 16.71875 11.613281 17.90625 9.449219 18.832031 C 8.378906 18.464844 5.902344 17.558594 4.304688 17.914062 C 3.738281 18.039062 3.257812 18.464844 2.976562 18.957031 L 2.976562 19.320312 C 3.230469 19.050781 3.671875 18.960938 4.171875 18.957031 C 4.542969 18.953125 4.945312 19 5.320312 19.058594 C 5.398438 19.066406 5.507812 19.078125 5.601562 19.085938 C 6.265625 19.179688 6.710938 19.265625 7.023438 19.347656 L 7.023438 19.363281 C 7.230469 19.449219 7.449219 19.539062 7.671875 19.632812 C 6.582031 20.300781 3.84375 20.738281 2.976562 20.324219 L 2.976562 20.550781 C 3.316406 20.960938 3.882812 21.332031 4.058594 21.332031 C 5.238281 21.550781 7.660156 20.824219 9.136719 20.277344 C 10.910156 21.074219 12.945312 22.0625 14.769531 23.007812 L 18.699219 23.007812 C 18.253906 20.96875 17.914062 18.429688 17.699219 16.296875 C 18.519531 15.707031 19.246094 15.078125 19.84375 14.445312 L 19.84375 12.445312 C 19.242188 13.035156 18.449219 13.664062 17.535156 14.300781 C 17.570312 11.183594 18.125 8.972656 19.84375 9.355469 L 19.84375 9.179688 C 19.675781 9.140625 19.515625 9.144531 19.363281 9.132812 Z M 15.988281 17.152344 C 16.269531 19.195312 16.324219 19.746094 16.671875 22.476562 C 15.027344 21.519531 13.117188 20.410156 11.394531 19.613281 C 13.070312 18.925781 14.476562 18.125 15.988281 17.152344 Z M 18.738281 23.007812 Z M 18.738281 23.007812 "/>
<path style=" stroke:none;fill-rule:nonzero;fill:rgb(25.882354%,25.882354%,25.882354%);fill-opacity:1;" d="M 3.96875 1.179688 C 3.417969 1.179688 2.976562 1.621094 2.976562 2.171875 L 2.976562 22.015625 C 2.976562 22.566406 3.417969 23.007812 3.96875 23.007812 L 5.953125 23.007812 L 5.953125 1.179688 Z M 3.96875 1.179688 "/>
<path style=" stroke:none;fill-rule:nonzero;fill:rgb(93.333334%,93.333334%,93.333334%);fill-opacity:1;" d="M 6.945312 1.179688 L 8.929688 1.179688 L 8.929688 14.078125 L 7.9375 12.589844 L 6.945312 14.078125 Z M 6.945312 1.179688 "/>
<path style=" stroke:none;fill-rule:nonzero;fill:rgb(38.039216%,38.039216%,38.039216%);fill-opacity:1;" d="M 2.976562 11.597656 L 5.457031 11.597656 L 5.457031 12.589844 L 2.976562 12.589844 Z M 2.976562 11.597656 "/>
<path style=" stroke:none;fill-rule:nonzero;fill:rgb(38.039216%,38.039216%,38.039216%);fill-opacity:1;" d="M 2.976562 6.140625 L 5.457031 6.140625 L 5.457031 7.132812 L 2.976562 7.132812 Z M 2.976562 6.140625 "/>
<path style=" stroke:none;fill-rule:nonzero;fill:rgb(38.039216%,38.039216%,38.039216%);fill-opacity:1;" d="M 2.976562 17.054688 L 5.457031 17.054688 L 5.457031 18.046875 L 2.976562 18.046875 Z M 2.976562 17.054688 "/>
</g>
</svg>
