<?xml version="1.0" encoding="UTF-8"?>
<svg xmlns="http://www.w3.org/2000/svg" xmlns:xlink="http://www.w3.org/1999/xlink" width="24px" height="24px" viewBox="0 0 24 24" version="1.1">
<g id="surface1">
<path style=" stroke:none;fill-rule:nonzero;fill:rgb(74.117649%,74.117649%,74.117649%);fill-opacity:1;" d="M 10.914062 2.667969 L 12.898438 2.667969 L 11.90625 1.179688 Z M 10.914062 2.667969 "/>
<path style=" stroke:none;fill-rule:nonzero;fill:rgb(74.117649%,74.117649%,74.117649%);fill-opacity:1;" d="M 10.914062 21.519531 L 12.898438 21.519531 L 11.90625 23.007812 Z M 10.914062 21.519531 "/>
<path style=" stroke:none;fill-rule:nonzero;fill:rgb(74.117649%,74.117649%,74.117649%);fill-opacity:1;" d="M 15.761719 3.433594 L 17.476562 4.425781 L 17.363281 2.640625 Z M 15.761719 3.433594 "/>
<path style=" stroke:none;fill-rule:nonzero;fill:rgb(74.117649%,74.117649%,74.117649%);fill-opacity:1;" d="M 6.335938 19.761719 L 8.050781 20.753906 L 6.449219 21.546875 Z M 6.335938 19.761719 "/>
<path style=" stroke:none;fill-rule:nonzero;fill:rgb(74.117649%,74.117649%,74.117649%);fill-opacity:1;" d="M 19.574219 6.523438 L 20.566406 8.238281 L 21.359375 6.636719 Z M 19.574219 6.523438 "/>
<path style=" stroke:none;fill-rule:nonzero;fill:rgb(74.117649%,74.117649%,74.117649%);fill-opacity:1;" d="M 3.246094 15.949219 L 4.238281 17.664062 L 2.453125 17.550781 Z M 3.246094 15.949219 "/>
<path style=" stroke:none;fill-rule:nonzero;fill:rgb(74.117649%,74.117649%,74.117649%);fill-opacity:1;" d="M 21.332031 11.101562 L 21.332031 13.085938 L 22.820312 12.09375 Z M 21.332031 11.101562 "/>
<path style=" stroke:none;fill-rule:nonzero;fill:rgb(74.117649%,74.117649%,74.117649%);fill-opacity:1;" d="M 2.480469 11.101562 L 2.480469 13.085938 L 0.992188 12.09375 Z M 2.480469 11.101562 "/>
<path style=" stroke:none;fill-rule:nonzero;fill:rgb(74.117649%,74.117649%,74.117649%);fill-opacity:1;" d="M 20.566406 15.949219 L 19.574219 17.664062 L 21.359375 17.550781 Z M 20.566406 15.949219 "/>
<path style=" stroke:none;fill-rule:nonzero;fill:rgb(74.117649%,74.117649%,74.117649%);fill-opacity:1;" d="M 4.238281 6.523438 L 3.246094 8.238281 L 2.453125 6.636719 Z M 4.238281 6.523438 "/>
<path style=" stroke:none;fill-rule:nonzero;fill:rgb(74.117649%,74.117649%,74.117649%);fill-opacity:1;" d="M 17.476562 19.761719 L 15.761719 20.753906 L 17.363281 21.546875 Z M 17.476562 19.761719 "/>
<path style=" stroke:none;fill-rule:nonzero;fill:rgb(74.117649%,74.117649%,74.117649%);fill-opacity:1;" d="M 8.050781 3.433594 L 6.335938 4.425781 L 6.449219 2.640625 Z M 8.050781 3.433594 "/>
<path style=" stroke:none;fill-rule:nonzero;fill:rgb(37.64706%,49.019608%,54.509807%);fill-opacity:1;" d="M 7.632812 7.851562 L 9.707031 6.652344 L 17.238281 19.699219 C 17.9375 20.910156 17.644531 22 17.601562 22.71875 C 16.953125 22.402344 15.863281 22.109375 15.164062 20.898438 Z M 7.632812 7.851562 "/>
<path style=" stroke:none;fill-rule:nonzero;fill:rgb(45.882353%,45.882353%,45.882353%);fill-opacity:1;" d="M 6.175781 7.722656 L 10.324219 5.328125 L 10.722656 6.019531 L 6.574219 8.414062 Z M 6.175781 7.722656 "/>
<path style=" stroke:none;fill-rule:nonzero;fill:rgb(45.882353%,45.882353%,45.882353%);fill-opacity:1;" d="M 5.628906 7.578125 C 6.011719 7.355469 6.5 7.488281 6.722656 7.871094 C 6.941406 8.25 6.808594 8.738281 6.429688 8.960938 C 6.046875 9.179688 5.558594 9.050781 5.335938 8.667969 C 5.117188 8.285156 5.246094 7.796875 5.628906 7.578125 Z M 5.628906 7.578125 "/>
<path style=" stroke:none;fill-rule:nonzero;fill:rgb(45.882353%,45.882353%,45.882353%);fill-opacity:1;" d="M 10.472656 4.78125 C 10.851562 4.5625 11.339844 4.691406 11.5625 5.074219 C 11.78125 5.457031 11.652344 5.945312 11.269531 6.164062 C 10.886719 6.386719 10.398438 6.253906 10.179688 5.871094 C 9.957031 5.492188 10.089844 5.003906 10.472656 4.78125 Z M 10.472656 4.78125 "/>
<path style=" stroke:none;fill-rule:nonzero;fill:rgb(38.039216%,38.039216%,38.039216%);fill-opacity:1;" d="M 5.5625 3.464844 L 6.945312 2.667969 L 8.941406 6.125 L 7.558594 6.925781 Z M 5.5625 3.464844 "/>
<path style=" stroke:none;fill-rule:nonzero;fill:rgb(45.882353%,45.882353%,45.882353%);fill-opacity:1;" d="M 5.253906 1.339844 C 5.828125 1.007812 6.5625 1.203125 6.890625 1.777344 C 7.222656 2.351562 7.027344 3.082031 6.453125 3.414062 C 5.878906 3.742188 5.148438 3.546875 4.816406 2.972656 C 4.484375 2.402344 4.683594 1.667969 5.253906 1.339844 Z M 5.253906 1.339844 "/>
<path style=" stroke:none;fill-rule:nonzero;fill:rgb(56.470591%,64.313728%,68.235296%);fill-opacity:1;" d="M 8.671875 7.253906 L 17.601562 22.71875 C 17.644531 22 17.9375 20.910156 17.238281 19.699219 L 9.707031 6.652344 Z M 8.671875 7.253906 "/>
<path style=" stroke:none;fill-rule:nonzero;fill:rgb(69.01961%,74.509805%,77.254903%);fill-opacity:1;" d="M 7.613281 7.816406 C 7.945312 8.390625 8.671875 8.585938 9.25 8.253906 C 9.824219 7.921875 10.019531 7.191406 9.6875 6.617188 Z M 7.613281 7.816406 "/>
<path style=" stroke:none;fill-rule:nonzero;fill:rgb(74.117649%,74.117649%,74.117649%);fill-opacity:1;" d="M 5.0625 1.746094 C 5.199219 1.566406 5.347656 1.597656 5.394531 1.820312 C 5.441406 2.042969 5.371094 2.367188 5.234375 2.550781 C 5.097656 2.734375 4.949219 2.699219 4.902344 2.480469 C 4.855469 2.257812 4.929688 1.929688 5.0625 1.746094 Z M 5.0625 1.746094 "/>
<path style=" stroke:none;fill-rule:nonzero;fill:rgb(74.117649%,74.117649%,74.117649%);fill-opacity:1;" d="M 10.347656 5.070312 C 10.414062 4.980469 10.488281 4.996094 10.511719 5.105469 C 10.535156 5.214844 10.5 5.378906 10.429688 5.46875 C 10.363281 5.5625 10.289062 5.542969 10.265625 5.433594 C 10.242188 5.324219 10.28125 5.160156 10.347656 5.070312 Z M 10.347656 5.070312 "/>
<path style=" stroke:none;fill-rule:nonzero;fill:rgb(74.117649%,74.117649%,74.117649%);fill-opacity:1;" d="M 5.40625 7.921875 C 5.472656 7.832031 5.546875 7.847656 5.570312 7.957031 C 5.59375 8.070312 5.558594 8.234375 5.492188 8.324219 C 5.425781 8.414062 5.351562 8.398438 5.328125 8.289062 C 5.304688 8.179688 5.335938 8.015625 5.40625 7.921875 Z M 5.40625 7.921875 "/>
<path style=" stroke:none;fill-rule:nonzero;fill:rgb(37.64706%,49.019608%,54.509807%);fill-opacity:1;" d="M 16.203125 7.851562 L 14.125 6.652344 L 6.59375 19.699219 C 5.894531 20.910156 6.1875 22 6.234375 22.71875 C 6.878906 22.402344 7.96875 22.109375 8.667969 20.898438 Z M 16.203125 7.851562 "/>
<path style=" stroke:none;fill-rule:nonzero;fill:rgb(45.882353%,45.882353%,45.882353%);fill-opacity:1;" d="M 17.660156 7.722656 L 13.507812 5.328125 L 13.109375 6.019531 L 17.261719 8.414062 Z M 17.660156 7.722656 "/>
<path style=" stroke:none;fill-rule:nonzero;fill:rgb(45.882353%,45.882353%,45.882353%);fill-opacity:1;" d="M 18.203125 7.578125 C 17.824219 7.355469 17.335938 7.488281 17.113281 7.871094 C 16.894531 8.25 17.023438 8.738281 17.40625 8.960938 C 17.789062 9.179688 18.277344 9.050781 18.496094 8.667969 C 18.71875 8.285156 18.585938 7.796875 18.203125 7.578125 Z M 18.203125 7.578125 "/>
<path style=" stroke:none;fill-rule:nonzero;fill:rgb(45.882353%,45.882353%,45.882353%);fill-opacity:1;" d="M 13.363281 4.78125 C 12.980469 4.5625 12.492188 4.691406 12.273438 5.074219 C 12.050781 5.457031 12.183594 5.945312 12.566406 6.164062 C 12.945312 6.386719 13.433594 6.253906 13.65625 5.871094 C 13.875 5.492188 13.746094 5.003906 13.363281 4.78125 Z M 13.363281 4.78125 "/>
<path style=" stroke:none;fill-rule:nonzero;fill:rgb(38.039216%,38.039216%,38.039216%);fill-opacity:1;" d="M 18.273438 3.464844 L 16.890625 2.667969 L 14.894531 6.125 L 16.277344 6.925781 Z M 18.273438 3.464844 "/>
<path style=" stroke:none;fill-rule:nonzero;fill:rgb(45.882353%,45.882353%,45.882353%);fill-opacity:1;" d="M 18.578125 1.339844 C 18.007812 1.007812 17.273438 1.203125 16.941406 1.777344 C 16.613281 2.351562 16.808594 3.082031 17.382812 3.414062 C 17.953125 3.742188 18.6875 3.546875 19.015625 2.972656 C 19.347656 2.402344 19.152344 1.667969 18.578125 1.339844 Z M 18.578125 1.339844 "/>
<path style=" stroke:none;fill-rule:nonzero;fill:rgb(56.470591%,64.313728%,68.235296%);fill-opacity:1;" d="M 15.164062 7.253906 L 6.234375 22.71875 C 6.1875 22 5.894531 20.910156 6.59375 19.699219 L 14.125 6.652344 Z M 15.164062 7.253906 "/>
<path style=" stroke:none;fill-rule:nonzero;fill:rgb(69.01961%,74.509805%,77.254903%);fill-opacity:1;" d="M 16.222656 7.816406 C 15.890625 8.390625 15.160156 8.585938 14.585938 8.253906 C 14.011719 7.921875 13.816406 7.191406 14.148438 6.617188 Z M 16.222656 7.816406 "/>
<path style=" stroke:none;fill-rule:nonzero;fill:rgb(74.117649%,74.117649%,74.117649%);fill-opacity:1;" d="M 18.769531 1.746094 C 18.636719 1.566406 18.488281 1.597656 18.441406 1.820312 C 18.394531 2.042969 18.464844 2.367188 18.601562 2.550781 C 18.734375 2.734375 18.882812 2.699219 18.929688 2.480469 C 18.976562 2.257812 18.90625 1.929688 18.769531 1.746094 Z M 18.769531 1.746094 "/>
<path style=" stroke:none;fill-rule:nonzero;fill:rgb(74.117649%,74.117649%,74.117649%);fill-opacity:1;" d="M 13.488281 5.070312 C 13.417969 4.980469 13.34375 4.996094 13.324219 5.105469 C 13.300781 5.214844 13.335938 5.378906 13.402344 5.46875 C 13.472656 5.5625 13.546875 5.542969 13.566406 5.433594 C 13.589844 5.324219 13.554688 5.160156 13.488281 5.070312 Z M 13.488281 5.070312 "/>
<path style=" stroke:none;fill-rule:nonzero;fill:rgb(74.117649%,74.117649%,74.117649%);fill-opacity:1;" d="M 18.429688 7.921875 C 18.363281 7.832031 18.289062 7.847656 18.265625 7.957031 C 18.242188 8.070312 18.277344 8.234375 18.34375 8.324219 C 18.410156 8.414062 18.484375 8.398438 18.507812 8.289062 C 18.53125 8.179688 18.496094 8.015625 18.429688 7.921875 Z M 18.429688 7.921875 "/>
<path style=" stroke:none;fill-rule:nonzero;fill:rgb(93.725491%,32.549021%,31.37255%);fill-opacity:1;" d="M 11.90625 2.171875 C 17.386719 2.171875 21.828125 6.613281 21.828125 12.09375 C 21.828125 17.574219 17.386719 22.015625 11.90625 22.015625 C 6.425781 22.015625 1.984375 17.574219 1.984375 12.09375 C 1.984375 6.613281 6.425781 2.171875 11.90625 2.171875 Z M 11.90625 2.171875 "/>
<path style=" stroke:none;fill-rule:nonzero;fill:rgb(87.843138%,87.843138%,87.843138%);fill-opacity:1;" d="M 11.90625 2.257812 C 9.5625 4.121094 5.917969 4.148438 2.976562 4.144531 C 3.058594 8.203125 4.140625 12.699219 5.769531 16.191406 C 6.613281 18.011719 7.609375 19.554688 8.664062 20.625 C 9.722656 21.695312 10.820312 22.285156 11.90625 22.285156 C 12.992188 22.285156 14.089844 21.695312 15.148438 20.625 C 16.203125 19.554688 17.199219 18.011719 18.042969 16.191406 C 19.671875 12.699219 20.753906 8.203125 20.835938 4.144531 C 17.894531 4.148438 14.25 4.121094 11.90625 2.257812 Z M 11.90625 2.257812 "/>
<path style=" stroke:none;fill-rule:nonzero;fill:rgb(61.960787%,61.960787%,61.960787%);fill-opacity:1;" d="M 11.90625 3.167969 C 9.824219 4.875 6.585938 4.902344 3.96875 4.902344 C 4.042969 8.617188 5.003906 12.742188 6.449219 15.945312 C 7.203125 17.613281 8.085938 19.027344 9.027344 20.011719 C 9.964844 20.992188 10.941406 21.53125 11.90625 21.53125 C 12.871094 21.53125 13.847656 20.992188 14.785156 20.011719 C 15.726562 19.027344 16.609375 17.613281 17.363281 15.945312 C 18.808594 12.742188 19.769531 8.617188 19.84375 4.902344 C 17.226562 4.902344 13.988281 4.875 11.90625 3.167969 Z M 11.90625 3.167969 "/>
</g>
</svg>
