
<svg xmlns="http://www.w3.org/2000/svg" xmlns:xlink="http://www.w3.org/1999/xlink" width="24px" height="24px" viewBox="0 0 24 24" version="1.1">
<g id="surface1">
<path style=" stroke:none;fill-rule:nonzero;fill:rgb(36.078432%,41.960785%,75.294119%);fill-opacity:1;" d="M 3.222656 2.976562 L 20.589844 2.976562 C 20.726562 2.976562 20.835938 3.085938 20.835938 3.222656 L 20.835938 20.589844 C 20.835938 20.726562 20.726562 20.835938 20.589844 20.835938 L 3.222656 20.835938 C 3.085938 20.835938 2.976562 20.726562 2.976562 20.589844 L 2.976562 3.222656 C 2.976562 3.085938 3.085938 2.976562 3.222656 2.976562 Z M 3.222656 2.976562 "/>
<path style=" stroke:none;fill-rule:nonzero;fill:rgb(93.725491%,32.549021%,31.37255%);fill-opacity:1;" d="M 1.953125 0.992188 L 21.859375 0.992188 C 22.390625 0.992188 22.820312 1.421875 22.820312 1.953125 L 22.820312 21.859375 C 22.820312 22.390625 22.390625 22.820312 21.859375 22.820312 L 1.953125 22.820312 C 1.421875 22.820312 0.992188 22.390625 0.992188 21.859375 L 0.992188 1.953125 C 0.992188 1.421875 1.421875 0.992188 1.953125 0.992188 Z M 1.953125 0.992188 "/>
<path style=" stroke:none;fill-rule:nonzero;fill:rgb(96.078432%,96.078432%,96.078432%);fill-opacity:1;" d="M 2.480469 1.984375 L 21.332031 1.984375 C 21.605469 1.984375 21.828125 2.207031 21.828125 2.480469 L 21.828125 21.332031 C 21.828125 21.605469 21.605469 21.828125 21.332031 21.828125 L 2.480469 21.828125 C 2.207031 21.828125 1.984375 21.605469 1.984375 21.332031 L 1.984375 2.480469 C 1.984375 2.207031 2.207031 1.984375 2.480469 1.984375 Z M 2.480469 1.984375 "/>
<path style=" stroke:none;fill-rule:nonzero;fill:rgb(93.725491%,32.549021%,31.37255%);fill-opacity:1;" d="M 3.222656 2.976562 L 20.589844 2.976562 C 20.726562 2.976562 20.835938 3.085938 20.835938 3.222656 L 20.835938 20.589844 C 20.835938 20.726562 20.726562 20.835938 20.589844 20.835938 L 3.222656 20.835938 C 3.085938 20.835938 2.976562 20.726562 2.976562 20.589844 L 2.976562 3.222656 C 2.976562 3.085938 3.085938 2.976562 3.222656 2.976562 Z M 3.222656 2.976562 "/>
<path style=" stroke:none;fill-rule:nonzero;fill:rgb(96.078432%,96.078432%,96.078432%);fill-opacity:1;" d="M 13.6875 5.582031 C 10.957031 5.6875 10.824219 8.507812 9.796875 10.144531 C 8.757812 11.183594 6.675781 11.878906 6.675781 11.878906 C 6.675781 11.878906 5.636719 12.226562 5.636719 13.613281 C 5.636719 15.691406 7.023438 16.039062 8.0625 16.039062 C 9.105469 16.039062 9.796875 15.691406 11.183594 16.039062 C 13.230469 16.550781 15 18.121094 15 18.121094 C 15 18.121094 17.425781 18.8125 18.121094 16.734375 C 18.464844 15.691406 17.078125 13.960938 17.078125 13.960938 C 17.078125 13.960938 15.691406 12.605469 15.691406 10.839844 C 15.691406 9.796875 16.386719 9.105469 16.386719 7.71875 C 16.386719 7.023438 16.039062 5.984375 14.304688 5.636719 C 14.089844 5.59375 13.882812 5.578125 13.6875 5.582031 Z M 12.570312 10.144531 C 13.914062 10.144531 15 11.230469 15 12.570312 C 15 13.914062 13.914062 15 12.570312 15 C 11.230469 15 10.144531 13.914062 10.144531 12.570312 C 10.144531 11.230469 11.230469 10.144531 12.570312 10.144531 Z M 12.570312 10.144531 "/>
</g>
</svg>
