<?xml version="1.0" encoding="UTF-8"?>
<svg xmlns="http://www.w3.org/2000/svg" xmlns:xlink="http://www.w3.org/1999/xlink" width="24px" height="24px" viewBox="0 0 24 24" version="1.1">
<g id="surface1">
<path style=" stroke:none;fill-rule:nonzero;fill:rgb(47.058824%,56.470591%,61.176473%);fill-opacity:1;" d="M 1.984375 1.179688 L 21.828125 1.179688 C 22.375 1.179688 22.820312 1.625 22.820312 2.171875 L 22.820312 22.015625 C 22.820312 22.5625 22.375 23.007812 21.828125 23.007812 L 1.984375 23.007812 C 1.4375 23.007812 0.992188 22.5625 0.992188 22.015625 L 0.992188 2.171875 C 0.992188 1.625 1.4375 1.179688 1.984375 1.179688 Z M 1.984375 1.179688 "/>
<path style=" stroke:none;fill-rule:nonzero;fill:rgb(93.333334%,93.333334%,93.333334%);fill-opacity:1;" d="M 2.480469 2.171875 L 21.332031 2.171875 C 21.605469 2.171875 21.828125 2.394531 21.828125 2.667969 L 21.828125 21.519531 C 21.828125 21.792969 21.605469 22.015625 21.332031 22.015625 L 2.480469 22.015625 C 2.207031 22.015625 1.984375 21.792969 1.984375 21.519531 L 1.984375 2.667969 C 1.984375 2.394531 2.207031 2.171875 2.480469 2.171875 Z M 2.480469 2.171875 "/>
<path style=" stroke:none;fill-rule:nonzero;fill:rgb(69.01961%,74.509805%,77.254903%);fill-opacity:1;" d="M 2.480469 2.171875 C 2.207031 2.171875 1.984375 2.394531 1.984375 2.667969 L 1.984375 4.15625 C 1.984375 3.058594 2.871094 2.171875 3.96875 2.171875 Z M 19.84375 2.171875 C 20.941406 2.171875 21.828125 3.058594 21.828125 4.15625 L 21.828125 2.667969 C 21.828125 2.394531 21.605469 2.171875 21.332031 2.171875 Z M 1.984375 17.550781 L 1.984375 21.519531 C 1.984375 21.792969 2.207031 22.015625 2.480469 22.015625 L 21.332031 22.015625 C 21.605469 22.015625 21.828125 21.792969 21.828125 21.519531 L 21.828125 17.550781 C 21.828125 18.648438 20.941406 19.535156 19.84375 19.535156 L 3.96875 19.535156 C 2.871094 19.535156 1.984375 18.648438 1.984375 17.550781 Z M 1.984375 17.550781 "/>
<path style=" stroke:none;fill-rule:nonzero;fill:rgb(25.882354%,25.882354%,25.882354%);fill-opacity:1;" d="M 7.441406 6.140625 L 8.433594 6.140625 C 8.707031 6.140625 8.929688 6.363281 8.929688 6.636719 L 8.929688 13.582031 C 8.929688 13.855469 8.707031 14.078125 8.433594 14.078125 L 7.441406 14.078125 C 7.167969 14.078125 6.945312 13.855469 6.945312 13.582031 L 6.945312 6.636719 C 6.945312 6.363281 7.167969 6.140625 7.441406 6.140625 Z M 7.441406 6.140625 "/>
<path style=" stroke:none;fill-rule:nonzero;fill:rgb(25.882354%,25.882354%,25.882354%);fill-opacity:1;" d="M 15.378906 6.140625 L 16.371094 6.140625 C 16.644531 6.140625 16.867188 6.363281 16.867188 6.636719 L 16.867188 13.582031 C 16.867188 13.855469 16.644531 14.078125 16.371094 14.078125 L 15.378906 14.078125 C 15.105469 14.078125 14.882812 13.855469 14.882812 13.582031 L 14.882812 6.636719 C 14.882812 6.363281 15.105469 6.140625 15.378906 6.140625 Z M 15.378906 6.140625 "/>
</g>
</svg>
