<?xml version="1.0" encoding="UTF-8"?>
<svg xmlns="http://www.w3.org/2000/svg" xmlns:xlink="http://www.w3.org/1999/xlink" width="24px" height="24px" viewBox="0 0 24 24" version="1.1">
<g id="surface1">
<path style=" stroke:none;fill-rule:nonzero;fill:rgb(40.000001%,73.333335%,41.568628%);fill-opacity:1;" d="M 11.90625 1.179688 C 17.933594 1.179688 22.820312 6.066406 22.820312 12.09375 C 22.820312 18.121094 17.933594 23.007812 11.90625 23.007812 C 5.878906 23.007812 0.992188 18.121094 0.992188 12.09375 C 0.992188 6.066406 5.878906 1.179688 11.90625 1.179688 Z M 11.90625 1.179688 "/>
<path style=" stroke:none;fill-rule:nonzero;fill:rgb(96.078432%,96.078432%,96.078432%);fill-opacity:1;" d="M 17.617188 6.144531 C 17.5625 6.144531 17.503906 6.152344 17.453125 6.171875 L 4.304688 10.636719 C 3.863281 10.785156 3.859375 11.410156 4.300781 11.566406 L 9.261719 13.300781 C 9.398438 13.351562 9.546875 13.335938 9.671875 13.265625 L 12.441406 11.660156 L 10.761719 14.042969 C 10.664062 14.179688 10.644531 14.355469 10.707031 14.507812 L 12.691406 19.46875 C 12.859375 19.890625 13.460938 19.878906 13.609375 19.449219 L 18.074219 6.800781 C 18.1875 6.480469 17.953125 6.148438 17.617188 6.144531 Z M 17.617188 6.144531 "/>
</g>
</svg>
