<?xml version="1.0" encoding="UTF-8"?>
<svg xmlns="http://www.w3.org/2000/svg" xmlns:xlink="http://www.w3.org/1999/xlink" width="24px" height="24px" viewBox="0 0 24 24" version="1.1">
<g id="surface1">
<path style=" stroke:none;fill-rule:nonzero;fill:rgb(25.882354%,25.882354%,25.882354%);fill-opacity:1;" d="M 11.90625 1.179688 C 17.933594 1.179688 22.820312 6.066406 22.820312 12.09375 C 22.820312 18.121094 17.933594 23.007812 11.90625 23.007812 C 5.878906 23.007812 0.992188 18.121094 0.992188 12.09375 C 0.992188 6.066406 5.878906 1.179688 11.90625 1.179688 Z M 11.90625 1.179688 "/>
<path style=" stroke:none;fill-rule:nonzero;fill:rgb(36.078432%,41.960785%,75.294119%);fill-opacity:1;" d="M 11.90625 12.09375 L 4.402344 20.03125 C 2.300781 18.042969 0.992188 15.226562 0.992188 12.09375 C 0.992188 8.960938 2.300781 6.144531 4.402344 4.15625 Z M 11.90625 12.09375 "/>
<path style=" stroke:none;fill-rule:nonzero;fill:rgb(36.078432%,41.960785%,75.294119%);fill-opacity:1;" d="M 11.90625 12.09375 L 19.410156 20.03125 C 21.511719 18.042969 22.820312 15.226562 22.820312 12.09375 C 22.820312 8.960938 21.511719 6.144531 19.410156 4.15625 Z M 11.90625 12.09375 "/>
<path style=" stroke:none;fill-rule:nonzero;fill:rgb(96.078432%,96.078432%,96.078432%);fill-opacity:1;" d="M 11.90625 2.667969 C 17.113281 2.667969 21.332031 6.886719 21.332031 12.09375 C 21.332031 17.300781 17.113281 21.519531 11.90625 21.519531 C 6.699219 21.519531 2.480469 17.300781 2.480469 12.09375 C 2.480469 6.886719 6.699219 2.667969 11.90625 2.667969 Z M 11.90625 2.667969 "/>
<path style=" stroke:none;fill-rule:nonzero;fill:rgb(36.078432%,41.960785%,75.294119%);fill-opacity:1;" d="M 13.890625 4.15625 C 13.394531 4.15625 12.898438 4.652344 12.898438 5.148438 L 12.898438 15.027344 C 12.078125 14.457031 10.851562 14.261719 9.601562 14.597656 C 7.652344 15.121094 6.402344 16.714844 6.792969 18.175781 C 7.183594 19.636719 9.066406 20.390625 11.011719 19.871094 C 12.746094 19.40625 13.929688 18.085938 13.890625 16.773438 L 13.890625 7.132812 C 14.921875 7.039062 16.097656 7.195312 16.8125 8.023438 C 17.617188 8.984375 17.632812 10.335938 17.503906 11.519531 C 17.328125 12.914062 16.9375 14.28125 16.371094 15.566406 C 18.433594 12.726562 20.144531 7.574219 16.371094 5.644531 C 15.636719 5.246094 14.539062 5.109375 14.019531 4.421875 C 13.941406 4.269531 13.902344 4.171875 13.890625 4.21875 Z M 13.890625 4.15625 "/>
</g>
</svg>
