<?xml version="1.0" encoding="UTF-8"?>
<svg xmlns="http://www.w3.org/2000/svg" xmlns:xlink="http://www.w3.org/1999/xlink" width="24px" height="24px" viewBox="0 0 24 24" version="1.1">
<g id="surface1">
<path style=" stroke:none;fill-rule:nonzero;fill:rgb(87.843138%,87.843138%,87.843138%);fill-opacity:1;" d="M 11.90625 1.179688 C 11.808594 1.183594 11.714844 1.21875 11.636719 1.289062 C 9.589844 3.089844 5.613281 3.164062 2.457031 3.164062 C 2.210938 3.164062 2.007812 3.386719 2.007812 3.660156 C 2.007812 7.972656 3.148438 12.742188 4.929688 16.480469 C 5.824219 18.347656 6.875 19.957031 8.046875 21.121094 C 9.222656 22.285156 10.535156 23.007812 11.917969 23.007812 C 13.300781 23.007812 14.613281 22.285156 15.789062 21.121094 C 16.960938 19.957031 18.011719 18.347656 18.902344 16.480469 C 20.6875 12.742188 21.828125 7.972656 21.828125 3.660156 C 21.828125 3.386719 21.625 3.164062 21.375 3.164062 C 18.222656 3.164062 14.246094 3.089844 12.199219 1.289062 C 12.117188 1.214844 12.011719 1.175781 11.90625 1.179688 Z M 11.90625 1.179688 "/>
<path style=" stroke:none;fill-rule:nonzero;fill:rgb(25.882354%,25.882354%,25.882354%);fill-opacity:1;" d="M 11.90625 3.164062 C 9.824219 4.835938 6.585938 4.863281 3.96875 4.863281 C 4.042969 8.503906 5.003906 12.542969 6.449219 15.675781 C 7.203125 17.308594 8.085938 18.695312 9.027344 19.65625 C 9.964844 20.617188 10.941406 21.144531 11.90625 21.144531 C 12.871094 21.144531 13.847656 20.617188 14.785156 19.65625 C 15.726562 18.695312 16.609375 17.308594 17.363281 15.675781 C 18.808594 12.542969 19.769531 8.503906 19.84375 4.863281 C 17.226562 4.863281 13.988281 4.835938 11.90625 3.164062 Z M 11.90625 3.164062 "/>
<path style=" stroke:none;fill-rule:nonzero;fill:rgb(37.64706%,49.019608%,54.509807%);fill-opacity:1;" d="M 10.707031 7.835938 L 13.105469 7.835938 L 13.105469 20.210938 C 13.105469 21.609375 12.304688 22.410156 11.90625 23.007812 C 11.507812 22.410156 10.707031 21.609375 10.707031 20.210938 Z M 10.707031 7.835938 "/>
<path style=" stroke:none;fill-rule:nonzero;fill:rgb(45.882353%,45.882353%,45.882353%);fill-opacity:1;" d="M 9.511719 7.035156 L 14.300781 7.035156 L 14.300781 7.835938 L 9.511719 7.835938 Z M 9.511719 7.035156 "/>
<path style=" stroke:none;fill-rule:nonzero;fill:rgb(45.882353%,45.882353%,45.882353%);fill-opacity:1;" d="M 9.109375 6.636719 C 9.550781 6.636719 9.910156 6.996094 9.910156 7.4375 C 9.910156 7.875 9.550781 8.234375 9.109375 8.234375 C 8.671875 8.234375 8.3125 7.875 8.3125 7.4375 C 8.3125 6.996094 8.671875 6.636719 9.109375 6.636719 Z M 9.109375 6.636719 "/>
<path style=" stroke:none;fill-rule:nonzero;fill:rgb(45.882353%,45.882353%,45.882353%);fill-opacity:1;" d="M 14.703125 6.636719 C 15.140625 6.636719 15.5 6.996094 15.5 7.4375 C 15.5 7.875 15.140625 8.234375 14.703125 8.234375 C 14.261719 8.234375 13.902344 7.875 13.902344 7.4375 C 13.902344 6.996094 14.261719 6.636719 14.703125 6.636719 Z M 14.703125 6.636719 "/>
<path style=" stroke:none;fill-rule:nonzero;fill:rgb(38.039216%,38.039216%,38.039216%);fill-opacity:1;" d="M 11.109375 3.042969 L 12.703125 3.042969 L 12.703125 7.035156 L 11.109375 7.035156 Z M 11.109375 3.042969 "/>
<path style=" stroke:none;fill-rule:nonzero;fill:rgb(45.882353%,45.882353%,45.882353%);fill-opacity:1;" d="M 11.90625 1.046875 C 12.566406 1.046875 13.105469 1.582031 13.105469 2.246094 C 13.105469 2.90625 12.566406 3.441406 11.90625 3.441406 C 11.246094 3.441406 10.707031 2.90625 10.707031 2.246094 C 10.707031 1.582031 11.246094 1.046875 11.90625 1.046875 Z M 11.90625 1.046875 "/>
<path style=" stroke:none;fill-rule:nonzero;fill:rgb(56.470591%,64.313728%,68.235296%);fill-opacity:1;" d="M 11.90625 7.835938 L 11.90625 23.007812 C 12.304688 22.410156 13.105469 21.609375 13.105469 20.210938 L 13.105469 7.835938 Z M 11.90625 7.835938 "/>
<path style=" stroke:none;fill-rule:nonzero;fill:rgb(69.01961%,74.509805%,77.254903%);fill-opacity:1;" d="M 10.707031 7.835938 C 10.707031 8.5 11.242188 9.03125 11.90625 9.03125 C 12.570312 9.03125 13.105469 8.5 13.105469 7.835938 Z M 10.707031 7.835938 "/>
<path style=" stroke:none;fill-rule:nonzero;fill:rgb(74.117649%,74.117649%,74.117649%);fill-opacity:1;" d="M 11.535156 1.304688 C 11.742188 1.214844 11.855469 1.316406 11.785156 1.535156 C 11.714844 1.75 11.488281 1.996094 11.28125 2.085938 C 11.074219 2.175781 10.960938 2.074219 11.03125 1.859375 C 11.101562 1.644531 11.328125 1.394531 11.535156 1.304688 Z M 11.535156 1.304688 "/>
<path style=" stroke:none;fill-rule:nonzero;fill:rgb(74.117649%,74.117649%,74.117649%);fill-opacity:1;" d="M 14.449219 6.824219 C 14.554688 6.78125 14.609375 6.832031 14.574219 6.9375 C 14.539062 7.046875 14.425781 7.167969 14.324219 7.214844 C 14.21875 7.257812 14.164062 7.207031 14.199219 7.097656 C 14.234375 6.992188 14.347656 6.867188 14.449219 6.824219 Z M 14.449219 6.824219 "/>
<path style=" stroke:none;fill-rule:nonzero;fill:rgb(74.117649%,74.117649%,74.117649%);fill-opacity:1;" d="M 8.742188 6.824219 C 8.847656 6.777344 8.902344 6.828125 8.867188 6.9375 C 8.832031 7.046875 8.722656 7.167969 8.617188 7.214844 C 8.515625 7.261719 8.457031 7.210938 8.492188 7.101562 C 8.527344 6.996094 8.640625 6.871094 8.742188 6.824219 Z M 8.742188 6.824219 "/>
</g>
</svg>
