<?xml version="1.0" encoding="UTF-8"?>
<svg xmlns="http://www.w3.org/2000/svg" xmlns:xlink="http://www.w3.org/1999/xlink" width="24px" height="24px" viewBox="0 0 24 24" version="1.1">
<g id="surface1">
<path style=" stroke:none;fill-rule:nonzero;fill:rgb(74.117649%,74.117649%,74.117649%);fill-opacity:1;" d="M 1.984375 1.179688 L 21.828125 1.179688 C 22.375 1.179688 22.820312 1.625 22.820312 2.171875 L 22.820312 22.015625 C 22.820312 22.5625 22.375 23.007812 21.828125 23.007812 L 1.984375 23.007812 C 1.4375 23.007812 0.992188 22.5625 0.992188 22.015625 L 0.992188 2.171875 C 0.992188 1.625 1.4375 1.179688 1.984375 1.179688 Z M 1.984375 1.179688 "/>
<path style=" stroke:none;fill-rule:nonzero;fill:rgb(12.941177%,12.941177%,12.941177%);fill-opacity:1;" d="M 4.015625 17.386719 L 4.015625 14.738281 L 9.308594 14.738281 L 9.308594 20.03125 L 4.015625 20.03125 Z M 8.550781 17.386719 L 8.550781 15.496094 L 4.773438 15.496094 L 4.773438 19.273438 L 8.550781 19.273438 Z M 5.527344 17.386719 L 5.527344 16.25 L 7.796875 16.25 L 7.796875 18.519531 L 5.527344 18.519531 Z M 10.0625 19.273438 L 10.0625 18.519531 L 11.574219 18.519531 L 11.574219 17.761719 L 12.332031 17.761719 L 12.332031 18.519531 L 13.84375 18.519531 L 13.84375 17.007812 L 10.0625 17.007812 L 10.0625 15.496094 L 10.820312 15.496094 L 10.820312 16.25 L 11.574219 16.25 L 11.574219 14.738281 L 12.332031 14.738281 L 12.332031 13.984375 L 13.085938 13.984375 L 13.085938 13.226562 L 12.332031 13.226562 L 12.332031 12.472656 L 11.574219 12.472656 L 11.574219 13.226562 L 10.820312 13.226562 L 10.820312 14.738281 L 10.0625 14.738281 L 10.0625 12.472656 L 10.820312 12.472656 L 10.820312 11.714844 L 9.308594 11.714844 L 9.308594 12.472656 L 8.550781 12.472656 L 8.550781 13.226562 L 9.308594 13.226562 L 9.308594 13.984375 L 8.550781 13.984375 L 8.550781 13.226562 L 7.796875 13.226562 L 7.796875 13.984375 L 5.527344 13.984375 L 5.527344 13.226562 L 6.285156 13.226562 L 6.285156 12.472656 L 5.527344 12.472656 L 5.527344 11.714844 L 4.015625 11.714844 L 4.015625 10.203125 L 5.527344 10.203125 L 5.527344 10.960938 L 6.285156 10.960938 L 6.285156 11.714844 L 7.039062 11.714844 L 7.039062 10.203125 L 9.308594 10.203125 L 9.308594 10.960938 L 10.820312 10.960938 L 10.820312 11.714844 L 12.332031 11.714844 L 12.332031 12.472656 L 14.597656 12.472656 L 14.597656 13.226562 L 15.355469 13.226562 L 15.355469 11.714844 L 13.84375 11.714844 L 13.84375 10.960938 L 15.355469 10.960938 L 15.355469 10.203125 L 16.109375 10.203125 L 16.109375 10.960938 L 16.867188 10.960938 L 16.867188 10.203125 L 19.890625 10.203125 L 19.890625 10.960938 L 19.136719 10.960938 L 19.136719 13.226562 L 18.378906 13.226562 L 18.378906 11.714844 L 17.625 11.714844 L 17.625 10.960938 L 16.867188 10.960938 L 16.867188 12.472656 L 16.109375 12.472656 L 16.109375 13.226562 L 16.867188 13.226562 L 16.867188 13.984375 L 19.890625 13.984375 L 19.890625 14.738281 L 19.136719 14.738281 L 19.136719 15.496094 L 18.378906 15.496094 L 18.378906 14.738281 L 17.625 14.738281 L 17.625 15.496094 L 16.867188 15.496094 L 16.867188 17.007812 L 18.378906 17.007812 L 18.378906 16.25 L 19.890625 16.25 L 19.890625 17.761719 L 19.136719 17.761719 L 19.136719 17.007812 L 18.378906 17.007812 L 18.378906 17.761719 L 16.867188 17.761719 L 16.867188 18.519531 L 17.625 18.519531 L 17.625 19.273438 L 15.355469 19.273438 L 15.355469 18.519531 L 16.109375 18.519531 L 16.109375 13.984375 L 15.355469 13.984375 L 15.355469 15.496094 L 14.597656 15.496094 L 14.597656 16.25 L 13.84375 16.25 L 13.84375 17.007812 L 14.597656 17.007812 L 14.597656 20.03125 L 13.085938 20.03125 L 13.085938 19.273438 L 11.574219 19.273438 L 11.574219 20.03125 L 10.0625 20.03125 Z M 13.84375 15.117188 L 13.84375 13.984375 L 13.085938 13.984375 L 13.085938 14.738281 L 12.332031 14.738281 L 12.332031 16.25 L 13.84375 16.25 Z M 7.796875 12.851562 L 7.796875 12.472656 L 8.550781 12.472656 L 8.550781 11.714844 L 9.308594 11.714844 L 9.308594 10.960938 L 8.550781 10.960938 L 8.550781 11.714844 L 7.796875 11.714844 L 7.796875 12.472656 L 7.039062 12.472656 L 7.039062 13.226562 L 7.796875 13.226562 Z M 16.109375 11.335938 L 16.109375 10.960938 L 15.355469 10.960938 L 15.355469 11.714844 L 16.109375 11.714844 Z M 19.136719 19.652344 L 19.136719 19.273438 L 19.890625 19.273438 L 19.890625 20.03125 L 19.136719 20.03125 Z M 12.332031 10.203125 L 12.332031 9.449219 L 11.574219 9.449219 L 11.574219 7.9375 L 10.820312 7.9375 L 10.820312 9.449219 L 10.0625 9.449219 L 10.0625 7.9375 L 10.820312 7.9375 L 10.820312 7.179688 L 10.0625 7.179688 L 10.0625 4.15625 L 10.820312 4.15625 L 10.820312 5.667969 L 12.332031 5.667969 L 12.332031 4.914062 L 11.574219 4.914062 L 11.574219 4.15625 L 13.085938 4.15625 L 13.085938 4.914062 L 13.84375 4.914062 L 13.84375 5.667969 L 12.332031 5.667969 L 12.332031 6.425781 L 13.84375 6.425781 L 13.84375 7.179688 L 12.332031 7.179688 L 12.332031 7.9375 L 13.84375 7.9375 L 13.84375 10.203125 L 13.085938 10.203125 L 13.085938 10.960938 L 12.332031 10.960938 Z M 13.085938 9.070312 L 13.085938 8.691406 L 12.332031 8.691406 L 12.332031 9.449219 L 13.085938 9.449219 Z M 4.015625 6.800781 L 4.015625 4.15625 L 9.308594 4.15625 L 9.308594 9.449219 L 4.015625 9.449219 Z M 8.550781 6.800781 L 8.550781 4.914062 L 4.773438 4.914062 L 4.773438 8.691406 L 8.550781 8.691406 Z M 5.527344 6.800781 L 5.527344 5.667969 L 7.796875 5.667969 L 7.796875 7.9375 L 5.527344 7.9375 Z M 14.597656 6.800781 L 14.597656 4.15625 L 19.890625 4.15625 L 19.890625 9.449219 L 14.597656 9.449219 Z M 19.136719 6.800781 L 19.136719 4.914062 L 15.355469 4.914062 L 15.355469 8.691406 L 19.136719 8.691406 Z M 16.109375 6.800781 L 16.109375 5.667969 L 18.378906 5.667969 L 18.378906 7.9375 L 16.109375 7.9375 Z M 16.109375 6.800781 "/>
</g>
</svg>
