<?xml version="1.0" encoding="UTF-8"?>
<svg xmlns="http://www.w3.org/2000/svg" xmlns:xlink="http://www.w3.org/1999/xlink" width="24px" height="24px" viewBox="0 0 24 24" version="1.1">
<g id="surface1">
<path style=" stroke:none;fill-rule:nonzero;fill:rgb(93.725491%,32.549021%,31.37255%);fill-opacity:1;" d="M 1.984375 1.179688 L 21.828125 1.179688 C 22.375 1.179688 22.820312 1.625 22.820312 2.171875 L 22.820312 22.015625 C 22.820312 22.5625 22.375 23.007812 21.828125 23.007812 L 1.984375 23.007812 C 1.4375 23.007812 0.992188 22.5625 0.992188 22.015625 L 0.992188 2.171875 C 0.992188 1.625 1.4375 1.179688 1.984375 1.179688 Z M 1.984375 1.179688 "/>
<path style=" stroke:none;fill-rule:nonzero;fill:rgb(96.078432%,96.078432%,96.078432%);fill-opacity:1;" d="M 5.210938 17.550781 C 5.894531 17.550781 6.449219 18.105469 6.449219 18.789062 C 6.449219 19.476562 5.894531 20.03125 5.210938 20.03125 C 4.523438 20.03125 3.96875 19.476562 3.96875 18.789062 C 3.96875 18.105469 4.523438 17.550781 5.210938 17.550781 Z M 5.210938 17.550781 "/>
<path style=" stroke:none;fill-rule:nonzero;fill:rgb(96.078432%,96.078432%,96.078432%);fill-opacity:1;" d="M 3.96875 10.109375 L 3.96875 11.96875 C 8.433594 11.96875 12.03125 15.566406 12.03125 20.03125 L 13.890625 20.03125 C 13.890625 14.535156 9.464844 10.109375 3.96875 10.109375 Z M 3.96875 10.109375 "/>
<path style=" stroke:none;fill-rule:nonzero;fill:rgb(96.078432%,96.078432%,96.078432%);fill-opacity:1;" d="M 3.96875 13.832031 L 3.96875 15.691406 C 6.375 15.691406 8.308594 17.625 8.308594 20.03125 L 10.167969 20.03125 C 10.167969 16.597656 7.402344 13.832031 3.96875 13.832031 Z M 3.96875 13.832031 "/>
</g>
</svg>
