<?xml version="1.0" encoding="UTF-8"?>
<svg xmlns="http://www.w3.org/2000/svg" xmlns:xlink="http://www.w3.org/1999/xlink" width="24" height="24" viewBox="0 0 24 24" version="1.1">
<g id="surface1">
<path style=" stroke:none;fill-rule:nonzero;fill:rgb(36.078432%,41.960785%,75.294119%);fill-opacity:1;" d="M 19.625 4.1875 C 20.785156 5.351562 20.15625 7.863281 18.21875 9.800781 C 16.28125 11.738281 13.769531 12.367188 12.609375 11.203125 C 11.445312 10.042969 12.074219 7.53125 14.011719 5.59375 C 15.949219 3.65625 18.460938 3.027344 19.625 4.1875 Z M 19.625 4.1875 "/>
<path style=" stroke:none;fill-rule:nonzero;fill:rgb(49.411765%,34.117648%,76.078433%);fill-opacity:1;" d="M 22.820312 11.90625 C 22.820312 13.550781 20.597656 14.882812 17.859375 14.882812 C 15.121094 14.882812 12.898438 13.550781 12.898438 11.90625 C 12.898438 10.261719 15.121094 8.929688 17.859375 8.929688 C 20.597656 8.929688 22.820312 10.261719 22.820312 11.90625 Z M 22.820312 11.90625 "/>
<path style=" stroke:none;fill-rule:nonzero;fill:rgb(92.54902%,25.098041%,47.843137%);fill-opacity:1;" d="M 19.625 19.625 C 18.460938 20.785156 15.949219 20.15625 14.011719 18.21875 C 12.074219 16.28125 11.445312 13.769531 12.609375 12.609375 C 13.769531 11.445312 16.28125 12.074219 18.21875 14.011719 C 20.15625 15.949219 20.785156 18.460938 19.625 19.625 Z M 19.625 19.625 "/>
<path style=" stroke:none;fill-rule:nonzero;fill:rgb(93.725491%,32.549021%,31.37255%);fill-opacity:1;" d="M 11.90625 22.820312 C 10.261719 22.820312 8.929688 20.597656 8.929688 17.859375 C 8.929688 15.121094 10.261719 12.898438 11.90625 12.898438 C 13.550781 12.898438 14.882812 15.121094 14.882812 17.859375 C 14.882812 20.597656 13.550781 22.820312 11.90625 22.820312 Z M 11.90625 22.820312 "/>
<path style=" stroke:none;fill-rule:nonzero;fill:rgb(100%,43.921569%,26.274511%);fill-opacity:1;" d="M 11.203125 12.609375 C 12.367188 13.769531 11.738281 16.28125 9.800781 18.21875 C 7.863281 20.15625 5.351562 20.785156 4.1875 19.625 C 3.027344 18.460938 3.65625 15.949219 5.59375 14.011719 C 7.53125 12.074219 10.042969 11.445312 11.203125 12.609375 Z M 11.203125 12.609375 "/>
<path style=" stroke:none;fill-rule:nonzero;fill:rgb(100%,65.490198%,14.901961%);fill-opacity:1;" d="M 10.914062 11.90625 C 10.914062 13.550781 8.691406 14.882812 5.953125 14.882812 C 3.214844 14.882812 0.992188 13.550781 0.992188 11.90625 C 0.992188 10.261719 3.214844 8.929688 5.953125 8.929688 C 8.691406 8.929688 10.914062 10.261719 10.914062 11.90625 Z M 10.914062 11.90625 "/>
<path style=" stroke:none;fill-rule:nonzero;fill:rgb(61.176473%,80.000001%,39.607844%);fill-opacity:1;" d="M 11.203125 11.203125 C 10.042969 12.367188 7.53125 11.738281 5.59375 9.800781 C 3.65625 7.863281 3.027344 5.351562 4.1875 4.1875 C 5.351562 3.027344 7.863281 3.65625 9.800781 5.59375 C 11.738281 7.53125 12.367188 10.042969 11.203125 11.203125 Z M 11.203125 11.203125 "/>
<path style=" stroke:none;fill-rule:nonzero;fill:rgb(14.901961%,65.098041%,60.392159%);fill-opacity:1;" d="M 11.90625 10.914062 C 10.261719 10.914062 8.929688 8.691406 8.929688 5.953125 C 8.929688 3.214844 10.261719 0.992188 11.90625 0.992188 C 13.550781 0.992188 14.882812 3.214844 14.882812 5.953125 C 14.882812 8.691406 13.550781 10.914062 11.90625 10.914062 Z M 11.90625 10.914062 "/>
<path style=" stroke:none;fill-rule:nonzero;fill:rgb(36.078432%,41.960785%,75.294119%);fill-opacity:1;" d="M 19.625 4.1875 C 18.457031 3.023438 15.953125 3.648438 14.011719 5.59375 C 12.066406 7.535156 11.441406 10.039062 12.609375 11.203125 Z M 19.625 4.1875 "/>
<path style=" stroke:none;fill-rule:nonzero;fill:rgb(93.333334%,93.333334%,93.333334%);fill-opacity:0.996078;" d="M 11.90625 6.449219 C 8.882812 6.449219 6.449219 8.882812 6.449219 11.90625 C 6.449219 14.929688 8.882812 17.363281 11.90625 17.363281 C 14.929688 17.363281 17.363281 14.929688 17.363281 11.90625 C 17.363281 11.738281 17.355469 11.574219 17.339844 11.410156 L 17.363281 11.410156 L 17.363281 7.9375 C 17.363281 7.113281 16.699219 6.449219 15.875 6.449219 Z M 11.90625 6.449219 "/>
<path style=" stroke:none;fill-rule:nonzero;fill:rgb(36.078432%,41.960785%,75.294119%);fill-opacity:1;" d="M 14.882812 7.441406 C 15.703125 7.441406 16.371094 8.109375 16.371094 8.929688 C 16.371094 9.75 15.703125 10.417969 14.882812 10.417969 C 14.0625 10.417969 13.394531 9.75 13.394531 8.929688 C 13.394531 8.109375 14.0625 7.441406 14.882812 7.441406 Z M 14.882812 7.441406 "/>
</g>
</svg>
