<?xml version="1.0" encoding="UTF-8"?>
<svg xmlns="http://www.w3.org/2000/svg" xmlns:xlink="http://www.w3.org/1999/xlink" width="24px" height="24px" viewBox="0 0 24 24" version="1.1">
<g id="surface1">
<path style=" stroke:none;fill-rule:nonzero;fill:rgb(74.117649%,74.117649%,74.117649%);fill-opacity:1;" d="M 8.433594 1.179688 L 15.378906 1.179688 C 15.925781 1.179688 16.371094 1.625 16.371094 2.171875 L 16.371094 10.605469 C 16.371094 11.152344 15.925781 11.597656 15.378906 11.597656 L 8.433594 11.597656 C 7.886719 11.597656 7.441406 11.152344 7.441406 10.605469 L 7.441406 2.171875 C 7.441406 1.625 7.886719 1.179688 8.433594 1.179688 Z M 8.433594 1.179688 "/>
<path style=" stroke:none;fill-rule:nonzero;fill:rgb(61.960787%,61.960787%,61.960787%);fill-opacity:1;" d="M 6.449219 12.589844 L 17.363281 12.589844 L 17.363281 19.535156 L 6.449219 19.535156 Z M 6.449219 12.589844 "/>
<path style=" stroke:none;fill-rule:nonzero;fill:rgb(100%,65.490198%,14.901961%);fill-opacity:1;" d="M 8.804688 2.667969 L 9.054688 2.667969 C 9.257812 2.667969 9.425781 2.890625 9.425781 3.164062 L 9.425781 7.132812 C 9.425781 7.40625 9.257812 7.628906 9.054688 7.628906 L 8.804688 7.628906 C 8.601562 7.628906 8.433594 7.40625 8.433594 7.132812 L 8.433594 3.164062 C 8.433594 2.890625 8.601562 2.667969 8.804688 2.667969 Z M 8.804688 2.667969 "/>
<path style=" stroke:none;fill-rule:nonzero;fill:rgb(100%,65.490198%,14.901961%);fill-opacity:1;" d="M 14.757812 2.667969 L 15.007812 2.667969 C 15.210938 2.667969 15.378906 2.890625 15.378906 3.164062 L 15.378906 7.132812 C 15.378906 7.40625 15.210938 7.628906 15.007812 7.628906 L 14.757812 7.628906 C 14.554688 7.628906 14.386719 7.40625 14.386719 7.132812 L 14.386719 3.164062 C 14.386719 2.890625 14.554688 2.667969 14.757812 2.667969 Z M 14.757812 2.667969 "/>
<path style=" stroke:none;fill-rule:nonzero;fill:rgb(100%,65.490198%,14.901961%);fill-opacity:1;" d="M 10.789062 4.15625 L 11.039062 4.15625 C 11.242188 4.15625 11.410156 4.378906 11.410156 4.652344 L 11.410156 7.132812 C 11.410156 7.40625 11.242188 7.628906 11.039062 7.628906 L 10.789062 7.628906 C 10.585938 7.628906 10.417969 7.40625 10.417969 7.132812 L 10.417969 4.652344 C 10.417969 4.378906 10.585938 4.15625 10.789062 4.15625 Z M 10.789062 4.15625 "/>
<path style=" stroke:none;fill-rule:nonzero;fill:rgb(100%,65.490198%,14.901961%);fill-opacity:1;" d="M 12.773438 4.15625 L 13.023438 4.15625 C 13.226562 4.15625 13.394531 4.378906 13.394531 4.652344 L 13.394531 7.132812 C 13.394531 7.40625 13.226562 7.628906 13.023438 7.628906 L 12.773438 7.628906 C 12.570312 7.628906 12.402344 7.40625 12.402344 7.132812 L 12.402344 4.652344 C 12.402344 4.378906 12.570312 4.15625 12.773438 4.15625 Z M 12.773438 4.15625 "/>
<path style=" stroke:none;fill-rule:nonzero;fill:rgb(87.843138%,87.843138%,87.843138%);fill-opacity:1;" d="M 6.945312 9.117188 C 6.394531 9.117188 5.953125 9.558594 5.953125 10.109375 L 5.953125 13.085938 L 17.859375 13.085938 L 17.859375 10.109375 C 17.859375 9.558594 17.417969 9.117188 16.867188 9.117188 Z M 6.945312 9.117188 "/>
<path style=" stroke:none;fill-rule:nonzero;fill:rgb(87.843138%,87.843138%,87.843138%);fill-opacity:1;" d="M 6.945312 23.007812 C 6.394531 23.007812 5.921875 22.5625 5.953125 22.015625 L 5.953125 19.039062 L 17.859375 19.039062 L 17.859375 22.015625 C 17.859375 22.566406 17.417969 23.007812 16.867188 23.007812 Z M 6.945312 23.007812 "/>
<path style=" stroke:none;fill-rule:nonzero;fill:rgb(25.882354%,64.705884%,96.078432%);fill-opacity:1;" d="M 16.121094 12.589844 C 19 12.589844 21.332031 14.921875 21.332031 17.796875 C 21.332031 20.675781 19 23.007812 16.121094 23.007812 C 13.246094 23.007812 10.914062 20.675781 10.914062 17.796875 C 10.914062 14.921875 13.246094 12.589844 16.121094 12.589844 Z M 16.121094 12.589844 "/>
<path style=" stroke:none;fill-rule:nonzero;fill:rgb(93.333334%,93.333334%,93.333334%);fill-opacity:1;" d="M 16.121094 14.574219 C 14.335938 14.574219 12.898438 16.011719 12.898438 17.796875 L 11.90625 17.796875 L 13.394531 19.78125 L 14.882812 17.796875 L 13.890625 17.796875 C 13.890625 16.5625 14.886719 15.566406 16.121094 15.566406 C 16.644531 15.566406 17.125 15.742188 17.503906 16.042969 L 18.117188 15.261719 C 17.570312 14.832031 16.878906 14.574219 16.121094 14.574219 Z M 18.851562 15.8125 L 17.363281 17.796875 L 18.355469 17.796875 C 18.355469 19.035156 17.359375 20.03125 16.121094 20.03125 C 15.601562 20.03125 15.121094 19.855469 14.742188 19.554688 L 14.128906 20.335938 C 14.675781 20.765625 15.367188 21.023438 16.121094 21.023438 C 17.910156 21.023438 19.347656 19.585938 19.347656 17.796875 L 20.339844 17.796875 Z M 18.851562 15.8125 "/>
</g>
</svg>
