
<svg xmlns="http://www.w3.org/2000/svg" xmlns:xlink="http://www.w3.org/1999/xlink" width="24px" height="24px" viewBox="0 0 24 24" version="1.1">
<defs>
<filter id="alpha" filterUnits="objectBoundingBox" x="0%" y="0%" width="100%" height="100%">
  <feColorMatrix type="matrix" in="SourceGraphic" values="0 0 0 0 1 0 0 0 0 1 0 0 0 0 1 0 0 0 1 0"/>
</filter>
<mask id="mask0">
  <g filter="url(#alpha)">
<rect x="0" y="0" width="24" height="24" style="fill:rgb(0%,0%,0%);fill-opacity:0.986432;stroke:none;"/>
  </g>
</mask>
<clipPath id="clip1">
  <rect x="0" y="0" width="24" height="24"/>
</clipPath>
<g id="surface5" clip-path="url(#clip1)">
<path style=" stroke:none;fill-rule:nonzero;fill:rgb(61.176473%,80.000001%,39.607844%);fill-opacity:1;" d="M 1.488281 0.992188 L 14.882812 0.992188 C 15.15625 0.992188 15.378906 1.214844 15.378906 1.488281 L 15.378906 22.511719 C 15.378906 22.785156 15.15625 23.007812 14.882812 23.007812 L 1.488281 23.007812 C 1.214844 23.007812 0.992188 22.785156 0.992188 22.511719 L 0.992188 1.488281 C 0.992188 1.214844 1.214844 0.992188 1.488281 0.992188 Z M 1.488281 0.992188 "/>
</g>
</defs>
<g id="surface1">
<path style=" stroke:none;fill-rule:nonzero;fill:rgb(61.176473%,80.000001%,39.607844%);fill-opacity:1;" d="M 11.90625 0.992188 C 5.859375 0.992188 0.992188 5.859375 0.992188 11.90625 C 0.992188 17.953125 5.859375 22.820312 11.90625 22.820312 C 17.953125 22.820312 22.820312 17.953125 22.820312 11.90625 C 22.820312 5.859375 17.953125 0.992188 11.90625 0.992188 Z M 11.90625 8.929688 C 13.554688 8.929688 14.882812 10.257812 14.882812 11.90625 C 14.882812 13.554688 13.554688 14.882812 11.90625 14.882812 C 10.257812 14.882812 8.929688 13.554688 8.929688 11.90625 C 8.929688 10.257812 10.257812 8.929688 11.90625 8.929688 Z M 11.90625 8.929688 "/>
<path style=" stroke:none;fill-rule:nonzero;fill:rgb(38.039216%,38.039216%,38.039216%);fill-opacity:1;" d="M 11.90625 1.488281 C 6.132812 1.488281 1.488281 6.132812 1.488281 11.90625 C 1.488281 17.679688 6.132812 22.324219 11.90625 22.324219 C 17.679688 22.324219 22.324219 17.679688 22.324219 11.90625 C 22.324219 6.132812 17.679688 1.488281 11.90625 1.488281 Z M 11.90625 8.929688 C 13.554688 8.929688 14.882812 10.257812 14.882812 11.90625 C 14.882812 13.554688 13.554688 14.882812 11.90625 14.882812 C 10.257812 14.882812 8.929688 13.554688 8.929688 11.90625 C 8.929688 10.257812 10.257812 8.929688 11.90625 8.929688 Z M 11.90625 8.929688 "/>
<path style=" stroke:none;fill-rule:nonzero;fill:rgb(48.627451%,70.19608%,25.882354%);fill-opacity:1;" d="M 11.90625 6.945312 C 9.15625 6.945312 6.945312 9.15625 6.945312 11.90625 C 6.945312 14.65625 9.15625 16.867188 11.90625 16.867188 C 14.65625 16.867188 16.867188 14.65625 16.867188 11.90625 C 16.867188 9.15625 14.65625 6.945312 11.90625 6.945312 Z M 11.90625 10.417969 C 12.730469 10.417969 13.394531 11.082031 13.394531 11.90625 C 13.394531 12.730469 12.730469 13.394531 11.90625 13.394531 C 11.082031 13.394531 10.417969 12.730469 10.417969 11.90625 C 10.417969 11.082031 11.082031 10.417969 11.90625 10.417969 Z M 11.90625 10.417969 "/>
<use xlink:href="#surface5" mask="url(#mask0)"/>
<path style=" stroke:none;fill-rule:nonzero;fill:rgb(93.333334%,93.333334%,93.333334%);fill-opacity:1;" d="M 12.007812 7.308594 C 11.996094 7.308594 11.988281 7.308594 11.976562 7.308594 C 11.941406 7.308594 11.902344 7.316406 11.867188 7.324219 L 6.589844 8.496094 C 6.324219 8.554688 6.132812 8.792969 6.132812 9.066406 L 6.132812 13.902344 C 5.867188 13.808594 5.566406 13.757812 5.25 13.757812 C 4.113281 13.757812 3.199219 14.414062 3.199219 15.226562 C 3.199219 16.039062 4.113281 16.691406 5.25 16.691406 C 6.386719 16.691406 7.300781 16.039062 7.300781 15.226562 C 7.300781 15.199219 7.300781 15.171875 7.300781 15.148438 L 7.300781 9.53125 L 11.410156 8.621094 L 11.410156 12.140625 C 11.144531 12.050781 10.84375 12 10.527344 12 C 9.390625 12 8.476562 12.652344 8.476562 13.464844 C 8.476562 14.277344 9.390625 14.933594 10.527344 14.933594 C 11.664062 14.933594 12.582031 14.277344 12.582031 13.464844 C 12.582031 13.441406 12.578125 13.414062 12.578125 13.390625 L 12.578125 7.890625 C 12.578125 7.574219 12.324219 7.316406 12.007812 7.308594 Z M 12.007812 7.308594 "/>
</g>
</svg>
