
<svg xmlns="http://www.w3.org/2000/svg" xmlns:xlink="http://www.w3.org/1999/xlink" width="24px" height="24px" viewBox="0 0 24 24" version="1.1">
<g id="surface1">
<path style=" stroke:none;fill-rule:nonzero;fill:rgb(74.117649%,74.117649%,74.117649%);fill-opacity:1;" d="M 11.90625 0.992188 C 17.933594 0.992188 22.820312 5.878906 22.820312 11.90625 C 22.820312 17.933594 17.933594 22.820312 11.90625 22.820312 C 5.878906 22.820312 0.992188 17.933594 0.992188 11.90625 C 0.992188 5.878906 5.878906 0.992188 11.90625 0.992188 Z M 11.90625 0.992188 "/>
<path style=" stroke:none;fill-rule:nonzero;fill:rgb(100%,43.921569%,26.274511%);fill-opacity:1;" d="M 11.90625 1.984375 C 17.386719 1.984375 21.828125 6.425781 21.828125 11.90625 C 21.828125 17.386719 17.386719 21.828125 11.90625 21.828125 C 6.425781 21.828125 1.984375 17.386719 1.984375 11.90625 C 1.984375 6.425781 6.425781 1.984375 11.90625 1.984375 Z M 11.90625 1.984375 "/>
<path style=" stroke:none;fill-rule:nonzero;fill:rgb(93.333334%,93.333334%,93.333334%);fill-opacity:1;" d="M 11.90625 2.976562 C 16.839844 2.976562 20.835938 6.972656 20.835938 11.90625 C 20.835938 16.839844 16.839844 20.835938 11.90625 20.835938 C 6.972656 20.835938 2.976562 16.839844 2.976562 11.90625 C 2.976562 6.972656 6.972656 2.976562 11.90625 2.976562 Z M 11.90625 2.976562 "/>
<path style=" stroke:none;fill-rule:nonzero;fill:rgb(48.627451%,70.19608%,25.882354%);fill-opacity:1;" d="M 21.046875 21.640625 C 18.917969 19.820312 18.117188 18.726562 15.863281 17.054688 C 15.46875 16.894531 15.398438 17.292969 14.921875 17.570312 C 13.09375 18.632812 12.75 18.828125 11.847656 18.828125 C 11.082031 18.828125 10.863281 18.769531 10.101562 18.367188 C 9.621094 18.113281 9.144531 17.789062 9.042969 17.644531 C 8.4375 16.773438 8.21875 16.410156 7.804688 15.597656 C 7.554688 15.101562 7.167969 14.269531 7.132812 13.96875 C 7.09375 13.671875 6.960938 13.226562 6.839844 12.984375 C 6.71875 12.742188 6.46875 11.949219 6.285156 11.226562 C 6.023438 10.1875 5.96875 9.539062 6.03125 8.941406 C 6.128906 7.980469 5.980469 7.613281 5.234375 6.871094 C 4.539062 6.175781 2.496094 3.488281 2.148438 2.710938 C 1.847656 2.042969 2.023438 1.699219 2.371094 2.269531 C 3.453125 4.046875 5.273438 6.175781 6.167969 6.699219 C 6.691406 7.007812 6.738281 7.019531 7.570312 6.871094 C 9.039062 6.605469 11.523438 6.902344 12.300781 7.429688 C 12.5625 7.609375 12.851562 7.757812 12.941406 7.757812 C 13.03125 7.757812 13.421875 7.871094 13.816406 8.007812 C 14.207031 8.144531 14.664062 8.257812 14.828125 8.257812 C 15.273438 8.257812 16.25 8.488281 16.464844 8.84375 C 16.570312 9.019531 16.933594 9.34375 17.269531 9.566406 C 17.765625 9.894531 17.972656 10.152344 18.351562 10.914062 C 18.882812 11.984375 18.914062 12.335938 18.636719 13.28125 C 18.484375 13.789062 18.269531 14.121094 17.765625 14.625 C 16.886719 15.496094 16.425781 15.964844 16.933594 16.699219 C 17.523438 17.558594 18.816406 18.757812 20.8125 20.53125 C 21.84375 21.449219 22.722656 22.28125 22.761719 22.386719 C 23.058594 23.164062 22.421875 22.890625 21.046875 21.640625 Z M 21.046875 21.640625 "/>
</g>
</svg>
