
<svg xmlns="http://www.w3.org/2000/svg" xmlns:xlink="http://www.w3.org/1999/xlink" width="24px" height="24px" viewBox="0 0 24 24" version="1.1">
<g id="surface1">
<path style=" stroke:none;fill-rule:nonzero;fill:rgb(11.764706%,53.333336%,89.803922%);fill-opacity:1;" d="M 14.632812 1.984375 L 14.632812 1.988281 C 10.902344 2.117188 7.9375 5.164062 7.9375 8.929688 C 7.9375 12.777344 11.035156 15.875 14.882812 15.875 C 18.730469 15.875 21.828125 12.777344 21.828125 8.929688 C 21.828125 8.847656 21.828125 8.765625 21.824219 8.679688 L 21.828125 8.679688 L 21.828125 2.480469 C 21.828125 2.207031 21.605469 1.984375 21.332031 1.984375 Z M 14.632812 1.984375 "/>
<path style=" stroke:none;fill-rule:nonzero;fill:rgb(93.333334%,93.333334%,93.333334%);fill-opacity:1;" d="M 14.882812 3.472656 C 11.859375 3.472656 9.425781 5.90625 9.425781 8.929688 C 9.425781 11.953125 11.859375 14.386719 14.882812 14.386719 C 17.90625 14.386719 20.339844 11.953125 20.339844 8.929688 L 20.339844 3.71875 C 20.339844 3.582031 20.230469 3.472656 20.089844 3.472656 Z M 14.882812 3.472656 "/>
<path style=" stroke:none;fill-rule:nonzero;fill:rgb(25.882354%,64.705884%,96.078432%);fill-opacity:1;" d="M 8.1875 22.824219 L 8.1875 22.820312 C 11.917969 22.691406 14.882812 19.644531 14.882812 15.878906 C 14.882812 12.03125 11.785156 8.933594 7.9375 8.933594 C 4.089844 8.933594 0.992188 12.03125 0.992188 15.878906 C 0.992188 15.960938 0.992188 16.046875 0.996094 16.128906 L 0.992188 16.128906 L 0.992188 22.328125 C 0.992188 22.601562 1.214844 22.824219 1.488281 22.824219 Z M 8.1875 22.824219 "/>
<path style=" stroke:none;fill-rule:nonzero;fill:rgb(96.078432%,96.078432%,96.078432%);fill-opacity:1;" d="M 7.9375 21.332031 C 10.960938 21.332031 13.394531 18.898438 13.394531 15.875 C 13.394531 12.851562 10.960938 10.417969 7.9375 10.417969 C 4.914062 10.417969 2.480469 12.851562 2.480469 15.875 L 2.480469 21.082031 C 2.480469 21.222656 2.589844 21.332031 2.730469 21.332031 Z M 7.9375 21.332031 "/>
</g>
</svg>
