
<svg xmlns="http://www.w3.org/2000/svg" xmlns:xlink="http://www.w3.org/1999/xlink" width="24px" height="24px" viewBox="0 0 24 24" version="1.1">
<g id="surface1">
<path style=" stroke:none;fill-rule:nonzero;fill:rgb(25.882354%,25.882354%,25.882354%);fill-opacity:1;" d="M 17.363281 2.453125 C 22.582031 5.46875 24.371094 12.144531 21.359375 17.363281 C 18.34375 22.582031 11.667969 24.371094 6.449219 21.359375 C 1.230469 18.34375 -0.558594 11.667969 2.453125 6.449219 C 5.46875 1.230469 12.144531 -0.558594 17.363281 2.453125 Z M 17.363281 2.453125 "/>
<path style=" stroke:none;fill-rule:nonzero;fill:rgb(87.843138%,87.843138%,87.843138%);fill-opacity:1;" d="M 2.582031 3.277344 C 33.734375 10.464844 4.273438 16.816406 4.273438 16.816406 C 3.6875 16.910156 3.289062 17.214844 2.933594 17.675781 C 2.582031 18.132812 2.5625 18.855469 2.785156 19.386719 C 3.0625 20.050781 3.457031 20.296875 4.019531 20.53125 C 4.414062 20.542969 5.457031 20.53125 5.457031 20.53125 C 5.457031 20.53125 20.316406 15.738281 20.246094 11.210938 C 20.210938 9.027344 15.523438 4.714844 2.582031 3.277344 Z M 2.582031 3.277344 "/>
</g>
</svg>
