
<svg xmlns="http://www.w3.org/2000/svg" xmlns:xlink="http://www.w3.org/1999/xlink" width="24px" height="24px" viewBox="0 0 24 24" version="1.1">
<g id="surface1">
<path style=" stroke:none;fill-rule:nonzero;fill:rgb(81.176472%,84.705883%,86.274511%);fill-opacity:1;" d="M 17.363281 2.453125 C 22.582031 5.46875 24.371094 12.144531 21.359375 17.363281 C 18.34375 22.582031 11.667969 24.371094 6.449219 21.359375 C 1.230469 18.34375 -0.558594 11.667969 2.453125 6.449219 C 5.46875 1.230469 12.144531 -0.558594 17.363281 2.453125 Z M 17.363281 2.453125 "/>
<path style=" stroke:none;fill-rule:nonzero;fill:rgb(25.882354%,25.882354%,25.882354%);fill-opacity:1;" d="M 17.363281 8.433594 C 18.183594 8.433594 18.851562 9.101562 18.851562 9.921875 C 18.851562 10.742188 18.183594 11.410156 17.363281 11.410156 C 16.542969 11.410156 15.875 10.742188 15.875 9.921875 C 15.875 9.101562 16.542969 8.433594 17.363281 8.433594 Z M 17.363281 8.433594 "/>
<path style=" stroke:none;fill-rule:nonzero;fill:rgb(25.882354%,25.882354%,25.882354%);fill-opacity:1;" d="M 7.441406 8.929688 C 9.359375 8.929688 10.914062 10.484375 10.914062 12.402344 C 10.914062 14.320312 9.359375 15.875 7.441406 15.875 C 5.523438 15.875 3.96875 14.320312 3.96875 12.402344 C 3.96875 10.484375 5.523438 8.929688 7.441406 8.929688 Z M 7.441406 8.929688 "/>
<path style=" stroke:none;fill-rule:nonzero;fill:rgb(81.176472%,84.705883%,86.274511%);fill-opacity:1;" d="M 8.433594 10.914062 C 9.253906 10.914062 9.921875 11.582031 9.921875 12.402344 C 9.921875 13.222656 9.253906 13.890625 8.433594 13.890625 C 7.613281 13.890625 6.945312 13.222656 6.945312 12.402344 C 6.945312 11.582031 7.613281 10.914062 8.433594 10.914062 Z M 8.433594 10.914062 "/>
<path style=" stroke:none;fill-rule:nonzero;fill:rgb(25.882354%,25.882354%,25.882354%);fill-opacity:1;" d="M 16.375 13.871094 C 16.335938 13.871094 16.296875 13.875 16.257812 13.882812 L 11.792969 14.875 C 11.351562 14.972656 11.242188 15.554688 11.621094 15.808594 L 14.597656 17.792969 C 14.855469 17.964844 15.207031 17.871094 15.34375 17.59375 L 16.832031 14.617188 C 17.003906 14.277344 16.757812 13.875 16.375 13.871094 Z M 16.375 13.871094 "/>
<path style="fill:none;stroke-width:20;stroke-linecap:round;stroke-linejoin:round;stroke:rgb(25.882354%,25.882354%,25.882354%);stroke-opacity:1;stroke-miterlimit:4;" d="M 222.25 187.166667 C 269.833333 208.333333 306.916667 187.166667 317.5 150.166667 C 354.583333 176.583333 386.25 166 407.416667 134.25 " transform="matrix(0.046875,0,0,0.046875,0,10.078125)"/>
<path style=" stroke:none;fill-rule:nonzero;fill:rgb(92.54902%,93.725491%,94.509804%);fill-opacity:1;" d="M 15.875 1.984375 C 18.355469 1.488281 21.085938 2.234375 22.324219 3.472656 C 23.316406 4.464844 22.820312 7.9375 20.339844 7.9375 C 19.347656 7.9375 20.339844 5.457031 15.875 1.984375 Z M 15.875 1.984375 "/>
<path style=" stroke:none;fill-rule:nonzero;fill:rgb(92.54902%,93.725491%,94.509804%);fill-opacity:1;" d="M 1.238281 9.550781 C 1.734375 5.582031 1.488281 2.480469 3.472656 2.480469 C 5.457031 2.480469 6.945312 1.984375 8.433594 3.472656 C 9.921875 4.960938 10.667969 5.953125 9.921875 6.945312 C 8.433594 8.929688 6.203125 3.597656 1.238281 9.550781 Z M 1.238281 9.550781 "/>
</g>
</svg>
