<?xml version="1.0" encoding="UTF-8"?>
<svg xmlns="http://www.w3.org/2000/svg" xmlns:xlink="http://www.w3.org/1999/xlink" width="24px" height="24px" viewBox="0 0 24 24" version="1.1">
<g id="surface1">
<path style=" stroke:none;fill-rule:nonzero;fill:rgb(16.078432%,71.372551%,96.470588%);fill-opacity:1;" d="M 4.464844 8.621094 L 4.464844 17.210938 C 4.429688 17.402344 4.503906 17.609375 4.695312 17.726562 L 11.640625 21.941406 C 11.796875 22.039062 11.996094 22.039062 12.152344 21.941406 L 19.097656 17.726562 C 19.257812 17.628906 19.335938 17.464844 19.335938 17.300781 L 19.347656 17.300781 L 19.347656 8.621094 Z M 4.464844 8.621094 "/>
<path style=" stroke:none;fill-rule:nonzero;fill:rgb(50.588238%,83.137256%,98.039216%);fill-opacity:1;" d="M 11.65625 12.835938 L 11.65625 21.953125 C 11.8125 22.039062 12.003906 22.035156 12.152344 21.941406 L 12.152344 12.835938 Z M 11.65625 12.835938 "/>
<path style=" stroke:none;fill-rule:nonzero;fill:rgb(87.843138%,87.843138%,87.843138%);fill-opacity:1;" d="M 8.445312 1.675781 C 8.355469 1.675781 8.265625 1.699219 8.1875 1.742188 L 1.242188 5.710938 C 0.929688 5.890625 0.90625 6.332031 1.199219 6.542969 L 4.457031 8.871094 L 1.199219 11.195312 C 0.90625 11.40625 0.929688 11.847656 1.242188 12.027344 L 8.1875 15.996094 C 8.355469 16.09375 8.5625 16.082031 8.722656 15.96875 L 11.90625 13.695312 L 15.089844 15.96875 C 15.25 16.082031 15.457031 16.09375 15.625 15.996094 L 22.570312 12.027344 C 22.882812 11.847656 22.90625 11.40625 22.613281 11.195312 L 19.355469 8.871094 L 22.613281 6.542969 C 22.90625 6.332031 22.882812 5.890625 22.570312 5.710938 L 15.625 1.742188 C 15.550781 1.699219 15.472656 1.679688 15.386719 1.675781 C 15.28125 1.675781 15.175781 1.707031 15.089844 1.769531 L 11.90625 4.042969 L 8.722656 1.769531 C 8.640625 1.710938 8.542969 1.679688 8.445312 1.675781 Z M 11.90625 5.222656 L 18.289062 8.871094 L 11.90625 12.515625 L 5.523438 8.871094 Z M 11.90625 5.222656 "/>
<path style=" stroke:none;fill-rule:nonzero;fill:rgb(61.960787%,61.960787%,61.960787%);fill-opacity:1;" d="M 11.914062 4.402344 C 11.832031 4.402344 11.746094 4.425781 11.671875 4.464844 L 5.101562 8.222656 C 4.792969 8.398438 4.785156 8.84375 5.09375 9.027344 L 11.664062 13.019531 C 11.8125 13.109375 12 13.109375 12.148438 13.019531 L 18.71875 9.027344 C 19.027344 8.84375 19.019531 8.398438 18.710938 8.222656 L 12.140625 4.464844 C 12.070312 4.425781 11.992188 4.40625 11.914062 4.402344 Z M 11.914062 4.402344 "/>
<path style=" stroke:none;fill-rule:nonzero;fill:rgb(74.117649%,74.117649%,74.117649%);fill-opacity:1;" d="M 11.914062 4.402344 C 11.832031 4.402344 11.746094 4.425781 11.671875 4.464844 L 11.65625 4.476562 L 11.65625 13.015625 L 11.664062 13.019531 C 11.8125 13.109375 12 13.109375 12.148438 13.019531 L 12.152344 13.015625 L 12.152344 4.476562 L 12.140625 4.464844 C 12.070312 4.425781 11.992188 4.40625 11.914062 4.402344 Z M 11.914062 4.402344 "/>
</g>
</svg>
