<?xml version="1.0" encoding="UTF-8"?>
<svg xmlns="http://www.w3.org/2000/svg" xmlns:xlink="http://www.w3.org/1999/xlink" width="24px" height="24px" viewBox="0 0 24 24" version="1.1">
<g id="surface1">
<path style=" stroke:none;fill-rule:nonzero;fill:rgb(25.882354%,64.705884%,96.078432%);fill-opacity:0.995763;" d="M 11.90625 4.839844 C 9.054688 4.839844 5.953125 4.898438 4.464844 5.394531 C 2.726562 5.890625 1.488281 12.835938 1.054688 16.0625 C 0.992188 19.039062 2.851562 19.78125 3.472656 20.09375 C 4.03125 20.339844 4.515625 20.292969 4.960938 20.09375 C 5.953125 19.535156 6.695312 17.425781 7.503906 16.0625 C 7.6875 15.691406 8.183594 15.441406 8.804688 15.441406 L 15.007812 15.441406 C 15.625 15.441406 16.121094 15.691406 16.308594 16.0625 C 17.117188 17.425781 17.859375 19.535156 18.851562 20.09375 C 19.296875 20.292969 19.78125 20.339844 20.339844 20.09375 C 20.960938 19.78125 22.820312 19.039062 22.757812 16.0625 C 22.324219 12.835938 21.082031 5.890625 19.347656 5.394531 C 17.859375 4.898438 14.820312 4.839844 11.90625 4.839844 Z M 11.90625 4.839844 "/>
<path style=" stroke:none;fill-rule:nonzero;fill:rgb(36.078432%,41.960785%,75.294119%);fill-opacity:1;" d="M 11.90625 6.636719 C 10.542969 6.636719 8.496094 6.710938 6.695312 6.882812 L 5.953125 11.722656 C 6.574219 12.464844 7.308594 13.378906 8.0625 14.078125 C 8.679688 14.699219 9.671875 14.511719 11.90625 14.511719 C 14.136719 14.511719 15.128906 14.699219 15.75 14.078125 C 16.503906 13.378906 17.238281 12.464844 17.859375 11.722656 L 17.113281 6.882812 C 15.316406 6.710938 13.269531 6.636719 11.90625 6.636719 Z M 11.90625 6.636719 "/>
<path style=" stroke:none;fill-rule:nonzero;fill:rgb(25.882354%,25.882354%,25.882354%);fill-opacity:1;" d="M 5.953125 6.140625 C 7.597656 6.140625 8.929688 7.417969 8.929688 8.992188 C 8.929688 10.570312 7.597656 11.847656 5.953125 11.847656 C 4.308594 11.847656 2.976562 10.570312 2.976562 8.992188 C 2.976562 7.417969 4.308594 6.140625 5.953125 6.140625 Z M 5.953125 6.140625 "/>
<path style=" stroke:none;fill-rule:nonzero;fill:rgb(25.882354%,25.882354%,25.882354%);fill-opacity:1;" d="M 17.859375 6.140625 C 19.503906 6.140625 20.835938 7.417969 20.835938 8.992188 C 20.835938 10.570312 19.503906 11.847656 17.859375 11.847656 C 16.214844 11.847656 14.882812 10.570312 14.882812 8.992188 C 14.882812 7.417969 16.214844 6.140625 17.859375 6.140625 Z M 17.859375 6.140625 "/>
<path style=" stroke:none;fill-rule:nonzero;fill:rgb(25.882354%,25.882354%,25.882354%);fill-opacity:1;" d="M 9.425781 10.605469 C 10.382812 10.605469 11.160156 11.382812 11.160156 12.339844 C 11.160156 13.300781 10.382812 14.078125 9.425781 14.078125 C 8.46875 14.078125 7.6875 13.300781 7.6875 12.339844 C 7.6875 11.382812 8.46875 10.605469 9.425781 10.605469 Z M 9.425781 10.605469 "/>
<path style=" stroke:none;fill-rule:nonzero;fill:rgb(25.882354%,64.705884%,96.078432%);fill-opacity:1;" d="M 9.425781 11.101562 C 10.109375 11.101562 10.664062 11.65625 10.664062 12.339844 C 10.664062 13.027344 10.109375 13.582031 9.425781 13.582031 C 8.742188 13.582031 8.183594 13.027344 8.183594 12.339844 C 8.183594 11.65625 8.742188 11.101562 9.425781 11.101562 Z M 9.425781 11.101562 "/>
<path style=" stroke:none;fill-rule:nonzero;fill:rgb(16.078432%,71.372551%,96.470588%);fill-opacity:1;" d="M 13.269531 11.597656 C 13.613281 11.597656 13.890625 11.875 13.890625 12.21875 C 13.890625 12.558594 13.613281 12.839844 13.269531 12.839844 C 12.929688 12.839844 12.648438 12.558594 12.648438 12.21875 C 12.648438 11.875 12.929688 11.597656 13.269531 11.597656 Z M 13.269531 11.597656 "/>
<path style=" stroke:none;fill-rule:nonzero;fill:rgb(100%,65.490198%,14.901961%);fill-opacity:1;" d="M 14.511719 10.355469 C 14.851562 10.355469 15.128906 10.636719 15.128906 10.976562 C 15.128906 11.320312 14.851562 11.597656 14.511719 11.597656 C 14.167969 11.597656 13.890625 11.320312 13.890625 10.976562 C 13.890625 10.636719 14.167969 10.355469 14.511719 10.355469 Z M 14.511719 10.355469 "/>
<path style=" stroke:none;fill-rule:nonzero;fill:rgb(93.725491%,32.549021%,31.37255%);fill-opacity:1;" d="M 15.75 11.597656 C 16.09375 11.597656 16.371094 11.875 16.371094 12.21875 C 16.371094 12.558594 16.09375 12.839844 15.75 12.839844 C 15.410156 12.839844 15.128906 12.558594 15.128906 12.21875 C 15.128906 11.875 15.410156 11.597656 15.75 11.597656 Z M 15.75 11.597656 "/>
<path style=" stroke:none;fill-rule:nonzero;fill:rgb(61.176473%,80.000001%,39.607844%);fill-opacity:1;" d="M 14.511719 12.835938 C 14.851562 12.835938 15.128906 13.117188 15.128906 13.457031 C 15.128906 13.800781 14.851562 14.078125 14.511719 14.078125 C 14.167969 14.078125 13.890625 13.800781 13.890625 13.457031 C 13.890625 13.117188 14.167969 12.835938 14.511719 12.835938 Z M 14.511719 12.835938 "/>
<path style=" stroke:none;fill-rule:nonzero;fill:rgb(47.450981%,52.549022%,79.607844%);fill-opacity:1;" d="M 5.953125 6.257812 C 7.527344 6.257812 8.804688 7.484375 8.804688 8.992188 C 8.804688 10.503906 7.527344 11.726562 5.953125 11.726562 C 4.378906 11.726562 3.101562 10.503906 3.101562 8.992188 C 3.101562 7.484375 4.378906 6.257812 5.953125 6.257812 Z M 5.953125 6.257812 "/>
<path style=" stroke:none;fill-rule:nonzero;fill:rgb(25.882354%,25.882354%,25.882354%);fill-opacity:1;" d="M 5.953125 6.636719 C 6.550781 6.636719 6.046875 8.074219 6.46875 8.496094 C 6.890625 8.917969 8.328125 8.414062 8.328125 9.011719 C 8.328125 9.609375 6.890625 9.105469 6.46875 9.527344 C 6.046875 9.949219 6.550781 11.386719 5.953125 11.386719 C 5.355469 11.386719 5.859375 9.949219 5.4375 9.527344 C 5.015625 9.105469 3.578125 9.609375 3.578125 9.011719 C 3.578125 8.414062 5.015625 8.917969 5.4375 8.496094 C 5.859375 8.074219 5.355469 6.636719 5.953125 6.636719 Z M 5.953125 6.636719 "/>
<path style=" stroke:none;fill-rule:nonzero;fill:rgb(36.078432%,41.960785%,75.294119%);fill-opacity:1;" d="M 22.007812 11.695312 C 21.320312 15.03125 19.875 17.367188 18.070312 19.308594 C 18.316406 19.65625 18.574219 19.9375 18.851562 20.09375 C 19.296875 20.292969 19.78125 20.339844 20.339844 20.09375 C 20.960938 19.78125 22.820312 19.039062 22.757812 16.0625 C 22.605469 14.921875 22.351562 13.316406 22.007812 11.695312 Z M 22.007812 11.695312 "/>
<path style=" stroke:none;fill-rule:nonzero;fill:rgb(36.078432%,41.960785%,75.294119%);fill-opacity:1;" d="M 1.796875 11.695312 C 2.488281 15.03125 3.933594 17.367188 5.738281 19.308594 C 5.492188 19.65625 5.234375 19.9375 4.957031 20.09375 C 4.507812 20.292969 4.027344 20.339844 3.46875 20.09375 C 2.847656 19.78125 0.988281 19.039062 1.050781 16.0625 C 1.203125 14.921875 1.457031 13.316406 1.796875 11.695312 Z M 1.796875 11.695312 "/>
<path style=" stroke:none;fill-rule:nonzero;fill:rgb(47.450981%,52.549022%,79.607844%);fill-opacity:1;" d="M 17.859375 6.265625 C 19.433594 6.265625 20.707031 7.484375 20.707031 8.992188 C 20.707031 10.5 19.433594 11.722656 17.859375 11.722656 C 16.285156 11.722656 15.011719 10.5 15.011719 8.992188 C 15.011719 7.484375 16.285156 6.265625 17.859375 6.265625 Z M 17.859375 6.265625 "/>
</g>
</svg>
