
<svg xmlns="http://www.w3.org/2000/svg" xmlns:xlink="http://www.w3.org/1999/xlink" width="24px" height="24px" viewBox="0 0 24 24" version="1.1">
<g id="surface1">
<path style=" stroke:none;fill-rule:nonzero;fill:rgb(92.941177%,90.588236%,96.470588%);fill-opacity:1;" d="M 11.90625 0.992188 C 17.933594 0.992188 22.820312 5.878906 22.820312 11.90625 C 22.820312 17.933594 17.933594 22.820312 11.90625 22.820312 C 5.878906 22.820312 0.992188 17.933594 0.992188 11.90625 C 0.992188 5.878906 5.878906 0.992188 11.90625 0.992188 Z M 11.90625 0.992188 "/>
<path style=" stroke:none;fill-rule:nonzero;fill:rgb(49.411765%,34.117648%,76.078433%);fill-opacity:1;" d="M 11.90625 1.984375 C 17.386719 1.984375 21.828125 6.425781 21.828125 11.90625 C 21.828125 17.386719 17.386719 21.828125 11.90625 21.828125 C 6.425781 21.828125 1.984375 17.386719 1.984375 11.90625 C 1.984375 6.425781 6.425781 1.984375 11.90625 1.984375 Z M 11.90625 1.984375 "/>
<path style=" stroke:none;fill-rule:nonzero;fill:rgb(92.941177%,90.588236%,96.470588%);fill-opacity:1;" d="M 10.359375 9.257812 C 9.957031 9.261719 9.621094 9.429688 9.328125 9.601562 C 9.015625 9.785156 8.722656 9.996094 8.398438 10.164062 C 7.746094 10.5 6.992188 10.734375 5.621094 10.277344 C 5.105469 10.105469 4.707031 10.746094 5.09375 11.128906 C 5.976562 12.015625 7.421875 12.507812 8.820312 12.644531 C 9.519531 12.710938 10.207031 12.679688 10.820312 12.519531 C 11.21875 12.414062 11.597656 12.253906 11.90625 12.007812 C 12.214844 12.253906 12.59375 12.414062 12.992188 12.519531 C 13.605469 12.679688 14.292969 12.710938 14.992188 12.644531 C 16.390625 12.507812 17.835938 12.015625 18.71875 11.128906 C 19.105469 10.746094 18.707031 10.105469 18.191406 10.277344 C 16.820312 10.734375 16.066406 10.5 15.414062 10.164062 C 15.089844 9.996094 14.796875 9.785156 14.484375 9.601562 C 14.171875 9.417969 13.808594 9.238281 13.371094 9.257812 C 12.707031 9.28125 12.222656 9.605469 11.90625 9.921875 C 11.589844 9.605469 11.105469 9.28125 10.441406 9.257812 C 10.414062 9.257812 10.386719 9.257812 10.359375 9.257812 Z M 10.914062 13.722656 C 10.550781 13.722656 10.300781 14.089844 10.433594 14.429688 L 11.425781 16.910156 C 11.601562 17.339844 12.210938 17.339844 12.386719 16.910156 L 13.378906 14.429688 C 13.511719 14.089844 13.261719 13.722656 12.898438 13.722656 Z M 10.914062 13.722656 "/>
</g>
</svg>
