<?xml version="1.0" encoding="UTF-8"?>
<svg xmlns="http://www.w3.org/2000/svg" xmlns:xlink="http://www.w3.org/1999/xlink" width="24px" height="24px" viewBox="0 0 24 24" version="1.1">
<g id="surface1">
<path style=" stroke:none;fill-rule:nonzero;fill:rgb(55.29412%,43.137255%,38.82353%);fill-opacity:1;" d="M 19.414062 1.117188 C 19.214844 5.179688 16.128906 8.382812 12.328125 8.382812 C 9.839844 8.382812 7.660156 7.011719 6.394531 4.921875 C 5.792969 6.820312 5.84375 9.609375 5.296875 11.097656 C 6.292969 11.476562 6.984375 12.296875 6.984375 13.246094 C 6.984375 14.417969 5.941406 15.390625 4.5625 15.585938 C 12.195312 22.894531 22.378906 18.101562 22.378906 8.382812 C 22.378906 5.457031 21.230469 2.847656 19.414062 1.117188 Z M 19.414062 1.117188 "/>
<path style=" stroke:none;fill-rule:nonzero;fill:rgb(96.078432%,96.078432%,96.078432%);fill-opacity:1;" d="M 16.660156 8.367188 C 17.820312 9.527344 17.964844 11.261719 16.984375 12.246094 C 16.003906 13.226562 14.265625 13.082031 13.105469 11.921875 C 11.941406 10.761719 11.800781 9.023438 12.78125 8.042969 C 13.761719 7.058594 15.5 7.203125 16.660156 8.367188 Z M 16.660156 8.367188 "/>
<path style=" stroke:none;fill-rule:nonzero;fill:rgb(25.882354%,25.882354%,25.882354%);fill-opacity:1;" d="M 3.980469 10.871094 L 4.046875 10.871094 C 5.667969 10.871094 6.984375 11.933594 6.984375 13.246094 C 6.984375 14.558594 5.667969 15.625 4.046875 15.625 L 3.980469 15.625 C 2.359375 15.625 1.042969 14.558594 1.042969 13.246094 C 1.042969 11.933594 2.359375 10.871094 3.980469 10.871094 Z M 3.980469 10.871094 "/>
<path style=" stroke:none;fill-rule:nonzero;fill:rgb(96.078432%,96.078432%,96.078432%);fill-opacity:1;" d="M 8.433594 8.390625 C 9.621094 7.707031 11.027344 7.921875 11.574219 8.867188 C 12.121094 9.816406 11.605469 11.144531 10.417969 11.828125 C 9.230469 12.511719 7.824219 12.296875 7.277344 11.347656 C 6.730469 10.402344 7.246094 9.074219 8.433594 8.390625 Z M 8.433594 8.390625 "/>
<path style=" stroke:none;fill-rule:nonzero;fill:rgb(25.882354%,25.882354%,25.882354%);fill-opacity:1;" d="M 10.417969 9.117188 C 11.03125 9.117188 11.527344 9.613281 11.527344 10.226562 C 11.527344 10.839844 11.03125 11.335938 10.417969 11.335938 C 9.804688 11.335938 9.308594 10.839844 9.308594 10.226562 C 9.308594 9.613281 9.804688 9.117188 10.417969 9.117188 Z M 10.417969 9.117188 "/>
<path style=" stroke:none;fill-rule:nonzero;fill:rgb(25.882354%,25.882354%,25.882354%);fill-opacity:1;" d="M 13.394531 9.117188 C 14.007812 9.117188 14.503906 9.613281 14.503906 10.226562 C 14.503906 10.839844 14.007812 11.335938 13.394531 11.335938 C 12.78125 11.335938 12.285156 10.839844 12.285156 10.226562 C 12.285156 9.613281 12.78125 9.117188 13.394531 9.117188 Z M 13.394531 9.117188 "/>
<path style=" stroke:none;fill-rule:nonzero;fill:rgb(25.882354%,25.882354%,25.882354%);fill-opacity:1;" d="M 16.960938 14.203125 C 17.023438 14.328125 17.058594 14.464844 17.058594 14.605469 L 17.058594 14.75 C 17.058594 15.527344 16.003906 16.152344 14.695312 16.152344 C 14.039062 16.152344 13.445312 15.996094 13.019531 15.742188 C 13.308594 16.324219 14.210938 16.746094 15.285156 16.746094 C 16.597656 16.746094 17.652344 16.117188 17.652344 15.339844 L 17.652344 15.195312 C 17.652344 14.808594 17.386719 14.457031 16.960938 14.203125 Z M 16.960938 14.203125 "/>
<path style=" stroke:none;fill-rule:nonzero;fill:rgb(100%,65.490198%,14.901961%);fill-opacity:1;" d="M 16.761719 15.433594 C 16.457031 15.757812 15.945312 16 15.332031 16.101562 C 15.554688 16.320312 15.769531 16.53125 15.847656 16.609375 L 15.882812 16.644531 C 17.609375 18.371094 19.097656 19.535156 19.40625 19.355469 C 19.550781 19.269531 19.59375 19.226562 19.636719 19.125 C 19.78125 18.730469 18.65625 17.324219 16.929688 15.597656 L 16.890625 15.5625 C 16.882812 15.554688 16.796875 15.472656 16.761719 15.433594 Z M 16.761719 15.433594 "/>
<path style=" stroke:none;fill-rule:nonzero;fill:rgb(25.882354%,25.882354%,25.882354%);fill-opacity:1;" d="M 22.386719 23.007812 C 21.945312 21.980469 21.359375 21.992188 20.4375 21.382812 C 19.832031 20.882812 19.289062 20.109375 19.285156 19.347656 C 19.285156 19.160156 19.570312 19.0625 19.65625 18.976562 C 21.804688 18.742188 22.808594 21.738281 22.386719 23.007812 Z M 22.386719 23.007812 "/>
<path style=" stroke:none;fill-rule:nonzero;fill:rgb(38.039216%,38.039216%,38.039216%);fill-opacity:1;" d="M 2.671875 12.203125 L 2.6875 12.1875 C 3.152344 11.921875 3.679688 11.960938 3.863281 12.28125 C 4.046875 12.601562 3.820312 13.074219 3.355469 13.34375 L 3.335938 13.355469 C 2.871094 13.625 2.34375 13.582031 2.160156 13.265625 C 1.976562 12.945312 2.207031 12.46875 2.671875 12.203125 Z M 2.671875 12.203125 "/>
<path style=" stroke:none;fill-rule:nonzero;fill:rgb(74.117649%,74.117649%,74.117649%);fill-opacity:1;" d="M 19.636719 19.125 C 19.71875 18.789062 19.300781 18.203125 18.441406 17.203125 C 18.351562 17.410156 18.222656 17.613281 18.058594 17.777344 C 17.898438 17.9375 17.707031 18.066406 17.5 18.160156 C 18.5 19.015625 19.160156 19.472656 19.40625 19.355469 C 19.535156 19.285156 19.597656 19.226562 19.636719 19.125 Z M 19.636719 19.125 "/>
</g>
</svg>
