<?xml version="1.0" encoding="UTF-8"?>
<svg xmlns="http://www.w3.org/2000/svg" xmlns:xlink="http://www.w3.org/1999/xlink" width="24px" height="24px" viewBox="0 0 24 24" version="1.1">
<defs>
<linearGradient id="linear0" gradientUnits="userSpaceOnUse" x1="31.753056" y1="56.067898" x2="31.753056" y2="5.792224" gradientTransform="matrix(0.433566,0,0,0.433566,-1.861295,-1.301211)">
<stop offset="0" style="stop-color:rgb(87.843138%,87.843138%,87.843138%);stop-opacity:1;"/>
<stop offset="1" style="stop-color:rgb(93.333334%,93.333334%,93.333334%);stop-opacity:1;"/>
</linearGradient>
</defs>
<g id="surface1">
<path style=" stroke:none;fill-rule:nonzero;fill:url(#linear0);" d="M 2.726562 13.253906 L 2.726562 13.828125 C 2.726562 18.914062 6.820312 23.007812 11.90625 23.007812 C 16.992188 23.007812 21.082031 18.914062 21.082031 13.828125 L 21.082031 13.253906 C 21.082031 7.234375 16.492188 1.179688 11.90625 1.179688 C 7.316406 1.179688 2.726562 7.234375 2.726562 13.253906 Z M 2.726562 13.253906 "/>
<path style=" stroke:none;fill-rule:nonzero;fill:rgb(61.960787%,61.960787%,61.960787%);fill-opacity:1;" d="M 5.953125 11.859375 L 5.953125 13.570312 C 5.621094 13.507812 5.289062 13.441406 4.960938 13.371094 L 4.960938 12.65625 C 4.796875 12.621094 4.628906 12.582031 4.464844 12.542969 L 4.464844 13.257812 C 4.132812 13.179688 3.800781 13.097656 3.472656 13.007812 L 3.472656 12.300781 C 3.308594 12.253906 3.140625 12.210938 2.976562 12.164062 L 2.976562 12.871094 C 2.898438 12.847656 2.816406 12.824219 2.738281 12.800781 C 2.730469 12.953125 2.726562 13.105469 2.726562 13.253906 L 2.726562 13.316406 C 5.636719 14.160156 8.71875 14.609375 11.90625 14.609375 C 15.09375 14.609375 18.175781 14.160156 21.082031 13.316406 L 21.082031 13.253906 C 21.082031 13.105469 21.082031 12.953125 21.074219 12.800781 C 18.246094 13.632812 15.253906 14.089844 12.152344 14.113281 C 12.152344 14.101562 12.152344 14.089844 12.152344 14.078125 L 12.152344 12.394531 C 12.070312 12.394531 11.988281 12.394531 11.90625 12.394531 C 11.824219 12.394531 11.742188 12.394531 11.65625 12.394531 L 11.65625 14.078125 C 11.65625 14.089844 11.660156 14.101562 11.660156 14.113281 C 11.410156 14.109375 11.160156 14.105469 10.914062 14.097656 C 10.914062 14.09375 10.914062 14.085938 10.914062 14.078125 L 10.914062 13.371094 C 10.75 13.367188 10.582031 13.363281 10.417969 13.355469 L 10.417969 14.078125 C 10.417969 14.078125 10.417969 14.078125 10.417969 14.082031 C 10.085938 14.066406 9.753906 14.046875 9.425781 14.019531 L 9.425781 13.296875 C 9.261719 13.285156 9.09375 13.269531 8.929688 13.253906 L 8.929688 13.980469 C 8.597656 13.949219 8.265625 13.914062 7.9375 13.875 L 7.9375 13.152344 C 7.773438 13.132812 7.605469 13.109375 7.441406 13.089844 L 7.441406 13.808594 C 7.105469 13.761719 6.769531 13.710938 6.4375 13.65625 C 6.445312 13.632812 6.449219 13.609375 6.449219 13.582031 L 6.449219 11.945312 C 6.285156 11.917969 6.117188 11.890625 5.953125 11.859375 Z M 5.953125 11.859375 "/>
<path style=" stroke:none;fill-rule:nonzero;fill:rgb(25.882354%,25.882354%,25.882354%);fill-opacity:1;" d="M 11.902344 15.316406 C 11.820312 15.320312 11.746094 15.359375 11.699219 15.429688 L 10.707031 16.917969 C 10.597656 17.082031 10.714844 17.304688 10.914062 17.304688 L 12.898438 17.304688 C 13.097656 17.304688 13.214844 17.082031 13.105469 16.917969 L 12.113281 15.429688 C 12.066406 15.359375 11.988281 15.316406 11.902344 15.316406 Z M 11.902344 15.316406 "/>
</g>
</svg>
