<?xml version="1.0" encoding="UTF-8"?>
<svg xmlns="http://www.w3.org/2000/svg" xmlns:xlink="http://www.w3.org/1999/xlink" width="24px" height="24px" viewBox="0 0 24 24" version="1.1">
<g id="surface1">
<path style=" stroke:none;fill-rule:nonzero;fill:rgb(100%,43.921569%,26.274511%);fill-opacity:1;" d="M 4.890625 1.277344 C 4.636719 1.277344 4.382812 1.375 4.1875 1.570312 L 1.382812 4.375 C 0.992188 4.765625 0.992188 5.390625 1.382812 5.78125 L 7.695312 12.09375 L 1.382812 18.40625 C 0.992188 18.796875 0.992188 19.421875 1.382812 19.8125 L 4.1875 22.617188 C 4.578125 23.007812 5.203125 23.007812 5.59375 22.617188 L 11.90625 16.304688 L 18.21875 22.617188 C 18.609375 23.007812 19.234375 23.007812 19.625 22.617188 L 22.429688 19.8125 C 22.820312 19.421875 22.820312 18.796875 22.429688 18.40625 L 16.117188 12.09375 L 22.429688 5.78125 C 22.820312 5.390625 22.820312 4.765625 22.429688 4.375 L 19.625 1.570312 C 19.234375 1.179688 18.609375 1.179688 18.21875 1.570312 L 11.90625 7.882812 L 5.59375 1.570312 C 5.398438 1.375 5.144531 1.277344 4.890625 1.277344 Z M 4.890625 1.277344 "/>
<path style=" stroke:none;fill-rule:nonzero;fill:rgb(100%,65.490198%,14.901961%);fill-opacity:1;" d="M 14.136719 10.605469 C 12.898438 10.605469 11.90625 12.09375 11.90625 12.09375 C 11.90625 12.09375 10.914062 13.582031 9.671875 13.582031 C 8.457031 13.582031 7.71875 12.152344 7.691406 12.097656 L 1.382812 18.40625 C 0.992188 18.796875 0.992188 19.421875 1.382812 19.8125 L 4.1875 22.617188 C 4.578125 23.007812 5.203125 23.007812 5.59375 22.617188 L 11.90625 16.304688 L 18.21875 22.617188 C 18.609375 23.007812 19.234375 23.007812 19.625 22.617188 L 22.429688 19.8125 C 22.820312 19.421875 22.820312 18.796875 22.429688 18.40625 L 16.117188 12.09375 L 16.121094 12.089844 C 16.09375 12.039062 15.355469 10.605469 14.136719 10.605469 Z M 14.136719 10.605469 "/>
</g>
</svg>
