<?xml version="1.0" encoding="UTF-8"?>
<svg xmlns="http://www.w3.org/2000/svg" xmlns:xlink="http://www.w3.org/1999/xlink" width="24px" height="24px" viewBox="0 0 24 24" version="1.1">
<defs>
<linearGradient id="linear0" gradientUnits="userSpaceOnUse" x1="42.333332" y1="42.999996" x2="465.666656" y2="42.999996" gradientTransform="matrix(0.046875,0,0,0.046875,0.000000140625,10.078125)">
<stop offset="0" style="stop-color:rgb(97.254902%,97.254902%,97.254902%);stop-opacity:0;"/>
<stop offset="0.5" style="stop-color:rgb(100%,100%,100%);stop-opacity:0.0784314;"/>
<stop offset="1" style="stop-color:rgb(99.607843%,99.607843%,99.607843%);stop-opacity:0;"/>
</linearGradient>
</defs>
<g id="surface1">
<path style=" stroke:none;fill-rule:nonzero;fill:rgb(25.882354%,25.882354%,25.882354%);fill-opacity:1;" d="M 1.984375 2.171875 L 21.828125 2.171875 C 22.375 2.171875 22.820312 2.617188 22.820312 3.164062 L 22.820312 21.023438 C 22.820312 21.570312 22.375 22.015625 21.828125 22.015625 L 1.984375 22.015625 C 1.4375 22.015625 0.992188 21.570312 0.992188 21.023438 L 0.992188 3.164062 C 0.992188 2.617188 1.4375 2.171875 1.984375 2.171875 Z M 1.984375 2.171875 "/>
<path style=" stroke:none;fill-rule:nonzero;fill:url(#linear0);" d="M 1.984375 2.914062 L 1.984375 3.414062 L 21.828125 3.414062 L 21.828125 2.914062 Z M 1.984375 4.402344 L 1.984375 4.902344 L 21.828125 4.902344 L 21.828125 4.402344 Z M 1.984375 5.894531 L 1.984375 6.390625 L 21.828125 6.390625 L 21.828125 5.894531 Z M 1.984375 7.382812 L 1.984375 7.878906 L 21.828125 7.878906 L 21.828125 7.382812 Z M 1.984375 8.867188 L 1.984375 9.363281 L 21.828125 9.363281 L 21.828125 8.867188 Z M 1.984375 10.355469 L 1.984375 10.851562 L 21.828125 10.851562 L 21.828125 10.355469 Z M 1.984375 11.84375 L 1.984375 12.339844 L 21.828125 12.339844 L 21.828125 11.84375 Z M 1.984375 13.335938 L 1.984375 13.832031 L 21.828125 13.832031 L 21.828125 13.335938 Z M 1.984375 14.820312 L 1.984375 15.316406 L 21.828125 15.316406 L 21.828125 14.820312 Z M 1.984375 16.308594 L 1.984375 16.804688 L 21.828125 16.804688 L 21.828125 16.308594 Z M 1.984375 17.796875 L 1.984375 18.292969 L 21.828125 18.292969 L 21.828125 17.796875 Z M 1.984375 19.285156 L 1.984375 19.78125 L 21.828125 19.78125 L 21.828125 19.285156 Z M 1.984375 20.773438 L 1.984375 21.269531 L 21.828125 21.269531 L 21.828125 20.773438 Z M 1.984375 20.773438 "/>
<path style=" stroke:none;fill-rule:nonzero;fill:rgb(61.176473%,80.000001%,39.607844%);fill-opacity:1;" d="M 11.90625 10.605469 C 12.042969 10.605469 12.15625 10.714844 12.15625 10.855469 L 12.15625 13.335938 C 12.15625 13.472656 12.042969 13.582031 11.90625 13.582031 C 11.769531 13.582031 11.65625 13.472656 11.65625 13.335938 L 11.65625 10.855469 C 11.65625 10.714844 11.769531 10.605469 11.90625 10.605469 Z M 11.90625 10.605469 "/>
<path style=" stroke:none;fill-rule:nonzero;fill:rgb(61.176473%,80.000001%,39.607844%);fill-opacity:1;" d="M 14.375 10.605469 L 14.398438 10.605469 C 14.527344 10.605469 14.632812 10.714844 14.632812 10.855469 L 14.632812 13.332031 C 14.632812 13.472656 14.527344 13.582031 14.398438 13.582031 L 14.375 13.582031 C 14.246094 13.582031 14.140625 13.472656 14.140625 13.332031 L 14.140625 10.855469 C 14.140625 10.714844 14.246094 10.605469 14.375 10.605469 Z M 14.375 10.605469 "/>
<path style=" stroke:none;fill-rule:nonzero;fill:rgb(61.176473%,80.000001%,39.607844%);fill-opacity:1;" d="M 9.671875 10.605469 C 9.8125 10.605469 9.921875 10.714844 9.921875 10.851562 L 9.921875 13.332031 C 9.921875 13.472656 9.8125 13.582031 9.671875 13.582031 C 9.535156 13.582031 9.425781 13.472656 9.425781 13.332031 L 9.425781 10.851562 C 9.425781 10.714844 9.535156 10.605469 9.671875 10.605469 Z M 9.671875 10.605469 "/>
<path style=" stroke:none;fill-rule:nonzero;fill:rgb(61.176473%,80.000001%,39.607844%);fill-opacity:1;" d="M 9.175781 6.140625 C 9.316406 6.140625 9.425781 6.25 9.425781 6.386719 L 9.425781 10.359375 C 9.425781 10.496094 9.316406 10.605469 9.175781 10.605469 C 9.039062 10.605469 8.929688 10.496094 8.929688 10.359375 L 8.929688 6.386719 C 8.929688 6.25 9.039062 6.140625 9.175781 6.140625 Z M 9.175781 6.140625 "/>
<path style=" stroke:none;fill-rule:nonzero;fill:rgb(61.176473%,80.000001%,39.607844%);fill-opacity:1;" d="M 9.164062 13.582031 L 9.191406 13.582031 C 9.320312 13.582031 9.425781 13.691406 9.425781 13.828125 L 9.425781 17.800781 C 9.425781 17.9375 9.320312 18.046875 9.191406 18.046875 L 9.164062 18.046875 C 9.035156 18.046875 8.929688 17.9375 8.929688 17.800781 L 8.929688 13.828125 C 8.929688 13.691406 9.035156 13.582031 9.164062 13.582031 Z M 9.164062 13.582031 "/>
<path style=" stroke:none;fill-rule:nonzero;fill:rgb(100%,43.921569%,26.274511%);fill-opacity:1;" d="M 7.9375 13.582031 C 8.074219 13.582031 8.183594 13.691406 8.183594 13.828125 L 8.183594 17.800781 C 8.183594 17.9375 8.074219 18.046875 7.9375 18.046875 C 7.800781 18.046875 7.691406 17.9375 7.691406 17.800781 L 7.691406 13.828125 C 7.691406 13.691406 7.800781 13.582031 7.9375 13.582031 Z M 7.9375 13.582031 "/>
<path style=" stroke:none;fill-rule:nonzero;fill:rgb(93.725491%,32.549021%,31.37255%);fill-opacity:1;" d="M 6.699219 13.582031 C 6.835938 13.582031 6.945312 13.691406 6.945312 13.828125 L 6.945312 17.800781 C 6.945312 17.9375 6.835938 18.046875 6.699219 18.046875 C 6.558594 18.046875 6.449219 17.9375 6.449219 17.800781 L 6.449219 13.828125 C 6.449219 13.691406 6.558594 13.582031 6.699219 13.582031 Z M 6.699219 13.582031 "/>
<path style=" stroke:none;fill-rule:nonzero;fill:rgb(100%,43.921569%,26.274511%);fill-opacity:1;" d="M 7.9375 6.140625 C 8.074219 6.140625 8.183594 6.25 8.183594 6.386719 L 8.183594 10.359375 C 8.183594 10.496094 8.074219 10.605469 7.9375 10.605469 C 7.800781 10.605469 7.691406 10.496094 7.691406 10.359375 L 7.691406 6.386719 C 7.691406 6.25 7.800781 6.140625 7.9375 6.140625 Z M 7.9375 6.140625 "/>
<path style=" stroke:none;fill-rule:nonzero;fill:rgb(93.725491%,32.549021%,31.37255%);fill-opacity:1;" d="M 6.699219 6.140625 C 6.835938 6.140625 6.945312 6.25 6.945312 6.386719 L 6.945312 10.359375 C 6.945312 10.496094 6.835938 10.605469 6.699219 10.605469 C 6.558594 10.605469 6.449219 10.496094 6.449219 10.359375 L 6.449219 6.386719 C 6.449219 6.25 6.558594 6.140625 6.699219 6.140625 Z M 6.699219 6.140625 "/>
<path style=" stroke:none;fill-rule:nonzero;fill:rgb(93.725491%,32.549021%,31.37255%);fill-opacity:1;" d="M 17.363281 6.140625 C 17.5 6.140625 17.613281 6.25 17.613281 6.386719 L 17.613281 10.359375 C 17.613281 10.496094 17.5 10.605469 17.363281 10.605469 C 17.226562 10.605469 17.117188 10.496094 17.117188 10.359375 L 17.117188 6.386719 C 17.117188 6.25 17.226562 6.140625 17.363281 6.140625 Z M 17.363281 6.140625 "/>
<path style=" stroke:none;fill-rule:nonzero;fill:rgb(93.725491%,32.549021%,31.37255%);fill-opacity:1;" d="M 17.3125 13.582031 L 17.414062 13.582031 C 17.523438 13.582031 17.613281 13.691406 17.613281 13.828125 L 17.613281 17.800781 C 17.613281 17.9375 17.523438 18.046875 17.414062 18.046875 L 17.3125 18.046875 C 17.203125 18.046875 17.117188 17.9375 17.117188 17.800781 L 17.117188 13.828125 C 17.117188 13.691406 17.203125 13.582031 17.3125 13.582031 Z M 17.3125 13.582031 "/>
<path style=" stroke:none;fill-rule:nonzero;fill:rgb(100%,43.921569%,26.274511%);fill-opacity:1;" d="M 16.125 13.582031 C 16.261719 13.582031 16.371094 13.691406 16.371094 13.828125 L 16.371094 17.800781 C 16.371094 17.9375 16.261719 18.046875 16.125 18.046875 C 15.984375 18.046875 15.875 17.9375 15.875 17.800781 L 15.875 13.828125 C 15.875 13.691406 15.984375 13.582031 16.125 13.582031 Z M 16.125 13.582031 "/>
<path style=" stroke:none;fill-rule:nonzero;fill:rgb(61.176473%,80.000001%,39.607844%);fill-opacity:1;" d="M 14.882812 13.582031 C 15.019531 13.582031 15.128906 13.691406 15.128906 13.828125 L 15.128906 17.800781 C 15.128906 17.9375 15.019531 18.046875 14.882812 18.046875 C 14.746094 18.046875 14.636719 17.9375 14.636719 17.800781 L 14.636719 13.828125 C 14.636719 13.691406 14.746094 13.582031 14.882812 13.582031 Z M 14.882812 13.582031 "/>
<path style=" stroke:none;fill-rule:nonzero;fill:rgb(100%,43.921569%,26.274511%);fill-opacity:1;" d="M 16.125 6.140625 C 16.261719 6.140625 16.371094 6.25 16.371094 6.386719 L 16.371094 10.359375 C 16.371094 10.496094 16.261719 10.605469 16.125 10.605469 C 15.984375 10.605469 15.875 10.496094 15.875 10.359375 L 15.875 6.386719 C 15.875 6.25 15.984375 6.140625 16.125 6.140625 Z M 16.125 6.140625 "/>
<path style=" stroke:none;fill-rule:nonzero;fill:rgb(61.176473%,80.000001%,39.607844%);fill-opacity:1;" d="M 14.859375 6.140625 L 14.90625 6.140625 C 15.03125 6.140625 15.128906 6.25 15.128906 6.386719 L 15.128906 10.359375 C 15.128906 10.496094 15.03125 10.605469 14.90625 10.605469 L 14.859375 10.605469 C 14.734375 10.605469 14.636719 10.496094 14.636719 10.359375 L 14.636719 6.386719 C 14.636719 6.25 14.734375 6.140625 14.859375 6.140625 Z M 14.859375 6.140625 "/>
</g>
</svg>
