
<svg xmlns="http://www.w3.org/2000/svg" xmlns:xlink="http://www.w3.org/1999/xlink" width="24px" height="24px" viewBox="0 0 24 24" version="1.1">
<g id="surface1">
<path style=" stroke:none;fill-rule:nonzero;fill:rgb(24.705882%,31.764707%,70.980394%);fill-opacity:1;" d="M 2.480469 0.992188 L 21.332031 0.992188 C 22.152344 0.992188 22.820312 1.660156 22.820312 2.480469 L 22.820312 21.332031 C 22.820312 22.152344 22.152344 22.820312 21.332031 22.820312 L 2.480469 22.820312 C 1.660156 22.820312 0.992188 22.152344 0.992188 21.332031 L 0.992188 2.480469 C 0.992188 1.660156 1.660156 0.992188 2.480469 0.992188 Z M 2.480469 0.992188 "/>
<path style=" stroke:none;fill-rule:nonzero;fill:rgb(36.078432%,41.960785%,75.294119%);fill-opacity:1;" d="M 2.976562 1.488281 L 20.835938 1.488281 C 21.382812 1.488281 21.828125 1.933594 21.828125 2.480469 L 21.828125 19.347656 C 21.828125 19.894531 21.382812 20.339844 20.835938 20.339844 L 2.976562 20.339844 C 2.429688 20.339844 1.984375 19.894531 1.984375 19.347656 L 1.984375 2.480469 C 1.984375 1.933594 2.429688 1.488281 2.976562 1.488281 Z M 2.976562 1.488281 "/>
<path style=" stroke:none;fill-rule:nonzero;fill:rgb(93.333334%,93.333334%,93.333334%);fill-opacity:1;" d="M 18.519531 7.441406 C 17.226562 7.617188 14.601562 7.796875 10.636719 7.976562 C 10.28125 9.398438 9.8125 10.757812 9.234375 12.050781 L 9.367188 12.117188 C 11.015625 11.003906 12.417969 10.445312 13.574219 10.445312 C 15.046875 10.445312 16.179688 10.804688 16.984375 11.515625 C 17.785156 12.226562 18.183594 13.140625 18.183594 14.253906 C 18.183594 15.546875 17.671875 16.523438 16.648438 17.191406 C 15.667969 17.816406 14.199219 18.128906 12.238281 18.128906 C 10.90625 18.128906 9.480469 18.0625 7.964844 17.925781 L 7.898438 16.125 C 9.191406 16.433594 10.59375 16.589844 12.105469 16.589844 C 13.53125 16.589844 14.601562 16.414062 15.3125 16.058594 C 16.070312 15.65625 16.449219 15.054688 16.449219 14.253906 C 16.449219 13.542969 16.203125 12.984375 15.714844 12.582031 C 15.222656 12.136719 14.511719 11.914062 13.574219 11.914062 C 11.75 11.914062 10.035156 12.695312 8.433594 14.253906 L 7.230469 13.320312 C 7.941406 12.160156 8.566406 10.402344 9.101562 8.042969 L 5.292969 8.042969 L 5.292969 6.574219 C 6.628906 6.574219 8.011719 6.550781 9.433594 6.503906 L 9.902344 3.699219 L 11.4375 3.902344 C 11.351562 4.570312 11.195312 5.414062 10.972656 6.4375 C 14.265625 6.304688 16.761719 6.128906 18.453125 5.90625 Z M 18.519531 7.441406 "/>
</g>
</svg>
