
<svg xmlns="http://www.w3.org/2000/svg" xmlns:xlink="http://www.w3.org/1999/xlink" width="24px" height="24px" viewBox="0 0 24 24" version="1.1">
<g id="surface1">
<path style=" stroke:none;fill-rule:nonzero;fill:rgb(24.705882%,31.764707%,70.980394%);fill-opacity:1;" d="M 2.480469 0.992188 L 21.332031 0.992188 C 22.152344 0.992188 22.820312 1.660156 22.820312 2.480469 L 22.820312 21.332031 C 22.820312 22.152344 22.152344 22.820312 21.332031 22.820312 L 2.480469 22.820312 C 1.660156 22.820312 0.992188 22.152344 0.992188 21.332031 L 0.992188 2.480469 C 0.992188 1.660156 1.660156 0.992188 2.480469 0.992188 Z M 2.480469 0.992188 "/>
<path style=" stroke:none;fill-rule:nonzero;fill:rgb(36.078432%,41.960785%,75.294119%);fill-opacity:1;" d="M 2.976562 1.488281 L 20.835938 1.488281 C 21.382812 1.488281 21.828125 1.933594 21.828125 2.480469 L 21.828125 19.347656 C 21.828125 19.894531 21.382812 20.339844 20.835938 20.339844 L 2.976562 20.339844 C 2.429688 20.339844 1.984375 19.894531 1.984375 19.347656 L 1.984375 2.480469 C 1.984375 1.933594 2.429688 1.488281 2.976562 1.488281 Z M 2.976562 1.488281 "/>
<path style=" stroke:none;fill-rule:nonzero;fill:rgb(93.333334%,93.333334%,93.333334%);fill-opacity:1;" d="M 18.710938 7.511719 C 18.660156 12.09375 18.496094 14.90625 18.214844 15.945312 C 17.742188 17.410156 16.773438 18.140625 15.308594 18.140625 C 14.550781 18.140625 13.464844 17.976562 12.046875 17.644531 L 12.046875 15.804688 C 13.371094 16.277344 14.339844 16.511719 14.953125 16.511719 C 15.710938 16.511719 16.230469 16.179688 16.511719 15.519531 C 16.84375 14.8125 17.03125 12.660156 17.078125 9.070312 L 5.597656 9.070312 L 5.101562 7.726562 C 6.332031 6.402344 7.488281 5.054688 8.574219 3.6875 L 9.992188 4.535156 C 9.566406 5.054688 8.695312 6.046875 7.371094 7.511719 Z M 18.710938 7.511719 "/>
</g>
</svg>
