<?xml version="1.0" encoding="UTF-8"?>
<svg xmlns="http://www.w3.org/2000/svg" xmlns:xlink="http://www.w3.org/1999/xlink" width="24px" height="24px" viewBox="0 0 24 24" version="1.1">
<g id="surface1">
<path style=" stroke:none;fill-rule:nonzero;fill:rgb(74.117649%,74.117649%,74.117649%);fill-opacity:1;" d="M 16.617188 22.015625 L 19.84375 18.789062 L 17.363281 18.789062 C 16.949219 18.789062 16.617188 19.121094 16.617188 19.535156 Z M 16.617188 22.015625 "/>
<path style=" stroke:none;fill-rule:nonzero;fill:rgb(100%,65.490198%,14.901961%);fill-opacity:1;" d="M 3.96875 3.164062 L 19.84375 3.164062 C 20.390625 3.164062 20.835938 3.609375 20.835938 4.15625 L 20.835938 22.015625 C 20.835938 22.5625 20.390625 23.007812 19.84375 23.007812 L 3.96875 23.007812 C 3.421875 23.007812 2.976562 22.5625 2.976562 22.015625 L 2.976562 4.15625 C 2.976562 3.609375 3.421875 3.164062 3.96875 3.164062 Z M 3.96875 3.164062 "/>
<path style=" stroke:none;fill-rule:nonzero;fill:rgb(93.333334%,93.333334%,93.333334%);fill-opacity:1;" d="M 4.464844 4.15625 C 4.191406 4.15625 3.96875 4.378906 3.96875 4.652344 L 3.96875 21.519531 C 3.96875 21.792969 4.191406 22.011719 4.464844 22.015625 L 15.875 22.015625 L 19.84375 18.046875 L 19.84375 4.652344 C 19.84375 4.378906 19.621094 4.15625 19.347656 4.15625 Z M 4.464844 4.15625 "/>
<path style=" stroke:none;fill-rule:nonzero;fill:rgb(81.176472%,84.705883%,86.274511%);fill-opacity:1;" d="M 11.90625 1.179688 C 11.082031 1.179688 10.417969 1.84375 10.417969 2.667969 L 6.199219 2.667969 C 5.789062 2.667969 5.457031 3 5.457031 3.410156 L 5.457031 5.644531 L 18.355469 5.644531 L 18.355469 3.410156 C 18.355469 3 18.023438 2.667969 17.609375 2.667969 L 13.394531 2.667969 C 13.394531 1.84375 12.730469 1.179688 11.90625 1.179688 Z M 11.90625 2.171875 C 12.179688 2.171875 12.402344 2.394531 12.402344 2.667969 C 12.402344 2.941406 12.179688 3.164062 11.90625 3.164062 C 11.632812 3.164062 11.410156 2.941406 11.410156 2.667969 C 11.410156 2.394531 11.632812 2.171875 11.90625 2.171875 Z M 11.90625 2.171875 "/>
<path style=" stroke:none;fill-rule:nonzero;fill:rgb(25.882354%,25.882354%,25.882354%);fill-opacity:1;" d="M 7.441406 7.132812 L 16.371094 7.132812 C 16.644531 7.132812 16.867188 7.332031 16.867188 7.578125 L 16.867188 7.679688 C 16.867188 7.925781 16.644531 8.125 16.371094 8.125 L 7.441406 8.125 C 7.167969 8.125 6.945312 7.925781 6.945312 7.679688 L 6.945312 7.578125 C 6.945312 7.332031 7.167969 7.132812 7.441406 7.132812 Z M 7.441406 7.132812 "/>
<path style=" stroke:none;fill-rule:nonzero;fill:rgb(61.960787%,61.960787%,61.960787%);fill-opacity:1;" d="M 8.929688 16.0625 L 9.425781 16.0625 C 9.699219 16.0625 9.921875 16.285156 9.921875 16.558594 C 9.921875 16.832031 9.699219 17.054688 9.425781 17.054688 L 8.929688 17.054688 C 8.65625 17.054688 8.433594 16.832031 8.433594 16.558594 C 8.433594 16.285156 8.65625 16.0625 8.929688 16.0625 Z M 8.929688 16.0625 "/>
<path style=" stroke:none;fill-rule:nonzero;fill:rgb(25.882354%,25.882354%,25.882354%);fill-opacity:1;" d="M 6.449219 13.085938 L 14.386719 13.085938 C 14.660156 13.085938 14.882812 13.292969 14.882812 13.546875 L 14.882812 13.617188 C 14.882812 13.871094 14.660156 14.078125 14.386719 14.078125 L 6.449219 14.078125 C 6.175781 14.078125 5.953125 13.871094 5.953125 13.617188 L 5.953125 13.546875 C 5.953125 13.292969 6.175781 13.085938 6.449219 13.085938 Z M 6.449219 13.085938 "/>
<path style=" stroke:none;fill-rule:nonzero;fill:rgb(61.960787%,61.960787%,61.960787%);fill-opacity:1;" d="M 10.914062 10.109375 L 16.371094 10.109375 C 16.644531 10.109375 16.867188 10.332031 16.867188 10.605469 C 16.867188 10.878906 16.644531 11.101562 16.371094 11.101562 L 10.914062 11.101562 C 10.640625 11.101562 10.417969 10.878906 10.417969 10.605469 C 10.417969 10.332031 10.640625 10.109375 10.914062 10.109375 Z M 10.914062 10.109375 "/>
<path style=" stroke:none;fill-rule:nonzero;fill:rgb(61.960787%,61.960787%,61.960787%);fill-opacity:1;" d="M 11.410156 16.0625 L 17.363281 16.0625 C 17.636719 16.0625 17.859375 16.285156 17.859375 16.558594 C 17.859375 16.832031 17.636719 17.054688 17.363281 17.054688 L 11.410156 17.054688 C 11.136719 17.054688 10.914062 16.832031 10.914062 16.558594 C 10.914062 16.285156 11.136719 16.0625 11.410156 16.0625 Z M 11.410156 16.0625 "/>
<path style=" stroke:none;fill-rule:nonzero;fill:rgb(74.117649%,74.117649%,74.117649%);fill-opacity:1;" d="M 19.84375 18.046875 L 15.875 22.015625 L 19.347656 22.015625 C 19.621094 22.015625 19.84375 21.792969 19.84375 21.519531 Z M 19.84375 18.046875 "/>
<path style=" stroke:none;fill-rule:nonzero;fill:rgb(87.843138%,87.843138%,87.843138%);fill-opacity:1;" d="M 15.875 22.015625 L 19.84375 18.046875 L 16.371094 18.046875 C 16.097656 18.046875 15.875 18.269531 15.875 18.542969 Z M 15.875 22.015625 "/>
</g>
</svg>
