<?xml version="1.0" encoding="UTF-8"?>
<svg xmlns="http://www.w3.org/2000/svg" xmlns:xlink="http://www.w3.org/1999/xlink" width="24px" height="24px" viewBox="0 0 24 24" version="1.1">
<g id="surface1">
<path style=" stroke:none;fill-rule:nonzero;fill:rgb(87.843138%,87.843138%,87.843138%);fill-opacity:1;" d="M 12.714844 1.492188 L 22.507812 11.285156 C 22.953125 11.730469 22.953125 12.457031 22.507812 12.902344 L 12.714844 22.695312 C 12.269531 23.140625 11.542969 23.140625 11.097656 22.695312 L 1.304688 12.902344 C 0.859375 12.457031 0.859375 11.730469 1.304688 11.285156 L 11.097656 1.492188 C 11.542969 1.046875 12.269531 1.046875 12.714844 1.492188 Z M 12.714844 1.492188 "/>
<path style=" stroke:none;fill-rule:nonzero;fill:rgb(36.078432%,41.960785%,75.294119%);fill-opacity:1;" d="M 11.90625 3.246094 C 11.667969 3.246094 11.425781 3.339844 11.242188 3.519531 L 7.847656 6.917969 L 7.847656 13.875 L 11.496094 10.226562 L 15.382812 6.335938 L 12.570312 3.519531 C 12.382812 3.339844 12.144531 3.246094 11.90625 3.246094 Z M 17.433594 8.386719 L 13.957031 11.867188 L 17.695312 15.609375 L 20.515625 12.792969 C 20.882812 12.425781 20.882812 11.832031 20.515625 11.46875 Z M 4.949219 9.816406 L 3.296875 11.46875 C 2.929688 11.832031 2.929688 12.425781 3.296875 12.792969 L 4.949219 14.441406 Z M 11.90625 13.914062 L 8.164062 17.65625 L 11.242188 20.738281 C 11.609375 21.105469 12.199219 21.105469 12.570312 20.738281 L 15.648438 17.65625 Z M 11.90625 13.914062 "/>
</g>
</svg>
