<?xml version="1.0" encoding="UTF-8"?>
<svg xmlns="http://www.w3.org/2000/svg" xmlns:xlink="http://www.w3.org/1999/xlink" width="24px" height="24px" viewBox="0 0 24 24" version="1.1">
<g id="surface1">
<path style=" stroke:none;fill-rule:nonzero;fill:rgb(73.725492%,66.666669%,64.313728%);fill-opacity:1;" d="M 1.984375 1.179688 L 9.921875 1.179688 C 10.46875 1.179688 10.914062 1.625 10.914062 2.171875 L 10.914062 13.582031 C 10.914062 14.128906 10.46875 14.574219 9.921875 14.574219 L 1.984375 14.574219 C 1.4375 14.574219 0.992188 14.128906 0.992188 13.582031 L 0.992188 2.171875 C 0.992188 1.625 1.4375 1.179688 1.984375 1.179688 Z M 1.984375 1.179688 "/>
<path style=" stroke:none;fill-rule:nonzero;fill:rgb(55.29412%,43.137255%,38.82353%);fill-opacity:1;" d="M 2.976562 9.859375 L 2.976562 10.851562 L 3.472656 10.851562 L 3.472656 11.101562 L 2.976562 11.101562 L 2.976562 12.09375 L 3.472656 12.09375 L 3.472656 12.589844 L 2.976562 12.589844 L 2.976562 13.582031 L 5.457031 13.582031 L 5.457031 12.589844 L 4.960938 12.589844 L 4.960938 12.09375 L 5.457031 12.09375 L 5.457031 11.101562 L 4.960938 11.101562 L 4.960938 10.851562 L 5.457031 10.851562 L 5.457031 9.859375 Z M 2.976562 9.859375 "/>
<path style=" stroke:none;fill-rule:nonzero;fill:rgb(40.000001%,73.333335%,41.568628%);fill-opacity:1;" d="M 3.222656 10.109375 L 3.222656 10.605469 L 3.71875 10.605469 L 3.71875 11.347656 L 3.222656 11.347656 L 3.222656 11.84375 L 3.71875 11.84375 L 3.71875 12.835938 L 3.222656 12.835938 L 3.222656 13.332031 L 5.207031 13.332031 L 5.207031 12.835938 L 4.710938 12.835938 L 4.710938 11.84375 L 5.207031 11.84375 L 5.207031 11.347656 L 4.710938 11.347656 L 4.710938 10.605469 L 5.207031 10.605469 L 5.207031 10.109375 Z M 3.222656 10.109375 "/>
<path style=" stroke:none;fill-rule:nonzero;fill:rgb(73.725492%,66.666669%,64.313728%);fill-opacity:1;" d="M 12.898438 1.179688 L 20.835938 1.179688 C 21.382812 1.179688 21.828125 1.625 21.828125 2.171875 L 21.828125 13.582031 C 21.828125 14.128906 21.382812 14.574219 20.835938 14.574219 L 12.898438 14.574219 C 12.351562 14.574219 11.90625 14.128906 11.90625 13.582031 L 11.90625 2.171875 C 11.90625 1.625 12.351562 1.179688 12.898438 1.179688 Z M 12.898438 1.179688 "/>
<path style=" stroke:none;fill-rule:nonzero;fill:rgb(55.29412%,43.137255%,38.82353%);fill-opacity:1;" d="M 15.625 9.859375 L 15.625 10.851562 L 16.121094 10.851562 L 16.121094 11.101562 L 15.625 11.101562 L 15.625 12.09375 L 16.121094 12.09375 L 16.121094 12.589844 L 15.625 12.589844 L 15.625 13.582031 L 18.105469 13.582031 L 18.105469 12.589844 L 17.609375 12.589844 L 17.609375 12.09375 L 18.105469 12.09375 L 18.105469 11.101562 L 17.609375 11.101562 L 17.609375 10.851562 L 18.105469 10.851562 L 18.105469 9.859375 Z M 15.625 9.859375 "/>
<path style=" stroke:none;fill-rule:nonzero;fill:rgb(40.000001%,73.333335%,41.568628%);fill-opacity:1;" d="M 15.875 10.109375 L 15.875 10.605469 L 16.371094 10.605469 L 16.371094 11.347656 L 15.875 11.347656 L 15.875 11.84375 L 16.371094 11.84375 L 16.371094 12.835938 L 15.875 12.835938 L 15.875 13.332031 L 17.859375 13.332031 L 17.859375 12.835938 L 17.363281 12.835938 L 17.363281 11.84375 L 17.859375 11.84375 L 17.859375 11.347656 L 17.363281 11.347656 L 17.363281 10.605469 L 17.859375 10.605469 L 17.859375 10.109375 Z M 15.875 10.109375 "/>
<path style=" stroke:none;fill-rule:nonzero;fill:rgb(84.313726%,80.000001%,78.431374%);fill-opacity:1;" d="M 2.976562 9.613281 L 10.914062 9.613281 C 11.460938 9.613281 11.90625 10.058594 11.90625 10.605469 L 11.90625 22.015625 C 11.90625 22.5625 11.460938 23.007812 10.914062 23.007812 L 2.976562 23.007812 C 2.429688 23.007812 1.984375 22.5625 1.984375 22.015625 L 1.984375 10.605469 C 1.984375 10.058594 2.429688 9.613281 2.976562 9.613281 Z M 2.976562 9.613281 "/>
<path style=" stroke:none;fill-rule:nonzero;fill:rgb(55.29412%,43.137255%,38.82353%);fill-opacity:1;" d="M 2.976562 10.605469 L 2.976562 11.597656 L 3.472656 11.597656 L 3.472656 11.84375 L 2.976562 11.84375 L 2.976562 12.835938 L 3.472656 12.835938 L 3.472656 13.332031 L 2.976562 13.332031 L 2.976562 14.324219 L 5.457031 14.324219 L 5.457031 13.332031 L 4.960938 13.332031 L 4.960938 12.835938 L 5.457031 12.835938 L 5.457031 11.84375 L 4.960938 11.84375 L 4.960938 11.597656 L 5.457031 11.597656 L 5.457031 10.605469 Z M 2.976562 10.605469 "/>
<path style=" stroke:none;fill-rule:nonzero;fill:rgb(40.000001%,73.333335%,41.568628%);fill-opacity:1;" d="M 3.222656 10.851562 L 3.222656 11.347656 L 3.71875 11.347656 L 3.71875 12.09375 L 3.222656 12.09375 L 3.222656 12.589844 L 3.71875 12.589844 L 3.71875 13.582031 L 3.222656 13.582031 L 3.222656 14.078125 L 5.207031 14.078125 L 5.207031 13.582031 L 4.710938 13.582031 L 4.710938 12.589844 L 5.207031 12.589844 L 5.207031 12.09375 L 4.710938 12.09375 L 4.710938 11.347656 L 5.207031 11.347656 L 5.207031 10.851562 Z M 3.222656 10.851562 "/>
<path style=" stroke:none;fill-rule:nonzero;fill:rgb(55.29412%,43.137255%,38.82353%);fill-opacity:1;" d="M 5.703125 18.292969 L 5.703125 19.285156 L 6.199219 19.285156 L 6.199219 19.535156 L 5.703125 19.535156 L 5.703125 20.527344 L 6.199219 20.527344 L 6.199219 21.023438 L 5.703125 21.023438 L 5.703125 22.015625 L 8.183594 22.015625 L 8.183594 21.023438 L 7.6875 21.023438 L 7.6875 20.527344 L 8.183594 20.527344 L 8.183594 19.535156 L 7.6875 19.535156 L 7.6875 19.285156 L 8.183594 19.285156 L 8.183594 18.292969 Z M 5.703125 18.292969 "/>
<path style=" stroke:none;fill-rule:nonzero;fill:rgb(40.000001%,73.333335%,41.568628%);fill-opacity:1;" d="M 5.953125 18.542969 L 5.953125 19.039062 L 6.449219 19.039062 L 6.449219 19.78125 L 5.953125 19.78125 L 5.953125 20.277344 L 6.449219 20.277344 L 6.449219 21.269531 L 5.953125 21.269531 L 5.953125 21.765625 L 7.9375 21.765625 L 7.9375 21.269531 L 7.441406 21.269531 L 7.441406 20.277344 L 7.9375 20.277344 L 7.9375 19.78125 L 7.441406 19.78125 L 7.441406 19.039062 L 7.9375 19.039062 L 7.9375 18.542969 Z M 5.953125 18.542969 "/>
<path style=" stroke:none;fill-rule:nonzero;fill:rgb(55.29412%,43.137255%,38.82353%);fill-opacity:1;" d="M 8.433594 10.605469 L 8.433594 11.597656 L 8.929688 11.597656 L 8.929688 11.84375 L 8.433594 11.84375 L 8.433594 12.835938 L 8.929688 12.835938 L 8.929688 13.332031 L 8.433594 13.332031 L 8.433594 14.324219 L 10.914062 14.324219 L 10.914062 13.332031 L 10.417969 13.332031 L 10.417969 12.835938 L 10.914062 12.835938 L 10.914062 11.84375 L 10.417969 11.84375 L 10.417969 11.597656 L 10.914062 11.597656 L 10.914062 10.605469 Z M 8.433594 10.605469 "/>
<path style=" stroke:none;fill-rule:nonzero;fill:rgb(40.000001%,73.333335%,41.568628%);fill-opacity:1;" d="M 8.679688 10.851562 L 8.679688 11.347656 L 9.175781 11.347656 L 9.175781 12.09375 L 8.679688 12.09375 L 8.679688 12.589844 L 9.175781 12.589844 L 9.175781 13.582031 L 8.679688 13.582031 L 8.679688 14.078125 L 10.664062 14.078125 L 10.664062 13.582031 L 10.167969 13.582031 L 10.167969 12.589844 L 10.664062 12.589844 L 10.664062 12.09375 L 10.167969 12.09375 L 10.167969 11.347656 L 10.664062 11.347656 L 10.664062 10.851562 Z M 8.679688 10.851562 "/>
<path style=" stroke:none;fill-rule:nonzero;fill:rgb(55.29412%,43.137255%,38.82353%);fill-opacity:1;" d="M 2.976562 10.605469 L 2.976562 11.597656 L 3.472656 11.597656 L 3.472656 11.84375 L 2.976562 11.84375 L 2.976562 12.835938 L 3.472656 12.835938 L 3.472656 13.332031 L 2.976562 13.332031 L 2.976562 14.324219 L 5.457031 14.324219 L 5.457031 13.332031 L 4.960938 13.332031 L 4.960938 12.835938 L 5.457031 12.835938 L 5.457031 11.84375 L 4.960938 11.84375 L 4.960938 11.597656 L 5.457031 11.597656 L 5.457031 10.605469 Z M 2.976562 10.605469 "/>
<path style=" stroke:none;fill-rule:nonzero;fill:rgb(40.000001%,73.333335%,41.568628%);fill-opacity:1;" d="M 3.222656 10.851562 L 3.222656 11.347656 L 3.71875 11.347656 L 3.71875 12.09375 L 3.222656 12.09375 L 3.222656 12.589844 L 3.71875 12.589844 L 3.71875 13.582031 L 3.222656 13.582031 L 3.222656 14.078125 L 5.207031 14.078125 L 5.207031 13.582031 L 4.710938 13.582031 L 4.710938 12.589844 L 5.207031 12.589844 L 5.207031 12.09375 L 4.710938 12.09375 L 4.710938 11.347656 L 5.207031 11.347656 L 5.207031 10.851562 Z M 3.222656 10.851562 "/>
<path style=" stroke:none;fill-rule:nonzero;fill:rgb(55.29412%,43.137255%,38.82353%);fill-opacity:1;" d="M 8.433594 10.605469 L 8.433594 11.597656 L 8.929688 11.597656 L 8.929688 11.84375 L 8.433594 11.84375 L 8.433594 12.835938 L 8.929688 12.835938 L 8.929688 13.332031 L 8.433594 13.332031 L 8.433594 14.324219 L 10.914062 14.324219 L 10.914062 13.332031 L 10.417969 13.332031 L 10.417969 12.835938 L 10.914062 12.835938 L 10.914062 11.84375 L 10.417969 11.84375 L 10.417969 11.597656 L 10.914062 11.597656 L 10.914062 10.605469 Z M 8.433594 10.605469 "/>
<path style=" stroke:none;fill-rule:nonzero;fill:rgb(40.000001%,73.333335%,41.568628%);fill-opacity:1;" d="M 8.679688 10.851562 L 8.679688 11.347656 L 9.175781 11.347656 L 9.175781 12.09375 L 8.679688 12.09375 L 8.679688 12.589844 L 9.175781 12.589844 L 9.175781 13.582031 L 8.679688 13.582031 L 8.679688 14.078125 L 10.664062 14.078125 L 10.664062 13.582031 L 10.167969 13.582031 L 10.167969 12.589844 L 10.664062 12.589844 L 10.664062 12.09375 L 10.167969 12.09375 L 10.167969 11.347656 L 10.664062 11.347656 L 10.664062 10.851562 Z M 8.679688 10.851562 "/>
<path style=" stroke:none;fill-rule:nonzero;fill:rgb(55.29412%,43.137255%,38.82353%);fill-opacity:1;" d="M 1.984375 2.171875 L 1.984375 3.164062 L 2.480469 3.164062 L 2.480469 3.410156 L 1.984375 3.410156 L 1.984375 4.402344 L 2.480469 4.402344 L 2.480469 4.898438 L 1.984375 4.898438 L 1.984375 5.890625 L 4.464844 5.890625 L 4.464844 4.898438 L 3.96875 4.898438 L 3.96875 4.402344 L 4.464844 4.402344 L 4.464844 3.410156 L 3.96875 3.410156 L 3.96875 3.164062 L 4.464844 3.164062 L 4.464844 2.171875 Z M 1.984375 2.171875 "/>
<path style=" stroke:none;fill-rule:nonzero;fill:rgb(40.000001%,73.333335%,41.568628%);fill-opacity:1;" d="M 2.230469 2.417969 L 2.230469 2.914062 L 2.726562 2.914062 L 2.726562 3.660156 L 2.230469 3.660156 L 2.230469 4.15625 L 2.726562 4.15625 L 2.726562 5.148438 L 2.230469 5.148438 L 2.230469 5.644531 L 4.214844 5.644531 L 4.214844 5.148438 L 3.71875 5.148438 L 3.71875 4.15625 L 4.214844 4.15625 L 4.214844 3.660156 L 3.71875 3.660156 L 3.71875 2.914062 L 4.214844 2.914062 L 4.214844 2.417969 Z M 2.230469 2.417969 "/>
<path style=" stroke:none;fill-rule:nonzero;fill:rgb(55.29412%,43.137255%,38.82353%);fill-opacity:1;" d="M 7.441406 2.171875 L 7.441406 3.164062 L 7.9375 3.164062 L 7.9375 3.410156 L 7.441406 3.410156 L 7.441406 4.402344 L 7.9375 4.402344 L 7.9375 4.898438 L 7.441406 4.898438 L 7.441406 5.890625 L 9.921875 5.890625 L 9.921875 4.898438 L 9.425781 4.898438 L 9.425781 4.402344 L 9.921875 4.402344 L 9.921875 3.410156 L 9.425781 3.410156 L 9.425781 3.164062 L 9.921875 3.164062 L 9.921875 2.171875 Z M 7.441406 2.171875 "/>
<path style=" stroke:none;fill-rule:nonzero;fill:rgb(40.000001%,73.333335%,41.568628%);fill-opacity:1;" d="M 7.6875 2.417969 L 7.6875 2.914062 L 8.183594 2.914062 L 8.183594 3.660156 L 7.6875 3.660156 L 7.6875 4.15625 L 8.183594 4.15625 L 8.183594 5.148438 L 7.6875 5.148438 L 7.6875 5.644531 L 9.671875 5.644531 L 9.671875 5.148438 L 9.175781 5.148438 L 9.175781 4.15625 L 9.671875 4.15625 L 9.671875 3.660156 L 9.175781 3.660156 L 9.175781 2.914062 L 9.671875 2.914062 L 9.671875 2.417969 Z M 7.6875 2.417969 "/>
<path style=" stroke:none;fill-rule:nonzero;fill:rgb(55.29412%,43.137255%,38.82353%);fill-opacity:1;" d="M 15.625 2.171875 L 15.625 3.164062 L 16.121094 3.164062 L 16.121094 3.410156 L 15.625 3.410156 L 15.625 4.402344 L 16.121094 4.402344 L 16.121094 4.898438 L 15.625 4.898438 L 15.625 5.890625 L 18.105469 5.890625 L 18.105469 4.898438 L 17.609375 4.898438 L 17.609375 4.402344 L 18.105469 4.402344 L 18.105469 3.410156 L 17.609375 3.410156 L 17.609375 3.164062 L 18.105469 3.164062 L 18.105469 2.171875 Z M 15.625 2.171875 "/>
<path style=" stroke:none;fill-rule:nonzero;fill:rgb(40.000001%,73.333335%,41.568628%);fill-opacity:1;" d="M 15.875 2.417969 L 15.875 2.914062 L 16.371094 2.914062 L 16.371094 3.660156 L 15.875 3.660156 L 15.875 4.15625 L 16.371094 4.15625 L 16.371094 5.148438 L 15.875 5.148438 L 15.875 5.644531 L 17.859375 5.644531 L 17.859375 5.148438 L 17.363281 5.148438 L 17.363281 4.15625 L 17.859375 4.15625 L 17.859375 3.660156 L 17.363281 3.660156 L 17.363281 2.914062 L 17.859375 2.914062 L 17.859375 2.417969 Z M 15.875 2.417969 "/>
<path style=" stroke:none;fill-rule:nonzero;fill:rgb(84.313726%,80.000001%,78.431374%);fill-opacity:1;" d="M 13.890625 9.613281 L 21.828125 9.613281 C 22.375 9.613281 22.820312 10.058594 22.820312 10.605469 L 22.820312 22.015625 C 22.820312 22.5625 22.375 23.007812 21.828125 23.007812 L 13.890625 23.007812 C 13.34375 23.007812 12.898438 22.5625 12.898438 22.015625 L 12.898438 10.605469 C 12.898438 10.058594 13.34375 9.613281 13.890625 9.613281 Z M 13.890625 9.613281 "/>
<path style=" stroke:none;fill-rule:nonzero;fill:rgb(55.29412%,43.137255%,38.82353%);fill-opacity:1;" d="M 16.617188 18.292969 L 16.617188 19.285156 L 17.113281 19.285156 L 17.113281 19.535156 L 16.617188 19.535156 L 16.617188 20.527344 L 17.113281 20.527344 L 17.113281 21.023438 L 16.617188 21.023438 L 16.617188 22.015625 L 19.097656 22.015625 L 19.097656 21.023438 L 18.601562 21.023438 L 18.601562 20.527344 L 19.097656 20.527344 L 19.097656 19.535156 L 18.601562 19.535156 L 18.601562 19.285156 L 19.097656 19.285156 L 19.097656 18.292969 Z M 16.617188 18.292969 "/>
<path style=" stroke:none;fill-rule:nonzero;fill:rgb(40.000001%,73.333335%,41.568628%);fill-opacity:1;" d="M 16.867188 18.542969 L 16.867188 19.039062 L 17.363281 19.039062 L 17.363281 19.78125 L 16.867188 19.78125 L 16.867188 20.277344 L 17.363281 20.277344 L 17.363281 21.269531 L 16.867188 21.269531 L 16.867188 21.765625 L 18.851562 21.765625 L 18.851562 21.269531 L 18.355469 21.269531 L 18.355469 20.277344 L 18.851562 20.277344 L 18.851562 19.78125 L 18.355469 19.78125 L 18.355469 19.039062 L 18.851562 19.039062 L 18.851562 18.542969 Z M 16.867188 18.542969 "/>
<path style=" stroke:none;fill-rule:nonzero;fill:rgb(55.29412%,43.137255%,38.82353%);fill-opacity:1;" d="M 13.890625 10.605469 L 13.890625 11.597656 L 14.386719 11.597656 L 14.386719 11.84375 L 13.890625 11.84375 L 13.890625 12.835938 L 14.386719 12.835938 L 14.386719 13.332031 L 13.890625 13.332031 L 13.890625 14.324219 L 16.371094 14.324219 L 16.371094 13.332031 L 15.875 13.332031 L 15.875 12.835938 L 16.371094 12.835938 L 16.371094 11.84375 L 15.875 11.84375 L 15.875 11.597656 L 16.371094 11.597656 L 16.371094 10.605469 Z M 13.890625 10.605469 "/>
<path style=" stroke:none;fill-rule:nonzero;fill:rgb(40.000001%,73.333335%,41.568628%);fill-opacity:1;" d="M 14.136719 10.851562 L 14.136719 11.347656 L 14.632812 11.347656 L 14.632812 12.09375 L 14.136719 12.09375 L 14.136719 12.589844 L 14.632812 12.589844 L 14.632812 13.582031 L 14.136719 13.582031 L 14.136719 14.078125 L 16.121094 14.078125 L 16.121094 13.582031 L 15.625 13.582031 L 15.625 12.589844 L 16.121094 12.589844 L 16.121094 12.09375 L 15.625 12.09375 L 15.625 11.347656 L 16.121094 11.347656 L 16.121094 10.851562 Z M 14.136719 10.851562 "/>
<path style=" stroke:none;fill-rule:nonzero;fill:rgb(55.29412%,43.137255%,38.82353%);fill-opacity:1;" d="M 19.347656 10.605469 L 19.347656 11.597656 L 19.84375 11.597656 L 19.84375 11.84375 L 19.347656 11.84375 L 19.347656 12.835938 L 19.84375 12.835938 L 19.84375 13.332031 L 19.347656 13.332031 L 19.347656 14.324219 L 21.828125 14.324219 L 21.828125 13.332031 L 21.332031 13.332031 L 21.332031 12.835938 L 21.828125 12.835938 L 21.828125 11.84375 L 21.332031 11.84375 L 21.332031 11.597656 L 21.828125 11.597656 L 21.828125 10.605469 Z M 19.347656 10.605469 "/>
<path style=" stroke:none;fill-rule:nonzero;fill:rgb(40.000001%,73.333335%,41.568628%);fill-opacity:1;" d="M 19.59375 10.851562 L 19.59375 11.347656 L 20.089844 11.347656 L 20.089844 12.09375 L 19.59375 12.09375 L 19.59375 12.589844 L 20.089844 12.589844 L 20.089844 13.582031 L 19.59375 13.582031 L 19.59375 14.078125 L 21.578125 14.078125 L 21.578125 13.582031 L 21.082031 13.582031 L 21.082031 12.589844 L 21.578125 12.589844 L 21.578125 12.09375 L 21.082031 12.09375 L 21.082031 11.347656 L 21.578125 11.347656 L 21.578125 10.851562 Z M 19.59375 10.851562 "/>
</g>
</svg>
