<?xml version="1.0" encoding="UTF-8"?>
<svg xmlns="http://www.w3.org/2000/svg" xmlns:xlink="http://www.w3.org/1999/xlink" width="24px" height="24px" viewBox="0 0 24 24" version="1.1">
<g id="surface1">
<path style=" stroke:none;fill-rule:nonzero;fill:rgb(55.29412%,43.137255%,38.82353%);fill-opacity:1;" d="M 11.675781 1.179688 C 14.699219 1.179688 16.449219 2.28125 18.425781 4.253906 C 20.398438 6.226562 20.867188 8.496094 20.867188 11.515625 C 20.867188 14.542969 21.375 17.84375 19.398438 19.816406 C 17.351562 21.867188 14.574219 23.011719 11.675781 23.003906 C 8.652344 23.003906 5.925781 21.789062 3.953125 19.816406 C 1.980469 17.84375 3.347656 15.632812 3.347656 12.609375 C 3.347656 9.585938 3.128906 7.085938 5.101562 5.117188 C 7.074219 3.144531 8.652344 1.179688 11.675781 1.179688 Z M 11.675781 1.179688 "/>
<path style=" stroke:none;fill-rule:nonzero;fill:rgb(96.078432%,96.078432%,96.078432%);fill-opacity:0.995763;" d="M 7.359375 8.367188 C 8.425781 7.300781 10.011719 7.15625 10.902344 8.042969 C 11.789062 8.933594 11.644531 10.519531 10.578125 11.585938 C 9.511719 12.652344 7.929688 12.792969 7.039062 11.90625 C 6.152344 11.015625 6.292969 9.433594 7.359375 8.367188 Z M 7.359375 8.367188 "/>
<path style=" stroke:none;fill-rule:nonzero;fill:rgb(25.882354%,25.882354%,25.882354%);fill-opacity:0.995763;" d="M 9.773438 9.171875 C 10.128906 8.816406 10.707031 8.816406 11.0625 9.171875 C 11.417969 9.527344 11.417969 10.101562 11.0625 10.457031 C 10.707031 10.8125 10.128906 10.8125 9.773438 10.457031 C 9.417969 10.101562 9.417969 9.527344 9.773438 9.171875 Z M 9.773438 9.171875 "/>
<path style=" stroke:none;fill-rule:nonzero;fill:rgb(96.078432%,96.078432%,96.078432%);fill-opacity:0.995763;" d="M 16.652344 11.585938 C 15.585938 12.652344 14 12.792969 13.113281 11.90625 C 12.222656 11.015625 12.367188 9.433594 13.433594 8.367188 C 14.5 7.300781 16.085938 7.15625 16.972656 8.042969 C 17.863281 8.933594 17.71875 10.519531 16.652344 11.585938 Z M 16.652344 11.585938 "/>
<path style=" stroke:none;fill-rule:nonzero;fill:rgb(25.882354%,25.882354%,25.882354%);fill-opacity:0.995763;" d="M 14.984375 11.992188 C 14.628906 12.347656 14.050781 12.347656 13.695312 11.992188 C 13.339844 11.636719 13.339844 11.0625 13.695312 10.707031 C 14.050781 10.351562 14.628906 10.351562 14.984375 10.707031 C 15.339844 11.0625 15.339844 11.636719 14.984375 11.992188 Z M 14.984375 11.992188 "/>
<path style=" stroke:none;fill-rule:nonzero;fill:rgb(100%,65.490198%,14.901961%);fill-opacity:1;" d="M 11.90625 11.101562 C 11.65625 11.101562 11.160156 12.09375 10.664062 13.582031 C 9.839844 13.582031 9.175781 14.246094 9.175781 15.070312 C 9.175781 15.894531 9.839844 16.558594 10.664062 16.558594 C 10.675781 16.558594 10.683594 16.558594 10.691406 16.558594 C 10.804688 17.125 11.304688 17.105469 11.90625 17.105469 C 12.507812 17.105469 13.007812 17.125 13.121094 16.558594 C 13.128906 16.558594 13.136719 16.558594 13.144531 16.558594 C 13.972656 16.558594 14.632812 15.894531 14.632812 15.070312 C 14.632812 14.246094 13.972656 13.582031 13.144531 13.582031 C 12.648438 12.09375 12.152344 11.101562 11.90625 11.101562 Z M 11.90625 11.101562 "/>
<path style=" stroke:none;fill-rule:nonzero;fill:rgb(98.431373%,54.901963%,0%);fill-opacity:1;" d="M 10.417969 15.320312 C 10.828125 15.320312 11.164062 15.597656 11.164062 15.9375 C 11.164062 16.28125 10.828125 16.558594 10.417969 16.558594 C 10.007812 16.558594 9.671875 16.28125 9.671875 15.9375 C 9.671875 15.597656 10.007812 15.320312 10.417969 15.320312 Z M 10.417969 15.320312 "/>
<path style=" stroke:none;fill-rule:nonzero;fill:rgb(98.431373%,54.901963%,0%);fill-opacity:1;" d="M 13.394531 15.320312 C 13.804688 15.320312 14.140625 15.597656 14.140625 15.9375 C 14.140625 16.28125 13.804688 16.558594 13.394531 16.558594 C 12.984375 16.558594 12.648438 16.28125 12.648438 15.9375 C 12.648438 15.597656 12.984375 15.320312 13.394531 15.320312 Z M 13.394531 15.320312 "/>
</g>
</svg>
