<?xml version="1.0" encoding="UTF-8"?>
<svg xmlns="http://www.w3.org/2000/svg" xmlns:xlink="http://www.w3.org/1999/xlink" width="24px" height="24px" viewBox="0 0 24 24" version="1.1">
<g id="surface1">
<path style=" stroke:none;fill-rule:nonzero;fill:rgb(26.274511%,62.7451%,27.843139%);fill-opacity:1;" d="M 11.90625 1.179688 L 1.609375 7.125 L 1.609375 16.265625 L 1.582031 16.28125 L 1.582031 20.78125 L 5.480469 23.03125 L 9.375 20.78125 L 9.375 16.28125 L 5.480469 14.03125 L 5.480469 12.425781 C 5.480469 12.378906 5.488281 12.335938 5.507812 12.296875 L 5.507812 9.375 L 11.90625 5.679688 L 18.304688 9.375 L 18.304688 12.296875 C 18.324219 12.335938 18.332031 12.378906 18.332031 12.425781 L 18.332031 14.054688 L 18.292969 14.03125 L 14.398438 16.28125 L 14.398438 20.78125 L 18.292969 23.03125 L 22.1875 20.78125 L 22.1875 19.019531 L 22.203125 19.011719 L 22.203125 7.125 Z M 11.90625 1.179688 "/>
<path style=" stroke:none;fill-rule:nonzero;fill:rgb(40.000001%,73.333335%,41.568628%);fill-opacity:1;" d="M 11.90625 1.992188 L 2.3125 7.53125 L 2.3125 16.671875 L 2.285156 16.6875 L 2.285156 20.375 L 5.480469 22.21875 L 8.671875 20.375 L 8.671875 16.6875 L 4.777344 14.4375 L 4.777344 12.425781 C 4.777344 12.351562 4.785156 12.273438 4.804688 12.203125 L 4.804688 8.96875 L 11.90625 4.867188 L 19.007812 8.96875 L 19.007812 12.203125 C 19.027344 12.273438 19.035156 12.351562 19.035156 12.425781 L 19.035156 14.4375 L 15.140625 16.6875 L 15.140625 20.375 L 18.332031 22.21875 L 21.527344 20.375 L 21.527344 16.6875 L 21.5 16.671875 L 21.5 7.53125 Z M 11.90625 1.992188 "/>
</g>
</svg>
