<?xml version="1.0" encoding="UTF-8"?>
<svg xmlns="http://www.w3.org/2000/svg" xmlns:xlink="http://www.w3.org/1999/xlink" width="24px" height="24px" viewBox="0 0 24 24" version="1.1">
<g id="surface1">
<path style=" stroke:none;fill-rule:nonzero;fill:rgb(61.176473%,80.000001%,39.607844%);fill-opacity:1;" d="M 7.9375 1.179688 C 7.386719 1.179688 6.945312 1.621094 6.945312 2.171875 L 6.945312 14.078125 L 0.992188 14.078125 L 11.90625 23.007812 L 22.820312 14.078125 L 16.867188 14.078125 L 16.867188 2.171875 C 16.867188 1.621094 16.425781 1.179688 15.875 1.179688 Z M 7.9375 1.179688 "/>
<path style=" stroke:none;fill-rule:nonzero;fill:rgb(48.627451%,70.19608%,25.882354%);fill-opacity:1;" d="M 14.386719 6.140625 L 16.867188 6.140625 L 16.867188 8.621094 L 14.386719 8.621094 Z M 14.386719 6.140625 "/>
<path style=" stroke:none;fill-rule:nonzero;fill:rgb(48.627451%,70.19608%,25.882354%);fill-opacity:1;" d="M 11.90625 4.15625 L 14.386719 4.15625 L 14.386719 6.636719 L 11.90625 6.636719 Z M 11.90625 4.15625 "/>
<path style=" stroke:none;fill-rule:nonzero;fill:rgb(48.627451%,70.19608%,25.882354%);fill-opacity:1;" d="M 6.945312 4.15625 L 9.425781 4.15625 L 9.425781 6.636719 L 6.945312 6.636719 Z M 6.945312 4.15625 "/>
<path style=" stroke:none;fill-rule:nonzero;fill:rgb(48.627451%,70.19608%,25.882354%);fill-opacity:1;" d="M 9.425781 6.636719 L 11.90625 6.636719 L 11.90625 9.117188 L 9.425781 9.117188 Z M 9.425781 6.636719 "/>
<path style=" stroke:none;fill-rule:nonzero;fill:rgb(48.627451%,70.19608%,25.882354%);fill-opacity:1;" d="M 11.90625 9.117188 L 14.386719 9.117188 L 14.386719 11.597656 L 11.90625 11.597656 Z M 11.90625 9.117188 "/>
<path style=" stroke:none;fill-rule:nonzero;fill:rgb(48.627451%,70.19608%,25.882354%);fill-opacity:1;" d="M 6.945312 9.117188 L 9.425781 9.117188 L 9.425781 11.597656 L 6.945312 11.597656 Z M 6.945312 9.117188 "/>
<path style=" stroke:none;fill-rule:nonzero;fill:rgb(48.627451%,70.19608%,25.882354%);fill-opacity:1;" d="M 14.386719 11.597656 L 16.867188 11.597656 L 16.867188 14.078125 L 14.386719 14.078125 Z M 14.386719 11.597656 "/>
<path style=" stroke:none;fill-rule:nonzero;fill:rgb(48.627451%,70.19608%,25.882354%);fill-opacity:1;" d="M 9.425781 11.597656 L 11.90625 11.597656 L 11.90625 14.078125 L 9.425781 14.078125 Z M 9.425781 11.597656 "/>
<path style=" stroke:none;fill-rule:nonzero;fill:rgb(48.627451%,70.19608%,25.882354%);fill-opacity:1;" d="M 9.425781 1.675781 L 11.90625 1.675781 L 11.90625 4.15625 L 9.425781 4.15625 Z M 9.425781 1.675781 "/>
<path style=" stroke:none;fill-rule:nonzero;fill:rgb(48.627451%,70.19608%,25.882354%);fill-opacity:1;" d="M 14.386719 1.675781 L 16.867188 1.675781 L 16.867188 4.15625 L 14.386719 4.15625 Z M 14.386719 1.675781 "/>
</g>
</svg>
