
<svg xmlns="http://www.w3.org/2000/svg" xmlns:xlink="http://www.w3.org/1999/xlink" width="24px" height="24px" viewBox="0 0 24 24" version="1.1">
<g id="surface1">
<path style=" stroke:none;fill-rule:nonzero;fill:rgb(61.960787%,61.960787%,61.960787%);fill-opacity:1;" d="M 10.417969 19.84375 L 13.890625 19.84375 C 14.164062 19.84375 14.386719 20.066406 14.386719 20.339844 L 14.386719 21.828125 C 14.386719 22.101562 14.164062 22.324219 13.890625 22.324219 L 10.417969 22.324219 C 10.144531 22.324219 9.921875 22.101562 9.921875 21.828125 L 9.921875 20.339844 C 9.921875 20.066406 10.144531 19.84375 10.417969 19.84375 Z M 10.417969 19.84375 "/>
<path style=" stroke:none;fill-rule:nonzero;fill:rgb(25.882354%,64.705884%,96.078432%);fill-opacity:1;" d="M 1.984375 2.480469 L 21.828125 2.480469 C 22.375 2.480469 22.820312 2.925781 22.820312 3.472656 L 22.820312 19.347656 C 22.820312 19.894531 22.375 20.339844 21.828125 20.339844 L 1.984375 20.339844 C 1.4375 20.339844 0.992188 19.894531 0.992188 19.347656 L 0.992188 3.472656 C 0.992188 2.925781 1.4375 2.480469 1.984375 2.480469 Z M 1.984375 2.480469 "/>
<path style=" stroke:none;fill-rule:nonzero;fill:rgb(74.117649%,74.117649%,74.117649%);fill-opacity:1;" d="M 7.441406 21.332031 L 16.371094 21.332031 C 16.644531 21.332031 16.867188 21.554688 16.867188 21.828125 C 16.867188 22.101562 16.644531 22.324219 16.371094 22.324219 L 7.441406 22.324219 C 7.167969 22.324219 6.945312 22.101562 6.945312 21.828125 C 6.945312 21.554688 7.167969 21.332031 7.441406 21.332031 Z M 7.441406 21.332031 "/>
<path style=" stroke:none;fill-rule:nonzero;fill:rgb(74.117649%,74.117649%,74.117649%);fill-opacity:1;" d="M 1.984375 2.480469 C 1.433594 2.480469 0.992188 2.921875 0.992188 3.472656 L 22.820312 3.472656 C 22.820312 2.921875 22.378906 2.480469 21.828125 2.480469 Z M 0.992188 19.347656 C 0.992188 19.898438 1.433594 20.339844 1.984375 20.339844 L 21.828125 20.339844 C 22.378906 20.339844 22.820312 19.898438 22.820312 19.347656 Z M 0.992188 19.347656 "/>
<path style=" stroke:none;fill-rule:nonzero;fill:rgb(25.882354%,25.882354%,25.882354%);fill-opacity:1;" d="M 11.921875 7.082031 C 11.183594 7.078125 10.433594 7.265625 9.746094 7.664062 C 9.535156 7.785156 9.339844 7.921875 9.160156 8.070312 L 13.191406 10.308594 L 13.140625 7.261719 C 12.746094 7.144531 12.335938 7.082031 11.921875 7.082031 Z M 13.425781 7.359375 L 13.503906 11.972656 L 16.117188 10.40625 C 15.851562 9.292969 15.144531 8.285156 14.066406 7.664062 C 13.859375 7.542969 13.644531 7.445312 13.425781 7.359375 Z M 8.933594 8.265625 C 8.101562 9.054688 7.582031 10.167969 7.582031 11.410156 C 7.582031 11.652344 7.601562 11.886719 7.640625 12.121094 L 11.597656 9.746094 Z M 16.171875 10.699219 L 12.214844 13.074219 L 14.878906 14.554688 C 15.710938 13.765625 16.230469 12.652344 16.230469 11.410156 C 16.230469 11.167969 16.210938 10.933594 16.171875 10.699219 Z M 10.308594 10.847656 L 7.695312 12.414062 C 7.960938 13.527344 8.667969 14.535156 9.742188 15.15625 C 9.953125 15.277344 10.167969 15.375 10.386719 15.460938 Z M 10.621094 12.511719 L 10.671875 15.558594 C 11.769531 15.886719 12.992188 15.777344 14.066406 15.15625 C 14.277344 15.035156 14.472656 14.898438 14.652344 14.75 Z M 10.621094 12.511719 "/>
<path style=" stroke:none;fill-rule:nonzero;fill:rgb(93.333334%,93.333334%,93.333334%);fill-opacity:1;" d="M 11.90625 10.171875 C 12.589844 10.171875 13.144531 10.726562 13.144531 11.410156 C 13.144531 12.09375 12.589844 12.648438 11.90625 12.648438 C 11.222656 12.648438 10.667969 12.09375 10.667969 11.410156 C 10.667969 10.726562 11.222656 10.171875 11.90625 10.171875 Z M 11.90625 10.171875 "/>
<path style=" stroke:none;fill-rule:nonzero;fill:rgb(93.333334%,93.333334%,93.333334%);fill-opacity:1;" d="M 11.90625 6.449219 C 9.15625 6.449219 6.945312 8.660156 6.945312 11.410156 C 6.945312 14.160156 9.15625 16.371094 11.90625 16.371094 C 14.65625 16.371094 16.867188 14.160156 16.867188 11.410156 C 16.867188 8.660156 14.65625 6.449219 11.90625 6.449219 Z M 11.90625 7.191406 C 14.242188 7.191406 16.121094 9.074219 16.121094 11.410156 C 16.121094 13.746094 14.242188 15.625 11.90625 15.625 C 9.570312 15.625 7.6875 13.746094 7.6875 11.410156 C 7.6875 9.074219 9.570312 7.191406 11.90625 7.191406 Z M 11.90625 7.191406 "/>
</g>
</svg>
