<?xml version="1.0" encoding="UTF-8"?>
<svg xmlns="http://www.w3.org/2000/svg" xmlns:xlink="http://www.w3.org/1999/xlink" width="24px" height="24px" viewBox="0 0 24 24" version="1.1">
<g id="surface1">
<path style=" stroke:none;fill-rule:nonzero;fill:rgb(40.000001%,73.333335%,41.568628%);fill-opacity:1;" d="M 11.90625 1.179688 C 6.960938 1.179688 2.976562 5.164062 2.976562 10.109375 L 2.976562 20.527344 C 2.976562 21.902344 4.082031 23.007812 5.457031 23.007812 C 6.832031 23.007812 7.9375 21.902344 7.9375 20.527344 L 7.9375 17.550781 C 7.9375 17.136719 8.269531 16.808594 8.679688 16.808594 C 9.09375 16.808594 9.425781 17.136719 9.425781 17.550781 L 9.425781 20.527344 C 9.425781 21.902344 10.53125 23.007812 11.90625 23.007812 C 13.28125 23.007812 14.386719 21.902344 14.386719 20.527344 L 14.386719 17.550781 C 14.386719 17.136719 14.71875 16.808594 15.132812 16.808594 C 15.542969 16.808594 15.875 17.136719 15.875 17.550781 L 15.875 20.527344 C 15.875 21.902344 16.980469 23.007812 18.355469 23.007812 C 19.730469 23.007812 20.835938 21.902344 20.835938 20.527344 L 20.835938 10.109375 C 20.835938 5.164062 16.851562 1.179688 11.90625 1.179688 Z M 11.90625 1.179688 "/>
<path style=" stroke:none;fill-rule:nonzero;fill:rgb(96.078432%,96.078432%,96.078432%);fill-opacity:0.995763;" d="M 6.675781 7.949219 C 7.835938 6.789062 9.566406 6.628906 10.53125 7.597656 C 11.5 8.566406 11.34375 10.296875 10.183594 11.457031 C 9.019531 12.621094 7.292969 12.777344 6.324219 11.808594 C 5.355469 10.839844 5.511719 9.113281 6.675781 7.949219 Z M 6.675781 7.949219 "/>
<path style=" stroke:none;fill-rule:nonzero;fill:rgb(25.882354%,25.882354%,25.882354%);fill-opacity:0.995763;" d="M 9.304688 8.828125 C 9.691406 8.4375 10.320312 8.4375 10.707031 8.828125 C 11.097656 9.214844 11.097656 9.84375 10.707031 10.230469 C 10.320312 10.617188 9.691406 10.617188 9.304688 10.230469 C 8.917969 9.84375 8.917969 9.214844 9.304688 8.828125 Z M 9.304688 8.828125 "/>
<path style=" stroke:none;fill-rule:nonzero;fill:rgb(96.078432%,96.078432%,96.078432%);fill-opacity:0.995763;" d="M 17.136719 7.949219 C 15.976562 6.789062 14.246094 6.628906 13.28125 7.597656 C 12.3125 8.566406 12.46875 10.296875 13.628906 11.457031 C 14.792969 12.621094 16.519531 12.777344 17.488281 11.808594 C 18.457031 10.839844 18.300781 9.113281 17.136719 7.949219 Z M 17.136719 7.949219 "/>
<path style=" stroke:none;fill-rule:nonzero;fill:rgb(25.882354%,25.882354%,25.882354%);fill-opacity:0.995763;" d="M 14.507812 8.828125 C 14.121094 8.4375 13.492188 8.4375 13.105469 8.828125 C 12.714844 9.214844 12.714844 9.84375 13.105469 10.230469 C 13.492188 10.617188 14.121094 10.617188 14.507812 10.230469 C 14.894531 9.84375 14.894531 9.214844 14.507812 8.828125 Z M 14.507812 8.828125 "/>
</g>
</svg>
