
<svg xmlns="http://www.w3.org/2000/svg" xmlns:xlink="http://www.w3.org/1999/xlink" width="24px" height="24px" viewBox="0 0 24 24" version="1.1">
<g id="surface1">
<path style=" stroke:none;fill-rule:nonzero;fill:rgb(32.941177%,43.137255%,47.843137%);fill-opacity:1;" d="M 3.472656 0.992188 L 20.339844 0.992188 C 20.886719 0.992188 21.332031 1.4375 21.332031 1.984375 L 21.332031 21.828125 C 21.332031 22.375 20.886719 22.820312 20.339844 22.820312 L 3.472656 22.820312 C 2.925781 22.820312 2.480469 22.375 2.480469 21.828125 L 2.480469 1.984375 C 2.480469 1.4375 2.925781 0.992188 3.472656 0.992188 Z M 3.472656 0.992188 "/>
<path style=" stroke:none;fill-rule:nonzero;fill:rgb(47.058824%,56.470591%,61.176473%);fill-opacity:1;" d="M 4.960938 2.480469 L 18.851562 2.480469 C 19.125 2.480469 19.347656 2.703125 19.347656 2.976562 L 19.347656 20.835938 C 19.347656 21.109375 19.125 21.332031 18.851562 21.332031 L 4.960938 21.332031 C 4.6875 21.332031 4.464844 21.109375 4.464844 20.835938 L 4.464844 2.976562 C 4.464844 2.703125 4.6875 2.480469 4.960938 2.480469 Z M 4.960938 2.480469 "/>
<path style=" stroke:none;fill-rule:nonzero;fill:rgb(27.058825%,35.294119%,39.215687%);fill-opacity:1;" d="M 11.90625 13.890625 C 13.003906 13.890625 13.890625 14.777344 13.890625 15.875 C 13.890625 16.972656 13.003906 17.859375 11.90625 17.859375 C 10.808594 17.859375 9.921875 16.972656 9.921875 15.875 C 9.921875 14.777344 10.808594 13.890625 11.90625 13.890625 Z M 11.90625 13.890625 "/>
<path style=" stroke:none;fill-rule:nonzero;fill:rgb(27.058825%,35.294119%,39.215687%);fill-opacity:1;" d="M 11.90625 4.710938 C 13.6875 4.710938 15.132812 6.15625 15.132812 7.9375 C 15.132812 9.71875 13.6875 11.164062 11.90625 11.164062 C 10.125 11.164062 8.679688 9.71875 8.679688 7.9375 C 8.679688 6.15625 10.125 4.710938 11.90625 4.710938 Z M 11.90625 4.710938 "/>
<path style=" stroke:none;fill-rule:nonzero;fill:rgb(81.176472%,84.705883%,86.274511%);fill-opacity:1;" d="M 3.96875 4.960938 L 4.960938 4.960938 L 4.960938 5.953125 L 3.96875 5.953125 Z M 3.96875 4.960938 "/>
<path style=" stroke:none;fill-rule:nonzero;fill:rgb(81.176472%,84.705883%,86.274511%);fill-opacity:1;" d="M 3.96875 6.945312 L 4.960938 6.945312 L 4.960938 7.9375 L 3.96875 7.9375 Z M 3.96875 6.945312 "/>
<path style=" stroke:none;fill-rule:nonzero;fill:rgb(81.176472%,84.705883%,86.274511%);fill-opacity:1;" d="M 3.96875 15.875 L 4.960938 15.875 L 4.960938 16.867188 L 3.96875 16.867188 Z M 3.96875 15.875 "/>
<path style=" stroke:none;fill-rule:nonzero;fill:rgb(81.176472%,84.705883%,86.274511%);fill-opacity:1;" d="M 3.96875 17.859375 L 4.960938 17.859375 L 4.960938 18.851562 L 3.96875 18.851562 Z M 3.96875 17.859375 "/>
<path style=" stroke:none;fill-rule:nonzero;fill:rgb(69.01961%,74.509805%,77.254903%);fill-opacity:1;" d="M 11.90625 4.960938 C 13.550781 4.960938 14.882812 6.292969 14.882812 7.9375 C 14.882812 9.582031 13.550781 10.914062 11.90625 10.914062 C 10.261719 10.914062 8.929688 9.582031 8.929688 7.9375 C 8.929688 6.292969 10.261719 4.960938 11.90625 4.960938 Z M 11.90625 4.960938 "/>
<path style=" stroke:none;fill-rule:nonzero;fill:rgb(27.058825%,35.294119%,39.215687%);fill-opacity:1;" d="M 11.90625 6.449219 C 12.726562 6.449219 13.394531 7.117188 13.394531 7.9375 C 13.394531 8.757812 12.726562 9.425781 11.90625 9.425781 C 11.085938 9.425781 10.417969 8.757812 10.417969 7.9375 C 10.417969 7.117188 11.085938 6.449219 11.90625 6.449219 Z M 11.90625 6.449219 "/>
<path style=" stroke:none;fill-rule:nonzero;fill:rgb(92.54902%,93.725491%,94.509804%);fill-opacity:1;" d="M 11.90625 6.945312 C 12.453125 6.945312 12.898438 7.390625 12.898438 7.9375 C 12.898438 8.484375 12.453125 8.929688 11.90625 8.929688 C 11.359375 8.929688 10.914062 8.484375 10.914062 7.9375 C 10.914062 7.390625 11.359375 6.945312 11.90625 6.945312 Z M 11.90625 6.945312 "/>
<path style=" stroke:none;fill-rule:nonzero;fill:rgb(27.058825%,35.294119%,39.215687%);fill-opacity:1;" d="M 11.78125 5.085938 L 11.78125 5.953125 L 12.03125 5.953125 L 12.03125 5.085938 Z M 11.304688 5.148438 L 11.0625 5.210938 L 11.191406 5.691406 L 11.433594 5.628906 Z M 12.507812 5.148438 L 12.378906 5.628906 L 12.621094 5.691406 L 12.75 5.210938 Z M 10.617188 5.398438 L 10.402344 5.519531 L 10.652344 5.949219 L 10.867188 5.828125 Z M 13.195312 5.398438 L 12.945312 5.828125 L 13.160156 5.949219 L 13.410156 5.519531 Z M 10.019531 5.816406 L 9.84375 5.988281 L 10.195312 6.339844 L 10.371094 6.164062 Z M 13.792969 5.816406 L 13.441406 6.164062 L 13.617188 6.339844 L 13.96875 5.988281 Z M 9.550781 6.371094 L 9.425781 6.585938 L 10.179688 7.023438 L 10.304688 6.808594 Z M 14.261719 6.371094 L 13.507812 6.808594 L 13.632812 7.023438 L 14.386719 6.585938 Z M 9.242188 7.035156 L 9.179688 7.273438 L 9.65625 7.402344 L 9.722656 7.160156 Z M 14.570312 7.035156 L 14.089844 7.160156 L 14.15625 7.402344 L 14.632812 7.273438 Z M 9.117188 7.75 L 9.117188 8 L 9.613281 8 L 9.613281 7.75 Z M 14.199219 7.75 L 14.199219 8 L 14.695312 8 L 14.695312 7.75 Z M 9.65625 8.347656 L 9.179688 8.476562 L 9.242188 8.71875 L 9.722656 8.589844 Z M 14.15625 8.347656 L 14.089844 8.589844 L 14.570312 8.71875 L 14.632812 8.476562 Z M 10.179688 8.730469 L 9.425781 9.164062 L 9.550781 9.378906 L 10.304688 8.945312 Z M 13.632812 8.730469 L 13.507812 8.945312 L 14.261719 9.378906 L 14.386719 9.164062 Z M 10.195312 9.410156 L 9.84375 9.761719 L 10.019531 9.9375 L 10.371094 9.585938 Z M 13.617188 9.410156 L 13.441406 9.585938 L 13.792969 9.9375 L 13.96875 9.761719 Z M 11.78125 9.796875 L 11.78125 10.664062 L 12.03125 10.664062 L 12.03125 9.796875 Z M 10.652344 9.800781 L 10.402344 10.230469 L 10.617188 10.355469 L 10.867188 9.925781 Z M 13.160156 9.800781 L 12.945312 9.925781 L 13.195312 10.355469 L 13.410156 10.230469 Z M 11.191406 10.058594 L 11.0625 10.539062 L 11.304688 10.601562 L 11.433594 10.125 Z M 12.621094 10.058594 L 12.378906 10.125 L 12.507812 10.601562 L 12.75 10.539062 Z M 12.621094 10.058594 "/>
<path style=" stroke:none;fill-rule:nonzero;fill:rgb(32.941177%,43.137255%,47.843137%);fill-opacity:1;" d="M 11.90625 14.386719 C 12.726562 14.386719 13.394531 15.054688 13.394531 15.875 C 13.394531 16.695312 12.726562 17.363281 11.90625 17.363281 C 11.085938 17.363281 10.417969 16.695312 10.417969 15.875 C 10.417969 15.054688 11.085938 14.386719 11.90625 14.386719 Z M 11.90625 14.386719 "/>
<path style=" stroke:none;fill-rule:nonzero;fill:rgb(47.058824%,56.470591%,61.176473%);fill-opacity:1;" d="M 11.410156 12.898438 L 11.410156 15.589844 L 9.082031 16.933594 L 9.578125 17.792969 L 11.90625 16.449219 L 14.234375 17.792969 L 14.730469 16.933594 L 12.402344 15.589844 L 12.402344 12.898438 Z M 11.410156 12.898438 "/>
<path style=" stroke:none;fill-rule:nonzero;fill:rgb(74.117649%,74.117649%,74.117649%);fill-opacity:1;" d="M 11.90625 11.90625 C 12.453125 11.90625 12.898438 12.351562 12.898438 12.898438 C 12.898438 13.445312 12.453125 13.890625 11.90625 13.890625 C 11.359375 13.890625 10.914062 13.445312 10.914062 12.898438 C 10.914062 12.351562 11.359375 11.90625 11.90625 11.90625 Z M 11.90625 11.90625 "/>
<path style=" stroke:none;fill-rule:nonzero;fill:rgb(69.01961%,74.509805%,77.254903%);fill-opacity:1;" d="M 11.90625 11.90625 C 12.453125 11.90625 12.898438 12.351562 12.898438 12.898438 C 12.898438 13.445312 12.453125 13.890625 11.90625 13.890625 C 11.359375 13.890625 10.914062 13.445312 10.914062 12.898438 C 10.914062 12.351562 11.359375 11.90625 11.90625 11.90625 Z M 11.90625 11.90625 "/>
<path style=" stroke:none;fill-rule:nonzero;fill:rgb(69.01961%,74.509805%,77.254903%);fill-opacity:1;" d="M 8.46875 17.859375 C 8.742188 18.332031 9.351562 18.496094 9.824219 18.222656 C 10.300781 17.949219 10.460938 17.339844 10.1875 16.867188 C 9.914062 16.394531 9.308594 16.230469 8.832031 16.503906 C 8.359375 16.777344 8.195312 17.386719 8.46875 17.859375 Z M 8.46875 17.859375 "/>
<path style=" stroke:none;fill-rule:nonzero;fill:rgb(74.117649%,74.117649%,74.117649%);fill-opacity:1;" d="M 15.34375 17.859375 C 15.070312 18.332031 14.460938 18.496094 13.988281 18.222656 C 13.511719 17.949219 13.351562 17.339844 13.625 16.867188 C 13.898438 16.394531 14.503906 16.230469 14.980469 16.503906 C 15.453125 16.777344 15.617188 17.386719 15.34375 17.859375 Z M 15.34375 17.859375 "/>
<path style=" stroke:none;fill-rule:nonzero;fill:rgb(69.01961%,74.509805%,77.254903%);fill-opacity:1;" d="M 15.34375 17.859375 C 15.070312 18.332031 14.460938 18.496094 13.988281 18.222656 C 13.511719 17.949219 13.351562 17.339844 13.625 16.867188 C 13.898438 16.394531 14.503906 16.230469 14.980469 16.503906 C 15.453125 16.777344 15.617188 17.386719 15.34375 17.859375 Z M 15.34375 17.859375 "/>
<path style=" stroke:none;fill-rule:nonzero;fill:rgb(81.176472%,84.705883%,86.274511%);fill-opacity:1;" d="M 11.652344 12.269531 C 11.722656 12.34375 11.683594 12.5 11.5625 12.621094 C 11.441406 12.742188 11.285156 12.78125 11.210938 12.710938 C 11.140625 12.636719 11.179688 12.480469 11.300781 12.359375 C 11.421875 12.238281 11.578125 12.199219 11.652344 12.269531 Z M 11.652344 12.269531 "/>
<path style=" stroke:none;fill-rule:nonzero;fill:rgb(81.176472%,84.705883%,86.274511%);fill-opacity:1;" d="M 9.0625 16.75 C 9.132812 16.824219 9.09375 16.980469 8.972656 17.101562 C 8.851562 17.222656 8.695312 17.261719 8.621094 17.1875 C 8.550781 17.117188 8.589844 16.960938 8.710938 16.839844 C 8.832031 16.71875 8.988281 16.679688 9.0625 16.75 Z M 9.0625 16.75 "/>
<path style=" stroke:none;fill-rule:nonzero;fill:rgb(81.176472%,84.705883%,86.274511%);fill-opacity:1;" d="M 14.253906 16.75 C 14.328125 16.824219 14.289062 16.980469 14.167969 17.101562 C 14.046875 17.222656 13.890625 17.261719 13.816406 17.1875 C 13.742188 17.117188 13.785156 16.960938 13.90625 16.839844 C 14.027344 16.71875 14.183594 16.679688 14.253906 16.75 Z M 14.253906 16.75 "/>
</g>
</svg>
