
<svg xmlns="http://www.w3.org/2000/svg" xmlns:xlink="http://www.w3.org/1999/xlink" width="24px" height="24px" viewBox="0 0 24 24" version="1.1">
<g id="surface1">
<path style=" stroke:none;fill-rule:nonzero;fill:rgb(87.843138%,87.843138%,87.843138%);fill-opacity:1;" d="M 3.96875 0.992188 L 19.84375 0.992188 C 21.488281 0.992188 22.820312 2.324219 22.820312 3.96875 L 22.820312 19.84375 C 22.820312 21.488281 21.488281 22.820312 19.84375 22.820312 L 3.96875 22.820312 C 2.324219 22.820312 0.992188 21.488281 0.992188 19.84375 L 0.992188 3.96875 C 0.992188 2.324219 2.324219 0.992188 3.96875 0.992188 Z M 3.96875 0.992188 "/>
<path style=" stroke:none;fill-rule:nonzero;fill:rgb(93.333334%,93.333334%,93.333334%);fill-opacity:1;" d="M 11.90625 1.984375 C 17.386719 1.984375 21.828125 6.425781 21.828125 11.90625 C 21.828125 17.386719 17.386719 21.828125 11.90625 21.828125 C 6.425781 21.828125 1.984375 17.386719 1.984375 11.90625 C 1.984375 6.425781 6.425781 1.984375 11.90625 1.984375 Z M 11.90625 1.984375 "/>
<path style=" stroke:none;fill-rule:nonzero;fill:rgb(14.901961%,65.098041%,60.392159%);fill-opacity:1;" d="M 10.789062 4.046875 C 9.839844 4.417969 9.234375 4.871094 8.882812 5.3125 C 8.421875 5.886719 8.320312 6.449219 8.453125 7.125 C 8.71875 8.46875 10.242188 10.164062 12.289062 10.984375 C 14.921875 12.039062 16.507812 14.347656 16.511719 16.714844 C 16.511719 17.371094 16.382812 18.023438 16.125 18.640625 C 19.015625 16.84375 20.511719 13.316406 19.585938 9.851562 C 18.527344 5.910156 14.722656 3.472656 10.789062 4.046875 Z M 6.457031 6.132812 C 4.410156 8.070312 3.46875 11.035156 4.25 13.960938 C 5.253906 17.707031 8.746094 20.097656 12.472656 19.824219 C 13.976562 19.054688 14.527344 17.894531 14.527344 16.71875 C 14.523438 15.238281 13.519531 13.617188 11.546875 12.824219 C 8.988281 11.796875 6.960938 9.820312 6.503906 7.507812 C 6.417969 7.058594 6.398438 6.59375 6.457031 6.132812 Z M 6.457031 6.132812 "/>
</g>
</svg>
