<?xml version="1.0" encoding="UTF-8"?>
<svg xmlns="http://www.w3.org/2000/svg" xmlns:xlink="http://www.w3.org/1999/xlink" width="24px" height="24px" viewBox="0 0 24 24" version="1.1">
<g id="surface1">
<path style=" stroke:none;fill-rule:nonzero;fill:rgb(74.117649%,74.117649%,74.117649%);fill-opacity:1;" d="M 18.601562 22.015625 L 21.828125 18.789062 L 19.347656 18.789062 C 18.933594 18.789062 18.601562 19.121094 18.601562 19.535156 Z M 18.601562 22.015625 "/>
<path style=" stroke:none;fill-rule:nonzero;fill:rgb(61.960787%,61.960787%,61.960787%);fill-opacity:1;" d="M 1.984375 1.179688 L 21.828125 1.179688 C 22.375 1.179688 22.820312 1.625 22.820312 2.171875 L 22.820312 22.015625 C 22.820312 22.5625 22.375 23.007812 21.828125 23.007812 L 1.984375 23.007812 C 1.4375 23.007812 0.992188 22.5625 0.992188 22.015625 L 0.992188 2.171875 C 0.992188 1.625 1.4375 1.179688 1.984375 1.179688 Z M 1.984375 1.179688 "/>
<path style=" stroke:none;fill-rule:nonzero;fill:rgb(93.333334%,93.333334%,93.333334%);fill-opacity:1;" d="M 2.480469 2.171875 C 2.207031 2.171875 1.984375 2.394531 1.984375 2.667969 L 1.984375 21.519531 C 1.984375 21.792969 2.207031 22.015625 2.480469 22.015625 L 17.859375 22.015625 L 21.828125 18.046875 L 21.828125 2.667969 C 21.828125 2.394531 21.605469 2.171875 21.332031 2.171875 Z M 2.480469 2.171875 "/>
<path style=" stroke:none;fill-rule:nonzero;fill:rgb(74.117649%,74.117649%,74.117649%);fill-opacity:1;" d="M 1.734375 1.179688 C 1.324219 1.179688 0.992188 1.511719 0.992188 1.921875 L 0.992188 5.148438 L 22.820312 5.148438 L 22.820312 1.921875 C 22.820312 1.511719 22.488281 1.179688 22.074219 1.179688 Z M 1.734375 1.179688 "/>
<path style=" stroke:none;fill-rule:nonzero;fill:rgb(0%,0%,0%);fill-opacity:0.235294;" d="M 3.96875 2.667969 C 4.242188 2.667969 4.464844 2.890625 4.464844 3.164062 C 4.464844 3.4375 4.242188 3.660156 3.96875 3.660156 C 3.695312 3.660156 3.472656 3.4375 3.472656 3.164062 C 3.472656 2.890625 3.695312 2.667969 3.96875 2.667969 Z M 3.96875 2.667969 "/>
<path style=" stroke:none;fill-rule:nonzero;fill:rgb(25.882354%,25.882354%,25.882354%);fill-opacity:1;" d="M 3.96875 2.171875 C 3.417969 2.171875 2.976562 2.613281 2.976562 3.164062 C 2.976562 3.714844 3.417969 4.15625 3.96875 4.15625 C 4.519531 4.15625 4.960938 3.714844 4.960938 3.164062 C 4.960938 2.613281 4.519531 2.171875 3.96875 2.171875 Z M 3.96875 2.667969 C 4.242188 2.667969 4.464844 2.890625 4.464844 3.164062 C 4.464844 3.4375 4.242188 3.660156 3.96875 3.660156 C 3.695312 3.660156 3.472656 3.4375 3.472656 3.164062 C 3.472656 2.890625 3.695312 2.667969 3.96875 2.667969 Z M 3.96875 2.667969 "/>
<path style=" stroke:none;fill-rule:nonzero;fill:rgb(0%,0%,0%);fill-opacity:0.235294;" d="M 11.90625 2.667969 C 12.179688 2.667969 12.402344 2.890625 12.402344 3.164062 C 12.402344 3.4375 12.179688 3.660156 11.90625 3.660156 C 11.632812 3.660156 11.410156 3.4375 11.410156 3.164062 C 11.410156 2.890625 11.632812 2.667969 11.90625 2.667969 Z M 11.90625 2.667969 "/>
<path style=" stroke:none;fill-rule:nonzero;fill:rgb(25.882354%,25.882354%,25.882354%);fill-opacity:1;" d="M 11.90625 2.171875 C 11.355469 2.171875 10.914062 2.613281 10.914062 3.164062 C 10.914062 3.714844 11.355469 4.15625 11.90625 4.15625 C 12.457031 4.15625 12.898438 3.714844 12.898438 3.164062 C 12.898438 2.613281 12.457031 2.171875 11.90625 2.171875 Z M 11.90625 2.667969 C 12.179688 2.667969 12.402344 2.890625 12.402344 3.164062 C 12.402344 3.4375 12.179688 3.660156 11.90625 3.660156 C 11.632812 3.660156 11.410156 3.4375 11.410156 3.164062 C 11.410156 2.890625 11.632812 2.667969 11.90625 2.667969 Z M 11.90625 2.667969 "/>
<path style=" stroke:none;fill-rule:nonzero;fill:rgb(0%,0%,0%);fill-opacity:0.235294;" d="M 19.84375 2.667969 C 20.117188 2.667969 20.339844 2.890625 20.339844 3.164062 C 20.339844 3.4375 20.117188 3.660156 19.84375 3.660156 C 19.570312 3.660156 19.347656 3.4375 19.347656 3.164062 C 19.347656 2.890625 19.570312 2.667969 19.84375 2.667969 Z M 19.84375 2.667969 "/>
<path style=" stroke:none;fill-rule:nonzero;fill:rgb(25.882354%,25.882354%,25.882354%);fill-opacity:1;" d="M 19.84375 2.171875 C 19.292969 2.171875 18.851562 2.613281 18.851562 3.164062 C 18.851562 3.714844 19.292969 4.15625 19.84375 4.15625 C 20.394531 4.15625 20.835938 3.714844 20.835938 3.164062 C 20.835938 2.613281 20.394531 2.171875 19.84375 2.171875 Z M 19.84375 2.667969 C 20.117188 2.667969 20.339844 2.890625 20.339844 3.164062 C 20.339844 3.4375 20.117188 3.660156 19.84375 3.660156 C 19.570312 3.660156 19.347656 3.4375 19.347656 3.164062 C 19.347656 2.890625 19.570312 2.667969 19.84375 2.667969 Z M 19.84375 2.667969 "/>
<path style=" stroke:none;fill-rule:nonzero;fill:rgb(87.843138%,87.843138%,87.843138%);fill-opacity:1;" d="M 21.828125 18.046875 L 17.859375 22.015625 L 21.332031 22.015625 C 21.605469 22.015625 21.828125 21.792969 21.828125 21.519531 Z M 21.828125 18.046875 "/>
<path style=" stroke:none;fill-rule:nonzero;fill:rgb(98.039216%,98.039216%,98.039216%);fill-opacity:1;" d="M 17.859375 22.015625 L 21.828125 18.046875 L 18.355469 18.046875 C 18.082031 18.046875 17.859375 18.269531 17.859375 18.542969 Z M 17.859375 22.015625 "/>
<path style=" stroke:none;fill-rule:nonzero;fill:rgb(25.882354%,25.882354%,25.882354%);fill-opacity:1;" d="M 15.316406 6.164062 C 15.117188 6.15625 14.949219 6.296875 14.921875 6.492188 C 14.886719 6.714844 14.859375 6.929688 14.832031 7.144531 C 14.484375 7.144531 14.171875 7.113281 13.804688 7.070312 C 13.667969 7.050781 13.53125 7.105469 13.449219 7.21875 C 13.363281 7.328125 13.347656 7.476562 13.402344 7.601562 C 13.457031 7.730469 13.574219 7.816406 13.714844 7.832031 C 14.074219 7.875 14.402344 7.90625 14.773438 7.910156 C 14.757812 8.1875 14.761719 8.457031 14.777344 8.722656 C 13.726562 9.152344 13.242188 10.0625 13.417969 10.8125 C 13.515625 11.21875 13.898438 11.574219 14.371094 11.578125 C 14.75 11.582031 15.148438 11.429688 15.589844 11.101562 C 15.738281 11.210938 15.9375 11.199219 16.070312 11.078125 C 16.207031 10.960938 16.238281 10.761719 16.152344 10.605469 C 16.46875 10.273438 16.726562 9.960938 16.9375 9.632812 C 17.035156 9.707031 17.117188 9.78125 17.167969 9.847656 C 17.28125 9.992188 17.292969 10.089844 17.28125 10.1875 C 17.25 10.386719 16.976562 10.675781 16.585938 10.8125 C 16.457031 10.855469 16.359375 10.964844 16.332031 11.101562 C 16.304688 11.238281 16.351562 11.378906 16.457031 11.46875 C 16.5625 11.558594 16.707031 11.585938 16.839844 11.539062 C 17.421875 11.335938 17.945312 10.917969 18.039062 10.304688 C 18.085938 9.996094 17.992188 9.65625 17.769531 9.371094 C 17.648438 9.21875 17.488281 9.078125 17.296875 8.945312 C 17.304688 8.921875 17.316406 8.902344 17.328125 8.878906 C 17.375 8.757812 17.363281 8.617188 17.289062 8.511719 C 17.214844 8.402344 17.089844 8.339844 16.957031 8.347656 C 16.804688 8.351562 16.667969 8.449219 16.613281 8.59375 C 16.613281 8.59375 16.613281 8.597656 16.609375 8.597656 C 16.273438 8.496094 15.957031 8.457031 15.535156 8.519531 C 15.527344 8.3125 15.53125 8.097656 15.542969 7.871094 C 16.035156 7.828125 16.632812 7.734375 17.433594 7.570312 C 17.628906 7.53125 17.765625 7.347656 17.742188 7.148438 C 17.71875 6.949219 17.542969 6.800781 17.34375 6.808594 C 17.320312 6.808594 17.300781 6.8125 17.277344 6.816406 C 16.566406 6.960938 16.039062 7.050781 15.613281 7.097656 C 15.632812 6.9375 15.65625 6.777344 15.679688 6.609375 C 15.699219 6.5 15.667969 6.390625 15.597656 6.304688 C 15.53125 6.21875 15.425781 6.167969 15.316406 6.164062 Z M 15.917969 9.238281 C 15.929688 9.238281 15.9375 9.238281 15.949219 9.238281 C 16.046875 9.238281 16.140625 9.261719 16.246094 9.289062 C 16.117188 9.480469 15.964844 9.671875 15.78125 9.878906 C 15.710938 9.683594 15.65625 9.484375 15.617188 9.277344 C 15.738281 9.25 15.832031 9.238281 15.917969 9.238281 Z M 14.882812 9.523438 C 14.949219 9.839844 15.046875 10.148438 15.183594 10.445312 C 14.804688 10.726562 14.523438 10.8125 14.382812 10.8125 C 14.210938 10.808594 14.199219 10.777344 14.164062 10.636719 C 14.109375 10.40625 14.273438 9.855469 14.882812 9.523438 Z M 14.882812 9.523438 "/>
<path style=" stroke:none;fill-rule:nonzero;fill:rgb(25.882354%,25.882354%,25.882354%);fill-opacity:1;" d="M 8.476562 13.851562 C 7.476562 13.851562 6.671875 14.574219 6.671875 15.476562 L 6.671875 19.085938 C 6.671875 19.1875 6.75 19.265625 6.851562 19.265625 L 7.574219 19.265625 C 7.675781 19.265625 7.753906 19.1875 7.753906 19.085938 L 7.753906 17.640625 L 9.921875 17.640625 L 9.921875 19.085938 C 9.921875 19.1875 10.003906 19.265625 10.101562 19.265625 L 10.824219 19.265625 C 10.925781 19.265625 11.003906 19.1875 11.003906 19.085938 L 11.003906 15.476562 C 11.003906 14.574219 10.199219 13.851562 9.199219 13.851562 Z M 8.476562 14.933594 L 9.199219 14.933594 C 9.601562 14.933594 9.921875 15.175781 9.921875 15.476562 L 9.921875 16.558594 L 7.753906 16.558594 L 7.753906 15.476562 C 7.753906 15.175781 8.078125 14.933594 8.476562 14.933594 Z M 8.476562 14.933594 "/>
<path style=" stroke:none;fill-rule:nonzero;fill:rgb(40.000001%,73.333335%,41.568628%);fill-opacity:1;" d="M 11.90625 8.125 C 9.433594 8.125 7.441406 10.117188 7.441406 12.589844 L 8.433594 12.589844 C 8.433594 10.664062 9.980469 9.117188 11.90625 9.117188 Z M 15.378906 12.589844 C 15.378906 14.515625 13.832031 16.0625 11.90625 16.0625 L 11.90625 17.054688 C 14.378906 17.054688 16.371094 15.0625 16.371094 12.589844 Z M 15.378906 12.589844 "/>
</g>
</svg>
