<?xml version="1.0" encoding="UTF-8"?>
<svg xmlns="http://www.w3.org/2000/svg" xmlns:xlink="http://www.w3.org/1999/xlink" width="24px" height="24px" viewBox="0 0 24 24" version="1.1">
<g id="surface1">
<path style=" stroke:none;fill-rule:nonzero;fill:rgb(47.058824%,56.470591%,61.176473%);fill-opacity:1;" d="M 1.984375 1.179688 L 21.828125 1.179688 C 22.375 1.179688 22.820312 1.625 22.820312 2.171875 L 22.820312 22.015625 C 22.820312 22.5625 22.375 23.007812 21.828125 23.007812 L 1.984375 23.007812 C 1.4375 23.007812 0.992188 22.5625 0.992188 22.015625 L 0.992188 2.171875 C 0.992188 1.625 1.4375 1.179688 1.984375 1.179688 Z M 1.984375 1.179688 "/>
<path style=" stroke:none;fill-rule:nonzero;fill:rgb(25.882354%,25.882354%,25.882354%);fill-opacity:1;" d="M 3.472656 3.164062 L 20.339844 3.164062 C 20.613281 3.164062 20.835938 3.386719 20.835938 3.660156 L 20.835938 20.527344 C 20.835938 20.800781 20.613281 21.023438 20.339844 21.023438 L 3.472656 21.023438 C 3.199219 21.023438 2.976562 20.800781 2.976562 20.527344 L 2.976562 3.660156 C 2.976562 3.386719 3.199219 3.164062 3.472656 3.164062 Z M 3.472656 3.164062 "/>
<path style=" stroke:none;fill-rule:nonzero;fill:rgb(47.058824%,56.470591%,61.176473%);fill-opacity:1;" d="M 3.84375 3.660156 L 19.96875 3.660156 C 20.171875 3.660156 20.339844 3.828125 20.339844 4.03125 L 20.339844 20.15625 C 20.339844 20.359375 20.171875 20.527344 19.96875 20.527344 L 3.84375 20.527344 C 3.640625 20.527344 3.472656 20.359375 3.472656 20.15625 L 3.472656 4.03125 C 3.472656 3.828125 3.640625 3.660156 3.84375 3.660156 Z M 3.84375 3.660156 "/>
<path style=" stroke:none;fill-rule:nonzero;fill:rgb(32.941177%,43.137255%,47.843137%);fill-opacity:1;" d="M 11.90625 8.621094 C 13.824219 8.621094 15.378906 10.175781 15.378906 12.09375 C 15.378906 14.011719 13.824219 15.566406 11.90625 15.566406 C 9.988281 15.566406 8.433594 14.011719 8.433594 12.09375 C 8.433594 10.175781 9.988281 8.621094 11.90625 8.621094 Z M 11.90625 8.621094 "/>
<path style=" stroke:none;fill-rule:nonzero;fill:rgb(25.882354%,25.882354%,25.882354%);fill-opacity:1;" d="M 14.710938 8.585938 L 15.414062 9.289062 L 9.101562 15.601562 L 8.398438 14.898438 Z M 14.710938 8.585938 "/>
<path style=" stroke:none;fill-rule:nonzero;fill:rgb(25.882354%,25.882354%,25.882354%);fill-opacity:1;" d="M 16.117188 7.882812 C 16.503906 8.273438 16.503906 8.898438 16.117188 9.289062 C 15.726562 9.675781 15.101562 9.675781 14.710938 9.289062 C 14.324219 8.898438 14.324219 8.273438 14.710938 7.882812 C 15.101562 7.496094 15.726562 7.496094 16.117188 7.882812 Z M 16.117188 7.882812 "/>
<path style=" stroke:none;fill-rule:nonzero;fill:rgb(25.882354%,25.882354%,25.882354%);fill-opacity:1;" d="M 9.101562 14.898438 C 9.488281 15.289062 9.488281 15.914062 9.101562 16.304688 C 8.710938 16.691406 8.085938 16.691406 7.695312 16.304688 C 7.308594 15.914062 7.308594 15.289062 7.695312 14.898438 C 8.085938 14.511719 8.710938 14.511719 9.101562 14.898438 Z M 9.101562 14.898438 "/>
<path style=" stroke:none;fill-rule:nonzero;fill:rgb(25.882354%,25.882354%,25.882354%);fill-opacity:1;" d="M 15.414062 14.898438 L 14.710938 15.601562 L 8.398438 9.289062 L 9.101562 8.585938 Z M 15.414062 14.898438 "/>
<path style=" stroke:none;fill-rule:nonzero;fill:rgb(25.882354%,25.882354%,25.882354%);fill-opacity:1;" d="M 16.117188 16.304688 C 15.726562 16.691406 15.101562 16.691406 14.710938 16.304688 C 14.324219 15.914062 14.324219 15.289062 14.710938 14.898438 C 15.101562 14.511719 15.726562 14.511719 16.117188 14.898438 C 16.503906 15.289062 16.503906 15.914062 16.117188 16.304688 Z M 16.117188 16.304688 "/>
<path style=" stroke:none;fill-rule:nonzero;fill:rgb(25.882354%,25.882354%,25.882354%);fill-opacity:1;" d="M 9.101562 9.289062 C 8.710938 9.675781 8.085938 9.675781 7.695312 9.289062 C 7.308594 8.898438 7.308594 8.273438 7.695312 7.882812 C 8.085938 7.496094 8.710938 7.496094 9.101562 7.882812 C 9.488281 8.273438 9.488281 8.898438 9.101562 9.289062 Z M 9.101562 9.289062 "/>
<path style=" stroke:none;fill-rule:nonzero;fill:rgb(25.882354%,25.882354%,25.882354%);fill-opacity:1;" d="M 11.90625 9.613281 C 13.277344 9.613281 14.386719 10.722656 14.386719 12.09375 C 14.386719 13.464844 13.277344 14.574219 11.90625 14.574219 C 10.535156 14.574219 9.425781 13.464844 9.425781 12.09375 C 9.425781 10.722656 10.535156 9.613281 11.90625 9.613281 Z M 11.90625 9.613281 "/>
<path style=" stroke:none;fill-rule:nonzero;fill:rgb(47.058824%,56.470591%,61.176473%);fill-opacity:1;" d="M 11.90625 11.101562 C 12.453125 11.101562 12.898438 11.546875 12.898438 12.09375 C 12.898438 12.640625 12.453125 13.085938 11.90625 13.085938 C 11.359375 13.085938 10.914062 12.640625 10.914062 12.09375 C 10.914062 11.546875 11.359375 11.101562 11.90625 11.101562 Z M 11.90625 11.101562 "/>
<path style=" stroke:none;fill-rule:nonzero;fill:rgb(69.01961%,74.509805%,77.254903%);fill-opacity:1;" d="M 2.730469 5.148438 L 3.71875 5.148438 C 3.996094 5.148438 4.214844 5.371094 4.214844 5.644531 L 4.214844 7.628906 C 4.214844 7.902344 3.996094 8.125 3.71875 8.125 L 2.730469 8.125 C 2.453125 8.125 2.234375 7.902344 2.234375 7.628906 L 2.234375 5.644531 C 2.234375 5.371094 2.453125 5.148438 2.730469 5.148438 Z M 2.730469 5.148438 "/>
<path style=" stroke:none;fill-rule:nonzero;fill:rgb(69.01961%,74.509805%,77.254903%);fill-opacity:1;" d="M 2.730469 16.0625 L 3.71875 16.0625 C 3.996094 16.0625 4.214844 16.285156 4.214844 16.558594 L 4.214844 18.542969 C 4.214844 18.816406 3.996094 19.039062 3.71875 19.039062 L 2.730469 19.039062 C 2.453125 19.039062 2.234375 18.816406 2.234375 18.542969 L 2.234375 16.558594 C 2.234375 16.285156 2.453125 16.0625 2.730469 16.0625 Z M 2.730469 16.0625 "/>
<path style=" stroke:none;fill-rule:nonzero;fill:rgb(25.882354%,25.882354%,25.882354%);fill-opacity:1;" d="M 18.355469 10.605469 C 17.941406 10.605469 17.613281 10.9375 17.613281 11.347656 L 17.613281 11.351562 C 17.613281 11.570312 17.707031 11.769531 17.859375 11.90625 L 17.859375 13.085938 C 17.859375 13.359375 18.082031 13.582031 18.355469 13.582031 C 18.628906 13.582031 18.851562 13.359375 18.851562 13.085938 L 18.851562 11.90625 C 19.003906 11.769531 19.101562 11.570312 19.101562 11.351562 L 19.101562 11.347656 C 19.101562 10.9375 18.769531 10.605469 18.355469 10.605469 Z M 18.355469 10.605469 "/>
</g>
</svg>
