<?xml version="1.0" encoding="UTF-8"?>
<svg xmlns="http://www.w3.org/2000/svg" xmlns:xlink="http://www.w3.org/1999/xlink" width="24px" height="24px" viewBox="0 0 24 24" version="1.1">
<g id="surface1">
<path style=" stroke:none;fill-rule:nonzero;fill:rgb(87.843138%,87.843138%,87.843138%);fill-opacity:1;" d="M 11.90625 1.179688 C 17.933594 1.179688 22.820312 6.066406 22.820312 12.09375 C 22.820312 18.121094 17.933594 23.007812 11.90625 23.007812 C 5.878906 23.007812 0.992188 18.121094 0.992188 12.09375 C 0.992188 6.066406 5.878906 1.179688 11.90625 1.179688 Z M 11.90625 1.179688 "/>
<path style=" stroke:none;fill-rule:nonzero;fill:rgb(92.54902%,25.098041%,47.843137%);fill-opacity:1;" d="M 11.90625 1.179688 C 11.40625 1.179688 10.914062 1.214844 10.433594 1.277344 C 8.761719 2.738281 7.980469 4.769531 7.941406 8.074219 C 8.960938 7.074219 10.359375 6.453125 11.90625 6.453125 C 11.996094 6.453125 12.089844 6.457031 12.179688 6.460938 C 12.625 4.082031 13.894531 2.550781 15.171875 1.671875 C 14.140625 1.351562 13.042969 1.179688 11.90625 1.179688 Z M 4.496094 4.070312 C 3.328125 5.148438 2.398438 6.476562 1.789062 7.976562 C 2.234375 10.128906 3.605469 11.8125 6.4375 13.488281 C 6.328125 13.042969 6.265625 12.574219 6.265625 12.09375 C 6.265625 10.960938 6.597656 9.90625 7.171875 9.023438 C 5.335938 7.460938 4.628906 5.613281 4.496094 4.070312 Z M 18.359375 5.097656 C 16.90625 5.105469 15.328125 5.605469 13.4375 6.660156 C 14.972656 7.089844 16.238281 8.148438 16.941406 9.542969 C 19.222656 8.75 21.183594 9.097656 22.574219 9.773438 C 22.234375 8.1875 21.550781 6.730469 20.605469 5.488281 C 19.871094 5.226562 19.132812 5.09375 18.359375 5.097656 Z M 17.390625 10.773438 C 17.492188 11.195312 17.546875 11.640625 17.546875 12.09375 C 17.546875 13.253906 17.199219 14.328125 16.605469 15.222656 C 18.429688 16.796875 19.113281 18.660156 19.226562 20.203125 C 20.394531 19.148438 21.332031 17.84375 21.957031 16.371094 C 21.550781 14.171875 20.214844 12.464844 17.390625 10.773438 Z M 1.25 14.46875 C 1.597656 16.054688 2.289062 17.507812 3.242188 18.75 C 5.324219 19.445312 7.460938 19.105469 10.308594 17.507812 C 8.796875 17.066406 7.546875 16.007812 6.855469 14.617188 C 4.597656 15.421875 2.652344 15.117188 1.25 14.46875 Z M 15.769531 16.210938 C 14.761719 17.15625 13.402344 17.734375 11.90625 17.734375 C 11.78125 17.734375 11.65625 17.730469 11.535156 17.722656 C 11.09375 20.082031 9.84375 21.613281 8.574219 22.492188 C 9.625 22.828125 10.742188 23.007812 11.90625 23.007812 C 12.367188 23.007812 12.820312 22.980469 13.265625 22.925781 C 14.929688 21.476562 15.71875 19.472656 15.769531 16.210938 Z M 15.769531 16.210938 "/>
<path style=" stroke:none;fill-rule:nonzero;fill:rgb(93.333334%,93.333334%,93.333334%);fill-opacity:1;" d="M 11.90625 5.148438 C 15.742188 5.148438 18.851562 8.257812 18.851562 12.09375 C 18.851562 15.929688 15.742188 19.039062 11.90625 19.039062 C 8.070312 19.039062 4.960938 15.929688 4.960938 12.09375 C 4.960938 8.257812 8.070312 5.148438 11.90625 5.148438 Z M 11.90625 5.148438 "/>
<path style=" stroke:none;fill-rule:nonzero;fill:rgb(92.54902%,25.098041%,47.843137%);fill-opacity:1;" d="M 9.921875 8.125 C 9.65625 8.132812 9.445312 8.351562 9.445312 8.617188 L 9.445312 15.5625 C 9.445312 15.953125 9.875 16.1875 10.203125 15.980469 L 15.660156 12.507812 C 15.964844 12.3125 15.964844 11.867188 15.660156 11.675781 L 10.203125 8.203125 C 10.121094 8.148438 10.019531 8.121094 9.921875 8.125 Z M 9.921875 8.125 "/>
</g>
</svg>
