<?xml version="1.0" encoding="UTF-8"?>
<svg xmlns="http://www.w3.org/2000/svg" xmlns:xlink="http://www.w3.org/1999/xlink" width="24px" height="24px" viewBox="0 0 24 24" version="1.1">
<g id="surface1">
<path style=" stroke:none;fill-rule:nonzero;fill:rgb(25.882354%,25.882354%,25.882354%);fill-opacity:1;" d="M 11.90625 1.675781 C 17.660156 1.675781 22.324219 6.339844 22.324219 12.09375 C 22.324219 17.847656 17.660156 22.511719 11.90625 22.511719 C 6.152344 22.511719 1.488281 17.847656 1.488281 12.09375 C 1.488281 6.339844 6.152344 1.675781 11.90625 1.675781 Z M 11.90625 1.675781 "/>
<path style=" stroke:none;fill-rule:nonzero;fill:rgb(93.725491%,32.549021%,31.37255%);fill-opacity:1;" d="M 17.78125 6.339844 C 17.695312 6.257812 17.5625 6.246094 17.464844 6.3125 L 10.800781 10.871094 C 10.671875 10.960938 10.65625 11.144531 10.765625 11.253906 L 12.871094 13.359375 C 12.980469 13.46875 13.164062 13.449219 13.25 13.324219 L 17.8125 6.65625 C 17.878906 6.558594 17.867188 6.421875 17.78125 6.339844 Z M 17.78125 6.339844 "/>
<path style=" stroke:none;fill-rule:nonzero;fill:rgb(16.078432%,71.372551%,96.470588%);fill-opacity:1;" d="M 6.03125 18.097656 C 6.117188 18.179688 6.25 18.191406 6.347656 18.121094 L 13.011719 13.5625 C 13.140625 13.476562 13.15625 13.292969 13.046875 13.183594 L 10.941406 11.078125 C 10.832031 10.96875 10.648438 10.984375 10.5625 11.113281 L 6 17.777344 C 5.933594 17.878906 5.945312 18.011719 6.03125 18.097656 Z M 6.03125 18.097656 "/>
<path style=" stroke:none;fill-rule:nonzero;fill:rgb(87.843138%,87.843138%,87.843138%);fill-opacity:1;" d="M 11.90625 10.109375 C 13.003906 10.109375 13.890625 10.996094 13.890625 12.09375 C 13.890625 13.191406 13.003906 14.078125 11.90625 14.078125 C 10.808594 14.078125 9.921875 13.191406 9.921875 12.09375 C 9.921875 10.996094 10.808594 10.109375 11.90625 10.109375 Z M 11.90625 10.109375 "/>
<path style=" stroke:none;fill-rule:nonzero;fill:rgb(87.843138%,87.843138%,87.843138%);fill-opacity:1;" d="M 11.90625 1.179688 C 5.859375 1.179688 0.992188 6.046875 0.992188 12.09375 C 0.992188 18.140625 5.859375 23.007812 11.90625 23.007812 C 17.953125 23.007812 22.820312 18.140625 22.820312 12.09375 C 22.820312 6.046875 17.953125 1.179688 11.90625 1.179688 Z M 11.90625 2.667969 C 17.128906 2.667969 21.332031 6.871094 21.332031 12.09375 C 21.332031 17.316406 17.128906 21.519531 11.90625 21.519531 C 6.683594 21.519531 2.480469 17.316406 2.480469 12.09375 C 2.480469 6.871094 6.683594 2.667969 11.90625 2.667969 Z M 11.90625 2.667969 "/>
<path style=" stroke:none;fill-rule:nonzero;fill:rgb(87.843138%,87.843138%,87.843138%);fill-opacity:1;" d="M 11.90625 3.164062 C 12.179688 3.164062 12.402344 3.386719 12.402344 3.660156 C 12.402344 3.933594 12.179688 4.15625 11.90625 4.15625 C 11.632812 4.15625 11.410156 3.933594 11.410156 3.660156 C 11.410156 3.386719 11.632812 3.164062 11.90625 3.164062 Z M 11.90625 3.164062 "/>
<path style=" stroke:none;fill-rule:nonzero;fill:rgb(87.843138%,87.843138%,87.843138%);fill-opacity:1;" d="M 11.90625 20.03125 C 12.179688 20.03125 12.402344 20.253906 12.402344 20.527344 C 12.402344 20.800781 12.179688 21.023438 11.90625 21.023438 C 11.632812 21.023438 11.410156 20.800781 11.410156 20.527344 C 11.410156 20.253906 11.632812 20.03125 11.90625 20.03125 Z M 11.90625 20.03125 "/>
<path style=" stroke:none;fill-rule:nonzero;fill:rgb(87.843138%,87.843138%,87.843138%);fill-opacity:1;" d="M 20.835938 12.09375 C 20.835938 12.367188 20.613281 12.589844 20.339844 12.589844 C 20.066406 12.589844 19.84375 12.367188 19.84375 12.09375 C 19.84375 11.820312 20.066406 11.597656 20.339844 11.597656 C 20.613281 11.597656 20.835938 11.820312 20.835938 12.09375 Z M 20.835938 12.09375 "/>
<path style=" stroke:none;fill-rule:nonzero;fill:rgb(87.843138%,87.843138%,87.843138%);fill-opacity:1;" d="M 3.96875 12.09375 C 3.96875 12.367188 3.746094 12.589844 3.472656 12.589844 C 3.199219 12.589844 2.976562 12.367188 2.976562 12.09375 C 2.976562 11.820312 3.199219 11.597656 3.472656 11.597656 C 3.746094 11.597656 3.96875 11.820312 3.96875 12.09375 Z M 3.96875 12.09375 "/>
</g>
</svg>
