<?xml version="1.0" encoding="UTF-8"?>
<svg xmlns="http://www.w3.org/2000/svg" xmlns:xlink="http://www.w3.org/1999/xlink" width="24px" height="24px" viewBox="0 0 24 24" version="1.1">
<g id="surface1">
<path style=" stroke:none;fill-rule:nonzero;fill:rgb(25.882354%,25.882354%,25.882354%);fill-opacity:1;" d="M 11.90625 1.179688 C 8.058594 1.179688 4.960938 4.277344 4.960938 8.125 L 4.960938 10.109375 L 2.726562 10.109375 C 2.316406 10.109375 1.984375 10.441406 1.984375 10.851562 L 1.984375 22.265625 C 1.984375 22.675781 2.316406 23.007812 2.726562 23.007812 L 21.082031 23.007812 C 21.496094 23.007812 21.828125 22.675781 21.828125 22.265625 L 21.828125 10.851562 C 21.828125 10.441406 21.496094 10.109375 21.082031 10.109375 L 18.851562 10.109375 L 18.851562 8.125 C 18.851562 4.277344 15.753906 1.179688 11.90625 1.179688 Z M 11.90625 1.179688 "/>
<path style=" stroke:none;fill-rule:nonzero;fill:rgb(87.843138%,87.843138%,87.843138%);fill-opacity:1;" d="M 11.90625 4.15625 C 9.707031 4.15625 7.9375 5.925781 7.9375 8.125 C 7.9375 10.324219 9.707031 12.09375 11.90625 12.09375 C 12.59375 12.09375 13.242188 11.921875 13.804688 11.613281 C 13.632812 12.433594 13.308594 13.257812 12.898438 14.078125 C 14.882812 12.589844 15.875 11.101562 15.875 8.125 C 15.875 5.925781 14.105469 4.15625 11.90625 4.15625 Z M 11.90625 4.15625 "/>
<path style=" stroke:none;fill-rule:nonzero;fill:rgb(87.843138%,87.843138%,87.843138%);fill-opacity:1;" d="M 11.90625 15.070312 C 11.082031 15.070312 10.417969 15.734375 10.417969 16.558594 C 10.417969 17.382812 11.082031 18.046875 11.90625 18.046875 C 12.730469 18.046875 13.394531 17.382812 13.394531 16.558594 C 13.394531 15.734375 12.730469 15.070312 11.90625 15.070312 Z M 11.90625 18.542969 C 10.53125 18.542969 9.425781 19.207031 9.425781 20.03125 L 9.425781 21.519531 L 14.386719 21.519531 L 14.386719 20.03125 C 14.386719 19.207031 13.28125 18.542969 11.90625 18.542969 Z M 11.90625 18.542969 "/>
</g>
</svg>
