
<svg xmlns="http://www.w3.org/2000/svg" xmlns:xlink="http://www.w3.org/1999/xlink" width="24px" height="24px" viewBox="0 0 24 24" version="1.1">
<g id="surface1">
<path style=" stroke:none;fill-rule:nonzero;fill:rgb(45.882353%,45.882353%,45.882353%);fill-opacity:1;" d="M 3.96875 0.992188 L 19.84375 0.992188 C 20.390625 0.992188 20.835938 1.4375 20.835938 1.984375 L 20.835938 21.828125 C 20.835938 22.375 20.390625 22.820312 19.84375 22.820312 L 3.96875 22.820312 C 3.421875 22.820312 2.976562 22.375 2.976562 21.828125 L 2.976562 1.984375 C 2.976562 1.4375 3.421875 0.992188 3.96875 0.992188 Z M 3.96875 0.992188 "/>
<path style=" stroke:none;fill-rule:nonzero;fill:rgb(93.333334%,93.333334%,93.333334%);fill-opacity:1;" d="M 11.90625 5.457031 C 16.289062 5.457031 19.84375 9.011719 19.84375 13.394531 C 19.84375 17.777344 16.289062 21.332031 11.90625 21.332031 C 7.523438 21.332031 3.96875 17.777344 3.96875 13.394531 C 3.96875 9.011719 7.523438 5.457031 11.90625 5.457031 Z M 11.90625 5.457031 "/>
<path style=" stroke:none;fill-rule:nonzero;fill:rgb(25.882354%,25.882354%,25.882354%);fill-opacity:1;" d="M 11.90625 6.945312 C 15.46875 6.945312 18.355469 9.832031 18.355469 13.394531 C 18.355469 16.957031 15.46875 19.84375 11.90625 19.84375 C 8.34375 19.84375 5.457031 16.957031 5.457031 13.394531 C 5.457031 9.832031 8.34375 6.945312 11.90625 6.945312 Z M 11.90625 6.945312 "/>
<path style=" stroke:none;fill-rule:nonzero;fill:rgb(74.117649%,74.117649%,74.117649%);fill-opacity:1;" d="M 11.90625 7.9375 C 14.921875 7.9375 17.363281 10.378906 17.363281 13.394531 C 17.363281 16.410156 14.921875 18.851562 11.90625 18.851562 C 8.890625 18.851562 6.449219 16.410156 6.449219 13.394531 C 6.449219 10.378906 8.890625 7.9375 11.90625 7.9375 Z M 11.90625 7.9375 "/>
<path style=" stroke:none;fill-rule:nonzero;fill:rgb(25.882354%,25.882354%,25.882354%);fill-opacity:1;" d="M 11.90625 10.914062 C 13.277344 10.914062 14.386719 12.023438 14.386719 13.394531 C 14.386719 14.765625 13.277344 15.875 11.90625 15.875 C 10.535156 15.875 9.425781 14.765625 9.425781 13.394531 C 9.425781 12.023438 10.535156 10.914062 11.90625 10.914062 Z M 11.90625 10.914062 "/>
<path style=" stroke:none;fill-rule:nonzero;fill:rgb(61.960787%,61.960787%,61.960787%);fill-opacity:1;" d="M 17.300781 7.9375 C 17.445312 8.085938 17.445312 8.320312 17.300781 8.464844 C 17.15625 8.609375 16.917969 8.609375 16.773438 8.464844 C 16.628906 8.320312 16.628906 8.085938 16.773438 7.9375 C 16.917969 7.792969 17.15625 7.792969 17.300781 7.9375 Z M 17.300781 7.9375 "/>
<path style=" stroke:none;fill-rule:nonzero;fill:rgb(61.960787%,61.960787%,61.960787%);fill-opacity:1;" d="M 17.210938 18.199219 C 17.355469 18.34375 17.355469 18.582031 17.210938 18.726562 C 17.066406 18.871094 16.832031 18.871094 16.6875 18.726562 C 16.539062 18.582031 16.539062 18.34375 16.6875 18.199219 C 16.832031 18.054688 17.066406 18.054688 17.210938 18.199219 Z M 17.210938 18.199219 "/>
<path style=" stroke:none;fill-rule:nonzero;fill:rgb(61.960787%,61.960787%,61.960787%);fill-opacity:1;" d="M 7.039062 8.027344 C 7.183594 8.171875 7.183594 8.40625 7.039062 8.554688 C 6.894531 8.699219 6.65625 8.699219 6.511719 8.554688 C 6.367188 8.40625 6.367188 8.171875 6.511719 8.027344 C 6.65625 7.882812 6.894531 7.882812 7.039062 8.027344 Z M 7.039062 8.027344 "/>
<path style=" stroke:none;fill-rule:nonzero;fill:rgb(61.960787%,61.960787%,61.960787%);fill-opacity:1;" d="M 7.039062 18.199219 C 7.183594 18.34375 7.183594 18.582031 7.039062 18.726562 C 6.894531 18.871094 6.65625 18.871094 6.511719 18.726562 C 6.367188 18.582031 6.367188 18.34375 6.511719 18.199219 C 6.65625 18.054688 6.894531 18.054688 7.039062 18.199219 Z M 7.039062 18.199219 "/>
<path style=" stroke:none;fill-rule:nonzero;fill:rgb(93.333334%,93.333334%,93.333334%);fill-opacity:1;" d="M 5.953125 1.984375 C 6.773438 1.984375 7.441406 2.652344 7.441406 3.472656 C 7.441406 4.292969 6.773438 4.960938 5.953125 4.960938 C 5.132812 4.960938 4.464844 4.292969 4.464844 3.472656 C 4.464844 2.652344 5.132812 1.984375 5.953125 1.984375 Z M 5.953125 1.984375 "/>
<path style=" stroke:none;fill-rule:nonzero;fill:rgb(93.333334%,93.333334%,93.333334%);fill-opacity:1;" d="M 17.859375 1.984375 C 18.679688 1.984375 19.347656 2.652344 19.347656 3.472656 C 19.347656 4.292969 18.679688 4.960938 17.859375 4.960938 C 17.039062 4.960938 16.371094 4.292969 16.371094 3.472656 C 16.371094 2.652344 17.039062 1.984375 17.859375 1.984375 Z M 17.859375 1.984375 "/>
<path style=" stroke:none;fill-rule:nonzero;fill:rgb(25.882354%,25.882354%,25.882354%);fill-opacity:1;" d="M 5.953125 2.726562 C 6.363281 2.726562 6.699219 3.0625 6.699219 3.472656 C 6.699219 3.882812 6.363281 4.214844 5.953125 4.214844 C 5.542969 4.214844 5.207031 3.882812 5.207031 3.472656 C 5.207031 3.0625 5.542969 2.726562 5.953125 2.726562 Z M 5.953125 2.726562 "/>
<path style=" stroke:none;fill-rule:nonzero;fill:rgb(25.882354%,25.882354%,25.882354%);fill-opacity:1;" d="M 17.859375 2.726562 C 18.269531 2.726562 18.605469 3.0625 18.605469 3.472656 C 18.605469 3.882812 18.269531 4.214844 17.859375 4.214844 C 17.449219 4.214844 17.117188 3.882812 17.117188 3.472656 C 17.117188 3.0625 17.449219 2.726562 17.859375 2.726562 Z M 17.859375 2.726562 "/>
</g>
</svg>
