<?xml version="1.0" encoding="UTF-8"?>
<svg xmlns="http://www.w3.org/2000/svg" xmlns:xlink="http://www.w3.org/1999/xlink" width="24px" height="24px" viewBox="0 0 24 24" version="1.1">
<g id="surface1">
<defs>
  <style id="current-color-scheme" type="text/css">
   .ColorScheme-Text { color:#424242; } .ColorScheme-Highlight { color:#eeeeee; }
  </style>
 </defs>
<path style="fill:currentColor" class="ColorScheme-Text" d="M 11 5 L 11 6 L 10 6 L 10 7 L 11 7 L 11 8 L 12 8 L 12 7 L 13 7 L 13 9 L 5 9 L 5 19 L 19 19 L 19 9 L 14 9 L 14 7 L 15 7 L 15 8 L 16 8 L 16 7 L 17 7 L 17 6 L 16 6 L 16 5 L 15 5 L 15 6 L 14 6 L 14 5 L 13 5 L 13 6 L 12 6 L 12 5 Z M 7 11 L 17 11 L 17 17 L 7 17 Z M 8 12 L 8 15 L 10 15 L 10 12 Z M 11 12 L 11 13 L 16 13 L 16 12 Z M 11 14 L 11 15 L 16 15 L 16 14 Z M 11 14 "/>
</g>
</svg>
