<?xml version="1.0" encoding="UTF-8"?>
<svg xmlns="http://www.w3.org/2000/svg" xmlns:xlink="http://www.w3.org/1999/xlink" width="24px" height="24px" viewBox="0 0 24 24" version="1.1">
<g id="surface1">
<path style=" stroke:none;fill-rule:nonzero;fill:rgb(100%,65.490198%,14.901961%);fill-opacity:1;" d="M 0.984375 12.089844 C 0.980469 14.988281 2.128906 17.769531 4.175781 19.816406 C 6.226562 21.867188 9.007812 23.015625 11.90625 23.007812 L 11.90625 12.089844 Z M 0.984375 12.089844 "/>
<path style=" stroke:none;fill-rule:nonzero;fill:rgb(98.431373%,54.901963%,0%);fill-opacity:1;" d="M 11.90625 14.964844 C 11.449219 14.960938 11.011719 15.144531 10.6875 15.46875 C 10.363281 15.789062 10.179688 16.230469 10.183594 16.6875 C 10.183594 17.144531 10.363281 17.582031 10.6875 17.90625 C 11.011719 18.230469 11.449219 18.410156 11.90625 18.410156 Z M 11.90625 14.964844 "/>
<path style=" stroke:none;fill-rule:nonzero;fill:rgb(98.431373%,54.901963%,0%);fill-opacity:1;" d="M 7.308594 17.835938 C 7.945312 17.835938 8.460938 18.351562 8.460938 18.984375 C 8.460938 19.621094 7.945312 20.136719 7.308594 20.136719 C 6.675781 20.136719 6.160156 19.621094 6.160156 18.984375 C 6.160156 18.351562 6.671875 17.835938 7.308594 17.835938 Z M 7.308594 17.835938 "/>
<path style=" stroke:none;fill-rule:nonzero;fill:rgb(98.431373%,54.901963%,0%);fill-opacity:1;" d="M 7.425781 12.089844 C 7.65625 12.613281 8.171875 12.953125 8.746094 12.949219 C 9.335938 12.949219 9.839844 12.597656 10.0625 12.089844 Z M 7.425781 12.089844 "/>
<path style=" stroke:none;fill-rule:nonzero;fill:rgb(98.431373%,54.901963%,0%);fill-opacity:1;" d="M 4.292969 12.949219 C 5.164062 12.953125 5.871094 13.660156 5.871094 14.53125 C 5.871094 15.402344 5.164062 16.109375 4.292969 16.113281 C 3.726562 16.113281 3.203125 15.8125 2.921875 15.320312 C 2.636719 14.832031 2.636719 14.230469 2.921875 13.738281 C 3.203125 13.25 3.726562 12.949219 4.292969 12.949219 Z M 4.292969 12.949219 "/>
<path style=" stroke:none;fill-rule:nonzero;fill:rgb(74.117649%,74.117649%,74.117649%);fill-opacity:1;" d="M 22.824219 12.089844 C 22.832031 9.191406 21.683594 6.410156 19.636719 4.359375 C 17.585938 2.3125 14.804688 1.164062 11.90625 1.167969 L 11.90625 12.089844 Z M 22.824219 12.089844 "/>
<path style=" stroke:none;fill-rule:nonzero;fill:rgb(93.725491%,32.549021%,31.37255%);fill-opacity:1;" d="M 22.824219 12.089844 C 22.832031 14.988281 21.683594 17.765625 19.632812 19.816406 C 17.585938 21.867188 14.804688 23.015625 11.90625 23.007812 L 11.90625 12.089844 Z M 22.824219 12.089844 "/>
<path style=" stroke:none;fill-rule:nonzero;fill:rgb(40.000001%,73.333335%,41.568628%);fill-opacity:1;" d="M 21.617188 12.089844 C 21.085938 17.214844 17.035156 21.269531 11.90625 21.800781 L 11.90625 23.007812 C 14.804688 23.015625 17.585938 21.867188 19.632812 19.816406 C 21.683594 17.765625 22.832031 14.988281 22.824219 12.089844 Z M 21.617188 12.089844 "/>
<path style=" stroke:none;fill-rule:nonzero;fill:rgb(64.705884%,83.92157%,65.490198%);fill-opacity:1;" d="M 20.96875 12.089844 C 20.234375 16.75 16.570312 20.417969 11.90625 21.148438 L 11.90625 21.800781 C 17.035156 21.269531 21.085938 17.214844 21.617188 12.089844 Z M 20.96875 12.089844 "/>
<path style=" stroke:none;fill-rule:nonzero;fill:rgb(25.882354%,25.882354%,25.882354%);fill-opacity:1;" d="M 13.34375 12.949219 C 13.5 12.949219 13.632812 13.144531 13.632812 13.382812 C 13.632812 13.617188 13.5 13.8125 13.34375 13.8125 C 13.183594 13.8125 13.054688 13.617188 13.054688 13.382812 C 13.054688 13.144531 13.183594 12.949219 13.34375 12.949219 Z M 13.054688 15.25 C 13.214844 15.25 13.34375 15.441406 13.34375 15.679688 C 13.34375 15.917969 13.214844 16.113281 13.054688 16.113281 C 12.898438 16.113281 12.769531 15.917969 12.769531 15.679688 C 12.769531 15.441406 12.898438 15.25 13.054688 15.25 Z M 15.066406 13.527344 C 15.226562 13.527344 15.355469 13.71875 15.355469 13.957031 C 15.355469 14.195312 15.226562 14.386719 15.066406 14.386719 C 14.910156 14.386719 14.78125 14.195312 14.78125 13.957031 C 14.78125 13.71875 14.910156 13.527344 15.066406 13.527344 Z M 14.78125 16.398438 C 14.9375 16.398438 15.066406 16.59375 15.066406 16.828125 C 15.066406 17.070312 14.9375 17.261719 14.78125 17.261719 C 14.621094 17.261719 14.492188 17.070312 14.492188 16.828125 C 14.492188 16.59375 14.621094 16.398438 14.78125 16.398438 Z M 13.34375 18.410156 C 13.5 18.410156 13.632812 18.605469 13.632812 18.84375 C 13.632812 19.078125 13.5 19.273438 13.34375 19.273438 C 13.183594 19.273438 13.054688 19.078125 13.054688 18.84375 C 13.054688 18.605469 13.183594 18.410156 13.34375 18.410156 Z M 17.367188 15.25 C 17.523438 15.25 17.652344 15.441406 17.652344 15.679688 C 17.652344 15.917969 17.523438 16.113281 17.367188 16.113281 C 17.207031 16.113281 17.078125 15.917969 17.078125 15.679688 C 17.078125 15.441406 17.207031 15.25 17.367188 15.25 Z M 17.078125 13.238281 C 17.238281 13.238281 17.367188 13.429688 17.367188 13.667969 C 17.367188 13.90625 17.238281 14.101562 17.078125 14.101562 C 16.921875 14.101562 16.792969 13.90625 16.792969 13.667969 C 16.792969 13.429688 16.921875 13.238281 17.078125 13.238281 Z M 17.078125 13.238281 "/>
<path style=" stroke:none;fill-rule:nonzero;fill:rgb(55.29412%,43.137255%,38.82353%);fill-opacity:1;" d="M 0.984375 12.089844 C 0.980469 9.191406 2.128906 6.410156 4.175781 4.359375 C 6.226562 2.3125 9.007812 1.164062 11.90625 1.167969 L 11.90625 12.089844 Z M 0.984375 12.089844 "/>
</g>
</svg>
