<?xml version="1.0" encoding="UTF-8"?>
<svg xmlns="http://www.w3.org/2000/svg" xmlns:xlink="http://www.w3.org/1999/xlink" width="24px" height="24px" viewBox="0 0 24 24" version="1.1">
<g id="surface1">
<path style=" stroke:none;fill-rule:nonzero;fill:rgb(100%,95.294118%,87.843138%);fill-opacity:1;" d="M 19.535156 14.859375 C 18.953125 16.332031 19.09375 17.941406 17.773438 19.261719 C 16.652344 20.136719 15.542969 21.023438 13.808594 21.027344 L 11.605469 21.027344 C 10.0625 20.890625 8.960938 20.144531 8.082031 19.703125 L 6.757812 17.941406 L 5.878906 13.535156 L 6.316406 9.570312 L 16.007812 7.367188 L 20.414062 9.570312 Z M 19.535156 14.859375 "/>
<path style=" stroke:none;fill-rule:nonzero;fill:rgb(93.725491%,32.549021%,31.37255%);fill-opacity:1;" d="M 13.367188 3.84375 C 6.496094 4.175781 4.40625 6.445312 3.457031 10.234375 L 3.351562 11.351562 C 3.597656 10.855469 3.457031 10.234375 3.457031 10.234375 C 2.511719 14.019531 2.511719 15.910156 2.53125 20.035156 L 4.019531 21.027344 L 4.117188 19.261719 L 4.300781 19.632812 C 4.527344 20.117188 4.851562 20.855469 5.011719 21.027344 L 10.722656 23.007812 C 9.96875 22.433594 9.265625 21.480469 8.683594 20.367188 C 8.992188 20.414062 9.34375 20.4375 9.746094 20.433594 C 8.808594 20.199219 8.363281 19.589844 8.027344 18.921875 C 7.578125 17.753906 7.253906 16.40625 7.1875 15.113281 C 7.183594 14.824219 7.183594 14.535156 7.183594 14.246094 C 7.234375 13.125 7.519531 12.085938 8.125 11.289062 L 8.402344 11.011719 C 7.882812 12.503906 7.828125 13.203125 7.953125 14.726562 C 7.960938 14.59375 7.972656 14.460938 7.984375 14.328125 L 7.953125 14.726562 C 8.664062 12.597656 9 10.6875 10.792969 9.757812 C 9.609375 11.179688 9.140625 12.199219 9.371094 14.019531 C 9.464844 13.339844 9.8125 12.648438 10.246094 12.011719 C 9.921875 12.796875 9.867188 13.578125 9.890625 14.132812 C 10.15625 12.898438 10.507812 11.9375 11.378906 11.066406 C 11.375 11.070312 11.375 11.070312 11.375 11.074219 C 10.648438 12.140625 10.792969 13.546875 11.164062 14.417969 C 11.5 12.597656 11.738281 11.652344 12.449219 10.234375 C 11.652344 12.1875 11.738281 13.78125 12.484375 15.296875 C 12.683594 14.019531 12.953125 11.878906 13.394531 10.707031 C 13.265625 12.335938 13.867188 12.597656 13.808594 14.859375 C 14.578125 13.308594 14.175781 12.242188 14.339844 11.179688 C 15.472656 12.269531 14.8125 13.070312 14.339844 15.4375 C 16.429688 12.980469 15.996094 11.886719 15.996094 11.179688 C 16.265625 11.625 16.40625 12.03125 16.707031 13.542969 C 17.179688 13.070312 17.007812 10.640625 16.46875 9.996094 C 17.175781 10.8125 17.652344 12.125 17.652344 13.542969 L 18.363281 10.707031 C 18.597656 12.597656 18.125 13.070312 18.597656 14.964844 C 18.632812 14.242188 19.074219 13.542969 19.074219 13.070312 C 19.03125 14.375 19.546875 15.910156 18.816406 17.074219 C 17.652344 18.75 16.792969 19.914062 15.175781 20.34375 C 15.917969 20.355469 16.484375 20.265625 16.929688 20.113281 C 16.308594 20.835938 15.445312 21.742188 14.179688 23.007812 C 16.707031 23.007812 18.125 22.0625 19.074219 20.640625 C 19.074219 21.589844 19.074219 21.589844 18.597656 22.535156 C 20.019531 21.113281 21.4375 19.695312 21.738281 17.941406 L 22.175781 20.144531 C 23.476562 11.699219 21.363281 4.175781 13.367188 3.84375 Z M 13.367188 3.84375 "/>
<path style=" stroke:none;fill-rule:nonzero;fill:rgb(89.803922%,45.09804%,45.09804%);fill-opacity:1;" d="M 12.265625 18.824219 C 13.15625 18.632812 13.632812 18.511719 14.027344 18.824219 C 13.984375 19.578125 13.394531 19.695312 12.707031 19.703125 C 12.449219 19.695312 12.265625 19.339844 12.265625 18.824219 Z M 12.265625 18.824219 "/>
<path style=" stroke:none;fill-rule:nonzero;fill:rgb(36.078432%,41.960785%,75.294119%);fill-opacity:1;" d="M 8.082031 16.179688 C 9.425781 18.265625 11.382812 16.621094 11.605469 16.179688 C 11.824219 15.738281 12.046875 15.296875 11.605469 14.859375 C 9.921875 13.425781 8.300781 14.859375 8.082031 16.179688 Z M 8.082031 16.179688 "/>
<path style=" stroke:none;fill-rule:nonzero;fill:rgb(24.705882%,31.764707%,70.980394%);fill-opacity:1;" d="M 11.535156 15.332031 C 10.9375 16.34375 9.132812 16.777344 8.355469 16.195312 C 9.53125 17.683594 11.269531 16.316406 11.453125 15.945312 C 11.484375 15.878906 11.515625 15.398438 11.535156 15.332031 Z M 11.535156 15.332031 "/>
<path style=" stroke:none;fill-rule:nonzero;fill:rgb(47.450981%,52.549022%,79.607844%);fill-opacity:1;" d="M 11.484375 15.929688 C 11.058594 16.421875 10.433594 16.730469 9.730469 16.730469 C 9.261719 16.730469 8.824219 16.589844 8.460938 16.351562 C 9.632812 17.839844 11.214844 16.496094 11.402344 16.125 C 11.433594 16.058594 11.460938 15.996094 11.484375 15.929688 Z M 11.484375 15.929688 "/>
<path style=" stroke:none;fill-rule:nonzero;fill:rgb(90.980393%,91.764706%,96.470588%);fill-opacity:1;" d="M 10.960938 14.542969 C 10.9375 14.59375 10.925781 14.652344 10.925781 14.710938 C 10.925781 14.941406 11.109375 15.125 11.339844 15.125 C 11.441406 15.125 11.53125 15.089844 11.605469 15.03125 C 11.578125 14.96875 11.539062 14.910156 11.476562 14.847656 C 11.304688 14.699219 11.128906 14.601562 10.960938 14.542969 Z M 10.960938 14.542969 "/>
<path style=" stroke:none;fill-rule:nonzero;fill:rgb(25.882354%,25.882354%,25.882354%);fill-opacity:1;" d="M 7.859375 16.398438 C 8.417969 15.253906 10.214844 14.335938 11.699219 14.832031 C 10.214844 13.839844 8.519531 14.195312 7.859375 16.398438 Z M 7.859375 16.398438 "/>
<path style=" stroke:none;fill-rule:nonzero;fill:rgb(36.078432%,41.960785%,75.294119%);fill-opacity:1;" d="M 15.128906 16.179688 C 16.476562 18.265625 17.671875 16.621094 17.894531 16.179688 C 18.113281 15.738281 18.335938 15.296875 17.894531 14.859375 C 16.210938 13.425781 15.347656 14.859375 15.128906 16.179688 Z M 15.128906 16.179688 "/>
<path style=" stroke:none;fill-rule:nonzero;fill:rgb(24.705882%,31.764707%,70.980394%);fill-opacity:1;" d="M 15.417969 15.945312 C 16.28125 16.5625 17.035156 16.386719 17.894531 15.820312 C 16.722656 17.308594 15.726562 16.6875 15.542969 16.316406 C 15.507812 16.25 15.4375 16.011719 15.417969 15.945312 Z M 15.417969 15.945312 "/>
<path style=" stroke:none;fill-rule:nonzero;fill:rgb(47.450981%,52.549022%,79.607844%);fill-opacity:1;" d="M 17.773438 15.929688 C 16.957031 16.914062 15.914062 16.8125 15.417969 16.070312 C 15.914062 17.804688 17.503906 16.496094 17.691406 16.125 C 17.722656 16.058594 17.75 15.996094 17.773438 15.929688 Z M 17.773438 15.929688 "/>
<path style=" stroke:none;fill-rule:nonzero;fill:rgb(90.980393%,91.764706%,96.470588%);fill-opacity:1;" d="M 17.25 14.542969 C 17.226562 14.59375 17.214844 14.652344 17.214844 14.710938 C 17.214844 14.941406 17.398438 15.125 17.628906 15.125 C 17.730469 15.125 17.820312 15.089844 17.894531 15.03125 C 17.867188 14.96875 17.828125 14.910156 17.765625 14.847656 C 17.59375 14.699219 17.417969 14.601562 17.25 14.542969 Z M 17.25 14.542969 "/>
<path style=" stroke:none;fill-rule:nonzero;fill:rgb(25.882354%,25.882354%,25.882354%);fill-opacity:1;" d="M 18.210938 16.398438 C 18.210938 14.636719 16.890625 14.085938 15.679688 14.746094 C 16.007812 13.757812 18.652344 13.976562 18.210938 16.398438 Z M 18.210938 16.398438 "/>
<path style=" stroke:none;fill-rule:nonzero;fill:rgb(89.803922%,45.09804%,45.09804%);fill-opacity:1;" d="M 11.8125 4.9375 C 13.03125 5.289062 14.4375 4.410156 16.273438 4.9375 C 14.300781 3.757812 13.289062 4.261719 12.445312 4.671875 C 13.359375 4.136719 14.15625 3.082031 15.675781 2.707031 C 12.785156 2.660156 12.539062 4.167969 11.8125 4.9375 Z M 11.8125 4.9375 "/>
<path style=" stroke:none;fill-rule:nonzero;fill:rgb(89.803922%,45.09804%,45.09804%);fill-opacity:1;" d="M 13.078125 4.421875 C 11.855469 4.773438 10.449219 3.894531 8.617188 4.421875 C 10.585938 3.242188 11.601562 3.746094 12.445312 4.15625 C 11.527344 3.621094 10.730469 2.570312 9.214844 2.191406 C 12.105469 2.144531 12.347656 3.65625 13.078125 4.421875 Z M 13.078125 4.421875 "/>
<path style=" stroke:none;fill-rule:nonzero;fill:rgb(89.803922%,45.09804%,45.09804%);fill-opacity:1;" d="M 13.078125 4.421875 C 11.855469 4.773438 10.449219 3.894531 8.617188 4.421875 C 10.585938 3.242188 11.601562 3.746094 12.445312 4.15625 C 11.527344 3.621094 10.730469 2.570312 9.214844 2.191406 C 12.105469 2.144531 12.347656 3.65625 13.078125 4.421875 Z M 13.078125 4.421875 "/>
<path style=" stroke:none;fill-rule:nonzero;fill:rgb(89.803922%,45.09804%,45.09804%);fill-opacity:1;" d="M 12.546875 5.414062 C 13.769531 5.765625 15.175781 4.886719 17.007812 5.414062 C 15.039062 4.234375 14.023438 4.738281 13.179688 5.148438 C 14.097656 4.613281 14.894531 3.558594 16.410156 3.183594 C 13.519531 3.136719 13.273438 4.644531 12.546875 5.414062 Z M 12.546875 5.414062 "/>
<path style=" stroke:none;fill-rule:nonzero;fill:rgb(89.803922%,45.09804%,45.09804%);fill-opacity:1;" d="M 13.367188 3.84375 C 6.789062 4.160156 4.589844 6.257812 3.585938 9.757812 L 3.457031 13.070312 C 3.480469 12.179688 4.523438 10.785156 4.878906 10.234375 C 4.878906 11.179688 3.929688 12.125 3.929688 14.492188 C 4.878906 12.125 6.296875 10.234375 7.242188 9.757812 C 6.296875 10.707031 6.535156 11.179688 6.535156 12.125 C 7.007812 11.179688 8.265625 10.394531 8.898438 10.234375 C 8.664062 10.707031 8.191406 11.652344 8.191406 12.597656 C 9.371094 10.234375 9.847656 9.757812 11.265625 9.285156 C 10.792969 9.996094 9.847656 11.414062 9.609375 12.597656 C 10.296875 11.453125 11.085938 10.445312 12.210938 9.523438 C 11.765625 10.101562 11.527344 11.140625 11.265625 12.125 C 11.800781 10.875 12.339844 9.621094 13.15625 9.523438 C 12.210938 10.941406 12.210938 11.652344 12.449219 12.835938 C 12.898438 11.167969 13.15625 10.234375 13.632812 9.757812 C 13.632812 10.46875 13.632812 10.941406 13.867188 11.652344 C 14.039062 11.210938 13.96875 10.121094 14.339844 9.996094 C 14.578125 10.234375 15.523438 11.414062 15.523438 12.125 C 15.894531 11.382812 15.171875 10.417969 15.242188 9.980469 L 16.46875 11.414062 L 16.285156 9.738281 C 16.441406 9.738281 16.625 9.738281 16.816406 9.742188 L 17.769531 11.886719 C 18.023438 11.074219 18.007812 10.109375 18.007812 9.640625 C 19.425781 10.707031 18.601562 12.363281 18.597656 13.664062 C 18.765625 13.339844 19.546875 11.179688 19.355469 9.773438 C 20.128906 10.859375 19.824219 12.125 20.019531 13.308594 C 20.375 12.242188 20.605469 11.332031 20.238281 9.78125 C 20.964844 10.707031 21.554688 13.542969 21.320312 16.148438 C 22.03125 13.664062 22.03125 11.769531 21.589844 9.757812 C 20.324219 6.332031 17.71875 4.023438 13.367188 3.84375 Z M 13.367188 3.84375 "/>
<path style=" stroke:none;fill-rule:nonzero;fill:rgb(98.039216%,98.039216%,98.039216%);fill-opacity:1;" d="M 13.433594 18.667969 C 13.136719 18.664062 12.765625 18.75 12.265625 18.855469 C 12.265625 18.886719 12.265625 18.914062 12.265625 18.945312 C 12.488281 18.992188 12.777344 19.019531 13.097656 19.019531 C 13.464844 19.019531 13.796875 18.984375 14.023438 18.921875 C 14.023438 18.902344 14.027344 18.878906 14.027344 18.855469 C 13.855469 18.722656 13.664062 18.667969 13.433594 18.667969 Z M 13.433594 18.667969 "/>
<path style=" stroke:none;fill-rule:nonzero;fill:rgb(73.725492%,66.666669%,64.313728%);fill-opacity:1;" d="M 4.261719 8.164062 C 4.878906 5.078125 6.324219 1.96875 10.042969 1.140625 C 14.175781 1.140625 16.445312 3.03125 18.308594 5.273438 C 19.132812 5.683594 21.613281 6.097656 22.851562 7.335938 C 22.4375 8.164062 22.261719 8.476562 21.332031 9.117188 C 20.925781 8.367188 20.585938 7.628906 19.96875 6.886719 C 13.644531 6.1875 8.847656 7.429688 3.886719 9.738281 C 3.28125 10.3125 3.324219 11.128906 3.101562 11.847656 L 0.953125 11.054688 C 2.195312 9.402344 2.835938 8.90625 4.261719 8.164062 Z M 4.261719 8.164062 "/>
<path style=" stroke:none;fill-rule:nonzero;fill:rgb(84.313726%,80.000001%,78.431374%);fill-opacity:1;" d="M 17.003906 5.320312 C 15.640625 5.320312 14.179688 5.40625 12.664062 5.589844 C 9.414062 5.976562 6.507812 6.734375 4.367188 7.660156 C 4.328125 7.828125 4.292969 7.996094 4.261719 8.164062 C 2.835938 8.90625 2.195312 9.402344 0.953125 11.054688 L 1.175781 11.136719 C 8.503906 7.914062 13.878906 5.554688 22.820312 7.398438 C 22.832031 7.378906 22.839844 7.359375 22.851562 7.335938 C 21.695312 6.183594 19.46875 5.746094 18.5 5.355469 C 18.015625 5.332031 17.515625 5.320312 17.003906 5.320312 Z M 17.003906 5.320312 "/>
<path style=" stroke:none;fill-rule:nonzero;fill:rgb(55.29412%,43.137255%,38.82353%);fill-opacity:1;" d="M 10.664062 1.347656 C 11.628906 1.578125 13.550781 2.839844 14.796875 4.652344 C 13.554688 3.363281 11.492188 2.207031 10.664062 1.347656 Z M 10.664062 1.347656 "/>
<path style=" stroke:none;fill-rule:nonzero;fill:rgb(55.29412%,43.137255%,38.82353%);fill-opacity:1;" d="M 10.457031 1.140625 C 9.738281 1.824219 7.738281 2.875 7.566406 5.066406 C 7.996094 3.332031 9.628906 2.171875 10.457031 1.140625 Z M 10.457031 1.140625 "/>
</g>
</svg>
