
<svg xmlns="http://www.w3.org/2000/svg" xmlns:xlink="http://www.w3.org/1999/xlink" width="24px" height="24px" viewBox="0 0 24 24" version="1.1">
<g id="surface1">
<path style=" stroke:none;fill-rule:nonzero;fill:rgb(8.235294%,39.607844%,75.294119%);fill-opacity:1;" d="M 8.167969 1.460938 C 6.976562 2.148438 8.453125 6.917969 11.476562 12.15625 C 14.5 17.390625 17.890625 21.054688 19.082031 20.367188 C 19.089844 20.359375 19.101562 20.355469 19.109375 20.347656 C 19.164062 20.3125 19.210938 20.269531 19.253906 20.214844 C 19.273438 20.238281 19.289062 20.246094 19.296875 20.242188 C 19.304688 20.238281 19.304688 20.222656 19.296875 20.191406 C 19.375 20.179688 19.445312 20.15625 19.511719 20.117188 C 20.703125 19.429688 19.226562 14.664062 16.203125 9.425781 C 13.179688 4.191406 9.789062 0.527344 8.597656 1.214844 C 8.53125 1.253906 8.472656 1.300781 8.425781 1.363281 C 8.402344 1.34375 8.390625 1.335938 8.382812 1.339844 C 8.375 1.34375 8.375 1.359375 8.382812 1.386719 C 8.304688 1.398438 8.234375 1.425781 8.167969 1.460938 Z M 8.167969 1.460938 "/>
<path style=" stroke:none;fill-rule:nonzero;fill:rgb(25.882354%,64.705884%,96.078432%);fill-opacity:1;" d="M 19.511719 3.695312 C 20.703125 4.382812 19.226562 9.152344 16.203125 14.386719 C 13.179688 19.621094 9.789062 23.285156 8.597656 22.597656 L 4.730469 20.367188 C 5.921875 21.054688 9.3125 17.390625 12.335938 12.15625 C 15.359375 6.917969 16.835938 2.148438 15.644531 1.460938 Z M 15.644531 1.460938 C 15.578125 1.425781 15.507812 1.398438 15.429688 1.386719 C 15.4375 1.359375 15.4375 1.34375 15.429688 1.339844 Z M 15.429688 1.339844 C 15.421875 1.335938 15.410156 1.34375 15.386719 1.363281 C 15.339844 1.300781 15.28125 1.253906 15.214844 1.214844 Z M 4.730469 20.367188 L 4.515625 20.242188 C 4.523438 20.246094 4.539062 20.238281 4.558594 20.214844 C 4.601562 20.269531 4.648438 20.3125 4.703125 20.347656 C 4.710938 20.355469 4.722656 20.359375 4.730469 20.367188 Z M 4.515625 20.242188 L 4.300781 20.117188 C 4.367188 20.15625 4.4375 20.179688 4.515625 20.191406 C 4.507812 20.222656 4.507812 20.238281 4.515625 20.242188 Z M 4.515625 20.242188 "/>
<path style=" stroke:none;fill-rule:nonzero;fill:rgb(9.803922%,46.27451%,82.352942%);fill-opacity:1;" d="M 15.644531 1.460938 C 16.835938 2.148438 15.359375 6.917969 12.335938 12.15625 C 9.3125 17.390625 5.921875 21.054688 4.730469 20.367188 C 4.722656 20.359375 4.710938 20.355469 4.703125 20.347656 C 4.648438 20.3125 4.601562 20.269531 4.558594 20.214844 C 4.539062 20.238281 4.523438 20.246094 4.515625 20.242188 C 4.507812 20.238281 4.507812 20.222656 4.515625 20.191406 C 4.4375 20.179688 4.367188 20.15625 4.300781 20.117188 C 3.109375 19.429688 4.585938 14.664062 7.609375 9.425781 C 10.632812 4.191406 14.023438 0.527344 15.214844 1.214844 C 15.28125 1.253906 15.339844 1.300781 15.386719 1.363281 C 15.410156 1.34375 15.421875 1.335938 15.429688 1.339844 C 15.4375 1.34375 15.4375 1.359375 15.429688 1.386719 C 15.507812 1.398438 15.578125 1.425781 15.644531 1.460938 Z M 15.644531 1.460938 "/>
<path style=" stroke:none;fill-rule:nonzero;fill:rgb(12.941177%,58.823532%,95.294118%);fill-opacity:1;" d="M 4.300781 3.695312 C 3.109375 4.382812 4.585938 9.152344 7.609375 14.386719 C 10.632812 19.625 14.023438 23.285156 15.214844 22.597656 L 19.082031 20.367188 C 17.890625 21.054688 14.5 17.390625 11.476562 12.15625 C 8.453125 6.917969 6.976562 2.148438 8.167969 1.460938 Z M 8.167969 1.460938 C 8.234375 1.425781 8.304688 1.398438 8.382812 1.386719 C 8.375 1.359375 8.375 1.34375 8.382812 1.339844 Z M 8.382812 1.339844 C 8.390625 1.335938 8.402344 1.34375 8.425781 1.363281 C 8.472656 1.300781 8.53125 1.253906 8.597656 1.214844 Z M 19.082031 20.367188 L 19.296875 20.242188 C 19.289062 20.246094 19.273438 20.238281 19.253906 20.214844 C 19.210938 20.269531 19.164062 20.3125 19.109375 20.347656 C 19.101562 20.355469 19.089844 20.359375 19.082031 20.367188 Z M 19.296875 20.242188 L 19.511719 20.117188 C 19.445312 20.15625 19.375 20.179688 19.296875 20.191406 C 19.304688 20.222656 19.304688 20.238281 19.296875 20.242188 Z M 19.296875 20.242188 "/>
<path style=" stroke:none;fill-rule:nonzero;fill:rgb(11.764706%,53.333336%,89.803922%);fill-opacity:1;" d="M 22.820312 12.722656 C 22.820312 11.347656 17.953125 10.242188 11.90625 10.242188 C 5.859375 10.242188 0.992188 11.347656 0.992188 12.722656 C 0.992188 12.734375 0.992188 12.742188 0.992188 12.753906 C 0.996094 12.820312 1.011719 14.050781 1.035156 14.113281 C 1.007812 14.121094 0.992188 14.128906 0.992188 14.140625 C 0.992188 14.148438 1.007812 14.15625 1.035156 14.164062 C 1.007812 14.234375 0.992188 14.3125 0.992188 14.386719 C 0.992188 15.761719 5.859375 16.867188 11.90625 16.867188 C 17.953125 16.867188 22.820312 15.761719 22.820312 14.386719 C 22.820312 14.3125 22.804688 13.066406 22.777344 12.992188 C 22.804688 12.984375 22.820312 12.976562 22.820312 12.96875 C 22.820312 12.960938 22.804688 12.953125 22.777344 12.945312 C 22.804688 12.871094 22.820312 12.796875 22.820312 12.722656 Z M 22.820312 12.722656 "/>
<path style=" stroke:none;fill-rule:nonzero;fill:rgb(39.215687%,70.980394%,96.470588%);fill-opacity:1;" d="M 22.820312 9.425781 C 22.820312 8.050781 17.953125 6.945312 11.90625 6.945312 C 5.859375 6.945312 0.992188 8.050781 0.992188 9.425781 L 0.992188 13.890625 C 0.992188 12.515625 5.859375 11.410156 11.90625 11.410156 C 17.953125 11.410156 22.820312 12.515625 22.820312 13.890625 Z M 22.820312 13.890625 C 22.820312 13.964844 22.804688 14.042969 22.777344 14.113281 C 22.804688 14.121094 22.820312 14.128906 22.820312 14.140625 Z M 22.820312 14.140625 C 22.820312 14.148438 22.804688 14.15625 22.777344 14.164062 C 22.804688 14.234375 22.820312 14.3125 22.820312 14.386719 Z M 0.992188 13.890625 L 0.992188 14.140625 C 0.992188 14.128906 1.007812 14.121094 1.035156 14.113281 C 1.011719 14.050781 0.996094 13.988281 0.992188 13.921875 C 0.992188 13.910156 0.992188 13.902344 0.992188 13.890625 Z M 0.992188 14.140625 L 0.992188 14.386719 C 0.992188 14.3125 1.007812 14.234375 1.035156 14.164062 C 1.007812 14.15625 0.992188 14.148438 0.992188 14.140625 Z M 0.992188 14.140625 "/>
<path style=" stroke:none;fill-rule:nonzero;fill:rgb(25.882354%,64.705884%,96.078432%);fill-opacity:1;" d="M 19.511719 3.695312 C 20.703125 4.382812 19.226562 9.152344 16.203125 14.386719 C 13.179688 19.621094 9.789062 23.285156 8.597656 22.597656 L 4.730469 20.367188 C 5.921875 21.054688 9.3125 17.390625 12.335938 12.15625 C 15.359375 6.917969 16.835938 2.148438 15.644531 1.460938 Z M 15.644531 1.460938 C 15.578125 1.425781 15.507812 1.398438 15.429688 1.386719 C 15.4375 1.359375 15.4375 1.34375 15.429688 1.339844 Z M 15.429688 1.339844 C 15.421875 1.335938 15.410156 1.34375 15.386719 1.363281 C 15.339844 1.300781 15.28125 1.253906 15.214844 1.214844 Z M 4.730469 20.367188 L 4.515625 20.242188 C 4.523438 20.246094 4.539062 20.238281 4.558594 20.214844 C 4.601562 20.269531 4.648438 20.3125 4.703125 20.347656 C 4.710938 20.355469 4.722656 20.359375 4.730469 20.367188 Z M 4.515625 20.242188 L 4.300781 20.117188 C 4.367188 20.15625 4.4375 20.179688 4.515625 20.191406 C 4.507812 20.222656 4.507812 20.238281 4.515625 20.242188 Z M 4.515625 20.242188 "/>
<path style=" stroke:none;fill-rule:nonzero;fill:rgb(12.941177%,58.823532%,95.294118%);fill-opacity:1;" d="M 11.058594 11.417969 C 9.289062 11.449219 7.636719 11.574219 6.207031 11.773438 C 6.625 12.617188 7.09375 13.496094 7.609375 14.386719 C 10.632812 19.621094 14.023438 23.285156 15.214844 22.597656 L 19.082031 20.367188 C 17.890625 21.054688 14.5 17.390625 11.476562 12.152344 C 11.335938 11.90625 11.195312 11.660156 11.058594 11.417969 Z M 19.082031 20.367188 L 19.296875 20.242188 C 19.289062 20.246094 19.273438 20.238281 19.253906 20.214844 C 19.210938 20.269531 19.164062 20.3125 19.109375 20.347656 C 19.101562 20.355469 19.089844 20.359375 19.082031 20.367188 Z M 19.296875 20.242188 L 19.511719 20.117188 C 19.445312 20.15625 19.375 20.179688 19.296875 20.191406 C 19.304688 20.222656 19.304688 20.238281 19.296875 20.242188 Z M 19.296875 20.242188 "/>
<path style=" stroke:none;fill-rule:nonzero;fill:rgb(8.235294%,39.607844%,75.294119%);fill-opacity:1;" d="M 17.539062 11.90625 C 17.136719 12.707031 16.691406 13.539062 16.203125 14.386719 C 15.683594 15.28125 15.160156 16.125 14.636719 16.90625 C 16.582031 19.402344 18.304688 20.816406 19.082031 20.367188 C 19.089844 20.359375 19.101562 20.355469 19.109375 20.347656 C 19.164062 20.3125 19.210938 20.269531 19.253906 20.214844 C 19.273438 20.238281 19.289062 20.246094 19.296875 20.242188 C 19.304688 20.238281 19.304688 20.222656 19.296875 20.191406 C 19.375 20.179688 19.445312 20.15625 19.511719 20.117188 C 20.511719 19.542969 19.632812 16.09375 17.539062 11.90625 Z M 17.539062 11.90625 "/>
</g>
</svg>
