<?xml version="1.0" encoding="UTF-8"?>
<svg xmlns="http://www.w3.org/2000/svg" xmlns:xlink="http://www.w3.org/1999/xlink" width="24px" height="24px" viewBox="0 0 24 24" version="1.1">
<g id="surface1">
<path style=" stroke:none;fill-rule:nonzero;fill:rgb(49.411765%,34.117648%,76.078433%);fill-opacity:1;" d="M 1.984375 1.179688 C 1.433594 1.179688 0.992188 1.621094 0.992188 2.171875 L 0.992188 12.09375 L 11.90625 12.09375 L 11.90625 1.179688 Z M 1.984375 1.179688 "/>
<path style=" stroke:none;fill-rule:nonzero;fill:rgb(100%,65.490198%,14.901961%);fill-opacity:1;" d="M 21.828125 1.179688 C 22.378906 1.179688 22.820312 1.621094 22.820312 2.171875 L 22.820312 12.09375 L 11.90625 12.09375 L 11.90625 1.179688 Z M 21.828125 1.179688 "/>
<path style=" stroke:none;fill-rule:nonzero;fill:rgb(92.54902%,25.098041%,47.843137%);fill-opacity:1;" d="M 1.984375 23.007812 C 1.433594 23.007812 0.992188 22.566406 0.992188 22.015625 L 0.992188 12.09375 L 11.90625 12.09375 L 11.90625 23.007812 Z M 1.984375 23.007812 "/>
<path style=" stroke:none;fill-rule:nonzero;fill:rgb(93.725491%,32.549021%,31.37255%);fill-opacity:1;" d="M 21.828125 23.007812 C 22.378906 23.007812 22.820312 22.566406 22.820312 22.015625 L 22.820312 12.09375 L 11.90625 12.09375 L 11.90625 23.007812 Z M 21.828125 23.007812 "/>
<path style=" stroke:none;fill-rule:nonzero;fill:rgb(25.882354%,25.882354%,25.882354%);fill-opacity:1;" d="M 5.921875 5.179688 L 17.890625 5.179688 C 18.421875 5.179688 18.851562 5.609375 18.851562 6.140625 L 18.851562 18.542969 C 18.851562 19.074219 18.421875 19.503906 17.890625 19.503906 L 5.921875 19.503906 C 5.390625 19.503906 4.960938 19.074219 4.960938 18.542969 L 4.960938 6.140625 C 4.960938 5.609375 5.390625 5.179688 5.921875 5.179688 Z M 5.921875 5.179688 "/>
<path style=" stroke:none;fill-rule:nonzero;fill:rgb(93.333334%,93.333334%,93.333334%);fill-opacity:1;" d="M 6.203125 8.125 C 6.0625 8.125 5.953125 8.234375 5.953125 8.371094 L 5.953125 15.8125 C 5.953125 15.953125 6.0625 16.0625 6.203125 16.0625 L 6.695312 16.0625 C 6.835938 16.0625 6.945312 15.953125 6.945312 15.8125 L 6.945312 13.332031 L 8.921875 13.332031 L 10.425781 15.9375 C 10.496094 16.058594 10.648438 16.097656 10.765625 16.027344 L 11.195312 15.78125 C 11.3125 15.710938 11.355469 15.5625 11.285156 15.441406 L 9.941406 13.109375 C 10.808594 12.707031 11.410156 11.792969 11.410156 10.730469 C 11.410156 9.285156 10.304688 8.125 8.929688 8.125 Z M 6.945312 9.117188 L 8.929688 9.117188 C 9.753906 9.117188 10.417969 9.78125 10.417969 10.605469 L 10.417969 10.851562 C 10.417969 11.679688 9.753906 12.339844 8.929688 12.339844 L 6.945312 12.339844 Z M 6.945312 9.117188 "/>
<path style=" stroke:none;fill-rule:nonzero;fill:rgb(93.333334%,93.333334%,93.333334%);fill-opacity:1;" d="M 12.898438 8.125 C 12.625 8.125 12.402344 8.347656 12.402344 8.621094 L 12.402344 12.339844 C 12.402344 12.34375 12.402344 12.347656 12.402344 12.347656 L 12.402344 15.8125 C 12.402344 15.953125 12.511719 16.0625 12.652344 16.0625 L 13.148438 16.0625 C 13.285156 16.0625 13.394531 15.953125 13.394531 15.8125 L 13.394531 12.359375 C 13.394531 12.351562 13.394531 12.347656 13.394531 12.339844 L 13.394531 10.3125 L 14.714844 12.363281 C 14.804688 12.503906 14.960938 12.589844 15.132812 12.589844 C 15.300781 12.589844 15.457031 12.503906 15.546875 12.363281 L 16.867188 10.3125 L 16.867188 12.339844 C 16.867188 12.34375 16.867188 12.347656 16.867188 12.347656 L 16.867188 15.8125 C 16.867188 15.953125 16.976562 16.0625 17.117188 16.0625 L 17.613281 16.0625 C 17.75 16.0625 17.859375 15.953125 17.859375 15.8125 L 17.859375 12.359375 C 17.859375 12.351562 17.859375 12.347656 17.859375 12.339844 L 17.859375 8.621094 C 17.859375 8.402344 17.714844 8.207031 17.503906 8.144531 C 17.292969 8.082031 17.066406 8.167969 16.945312 8.351562 L 15.132812 11.175781 L 13.316406 8.351562 C 13.226562 8.210938 13.066406 8.125 12.898438 8.125 Z M 12.898438 8.125 "/>
</g>
</svg>
