<?xml version="1.0" encoding="UTF-8"?>
<svg xmlns="http://www.w3.org/2000/svg" xmlns:xlink="http://www.w3.org/1999/xlink" width="24px" height="24px" viewBox="0 0 24 24" version="1.1">
<g id="surface1">
<path style=" stroke:none;fill-rule:nonzero;fill:rgb(40.000001%,73.333335%,41.568628%);fill-opacity:1;" d="M 11.921875 22.015625 C 11.8125 22.019531 11.703125 21.984375 11.613281 21.921875 L 1.234375 11.65625 C 1.0625 11.53125 0.988281 11.304688 1.054688 11.101562 L 5.019531 2.613281 C 5.085938 2.410156 5.277344 2.273438 5.492188 2.273438 L 18.320312 2.273438 C 18.535156 2.273438 18.726562 2.410156 18.792969 2.613281 L 22.757812 11.101562 C 22.824219 11.304688 22.75 11.53125 22.578125 11.65625 L 12.199219 21.921875 C 12.117188 21.980469 12.019531 22.011719 11.921875 22.015625 Z M 11.921875 22.015625 "/>
<path style=" stroke:none;fill-rule:nonzero;fill:rgb(84.705883%,10.588235%,37.64706%);fill-opacity:1;" d="M 11.921875 22.015625 C 11.8125 22.019531 11.703125 21.984375 11.613281 21.921875 L 1.234375 11.65625 C 1.0625 11.53125 0.988281 11.304688 1.054688 11.101562 L 5.019531 2.613281 C 5.085938 2.410156 5.277344 2.273438 5.492188 2.273438 L 18.320312 2.273438 C 18.535156 2.273438 18.726562 2.410156 18.792969 2.613281 L 22.757812 11.101562 C 22.824219 11.304688 22.75 11.53125 22.578125 11.65625 L 12.199219 21.921875 C 12.117188 21.980469 12.019531 22.011719 11.921875 22.015625 Z M 11.921875 22.015625 "/>
<path style=" stroke:none;fill-rule:nonzero;fill:rgb(84.705883%,10.588235%,37.64706%);fill-opacity:1;" d="M 11.90625 2.171875 L 7.191406 11.351562 L 16.621094 11.351562 Z M 11.90625 2.171875 "/>
<path style=" stroke:none;fill-rule:nonzero;fill:rgb(95.686275%,56.078434%,69.411767%);fill-opacity:1;" d="M 11.90625 22.015625 L 7.191406 11.351562 L 16.621094 11.351562 Z M 11.90625 22.015625 "/>
<path style=" stroke:none;fill-rule:nonzero;fill:rgb(95.686275%,56.078434%,69.411767%);fill-opacity:1;" d="M 5.492188 2.273438 C 5.277344 2.273438 5.085938 2.410156 5.019531 2.613281 L 1.054688 11.101562 C 1.027344 11.183594 1.023438 11.269531 1.039062 11.347656 L 7.191406 11.347656 L 11.855469 2.273438 Z M 5.492188 2.273438 "/>
<path style=" stroke:none;fill-rule:nonzero;fill:rgb(94.117647%,38.431373%,57.254905%);fill-opacity:1;" d="M 18.320312 2.273438 C 18.535156 2.273438 18.726562 2.410156 18.792969 2.613281 L 22.757812 11.101562 C 22.785156 11.183594 22.789062 11.269531 22.773438 11.347656 L 16.621094 11.347656 L 11.957031 2.273438 Z M 18.320312 2.273438 "/>
<path style=" stroke:none;fill-rule:nonzero;fill:rgb(94.117647%,38.431373%,57.254905%);fill-opacity:1;" d="M 1.039062 11.347656 C 1.0625 11.46875 1.128906 11.582031 1.234375 11.65625 L 11.613281 21.921875 C 11.699219 21.984375 11.800781 22.015625 11.90625 22.015625 L 7.191406 11.347656 Z M 1.039062 11.347656 "/>
<path style=" stroke:none;fill-rule:nonzero;fill:rgb(90.980393%,96.078432%,91.37255%);fill-opacity:1;" d="M 5.457031 3.660156 L 5.953125 3.660156 L 4.464844 6.636719 L 3.96875 6.636719 Z M 5.457031 3.660156 "/>
<path style=" stroke:none;fill-rule:nonzero;fill:rgb(90.980393%,96.078432%,91.37255%);fill-opacity:1;" d="M 3.597656 7.257812 L 4.09375 7.257812 L 3.472656 8.375 L 2.976562 8.375 Z M 3.597656 7.257812 "/>
</g>
</svg>
