<?xml version="1.0" encoding="UTF-8"?>
<svg xmlns="http://www.w3.org/2000/svg" xmlns:xlink="http://www.w3.org/1999/xlink" width="24px" height="24px" viewBox="0 0 24 24" version="1.1">
<defs>
<linearGradient id="linear0" gradientUnits="userSpaceOnUse" x1="1040.001953" y1="1695.118286" x2="1040.001953" y2="175.116013" gradientTransform="matrix(0.0116699,0,0,0.0116699,169.333328,-106.577766)">
<stop offset="0" style="stop-color:rgb(93.333334%,93.333334%,93.333334%);stop-opacity:1;"/>
<stop offset="1" style="stop-color:rgb(87.843138%,87.843138%,87.843138%);stop-opacity:1;"/>
</linearGradient>
</defs>
<g id="surface1">
<path style=" stroke:none;fill-rule:nonzero;fill:rgb(93.725491%,32.549021%,31.37255%);fill-opacity:1;" d="M 3.96875 1.179688 L 19.84375 1.179688 C 20.390625 1.179688 20.835938 1.625 20.835938 2.171875 L 20.835938 22.015625 C 20.835938 22.5625 20.390625 23.007812 19.84375 23.007812 L 3.96875 23.007812 C 3.421875 23.007812 2.976562 22.5625 2.976562 22.015625 L 2.976562 2.171875 C 2.976562 1.625 3.421875 1.179688 3.96875 1.179688 Z M 3.96875 1.179688 "/>
<path style="fill-rule:nonzero;fill:url(#linear0);stroke-width:0.132325;stroke-linecap:round;stroke-linejoin:miter;stroke:rgb(12.941177%,12.941177%,12.941177%);stroke-opacity:1;stroke-miterlimit:4;" d="M 176 -104.5 C 176.333333 -103.666667 176.5 -102.583333 175.916667 -101.75 C 175 -100.583333 175.5 -98.583333 176.916667 -98 C 178.166667 -97.416667 179.916667 -98.25 180.25 -99.583333 C 180.666667 -100.833333 179.833333 -102.333333 178.666667 -102.666667 C 177.833333 -103 177.25 -103.75 177.083333 -104.5 Z M 182.75 -99.916667 C 181.333333 -99.916667 180.083333 -98.5 180.416667 -97.083333 C 180.583333 -95.5 182.416667 -94.583333 183.75 -95.166667 C 184.666667 -95.5 185.083333 -96.333333 185.416667 -97.083333 C 185.833333 -97.916667 186.833333 -98.333333 187.75 -98.25 C 187.833333 -98.166667 187.916667 -98.25 188 -98.25 L 188 -99.333333 C 187.583333 -99.5 186.666667 -99.166667 186.25 -99.083333 C 185.333333 -98.916667 184.5 -99.25 183.75 -99.75 C 183.5 -99.833333 183.166667 -99.916667 182.833333 -99.916667 C 182.833333 -99.916667 182.833333 -99.916667 182.75 -99.916667 Z M 175.75 -97.083333 C 174.583333 -97.083333 173.583333 -96.25 173.333333 -95.25 C 173.166667 -95.083333 173.083333 -94.916667 173.083333 -94.75 L 173.083333 -93.083333 C 174.083333 -93.083333 174.666667 -92.166667 175.666667 -92.25 C 177.166667 -92.083333 178.5 -93.583333 178.25 -95.083333 C 178 -96.25 176.916667 -97.083333 175.75 -97.083333 Z M 180.583333 -95 C 179.166667 -95 177.916667 -93.416667 178.333333 -92 C 178.5 -91.083333 179.25 -90.333333 180.083333 -90.083333 C 181 -89.666667 181.416667 -88.75 181.666667 -87.833333 C 181.75 -87.666667 181.75 -87.166667 181.833333 -86.833333 L 182.916667 -86.833333 C 182.833333 -87.166667 182.75 -87.583333 182.666667 -87.833333 C 182.416667 -88.75 182.083333 -89.666667 182.416667 -90.5 C 182.833333 -91.25 183.333333 -92.083333 183.083333 -93 C 182.916667 -94.083333 181.833333 -95 180.75 -95 C 180.666667 -95 180.666667 -95 180.583333 -95 Z M 180.583333 -95 " transform="matrix(0.046875,0,0,0.046875,0,10.078125)"/>
<path style=" stroke:none;fill-rule:nonzero;fill:rgb(93.333334%,93.333334%,93.333334%);fill-opacity:1;" d="M 6.695312 1.179688 C 6.984375 2.195312 6.988281 3.328125 6.390625 4.203125 C 5.21875 5.726562 5.84375 8.203125 7.625 8.949219 C 9.28125 9.769531 11.460938 8.71875 11.890625 6.933594 C 12.410156 5.359375 11.367188 3.515625 9.863281 3.050781 C 8.996094 2.742188 8.339844 2.015625 7.988281 1.179688 Z M 15.070312 6.558594 C 13.246094 6.5625 11.683594 8.390625 12.0625 10.203125 C 12.335938 12.121094 14.605469 13.335938 16.367188 12.554688 C 17.472656 12.179688 18.035156 11.089844 18.414062 10.125 C 18.902344 9.28125 19.851562 8.777344 20.835938 8.691406 L 20.835938 7.292969 C 20.335938 7.371094 19.808594 7.515625 19.511719 7.558594 C 18.375 7.855469 17.292969 7.351562 16.371094 6.796875 C 16.003906 6.640625 15.601562 6.5625 15.203125 6.558594 C 15.175781 6.558594 15.144531 6.558594 15.113281 6.558594 C 15.101562 6.558594 15.085938 6.558594 15.070312 6.558594 Z M 6.125 10.117188 C 4.730469 10.101562 3.453125 11.191406 3.105469 12.460938 C 3.054688 12.515625 3.015625 12.574219 2.976562 12.628906 L 2.976562 15.28125 C 4.101562 15.371094 4.890625 16.359375 6.066406 16.34375 C 7.980469 16.492188 9.6875 14.589844 9.300781 12.703125 C 9.0625 11.230469 7.675781 10.101562 6.191406 10.117188 Z M 12.394531 12.808594 C 12.382812 12.808594 12.371094 12.808594 12.359375 12.8125 L 12.359375 12.808594 C 10.476562 12.824219 8.960938 14.8125 9.417969 16.644531 C 9.621094 17.800781 10.625 18.738281 11.660156 19.054688 C 12.832031 19.535156 13.40625 20.714844 13.703125 21.863281 C 13.816406 22.113281 13.839844 22.585938 13.90625 23.007812 L 15.214844 23.007812 C 15.167969 22.609375 15.042969 22.167969 14.988281 21.902344 C 14.660156 20.792969 14.195312 19.628906 14.664062 18.476562 C 15.140625 17.535156 15.8125 16.527344 15.515625 15.375 C 15.269531 13.941406 13.957031 12.808594 12.496094 12.8125 C 12.464844 12.8125 12.429688 12.808594 12.394531 12.808594 Z M 12.394531 12.808594 "/>
</g>
</svg>
