
<svg xmlns="http://www.w3.org/2000/svg" xmlns:xlink="http://www.w3.org/1999/xlink" width="24px" height="24px" viewBox="0 0 24 24" version="1.1">
<g id="surface1">
<path style=" stroke:none;fill-rule:nonzero;fill:rgb(93.725491%,32.549021%,31.37255%);fill-opacity:1;" d="M 6.125 1.9375 C 3.296875 1.9375 1.015625 4.144531 0.992188 6.898438 C 0.992188 6.90625 0.992188 6.910156 0.992188 6.917969 C 0.992188 6.925781 0.992188 6.929688 0.992188 6.9375 L 0.992188 7.355469 C 0.992188 8.230469 1.222656 9.054688 1.628906 9.773438 C 2.402344 11.652344 3.765625 13.289062 5.261719 14.777344 C 5.304688 15.652344 4.871094 16.328125 4.960938 17.859375 C 4.960938 18.578125 5.402344 19.15625 5.953125 19.15625 C 6.503906 19.15625 7.191406 18.832031 6.945312 17.859375 C 6.945312 17.859375 6.738281 16.777344 6.65625 16.097656 C 8.894531 18.152344 11.121094 20.492188 11.90625 22.324219 C 13.394531 18.851562 20.347656 14.824219 22.292969 9.570312 C 22.632812 8.902344 22.820312 8.152344 22.820312 7.355469 L 22.820312 6.9375 C 22.820312 6.929688 22.820312 6.925781 22.820312 6.917969 C 22.820312 6.910156 22.820312 6.90625 22.820312 6.898438 C 22.796875 4.144531 20.515625 1.9375 17.6875 1.9375 L 17.535156 1.9375 C 14.707031 1.9375 12.425781 4.144531 12.402344 6.898438 C 12.402344 7.765625 12.03125 8.882812 11.90625 9.378906 C 11.78125 8.882812 11.488281 7.679688 11.410156 6.898438 C 11.386719 4.144531 9.105469 1.9375 6.277344 1.9375 Z M 6.125 1.9375 "/>
<path style=" stroke:none;fill-rule:nonzero;fill:rgb(87.843138%,87.843138%,87.843138%);fill-opacity:1;" d="M 11.878906 3.921875 C 11.859375 3.921875 11.835938 3.921875 11.816406 3.921875 C 8.695312 3.957031 6.191406 6.480469 6.191406 9.609375 C 6.191406 9.625 6.191406 9.636719 6.191406 9.648438 C 5.6875 10.160156 5.378906 10.863281 5.378906 11.640625 C 5.378906 13.019531 6.34375 14.160156 7.636719 14.425781 C 8.628906 14.894531 8.742188 16.152344 9.238281 17.269531 C 9.683594 18.273438 11.066406 18.550781 11.878906 18.550781 C 12.691406 18.550781 14.074219 18.273438 14.523438 17.269531 C 15.019531 16.152344 15.132812 14.894531 16.121094 14.425781 C 17.414062 14.160156 18.382812 13.019531 18.382812 11.640625 C 18.382812 10.863281 18.074219 10.160156 17.570312 9.648438 C 17.570312 9.636719 17.570312 9.625 17.570312 9.609375 C 17.570312 6.480469 15.066406 3.957031 11.941406 3.921875 C 11.921875 3.921875 11.902344 3.921875 11.878906 3.921875 Z M 11.878906 3.921875 "/>
<path style=" stroke:none;fill-rule:nonzero;fill:rgb(96.078432%,96.078432%,96.078432%);fill-opacity:1;" d="M 11.097656 7.96875 C 11.679688 7.632812 11.972656 7.046875 11.746094 6.65625 C 11.523438 6.269531 10.867188 6.226562 10.285156 6.5625 C 9.703125 6.898438 9.410156 7.488281 9.636719 7.875 C 9.859375 8.265625 10.515625 8.308594 11.097656 7.96875 Z M 11.097656 7.96875 "/>
<path style=" stroke:none;fill-rule:nonzero;fill:rgb(96.078432%,96.078432%,96.078432%);fill-opacity:1;" d="M 12.714844 6.5625 C 12.132812 6.898438 11.839844 7.488281 12.066406 7.875 C 12.289062 8.265625 12.945312 8.308594 13.527344 7.96875 C 14.109375 7.632812 14.402344 7.046875 14.175781 6.65625 C 13.953125 6.269531 13.296875 6.226562 12.714844 6.5625 Z M 12.714844 6.5625 "/>
<path style=" stroke:none;fill-rule:nonzero;fill:rgb(96.078432%,96.078432%,96.078432%);fill-opacity:1;" d="M 11.746094 6.75 C 11.535156 6.984375 11.429688 7.390625 11.511719 7.660156 C 11.59375 7.925781 11.828125 7.957031 12.042969 7.722656 C 12.253906 7.492188 12.359375 7.085938 12.277344 6.816406 C 12.195312 6.546875 11.957031 6.519531 11.746094 6.75 Z M 11.746094 6.75 "/>
<path style=" stroke:none;fill-rule:nonzero;fill:rgb(74.117649%,74.117649%,74.117649%);fill-opacity:1;" d="M 14.132812 14.035156 C 13.4375 14.03125 12.6875 14.117188 11.90625 14.117188 C 10.328125 14.117188 8.886719 13.777344 7.769531 14.496094 C 8.191406 14.746094 8.4375 15.152344 8.632812 15.625 C 10.875 15.890625 13.078125 16.019531 15.128906 15.625 C 15.328125 15.140625 15.582031 14.726562 16.019531 14.480469 C 15.460938 14.125 14.824219 14.035156 14.132812 14.035156 Z M 14.132812 14.035156 "/>
<path style=" stroke:none;fill-rule:nonzero;fill:rgb(74.117649%,74.117649%,74.117649%);fill-opacity:1;" d="M 11.90625 17.832031 C 10.789062 17.832031 9.808594 16.992188 9.230469 17.257812 C 9.234375 17.261719 9.234375 17.265625 9.238281 17.269531 C 9.683594 18.273438 11.066406 18.550781 11.878906 18.550781 C 12.691406 18.550781 14.074219 18.273438 14.523438 17.269531 C 14.527344 17.257812 14.53125 17.246094 14.535156 17.234375 C 13.953125 16.984375 12.996094 17.832031 11.90625 17.832031 Z M 11.90625 17.832031 "/>
<path style=" stroke:none;fill-rule:nonzero;fill:rgb(25.882354%,25.882354%,25.882354%);fill-opacity:1;" d="M 11.882812 14.632812 L 11.929688 14.632812 C 12.054688 14.632812 12.15625 15.078125 12.15625 15.625 C 12.15625 16.175781 12.054688 16.621094 11.929688 16.621094 L 11.882812 16.621094 C 11.757812 16.621094 11.65625 16.175781 11.65625 15.625 C 11.65625 15.078125 11.757812 14.632812 11.882812 14.632812 Z M 11.882812 14.632812 "/>
<path style=" stroke:none;fill-rule:nonzero;fill:rgb(25.882354%,25.882354%,25.882354%);fill-opacity:1;" d="M 10.46875 14.882812 L 10.503906 14.882812 C 10.597656 14.882812 10.828125 15.214844 10.828125 15.625 C 10.828125 16.039062 10.597656 16.371094 10.503906 16.371094 L 10.46875 16.371094 C 10.375 16.371094 10.457031 16.039062 10.457031 15.625 C 10.457031 15.214844 10.375 14.882812 10.46875 14.882812 Z M 10.46875 14.882812 "/>
<path style=" stroke:none;fill-rule:nonzero;fill:rgb(25.882354%,25.882354%,25.882354%);fill-opacity:1;" d="M 9.238281 14.882812 L 9.269531 14.882812 C 9.363281 14.882812 9.628906 15.214844 9.628906 15.625 C 9.628906 16.039062 9.363281 16.371094 9.269531 16.371094 L 9.238281 16.371094 C 9.144531 16.371094 9.257812 16.039062 9.257812 15.625 C 9.257812 15.214844 9.144531 14.882812 9.238281 14.882812 Z M 9.238281 14.882812 "/>
<path style=" stroke:none;fill-rule:nonzero;fill:rgb(25.882354%,25.882354%,25.882354%);fill-opacity:1;" d="M 14.582031 14.882812 L 14.617188 14.882812 C 14.710938 14.882812 14.578125 15.214844 14.578125 15.625 C 14.578125 16.039062 14.710938 16.371094 14.617188 16.371094 L 14.582031 16.371094 C 14.488281 16.371094 14.207031 16.039062 14.207031 15.625 C 14.207031 15.214844 14.488281 14.882812 14.582031 14.882812 Z M 14.582031 14.882812 "/>
<path style=" stroke:none;fill-rule:nonzero;fill:rgb(25.882354%,25.882354%,25.882354%);fill-opacity:1;" d="M 13.347656 14.882812 L 13.378906 14.882812 C 13.472656 14.882812 13.359375 15.214844 13.359375 15.625 C 13.359375 16.039062 13.472656 16.371094 13.378906 16.371094 L 13.347656 16.371094 C 13.253906 16.371094 12.988281 16.039062 12.988281 15.625 C 12.988281 15.214844 13.253906 14.882812 13.347656 14.882812 Z M 13.347656 14.882812 "/>
<path style=" stroke:none;fill-rule:nonzero;fill:rgb(25.882354%,25.882354%,25.882354%);fill-opacity:1;" d="M 9.28125 9.234375 C 8.566406 8.824219 7.660156 9.066406 7.25 9.78125 C 6.835938 10.496094 7.078125 11.402344 7.792969 11.8125 C 8.652344 12.308594 10.066406 12.839844 11.117188 12.011719 C 12.164062 11.1875 10.355469 9.855469 9.28125 9.234375 Z M 9.28125 9.234375 "/>
<path style=" stroke:none;fill-rule:nonzero;fill:rgb(25.882354%,25.882354%,25.882354%);fill-opacity:1;" d="M 14.386719 9.234375 C 15.101562 8.824219 16.007812 9.066406 16.417969 9.78125 C 16.832031 10.496094 16.589844 11.402344 15.875 11.8125 C 15.015625 12.308594 13.601562 12.839844 12.554688 12.011719 C 11.503906 11.1875 13.3125 9.855469 14.386719 9.234375 Z M 14.386719 9.234375 "/>
<path style=" stroke:none;fill-rule:nonzero;fill:rgb(25.882354%,25.882354%,25.882354%);fill-opacity:1;" d="M 8.914062 15.46875 C 8.789062 15.46875 8.695312 15.472656 8.632812 15.484375 C 10.125 15.964844 11.125 16.136719 11.90625 16.140625 C 12.6875 16.136719 13.6875 15.964844 15.179688 15.484375 C 15.117188 15.472656 15.023438 15.46875 14.898438 15.46875 C 14.320312 15.46875 13.125 15.566406 11.90625 15.636719 C 10.6875 15.566406 9.492188 15.46875 8.914062 15.46875 Z M 8.914062 15.46875 "/>
</g>
</svg>
