<?xml version="1.0" encoding="UTF-8"?>
<svg xmlns="http://www.w3.org/2000/svg" xmlns:xlink="http://www.w3.org/1999/xlink" width="24px" height="24px" viewBox="0 0 24 24" version="1.1">
<g id="surface1">
<path style=" stroke:none;fill-rule:nonzero;fill:rgb(12.941177%,58.823532%,95.294118%);fill-opacity:1;" d="M 16.371094 10.109375 C 19.933594 10.109375 22.820312 12.996094 22.820312 16.558594 C 22.820312 20.121094 19.933594 23.007812 16.371094 23.007812 C 12.808594 23.007812 9.921875 20.121094 9.921875 16.558594 C 9.921875 12.996094 12.808594 10.109375 16.371094 10.109375 Z M 16.371094 10.109375 "/>
<path style=" stroke:none;fill-rule:nonzero;fill:rgb(12.941177%,58.823532%,95.294118%);fill-opacity:1;" d="M 7.441406 1.179688 C 11.003906 1.179688 13.890625 4.066406 13.890625 7.628906 C 13.890625 11.191406 11.003906 14.078125 7.441406 14.078125 C 3.878906 14.078125 0.992188 11.191406 0.992188 7.628906 C 0.992188 4.066406 3.878906 1.179688 7.441406 1.179688 Z M 7.441406 1.179688 "/>
<path style=" stroke:none;fill-rule:nonzero;fill:rgb(25.882354%,64.705884%,96.078432%);fill-opacity:1;" d="M 11.90625 2.171875 C 17.386719 2.171875 21.828125 6.613281 21.828125 12.09375 C 21.828125 17.574219 17.386719 22.015625 11.90625 22.015625 C 6.425781 22.015625 1.984375 17.574219 1.984375 12.09375 C 1.984375 6.613281 6.425781 2.171875 11.90625 2.171875 Z M 11.90625 2.171875 "/>
<path style=" stroke:none;fill-rule:nonzero;fill:rgb(96.078432%,96.078432%,96.078432%);fill-opacity:1;" d="M 11.910156 5.148438 C 10.753906 5.128906 9.652344 5.417969 8.804688 6.097656 C 7.957031 6.78125 7.4375 7.875 7.4375 9.117188 C 7.4375 10.441406 8.214844 11.453125 9.074219 12 C 9.933594 12.546875 10.875 12.796875 11.585938 13.035156 C 12.363281 13.292969 13.160156 13.539062 13.664062 13.859375 C 14.167969 14.183594 14.382812 14.410156 14.382812 15.070312 C 14.382812 15.816406 14.15625 16.214844 13.761719 16.527344 C 13.367188 16.84375 12.726562 17.054688 11.902344 17.054688 C 11.074219 17.054688 10.398438 16.839844 9.988281 16.550781 C 9.582031 16.265625 9.421875 15.980469 9.421875 15.566406 C 9.425781 15.207031 9.238281 14.875 8.929688 14.695312 C 8.621094 14.515625 8.238281 14.515625 7.929688 14.695312 C 7.621094 14.875 7.429688 15.207031 7.4375 15.566406 C 7.4375 16.640625 8.019531 17.59375 8.851562 18.175781 C 9.683594 18.757812 10.742188 19.039062 11.902344 19.039062 C 13.058594 19.039062 14.15625 18.753906 15 18.078125 C 15.847656 17.398438 16.367188 16.308594 16.367188 15.070312 C 16.367188 13.746094 15.589844 12.734375 14.730469 12.1875 C 13.867188 11.640625 12.929688 11.390625 12.214844 11.152344 C 11.441406 10.894531 10.644531 10.648438 10.140625 10.328125 C 9.632812 10.003906 9.421875 9.777344 9.421875 9.117188 C 9.421875 8.375 9.652344 7.960938 10.050781 7.644531 C 10.445312 7.324219 11.078125 7.117188 11.882812 7.132812 C 11.890625 7.132812 11.894531 7.132812 11.902344 7.132812 C 12.726562 7.132812 13.402344 7.347656 13.8125 7.632812 C 14.222656 7.921875 14.382812 8.207031 14.382812 8.621094 C 14.378906 8.976562 14.566406 9.3125 14.875 9.492188 C 15.183594 9.671875 15.566406 9.671875 15.875 9.492188 C 16.183594 9.3125 16.371094 8.976562 16.367188 8.621094 C 16.367188 7.546875 15.78125 6.589844 14.949219 6.007812 C 14.121094 5.429688 13.066406 5.148438 11.910156 5.148438 Z M 11.910156 5.148438 "/>
</g>
</svg>
