<?xml version="1.0" encoding="UTF-8"?>
<svg xmlns="http://www.w3.org/2000/svg" xmlns:xlink="http://www.w3.org/1999/xlink" width="24px" height="24px" viewBox="0 0 24 24" version="1.1">
<g id="surface1">
<path style=" stroke:none;fill-rule:nonzero;fill:rgb(100%,43.921569%,26.274511%);fill-opacity:1;" d="M 11.90625 1.179688 C 17.933594 1.179688 22.820312 6.066406 22.820312 12.09375 C 22.820312 18.121094 17.933594 23.007812 11.90625 23.007812 C 5.878906 23.007812 0.992188 18.121094 0.992188 12.09375 C 0.992188 6.066406 5.878906 1.179688 11.90625 1.179688 Z M 11.90625 1.179688 "/>
<path style=" stroke:none;fill-rule:nonzero;fill:rgb(25.882354%,25.882354%,25.882354%);fill-opacity:1;" d="M 2.234375 4.402344 L 4.714844 2.171875 L 9.425781 7.628906 L 7.191406 8.621094 Z M 2.234375 4.402344 "/>
<path style=" stroke:none;fill-rule:nonzero;fill:rgb(25.882354%,25.882354%,25.882354%);fill-opacity:1;" d="M 0.992188 6.140625 L 4.960938 9.117188 L 4.960938 12.09375 L 6.945312 12.589844 L 6.695312 14.820312 L 2.480469 11.84375 Z M 0.992188 6.140625 "/>
<path style=" stroke:none;fill-rule:nonzero;fill:rgb(25.882354%,25.882354%,25.882354%);fill-opacity:1;" d="M 0.992188 12.09375 L 6.945312 16.558594 L 5.703125 20.527344 L 0.992188 17.054688 Z M 0.992188 12.09375 "/>
<path style=" stroke:none;fill-rule:nonzero;fill:rgb(25.882354%,25.882354%,25.882354%);fill-opacity:1;" d="M 12.898438 15.320312 L 10.167969 22.761719 L 7.441406 21.023438 L 7.9375 13.832031 Z M 12.898438 15.320312 "/>
<path style=" stroke:none;fill-rule:nonzero;fill:rgb(25.882354%,25.882354%,25.882354%);fill-opacity:1;" d="M 13.890625 16.558594 L 15.875 22.511719 L 13.890625 23.007812 L 11.410156 22.511719 Z M 13.890625 16.558594 "/>
<path style=" stroke:none;fill-rule:nonzero;fill:rgb(25.882354%,25.882354%,25.882354%);fill-opacity:1;" d="M 14.386719 13.582031 L 15.132812 8.621094 L 11.90625 7.132812 L 6.449219 10.605469 Z M 14.386719 13.582031 "/>
<path style=" stroke:none;fill-rule:nonzero;fill:rgb(25.882354%,25.882354%,25.882354%);fill-opacity:1;" d="M 17.859375 8.867188 L 16.371094 6.636719 L 10.914062 2.667969 L 11.90625 5.644531 Z M 17.859375 8.867188 "/>
<path style=" stroke:none;fill-rule:nonzero;fill:rgb(25.882354%,25.882354%,25.882354%);fill-opacity:1;" d="M 11.410156 5.644531 L 8.929688 1.179688 L 7.441406 1.675781 L 9.921875 7.132812 Z M 11.410156 5.644531 "/>
<path style=" stroke:none;fill-rule:nonzero;fill:rgb(25.882354%,25.882354%,25.882354%);fill-opacity:1;" d="M 22.820312 17.054688 L 21.332031 12.589844 L 16.867188 10.109375 L 15.378906 14.820312 Z M 22.820312 17.054688 "/>
<path style=" stroke:none;fill-rule:nonzero;fill:rgb(25.882354%,25.882354%,25.882354%);fill-opacity:1;" d="M 21.828125 17.550781 L 20.339844 21.519531 L 16.371094 20.28125 L 14.386719 15.566406 Z M 21.828125 17.550781 "/>
<path style=" stroke:none;fill-rule:nonzero;fill:rgb(25.882354%,25.882354%,25.882354%);fill-opacity:1;" d="M 22.820312 13.085938 L 22.820312 8.125 L 17.363281 4.652344 L 18.601562 9.117188 Z M 22.820312 13.085938 "/>
<path style=" stroke:none;fill-rule:nonzero;fill:rgb(25.882354%,25.882354%,25.882354%);fill-opacity:1;" d="M 15.875 4.15625 L 17.859375 2.667969 L 16.867188 1.179688 L 10.914062 1.179688 Z M 15.875 4.15625 "/>
<path style=" stroke:none;fill-rule:nonzero;fill:rgb(25.882354%,25.882354%,25.882354%);fill-opacity:1;" d="M 21.828125 4.15625 L 22.324219 6.636719 L 18.601562 4.402344 L 19.84375 1.675781 Z M 21.828125 4.15625 "/>
<path style=" stroke:none;fill-rule:nonzero;fill:rgb(93.333334%,93.333334%,93.333334%);fill-opacity:1;" d="M 2.976562 7.925781 L 2.976562 11.863281 L 6.417969 11.863281 L 6.738281 12.886719 L 2.976562 12.886719 L 1.488281 14.34375 L 9.175781 14.34375 L 7.6875 10.40625 L 4.464844 10.40625 L 4.464844 9.382812 L 9.175781 9.382812 L 9.175781 7.925781 Z M 9.175781 14.34375 L 13.640625 14.34375 L 13.640625 9.660156 L 9.175781 9.660156 Z M 20.171875 7.925781 L 18.105469 12.429688 L 16.0625 7.972656 L 13.890625 14.375 L 15.378906 14.34375 L 16.183594 11.695312 L 18.105469 16.261719 L 20.011719 11.742188 L 20.875 14.332031 L 22.324219 14.34375 Z M 10.664062 11.121094 L 12.152344 11.121094 L 12.152344 12.855469 L 10.664062 12.855469 Z M 10.664062 11.121094 "/>
</g>
</svg>
