<?xml version="1.0" encoding="UTF-8"?>
<svg xmlns="http://www.w3.org/2000/svg" xmlns:xlink="http://www.w3.org/1999/xlink" width="24px" height="24px" viewBox="0 0 24 24" version="1.1">
<g id="surface1">
<path style=" stroke:none;fill-rule:nonzero;fill:rgb(25.882354%,25.882354%,25.882354%);fill-opacity:1;" d="M 11.90625 1.179688 C 17.933594 1.179688 22.820312 6.066406 22.820312 12.09375 C 22.820312 18.121094 17.933594 23.007812 11.90625 23.007812 C 5.878906 23.007812 0.992188 18.121094 0.992188 12.09375 C 0.992188 6.066406 5.878906 1.179688 11.90625 1.179688 Z M 11.90625 1.179688 "/>
<path style=" stroke:none;fill-rule:nonzero;fill:rgb(96.078432%,96.078432%,96.078432%);fill-opacity:1;" d="M 11.90625 8.125 C 10.53125 8.125 9.425781 9.230469 9.425781 10.605469 L 9.425781 12.589844 L 8.929688 12.589844 C 8.65625 12.589844 8.433594 12.8125 8.433594 13.085938 L 8.433594 15.566406 C 8.433594 15.839844 8.65625 16.0625 8.929688 16.0625 L 14.882812 16.0625 C 15.15625 16.0625 15.378906 15.839844 15.378906 15.566406 L 15.378906 13.085938 C 15.378906 12.8125 15.15625 12.589844 14.882812 12.589844 L 14.386719 12.589844 L 14.386719 10.605469 C 14.386719 9.230469 13.28125 8.125 11.90625 8.125 Z M 11.90625 9.117188 C 12.730469 9.117188 13.394531 9.78125 13.394531 10.605469 L 13.394531 12.589844 L 10.417969 12.589844 L 10.417969 10.605469 C 10.417969 9.78125 11.082031 9.117188 11.90625 9.117188 Z M 11.90625 9.117188 "/>
</g>
</svg>
