<?xml version="1.0" encoding="UTF-8"?>
<svg xmlns="http://www.w3.org/2000/svg" xmlns:xlink="http://www.w3.org/1999/xlink" width="24" height="24" viewBox="0 0 24 24" version="1.1">
<defs>
<radialGradient id="radial0" gradientUnits="userSpaceOnUse" cx="254" cy="-29.972973" fx="254" fy="-29.972973" r="211.666672" gradientTransform="matrix(0.046875,0,0,0.0433594,0,10.041797)">
<stop offset="0" style="stop-color:rgb(61.176473%,80.000001%,39.607844%);stop-opacity:0.2;"/>
<stop offset="0.5" style="stop-color:rgb(61.176473%,80.000001%,39.607844%);stop-opacity:0.0784314;"/>
<stop offset="1" style="stop-color:rgb(61.176473%,80.000001%,39.607844%);stop-opacity:0;"/>
</radialGradient>
</defs>
<g id="surface1">
<path style=" stroke:none;fill-rule:nonzero;fill:rgb(87.843138%,87.843138%,87.843138%);fill-opacity:1;" d="M 1.984375 1.984375 L 21.828125 1.984375 C 22.375 1.984375 22.820312 2.429688 22.820312 2.976562 L 22.820312 20.835938 C 22.820312 21.382812 22.375 21.828125 21.828125 21.828125 L 1.984375 21.828125 C 1.4375 21.828125 0.992188 21.382812 0.992188 20.835938 L 0.992188 2.976562 C 0.992188 2.429688 1.4375 1.984375 1.984375 1.984375 Z M 1.984375 1.984375 "/>
<path style=" stroke:none;fill-rule:nonzero;fill:rgb(61.960787%,61.960787%,61.960787%);fill-opacity:1;" d="M 1.984375 1.984375 C 1.710938 1.984375 1.460938 2.09375 1.28125 2.273438 L 4.464844 5.457031 L 19.84375 5.457031 L 22.601562 2.355469 C 22.421875 2.128906 22.140625 1.984375 21.828125 1.984375 Z M 1.984375 1.984375 "/>
<path style=" stroke:none;fill-rule:nonzero;fill:rgb(93.333334%,93.333334%,93.333334%);fill-opacity:1;" d="M 1.984375 21.828125 C 1.710938 21.828125 1.460938 21.71875 1.28125 21.539062 L 4.464844 18.355469 L 19.84375 18.355469 L 22.601562 21.457031 C 22.421875 21.683594 22.140625 21.828125 21.828125 21.828125 Z M 1.984375 21.828125 "/>
<path style=" stroke:none;fill-rule:nonzero;fill:rgb(25.882354%,25.882354%,25.882354%);fill-opacity:1;" d="M 20.296875 4.449219 C 21.128906 5.1875 21.128906 18.625 20.296875 19.363281 C 19.464844 20.101562 4.347656 20.101562 3.515625 19.363281 C 2.683594 18.625 2.683594 5.1875 3.515625 4.449219 C 4.347656 3.710938 19.464844 3.710938 20.296875 4.449219 Z M 20.296875 4.449219 "/>
<path style=" stroke:none;fill-rule:nonzero;fill:url(#radial0);" d="M 1.984375 2.730469 L 1.984375 3.226562 L 21.828125 3.226562 L 21.828125 2.730469 Z M 1.984375 4.21875 L 1.984375 4.714844 L 21.828125 4.714844 L 21.828125 4.21875 Z M 1.984375 5.707031 L 1.984375 6.203125 L 21.828125 6.203125 L 21.828125 5.707031 Z M 1.984375 7.195312 L 1.984375 7.691406 L 21.828125 7.691406 L 21.828125 7.195312 Z M 1.984375 8.683594 L 1.984375 9.179688 L 21.828125 9.179688 L 21.828125 8.683594 Z M 1.984375 10.171875 L 1.984375 10.667969 L 21.828125 10.667969 L 21.828125 10.171875 Z M 1.984375 11.660156 L 1.984375 12.15625 L 21.828125 12.15625 L 21.828125 11.660156 Z M 1.984375 13.148438 L 1.984375 13.644531 L 21.828125 13.644531 L 21.828125 13.148438 Z M 1.984375 14.636719 L 1.984375 15.132812 L 21.828125 15.132812 L 21.828125 14.636719 Z M 1.984375 16.125 L 1.984375 16.621094 L 21.828125 16.621094 L 21.828125 16.125 Z M 1.984375 17.613281 L 1.984375 18.109375 L 21.828125 18.109375 L 21.828125 17.613281 Z M 1.984375 19.101562 L 1.984375 19.597656 L 21.828125 19.597656 L 21.828125 19.101562 Z M 1.984375 20.589844 L 1.984375 21.085938 L 21.828125 21.085938 L 21.828125 20.589844 Z M 1.984375 20.589844 "/>
</g>
</svg>
