
<svg xmlns="http://www.w3.org/2000/svg" xmlns:xlink="http://www.w3.org/1999/xlink" width="24px" height="24px" viewBox="0 0 24 24" version="1.1">
<g id="surface1">
<path style=" stroke:none;fill-rule:nonzero;fill:rgb(87.843138%,87.843138%,87.843138%);fill-opacity:1;" d="M 11.90625 0.992188 C 6.035156 0.992188 2.089844 4.492188 1.621094 9.644531 C 1.28125 13.589844 2.46875 13.277344 2.253906 14.757812 C 2.058594 16.238281 1.261719 17.753906 2.277344 19.402344 C 4.050781 21.894531 8.480469 22.628906 11.90625 22.820312 C 15.332031 22.628906 19.761719 21.894531 21.535156 19.402344 C 22.550781 17.753906 21.753906 16.238281 21.558594 14.757812 C 21.34375 13.277344 22.53125 13.589844 22.191406 9.644531 C 21.722656 4.492188 17.777344 0.992188 11.90625 0.992188 Z M 11.90625 0.992188 "/>
<path style=" stroke:none;fill-rule:nonzero;fill:rgb(74.117649%,74.117649%,74.117649%);fill-opacity:1;" d="M 18.894531 3.234375 C 19.304688 3.988281 19.660156 4.804688 19.730469 5.457031 C 19.917969 7.148438 20.167969 7.957031 18.640625 8.769531 C 17.113281 9.578125 15.109375 10.324219 14.585938 11.199219 C 14.066406 12.078125 13.511719 13.488281 14.71875 14.183594 C 15.925781 14.878906 17.402344 14.183594 17.402344 14.183594 C 17.402344 14.183594 21.851562 16.324219 19.359375 19.839844 C 18.71875 20.738281 18.214844 21.375 17.828125 21.820312 C 19.382812 21.300781 20.730469 20.53125 21.535156 19.402344 C 22.550781 17.753906 21.753906 16.238281 21.558594 14.757812 C 21.34375 13.277344 22.53125 13.589844 22.191406 9.644531 C 21.949219 6.980469 20.777344 4.761719 18.894531 3.234375 Z M 18.894531 3.234375 "/>
<path style=" stroke:none;fill-rule:nonzero;fill:rgb(25.882354%,25.882354%,25.882354%);fill-opacity:1;" d="M 11.90625 13.183594 C 10.992188 13.417969 10.855469 14.601562 10.761719 15.789062 C 10.726562 16.207031 10.929688 16.371094 11.292969 16.367188 L 11.90625 16.355469 L 12.519531 16.367188 C 12.882812 16.371094 13.085938 16.207031 13.050781 15.789062 C 12.957031 14.601562 12.820312 13.417969 11.90625 13.183594 Z M 11.90625 13.183594 "/>
<path style=" stroke:none;fill-rule:nonzero;fill:rgb(25.882354%,25.882354%,25.882354%);fill-opacity:1;" d="M 14.625 14.339844 C 11.695312 8.78125 22.820312 8.4375 19.925781 14.261719 C 19.320312 15.335938 15.003906 15.097656 14.625 14.339844 Z M 14.625 14.339844 "/>
<path style=" stroke:none;fill-rule:nonzero;fill:rgb(96.078432%,96.078432%,96.078432%);fill-opacity:1;" d="M 16.300781 10.796875 C 16.796875 10.796875 17.203125 11.199219 17.203125 11.699219 L 17.203125 11.917969 C 17.203125 12.414062 16.796875 12.816406 16.300781 12.816406 C 15.804688 12.816406 15.402344 12.414062 15.402344 11.917969 L 15.402344 11.699219 C 15.402344 11.199219 15.804688 10.796875 16.300781 10.796875 Z M 16.300781 10.796875 "/>
<path style=" stroke:none;fill-rule:nonzero;fill:rgb(25.882354%,25.882354%,25.882354%);fill-opacity:1;" d="M 8.847656 14.339844 C 11.777344 8.78125 0.652344 8.4375 3.542969 14.261719 C 4.152344 15.335938 8.46875 15.097656 8.847656 14.339844 Z M 8.847656 14.339844 "/>
<path style=" stroke:none;fill-rule:nonzero;fill:rgb(96.078432%,96.078432%,96.078432%);fill-opacity:1;" d="M 7.324219 10.886719 C 6.816406 10.886719 6.402344 11.296875 6.402344 11.804688 L 6.402344 12.03125 C 6.402344 12.539062 6.816406 12.953125 7.324219 12.953125 C 7.832031 12.953125 8.242188 12.539062 8.242188 12.03125 L 8.242188 11.804688 C 8.242188 11.296875 7.832031 10.886719 7.324219 10.886719 Z M 7.324219 10.886719 "/>
<path style=" stroke:none;fill-rule:nonzero;fill:rgb(61.960787%,61.960787%,61.960787%);fill-opacity:1;" d="M 6.019531 16.21875 C 5.78125 16.21875 5.554688 16.246094 5.335938 16.304688 C 2.53125 17.371094 5.207031 19.367188 6.808594 20.042969 C 8.632812 20.835938 10.265625 21.019531 11.90625 21.042969 C 13.546875 21.019531 15.179688 20.835938 17.003906 20.042969 C 18.605469 19.367188 21.28125 17.371094 18.476562 16.304688 C 16.472656 15.777344 13.691406 17.894531 11.90625 17.972656 C 10.316406 17.902344 7.9375 16.214844 6.019531 16.21875 Z M 6.019531 16.21875 "/>
<path style=" stroke:none;fill-rule:nonzero;fill:rgb(93.333334%,93.333334%,93.333334%);fill-opacity:1;" d="M 6.675781 16.488281 C 6.464844 16.488281 6.261719 16.511719 6.070312 16.5625 C 3.578125 17.511719 5.953125 19.285156 7.378906 19.886719 C 9 20.589844 10.449219 20.753906 11.90625 20.773438 C 13.363281 20.753906 14.8125 20.589844 16.433594 19.886719 C 17.859375 19.285156 20.234375 17.511719 17.742188 16.5625 C 15.964844 16.09375 13.492188 17.976562 11.90625 18.046875 C 10.496094 17.984375 8.378906 16.484375 6.675781 16.488281 Z M 6.675781 16.488281 "/>
<path style=" stroke:none;fill-rule:nonzero;fill:rgb(45.882353%,45.882353%,45.882353%);fill-opacity:1;" d="M 17.363281 16.5 C 17.394531 16.675781 17.457031 17.039062 17.574219 17.640625 C 17.664062 18.097656 17.652344 18.71875 17.617188 19.226562 C 17.667969 19.191406 17.714844 19.15625 17.761719 19.121094 C 17.800781 18.824219 17.820312 18.484375 17.800781 18.132812 C 17.769531 17.550781 17.507812 16.804688 17.394531 16.5 C 17.382812 16.5 17.375 16.5 17.363281 16.5 Z M 6.074219 16.5625 C 6.074219 16.5625 6.070312 16.5625 6.070312 16.5625 C 6.046875 16.574219 6.023438 16.582031 6 16.589844 C 5.875 16.953125 5.691406 17.546875 5.664062 18.03125 C 5.648438 18.304688 5.65625 18.574219 5.679688 18.820312 C 5.730469 18.867188 5.78125 18.910156 5.835938 18.957031 C 5.8125 18.484375 5.808594 17.945312 5.890625 17.539062 C 5.980469 17.089844 6.039062 16.769531 6.074219 16.5625 Z M 7.753906 16.648438 C 7.660156 16.890625 7.359375 17.710938 7.324219 18.34375 C 7.289062 18.964844 7.382812 19.550781 7.46875 19.921875 C 7.496094 19.9375 7.523438 19.949219 7.550781 19.957031 C 7.496094 19.4375 7.425781 18.484375 7.550781 17.851562 C 7.683594 17.179688 7.746094 16.804688 7.773438 16.652344 C 7.765625 16.652344 7.761719 16.648438 7.753906 16.648438 Z M 15.996094 16.664062 C 15.980469 16.667969 15.964844 16.671875 15.953125 16.675781 C 15.984375 16.875 16.046875 17.214844 16.148438 17.734375 C 16.289062 18.445312 16.179688 19.5625 16.128906 20.011719 C 16.148438 20.003906 16.164062 19.996094 16.183594 19.988281 C 16.28125 19.648438 16.417969 18.960938 16.375 18.226562 C 16.34375 17.683594 16.117188 17 15.996094 16.664062 Z M 13.972656 17.425781 C 13.957031 17.429688 13.945312 17.4375 13.929688 17.441406 C 13.964844 17.640625 14.027344 17.980469 14.128906 18.507812 C 14.253906 19.125 14.1875 20.054688 14.132812 20.582031 C 14.160156 20.578125 14.1875 20.570312 14.214844 20.566406 C 14.300781 20.191406 14.390625 19.613281 14.355469 19 C 14.324219 18.449219 14.09375 17.757812 13.972656 17.425781 Z M 9.847656 17.429688 C 9.71875 17.792969 9.542969 18.375 9.515625 18.851562 C 9.472656 19.5625 9.605469 20.234375 9.699219 20.585938 C 9.71875 20.589844 9.738281 20.59375 9.757812 20.59375 C 9.703125 20.121094 9.605469 19.046875 9.742188 18.359375 C 9.820312 17.953125 9.875 17.660156 9.910156 17.457031 C 9.890625 17.445312 9.867188 17.4375 9.847656 17.429688 Z M 11.804688 18.039062 C 11.898438 18.980469 11.90625 19.878906 11.90625 20.773438 C 11.910156 20.773438 11.914062 20.773438 11.917969 20.773438 C 11.953125 20.171875 12.027344 18.882812 11.933594 18.042969 C 11.925781 18.042969 11.914062 18.042969 11.90625 18.046875 C 11.875 18.042969 11.839844 18.042969 11.804688 18.039062 Z M 11.804688 18.039062 "/>
<path style=" stroke:none;fill-rule:nonzero;fill:rgb(96.078432%,96.078432%,96.078432%);fill-opacity:1;" d="M 9.875 2.839844 C 10.464844 3.859375 9.71875 5.394531 8.207031 6.265625 C 6.699219 7.136719 4.996094 7.015625 4.40625 5.996094 C 3.820312 4.976562 4.566406 3.441406 6.074219 2.570312 C 7.585938 1.699219 9.289062 1.820312 9.875 2.839844 Z M 9.875 2.839844 "/>
<path style=" stroke:none;fill-rule:nonzero;fill:rgb(93.725491%,32.549021%,31.37255%);fill-opacity:1;" d="M 16.867188 0.992188 L 16.867188 1.488281 L 16.125 1.488281 L 16.125 2.726562 L 15.625 2.726562 L 15.625 3.96875 L 16.125 3.96875 L 16.125 5.207031 L 16.867188 5.207031 L 16.867188 5.703125 L 17.363281 5.703125 L 17.363281 6.449219 L 17.859375 6.449219 L 17.859375 6.945312 L 18.601562 6.945312 L 18.601562 7.441406 L 19.84375 7.441406 L 19.84375 6.945312 L 20.589844 6.945312 L 20.589844 6.449219 L 21.085938 6.449219 L 21.085938 5.703125 L 21.828125 5.703125 L 21.828125 5.210938 L 22.324219 5.210938 L 22.324219 3.96875 L 22.820312 3.96875 L 22.820312 2.726562 L 22.324219 2.726562 L 22.324219 1.488281 L 21.828125 1.488281 L 21.828125 0.992188 L 20.589844 0.992188 L 20.589844 1.488281 L 19.84375 1.488281 L 19.84375 2.234375 L 19.347656 2.234375 L 19.347656 2.726562 L 19.101562 2.726562 L 19.101562 2.234375 L 18.601562 2.234375 L 18.601562 1.488281 L 18.109375 1.488281 L 18.109375 0.992188 Z M 16.867188 0.992188 "/>
</g>
</svg>
