<?xml version="1.0" encoding="UTF-8"?>
<svg xmlns="http://www.w3.org/2000/svg" xmlns:xlink="http://www.w3.org/1999/xlink" width="24px" height="24px" viewBox="0 0 24 24" version="1.1">
<g id="surface1">
<path style=" stroke:none;fill-rule:nonzero;fill:rgb(25.882354%,64.705884%,96.078432%);fill-opacity:1;" d="M 1.984375 1.179688 L 21.828125 1.179688 C 22.375 1.179688 22.820312 1.625 22.820312 2.171875 L 22.820312 22.015625 C 22.820312 22.5625 22.375 23.007812 21.828125 23.007812 L 1.984375 23.007812 C 1.4375 23.007812 0.992188 22.5625 0.992188 22.015625 L 0.992188 2.171875 C 0.992188 1.625 1.4375 1.179688 1.984375 1.179688 Z M 1.984375 1.179688 "/>
<path style=" stroke:none;fill-rule:nonzero;fill:rgb(96.078432%,96.078432%,96.078432%);fill-opacity:1;" d="M 10.894531 4.777344 L 7.71875 14.082031 L 6.125 10.101562 L 4.234375 10.101562 C 4.210938 10.09375 4.183594 10.09375 4.15625 10.09375 L 3.929688 10.09375 C 3.675781 10.09375 3.476562 10.296875 3.476562 10.546875 L 3.476562 11.453125 C 3.476562 11.707031 3.675781 11.90625 3.929688 11.90625 L 4.15625 11.90625 C 4.183594 11.90625 4.210938 11.90625 4.234375 11.902344 L 4.90625 11.902344 L 7.851562 19.261719 L 11.027344 9.960938 L 13.667969 16.558594 L 15.988281 10.984375 L 17.644531 14.625 L 19.503906 14.625 C 19.53125 14.628906 19.554688 14.628906 19.582031 14.628906 L 19.8125 14.628906 C 20.0625 14.628906 20.265625 14.429688 20.265625 14.175781 L 20.265625 13.269531 C 20.265625 13.019531 20.0625 12.816406 19.8125 12.816406 L 19.582031 12.816406 C 19.554688 12.816406 19.53125 12.816406 19.503906 12.824219 L 18.800781 12.824219 L 15.917969 6.476562 L 13.703125 11.792969 Z M 10.894531 4.777344 "/>
</g>
</svg>
