<?xml version="1.0" encoding="UTF-8"?>
<svg xmlns="http://www.w3.org/2000/svg" xmlns:xlink="http://www.w3.org/1999/xlink" width="24px" height="24px" viewBox="0 0 24 24" version="1.1">
<g id="surface1">
<path style=" stroke:none;fill-rule:nonzero;fill:rgb(100%,65.490198%,14.901961%);fill-opacity:1;" d="M 8.828125 1.179688 C 8.207031 1.179688 7.707031 1.679688 7.707031 2.300781 L 7.707031 13.636719 L 11.066406 10.277344 L 11.066406 5.097656 C 11.066406 4.789062 11.316406 4.539062 11.625 4.539062 L 18.902344 4.539062 C 19.210938 4.539062 19.460938 4.789062 19.460938 5.097656 L 19.460938 12.375 C 19.460938 12.683594 19.210938 12.933594 18.902344 12.933594 L 13.160156 12.933594 L 9.804688 16.292969 L 21.699219 16.292969 C 22.320312 16.292969 22.820312 15.792969 22.820312 15.171875 L 22.820312 2.300781 C 22.820312 1.679688 22.320312 1.179688 21.699219 1.179688 Z M 8.828125 1.179688 "/>
<path style=" stroke:none;fill-rule:nonzero;fill:rgb(25.882354%,64.705884%,96.078432%);fill-opacity:1;" d="M 2.113281 7.894531 C 1.492188 7.894531 0.992188 8.394531 0.992188 9.015625 L 0.992188 21.886719 C 0.992188 22.507812 1.492188 23.007812 2.113281 23.007812 L 14.984375 23.007812 C 15.605469 23.007812 16.105469 22.507812 16.105469 21.886719 L 16.105469 9.992188 L 12.746094 13.347656 L 12.746094 19.089844 C 12.746094 19.398438 12.496094 19.648438 12.1875 19.648438 L 4.910156 19.648438 C 4.601562 19.648438 4.351562 19.398438 4.351562 19.089844 L 4.351562 11.8125 C 4.351562 11.503906 4.601562 11.253906 4.910156 11.253906 L 10.089844 11.253906 L 13.449219 7.894531 Z M 2.113281 7.894531 "/>
<path style=" stroke:none;fill-rule:nonzero;fill:rgb(100%,65.490198%,14.901961%);fill-opacity:1;" d="M 13.160156 12.933594 L 12.746094 13.347656 L 12.746094 16.292969 L 16.105469 16.292969 L 16.105469 12.933594 Z M 13.160156 12.933594 "/>
</g>
</svg>
