<?xml version="1.0" encoding="UTF-8"?>
<svg xmlns="http://www.w3.org/2000/svg" xmlns:xlink="http://www.w3.org/1999/xlink" width="24px" height="24px" viewBox="0 0 24 24" version="1.1">
<g id="surface1">
<path style=" stroke:none;fill-rule:nonzero;fill:rgb(47.058824%,56.470591%,61.176473%);fill-opacity:1;" d="M 2.480469 1.179688 L 21.332031 1.179688 C 22.152344 1.179688 22.820312 1.847656 22.820312 2.667969 L 22.820312 21.519531 C 22.820312 22.339844 22.152344 23.007812 21.332031 23.007812 L 2.480469 23.007812 C 1.660156 23.007812 0.992188 22.339844 0.992188 21.519531 L 0.992188 2.667969 C 0.992188 1.847656 1.660156 1.179688 2.480469 1.179688 Z M 2.480469 1.179688 "/>
<path style=" stroke:none;fill-rule:nonzero;fill:rgb(74.117649%,74.117649%,74.117649%);fill-opacity:1;" d="M 11.90625 5.148438 C 10.515625 5.148438 9.316406 5.960938 8.761719 7.136719 C 7.535156 7.203125 6.507812 8.011719 6.117188 9.125 C 6.0625 9.121094 6.007812 9.117188 5.953125 9.117188 C 4.855469 9.117188 3.96875 10.003906 3.96875 11.101562 C 3.96875 12.199219 4.855469 13.085938 5.953125 13.085938 L 14.386719 13.085938 C 15.761719 13.085938 16.867188 11.980469 16.867188 10.605469 C 16.867188 9.578125 16.25 8.703125 15.367188 8.324219 C 15.21875 6.539062 13.730469 5.148438 11.90625 5.148438 Z M 11.90625 5.148438 "/>
<path style=" stroke:none;fill-rule:nonzero;fill:rgb(93.333334%,93.333334%,93.333334%);fill-opacity:1;" d="M 15.390625 10.902344 C 14 10.902344 12.804688 11.714844 12.25 12.890625 C 11.019531 12.957031 9.992188 13.765625 9.605469 14.878906 C 9.550781 14.871094 9.496094 14.871094 9.4375 14.871094 C 8.339844 14.871094 7.453125 15.753906 7.453125 16.855469 C 7.453125 17.953125 8.339844 18.839844 9.4375 18.839844 L 17.871094 18.839844 C 19.246094 18.839844 20.351562 17.734375 20.351562 16.359375 C 20.351562 15.332031 19.734375 14.457031 18.851562 14.078125 C 18.703125 12.292969 17.214844 10.902344 15.390625 10.902344 Z M 15.390625 10.902344 "/>
</g>
</svg>
