<?xml version="1.0" encoding="UTF-8"?>
<svg xmlns="http://www.w3.org/2000/svg" xmlns:xlink="http://www.w3.org/1999/xlink" width="24px" height="24px" viewBox="0 0 24 24" version="1.1">
<g id="surface1">
<path style=" stroke:none;fill-rule:nonzero;fill:rgb(93.333334%,93.333334%,93.333334%);fill-opacity:1;" d="M 1.984375 1.179688 L 21.828125 1.179688 C 22.375 1.179688 22.820312 1.625 22.820312 2.171875 L 22.820312 22.015625 C 22.820312 22.5625 22.375 23.007812 21.828125 23.007812 L 1.984375 23.007812 C 1.4375 23.007812 0.992188 22.5625 0.992188 22.015625 L 0.992188 2.171875 C 0.992188 1.625 1.4375 1.179688 1.984375 1.179688 Z M 1.984375 1.179688 "/>
<path style=" stroke:none;fill-rule:nonzero;fill:rgb(74.117649%,74.117649%,74.117649%);fill-opacity:1;" d="M 2.976562 2.667969 C 2.703125 2.667969 2.480469 2.890625 2.480469 3.164062 L 2.480469 6.6875 C 3.78125 6.367188 5.238281 6.273438 6.449219 6.878906 C 8.246094 7.777344 9.863281 8.207031 11.410156 8.078125 L 11.410156 3.164062 C 11.410156 2.890625 11.1875 2.667969 10.914062 2.667969 Z M 2.976562 2.667969 "/>
<path style=" stroke:none;fill-rule:nonzero;fill:rgb(92.54902%,25.098041%,47.843137%);fill-opacity:1;" d="M 2.976562 12.589844 L 10.914062 12.589844 C 11.1875 12.589844 11.410156 12.8125 11.410156 13.085938 L 11.410156 21.023438 C 11.410156 21.296875 11.1875 21.519531 10.914062 21.519531 L 2.976562 21.519531 C 2.703125 21.519531 2.480469 21.296875 2.480469 21.023438 L 2.480469 13.085938 C 2.480469 12.8125 2.703125 12.589844 2.976562 12.589844 Z M 2.976562 12.589844 "/>
<path style=" stroke:none;fill-rule:nonzero;fill:rgb(74.117649%,74.117649%,74.117649%);fill-opacity:1;" d="M 12.898438 2.667969 C 12.625 2.667969 12.402344 2.890625 12.402344 3.164062 L 12.402344 7.917969 C 13.070312 7.753906 13.726562 7.476562 14.386719 7.082031 C 16.542969 5.789062 19.078125 6.238281 21.332031 6.703125 L 21.332031 3.164062 C 21.332031 2.890625 21.109375 2.667969 20.835938 2.667969 Z M 12.898438 2.667969 "/>
<path style=" stroke:none;fill-rule:nonzero;fill:rgb(92.54902%,25.098041%,47.843137%);fill-opacity:1;" d="M 4.421875 6.433594 C 3.769531 6.429688 3.105469 6.535156 2.480469 6.6875 L 2.480469 11.101562 C 2.480469 11.375 2.703125 11.597656 2.976562 11.597656 L 10.914062 11.597656 C 11.1875 11.597656 11.410156 11.375 11.410156 11.101562 L 11.410156 8.078125 C 9.863281 8.207031 8.246094 7.777344 6.449219 6.878906 C 5.820312 6.5625 5.128906 6.4375 4.421875 6.433594 Z M 4.421875 6.433594 "/>
<path style=" stroke:none;fill-rule:nonzero;fill:rgb(92.54902%,25.098041%,47.843137%);fill-opacity:1;" d="M 17.714844 6.234375 C 16.566406 6.238281 15.433594 6.453125 14.386719 7.082031 C 13.726562 7.476562 13.070312 7.753906 12.402344 7.917969 L 12.402344 11.101562 C 12.402344 11.375 12.625 11.597656 12.898438 11.597656 L 20.835938 11.597656 C 21.109375 11.597656 21.332031 11.375 21.332031 11.101562 L 21.332031 6.703125 C 20.171875 6.464844 18.9375 6.226562 17.714844 6.234375 Z M 17.714844 6.234375 "/>
<path style=" stroke:none;fill-rule:nonzero;fill:rgb(25.882354%,25.882354%,25.882354%);fill-opacity:1;" d="M 17.035156 12.589844 C 16.699219 12.589844 16.367188 12.628906 16.042969 12.703125 C 16.144531 13.265625 15.894531 13.855469 15.367188 14.15625 C 14.84375 14.460938 14.207031 14.386719 13.773438 14.015625 C 13.546875 14.257812 13.347656 14.527344 13.175781 14.824219 C 13.003906 15.121094 12.871094 15.429688 12.773438 15.742188 C 12.851562 15.769531 12.925781 15.804688 12.996094 15.84375 C 13.414062 16.085938 13.695312 16.535156 13.695312 17.054688 C 13.695312 17.660156 13.3125 18.175781 12.773438 18.367188 C 12.96875 19.003906 13.304688 19.59375 13.769531 20.09375 C 14.207031 19.726562 14.84375 19.648438 15.367188 19.953125 C 15.894531 20.253906 16.144531 20.84375 16.042969 21.40625 C 16.710938 21.558594 17.390625 21.554688 18.039062 21.40625 C 17.9375 20.84375 18.1875 20.257812 18.714844 19.953125 C 19.164062 19.691406 19.695312 19.710938 20.113281 19.953125 C 20.179688 19.992188 20.246094 20.039062 20.308594 20.09375 C 20.535156 19.851562 20.734375 19.582031 20.90625 19.285156 C 21.078125 18.988281 21.210938 18.679688 21.308594 18.367188 C 20.769531 18.171875 20.386719 17.660156 20.386719 17.054688 C 20.386719 16.449219 20.769531 15.933594 21.308594 15.742188 C 21.113281 15.109375 20.777344 14.515625 20.3125 14.015625 C 19.875 14.386719 19.238281 14.460938 18.714844 14.15625 C 18.1875 13.855469 17.9375 13.265625 18.039062 12.703125 C 17.707031 12.625 17.367188 12.589844 17.035156 12.589844 Z M 17.042969 15.382812 C 17.96875 15.382812 18.714844 16.128906 18.714844 17.054688 C 18.714844 17.980469 17.96875 18.726562 17.042969 18.726562 C 16.113281 18.726562 15.367188 17.980469 15.367188 17.054688 C 15.367188 16.128906 16.113281 15.382812 17.042969 15.382812 Z M 17.042969 15.382812 "/>
</g>
</svg>
