<?xml version="1.0" encoding="UTF-8"?>
<svg xmlns="http://www.w3.org/2000/svg" xmlns:xlink="http://www.w3.org/1999/xlink" width="24px" height="24px" viewBox="0 0 24 24" version="1.1">
<g id="surface1">
<path style=" stroke:none;fill-rule:nonzero;fill:rgb(93.333334%,93.333334%,93.333334%);fill-opacity:1;" d="M 15.875 1.179688 L 3.96875 1.179688 C 3.417969 1.179688 2.976562 1.621094 2.976562 2.171875 L 2.976562 22.015625 C 2.976562 22.566406 3.417969 23.007812 3.96875 23.007812 L 19.84375 23.007812 C 20.394531 23.007812 20.835938 22.566406 20.835938 22.015625 L 20.835938 6.140625 Z M 15.875 1.179688 "/>
<path style=" stroke:none;fill-rule:nonzero;fill:rgb(61.960787%,61.960787%,61.960787%);fill-opacity:1;" d="M 5.65625 10.011719 C 5.332031 10.199219 5.222656 10.605469 5.410156 10.929688 L 10.109375 19.070312 C 10.296875 19.394531 10.703125 19.503906 11.027344 19.316406 L 18.003906 15.289062 C 18.328125 15.101562 18.4375 14.691406 18.25 14.371094 L 13.550781 6.230469 C 13.363281 5.90625 12.957031 5.796875 12.632812 5.984375 Z M 7.199219 10.671875 L 12.433594 7.648438 C 12.59375 7.558594 12.796875 7.613281 12.890625 7.773438 L 13.90625 9.527344 C 13.996094 9.691406 13.941406 9.894531 13.78125 9.988281 L 8.546875 13.007812 C 8.386719 13.101562 8.183594 13.046875 8.089844 12.886719 L 7.074219 11.128906 C 6.984375 10.96875 7.039062 10.765625 7.199219 10.671875 Z M 9.070312 14.25 L 9.796875 13.832031 C 9.878906 13.785156 9.980469 13.8125 10.027344 13.890625 L 10.363281 14.472656 C 10.410156 14.554688 10.382812 14.65625 10.300781 14.703125 L 9.574219 15.121094 C 9.492188 15.167969 9.390625 15.140625 9.34375 15.0625 L 9.007812 14.480469 C 8.964844 14.398438 8.992188 14.296875 9.070312 14.25 Z M 10.671875 13.328125 L 11.398438 12.90625 C 11.476562 12.859375 11.578125 12.886719 11.625 12.96875 L 11.960938 13.550781 C 12.007812 13.632812 11.980469 13.734375 11.902344 13.78125 L 11.171875 14.199219 C 11.09375 14.246094 10.992188 14.21875 10.945312 14.136719 L 10.609375 13.554688 C 10.5625 13.476562 10.589844 13.375 10.671875 13.328125 Z M 12.269531 12.402344 L 12.996094 11.984375 C 13.078125 11.9375 13.179688 11.964844 13.226562 12.046875 L 13.5625 12.628906 C 13.609375 12.707031 13.582031 12.808594 13.5 12.855469 L 12.773438 13.277344 C 12.691406 13.324219 12.589844 13.296875 12.542969 13.214844 L 12.207031 12.632812 C 12.160156 12.554688 12.1875 12.449219 12.269531 12.402344 Z M 13.867188 11.480469 L 14.59375 11.0625 C 14.675781 11.015625 14.777344 11.042969 14.824219 11.121094 L 15.160156 11.703125 C 15.207031 11.785156 15.179688 11.886719 15.097656 11.933594 L 14.371094 12.351562 C 14.292969 12.398438 14.1875 12.371094 14.144531 12.292969 L 13.808594 11.710938 C 13.761719 11.628906 13.789062 11.527344 13.867188 11.480469 Z M 9.828125 15.558594 L 10.554688 15.140625 C 10.632812 15.09375 10.734375 15.121094 10.78125 15.199219 L 11.117188 15.78125 C 11.164062 15.863281 11.136719 15.964844 11.058594 16.011719 L 10.328125 16.429688 C 10.25 16.476562 10.148438 16.449219 10.101562 16.371094 L 9.765625 15.789062 C 9.71875 15.707031 9.746094 15.605469 9.828125 15.558594 Z M 11.425781 14.636719 L 12.152344 14.214844 C 12.234375 14.167969 12.335938 14.195312 12.382812 14.277344 L 12.71875 14.859375 C 12.765625 14.941406 12.738281 15.042969 12.65625 15.089844 L 11.929688 15.507812 C 11.847656 15.554688 11.746094 15.527344 11.699219 15.445312 L 11.363281 14.863281 C 11.316406 14.785156 11.34375 14.683594 11.425781 14.636719 Z M 13.023438 13.710938 L 13.75 13.292969 C 13.832031 13.246094 13.933594 13.273438 13.980469 13.355469 L 14.316406 13.9375 C 14.363281 14.015625 14.335938 14.117188 14.253906 14.164062 L 13.527344 14.585938 C 13.449219 14.632812 13.34375 14.605469 13.300781 14.523438 L 12.964844 13.941406 C 12.917969 13.859375 12.945312 13.757812 13.023438 13.710938 Z M 14.625 12.789062 L 15.351562 12.371094 C 15.429688 12.324219 15.535156 12.351562 15.582031 12.429688 L 15.914062 13.011719 C 15.960938 13.09375 15.933594 13.195312 15.855469 13.242188 L 15.128906 13.660156 C 15.046875 13.707031 14.945312 13.679688 14.898438 13.601562 L 14.5625 13.019531 C 14.515625 12.9375 14.542969 12.835938 14.625 12.789062 Z M 10.582031 16.867188 L 11.308594 16.449219 C 11.390625 16.402344 11.492188 16.429688 11.539062 16.507812 L 11.875 17.089844 C 11.921875 17.171875 11.894531 17.273438 11.8125 17.320312 L 11.085938 17.738281 C 11.003906 17.785156 10.902344 17.757812 10.855469 17.679688 L 10.519531 17.097656 C 10.472656 17.015625 10.5 16.914062 10.582031 16.867188 Z M 12.179688 15.945312 L 12.90625 15.523438 C 12.988281 15.476562 13.089844 15.503906 13.136719 15.585938 L 13.472656 16.167969 C 13.519531 16.246094 13.492188 16.351562 13.410156 16.398438 L 12.683594 16.816406 C 12.605469 16.863281 12.5 16.835938 12.457031 16.753906 L 12.121094 16.171875 C 12.074219 16.09375 12.101562 15.992188 12.179688 15.945312 Z M 13.78125 15.019531 L 14.507812 14.601562 C 14.585938 14.554688 14.691406 14.582031 14.738281 14.664062 L 15.070312 15.246094 C 15.117188 15.324219 15.089844 15.425781 15.011719 15.472656 L 14.285156 15.894531 C 14.203125 15.941406 14.101562 15.914062 14.054688 15.832031 L 13.71875 15.25 C 13.671875 15.167969 13.699219 15.066406 13.78125 15.019531 Z M 15.378906 14.097656 L 16.105469 13.679688 C 16.1875 13.632812 16.289062 13.660156 16.335938 13.738281 L 16.671875 14.320312 C 16.71875 14.402344 16.691406 14.503906 16.609375 14.550781 L 15.882812 14.96875 C 15.800781 15.015625 15.699219 14.988281 15.652344 14.910156 L 15.316406 14.328125 C 15.269531 14.246094 15.296875 14.144531 15.378906 14.097656 Z M 15.378906 14.097656 "/>
<path style=" stroke:none;fill-rule:nonzero;fill:rgb(40.000001%,73.333335%,41.568628%);fill-opacity:1;" d="M 20.835938 6.140625 L 15.875 1.179688 L 15.875 5.148438 C 15.875 5.699219 16.316406 6.140625 16.867188 6.140625 Z M 20.835938 6.140625 "/>
<path style=" stroke:none;fill-rule:nonzero;fill:rgb(40.000001%,73.333335%,41.568628%);fill-opacity:1;" d="M 2.976562 12.589844 L 20.835938 12.589844 L 20.835938 18.542969 L 2.976562 18.542969 Z M 2.976562 12.589844 "/>
</g>
</svg>
