
<svg xmlns="http://www.w3.org/2000/svg" xmlns:xlink="http://www.w3.org/1999/xlink" width="24px" height="24px" viewBox="0 0 24 24" version="1.1">
<g id="surface1">
<path style=" stroke:none;fill-rule:nonzero;fill:rgb(100%,71.764708%,30.19608%);fill-opacity:1;" d="M 1.984375 2.480469 L 21.828125 2.480469 C 22.375 2.480469 22.820312 2.925781 22.820312 3.472656 L 22.820312 20.339844 C 22.820312 20.886719 22.375 21.332031 21.828125 21.332031 L 1.984375 21.332031 C 1.4375 21.332031 0.992188 20.886719 0.992188 20.339844 L 0.992188 3.472656 C 0.992188 2.925781 1.4375 2.480469 1.984375 2.480469 Z M 1.984375 2.480469 "/>
<path style=" stroke:none;fill-rule:nonzero;fill:rgb(94.117647%,38.431373%,57.254905%);fill-opacity:1;" d="M 1.316406 2.738281 C 1.117188 2.917969 0.992188 3.179688 0.992188 3.472656 L 0.992188 20.339844 C 0.992188 20.890625 1.433594 21.332031 1.984375 21.332031 L 21.828125 21.332031 C 22.078125 21.332031 22.308594 21.238281 22.484375 21.085938 L 6.03125 6.449219 Z M 1.316406 2.738281 "/>
<path style=" stroke:none;fill-rule:nonzero;fill:rgb(72.941178%,40.784314%,78.431374%);fill-opacity:1;" d="M 22.507812 2.75 L 1.304688 21.0625 C 1.480469 21.230469 1.71875 21.332031 1.984375 21.332031 L 21.828125 21.332031 C 22.378906 21.332031 22.820312 20.890625 22.820312 20.339844 L 22.820312 3.472656 C 22.820312 3.1875 22.699219 2.929688 22.507812 2.75 Z M 22.507812 2.75 "/>
<path style=" stroke:none;fill-rule:nonzero;fill:rgb(96.078432%,96.078432%,96.078432%);fill-opacity:1;" d="M 1.984375 2.976562 L 21.828125 2.976562 C 22.101562 2.976562 22.324219 3.199219 22.324219 3.472656 L 22.324219 5.457031 C 22.324219 5.730469 22.101562 5.953125 21.828125 5.953125 L 1.984375 5.953125 C 1.710938 5.953125 1.488281 5.730469 1.488281 5.457031 L 1.488281 3.472656 C 1.488281 3.199219 1.710938 2.976562 1.984375 2.976562 Z M 1.984375 2.976562 "/>
<path style=" stroke:none;fill-rule:nonzero;fill:rgb(25.882354%,25.882354%,25.882354%);fill-opacity:1;" d="M 15.875 3.71875 L 17.363281 3.71875 L 17.363281 5.207031 L 15.875 5.207031 Z M 15.875 3.71875 "/>
<path style=" stroke:none;fill-rule:nonzero;fill:rgb(25.882354%,25.882354%,25.882354%);fill-opacity:1;" d="M 17.859375 3.71875 L 19.347656 3.71875 L 19.347656 5.207031 L 17.859375 5.207031 Z M 17.859375 3.71875 "/>
<path style=" stroke:none;fill-rule:nonzero;fill:rgb(25.882354%,25.882354%,25.882354%);fill-opacity:1;" d="M 19.84375 3.71875 L 21.332031 3.71875 L 21.332031 5.207031 L 19.84375 5.207031 Z M 19.84375 3.71875 "/>
</g>
</svg>
