<?xml version="1.0" encoding="UTF-8"?>
<svg xmlns="http://www.w3.org/2000/svg" xmlns:xlink="http://www.w3.org/1999/xlink" width="16px" height="16px" viewBox="0 0 16 16" version="1.1">
<g id="surface1">
     <defs>
  <style id="current-color-scheme" type="text/css">
     .ColorScheme-Text { color:#eeeeee; } .ColorScheme-Highlight { color:#424242; }
  </style>
 </defs>
<path style="fill:currentColor" class="ColorScheme-Text" d="M 1 2 L 1 5 L 4 5 L 4 2 Z M 6 2 L 6 5 L 9 5 L 9 2 Z M 11 2 L 11 5 L 14 5 L 14 2 Z M 2 7 L 2 10 L 5 10 L 5 7 Z M 7 7 L 7 10 L 10 10 L 10 7 Z M 12 7 L 12 10 L 15 10 L 15 7 Z M 1 12 L 1 15 L 4 15 L 4 12 Z M 6 12 L 6 15 L 9 15 L 9 12 Z M 11 12 L 11 15 L 14 15 L 14 12 Z M 11 12 "/>
</g>
</svg>
