<?xml version="1.0" encoding="UTF-8"?>
<svg xmlns="http://www.w3.org/2000/svg" xmlns:xlink="http://www.w3.org/1999/xlink" width="16px" height="16px" viewBox="0 0 16 16" version="1.1">
<g id="surface1">
<defs>
  <style id="current-color-scheme" type="text/css">
   .ColorScheme-Text { color:#eeeeee; } .ColorScheme-Highlight { color:#424242; }
  </style>
 </defs>
<path style="fill:currentColor" class="ColorScheme-Text" d="M 1 1 L 1 5 L 3 5 L 3 3 L 5 3 L 5 1 Z M 11 1 L 11 3 L 13 3 L 13 5 L 15 5 L 15 1 Z M 5.878906 4.464844 L 4.464844 5.878906 L 6.585938 8 L 4.464844 10.121094 L 5.878906 11.535156 L 8 9.414062 L 10.121094 11.535156 L 11.535156 10.121094 L 9.414062 8 L 11.535156 5.878906 L 10.121094 4.464844 L 8 6.585938 Z M 1 11 L 1 15 L 5 15 L 5 13 L 3 13 L 3 11 Z M 13 11 L 13 13 L 11 13 L 11 15 L 15 15 L 15 11 Z M 13 11 "/>
</g>
</svg>
