<?xml version="1.0" encoding="UTF-8"?>
<svg xmlns="http://www.w3.org/2000/svg" xmlns:xlink="http://www.w3.org/1999/xlink" width="16px" height="16px" viewBox="0 0 16 16" version="1.1">
<g id="surface1">
<defs>
  <style id="current-color-scheme" type="text/css">
   .ColorScheme-Text { color:#eeeeee; } .ColorScheme-Highlight { color:#424242; }
  </style>
 </defs>
<path style="fill:currentColor" class="ColorScheme-Text" d="M 3 1 C 1.890625 1 1 1.890625 1 3 C 1 3.742188 1.402344 4.386719 2 4.730469 L 2 13 L 6 13 L 6 15 L 9 12 L 6 9 L 6 11 L 4 11 L 4 4.730469 C 4.597656 4.386719 5 3.742188 5 3 C 5 1.890625 4.109375 1 3 1 Z M 10 1 L 7 4 L 10 7 L 10 5 L 12 5 L 12 11.269531 C 11.402344 11.613281 11 12.257812 11 13 C 11 14.109375 11.890625 15 13 15 C 14.109375 15 15 14.109375 15 13 C 15 12.257812 14.597656 11.613281 14 11.269531 L 14 3 L 10 3 Z M 10 1 "/>
</g>
</svg>
