<?xml version="1.0" encoding="UTF-8"?>
<svg xmlns="http://www.w3.org/2000/svg" xmlns:xlink="http://www.w3.org/1999/xlink" width="16px" height="16px" viewBox="0 0 16 16" version="1.1">
<g id="surface1">
<defs>
  <style id="current-color-scheme" type="text/css">
   .ColorScheme-Text { color:#eeeeee; } .ColorScheme-Highlight { color:#424242; }
  </style>
 </defs>
<path style="fill:currentColor" class="ColorScheme-Text" d="M 8 1 C 4.460938 1 1.5625 3.601562 1.078125 7 L 3.101562 7 C 3.5625 4.710938 5.574219 3 8 3 C 10.769531 3 13 5.230469 13 8 C 13 10.769531 10.769531 13 8 13 L 7 13 L 7 15 L 8 15 C 11.878906 15 15 11.878906 15 8 C 15 4.121094 11.878906 1 8 1 Z M 7 4 L 7 9 L 11 9 L 11 7 L 9 7 L 9 4 Z M 1 9 L 1 15 L 6 12 Z M 1 9 "/>
</g>
</svg>
