<?xml version="1.0" encoding="UTF-8"?>
<svg xmlns="http://www.w3.org/2000/svg" xmlns:xlink="http://www.w3.org/1999/xlink" width="16px" height="16px" viewBox="0 0 16 16" version="1.1">
<g id="surface1">
<path style=" stroke:none;fill-rule:nonzero;fill:rgb(93.725491%,32.549021%,31.37255%);fill-opacity:1;" d="M 1 1 L 1 15 L 15 15 L 15 1 Z M 3 3 L 13 3 L 13 13 L 3 13 Z M 4 4 L 4 7 L 12 7 L 12 4 Z M 4 8 L 4 9 L 7 9 L 7 8 Z M 8 8 L 8 9 L 12 9 L 12 8 Z M 4 10 L 4 11 L 7 11 L 7 10 Z M 8 10 L 8 11 L 12 11 L 12 10 Z M 8 10 "/>
</g>
</svg>
