
<svg xmlns="http://www.w3.org/2000/svg" xmlns:xlink="http://www.w3.org/1999/xlink" width="16px" height="16px" viewBox="0 0 16 16" version="1.1">
<g id="surface1">
<defs>
  <style id="current-color-scheme" type="text/css">
   .ColorScheme-Text { color:#eeeeee; } .ColorScheme-Highlight { color:#424242; }
  </style>
 </defs>
<path style="fill:currentColor" class="ColorScheme-Text" d="M 5 2 C 3.339844 2 2 3.339844 2 5 L 2 10 L 4 10 L 4 8 L 6 8 L 6 10 L 8 10 L 8 5 C 8 3.339844 6.660156 2 5 2 Z M 5 4 C 5.554688 4 6 4.445312 6 5 L 6 6 L 4 6 L 4 5 C 4 4.445312 4.445312 4 5 4 Z M 10.585938 9.171875 L 9.171875 10.585938 L 10.585938 12 L 9.171875 13.414062 L 10.585938 14.828125 L 12 13.414062 L 13.414062 14.828125 L 14.828125 13.414062 L 13.414062 12 L 14.828125 10.585938 L 13.414062 9.171875 L 12 10.585938 Z M 2 11 L 2 13 L 8 13 L 8 11 Z M 2 11 "/>
</g>
</svg>
