<?xml version="1.0" encoding="UTF-8"?>
<svg xmlns="http://www.w3.org/2000/svg" xmlns:xlink="http://www.w3.org/1999/xlink" width="16px" height="16px" viewBox="0 0 16 16" version="1.1">
<g id="surface1">
<defs>
  <style id="current-color-scheme" type="text/css">
   .ColorScheme-Text { color:#eeeeee; } .ColorScheme-Highlight { color:#424242; }
  </style>
 </defs>
<path style="fill:currentColor" class="ColorScheme-Text" d="M 1 1 L 1 5 L 3 5 L 3 3 L 5 3 L 5 1 Z M 11 1 L 6.757812 5.242188 L 8.171875 6.65625 L 10 4.828125 L 10 9 L 12 9 L 12 4.828125 L 13.828125 6.65625 L 15.242188 5.242188 Z M 1 9 L 1 15 L 7 15 L 7 9 Z M 3 11 L 5 11 L 5 13 L 3 13 Z M 13 11 L 13 13 L 11 13 L 11 15 L 15 15 L 15 11 Z M 13 11 "/>
</g>
</svg>
