<?xml version="1.0" encoding="UTF-8"?>
<svg xmlns="http://www.w3.org/2000/svg" xmlns:xlink="http://www.w3.org/1999/xlink" width="16px" height="16px" viewBox="0 0 16 16" version="1.1">
<g id="surface1">
<defs>
  <style id="current-color-scheme" type="text/css">
   .ColorScheme-Text { color:#eeeeee; } .ColorScheme-Highlight { color:#424242; }
  </style>
 </defs>
<path style="fill:currentColor" class="ColorScheme-Text" d="M 15 1 L 15 5 L 13 5 L 13 3 L 11 3 L 11 1 Z M 5 1 L 5 3 L 3 3 L 3 5 L 1 5 L 1 1 Z M 6.757812 3.757812 L 11 8 L 6.757812 12.242188 L 5.34375 10.828125 L 8.171875 8 L 5.34375 5.171875 Z M 15 11 L 15 15 L 11 15 L 11 13 L 13 13 L 13 11 Z M 3 11 L 3 13 L 5 13 L 5 15 L 1 15 L 1 11 Z M 3 11 "/>
</g>
</svg>
