<?xml version="1.0" encoding="UTF-8"?>
<svg xmlns="http://www.w3.org/2000/svg" xmlns:xlink="http://www.w3.org/1999/xlink" width="16px" height="16px" viewBox="0 0 16 16" version="1.1">
<g id="surface1">
<defs>
  <style id="current-color-scheme" type="text/css">
   .ColorScheme-Text { color:#eeeeee; } .ColorScheme-Highlight { color:#424242; }
  </style>
 </defs>
<path style="fill:currentColor" class="ColorScheme-Text" d="M 1 15 L 1 11 L 3 11 L 3 13 L 5 13 L 5 15 Z M 10.601562 15 L 6.359375 10.757812 L 7.773438 9.34375 L 9.601562 11.171875 L 9.601562 6.585938 L 11.601562 6.585938 L 11.601562 11.171875 L 13.429688 9.34375 L 14.84375 10.757812 Z M 1 7 L 1 1 L 7 1 L 7 7 Z M 3 5 L 5 5 L 5 3 L 3 3 Z M 13 5 L 13 3 L 11 3 L 11 1 L 15 1 L 15 5 Z M 13 5 "/>
</g>
</svg>
