<?xml version="1.0" encoding="UTF-8"?>
<svg xmlns="http://www.w3.org/2000/svg" xmlns:xlink="http://www.w3.org/1999/xlink" width="32px" height="32px" viewBox="0 0 32 32" version="1.1">
<g id="surface1">
<path style=" stroke:none;fill-rule:nonzero;fill:rgb(38.039216%,38.039216%,38.039216%);fill-opacity:1;" d="M 21.167969 1.574219 L 5.292969 1.574219 C 4.558594 1.574219 3.96875 2.164062 3.96875 2.894531 L 3.96875 29.355469 C 3.96875 30.085938 4.558594 30.675781 5.292969 30.675781 L 26.457031 30.675781 C 27.191406 30.675781 27.78125 30.085938 27.78125 29.355469 L 27.78125 8.1875 Z M 21.167969 1.574219 "/>
<path style=" stroke:none;fill-rule:nonzero;fill:rgb(25.882354%,25.882354%,25.882354%);fill-opacity:1;" d="M 27.78125 8.1875 L 21.167969 1.574219 L 21.167969 6.863281 C 21.167969 7.597656 21.757812 8.1875 22.488281 8.1875 Z M 27.78125 8.1875 "/>
<path style=" stroke:none;fill-rule:nonzero;fill:rgb(96.078432%,96.078432%,96.078432%);fill-opacity:1;" d="M 11.246094 11.496094 C 10.878906 11.496094 10.582031 11.789062 10.582031 12.15625 L 10.582031 14.472656 C 10.582031 14.65625 10.730469 14.800781 10.914062 14.800781 L 11.574219 14.800781 C 11.757812 14.800781 11.90625 14.65625 11.90625 14.472656 L 11.90625 13.148438 C 11.90625 12.964844 12.054688 12.816406 12.238281 12.816406 L 13.558594 12.816406 C 13.742188 12.816406 13.890625 12.671875 13.890625 12.488281 L 13.890625 11.824219 C 13.890625 11.640625 13.742188 11.496094 13.558594 11.496094 Z M 18.191406 11.496094 C 18.007812 11.496094 17.859375 11.640625 17.859375 11.824219 L 17.859375 12.488281 C 17.859375 12.671875 18.007812 12.816406 18.191406 12.816406 L 19.511719 12.816406 C 19.695312 12.816406 19.84375 12.964844 19.84375 13.148438 L 19.84375 14.472656 C 19.84375 14.65625 19.992188 14.800781 20.175781 14.800781 L 20.835938 14.800781 C 21.019531 14.800781 21.167969 14.65625 21.167969 14.472656 L 21.167969 12.15625 C 21.167969 11.789062 20.871094 11.496094 20.503906 11.496094 Z M 10.914062 18.769531 C 10.730469 18.769531 10.582031 18.917969 10.582031 19.101562 L 10.582031 21.417969 C 10.582031 21.78125 10.878906 22.078125 11.246094 22.078125 L 13.558594 22.078125 C 13.742188 22.078125 13.890625 21.929688 13.890625 21.746094 L 13.890625 21.085938 C 13.890625 20.902344 13.742188 20.753906 13.558594 20.753906 L 12.238281 20.753906 C 12.054688 20.753906 11.90625 20.609375 11.90625 20.425781 L 11.90625 19.101562 C 11.90625 18.917969 11.757812 18.769531 11.574219 18.769531 Z M 20.175781 18.769531 C 19.992188 18.769531 19.84375 18.917969 19.84375 19.101562 L 19.84375 20.425781 C 19.84375 20.609375 19.695312 20.753906 19.511719 20.753906 L 18.191406 20.753906 C 18.007812 20.753906 17.859375 20.902344 17.859375 21.085938 L 17.859375 21.746094 C 17.859375 21.929688 18.007812 22.078125 18.191406 22.078125 L 20.503906 22.078125 C 20.871094 22.078125 21.167969 21.78125 21.167969 21.417969 L 21.167969 19.101562 C 21.167969 18.917969 21.019531 18.769531 20.835938 18.769531 Z M 20.175781 18.769531 "/>
</g>
</svg>
