<?xml version="1.0" encoding="UTF-8"?>
<svg xmlns="http://www.w3.org/2000/svg" xmlns:xlink="http://www.w3.org/1999/xlink" width="32px" height="32px" viewBox="0 0 32 32" version="1.1">
<g id="surface1">
<path style=" stroke:none;fill-rule:nonzero;fill:rgb(49.411765%,34.117648%,76.078433%);fill-opacity:1;" d="M 2.644531 1.574219 L 29.105469 1.574219 C 29.835938 1.574219 30.425781 2.164062 30.425781 2.894531 L 30.425781 29.355469 C 30.425781 30.085938 29.835938 30.675781 29.105469 30.675781 L 2.644531 30.675781 C 1.914062 30.675781 1.324219 30.085938 1.324219 29.355469 L 1.324219 2.894531 C 1.324219 2.164062 1.914062 1.574219 2.644531 1.574219 Z M 2.644531 1.574219 "/>
<path style=" stroke:none;fill-rule:nonzero;fill:rgb(96.078432%,96.078432%,96.078432%);fill-opacity:1;" d="M 21.390625 18.046875 L 19.074219 24.824219 L 17.914062 21.921875 L 16.535156 21.921875 C 16.515625 21.917969 16.496094 21.917969 16.476562 21.917969 L 16.3125 21.917969 C 16.128906 21.917969 15.980469 22.066406 15.980469 22.25 L 15.980469 22.910156 C 15.980469 23.09375 16.128906 23.242188 16.3125 23.242188 L 16.476562 23.242188 C 16.496094 23.242188 16.515625 23.238281 16.535156 23.234375 L 17.027344 23.234375 L 19.171875 28.601562 L 21.488281 21.820312 L 23.410156 26.628906 L 25.101562 22.570312 L 26.308594 25.21875 L 27.664062 25.21875 C 27.683594 25.222656 27.703125 25.226562 27.722656 25.226562 L 27.886719 25.226562 C 28.070312 25.226562 28.21875 25.078125 28.21875 24.894531 L 28.21875 24.234375 C 28.21875 24.050781 28.070312 23.902344 27.886719 23.902344 L 27.722656 23.902344 C 27.703125 23.902344 27.683594 23.902344 27.664062 23.90625 L 27.152344 23.90625 L 25.050781 19.28125 L 23.4375 23.160156 Z M 21.390625 18.046875 "/>
<path style=" stroke:none;fill-rule:nonzero;fill:rgb(58.431375%,45.882353%,80.392158%);fill-opacity:1;" d="M 2.644531 1.574219 C 1.914062 1.574219 1.324219 2.164062 1.324219 2.894531 L 1.324219 3.0625 L 30.425781 3.0625 L 30.425781 2.894531 C 30.425781 2.164062 29.835938 1.574219 29.105469 1.574219 Z M 2.644531 1.574219 "/>
<path style=" stroke:none;fill-rule:nonzero;fill:rgb(73.725492%,66.666669%,64.313728%);fill-opacity:1;" d="M 13.230469 3.0625 L 18.519531 3.0625 L 18.519531 14.140625 L 18.191406 15.464844 L 17.199219 13.808594 L 16.535156 14.800781 L 15.875 13.480469 L 15.214844 14.472656 L 14.550781 13.808594 L 13.890625 14.472656 L 13.230469 14.140625 Z M 13.230469 3.0625 "/>
<path style=" stroke:none;fill-rule:nonzero;fill:rgb(84.313726%,80.000001%,78.431374%);fill-opacity:1;" d="M 13.394531 1.574219 L 18.355469 1.574219 L 18.519531 3.0625 L 13.230469 3.0625 Z M 13.394531 1.574219 "/>
</g>
</svg>
