<?xml version="1.0" encoding="UTF-8"?>
<svg xmlns="http://www.w3.org/2000/svg" xmlns:xlink="http://www.w3.org/1999/xlink" width="64px" height="64px" viewBox="0 0 64 64" version="1.1">
<g id="surface1">
<path style=" stroke:none;fill-rule:nonzero;fill:rgb(36.862746%,20.784314%,69.411767%);fill-opacity:1;" d="M 9.261719 7.113281 L 58.207031 7.113281 C 59.667969 7.113281 60.855469 8.300781 60.855469 9.761719 L 60.855469 25.636719 C 60.855469 27.097656 59.667969 28.28125 58.207031 28.28125 L 9.261719 28.28125 C 7.800781 28.28125 6.613281 27.097656 6.613281 25.636719 L 6.613281 9.761719 C 6.613281 8.300781 7.800781 7.113281 9.261719 7.113281 Z M 9.261719 7.113281 "/>
<path style=" stroke:none;fill-rule:nonzero;fill:rgb(96.078432%,96.078432%,96.078432%);fill-opacity:1;" d="M 31.75 15.050781 L 58.207031 15.050781 C 58.9375 15.050781 59.53125 15.644531 59.53125 16.375 L 59.53125 25.636719 C 59.53125 26.367188 58.9375 26.957031 58.207031 26.957031 L 31.75 26.957031 C 31.019531 26.957031 30.425781 26.367188 30.425781 25.636719 L 30.425781 16.375 C 30.425781 15.644531 31.019531 15.050781 31.75 15.050781 Z M 31.75 15.050781 "/>
<path style=" stroke:none;fill-rule:nonzero;fill:rgb(49.411765%,34.117648%,76.078433%);fill-opacity:1;" d="M 5.292969 12.40625 C 3.824219 12.40625 2.644531 13.585938 2.644531 15.050781 L 2.644531 54.738281 C 2.644531 56.207031 3.824219 57.386719 5.292969 57.386719 L 58.207031 57.386719 C 59.675781 57.386719 60.855469 56.207031 60.855469 54.738281 L 60.855469 24.3125 C 60.855469 22.847656 59.675781 21.6875 58.207031 21.667969 L 41.011719 21.667969 C 39.542969 21.667969 38.363281 20.488281 38.363281 19.019531 L 38.363281 15.050781 C 38.363281 13.585938 37.183594 12.40625 35.71875 12.40625 Z M 5.292969 12.40625 "/>
<path style=" stroke:none;fill-rule:nonzero;fill:rgb(100%,100%,100%);fill-opacity:0.313726;" d="M 17.199219 49.449219 C 18.660156 49.449219 19.84375 50.632812 19.84375 52.09375 C 19.84375 53.554688 18.660156 54.738281 17.199219 54.738281 C 15.738281 54.738281 14.550781 53.554688 14.550781 52.09375 C 14.550781 50.632812 15.738281 49.449219 17.199219 49.449219 Z M 17.199219 49.449219 "/>
<path style=" stroke:none;fill-rule:nonzero;fill:rgb(100%,100%,100%);fill-opacity:0.313726;" d="M 17.199219 33.574219 C 12.757812 33.574219 8.6875 35.1875 5.566406 37.859375 C 5.199219 38.167969 5.023438 38.644531 5.109375 39.117188 C 5.195312 39.585938 5.527344 39.972656 5.976562 40.128906 C 6.429688 40.285156 6.929688 40.1875 7.289062 39.871094 C 9.945312 37.589844 13.394531 36.21875 17.199219 36.21875 C 21 36.21875 24.449219 37.589844 27.109375 39.871094 C 27.464844 40.1875 27.964844 40.285156 28.417969 40.128906 C 28.867188 39.972656 29.199219 39.585938 29.285156 39.117188 C 29.371094 38.644531 29.199219 38.167969 28.832031 37.859375 C 25.710938 35.1875 21.640625 33.574219 17.199219 33.574219 Z M 17.199219 38.863281 C 14.074219 38.863281 11.207031 40 9.011719 41.882812 C 8.644531 42.1875 8.472656 42.667969 8.558594 43.136719 C 8.640625 43.605469 8.972656 43.992188 9.425781 44.148438 C 9.875 44.304688 10.375 44.207031 10.734375 43.890625 C 12.46875 42.40625 14.714844 41.511719 17.199219 41.511719 C 19.679688 41.511719 21.929688 42.40625 23.660156 43.890625 C 24.019531 44.207031 24.519531 44.304688 24.972656 44.148438 C 25.421875 43.992188 25.753906 43.605469 25.839844 43.136719 C 25.925781 42.667969 25.75 42.1875 25.382812 41.882812 C 23.1875 40 20.320312 38.863281 17.199219 38.863281 Z M 17.199219 44.15625 C 15.394531 44.15625 13.730469 44.8125 12.460938 45.902344 C 12.09375 46.210938 11.917969 46.6875 12.003906 47.15625 C 12.089844 47.625 12.421875 48.015625 12.871094 48.171875 C 13.324219 48.328125 13.824219 48.226562 14.179688 47.914062 C 14.988281 47.21875 16.035156 46.800781 17.199219 46.800781 C 18.363281 46.800781 19.40625 47.21875 20.214844 47.914062 C 20.574219 48.226562 21.074219 48.328125 21.523438 48.171875 C 21.972656 48.015625 22.304688 47.625 22.390625 47.15625 C 22.476562 46.6875 22.304688 46.210938 21.9375 45.902344 C 20.664062 44.8125 19 44.15625 17.199219 44.15625 Z M 17.199219 44.15625 "/>
</g>
</svg>
