<?xml version="1.0" encoding="UTF-8"?>
<svg xmlns="http://www.w3.org/2000/svg" xmlns:xlink="http://www.w3.org/1999/xlink" width="64px" height="64px" viewBox="0 0 64 64" version="1.1">
<g id="surface1">
<path style=" stroke:none;fill-rule:nonzero;fill:rgb(36.862746%,20.784314%,69.411767%);fill-opacity:1;" d="M 9.261719 7.113281 L 58.207031 7.113281 C 59.667969 7.113281 60.855469 8.300781 60.855469 9.761719 L 60.855469 25.636719 C 60.855469 27.097656 59.667969 28.28125 58.207031 28.28125 L 9.261719 28.28125 C 7.800781 28.28125 6.613281 27.097656 6.613281 25.636719 L 6.613281 9.761719 C 6.613281 8.300781 7.800781 7.113281 9.261719 7.113281 Z M 9.261719 7.113281 "/>
<path style=" stroke:none;fill-rule:nonzero;fill:rgb(96.078432%,96.078432%,96.078432%);fill-opacity:1;" d="M 31.75 15.050781 L 58.207031 15.050781 C 58.9375 15.050781 59.53125 15.644531 59.53125 16.375 L 59.53125 25.636719 C 59.53125 26.367188 58.9375 26.957031 58.207031 26.957031 L 31.75 26.957031 C 31.019531 26.957031 30.425781 26.367188 30.425781 25.636719 L 30.425781 16.375 C 30.425781 15.644531 31.019531 15.050781 31.75 15.050781 Z M 31.75 15.050781 "/>
<path style=" stroke:none;fill-rule:nonzero;fill:rgb(49.411765%,34.117648%,76.078433%);fill-opacity:1;" d="M 5.292969 12.40625 C 3.824219 12.40625 2.644531 13.585938 2.644531 15.050781 L 2.644531 54.738281 C 2.644531 56.207031 3.824219 57.386719 5.292969 57.386719 L 58.207031 57.386719 C 59.675781 57.386719 60.855469 56.207031 60.855469 54.738281 L 60.855469 24.3125 C 60.855469 22.847656 59.675781 21.6875 58.207031 21.667969 L 41.011719 21.667969 C 39.542969 21.667969 38.363281 20.488281 38.363281 19.019531 L 38.363281 15.050781 C 38.363281 13.585938 37.183594 12.40625 35.71875 12.40625 Z M 5.292969 12.40625 "/>
<path style=" stroke:none;fill-rule:nonzero;fill:rgb(100%,100%,100%);fill-opacity:0.313726;" d="M 17.199219 33.574219 L 5.292969 44.15625 L 9.261719 44.15625 L 9.261719 53.417969 C 9.261719 54.148438 9.851562 54.738281 10.582031 54.738281 L 13.230469 54.738281 L 13.230469 49.449219 C 13.230469 47.25 15 45.480469 17.199219 45.480469 C 19.398438 45.480469 21.167969 47.25 21.167969 49.449219 L 21.167969 54.738281 L 23.8125 54.738281 C 24.546875 54.738281 25.136719 54.148438 25.136719 53.417969 L 25.136719 44.15625 L 29.105469 44.15625 L 25.136719 40.628906 L 25.136719 37.542969 L 22.488281 37.542969 L 22.488281 38.277344 Z M 17.199219 33.574219 "/>
</g>
</svg>
