<?xml version="1.0" encoding="UTF-8"?>
<svg xmlns="http://www.w3.org/2000/svg" xmlns:xlink="http://www.w3.org/1999/xlink" width="48px" height="48px" viewBox="0 0 48 48" version="1.1">
<g id="surface1">
<path style=" stroke:none;fill-rule:nonzero;fill:rgb(36.862746%,20.784314%,69.411767%);fill-opacity:1;" d="M 6.945312 5.335938 L 43.65625 5.335938 C 44.753906 5.335938 45.640625 6.222656 45.640625 7.320312 L 45.640625 19.226562 C 45.640625 20.324219 44.753906 21.210938 43.65625 21.210938 L 6.945312 21.210938 C 5.847656 21.210938 4.960938 20.324219 4.960938 19.226562 L 4.960938 7.320312 C 4.960938 6.222656 5.847656 5.335938 6.945312 5.335938 Z M 6.945312 5.335938 "/>
<path style=" stroke:none;fill-rule:nonzero;fill:rgb(96.078432%,96.078432%,96.078432%);fill-opacity:1;" d="M 23.8125 11.289062 L 43.65625 11.289062 C 44.203125 11.289062 44.648438 11.734375 44.648438 12.28125 L 44.648438 19.226562 C 44.648438 19.773438 44.203125 20.21875 43.65625 20.21875 L 23.8125 20.21875 C 23.265625 20.21875 22.820312 19.773438 22.820312 19.226562 L 22.820312 12.28125 C 22.820312 11.734375 23.265625 11.289062 23.8125 11.289062 Z M 23.8125 11.289062 "/>
<path style=" stroke:none;fill-rule:nonzero;fill:rgb(49.411765%,34.117648%,76.078433%);fill-opacity:1;" d="M 3.96875 9.304688 C 2.871094 9.304688 1.984375 10.191406 1.984375 11.289062 L 1.984375 41.054688 C 1.984375 42.152344 2.871094 43.039062 3.96875 43.039062 L 43.65625 43.039062 C 44.753906 43.039062 45.640625 42.152344 45.640625 41.054688 L 45.640625 18.234375 C 45.640625 17.136719 44.753906 16.265625 43.65625 16.25 L 30.757812 16.25 C 29.660156 16.25 28.773438 15.363281 28.773438 14.265625 L 28.773438 11.289062 C 28.773438 10.191406 27.886719 9.304688 26.789062 9.304688 Z M 3.96875 9.304688 "/>
<path style=" stroke:none;fill-rule:nonzero;fill:rgb(100%,100%,100%);fill-opacity:0.313726;" d="M 12.898438 25.179688 C 10.78125 25.179688 8.855469 26.007812 7.429688 27.355469 L 6.160156 26.082031 L 5.457031 30.992188 L 10.367188 30.292969 L 8.835938 28.757812 C 9.894531 27.769531 11.316406 27.164062 12.898438 27.164062 C 16.214844 27.164062 18.851562 29.800781 18.851562 33.117188 C 18.851562 36.433594 16.214844 39.070312 12.898438 39.070312 C 10.882812 39.070312 9.125 38.089844 8.050781 36.582031 C 7.84375 36.289062 7.5 36.125 7.144531 36.160156 C 6.785156 36.191406 6.476562 36.414062 6.328125 36.738281 C 6.183594 37.066406 6.222656 37.445312 6.433594 37.734375 C 7.871094 39.746094 10.238281 41.054688 12.898438 41.054688 C 17.277344 41.054688 20.835938 37.496094 20.835938 33.117188 C 20.835938 28.738281 17.277344 25.179688 12.898438 25.179688 Z M 12.898438 25.179688 "/>
<path style=" stroke:none;fill-rule:nonzero;fill:rgb(100%,100%,100%);fill-opacity:0.313726;" d="M 14.492188 29.574219 C 14.238281 29.578125 13.996094 29.710938 13.863281 29.945312 L 12.308594 32.636719 L 8.417969 32.636719 C 8.144531 32.636719 7.921875 32.859375 7.921875 33.132812 C 7.921875 33.40625 8.144531 33.628906 8.417969 33.628906 L 12.105469 33.628906 C 12.167969 33.761719 12.269531 33.878906 12.40625 33.957031 C 12.761719 34.164062 13.214844 34.042969 13.421875 33.683594 L 13.457031 33.621094 C 13.695312 33.585938 13.875 33.378906 13.875 33.132812 C 13.875 33.070312 13.863281 33.011719 13.84375 32.957031 L 15.152344 30.691406 C 15.359375 30.332031 15.234375 29.878906 14.878906 29.671875 C 14.757812 29.601562 14.621094 29.570312 14.492188 29.574219 Z M 14.492188 29.574219 "/>
</g>
</svg>
