<?xml version="1.0" encoding="UTF-8"?>
<svg xmlns="http://www.w3.org/2000/svg" xmlns:xlink="http://www.w3.org/1999/xlink" width="48px" height="48px" viewBox="0 0 48 48" version="1.1">
<g id="surface1">
<path style=" stroke:none;fill-rule:nonzero;fill:rgb(36.862746%,20.784314%,69.411767%);fill-opacity:1;" d="M 6.945312 5.335938 L 43.65625 5.335938 C 44.753906 5.335938 45.640625 6.222656 45.640625 7.320312 L 45.640625 19.226562 C 45.640625 20.324219 44.753906 21.210938 43.65625 21.210938 L 6.945312 21.210938 C 5.847656 21.210938 4.960938 20.324219 4.960938 19.226562 L 4.960938 7.320312 C 4.960938 6.222656 5.847656 5.335938 6.945312 5.335938 Z M 6.945312 5.335938 "/>
<path style=" stroke:none;fill-rule:nonzero;fill:rgb(96.078432%,96.078432%,96.078432%);fill-opacity:1;" d="M 23.8125 11.289062 L 43.65625 11.289062 C 44.203125 11.289062 44.648438 11.734375 44.648438 12.28125 L 44.648438 19.226562 C 44.648438 19.773438 44.203125 20.21875 43.65625 20.21875 L 23.8125 20.21875 C 23.265625 20.21875 22.820312 19.773438 22.820312 19.226562 L 22.820312 12.28125 C 22.820312 11.734375 23.265625 11.289062 23.8125 11.289062 Z M 23.8125 11.289062 "/>
<path style=" stroke:none;fill-rule:nonzero;fill:rgb(49.411765%,34.117648%,76.078433%);fill-opacity:1;" d="M 3.96875 9.304688 C 2.871094 9.304688 1.984375 10.191406 1.984375 11.289062 L 1.984375 41.054688 C 1.984375 42.152344 2.871094 43.039062 3.96875 43.039062 L 43.65625 43.039062 C 44.753906 43.039062 45.640625 42.152344 45.640625 41.054688 L 45.640625 18.234375 C 45.640625 17.136719 44.753906 16.265625 43.65625 16.25 L 30.757812 16.25 C 29.660156 16.25 28.773438 15.363281 28.773438 14.265625 L 28.773438 11.289062 C 28.773438 10.191406 27.886719 9.304688 26.789062 9.304688 Z M 3.96875 9.304688 "/>
<path style=" stroke:none;fill-rule:nonzero;fill:rgb(100%,100%,100%);fill-opacity:0.313726;" d="M 9.921875 25.179688 C 9.371094 25.179688 8.929688 25.621094 8.929688 26.171875 L 8.929688 28.15625 L 8.433594 28.15625 C 8.433594 27.882812 8.210938 27.660156 7.9375 27.660156 L 7.441406 27.660156 C 7.167969 27.660156 6.945312 27.882812 6.945312 28.15625 L 6.449219 28.15625 C 6.449219 27.882812 6.226562 27.660156 5.953125 27.660156 L 5.457031 27.660156 C 5.183594 27.660156 4.960938 27.882812 4.960938 28.15625 C 4.410156 28.15625 3.96875 28.597656 3.96875 29.148438 L 3.96875 40.0625 C 3.96875 40.613281 4.410156 41.054688 4.960938 41.054688 L 20.835938 41.054688 C 21.386719 41.054688 21.828125 40.613281 21.828125 40.0625 L 21.828125 29.148438 C 21.828125 28.597656 21.386719 28.15625 20.835938 28.15625 L 20.339844 28.15625 C 20.339844 27.882812 20.117188 27.660156 19.84375 27.660156 L 18.355469 27.660156 C 18.082031 27.660156 17.859375 27.882812 17.859375 28.15625 L 16.867188 28.15625 L 16.867188 26.171875 C 16.867188 25.621094 16.425781 25.179688 15.875 25.179688 Z M 10.417969 26.171875 L 15.378906 26.171875 C 15.652344 26.171875 15.875 26.394531 15.875 26.667969 L 15.875 28.15625 L 9.921875 28.15625 L 9.921875 26.667969 C 9.921875 26.394531 10.144531 26.171875 10.417969 26.171875 Z M 5.953125 29.644531 L 7.441406 29.644531 C 7.714844 29.644531 7.9375 29.867188 7.9375 30.140625 L 7.9375 30.636719 C 7.9375 30.910156 7.714844 31.132812 7.441406 31.132812 L 5.953125 31.132812 C 5.679688 31.132812 5.457031 30.910156 5.457031 30.636719 L 5.457031 30.140625 C 5.457031 29.867188 5.679688 29.644531 5.953125 29.644531 Z M 12.898438 30.140625 C 15.371094 30.140625 17.363281 32.132812 17.363281 34.605469 C 17.363281 37.078125 15.371094 39.070312 12.898438 39.070312 C 10.425781 39.070312 8.433594 37.078125 8.433594 34.605469 C 8.433594 32.132812 10.425781 30.140625 12.898438 30.140625 Z M 12.898438 31.132812 C 10.972656 31.132812 9.425781 32.679688 9.425781 34.605469 C 9.425781 36.53125 10.972656 38.078125 12.898438 38.078125 C 14.824219 38.078125 16.371094 36.53125 16.371094 34.605469 C 16.371094 32.679688 14.824219 31.132812 12.898438 31.132812 Z M 12.898438 32.125 C 14.273438 32.125 15.378906 33.230469 15.378906 34.605469 C 15.378906 35.980469 14.273438 37.085938 12.898438 37.085938 C 11.523438 37.085938 10.417969 35.980469 10.417969 34.605469 C 10.417969 33.230469 11.523438 32.125 12.898438 32.125 Z M 12.898438 33.117188 C 12.074219 33.117188 11.410156 33.78125 11.410156 34.605469 C 11.410156 35.429688 12.074219 36.09375 12.898438 36.09375 C 13.722656 36.09375 14.386719 35.429688 14.386719 34.605469 C 14.386719 33.78125 13.722656 33.117188 12.898438 33.117188 Z M 12.898438 33.117188 "/>
</g>
</svg>
