<?xml version="1.0" encoding="UTF-8"?>
<svg xmlns="http://www.w3.org/2000/svg" xmlns:xlink="http://www.w3.org/1999/xlink" width="48px" height="48px" viewBox="0 0 48 48" version="1.1">
<g id="surface1">
<path style=" stroke:none;fill-rule:nonzero;fill:rgb(36.862746%,20.784314%,69.411767%);fill-opacity:1;" d="M 6.945312 5.335938 L 43.65625 5.335938 C 44.753906 5.335938 45.640625 6.222656 45.640625 7.320312 L 45.640625 19.226562 C 45.640625 20.324219 44.753906 21.210938 43.65625 21.210938 L 6.945312 21.210938 C 5.847656 21.210938 4.960938 20.324219 4.960938 19.226562 L 4.960938 7.320312 C 4.960938 6.222656 5.847656 5.335938 6.945312 5.335938 Z M 6.945312 5.335938 "/>
<path style=" stroke:none;fill-rule:nonzero;fill:rgb(96.078432%,96.078432%,96.078432%);fill-opacity:1;" d="M 23.8125 11.289062 L 43.65625 11.289062 C 44.203125 11.289062 44.648438 11.734375 44.648438 12.28125 L 44.648438 19.226562 C 44.648438 19.773438 44.203125 20.21875 43.65625 20.21875 L 23.8125 20.21875 C 23.265625 20.21875 22.820312 19.773438 22.820312 19.226562 L 22.820312 12.28125 C 22.820312 11.734375 23.265625 11.289062 23.8125 11.289062 Z M 23.8125 11.289062 "/>
<path style=" stroke:none;fill-rule:nonzero;fill:rgb(49.411765%,34.117648%,76.078433%);fill-opacity:1;" d="M 3.96875 9.304688 C 2.871094 9.304688 1.984375 10.191406 1.984375 11.289062 L 1.984375 41.054688 C 1.984375 42.152344 2.871094 43.039062 3.96875 43.039062 L 43.65625 43.039062 C 44.753906 43.039062 45.640625 42.152344 45.640625 41.054688 L 45.640625 17.242188 C 45.640625 16.144531 44.753906 15.257812 43.65625 15.257812 L 30.757812 15.257812 C 29.660156 15.257812 28.773438 14.371094 28.773438 13.273438 L 28.773438 11.289062 C 28.773438 10.191406 27.886719 9.304688 26.789062 9.304688 Z M 3.96875 9.304688 "/>
<path style=" stroke:none;fill-rule:nonzero;fill:rgb(100%,100%,100%);fill-opacity:0.27451;" d="M 17.859375 19.175781 C 16.761719 19.175781 15.875 20.0625 15.875 21.160156 C 15.875 22.089844 16.503906 22.863281 17.363281 23.082031 L 17.363281 32.050781 C 17.363281 32.054688 17.363281 32.058594 17.363281 32.0625 C 17.363281 32.066406 17.363281 32.070312 17.363281 32.074219 C 17.363281 32.351562 17.585938 32.570312 17.859375 32.570312 L 20.875 32.570312 C 21.113281 33.984375 22.332031 35.050781 23.8125 35.050781 C 25.292969 35.050781 26.511719 33.984375 26.75 32.570312 L 29.765625 32.570312 C 29.769531 32.570312 29.773438 32.570312 29.777344 32.570312 C 29.78125 32.570312 29.785156 32.570312 29.789062 32.570312 C 30.074219 32.570312 30.308594 32.339844 30.308594 32.054688 L 30.308594 23.070312 C 31.140625 22.835938 31.75 22.074219 31.75 21.160156 C 31.75 20.0625 30.863281 19.175781 29.765625 19.175781 C 28.667969 19.175781 27.78125 20.0625 27.78125 21.160156 C 27.78125 22.089844 28.410156 22.863281 29.269531 23.082031 L 29.269531 31.578125 L 26.746094 31.578125 C 26.539062 30.328125 25.558594 29.347656 24.308594 29.140625 L 24.308594 26.554688 C 25.167969 26.335938 25.796875 25.5625 25.796875 24.632812 C 25.796875 23.535156 24.910156 22.648438 23.8125 22.648438 C 22.714844 22.648438 21.828125 23.535156 21.828125 24.632812 C 21.828125 25.5625 22.457031 26.335938 23.316406 26.554688 L 23.316406 29.140625 C 22.066406 29.347656 21.085938 30.328125 20.878906 31.578125 L 18.402344 31.578125 L 18.402344 23.070312 C 19.234375 22.835938 19.84375 22.074219 19.84375 21.160156 C 19.84375 20.0625 18.957031 19.175781 17.859375 19.175781 Z M 17.859375 19.175781 "/>
</g>
</svg>
