<?xml version="1.0" encoding="UTF-8"?>
<svg xmlns="http://www.w3.org/2000/svg" xmlns:xlink="http://www.w3.org/1999/xlink" width="22px" height="22px" viewBox="0 0 22 22" version="1.1">
<g id="surface1">
<path style=" stroke:none;fill-rule:nonzero;fill:rgb(93.725491%,32.549021%,31.37255%);fill-opacity:1;" d="M 10.914062 1.535156 C 11.96875 1.535156 13.144531 7.230469 14 7.851562 C 14.851562 8.46875 20.632812 7.832031 20.957031 8.832031 C 21.28125 9.835938 16.230469 12.714844 15.90625 13.71875 C 15.578125 14.71875 17.972656 20.019531 17.121094 20.640625 C 16.269531 21.257812 11.96875 17.34375 10.914062 17.34375 C 9.859375 17.34375 5.558594 21.257812 4.707031 20.640625 C 3.855469 20.019531 6.25 14.71875 5.921875 13.71875 C 5.597656 12.714844 0.546875 9.835938 0.871094 8.832031 C 1.195312 7.832031 6.976562 8.46875 7.828125 7.851562 C 8.683594 7.230469 9.859375 1.535156 10.914062 1.535156 Z M 10.914062 1.535156 "/>
</g>
</svg>
