<?xml version="1.0" encoding="UTF-8"?>
<svg xmlns="http://www.w3.org/2000/svg" xmlns:xlink="http://www.w3.org/1999/xlink" width="22px" height="22px" viewBox="0 0 22 22" version="1.1">
<g id="surface1">
<path style=" stroke:none;fill-rule:nonzero;fill:rgb(12.941177%,12.941177%,12.941177%);fill-opacity:1;" d="M 3.183594 2.445312 L 20.007812 2.445312 C 20.511719 2.445312 20.917969 2.851562 20.917969 3.355469 L 20.917969 8.8125 C 20.917969 9.316406 20.511719 9.722656 20.007812 9.722656 L 3.183594 9.722656 C 2.679688 9.722656 2.273438 9.316406 2.273438 8.8125 L 2.273438 3.355469 C 2.273438 2.851562 2.679688 2.445312 3.183594 2.445312 Z M 3.183594 2.445312 "/>
<path style=" stroke:none;fill-rule:nonzero;fill:rgb(96.078432%,96.078432%,96.078432%);fill-opacity:1;" d="M 10.914062 5.175781 L 20.007812 5.175781 C 20.261719 5.175781 20.464844 5.378906 20.464844 5.628906 L 20.464844 8.8125 C 20.464844 9.0625 20.261719 9.265625 20.007812 9.265625 L 10.914062 9.265625 C 10.664062 9.265625 10.460938 9.0625 10.460938 8.8125 L 10.460938 5.628906 C 10.460938 5.378906 10.664062 5.175781 10.914062 5.175781 Z M 10.914062 5.175781 "/>
<path style=" stroke:none;fill-rule:nonzero;fill:rgb(25.882354%,25.882354%,25.882354%);fill-opacity:1;" d="M 1.820312 4.265625 C 1.316406 4.265625 0.910156 4.671875 0.910156 5.175781 L 0.910156 18.816406 C 0.910156 19.320312 1.316406 19.726562 1.820312 19.726562 L 20.007812 19.726562 C 20.511719 19.726562 20.917969 19.320312 20.917969 18.816406 L 20.917969 7.902344 C 20.917969 7.398438 20.511719 6.988281 20.007812 6.992188 L 14.097656 6.992188 C 13.59375 6.992188 13.1875 6.585938 13.1875 6.082031 L 13.1875 5.175781 C 13.1875 4.671875 12.78125 4.265625 12.277344 4.265625 Z M 1.820312 4.265625 "/>
<path style=" stroke:none;fill-rule:nonzero;fill:rgb(12.941177%,12.941177%,12.941177%);fill-opacity:1;" d="M 10.914062 8.355469 C 9.65625 8.355469 8.640625 9.371094 8.640625 10.632812 L 8.640625 12.449219 L 8.1875 12.449219 C 7.933594 12.449219 7.730469 12.652344 7.730469 12.90625 L 7.730469 15.179688 C 7.730469 15.429688 7.933594 15.632812 8.1875 15.632812 L 13.640625 15.632812 C 13.894531 15.632812 14.097656 15.429688 14.097656 15.179688 L 14.097656 12.90625 C 14.097656 12.652344 13.894531 12.449219 13.640625 12.449219 L 13.1875 12.449219 L 13.1875 10.632812 C 13.1875 9.371094 12.171875 8.355469 10.914062 8.355469 Z M 10.914062 9.265625 C 11.667969 9.265625 12.277344 9.875 12.277344 10.632812 L 12.277344 12.449219 L 9.550781 12.449219 L 9.550781 10.632812 C 9.550781 9.875 10.160156 9.265625 10.914062 9.265625 Z M 10.914062 9.265625 "/>
<path style=" stroke:none;fill-rule:nonzero;fill:rgb(100%,100%,100%);fill-opacity:0.27451;" d="M 1.363281 16.542969 L 1.363281 17.453125 L 2.273438 17.453125 L 2.273438 16.542969 Z M 2.273438 17.453125 L 2.273438 18.363281 L 3.183594 18.363281 L 3.183594 17.453125 Z M 3.183594 17.453125 L 4.09375 17.453125 L 4.09375 16.542969 L 3.183594 16.542969 Z M 4.09375 17.453125 L 4.09375 18.363281 L 5.003906 18.363281 L 5.003906 17.453125 Z M 5.003906 17.453125 L 5.910156 17.453125 L 5.910156 16.542969 L 5.003906 16.542969 Z M 5.910156 17.453125 L 5.910156 18.363281 L 6.820312 18.363281 L 6.820312 17.453125 Z M 6.820312 17.453125 L 7.730469 17.453125 L 7.730469 16.542969 L 6.820312 16.542969 Z M 7.730469 17.453125 L 7.730469 18.363281 L 8.640625 18.363281 L 8.640625 17.453125 Z M 8.640625 17.453125 L 9.550781 17.453125 L 9.550781 16.542969 L 8.640625 16.542969 Z M 9.550781 17.453125 L 9.550781 18.363281 L 10.460938 18.363281 L 10.460938 17.453125 Z M 10.460938 17.453125 L 11.367188 17.453125 L 11.367188 16.542969 L 10.460938 16.542969 Z M 11.367188 17.453125 L 11.367188 18.363281 L 12.277344 18.363281 L 12.277344 17.453125 Z M 12.277344 17.453125 L 13.1875 17.453125 L 13.1875 16.542969 L 12.277344 16.542969 Z M 13.1875 17.453125 L 13.1875 18.363281 L 14.097656 18.363281 L 14.097656 17.453125 Z M 14.097656 17.453125 L 15.007812 17.453125 L 15.007812 16.542969 L 14.097656 16.542969 Z M 15.007812 17.453125 L 15.007812 18.363281 L 15.917969 18.363281 L 15.917969 17.453125 Z M 15.917969 17.453125 L 16.824219 17.453125 L 16.824219 16.542969 L 15.917969 16.542969 Z M 16.824219 17.453125 L 16.824219 18.363281 L 17.734375 18.363281 L 17.734375 17.453125 Z M 17.734375 17.453125 L 18.644531 17.453125 L 18.644531 16.542969 L 17.734375 16.542969 Z M 18.644531 17.453125 L 18.644531 18.363281 L 19.554688 18.363281 L 19.554688 17.453125 Z M 19.554688 17.453125 L 20.464844 17.453125 L 20.464844 16.542969 L 19.554688 16.542969 Z M 20.464844 17.453125 L 20.464844 18.363281 L 20.917969 18.363281 L 20.917969 17.453125 Z M 20.464844 18.363281 L 19.554688 18.363281 L 19.554688 19.269531 L 20.464844 19.269531 Z M 18.644531 18.363281 L 17.734375 18.363281 L 17.734375 19.269531 L 18.644531 19.269531 Z M 16.824219 18.363281 L 15.917969 18.363281 L 15.917969 19.269531 L 16.824219 19.269531 Z M 15.007812 18.363281 L 14.097656 18.363281 L 14.097656 19.269531 L 15.007812 19.269531 Z M 13.1875 18.363281 L 12.277344 18.363281 L 12.277344 19.269531 L 13.1875 19.269531 Z M 11.367188 18.363281 L 10.460938 18.363281 L 10.460938 19.269531 L 11.367188 19.269531 Z M 9.550781 18.363281 L 8.640625 18.363281 L 8.640625 19.269531 L 9.550781 19.269531 Z M 7.730469 18.363281 L 6.820312 18.363281 L 6.820312 19.269531 L 7.730469 19.269531 Z M 5.910156 18.363281 L 5.003906 18.363281 L 5.003906 19.269531 L 5.910156 19.269531 Z M 4.09375 18.363281 L 3.183594 18.363281 L 3.183594 19.269531 L 4.09375 19.269531 Z M 2.273438 18.363281 L 1.363281 18.363281 L 1.363281 19.269531 L 2.273438 19.269531 Z M 1.363281 18.363281 L 1.363281 17.453125 L 0.910156 17.453125 L 0.910156 18.363281 Z M 1.363281 18.363281 "/>
</g>
</svg>
