<?xml version="1.0" encoding="UTF-8"?>
<svg xmlns="http://www.w3.org/2000/svg" xmlns:xlink="http://www.w3.org/1999/xlink" width="22px" height="22px" viewBox="0 0 22 22" version="1.1">
<g id="surface1">
<path style=" stroke:none;fill-rule:nonzero;fill:rgb(36.862746%,20.784314%,69.411767%);fill-opacity:1;" d="M 3.183594 2.445312 L 20.007812 2.445312 C 20.511719 2.445312 20.917969 2.851562 20.917969 3.355469 L 20.917969 8.8125 C 20.917969 9.316406 20.511719 9.722656 20.007812 9.722656 L 3.183594 9.722656 C 2.679688 9.722656 2.273438 9.316406 2.273438 8.8125 L 2.273438 3.355469 C 2.273438 2.851562 2.679688 2.445312 3.183594 2.445312 Z M 3.183594 2.445312 "/>
<path style=" stroke:none;fill-rule:nonzero;fill:rgb(96.078432%,96.078432%,96.078432%);fill-opacity:1;" d="M 10.914062 5.175781 L 20.007812 5.175781 C 20.261719 5.175781 20.464844 5.378906 20.464844 5.628906 L 20.464844 8.8125 C 20.464844 9.0625 20.261719 9.265625 20.007812 9.265625 L 10.914062 9.265625 C 10.664062 9.265625 10.460938 9.0625 10.460938 8.8125 L 10.460938 5.628906 C 10.460938 5.378906 10.664062 5.175781 10.914062 5.175781 Z M 10.914062 5.175781 "/>
<path style=" stroke:none;fill-rule:nonzero;fill:rgb(49.411765%,34.117648%,76.078433%);fill-opacity:1;" d="M 1.820312 4.265625 C 1.316406 4.265625 0.910156 4.671875 0.910156 5.175781 L 0.910156 18.816406 C 0.910156 19.320312 1.316406 19.726562 1.820312 19.726562 L 20.007812 19.726562 C 20.511719 19.726562 20.917969 19.320312 20.917969 18.816406 L 20.917969 7.902344 C 20.917969 7.398438 20.511719 6.992188 20.007812 6.992188 L 14.097656 6.992188 C 13.59375 6.992188 13.1875 6.585938 13.1875 6.082031 L 13.1875 5.175781 C 13.1875 4.671875 12.78125 4.265625 12.277344 4.265625 Z M 1.820312 4.265625 "/>
<path style=" stroke:none;fill-rule:nonzero;fill:rgb(100%,100%,100%);fill-opacity:0.27451;" d="M 9.550781 8.8125 C 9.296875 8.8125 9.09375 9.015625 9.09375 9.265625 L 9.09375 10.175781 L 8.867188 10.175781 C 8.867188 10.050781 8.765625 9.949219 8.640625 9.949219 L 8.414062 9.949219 C 8.285156 9.949219 8.183594 10.050781 8.183594 10.175781 L 7.957031 10.175781 C 7.957031 10.050781 7.855469 9.949219 7.730469 9.949219 L 7.503906 9.949219 C 7.378906 9.949219 7.277344 10.050781 7.277344 10.175781 C 7.023438 10.175781 6.820312 10.378906 6.820312 10.632812 L 6.820312 15.632812 C 6.820312 15.886719 7.023438 16.089844 7.277344 16.089844 L 14.550781 16.089844 C 14.804688 16.089844 15.007812 15.886719 15.007812 15.632812 L 15.007812 10.632812 C 15.007812 10.378906 14.804688 10.175781 14.550781 10.175781 L 14.324219 10.175781 C 14.324219 10.050781 14.222656 9.949219 14.097656 9.949219 L 13.414062 9.949219 C 13.289062 9.949219 13.1875 10.050781 13.1875 10.175781 L 12.734375 10.175781 L 12.734375 9.265625 C 12.734375 9.015625 12.53125 8.8125 12.277344 8.8125 Z M 9.777344 9.265625 L 12.050781 9.265625 C 12.175781 9.265625 12.277344 9.367188 12.277344 9.496094 L 12.277344 10.175781 L 9.550781 10.175781 L 9.550781 9.496094 C 9.550781 9.367188 9.652344 9.265625 9.777344 9.265625 Z M 7.730469 10.859375 L 8.414062 10.859375 C 8.539062 10.859375 8.640625 10.960938 8.640625 11.085938 L 8.640625 11.3125 C 8.640625 11.4375 8.539062 11.539062 8.414062 11.539062 L 7.730469 11.539062 C 7.605469 11.539062 7.503906 11.4375 7.503906 11.3125 L 7.503906 11.085938 C 7.503906 10.960938 7.605469 10.859375 7.730469 10.859375 Z M 10.914062 11.085938 C 12.046875 11.085938 12.960938 12 12.960938 13.132812 C 12.960938 14.265625 12.046875 15.179688 10.914062 15.179688 C 9.78125 15.179688 8.867188 14.265625 8.867188 13.132812 C 8.867188 12 9.78125 11.085938 10.914062 11.085938 Z M 10.914062 11.539062 C 10.03125 11.539062 9.324219 12.25 9.324219 13.132812 C 9.324219 14.015625 10.03125 14.722656 10.914062 14.722656 C 11.796875 14.722656 12.503906 14.015625 12.503906 13.132812 C 12.503906 12.25 11.796875 11.539062 10.914062 11.539062 Z M 10.914062 11.996094 C 11.542969 11.996094 12.050781 12.503906 12.050781 13.132812 C 12.050781 13.761719 11.542969 14.269531 10.914062 14.269531 C 10.285156 14.269531 9.777344 13.761719 9.777344 13.132812 C 9.777344 12.503906 10.285156 11.996094 10.914062 11.996094 Z M 10.914062 12.449219 C 10.535156 12.449219 10.230469 12.753906 10.230469 13.132812 C 10.230469 13.511719 10.535156 13.8125 10.914062 13.8125 C 11.292969 13.8125 11.597656 13.511719 11.597656 13.132812 C 11.597656 12.753906 11.292969 12.449219 10.914062 12.449219 Z M 10.914062 12.449219 "/>
</g>
</svg>
