<?xml version="1.0" encoding="UTF-8"?>
<svg xmlns="http://www.w3.org/2000/svg" xmlns:xlink="http://www.w3.org/1999/xlink" width="22px" height="22px" viewBox="0 0 22 22" version="1.1">
<g id="surface1">
<path style=" stroke:none;fill-rule:nonzero;fill:rgb(36.862746%,20.784314%,69.411767%);fill-opacity:1;" d="M 3.183594 2.445312 L 20.007812 2.445312 C 20.511719 2.445312 20.917969 2.851562 20.917969 3.355469 L 20.917969 8.8125 C 20.917969 9.316406 20.511719 9.722656 20.007812 9.722656 L 3.183594 9.722656 C 2.679688 9.722656 2.273438 9.316406 2.273438 8.8125 L 2.273438 3.355469 C 2.273438 2.851562 2.679688 2.445312 3.183594 2.445312 Z M 3.183594 2.445312 "/>
<path style=" stroke:none;fill-rule:nonzero;fill:rgb(96.078432%,96.078432%,96.078432%);fill-opacity:1;" d="M 10.914062 5.175781 L 20.007812 5.175781 C 20.261719 5.175781 20.464844 5.378906 20.464844 5.628906 L 20.464844 8.8125 C 20.464844 9.0625 20.261719 9.265625 20.007812 9.265625 L 10.914062 9.265625 C 10.664062 9.265625 10.460938 9.0625 10.460938 8.8125 L 10.460938 5.628906 C 10.460938 5.378906 10.664062 5.175781 10.914062 5.175781 Z M 10.914062 5.175781 "/>
<path style=" stroke:none;fill-rule:nonzero;fill:rgb(49.411765%,34.117648%,76.078433%);fill-opacity:1;" d="M 1.820312 4.265625 C 1.316406 4.265625 0.910156 4.671875 0.910156 5.175781 L 0.910156 18.816406 C 0.910156 19.320312 1.316406 19.726562 1.820312 19.726562 L 20.007812 19.726562 C 20.511719 19.726562 20.917969 19.320312 20.917969 18.816406 L 20.917969 7.902344 C 20.917969 7.398438 20.511719 6.992188 20.007812 6.992188 L 14.097656 6.992188 C 13.59375 6.992188 13.1875 6.585938 13.1875 6.082031 L 13.1875 5.175781 C 13.1875 4.671875 12.78125 4.265625 12.277344 4.265625 Z M 1.820312 4.265625 "/>
<path style=" stroke:none;fill-rule:nonzero;fill:rgb(100%,100%,100%);fill-opacity:0.27451;" d="M 8.1875 8.8125 C 7.933594 8.8125 7.730469 9.015625 7.730469 9.265625 L 7.730469 15.632812 C 7.730469 15.886719 7.933594 16.089844 8.1875 16.089844 L 8.640625 16.089844 L 8.640625 8.8125 Z M 9.09375 8.8125 L 9.09375 16.089844 L 13.640625 16.089844 C 13.894531 16.089844 14.097656 15.886719 14.097656 15.632812 L 14.097656 9.265625 C 14.097656 9.015625 13.894531 8.8125 13.640625 8.8125 Z M 10.460938 10.402344 L 12.503906 10.402344 C 12.632812 10.402344 12.734375 10.503906 12.734375 10.632812 C 12.734375 10.757812 12.632812 10.859375 12.503906 10.859375 L 10.460938 10.859375 C 10.332031 10.859375 10.230469 10.757812 10.230469 10.632812 C 10.230469 10.503906 10.332031 10.402344 10.460938 10.402344 Z M 10.460938 11.539062 L 12.503906 11.539062 C 12.632812 11.539062 12.734375 11.640625 12.734375 11.769531 C 12.734375 11.894531 12.632812 11.996094 12.503906 11.996094 L 10.460938 11.996094 C 10.332031 11.996094 10.230469 11.894531 10.230469 11.769531 C 10.230469 11.640625 10.332031 11.539062 10.460938 11.539062 Z M 10.460938 12.675781 L 12.503906 12.675781 C 12.632812 12.675781 12.734375 12.777344 12.734375 12.90625 C 12.734375 13.03125 12.632812 13.132812 12.503906 13.132812 L 10.460938 13.132812 C 10.332031 13.132812 10.230469 13.03125 10.230469 12.90625 C 10.230469 12.777344 10.332031 12.675781 10.460938 12.675781 Z M 10.460938 12.675781 "/>
</g>
</svg>
