<?xml version="1.0" encoding="UTF-8"?>
<svg xmlns="http://www.w3.org/2000/svg" xmlns:xlink="http://www.w3.org/1999/xlink" width="48px" height="48px" viewBox="0 0 48 48" version="1.1">
<g id="surface1">
<path style=" stroke:none;fill-rule:nonzero;fill:rgb(40.000001%,73.333335%,41.568628%);fill-opacity:1;" d="M 3.96875 2.359375 L 43.65625 2.359375 C 44.753906 2.359375 45.640625 3.246094 45.640625 4.34375 L 45.640625 44.03125 C 45.640625 45.128906 44.753906 46.015625 43.65625 46.015625 L 3.96875 46.015625 C 2.871094 46.015625 1.984375 45.128906 1.984375 44.03125 L 1.984375 4.34375 C 1.984375 3.246094 2.871094 2.359375 3.96875 2.359375 Z M 3.96875 2.359375 "/>
<path style=" stroke:none;fill-rule:nonzero;fill:rgb(93.333334%,93.333334%,93.333334%);fill-opacity:1;" d="M 28.4375 8.3125 C 26.730469 8.3125 25.347656 9.699219 25.347656 11.40625 C 25.347656 13.113281 26.730469 14.5 28.4375 14.5 C 30.148438 14.5 31.535156 13.113281 31.535156 11.40625 C 31.535156 9.699219 30.148438 8.3125 28.4375 8.3125 Z M 24.15625 14.808594 C 24.019531 14.804688 23.882812 14.820312 23.75 14.855469 L 17.621094 16.425781 C 16.921875 16.605469 16.429688 17.234375 16.429688 17.953125 L 16.429688 25.039062 C 16.402344 27.167969 19.273438 27.167969 19.242188 25.039062 L 19.242188 19.242188 L 23.382812 18.054688 L 22.773438 20.285156 C 22.378906 21.445312 22.007812 22.601562 21.726562 23.742188 C 21.433594 24.765625 21.351562 25.652344 21.445312 26.386719 L 17.132812 31.308594 L 10.867188 30.558594 C 8.78125 30.328125 8.433594 33.457031 10.519531 33.6875 L 17.605469 34.53125 C 18.117188 34.589844 18.625 34.390625 18.964844 34.003906 L 23.414062 28.914062 C 23.484375 28.9375 23.554688 28.957031 23.628906 28.976562 C 23.699219 29.050781 23.777344 29.121094 23.859375 29.183594 L 28.378906 32.421875 L 31.351562 39.113281 C 32.203125 41.035156 35.082031 39.753906 34.226562 37.835938 L 31.082031 30.75 C 30.964844 30.496094 30.785156 30.277344 30.558594 30.113281 L 26.960938 27.53125 C 27.699219 26.261719 28.011719 24.445312 28.441406 22.917969 L 29.445312 25.128906 C 29.898438 26.128906 31.214844 26.367188 31.992188 25.589844 L 36.714844 20.867188 C 38.257812 19.382812 35.96875 17.097656 34.488281 18.640625 L 31.371094 21.757812 L 29.65625 18.347656 C 29.6875 17.8125 29.605469 17.363281 29.464844 17.015625 C 28.980469 15.851562 28.304688 15.734375 27.203125 15.480469 L 24.589844 14.871094 C 24.585938 14.871094 24.585938 14.871094 24.585938 14.875 C 24.445312 14.832031 24.300781 14.808594 24.15625 14.808594 Z M 24.15625 14.808594 "/>
</g>
</svg>
