<?xml version="1.0" encoding="UTF-8"?>
<svg xmlns="http://www.w3.org/2000/svg" xmlns:xlink="http://www.w3.org/1999/xlink" width="48px" height="48px" viewBox="0 0 48 48" version="1.1">
<g id="surface1">
<path style=" stroke:none;fill-rule:nonzero;fill:rgb(36.078432%,41.960785%,75.294119%);fill-opacity:1;" d="M 23.8125 2.359375 C 35.867188 2.359375 45.640625 12.132812 45.640625 24.1875 C 45.640625 36.242188 35.867188 46.015625 23.8125 46.015625 C 11.757812 46.015625 1.984375 36.242188 1.984375 24.1875 C 1.984375 12.132812 11.757812 2.359375 23.8125 2.359375 Z M 23.8125 2.359375 "/>
<path style=" stroke:none;fill-rule:nonzero;fill:rgb(93.333334%,93.333334%,93.333334%);fill-opacity:1;" d="M 23.859375 10.300781 C 23.457031 10.289062 23.070312 10.4375 22.777344 10.71875 C 22.488281 10.996094 22.328125 11.382812 22.328125 11.785156 L 22.328125 20.769531 L 17.386719 16.15625 C 17 15.785156 16.441406 15.648438 15.925781 15.800781 C 15.414062 15.957031 15.023438 16.375 14.902344 16.898438 C 14.785156 17.421875 14.960938 17.96875 15.355469 18.328125 L 21.636719 24.1875 L 15.355469 30.046875 C 14.960938 30.40625 14.785156 30.953125 14.902344 31.476562 C 15.023438 32 15.414062 32.417969 15.925781 32.574219 C 16.441406 32.726562 17 32.589844 17.386719 32.21875 L 22.328125 27.605469 L 22.328125 36.589844 C 22.328125 37.148438 22.640625 37.660156 23.140625 37.914062 C 23.640625 38.167969 24.238281 38.117188 24.691406 37.789062 L 32.132812 32.332031 C 32.488281 32.070312 32.710938 31.664062 32.738281 31.21875 C 32.761719 30.777344 32.589844 30.347656 32.269531 30.046875 L 25.988281 24.1875 L 32.269531 18.328125 C 32.589844 18.027344 32.761719 17.597656 32.738281 17.15625 C 32.710938 16.710938 32.488281 16.304688 32.132812 16.042969 L 24.691406 10.585938 C 24.449219 10.410156 24.160156 10.308594 23.859375 10.300781 Z M 25.296875 14.71875 L 28.929688 17.378906 L 25.296875 20.769531 Z M 25.296875 27.605469 L 28.929688 30.996094 L 25.296875 33.65625 Z M 25.296875 27.605469 "/>
</g>
</svg>
