<?xml version="1.0" encoding="UTF-8"?>
<svg xmlns="http://www.w3.org/2000/svg" xmlns:xlink="http://www.w3.org/1999/xlink" width="48px" height="48px" viewBox="0 0 48 48" version="1.1">
<g id="surface1">
<path style=" stroke:none;fill-rule:nonzero;fill:rgb(12.941177%,58.823532%,95.294118%);fill-opacity:1;" d="M 32.742188 20.21875 C 39.867188 20.21875 45.640625 25.992188 45.640625 33.117188 C 45.640625 40.242188 39.867188 46.015625 32.742188 46.015625 C 25.617188 46.015625 19.84375 40.242188 19.84375 33.117188 C 19.84375 25.992188 25.617188 20.21875 32.742188 20.21875 Z M 32.742188 20.21875 "/>
<path style=" stroke:none;fill-rule:nonzero;fill:rgb(12.941177%,58.823532%,95.294118%);fill-opacity:1;" d="M 14.882812 2.359375 C 22.007812 2.359375 27.78125 8.132812 27.78125 15.257812 C 27.78125 22.382812 22.007812 28.15625 14.882812 28.15625 C 7.757812 28.15625 1.984375 22.382812 1.984375 15.257812 C 1.984375 8.132812 7.757812 2.359375 14.882812 2.359375 Z M 14.882812 2.359375 "/>
<path style=" stroke:none;fill-rule:nonzero;fill:rgb(25.882354%,64.705884%,96.078432%);fill-opacity:1;" d="M 23.8125 4.34375 C 34.773438 4.34375 43.65625 13.226562 43.65625 24.1875 C 43.65625 35.148438 34.773438 44.03125 23.8125 44.03125 C 12.851562 44.03125 3.96875 35.148438 3.96875 24.1875 C 3.96875 13.226562 12.851562 4.34375 23.8125 4.34375 Z M 23.8125 4.34375 "/>
<path style=" stroke:none;fill-rule:nonzero;fill:rgb(96.078432%,96.078432%,96.078432%);fill-opacity:1;" d="M 23.824219 10.296875 C 21.507812 10.257812 19.304688 10.832031 17.609375 12.195312 C 15.914062 13.5625 14.871094 15.746094 14.871094 18.234375 C 14.871094 20.878906 16.429688 22.90625 18.148438 24 C 19.867188 25.09375 21.75 25.59375 23.175781 26.070312 C 24.726562 26.585938 26.316406 27.078125 27.328125 27.722656 C 28.335938 28.363281 28.765625 28.816406 28.765625 30.140625 C 28.765625 31.628906 28.3125 32.425781 27.523438 33.054688 C 26.738281 33.6875 25.457031 34.109375 23.800781 34.109375 C 22.148438 34.109375 20.796875 33.675781 19.980469 33.105469 C 19.160156 32.53125 18.839844 31.960938 18.839844 31.132812 C 18.851562 30.417969 18.472656 29.753906 17.855469 29.390625 C 17.238281 29.03125 16.472656 29.03125 15.855469 29.390625 C 15.238281 29.753906 14.863281 30.417969 14.871094 31.132812 C 14.871094 33.28125 16.042969 35.191406 17.703125 36.355469 C 19.367188 37.519531 21.488281 38.078125 23.800781 38.078125 C 26.117188 38.078125 28.308594 37.511719 30.003906 36.15625 C 31.695312 34.800781 32.730469 32.621094 32.730469 30.140625 C 32.730469 27.496094 31.175781 25.46875 29.457031 24.375 C 27.738281 23.28125 25.855469 22.78125 24.429688 22.304688 C 22.878906 21.789062 21.289062 21.296875 20.277344 20.652344 C 19.269531 20.011719 18.839844 19.554688 18.839844 18.234375 C 18.839844 16.75 19.304688 15.921875 20.097656 15.285156 C 20.890625 14.648438 22.152344 14.234375 23.765625 14.261719 C 23.777344 14.261719 23.789062 14.261719 23.800781 14.261719 C 25.457031 14.261719 26.808594 14.695312 27.625 15.269531 C 28.445312 15.84375 28.765625 16.414062 28.765625 17.242188 C 28.753906 17.957031 29.128906 18.621094 29.75 18.980469 C 30.367188 19.34375 31.128906 19.34375 31.75 18.980469 C 32.367188 18.621094 32.742188 17.957031 32.730469 17.242188 C 32.730469 15.089844 31.5625 13.183594 29.902344 12.019531 C 28.246094 10.859375 26.128906 10.300781 23.824219 10.296875 Z M 23.824219 10.296875 "/>
</g>
</svg>
