<?xml version="1.0" encoding="UTF-8"?>
<svg xmlns="http://www.w3.org/2000/svg" xmlns:xlink="http://www.w3.org/1999/xlink" width="48px" height="48px" viewBox="0 0 48 48" version="1.1">
<g id="surface1">
<path style=" stroke:none;fill-rule:nonzero;fill:rgb(87.843138%,87.843138%,87.843138%);fill-opacity:1;" d="M 23.8125 2.359375 C 35.867188 2.359375 45.640625 12.132812 45.640625 24.1875 C 45.640625 36.242188 35.867188 46.015625 23.8125 46.015625 C 11.757812 46.015625 1.984375 36.242188 1.984375 24.1875 C 1.984375 12.132812 11.757812 2.359375 23.8125 2.359375 Z M 23.8125 2.359375 "/>
<path style=" stroke:none;fill-rule:nonzero;fill:rgb(74.117649%,74.117649%,74.117649%);fill-opacity:1;" d="M 23.8125 14.265625 C 29.292969 14.265625 33.734375 18.707031 33.734375 24.1875 C 33.734375 29.667969 29.292969 34.109375 23.8125 34.109375 C 18.332031 34.109375 13.890625 29.667969 13.890625 24.1875 C 13.890625 18.707031 18.332031 14.265625 23.8125 14.265625 Z M 23.8125 14.265625 "/>
<path style=" stroke:none;fill-rule:nonzero;fill:rgb(25.882354%,25.882354%,25.882354%);fill-opacity:1;" d="M 37.140625 6.648438 L 41.351562 10.859375 C 41.738281 11.246094 41.738281 11.875 41.351562 12.261719 L 11.886719 41.726562 C 11.5 42.113281 10.871094 42.113281 10.484375 41.726562 L 6.273438 37.515625 C 5.886719 37.128906 5.886719 36.5 6.273438 36.113281 L 35.738281 6.648438 C 36.125 6.261719 36.753906 6.261719 37.140625 6.648438 Z M 37.140625 6.648438 "/>
<path style=" stroke:none;fill-rule:nonzero;fill:rgb(100%,65.490198%,14.901961%);fill-opacity:1;" d="M 37.140625 6.648438 C 36.753906 7.035156 36.753906 7.664062 37.140625 8.050781 L 39.949219 10.855469 C 40.335938 11.246094 40.964844 11.246094 41.351562 10.855469 Z M 37.140625 6.648438 "/>
<path style=" stroke:none;fill-rule:nonzero;fill:rgb(100%,65.490198%,14.901961%);fill-opacity:1;" d="M 7.675781 37.515625 C 7.289062 37.128906 6.660156 37.128906 6.273438 37.515625 L 10.484375 41.726562 C 10.871094 41.339844 10.871094 40.710938 10.484375 40.324219 Z M 7.675781 37.515625 "/>
<path style=" stroke:none;fill-rule:nonzero;fill:rgb(100%,65.490198%,14.901961%);fill-opacity:1;" d="M 13.289062 31.90625 L 16.09375 34.710938 C 16.484375 35.097656 16.484375 35.726562 16.09375 36.113281 L 13.289062 38.921875 C 12.902344 39.308594 12.273438 39.308594 11.886719 38.921875 L 9.078125 36.113281 C 8.691406 35.726562 8.691406 35.097656 9.078125 34.710938 L 11.886719 31.90625 C 12.273438 31.515625 12.902344 31.515625 13.289062 31.90625 Z M 13.289062 31.90625 "/>
<path style=" stroke:none;fill-rule:nonzero;fill:rgb(100%,65.490198%,14.901961%);fill-opacity:1;" d="M 35.738281 9.453125 L 38.546875 12.261719 C 38.933594 12.648438 38.933594 13.277344 38.546875 13.664062 L 35.738281 16.46875 C 35.351562 16.859375 34.722656 16.859375 34.335938 16.46875 L 31.53125 13.664062 C 31.140625 13.277344 31.140625 12.648438 31.53125 12.261719 L 34.335938 9.453125 C 34.722656 9.066406 35.351562 9.066406 35.738281 9.453125 Z M 35.738281 9.453125 "/>
<path style=" stroke:none;fill-rule:nonzero;fill:rgb(100%,65.490198%,14.901961%);fill-opacity:1;" d="M 30.125 15.066406 L 32.933594 17.875 C 33.320312 18.261719 33.320312 18.890625 32.933594 19.277344 L 30.125 22.082031 C 29.738281 22.46875 29.109375 22.46875 28.722656 22.082031 L 25.917969 19.277344 C 25.53125 18.890625 25.53125 18.261719 25.917969 17.875 L 28.722656 15.066406 C 29.109375 14.679688 29.738281 14.679688 30.125 15.066406 Z M 30.125 15.066406 "/>
<path style=" stroke:none;fill-rule:nonzero;fill:rgb(100%,65.490198%,14.901961%);fill-opacity:1;" d="M 24.515625 20.679688 L 27.320312 23.484375 C 27.707031 23.875 27.707031 24.5 27.320312 24.890625 L 24.515625 27.695312 C 24.125 28.082031 23.5 28.082031 23.109375 27.695312 L 20.304688 24.890625 C 19.917969 24.5 19.917969 23.875 20.304688 23.484375 L 23.109375 20.679688 C 23.5 20.292969 24.125 20.292969 24.515625 20.679688 Z M 24.515625 20.679688 "/>
<path style=" stroke:none;fill-rule:nonzero;fill:rgb(100%,65.490198%,14.901961%);fill-opacity:1;" d="M 18.902344 26.292969 L 21.707031 29.097656 C 22.09375 29.484375 22.09375 30.113281 21.707031 30.5 L 18.902344 33.308594 C 18.515625 33.695312 17.886719 33.695312 17.5 33.308594 L 14.691406 30.5 C 14.304688 30.113281 14.304688 29.484375 14.691406 29.097656 L 17.5 26.292969 C 17.886719 25.90625 18.515625 25.90625 18.902344 26.292969 Z M 18.902344 26.292969 "/>
<path style=" stroke:none;fill-rule:nonzero;fill:rgb(25.882354%,25.882354%,25.882354%);fill-opacity:1;" d="M 41.351562 37.515625 L 37.140625 41.726562 C 36.753906 42.113281 36.125 42.113281 35.738281 41.726562 L 6.273438 12.261719 C 5.886719 11.875 5.886719 11.246094 6.273438 10.859375 L 10.484375 6.648438 C 10.871094 6.261719 11.5 6.261719 11.886719 6.648438 L 41.351562 36.113281 C 41.738281 36.5 41.738281 37.128906 41.351562 37.515625 Z M 41.351562 37.515625 "/>
<path style=" stroke:none;fill-rule:nonzero;fill:rgb(100%,65.490198%,14.901961%);fill-opacity:1;" d="M 41.351562 37.519531 C 40.964844 37.128906 40.335938 37.128906 39.949219 37.519531 L 37.140625 40.324219 C 36.753906 40.710938 36.753906 41.339844 37.140625 41.726562 Z M 41.351562 37.519531 "/>
<path style=" stroke:none;fill-rule:nonzero;fill:rgb(100%,65.490198%,14.901961%);fill-opacity:1;" d="M 10.484375 8.050781 C 10.871094 7.664062 10.871094 7.035156 10.484375 6.648438 L 6.273438 10.859375 C 6.660156 11.246094 7.289062 11.246094 7.675781 10.859375 Z M 10.484375 8.050781 "/>
<path style=" stroke:none;fill-rule:nonzero;fill:rgb(100%,65.490198%,14.901961%);fill-opacity:1;" d="M 16.09375 13.664062 L 13.289062 16.46875 C 12.902344 16.859375 12.273438 16.859375 11.886719 16.46875 L 9.078125 13.664062 C 8.691406 13.277344 8.691406 12.648438 9.078125 12.261719 L 11.886719 9.453125 C 12.273438 9.066406 12.902344 9.066406 13.289062 9.453125 L 16.09375 12.261719 C 16.484375 12.648438 16.484375 13.277344 16.09375 13.664062 Z M 16.09375 13.664062 "/>
<path style=" stroke:none;fill-rule:nonzero;fill:rgb(100%,65.490198%,14.901961%);fill-opacity:1;" d="M 38.546875 36.113281 L 35.738281 38.921875 C 35.351562 39.308594 34.722656 39.308594 34.335938 38.921875 L 31.53125 36.113281 C 31.140625 35.726562 31.140625 35.097656 31.53125 34.710938 L 34.335938 31.90625 C 34.722656 31.515625 35.351562 31.515625 35.738281 31.90625 L 38.546875 34.710938 C 38.933594 35.097656 38.933594 35.726562 38.546875 36.113281 Z M 38.546875 36.113281 "/>
<path style=" stroke:none;fill-rule:nonzero;fill:rgb(100%,65.490198%,14.901961%);fill-opacity:1;" d="M 32.933594 30.5 L 30.125 33.308594 C 29.738281 33.695312 29.109375 33.695312 28.722656 33.308594 L 25.917969 30.5 C 25.53125 30.113281 25.53125 29.484375 25.917969 29.097656 L 28.722656 26.292969 C 29.109375 25.90625 29.738281 25.90625 30.125 26.292969 L 32.933594 29.097656 C 33.320312 29.484375 33.320312 30.113281 32.933594 30.5 Z M 32.933594 30.5 "/>
<path style=" stroke:none;fill-rule:nonzero;fill:rgb(100%,65.490198%,14.901961%);fill-opacity:1;" d="M 27.320312 24.890625 L 24.515625 27.695312 C 24.125 28.082031 23.5 28.082031 23.109375 27.695312 L 20.304688 24.890625 C 19.917969 24.5 19.917969 23.875 20.304688 23.484375 L 23.109375 20.679688 C 23.5 20.292969 24.125 20.292969 24.515625 20.679688 L 27.320312 23.484375 C 27.707031 23.875 27.707031 24.5 27.320312 24.890625 Z M 27.320312 24.890625 "/>
<path style=" stroke:none;fill-rule:nonzero;fill:rgb(100%,65.490198%,14.901961%);fill-opacity:1;" d="M 21.707031 19.277344 L 18.902344 22.082031 C 18.515625 22.46875 17.886719 22.46875 17.5 22.082031 L 14.691406 19.277344 C 14.304688 18.890625 14.304688 18.261719 14.691406 17.875 L 17.5 15.066406 C 17.886719 14.679688 18.515625 14.679688 18.902344 15.066406 L 21.707031 17.875 C 22.09375 18.261719 22.09375 18.890625 21.707031 19.277344 Z M 21.707031 19.277344 "/>
</g>
</svg>
