<?xml version="1.0" encoding="UTF-8"?>
<svg xmlns="http://www.w3.org/2000/svg" xmlns:xlink="http://www.w3.org/1999/xlink" width="22px" height="22px" viewBox="0 0 22 22" version="1.1">
<g id="surface1">
<path style=" stroke:none;fill-rule:nonzero;fill:rgb(92.54902%,25.098041%,47.843137%);fill-opacity:1;" d="M 14.550781 1.082031 L 3.636719 1.082031 C 3.132812 1.082031 2.726562 1.488281 2.726562 1.992188 L 2.726562 20.179688 C 2.726562 20.683594 3.132812 21.089844 3.636719 21.089844 L 18.191406 21.089844 C 18.695312 21.089844 19.097656 20.683594 19.097656 20.179688 L 19.097656 5.628906 Z M 14.550781 1.082031 "/>
<path style=" stroke:none;fill-rule:nonzero;fill:rgb(84.705883%,10.588235%,37.64706%);fill-opacity:1;" d="M 19.097656 5.628906 L 14.550781 1.082031 L 14.550781 4.71875 C 14.550781 5.222656 14.957031 5.628906 15.460938 5.628906 Z M 19.097656 5.628906 "/>
<path style=" stroke:none;fill-rule:nonzero;fill:rgb(96.078432%,96.078432%,96.078432%);fill-opacity:1;" d="M 9.324219 7.902344 L 9.777344 7.902344 C 9.902344 7.902344 10.003906 8.003906 10.003906 8.128906 L 10.003906 14.953125 C 10.003906 15.078125 9.902344 15.179688 9.777344 15.179688 L 9.324219 15.179688 C 9.195312 15.179688 9.09375 15.078125 9.09375 14.953125 L 9.09375 8.128906 C 9.09375 8.003906 9.195312 7.902344 9.324219 7.902344 Z M 9.324219 7.902344 "/>
<path style=" stroke:none;fill-rule:nonzero;fill:rgb(96.078432%,96.078432%,96.078432%);fill-opacity:1;" d="M 9.550781 7.902344 L 9.550781 8.8125 L 12.050781 8.8125 C 12.679688 8.8125 13.1875 9.320312 13.1875 9.949219 C 13.1875 10.578125 12.679688 11.085938 12.050781 11.085938 L 9.550781 11.085938 L 9.550781 11.996094 L 12.050781 11.996094 C 13.183594 11.996094 14.097656 11.082031 14.097656 9.949219 C 14.097656 8.816406 13.183594 7.902344 12.050781 7.902344 Z M 9.550781 7.902344 "/>
<path style=" stroke:none;fill-rule:nonzero;fill:rgb(96.078432%,96.078432%,96.078432%);fill-opacity:1;" d="M 7.957031 11.085938 L 8.414062 11.085938 C 8.539062 11.085938 8.640625 11.1875 8.640625 11.3125 L 8.640625 11.769531 C 8.640625 11.894531 8.539062 11.996094 8.414062 11.996094 L 7.957031 11.996094 C 7.832031 11.996094 7.730469 11.894531 7.730469 11.769531 L 7.730469 11.3125 C 7.730469 11.1875 7.832031 11.085938 7.957031 11.085938 Z M 7.957031 11.085938 "/>
</g>
</svg>
