
<svg xmlns="http://www.w3.org/2000/svg" xmlns:xlink="http://www.w3.org/1999/xlink" width="48px" height="48px" viewBox="0 0 48 48" version="1.1">
<g id="surface1">
<path style=" stroke:none;fill-rule:nonzero;fill:rgb(26.274511%,62.7451%,27.843139%);fill-opacity:1;" d="M 6.945312 5.335938 L 43.652344 5.335938 C 44.753906 5.335938 45.640625 6.222656 45.640625 7.320312 L 45.640625 19.226562 C 45.640625 20.328125 44.753906 21.214844 43.652344 21.214844 L 6.945312 21.214844 C 5.847656 21.214844 4.960938 20.328125 4.960938 19.226562 L 4.960938 7.320312 C 4.960938 6.222656 5.847656 5.335938 6.945312 5.335938 Z M 6.945312 5.335938 "/>
<path style=" stroke:none;fill-rule:nonzero;fill:rgb(96.078432%,96.078432%,96.078432%);fill-opacity:1;" d="M 23.8125 11.292969 L 43.652344 11.292969 C 44.207031 11.292969 44.652344 11.734375 44.652344 12.28125 L 44.652344 19.226562 C 44.652344 19.773438 44.207031 20.214844 43.652344 20.214844 L 23.8125 20.214844 C 23.265625 20.214844 22.824219 19.773438 22.824219 19.226562 L 22.824219 12.28125 C 22.824219 11.734375 23.265625 11.292969 23.8125 11.292969 Z M 23.8125 11.292969 "/>
<path style=" stroke:none;fill-rule:nonzero;fill:rgb(40.000001%,73.333335%,41.568628%);fill-opacity:1;" d="M 3.972656 9.308594 C 2.871094 9.308594 1.984375 10.191406 1.984375 11.292969 L 1.984375 41.054688 C 1.984375 42.152344 2.871094 43.039062 3.972656 43.039062 L 43.652344 43.039062 C 44.753906 43.039062 45.640625 42.152344 45.640625 41.054688 L 45.640625 17.242188 C 45.640625 16.140625 44.753906 15.253906 43.652344 15.253906 L 30.757812 15.253906 C 29.660156 15.253906 28.773438 14.371094 28.773438 13.269531 L 28.773438 11.292969 C 28.773438 10.191406 27.886719 9.308594 26.785156 9.308594 Z M 3.972656 9.308594 "/>
<path style=" stroke:none;fill-rule:nonzero;fill:rgb(100%,100%,100%);fill-opacity:0.352941;" d="M 17.863281 19.175781 C 16.765625 19.175781 15.878906 20.0625 15.878906 21.160156 C 15.878906 22.089844 16.507812 22.867188 17.359375 23.089844 L 17.359375 32.054688 C 17.359375 32.054688 17.359375 32.0625 17.359375 32.0625 C 17.359375 32.070312 17.359375 32.070312 17.359375 32.078125 C 17.359375 32.351562 17.582031 32.574219 17.863281 32.574219 L 20.878906 32.574219 C 21.109375 33.980469 22.328125 35.054688 23.8125 35.054688 C 25.296875 35.054688 26.515625 33.980469 26.746094 32.574219 L 29.769531 32.574219 C 29.769531 32.574219 29.769531 32.574219 29.777344 32.574219 C 29.777344 32.574219 29.785156 32.574219 29.785156 32.574219 C 30.078125 32.574219 30.308594 32.34375 30.308594 32.054688 L 30.308594 23.070312 C 31.140625 22.839844 31.746094 22.074219 31.746094 21.160156 C 31.746094 20.0625 30.859375 19.175781 29.769531 19.175781 C 28.671875 19.175781 27.785156 20.0625 27.785156 21.160156 C 27.785156 22.089844 28.414062 22.867188 29.265625 23.089844 L 29.265625 31.578125 L 26.746094 31.578125 C 26.539062 30.332031 25.558594 29.351562 24.308594 29.140625 L 24.308594 26.558594 C 25.167969 26.335938 25.796875 25.558594 25.796875 24.628906 C 25.796875 23.53125 24.910156 22.652344 23.8125 22.652344 C 22.714844 22.652344 21.828125 23.53125 21.828125 24.628906 C 21.828125 25.558594 22.457031 26.335938 23.316406 26.558594 L 23.316406 29.140625 C 22.066406 29.351562 21.085938 30.332031 20.878906 31.578125 L 18.402344 31.578125 L 18.402344 23.070312 C 19.234375 22.832031 19.839844 22.074219 19.839844 21.160156 C 19.839844 20.0625 18.953125 19.175781 17.863281 19.175781 Z M 17.863281 19.175781 "/>
</g>
</svg>
