
<svg xmlns="http://www.w3.org/2000/svg" xmlns:xlink="http://www.w3.org/1999/xlink" width="64px" height="64px" viewBox="0 0 64 64" version="1.1">
<g id="surface1">
<path style=" stroke:none;fill-rule:nonzero;fill:rgb(36.078432%,41.960785%,75.294119%);fill-opacity:1;" d="M 8.597656 7.9375 L 54.902344 7.9375 C 55.265625 7.9375 55.5625 8.234375 55.5625 8.597656 L 55.5625 54.902344 C 55.5625 55.265625 55.265625 55.5625 54.902344 55.5625 L 8.597656 55.5625 C 8.234375 55.5625 7.9375 55.265625 7.9375 54.902344 L 7.9375 8.597656 C 7.9375 8.234375 8.234375 7.9375 8.597656 7.9375 Z M 8.597656 7.9375 "/>
<path style=" stroke:none;fill-rule:nonzero;fill:rgb(14.901961%,65.098041%,60.392159%);fill-opacity:1;" d="M 5.210938 2.644531 L 58.292969 2.644531 C 59.707031 2.644531 60.855469 3.792969 60.855469 5.210938 L 60.855469 58.289062 C 60.855469 59.707031 59.707031 60.855469 58.292969 60.855469 L 5.210938 60.855469 C 3.792969 60.855469 2.644531 59.707031 2.644531 58.289062 L 2.644531 5.210938 C 2.644531 3.792969 3.792969 2.644531 5.210938 2.644531 Z M 5.210938 2.644531 "/>
<path style=" stroke:none;fill-rule:nonzero;fill:rgb(69.803923%,92.156863%,94.901961%);fill-opacity:1;" d="M 6.613281 5.292969 L 56.886719 5.292969 C 57.617188 5.292969 58.207031 5.882812 58.207031 6.613281 L 58.207031 56.886719 C 58.207031 57.617188 57.617188 58.207031 56.886719 58.207031 L 6.613281 58.207031 C 5.882812 58.207031 5.292969 57.617188 5.292969 56.886719 L 5.292969 6.613281 C 5.292969 5.882812 5.882812 5.292969 6.613281 5.292969 Z M 6.613281 5.292969 "/>
<path style=" stroke:none;fill-rule:nonzero;fill:rgb(14.901961%,65.098041%,60.392159%);fill-opacity:1;" d="M 8.597656 7.9375 L 54.902344 7.9375 C 55.265625 7.9375 55.5625 8.234375 55.5625 8.597656 L 55.5625 54.902344 C 55.5625 55.265625 55.265625 55.5625 54.902344 55.5625 L 8.597656 55.5625 C 8.234375 55.5625 7.9375 55.265625 7.9375 54.902344 L 7.9375 8.597656 C 7.9375 8.234375 8.234375 7.9375 8.597656 7.9375 Z M 8.597656 7.9375 "/>
<path style=" stroke:none;fill-rule:nonzero;fill:rgb(69.803923%,92.156863%,94.901961%);fill-opacity:0.999958;" d="M 36.378906 42.332031 L 37.703125 42.332031 C 38.070312 42.332031 38.363281 42.039062 38.363281 41.671875 L 38.363281 31.089844 C 38.363281 30.722656 38.070312 30.425781 37.703125 30.425781 L 36.378906 30.425781 C 36.015625 30.425781 35.71875 30.722656 35.71875 31.089844 L 35.71875 41.671875 C 35.71875 42.039062 36.015625 42.332031 36.378906 42.332031 Z M 36.378906 42.332031 "/>
<path style=" stroke:none;fill-rule:nonzero;fill:rgb(69.803923%,92.156863%,94.901961%);fill-opacity:0.999958;" d="M 36.378906 33.074219 L 43.65625 33.074219 C 44.023438 33.074219 44.316406 32.777344 44.316406 32.410156 L 44.316406 31.089844 C 44.316406 30.722656 44.023438 30.425781 43.65625 30.425781 L 36.378906 30.425781 C 36.015625 30.425781 35.71875 30.722656 35.71875 31.089844 L 35.71875 32.410156 C 35.71875 32.777344 36.015625 33.074219 36.378906 33.074219 Z M 36.378906 33.074219 "/>
<path style=" stroke:none;fill-rule:nonzero;fill:rgb(69.803923%,92.156863%,94.901961%);fill-opacity:1;" d="M 19.84375 21.167969 C 19.476562 21.167969 19.183594 21.460938 19.183594 21.828125 L 19.183594 41.671875 C 19.183594 42.039062 19.476562 42.332031 19.84375 42.332031 L 33.074219 42.332031 C 33.4375 42.332031 33.734375 42.039062 33.734375 41.671875 L 33.734375 40.347656 C 33.734375 39.984375 33.4375 39.6875 33.074219 39.6875 L 21.828125 39.6875 L 21.828125 21.828125 C 21.828125 21.460938 21.53125 21.167969 21.167969 21.167969 Z M 19.84375 21.167969 "/>
</g>
</svg>
