<?xml version="1.0" encoding="UTF-8"?>
<svg xmlns="http://www.w3.org/2000/svg" xmlns:xlink="http://www.w3.org/1999/xlink" width="64px" height="64px" viewBox="0 0 64 64" version="1.1">
<defs>
<linearGradient id="linear0" gradientUnits="userSpaceOnUse" x1="42.333332" y1="42.999996" x2="465.666656" y2="42.999996" gradientTransform="matrix(0.125,0,0,0.125,0.000000833334,26.874999)">
<stop offset="0" style="stop-color:rgb(97.254902%,97.254902%,97.254902%);stop-opacity:0;"/>
<stop offset="0.5" style="stop-color:rgb(100%,100%,100%);stop-opacity:0.0784314;"/>
<stop offset="1" style="stop-color:rgb(99.607843%,99.607843%,99.607843%);stop-opacity:0;"/>
</linearGradient>
</defs>
<g id="surface1">
<path style=" stroke:none;fill-rule:nonzero;fill:rgb(25.882354%,25.882354%,25.882354%);fill-opacity:1;" d="M 5.292969 5.792969 L 58.207031 5.792969 C 59.667969 5.792969 60.855469 6.976562 60.855469 8.4375 L 60.855469 56.0625 C 60.855469 57.523438 59.667969 58.707031 58.207031 58.707031 L 5.292969 58.707031 C 3.832031 58.707031 2.644531 57.523438 2.644531 56.0625 L 2.644531 8.4375 C 2.644531 6.976562 3.832031 5.792969 5.292969 5.792969 Z M 5.292969 5.792969 "/>
<path style=" stroke:none;fill-rule:nonzero;fill:rgb(50.588238%,83.137256%,98.039216%);fill-opacity:1;" d="M 31.75 31.75 L 27.78125 42.332031 L 35.71875 42.332031 Z M 31.75 31.75 "/>
<path style=" stroke:none;fill-rule:nonzero;fill:rgb(25.882354%,64.705884%,96.078432%);fill-opacity:1;" d="M 31.75 52.917969 L 27.78125 42.332031 L 35.71875 42.332031 Z M 31.75 52.917969 "/>
<path style=" stroke:none;fill-rule:nonzero;fill:rgb(100%,43.921569%,26.274511%);fill-opacity:1;" d="M 25.136719 10.582031 L 10.582031 52.917969 L 19.84375 52.917969 L 31.75 19.84375 L 43.65625 52.917969 L 52.917969 52.917969 L 38.363281 10.582031 Z M 25.136719 10.582031 "/>
<path style=" stroke:none;fill-rule:nonzero;fill:rgb(100%,65.490198%,14.901961%);fill-opacity:1;" d="M 17.40625 33.074219 L 10.582031 52.917969 L 19.84375 52.917969 L 26.988281 33.074219 Z M 36.511719 33.074219 L 43.65625 52.917969 L 52.917969 52.917969 L 46.09375 33.074219 Z M 36.511719 33.074219 "/>
<path style=" stroke:none;fill-rule:nonzero;fill:url(#linear0);" d="M 5.292969 7.777344 L 5.292969 9.097656 L 58.207031 9.097656 L 58.207031 7.777344 Z M 5.292969 11.746094 L 5.292969 13.066406 L 58.207031 13.066406 L 58.207031 11.746094 Z M 5.292969 15.714844 L 5.292969 17.035156 L 58.207031 17.035156 L 58.207031 15.714844 Z M 5.292969 19.683594 L 5.292969 21.003906 L 58.207031 21.003906 L 58.207031 19.683594 Z M 5.292969 23.652344 L 5.292969 24.972656 L 58.207031 24.972656 L 58.207031 23.652344 Z M 5.292969 27.621094 L 5.292969 28.941406 L 58.207031 28.941406 L 58.207031 27.621094 Z M 5.292969 31.589844 L 5.292969 32.910156 L 58.207031 32.910156 L 58.207031 31.589844 Z M 5.292969 35.558594 L 5.292969 36.878906 L 58.207031 36.878906 L 58.207031 35.558594 Z M 5.292969 39.527344 L 5.292969 40.847656 L 58.207031 40.847656 L 58.207031 39.527344 Z M 5.292969 43.496094 L 5.292969 44.816406 L 58.207031 44.816406 L 58.207031 43.496094 Z M 5.292969 47.464844 L 5.292969 48.785156 L 58.207031 48.785156 L 58.207031 47.464844 Z M 5.292969 51.433594 L 5.292969 52.753906 L 58.207031 52.753906 L 58.207031 51.433594 Z M 5.292969 55.402344 L 5.292969 56.722656 L 58.207031 56.722656 L 58.207031 55.402344 Z M 5.292969 55.402344 "/>
</g>
</svg>
