<?xml version="1.0" encoding="UTF-8"?>
<svg xmlns="http://www.w3.org/2000/svg" xmlns:xlink="http://www.w3.org/1999/xlink" width="64px" height="64px" viewBox="0 0 64 64" version="1.1">
<g id="surface1">
<path style=" stroke:none;fill-rule:nonzero;fill:rgb(93.333334%,93.333334%,93.333334%);fill-opacity:1;" d="M 42.332031 3.144531 L 10.582031 3.144531 C 9.117188 3.144531 7.9375 4.324219 7.9375 5.792969 L 7.9375 58.707031 C 7.9375 60.175781 9.117188 61.355469 10.582031 61.355469 L 52.917969 61.355469 C 54.382812 61.355469 55.5625 60.175781 55.5625 58.707031 L 55.5625 16.375 Z M 42.332031 3.144531 "/>
<path style=" stroke:none;fill-rule:nonzero;fill:rgb(74.117649%,74.117649%,74.117649%);fill-opacity:1;" d="M 55.5625 16.375 L 42.332031 3.144531 L 42.332031 13.730469 C 42.332031 15.195312 43.511719 16.375 44.980469 16.375 Z M 55.5625 16.375 "/>
<path style=" stroke:none;fill-rule:nonzero;fill:rgb(25.882354%,25.882354%,25.882354%);fill-opacity:1;" d="M 17.199219 24.3125 L 46.300781 24.3125 C 47.03125 24.3125 47.625 24.882812 47.625 25.582031 C 47.625 26.285156 47.03125 26.851562 46.300781 26.851562 L 17.199219 26.851562 C 16.46875 26.851562 15.875 26.285156 15.875 25.582031 C 15.875 24.882812 16.46875 24.3125 17.199219 24.3125 Z M 17.199219 24.3125 "/>
<path style=" stroke:none;fill-rule:nonzero;fill:rgb(36.078432%,41.960785%,75.294119%);fill-opacity:1;" d="M 17.199219 19.019531 L 46.300781 19.019531 C 47.03125 19.019531 47.625 19.613281 47.625 20.34375 C 47.625 21.074219 47.03125 21.667969 46.300781 21.667969 L 17.199219 21.667969 C 16.46875 21.667969 15.875 21.074219 15.875 20.34375 C 15.875 19.613281 16.46875 19.019531 17.199219 19.019531 Z M 17.199219 19.019531 "/>
<path style=" stroke:none;fill-rule:nonzero;fill:rgb(25.882354%,25.882354%,25.882354%);fill-opacity:1;" d="M 17.199219 34.894531 L 46.300781 34.894531 C 47.03125 34.894531 47.625 35.445312 47.625 36.125 L 47.625 36.3125 C 47.625 36.992188 47.03125 37.542969 46.300781 37.542969 L 17.199219 37.542969 C 16.46875 37.542969 15.875 36.992188 15.875 36.3125 L 15.875 36.125 C 15.875 35.445312 16.46875 34.894531 17.199219 34.894531 Z M 17.199219 34.894531 "/>
<path style=" stroke:none;fill-rule:nonzero;fill:rgb(25.882354%,25.882354%,25.882354%);fill-opacity:1;" d="M 17.199219 45.480469 L 46.300781 45.480469 C 47.03125 45.480469 47.625 46.070312 47.625 46.800781 C 47.625 47.53125 47.03125 48.125 46.300781 48.125 L 17.199219 48.125 C 16.46875 48.125 15.875 47.53125 15.875 46.800781 C 15.875 46.070312 16.46875 45.480469 17.199219 45.480469 Z M 17.199219 45.480469 "/>
<path style=" stroke:none;fill-rule:nonzero;fill:rgb(36.078432%,41.960785%,75.294119%);fill-opacity:1;" d="M 17.199219 29.710938 L 46.300781 29.710938 C 47.03125 29.710938 47.625 30.277344 47.625 30.980469 C 47.625 31.679688 47.03125 32.25 46.300781 32.25 L 17.199219 32.25 C 16.46875 32.25 15.875 31.679688 15.875 30.980469 C 15.875 30.277344 16.46875 29.710938 17.199219 29.710938 Z M 17.199219 29.710938 "/>
<path style=" stroke:none;fill-rule:nonzero;fill:rgb(25.882354%,25.882354%,25.882354%);fill-opacity:1;" d="M 17.199219 40.1875 L 46.300781 40.1875 C 47.03125 40.1875 47.625 40.738281 47.625 41.417969 L 47.625 41.601562 C 47.625 42.28125 47.03125 42.832031 46.300781 42.832031 L 17.199219 42.832031 C 16.46875 42.832031 15.875 42.28125 15.875 41.601562 L 15.875 41.417969 C 15.875 40.738281 16.46875 40.1875 17.199219 40.1875 Z M 17.199219 40.1875 "/>
<path style=" stroke:none;fill-rule:nonzero;fill:rgb(69.01961%,74.509805%,77.254903%);fill-opacity:1;" d="M 33.074219 38.863281 L 58.207031 38.863281 C 59.667969 38.863281 60.855469 40.050781 60.855469 41.511719 L 60.855469 58.707031 C 60.855469 60.167969 59.667969 61.355469 58.207031 61.355469 L 33.074219 61.355469 C 31.613281 61.355469 30.425781 60.167969 30.425781 58.707031 L 30.425781 41.511719 C 30.425781 40.050781 31.613281 38.863281 33.074219 38.863281 Z M 33.074219 38.863281 "/>
<path style=" stroke:none;fill-rule:nonzero;fill:rgb(69.01961%,74.509805%,77.254903%);fill-opacity:1;" d="M 38.363281 32.25 L 52.917969 32.25 C 54.378906 32.25 55.5625 33.433594 55.5625 34.894531 L 55.5625 40.1875 C 55.5625 41.648438 54.378906 42.832031 52.917969 42.832031 L 38.363281 42.832031 C 36.902344 42.832031 35.71875 41.648438 35.71875 40.1875 L 35.71875 34.894531 C 35.71875 33.433594 36.902344 32.25 38.363281 32.25 Z M 38.363281 32.25 "/>
<path style=" stroke:none;fill-rule:nonzero;fill:rgb(81.176472%,84.705883%,86.274511%);fill-opacity:1;" d="M 34.394531 29.605469 L 56.886719 29.605469 C 57.617188 29.605469 58.207031 30.195312 58.207031 30.925781 L 58.207031 33.574219 C 58.207031 34.304688 57.617188 34.894531 56.886719 34.894531 L 34.394531 34.894531 C 33.664062 34.894531 33.074219 34.304688 33.074219 33.574219 L 33.074219 30.925781 C 33.074219 30.195312 33.664062 29.605469 34.394531 29.605469 Z M 34.394531 29.605469 "/>
<path style=" stroke:none;fill-rule:nonzero;fill:rgb(36.078432%,41.960785%,75.294119%);fill-opacity:1;" d="M 34.394531 41.511719 L 56.886719 41.511719 C 57.617188 41.511719 58.207031 42.101562 58.207031 42.832031 L 58.207031 57.386719 C 58.207031 58.117188 57.617188 58.707031 56.886719 58.707031 L 34.394531 58.707031 C 33.664062 58.707031 33.074219 58.117188 33.074219 57.386719 L 33.074219 42.832031 C 33.074219 42.101562 33.664062 41.511719 34.394531 41.511719 Z M 34.394531 41.511719 "/>
<path style=" stroke:none;fill-rule:nonzero;fill:rgb(56.470591%,64.313728%,68.235296%);fill-opacity:1;" d="M 34.394531 41.511719 C 33.664062 41.511719 33.074219 42.101562 33.074219 42.832031 L 33.074219 49.449219 C 43.65625 52.09375 47.625 46.800781 58.207031 49.449219 L 58.207031 42.832031 C 58.207031 42.101562 57.617188 41.511719 56.886719 41.511719 Z M 34.394531 41.511719 "/>
<path style=" stroke:none;fill-rule:nonzero;fill:rgb(56.470591%,64.313728%,68.235296%);fill-opacity:1;" d="M 38.363281 34.894531 L 52.917969 34.894531 L 52.917969 42.832031 L 38.363281 42.832031 Z M 38.363281 34.894531 "/>
</g>
</svg>
