<?xml version="1.0" encoding="UTF-8"?>
<svg xmlns="http://www.w3.org/2000/svg" xmlns:xlink="http://www.w3.org/1999/xlink" width="64px" height="64px" viewBox="0 0 64 64" version="1.1">
<defs>
<linearGradient id="linear0" gradientUnits="userSpaceOnUse" x1="381" y1="-41.666668" x2="381" y2="-62.833332" gradientTransform="matrix(0.0530303,0,0,-0.125,-4.750476,29.687471)">
<stop offset="0" style="stop-color:rgb(12.941177%,12.941177%,12.941177%);stop-opacity:0.392157;"/>
<stop offset="1" style="stop-color:rgb(49.411765%,34.117648%,76.078433%);stop-opacity:0;"/>
</linearGradient>
</defs>
<g id="surface1">
<path style=" stroke:none;fill-rule:nonzero;fill:rgb(36.078432%,41.960785%,75.294119%);fill-opacity:1;" d="M 5.292969 3.144531 L 58.207031 3.144531 C 59.667969 3.144531 60.855469 4.332031 60.855469 5.792969 L 60.855469 58.707031 C 60.855469 60.167969 59.667969 61.355469 58.207031 61.355469 L 5.292969 61.355469 C 3.832031 61.355469 2.644531 60.167969 2.644531 58.707031 L 2.644531 5.792969 C 2.644531 4.332031 3.832031 3.144531 5.292969 3.144531 Z M 5.292969 3.144531 "/>
<path style=" stroke:none;fill-rule:nonzero;fill:rgb(0%,0%,0%);fill-opacity:0.235294;" d="M 10.582031 3.144531 L 10.582031 32.25 C 10.582031 33.714844 11.761719 34.894531 13.230469 34.894531 L 18.519531 34.894531 C 19.988281 34.894531 21.167969 33.714844 21.167969 32.25 L 21.167969 3.144531 Z M 10.582031 3.144531 "/>
<path style=" stroke:none;fill-rule:nonzero;fill:rgb(0%,0%,0%);fill-opacity:0.313726;" d="M 11.90625 3.144531 L 19.84375 3.144531 L 19.84375 33.574219 L 11.90625 33.574219 Z M 11.90625 3.144531 "/>
<path style=" stroke:none;fill-rule:nonzero;fill:rgb(87.843138%,87.843138%,87.843138%);fill-opacity:1;" d="M 12.238281 21.996094 C 11.871094 21.996094 11.574219 22.292969 11.574219 22.660156 L 11.574219 23.320312 C 11.574219 23.6875 11.871094 23.980469 12.238281 23.980469 L 14.222656 23.980469 C 14.585938 23.980469 14.882812 23.6875 14.882812 23.320312 L 15.300781 23.320312 C 15.417969 23.519531 15.628906 23.652344 15.875 23.652344 C 16.242188 23.652344 16.535156 23.355469 16.535156 22.988281 C 16.535156 22.625 16.242188 22.328125 15.875 22.328125 C 15.628906 22.328125 15.417969 22.460938 15.300781 22.660156 L 14.882812 22.660156 C 14.882812 22.292969 14.585938 21.996094 14.222656 21.996094 Z M 12.238281 21.996094 "/>
<path style=" stroke:none;fill-rule:nonzero;fill:rgb(87.843138%,87.843138%,87.843138%);fill-opacity:1;" d="M 12.238281 25.304688 C 11.871094 25.304688 11.574219 25.601562 11.574219 25.964844 L 11.574219 26.628906 C 11.574219 26.992188 11.871094 27.289062 12.238281 27.289062 L 14.222656 27.289062 C 14.585938 27.289062 14.882812 26.992188 14.882812 26.628906 L 15.300781 26.628906 C 15.417969 26.824219 15.628906 26.957031 15.875 26.957031 C 16.242188 26.957031 16.535156 26.664062 16.535156 26.296875 C 16.535156 25.929688 16.242188 25.636719 15.875 25.636719 C 15.628906 25.636719 15.417969 25.769531 15.300781 25.964844 L 14.882812 25.964844 C 14.882812 25.601562 14.585938 25.304688 14.222656 25.304688 Z M 12.238281 25.304688 "/>
<path style=" stroke:none;fill-rule:nonzero;fill:rgb(87.843138%,87.843138%,87.843138%);fill-opacity:1;" d="M 12.238281 28.613281 C 11.871094 28.613281 11.574219 28.90625 11.574219 29.273438 L 11.574219 29.933594 C 11.574219 30.300781 11.871094 30.597656 12.238281 30.597656 L 14.222656 30.597656 C 14.585938 30.597656 14.882812 30.300781 14.882812 29.933594 L 15.300781 29.933594 C 15.417969 30.132812 15.628906 30.265625 15.875 30.265625 C 16.242188 30.265625 16.535156 29.96875 16.535156 29.605469 C 16.535156 29.238281 16.242188 28.941406 15.875 28.941406 C 15.628906 28.941406 15.417969 29.074219 15.300781 29.273438 L 14.882812 29.273438 C 14.882812 28.90625 14.585938 28.613281 14.222656 28.613281 Z M 12.238281 28.613281 "/>
<path style=" stroke:none;fill-rule:nonzero;fill:rgb(87.843138%,87.843138%,87.843138%);fill-opacity:1;" d="M 12.238281 18.691406 C 11.871094 18.691406 11.574219 18.984375 11.574219 19.351562 L 11.574219 20.011719 C 11.574219 20.378906 11.871094 20.675781 12.238281 20.675781 L 14.222656 20.675781 C 14.585938 20.675781 14.882812 20.378906 14.882812 20.011719 L 15.300781 20.011719 C 15.417969 20.210938 15.628906 20.34375 15.875 20.34375 C 16.242188 20.34375 16.535156 20.046875 16.535156 19.683594 C 16.535156 19.316406 16.242188 19.019531 15.875 19.019531 C 15.628906 19.019531 15.417969 19.152344 15.300781 19.351562 L 14.882812 19.351562 C 14.882812 18.984375 14.585938 18.691406 14.222656 18.691406 Z M 12.238281 18.691406 "/>
<path style=" stroke:none;fill-rule:nonzero;fill:rgb(87.843138%,87.843138%,87.843138%);fill-opacity:1;" d="M 12.238281 15.382812 C 11.871094 15.382812 11.574219 15.679688 11.574219 16.042969 L 11.574219 16.707031 C 11.574219 17.070312 11.871094 17.367188 12.238281 17.367188 L 14.222656 17.367188 C 14.585938 17.367188 14.882812 17.070312 14.882812 16.707031 L 15.300781 16.707031 C 15.417969 16.902344 15.628906 17.035156 15.875 17.035156 C 16.242188 17.035156 16.535156 16.742188 16.535156 16.375 C 16.535156 16.007812 16.242188 15.714844 15.875 15.714844 C 15.628906 15.714844 15.417969 15.847656 15.300781 16.042969 L 14.882812 16.042969 C 14.882812 15.679688 14.585938 15.382812 14.222656 15.382812 Z M 12.238281 15.382812 "/>
<path style=" stroke:none;fill-rule:nonzero;fill:rgb(87.843138%,87.843138%,87.843138%);fill-opacity:1;" d="M 12.238281 12.074219 C 11.871094 12.074219 11.574219 12.371094 11.574219 12.738281 L 11.574219 13.398438 C 11.574219 13.765625 11.871094 14.058594 12.238281 14.058594 L 14.222656 14.058594 C 14.585938 14.058594 14.882812 13.765625 14.882812 13.398438 L 15.300781 13.398438 C 15.417969 13.597656 15.628906 13.730469 15.875 13.730469 C 16.242188 13.730469 16.535156 13.433594 16.535156 13.066406 C 16.535156 12.703125 16.242188 12.40625 15.875 12.40625 C 15.628906 12.40625 15.417969 12.539062 15.300781 12.738281 L 14.882812 12.738281 C 14.882812 12.371094 14.585938 12.074219 14.222656 12.074219 Z M 12.238281 12.074219 "/>
<path style=" stroke:none;fill-rule:nonzero;fill:rgb(87.843138%,87.843138%,87.843138%);fill-opacity:1;" d="M 12.238281 8.769531 C 11.871094 8.769531 11.574219 9.0625 11.574219 9.429688 L 11.574219 10.089844 C 11.574219 10.457031 11.871094 10.753906 12.238281 10.753906 L 14.222656 10.753906 C 14.585938 10.753906 14.882812 10.457031 14.882812 10.089844 L 15.300781 10.089844 C 15.417969 10.289062 15.628906 10.421875 15.875 10.421875 C 16.242188 10.421875 16.535156 10.125 16.535156 9.761719 C 16.535156 9.394531 16.242188 9.097656 15.875 9.097656 C 15.628906 9.097656 15.417969 9.230469 15.300781 9.429688 L 14.882812 9.429688 C 14.882812 9.0625 14.585938 8.769531 14.222656 8.769531 Z M 12.238281 8.769531 "/>
<path style=" stroke:none;fill-rule:nonzero;fill:rgb(87.843138%,87.843138%,87.843138%);fill-opacity:1;" d="M 12.238281 5.460938 C 11.871094 5.460938 11.574219 5.757812 11.574219 6.121094 L 11.574219 6.785156 C 11.574219 7.148438 11.871094 7.445312 12.238281 7.445312 L 14.222656 7.445312 C 14.585938 7.445312 14.882812 7.148438 14.882812 6.785156 L 15.300781 6.785156 C 15.417969 6.980469 15.628906 7.113281 15.875 7.113281 C 16.242188 7.113281 16.535156 6.820312 16.535156 6.453125 C 16.535156 6.085938 16.242188 5.792969 15.875 5.792969 C 15.628906 5.792969 15.417969 5.925781 15.300781 6.121094 L 14.882812 6.121094 C 14.882812 5.757812 14.585938 5.460938 14.222656 5.460938 Z M 12.238281 5.460938 "/>
<path style=" stroke:none;fill-rule:nonzero;fill:rgb(87.843138%,87.843138%,87.843138%);fill-opacity:1;" d="M 19.511719 20.34375 C 19.878906 20.34375 20.175781 20.640625 20.175781 21.003906 L 20.175781 21.667969 C 20.175781 22.03125 19.878906 22.328125 19.511719 22.328125 L 17.527344 22.328125 C 17.164062 22.328125 16.867188 22.03125 16.867188 21.667969 L 16.449219 21.667969 C 16.332031 21.863281 16.121094 21.996094 15.875 21.996094 C 15.507812 21.996094 15.214844 21.703125 15.214844 21.335938 C 15.214844 20.96875 15.507812 20.675781 15.875 20.675781 C 16.121094 20.675781 16.332031 20.808594 16.449219 21.003906 L 16.867188 21.003906 C 16.867188 20.640625 17.164062 20.34375 17.527344 20.34375 Z M 19.511719 20.34375 "/>
<path style=" stroke:none;fill-rule:nonzero;fill:rgb(87.843138%,87.843138%,87.843138%);fill-opacity:1;" d="M 19.511719 23.652344 C 19.878906 23.652344 20.175781 23.945312 20.175781 24.3125 L 20.175781 24.972656 C 20.175781 25.339844 19.878906 25.636719 19.511719 25.636719 L 17.527344 25.636719 C 17.164062 25.636719 16.867188 25.339844 16.867188 24.972656 L 16.449219 24.972656 C 16.332031 25.171875 16.121094 25.304688 15.875 25.304688 C 15.507812 25.304688 15.214844 25.007812 15.214844 24.644531 C 15.214844 24.277344 15.507812 23.980469 15.875 23.980469 C 16.121094 23.980469 16.332031 24.113281 16.449219 24.3125 L 16.867188 24.3125 C 16.867188 23.945312 17.164062 23.652344 17.527344 23.652344 Z M 19.511719 23.652344 "/>
<path style=" stroke:none;fill-rule:nonzero;fill:rgb(87.843138%,87.843138%,87.843138%);fill-opacity:1;" d="M 19.511719 26.957031 C 19.878906 26.957031 20.175781 27.253906 20.175781 27.621094 L 20.175781 28.28125 C 20.175781 28.648438 19.878906 28.941406 19.511719 28.941406 L 17.527344 28.941406 C 17.164062 28.941406 16.867188 28.648438 16.867188 28.28125 L 16.449219 28.28125 C 16.332031 28.480469 16.121094 28.613281 15.875 28.613281 C 15.507812 28.613281 15.214844 28.316406 15.214844 27.949219 C 15.214844 27.585938 15.507812 27.289062 15.875 27.289062 C 16.121094 27.289062 16.332031 27.421875 16.449219 27.621094 L 16.867188 27.621094 C 16.867188 27.253906 17.164062 26.957031 17.527344 26.957031 Z M 19.511719 26.957031 "/>
<path style=" stroke:none;fill-rule:nonzero;fill:rgb(87.843138%,87.843138%,87.843138%);fill-opacity:1;" d="M 19.511719 30.265625 C 19.878906 30.265625 20.175781 30.5625 20.175781 30.925781 L 20.175781 31.589844 C 20.175781 31.953125 19.878906 32.25 19.511719 32.25 L 17.527344 32.25 C 17.164062 32.25 16.867188 31.953125 16.867188 31.589844 L 16.449219 31.589844 C 16.332031 31.785156 16.121094 31.917969 15.875 31.917969 C 15.507812 31.917969 15.214844 31.625 15.214844 31.257812 C 15.214844 30.890625 15.507812 30.597656 15.875 30.597656 C 16.121094 30.597656 16.332031 30.730469 16.449219 30.925781 L 16.867188 30.925781 C 16.867188 30.5625 17.164062 30.265625 17.527344 30.265625 Z M 19.511719 30.265625 "/>
<path style=" stroke:none;fill-rule:nonzero;fill:rgb(87.843138%,87.843138%,87.843138%);fill-opacity:1;" d="M 19.511719 17.035156 C 19.878906 17.035156 20.175781 17.332031 20.175781 17.699219 L 20.175781 18.359375 C 20.175781 18.726562 19.878906 19.019531 19.511719 19.019531 L 17.527344 19.019531 C 17.164062 19.019531 16.867188 18.726562 16.867188 18.359375 L 16.449219 18.359375 C 16.332031 18.558594 16.121094 18.691406 15.875 18.691406 C 15.507812 18.691406 15.214844 18.394531 15.214844 18.027344 C 15.214844 17.664062 15.507812 17.367188 15.875 17.367188 C 16.121094 17.367188 16.332031 17.5 16.449219 17.699219 L 16.867188 17.699219 C 16.867188 17.332031 17.164062 17.035156 17.527344 17.035156 Z M 19.511719 17.035156 "/>
<path style=" stroke:none;fill-rule:nonzero;fill:rgb(87.843138%,87.843138%,87.843138%);fill-opacity:1;" d="M 19.511719 13.730469 C 19.878906 13.730469 20.175781 14.023438 20.175781 14.390625 L 20.175781 15.050781 C 20.175781 15.417969 19.878906 15.714844 19.511719 15.714844 L 17.527344 15.714844 C 17.164062 15.714844 16.867188 15.417969 16.867188 15.050781 L 16.449219 15.050781 C 16.332031 15.25 16.121094 15.382812 15.875 15.382812 C 15.507812 15.382812 15.214844 15.085938 15.214844 14.722656 C 15.214844 14.355469 15.507812 14.058594 15.875 14.058594 C 16.121094 14.058594 16.332031 14.191406 16.449219 14.390625 L 16.867188 14.390625 C 16.867188 14.023438 17.164062 13.730469 17.527344 13.730469 Z M 19.511719 13.730469 "/>
<path style=" stroke:none;fill-rule:nonzero;fill:rgb(87.843138%,87.843138%,87.843138%);fill-opacity:1;" d="M 19.511719 10.421875 C 19.878906 10.421875 20.175781 10.71875 20.175781 11.082031 L 20.175781 11.746094 C 20.175781 12.109375 19.878906 12.40625 19.511719 12.40625 L 17.527344 12.40625 C 17.164062 12.40625 16.867188 12.109375 16.867188 11.746094 L 16.449219 11.746094 C 16.332031 11.941406 16.121094 12.074219 15.875 12.074219 C 15.507812 12.074219 15.214844 11.78125 15.214844 11.414062 C 15.214844 11.046875 15.507812 10.753906 15.875 10.753906 C 16.121094 10.753906 16.332031 10.886719 16.449219 11.082031 L 16.867188 11.082031 C 16.867188 10.71875 17.164062 10.421875 17.527344 10.421875 Z M 19.511719 10.421875 "/>
<path style=" stroke:none;fill-rule:nonzero;fill:rgb(87.843138%,87.843138%,87.843138%);fill-opacity:1;" d="M 19.511719 7.113281 C 19.878906 7.113281 20.175781 7.410156 20.175781 7.777344 L 20.175781 8.4375 C 20.175781 8.804688 19.878906 9.097656 19.511719 9.097656 L 17.527344 9.097656 C 17.164062 9.097656 16.867188 8.804688 16.867188 8.4375 L 16.449219 8.4375 C 16.332031 8.636719 16.121094 8.769531 15.875 8.769531 C 15.507812 8.769531 15.214844 8.472656 15.214844 8.105469 C 15.214844 7.742188 15.507812 7.445312 15.875 7.445312 C 16.121094 7.445312 16.332031 7.578125 16.449219 7.777344 L 16.867188 7.777344 C 16.867188 7.410156 17.164062 7.113281 17.527344 7.113281 Z M 19.511719 7.113281 "/>
<path style=" stroke:none;fill-rule:nonzero;fill:rgb(87.843138%,87.843138%,87.843138%);fill-opacity:1;" d="M 19.511719 3.808594 C 19.878906 3.808594 20.175781 4.101562 20.175781 4.46875 L 20.175781 5.128906 C 20.175781 5.496094 19.878906 5.792969 19.511719 5.792969 L 17.527344 5.792969 C 17.164062 5.792969 16.867188 5.496094 16.867188 5.128906 L 16.449219 5.128906 C 16.332031 5.328125 16.121094 5.460938 15.875 5.460938 C 15.507812 5.460938 15.214844 5.164062 15.214844 4.800781 C 15.214844 4.433594 15.507812 4.136719 15.875 4.136719 C 16.121094 4.136719 16.332031 4.269531 16.449219 4.46875 L 16.867188 4.46875 C 16.867188 4.101562 17.164062 3.808594 17.527344 3.808594 Z M 19.511719 3.808594 "/>
<path style=" stroke:none;fill-rule:nonzero;fill:rgb(87.843138%,87.843138%,87.843138%);fill-opacity:1;" d="M 11.574219 3.144531 L 11.574219 3.476562 C 11.574219 3.84375 11.871094 4.136719 12.238281 4.136719 L 14.222656 4.136719 C 14.585938 4.136719 14.882812 3.84375 14.882812 3.476562 L 15.300781 3.476562 C 15.417969 3.675781 15.628906 3.808594 15.875 3.808594 C 16.242188 3.808594 16.535156 3.511719 16.535156 3.144531 Z M 11.574219 3.144531 "/>
<path style=" stroke:none;fill-rule:nonzero;fill:url(#linear0);" d="M 11.246094 37.542969 L 20.503906 37.542969 L 20.503906 33.574219 L 11.246094 33.574219 Z M 11.246094 37.542969 "/>
<path style=" stroke:none;fill-rule:nonzero;fill:rgb(74.117649%,74.117649%,74.117649%);fill-opacity:1;" d="M 15.875 30.265625 C 18.433594 30.265625 20.503906 31.894531 20.503906 33.902344 C 20.503906 35.914062 18.433594 37.542969 15.875 37.542969 C 13.316406 37.542969 11.246094 35.914062 11.246094 33.902344 C 11.246094 31.894531 13.316406 30.265625 15.875 30.265625 Z M 15.875 30.265625 "/>
<path style=" stroke:none;fill-rule:nonzero;fill:rgb(87.843138%,87.843138%,87.843138%);fill-opacity:1;" d="M 15.875 33.574219 C 14.410156 33.574219 13.230469 34.753906 13.230469 36.21875 L 11.90625 46.800781 L 11.90625 49.449219 C 11.90625 51.648438 13.675781 53.417969 15.875 53.417969 C 18.074219 53.417969 19.84375 51.648438 19.84375 49.449219 L 19.84375 46.800781 L 18.519531 36.21875 C 18.519531 34.753906 17.339844 33.574219 15.875 33.574219 Z M 15.875 34.894531 C 16.609375 34.894531 17.199219 35.484375 17.199219 36.21875 C 17.199219 36.953125 16.609375 37.542969 15.875 37.542969 C 15.140625 37.542969 14.550781 36.953125 14.550781 36.21875 C 14.550781 35.484375 15.140625 34.894531 15.875 34.894531 Z M 15.875 40.1875 C 16.972656 40.1875 17.859375 41.074219 17.859375 42.171875 L 17.859375 43.496094 C 17.859375 44.59375 16.972656 45.480469 15.875 45.480469 C 14.777344 45.480469 13.890625 44.59375 13.890625 43.496094 L 13.890625 42.171875 C 13.890625 41.074219 14.777344 40.1875 15.875 40.1875 Z M 15.875 46.800781 C 17.339844 46.800781 18.519531 47.980469 18.519531 49.449219 C 18.519531 50.914062 17.339844 52.09375 15.875 52.09375 C 14.410156 52.09375 13.230469 50.914062 13.230469 49.449219 C 13.230469 47.980469 14.410156 46.800781 15.875 46.800781 Z M 15.875 46.800781 "/>
<path style=" stroke:none;fill-rule:nonzero;fill:rgb(87.843138%,87.843138%,87.843138%);fill-opacity:1;" d="M 15.214844 30.925781 L 16.535156 30.925781 C 16.902344 30.925781 17.199219 31.222656 17.199219 31.589844 L 17.199219 36.21875 C 17.199219 36.585938 16.902344 36.878906 16.535156 36.878906 L 15.214844 36.878906 C 14.847656 36.878906 14.550781 36.585938 14.550781 36.21875 L 14.550781 31.589844 C 14.550781 31.222656 14.847656 30.925781 15.214844 30.925781 Z M 15.214844 30.925781 "/>
<path style=" stroke:none;fill-rule:nonzero;fill:rgb(62.352943%,65.882355%,85.490197%);fill-opacity:1;" d="M 41.671875 29.605469 C 37.640625 29.605469 34.394531 32.554688 34.394531 36.21875 L 34.394531 50.109375 C 34.394531 50.476562 34.691406 50.769531 35.058594 50.769531 L 36.378906 50.769531 C 36.746094 50.769531 37.042969 50.476562 37.042969 50.109375 L 37.042969 44.15625 L 46.300781 44.15625 L 46.300781 50.109375 C 46.300781 50.476562 46.597656 50.769531 46.964844 50.769531 L 48.285156 50.769531 C 48.652344 50.769531 48.949219 50.476562 48.949219 50.109375 L 48.949219 36.21875 C 48.949219 32.554688 45.703125 29.605469 41.671875 29.605469 Z M 41.671875 32.25 C 44.238281 32.25 46.300781 34.019531 46.300781 36.21875 L 46.300781 41.511719 L 37.042969 41.511719 L 37.042969 36.21875 C 37.042969 34.019531 39.105469 32.25 41.671875 32.25 Z M 41.671875 32.25 "/>
<path style=" stroke:none;fill-rule:nonzero;fill:rgb(96.078432%,96.078432%,96.078432%);fill-opacity:1;" d="M 48.285156 43.015625 C 44.253906 43.015625 41.011719 45.964844 41.011719 49.628906 C 41.011719 53.292969 44.253906 56.242188 48.285156 56.242188 C 50.046875 56.242188 51.660156 55.679688 52.917969 54.738281 L 52.917969 55.582031 C 52.917969 55.949219 53.210938 56.242188 53.578125 56.242188 L 54.902344 56.242188 C 55.265625 56.242188 55.5625 55.949219 55.5625 55.582031 L 55.5625 43.675781 C 55.5625 43.308594 55.265625 43.015625 54.902344 43.015625 L 53.578125 43.015625 C 53.210938 43.015625 52.917969 43.308594 52.917969 43.675781 L 52.917969 44.519531 C 51.660156 43.578125 50.046875 43.015625 48.285156 43.015625 Z M 48.285156 45.660156 C 50.851562 45.660156 52.917969 47.429688 52.917969 49.628906 C 52.917969 51.828125 50.851562 53.597656 48.285156 53.597656 C 45.722656 53.597656 43.65625 51.828125 43.65625 49.628906 C 43.65625 47.429688 45.722656 45.660156 48.285156 45.660156 Z M 48.285156 45.660156 "/>
</g>
</svg>
