<?xml version="1.0" encoding="UTF-8"?>
<svg xmlns="http://www.w3.org/2000/svg" xmlns:xlink="http://www.w3.org/1999/xlink" width="64px" height="64px" viewBox="0 0 64 64" version="1.1">
<g id="surface1">
<path style=" stroke:none;fill-rule:nonzero;fill:rgb(36.078432%,41.960785%,75.294119%);fill-opacity:1;" d="M 31.75 3.144531 C 47.824219 3.144531 60.855469 16.175781 60.855469 32.25 C 60.855469 48.324219 47.824219 61.355469 31.75 61.355469 C 15.675781 61.355469 2.644531 48.324219 2.644531 32.25 C 2.644531 16.175781 15.675781 3.144531 31.75 3.144531 Z M 31.75 3.144531 "/>
<path style=" stroke:none;fill-rule:nonzero;fill:rgb(47.450981%,52.549022%,79.607844%);fill-opacity:1;" d="M 31.796875 3.023438 C 28.996094 3.304688 26.050781 3.679688 23.53125 4.949219 C 23.3125 6.296875 28.109375 8.070312 24.246094 9.269531 C 24.71875 11.402344 27.136719 13.339844 28.054688 10.152344 C 29.671875 8.652344 33.195312 9.183594 33.878906 6.5625 C 35.351562 3.878906 34.136719 3.972656 31.800781 3.023438 C 31.800781 3.023438 31.796875 3.023438 31.796875 3.023438 Z M 23.339844 4.246094 C 22.234375 4.578125 21.152344 4.972656 20.109375 5.429688 C 21.3125 5.199219 22.769531 4.835938 23.339844 4.246094 Z M 18.261719 6.433594 C 17.386719 6.75 17.1875 8.03125 16.769531 7.144531 C 16.710938 7.179688 16.652344 7.21875 16.59375 7.253906 C 16.34375 8.621094 14.421875 9.855469 15.546875 10.703125 C 16.585938 9.300781 18.578125 7.058594 20.4375 9.378906 C 22.058594 10.984375 23.503906 8.769531 21.238281 8.136719 C 20.972656 6.675781 18.695312 7.734375 18.261719 6.433594 Z M 46.625 7.542969 C 43.71875 7.636719 42.65625 10.003906 40.839844 11.578125 C 40.574219 14.394531 42.941406 11.648438 44.050781 13.792969 C 45.308594 12.613281 44.117188 9.648438 46.578125 9.132812 C 46.496094 10.25 45.285156 12.550781 47.53125 11.976562 C 46.246094 13 43.964844 16.667969 42.632812 13.929688 C 41.632812 13.238281 42.417969 16.097656 40.761719 15.488281 C 40.257812 17.355469 36.414062 17.070312 38.828125 18.929688 C 36.960938 19.054688 34.691406 21.691406 37.234375 23.011719 C 39.671875 23.382812 39.75 19.257812 42.484375 19.550781 C 43.699219 20.347656 44.535156 21.226562 44.402344 22.214844 C 46.90625 21.824219 43.027344 18.292969 45.628906 20.128906 C 45.898438 21.367188 47.460938 24.265625 47.449219 21.238281 C 49.15625 21.429688 49.738281 24.023438 51.851562 23.445312 C 52.71875 25.9375 48.460938 25.511719 46.992188 24.71875 C 44.714844 27.042969 43.832031 22.171875 40.925781 23.191406 C 37.589844 23.183594 35.214844 25.777344 33.199219 28.125 C 32.3125 30.117188 31.785156 32.183594 32.03125 34.242188 C 32.785156 36.242188 35.660156 39.207031 37.289062 38.695312 C 39.3125 37.835938 41.507812 38.226562 43.921875 38.710938 C 44.945312 39.941406 43.367188 41.546875 45.035156 42.644531 C 45.007812 44.90625 46.117188 46.671875 44.832031 48.777344 C 44.78125 51.671875 46.960938 54.046875 47.101562 56.882812 C 48.886719 55.777344 50.539062 54.484375 52.039062 53.03125 C 52.050781 52.972656 52.0625 52.914062 52.074219 52.851562 C 53.648438 51.882812 50.789062 50.195312 53.636719 49.402344 C 56.464844 47.644531 52.933594 43.347656 55.667969 41.074219 C 56.886719 39.605469 59.164062 36.1875 58.050781 35.0625 C 54.757812 35 60.46875 32.691406 60.835938 31.046875 C 60.816406 30.566406 60.789062 30.089844 60.746094 29.613281 C 60.414062 28.867188 59.703125 28.394531 59.265625 29.546875 C 57.855469 29.460938 56.386719 25.183594 58.382812 27.332031 C 58.992188 27.117188 59.84375 27.6875 60.585938 28.152344 C 59.628906 21.074219 56.148438 14.824219 51.070312 10.328125 C 50.214844 10.945312 48.980469 10.441406 49.1875 9.054688 C 49.3125 9.058594 49.425781 9.058594 49.535156 9.054688 C 49.085938 8.710938 48.628906 8.378906 48.164062 8.0625 C 47.640625 7.914062 47.136719 7.722656 46.625 7.542969 Z M 15.140625 8.195312 C 7.578125 13.441406 2.644531 22.1875 2.644531 32.128906 C 2.644531 32.527344 2.652344 32.921875 2.671875 33.316406 C 4.480469 34.40625 6.988281 34.460938 8.144531 36.476562 C 9.96875 37.28125 11.972656 37.601562 10.144531 40.019531 C 8.925781 42.175781 8.554688 44.691406 10.46875 46.625 C 11.519531 48.792969 14.367188 50.363281 13.417969 53.113281 C 13.90625 54.058594 14.304688 54.792969 14.535156 55.625 C 16.09375 56.769531 17.773438 57.761719 19.550781 58.578125 C 19.742188 58.367188 19.910156 58.089844 20.054688 57.722656 C 23.363281 57.171875 20.804688 52.519531 23.628906 51.800781 C 26.761719 50.769531 23.597656 46.738281 26.804688 45.644531 C 28.894531 42.730469 24.226562 42.089844 22.410156 41.066406 C 20.722656 39.980469 20.082031 38.265625 18.097656 37.875 C 18.054688 34.886719 14.273438 37.496094 13.605469 34.65625 C 12.117188 33.421875 10.863281 38.46875 8.972656 35.769531 C 8.316406 34.921875 9.03125 32.484375 7.121094 33.34375 C 8.085938 31.492188 6.824219 29.523438 5.539062 31.816406 C 2.523438 32.171875 3.53125 27.023438 6.101562 26.929688 C 7.539062 25.992188 9.335938 26.371094 10.3125 27.851562 C 9.375 24.839844 13.542969 24.511719 13.382812 21.757812 C 14.8125 20.078125 18.632812 20.921875 19.195312 18.3125 C 18.242188 18.101562 15.113281 18.671875 17.480469 17.265625 C 19.207031 16.53125 23.9375 16.277344 20.472656 13.929688 C 21.160156 11.425781 18.242188 13.683594 18.578125 11.605469 C 16.070312 9.667969 16.640625 14.425781 14.757812 14.628906 C 13.726562 17.554688 13.847656 13.527344 11.828125 13.910156 C 9.089844 11.480469 16.804688 10.816406 15.140625 8.195312 Z M 36.390625 8.539062 C 35.132812 8.589844 32.453125 9.675781 35.085938 10.152344 C 35.832031 9.878906 37.898438 9.511719 36.390625 8.539062 Z M 19.460938 9.539062 C 16.960938 11.042969 22.871094 11.390625 19.777344 9.601562 Z M 38.03125 12.597656 C 39.070312 13.796875 37.289062 17.726562 39.796875 16.222656 C 41.019531 15.273438 38.839844 12.945312 38.03125 12.597656 Z M 37.5625 14.191406 C 34.753906 15.292969 39.289062 16.988281 37.5625 14.191406 Z M 21.347656 16.589844 C 20.894531 18.265625 22.898438 18.554688 21.941406 17.023438 L 21.613281 16.808594 Z M 52.03125 26.957031 C 53.863281 28.472656 54.214844 31.058594 55.691406 32.738281 C 55.550781 34.128906 56.742188 36.25 54.59375 34.503906 C 54.6875 31.699219 51.246094 29.628906 51.695312 27.085938 Z M 52.03125 26.957031 "/>
<path style=" stroke:none;fill-rule:nonzero;fill:rgb(74.117649%,74.117649%,74.117649%);fill-opacity:1;" d="M 42.773438 20.101562 L 49.828125 20.101562 C 50.808594 20.101562 51.523438 20.890625 51.59375 21.867188 L 54.238281 58.707031 C 54.34375 60.171875 53.058594 61.355469 51.59375 61.355469 L 41.011719 61.355469 C 39.542969 61.355469 38.257812 60.171875 38.363281 58.707031 L 41.011719 21.867188 C 41.082031 20.890625 41.796875 20.101562 42.773438 20.101562 Z M 42.773438 20.101562 "/>
<path style=" stroke:none;fill-rule:nonzero;fill:rgb(87.843138%,87.843138%,87.843138%);fill-opacity:1;" d="M 48.0625 3.144531 C 42.992188 2.566406 37.839844 4.972656 35.117188 9.6875 C 31.453125 16.035156 33.613281 24.09375 39.960938 27.757812 C 46.308594 31.421875 54.367188 29.261719 58.03125 22.917969 C 60.753906 18.199219 60.261719 12.539062 57.226562 8.4375 L 51.15625 18.949219 C 50.425781 20.21875 48.8125 20.648438 47.542969 19.914062 L 42.960938 17.269531 C 41.691406 16.539062 41.261719 14.925781 41.992188 13.65625 Z M 48.0625 3.144531 "/>
<path style=" stroke:none;fill-rule:nonzero;fill:rgb(61.960787%,61.960787%,61.960787%);fill-opacity:1;" d="M 46.300781 32.25 C 47.761719 32.25 48.949219 33.433594 48.949219 34.894531 L 48.949219 54.738281 C 48.949219 56.199219 47.761719 57.386719 46.300781 57.386719 C 44.839844 57.386719 43.65625 56.199219 43.65625 54.738281 L 43.65625 34.894531 C 43.65625 33.433594 44.839844 32.25 46.300781 32.25 Z M 46.300781 32.25 "/>
</g>
</svg>
