<?xml version="1.0" encoding="UTF-8"?>
<svg xmlns="http://www.w3.org/2000/svg" xmlns:xlink="http://www.w3.org/1999/xlink" width="64px" height="64px" viewBox="0 0 64 64" version="1.1">
<g id="surface1">
<path style=" stroke:none;fill-rule:nonzero;fill:rgb(38.039216%,38.039216%,38.039216%);fill-opacity:1;" d="M 31.75 3.144531 C 18.558594 3.144531 7.9375 13.765625 7.9375 26.957031 L 7.9375 30.925781 C 7.9375 31.371094 7.949219 31.8125 7.972656 32.25 L 10.636719 32.25 C 10.601562 31.742188 10.582031 31.226562 10.582031 30.707031 L 10.582031 27.179688 C 10.582031 15.453125 20.023438 6.011719 31.75 6.011719 C 43.476562 6.011719 52.917969 15.453125 52.917969 27.179688 L 52.917969 30.707031 C 52.917969 31.226562 52.898438 31.742188 52.863281 32.25 L 55.527344 32.25 C 55.550781 31.8125 55.5625 31.371094 55.5625 30.925781 L 55.5625 26.957031 C 55.5625 13.765625 44.941406 3.144531 31.75 3.144531 Z M 31.75 3.144531 "/>
<path style=" stroke:none;fill-rule:nonzero;fill:rgb(100%,65.490198%,14.901961%);fill-opacity:1;" d="M 27.648438 15.054688 C 25.71875 15.117188 24.082031 16.609375 23.839844 18.527344 L 23.363281 22.34375 C 22.769531 21.941406 22.066406 21.695312 21.316406 21.667969 C 19.363281 21.59375 17.609375 23 17.257812 24.921875 C 17.257812 24.925781 17.257812 24.925781 17.257812 24.925781 L 15.207031 36.214844 L 10.582031 36.214844 L 10.625 36.214844 C 8.441406 36.183594 6.59375 38.003906 6.59375 40.1875 C 6.59375 42.371094 8.441406 44.191406 10.625 44.160156 L 10.582031 44.160156 L 18.519531 44.160156 C 18.722656 44.160156 18.921875 44.136719 19.117188 44.105469 L 19.863281 51.1875 C 19.863281 51.1875 19.863281 51.1875 19.863281 51.191406 C 20.074219 53.171875 21.78125 54.722656 23.773438 54.742188 C 25.25 54.753906 26.578125 53.925781 27.273438 52.695312 L 27.800781 57.792969 C 27.800781 57.796875 27.800781 57.796875 27.800781 57.796875 C 28.007812 59.789062 29.726562 61.34375 31.726562 61.355469 C 33.730469 61.367188 35.460938 59.832031 35.695312 57.84375 C 35.695312 57.84375 35.695312 57.839844 35.695312 57.839844 L 36.410156 51.652344 C 37.109375 52.683594 38.265625 53.375 39.5625 53.417969 C 41.464844 53.476562 43.171875 52.140625 43.570312 50.28125 L 44.9375 43.90625 C 45.367188 44.066406 45.824219 44.160156 46.300781 44.160156 L 52.917969 44.160156 L 52.875 44.160156 C 55.058594 44.191406 56.910156 42.371094 56.910156 40.1875 C 56.910156 38.003906 55.058594 36.183594 52.875 36.214844 L 52.917969 36.214844 L 49.296875 36.214844 L 47.476562 29.835938 C 47.472656 29.835938 47.472656 29.835938 47.472656 29.835938 C 46.960938 28.039062 45.136719 26.90625 43.523438 26.957031 C 42.441406 26.996094 41.3125 27.578125 40.5625 28.5 L 39.644531 22.398438 C 39.351562 20.449219 37.621094 18.988281 35.652344 19.019531 C 34.027344 19.046875 32.613281 20.09375 32.035156 21.554688 L 31.730469 18.613281 C 31.730469 18.613281 31.730469 18.609375 31.730469 18.609375 C 31.515625 16.5625 29.707031 14.984375 27.648438 15.054688 Z M 22.5 50.601562 L 22.5 50.605469 Z M 22.5 50.601562 "/>
<path style=" stroke:none;fill-rule:nonzero;fill:rgb(93.725491%,32.549021%,31.37255%);fill-opacity:1;" d="M 27.738281 17.699219 C 27.085938 17.71875 26.550781 18.210938 26.46875 18.855469 L 23.925781 39.195312 L 22.484375 25.496094 C 22.414062 24.84375 21.875 24.339844 21.214844 24.3125 C 20.558594 24.289062 19.980469 24.75 19.863281 25.398438 L 17.414062 38.863281 L 10.582031 38.863281 C 10.105469 38.855469 9.660156 39.105469 9.421875 39.519531 C 9.179688 39.933594 9.179688 40.441406 9.421875 40.855469 C 9.660156 41.269531 10.105469 41.519531 10.582031 41.511719 L 18.519531 41.511719 C 19.160156 41.511719 19.707031 41.054688 19.824219 40.425781 L 20.816406 34.957031 L 22.496094 50.910156 C 22.566406 51.578125 23.128906 52.085938 23.800781 52.09375 C 24.472656 52.097656 25.042969 51.601562 25.125 50.933594 L 27.65625 30.683594 L 30.433594 57.523438 C 30.503906 58.191406 31.066406 58.703125 31.742188 58.707031 C 32.417969 58.710938 32.988281 58.207031 33.066406 57.539062 L 35.890625 33.054688 L 38.378906 49.644531 C 38.472656 50.277344 39.007812 50.75 39.644531 50.769531 C 40.285156 50.789062 40.847656 50.351562 40.980469 49.726562 L 43.839844 36.386719 L 45.03125 40.550781 C 45.191406 41.121094 45.710938 41.511719 46.300781 41.511719 L 52.917969 41.511719 C 53.394531 41.519531 53.839844 41.269531 54.078125 40.855469 C 54.320312 40.441406 54.320312 39.933594 54.078125 39.519531 C 53.839844 39.105469 53.394531 38.855469 52.917969 38.863281 L 47.300781 38.863281 L 44.929688 30.5625 C 44.761719 29.980469 44.21875 29.585938 43.613281 29.605469 C 43.003906 29.625 42.488281 30.054688 42.363281 30.648438 L 39.917969 42.058594 L 37.027344 22.792969 C 36.929688 22.136719 36.359375 21.65625 35.695312 21.667969 C 35.03125 21.679688 34.480469 22.179688 34.402344 22.835938 L 31.820312 45.214844 L 29.097656 18.882812 C 29.027344 18.195312 28.433594 17.675781 27.738281 17.699219 Z M 27.738281 17.699219 "/>
<path style=" stroke:none;fill-rule:nonzero;fill:rgb(38.039216%,38.039216%,38.039216%);fill-opacity:1;" d="M 58.117188 34.753906 C 56.707031 34.375 55.257812 35.214844 54.878906 36.625 L 52.480469 45.570312 C 52.101562 46.980469 52.941406 48.429688 54.351562 48.808594 C 55.761719 49.1875 57.214844 48.351562 57.59375 46.9375 L 59.988281 37.992188 C 60.367188 36.582031 59.53125 35.132812 58.117188 34.753906 Z M 58.117188 34.753906 "/>
<path style=" stroke:none;fill-rule:nonzero;fill:rgb(36.078432%,41.960785%,75.294119%);fill-opacity:1;" d="M 56.957031 28.859375 L 54.402344 28.175781 C 52.992188 27.796875 51.539062 28.636719 51.160156 30.046875 L 46.027344 49.214844 C 45.648438 50.625 46.484375 52.078125 47.898438 52.453125 L 50.453125 53.140625 C 51.863281 53.519531 53.316406 52.679688 53.691406 51.269531 L 58.828125 32.101562 C 59.207031 30.691406 58.371094 29.238281 56.957031 28.859375 Z M 56.957031 28.859375 "/>
<path style=" stroke:none;fill-rule:nonzero;fill:rgb(36.078432%,41.960785%,75.294119%);fill-opacity:1;" d="M 31.75 3.144531 C 26.632812 3.144531 21.785156 4.507812 18.660156 6.070312 C 17.800781 6.484375 17.226562 7.332031 17.167969 8.285156 C 17.105469 9.238281 17.5625 10.148438 18.359375 10.671875 C 19.160156 11.195312 20.179688 11.246094 21.027344 10.804688 C 23.195312 9.722656 27.644531 8.4375 31.75 8.4375 C 35.855469 8.4375 40.304688 9.722656 42.472656 10.804688 C 43.320312 11.246094 44.339844 11.195312 45.140625 10.671875 C 45.9375 10.148438 46.394531 9.238281 46.332031 8.285156 C 46.273438 7.332031 45.699219 6.484375 44.839844 6.070312 C 41.714844 4.507812 36.867188 3.144531 31.75 3.144531 Z M 31.75 3.144531 "/>
<path style=" stroke:none;fill-rule:nonzero;fill:rgb(38.039216%,38.039216%,38.039216%);fill-opacity:1;" d="M 5.382812 34.753906 C 6.792969 34.375 8.242188 35.214844 8.621094 36.625 L 11.019531 45.570312 C 11.398438 46.980469 10.558594 48.429688 9.148438 48.808594 C 7.738281 49.1875 6.285156 48.351562 5.90625 46.9375 L 3.511719 37.992188 C 3.132812 36.582031 3.96875 35.132812 5.382812 34.753906 Z M 5.382812 34.753906 "/>
<path style=" stroke:none;fill-rule:nonzero;fill:rgb(36.078432%,41.960785%,75.294119%);fill-opacity:1;" d="M 6.542969 28.859375 L 9.097656 28.175781 C 10.507812 27.796875 11.960938 28.636719 12.339844 30.046875 L 17.472656 49.214844 C 17.851562 50.625 17.015625 52.078125 15.601562 52.453125 L 13.046875 53.140625 C 11.636719 53.519531 10.183594 52.679688 9.808594 51.269531 L 4.671875 32.101562 C 4.292969 30.691406 5.128906 29.238281 6.542969 28.859375 Z M 6.542969 28.859375 "/>
</g>
</svg>
