<?xml version="1.0" encoding="UTF-8"?>
<svg xmlns="http://www.w3.org/2000/svg" xmlns:xlink="http://www.w3.org/1999/xlink" width="64px" height="64px" viewBox="0 0 64 64" version="1.1">
<g id="surface1">
<path style=" stroke:none;fill-rule:nonzero;fill:rgb(36.078432%,41.960785%,75.294119%);fill-opacity:1;" d="M 31.75 3.144531 C 47.824219 3.144531 60.855469 16.175781 60.855469 32.25 C 60.855469 48.324219 47.824219 61.355469 31.75 61.355469 C 15.675781 61.355469 2.644531 48.324219 2.644531 32.25 C 2.644531 16.175781 15.675781 3.144531 31.75 3.144531 Z M 31.75 3.144531 "/>
<path style=" stroke:none;fill-rule:nonzero;fill:rgb(93.333334%,93.333334%,93.333334%);fill-opacity:1;" d="M 31.75 11.082031 C 20.023438 11.082031 10.582031 20.523438 10.582031 32.25 C 10.582031 43.976562 20.023438 53.417969 31.75 53.417969 C 43.476562 53.417969 52.917969 43.976562 52.917969 32.25 C 52.917969 20.523438 43.476562 11.082031 31.75 11.082031 Z M 31.75 16.375 C 40.542969 16.375 47.625 23.457031 47.625 32.25 C 47.625 41.042969 40.542969 48.125 31.75 48.125 C 22.957031 48.125 15.875 41.042969 15.875 32.25 C 15.875 23.457031 22.957031 16.375 31.75 16.375 Z M 31.75 16.375 "/>
<path style=" stroke:none;fill-rule:nonzero;fill:rgb(93.333334%,93.333334%,93.333334%);fill-opacity:1;" d="M 42.039062 14.476562 L 49.523438 21.960938 L 49.523438 14.476562 Z M 42.039062 14.476562 "/>
</g>
</svg>
