
<svg xmlns="http://www.w3.org/2000/svg" xmlns:xlink="http://www.w3.org/1999/xlink" width="64px" height="64px" viewBox="0 0 64 64" version="1.1">
<g id="surface1">
<path style=" stroke:none;fill-rule:nonzero;fill:rgb(45.882353%,45.882353%,45.882353%);fill-opacity:1;" d="M 5.292969 2.644531 L 58.207031 2.644531 C 59.667969 2.644531 60.855469 3.832031 60.855469 5.292969 L 60.855469 58.207031 C 60.855469 59.667969 59.667969 60.855469 58.207031 60.855469 L 5.292969 60.855469 C 3.832031 60.855469 2.644531 59.667969 2.644531 58.207031 L 2.644531 5.292969 C 2.644531 3.832031 3.832031 2.644531 5.292969 2.644531 Z M 5.292969 2.644531 "/>
<path style="fill:none;stroke-width:26.4583;stroke-linecap:butt;stroke-linejoin:miter;stroke:rgb(25.882354%,25.882354%,25.882354%);stroke-opacity:1;stroke-miterlimit:4;" d="M 127 17.84375 L 370.40625 -98.59375 L 370.40625 166 Z M 127 17.84375 " transform="matrix(0.125,0,0,0.125,0,26.875)"/>
<path style=" stroke:none;fill-rule:nonzero;fill:rgb(100%,43.921569%,26.274511%);fill-opacity:1;" d="M 21.167969 17.199219 C 27.742188 17.199219 33.074219 22.527344 33.074219 29.105469 C 33.074219 35.679688 27.742188 41.011719 21.167969 41.011719 C 14.589844 41.011719 9.261719 35.679688 9.261719 29.105469 C 9.261719 22.527344 14.589844 17.199219 21.167969 17.199219 Z M 21.167969 17.199219 "/>
<path style=" stroke:none;fill-rule:nonzero;fill:rgb(100%,43.921569%,26.274511%);fill-opacity:1;" d="M 46.300781 38.363281 C 50.6875 38.363281 54.238281 41.917969 54.238281 46.300781 C 54.238281 50.6875 50.6875 54.238281 46.300781 54.238281 C 41.917969 54.238281 38.363281 50.6875 38.363281 46.300781 C 38.363281 41.917969 41.917969 38.363281 46.300781 38.363281 Z M 46.300781 38.363281 "/>
<path style=" stroke:none;fill-rule:nonzero;fill:rgb(100%,43.921569%,26.274511%);fill-opacity:1;" d="M 46.300781 9.261719 C 49.589844 9.261719 52.253906 11.925781 52.253906 15.214844 C 52.253906 18.5 49.589844 21.167969 46.300781 21.167969 C 43.015625 21.167969 40.347656 18.5 40.347656 15.214844 C 40.347656 11.925781 43.015625 9.261719 46.300781 9.261719 Z M 46.300781 9.261719 "/>
<path style=" stroke:none;fill-rule:nonzero;fill:rgb(100%,67.058825%,56.862748%);fill-opacity:1;" d="M 12.058594 23.371094 C 12.699219 22.265625 13.730469 21.664062 14.359375 22.027344 C 14.992188 22.394531 14.988281 23.585938 14.347656 24.695312 C 13.710938 25.800781 12.679688 26.402344 12.046875 26.039062 C 11.414062 25.671875 11.417969 24.480469 12.058594 23.371094 Z M 12.058594 23.371094 "/>
<path style=" stroke:none;fill-rule:nonzero;fill:rgb(100%,67.058825%,56.862748%);fill-opacity:1;" d="M 42.308594 11.691406 C 42.765625 11.125 43.347656 10.929688 43.609375 11.253906 C 43.871094 11.574219 43.710938 12.292969 43.253906 12.859375 C 42.796875 13.421875 42.214844 13.617188 41.953125 13.296875 C 41.691406 12.972656 41.851562 12.253906 42.308594 11.691406 Z M 42.308594 11.691406 "/>
<path style=" stroke:none;fill-rule:nonzero;fill:rgb(100%,67.058825%,56.862748%);fill-opacity:1;" d="M 40.609375 41.753906 C 41.351562 40.839844 42.296875 40.519531 42.722656 41.042969 C 43.144531 41.566406 42.886719 42.734375 42.144531 43.652344 C 41.402344 44.566406 40.457031 44.886719 40.035156 44.363281 C 39.609375 43.839844 39.867188 42.671875 40.609375 41.753906 Z M 40.609375 41.753906 "/>
</g>
</svg>
