<?xml version="1.0" encoding="UTF-8"?>
<svg xmlns="http://www.w3.org/2000/svg" xmlns:xlink="http://www.w3.org/1999/xlink" width="64px" height="64px" viewBox="0 0 64 64" version="1.1">
<g id="surface1">
<path style=" stroke:none;fill-rule:nonzero;fill:rgb(100%,43.921569%,26.274511%);fill-opacity:1;" d="M 22.445312 3.152344 C 21.203125 3.160156 19.988281 3.75 19.21875 4.847656 C 17.957031 6.648438 18.390625 9.113281 20.191406 10.375 L 32.53125 19.019531 L 6.613281 19.019531 C 4.414062 19.019531 2.644531 20.789062 2.644531 22.988281 C 2.644531 25.1875 4.414062 26.957031 6.613281 26.957031 L 22.980469 26.957031 L 5.074219 44.863281 C 3.519531 46.417969 3.519531 48.921875 5.074219 50.476562 C 6.628906 52.03125 9.132812 52.03125 10.6875 50.476562 L 18.648438 42.519531 C 19.800781 53.140625 28.75 61.355469 39.6875 61.355469 C 51.414062 61.355469 60.855469 51.914062 60.855469 40.1875 C 60.855469 32.667969 56.96875 26.085938 51.089844 22.332031 L 24.746094 3.875 C 24.042969 3.382812 23.238281 3.148438 22.445312 3.152344 Z M 22.445312 3.152344 "/>
<path style=" stroke:none;fill-rule:nonzero;fill:rgb(96.078432%,96.078432%,96.078432%);fill-opacity:1;" d="M 39.6875 26.957031 C 46.992188 26.957031 52.917969 32.882812 52.917969 40.1875 C 52.917969 47.492188 46.992188 53.417969 39.6875 53.417969 C 32.382812 53.417969 26.457031 47.492188 26.457031 40.1875 C 26.457031 32.882812 32.382812 26.957031 39.6875 26.957031 Z M 39.6875 26.957031 "/>
<path style=" stroke:none;fill-rule:nonzero;fill:rgb(25.882354%,64.705884%,96.078432%);fill-opacity:1;" d="M 39.6875 34.894531 C 42.609375 34.894531 44.980469 37.265625 44.980469 40.1875 C 44.980469 43.109375 42.609375 45.480469 39.6875 45.480469 C 36.765625 45.480469 34.394531 43.109375 34.394531 40.1875 C 34.394531 37.265625 36.765625 34.894531 39.6875 34.894531 Z M 39.6875 34.894531 "/>
<path style=" stroke:none;fill-rule:nonzero;fill:rgb(25.882354%,64.705884%,96.078432%);fill-opacity:1;" d="M 39.6875 34.894531 C 42.609375 34.894531 44.980469 37.265625 44.980469 40.1875 C 44.980469 43.109375 42.609375 45.480469 39.6875 45.480469 C 36.765625 45.480469 34.394531 43.109375 34.394531 40.1875 C 34.394531 37.265625 36.765625 34.894531 39.6875 34.894531 Z M 39.6875 34.894531 "/>
</g>
</svg>
