<?xml version="1.0" encoding="UTF-8" standalone="no"?>
<!-- Created with Inkscape (http://www.inkscape.org/) -->

<svg
   width="64"
   height="64"
   viewBox="0 0 16.933333 16.933333"
   version="1.1"
   id="svg5"
   xmlns="http://www.w3.org/2000/svg"
   xmlns:svg="http://www.w3.org/2000/svg">
  <defs
     id="defs2" />
  <g
     id="layer1"
     transform="matrix(1.8190937,0,0,1.8190937,0.7658404,0.76583689)">
    <g
       id="g848"
       transform="matrix(0.52916667,0,0,0.52916667,80.696938,22.334669)">
      <rect
         style="fill:#e55d50;fill-opacity:1"
         width="16"
         height="16"
         x="-152.49815"
         y="-42.207249"
         rx="0.80000001"
         ry="0.80000001"
         id="rect836" />
      <path
         style="fill:#fdeae8;fill-opacity:1"
         d="m -144.49817,-39.207248 c -0.60331,0.0094 -1.19038,0.141283 -1.42879,0.384859 -0.25424,0.259754 -0.30958,0.625056 -0.23855,1.029165 0.13542,0.770414 0.93795,1.714941 1.61042,2.564684 -0.005,0.0055 -0.01,0.01176 -0.0142,0.01724 -0.33871,0.395171 -0.77919,0.757659 -1.10904,1.064438 0.0532,-0.224523 0.0916,-0.468305 0.10044,-0.623927 0.008,-0.133308 0.003,-0.237071 -0.041,-0.321369 -0.0221,-0.04215 -0.0612,-0.08245 -0.11551,-0.09876 -0.0543,-0.01632 -0.11044,-0.0057 -0.15903,0.01568 -0.0972,0.04267 -0.18974,0.128236 -0.30719,0.265718 -0.11744,0.137483 -0.25531,0.367989 -0.41767,0.620791 -0.16236,0.2528 -0.27713,0.455624 -0.35155,0.616872 -0.0383,0.08303 -0.0668,0.154838 -0.0845,0.217905 -0.0167,0.05941 -0.0246,0.111603 -0.0218,0.1599 0.0927,0.117248 0.24307,0.100841 0.36494,0.108168 0.0529,-5.2e-4 0.10799,-0.0093 0.16908,-0.04389 0.14336,-0.08131 0.31882,-0.210249 0.50639,-0.36056 -0.13378,0.415124 -0.2227,0.797492 -0.43608,1.261963 -0.003,0.0065 -0.007,0.01312 -0.0101,0.0196 -1.12593,-0.143688 -2.30117,-0.05269 -3.09612,0.203795 -0.41698,0.134533 -0.73776,0.433978 -0.86296,0.765014 -0.1252,0.33104 -0.0484,0.751374 0.26617,1.272936 0.31457,0.521564 0.66068,0.761241 1.03037,0.835561 0.36968,0.07432 0.73873,-0.02307 1.08058,-0.282178 0.65172,-0.493972 1.2402,-1.63968 1.69747,-2.604659 0.007,10e-4 0.0151,0.0014 0.0226,0.0024 0.53849,0.07448 1.05516,0.379117 1.50663,0.490676 -0.2364,0.06959 -0.44616,0.140864 -0.59596,0.211634 -0.12826,0.06059 -0.2229,0.116031 -0.27956,0.193605 -0.0283,0.03879 -0.047,0.09013 -0.0352,0.141873 0.0119,0.05175 0.0504,0.09157 0.0946,0.119925 0.0884,0.05672 0.21466,0.08885 0.40176,0.114439 0.18711,0.02558 0.43356,0.04068 0.75081,0.04468 9.4e-4,1.2e-5 0.002,-1.2e-5 0.003,0 9.4e-4,-1.2e-5 0.002,1.2e-5 0.003,0 0.31725,-0.004 0.56369,-0.01909 0.7508,-0.04468 0.1871,-0.02558 0.31334,-0.05772 0.40177,-0.114439 0.0442,-0.02836 0.0827,-0.06818 0.0946,-0.119925 0.0119,-0.05175 -0.007,-0.103085 -0.0352,-0.141873 -0.0567,-0.07757 -0.15131,-0.133012 -0.27956,-0.193605 -0.1498,-0.07077 -0.35956,-0.142046 -0.59596,-0.211634 0.45147,-0.111559 0.96813,-0.416199 1.50663,-0.490675 0.008,-9.99e-4 0.0151,-0.0013 0.0226,-0.0024 0.45727,0.964978 1.04575,2.110686 1.69747,2.604658 0.34185,0.259106 0.7109,0.356498 1.08058,0.282178 0.36969,-0.07432 0.7158,-0.313997 1.03037,-0.83556 0.31457,-0.521563 0.39137,-0.941897 0.26617,-1.272937 -0.1252,-0.331037 -0.44599,-0.630484 -0.86296,-0.765016 -0.79495,-0.256481 -1.97019,-0.347483 -3.09612,-0.203794 -0.003,-0.0065 -0.007,-0.01312 -0.0101,-0.0196 -0.21338,-0.464472 -0.3023,-0.846839 -0.43608,-1.261963 0.18757,0.150311 0.36302,0.279252 0.50639,0.36056 0.0611,0.03465 0.11618,0.04337 0.16908,0.04389 0.12187,-0.0073 0.27219,0.0091 0.36494,-0.108168 0.003,-0.0483 -0.005,-0.10049 -0.0218,-0.1599 -0.0178,-0.06306 -0.0462,-0.13487 -0.0845,-0.217902 -0.0744,-0.161249 -0.18919,-0.364073 -0.35155,-0.616873 -0.16236,-0.252805 -0.30023,-0.483311 -0.41767,-0.620794 -0.11745,-0.137482 -0.21001,-0.223051 -0.30719,-0.265718 -0.0486,-0.02133 -0.10476,-0.032 -0.15903,-0.01568 -0.0543,0.01632 -0.0935,0.05661 -0.11551,0.09876 -0.0441,0.0843 -0.0486,0.188062 -0.041,0.321369 0.009,0.155622 0.0473,0.399405 0.10044,0.623927 -0.32985,-0.306778 -0.77033,-0.669266 -1.10905,-1.064437 -0.005,-0.0055 -0.01,-0.01175 -0.0142,-0.01724 0.67247,-0.849743 1.475,-1.79427 1.61042,-2.564684 0.071,-0.404109 0.0157,-0.769411 -0.23855,-1.029165 -0.23844,-0.243576 -0.82551,-0.37548 -1.42882,-0.384859 z"
         id="path838" />
      <g
         id="g270703"
         transform="matrix(1.0103125,0,0,1.0103125,31.099605,-17.255688)">
        <g
           id="g294447"
           transform="matrix(0.98979279,0,0,0.98979276,-41.700476,18.47887)">
          <g
             id="g519797"
             transform="translate(-19.068499)" />
        </g>
      </g>
    </g>
  </g>
</svg>
