<?xml version="1.0" encoding="UTF-8"?>
<svg xmlns="http://www.w3.org/2000/svg" xmlns:xlink="http://www.w3.org/1999/xlink" width="64" height="64" viewBox="0 0 64 64" version="1.1">
<g id="surface1">
<path style=" stroke:none;fill-rule:nonzero;fill:rgb(93.725491%,32.549021%,31.37255%);fill-opacity:1;" d="M 5.292969 2.644531 L 58.207031 2.644531 C 59.667969 2.644531 60.855469 3.832031 60.855469 5.292969 L 60.855469 58.207031 C 60.855469 59.667969 59.667969 60.855469 58.207031 60.855469 L 5.292969 60.855469 C 3.832031 60.855469 2.644531 59.667969 2.644531 58.207031 L 2.644531 5.292969 C 2.644531 3.832031 3.832031 2.644531 5.292969 2.644531 Z M 5.292969 2.644531 "/>
<path style=" stroke:none;fill-rule:nonzero;fill:rgb(71.764708%,10.980392%,10.980392%);fill-opacity:1;" d="M 31.765625 30.425781 C 20.773438 30.425781 11.921875 35.148438 11.921875 41.011719 C 11.921875 46.875 20.773438 51.59375 31.765625 51.59375 C 42.761719 51.59375 51.609375 46.875 51.609375 41.011719 C 51.609375 35.148438 42.761719 30.425781 31.765625 30.425781 Z M 31.75 34.394531 L 31.785156 34.394531 C 40.570312 34.394531 47.640625 37.308594 47.640625 40.925781 L 47.640625 41.09375 C 47.640625 44.710938 40.570312 47.625 31.785156 47.625 L 31.75 47.625 C 22.964844 47.625 15.890625 44.710938 15.890625 41.09375 L 15.890625 40.925781 C 15.890625 37.308594 22.964844 34.394531 31.75 34.394531 Z M 31.75 34.394531 "/>
<path style=" stroke:none;fill-rule:nonzero;fill:rgb(93.333334%,93.333334%,93.333334%);fill-opacity:1;" d="M 31.75 13.230469 L 23.8125 21.167969 L 29.105469 21.167969 L 29.105469 41.011719 L 34.394531 41.011719 L 34.394531 21.167969 L 39.6875 21.167969 Z M 31.75 13.230469 "/>
</g>
</svg>
