<?xml version="1.0" encoding="UTF-8"?>
<svg xmlns="http://www.w3.org/2000/svg" xmlns:xlink="http://www.w3.org/1999/xlink" width="64px" height="64px" viewBox="0 0 64 64" version="1.1">
<g id="surface1">
<path style=" stroke:none;fill-rule:nonzero;fill:rgb(61.176473%,80.000001%,39.607844%);fill-opacity:1;" d="M 5.292969 3.144531 L 58.207031 3.144531 C 59.667969 3.144531 60.855469 4.332031 60.855469 5.792969 L 60.855469 58.707031 C 60.855469 60.167969 59.667969 61.355469 58.207031 61.355469 L 5.292969 61.355469 C 3.832031 61.355469 2.644531 60.167969 2.644531 58.707031 L 2.644531 5.792969 C 2.644531 4.332031 3.832031 3.144531 5.292969 3.144531 Z M 5.292969 3.144531 "/>
<path style=" stroke:none;fill-rule:nonzero;fill:rgb(93.333334%,93.333334%,93.333334%);fill-opacity:1;" d="M 18.519531 16.375 C 17.054688 16.375 15.875 17.554688 15.875 19.019531 L 15.875 45.480469 C 15.875 46.945312 17.054688 48.125 18.519531 48.125 L 44.980469 48.125 C 46.445312 48.125 47.625 46.945312 47.625 45.480469 L 47.625 19.019531 C 47.625 17.554688 46.445312 16.375 44.980469 16.375 Z M 19.84375 19.019531 L 43.65625 19.019531 C 44.390625 19.019531 44.980469 19.609375 44.980469 20.34375 L 44.980469 44.15625 C 44.980469 44.890625 44.390625 45.480469 43.65625 45.480469 L 19.84375 45.480469 C 19.109375 45.480469 18.519531 44.890625 18.519531 44.15625 L 18.519531 20.34375 C 18.519531 19.609375 19.109375 19.019531 19.84375 19.019531 Z M 19.84375 19.019531 "/>
<path style=" stroke:none;fill-rule:nonzero;fill:rgb(25.882354%,25.882354%,25.882354%);fill-opacity:1;" d="M 13.230469 24.125 C 12.710938 24.644531 12.710938 25.476562 13.230469 25.996094 L 30.066406 42.832031 L 33.808594 39.089844 L 54.390625 18.511719 L 56.257812 16.640625 C 56.777344 16.121094 56.777344 15.289062 56.257812 14.769531 L 54.390625 12.898438 C 53.871094 12.382812 53.035156 12.382812 52.519531 12.898438 L 30.066406 35.351562 L 17.90625 23.1875 L 16.972656 22.253906 C 16.453125 21.734375 15.617188 21.734375 15.101562 22.253906 Z M 13.230469 24.125 "/>
</g>
</svg>
