<?xml version="1.0" encoding="UTF-8"?>
<svg xmlns="http://www.w3.org/2000/svg" xmlns:xlink="http://www.w3.org/1999/xlink" width="64px" height="64px" viewBox="0 0 64 64" version="1.1">
<g id="surface1">
<path style=" stroke:none;fill-rule:nonzero;fill:rgb(47.058824%,56.470591%,61.176473%);fill-opacity:1;" d="M 5.292969 3.144531 L 58.207031 3.144531 C 59.667969 3.144531 60.855469 4.332031 60.855469 5.792969 L 60.855469 58.707031 C 60.855469 60.167969 59.667969 61.355469 58.207031 61.355469 L 5.292969 61.355469 C 3.832031 61.355469 2.644531 60.167969 2.644531 58.707031 L 2.644531 5.792969 C 2.644531 4.332031 3.832031 3.144531 5.292969 3.144531 Z M 5.292969 3.144531 "/>
<path style=" stroke:none;fill-rule:nonzero;fill:rgb(93.333334%,93.333334%,93.333334%);fill-opacity:1;" d="M 42.332031 16.15625 C 42.3125 16.167969 42.289062 16.179688 42.273438 16.191406 C 41.996094 16.359375 41.796875 16.632812 41.707031 16.945312 L 38.566406 28.679688 L 34.128906 31.238281 C 33.773438 30.625 32.996094 30.414062 32.378906 30.769531 C 31.765625 31.125 31.554688 31.90625 31.910156 32.523438 L 29.691406 33.800781 L 28.414062 31.585938 L 29.519531 30.941406 C 30.136719 30.589844 30.34375 29.808594 29.988281 29.195312 C 29.636719 28.578125 28.855469 28.371094 28.238281 28.726562 L 26.023438 30.003906 L 23.804688 31.285156 C 23.191406 31.640625 22.980469 32.417969 23.335938 33.035156 C 23.691406 33.648438 24.46875 33.859375 25.085938 33.503906 L 26.195312 32.863281 L 27.476562 35.082031 L 25.257812 36.363281 C 24.902344 35.746094 24.121094 35.539062 23.503906 35.894531 C 22.894531 36.25 22.683594 37.027344 23.035156 37.640625 L 16.027344 41.691406 L 12.417969 41.144531 C 12.125 41.097656 11.816406 41.15625 11.558594 41.3125 C 10.96875 41.675781 10.773438 42.445312 11.121094 43.046875 L 13.679688 47.480469 C 13.925781 47.90625 14.394531 48.152344 14.886719 48.117188 C 15.375 48.082031 15.804688 47.765625 15.980469 47.308594 L 17.308594 43.910156 L 21.257812 41.632812 C 20.789062 42.996094 20.894531 44.546875 21.679688 45.898438 C 23.121094 48.390625 26.28125 49.238281 28.773438 47.800781 L 28.878906 47.742188 C 29.257812 48.261719 29.980469 48.425781 30.550781 48.09375 C 31.125 47.765625 31.34375 47.0625 31.082031 46.46875 L 33.304688 45.183594 L 33.878906 46.171875 C 34.230469 46.789062 35.011719 46.996094 35.628906 46.640625 C 36.242188 46.285156 36.453125 45.507812 36.097656 44.894531 L 35.527344 43.902344 L 37.75 42.617188 C 38.132812 43.144531 38.847656 43.300781 39.425781 42.972656 C 40 42.640625 40.21875 41.9375 39.953125 41.34375 L 40.058594 41.28125 C 42.550781 39.847656 43.398438 36.683594 41.960938 34.191406 C 41.179688 32.839844 39.890625 31.96875 38.472656 31.691406 L 39.898438 30.871094 L 51.03125 32.953125 C 52.105469 33.152344 52.921875 32.003906 52.375 31.054688 L 44.050781 16.636719 C 43.699219 16.03125 42.9375 15.824219 42.332031 16.15625 Z M 27.175781 39.691406 L 29.394531 38.410156 L 31.957031 42.847656 L 29.742188 44.128906 Z M 31.613281 37.128906 L 33.832031 35.851562 L 36.394531 40.285156 L 34.175781 41.566406 Z M 24.960938 40.972656 L 27.519531 45.40625 C 26.257812 46.074219 24.714844 45.671875 24.023438 44.472656 C 23.328125 43.269531 23.75 41.734375 24.960938 40.972656 Z M 36.050781 34.570312 C 37.3125 33.902344 38.855469 34.308594 39.550781 35.507812 C 40.242188 36.707031 39.820312 38.246094 38.609375 39.003906 Z M 36.050781 34.570312 "/>
</g>
</svg>
