<?xml version="1.0" encoding="UTF-8"?>
<svg xmlns="http://www.w3.org/2000/svg" xmlns:xlink="http://www.w3.org/1999/xlink" width="64px" height="64px" viewBox="0 0 64 64" version="1.1">
<g id="surface1">
<path style=" stroke:none;fill-rule:nonzero;fill:rgb(74.117649%,74.117649%,74.117649%);fill-opacity:1;" d="M 49.609375 52.09375 L 58.207031 43.496094 L 51.59375 43.496094 C 50.496094 43.496094 49.609375 44.378906 49.609375 45.480469 Z M 49.609375 52.09375 "/>
<path style=" stroke:none;fill-rule:nonzero;fill:rgb(25.882354%,25.882354%,25.882354%);fill-opacity:1;" d="M 5.292969 7.113281 L 58.207031 7.113281 C 59.667969 7.113281 60.855469 8.300781 60.855469 9.761719 L 60.855469 54.738281 C 60.855469 56.199219 59.667969 57.386719 58.207031 57.386719 L 5.292969 57.386719 C 3.832031 57.386719 2.644531 56.199219 2.644531 54.738281 L 2.644531 9.761719 C 2.644531 8.300781 3.832031 7.113281 5.292969 7.113281 Z M 5.292969 7.113281 "/>
<path style=" stroke:none;fill-rule:nonzero;fill:rgb(61.960787%,61.960787%,61.960787%);fill-opacity:1;" d="M 6.613281 15.050781 L 56.886719 15.050781 C 57.617188 15.050781 58.207031 15.644531 58.207031 16.375 L 58.207031 53.417969 C 58.207031 54.148438 57.617188 54.738281 56.886719 54.738281 L 6.613281 54.738281 C 5.882812 54.738281 5.292969 54.148438 5.292969 53.417969 L 5.292969 16.375 C 5.292969 15.644531 5.882812 15.050781 6.613281 15.050781 Z M 6.613281 15.050781 "/>
<path style=" stroke:none;fill-rule:nonzero;fill:rgb(74.117649%,74.117649%,74.117649%);fill-opacity:1;" d="M 6.613281 15.050781 L 56.886719 15.050781 C 57.617188 15.050781 58.207031 15.644531 58.207031 16.375 L 58.207031 52.09375 C 58.207031 52.824219 57.617188 53.417969 56.886719 53.417969 L 6.613281 53.417969 C 5.882812 53.417969 5.292969 52.824219 5.292969 52.09375 L 5.292969 16.375 C 5.292969 15.644531 5.882812 15.050781 6.613281 15.050781 Z M 6.613281 15.050781 "/>
<path style=" stroke:none;fill-rule:nonzero;fill:rgb(93.333334%,93.333334%,93.333334%);fill-opacity:1;" d="M 6.613281 13.730469 L 56.886719 13.730469 C 57.617188 13.730469 58.207031 14.320312 58.207031 15.050781 L 58.207031 50.769531 C 58.207031 51.5 57.617188 52.09375 56.886719 52.09375 L 6.613281 52.09375 C 5.882812 52.09375 5.292969 51.5 5.292969 50.769531 L 5.292969 15.050781 C 5.292969 14.320312 5.882812 13.730469 6.613281 13.730469 Z M 6.613281 13.730469 "/>
<path style=" stroke:none;fill-rule:nonzero;fill:rgb(38.039216%,38.039216%,38.039216%);fill-opacity:1;" d="M 4.628906 7.113281 C 3.53125 7.113281 2.644531 8 2.644531 9.097656 L 2.644531 17.699219 L 60.855469 17.699219 L 60.855469 9.097656 C 60.855469 8 59.96875 7.113281 58.871094 7.113281 Z M 4.628906 7.113281 "/>
<path style=" stroke:none;fill-rule:nonzero;fill:rgb(87.843138%,87.843138%,87.843138%);fill-opacity:1;" d="M 15.875 9.761719 C 14.410156 9.761719 13.230469 10.941406 13.230469 12.40625 C 13.230469 13.871094 14.410156 15.050781 15.875 15.050781 C 17.339844 15.050781 18.519531 13.871094 18.519531 12.40625 C 18.519531 10.941406 17.339844 9.761719 15.875 9.761719 Z M 15.875 11.082031 C 16.609375 11.082031 17.199219 11.671875 17.199219 12.40625 C 17.199219 13.140625 16.609375 13.730469 15.875 13.730469 C 15.140625 13.730469 14.550781 13.140625 14.550781 12.40625 C 14.550781 11.671875 15.140625 11.082031 15.875 11.082031 Z M 15.875 11.082031 "/>
<path style=" stroke:none;fill-rule:nonzero;fill:rgb(87.843138%,87.843138%,87.843138%);fill-opacity:1;" d="M 31.75 9.761719 C 30.285156 9.761719 29.105469 10.941406 29.105469 12.40625 C 29.105469 13.871094 30.285156 15.050781 31.75 15.050781 C 33.214844 15.050781 34.394531 13.871094 34.394531 12.40625 C 34.394531 10.941406 33.214844 9.761719 31.75 9.761719 Z M 31.75 11.082031 C 32.484375 11.082031 33.074219 11.671875 33.074219 12.40625 C 33.074219 13.140625 32.484375 13.730469 31.75 13.730469 C 31.015625 13.730469 30.425781 13.140625 30.425781 12.40625 C 30.425781 11.671875 31.015625 11.082031 31.75 11.082031 Z M 31.75 11.082031 "/>
<path style=" stroke:none;fill-rule:nonzero;fill:rgb(0%,0%,0%);fill-opacity:0.235294;" d="M 47.625 11.082031 C 48.355469 11.082031 48.949219 11.675781 48.949219 12.40625 C 48.949219 13.136719 48.355469 13.730469 47.625 13.730469 C 46.894531 13.730469 46.300781 13.136719 46.300781 12.40625 C 46.300781 11.675781 46.894531 11.082031 47.625 11.082031 Z M 47.625 11.082031 "/>
<path style=" stroke:none;fill-rule:nonzero;fill:rgb(87.843138%,87.843138%,87.843138%);fill-opacity:1;" d="M 47.625 9.761719 C 46.160156 9.761719 44.980469 10.941406 44.980469 12.40625 C 44.980469 13.871094 46.160156 15.050781 47.625 15.050781 C 49.089844 15.050781 50.269531 13.871094 50.269531 12.40625 C 50.269531 10.941406 49.089844 9.761719 47.625 9.761719 Z M 47.625 11.082031 C 48.359375 11.082031 48.949219 11.671875 48.949219 12.40625 C 48.949219 13.140625 48.359375 13.730469 47.625 13.730469 C 46.890625 13.730469 46.300781 13.140625 46.300781 12.40625 C 46.300781 11.671875 46.890625 11.082031 47.625 11.082031 Z M 47.625 11.082031 "/>
<path style=" stroke:none;fill-rule:nonzero;fill:rgb(87.843138%,87.843138%,87.843138%);fill-opacity:1;" d="M 58.207031 41.511719 L 47.625 52.09375 L 56.886719 52.09375 C 57.617188 52.09375 58.207031 51.503906 58.207031 50.769531 Z M 58.207031 41.511719 "/>
<path style=" stroke:none;fill-rule:nonzero;fill:rgb(98.039216%,98.039216%,98.039216%);fill-opacity:1;" d="M 47.625 52.09375 L 58.207031 41.511719 L 48.949219 41.511719 C 48.214844 41.511719 47.625 42.101562 47.625 42.832031 Z M 47.625 52.09375 "/>
<path style=" stroke:none;fill-rule:nonzero;fill:rgb(0%,0%,0%);fill-opacity:0.235294;" d="M 31.75 11.082031 C 32.480469 11.082031 33.074219 11.675781 33.074219 12.40625 C 33.074219 13.136719 32.480469 13.730469 31.75 13.730469 C 31.019531 13.730469 30.425781 13.136719 30.425781 12.40625 C 30.425781 11.675781 31.019531 11.082031 31.75 11.082031 Z M 31.75 11.082031 "/>
<path style=" stroke:none;fill-rule:nonzero;fill:rgb(0%,0%,0%);fill-opacity:0.235294;" d="M 15.875 11.082031 C 16.605469 11.082031 17.199219 11.675781 17.199219 12.40625 C 17.199219 13.136719 16.605469 13.730469 15.875 13.730469 C 15.144531 13.730469 14.550781 13.136719 14.550781 12.40625 C 14.550781 11.675781 15.144531 11.082031 15.875 11.082031 Z M 15.875 11.082031 "/>
<path style=" stroke:none;fill-rule:nonzero;fill:rgb(89.803922%,22.352941%,20.784314%);fill-opacity:1;" d="M 12.039062 29.320312 C 11.496094 29.335938 11.136719 29.390625 11.136719 29.390625 C 10.691406 29.453125 10.3125 29.753906 10.148438 30.171875 C 9.984375 30.59375 10.058594 31.0625 10.339844 31.414062 C 10.625 31.765625 11.074219 31.933594 11.519531 31.859375 C 11.519531 31.859375 12.578125 31.71875 13.515625 31.949219 C 13.984375 32.066406 14.375 32.257812 14.621094 32.515625 C 14.867188 32.769531 15.046875 33.089844 15.046875 33.820312 C 15.046875 35.589844 14.554688 37.148438 14.515625 38.765625 C 14.496094 39.570312 14.628906 40.46875 15.160156 41.238281 C 15.699219 42.015625 16.550781 42.554688 17.652344 42.921875 C 20.835938 43.980469 21.996094 48.089844 21.996094 48.089844 C 22.101562 48.53125 22.433594 48.878906 22.867188 49.003906 C 23.296875 49.128906 23.765625 49.007812 24.085938 48.691406 C 24.410156 48.378906 24.53125 47.914062 24.414062 47.476562 C 24.414062 47.476562 23.175781 42.136719 18.441406 40.554688 C 17.664062 40.296875 17.359375 40.03125 17.214844 39.820312 C 17.066406 39.609375 16.996094 39.34375 17.007812 38.824219 C 17.03125 37.78125 17.542969 36.007812 17.542969 33.820312 C 17.542969 32.566406 17.101562 31.5 16.417969 30.789062 C 15.730469 30.070312 14.882812 29.714844 14.105469 29.523438 C 13.332031 29.339844 12.589844 29.304688 12.039062 29.320312 Z M 12.039062 29.320312 "/>
<path style=" stroke:none;fill-rule:nonzero;fill:rgb(95.294118%,25.882354%,20.784314%);fill-opacity:1;" d="M 51.195312 15.5 C 50.683594 14.984375 49.855469 14.984375 49.34375 15.5 L 29.742188 35.097656 C 29.234375 35.609375 29.234375 36.4375 29.742188 36.949219 L 29.75 36.957031 L 28.804688 37.902344 L 28.796875 37.894531 C 28.128906 37.234375 27.003906 37.460938 26.652344 38.335938 L 22.917969 47.667969 C 22.496094 48.738281 23.554688 49.800781 24.621094 49.371094 L 33.957031 45.636719 C 34.828125 45.289062 35.058594 44.160156 34.394531 43.496094 L 34.386719 43.492188 L 35.335938 42.539062 L 35.34375 42.546875 C 35.851562 43.058594 36.683594 43.058594 37.195312 42.546875 L 56.792969 22.949219 C 57.304688 22.4375 57.304688 21.609375 56.792969 21.097656 Z M 51.195312 15.5 "/>
<path style=" stroke:none;fill-rule:nonzero;fill:rgb(93.725491%,32.549021%,31.37255%);fill-opacity:1;" d="M 51.195312 15.5 C 50.683594 14.984375 49.855469 14.984375 49.34375 15.5 L 29.742188 35.097656 C 29.234375 35.609375 29.234375 36.4375 29.742188 36.949219 L 29.75 36.957031 L 29.734375 36.972656 L 35.320312 42.554688 L 35.335938 42.539062 L 35.34375 42.546875 C 35.851562 43.058594 36.683594 43.058594 37.195312 42.546875 L 56.792969 22.949219 C 57.304688 22.4375 57.304688 21.609375 56.792969 21.097656 Z M 51.195312 15.5 "/>
<path style=" stroke:none;fill-rule:nonzero;fill:rgb(89.803922%,22.352941%,20.784314%);fill-opacity:0.196078;" d="M 29.722656 36.957031 L 35.320312 42.554688 L 34.386719 43.492188 L 28.789062 37.890625 Z M 29.722656 36.957031 "/>
<path style=" stroke:none;fill-rule:nonzero;fill:rgb(93.725491%,32.549021%,31.37255%);fill-opacity:1;" d="M 28.796875 37.894531 C 28.128906 37.234375 27.003906 37.460938 26.652344 38.335938 L 22.917969 47.667969 C 22.496094 48.738281 23.554688 49.800781 24.621094 49.371094 L 33.957031 45.636719 C 34.828125 45.289062 35.058594 44.160156 34.394531 43.496094 L 34.386719 43.492188 L 28.804688 37.902344 Z M 28.796875 37.894531 "/>
<path style=" stroke:none;fill-rule:nonzero;fill:rgb(25.882354%,25.882354%,25.882354%);fill-opacity:1;" d="M 45.3125 19.574219 L 44.378906 20.507812 L 51.804688 27.933594 L 52.742188 27.003906 Z M 35.515625 29.371094 L 34.578125 30.304688 L 42.011719 37.734375 L 42.941406 36.800781 Z M 35.515625 29.371094 "/>
</g>
</svg>
