<?xml version="1.0" encoding="UTF-8"?>
<svg xmlns="http://www.w3.org/2000/svg" xmlns:xlink="http://www.w3.org/1999/xlink" width="64px" height="64px" viewBox="0 0 64 64" version="1.1">
<g id="surface1">
<path style=" stroke:none;fill-rule:nonzero;fill:rgb(25.882354%,64.705884%,96.078432%);fill-opacity:1;" d="M 5.292969 3.144531 L 58.207031 3.144531 C 59.667969 3.144531 60.855469 4.332031 60.855469 5.792969 L 60.855469 58.707031 C 60.855469 60.167969 59.667969 61.355469 58.207031 61.355469 L 5.292969 61.355469 C 3.832031 61.355469 2.644531 60.167969 2.644531 58.707031 L 2.644531 5.792969 C 2.644531 4.332031 3.832031 3.144531 5.292969 3.144531 Z M 5.292969 3.144531 "/>
<path style=" stroke:none;fill-rule:nonzero;fill:rgb(89.019608%,94.901961%,99.215686%);fill-opacity:1;" d="M 5.292969 54.738281 L 10.582031 54.738281 L 10.582031 58.707031 L 5.292969 58.707031 Z M 5.292969 54.738281 "/>
<path style=" stroke:none;fill-rule:nonzero;fill:rgb(89.019608%,94.901961%,99.215686%);fill-opacity:1;" d="M 13.230469 54.738281 L 18.519531 54.738281 L 18.519531 58.707031 L 13.230469 58.707031 Z M 13.230469 54.738281 "/>
<path style=" stroke:none;fill-rule:nonzero;fill:rgb(89.019608%,94.901961%,99.215686%);fill-opacity:1;" d="M 21.167969 54.738281 L 26.457031 54.738281 L 26.457031 58.707031 L 21.167969 58.707031 Z M 21.167969 54.738281 "/>
<path style=" stroke:none;fill-rule:nonzero;fill:rgb(89.019608%,94.901961%,99.215686%);fill-opacity:1;" d="M 29.105469 54.738281 L 34.394531 54.738281 L 34.394531 58.707031 L 29.105469 58.707031 Z M 29.105469 54.738281 "/>
<path style=" stroke:none;fill-rule:nonzero;fill:rgb(89.019608%,94.901961%,99.215686%);fill-opacity:1;" d="M 37.042969 54.738281 L 42.332031 54.738281 L 42.332031 58.707031 L 37.042969 58.707031 Z M 37.042969 54.738281 "/>
<path style=" stroke:none;fill-rule:nonzero;fill:rgb(89.019608%,94.901961%,99.215686%);fill-opacity:1;" d="M 44.980469 54.738281 L 50.269531 54.738281 L 50.269531 58.707031 L 44.980469 58.707031 Z M 44.980469 54.738281 "/>
<path style=" stroke:none;fill-rule:nonzero;fill:rgb(89.019608%,94.901961%,99.215686%);fill-opacity:1;" d="M 52.917969 54.738281 L 58.207031 54.738281 L 58.207031 58.707031 L 52.917969 58.707031 Z M 52.917969 54.738281 "/>
<path style=" stroke:none;fill-rule:nonzero;fill:rgb(73.333335%,87.058824%,98.431373%);fill-opacity:1;" d="M 5.292969 48.125 L 10.582031 48.125 L 10.582031 52.09375 L 5.292969 52.09375 Z M 5.292969 48.125 "/>
<path style=" stroke:none;fill-rule:nonzero;fill:rgb(73.333335%,87.058824%,98.431373%);fill-opacity:1;" d="M 21.167969 48.125 L 26.457031 48.125 L 26.457031 52.09375 L 21.167969 52.09375 Z M 21.167969 48.125 "/>
<path style=" stroke:none;fill-rule:nonzero;fill:rgb(73.333335%,87.058824%,98.431373%);fill-opacity:1;" d="M 29.105469 48.125 L 34.394531 48.125 L 34.394531 52.09375 L 29.105469 52.09375 Z M 29.105469 48.125 "/>
<path style=" stroke:none;fill-rule:nonzero;fill:rgb(73.333335%,87.058824%,98.431373%);fill-opacity:1;" d="M 37.042969 48.125 L 42.332031 48.125 L 42.332031 52.09375 L 37.042969 52.09375 Z M 37.042969 48.125 "/>
<path style=" stroke:none;fill-rule:nonzero;fill:rgb(73.333335%,87.058824%,98.431373%);fill-opacity:1;" d="M 52.917969 48.125 L 58.207031 48.125 L 58.207031 52.09375 L 52.917969 52.09375 Z M 52.917969 48.125 "/>
<path style=" stroke:none;fill-rule:nonzero;fill:rgb(56.470591%,79.215688%,97.647059%);fill-opacity:1;" d="M 29.105469 41.511719 L 34.394531 41.511719 L 34.394531 45.480469 L 29.105469 45.480469 Z M 29.105469 41.511719 "/>
<path style=" stroke:none;fill-rule:nonzero;fill:rgb(56.470591%,79.215688%,97.647059%);fill-opacity:1;" d="M 52.917969 41.511719 L 58.207031 41.511719 L 58.207031 45.480469 L 52.917969 45.480469 Z M 52.917969 41.511719 "/>
<path style=" stroke:none;fill-rule:nonzero;fill:rgb(89.019608%,94.901961%,99.215686%);fill-opacity:1;" d="M 31.75 5.792969 C 21.488281 5.792969 13.230469 12.871094 13.230469 21.667969 L 13.230469 28.28125 L 11.90625 28.28125 C 11.171875 28.28125 10.582031 28.871094 10.582031 29.605469 L 10.582031 36.21875 C 10.582031 36.953125 11.171875 37.542969 11.90625 37.542969 L 15.875 37.542969 L 15.875 38.863281 C 15.875 39.597656 16.464844 40.1875 17.199219 40.1875 L 19.84375 40.1875 L 19.84375 41.511719 C 19.84375 42.242188 20.433594 42.832031 21.167969 42.832031 L 25.136719 42.832031 C 25.867188 42.832031 26.457031 42.242188 26.457031 41.511719 L 26.457031 25.636719 C 26.457031 24.902344 25.867188 24.3125 25.136719 24.3125 L 21.167969 24.3125 C 20.433594 24.3125 19.84375 24.902344 19.84375 25.636719 L 19.84375 26.957031 L 18.519531 26.957031 L 18.519531 21.667969 C 18.519531 15.804688 23.980469 11.082031 30.757812 11.082031 L 32.742188 11.082031 C 39.519531 11.082031 44.980469 15.804688 44.980469 21.667969 L 44.980469 26.957031 L 43.65625 26.957031 L 43.65625 25.636719 C 43.65625 24.902344 43.066406 24.3125 42.332031 24.3125 L 38.363281 24.3125 C 37.632812 24.3125 37.042969 24.902344 37.042969 25.636719 L 37.042969 41.511719 C 37.042969 42.242188 37.632812 42.832031 38.363281 42.832031 L 42.332031 42.832031 C 43.066406 42.832031 43.65625 42.242188 43.65625 41.511719 L 43.65625 40.1875 L 47.625 40.1875 C 48.359375 40.1875 48.949219 39.597656 48.949219 38.863281 L 48.949219 37.542969 L 51.59375 37.542969 C 52.328125 37.542969 52.917969 36.953125 52.917969 36.21875 L 52.917969 29.605469 C 52.917969 28.871094 52.328125 28.28125 51.59375 28.28125 L 50.269531 28.28125 L 50.269531 21.667969 C 50.269531 12.871094 42.011719 5.792969 31.75 5.792969 Z M 31.75 5.792969 "/>
</g>
</svg>
