<?xml version="1.0" encoding="UTF-8"?>
<svg xmlns="http://www.w3.org/2000/svg" xmlns:xlink="http://www.w3.org/1999/xlink" width="64px" height="64px" viewBox="0 0 64 64" version="1.1">
<g id="surface1">
<path style="fill-rule:nonzero;fill:rgb(0%,53.725493%,48.235294%);fill-opacity:1;stroke-width:0.264583;stroke-linecap:round;stroke-linejoin:round;stroke:rgb(96.078432%,96.078432%,96.078432%);stroke-opacity:1;stroke-miterlimit:4;" d="M 80.125 -112.0625 C 58.59375 -88 42.59375 -60.03125 32.71875 -30.125 L 84.65625 21.84375 L 84.65625 64.15625 L 32.8125 116 C 37.75 130.8125 44.25 145.34375 52.375 159.40625 C 60.46875 173.46875 69.8125 186.375 80.1875 198.03125 L 151 179.0625 L 187.65625 200.21875 L 206.6875 271.1875 C 237.53125 277.59375 269.75 277.75 301.34375 271.125 L 320.34375 200.21875 L 357 179.0625 L 427.875 198.0625 C 449.40625 174 465.40625 146.03125 475.28125 116.125 L 423.34375 64.15625 L 423.34375 21.84375 L 475.1875 -30 C 470.25 -44.8125 463.75 -59.34375 455.625 -73.40625 C 447.53125 -87.46875 438.1875 -100.375 427.8125 -112.03125 L 357 -93.0625 L 320.34375 -114.21875 L 301.3125 -185.1875 C 270.46875 -191.59375 238.25 -191.75 206.65625 -185.125 L 187.65625 -114.21875 L 151 -93.0625 Z M 80.125 -112.0625 " transform="matrix(0.125,0,0,0.125,0,26.875)"/>
<path style=" stroke:none;fill-rule:nonzero;fill:rgb(74.117649%,74.117649%,74.117649%);fill-opacity:1;" d="M 31.75 11.082031 C 43.441406 11.082031 52.917969 20.558594 52.917969 32.25 C 52.917969 43.941406 43.441406 53.417969 31.75 53.417969 C 20.058594 53.417969 10.582031 43.941406 10.582031 32.25 C 10.582031 20.558594 20.058594 11.082031 31.75 11.082031 Z M 31.75 11.082031 "/>
<path style=" stroke:none;fill-rule:nonzero;fill:rgb(0%,53.725493%,48.235294%);fill-opacity:1;" d="M 31.75 16.375 C 40.515625 16.375 47.625 23.484375 47.625 32.25 C 47.625 41.015625 40.515625 48.125 31.75 48.125 C 22.984375 48.125 15.875 41.015625 15.875 32.25 C 15.875 23.484375 22.984375 16.375 31.75 16.375 Z M 31.75 16.375 "/>
<path style=" stroke:none;fill-rule:nonzero;fill:rgb(74.117649%,74.117649%,74.117649%);fill-opacity:1;" d="M 31.75 21.667969 C 37.59375 21.667969 42.332031 26.40625 42.332031 32.25 C 42.332031 38.09375 37.59375 42.832031 31.75 42.832031 C 25.90625 42.832031 21.167969 38.09375 21.167969 32.25 C 21.167969 26.40625 25.90625 21.667969 31.75 21.667969 Z M 31.75 21.667969 "/>
<path style=" stroke:none;fill-rule:nonzero;fill:rgb(25.882354%,25.882354%,25.882354%);fill-opacity:1;" d="M 41.898438 27.714844 L 36.285156 22.101562 L 40.027344 18.359375 L 45.640625 23.972656 Z M 41.898438 27.714844 "/>
<path style=" stroke:none;fill-rule:nonzero;fill:rgb(38.039216%,38.039216%,38.039216%);fill-opacity:1;" d="M 44.238281 25.375 C 44.496094 25.632812 44.914062 25.632812 45.171875 25.375 L 46.109375 24.441406 L 60.140625 10.40625 C 61.175781 9.371094 61.175781 7.703125 60.140625 6.667969 L 57.332031 3.859375 C 56.296875 2.824219 54.628906 2.824219 53.59375 3.859375 L 39.558594 17.890625 L 38.625 18.828125 C 38.367188 19.085938 38.367188 19.503906 38.625 19.761719 Z M 44.238281 25.375 "/>
<path style=" stroke:none;fill-rule:nonzero;fill:rgb(38.039216%,38.039216%,38.039216%);fill-opacity:1;" d="M 31.136719 32.851562 C 31.488281 33.210938 32.015625 33.335938 32.496094 33.179688 C 35.386719 32.214844 40.183594 30.363281 43.300781 27.246094 L 36.753906 20.699219 C 33.636719 23.816406 31.785156 28.613281 30.820312 31.503906 C 30.664062 31.976562 30.785156 32.496094 31.136719 32.851562 Z M 31.136719 32.851562 "/>
</g>
</svg>
