<?xml version="1.0" encoding="UTF-8"?>
<svg xmlns="http://www.w3.org/2000/svg" xmlns:xlink="http://www.w3.org/1999/xlink" width="64px" height="64px" viewBox="0 0 64 64" version="1.1">
<g id="surface1">
<path style=" stroke:none;fill-rule:nonzero;fill:rgb(88.235295%,74.509805%,90.588236%);fill-opacity:1;" d="M 5.292969 7.113281 L 58.207031 7.113281 C 59.667969 7.113281 60.855469 8.300781 60.855469 9.761719 L 60.855469 54.738281 C 60.855469 56.199219 59.667969 57.386719 58.207031 57.386719 L 5.292969 57.386719 C 3.832031 57.386719 2.644531 56.199219 2.644531 54.738281 L 2.644531 9.761719 C 2.644531 8.300781 3.832031 7.113281 5.292969 7.113281 Z M 5.292969 7.113281 "/>
<path style=" stroke:none;fill-rule:nonzero;fill:rgb(80.784315%,57.647061%,84.705883%);fill-opacity:1;" d="M 3.511719 7.796875 C 2.980469 8.28125 2.644531 8.980469 2.644531 9.761719 L 2.644531 54.738281 C 2.644531 56.207031 3.824219 57.386719 5.292969 57.386719 L 58.207031 57.386719 C 58.878906 57.386719 59.488281 57.136719 59.953125 56.730469 L 16.078125 17.699219 Z M 3.511719 7.796875 "/>
<path style=" stroke:none;fill-rule:nonzero;fill:rgb(72.941178%,40.784314%,78.431374%);fill-opacity:1;" d="M 60.023438 7.832031 L 3.476562 56.667969 C 3.949219 57.113281 4.585938 57.386719 5.292969 57.386719 L 58.207031 57.386719 C 59.675781 57.386719 60.855469 56.207031 60.855469 54.738281 L 60.855469 9.761719 C 60.855469 9 60.535156 8.3125 60.023438 7.832031 Z M 60.023438 7.832031 "/>
<path style=" stroke:none;fill-rule:nonzero;fill:rgb(25.882354%,64.705884%,96.078432%);fill-opacity:1;" d="M 11.90625 22.988281 L 18.519531 22.988281 C 19.25 22.988281 19.84375 23.582031 19.84375 24.3125 L 19.84375 29.605469 C 19.84375 30.335938 19.25 30.925781 18.519531 30.925781 L 11.90625 30.925781 C 11.175781 30.925781 10.582031 30.335938 10.582031 29.605469 L 10.582031 24.3125 C 10.582031 23.582031 11.175781 22.988281 11.90625 22.988281 Z M 11.90625 22.988281 "/>
<path style=" stroke:none;fill-rule:nonzero;fill:rgb(49.411765%,34.117648%,76.078433%);fill-opacity:1;" d="M 23.8125 22.988281 L 30.425781 22.988281 C 31.15625 22.988281 31.75 23.582031 31.75 24.3125 L 31.75 29.605469 C 31.75 30.335938 31.15625 30.925781 30.425781 30.925781 L 23.8125 30.925781 C 23.082031 30.925781 22.488281 30.335938 22.488281 29.605469 L 22.488281 24.3125 C 22.488281 23.582031 23.082031 22.988281 23.8125 22.988281 Z M 23.8125 22.988281 "/>
<path style=" stroke:none;fill-rule:nonzero;fill:rgb(40.000001%,73.333335%,41.568628%);fill-opacity:1;" d="M 35.71875 22.988281 L 42.332031 22.988281 C 43.0625 22.988281 43.65625 23.582031 43.65625 24.3125 L 43.65625 29.605469 C 43.65625 30.335938 43.0625 30.925781 42.332031 30.925781 L 35.71875 30.925781 C 34.988281 30.925781 34.394531 30.335938 34.394531 29.605469 L 34.394531 24.3125 C 34.394531 23.582031 34.988281 22.988281 35.71875 22.988281 Z M 35.71875 22.988281 "/>
<path style=" stroke:none;fill-rule:nonzero;fill:rgb(93.725491%,32.549021%,31.37255%);fill-opacity:1;" d="M 47.625 22.988281 L 54.238281 22.988281 C 54.96875 22.988281 55.5625 23.582031 55.5625 24.3125 L 55.5625 29.605469 C 55.5625 30.335938 54.96875 30.925781 54.238281 30.925781 L 47.625 30.925781 C 46.894531 30.925781 46.300781 30.335938 46.300781 29.605469 L 46.300781 24.3125 C 46.300781 23.582031 46.894531 22.988281 47.625 22.988281 Z M 47.625 22.988281 "/>
<path style=" stroke:none;fill-rule:nonzero;fill:rgb(36.078432%,41.960785%,75.294119%);fill-opacity:1;" d="M 11.90625 36.21875 L 18.519531 36.21875 C 19.25 36.21875 19.84375 36.8125 19.84375 37.542969 L 19.84375 42.832031 C 19.84375 43.5625 19.25 44.15625 18.519531 44.15625 L 11.90625 44.15625 C 11.175781 44.15625 10.582031 43.5625 10.582031 42.832031 L 10.582031 37.542969 C 10.582031 36.8125 11.175781 36.21875 11.90625 36.21875 Z M 11.90625 36.21875 "/>
<path style=" stroke:none;fill-rule:nonzero;fill:rgb(100%,65.490198%,14.901961%);fill-opacity:1;" d="M 23.8125 36.21875 L 30.425781 36.21875 C 31.15625 36.21875 31.75 36.8125 31.75 37.542969 L 31.75 42.832031 C 31.75 43.5625 31.15625 44.15625 30.425781 44.15625 L 23.8125 44.15625 C 23.082031 44.15625 22.488281 43.5625 22.488281 42.832031 L 22.488281 37.542969 C 22.488281 36.8125 23.082031 36.21875 23.8125 36.21875 Z M 23.8125 36.21875 "/>
<path style=" stroke:none;fill-rule:nonzero;fill:rgb(47.058824%,56.470591%,61.176473%);fill-opacity:1;" d="M 35.71875 36.21875 L 42.332031 36.21875 C 43.0625 36.21875 43.65625 36.8125 43.65625 37.542969 L 43.65625 42.832031 C 43.65625 43.5625 43.0625 44.15625 42.332031 44.15625 L 35.71875 44.15625 C 34.988281 44.15625 34.394531 43.5625 34.394531 42.832031 L 34.394531 37.542969 C 34.394531 36.8125 34.988281 36.21875 35.71875 36.21875 Z M 35.71875 36.21875 "/>
</g>
</svg>
