
<svg xmlns="http://www.w3.org/2000/svg" xmlns:xlink="http://www.w3.org/1999/xlink" width="64px" height="64px" viewBox="0 0 64 64" version="1.1">
<g id="surface1">
<path style=" stroke:none;fill-rule:nonzero;fill:rgb(61.960787%,61.960787%,61.960787%);fill-opacity:1;" d="M 27.632812 52.917969 L 35.867188 52.917969 C 36.515625 52.917969 37.042969 53.507812 37.042969 54.238281 L 37.042969 58.207031 C 37.042969 58.9375 36.515625 59.53125 35.867188 59.53125 L 27.632812 59.53125 C 26.984375 59.53125 26.457031 58.9375 26.457031 58.207031 L 26.457031 54.238281 C 26.457031 53.507812 26.984375 52.917969 27.632812 52.917969 Z M 27.632812 52.917969 "/>
<path style=" stroke:none;fill-rule:nonzero;fill:rgb(49.411765%,34.117648%,76.078433%);fill-opacity:1;" d="M 5.292969 6.613281 L 58.207031 6.613281 C 59.667969 6.613281 60.855469 7.800781 60.855469 9.261719 L 60.855469 51.59375 C 60.855469 53.054688 59.667969 54.238281 58.207031 54.238281 L 5.292969 54.238281 C 3.832031 54.238281 2.644531 53.054688 2.644531 51.59375 L 2.644531 9.261719 C 2.644531 7.800781 3.832031 6.613281 5.292969 6.613281 Z M 5.292969 6.613281 "/>
<path style=" stroke:none;fill-rule:nonzero;fill:rgb(74.117649%,74.117649%,74.117649%);fill-opacity:1;" d="M 19.84375 56.886719 L 43.65625 56.886719 C 44.386719 56.886719 44.980469 57.476562 44.980469 58.207031 C 44.980469 58.9375 44.386719 59.53125 43.65625 59.53125 L 19.84375 59.53125 C 19.113281 59.53125 18.519531 58.9375 18.519531 58.207031 C 18.519531 57.476562 19.113281 56.886719 19.84375 56.886719 Z M 19.84375 56.886719 "/>
<path style=" stroke:none;fill-rule:nonzero;fill:rgb(25.882354%,25.882354%,25.882354%);fill-opacity:1;" d="M 17.046875 24.175781 C 16.597656 24.179688 16.164062 24.359375 15.851562 24.679688 L 2.644531 37.886719 L 2.644531 51.59375 L 60.851562 51.59375 L 60.851562 39.8125 L 49.644531 29.847656 C 48.925781 29.210938 47.824219 29.277344 47.191406 30.003906 L 36.191406 42.570312 L 18.300781 24.679688 C 17.96875 24.347656 17.515625 24.164062 17.046875 24.175781 Z M 17.046875 24.175781 "/>
<path style=" stroke:none;fill-rule:nonzero;fill:rgb(74.117649%,74.117649%,74.117649%);fill-opacity:1;" d="M 5.292969 6.613281 C 3.824219 6.613281 2.644531 7.792969 2.644531 9.261719 L 60.855469 9.261719 C 60.855469 7.792969 59.675781 6.613281 58.207031 6.613281 Z M 2.644531 51.59375 C 2.644531 53.058594 3.824219 54.238281 5.292969 54.238281 L 58.207031 54.238281 C 59.675781 54.238281 60.855469 53.058594 60.855469 51.59375 Z M 2.644531 51.59375 "/>
<path style=" stroke:none;fill-rule:nonzero;fill:rgb(70.19608%,61.56863%,85.882354%);fill-opacity:1;" d="M 17.046875 24.175781 C 16.597656 24.179688 16.164062 24.359375 15.851562 24.679688 L 9.039062 31.488281 L 10.964844 33.761719 C 11.835938 34.628906 14.371094 34.683594 17.074219 32.890625 C 18.804688 31.167969 20.882812 31.320312 22.308594 32.890625 C 24.339844 34.769531 26.179688 34.628906 28.25 34.628906 L 18.300781 24.679688 C 17.96875 24.347656 17.515625 24.164062 17.046875 24.175781 Z M 48.46875 29.410156 C 47.992188 29.414062 47.523438 29.617188 47.191406 30.003906 L 43.140625 34.628906 L 43.257812 34.628906 C 43.5625 35.296875 43.691406 37.6875 45 36.378906 C 47.238281 34.140625 47.617188 35.070312 48.492188 35.941406 C 49.804688 37.25 50.671875 38.558594 51.984375 38.125 C 54.167969 37.25 54.550781 35.09375 53.574219 33.34375 L 49.644531 29.847656 C 49.308594 29.550781 48.886719 29.40625 48.46875 29.410156 Z M 48.46875 29.410156 "/>
<path style=" stroke:none;fill-rule:nonzero;fill:rgb(100%,83.529413%,30.980393%);fill-opacity:1;" d="M 48.480469 12.039062 C 46.710938 12.039062 45.160156 12.933594 44.246094 14.296875 C 44.558594 14.246094 44.878906 14.222656 45.207031 14.222656 C 48.632812 14.222656 51.390625 16.980469 51.390625 20.40625 C 51.390625 20.734375 51.367188 21.054688 51.320312 21.367188 C 52.679688 20.453125 53.574219 18.902344 53.574219 17.132812 C 53.574219 14.308594 51.304688 12.039062 48.480469 12.039062 Z M 48.480469 12.039062 "/>
<path style=" stroke:none;fill-rule:nonzero;fill:rgb(25.882354%,25.882354%,25.882354%);fill-opacity:0.995763;" d="M 56.847656 45.507812 L 60.488281 45.507812 C 60.6875 45.507812 60.851562 45.671875 60.851562 45.871094 L 60.851562 46.601562 C 60.851562 46.800781 60.6875 46.964844 60.488281 46.964844 L 56.847656 46.964844 C 56.648438 46.964844 56.484375 46.800781 56.484375 46.601562 L 56.484375 45.871094 C 56.484375 45.671875 56.648438 45.507812 56.847656 45.507812 Z M 56.847656 45.507812 "/>
</g>
</svg>
