<?xml version="1.0" encoding="UTF-8"?>
<svg xmlns="http://www.w3.org/2000/svg" xmlns:xlink="http://www.w3.org/1999/xlink" width="64px" height="64px" viewBox="0 0 64 64" version="1.1">
<defs>
<linearGradient id="linear0" gradientUnits="userSpaceOnUse" x1="18.524328" y1="56.074505" x2="18.524328" y2="5.792903" gradientTransform="matrix(1.268871,0,0,1.268871,-8.776948,-6.949257)">
<stop offset="0" style="stop-color:rgb(25.882354%,25.882354%,25.882354%);stop-opacity:1;"/>
<stop offset="1" style="stop-color:rgb(38.039216%,38.039216%,38.039216%);stop-opacity:1;"/>
</linearGradient>
</defs>
<g id="surface1">
<path style=" stroke:none;fill-rule:nonzero;fill:rgb(40.000001%,73.333335%,41.568628%);fill-opacity:1;" d="M 5.292969 3.144531 L 58.207031 3.144531 C 59.667969 3.144531 60.855469 4.332031 60.855469 5.792969 L 60.855469 58.707031 C 60.855469 60.167969 59.667969 61.355469 58.207031 61.355469 L 5.292969 61.355469 C 3.832031 61.355469 2.644531 60.167969 2.644531 58.707031 L 2.644531 5.792969 C 2.644531 4.332031 3.832031 3.144531 5.292969 3.144531 Z M 5.292969 3.144531 "/>
<path style=" stroke:none;fill-rule:nonzero;fill:url(#linear0);" d="M 17.617188 21.570312 L 11.664062 37.554688 L 8.640625 37.554688 L 14.59375 21.570312 Z M 17.617188 21.570312 "/>
<path style=" stroke:none;fill-rule:nonzero;fill:rgb(93.333334%,93.333334%,93.333334%);fill-opacity:1;" d="M 20.863281 21.570312 L 26.820312 37.554688 L 23.796875 37.554688 L 17.84375 21.570312 Z M 20.863281 21.570312 "/>
<path style=" stroke:none;fill-rule:nonzero;fill:rgb(93.333334%,93.333334%,93.333334%);fill-opacity:1;" d="M 28.207031 35.988281 C 28.207031 35.300781 28.398438 34.824219 28.769531 34.554688 C 29.140625 34.269531 29.597656 34.128906 30.136719 34.128906 C 30.65625 34.128906 31.105469 34.269531 31.480469 34.558594 C 31.851562 34.824219 32.035156 35.300781 32.035156 35.988281 C 32.035156 36.644531 31.851562 37.117188 31.480469 37.421875 C 31.105469 37.703125 30.65625 37.84375 30.136719 37.84375 C 29.597656 37.84375 29.140625 37.703125 28.769531 37.421875 C 28.398438 37.117188 28.207031 36.644531 28.207031 35.988281 Z M 28.207031 35.988281 "/>
<path style=" stroke:none;fill-rule:nonzero;fill:rgb(25.882354%,25.882354%,25.882354%);fill-opacity:1;" d="M 17.617188 21.570312 L 11.664062 37.554688 L 8.640625 37.554688 L 14.59375 21.570312 Z M 42.449219 21.570312 L 36.496094 37.554688 L 33.472656 37.554688 L 39.425781 21.570312 Z M 48.246094 25.109375 C 49.753906 25.109375 50.933594 25.703125 51.789062 26.898438 L 51.875 26.898438 L 52.144531 25.332031 L 54.964844 25.332031 L 54.964844 37.574219 C 54.964844 39.324219 54.449219 40.648438 53.417969 41.558594 C 52.390625 42.472656 50.871094 42.929688 48.851562 42.929688 C 47.984375 42.929688 47.183594 42.875 46.433594 42.769531 C 45.699219 42.664062 44.980469 42.476562 44.289062 42.210938 L 44.289062 39.546875 C 45.800781 40.171875 47.421875 40.492188 49.054688 40.484375 C 50.769531 40.484375 51.628906 39.5625 51.628906 37.707031 L 51.628906 37.464844 C 51.628906 37.210938 51.636719 36.953125 51.652344 36.683594 C 51.679688 36.410156 51.703125 36.171875 51.714844 35.964844 L 51.625 35.964844 C 51.210938 36.609375 50.710938 37.070312 50.128906 37.351562 C 49.546875 37.636719 48.890625 37.777344 48.15625 37.777344 C 46.710938 37.777344 45.574219 37.226562 44.757812 36.121094 C 43.949219 35.003906 43.546875 33.453125 43.546875 31.464844 C 43.546875 29.464844 43.964844 27.90625 44.800781 26.789062 C 45.632812 25.667969 46.785156 25.109375 48.246094 25.109375 Z M 49.300781 27.816406 C 47.730469 27.816406 46.949219 29.050781 46.949219 31.507812 C 46.949219 33.941406 47.746094 35.160156 49.34375 35.160156 C 50.195312 35.160156 50.824219 34.917969 51.226562 34.441406 C 51.644531 33.953125 51.851562 33.101562 51.851562 31.890625 L 51.851562 31.488281 C 51.851562 30.175781 51.652344 29.234375 51.246094 28.667969 C 50.84375 28.101562 50.195312 27.816406 49.300781 27.816406 Z M 49.300781 27.816406 "/>
</g>
</svg>
