<?xml version="1.0" encoding="UTF-8"?>
<svg xmlns="http://www.w3.org/2000/svg" xmlns:xlink="http://www.w3.org/1999/xlink" width="64px" height="64px" viewBox="0 0 64 64" version="1.1">
<g id="surface1">
<path style=" stroke:none;fill-rule:nonzero;fill:rgb(11.764706%,53.333336%,89.803922%);fill-opacity:1;" d="M 10.582031 3.144531 L 52.917969 3.144531 C 54.378906 3.144531 55.5625 4.332031 55.5625 5.792969 L 55.5625 58.707031 C 55.5625 60.167969 54.378906 61.355469 52.917969 61.355469 L 10.582031 61.355469 C 9.121094 61.355469 7.9375 60.167969 7.9375 58.707031 L 7.9375 5.792969 C 7.9375 4.332031 9.121094 3.144531 10.582031 3.144531 Z M 10.582031 3.144531 "/>
<path style=" stroke:none;fill-rule:nonzero;fill:rgb(96.078432%,96.078432%,96.078432%);fill-opacity:1;" d="M 14.550781 4.46875 L 52.917969 4.46875 C 53.648438 4.46875 54.238281 5.0625 54.238281 5.792969 L 54.238281 58.707031 C 54.238281 59.4375 53.648438 60.03125 52.917969 60.03125 L 14.550781 60.03125 C 13.820312 60.03125 13.230469 59.4375 13.230469 58.707031 L 13.230469 5.792969 C 13.230469 5.0625 13.820312 4.46875 14.550781 4.46875 Z M 14.550781 4.46875 "/>
<path style=" stroke:none;fill-rule:nonzero;fill:rgb(25.882354%,64.705884%,96.078432%);fill-opacity:1;" d="M 15.875 3.144531 L 15.875 61.355469 L 50.269531 61.355469 C 51.738281 61.355469 52.917969 60.175781 52.917969 58.707031 L 52.917969 5.792969 C 52.917969 4.324219 51.738281 3.144531 50.269531 3.144531 Z M 15.875 3.144531 "/>
<path style=" stroke:none;fill-rule:nonzero;fill:rgb(25.882354%,25.882354%,25.882354%);fill-opacity:1;" d="M 10.582031 3.144531 C 9.117188 3.144531 7.9375 4.324219 7.9375 5.792969 L 7.9375 58.707031 C 7.9375 60.175781 9.117188 61.355469 10.582031 61.355469 L 15.875 61.355469 L 15.875 3.144531 Z M 10.582031 3.144531 "/>
<path style=" stroke:none;fill-rule:nonzero;fill:rgb(25.882354%,25.882354%,25.882354%);fill-opacity:1;" d="M 21.167969 3.144531 L 26.457031 3.144531 L 26.457031 37.542969 L 23.8125 33.574219 L 21.167969 37.542969 Z M 21.167969 3.144531 "/>
<path style=" stroke:none;fill-rule:nonzero;fill:rgb(38.039216%,38.039216%,38.039216%);fill-opacity:1;" d="M 7.9375 30.925781 L 14.550781 30.925781 L 14.550781 33.574219 L 7.9375 33.574219 Z M 7.9375 30.925781 "/>
<path style=" stroke:none;fill-rule:nonzero;fill:rgb(38.039216%,38.039216%,38.039216%);fill-opacity:1;" d="M 7.9375 16.375 L 14.550781 16.375 L 14.550781 19.019531 L 7.9375 19.019531 Z M 7.9375 16.375 "/>
<path style=" stroke:none;fill-rule:nonzero;fill:rgb(38.039216%,38.039216%,38.039216%);fill-opacity:1;" d="M 7.9375 45.480469 L 14.550781 45.480469 L 14.550781 48.125 L 7.9375 48.125 Z M 7.9375 45.480469 "/>
</g>
</svg>
