<?xml version="1.0" encoding="UTF-8"?>
<svg xmlns="http://www.w3.org/2000/svg" xmlns:xlink="http://www.w3.org/1999/xlink" width="64px" height="64px" viewBox="0 0 64 64" version="1.1">
<g id="surface1">
<path style="fill-rule:nonzero;fill:rgb(0%,67.450982%,75.686276%);fill-opacity:1;stroke-width:0.264583;stroke-linecap:round;stroke-linejoin:round;stroke:rgb(96.078432%,96.078432%,96.078432%);stroke-opacity:1;stroke-miterlimit:4;" d="M 80.125 -112.0625 C 58.59375 -88 42.59375 -60.03125 32.71875 -30.125 L 84.65625 21.84375 L 84.65625 64.15625 L 32.8125 116 C 37.75 130.8125 44.25 145.34375 52.375 159.40625 C 60.46875 173.46875 69.8125 186.375 80.1875 198.03125 L 151 179.0625 L 187.65625 200.21875 L 206.6875 271.1875 C 237.53125 277.59375 269.75 277.75 301.34375 271.125 L 320.34375 200.21875 L 357 179.0625 L 427.875 198.0625 C 449.40625 174 465.40625 146.03125 475.28125 116.125 L 423.34375 64.15625 L 423.34375 21.84375 L 475.1875 -30 C 470.25 -44.8125 463.75 -59.34375 455.625 -73.40625 C 447.53125 -87.46875 438.1875 -100.375 427.8125 -112.03125 L 357 -93.0625 L 320.34375 -114.21875 L 301.3125 -185.1875 C 270.46875 -191.59375 238.25 -191.75 206.65625 -185.125 L 187.65625 -114.21875 L 151 -93.0625 Z M 80.125 -112.0625 " transform="matrix(0.125,0,0,0.125,0,26.875)"/>
<path style=" stroke:none;fill-rule:nonzero;fill:rgb(14.901961%,77.64706%,85.490197%);fill-opacity:1;" d="M 31.75 11.082031 C 43.441406 11.082031 52.917969 20.558594 52.917969 32.25 C 52.917969 43.941406 43.441406 53.417969 31.75 53.417969 C 20.058594 53.417969 10.582031 43.941406 10.582031 32.25 C 10.582031 20.558594 20.058594 11.082031 31.75 11.082031 Z M 31.75 11.082031 "/>
<path style=" stroke:none;fill-rule:nonzero;fill:rgb(93.333334%,93.333334%,93.333334%);fill-opacity:1;" d="M 31.75 19.019531 C 24.421875 19.019531 18.519531 24.921875 18.519531 32.25 C 18.519531 39.578125 24.421875 45.480469 31.75 45.480469 C 37.195312 45.480469 41.851562 42.222656 43.886719 37.542969 L 37.675781 37.542969 C 36.222656 39.167969 34.109375 40.1875 31.75 40.1875 C 27.351562 40.1875 23.8125 36.648438 23.8125 32.25 C 23.8125 27.851562 27.351562 24.3125 31.75 24.3125 C 34.109375 24.3125 36.222656 25.332031 37.675781 26.957031 L 43.886719 26.957031 C 41.851562 22.277344 37.195312 19.019531 31.75 19.019531 Z M 31.75 19.019531 "/>
</g>
</svg>
