
<svg xmlns="http://www.w3.org/2000/svg" xmlns:xlink="http://www.w3.org/1999/xlink" width="64px" height="64px" viewBox="0 0 64 64" version="1.1">
<g id="surface1">
<path style=" stroke:none;fill-rule:nonzero;fill:rgb(100%,79.215688%,15.686275%);fill-opacity:1;" d="M 7.9375 2.644531 L 55.5625 2.644531 C 58.484375 2.644531 60.855469 5.015625 60.855469 7.9375 L 60.855469 55.5625 C 60.855469 58.484375 58.484375 60.855469 55.5625 60.855469 L 7.9375 60.855469 C 5.015625 60.855469 2.644531 58.484375 2.644531 55.5625 L 2.644531 7.9375 C 2.644531 5.015625 5.015625 2.644531 7.9375 2.644531 Z M 7.9375 2.644531 "/>
<path style=" stroke:none;fill-rule:nonzero;fill:rgb(74.117649%,74.117649%,74.117649%);fill-opacity:1;" d="M 50.394531 31.171875 L 34.40625 49.6875 C 40.773438 48.570312 49.378906 50.519531 53.171875 46.195312 C 58.457031 39.226562 56.574219 32.414062 50.394531 31.171875 Z M 48.980469 36.253906 C 54.453125 38.871094 47.132812 44.683594 44.15625 42.960938 L 44.066406 39.445312 Z M 48.980469 36.253906 "/>
<path style=" stroke:none;fill-rule:nonzero;fill:rgb(87.843138%,87.843138%,87.843138%);fill-opacity:1;" d="M 16.679688 12.953125 C 30.785156 12.878906 45.492188 21.140625 51.828125 27.929688 C 48.058594 43.03125 37.824219 53.226562 26.050781 50.765625 C 22.4375 50.011719 20.0625 48.933594 16.722656 46.859375 C 7.628906 41.140625 6.765625 26.925781 16.679688 12.953125 Z M 16.679688 12.953125 "/>
<path style=" stroke:none;fill-rule:nonzero;fill:rgb(96.078432%,96.078432%,96.078432%);fill-opacity:1;" d="M 22.191406 14.667969 C 24.488281 15.875 24.945312 19.519531 23.214844 22.8125 C 21.484375 26.105469 18.222656 27.796875 15.929688 26.589844 C 13.632812 25.386719 13.175781 21.738281 14.90625 18.445312 C 16.636719 15.15625 19.898438 13.464844 22.191406 14.667969 Z M 22.191406 14.667969 "/>
<path style=" stroke:none;fill-rule:nonzero;fill:rgb(12.941177%,12.941177%,12.941177%);fill-opacity:1;" d="M 21.550781 17.101562 C 20.53125 17.101562 19.425781 17.628906 18.496094 18.550781 L 20.058594 21.835938 L 16.601562 21.953125 C 16.128906 23.921875 16.640625 25.765625 18.011719 26.484375 C 18.292969 26.632812 18.589844 26.726562 18.902344 26.761719 C 20.53125 26.242188 22.15625 24.832031 23.214844 22.8125 C 23.808594 21.683594 24.144531 20.515625 24.242188 19.417969 C 24.023438 18.519531 23.53125 17.792969 22.785156 17.398438 C 22.402344 17.199219 21.984375 17.101562 21.550781 17.101562 Z M 21.550781 17.101562 "/>
<path style=" stroke:none;fill-rule:nonzero;fill:rgb(74.117649%,74.117649%,74.117649%);fill-opacity:1;" d="M 40.433594 19.707031 C 43.65625 16.710938 47.25 12.375 53.273438 11.390625 C 56.957031 13.28125 57.65625 16.824219 57.707031 19.753906 C 54.792969 21.4375 51.925781 23.265625 49.253906 25.679688 Z M 40.433594 19.707031 "/>
<path style=" stroke:none;fill-rule:nonzero;fill:rgb(25.882354%,64.705884%,96.078432%);fill-opacity:1;" d="M 16.816406 22.277344 C 21.773438 23.605469 24.988281 27.679688 23.996094 31.375 C 23.007812 35.066406 18.1875 36.988281 13.230469 35.660156 C 8.273438 34.332031 5.058594 30.257812 6.046875 26.5625 C 7.039062 22.867188 11.859375 20.949219 16.816406 22.277344 Z M 16.816406 22.277344 "/>
<path style=" stroke:none;fill-rule:nonzero;fill:rgb(56.470591%,79.215688%,97.647059%);fill-opacity:1;" d="M 10.210938 23.191406 C 11.652344 22.804688 13.054688 23.363281 13.34375 24.4375 C 13.628906 25.511719 12.695312 26.695312 11.253906 27.078125 C 9.8125 27.464844 8.414062 26.90625 8.125 25.835938 C 7.835938 24.761719 8.773438 23.574219 10.210938 23.191406 Z M 10.210938 23.191406 "/>
<path style=" stroke:none;fill-rule:nonzero;fill:rgb(96.078432%,96.078432%,96.078432%);fill-opacity:1;" d="M 38.714844 18.910156 C 41.90625 20.585938 42.542969 25.65625 40.136719 30.234375 C 37.730469 34.8125 33.195312 37.167969 30.003906 35.488281 C 26.8125 33.8125 26.175781 28.742188 28.582031 24.164062 C 30.988281 19.585938 35.523438 17.234375 38.714844 18.910156 Z M 38.714844 18.910156 "/>
<path style=" stroke:none;fill-rule:nonzero;fill:rgb(12.941177%,12.941177%,12.941177%);fill-opacity:1;" d="M 37.824219 22.292969 C 36.402344 22.292969 34.871094 23.023438 33.578125 24.308594 L 35.75 28.878906 L 30.9375 29.039062 C 30.285156 31.777344 30.996094 34.34375 32.902344 35.34375 C 33.292969 35.546875 33.707031 35.675781 34.140625 35.726562 C 36.40625 35.007812 38.664062 33.039062 40.136719 30.234375 C 40.960938 28.664062 41.429688 27.039062 41.5625 25.515625 C 41.261719 24.265625 40.578125 23.253906 39.539062 22.707031 C 39.007812 22.429688 38.425781 22.296875 37.824219 22.292969 Z M 37.824219 22.292969 "/>
<path style=" stroke:none;fill-rule:nonzero;fill:rgb(25.882354%,25.882354%,25.882354%);fill-opacity:1;" d="M 29.511719 48 C 19.925781 47.886719 15.160156 38.148438 27.433594 38.707031 C 29.128906 38.796875 30.902344 38.953125 32.210938 38.449219 C 47.265625 31.683594 43.75 45.933594 34.644531 47.449219 C 33.195312 47.730469 31.648438 47.976562 29.511719 48 Z M 29.511719 48 "/>
<path style=" stroke:none;fill-rule:nonzero;fill:rgb(93.725491%,32.549021%,31.37255%);fill-opacity:1;" d="M 40.855469 37.515625 C 38.433594 37.515625 36.332031 38.761719 35.230469 40.617188 C 34.914062 41.148438 34.75 41.710938 34.585938 42.277344 C 34.472656 41.667969 34.675781 41.09375 34.9375 40.511719 C 34.4375 40.355469 33.90625 40.269531 33.347656 40.269531 C 30.613281 40.269531 28.410156 42.347656 28.410156 44.929688 C 28.410156 46.105469 28.867188 47.179688 29.625 48 C 31.703125 47.964844 33.21875 47.722656 34.644531 47.449219 C 40.605469 46.457031 44.171875 40.003906 41.695312 37.566406 C 41.421875 37.535156 41.140625 37.515625 40.855469 37.515625 Z M 40.855469 37.515625 "/>
<path style=" stroke:none;fill-rule:nonzero;fill:rgb(11.764706%,53.333336%,89.803922%);fill-opacity:1;" d="M 45.390625 15.117188 C 43.519531 16.621094 41.933594 18.308594 40.433594 19.707031 L 49.253906 25.679688 C 50.496094 24.558594 51.78125 23.5625 53.09375 22.648438 C 51.386719 19.578125 48.613281 17.15625 45.390625 15.117188 Z M 45.390625 15.117188 "/>
</g>
</svg>
