<?xml version="1.0" encoding="UTF-8"?>
<svg xmlns="http://www.w3.org/2000/svg" xmlns:xlink="http://www.w3.org/1999/xlink" width="64px" height="64px" viewBox="0 0 64 64" version="1.1">
<g id="surface1">
<path style=" stroke:none;fill-rule:nonzero;fill:rgb(68.235296%,83.529413%,50.588238%);fill-opacity:1;" d="M 31.75 3.144531 C 47.824219 3.144531 60.855469 16.175781 60.855469 32.25 C 60.855469 48.324219 47.824219 61.355469 31.75 61.355469 C 15.675781 61.355469 2.644531 48.324219 2.644531 32.25 C 2.644531 16.175781 15.675781 3.144531 31.75 3.144531 Z M 31.75 3.144531 "/>
<path style=" stroke:none;fill-rule:nonzero;fill:rgb(25.882354%,25.882354%,25.882354%);fill-opacity:1;" d="M 31.75 5.792969 C 46.363281 5.792969 58.207031 17.636719 58.207031 32.25 C 58.207031 46.863281 46.363281 58.707031 31.75 58.707031 C 17.136719 58.707031 5.292969 46.863281 5.292969 32.25 C 5.292969 17.636719 17.136719 5.792969 31.75 5.792969 Z M 31.75 5.792969 "/>
<path style=" stroke:none;fill-rule:nonzero;fill:rgb(61.176473%,80.000001%,39.607844%);fill-opacity:1;" d="M 43.65625 11.628906 C 40.585938 9.855469 37.292969 8.839844 33.988281 8.523438 L 36.378906 24.230469 L 51.179688 18.449219 C 49.253906 15.746094 46.726562 13.402344 43.65625 11.628906 Z M 43.65625 11.628906 "/>
<path style=" stroke:none;fill-rule:nonzero;fill:rgb(61.176473%,80.000001%,39.607844%);fill-opacity:1;" d="M 7.9375 32.25 C 7.9375 28.703125 8.707031 25.34375 10.082031 22.324219 L 22.488281 32.25 L 10.082031 42.175781 C 8.707031 39.15625 7.9375 35.796875 7.9375 32.25 Z M 7.9375 32.25 "/>
<path style=" stroke:none;fill-rule:nonzero;fill:rgb(61.176473%,80.000001%,39.607844%);fill-opacity:1;" d="M 43.65625 52.871094 C 40.585938 54.644531 37.292969 55.660156 33.988281 55.976562 L 36.378906 40.269531 L 51.179688 46.050781 C 49.253906 48.753906 46.726562 51.097656 43.65625 52.871094 Z M 43.65625 52.871094 "/>
<path style=" stroke:none;fill-rule:nonzero;fill:rgb(61.176473%,80.000001%,39.607844%);fill-opacity:1;" d="M 33.117188 11.109375 C 25.335938 10.601562 17.59375 14.433594 13.417969 21.667969 C 13.1875 22.066406 12.972656 22.46875 12.769531 22.875 L 14.894531 24.574219 C 15.136719 24.039062 15.410156 23.507812 15.710938 22.988281 C 19.46875 16.480469 26.527344 13.117188 33.527344 13.800781 Z M 49.375 20.496094 L 46.839844 21.484375 C 50.929688 27.207031 51.546875 35 47.789062 41.511719 C 47.488281 42.03125 47.167969 42.53125 46.828125 43.007812 L 49.359375 44 C 49.609375 43.621094 49.851562 43.230469 50.082031 42.832031 C 54.257812 35.601562 53.707031 26.976562 49.375 20.496094 Z M 33.941406 16.515625 C 27.726562 15.640625 21.34375 18.527344 18 24.3125 C 17.628906 24.957031 17.308594 25.617188 17.035156 26.285156 L 19.207031 28.023438 C 19.484375 27.210938 19.847656 26.410156 20.292969 25.636719 C 23.21875 20.570312 28.941406 18.171875 34.359375 19.273438 Z M 44.28125 22.484375 L 41.683594 23.5 C 45.347656 27.644531 46.132812 33.800781 43.207031 38.863281 C 42.757812 39.640625 42.246094 40.351562 41.679688 41 L 44.273438 42.011719 C 44.714844 41.441406 45.125 40.832031 45.5 40.1875 C 48.839844 34.402344 48.144531 27.429688 44.28125 22.484375 Z M 19.203125 36.480469 L 17.027344 38.222656 C 18.308594 41.382812 20.617188 44.152344 23.8125 46 C 27.007812 47.84375 30.5625 48.457031 33.941406 47.988281 L 34.359375 45.230469 C 31.316406 45.84375 28.046875 45.386719 25.136719 43.707031 C 22.222656 42.027344 20.195312 39.421875 19.203125 36.480469 Z M 14.882812 39.9375 L 12.757812 41.636719 C 14.546875 45.253906 17.394531 48.402344 21.167969 50.582031 C 24.9375 52.757812 29.089844 53.652344 33.117188 53.390625 L 33.527344 50.703125 C 29.824219 51.058594 25.972656 50.300781 22.488281 48.289062 C 19.007812 46.277344 16.425781 43.324219 14.882812 39.9375 Z M 14.882812 39.9375 "/>
</g>
</svg>
