
<svg xmlns="http://www.w3.org/2000/svg" xmlns:xlink="http://www.w3.org/1999/xlink" width="64px" height="64px" viewBox="0 0 64 64" version="1.1">
<g id="surface1">
<path style=" stroke:none;fill-rule:nonzero;fill:rgb(74.117649%,74.117649%,74.117649%);fill-opacity:1;" d="M 31.75 2.644531 C 47.824219 2.644531 60.855469 15.675781 60.855469 31.75 C 60.855469 47.824219 47.824219 60.855469 31.75 60.855469 C 15.675781 60.855469 2.644531 47.824219 2.644531 31.75 C 2.644531 15.675781 15.675781 2.644531 31.75 2.644531 Z M 31.75 2.644531 "/>
<path style=" stroke:none;fill-rule:nonzero;fill:rgb(100%,43.921569%,26.274511%);fill-opacity:1;" d="M 31.75 5.292969 C 46.363281 5.292969 58.207031 17.136719 58.207031 31.75 C 58.207031 46.363281 46.363281 58.207031 31.75 58.207031 C 17.136719 58.207031 5.292969 46.363281 5.292969 31.75 C 5.292969 17.136719 17.136719 5.292969 31.75 5.292969 Z M 31.75 5.292969 "/>
<path style=" stroke:none;fill-rule:nonzero;fill:rgb(93.333334%,93.333334%,93.333334%);fill-opacity:1;" d="M 31.75 7.9375 C 44.902344 7.9375 55.5625 18.597656 55.5625 31.75 C 55.5625 44.902344 44.902344 55.5625 31.75 55.5625 C 18.597656 55.5625 7.9375 44.902344 7.9375 31.75 C 7.9375 18.597656 18.597656 7.9375 31.75 7.9375 Z M 31.75 7.9375 "/>
<path style=" stroke:none;fill-rule:nonzero;fill:rgb(48.627451%,70.19608%,25.882354%);fill-opacity:1;" d="M 56.125 57.710938 C 50.441406 52.855469 48.316406 49.9375 42.300781 45.484375 C 41.246094 45.046875 41.058594 46.117188 39.796875 46.851562 C 34.917969 49.683594 34 50.203125 31.597656 50.203125 C 29.554688 50.203125 28.972656 50.050781 26.933594 48.976562 C 25.652344 48.300781 24.386719 47.433594 24.117188 47.046875 C 22.5 44.726562 21.914062 43.757812 20.816406 41.59375 C 20.140625 40.269531 19.117188 38.046875 19.015625 37.253906 C 18.914062 36.457031 18.566406 35.273438 18.242188 34.625 C 17.917969 33.976562 17.253906 31.863281 16.761719 29.933594 C 16.0625 27.164062 15.917969 25.4375 16.082031 23.84375 C 16.347656 21.285156 15.949219 20.304688 13.960938 18.320312 C 12.105469 16.46875 6.65625 9.296875 5.726562 7.230469 C 4.925781 5.453125 5.394531 4.53125 6.320312 6.054688 C 9.203125 10.796875 14.066406 16.46875 16.441406 17.867188 C 17.847656 18.691406 17.96875 18.722656 20.1875 18.324219 C 24.109375 17.621094 30.734375 18.402344 32.800781 19.8125 C 33.503906 20.292969 34.273438 20.683594 34.507812 20.683594 C 34.746094 20.683594 35.796875 20.984375 36.839844 21.355469 C 37.886719 21.722656 39.097656 22.023438 39.535156 22.023438 C 40.726562 22.023438 43.328125 22.628906 43.90625 23.585938 C 44.1875 24.050781 45.152344 24.917969 46.054688 25.511719 C 47.375 26.386719 47.925781 27.070312 48.9375 29.105469 C 50.359375 31.957031 50.441406 32.898438 49.695312 35.417969 C 49.296875 36.769531 48.722656 37.652344 47.375 38.996094 C 45.03125 41.328125 43.800781 42.574219 45.152344 44.535156 C 46.726562 46.820312 50.179688 50.023438 55.503906 54.75 C 58.253906 57.191406 60.59375 59.417969 60.695312 59.691406 C 61.492188 61.773438 59.792969 61.039062 56.125 57.710938 Z M 56.125 57.710938 "/>
</g>
</svg>
