
<svg xmlns="http://www.w3.org/2000/svg" xmlns:xlink="http://www.w3.org/1999/xlink" width="64px" height="64px" viewBox="0 0 64 64" version="1.1">
<g id="surface1">
<path style=" stroke:none;fill-rule:nonzero;fill:rgb(25.882354%,64.705884%,96.078432%);fill-opacity:1;" d="M 46.300781 6.546875 C 60.222656 14.582031 64.992188 32.382812 56.953125 46.300781 C 48.917969 60.222656 31.117188 64.992188 17.199219 56.953125 C 3.277344 48.917969 -1.492188 31.117188 6.546875 17.199219 C 14.582031 3.277344 32.382812 -1.492188 46.300781 6.546875 Z M 46.300781 6.546875 "/>
<path style=" stroke:none;fill-rule:nonzero;fill:rgb(96.078432%,96.078432%,96.078432%);fill-opacity:1;" d="M 31.75 6.613281 C 17.824219 6.613281 6.613281 17.824219 6.613281 31.75 C 6.613281 45.675781 17.824219 56.886719 31.75 56.886719 C 45.675781 56.886719 56.886719 45.675781 56.886719 31.75 C 56.886719 30.519531 56.796875 29.308594 56.628906 28.128906 C 55.21875 36.21875 48.195312 42.332031 39.6875 42.332031 C 30.160156 42.332031 22.488281 34.664062 22.488281 25.136719 C 22.488281 15.609375 30.160156 7.9375 39.6875 7.9375 C 39.742188 7.9375 39.796875 7.9375 39.851562 7.9375 C 37.3125 7.078125 34.585938 6.613281 31.75 6.613281 Z M 39.6875 10.582031 C 31.625 10.582031 25.136719 17.074219 25.136719 25.136719 C 25.136719 33.199219 31.625 39.6875 39.6875 39.6875 C 47.75 39.6875 54.238281 33.199219 54.238281 25.136719 C 54.238281 17.074219 47.75 10.582031 39.6875 10.582031 Z M 39.6875 14.550781 C 45.550781 14.550781 50.269531 19.273438 50.269531 25.136719 C 50.269531 31 45.550781 35.71875 39.6875 35.71875 C 33.824219 35.71875 29.105469 31 29.105469 25.136719 C 29.105469 19.273438 33.824219 14.550781 39.6875 14.550781 Z M 39.6875 14.550781 "/>
</g>
</svg>
