
<svg xmlns="http://www.w3.org/2000/svg" xmlns:xlink="http://www.w3.org/1999/xlink" width="64px" height="64px" viewBox="0 0 64 64" version="1.1">
<g id="surface1">
<path style=" stroke:none;fill-rule:nonzero;fill:rgb(25.882354%,25.882354%,25.882354%);fill-opacity:1;" d="M 5.292969 2.644531 L 58.207031 2.644531 C 59.667969 2.644531 60.855469 3.832031 60.855469 5.292969 L 60.855469 58.207031 C 60.855469 59.667969 59.667969 60.855469 58.207031 60.855469 L 5.292969 60.855469 C 3.832031 60.855469 2.644531 59.667969 2.644531 58.207031 L 2.644531 5.292969 C 2.644531 3.832031 3.832031 2.644531 5.292969 2.644531 Z M 5.292969 2.644531 "/>
<path style=" stroke:none;fill-rule:nonzero;fill:rgb(100%,65.490198%,14.901961%);fill-opacity:1;" d="M 46.300781 33.074219 C 44.757812 33.046875 43.289062 33.429688 42.160156 34.339844 C 41.03125 35.25 40.335938 36.707031 40.335938 38.363281 C 40.335938 40.128906 41.375 41.480469 42.519531 42.207031 C 43.664062 42.9375 44.921875 43.269531 45.871094 43.585938 C 46.90625 43.929688 47.964844 44.257812 48.636719 44.6875 C 49.3125 45.117188 49.597656 45.417969 49.597656 46.300781 C 49.597656 47.292969 49.292969 47.824219 48.769531 48.246094 C 48.246094 48.664062 47.390625 48.945312 46.289062 48.945312 C 45.1875 48.945312 44.285156 48.660156 43.738281 48.277344 C 43.195312 47.894531 42.980469 47.515625 42.980469 46.960938 C 42.988281 46.484375 42.738281 46.042969 42.324219 45.800781 C 41.914062 45.5625 41.402344 45.5625 40.992188 45.800781 C 40.582031 46.042969 40.328125 46.484375 40.335938 46.960938 C 40.335938 48.394531 41.117188 49.667969 42.222656 50.445312 C 43.332031 51.21875 44.746094 51.59375 46.289062 51.59375 C 47.832031 51.59375 49.292969 51.214844 50.421875 50.308594 C 51.550781 49.40625 52.242188 47.953125 52.242188 46.300781 C 52.242188 44.539062 51.203125 43.1875 50.058594 42.457031 C 48.914062 41.726562 47.65625 41.394531 46.707031 41.078125 C 45.671875 40.734375 44.613281 40.40625 43.941406 39.976562 C 43.265625 39.546875 42.980469 39.246094 42.980469 38.363281 C 42.980469 37.375 43.292969 36.824219 43.820312 36.398438 C 44.347656 35.972656 45.191406 35.695312 46.265625 35.71875 C 46.273438 35.71875 46.28125 35.71875 46.289062 35.71875 C 47.390625 35.71875 48.292969 36.003906 48.835938 36.386719 C 49.382812 36.769531 49.597656 37.152344 49.597656 37.703125 C 49.589844 38.179688 49.839844 38.621094 50.253906 38.863281 C 50.664062 39.101562 51.171875 39.101562 51.585938 38.863281 C 51.996094 38.621094 52.246094 38.179688 52.242188 37.703125 C 52.242188 36.269531 51.460938 34.996094 50.355469 34.222656 C 49.25 33.449219 47.839844 33.074219 46.300781 33.074219 Z M 46.300781 33.074219 "/>
<path style=" stroke:none;fill-rule:nonzero;fill:rgb(25.882354%,64.705884%,96.078432%);fill-opacity:1;" d="M 29.765625 33.074219 C 27.566406 33.074219 25.796875 34.84375 25.796875 37.042969 L 25.796875 47.625 C 25.796875 49.824219 27.566406 51.59375 29.765625 51.59375 L 33.734375 51.59375 C 35.933594 51.59375 37.703125 49.824219 37.703125 47.625 L 37.703125 37.042969 C 37.703125 34.84375 35.933594 33.074219 33.734375 33.074219 Z M 29.765625 35.71875 L 33.734375 35.71875 C 34.46875 35.71875 35.058594 36.308594 35.058594 37.042969 L 35.058594 47.625 C 35.058594 48.359375 34.46875 48.949219 33.734375 48.949219 L 29.765625 48.949219 C 29.03125 48.949219 28.441406 48.359375 28.441406 47.625 L 28.441406 37.042969 C 28.441406 36.308594 29.03125 35.71875 29.765625 35.71875 Z M 29.765625 35.71875 "/>
<path style=" stroke:none;fill-rule:nonzero;fill:rgb(93.725491%,32.549021%,31.37255%);fill-opacity:1;" d="M 12.566406 33.074219 C 11.835938 33.074219 11.246094 33.664062 11.246094 34.394531 L 11.246094 50.269531 C 11.246094 50.316406 11.246094 50.363281 11.25 50.40625 C 11.253906 50.429688 11.257812 50.449219 11.261719 50.472656 C 11.355469 51.109375 11.902344 51.59375 12.566406 51.59375 L 19.183594 51.59375 C 21.382812 51.59375 23.152344 49.824219 23.152344 47.625 L 23.152344 37.042969 C 23.152344 34.84375 21.382812 33.074219 19.183594 33.074219 Z M 13.890625 35.71875 L 19.183594 35.71875 C 19.914062 35.71875 20.503906 36.308594 20.503906 37.042969 L 20.503906 47.625 C 20.503906 48.359375 19.914062 48.949219 19.183594 48.949219 L 13.890625 48.949219 Z M 13.890625 35.71875 "/>
<path style=" stroke:none;fill-rule:nonzero;fill:rgb(93.333334%,93.333334%,93.333334%);fill-opacity:1;" d="M 40.347656 9.921875 C 38.429688 9.921875 36.664062 10.488281 35.324219 11.519531 C 33.984375 12.550781 33.070312 14.109375 33.070312 15.875 C 33.070312 17.648438 34.070312 19.125 35.398438 20.054688 C 36.722656 20.984375 38.375 21.515625 40.125 21.847656 C 41.664062 22.136719 42.992188 22.601562 43.816406 23.171875 C 44.640625 23.742188 44.976562 24.253906 44.976562 25.136719 C 44.976562 26.015625 44.566406 26.769531 43.757812 27.394531 C 42.949219 28.015625 41.738281 28.441406 40.347656 28.441406 C 38.960938 28.441406 37.75 28.015625 36.9375 27.394531 C 36.128906 26.769531 35.71875 26.015625 35.71875 25.136719 L 35.71875 25.035156 C 35.71875 24.726562 35.421875 24.472656 35.058594 24.472656 L 33.734375 24.472656 C 33.367188 24.472656 33.074219 24.726562 33.074219 25.035156 L 33.074219 25.136719 L 33.070312 25.136719 C 33.070312 25.152344 33.070312 25.171875 33.074219 25.191406 L 33.074219 25.234375 C 33.074219 25.246094 33.074219 25.257812 33.074219 25.269531 C 33.117188 26.976562 34.019531 28.488281 35.324219 29.492188 C 36.664062 30.523438 38.429688 31.089844 40.347656 31.089844 C 42.265625 31.089844 44.03125 30.523438 45.371094 29.492188 C 46.710938 28.460938 47.625 26.898438 47.625 25.136719 C 47.625 23.371094 46.636719 21.902344 45.320312 20.992188 C 44 20.082031 42.363281 19.574219 40.617188 19.246094 C 39.097656 18.957031 37.757812 18.476562 36.914062 17.886719 C 36.070312 17.296875 35.71875 16.746094 35.71875 15.875 C 35.71875 14.992188 36.128906 14.238281 36.9375 13.617188 C 37.75 12.996094 38.960938 12.570312 40.347656 12.570312 C 41.738281 12.570312 42.949219 12.996094 43.757812 13.617188 C 44.566406 14.238281 44.976562 14.992188 44.976562 15.875 L 44.980469 15.875 L 44.980469 15.972656 C 44.980469 16.285156 45.273438 16.535156 45.640625 16.535156 L 46.964844 16.535156 C 47.328125 16.535156 47.625 16.285156 47.625 15.972656 L 47.625 15.875 C 47.625 15.859375 47.625 15.847656 47.625 15.832031 L 47.625 15.777344 C 47.625 15.765625 47.625 15.75 47.621094 15.738281 C 47.578125 14.03125 46.679688 12.523438 45.371094 11.519531 C 44.03125 10.488281 42.265625 9.921875 40.347656 9.921875 Z M 40.347656 9.921875 "/>
<path style=" stroke:none;fill-rule:nonzero;fill:rgb(93.333334%,93.333334%,93.333334%);fill-opacity:1;" d="M 17.199219 10.121094 C 16.46875 10.121094 15.875 10.710938 15.875 11.441406 L 15.875 21.363281 C 15.875 21.371094 15.875 21.378906 15.875 21.386719 L 15.875 30.625 C 15.875 30.992188 16.171875 31.285156 16.535156 31.285156 L 17.859375 31.285156 C 18.226562 31.285156 18.519531 30.992188 18.519531 30.625 L 18.519531 21.40625 C 18.523438 21.394531 18.523438 21.378906 18.523438 21.363281 L 18.523438 15.949219 L 22.039062 21.417969 C 22.28125 21.796875 22.703125 22.027344 23.152344 22.027344 C 23.601562 22.027344 24.023438 21.796875 24.265625 21.417969 L 27.78125 15.949219 L 27.78125 21.363281 C 27.78125 21.371094 27.78125 21.378906 27.78125 21.386719 L 27.78125 30.625 C 27.78125 30.992188 28.078125 31.285156 28.441406 31.285156 L 29.765625 31.285156 C 30.132812 31.285156 30.425781 30.992188 30.425781 30.625 L 30.425781 21.40625 C 30.429688 21.394531 30.429688 21.378906 30.429688 21.363281 L 30.429688 11.441406 C 30.429688 10.855469 30.042969 10.339844 29.476562 10.171875 C 28.914062 10.007812 28.308594 10.234375 27.992188 10.726562 L 23.152344 18.253906 L 18.3125 10.726562 C 18.066406 10.347656 17.648438 10.121094 17.199219 10.121094 Z M 17.199219 10.121094 "/>
</g>
</svg>
