<?xml version="1.0" encoding="UTF-8"?>
<svg xmlns="http://www.w3.org/2000/svg" xmlns:xlink="http://www.w3.org/1999/xlink" width="64px" height="64px" viewBox="0 0 64 64" version="1.1">
<g id="surface1">
<path style=" stroke:none;fill-rule:nonzero;fill:rgb(16.078432%,71.372551%,96.470588%);fill-opacity:1;" d="M 20.527344 8.453125 C 10.757812 8.453125 2.890625 16.316406 2.890625 26.085938 C 2.890625 40.515625 23.734375 50.136719 31.75 61.359375 C 39.765625 50.136719 60.609375 40.515625 60.609375 26.085938 C 60.609375 16.316406 52.742188 8.453125 42.972656 8.453125 C 38.703125 8.453125 34.796875 9.953125 31.75 12.460938 C 28.703125 9.953125 24.796875 8.453125 20.527344 8.453125 Z M 20.527344 8.453125 "/>
<path style=" stroke:none;fill-rule:nonzero;fill:rgb(30.980393%,76.47059%,96.862745%);fill-opacity:1;" d="M 22.484375 13.0625 C 22.078125 13.0625 21.679688 13.078125 21.285156 13.113281 L 10.488281 19.34375 C 10 20.054688 9.570312 20.8125 9.210938 21.609375 L 23.898438 13.128906 C 23.433594 13.085938 22.960938 13.0625 22.484375 13.0625 Z M 42.417969 13.128906 L 8.890625 32.488281 C 9.050781 32.898438 9.234375 33.300781 9.433594 33.703125 L 44.472656 13.472656 C 43.804688 13.3125 43.121094 13.195312 42.417969 13.128906 Z M 29.164062 14.671875 L 7.9375 26.925781 C 7.925781 27.15625 7.921875 27.390625 7.921875 27.625 C 7.921875 27.902344 7.929688 28.175781 7.949219 28.449219 L 30.480469 15.441406 C 30.054688 15.160156 29.617188 14.90625 29.164062 14.671875 Z M 49.007812 15.4375 L 11.546875 37.066406 C 11.8125 37.417969 12.089844 37.765625 12.378906 38.113281 L 50.175781 16.289062 C 49.800781 15.984375 49.410156 15.699219 49.007812 15.4375 Z M 52.957031 19.265625 L 15.140625 41.097656 C 15.46875 41.417969 15.796875 41.738281 16.132812 42.054688 L 53.664062 20.382812 C 53.445312 20 53.207031 19.628906 52.957031 19.265625 Z M 55.152344 24.109375 L 19.242188 44.84375 C 19.59375 45.148438 19.949219 45.453125 20.304688 45.753906 L 55.421875 25.480469 C 55.355469 25.015625 55.265625 24.558594 55.152344 24.109375 Z M 55.324219 30.121094 L 23.519531 48.480469 C 23.875 48.789062 24.230469 49.089844 24.582031 49.394531 L 54.816406 31.941406 C 55.027344 31.34375 55.199219 30.738281 55.324219 30.121094 Z M 50.179688 39.199219 L 27.675781 52.191406 C 28.011719 52.511719 28.339844 52.832031 28.65625 53.152344 L 46.515625 42.84375 C 47.816406 41.65625 49.054688 40.445312 50.179688 39.199219 Z M 32.875 55.300781 L 31.335938 56.191406 C 31.480469 56.375 31.617188 56.5625 31.75 56.75 C 32.097656 56.261719 32.472656 55.78125 32.875 55.300781 Z M 32.875 55.300781 "/>
<path style=" stroke:none;fill-rule:nonzero;fill:rgb(50.588238%,83.137256%,98.039216%);fill-opacity:1;" d="M 24.910156 11.925781 C 24.058594 11.914062 24.101562 13.269531 24.972656 13.234375 C 25.570312 13.339844 26.664062 13.804688 26.753906 12.863281 C 26.757812 12 25.582031 12.125 24.996094 11.933594 C 24.964844 11.929688 24.9375 11.925781 24.910156 11.925781 Z M 38.550781 11.925781 C 38.523438 11.925781 38.496094 11.929688 38.464844 11.933594 C 37.878906 12.125 36.699219 12 36.707031 12.863281 C 36.796875 13.804688 37.890625 13.339844 38.488281 13.234375 C 39.355469 13.269531 39.402344 11.914062 38.550781 11.925781 Z M 19.742188 11.929688 C 19.71875 11.929688 19.691406 11.929688 19.667969 11.933594 C 19.035156 12.097656 17.765625 12.066406 17.925781 12.996094 C 18.226562 13.878906 19.242188 13.230469 19.875 13.199219 C 20.652344 13.015625 20.492188 11.921875 19.742188 11.929688 Z M 43.71875 11.929688 C 42.96875 11.921875 42.808594 13.015625 43.582031 13.199219 C 44.21875 13.230469 45.234375 13.878906 45.535156 12.996094 C 45.695312 12.066406 44.421875 12.097656 43.792969 11.933594 C 43.769531 11.929688 43.742188 11.929688 43.71875 11.929688 Z M 14.898438 13.660156 C 14.289062 13.929688 13.453125 14.273438 13.261719 14.941406 C 13.207031 15.78125 14.285156 15.726562 14.6875 15.214844 C 15.257812 14.996094 15.972656 14.324219 15.316406 13.765625 C 15.175781 13.730469 15.039062 13.695312 14.898438 13.660156 Z M 48.5625 13.660156 C 48.421875 13.695312 48.285156 13.730469 48.144531 13.765625 C 47.488281 14.324219 48.203125 14.996094 48.769531 15.214844 C 49.175781 15.726562 50.253906 15.78125 50.199219 14.941406 C 50.007812 14.273438 49.171875 13.929688 48.5625 13.660156 Z M 29.609375 13.664062 C 28.785156 13.867188 29.0625 14.917969 29.761719 15.082031 C 30.234375 15.484375 31.175781 15.976562 31.425781 15.082031 C 31.355469 14.289062 30.402344 13.957031 29.769531 13.695312 L 29.640625 13.671875 Z M 33.851562 13.664062 L 33.820312 13.671875 L 33.691406 13.695312 C 33.058594 13.957031 32.101562 14.289062 32.03125 15.082031 C 32.285156 15.976562 33.226562 15.484375 33.699219 15.082031 C 34.398438 14.917969 34.675781 13.867188 33.851562 13.664062 Z M 11.171875 16.953125 C 10.40625 16.9375 10.03125 17.808594 9.671875 18.355469 C 9.308594 19.117188 10.554688 19.5625 10.863281 18.828125 C 11.210938 18.328125 12.125 17.535156 11.308594 17.042969 L 11.199219 16.96875 Z M 52.289062 16.953125 L 52.261719 16.96875 L 52.152344 17.042969 C 51.335938 17.535156 52.25 18.328125 52.597656 18.828125 C 52.90625 19.5625 54.152344 19.117188 53.785156 18.355469 C 53.429688 17.808594 53.050781 16.9375 52.289062 16.953125 Z M 8.375 21.359375 C 7.640625 21.597656 7.59375 22.550781 7.441406 23.1875 C 7.347656 24.007812 8.664062 24.046875 8.710938 23.253906 C 8.882812 22.59375 9.546875 21.460938 8.375 21.359375 Z M 55.085938 21.359375 C 53.914062 21.460938 54.578125 22.59375 54.75 23.253906 C 54.796875 24.046875 56.113281 24.007812 56.015625 23.1875 C 55.867188 22.550781 55.820312 21.597656 55.085938 21.359375 Z M 7.625 26.410156 C 6.597656 26.421875 6.921875 27.699219 6.949219 28.390625 C 7.089844 29.304688 8.472656 28.929688 8.210938 28.082031 C 8.101562 27.507812 8.394531 26.65625 7.675781 26.410156 C 7.65625 26.410156 7.640625 26.40625 7.625 26.410156 Z M 55.835938 26.410156 C 55.820312 26.40625 55.800781 26.410156 55.785156 26.410156 C 55.0625 26.65625 55.359375 27.507812 55.25 28.082031 C 54.988281 28.929688 56.367188 29.304688 56.511719 28.390625 C 56.539062 27.699219 56.863281 26.421875 55.835938 26.410156 Z M 8.453125 31.421875 C 8.429688 31.421875 8.40625 31.421875 8.382812 31.421875 C 7.382812 31.804688 8.175781 32.878906 8.445312 33.515625 C 8.894531 34.335938 10.078125 33.488281 9.515625 32.78125 C 9.226562 32.296875 9.160156 31.421875 8.453125 31.421875 Z M 55.007812 31.421875 C 54.300781 31.421875 54.234375 32.296875 53.941406 32.78125 C 53.378906 33.488281 54.566406 34.335938 55.015625 33.515625 C 55.28125 32.878906 56.074219 31.804688 55.078125 31.421875 C 55.054688 31.421875 55.03125 31.421875 55.007812 31.421875 Z M 11.0625 35.875 C 10.367188 35.871094 10.226562 36.84375 10.78125 37.230469 C 11.085938 37.804688 11.910156 38.617188 12.421875 37.785156 C 12.554688 37.039062 11.804688 36.46875 11.34375 35.984375 L 11.238281 35.910156 L 11.210938 35.890625 C 11.160156 35.882812 11.109375 35.875 11.0625 35.875 Z M 52.398438 35.875 C 52.351562 35.875 52.300781 35.882812 52.25 35.890625 L 52.222656 35.910156 L 52.113281 35.984375 C 51.65625 36.46875 50.90625 37.039062 51.039062 37.785156 C 51.550781 38.617188 52.375 37.804688 52.679688 37.230469 C 53.230469 36.84375 53.09375 35.871094 52.398438 35.875 Z M 14.484375 39.75 C 13.621094 39.734375 13.640625 40.859375 14.296875 41.179688 C 14.664062 41.703125 15.566406 42.332031 15.949219 41.480469 C 15.992188 40.710938 15.15625 40.242188 14.632812 39.820312 L 14.515625 39.761719 Z M 48.972656 39.75 L 48.945312 39.761719 L 48.828125 39.820312 C 48.300781 40.238281 47.46875 40.710938 47.511719 41.480469 C 47.894531 42.332031 48.796875 41.703125 49.160156 41.179688 C 49.820312 40.859375 49.835938 39.734375 48.972656 39.75 Z M 18.199219 43.257812 C 17.304688 43.316406 17.460938 44.460938 18.152344 44.730469 C 18.53125 45.234375 19.460938 45.738281 19.769531 44.894531 C 19.773438 44.125 18.914062 43.683594 18.351562 43.316406 L 18.230469 43.269531 Z M 45.261719 43.257812 L 45.230469 43.269531 L 45.109375 43.316406 C 44.542969 43.683594 43.683594 44.125 43.6875 44.894531 C 44 45.738281 44.929688 45.234375 45.304688 44.730469 C 46 44.460938 46.15625 43.316406 45.261719 43.257812 Z M 22.097656 46.601562 C 21.203125 46.671875 21.378906 47.816406 22.074219 48.078125 C 22.441406 48.648438 23.601562 49.046875 23.675781 48.09375 C 23.609375 47.417969 22.664062 46.863281 22.097656 46.601562 Z M 41.359375 46.601562 C 40.796875 46.863281 39.851562 47.417969 39.78125 48.09375 C 39.859375 49.046875 41.019531 48.648438 41.386719 48.078125 C 42.082031 47.816406 42.257812 46.671875 41.359375 46.601562 Z M 26.007812 49.964844 C 25.167969 50.003906 25.226562 51.054688 25.855469 51.363281 C 26.246094 51.871094 27.167969 52.527344 27.546875 51.648438 C 27.566406 50.878906 26.734375 50.390625 26.160156 50.027344 L 26.035156 49.976562 Z M 37.453125 49.964844 L 37.425781 49.976562 L 37.300781 50.027344 C 36.726562 50.390625 35.890625 50.878906 35.914062 51.648438 C 36.289062 52.527344 37.210938 51.871094 37.605469 51.363281 C 38.234375 51.054688 38.292969 50.003906 37.453125 49.964844 Z M 29.71875 53.5625 C 28.886719 53.546875 28.875 54.648438 29.511719 54.996094 C 29.84375 55.523438 30.644531 56.203125 31.101562 55.414062 C 31.234375 54.640625 30.414062 54.082031 29.902344 53.640625 L 29.785156 53.578125 L 29.757812 53.5625 C 29.742188 53.5625 29.730469 53.5625 29.71875 53.5625 Z M 33.742188 53.5625 C 33.730469 53.5625 33.714844 53.5625 33.703125 53.5625 L 33.675781 53.578125 L 33.558594 53.640625 C 33.046875 54.082031 32.226562 54.640625 32.359375 55.414062 C 32.816406 56.203125 33.617188 55.523438 33.945312 54.996094 C 34.585938 54.648438 34.574219 53.546875 33.742188 53.5625 Z M 33.742188 53.5625 "/>
<path style=" stroke:none;fill-rule:nonzero;fill:rgb(93.725491%,32.549021%,31.37255%);fill-opacity:1;" d="M 48.121094 3.972656 C 45.195312 2.285156 41.480469 3.277344 39.789062 6.203125 C 37.292969 10.527344 41.875 17.011719 42.332031 21.757812 C 46.675781 19.78125 54.578125 20.503906 57.074219 16.183594 C 58.761719 13.257812 57.765625 9.542969 54.839844 7.851562 C 53.5625 7.113281 52.132812 6.890625 50.789062 7.113281 C 50.308594 5.835938 49.398438 4.710938 48.121094 3.972656 Z M 48.121094 3.972656 "/>
<path style=" stroke:none;fill-rule:nonzero;fill:rgb(93.725491%,60.392159%,60.392159%);fill-opacity:1;" d="M 48.71875 5.859375 C 48.46875 5.710938 48.25 6.121094 48.515625 6.257812 C 48.675781 6.390625 48.917969 6.71875 49.105469 6.453125 C 49.253906 6.199219 48.886719 6.035156 48.746094 5.878906 C 48.734375 5.871094 48.726562 5.867188 48.71875 5.859375 Z M 52.757812 8.195312 C 52.75 8.1875 52.742188 8.183594 52.734375 8.179688 C 52.527344 8.136719 52.199219 7.898438 52.054688 8.15625 C 51.917969 8.449219 52.324219 8.5 52.519531 8.570312 C 52.769531 8.730469 53.015625 8.335938 52.757812 8.195312 Z M 47.1875 4.976562 C 47.183594 4.972656 47.175781 4.96875 47.167969 4.964844 C 46.953125 4.90625 46.582031 4.679688 46.46875 4.984375 C 46.40625 5.296875 46.820312 5.277344 47.011719 5.378906 C 47.273438 5.457031 47.414062 5.105469 47.1875 4.976562 Z M 54.289062 9.078125 C 54.070312 8.949219 53.835938 9.242188 54.03125 9.429688 C 54.214844 9.546875 54.40625 9.914062 54.644531 9.703125 C 54.851562 9.457031 54.46875 9.25 54.3125 9.089844 C 54.304688 9.085938 54.296875 9.082031 54.289062 9.078125 Z M 45.460938 4.664062 C 45.230469 4.636719 44.925781 4.597656 44.753906 4.761719 C 44.59375 5 44.925781 5.171875 45.132812 5.085938 C 45.335938 5.121094 45.664062 5.042969 45.5625 4.765625 C 45.527344 4.730469 45.496094 4.699219 45.460938 4.664062 Z M 55.425781 10.417969 C 55.378906 10.40625 55.332031 10.390625 55.285156 10.378906 C 54.996094 10.433594 55.09375 10.753906 55.222656 10.914062 C 55.257812 11.136719 55.566406 11.335938 55.695312 11.078125 C 55.75 10.847656 55.5625 10.601562 55.425781 10.417969 Z M 49.816406 7.179688 C 49.535156 7.097656 49.4375 7.457031 49.617188 7.625 C 49.6875 7.824219 49.882812 8.132812 50.109375 7.910156 C 50.226562 7.664062 50 7.402344 49.855469 7.214844 L 49.824219 7.1875 Z M 51.070312 7.90625 L 51.0625 7.902344 L 51.019531 7.886719 C 50.785156 7.855469 50.445312 7.789062 50.289062 8.011719 C 50.210938 8.320312 50.574219 8.335938 50.785156 8.296875 C 51.019531 8.371094 51.28125 8.105469 51.070312 7.90625 Z M 43.792969 5 C 43.570312 4.867188 43.308594 5.058594 43.109375 5.160156 C 42.871094 5.324219 43.164062 5.667969 43.378906 5.503906 C 43.570312 5.414062 43.972656 5.335938 43.816406 5.050781 L 43.796875 5.011719 Z M 55.96875 12.03125 L 55.957031 12.03125 L 55.914062 12.035156 C 55.585938 12.042969 55.722656 12.429688 55.738281 12.640625 C 55.707031 12.910156 56.148438 12.992188 56.171875 12.703125 C 56.160156 12.480469 56.199219 12.15625 55.96875 12.03125 Z M 42.210938 5.828125 C 41.953125 5.773438 41.777344 6.046875 41.621094 6.210938 C 41.453125 6.4375 41.835938 6.671875 41.988281 6.445312 C 42.148438 6.28125 42.539062 6.058594 42.210938 5.828125 Z M 56.042969 13.8125 C 55.679688 13.644531 55.683594 14.09375 55.621094 14.316406 C 55.496094 14.558594 55.894531 14.773438 56.007812 14.515625 C 56.070312 14.300781 56.21875 14.011719 56.042969 13.8125 Z M 41.125 7.195312 C 40.820312 7.023438 40.695312 7.457031 40.585938 7.667969 C 40.472656 7.960938 40.945312 8.085938 41.011719 7.789062 C 41.078125 7.601562 41.3125 7.398438 41.140625 7.203125 C 41.136719 7.199219 41.128906 7.195312 41.125 7.195312 Z M 55.402344 15.4375 C 55.398438 15.433594 55.394531 15.433594 55.386719 15.429688 C 55.132812 15.378906 55.074219 15.679688 54.941406 15.832031 C 54.71875 16.039062 55.066406 16.386719 55.261719 16.140625 C 55.390625 15.941406 55.703125 15.617188 55.402344 15.4375 Z M 40.515625 8.820312 C 40.507812 8.816406 40.5 8.8125 40.492188 8.808594 C 40.132812 8.75 40.183594 9.203125 40.152344 9.441406 C 40.148438 9.757812 40.640625 9.710938 40.597656 9.40625 C 40.59375 9.210938 40.722656 8.941406 40.515625 8.820312 Z M 54.300781 16.78125 C 54.089844 16.660156 53.921875 16.90625 53.753906 17 C 53.464844 17.113281 53.671875 17.566406 53.945312 17.402344 C 54.132812 17.257812 54.550781 17.078125 54.320312 16.792969 C 54.3125 16.789062 54.308594 16.785156 54.300781 16.78125 Z M 40.523438 10.585938 C 40.320312 10.464844 40.113281 10.730469 40.210938 10.9375 C 40.203125 11.160156 40.304688 11.542969 40.601562 11.382812 C 40.765625 11.183594 40.644531 10.886719 40.589844 10.667969 L 40.570312 10.625 L 40.566406 10.617188 C 40.550781 10.605469 40.539062 10.59375 40.523438 10.585938 Z M 52.765625 17.652344 C 52.75 17.644531 52.734375 17.636719 52.71875 17.632812 L 52.707031 17.632812 L 52.664062 17.636719 C 52.445312 17.703125 52.125 17.742188 52.039062 17.984375 C 52.046875 18.320312 52.429688 18.222656 52.617188 18.101562 C 52.847656 18.082031 52.972656 17.769531 52.765625 17.652344 Z M 40.875 12.320312 C 40.625 12.167969 40.433594 12.503906 40.574219 12.710938 C 40.59375 12.925781 40.753906 13.269531 41.011719 13.082031 C 41.15625 12.859375 40.992188 12.578125 40.90625 12.363281 L 40.882812 12.328125 Z M 51.089844 18.214844 L 51.078125 18.214844 L 51.035156 18.210938 C 50.808594 18.246094 50.480469 18.242188 50.359375 18.476562 C 50.328125 18.796875 50.703125 18.761719 50.898438 18.671875 C 51.152344 18.6875 51.347656 18.359375 51.089844 18.214844 Z M 41.375 13.992188 C 41.101562 13.855469 40.953125 14.222656 41.109375 14.421875 C 41.136719 14.632812 41.324219 14.941406 41.5625 14.746094 C 41.695312 14.519531 41.515625 14.242188 41.410156 14.035156 L 41.382812 14 Z M 49.390625 18.617188 L 49.378906 18.617188 L 49.335938 18.609375 C 49.105469 18.625 48.773438 18.605469 48.644531 18.835938 C 48.59375 19.136719 48.953125 19.148438 49.152344 19.0625 C 49.402344 19.101562 49.644531 18.789062 49.390625 18.617188 Z M 41.960938 15.648438 C 41.679688 15.515625 41.539062 15.886719 41.699219 16.082031 C 41.710938 16.3125 41.984375 16.628906 42.171875 16.359375 C 42.265625 16.148438 42.082031 15.824219 41.960938 15.648438 Z M 47.664062 18.941406 C 47.453125 18.925781 47.078125 18.925781 46.941406 19.113281 C 46.800781 19.410156 47.210938 19.492188 47.417969 19.382812 C 47.667969 19.425781 47.917969 19.117188 47.664062 18.941406 Z M 42.542969 17.3125 C 42.285156 17.179688 42.125 17.503906 42.257812 17.703125 C 42.285156 17.917969 42.449219 18.269531 42.710938 18.074219 C 42.847656 17.851562 42.683594 17.5625 42.574219 17.359375 L 42.546875 17.320312 Z M 45.929688 19.269531 L 45.921875 19.269531 L 45.875 19.261719 C 45.644531 19.273438 45.3125 19.273438 45.1875 19.503906 C 45.148438 19.832031 45.535156 19.792969 45.738281 19.710938 C 45.976562 19.726562 46.171875 19.425781 45.929688 19.269531 Z M 43.023438 19.011719 C 42.78125 18.867188 42.589844 19.191406 42.71875 19.402344 C 42.726562 19.617188 42.847656 19.953125 43.117188 19.796875 C 43.289062 19.589844 43.144531 19.285156 43.066406 19.066406 L 43.042969 19.027344 L 43.035156 19.019531 C 43.03125 19.015625 43.027344 19.015625 43.023438 19.011719 Z M 44.21875 19.699219 C 44.214844 19.699219 44.210938 19.695312 44.207031 19.695312 L 44.195312 19.695312 L 44.148438 19.691406 C 43.921875 19.734375 43.582031 19.761719 43.492188 20.011719 C 43.492188 20.324219 43.84375 20.261719 44.03125 20.160156 C 44.28125 20.167969 44.464844 19.839844 44.21875 19.699219 Z M 44.21875 19.699219 "/>
<path style=" stroke:none;fill-rule:nonzero;fill:rgb(89.803922%,45.09804%,45.09804%);fill-opacity:1;" d="M 47.976562 5.992188 C 47.863281 5.925781 47.746094 5.863281 47.628906 5.808594 L 43.578125 5.808594 C 43.324219 5.929688 43.078125 6.074219 42.847656 6.238281 L 48.363281 6.238281 C 48.238281 6.152344 48.109375 6.070312 47.976562 5.992188 Z M 53.578125 9.25 L 40.988281 9.25 C 40.96875 9.394531 40.953125 9.535156 40.945312 9.679688 L 54.101562 9.679688 C 53.9375 9.527344 53.765625 9.382812 53.578125 9.25 Z M 49.59375 7.53125 L 41.625 7.53125 C 41.585938 7.59375 41.546875 7.660156 41.507812 7.722656 C 41.460938 7.800781 41.421875 7.882812 41.382812 7.960938 L 49.839844 7.960938 C 49.765625 7.8125 49.683594 7.667969 49.59375 7.53125 Z M 55.058594 10.972656 L 40.992188 10.972656 C 41.011719 11.113281 41.03125 11.257812 41.058594 11.402344 L 55.25 11.402344 C 55.191406 11.253906 55.128906 11.113281 55.058594 10.972656 Z M 55.546875 12.691406 L 41.351562 12.691406 C 41.390625 12.835938 41.429688 12.980469 41.472656 13.121094 L 55.566406 13.121094 C 55.566406 12.976562 55.558594 12.835938 55.546875 12.691406 Z M 55.378906 14.414062 L 41.894531 14.414062 C 41.945312 14.554688 41.996094 14.699219 42.046875 14.84375 L 55.230469 14.84375 C 55.289062 14.699219 55.335938 14.558594 55.378906 14.414062 Z M 54.449219 16.132812 L 42.507812 16.132812 C 42.558594 16.277344 42.609375 16.421875 42.660156 16.5625 L 54.011719 16.5625 C 54.167969 16.429688 54.3125 16.285156 54.449219 16.132812 Z M 51.523438 17.855469 L 43.078125 17.855469 C 43.117188 18 43.160156 18.140625 43.195312 18.285156 L 49.902344 18.285156 C 50.460938 18.160156 51.007812 18.023438 51.523438 17.855469 Z M 44.035156 19.574219 L 43.457031 19.574219 C 43.464844 19.648438 43.476562 19.726562 43.484375 19.800781 C 43.660156 19.71875 43.84375 19.644531 44.035156 19.574219 Z M 44.035156 19.574219 "/>
<path style=" stroke:none;fill-rule:nonzero;fill:rgb(61.176473%,80.000001%,39.607844%);fill-opacity:1;" d="M 60.773438 41.238281 C 59.1875 39.652344 53.996094 39.269531 47.644531 39.738281 C 47.226562 40.40625 46.84375 41.09375 46.511719 41.796875 C 46.417969 41.902344 46.628906 41.0625 47.050781 39.785156 C 45.113281 39.941406 43.082031 40.175781 41.019531 40.476562 C 40.804688 41.140625 40.621094 41.8125 40.480469 42.484375 C 40.417969 42.609375 40.421875 41.8125 40.519531 40.550781 C 34.335938 41.480469 27.929688 43.003906 23.101562 44.859375 C 21.402344 46.511719 20.058594 48.121094 19.453125 49.9375 C 19.453125 49.9375 19.445312 48.398438 19.453125 46.675781 C 16.734375 49.394531 15.101562 52.109375 16.191406 53.199219 C 18.535156 55.933594 23.527344 58.628906 26.519531 59.179688 C 24.507812 56.929688 20.632812 53.484375 21.082031 53.742188 C 24.222656 55.679688 27.289062 57.074219 29.882812 58.042969 C 36.410156 57.179688 43.398438 53.355469 49.160156 49.53125 C 46.464844 47.714844 44.277344 45.707031 44.53125 45.773438 C 46.449219 46.957031 48.71875 47.769531 50.9375 48.324219 C 52.230469 47.4375 53.441406 46.5625 54.558594 45.746094 C 52.992188 44.527344 51.960938 43.546875 52.140625 43.597656 C 53.136719 44.210938 54.226562 44.726562 55.355469 45.15625 C 57.800781 43.351562 59.695312 41.886719 60.773438 41.238281 Z M 60.773438 41.238281 "/>
<path style=" stroke:none;fill-rule:nonzero;fill:rgb(90.196079%,93.333334%,61.176473%);fill-opacity:1;" d="M 2.597656 61.355469 C 14.015625 53.199219 33.042969 41.78125 52.617188 41.78125 C 32.496094 45.585938 15.644531 54.832031 6.945312 61.355469 Z M 2.597656 61.355469 "/>
</g>
</svg>
