
<svg xmlns="http://www.w3.org/2000/svg" xmlns:xlink="http://www.w3.org/1999/xlink" width="64px" height="64px" viewBox="0 0 64 64" version="1.1">
<g id="surface1">
<path style=" stroke:none;fill-rule:nonzero;fill:rgb(87.843138%,87.843138%,87.843138%);fill-opacity:1;" d="M 10.582031 2.644531 L 52.917969 2.644531 C 54.378906 2.644531 55.5625 3.832031 55.5625 5.292969 L 55.5625 58.207031 C 55.5625 59.667969 54.378906 60.855469 52.917969 60.855469 L 10.582031 60.855469 C 9.121094 60.855469 7.9375 59.667969 7.9375 58.207031 L 7.9375 5.292969 C 7.9375 3.832031 9.121094 2.644531 10.582031 2.644531 Z M 10.582031 2.644531 "/>
<path style=" stroke:none;fill-rule:nonzero;fill:rgb(25.882354%,25.882354%,25.882354%);fill-opacity:1;" d="M 11.90625 5.292969 L 51.59375 5.292969 C 52.324219 5.292969 52.917969 5.882812 52.917969 6.613281 L 52.917969 56.886719 C 52.917969 57.617188 52.324219 58.207031 51.59375 58.207031 L 11.90625 58.207031 C 11.175781 58.207031 10.582031 57.617188 10.582031 56.886719 L 10.582031 6.613281 C 10.582031 5.882812 11.175781 5.292969 11.90625 5.292969 Z M 11.90625 5.292969 "/>
<path style=" stroke:none;fill-rule:nonzero;fill:rgb(36.078432%,41.960785%,75.294119%);fill-opacity:1;" d="M 45.632812 27.535156 C 45.316406 26.496094 44.875 25.480469 44.308594 24.5 C 43.574219 23.222656 42.671875 22.097656 41.652344 21.140625 L 36.257812 26.910156 C 36.726562 27.347656 37.136719 27.859375 37.472656 28.445312 C 37.734375 28.894531 37.933594 29.359375 38.078125 29.832031 Z M 45.632812 27.535156 "/>
<path style=" stroke:none;fill-rule:nonzero;fill:rgb(25.882354%,64.705884%,96.078432%);fill-opacity:1;" d="M 36.265625 26.917969 L 41.6875 21.121094 C 39.796875 19.347656 37.496094 18.140625 35.042969 17.574219 L 33.246094 25.304688 C 34.363281 25.566406 35.410156 26.113281 36.265625 26.917969 Z M 36.265625 26.917969 "/>
<path style=" stroke:none;fill-rule:nonzero;fill:rgb(93.725491%,32.549021%,31.37255%);fill-opacity:1;" d="M 39.019531 44.34375 C 40.296875 43.605469 41.421875 42.707031 42.378906 41.6875 L 36.582031 36.265625 C 36.144531 36.730469 35.636719 37.140625 35.054688 37.472656 C 34.472656 37.808594 33.863281 38.046875 33.246094 38.191406 L 35.039062 45.921875 C 36.402344 45.605469 37.742188 45.082031 39.019531 44.34375 Z M 39.019531 44.34375 "/>
<path style=" stroke:none;fill-rule:nonzero;fill:rgb(40.000001%,73.333335%,41.568628%);fill-opacity:1;" d="M 26.917969 27.234375 C 27.355469 26.769531 27.863281 26.359375 28.445312 26.027344 C 28.890625 25.769531 29.351562 25.570312 29.824219 25.421875 L 27.515625 17.832031 C 26.476562 18.152344 25.460938 18.589844 24.480469 19.15625 C 23.203125 19.894531 22.078125 20.792969 21.121094 21.8125 Z M 26.917969 27.234375 "/>
<path style=" stroke:none;fill-rule:nonzero;fill:rgb(100%,79.215688%,15.686275%);fill-opacity:1;" d="M 21.8125 42.378906 L 27.234375 36.582031 C 26.769531 36.144531 26.359375 35.636719 26.027344 35.054688 C 25.769531 34.609375 25.570312 34.148438 25.421875 33.675781 L 17.832031 35.984375 C 18.152344 37.023438 18.589844 38.039062 19.15625 39.019531 C 19.894531 40.296875 20.792969 41.421875 21.8125 42.378906 Z M 21.8125 42.378906 "/>
<path style=" stroke:none;fill-rule:nonzero;fill:rgb(100%,65.490198%,14.901961%);fill-opacity:1;" d="M 28.457031 45.929688 L 30.253906 38.195312 C 29.136719 37.933594 28.089844 37.386719 27.234375 36.582031 L 21.8125 42.378906 C 23.703125 44.152344 26.003906 45.359375 28.457031 45.929688 Z M 28.457031 45.929688 "/>
<path style=" stroke:none;fill-rule:nonzero;fill:rgb(100%,43.921569%,26.274511%);fill-opacity:1;" d="M 35.039062 45.921875 L 33.246094 38.191406 C 32.25 38.425781 31.226562 38.417969 30.253906 38.195312 L 28.457031 45.929688 C 30.59375 46.421875 32.847656 46.4375 35.039062 45.921875 Z M 35.039062 45.921875 "/>
<path style=" stroke:none;fill-rule:nonzero;fill:rgb(14.901961%,77.64706%,85.490197%);fill-opacity:1;" d="M 33.246094 25.304688 L 35.042969 17.574219 C 32.597656 17.003906 30.003906 17.066406 27.515625 17.832031 L 29.824219 25.421875 C 30.957031 25.078125 32.136719 25.046875 33.246094 25.304688 Z M 33.246094 25.304688 "/>
<path style=" stroke:none;fill-rule:nonzero;fill:rgb(92.54902%,25.098041%,47.843137%);fill-opacity:1;" d="M 42.378906 41.6875 C 44.152344 39.796875 45.359375 37.496094 45.925781 35.042969 L 38.195312 33.246094 C 37.933594 34.363281 37.386719 35.410156 36.582031 36.265625 Z M 42.378906 41.6875 "/>
<path style=" stroke:none;fill-rule:nonzero;fill:rgb(61.176473%,80.000001%,39.607844%);fill-opacity:1;" d="M 25.304688 30.253906 C 25.566406 29.136719 26.113281 28.089844 26.917969 27.234375 L 21.121094 21.8125 C 19.347656 23.703125 18.140625 26.003906 17.574219 28.457031 Z M 25.304688 30.253906 "/>
<path style=" stroke:none;fill-rule:nonzero;fill:rgb(67.058825%,27.843139%,73.725492%);fill-opacity:1;" d="M 45.925781 35.042969 C 46.496094 32.597656 46.433594 30.003906 45.667969 27.515625 L 38.078125 29.824219 C 38.421875 30.957031 38.453125 32.136719 38.195312 33.246094 Z M 45.925781 35.042969 "/>
<path style=" stroke:none;fill-rule:nonzero;fill:rgb(100%,93.333334%,34.509805%);fill-opacity:1;" d="M 25.421875 33.675781 C 25.078125 32.542969 25.046875 31.363281 25.304688 30.253906 L 17.574219 28.457031 C 17.003906 30.902344 17.066406 33.496094 17.832031 35.984375 Z M 25.421875 33.675781 "/>
<path style=" stroke:none;fill-rule:nonzero;fill:rgb(25.882354%,25.882354%,25.882354%);fill-opacity:1;" d="M 31.75 18.519531 C 39.054688 18.519531 44.980469 24.445312 44.980469 31.75 C 44.980469 39.054688 39.054688 44.980469 31.75 44.980469 C 24.445312 44.980469 18.519531 39.054688 18.519531 31.75 C 18.519531 24.445312 24.445312 18.519531 31.75 18.519531 Z M 31.75 18.519531 "/>
<path style=" stroke:none;fill-rule:nonzero;fill:rgb(38.039216%,38.039216%,38.039216%);fill-opacity:1;" d="M 31.75 19.84375 C 38.324219 19.84375 43.65625 25.175781 43.65625 31.75 C 43.65625 38.324219 38.324219 43.65625 31.75 43.65625 C 25.175781 43.65625 19.84375 38.324219 19.84375 31.75 C 19.84375 25.175781 25.175781 19.84375 31.75 19.84375 Z M 31.75 19.84375 "/>
<path style=" stroke:none;fill-rule:nonzero;fill:rgb(45.882353%,45.882353%,45.882353%);fill-opacity:1;" d="M 31.75 26.457031 C 34.671875 26.457031 37.042969 28.828125 37.042969 31.75 C 37.042969 34.671875 34.671875 37.042969 31.75 37.042969 C 28.828125 37.042969 26.457031 34.671875 26.457031 31.75 C 26.457031 28.828125 28.828125 26.457031 31.75 26.457031 Z M 31.75 26.457031 "/>
<path style=" stroke:none;fill-rule:nonzero;fill:rgb(74.117649%,74.117649%,74.117649%);fill-opacity:1;" d="M 30.160156 28.128906 C 30.546875 28.515625 30.339844 29.355469 29.691406 30 C 29.046875 30.644531 28.207031 30.855469 27.820312 30.46875 C 27.433594 30.078125 27.644531 29.242188 28.289062 28.597656 C 28.933594 27.949219 29.773438 27.742188 30.160156 28.128906 Z M 30.160156 28.128906 "/>
</g>
</svg>
