
<svg xmlns="http://www.w3.org/2000/svg" xmlns:xlink="http://www.w3.org/1999/xlink" width="64px" height="64px" viewBox="0 0 64 64" version="1.1">
<g id="surface1">
<path style=" stroke:none;fill-rule:nonzero;fill:rgb(61.960787%,61.960787%,61.960787%);fill-opacity:1;" d="M 31.75 2.644531 C 47.824219 2.644531 60.855469 15.675781 60.855469 31.75 C 60.855469 47.824219 47.824219 60.855469 31.75 60.855469 C 15.675781 60.855469 2.644531 47.824219 2.644531 31.75 C 2.644531 15.675781 15.675781 2.644531 31.75 2.644531 Z M 31.75 2.644531 "/>
<path style=" stroke:none;fill-rule:nonzero;fill:rgb(87.843138%,87.843138%,87.843138%);fill-opacity:1;" d="M 31.75 10.582031 C 27.351562 10.582031 23.8125 14.125 23.8125 18.519531 C 23.8125 23.8125 29.105469 27.78125 31.75 30.425781 C 34.394531 27.78125 39.6875 23.8125 39.6875 18.519531 C 39.6875 14.125 36.148438 10.582031 31.75 10.582031 Z M 31.75 10.582031 "/>
<path style=" stroke:none;fill-rule:nonzero;fill:rgb(87.843138%,87.843138%,87.843138%);fill-opacity:1;" d="M 13.417969 42.332031 C 11.21875 38.523438 12.515625 33.6875 16.324219 31.492188 C 20.90625 28.84375 26.988281 31.441406 30.605469 32.410156 C 29.636719 36.027344 28.84375 42.59375 24.261719 45.238281 C 20.453125 47.4375 15.617188 46.140625 13.417969 42.332031 Z M 13.417969 42.332031 "/>
<path style=" stroke:none;fill-rule:nonzero;fill:rgb(87.843138%,87.843138%,87.843138%);fill-opacity:1;" d="M 50.082031 42.332031 C 52.28125 38.523438 50.984375 33.6875 47.175781 31.492188 C 42.59375 28.84375 36.511719 31.441406 32.894531 32.410156 C 33.863281 36.027344 34.65625 42.59375 39.238281 45.238281 C 43.046875 47.4375 47.882812 46.140625 50.082031 42.332031 Z M 50.082031 42.332031 "/>
<path style=" stroke:none;fill-rule:nonzero;fill:rgb(93.725491%,32.549021%,31.37255%);fill-opacity:1;" d="M 50.601562 40.480469 C 50.089844 40.480469 49.675781 40.894531 49.675781 41.40625 L 49.675781 42.796875 C 49.675781 43.308594 50.089844 43.722656 50.601562 43.722656 L 50.601562 41.871094 C 50.601562 41.613281 50.808594 41.40625 51.066406 41.40625 L 52.917969 41.40625 C 53.171875 41.40625 53.378906 41.613281 53.378906 41.871094 L 53.378906 43.722656 C 53.894531 43.722656 54.304688 43.308594 54.304688 42.796875 L 54.304688 41.40625 C 54.304688 40.894531 53.894531 40.480469 53.378906 40.480469 Z M 50.601562 40.480469 "/>
<path style=" stroke:none;fill-rule:nonzero;fill:rgb(93.725491%,32.549021%,31.37255%);fill-opacity:1;" d="M 45.046875 42.332031 L 58.9375 42.332031 C 59.449219 42.332031 59.863281 42.746094 59.863281 43.257812 L 59.863281 59.929688 C 59.863281 60.441406 59.449219 60.855469 58.9375 60.855469 L 45.046875 60.855469 C 44.535156 60.855469 44.121094 60.441406 44.121094 59.929688 L 44.121094 43.257812 C 44.121094 42.746094 44.535156 42.332031 45.046875 42.332031 Z M 45.046875 42.332031 "/>
<path style=" stroke:none;fill-rule:nonzero;fill:rgb(89.803922%,45.09804%,45.09804%);fill-opacity:1;" d="M 44.121094 42.332031 C 43.605469 42.332031 43.191406 42.746094 43.191406 43.257812 L 43.191406 45.574219 L 60.789062 45.574219 L 60.789062 43.257812 C 60.789062 42.746094 60.375 42.332031 59.863281 42.332031 Z M 44.121094 42.332031 "/>
<path style=" stroke:none;fill-rule:nonzero;fill:rgb(0%,0%,0%);fill-opacity:0.196078;" d="M 48.285156 46.5 C 48.796875 46.5 49.210938 46.914062 49.210938 47.425781 L 49.210938 57.613281 C 49.210938 58.125 48.796875 58.539062 48.285156 58.539062 C 47.773438 58.539062 47.359375 58.125 47.359375 57.613281 L 47.359375 47.425781 C 47.359375 46.914062 47.773438 46.5 48.285156 46.5 Z M 48.285156 46.5 "/>
<path style=" stroke:none;fill-rule:nonzero;fill:rgb(0%,0%,0%);fill-opacity:0.196078;" d="M 51.976562 46.5 L 52.003906 46.5 C 52.507812 46.5 52.917969 46.914062 52.917969 47.425781 L 52.917969 57.613281 C 52.917969 58.125 52.507812 58.539062 52.003906 58.539062 L 51.976562 58.539062 C 51.472656 58.539062 51.066406 58.125 51.066406 57.613281 L 51.066406 47.425781 C 51.066406 46.914062 51.472656 46.5 51.976562 46.5 Z M 51.976562 46.5 "/>
<path style=" stroke:none;fill-rule:nonzero;fill:rgb(0%,0%,0%);fill-opacity:0.196078;" d="M 55.695312 46.5 C 56.207031 46.5 56.621094 46.914062 56.621094 47.425781 L 56.621094 57.613281 C 56.621094 58.125 56.207031 58.539062 55.695312 58.539062 C 55.183594 58.539062 54.769531 58.125 54.769531 57.613281 L 54.769531 47.425781 C 54.769531 46.914062 55.183594 46.5 55.695312 46.5 Z M 55.695312 46.5 "/>
</g>
</svg>
