<?xml version="1.0" encoding="UTF-8"?>
<svg xmlns="http://www.w3.org/2000/svg" xmlns:xlink="http://www.w3.org/1999/xlink" width="64px" height="64px" viewBox="0 0 64 64" version="1.1">
<g id="surface1">
<path style=" stroke:none;fill-rule:nonzero;fill:rgb(25.882354%,25.882354%,25.882354%);fill-opacity:1;" d="M 5.292969 3.144531 L 58.207031 3.144531 C 59.667969 3.144531 60.855469 4.332031 60.855469 5.792969 L 60.855469 58.707031 C 60.855469 60.167969 59.667969 61.355469 58.207031 61.355469 L 5.292969 61.355469 C 3.832031 61.355469 2.644531 60.167969 2.644531 58.707031 L 2.644531 5.792969 C 2.644531 4.332031 3.832031 3.144531 5.292969 3.144531 Z M 5.292969 3.144531 "/>
<path style=" stroke:none;fill-rule:nonzero;fill:rgb(100%,43.921569%,26.274511%);fill-opacity:1;" d="M 25.136719 12.40625 C 21.472656 12.40625 18.519531 15.355469 18.519531 19.019531 C 18.519531 22.683594 21.472656 25.636719 25.136719 25.636719 L 31.75 25.636719 L 31.75 12.40625 Z M 25.136719 12.40625 "/>
<path style=" stroke:none;fill-rule:nonzero;fill:rgb(49.411765%,34.117648%,76.078433%);fill-opacity:1;" d="M 25.136719 25.636719 C 21.472656 25.636719 18.519531 28.585938 18.519531 32.25 C 18.519531 35.914062 21.472656 38.863281 25.136719 38.863281 L 31.75 38.863281 L 31.75 25.636719 Z M 25.136719 25.636719 "/>
<path style=" stroke:none;fill-rule:nonzero;fill:rgb(93.725491%,32.549021%,31.37255%);fill-opacity:1;" d="M 38.363281 12.40625 C 42.027344 12.40625 44.980469 15.355469 44.980469 19.019531 C 44.980469 22.683594 42.027344 25.636719 38.363281 25.636719 L 31.75 25.636719 L 31.75 12.40625 Z M 38.363281 12.40625 "/>
<path style=" stroke:none;fill-rule:nonzero;fill:rgb(16.078432%,71.372551%,96.470588%);fill-opacity:1;" d="M 38.363281 25.636719 C 42.019531 25.636719 44.980469 28.597656 44.980469 32.25 C 44.980469 35.902344 42.019531 38.863281 38.363281 38.863281 C 34.710938 38.863281 31.75 35.902344 31.75 32.25 C 31.75 28.597656 34.710938 25.636719 38.363281 25.636719 Z M 38.363281 25.636719 "/>
<path style=" stroke:none;fill-rule:nonzero;fill:rgb(14.901961%,65.098041%,60.392159%);fill-opacity:1;" d="M 25.136719 38.863281 C 21.472656 38.863281 18.519531 41.816406 18.519531 45.480469 C 18.519531 49.144531 21.472656 52.09375 25.136719 52.09375 C 28.800781 52.09375 31.75 49.144531 31.75 45.480469 L 31.75 38.863281 Z M 25.136719 38.863281 "/>
</g>
</svg>
