<?xml version="1.0" encoding="UTF-8"?>
<svg xmlns="http://www.w3.org/2000/svg" xmlns:xlink="http://www.w3.org/1999/xlink" width="64px" height="64px" viewBox="0 0 64 64" version="1.1">
<g id="surface1">
<path style=" stroke:none;fill-rule:nonzero;fill:rgb(25.882354%,25.882354%,25.882354%);fill-opacity:1;" d="M 31.75 4.46875 C 47.09375 4.46875 59.53125 16.90625 59.53125 32.25 C 59.53125 47.59375 47.09375 60.03125 31.75 60.03125 C 16.40625 60.03125 3.96875 47.59375 3.96875 32.25 C 3.96875 16.90625 16.40625 4.46875 31.75 4.46875 Z M 31.75 4.46875 "/>
<path style=" stroke:none;fill-rule:nonzero;fill:rgb(38.039216%,38.039216%,38.039216%);fill-opacity:1;" d="M 31.75 3.144531 L 31.75 8.4375 C 44.941406 8.4375 55.5625 19.058594 55.5625 32.25 C 55.5625 45.441406 44.941406 56.0625 31.75 56.0625 C 18.558594 56.0625 7.9375 45.441406 7.9375 32.25 L 2.644531 32.25 C 2.644531 48.375 15.625 61.355469 31.75 61.355469 C 47.875 61.355469 60.855469 48.375 60.855469 32.25 C 60.855469 16.125 47.875 3.144531 31.75 3.144531 Z M 31.75 3.144531 "/>
<path style=" stroke:none;fill-rule:nonzero;fill:rgb(47.058824%,56.470591%,61.176473%);fill-opacity:1;" d="M 48.589844 15.410156 C 39.257812 6.082031 24.242188 6.082031 14.910156 15.410156 C 5.582031 24.742188 5.582031 39.757812 14.910156 49.089844 C 24.242188 58.417969 39.257812 58.417969 48.589844 49.089844 L 44.847656 45.347656 C 37.589844 52.601562 25.910156 52.601562 18.652344 45.347656 C 11.398438 38.089844 11.398438 26.410156 18.652344 19.152344 C 25.910156 11.898438 37.589844 11.898438 44.847656 19.152344 Z M 48.589844 15.410156 "/>
<path style=" stroke:none;fill-rule:nonzero;fill:rgb(40.000001%,73.333335%,41.568628%);fill-opacity:1;" d="M 31.75 13.730469 C 21.488281 13.730469 13.230469 21.988281 13.230469 32.25 C 13.230469 42.511719 21.488281 50.769531 31.75 50.769531 C 42.011719 50.769531 50.269531 42.511719 50.269531 32.25 C 50.269531 21.988281 42.011719 13.730469 31.75 13.730469 Z M 31.75 19.019531 C 39.078125 19.019531 44.980469 24.921875 44.980469 32.25 C 44.980469 39.578125 39.078125 45.480469 31.75 45.480469 C 24.421875 45.480469 18.519531 39.578125 18.519531 32.25 C 18.519531 24.921875 24.421875 19.019531 31.75 19.019531 Z M 31.75 19.019531 "/>
</g>
</svg>
