<?xml version="1.0" encoding="UTF-8"?>
<svg xmlns="http://www.w3.org/2000/svg" xmlns:xlink="http://www.w3.org/1999/xlink" width="64px" height="64px" viewBox="0 0 64 64" version="1.1">
<g id="surface1">
<path style=" stroke:none;fill-rule:nonzero;fill:rgb(93.725491%,32.549021%,31.37255%);fill-opacity:1;" d="M 33.90625 3.976562 L 60.023438 30.09375 C 61.210938 31.285156 61.210938 33.214844 60.023438 34.40625 L 33.90625 60.523438 C 32.714844 61.710938 30.785156 61.710938 29.59375 60.523438 L 3.476562 34.40625 C 2.289062 33.214844 2.289062 31.285156 3.476562 30.09375 L 29.59375 3.976562 C 30.785156 2.789062 32.714844 2.789062 33.90625 3.976562 Z M 33.90625 3.976562 "/>
<path style=" stroke:none;fill-rule:nonzero;fill:rgb(93.333334%,93.333334%,93.333334%);fill-opacity:1;" d="M 34.5 20.089844 C 32.945312 18.535156 30.445312 18.535156 28.890625 20.089844 C 27.335938 21.644531 27.335938 24.148438 28.890625 25.703125 C 29.496094 26.308594 30.25 26.679688 31.035156 26.8125 L 31.035156 37.6875 C 30.25 37.820312 29.496094 38.191406 28.890625 38.796875 C 27.335938 40.351562 27.335938 42.855469 28.890625 44.410156 C 30.445312 45.964844 32.945312 45.964844 34.5 44.410156 C 36.054688 42.855469 36.054688 40.351562 34.5 38.796875 C 33.894531 38.191406 33.140625 37.820312 32.355469 37.6875 L 32.355469 26.8125 C 32.933594 26.714844 33.496094 26.488281 33.996094 26.132812 L 37.8125 29.949219 C 36.707031 31.503906 36.847656 33.660156 38.242188 35.054688 C 39.796875 36.609375 42.300781 36.609375 43.855469 35.054688 C 45.410156 33.5 45.410156 31 43.855469 29.445312 C 42.460938 28.046875 40.300781 27.90625 38.75 29.015625 L 34.929688 25.195312 C 36.039062 23.644531 35.898438 21.484375 34.5 20.089844 Z M 34.5 20.089844 "/>
</g>
</svg>
