<?xml version="1.0" encoding="UTF-8"?>
<svg xmlns="http://www.w3.org/2000/svg" xmlns:xlink="http://www.w3.org/1999/xlink" width="64px" height="64px" viewBox="0 0 64 64" version="1.1">
<defs>
<linearGradient id="linear0" gradientUnits="userSpaceOnUse" x1="31.753056" y1="56.067898" x2="31.753056" y2="5.792224" gradientTransform="matrix(1.156176,0,0,1.156176,-4.963452,-3.469896)">
<stop offset="0" style="stop-color:rgb(87.843138%,87.843138%,87.843138%);stop-opacity:1;"/>
<stop offset="1" style="stop-color:rgb(93.333334%,93.333334%,93.333334%);stop-opacity:1;"/>
</linearGradient>
</defs>
<g id="surface1">
<path style=" stroke:none;fill-rule:nonzero;fill:url(#linear0);" d="M 7.277344 35.347656 L 7.277344 36.878906 C 7.277344 50.4375 18.191406 61.351562 31.75 61.351562 C 45.308594 61.351562 56.222656 50.4375 56.222656 36.878906 L 56.222656 35.347656 C 56.222656 19.289062 43.984375 3.144531 31.75 3.144531 C 19.511719 3.144531 7.277344 19.289062 7.277344 35.347656 Z M 7.277344 35.347656 "/>
<path style=" stroke:none;fill-rule:nonzero;fill:rgb(61.960787%,61.960787%,61.960787%);fill-opacity:1;" d="M 15.875 31.625 L 15.875 36.1875 C 14.988281 36.023438 14.105469 35.84375 13.230469 35.652344 L 13.230469 33.746094 C 12.785156 33.652344 12.347656 33.554688 11.90625 33.453125 L 11.90625 35.351562 C 11.019531 35.144531 10.136719 34.921875 9.261719 34.6875 L 9.261719 32.796875 C 8.816406 32.683594 8.378906 32.5625 7.9375 32.4375 L 7.9375 34.320312 C 7.722656 34.261719 7.511719 34.199219 7.300781 34.136719 C 7.285156 34.539062 7.277344 34.945312 7.277344 35.347656 L 7.277344 35.507812 C 15.035156 37.753906 23.246094 38.960938 31.75 38.960938 C 40.253906 38.960938 48.464844 37.757812 56.222656 35.511719 L 56.222656 35.347656 C 56.222656 34.945312 56.214844 34.539062 56.199219 34.136719 C 48.65625 36.355469 40.671875 37.574219 32.40625 37.632812 C 32.410156 37.605469 32.410156 37.574219 32.410156 37.542969 L 32.410156 33.050781 C 32.191406 33.050781 31.96875 33.054688 31.75 33.054688 C 31.527344 33.054688 31.308594 33.050781 31.089844 33.050781 L 31.089844 37.542969 C 31.089844 37.574219 31.089844 37.605469 31.09375 37.632812 C 30.429688 37.628906 29.765625 37.617188 29.101562 37.597656 C 29.101562 37.578125 29.105469 37.558594 29.105469 37.542969 L 29.105469 35.660156 C 28.664062 35.648438 28.222656 35.632812 27.78125 35.613281 L 27.78125 37.542969 C 27.78125 37.542969 27.78125 37.546875 27.78125 37.546875 C 26.894531 37.507812 26.015625 37.453125 25.136719 37.386719 L 25.136719 35.453125 C 24.695312 35.421875 24.253906 35.386719 23.8125 35.347656 L 23.8125 37.277344 C 22.925781 37.199219 22.042969 37.105469 21.167969 36.996094 L 21.167969 35.070312 C 20.726562 35.015625 20.285156 34.960938 19.84375 34.902344 L 19.84375 36.824219 C 18.949219 36.703125 18.054688 36.566406 17.167969 36.414062 C 17.1875 36.351562 17.199219 36.289062 17.199219 36.21875 L 17.199219 31.855469 C 16.753906 31.78125 16.316406 31.707031 15.875 31.625 Z M 15.875 31.625 "/>
<path style=" stroke:none;fill-rule:nonzero;fill:rgb(25.882354%,25.882354%,25.882354%);fill-opacity:1;" d="M 31.738281 40.847656 C 31.519531 40.851562 31.320312 40.960938 31.199219 41.144531 L 28.554688 45.113281 C 28.261719 45.550781 28.574219 46.140625 29.105469 46.140625 L 34.394531 46.140625 C 34.925781 46.140625 35.238281 45.550781 34.945312 45.113281 L 32.300781 41.144531 C 32.175781 40.957031 31.964844 40.84375 31.738281 40.847656 Z M 31.738281 40.847656 "/>
</g>
</svg>
