<?xml version="1.0" encoding="UTF-8"?>
<svg xmlns="http://www.w3.org/2000/svg" xmlns:xlink="http://www.w3.org/1999/xlink" width="64px" height="64px" viewBox="0 0 64 64" version="1.1">
<g id="surface1">
<path style=" stroke:none;fill-rule:nonzero;fill:rgb(36.078432%,41.960785%,75.294119%);fill-opacity:1;" d="M 5.292969 3.144531 L 27.78125 3.144531 C 29.242188 3.144531 30.425781 4.332031 30.425781 5.792969 L 30.425781 28.28125 C 30.425781 29.742188 29.242188 30.925781 27.78125 30.925781 L 5.292969 30.925781 C 3.832031 30.925781 2.644531 29.742188 2.644531 28.28125 L 2.644531 5.792969 C 2.644531 4.332031 3.832031 3.144531 5.292969 3.144531 Z M 5.292969 3.144531 "/>
<path style=" stroke:none;fill-rule:nonzero;fill:rgb(36.078432%,41.960785%,75.294119%);fill-opacity:1;" d="M 35.71875 33.574219 L 58.207031 33.574219 C 59.667969 33.574219 60.855469 34.757812 60.855469 36.21875 L 60.855469 58.707031 C 60.855469 60.167969 59.667969 61.355469 58.207031 61.355469 L 35.71875 61.355469 C 34.257812 61.355469 33.074219 60.167969 33.074219 58.707031 L 33.074219 36.21875 C 33.074219 34.757812 34.257812 33.574219 35.71875 33.574219 Z M 35.71875 33.574219 "/>
<path style=" stroke:none;fill-rule:nonzero;fill:rgb(36.078432%,41.960785%,75.294119%);fill-opacity:1;" d="M 35.71875 3.144531 L 58.207031 3.144531 C 59.667969 3.144531 60.855469 4.332031 60.855469 5.792969 L 60.855469 28.28125 C 60.855469 29.742188 59.667969 30.925781 58.207031 30.925781 L 35.71875 30.925781 C 34.257812 30.925781 33.074219 29.742188 33.074219 28.28125 L 33.074219 5.792969 C 33.074219 4.332031 34.257812 3.144531 35.71875 3.144531 Z M 35.71875 3.144531 "/>
<path style=" stroke:none;fill-rule:nonzero;fill:rgb(36.078432%,41.960785%,75.294119%);fill-opacity:1;" d="M 5.292969 33.574219 L 27.78125 33.574219 C 29.242188 33.574219 30.425781 34.757812 30.425781 36.21875 L 30.425781 58.707031 C 30.425781 60.167969 29.242188 61.355469 27.78125 61.355469 L 5.292969 61.355469 C 3.832031 61.355469 2.644531 60.167969 2.644531 58.707031 L 2.644531 36.21875 C 2.644531 34.757812 3.832031 33.574219 5.292969 33.574219 Z M 5.292969 33.574219 "/>
<path style=" stroke:none;fill-rule:nonzero;fill:rgb(25.882354%,25.882354%,25.882354%);fill-opacity:1;" d="M 47.664062 5.792969 C 47.101562 5.796875 46.5625 6.023438 46.167969 6.421875 L 33.074219 19.519531 L 33.074219 28.28125 C 33.074219 29.746094 34.253906 30.925781 35.71875 30.925781 L 58.207031 30.925781 C 59.675781 30.925781 60.855469 29.746094 60.855469 28.28125 L 60.855469 18.050781 L 49.226562 6.421875 C 48.816406 6.011719 48.25 5.777344 47.664062 5.792969 Z M 47.664062 5.792969 "/>
<path style=" stroke:none;fill-rule:nonzero;fill:rgb(81.960785%,76.862746%,91.37255%);fill-opacity:1;" d="M 47.664062 5.792969 C 47.101562 5.796875 46.5625 6.023438 46.167969 6.421875 L 37.652344 14.933594 L 40.0625 17.773438 C 41.148438 18.863281 44.320312 18.925781 47.695312 16.683594 C 49.859375 14.535156 52.457031 14.726562 54.238281 16.683594 C 56.507812 18.789062 58.589844 18.871094 60.855469 18.863281 L 60.855469 18.050781 L 49.226562 6.421875 C 48.816406 6.011719 48.25 5.777344 47.664062 5.792969 Z M 47.664062 5.792969 "/>
<path style=" stroke:none;fill-rule:nonzero;fill:rgb(100%,65.490198%,14.901961%);fill-opacity:1;" d="M 21.167969 5.792969 C 18.953125 5.792969 17.011719 6.910156 15.871094 8.613281 C 16.261719 8.550781 16.664062 8.519531 17.074219 8.519531 C 21.355469 8.519531 24.804688 11.96875 24.804688 16.25 C 24.804688 16.660156 24.773438 17.0625 24.710938 17.453125 C 26.414062 16.3125 27.535156 14.371094 27.535156 12.160156 C 27.535156 8.632812 24.695312 5.792969 21.167969 5.792969 Z M 21.167969 5.792969 "/>
<path style=" stroke:none;fill-rule:nonzero;fill:rgb(25.882354%,25.882354%,25.882354%);fill-opacity:1;" d="M 18.523438 40.1875 C 17.929688 40.195312 17.34375 40.445312 16.921875 40.929688 L 3.175781 56.640625 L 2.644531 56.109375 L 2.644531 58.707031 C 2.644531 60.175781 3.824219 61.355469 5.292969 61.355469 L 27.78125 61.355469 C 29.246094 61.355469 30.425781 60.175781 30.425781 58.707031 L 30.425781 50.015625 L 19.988281 40.734375 C 19.570312 40.359375 19.042969 40.179688 18.523438 40.1875 Z M 18.523438 40.1875 "/>
<path style=" stroke:none;fill-rule:nonzero;fill:rgb(81.960785%,76.862746%,91.37255%);fill-opacity:1;" d="M 18.519531 40.1875 C 17.929688 40.191406 17.34375 40.445312 16.921875 40.929688 L 11.859375 46.714844 L 12.007812 46.714844 C 12.386719 47.542969 12.550781 50.535156 14.183594 48.898438 C 16.980469 46.101562 17.457031 47.261719 18.554688 48.347656 C 20.1875 49.984375 21.277344 51.621094 22.914062 51.082031 C 25.644531 49.984375 26.121094 47.292969 24.90625 45.101562 L 19.988281 40.734375 C 19.570312 40.363281 19.042969 40.179688 18.519531 40.1875 Z M 18.519531 40.1875 "/>
</g>
</svg>
