
<svg xmlns="http://www.w3.org/2000/svg" xmlns:xlink="http://www.w3.org/1999/xlink" width="64px" height="64px" viewBox="0 0 64 64" version="1.1">
<g id="surface1">
<path style=" stroke:none;fill-rule:nonzero;fill:rgb(25.882354%,64.705884%,96.078432%);fill-opacity:1;" d="M 12.3125 59.863281 C 10.195312 59.296875 8.9375 57.117188 9.503906 55 L 22.515625 6.445312 C 23.082031 4.328125 25.257812 3.070312 27.375 3.636719 C 29.492188 4.203125 30.75 6.382812 30.183594 8.5 L 17.171875 57.054688 C 16.605469 59.171875 14.429688 60.429688 12.3125 59.863281 Z M 12.3125 59.863281 "/>
<path style=" stroke:none;fill-rule:nonzero;fill:rgb(87.843138%,87.843138%,87.843138%);fill-opacity:1;" d="M 60.855469 19.84375 C 60.855469 22.035156 59.078125 23.8125 56.886719 23.8125 L 13.230469 23.8125 C 11.039062 23.8125 9.261719 22.035156 9.261719 19.84375 C 9.261719 17.652344 11.039062 15.875 13.230469 15.875 L 56.886719 15.875 C 59.078125 15.875 60.855469 17.652344 60.855469 19.84375 Z M 60.855469 19.84375 "/>
<path style=" stroke:none;fill-rule:nonzero;fill:rgb(93.725491%,32.549021%,31.37255%);fill-opacity:1;" d="M 54.238281 43.65625 C 54.238281 45.847656 52.460938 47.625 50.269531 47.625 L 6.613281 47.625 C 4.421875 47.625 2.644531 45.847656 2.644531 43.65625 C 2.644531 41.464844 4.421875 39.6875 6.613281 39.6875 L 50.269531 39.6875 C 52.460938 39.6875 54.238281 41.464844 54.238281 43.65625 Z M 54.238281 43.65625 "/>
<path style=" stroke:none;fill-rule:nonzero;fill:rgb(40.000001%,73.333335%,41.568628%);fill-opacity:1;" d="M 36.664062 59.863281 C 34.546875 59.296875 33.289062 57.117188 33.855469 55 L 46.867188 6.445312 C 47.4375 4.328125 49.613281 3.070312 51.730469 3.636719 C 53.847656 4.203125 55.101562 6.382812 54.535156 8.5 L 41.523438 57.054688 C 40.957031 59.171875 38.78125 60.429688 36.664062 59.863281 Z M 36.664062 59.863281 "/>
<path style=" stroke:none;fill-rule:nonzero;fill:rgb(93.725491%,32.549021%,31.37255%);fill-opacity:1;" d="M 29.105469 39.6875 L 29.105469 47.625 L 50.269531 47.625 C 52.46875 47.625 54.238281 45.855469 54.238281 43.65625 C 54.238281 41.457031 52.46875 39.6875 50.269531 39.6875 Z M 29.105469 39.6875 "/>
<path style=" stroke:none;fill-rule:nonzero;fill:rgb(25.882354%,64.705884%,96.078432%);fill-opacity:1;" d="M 15.027344 34.394531 L 9.503906 55 C 8.9375 57.125 10.1875 59.292969 12.3125 59.863281 C 14.433594 60.429688 16.601562 59.179688 17.171875 57.054688 L 23.242188 34.394531 Z M 15.027344 34.394531 "/>
</g>
</svg>
