<?xml version="1.0" encoding="UTF-8"?>
<svg xmlns="http://www.w3.org/2000/svg" xmlns:xlink="http://www.w3.org/1999/xlink" width="64px" height="64px" viewBox="0 0 64 64" version="1.1">
<g id="surface1">
<path style=" stroke:none;fill-rule:nonzero;fill:rgb(61.960787%,61.960787%,61.960787%);fill-opacity:1;" d="M 16.828125 53.417969 C 17.433594 53.417969 18.007812 53.550781 18.519531 53.792969 L 28.734375 56.0625 C 30.199219 56.0625 31.378906 57.242188 31.378906 58.707031 C 31.378906 60.175781 30.199219 61.355469 28.734375 61.355469 L 16.828125 61.355469 C 14.628906 61.355469 12.859375 59.585938 12.859375 57.386719 C 12.859375 55.1875 14.628906 53.417969 16.828125 53.417969 Z M 16.828125 53.417969 "/>
<path style=" stroke:none;fill-rule:nonzero;fill:rgb(74.117649%,74.117649%,74.117649%);fill-opacity:1;" d="M 42.332031 26.625 C 36.058594 26.625 33.097656 34.765625 30.425781 42.832031 C 28.007812 44.585938 23.886719 48.347656 23.886719 52.722656 C 23.886719 58.785156 27.082031 61.355469 31.050781 61.355469 L 53.863281 61.355469 L 53.863281 61.347656 C 57.714844 61.152344 60.777344 58.660156 60.777344 52.722656 C 60.777344 48.347656 56.65625 44.585938 54.238281 42.832031 C 51.566406 34.765625 48.609375 26.625 42.332031 26.625 Z M 42.332031 26.625 "/>
<path style=" stroke:none;fill-rule:nonzero;fill:rgb(82.352942%,82.352942%,82.352942%);fill-opacity:1;" d="M 41.011719 22.199219 C 43.933594 22.191406 46.320312 28.105469 46.339844 35.410156 L 46.347656 38.058594 C 46.371094 45.363281 44.019531 51.292969 41.09375 51.300781 C 38.171875 51.3125 35.785156 45.394531 35.765625 38.089844 L 35.757812 35.441406 C 35.734375 28.136719 38.089844 22.207031 41.011719 22.199219 Z M 41.011719 22.199219 "/>
<path style=" stroke:none;fill-rule:nonzero;fill:rgb(25.882354%,64.705884%,96.078432%);fill-opacity:1;" d="M 11.90625 30.925781 C 11.171875 30.925781 10.582031 31.515625 10.582031 32.25 L 10.582031 48.125 L 2.644531 48.125 L 18.519531 61.355469 L 34.394531 48.125 L 26.457031 48.125 L 26.457031 32.25 C 26.457031 31.515625 25.867188 30.925781 25.136719 30.925781 Z M 11.90625 30.925781 "/>
<path style=" stroke:none;fill-rule:nonzero;fill:rgb(61.960787%,61.960787%,61.960787%);fill-opacity:1;" d="M 45.996094 8.128906 C 51.152344 5.152344 57.453125 1.515625 58.773438 3.808594 C 60.097656 6.097656 58.160156 13.328125 54.902344 18.265625 Z M 45.996094 8.128906 "/>
<path style=" stroke:none;fill-rule:nonzero;fill:rgb(93.725491%,60.392159%,60.392159%);fill-opacity:1;" d="M 51.59375 11.746094 C 54.238281 9.097656 56.484375 5.128906 57.277344 6.503906 C 58.070312 7.878906 56.910156 12.21875 54.953125 15.179688 Z M 51.59375 11.746094 "/>
<path style=" stroke:none;fill-rule:nonzero;fill:rgb(61.960787%,61.960787%,61.960787%);fill-opacity:1;" d="M 35.71875 9.761719 C 29.765625 9.761719 22.488281 9.761719 22.488281 12.40625 C 22.488281 15.050781 27.78125 20.34375 33.074219 22.988281 Z M 35.71875 9.761719 "/>
<path style=" stroke:none;fill-rule:nonzero;fill:rgb(93.725491%,60.392159%,60.392159%);fill-opacity:1;" d="M 33.074219 12.40625 C 29.5 12.40625 25.136719 12.40625 25.136719 13.992188 C 25.136719 15.582031 28.308594 18.757812 31.484375 20.34375 Z M 33.074219 12.40625 "/>
<path style=" stroke:none;fill-rule:nonzero;fill:rgb(74.117649%,74.117649%,74.117649%);fill-opacity:1;" d="M 42.332031 7.113281 C 34.636719 7.113281 30.214844 10.679688 28.074219 17.769531 C 26.648438 21.371094 24.015625 23.75 24.511719 25.292969 C 24.96875 26.71875 32.460938 35.632812 42.332031 35.632812 C 52.207031 35.632812 59.699219 26.71875 60.15625 25.292969 C 60.652344 23.75 58.015625 21.371094 56.589844 17.769531 C 54.453125 10.679688 50.03125 7.113281 42.332031 7.113281 Z M 42.332031 7.113281 "/>
<path style=" stroke:none;fill-rule:nonzero;fill:rgb(87.843138%,87.843138%,87.843138%);fill-opacity:1;" d="M 30.425781 30.265625 C 30.425781 30.675781 30.464844 31.078125 30.535156 31.472656 C 33.632812 33.6875 37.722656 35.628906 42.332031 35.628906 C 46.183594 35.628906 49.671875 34.273438 52.523438 32.535156 C 51.59375 21.667969 30.425781 22.988281 30.425781 30.265625 Z M 30.425781 30.265625 "/>
<path style=" stroke:none;fill-rule:nonzero;fill:rgb(93.725491%,32.549021%,31.37255%);fill-opacity:1;" d="M 38.035156 25.636719 C 39.027344 27.621094 39.648438 30.554688 41.011719 30.597656 C 42.332031 30.597656 42.996094 27.621094 43.65625 25.304688 C 41.671875 24.972656 39.6875 24.972656 38.035156 25.636719 Z M 38.035156 25.636719 "/>
<path style=" stroke:none;fill-rule:nonzero;fill:rgb(25.882354%,25.882354%,25.882354%);fill-opacity:1;" d="M 46.300781 18.027344 C 45.277344 18.027344 44.449219 19.0625 44.449219 20.34375 L 44.449219 21.5 C 44.449219 22.140625 44.964844 22.660156 45.609375 22.660156 L 47.152344 22.660156 C 47.792969 22.660156 48.308594 22.140625 48.308594 21.5 L 48.308594 20.34375 C 48.308594 19.0625 47.484375 18.027344 46.457031 18.027344 Z M 46.300781 18.027344 "/>
<path style=" stroke:none;fill-rule:nonzero;fill:rgb(25.882354%,25.882354%,25.882354%);fill-opacity:1;" d="M 35.191406 18.027344 C 34.164062 18.027344 33.335938 19.0625 33.335938 20.34375 L 33.335938 21.5 C 33.335938 22.140625 33.855469 22.660156 34.496094 22.660156 L 36.039062 22.660156 C 36.679688 22.660156 37.195312 22.140625 37.195312 21.5 L 37.195312 20.34375 C 37.195312 19.0625 36.371094 18.027344 35.34375 18.027344 Z M 35.191406 18.027344 "/>
<path style=" stroke:none;fill-rule:nonzero;fill:rgb(93.333334%,93.333334%,93.333334%);fill-opacity:1;" d="M 44.9375 19.351562 C 45.144531 19.351562 45.308594 19.574219 45.308594 19.847656 C 45.308594 20.121094 45.144531 20.34375 44.9375 20.34375 C 44.730469 20.34375 44.566406 20.121094 44.566406 19.847656 C 44.566406 19.574219 44.730469 19.351562 44.9375 19.351562 Z M 44.9375 19.351562 "/>
<path style=" stroke:none;fill-rule:nonzero;fill:rgb(93.333334%,93.333334%,93.333334%);fill-opacity:1;" d="M 45.394531 20.34375 C 45.53125 20.34375 45.640625 20.492188 45.640625 20.675781 C 45.640625 20.855469 45.53125 21.003906 45.394531 21.003906 C 45.253906 21.003906 45.144531 20.855469 45.144531 20.675781 C 45.144531 20.492188 45.253906 20.34375 45.394531 20.34375 Z M 45.394531 20.34375 "/>
<path style=" stroke:none;fill-rule:nonzero;fill:rgb(93.333334%,93.333334%,93.333334%);fill-opacity:1;" d="M 34.105469 19.351562 C 34.3125 19.351562 34.480469 19.574219 34.480469 19.847656 C 34.480469 20.121094 34.3125 20.34375 34.105469 20.34375 C 33.902344 20.34375 33.734375 20.121094 33.734375 19.847656 C 33.734375 19.574219 33.902344 19.351562 34.105469 19.351562 Z M 34.105469 19.351562 "/>
<path style=" stroke:none;fill-rule:nonzero;fill:rgb(93.333334%,93.333334%,93.333334%);fill-opacity:1;" d="M 34.5625 20.34375 C 34.699219 20.34375 34.808594 20.492188 34.808594 20.675781 C 34.808594 20.855469 34.699219 21.003906 34.5625 21.003906 C 34.425781 21.003906 34.3125 20.855469 34.3125 20.675781 C 34.3125 20.492188 34.425781 20.34375 34.5625 20.34375 Z M 34.5625 20.34375 "/>
<path style=" stroke:none;fill-rule:nonzero;fill:rgb(89.803922%,45.09804%,45.09804%);fill-opacity:1;" d="M 42.964844 27.726562 C 41.644531 27.894531 40.421875 28.253906 39.351562 28.769531 C 39.808594 29.792969 40.3125 30.574219 41.011719 30.597656 C 41.886719 30.597656 42.476562 29.285156 42.964844 27.726562 Z M 42.964844 27.726562 "/>
<path style=" stroke:none;fill-rule:nonzero;fill:rgb(87.843138%,87.843138%,87.843138%);fill-opacity:1;" d="M 49.609375 53.417969 C 46.679688 53.417969 44.316406 55.1875 44.316406 57.386719 L 44.316406 60.03125 C 44.316406 60.765625 44.90625 61.355469 45.640625 61.355469 L 53.578125 61.355469 C 54.3125 61.355469 54.902344 60.765625 54.902344 60.03125 L 54.902344 57.386719 C 54.902344 55.1875 52.539062 53.417969 49.609375 53.417969 Z M 49.609375 53.417969 "/>
<path style=" stroke:none;fill-rule:nonzero;fill:rgb(87.843138%,87.843138%,87.843138%);fill-opacity:1;" d="M 31.75 40.1875 C 28.820312 40.1875 26.457031 41.957031 26.457031 44.15625 L 26.457031 46.800781 C 26.457031 47.535156 27.046875 48.125 27.78125 48.125 L 35.71875 48.125 C 36.453125 48.125 37.042969 47.535156 37.042969 46.800781 L 37.042969 44.15625 C 37.042969 41.957031 34.679688 40.1875 31.75 40.1875 Z M 31.75 40.1875 "/>
<path style=" stroke:none;fill-rule:nonzero;fill:rgb(67.058825%,27.843139%,73.725492%);fill-opacity:1;" d="M 50.660156 33.5625 C 48.203125 34.78125 45.382812 35.628906 42.332031 35.628906 C 39.285156 35.628906 36.460938 34.78125 34.003906 33.5625 C 33.757812 34.0625 33.515625 34.574219 33.28125 35.101562 C 35.902344 36.515625 38.980469 37.542969 42.332031 37.542969 C 45.6875 37.542969 48.765625 36.515625 51.386719 35.101562 C 51.152344 34.574219 50.910156 34.0625 50.660156 33.5625 Z M 50.660156 33.5625 "/>
<path style=" stroke:none;fill-rule:nonzero;fill:rgb(100%,65.490198%,14.901961%);fill-opacity:1;" d="M 41.011719 36.878906 C 41.742188 36.878906 42.332031 37.472656 42.332031 38.203125 C 42.332031 38.933594 41.742188 39.527344 41.011719 39.527344 C 40.28125 39.527344 39.6875 38.933594 39.6875 38.203125 C 39.6875 37.472656 40.28125 36.878906 41.011719 36.878906 Z M 41.011719 36.878906 "/>
<path style=" stroke:none;fill-rule:nonzero;fill:rgb(56.470591%,79.215688%,97.647059%);fill-opacity:1;" d="M 13.230469 33.574219 L 23.8125 33.574219 L 23.8125 40.1875 L 13.230469 40.1875 Z M 13.230469 33.574219 "/>
<path style=" stroke:none;fill-rule:nonzero;fill:rgb(56.470591%,79.215688%,97.647059%);fill-opacity:1;" d="M 13.230469 40.847656 L 18.519531 40.847656 L 18.519531 47.464844 L 13.230469 47.464844 Z M 13.230469 40.847656 "/>
<path style=" stroke:none;fill-rule:nonzero;fill:rgb(56.470591%,79.215688%,97.647059%);fill-opacity:1;" d="M 19.183594 40.847656 L 23.8125 40.847656 L 23.8125 43.496094 L 19.183594 43.496094 Z M 19.183594 40.847656 "/>
<path style=" stroke:none;fill-rule:nonzero;fill:rgb(56.470591%,79.215688%,97.647059%);fill-opacity:1;" d="M 19.183594 44.816406 L 22.488281 44.816406 L 22.488281 47.464844 L 19.183594 47.464844 Z M 19.183594 44.816406 "/>
<path style=" stroke:none;fill-rule:nonzero;fill:rgb(25.882354%,25.882354%,25.882354%);fill-opacity:1;" d="M 40.347656 23.652344 L 41.011719 23.652344 C 41.191406 23.652344 41.339844 23.800781 41.339844 23.980469 C 41.339844 24.164062 41.191406 24.3125 41.011719 24.3125 L 40.347656 24.3125 C 40.167969 24.3125 40.019531 24.164062 40.019531 23.980469 C 40.019531 23.800781 40.167969 23.652344 40.347656 23.652344 Z M 40.347656 23.652344 "/>
<path style=" stroke:none;fill-rule:nonzero;fill:rgb(87.843138%,87.843138%,87.843138%);fill-opacity:1;" d="M 38.363281 9.761719 L 35.058594 7.113281 L 38.363281 7.777344 L 37.042969 6.453125 L 40.347656 7.113281 L 39.6875 5.128906 L 42.332031 7.113281 L 42.332031 5.792969 L 43.65625 7.113281 L 44.316406 5.792969 L 44.980469 9.097656 Z M 38.363281 9.761719 "/>
<path style=" stroke:none;fill-rule:nonzero;fill:rgb(87.843138%,87.843138%,87.843138%);fill-opacity:1;" d="M 56.664062 17.949219 C 54.023438 18.746094 52.121094 19.824219 52.296875 20.476562 C 52.480469 21.167969 54.953125 21.105469 57.878906 20.347656 C 57.449219 19.617188 57.023438 18.820312 56.664062 17.949219 Z M 27.90625 18.175781 C 27.539062 19.027344 27.113281 19.808594 26.683594 20.519531 C 29.292969 21.113281 31.386719 21.113281 31.558594 20.476562 C 31.714844 19.886719 30.167969 18.941406 27.90625 18.175781 Z M 58.335938 21.101562 C 55.578125 21.90625 53.566406 23.027344 53.746094 23.695312 C 53.9375 24.402344 56.511719 24.324219 59.519531 23.519531 C 59.601562 23.496094 59.683594 23.472656 59.765625 23.453125 C 59.414062 22.769531 58.890625 21.992188 58.335938 21.101562 Z M 26.199219 21.3125 C 25.644531 22.195312 25.132812 22.96875 24.804688 23.640625 C 27.609375 24.332031 29.929688 24.367188 30.109375 23.695312 C 30.273438 23.085938 28.597656 22.089844 26.199219 21.3125 Z M 26.199219 21.3125 "/>
<path style=" stroke:none;fill-rule:nonzero;fill:rgb(87.843138%,87.843138%,87.843138%);fill-opacity:1;" d="M 42.332031 7.113281 C 42.332031 9.3125 42.921875 11.082031 43.65625 11.082031 C 44.371094 11.082031 44.949219 9.394531 44.976562 7.269531 C 44.144531 7.167969 43.261719 7.113281 42.332031 7.113281 Z M 42.332031 7.113281 C 41.40625 7.113281 40.523438 7.167969 39.6875 7.269531 C 39.714844 9.394531 40.296875 11.082031 41.011719 11.082031 C 41.742188 11.082031 42.332031 9.3125 42.332031 7.113281 Z M 39.6875 7.269531 C 38.753906 7.386719 37.882812 7.566406 37.0625 7.8125 C 37.171875 9.675781 37.710938 11.082031 38.363281 11.082031 C 39.078125 11.082031 39.660156 9.398438 39.6875 7.269531 Z M 39.6875 7.269531 "/>
</g>
</svg>
