<?xml version="1.0" encoding="UTF-8"?>
<svg xmlns="http://www.w3.org/2000/svg" xmlns:xlink="http://www.w3.org/1999/xlink" width="64px" height="64px" viewBox="0 0 64 64" version="1.1">
<g id="surface1">
<path style=" stroke:none;fill-rule:nonzero;fill:rgb(25.882354%,25.882354%,25.882354%);fill-opacity:1;" d="M 5.292969 3.144531 L 58.207031 3.144531 C 59.667969 3.144531 60.855469 4.332031 60.855469 5.792969 L 60.855469 58.707031 C 60.855469 60.167969 59.667969 61.355469 58.207031 61.355469 L 5.292969 61.355469 C 3.832031 61.355469 2.644531 60.167969 2.644531 58.707031 L 2.644531 5.792969 C 2.644531 4.332031 3.832031 3.144531 5.292969 3.144531 Z M 5.292969 3.144531 "/>
<path style=" stroke:none;fill-rule:nonzero;fill:rgb(100%,65.490198%,14.901961%);fill-opacity:1;" d="M 7.9375 7.113281 C 7.203125 7.113281 6.613281 7.703125 6.613281 8.4375 L 6.613281 56.0625 C 6.613281 56.796875 7.203125 57.386719 7.9375 57.386719 L 55.5625 57.386719 C 56.296875 57.386719 56.886719 56.796875 56.886719 56.0625 L 56.886719 8.4375 C 56.886719 7.703125 56.296875 7.113281 55.5625 7.113281 Z M 9.921875 9.761719 L 53.578125 9.761719 C 53.945312 9.761719 54.238281 10.054688 54.238281 10.421875 L 54.238281 54.078125 C 54.238281 54.445312 53.945312 54.738281 53.578125 54.738281 L 9.921875 54.738281 C 9.554688 54.738281 9.261719 54.445312 9.261719 54.078125 L 9.261719 10.421875 C 9.261719 10.054688 9.554688 9.761719 9.921875 9.761719 Z M 9.921875 9.761719 "/>
<path style=" stroke:none;fill-rule:nonzero;fill:rgb(100%,65.490198%,14.901961%);fill-opacity:1;" d="M 39.6875 24.3125 L 41.011719 24.3125 C 41.375 24.3125 41.671875 24.609375 41.671875 24.972656 L 41.671875 44.816406 C 41.671875 45.183594 41.375 45.480469 41.011719 45.480469 L 39.6875 45.480469 C 39.320312 45.480469 39.027344 45.183594 39.027344 44.816406 L 39.027344 24.972656 C 39.027344 24.609375 39.320312 24.3125 39.6875 24.3125 Z M 39.6875 24.3125 "/>
<path style=" stroke:none;fill-rule:nonzero;fill:rgb(100%,65.490198%,14.901961%);fill-opacity:1;" d="M 23.152344 19.019531 C 19.121094 19.019531 15.875 21.972656 15.875 25.636719 L 15.875 39.527344 C 15.875 39.890625 16.171875 40.1875 16.535156 40.1875 L 17.859375 40.1875 C 18.226562 40.1875 18.519531 39.890625 18.519531 39.527344 L 18.519531 33.574219 L 27.78125 33.574219 L 27.78125 39.527344 C 27.78125 39.890625 28.078125 40.1875 28.441406 40.1875 L 29.765625 40.1875 C 30.132812 40.1875 30.425781 39.890625 30.425781 39.527344 L 30.425781 25.636719 C 30.425781 21.972656 27.183594 19.019531 23.152344 19.019531 Z M 23.152344 21.667969 C 25.714844 21.667969 27.78125 23.4375 27.78125 25.636719 L 27.78125 30.925781 L 18.519531 30.925781 L 18.519531 25.636719 C 18.519531 23.4375 20.585938 21.667969 23.152344 21.667969 Z M 23.152344 21.667969 "/>
</g>
</svg>
