
<svg xmlns="http://www.w3.org/2000/svg" xmlns:xlink="http://www.w3.org/1999/xlink" width="64px" height="64px" viewBox="0 0 64 64" version="1.1">
<g id="surface1">
<path style=" stroke:none;fill-rule:nonzero;fill:rgb(45.882353%,45.882353%,45.882353%);fill-opacity:1;" d="M 15.875 2.644531 L 47.625 2.644531 C 49.085938 2.644531 50.269531 3.832031 50.269531 5.292969 L 50.269531 58.207031 C 50.269531 59.667969 49.085938 60.855469 47.625 60.855469 L 15.875 60.855469 C 14.414062 60.855469 13.230469 59.667969 13.230469 58.207031 L 13.230469 5.292969 C 13.230469 3.832031 14.414062 2.644531 15.875 2.644531 Z M 15.875 2.644531 "/>
<path style=" stroke:none;fill-rule:nonzero;fill:rgb(25.882354%,25.882354%,25.882354%);fill-opacity:1;" d="M 13.230469 5.292969 L 50.269531 5.292969 L 50.269531 58.207031 L 13.230469 58.207031 Z M 13.230469 5.292969 "/>
<path style=" stroke:none;fill-rule:nonzero;fill:rgb(45.882353%,45.882353%,45.882353%);fill-opacity:1;" d="M 29.105469 3.96875 L 34.394531 3.96875 C 35.125 3.96875 35.71875 4.5625 35.71875 5.292969 L 35.71875 7.9375 C 35.71875 8.667969 35.125 9.261719 34.394531 9.261719 L 29.105469 9.261719 C 28.375 9.261719 27.78125 8.667969 27.78125 7.9375 L 27.78125 5.292969 C 27.78125 4.5625 28.375 3.96875 29.105469 3.96875 Z M 29.105469 3.96875 "/>
<path style=" stroke:none;fill-rule:nonzero;fill:rgb(25.882354%,25.882354%,25.882354%);fill-opacity:1;" d="M 31.75 5.292969 C 32.480469 5.292969 33.074219 5.882812 33.074219 6.613281 C 33.074219 7.34375 32.480469 7.9375 31.75 7.9375 C 31.019531 7.9375 30.425781 7.34375 30.425781 6.613281 C 30.425781 5.882812 31.019531 5.292969 31.75 5.292969 Z M 31.75 5.292969 "/>
<path style=" stroke:none;fill-rule:nonzero;fill:rgb(96.078432%,96.078432%,96.078432%);fill-opacity:1;" d="M 34.144531 18.519531 L 29.355469 19.246094 L 29.355469 36.570312 L 34.144531 35.285156 L 34.144531 28.59375 L 38.9375 36.480469 L 43.726562 34.683594 L 37.738281 27.5 L 43.726562 19.722656 L 39.078125 18.519531 L 34.144531 26.375 Z M 24.394531 23.222656 C 24.277344 23.222656 24.164062 23.261719 24.078125 23.347656 L 22.195312 25.230469 C 22.019531 25.410156 22.0625 25.65625 22.195312 25.863281 L 24.144531 28.921875 C 23.996094 29.222656 23.875 29.53125 23.769531 29.847656 C 23.765625 29.859375 23.753906 29.871094 23.75 29.882812 L 20.21875 30.667969 C 19.980469 30.722656 19.773438 30.871094 19.773438 31.113281 L 19.773438 33.46875 C 19.773438 33.710938 19.980469 33.859375 20.21875 33.914062 L 23.75 34.699219 C 23.757812 34.722656 23.769531 34.742188 23.777344 34.765625 C 23.878906 35.074219 24.003906 35.371094 24.140625 35.667969 L 22.191406 38.722656 C 22.0625 38.925781 22.019531 39.179688 22.191406 39.351562 L 24.074219 41.234375 C 24.25 41.40625 24.527344 41.40625 24.703125 41.234375 L 27.757812 39.289062 C 28.058594 39.433594 28.367188 39.5625 28.683594 39.664062 C 28.707031 39.675781 28.722656 39.683594 28.746094 39.695312 L 29.527344 43.226562 C 29.527344 43.46875 29.726562 43.667969 29.96875 43.667969 L 32.628906 43.667969 C 32.878906 43.667969 33.019531 43.464844 33.078125 43.226562 L 33.859375 39.582031 C 34.214844 39.449219 34.570312 39.289062 34.902344 39.101562 L 37.886719 41.234375 C 38.058594 41.410156 38.339844 41.410156 38.511719 41.234375 L 40.394531 39.351562 C 40.570312 39.179688 40.527344 38.929688 40.394531 38.722656 L 39.257812 37 L 39.140625 37.046875 C 38.875 37.148438 38.570312 37.042969 38.421875 36.796875 L 37.222656 34.832031 C 36.234375 37.210938 33.886719 38.878906 31.148438 38.878906 C 27.511719 38.878906 24.558594 35.933594 24.558594 32.296875 C 24.558594 29.5 26.300781 27.125 28.753906 26.160156 L 28.753906 24.851562 L 28.746094 24.890625 C 28.71875 24.902344 28.691406 24.910156 28.667969 24.917969 C 28.355469 25.023438 28.050781 25.148438 27.753906 25.289062 L 24.703125 23.347656 C 24.617188 23.261719 24.503906 23.21875 24.386719 23.21875 Z M 24.394531 23.222656 "/>
</g>
</svg>
