<?xml version="1.0" encoding="UTF-8"?>
<svg xmlns="http://www.w3.org/2000/svg" xmlns:xlink="http://www.w3.org/1999/xlink" width="64px" height="64px" viewBox="0 0 64 64" version="1.1">
<g id="surface1">
<path style=" stroke:none;fill-rule:nonzero;fill:rgb(74.117649%,74.117649%,74.117649%);fill-opacity:1;" d="M 31.628906 2.644531 C 27.621094 2.65625 23.625 4.007812 20.445312 6.457031 C 17.011719 9.070312 14.539062 12.917969 13.613281 17.136719 C 13.238281 18.761719 13.128906 20.429688 13.164062 22.09375 C 13.164062 25.332031 13.164062 28.574219 13.164062 31.816406 C 13.28125 31.960938 13.546875 31.84375 13.726562 31.882812 C 15.324219 31.882812 16.921875 31.882812 18.519531 31.882812 C 18.667969 31.761719 18.550781 31.496094 18.585938 31.320312 C 18.589844 27.816406 18.578125 24.308594 18.59375 20.808594 C 18.675781 17.734375 19.890625 14.695312 21.960938 12.417969 C 24.101562 10.019531 27.152344 8.464844 30.351562 8.140625 C 33.402344 7.8125 36.574219 8.578125 39.121094 10.3125 C 41.761719 12.082031 43.71875 14.847656 44.5 17.933594 C 44.851562 19.269531 44.945312 20.648438 44.914062 22.027344 C 44.914062 25.289062 44.914062 28.550781 44.914062 31.816406 C 45.03125 31.960938 45.296875 31.84375 45.476562 31.882812 C 47.074219 31.882812 48.671875 31.882812 50.269531 31.882812 C 50.417969 31.761719 50.300781 31.496094 50.335938 31.320312 C 50.332031 27.773438 50.347656 24.230469 50.328125 20.683594 C 50.226562 16.644531 48.757812 12.652344 46.203125 9.515625 C 43.515625 6.183594 39.640625 3.835938 35.441406 3.007812 C 34.1875 2.757812 32.90625 2.636719 31.628906 2.644531 Z M 31.628906 2.644531 "/>
<path style=" stroke:none;fill-rule:nonzero;fill:rgb(36.078432%,41.960785%,75.294119%);fill-opacity:1;" d="M 10.582031 29.171875 L 52.917969 29.171875 C 54.378906 29.171875 55.5625 30.355469 55.5625 31.816406 L 55.5625 58.273438 C 55.5625 59.734375 54.378906 60.921875 52.917969 60.921875 L 10.582031 60.921875 C 9.121094 60.921875 7.9375 59.734375 7.9375 58.273438 L 7.9375 31.816406 C 7.9375 30.355469 9.121094 29.171875 10.582031 29.171875 Z M 10.582031 29.171875 "/>
<path style=" stroke:none;fill-rule:nonzero;fill:rgb(25.882354%,25.882354%,25.882354%);fill-opacity:1;" d="M 7.9375 33.140625 L 19.84375 33.140625 L 19.84375 35.785156 L 7.9375 35.785156 Z M 7.9375 33.140625 "/>
<path style=" stroke:none;fill-rule:nonzero;fill:rgb(25.882354%,25.882354%,25.882354%);fill-opacity:1;" d="M 7.9375 38.429688 L 19.84375 38.429688 L 19.84375 41.078125 L 7.9375 41.078125 Z M 7.9375 38.429688 "/>
<path style=" stroke:none;fill-rule:nonzero;fill:rgb(25.882354%,25.882354%,25.882354%);fill-opacity:1;" d="M 7.9375 43.722656 L 19.84375 43.722656 L 19.84375 46.367188 L 7.9375 46.367188 Z M 7.9375 43.722656 "/>
<path style=" stroke:none;fill-rule:nonzero;fill:rgb(25.882354%,25.882354%,25.882354%);fill-opacity:1;" d="M 7.9375 49.015625 L 19.84375 49.015625 L 19.84375 51.660156 L 7.9375 51.660156 Z M 7.9375 49.015625 "/>
<path style=" stroke:none;fill-rule:nonzero;fill:rgb(25.882354%,25.882354%,25.882354%);fill-opacity:1;" d="M 7.9375 54.304688 L 19.84375 54.304688 L 19.84375 56.953125 L 7.9375 56.953125 Z M 7.9375 54.304688 "/>
<path style=" stroke:none;fill-rule:nonzero;fill:rgb(25.882354%,25.882354%,25.882354%);fill-opacity:1;" d="M 43.65625 33.140625 L 55.5625 33.140625 L 55.5625 35.785156 L 43.65625 35.785156 Z M 43.65625 33.140625 "/>
<path style=" stroke:none;fill-rule:nonzero;fill:rgb(25.882354%,25.882354%,25.882354%);fill-opacity:1;" d="M 43.65625 38.429688 L 55.5625 38.429688 L 55.5625 41.078125 L 43.65625 41.078125 Z M 43.65625 38.429688 "/>
<path style=" stroke:none;fill-rule:nonzero;fill:rgb(25.882354%,25.882354%,25.882354%);fill-opacity:1;" d="M 43.65625 43.722656 L 55.5625 43.722656 L 55.5625 46.367188 L 43.65625 46.367188 Z M 43.65625 43.722656 "/>
<path style=" stroke:none;fill-rule:nonzero;fill:rgb(25.882354%,25.882354%,25.882354%);fill-opacity:1;" d="M 43.65625 49.015625 L 55.5625 49.015625 L 55.5625 51.660156 L 43.65625 51.660156 Z M 43.65625 49.015625 "/>
<path style=" stroke:none;fill-rule:nonzero;fill:rgb(25.882354%,25.882354%,25.882354%);fill-opacity:1;" d="M 43.65625 54.304688 L 55.5625 54.304688 L 55.5625 56.953125 L 43.65625 56.953125 Z M 43.65625 54.304688 "/>
</g>
</svg>
