<?xml version="1.0" encoding="UTF-8"?>
<svg xmlns="http://www.w3.org/2000/svg" xmlns:xlink="http://www.w3.org/1999/xlink" width="64px" height="64px" viewBox="0 0 64 64" version="1.1">
<g id="surface1">
<path style=" stroke:none;fill-rule:nonzero;fill:rgb(100%,87.843138%,50.980395%);fill-opacity:1;" d="M 31.75 3.144531 C 47.824219 3.144531 60.855469 16.175781 60.855469 32.25 C 60.855469 48.324219 47.824219 61.355469 31.75 61.355469 C 15.675781 61.355469 2.644531 48.324219 2.644531 32.25 C 2.644531 16.175781 15.675781 3.144531 31.75 3.144531 Z M 31.75 3.144531 "/>
<path style=" stroke:none;fill-rule:nonzero;fill:rgb(100%,79.215688%,15.686275%);fill-opacity:1;" d="M 31.75 4.46875 C 47.09375 4.46875 59.53125 16.90625 59.53125 32.25 C 59.53125 47.59375 47.09375 60.03125 31.75 60.03125 C 16.40625 60.03125 3.96875 47.59375 3.96875 32.25 C 3.96875 16.90625 16.40625 4.46875 31.75 4.46875 Z M 31.75 4.46875 "/>
<path style=" stroke:none;fill-rule:nonzero;fill:rgb(61.960787%,61.960787%,61.960787%);fill-opacity:1;" d="M 31.75 9.761719 C 44.171875 9.761719 54.238281 19.828125 54.238281 32.25 C 54.238281 44.671875 44.171875 54.738281 31.75 54.738281 C 19.328125 54.738281 9.261719 44.671875 9.261719 32.25 C 9.261719 19.828125 19.328125 9.761719 31.75 9.761719 Z M 31.75 9.761719 "/>
<path style=" stroke:none;fill-rule:nonzero;fill:rgb(87.843138%,87.843138%,87.843138%);fill-opacity:1;" d="M 31.75 19.019531 C 25.886719 19.019531 21.167969 22.5625 21.167969 26.957031 L 21.167969 37.542969 C 21.167969 41.9375 25.886719 45.480469 31.75 45.480469 C 37.011719 45.480469 41.351562 42.628906 42.1875 38.863281 L 37.992188 38.863281 C 37.085938 40.410156 34.640625 41.511719 31.75 41.511719 C 28.085938 41.511719 25.136719 39.742188 25.136719 37.542969 L 25.136719 26.957031 C 25.136719 24.757812 28.085938 22.988281 31.75 22.988281 C 35.414062 22.988281 38.363281 24.757812 38.363281 26.957031 L 42.332031 26.957031 C 42.332031 22.5625 37.613281 19.019531 31.75 19.019531 Z M 31.75 19.019531 "/>
<path style=" stroke:none;fill-rule:nonzero;fill:rgb(87.843138%,87.843138%,87.843138%);fill-opacity:1;" d="M 18.519531 28.28125 L 35.71875 28.28125 L 34.394531 32.25 L 18.519531 32.25 Z M 18.519531 28.28125 "/>
<path style=" stroke:none;fill-rule:nonzero;fill:rgb(87.843138%,87.843138%,87.843138%);fill-opacity:1;" d="M 18.519531 33.574219 L 34.394531 33.574219 L 33.074219 37.542969 L 18.519531 37.542969 Z M 18.519531 33.574219 "/>
</g>
</svg>
