<?xml version="1.0" encoding="UTF-8"?>
<svg xmlns="http://www.w3.org/2000/svg" xmlns:xlink="http://www.w3.org/1999/xlink" width="64px" height="64px" viewBox="0 0 64 64" version="1.1">
<g id="surface1">
<path style=" stroke:none;fill-rule:nonzero;fill:rgb(25.882354%,25.882354%,25.882354%);fill-opacity:1;" d="M 5.292969 37.542969 L 10.582031 37.542969 C 12.042969 37.542969 13.230469 38.726562 13.230469 40.1875 L 13.230469 58.707031 C 13.230469 60.167969 12.042969 61.355469 10.582031 61.355469 L 5.292969 61.355469 C 3.832031 61.355469 2.644531 60.167969 2.644531 58.707031 L 2.644531 40.1875 C 2.644531 38.726562 3.832031 37.542969 5.292969 37.542969 Z M 5.292969 37.542969 "/>
<path style=" stroke:none;fill-rule:nonzero;fill:rgb(25.882354%,25.882354%,25.882354%);fill-opacity:1;" d="M 52.917969 37.542969 L 58.207031 37.542969 C 59.667969 37.542969 60.855469 38.726562 60.855469 40.1875 L 60.855469 58.707031 C 60.855469 60.167969 59.667969 61.355469 58.207031 61.355469 L 52.917969 61.355469 C 51.457031 61.355469 50.269531 60.167969 50.269531 58.707031 L 50.269531 40.1875 C 50.269531 38.726562 51.457031 37.542969 52.917969 37.542969 Z M 52.917969 37.542969 "/>
<path style=" stroke:none;fill-rule:nonzero;fill:rgb(25.882354%,25.882354%,25.882354%);fill-opacity:1;" d="M 15.875 32.25 L 47.625 32.25 C 49.085938 32.25 50.269531 33.433594 50.269531 34.894531 L 50.269531 48.125 C 50.269531 49.585938 49.085938 50.769531 47.625 50.769531 L 15.875 50.769531 C 14.414062 50.769531 13.230469 49.585938 13.230469 48.125 L 13.230469 34.894531 C 13.230469 33.433594 14.414062 32.25 15.875 32.25 Z M 15.875 32.25 "/>
<path style=" stroke:none;fill-rule:nonzero;fill:rgb(100%,43.921569%,26.274511%);fill-opacity:1;" d="M 31.75 3.144531 C 36.132812 3.144531 39.6875 6.699219 39.6875 11.082031 L 39.6875 21.667969 C 39.6875 26.050781 36.132812 29.605469 31.75 29.605469 C 27.367188 29.605469 23.8125 26.050781 23.8125 21.667969 L 23.8125 11.082031 C 23.8125 6.699219 27.367188 3.144531 31.75 3.144531 Z M 31.75 3.144531 "/>
<path style=" stroke:none;fill-rule:nonzero;fill:rgb(25.882354%,25.882354%,25.882354%);fill-opacity:1;" d="M 21.167969 16.375 L 42.332031 16.375 C 43.792969 16.375 44.980469 17.558594 44.980469 19.019531 L 44.980469 21.667969 C 44.980469 23.128906 43.792969 24.3125 42.332031 24.3125 L 21.167969 24.3125 C 19.707031 24.3125 18.519531 23.128906 18.519531 21.667969 L 18.519531 19.019531 C 18.519531 17.558594 19.707031 16.375 21.167969 16.375 Z M 21.167969 16.375 "/>
<path style=" stroke:none;fill-rule:nonzero;fill:rgb(100%,65.490198%,14.901961%);fill-opacity:1;" d="M 15.875 32.25 C 14.410156 32.25 13.230469 33.429688 13.230469 34.894531 L 13.230469 36.097656 L 17.078125 32.25 Z M 22.6875 32.25 L 13.230469 41.710938 L 13.230469 47.324219 L 28.300781 32.25 Z M 33.914062 32.25 L 15.429688 50.734375 C 15.574219 50.757812 15.722656 50.769531 15.875 50.769531 L 21.007812 50.769531 L 39.527344 32.25 Z M 45.140625 32.25 L 26.617188 50.769531 L 32.230469 50.769531 L 49.722656 33.28125 C 49.238281 32.652344 48.480469 32.25 47.625 32.25 Z M 50.269531 38.34375 L 37.84375 50.769531 L 43.457031 50.769531 L 50.269531 43.957031 Z M 50.269531 38.34375 "/>
<path style=" stroke:none;fill-rule:nonzero;fill:rgb(45.882353%,45.882353%,45.882353%);fill-opacity:1;" d="M 5.292969 19.019531 L 58.207031 19.019531 C 59.667969 19.019531 60.855469 20.207031 60.855469 21.667969 L 60.855469 32.25 C 60.855469 33.710938 59.667969 34.894531 58.207031 34.894531 L 5.292969 34.894531 C 3.832031 34.894531 2.644531 33.710938 2.644531 32.25 L 2.644531 21.667969 C 2.644531 20.207031 3.832031 19.019531 5.292969 19.019531 Z M 5.292969 19.019531 "/>
<path style=" stroke:none;fill-rule:nonzero;fill:rgb(100%,67.058825%,56.862748%);fill-opacity:1;" d="M 29.414062 5.441406 C 29.972656 6 29.695312 7.1875 28.789062 8.089844 C 27.886719 8.996094 26.699219 9.273438 26.140625 8.714844 C 25.582031 8.15625 25.863281 6.972656 26.765625 6.066406 C 27.671875 5.164062 28.855469 4.882812 29.414062 5.441406 Z M 29.414062 5.441406 "/>
<path style=" stroke:none;fill-rule:nonzero;fill:rgb(90.196079%,29.019609%,9.803922%);fill-opacity:1;" d="M 29.105469 11.082031 C 28.003906 11.082031 27.121094 11.96875 27.121094 13.066406 C 27.121094 14.167969 28.003906 15.050781 29.105469 15.050781 L 30.03125 15.050781 C 29.863281 14.46875 29.765625 13.792969 29.765625 13.066406 C 29.765625 12.34375 29.863281 11.667969 30.03125 11.082031 Z M 33.46875 11.082031 C 33.636719 11.667969 33.734375 12.34375 33.734375 13.066406 C 33.734375 13.792969 33.636719 14.46875 33.46875 15.050781 L 34.394531 15.050781 C 35.496094 15.050781 36.378906 14.167969 36.378906 13.066406 C 36.378906 11.96875 35.496094 11.082031 34.394531 11.082031 Z M 33.46875 11.082031 "/>
<path style=" stroke:none;fill-rule:nonzero;fill:rgb(25.882354%,25.882354%,25.882354%);fill-opacity:1;" d="M 2.644531 24.3125 L 60.855469 24.3125 L 60.855469 29.605469 L 2.644531 29.605469 Z M 2.644531 24.3125 "/>
<path style=" stroke:none;fill-rule:nonzero;fill:rgb(38.039216%,38.039216%,38.039216%);fill-opacity:1;" d="M 51.164062 38.203125 C 50.773438 38.546875 50.488281 39.003906 50.351562 39.527344 L 60.769531 39.527344 C 60.636719 39.003906 60.351562 38.546875 59.960938 38.203125 Z M 50.269531 40.847656 L 50.269531 42.171875 L 60.855469 42.171875 L 60.855469 40.847656 Z M 50.269531 43.496094 L 50.269531 44.816406 L 60.855469 44.816406 L 60.855469 43.496094 Z M 50.269531 46.140625 L 50.269531 47.464844 L 60.855469 47.464844 L 60.855469 46.140625 Z M 50.269531 48.785156 L 50.269531 50.109375 L 60.855469 50.109375 L 60.855469 48.785156 Z M 50.269531 51.433594 L 50.269531 52.753906 L 60.855469 52.753906 L 60.855469 51.433594 Z M 50.269531 54.078125 L 50.269531 55.402344 L 60.855469 55.402344 L 60.855469 54.078125 Z M 50.269531 56.722656 L 50.269531 58.046875 L 60.855469 58.046875 L 60.855469 56.722656 Z M 50.351562 59.371094 C 50.488281 59.890625 50.773438 60.347656 51.164062 60.691406 L 59.960938 60.691406 C 60.351562 60.347656 60.636719 59.890625 60.769531 59.371094 Z M 50.351562 59.371094 "/>
<path style=" stroke:none;fill-rule:nonzero;fill:rgb(38.039216%,38.039216%,38.039216%);fill-opacity:1;" d="M 3.539062 38.203125 C 3.148438 38.546875 2.863281 39.003906 2.730469 39.527344 L 13.148438 39.527344 C 13.011719 39.003906 12.726562 38.546875 12.335938 38.203125 Z M 2.644531 40.847656 L 2.644531 42.171875 L 13.230469 42.171875 L 13.230469 40.847656 Z M 2.644531 43.496094 L 2.644531 44.816406 L 13.230469 44.816406 L 13.230469 43.496094 Z M 2.644531 46.140625 L 2.644531 47.464844 L 13.230469 47.464844 L 13.230469 46.140625 Z M 2.644531 48.785156 L 2.644531 50.109375 L 13.230469 50.109375 L 13.230469 48.785156 Z M 2.644531 51.433594 L 2.644531 52.753906 L 13.230469 52.753906 L 13.230469 51.433594 Z M 2.644531 54.078125 L 2.644531 55.402344 L 13.230469 55.402344 L 13.230469 54.078125 Z M 2.644531 56.722656 L 2.644531 58.046875 L 13.230469 58.046875 L 13.230469 56.722656 Z M 2.730469 59.371094 C 2.863281 59.890625 3.148438 60.347656 3.539062 60.691406 L 12.335938 60.691406 C 12.726562 60.347656 13.011719 59.890625 13.148438 59.371094 Z M 2.730469 59.371094 "/>
</g>
</svg>
