<?xml version="1.0" encoding="UTF-8"?>
<svg xmlns="http://www.w3.org/2000/svg" xmlns:xlink="http://www.w3.org/1999/xlink" width="64px" height="64px" viewBox="0 0 64 64" version="1.1">
<g id="surface1">
<path style=" stroke:none;fill-rule:nonzero;fill:rgb(25.882354%,25.882354%,25.882354%);fill-opacity:1;" d="M 30.425781 3.144531 C 29.695312 3.144531 29.105469 3.734375 29.105469 4.46875 L 29.105469 25.863281 L 13.976562 10.734375 C 13.457031 10.214844 12.625 10.214844 12.105469 10.734375 L 10.234375 12.605469 C 9.714844 13.125 9.714844 13.957031 10.234375 14.476562 L 25.363281 29.605469 L 3.96875 29.605469 C 3.234375 29.605469 2.644531 30.195312 2.644531 30.925781 L 2.644531 33.574219 C 2.644531 34.304688 3.234375 34.894531 3.96875 34.894531 L 25.363281 34.894531 L 10.234375 50.023438 C 9.714844 50.542969 9.714844 51.375 10.234375 51.894531 L 12.105469 53.765625 C 12.625 54.285156 13.457031 54.285156 13.976562 53.765625 L 29.105469 38.636719 L 29.105469 60.03125 C 29.105469 60.765625 29.695312 61.355469 30.425781 61.355469 L 33.074219 61.355469 C 33.804688 61.355469 34.394531 60.765625 34.394531 60.03125 L 34.394531 38.636719 L 49.523438 53.765625 C 50.042969 54.285156 50.875 54.285156 51.394531 53.765625 L 53.265625 51.894531 C 53.785156 51.375 53.785156 50.542969 53.265625 50.023438 L 38.136719 34.894531 L 59.53125 34.894531 C 60.265625 34.894531 60.855469 34.304688 60.855469 33.574219 L 60.855469 30.925781 C 60.855469 30.195312 60.265625 29.605469 59.53125 29.605469 L 38.136719 29.605469 L 53.265625 14.476562 C 53.785156 13.957031 53.785156 13.125 53.265625 12.605469 L 51.394531 10.734375 C 50.875 10.214844 50.042969 10.214844 49.523438 10.734375 L 34.394531 25.863281 L 34.394531 4.46875 C 34.394531 3.734375 33.804688 3.144531 33.074219 3.144531 Z M 30.425781 3.144531 "/>
<path style=" stroke:none;fill-rule:nonzero;fill:rgb(45.882353%,45.882353%,45.882353%);fill-opacity:1;" d="M 31.75 8.4375 C 44.902344 8.4375 55.5625 19.097656 55.5625 32.25 C 55.5625 45.402344 44.902344 56.0625 31.75 56.0625 C 18.597656 56.0625 7.9375 45.402344 7.9375 32.25 C 7.9375 19.097656 18.597656 8.4375 31.75 8.4375 Z M 31.75 8.4375 "/>
<path style=" stroke:none;fill-rule:nonzero;fill:rgb(25.882354%,25.882354%,25.882354%);fill-opacity:1;" d="M 31.75 29.605469 C 33.210938 29.605469 34.394531 30.789062 34.394531 32.25 C 34.394531 33.710938 33.210938 34.894531 31.75 34.894531 C 30.289062 34.894531 29.105469 33.710938 29.105469 32.25 C 29.105469 30.789062 30.289062 29.605469 31.75 29.605469 Z M 31.75 29.605469 "/>
</g>
</svg>
