
<svg xmlns="http://www.w3.org/2000/svg" xmlns:xlink="http://www.w3.org/1999/xlink" width="64px" height="64px" viewBox="0 0 64 64" version="1.1">
<g id="surface1">
<path style=" stroke:none;fill-rule:nonzero;fill:rgb(100%,59.607846%,0%);fill-opacity:1;" d="M 34.925781 2.644531 C 34.746094 2.621094 34.578125 2.75 34.554688 2.929688 L 34.511719 3.257812 C 34.488281 3.441406 34.613281 3.605469 34.796875 3.628906 L 36.109375 3.804688 C 36.289062 3.828125 36.453125 3.699219 36.480469 3.519531 L 36.523438 3.191406 C 36.546875 3.011719 36.421875 2.84375 36.238281 2.820312 Z M 28.742188 2.640625 C 28.707031 2.636719 28.675781 2.632812 28.640625 2.636719 L 27.328125 2.808594 C 27.148438 2.832031 27.019531 3 27.042969 3.179688 L 27.085938 3.507812 C 27.109375 3.691406 27.277344 3.816406 27.457031 3.792969 L 28.769531 3.621094 C 28.949219 3.597656 29.078125 3.433594 29.054688 3.25 L 29.011719 2.921875 C 28.992188 2.777344 28.878906 2.664062 28.742188 2.640625 Z M 42.210938 4.429688 C 42.070312 4.417969 41.933594 4.496094 41.875 4.632812 L 41.75 4.9375 C 41.679688 5.105469 41.757812 5.300781 41.925781 5.371094 L 43.148438 5.878906 C 43.320312 5.949219 43.511719 5.867188 43.582031 5.699219 L 43.707031 5.394531 C 43.777344 5.226562 43.699219 5.03125 43.53125 4.960938 L 42.308594 4.453125 C 42.277344 4.441406 42.242188 4.433594 42.210938 4.429688 Z M 21.417969 4.40625 C 21.363281 4.398438 21.308594 4.40625 21.253906 4.429688 L 20.03125 4.933594 C 19.863281 5.003906 19.78125 5.195312 19.851562 5.367188 L 19.980469 5.671875 C 20.050781 5.839844 20.242188 5.921875 20.410156 5.851562 L 21.632812 5.347656 C 21.804688 5.277344 21.882812 5.085938 21.8125 4.914062 L 21.6875 4.609375 C 21.640625 4.492188 21.53125 4.417969 21.417969 4.40625 Z M 48.820312 8.046875 C 48.703125 8.027344 48.582031 8.070312 48.507812 8.171875 L 48.304688 8.433594 C 48.191406 8.578125 48.21875 8.785156 48.367188 8.898438 L 49.414062 9.703125 C 49.558594 9.816406 49.765625 9.789062 49.878906 9.644531 L 50.078125 9.382812 C 50.191406 9.238281 50.164062 9.03125 50.019531 8.917969 L 48.96875 8.109375 C 48.925781 8.078125 48.875 8.054688 48.820312 8.046875 Z M 14.828125 8.003906 C 14.746094 7.996094 14.65625 8.015625 14.585938 8.070312 L 13.535156 8.875 C 13.390625 8.988281 13.363281 9.191406 13.472656 9.339844 L 13.671875 9.601562 C 13.785156 9.746094 13.992188 9.773438 14.136719 9.664062 L 15.1875 8.859375 C 15.332031 8.746094 15.359375 8.539062 15.25 8.394531 L 15.046875 8.132812 C 14.992188 8.058594 14.914062 8.015625 14.828125 8.003906 Z M 54.238281 13.242188 C 54.15625 13.230469 54.066406 13.25 53.996094 13.304688 L 53.730469 13.507812 C 53.585938 13.617188 53.558594 13.824219 53.671875 13.972656 L 54.476562 15.023438 C 54.585938 15.167969 54.792969 15.195312 54.9375 15.082031 L 55.199219 14.882812 C 55.347656 14.769531 55.375 14.5625 55.261719 14.417969 L 54.457031 13.367188 C 54.402344 13.296875 54.324219 13.253906 54.238281 13.242188 Z M 9.398438 13.191406 C 9.28125 13.171875 9.160156 13.214844 9.085938 13.316406 L 8.277344 14.363281 C 8.164062 14.507812 8.191406 14.714844 8.339844 14.828125 L 8.601562 15.027344 C 8.746094 15.140625 8.953125 15.113281 9.0625 14.96875 L 9.871094 13.917969 C 9.980469 13.773438 9.957031 13.566406 9.808594 13.457031 L 9.546875 13.253906 C 9.503906 13.21875 9.449219 13.199219 9.398438 13.191406 Z M 58.128906 19.664062 C 58.074219 19.65625 58.019531 19.664062 57.96875 19.6875 L 57.660156 19.8125 C 57.492188 19.882812 57.414062 20.074219 57.480469 20.246094 L 57.988281 21.46875 C 58.058594 21.636719 58.25 21.71875 58.417969 21.648438 L 58.726562 21.519531 C 58.894531 21.449219 58.972656 21.257812 58.902344 21.089844 L 58.398438 19.867188 C 58.351562 19.75 58.246094 19.675781 58.128906 19.664062 Z M 5.464844 19.601562 C 5.324219 19.585938 5.183594 19.667969 5.128906 19.804688 L 4.621094 21.023438 C 4.550781 21.195312 4.628906 21.386719 4.800781 21.457031 L 5.105469 21.585938 C 5.273438 21.65625 5.464844 21.574219 5.535156 21.40625 L 6.042969 20.183594 C 6.113281 20.015625 6.035156 19.824219 5.867188 19.753906 L 5.558594 19.625 C 5.527344 19.613281 5.496094 19.605469 5.464844 19.601562 Z M 60.253906 26.878906 C 60.222656 26.875 60.1875 26.875 60.152344 26.878906 L 59.824219 26.921875 C 59.644531 26.945312 59.515625 27.109375 59.539062 27.292969 L 59.710938 28.601562 C 59.734375 28.785156 59.898438 28.910156 60.082031 28.886719 L 60.410156 28.84375 C 60.589844 28.820312 60.71875 28.65625 60.695312 28.472656 L 60.523438 27.164062 C 60.503906 27.015625 60.390625 26.902344 60.253906 26.878906 Z M 3.359375 26.8125 C 3.175781 26.785156 3.011719 26.914062 2.988281 27.09375 L 2.8125 28.40625 C 2.789062 28.589844 2.914062 28.753906 3.097656 28.777344 L 3.425781 28.820312 C 3.605469 28.847656 3.773438 28.71875 3.796875 28.539062 L 3.96875 27.226562 C 3.992188 27.042969 3.867188 26.878906 3.6875 26.855469 Z M 60.074219 34.34375 C 59.894531 34.320312 59.726562 34.449219 59.703125 34.628906 L 59.53125 35.941406 C 59.507812 36.121094 59.632812 36.289062 59.8125 36.3125 L 60.140625 36.355469 C 60.324219 36.378906 60.488281 36.253906 60.511719 36.070312 L 60.6875 34.761719 C 60.710938 34.578125 60.585938 34.414062 60.402344 34.390625 Z M 3.515625 34.28125 C 3.484375 34.277344 3.453125 34.273438 3.417969 34.277344 L 3.089844 34.320312 C 2.910156 34.347656 2.78125 34.511719 2.804688 34.691406 L 2.976562 36.003906 C 3 36.1875 3.164062 36.3125 3.347656 36.289062 L 3.675781 36.246094 C 3.855469 36.222656 3.984375 36.058594 3.960938 35.875 L 3.789062 34.5625 C 3.769531 34.417969 3.65625 34.304688 3.515625 34.28125 Z M 58.300781 41.558594 C 58.160156 41.546875 58.019531 41.625 57.964844 41.761719 L 57.457031 42.984375 C 57.386719 43.152344 57.464844 43.34375 57.632812 43.414062 L 57.941406 43.542969 C 58.109375 43.613281 58.300781 43.53125 58.371094 43.363281 L 58.878906 42.140625 C 58.949219 41.972656 58.871094 41.78125 58.699219 41.710938 L 58.394531 41.582031 C 58.363281 41.570312 58.332031 41.5625 58.300781 41.558594 Z M 5.242188 41.496094 C 5.1875 41.492188 5.132812 41.5 5.082031 41.519531 L 4.773438 41.644531 C 4.605469 41.714844 4.527344 41.910156 4.597656 42.078125 L 5.101562 43.300781 C 5.171875 43.46875 5.363281 43.550781 5.53125 43.480469 L 5.839844 43.355469 C 6.007812 43.285156 6.085938 43.09375 6.019531 42.921875 L 5.511719 41.699219 C 5.464844 41.582031 5.359375 41.507812 5.242188 41.496094 Z M 54.75 48.074219 C 54.632812 48.054688 54.511719 48.097656 54.4375 48.199219 L 53.628906 49.246094 C 53.519531 49.394531 53.542969 49.601562 53.691406 49.710938 L 53.953125 49.914062 C 54.097656 50.023438 54.304688 49.996094 54.414062 49.851562 L 55.222656 48.804688 C 55.335938 48.660156 55.308594 48.453125 55.160156 48.339844 L 54.898438 48.136719 C 54.855469 48.105469 54.804688 48.082031 54.75 48.074219 Z M 8.804688 48.019531 C 8.722656 48.007812 8.632812 48.027344 8.5625 48.085938 L 8.300781 48.285156 C 8.152344 48.398438 8.125 48.601562 8.238281 48.75 L 9.042969 49.800781 C 9.152344 49.945312 9.359375 49.972656 9.503906 49.859375 L 9.769531 49.660156 C 9.914062 49.546875 9.941406 49.339844 9.828125 49.195312 L 9.023438 48.144531 C 8.96875 48.074219 8.890625 48.03125 8.804688 48.019531 Z M 49.605469 53.4375 C 49.523438 53.425781 49.433594 53.449219 49.363281 53.503906 L 48.3125 54.308594 C 48.167969 54.417969 48.140625 54.625 48.25 54.773438 L 48.453125 55.035156 C 48.5625 55.179688 48.769531 55.207031 48.914062 55.097656 L 49.964844 54.292969 C 50.109375 54.179688 50.136719 53.972656 50.027344 53.828125 L 49.828125 53.566406 C 49.769531 53.492188 49.691406 53.449219 49.605469 53.4375 Z M 13.9375 53.398438 C 13.820312 53.378906 13.699219 53.421875 13.621094 53.523438 L 13.421875 53.785156 C 13.308594 53.929688 13.335938 54.136719 13.480469 54.25 L 14.53125 55.054688 C 14.675781 55.167969 14.882812 55.140625 14.992188 54.996094 L 15.195312 54.734375 C 15.308594 54.589844 15.28125 54.382812 15.132812 54.269531 L 14.085938 53.464844 C 14.039062 53.429688 13.988281 53.40625 13.9375 53.398438 Z M 43.25 57.292969 C 43.195312 57.285156 43.140625 57.292969 43.089844 57.316406 L 41.867188 57.820312 C 41.695312 57.890625 41.617188 58.082031 41.6875 58.253906 L 41.8125 58.558594 C 41.882812 58.726562 42.074219 58.808594 42.246094 58.738281 L 43.46875 58.234375 C 43.636719 58.164062 43.71875 57.96875 43.648438 57.800781 L 43.519531 57.496094 C 43.472656 57.378906 43.367188 57.304688 43.25 57.292969 Z M 20.253906 57.265625 C 20.113281 57.25 19.976562 57.332031 19.917969 57.46875 L 19.792969 57.773438 C 19.722656 57.941406 19.800781 58.136719 19.96875 58.207031 L 21.191406 58.714844 C 21.359375 58.785156 21.554688 58.703125 21.625 58.535156 L 21.75 58.230469 C 21.820312 58.058594 21.742188 57.867188 21.574219 57.796875 L 20.351562 57.289062 C 20.320312 57.277344 20.285156 57.269531 20.253906 57.265625 Z M 36.140625 59.375 C 36.109375 59.371094 36.078125 59.371094 36.042969 59.375 L 34.730469 59.546875 C 34.550781 59.570312 34.421875 59.734375 34.445312 59.914062 L 34.488281 60.242188 C 34.511719 60.425781 34.675781 60.550781 34.859375 60.527344 L 36.171875 60.359375 C 36.351562 60.335938 36.480469 60.167969 36.457031 59.988281 L 36.414062 59.660156 C 36.394531 59.511719 36.28125 59.398438 36.140625 59.375 Z M 27.390625 59.363281 C 27.210938 59.339844 27.046875 59.464844 27.019531 59.648438 L 26.976562 59.976562 C 26.953125 60.15625 27.078125 60.324219 27.261719 60.347656 L 28.574219 60.519531 C 28.753906 60.546875 28.921875 60.417969 28.945312 60.238281 L 28.988281 59.910156 C 29.011719 59.726562 28.886719 59.5625 28.703125 59.539062 Z M 27.390625 59.363281 "/>
<path style=" stroke:none;fill-rule:nonzero;fill:rgb(100%,59.607846%,0%);fill-opacity:1;" d="M 31.089844 2.480469 C 30.90625 2.480469 30.757812 2.628906 30.757812 2.808594 L 30.757812 3.140625 C 30.757812 3.324219 30.90625 3.472656 31.089844 3.472656 L 32.410156 3.472656 C 32.59375 3.472656 32.742188 3.324219 32.742188 3.140625 L 32.742188 2.808594 C 32.742188 2.628906 32.59375 2.480469 32.410156 2.480469 Z M 24.957031 3.289062 C 24.921875 3.289062 24.890625 3.292969 24.855469 3.300781 L 23.578125 3.640625 C 23.402344 3.691406 23.296875 3.871094 23.34375 4.046875 L 23.429688 4.367188 C 23.476562 4.542969 23.65625 4.648438 23.835938 4.601562 L 25.113281 4.257812 C 25.289062 4.210938 25.394531 4.03125 25.347656 3.851562 L 25.261719 3.535156 C 25.222656 3.390625 25.097656 3.292969 24.957031 3.289062 Z M 38.542969 3.289062 C 38.402344 3.292969 38.277344 3.390625 38.238281 3.535156 L 38.152344 3.851562 C 38.105469 4.03125 38.210938 4.210938 38.386719 4.257812 L 39.664062 4.601562 C 39.84375 4.648438 40.023438 4.542969 40.070312 4.367188 L 40.15625 4.046875 C 40.203125 3.871094 40.097656 3.691406 39.921875 3.640625 L 38.644531 3.300781 C 38.609375 3.292969 38.578125 3.289062 38.542969 3.289062 Z M 17.925781 6.003906 C 17.875 6.003906 17.820312 6.019531 17.769531 6.046875 L 16.625 6.710938 C 16.464844 6.800781 16.414062 7.003906 16.503906 7.160156 L 16.667969 7.449219 C 16.761719 7.605469 16.960938 7.660156 17.121094 7.570312 L 18.265625 6.90625 C 18.425781 6.816406 18.480469 6.613281 18.386719 6.457031 L 18.222656 6.167969 C 18.160156 6.058594 18.042969 6 17.925781 6.003906 Z M 45.574219 6.003906 C 45.457031 6 45.339844 6.058594 45.277344 6.167969 L 45.113281 6.457031 C 45.019531 6.613281 45.074219 6.816406 45.234375 6.90625 L 46.378906 7.570312 C 46.539062 7.660156 46.738281 7.605469 46.832031 7.449219 L 46.996094 7.160156 C 47.085938 7.003906 47.035156 6.800781 46.875 6.710938 L 45.730469 6.046875 C 45.679688 6.019531 45.625 6.003906 45.574219 6.003906 Z M 11.871094 10.4375 C 11.789062 10.4375 11.703125 10.472656 11.636719 10.535156 L 10.703125 11.472656 C 10.574219 11.601562 10.574219 11.808594 10.703125 11.9375 L 10.9375 12.171875 C 11.066406 12.304688 11.273438 12.304688 11.402344 12.171875 L 12.339844 11.238281 C 12.46875 11.109375 12.46875 10.898438 12.339844 10.769531 L 12.105469 10.535156 C 12.039062 10.472656 11.957031 10.4375 11.871094 10.4375 Z M 51.628906 10.4375 C 51.542969 10.4375 51.460938 10.472656 51.394531 10.535156 L 51.160156 10.769531 C 51.03125 10.898438 51.03125 11.109375 51.160156 11.238281 L 52.097656 12.171875 C 52.226562 12.304688 52.433594 12.304688 52.5625 12.171875 L 52.796875 11.9375 C 52.925781 11.808594 52.925781 11.601562 52.796875 11.472656 L 51.863281 10.535156 C 51.796875 10.472656 51.710938 10.4375 51.628906 10.4375 Z M 7.171875 16.292969 C 7.054688 16.289062 6.9375 16.351562 6.875 16.457031 L 6.214844 17.605469 C 6.121094 17.761719 6.175781 17.964844 6.335938 18.054688 L 6.621094 18.222656 C 6.78125 18.3125 6.980469 18.257812 7.074219 18.101562 L 7.734375 16.953125 C 7.828125 16.796875 7.773438 16.59375 7.613281 16.503906 L 7.328125 16.335938 C 7.277344 16.308594 7.222656 16.292969 7.171875 16.292969 Z M 56.328125 16.292969 C 56.277344 16.292969 56.222656 16.308594 56.171875 16.335938 L 55.886719 16.503906 C 55.726562 16.59375 55.671875 16.796875 55.765625 16.953125 L 56.425781 18.101562 C 56.519531 18.257812 56.71875 18.3125 56.878906 18.222656 L 57.164062 18.054688 C 57.324219 17.964844 57.378906 17.761719 57.285156 17.605469 L 56.625 16.457031 C 56.5625 16.351562 56.445312 16.289062 56.328125 16.292969 Z M 4.113281 23.167969 C 3.972656 23.171875 3.847656 23.269531 3.808594 23.410156 L 3.464844 24.691406 C 3.417969 24.867188 3.523438 25.046875 3.699219 25.09375 L 4.019531 25.179688 C 4.195312 25.226562 4.378906 25.125 4.425781 24.945312 L 4.765625 23.667969 C 4.816406 23.492188 4.710938 23.3125 4.535156 23.265625 L 4.214844 23.179688 C 4.179688 23.167969 4.148438 23.164062 4.113281 23.167969 Z M 59.386719 23.167969 C 59.351562 23.164062 59.320312 23.167969 59.285156 23.179688 L 58.964844 23.265625 C 58.789062 23.3125 58.683594 23.492188 58.734375 23.667969 L 59.074219 24.945312 C 59.121094 25.125 59.304688 25.226562 59.480469 25.179688 L 59.800781 25.09375 C 59.976562 25.046875 60.082031 24.867188 60.035156 24.691406 L 59.691406 23.410156 C 59.652344 23.269531 59.527344 23.171875 59.386719 23.167969 Z M 2.976562 30.589844 C 2.792969 30.589844 2.644531 30.738281 2.644531 30.921875 L 2.644531 32.246094 C 2.644531 32.429688 2.792969 32.574219 2.976562 32.574219 L 3.308594 32.574219 C 3.492188 32.574219 3.636719 32.429688 3.636719 32.246094 L 3.636719 30.921875 C 3.636719 30.738281 3.492188 30.589844 3.308594 30.589844 Z M 60.191406 30.589844 C 60.007812 30.589844 59.863281 30.738281 59.863281 30.921875 L 59.863281 32.246094 C 59.863281 32.429688 60.007812 32.574219 60.191406 32.574219 L 60.523438 32.574219 C 60.707031 32.574219 60.855469 32.429688 60.855469 32.246094 L 60.855469 30.921875 C 60.855469 30.738281 60.707031 30.589844 60.523438 30.589844 Z M 4.117188 37.976562 C 4.085938 37.972656 4.054688 37.976562 4.019531 37.988281 L 3.699219 38.074219 C 3.523438 38.121094 3.417969 38.300781 3.464844 38.476562 L 3.808594 39.753906 C 3.855469 39.933594 4.035156 40.035156 4.214844 39.988281 L 4.535156 39.902344 C 4.710938 39.855469 4.816406 39.675781 4.765625 39.5 L 4.425781 38.21875 C 4.386719 38.078125 4.257812 37.980469 4.117188 37.976562 Z M 59.382812 37.976562 C 59.242188 37.980469 59.113281 38.078125 59.074219 38.21875 L 58.734375 39.5 C 58.683594 39.675781 58.789062 39.855469 58.964844 39.902344 L 59.285156 39.988281 C 59.464844 40.035156 59.644531 39.933594 59.691406 39.753906 L 60.035156 38.476562 C 60.082031 38.300781 59.976562 38.121094 59.800781 38.074219 L 59.480469 37.988281 C 59.445312 37.976562 59.414062 37.972656 59.382812 37.976562 Z M 6.777344 44.902344 C 6.726562 44.902344 6.671875 44.917969 6.621094 44.945312 L 6.335938 45.109375 C 6.175781 45.203125 6.121094 45.402344 6.214844 45.5625 L 6.875 46.707031 C 6.96875 46.867188 7.167969 46.921875 7.328125 46.828125 L 7.613281 46.664062 C 7.773438 46.574219 7.828125 46.371094 7.734375 46.210938 L 7.074219 45.066406 C 7.011719 44.957031 6.894531 44.898438 6.777344 44.902344 Z M 56.722656 44.902344 C 56.605469 44.898438 56.488281 44.957031 56.425781 45.066406 L 55.765625 46.210938 C 55.671875 46.371094 55.726562 46.574219 55.886719 46.664062 L 56.171875 46.828125 C 56.332031 46.921875 56.53125 46.867188 56.625 46.707031 L 57.285156 45.5625 C 57.378906 45.402344 57.324219 45.203125 57.164062 45.109375 L 56.878906 44.945312 C 56.828125 44.917969 56.773438 44.902344 56.722656 44.902344 Z M 11.171875 50.898438 C 11.085938 50.898438 11 50.929688 10.9375 50.992188 L 10.703125 51.226562 C 10.574219 51.359375 10.574219 51.566406 10.703125 51.695312 L 11.636719 52.632812 C 11.765625 52.761719 11.976562 52.761719 12.105469 52.632812 L 12.339844 52.398438 C 12.46875 52.269531 12.46875 52.058594 12.339844 51.929688 L 11.402344 50.992188 C 11.339844 50.929688 11.253906 50.898438 11.171875 50.898438 Z M 52.328125 50.898438 C 52.246094 50.898438 52.160156 50.929688 52.097656 50.992188 L 51.160156 51.929688 C 51.03125 52.058594 51.03125 52.269531 51.160156 52.398438 L 51.394531 52.632812 C 51.523438 52.761719 51.734375 52.761719 51.863281 52.632812 L 52.796875 51.695312 C 52.925781 51.566406 52.925781 51.359375 52.796875 51.226562 L 52.5625 50.992188 C 52.5 50.929688 52.414062 50.898438 52.328125 50.898438 Z M 16.964844 55.554688 C 16.847656 55.550781 16.730469 55.609375 16.667969 55.71875 L 16.503906 56.007812 C 16.414062 56.164062 16.464844 56.367188 16.625 56.457031 L 17.769531 57.121094 C 17.929688 57.210938 18.132812 57.15625 18.222656 57 L 18.386719 56.710938 C 18.480469 56.554688 18.425781 56.351562 18.265625 56.261719 L 17.121094 55.597656 C 17.070312 55.570312 17.019531 55.554688 16.964844 55.554688 Z M 46.535156 55.554688 C 46.480469 55.554688 46.429688 55.570312 46.378906 55.597656 L 45.234375 56.261719 C 45.074219 56.351562 45.019531 56.554688 45.113281 56.710938 L 45.277344 57 C 45.367188 57.15625 45.570312 57.210938 45.730469 57.121094 L 46.875 56.457031 C 47.035156 56.367188 47.085938 56.164062 46.996094 56.007812 L 46.832031 55.71875 C 46.769531 55.609375 46.652344 55.550781 46.535156 55.554688 Z M 23.734375 58.554688 C 23.59375 58.5625 23.46875 58.65625 23.429688 58.800781 L 23.34375 59.121094 C 23.296875 59.296875 23.402344 59.476562 23.578125 59.523438 L 24.855469 59.867188 C 25.035156 59.914062 25.214844 59.808594 25.261719 59.632812 L 25.347656 59.3125 C 25.394531 59.136719 25.289062 58.957031 25.113281 58.910156 L 23.835938 58.566406 C 23.800781 58.558594 23.769531 58.554688 23.734375 58.554688 Z M 39.765625 58.554688 C 39.730469 58.554688 39.699219 58.558594 39.664062 58.566406 L 38.386719 58.910156 C 38.210938 58.957031 38.105469 59.136719 38.152344 59.3125 L 38.238281 59.632812 C 38.285156 59.808594 38.464844 59.914062 38.644531 59.867188 L 39.921875 59.523438 C 40.097656 59.476562 40.203125 59.296875 40.15625 59.121094 L 40.070312 58.800781 C 40.03125 58.65625 39.90625 58.5625 39.765625 58.554688 Z M 31.089844 59.695312 C 30.90625 59.695312 30.757812 59.84375 30.757812 60.027344 L 30.757812 60.355469 C 30.757812 60.539062 30.90625 60.6875 31.089844 60.6875 L 32.410156 60.6875 C 32.59375 60.6875 32.742188 60.539062 32.742188 60.355469 L 32.742188 60.027344 C 32.742188 59.84375 32.59375 59.695312 32.410156 59.695312 Z M 31.089844 59.695312 "/>
<path style=" stroke:none;fill-rule:nonzero;fill:rgb(100%,65.490198%,14.901961%);fill-opacity:1;" d="M 31.75 2.808594 C 47.640625 2.808594 60.523438 15.691406 60.523438 31.582031 C 60.523438 47.476562 47.640625 60.355469 31.75 60.355469 C 15.859375 60.355469 2.976562 47.476562 2.976562 31.582031 C 2.976562 15.691406 15.859375 2.808594 31.75 2.808594 Z M 31.75 2.808594 "/>
<path style=" stroke:none;fill-rule:nonzero;fill:rgb(100%,80.000001%,50.196081%);fill-opacity:1;" d="M 31.75 3.800781 C 47.09375 3.800781 59.53125 16.242188 59.53125 31.582031 C 59.53125 46.925781 47.09375 59.363281 31.75 59.363281 C 16.40625 59.363281 3.96875 46.925781 3.96875 31.582031 C 3.96875 16.242188 16.40625 3.800781 31.75 3.800781 Z M 31.75 3.800781 "/>
<path style=" stroke:none;fill-rule:nonzero;fill:rgb(100%,62.7451%,0%);fill-opacity:1;" d="M 31.75 9.09375 C 44.171875 9.09375 54.238281 19.164062 54.238281 31.582031 C 54.238281 44.003906 44.171875 54.074219 31.75 54.074219 C 19.328125 54.074219 9.261719 44.003906 9.261719 31.582031 C 9.261719 19.164062 19.328125 9.09375 31.75 9.09375 Z M 31.75 9.09375 "/>
<path style=" stroke:none;fill-rule:nonzero;fill:rgb(100%,59.607846%,0%);fill-opacity:1;" d="M 31.75 9.753906 C 43.804688 9.753906 53.578125 19.527344 53.578125 31.582031 C 53.578125 43.640625 43.804688 53.410156 31.75 53.410156 C 19.695312 53.410156 9.921875 43.640625 9.921875 31.582031 C 9.921875 19.527344 19.695312 9.753906 31.75 9.753906 Z M 31.75 9.753906 "/>
<path style=" stroke:none;fill-rule:nonzero;fill:rgb(100%,80.000001%,50.196081%);fill-opacity:1;" d="M 23.152344 44.980469 L 23.152344 18.519531 L 27.121094 18.519531 L 27.121094 44.980469 Z M 23.152344 44.980469 "/>
<path style=" stroke:none;fill-rule:nonzero;fill:rgb(100%,80.000001%,50.196081%);fill-opacity:1;" d="M 25.796875 29.105469 L 36.378906 18.519531 L 41.671875 18.519531 L 25.796875 35.71875 Z M 25.796875 29.105469 "/>
<path style=" stroke:none;fill-rule:nonzero;fill:rgb(100%,80.000001%,50.196081%);fill-opacity:1;" d="M 28.441406 33.074219 L 37.703125 44.980469 L 42.996094 44.980469 L 31.089844 29.105469 Z M 28.441406 33.074219 "/>
</g>
</svg>
