<?xml version="1.0" encoding="UTF-8"?>
<svg xmlns="http://www.w3.org/2000/svg" xmlns:xlink="http://www.w3.org/1999/xlink" width="64px" height="64px" viewBox="0 0 64 64" version="1.1">
<g id="surface1">
<path style=" stroke:none;fill-rule:nonzero;fill:rgb(100%,71.764708%,30.19608%);fill-opacity:1;" d="M 5.292969 7.113281 L 58.207031 7.113281 C 59.667969 7.113281 60.855469 8.300781 60.855469 9.761719 L 60.855469 54.738281 C 60.855469 56.199219 59.667969 57.386719 58.207031 57.386719 L 5.292969 57.386719 C 3.832031 57.386719 2.644531 56.199219 2.644531 54.738281 L 2.644531 9.761719 C 2.644531 8.300781 3.832031 7.113281 5.292969 7.113281 Z M 5.292969 7.113281 "/>
<path style=" stroke:none;fill-rule:nonzero;fill:rgb(94.117647%,38.431373%,57.254905%);fill-opacity:1;" d="M 3.511719 7.796875 C 2.980469 8.28125 2.644531 8.980469 2.644531 9.761719 L 2.644531 54.738281 C 2.644531 56.207031 3.824219 57.386719 5.292969 57.386719 L 58.207031 57.386719 C 58.878906 57.386719 59.488281 57.136719 59.953125 56.730469 L 16.078125 17.699219 Z M 3.511719 7.796875 "/>
<path style=" stroke:none;fill-rule:nonzero;fill:rgb(72.941178%,40.784314%,78.431374%);fill-opacity:1;" d="M 60.023438 7.832031 L 3.476562 56.667969 C 3.949219 57.113281 4.585938 57.386719 5.292969 57.386719 L 58.207031 57.386719 C 59.675781 57.386719 60.855469 56.207031 60.855469 54.738281 L 60.855469 9.761719 C 60.855469 9 60.535156 8.3125 60.023438 7.832031 Z M 60.023438 7.832031 "/>
<path style=" stroke:none;fill-rule:nonzero;fill:rgb(40.000001%,73.333335%,41.568628%);fill-opacity:1;" d="M 39.027344 37.542969 L 58.871094 37.542969 C 59.964844 37.542969 60.855469 38.429688 60.855469 39.527344 L 60.855469 59.371094 C 60.855469 60.464844 59.964844 61.355469 58.871094 61.355469 L 39.027344 61.355469 C 37.929688 61.355469 37.042969 60.464844 37.042969 59.371094 L 37.042969 39.527344 C 37.042969 38.429688 37.929688 37.542969 39.027344 37.542969 Z M 39.027344 37.542969 "/>
<path style=" stroke:none;fill-rule:nonzero;fill:rgb(93.333334%,93.333334%,93.333334%);fill-opacity:1;" d="M 41.011719 41.511719 L 41.011719 44.15625 C 48.339844 44.15625 54.238281 50.054688 54.238281 57.386719 L 56.886719 57.386719 C 56.886719 48.589844 49.804688 41.511719 41.011719 41.511719 Z M 41.011719 46.800781 L 41.011719 49.449219 C 45.40625 49.449219 48.949219 52.988281 48.949219 57.386719 L 51.59375 57.386719 C 51.59375 51.523438 46.875 46.800781 41.011719 46.800781 Z M 42.980469 53.417969 C 41.886719 53.417969 41.011719 54.292969 41.011719 55.386719 L 41.011719 55.417969 C 41.011719 56.507812 41.886719 57.386719 42.980469 57.386719 L 43.011719 57.386719 C 44.101562 57.386719 44.980469 56.507812 44.980469 55.417969 L 44.980469 55.386719 C 44.980469 54.292969 44.101562 53.417969 43.011719 53.417969 Z M 42.980469 53.417969 "/>
</g>
</svg>
