<?xml version="1.0" encoding="UTF-8"?>
<svg xmlns="http://www.w3.org/2000/svg" xmlns:xlink="http://www.w3.org/1999/xlink" width="64px" height="64px" viewBox="0 0 64 64" version="1.1">
<g id="surface1">
<path style=" stroke:none;fill-rule:nonzero;fill:rgb(73.725492%,66.666669%,64.313728%);fill-opacity:1;" d="M 11.945312 31.832031 C 11.238281 34.660156 11.945312 36.785156 9.117188 41.734375 C 7.699219 41.734375 5.578125 42.441406 4.164062 41.03125 C 0.625 37.492188 4.164062 30.417969 5.578125 29.003906 C 7.699219 26.882812 9.117188 27.589844 11.945312 31.832031 Z M 11.945312 31.832031 "/>
<path style=" stroke:none;fill-rule:nonzero;fill:rgb(73.725492%,66.666669%,64.313728%);fill-opacity:1;" d="M 51.554688 31.832031 C 52.261719 34.660156 51.554688 36.785156 54.382812 41.734375 C 55.800781 41.734375 57.921875 42.441406 59.335938 41.03125 C 62.871094 37.492188 59.335938 30.417969 57.921875 29.003906 C 55.800781 26.882812 54.382812 27.589844 51.554688 31.832031 Z M 51.554688 31.832031 "/>
<path style=" stroke:none;fill-rule:nonzero;fill:rgb(73.725492%,66.666669%,64.313728%);fill-opacity:1;" d="M 51.554688 31.832031 C 52.261719 34.660156 51.554688 36.785156 54.382812 41.734375 C 55.800781 41.734375 57.921875 42.441406 59.335938 41.03125 C 62.871094 37.492188 59.335938 30.417969 57.921875 29.003906 C 55.800781 26.882812 54.382812 27.589844 51.554688 31.832031 Z M 51.554688 31.832031 "/>
<path style=" stroke:none;fill-rule:nonzero;fill:rgb(63.137257%,53.333336%,49.803922%);fill-opacity:1;" d="M 52.917969 32.722656 C 53.414062 34.722656 52.917969 36.230469 54.917969 39.730469 C 55.917969 39.730469 57.421875 40.230469 58.417969 39.230469 C 60.921875 36.726562 58.417969 31.722656 57.421875 30.722656 C 55.917969 29.222656 54.917969 29.722656 52.917969 32.722656 Z M 52.917969 32.722656 "/>
<path style=" stroke:none;fill-rule:nonzero;fill:rgb(63.137257%,53.333336%,49.803922%);fill-opacity:1;" d="M 10.582031 32.722656 C 10.085938 34.722656 10.582031 36.230469 8.582031 39.730469 C 7.582031 39.730469 6.078125 40.230469 5.082031 39.230469 C 2.578125 36.726562 5.082031 31.722656 6.078125 30.722656 C 7.582031 29.222656 8.582031 29.722656 10.582031 32.722656 Z M 10.582031 32.722656 "/>
<path style=" stroke:none;fill-rule:nonzero;fill:rgb(55.29412%,43.137255%,38.82353%);fill-opacity:1;" d="M 21.167969 7.113281 C 24.472656 9.761719 25.796875 11.746094 21.617188 14.421875 C 16.78125 15.625 13.054688 18.191406 11.695312 23.34375 C 9.054688 38.910156 2.253906 41.027344 10.375 50.933594 C 16.976562 58.003906 25.652344 58.710938 31.507812 58.710938 C 37.359375 58.710938 46.035156 58.003906 52.636719 50.933594 C 60.761719 41.027344 53.957031 38.910156 51.320312 23.347656 C 49.738281 17.347656 44.949219 14.851562 38.9375 13.929688 C 39.292969 12.230469 40.480469 9.917969 42.070312 7.785156 C 35.71875 10.421875 32.585938 11.707031 34.394531 6.453125 C 32.699219 7.53125 31.535156 12.9375 28.863281 12.027344 C 27.402344 8.21875 25.796875 6.453125 21.167969 7.113281 Z M 21.167969 7.113281 "/>
<path style=" stroke:none;fill-rule:nonzero;fill:rgb(84.313726%,80.000001%,78.431374%);fill-opacity:1;" d="M 31.507812 21.222656 C 26.882812 19.101562 20.851562 16.574219 15.65625 22.640625 C 12.332031 26.792969 11.726562 30.996094 13.238281 35.128906 C 11.410156 35.722656 10.582031 36.21875 10.371094 37.492188 C 12.238281 36.550781 12.734375 36.878906 13.675781 37.492188 C 11.980469 38.292969 10.75 38.699219 9.714844 40.320312 C 10.914062 39.855469 11.339844 39.871094 11.902344 40.042969 C 10.621094 43.097656 11.179688 47.886719 13.015625 50.222656 C 16.34375 54.5 24.023438 56.621094 31.507812 56.542969 C 38.988281 56.621094 46.667969 54.5 50 50.222656 C 51.832031 47.886719 52.390625 43.097656 51.109375 40.042969 C 50.660156 38.910156 50 38.199219 49.339844 37.492188 C 50 36.785156 50.550781 36.03125 52.917969 35.886719 C 52.253906 35.558594 51.59375 35.226562 49.773438 35.128906 C 51.285156 30.996094 50.679688 26.792969 47.355469 22.640625 C 41.011719 15.714844 34.5 19.300781 31.507812 21.222656 Z M 31.507812 21.222656 "/>
<path style=" stroke:none;fill-rule:nonzero;fill:rgb(96.078432%,96.078432%,96.078432%);fill-opacity:0.995763;" d="M 20.597656 26.972656 C 22.800781 24.773438 26.070312 24.476562 27.902344 26.308594 C 29.738281 28.144531 29.441406 31.414062 27.238281 33.617188 C 25.039062 35.816406 21.769531 36.113281 19.933594 34.28125 C 18.101562 32.445312 18.398438 29.175781 20.597656 26.972656 Z M 20.597656 26.972656 "/>
<path style=" stroke:none;fill-rule:nonzero;fill:rgb(25.882354%,25.882354%,25.882354%);fill-opacity:0.995763;" d="M 24.824219 28.386719 C 25.46875 27.742188 26.515625 27.742188 27.160156 28.386719 C 27.804688 29.03125 27.804688 30.078125 27.160156 30.722656 C 26.515625 31.367188 25.46875 31.367188 24.824219 30.722656 C 24.179688 30.078125 24.179688 29.03125 24.824219 28.386719 Z M 24.824219 28.386719 "/>
<path style=" stroke:none;fill-rule:nonzero;fill:rgb(96.078432%,96.078432%,96.078432%);fill-opacity:0.995763;" d="M 42.746094 26.972656 C 40.542969 24.773438 37.273438 24.476562 35.441406 26.308594 C 33.605469 28.144531 33.902344 31.414062 36.105469 33.617188 C 38.304688 35.816406 41.574219 36.113281 43.410156 34.28125 C 45.242188 32.445312 44.945312 29.175781 42.746094 26.972656 Z M 42.746094 26.972656 "/>
<path style=" stroke:none;fill-rule:nonzero;fill:rgb(25.882354%,25.882354%,25.882354%);fill-opacity:0.995763;" d="M 38.519531 28.386719 C 37.875 27.742188 36.828125 27.742188 36.183594 28.386719 C 35.539062 29.03125 35.539062 30.078125 36.183594 30.722656 C 36.828125 31.367188 37.875 31.367188 38.519531 30.722656 C 39.164062 30.078125 39.164062 29.03125 38.519531 28.386719 Z M 38.519531 28.386719 "/>
<path style=" stroke:none;fill-rule:nonzero;fill:rgb(89.803922%,45.09804%,45.09804%);fill-opacity:1;" d="M 29.105469 47.464844 C 29.222656 47.335938 29.550781 47.453125 30 47.578125 C 30.472656 47.707031 31.046875 47.832031 31.75 47.835938 C 32.453125 47.832031 33.027344 47.707031 33.5 47.578125 C 33.949219 47.453125 34.277344 47.335938 34.394531 47.464844 C 34.507812 47.582031 34.394531 47.953125 33.929688 48.34375 C 33.464844 48.738281 32.695312 49.09375 31.75 49.085938 C 30.804688 49.09375 30.035156 48.738281 29.570312 48.34375 C 29.105469 47.953125 28.992188 47.582031 29.105469 47.464844 Z M 29.105469 47.464844 "/>
<path style=" stroke:none;fill-rule:nonzero;fill:rgb(42.745098%,29.803923%,25.490198%);fill-opacity:1;" d="M 30.039062 36.21875 C 30.285156 36.460938 30.0625 37.078125 29.546875 37.597656 C 29.03125 38.113281 28.414062 38.332031 28.167969 38.089844 C 27.925781 37.84375 28.144531 37.230469 28.664062 36.710938 C 29.179688 36.195312 29.796875 35.976562 30.039062 36.21875 Z M 30.039062 36.21875 "/>
<path style=" stroke:none;fill-rule:nonzero;fill:rgb(42.745098%,29.803923%,25.490198%);fill-opacity:1;" d="M 33.074219 36.21875 C 32.828125 36.460938 33.050781 37.078125 33.566406 37.597656 C 34.082031 38.113281 34.699219 38.332031 34.945312 38.089844 C 35.1875 37.84375 34.964844 37.230469 34.449219 36.710938 C 33.933594 36.195312 33.316406 35.976562 33.074219 36.21875 Z M 33.074219 36.21875 "/>
</g>
</svg>
