<?xml version="1.0" encoding="UTF-8"?>
<svg xmlns="http://www.w3.org/2000/svg" xmlns:xlink="http://www.w3.org/1999/xlink" width="64px" height="64px" viewBox="0 0 64 64" version="1.1">
<g id="surface1">
<path style=" stroke:none;fill-rule:nonzero;fill:rgb(61.176473%,80.000001%,39.607844%);fill-opacity:1;" d="M 5.292969 3.144531 L 58.207031 3.144531 C 59.667969 3.144531 60.855469 4.332031 60.855469 5.792969 L 60.855469 58.707031 C 60.855469 60.167969 59.667969 61.355469 58.207031 61.355469 L 5.292969 61.355469 C 3.832031 61.355469 2.644531 60.167969 2.644531 58.707031 L 2.644531 5.792969 C 2.644531 4.332031 3.832031 3.144531 5.292969 3.144531 Z M 5.292969 3.144531 "/>
<path style=" stroke:none;fill-rule:nonzero;fill:rgb(77.254903%,88.235295%,64.705884%);fill-opacity:1;" d="M 14.550781 16.253906 L 14.550781 48.003906 C 14.550781 53.867188 19.273438 58.585938 25.136719 58.585938 L 46.300781 58.585938 C 52.164062 58.585938 56.757812 53.863281 56.886719 48.003906 L 56.886719 32.128906 C 56.996094 27 52.753906 22.867188 47.625 22.867188 C 45.027344 22.867188 42.6875 23.925781 41.011719 25.636719 C 39.332031 23.925781 36.992188 22.867188 34.394531 22.867188 C 29.265625 22.867188 25.023438 27 25.136719 32.128906 L 25.136719 45.355469 L 30.425781 45.355469 L 30.425781 32.128906 C 30.425781 29.929688 32.195312 28.160156 34.394531 28.160156 C 36.59375 28.160156 38.363281 29.929688 38.363281 32.128906 L 38.363281 45.355469 L 43.65625 45.355469 L 43.65625 32.128906 C 43.65625 29.929688 45.425781 28.160156 47.625 28.160156 C 49.824219 28.160156 51.59375 29.929688 51.59375 32.128906 L 51.59375 48.003906 C 51.59375 50.933594 49.234375 53.292969 46.300781 53.292969 L 25.136719 53.292969 C 22.203125 53.292969 19.84375 50.933594 19.84375 48.003906 L 19.84375 16.253906 Z M 14.550781 16.253906 "/>
<path style=" stroke:none;fill-rule:nonzero;fill:rgb(48.627451%,70.19608%,25.882354%);fill-opacity:1;" d="M 2.644531 20.34375 L 60.855469 20.34375 L 60.855469 21.667969 L 2.644531 21.667969 Z M 2.644531 20.34375 "/>
<path style=" stroke:none;fill-rule:nonzero;fill:rgb(87.843138%,87.843138%,87.843138%);fill-opacity:1;" d="M 19.84375 26.957031 C 10.382812 26.957031 2.765625 34.574219 2.765625 44.035156 C 2.765625 53.496094 10.382812 61.113281 19.84375 61.113281 C 29.304688 61.113281 36.921875 53.496094 36.921875 44.035156 C 36.921875 34.574219 29.304688 26.957031 19.84375 26.957031 Z M 19.84375 39.378906 C 22.425781 39.378906 24.5 41.457031 24.5 44.035156 C 24.5 46.617188 22.425781 48.695312 19.84375 48.695312 C 17.261719 48.695312 15.1875 46.617188 15.1875 44.035156 C 15.1875 41.457031 17.261719 39.378906 19.84375 39.378906 Z M 19.84375 39.378906 "/>
<path style=" stroke:none;fill-rule:nonzero;fill:rgb(96.078432%,96.078432%,96.078432%);fill-opacity:1;" d="M 19.84375 28.28125 C 11.117188 28.28125 4.089844 35.308594 4.089844 44.035156 C 4.089844 52.765625 11.117188 59.789062 19.84375 59.789062 C 28.570312 59.789062 35.597656 52.765625 35.597656 44.035156 C 35.597656 35.308594 28.570312 28.28125 19.84375 28.28125 Z M 19.84375 39.535156 C 22.335938 39.535156 24.34375 41.542969 24.34375 44.035156 C 24.34375 46.53125 22.335938 48.539062 19.84375 48.539062 C 17.351562 48.539062 15.34375 46.53125 15.34375 44.035156 C 15.34375 41.542969 17.351562 39.535156 19.84375 39.535156 Z M 19.84375 39.535156 "/>
<path style=" stroke:none;fill-rule:nonzero;fill:rgb(74.117649%,74.117649%,74.117649%);fill-opacity:1;" d="M 19.84375 36.21875 C 15.511719 36.21875 12.027344 39.707031 12.027344 44.035156 C 12.027344 48.367188 15.511719 51.851562 19.84375 51.851562 C 24.175781 51.851562 27.660156 48.367188 27.660156 44.035156 C 27.660156 39.707031 24.175781 36.21875 19.84375 36.21875 Z M 19.84375 41.691406 C 21.144531 41.691406 22.1875 42.738281 22.1875 44.035156 C 22.1875 45.335938 21.144531 46.382812 19.84375 46.382812 C 18.542969 46.382812 17.5 45.335938 17.5 44.035156 C 17.5 42.738281 18.542969 41.691406 19.84375 41.691406 Z M 19.84375 41.691406 "/>
</g>
</svg>
