<?xml version="1.0" encoding="UTF-8"?>
<svg xmlns="http://www.w3.org/2000/svg" xmlns:xlink="http://www.w3.org/1999/xlink" width="64px" height="64px" viewBox="0 0 64 64" version="1.1">
<g id="surface1">
<path style=" stroke:none;fill-rule:nonzero;fill:rgb(93.333334%,93.333334%,93.333334%);fill-opacity:1;" d="M 18.519531 61.355469 L 55.5625 61.355469 C 57.027344 61.355469 58.207031 60.175781 58.207031 58.707031 L 58.207031 5.792969 C 58.207031 4.324219 57.027344 3.144531 55.5625 3.144531 L 18.519531 3.144531 Z M 18.519531 61.355469 "/>
<path style=" stroke:none;fill-rule:nonzero;fill:rgb(25.882354%,64.705884%,96.078432%);fill-opacity:1;" d="M 18.519531 61.355469 L 18.519531 3.144531 L 7.9375 3.144531 C 6.472656 3.144531 5.292969 4.324219 5.292969 5.792969 L 5.292969 58.707031 C 5.292969 60.175781 6.472656 61.355469 7.9375 61.355469 Z M 18.519531 61.355469 "/>
<path style=" stroke:none;fill-rule:nonzero;fill:rgb(87.843138%,87.843138%,87.843138%);fill-opacity:1;" d="M 26.957031 3.144531 L 18.769531 17.328125 L 40.359375 29.789062 L 52.820312 8.203125 L 44.0625 3.144531 Z M 55.699219 9.863281 L 43.234375 31.453125 L 58.207031 40.097656 L 58.207031 11.3125 Z M 18.519531 21.019531 L 18.519531 49.800781 L 26.234375 54.253906 L 38.695312 32.667969 Z M 41.574219 34.328125 L 29.109375 55.917969 L 38.527344 61.355469 L 54.753906 61.355469 L 58.207031 55.371094 L 58.207031 43.933594 Z M 41.574219 34.328125 "/>
<path style=" stroke:none;fill-rule:nonzero;fill:rgb(25.882354%,64.705884%,96.078432%);fill-opacity:1;" d="M 33.816406 32.25 C 32.945312 32.25 32.246094 32.949219 32.246094 33.820312 L 32.246094 36.960938 L 54.238281 36.960938 L 54.238281 33.820312 C 54.238281 32.949219 53.539062 32.25 52.667969 32.25 L 49.527344 32.25 L 49.527344 34.605469 C 49.527344 35.042969 49.175781 35.390625 48.742188 35.390625 L 47.171875 35.390625 C 46.734375 35.390625 46.386719 35.042969 46.386719 34.605469 L 46.386719 32.25 L 40.101562 32.25 L 40.101562 34.605469 C 40.101562 35.042969 39.75 35.390625 39.316406 35.390625 L 37.746094 35.390625 C 37.308594 35.390625 36.960938 35.042969 36.960938 34.605469 L 36.960938 32.25 Z M 32.246094 38.535156 L 32.246094 55.8125 C 32.246094 56.683594 32.945312 57.386719 33.816406 57.386719 L 52.667969 57.386719 C 53.539062 57.386719 54.238281 56.683594 54.238281 55.8125 L 54.238281 38.535156 Z M 34.996094 40.890625 L 37.351562 40.890625 C 37.570312 40.890625 37.746094 41.066406 37.746094 41.28125 L 37.746094 43.640625 C 37.746094 43.855469 37.570312 44.03125 37.351562 44.03125 L 34.996094 44.03125 C 34.777344 44.03125 34.601562 43.855469 34.601562 43.640625 L 34.601562 41.28125 C 34.601562 41.066406 34.777344 40.890625 34.996094 40.890625 Z M 39.707031 40.890625 L 42.066406 40.890625 C 42.28125 40.890625 42.457031 41.066406 42.457031 41.28125 L 42.457031 43.640625 C 42.457031 43.855469 42.28125 44.03125 42.066406 44.03125 L 39.707031 44.03125 C 39.492188 44.03125 39.316406 43.855469 39.316406 43.640625 L 39.316406 41.28125 C 39.316406 41.066406 39.492188 40.890625 39.707031 40.890625 Z M 44.421875 40.890625 L 46.777344 40.890625 C 46.996094 40.890625 47.171875 41.066406 47.171875 41.28125 L 47.171875 43.640625 C 47.171875 43.855469 46.996094 44.03125 46.777344 44.03125 L 44.421875 44.03125 C 44.203125 44.03125 44.027344 43.855469 44.027344 43.640625 L 44.027344 41.28125 C 44.027344 41.066406 44.203125 40.890625 44.421875 40.890625 Z M 49.132812 40.890625 L 51.492188 40.890625 C 51.707031 40.890625 51.882812 41.066406 51.882812 41.28125 L 51.882812 43.640625 C 51.882812 43.855469 51.707031 44.03125 51.492188 44.03125 L 49.132812 44.03125 C 48.917969 44.03125 48.742188 43.855469 48.742188 43.640625 L 48.742188 41.28125 C 48.742188 41.066406 48.917969 40.890625 49.132812 40.890625 Z M 34.996094 45.601562 L 37.351562 45.601562 C 37.570312 45.601562 37.746094 45.777344 37.746094 45.996094 L 37.746094 48.351562 C 37.746094 48.570312 37.570312 48.746094 37.351562 48.746094 L 34.996094 48.746094 C 34.777344 48.746094 34.601562 48.570312 34.601562 48.351562 L 34.601562 45.996094 C 34.601562 45.777344 34.777344 45.601562 34.996094 45.601562 Z M 39.707031 45.601562 L 42.066406 45.601562 C 42.28125 45.601562 42.457031 45.777344 42.457031 45.996094 L 42.457031 48.351562 C 42.457031 48.570312 42.28125 48.746094 42.066406 48.746094 L 39.707031 48.746094 C 39.492188 48.746094 39.316406 48.570312 39.316406 48.351562 L 39.316406 45.996094 C 39.316406 45.777344 39.492188 45.601562 39.707031 45.601562 Z M 44.421875 45.601562 L 46.777344 45.601562 C 46.996094 45.601562 47.171875 45.777344 47.171875 45.996094 L 47.171875 48.351562 C 47.171875 48.570312 46.996094 48.746094 46.777344 48.746094 L 44.421875 48.746094 C 44.203125 48.746094 44.027344 48.570312 44.027344 48.351562 L 44.027344 45.996094 C 44.027344 45.777344 44.203125 45.601562 44.421875 45.601562 Z M 49.132812 45.601562 L 51.492188 45.601562 C 51.707031 45.601562 51.882812 45.777344 51.882812 45.996094 L 51.882812 48.351562 C 51.882812 48.570312 51.707031 48.746094 51.492188 48.746094 L 49.132812 48.746094 C 48.917969 48.746094 48.742188 48.570312 48.742188 48.351562 L 48.742188 45.996094 C 48.742188 45.777344 48.917969 45.601562 49.132812 45.601562 Z M 34.996094 50.316406 L 37.351562 50.316406 C 37.570312 50.316406 37.746094 50.492188 37.746094 50.707031 L 37.746094 53.066406 C 37.746094 53.28125 37.570312 53.457031 37.351562 53.457031 L 34.996094 53.457031 C 34.777344 53.457031 34.601562 53.28125 34.601562 53.066406 L 34.601562 50.707031 C 34.601562 50.492188 34.777344 50.316406 34.996094 50.316406 Z M 39.707031 50.316406 L 42.066406 50.316406 C 42.28125 50.316406 42.457031 50.492188 42.457031 50.707031 L 42.457031 53.066406 C 42.457031 53.28125 42.28125 53.457031 42.066406 53.457031 L 39.707031 53.457031 C 39.492188 53.457031 39.316406 53.28125 39.316406 53.066406 L 39.316406 50.707031 C 39.316406 50.492188 39.492188 50.316406 39.707031 50.316406 Z M 44.421875 50.316406 L 46.777344 50.316406 C 46.996094 50.316406 47.171875 50.492188 47.171875 50.707031 L 47.171875 53.066406 C 47.171875 53.28125 46.996094 53.457031 46.777344 53.457031 L 44.421875 53.457031 C 44.203125 53.457031 44.027344 53.28125 44.027344 53.066406 L 44.027344 50.707031 C 44.027344 50.492188 44.203125 50.316406 44.421875 50.316406 Z M 49.132812 50.316406 L 51.492188 50.316406 C 51.707031 50.316406 51.882812 50.492188 51.882812 50.707031 L 51.882812 53.066406 C 51.882812 53.28125 51.707031 53.457031 51.492188 53.457031 L 49.132812 53.457031 C 48.917969 53.457031 48.742188 53.28125 48.742188 53.066406 L 48.742188 50.707031 C 48.742188 50.492188 48.917969 50.316406 49.132812 50.316406 Z M 49.132812 50.316406 "/>
</g>
</svg>
