<?xml version="1.0" encoding="UTF-8"?>
<svg xmlns="http://www.w3.org/2000/svg" xmlns:xlink="http://www.w3.org/1999/xlink" width="64px" height="64px" viewBox="0 0 64 64" version="1.1">
<g id="surface1">
<path style=" stroke:none;fill-rule:nonzero;fill:rgb(40.000001%,73.333335%,41.568628%);fill-opacity:1;" d="M 31.75 3.144531 C 18.558594 3.144531 7.9375 13.765625 7.9375 26.957031 L 7.9375 54.738281 C 7.9375 58.402344 10.886719 61.355469 14.550781 61.355469 C 18.214844 61.355469 21.167969 58.402344 21.167969 54.738281 L 21.167969 46.800781 C 21.167969 45.703125 22.050781 44.816406 23.152344 44.816406 C 24.25 44.816406 25.136719 45.703125 25.136719 46.800781 L 25.136719 54.738281 C 25.136719 58.402344 28.085938 61.355469 31.75 61.355469 C 35.414062 61.355469 38.363281 58.402344 38.363281 54.738281 L 38.363281 46.800781 C 38.363281 45.703125 39.25 44.816406 40.347656 44.816406 C 41.449219 44.816406 42.332031 45.703125 42.332031 46.800781 L 42.332031 54.738281 C 42.332031 58.402344 45.285156 61.355469 48.949219 61.355469 C 52.613281 61.355469 55.5625 58.402344 55.5625 54.738281 L 55.5625 26.957031 C 55.5625 13.765625 44.941406 3.144531 31.75 3.144531 Z M 31.75 3.144531 "/>
<path style=" stroke:none;fill-rule:nonzero;fill:rgb(96.078432%,96.078432%,96.078432%);fill-opacity:0.995763;" d="M 17.796875 21.199219 C 20.898438 18.097656 25.503906 17.679688 28.089844 20.261719 C 30.671875 22.847656 30.253906 27.453125 27.152344 30.554688 C 24.054688 33.652344 19.445312 34.070312 16.863281 31.488281 C 14.28125 28.90625 14.699219 24.296875 17.796875 21.199219 Z M 17.796875 21.199219 "/>
<path style=" stroke:none;fill-rule:nonzero;fill:rgb(25.882354%,25.882354%,25.882354%);fill-opacity:0.995763;" d="M 24.8125 23.539062 C 25.847656 22.503906 27.523438 22.503906 28.554688 23.539062 C 29.589844 24.570312 29.589844 26.246094 28.554688 27.28125 C 27.523438 28.3125 25.847656 28.3125 24.8125 27.28125 C 23.78125 26.246094 23.78125 24.570312 24.8125 23.539062 Z M 24.8125 23.539062 "/>
<path style=" stroke:none;fill-rule:nonzero;fill:rgb(96.078432%,96.078432%,96.078432%);fill-opacity:0.995763;" d="M 45.703125 21.199219 C 42.601562 18.097656 37.996094 17.679688 35.410156 20.261719 C 32.828125 22.847656 33.246094 27.453125 36.347656 30.554688 C 39.445312 33.652344 44.054688 34.070312 46.636719 31.488281 C 49.21875 28.90625 48.800781 24.296875 45.703125 21.199219 Z M 45.703125 21.199219 "/>
<path style=" stroke:none;fill-rule:nonzero;fill:rgb(25.882354%,25.882354%,25.882354%);fill-opacity:0.995763;" d="M 38.6875 23.539062 C 37.652344 22.503906 35.976562 22.503906 34.945312 23.539062 C 33.910156 24.570312 33.910156 26.246094 34.945312 27.28125 C 35.976562 28.3125 37.652344 28.3125 38.6875 27.28125 C 39.71875 26.246094 39.71875 24.570312 38.6875 23.539062 Z M 38.6875 23.539062 "/>
</g>
</svg>
