
<svg xmlns="http://www.w3.org/2000/svg" xmlns:xlink="http://www.w3.org/1999/xlink" width="64px" height="64px" viewBox="0 0 64 64" version="1.1">
<g id="surface1">
<path style=" stroke:none;fill-rule:nonzero;fill:rgb(74.117649%,74.117649%,74.117649%);fill-opacity:1;" d="M 22.488281 2.644531 L 41.011719 2.644531 C 42.472656 2.644531 43.65625 3.832031 43.65625 5.292969 L 43.65625 27.78125 C 43.65625 29.242188 42.472656 30.425781 41.011719 30.425781 L 22.488281 30.425781 C 21.027344 30.425781 19.84375 29.242188 19.84375 27.78125 L 19.84375 5.292969 C 19.84375 3.832031 21.027344 2.644531 22.488281 2.644531 Z M 22.488281 2.644531 "/>
<path style=" stroke:none;fill-rule:nonzero;fill:rgb(25.882354%,25.882354%,25.882354%);fill-opacity:1;" d="M 17.199219 33.074219 L 46.300781 33.074219 L 46.300781 51.59375 L 17.199219 51.59375 Z M 17.199219 33.074219 "/>
<path style=" stroke:none;fill-rule:nonzero;fill:rgb(100%,65.490198%,14.901961%);fill-opacity:1;" d="M 23.480469 6.613281 L 24.144531 6.613281 C 24.691406 6.613281 25.136719 7.207031 25.136719 7.9375 L 25.136719 18.519531 C 25.136719 19.25 24.691406 19.84375 24.144531 19.84375 L 23.480469 19.84375 C 22.933594 19.84375 22.488281 19.25 22.488281 18.519531 L 22.488281 7.9375 C 22.488281 7.207031 22.933594 6.613281 23.480469 6.613281 Z M 23.480469 6.613281 "/>
<path style=" stroke:none;fill-rule:nonzero;fill:rgb(100%,65.490198%,14.901961%);fill-opacity:1;" d="M 39.355469 6.613281 L 40.019531 6.613281 C 40.566406 6.613281 41.011719 7.207031 41.011719 7.9375 L 41.011719 18.519531 C 41.011719 19.25 40.566406 19.84375 40.019531 19.84375 L 39.355469 19.84375 C 38.808594 19.84375 38.363281 19.25 38.363281 18.519531 L 38.363281 7.9375 C 38.363281 7.207031 38.808594 6.613281 39.355469 6.613281 Z M 39.355469 6.613281 "/>
<path style=" stroke:none;fill-rule:nonzero;fill:rgb(100%,65.490198%,14.901961%);fill-opacity:1;" d="M 28.773438 10.582031 L 29.433594 10.582031 C 29.984375 10.582031 30.425781 11.175781 30.425781 11.90625 L 30.425781 18.519531 C 30.425781 19.25 29.984375 19.84375 29.433594 19.84375 L 28.773438 19.84375 C 28.226562 19.84375 27.78125 19.25 27.78125 18.519531 L 27.78125 11.90625 C 27.78125 11.175781 28.226562 10.582031 28.773438 10.582031 Z M 28.773438 10.582031 "/>
<path style=" stroke:none;fill-rule:nonzero;fill:rgb(100%,65.490198%,14.901961%);fill-opacity:1;" d="M 34.066406 10.582031 L 34.726562 10.582031 C 35.273438 10.582031 35.71875 11.175781 35.71875 11.90625 L 35.71875 18.519531 C 35.71875 19.25 35.273438 19.84375 34.726562 19.84375 L 34.066406 19.84375 C 33.515625 19.84375 33.074219 19.25 33.074219 18.519531 L 33.074219 11.90625 C 33.074219 11.175781 33.515625 10.582031 34.066406 10.582031 Z M 34.066406 10.582031 "/>
<path style=" stroke:none;fill-rule:nonzero;fill:rgb(38.039216%,38.039216%,38.039216%);fill-opacity:1;" d="M 18.519531 23.8125 C 17.054688 23.8125 15.875 24.992188 15.875 26.457031 L 15.875 34.394531 L 47.625 34.394531 L 47.625 26.457031 C 47.625 24.992188 46.445312 23.8125 44.980469 23.8125 Z M 18.519531 23.8125 "/>
<path style=" stroke:none;fill-rule:nonzero;fill:rgb(38.039216%,38.039216%,38.039216%);fill-opacity:1;" d="M 18.519531 60.855469 C 17.054688 60.855469 15.792969 59.671875 15.875 58.207031 L 15.875 50.269531 L 47.625 50.269531 L 47.625 58.207031 C 47.625 59.675781 46.445312 60.855469 44.980469 60.855469 Z M 18.519531 60.855469 "/>
</g>
</svg>
