<?xml version="1.0" encoding="UTF-8"?>
<svg xmlns="http://www.w3.org/2000/svg" xmlns:xlink="http://www.w3.org/1999/xlink" width="64px" height="64px" viewBox="0 0 64 64" version="1.1">
<g id="surface1">
<path style=" stroke:none;fill-rule:nonzero;fill:rgb(36.078432%,41.960785%,75.294119%);fill-opacity:1;" d="M 10.582031 46.988281 C 9.859375 46.988281 9.269531 47.574219 9.269531 48.300781 L 9.269531 58.707031 C 9.269531 59.707031 10.347656 60.339844 11.222656 59.855469 L 23.128906 52.09375 C 23.542969 51.863281 23.800781 51.421875 23.800781 50.945312 L 23.800781 48.300781 C 23.800781 47.574219 23.214844 46.988281 22.488281 46.988281 Z M 10.582031 46.988281 "/>
<path style=" stroke:none;fill-rule:nonzero;fill:rgb(36.078432%,41.960785%,75.294119%);fill-opacity:1;" d="M 5.292969 4.46875 C 3.824219 4.46875 2.644531 5.648438 2.644531 7.113281 L 2.644531 49.449219 C 2.644531 50.914062 3.824219 52.09375 5.292969 52.09375 L 58.207031 52.09375 C 59.675781 52.09375 60.855469 50.914062 60.855469 49.449219 L 60.855469 7.113281 C 60.855469 5.648438 59.675781 4.46875 58.207031 4.46875 Z M 5.292969 4.46875 "/>
<path style=" stroke:none;fill-rule:nonzero;fill:rgb(14.901961%,77.64706%,85.490197%);fill-opacity:1;" d="M 5.292969 4.46875 C 3.824219 4.46875 2.644531 5.648438 2.644531 7.113281 L 2.644531 49.449219 C 2.644531 50.914062 3.824219 52.09375 5.292969 52.09375 L 46.628906 52.09375 C 55.585938 42.980469 57.929688 27.179688 48.992188 17.1875 C 45.304688 13.054688 39.855469 10.589844 34.464844 10.535156 C 30.46875 10.5 25.671875 11.789062 22.480469 14.722656 C 17.496094 19.300781 16.015625 28.761719 20.953125 33.949219 C 24.140625 37.296875 30.683594 38.265625 34.179688 34.816406 C 36.351562 32.671875 36.972656 28.363281 34.625 26.09375 C 33.226562 24.746094 30.769531 24.367188 29.355469 25.914062 C 28.550781 26.785156 28.339844 28.300781 29.316406 29.136719 C 29.832031 29.578125 30.722656 29.6875 31.183594 29.105469 C 31.410156 28.820312 31.472656 28.328125 31.136719 28.089844 C 30.984375 27.988281 30.742188 27.964844 30.632812 28.140625 C 30.597656 28.210938 30.585938 28.316406 30.671875 28.363281 C 30.699219 28.382812 30.765625 28.382812 30.765625 28.34375 L 30.765625 28.316406 C 30.722656 28.308594 30.765625 28.292969 30.765625 28.292969 C 30.796875 28.28125 30.839844 28.304688 30.839844 28.335938 C 30.855469 28.425781 30.777344 28.503906 30.695312 28.519531 C 30.488281 28.5625 30.347656 28.371094 30.300781 28.191406 C 30.230469 27.792969 30.617188 27.484375 30.984375 27.445312 C 31.726562 27.355469 32.277344 28.0625 32.332031 28.742188 C 32.433594 30.023438 31.203125 30.941406 30.023438 30.996094 C 27.929688 31.085938 26.472656 29.089844 26.425781 27.140625 C 26.367188 23.882812 29.5 21.921875 32.554688 21.9375 C 37.46875 21.964844 40.820312 26.394531 40.703125 31.007812 C 40.523438 38.164062 33.609375 44.011719 26.84375 43.730469 C 16.679688 43.304688 8.835938 32.441406 9.375 22.820312 C 9.824219 14.828125 14.777344 8.386719 21.421875 4.46875 Z M 5.292969 4.46875 "/>
</g>
</svg>
