
<svg xmlns="http://www.w3.org/2000/svg" xmlns:xlink="http://www.w3.org/1999/xlink" width="64px" height="64px" viewBox="0 0 64 64" version="1.1">
<defs>
<linearGradient id="linear0" gradientUnits="userSpaceOnUse" x1="42.333332" y1="42.999996" x2="465.666656" y2="42.999996" gradientTransform="matrix(0.125,0,0,0.125,0.000000833334,26.375001)">
<stop offset="0" style="stop-color:rgb(97.254902%,97.254902%,97.254902%);stop-opacity:0;"/>
<stop offset="0.5" style="stop-color:rgb(100%,100%,100%);stop-opacity:0.0784314;"/>
<stop offset="1" style="stop-color:rgb(99.607843%,99.607843%,99.607843%);stop-opacity:0;"/>
</linearGradient>
</defs>
<g id="surface1">
<path style=" stroke:none;fill-rule:nonzero;fill:rgb(25.882354%,25.882354%,25.882354%);fill-opacity:1;" d="M 5.292969 5.292969 L 58.207031 5.292969 C 59.667969 5.292969 60.855469 6.476562 60.855469 7.9375 L 60.855469 55.5625 C 60.855469 57.023438 59.667969 58.207031 58.207031 58.207031 L 5.292969 58.207031 C 3.832031 58.207031 2.644531 57.023438 2.644531 55.5625 L 2.644531 7.9375 C 2.644531 6.476562 3.832031 5.292969 5.292969 5.292969 Z M 5.292969 5.292969 "/>
<path style=" stroke:none;fill-rule:nonzero;fill:rgb(96.078432%,96.078432%,96.078432%);fill-opacity:1;" d="M 16.535156 31.75 L 17.859375 31.75 C 18.226562 31.75 18.519531 32.046875 18.519531 32.410156 L 18.519531 34.394531 C 18.519531 34.761719 18.226562 35.058594 17.859375 35.058594 L 16.535156 35.058594 C 16.171875 35.058594 15.875 34.761719 15.875 34.394531 L 15.875 32.410156 C 15.875 32.046875 16.171875 31.75 16.535156 31.75 Z M 16.535156 31.75 "/>
<path style=" stroke:none;fill-rule:nonzero;fill:url(#linear0);" d="M 5.292969 7.277344 L 5.292969 8.597656 L 58.207031 8.597656 L 58.207031 7.277344 Z M 5.292969 11.246094 L 5.292969 12.566406 L 58.207031 12.566406 L 58.207031 11.246094 Z M 5.292969 15.214844 L 5.292969 16.535156 L 58.207031 16.535156 L 58.207031 15.214844 Z M 5.292969 19.183594 L 5.292969 20.503906 L 58.207031 20.503906 L 58.207031 19.183594 Z M 5.292969 23.152344 L 5.292969 24.472656 L 58.207031 24.472656 L 58.207031 23.152344 Z M 5.292969 27.121094 L 5.292969 28.441406 L 58.207031 28.441406 L 58.207031 27.121094 Z M 5.292969 31.089844 L 5.292969 32.410156 L 58.207031 32.410156 L 58.207031 31.089844 Z M 5.292969 35.058594 L 5.292969 36.378906 L 58.207031 36.378906 L 58.207031 35.058594 Z M 5.292969 39.027344 L 5.292969 40.347656 L 58.207031 40.347656 L 58.207031 39.027344 Z M 5.292969 42.996094 L 5.292969 44.316406 L 58.207031 44.316406 L 58.207031 42.996094 Z M 5.292969 46.964844 L 5.292969 48.285156 L 58.207031 48.285156 L 58.207031 46.964844 Z M 5.292969 50.933594 L 5.292969 52.253906 L 58.207031 52.253906 L 58.207031 50.933594 Z M 5.292969 54.902344 L 5.292969 56.222656 L 58.207031 56.222656 L 58.207031 54.902344 Z M 5.292969 54.902344 "/>
<path style=" stroke:none;fill-rule:nonzero;fill:rgb(96.078432%,96.078432%,96.078432%);fill-opacity:1;" d="M 27.121094 48.285156 L 30.425781 48.285156 C 31.15625 48.285156 31.75 48.878906 31.75 49.609375 C 31.75 50.339844 31.15625 50.933594 30.425781 50.933594 L 27.121094 50.933594 C 26.390625 50.933594 25.796875 50.339844 25.796875 49.609375 C 25.796875 48.878906 26.390625 48.285156 27.121094 48.285156 Z M 27.121094 48.285156 "/>
<path style=" stroke:none;fill-rule:nonzero;fill:rgb(96.078432%,96.078432%,96.078432%);fill-opacity:1;" d="M 16.535156 49.609375 L 17.859375 49.609375 C 18.226562 49.609375 18.519531 49.90625 18.519531 50.269531 L 18.519531 52.253906 C 18.519531 52.621094 18.226562 52.917969 17.859375 52.917969 L 16.535156 52.917969 C 16.171875 52.917969 15.875 52.621094 15.875 52.253906 L 15.875 50.269531 C 15.875 49.90625 16.171875 49.609375 16.535156 49.609375 Z M 16.535156 49.609375 "/>
<path style=" stroke:none;fill-rule:nonzero;fill:rgb(96.078432%,96.078432%,96.078432%);fill-opacity:1;" d="M 17.210938 33.074219 C 15.667969 33.046875 14.199219 33.429688 13.070312 34.339844 C 11.9375 35.25 11.246094 36.707031 11.246094 38.363281 C 11.246094 40.128906 12.28125 41.480469 13.429688 42.207031 C 14.574219 42.9375 15.828125 43.269531 16.78125 43.589844 C 17.8125 43.933594 18.875 44.261719 19.546875 44.6875 C 20.21875 45.117188 20.503906 45.421875 20.503906 46.300781 C 20.503906 47.292969 20.203125 47.828125 19.679688 48.246094 C 19.15625 48.664062 18.300781 48.949219 17.199219 48.949219 C 16.09375 48.949219 15.195312 48.660156 14.648438 48.277344 C 14.101562 47.894531 13.890625 47.515625 13.890625 46.964844 C 13.898438 46.488281 13.644531 46.042969 13.234375 45.804688 C 12.824219 45.5625 12.3125 45.5625 11.902344 45.804688 C 11.488281 46.042969 11.238281 46.488281 11.246094 46.964844 C 11.246094 48.394531 12.023438 49.667969 13.132812 50.445312 C 14.242188 51.21875 15.65625 51.59375 17.199219 51.59375 C 18.742188 51.59375 20.203125 51.214844 21.332031 50.3125 C 22.460938 49.40625 23.152344 47.957031 23.152344 46.300781 C 23.152344 44.539062 22.113281 43.1875 20.96875 42.457031 C 19.820312 41.730469 18.566406 41.394531 17.617188 41.078125 C 16.582031 40.734375 15.523438 40.40625 14.847656 39.976562 C 14.175781 39.550781 13.890625 39.246094 13.890625 38.363281 C 13.890625 37.375 14.199219 36.824219 14.726562 36.398438 C 15.257812 35.976562 16.097656 35.699219 17.171875 35.71875 C 17.179688 35.71875 17.191406 35.71875 17.199219 35.71875 C 18.300781 35.71875 19.199219 36.007812 19.746094 36.390625 C 20.292969 36.769531 20.503906 37.152344 20.503906 37.703125 C 20.5 38.179688 20.75 38.625 21.160156 38.863281 C 21.574219 39.105469 22.082031 39.105469 22.496094 38.863281 C 22.90625 38.625 23.15625 38.179688 23.152344 37.703125 C 23.152344 36.269531 22.371094 34.996094 21.265625 34.222656 C 20.160156 33.449219 18.75 33.078125 17.210938 33.074219 Z M 17.210938 33.074219 "/>
<path style="fill:none;stroke-width:0.114828;stroke-linecap:round;stroke-linejoin:round;stroke:rgb(96.078432%,96.078432%,96.078432%);stroke-opacity:1;stroke-miterlimit:4;" d="M 391.6875 49.59375 C 384.8125 49.59375 377.90625 50.28125 371.03125 51.71875 L 362.78125 82.46875 L 346.875 91.65625 L 316.125 83.4375 C 306.78125 93.875 299.84375 106 295.5625 119 L 318.09375 141.53125 L 318.09375 159.90625 L 295.59375 182.40625 C 297.71875 188.84375 300.5625 195.125 304.0625 201.25 C 307.59375 207.34375 311.65625 212.9375 316.15625 218 L 346.875 209.78125 L 362.78125 218.96875 L 371.03125 249.75 C 384.4375 252.53125 398.40625 252.59375 412.125 249.71875 L 420.375 218.96875 L 436.28125 209.78125 L 467.0625 218 C 476.40625 207.5625 483.3125 195.4375 487.625 182.4375 L 465.0625 159.90625 L 465.0625 141.53125 L 487.5625 119.03125 C 485.4375 112.59375 482.625 106.3125 479.09375 100.1875 C 475.5625 94.09375 471.5 88.5 467.03125 83.4375 L 436.28125 91.65625 L 420.375 82.46875 L 412.125 51.6875 C 405.4375 50.3125 398.59375 49.59375 391.6875 49.59375 Z M 391.59375 109.09375 C 414.625 109.09375 433.1875 127.65625 433.1875 150.71875 C 433.1875 173.78125 414.625 192.34375 391.59375 192.34375 C 368.53125 192.34375 349.96875 173.78125 349.96875 150.71875 C 349.96875 127.65625 368.53125 109.09375 391.59375 109.09375 Z M 391.59375 109.09375 " transform="matrix(0.125,0,0,0.125,0,26.875)"/>
<path style=" stroke:none;fill-rule:nonzero;fill:rgb(74.117649%,74.117649%,74.117649%);fill-opacity:1;" d="M 48.960938 33.074219 C 48.101562 33.074219 47.238281 33.160156 46.378906 33.339844 L 45.347656 37.183594 L 43.359375 38.332031 L 39.515625 37.304688 C 38.347656 38.609375 37.480469 40.125 36.945312 41.75 L 39.761719 44.566406 L 39.761719 46.863281 L 36.949219 49.675781 C 37.214844 50.480469 37.570312 51.265625 38.007812 52.03125 C 38.449219 52.792969 38.957031 53.492188 39.519531 54.125 L 43.359375 53.097656 L 45.347656 54.246094 L 46.378906 58.09375 C 48.054688 58.441406 49.800781 58.449219 51.515625 58.089844 L 52.546875 54.246094 L 54.535156 53.097656 L 58.382812 54.125 C 59.550781 52.820312 60.414062 51.304688 60.953125 49.679688 L 58.132812 46.863281 L 58.132812 44.566406 L 60.945312 41.753906 C 60.679688 40.949219 60.328125 40.164062 59.886719 39.398438 C 59.445312 38.636719 58.9375 37.9375 58.378906 37.304688 L 54.535156 38.332031 L 52.546875 37.183594 L 51.515625 33.335938 C 50.679688 33.164062 49.824219 33.074219 48.960938 33.074219 Z M 48.949219 40.511719 C 51.828125 40.511719 54.148438 42.832031 54.148438 45.714844 C 54.148438 48.597656 51.828125 50.917969 48.949219 50.917969 C 46.066406 50.917969 43.746094 48.597656 43.746094 45.714844 C 43.746094 42.832031 46.066406 40.511719 48.949219 40.511719 Z M 48.949219 40.511719 "/>
<path style=" stroke:none;fill-rule:nonzero;fill:rgb(87.843138%,87.843138%,87.843138%);fill-opacity:1;" d="M 48.949219 36.527344 C 43.859375 36.527344 39.761719 40.625 39.761719 45.714844 C 39.761719 50.804688 43.859375 54.902344 48.949219 54.902344 C 54.035156 54.902344 58.132812 50.804688 58.132812 45.714844 C 58.132812 40.625 54.035156 36.527344 48.949219 36.527344 Z M 48.949219 40.511719 C 51.828125 40.511719 54.148438 42.832031 54.148438 45.714844 C 54.148438 48.597656 51.828125 50.917969 48.949219 50.917969 C 46.066406 50.917969 43.746094 48.597656 43.746094 45.714844 C 43.746094 42.832031 46.066406 40.511719 48.949219 40.511719 Z M 48.949219 40.511719 "/>
<path style=" stroke:none;fill-rule:nonzero;fill:rgb(45.882353%,45.882353%,45.882353%);fill-opacity:1;" d="M 48.949219 40.511719 C 46.085938 40.511719 43.78125 42.816406 43.78125 45.679688 C 43.78125 48.542969 46.085938 50.847656 48.949219 50.847656 C 51.8125 50.847656 54.113281 48.542969 54.113281 45.679688 C 54.113281 42.816406 51.8125 40.511719 48.949219 40.511719 Z M 48.949219 41.085938 C 51.492188 41.085938 53.542969 43.136719 53.542969 45.679688 C 53.542969 48.222656 51.492188 50.273438 48.949219 50.273438 C 46.402344 50.273438 44.355469 48.222656 44.355469 45.679688 C 44.355469 43.136719 46.402344 41.085938 48.949219 41.085938 Z M 48.949219 41.085938 "/>
<path style=" stroke:none;fill-rule:nonzero;fill:rgb(74.117649%,74.117649%,74.117649%);fill-opacity:1;" d="M 48.949219 39.9375 C 45.765625 39.9375 43.207031 42.5 43.207031 45.679688 C 43.207031 48.859375 45.765625 51.421875 48.949219 51.421875 C 52.128906 51.421875 54.6875 48.859375 54.6875 45.679688 C 54.6875 42.5 52.128906 39.9375 48.949219 39.9375 Z M 48.949219 40.511719 C 51.8125 40.511719 54.113281 42.816406 54.113281 45.679688 C 54.113281 48.542969 51.8125 50.847656 48.949219 50.847656 C 46.085938 50.847656 43.78125 48.542969 43.78125 45.679688 C 43.78125 42.816406 46.085938 40.511719 48.949219 40.511719 Z M 48.949219 40.511719 "/>
</g>
</svg>
