
<svg xmlns="http://www.w3.org/2000/svg" xmlns:xlink="http://www.w3.org/1999/xlink" width="64px" height="64px" viewBox="0 0 64 64" version="1.1">
<g id="surface1">
<path style=" stroke:none;fill-rule:nonzero;fill:rgb(25.882354%,64.705884%,96.078432%);fill-opacity:1;" d="M 4.792969 60.855469 C 3.601562 60.855469 2.644531 59.898438 2.644531 58.707031 L 2.644531 39.6875 L 31.75 39.6875 L 31.75 60.855469 Z M 4.792969 60.855469 "/>
<path style=" stroke:none;fill-rule:nonzero;fill:rgb(24.705882%,31.764707%,70.980394%);fill-opacity:1;" d="M 58.707031 60.855469 C 59.898438 60.855469 60.855469 59.898438 60.855469 58.707031 L 60.855469 39.6875 L 31.75 39.6875 L 31.75 60.855469 Z M 58.707031 60.855469 "/>
<path style=" stroke:none;fill-rule:nonzero;fill:rgb(93.333334%,93.333334%,93.333334%);fill-opacity:1;" d="M 4.792969 18.519531 C 3.601562 18.519531 2.644531 19.476562 2.644531 20.667969 L 2.644531 39.6875 L 31.75 39.6875 L 31.75 18.519531 Z M 4.792969 18.519531 "/>
<path style=" stroke:none;fill-rule:nonzero;fill:rgb(38.039216%,38.039216%,38.039216%);fill-opacity:1;" d="M 58.707031 18.519531 C 59.898438 18.519531 60.855469 19.476562 60.855469 20.667969 L 60.855469 39.6875 L 31.75 39.6875 L 31.75 18.519531 Z M 58.707031 18.519531 "/>
<path style=" stroke:none;fill-rule:nonzero;fill:rgb(61.960787%,61.960787%,61.960787%);fill-opacity:1;" d="M 26.8125 21.808594 L 12.261719 47.011719 L 11.90625 52.917969 L 16.84375 49.65625 L 22.492188 39.875 C 25.214844 41.4375 28.375 42.335938 31.75 42.335938 C 35.125 42.335938 38.285156 41.4375 41.007812 39.871094 L 46.65625 49.65625 L 51.59375 52.917969 L 51.238281 47.011719 L 45.207031 36.5625 C 48.347656 33.246094 50.269531 28.761719 50.269531 23.8125 C 50.269531 23.261719 49.679688 22.820312 48.949219 22.820312 C 48.214844 22.820312 47.625 23.261719 47.625 23.8125 C 47.625 27.769531 46.191406 31.378906 43.816406 34.152344 L 36.6875 21.808594 L 32.105469 24.453125 L 39.683594 37.578125 C 37.351562 38.921875 34.644531 39.6875 31.75 39.6875 C 28.855469 39.6875 26.148438 38.921875 23.816406 37.578125 L 31.394531 24.453125 Z M 26.8125 21.808594 "/>
<path style=" stroke:none;fill-rule:nonzero;fill:rgb(25.882354%,25.882354%,25.882354%);fill-opacity:1;" d="M 31.75 2.648438 C 30.285156 2.648438 29.105469 3.828125 29.105469 5.292969 L 29.105469 15.875 L 27.78125 15.875 C 27.050781 15.875 26.457031 16.46875 26.457031 17.199219 L 26.457031 21.828125 C 26.457031 22.222656 26.632812 22.59375 26.933594 22.84375 L 30.902344 26.152344 C 31.394531 26.5625 32.105469 26.5625 32.597656 26.152344 L 36.566406 22.84375 C 36.867188 22.59375 37.042969 22.222656 37.042969 21.828125 L 37.042969 17.199219 C 37.042969 16.46875 36.449219 15.875 35.71875 15.875 L 34.394531 15.875 L 34.394531 5.292969 C 34.394531 3.828125 33.214844 2.648438 31.75 2.648438 Z M 31.75 2.648438 "/>
<path style=" stroke:none;fill-rule:nonzero;fill:rgb(93.333334%,93.333334%,93.333334%);fill-opacity:0.943478;" d="M 31.75 18.523438 C 32.847656 18.523438 33.734375 19.410156 33.734375 20.507812 C 33.734375 21.601562 32.847656 22.492188 31.75 22.492188 C 30.652344 22.492188 29.765625 21.601562 29.765625 20.507812 C 29.765625 19.410156 30.652344 18.523438 31.75 18.523438 Z M 31.75 18.523438 "/>
</g>
</svg>
