
<svg xmlns="http://www.w3.org/2000/svg" xmlns:xlink="http://www.w3.org/1999/xlink" width="64px" height="64px" viewBox="0 0 64 64" version="1.1">
<g id="surface1">
<path style=" stroke:none;fill-rule:nonzero;fill:rgb(37.64706%,49.019608%,54.509807%);fill-opacity:1;" d="M 13.230469 7.9375 C 9.261719 7.9375 2.644531 21.167969 2.644531 31.75 C 2.644531 42.332031 10.582031 33.074219 18.519531 37.042969 C 23.8125 37.042969 15.964844 33.574219 27.78125 31.75 C 27.78125 10.582031 20.460938 8.226562 13.230469 7.9375 Z M 13.230469 7.9375 "/>
<path style=" stroke:none;fill-rule:nonzero;fill:rgb(37.64706%,49.019608%,54.509807%);fill-opacity:1;" d="M 50.269531 7.9375 C 54.238281 7.9375 60.855469 21.167969 60.855469 31.75 C 60.855469 42.332031 52.917969 33.074219 44.980469 37.042969 C 39.6875 37.042969 47.535156 33.574219 35.71875 31.75 C 35.71875 10.582031 43.039062 8.226562 50.269531 7.9375 Z M 50.269531 7.9375 "/>
<path style=" stroke:none;fill-rule:nonzero;fill:rgb(47.058824%,56.470591%,61.176473%);fill-opacity:1;" d="M 31.683594 35.304688 C 21.113281 35.304688 16.308594 23.238281 16.308594 15.550781 C 16.308594 8.820312 25.066406 2.660156 31.683594 2.660156 C 38.304688 2.660156 47.0625 8.820312 47.0625 15.550781 C 46.582031 24.199219 42.253906 35.304688 31.683594 35.304688 Z M 31.683594 35.304688 "/>
<path style=" stroke:none;fill-rule:nonzero;fill:rgb(100%,99.215686%,90.588236%);fill-opacity:1;" d="M 30.359375 28.167969 L 23.8125 29.105469 C 18.726562 35.363281 19.210938 41.960938 22.878906 48.75 C 21.296875 38.964844 26.242188 33.863281 30.359375 28.167969 Z M 30.359375 28.167969 "/>
<path style=" stroke:none;fill-rule:nonzero;fill:rgb(96.078432%,96.078432%,96.078432%);fill-opacity:0.995763;" d="M 36.277344 19.347656 C 34.566406 18.890625 33.4375 17.570312 33.753906 16.398438 C 34.066406 15.226562 35.707031 14.644531 37.414062 15.105469 C 39.121094 15.5625 40.25 16.882812 39.9375 18.054688 C 39.625 19.226562 37.984375 19.808594 36.277344 19.347656 Z M 36.277344 19.347656 "/>
<path style=" stroke:none;fill-rule:nonzero;fill:rgb(25.882354%,25.882354%,25.882354%);fill-opacity:0.995763;" d="M 35.652344 18.59375 C 34.957031 18.59375 34.394531 18.03125 34.394531 17.335938 C 34.394531 16.640625 34.957031 16.078125 35.652344 16.078125 C 36.347656 16.078125 36.910156 16.640625 36.910156 17.335938 C 36.910156 18.03125 36.347656 18.59375 35.652344 18.59375 Z M 35.652344 18.59375 "/>
<path style=" stroke:none;fill-rule:nonzero;fill:rgb(96.078432%,96.078432%,96.078432%);fill-opacity:0.995763;" d="M 27.222656 19.347656 C 28.933594 18.890625 30.0625 17.570312 29.746094 16.398438 C 29.433594 15.226562 27.792969 14.644531 26.085938 15.105469 C 24.378906 15.5625 23.25 16.882812 23.5625 18.054688 C 23.875 19.226562 25.515625 19.808594 27.222656 19.347656 Z M 27.222656 19.347656 "/>
<path style=" stroke:none;fill-rule:nonzero;fill:rgb(25.882354%,25.882354%,25.882354%);fill-opacity:0.995763;" d="M 27.847656 18.59375 C 28.542969 18.59375 29.105469 18.03125 29.105469 17.335938 C 29.105469 16.640625 28.542969 16.078125 27.847656 16.078125 C 27.152344 16.078125 26.589844 16.640625 26.589844 17.335938 C 26.589844 18.03125 27.152344 18.59375 27.847656 18.59375 Z M 27.847656 18.59375 "/>
<path style=" stroke:none;fill-rule:nonzero;fill:rgb(100%,99.215686%,90.588236%);fill-opacity:1;" d="M 33.140625 28.167969 L 39.6875 29.105469 C 44.773438 35.363281 44.289062 41.960938 40.621094 48.75 C 42.203125 38.964844 37.257812 33.863281 33.140625 28.167969 Z M 33.140625 28.167969 "/>
<path style=" stroke:none;fill-rule:nonzero;fill:rgb(56.470591%,64.313728%,68.235296%);fill-opacity:1;" d="M 31.75 21.167969 C 27.351562 21.167969 23.8125 24.707031 23.8125 29.105469 C 23.8125 38.363281 29.105469 55.414062 35.71875 59.382812 C 41.292969 62.730469 46.300781 59.382812 55.5625 58.0625 C 52.917969 56.738281 51.59375 55.414062 52.917969 54.09375 C 27.78125 60.707031 39.6875 38.363281 39.6875 29.105469 C 39.6875 24.707031 36.148438 21.167969 31.75 21.167969 Z M 31.75 21.167969 "/>
<path style=" stroke:none;fill-rule:nonzero;fill:rgb(32.941177%,43.137255%,47.843137%);fill-opacity:1;" d="M 10.582031 27.78125 C 7.9375 31.75 6.894531 34.800781 6.664062 37.003906 C 6.957031 36.976562 7.261719 36.933594 7.578125 36.882812 C 7.414062 34.121094 10.582031 27.78125 10.582031 27.78125 Z M 12.566406 32.410156 L 10.484375 36.328125 C 10.855469 36.257812 11.238281 36.195312 11.625 36.144531 C 11.984375 34.132812 12.566406 32.410156 12.566406 32.410156 Z M 16.375 32.660156 L 15.578125 36.113281 C 15.855469 36.152344 16.132812 36.207031 16.414062 36.277344 C 16.269531 34.335938 16.375 32.660156 16.375 32.660156 Z M 16.375 32.660156 "/>
<path style=" stroke:none;fill-rule:nonzero;fill:rgb(32.941177%,43.137255%,47.843137%);fill-opacity:1;" d="M 51.59375 27.78125 C 54.238281 30.425781 56.539062 33.347656 56.886719 37.003906 C 56.59375 36.976562 56.285156 36.933594 55.96875 36.882812 C 56.136719 34.121094 51.59375 27.78125 51.59375 27.78125 Z M 48.949219 29.105469 L 53.066406 36.328125 C 52.691406 36.257812 52.308594 36.195312 51.921875 36.144531 C 50.269531 33.074219 48.949219 29.105469 48.949219 29.105469 Z M 47.171875 32.660156 L 47.972656 36.113281 C 47.691406 36.152344 47.414062 36.207031 47.132812 36.277344 C 47.28125 34.335938 47.171875 32.660156 47.171875 32.660156 Z M 47.171875 32.660156 "/>
<path style=" stroke:none;fill-rule:nonzero;fill:rgb(47.058824%,56.470591%,61.176473%);fill-opacity:1;" d="M 31.75 25.136719 C 28.085938 25.136719 25.136719 27.199219 25.136719 29.765625 C 25.136719 29.992188 25.160156 30.210938 25.203125 30.425781 C 25.660156 28.175781 28.40625 26.457031 31.75 26.457031 C 35.09375 26.457031 37.839844 28.175781 38.296875 30.425781 C 38.339844 30.210938 38.363281 29.992188 38.363281 29.765625 C 38.363281 27.199219 35.414062 25.136719 31.75 25.136719 Z M 31.75 25.136719 "/>
<path style=" stroke:none;fill-rule:nonzero;fill:rgb(47.058824%,56.470591%,61.176473%);fill-opacity:1;" d="M 31.75 29.613281 C 28.789062 29.613281 26.402344 31.28125 26.402344 33.355469 C 26.402344 33.535156 26.421875 33.714844 26.457031 33.886719 C 26.828125 32.070312 29.046875 30.679688 31.75 30.679688 C 34.453125 30.679688 36.671875 32.070312 37.042969 33.886719 C 37.078125 33.714844 37.097656 33.535156 37.097656 33.355469 C 37.097656 31.28125 34.710938 29.613281 31.75 29.613281 Z M 31.75 29.613281 "/>
<path style=" stroke:none;fill-rule:nonzero;fill:rgb(47.058824%,56.470591%,61.176473%);fill-opacity:1;" d="M 31.75 34.394531 C 29.527344 34.394531 27.742188 35.648438 27.742188 37.203125 C 27.742188 37.339844 27.753906 37.472656 27.78125 37.601562 C 28.058594 36.238281 29.722656 35.199219 31.75 35.199219 C 33.777344 35.199219 35.441406 36.238281 35.71875 37.601562 C 35.746094 37.472656 35.757812 37.339844 35.757812 37.203125 C 35.757812 35.648438 33.972656 34.394531 31.75 34.394531 Z M 31.75 34.394531 "/>
</g>
</svg>
