
<svg xmlns="http://www.w3.org/2000/svg" xmlns:xlink="http://www.w3.org/1999/xlink" width="64px" height="64px" viewBox="0 0 64 64" version="1.1">
<g id="surface1">
<path style=" stroke:none;fill-rule:nonzero;fill:rgb(96.078432%,96.078432%,96.078432%);fill-opacity:0.999958;" d="M 21.167969 7.9375 L 21.167969 13.230469 L 13.230469 13.230469 L 13.230469 21.167969 L 7.9375 21.167969 L 7.9375 42.332031 L 13.230469 42.332031 L 13.230469 50.269531 L 21.167969 50.269531 L 21.167969 55.5625 L 42.332031 55.5625 L 42.332031 50.269531 L 50.269531 50.269531 L 50.269531 42.332031 L 55.5625 42.332031 L 55.5625 21.167969 L 50.269531 21.167969 L 50.269531 13.230469 L 42.332031 13.230469 L 42.332031 7.9375 Z M 21.167969 7.9375 "/>
<path style=" stroke:none;fill-rule:nonzero;fill:rgb(25.882354%,25.882354%,25.882354%);fill-opacity:0.999958;" d="M 21.167969 2.644531 L 21.167969 7.9375 L 42.332031 7.9375 L 42.332031 2.644531 Z M 42.332031 7.9375 L 42.332031 13.230469 L 50.269531 13.230469 L 50.269531 7.9375 Z M 50.269531 13.230469 L 50.269531 21.167969 L 55.5625 21.167969 L 55.5625 13.230469 Z M 55.5625 21.167969 L 55.5625 42.332031 L 60.855469 42.332031 L 60.855469 21.167969 Z M 55.5625 42.332031 L 50.269531 42.332031 L 50.269531 50.269531 L 55.5625 50.269531 Z M 50.269531 50.269531 L 42.332031 50.269531 L 42.332031 55.5625 L 50.269531 55.5625 Z M 42.332031 55.5625 L 21.167969 55.5625 L 21.167969 60.855469 L 42.332031 60.855469 Z M 21.167969 55.5625 L 21.167969 50.269531 L 13.230469 50.269531 L 13.230469 55.5625 Z M 13.230469 50.269531 L 13.230469 42.332031 L 7.9375 42.332031 L 7.9375 50.269531 Z M 7.9375 42.332031 L 7.9375 21.167969 L 2.644531 21.167969 L 2.644531 42.332031 Z M 7.9375 21.167969 L 13.230469 21.167969 L 13.230469 13.230469 L 7.9375 13.230469 Z M 13.230469 13.230469 L 21.167969 13.230469 L 21.167969 7.9375 L 13.230469 7.9375 Z M 13.230469 13.230469 "/>
<path style=" stroke:none;fill-rule:nonzero;fill:rgb(25.882354%,25.882354%,25.882354%);fill-opacity:0.999958;" d="M 23.8125 21.167969 L 39.6875 21.167969 L 39.6875 26.457031 L 23.8125 26.457031 Z M 23.8125 21.167969 "/>
<path style=" stroke:none;fill-rule:nonzero;fill:rgb(25.882354%,25.882354%,25.882354%);fill-opacity:0.999958;" d="M 21.167969 23.8125 L 42.332031 23.8125 L 42.332031 39.6875 L 21.167969 39.6875 Z M 21.167969 23.8125 "/>
<path style=" stroke:none;fill-rule:nonzero;fill:rgb(25.882354%,25.882354%,25.882354%);fill-opacity:0.999958;" d="M 23.8125 37.042969 L 39.6875 37.042969 L 39.6875 42.332031 L 23.8125 42.332031 Z M 23.8125 37.042969 "/>
<path style=" stroke:none;fill-rule:nonzero;fill:rgb(96.078432%,96.078432%,96.078432%);fill-opacity:0.999958;" d="M 26.457031 23.8125 L 31.75 23.8125 L 31.75 34.394531 L 26.457031 34.394531 Z M 26.457031 23.8125 "/>
<path style=" stroke:none;fill-rule:nonzero;fill:rgb(96.078432%,96.078432%,96.078432%);fill-opacity:0.999958;" d="M 23.8125 26.457031 L 34.394531 26.457031 L 34.394531 31.75 L 23.8125 31.75 Z M 23.8125 26.457031 "/>
<path style=" stroke:none;fill-rule:nonzero;fill:rgb(25.882354%,64.705884%,96.078432%);fill-opacity:0.999958;" d="M 15.875 23.8125 L 21.167969 23.8125 L 21.167969 39.6875 L 15.875 39.6875 Z M 15.875 23.8125 "/>
<path style=" stroke:none;fill-rule:nonzero;fill:rgb(25.882354%,64.705884%,96.078432%);fill-opacity:0.999958;" d="M 18.519531 18.519531 L 23.8125 18.519531 L 23.8125 23.8125 L 18.519531 23.8125 Z M 18.519531 18.519531 "/>
<path style=" stroke:none;fill-rule:nonzero;fill:rgb(25.882354%,64.705884%,96.078432%);fill-opacity:0.999958;" d="M 18.519531 39.6875 L 23.8125 39.6875 L 23.8125 44.980469 L 18.519531 44.980469 Z M 18.519531 39.6875 "/>
<path style=" stroke:none;fill-rule:nonzero;fill:rgb(93.725491%,32.549021%,31.37255%);fill-opacity:0.999958;" d="M 47.625 23.8125 L 42.332031 23.8125 L 42.332031 39.6875 L 47.625 39.6875 Z M 47.625 23.8125 "/>
<path style=" stroke:none;fill-rule:nonzero;fill:rgb(93.725491%,32.549021%,31.37255%);fill-opacity:0.999958;" d="M 44.980469 18.519531 L 39.6875 18.519531 L 39.6875 23.8125 L 44.980469 23.8125 Z M 44.980469 18.519531 "/>
<path style=" stroke:none;fill-rule:nonzero;fill:rgb(93.725491%,32.549021%,31.37255%);fill-opacity:0.999958;" d="M 44.980469 39.6875 L 39.6875 39.6875 L 39.6875 44.980469 L 44.980469 44.980469 Z M 44.980469 39.6875 "/>
<path style=" stroke:none;fill-rule:nonzero;fill:rgb(61.176473%,80.000001%,39.607844%);fill-opacity:0.999958;" d="M 39.6875 15.875 L 39.6875 21.167969 L 23.8125 21.167969 L 23.8125 15.875 Z M 39.6875 15.875 "/>
<path style=" stroke:none;fill-rule:nonzero;fill:rgb(61.176473%,80.000001%,39.607844%);fill-opacity:0.999958;" d="M 39.6875 47.625 L 39.6875 42.332031 L 23.8125 42.332031 L 23.8125 47.625 Z M 39.6875 47.625 "/>
<path style=" stroke:none;fill-rule:nonzero;fill:rgb(96.078432%,96.078432%,96.078432%);fill-opacity:0.999958;" d="M 35.71875 35.71875 L 38.363281 35.71875 L 38.363281 38.363281 L 35.71875 38.363281 Z M 35.71875 35.71875 "/>
</g>
</svg>
