<?xml version="1.0" encoding="UTF-8"?>
<svg xmlns="http://www.w3.org/2000/svg" xmlns:xlink="http://www.w3.org/1999/xlink" width="64px" height="64px" viewBox="0 0 64 64" version="1.1">
<g id="surface1">
<path style=" stroke:none;fill-rule:nonzero;fill:rgb(74.117649%,74.117649%,74.117649%);fill-opacity:1;" d="M 7.9375 3.144531 L 55.5625 3.144531 C 58.484375 3.144531 60.855469 5.515625 60.855469 8.4375 L 60.855469 56.0625 C 60.855469 58.984375 58.484375 61.355469 55.5625 61.355469 L 7.9375 61.355469 C 5.015625 61.355469 2.644531 58.984375 2.644531 56.0625 L 2.644531 8.4375 C 2.644531 5.515625 5.015625 3.144531 7.9375 3.144531 Z M 7.9375 3.144531 "/>
<path style=" stroke:none;fill-rule:nonzero;fill:rgb(93.333334%,93.333334%,93.333334%);fill-opacity:1;" d="M 7.9375 5.792969 L 55.5625 5.792969 C 57.023438 5.792969 58.207031 6.976562 58.207031 8.4375 L 58.207031 53.417969 C 58.207031 54.878906 57.023438 56.0625 55.5625 56.0625 L 7.9375 56.0625 C 6.476562 56.0625 5.292969 54.878906 5.292969 53.417969 L 5.292969 8.4375 C 5.292969 6.976562 6.476562 5.792969 7.9375 5.792969 Z M 7.9375 5.792969 "/>
<path style=" stroke:none;fill-rule:nonzero;fill:rgb(25.882354%,25.882354%,25.882354%);fill-opacity:1;" d="M 24.472656 9.761719 C 18.976562 9.761719 14.550781 13.890625 14.550781 19.019531 L 14.550781 36.21875 C 14.550781 36.953125 15.140625 37.542969 15.875 37.542969 L 17.199219 37.542969 C 17.929688 37.542969 18.519531 36.953125 18.519531 36.21875 L 18.519531 28.28125 L 30.425781 28.28125 L 30.425781 36.21875 C 30.425781 36.953125 31.015625 37.542969 31.75 37.542969 L 33.074219 37.542969 C 33.804688 37.542969 34.394531 36.953125 34.394531 36.21875 L 34.394531 19.019531 C 34.394531 13.890625 29.96875 9.761719 24.472656 9.761719 Z M 24.472656 13.730469 C 27.773438 13.730469 30.425781 16.679688 30.425781 20.34375 L 30.425781 24.3125 L 18.519531 24.3125 L 18.519531 20.34375 C 18.519531 16.679688 21.175781 13.730469 24.472656 13.730469 Z M 24.472656 13.730469 "/>
<path style=" stroke:none;fill-rule:nonzero;fill:rgb(93.725491%,32.549021%,31.37255%);fill-opacity:1;" d="M 38.558594 23.460938 C 37.542969 23.421875 36.667969 24.15625 36.527344 25.164062 C 36.351562 26.296875 36.199219 27.417969 36.074219 28.523438 C 34.265625 28.523438 32.675781 28.363281 30.78125 28.132812 C 30.074219 28.035156 29.371094 28.324219 28.9375 28.894531 C 28.507812 29.460938 28.414062 30.21875 28.699219 30.875 C 28.980469 31.527344 29.59375 31.980469 30.304688 32.054688 C 32.167969 32.28125 33.859375 32.441406 35.757812 32.453125 C 35.691406 33.882812 35.695312 35.28125 35.78125 36.648438 C 30.382812 38.847656 27.875 43.554688 28.785156 47.414062 C 29.277344 49.511719 31.265625 51.324219 33.703125 51.355469 C 35.640625 51.378906 37.691406 50.578125 39.972656 48.90625 C 40.726562 49.453125 41.753906 49.402344 42.449219 48.785156 C 43.144531 48.167969 43.316406 47.152344 42.863281 46.34375 C 44.496094 44.628906 45.824219 43.015625 46.902344 41.335938 C 47.421875 41.726562 47.828125 42.101562 48.089844 42.4375 C 48.683594 43.191406 48.75 43.679688 48.671875 44.191406 C 48.519531 45.214844 47.117188 46.710938 45.109375 47.40625 C 44.429688 47.628906 43.925781 48.203125 43.785156 48.902344 C 43.648438 49.601562 43.898438 50.324219 44.441406 50.789062 C 44.980469 51.253906 45.730469 51.386719 46.402344 51.144531 C 49.398438 50.105469 52.101562 47.960938 52.582031 44.785156 C 52.824219 43.195312 52.34375 41.449219 51.199219 39.992188 C 50.574219 39.195312 49.753906 38.472656 48.757812 37.800781 C 48.808594 37.679688 48.867188 37.5625 48.914062 37.441406 C 49.171875 36.820312 49.097656 36.109375 48.714844 35.558594 C 48.332031 35.003906 47.695312 34.683594 47.019531 34.707031 C 46.226562 34.734375 45.527344 35.234375 45.242188 35.972656 C 45.238281 35.984375 45.234375 35.996094 45.230469 36.007812 C 43.492188 35.480469 41.859375 35.273438 39.6875 35.605469 C 39.648438 34.527344 39.664062 33.417969 39.722656 32.265625 C 42.265625 32.027344 45.34375 31.546875 49.457031 30.707031 C 50.476562 30.515625 51.175781 29.566406 51.054688 28.535156 C 50.933594 27.503906 50.039062 26.742188 49 26.789062 C 48.890625 26.792969 48.777344 26.808594 48.667969 26.832031 C 45.003906 27.582031 42.292969 28.035156 40.082031 28.28125 C 40.183594 27.460938 40.300781 26.621094 40.433594 25.765625 C 40.527344 25.203125 40.375 24.628906 40.019531 24.1875 C 39.660156 23.746094 39.128906 23.480469 38.558594 23.460938 Z M 41.660156 39.296875 C 41.710938 39.296875 41.765625 39.296875 41.816406 39.296875 C 42.320312 39.304688 42.808594 39.414062 43.339844 39.5625 C 42.679688 40.550781 41.894531 41.535156 40.949219 42.589844 C 40.585938 41.601562 40.308594 40.570312 40.105469 39.5 C 40.722656 39.367188 41.214844 39.304688 41.660156 39.296875 Z M 36.328125 40.769531 C 36.675781 42.410156 37.179688 43.996094 37.878906 45.519531 C 35.925781 46.976562 34.472656 47.410156 33.75 47.402344 C 32.878906 47.390625 32.800781 47.222656 32.632812 46.507812 C 32.351562 45.308594 33.1875 42.484375 36.328125 40.769531 Z M 36.328125 40.769531 "/>
</g>
</svg>
