
<svg xmlns="http://www.w3.org/2000/svg" xmlns:xlink="http://www.w3.org/1999/xlink" width="64px" height="64px" viewBox="0 0 64 64" version="1.1">
<g id="surface1">
<path style=" stroke:none;fill-rule:nonzero;fill:rgb(74.117649%,74.117649%,74.117649%);fill-opacity:1;" d="M 10.582031 3.144531 C 9.851562 3.144531 9.261719 3.734375 9.261719 4.46875 L 9.261719 9.761719 L 3.96875 9.761719 C 3.234375 9.761719 2.644531 10.351562 2.644531 11.082031 C 2.644531 11.816406 3.234375 12.40625 3.96875 12.40625 L 9.261719 12.40625 L 9.261719 15.050781 L 3.96875 15.050781 C 3.234375 15.050781 2.644531 15.640625 2.644531 16.375 C 2.644531 17.109375 3.234375 17.699219 3.96875 17.699219 L 9.261719 17.699219 L 9.261719 20.34375 L 3.96875 20.34375 C 3.234375 20.34375 2.644531 20.933594 2.644531 21.667969 C 2.644531 22.398438 3.234375 22.988281 3.96875 22.988281 L 9.261719 22.988281 L 9.261719 25.636719 L 3.96875 25.636719 C 3.234375 25.636719 2.644531 26.226562 2.644531 26.957031 C 2.644531 27.691406 3.234375 28.28125 3.96875 28.28125 L 9.261719 28.28125 L 9.261719 30.925781 L 3.96875 30.925781 C 3.234375 30.925781 2.644531 31.515625 2.644531 32.25 C 2.644531 32.984375 3.234375 33.574219 3.96875 33.574219 L 9.261719 33.574219 L 9.261719 36.21875 L 3.96875 36.21875 C 3.234375 36.21875 2.644531 36.808594 2.644531 37.542969 C 2.644531 38.273438 3.234375 38.863281 3.96875 38.863281 L 9.261719 38.863281 L 9.261719 41.511719 L 3.96875 41.511719 C 3.234375 41.511719 2.644531 42.101562 2.644531 42.832031 C 2.644531 43.566406 3.234375 44.15625 3.96875 44.15625 L 9.261719 44.15625 L 9.261719 46.800781 L 3.96875 46.800781 C 3.234375 46.800781 2.644531 47.390625 2.644531 48.125 C 2.644531 48.859375 3.234375 49.449219 3.96875 49.449219 L 9.261719 49.449219 L 9.261719 52.09375 L 3.96875 52.09375 C 3.234375 52.09375 2.644531 52.683594 2.644531 53.417969 C 2.644531 54.148438 3.234375 54.738281 3.96875 54.738281 L 9.261719 54.738281 L 9.261719 60.03125 C 9.261719 60.765625 9.851562 61.355469 10.582031 61.355469 C 11.316406 61.355469 11.90625 60.765625 11.90625 60.03125 L 11.90625 54.738281 L 14.550781 54.738281 L 14.550781 60.03125 C 14.550781 60.765625 15.140625 61.355469 15.875 61.355469 C 16.609375 61.355469 17.199219 60.765625 17.199219 60.03125 L 17.199219 54.738281 L 19.84375 54.738281 L 19.84375 60.03125 C 19.84375 60.765625 20.433594 61.355469 21.167969 61.355469 C 21.898438 61.355469 22.488281 60.765625 22.488281 60.03125 L 22.488281 54.738281 L 25.136719 54.738281 L 25.136719 60.03125 C 25.136719 60.765625 25.726562 61.355469 26.457031 61.355469 C 27.191406 61.355469 27.78125 60.765625 27.78125 60.03125 L 27.78125 54.738281 L 30.425781 54.738281 L 30.425781 60.03125 C 30.425781 60.765625 31.015625 61.355469 31.75 61.355469 C 32.484375 61.355469 33.074219 60.765625 33.074219 60.03125 L 33.074219 54.738281 L 35.71875 54.738281 L 35.71875 60.03125 C 35.71875 60.765625 36.308594 61.355469 37.042969 61.355469 C 37.773438 61.355469 38.363281 60.765625 38.363281 60.03125 L 38.363281 54.738281 L 41.011719 54.738281 L 41.011719 60.03125 C 41.011719 60.765625 41.601562 61.355469 42.332031 61.355469 C 43.066406 61.355469 43.65625 60.765625 43.65625 60.03125 L 43.65625 54.738281 L 46.300781 54.738281 L 46.300781 60.03125 C 46.300781 60.765625 46.890625 61.355469 47.625 61.355469 C 48.359375 61.355469 48.949219 60.765625 48.949219 60.03125 L 48.949219 54.738281 L 51.59375 54.738281 L 51.59375 60.03125 C 51.59375 60.765625 52.183594 61.355469 52.917969 61.355469 C 53.648438 61.355469 54.238281 60.765625 54.238281 60.03125 L 54.238281 54.738281 L 59.53125 54.738281 C 60.265625 54.738281 60.855469 54.148438 60.855469 53.417969 C 60.855469 52.683594 60.265625 52.09375 59.53125 52.09375 L 54.238281 52.09375 L 54.238281 49.449219 L 59.53125 49.449219 C 60.265625 49.449219 60.855469 48.859375 60.855469 48.125 C 60.855469 47.390625 60.265625 46.800781 59.53125 46.800781 L 54.238281 46.800781 L 54.238281 44.15625 L 59.53125 44.15625 C 60.265625 44.15625 60.855469 43.566406 60.855469 42.832031 C 60.855469 42.101562 60.265625 41.511719 59.53125 41.511719 L 54.238281 41.511719 L 54.238281 38.863281 L 59.53125 38.863281 C 60.265625 38.863281 60.855469 38.273438 60.855469 37.542969 C 60.855469 36.808594 60.265625 36.21875 59.53125 36.21875 L 54.238281 36.21875 L 54.238281 33.574219 L 59.53125 33.574219 C 60.265625 33.574219 60.855469 32.984375 60.855469 32.25 C 60.855469 31.515625 60.265625 30.925781 59.53125 30.925781 L 54.238281 30.925781 L 54.238281 28.28125 L 59.53125 28.28125 C 60.265625 28.28125 60.855469 27.691406 60.855469 26.957031 C 60.855469 26.226562 60.265625 25.636719 59.53125 25.636719 L 54.238281 25.636719 L 54.238281 22.988281 L 59.53125 22.988281 C 60.265625 22.988281 60.855469 22.398438 60.855469 21.667969 C 60.855469 20.933594 60.265625 20.34375 59.53125 20.34375 L 54.238281 20.34375 L 54.238281 17.699219 L 59.53125 17.699219 C 60.265625 17.699219 60.855469 17.109375 60.855469 16.375 C 60.855469 15.640625 60.265625 15.050781 59.53125 15.050781 L 54.238281 15.050781 L 54.238281 12.40625 L 59.53125 12.40625 C 60.265625 12.40625 60.855469 11.816406 60.855469 11.082031 C 60.855469 10.351562 60.265625 9.761719 59.53125 9.761719 L 54.238281 9.761719 L 54.238281 4.46875 C 54.238281 3.734375 53.648438 3.144531 52.917969 3.144531 C 52.183594 3.144531 51.59375 3.734375 51.59375 4.46875 L 51.59375 9.761719 L 48.949219 9.761719 L 48.949219 4.46875 C 48.949219 3.734375 48.359375 3.144531 47.625 3.144531 C 46.890625 3.144531 46.300781 3.734375 46.300781 4.46875 L 46.300781 9.761719 L 43.65625 9.761719 L 43.65625 4.46875 C 43.65625 3.734375 43.066406 3.144531 42.332031 3.144531 C 41.601562 3.144531 41.011719 3.734375 41.011719 4.46875 L 41.011719 9.761719 L 38.363281 9.761719 L 38.363281 4.46875 C 38.363281 3.734375 37.773438 3.144531 37.042969 3.144531 C 36.308594 3.144531 35.71875 3.734375 35.71875 4.46875 L 35.71875 9.761719 L 33.074219 9.761719 L 33.074219 4.46875 C 33.074219 3.734375 32.484375 3.144531 31.75 3.144531 C 31.015625 3.144531 30.425781 3.734375 30.425781 4.46875 L 30.425781 9.761719 L 27.78125 9.761719 L 27.78125 4.46875 C 27.78125 3.734375 27.191406 3.144531 26.457031 3.144531 C 25.726562 3.144531 25.136719 3.734375 25.136719 4.46875 L 25.136719 9.761719 L 22.488281 9.761719 L 22.488281 4.46875 C 22.488281 3.734375 21.898438 3.144531 21.167969 3.144531 C 20.433594 3.144531 19.84375 3.734375 19.84375 4.46875 L 19.84375 9.761719 L 17.199219 9.761719 L 17.199219 4.46875 C 17.199219 3.734375 16.609375 3.144531 15.875 3.144531 C 15.140625 3.144531 14.550781 3.734375 14.550781 4.46875 L 14.550781 9.761719 L 11.90625 9.761719 L 11.90625 4.46875 C 11.90625 3.734375 11.316406 3.144531 10.582031 3.144531 Z M 11.90625 12.40625 L 14.550781 12.40625 L 14.550781 15.050781 L 11.90625 15.050781 Z M 17.199219 12.40625 L 19.84375 12.40625 L 19.84375 15.050781 L 17.199219 15.050781 Z M 22.488281 12.40625 L 25.136719 12.40625 L 25.136719 15.050781 L 22.488281 15.050781 Z M 27.78125 12.40625 L 30.425781 12.40625 L 30.425781 15.050781 L 27.78125 15.050781 Z M 33.074219 12.40625 L 35.71875 12.40625 L 35.71875 15.050781 L 33.074219 15.050781 Z M 38.363281 12.40625 L 41.011719 12.40625 L 41.011719 15.050781 L 38.363281 15.050781 Z M 43.65625 12.40625 L 46.300781 12.40625 L 46.300781 15.050781 L 43.65625 15.050781 Z M 48.949219 12.40625 L 51.59375 12.40625 L 51.59375 15.050781 L 48.949219 15.050781 Z M 11.90625 17.699219 L 14.550781 17.699219 L 14.550781 20.34375 L 11.90625 20.34375 Z M 17.199219 17.699219 L 19.84375 17.699219 L 19.84375 20.34375 L 17.199219 20.34375 Z M 22.488281 17.699219 L 25.136719 17.699219 L 25.136719 20.34375 L 22.488281 20.34375 Z M 27.78125 17.699219 L 30.425781 17.699219 L 30.425781 20.34375 L 27.78125 20.34375 Z M 33.074219 17.699219 L 35.71875 17.699219 L 35.71875 20.34375 L 33.074219 20.34375 Z M 38.363281 17.699219 L 41.011719 17.699219 L 41.011719 20.34375 L 38.363281 20.34375 Z M 43.65625 17.699219 L 46.300781 17.699219 L 46.300781 20.34375 L 43.65625 20.34375 Z M 48.949219 17.699219 L 51.59375 17.699219 L 51.59375 20.34375 L 48.949219 20.34375 Z M 11.90625 22.988281 L 14.550781 22.988281 L 14.550781 25.636719 L 11.90625 25.636719 Z M 17.199219 22.988281 L 19.84375 22.988281 L 19.84375 25.636719 L 17.199219 25.636719 Z M 22.488281 22.988281 L 25.136719 22.988281 L 25.136719 25.636719 L 22.488281 25.636719 Z M 27.78125 22.988281 L 30.425781 22.988281 L 30.425781 25.636719 L 27.78125 25.636719 Z M 33.074219 22.988281 L 35.71875 22.988281 L 35.71875 25.636719 L 33.074219 25.636719 Z M 38.363281 22.988281 L 41.011719 22.988281 L 41.011719 25.636719 L 38.363281 25.636719 Z M 43.65625 22.988281 L 46.300781 22.988281 L 46.300781 25.636719 L 43.65625 25.636719 Z M 48.949219 22.988281 L 51.59375 22.988281 L 51.59375 25.636719 L 48.949219 25.636719 Z M 11.90625 28.28125 L 14.550781 28.28125 L 14.550781 30.925781 L 11.90625 30.925781 Z M 17.199219 28.28125 L 19.84375 28.28125 L 19.84375 30.925781 L 17.199219 30.925781 Z M 22.488281 28.28125 L 25.136719 28.28125 L 25.136719 30.925781 L 22.488281 30.925781 Z M 27.78125 28.28125 L 30.425781 28.28125 L 30.425781 30.925781 L 27.78125 30.925781 Z M 33.074219 28.28125 L 35.71875 28.28125 L 35.71875 30.925781 L 33.074219 30.925781 Z M 38.363281 28.28125 L 41.011719 28.28125 L 41.011719 30.925781 L 38.363281 30.925781 Z M 43.65625 28.28125 L 46.300781 28.28125 L 46.300781 30.925781 L 43.65625 30.925781 Z M 48.949219 28.28125 L 51.59375 28.28125 L 51.59375 30.925781 L 48.949219 30.925781 Z M 11.90625 33.574219 L 14.550781 33.574219 L 14.550781 36.21875 L 11.90625 36.21875 Z M 17.199219 33.574219 L 19.84375 33.574219 L 19.84375 36.21875 L 17.199219 36.21875 Z M 22.488281 33.574219 L 25.136719 33.574219 L 25.136719 36.21875 L 22.488281 36.21875 Z M 27.78125 33.574219 L 30.425781 33.574219 L 30.425781 36.21875 L 27.78125 36.21875 Z M 33.074219 33.574219 L 35.71875 33.574219 L 35.71875 36.21875 L 33.074219 36.21875 Z M 38.363281 33.574219 L 41.011719 33.574219 L 41.011719 36.21875 L 38.363281 36.21875 Z M 43.65625 33.574219 L 46.300781 33.574219 L 46.300781 36.21875 L 43.65625 36.21875 Z M 48.949219 33.574219 L 51.59375 33.574219 L 51.59375 36.21875 L 48.949219 36.21875 Z M 11.90625 38.863281 L 14.550781 38.863281 L 14.550781 41.511719 L 11.90625 41.511719 Z M 17.199219 38.863281 L 19.84375 38.863281 L 19.84375 41.511719 L 17.199219 41.511719 Z M 22.488281 38.863281 L 25.136719 38.863281 L 25.136719 41.511719 L 22.488281 41.511719 Z M 27.78125 38.863281 L 30.425781 38.863281 L 30.425781 41.511719 L 27.78125 41.511719 Z M 33.074219 38.863281 L 35.71875 38.863281 L 35.71875 41.511719 L 33.074219 41.511719 Z M 38.363281 38.863281 L 41.011719 38.863281 L 41.011719 41.511719 L 38.363281 41.511719 Z M 43.65625 38.863281 L 46.300781 38.863281 L 46.300781 41.511719 L 43.65625 41.511719 Z M 48.949219 38.863281 L 51.59375 38.863281 L 51.59375 41.511719 L 48.949219 41.511719 Z M 11.90625 44.15625 L 14.550781 44.15625 L 14.550781 46.800781 L 11.90625 46.800781 Z M 17.199219 44.15625 L 19.84375 44.15625 L 19.84375 46.800781 L 17.199219 46.800781 Z M 22.488281 44.15625 L 25.136719 44.15625 L 25.136719 46.800781 L 22.488281 46.800781 Z M 27.78125 44.15625 L 30.425781 44.15625 L 30.425781 46.800781 L 27.78125 46.800781 Z M 33.074219 44.15625 L 35.71875 44.15625 L 35.71875 46.800781 L 33.074219 46.800781 Z M 38.363281 44.15625 L 41.011719 44.15625 L 41.011719 46.800781 L 38.363281 46.800781 Z M 43.65625 44.15625 L 46.300781 44.15625 L 46.300781 46.800781 L 43.65625 46.800781 Z M 48.949219 44.15625 L 51.59375 44.15625 L 51.59375 46.800781 L 48.949219 46.800781 Z M 11.90625 49.449219 L 14.550781 49.449219 L 14.550781 52.09375 L 11.90625 52.09375 Z M 17.199219 49.449219 L 19.84375 49.449219 L 19.84375 52.09375 L 17.199219 52.09375 Z M 22.488281 49.449219 L 25.136719 49.449219 L 25.136719 52.09375 L 22.488281 52.09375 Z M 27.78125 49.449219 L 30.425781 49.449219 L 30.425781 52.09375 L 27.78125 52.09375 Z M 33.074219 49.449219 L 35.71875 49.449219 L 35.71875 52.09375 L 33.074219 52.09375 Z M 38.363281 49.449219 L 41.011719 49.449219 L 41.011719 52.09375 L 38.363281 52.09375 Z M 43.65625 49.449219 L 46.300781 49.449219 L 46.300781 52.09375 L 43.65625 52.09375 Z M 48.949219 49.449219 L 51.59375 49.449219 L 51.59375 52.09375 L 48.949219 52.09375 Z M 48.949219 49.449219 "/>
<path style=" stroke:none;fill-rule:nonzero;fill:rgb(25.882354%,25.882354%,25.882354%);fill-opacity:1;" d="M 7.9375 5.792969 L 55.5625 5.792969 C 57.023438 5.792969 58.207031 6.976562 58.207031 8.4375 L 58.207031 56.0625 C 58.207031 57.523438 57.023438 58.707031 55.5625 58.707031 L 7.9375 58.707031 C 6.476562 58.707031 5.292969 57.523438 5.292969 56.0625 L 5.292969 8.4375 C 5.292969 6.976562 6.476562 5.792969 7.9375 5.792969 Z M 7.9375 5.792969 "/>
<path style="fill:none;stroke-width:0.105641;stroke-linecap:round;stroke-linejoin:round;stroke:rgb(96.078432%,96.078432%,96.078432%);stroke-opacity:1;stroke-miterlimit:4;" d="M 398.59375 89.5625 C 392.25 89.5625 385.875 90.1875 379.59375 91.53125 L 372 119.8125 L 357.34375 128.28125 L 329.0625 120.6875 C 320.46875 130.28125 314.09375 141.46875 310.125 153.40625 L 330.875 174.15625 L 330.875 191.0625 L 310.1875 211.75 C 312.125 217.65625 314.71875 223.46875 317.96875 229.09375 C 321.21875 234.6875 324.9375 239.84375 329.09375 244.5 L 357.34375 236.9375 L 372 245.375 L 379.59375 273.71875 C 391.90625 276.25 404.78125 276.3125 417.375 273.6875 L 424.96875 245.375 L 439.59375 236.9375 L 467.90625 244.5 C 476.5 234.90625 482.875 223.71875 486.84375 211.78125 L 466.09375 191.0625 L 466.09375 174.15625 L 486.78125 153.4375 C 484.8125 147.53125 482.21875 141.71875 479 136.125 C 475.75 130.5 472.03125 125.34375 467.875 120.6875 L 439.59375 128.28125 L 424.96875 119.8125 L 417.375 91.5 C 411.21875 90.21875 404.9375 89.5625 398.59375 89.5625 Z M 398.46875 144.3125 C 419.6875 144.3125 436.78125 161.375 436.78125 182.59375 C 436.78125 203.8125 419.6875 220.875 398.46875 220.875 C 377.28125 220.875 360.1875 203.8125 360.1875 182.59375 C 360.1875 161.375 377.28125 144.3125 398.46875 144.3125 Z M 398.46875 144.3125 " transform="matrix(0.125,0,0,0.125,0,26.875)"/>
<path style=" stroke:none;fill-rule:nonzero;fill:rgb(74.117649%,74.117649%,74.117649%);fill-opacity:1;" d="M 49.824219 38.070312 C 49.03125 38.070312 48.234375 38.148438 47.449219 38.316406 L 46.5 41.851562 L 44.667969 42.910156 L 41.132812 41.960938 C 40.058594 43.160156 39.261719 44.558594 38.765625 46.050781 L 41.359375 48.644531 L 41.359375 50.757812 L 38.773438 53.34375 C 39.015625 54.082031 39.339844 54.808594 39.746094 55.511719 C 40.152344 56.210938 40.617188 56.855469 41.136719 57.4375 L 44.667969 56.492188 L 46.5 57.546875 L 47.449219 61.089844 C 48.988281 61.40625 50.597656 61.414062 52.171875 61.085938 L 53.121094 57.546875 L 54.949219 56.492188 L 58.488281 57.4375 C 59.5625 56.238281 60.359375 54.839844 60.855469 53.347656 L 58.261719 50.757812 L 58.261719 48.644531 L 60.847656 46.054688 C 60.601562 45.316406 60.277344 44.589844 59.875 43.890625 C 59.46875 43.1875 59.003906 42.542969 58.484375 41.960938 L 54.949219 42.910156 L 53.121094 41.851562 L 52.171875 38.3125 C 51.402344 38.152344 50.617188 38.070312 49.824219 38.070312 Z M 49.808594 44.914062 C 52.460938 44.914062 54.597656 47.046875 54.597656 49.699219 C 54.597656 52.351562 52.460938 54.484375 49.808594 54.484375 C 47.160156 54.484375 45.023438 52.351562 45.023438 49.699219 C 45.023438 47.046875 47.160156 44.914062 49.808594 44.914062 Z M 49.808594 44.914062 "/>
<path style=" stroke:none;fill-rule:nonzero;fill:rgb(87.843138%,87.843138%,87.843138%);fill-opacity:1;" d="M 49.808594 41.25 C 45.128906 41.25 41.359375 45.019531 41.359375 49.699219 C 41.359375 54.382812 45.128906 58.152344 49.808594 58.152344 C 54.492188 58.152344 58.261719 54.382812 58.261719 49.699219 C 58.261719 45.019531 54.492188 41.25 49.808594 41.25 Z M 49.808594 44.914062 C 52.460938 44.914062 54.597656 47.046875 54.597656 49.699219 C 54.597656 52.351562 52.460938 54.484375 49.808594 54.484375 C 47.160156 54.484375 45.023438 52.351562 45.023438 49.699219 C 45.023438 47.046875 47.160156 44.914062 49.808594 44.914062 Z M 49.808594 44.914062 "/>
<path style=" stroke:none;fill-rule:nonzero;fill:rgb(45.882353%,45.882353%,45.882353%);fill-opacity:1;" d="M 49.808594 44.914062 C 47.175781 44.914062 45.054688 47.035156 45.054688 49.667969 C 45.054688 52.300781 47.175781 54.421875 49.808594 54.421875 C 52.445312 54.421875 54.5625 52.300781 54.5625 49.667969 C 54.5625 47.035156 52.445312 44.914062 49.808594 44.914062 Z M 49.808594 45.441406 C 52.152344 45.441406 54.035156 47.328125 54.035156 49.667969 C 54.035156 52.007812 52.152344 53.894531 49.808594 53.894531 C 47.46875 53.894531 45.585938 52.007812 45.585938 49.667969 C 45.585938 47.328125 47.46875 45.441406 49.808594 45.441406 Z M 49.808594 45.441406 "/>
<path style=" stroke:none;fill-rule:nonzero;fill:rgb(74.117649%,74.117649%,74.117649%);fill-opacity:1;" d="M 49.808594 44.386719 C 46.882812 44.386719 44.527344 46.742188 44.527344 49.667969 C 44.527344 52.59375 46.882812 54.949219 49.808594 54.949219 C 52.738281 54.949219 55.09375 52.59375 55.09375 49.667969 C 55.09375 46.742188 52.738281 44.386719 49.808594 44.386719 Z M 49.808594 44.914062 C 52.445312 44.914062 54.5625 47.035156 54.5625 49.667969 C 54.5625 52.300781 52.445312 54.421875 49.808594 54.421875 C 47.175781 54.421875 45.054688 52.300781 45.054688 49.667969 C 45.054688 47.035156 47.175781 44.914062 49.808594 44.914062 Z M 49.808594 44.914062 "/>
</g>
</svg>
