<?xml version="1.0" encoding="UTF-8"?>
<svg xmlns="http://www.w3.org/2000/svg" xmlns:xlink="http://www.w3.org/1999/xlink" width="64px" height="64px" viewBox="0 0 64 64" version="1.1">
<g id="surface1">
<path style=" stroke:none;fill-rule:nonzero;fill:rgb(49.411765%,34.117648%,76.078433%);fill-opacity:1;" d="M 5.714844 52.164062 L 5.714844 52.316406 C 5.714844 57.320312 17.328125 61.355469 31.753906 61.355469 C 46.179688 61.355469 57.792969 57.320312 57.792969 52.3125 L 57.792969 52.164062 C 57.792969 29.1875 37.878906 29.1875 37.878906 16.933594 C 37.878906 13.105469 40.84375 10.753906 42.476562 7.742188 C 44.773438 3.914062 42.640625 3.785156 38.261719 3.144531 C 35.582031 3.144531 37.703125 7.113281 35.582031 6.976562 C 34.050781 6.878906 33.242188 3.144531 31.753906 3.144531 C 29.765625 3.144531 30.984375 8.566406 28.6875 8.507812 C 25.796875 8.4375 27.925781 3.148438 25.242188 3.148438 C 18.210938 3.730469 18.355469 5.644531 19.5 7.742188 C 21.542969 10.808594 25.625 13.867188 25.625 16.9375 C 25.625 29.1875 5.714844 29.1875 5.714844 52.164062 Z M 5.714844 52.164062 "/>
<path style=" stroke:none;fill-rule:nonzero;fill:rgb(100%,65.490198%,14.901961%);fill-opacity:1;" d="M 25.796875 17.699219 L 37.703125 17.699219 C 38.070312 17.699219 38.363281 17.992188 38.363281 18.359375 C 38.363281 18.726562 38.070312 19.019531 37.703125 19.019531 L 25.796875 19.019531 C 25.429688 19.019531 25.136719 18.726562 25.136719 18.359375 C 25.136719 17.992188 25.429688 17.699219 25.796875 17.699219 Z M 25.796875 17.699219 "/>
<path style=" stroke:none;fill-rule:nonzero;fill:rgb(100%,65.490198%,14.901961%);fill-opacity:1;" d="M 33.753906 17.359375 C 33.5625 17.355469 33.375 17.4375 33.246094 17.582031 C 33.246094 17.582031 29.878906 21.242188 28.480469 25.078125 C 27.898438 26.679688 26.234375 28.476562 24.703125 29.808594 C 23.167969 31.140625 21.800781 32.023438 21.800781 32.023438 C 21.59375 32.152344 21.476562 32.378906 21.488281 32.617188 C 21.496094 32.855469 21.636719 33.070312 21.851562 33.179688 C 22.0625 33.285156 22.320312 33.269531 22.519531 33.136719 C 22.519531 33.136719 23.960938 32.203125 25.570312 30.804688 C 27.179688 29.410156 28.984375 27.566406 29.726562 25.53125 C 30.976562 22.09375 34.222656 18.472656 34.222656 18.472656 C 34.402344 18.285156 34.453125 18.003906 34.351562 17.765625 C 34.25 17.523438 34.015625 17.367188 33.753906 17.359375 Z M 33.753906 17.359375 "/>
<path style=" stroke:none;fill-rule:nonzero;fill:rgb(100%,65.490198%,14.901961%);fill-opacity:1;" d="M 33.730469 17.359375 C 33.542969 17.359375 33.367188 17.4375 33.242188 17.578125 C 33.117188 17.714844 33.054688 17.902344 33.074219 18.085938 C 33.074219 18.085938 33.4375 23.414062 36.9375 25.9375 C 39.984375 28.128906 43.109375 32.625 43.109375 32.625 C 43.242188 32.824219 43.472656 32.933594 43.710938 32.917969 C 43.949219 32.898438 44.15625 32.753906 44.257812 32.539062 C 44.363281 32.324219 44.339844 32.070312 44.203125 31.875 C 44.203125 31.875 41.09375 27.296875 37.710938 24.863281 C 34.929688 22.859375 34.394531 17.96875 34.394531 17.96875 C 34.367188 17.625 34.078125 17.355469 33.730469 17.359375 Z M 33.730469 17.359375 "/>
<path style=" stroke:none;fill-rule:nonzero;fill:rgb(100%,71.764708%,30.19608%);fill-opacity:1;" d="M 33.402344 16.707031 C 34.316406 16.707031 35.058594 17.378906 35.058594 18.210938 L 35.058594 18.507812 C 35.058594 19.339844 34.316406 20.011719 33.402344 20.011719 C 32.492188 20.011719 31.75 19.339844 31.75 18.507812 L 31.75 18.210938 C 31.75 17.378906 32.492188 16.707031 33.402344 16.707031 Z M 33.402344 16.707031 "/>
</g>
</svg>
