<?xml version="1.0" encoding="UTF-8"?>
<svg xmlns="http://www.w3.org/2000/svg" xmlns:xlink="http://www.w3.org/1999/xlink" width="64px" height="64px" viewBox="0 0 64 64" version="1.1">
<defs>
<linearGradient id="linear0" gradientUnits="userSpaceOnUse" x1="256.645844" y1="214.979156" x2="256.645844" y2="254.666656" gradientTransform="matrix(0.125,0,0,0.125,-0.33073,30.843751)">
<stop offset="0" style="stop-color:rgb(12.941177%,12.941177%,12.941177%);stop-opacity:0.392157;"/>
<stop offset="1" style="stop-color:rgb(0%,0%,0%);stop-opacity:0;"/>
</linearGradient>
<radialGradient id="radial0" gradientUnits="userSpaceOnUse" cx="40.789936" cy="242.13031" fx="40.789936" fy="242.13031" r="10.583335" gradientTransform="matrix(-0.5625,0.000000509324,-0.000000416009,-0.4375,48.079857,163.978914)">
<stop offset="0" style="stop-color:rgb(12.941177%,12.941177%,12.941177%);stop-opacity:0.392157;"/>
<stop offset="1" style="stop-color:rgb(12.941177%,12.941177%,12.941177%);stop-opacity:0;"/>
</radialGradient>
<radialGradient id="radial1" gradientUnits="userSpaceOnUse" cx="40.789936" cy="242.13031" fx="40.789936" fy="242.13031" r="10.583335" gradientTransform="matrix(0.5625,0.000000509324,0.000000416009,-0.4375,15.420146,163.978914)">
<stop offset="0" style="stop-color:rgb(12.941177%,12.941177%,12.941177%);stop-opacity:0.392157;"/>
<stop offset="1" style="stop-color:rgb(12.941177%,12.941177%,12.941177%);stop-opacity:0;"/>
</radialGradient>
<linearGradient id="linear1" gradientUnits="userSpaceOnUse" x1="254" y1="275.833344" x2="254" y2="-189.833328" gradientTransform="matrix(0.125,0,0,0.125,0,26.875)">
<stop offset="0" style="stop-color:rgb(40.000001%,73.333335%,41.568628%);stop-opacity:1;"/>
<stop offset="1" style="stop-color:rgb(64.705884%,83.92157%,65.490198%);stop-opacity:1;"/>
</linearGradient>
<linearGradient id="linear2" gradientUnits="userSpaceOnUse" x1="254" y1="275.833344" x2="254" y2="-189.833328" gradientTransform="matrix(0.119318,0,0,0.119318,1.443182,27.119318)">
<stop offset="0" style="stop-color:rgb(87.843138%,87.843138%,87.843138%);stop-opacity:1;"/>
<stop offset="1" style="stop-color:rgb(93.333334%,93.333334%,93.333334%);stop-opacity:1;"/>
</linearGradient>
<linearGradient id="linear3" gradientUnits="userSpaceOnUse" x1="254" y1="275.833344" x2="254" y2="-189.833328" gradientTransform="matrix(0.107955,0,0,0.107955,4.329544,27.607954)">
<stop offset="0" style="stop-color:rgb(40.000001%,73.333335%,41.568628%);stop-opacity:1;"/>
<stop offset="1" style="stop-color:rgb(64.705884%,83.92157%,65.490198%);stop-opacity:1;"/>
</linearGradient>
<linearGradient id="linear4" gradientUnits="userSpaceOnUse" x1="243.416672" y1="212.333328" x2="243.416672" y2="-31.083332" gradientTransform="matrix(0.125,0,0,0.125,-1.322917,26.874999)">
<stop offset="0" style="stop-color:rgb(87.843138%,87.843138%,87.843138%);stop-opacity:1;"/>
<stop offset="1" style="stop-color:rgb(93.333334%,93.333334%,93.333334%);stop-opacity:1;"/>
</linearGradient>
<linearGradient id="linear5" gradientUnits="userSpaceOnUse" x1="232.833328" y1="212.333328" x2="232.833328" y2="-31.083334" gradientTransform="matrix(0.125,0,0,0.125,6.614584,14.968751)">
<stop offset="0" style="stop-color:rgb(87.843138%,87.843138%,87.843138%);stop-opacity:1;"/>
<stop offset="1" style="stop-color:rgb(93.333334%,93.333334%,93.333334%);stop-opacity:1;"/>
</linearGradient>
</defs>
<g id="surface1">
<path style=" stroke:none;fill-rule:nonzero;fill:url(#linear0);" d="M 25.136719 58.707031 L 38.363281 58.707031 L 38.363281 62.675781 L 25.136719 62.675781 Z M 25.136719 58.707031 "/>
<path style=" stroke:none;fill-rule:nonzero;fill:url(#radial0);" d="M 19.183594 58.046875 L 25.136719 58.046875 L 25.136719 62.675781 L 19.183594 62.675781 Z M 19.183594 58.046875 "/>
<path style=" stroke:none;fill-rule:nonzero;fill:url(#radial1);" d="M 44.316406 58.046875 L 38.363281 58.046875 L 38.363281 62.675781 L 44.316406 62.675781 Z M 44.316406 58.046875 "/>
<path style=" stroke:none;fill-rule:nonzero;fill:url(#linear1);" d="M 31.75 3.144531 C 47.824219 3.144531 60.855469 16.175781 60.855469 32.25 C 60.855469 48.324219 47.824219 61.355469 31.75 61.355469 C 15.675781 61.355469 2.644531 48.324219 2.644531 32.25 C 2.644531 16.175781 15.675781 3.144531 31.75 3.144531 Z M 31.75 3.144531 "/>
<path style=" stroke:none;fill-rule:nonzero;fill:url(#linear2);" d="M 31.75 4.46875 C 47.09375 4.46875 59.53125 16.90625 59.53125 32.25 C 59.53125 47.59375 47.09375 60.03125 31.75 60.03125 C 16.40625 60.03125 3.96875 47.59375 3.96875 32.25 C 3.96875 16.90625 16.40625 4.46875 31.75 4.46875 Z M 31.75 4.46875 "/>
<path style=" stroke:none;fill-rule:nonzero;fill:url(#linear3);" d="M 31.75 7.113281 C 45.632812 7.113281 56.886719 18.367188 56.886719 32.25 C 56.886719 46.132812 45.632812 57.386719 31.75 57.386719 C 17.867188 57.386719 6.613281 46.132812 6.613281 32.25 C 6.613281 18.367188 17.867188 7.113281 31.75 7.113281 Z M 31.75 7.113281 "/>
<path style=" stroke:none;fill-rule:nonzero;fill:url(#linear4);" d="M 20.503906 22.988281 C 15.007812 22.988281 10.582031 27.121094 10.582031 32.25 C 10.582031 37.378906 15.007812 41.511719 20.503906 41.511719 C 22.742188 41.511719 24.800781 40.824219 26.457031 39.667969 L 26.457031 52.09375 C 26.457031 52.828125 27.046875 53.417969 27.78125 53.417969 L 29.105469 53.417969 C 29.835938 53.417969 30.425781 52.828125 30.425781 52.09375 L 30.425781 24.3125 C 30.425781 23.578125 29.835938 22.988281 29.105469 22.988281 L 27.78125 22.988281 C 27.046875 22.988281 26.457031 23.578125 26.457031 24.3125 L 26.457031 24.832031 C 24.800781 23.675781 22.742188 22.988281 20.503906 22.988281 Z M 20.503906 26.957031 C 23.804688 26.957031 26.457031 29.320312 26.457031 32.25 C 26.457031 35.179688 23.804688 37.542969 20.503906 37.542969 C 17.207031 37.542969 14.550781 35.179688 14.550781 32.25 C 14.550781 29.320312 17.207031 26.957031 20.503906 26.957031 Z M 20.503906 26.957031 "/>
<path style=" stroke:none;fill-rule:nonzero;fill:url(#linear5);" d="M 34.394531 11.082031 C 33.664062 11.082031 33.074219 11.671875 33.074219 12.40625 L 33.074219 30.925781 C 33.074219 31.054688 33.089844 31.179688 33.125 31.292969 C 33.089844 31.609375 33.074219 31.925781 33.074219 32.25 C 33.074219 37.378906 37.5 41.511719 42.996094 41.511719 C 48.492188 41.511719 52.917969 37.378906 52.917969 32.25 C 52.917969 31.515625 52.328125 30.925781 51.59375 30.925781 L 50.269531 30.925781 C 49.539062 30.925781 48.949219 31.515625 48.949219 32.25 C 48.949219 35.179688 46.292969 37.542969 42.996094 37.542969 C 39.695312 37.542969 37.042969 35.179688 37.042969 32.25 L 37.042969 26.957031 L 44.980469 26.957031 C 45.710938 26.957031 46.300781 26.367188 46.300781 25.636719 L 46.300781 24.3125 C 46.300781 23.578125 45.710938 22.988281 44.980469 22.988281 L 37.042969 22.988281 L 37.042969 12.40625 C 37.042969 11.671875 36.453125 11.082031 35.71875 11.082031 Z M 34.394531 11.082031 "/>
</g>
</svg>
