
<svg xmlns="http://www.w3.org/2000/svg" xmlns:xlink="http://www.w3.org/1999/xlink" width="64px" height="64px" viewBox="0 0 64 64" version="1.1">
<g id="surface1">
<path style=" stroke:none;fill-rule:nonzero;fill:rgb(22.352941%,28.627452%,67.058825%);fill-opacity:1;" d="M 52.917969 46.3125 C 53.640625 46.3125 54.230469 46.898438 54.230469 47.625 L 54.230469 58.207031 C 54.230469 59.207031 53.152344 59.839844 52.277344 59.355469 L 40.371094 51.417969 C 39.957031 51.1875 39.699219 50.746094 39.699219 50.269531 L 39.699219 47.625 C 39.699219 46.898438 40.285156 46.3125 41.011719 46.3125 Z M 52.917969 46.3125 "/>
<path style=" stroke:none;fill-rule:nonzero;fill:rgb(36.078432%,41.960785%,75.294119%);fill-opacity:1;" d="M 58.207031 3.96875 L 5.292969 3.96875 C 3.832031 3.96875 2.644531 5.152344 2.644531 6.613281 L 2.644531 48.949219 C 2.644531 50.410156 3.832031 51.59375 5.292969 51.59375 L 58.207031 51.59375 C 59.667969 51.59375 60.855469 50.410156 60.855469 48.949219 L 60.855469 6.613281 C 60.855469 5.152344 59.667969 3.96875 58.207031 3.96875 Z M 58.207031 3.96875 "/>
<path style=" stroke:none;fill-rule:nonzero;fill:rgb(96.078432%,96.078432%,96.078432%);fill-opacity:1;" d="M 31.75 14.550781 C 24.421875 14.550781 18.519531 20.453125 18.519531 27.78125 C 18.519531 35.109375 24.421875 41.011719 31.75 41.011719 C 39.078125 41.011719 44.980469 35.109375 44.980469 27.78125 C 44.980469 20.453125 39.078125 14.550781 31.75 14.550781 Z M 31.75 17.199219 C 37.613281 17.199219 42.332031 21.917969 42.332031 27.78125 C 42.332031 33.644531 37.613281 38.363281 31.75 38.363281 C 25.886719 38.363281 21.167969 33.644531 21.167969 27.78125 C 21.167969 21.917969 25.886719 17.199219 31.75 17.199219 Z M 31.75 17.199219 "/>
<path style=" stroke:none;fill-rule:nonzero;fill:rgb(93.333334%,93.333334%,93.333334%);fill-opacity:1;" d="M 38.921875 29.25 C 40.03125 29.886719 40.410156 31.304688 39.769531 32.410156 C 39.128906 33.519531 37.714844 33.898438 36.605469 33.257812 C 35.5 32.621094 35.121094 31.203125 35.761719 30.097656 C 36.398438 28.988281 37.816406 28.609375 38.921875 29.25 Z M 38.921875 29.25 "/>
<path style=" stroke:none;fill-rule:nonzero;fill:rgb(93.333334%,93.333334%,93.333334%);fill-opacity:1;" d="M 31.75 14.550781 C 24.421875 14.550781 18.519531 20.453125 18.519531 27.78125 C 18.519531 35.109375 24.421875 41.011719 31.75 41.011719 C 39.078125 41.011719 44.980469 35.109375 44.980469 27.78125 C 44.980469 20.453125 39.078125 14.550781 31.75 14.550781 Z M 31.75 17.859375 C 37.246094 17.859375 41.671875 22.285156 41.671875 27.78125 C 41.671875 33.277344 37.246094 37.703125 31.75 37.703125 C 26.253906 37.703125 21.828125 33.277344 21.828125 27.78125 C 21.828125 22.285156 26.253906 17.859375 31.75 17.859375 Z M 31.75 17.859375 "/>
</g>
</svg>
