<?xml version="1.0" encoding="UTF-8"?>
<svg xmlns="http://www.w3.org/2000/svg" xmlns:xlink="http://www.w3.org/1999/xlink" width="64px" height="64px" viewBox="0 0 64 64" version="1.1">
<defs>
<linearGradient id="linear0" gradientUnits="userSpaceOnUse" x1="42.333332" y1="42.999996" x2="465.666656" y2="42.999996" gradientTransform="matrix(0.125,0,0,0.125,0.000000833333,26.374999)">
<stop offset="0" style="stop-color:rgb(97.254902%,97.254902%,97.254902%);stop-opacity:0;"/>
<stop offset="0.5" style="stop-color:rgb(61.176473%,80.000001%,39.607844%);stop-opacity:0.0784314;"/>
<stop offset="1" style="stop-color:rgb(61.176473%,80.000001%,39.607844%);stop-opacity:0;"/>
</linearGradient>
</defs>
<g id="surface1">
<path style=" stroke:none;fill-rule:nonzero;fill:rgb(25.882354%,25.882354%,25.882354%);fill-opacity:1;" d="M 5.292969 5.292969 L 58.207031 5.292969 C 59.667969 5.292969 60.855469 6.476562 60.855469 7.9375 L 60.855469 55.5625 C 60.855469 57.023438 59.667969 58.207031 58.207031 58.207031 L 5.292969 58.207031 C 3.832031 58.207031 2.644531 57.023438 2.644531 55.5625 L 2.644531 7.9375 C 2.644531 6.476562 3.832031 5.292969 5.292969 5.292969 Z M 5.292969 5.292969 "/>
<path style=" stroke:none;fill-rule:nonzero;fill:url(#linear0);" d="M 5.292969 7.277344 L 5.292969 8.597656 L 58.207031 8.597656 L 58.207031 7.277344 Z M 5.292969 11.246094 L 5.292969 12.566406 L 58.207031 12.566406 L 58.207031 11.246094 Z M 5.292969 15.214844 L 5.292969 16.535156 L 58.207031 16.535156 L 58.207031 15.214844 Z M 5.292969 19.183594 L 5.292969 20.503906 L 58.207031 20.503906 L 58.207031 19.183594 Z M 5.292969 23.152344 L 5.292969 24.472656 L 58.207031 24.472656 L 58.207031 23.152344 Z M 5.292969 27.121094 L 5.292969 28.441406 L 58.207031 28.441406 L 58.207031 27.121094 Z M 5.292969 31.089844 L 5.292969 32.410156 L 58.207031 32.410156 L 58.207031 31.089844 Z M 5.292969 35.058594 L 5.292969 36.378906 L 58.207031 36.378906 L 58.207031 35.058594 Z M 5.292969 39.027344 L 5.292969 40.347656 L 58.207031 40.347656 L 58.207031 39.027344 Z M 5.292969 42.996094 L 5.292969 44.316406 L 58.207031 44.316406 L 58.207031 42.996094 Z M 5.292969 46.964844 L 5.292969 48.285156 L 58.207031 48.285156 L 58.207031 46.964844 Z M 5.292969 50.933594 L 5.292969 52.253906 L 58.207031 52.253906 L 58.207031 50.933594 Z M 5.292969 54.902344 L 5.292969 56.222656 L 58.207031 56.222656 L 58.207031 54.902344 Z M 5.292969 54.902344 "/>
<path style=" stroke:none;fill-rule:nonzero;fill:rgb(74.117649%,74.117649%,74.117649%);fill-opacity:1;" d="M 11.8125 37.703125 C 10.253906 37.707031 8.699219 38.234375 7.464844 39.183594 C 6.128906 40.199219 5.167969 41.699219 4.804688 43.339844 C 4.660156 43.96875 4.617188 44.621094 4.632812 45.265625 C 4.632812 46.527344 4.632812 47.785156 4.632812 49.046875 C 4.679688 49.105469 4.78125 49.058594 4.851562 49.074219 C 5.472656 49.074219 6.09375 49.074219 6.714844 49.074219 C 6.773438 49.027344 6.726562 48.921875 6.742188 48.855469 C 6.742188 47.492188 6.738281 46.128906 6.742188 44.765625 C 6.777344 43.570312 7.25 42.390625 8.054688 41.503906 C 8.886719 40.570312 10.070312 39.964844 11.316406 39.839844 C 12.503906 39.710938 13.738281 40.011719 14.726562 40.683594 C 15.753906 41.375 16.515625 42.449219 16.820312 43.648438 C 16.957031 44.167969 16.992188 44.703125 16.980469 45.238281 C 16.980469 46.507812 16.980469 47.777344 16.980469 49.046875 C 17.027344 49.105469 17.128906 49.058594 17.199219 49.074219 C 17.820312 49.074219 18.441406 49.074219 19.0625 49.074219 C 19.121094 49.027344 19.074219 48.921875 19.089844 48.855469 C 19.085938 47.476562 19.09375 46.097656 19.085938 44.71875 C 19.046875 43.148438 18.472656 41.59375 17.480469 40.375 C 16.4375 39.078125 14.929688 38.164062 13.296875 37.84375 C 12.808594 37.746094 12.308594 37.699219 11.8125 37.703125 Z M 11.8125 37.703125 "/>
<path style=" stroke:none;fill-rule:nonzero;fill:rgb(61.176473%,80.000001%,39.607844%);fill-opacity:1;" d="M 3.675781 48.507812 L 20.136719 48.507812 C 20.707031 48.507812 21.167969 48.96875 21.167969 49.535156 L 21.167969 59.824219 C 21.167969 60.394531 20.707031 60.855469 20.136719 60.855469 L 3.675781 60.855469 C 3.105469 60.855469 2.644531 60.394531 2.644531 59.824219 L 2.644531 49.535156 C 2.644531 48.96875 3.105469 48.507812 3.675781 48.507812 Z M 3.675781 48.507812 "/>
<path style=" stroke:none;fill-rule:nonzero;fill:rgb(48.627451%,70.19608%,25.882354%);fill-opacity:1;" d="M 2.644531 50.269531 L 7.277344 50.269531 L 7.277344 51.300781 L 2.644531 51.300781 Z M 2.644531 50.269531 "/>
<path style=" stroke:none;fill-rule:nonzero;fill:rgb(48.627451%,70.19608%,25.882354%);fill-opacity:1;" d="M 2.644531 52.328125 L 7.277344 52.328125 L 7.277344 53.359375 L 2.644531 53.359375 Z M 2.644531 52.328125 "/>
<path style=" stroke:none;fill-rule:nonzero;fill:rgb(48.627451%,70.19608%,25.882354%);fill-opacity:1;" d="M 2.644531 54.386719 L 7.277344 54.386719 L 7.277344 55.414062 L 2.644531 55.414062 Z M 2.644531 54.386719 "/>
<path style=" stroke:none;fill-rule:nonzero;fill:rgb(48.627451%,70.19608%,25.882354%);fill-opacity:1;" d="M 2.644531 56.445312 L 7.277344 56.445312 L 7.277344 57.472656 L 2.644531 57.472656 Z M 2.644531 56.445312 "/>
<path style=" stroke:none;fill-rule:nonzero;fill:rgb(48.627451%,70.19608%,25.882354%);fill-opacity:1;" d="M 2.644531 58.503906 L 7.277344 58.503906 L 7.277344 59.53125 L 2.644531 59.53125 Z M 2.644531 58.503906 "/>
<path style=" stroke:none;fill-rule:nonzero;fill:rgb(48.627451%,70.19608%,25.882354%);fill-opacity:1;" d="M 16.535156 50.269531 L 21.167969 50.269531 L 21.167969 51.300781 L 16.535156 51.300781 Z M 16.535156 50.269531 "/>
<path style=" stroke:none;fill-rule:nonzero;fill:rgb(48.627451%,70.19608%,25.882354%);fill-opacity:1;" d="M 16.535156 52.328125 L 21.167969 52.328125 L 21.167969 53.359375 L 16.535156 53.359375 Z M 16.535156 52.328125 "/>
<path style=" stroke:none;fill-rule:nonzero;fill:rgb(48.627451%,70.19608%,25.882354%);fill-opacity:1;" d="M 16.535156 54.386719 L 21.167969 54.386719 L 21.167969 55.414062 L 16.535156 55.414062 Z M 16.535156 54.386719 "/>
<path style=" stroke:none;fill-rule:nonzero;fill:rgb(48.627451%,70.19608%,25.882354%);fill-opacity:1;" d="M 16.535156 56.445312 L 21.167969 56.445312 L 21.167969 57.472656 L 16.535156 57.472656 Z M 16.535156 56.445312 "/>
<path style=" stroke:none;fill-rule:nonzero;fill:rgb(48.627451%,70.19608%,25.882354%);fill-opacity:1;" d="M 16.535156 58.503906 L 21.167969 58.503906 L 21.167969 59.53125 L 16.535156 59.53125 Z M 16.535156 58.503906 "/>
<path style=" stroke:none;fill-rule:nonzero;fill:rgb(61.176473%,80.000001%,39.607844%);fill-opacity:1;" d="M 11.246094 8.597656 L 12.566406 8.597656 C 12.933594 8.597656 13.230469 8.894531 13.230469 9.261719 L 13.230469 11.246094 C 13.230469 11.609375 12.933594 11.90625 12.566406 11.90625 L 11.246094 11.90625 C 10.878906 11.90625 10.582031 11.609375 10.582031 11.246094 L 10.582031 9.261719 C 10.582031 8.894531 10.878906 8.597656 11.246094 8.597656 Z M 11.246094 8.597656 "/>
<path style=" stroke:none;fill-rule:nonzero;fill:rgb(61.176473%,80.000001%,39.607844%);fill-opacity:1;" d="M 21.828125 25.136719 L 25.136719 25.136719 C 25.867188 25.136719 26.457031 25.726562 26.457031 26.457031 C 26.457031 27.1875 25.867188 27.78125 25.136719 27.78125 L 21.828125 27.78125 C 21.097656 27.78125 20.503906 27.1875 20.503906 26.457031 C 20.503906 25.726562 21.097656 25.136719 21.828125 25.136719 Z M 21.828125 25.136719 "/>
<path style=" stroke:none;fill-rule:nonzero;fill:rgb(61.176473%,80.000001%,39.607844%);fill-opacity:1;" d="M 11.246094 26.457031 L 12.566406 26.457031 C 12.933594 26.457031 13.230469 26.753906 13.230469 27.121094 L 13.230469 29.105469 C 13.230469 29.46875 12.933594 29.765625 12.566406 29.765625 L 11.246094 29.765625 C 10.878906 29.765625 10.582031 29.46875 10.582031 29.105469 L 10.582031 27.121094 C 10.582031 26.753906 10.878906 26.457031 11.246094 26.457031 Z M 11.246094 26.457031 "/>
<path style=" stroke:none;fill-rule:nonzero;fill:rgb(61.176473%,80.000001%,39.607844%);fill-opacity:1;" d="M 11.917969 9.921875 C 10.375 9.894531 8.90625 10.28125 7.777344 11.1875 C 6.648438 12.097656 5.953125 13.554688 5.953125 15.214844 C 5.953125 16.976562 6.992188 18.328125 8.136719 19.058594 C 9.28125 19.785156 10.539062 20.121094 11.488281 20.4375 C 12.523438 20.78125 13.582031 21.109375 14.253906 21.539062 C 14.929688 21.964844 15.214844 22.269531 15.214844 23.152344 C 15.214844 24.144531 14.910156 24.675781 14.386719 25.09375 C 13.863281 25.515625 13.007812 25.796875 11.90625 25.796875 C 10.804688 25.796875 9.902344 25.507812 9.355469 25.125 C 8.8125 24.746094 8.597656 24.363281 8.597656 23.8125 C 8.605469 23.335938 8.355469 22.890625 7.941406 22.652344 C 7.53125 22.410156 7.019531 22.410156 6.609375 22.652344 C 6.199219 22.890625 5.945312 23.335938 5.953125 23.8125 C 5.953125 25.246094 6.734375 26.519531 7.839844 27.292969 C 8.949219 28.070312 10.363281 28.441406 11.90625 28.441406 C 13.449219 28.441406 14.910156 28.0625 16.039062 27.160156 C 17.167969 26.257812 17.859375 24.804688 17.859375 23.152344 C 17.859375 21.386719 16.820312 20.035156 15.675781 19.308594 C 14.53125 18.578125 13.273438 18.246094 12.324219 17.925781 C 11.289062 17.582031 10.230469 17.253906 9.558594 16.828125 C 8.882812 16.398438 8.597656 16.09375 8.597656 15.214844 C 8.597656 14.226562 8.910156 13.675781 9.4375 13.25 C 9.964844 12.824219 10.808594 12.546875 11.882812 12.566406 C 11.890625 12.566406 11.898438 12.566406 11.90625 12.566406 C 13.007812 12.566406 13.910156 12.855469 14.457031 13.238281 C 15 13.621094 15.214844 14 15.214844 14.550781 C 15.207031 15.027344 15.457031 15.472656 15.871094 15.710938 C 16.28125 15.953125 16.792969 15.953125 17.203125 15.710938 C 17.613281 15.472656 17.867188 15.027344 17.859375 14.550781 C 17.859375 13.121094 17.078125 11.847656 15.972656 11.070312 C 14.867188 10.296875 13.457031 9.925781 11.917969 9.921875 Z M 11.917969 9.921875 "/>
</g>
</svg>
