
<svg xmlns="http://www.w3.org/2000/svg" xmlns:xlink="http://www.w3.org/1999/xlink" width="64px" height="64px" viewBox="0 0 64 64" version="1.1">
<g id="surface1">
<path style=" stroke:none;fill-rule:nonzero;fill:rgb(25.882354%,64.705884%,96.078432%);fill-opacity:1;" d="M 31.75 2.484375 C 15.625 2.484375 2.644531 15.464844 2.644531 31.589844 C 2.644531 36.582031 3.890625 41.269531 6.085938 45.367188 L 2.644531 60.855469 L 18.230469 57.390625 C 22.265625 59.5 26.863281 60.691406 31.75 60.691406 C 47.875 60.691406 60.855469 47.710938 60.855469 31.589844 C 60.855469 15.464844 47.875 2.484375 31.75 2.484375 Z M 31.75 2.484375 "/>
<path style=" stroke:none;fill-rule:nonzero;fill:rgb(93.333334%,93.333334%,93.333334%);fill-opacity:1;" d="M 31.75 10.582031 C 20.023438 10.582031 10.582031 20.023438 10.582031 31.75 C 10.582031 35.226562 11.414062 38.503906 12.886719 41.394531 L 10.582031 52.917969 L 22.105469 50.613281 C 24.996094 52.085938 28.273438 52.917969 31.75 52.917969 C 43.476562 52.917969 52.917969 43.476562 52.917969 31.75 C 52.917969 20.023438 43.476562 10.582031 31.75 10.582031 Z M 31.75 10.582031 "/>
<path style="fill:none;stroke-width:10.583333;stroke-linecap:round;stroke-linejoin:miter;stroke:rgb(96.078432%,96.078432%,96.078432%);stroke-opacity:1;stroke-dasharray:42.333332,42.333332;stroke-dashoffset:6.35;stroke-miterlimit:4;" d="M 254 -162.09375 C 142.59375 -162.09375 52.90625 -72.40625 52.90625 39 C 52.90625 72.03125 60.8125 103.15625 74.8125 130.625 L 52.90625 240.09375 L 162.375 218.1875 C 189.84375 232.1875 220.96875 240.09375 254 240.09375 C 365.40625 240.09375 455.09375 150.40625 455.09375 39 C 455.09375 -72.40625 365.40625 -162.09375 254 -162.09375 Z M 254 -162.09375 " transform="matrix(0.125,0,0,0.125,0,26.875)"/>
</g>
</svg>
