
<svg xmlns="http://www.w3.org/2000/svg" xmlns:xlink="http://www.w3.org/1999/xlink" width="64px" height="64px" viewBox="0 0 64 64" version="1.1">
<g id="surface1">
<path style=" stroke:none;fill-rule:nonzero;fill:rgb(61.960787%,61.960787%,61.960787%);fill-opacity:0.999958;" d="M 6.613281 18.519531 L 56.886719 18.519531 L 56.886719 50.269531 L 6.613281 50.269531 Z M 6.613281 18.519531 "/>
<path style=" stroke:none;fill-rule:nonzero;fill:rgb(87.843138%,87.843138%,87.843138%);fill-opacity:1;" d="M 5.292969 3.96875 L 58.207031 3.96875 C 59.667969 3.96875 60.855469 5.152344 60.855469 6.613281 L 60.855469 18.519531 C 60.855469 19.980469 59.667969 21.167969 58.207031 21.167969 L 5.292969 21.167969 C 3.832031 21.167969 2.644531 19.980469 2.644531 18.519531 L 2.644531 6.613281 C 2.644531 5.152344 3.832031 3.96875 5.292969 3.96875 Z M 5.292969 3.96875 "/>
<path style=" stroke:none;fill-rule:nonzero;fill:rgb(87.843138%,87.843138%,87.843138%);fill-opacity:1;" d="M 5.292969 43.65625 L 58.207031 43.65625 C 59.667969 43.65625 60.855469 44.839844 60.855469 46.300781 L 60.855469 58.207031 C 60.855469 59.667969 59.667969 60.855469 58.207031 60.855469 L 5.292969 60.855469 C 3.832031 60.855469 2.644531 59.667969 2.644531 58.207031 L 2.644531 46.300781 C 2.644531 44.839844 3.832031 43.65625 5.292969 43.65625 Z M 5.292969 43.65625 "/>
<path style=" stroke:none;fill-rule:nonzero;fill:rgb(87.843138%,87.843138%,87.843138%);fill-opacity:1;" d="M 5.292969 23.8125 L 58.207031 23.8125 C 59.667969 23.8125 60.855469 24.996094 60.855469 26.457031 L 60.855469 38.363281 C 60.855469 39.824219 59.667969 41.011719 58.207031 41.011719 L 5.292969 41.011719 C 3.832031 41.011719 2.644531 39.824219 2.644531 38.363281 L 2.644531 26.457031 C 2.644531 24.996094 3.832031 23.8125 5.292969 23.8125 Z M 5.292969 23.8125 "/>
<path style=" stroke:none;fill-rule:nonzero;fill:rgb(96.078432%,96.078432%,96.078432%);fill-opacity:0.999958;" d="M 6.613281 6.613281 L 7.9375 6.613281 C 8.667969 6.613281 9.261719 7.207031 9.261719 7.9375 L 9.261719 17.199219 C 9.261719 17.929688 8.667969 18.519531 7.9375 18.519531 L 6.613281 18.519531 C 5.882812 18.519531 5.292969 17.929688 5.292969 17.199219 L 5.292969 7.9375 C 5.292969 7.207031 5.882812 6.613281 6.613281 6.613281 Z M 6.613281 6.613281 "/>
<path style=" stroke:none;fill-rule:nonzero;fill:rgb(96.078432%,96.078432%,96.078432%);fill-opacity:0.999958;" d="M 6.613281 26.457031 L 7.9375 26.457031 C 8.667969 26.457031 9.261719 27.050781 9.261719 27.78125 L 9.261719 37.042969 C 9.261719 37.773438 8.667969 38.363281 7.9375 38.363281 L 6.613281 38.363281 C 5.882812 38.363281 5.292969 37.773438 5.292969 37.042969 L 5.292969 27.78125 C 5.292969 27.050781 5.882812 26.457031 6.613281 26.457031 Z M 6.613281 26.457031 "/>
<path style=" stroke:none;fill-rule:nonzero;fill:rgb(96.078432%,96.078432%,96.078432%);fill-opacity:0.999958;" d="M 6.613281 46.300781 L 7.9375 46.300781 C 8.667969 46.300781 9.261719 46.894531 9.261719 47.625 L 9.261719 56.886719 C 9.261719 57.617188 8.667969 58.207031 7.9375 58.207031 L 6.613281 58.207031 C 5.882812 58.207031 5.292969 57.617188 5.292969 56.886719 L 5.292969 47.625 C 5.292969 46.894531 5.882812 46.300781 6.613281 46.300781 Z M 6.613281 46.300781 "/>
<path style=" stroke:none;fill-rule:nonzero;fill:rgb(74.117649%,74.117649%,74.117649%);fill-opacity:0.999958;" d="M 55.5625 6.613281 L 56.886719 6.613281 C 57.617188 6.613281 58.207031 7.207031 58.207031 7.9375 L 58.207031 17.199219 C 58.207031 17.929688 57.617188 18.519531 56.886719 18.519531 L 55.5625 18.519531 C 54.832031 18.519531 54.238281 17.929688 54.238281 17.199219 L 54.238281 7.9375 C 54.238281 7.207031 54.832031 6.613281 55.5625 6.613281 Z M 55.5625 6.613281 "/>
<path style=" stroke:none;fill-rule:nonzero;fill:rgb(74.117649%,74.117649%,74.117649%);fill-opacity:0.999958;" d="M 55.5625 26.457031 L 56.886719 26.457031 C 57.617188 26.457031 58.207031 27.050781 58.207031 27.78125 L 58.207031 37.042969 C 58.207031 37.773438 57.617188 38.363281 56.886719 38.363281 L 55.5625 38.363281 C 54.832031 38.363281 54.238281 37.773438 54.238281 37.042969 L 54.238281 27.78125 C 54.238281 27.050781 54.832031 26.457031 55.5625 26.457031 Z M 55.5625 26.457031 "/>
<path style=" stroke:none;fill-rule:nonzero;fill:rgb(74.117649%,74.117649%,74.117649%);fill-opacity:0.999958;" d="M 55.5625 46.300781 L 56.886719 46.300781 C 57.617188 46.300781 58.207031 46.894531 58.207031 47.625 L 58.207031 56.886719 C 58.207031 57.617188 57.617188 58.207031 56.886719 58.207031 L 55.5625 58.207031 C 54.832031 58.207031 54.238281 57.617188 54.238281 56.886719 L 54.238281 47.625 C 54.238281 46.894531 54.832031 46.300781 55.5625 46.300781 Z M 55.5625 46.300781 "/>
</g>
</svg>
