
<svg xmlns="http://www.w3.org/2000/svg" xmlns:xlink="http://www.w3.org/1999/xlink" width="64px" height="64px" viewBox="0 0 64 64" version="1.1">
<g id="surface1">
<path style=" stroke:none;fill-rule:nonzero;fill:rgb(87.843138%,87.843138%,87.843138%);fill-opacity:1;" d="M 31.75 2.644531 C 16.089844 2.644531 5.570312 11.980469 4.320312 25.722656 C 3.417969 36.242188 6.585938 35.402344 6.011719 39.351562 C 5.488281 43.300781 3.363281 47.34375 6.070312 51.738281 C 10.796875 58.386719 22.613281 60.339844 31.75 60.855469 C 40.886719 60.339844 52.703125 58.386719 57.429688 51.738281 C 60.136719 47.34375 58.011719 43.300781 57.488281 39.351562 C 56.914062 35.402344 60.082031 36.242188 59.179688 25.722656 C 57.929688 11.980469 47.410156 2.644531 31.75 2.644531 Z M 31.75 2.644531 "/>
<path style=" stroke:none;fill-rule:nonzero;fill:rgb(74.117649%,74.117649%,74.117649%);fill-opacity:1;" d="M 50.382812 8.625 C 51.476562 10.636719 52.425781 12.8125 52.617188 14.550781 C 53.117188 19.058594 53.78125 21.21875 49.707031 23.382812 C 45.632812 25.542969 40.289062 27.527344 38.898438 29.867188 C 37.507812 32.207031 36.03125 35.96875 39.253906 37.824219 C 42.472656 39.679688 46.402344 37.824219 46.402344 37.824219 C 46.402344 37.824219 58.273438 43.535156 51.621094 52.902344 C 49.914062 55.304688 48.578125 57 47.535156 58.1875 C 51.683594 56.800781 55.285156 54.753906 57.429688 51.738281 C 60.136719 47.34375 58.011719 43.300781 57.488281 39.351562 C 56.914062 35.402344 60.082031 36.242188 59.179688 25.722656 C 58.535156 18.621094 55.410156 12.695312 50.382812 8.625 Z M 50.382812 8.625 "/>
<path style=" stroke:none;fill-rule:nonzero;fill:rgb(25.882354%,25.882354%,25.882354%);fill-opacity:1;" d="M 31.75 35.152344 C 29.316406 35.78125 28.945312 38.9375 28.703125 42.105469 C 28.597656 43.214844 29.148438 43.652344 30.113281 43.648438 L 31.75 43.617188 L 33.386719 43.648438 C 34.351562 43.652344 34.902344 43.214844 34.796875 42.105469 C 34.554688 38.9375 34.183594 35.78125 31.75 35.152344 Z M 31.75 35.152344 "/>
<path style=" stroke:none;fill-rule:nonzero;fill:rgb(25.882354%,25.882354%,25.882354%);fill-opacity:1;" d="M 39.003906 38.238281 C 31.191406 23.410156 60.855469 22.496094 53.140625 38.03125 C 51.523438 40.898438 40.007812 40.257812 39.003906 38.238281 Z M 39.003906 38.238281 "/>
<path style=" stroke:none;fill-rule:nonzero;fill:rgb(96.078432%,96.078432%,96.078432%);fill-opacity:1;" d="M 43.472656 28.796875 C 44.796875 28.796875 45.871094 29.871094 45.871094 31.195312 L 45.871094 31.78125 C 45.871094 33.105469 44.796875 34.179688 43.472656 34.179688 C 42.148438 34.179688 41.074219 33.105469 41.074219 31.78125 L 41.074219 31.195312 C 41.074219 29.871094 42.148438 28.796875 43.472656 28.796875 Z M 43.472656 28.796875 "/>
<path style=" stroke:none;fill-rule:nonzero;fill:rgb(25.882354%,25.882354%,25.882354%);fill-opacity:1;" d="M 23.589844 38.238281 C 31.402344 23.410156 1.738281 22.496094 9.453125 38.03125 C 11.070312 40.898438 22.585938 40.257812 23.589844 38.238281 Z M 23.589844 38.238281 "/>
<path style=" stroke:none;fill-rule:nonzero;fill:rgb(96.078432%,96.078432%,96.078432%);fill-opacity:1;" d="M 19.527344 29.03125 C 18.175781 29.03125 17.078125 30.128906 17.078125 31.484375 L 17.078125 32.085938 C 17.078125 33.4375 18.175781 34.535156 19.527344 34.535156 C 20.882812 34.535156 21.980469 33.4375 21.980469 32.085938 L 21.980469 31.484375 C 21.980469 30.128906 20.882812 29.03125 19.527344 29.03125 Z M 19.527344 29.03125 "/>
<path style=" stroke:none;fill-rule:nonzero;fill:rgb(61.960787%,61.960787%,61.960787%);fill-opacity:1;" d="M 16.050781 43.253906 C 15.421875 43.253906 14.8125 43.324219 14.226562 43.476562 C 6.75 46.328125 13.886719 51.652344 18.160156 53.445312 C 23.023438 55.5625 27.371094 56.054688 31.75 56.113281 C 36.128906 56.054688 40.476562 55.5625 45.339844 53.445312 C 49.613281 51.652344 56.75 46.328125 49.273438 43.476562 C 43.929688 42.070312 36.507812 47.714844 31.75 47.925781 C 27.511719 47.738281 21.160156 43.242188 16.050781 43.253906 Z M 16.050781 43.253906 "/>
<path style=" stroke:none;fill-rule:nonzero;fill:rgb(93.333334%,93.333334%,93.333334%);fill-opacity:1;" d="M 17.800781 43.96875 C 17.242188 43.972656 16.703125 44.035156 16.183594 44.171875 C 9.539062 46.699219 15.878906 51.429688 19.675781 53.027344 C 23.996094 54.90625 27.859375 55.34375 31.75 55.394531 C 35.640625 55.34375 39.503906 54.90625 43.824219 53.027344 C 47.621094 51.429688 53.960938 46.699219 47.316406 44.171875 C 42.570312 42.921875 35.976562 47.933594 31.75 48.121094 C 27.984375 47.953125 22.34375 43.960938 17.800781 43.96875 Z M 17.800781 43.96875 "/>
<path style=" stroke:none;fill-rule:nonzero;fill:rgb(45.882353%,45.882353%,45.882353%);fill-opacity:1;" d="M 46.300781 43.996094 C 46.382812 44.472656 46.550781 45.4375 46.867188 47.042969 C 47.109375 48.253906 47.074219 49.917969 46.984375 51.269531 C 47.113281 51.179688 47.242188 51.089844 47.367188 50.996094 C 47.46875 50.199219 47.527344 49.292969 47.472656 48.355469 C 47.378906 46.796875 46.691406 44.8125 46.386719 44.003906 C 46.359375 44.003906 46.332031 44 46.300781 43.996094 Z M 16.199219 44.167969 C 16.191406 44.167969 16.1875 44.167969 16.183594 44.171875 C 16.121094 44.195312 16.0625 44.214844 16.003906 44.238281 C 15.667969 45.207031 15.179688 46.792969 15.105469 48.085938 C 15.0625 48.816406 15.085938 49.53125 15.148438 50.1875 C 15.28125 50.3125 15.421875 50.429688 15.5625 50.546875 C 15.496094 49.289062 15.492188 47.855469 15.707031 46.773438 C 15.945312 45.570312 16.101562 44.71875 16.199219 44.167969 Z M 20.679688 44.394531 C 20.429688 45.046875 19.628906 47.230469 19.53125 48.914062 C 19.4375 50.566406 19.683594 52.132812 19.917969 53.128906 C 19.992188 53.160156 20.066406 53.191406 20.140625 53.222656 C 19.992188 51.832031 19.800781 49.285156 20.136719 47.605469 C 20.488281 45.816406 20.660156 44.808594 20.726562 44.40625 C 20.710938 44.402344 20.695312 44.398438 20.679688 44.394531 Z M 42.652344 44.441406 C 42.613281 44.449219 42.574219 44.460938 42.535156 44.472656 C 42.628906 45.003906 42.789062 45.910156 43.0625 47.292969 C 43.4375 49.183594 43.152344 52.160156 43.007812 53.367188 C 43.058594 53.347656 43.109375 53.328125 43.15625 53.304688 C 43.410156 52.394531 43.78125 50.558594 43.667969 48.605469 C 43.582031 47.15625 42.980469 45.335938 42.652344 44.441406 Z M 37.257812 46.46875 C 37.222656 46.484375 37.183594 46.5 37.148438 46.515625 C 37.238281 47.042969 37.402344 47.953125 37.679688 49.351562 C 38.007812 51 37.828125 53.480469 37.683594 54.886719 C 37.757812 54.871094 37.832031 54.859375 37.90625 54.84375 C 38.136719 53.847656 38.378906 52.296875 38.28125 50.660156 C 38.199219 49.199219 37.582031 47.355469 37.257812 46.46875 Z M 26.257812 46.476562 C 25.917969 47.445312 25.445312 49 25.375 50.265625 C 25.261719 52.171875 25.609375 53.960938 25.863281 54.894531 C 25.914062 54.902344 25.96875 54.914062 26.019531 54.921875 C 25.875 53.652344 25.613281 50.789062 25.976562 48.957031 C 26.191406 47.878906 26.335938 47.097656 26.433594 46.546875 C 26.375 46.523438 26.316406 46.5 26.257812 46.476562 Z M 31.484375 48.101562 C 31.734375 50.609375 31.75 53.011719 31.75 55.394531 C 31.761719 55.394531 31.773438 55.394531 31.785156 55.394531 C 31.875 53.789062 32.074219 50.355469 31.824219 48.117188 C 31.800781 48.117188 31.773438 48.117188 31.75 48.121094 C 31.664062 48.117188 31.574219 48.109375 31.484375 48.101562 Z M 31.484375 48.101562 "/>
<path style=" stroke:none;fill-rule:nonzero;fill:rgb(96.078432%,96.078432%,96.078432%);fill-opacity:1;" d="M 26.339844 7.570312 C 27.910156 10.292969 25.917969 14.382812 21.890625 16.707031 C 17.863281 19.035156 13.324219 18.714844 11.753906 15.992188 C 10.183594 13.273438 12.175781 9.179688 16.203125 6.855469 C 20.230469 4.53125 24.765625 4.851562 26.339844 7.570312 Z M 26.339844 7.570312 "/>
<path style=" stroke:none;fill-rule:nonzero;fill:rgb(93.725491%,32.549021%,31.37255%);fill-opacity:1;" d="M 44.980469 2.644531 L 44.980469 3.96875 L 42.996094 3.96875 L 42.996094 7.277344 L 41.671875 7.277344 L 41.671875 10.582031 L 42.996094 10.582031 L 42.996094 13.890625 L 44.980469 13.890625 L 44.980469 15.214844 L 46.300781 15.214844 L 46.300781 17.199219 L 47.625 17.199219 L 47.625 18.519531 L 49.609375 18.519531 L 49.609375 19.84375 L 52.917969 19.84375 L 52.917969 18.519531 L 54.902344 18.519531 L 54.902344 17.199219 L 56.222656 17.199219 L 56.222656 15.214844 L 58.207031 15.214844 L 58.207031 13.890625 L 59.53125 13.890625 L 59.53125 10.582031 L 60.855469 10.582031 L 60.855469 7.277344 L 59.53125 7.277344 L 59.53125 3.96875 L 58.207031 3.96875 L 58.207031 2.644531 L 54.902344 2.644531 L 54.902344 3.96875 L 52.917969 3.96875 L 52.917969 5.953125 L 51.59375 5.953125 L 51.59375 7.277344 L 50.933594 7.277344 L 50.933594 5.953125 L 49.609375 5.953125 L 49.609375 3.96875 L 48.285156 3.96875 L 48.285156 2.644531 Z M 44.980469 2.644531 "/>
</g>
</svg>
