
<svg xmlns="http://www.w3.org/2000/svg" xmlns:xlink="http://www.w3.org/1999/xlink" width="64px" height="64px" viewBox="0 0 64 64" version="1.1">
<g id="surface1">
<path style=" stroke:none;fill-rule:nonzero;fill:rgb(25.882354%,25.882354%,25.882354%);fill-opacity:1;" d="M 6.613281 2.644531 L 56.886719 2.644531 C 59.078125 2.644531 60.855469 4.421875 60.855469 6.613281 L 60.855469 56.886719 C 60.855469 59.078125 59.078125 60.855469 56.886719 60.855469 L 6.613281 60.855469 C 4.421875 60.855469 2.644531 59.078125 2.644531 56.886719 L 2.644531 6.613281 C 2.644531 4.421875 4.421875 2.644531 6.613281 2.644531 Z M 6.613281 2.644531 "/>
<path style=" stroke:none;fill-rule:nonzero;fill:rgb(93.333334%,93.333334%,93.333334%);fill-opacity:1;" d="M 36.742188 31.753906 L 44.070312 18.722656 L 47.550781 31.753906 L 44.070312 44.777344 Z M 33.171875 34.964844 L 40.5 46.894531 L 27.742188 43.527344 L 18.519531 34.964844 Z M 40.496094 16.605469 L 33.171875 30.652344 L 18.519531 30.652344 L 27.738281 19.976562 Z M 50.957031 27.210938 L 46.488281 10.195312 L 29.804688 14.785156 L 27.335938 19.253906 L 22.324219 19.21875 L 10.117188 31.753906 L 22.328125 44.285156 L 27.335938 44.246094 L 29.808594 48.71875 L 46.488281 53.304688 L 50.957031 36.289062 L 48.6875 31.753906 "/>
</g>
</svg>
