<?xml version="1.0" encoding="UTF-8"?>
<svg xmlns="http://www.w3.org/2000/svg" xmlns:xlink="http://www.w3.org/1999/xlink" width="64px" height="64px" viewBox="0 0 64 64" version="1.1">
<g id="surface1">
<path style=" stroke:none;fill-rule:nonzero;fill:rgb(100%,65.490198%,14.901961%);fill-opacity:1;" d="M 23.539062 3.148438 C 21.886719 3.148438 20.554688 4.476562 20.554688 6.132812 L 20.554688 36.367188 L 29.511719 27.410156 L 29.511719 13.59375 C 29.511719 12.765625 30.175781 12.101562 31.003906 12.101562 L 50.40625 12.101562 C 51.234375 12.101562 51.898438 12.765625 51.898438 13.59375 L 51.898438 32.996094 C 51.898438 33.824219 51.234375 34.488281 50.40625 34.488281 L 35.097656 34.488281 L 26.140625 43.445312 L 57.867188 43.445312 C 59.523438 43.445312 60.851562 42.113281 60.851562 40.460938 L 60.851562 6.132812 C 60.851562 4.476562 59.523438 3.148438 57.867188 3.148438 Z M 23.539062 3.148438 "/>
<path style=" stroke:none;fill-rule:nonzero;fill:rgb(25.882354%,64.705884%,96.078432%);fill-opacity:1;" d="M 5.628906 21.058594 C 3.976562 21.058594 2.644531 22.386719 2.644531 24.042969 L 2.644531 58.367188 C 2.644531 60.023438 3.976562 61.355469 5.628906 61.355469 L 39.957031 61.355469 C 41.613281 61.355469 42.941406 60.023438 42.941406 58.367188 L 42.941406 26.644531 L 33.988281 35.597656 L 33.988281 50.90625 C 33.988281 51.734375 33.324219 52.398438 32.496094 52.398438 L 13.09375 52.398438 C 12.265625 52.398438 11.601562 51.734375 11.601562 50.90625 L 11.601562 31.503906 C 11.601562 30.675781 12.265625 30.011719 13.09375 30.011719 L 26.910156 30.011719 L 35.863281 21.058594 Z M 5.628906 21.058594 "/>
<path style=" stroke:none;fill-rule:nonzero;fill:rgb(100%,65.490198%,14.901961%);fill-opacity:1;" d="M 35.097656 34.488281 L 33.988281 35.597656 L 33.988281 43.445312 L 42.941406 43.445312 L 42.941406 34.488281 Z M 35.097656 34.488281 "/>
</g>
</svg>
