
<svg xmlns="http://www.w3.org/2000/svg" xmlns:xlink="http://www.w3.org/1999/xlink" width="64px" height="64px" viewBox="0 0 64 64" version="1.1">
<g id="surface1">
<path style=" stroke:none;fill-rule:nonzero;fill:rgb(84.705883%,10.588235%,37.64706%);fill-opacity:1;" d="M 5.292969 2.644531 L 58.207031 2.644531 C 59.667969 2.644531 60.855469 3.832031 60.855469 5.292969 L 60.855469 58.207031 C 60.855469 59.667969 59.667969 60.855469 58.207031 60.855469 L 5.292969 60.855469 C 3.832031 60.855469 2.644531 59.667969 2.644531 58.207031 L 2.644531 5.292969 C 2.644531 3.832031 3.832031 2.644531 5.292969 2.644531 Z M 5.292969 2.644531 "/>
<path style=" stroke:none;fill-rule:nonzero;fill:rgb(92.54902%,25.098041%,47.843137%);fill-opacity:1;" d="M 6.613281 5.292969 L 56.886719 5.292969 C 57.617188 5.292969 58.207031 5.882812 58.207031 6.613281 L 58.207031 56.886719 C 58.207031 57.617188 57.617188 58.207031 56.886719 58.207031 L 6.613281 58.207031 C 5.882812 58.207031 5.292969 57.617188 5.292969 56.886719 L 5.292969 6.613281 C 5.292969 5.882812 5.882812 5.292969 6.613281 5.292969 Z M 6.613281 5.292969 "/>
<path style=" stroke:none;fill-rule:nonzero;fill:rgb(93.333334%,93.333334%,93.333334%);fill-opacity:1;" d="M 29.765625 21.167969 L 33.734375 21.167969 C 34.101562 21.167969 34.394531 21.460938 34.394531 21.828125 L 34.394531 25.796875 C 34.394531 26.164062 34.101562 26.457031 33.734375 26.457031 L 29.765625 26.457031 C 29.398438 26.457031 29.105469 26.164062 29.105469 25.796875 L 29.105469 21.828125 C 29.105469 21.460938 29.398438 21.167969 29.765625 21.167969 Z M 29.765625 21.167969 "/>
<path style=" stroke:none;fill-rule:nonzero;fill:rgb(93.333334%,93.333334%,93.333334%);fill-opacity:1;" d="M 29.765625 29.105469 L 33.734375 29.105469 C 34.101562 29.105469 34.394531 29.398438 34.394531 29.765625 L 34.394531 33.734375 C 34.394531 34.101562 34.101562 34.394531 33.734375 34.394531 L 29.765625 34.394531 C 29.398438 34.394531 29.105469 34.101562 29.105469 33.734375 L 29.105469 29.765625 C 29.105469 29.398438 29.398438 29.105469 29.765625 29.105469 Z M 29.765625 29.105469 "/>
<path style=" stroke:none;fill-rule:nonzero;fill:rgb(93.333334%,93.333334%,93.333334%);fill-opacity:1;" d="M 29.765625 37.042969 L 33.734375 37.042969 C 34.101562 37.042969 34.394531 37.335938 34.394531 37.703125 L 34.394531 41.671875 C 34.394531 42.039062 34.101562 42.332031 33.734375 42.332031 L 29.765625 42.332031 C 29.398438 42.332031 29.105469 42.039062 29.105469 41.671875 L 29.105469 37.703125 C 29.105469 37.335938 29.398438 37.042969 29.765625 37.042969 Z M 29.765625 37.042969 "/>
<path style=" stroke:none;fill-rule:nonzero;fill:rgb(93.333334%,93.333334%,93.333334%);fill-opacity:1;" d="M 29.765625 44.980469 L 33.734375 44.980469 C 34.101562 44.980469 34.394531 45.273438 34.394531 45.640625 L 34.394531 49.609375 C 34.394531 49.976562 34.101562 50.269531 33.734375 50.269531 L 29.765625 50.269531 C 29.398438 50.269531 29.105469 49.976562 29.105469 49.609375 L 29.105469 45.640625 C 29.105469 45.273438 29.398438 44.980469 29.765625 44.980469 Z M 29.765625 44.980469 "/>
<path style=" stroke:none;fill-rule:nonzero;fill:rgb(93.333334%,93.333334%,93.333334%);fill-opacity:1;" d="M 20.503906 13.230469 L 24.472656 13.230469 C 24.839844 13.230469 25.136719 13.523438 25.136719 13.890625 L 25.136719 17.859375 C 25.136719 18.226562 24.839844 18.519531 24.472656 18.519531 L 20.503906 18.519531 C 20.140625 18.519531 19.84375 18.226562 19.84375 17.859375 L 19.84375 13.890625 C 19.84375 13.523438 20.140625 13.230469 20.503906 13.230469 Z M 20.503906 13.230469 "/>
<path style=" stroke:none;fill-rule:nonzero;fill:rgb(93.333334%,93.333334%,93.333334%);fill-opacity:1;" d="M 20.503906 21.167969 L 24.472656 21.167969 C 24.839844 21.167969 25.136719 21.460938 25.136719 21.828125 L 25.136719 25.796875 C 25.136719 26.164062 24.839844 26.457031 24.472656 26.457031 L 20.503906 26.457031 C 20.140625 26.457031 19.84375 26.164062 19.84375 25.796875 L 19.84375 21.828125 C 19.84375 21.460938 20.140625 21.167969 20.503906 21.167969 Z M 20.503906 21.167969 "/>
<path style=" stroke:none;fill-rule:nonzero;fill:rgb(93.333334%,93.333334%,93.333334%);fill-opacity:1;" d="M 20.503906 29.105469 L 24.472656 29.105469 C 24.839844 29.105469 25.136719 29.398438 25.136719 29.765625 L 25.136719 33.734375 C 25.136719 34.101562 24.839844 34.394531 24.472656 34.394531 L 20.503906 34.394531 C 20.140625 34.394531 19.84375 34.101562 19.84375 33.734375 L 19.84375 29.765625 C 19.84375 29.398438 20.140625 29.105469 20.503906 29.105469 Z M 20.503906 29.105469 "/>
<path style=" stroke:none;fill-rule:nonzero;fill:rgb(93.333334%,93.333334%,93.333334%);fill-opacity:1;" d="M 20.503906 37.371094 L 24.472656 37.371094 C 24.839844 37.371094 25.136719 37.667969 25.136719 38.035156 L 25.136719 41.671875 C 25.136719 42.039062 24.839844 42.332031 24.472656 42.332031 L 20.503906 42.332031 C 20.140625 42.332031 19.84375 42.039062 19.84375 41.671875 L 19.84375 38.035156 C 19.84375 37.667969 20.140625 37.371094 20.503906 37.371094 Z M 20.503906 37.371094 "/>
<path style=" stroke:none;fill-rule:nonzero;fill:rgb(93.333334%,93.333334%,93.333334%);fill-opacity:1;" d="M 39.027344 13.230469 L 42.996094 13.230469 C 43.359375 13.230469 43.65625 13.523438 43.65625 13.890625 L 43.65625 17.859375 C 43.65625 18.226562 43.359375 18.519531 42.996094 18.519531 L 39.027344 18.519531 C 38.660156 18.519531 38.363281 18.226562 38.363281 17.859375 L 38.363281 13.890625 C 38.363281 13.523438 38.660156 13.230469 39.027344 13.230469 Z M 39.027344 13.230469 "/>
<path style=" stroke:none;fill-rule:nonzero;fill:rgb(93.333334%,93.333334%,93.333334%);fill-opacity:1;" d="M 39.027344 21.167969 L 42.996094 21.167969 C 43.359375 21.167969 43.65625 21.460938 43.65625 21.828125 L 43.65625 25.796875 C 43.65625 26.164062 43.359375 26.457031 42.996094 26.457031 L 39.027344 26.457031 C 38.660156 26.457031 38.363281 26.164062 38.363281 25.796875 L 38.363281 21.828125 C 38.363281 21.460938 38.660156 21.167969 39.027344 21.167969 Z M 39.027344 21.167969 "/>
<path style=" stroke:none;fill-rule:nonzero;fill:rgb(93.333334%,93.333334%,93.333334%);fill-opacity:1;" d="M 39.027344 29.105469 L 42.996094 29.105469 C 43.359375 29.105469 43.65625 29.398438 43.65625 29.765625 L 43.65625 33.734375 C 43.65625 34.101562 43.359375 34.394531 42.996094 34.394531 L 39.027344 34.394531 C 38.660156 34.394531 38.363281 34.101562 38.363281 33.734375 L 38.363281 29.765625 C 38.363281 29.398438 38.660156 29.105469 39.027344 29.105469 Z M 39.027344 29.105469 "/>
<path style=" stroke:none;fill-rule:nonzero;fill:rgb(93.333334%,93.333334%,93.333334%);fill-opacity:1;" d="M 39.027344 37.042969 L 42.996094 37.042969 C 43.359375 37.042969 43.65625 37.335938 43.65625 37.703125 L 43.65625 41.671875 C 43.65625 42.039062 43.359375 42.332031 42.996094 42.332031 L 39.027344 42.332031 C 38.660156 42.332031 38.363281 42.039062 38.363281 41.671875 L 38.363281 37.703125 C 38.363281 37.335938 38.660156 37.042969 39.027344 37.042969 Z M 39.027344 37.042969 "/>
<path style=" stroke:none;fill-rule:nonzero;fill:rgb(93.333334%,93.333334%,93.333334%);fill-opacity:1;" d="M 11.246094 17.199219 L 15.214844 17.199219 C 15.578125 17.199219 15.875 17.492188 15.875 17.859375 L 15.875 21.828125 C 15.875 22.195312 15.578125 22.488281 15.214844 22.488281 L 11.246094 22.488281 C 10.878906 22.488281 10.582031 22.195312 10.582031 21.828125 L 10.582031 17.859375 C 10.582031 17.492188 10.878906 17.199219 11.246094 17.199219 Z M 11.246094 17.199219 "/>
<path style=" stroke:none;fill-rule:nonzero;fill:rgb(93.333334%,93.333334%,93.333334%);fill-opacity:1;" d="M 11.246094 25.136719 L 15.214844 25.136719 C 15.578125 25.136719 15.875 25.429688 15.875 25.796875 L 15.875 29.765625 C 15.875 30.132812 15.578125 30.425781 15.214844 30.425781 L 11.246094 30.425781 C 10.878906 30.425781 10.582031 30.132812 10.582031 29.765625 L 10.582031 25.796875 C 10.582031 25.429688 10.878906 25.136719 11.246094 25.136719 Z M 11.246094 25.136719 "/>
<path style=" stroke:none;fill-rule:nonzero;fill:rgb(93.333334%,93.333334%,93.333334%);fill-opacity:1;" d="M 11.246094 33.074219 L 15.214844 33.074219 C 15.578125 33.074219 15.875 33.367188 15.875 33.734375 L 15.875 37.703125 C 15.875 38.070312 15.578125 38.363281 15.214844 38.363281 L 11.246094 38.363281 C 10.878906 38.363281 10.582031 38.070312 10.582031 37.703125 L 10.582031 33.734375 C 10.582031 33.367188 10.878906 33.074219 11.246094 33.074219 Z M 11.246094 33.074219 "/>
<path style=" stroke:none;fill-rule:nonzero;fill:rgb(93.333334%,93.333334%,93.333334%);fill-opacity:1;" d="M 48.285156 17.199219 L 52.253906 17.199219 C 52.621094 17.199219 52.917969 17.492188 52.917969 17.859375 L 52.917969 21.828125 C 52.917969 22.195312 52.621094 22.488281 52.253906 22.488281 L 48.285156 22.488281 C 47.921875 22.488281 47.625 22.195312 47.625 21.828125 L 47.625 17.859375 C 47.625 17.492188 47.921875 17.199219 48.285156 17.199219 Z M 48.285156 17.199219 "/>
<path style=" stroke:none;fill-rule:nonzero;fill:rgb(93.333334%,93.333334%,93.333334%);fill-opacity:1;" d="M 48.285156 25.136719 L 52.253906 25.136719 C 52.621094 25.136719 52.917969 25.429688 52.917969 25.796875 L 52.917969 29.765625 C 52.917969 30.132812 52.621094 30.425781 52.253906 30.425781 L 48.285156 30.425781 C 47.921875 30.425781 47.625 30.132812 47.625 29.765625 L 47.625 25.796875 C 47.625 25.429688 47.921875 25.136719 48.285156 25.136719 Z M 48.285156 25.136719 "/>
<path style=" stroke:none;fill-rule:nonzero;fill:rgb(93.333334%,93.333334%,93.333334%);fill-opacity:1;" d="M 48.285156 34.394531 L 52.253906 34.394531 C 52.621094 34.394531 52.917969 34.691406 52.917969 35.058594 L 52.917969 37.703125 C 52.917969 38.070312 52.621094 38.363281 52.253906 38.363281 L 48.285156 38.363281 C 47.921875 38.363281 47.625 38.070312 47.625 37.703125 L 47.625 35.058594 C 47.625 34.691406 47.921875 34.394531 48.285156 34.394531 Z M 48.285156 34.394531 "/>
</g>
</svg>
