<?xml version="1.0" encoding="UTF-8"?>
<svg xmlns="http://www.w3.org/2000/svg" xmlns:xlink="http://www.w3.org/1999/xlink" width="64px" height="64px" viewBox="0 0 64 64" version="1.1">
<g id="surface1">
<path style=" stroke:none;fill-rule:nonzero;fill:rgb(14.901961%,65.098041%,60.392159%);fill-opacity:1;" d="M 5.292969 3.144531 C 3.824219 3.144531 2.644531 4.324219 2.644531 5.792969 L 2.644531 32.25 L 31.75 32.25 L 31.75 3.144531 Z M 5.292969 3.144531 "/>
<path style=" stroke:none;fill-rule:nonzero;fill:rgb(100%,65.490198%,14.901961%);fill-opacity:1;" d="M 58.207031 3.144531 C 59.675781 3.144531 60.855469 4.324219 60.855469 5.792969 L 60.855469 32.25 L 31.75 32.25 L 31.75 3.144531 Z M 58.207031 3.144531 "/>
<path style=" stroke:none;fill-rule:nonzero;fill:rgb(25.882354%,64.705884%,96.078432%);fill-opacity:1;" d="M 5.292969 61.355469 C 3.824219 61.355469 2.644531 60.175781 2.644531 58.707031 L 2.644531 32.25 L 31.75 32.25 L 31.75 61.355469 Z M 5.292969 61.355469 "/>
<path style=" stroke:none;fill-rule:nonzero;fill:rgb(14.901961%,65.098041%,60.392159%);fill-opacity:1;" d="M 58.207031 61.355469 C 59.675781 61.355469 60.855469 60.175781 60.855469 58.707031 L 60.855469 32.25 L 31.75 32.25 L 31.75 61.355469 Z M 58.207031 61.355469 "/>
<path style=" stroke:none;fill-rule:nonzero;fill:rgb(25.882354%,25.882354%,25.882354%);fill-opacity:1;" d="M 15.792969 13.8125 L 47.707031 13.8125 C 49.125 13.8125 50.269531 14.960938 50.269531 16.375 L 50.269531 49.449219 C 50.269531 50.863281 49.125 52.011719 47.707031 52.011719 L 15.792969 52.011719 C 14.375 52.011719 13.230469 50.863281 13.230469 49.449219 L 13.230469 16.375 C 13.230469 14.960938 14.375 13.8125 15.792969 13.8125 Z M 15.792969 13.8125 "/>
<path style=" stroke:none;fill-rule:nonzero;fill:rgb(93.333334%,93.333334%,93.333334%);fill-opacity:1;" d="M 40.347656 21.664062 C 38.429688 21.664062 36.664062 22.230469 35.324219 23.261719 C 33.984375 24.292969 33.070312 25.855469 33.070312 27.621094 C 33.070312 29.394531 34.070312 30.871094 35.398438 31.800781 C 36.722656 32.726562 38.375 33.261719 40.125 33.589844 C 41.664062 33.882812 42.992188 34.347656 43.816406 34.914062 C 44.644531 35.484375 44.976562 36 44.976562 36.878906 C 44.976562 37.761719 44.566406 38.515625 43.757812 39.136719 C 42.949219 39.761719 41.738281 40.1875 40.347656 40.1875 C 38.960938 40.1875 37.75 39.761719 36.9375 39.136719 C 36.128906 38.515625 35.71875 37.761719 35.71875 36.878906 L 35.71875 36.78125 C 35.71875 36.46875 35.421875 36.21875 35.058594 36.21875 L 33.734375 36.21875 C 33.367188 36.21875 33.074219 36.46875 33.074219 36.78125 L 33.074219 36.878906 L 33.070312 36.878906 C 33.070312 36.898438 33.074219 36.917969 33.074219 36.9375 L 33.074219 36.980469 C 33.074219 36.992188 33.074219 37 33.074219 37.011719 C 33.117188 38.722656 34.019531 40.230469 35.324219 41.238281 C 36.664062 42.269531 38.429688 42.835938 40.347656 42.835938 C 42.265625 42.835938 44.03125 42.269531 45.371094 41.238281 C 46.714844 40.207031 47.625 38.644531 47.625 36.878906 C 47.625 35.117188 46.636719 33.644531 45.320312 32.734375 C 44 31.828125 42.367188 31.320312 40.617188 30.988281 C 39.097656 30.703125 37.757812 30.222656 36.917969 29.632812 C 36.074219 29.039062 35.71875 28.492188 35.71875 27.621094 C 35.71875 26.738281 36.128906 25.984375 36.9375 25.363281 C 37.75 24.738281 38.960938 24.3125 40.347656 24.3125 C 41.738281 24.3125 42.949219 24.738281 43.757812 25.363281 C 44.566406 25.984375 44.976562 26.738281 44.976562 27.621094 L 44.980469 27.621094 L 44.980469 27.71875 C 44.980469 28.03125 45.273438 28.28125 45.640625 28.28125 L 46.964844 28.28125 C 47.328125 28.28125 47.625 28.03125 47.625 27.71875 L 47.625 27.621094 C 47.625 27.605469 47.625 27.589844 47.625 27.574219 L 47.625 27.519531 C 47.625 27.507812 47.625 27.496094 47.625 27.484375 C 47.578125 25.777344 46.679688 24.269531 45.371094 23.261719 C 44.03125 22.230469 42.265625 21.664062 40.347656 21.664062 Z M 40.347656 21.664062 "/>
<path style=" stroke:none;fill-rule:nonzero;fill:rgb(93.333334%,93.333334%,93.333334%);fill-opacity:1;" d="M 17.199219 43.03125 C 16.46875 43.03125 15.875 42.4375 15.875 41.707031 L 15.875 31.785156 C 15.875 31.78125 15.875 31.773438 15.875 31.765625 L 15.875 22.527344 C 15.875 22.160156 16.171875 21.863281 16.539062 21.863281 L 17.859375 21.863281 C 18.226562 21.863281 18.523438 22.160156 18.523438 22.527344 L 18.523438 31.742188 C 18.523438 31.757812 18.523438 31.773438 18.523438 31.785156 L 18.523438 37.203125 L 22.039062 31.730469 C 22.28125 31.351562 22.703125 31.125 23.152344 31.125 C 23.601562 31.125 24.023438 31.351562 24.265625 31.730469 L 27.78125 37.203125 L 27.78125 31.785156 C 27.78125 31.78125 27.78125 31.773438 27.78125 31.765625 L 27.78125 22.527344 C 27.78125 22.160156 28.078125 21.863281 28.445312 21.863281 L 29.765625 21.863281 C 30.132812 21.863281 30.429688 22.160156 30.429688 22.527344 L 30.429688 31.742188 C 30.429688 31.757812 30.429688 31.773438 30.429688 31.785156 L 30.429688 41.707031 C 30.429688 42.296875 30.042969 42.8125 29.476562 42.976562 C 28.914062 43.144531 28.308594 42.917969 27.992188 42.425781 L 23.152344 34.894531 L 18.3125 42.425781 C 18.070312 42.804688 17.648438 43.03125 17.199219 43.03125 Z M 17.199219 43.03125 "/>
</g>
</svg>
