<?xml version="1.0" encoding="UTF-8"?>
<svg xmlns="http://www.w3.org/2000/svg" xmlns:xlink="http://www.w3.org/1999/xlink" width="64px" height="64px" viewBox="0 0 64 64" version="1.1">
<g id="surface1">
<path style=" stroke:none;fill-rule:nonzero;fill:rgb(93.333334%,93.333334%,93.333334%);fill-opacity:1;" d="M 42.332031 3.144531 L 10.582031 3.144531 C 9.117188 3.144531 7.9375 4.324219 7.9375 5.792969 L 7.9375 58.707031 C 7.9375 60.175781 9.117188 61.355469 10.582031 61.355469 L 52.917969 61.355469 C 54.382812 61.355469 55.5625 60.175781 55.5625 58.707031 L 55.5625 16.375 Z M 42.332031 3.144531 "/>
<path style=" stroke:none;fill-rule:nonzero;fill:rgb(61.960787%,61.960787%,61.960787%);fill-opacity:1;" d="M 15.078125 26.699219 C 14.21875 27.195312 13.929688 28.285156 14.425781 29.144531 L 26.957031 50.855469 C 27.453125 51.714844 28.546875 52.007812 29.40625 51.511719 L 48.011719 40.765625 C 48.871094 40.269531 49.164062 39.179688 48.667969 38.320312 L 36.132812 16.609375 C 35.636719 15.753906 34.546875 15.460938 33.6875 15.957031 Z M 19.195312 28.457031 L 33.152344 20.398438 C 33.582031 20.152344 34.128906 20.296875 34.375 20.726562 L 37.078125 25.410156 C 37.328125 25.839844 37.179688 26.386719 36.75 26.632812 L 22.796875 34.691406 C 22.367188 34.941406 21.820312 34.792969 21.574219 34.363281 L 18.867188 29.679688 C 18.621094 29.25 18.765625 28.707031 19.195312 28.457031 Z M 24.1875 38 L 26.128906 36.882812 C 26.34375 36.757812 26.613281 36.832031 26.738281 37.046875 L 27.632812 38.597656 C 27.757812 38.8125 27.683594 39.085938 27.46875 39.207031 L 25.53125 40.328125 C 25.316406 40.453125 25.042969 40.378906 24.921875 40.164062 L 24.027344 38.613281 C 23.902344 38.398438 23.972656 38.125 24.1875 38 Z M 28.453125 35.539062 L 30.390625 34.421875 C 30.605469 34.296875 30.878906 34.371094 31.003906 34.585938 L 31.898438 36.136719 C 32.023438 36.351562 31.949219 36.621094 31.734375 36.746094 L 29.796875 37.867188 C 29.582031 37.988281 29.308594 37.917969 29.183594 37.703125 L 28.289062 36.152344 C 28.164062 35.9375 28.238281 35.664062 28.453125 35.539062 Z M 32.71875 33.078125 L 34.65625 31.957031 C 34.871094 31.835938 35.144531 31.90625 35.269531 32.121094 L 36.164062 33.671875 C 36.289062 33.886719 36.214844 34.160156 36 34.285156 L 34.0625 35.402344 C 33.847656 35.527344 33.574219 35.453125 33.449219 35.238281 L 32.554688 33.6875 C 32.429688 33.472656 32.503906 33.203125 32.71875 33.078125 Z M 36.984375 30.617188 L 38.921875 29.496094 C 39.136719 29.371094 39.410156 29.445312 39.53125 29.660156 L 40.429688 31.210938 C 40.550781 31.425781 40.480469 31.699219 40.265625 31.820312 L 38.324219 32.941406 C 38.109375 33.066406 37.839844 32.992188 37.714844 32.777344 L 36.820312 31.226562 C 36.695312 31.011719 36.769531 30.738281 36.984375 30.617188 Z M 26.203125 41.492188 L 28.140625 40.371094 C 28.355469 40.246094 28.628906 40.320312 28.753906 40.535156 L 29.648438 42.085938 C 29.773438 42.300781 29.699219 42.574219 29.484375 42.699219 L 27.546875 43.816406 C 27.332031 43.941406 27.058594 43.867188 26.933594 43.652344 L 26.039062 42.101562 C 25.914062 41.886719 25.988281 41.613281 26.203125 41.492188 Z M 30.46875 39.027344 L 32.40625 37.910156 C 32.621094 37.785156 32.894531 37.859375 33.019531 38.074219 L 33.914062 39.625 C 34.039062 39.839844 33.964844 40.113281 33.75 40.234375 L 31.8125 41.355469 C 31.597656 41.480469 31.324219 41.40625 31.199219 41.191406 L 30.304688 39.640625 C 30.179688 39.425781 30.253906 39.152344 30.46875 39.027344 Z M 34.734375 36.566406 L 36.671875 35.449219 C 36.886719 35.324219 37.160156 35.394531 37.28125 35.609375 L 38.179688 37.160156 C 38.300781 37.375 38.230469 37.648438 38.015625 37.773438 L 36.074219 38.894531 C 35.859375 39.015625 35.589844 38.945312 35.464844 38.730469 L 34.570312 37.179688 C 34.445312 36.964844 34.519531 36.691406 34.734375 36.566406 Z M 38.996094 34.105469 L 40.9375 32.984375 C 41.148438 32.859375 41.421875 32.933594 41.546875 33.148438 L 42.441406 34.699219 C 42.566406 34.914062 42.492188 35.1875 42.277344 35.3125 L 40.339844 36.429688 C 40.125 36.554688 39.851562 36.480469 39.730469 36.265625 L 38.832031 34.714844 C 38.710938 34.5 38.78125 34.226562 38.996094 34.105469 Z M 28.21875 44.980469 L 30.15625 43.859375 C 30.371094 43.738281 30.644531 43.808594 30.769531 44.023438 L 31.664062 45.574219 C 31.789062 45.789062 31.714844 46.0625 31.5 46.1875 L 29.5625 47.304688 C 29.347656 47.429688 29.074219 47.355469 28.949219 47.140625 L 28.054688 45.589844 C 27.929688 45.375 28.003906 45.105469 28.21875 44.980469 Z M 32.484375 42.519531 L 34.421875 41.398438 C 34.636719 41.273438 34.910156 41.347656 35.03125 41.5625 L 35.929688 43.113281 C 36.050781 43.328125 35.980469 43.601562 35.765625 43.726562 L 33.824219 44.84375 C 33.609375 44.96875 33.339844 44.894531 33.214844 44.679688 L 32.320312 43.128906 C 32.195312 42.914062 32.269531 42.640625 32.484375 42.519531 Z M 36.746094 40.054688 L 38.683594 38.9375 C 38.898438 38.8125 39.171875 38.886719 39.296875 39.101562 L 40.191406 40.652344 C 40.316406 40.867188 40.242188 41.136719 40.027344 41.261719 L 38.089844 42.382812 C 37.875 42.503906 37.601562 42.433594 37.480469 42.21875 L 36.582031 40.667969 C 36.460938 40.453125 36.53125 40.179688 36.746094 40.054688 Z M 41.011719 37.59375 L 42.949219 36.472656 C 43.164062 36.351562 43.4375 36.421875 43.5625 36.636719 L 44.457031 38.1875 C 44.582031 38.402344 44.507812 38.675781 44.292969 38.800781 L 42.355469 39.917969 C 42.140625 40.042969 41.867188 39.96875 41.742188 39.753906 L 40.847656 38.203125 C 40.722656 37.992188 40.796875 37.71875 41.011719 37.59375 Z M 41.011719 37.59375 "/>
<path style=" stroke:none;fill-rule:nonzero;fill:rgb(40.000001%,73.333335%,41.568628%);fill-opacity:1;" d="M 55.5625 16.375 L 42.332031 3.144531 L 42.332031 13.730469 C 42.332031 15.195312 43.511719 16.375 44.980469 16.375 Z M 55.5625 16.375 "/>
<path style=" stroke:none;fill-rule:nonzero;fill:rgb(40.000001%,73.333335%,41.568628%);fill-opacity:1;" d="M 7.9375 33.574219 L 55.5625 33.574219 L 55.5625 49.449219 L 7.9375 49.449219 Z M 7.9375 33.574219 "/>
</g>
</svg>
