<?xml version="1.0" encoding="UTF-8"?>
<svg xmlns="http://www.w3.org/2000/svg" xmlns:xlink="http://www.w3.org/1999/xlink" width="64px" height="64px" viewBox="0 0 64 64" version="1.1">
<g id="surface1">
<path style=" stroke:none;fill-rule:nonzero;fill:rgb(36.078432%,41.960785%,75.294119%);fill-opacity:1;" d="M 5.292969 3.144531 L 58.207031 3.144531 C 59.667969 3.144531 60.855469 4.332031 60.855469 5.792969 L 60.855469 58.707031 C 60.855469 60.167969 59.667969 61.355469 58.207031 61.355469 L 5.292969 61.355469 C 3.832031 61.355469 2.644531 60.167969 2.644531 58.707031 L 2.644531 5.792969 C 2.644531 4.332031 3.832031 3.144531 5.292969 3.144531 Z M 5.292969 3.144531 "/>
<path style=" stroke:none;fill-rule:nonzero;fill:rgb(14.901961%,77.64706%,85.490197%);fill-opacity:1;" d="M 31.652344 15.054688 C 30.535156 15.09375 29.566406 15.832031 29.226562 16.894531 L 22.050781 39.441406 L 18.285156 31.15625 C 17.855469 30.210938 16.914062 29.601562 15.875 29.601562 L 5.292969 29.601562 C 5.277344 29.601562 5.261719 29.601562 5.246094 29.605469 L 3.308594 29.605469 C 2.574219 29.605469 1.984375 30.195312 1.984375 30.925781 L 1.984375 33.574219 C 1.984375 34.304688 2.574219 34.894531 3.308594 34.894531 L 5.210938 34.894531 C 5.238281 34.898438 5.265625 34.898438 5.292969 34.898438 L 14.171875 34.898438 L 20.078125 47.898438 C 20.53125 48.894531 21.554688 49.507812 22.644531 49.445312 C 23.738281 49.378906 24.679688 48.648438 25.011719 47.605469 L 31.75 26.429688 L 38.488281 47.605469 C 38.820312 48.648438 39.761719 49.378906 40.855469 49.445312 C 41.945312 49.507812 42.96875 48.894531 43.421875 47.898438 L 49.328125 34.898438 L 58.226562 34.898438 C 58.242188 34.898438 58.257812 34.898438 58.273438 34.894531 L 60.210938 34.894531 C 60.941406 34.894531 61.53125 34.304688 61.53125 33.574219 L 61.53125 30.925781 C 61.53125 30.195312 60.941406 29.605469 60.210938 29.605469 L 58.300781 29.605469 C 58.277344 29.601562 58.25 29.601562 58.226562 29.601562 L 47.625 29.601562 C 46.585938 29.601562 45.644531 30.210938 45.214844 31.15625 L 41.449219 39.441406 L 34.273438 16.894531 C 33.910156 15.761719 32.839844 15.007812 31.652344 15.054688 Z M 31.652344 15.054688 "/>
</g>
</svg>
