<?xml version="1.0" encoding="UTF-8"?>
<svg xmlns="http://www.w3.org/2000/svg" xmlns:xlink="http://www.w3.org/1999/xlink" width="64" height="64" viewBox="0 0 64 64" version="1.1">
<g id="surface1">
<path style=" stroke:none;fill-rule:nonzero;fill:rgb(40.000001%,73.333335%,41.568628%);fill-opacity:1;" d="M 5.488281 37.734375 C 5.019531 39.492188 4.695312 41.015625 4.695312 42.082031 C 4.695312 50.46875 4.960938 52.289062 9.773438 52.402344 C 10.542969 52.421875 13.929688 47.886719 19.46875 42.082031 C 20.703125 40.792969 21.933594 41.113281 22.855469 41.113281 L 40.644531 41.113281 C 41.566406 41.113281 42.796875 40.792969 44.03125 42.082031 C 49.570312 47.886719 52.957031 52.421875 53.726562 52.402344 C 58.539062 52.289062 58.804688 50.46875 58.804688 42.082031 C 58.804688 41.015625 58.480469 39.492188 58.011719 37.734375 Z M 5.488281 37.734375 "/>
<path style=" stroke:none;fill-rule:nonzero;fill:rgb(38.039216%,38.039216%,38.039216%);fill-opacity:1;" d="M 20.390625 11.597656 C 17.980469 11.617188 13.089844 12.710938 11.246094 16.171875 C 10.519531 17.53125 7.894531 22.410156 6.113281 28.605469 C 4.628906 33.765625 2.644531 39.058594 2.644531 41.703125 C 2.644531 50.304688 5.953125 52.289062 8.101562 52.289062 C 8.929688 52.289062 12.566406 47.65625 18.519531 41.703125 C 19.84375 40.382812 21.167969 40.710938 22.160156 40.710938 L 41.339844 40.710938 C 42.332031 40.710938 43.65625 40.382812 44.980469 41.703125 C 50.933594 47.65625 54.570312 52.289062 55.398438 52.289062 C 57.546875 52.289062 60.855469 50.304688 60.855469 41.703125 C 60.855469 39.058594 58.871094 33.765625 57.386719 28.605469 C 55.605469 22.410156 52.980469 17.53125 52.253906 16.171875 C 50.285156 12.480469 44.855469 11.480469 42.664062 11.609375 C 42.003906 11.609375 41.386719 12.25 41.011719 12.601562 L 22.488281 12.601562 C 22.113281 12.25 21.496094 11.609375 20.835938 11.609375 C 20.699219 11.601562 20.550781 11.597656 20.390625 11.597656 Z M 20.390625 11.597656 "/>
<path style=" stroke:none;fill-rule:nonzero;fill:rgb(40.000001%,73.333335%,41.568628%);fill-opacity:1;" d="M 20.390625 11.597656 C 18.007812 11.617188 13.199219 12.6875 11.308594 16.0625 C 14.492188 13.914062 18.109375 12.5625 22.488281 12.601562 C 22.113281 12.25 21.496094 11.609375 20.835938 11.609375 C 20.699219 11.601562 20.550781 11.597656 20.390625 11.597656 Z M 20.390625 11.597656 "/>
<path style=" stroke:none;fill-rule:nonzero;fill:rgb(25.882354%,25.882354%,25.882354%);fill-opacity:1;" d="M 31.75 14.585938 C 33.027344 14.585938 34.066406 15.621094 34.066406 16.898438 C 34.066406 18.179688 33.027344 19.214844 31.75 19.214844 C 30.472656 19.214844 29.433594 18.179688 29.433594 16.898438 C 29.433594 15.621094 30.472656 14.585938 31.75 14.585938 Z M 31.75 14.585938 "/>
<path style=" stroke:none;fill-rule:nonzero;fill:rgb(40.000001%,73.333335%,41.568628%);fill-opacity:1;" d="M 31.75 14.914062 C 32.847656 14.914062 33.734375 15.804688 33.734375 16.898438 C 33.734375 17.996094 32.847656 18.882812 31.75 18.882812 C 30.652344 18.882812 29.765625 17.996094 29.765625 16.898438 C 29.765625 15.804688 30.652344 14.914062 31.75 14.914062 Z M 31.75 14.914062 "/>
<path style=" stroke:none;fill-rule:nonzero;fill:rgb(38.039216%,38.039216%,38.039216%);fill-opacity:1;" d="M 30.601562 14.886719 C 30.4375 14.980469 30.285156 15.09375 30.148438 15.226562 C 30.492188 15.460938 30.851562 15.703125 31.199219 15.960938 C 30.617188 16.5 30.132812 17.203125 29.792969 18.140625 C 29.882812 18.28125 29.988281 18.414062 30.105469 18.53125 C 30.386719 17.703125 31.011719 17.007812 31.75 16.394531 C 32.488281 17.007812 33.113281 17.703125 33.394531 18.53125 C 33.511719 18.414062 33.617188 18.28125 33.707031 18.140625 C 33.367188 17.203125 32.882812 16.5 32.300781 15.960938 C 32.648438 15.703125 33.007812 15.460938 33.351562 15.226562 C 33.214844 15.09375 33.0625 14.980469 32.898438 14.886719 C 32.496094 15.058594 32.109375 15.261719 31.75 15.515625 C 31.390625 15.261719 31.003906 15.058594 30.601562 14.886719 Z M 30.601562 14.886719 "/>
<path style=" stroke:none;fill-rule:nonzero;fill:rgb(40.000001%,73.333335%,41.568628%);fill-opacity:1;" d="M 43.109375 11.597656 C 45.492188 11.617188 50.300781 12.6875 52.191406 16.0625 C 49.007812 13.914062 45.390625 12.5625 41.011719 12.601562 C 41.386719 12.25 42.003906 11.609375 42.664062 11.609375 C 42.800781 11.601562 42.949219 11.597656 43.109375 11.597656 Z M 43.109375 11.597656 "/>
<path style=" stroke:none;fill-rule:nonzero;fill:rgb(45.882353%,45.882353%,45.882353%);fill-opacity:1;" d="M 17.199219 18.554688 C 19.390625 18.554688 21.167969 20.328125 21.167969 22.523438 C 21.167969 24.714844 19.390625 26.492188 17.199219 26.492188 C 15.007812 26.492188 13.230469 24.714844 13.230469 22.523438 C 13.230469 20.328125 15.007812 18.554688 17.199219 18.554688 Z M 17.199219 18.554688 "/>
<path style=" stroke:none;fill-rule:nonzero;fill:rgb(40.000001%,73.333335%,41.568628%);fill-opacity:1;" d="M 17.199219 19.214844 C 19.023438 19.214844 20.503906 20.695312 20.503906 22.523438 C 20.503906 24.347656 19.023438 25.828125 17.199219 25.828125 C 15.371094 25.828125 13.890625 24.347656 13.890625 22.523438 C 13.890625 20.695312 15.371094 19.214844 17.199219 19.214844 Z M 17.199219 19.214844 "/>
<path style=" stroke:none;fill-rule:nonzero;fill:rgb(45.882353%,45.882353%,45.882353%);fill-opacity:1;" d="M 39.6875 27.8125 C 41.878906 27.8125 43.65625 29.589844 43.65625 31.78125 C 43.65625 33.972656 41.878906 35.75 39.6875 35.75 C 37.496094 35.75 35.71875 33.972656 35.71875 31.78125 C 35.71875 29.589844 37.496094 27.8125 39.6875 27.8125 Z M 39.6875 27.8125 "/>
<path style=" stroke:none;fill-rule:nonzero;fill:rgb(40.000001%,73.333335%,41.568628%);fill-opacity:1;" d="M 39.6875 28.476562 C 41.515625 28.476562 42.996094 29.957031 42.996094 31.78125 C 42.996094 33.609375 41.515625 35.089844 39.6875 35.089844 C 37.859375 35.089844 36.378906 33.609375 36.378906 31.78125 C 36.378906 29.957031 37.859375 28.476562 39.6875 28.476562 Z M 39.6875 28.476562 "/>
<path style=" stroke:none;fill-rule:nonzero;fill:rgb(25.882354%,25.882354%,25.882354%);fill-opacity:1;" d="M 17.199219 19.875 C 18.660156 19.875 19.84375 21.058594 19.84375 22.523438 C 19.84375 23.984375 18.660156 25.167969 17.199219 25.167969 C 15.738281 25.167969 14.550781 23.984375 14.550781 22.523438 C 14.550781 21.058594 15.738281 19.875 17.199219 19.875 Z M 17.199219 19.875 "/>
<path style=" stroke:none;fill-rule:nonzero;fill:rgb(25.882354%,25.882354%,25.882354%);fill-opacity:1;" d="M 39.6875 29.136719 C 41.148438 29.136719 42.332031 30.320312 42.332031 31.78125 C 42.332031 33.242188 41.148438 34.429688 39.6875 34.429688 C 38.226562 34.429688 37.042969 33.242188 37.042969 31.78125 C 37.042969 30.320312 38.226562 29.136719 39.6875 29.136719 Z M 39.6875 29.136719 "/>
<path style=" stroke:none;fill-rule:nonzero;fill:rgb(25.882354%,25.882354%,25.882354%);fill-opacity:1;" d="M 42.664062 20.539062 C 43.761719 20.539062 44.648438 21.425781 44.648438 22.523438 C 44.648438 23.617188 43.761719 24.507812 42.664062 24.507812 C 41.566406 24.507812 40.679688 23.617188 40.679688 22.523438 C 40.679688 21.425781 41.566406 20.539062 42.664062 20.539062 Z M 42.664062 20.539062 "/>
<path style=" stroke:none;fill-rule:nonzero;fill:rgb(45.882353%,45.882353%,45.882353%);fill-opacity:1;" d="M 42.664062 20.867188 C 43.578125 20.867188 44.316406 21.609375 44.316406 22.523438 C 44.316406 23.433594 43.578125 24.175781 42.664062 24.175781 C 41.75 24.175781 41.011719 23.433594 41.011719 22.523438 C 41.011719 21.609375 41.75 20.867188 42.664062 20.867188 Z M 42.664062 20.867188 "/>
<path style=" stroke:none;fill-rule:nonzero;fill:rgb(25.882354%,25.882354%,25.882354%);fill-opacity:1;" d="M 46.632812 16.898438 C 47.730469 16.898438 48.617188 17.789062 48.617188 18.882812 C 48.617188 19.980469 47.730469 20.867188 46.632812 20.867188 C 45.535156 20.867188 44.648438 19.980469 44.648438 18.882812 C 44.648438 17.789062 45.535156 16.898438 46.632812 16.898438 Z M 46.632812 16.898438 "/>
<path style=" stroke:none;fill-rule:nonzero;fill:rgb(45.882353%,45.882353%,45.882353%);fill-opacity:1;" d="M 46.632812 17.230469 C 47.546875 17.230469 48.285156 17.96875 48.285156 18.882812 C 48.285156 19.796875 47.546875 20.539062 46.632812 20.539062 C 45.71875 20.539062 44.980469 19.796875 44.980469 18.882812 C 44.980469 17.96875 45.71875 17.230469 46.632812 17.230469 Z M 46.632812 17.230469 "/>
<path style=" stroke:none;fill-rule:nonzero;fill:rgb(25.882354%,25.882354%,25.882354%);fill-opacity:1;" d="M 50.601562 20.867188 C 51.699219 20.867188 52.585938 21.757812 52.585938 22.851562 C 52.585938 23.949219 51.699219 24.835938 50.601562 24.835938 C 49.503906 24.835938 48.617188 23.949219 48.617188 22.851562 C 48.617188 21.757812 49.503906 20.867188 50.601562 20.867188 Z M 50.601562 20.867188 "/>
<path style=" stroke:none;fill-rule:nonzero;fill:rgb(45.882353%,45.882353%,45.882353%);fill-opacity:1;" d="M 50.601562 21.199219 C 51.515625 21.199219 52.253906 21.9375 52.253906 22.851562 C 52.253906 23.765625 51.515625 24.507812 50.601562 24.507812 C 49.6875 24.507812 48.949219 23.765625 48.949219 22.851562 C 48.949219 21.9375 49.6875 21.199219 50.601562 21.199219 Z M 50.601562 21.199219 "/>
<path style=" stroke:none;fill-rule:nonzero;fill:rgb(25.882354%,25.882354%,25.882354%);fill-opacity:1;" d="M 46.632812 24.835938 C 47.730469 24.835938 48.617188 25.726562 48.617188 26.820312 C 48.617188 27.917969 47.730469 28.804688 46.632812 28.804688 C 45.535156 28.804688 44.648438 27.917969 44.648438 26.820312 C 44.648438 25.726562 45.535156 24.835938 46.632812 24.835938 Z M 46.632812 24.835938 "/>
<path style=" stroke:none;fill-rule:nonzero;fill:rgb(45.882353%,45.882353%,45.882353%);fill-opacity:1;" d="M 46.632812 25.167969 C 47.546875 25.167969 48.285156 25.90625 48.285156 26.820312 C 48.285156 27.734375 47.546875 28.476562 46.632812 28.476562 C 45.71875 28.476562 44.980469 27.734375 44.980469 26.820312 C 44.980469 25.90625 45.71875 25.167969 46.632812 25.167969 Z M 46.632812 25.167969 "/>
<path style=" stroke:none;fill-rule:nonzero;fill:rgb(25.882354%,25.882354%,25.882354%);fill-opacity:1;" d="M 23.8125 27.484375 C 26.460938 27.484375 28.609375 29.628906 28.609375 32.277344 C 28.609375 34.925781 26.460938 37.074219 23.8125 37.074219 C 21.164062 37.074219 19.015625 34.925781 19.015625 32.277344 C 19.015625 29.628906 21.164062 27.484375 23.8125 27.484375 Z M 23.8125 27.484375 "/>
<path style=" stroke:none;fill-rule:nonzero;fill:rgb(38.039216%,38.039216%,38.039216%);fill-opacity:0.996078;" d="M 23.785156 27.8125 C 22.886719 27.8125 22.160156 27.960938 22.160156 28.144531 L 22.160156 30.625 L 19.679688 30.625 C 19.496094 30.625 19.347656 31.351562 19.347656 32.253906 L 19.347656 32.304688 C 19.347656 33.207031 19.496094 33.933594 19.679688 33.933594 L 22.160156 33.933594 L 22.160156 36.414062 C 22.160156 36.59375 22.886719 36.742188 23.785156 36.742188 L 23.839844 36.742188 C 24.738281 36.742188 25.464844 36.59375 25.464844 36.414062 L 25.464844 33.933594 L 27.945312 33.933594 C 28.128906 33.933594 28.277344 33.207031 28.277344 32.304688 L 28.277344 32.253906 C 28.277344 31.351562 28.128906 30.625 27.945312 30.625 L 25.464844 30.625 L 25.464844 28.144531 C 25.464844 27.960938 24.738281 27.8125 23.839844 27.8125 Z M 23.785156 27.8125 "/>
<path style=" stroke:none;fill-rule:nonzero;fill:rgb(45.882353%,45.882353%,45.882353%);fill-opacity:1;" d="M 22.160156 30.789062 L 25.464844 30.789062 L 25.464844 33.765625 L 22.160156 33.765625 Z M 22.160156 30.789062 "/>
<path style=" stroke:none;fill-rule:nonzero;fill:rgb(40.000001%,73.333335%,41.568628%);fill-opacity:1;" d="M 27.78125 21.199219 C 28.511719 21.199219 29.105469 21.792969 29.105469 22.523438 C 29.105469 23.253906 28.511719 23.84375 27.78125 23.84375 C 27.050781 23.84375 26.457031 23.253906 26.457031 22.523438 C 26.457031 21.792969 27.050781 21.199219 27.78125 21.199219 Z M 27.78125 21.199219 "/>
<path style=" stroke:none;fill-rule:nonzero;fill:rgb(40.000001%,73.333335%,41.568628%);fill-opacity:1;" d="M 35.71875 21.199219 C 36.449219 21.199219 37.042969 21.792969 37.042969 22.523438 C 37.042969 23.253906 36.449219 23.84375 35.71875 23.84375 C 34.988281 23.84375 34.394531 23.253906 34.394531 22.523438 C 34.394531 21.792969 34.988281 21.199219 35.71875 21.199219 Z M 35.71875 21.199219 "/>
<path style=" stroke:none;fill-rule:nonzero;fill:rgb(40.000001%,73.333335%,41.568628%);fill-opacity:1;" d="M 30.757812 24.835938 L 32.742188 24.835938 C 33.289062 24.835938 33.734375 25.28125 33.734375 25.828125 C 33.734375 26.378906 33.289062 26.820312 32.742188 26.820312 L 30.757812 26.820312 C 30.210938 26.820312 29.765625 26.378906 29.765625 25.828125 C 29.765625 25.28125 30.210938 24.835938 30.757812 24.835938 Z M 30.757812 24.835938 "/>
<path style=" stroke:none;fill-rule:nonzero;fill:rgb(25.882354%,25.882354%,25.882354%);fill-opacity:1;" d="M 35.71875 21.53125 C 36.265625 21.53125 36.710938 21.972656 36.710938 22.523438 C 36.710938 23.070312 36.265625 23.515625 35.71875 23.515625 C 35.171875 23.515625 34.726562 23.070312 34.726562 22.523438 C 34.726562 21.972656 35.171875 21.53125 35.71875 21.53125 Z M 35.71875 21.53125 "/>
<path style=" stroke:none;fill-rule:nonzero;fill:rgb(25.882354%,25.882354%,25.882354%);fill-opacity:1;" d="M 27.78125 21.53125 C 28.328125 21.53125 28.773438 21.972656 28.773438 22.523438 C 28.773438 23.070312 28.328125 23.515625 27.78125 23.515625 C 27.234375 23.515625 26.789062 23.070312 26.789062 22.523438 C 26.789062 21.972656 27.234375 21.53125 27.78125 21.53125 Z M 27.78125 21.53125 "/>
<path style=" stroke:none;fill-rule:nonzero;fill:rgb(25.882354%,25.882354%,25.882354%);fill-opacity:1;" d="M 30.757812 25.167969 L 32.742188 25.167969 C 33.109375 25.167969 33.402344 25.464844 33.402344 25.828125 C 33.402344 26.195312 33.109375 26.492188 32.742188 26.492188 L 30.757812 26.492188 C 30.390625 26.492188 30.097656 26.195312 30.097656 25.828125 C 30.097656 25.464844 30.390625 25.167969 30.757812 25.167969 Z M 30.757812 25.167969 "/>
</g>
</svg>
