<?xml version="1.0" encoding="UTF-8"?>
<svg xmlns="http://www.w3.org/2000/svg" xmlns:xlink="http://www.w3.org/1999/xlink" width="64px" height="64px" viewBox="0 0 64 64" version="1.1">
<g id="surface1">
<path style=" stroke:none;fill-rule:nonzero;fill:rgb(25.882354%,25.882354%,25.882354%);fill-opacity:1;" d="M 31.804688 7.113281 C 31.386719 7.105469 30.972656 7.210938 30.609375 7.417969 L 10.816406 18.847656 C 10.109375 19.253906 9.675781 20.007812 9.675781 20.824219 L 9.675781 43.675781 C 9.675781 44.492188 10.109375 45.246094 10.816406 45.652344 L 30.609375 57.082031 C 31.316406 57.488281 32.183594 57.488281 32.890625 57.082031 L 52.683594 45.652344 C 53.390625 45.246094 53.824219 44.492188 53.824219 43.675781 L 53.824219 20.824219 C 53.824219 20.007812 53.390625 19.253906 52.683594 18.847656 L 32.890625 7.417969 C 32.558594 7.226562 32.1875 7.125 31.804688 7.113281 Z M 31.804688 7.113281 "/>
<path style=" stroke:none;fill-rule:nonzero;fill:rgb(25.882354%,64.705884%,96.078432%);fill-opacity:1;" d="M 29.105469 4.269531 L 8.269531 16.300781 L 16.191406 20.875 L 29.105469 13.417969 Z M 29.105469 4.269531 "/>
<path style=" stroke:none;fill-rule:nonzero;fill:rgb(61.176473%,80.000001%,39.607844%);fill-opacity:1;" d="M 34.394531 4.269531 L 34.394531 13.417969 L 47.308594 20.875 L 55.230469 16.300781 Z M 34.394531 4.269531 "/>
<path style=" stroke:none;fill-rule:nonzero;fill:rgb(36.078432%,41.960785%,75.294119%);fill-opacity:1;" d="M 6.195312 21.210938 L 6.195312 44.609375 L 14.121094 40.035156 L 14.121094 25.789062 Z M 6.195312 21.210938 "/>
<path style=" stroke:none;fill-rule:nonzero;fill:rgb(100%,43.921569%,26.274511%);fill-opacity:1;" d="M 57.304688 21.210938 L 49.378906 25.789062 L 49.378906 40.035156 L 57.304688 44.609375 Z M 57.304688 21.210938 "/>
<path style=" stroke:none;fill-rule:nonzero;fill:rgb(67.058825%,27.843139%,73.725492%);fill-opacity:1;" d="M 17.339844 44.289062 L 9.414062 48.863281 L 29.105469 60.230469 L 29.105469 51.082031 Z M 17.339844 44.289062 "/>
<path style=" stroke:none;fill-rule:nonzero;fill:rgb(93.725491%,32.549021%,31.37255%);fill-opacity:1;" d="M 46.160156 44.289062 L 34.394531 51.082031 L 34.394531 60.230469 L 54.085938 48.863281 Z M 46.160156 44.289062 "/>
<path style=" stroke:none;fill-rule:nonzero;fill:rgb(100%,79.215688%,15.686275%);fill-opacity:1;" d="M 31.75 20.347656 C 30.601562 20.484375 29.625 21.238281 28.59375 21.726562 C 26.253906 23.054688 23.859375 24.320312 21.703125 25.9375 C 20.9375 26.789062 21.199219 28.046875 21.074219 29.101562 C 21.035156 31.996094 20.921875 34.910156 21.257812 37.792969 C 21.617188 38.882812 22.835938 39.285156 23.683594 39.921875 C 26.171875 41.402344 28.640625 42.957031 31.304688 44.105469 C 32.429688 44.34375 33.386719 43.488281 34.359375 43.070312 C 36.886719 41.65625 39.46875 40.296875 41.796875 38.5625 C 42.5625 37.710938 42.300781 36.453125 42.425781 35.398438 C 42.464844 32.503906 42.578125 29.589844 42.242188 26.707031 C 41.882812 25.617188 40.664062 25.214844 39.816406 24.578125 C 37.328125 23.097656 34.859375 21.542969 32.195312 20.394531 C 32.050781 20.351562 31.898438 20.347656 31.75 20.347656 Z M 31.75 20.347656 "/>
</g>
</svg>
