<?xml version="1.0" encoding="UTF-8"?>
<svg xmlns="http://www.w3.org/2000/svg" xmlns:xlink="http://www.w3.org/1999/xlink" width="64px" height="64px" viewBox="0 0 64 64" version="1.1">
<g id="surface1">
<path style=" stroke:none;fill-rule:nonzero;fill:rgb(74.117649%,74.117649%,74.117649%);fill-opacity:1;" d="M 9.25 3.535156 L 9.363281 3.46875 C 12.496094 1.660156 18.277344 5.808594 22.277344 12.738281 L 22.34375 12.851562 C 26.34375 19.78125 27.050781 26.863281 23.917969 28.671875 L 23.800781 28.738281 C 20.671875 30.546875 14.890625 26.394531 10.886719 19.46875 L 10.824219 19.351562 C 6.824219 12.425781 6.117188 5.339844 9.25 3.535156 Z M 9.25 3.535156 "/>
<path style=" stroke:none;fill-rule:nonzero;fill:rgb(45.882353%,45.882353%,45.882353%);fill-opacity:1;" d="M 10.585938 5.816406 L 10.675781 5.765625 C 13.183594 4.320312 18.015625 7.996094 21.46875 13.980469 L 21.527344 14.078125 C 24.980469 20.0625 25.75 26.085938 23.246094 27.53125 L 23.152344 27.585938 C 20.648438 29.03125 15.816406 25.355469 12.359375 19.371094 L 12.304688 19.273438 C 8.847656 13.289062 8.078125 7.265625 10.585938 5.816406 Z M 10.585938 5.816406 "/>
<path style=" stroke:none;fill-rule:nonzero;fill:rgb(74.117649%,74.117649%,74.117649%);fill-opacity:1;" d="M 54.34375 3.535156 L 54.230469 3.46875 C 51.097656 1.660156 45.316406 5.808594 41.316406 12.738281 L 41.25 12.851562 C 37.25 19.78125 36.546875 26.863281 39.675781 28.671875 L 39.792969 28.738281 C 42.925781 30.546875 48.707031 26.394531 52.707031 19.46875 L 52.773438 19.351562 C 56.773438 12.425781 57.476562 5.339844 54.34375 3.535156 Z M 54.34375 3.535156 "/>
<path style=" stroke:none;fill-rule:nonzero;fill:rgb(45.882353%,45.882353%,45.882353%);fill-opacity:1;" d="M 53.011719 5.816406 L 52.917969 5.765625 C 50.414062 4.320312 45.582031 7.996094 42.125 13.980469 L 42.070312 14.078125 C 38.613281 20.0625 37.84375 26.085938 40.351562 27.53125 L 40.441406 27.585938 C 42.949219 29.03125 47.78125 25.355469 51.234375 19.371094 L 51.292969 19.273438 C 54.746094 13.289062 55.515625 7.265625 53.011719 5.816406 Z M 53.011719 5.816406 "/>
<path style=" stroke:none;fill-rule:nonzero;fill:rgb(74.117649%,74.117649%,74.117649%);fill-opacity:1;" d="M 31.75 24.3125 C 22.636719 24.3125 14.917969 29.855469 15.042969 38.863281 C 15.042969 42.832031 11.246094 44.15625 11.246094 49.449219 C 11.246094 58.707031 22.636719 61.355469 31.75 61.351562 C 40.863281 61.355469 52.253906 58.707031 52.253906 49.449219 C 52.253906 44.15625 48.457031 42.832031 48.457031 38.863281 C 48.582031 29.855469 40.863281 24.3125 31.75 24.3125 Z M 31.75 24.3125 "/>
<path style=" stroke:none;fill-rule:nonzero;fill:rgb(87.843138%,87.843138%,87.843138%);fill-opacity:1;" d="M 31.75 41.511719 C 40.152344 41.511719 46.964844 45.46875 46.964844 50.351562 L 46.964844 50.53125 C 46.964844 55.410156 40.152344 59.371094 31.75 59.371094 C 23.347656 59.371094 16.535156 55.410156 16.535156 50.53125 L 16.535156 50.351562 C 16.535156 45.46875 23.347656 41.511719 31.75 41.511719 Z M 31.75 41.511719 "/>
<path style=" stroke:none;fill-rule:nonzero;fill:rgb(98.039216%,98.039216%,98.039216%);fill-opacity:1;" d="M 28.9375 51.433594 L 28.9375 54.738281 C 28.9375 55.105469 29.332031 55.402344 29.820312 55.402344 L 30.703125 55.402344 C 31.191406 55.402344 31.585938 55.105469 31.585938 54.738281 L 31.585938 50.109375 Z M 28.9375 51.433594 "/>
<path style=" stroke:none;fill-rule:nonzero;fill:rgb(96.078432%,96.078432%,96.078432%);fill-opacity:0.995763;" d="M 38.714844 34.398438 C 36.097656 35.097656 34.367188 37.125 34.847656 38.921875 C 35.328125 40.71875 37.839844 41.605469 40.457031 40.902344 C 43.074219 40.203125 44.808594 38.175781 44.324219 36.378906 C 43.84375 34.582031 41.332031 33.695312 38.714844 34.398438 Z M 38.714844 34.398438 "/>
<path style=" stroke:none;fill-rule:nonzero;fill:rgb(25.882354%,25.882354%,25.882354%);fill-opacity:0.995763;" d="M 37.761719 36.878906 C 36.695312 36.878906 35.832031 37.742188 35.832031 38.808594 C 35.832031 39.871094 36.695312 40.734375 37.761719 40.734375 C 38.824219 40.734375 39.6875 39.871094 39.6875 38.808594 C 39.6875 37.742188 38.824219 36.878906 37.761719 36.878906 Z M 37.761719 36.878906 "/>
<path style=" stroke:none;fill-rule:nonzero;fill:rgb(74.117649%,74.117649%,74.117649%);fill-opacity:1;" d="M 29.105469 26.957031 C 29.667969 25.710938 27.78125 23.652344 27.121094 21.667969 L 29.765625 24.3125 C 30.425781 22.328125 29.921875 22.347656 29.765625 20.34375 C 31.367188 22.214844 31.75 22.328125 32.410156 24.3125 C 32.410156 22.328125 33.074219 21.003906 35.058594 20.34375 C 33.734375 21.667969 34.394531 22.328125 33.734375 24.3125 C 33.9375 22.464844 35.058594 22.328125 37.042969 21.667969 C 35.058594 23.652344 33.734375 25.636719 34.394531 26.957031 Z M 29.105469 26.957031 "/>
<path style=" stroke:none;fill-rule:nonzero;fill:rgb(25.882354%,25.882354%,25.882354%);fill-opacity:1;" d="M 31.75 42.253906 C 29.949219 42.253906 28.414062 43.585938 27.78125 45.480469 C 28.414062 47.375 29.949219 48.703125 31.75 48.703125 C 33.550781 48.703125 35.085938 47.375 35.71875 45.480469 C 35.085938 43.585938 33.550781 42.253906 31.75 42.253906 Z M 31.75 42.253906 "/>
<path style=" stroke:none;fill-rule:nonzero;fill:rgb(98.039216%,98.039216%,98.039216%);fill-opacity:1;" d="M 31.914062 50.109375 L 31.914062 54.738281 C 31.914062 55.105469 32.308594 55.402344 32.796875 55.402344 L 33.679688 55.402344 C 34.167969 55.402344 34.5625 55.105469 34.5625 54.738281 L 34.5625 51.433594 Z M 31.914062 50.109375 "/>
<path style="fill:none;stroke-width:10.59;stroke-linecap:round;stroke-linejoin:round;stroke:rgb(25.882354%,25.882354%,25.882354%);stroke-opacity:1;stroke-miterlimit:4;" d="M 211.65625 201.75 C 245.75 202.21875 254 191.15625 254 170 C 254 191.15625 264.59375 201.75 296.34375 201.75 " transform="matrix(0.125,0,0,0.125,0,26.875)"/>
<path style=" stroke:none;fill-rule:nonzero;fill:rgb(96.078432%,96.078432%,96.078432%);fill-opacity:0.995763;" d="M 24.785156 34.398438 C 27.402344 35.097656 29.132812 37.125 28.652344 38.921875 C 28.171875 40.71875 25.660156 41.605469 23.042969 40.902344 C 20.425781 40.203125 18.691406 38.175781 19.175781 36.378906 C 19.65625 34.582031 22.167969 33.695312 24.785156 34.398438 Z M 24.785156 34.398438 "/>
<path style=" stroke:none;fill-rule:nonzero;fill:rgb(25.882354%,25.882354%,25.882354%);fill-opacity:0.995763;" d="M 25.738281 36.878906 C 26.804688 36.878906 27.667969 37.742188 27.667969 38.808594 C 27.667969 39.871094 26.804688 40.734375 25.738281 40.734375 C 24.675781 40.734375 23.8125 39.871094 23.8125 38.808594 C 23.8125 37.742188 24.675781 36.878906 25.738281 36.878906 Z M 25.738281 36.878906 "/>
</g>
</svg>
