<?xml version="1.0" encoding="UTF-8"?>
<svg xmlns="http://www.w3.org/2000/svg" xmlns:xlink="http://www.w3.org/1999/xlink" width="64px" height="64px" viewBox="0 0 64 64" version="1.1">
<g id="surface1">
<path style=" stroke:none;fill-rule:nonzero;fill:rgb(93.333334%,93.333334%,93.333334%);fill-opacity:1;" d="M 42.332031 3.144531 L 10.582031 3.144531 C 9.117188 3.144531 7.9375 4.324219 7.9375 5.792969 L 7.9375 58.707031 C 7.9375 60.175781 9.117188 61.355469 10.582031 61.355469 L 52.917969 61.355469 C 54.382812 61.355469 55.5625 60.175781 55.5625 58.707031 L 55.5625 16.375 Z M 42.332031 3.144531 "/>
<path style=" stroke:none;fill-rule:nonzero;fill:rgb(25.882354%,25.882354%,25.882354%);fill-opacity:1;" d="M 35.140625 24.835938 C 34.203125 23.898438 32.652344 23.941406 31.667969 24.925781 C 30.777344 25.816406 29.441406 27.152344 28.101562 29.382812 L 30.777344 32.054688 C 33.003906 30.71875 34.339844 29.382812 35.230469 28.492188 C 36.21875 27.503906 36.257812 25.953125 35.320312 25.015625 Z M 27.210938 30.273438 L 26.054688 31.429688 C 25.214844 32.269531 24.847656 33.253906 25.785156 34.191406 L 25.964844 34.371094 C 26.902344 35.308594 27.886719 34.941406 28.726562 34.101562 L 29.886719 32.945312 Z M 27.210938 30.273438 "/>
<path style=" stroke:none;fill-rule:nonzero;fill:rgb(74.117649%,74.117649%,74.117649%);fill-opacity:1;" d="M 55.5625 16.375 L 42.332031 3.144531 L 42.332031 13.730469 C 42.332031 15.195312 43.511719 16.375 44.980469 16.375 Z M 55.5625 16.375 "/>
<path style=" stroke:none;fill-rule:nonzero;fill:rgb(25.882354%,25.882354%,25.882354%);fill-opacity:1;" d="M 43.65625 25.636719 C 42.71875 24.699219 41.167969 24.738281 40.183594 25.722656 C 39.289062 26.617188 37.953125 27.953125 36.617188 30.179688 L 39.289062 32.851562 C 41.519531 31.515625 42.855469 30.179688 43.746094 29.289062 C 44.734375 28.300781 44.773438 26.75 43.835938 25.8125 Z M 35.726562 31.070312 L 34.570312 32.226562 C 33.730469 33.066406 33.363281 34.050781 34.300781 34.988281 L 34.480469 35.167969 C 35.417969 36.105469 36.402344 35.738281 37.242188 34.902344 L 38.398438 33.742188 Z M 35.726562 31.070312 "/>
<path style=" stroke:none;fill-rule:nonzero;fill:rgb(67.058825%,27.843139%,73.725492%);fill-opacity:1;" d="M 34.484375 17.699219 C 41.449219 17.699219 47.054688 23.304688 47.054688 30.265625 C 47.054688 37.226562 41.449219 42.832031 34.484375 42.832031 C 31.5 42.832031 28.765625 41.800781 26.613281 40.074219 L 25.027344 41.664062 C 25.144531 42.105469 25.03125 42.59375 24.683594 42.941406 L 19.070312 48.554688 C 18.550781 49.070312 17.71875 49.070312 17.199219 48.554688 L 16.265625 47.617188 C 15.746094 47.101562 15.746094 46.265625 16.265625 45.746094 L 21.875 40.132812 C 22.222656 39.785156 22.714844 39.671875 23.15625 39.792969 L 24.734375 38.210938 C 22.972656 36.050781 21.917969 33.285156 21.917969 30.265625 C 21.917969 23.304688 27.523438 17.699219 34.484375 17.699219 Z M 34.484375 20.34375 C 28.988281 20.34375 24.5625 24.769531 24.5625 30.265625 C 24.5625 35.761719 28.988281 40.1875 34.484375 40.1875 C 39.980469 40.1875 44.40625 35.761719 44.40625 30.265625 C 44.40625 24.769531 39.980469 20.34375 34.484375 20.34375 Z M 34.484375 20.34375 "/>
</g>
</svg>
