<?xml version="1.0" encoding="UTF-8"?>
<svg xmlns="http://www.w3.org/2000/svg" xmlns:xlink="http://www.w3.org/1999/xlink" width="64px" height="64px" viewBox="0 0 64 64" version="1.1">
<g id="surface1">
<path style=" stroke:none;fill-rule:nonzero;fill:rgb(87.843138%,87.843138%,87.843138%);fill-opacity:1;" d="M 2.644531 17.699219 L 2.644531 54.992188 C 2.644531 56.316406 3.824219 57.386719 5.292969 57.386719 L 58.207031 57.386719 C 59.675781 57.386719 60.855469 56.316406 60.855469 54.992188 L 60.855469 17.699219 Z M 2.644531 17.699219 "/>
<path style=" stroke:none;fill-rule:nonzero;fill:rgb(93.333334%,93.333334%,93.333334%);fill-opacity:0.986239;" d="M 3.96875 18.359375 L 3.96875 54.738281 C 3.96875 55.472656 4.558594 56.0625 5.292969 56.0625 L 58.207031 56.0625 C 58.941406 56.0625 59.53125 55.472656 59.53125 54.738281 L 59.53125 18.359375 Z M 3.96875 18.359375 "/>
<path style=" stroke:none;fill-rule:nonzero;fill:rgb(25.882354%,25.882354%,25.882354%);fill-opacity:1;" d="M 5.292969 7.113281 C 3.824219 7.113281 2.644531 8.292969 2.644531 9.761719 L 2.644531 17.699219 L 31.75 17.699219 L 31.75 7.113281 Z M 5.292969 7.113281 "/>
<path style=" stroke:none;fill-rule:nonzero;fill:rgb(93.333334%,93.333334%,93.333334%);fill-opacity:1;" d="M 31.75 7.113281 L 31.75 17.699219 L 60.855469 17.699219 L 60.855469 9.761719 C 60.855469 8.292969 59.675781 7.113281 58.207031 7.113281 Z M 31.75 7.113281 "/>
<path style=" stroke:none;fill-rule:nonzero;fill:rgb(93.725491%,32.549021%,31.37255%);fill-opacity:1;" d="M 57.707031 15.210938 C 57.449219 15.472656 57.03125 15.472656 56.773438 15.210938 L 52.09375 10.535156 C 51.835938 10.277344 51.835938 9.859375 52.09375 9.601562 C 52.351562 9.339844 52.773438 9.339844 53.03125 9.601562 L 57.707031 14.277344 C 57.964844 14.535156 57.964844 14.953125 57.707031 15.210938 Z M 57.707031 15.210938 "/>
<path style=" stroke:none;fill-rule:nonzero;fill:rgb(93.725491%,32.549021%,31.37255%);fill-opacity:1;" d="M 52.09375 15.210938 C 52.351562 15.472656 52.773438 15.472656 53.03125 15.210938 L 57.707031 10.535156 C 57.964844 10.277344 57.964844 9.859375 57.707031 9.601562 C 57.449219 9.339844 57.03125 9.339844 56.773438 9.601562 L 52.09375 14.277344 C 51.835938 14.535156 51.835938 14.953125 52.09375 15.210938 Z M 52.09375 15.210938 "/>
<path style=" stroke:none;fill-rule:nonzero;fill:rgb(36.078432%,41.960785%,75.294119%);fill-opacity:1;" d="M 31.75 22.988281 C 33.941406 22.988281 35.71875 25.949219 35.71875 29.605469 C 35.71875 33.257812 33.941406 36.21875 31.75 36.21875 C 29.558594 36.21875 27.78125 33.257812 27.78125 29.605469 C 27.78125 25.949219 29.558594 22.988281 31.75 22.988281 Z M 31.75 22.988281 "/>
<path style=" stroke:none;fill-rule:nonzero;fill:rgb(67.058825%,27.843139%,73.725492%);fill-opacity:1;" d="M 42.039062 27.25 C 43.589844 28.800781 42.753906 32.152344 40.167969 34.734375 C 37.585938 37.320312 34.234375 38.15625 32.683594 36.605469 C 31.136719 35.054688 31.972656 31.707031 34.554688 29.121094 C 37.140625 26.539062 40.488281 25.703125 42.039062 27.25 Z M 42.039062 27.25 "/>
<path style=" stroke:none;fill-rule:nonzero;fill:rgb(92.54902%,25.098041%,47.843137%);fill-opacity:1;" d="M 46.300781 37.542969 C 46.300781 39.734375 43.339844 41.511719 39.6875 41.511719 C 36.035156 41.511719 33.074219 39.734375 33.074219 37.542969 C 33.074219 35.351562 36.035156 33.574219 39.6875 33.574219 C 43.339844 33.574219 46.300781 35.351562 46.300781 37.542969 Z M 46.300781 37.542969 "/>
<path style=" stroke:none;fill-rule:nonzero;fill:rgb(93.725491%,32.549021%,31.37255%);fill-opacity:1;" d="M 42.039062 47.832031 C 40.488281 49.382812 37.140625 48.542969 34.554688 45.960938 C 31.972656 43.378906 31.136719 40.027344 32.683594 38.476562 C 34.234375 36.925781 37.585938 37.765625 40.167969 40.347656 C 42.753906 42.929688 43.589844 46.28125 42.039062 47.832031 Z M 42.039062 47.832031 "/>
<path style=" stroke:none;fill-rule:nonzero;fill:rgb(100%,43.921569%,26.274511%);fill-opacity:1;" d="M 31.75 38.863281 C 33.941406 38.863281 35.71875 41.824219 35.71875 45.480469 C 35.71875 49.132812 33.941406 52.09375 31.75 52.09375 C 29.558594 52.09375 27.78125 49.132812 27.78125 45.480469 C 27.78125 41.824219 29.558594 38.863281 31.75 38.863281 Z M 31.75 38.863281 "/>
<path style=" stroke:none;fill-rule:nonzero;fill:rgb(100%,65.490198%,14.901961%);fill-opacity:1;" d="M 30.816406 38.476562 C 32.363281 40.027344 31.527344 43.378906 28.945312 45.960938 C 26.359375 48.542969 23.011719 49.382812 21.460938 47.832031 C 19.910156 46.28125 20.746094 42.929688 23.332031 40.347656 C 25.914062 37.765625 29.265625 36.925781 30.816406 38.476562 Z M 30.816406 38.476562 "/>
<path style=" stroke:none;fill-rule:nonzero;fill:rgb(61.176473%,80.000001%,39.607844%);fill-opacity:1;" d="M 30.425781 37.542969 C 30.425781 39.734375 27.464844 41.511719 23.8125 41.511719 C 20.160156 41.511719 17.199219 39.734375 17.199219 37.542969 C 17.199219 35.351562 20.160156 33.574219 23.8125 33.574219 C 27.464844 33.574219 30.425781 35.351562 30.425781 37.542969 Z M 30.425781 37.542969 "/>
<path style=" stroke:none;fill-rule:nonzero;fill:rgb(14.901961%,65.098041%,60.392159%);fill-opacity:1;" d="M 30.816406 36.605469 C 29.265625 38.15625 25.914062 37.320312 23.332031 34.734375 C 20.746094 32.152344 19.910156 28.800781 21.460938 27.25 C 23.011719 25.703125 26.359375 26.539062 28.945312 29.121094 C 31.527344 31.707031 32.363281 35.054688 30.816406 36.605469 Z M 30.816406 36.605469 "/>
<path style=" stroke:none;fill-rule:nonzero;fill:rgb(36.078432%,41.960785%,75.294119%);fill-opacity:1;" d="M 31.75 22.988281 C 29.550781 22.988281 27.78125 25.941406 27.78125 29.605469 C 27.78125 33.269531 29.550781 36.21875 31.75 36.21875 Z M 31.75 22.988281 "/>
<path style=" stroke:none;fill-rule:nonzero;fill:rgb(25.882354%,25.882354%,25.882354%);fill-opacity:1;" d="M 31.75 34.894531 C 33.210938 34.894531 34.394531 36.082031 34.394531 37.542969 C 34.394531 39.003906 33.210938 40.1875 31.75 40.1875 C 30.289062 40.1875 29.105469 39.003906 29.105469 37.542969 C 29.105469 36.082031 30.289062 34.894531 31.75 34.894531 Z M 31.75 34.894531 "/>
<path style=" stroke:none;fill-rule:nonzero;fill:rgb(16.078432%,71.372551%,96.470588%);fill-opacity:1;" d="M 2.644531 17.699219 L 60.855469 17.699219 L 60.855469 18.359375 L 2.644531 18.359375 Z M 2.644531 17.699219 "/>
</g>
</svg>
