<?xml version="1.0" encoding="UTF-8"?>
<svg xmlns="http://www.w3.org/2000/svg" xmlns:xlink="http://www.w3.org/1999/xlink" width="64px" height="64px" viewBox="0 0 64 64" version="1.1">
<g id="surface1">
<path style=" stroke:none;fill-rule:nonzero;fill:rgb(25.882354%,64.705884%,96.078432%);fill-opacity:1;" d="M 31.75 3.144531 C 47.824219 3.144531 60.855469 16.175781 60.855469 32.25 C 60.855469 48.324219 47.824219 61.355469 31.75 61.355469 C 15.675781 61.355469 2.644531 48.324219 2.644531 32.25 C 2.644531 16.175781 15.675781 3.144531 31.75 3.144531 Z M 31.75 3.144531 "/>
<path style=" stroke:none;fill-rule:nonzero;fill:rgb(98.431373%,54.901963%,0%);fill-opacity:1;" d="M 31.75 11.082031 C 31.015625 11.082031 30.425781 11.671875 30.425781 12.40625 L 30.425781 29.054688 L 18.652344 17.28125 C 18.136719 16.765625 17.300781 16.765625 16.78125 17.28125 C 16.265625 17.800781 16.265625 18.636719 16.78125 19.152344 L 28.554688 30.925781 L 11.90625 30.925781 C 11.171875 30.925781 10.582031 31.515625 10.582031 32.25 C 10.582031 32.984375 11.171875 33.574219 11.90625 33.574219 L 28.554688 33.574219 L 16.78125 45.347656 C 16.265625 45.863281 16.265625 46.699219 16.78125 47.21875 C 17.300781 47.734375 18.136719 47.734375 18.652344 47.21875 L 30.425781 35.445312 L 30.425781 52.09375 C 30.425781 52.828125 31.015625 53.417969 31.75 53.417969 C 32.484375 53.417969 33.074219 52.828125 33.074219 52.09375 L 33.074219 35.445312 L 44.847656 47.21875 C 45.363281 47.734375 46.199219 47.734375 46.71875 47.21875 C 47.234375 46.699219 47.234375 45.863281 46.71875 45.347656 L 34.945312 33.574219 L 51.59375 33.574219 C 52.328125 33.574219 52.917969 32.984375 52.917969 32.25 C 52.917969 31.515625 52.328125 30.925781 51.59375 30.925781 L 34.945312 30.925781 L 46.71875 19.152344 C 47.234375 18.636719 47.234375 17.800781 46.71875 17.28125 C 46.199219 16.765625 45.363281 16.765625 44.847656 17.28125 L 33.074219 29.054688 L 33.074219 12.40625 C 33.074219 11.671875 32.484375 11.082031 31.75 11.082031 Z M 31.75 11.082031 "/>
<path style=" stroke:none;fill-rule:nonzero;fill:rgb(100%,65.490198%,14.901961%);fill-opacity:1;" d="M 31.75 16.375 C 40.515625 16.375 47.625 23.484375 47.625 32.25 C 47.625 41.015625 40.515625 48.125 31.75 48.125 C 22.984375 48.125 15.875 41.015625 15.875 32.25 C 15.875 23.484375 22.984375 16.375 31.75 16.375 Z M 31.75 16.375 "/>
<path style=" stroke:none;fill-rule:nonzero;fill:rgb(93.333334%,93.333334%,93.333334%);fill-opacity:1;" d="M 35.71875 32.25 C 32.003906 32.25 28.816406 34.414062 27.339844 37.554688 C 24.058594 37.734375 21.320312 39.886719 20.285156 42.851562 C 20.140625 42.839844 19.992188 42.832031 19.84375 42.832031 C 16.914062 42.832031 14.550781 45.195312 14.550781 48.125 C 14.550781 51.054688 16.914062 53.417969 19.84375 53.417969 L 42.332031 53.417969 C 45.996094 53.417969 48.949219 50.464844 48.949219 46.800781 C 48.949219 44.066406 47.304688 41.730469 44.945312 40.71875 C 44.546875 35.960938 40.582031 32.25 35.71875 32.25 Z M 35.71875 32.25 "/>
</g>
</svg>
