
<svg xmlns="http://www.w3.org/2000/svg" xmlns:xlink="http://www.w3.org/1999/xlink" width="48px" height="48px" viewBox="0 0 48 48" version="1.1">
<g id="surface1">
<path style=" stroke:none;fill-rule:nonzero;fill:rgb(36.078432%,41.960785%,75.294119%);fill-opacity:1;" d="M 3.972656 2.359375 L 43.652344 2.359375 C 44.753906 2.359375 45.640625 3.246094 45.640625 4.347656 L 45.640625 44.027344 C 45.640625 45.128906 44.753906 46.015625 43.652344 46.015625 L 3.972656 46.015625 C 2.871094 46.015625 1.984375 45.128906 1.984375 44.027344 L 1.984375 4.347656 C 1.984375 3.246094 2.871094 2.359375 3.972656 2.359375 Z M 3.972656 2.359375 "/>
<path style=" stroke:none;fill-rule:nonzero;fill:rgb(93.333334%,93.333334%,93.333334%);fill-opacity:1;" d="M 4.960938 4.347656 C 4.414062 4.347656 3.972656 4.789062 3.972656 5.335938 L 3.972656 43.039062 C 3.972656 43.585938 4.414062 44.027344 4.960938 44.027344 L 42.664062 44.027344 C 43.210938 44.027344 43.652344 43.585938 43.652344 43.039062 L 43.652344 5.335938 C 43.652344 4.789062 43.210938 4.347656 42.664062 4.347656 Z M 6.453125 6.324219 L 41.171875 6.324219 C 41.453125 6.324219 41.667969 6.546875 41.667969 6.828125 L 41.667969 41.546875 C 41.667969 41.828125 41.453125 42.042969 41.171875 42.042969 L 6.453125 42.042969 C 6.171875 42.042969 5.949219 41.828125 5.949219 41.546875 L 5.949219 6.828125 C 5.949219 6.546875 6.171875 6.324219 6.453125 6.324219 Z M 6.453125 6.324219 "/>
<path style=" stroke:none;fill-rule:nonzero;fill:rgb(93.333334%,93.333334%,93.333334%);fill-opacity:1;" d="M 26.839844 8.308594 C 24.828125 8.617188 22.816406 8.921875 20.804688 9.222656 L 20.804688 31.046875 C 22.816406 30.503906 24.828125 29.964844 26.839844 29.429688 L 26.839844 20.992188 C 28.847656 24.308594 30.859375 27.621094 32.871094 30.9375 C 34.882812 30.179688 36.894531 29.429688 38.90625 28.671875 C 36.390625 25.652344 33.878906 22.644531 31.363281 19.628906 C 33.878906 16.355469 36.390625 13.089844 38.90625 9.828125 C 36.953125 9.316406 35.003906 8.820312 33.050781 8.308594 C 30.980469 11.609375 28.910156 14.90625 26.839844 18.203125 Z M 14.558594 14.234375 C 13.808594 14.515625 13.355469 15.308594 12.742188 15.816406 C 12.347656 16.347656 11.316406 16.78125 11.785156 17.558594 C 12.605469 18.84375 13.421875 20.121094 14.242188 21.410156 C 14.113281 22.441406 13.507812 22.839844 12.554688 22.890625 C 11.402344 23.164062 10.226562 23.378906 9.085938 23.683594 C 8.480469 24.101562 8.839844 24.945312 8.746094 25.578125 C 8.8125 26.214844 8.582031 26.941406 8.90625 27.511719 C 10.023438 27.972656 11.285156 28.082031 12.460938 28.398438 C 13.058594 28.621094 14.019531 28.421875 14.003906 29.34375 C 14.566406 30.007812 13.703125 30.554688 13.449219 31.160156 C 12.871094 32.164062 12.078125 33.085938 11.652344 34.160156 C 11.898438 34.890625 12.664062 35.316406 13.152344 35.90625 C 13.679688 36.289062 14.027344 37.152344 14.769531 37.039062 C 16.109375 36.171875 17.453125 35.328125 18.800781 34.464844 C 19.832031 34.609375 20.257812 35.207031 20.308594 36.171875 C 20.625 37.378906 20.769531 38.660156 21.195312 39.816406 C 21.921875 40.152344 22.808594 39.910156 23.597656 39.980469 C 24.273438 39.894531 25.371094 40.304688 25.515625 39.339844 C 25.839844 37.839844 26.164062 36.339844 26.488281 34.839844 C 27.246094 34.484375 27.945312 33.988281 28.585938 34.789062 C 29.632812 35.539062 30.683594 36.296875 31.738281 37.039062 C 32.488281 37.140625 32.855469 36.265625 33.402344 35.863281 C 33.859375 35.285156 34.628906 34.875 34.859375 34.160156 C 34.507812 33.230469 33.800781 32.453125 33.289062 31.585938 C 32.308594 32.027344 31.984375 30.808594 31.550781 30.203125 C 31.269531 29.753906 30.996094 29.300781 30.722656 28.847656 C 29.207031 32.71875 24.535156 34.890625 20.597656 33.578125 C 16.765625 32.464844 14.171875 28.304688 14.871094 24.367188 C 15.296875 21.503906 17.351562 18.964844 20.054688 17.933594 L 20.054688 16.285156 C 19.320312 16.875 18.511719 16.902344 17.839844 16.234375 C 16.738281 15.578125 15.699219 14.761719 14.558594 14.234375 Z M 14.558594 14.234375 "/>
</g>
</svg>
