<?xml version="1.0" encoding="UTF-8"?>
<svg xmlns="http://www.w3.org/2000/svg" xmlns:xlink="http://www.w3.org/1999/xlink" width="48px" height="48px" viewBox="0 0 48 48" version="1.1">
<defs>
<linearGradient id="linear0" gradientUnits="userSpaceOnUse" x1="381" y1="-41.666668" x2="381" y2="-62.833332" gradientTransform="matrix(0.0397727,0,0,-0.09375,-3.562857,22.265603)">
<stop offset="0" style="stop-color:rgb(12.941177%,12.941177%,12.941177%);stop-opacity:0.392157;"/>
<stop offset="1" style="stop-color:rgb(49.411765%,34.117648%,76.078433%);stop-opacity:0;"/>
</linearGradient>
</defs>
<g id="surface1">
<path style=" stroke:none;fill-rule:nonzero;fill:rgb(93.725491%,32.549021%,31.37255%);fill-opacity:1;" d="M 3.96875 2.359375 L 43.65625 2.359375 C 44.753906 2.359375 45.640625 3.246094 45.640625 4.34375 L 45.640625 44.03125 C 45.640625 45.128906 44.753906 46.015625 43.65625 46.015625 L 3.96875 46.015625 C 2.871094 46.015625 1.984375 45.128906 1.984375 44.03125 L 1.984375 4.34375 C 1.984375 3.246094 2.871094 2.359375 3.96875 2.359375 Z M 3.96875 2.359375 "/>
<path style=" stroke:none;fill-rule:nonzero;fill:rgb(0%,0%,0%);fill-opacity:0.235294;" d="M 7.9375 2.359375 L 7.9375 24.1875 C 7.9375 25.285156 8.824219 26.171875 9.921875 26.171875 L 13.890625 26.171875 C 14.988281 26.171875 15.875 25.285156 15.875 24.1875 L 15.875 2.359375 Z M 7.9375 2.359375 "/>
<path style=" stroke:none;fill-rule:nonzero;fill:rgb(0%,0%,0%);fill-opacity:0.313726;" d="M 8.929688 2.359375 L 14.882812 2.359375 L 14.882812 25.179688 L 8.929688 25.179688 Z M 8.929688 2.359375 "/>
<path style=" stroke:none;fill-rule:nonzero;fill:rgb(87.843138%,87.843138%,87.843138%);fill-opacity:1;" d="M 9.175781 16.496094 C 8.902344 16.496094 8.679688 16.71875 8.679688 16.992188 L 8.679688 17.488281 C 8.679688 17.765625 8.902344 17.984375 9.175781 17.984375 L 10.664062 17.984375 C 10.941406 17.984375 11.164062 17.765625 11.164062 17.488281 L 11.476562 17.488281 C 11.5625 17.636719 11.722656 17.738281 11.90625 17.738281 C 12.179688 17.738281 12.402344 17.515625 12.402344 17.242188 C 12.402344 16.96875 12.179688 16.746094 11.90625 16.746094 C 11.722656 16.746094 11.5625 16.847656 11.476562 16.992188 L 11.164062 16.992188 C 11.164062 16.71875 10.941406 16.496094 10.664062 16.496094 Z M 9.175781 16.496094 "/>
<path style=" stroke:none;fill-rule:nonzero;fill:rgb(87.843138%,87.843138%,87.843138%);fill-opacity:1;" d="M 9.175781 18.976562 C 8.902344 18.976562 8.679688 19.199219 8.679688 19.472656 L 8.679688 19.96875 C 8.679688 20.246094 8.902344 20.464844 9.175781 20.464844 L 10.664062 20.464844 C 10.941406 20.464844 11.164062 20.246094 11.164062 19.96875 L 11.476562 19.96875 C 11.5625 20.117188 11.722656 20.21875 11.90625 20.21875 C 12.179688 20.21875 12.402344 19.996094 12.402344 19.722656 C 12.402344 19.449219 12.179688 19.226562 11.90625 19.226562 C 11.722656 19.226562 11.5625 19.328125 11.476562 19.472656 L 11.164062 19.472656 C 11.164062 19.199219 10.941406 18.976562 10.664062 18.976562 Z M 9.175781 18.976562 "/>
<path style=" stroke:none;fill-rule:nonzero;fill:rgb(87.843138%,87.843138%,87.843138%);fill-opacity:1;" d="M 9.175781 21.457031 C 8.902344 21.457031 8.679688 21.679688 8.679688 21.953125 L 8.679688 22.449219 C 8.679688 22.726562 8.902344 22.945312 9.175781 22.945312 L 10.664062 22.945312 C 10.941406 22.945312 11.164062 22.726562 11.164062 22.449219 L 11.476562 22.449219 C 11.5625 22.597656 11.722656 22.699219 11.90625 22.699219 C 12.179688 22.699219 12.402344 22.476562 12.402344 22.203125 C 12.402344 21.929688 12.179688 21.707031 11.90625 21.707031 C 11.722656 21.707031 11.5625 21.808594 11.476562 21.953125 L 11.164062 21.953125 C 11.164062 21.679688 10.941406 21.457031 10.664062 21.457031 Z M 9.175781 21.457031 "/>
<path style=" stroke:none;fill-rule:nonzero;fill:rgb(87.843138%,87.843138%,87.843138%);fill-opacity:1;" d="M 9.175781 14.015625 C 8.902344 14.015625 8.679688 14.238281 8.679688 14.511719 L 8.679688 15.007812 C 8.679688 15.285156 8.902344 15.503906 9.175781 15.503906 L 10.664062 15.503906 C 10.941406 15.503906 11.164062 15.285156 11.164062 15.007812 L 11.476562 15.007812 C 11.5625 15.15625 11.722656 15.257812 11.90625 15.257812 C 12.179688 15.257812 12.402344 15.035156 12.402344 14.761719 C 12.402344 14.488281 12.179688 14.265625 11.90625 14.265625 C 11.722656 14.265625 11.5625 14.367188 11.476562 14.511719 L 11.164062 14.511719 C 11.164062 14.238281 10.941406 14.015625 10.664062 14.015625 Z M 9.175781 14.015625 "/>
<path style=" stroke:none;fill-rule:nonzero;fill:rgb(87.843138%,87.843138%,87.843138%);fill-opacity:1;" d="M 9.175781 11.535156 C 8.902344 11.535156 8.679688 11.757812 8.679688 12.03125 L 8.679688 12.527344 C 8.679688 12.804688 8.902344 13.023438 9.175781 13.023438 L 10.664062 13.023438 C 10.941406 13.023438 11.164062 12.804688 11.164062 12.527344 L 11.476562 12.527344 C 11.5625 12.675781 11.722656 12.777344 11.90625 12.777344 C 12.179688 12.777344 12.402344 12.554688 12.402344 12.28125 C 12.402344 12.007812 12.179688 11.785156 11.90625 11.785156 C 11.722656 11.785156 11.5625 11.886719 11.476562 12.03125 L 11.164062 12.03125 C 11.164062 11.757812 10.941406 11.535156 10.664062 11.535156 Z M 9.175781 11.535156 "/>
<path style=" stroke:none;fill-rule:nonzero;fill:rgb(87.843138%,87.843138%,87.843138%);fill-opacity:1;" d="M 9.175781 9.054688 C 8.902344 9.054688 8.679688 9.277344 8.679688 9.550781 L 8.679688 10.046875 C 8.679688 10.324219 8.902344 10.542969 9.175781 10.542969 L 10.664062 10.542969 C 10.941406 10.542969 11.164062 10.324219 11.164062 10.046875 L 11.476562 10.046875 C 11.5625 10.195312 11.722656 10.296875 11.90625 10.296875 C 12.179688 10.296875 12.402344 10.074219 12.402344 9.800781 C 12.402344 9.527344 12.179688 9.304688 11.90625 9.304688 C 11.722656 9.304688 11.5625 9.40625 11.476562 9.550781 L 11.164062 9.550781 C 11.164062 9.277344 10.941406 9.054688 10.664062 9.054688 Z M 9.175781 9.054688 "/>
<path style=" stroke:none;fill-rule:nonzero;fill:rgb(87.843138%,87.843138%,87.843138%);fill-opacity:1;" d="M 9.175781 6.574219 C 8.902344 6.574219 8.679688 6.796875 8.679688 7.070312 L 8.679688 7.566406 C 8.679688 7.84375 8.902344 8.0625 9.175781 8.0625 L 10.664062 8.0625 C 10.941406 8.0625 11.164062 7.84375 11.164062 7.566406 L 11.476562 7.566406 C 11.5625 7.714844 11.722656 7.816406 11.90625 7.816406 C 12.179688 7.816406 12.402344 7.59375 12.402344 7.320312 C 12.402344 7.046875 12.179688 6.824219 11.90625 6.824219 C 11.722656 6.824219 11.5625 6.925781 11.476562 7.070312 L 11.164062 7.070312 C 11.164062 6.796875 10.941406 6.574219 10.664062 6.574219 Z M 9.175781 6.574219 "/>
<path style=" stroke:none;fill-rule:nonzero;fill:rgb(87.843138%,87.843138%,87.843138%);fill-opacity:1;" d="M 9.175781 4.09375 C 8.902344 4.09375 8.679688 4.316406 8.679688 4.589844 L 8.679688 5.085938 C 8.679688 5.363281 8.902344 5.582031 9.175781 5.582031 L 10.664062 5.582031 C 10.941406 5.582031 11.164062 5.363281 11.164062 5.085938 L 11.476562 5.085938 C 11.5625 5.234375 11.722656 5.335938 11.90625 5.335938 C 12.179688 5.335938 12.402344 5.113281 12.402344 4.839844 C 12.402344 4.566406 12.179688 4.34375 11.90625 4.34375 C 11.722656 4.34375 11.5625 4.445312 11.476562 4.589844 L 11.164062 4.589844 C 11.164062 4.316406 10.941406 4.09375 10.664062 4.09375 Z M 9.175781 4.09375 "/>
<path style=" stroke:none;fill-rule:nonzero;fill:rgb(87.843138%,87.843138%,87.843138%);fill-opacity:1;" d="M 14.636719 15.257812 C 14.910156 15.257812 15.132812 15.480469 15.132812 15.753906 L 15.132812 16.25 C 15.132812 16.523438 14.910156 16.746094 14.636719 16.746094 L 13.148438 16.746094 C 12.871094 16.746094 12.648438 16.523438 12.648438 16.25 L 12.335938 16.25 C 12.25 16.398438 12.089844 16.496094 11.90625 16.496094 C 11.632812 16.496094 11.410156 16.277344 11.410156 16 C 11.410156 15.726562 11.632812 15.503906 11.90625 15.503906 C 12.089844 15.503906 12.25 15.605469 12.335938 15.753906 L 12.648438 15.753906 C 12.648438 15.480469 12.871094 15.257812 13.148438 15.257812 Z M 14.636719 15.257812 "/>
<path style=" stroke:none;fill-rule:nonzero;fill:rgb(87.843138%,87.843138%,87.843138%);fill-opacity:1;" d="M 14.636719 17.738281 C 14.910156 17.738281 15.132812 17.960938 15.132812 18.234375 L 15.132812 18.730469 C 15.132812 19.003906 14.910156 19.226562 14.636719 19.226562 L 13.148438 19.226562 C 12.871094 19.226562 12.648438 19.003906 12.648438 18.730469 L 12.335938 18.730469 C 12.25 18.878906 12.089844 18.980469 11.90625 18.980469 C 11.632812 18.980469 11.410156 18.757812 11.410156 18.484375 C 11.410156 18.207031 11.632812 17.988281 11.90625 17.988281 C 12.089844 17.988281 12.25 18.085938 12.335938 18.234375 L 12.648438 18.234375 C 12.648438 17.960938 12.871094 17.738281 13.148438 17.738281 Z M 14.636719 17.738281 "/>
<path style=" stroke:none;fill-rule:nonzero;fill:rgb(87.843138%,87.843138%,87.843138%);fill-opacity:1;" d="M 14.636719 20.21875 C 14.910156 20.21875 15.132812 20.441406 15.132812 20.714844 L 15.132812 21.210938 C 15.132812 21.484375 14.910156 21.707031 14.636719 21.707031 L 13.148438 21.707031 C 12.871094 21.707031 12.648438 21.484375 12.648438 21.210938 L 12.335938 21.210938 C 12.25 21.359375 12.089844 21.460938 11.90625 21.460938 C 11.632812 21.460938 11.410156 21.238281 11.410156 20.964844 C 11.410156 20.6875 11.632812 20.46875 11.90625 20.46875 C 12.089844 20.46875 12.25 20.566406 12.335938 20.714844 L 12.648438 20.714844 C 12.648438 20.441406 12.871094 20.21875 13.148438 20.21875 Z M 14.636719 20.21875 "/>
<path style=" stroke:none;fill-rule:nonzero;fill:rgb(87.843138%,87.843138%,87.843138%);fill-opacity:1;" d="M 14.636719 22.699219 C 14.910156 22.699219 15.132812 22.921875 15.132812 23.195312 L 15.132812 23.691406 C 15.132812 23.964844 14.910156 24.1875 14.636719 24.1875 L 13.148438 24.1875 C 12.871094 24.1875 12.648438 23.964844 12.648438 23.691406 L 12.335938 23.691406 C 12.25 23.839844 12.089844 23.941406 11.90625 23.941406 C 11.632812 23.941406 11.410156 23.71875 11.410156 23.445312 C 11.410156 23.167969 11.632812 22.949219 11.90625 22.949219 C 12.089844 22.949219 12.25 23.046875 12.335938 23.195312 L 12.648438 23.195312 C 12.648438 22.921875 12.871094 22.699219 13.148438 22.699219 Z M 14.636719 22.699219 "/>
<path style=" stroke:none;fill-rule:nonzero;fill:rgb(87.843138%,87.843138%,87.843138%);fill-opacity:1;" d="M 14.636719 12.777344 C 14.910156 12.777344 15.132812 13 15.132812 13.273438 L 15.132812 13.769531 C 15.132812 14.042969 14.910156 14.265625 14.636719 14.265625 L 13.148438 14.265625 C 12.871094 14.265625 12.648438 14.042969 12.648438 13.769531 L 12.335938 13.769531 C 12.25 13.917969 12.089844 14.019531 11.90625 14.019531 C 11.632812 14.019531 11.410156 13.796875 11.410156 13.523438 C 11.410156 13.246094 11.632812 13.027344 11.90625 13.027344 C 12.089844 13.027344 12.25 13.125 12.335938 13.273438 L 12.648438 13.273438 C 12.648438 13 12.871094 12.777344 13.148438 12.777344 Z M 14.636719 12.777344 "/>
<path style=" stroke:none;fill-rule:nonzero;fill:rgb(87.843138%,87.843138%,87.843138%);fill-opacity:1;" d="M 14.636719 10.296875 C 14.910156 10.296875 15.132812 10.519531 15.132812 10.792969 L 15.132812 11.289062 C 15.132812 11.5625 14.910156 11.785156 14.636719 11.785156 L 13.148438 11.785156 C 12.871094 11.785156 12.648438 11.5625 12.648438 11.289062 L 12.335938 11.289062 C 12.25 11.4375 12.089844 11.539062 11.90625 11.539062 C 11.632812 11.539062 11.410156 11.316406 11.410156 11.042969 C 11.410156 10.765625 11.632812 10.546875 11.90625 10.546875 C 12.089844 10.546875 12.25 10.644531 12.335938 10.792969 L 12.648438 10.792969 C 12.648438 10.519531 12.871094 10.296875 13.148438 10.296875 Z M 14.636719 10.296875 "/>
<path style=" stroke:none;fill-rule:nonzero;fill:rgb(87.843138%,87.843138%,87.843138%);fill-opacity:1;" d="M 14.636719 7.816406 C 14.910156 7.816406 15.132812 8.039062 15.132812 8.3125 L 15.132812 8.808594 C 15.132812 9.082031 14.910156 9.304688 14.636719 9.304688 L 13.148438 9.304688 C 12.871094 9.304688 12.648438 9.082031 12.648438 8.808594 L 12.335938 8.808594 C 12.25 8.957031 12.089844 9.058594 11.90625 9.058594 C 11.632812 9.058594 11.410156 8.835938 11.410156 8.5625 C 11.410156 8.285156 11.632812 8.066406 11.90625 8.066406 C 12.089844 8.066406 12.25 8.164062 12.335938 8.3125 L 12.648438 8.3125 C 12.648438 8.039062 12.871094 7.816406 13.148438 7.816406 Z M 14.636719 7.816406 "/>
<path style=" stroke:none;fill-rule:nonzero;fill:rgb(87.843138%,87.843138%,87.843138%);fill-opacity:1;" d="M 14.636719 5.335938 C 14.910156 5.335938 15.132812 5.558594 15.132812 5.832031 L 15.132812 6.328125 C 15.132812 6.601562 14.910156 6.824219 14.636719 6.824219 L 13.148438 6.824219 C 12.871094 6.824219 12.648438 6.601562 12.648438 6.328125 L 12.335938 6.328125 C 12.25 6.476562 12.089844 6.574219 11.90625 6.574219 C 11.632812 6.574219 11.410156 6.355469 11.410156 6.082031 C 11.410156 5.804688 11.632812 5.582031 11.90625 5.582031 C 12.089844 5.582031 12.25 5.683594 12.335938 5.832031 L 12.648438 5.832031 C 12.648438 5.558594 12.871094 5.335938 13.148438 5.335938 Z M 14.636719 5.335938 "/>
<path style=" stroke:none;fill-rule:nonzero;fill:rgb(87.843138%,87.843138%,87.843138%);fill-opacity:1;" d="M 14.636719 2.855469 C 14.910156 2.855469 15.132812 3.078125 15.132812 3.351562 L 15.132812 3.847656 C 15.132812 4.121094 14.910156 4.34375 14.636719 4.34375 L 13.148438 4.34375 C 12.871094 4.34375 12.648438 4.121094 12.648438 3.847656 L 12.335938 3.847656 C 12.25 3.996094 12.089844 4.097656 11.90625 4.097656 C 11.632812 4.097656 11.410156 3.875 11.410156 3.601562 C 11.410156 3.324219 11.632812 3.105469 11.90625 3.105469 C 12.089844 3.105469 12.25 3.203125 12.335938 3.351562 L 12.648438 3.351562 C 12.648438 3.078125 12.871094 2.855469 13.148438 2.855469 Z M 14.636719 2.855469 "/>
<path style=" stroke:none;fill-rule:nonzero;fill:rgb(87.843138%,87.843138%,87.843138%);fill-opacity:1;" d="M 8.679688 2.359375 L 8.679688 2.605469 C 8.679688 2.882812 8.902344 3.101562 9.175781 3.101562 L 10.664062 3.101562 C 10.941406 3.101562 11.164062 2.882812 11.164062 2.605469 L 11.476562 2.605469 C 11.5625 2.753906 11.722656 2.855469 11.90625 2.855469 C 12.179688 2.855469 12.402344 2.632812 12.402344 2.359375 Z M 8.679688 2.359375 "/>
<path style=" stroke:none;fill-rule:nonzero;fill:url(#linear0);" d="M 8.433594 28.15625 L 15.378906 28.15625 L 15.378906 25.179688 L 8.433594 25.179688 Z M 8.433594 28.15625 "/>
<path style=" stroke:none;fill-rule:nonzero;fill:rgb(74.117649%,74.117649%,74.117649%);fill-opacity:1;" d="M 11.90625 22.699219 C 13.824219 22.699219 15.378906 23.921875 15.378906 25.425781 C 15.378906 26.933594 13.824219 28.15625 11.90625 28.15625 C 9.988281 28.15625 8.433594 26.933594 8.433594 25.425781 C 8.433594 23.921875 9.988281 22.699219 11.90625 22.699219 Z M 11.90625 22.699219 "/>
<path style=" stroke:none;fill-rule:nonzero;fill:rgb(87.843138%,87.843138%,87.843138%);fill-opacity:1;" d="M 11.90625 25.179688 C 10.808594 25.179688 9.921875 26.066406 9.921875 27.164062 L 8.929688 35.101562 L 8.929688 37.085938 C 8.929688 38.734375 10.257812 40.0625 11.90625 40.0625 C 13.554688 40.0625 14.882812 38.734375 14.882812 37.085938 L 14.882812 35.101562 L 13.890625 27.164062 C 13.890625 26.066406 13.003906 25.179688 11.90625 25.179688 Z M 11.90625 26.171875 C 12.457031 26.171875 12.898438 26.613281 12.898438 27.164062 C 12.898438 27.714844 12.457031 28.15625 11.90625 28.15625 C 11.355469 28.15625 10.914062 27.714844 10.914062 27.164062 C 10.914062 26.613281 11.355469 26.171875 11.90625 26.171875 Z M 11.90625 30.140625 C 12.730469 30.140625 13.394531 30.804688 13.394531 31.628906 L 13.394531 32.621094 C 13.394531 33.445312 12.730469 34.109375 11.90625 34.109375 C 11.082031 34.109375 10.417969 33.445312 10.417969 32.621094 L 10.417969 31.628906 C 10.417969 30.804688 11.082031 30.140625 11.90625 30.140625 Z M 11.90625 35.101562 C 13.003906 35.101562 13.890625 35.988281 13.890625 37.085938 C 13.890625 38.183594 13.003906 39.070312 11.90625 39.070312 C 10.808594 39.070312 9.921875 38.183594 9.921875 37.085938 C 9.921875 35.988281 10.808594 35.101562 11.90625 35.101562 Z M 11.90625 35.101562 "/>
<path style=" stroke:none;fill-rule:nonzero;fill:rgb(87.843138%,87.843138%,87.843138%);fill-opacity:1;" d="M 11.410156 23.195312 L 12.402344 23.195312 C 12.675781 23.195312 12.898438 23.417969 12.898438 23.691406 L 12.898438 27.164062 C 12.898438 27.4375 12.675781 27.660156 12.402344 27.660156 L 11.410156 27.660156 C 11.136719 27.660156 10.914062 27.4375 10.914062 27.164062 L 10.914062 23.691406 C 10.914062 23.417969 11.136719 23.195312 11.410156 23.195312 Z M 11.410156 23.195312 "/>
<path style=" stroke:none;fill-rule:nonzero;fill:rgb(61.176473%,80.000001%,39.607844%);fill-opacity:1;" d="M 32.742188 24.1875 C 32.191406 24.1875 31.75 24.628906 31.75 25.179688 L 31.75 38.078125 L 27.78125 38.078125 L 35.71875 46.015625 L 43.65625 38.078125 L 39.6875 38.078125 L 39.6875 25.179688 C 39.6875 24.628906 39.246094 24.1875 38.695312 24.1875 Z M 32.742188 24.1875 "/>
</g>
</svg>
