<?xml version="1.0" encoding="UTF-8"?>
<svg xmlns="http://www.w3.org/2000/svg" xmlns:xlink="http://www.w3.org/1999/xlink" width="48px" height="48px" viewBox="0 0 48 48" version="1.1">
<g id="surface1">
<path style=" stroke:none;fill-rule:nonzero;fill:rgb(93.725491%,32.549021%,31.37255%);fill-opacity:1;" d="M 31.75 2.359375 L 7.9375 2.359375 C 6.839844 2.359375 5.953125 3.246094 5.953125 4.34375 L 5.953125 44.03125 C 5.953125 45.128906 6.839844 46.015625 7.9375 46.015625 L 39.6875 46.015625 C 40.785156 46.015625 41.671875 45.128906 41.671875 44.03125 L 41.671875 12.28125 Z M 31.75 2.359375 "/>
<path style=" stroke:none;fill-rule:nonzero;fill:rgb(89.803922%,22.352941%,20.784314%);fill-opacity:1;" d="M 41.671875 12.28125 L 31.75 2.359375 L 31.75 10.296875 C 31.75 11.394531 32.636719 12.28125 33.734375 12.28125 Z M 41.671875 12.28125 "/>
<path style=" stroke:none;fill-rule:nonzero;fill:rgb(96.078432%,96.078432%,96.078432%);fill-opacity:1;" d="M 23.8125 17.242188 C 19.414062 17.242188 15.875 18.128906 15.875 19.226562 C 15.875 20.324219 19.414062 21.210938 23.8125 21.210938 C 28.210938 21.210938 31.75 20.324219 31.75 19.226562 C 31.75 18.128906 28.210938 17.242188 23.8125 17.242188 Z M 15.875 20.59375 L 15.875 23.195312 C 15.875 24.292969 19.414062 25.179688 23.8125 25.179688 C 28.210938 25.179688 31.75 24.292969 31.75 23.195312 L 31.75 20.59375 C 30.269531 21.550781 27.277344 22.203125 23.8125 22.203125 C 20.347656 22.203125 17.355469 21.550781 15.875 20.59375 Z M 15.875 24.5625 L 15.875 27.164062 C 15.875 28.261719 19.414062 29.148438 23.8125 29.148438 C 28.210938 29.148438 31.75 28.261719 31.75 27.164062 L 31.75 24.5625 C 30.269531 25.519531 27.277344 26.171875 23.8125 26.171875 C 20.347656 26.171875 17.355469 25.519531 15.875 24.5625 Z M 15.875 28.53125 L 15.875 31.132812 C 15.875 32.230469 19.414062 33.117188 23.8125 33.117188 C 28.210938 33.117188 31.75 32.230469 31.75 31.132812 L 31.75 28.53125 C 30.269531 29.488281 27.277344 30.140625 23.8125 30.140625 C 20.347656 30.140625 17.355469 29.488281 15.875 28.53125 Z M 15.875 28.53125 "/>
</g>
</svg>
