<?xml version="1.0" encoding="UTF-8"?>
<svg xmlns="http://www.w3.org/2000/svg" xmlns:xlink="http://www.w3.org/1999/xlink" width="48px" height="48px" viewBox="0 0 48 48" version="1.1">
<g id="surface1">
<path style=" stroke:none;fill-rule:nonzero;fill:rgb(100%,43.921569%,26.274511%);fill-opacity:1;" d="M 31.75 2.359375 L 7.9375 2.359375 C 6.839844 2.359375 5.953125 3.246094 5.953125 4.34375 L 5.953125 44.03125 C 5.953125 45.128906 6.839844 46.015625 7.9375 46.015625 L 39.6875 46.015625 C 40.785156 46.015625 41.671875 45.128906 41.671875 44.03125 L 41.671875 12.28125 Z M 31.75 2.359375 "/>
<path style=" stroke:none;fill-rule:nonzero;fill:rgb(95.686275%,31.764707%,11.764706%);fill-opacity:1;" d="M 41.671875 12.28125 L 31.75 2.359375 L 31.75 10.296875 C 31.75 11.394531 32.636719 12.28125 33.734375 12.28125 Z M 41.671875 12.28125 "/>
<path style=" stroke:none;fill-rule:nonzero;fill:rgb(98.039216%,98.039216%,98.039216%);fill-opacity:1;" d="M 22.785156 16.84375 C 22.53125 16.84375 22.277344 16.941406 22.082031 17.136719 C 21.695312 17.523438 21.695312 18.152344 22.082031 18.539062 L 25.746094 22.203125 L 16.867188 22.203125 C 16.316406 22.203125 15.875 22.644531 15.875 23.195312 C 15.875 23.746094 16.316406 24.1875 16.867188 24.1875 L 22.046875 24.1875 L 15.769531 30.464844 C 15.378906 30.855469 15.378906 31.480469 15.769531 31.871094 C 16.15625 32.257812 16.785156 32.257812 17.171875 31.871094 L 20.859375 28.179688 C 21.121094 30.957031 23.445312 33.117188 26.292969 33.117188 C 29.316406 33.117188 31.75 30.683594 31.75 27.660156 C 31.75 26.015625 31.027344 24.542969 29.882812 23.542969 C 29.859375 23.511719 29.832031 23.480469 29.800781 23.449219 L 23.488281 17.136719 C 23.292969 16.941406 23.039062 16.84375 22.785156 16.84375 Z M 26.292969 24.1875 C 28.21875 24.1875 29.765625 25.734375 29.765625 27.660156 C 29.765625 29.582031 28.21875 31.132812 26.292969 31.132812 C 24.367188 31.132812 22.820312 29.582031 22.820312 27.660156 C 22.820312 25.734375 24.367188 24.1875 26.292969 24.1875 Z M 26.292969 25.921875 C 25.332031 25.921875 24.554688 26.699219 24.554688 27.660156 C 24.554688 28.621094 25.332031 29.394531 26.292969 29.394531 C 27.253906 29.394531 28.027344 28.621094 28.027344 27.660156 C 28.027344 26.699219 27.253906 25.921875 26.292969 25.921875 Z M 26.292969 25.921875 "/>
</g>
</svg>
