<?xml version="1.0" encoding="UTF-8"?>
<svg xmlns="http://www.w3.org/2000/svg" xmlns:xlink="http://www.w3.org/1999/xlink" width="48px" height="48px" viewBox="0 0 48 48" version="1.1">
<g id="surface1">
<path style=" stroke:none;fill-rule:nonzero;fill:rgb(49.411765%,34.117648%,76.078433%);fill-opacity:1;" d="M 31.75 2.359375 L 7.9375 2.359375 C 6.839844 2.359375 5.953125 3.246094 5.953125 4.34375 L 5.953125 44.03125 C 5.953125 45.128906 6.839844 46.015625 7.9375 46.015625 L 39.6875 46.015625 C 40.785156 46.015625 41.671875 45.128906 41.671875 44.03125 L 41.671875 12.28125 Z M 31.75 2.359375 "/>
<path style=" stroke:none;fill-rule:nonzero;fill:rgb(36.862746%,20.784314%,69.411767%);fill-opacity:1;" d="M 41.671875 12.28125 L 31.75 2.359375 L 31.75 10.296875 C 31.75 11.394531 32.636719 12.28125 33.734375 12.28125 Z M 41.671875 12.28125 "/>
<path style=" stroke:none;fill-rule:nonzero;fill:rgb(96.078432%,96.078432%,96.078432%);fill-opacity:1;" d="M 17.363281 20.621094 C 17.167969 20.425781 16.855469 20.425781 16.660156 20.621094 L 12.453125 24.828125 C 12.277344 25.003906 12.257812 25.277344 12.402344 25.472656 C 12.417969 25.492188 12.433594 25.511719 12.453125 25.53125 L 16.660156 29.738281 C 16.855469 29.933594 17.167969 29.933594 17.363281 29.738281 L 18.066406 29.039062 C 18.257812 28.84375 18.257812 28.53125 18.066406 28.335938 L 14.90625 25.179688 L 18.066406 22.023438 C 18.257812 21.828125 18.257812 21.515625 18.066406 21.320312 Z M 17.363281 20.621094 "/>
<path style=" stroke:none;fill-rule:nonzero;fill:rgb(96.078432%,96.078432%,96.078432%);fill-opacity:1;" d="M 22.933594 17.382812 L 23.890625 17.640625 C 24.15625 17.710938 24.3125 17.984375 24.242188 18.25 L 20.390625 32.625 C 20.320312 32.890625 20.046875 33.046875 19.78125 32.976562 L 18.824219 32.71875 C 18.558594 32.648438 18.402344 32.375 18.472656 32.109375 L 22.324219 17.734375 C 22.394531 17.46875 22.667969 17.3125 22.933594 17.382812 Z M 22.933594 17.382812 "/>
<path style=" stroke:none;fill-rule:nonzero;fill:rgb(96.078432%,96.078432%,96.078432%);fill-opacity:1;" d="M 29.789062 17.242188 C 26.765625 17.242188 24.332031 19.675781 24.332031 22.699219 L 24.332031 23.691406 C 24.332031 23.964844 24.554688 24.1875 24.828125 24.1875 L 25.820312 24.1875 C 26.097656 24.1875 26.316406 23.964844 26.316406 23.691406 L 26.316406 22.699219 C 26.316406 20.773438 27.867188 19.226562 29.789062 19.226562 C 31.714844 19.226562 33.261719 20.773438 33.261719 22.699219 L 33.261719 23.195312 C 33.261719 24.074219 33.066406 24.464844 32.8125 24.75 C 32.558594 25.039062 32.164062 25.253906 31.640625 25.472656 C 31.117188 25.6875 30.488281 25.886719 29.882812 26.347656 C 29.277344 26.8125 28.796875 27.660156 28.796875 28.652344 L 28.796875 29.148438 C 28.796875 29.421875 29.019531 29.644531 29.292969 29.644531 L 30.285156 29.644531 C 30.5625 29.644531 30.78125 29.421875 30.78125 29.148438 L 30.78125 28.652344 L 30.785156 28.652344 C 30.785156 28.15625 30.859375 28.101562 31.09375 27.921875 C 31.328125 27.742188 31.8125 27.550781 32.40625 27.304688 C 33 27.054688 33.71875 26.726562 34.304688 26.0625 C 34.886719 25.398438 35.25 24.425781 35.25 23.195312 L 35.246094 23.195312 L 35.246094 22.699219 C 35.246094 19.675781 32.8125 17.242188 29.789062 17.242188 Z M 29.292969 31.132812 C 29.019531 31.132812 28.796875 31.355469 28.796875 31.628906 L 28.796875 32.621094 C 28.796875 32.894531 29.019531 33.117188 29.292969 33.117188 L 30.285156 33.117188 C 30.5625 33.117188 30.78125 32.894531 30.78125 32.621094 L 30.78125 31.628906 C 30.78125 31.355469 30.5625 31.132812 30.285156 31.132812 Z M 29.292969 31.132812 "/>
</g>
</svg>
