<?xml version="1.0" encoding="UTF-8"?>
<svg xmlns="http://www.w3.org/2000/svg" xmlns:xlink="http://www.w3.org/1999/xlink" width="48px" height="48px" viewBox="0 0 48 48" version="1.1">
<g id="surface1">
<path style=" stroke:none;fill-rule:nonzero;fill:rgb(38.039216%,38.039216%,38.039216%);fill-opacity:1;" d="M 31.75 2.359375 L 7.9375 2.359375 C 6.839844 2.359375 5.953125 3.246094 5.953125 4.34375 L 5.953125 44.03125 C 5.953125 45.128906 6.839844 46.015625 7.9375 46.015625 L 39.6875 46.015625 C 40.785156 46.015625 41.671875 45.128906 41.671875 44.03125 L 41.671875 12.28125 Z M 31.75 2.359375 "/>
<path style=" stroke:none;fill-rule:nonzero;fill:rgb(25.882354%,25.882354%,25.882354%);fill-opacity:1;" d="M 41.671875 12.28125 L 31.75 2.359375 L 31.75 10.296875 C 31.75 11.394531 32.636719 12.28125 33.734375 12.28125 Z M 41.671875 12.28125 "/>
<path style=" stroke:none;fill-rule:nonzero;fill:rgb(96.078432%,96.078432%,96.078432%);fill-opacity:1;" d="M 21.617188 17.242188 C 20.675781 17.242188 19.414062 18.003906 19.414062 18.941406 C 19.414062 18.976562 19.414062 19.011719 19.417969 19.042969 C 19.238281 18.980469 19.046875 18.941406 18.847656 18.941406 C 17.902344 18.941406 17.144531 19.703125 17.144531 20.648438 C 17.144531 20.867188 17.1875 21.078125 17.261719 21.273438 C 16.539062 21.46875 16.011719 22.125 16.011719 22.914062 C 16.011719 23.347656 16.175781 23.746094 16.445312 24.046875 C 16.175781 24.347656 16.011719 24.746094 16.011719 25.179688 C 16.011719 25.617188 16.175781 26.011719 16.445312 26.316406 C 16.175781 26.617188 16.011719 27.011719 16.011719 27.449219 C 16.011719 28.238281 16.539062 28.894531 17.261719 29.089844 C 17.1875 29.285156 17.144531 29.496094 17.144531 29.714844 C 17.144531 30.480469 17.640625 31.121094 18.332031 31.339844 C 18.554688 32.359375 19.960938 33.117188 21.050781 33.117188 C 22.109375 33.117188 22.996094 32.398438 23.246094 31.417969 C 23.316406 30.851562 23.292969 30.09375 23.316406 29.429688 L 23.316406 18.941406 C 23.316406 18.003906 22.558594 17.242188 21.617188 17.242188 Z M 26.007812 17.242188 C 25.066406 17.242188 24.308594 18.003906 24.308594 18.941406 L 24.308594 29.429688 C 24.332031 30.09375 24.308594 30.851562 24.378906 31.417969 C 24.628906 32.398438 25.515625 33.117188 26.574219 33.117188 C 27.664062 33.117188 29.070312 32.359375 29.296875 31.339844 C 29.984375 31.121094 30.480469 30.480469 30.480469 29.714844 C 30.480469 29.496094 30.4375 29.285156 30.363281 29.089844 C 31.085938 28.894531 31.617188 28.238281 31.617188 27.449219 C 31.617188 27.011719 31.453125 26.617188 31.183594 26.316406 C 31.453125 26.011719 31.617188 25.617188 31.617188 25.179688 C 31.617188 24.746094 31.453125 24.347656 31.183594 24.046875 C 31.453125 23.746094 31.617188 23.347656 31.617188 22.914062 C 31.617188 22.125 31.085938 21.46875 30.363281 21.273438 C 30.4375 21.078125 30.480469 20.867188 30.480469 20.648438 C 30.480469 19.703125 29.722656 18.941406 28.78125 18.941406 C 28.578125 18.941406 28.386719 18.980469 28.210938 19.042969 C 28.210938 19.011719 28.214844 18.976562 28.214844 18.941406 C 28.214844 18.003906 26.949219 17.242188 26.007812 17.242188 Z M 26.007812 17.242188 "/>
</g>
</svg>
