<?xml version="1.0" encoding="UTF-8"?>
<svg xmlns="http://www.w3.org/2000/svg" xmlns:xlink="http://www.w3.org/1999/xlink" width="48px" height="48px" viewBox="0 0 48 48" version="1.1">
<g id="surface1">
<path style=" stroke:none;fill-rule:nonzero;fill:rgb(47.058824%,56.470591%,61.176473%);fill-opacity:1;" d="M 31.75 2.359375 L 7.9375 2.359375 C 6.839844 2.359375 5.953125 3.246094 5.953125 4.34375 L 5.953125 44.03125 C 5.953125 45.128906 6.839844 46.015625 7.9375 46.015625 L 39.6875 46.015625 C 40.785156 46.015625 41.671875 45.128906 41.671875 44.03125 L 41.671875 12.28125 Z M 31.75 2.359375 "/>
<path style=" stroke:none;fill-rule:nonzero;fill:rgb(32.941177%,43.137255%,47.843137%);fill-opacity:1;" d="M 41.671875 12.28125 L 31.75 2.359375 L 31.75 10.296875 C 31.75 11.394531 32.636719 12.28125 33.734375 12.28125 Z M 41.671875 12.28125 "/>
<path style=" stroke:none;fill-rule:nonzero;fill:rgb(96.078432%,96.078432%,96.078432%);fill-opacity:1;" d="M 21.828125 17.242188 C 21.277344 17.242188 20.835938 17.683594 20.835938 18.234375 C 20.835938 18.289062 20.839844 18.339844 20.847656 18.394531 C 20.847656 18.417969 20.84375 18.445312 20.84375 18.472656 L 20.84375 21.570312 C 20.839844 21.617188 20.835938 21.660156 20.835938 21.707031 C 20.835938 21.753906 20.839844 21.796875 20.84375 21.84375 L 20.84375 24.929688 C 20.839844 24.96875 20.835938 25.007812 20.835938 25.046875 L 20.835938 25.3125 C 20.835938 25.351562 20.839844 25.390625 20.84375 25.429688 L 20.84375 28.402344 C 20.394531 28.25 19.886719 28.164062 19.351562 28.164062 C 17.429688 28.164062 15.878906 29.269531 15.878906 30.644531 C 15.878906 32.019531 17.429688 33.125 19.351562 33.125 C 21.214844 33.125 22.726562 32.085938 22.820312 30.773438 L 22.820312 29.644531 L 30.757812 29.644531 C 31.308594 29.644531 31.75 29.203125 31.75 28.652344 C 31.75 28.101562 31.308594 27.660156 30.757812 27.660156 L 22.820312 27.660156 L 22.820312 26.171875 L 30.757812 26.171875 C 31.308594 26.171875 31.75 25.789062 31.75 25.3125 L 31.75 25.046875 C 31.75 24.570312 31.308594 24.1875 30.757812 24.1875 L 22.820312 24.1875 L 22.820312 22.699219 L 30.757812 22.699219 C 31.308594 22.699219 31.75 22.257812 31.75 21.707031 C 31.75 21.15625 31.308594 20.714844 30.757812 20.714844 L 22.820312 20.714844 L 22.820312 19.226562 L 30.757812 19.226562 C 31.308594 19.226562 31.75 18.785156 31.75 18.234375 C 31.75 17.683594 31.308594 17.242188 30.757812 17.242188 Z M 21.828125 17.242188 "/>
</g>
</svg>
