<?xml version="1.0" encoding="UTF-8"?>
<svg xmlns="http://www.w3.org/2000/svg" xmlns:xlink="http://www.w3.org/1999/xlink" width="48px" height="48px" viewBox="0 0 48 48" version="1.1">
<g id="surface1">
<path style=" stroke:none;fill-rule:nonzero;fill:rgb(38.039216%,38.039216%,38.039216%);fill-opacity:1;" d="M 31.75 2.359375 L 7.9375 2.359375 C 6.839844 2.359375 5.953125 3.246094 5.953125 4.34375 L 5.953125 44.03125 C 5.953125 45.128906 6.839844 46.015625 7.9375 46.015625 L 39.6875 46.015625 C 40.785156 46.015625 41.671875 45.128906 41.671875 44.03125 L 41.671875 12.28125 Z M 31.75 2.359375 "/>
<path style=" stroke:none;fill-rule:nonzero;fill:rgb(25.882354%,25.882354%,25.882354%);fill-opacity:1;" d="M 41.671875 12.28125 L 31.75 2.359375 L 31.75 10.296875 C 31.75 11.394531 32.636719 12.28125 33.734375 12.28125 Z M 41.671875 12.28125 "/>
<path style=" stroke:none;fill-rule:nonzero;fill:rgb(96.078432%,96.078432%,96.078432%);fill-opacity:1;" d="M 16.867188 17.242188 C 16.316406 17.242188 15.875 17.683594 15.875 18.234375 L 15.875 21.707031 C 15.875 21.980469 16.097656 22.203125 16.371094 22.203125 L 17.363281 22.203125 C 17.636719 22.203125 17.859375 21.980469 17.859375 21.707031 L 17.859375 19.722656 C 17.859375 19.449219 18.082031 19.226562 18.355469 19.226562 L 20.339844 19.226562 C 20.613281 19.226562 20.835938 19.003906 20.835938 18.730469 L 20.835938 17.738281 C 20.835938 17.464844 20.613281 17.242188 20.339844 17.242188 Z M 27.285156 17.242188 C 27.011719 17.242188 26.789062 17.464844 26.789062 17.738281 L 26.789062 18.730469 C 26.789062 19.003906 27.011719 19.226562 27.285156 19.226562 L 29.269531 19.226562 C 29.542969 19.226562 29.765625 19.449219 29.765625 19.722656 L 29.765625 21.707031 C 29.765625 21.980469 29.988281 22.203125 30.261719 22.203125 L 31.253906 22.203125 C 31.527344 22.203125 31.75 21.980469 31.75 21.707031 L 31.75 18.234375 C 31.75 17.683594 31.308594 17.242188 30.757812 17.242188 Z M 16.371094 28.15625 C 16.097656 28.15625 15.875 28.378906 15.875 28.652344 L 15.875 32.125 C 15.875 32.675781 16.316406 33.117188 16.867188 33.117188 L 20.339844 33.117188 C 20.613281 33.117188 20.835938 32.894531 20.835938 32.621094 L 20.835938 31.628906 C 20.835938 31.355469 20.613281 31.132812 20.339844 31.132812 L 18.355469 31.132812 C 18.082031 31.132812 17.859375 30.910156 17.859375 30.636719 L 17.859375 28.652344 C 17.859375 28.378906 17.636719 28.15625 17.363281 28.15625 Z M 30.261719 28.15625 C 29.988281 28.15625 29.765625 28.378906 29.765625 28.652344 L 29.765625 30.636719 C 29.765625 30.910156 29.542969 31.132812 29.269531 31.132812 L 27.285156 31.132812 C 27.011719 31.132812 26.789062 31.355469 26.789062 31.628906 L 26.789062 32.621094 C 26.789062 32.894531 27.011719 33.117188 27.285156 33.117188 L 30.757812 33.117188 C 31.308594 33.117188 31.75 32.675781 31.75 32.125 L 31.75 28.652344 C 31.75 28.378906 31.527344 28.15625 31.253906 28.15625 Z M 30.261719 28.15625 "/>
</g>
</svg>
