<?xml version="1.0" encoding="UTF-8"?>
<svg xmlns="http://www.w3.org/2000/svg" xmlns:xlink="http://www.w3.org/1999/xlink" width="48px" height="48px" viewBox="0 0 48 48" version="1.1">
<g id="surface1">
<path style=" stroke:none;fill-rule:nonzero;fill:rgb(92.54902%,25.098041%,47.843137%);fill-opacity:1;" d="M 31.75 2.359375 L 7.9375 2.359375 C 6.839844 2.359375 5.953125 3.246094 5.953125 4.34375 L 5.953125 44.03125 C 5.953125 45.128906 6.839844 46.015625 7.9375 46.015625 L 39.6875 46.015625 C 40.785156 46.015625 41.671875 45.128906 41.671875 44.03125 L 41.671875 12.28125 Z M 31.75 2.359375 "/>
<path style=" stroke:none;fill-rule:nonzero;fill:rgb(84.705883%,10.588235%,37.64706%);fill-opacity:1;" d="M 41.671875 12.28125 L 31.75 2.359375 L 31.75 10.296875 C 31.75 11.394531 32.636719 12.28125 33.734375 12.28125 Z M 41.671875 12.28125 "/>
<path style=" stroke:none;fill-rule:nonzero;fill:rgb(96.078432%,96.078432%,96.078432%);fill-opacity:1;" d="M 18.539062 17.246094 C 18.476562 17.242188 18.410156 17.253906 18.34375 17.277344 L 17.414062 17.621094 C 17.15625 17.714844 17.027344 18 17.121094 18.257812 L 17.464844 19.1875 C 17.476562 19.222656 17.492188 19.253906 17.511719 19.28125 L 22.394531 32.46875 C 22.535156 32.851562 22.90625 33.109375 23.316406 33.109375 L 24.308594 33.109375 C 24.71875 33.109375 25.089844 32.851562 25.230469 32.46875 L 30.109375 19.292969 C 30.132812 19.261719 30.152344 19.226562 30.164062 19.1875 L 30.507812 18.257812 C 30.601562 18 30.472656 17.714844 30.214844 17.621094 L 29.28125 17.277344 C 29.023438 17.183594 28.742188 17.3125 28.644531 17.570312 L 28.300781 18.503906 C 28.296875 18.515625 28.292969 18.527344 28.289062 18.539062 L 23.8125 30.628906 L 19.34375 18.566406 C 19.339844 18.546875 19.332031 18.523438 19.324219 18.503906 L 18.984375 17.570312 C 18.910156 17.378906 18.734375 17.253906 18.539062 17.246094 Z M 18.539062 17.246094 "/>
</g>
</svg>
