<?xml version="1.0" encoding="UTF-8"?>
<svg xmlns="http://www.w3.org/2000/svg" xmlns:xlink="http://www.w3.org/1999/xlink" width="48px" height="48px" viewBox="0 0 48 48" version="1.1">
<g id="surface1">
<path style=" stroke:none;fill-rule:nonzero;fill:rgb(93.725491%,32.549021%,31.37255%);fill-opacity:1;" d="M 31.75 2.359375 L 7.9375 2.359375 C 6.839844 2.359375 5.953125 3.246094 5.953125 4.34375 L 5.953125 44.03125 C 5.953125 45.128906 6.839844 46.015625 7.9375 46.015625 L 39.6875 46.015625 C 40.785156 46.015625 41.671875 45.128906 41.671875 44.03125 L 41.671875 12.28125 Z M 31.75 2.359375 "/>
<path style=" stroke:none;fill-rule:nonzero;fill:rgb(89.803922%,22.352941%,20.784314%);fill-opacity:1;" d="M 41.671875 12.28125 L 31.75 2.359375 L 31.75 10.296875 C 31.75 11.394531 32.636719 12.28125 33.734375 12.28125 Z M 41.671875 12.28125 "/>
<path style=" stroke:none;fill-rule:nonzero;fill:rgb(96.078432%,96.078432%,96.078432%);fill-opacity:1;" d="M 16.371094 17.242188 L 17.363281 17.242188 C 17.636719 17.242188 17.859375 17.464844 17.859375 17.738281 L 17.859375 18.730469 C 17.859375 19.003906 17.636719 19.226562 17.363281 19.226562 L 16.371094 19.226562 C 16.097656 19.226562 15.875 19.003906 15.875 18.730469 L 15.875 17.738281 C 15.875 17.464844 16.097656 17.242188 16.371094 17.242188 Z M 16.371094 17.242188 "/>
<path style=" stroke:none;fill-rule:nonzero;fill:rgb(96.078432%,96.078432%,96.078432%);fill-opacity:1;" d="M 18.355469 19.226562 L 19.347656 19.226562 C 19.621094 19.226562 19.84375 19.449219 19.84375 19.722656 L 19.84375 20.714844 C 19.84375 20.988281 19.621094 21.210938 19.347656 21.210938 L 18.355469 21.210938 C 18.082031 21.210938 17.859375 20.988281 17.859375 20.714844 L 17.859375 19.722656 C 17.859375 19.449219 18.082031 19.226562 18.355469 19.226562 Z M 18.355469 19.226562 "/>
<path style=" stroke:none;fill-rule:nonzero;fill:rgb(96.078432%,96.078432%,96.078432%);fill-opacity:1;" d="M 16.371094 21.210938 L 17.363281 21.210938 C 17.636719 21.210938 17.859375 21.433594 17.859375 21.707031 L 17.859375 22.699219 C 17.859375 22.972656 17.636719 23.195312 17.363281 23.195312 L 16.371094 23.195312 C 16.097656 23.195312 15.875 22.972656 15.875 22.699219 L 15.875 21.707031 C 15.875 21.433594 16.097656 21.210938 16.371094 21.210938 Z M 16.371094 21.210938 "/>
<path style=" stroke:none;fill-rule:nonzero;fill:rgb(96.078432%,96.078432%,96.078432%);fill-opacity:1;" d="M 20.339844 17.242188 L 21.332031 17.242188 C 21.605469 17.242188 21.828125 17.464844 21.828125 17.738281 L 21.828125 18.730469 C 21.828125 19.003906 21.605469 19.226562 21.332031 19.226562 L 20.339844 19.226562 C 20.066406 19.226562 19.84375 19.003906 19.84375 18.730469 L 19.84375 17.738281 C 19.84375 17.464844 20.066406 17.242188 20.339844 17.242188 Z M 20.339844 17.242188 "/>
<path style=" stroke:none;fill-rule:nonzero;fill:rgb(96.078432%,96.078432%,96.078432%);fill-opacity:1;" d="M 20.339844 21.210938 L 21.332031 21.210938 C 21.605469 21.210938 21.828125 21.433594 21.828125 21.707031 L 21.828125 22.699219 C 21.828125 22.972656 21.605469 23.195312 21.332031 23.195312 L 20.339844 23.195312 C 20.066406 23.195312 19.84375 22.972656 19.84375 22.699219 L 19.84375 21.707031 C 19.84375 21.433594 20.066406 21.210938 20.339844 21.210938 Z M 20.339844 21.210938 "/>
<path style=" stroke:none;fill-rule:nonzero;fill:rgb(96.078432%,96.078432%,96.078432%);fill-opacity:1;" d="M 26.292969 17.242188 L 27.285156 17.242188 C 27.558594 17.242188 27.78125 17.464844 27.78125 17.738281 L 27.78125 18.730469 C 27.78125 19.003906 27.558594 19.226562 27.285156 19.226562 L 26.292969 19.226562 C 26.019531 19.226562 25.796875 19.003906 25.796875 18.730469 L 25.796875 17.738281 C 25.796875 17.464844 26.019531 17.242188 26.292969 17.242188 Z M 26.292969 17.242188 "/>
<path style=" stroke:none;fill-rule:nonzero;fill:rgb(96.078432%,96.078432%,96.078432%);fill-opacity:1;" d="M 28.277344 19.226562 L 29.269531 19.226562 C 29.542969 19.226562 29.765625 19.449219 29.765625 19.722656 L 29.765625 20.714844 C 29.765625 20.988281 29.542969 21.210938 29.269531 21.210938 L 28.277344 21.210938 C 28.003906 21.210938 27.78125 20.988281 27.78125 20.714844 L 27.78125 19.722656 C 27.78125 19.449219 28.003906 19.226562 28.277344 19.226562 Z M 28.277344 19.226562 "/>
<path style=" stroke:none;fill-rule:nonzero;fill:rgb(96.078432%,96.078432%,96.078432%);fill-opacity:1;" d="M 26.292969 21.210938 L 27.285156 21.210938 C 27.558594 21.210938 27.78125 21.433594 27.78125 21.707031 L 27.78125 22.699219 C 27.78125 22.972656 27.558594 23.195312 27.285156 23.195312 L 26.292969 23.195312 C 26.019531 23.195312 25.796875 22.972656 25.796875 22.699219 L 25.796875 21.707031 C 25.796875 21.433594 26.019531 21.210938 26.292969 21.210938 Z M 26.292969 21.210938 "/>
<path style=" stroke:none;fill-rule:nonzero;fill:rgb(96.078432%,96.078432%,96.078432%);fill-opacity:1;" d="M 30.261719 17.242188 L 31.253906 17.242188 C 31.527344 17.242188 31.75 17.464844 31.75 17.738281 L 31.75 18.730469 C 31.75 19.003906 31.527344 19.226562 31.253906 19.226562 L 30.261719 19.226562 C 29.988281 19.226562 29.765625 19.003906 29.765625 18.730469 L 29.765625 17.738281 C 29.765625 17.464844 29.988281 17.242188 30.261719 17.242188 Z M 30.261719 17.242188 "/>
<path style=" stroke:none;fill-rule:nonzero;fill:rgb(96.078432%,96.078432%,96.078432%);fill-opacity:1;" d="M 30.261719 21.210938 L 31.253906 21.210938 C 31.527344 21.210938 31.75 21.433594 31.75 21.707031 L 31.75 22.699219 C 31.75 22.972656 31.527344 23.195312 31.253906 23.195312 L 30.261719 23.195312 C 29.988281 23.195312 29.765625 22.972656 29.765625 22.699219 L 29.765625 21.707031 C 29.765625 21.433594 29.988281 21.210938 30.261719 21.210938 Z M 30.261719 21.210938 "/>
<path style=" stroke:none;fill-rule:nonzero;fill:rgb(96.078432%,96.078432%,96.078432%);fill-opacity:1;" d="M 23.316406 29.148438 L 24.308594 29.148438 C 24.582031 29.148438 24.804688 29.371094 24.804688 29.644531 L 24.804688 30.636719 C 24.804688 30.910156 24.582031 31.132812 24.308594 31.132812 L 23.316406 31.132812 C 23.042969 31.132812 22.820312 30.910156 22.820312 30.636719 L 22.820312 29.644531 C 22.820312 29.371094 23.042969 29.148438 23.316406 29.148438 Z M 23.316406 29.148438 "/>
<path style=" stroke:none;fill-rule:nonzero;fill:rgb(96.078432%,96.078432%,96.078432%);fill-opacity:1;" d="M 19.347656 29.148438 L 20.339844 29.148438 C 20.613281 29.148438 20.835938 29.371094 20.835938 29.644531 L 20.835938 30.636719 C 20.835938 30.910156 20.613281 31.132812 20.339844 31.132812 L 19.347656 31.132812 C 19.074219 31.132812 18.851562 30.910156 18.851562 30.636719 L 18.851562 29.644531 C 18.851562 29.371094 19.074219 29.148438 19.347656 29.148438 Z M 19.347656 29.148438 "/>
<path style=" stroke:none;fill-rule:nonzero;fill:rgb(96.078432%,96.078432%,96.078432%);fill-opacity:1;" d="M 27.285156 29.148438 L 28.277344 29.148438 C 28.550781 29.148438 28.773438 29.371094 28.773438 29.644531 L 28.773438 30.636719 C 28.773438 30.910156 28.550781 31.132812 28.277344 31.132812 L 27.285156 31.132812 C 27.011719 31.132812 26.789062 30.910156 26.789062 30.636719 L 26.789062 29.644531 C 26.789062 29.371094 27.011719 29.148438 27.285156 29.148438 Z M 27.285156 29.148438 "/>
<path style=" stroke:none;fill-rule:nonzero;fill:rgb(96.078432%,96.078432%,96.078432%);fill-opacity:1;" d="M 25.300781 27.164062 L 26.292969 27.164062 C 26.566406 27.164062 26.789062 27.386719 26.789062 27.660156 L 26.789062 28.652344 C 26.789062 28.925781 26.566406 29.148438 26.292969 29.148438 L 25.300781 29.148438 C 25.027344 29.148438 24.804688 28.925781 24.804688 28.652344 L 24.804688 27.660156 C 24.804688 27.386719 25.027344 27.164062 25.300781 27.164062 Z M 25.300781 27.164062 "/>
<path style=" stroke:none;fill-rule:nonzero;fill:rgb(96.078432%,96.078432%,96.078432%);fill-opacity:1;" d="M 21.332031 27.164062 L 22.324219 27.164062 C 22.597656 27.164062 22.820312 27.386719 22.820312 27.660156 L 22.820312 28.652344 C 22.820312 28.925781 22.597656 29.148438 22.324219 29.148438 L 21.332031 29.148438 C 21.058594 29.148438 20.835938 28.925781 20.835938 28.652344 L 20.835938 27.660156 C 20.835938 27.386719 21.058594 27.164062 21.332031 27.164062 Z M 21.332031 27.164062 "/>
<path style=" stroke:none;fill-rule:nonzero;fill:rgb(96.078432%,96.078432%,96.078432%);fill-opacity:1;" d="M 17.363281 31.132812 L 18.355469 31.132812 C 18.628906 31.132812 18.851562 31.355469 18.851562 31.628906 L 18.851562 32.621094 C 18.851562 32.894531 18.628906 33.117188 18.355469 33.117188 L 17.363281 33.117188 C 17.089844 33.117188 16.867188 32.894531 16.867188 32.621094 L 16.867188 31.628906 C 16.867188 31.355469 17.089844 31.132812 17.363281 31.132812 Z M 17.363281 31.132812 "/>
<path style=" stroke:none;fill-rule:nonzero;fill:rgb(96.078432%,96.078432%,96.078432%);fill-opacity:1;" d="M 29.269531 31.132812 L 30.261719 31.132812 C 30.535156 31.132812 30.757812 31.355469 30.757812 31.628906 L 30.757812 32.621094 C 30.757812 32.894531 30.535156 33.117188 30.261719 33.117188 L 29.269531 33.117188 C 28.996094 33.117188 28.773438 32.894531 28.773438 32.621094 L 28.773438 31.628906 C 28.773438 31.355469 28.996094 31.132812 29.269531 31.132812 Z M 29.269531 31.132812 "/>
</g>
</svg>
