<?xml version="1.0" encoding="UTF-8"?>
<svg xmlns="http://www.w3.org/2000/svg" xmlns:xlink="http://www.w3.org/1999/xlink" width="48px" height="48px" viewBox="0 0 48 48" version="1.1">
<g id="surface1">
<path style=" stroke:none;fill-rule:nonzero;fill:rgb(92.54902%,25.098041%,47.843137%);fill-opacity:1;" d="M 3.96875 2.359375 L 43.65625 2.359375 C 44.753906 2.359375 45.640625 3.246094 45.640625 4.34375 L 45.640625 44.03125 C 45.640625 45.128906 44.753906 46.015625 43.65625 46.015625 L 3.96875 46.015625 C 2.871094 46.015625 1.984375 45.128906 1.984375 44.03125 L 1.984375 4.34375 C 1.984375 3.246094 2.871094 2.359375 3.96875 2.359375 Z M 3.96875 2.359375 "/>
<path style=" stroke:none;fill-rule:nonzero;fill:rgb(96.078432%,96.078432%,96.078432%);fill-opacity:1;" d="M 32.085938 27.066406 L 28.613281 37.238281 L 26.871094 32.886719 L 24.804688 32.886719 C 24.777344 32.878906 24.746094 32.875 24.71875 32.875 L 24.46875 32.875 C 24.195312 32.875 23.972656 33.097656 23.972656 33.371094 L 23.972656 34.363281 C 23.972656 34.640625 24.195312 34.859375 24.46875 34.859375 L 24.71875 34.859375 C 24.746094 34.859375 24.777344 34.859375 24.804688 34.851562 L 25.539062 34.851562 L 28.757812 42.902344 L 32.230469 32.734375 L 35.117188 39.945312 L 37.65625 33.855469 L 39.460938 37.828125 L 41.496094 37.828125 C 41.523438 37.835938 41.554688 37.835938 41.585938 37.835938 L 41.832031 37.835938 C 42.105469 37.835938 42.328125 37.617188 42.328125 37.339844 L 42.328125 36.347656 C 42.328125 36.074219 42.105469 35.851562 41.832031 35.851562 L 41.585938 35.851562 C 41.554688 35.851562 41.523438 35.855469 41.496094 35.863281 L 40.730469 35.863281 L 37.578125 28.921875 L 35.152344 34.738281 Z M 32.085938 27.066406 "/>
<path style=" stroke:none;fill-rule:nonzero;fill:rgb(94.117647%,38.431373%,57.254905%);fill-opacity:1;" d="M 3.96875 2.359375 C 2.871094 2.359375 1.984375 3.246094 1.984375 4.34375 L 1.984375 4.589844 L 45.640625 4.589844 L 45.640625 4.34375 C 45.640625 3.246094 44.753906 2.359375 43.65625 2.359375 Z M 3.96875 2.359375 "/>
<path style=" stroke:none;fill-rule:nonzero;fill:rgb(73.725492%,66.666669%,64.313728%);fill-opacity:1;" d="M 19.84375 4.589844 L 27.78125 4.589844 L 27.78125 21.210938 L 27.285156 23.195312 L 25.796875 20.714844 L 24.804688 22.203125 L 23.8125 20.21875 L 22.820312 21.707031 L 21.828125 20.714844 L 20.835938 21.707031 L 19.84375 21.210938 Z M 19.84375 4.589844 "/>
<path style=" stroke:none;fill-rule:nonzero;fill:rgb(84.313726%,80.000001%,78.431374%);fill-opacity:1;" d="M 20.09375 2.359375 L 27.53125 2.359375 L 27.78125 4.59375 L 19.84375 4.59375 Z M 20.09375 2.359375 "/>
</g>
</svg>
