
<svg xmlns="http://www.w3.org/2000/svg" xmlns:xlink="http://www.w3.org/1999/xlink" width="24px" height="24px" viewBox="0 0 24 24" version="1.1">
<g id="surface1">
<path style=" stroke:none;fill-rule:nonzero;fill:rgb(100%,65.490198%,14.901961%);fill-opacity:1;" d="M 11.90625 1.675781 C 13.050781 1.675781 14.363281 7.863281 15.289062 8.535156 C 16.21875 9.207031 22.507812 8.542969 22.863281 9.636719 C 23.214844 10.726562 17.738281 13.882812 17.386719 14.972656 C 17.027344 16.066406 19.605469 21.839844 18.675781 22.515625 C 17.75 23.191406 13.050781 18.953125 11.90625 18.953125 C 10.761719 18.953125 6.0625 23.191406 5.136719 22.515625 C 4.207031 21.839844 6.785156 16.066406 6.425781 14.972656 C 6.074219 13.882812 0.597656 10.726562 0.949219 9.636719 C 1.304688 8.542969 7.59375 9.207031 8.523438 8.535156 C 9.449219 7.863281 10.761719 1.675781 11.90625 1.675781 Z M 11.90625 1.675781 "/>
</g>
</svg>
