<?xml version="1.0" encoding="UTF-8"?>
<svg xmlns="http://www.w3.org/2000/svg" xmlns:xlink="http://www.w3.org/1999/xlink" width="24px" height="24px" viewBox="0 0 24 24" version="1.1">
<g id="surface1">
<path style=" stroke:none;fill-rule:nonzero;fill:rgb(38.039216%,38.039216%,38.039216%);fill-opacity:1;" d="M 15.875 1.179688 L 3.96875 1.179688 C 3.417969 1.179688 2.976562 1.621094 2.976562 2.171875 L 2.976562 22.015625 C 2.976562 22.566406 3.417969 23.007812 3.96875 23.007812 L 19.84375 23.007812 C 20.394531 23.007812 20.835938 22.566406 20.835938 22.015625 L 20.835938 6.140625 Z M 15.875 1.179688 "/>
<path style=" stroke:none;fill-rule:nonzero;fill:rgb(25.882354%,25.882354%,25.882354%);fill-opacity:1;" d="M 20.835938 6.140625 L 15.875 1.179688 L 15.875 5.148438 C 15.875 5.699219 16.316406 6.140625 16.867188 6.140625 Z M 20.835938 6.140625 "/>
<path style=" stroke:none;fill-rule:nonzero;fill:rgb(96.078432%,96.078432%,96.078432%);fill-opacity:1;" d="M 15.394531 8.625 C 15.382812 8.625 15.375 8.625 15.367188 8.625 C 15.335938 8.625 15.304688 8.628906 15.273438 8.636719 L 10.808594 9.628906 C 10.582031 9.679688 10.421875 9.878906 10.421875 10.109375 L 10.421875 14.199219 C 10.195312 14.125 9.945312 14.082031 9.675781 14.082031 C 8.714844 14.082031 7.941406 14.632812 7.941406 15.320312 C 7.941406 16.007812 8.714844 16.5625 9.675781 16.5625 C 10.636719 16.5625 11.414062 16.007812 11.414062 15.320312 C 11.414062 15.300781 11.410156 15.277344 11.410156 15.257812 L 11.410156 10.507812 L 14.886719 9.734375 L 14.886719 12.710938 C 14.660156 12.636719 14.410156 12.59375 14.140625 12.59375 C 13.179688 12.59375 12.40625 13.144531 12.40625 13.832031 C 12.40625 14.519531 13.179688 15.074219 14.140625 15.074219 C 15.101562 15.074219 15.878906 14.519531 15.878906 13.832031 C 15.878906 13.8125 15.875 13.789062 15.875 13.769531 L 15.875 9.117188 C 15.875 8.847656 15.660156 8.628906 15.394531 8.625 Z M 15.394531 8.625 "/>
</g>
</svg>
