<?xml version="1.0" encoding="UTF-8"?>
<svg xmlns="http://www.w3.org/2000/svg" xmlns:xlink="http://www.w3.org/1999/xlink" width="48px" height="48px" viewBox="0 0 48 48" version="1.1">
<g id="surface1">
<path style=" stroke:none;fill-rule:nonzero;fill:rgb(38.039216%,38.039216%,38.039216%);fill-opacity:1;" d="M 23.8125 2.359375 C 13.917969 2.359375 5.953125 10.324219 5.953125 20.21875 L 5.953125 23.195312 C 5.953125 23.527344 5.960938 23.859375 5.980469 24.1875 L 7.980469 24.1875 C 7.953125 23.804688 7.9375 23.417969 7.9375 23.03125 L 7.9375 20.382812 C 7.9375 11.589844 15.019531 4.507812 23.8125 4.507812 C 32.605469 4.507812 39.6875 11.589844 39.6875 20.382812 L 39.6875 23.03125 C 39.6875 23.417969 39.671875 23.804688 39.644531 24.1875 L 41.644531 24.1875 C 41.664062 23.859375 41.671875 23.527344 41.671875 23.195312 L 41.671875 20.21875 C 41.671875 10.324219 33.707031 2.359375 23.8125 2.359375 Z M 23.8125 2.359375 "/>
<path style=" stroke:none;fill-rule:nonzero;fill:rgb(38.039216%,38.039216%,38.039216%);fill-opacity:1;" d="M 43.589844 26.066406 C 42.53125 25.78125 41.441406 26.410156 41.160156 27.46875 L 39.359375 34.175781 C 39.078125 35.234375 39.707031 36.324219 40.765625 36.605469 C 41.824219 36.890625 42.910156 36.261719 43.195312 35.203125 L 44.992188 28.496094 C 45.277344 27.4375 44.648438 26.347656 43.589844 26.066406 Z M 43.589844 26.066406 "/>
<path style=" stroke:none;fill-rule:nonzero;fill:rgb(74.117649%,74.117649%,74.117649%);fill-opacity:1;" d="M 42.71875 21.644531 L 40.800781 21.132812 C 39.742188 20.847656 38.65625 21.476562 38.371094 22.535156 L 34.519531 36.910156 C 34.234375 37.96875 34.863281 39.058594 35.921875 39.339844 L 37.839844 39.855469 C 38.898438 40.136719 39.984375 39.511719 40.269531 38.453125 L 44.121094 24.074219 C 44.40625 23.015625 43.777344 21.929688 42.71875 21.644531 Z M 42.71875 21.644531 "/>
<path style=" stroke:none;fill-rule:nonzero;fill:rgb(74.117649%,74.117649%,74.117649%);fill-opacity:1;" d="M 23.8125 2.359375 C 19.972656 2.359375 16.335938 3.378906 13.996094 4.550781 C 13.347656 4.863281 12.921875 5.496094 12.875 6.210938 C 12.828125 6.925781 13.171875 7.613281 13.769531 8.003906 C 14.371094 8.394531 15.136719 8.433594 15.769531 8.105469 C 17.398438 7.292969 20.734375 6.328125 23.8125 6.328125 C 26.890625 6.328125 30.226562 7.292969 31.855469 8.105469 C 32.488281 8.433594 33.253906 8.394531 33.855469 8.003906 C 34.453125 7.613281 34.796875 6.925781 34.75 6.210938 C 34.703125 5.496094 34.277344 4.863281 33.628906 4.550781 C 31.289062 3.378906 27.652344 2.359375 23.8125 2.359375 Z M 23.8125 2.359375 "/>
<path style=" stroke:none;fill-rule:nonzero;fill:rgb(38.039216%,38.039216%,38.039216%);fill-opacity:1;" d="M 4.035156 26.066406 C 5.09375 25.78125 6.183594 26.410156 6.464844 27.46875 L 8.265625 34.175781 C 8.546875 35.234375 7.917969 36.324219 6.859375 36.605469 C 5.800781 36.890625 4.714844 36.261719 4.429688 35.203125 L 2.632812 28.496094 C 2.347656 27.4375 2.976562 26.347656 4.035156 26.066406 Z M 4.035156 26.066406 "/>
<path style=" stroke:none;fill-rule:nonzero;fill:rgb(74.117649%,74.117649%,74.117649%);fill-opacity:1;" d="M 4.90625 21.644531 L 6.824219 21.132812 C 7.882812 20.847656 8.96875 21.476562 9.253906 22.535156 L 13.105469 36.910156 C 13.390625 37.96875 12.761719 39.058594 11.703125 39.339844 L 9.785156 39.855469 C 8.726562 40.136719 7.640625 39.511719 7.355469 38.453125 L 3.503906 24.074219 C 3.21875 23.015625 3.847656 21.929688 4.90625 21.644531 Z M 4.90625 21.644531 "/>
</g>
</svg>
