<?xml version="1.0" encoding="UTF-8"?>
<svg xmlns="http://www.w3.org/2000/svg" xmlns:xlink="http://www.w3.org/1999/xlink" width="24px" height="24px" viewBox="0 0 24 24" version="1.1">
<g id="surface1">
<path style=" stroke:none;fill-rule:nonzero;fill:rgb(77.64706%,15.686275%,15.686275%);fill-opacity:1;" d="M 21.828125 23.007812 L 1.984375 23.007812 C 1.4375 23.007812 0.992188 22.5625 0.992188 22.015625 L 0.992188 2.171875 C 0.992188 1.625 1.4375 1.179688 1.984375 1.179688 L 21.828125 1.179688 C 22.375 1.179688 22.820312 1.625 22.820312 2.171875 L 22.820312 22.015625 C 22.820312 22.5625 22.375 23.007812 21.828125 23.007812 Z M 21.828125 23.007812 "/>
<path style=" stroke:none;fill-rule:nonzero;fill:rgb(93.725491%,32.549021%,31.37255%);fill-opacity:1;" d="M 21.332031 22.015625 L 2.480469 22.015625 C 2.207031 22.015625 1.984375 21.792969 1.984375 21.519531 L 1.984375 2.667969 C 1.984375 2.394531 2.207031 2.171875 2.480469 2.171875 L 21.332031 2.171875 C 21.605469 2.171875 21.828125 2.394531 21.828125 2.667969 L 21.828125 21.519531 C 21.828125 21.792969 21.605469 22.015625 21.332031 22.015625 Z M 21.332031 22.015625 "/>
<path style=" stroke:none;fill-rule:nonzero;fill:rgb(93.333334%,93.333334%,93.333334%);fill-opacity:1;" d="M 18.570312 17.355469 L 17.167969 18.757812 C 16.972656 18.953125 16.660156 18.953125 16.464844 18.757812 L 5.242188 7.535156 C 5.046875 7.339844 5.046875 7.027344 5.242188 6.832031 L 6.644531 5.429688 C 6.839844 5.234375 7.152344 5.234375 7.347656 5.429688 L 18.570312 16.652344 C 18.765625 16.847656 18.765625 17.160156 18.570312 17.355469 Z M 18.570312 17.355469 "/>
<path style=" stroke:none;fill-rule:nonzero;fill:rgb(93.333334%,93.333334%,93.333334%);fill-opacity:1;" d="M 17.167969 5.429688 L 18.570312 6.832031 C 18.765625 7.027344 18.765625 7.339844 18.570312 7.535156 L 7.347656 18.757812 C 7.152344 18.953125 6.839844 18.953125 6.644531 18.757812 L 5.242188 17.355469 C 5.046875 17.160156 5.046875 16.847656 5.242188 16.652344 L 16.464844 5.429688 C 16.660156 5.234375 16.972656 5.234375 17.167969 5.429688 Z M 17.167969 5.429688 "/>
</g>
</svg>
