<?xml version="1.0" encoding="UTF-8"?>
<svg xmlns="http://www.w3.org/2000/svg" xmlns:xlink="http://www.w3.org/1999/xlink" width="22px" height="22px" viewBox="0 0 22 22" version="1.1">
<g id="surface1">
<path style=" stroke:none;fill-rule:nonzero;fill:rgb(25.882354%,25.882354%,25.882354%);fill-opacity:1;" d="M 10.914062 1.082031 C 16.4375 1.082031 20.917969 5.5625 20.917969 11.085938 C 20.917969 16.609375 16.4375 21.089844 10.914062 21.089844 C 5.390625 21.089844 0.910156 16.609375 0.910156 11.085938 C 0.910156 5.5625 5.390625 1.082031 10.914062 1.082031 Z M 10.914062 1.082031 "/>
<path style=" stroke:none;fill-rule:nonzero;fill:rgb(36.078432%,41.960785%,75.294119%);fill-opacity:1;" d="M 10.914062 11.085938 L 4.035156 18.363281 C 2.109375 16.539062 0.910156 13.957031 0.910156 11.085938 C 0.910156 8.214844 2.109375 5.632812 4.035156 3.808594 Z M 10.914062 11.085938 "/>
<path style=" stroke:none;fill-rule:nonzero;fill:rgb(36.078432%,41.960785%,75.294119%);fill-opacity:1;" d="M 10.914062 11.085938 L 17.792969 18.363281 C 19.71875 16.539062 20.917969 13.957031 20.917969 11.085938 C 20.917969 8.214844 19.71875 5.632812 17.792969 3.808594 Z M 10.914062 11.085938 "/>
<path style=" stroke:none;fill-rule:nonzero;fill:rgb(96.078432%,96.078432%,96.078432%);fill-opacity:1;" d="M 10.914062 2.445312 C 15.6875 2.445312 19.554688 6.3125 19.554688 11.085938 C 19.554688 15.859375 15.6875 19.726562 10.914062 19.726562 C 6.140625 19.726562 2.273438 15.859375 2.273438 11.085938 C 2.273438 6.3125 6.140625 2.445312 10.914062 2.445312 Z M 10.914062 2.445312 "/>
<path style=" stroke:none;fill-rule:nonzero;fill:rgb(36.078432%,41.960785%,75.294119%);fill-opacity:1;" d="M 12.734375 3.808594 C 12.277344 3.808594 11.824219 4.265625 11.824219 4.71875 L 11.824219 13.773438 C 11.074219 13.25 9.949219 13.074219 8.800781 13.382812 C 7.015625 13.859375 5.867188 15.324219 6.226562 16.660156 C 6.585938 18 8.308594 18.691406 10.09375 18.214844 C 11.683594 17.789062 12.769531 16.582031 12.734375 15.375 L 12.734375 6.539062 C 13.675781 6.453125 14.757812 6.59375 15.410156 7.355469 C 16.148438 8.238281 16.164062 9.472656 16.046875 10.558594 C 15.882812 11.835938 15.527344 13.089844 15.007812 14.269531 C 16.898438 11.664062 18.464844 6.941406 15.007812 5.175781 C 14.335938 4.808594 13.328125 4.683594 12.851562 4.050781 C 12.78125 3.914062 12.746094 3.824219 12.734375 3.867188 Z M 12.734375 3.808594 "/>
</g>
</svg>
