<?xml version="1.0" encoding="UTF-8"?>
<svg xmlns="http://www.w3.org/2000/svg" xmlns:xlink="http://www.w3.org/1999/xlink" width="22px" height="22px" viewBox="0 0 22 22" version="1.1">
<g id="surface1">
<path style=" stroke:none;fill-rule:nonzero;fill:rgb(87.843138%,87.843138%,87.843138%);fill-opacity:1;" d="M 10.914062 1.082031 C 16.4375 1.082031 20.917969 5.5625 20.917969 11.085938 C 20.917969 16.609375 16.4375 21.089844 10.914062 21.089844 C 5.390625 21.089844 0.910156 16.609375 0.910156 11.085938 C 0.910156 5.5625 5.390625 1.082031 10.914062 1.082031 Z M 10.914062 1.082031 "/>
<path style=" stroke:none;fill-rule:nonzero;fill:rgb(25.882354%,25.882354%,25.882354%);fill-opacity:1;" d="M 10.914062 1.992188 C 15.9375 1.992188 20.007812 6.0625 20.007812 11.085938 C 20.007812 16.109375 15.9375 20.179688 10.914062 20.179688 C 5.890625 20.179688 1.820312 16.109375 1.820312 11.085938 C 1.820312 6.0625 5.890625 1.992188 10.914062 1.992188 Z M 10.914062 1.992188 "/>
<path style=" stroke:none;fill-rule:nonzero;fill:rgb(93.725491%,32.549021%,31.37255%);fill-opacity:0.995763;" d="M 8.90625 19.023438 L 8.6875 18.964844 C 8.625 18.945312 8.589844 18.882812 8.605469 18.824219 L 10.429688 12.015625 C 10.445312 11.953125 10.507812 11.917969 10.570312 11.933594 L 10.789062 11.992188 C 10.847656 12.011719 10.886719 12.074219 10.867188 12.132812 L 9.042969 18.941406 C 9.027344 19.003906 8.964844 19.039062 8.90625 19.023438 Z M 8.90625 19.023438 "/>
<path style=" stroke:none;fill-rule:nonzero;fill:rgb(87.843138%,87.843138%,87.843138%);fill-opacity:1;" d="M 10.914062 9.722656 C 11.667969 9.722656 12.277344 10.332031 12.277344 11.085938 C 12.277344 11.839844 11.667969 12.449219 10.914062 12.449219 C 10.160156 12.449219 9.550781 11.839844 9.550781 11.085938 C 9.550781 10.332031 10.160156 9.722656 10.914062 9.722656 Z M 10.914062 9.722656 "/>
</g>
</svg>
