<?xml version="1.0" encoding="UTF-8"?>
<svg xmlns="http://www.w3.org/2000/svg" xmlns:xlink="http://www.w3.org/1999/xlink" width="22px" height="22px" viewBox="0 0 22 22" version="1.1">
<g id="surface1">
<path style=" stroke:none;fill-rule:nonzero;fill:rgb(100%,71.764708%,30.19608%);fill-opacity:1;" d="M 0.910156 6.082031 L 0.910156 18.816406 C 0.910156 19.320312 1.316406 19.726562 1.820312 19.726562 L 20.007812 19.726562 C 20.511719 19.726562 20.917969 19.320312 20.917969 18.816406 L 20.917969 6.082031 Z M 0.910156 6.082031 "/>
<path style=" stroke:none;fill-rule:nonzero;fill:rgb(94.117647%,38.431373%,57.254905%);fill-opacity:1;" d="M 0.910156 6.082031 L 0.910156 18.902344 C 0.910156 19.359375 1.316406 19.726562 1.820312 19.726562 L 20.007812 19.726562 C 20.257812 19.726562 20.484375 19.636719 20.648438 19.488281 L 5.527344 6.082031 Z M 0.910156 6.082031 "/>
<path style=" stroke:none;fill-rule:nonzero;fill:rgb(72.941178%,40.784314%,78.431374%);fill-opacity:1;" d="M 16.707031 6.082031 L 1.179688 19.492188 C 1.34375 19.636719 1.570312 19.726562 1.820312 19.726562 L 20.007812 19.726562 C 20.511719 19.726562 20.917969 19.359375 20.917969 18.902344 L 20.917969 6.082031 Z M 16.707031 6.082031 "/>
<path style=" stroke:none;fill-rule:nonzero;fill:rgb(25.882354%,25.882354%,25.882354%);fill-opacity:1;" d="M 1.820312 2.445312 C 1.316406 2.445312 0.910156 2.851562 0.910156 3.355469 L 0.910156 6.082031 L 20.917969 6.082031 L 20.917969 3.355469 C 20.917969 2.851562 20.511719 2.445312 20.007812 2.445312 Z M 1.820312 2.445312 "/>
<path style=" stroke:none;fill-rule:nonzero;fill:rgb(93.725491%,32.549021%,31.37255%);fill-opacity:1;" d="M 19.835938 3.300781 C 19.925781 3.390625 19.925781 3.53125 19.835938 3.621094 L 18.230469 5.230469 C 18.140625 5.316406 17.996094 5.316406 17.90625 5.230469 C 17.820312 5.140625 17.820312 4.996094 17.90625 4.90625 L 19.515625 3.300781 C 19.605469 3.210938 19.75 3.210938 19.835938 3.300781 Z M 19.835938 3.300781 "/>
<path style=" stroke:none;fill-rule:nonzero;fill:rgb(93.725491%,32.549021%,31.37255%);fill-opacity:1;" d="M 19.835938 5.230469 C 19.75 5.316406 19.605469 5.316406 19.515625 5.230469 L 17.90625 3.621094 C 17.820312 3.53125 17.820312 3.390625 17.90625 3.300781 C 17.996094 3.210938 18.140625 3.210938 18.230469 3.300781 L 19.835938 4.90625 C 19.925781 4.996094 19.925781 5.140625 19.835938 5.230469 Z M 19.835938 5.230469 "/>
<path style=" stroke:none;fill-rule:nonzero;fill:rgb(93.333334%,93.333334%,93.333334%);fill-opacity:1;" d="M 4.546875 10.175781 L 17.28125 10.175781 C 17.53125 10.175781 17.734375 10.378906 17.734375 10.632812 L 17.734375 15.179688 C 17.734375 15.429688 17.53125 15.632812 17.28125 15.632812 L 4.546875 15.632812 C 4.296875 15.632812 4.09375 15.429688 4.09375 15.179688 L 4.09375 10.632812 C 4.09375 10.378906 4.296875 10.175781 4.546875 10.175781 Z M 4.546875 10.175781 "/>
<path style=" stroke:none;fill-rule:nonzero;fill:rgb(25.882354%,25.882354%,25.882354%);fill-opacity:1;" d="M 7.957031 11.769531 C 7.832031 11.769531 7.730469 11.871094 7.730469 11.996094 L 7.730469 12.511719 L 7.285156 12.253906 C 7.175781 12.191406 7.035156 12.226562 6.972656 12.335938 C 6.910156 12.445312 6.949219 12.585938 7.058594 12.648438 L 7.503906 12.90625 L 7.058594 13.164062 C 6.949219 13.226562 6.910156 13.363281 6.972656 13.472656 C 7.035156 13.582031 7.175781 13.621094 7.285156 13.554688 L 7.730469 13.296875 L 7.730469 13.8125 C 7.730469 13.941406 7.832031 14.042969 7.957031 14.042969 C 8.085938 14.042969 8.1875 13.941406 8.1875 13.8125 L 8.1875 13.296875 L 8.632812 13.554688 C 8.742188 13.621094 8.878906 13.582031 8.941406 13.472656 C 9.003906 13.363281 8.96875 13.226562 8.859375 13.164062 L 8.414062 12.90625 L 8.859375 12.648438 C 8.96875 12.585938 9.003906 12.445312 8.941406 12.335938 C 8.878906 12.226562 8.742188 12.191406 8.632812 12.253906 L 8.1875 12.511719 L 8.1875 11.996094 C 8.1875 11.871094 8.085938 11.769531 7.957031 11.769531 Z M 7.957031 11.769531 "/>
<path style=" stroke:none;fill-rule:nonzero;fill:rgb(25.882354%,25.882354%,25.882354%);fill-opacity:1;" d="M 10.914062 11.769531 C 10.789062 11.769531 10.6875 11.871094 10.6875 11.996094 L 10.6875 12.511719 L 10.238281 12.253906 C 10.132812 12.191406 9.992188 12.226562 9.929688 12.335938 C 9.867188 12.445312 9.902344 12.585938 10.011719 12.648438 L 10.460938 12.90625 L 10.011719 13.164062 C 9.902344 13.226562 9.867188 13.363281 9.929688 13.472656 C 9.992188 13.582031 10.132812 13.621094 10.238281 13.554688 L 10.6875 13.296875 L 10.6875 13.8125 C 10.6875 13.941406 10.789062 14.042969 10.914062 14.042969 C 11.039062 14.042969 11.140625 13.941406 11.140625 13.8125 L 11.140625 13.296875 L 11.589844 13.554688 C 11.695312 13.621094 11.835938 13.582031 11.898438 13.472656 C 11.960938 13.363281 11.925781 13.226562 11.816406 13.164062 L 11.367188 12.90625 L 11.816406 12.648438 C 11.925781 12.585938 11.960938 12.445312 11.898438 12.335938 C 11.835938 12.226562 11.695312 12.191406 11.589844 12.253906 L 11.140625 12.511719 L 11.140625 11.996094 C 11.140625 11.871094 11.039062 11.769531 10.914062 11.769531 Z M 10.914062 11.769531 "/>
<path style=" stroke:none;fill-rule:nonzero;fill:rgb(93.725491%,32.549021%,31.37255%);fill-opacity:1;" d="M 13.871094 11.769531 C 13.742188 11.769531 13.640625 11.871094 13.640625 11.996094 L 13.640625 12.511719 L 13.195312 12.253906 C 13.085938 12.191406 12.949219 12.226562 12.886719 12.335938 C 12.824219 12.445312 12.859375 12.585938 12.96875 12.648438 L 13.414062 12.90625 L 12.96875 13.164062 C 12.859375 13.226562 12.824219 13.363281 12.886719 13.472656 C 12.949219 13.582031 13.085938 13.621094 13.195312 13.554688 L 13.640625 13.296875 L 13.640625 13.8125 C 13.640625 13.941406 13.742188 14.042969 13.871094 14.042969 C 13.996094 14.042969 14.097656 13.941406 14.097656 13.8125 L 14.097656 13.296875 L 14.542969 13.554688 C 14.652344 13.621094 14.792969 13.582031 14.855469 13.472656 C 14.917969 13.363281 14.878906 13.226562 14.769531 13.164062 L 14.324219 12.90625 L 14.769531 12.648438 C 14.878906 12.585938 14.917969 12.445312 14.855469 12.335938 C 14.792969 12.226562 14.652344 12.191406 14.542969 12.253906 L 14.097656 12.511719 L 14.097656 11.996094 C 14.097656 11.871094 13.996094 11.769531 13.871094 11.769531 Z M 13.871094 11.769531 "/>
</g>
</svg>
