<?xml version="1.0" encoding="UTF-8"?>
<svg xmlns="http://www.w3.org/2000/svg" xmlns:xlink="http://www.w3.org/1999/xlink" width="24px" height="24px" viewBox="0 0 24 24" version="1.1">
<g id="surface1">
<path style=" stroke:none;fill-rule:nonzero;fill:rgb(8.235294%,39.607844%,75.294119%);fill-opacity:1;" d="M 21.828125 23.007812 L 1.984375 23.007812 C 1.4375 23.007812 0.992188 22.5625 0.992188 22.015625 L 0.992188 2.171875 C 0.992188 1.625 1.4375 1.179688 1.984375 1.179688 L 21.828125 1.179688 C 22.375 1.179688 22.820312 1.625 22.820312 2.171875 L 22.820312 22.015625 C 22.820312 22.5625 22.375 23.007812 21.828125 23.007812 Z M 21.828125 23.007812 "/>
<path style=" stroke:none;fill-rule:nonzero;fill:rgb(25.882354%,64.705884%,96.078432%);fill-opacity:1;" d="M 21.332031 22.015625 L 2.480469 22.015625 C 2.207031 22.015625 1.984375 21.792969 1.984375 21.519531 L 1.984375 2.667969 C 1.984375 2.394531 2.207031 2.171875 2.480469 2.171875 L 21.332031 2.171875 C 21.605469 2.171875 21.828125 2.394531 21.828125 2.667969 L 21.828125 21.519531 C 21.828125 21.792969 21.605469 22.015625 21.332031 22.015625 Z M 21.332031 22.015625 "/>
<path style=" stroke:none;fill-rule:nonzero;fill:rgb(93.333334%,93.333334%,93.333334%);fill-opacity:1;" d="M 11.90625 5.148438 C 12.667969 5.148438 13.535156 9.25 14.152344 9.699219 C 14.765625 10.144531 18.9375 9.703125 19.171875 10.425781 C 19.40625 11.152344 15.773438 13.246094 15.539062 13.96875 C 15.304688 14.691406 17.011719 18.519531 16.398438 18.96875 C 15.78125 19.414062 12.667969 16.609375 11.90625 16.609375 C 11.144531 16.609375 8.03125 19.414062 7.414062 18.96875 C 6.800781 18.519531 8.507812 14.691406 8.273438 13.96875 C 8.039062 13.246094 4.40625 11.152344 4.640625 10.425781 C 4.875 9.703125 9.046875 10.144531 9.660156 9.699219 C 10.277344 9.25 11.144531 5.148438 11.90625 5.148438 Z M 11.90625 5.148438 "/>
</g>
</svg>
