
<svg xmlns="http://www.w3.org/2000/svg" xmlns:xlink="http://www.w3.org/1999/xlink" width="24px" height="24px" viewBox="0 0 24 24" version="1.1">
<g id="surface1">
<defs>
  <style id="current-color-scheme" type="text/css">
   .ColorScheme-Text { color:#424242; } .ColorScheme-Highlight { color:#eeeeee; }
  </style>
 </defs>
<path style="fill:currentColor" class="ColorScheme-Text" d="M 19 10 L 17.996094 10 C 17.996094 8.515625 17.453125 7.3125 16.574219 6.589844 C 15.699219 5.867188 14.546875 5.644531 13.503906 5.90625 C 12.460938 6.167969 11.515625 6.917969 11.019531 8.050781 C 10.527344 9.183594 10.492188 10.640625 11.046875 12.316406 C 11.492188 13.640625 11.398438 14.5625 11.140625 15.148438 C 10.886719 15.734375 10.464844 16.042969 10.003906 16.160156 C 9.546875 16.273438 9.074219 16.175781 8.699219 15.867188 C 8.328125 15.558594 7.996094 15.015625 7.996094 14 L 9 14 L 9 10 L 7.996094 10 L 7.996094 5 L 6 5 L 6 10 L 5 10 L 5 14 L 6 14 C 6 15.484375 6.550781 16.6875 7.425781 17.410156 C 8.304688 18.132812 9.453125 18.351562 10.496094 18.09375 C 11.535156 17.832031 12.484375 17.078125 12.976562 15.949219 C 13.46875 14.816406 13.507812 13.359375 12.949219 11.6875 C 12.507812 10.359375 12.597656 9.441406 12.855469 8.855469 C 13.113281 8.269531 13.535156 7.960938 13.992188 7.847656 C 14.449219 7.734375 14.925781 7.824219 15.300781 8.132812 C 15.671875 8.441406 16.003906 8.984375 16.003906 10 L 15 10 L 15 14 L 16 14 L 16 19 L 17.996094 19 L 17.996094 14 L 19 14 Z M 19 10 "/>
</g>
</svg>
