<?xml version="1.0" encoding="UTF-8"?>
<svg xmlns="http://www.w3.org/2000/svg" xmlns:xlink="http://www.w3.org/1999/xlink" width="48px" height="48px" viewBox="0 0 48 48" version="1.1">
<g id="surface1">
<path style=" stroke:none;fill-rule:nonzero;fill:rgb(77.64706%,15.686275%,15.686275%);fill-opacity:1;" d="M 43.65625 46.015625 L 3.96875 46.015625 C 2.871094 46.015625 1.984375 45.128906 1.984375 44.03125 L 1.984375 4.34375 C 1.984375 3.246094 2.871094 2.359375 3.96875 2.359375 L 43.65625 2.359375 C 44.753906 2.359375 45.640625 3.246094 45.640625 4.34375 L 45.640625 44.03125 C 45.640625 45.128906 44.753906 46.015625 43.65625 46.015625 Z M 43.65625 46.015625 "/>
<path style=" stroke:none;fill-rule:nonzero;fill:rgb(93.725491%,32.549021%,31.37255%);fill-opacity:1;" d="M 42.664062 44.03125 L 4.960938 44.03125 C 4.414062 44.03125 3.96875 43.585938 3.96875 43.039062 L 3.96875 5.335938 C 3.96875 4.789062 4.414062 4.34375 4.960938 4.34375 L 42.664062 4.34375 C 43.210938 4.34375 43.65625 4.789062 43.65625 5.335938 L 43.65625 43.039062 C 43.65625 43.585938 43.210938 44.03125 42.664062 44.03125 Z M 42.664062 44.03125 "/>
<path style=" stroke:none;fill-rule:nonzero;fill:rgb(93.333334%,93.333334%,93.333334%);fill-opacity:1;" d="M 9.921875 22.203125 L 9.921875 26.171875 C 9.921875 26.71875 10.367188 27.164062 10.914062 27.164062 L 36.710938 27.164062 C 37.257812 27.164062 37.703125 26.71875 37.703125 26.171875 L 37.703125 22.203125 C 37.703125 21.65625 37.257812 21.210938 36.710938 21.210938 L 10.914062 21.210938 C 10.367188 21.210938 9.921875 21.65625 9.921875 22.203125 Z M 9.921875 22.203125 "/>
</g>
</svg>
