<?xml version="1.0" encoding="UTF-8"?>
<svg xmlns="http://www.w3.org/2000/svg" xmlns:xlink="http://www.w3.org/1999/xlink" width="32px" height="32px" viewBox="0 0 32 32" version="1.1">
<g id="surface1">
<path style=" stroke:none;fill-rule:nonzero;fill:rgb(100%,79.215688%,15.686275%);fill-opacity:1;" d="M 15.875 1.574219 C 23.910156 1.574219 30.425781 8.089844 30.425781 16.125 C 30.425781 24.160156 23.910156 30.675781 15.875 30.675781 C 7.839844 30.675781 1.324219 24.160156 1.324219 16.125 C 1.324219 8.089844 7.839844 1.574219 15.875 1.574219 Z M 15.875 1.574219 "/>
<path style=" stroke:none;fill-rule:nonzero;fill:rgb(93.725491%,32.549021%,31.37255%);fill-opacity:1;" d="M 7.9375 10.789062 L 7.9375 13.480469 L 9.730469 13.480469 L 9.730469 21.546875 L 12.417969 21.546875 L 12.417969 10.789062 Z M 19.585938 10.789062 C 16.617188 10.789062 14.210938 13.199219 14.210938 16.167969 C 14.210938 19.136719 16.617188 21.546875 19.585938 21.546875 L 29.390625 21.546875 C 29.734375 20.6875 29.996094 19.789062 30.171875 18.855469 L 19.585938 18.855469 C 18.101562 18.855469 16.898438 17.652344 16.898438 16.167969 C 16.898438 14.683594 18.101562 13.480469 19.585938 13.480469 C 20.347656 13.480469 21.078125 13.808594 21.585938 14.375 L 24.648438 14.375 C 23.890625 12.230469 21.863281 10.792969 19.585938 10.789062 Z M 19.585938 10.789062 "/>
</g>
</svg>
