<?xml version="1.0" encoding="UTF-8"?>
<svg xmlns="http://www.w3.org/2000/svg" xmlns:xlink="http://www.w3.org/1999/xlink" width="32px" height="32px" viewBox="0 0 32 32" version="1.1">
<g id="surface1">
<path style=" stroke:none;fill-rule:nonzero;fill:rgb(61.960787%,61.960787%,61.960787%);fill-opacity:1;" d="M 14.882812 10.171875 C 14.960938 11.175781 15.214844 11.164062 14.882812 12.15625 L 13.558594 10.832031 C 13.890625 11.824219 14.835938 12.855469 14.550781 13.480469 L 14.558594 13.480469 C 14.554688 13.507812 14.550781 13.535156 14.550781 13.5625 C 14.550781 13.972656 15.140625 14.304688 15.875 14.304688 C 16.609375 14.304688 17.199219 13.972656 17.199219 13.5625 C 17.199219 13.535156 17.195312 13.507812 17.191406 13.480469 L 17.199219 13.480469 C 17.191406 13.46875 17.1875 13.457031 17.179688 13.441406 C 17.175781 13.417969 17.164062 13.394531 17.152344 13.367188 C 16.941406 12.710938 17.582031 11.773438 18.519531 10.832031 C 17.734375 11.09375 17.222656 11.191406 16.992188 11.679688 C 17.109375 11.035156 16.988281 10.714844 17.527344 10.171875 C 16.535156 10.503906 16.207031 11.164062 16.207031 12.15625 C 15.875 11.164062 15.683594 11.105469 14.882812 10.171875 Z M 14.882812 10.171875 "/>
<path style=" stroke:none;fill-rule:nonzero;fill:rgb(61.960787%,61.960787%,61.960787%);fill-opacity:1;" d="M 4.625 1.765625 L 4.683594 1.734375 C 6.25 0.828125 9.140625 2.90625 11.140625 6.367188 L 11.171875 6.425781 C 13.171875 9.890625 13.523438 13.433594 11.957031 14.335938 L 11.902344 14.371094 C 10.335938 15.273438 7.445312 13.199219 5.445312 9.734375 L 5.410156 9.675781 C 3.410156 6.210938 3.058594 2.671875 4.625 1.765625 Z M 4.625 1.765625 "/>
<path style=" stroke:none;fill-rule:nonzero;fill:rgb(45.882353%,45.882353%,45.882353%);fill-opacity:1;" d="M 5.292969 2.910156 L 5.339844 2.882812 C 6.589844 2.160156 9.007812 4 10.734375 6.988281 L 10.761719 7.039062 C 12.492188 10.03125 12.875 13.042969 11.621094 13.765625 L 11.578125 13.792969 C 10.324219 14.515625 7.90625 12.675781 6.179688 9.683594 L 6.152344 9.636719 C 4.425781 6.644531 4.039062 3.632812 5.292969 2.910156 Z M 5.292969 2.910156 "/>
<path style=" stroke:none;fill-rule:nonzero;fill:rgb(61.960787%,61.960787%,61.960787%);fill-opacity:1;" d="M 27.171875 1.765625 L 27.113281 1.734375 C 25.550781 0.828125 22.65625 2.90625 20.65625 6.367188 L 20.625 6.425781 C 18.625 9.890625 18.273438 13.433594 19.839844 14.335938 L 19.894531 14.371094 C 21.460938 15.273438 24.351562 13.199219 26.351562 9.734375 L 26.386719 9.675781 C 28.386719 6.210938 28.738281 2.671875 27.171875 1.765625 Z M 27.171875 1.765625 "/>
<path style=" stroke:none;fill-rule:nonzero;fill:rgb(45.882353%,45.882353%,45.882353%);fill-opacity:1;" d="M 26.503906 2.910156 L 26.460938 2.882812 C 25.207031 2.160156 22.789062 4 21.0625 6.988281 L 21.035156 7.039062 C 19.308594 10.03125 18.921875 13.042969 20.175781 13.765625 L 20.222656 13.792969 C 21.472656 14.515625 23.890625 12.675781 25.617188 9.683594 L 25.644531 9.636719 C 27.375 6.644531 27.757812 3.632812 26.503906 2.910156 Z M 26.503906 2.910156 "/>
<path style=" stroke:none;fill-rule:nonzero;fill:rgb(61.960787%,61.960787%,61.960787%);fill-opacity:1;" d="M 15.875 12.15625 C 11.316406 12.15625 7.460938 14.925781 7.519531 19.433594 C 7.519531 21.417969 5.621094 22.078125 5.621094 24.722656 C 5.621094 29.355469 11.316406 30.675781 15.875 30.675781 C 20.433594 30.675781 26.128906 29.355469 26.128906 24.722656 C 26.128906 22.078125 24.230469 21.417969 24.230469 19.433594 C 24.289062 14.925781 20.433594 12.15625 15.875 12.15625 Z M 15.875 12.15625 "/>
<path style=" stroke:none;fill-rule:nonzero;fill:rgb(74.117649%,74.117649%,74.117649%);fill-opacity:1;" d="M 15.875 20.753906 C 20.074219 20.753906 23.480469 22.734375 23.480469 25.175781 L 23.480469 25.265625 C 23.480469 27.707031 20.074219 29.683594 15.875 29.683594 C 11.675781 29.683594 8.269531 27.707031 8.269531 25.265625 L 8.269531 25.175781 C 8.269531 22.734375 11.675781 20.753906 15.875 20.753906 Z M 15.875 20.753906 "/>
<path style=" stroke:none;fill-rule:nonzero;fill:rgb(98.039216%,98.039216%,98.039216%);fill-opacity:1;" d="M 14.46875 25.714844 L 14.46875 27.371094 C 14.46875 27.554688 14.667969 27.699219 14.910156 27.699219 L 15.351562 27.699219 C 15.59375 27.699219 15.792969 27.554688 15.792969 27.371094 L 15.792969 25.054688 Z M 14.46875 25.714844 "/>
<path style=" stroke:none;fill-rule:nonzero;fill:rgb(96.078432%,96.078432%,96.078432%);fill-opacity:0.995763;" d="M 18.640625 17.199219 C 17.328125 17.550781 16.464844 18.5625 16.703125 19.460938 C 16.945312 20.359375 18.203125 20.800781 19.511719 20.453125 C 20.820312 20.101562 21.683594 19.089844 21.445312 18.191406 C 21.203125 17.292969 19.949219 16.847656 18.640625 17.199219 Z M 18.640625 17.199219 "/>
<path style=" stroke:none;fill-rule:nonzero;fill:rgb(25.882354%,25.882354%,25.882354%);fill-opacity:0.995763;" d="M 18.160156 18.441406 C 17.628906 18.441406 17.199219 18.871094 17.199219 19.402344 C 17.199219 19.9375 17.628906 20.367188 18.160156 20.367188 C 18.695312 20.367188 19.125 19.9375 19.125 19.402344 C 19.125 18.871094 18.695312 18.441406 18.160156 18.441406 Z M 18.160156 18.441406 "/>
<path style=" stroke:none;fill-rule:nonzero;fill:rgb(25.882354%,25.882354%,25.882354%);fill-opacity:1;" d="M 15.875 21.125 C 14.972656 21.125 14.207031 21.792969 13.890625 22.738281 C 14.207031 23.6875 14.972656 24.351562 15.875 24.351562 C 16.777344 24.351562 17.542969 23.6875 17.859375 22.738281 C 17.542969 21.792969 16.777344 21.125 15.875 21.125 Z M 15.875 21.125 "/>
<path style=" stroke:none;fill-rule:nonzero;fill:rgb(98.039216%,98.039216%,98.039216%);fill-opacity:1;" d="M 15.957031 25.054688 L 15.957031 27.371094 C 15.957031 27.554688 16.15625 27.699219 16.398438 27.699219 L 16.839844 27.699219 C 17.082031 27.699219 17.28125 27.554688 17.28125 27.371094 L 17.28125 25.714844 Z M 15.957031 25.054688 "/>
<path style="fill:none;stroke-width:10.59;stroke-linecap:round;stroke-linejoin:round;stroke:rgb(25.882354%,25.882354%,25.882354%);stroke-opacity:1;stroke-miterlimit:4;" d="M 211.6875 201.75 C 245.75 202.1875 254 191.1875 254 170 C 254 191.1875 264.5625 201.75 296.3125 201.75 " transform="matrix(0.0625,0,0,0.0625,0,13.4375)"/>
<path style=" stroke:none;fill-rule:nonzero;fill:rgb(96.078432%,96.078432%,96.078432%);fill-opacity:0.995763;" d="M 13.109375 17.199219 C 14.421875 17.550781 15.285156 18.5625 15.046875 19.460938 C 14.804688 20.359375 13.546875 20.800781 12.238281 20.453125 C 10.929688 20.101562 10.066406 19.089844 10.304688 18.191406 C 10.546875 17.292969 11.800781 16.847656 13.109375 17.199219 Z M 13.109375 17.199219 "/>
<path style=" stroke:none;fill-rule:nonzero;fill:rgb(25.882354%,25.882354%,25.882354%);fill-opacity:0.995763;" d="M 13.589844 18.441406 C 14.121094 18.441406 14.550781 18.871094 14.550781 19.402344 C 14.550781 19.9375 14.121094 20.367188 13.589844 20.367188 C 13.054688 20.367188 12.625 19.9375 12.625 19.402344 C 12.625 18.871094 13.054688 18.441406 13.589844 18.441406 Z M 13.589844 18.441406 "/>
</g>
</svg>
