<?xml version="1.0" encoding="UTF-8"?>
<svg xmlns="http://www.w3.org/2000/svg" xmlns:xlink="http://www.w3.org/1999/xlink" width="32px" height="32px" viewBox="0 0 32 32" version="1.1">
<g id="surface1">
<path style="fill-rule:nonzero;fill:rgb(100%,65.490198%,14.901961%);fill-opacity:1;stroke-width:0.164717;stroke-linecap:round;stroke-linejoin:miter;stroke:rgb(20%,20%,20%);stroke-opacity:1;stroke-miterlimit:4;" d="M 296.310975 -272.349263 C 456.450069 -272.349263 586.242104 -142.557228 586.242104 17.581865 C 586.242104 177.720959 456.450069 307.512994 296.310975 307.512994 C 136.249695 307.512994 6.379847 177.720959 6.379847 17.581865 C 6.379847 -142.557228 136.249695 -272.349263 296.310975 -272.349263 Z M 296.310975 -272.349263 " transform="matrix(0.0502005,0,0,0.0502005,1.000041,15.242382)"/>
<path style=" stroke:none;fill-rule:nonzero;fill:rgb(92.54902%,25.098041%,47.843137%);fill-opacity:1;" d="M 12.453125 1.972656 C 12.050781 2.070312 11.660156 2.183594 11.269531 2.308594 L 1.339844 15.375 C 1.328125 15.621094 1.320312 15.875 1.320312 16.125 C 1.320312 16.675781 1.351562 17.214844 1.410156 17.75 Z M 12.453125 1.972656 "/>
<path style=" stroke:none;fill-rule:nonzero;fill:rgb(40.000001%,73.333335%,41.568628%);fill-opacity:1;" d="M 30.332031 17.8125 C 24.960938 18.84375 20.015625 24.722656 19.722656 30.167969 C 25.378906 28.632812 29.648438 23.785156 30.332031 17.8125 Z M 30.332031 17.8125 "/>
<path style=" stroke:none;fill-rule:nonzero;fill:rgb(92.54902%,25.098041%,47.843137%);fill-opacity:1;" d="M 15.875 1.570312 C 15.585938 1.570312 15.292969 1.582031 15.003906 1.597656 L 3.367188 23.585938 C 5.941406 27.914062 10.574219 30.597656 15.613281 30.675781 C 13.867188 19.703125 16.851562 8.144531 21.609375 2.734375 C 19.796875 1.964844 17.847656 1.566406 15.875 1.570312 Z M 15.875 1.570312 "/>
</g>
</svg>
