<?xml version="1.0" encoding="UTF-8"?>
<svg xmlns="http://www.w3.org/2000/svg" xmlns:xlink="http://www.w3.org/1999/xlink" width="32px" height="32px" viewBox="0 0 32 32" version="1.1">
<g id="surface1">
<path style=" stroke:none;fill-rule:nonzero;fill:rgb(61.176473%,15.294118%,69.01961%);fill-opacity:1;" d="M 11.246094 1.574219 C 10.144531 1.574219 9.261719 2.457031 9.261719 3.558594 L 9.261719 14.800781 C 9.261719 15.667969 9.8125 16.402344 10.582031 16.675781 L 10.582031 4.21875 C 10.582031 3.851562 10.878906 3.558594 11.246094 3.558594 L 20.503906 3.558594 C 20.871094 3.558594 21.167969 3.851562 21.167969 4.21875 L 21.167969 16.675781 C 21.9375 16.402344 22.488281 15.667969 22.488281 14.800781 L 22.488281 3.558594 C 22.488281 2.457031 21.605469 1.574219 20.503906 1.574219 Z M 11.246094 1.574219 "/>
<path style=" stroke:none;fill-rule:nonzero;fill:rgb(67.058825%,27.843139%,73.725492%);fill-opacity:1;" d="M 2.644531 4.878906 L 29.105469 4.878906 C 29.835938 4.878906 30.425781 5.472656 30.425781 6.203125 L 30.425781 29.355469 C 30.425781 30.085938 29.835938 30.675781 29.105469 30.675781 L 2.644531 30.675781 C 1.914062 30.675781 1.324219 30.085938 1.324219 29.355469 L 1.324219 6.203125 C 1.324219 5.472656 1.914062 4.878906 2.644531 4.878906 Z M 2.644531 4.878906 "/>
<path style=" stroke:none;fill-rule:nonzero;fill:rgb(55.686277%,14.117648%,66.666669%);fill-opacity:1;" d="M 1.324219 17.449219 L 30.425781 17.449219 L 30.425781 18.109375 L 1.324219 18.109375 Z M 1.324219 17.449219 "/>
<path style=" stroke:none;fill-rule:nonzero;fill:rgb(87.843138%,87.843138%,87.843138%);fill-opacity:1;" d="M 6.285156 14.800781 C 6.101562 14.800781 5.953125 14.949219 5.953125 15.132812 L 5.953125 20.425781 C 5.953125 20.609375 6.101562 20.753906 6.285156 20.753906 L 9.589844 20.753906 C 9.773438 20.753906 9.921875 20.609375 9.921875 20.425781 L 9.921875 15.132812 C 9.921875 14.949219 9.773438 14.800781 9.589844 14.800781 Z M 7.605469 16.125 L 8.269531 16.125 C 8.453125 16.125 8.597656 16.273438 8.597656 16.457031 L 8.597656 19.101562 C 8.597656 19.285156 8.453125 19.433594 8.269531 19.433594 L 7.605469 19.433594 C 7.421875 19.433594 7.277344 19.285156 7.277344 19.101562 L 7.277344 16.457031 C 7.277344 16.273438 7.421875 16.125 7.605469 16.125 Z M 7.605469 16.125 "/>
<path style=" stroke:none;fill-rule:nonzero;fill:rgb(87.843138%,87.843138%,87.843138%);fill-opacity:1;" d="M 22.160156 14.800781 C 21.976562 14.800781 21.828125 14.949219 21.828125 15.132812 L 21.828125 20.425781 C 21.828125 20.609375 21.976562 20.753906 22.160156 20.753906 L 25.464844 20.753906 C 25.648438 20.753906 25.796875 20.609375 25.796875 20.425781 L 25.796875 15.132812 C 25.796875 14.949219 25.648438 14.800781 25.464844 14.800781 Z M 23.480469 16.125 L 24.144531 16.125 C 24.328125 16.125 24.472656 16.273438 24.472656 16.457031 L 24.472656 19.101562 C 24.472656 19.285156 24.328125 19.433594 24.144531 19.433594 L 23.480469 19.433594 C 23.296875 19.433594 23.152344 19.285156 23.152344 19.101562 L 23.152344 16.457031 C 23.152344 16.273438 23.296875 16.125 23.480469 16.125 Z M 23.480469 16.125 "/>
</g>
</svg>
