<?xml version="1.0" encoding="UTF-8"?>
<svg xmlns="http://www.w3.org/2000/svg" xmlns:xlink="http://www.w3.org/1999/xlink" width="32px" height="32px" viewBox="0 0 32 32" version="1.1">
<g id="surface1">
<path style=" stroke:none;fill-rule:nonzero;fill:rgb(0%,67.450982%,75.686276%);fill-opacity:1;" d="M 5.292969 1.574219 L 26.457031 1.574219 C 27.1875 1.574219 27.78125 2.164062 27.78125 2.894531 L 27.78125 29.355469 C 27.78125 30.085938 27.1875 30.675781 26.457031 30.675781 L 5.292969 30.675781 C 4.5625 30.675781 3.96875 30.085938 3.96875 29.355469 L 3.96875 2.894531 C 3.96875 2.164062 4.5625 1.574219 5.292969 1.574219 Z M 5.292969 1.574219 "/>
<path style=" stroke:none;fill-rule:nonzero;fill:rgb(96.078432%,96.078432%,96.078432%);fill-opacity:1;" d="M 7.277344 2.234375 L 26.457031 2.234375 C 26.824219 2.234375 27.121094 2.53125 27.121094 2.894531 L 27.121094 29.355469 C 27.121094 29.71875 26.824219 30.015625 26.457031 30.015625 L 7.277344 30.015625 C 6.910156 30.015625 6.613281 29.71875 6.613281 29.355469 L 6.613281 2.894531 C 6.613281 2.53125 6.910156 2.234375 7.277344 2.234375 Z M 7.277344 2.234375 "/>
<path style=" stroke:none;fill-rule:nonzero;fill:rgb(14.901961%,77.64706%,85.490197%);fill-opacity:1;" d="M 7.9375 1.574219 L 7.9375 30.675781 L 25.136719 30.675781 C 25.867188 30.675781 26.457031 30.085938 26.457031 29.355469 L 26.457031 2.894531 C 26.457031 2.164062 25.867188 1.574219 25.136719 1.574219 Z M 7.9375 1.574219 "/>
<path style=" stroke:none;fill-rule:nonzero;fill:rgb(25.882354%,25.882354%,25.882354%);fill-opacity:1;" d="M 5.292969 1.574219 C 4.558594 1.574219 3.96875 2.164062 3.96875 2.894531 L 3.96875 29.355469 C 3.96875 30.085938 4.558594 30.675781 5.292969 30.675781 L 7.9375 30.675781 L 7.9375 1.574219 Z M 5.292969 1.574219 "/>
<path style=" stroke:none;fill-rule:nonzero;fill:rgb(38.039216%,38.039216%,38.039216%);fill-opacity:1;" d="M 3.96875 15.464844 L 7.277344 15.464844 L 7.277344 16.785156 L 3.96875 16.785156 Z M 3.96875 15.464844 "/>
<path style=" stroke:none;fill-rule:nonzero;fill:rgb(38.039216%,38.039216%,38.039216%);fill-opacity:1;" d="M 3.96875 8.1875 L 7.277344 8.1875 L 7.277344 9.511719 L 3.96875 9.511719 Z M 3.96875 8.1875 "/>
<path style=" stroke:none;fill-rule:nonzero;fill:rgb(38.039216%,38.039216%,38.039216%);fill-opacity:1;" d="M 3.96875 22.738281 L 7.277344 22.738281 L 7.277344 24.0625 L 3.96875 24.0625 Z M 3.96875 22.738281 "/>
<path style=" stroke:none;fill-rule:nonzero;fill:rgb(25.882354%,25.882354%,25.882354%);fill-opacity:1;" d="M 21.167969 1.574219 L 23.8125 1.574219 L 23.8125 18.769531 L 22.488281 16.785156 L 21.167969 18.769531 Z M 21.167969 1.574219 "/>
<path style=" stroke:none;fill-rule:nonzero;fill:rgb(36.470589%,25.098041%,21.568628%);fill-opacity:1;" d="M 29.433594 23.402344 C 29.984375 23.402344 30.425781 23.84375 30.425781 24.394531 C 30.425781 24.941406 29.984375 25.386719 29.433594 25.386719 L 17.527344 25.386719 C 15.214844 25.386719 9.589844 26.707031 9.589844 30.675781 C 7.605469 30.675781 5.292969 30.675781 5.621094 29.355469 C 6.613281 26.378906 9.589844 23.402344 14.882812 23.402344 Z M 29.433594 23.402344 "/>
<path style=" stroke:none;fill-rule:nonzero;fill:rgb(47.450981%,33.333334%,28.235295%);fill-opacity:1;" d="M 6.285156 23.402344 C 5.734375 23.402344 5.292969 23.84375 5.292969 24.394531 C 5.292969 24.941406 5.734375 25.386719 6.285156 25.386719 L 18.191406 25.386719 C 20.503906 25.386719 26.128906 26.707031 26.128906 30.675781 C 28.113281 30.675781 30.425781 30.675781 30.097656 29.355469 C 29.105469 26.378906 26.128906 23.402344 20.835938 23.402344 Z M 6.285156 23.402344 "/>
<path style=" stroke:none;fill-rule:nonzero;fill:rgb(69.01961%,74.509805%,77.254903%);fill-opacity:0.54902;" d="M 24.472656 22.078125 C 27.03125 22.078125 29.105469 23.664062 29.105469 25.621094 L 29.105469 25.808594 C 29.105469 27.765625 27.03125 29.355469 24.472656 29.355469 C 21.917969 29.355469 19.84375 27.765625 19.84375 25.808594 L 19.84375 25.621094 C 19.84375 23.664062 21.917969 22.078125 24.472656 22.078125 Z M 24.472656 22.078125 "/>
<path style=" stroke:none;fill-rule:nonzero;fill:rgb(55.29412%,43.137255%,38.82353%);fill-opacity:1;" d="M 17.859375 23.402344 C 16.761719 23.402344 15.875 24.285156 15.875 25.386719 C 15.875 25.75 16.171875 26.046875 16.535156 26.046875 C 16.902344 26.046875 17.199219 25.75 17.199219 25.386719 C 17.199219 25.019531 17.492188 24.722656 17.859375 24.722656 C 18.226562 24.722656 18.519531 25.019531 18.519531 25.386719 L 18.550781 25.386719 C 18.53125 25.4375 18.519531 25.492188 18.519531 25.550781 C 18.519531 25.824219 18.742188 26.046875 19.015625 26.046875 C 19.292969 26.046875 19.511719 25.824219 19.511719 25.550781 C 19.511719 25.492188 19.503906 25.4375 19.484375 25.386719 L 19.84375 25.386719 C 19.84375 24.285156 18.957031 23.402344 17.859375 23.402344 Z M 17.859375 23.402344 "/>
<path style=" stroke:none;fill-rule:nonzero;fill:rgb(55.29412%,43.137255%,38.82353%);fill-opacity:1;" d="M 24.425781 20.753906 C 21.464844 20.753906 19.082031 22.855469 19.082031 25.46875 L 19.082031 25.964844 C 19.082031 28.574219 21.464844 30.675781 24.425781 30.675781 C 27.382812 30.675781 29.765625 28.574219 29.765625 25.964844 L 29.765625 25.46875 C 29.765625 22.855469 27.382812 20.753906 24.425781 20.753906 Z M 24.425781 22.078125 C 26.59375 22.078125 28.339844 23.621094 28.339844 25.535156 L 28.339844 25.898438 C 28.339844 27.8125 26.59375 29.355469 24.425781 29.355469 C 22.253906 29.355469 20.507812 27.8125 20.507812 25.898438 L 20.507812 25.535156 C 20.507812 23.621094 22.253906 22.078125 24.425781 22.078125 Z M 24.425781 22.078125 "/>
<path style=" stroke:none;fill-rule:nonzero;fill:rgb(69.01961%,74.509805%,77.254903%);fill-opacity:0.54902;" d="M 11.246094 22.078125 C 13.800781 22.078125 15.875 23.664062 15.875 25.621094 L 15.875 25.808594 C 15.875 27.765625 13.800781 29.355469 11.246094 29.355469 C 8.6875 29.355469 6.613281 27.765625 6.613281 25.808594 L 6.613281 25.621094 C 6.613281 23.664062 8.6875 22.078125 11.246094 22.078125 Z M 11.246094 22.078125 "/>
<path style=" stroke:none;fill-rule:nonzero;fill:rgb(55.29412%,43.137255%,38.82353%);fill-opacity:1;" d="M 11.246094 20.753906 C 8.285156 20.753906 5.902344 22.855469 5.902344 25.46875 L 5.902344 25.964844 C 5.902344 28.574219 8.285156 30.675781 11.246094 30.675781 C 14.203125 30.675781 16.585938 28.574219 16.585938 25.964844 L 16.585938 25.46875 C 16.585938 22.855469 14.203125 20.753906 11.246094 20.753906 Z M 11.246094 22.078125 C 13.414062 22.078125 15.160156 23.621094 15.160156 25.535156 L 15.160156 25.898438 C 15.160156 27.8125 13.414062 29.355469 11.246094 29.355469 C 9.074219 29.355469 7.328125 27.8125 7.328125 25.898438 L 7.328125 25.535156 C 7.328125 23.621094 9.074219 22.078125 11.246094 22.078125 Z M 11.246094 22.078125 "/>
</g>
</svg>
