
<svg xmlns="http://www.w3.org/2000/svg" xmlns:xlink="http://www.w3.org/1999/xlink" width="32px" height="32px" viewBox="0 0 32 32" version="1.1">
<g id="surface1">
<path style=" stroke:none;fill-rule:nonzero;fill:rgb(74.117649%,74.117649%,74.117649%);fill-opacity:1;" d="M 15.875 1.324219 C 11.035156 1.324219 6.542969 2.21875 2.808594 3.753906 C 3.523438 18.96875 6.746094 28.144531 15.875 30.425781 C 25.003906 28.144531 28.226562 18.96875 28.941406 3.753906 C 25.207031 2.21875 20.714844 1.324219 15.875 1.324219 Z M 15.875 1.324219 "/>
<path style=" stroke:none;fill-rule:nonzero;fill:rgb(25.882354%,64.705884%,96.078432%);fill-opacity:1;" d="M 15.875 3.359375 C 11.710938 3.359375 7.851562 4.128906 4.636719 5.449219 C 5.25 18.535156 8.023438 26.425781 15.875 28.390625 C 23.726562 26.425781 26.5 18.535156 27.113281 5.449219 C 23.898438 4.128906 20.039062 3.359375 15.875 3.359375 Z M 15.875 3.359375 "/>
<path style=" stroke:none;fill-rule:nonzero;fill:rgb(93.333334%,93.333334%,93.333334%);fill-opacity:1;" d="M 15.84375 3.203125 C 15.789062 3.203125 15.734375 3.203125 15.679688 3.203125 C 12.9375 3.21875 10.191406 3.5625 7.546875 4.285156 C 6.507812 4.570312 5.488281 4.914062 4.492188 5.324219 C 4.613281 7.910156 4.820312 10.492188 5.210938 13.050781 C 5.511719 15.007812 5.917969 16.953125 6.53125 18.835938 C 7.074219 20.484375 7.777344 22.09375 8.746094 23.539062 C 9.507812 24.679688 10.445312 25.710938 11.550781 26.535156 C 12.613281 27.335938 13.824219 27.933594 15.097656 28.332031 C 15.34375 28.40625 15.589844 28.476562 15.84375 28.539062 Z M 15.84375 3.203125 "/>
</g>
</svg>
