<?xml version="1.0" encoding="UTF-8"?>
<svg xmlns="http://www.w3.org/2000/svg" xmlns:xlink="http://www.w3.org/1999/xlink" width="32px" height="32px" viewBox="0 0 32 32" version="1.1">
<g id="surface1">
<path style=" stroke:none;fill-rule:nonzero;fill:rgb(87.843138%,87.843138%,87.843138%);fill-opacity:1;" d="M 15.875 1.574219 C 23.910156 1.574219 30.425781 8.089844 30.425781 16.125 C 30.425781 24.160156 23.910156 30.675781 15.875 30.675781 C 7.839844 30.675781 1.324219 24.160156 1.324219 16.125 C 1.324219 8.089844 7.839844 1.574219 15.875 1.574219 Z M 15.875 1.574219 "/>
<path style=" stroke:none;fill-rule:nonzero;fill:rgb(100%,65.490198%,14.901961%);fill-opacity:1;" d="M 4.648438 15.191406 L 14.941406 4.898438 C 15.457031 4.382812 16.292969 4.382812 16.808594 4.898438 L 27.101562 15.191406 C 27.617188 15.707031 27.617188 16.542969 27.101562 17.058594 L 16.808594 27.351562 C 16.292969 27.867188 15.457031 27.867188 14.941406 27.351562 L 4.648438 17.058594 C 4.132812 16.542969 4.132812 15.707031 4.648438 15.191406 Z M 4.648438 15.191406 "/>
<path style=" stroke:none;fill-rule:nonzero;fill:rgb(25.882354%,25.882354%,25.882354%);fill-opacity:1;" d="M 15.875 9.511719 L 12.566406 13.148438 L 14.550781 13.148438 L 14.550781 22.078125 C 14.550781 22.445312 14.847656 22.738281 15.214844 22.738281 L 16.535156 22.738281 C 16.902344 22.738281 17.199219 22.445312 17.199219 22.078125 L 17.199219 18.109375 L 18.191406 18.109375 C 18.375 18.109375 18.519531 18.257812 18.519531 18.441406 L 18.519531 21.417969 C 18.519531 21.601562 18.667969 21.746094 18.851562 21.746094 L 20.503906 21.746094 C 20.6875 21.746094 20.835938 21.601562 20.835938 21.417969 L 20.835938 18.441406 C 20.835938 16.972656 19.65625 15.792969 18.191406 15.792969 L 17.199219 15.792969 L 17.199219 13.148438 L 19.183594 13.148438 Z M 15.875 9.511719 "/>
</g>
</svg>
