<?xml version="1.0" encoding="UTF-8"?>
<svg xmlns="http://www.w3.org/2000/svg" xmlns:xlink="http://www.w3.org/1999/xlink" width="32px" height="32px" viewBox="0 0 32 32" version="1.1">
<g id="surface1">
<path style=" stroke:none;fill-rule:nonzero;fill:rgb(47.058824%,56.470591%,61.176473%);fill-opacity:1;" d="M 2.644531 1.574219 L 29.105469 1.574219 C 29.835938 1.574219 30.425781 2.164062 30.425781 2.894531 L 30.425781 29.355469 C 30.425781 30.085938 29.835938 30.675781 29.105469 30.675781 L 2.644531 30.675781 C 1.914062 30.675781 1.324219 30.085938 1.324219 29.355469 L 1.324219 2.894531 C 1.324219 2.164062 1.914062 1.574219 2.644531 1.574219 Z M 2.644531 1.574219 "/>
<path style=" stroke:none;fill-rule:nonzero;fill:rgb(93.333334%,93.333334%,93.333334%);fill-opacity:1;" d="M 3.308594 2.894531 L 28.441406 2.894531 C 28.808594 2.894531 29.105469 3.191406 29.105469 3.558594 L 29.105469 28.691406 C 29.105469 29.058594 28.808594 29.355469 28.441406 29.355469 L 3.308594 29.355469 C 2.941406 29.355469 2.644531 29.058594 2.644531 28.691406 L 2.644531 3.558594 C 2.644531 3.191406 2.941406 2.894531 3.308594 2.894531 Z M 3.308594 2.894531 "/>
<path style=" stroke:none;fill-rule:nonzero;fill:rgb(47.058824%,56.470591%,61.176473%);fill-opacity:1;" d="M 8.390625 8.640625 C 12.523438 4.507812 19.226562 4.507812 23.359375 8.640625 C 27.492188 12.773438 27.492188 19.476562 23.359375 23.609375 C 19.226562 27.742188 12.523438 27.742188 8.390625 23.609375 C 4.257812 19.476562 4.257812 12.773438 8.390625 8.640625 Z M 8.390625 8.640625 "/>
<path style=" stroke:none;fill-rule:nonzero;fill:rgb(93.333334%,93.333334%,93.333334%);fill-opacity:1;" d="M 9.328125 9.578125 C 8.675781 10.226562 8.140625 10.949219 7.726562 11.71875 L 12.132812 16.125 L 15.875 16.125 L 15.875 12.382812 L 11.46875 7.976562 C 10.699219 8.390625 9.976562 8.925781 9.328125 9.578125 Z M 9.328125 9.578125 "/>
<path style=" stroke:none;fill-rule:nonzero;fill:rgb(93.333334%,93.333334%,93.333334%);fill-opacity:1;" d="M 16.808594 17.058594 C 17.328125 16.542969 18.164062 16.542969 18.679688 17.058594 C 19.199219 17.578125 19.199219 18.414062 18.679688 18.929688 C 18.164062 19.449219 17.328125 19.449219 16.808594 18.929688 C 16.292969 18.414062 16.292969 17.578125 16.808594 17.058594 Z M 16.808594 17.058594 "/>
</g>
</svg>
