<?xml version="1.0" encoding="UTF-8"?>
<svg xmlns="http://www.w3.org/2000/svg" xmlns:xlink="http://www.w3.org/1999/xlink" width="32px" height="32px" viewBox="0 0 32 32" version="1.1">
<g id="surface1">
<path style=" stroke:none;fill-rule:nonzero;fill:rgb(87.843138%,87.843138%,87.843138%);fill-opacity:1;" d="M 5.292969 1.574219 L 26.457031 1.574219 C 27.1875 1.574219 27.78125 2.164062 27.78125 2.894531 L 27.78125 29.355469 C 27.78125 30.085938 27.1875 30.675781 26.457031 30.675781 L 5.292969 30.675781 C 4.5625 30.675781 3.96875 30.085938 3.96875 29.355469 L 3.96875 2.894531 C 3.96875 2.164062 4.5625 1.574219 5.292969 1.574219 Z M 5.292969 1.574219 "/>
<path style=" stroke:none;fill-rule:nonzero;fill:rgb(61.960787%,61.960787%,61.960787%);fill-opacity:1;" d="M 5.953125 2.894531 L 25.796875 2.894531 C 26.164062 2.894531 26.457031 3.191406 26.457031 3.558594 L 26.457031 15.464844 C 26.457031 15.828125 26.164062 16.125 25.796875 16.125 L 5.953125 16.125 C 5.585938 16.125 5.292969 15.828125 5.292969 15.464844 L 5.292969 3.558594 C 5.292969 3.191406 5.585938 2.894531 5.953125 2.894531 Z M 5.953125 2.894531 "/>
<path style=" stroke:none;fill-rule:nonzero;fill:rgb(61.960787%,61.960787%,61.960787%);fill-opacity:1;" d="M 5.953125 17.449219 C 5.585938 17.449219 5.292969 17.742188 5.292969 18.109375 L 5.292969 23.402344 C 5.292969 23.765625 5.585938 24.0625 5.953125 24.0625 L 13.230469 24.0625 L 13.230469 25.386719 C 13.230469 25.75 13.523438 26.046875 13.890625 26.046875 L 25.796875 26.046875 C 26.164062 26.046875 26.457031 25.75 26.457031 25.386719 L 26.457031 18.109375 C 26.457031 17.742188 26.164062 17.449219 25.796875 17.449219 Z M 5.953125 17.449219 "/>
<path style=" stroke:none;fill-rule:nonzero;fill:rgb(61.176473%,80.000001%,39.607844%);fill-opacity:1;" d="M 7.605469 4.878906 L 24.144531 4.878906 C 24.324219 4.878906 24.472656 5.027344 24.472656 5.210938 C 24.472656 5.394531 24.324219 5.542969 24.144531 5.542969 L 7.605469 5.542969 C 7.425781 5.542969 7.277344 5.394531 7.277344 5.210938 C 7.277344 5.027344 7.425781 4.878906 7.605469 4.878906 Z M 7.605469 4.878906 "/>
<path style=" stroke:none;fill-rule:nonzero;fill:rgb(61.176473%,80.000001%,39.607844%);fill-opacity:1;" d="M 14.882812 8.1875 L 24.144531 8.1875 C 24.324219 8.1875 24.472656 8.28125 24.472656 8.398438 L 24.472656 8.636719 C 24.472656 8.753906 24.324219 8.847656 24.144531 8.847656 L 14.882812 8.847656 C 14.699219 8.847656 14.550781 8.753906 14.550781 8.636719 L 14.550781 8.398438 C 14.550781 8.28125 14.699219 8.1875 14.882812 8.1875 Z M 14.882812 8.1875 "/>
<path style=" stroke:none;fill-rule:nonzero;fill:rgb(61.176473%,80.000001%,39.607844%);fill-opacity:1;" d="M 7.605469 10.503906 L 15.542969 10.503906 C 15.726562 10.503906 15.875 10.652344 15.875 10.832031 C 15.875 11.015625 15.726562 11.164062 15.542969 11.164062 L 7.605469 11.164062 C 7.425781 11.164062 7.277344 11.015625 7.277344 10.832031 C 7.277344 10.652344 7.425781 10.503906 7.605469 10.503906 Z M 7.605469 10.503906 "/>
<path style=" stroke:none;fill-rule:nonzero;fill:rgb(61.176473%,80.000001%,39.607844%);fill-opacity:1;" d="M 20.8125 14.664062 L 17.375 16.648438 L 23.328125 26.960938 C 23.511719 27.277344 23.914062 27.386719 24.230469 27.203125 L 26.523438 25.878906 C 26.839844 25.699219 26.949219 25.292969 26.765625 24.976562 Z M 20.8125 14.664062 "/>
<path style=" stroke:none;fill-rule:nonzero;fill:rgb(25.882354%,25.882354%,25.882354%);fill-opacity:1;" d="M 17.375 16.648438 L 16.867188 13.125 L 18.011719 12.464844 L 20.8125 14.664062 Z M 17.375 16.648438 "/>
<path style=" stroke:none;fill-rule:nonzero;fill:rgb(61.176473%,80.000001%,39.607844%);fill-opacity:1;" d="M 16.867188 13.125 L 15.542969 10.832031 L 17.351562 11.316406 L 18.011719 12.464844 Z M 16.867188 13.125 "/>
</g>
</svg>
