<?xml version="1.0" encoding="UTF-8"?>
<svg xmlns="http://www.w3.org/2000/svg" xmlns:xlink="http://www.w3.org/1999/xlink" width="32px" height="32px" viewBox="0 0 32 32" version="1.1">
<g id="surface1">
<path style=" stroke:none;fill-rule:nonzero;fill:rgb(87.843138%,87.843138%,87.843138%);fill-opacity:1;" d="M 1.324219 9.511719 L 1.324219 29.480469 C 1.324219 30.144531 1.914062 30.675781 2.644531 30.675781 L 29.105469 30.675781 C 29.835938 30.675781 30.425781 30.144531 30.425781 29.480469 L 30.425781 9.511719 Z M 1.324219 9.511719 "/>
<path style=" stroke:none;fill-rule:nonzero;fill:rgb(92.54902%,25.098041%,47.843137%);fill-opacity:1;" d="M 2.644531 1.574219 C 1.914062 1.574219 1.324219 2.164062 1.324219 2.894531 L 1.324219 9.511719 L 30.425781 9.511719 L 30.425781 2.894531 C 30.425781 2.164062 29.835938 1.574219 29.105469 1.574219 Z M 2.644531 1.574219 "/>
<path style=" stroke:none;fill-rule:nonzero;fill:rgb(92.54902%,25.098041%,47.843137%);fill-opacity:1;" d="M 19.296875 10.734375 C 18.371094 10.792969 17.09375 11.269531 17.488281 10.832031 C 15.984375 11.503906 13.316406 12.445312 11.816406 13.851562 L 11.769531 13.535156 C 11.085938 14.359375 8.777344 15.996094 8.59375 17.0625 L 8.410156 17.109375 C 8.054688 17.710938 7.820312 18.398438 7.539062 19.019531 C 7.070312 19.816406 6.851562 19.328125 6.921875 19.449219 C 6 21.3125 5.542969 22.878906 5.152344 24.164062 C 5.433594 24.585938 5.15625 26.691406 5.265625 28.378906 C 5.222656 29.148438 5.238281 29.914062 5.304688 30.675781 L 7.222656 30.675781 C 6.707031 29.21875 7.253906 26.222656 7.375 24.484375 C 7.472656 23.679688 8.175781 22.820312 8.714844 21.476562 L 8.386719 21.417969 C 9.011719 20.332031 11.957031 17.039062 13.320312 17.207031 C 13.984375 16.378906 13.191406 17.207031 13.0625 16.996094 C 14.515625 15.492188 14.972656 15.9375 15.949219 15.664062 C 17.007812 15.035156 15.042969 15.910156 15.542969 15.425781 C 17.371094 14.960938 16.839844 14.367188 19.21875 14.128906 C 19.472656 14.269531 18.636719 14.351562 18.425781 14.535156 C 19.949219 13.792969 23.242188 13.960938 25.382812 14.949219 C 27.390625 15.886719 29.597656 18.308594 30.425781 20.90625 L 30.425781 14.394531 C 29.742188 13.796875 29.023438 13.292969 28.320312 12.914062 C 28.605469 13.175781 28.960938 13.5 28.832031 13.550781 C 27.683594 12.867188 27.886719 12.8125 27.71875 12.523438 C 26.785156 12.140625 26.722656 12.558594 26.101562 12.523438 C 24.335938 11.589844 24 11.6875 22.375 11.101562 L 22.449219 11.449219 C 21.28125 11.058594 21.085938 11.59375 19.824219 11.449219 C 19.75 11.390625 20.230469 11.230469 20.625 11.175781 C 19.496094 11.324219 19.550781 10.953125 18.441406 11.214844 C 18.714844 11.023438 19.003906 10.898438 19.296875 10.734375 Z M 20.203125 10.945312 C 20.53125 11.003906 20.90625 11.046875 20.851562 11.125 C 21.207031 11.046875 21.285156 10.976562 20.203125 10.945312 Z M 20.851562 11.125 L 20.625 11.175781 L 20.835938 11.152344 Z M 5.9375 18.304688 C 5.9375 18.328125 5.9375 18.339844 5.941406 18.355469 C 5.941406 18.339844 5.9375 18.324219 5.9375 18.304688 Z M 5.941406 18.355469 C 6.003906 19.191406 5.296875 19.511719 6.101562 18.945312 C 6.523438 18 5.992188 18.597656 5.941406 18.355469 Z M 21.851562 20.550781 C 21.789062 20.550781 21.722656 20.554688 21.65625 20.558594 C 19.863281 20.585938 18.1875 21.726562 17.628906 22.964844 C 16.710938 23.542969 16.601562 25.195312 16.199219 25.496094 C 15.882812 27.832031 16.292969 29.382812 17.21875 30.675781 L 18.59375 30.675781 C 17.757812 29.625 17.230469 28.296875 17.25 26.839844 C 17.214844 27.113281 17.148438 27.042969 17.074219 27.152344 C 16.898438 24.941406 18.09375 22.71875 20.109375 21.8125 C 22.085938 20.832031 24.398438 21.234375 25.808594 22.554688 C 25.070312 21.582031 23.632812 20.558594 21.914062 20.554688 C 21.894531 20.554688 21.871094 20.550781 21.851562 20.550781 Z M 5.265625 21.082031 C 4.742188 21.753906 5.023438 21.894531 4.96875 22.351562 C 5.160156 21.769531 5.191406 21.421875 5.265625 21.082031 Z M 26.867188 25.136719 C 26.792969 25.136719 26.699219 25.328125 26.648438 25.535156 C 26.761719 25.597656 26.847656 26.304688 26.960938 25.867188 C 26.996094 25.320312 26.945312 25.132812 26.867188 25.136719 Z M 26.472656 27.382812 C 26.394531 27.785156 26.175781 28.132812 25.972656 28.5 C 24.839844 29.210938 25.863281 28.078125 25.972656 27.644531 C 24.75 29.179688 25.804688 28.5625 25.757812 28.992188 C 26.121094 28.492188 26.382812 27.949219 26.476562 27.382812 Z M 30.425781 28.402344 C 30.40625 28.460938 30.382812 28.519531 30.363281 28.582031 L 29.839844 28.839844 C 29.410156 29.671875 29.878906 29.371094 29.574219 30.03125 C 29.378906 30.203125 29.125 30.433594 28.851562 30.675781 L 29.105469 30.675781 C 29.835938 30.675781 30.425781 30.144531 30.425781 29.480469 Z M 24.003906 29.726562 C 23.511719 29.847656 23.011719 29.847656 22.503906 29.800781 C 21.898438 29.808594 22.621094 30.113281 23.410156 30.238281 C 23.628906 30.0625 23.824219 29.894531 24.003906 29.726562 Z M 16.355469 29.804688 Z M 16.355469 29.804688 C 16.441406 30.117188 16.582031 30.402344 16.738281 30.675781 L 16.855469 30.675781 L 16.828125 30.597656 C 16.617188 30.363281 16.496094 30.082031 16.355469 29.804688 Z M 15.890625 30.632812 L 15.878906 30.675781 L 15.910156 30.675781 C 15.902344 30.664062 15.898438 30.648438 15.890625 30.632812 Z M 15.890625 30.632812 "/>
<path style=" stroke:none;fill-rule:nonzero;fill:rgb(67.843139%,7.843138%,34.117648%);fill-opacity:1;" d="M 14.914062 2.894531 C 14.78125 2.894531 14.671875 3.003906 14.671875 3.136719 L 14.671875 6.023438 L 13.230469 6.023438 L 15.875 8.1875 L 18.519531 6.023438 L 17.078125 6.023438 L 17.078125 3.136719 C 17.078125 3.003906 16.96875 2.894531 16.835938 2.894531 Z M 14.914062 2.894531 "/>
<path style=" stroke:none;fill-rule:nonzero;fill:rgb(84.705883%,10.588235%,37.64706%);fill-opacity:1;" d="M 1.324219 8.847656 L 30.425781 8.847656 L 30.425781 9.511719 L 1.324219 9.511719 Z M 1.324219 8.847656 "/>
</g>
</svg>
