<?xml version="1.0" encoding="UTF-8"?>
<svg xmlns="http://www.w3.org/2000/svg" xmlns:xlink="http://www.w3.org/1999/xlink" width="32px" height="32px" viewBox="0 0 32 32" version="1.1">
<g id="surface1">
<path style=" stroke:none;fill-rule:nonzero;fill:rgb(61.960787%,61.960787%,61.960787%);fill-opacity:1;" d="M 13.890625 26.707031 L 18.519531 26.707031 C 18.886719 26.707031 19.183594 27.003906 19.183594 27.371094 L 19.183594 29.355469 C 19.183594 29.71875 18.886719 30.015625 18.519531 30.015625 L 13.890625 30.015625 C 13.523438 30.015625 13.230469 29.71875 13.230469 29.355469 L 13.230469 27.371094 C 13.230469 27.003906 13.523438 26.707031 13.890625 26.707031 Z M 13.890625 26.707031 "/>
<path style=" stroke:none;fill-rule:nonzero;fill:rgb(93.725491%,32.549021%,31.37255%);fill-opacity:1;" d="M 2.644531 3.558594 L 29.105469 3.558594 C 29.835938 3.558594 30.425781 4.148438 30.425781 4.878906 L 30.425781 26.046875 C 30.425781 26.777344 29.835938 27.371094 29.105469 27.371094 L 2.644531 27.371094 C 1.914062 27.371094 1.324219 26.777344 1.324219 26.046875 L 1.324219 4.878906 C 1.324219 4.148438 1.914062 3.558594 2.644531 3.558594 Z M 2.644531 3.558594 "/>
<path style=" stroke:none;fill-rule:nonzero;fill:rgb(74.117649%,74.117649%,74.117649%);fill-opacity:1;" d="M 9.921875 28.691406 L 21.828125 28.691406 C 22.195312 28.691406 22.488281 28.988281 22.488281 29.355469 C 22.488281 29.71875 22.195312 30.015625 21.828125 30.015625 L 9.921875 30.015625 C 9.554688 30.015625 9.261719 29.71875 9.261719 29.355469 C 9.261719 28.988281 9.554688 28.691406 9.921875 28.691406 Z M 9.921875 28.691406 "/>
<path style=" stroke:none;fill-rule:nonzero;fill:rgb(74.117649%,74.117649%,74.117649%);fill-opacity:1;" d="M 2.644531 3.558594 C 1.914062 3.558594 1.324219 4.148438 1.324219 4.878906 L 30.425781 4.878906 C 30.425781 4.148438 29.835938 3.558594 29.105469 3.558594 Z M 1.324219 26.046875 C 1.324219 26.78125 1.914062 27.371094 2.644531 27.371094 L 29.105469 27.371094 C 29.835938 27.371094 30.425781 26.78125 30.425781 26.046875 Z M 1.324219 26.046875 "/>
<path style=" stroke:none;fill-rule:nonzero;fill:rgb(93.333334%,93.333334%,93.333334%);fill-opacity:1;" d="M 15.875 9.511719 C 12.945312 9.511719 10.582031 11.871094 10.582031 14.800781 C 10.582031 17.734375 12.945312 20.09375 15.875 20.09375 C 18.804688 20.09375 21.167969 17.734375 21.167969 14.800781 C 21.167969 11.871094 18.804688 9.511719 15.875 9.511719 Z M 15.875 11.496094 C 17.707031 11.496094 19.183594 12.96875 19.183594 14.800781 C 19.183594 16.632812 17.707031 18.109375 15.875 18.109375 C 14.042969 18.109375 12.566406 16.632812 12.566406 14.800781 C 12.566406 12.96875 14.042969 11.496094 15.875 11.496094 Z M 15.875 11.496094 "/>
<path style=" stroke:none;fill-rule:nonzero;fill:rgb(93.333334%,93.333334%,93.333334%);fill-opacity:1;" d="M 15.875 12.816406 C 16.972656 12.816406 17.859375 13.707031 17.859375 14.800781 C 17.859375 15.898438 16.972656 16.785156 15.875 16.785156 C 14.777344 16.785156 13.890625 15.898438 13.890625 14.800781 C 13.890625 13.707031 14.777344 12.816406 15.875 12.816406 Z M 15.875 12.816406 "/>
</g>
</svg>
