<?xml version="1.0" encoding="UTF-8"?>
<svg xmlns="http://www.w3.org/2000/svg" xmlns:xlink="http://www.w3.org/1999/xlink" width="32px" height="32px" viewBox="0 0 32 32" version="1.1">
<g id="surface1">
<path style=" stroke:none;fill-rule:nonzero;fill:rgb(100%,65.490198%,14.901961%);fill-opacity:1;" d="M 7.667969 1.566406 C 7.632812 1.566406 7.597656 1.566406 7.5625 1.574219 L 3.019531 1.574219 C 2.652344 1.574219 2.355469 1.867188 2.355469 2.234375 C 2.355469 2.601562 2.652344 2.894531 3.019531 2.894531 L 7.277344 2.894531 L 12.375 11.722656 C 12.554688 12.042969 12.960938 12.148438 13.277344 11.964844 C 13.59375 11.785156 13.703125 11.378906 13.519531 11.0625 L 8.226562 1.898438 C 8.105469 1.691406 7.890625 1.570312 7.667969 1.566406 Z M 7.667969 1.566406 "/>
<path style=" stroke:none;fill-rule:nonzero;fill:rgb(25.882354%,25.882354%,25.882354%);fill-opacity:1;" d="M 10.097656 23.636719 C 10.730469 24.003906 10.949219 24.8125 10.582031 25.445312 L 7.9375 30.027344 C 7.570312 30.660156 6.761719 30.878906 6.128906 30.511719 C 5.496094 30.144531 5.28125 29.335938 5.644531 28.703125 L 8.292969 24.121094 C 8.65625 23.488281 9.464844 23.273438 10.097656 23.636719 Z M 10.097656 23.636719 "/>
<path style=" stroke:none;fill-rule:nonzero;fill:rgb(25.882354%,25.882354%,25.882354%);fill-opacity:1;" d="M 21.652344 23.636719 C 21.019531 24.003906 20.800781 24.8125 21.167969 25.445312 L 23.8125 30.027344 C 24.179688 30.660156 24.988281 30.878906 25.621094 30.511719 C 26.253906 30.144531 26.46875 29.335938 26.105469 28.703125 L 23.457031 24.121094 C 23.09375 23.488281 22.285156 23.273438 21.652344 23.636719 Z M 21.652344 23.636719 "/>
<path style=" stroke:none;fill-rule:nonzero;fill:rgb(38.039216%,38.039216%,38.039216%);fill-opacity:1;" d="M 1.5625 10.832031 C 1.40625 11.691406 1.324219 12.574219 1.324219 13.480469 C 1.324219 21.539062 7.8125 28.03125 15.875 28.03125 C 23.9375 28.03125 30.425781 21.539062 30.425781 13.480469 C 30.425781 12.574219 30.34375 11.691406 30.1875 10.832031 Z M 1.5625 10.832031 "/>
<path style=" stroke:none;fill-rule:nonzero;fill:rgb(61.960787%,61.960787%,61.960787%);fill-opacity:1;" d="M 1.984375 8.847656 L 29.765625 8.847656 C 30.132812 8.847656 30.425781 9.144531 30.425781 9.511719 L 30.425781 10.832031 C 30.425781 11.199219 30.132812 11.496094 29.765625 11.496094 L 1.984375 11.496094 C 1.617188 11.496094 1.324219 11.199219 1.324219 10.832031 L 1.324219 9.511719 C 1.324219 9.144531 1.617188 8.847656 1.984375 8.847656 Z M 1.984375 8.847656 "/>
<path style=" stroke:none;fill-rule:nonzero;fill:rgb(100%,43.921569%,26.274511%);fill-opacity:1;" d="M 5.953125 24.0625 L 6.027344 24.210938 C 8.613281 26.585938 12.070312 28.03125 15.875 28.03125 C 18.671875 28.03125 21.277344 27.25 23.488281 25.894531 C 23.054688 25.699219 22.285156 25.386719 21.828125 25.386719 C 21.167969 25.386719 20.503906 25.386719 19.183594 26.046875 C 17.859375 26.707031 17.859375 26.046875 15.214844 25.386719 C 12.566406 24.722656 12.566406 26.046875 10.582031 26.046875 C 8.597656 26.046875 5.953125 24.0625 5.953125 24.0625 Z M 5.953125 24.0625 "/>
<path style=" stroke:none;fill-rule:nonzero;fill:rgb(74.117649%,74.117649%,74.117649%);fill-opacity:1;" d="M 3.566406 16.488281 C 3.855469 16.210938 4.359375 16.761719 4.691406 17.710938 C 5.023438 18.660156 5.058594 19.65625 4.769531 19.929688 C 4.484375 20.203125 3.980469 19.65625 3.648438 18.703125 C 3.316406 17.753906 3.277344 16.761719 3.566406 16.488281 Z M 3.566406 16.488281 "/>
<path style=" stroke:none;fill-rule:nonzero;fill:rgb(74.117649%,74.117649%,74.117649%);fill-opacity:1;" d="M 3.285156 13.207031 C 3.542969 13.066406 3.792969 13.550781 3.847656 14.285156 C 3.902344 15.023438 3.742188 15.730469 3.484375 15.871094 C 3.230469 16.011719 2.976562 15.527344 2.921875 14.792969 C 2.867188 14.054688 3.03125 13.34375 3.285156 13.207031 Z M 3.285156 13.207031 "/>
<path style=" stroke:none;fill-rule:nonzero;fill:rgb(93.725491%,32.549021%,31.37255%);fill-opacity:1;" d="M 13.890625 26.34375 C 12.59375 26.351562 12.222656 27.066406 10.933594 27.175781 C 12.472656 27.730469 14.136719 28.03125 15.875 28.03125 C 18.15625 28.03125 20.3125 27.511719 22.230469 26.582031 C 22.082031 26.550781 21.945312 26.53125 21.828125 26.53125 C 21.167969 26.53125 20.503906 26.53125 19.183594 27.191406 C 17.859375 27.851562 17.859375 27.191406 15.214844 26.53125 C 14.675781 26.394531 14.246094 26.34375 13.890625 26.34375 Z M 13.890625 26.34375 "/>
<path style=" stroke:none;fill-rule:nonzero;fill:rgb(64.705884%,83.92157%,65.490198%);fill-opacity:1;" d="M 15.542969 6.863281 C 15.910156 6.863281 16.207031 7.160156 16.207031 7.527344 C 16.207031 7.890625 15.910156 8.1875 15.542969 8.1875 C 15.179688 8.1875 14.882812 7.890625 14.882812 7.527344 C 14.882812 7.160156 15.179688 6.863281 15.542969 6.863281 Z M 15.542969 6.863281 "/>
<path style=" stroke:none;fill-rule:nonzero;fill:rgb(64.705884%,83.92157%,65.490198%);fill-opacity:1;" d="M 18.355469 4.878906 C 18.996094 4.878906 19.511719 5.398438 19.511719 6.039062 C 19.511719 6.675781 18.996094 7.195312 18.355469 7.195312 C 17.714844 7.195312 17.199219 6.675781 17.199219 6.039062 C 17.199219 5.398438 17.714844 4.878906 18.355469 4.878906 Z M 18.355469 4.878906 "/>
<path style=" stroke:none;fill-rule:nonzero;fill:rgb(64.705884%,83.92157%,65.490198%);fill-opacity:1;" d="M 15.046875 2.566406 C 15.871094 2.566406 16.535156 3.230469 16.535156 4.054688 C 16.535156 4.875 15.871094 5.542969 15.046875 5.542969 C 14.226562 5.542969 13.558594 4.875 13.558594 4.054688 C 13.558594 3.230469 14.226562 2.566406 15.046875 2.566406 Z M 15.046875 2.566406 "/>
<path style=" stroke:none;fill-rule:nonzero;fill:rgb(45.882353%,45.882353%,45.882353%);fill-opacity:1;" d="M 1.984375 8.847656 C 1.617188 8.847656 1.324219 9.144531 1.324219 9.511719 L 1.324219 9.839844 L 30.425781 9.839844 L 30.425781 9.511719 C 30.425781 9.144531 30.132812 8.847656 29.765625 8.847656 Z M 1.984375 8.847656 "/>
</g>
</svg>
