<?xml version="1.0" encoding="UTF-8"?>
<svg xmlns="http://www.w3.org/2000/svg" xmlns:xlink="http://www.w3.org/1999/xlink" width="32px" height="32px" viewBox="0 0 32 32" version="1.1">
<g id="surface1">
<path style=" stroke:none;fill-rule:nonzero;fill:rgb(25.882354%,25.882354%,25.882354%);fill-opacity:1;" d="M 15.875 1.574219 C 23.910156 1.574219 30.425781 8.089844 30.425781 16.125 C 30.425781 24.160156 23.910156 30.675781 15.875 30.675781 C 7.839844 30.675781 1.324219 24.160156 1.324219 16.125 C 1.324219 8.089844 7.839844 1.574219 15.875 1.574219 Z M 15.875 1.574219 "/>
<path style=" stroke:none;fill-rule:nonzero;fill:rgb(93.333334%,93.333334%,93.333334%);fill-opacity:1;" d="M 15.214844 6.203125 C 14.847656 6.203125 14.550781 6.5 14.550781 6.863281 L 14.550781 14.304688 L 7.476562 12.003906 C 7.128906 11.890625 6.757812 12.082031 6.644531 12.429688 L 6.234375 13.6875 C 6.121094 14.035156 6.308594 14.410156 6.660156 14.523438 L 13.734375 16.820312 L 9.363281 22.839844 C 9.144531 23.136719 9.210938 23.546875 9.507812 23.761719 L 10.578125 24.539062 C 10.875 24.757812 11.285156 24.691406 11.503906 24.394531 L 15.875 18.375 L 20.246094 24.394531 C 20.464844 24.691406 20.875 24.757812 21.171875 24.539062 L 22.242188 23.761719 C 22.539062 23.546875 22.605469 23.136719 22.386719 22.839844 L 18.015625 16.820312 L 25.089844 14.523438 C 25.441406 14.410156 25.628906 14.035156 25.515625 13.6875 L 25.105469 12.429688 C 24.992188 12.082031 24.621094 11.890625 24.273438 12.003906 L 17.199219 14.304688 L 17.199219 6.863281 C 17.199219 6.5 16.902344 6.203125 16.535156 6.203125 Z M 15.875 16.125 Z M 15.875 16.125 "/>
</g>
</svg>
