
<svg xmlns="http://www.w3.org/2000/svg" xmlns:xlink="http://www.w3.org/1999/xlink" width="32px" height="32px" viewBox="0 0 32 32" version="1.1">
<g id="surface1">
<path style=" stroke:none;fill-rule:nonzero;fill:rgb(89.803922%,45.09804%,45.09804%);fill-opacity:1;" d="M 1.324219 3.636719 L 1.324219 6.945312 L 11.90625 6.945312 L 11.90625 3.636719 L 6.613281 1.324219 Z M 1.324219 3.636719 "/>
<path style=" stroke:none;fill-rule:nonzero;fill:rgb(89.803922%,22.352941%,20.784314%);fill-opacity:1;" d="M 11.90625 3.625 L 11.90625 9.25 L 6.613281 11.90625 L 5.457031 11.246094 L 5.621094 6.117188 L 6.613281 6.28125 Z M 11.90625 3.625 "/>
<path style=" stroke:none;fill-rule:nonzero;fill:rgb(93.725491%,32.549021%,31.37255%);fill-opacity:1;" d="M 1.324219 3.625 L 1.324219 9.25 L 6.613281 11.90625 L 6.613281 6.28125 Z M 1.324219 3.625 "/>
<path style=" stroke:none;fill-rule:nonzero;fill:rgb(100%,71.764708%,30.19608%);fill-opacity:1;" d="M 19.84375 3.636719 L 19.84375 6.945312 L 30.425781 6.945312 L 30.425781 3.636719 L 25.136719 1.324219 Z M 19.84375 3.636719 "/>
<path style=" stroke:none;fill-rule:nonzero;fill:rgb(98.431373%,54.901963%,0%);fill-opacity:1;" d="M 30.425781 3.625 L 30.425781 9.25 L 25.136719 11.90625 L 23.976562 11.246094 L 24.144531 6.117188 L 25.136719 6.28125 Z M 30.425781 3.625 "/>
<path style=" stroke:none;fill-rule:nonzero;fill:rgb(100%,65.490198%,14.901961%);fill-opacity:1;" d="M 19.84375 3.625 L 19.84375 9.25 L 25.136719 11.90625 L 25.136719 6.28125 Z M 19.84375 3.625 "/>
<path style=" stroke:none;fill-rule:nonzero;fill:rgb(72.941178%,40.784314%,78.431374%);fill-opacity:1;" d="M 1.324219 22.160156 L 1.324219 25.464844 L 11.90625 25.464844 L 11.90625 22.160156 L 6.613281 19.84375 Z M 1.324219 22.160156 "/>
<path style=" stroke:none;fill-rule:nonzero;fill:rgb(55.686277%,14.117648%,66.666669%);fill-opacity:1;" d="M 11.90625 22.144531 L 11.90625 27.769531 L 6.613281 30.425781 L 5.457031 29.765625 L 5.621094 24.640625 L 6.613281 24.800781 Z M 11.90625 22.144531 "/>
<path style=" stroke:none;fill-rule:nonzero;fill:rgb(67.058825%,27.843139%,73.725492%);fill-opacity:1;" d="M 1.324219 22.144531 L 1.324219 27.769531 L 6.613281 30.425781 L 6.613281 24.800781 Z M 1.324219 22.144531 "/>
<path style=" stroke:none;fill-rule:nonzero;fill:rgb(89.803922%,45.09804%,45.09804%);fill-opacity:1;" d="M 19.84375 22.160156 L 19.84375 25.464844 L 30.425781 25.464844 L 30.425781 22.160156 L 25.136719 19.84375 Z M 19.84375 22.160156 "/>
<path style=" stroke:none;fill-rule:nonzero;fill:rgb(89.803922%,22.352941%,20.784314%);fill-opacity:1;" d="M 30.425781 22.144531 L 30.425781 27.769531 L 25.136719 30.425781 L 23.976562 29.765625 L 24.144531 24.640625 L 25.136719 24.800781 Z M 30.425781 22.144531 "/>
<path style=" stroke:none;fill-rule:nonzero;fill:rgb(93.725491%,32.549021%,31.37255%);fill-opacity:1;" d="M 19.84375 22.144531 L 19.84375 27.769531 L 25.136719 30.425781 L 25.136719 24.800781 Z M 19.84375 22.144531 "/>
<path style=" stroke:none;fill-rule:nonzero;fill:rgb(50.588238%,78.039217%,51.764709%);fill-opacity:1;" d="M 19.84375 22.160156 L 19.84375 25.464844 L 30.425781 25.464844 L 30.425781 22.160156 L 25.136719 19.84375 Z M 19.84375 22.160156 "/>
<path style=" stroke:none;fill-rule:nonzero;fill:rgb(26.274511%,62.7451%,27.843139%);fill-opacity:1;" d="M 30.425781 22.144531 L 30.425781 27.769531 L 25.136719 30.425781 L 23.976562 29.765625 L 24.144531 24.640625 L 25.136719 24.800781 Z M 30.425781 22.144531 "/>
<path style=" stroke:none;fill-rule:nonzero;fill:rgb(40.000001%,73.333335%,41.568628%);fill-opacity:1;" d="M 19.84375 22.144531 L 19.84375 27.769531 L 25.136719 30.425781 L 25.136719 24.800781 Z M 19.84375 22.144531 "/>
<path style=" stroke:none;fill-rule:nonzero;fill:rgb(100%,54.11765%,39.607844%);fill-opacity:1;" d="M 10.582031 12.898438 L 10.582031 16.207031 L 21.167969 16.207031 L 21.167969 12.898438 L 15.875 10.582031 Z M 10.582031 12.898438 "/>
<path style=" stroke:none;fill-rule:nonzero;fill:rgb(95.686275%,31.764707%,11.764706%);fill-opacity:1;" d="M 21.167969 12.882812 L 21.167969 18.511719 L 15.875 21.167969 L 14.71875 20.503906 L 14.882812 15.378906 L 15.875 15.542969 Z M 21.167969 12.882812 "/>
<path style=" stroke:none;fill-rule:nonzero;fill:rgb(100%,43.921569%,26.274511%);fill-opacity:1;" d="M 10.582031 12.882812 L 10.582031 18.511719 L 15.875 21.167969 L 15.875 15.542969 Z M 10.582031 12.882812 "/>
</g>
</svg>
