
<svg xmlns="http://www.w3.org/2000/svg" xmlns:xlink="http://www.w3.org/1999/xlink" width="32px" height="32px" viewBox="0 0 32 32" version="1.1">
<g id="surface1">
<path style=" stroke:none;fill-rule:nonzero;fill:rgb(25.882354%,25.882354%,25.882354%);fill-opacity:1;" d="M 21.007812 1.417969 C 20.867188 1.417969 20.730469 1.445312 20.597656 1.492188 C 20.488281 1.535156 20.386719 1.582031 20.285156 1.628906 C 19.964844 1.519531 19.613281 1.558594 19.324219 1.726562 C 19.28125 1.753906 19.238281 1.78125 19.195312 1.804688 C 18.847656 1.734375 18.484375 1.820312 18.210938 2.046875 C 18.101562 2.136719 18.003906 2.226562 17.914062 2.316406 C 17.605469 2.3125 17.308594 2.433594 17.085938 2.652344 C 16.71875 3.015625 16.34375 3.480469 16.042969 4.039062 C 15.746094 3.480469 15.371094 3.015625 15 2.652344 C 14.78125 2.433594 14.480469 2.3125 14.171875 2.316406 C 14.082031 2.226562 13.984375 2.136719 13.875 2.046875 C 13.601562 1.820312 13.238281 1.734375 12.890625 1.804688 C 12.851562 1.78125 12.808594 1.753906 12.765625 1.726562 C 12.472656 1.558594 12.121094 1.519531 11.800781 1.628906 C 11.703125 1.582031 11.597656 1.535156 11.488281 1.492188 C 11.167969 1.371094 10.8125 1.398438 10.515625 1.5625 C 10.414062 1.535156 10.304688 1.511719 10.191406 1.488281 C 9.867188 1.425781 9.53125 1.503906 9.265625 1.707031 C 9.253906 1.703125 9.242188 1.699219 9.226562 1.699219 C 8.894531 1.652344 8.5625 1.753906 8.308594 1.972656 C 8.078125 1.972656 7.828125 2 7.566406 2.070312 C 7.355469 2.128906 7.164062 2.246094 7.015625 2.40625 C 6.976562 2.40625 6.941406 2.40625 6.902344 2.40625 C 6.082031 2.421875 5.535156 3.257812 5.847656 4.015625 C 5.667969 4.339844 5.65625 4.726562 5.808594 5.0625 C 5.839844 5.132812 5.878906 5.199219 5.914062 5.265625 C 5.863281 5.507812 5.894531 5.761719 6 5.988281 C 6.074219 6.140625 6.152344 6.269531 6.230469 6.386719 C 6.203125 6.714844 6.308594 7.039062 6.53125 7.28125 C 6.582031 7.339844 6.640625 7.394531 6.695312 7.449219 C 6.707031 7.742188 6.828125 8.019531 7.03125 8.226562 C 7.167969 8.363281 7.308594 8.480469 7.441406 8.582031 C 7.5 8.820312 7.632812 9.035156 7.820312 9.191406 C 8.039062 9.378906 8.253906 9.507812 8.457031 9.605469 C 8.550781 9.789062 8.6875 9.941406 8.859375 10.054688 C 8.664062 10.195312 8.476562 10.351562 8.304688 10.523438 C 7.417969 11.417969 6.933594 12.71875 6.976562 14.179688 C 6.976562 14.199219 6.976562 14.21875 6.980469 14.234375 C 6.980469 14.273438 6.988281 14.316406 6.996094 14.359375 C 5.585938 15.253906 4.929688 16.726562 4.886719 18.0625 C 4.84375 19.445312 5.3125 20.753906 6.328125 21.582031 C 6.40625 21.648438 6.492188 21.703125 6.585938 21.742188 C 6.589844 21.742188 6.589844 21.746094 6.589844 21.746094 C 6.5625 21.96875 6.550781 22.195312 6.550781 22.421875 C 6.558594 23.265625 6.789062 24.195312 7.292969 25.113281 C 7.3125 25.148438 7.332031 25.179688 7.355469 25.210938 C 8.101562 26.300781 9.054688 26.972656 9.988281 27.269531 C 10.605469 27.464844 11.207031 27.527344 11.765625 27.410156 L 11.765625 27.335938 C 11.765625 27.339844 11.765625 27.34375 11.765625 27.347656 C 11.765625 27.367188 11.765625 27.386719 11.765625 27.410156 C 11.765625 27.410156 11.769531 27.410156 11.769531 27.410156 C 11.757812 28.113281 12.054688 28.34375 12.296875 28.628906 C 12.546875 28.921875 12.851562 29.191406 13.21875 29.441406 C 13.941406 29.933594 14.898438 30.367188 16.019531 30.328125 C 17.121094 30.339844 18.0625 29.894531 18.789062 29.371094 C 19.15625 29.109375 19.464844 28.820312 19.71875 28.496094 C 19.925781 28.230469 20.144531 27.957031 20.203125 27.503906 C 20.691406 27.589844 21.21875 27.542969 21.753906 27.398438 C 22.734375 27.136719 23.75 26.472656 24.558594 25.34375 C 25.273438 24.40625 25.453125 23.300781 25.414062 22.339844 C 25.40625 22.066406 25.386719 21.808594 25.351562 21.558594 C 25.375 21.539062 25.398438 21.523438 25.421875 21.503906 C 26.4375 20.675781 26.90625 19.367188 26.863281 17.984375 C 26.820312 16.652344 26.167969 15.183594 24.761719 14.289062 C 24.761719 14.277344 24.765625 14.269531 24.765625 14.257812 C 24.808594 12.796875 24.320312 11.496094 23.433594 10.601562 C 23.289062 10.453125 23.128906 10.320312 22.964844 10.195312 C 23.03125 10.164062 23.101562 10.128906 23.167969 10.089844 C 23.367188 9.976562 23.527344 9.808594 23.628906 9.605469 C 23.835938 9.507812 24.050781 9.378906 24.269531 9.191406 C 24.453125 9.035156 24.585938 8.820312 24.644531 8.582031 C 24.78125 8.480469 24.917969 8.363281 25.054688 8.226562 C 25.261719 8.019531 25.378906 7.742188 25.390625 7.449219 C 25.445312 7.394531 25.503906 7.339844 25.558594 7.28125 C 25.777344 7.039062 25.886719 6.714844 25.855469 6.386719 C 25.9375 6.269531 26.015625 6.140625 26.085938 5.988281 C 26.191406 5.761719 26.222656 5.507812 26.171875 5.265625 C 26.210938 5.199219 26.246094 5.132812 26.277344 5.0625 C 26.433594 4.726562 26.417969 4.339844 26.242188 4.015625 C 26.554688 3.257812 26.003906 2.421875 25.183594 2.40625 C 25.148438 2.40625 25.109375 2.40625 25.070312 2.40625 C 24.921875 2.246094 24.730469 2.128906 24.519531 2.070312 C 24.257812 2 24.011719 1.972656 23.78125 1.972656 C 23.527344 1.753906 23.191406 1.652344 22.859375 1.699219 C 22.847656 1.699219 22.832031 1.703125 22.820312 1.707031 C 22.554688 1.503906 22.21875 1.425781 21.894531 1.488281 C 21.78125 1.511719 21.675781 1.535156 21.574219 1.5625 C 21.398438 1.46875 21.203125 1.417969 21.007812 1.417969 Z M 16.042969 7.660156 C 16.285156 7.960938 16.59375 8.21875 16.953125 8.410156 C 16.992188 8.53125 17.035156 8.644531 17.085938 8.753906 C 16.734375 8.664062 16.367188 8.617188 15.992188 8.621094 L 16.035156 8.621094 C 16.003906 8.621094 15.96875 8.621094 15.9375 8.621094 C 15.617188 8.617188 15.308594 8.660156 15.015625 8.722656 C 15.0625 8.625 15.101562 8.519531 15.136719 8.410156 C 15.492188 8.21875 15.804688 7.960938 16.042969 7.660156 Z M 20.222656 27.171875 L 20.222656 27.207031 C 20.222656 27.203125 20.222656 27.199219 20.222656 27.195312 C 20.222656 27.1875 20.222656 27.179688 20.222656 27.171875 Z M 20.222656 27.171875 "/>
<path style=" stroke:none;fill-rule:nonzero;fill:rgb(61.176473%,80.000001%,39.607844%);fill-opacity:1;" d="M 9.070312 4.484375 C 11.699219 5.863281 13.226562 6.976562 14.0625 7.925781 C 13.636719 9.675781 11.398438 9.753906 10.582031 9.707031 C 10.75 9.628906 10.886719 9.53125 10.9375 9.386719 C 10.734375 9.238281 10.003906 9.371094 9.496094 9.082031 C 9.691406 9.039062 9.785156 9 9.875 8.851562 C 9.394531 8.695312 8.878906 8.5625 8.574219 8.304688 C 8.738281 8.304688 8.890625 8.34375 9.105469 8.191406 C 8.675781 7.953125 8.214844 7.769531 7.859375 7.40625 C 8.082031 7.402344 8.324219 7.40625 8.390625 7.324219 C 8 7.074219 7.667969 6.796875 7.390625 6.496094 C 7.703125 6.535156 7.835938 6.5 7.910156 6.445312 C 7.613281 6.136719 7.234375 5.875 7.054688 5.492188 C 7.285156 5.574219 7.5 5.605469 7.652344 5.488281 C 7.550781 5.253906 7.117188 5.117188 6.867188 4.574219 C 7.109375 4.601562 7.367188 4.628906 7.417969 4.574219 C 7.308594 4.109375 7.113281 3.84375 6.921875 3.574219 C 7.445312 3.5625 8.230469 3.574219 8.195312 3.53125 L 7.875 3.195312 C 8.382812 3.054688 8.902344 3.21875 9.28125 3.335938 C 9.449219 3.203125 9.277344 3.027344 9.070312 2.851562 C 9.503906 2.914062 9.890625 3.011719 10.246094 3.152344 C 10.433594 2.980469 10.121094 2.804688 9.972656 2.632812 C 10.640625 2.761719 10.921875 2.941406 11.203125 3.125 C 11.40625 2.925781 11.214844 2.757812 11.078125 2.582031 C 11.582031 2.773438 11.839844 3.015625 12.113281 3.257812 C 12.203125 3.132812 12.347656 3.039062 12.175781 2.730469 C 12.53125 2.941406 12.800781 3.1875 13 3.464844 C 13.222656 3.320312 13.132812 3.125 13.132812 2.945312 C 13.503906 3.253906 13.742188 3.582031 14.027344 3.898438 C 14.085938 3.855469 14.136719 3.710938 14.183594 3.480469 C 15.070312 4.355469 16.320312 6.554688 14.503906 7.429688 C 12.960938 6.132812 11.113281 5.191406 9.070312 4.484375 Z M 9.070312 4.484375 "/>
<path style=" stroke:none;fill-rule:nonzero;fill:rgb(61.176473%,80.000001%,39.607844%);fill-opacity:1;" d="M 23.015625 4.484375 C 20.390625 5.863281 18.859375 6.976562 18.023438 7.925781 C 18.453125 9.675781 20.6875 9.753906 21.507812 9.707031 C 21.339844 9.628906 21.199219 9.53125 21.148438 9.386719 C 21.355469 9.238281 22.082031 9.371094 22.589844 9.082031 C 22.394531 9.039062 22.304688 9 22.214844 8.851562 C 22.691406 8.695312 23.210938 8.5625 23.515625 8.304688 C 23.351562 8.304688 23.195312 8.34375 22.980469 8.191406 C 23.414062 7.953125 23.871094 7.769531 24.226562 7.40625 C 24.003906 7.402344 23.765625 7.40625 23.695312 7.324219 C 24.089844 7.074219 24.421875 6.796875 24.695312 6.496094 C 24.386719 6.535156 24.253906 6.5 24.179688 6.445312 C 24.476562 6.136719 24.851562 5.875 25.03125 5.492188 C 24.800781 5.574219 24.589844 5.605469 24.4375 5.488281 C 24.539062 5.253906 24.972656 5.117188 25.21875 4.574219 C 24.976562 4.601562 24.71875 4.628906 24.667969 4.574219 C 24.78125 4.109375 24.972656 3.84375 25.164062 3.574219 C 24.644531 3.5625 23.855469 3.574219 23.890625 3.53125 L 24.214844 3.195312 C 23.703125 3.054688 23.183594 3.21875 22.808594 3.335938 C 22.636719 3.203125 22.808594 3.027344 23.015625 2.851562 C 22.585938 2.914062 22.195312 3.011719 21.84375 3.152344 C 21.652344 2.980469 21.964844 2.804688 22.113281 2.632812 C 21.449219 2.761719 21.164062 2.941406 20.882812 3.125 C 20.679688 2.925781 20.875 2.757812 21.011719 2.582031 C 20.507812 2.773438 20.246094 3.015625 19.976562 3.257812 C 19.882812 3.132812 19.738281 3.039062 19.910156 2.730469 C 19.554688 2.941406 19.285156 3.1875 19.085938 3.464844 C 18.867188 3.320312 18.953125 3.125 18.953125 2.945312 C 18.582031 3.253906 18.347656 3.582031 18.058594 3.898438 C 18 3.855469 17.949219 3.710938 17.90625 3.480469 C 17.019531 4.355469 15.769531 6.554688 17.582031 7.429688 C 19.128906 6.132812 20.972656 5.191406 23.015625 4.484375 Z M 23.015625 4.484375 "/>
<path style=" stroke:none;fill-rule:nonzero;fill:rgb(92.54902%,25.098041%,47.843137%);fill-opacity:1;" d="M 15.9375 9.785156 C 14.507812 9.78125 13.160156 10.890625 13.15625 11.539062 C 13.152344 12.339844 14.304688 13.15625 16.011719 13.175781 C 17.757812 13.191406 18.871094 12.523438 18.878906 11.695312 C 18.886719 10.761719 17.289062 9.769531 16.003906 9.785156 C 15.980469 9.785156 15.957031 9.785156 15.9375 9.785156 Z M 11.730469 10.339844 C 9.664062 10.328125 8.066406 11.757812 8.140625 14.144531 C 8.21875 15.171875 13.40625 10.5625 12.511719 10.410156 C 12.246094 10.367188 11.984375 10.34375 11.730469 10.339844 Z M 20.007812 10.417969 C 19.753906 10.421875 19.492188 10.445312 19.226562 10.488281 C 18.332031 10.644531 23.519531 15.253906 23.601562 14.222656 C 23.671875 11.835938 22.074219 10.40625 20.007812 10.417969 Z M 19.144531 13.28125 C 18.644531 13.28125 18.167969 13.421875 17.765625 13.691406 C 16.460938 14.558594 16.226562 16.53125 17.242188 18.09375 C 18.257812 19.65625 20.136719 20.21875 21.441406 19.347656 C 22.519531 18.632812 22.894531 17.132812 22.355469 15.703125 C 21.8125 14.273438 20.496094 13.277344 19.144531 13.28125 Z M 12.878906 13.4375 C 11.53125 13.4375 10.210938 14.433594 9.671875 15.859375 C 9.128906 17.289062 9.503906 18.789062 10.582031 19.503906 C 11.886719 20.375 13.765625 19.8125 14.78125 18.25 C 15.796875 16.6875 15.5625 14.71875 14.257812 13.847656 C 13.855469 13.578125 13.378906 13.4375 12.878906 13.4375 Z M 23.886719 15.175781 C 22.664062 15.195312 23.574219 21.105469 24.683594 20.601562 C 25.945312 19.570312 26.351562 16.550781 24.011719 15.191406 C 23.96875 15.179688 23.929688 15.175781 23.886719 15.175781 Z M 7.863281 15.253906 C 7.820312 15.253906 7.78125 15.257812 7.738281 15.269531 C 5.398438 16.628906 5.804688 19.648438 7.066406 20.683594 C 8.175781 21.183594 9.085938 15.273438 7.863281 15.253906 Z M 16.078125 19.332031 C 14.339844 19.332031 12.929688 20.65625 12.929688 22.289062 C 12.929688 23.34375 13.527344 24.320312 14.503906 24.847656 C 15.476562 25.378906 16.679688 25.378906 17.652344 24.847656 C 18.628906 24.320312 19.226562 23.34375 19.226562 22.289062 C 19.226562 20.65625 17.816406 19.332031 16.078125 19.332031 Z M 23.082031 20.433594 C 22.335938 20.421875 21.4375 21.144531 20.582031 22.125 C 19.609375 23.285156 19.066406 25.402344 19.777344 26.085938 C 20.457031 26.617188 22.28125 26.542969 23.628906 24.640625 C 24.609375 23.363281 24.28125 21.226562 23.722656 20.660156 C 23.527344 20.507812 23.3125 20.4375 23.082031 20.433594 Z M 8.855469 20.886719 C 8.609375 20.882812 8.378906 20.9375 8.175781 21.066406 C 7.59375 21.515625 7.488281 23.046875 8.316406 24.554688 C 9.542969 26.347656 11.269531 26.527344 11.980469 26.089844 C 12.730469 25.519531 12.320312 23.578125 11.421875 22.472656 C 10.628906 21.539062 9.65625 20.894531 8.855469 20.886719 Z M 16.332031 26.171875 C 16.253906 26.171875 16.171875 26.171875 16.09375 26.175781 C 14.835938 26.144531 12.90625 26.6875 12.929688 27.386719 C 12.910156 27.859375 14.445312 29.234375 16.007812 29.164062 C 17.519531 29.191406 19.078125 27.820312 19.058594 27.214844 C 19.054688 26.628906 17.5625 26.179688 16.332031 26.171875 Z M 16.332031 26.171875 "/>
</g>
</svg>
