
<svg xmlns="http://www.w3.org/2000/svg" xmlns:xlink="http://www.w3.org/1999/xlink" width="32px" height="32px" viewBox="0 0 32 32" version="1.1">
<g id="surface1">
<path style=" stroke:none;fill-rule:nonzero;fill:rgb(74.117649%,74.117649%,74.117649%);fill-opacity:1;" d="M 15.875 1.324219 C 23.910156 1.324219 30.425781 7.839844 30.425781 15.875 C 30.425781 23.910156 23.910156 30.425781 15.875 30.425781 C 7.839844 30.425781 1.324219 23.910156 1.324219 15.875 C 1.324219 7.839844 7.839844 1.324219 15.875 1.324219 Z M 15.875 1.324219 "/>
<path style=" stroke:none;fill-rule:nonzero;fill:rgb(100%,43.921569%,26.274511%);fill-opacity:1;" d="M 15.875 2.644531 C 23.179688 2.644531 29.105469 8.570312 29.105469 15.875 C 29.105469 23.179688 23.179688 29.105469 15.875 29.105469 C 8.570312 29.105469 2.644531 23.179688 2.644531 15.875 C 2.644531 8.570312 8.570312 2.644531 15.875 2.644531 Z M 15.875 2.644531 "/>
<path style=" stroke:none;fill-rule:nonzero;fill:rgb(93.333334%,93.333334%,93.333334%);fill-opacity:1;" d="M 15.875 3.96875 C 22.449219 3.96875 27.78125 9.300781 27.78125 15.875 C 27.78125 22.449219 22.449219 27.78125 15.875 27.78125 C 9.300781 27.78125 3.96875 22.449219 3.96875 15.875 C 3.96875 9.300781 9.300781 3.96875 15.875 3.96875 Z M 15.875 3.96875 "/>
<path style=" stroke:none;fill-rule:nonzero;fill:rgb(48.627451%,70.19608%,25.882354%);fill-opacity:1;" d="M 28.0625 28.855469 C 25.222656 26.425781 24.15625 24.96875 21.148438 22.742188 C 20.625 22.523438 20.53125 23.058594 19.898438 23.425781 C 17.460938 24.84375 17 25.101562 15.800781 25.101562 C 14.777344 25.101562 14.484375 25.023438 13.46875 24.488281 C 12.828125 24.148438 12.191406 23.714844 12.058594 23.523438 C 11.25 22.363281 10.957031 21.878906 10.40625 20.796875 C 10.070312 20.136719 9.558594 19.023438 9.507812 18.625 C 9.457031 18.230469 9.285156 17.636719 9.121094 17.3125 C 8.960938 16.988281 8.625 15.933594 8.382812 14.964844 C 8.03125 13.582031 7.957031 12.71875 8.039062 11.921875 C 8.171875 10.640625 7.976562 10.152344 6.980469 9.160156 C 6.050781 8.234375 3.328125 4.648438 2.863281 3.613281 C 2.464844 2.726562 2.695312 2.265625 3.160156 3.027344 C 4.601562 5.398438 7.035156 8.234375 8.222656 8.933594 C 8.921875 9.347656 8.984375 9.359375 10.09375 9.160156 C 12.054688 8.808594 15.367188 9.199219 16.402344 9.90625 C 16.75 10.144531 17.136719 10.34375 17.253906 10.34375 C 17.375 10.34375 17.898438 10.492188 18.421875 10.675781 C 18.941406 10.863281 19.550781 11.011719 19.769531 11.011719 C 20.363281 11.011719 21.664062 11.316406 21.953125 11.792969 C 22.09375 12.023438 22.578125 12.457031 23.027344 12.753906 C 23.6875 13.191406 23.964844 13.535156 24.46875 14.554688 C 25.179688 15.976562 25.21875 16.449219 24.847656 17.707031 C 24.648438 18.386719 24.363281 18.828125 23.6875 19.496094 C 22.515625 20.664062 21.898438 21.285156 22.574219 22.265625 C 23.363281 23.410156 25.089844 25.011719 27.753906 27.375 C 29.128906 28.597656 30.296875 29.707031 30.347656 29.847656 C 30.746094 30.886719 29.894531 30.519531 28.0625 28.855469 Z M 28.0625 28.855469 "/>
</g>
</svg>
