<?xml version="1.0" encoding="UTF-8"?>
<svg xmlns="http://www.w3.org/2000/svg" xmlns:xlink="http://www.w3.org/1999/xlink" width="32px" height="32px" viewBox="0 0 32 32" version="1.1">
<g id="surface1">
<path style=" stroke:none;fill-rule:nonzero;fill:rgb(16.078432%,71.372551%,96.470588%);fill-opacity:1;" d="M 10.261719 4.226562 C 5.378906 4.226562 1.445312 8.160156 1.445312 13.042969 C 1.445312 20.257812 11.867188 25.070312 15.875 30.679688 C 19.882812 25.070312 30.304688 20.257812 30.304688 13.042969 C 30.304688 8.160156 26.371094 4.226562 21.488281 4.226562 C 19.351562 4.226562 17.398438 4.976562 15.875 6.230469 C 14.351562 4.976562 12.398438 4.226562 10.261719 4.226562 Z M 10.261719 4.226562 "/>
<path style=" stroke:none;fill-rule:nonzero;fill:rgb(30.980393%,76.47059%,96.862745%);fill-opacity:1;" d="M 11.242188 6.53125 C 11.039062 6.53125 10.839844 6.539062 10.640625 6.554688 L 5.246094 9.671875 C 5 10.027344 4.785156 10.40625 4.605469 10.804688 L 11.949219 6.566406 C 11.714844 6.542969 11.480469 6.53125 11.242188 6.53125 Z M 21.210938 6.566406 L 4.445312 16.242188 C 4.527344 16.449219 4.617188 16.652344 4.714844 16.851562 L 22.234375 6.734375 C 21.902344 6.65625 21.558594 6.597656 21.210938 6.566406 Z M 14.582031 7.335938 L 3.96875 13.464844 C 3.964844 13.578125 3.960938 13.695312 3.960938 13.8125 C 3.960938 13.949219 3.964844 14.085938 3.976562 14.222656 L 15.238281 7.71875 C 15.027344 7.582031 14.808594 7.453125 14.582031 7.335938 Z M 24.503906 7.71875 L 5.773438 18.53125 C 5.90625 18.707031 6.042969 18.882812 6.1875 19.054688 L 25.089844 8.144531 C 24.902344 7.992188 24.707031 7.851562 24.503906 7.71875 Z M 26.476562 9.632812 L 7.570312 20.550781 C 7.734375 20.710938 7.898438 20.867188 8.066406 21.027344 L 26.832031 10.191406 C 26.722656 10 26.605469 9.8125 26.476562 9.632812 Z M 27.578125 12.054688 L 9.621094 22.421875 C 9.796875 22.574219 9.972656 22.726562 10.152344 22.878906 L 27.710938 12.738281 C 27.675781 12.507812 27.632812 12.277344 27.578125 12.054688 Z M 27.664062 15.058594 L 11.757812 24.242188 C 11.9375 24.394531 12.117188 24.546875 12.292969 24.699219 L 27.410156 15.96875 C 27.515625 15.671875 27.597656 15.367188 27.664062 15.058594 Z M 25.089844 19.601562 L 13.839844 26.097656 C 14.007812 26.257812 14.167969 26.417969 14.328125 26.578125 L 23.257812 21.421875 C 23.90625 20.828125 24.527344 20.222656 25.089844 19.601562 Z M 16.4375 27.652344 L 15.667969 28.09375 C 15.738281 28.1875 15.808594 28.28125 15.875 28.375 C 16.046875 28.132812 16.238281 27.890625 16.4375 27.652344 Z M 16.4375 27.652344 "/>
<path style=" stroke:none;fill-rule:nonzero;fill:rgb(50.588238%,83.137256%,98.039216%);fill-opacity:1;" d="M 12.453125 5.964844 C 12.03125 5.957031 12.050781 6.636719 12.484375 6.617188 C 12.785156 6.671875 13.332031 6.902344 13.375 6.433594 C 13.378906 6 12.792969 6.0625 12.496094 5.964844 C 12.484375 5.964844 12.46875 5.964844 12.453125 5.964844 Z M 19.273438 5.964844 C 19.261719 5.964844 19.246094 5.964844 19.234375 5.964844 C 18.9375 6.0625 18.351562 6 18.351562 6.433594 C 18.398438 6.902344 18.945312 6.667969 19.246094 6.617188 C 19.679688 6.636719 19.699219 5.957031 19.273438 5.964844 Z M 9.871094 5.964844 C 9.859375 5.964844 9.847656 5.964844 9.832031 5.964844 C 9.519531 6.046875 8.882812 6.035156 8.960938 6.5 C 9.113281 6.9375 9.621094 6.613281 9.9375 6.601562 C 10.328125 6.507812 10.246094 5.960938 9.871094 5.964844 Z M 21.859375 5.964844 C 21.484375 5.960938 21.402344 6.507812 21.792969 6.601562 C 22.109375 6.613281 22.617188 6.9375 22.769531 6.5 C 22.847656 6.035156 22.210938 6.046875 21.898438 5.964844 C 21.882812 5.964844 21.871094 5.964844 21.859375 5.964844 Z M 7.449219 6.832031 C 7.144531 6.964844 6.726562 7.136719 6.628906 7.46875 C 6.601562 7.890625 7.144531 7.863281 7.34375 7.605469 C 7.628906 7.5 7.988281 7.164062 7.65625 6.882812 C 7.589844 6.867188 7.519531 6.847656 7.449219 6.832031 Z M 24.28125 6.832031 C 24.210938 6.847656 24.140625 6.867188 24.074219 6.882812 C 23.742188 7.164062 24.101562 7.5 24.386719 7.605469 C 24.585938 7.863281 25.125 7.890625 25.101562 7.46875 C 25.003906 7.136719 24.585938 6.964844 24.28125 6.832031 Z M 14.804688 6.832031 C 14.390625 6.933594 14.53125 7.460938 14.878906 7.539062 C 15.117188 7.742188 15.585938 7.988281 15.714844 7.539062 C 15.679688 7.144531 15.199219 6.976562 14.886719 6.847656 L 14.820312 6.835938 Z M 16.925781 6.832031 L 16.910156 6.835938 L 16.84375 6.847656 C 16.527344 6.976562 16.050781 7.144531 16.015625 7.539062 C 16.144531 7.988281 16.613281 7.742188 16.851562 7.539062 C 17.199219 7.460938 17.339844 6.933594 16.925781 6.832031 Z M 5.585938 8.476562 C 5.203125 8.46875 5.015625 8.902344 4.835938 9.179688 C 4.65625 9.558594 5.277344 9.78125 5.429688 9.414062 C 5.605469 9.164062 6.0625 8.769531 5.65625 8.519531 L 5.597656 8.484375 Z M 26.144531 8.476562 L 26.132812 8.484375 L 26.074219 8.519531 C 25.667969 8.769531 26.125 9.164062 26.300781 9.414062 C 26.453125 9.78125 27.074219 9.558594 26.894531 9.179688 C 26.714844 8.902344 26.527344 8.46875 26.144531 8.476562 Z M 4.1875 10.679688 C 3.820312 10.800781 3.796875 11.277344 3.722656 11.59375 C 3.671875 12.003906 4.332031 12.023438 4.355469 11.628906 C 4.441406 11.296875 4.773438 10.730469 4.1875 10.679688 Z M 27.542969 10.679688 C 26.957031 10.730469 27.289062 11.296875 27.375 11.628906 C 27.398438 12.023438 28.058594 12.003906 28.007812 11.59375 C 27.933594 11.277344 27.910156 10.800781 27.542969 10.679688 Z M 3.8125 13.203125 C 3.296875 13.210938 3.460938 13.851562 3.472656 14.195312 C 3.546875 14.652344 4.234375 14.464844 4.105469 14.039062 C 4.050781 13.753906 4.199219 13.328125 3.835938 13.203125 C 3.828125 13.203125 3.820312 13.203125 3.8125 13.203125 Z M 27.917969 13.203125 C 27.910156 13.203125 27.902344 13.203125 27.894531 13.203125 C 27.53125 13.328125 27.679688 13.753906 27.625 14.039062 C 27.496094 14.464844 28.183594 14.652344 28.257812 14.195312 C 28.269531 13.851562 28.433594 13.210938 27.917969 13.203125 Z M 4.226562 15.710938 C 4.214844 15.710938 4.203125 15.710938 4.191406 15.710938 C 3.691406 15.902344 4.089844 16.4375 4.222656 16.757812 C 4.449219 17.167969 5.039062 16.742188 4.757812 16.390625 C 4.613281 16.148438 4.578125 15.710938 4.226562 15.710938 Z M 27.503906 15.710938 C 27.152344 15.710938 27.117188 16.148438 26.972656 16.390625 C 26.691406 16.742188 27.28125 17.167969 27.507812 16.757812 C 27.640625 16.4375 28.039062 15.902344 27.539062 15.710938 C 27.527344 15.710938 27.515625 15.710938 27.503906 15.710938 Z M 5.53125 17.9375 C 5.183594 17.933594 5.113281 18.421875 5.390625 18.617188 C 5.542969 18.902344 5.953125 19.308594 6.210938 18.890625 C 6.277344 18.519531 5.902344 18.234375 5.671875 17.992188 L 5.617188 17.953125 L 5.605469 17.945312 C 5.578125 17.941406 5.554688 17.9375 5.53125 17.9375 Z M 26.199219 17.9375 C 26.175781 17.9375 26.152344 17.941406 26.125 17.945312 L 26.113281 17.953125 L 26.058594 17.992188 C 25.828125 18.234375 25.453125 18.519531 25.519531 18.890625 C 25.777344 19.308594 26.1875 18.902344 26.339844 18.617188 C 26.617188 18.421875 26.546875 17.933594 26.199219 17.9375 Z M 7.242188 19.875 C 6.8125 19.867188 6.820312 20.429688 7.148438 20.589844 C 7.332031 20.851562 7.78125 21.167969 7.972656 20.738281 C 7.996094 20.355469 7.578125 20.121094 7.316406 19.910156 L 7.257812 19.882812 Z M 24.488281 19.875 L 24.472656 19.882812 L 24.414062 19.910156 C 24.152344 20.121094 23.734375 20.355469 23.757812 20.738281 C 23.949219 21.167969 24.398438 20.851562 24.582031 20.589844 C 24.910156 20.429688 24.917969 19.867188 24.488281 19.875 Z M 9.101562 21.628906 C 8.652344 21.65625 8.730469 22.230469 9.078125 22.367188 C 9.265625 22.617188 9.730469 22.867188 9.886719 22.449219 C 9.886719 22.0625 9.457031 21.84375 9.175781 21.660156 L 9.113281 21.632812 Z M 22.628906 21.628906 L 22.617188 21.632812 L 22.554688 21.660156 C 22.273438 21.84375 21.84375 22.0625 21.84375 22.449219 C 22 22.867188 22.464844 22.617188 22.652344 22.367188 C 23 22.230469 23.078125 21.65625 22.628906 21.628906 Z M 11.050781 23.300781 C 10.601562 23.335938 10.6875 23.90625 11.035156 24.039062 C 11.21875 24.324219 11.800781 24.523438 11.839844 24.046875 C 11.804688 23.707031 11.332031 23.433594 11.050781 23.300781 Z M 20.679688 23.300781 C 20.398438 23.433594 19.925781 23.707031 19.890625 24.046875 C 19.929688 24.523438 20.511719 24.324219 20.695312 24.039062 C 21.042969 23.90625 21.128906 23.335938 20.679688 23.300781 Z M 13.003906 24.984375 C 12.585938 25 12.613281 25.527344 12.925781 25.683594 C 13.125 25.933594 13.585938 26.265625 13.773438 25.824219 C 13.785156 25.441406 13.367188 25.195312 13.078125 25.011719 L 13.019531 24.988281 Z M 18.726562 24.984375 L 18.710938 24.988281 L 18.652344 25.011719 C 18.363281 25.195312 17.945312 25.441406 17.957031 25.824219 C 18.144531 26.265625 18.605469 25.933594 18.804688 25.683594 C 19.117188 25.527344 19.144531 25 18.726562 24.984375 Z M 14.859375 26.78125 C 14.441406 26.773438 14.4375 27.324219 14.757812 27.496094 C 14.921875 27.761719 15.324219 28.101562 15.550781 27.707031 C 15.617188 27.320312 15.207031 27.039062 14.949219 26.820312 L 14.894531 26.789062 L 14.878906 26.78125 C 14.871094 26.78125 14.863281 26.78125 14.859375 26.78125 Z M 16.871094 26.78125 C 16.863281 26.78125 16.859375 26.78125 16.851562 26.78125 L 16.835938 26.789062 L 16.777344 26.820312 C 16.523438 27.039062 16.113281 27.320312 16.179688 27.707031 C 16.40625 28.101562 16.808594 27.761719 16.972656 27.496094 C 17.292969 27.324219 17.289062 26.773438 16.871094 26.78125 Z M 16.871094 26.78125 "/>
<path style=" stroke:none;fill-rule:nonzero;fill:rgb(93.725491%,32.549021%,31.37255%);fill-opacity:1;" d="M 24.058594 1.988281 C 22.597656 1.140625 20.738281 1.640625 19.894531 3.101562 C 18.648438 5.261719 20.9375 8.503906 21.167969 10.878906 C 23.335938 9.890625 27.289062 10.253906 28.535156 8.09375 C 29.382812 6.628906 28.882812 4.769531 27.421875 3.925781 C 26.78125 3.558594 26.066406 3.445312 25.394531 3.558594 C 25.15625 2.917969 24.699219 2.355469 24.058594 1.988281 Z M 24.058594 1.988281 "/>
<path style=" stroke:none;fill-rule:nonzero;fill:rgb(93.725491%,60.392159%,60.392159%);fill-opacity:1;" d="M 24.359375 2.929688 C 24.234375 2.855469 24.125 3.0625 24.257812 3.128906 C 24.335938 3.195312 24.460938 3.359375 24.554688 3.226562 C 24.628906 3.101562 24.441406 3.019531 24.371094 2.9375 C 24.367188 2.9375 24.363281 2.933594 24.359375 2.929688 Z M 26.378906 4.097656 C 26.375 4.09375 26.371094 4.09375 26.367188 4.089844 C 26.261719 4.070312 26.097656 3.949219 26.027344 4.078125 C 25.960938 4.226562 26.160156 4.25 26.257812 4.285156 C 26.382812 4.363281 26.507812 4.167969 26.378906 4.097656 Z M 23.59375 2.488281 C 23.589844 2.488281 23.585938 2.484375 23.582031 2.484375 C 23.476562 2.453125 23.289062 2.339844 23.234375 2.492188 C 23.203125 2.648438 23.410156 2.640625 23.503906 2.6875 C 23.636719 2.726562 23.707031 2.550781 23.59375 2.488281 Z M 27.144531 4.539062 C 27.035156 4.472656 26.917969 4.621094 27.015625 4.714844 C 27.109375 4.773438 27.203125 4.957031 27.324219 4.851562 C 27.425781 4.726562 27.234375 4.625 27.15625 4.546875 C 27.152344 4.542969 27.148438 4.539062 27.144531 4.539062 Z M 22.730469 2.332031 C 22.617188 2.320312 22.464844 2.296875 22.378906 2.382812 C 22.296875 2.5 22.460938 2.585938 22.566406 2.542969 C 22.667969 2.558594 22.832031 2.523438 22.78125 2.382812 C 22.765625 2.367188 22.746094 2.347656 22.730469 2.332031 Z M 27.714844 5.210938 C 27.691406 5.203125 27.667969 5.195312 27.644531 5.191406 C 27.5 5.214844 27.546875 5.375 27.613281 5.457031 C 27.628906 5.566406 27.785156 5.667969 27.847656 5.539062 C 27.875 5.421875 27.78125 5.300781 27.714844 5.210938 Z M 24.90625 3.589844 C 24.769531 3.550781 24.71875 3.726562 24.808594 3.8125 C 24.84375 3.914062 24.941406 4.066406 25.054688 3.953125 C 25.113281 3.832031 25 3.699219 24.929688 3.609375 L 24.910156 3.59375 Z M 25.535156 3.953125 L 25.53125 3.949219 L 25.507812 3.941406 C 25.394531 3.925781 25.222656 3.894531 25.144531 4.007812 C 25.105469 4.160156 25.285156 4.167969 25.390625 4.148438 C 25.507812 4.183594 25.640625 4.050781 25.535156 3.953125 Z M 21.894531 2.5 C 21.785156 2.433594 21.652344 2.527344 21.554688 2.582031 C 21.433594 2.660156 21.582031 2.832031 21.691406 2.75 C 21.785156 2.707031 21.988281 2.667969 21.910156 2.523438 L 21.898438 2.503906 Z M 27.984375 6.015625 L 27.957031 6.015625 C 27.792969 6.019531 27.859375 6.214844 27.871094 6.320312 C 27.851562 6.453125 28.074219 6.496094 28.085938 6.351562 C 28.082031 6.238281 28.097656 6.078125 27.984375 6.015625 Z M 21.105469 2.914062 C 20.976562 2.886719 20.886719 3.023438 20.8125 3.105469 C 20.726562 3.21875 20.917969 3.335938 20.992188 3.222656 C 21.074219 3.140625 21.269531 3.027344 21.105469 2.914062 Z M 28.023438 6.90625 C 27.839844 6.820312 27.839844 7.046875 27.808594 7.160156 C 27.75 7.28125 27.949219 7.386719 28.003906 7.257812 C 28.035156 7.148438 28.109375 7.003906 28.023438 6.90625 Z M 20.5625 3.597656 C 20.410156 3.511719 20.347656 3.726562 20.292969 3.832031 C 20.234375 3.980469 20.472656 4.042969 20.507812 3.894531 C 20.539062 3.800781 20.65625 3.699219 20.570312 3.601562 C 20.566406 3.601562 20.566406 3.597656 20.5625 3.597656 Z M 27.703125 7.71875 C 27.699219 7.71875 27.695312 7.714844 27.695312 7.714844 C 27.566406 7.6875 27.535156 7.839844 27.472656 7.917969 C 27.359375 8.019531 27.53125 8.191406 27.632812 8.070312 C 27.695312 7.96875 27.851562 7.808594 27.703125 7.71875 Z M 20.257812 4.410156 C 20.253906 4.410156 20.25 4.40625 20.246094 4.40625 C 20.066406 4.375 20.089844 4.601562 20.078125 4.71875 C 20.074219 4.878906 20.320312 4.855469 20.296875 4.703125 C 20.296875 4.605469 20.359375 4.46875 20.257812 4.410156 Z M 27.148438 8.390625 C 27.046875 8.328125 26.960938 8.453125 26.875 8.5 C 26.734375 8.558594 26.835938 8.785156 26.972656 8.699219 C 27.066406 8.628906 27.273438 8.539062 27.160156 8.394531 C 27.15625 8.394531 27.152344 8.390625 27.148438 8.390625 Z M 20.261719 5.292969 C 20.160156 5.234375 20.054688 5.363281 20.105469 5.46875 C 20.101562 5.582031 20.152344 5.769531 20.300781 5.691406 C 20.382812 5.59375 20.320312 5.445312 20.296875 5.332031 L 20.285156 5.3125 L 20.28125 5.308594 C 20.277344 5.300781 20.269531 5.296875 20.261719 5.292969 Z M 26.382812 8.828125 C 26.375 8.824219 26.367188 8.820312 26.359375 8.816406 L 26.355469 8.816406 L 26.332031 8.820312 C 26.222656 8.851562 26.0625 8.871094 26.019531 8.992188 C 26.023438 9.160156 26.214844 9.109375 26.308594 9.050781 C 26.421875 9.042969 26.488281 8.886719 26.382812 8.828125 Z M 20.4375 6.160156 C 20.3125 6.082031 20.21875 6.25 20.289062 6.355469 C 20.296875 6.464844 20.378906 6.632812 20.507812 6.539062 C 20.578125 6.429688 20.496094 6.289062 20.453125 6.183594 L 20.441406 6.164062 Z M 25.542969 9.109375 L 25.539062 9.105469 L 25.515625 9.105469 C 25.402344 9.121094 25.238281 9.121094 25.179688 9.238281 C 25.164062 9.398438 25.351562 9.382812 25.449219 9.335938 C 25.574219 9.34375 25.675781 9.179688 25.542969 9.109375 Z M 20.6875 6.996094 C 20.550781 6.929688 20.476562 7.109375 20.554688 7.210938 C 20.566406 7.316406 20.664062 7.472656 20.78125 7.371094 C 20.847656 7.257812 20.757812 7.121094 20.707031 7.019531 L 20.691406 7 Z M 24.695312 9.308594 L 24.691406 9.308594 L 24.667969 9.304688 C 24.550781 9.3125 24.386719 9.304688 24.320312 9.417969 C 24.296875 9.570312 24.476562 9.574219 24.574219 9.53125 C 24.703125 9.550781 24.824219 9.394531 24.695312 9.308594 Z M 20.980469 7.824219 C 20.839844 7.757812 20.769531 7.941406 20.847656 8.039062 C 20.855469 8.15625 20.992188 8.316406 21.085938 8.179688 C 21.132812 8.074219 21.039062 7.910156 20.980469 7.824219 Z M 23.832031 9.472656 C 23.726562 9.460938 23.539062 9.464844 23.46875 9.558594 C 23.398438 9.707031 23.605469 9.746094 23.710938 9.691406 C 23.835938 9.710938 23.957031 9.558594 23.832031 9.472656 Z M 21.269531 8.65625 C 21.144531 8.589844 21.0625 8.75 21.128906 8.851562 C 21.144531 8.960938 21.222656 9.136719 21.355469 9.039062 C 21.421875 8.925781 21.339844 8.78125 21.289062 8.679688 L 21.273438 8.660156 Z M 22.964844 9.636719 L 22.960938 9.632812 L 22.9375 9.632812 C 22.820312 9.636719 22.65625 9.636719 22.59375 9.753906 C 22.574219 9.914062 22.765625 9.898438 22.867188 9.855469 C 22.988281 9.863281 23.085938 9.710938 22.964844 9.636719 Z M 21.511719 9.507812 C 21.390625 9.433594 21.296875 9.59375 21.359375 9.703125 C 21.363281 9.808594 21.425781 9.976562 21.558594 9.898438 C 21.644531 9.796875 21.570312 9.644531 21.535156 9.535156 L 21.519531 9.515625 L 21.519531 9.511719 C 21.515625 9.507812 21.515625 9.507812 21.511719 9.507812 Z M 22.109375 9.851562 C 22.105469 9.847656 22.105469 9.847656 22.101562 9.847656 L 22.074219 9.847656 C 21.960938 9.867188 21.792969 9.878906 21.746094 10.007812 C 21.746094 10.164062 21.921875 10.128906 22.015625 10.082031 C 22.140625 10.082031 22.234375 9.917969 22.109375 9.851562 Z M 22.109375 9.851562 "/>
<path style=" stroke:none;fill-rule:nonzero;fill:rgb(89.803922%,45.09804%,45.09804%);fill-opacity:1;" d="M 23.988281 2.996094 C 23.929688 2.960938 23.871094 2.933594 23.816406 2.90625 L 21.789062 2.90625 C 21.660156 2.964844 21.539062 3.035156 21.425781 3.121094 L 24.179688 3.121094 C 24.121094 3.074219 24.054688 3.035156 23.988281 2.996094 Z M 26.789062 4.625 L 20.496094 4.625 C 20.484375 4.695312 20.476562 4.769531 20.472656 4.839844 L 27.050781 4.839844 C 26.96875 4.765625 26.882812 4.691406 26.789062 4.625 Z M 24.796875 3.765625 L 20.8125 3.765625 C 20.792969 3.796875 20.773438 3.828125 20.753906 3.863281 C 20.730469 3.902344 20.710938 3.941406 20.691406 3.980469 L 24.921875 3.980469 C 24.882812 3.90625 24.84375 3.835938 24.796875 3.765625 Z M 27.527344 5.484375 L 20.496094 5.484375 C 20.503906 5.558594 20.515625 5.628906 20.527344 5.699219 L 27.625 5.699219 C 27.597656 5.628906 27.566406 5.554688 27.527344 5.484375 Z M 27.773438 6.347656 L 20.675781 6.347656 C 20.695312 6.417969 20.714844 6.488281 20.738281 6.5625 L 27.78125 6.5625 C 27.78125 6.488281 27.78125 6.417969 27.773438 6.347656 Z M 27.691406 7.207031 L 20.949219 7.207031 C 20.972656 7.277344 20.996094 7.351562 21.023438 7.421875 L 27.617188 7.421875 C 27.644531 7.351562 27.667969 7.277344 27.691406 7.207031 Z M 27.226562 8.066406 L 21.253906 8.066406 C 21.28125 8.136719 21.304688 8.210938 21.328125 8.28125 L 27.003906 8.28125 C 27.082031 8.214844 27.15625 8.144531 27.226562 8.066406 Z M 25.761719 8.925781 L 21.539062 8.925781 C 21.558594 9 21.578125 9.070312 21.597656 9.140625 L 24.949219 9.140625 C 25.230469 9.082031 25.503906 9.011719 25.761719 8.925781 Z M 22.015625 9.789062 L 21.726562 9.789062 C 21.734375 9.824219 21.738281 9.863281 21.742188 9.898438 C 21.828125 9.859375 21.921875 9.820312 22.015625 9.789062 Z M 22.015625 9.789062 "/>
<path style=" stroke:none;fill-rule:nonzero;fill:rgb(61.176473%,80.000001%,39.607844%);fill-opacity:1;" d="M 30.386719 20.617188 C 29.59375 19.824219 26.996094 19.632812 23.824219 19.867188 C 23.613281 20.203125 23.421875 20.546875 23.253906 20.898438 C 23.210938 20.949219 23.316406 20.53125 23.527344 19.894531 C 22.558594 19.972656 21.542969 20.089844 20.507812 20.238281 C 20.402344 20.570312 20.308594 20.90625 20.238281 21.242188 C 20.207031 21.304688 20.210938 20.90625 20.261719 20.273438 C 17.167969 20.742188 13.964844 21.5 11.550781 22.429688 C 10.703125 23.257812 10.027344 24.058594 9.726562 24.96875 C 9.726562 24.96875 9.722656 24.199219 9.726562 23.335938 C 8.367188 24.699219 7.550781 26.054688 8.097656 26.601562 C 9.265625 27.96875 11.765625 29.3125 13.261719 29.589844 C 12.253906 28.464844 10.316406 26.742188 10.539062 26.871094 C 12.113281 27.839844 13.644531 28.539062 14.941406 29.023438 C 18.207031 28.589844 21.699219 26.675781 24.578125 24.765625 C 23.234375 23.859375 22.136719 22.851562 22.265625 22.886719 C 23.226562 23.476562 24.359375 23.886719 25.46875 24.160156 C 26.113281 23.71875 26.722656 23.28125 27.277344 22.871094 C 26.496094 22.265625 25.980469 21.773438 26.070312 21.796875 C 26.570312 22.105469 27.113281 22.363281 27.679688 22.578125 C 28.898438 21.675781 29.847656 20.941406 30.386719 20.617188 Z M 30.386719 20.617188 "/>
<path style=" stroke:none;fill-rule:nonzero;fill:rgb(90.196079%,93.333334%,61.176473%);fill-opacity:1;" d="M 1.300781 30.675781 C 7.007812 26.601562 16.523438 20.890625 26.308594 20.890625 C 16.25 22.792969 7.824219 27.414062 3.472656 30.675781 Z M 1.300781 30.675781 "/>
</g>
</svg>
