<?xml version="1.0" encoding="UTF-8"?>
<svg xmlns="http://www.w3.org/2000/svg" xmlns:xlink="http://www.w3.org/1999/xlink" width="32px" height="32px" viewBox="0 0 32 32" version="1.1">
<g id="surface1">
<path style=" stroke:none;fill-rule:nonzero;fill:rgb(93.725491%,32.549021%,31.37255%);fill-opacity:1;" d="M 3.308594 1.574219 L 28.441406 1.574219 C 29.171875 1.574219 29.765625 2.164062 29.765625 2.894531 L 29.765625 29.355469 C 29.765625 30.085938 29.171875 30.675781 28.441406 30.675781 L 3.308594 30.675781 C 2.578125 30.675781 1.984375 30.085938 1.984375 29.355469 L 1.984375 2.894531 C 1.984375 2.164062 2.578125 1.574219 3.308594 1.574219 Z M 3.308594 1.574219 "/>
<path style=" stroke:none;fill-rule:nonzero;fill:rgb(93.333334%,93.333334%,93.333334%);fill-opacity:1;" d="M 1.324219 6.863281 L 1.324219 10.832031 L 5.292969 10.832031 C 8.222656 10.832031 10.582031 13.195312 10.582031 16.125 C 10.582031 19.054688 8.222656 21.417969 5.292969 21.417969 L 1.324219 21.417969 L 1.324219 25.386719 L 5.292969 25.386719 C 10.421875 25.386719 14.550781 21.253906 14.550781 16.125 C 14.550781 10.996094 10.421875 6.863281 5.292969 6.863281 Z M 1.324219 6.863281 "/>
<path style=" stroke:none;fill-rule:nonzero;fill:rgb(93.333334%,93.333334%,93.333334%);fill-opacity:1;" d="M 26.457031 6.863281 C 21.328125 6.863281 17.199219 10.996094 17.199219 16.125 C 17.199219 21.253906 21.328125 25.386719 26.457031 25.386719 L 30.425781 25.386719 L 30.425781 21.417969 L 26.457031 21.417969 C 23.527344 21.417969 21.167969 19.054688 21.167969 16.125 C 21.167969 13.195312 23.527344 10.832031 26.457031 10.832031 L 30.425781 10.832031 L 30.425781 6.863281 Z M 26.457031 6.863281 "/>
</g>
</svg>
