<?xml version="1.0" encoding="UTF-8"?>
<svg xmlns="http://www.w3.org/2000/svg" xmlns:xlink="http://www.w3.org/1999/xlink" width="32px" height="32px" viewBox="0 0 32 32" version="1.1">
<g id="surface1">
<path style=" stroke:none;fill-rule:nonzero;fill:rgb(55.29412%,43.137255%,38.82353%);fill-opacity:1;" d="M 2.644531 1.574219 L 29.105469 1.574219 C 29.835938 1.574219 30.425781 2.164062 30.425781 2.894531 L 30.425781 29.355469 C 30.425781 30.085938 29.835938 30.675781 29.105469 30.675781 L 2.644531 30.675781 C 1.914062 30.675781 1.324219 30.085938 1.324219 29.355469 L 1.324219 2.894531 C 1.324219 2.164062 1.914062 1.574219 2.644531 1.574219 Z M 2.644531 1.574219 "/>
<path style=" stroke:none;fill-rule:nonzero;fill:rgb(100%,65.490198%,14.901961%);fill-opacity:1;" d="M 3.96875 3.558594 C 3.601562 3.558594 3.308594 3.851562 3.308594 4.21875 L 3.308594 28.03125 C 3.308594 28.398438 3.601562 28.691406 3.96875 28.691406 L 27.78125 28.691406 C 28.148438 28.691406 28.441406 28.398438 28.441406 28.03125 L 28.441406 4.21875 C 28.441406 3.851562 28.148438 3.558594 27.78125 3.558594 Z M 4.960938 4.878906 L 26.789062 4.878906 C 26.972656 4.878906 27.121094 5.027344 27.121094 5.210938 L 27.121094 27.039062 C 27.121094 27.222656 26.972656 27.371094 26.789062 27.371094 L 4.960938 27.371094 C 4.777344 27.371094 4.628906 27.222656 4.628906 27.039062 L 4.628906 5.210938 C 4.628906 5.027344 4.777344 4.878906 4.960938 4.878906 Z M 4.960938 4.878906 "/>
<path style=" stroke:none;fill-rule:nonzero;fill:rgb(100%,65.490198%,14.901961%);fill-opacity:1;" d="M 17.199219 22.738281 C 16.832031 22.734375 16.535156 22.441406 16.535156 22.074219 L 16.535156 17.113281 C 16.535156 17.109375 16.535156 17.105469 16.535156 17.105469 L 16.535156 12.484375 C 16.535156 12.300781 16.683594 12.152344 16.867188 12.152344 L 17.527344 12.152344 C 17.710938 12.152344 17.859375 12.300781 17.859375 12.484375 L 17.859375 17.09375 C 17.859375 17.101562 17.859375 17.105469 17.859375 17.113281 L 17.859375 19.820312 L 19.617188 17.085938 C 19.738281 16.898438 19.949219 16.78125 20.175781 16.78125 C 20.398438 16.78125 20.609375 16.898438 20.730469 17.085938 L 22.488281 19.820312 L 22.488281 17.113281 C 22.488281 17.109375 22.488281 17.105469 22.488281 17.105469 L 22.488281 12.484375 C 22.488281 12.300781 22.636719 12.152344 22.820312 12.152344 L 23.480469 12.152344 C 23.664062 12.152344 23.8125 12.300781 23.8125 12.484375 L 23.8125 17.09375 C 23.8125 17.101562 23.8125 17.105469 23.8125 17.113281 L 23.8125 22.074219 C 23.8125 22.367188 23.621094 22.628906 23.339844 22.710938 C 23.054688 22.792969 22.753906 22.679688 22.59375 22.433594 L 20.175781 18.667969 L 17.753906 22.433594 C 17.632812 22.621094 17.421875 22.738281 17.199219 22.738281 Z M 17.199219 22.738281 "/>
<path style=" stroke:none;fill-rule:nonzero;fill:rgb(100%,65.490198%,14.901961%);fill-opacity:1;" d="M 8.269531 9.511719 C 8.085938 9.511719 7.9375 9.65625 7.9375 9.839844 L 7.9375 19.761719 C 7.9375 19.769531 7.9375 19.773438 7.9375 19.78125 C 7.941406 19.820312 7.949219 19.855469 7.964844 19.890625 C 7.980469 19.929688 8.003906 19.96875 8.035156 19.996094 C 8.050781 20.011719 8.066406 20.027344 8.082031 20.039062 C 8.101562 20.050781 8.121094 20.058594 8.140625 20.066406 C 8.160156 20.078125 8.179688 20.082031 8.203125 20.085938 C 8.21875 20.089844 8.234375 20.09375 8.25 20.09375 C 8.257812 20.09375 8.261719 20.09375 8.269531 20.09375 L 8.929688 20.09375 C 9.113281 20.09375 9.261719 19.945312 9.261719 19.761719 L 9.261719 15.464844 L 12.898438 15.464844 C 13.082031 15.464844 13.230469 15.316406 13.230469 15.132812 L 13.230469 14.472656 C 13.230469 14.289062 13.082031 14.140625 12.898438 14.140625 L 9.261719 14.140625 L 9.261719 10.832031 L 14.882812 10.832031 C 15.066406 10.832031 15.214844 10.6875 15.214844 10.503906 L 15.214844 9.839844 C 15.214844 9.65625 15.066406 9.511719 14.882812 9.511719 Z M 8.269531 9.511719 "/>
</g>
</svg>
