<?xml version="1.0" encoding="UTF-8"?>
<svg xmlns="http://www.w3.org/2000/svg" xmlns:xlink="http://www.w3.org/1999/xlink" width="32px" height="32px" viewBox="0 0 32 32" version="1.1">
<g id="surface1">
<path style=" stroke:none;fill-rule:nonzero;fill:rgb(93.333334%,93.333334%,93.333334%);fill-opacity:1;" d="M 21.167969 1.574219 L 5.292969 1.574219 C 4.558594 1.574219 3.96875 2.164062 3.96875 2.894531 L 3.96875 29.355469 C 3.96875 30.085938 4.558594 30.675781 5.292969 30.675781 L 26.457031 30.675781 C 27.191406 30.675781 27.78125 30.085938 27.78125 29.355469 L 27.78125 8.1875 Z M 21.167969 1.574219 "/>
<path style=" stroke:none;fill-rule:nonzero;fill:rgb(74.117649%,74.117649%,74.117649%);fill-opacity:1;" d="M 27.78125 8.1875 L 21.167969 1.574219 L 21.167969 6.863281 C 21.167969 7.597656 21.757812 8.1875 22.488281 8.1875 Z M 27.78125 8.1875 "/>
<path style=" stroke:none;fill-rule:nonzero;fill:rgb(25.882354%,25.882354%,25.882354%);fill-opacity:1;" d="M 8.597656 12.15625 L 23.152344 12.15625 C 23.515625 12.15625 23.8125 12.441406 23.8125 12.792969 C 23.8125 13.140625 23.515625 13.425781 23.152344 13.425781 L 8.597656 13.425781 C 8.234375 13.425781 7.9375 13.140625 7.9375 12.792969 C 7.9375 12.441406 8.234375 12.15625 8.597656 12.15625 Z M 8.597656 12.15625 "/>
<path style=" stroke:none;fill-rule:nonzero;fill:rgb(25.882354%,25.882354%,25.882354%);fill-opacity:1;" d="M 8.597656 9.511719 L 23.152344 9.511719 C 23.515625 9.511719 23.8125 9.804688 23.8125 10.171875 C 23.8125 10.539062 23.515625 10.832031 23.152344 10.832031 L 8.597656 10.832031 C 8.234375 10.832031 7.9375 10.539062 7.9375 10.171875 C 7.9375 9.804688 8.234375 9.511719 8.597656 9.511719 Z M 8.597656 9.511719 "/>
<path style=" stroke:none;fill-rule:nonzero;fill:rgb(25.882354%,25.882354%,25.882354%);fill-opacity:1;" d="M 8.597656 17.449219 L 23.152344 17.449219 C 23.515625 17.449219 23.8125 17.722656 23.8125 18.0625 L 23.8125 18.15625 C 23.8125 18.496094 23.515625 18.769531 23.152344 18.769531 L 8.597656 18.769531 C 8.234375 18.769531 7.9375 18.496094 7.9375 18.15625 L 7.9375 18.0625 C 7.9375 17.722656 8.234375 17.449219 8.597656 17.449219 Z M 8.597656 17.449219 "/>
<path style=" stroke:none;fill-rule:nonzero;fill:rgb(25.882354%,25.882354%,25.882354%);fill-opacity:1;" d="M 8.597656 22.738281 L 23.152344 22.738281 C 23.515625 22.738281 23.8125 23.035156 23.8125 23.402344 C 23.8125 23.765625 23.515625 24.0625 23.152344 24.0625 L 8.597656 24.0625 C 8.234375 24.0625 7.9375 23.765625 7.9375 23.402344 C 7.9375 23.035156 8.234375 22.738281 8.597656 22.738281 Z M 8.597656 22.738281 "/>
<path style=" stroke:none;fill-rule:nonzero;fill:rgb(25.882354%,25.882354%,25.882354%);fill-opacity:1;" d="M 8.597656 14.855469 L 23.152344 14.855469 C 23.515625 14.855469 23.8125 15.140625 23.8125 15.488281 C 23.8125 15.839844 23.515625 16.125 23.152344 16.125 L 8.597656 16.125 C 8.234375 16.125 7.9375 15.839844 7.9375 15.488281 C 7.9375 15.140625 8.234375 14.855469 8.597656 14.855469 Z M 8.597656 14.855469 "/>
<path style=" stroke:none;fill-rule:nonzero;fill:rgb(25.882354%,25.882354%,25.882354%);fill-opacity:1;" d="M 8.597656 20.09375 L 23.152344 20.09375 C 23.515625 20.09375 23.8125 20.371094 23.8125 20.710938 L 23.8125 20.800781 C 23.8125 21.140625 23.515625 21.417969 23.152344 21.417969 L 8.597656 21.417969 C 8.234375 21.417969 7.9375 21.140625 7.9375 20.800781 L 7.9375 20.710938 C 7.9375 20.371094 8.234375 20.09375 8.597656 20.09375 Z M 8.597656 20.09375 "/>
<path style=" stroke:none;fill-rule:nonzero;fill:rgb(40.000001%,73.333335%,41.568628%);fill-opacity:1;" d="M 2.644531 8.1875 C 1.914062 8.1875 1.324219 8.777344 1.324219 9.511719 L 1.324219 29.355469 C 1.324219 29.367188 1.324219 29.378906 1.324219 29.386719 C 1.324219 29.410156 1.324219 29.433594 1.328125 29.457031 C 1.328125 29.46875 1.328125 29.480469 1.328125 29.488281 C 1.332031 29.511719 1.335938 29.535156 1.339844 29.554688 C 1.339844 29.578125 1.34375 29.601562 1.351562 29.621094 C 1.359375 29.664062 1.371094 29.707031 1.382812 29.75 C 1.394531 29.789062 1.410156 29.832031 1.425781 29.871094 C 1.433594 29.890625 1.445312 29.910156 1.453125 29.929688 C 1.460938 29.949219 1.472656 29.96875 1.480469 29.984375 C 1.492188 30.003906 1.503906 30.023438 1.515625 30.042969 C 1.535156 30.078125 1.558594 30.113281 1.585938 30.148438 C 1.609375 30.179688 1.636719 30.214844 1.664062 30.246094 C 1.679688 30.261719 1.695312 30.277344 1.710938 30.289062 C 1.722656 30.304688 1.738281 30.320312 1.753906 30.335938 C 1.847656 30.417969 1.957031 30.492188 2.070312 30.546875 C 2.128906 30.574219 2.1875 30.597656 2.25 30.617188 C 2.292969 30.628906 2.335938 30.640625 2.378906 30.648438 C 2.398438 30.65625 2.421875 30.660156 2.445312 30.660156 C 2.476562 30.667969 2.511719 30.671875 2.542969 30.671875 C 2.578125 30.675781 2.613281 30.675781 2.644531 30.675781 L 22.488281 30.675781 C 23.222656 30.675781 23.8125 30.085938 23.8125 29.355469 L 23.8125 27.371094 L 23.800781 27.371094 L 23.808594 27.363281 L 4.628906 8.1875 Z M 5.292969 14.460938 L 17.539062 26.707031 L 5.292969 26.707031 Z M 5.292969 14.460938 "/>
<path style=" stroke:none;fill-rule:nonzero;fill:rgb(26.274511%,62.7451%,27.843139%);fill-opacity:1;" d="M 8.269531 28.539062 C 8.085938 28.539062 7.9375 28.6875 7.9375 28.867188 L 7.9375 30.675781 L 8.597656 30.675781 L 8.597656 28.867188 C 8.597656 28.6875 8.453125 28.539062 8.269531 28.539062 Z M 16.207031 28.539062 C 16.023438 28.539062 15.875 28.6875 15.875 28.867188 L 15.875 30.675781 L 16.535156 30.675781 L 16.535156 28.867188 C 16.535156 28.6875 16.390625 28.539062 16.207031 28.539062 Z M 2.976562 29.199219 C 2.792969 29.199219 2.644531 29.347656 2.644531 29.53125 L 2.644531 30.675781 L 3.308594 30.675781 L 3.308594 29.53125 C 3.308594 29.347656 3.160156 29.199219 2.976562 29.199219 Z M 4.300781 29.199219 C 4.117188 29.199219 3.96875 29.347656 3.96875 29.53125 L 3.96875 30.675781 L 4.628906 30.675781 L 4.628906 29.53125 C 4.628906 29.347656 4.484375 29.199219 4.300781 29.199219 Z M 5.621094 29.199219 C 5.4375 29.199219 5.292969 29.347656 5.292969 29.53125 L 5.292969 30.675781 L 5.953125 30.675781 L 5.953125 29.53125 C 5.953125 29.347656 5.804688 29.199219 5.621094 29.199219 Z M 6.945312 29.199219 C 6.761719 29.199219 6.613281 29.347656 6.613281 29.53125 L 6.613281 30.675781 L 7.277344 30.675781 L 7.277344 29.53125 C 7.277344 29.347656 7.128906 29.199219 6.945312 29.199219 Z M 9.589844 29.199219 C 9.40625 29.199219 9.261719 29.347656 9.261719 29.53125 L 9.261719 30.675781 L 9.921875 30.675781 L 9.921875 29.53125 C 9.921875 29.347656 9.773438 29.199219 9.589844 29.199219 Z M 10.914062 29.199219 C 10.730469 29.199219 10.582031 29.347656 10.582031 29.53125 L 10.582031 30.675781 L 11.246094 30.675781 L 11.246094 29.53125 C 11.246094 29.347656 11.097656 29.199219 10.914062 29.199219 Z M 12.238281 29.199219 C 12.054688 29.199219 11.90625 29.347656 11.90625 29.53125 L 11.90625 30.675781 L 12.566406 30.675781 L 12.566406 29.53125 C 12.566406 29.347656 12.421875 29.199219 12.238281 29.199219 Z M 13.558594 29.199219 C 13.375 29.199219 13.230469 29.347656 13.230469 29.53125 L 13.230469 30.675781 L 13.890625 30.675781 L 13.890625 29.53125 C 13.890625 29.347656 13.742188 29.199219 13.558594 29.199219 Z M 14.882812 29.199219 C 14.699219 29.199219 14.550781 29.347656 14.550781 29.53125 L 14.550781 30.675781 L 15.214844 30.675781 L 15.214844 29.53125 C 15.214844 29.347656 15.066406 29.199219 14.882812 29.199219 Z M 17.527344 29.199219 C 17.34375 29.199219 17.199219 29.347656 17.199219 29.53125 L 17.199219 30.675781 L 17.859375 30.675781 L 17.859375 29.53125 C 17.859375 29.347656 17.710938 29.199219 17.527344 29.199219 Z M 18.851562 29.199219 C 18.667969 29.199219 18.519531 29.347656 18.519531 29.53125 L 18.519531 30.675781 L 19.183594 30.675781 L 19.183594 29.53125 C 19.183594 29.347656 19.035156 29.199219 18.851562 29.199219 Z M 20.175781 29.199219 C 19.992188 29.199219 19.84375 29.347656 19.84375 29.53125 L 19.84375 30.675781 L 20.503906 30.675781 L 20.503906 29.53125 C 20.503906 29.347656 20.359375 29.199219 20.175781 29.199219 Z M 21.496094 29.199219 C 21.3125 29.199219 21.167969 29.347656 21.167969 29.53125 L 21.167969 30.675781 L 21.828125 30.675781 L 21.828125 29.53125 C 21.828125 29.347656 21.679688 29.199219 21.496094 29.199219 Z M 22.820312 29.199219 C 22.636719 29.199219 22.488281 29.347656 22.488281 29.53125 L 22.488281 30.675781 C 22.730469 30.675781 22.957031 30.613281 23.152344 30.5 L 23.152344 29.53125 C 23.152344 29.347656 23.003906 29.199219 22.820312 29.199219 Z M 22.820312 29.199219 "/>
</g>
</svg>
