
<svg xmlns="http://www.w3.org/2000/svg" xmlns:xlink="http://www.w3.org/1999/xlink" width="32px" height="32px" viewBox="0 0 32 32" version="1.1">
<g id="surface1">
<path style=" stroke:none;fill-rule:nonzero;fill:rgb(100%,79.215688%,15.686275%);fill-opacity:1;" d="M 15.878906 1.324219 C 15.558594 1.324219 15.246094 1.40625 14.972656 1.566406 L 7.570312 5.839844 L 15.875 10.582031 L 20.503906 13.230469 L 20.503906 3.714844 L 16.777344 1.566406 C 16.503906 1.40625 16.195312 1.324219 15.878906 1.324219 Z M 15.878906 1.324219 "/>
<path style=" stroke:none;fill-rule:nonzero;fill:rgb(67.058825%,27.843139%,73.725492%);fill-opacity:1;" d="M 15.871094 30.425781 C 16.191406 30.425781 16.503906 30.34375 16.777344 30.183594 L 24.179688 25.910156 L 15.875 21.167969 L 11.246094 18.519531 L 11.246094 28.035156 L 14.972656 30.183594 C 15.246094 30.34375 15.554688 30.425781 15.871094 30.425781 Z M 15.871094 30.425781 "/>
<path style=" stroke:none;fill-rule:nonzero;fill:rgb(40.000001%,73.333335%,41.568628%);fill-opacity:1;" d="M 3.273438 8.597656 C 3.113281 8.871094 3.03125 9.183594 3.03125 9.503906 L 3.03125 18.046875 L 11.292969 13.230469 L 15.898438 10.542969 L 7.660156 5.785156 L 3.933594 7.9375 C 3.660156 8.097656 3.433594 8.324219 3.273438 8.597656 Z M 3.273438 8.597656 "/>
<path style=" stroke:none;fill-rule:nonzero;fill:rgb(93.725491%,32.549021%,31.37255%);fill-opacity:1;" d="M 28.476562 23.152344 C 28.636719 22.878906 28.71875 22.566406 28.71875 22.246094 L 28.71875 13.703125 L 20.457031 18.519531 L 15.851562 21.207031 L 24.089844 25.964844 L 27.816406 23.8125 C 28.089844 23.652344 28.316406 23.425781 28.476562 23.152344 Z M 28.476562 23.152344 "/>
<path style=" stroke:none;fill-rule:nonzero;fill:rgb(25.882354%,64.705884%,96.078432%);fill-opacity:1;" d="M 3.269531 23.148438 C 3.429688 23.425781 3.660156 23.652344 3.933594 23.8125 L 11.335938 28.085938 L 11.292969 18.519531 L 11.269531 13.1875 L 3.03125 17.945312 L 3.03125 22.246094 C 3.03125 22.5625 3.113281 22.875 3.269531 23.148438 Z M 3.269531 23.148438 "/>
<path style=" stroke:none;fill-rule:nonzero;fill:rgb(100%,65.490198%,14.901961%);fill-opacity:1;" d="M 28.480469 8.601562 C 28.320312 8.324219 28.089844 8.097656 27.816406 7.9375 L 20.414062 3.664062 L 20.457031 13.230469 L 20.480469 18.5625 L 28.71875 13.804688 L 28.71875 9.503906 C 28.71875 9.1875 28.636719 8.875 28.480469 8.601562 Z M 28.480469 8.601562 "/>
</g>
</svg>
