
<svg xmlns="http://www.w3.org/2000/svg" xmlns:xlink="http://www.w3.org/1999/xlink" width="32px" height="32px" viewBox="0 0 32 32" version="1.1">
<g id="surface1">
<path style=" stroke:none;fill-rule:nonzero;fill:rgb(87.843138%,87.843138%,87.843138%);fill-opacity:1;" d="M 15.875 1.574219 C 7.8125 1.574219 1.324219 8.0625 1.324219 16.125 C 1.324219 24.1875 7.8125 30.675781 15.875 30.675781 C 23.9375 30.675781 30.425781 24.1875 30.425781 16.125 C 30.425781 8.0625 23.9375 1.574219 15.875 1.574219 Z M 15.875 12.15625 C 18.074219 12.15625 19.84375 13.925781 19.84375 16.125 C 19.84375 18.324219 18.074219 20.09375 15.875 20.09375 C 13.675781 20.09375 11.90625 18.324219 11.90625 16.125 C 11.90625 13.925781 13.675781 12.15625 15.875 12.15625 Z M 15.875 12.15625 "/>
<path style=" stroke:none;fill-rule:nonzero;fill:rgb(96.078432%,96.078432%,96.078432%);fill-opacity:1;" d="M 15.875 2.234375 C 8.179688 2.234375 1.984375 8.429688 1.984375 16.125 C 1.984375 23.820312 8.179688 30.015625 15.875 30.015625 C 23.570312 30.015625 29.765625 23.820312 29.765625 16.125 C 29.765625 8.429688 23.570312 2.234375 15.875 2.234375 Z M 15.875 12.15625 C 18.074219 12.15625 19.84375 13.925781 19.84375 16.125 C 19.84375 18.324219 18.074219 20.09375 15.875 20.09375 C 13.675781 20.09375 11.90625 18.324219 11.90625 16.125 C 11.90625 13.925781 13.675781 12.15625 15.875 12.15625 Z M 15.875 12.15625 "/>
<path style=" stroke:none;fill-rule:nonzero;fill:rgb(40.000001%,73.333335%,41.568628%);fill-opacity:1;" d="M 15.875 9.511719 C 12.210938 9.511719 9.261719 12.460938 9.261719 16.125 C 9.261719 19.789062 12.210938 22.738281 15.875 22.738281 C 19.539062 22.738281 22.488281 19.789062 22.488281 16.125 C 22.488281 12.460938 19.539062 9.511719 15.875 9.511719 Z M 15.875 14.140625 C 16.972656 14.140625 17.859375 15.027344 17.859375 16.125 C 17.859375 17.222656 16.972656 18.109375 15.875 18.109375 C 14.777344 18.109375 13.890625 17.222656 13.890625 16.125 C 13.890625 15.027344 14.777344 14.140625 15.875 14.140625 Z M 15.875 14.140625 "/>
<path style=" stroke:none;fill-rule:nonzero;fill:rgb(40.000001%,73.333335%,41.568628%);fill-opacity:1;" d="M 23.152344 16.125 C 22.785156 16.125 22.488281 16.421875 22.488281 16.785156 L 22.488281 24.0625 L 19.84375 24.0625 L 25.136719 30.675781 L 30.425781 24.0625 L 27.78125 24.0625 L 27.78125 16.785156 C 27.78125 16.421875 27.484375 16.125 27.121094 16.125 Z M 23.152344 16.125 "/>
<path style="fill:none;stroke-width:0.12885;stroke-linecap:round;stroke-linejoin:round;stroke:rgb(96.078432%,96.078432%,96.078432%);stroke-opacity:1;stroke-miterlimit:4;" d="M 129 48.5625 C 121.3125 48.5625 113.5 49.3125 105.8125 50.9375 L 96.5625 85.4375 L 78.75 95.75 L 44.1875 86.5 C 33.6875 98.25 25.9375 111.875 21.125 126.4375 L 46.4375 151.75 L 46.4375 172.3125 L 21.1875 197.5625 C 23.5625 204.8125 26.75 211.875 30.6875 218.75 C 34.625 225.5625 39.1875 231.875 44.25 237.5625 L 78.75 228.3125 L 96.5625 238.625 L 105.8125 273.125 C 120.875 276.25 136.5625 276.375 151.9375 273.125 L 161.1875 238.625 L 179.0625 228.3125 L 213.5625 237.5625 C 224.0625 225.8125 231.8125 212.1875 236.625 197.625 L 211.3125 172.3125 L 211.3125 151.75 L 236.5625 126.5 C 234.1875 119.25 231 112.1875 227.0625 105.3125 C 223.125 98.5 218.5625 92.1875 213.5 86.5 L 179.0625 95.75 L 161.1875 85.4375 L 151.9375 50.9375 C 144.4375 49.375 136.75 48.5625 129 48.5625 Z M 128.875 115.3125 C 154.75 115.3125 175.5625 136.1875 175.5625 162 C 175.5625 187.875 154.75 208.75 128.875 208.75 C 103 208.75 82.1875 187.875 82.1875 162 C 82.1875 136.1875 103 115.3125 128.875 115.3125 Z M 128.875 115.3125 " transform="matrix(0.0625,0,0,0.0625,0,13.4375)"/>
<path style=" stroke:none;fill-rule:nonzero;fill:rgb(38.039216%,38.039216%,38.039216%);fill-opacity:1;" d="M 8.0625 16.472656 C 7.582031 16.472656 7.09375 16.519531 6.613281 16.621094 L 6.035156 18.777344 L 4.921875 19.421875 L 2.761719 18.84375 C 2.105469 19.578125 1.621094 20.429688 1.320312 21.339844 L 2.902344 22.921875 L 2.902344 24.207031 L 1.324219 25.785156 C 1.472656 26.238281 1.671875 26.679688 1.917969 27.109375 C 2.164062 27.535156 2.449219 27.929688 2.765625 28.285156 L 4.921875 27.707031 L 6.035156 28.351562 L 6.613281 30.507812 C 7.554688 30.703125 8.535156 30.710938 9.496094 30.507812 L 10.074219 28.351562 L 11.191406 27.707031 L 13.347656 28.285156 C 14.003906 27.550781 14.488281 26.699219 14.789062 25.789062 L 13.207031 24.207031 L 13.207031 22.921875 L 14.785156 21.34375 C 14.636719 20.890625 14.4375 20.449219 14.191406 20.019531 C 13.945312 19.59375 13.660156 19.199219 13.34375 18.84375 L 11.191406 19.421875 L 10.074219 18.777344 L 9.496094 16.621094 C 9.027344 16.523438 8.546875 16.472656 8.0625 16.472656 Z M 8.054688 20.644531 C 9.671875 20.644531 10.972656 21.949219 10.972656 23.5625 C 10.972656 25.179688 9.671875 26.484375 8.054688 26.484375 C 6.4375 26.484375 5.136719 25.179688 5.136719 23.5625 C 5.136719 21.949219 6.4375 20.644531 8.054688 20.644531 Z M 8.054688 20.644531 "/>
<path style=" stroke:none;fill-rule:nonzero;fill:rgb(45.882353%,45.882353%,45.882353%);fill-opacity:1;" d="M 8.054688 18.410156 C 5.199219 18.410156 2.902344 20.710938 2.902344 23.5625 C 2.902344 26.417969 5.199219 28.71875 8.054688 28.71875 C 10.910156 28.71875 13.207031 26.417969 13.207031 23.5625 C 13.207031 20.710938 10.910156 18.410156 8.054688 18.410156 Z M 8.054688 20.644531 C 9.671875 20.644531 10.972656 21.949219 10.972656 23.5625 C 10.972656 25.179688 9.671875 26.484375 8.054688 26.484375 C 6.4375 26.484375 5.136719 25.179688 5.136719 23.5625 C 5.136719 21.949219 6.4375 20.644531 8.054688 20.644531 Z M 8.054688 20.644531 "/>
<path style=" stroke:none;fill-rule:nonzero;fill:rgb(45.882353%,45.882353%,45.882353%);fill-opacity:1;" d="M 8.054688 20.644531 C 6.449219 20.644531 5.15625 21.9375 5.15625 23.542969 C 5.15625 25.152344 6.449219 26.445312 8.054688 26.445312 C 9.660156 26.445312 10.953125 25.152344 10.953125 23.542969 C 10.953125 21.9375 9.660156 20.644531 8.054688 20.644531 Z M 8.054688 20.96875 C 9.484375 20.96875 10.632812 22.117188 10.632812 23.542969 C 10.632812 24.972656 9.484375 26.121094 8.054688 26.121094 C 6.628906 26.121094 5.476562 24.972656 5.476562 23.542969 C 5.476562 22.117188 6.628906 20.96875 8.054688 20.96875 Z M 8.054688 20.96875 "/>
<path style=" stroke:none;fill-rule:nonzero;fill:rgb(74.117649%,74.117649%,74.117649%);fill-opacity:1;" d="M 8.054688 20.324219 C 6.269531 20.324219 4.832031 21.761719 4.832031 23.542969 C 4.832031 25.328125 6.269531 26.765625 8.054688 26.765625 C 9.839844 26.765625 11.277344 25.328125 11.277344 23.542969 C 11.277344 21.761719 9.839844 20.324219 8.054688 20.324219 Z M 8.054688 20.644531 C 9.660156 20.644531 10.953125 21.9375 10.953125 23.542969 C 10.953125 25.152344 9.660156 26.445312 8.054688 26.445312 C 6.449219 26.445312 5.15625 25.152344 5.15625 23.542969 C 5.15625 21.9375 6.449219 20.644531 8.054688 20.644531 Z M 8.054688 20.644531 "/>
</g>
</svg>
