
<svg xmlns="http://www.w3.org/2000/svg" xmlns:xlink="http://www.w3.org/1999/xlink" width="32px" height="32px" viewBox="0 0 32 32" version="1.1">
<g id="surface1">
<path style=" stroke:none;fill-rule:nonzero;fill:rgb(61.960787%,61.960787%,61.960787%);fill-opacity:1;" d="M 5.953125 1.324219 L 25.796875 1.324219 C 26.527344 1.324219 27.121094 1.914062 27.121094 2.644531 L 27.121094 29.105469 C 27.121094 29.835938 26.527344 30.425781 25.796875 30.425781 L 5.953125 30.425781 C 5.222656 30.425781 4.628906 29.835938 4.628906 29.105469 L 4.628906 2.644531 C 4.628906 1.914062 5.222656 1.324219 5.953125 1.324219 Z M 5.953125 1.324219 "/>
<path style=" stroke:none;fill-rule:nonzero;fill:rgb(74.117649%,74.117649%,74.117649%);fill-opacity:1;" d="M 5.953125 1.324219 L 25.796875 1.324219 C 26.527344 1.324219 27.121094 1.914062 27.121094 2.644531 L 27.121094 27.78125 C 27.121094 28.511719 26.527344 29.105469 25.796875 29.105469 L 5.953125 29.105469 C 5.222656 29.105469 4.628906 28.511719 4.628906 27.78125 L 4.628906 2.644531 C 4.628906 1.914062 5.222656 1.324219 5.953125 1.324219 Z M 5.953125 1.324219 "/>
<path style=" stroke:none;fill-rule:nonzero;fill:rgb(93.333334%,93.333334%,93.333334%);fill-opacity:1;" d="M 15.875 2.644531 C 20.988281 2.644531 25.136719 6.792969 25.136719 11.90625 C 25.136719 17.019531 20.988281 21.167969 15.875 21.167969 C 10.761719 21.167969 6.613281 17.019531 6.613281 11.90625 C 6.613281 6.792969 10.761719 2.644531 15.875 2.644531 Z M 15.875 2.644531 "/>
<path style=" stroke:none;fill-rule:nonzero;fill:rgb(25.882354%,25.882354%,25.882354%);fill-opacity:1;" d="M 15.875 3.96875 C 20.257812 3.96875 23.8125 7.523438 23.8125 11.90625 C 23.8125 16.289062 20.257812 19.84375 15.875 19.84375 C 11.492188 19.84375 7.9375 16.289062 7.9375 11.90625 C 7.9375 7.523438 11.492188 3.96875 15.875 3.96875 Z M 15.875 3.96875 "/>
<path style=" stroke:none;fill-rule:nonzero;fill:rgb(40.000001%,73.333335%,41.568628%);fill-opacity:1;" d="M 7.9375 11.90625 C 7.9375 16.304688 11.476562 19.84375 15.875 19.84375 C 20.273438 19.84375 23.8125 16.304688 23.8125 11.90625 C 18.316406 9.464844 13.433594 15.570312 7.9375 11.90625 Z M 7.9375 11.90625 "/>
<path style=" stroke:none;fill-rule:nonzero;fill:rgb(93.333334%,93.333334%,93.333334%);fill-opacity:1;" d="M 13.710938 15.40625 C 13.613281 15.304688 13.464844 15.277344 13.335938 15.335938 L 9.238281 17.199219 C 8.570312 17.203125 7.90625 17.460938 7.394531 17.972656 C 6.355469 19.011719 6.355469 20.679688 7.394531 21.714844 C 8.429688 22.753906 10.097656 22.753906 11.136719 21.714844 C 11.648438 21.203125 11.90625 20.539062 11.910156 19.871094 L 13.773438 15.773438 C 13.832031 15.648438 13.804688 15.503906 13.710938 15.40625 Z M 13.710938 15.40625 "/>
<path style=" stroke:none;fill-rule:nonzero;fill:rgb(45.882353%,45.882353%,45.882353%);fill-opacity:1;" d="M 7.9375 25.136719 C 8.667969 25.136719 9.261719 25.726562 9.261719 26.457031 C 9.261719 27.1875 8.667969 27.78125 7.9375 27.78125 C 7.207031 27.78125 6.613281 27.1875 6.613281 26.457031 C 6.613281 25.726562 7.207031 25.136719 7.9375 25.136719 Z M 7.9375 25.136719 "/>
<path style=" stroke:none;fill-rule:nonzero;fill:rgb(45.882353%,45.882353%,45.882353%);fill-opacity:1;" d="M 23.8125 25.136719 C 24.542969 25.136719 25.136719 25.726562 25.136719 26.457031 C 25.136719 27.1875 24.542969 27.78125 23.8125 27.78125 C 23.082031 27.78125 22.488281 27.1875 22.488281 26.457031 C 22.488281 25.726562 23.082031 25.136719 23.8125 25.136719 Z M 23.8125 25.136719 "/>
<path style=" stroke:none;fill-rule:nonzero;fill:rgb(45.882353%,45.882353%,45.882353%);fill-opacity:1;" d="M 11.90625 23.8125 L 19.84375 23.8125 C 20.210938 23.8125 20.503906 24.109375 20.503906 24.472656 C 20.503906 24.839844 20.210938 25.136719 19.84375 25.136719 L 11.90625 25.136719 C 11.539062 25.136719 11.246094 24.839844 11.246094 24.472656 C 11.246094 24.109375 11.539062 23.8125 11.90625 23.8125 Z M 11.90625 23.8125 "/>
<path style=" stroke:none;fill-rule:nonzero;fill:rgb(74.117649%,74.117649%,74.117649%);fill-opacity:1;" d="M 7.9375 25.796875 C 8.304688 25.796875 8.597656 26.09375 8.597656 26.457031 C 8.597656 26.824219 8.304688 27.121094 7.9375 27.121094 C 7.570312 27.121094 7.277344 26.824219 7.277344 26.457031 C 7.277344 26.09375 7.570312 25.796875 7.9375 25.796875 Z M 7.9375 25.796875 "/>
<path style=" stroke:none;fill-rule:nonzero;fill:rgb(74.117649%,74.117649%,74.117649%);fill-opacity:1;" d="M 23.8125 25.796875 C 24.179688 25.796875 24.472656 26.09375 24.472656 26.457031 C 24.472656 26.824219 24.179688 27.121094 23.8125 27.121094 C 23.445312 27.121094 23.152344 26.824219 23.152344 26.457031 C 23.152344 26.09375 23.445312 25.796875 23.8125 25.796875 Z M 23.8125 25.796875 "/>
</g>
</svg>
