
<svg xmlns="http://www.w3.org/2000/svg" xmlns:xlink="http://www.w3.org/1999/xlink" width="32px" height="32px" viewBox="0 0 32 32" version="1.1">
<g id="surface1">
<path style=" stroke:none;fill-rule:nonzero;fill:rgb(26.274511%,62.7451%,27.843139%);fill-opacity:1;" d="M 25.796875 12.816406 L 25.796875 19.433594 L 5.292969 19.433594 L 5.292969 12.816406 Z M 25.796875 12.816406 "/>
<path style=" stroke:none;fill-rule:nonzero;fill:rgb(40.000001%,73.333335%,41.568628%);fill-opacity:1;" d="M 23.152344 1.574219 L 27.121094 1.574219 C 27.851562 1.574219 28.441406 2.164062 28.441406 2.894531 L 28.441406 29.355469 C 28.441406 30.085938 27.851562 30.675781 27.121094 30.675781 L 23.152344 30.675781 C 22.421875 30.675781 21.828125 30.085938 21.828125 29.355469 L 21.828125 2.894531 C 21.828125 2.164062 22.421875 1.574219 23.152344 1.574219 Z M 23.152344 1.574219 "/>
<path style=" stroke:none;fill-rule:nonzero;fill:rgb(40.000001%,73.333335%,41.568628%);fill-opacity:1;" d="M 4.628906 1.574219 L 8.597656 1.574219 C 9.328125 1.574219 9.921875 2.164062 9.921875 2.894531 L 9.921875 29.355469 C 9.921875 30.085938 9.328125 30.675781 8.597656 30.675781 L 4.628906 30.675781 C 3.898438 30.675781 3.308594 30.085938 3.308594 29.355469 L 3.308594 2.894531 C 3.308594 2.164062 3.898438 1.574219 4.628906 1.574219 Z M 4.628906 1.574219 "/>
</g>
</svg>
