<?xml version="1.0" encoding="UTF-8"?>
<svg xmlns="http://www.w3.org/2000/svg" xmlns:xlink="http://www.w3.org/1999/xlink" width="32px" height="32px" viewBox="0 0 32 32" version="1.1">
<defs>
<linearGradient id="linear0" gradientUnits="userSpaceOnUse" x1="42.333332" y1="42.999996" x2="465.666656" y2="42.999996" gradientTransform="matrix(0.0625,0,0,0.0625,0.0000001875,13.4375)">
<stop offset="0" style="stop-color:rgb(97.254902%,97.254902%,97.254902%);stop-opacity:0;"/>
<stop offset="0.5" style="stop-color:rgb(100%,100%,100%);stop-opacity:0.0784314;"/>
<stop offset="1" style="stop-color:rgb(99.607843%,99.607843%,99.607843%);stop-opacity:0;"/>
</linearGradient>
</defs>
<g id="surface1">
<path style=" stroke:none;fill-rule:nonzero;fill:rgb(25.882354%,25.882354%,25.882354%);fill-opacity:1;" d="M 2.644531 2.894531 L 29.105469 2.894531 C 29.835938 2.894531 30.425781 3.488281 30.425781 4.21875 L 30.425781 28.03125 C 30.425781 28.761719 29.835938 29.355469 29.105469 29.355469 L 2.644531 29.355469 C 1.914062 29.355469 1.324219 28.761719 1.324219 28.03125 L 1.324219 4.21875 C 1.324219 3.488281 1.914062 2.894531 2.644531 2.894531 Z M 2.644531 2.894531 "/>
<path style=" stroke:none;fill-rule:nonzero;fill:url(#linear0);" d="M 2.644531 3.886719 L 2.644531 4.550781 L 29.105469 4.550781 L 29.105469 3.886719 Z M 2.644531 5.871094 L 2.644531 6.535156 L 29.105469 6.535156 L 29.105469 5.871094 Z M 2.644531 7.855469 L 2.644531 8.519531 L 29.105469 8.519531 L 29.105469 7.855469 Z M 2.644531 9.839844 L 2.644531 10.503906 L 29.105469 10.503906 L 29.105469 9.839844 Z M 2.644531 11.824219 L 2.644531 12.488281 L 29.105469 12.488281 L 29.105469 11.824219 Z M 2.644531 13.808594 L 2.644531 14.472656 L 29.105469 14.472656 L 29.105469 13.808594 Z M 2.644531 15.792969 L 2.644531 16.457031 L 29.105469 16.457031 L 29.105469 15.792969 Z M 2.644531 17.777344 L 2.644531 18.441406 L 29.105469 18.441406 L 29.105469 17.777344 Z M 2.644531 19.761719 L 2.644531 20.425781 L 29.105469 20.425781 L 29.105469 19.761719 Z M 2.644531 21.746094 L 2.644531 22.410156 L 29.105469 22.410156 L 29.105469 21.746094 Z M 2.644531 23.730469 L 2.644531 24.394531 L 29.105469 24.394531 L 29.105469 23.730469 Z M 2.644531 25.714844 L 2.644531 26.378906 L 29.105469 26.378906 L 29.105469 25.714844 Z M 2.644531 27.699219 L 2.644531 28.363281 L 29.105469 28.363281 L 29.105469 27.699219 Z M 2.644531 27.699219 "/>
<path style=" stroke:none;fill-rule:nonzero;fill:rgb(61.176473%,80.000001%,39.607844%);fill-opacity:1;" d="M 15.875 14.140625 C 16.058594 14.140625 16.207031 14.289062 16.207031 14.472656 L 16.207031 17.777344 C 16.207031 17.960938 16.058594 18.109375 15.875 18.109375 C 15.691406 18.109375 15.542969 17.960938 15.542969 17.777344 L 15.542969 14.472656 C 15.542969 14.289062 15.691406 14.140625 15.875 14.140625 Z M 15.875 14.140625 "/>
<path style=" stroke:none;fill-rule:nonzero;fill:rgb(61.176473%,80.000001%,39.607844%);fill-opacity:1;" d="M 19.164062 14.140625 L 19.199219 14.140625 C 19.371094 14.140625 19.511719 14.289062 19.511719 14.472656 L 19.511719 17.777344 C 19.511719 17.960938 19.371094 18.109375 19.199219 18.109375 L 19.164062 18.109375 C 18.992188 18.109375 18.851562 17.960938 18.851562 17.777344 L 18.851562 14.472656 C 18.851562 14.289062 18.992188 14.140625 19.164062 14.140625 Z M 19.164062 14.140625 "/>
<path style=" stroke:none;fill-rule:nonzero;fill:rgb(61.176473%,80.000001%,39.607844%);fill-opacity:1;" d="M 12.898438 14.140625 C 13.082031 14.140625 13.230469 14.289062 13.230469 14.472656 L 13.230469 17.777344 C 13.230469 17.960938 13.082031 18.109375 12.898438 18.109375 C 12.714844 18.109375 12.566406 17.960938 12.566406 17.777344 L 12.566406 14.472656 C 12.566406 14.289062 12.714844 14.140625 12.898438 14.140625 Z M 12.898438 14.140625 "/>
<path style=" stroke:none;fill-rule:nonzero;fill:rgb(61.176473%,80.000001%,39.607844%);fill-opacity:1;" d="M 12.238281 8.1875 C 12.417969 8.1875 12.566406 8.335938 12.566406 8.519531 L 12.566406 13.808594 C 12.566406 13.992188 12.417969 14.140625 12.238281 14.140625 C 12.054688 14.140625 11.90625 13.992188 11.90625 13.808594 L 11.90625 8.519531 C 11.90625 8.335938 12.054688 8.1875 12.238281 8.1875 Z M 12.238281 8.1875 "/>
<path style=" stroke:none;fill-rule:nonzero;fill:rgb(61.176473%,80.000001%,39.607844%);fill-opacity:1;" d="M 12.21875 18.109375 L 12.253906 18.109375 C 12.425781 18.109375 12.566406 18.257812 12.566406 18.441406 L 12.566406 23.730469 C 12.566406 23.914062 12.425781 24.0625 12.253906 24.0625 L 12.21875 24.0625 C 12.046875 24.0625 11.90625 23.914062 11.90625 23.730469 L 11.90625 18.441406 C 11.90625 18.257812 12.046875 18.109375 12.21875 18.109375 Z M 12.21875 18.109375 "/>
<path style=" stroke:none;fill-rule:nonzero;fill:rgb(100%,43.921569%,26.274511%);fill-opacity:1;" d="M 10.582031 18.109375 C 10.765625 18.109375 10.914062 18.257812 10.914062 18.441406 L 10.914062 23.730469 C 10.914062 23.914062 10.765625 24.0625 10.582031 24.0625 C 10.402344 24.0625 10.253906 23.914062 10.253906 23.730469 L 10.253906 18.441406 C 10.253906 18.257812 10.402344 18.109375 10.582031 18.109375 Z M 10.582031 18.109375 "/>
<path style=" stroke:none;fill-rule:nonzero;fill:rgb(93.725491%,32.549021%,31.37255%);fill-opacity:1;" d="M 8.929688 18.109375 C 9.113281 18.109375 9.261719 18.257812 9.261719 18.441406 L 9.261719 23.730469 C 9.261719 23.914062 9.113281 24.0625 8.929688 24.0625 C 8.746094 24.0625 8.597656 23.914062 8.597656 23.730469 L 8.597656 18.441406 C 8.597656 18.257812 8.746094 18.109375 8.929688 18.109375 Z M 8.929688 18.109375 "/>
<path style=" stroke:none;fill-rule:nonzero;fill:rgb(100%,43.921569%,26.274511%);fill-opacity:1;" d="M 10.582031 8.1875 C 10.765625 8.1875 10.914062 8.335938 10.914062 8.519531 L 10.914062 13.808594 C 10.914062 13.992188 10.765625 14.140625 10.582031 14.140625 C 10.402344 14.140625 10.253906 13.992188 10.253906 13.808594 L 10.253906 8.519531 C 10.253906 8.335938 10.402344 8.1875 10.582031 8.1875 Z M 10.582031 8.1875 "/>
<path style=" stroke:none;fill-rule:nonzero;fill:rgb(93.725491%,32.549021%,31.37255%);fill-opacity:1;" d="M 8.929688 8.1875 C 9.113281 8.1875 9.261719 8.335938 9.261719 8.519531 L 9.261719 13.808594 C 9.261719 13.992188 9.113281 14.140625 8.929688 14.140625 C 8.746094 14.140625 8.597656 13.992188 8.597656 13.808594 L 8.597656 8.519531 C 8.597656 8.335938 8.746094 8.1875 8.929688 8.1875 Z M 8.929688 8.1875 "/>
<path style=" stroke:none;fill-rule:nonzero;fill:rgb(93.725491%,32.549021%,31.37255%);fill-opacity:1;" d="M 23.152344 8.1875 C 23.332031 8.1875 23.480469 8.335938 23.480469 8.519531 L 23.480469 13.808594 C 23.480469 13.992188 23.332031 14.140625 23.152344 14.140625 C 22.96875 14.140625 22.820312 13.992188 22.820312 13.808594 L 22.820312 8.519531 C 22.820312 8.335938 22.96875 8.1875 23.152344 8.1875 Z M 23.152344 8.1875 "/>
<path style=" stroke:none;fill-rule:nonzero;fill:rgb(93.725491%,32.549021%,31.37255%);fill-opacity:1;" d="M 23.085938 18.109375 L 23.21875 18.109375 C 23.363281 18.109375 23.480469 18.257812 23.480469 18.441406 L 23.480469 23.730469 C 23.480469 23.914062 23.363281 24.0625 23.21875 24.0625 L 23.085938 24.0625 C 22.9375 24.0625 22.820312 23.914062 22.820312 23.730469 L 22.820312 18.441406 C 22.820312 18.257812 22.9375 18.109375 23.085938 18.109375 Z M 23.085938 18.109375 "/>
<path style=" stroke:none;fill-rule:nonzero;fill:rgb(100%,43.921569%,26.274511%);fill-opacity:1;" d="M 21.496094 18.109375 C 21.679688 18.109375 21.828125 18.257812 21.828125 18.441406 L 21.828125 23.730469 C 21.828125 23.914062 21.679688 24.0625 21.496094 24.0625 C 21.316406 24.0625 21.167969 23.914062 21.167969 23.730469 L 21.167969 18.441406 C 21.167969 18.257812 21.316406 18.109375 21.496094 18.109375 Z M 21.496094 18.109375 "/>
<path style=" stroke:none;fill-rule:nonzero;fill:rgb(61.176473%,80.000001%,39.607844%);fill-opacity:1;" d="M 19.84375 18.109375 C 20.027344 18.109375 20.175781 18.257812 20.175781 18.441406 L 20.175781 23.730469 C 20.175781 23.914062 20.027344 24.0625 19.84375 24.0625 C 19.660156 24.0625 19.511719 23.914062 19.511719 23.730469 L 19.511719 18.441406 C 19.511719 18.257812 19.660156 18.109375 19.84375 18.109375 Z M 19.84375 18.109375 "/>
<path style=" stroke:none;fill-rule:nonzero;fill:rgb(100%,43.921569%,26.274511%);fill-opacity:1;" d="M 21.496094 8.1875 C 21.679688 8.1875 21.828125 8.335938 21.828125 8.519531 L 21.828125 13.808594 C 21.828125 13.992188 21.679688 14.140625 21.496094 14.140625 C 21.316406 14.140625 21.167969 13.992188 21.167969 13.808594 L 21.167969 8.519531 C 21.167969 8.335938 21.316406 8.1875 21.496094 8.1875 Z M 21.496094 8.1875 "/>
<path style=" stroke:none;fill-rule:nonzero;fill:rgb(61.176473%,80.000001%,39.607844%);fill-opacity:1;" d="M 19.8125 8.1875 L 19.875 8.1875 C 20.042969 8.1875 20.175781 8.335938 20.175781 8.519531 L 20.175781 13.808594 C 20.175781 13.992188 20.042969 14.140625 19.875 14.140625 L 19.8125 14.140625 C 19.644531 14.140625 19.511719 13.992188 19.511719 13.808594 L 19.511719 8.519531 C 19.511719 8.335938 19.644531 8.1875 19.8125 8.1875 Z M 19.8125 8.1875 "/>
</g>
</svg>
