
<svg xmlns="http://www.w3.org/2000/svg" xmlns:xlink="http://www.w3.org/1999/xlink" width="32px" height="32px" viewBox="0 0 32 32" version="1.1">
<g id="surface1">
<path style=" stroke:none;fill-rule:nonzero;fill:rgb(74.117649%,74.117649%,74.117649%);fill-opacity:1;" d="M 22.160156 29.105469 L 26.457031 24.804688 L 23.152344 24.804688 C 22.601562 24.804688 22.160156 25.246094 22.160156 25.796875 Z M 22.160156 29.105469 "/>
<path style=" stroke:none;fill-rule:nonzero;fill:rgb(61.960787%,61.960787%,61.960787%);fill-opacity:1;" d="M 5.292969 1.324219 L 26.457031 1.324219 C 27.1875 1.324219 27.78125 1.914062 27.78125 2.644531 L 27.78125 29.105469 C 27.78125 29.835938 27.1875 30.425781 26.457031 30.425781 L 5.292969 30.425781 C 4.5625 30.425781 3.96875 29.835938 3.96875 29.105469 L 3.96875 2.644531 C 3.96875 1.914062 4.5625 1.324219 5.292969 1.324219 Z M 5.292969 1.324219 "/>
<path style=" stroke:none;fill-rule:nonzero;fill:rgb(100%,95.294118%,87.843138%);fill-opacity:1;" d="M 5.953125 2.644531 C 5.585938 2.644531 5.292969 2.941406 5.292969 3.308594 L 5.292969 28.441406 C 5.292969 28.808594 5.585938 29.105469 5.953125 29.105469 L 21.167969 29.105469 L 26.457031 23.8125 L 26.457031 3.308594 C 26.457031 2.941406 26.164062 2.644531 25.796875 2.644531 Z M 5.953125 2.644531 "/>
<path style=" stroke:none;fill-rule:nonzero;fill:rgb(87.843138%,87.843138%,87.843138%);fill-opacity:1;" d="M 7.277344 11.90625 L 11.90625 11.90625 L 11.90625 12.566406 L 7.277344 12.566406 Z M 7.277344 11.90625 "/>
<path style=" stroke:none;fill-rule:nonzero;fill:rgb(74.117649%,74.117649%,74.117649%);fill-opacity:1;" d="M 4.960938 1.324219 C 4.410156 1.324219 3.96875 1.765625 3.96875 2.316406 L 3.96875 6.613281 L 27.78125 6.613281 L 27.78125 2.316406 C 27.78125 1.765625 27.339844 1.324219 26.789062 1.324219 Z M 4.960938 1.324219 "/>
<path style=" stroke:none;fill-rule:nonzero;fill:rgb(12.941177%,12.941177%,12.941177%);fill-opacity:0.235294;" d="M 7.9375 3.308594 C 8.304688 3.308594 8.597656 3.601562 8.597656 3.96875 C 8.597656 4.335938 8.304688 4.628906 7.9375 4.628906 C 7.570312 4.628906 7.277344 4.335938 7.277344 3.96875 C 7.277344 3.601562 7.570312 3.308594 7.9375 3.308594 Z M 7.9375 3.308594 "/>
<path style=" stroke:none;fill-rule:nonzero;fill:rgb(87.843138%,87.843138%,87.843138%);fill-opacity:1;" d="M 7.9375 2.644531 C 7.203125 2.644531 6.613281 3.234375 6.613281 3.96875 C 6.613281 4.703125 7.203125 5.292969 7.9375 5.292969 C 8.671875 5.292969 9.261719 4.703125 9.261719 3.96875 C 9.261719 3.234375 8.671875 2.644531 7.9375 2.644531 Z M 7.9375 3.308594 C 8.304688 3.308594 8.597656 3.601562 8.597656 3.96875 C 8.597656 4.335938 8.304688 4.628906 7.9375 4.628906 C 7.570312 4.628906 7.277344 4.335938 7.277344 3.96875 C 7.277344 3.601562 7.570312 3.308594 7.9375 3.308594 Z M 7.9375 3.308594 "/>
<path style=" stroke:none;fill-rule:nonzero;fill:rgb(12.941177%,12.941177%,12.941177%);fill-opacity:0.235294;" d="M 15.875 3.308594 C 16.242188 3.308594 16.535156 3.601562 16.535156 3.96875 C 16.535156 4.335938 16.242188 4.628906 15.875 4.628906 C 15.507812 4.628906 15.214844 4.335938 15.214844 3.96875 C 15.214844 3.601562 15.507812 3.308594 15.875 3.308594 Z M 15.875 3.308594 "/>
<path style=" stroke:none;fill-rule:nonzero;fill:rgb(87.843138%,87.843138%,87.843138%);fill-opacity:1;" d="M 15.875 2.644531 C 15.140625 2.644531 14.550781 3.234375 14.550781 3.96875 C 14.550781 4.703125 15.140625 5.292969 15.875 5.292969 C 16.609375 5.292969 17.199219 4.703125 17.199219 3.96875 C 17.199219 3.234375 16.609375 2.644531 15.875 2.644531 Z M 15.875 3.308594 C 16.242188 3.308594 16.535156 3.601562 16.535156 3.96875 C 16.535156 4.335938 16.242188 4.628906 15.875 4.628906 C 15.507812 4.628906 15.214844 4.335938 15.214844 3.96875 C 15.214844 3.601562 15.507812 3.308594 15.875 3.308594 Z M 15.875 3.308594 "/>
<path style=" stroke:none;fill-rule:nonzero;fill:rgb(12.941177%,12.941177%,12.941177%);fill-opacity:0.235294;" d="M 23.8125 3.308594 C 24.179688 3.308594 24.472656 3.601562 24.472656 3.96875 C 24.472656 4.335938 24.179688 4.628906 23.8125 4.628906 C 23.445312 4.628906 23.152344 4.335938 23.152344 3.96875 C 23.152344 3.601562 23.445312 3.308594 23.8125 3.308594 Z M 23.8125 3.308594 "/>
<path style=" stroke:none;fill-rule:nonzero;fill:rgb(87.843138%,87.843138%,87.843138%);fill-opacity:1;" d="M 23.8125 2.644531 C 23.078125 2.644531 22.488281 3.234375 22.488281 3.96875 C 22.488281 4.703125 23.078125 5.292969 23.8125 5.292969 C 24.546875 5.292969 25.136719 4.703125 25.136719 3.96875 C 25.136719 3.234375 24.546875 2.644531 23.8125 2.644531 Z M 23.8125 3.308594 C 24.179688 3.308594 24.472656 3.601562 24.472656 3.96875 C 24.472656 4.335938 24.179688 4.628906 23.8125 4.628906 C 23.445312 4.628906 23.152344 4.335938 23.152344 3.96875 C 23.152344 3.601562 23.445312 3.308594 23.8125 3.308594 Z M 23.8125 3.308594 "/>
<path style=" stroke:none;fill-rule:nonzero;fill:rgb(100%,80.000001%,50.196081%);fill-opacity:1;" d="M 26.457031 23.8125 L 21.167969 29.105469 L 25.796875 29.105469 C 26.164062 29.105469 26.457031 28.808594 26.457031 28.441406 Z M 26.457031 23.8125 "/>
<path style=" stroke:none;fill-rule:nonzero;fill:rgb(100%,87.843138%,69.803923%);fill-opacity:1;" d="M 21.167969 29.105469 L 26.457031 23.8125 L 21.828125 23.8125 C 21.460938 23.8125 21.167969 24.109375 21.167969 24.472656 Z M 21.167969 29.105469 "/>
<path style=" stroke:none;fill-rule:nonzero;fill:rgb(87.843138%,87.843138%,87.843138%);fill-opacity:1;" d="M 7.277344 14.550781 L 22.488281 14.550781 L 22.488281 15.214844 L 7.277344 15.214844 Z M 7.277344 14.550781 "/>
<path style=" stroke:none;fill-rule:nonzero;fill:rgb(87.843138%,87.843138%,87.843138%);fill-opacity:1;" d="M 8.109375 19.183594 L 15.214844 19.183594 L 15.214844 19.84375 L 8.109375 19.84375 Z M 8.109375 19.183594 "/>
<path style=" stroke:none;fill-rule:nonzero;fill:rgb(87.843138%,87.843138%,87.843138%);fill-opacity:1;" d="M 7.277344 21.828125 L 15.875 21.828125 L 15.875 22.488281 L 7.277344 22.488281 Z M 7.277344 21.828125 "/>
<path style=" stroke:none;fill-rule:nonzero;fill:rgb(87.843138%,87.843138%,87.843138%);fill-opacity:1;" d="M 9.261719 16.535156 L 17.859375 16.535156 L 17.859375 17.199219 L 9.261719 17.199219 Z M 9.261719 16.535156 "/>
<path style=" stroke:none;fill-rule:nonzero;fill:rgb(87.843138%,87.843138%,87.843138%);fill-opacity:1;" d="M 16.707031 19.183594 L 23.8125 19.183594 L 23.8125 19.84375 L 16.707031 19.84375 Z M 16.707031 19.183594 "/>
<path style=" stroke:none;fill-rule:nonzero;fill:rgb(87.843138%,87.843138%,87.843138%);fill-opacity:1;" d="M 7.277344 7.9375 L 23.8125 7.9375 L 23.8125 8.597656 L 7.277344 8.597656 Z M 7.277344 7.9375 "/>
<path style=" stroke:none;fill-rule:nonzero;fill:rgb(87.843138%,87.843138%,87.843138%);fill-opacity:1;" d="M 7.277344 9.921875 L 15.875 9.921875 L 15.875 10.582031 L 7.277344 10.582031 Z M 7.277344 9.921875 "/>
<path style=" stroke:none;fill-rule:nonzero;fill:rgb(87.843138%,87.843138%,87.843138%);fill-opacity:1;" d="M 7.277344 24.472656 L 11.246094 24.472656 L 11.246094 25.136719 L 7.277344 25.136719 Z M 7.277344 24.472656 "/>
<path style=" stroke:none;fill-rule:nonzero;fill:rgb(87.843138%,87.843138%,87.843138%);fill-opacity:1;" d="M 13.230469 24.472656 L 19.183594 24.472656 L 19.183594 25.136719 L 13.230469 25.136719 Z M 13.230469 24.472656 "/>
<path style=" stroke:none;fill-rule:nonzero;fill:rgb(87.843138%,87.843138%,87.843138%);fill-opacity:1;" d="M 8.597656 26.457031 L 14.550781 26.457031 L 14.550781 27.121094 L 8.597656 27.121094 Z M 8.597656 26.457031 "/>
<path style=" stroke:none;fill-rule:nonzero;fill:rgb(38.039216%,38.039216%,38.039216%);fill-opacity:1;" d="M 18.359375 12.898438 C 18.691406 12.898438 18.953125 12.890625 19.230469 12.953125 C 19.507812 13.011719 19.816406 13.21875 19.957031 13.5 C 20.210938 14.011719 20.183594 14.652344 20.175781 15.730469 L 21.226562 16.257812 C 21.390625 16.339844 21.496094 16.511719 21.496094 16.699219 C 21.496094 16.886719 21.390625 17.054688 21.226562 17.140625 L 20.175781 17.664062 C 20.183594 18.742188 20.210938 19.386719 19.957031 19.894531 C 19.816406 20.179688 19.507812 20.382812 19.230469 20.445312 C 18.953125 20.507812 18.691406 20.5 18.359375 20.5 C 18.085938 20.5 17.867188 20.277344 17.867188 20.003906 C 17.867188 19.734375 18.085938 19.511719 18.359375 19.511719 C 18.691406 19.511719 18.921875 19.503906 19.015625 19.484375 C 19.113281 19.460938 19.050781 19.503906 19.074219 19.453125 C 19.125 19.359375 19.191406 18.683594 19.191406 17.359375 C 19.191406 17.171875 19.296875 17.003906 19.460938 16.917969 L 19.902344 16.699219 L 19.460938 16.476562 C 19.296875 16.394531 19.191406 16.222656 19.191406 16.035156 C 19.191406 14.714844 19.125 14.039062 19.074219 13.941406 C 19.050781 13.894531 19.113281 13.933594 19.015625 13.914062 C 18.921875 13.890625 18.691406 13.882812 18.359375 13.882812 C 18.085938 13.882812 17.867188 13.664062 17.867188 13.390625 C 17.867188 13.117188 18.085938 12.898438 18.359375 12.898438 Z M 18.359375 12.898438 "/>
<path style=" stroke:none;fill-rule:nonzero;fill:rgb(38.039216%,38.039216%,38.039216%);fill-opacity:1;" d="M 13.390625 12.898438 C 13.058594 12.898438 12.796875 12.890625 12.519531 12.953125 C 12.242188 13.011719 11.933594 13.21875 11.792969 13.5 C 11.539062 14.011719 11.566406 14.652344 11.574219 15.730469 L 10.523438 16.257812 C 10.359375 16.339844 10.253906 16.511719 10.253906 16.699219 C 10.253906 16.886719 10.359375 17.054688 10.523438 17.140625 L 11.574219 17.664062 C 11.566406 18.742188 11.539062 19.386719 11.792969 19.894531 C 11.933594 20.179688 12.242188 20.382812 12.519531 20.445312 C 12.796875 20.507812 13.058594 20.5 13.390625 20.5 C 13.664062 20.5 13.882812 20.277344 13.882812 20.003906 C 13.882812 19.734375 13.664062 19.511719 13.390625 19.511719 C 13.058594 19.511719 12.828125 19.503906 12.734375 19.484375 C 12.636719 19.460938 12.699219 19.503906 12.675781 19.453125 C 12.625 19.359375 12.558594 18.683594 12.558594 17.359375 C 12.558594 17.171875 12.453125 17.003906 12.289062 16.917969 L 11.847656 16.699219 L 12.289062 16.476562 C 12.453125 16.394531 12.558594 16.222656 12.558594 16.035156 C 12.558594 14.714844 12.625 14.039062 12.675781 13.941406 C 12.699219 13.894531 12.636719 13.933594 12.734375 13.914062 C 12.828125 13.890625 13.058594 13.882812 13.390625 13.882812 C 13.664062 13.882812 13.882812 13.664062 13.882812 13.390625 C 13.882812 13.117188 13.664062 12.898438 13.390625 12.898438 Z M 13.390625 12.898438 "/>
</g>
</svg>
