<?xml version="1.0" encoding="UTF-8"?>
<svg xmlns="http://www.w3.org/2000/svg" xmlns:xlink="http://www.w3.org/1999/xlink" width="32px" height="32px" viewBox="0 0 32 32" version="1.1">
<g id="surface1">
<path style=" stroke:none;fill-rule:nonzero;fill:rgb(14.901961%,65.098041%,60.392159%);fill-opacity:1;" d="M 2.644531 1.574219 C 1.914062 1.574219 1.324219 2.164062 1.324219 2.894531 L 1.324219 16.125 L 15.875 16.125 L 15.875 1.574219 Z M 2.644531 1.574219 "/>
<path style=" stroke:none;fill-rule:nonzero;fill:rgb(92.54902%,25.098041%,47.843137%);fill-opacity:1;" d="M 29.105469 1.574219 C 29.835938 1.574219 30.425781 2.164062 30.425781 2.894531 L 30.425781 16.125 L 15.875 16.125 L 15.875 1.574219 Z M 29.105469 1.574219 "/>
<path style=" stroke:none;fill-rule:nonzero;fill:rgb(49.411765%,34.117648%,76.078433%);fill-opacity:1;" d="M 2.644531 30.675781 C 1.914062 30.675781 1.324219 30.085938 1.324219 29.355469 L 1.324219 16.125 L 15.875 16.125 L 15.875 30.675781 Z M 2.644531 30.675781 "/>
<path style=" stroke:none;fill-rule:nonzero;fill:rgb(14.901961%,65.098041%,60.392159%);fill-opacity:1;" d="M 29.105469 30.675781 C 29.835938 30.675781 30.425781 30.085938 30.425781 29.355469 L 30.425781 16.125 L 15.875 16.125 L 15.875 30.675781 Z M 29.105469 30.675781 "/>
<path style=" stroke:none;fill-rule:nonzero;fill:rgb(25.882354%,25.882354%,25.882354%);fill-opacity:1;" d="M 7.894531 6.90625 L 23.855469 6.90625 C 24.5625 6.90625 25.136719 7.480469 25.136719 8.1875 L 25.136719 24.722656 C 25.136719 25.433594 24.5625 26.003906 23.855469 26.003906 L 7.894531 26.003906 C 7.1875 26.003906 6.613281 25.433594 6.613281 24.722656 L 6.613281 8.1875 C 6.613281 7.480469 7.1875 6.90625 7.894531 6.90625 Z M 7.894531 6.90625 "/>
<path style=" stroke:none;fill-rule:nonzero;fill:rgb(93.333334%,93.333334%,93.333334%);fill-opacity:1;" d="M 19.84375 10.832031 C 18.011719 10.832031 16.535156 12.308594 16.535156 14.140625 L 16.535156 18.109375 C 16.535156 19.941406 18.011719 21.417969 19.84375 21.417969 L 20.503906 21.417969 C 22.335938 21.417969 23.8125 19.941406 23.8125 18.109375 C 23.8125 18.050781 23.796875 17.992188 23.769531 17.945312 C 23.796875 17.894531 23.8125 17.839844 23.8125 17.777344 L 23.8125 17.117188 C 23.8125 16.933594 23.664062 16.785156 23.480469 16.785156 L 20.835938 16.785156 C 20.652344 16.785156 20.503906 16.933594 20.503906 17.117188 L 20.503906 17.777344 C 20.503906 17.960938 20.652344 18.109375 20.835938 18.109375 L 22.488281 18.109375 C 22.488281 19.207031 21.605469 20.09375 20.503906 20.09375 L 19.84375 20.09375 C 18.746094 20.09375 17.859375 19.207031 17.859375 18.109375 L 17.859375 14.140625 C 17.859375 13.042969 18.746094 12.15625 19.84375 12.15625 L 20.503906 12.15625 C 21.605469 12.15625 22.488281 13.042969 22.488281 14.140625 C 22.488281 14.324219 22.636719 14.472656 22.820312 14.472656 L 23.480469 14.472656 C 23.664062 14.472656 23.8125 14.324219 23.8125 14.140625 C 23.8125 12.308594 22.335938 10.832031 20.503906 10.832031 Z M 19.84375 10.832031 "/>
<path style=" stroke:none;fill-rule:nonzero;fill:rgb(93.333334%,93.333334%,93.333334%);fill-opacity:1;" d="M 8.269531 10.832031 C 8.085938 10.832031 7.9375 10.980469 7.9375 11.164062 L 7.9375 21.085938 C 7.9375 21.246094 8.050781 21.378906 8.203125 21.410156 C 8.207031 21.410156 8.210938 21.410156 8.21875 21.414062 C 8.234375 21.414062 8.25 21.417969 8.269531 21.417969 L 12.238281 21.417969 C 12.289062 21.417969 12.339844 21.402344 12.382812 21.382812 C 13.988281 21.152344 15.214844 19.78125 15.214844 18.109375 L 15.214844 14.140625 C 15.214844 12.46875 13.988281 11.097656 12.382812 10.867188 C 12.339844 10.847656 12.289062 10.832031 12.238281 10.832031 Z M 9.261719 12.15625 L 11.90625 12.15625 C 13.003906 12.15625 13.890625 13.042969 13.890625 14.140625 L 13.890625 18.109375 C 13.890625 19.207031 13.003906 20.09375 11.90625 20.09375 L 9.261719 20.09375 Z M 9.261719 12.15625 "/>
</g>
</svg>
