<?xml version="1.0" encoding="UTF-8"?>
<svg xmlns="http://www.w3.org/2000/svg" xmlns:xlink="http://www.w3.org/1999/xlink" width="32px" height="32px" viewBox="0 0 32 32" version="1.1">
<g id="surface1">
<path style=" stroke:none;fill-rule:nonzero;fill:rgb(38.039216%,38.039216%,38.039216%);fill-opacity:1;" d="M 5.796875 6.863281 L 6.753906 8.78125 L 15.875 27.023438 L 25.953125 6.863281 Z M 10.078125 9.511719 L 21.671875 9.511719 L 15.875 21.101562 Z M 10.078125 9.511719 "/>
<path style=" stroke:none;fill-rule:nonzero;fill:rgb(25.882354%,25.882354%,25.882354%);fill-opacity:1;" d="M 7.9375 1.574219 C 11.589844 1.574219 14.550781 4.535156 14.550781 8.1875 C 14.550781 11.839844 11.589844 14.800781 7.9375 14.800781 C 4.285156 14.800781 1.324219 11.839844 1.324219 8.1875 C 1.324219 4.535156 4.285156 1.574219 7.9375 1.574219 Z M 7.9375 1.574219 "/>
<path style=" stroke:none;fill-rule:nonzero;fill:rgb(25.882354%,64.705884%,96.078432%);fill-opacity:1;" d="M 23.8125 1.574219 C 27.464844 1.574219 30.425781 4.535156 30.425781 8.1875 C 30.425781 11.839844 27.464844 14.800781 23.8125 14.800781 C 20.160156 14.800781 17.199219 11.839844 17.199219 8.1875 C 17.199219 4.535156 20.160156 1.574219 23.8125 1.574219 Z M 23.8125 1.574219 "/>
<path style=" stroke:none;fill-rule:nonzero;fill:rgb(93.725491%,32.549021%,31.37255%);fill-opacity:1;" d="M 15.875 17.449219 C 19.527344 17.449219 22.488281 20.410156 22.488281 24.0625 C 22.488281 27.714844 19.527344 30.675781 15.875 30.675781 C 12.222656 30.675781 9.261719 27.714844 9.261719 24.0625 C 9.261719 20.410156 12.222656 17.449219 15.875 17.449219 Z M 15.875 17.449219 "/>
</g>
</svg>
