<?xml version="1.0" encoding="UTF-8"?>
<svg xmlns="http://www.w3.org/2000/svg" xmlns:xlink="http://www.w3.org/1999/xlink" width="32px" height="32px" viewBox="0 0 32 32" version="1.1">
<g id="surface1">
<path style=" stroke:none;fill-rule:nonzero;fill:rgb(87.843138%,87.843138%,87.843138%);fill-opacity:1;" d="M 5.292969 1.574219 L 26.457031 1.574219 C 27.1875 1.574219 27.78125 2.164062 27.78125 2.894531 L 27.78125 20.09375 C 27.78125 20.824219 27.1875 21.417969 26.457031 21.417969 L 5.292969 21.417969 C 4.5625 21.417969 3.96875 20.824219 3.96875 20.09375 L 3.96875 2.894531 C 3.96875 2.164062 4.5625 1.574219 5.292969 1.574219 Z M 5.292969 1.574219 "/>
<path style=" stroke:none;fill-rule:nonzero;fill:rgb(93.333334%,93.333334%,93.333334%);fill-opacity:1;" d="M 2.644531 20.09375 L 29.105469 20.09375 C 29.835938 20.09375 30.425781 20.6875 30.425781 21.417969 L 30.425781 29.355469 C 30.425781 30.085938 29.835938 30.675781 29.105469 30.675781 L 2.644531 30.675781 C 1.914062 30.675781 1.324219 30.085938 1.324219 29.355469 L 1.324219 21.417969 C 1.324219 20.6875 1.914062 20.09375 2.644531 20.09375 Z M 2.644531 20.09375 "/>
<path style=" stroke:none;fill-rule:nonzero;fill:rgb(14.901961%,65.098041%,60.392159%);fill-opacity:1;" d="M 6.285156 3.558594 L 14.222656 3.558594 C 14.402344 3.558594 14.550781 3.707031 14.550781 3.886719 L 14.550781 4.550781 C 14.550781 4.730469 14.402344 4.878906 14.222656 4.878906 L 6.285156 4.878906 C 6.101562 4.878906 5.953125 4.730469 5.953125 4.550781 L 5.953125 3.886719 C 5.953125 3.707031 6.101562 3.558594 6.285156 3.558594 Z M 6.285156 3.558594 "/>
<path style=" stroke:none;fill-rule:nonzero;fill:rgb(25.882354%,64.705884%,96.078432%);fill-opacity:1;" d="M 17.527344 3.558594 L 25.464844 3.558594 C 25.648438 3.558594 25.796875 3.707031 25.796875 3.886719 L 25.796875 4.550781 C 25.796875 4.730469 25.648438 4.878906 25.464844 4.878906 L 17.527344 4.878906 C 17.347656 4.878906 17.199219 4.730469 17.199219 4.550781 L 17.199219 3.886719 C 17.199219 3.707031 17.347656 3.558594 17.527344 3.558594 Z M 17.527344 3.558594 "/>
<path style=" stroke:none;fill-rule:nonzero;fill:rgb(14.901961%,65.098041%,60.392159%);fill-opacity:1;" d="M 3.96875 26.046875 C 3.96875 25.679688 4.265625 25.386719 4.628906 25.386719 L 12.566406 25.386719 L 12.566406 23.402344 L 16.535156 26.707031 L 12.566406 30.015625 L 12.566406 28.03125 L 4.628906 28.03125 C 4.265625 28.03125 3.96875 27.734375 3.96875 27.371094 Z M 3.96875 26.046875 "/>
<path style=" stroke:none;fill-rule:nonzero;fill:rgb(61.960787%,61.960787%,61.960787%);fill-opacity:1;" d="M 6.285156 6.863281 L 14.222656 6.863281 C 14.402344 6.863281 14.550781 7.011719 14.550781 7.195312 L 14.550781 7.855469 C 14.550781 8.039062 14.402344 8.1875 14.222656 8.1875 L 6.285156 8.1875 C 6.101562 8.1875 5.953125 8.039062 5.953125 7.855469 L 5.953125 7.195312 C 5.953125 7.011719 6.101562 6.863281 6.285156 6.863281 Z M 6.285156 6.863281 "/>
<path style=" stroke:none;fill-rule:nonzero;fill:rgb(61.960787%,61.960787%,61.960787%);fill-opacity:1;" d="M 17.527344 6.863281 L 25.464844 6.863281 C 25.648438 6.863281 25.796875 7.011719 25.796875 7.195312 L 25.796875 7.855469 C 25.796875 8.039062 25.648438 8.1875 25.464844 8.1875 L 17.527344 8.1875 C 17.347656 8.1875 17.199219 8.039062 17.199219 7.855469 L 17.199219 7.195312 C 17.199219 7.011719 17.347656 6.863281 17.527344 6.863281 Z M 17.527344 6.863281 "/>
<path style=" stroke:none;fill-rule:nonzero;fill:rgb(61.960787%,61.960787%,61.960787%);fill-opacity:1;" d="M 6.285156 10.171875 L 14.222656 10.171875 C 14.402344 10.171875 14.550781 10.320312 14.550781 10.503906 L 14.550781 11.164062 C 14.550781 11.347656 14.402344 11.496094 14.222656 11.496094 L 6.285156 11.496094 C 6.101562 11.496094 5.953125 11.347656 5.953125 11.164062 L 5.953125 10.503906 C 5.953125 10.320312 6.101562 10.171875 6.285156 10.171875 Z M 6.285156 10.171875 "/>
<path style=" stroke:none;fill-rule:nonzero;fill:rgb(61.960787%,61.960787%,61.960787%);fill-opacity:1;" d="M 17.527344 10.171875 L 25.464844 10.171875 C 25.648438 10.171875 25.796875 10.320312 25.796875 10.503906 L 25.796875 11.164062 C 25.796875 11.347656 25.648438 11.496094 25.464844 11.496094 L 17.527344 11.496094 C 17.347656 11.496094 17.199219 11.347656 17.199219 11.164062 L 17.199219 10.503906 C 17.199219 10.320312 17.347656 10.171875 17.527344 10.171875 Z M 17.527344 10.171875 "/>
<path style=" stroke:none;fill-rule:nonzero;fill:rgb(61.960787%,61.960787%,61.960787%);fill-opacity:1;" d="M 6.285156 13.480469 L 14.222656 13.480469 C 14.402344 13.480469 14.550781 13.628906 14.550781 13.808594 L 14.550781 14.472656 C 14.550781 14.652344 14.402344 14.800781 14.222656 14.800781 L 6.285156 14.800781 C 6.101562 14.800781 5.953125 14.652344 5.953125 14.472656 L 5.953125 13.808594 C 5.953125 13.628906 6.101562 13.480469 6.285156 13.480469 Z M 6.285156 13.480469 "/>
<path style=" stroke:none;fill-rule:nonzero;fill:rgb(61.960787%,61.960787%,61.960787%);fill-opacity:1;" d="M 17.527344 13.480469 L 25.464844 13.480469 C 25.648438 13.480469 25.796875 13.628906 25.796875 13.808594 L 25.796875 14.472656 C 25.796875 14.652344 25.648438 14.800781 25.464844 14.800781 L 17.527344 14.800781 C 17.347656 14.800781 17.199219 14.652344 17.199219 14.472656 L 17.199219 13.808594 C 17.199219 13.628906 17.347656 13.480469 17.527344 13.480469 Z M 17.527344 13.480469 "/>
<path style=" stroke:none;fill-rule:nonzero;fill:rgb(61.960787%,61.960787%,61.960787%);fill-opacity:1;" d="M 6.285156 16.785156 L 14.222656 16.785156 C 14.402344 16.785156 14.550781 16.933594 14.550781 17.117188 L 14.550781 17.777344 C 14.550781 17.960938 14.402344 18.109375 14.222656 18.109375 L 6.285156 18.109375 C 6.101562 18.109375 5.953125 17.960938 5.953125 17.777344 L 5.953125 17.117188 C 5.953125 16.933594 6.101562 16.785156 6.285156 16.785156 Z M 6.285156 16.785156 "/>
<path style=" stroke:none;fill-rule:nonzero;fill:rgb(61.960787%,61.960787%,61.960787%);fill-opacity:1;" d="M 17.527344 16.785156 L 25.464844 16.785156 C 25.648438 16.785156 25.796875 16.933594 25.796875 17.117188 L 25.796875 17.777344 C 25.796875 17.960938 25.648438 18.109375 25.464844 18.109375 L 17.527344 18.109375 C 17.347656 18.109375 17.199219 17.960938 17.199219 17.777344 L 17.199219 17.117188 C 17.199219 16.933594 17.347656 16.785156 17.527344 16.785156 Z M 17.527344 16.785156 "/>
<path style=" stroke:none;fill-rule:nonzero;fill:rgb(25.882354%,64.705884%,96.078432%);fill-opacity:1;" d="M 27.78125 23.402344 C 27.78125 23.035156 27.484375 22.738281 27.121094 22.738281 L 19.183594 22.738281 L 19.183594 20.753906 L 15.214844 24.0625 L 19.183594 27.371094 L 19.183594 25.386719 L 27.121094 25.386719 C 27.484375 25.386719 27.78125 25.089844 27.78125 24.722656 Z M 27.78125 23.402344 "/>
</g>
</svg>
