<?xml version="1.0" encoding="UTF-8"?>
<svg xmlns="http://www.w3.org/2000/svg" xmlns:xlink="http://www.w3.org/1999/xlink" width="32px" height="32px" viewBox="0 0 32 32" version="1.1">
<g id="surface1">
<path style="fill-rule:nonzero;fill:rgb(48.627451%,70.19608%,25.882354%);fill-opacity:1;stroke-width:0.264583;stroke-linecap:round;stroke-linejoin:round;stroke:rgb(96.078432%,96.078432%,96.078432%);stroke-opacity:1;stroke-miterlimit:4;" d="M 80.125 -112.0625 C 58.5625 -88 42.625 -60 32.75 -30.125 L 84.6875 21.8125 L 84.6875 64.1875 L 32.8125 116 C 37.75 130.8125 44.25 145.375 52.375 159.4375 C 60.5 173.5 69.8125 186.375 80.1875 198.0625 L 151 179.0625 L 187.6875 200.25 L 206.6875 271.1875 C 237.5 277.5625 269.75 277.75 301.3125 271.125 L 320.3125 200.25 L 357 179.0625 L 427.875 198.0625 C 449.4375 174 465.375 146 475.25 116.125 L 423.3125 64.1875 L 423.3125 21.8125 L 475.1875 -30 C 470.25 -44.8125 463.75 -59.375 455.625 -73.4375 C 447.5 -87.5 438.1875 -100.375 427.8125 -112.0625 L 357 -93.0625 L 320.3125 -114.25 L 301.3125 -185.1875 C 270.5 -191.5625 238.25 -191.75 206.6875 -185.125 L 187.6875 -114.25 L 151 -93.0625 Z M 80.125 -112.0625 " transform="matrix(0.0625,0,0,0.0625,0,13.4375)"/>
<path style=" stroke:none;fill-rule:nonzero;fill:rgb(61.176473%,80.000001%,39.607844%);fill-opacity:1;" d="M 15.875 5.542969 C 21.71875 5.542969 26.457031 10.28125 26.457031 16.125 C 26.457031 21.96875 21.71875 26.707031 15.875 26.707031 C 10.03125 26.707031 5.292969 21.96875 5.292969 16.125 C 5.292969 10.28125 10.03125 5.542969 15.875 5.542969 Z M 15.875 5.542969 "/>
<path style=" stroke:none;fill-rule:nonzero;fill:rgb(48.627451%,70.19608%,25.882354%);fill-opacity:1;" d="M 11.246094 8.847656 C 11.609375 8.847656 11.90625 9.144531 11.90625 9.511719 L 11.90625 22.738281 C 11.90625 23.105469 11.609375 23.402344 11.246094 23.402344 C 10.878906 23.402344 10.582031 23.105469 10.582031 22.738281 L 10.582031 9.511719 C 10.582031 9.144531 10.878906 8.847656 11.246094 8.847656 Z M 11.246094 8.847656 "/>
<path style=" stroke:none;fill-rule:nonzero;fill:rgb(25.882354%,25.882354%,25.882354%);fill-opacity:1;" d="M 11.246094 16.125 C 11.609375 16.125 11.90625 16.421875 11.90625 16.785156 L 11.90625 22.738281 C 11.90625 23.105469 11.609375 23.402344 11.246094 23.402344 C 10.878906 23.402344 10.582031 23.105469 10.582031 22.738281 L 10.582031 16.785156 C 10.582031 16.421875 10.878906 16.125 11.246094 16.125 Z M 11.246094 16.125 "/>
<path style=" stroke:none;fill-rule:nonzero;fill:rgb(87.843138%,87.843138%,87.843138%);fill-opacity:1;" d="M 11.246094 14.140625 C 12.339844 14.140625 13.230469 15.027344 13.230469 16.125 C 13.230469 17.222656 12.339844 18.109375 11.246094 18.109375 C 10.148438 18.109375 9.261719 17.222656 9.261719 16.125 C 9.261719 15.027344 10.148438 14.140625 11.246094 14.140625 Z M 11.246094 14.140625 "/>
<path style=" stroke:none;fill-rule:nonzero;fill:rgb(48.627451%,70.19608%,25.882354%);fill-opacity:1;" d="M 15.875 8.847656 C 16.242188 8.847656 16.535156 9.144531 16.535156 9.511719 L 16.535156 22.738281 C 16.535156 23.105469 16.242188 23.402344 15.875 23.402344 C 15.507812 23.402344 15.214844 23.105469 15.214844 22.738281 L 15.214844 9.511719 C 15.214844 9.144531 15.507812 8.847656 15.875 8.847656 Z M 15.875 8.847656 "/>
<path style=" stroke:none;fill-rule:nonzero;fill:rgb(48.627451%,70.19608%,25.882354%);fill-opacity:1;" d="M 20.503906 8.847656 C 20.871094 8.847656 21.167969 9.144531 21.167969 9.511719 L 21.167969 22.738281 C 21.167969 23.105469 20.871094 23.402344 20.503906 23.402344 C 20.140625 23.402344 19.84375 23.105469 19.84375 22.738281 L 19.84375 9.511719 C 19.84375 9.144531 20.140625 8.847656 20.503906 8.847656 Z M 20.503906 8.847656 "/>
<path style=" stroke:none;fill-rule:nonzero;fill:rgb(25.882354%,25.882354%,25.882354%);fill-opacity:1;" d="M 20.503906 12.15625 C 20.871094 12.15625 21.167969 12.453125 21.167969 12.816406 L 21.167969 22.738281 C 21.167969 23.105469 20.871094 23.402344 20.503906 23.402344 C 20.140625 23.402344 19.84375 23.105469 19.84375 22.738281 L 19.84375 12.816406 C 19.84375 12.453125 20.140625 12.15625 20.503906 12.15625 Z M 20.503906 12.15625 "/>
<path style=" stroke:none;fill-rule:nonzero;fill:rgb(87.843138%,87.843138%,87.843138%);fill-opacity:1;" d="M 20.503906 10.171875 C 21.601562 10.171875 22.488281 11.058594 22.488281 12.15625 C 22.488281 13.253906 21.601562 14.140625 20.503906 14.140625 C 19.410156 14.140625 18.519531 13.253906 18.519531 12.15625 C 18.519531 11.058594 19.410156 10.171875 20.503906 10.171875 Z M 20.503906 10.171875 "/>
<path style=" stroke:none;fill-rule:nonzero;fill:rgb(25.882354%,25.882354%,25.882354%);fill-opacity:1;" d="M 15.875 18.769531 C 16.242188 18.769531 16.535156 19.066406 16.535156 19.433594 L 16.535156 22.738281 C 16.535156 23.105469 16.242188 23.402344 15.875 23.402344 C 15.507812 23.402344 15.214844 23.105469 15.214844 22.738281 L 15.214844 19.433594 C 15.214844 19.066406 15.507812 18.769531 15.875 18.769531 Z M 15.875 18.769531 "/>
<path style=" stroke:none;fill-rule:nonzero;fill:rgb(87.843138%,87.843138%,87.843138%);fill-opacity:1;" d="M 15.875 18.109375 C 16.972656 18.109375 17.859375 18.996094 17.859375 20.09375 C 17.859375 21.191406 16.972656 22.078125 15.875 22.078125 C 14.777344 22.078125 13.890625 21.191406 13.890625 20.09375 C 13.890625 18.996094 14.777344 18.109375 15.875 18.109375 Z M 15.875 18.109375 "/>
</g>
</svg>
