<?xml version="1.0" encoding="UTF-8"?>
<svg xmlns="http://www.w3.org/2000/svg" xmlns:xlink="http://www.w3.org/1999/xlink" width="32px" height="32px" viewBox="0 0 32 32" version="1.1">
<g id="surface1">
<path style=" stroke:none;fill-rule:nonzero;fill:rgb(25.882354%,25.882354%,25.882354%);fill-opacity:1;" d="M 19.957031 11.886719 C 19.957031 11.886719 17.03125 6.328125 22.097656 5.269531 C 27.164062 4.207031 30.542969 3.5 30.542969 3.5 C 30.542969 3.5 30.621094 12.300781 27.242188 13.007812 C 23.863281 13.714844 22.175781 14.066406 22.175781 14.066406 Z M 19.957031 11.886719 "/>
<path style=" stroke:none;fill-rule:nonzero;fill:rgb(97.254902%,73.333335%,81.568629%);fill-opacity:1;" d="M 20.011719 12.429688 C 20.011719 12.429688 17.699219 8.035156 21.703125 7.199219 L 28.378906 5.800781 C 28.378906 5.800781 28.265625 11.910156 25.59375 12.472656 L 21.589844 13.308594 Z M 20.011719 12.429688 "/>
<path style=" stroke:none;fill-rule:nonzero;fill:rgb(25.882354%,25.882354%,25.882354%);fill-opacity:1;" d="M 11.792969 11.886719 C 11.792969 11.886719 14.71875 6.328125 9.652344 5.269531 C 4.585938 4.207031 1.207031 3.5 1.207031 3.5 C 1.207031 3.5 1.128906 12.300781 4.507812 13.007812 C 7.886719 13.714844 9.574219 14.066406 9.574219 14.066406 Z M 11.792969 11.886719 "/>
<path style=" stroke:none;fill-rule:nonzero;fill:rgb(97.254902%,73.333335%,81.568629%);fill-opacity:1;" d="M 11.738281 12.429688 C 11.738281 12.429688 14.050781 8.035156 10.046875 7.199219 L 3.371094 5.800781 C 3.371094 5.800781 3.484375 11.910156 6.15625 12.472656 L 10.160156 13.308594 Z M 11.738281 12.429688 "/>
<path style=" stroke:none;fill-rule:nonzero;fill:rgb(25.882354%,25.882354%,25.882354%);fill-opacity:1;" d="M 14.582031 3.261719 C 14.683594 4.570312 15.011719 4.554688 14.582031 5.851562 L 12.855469 4.125 C 13.285156 5.417969 14.519531 6.761719 14.148438 7.574219 L 14.160156 7.574219 C 14.152344 7.613281 14.148438 7.648438 14.148438 7.683594 C 14.148438 8.222656 14.917969 8.65625 15.875 8.65625 C 16.832031 8.65625 17.601562 8.222656 17.601562 7.683594 C 17.601562 7.648438 17.597656 7.613281 17.589844 7.574219 L 17.601562 7.574219 C 17.59375 7.5625 17.585938 7.546875 17.578125 7.527344 C 17.570312 7.496094 17.558594 7.464844 17.542969 7.429688 C 17.265625 6.574219 18.101562 5.347656 19.328125 4.125 C 18.304688 4.464844 17.632812 4.59375 17.332031 5.226562 C 17.488281 4.386719 17.324219 3.96875 18.03125 3.261719 C 16.738281 3.691406 16.304688 4.554688 16.304688 5.851562 C 15.875 4.554688 15.625 4.480469 14.582031 3.261719 Z M 14.582031 3.261719 "/>
<path style=" stroke:none;fill-rule:nonzero;fill:rgb(96.078432%,96.078432%,96.078432%);fill-opacity:1;" d="M 15.875 4.824219 C 10.128906 4.824219 5.234375 8.203125 4.988281 13.738281 C 4.925781 14.082031 4.902344 14.371094 4.964844 14.636719 C 4.957031 14.714844 4.949219 14.796875 4.9375 14.875 C 4.402344 14.460938 4.023438 14.3125 3.796875 13.453125 C 3.570312 14.558594 3.894531 15.296875 4.640625 15.886719 C 4.605469 15.96875 4.566406 16.054688 4.527344 16.132812 C 3.71875 16.039062 3.351562 16.203125 2.070312 16.441406 C 3.019531 16.898438 3.304688 16.796875 3.851562 17.269531 C 3.703125 17.5 3.554688 17.734375 3.410156 17.976562 L 1.953125 18.367188 C 2.328125 18.445312 2.734375 18.46875 3.140625 18.480469 C 2.773438 19.214844 3.019531 20.074219 3.019531 21.21875 C 3.019531 27.257812 12.421875 28.984375 15.875 28.984375 C 19.328125 28.984375 28.816406 27.257812 28.816406 21.21875 C 28.816406 20.074219 28.976562 19.214844 28.613281 18.480469 C 29.039062 18.472656 29.46875 18.449219 29.859375 18.367188 L 28.328125 17.957031 C 28.195312 17.734375 28.058594 17.519531 27.921875 17.308594 C 28.492188 16.792969 28.769531 16.910156 29.746094 16.441406 C 28.429688 16.199219 28.078125 16.03125 27.226562 16.140625 C 27.191406 16.070312 27.15625 15.996094 27.125 15.925781 C 27.90625 15.328125 28.25 14.582031 28.019531 13.453125 C 27.78125 14.34375 27.386719 14.472656 26.820312 14.917969 C 26.8125 14.878906 26.804688 14.835938 26.800781 14.789062 C 26.960938 14.375 26.867188 13.902344 26.730469 13.261719 C 26.230469 8.007812 21.453125 4.824219 15.875 4.824219 Z M 15.875 4.824219 "/>
<path style=" stroke:none;fill-rule:nonzero;fill:rgb(87.843138%,87.843138%,87.843138%);fill-opacity:1;" d="M 15.875 19.894531 C 17.78125 19.894531 19.328125 20.976562 19.328125 22.3125 L 19.328125 23.519531 C 19.328125 24.855469 17.78125 25.933594 15.875 25.933594 C 13.96875 25.933594 12.421875 24.855469 12.421875 23.519531 L 12.421875 22.3125 C 12.421875 20.976562 13.96875 19.894531 15.875 19.894531 Z M 15.875 19.894531 "/>
<path style=" stroke:none;fill-rule:nonzero;fill:rgb(100%,43.921569%,26.274511%);fill-opacity:1;" d="M 15.875 4.824219 C 10.128906 4.824219 5.234375 8.203125 4.988281 13.738281 C 4.925781 14.082031 4.902344 14.371094 4.964844 14.636719 C 4.957031 14.714844 4.949219 14.796875 4.9375 14.875 C 4.402344 14.460938 4.023438 14.3125 3.796875 13.453125 C 3.570312 14.558594 3.894531 15.296875 4.640625 15.886719 C 4.605469 15.96875 4.566406 16.054688 4.527344 16.132812 C 3.71875 16.039062 3.351562 16.203125 2.070312 16.441406 C 3.019531 16.898438 3.304688 16.796875 3.851562 17.269531 C 3.703125 17.5 3.554688 17.734375 3.410156 17.976562 L 1.953125 18.367188 C 2.328125 18.445312 2.734375 18.46875 3.140625 18.480469 C 2.773438 19.214844 3.019531 20.074219 3.019531 21.21875 C 3.019531 22.558594 3.480469 23.6875 4.238281 24.628906 C 3.554688 15.234375 9.78125 23.671875 11.128906 16.445312 C 12.109375 17.746094 12.421875 19.03125 13.285156 16.445312 C 15.011719 10.402344 9.835938 15.867188 8.109375 13.855469 L 10.699219 11.265625 L 13.285156 11.265625 L 13.285156 9.542969 C 16.460938 10.40625 19.21875 10.585938 18.503906 5.070312 C 17.65625 4.910156 16.777344 4.824219 15.875 4.824219 Z M 15.875 4.824219 "/>
<path style=" stroke:none;fill-rule:nonzero;fill:rgb(25.882354%,25.882354%,25.882354%);fill-opacity:1;" d="M 17.125 4.878906 C 17.765625 7.355469 17.554688 10.167969 15.011719 9.542969 C 10.472656 8.445312 9.53125 6.445312 8.109375 12.128906 L 8.109375 12.992188 C 8.929688 20.371094 14.542969 14.71875 15.875 14.71875 C 17.601562 14.71875 18.464844 16.445312 19.894531 17.960938 C 21.484375 19.894531 26.496094 21.488281 28.839844 20.316406 C 28.867188 19.601562 28.875 19.007812 28.613281 18.480469 C 29.039062 18.472656 29.46875 18.449219 29.859375 18.367188 L 28.328125 17.957031 C 28.195312 17.734375 28.058594 17.519531 27.921875 17.308594 C 28.492188 16.792969 28.769531 16.910156 29.746094 16.441406 C 28.429688 16.199219 28.078125 16.03125 27.226562 16.140625 C 27.191406 16.070312 27.15625 15.996094 27.125 15.925781 C 27.90625 15.328125 28.25 14.582031 28.019531 13.453125 C 27.78125 14.34375 27.386719 14.472656 26.820312 14.917969 C 26.8125 14.878906 26.804688 14.835938 26.800781 14.789062 C 26.960938 14.375 26.867188 13.902344 26.730469 13.261719 C 26.269531 8.40625 22.152344 5.320312 17.125 4.878906 Z M 17.125 4.878906 "/>
<path style=" stroke:none;fill-rule:nonzero;fill:rgb(89.803922%,45.09804%,45.09804%);fill-opacity:1;" d="M 15.875 19.894531 C 17.304688 19.894531 18.464844 20.707031 18.464844 21.707031 L 18.464844 22.613281 C 18.464844 23.613281 17.304688 24.425781 15.875 24.425781 C 14.445312 24.425781 13.285156 23.613281 13.285156 22.613281 L 13.285156 21.707031 C 13.285156 20.707031 14.445312 19.894531 15.875 19.894531 Z M 15.875 19.894531 "/>
<path style=" stroke:none;fill-rule:nonzero;fill:rgb(87.843138%,87.843138%,87.843138%);fill-opacity:1;" d="M 9.285156 20.128906 L 9.285156 20.195312 C 9.285156 22.003906 10.757812 23.457031 12.582031 23.457031 C 14.40625 23.457031 15.875 22.566406 15.875 20.757812 C 15.875 22.566406 17.34375 23.457031 19.167969 23.457031 C 20.992188 23.457031 22.464844 22.003906 22.464844 20.195312 L 22.464844 20.128906 C 22.53125 15.300781 9.21875 15.300781 9.285156 20.128906 Z M 15.863281 19.863281 L 15.886719 19.863281 C 15.878906 19.953125 15.875 20.667969 15.875 20.757812 C 15.875 20.667969 15.871094 19.953125 15.863281 19.863281 Z M 15.863281 19.863281 "/>
<path style=" stroke:none;fill-rule:nonzero;fill:rgb(95.686275%,56.078434%,69.411767%);fill-opacity:1;" d="M 15.875 15.582031 C 14.699219 15.582031 13.699219 16.449219 13.285156 17.683594 C 13.699219 18.921875 14.699219 19.789062 15.875 19.789062 C 17.050781 19.789062 18.050781 18.921875 18.464844 17.683594 C 18.050781 16.449219 17.050781 15.582031 15.875 15.582031 Z M 15.875 15.582031 "/>
<path style=" stroke:none;fill-rule:nonzero;fill:rgb(96.078432%,96.078432%,96.078432%);fill-opacity:0.995763;" d="M 10.269531 11.402344 C 11.976562 10.945312 13.617188 11.523438 13.929688 12.695312 C 14.242188 13.867188 13.113281 15.1875 11.40625 15.648438 C 9.699219 16.105469 8.0625 15.523438 7.746094 14.351562 C 7.433594 13.179688 8.5625 11.859375 10.269531 11.402344 Z M 10.269531 11.402344 "/>
<path style=" stroke:none;fill-rule:nonzero;fill:rgb(100%,65.490198%,14.901961%);fill-opacity:0.995763;" d="M 10.785156 11.945312 C 11.601562 11.472656 12.640625 11.753906 13.113281 12.566406 C 13.582031 13.382812 13.304688 14.425781 12.488281 14.894531 C 11.675781 15.363281 10.632812 15.085938 10.164062 14.269531 C 9.691406 13.457031 9.972656 12.414062 10.785156 11.945312 Z M 10.785156 11.945312 "/>
<path style=" stroke:none;fill-rule:nonzero;fill:rgb(25.882354%,25.882354%,25.882354%);fill-opacity:0.995763;" d="M 11.394531 12.539062 C 11.929688 12.230469 12.609375 12.414062 12.917969 12.945312 C 13.226562 13.480469 13.042969 14.164062 12.511719 14.46875 C 11.976562 14.777344 11.292969 14.59375 10.984375 14.0625 C 10.679688 13.527344 10.859375 12.847656 11.394531 12.539062 Z M 11.394531 12.539062 "/>
<path style=" stroke:none;fill-rule:nonzero;fill:rgb(96.078432%,96.078432%,96.078432%);fill-opacity:0.995763;" d="M 21.464844 11.402344 C 19.757812 10.945312 18.117188 11.523438 17.804688 12.695312 C 17.488281 13.867188 18.617188 15.1875 20.328125 15.648438 C 22.035156 16.105469 23.671875 15.523438 23.984375 14.351562 C 24.300781 13.179688 23.171875 11.859375 21.464844 11.402344 Z M 21.464844 11.402344 "/>
<path style=" stroke:none;fill-rule:nonzero;fill:rgb(100%,65.490198%,14.901961%);fill-opacity:0.995763;" d="M 20.949219 11.945312 C 20.132812 11.472656 19.089844 11.753906 18.621094 12.566406 C 18.148438 13.382812 18.429688 14.425781 19.242188 14.894531 C 20.058594 15.363281 21.101562 15.085938 21.570312 14.269531 C 22.042969 13.457031 21.761719 12.414062 20.949219 11.945312 Z M 20.949219 11.945312 "/>
<path style=" stroke:none;fill-rule:nonzero;fill:rgb(25.882354%,25.882354%,25.882354%);fill-opacity:0.995763;" d="M 20.339844 12.539062 C 19.804688 12.230469 19.121094 12.414062 18.8125 12.945312 C 18.507812 13.480469 18.6875 14.164062 19.222656 14.46875 C 19.757812 14.777344 20.4375 14.59375 20.746094 14.0625 C 21.054688 13.527344 20.871094 12.847656 20.339844 12.539062 Z M 20.339844 12.539062 "/>
</g>
</svg>
