<?xml version="1.0" encoding="UTF-8"?>
<svg xmlns="http://www.w3.org/2000/svg" xmlns:xlink="http://www.w3.org/1999/xlink" width="32px" height="32px" viewBox="0 0 32 32" version="1.1">
<g id="surface1">
<path style=" stroke:none;fill-rule:nonzero;fill:rgb(93.333334%,93.333334%,93.333334%);fill-opacity:1;" d="M 27.78125 24.863281 C 24.414062 27.335938 7.335938 27.335938 3.96875 24.863281 C 0.601562 22.390625 0.601562 9.859375 3.96875 7.390625 C 7.335938 4.917969 24.414062 4.917969 27.78125 7.390625 C 31.148438 9.859375 31.148438 22.390625 27.78125 24.863281 Z M 27.78125 24.863281 "/>
<path style=" stroke:none;fill-rule:nonzero;fill:rgb(93.725491%,32.549021%,31.37255%);fill-opacity:1;" d="M 13.230469 10.832031 C 12.875 10.84375 12.59375 11.136719 12.59375 11.492188 L 12.59375 20.75 C 12.59375 21.269531 13.167969 21.585938 13.605469 21.308594 L 20.878906 16.675781 C 21.289062 16.417969 21.289062 15.824219 20.878906 15.566406 L 13.605469 10.9375 C 13.492188 10.863281 13.363281 10.828125 13.230469 10.832031 Z M 13.230469 10.832031 "/>
</g>
</svg>
