
<svg xmlns="http://www.w3.org/2000/svg" xmlns:xlink="http://www.w3.org/1999/xlink" width="32px" height="32px" viewBox="0 0 32 32" version="1.1">
<g id="surface1">
<path style=" stroke:none;fill-rule:nonzero;fill:rgb(92.54902%,25.098041%,47.843137%);fill-opacity:1;" d="M 23.152344 3.96875 C 21.535156 3.96875 20.070312 4.605469 19 5.648438 C 18.21875 5.414062 17.394531 5.292969 16.535156 5.292969 C 12.433594 5.292969 9.019531 8.136719 8.152344 11.96875 C 7.867188 11.929688 7.574219 11.90625 7.277344 11.90625 C 3.976562 11.90625 1.324219 14.5625 1.324219 17.859375 C 1.324219 21.15625 3.976562 23.8125 7.277344 23.8125 C 7.347656 23.8125 7.417969 23.8125 7.488281 23.808594 C 8.511719 24.640625 9.820312 25.136719 11.246094 25.136719 C 11.710938 25.136719 12.167969 25.082031 12.601562 24.980469 C 13.652344 25.902344 15.027344 26.457031 16.535156 26.457031 C 17.234375 26.457031 17.902344 26.339844 18.519531 26.121094 C 19.140625 26.339844 19.808594 26.457031 20.503906 26.457031 C 23.199219 26.457031 25.464844 24.683594 26.203125 22.234375 C 28.652344 21.496094 30.425781 19.230469 30.425781 16.535156 C 30.425781 14.859375 29.738281 13.34375 28.628906 12.265625 C 28.933594 11.546875 29.105469 10.753906 29.105469 9.921875 C 29.105469 6.625 26.449219 3.96875 23.152344 3.96875 Z M 23.152344 3.96875 "/>
<path style=" stroke:none;fill-rule:nonzero;fill:rgb(92.54902%,25.098041%,47.843137%);fill-opacity:1;" d="M 5.292969 1.984375 C 6.753906 1.984375 7.9375 3.167969 7.9375 4.628906 C 7.9375 6.089844 6.753906 7.277344 5.292969 7.277344 C 3.832031 7.277344 2.644531 6.089844 2.644531 4.628906 C 2.644531 3.167969 3.832031 1.984375 5.292969 1.984375 Z M 5.292969 1.984375 "/>
<path style=" stroke:none;fill-rule:nonzero;fill:rgb(67.058825%,27.843139%,73.725492%);fill-opacity:1;" d="M 4.960938 24.472656 C 5.875 24.472656 6.613281 25.214844 6.613281 26.128906 C 6.613281 27.039062 5.875 27.78125 4.960938 27.78125 C 4.046875 27.78125 3.308594 27.039062 3.308594 26.128906 C 3.308594 25.214844 4.046875 24.472656 4.960938 24.472656 Z M 4.960938 24.472656 "/>
<path style=" stroke:none;fill-rule:nonzero;fill:rgb(67.058825%,27.843139%,73.725492%);fill-opacity:1;" d="M 9.261719 9.261719 C 9.992188 9.261719 10.582031 9.851562 10.582031 10.582031 C 10.582031 11.3125 9.992188 11.90625 9.261719 11.90625 C 8.53125 11.90625 7.9375 11.3125 7.9375 10.582031 C 7.9375 9.851562 8.53125 9.261719 9.261719 9.261719 Z M 9.261719 9.261719 "/>
<path style=" stroke:none;fill-rule:nonzero;fill:rgb(67.058825%,27.843139%,73.725492%);fill-opacity:1;" d="M 12.238281 5.953125 C 13.148438 5.953125 13.890625 6.695312 13.890625 7.605469 C 13.890625 8.519531 13.148438 9.261719 12.238281 9.261719 C 11.324219 9.261719 10.582031 8.519531 10.582031 7.605469 C 10.582031 6.695312 11.324219 5.953125 12.238281 5.953125 Z M 12.238281 5.953125 "/>
<path style=" stroke:none;fill-rule:nonzero;fill:rgb(67.058825%,27.843139%,73.725492%);fill-opacity:1;" d="M 15.542969 11.246094 C 14.757812 11.246094 14.03125 11.492188 13.4375 11.910156 C 13.371094 11.90625 13.300781 11.90625 13.230469 11.90625 C 11.976562 11.90625 10.867188 12.480469 10.140625 13.378906 C 9.863281 13.28125 9.570312 13.230469 9.261719 13.230469 C 7.792969 13.230469 6.613281 14.410156 6.613281 15.875 C 6.613281 16.132812 6.652344 16.378906 6.71875 16.617188 C 5.890625 16.855469 5.292969 17.613281 5.292969 18.519531 C 5.292969 19.621094 6.175781 20.503906 7.277344 20.503906 C 7.351562 20.503906 7.421875 20.5 7.492188 20.492188 C 7.960938 20.914062 8.582031 21.167969 9.261719 21.167969 C 9.714844 21.167969 10.140625 21.054688 10.511719 20.851562 C 10.996094 21.449219 11.738281 21.828125 12.566406 21.828125 C 13.246094 21.828125 13.859375 21.578125 14.328125 21.160156 C 14.957031 21.582031 15.71875 21.828125 16.535156 21.828125 C 18.734375 21.828125 20.503906 20.058594 20.503906 17.859375 C 20.503906 16.679688 19.996094 15.621094 19.183594 14.898438 C 19.183594 14.890625 19.183594 14.886719 19.183594 14.882812 C 19.183594 12.867188 17.558594 11.246094 15.542969 11.246094 Z M 15.542969 11.246094 "/>
<path style=" stroke:none;fill-rule:nonzero;fill:rgb(67.058825%,27.843139%,73.725492%);fill-opacity:1;" d="M 24.804688 13.230469 C 25.71875 13.230469 26.457031 13.96875 26.457031 14.882812 C 26.457031 15.796875 25.71875 16.535156 24.804688 16.535156 C 23.890625 16.535156 23.152344 15.796875 23.152344 14.882812 C 23.152344 13.96875 23.890625 13.230469 24.804688 13.230469 Z M 24.804688 13.230469 "/>
<path style=" stroke:none;fill-rule:nonzero;fill:rgb(67.058825%,27.843139%,73.725492%);fill-opacity:1;" d="M 19.183594 23.152344 C 20.277344 23.152344 21.167969 24.039062 21.167969 25.136719 C 21.167969 26.230469 20.277344 27.121094 19.183594 27.121094 C 18.085938 27.121094 17.199219 26.230469 17.199219 25.136719 C 17.199219 24.039062 18.085938 23.152344 19.183594 23.152344 Z M 19.183594 23.152344 "/>
<path style=" stroke:none;fill-rule:nonzero;fill:rgb(93.333334%,93.333334%,93.333334%);fill-opacity:1;" d="M 7.9375 15.875 C 8.886719 15.621094 10.726562 18.390625 11.644531 18.742188 C 12.5625 19.09375 15.78125 18.265625 16.316406 19.09375 C 16.855469 19.917969 14.789062 22.519531 14.738281 23.503906 C 14.683594 24.488281 16.46875 27.292969 15.847656 28.054688 C 15.230469 28.820312 12.113281 27.660156 11.164062 27.914062 C 10.214844 28.171875 8.097656 30.730469 7.175781 30.378906 C 6.257812 30.027344 6.398438 26.707031 5.863281 25.882812 C 5.328125 25.054688 2.238281 23.832031 2.289062 22.851562 C 2.339844 21.867188 5.542969 20.976562 6.160156 20.210938 C 6.78125 19.445312 6.988281 16.128906 7.9375 15.875 Z M 7.9375 15.875 "/>
<path style=" stroke:none;fill-rule:nonzero;fill:rgb(16.078432%,71.372551%,96.470588%);fill-opacity:1;" d="M 8.113281 16.535156 C 8.980469 16.304688 10.652344 18.824219 11.488281 19.148438 C 12.324219 19.46875 15.253906 18.714844 15.742188 19.464844 C 16.230469 20.214844 14.351562 22.585938 14.304688 23.480469 C 14.257812 24.375 15.878906 26.929688 15.316406 27.625 C 14.753906 28.320312 11.917969 27.265625 11.050781 27.496094 C 10.1875 27.730469 8.257812 30.0625 7.421875 29.742188 C 6.585938 29.417969 6.714844 26.398438 6.226562 25.644531 C 5.738281 24.894531 2.925781 23.78125 2.972656 22.886719 C 3.019531 21.992188 5.933594 21.179688 6.496094 20.484375 C 7.0625 19.789062 7.25 16.769531 8.113281 16.535156 Z M 8.113281 16.535156 "/>
<path style=" stroke:none;fill-rule:nonzero;fill:rgb(88.235295%,96.078432%,99.607843%);fill-opacity:1;" d="M 8.824219 19.183594 C 9.347656 19.042969 10.363281 20.570312 10.867188 20.765625 C 11.375 20.957031 13.152344 20.5 13.445312 20.957031 C 13.742188 21.410156 12.601562 22.847656 12.574219 23.390625 C 12.546875 23.933594 13.527344 25.480469 13.1875 25.902344 C 12.84375 26.324219 11.128906 25.683594 10.601562 25.824219 C 10.078125 25.964844 8.910156 27.378906 8.40625 27.183594 C 7.898438 26.988281 7.976562 25.15625 7.679688 24.703125 C 7.382812 24.246094 5.679688 23.574219 5.707031 23.03125 C 5.734375 22.488281 7.5 21.996094 7.84375 21.574219 C 8.183594 21.152344 8.300781 19.324219 8.824219 19.183594 Z M 8.824219 19.183594 "/>
<path style=" stroke:none;fill-rule:nonzero;fill:rgb(94.117647%,38.431373%,57.254905%);fill-opacity:1;" d="M 26.457031 1.324219 C 24.257812 1.324219 22.488281 3.09375 22.488281 5.292969 C 22.488281 5.515625 22.507812 5.738281 22.542969 5.953125 L 22.488281 5.953125 C 22.488281 4.121094 21.015625 2.644531 19.183594 2.644531 C 17.351562 2.644531 15.875 4.121094 15.875 5.953125 C 15.597656 10.339844 18.769531 13.753906 21.828125 17.199219 C 24.472656 13.558594 30.425781 12.238281 30.425781 5.292969 C 30.425781 3.09375 28.65625 1.324219 26.457031 1.324219 Z M 26.457031 1.324219 "/>
<path style=" stroke:none;fill-rule:nonzero;fill:rgb(98.039216%,98.039216%,98.039216%);fill-opacity:1;" d="M 26.183594 1.984375 C 24.167969 1.984375 22.542969 3.605469 22.542969 5.621094 C 22.542969 5.828125 22.5625 6.03125 22.59375 6.230469 L 22.542969 6.230469 C 22.542969 4.550781 21.191406 3.195312 19.511719 3.195312 C 17.832031 3.195312 16.480469 4.550781 16.480469 6.230469 C 16.226562 10.25 19.132812 13.378906 21.9375 16.535156 C 24.363281 13.203125 29.820312 11.988281 29.820312 5.621094 C 29.820312 3.605469 28.199219 1.984375 26.183594 1.984375 Z M 26.183594 1.984375 "/>
<path style=" stroke:none;fill-rule:nonzero;fill:rgb(94.117647%,38.431373%,57.254905%);fill-opacity:1;" d="M 25.351562 3.96875 C 23.886719 3.96875 22.707031 5.148438 22.707031 6.613281 C 22.707031 6.765625 22.71875 6.914062 22.742188 7.054688 L 22.707031 7.054688 C 22.707031 5.835938 21.722656 4.851562 20.503906 4.851562 C 19.28125 4.851562 18.296875 5.835938 18.296875 7.054688 C 18.113281 9.980469 20.226562 12.253906 22.265625 14.550781 C 24.03125 12.125 28 11.246094 28 6.613281 C 28 5.148438 26.820312 3.96875 25.351562 3.96875 Z M 25.351562 3.96875 "/>
</g>
</svg>
