
<svg xmlns="http://www.w3.org/2000/svg" xmlns:xlink="http://www.w3.org/1999/xlink" width="32px" height="32px" viewBox="0 0 32 32" version="1.1">
<defs>
<filter id="alpha" filterUnits="objectBoundingBox" x="0%" y="0%" width="100%" height="100%">
  <feColorMatrix type="matrix" in="SourceGraphic" values="0 0 0 0 1 0 0 0 0 1 0 0 0 0 1 0 0 0 1 0"/>
</filter>
<mask id="mask0">
  <g filter="url(#alpha)">
<rect x="0" y="0" width="32" height="32" style="fill:rgb(0%,0%,0%);fill-opacity:0.986432;stroke:none;"/>
  </g>
</mask>
<clipPath id="clip1">
  <rect x="0" y="0" width="32" height="32"/>
</clipPath>
<g id="surface5" clip-path="url(#clip1)">
<path style=" stroke:none;fill-rule:nonzero;fill:rgb(98.431373%,54.901963%,0%);fill-opacity:1;" d="M 11.246094 15.875 C 11.09375 16.175781 10.996094 16.535156 10.882812 16.851562 L 20.976562 20.316406 C 21.050781 19.941406 21.113281 19.5625 21.167969 19.183594 Z M 11.246094 15.875 "/>
</g>
</defs>
<g id="surface1">
<path style=" stroke:none;fill-rule:nonzero;fill:rgb(100%,65.490198%,14.901961%);fill-opacity:1;" d="M 10.980469 16.570312 L 21.167969 19.183594 C 20.503906 23.8125 18.519531 28.441406 15.875 30.425781 C 15.875 30.425781 7.277344 30.425781 2.644531 21.828125 C 5.292969 21.167969 10.152344 19.214844 10.980469 16.570312 Z M 10.980469 16.570312 "/>
<use xlink:href="#surface5" mask="url(#mask0)"/>
<path style=" stroke:none;fill-rule:nonzero;fill:rgb(25.882354%,25.882354%,25.882354%);fill-opacity:1;" d="M 20.53125 1.335938 C 19.828125 1.144531 19.101562 1.5625 18.914062 2.269531 L 15.144531 16.328125 C 14.957031 17.03125 15.375 17.757812 16.082031 17.945312 C 16.789062 18.136719 17.511719 17.714844 17.703125 17.011719 L 21.46875 2.953125 C 21.65625 2.25 21.238281 1.523438 20.53125 1.335938 Z M 20.53125 1.335938 "/>
<path style=" stroke:none;fill-rule:nonzero;fill:rgb(38.039216%,38.039216%,38.039216%);fill-opacity:1;" d="M 17.449219 12.835938 C 20.28125 13.59375 21.953125 16.484375 21.191406 19.316406 L 10.96875 16.578125 C 11.730469 13.746094 14.621094 12.078125 17.449219 12.835938 Z M 17.449219 12.835938 "/>
<path style=" stroke:none;fill-rule:nonzero;fill:rgb(96.078432%,48.627451%,0%);fill-opacity:1;" d="M 9.71875 20.65625 C 8.007812 22.367188 5.707031 23.339844 3.886719 23.8125 C 4.203125 24.253906 4.53125 24.664062 4.867188 25.046875 C 6.894531 23.960938 8.484375 23.125 9.71875 20.65625 Z M 13.6875 21.316406 C 11.929688 23.660156 9.023438 26.191406 6.921875 27.007812 C 7.472656 27.445312 8.027344 27.824219 8.578125 28.160156 C 10.34375 27.15625 12.511719 24.257812 13.6875 21.316406 Z M 16.332031 24.625 C 15.152344 26.980469 12.972656 28.6875 11.472656 29.53125 C 12.113281 29.761719 12.710938 29.929688 13.25 30.058594 C 15.152344 28.269531 16.332031 25.882812 16.332031 24.625 Z M 16.332031 24.625 "/>
</g>
</svg>
