<?xml version="1.0" encoding="UTF-8"?>
<svg xmlns="http://www.w3.org/2000/svg" xmlns:xlink="http://www.w3.org/1999/xlink" width="32px" height="32px" viewBox="0 0 32 32" version="1.1">
<g id="surface1">
<path style=" stroke:none;fill-rule:nonzero;fill:rgb(40.000001%,73.333335%,41.568628%);fill-opacity:1;" d="M 15.875 1.574219 C 9.277344 1.574219 3.96875 6.882812 3.96875 13.480469 L 3.96875 27.371094 C 3.96875 29.203125 5.445312 30.675781 7.277344 30.675781 C 9.109375 30.675781 10.582031 29.203125 10.582031 27.371094 L 10.582031 23.402344 C 10.582031 22.851562 11.027344 22.410156 11.574219 22.410156 C 12.125 22.410156 12.566406 22.851562 12.566406 23.402344 L 12.566406 27.371094 C 12.566406 29.203125 14.042969 30.675781 15.875 30.675781 C 17.707031 30.675781 19.183594 29.203125 19.183594 27.371094 L 19.183594 23.402344 C 19.183594 22.851562 19.625 22.410156 20.175781 22.410156 C 20.722656 22.410156 21.167969 22.851562 21.167969 23.402344 L 21.167969 27.371094 C 21.167969 29.203125 22.640625 30.675781 24.472656 30.675781 C 26.304688 30.675781 27.78125 29.203125 27.78125 27.371094 L 27.78125 13.480469 C 27.78125 6.882812 22.472656 1.574219 15.875 1.574219 Z M 15.875 1.574219 "/>
<path style=" stroke:none;fill-rule:nonzero;fill:rgb(96.078432%,96.078432%,96.078432%);fill-opacity:0.995763;" d="M 8.898438 10.597656 C 10.449219 9.050781 12.753906 8.839844 14.042969 10.132812 C 15.335938 11.421875 15.125 13.726562 13.578125 15.277344 C 12.027344 16.828125 9.722656 17.035156 8.429688 15.746094 C 7.140625 14.453125 7.347656 12.148438 8.898438 10.597656 Z M 8.898438 10.597656 "/>
<path style=" stroke:none;fill-rule:nonzero;fill:rgb(25.882354%,25.882354%,25.882354%);fill-opacity:0.995763;" d="M 12.40625 11.769531 C 12.925781 11.253906 13.761719 11.253906 14.277344 11.769531 C 14.792969 12.285156 14.792969 13.121094 14.277344 13.640625 C 13.761719 14.15625 12.925781 14.15625 12.40625 13.640625 C 11.890625 13.121094 11.890625 12.285156 12.40625 11.769531 Z M 12.40625 11.769531 "/>
<path style=" stroke:none;fill-rule:nonzero;fill:rgb(96.078432%,96.078432%,96.078432%);fill-opacity:0.995763;" d="M 22.851562 10.597656 C 21.300781 9.050781 18.996094 8.839844 17.707031 10.132812 C 16.414062 11.421875 16.625 13.726562 18.171875 15.277344 C 19.722656 16.828125 22.027344 17.035156 23.320312 15.746094 C 24.609375 14.453125 24.402344 12.148438 22.851562 10.597656 Z M 22.851562 10.597656 "/>
<path style=" stroke:none;fill-rule:nonzero;fill:rgb(25.882354%,25.882354%,25.882354%);fill-opacity:0.995763;" d="M 19.34375 11.769531 C 18.824219 11.253906 17.988281 11.253906 17.472656 11.769531 C 16.957031 12.285156 16.957031 13.121094 17.472656 13.640625 C 17.988281 14.15625 18.824219 14.15625 19.34375 13.640625 C 19.859375 13.121094 19.859375 12.285156 19.34375 11.769531 Z M 19.34375 11.769531 "/>
</g>
</svg>
