<?xml version="1.0" encoding="UTF-8"?>
<svg xmlns="http://www.w3.org/2000/svg" xmlns:xlink="http://www.w3.org/1999/xlink" width="32px" height="32px" viewBox="0 0 32 32" version="1.1">
<g id="surface1">
<path style=" stroke:none;fill-rule:nonzero;fill:rgb(93.725491%,32.549021%,31.37255%);fill-opacity:1;" d="M 15.875 1.574219 C 8.546875 1.574219 2.644531 8.0625 2.644531 16.125 C 2.644531 24.1875 8.546875 30.675781 15.875 30.675781 L 15.875 26.707031 C 12.210938 26.707031 9.261719 21.988281 9.261719 16.125 C 9.261719 10.261719 12.210938 5.542969 15.875 5.542969 Z M 15.875 1.574219 "/>
<path style=" stroke:none;fill-rule:nonzero;fill:rgb(87.843138%,87.843138%,87.843138%);fill-opacity:1;" d="M 15.875 1.574219 L 15.875 5.542969 C 19.539062 5.542969 22.488281 10.261719 22.488281 16.125 C 22.488281 21.988281 19.539062 26.707031 15.875 26.707031 L 15.875 30.675781 C 23.203125 30.675781 29.105469 24.1875 29.105469 16.125 C 29.105469 8.0625 23.203125 1.574219 15.875 1.574219 Z M 15.875 1.574219 "/>
<path style=" stroke:none;fill-rule:nonzero;fill:rgb(89.803922%,22.352941%,20.784314%);fill-opacity:1;" d="M 15.875 4.878906 C 11.476562 4.878906 7.9375 9.894531 7.9375 16.125 C 7.9375 22.355469 11.476562 27.371094 15.875 27.371094 L 15.875 26.707031 C 12.210938 26.707031 9.261719 21.988281 9.261719 16.125 C 9.261719 10.261719 12.210938 5.542969 15.875 5.542969 Z M 15.875 4.878906 "/>
<path style=" stroke:none;fill-rule:nonzero;fill:rgb(74.117649%,74.117649%,74.117649%);fill-opacity:1;" d="M 15.875 4.878906 L 15.875 5.542969 C 19.539062 5.542969 22.488281 10.261719 22.488281 16.125 C 22.488281 21.988281 19.539062 26.707031 15.875 26.707031 L 15.875 27.371094 C 20.273438 27.371094 23.8125 22.355469 23.8125 16.125 C 23.8125 9.894531 20.273438 4.878906 15.875 4.878906 Z M 15.875 4.878906 "/>
</g>
</svg>
