
<svg xmlns="http://www.w3.org/2000/svg" xmlns:xlink="http://www.w3.org/1999/xlink" width="32px" height="32px" viewBox="0 0 32 32" version="1.1">
<g id="surface1">
<path style=" stroke:none;fill-rule:nonzero;fill:rgb(74.117649%,74.117649%,74.117649%);fill-opacity:1;" d="M 11.246094 1.324219 L 20.503906 1.324219 C 21.234375 1.324219 21.828125 1.914062 21.828125 2.644531 L 21.828125 13.890625 C 21.828125 14.621094 21.234375 15.214844 20.503906 15.214844 L 11.246094 15.214844 C 10.515625 15.214844 9.921875 14.621094 9.921875 13.890625 L 9.921875 2.644531 C 9.921875 1.914062 10.515625 1.324219 11.246094 1.324219 Z M 11.246094 1.324219 "/>
<path style=" stroke:none;fill-rule:nonzero;fill:rgb(25.882354%,25.882354%,25.882354%);fill-opacity:1;" d="M 8.597656 16.535156 L 23.152344 16.535156 L 23.152344 25.796875 L 8.597656 25.796875 Z M 8.597656 16.535156 "/>
<path style=" stroke:none;fill-rule:nonzero;fill:rgb(100%,65.490198%,14.901961%);fill-opacity:1;" d="M 11.742188 3.308594 L 12.070312 3.308594 C 12.34375 3.308594 12.566406 3.601562 12.566406 3.96875 L 12.566406 9.261719 C 12.566406 9.625 12.34375 9.921875 12.070312 9.921875 L 11.742188 9.921875 C 11.46875 9.921875 11.246094 9.625 11.246094 9.261719 L 11.246094 3.96875 C 11.246094 3.601562 11.46875 3.308594 11.742188 3.308594 Z M 11.742188 3.308594 "/>
<path style=" stroke:none;fill-rule:nonzero;fill:rgb(100%,65.490198%,14.901961%);fill-opacity:1;" d="M 19.679688 3.308594 L 20.007812 3.308594 C 20.28125 3.308594 20.503906 3.601562 20.503906 3.96875 L 20.503906 9.261719 C 20.503906 9.625 20.28125 9.921875 20.007812 9.921875 L 19.679688 9.921875 C 19.40625 9.921875 19.183594 9.625 19.183594 9.261719 L 19.183594 3.96875 C 19.183594 3.601562 19.40625 3.308594 19.679688 3.308594 Z M 19.679688 3.308594 "/>
<path style=" stroke:none;fill-rule:nonzero;fill:rgb(100%,65.490198%,14.901961%);fill-opacity:1;" d="M 14.386719 5.292969 L 14.71875 5.292969 C 14.992188 5.292969 15.214844 5.585938 15.214844 5.953125 L 15.214844 9.261719 C 15.214844 9.625 14.992188 9.921875 14.71875 9.921875 L 14.386719 9.921875 C 14.113281 9.921875 13.890625 9.625 13.890625 9.261719 L 13.890625 5.953125 C 13.890625 5.585938 14.113281 5.292969 14.386719 5.292969 Z M 14.386719 5.292969 "/>
<path style=" stroke:none;fill-rule:nonzero;fill:rgb(100%,65.490198%,14.901961%);fill-opacity:1;" d="M 17.03125 5.292969 L 17.363281 5.292969 C 17.636719 5.292969 17.859375 5.585938 17.859375 5.953125 L 17.859375 9.261719 C 17.859375 9.625 17.636719 9.921875 17.363281 9.921875 L 17.03125 9.921875 C 16.757812 9.921875 16.535156 9.625 16.535156 9.261719 L 16.535156 5.953125 C 16.535156 5.585938 16.757812 5.292969 17.03125 5.292969 Z M 17.03125 5.292969 "/>
<path style=" stroke:none;fill-rule:nonzero;fill:rgb(38.039216%,38.039216%,38.039216%);fill-opacity:1;" d="M 9.261719 11.90625 C 8.527344 11.90625 7.9375 12.496094 7.9375 13.230469 L 7.9375 17.199219 L 23.8125 17.199219 L 23.8125 13.230469 C 23.8125 12.496094 23.222656 11.90625 22.488281 11.90625 Z M 9.261719 11.90625 "/>
<path style=" stroke:none;fill-rule:nonzero;fill:rgb(38.039216%,38.039216%,38.039216%);fill-opacity:1;" d="M 9.261719 30.425781 C 8.527344 30.425781 7.898438 29.835938 7.9375 29.105469 L 7.9375 25.136719 L 23.8125 25.136719 L 23.8125 29.105469 C 23.8125 29.835938 23.222656 30.425781 22.488281 30.425781 Z M 9.261719 30.425781 "/>
</g>
</svg>
