<?xml version="1.0" encoding="UTF-8"?>
<svg xmlns="http://www.w3.org/2000/svg" xmlns:xlink="http://www.w3.org/1999/xlink" width="32px" height="32px" viewBox="0 0 32 32" version="1.1">
<g id="surface1">
<path style=" stroke:none;fill-rule:nonzero;fill:rgb(74.117649%,74.117649%,74.117649%);fill-opacity:1;" d="M 24.804688 29.355469 L 29.105469 25.054688 L 25.796875 25.054688 C 25.246094 25.054688 24.804688 25.496094 24.804688 26.046875 Z M 24.804688 29.355469 "/>
<path style=" stroke:none;fill-rule:nonzero;fill:rgb(61.960787%,61.960787%,61.960787%);fill-opacity:1;" d="M 2.644531 1.574219 L 29.105469 1.574219 C 29.835938 1.574219 30.425781 2.164062 30.425781 2.894531 L 30.425781 29.355469 C 30.425781 30.085938 29.835938 30.675781 29.105469 30.675781 L 2.644531 30.675781 C 1.914062 30.675781 1.324219 30.085938 1.324219 29.355469 L 1.324219 2.894531 C 1.324219 2.164062 1.914062 1.574219 2.644531 1.574219 Z M 2.644531 1.574219 "/>
<path style=" stroke:none;fill-rule:nonzero;fill:rgb(93.333334%,93.333334%,93.333334%);fill-opacity:1;" d="M 3.308594 2.894531 C 2.941406 2.894531 2.644531 3.191406 2.644531 3.558594 L 2.644531 28.691406 C 2.644531 29.058594 2.941406 29.355469 3.308594 29.355469 L 23.8125 29.355469 L 29.105469 24.0625 L 29.105469 3.558594 C 29.105469 3.191406 28.808594 2.894531 28.441406 2.894531 Z M 3.308594 2.894531 "/>
<path style=" stroke:none;fill-rule:nonzero;fill:rgb(74.117649%,74.117649%,74.117649%);fill-opacity:1;" d="M 2.316406 1.574219 C 1.765625 1.574219 1.324219 2.015625 1.324219 2.566406 L 1.324219 6.863281 L 30.425781 6.863281 L 30.425781 2.566406 C 30.425781 2.015625 29.984375 1.574219 29.433594 1.574219 Z M 2.316406 1.574219 "/>
<path style=" stroke:none;fill-rule:nonzero;fill:rgb(0%,0%,0%);fill-opacity:0.235294;" d="M 5.292969 3.558594 C 5.65625 3.558594 5.953125 3.851562 5.953125 4.21875 C 5.953125 4.585938 5.65625 4.878906 5.292969 4.878906 C 4.925781 4.878906 4.628906 4.585938 4.628906 4.21875 C 4.628906 3.851562 4.925781 3.558594 5.292969 3.558594 Z M 5.292969 3.558594 "/>
<path style=" stroke:none;fill-rule:nonzero;fill:rgb(25.882354%,25.882354%,25.882354%);fill-opacity:1;" d="M 5.292969 2.894531 C 4.558594 2.894531 3.96875 3.484375 3.96875 4.21875 C 3.96875 4.953125 4.558594 5.542969 5.292969 5.542969 C 6.023438 5.542969 6.613281 4.953125 6.613281 4.21875 C 6.613281 3.484375 6.023438 2.894531 5.292969 2.894531 Z M 5.292969 3.558594 C 5.65625 3.558594 5.953125 3.851562 5.953125 4.21875 C 5.953125 4.585938 5.65625 4.878906 5.292969 4.878906 C 4.925781 4.878906 4.628906 4.585938 4.628906 4.21875 C 4.628906 3.851562 4.925781 3.558594 5.292969 3.558594 Z M 5.292969 3.558594 "/>
<path style=" stroke:none;fill-rule:nonzero;fill:rgb(0%,0%,0%);fill-opacity:0.235294;" d="M 15.875 3.558594 C 16.242188 3.558594 16.535156 3.851562 16.535156 4.21875 C 16.535156 4.585938 16.242188 4.878906 15.875 4.878906 C 15.507812 4.878906 15.214844 4.585938 15.214844 4.21875 C 15.214844 3.851562 15.507812 3.558594 15.875 3.558594 Z M 15.875 3.558594 "/>
<path style=" stroke:none;fill-rule:nonzero;fill:rgb(25.882354%,25.882354%,25.882354%);fill-opacity:1;" d="M 15.875 2.894531 C 15.140625 2.894531 14.550781 3.484375 14.550781 4.21875 C 14.550781 4.953125 15.140625 5.542969 15.875 5.542969 C 16.609375 5.542969 17.199219 4.953125 17.199219 4.21875 C 17.199219 3.484375 16.609375 2.894531 15.875 2.894531 Z M 15.875 3.558594 C 16.242188 3.558594 16.535156 3.851562 16.535156 4.21875 C 16.535156 4.585938 16.242188 4.878906 15.875 4.878906 C 15.507812 4.878906 15.214844 4.585938 15.214844 4.21875 C 15.214844 3.851562 15.507812 3.558594 15.875 3.558594 Z M 15.875 3.558594 "/>
<path style=" stroke:none;fill-rule:nonzero;fill:rgb(0%,0%,0%);fill-opacity:0.235294;" d="M 26.457031 3.558594 C 26.824219 3.558594 27.121094 3.851562 27.121094 4.21875 C 27.121094 4.585938 26.824219 4.878906 26.457031 4.878906 C 26.09375 4.878906 25.796875 4.585938 25.796875 4.21875 C 25.796875 3.851562 26.09375 3.558594 26.457031 3.558594 Z M 26.457031 3.558594 "/>
<path style=" stroke:none;fill-rule:nonzero;fill:rgb(25.882354%,25.882354%,25.882354%);fill-opacity:1;" d="M 26.457031 2.894531 C 25.726562 2.894531 25.136719 3.484375 25.136719 4.21875 C 25.136719 4.953125 25.726562 5.542969 26.457031 5.542969 C 27.191406 5.542969 27.78125 4.953125 27.78125 4.21875 C 27.78125 3.484375 27.191406 2.894531 26.457031 2.894531 Z M 26.457031 3.558594 C 26.824219 3.558594 27.121094 3.851562 27.121094 4.21875 C 27.121094 4.585938 26.824219 4.878906 26.457031 4.878906 C 26.09375 4.878906 25.796875 4.585938 25.796875 4.21875 C 25.796875 3.851562 26.09375 3.558594 26.457031 3.558594 Z M 26.457031 3.558594 "/>
<path style=" stroke:none;fill-rule:nonzero;fill:rgb(87.843138%,87.843138%,87.843138%);fill-opacity:1;" d="M 29.105469 24.0625 L 23.8125 29.355469 L 28.441406 29.355469 C 28.808594 29.355469 29.105469 29.058594 29.105469 28.691406 Z M 29.105469 24.0625 "/>
<path style=" stroke:none;fill-rule:nonzero;fill:rgb(98.039216%,98.039216%,98.039216%);fill-opacity:1;" d="M 23.8125 29.355469 L 29.105469 24.0625 L 24.472656 24.0625 C 24.109375 24.0625 23.8125 24.359375 23.8125 24.722656 Z M 23.8125 29.355469 "/>
<path style=" stroke:none;fill-rule:nonzero;fill:rgb(25.882354%,25.882354%,25.882354%);fill-opacity:1;" d="M 20.421875 8.21875 C 20.160156 8.207031 19.929688 8.398438 19.894531 8.65625 C 19.851562 8.953125 19.808594 9.242188 19.777344 9.527344 C 19.308594 9.527344 18.898438 9.484375 18.40625 9.425781 C 18.226562 9.402344 18.042969 9.476562 17.929688 9.625 C 17.820312 9.769531 17.796875 9.964844 17.867188 10.136719 C 17.941406 10.304688 18.101562 10.421875 18.285156 10.441406 C 18.765625 10.5 19.203125 10.542969 19.695312 10.542969 C 19.679688 10.914062 19.679688 11.277344 19.703125 11.632812 C 18.304688 12.199219 17.65625 13.417969 17.890625 14.417969 C 18.019531 14.960938 18.535156 15.429688 19.164062 15.4375 C 19.664062 15.445312 20.195312 15.238281 20.789062 14.804688 C 20.980469 14.945312 21.25 14.933594 21.429688 14.773438 C 21.609375 14.613281 21.652344 14.351562 21.535156 14.140625 C 21.957031 13.699219 22.300781 13.277344 22.582031 12.84375 C 22.714844 12.945312 22.820312 13.042969 22.886719 13.128906 C 23.042969 13.324219 23.058594 13.453125 23.039062 13.582031 C 23 13.847656 22.636719 14.234375 22.117188 14.417969 C 21.941406 14.472656 21.808594 14.621094 21.773438 14.804688 C 21.738281 14.984375 21.804688 15.171875 21.945312 15.292969 C 22.082031 15.410156 22.277344 15.445312 22.453125 15.382812 C 23.226562 15.113281 23.925781 14.558594 24.050781 13.738281 C 24.113281 13.324219 23.988281 12.875 23.691406 12.496094 C 23.53125 12.289062 23.320312 12.101562 23.0625 11.929688 C 23.074219 11.898438 23.089844 11.867188 23.101562 11.835938 C 23.167969 11.675781 23.148438 11.492188 23.050781 11.347656 C 22.953125 11.207031 22.785156 11.121094 22.613281 11.128906 C 22.40625 11.136719 22.226562 11.265625 22.152344 11.457031 C 22.152344 11.460938 22.148438 11.460938 22.148438 11.464844 C 21.699219 11.328125 21.277344 11.273438 20.714844 11.359375 C 20.703125 11.082031 20.707031 10.792969 20.722656 10.496094 C 21.378906 10.433594 22.175781 10.308594 23.242188 10.09375 C 23.507812 10.042969 23.6875 9.796875 23.65625 9.53125 C 23.625 9.265625 23.394531 9.066406 23.125 9.078125 C 23.09375 9.082031 23.066406 9.085938 23.039062 9.089844 C 22.089844 9.285156 21.386719 9.402344 20.816406 9.464844 C 20.84375 9.253906 20.871094 9.035156 20.90625 8.8125 C 20.929688 8.667969 20.890625 8.519531 20.800781 8.40625 C 20.707031 8.292969 20.566406 8.222656 20.421875 8.21875 Z M 21.222656 12.316406 C 21.238281 12.316406 21.25 12.316406 21.265625 12.316406 C 21.394531 12.320312 21.519531 12.347656 21.660156 12.386719 C 21.488281 12.640625 21.285156 12.894531 21.039062 13.167969 C 20.945312 12.914062 20.875 12.644531 20.820312 12.367188 C 20.980469 12.335938 21.109375 12.316406 21.222656 12.316406 Z M 19.84375 12.699219 C 19.933594 13.121094 20.0625 13.53125 20.246094 13.929688 C 19.738281 14.304688 19.363281 14.417969 19.175781 14.414062 C 18.949219 14.410156 18.929688 14.367188 18.886719 14.183594 C 18.8125 13.871094 19.03125 13.140625 19.84375 12.699219 Z M 19.84375 12.699219 "/>
<path style=" stroke:none;fill-rule:nonzero;fill:rgb(25.882354%,25.882354%,25.882354%);fill-opacity:1;" d="M 11.304688 18.464844 C 9.96875 18.464844 8.894531 19.433594 8.894531 20.632812 L 8.894531 25.449219 C 8.894531 25.582031 9.003906 25.691406 9.136719 25.691406 L 10.097656 25.691406 C 10.230469 25.691406 10.339844 25.582031 10.339844 25.449219 L 10.339844 23.523438 L 13.230469 23.523438 L 13.230469 25.449219 C 13.230469 25.582031 13.335938 25.691406 13.46875 25.691406 L 14.433594 25.691406 C 14.566406 25.691406 14.675781 25.582031 14.675781 25.449219 L 14.675781 20.632812 C 14.675781 19.433594 13.601562 18.464844 12.265625 18.464844 Z M 11.304688 19.910156 L 12.265625 19.910156 C 12.800781 19.910156 13.230469 20.234375 13.230469 20.632812 L 13.230469 22.078125 L 10.339844 22.078125 L 10.339844 20.632812 C 10.339844 20.234375 10.769531 19.910156 11.304688 19.910156 Z M 11.304688 19.910156 "/>
<path style=" stroke:none;fill-rule:nonzero;fill:rgb(40.000001%,73.333335%,41.568628%);fill-opacity:1;" d="M 15.875 10.832031 C 12.578125 10.832031 9.921875 13.488281 9.921875 16.785156 L 11.246094 16.785156 C 11.246094 14.222656 13.308594 12.15625 15.875 12.15625 Z M 20.503906 16.785156 C 20.503906 19.351562 18.441406 21.417969 15.875 21.417969 L 15.875 22.738281 C 19.171875 22.738281 21.828125 20.085938 21.828125 16.785156 Z M 20.503906 16.785156 "/>
</g>
</svg>
