
<svg xmlns="http://www.w3.org/2000/svg" xmlns:xlink="http://www.w3.org/1999/xlink" width="32px" height="32px" viewBox="0 0 32 32" version="1.1">
<g id="surface1">
<path style=" stroke:none;fill-rule:nonzero;fill:rgb(47.058824%,56.470591%,61.176473%);fill-opacity:1;" d="M 2.644531 1.324219 L 29.105469 1.324219 C 29.835938 1.324219 30.425781 1.914062 30.425781 2.644531 L 30.425781 29.105469 C 30.425781 29.835938 29.835938 30.425781 29.105469 30.425781 L 2.644531 30.425781 C 1.914062 30.425781 1.324219 29.835938 1.324219 29.105469 L 1.324219 2.644531 C 1.324219 1.914062 1.914062 1.324219 2.644531 1.324219 Z M 2.644531 1.324219 "/>
<path style=" stroke:none;fill-rule:nonzero;fill:rgb(25.882354%,25.882354%,25.882354%);fill-opacity:1;" d="M 4.628906 3.96875 L 27.121094 3.96875 C 27.484375 3.96875 27.78125 4.265625 27.78125 4.628906 L 27.78125 27.121094 C 27.78125 27.484375 27.484375 27.78125 27.121094 27.78125 L 4.628906 27.78125 C 4.265625 27.78125 3.96875 27.484375 3.96875 27.121094 L 3.96875 4.628906 C 3.96875 4.265625 4.265625 3.96875 4.628906 3.96875 Z M 4.628906 3.96875 "/>
<path style=" stroke:none;fill-rule:nonzero;fill:rgb(47.058824%,56.470591%,61.176473%);fill-opacity:1;" d="M 5.125 4.628906 L 26.625 4.628906 C 26.898438 4.628906 27.121094 4.851562 27.121094 5.125 L 27.121094 26.625 C 27.121094 26.898438 26.898438 27.121094 26.625 27.121094 L 5.125 27.121094 C 4.851562 27.121094 4.628906 26.898438 4.628906 26.625 L 4.628906 5.125 C 4.628906 4.851562 4.851562 4.628906 5.125 4.628906 Z M 5.125 4.628906 "/>
<path style=" stroke:none;fill-rule:nonzero;fill:rgb(32.941177%,43.137255%,47.843137%);fill-opacity:1;" d="M 15.875 11.246094 C 18.433594 11.246094 20.503906 13.316406 20.503906 15.875 C 20.503906 18.433594 18.433594 20.503906 15.875 20.503906 C 13.316406 20.503906 11.246094 18.433594 11.246094 15.875 C 11.246094 13.316406 13.316406 11.246094 15.875 11.246094 Z M 15.875 11.246094 "/>
<path style=" stroke:none;fill-rule:nonzero;fill:rgb(27.058825%,35.294119%,39.215687%);fill-opacity:1;" d="M 15.875 12.566406 C 17.703125 12.566406 19.183594 14.046875 19.183594 15.875 C 19.183594 17.703125 17.703125 19.183594 15.875 19.183594 C 14.046875 19.183594 12.566406 17.703125 12.566406 15.875 C 12.566406 14.046875 14.046875 12.566406 15.875 12.566406 Z M 15.875 12.566406 "/>
<path style=" stroke:none;fill-rule:nonzero;fill:rgb(69.01961%,74.509805%,77.254903%);fill-opacity:1;" d="M 3.636719 6.613281 L 4.960938 6.613281 C 5.328125 6.613281 5.621094 6.910156 5.621094 7.277344 L 5.621094 9.921875 C 5.621094 10.289062 5.328125 10.582031 4.960938 10.582031 L 3.636719 10.582031 C 3.273438 10.582031 2.976562 10.289062 2.976562 9.921875 L 2.976562 7.277344 C 2.976562 6.910156 3.273438 6.613281 3.636719 6.613281 Z M 3.636719 6.613281 "/>
<path style=" stroke:none;fill-rule:nonzero;fill:rgb(69.01961%,74.509805%,77.254903%);fill-opacity:1;" d="M 3.636719 21.167969 L 4.960938 21.167969 C 5.328125 21.167969 5.621094 21.460938 5.621094 21.828125 L 5.621094 24.472656 C 5.621094 24.839844 5.328125 25.136719 4.960938 25.136719 L 3.636719 25.136719 C 3.273438 25.136719 2.976562 24.839844 2.976562 24.472656 L 2.976562 21.828125 C 2.976562 21.460938 3.273438 21.167969 3.636719 21.167969 Z M 3.636719 21.167969 "/>
<path style=" stroke:none;fill-rule:nonzero;fill:rgb(25.882354%,25.882354%,25.882354%);fill-opacity:1;" d="M 24.472656 13.890625 C 23.925781 13.890625 23.480469 14.332031 23.480469 14.882812 C 23.480469 15.179688 23.609375 15.441406 23.8125 15.625 L 23.8125 17.199219 C 23.8125 17.5625 24.109375 17.859375 24.472656 17.859375 C 24.839844 17.859375 25.136719 17.5625 25.136719 17.199219 L 25.136719 15.625 C 25.339844 15.441406 25.464844 15.179688 25.464844 14.882812 C 25.464844 14.332031 25.023438 13.890625 24.472656 13.890625 Z M 24.472656 13.890625 "/>
<path style=" stroke:none;fill-rule:nonzero;fill:rgb(56.470591%,64.313728%,68.235296%);fill-opacity:1;" d="M 21.019531 20.085938 L 20.085938 21.019531 L 10.730469 11.664062 L 11.664062 10.730469 Z M 21.019531 20.085938 "/>
<path style=" stroke:none;fill-rule:nonzero;fill:rgb(69.01961%,74.509805%,77.254903%);fill-opacity:1;" d="M 11.246094 9.921875 C 11.976562 9.921875 12.566406 10.515625 12.566406 11.246094 C 12.566406 11.976562 11.976562 12.566406 11.246094 12.566406 C 10.515625 12.566406 9.921875 11.976562 9.921875 11.246094 C 9.921875 10.515625 10.515625 9.921875 11.246094 9.921875 Z M 11.246094 9.921875 "/>
<path style=" stroke:none;fill-rule:nonzero;fill:rgb(56.470591%,64.313728%,68.235296%);fill-opacity:1;" d="M 20.085938 10.730469 L 21.019531 11.664062 L 11.664062 21.019531 L 10.730469 20.085938 Z M 20.085938 10.730469 "/>
<path style=" stroke:none;fill-rule:nonzero;fill:rgb(69.01961%,74.509805%,77.254903%);fill-opacity:1;" d="M 20.503906 9.921875 C 21.234375 9.921875 21.828125 10.515625 21.828125 11.246094 C 21.828125 11.976562 21.234375 12.566406 20.503906 12.566406 C 19.773438 12.566406 19.183594 11.976562 19.183594 11.246094 C 19.183594 10.515625 19.773438 9.921875 20.503906 9.921875 Z M 20.503906 9.921875 "/>
<path style=" stroke:none;fill-rule:nonzero;fill:rgb(69.01961%,74.509805%,77.254903%);fill-opacity:1;" d="M 20.503906 19.183594 C 21.234375 19.183594 21.828125 19.773438 21.828125 20.503906 C 21.828125 21.234375 21.234375 21.828125 20.503906 21.828125 C 19.773438 21.828125 19.183594 21.234375 19.183594 20.503906 C 19.183594 19.773438 19.773438 19.183594 20.503906 19.183594 Z M 20.503906 19.183594 "/>
<path style=" stroke:none;fill-rule:nonzero;fill:rgb(69.01961%,74.509805%,77.254903%);fill-opacity:1;" d="M 11.246094 19.183594 C 11.976562 19.183594 12.566406 19.773438 12.566406 20.503906 C 12.566406 21.234375 11.976562 21.828125 11.246094 21.828125 C 10.515625 21.828125 9.921875 21.234375 9.921875 20.503906 C 9.921875 19.773438 10.515625 19.183594 11.246094 19.183594 Z M 11.246094 19.183594 "/>
<path style=" stroke:none;fill-rule:nonzero;fill:rgb(81.176472%,84.705883%,86.274511%);fill-opacity:1;" d="M 20.21875 10.417969 C 20.378906 10.507812 20.355469 10.839844 20.175781 11.15625 C 19.992188 11.472656 19.714844 11.65625 19.558594 11.5625 C 19.398438 11.472656 19.417969 11.140625 19.601562 10.824219 C 19.785156 10.507812 20.0625 10.328125 20.21875 10.417969 Z M 20.21875 10.417969 "/>
<path style=" stroke:none;fill-rule:nonzero;fill:rgb(81.176472%,84.705883%,86.274511%);fill-opacity:1;" d="M 10.957031 10.417969 C 11.117188 10.507812 11.097656 10.839844 10.914062 11.15625 C 10.730469 11.472656 10.457031 11.65625 10.296875 11.5625 C 10.140625 11.472656 10.160156 11.140625 10.339844 10.824219 C 10.523438 10.507812 10.800781 10.328125 10.957031 10.417969 Z M 10.957031 10.417969 "/>
<path style=" stroke:none;fill-rule:nonzero;fill:rgb(81.176472%,84.705883%,86.274511%);fill-opacity:1;" d="M 20.21875 19.523438 C 20.378906 19.617188 20.355469 19.945312 20.175781 20.261719 C 19.992188 20.578125 19.714844 20.761719 19.558594 20.671875 C 19.398438 20.578125 19.417969 20.25 19.601562 19.933594 C 19.785156 19.617188 20.0625 19.433594 20.21875 19.523438 Z M 20.21875 19.523438 "/>
<path style=" stroke:none;fill-rule:nonzero;fill:rgb(81.176472%,84.705883%,86.274511%);fill-opacity:1;" d="M 10.957031 19.523438 C 11.117188 19.617188 11.097656 19.945312 10.914062 20.261719 C 10.730469 20.578125 10.457031 20.761719 10.296875 20.671875 C 10.140625 20.578125 10.160156 20.25 10.339844 19.933594 C 10.523438 19.617188 10.800781 19.433594 10.957031 19.523438 Z M 10.957031 19.523438 "/>
<path style=" stroke:none;fill-rule:nonzero;fill:rgb(47.058824%,56.470591%,61.176473%);fill-opacity:1;" d="M 15.875 14.550781 C 16.605469 14.550781 17.199219 15.144531 17.199219 15.875 C 17.199219 16.605469 16.605469 17.199219 15.875 17.199219 C 15.144531 17.199219 14.550781 16.605469 14.550781 15.875 C 14.550781 15.144531 15.144531 14.550781 15.875 14.550781 Z M 15.875 14.550781 "/>
</g>
</svg>
