<?xml version="1.0" encoding="UTF-8"?>
<svg xmlns="http://www.w3.org/2000/svg" xmlns:xlink="http://www.w3.org/1999/xlink" width="32px" height="32px" viewBox="0 0 32 32" version="1.1">
<g id="surface1">
<path style=" stroke:none;fill-rule:nonzero;fill:rgb(74.117649%,74.117649%,74.117649%);fill-opacity:1;" d="M 7.9375 1.574219 L 29.105469 1.574219 C 29.835938 1.574219 30.425781 2.164062 30.425781 2.894531 L 30.425781 29.355469 C 30.425781 30.085938 29.835938 30.675781 29.105469 30.675781 L 7.9375 30.675781 C 7.207031 30.675781 6.613281 30.085938 6.613281 29.355469 L 6.613281 2.894531 C 6.613281 2.164062 7.207031 1.574219 7.9375 1.574219 Z M 7.9375 1.574219 "/>
<path style=" stroke:none;fill-rule:nonzero;fill:rgb(96.078432%,96.078432%,96.078432%);fill-opacity:1;" d="M 9.921875 2.234375 L 29.105469 2.234375 C 29.46875 2.234375 29.765625 2.53125 29.765625 2.894531 L 29.765625 29.355469 C 29.765625 29.71875 29.46875 30.015625 29.105469 30.015625 L 9.921875 30.015625 C 9.554688 30.015625 9.261719 29.71875 9.261719 29.355469 L 9.261719 2.894531 C 9.261719 2.53125 9.554688 2.234375 9.921875 2.234375 Z M 9.921875 2.234375 "/>
<path style=" stroke:none;fill-rule:nonzero;fill:rgb(87.843138%,87.843138%,87.843138%);fill-opacity:1;" d="M 7.9375 1.574219 L 27.78125 1.574219 C 28.511719 1.574219 29.105469 2.164062 29.105469 2.894531 L 29.105469 29.355469 C 29.105469 30.085938 28.511719 30.675781 27.78125 30.675781 L 7.9375 30.675781 C 7.207031 30.675781 6.613281 30.085938 6.613281 29.355469 L 6.613281 2.894531 C 6.613281 2.164062 7.207031 1.574219 7.9375 1.574219 Z M 7.9375 1.574219 "/>
<path style=" stroke:none;fill-rule:nonzero;fill:rgb(45.882353%,45.882353%,45.882353%);fill-opacity:1;" d="M 7.9375 1.574219 L 18.519531 1.574219 L 18.519531 16.125 L 7.9375 16.125 Z M 7.9375 1.574219 "/>
<path style=" stroke:none;fill-rule:nonzero;fill:rgb(25.882354%,25.882354%,25.882354%);fill-opacity:1;" d="M 2.644531 1.574219 C 1.914062 1.574219 1.324219 2.164062 1.324219 2.894531 L 1.324219 29.355469 C 1.324219 30.085938 1.914062 30.675781 2.644531 30.675781 L 7.9375 30.675781 L 7.9375 1.574219 Z M 2.644531 1.574219 "/>
<path style=" stroke:none;fill-rule:nonzero;fill:rgb(38.039216%,38.039216%,38.039216%);fill-opacity:1;" d="M 1.324219 15.464844 L 7.277344 15.464844 L 7.277344 16.785156 L 1.324219 16.785156 Z M 1.324219 15.464844 "/>
<path style=" stroke:none;fill-rule:nonzero;fill:rgb(38.039216%,38.039216%,38.039216%);fill-opacity:1;" d="M 1.324219 8.1875 L 7.277344 8.1875 L 7.277344 9.511719 L 1.324219 9.511719 Z M 1.324219 8.1875 "/>
<path style=" stroke:none;fill-rule:nonzero;fill:rgb(38.039216%,38.039216%,38.039216%);fill-opacity:1;" d="M 1.324219 22.738281 L 7.277344 22.738281 L 7.277344 24.0625 L 1.324219 24.0625 Z M 1.324219 22.738281 "/>
<path style=" stroke:none;fill-rule:nonzero;fill:rgb(45.882353%,45.882353%,45.882353%);fill-opacity:1;" d="M 18.519531 16.125 L 18.519531 30.675781 L 27.78125 30.675781 C 28.515625 30.675781 29.105469 30.085938 29.105469 29.355469 L 29.105469 16.125 Z M 18.519531 16.125 "/>
<path style=" stroke:none;fill-rule:nonzero;fill:rgb(87.843138%,87.843138%,87.843138%);fill-opacity:1;" d="M 11.988281 5.925781 C 10.910156 5.925781 10.039062 6.792969 10.039062 7.875 C 10.039062 9.46875 12.34375 10.53125 13.230469 11.773438 C 14.113281 10.53125 16.417969 9.46875 16.417969 7.875 C 16.417969 6.792969 15.550781 5.925781 14.46875 5.925781 C 13.996094 5.925781 13.566406 6.089844 13.230469 6.367188 C 12.894531 6.089844 12.460938 5.925781 11.988281 5.925781 Z M 11.988281 5.925781 "/>
<path style=" stroke:none;fill-rule:nonzero;fill:rgb(38.039216%,38.039216%,38.039216%);fill-opacity:1;" d="M 23.8125 6.039062 C 22.253906 6.039062 21 7.292969 21 8.847656 C 21 10.40625 22.253906 11.660156 23.8125 11.660156 C 25.371094 11.660156 26.625 10.40625 26.625 8.847656 C 26.625 7.292969 25.371094 6.039062 23.8125 6.039062 Z M 23.8125 7.03125 C 24.820312 7.03125 25.632812 7.839844 25.632812 8.847656 C 25.632812 9.855469 24.820312 10.667969 23.8125 10.667969 C 22.804688 10.667969 21.992188 9.855469 21.992188 8.847656 C 21.992188 7.839844 22.804688 7.03125 23.8125 7.03125 Z M 23.8125 7.03125 "/>
<path style=" stroke:none;fill-rule:nonzero;fill:rgb(38.039216%,38.039216%,38.039216%);fill-opacity:1;" d="M 11.65625 20.589844 C 10.972656 20.589844 10.417969 21.144531 10.417969 21.828125 C 10.417969 22.515625 10.972656 23.070312 11.65625 23.070312 C 12.34375 23.070312 12.898438 22.515625 12.898438 21.828125 C 12.898438 21.144531 12.34375 20.589844 11.65625 20.589844 Z M 14.800781 20.589844 C 14.113281 20.589844 13.558594 21.144531 13.558594 21.828125 C 13.558594 22.515625 14.113281 23.070312 14.800781 23.070312 C 15.488281 23.070312 16.039062 22.515625 16.039062 21.828125 C 16.039062 21.144531 15.488281 20.589844 14.800781 20.589844 Z M 11.65625 23.730469 C 10.972656 23.730469 10.417969 24.285156 10.417969 24.972656 C 10.417969 25.660156 10.972656 26.210938 11.65625 26.210938 C 12.34375 26.210938 12.898438 25.660156 12.898438 24.972656 C 12.898438 24.285156 12.34375 23.730469 11.65625 23.730469 Z M 14.800781 23.730469 C 14.113281 23.730469 13.558594 24.285156 13.558594 24.972656 C 13.558594 25.660156 14.113281 26.210938 14.800781 26.210938 C 15.488281 26.210938 16.039062 25.660156 16.039062 24.972656 C 16.039062 24.285156 15.488281 23.730469 14.800781 23.730469 Z M 14.800781 23.730469 "/>
<path style=" stroke:none;fill-rule:nonzero;fill:rgb(87.843138%,87.843138%,87.843138%);fill-opacity:1;" d="M 23.277344 19.777344 C 23.105469 19.777344 22.9375 19.84375 22.808594 19.972656 C 22.550781 20.234375 22.550781 20.648438 22.808594 20.910156 L 24.640625 22.738281 L 20.917969 22.738281 C 20.734375 22.738281 20.589844 22.886719 20.589844 23.070312 L 20.589844 23.730469 C 20.589844 23.914062 20.734375 24.0625 20.917969 24.0625 L 24.804688 24.0625 L 22.808594 26.058594 C 22.550781 26.316406 22.550781 26.734375 22.808594 26.992188 C 23.066406 27.253906 23.484375 27.253906 23.742188 26.992188 L 26.785156 23.953125 C 26.914062 23.824219 26.980469 23.652344 26.980469 23.484375 C 26.980469 23.3125 26.914062 23.144531 26.785156 23.011719 L 23.742188 19.972656 C 23.613281 19.84375 23.445312 19.777344 23.277344 19.777344 Z M 23.277344 19.777344 "/>
</g>
</svg>
