<?xml version="1.0" encoding="UTF-8"?>
<svg xmlns="http://www.w3.org/2000/svg" xmlns:xlink="http://www.w3.org/1999/xlink" width="32px" height="32px" viewBox="0 0 32 32" version="1.1">
<g id="surface1">
<path style=" stroke:none;fill-rule:nonzero;fill:rgb(39.215687%,70.980394%,96.470588%);fill-opacity:1;" d="M 15.875 1.574219 C 23.910156 1.574219 30.425781 8.089844 30.425781 16.125 C 30.425781 24.160156 23.910156 30.675781 15.875 30.675781 C 7.839844 30.675781 1.324219 24.160156 1.324219 16.125 C 1.324219 8.089844 7.839844 1.574219 15.875 1.574219 Z M 15.875 1.574219 "/>
<path style=" stroke:none;fill-rule:nonzero;fill:rgb(56.470591%,79.215688%,97.647059%);fill-opacity:1;" d="M 9.101562 5.121094 C 10.992188 4.070312 12.976562 4.035156 13.539062 5.039062 C 14.097656 6.046875 13.019531 7.714844 11.132812 8.765625 C 9.242188 9.820312 7.257812 9.855469 6.699219 8.847656 C 6.136719 7.839844 7.214844 6.171875 9.101562 5.121094 Z M 9.101562 5.121094 "/>
<path style=" stroke:none;fill-rule:nonzero;fill:rgb(25.882354%,64.705884%,96.078432%);fill-opacity:1;" d="M 30.238281 13.769531 C 25.074219 20.820312 16.726562 25.386719 7.277344 25.386719 C 6.347656 25.386719 5.429688 25.339844 4.527344 25.253906 C 7.191406 28.566406 11.277344 30.675781 15.875 30.675781 C 23.9375 30.675781 30.425781 24.1875 30.425781 16.125 C 30.425781 15.324219 30.363281 14.535156 30.238281 13.769531 Z M 30.238281 13.769531 "/>
</g>
</svg>
