
<svg xmlns="http://www.w3.org/2000/svg" xmlns:xlink="http://www.w3.org/1999/xlink" width="32px" height="32px" viewBox="0 0 32 32" version="1.1">
<g id="surface1">
<path style=" stroke:none;fill-rule:nonzero;fill:rgb(36.078432%,41.960785%,75.294119%);fill-opacity:1;" d="M 15.875 1.242188 C 23.910156 1.242188 30.425781 7.757812 30.425781 15.792969 C 30.425781 23.832031 23.910156 30.347656 15.875 30.347656 C 7.839844 30.347656 1.324219 23.832031 1.324219 15.792969 C 1.324219 7.757812 7.839844 1.242188 15.875 1.242188 Z M 15.875 1.242188 "/>
<path style=" stroke:none;fill-rule:nonzero;fill:rgb(93.333334%,93.333334%,93.333334%);fill-opacity:1;" d="M 15.875 5.953125 C 10.378906 5.953125 5.953125 10.378906 5.953125 15.875 C 5.953125 21.371094 10.378906 25.796875 15.875 25.796875 C 16.425781 25.796875 16.867188 25.355469 16.867188 24.804688 C 16.867188 24.253906 16.425781 23.8125 15.875 23.8125 C 11.476562 23.8125 7.9375 20.273438 7.9375 15.875 C 7.9375 11.476562 11.476562 7.9375 15.875 7.9375 C 20.273438 7.9375 23.8125 11.476562 23.8125 15.875 L 23.8125 16.535156 C 23.8125 17.636719 23.074219 18.519531 22.160156 18.519531 C 21.242188 18.519531 20.503906 17.636719 20.503906 16.535156 L 20.503906 15.828125 C 20.503906 13.289062 18.441406 11.246094 15.875 11.246094 C 13.308594 11.246094 11.246094 13.289062 11.246094 15.828125 L 11.246094 15.921875 C 11.246094 18.460938 13.308594 20.503906 15.875 20.503906 C 17.210938 20.503906 18.410156 19.949219 19.253906 19.0625 C 19.917969 19.941406 20.96875 20.503906 22.160156 20.503906 C 24.175781 20.503906 25.796875 18.882812 25.796875 16.867188 L 25.796875 15.875 C 25.796875 10.378906 21.371094 5.953125 15.875 5.953125 Z M 15.875 13.230469 C 17.339844 13.230469 18.519531 14.410156 18.519531 15.875 C 18.519531 17.339844 17.339844 18.519531 15.875 18.519531 C 14.410156 18.519531 13.230469 17.339844 13.230469 15.875 C 13.230469 14.410156 14.410156 13.230469 15.875 13.230469 Z M 15.875 13.230469 "/>
</g>
</svg>
