<?xml version="1.0" encoding="UTF-8"?>
<svg xmlns="http://www.w3.org/2000/svg" xmlns:xlink="http://www.w3.org/1999/xlink" width="32px" height="32px" viewBox="0 0 32 32" version="1.1">
<g id="surface1">
<path style=" stroke:none;fill-rule:nonzero;fill:rgb(100%,71.764708%,30.19608%);fill-opacity:1;" d="M 2.644531 3.558594 L 29.105469 3.558594 C 29.835938 3.558594 30.425781 4.148438 30.425781 4.878906 L 30.425781 27.371094 C 30.425781 28.101562 29.835938 28.691406 29.105469 28.691406 L 2.644531 28.691406 C 1.914062 28.691406 1.324219 28.101562 1.324219 27.371094 L 1.324219 4.878906 C 1.324219 4.148438 1.914062 3.558594 2.644531 3.558594 Z M 2.644531 3.558594 "/>
<path style=" stroke:none;fill-rule:nonzero;fill:rgb(94.117647%,38.431373%,57.254905%);fill-opacity:1;" d="M 1.757812 3.898438 C 1.488281 4.140625 1.324219 4.488281 1.324219 4.878906 L 1.324219 27.371094 C 1.324219 28.101562 1.914062 28.691406 2.644531 28.691406 L 29.105469 28.691406 C 29.4375 28.691406 29.746094 28.570312 29.976562 28.363281 L 8.039062 8.847656 Z M 1.757812 3.898438 "/>
<path style=" stroke:none;fill-rule:nonzero;fill:rgb(72.941178%,40.784314%,78.431374%);fill-opacity:1;" d="M 30.011719 3.917969 L 1.738281 28.332031 C 1.976562 28.554688 2.292969 28.691406 2.644531 28.691406 L 29.105469 28.691406 C 29.835938 28.691406 30.425781 28.101562 30.425781 27.371094 L 30.425781 4.878906 C 30.425781 4.5 30.265625 4.15625 30.011719 3.917969 Z M 30.011719 3.917969 "/>
<path style=" stroke:none;fill-rule:nonzero;fill:rgb(93.333334%,93.333334%,93.333334%);fill-opacity:1;" d="M 13.324219 9.203125 C 13.050781 9.199219 12.777344 9.230469 12.507812 9.285156 L 12.179688 10.503906 L 11.546875 10.871094 L 10.328125 10.542969 C 9.957031 10.957031 9.683594 11.4375 9.511719 11.953125 L 10.40625 12.847656 L 10.40625 13.574219 L 9.515625 14.46875 C 9.597656 14.722656 9.710938 14.972656 9.851562 15.214844 C 9.992188 15.457031 10.152344 15.679688 10.328125 15.878906 L 11.546875 15.554688 L 12.179688 15.917969 L 12.507812 17.140625 C 13.039062 17.25 13.589844 17.25 14.136719 17.136719 L 14.460938 15.917969 L 15.09375 15.554688 L 16.3125 15.878906 C 16.683594 15.464844 16.957031 14.984375 17.128906 14.46875 L 16.234375 13.574219 L 16.234375 12.847656 L 17.128906 11.957031 C 17.042969 11.699219 16.929688 11.449219 16.789062 11.207031 C 16.652344 10.964844 16.492188 10.746094 16.3125 10.542969 L 15.09375 10.871094 L 14.460938 10.503906 L 14.136719 9.285156 C 13.871094 9.230469 13.597656 9.203125 13.324219 9.203125 Z M 13.320312 11.523438 C 14.257812 11.523438 15.007812 12.277344 15.007812 13.210938 C 15.007812 14.148438 14.257812 14.898438 13.320312 14.898438 C 12.386719 14.898438 11.632812 14.148438 11.632812 13.210938 C 11.632812 12.277344 12.386719 11.523438 13.320312 11.523438 Z M 13.320312 11.523438 "/>
<path style=" stroke:none;fill-rule:nonzero;fill:rgb(93.333334%,93.333334%,93.333334%);fill-opacity:1;" d="M 18.847656 15.386719 C 18.578125 15.386719 18.300781 15.414062 18.03125 15.472656 L 17.703125 16.691406 L 17.074219 17.054688 L 15.851562 16.730469 C 15.480469 17.144531 15.207031 17.625 15.035156 18.140625 L 15.929688 19.03125 L 15.929688 19.761719 L 15.039062 20.652344 C 15.125 20.910156 15.234375 21.160156 15.375 21.402344 C 15.515625 21.644531 15.675781 21.863281 15.851562 22.066406 L 17.074219 21.738281 L 17.703125 22.101562 L 18.03125 23.324219 C 18.5625 23.433594 19.117188 23.4375 19.660156 23.324219 L 19.988281 22.101562 L 20.617188 21.738281 L 21.835938 22.066406 C 22.207031 21.652344 22.484375 21.171875 22.652344 20.65625 L 21.757812 19.761719 L 21.757812 19.03125 L 22.652344 18.140625 C 22.566406 17.886719 22.453125 17.636719 22.316406 17.394531 C 22.175781 17.152344 22.015625 16.929688 21.835938 16.730469 L 20.617188 17.054688 L 19.988281 16.691406 L 19.660156 15.46875 C 19.394531 15.414062 19.121094 15.386719 18.847656 15.386719 Z M 18.84375 17.710938 C 19.78125 17.710938 20.53125 18.460938 20.53125 19.398438 C 20.53125 20.332031 19.78125 21.085938 18.84375 21.085938 C 17.910156 21.085938 17.15625 20.332031 17.15625 19.398438 C 17.15625 18.460938 17.910156 17.710938 18.84375 17.710938 Z M 18.84375 17.710938 "/>
</g>
</svg>
