<?xml version="1.0" encoding="UTF-8"?>
<svg xmlns="http://www.w3.org/2000/svg" xmlns:xlink="http://www.w3.org/1999/xlink" width="32px" height="32px" viewBox="0 0 32 32" version="1.1">
<g id="surface1">
<path style=" stroke:none;fill-rule:nonzero;fill:rgb(25.882354%,25.882354%,25.882354%);fill-opacity:1;" d="M 2.644531 3.558594 L 29.105469 3.558594 C 29.835938 3.558594 30.425781 4.148438 30.425781 4.878906 L 30.425781 27.371094 C 30.425781 28.101562 29.835938 28.691406 29.105469 28.691406 L 2.644531 28.691406 C 1.914062 28.691406 1.324219 28.101562 1.324219 27.371094 L 1.324219 4.878906 C 1.324219 4.148438 1.914062 3.558594 2.644531 3.558594 Z M 2.644531 3.558594 "/>
<path style=" stroke:none;fill-rule:nonzero;fill:rgb(100%,71.764708%,30.19608%);fill-opacity:1;" d="M 3.308594 4.878906 L 28.441406 4.878906 C 28.808594 4.878906 29.105469 5.175781 29.105469 5.542969 L 29.105469 14.800781 C 29.105469 15.167969 28.808594 15.464844 28.441406 15.464844 L 3.308594 15.464844 C 2.941406 15.464844 2.644531 15.167969 2.644531 14.800781 L 2.644531 5.542969 C 2.644531 5.175781 2.941406 4.878906 3.308594 4.878906 Z M 3.308594 4.878906 "/>
<path style=" stroke:none;fill-rule:nonzero;fill:rgb(94.117647%,38.431373%,57.254905%);fill-opacity:1;" d="M 2.933594 4.996094 C 2.757812 5.113281 2.644531 5.3125 2.644531 5.542969 L 2.644531 14.800781 C 2.644531 15.167969 2.941406 15.464844 3.308594 15.464844 L 28.441406 15.464844 C 28.582031 15.464844 28.710938 15.421875 28.816406 15.347656 Z M 2.933594 4.996094 "/>
<path style=" stroke:none;fill-rule:nonzero;fill:rgb(72.941178%,40.784314%,78.431374%);fill-opacity:1;" d="M 28.816406 4.996094 L 2.933594 15.347656 C 3.039062 15.421875 3.167969 15.464844 3.308594 15.464844 L 28.441406 15.464844 C 28.808594 15.464844 29.105469 15.167969 29.105469 14.800781 L 29.105469 5.542969 C 29.105469 5.3125 28.992188 5.113281 28.816406 4.996094 Z M 28.816406 4.996094 "/>
<path style=" stroke:none;fill-rule:nonzero;fill:rgb(39.215687%,70.980394%,96.470588%);fill-opacity:1;" d="M 3.308594 16.785156 L 28.441406 16.785156 C 28.808594 16.785156 29.105469 17.082031 29.105469 17.449219 L 29.105469 26.707031 C 29.105469 27.074219 28.808594 27.371094 28.441406 27.371094 L 3.308594 27.371094 C 2.941406 27.371094 2.644531 27.074219 2.644531 26.707031 L 2.644531 17.449219 C 2.644531 17.082031 2.941406 16.785156 3.308594 16.785156 Z M 3.308594 16.785156 "/>
<path style=" stroke:none;fill-rule:nonzero;fill:rgb(50.588238%,78.039217%,51.764709%);fill-opacity:1;" d="M 2.933594 16.902344 C 2.757812 17.019531 2.644531 17.21875 2.644531 17.449219 L 2.644531 26.707031 C 2.644531 27.074219 2.941406 27.371094 3.308594 27.371094 L 28.441406 27.371094 C 28.582031 27.371094 28.710938 27.328125 28.816406 27.253906 Z M 2.933594 16.902344 "/>
<path style=" stroke:none;fill-rule:nonzero;fill:rgb(36.078432%,41.960785%,75.294119%);fill-opacity:1;" d="M 28.816406 16.902344 L 2.933594 27.253906 C 3.039062 27.328125 3.167969 27.371094 3.308594 27.371094 L 28.441406 27.371094 C 28.808594 27.371094 29.105469 27.074219 29.105469 26.707031 L 29.105469 17.449219 C 29.105469 17.21875 28.992188 17.019531 28.816406 16.902344 Z M 28.816406 16.902344 "/>
</g>
</svg>
