
<svg xmlns="http://www.w3.org/2000/svg" xmlns:xlink="http://www.w3.org/1999/xlink" width="32px" height="32px" viewBox="0 0 32 32" version="1.1">
<g id="surface1">
<path style=" stroke:none;fill-rule:nonzero;fill:rgb(36.078432%,41.960785%,75.294119%);fill-opacity:1;" d="M 1.734375 12.582031 C 1.488281 13.640625 1.363281 14.742188 1.363281 15.875 C 1.363281 17.351562 1.578125 18.773438 1.984375 20.113281 L 9.546875 17.8125 C 9.359375 17.199219 9.261719 16.550781 9.261719 15.875 C 9.261719 15.355469 9.320312 14.851562 9.429688 14.371094 Z M 1.734375 12.582031 "/>
<path style=" stroke:none;fill-rule:nonzero;fill:rgb(25.882354%,64.705884%,96.078432%);fill-opacity:1;" d="M 9.542969 17.800781 L 1.945312 20.113281 C 2.695312 22.59375 4.085938 24.792969 5.929688 26.515625 L 11.355469 20.710938 C 10.515625 19.929688 9.882812 18.929688 9.542969 17.800781 Z M 9.542969 17.800781 "/>
<path style=" stroke:none;fill-rule:nonzero;fill:rgb(93.725491%,32.549021%,31.37255%);fill-opacity:1;" d="M 15.875 1.324219 C 14.398438 1.324219 12.976562 1.539062 11.636719 1.945312 L 13.949219 9.542969 C 14.558594 9.359375 15.203125 9.261719 15.875 9.261719 C 16.546875 9.261719 17.191406 9.359375 17.800781 9.542969 L 20.113281 1.945312 C 18.773438 1.539062 17.351562 1.324219 15.875 1.324219 Z M 15.875 1.324219 "/>
<path style=" stroke:none;fill-rule:nonzero;fill:rgb(40.000001%,73.333335%,41.568628%);fill-opacity:1;" d="M 17.800781 22.207031 C 17.191406 22.390625 16.546875 22.488281 15.875 22.488281 C 15.359375 22.488281 14.859375 22.429688 14.378906 22.320312 L 12.582031 30.054688 C 13.640625 30.300781 14.742188 30.425781 15.875 30.425781 C 17.351562 30.425781 18.773438 30.210938 20.113281 29.804688 Z M 17.800781 22.207031 "/>
<path style=" stroke:none;fill-rule:nonzero;fill:rgb(100%,79.215688%,15.686275%);fill-opacity:1;" d="M 29.804688 11.636719 L 22.207031 13.949219 C 22.390625 14.558594 22.488281 15.203125 22.488281 15.875 C 22.488281 16.390625 22.429688 16.890625 22.320312 17.371094 L 30.054688 19.167969 C 30.300781 18.109375 30.425781 17.007812 30.425781 15.875 C 30.425781 14.398438 30.210938 12.976562 29.804688 11.636719 Z M 29.804688 11.636719 "/>
<path style=" stroke:none;fill-rule:nonzero;fill:rgb(47.450981%,52.549022%,79.607844%);fill-opacity:1;" d="M 1.695312 12.582031 C 1.449219 13.640625 1.324219 14.742188 1.324219 15.875 C 1.324219 17.351562 1.539062 18.773438 1.945312 20.113281 L 3.210938 19.730469 C 2.84375 18.511719 2.644531 17.214844 2.644531 15.875 C 2.644531 14.84375 2.761719 13.84375 2.984375 12.882812 Z M 1.695312 12.582031 "/>
<path style=" stroke:none;fill-rule:nonzero;fill:rgb(100%,65.490198%,14.901961%);fill-opacity:1;" d="M 25.820312 5.234375 L 20.394531 11.039062 C 21.234375 11.820312 21.867188 12.820312 22.207031 13.949219 L 29.804688 11.636719 C 29.054688 9.15625 27.664062 6.957031 25.820312 5.234375 Z M 25.820312 5.234375 "/>
<path style=" stroke:none;fill-rule:nonzero;fill:rgb(100%,43.921569%,26.274511%);fill-opacity:1;" d="M 20.113281 1.945312 L 17.800781 9.542969 C 18.785156 9.839844 19.667969 10.359375 20.394531 11.039062 L 25.820312 5.234375 C 24.21875 3.738281 22.273438 2.597656 20.113281 1.945312 Z M 20.113281 1.945312 "/>
<path style=" stroke:none;fill-rule:nonzero;fill:rgb(14.901961%,77.64706%,85.490197%);fill-opacity:1;" d="M 11.355469 20.710938 L 5.929688 26.515625 C 7.761719 28.230469 10.042969 29.472656 12.582031 30.054688 L 14.378906 22.320312 C 13.222656 22.054688 12.1875 21.492188 11.355469 20.710938 Z M 11.355469 20.710938 "/>
<path style=" stroke:none;fill-rule:nonzero;fill:rgb(92.54902%,25.098041%,47.843137%);fill-opacity:1;" d="M 11.636719 1.945312 C 9.15625 2.695312 6.957031 4.085938 5.234375 5.929688 L 11.039062 11.355469 C 11.820312 10.515625 12.820312 9.882812 13.949219 9.542969 Z M 11.636719 1.945312 "/>
<path style=" stroke:none;fill-rule:nonzero;fill:rgb(61.176473%,80.000001%,39.607844%);fill-opacity:1;" d="M 20.710938 20.394531 C 19.929688 21.234375 18.929688 21.867188 17.800781 22.207031 L 20.113281 29.804688 C 22.59375 29.054688 24.792969 27.664062 26.515625 25.820312 Z M 20.710938 20.394531 "/>
<path style=" stroke:none;fill-rule:nonzero;fill:rgb(67.058825%,27.843139%,73.725492%);fill-opacity:1;" d="M 5.234375 5.929688 C 3.519531 7.761719 2.277344 10.042969 1.695312 12.582031 L 9.429688 14.378906 C 9.695312 13.222656 10.257812 12.1875 11.039062 11.355469 Z M 5.234375 5.929688 "/>
<path style=" stroke:none;fill-rule:nonzero;fill:rgb(100%,93.333334%,34.509805%);fill-opacity:1;" d="M 22.320312 17.371094 C 22.054688 18.527344 21.492188 19.5625 20.710938 20.394531 L 26.515625 25.820312 C 28.230469 23.988281 29.472656 21.707031 30.054688 19.167969 Z M 22.320312 17.371094 "/>
<path style=" stroke:none;fill-rule:nonzero;fill:rgb(39.215687%,70.980394%,96.470588%);fill-opacity:1;" d="M 3.210938 19.730469 L 1.945312 20.113281 C 2.695312 22.59375 4.085938 24.792969 5.929688 26.515625 L 6.832031 25.546875 C 5.15625 23.980469 3.894531 21.984375 3.210938 19.730469 Z M 3.210938 19.730469 "/>
<path style=" stroke:none;fill-rule:nonzero;fill:rgb(89.803922%,45.09804%,45.09804%);fill-opacity:1;" d="M 15.875 1.324219 C 14.398438 1.324219 12.976562 1.539062 11.636719 1.945312 L 12.019531 3.210938 C 13.238281 2.84375 14.535156 2.644531 15.875 2.644531 C 17.214844 2.644531 18.511719 2.84375 19.730469 3.210938 L 20.113281 1.945312 C 18.773438 1.539062 17.351562 1.324219 15.875 1.324219 Z M 15.875 1.324219 "/>
<path style=" stroke:none;fill-rule:nonzero;fill:rgb(64.705884%,83.92157%,65.490198%);fill-opacity:1;" d="M 19.730469 28.539062 C 18.511719 28.90625 17.214844 29.105469 15.875 29.105469 C 14.84375 29.105469 13.84375 28.988281 12.882812 28.765625 L 12.582031 30.054688 C 13.640625 30.300781 14.742188 30.425781 15.875 30.425781 C 17.351562 30.425781 18.773438 30.210938 20.113281 29.804688 Z M 19.730469 28.539062 "/>
<path style=" stroke:none;fill-rule:nonzero;fill:rgb(100%,87.843138%,50.980395%);fill-opacity:1;" d="M 29.804688 11.636719 L 28.539062 12.019531 C 28.90625 13.238281 29.105469 14.535156 29.105469 15.875 C 29.105469 16.90625 28.988281 17.90625 28.765625 18.867188 L 30.054688 19.167969 C 30.300781 18.109375 30.425781 17.007812 30.425781 15.875 C 30.425781 14.398438 30.210938 12.976562 29.804688 11.636719 Z M 29.804688 11.636719 "/>
<path style=" stroke:none;fill-rule:nonzero;fill:rgb(100%,71.764708%,30.19608%);fill-opacity:1;" d="M 25.820312 5.234375 L 24.917969 6.203125 C 26.59375 7.769531 27.855469 9.765625 28.539062 12.019531 L 29.804688 11.636719 C 29.054688 9.15625 27.664062 6.957031 25.820312 5.234375 Z M 25.820312 5.234375 "/>
<path style=" stroke:none;fill-rule:nonzero;fill:rgb(100%,54.11765%,39.607844%);fill-opacity:1;" d="M 20.113281 1.945312 L 19.730469 3.210938 C 21.691406 3.804688 23.460938 4.839844 24.917969 6.203125 L 25.820312 5.234375 C 24.21875 3.738281 22.273438 2.597656 20.113281 1.945312 Z M 20.113281 1.945312 "/>
<path style=" stroke:none;fill-rule:nonzero;fill:rgb(50.196081%,87.058824%,91.764706%);fill-opacity:1;" d="M 6.832031 25.546875 L 5.929688 26.515625 C 7.761719 28.230469 10.042969 29.472656 12.582031 30.054688 L 12.882812 28.765625 C 10.574219 28.238281 8.5 27.105469 6.832031 25.546875 Z M 6.832031 25.546875 "/>
<path style=" stroke:none;fill-rule:nonzero;fill:rgb(94.117647%,38.431373%,57.254905%);fill-opacity:1;" d="M 11.636719 1.945312 C 9.15625 2.695312 6.957031 4.085938 5.234375 5.929688 L 6.203125 6.832031 C 7.769531 5.15625 9.765625 3.894531 12.019531 3.210938 Z M 11.636719 1.945312 "/>
<path style=" stroke:none;fill-rule:nonzero;fill:rgb(77.254903%,88.235295%,64.705884%);fill-opacity:1;" d="M 25.546875 24.917969 C 23.980469 26.59375 21.984375 27.855469 19.730469 28.539062 L 20.113281 29.804688 C 22.59375 29.054688 24.792969 27.664062 26.515625 25.820312 Z M 25.546875 24.917969 "/>
<path style=" stroke:none;fill-rule:nonzero;fill:rgb(72.941178%,40.784314%,78.431374%);fill-opacity:1;" d="M 5.234375 5.929688 C 3.519531 7.761719 2.277344 10.042969 1.695312 12.582031 L 2.984375 12.882812 C 3.511719 10.574219 4.644531 8.5 6.203125 6.832031 Z M 5.234375 5.929688 "/>
<path style=" stroke:none;fill-rule:nonzero;fill:rgb(100%,96.078432%,61.56863%);fill-opacity:1;" d="M 28.765625 18.867188 C 28.238281 21.175781 27.105469 23.25 25.546875 24.917969 L 26.515625 25.820312 C 28.230469 23.988281 29.472656 21.707031 30.054688 19.167969 Z M 28.765625 18.867188 "/>
<path style=" stroke:none;fill-rule:nonzero;fill:rgb(74.117649%,74.117649%,74.117649%);fill-opacity:1;" d="M 15.875 9.261719 C 12.210938 9.261719 9.261719 12.210938 9.261719 15.875 C 9.261719 19.539062 12.210938 22.488281 15.875 22.488281 C 19.539062 22.488281 22.488281 19.539062 22.488281 15.875 C 22.488281 12.210938 19.539062 9.261719 15.875 9.261719 Z M 15.875 10.582031 C 18.804688 10.582031 21.167969 12.945312 21.167969 15.875 C 21.167969 18.804688 18.804688 21.167969 15.875 21.167969 C 12.945312 21.167969 10.582031 18.804688 10.582031 15.875 C 10.582031 12.945312 12.945312 10.582031 15.875 10.582031 Z M 15.875 10.582031 "/>
</g>
</svg>
