<?xml version="1.0" encoding="UTF-8"?>
<svg xmlns="http://www.w3.org/2000/svg" xmlns:xlink="http://www.w3.org/1999/xlink" width="32px" height="32px" viewBox="0 0 32 32" version="1.1">
<g id="surface1">
<path style=" stroke:none;fill-rule:nonzero;fill:rgb(49.411765%,34.117648%,76.078433%);fill-opacity:1;" d="M 2.644531 1.574219 C 1.914062 1.574219 1.324219 2.164062 1.324219 2.894531 L 1.324219 16.125 L 15.875 16.125 L 15.875 1.574219 Z M 2.644531 1.574219 "/>
<path style=" stroke:none;fill-rule:nonzero;fill:rgb(100%,65.490198%,14.901961%);fill-opacity:1;" d="M 29.105469 1.574219 C 29.835938 1.574219 30.425781 2.164062 30.425781 2.894531 L 30.425781 16.125 L 15.875 16.125 L 15.875 1.574219 Z M 29.105469 1.574219 "/>
<path style=" stroke:none;fill-rule:nonzero;fill:rgb(92.54902%,25.098041%,47.843137%);fill-opacity:1;" d="M 2.644531 30.675781 C 1.914062 30.675781 1.324219 30.085938 1.324219 29.355469 L 1.324219 16.125 L 15.875 16.125 L 15.875 30.675781 Z M 2.644531 30.675781 "/>
<path style=" stroke:none;fill-rule:nonzero;fill:rgb(93.725491%,32.549021%,31.37255%);fill-opacity:1;" d="M 29.105469 30.675781 C 29.835938 30.675781 30.425781 30.085938 30.425781 29.355469 L 30.425781 16.125 L 15.875 16.125 L 15.875 30.675781 Z M 29.105469 30.675781 "/>
<path style=" stroke:none;fill-rule:nonzero;fill:rgb(25.882354%,25.882354%,25.882354%);fill-opacity:1;" d="M 7.894531 6.90625 L 23.855469 6.90625 C 24.5625 6.90625 25.136719 7.480469 25.136719 8.1875 L 25.136719 24.722656 C 25.136719 25.433594 24.5625 26.003906 23.855469 26.003906 L 7.894531 26.003906 C 7.1875 26.003906 6.613281 25.433594 6.613281 24.722656 L 6.613281 8.1875 C 6.613281 7.480469 7.1875 6.90625 7.894531 6.90625 Z M 7.894531 6.90625 "/>
<path style=" stroke:none;fill-rule:nonzero;fill:rgb(93.333334%,93.333334%,93.333334%);fill-opacity:1;" d="M 8.269531 10.832031 C 8.085938 10.832031 7.9375 10.980469 7.9375 11.164062 L 7.9375 21.085938 C 7.9375 21.269531 8.085938 21.417969 8.269531 21.417969 L 8.929688 21.417969 C 9.113281 21.417969 9.261719 21.269531 9.261719 21.085938 L 9.261719 17.777344 L 11.898438 17.777344 L 13.902344 21.25 C 13.992188 21.410156 14.195312 21.464844 14.355469 21.371094 L 14.925781 21.042969 C 15.085938 20.949219 15.140625 20.75 15.046875 20.589844 L 13.253906 17.480469 C 14.410156 16.941406 15.214844 15.726562 15.214844 14.304688 C 15.214844 12.382812 13.738281 10.832031 11.90625 10.832031 Z M 9.261719 12.15625 L 11.90625 12.15625 C 13.003906 12.15625 13.890625 13.042969 13.890625 14.140625 L 13.890625 14.472656 C 13.890625 15.570312 13.003906 16.457031 11.90625 16.457031 L 9.261719 16.457031 Z M 9.261719 12.15625 "/>
<path style=" stroke:none;fill-rule:nonzero;fill:rgb(93.333334%,93.333334%,93.333334%);fill-opacity:1;" d="M 17.199219 10.832031 C 16.832031 10.832031 16.535156 11.128906 16.535156 11.496094 L 16.535156 16.457031 C 16.535156 16.460938 16.535156 16.460938 16.535156 16.464844 L 16.535156 21.085938 C 16.535156 21.269531 16.683594 21.417969 16.867188 21.417969 L 17.527344 21.417969 C 17.710938 21.417969 17.859375 21.269531 17.859375 21.085938 L 17.859375 16.476562 C 17.859375 16.46875 17.859375 16.460938 17.859375 16.457031 L 17.859375 13.75 L 19.617188 16.484375 C 19.738281 16.671875 19.949219 16.785156 20.175781 16.785156 C 20.398438 16.785156 20.609375 16.671875 20.730469 16.484375 L 22.488281 13.75 L 22.488281 16.457031 C 22.488281 16.460938 22.488281 16.460938 22.488281 16.464844 L 22.488281 21.085938 C 22.488281 21.269531 22.636719 21.417969 22.820312 21.417969 L 23.480469 21.417969 C 23.664062 21.417969 23.8125 21.269531 23.8125 21.085938 L 23.8125 16.476562 C 23.8125 16.46875 23.8125 16.460938 23.8125 16.457031 L 23.8125 11.496094 C 23.8125 11.199219 23.621094 10.941406 23.339844 10.859375 C 23.054688 10.777344 22.753906 10.890625 22.59375 11.136719 L 20.175781 14.902344 L 17.753906 11.136719 C 17.632812 10.949219 17.421875 10.832031 17.199219 10.832031 Z M 17.199219 10.832031 "/>
</g>
</svg>
