
<svg xmlns="http://www.w3.org/2000/svg" xmlns:xlink="http://www.w3.org/1999/xlink" width="32px" height="32px" viewBox="0 0 32 32" version="1.1">
<g id="surface1">
<path style=" stroke:none;fill-rule:nonzero;fill:rgb(69.01961%,74.509805%,77.254903%);fill-opacity:1;" d="M 2.316406 11.039062 C 0.804688 14.96875 1.324219 20.300781 1.652344 23.277344 C 2.316406 27.246094 5.953125 27.246094 6.945312 23.9375 C 7.660156 20.46875 8.867188 19.152344 10.253906 18.648438 Z M 2.316406 11.039062 "/>
<path style=" stroke:none;fill-rule:nonzero;fill:rgb(69.01961%,74.509805%,77.254903%);fill-opacity:1;" d="M 29.433594 11.039062 C 30.945312 14.96875 30.425781 20.300781 30.097656 23.277344 C 29.433594 27.246094 25.796875 27.246094 24.804688 23.9375 C 24.089844 20.46875 22.882812 19.152344 21.496094 18.648438 Z M 29.433594 11.039062 "/>
<path style=" stroke:none;fill-rule:nonzero;fill:rgb(56.470591%,64.313728%,68.235296%);fill-opacity:1;" d="M 4.628906 8.0625 L 4.628906 7.734375 C 4.628906 7.402344 6.285156 6.742188 7.277344 6.742188 L 10.582031 6.742188 C 10.75 6.742188 10.90625 6.757812 10.914062 7.070312 Z M 4.628906 8.0625 "/>
<path style=" stroke:none;fill-rule:nonzero;fill:rgb(56.470591%,64.313728%,68.235296%);fill-opacity:1;" d="M 27.121094 8.0625 L 27.121094 7.734375 C 27.121094 7.402344 25.464844 6.742188 24.472656 6.742188 L 21.167969 6.742188 C 21 6.742188 20.84375 6.757812 20.835938 7.070312 Z M 27.121094 8.0625 "/>
<path style=" stroke:none;fill-rule:nonzero;fill:rgb(81.176472%,84.705883%,86.274511%);fill-opacity:1;" d="M 7.9375 7.070312 C 4.640625 7.070312 1.984375 9.726562 1.984375 13.023438 C 1.984375 16.324219 4.640625 18.976562 7.9375 18.976562 C 8.71875 18.976562 9.460938 18.828125 10.140625 18.558594 C 10.554688 18.824219 11.046875 18.976562 11.574219 18.976562 C 12.558594 18.976562 13.414062 18.445312 13.871094 17.65625 L 17.878906 17.65625 C 18.335938 18.445312 19.191406 18.976562 20.175781 18.976562 C 20.703125 18.976562 21.195312 18.824219 21.609375 18.558594 C 22.289062 18.828125 23.03125 18.976562 23.8125 18.976562 C 27.109375 18.976562 29.765625 16.324219 29.765625 13.023438 C 29.765625 9.726562 27.109375 7.070312 23.8125 7.070312 Z M 7.9375 7.070312 "/>
<path style=" stroke:none;fill-rule:nonzero;fill:rgb(69.01961%,74.509805%,77.254903%);fill-opacity:1;" d="M 7.9375 7.734375 C 5.007812 7.734375 2.644531 10.09375 2.644531 13.023438 C 2.644531 15.957031 5.007812 18.316406 7.9375 18.316406 C 9.285156 18.316406 10.511719 17.816406 11.445312 16.992188 L 20.304688 16.992188 C 21.238281 17.816406 22.464844 18.316406 23.8125 18.316406 C 26.742188 18.316406 29.105469 15.957031 29.105469 13.023438 C 29.105469 10.09375 26.742188 7.734375 23.8125 7.734375 Z M 7.9375 7.734375 "/>
<path style=" stroke:none;fill-rule:nonzero;fill:rgb(56.470591%,64.313728%,68.235296%);fill-opacity:1;" d="M 11.574219 13.558594 C 12.945312 13.558594 14.054688 14.671875 14.054688 16.039062 C 14.054688 17.410156 12.945312 18.519531 11.574219 18.519531 C 10.207031 18.519531 9.09375 17.410156 9.09375 16.039062 C 9.09375 14.671875 10.207031 13.558594 11.574219 13.558594 Z M 11.574219 13.558594 "/>
<path style=" stroke:none;fill-rule:nonzero;fill:rgb(69.01961%,74.509805%,77.254903%);fill-opacity:1;" d="M 10.335938 10.710938 L 10.335938 12.527344 C 10.335938 12.710938 10.1875 12.859375 10.003906 12.859375 L 5.042969 12.859375 C 4.859375 12.859375 4.710938 12.710938 4.710938 12.527344 L 4.710938 10.710938 C 4.710938 10.527344 4.859375 10.378906 5.042969 10.378906 L 10.003906 10.378906 C 10.1875 10.378906 10.335938 10.527344 10.335938 10.710938 Z M 10.335938 10.710938 "/>
<path style=" stroke:none;fill-rule:nonzero;fill:rgb(69.01961%,74.509805%,77.254903%);fill-opacity:1;" d="M 6.613281 8.890625 L 8.433594 8.890625 C 8.617188 8.890625 8.765625 9.039062 8.765625 9.222656 L 8.765625 14.183594 C 8.765625 14.367188 8.617188 14.511719 8.433594 14.511719 L 6.613281 14.511719 C 6.433594 14.511719 6.285156 14.367188 6.285156 14.183594 L 6.285156 9.222656 C 6.285156 9.039062 6.433594 8.890625 6.613281 8.890625 Z M 6.613281 8.890625 "/>
<path style=" stroke:none;fill-rule:nonzero;fill:rgb(38.039216%,38.039216%,38.039216%);fill-opacity:1;" d="M 6.945312 9.222656 C 6.761719 9.222656 6.613281 9.371094 6.613281 9.550781 L 6.613281 10.792969 L 5.375 10.792969 C 5.191406 10.792969 5.042969 10.941406 5.042969 11.125 L 5.042969 12.28125 C 5.042969 12.464844 5.191406 12.613281 5.375 12.613281 L 6.613281 12.613281 L 6.613281 13.851562 C 6.613281 14.035156 6.761719 14.183594 6.945312 14.183594 L 8.101562 14.183594 C 8.285156 14.183594 8.433594 14.035156 8.433594 13.851562 L 8.433594 12.613281 L 9.671875 12.613281 C 9.855469 12.613281 10.003906 12.464844 10.003906 12.28125 L 10.003906 11.125 C 10.003906 10.941406 9.855469 10.792969 9.671875 10.792969 L 8.433594 10.792969 L 8.433594 9.550781 C 8.433594 9.371094 8.285156 9.222656 8.101562 9.222656 Z M 6.945312 9.222656 "/>
<path style=" stroke:none;fill-rule:nonzero;fill:rgb(25.882354%,25.882354%,25.882354%);fill-opacity:1;" d="M 7.523438 11.039062 C 7.84375 11.039062 8.101562 11.300781 8.101562 11.621094 C 8.101562 11.9375 7.84375 12.199219 7.523438 12.199219 C 7.203125 12.199219 6.945312 11.9375 6.945312 11.621094 C 6.945312 11.300781 7.203125 11.039062 7.523438 11.039062 Z M 7.523438 11.039062 "/>
<path style=" stroke:none;fill-rule:nonzero;fill:rgb(25.882354%,25.882354%,25.882354%);fill-opacity:1;" d="M 6.285156 11.207031 L 6.285156 12.199219 L 5.457031 11.703125 Z M 6.285156 11.207031 "/>
<path style=" stroke:none;fill-rule:nonzero;fill:rgb(25.882354%,25.882354%,25.882354%);fill-opacity:1;" d="M 8.765625 11.207031 L 8.765625 12.199219 L 9.589844 11.703125 Z M 8.765625 11.207031 "/>
<path style=" stroke:none;fill-rule:nonzero;fill:rgb(25.882354%,25.882354%,25.882354%);fill-opacity:1;" d="M 8.019531 10.460938 L 7.027344 10.460938 L 7.523438 9.636719 Z M 8.019531 10.460938 "/>
<path style=" stroke:none;fill-rule:nonzero;fill:rgb(25.882354%,25.882354%,25.882354%);fill-opacity:1;" d="M 8.019531 12.941406 L 7.027344 12.941406 L 7.523438 13.769531 Z M 8.019531 12.941406 "/>
<path style=" stroke:none;fill-rule:nonzero;fill:rgb(69.01961%,74.509805%,77.254903%);fill-opacity:1;" d="M 13.890625 10.378906 L 17.859375 10.378906 C 18.5 10.378906 19.015625 10.898438 19.015625 11.535156 C 19.015625 12.175781 18.5 12.695312 17.859375 12.695312 L 13.890625 12.695312 C 13.25 12.695312 12.734375 12.175781 12.734375 11.535156 C 12.734375 10.898438 13.25 10.378906 13.890625 10.378906 Z M 13.890625 10.378906 "/>
<path style=" stroke:none;fill-rule:nonzero;fill:rgb(56.470591%,64.313728%,68.235296%);fill-opacity:1;" d="M 13.890625 10.710938 L 17.859375 10.710938 C 18.316406 10.710938 18.6875 11.082031 18.6875 11.535156 C 18.6875 11.992188 18.316406 12.363281 17.859375 12.363281 L 13.890625 12.363281 C 13.433594 12.363281 13.0625 11.992188 13.0625 11.535156 C 13.0625 11.082031 13.433594 10.710938 13.890625 10.710938 Z M 13.890625 10.710938 "/>
<path style=" stroke:none;fill-rule:nonzero;fill:rgb(25.882354%,25.882354%,25.882354%);fill-opacity:1;" d="M 13.726562 11.207031 L 15.214844 11.207031 C 15.394531 11.207031 15.542969 11.355469 15.542969 11.535156 C 15.542969 11.71875 15.394531 11.867188 15.214844 11.867188 L 13.726562 11.867188 C 13.542969 11.867188 13.394531 11.71875 13.394531 11.535156 C 13.394531 11.355469 13.542969 11.207031 13.726562 11.207031 Z M 13.726562 11.207031 "/>
<path style=" stroke:none;fill-rule:nonzero;fill:rgb(25.882354%,25.882354%,25.882354%);fill-opacity:1;" d="M 16.535156 11.207031 L 18.023438 11.207031 C 18.207031 11.207031 18.355469 11.355469 18.355469 11.535156 C 18.355469 11.71875 18.207031 11.867188 18.023438 11.867188 L 16.535156 11.867188 C 16.355469 11.867188 16.207031 11.71875 16.207031 11.535156 C 16.207031 11.355469 16.355469 11.207031 16.535156 11.207031 Z M 16.535156 11.207031 "/>
<path style=" stroke:none;fill-rule:nonzero;fill:rgb(69.01961%,74.509805%,77.254903%);fill-opacity:1;" d="M 21.496094 10.378906 C 22.226562 10.378906 22.820312 10.972656 22.820312 11.703125 C 22.820312 12.433594 22.226562 13.023438 21.496094 13.023438 C 20.765625 13.023438 20.175781 12.433594 20.175781 11.703125 C 20.175781 10.972656 20.765625 10.378906 21.496094 10.378906 Z M 21.496094 10.378906 "/>
<path style=" stroke:none;fill-rule:nonzero;fill:rgb(49.411765%,34.117648%,76.078433%);fill-opacity:1;" d="M 21.496094 10.710938 C 22.046875 10.710938 22.488281 11.152344 22.488281 11.703125 C 22.488281 12.25 22.046875 12.695312 21.496094 12.695312 C 20.949219 12.695312 20.503906 12.25 20.503906 11.703125 C 20.503906 11.152344 20.949219 10.710938 21.496094 10.710938 Z M 21.496094 10.710938 "/>
<path style=" stroke:none;fill-rule:nonzero;fill:rgb(69.01961%,74.509805%,77.254903%);fill-opacity:1;" d="M 24.144531 8.394531 C 24.875 8.394531 25.464844 8.988281 25.464844 9.71875 C 25.464844 10.449219 24.875 11.039062 24.144531 11.039062 C 23.414062 11.039062 22.820312 10.449219 22.820312 9.71875 C 22.820312 8.988281 23.414062 8.394531 24.144531 8.394531 Z M 24.144531 8.394531 "/>
<path style=" stroke:none;fill-rule:nonzero;fill:rgb(49.411765%,34.117648%,76.078433%);fill-opacity:1;" d="M 24.144531 8.726562 C 24.691406 8.726562 25.136719 9.167969 25.136719 9.71875 C 25.136719 10.265625 24.691406 10.710938 24.144531 10.710938 C 23.59375 10.710938 23.152344 10.265625 23.152344 9.71875 C 23.152344 9.167969 23.59375 8.726562 24.144531 8.726562 Z M 24.144531 8.726562 "/>
<path style=" stroke:none;fill-rule:nonzero;fill:rgb(69.01961%,74.509805%,77.254903%);fill-opacity:1;" d="M 24.144531 12.363281 C 24.875 12.363281 25.464844 12.957031 25.464844 13.6875 C 25.464844 14.417969 24.875 15.007812 24.144531 15.007812 C 23.414062 15.007812 22.820312 14.417969 22.820312 13.6875 C 22.820312 12.957031 23.414062 12.363281 24.144531 12.363281 Z M 24.144531 12.363281 "/>
<path style=" stroke:none;fill-rule:nonzero;fill:rgb(49.411765%,34.117648%,76.078433%);fill-opacity:1;" d="M 24.144531 12.695312 C 24.691406 12.695312 25.136719 13.136719 25.136719 13.6875 C 25.136719 14.234375 24.691406 14.679688 24.144531 14.679688 C 23.59375 14.679688 23.152344 14.234375 23.152344 13.6875 C 23.152344 13.136719 23.59375 12.695312 24.144531 12.695312 Z M 24.144531 12.695312 "/>
<path style=" stroke:none;fill-rule:nonzero;fill:rgb(69.01961%,74.509805%,77.254903%);fill-opacity:1;" d="M 26.789062 10.378906 C 27.519531 10.378906 28.113281 10.972656 28.113281 11.703125 C 28.113281 12.433594 27.519531 13.023438 26.789062 13.023438 C 26.058594 13.023438 25.464844 12.433594 25.464844 11.703125 C 25.464844 10.972656 26.058594 10.378906 26.789062 10.378906 Z M 26.789062 10.378906 "/>
<path style=" stroke:none;fill-rule:nonzero;fill:rgb(49.411765%,34.117648%,76.078433%);fill-opacity:1;" d="M 26.789062 10.710938 C 27.335938 10.710938 27.78125 11.152344 27.78125 11.703125 C 27.78125 12.25 27.335938 12.695312 26.789062 12.695312 C 26.242188 12.695312 25.796875 12.25 25.796875 11.703125 C 25.796875 11.152344 26.242188 10.710938 26.789062 10.710938 Z M 26.789062 10.710938 "/>
<path style=" stroke:none;fill-rule:nonzero;fill:rgb(92.54902%,93.725491%,94.509804%);fill-opacity:1;" d="M 11.574219 13.726562 C 12.855469 13.726562 13.890625 14.761719 13.890625 16.039062 C 13.890625 17.320312 12.855469 18.355469 11.574219 18.355469 C 10.296875 18.355469 9.261719 17.320312 9.261719 16.039062 C 9.261719 14.761719 10.296875 13.726562 11.574219 13.726562 Z M 11.574219 13.726562 "/>
<path style=" stroke:none;fill-rule:nonzero;fill:rgb(38.039216%,38.039216%,38.039216%);fill-opacity:1;" d="M 11.574219 14.386719 C 12.488281 14.386719 13.230469 15.128906 13.230469 16.039062 C 13.230469 16.953125 12.488281 17.695312 11.574219 17.695312 C 10.664062 17.695312 9.921875 16.953125 9.921875 16.039062 C 9.921875 15.128906 10.664062 14.386719 11.574219 14.386719 Z M 11.574219 14.386719 "/>
<path style=" stroke:none;fill-rule:nonzero;fill:rgb(25.882354%,25.882354%,25.882354%);fill-opacity:1;" d="M 11.574219 15.046875 C 12.125 15.046875 12.566406 15.492188 12.566406 16.039062 C 12.566406 16.589844 12.125 17.03125 11.574219 17.03125 C 11.027344 17.03125 10.582031 16.589844 10.582031 16.039062 C 10.582031 15.492188 11.027344 15.046875 11.574219 15.046875 Z M 11.574219 15.046875 "/>
<path style=" stroke:none;fill-rule:nonzero;fill:rgb(58.431375%,45.882353%,80.392158%);fill-opacity:1;" d="M 24.144531 8.726562 C 23.59375 8.726562 23.152344 9.167969 23.152344 9.71875 C 23.152344 9.992188 23.261719 10.242188 23.441406 10.421875 L 24.84375 9.015625 C 24.667969 8.835938 24.417969 8.726562 24.144531 8.726562 Z M 24.144531 8.726562 "/>
<path style=" stroke:none;fill-rule:nonzero;fill:rgb(58.431375%,45.882353%,80.392158%);fill-opacity:1;" d="M 21.496094 10.710938 C 20.949219 10.710938 20.503906 11.152344 20.503906 11.703125 C 20.503906 11.976562 20.617188 12.226562 20.796875 12.40625 L 22.199219 11 C 22.019531 10.820312 21.773438 10.710938 21.496094 10.710938 Z M 21.496094 10.710938 "/>
<path style=" stroke:none;fill-rule:nonzero;fill:rgb(58.431375%,45.882353%,80.392158%);fill-opacity:1;" d="M 24.144531 12.695312 C 23.59375 12.695312 23.152344 13.136719 23.152344 13.6875 C 23.152344 13.960938 23.261719 14.210938 23.441406 14.390625 L 24.84375 12.984375 C 24.667969 12.804688 24.417969 12.695312 24.144531 12.695312 Z M 24.144531 12.695312 "/>
<path style=" stroke:none;fill-rule:nonzero;fill:rgb(58.431375%,45.882353%,80.392158%);fill-opacity:1;" d="M 26.789062 10.710938 C 26.238281 10.710938 25.796875 11.152344 25.796875 11.703125 C 25.796875 11.976562 25.90625 12.226562 26.085938 12.40625 L 27.492188 11 C 27.3125 10.820312 27.0625 10.710938 26.789062 10.710938 Z M 26.789062 10.710938 "/>
<path style=" stroke:none;fill-rule:nonzero;fill:rgb(56.470591%,64.313728%,68.235296%);fill-opacity:1;" d="M 20.175781 13.558594 C 21.542969 13.558594 22.65625 14.671875 22.65625 16.039062 C 22.65625 17.410156 21.542969 18.519531 20.175781 18.519531 C 18.804688 18.519531 17.695312 17.410156 17.695312 16.039062 C 17.695312 14.671875 18.804688 13.558594 20.175781 13.558594 Z M 20.175781 13.558594 "/>
<path style=" stroke:none;fill-rule:nonzero;fill:rgb(92.54902%,93.725491%,94.509804%);fill-opacity:1;" d="M 20.175781 13.726562 C 21.453125 13.726562 22.488281 14.761719 22.488281 16.039062 C 22.488281 17.320312 21.453125 18.355469 20.175781 18.355469 C 18.894531 18.355469 17.859375 17.320312 17.859375 16.039062 C 17.859375 14.761719 18.894531 13.726562 20.175781 13.726562 Z M 20.175781 13.726562 "/>
<path style=" stroke:none;fill-rule:nonzero;fill:rgb(38.039216%,38.039216%,38.039216%);fill-opacity:1;" d="M 20.175781 14.386719 C 21.085938 14.386719 21.828125 15.128906 21.828125 16.039062 C 21.828125 16.953125 21.085938 17.695312 20.175781 17.695312 C 19.261719 17.695312 18.519531 16.953125 18.519531 16.039062 C 18.519531 15.128906 19.261719 14.386719 20.175781 14.386719 Z M 20.175781 14.386719 "/>
<path style=" stroke:none;fill-rule:nonzero;fill:rgb(25.882354%,25.882354%,25.882354%);fill-opacity:1;" d="M 20.175781 15.046875 C 20.722656 15.046875 21.167969 15.492188 21.167969 16.039062 C 21.167969 16.589844 20.722656 17.03125 20.175781 17.03125 C 19.625 17.03125 19.183594 16.589844 19.183594 16.039062 C 19.183594 15.492188 19.625 15.046875 20.175781 15.046875 Z M 20.175781 15.046875 "/>
</g>
</svg>
