
<svg xmlns="http://www.w3.org/2000/svg" xmlns:xlink="http://www.w3.org/1999/xlink" width="32px" height="32px" viewBox="0 0 32 32" version="1.1">
<g id="surface1">
<path style=" stroke:none;fill-rule:nonzero;fill:rgb(40.000001%,73.333335%,41.568628%);fill-opacity:1;" d="M 15.875 1.324219 C 23.910156 1.324219 30.425781 7.839844 30.425781 15.875 C 30.425781 23.910156 23.910156 30.425781 15.875 30.425781 C 7.839844 30.425781 1.324219 23.910156 1.324219 15.875 C 1.324219 7.839844 7.839844 1.324219 15.875 1.324219 Z M 15.875 1.324219 "/>
<path style=" stroke:none;fill-rule:nonzero;fill:rgb(93.333334%,93.333334%,93.333334%);fill-opacity:1;" d="M 15.875 2.644531 C 23.179688 2.644531 29.105469 8.570312 29.105469 15.875 C 29.105469 23.179688 23.179688 29.105469 15.875 29.105469 C 8.570312 29.105469 2.644531 23.179688 2.644531 15.875 C 2.644531 8.570312 8.570312 2.644531 15.875 2.644531 Z M 15.875 2.644531 "/>
<path style=" stroke:none;fill-rule:nonzero;fill:rgb(40.000001%,73.333335%,41.568628%);fill-opacity:1;" d="M 14.566406 14.804688 C 12.660156 14.785156 10.8125 15.085938 9.089844 15.664062 C 8.539062 15.847656 8.238281 16.445312 8.421875 16.996094 C 8.609375 17.550781 9.207031 17.847656 9.757812 17.664062 C 11.476562 17.089844 13.335938 16.828125 15.265625 16.941406 C 17.816406 17.089844 20.160156 17.875 22.171875 19.132812 C 22.667969 19.441406 23.316406 19.289062 23.625 18.796875 C 23.933594 18.300781 23.785156 17.652344 23.289062 17.34375 C 20.988281 15.902344 18.296875 15.003906 15.390625 14.835938 C 15.113281 14.820312 14.839844 14.808594 14.566406 14.804688 Z M 14.566406 14.804688 "/>
<path style=" stroke:none;fill-rule:nonzero;fill:rgb(40.000001%,73.333335%,41.568628%);fill-opacity:1;" d="M 14.664062 9.261719 C 12.246094 9.265625 9.933594 9.777344 7.839844 10.703125 C 7.183594 10.992188 6.886719 11.757812 7.175781 12.414062 C 7.464844 13.070312 8.234375 13.367188 8.886719 13.078125 C 10.914062 12.183594 13.175781 11.742188 15.554688 11.882812 C 18.710938 12.066406 21.546875 13.242188 23.808594 15.085938 C 24.363281 15.539062 25.179688 15.457031 25.636719 14.902344 C 26.089844 14.34375 26.003906 13.527344 25.449219 13.074219 C 22.78125 10.894531 19.414062 9.507812 15.707031 9.289062 C 15.355469 9.269531 15.007812 9.261719 14.664062 9.261719 Z M 14.664062 9.261719 "/>
<path style=" stroke:none;fill-rule:nonzero;fill:rgb(40.000001%,73.333335%,41.568628%);fill-opacity:1;" d="M 13.625 19.476562 C 12.429688 19.492188 11.257812 19.636719 10.128906 19.894531 C 9.667969 20.003906 9.382812 20.460938 9.488281 20.921875 C 9.59375 21.382812 10.050781 21.667969 10.511719 21.5625 C 11.859375 21.253906 13.277344 21.128906 14.734375 21.214844 C 16.761719 21.332031 18.664062 21.847656 20.375 22.679688 C 20.800781 22.886719 21.3125 22.710938 21.519531 22.289062 C 21.726562 21.863281 21.550781 21.351562 21.125 21.144531 C 19.214844 20.214844 17.089844 19.636719 14.832031 19.503906 C 14.429688 19.480469 14.027344 19.472656 13.625 19.476562 Z M 13.625 19.476562 "/>
</g>
</svg>
