<?xml version="1.0" encoding="UTF-8"?>
<svg xmlns="http://www.w3.org/2000/svg" xmlns:xlink="http://www.w3.org/1999/xlink" width="32px" height="32px" viewBox="0 0 32 32" version="1.1">
<g id="surface1">
<path style=" stroke:none;fill-rule:nonzero;fill:rgb(93.725491%,32.549021%,31.37255%);fill-opacity:1;" d="M 5.414062 1.535156 C 4.742188 1.539062 4.0625 1.710938 3.4375 2.070312 C 1.53125 3.171875 0.886719 5.589844 1.984375 7.492188 L 14.222656 28.6875 C 15.320312 30.59375 17.738281 31.242188 19.644531 30.140625 C 20.246094 29.792969 20.722656 29.3125 21.058594 28.757812 C 23.933594 21.863281 26.695312 14.574219 29.433594 7.527344 C 29.765625 6.535156 30.425781 6.535156 30.425781 4.878906 C 30.425781 3.046875 28.953125 1.574219 27.121094 1.574219 C 25.289062 1.574219 23.8125 3.046875 23.8125 4.878906 C 23.8125 5.953125 24.320312 6.902344 25.105469 7.507812 L 21.761719 16.117188 C 21.480469 17.449219 20.363281 18.441406 19.015625 18.441406 C 17.363281 18.441406 16.371094 16.621094 16.132812 16.125 L 8.859375 3.523438 C 8.121094 2.246094 6.785156 1.535156 5.414062 1.535156 Z M 5.414062 1.535156 "/>
</g>
</svg>
