<?xml version="1.0" encoding="UTF-8"?>
<svg xmlns="http://www.w3.org/2000/svg" xmlns:xlink="http://www.w3.org/1999/xlink" width="32px" height="32px" viewBox="0 0 32 32" version="1.1">
<g id="surface1">
<path style=" stroke:none;fill-rule:nonzero;fill:rgb(93.333334%,93.333334%,93.333334%);fill-opacity:1;" d="M 9.261719 30.675781 L 27.78125 30.675781 C 28.515625 30.675781 29.105469 30.085938 29.105469 29.355469 L 29.105469 2.894531 C 29.105469 2.164062 28.515625 1.574219 27.78125 1.574219 L 9.261719 1.574219 Z M 9.261719 30.675781 "/>
<path style=" stroke:none;fill-rule:nonzero;fill:rgb(47.058824%,56.470591%,61.176473%);fill-opacity:1;" d="M 9.261719 30.675781 L 9.261719 1.574219 L 3.96875 1.574219 C 3.234375 1.574219 2.644531 2.164062 2.644531 2.894531 L 2.644531 29.355469 C 2.644531 30.085938 3.234375 30.675781 3.96875 30.675781 Z M 9.261719 30.675781 "/>
<path style=" stroke:none;fill-rule:nonzero;fill:rgb(87.843138%,87.843138%,87.843138%);fill-opacity:1;" d="M 13.480469 1.574219 L 9.386719 8.664062 L 20.179688 14.894531 L 26.410156 4.101562 L 22.03125 1.574219 Z M 27.851562 4.933594 L 21.617188 15.726562 L 29.105469 20.046875 L 29.105469 5.65625 Z M 9.261719 10.511719 L 9.261719 24.902344 L 13.117188 27.128906 L 19.347656 16.335938 Z M 20.789062 17.164062 L 14.554688 27.957031 L 19.265625 30.675781 L 27.378906 30.675781 L 29.105469 27.6875 L 29.105469 21.96875 Z M 20.789062 17.164062 "/>
<path style=" stroke:none;fill-rule:nonzero;fill:rgb(47.058824%,56.470591%,61.176473%);fill-opacity:1;" d="M 27.125 28.046875 C 27.125 28.019531 27.125 27.988281 27.121094 27.960938 L 27.121094 16.863281 C 27.175781 16.433594 26.804688 16.066406 26.375 16.125 L 17.199219 16.125 C 16.832031 16.125 16.535156 16.421875 16.535156 16.785156 L 16.535156 28.042969 C 16.535156 28.410156 16.832031 28.703125 17.199219 28.703125 L 26.371094 28.703125 C 26.769531 28.761719 27.125 28.453125 27.125 28.046875 Z M 25.796875 18.449219 L 25.796875 26.378906 L 21.746094 22.410156 Z M 24.921875 17.449219 L 20.355469 21.953125 C 20.113281 22.210938 20.113281 22.609375 20.355469 22.863281 L 24.921875 27.378906 L 18.191406 27.378906 C 18.007812 27.378906 17.859375 27.234375 17.859375 27.050781 L 17.859375 17.777344 C 17.859375 17.59375 18.007812 17.449219 18.191406 17.449219 Z M 24.921875 17.449219 "/>
</g>
</svg>
