
<svg xmlns="http://www.w3.org/2000/svg" xmlns:xlink="http://www.w3.org/1999/xlink" width="16px" height="16px" viewBox="0 0 16 16" version="1.1">
<g id="surface1">
<defs>
  <style id="current-color-scheme" type="text/css">
   .ColorScheme-Text { color:#eeeeee; } .ColorScheme-Highlight { color:#424242; }
  </style>
 </defs>
<path style="fill:currentColor" class="ColorScheme-Text" d="M 7 1 C 5.339844 1 4 2.339844 4 4 C 4 5.660156 5.339844 7 7 7 C 7.359375 7 7.699219 6.929688 8.019531 6.8125 C 8.09375 5.59375 8.882812 4.582031 9.980469 4.1875 C 9.984375 4.125 10 4.0625 10 4 C 10 2.339844 8.660156 1 7 1 Z M 11 5 C 9.890625 5 9 5.890625 9 7 C 9 8.109375 9.890625 9 11 9 C 12.109375 9 13 8.109375 13 7 C 13 5.890625 12.109375 5 11 5 Z M 3 8 C 1.890625 8 1 8.890625 1 10 L 1 15 L 3 15 L 3 12.5 C 3 12.222656 3.195312 12 3.4375 12 L 3.5625 12 C 3.804688 12 4 12.222656 4 12.5 L 4 15 L 6 15 L 6 12 C 6 10.691406 6.835938 9.605469 8 9.195312 L 8 8 Z M 9 10 C 7.890625 10 7 10.890625 7 12 L 7 15 L 8 15 L 8 13.5 C 8 13.222656 8.222656 13 8.5 13 C 8.777344 13 9 13.222656 9 13.5 L 9 15 L 13 15 L 13 13.5 C 13 13.222656 13.222656 13 13.5 13 C 13.777344 13 14 13.222656 14 13.5 L 14 15 L 15 15 L 15 12 C 15 10.890625 14.109375 10 13 10 Z M 9 10 "/>
</g>
</svg>
