<?xml version="1.0" encoding="UTF-8"?>
<svg xmlns="http://www.w3.org/2000/svg" xmlns:xlink="http://www.w3.org/1999/xlink" width="32px" height="32px" viewBox="0 0 32 32" version="1.1">
<g id="surface1">
<path style=" stroke:none;fill-rule:nonzero;fill:rgb(61.176473%,80.000001%,39.607844%);fill-opacity:1;" d="M 21.167969 1.574219 L 5.292969 1.574219 C 4.558594 1.574219 3.96875 2.164062 3.96875 2.894531 L 3.96875 29.355469 C 3.96875 30.085938 4.558594 30.675781 5.292969 30.675781 L 26.457031 30.675781 C 27.191406 30.675781 27.78125 30.085938 27.78125 29.355469 L 27.78125 8.1875 Z M 21.167969 1.574219 "/>
<path style=" stroke:none;fill-rule:nonzero;fill:rgb(48.627451%,70.19608%,25.882354%);fill-opacity:1;" d="M 27.78125 8.1875 L 21.167969 1.574219 L 21.167969 6.863281 C 21.167969 7.597656 21.757812 8.1875 22.488281 8.1875 Z M 27.78125 8.1875 "/>
<path style=" stroke:none;fill-rule:nonzero;fill:rgb(96.078432%,96.078432%,96.078432%);fill-opacity:1;" d="M 10.582031 11.496094 L 21.167969 11.496094 C 21.53125 11.496094 21.828125 11.789062 21.828125 12.15625 C 21.828125 12.523438 21.53125 12.816406 21.167969 12.816406 L 10.582031 12.816406 C 10.21875 12.816406 9.921875 12.523438 9.921875 12.15625 C 9.921875 11.789062 10.21875 11.496094 10.582031 11.496094 Z M 10.582031 11.496094 "/>
<path style=" stroke:none;fill-rule:nonzero;fill:rgb(96.078432%,96.078432%,96.078432%);fill-opacity:1;" d="M 10.582031 20.753906 L 19.84375 20.753906 C 20.210938 20.753906 20.503906 21.050781 20.503906 21.417969 C 20.503906 21.78125 20.210938 22.078125 19.84375 22.078125 L 10.582031 22.078125 C 10.21875 22.078125 9.921875 21.78125 9.921875 21.417969 C 9.921875 21.050781 10.21875 20.753906 10.582031 20.753906 Z M 10.582031 20.753906 "/>
<path style=" stroke:none;fill-rule:nonzero;fill:rgb(96.078432%,96.078432%,96.078432%);fill-opacity:1;" d="M 10.582031 14.472656 L 16.535156 14.472656 C 16.902344 14.472656 17.199219 14.765625 17.199219 15.132812 C 17.199219 15.5 16.902344 15.792969 16.535156 15.792969 L 10.582031 15.792969 C 10.21875 15.792969 9.921875 15.5 9.921875 15.132812 C 9.921875 14.765625 10.21875 14.472656 10.582031 14.472656 Z M 10.582031 14.472656 "/>
<path style=" stroke:none;fill-rule:nonzero;fill:rgb(96.078432%,96.078432%,96.078432%);fill-opacity:1;" d="M 10.582031 17.777344 L 21.167969 17.777344 C 21.53125 17.777344 21.828125 18.066406 21.828125 18.421875 L 21.828125 18.460938 C 21.828125 18.8125 21.53125 19.101562 21.167969 19.101562 L 10.582031 19.101562 C 10.21875 19.101562 9.921875 18.8125 9.921875 18.460938 L 9.921875 18.421875 C 9.921875 18.066406 10.21875 17.777344 10.582031 17.777344 Z M 10.582031 17.777344 "/>
</g>
</svg>
