<?xml version="1.0" encoding="UTF-8"?>
<svg xmlns="http://www.w3.org/2000/svg" xmlns:xlink="http://www.w3.org/1999/xlink" width="32px" height="32px" viewBox="0 0 32 32" version="1.1">
<g id="surface1">
<path style=" stroke:none;fill-rule:nonzero;fill:rgb(40.000001%,73.333335%,41.568628%);fill-opacity:1;" d="M 21.167969 1.574219 L 5.292969 1.574219 C 4.558594 1.574219 3.96875 2.164062 3.96875 2.894531 L 3.96875 29.355469 C 3.96875 30.085938 4.558594 30.675781 5.292969 30.675781 L 26.457031 30.675781 C 27.191406 30.675781 27.78125 30.085938 27.78125 29.355469 L 27.78125 8.1875 Z M 21.167969 1.574219 "/>
<path style=" stroke:none;fill-rule:nonzero;fill:rgb(26.274511%,62.7451%,27.843139%);fill-opacity:1;" d="M 27.78125 8.1875 L 21.167969 1.574219 L 21.167969 6.863281 C 21.167969 7.597656 21.757812 8.1875 22.488281 8.1875 Z M 27.78125 8.1875 "/>
<path style=" stroke:none;fill-rule:nonzero;fill:rgb(96.078432%,96.078432%,96.078432%);fill-opacity:1;" d="M 17.121094 11.492188 C 15.976562 11.492188 14.867188 12.082031 14.25 13.148438 C 13.570312 14.328125 13.695312 15.742188 14.453125 16.769531 L 12.496094 20.15625 C 12.128906 20.792969 12.347656 21.597656 12.980469 21.964844 C 13.515625 22.273438 14.175781 22.167969 14.585938 21.746094 L 14.480469 21.683594 C 14.242188 21.546875 14.160156 21.242188 14.296875 21.007812 L 15.785156 18.429688 C 15.921875 18.191406 16.226562 18.109375 16.464844 18.246094 L 16.605469 18.328125 L 16.742188 18.09375 C 18.011719 18.238281 19.296875 17.636719 19.980469 16.457031 C 20.894531 14.871094 20.355469 12.855469 18.769531 11.941406 C 18.25 11.640625 17.679688 11.496094 17.121094 11.492188 Z M 17.839844 12.394531 C 18.09375 12.394531 18.347656 12.460938 18.582031 12.59375 C 19.296875 13.007812 19.539062 13.914062 19.125 14.628906 C 18.714844 15.34375 17.808594 15.585938 17.09375 15.171875 C 16.378906 14.761719 16.136719 13.855469 16.546875 13.140625 C 16.824219 12.660156 17.324219 12.394531 17.839844 12.394531 Z M 14.890625 17.335938 L 15.175781 17.503906 L 13.4375 20.511719 C 13.394531 20.589844 13.292969 20.617188 13.214844 20.570312 C 13.132812 20.523438 13.105469 20.425781 13.152344 20.34375 Z M 16.15625 18.449219 L 15.824219 19.023438 L 16.109375 19.1875 L 16.441406 18.617188 Z M 15.578125 19.453125 L 15.246094 20.027344 L 15.53125 20.191406 L 15.863281 19.617188 Z M 14.914062 20.597656 L 14.585938 21.171875 L 14.871094 21.335938 L 15.203125 20.765625 Z M 14.914062 20.597656 "/>
</g>
</svg>
