<?xml version="1.0" encoding="UTF-8"?>
<svg xmlns="http://www.w3.org/2000/svg" xmlns:xlink="http://www.w3.org/1999/xlink" width="24px" height="24px" viewBox="0 0 24 24" version="1.1">
<g id="surface1">
<path style=" stroke:none;fill-rule:nonzero;fill:rgb(38.039216%,38.039216%,38.039216%);fill-opacity:1;" d="M 15.875 1.179688 L 3.96875 1.179688 C 3.417969 1.179688 2.976562 1.621094 2.976562 2.171875 L 2.976562 22.015625 C 2.976562 22.566406 3.417969 23.007812 3.96875 23.007812 L 19.84375 23.007812 C 20.394531 23.007812 20.835938 22.566406 20.835938 22.015625 L 20.835938 6.140625 Z M 15.875 1.179688 "/>
<path style=" stroke:none;fill-rule:nonzero;fill:rgb(25.882354%,25.882354%,25.882354%);fill-opacity:1;" d="M 20.835938 6.140625 L 15.875 1.179688 L 15.875 5.148438 C 15.875 5.699219 16.316406 6.140625 16.867188 6.140625 Z M 20.835938 6.140625 "/>
<path style=" stroke:none;fill-rule:nonzero;fill:rgb(96.078432%,96.078432%,96.078432%);fill-opacity:1;" d="M 7.9375 8.621094 L 15.875 8.621094 C 16.148438 8.621094 16.371094 8.84375 16.371094 9.117188 C 16.371094 9.390625 16.148438 9.613281 15.875 9.613281 L 7.9375 9.613281 C 7.664062 9.613281 7.441406 9.390625 7.441406 9.117188 C 7.441406 8.84375 7.664062 8.621094 7.9375 8.621094 Z M 7.9375 8.621094 "/>
<path style=" stroke:none;fill-rule:nonzero;fill:rgb(96.078432%,96.078432%,96.078432%);fill-opacity:1;" d="M 7.9375 15.566406 L 15.875 15.566406 C 16.148438 15.566406 16.371094 15.789062 16.371094 16.0625 C 16.371094 16.335938 16.148438 16.558594 15.875 16.558594 L 7.9375 16.558594 C 7.664062 16.558594 7.441406 16.335938 7.441406 16.0625 C 7.441406 15.789062 7.664062 15.566406 7.9375 15.566406 Z M 7.9375 15.566406 "/>
<path style=" stroke:none;fill-rule:nonzero;fill:rgb(96.078432%,96.078432%,96.078432%);fill-opacity:1;" d="M 7.9375 10.851562 L 15.875 10.851562 C 16.148438 10.851562 16.371094 11.074219 16.371094 11.347656 C 16.371094 11.625 16.148438 11.84375 15.875 11.84375 L 7.9375 11.84375 C 7.664062 11.84375 7.441406 11.625 7.441406 11.347656 C 7.441406 11.074219 7.664062 10.851562 7.9375 10.851562 Z M 7.9375 10.851562 "/>
<path style=" stroke:none;fill-rule:nonzero;fill:rgb(96.078432%,96.078432%,96.078432%);fill-opacity:1;" d="M 7.9375 13.335938 L 15.875 13.335938 C 16.148438 13.335938 16.371094 13.554688 16.371094 13.832031 C 16.371094 14.105469 16.148438 14.328125 15.875 14.328125 L 7.9375 14.328125 C 7.664062 14.328125 7.441406 14.105469 7.441406 13.832031 C 7.441406 13.554688 7.664062 13.335938 7.9375 13.335938 Z M 7.9375 13.335938 "/>
</g>
</svg>
