<?xml version="1.0" encoding="UTF-8"?>
<svg xmlns="http://www.w3.org/2000/svg" xmlns:xlink="http://www.w3.org/1999/xlink" width="24px" height="24px" viewBox="0 0 24 24" version="1.1">
<g id="surface1">
<path style=" stroke:none;fill-rule:nonzero;fill:rgb(36.078432%,41.960785%,75.294119%);fill-opacity:1;" d="M 15.875 1.179688 L 3.96875 1.179688 C 3.417969 1.179688 2.976562 1.621094 2.976562 2.171875 L 2.976562 22.015625 C 2.976562 22.566406 3.417969 23.007812 3.96875 23.007812 L 19.84375 23.007812 C 20.394531 23.007812 20.835938 22.566406 20.835938 22.015625 L 20.835938 6.140625 Z M 15.875 1.179688 "/>
<path style=" stroke:none;fill-rule:nonzero;fill:rgb(22.352941%,28.627452%,67.058825%);fill-opacity:1;" d="M 20.835938 6.140625 L 15.875 1.179688 L 15.875 5.148438 C 15.875 5.699219 16.316406 6.140625 16.867188 6.140625 Z M 20.835938 6.140625 "/>
<path style=" stroke:none;fill-rule:nonzero;fill:rgb(96.078432%,96.078432%,96.078432%);fill-opacity:1;" d="M 9.199219 8.621094 C 8.648438 8.621094 8.207031 9.0625 8.207031 9.613281 C 8.207031 10.078125 8.519531 10.464844 8.949219 10.574219 L 8.949219 13.601562 C 8.246094 13.71875 7.710938 14.332031 7.710938 15.070312 C 7.710938 15.894531 8.375 16.558594 9.199219 16.558594 C 9.9375 16.558594 10.546875 16.023438 10.667969 15.316406 L 14.191406 15.316406 C 14.300781 15.746094 14.6875 16.0625 15.152344 16.0625 C 15.699219 16.0625 16.144531 15.621094 16.144531 15.070312 C 16.144531 14.519531 15.699219 14.078125 15.152344 14.078125 C 14.6875 14.078125 14.300781 14.394531 14.191406 14.820312 L 10.664062 14.820312 C 10.5625 14.199219 10.070312 13.707031 9.445312 13.601562 L 9.445312 10.574219 C 9.875 10.464844 10.191406 10.078125 10.191406 9.613281 C 10.191406 9.0625 9.746094 8.621094 9.199219 8.621094 Z M 9.199219 8.621094 "/>
</g>
</svg>
