<?xml version="1.0" encoding="UTF-8"?>
<svg xmlns="http://www.w3.org/2000/svg" xmlns:xlink="http://www.w3.org/1999/xlink" width="24px" height="24px" viewBox="0 0 24 24" version="1.1">
<g id="surface1">
<path style=" stroke:none;fill-rule:nonzero;fill:rgb(49.411765%,34.117648%,76.078433%);fill-opacity:1;" d="M 15.875 1.179688 L 3.96875 1.179688 C 3.417969 1.179688 2.976562 1.621094 2.976562 2.171875 L 2.976562 22.015625 C 2.976562 22.566406 3.417969 23.007812 3.96875 23.007812 L 19.84375 23.007812 C 20.394531 23.007812 20.835938 22.566406 20.835938 22.015625 L 20.835938 6.140625 Z M 15.875 1.179688 "/>
<path style=" stroke:none;fill-rule:nonzero;fill:rgb(36.862746%,20.784314%,69.411767%);fill-opacity:1;" d="M 20.835938 6.140625 L 15.875 1.179688 L 15.875 5.148438 C 15.875 5.699219 16.316406 6.140625 16.867188 6.140625 Z M 20.835938 6.140625 "/>
<path style=" stroke:none;fill-rule:nonzero;fill:rgb(96.078432%,96.078432%,96.078432%);fill-opacity:1;" d="M 9.425781 8.621094 L 9.921875 8.621094 C 10.058594 8.621094 10.171875 8.730469 10.171875 8.871094 L 10.171875 16.3125 C 10.171875 16.449219 10.058594 16.558594 9.921875 16.558594 L 9.425781 16.558594 C 9.289062 16.558594 9.175781 16.449219 9.175781 16.3125 L 9.175781 8.871094 C 9.175781 8.730469 9.289062 8.621094 9.425781 8.621094 Z M 9.425781 8.621094 "/>
<path style=" stroke:none;fill-rule:nonzero;fill:rgb(96.078432%,96.078432%,96.078432%);fill-opacity:1;" d="M 9.671875 8.621094 L 9.671875 9.613281 L 12.402344 9.613281 C 13.089844 9.613281 13.640625 10.167969 13.640625 10.851562 C 13.640625 11.539062 13.089844 12.09375 12.402344 12.09375 L 9.671875 12.09375 L 9.671875 13.085938 L 12.402344 13.085938 C 13.640625 13.085938 14.632812 12.089844 14.632812 10.851562 C 14.632812 9.617188 13.640625 8.621094 12.402344 8.621094 Z M 9.671875 8.621094 "/>
<path style=" stroke:none;fill-rule:nonzero;fill:rgb(96.078432%,96.078432%,96.078432%);fill-opacity:1;" d="M 11.753906 12.835938 L 13.742188 16.433594 C 13.8125 16.554688 13.960938 16.59375 14.082031 16.523438 L 14.511719 16.277344 C 14.628906 16.207031 14.671875 16.058594 14.601562 15.9375 L 12.898438 12.835938 Z M 11.753906 12.835938 "/>
</g>
</svg>
