
<svg xmlns="http://www.w3.org/2000/svg" xmlns:xlink="http://www.w3.org/1999/xlink" width="48px" height="48px" viewBox="0 0 48 48" version="1.1">
<g id="surface1">
<path style=" stroke:none;fill-rule:nonzero;fill:rgb(100%,70.19608%,0%);fill-opacity:1;" d="M 6.945312 5.335938 L 43.65625 5.335938 C 44.75 5.335938 45.640625 6.226562 45.640625 7.320312 L 45.640625 19.226562 C 45.640625 20.324219 44.75 21.210938 43.65625 21.210938 L 6.945312 21.210938 C 5.851562 21.210938 4.960938 20.324219 4.960938 19.226562 L 4.960938 7.320312 C 4.960938 6.226562 5.851562 5.335938 6.945312 5.335938 Z M 6.945312 5.335938 "/>
<path style=" stroke:none;fill-rule:nonzero;fill:rgb(96.078432%,96.078432%,96.078432%);fill-opacity:1;" d="M 23.8125 11.289062 L 43.65625 11.289062 C 44.203125 11.289062 44.648438 11.734375 44.648438 12.28125 L 44.648438 19.226562 C 44.648438 19.777344 44.203125 20.21875 43.65625 20.21875 L 23.8125 20.21875 C 23.265625 20.21875 22.820312 19.777344 22.820312 19.226562 L 22.820312 12.28125 C 22.820312 11.734375 23.265625 11.289062 23.8125 11.289062 Z M 23.8125 11.289062 "/>
<path style=" stroke:none;fill-rule:nonzero;fill:rgb(100%,79.215688%,15.686275%);fill-opacity:1;" d="M 3.96875 9.304688 C 2.867188 9.304688 1.984375 10.191406 1.984375 11.289062 L 1.984375 41.054688 C 1.984375 42.15625 2.867188 43.039062 3.96875 43.039062 L 43.65625 43.039062 C 44.757812 43.039062 45.640625 42.15625 45.640625 41.054688 L 45.640625 17.242188 C 45.640625 16.144531 44.757812 15.257812 43.65625 15.257812 L 30.757812 15.257812 C 29.65625 15.257812 28.773438 14.371094 28.773438 13.273438 L 28.773438 11.289062 C 28.773438 10.191406 27.886719 9.304688 26.789062 9.304688 Z M 3.96875 9.304688 "/>
<path style=" stroke:none;fill-rule:nonzero;fill:rgb(100%,100%,100%);fill-opacity:0.67451;" d="M 30.777344 19.242188 C 30.757812 19.238281 30.742188 19.238281 30.722656 19.242188 C 30.660156 19.242188 30.601562 19.25 30.539062 19.261719 L 21.609375 21.25 C 21.160156 21.347656 20.835938 21.75 20.835938 22.214844 L 20.835938 30.394531 C 20.386719 30.238281 19.878906 30.15625 19.339844 30.15625 C 17.417969 30.15625 15.871094 31.261719 15.871094 32.636719 C 15.871094 34.011719 17.417969 35.113281 19.339844 35.113281 C 21.265625 35.113281 22.816406 34.011719 22.816406 32.636719 C 22.816406 32.59375 22.8125 32.550781 22.808594 32.503906 L 22.808594 23.003906 L 29.765625 21.460938 L 29.765625 27.417969 C 29.316406 27.261719 28.808594 27.179688 28.269531 27.179688 C 26.347656 27.179688 24.800781 28.285156 24.800781 29.660156 C 24.800781 31.035156 26.347656 32.136719 28.269531 32.136719 C 30.195312 32.136719 31.746094 31.035156 31.746094 29.660156 C 31.746094 29.617188 31.742188 29.574219 31.738281 29.527344 L 31.738281 20.230469 C 31.738281 19.6875 31.308594 19.253906 30.777344 19.242188 Z M 30.777344 19.242188 "/>
</g>
</svg>
