<?xml version="1.0" encoding="UTF-8"?>
<svg xmlns="http://www.w3.org/2000/svg" xmlns:xlink="http://www.w3.org/1999/xlink" width="64px" height="64px" viewBox="0 0 64 64" version="1.1">
<g id="surface1">
<path style=" stroke:none;fill-rule:nonzero;fill:rgb(14.901961%,77.64706%,85.490197%);fill-opacity:1;" d="M 10.582031 3.144531 C 9.117188 3.144531 7.9375 4.324219 7.9375 5.792969 L 7.9375 33.1875 L 13.898438 29.78125 C 14.089844 29.667969 14.3125 29.609375 14.535156 29.605469 C 14.800781 29.601562 15.0625 29.679688 15.285156 29.828125 L 22.542969 34.667969 L 31.09375 29.78125 C 31.5 29.546875 32 29.546875 32.40625 29.78125 L 40.957031 34.667969 L 48.214844 29.828125 C 48.660156 29.53125 49.238281 29.53125 49.679688 29.828125 L 55.5625 33.75 L 55.5625 16.375 L 42.332031 3.144531 Z M 10.582031 3.144531 "/>
<path style=" stroke:none;fill-rule:nonzero;fill:rgb(45.882353%,45.882353%,45.882353%);fill-opacity:1;" d="M 31.75 32.449219 L 23.144531 37.367188 C 22.710938 37.613281 22.171875 37.59375 21.757812 37.316406 L 14.5 32.480469 L 7.9375 36.226562 L 7.9375 58.707031 C 7.9375 60.175781 9.117188 61.355469 10.582031 61.355469 L 52.917969 61.355469 C 54.382812 61.355469 55.5625 60.175781 55.5625 58.707031 L 55.5625 36.925781 L 48.949219 32.515625 L 41.742188 37.316406 C 41.328125 37.59375 40.789062 37.613281 40.355469 37.367188 Z M 31.75 32.449219 "/>
<path style=" stroke:none;fill-rule:nonzero;fill:rgb(0%,67.450982%,75.686276%);fill-opacity:1;" d="M 55.5625 16.375 L 42.332031 3.144531 L 42.332031 13.730469 C 42.332031 15.195312 43.511719 16.375 44.980469 16.375 Z M 55.5625 16.375 "/>
</g>
</svg>
