<?xml version="1.0" encoding="UTF-8"?>
<svg xmlns="http://www.w3.org/2000/svg" xmlns:xlink="http://www.w3.org/1999/xlink" width="64px" height="64px" viewBox="0 0 64 64" version="1.1">
<g id="surface1">
<path style=" stroke:none;fill-rule:nonzero;fill:rgb(0%,58.823532%,53.333336%);fill-opacity:1;" d="M 10.582031 3.144531 L 52.917969 3.144531 C 54.378906 3.144531 55.5625 4.332031 55.5625 5.792969 L 55.5625 58.707031 C 55.5625 60.167969 54.378906 61.355469 52.917969 61.355469 L 10.582031 61.355469 C 9.121094 61.355469 7.9375 60.167969 7.9375 58.707031 L 7.9375 5.792969 C 7.9375 4.332031 9.121094 3.144531 10.582031 3.144531 Z M 10.582031 3.144531 "/>
<path style=" stroke:none;fill-rule:nonzero;fill:rgb(96.078432%,96.078432%,96.078432%);fill-opacity:1;" d="M 14.550781 4.46875 L 52.917969 4.46875 C 53.648438 4.46875 54.238281 5.0625 54.238281 5.792969 L 54.238281 58.707031 C 54.238281 59.4375 53.648438 60.03125 52.917969 60.03125 L 14.550781 60.03125 C 13.820312 60.03125 13.230469 59.4375 13.230469 58.707031 L 13.230469 5.792969 C 13.230469 5.0625 13.820312 4.46875 14.550781 4.46875 Z M 14.550781 4.46875 "/>
<path style=" stroke:none;fill-rule:nonzero;fill:rgb(14.901961%,65.098041%,60.392159%);fill-opacity:1;" d="M 10.582031 3.144531 L 50.269531 3.144531 C 51.730469 3.144531 52.917969 4.332031 52.917969 5.792969 L 52.917969 58.707031 C 52.917969 60.167969 51.730469 61.355469 50.269531 61.355469 L 10.582031 61.355469 C 9.121094 61.355469 7.9375 60.167969 7.9375 58.707031 L 7.9375 5.792969 C 7.9375 4.332031 9.121094 3.144531 10.582031 3.144531 Z M 10.582031 3.144531 "/>
<path style=" stroke:none;fill-rule:nonzero;fill:rgb(0%,58.823532%,53.333336%);fill-opacity:1;" d="M 10.582031 3.144531 C 9.117188 3.144531 7.9375 4.324219 7.9375 5.792969 L 7.9375 58.707031 C 7.9375 60.175781 9.117188 61.355469 10.582031 61.355469 L 15.875 61.355469 L 15.875 3.144531 Z M 10.582031 3.144531 "/>
<path style=" stroke:none;fill-rule:nonzero;fill:rgb(50.196081%,79.607844%,76.862746%);fill-opacity:1;" d="M 37.042969 3.144531 L 42.332031 3.144531 L 42.332031 37.542969 L 39.6875 33.574219 L 37.042969 37.542969 Z M 37.042969 3.144531 "/>
</g>
</svg>
