<?xml version="1.0" encoding="UTF-8"?>
<svg xmlns="http://www.w3.org/2000/svg" xmlns:xlink="http://www.w3.org/1999/xlink" width="64px" height="64px" viewBox="0 0 64 64" version="1.1">
<g id="surface1">
<path style=" stroke:none;fill-rule:nonzero;fill:rgb(87.843138%,87.843138%,87.843138%);fill-opacity:1;" d="M 5.292969 11.082031 L 58.207031 11.082031 C 59.667969 11.082031 60.855469 12.269531 60.855469 13.730469 L 60.855469 50.769531 C 60.855469 52.230469 59.667969 53.417969 58.207031 53.417969 L 5.292969 53.417969 C 3.832031 53.417969 2.644531 52.230469 2.644531 50.769531 L 2.644531 13.730469 C 2.644531 12.269531 3.832031 11.082031 5.292969 11.082031 Z M 5.292969 11.082031 "/>
<path style=" stroke:none;fill-rule:nonzero;fill:rgb(36.078432%,41.960785%,75.294119%);fill-opacity:1;" d="M 37.1875 25.050781 C 33.585938 25.050781 31.046875 26.976562 31.03125 29.722656 C 31 31.75 32.847656 32.878906 34.230469 33.554688 C 35.640625 34.246094 36.125 34.691406 36.125 35.308594 C 36.109375 36.257812 34.980469 36.691406 33.929688 36.691406 C 32.472656 36.691406 31.691406 36.464844 30.503906 35.941406 L 30.027344 35.714844 L 29.515625 38.886719 C 30.371094 39.273438 31.945312 39.621094 33.585938 39.636719 C 37.417969 39.636719 39.90625 37.742188 39.9375 34.8125 C 39.949219 33.207031 38.976562 31.976562 36.875 30.96875 C 35.597656 30.324219 34.816406 29.886719 34.816406 29.226562 C 34.832031 28.625 35.472656 28.007812 36.917969 28.007812 C 38.101562 27.980469 38.976562 28.261719 39.636719 28.550781 L 39.964844 28.699219 L 40.464844 25.652344 C 39.742188 25.367188 38.601562 25.050781 37.1875 25.050781 Z M 20.53125 25.304688 L 16.957031 34.929688 L 16.566406 32.984375 C 15.910156 30.726562 13.832031 28.277344 11.519531 27.066406 L 14.796875 39.410156 L 18.652344 39.410156 L 24.390625 25.304688 Z M 25.863281 25.304688 L 23.582031 39.421875 L 27.230469 39.421875 L 29.515625 25.304688 Z M 46.996094 25.304688 C 46.128906 25.304688 45.460938 25.558594 45.089844 26.480469 L 39.667969 39.421875 L 43.5 39.421875 C 43.5 39.421875 44.125 37.683594 44.265625 37.304688 L 48.949219 37.304688 C 49.054688 37.804688 49.382812 39.421875 49.382812 39.421875 L 52.761719 39.421875 L 49.820312 25.304688 Z M 47.25 29.121094 L 47.503906 30.339844 C 47.503906 30.339844 48.199219 33.71875 48.347656 34.425781 L 45.3125 34.425781 C 45.617188 33.609375 46.769531 30.472656 46.769531 30.472656 C 46.753906 30.503906 47.070312 29.648438 47.25 29.121094 Z M 47.25 29.121094 "/>
<path style=" stroke:none;fill-rule:nonzero;fill:rgb(100%,65.490198%,14.901961%);fill-opacity:1;" d="M 13.636719 25.304688 L 7.765625 25.304688 L 7.703125 25.59375 C 12.285156 26.761719 15.324219 29.589844 16.566406 32.984375 L 15.292969 26.492188 C 15.078125 25.59375 14.433594 25.335938 13.636719 25.304688 Z M 13.636719 25.304688 "/>
<path style=" stroke:none;fill-rule:nonzero;fill:rgb(36.078432%,41.960785%,75.294119%);fill-opacity:1;" d="M 5.292969 11.082031 C 3.824219 11.082031 2.644531 12.261719 2.644531 13.730469 L 2.644531 20.34375 L 60.855469 20.34375 L 60.855469 13.730469 C 60.855469 12.261719 59.675781 11.082031 58.207031 11.082031 Z M 5.292969 11.082031 "/>
<path style=" stroke:none;fill-rule:nonzero;fill:rgb(100%,65.490198%,14.901961%);fill-opacity:1;" d="M 5.292969 53.417969 C 3.824219 53.417969 2.644531 52.238281 2.644531 50.769531 L 2.644531 44.15625 L 60.855469 44.15625 L 60.855469 50.769531 C 60.855469 52.238281 59.675781 53.417969 58.207031 53.417969 Z M 5.292969 53.417969 "/>
</g>
</svg>
