<?xml version="1.0" encoding="UTF-8"?>
<svg xmlns="http://www.w3.org/2000/svg" xmlns:xlink="http://www.w3.org/1999/xlink" width="64px" height="64px" viewBox="0 0 64 64" version="1.1">
<g id="surface1">
<path style=" stroke:none;fill-rule:nonzero;fill:rgb(38.039216%,38.039216%,38.039216%);fill-opacity:1;" d="M 42.332031 3.144531 L 10.582031 3.144531 C 9.117188 3.144531 7.9375 4.324219 7.9375 5.792969 L 7.9375 58.707031 C 7.9375 60.175781 9.117188 61.355469 10.582031 61.355469 L 52.917969 61.355469 C 54.382812 61.355469 55.5625 60.175781 55.5625 58.707031 L 55.5625 16.375 Z M 42.332031 3.144531 "/>
<path style=" stroke:none;fill-rule:nonzero;fill:rgb(25.882354%,25.882354%,25.882354%);fill-opacity:1;" d="M 55.5625 16.375 L 42.332031 3.144531 L 42.332031 13.730469 C 42.332031 15.195312 43.511719 16.375 44.980469 16.375 Z M 55.5625 16.375 "/>
<path style=" stroke:none;fill-rule:nonzero;fill:rgb(96.078432%,96.078432%,96.078432%);fill-opacity:1;" d="M 12.566406 25.636719 L 15.214844 25.636719 C 15.578125 25.636719 15.875 25.929688 15.875 26.296875 L 15.875 28.941406 C 15.875 29.308594 15.578125 29.605469 15.214844 29.605469 L 12.566406 29.605469 C 12.203125 29.605469 11.90625 29.308594 11.90625 28.941406 L 11.90625 26.296875 C 11.90625 25.929688 12.203125 25.636719 12.566406 25.636719 Z M 12.566406 25.636719 "/>
<path style=" stroke:none;fill-rule:nonzero;fill:rgb(96.078432%,96.078432%,96.078432%);fill-opacity:1;" d="M 12.566406 17.699219 L 15.214844 17.699219 C 15.578125 17.699219 15.875 17.992188 15.875 18.359375 L 15.875 21.003906 C 15.875 21.371094 15.578125 21.667969 15.214844 21.667969 L 12.566406 21.667969 C 12.203125 21.667969 11.90625 21.371094 11.90625 21.003906 L 11.90625 18.359375 C 11.90625 17.992188 12.203125 17.699219 12.566406 17.699219 Z M 12.566406 17.699219 "/>
<path style=" stroke:none;fill-rule:nonzero;fill:rgb(96.078432%,96.078432%,96.078432%);fill-opacity:1;" d="M 12.566406 33.574219 L 15.214844 33.574219 C 15.578125 33.574219 15.875 33.867188 15.875 34.234375 L 15.875 36.878906 C 15.875 37.246094 15.578125 37.542969 15.214844 37.542969 L 12.566406 37.542969 C 12.203125 37.542969 11.90625 37.246094 11.90625 36.878906 L 11.90625 34.234375 C 11.90625 33.867188 12.203125 33.574219 12.566406 33.574219 Z M 12.566406 33.574219 "/>
<path style=" stroke:none;fill-rule:nonzero;fill:rgb(96.078432%,96.078432%,96.078432%);fill-opacity:1;" d="M 12.566406 49.449219 L 15.214844 49.449219 C 15.578125 49.449219 15.875 49.742188 15.875 50.109375 L 15.875 52.753906 C 15.875 53.121094 15.578125 53.417969 15.214844 53.417969 L 12.566406 53.417969 C 12.203125 53.417969 11.90625 53.121094 11.90625 52.753906 L 11.90625 50.109375 C 11.90625 49.742188 12.203125 49.449219 12.566406 49.449219 Z M 12.566406 49.449219 "/>
<path style=" stroke:none;fill-rule:nonzero;fill:rgb(96.078432%,96.078432%,96.078432%);fill-opacity:1;" d="M 12.566406 41.511719 L 15.214844 41.511719 C 15.578125 41.511719 15.875 41.804688 15.875 42.171875 L 15.875 44.816406 C 15.875 45.183594 15.578125 45.480469 15.214844 45.480469 L 12.566406 45.480469 C 12.203125 45.480469 11.90625 45.183594 11.90625 44.816406 L 11.90625 42.171875 C 11.90625 41.804688 12.203125 41.511719 12.566406 41.511719 Z M 12.566406 41.511719 "/>
<path style=" stroke:none;fill-rule:nonzero;fill:rgb(96.078432%,96.078432%,96.078432%);fill-opacity:1;" d="M 48.285156 25.636719 L 50.933594 25.636719 C 51.296875 25.636719 51.59375 25.929688 51.59375 26.296875 L 51.59375 28.941406 C 51.59375 29.308594 51.296875 29.605469 50.933594 29.605469 L 48.285156 29.605469 C 47.921875 29.605469 47.625 29.308594 47.625 28.941406 L 47.625 26.296875 C 47.625 25.929688 47.921875 25.636719 48.285156 25.636719 Z M 48.285156 25.636719 "/>
<path style=" stroke:none;fill-rule:nonzero;fill:rgb(96.078432%,96.078432%,96.078432%);fill-opacity:1;" d="M 48.285156 17.699219 L 50.933594 17.699219 C 51.296875 17.699219 51.59375 17.992188 51.59375 18.359375 L 51.59375 21.003906 C 51.59375 21.371094 51.296875 21.667969 50.933594 21.667969 L 48.285156 21.667969 C 47.921875 21.667969 47.625 21.371094 47.625 21.003906 L 47.625 18.359375 C 47.625 17.992188 47.921875 17.699219 48.285156 17.699219 Z M 48.285156 17.699219 "/>
<path style=" stroke:none;fill-rule:nonzero;fill:rgb(96.078432%,96.078432%,96.078432%);fill-opacity:1;" d="M 48.285156 33.574219 L 50.933594 33.574219 C 51.296875 33.574219 51.59375 33.867188 51.59375 34.234375 L 51.59375 36.878906 C 51.59375 37.246094 51.296875 37.542969 50.933594 37.542969 L 48.285156 37.542969 C 47.921875 37.542969 47.625 37.246094 47.625 36.878906 L 47.625 34.234375 C 47.625 33.867188 47.921875 33.574219 48.285156 33.574219 Z M 48.285156 33.574219 "/>
<path style=" stroke:none;fill-rule:nonzero;fill:rgb(96.078432%,96.078432%,96.078432%);fill-opacity:1;" d="M 48.285156 49.449219 L 50.933594 49.449219 C 51.296875 49.449219 51.59375 49.742188 51.59375 50.109375 L 51.59375 52.753906 C 51.59375 53.121094 51.296875 53.417969 50.933594 53.417969 L 48.285156 53.417969 C 47.921875 53.417969 47.625 53.121094 47.625 52.753906 L 47.625 50.109375 C 47.625 49.742188 47.921875 49.449219 48.285156 49.449219 Z M 48.285156 49.449219 "/>
<path style=" stroke:none;fill-rule:nonzero;fill:rgb(96.078432%,96.078432%,96.078432%);fill-opacity:1;" d="M 48.285156 41.511719 L 50.933594 41.511719 C 51.296875 41.511719 51.59375 41.804688 51.59375 42.171875 L 51.59375 44.816406 C 51.59375 45.183594 51.296875 45.480469 50.933594 45.480469 L 48.285156 45.480469 C 47.921875 45.480469 47.625 45.183594 47.625 44.816406 L 47.625 42.171875 C 47.625 41.804688 47.921875 41.511719 48.285156 41.511719 Z M 48.285156 41.511719 "/>
</g>
</svg>
