
<svg xmlns="http://www.w3.org/2000/svg" xmlns:xlink="http://www.w3.org/1999/xlink" width="64px" height="64px" viewBox="0 0 64 64" version="1.1">
<g id="surface1">
<path style=" stroke:none;fill-rule:nonzero;fill:rgb(26.274511%,62.7451%,27.843139%);fill-opacity:1;" d="M 9.261719 7.113281 L 58.203125 7.113281 C 59.671875 7.113281 60.851562 8.296875 60.851562 9.761719 L 60.851562 25.636719 C 60.851562 27.101562 59.671875 28.285156 58.203125 28.285156 L 9.261719 28.285156 C 7.796875 28.285156 6.613281 27.101562 6.613281 25.636719 L 6.613281 9.761719 C 6.613281 8.296875 7.796875 7.113281 9.261719 7.113281 Z M 9.261719 7.113281 "/>
<path style=" stroke:none;fill-rule:nonzero;fill:rgb(96.078432%,96.078432%,96.078432%);fill-opacity:1;" d="M 31.75 15.058594 L 58.203125 15.058594 C 58.941406 15.058594 59.535156 15.648438 59.535156 16.375 L 59.535156 25.636719 C 59.535156 26.363281 58.941406 26.953125 58.203125 26.953125 L 31.75 26.953125 C 31.023438 26.953125 30.433594 26.363281 30.433594 25.636719 L 30.433594 16.375 C 30.433594 15.648438 31.023438 15.058594 31.75 15.058594 Z M 31.75 15.058594 "/>
<path style=" stroke:none;fill-rule:nonzero;fill:rgb(40.000001%,73.333335%,41.568628%);fill-opacity:1;" d="M 5.296875 12.410156 C 3.828125 12.410156 2.648438 13.589844 2.648438 15.058594 L 2.648438 54.738281 C 2.648438 56.203125 3.828125 57.386719 5.296875 57.386719 L 58.203125 57.386719 C 59.671875 57.386719 60.851562 56.203125 60.851562 54.738281 L 60.851562 22.988281 C 60.851562 21.523438 59.671875 20.339844 58.203125 20.339844 L 41.011719 20.339844 C 39.546875 20.339844 38.363281 19.160156 38.363281 17.691406 L 38.363281 15.058594 C 38.363281 13.589844 37.183594 12.410156 35.714844 12.410156 Z M 5.296875 12.410156 "/>
<path style=" stroke:none;fill-rule:nonzero;fill:rgb(100%,100%,100%);fill-opacity:0.352941;" d="M 31.738281 25.625 C 30.941406 25.625 30.148438 25.714844 29.386719 25.898438 C 29.625 27.226562 29.023438 28.625 27.785156 29.339844 C 26.535156 30.066406 25.035156 29.886719 24 29.011719 C 23.464844 29.578125 22.988281 30.226562 22.578125 30.933594 C 22.183594 31.636719 21.863281 32.363281 21.625 33.101562 C 21.816406 33.171875 21.988281 33.25 22.160156 33.351562 C 23.148438 33.921875 23.816406 34.988281 23.816406 36.214844 C 23.816406 37.660156 22.898438 38.875 21.625 39.328125 C 22.089844 40.839844 22.886719 42.238281 23.988281 43.433594 C 25.023438 42.558594 26.535156 42.375 27.785156 43.089844 C 29.023438 43.808594 29.625 45.203125 29.386719 46.546875 C 30.964844 46.910156 32.578125 46.898438 34.113281 46.546875 C 33.875 45.203125 34.476562 43.808594 35.714844 43.089844 C 36.785156 42.476562 38.046875 42.523438 39.035156 43.089844 C 39.203125 43.191406 39.351562 43.308594 39.5 43.433594 C 40.035156 42.851562 40.511719 42.214844 40.921875 41.511719 C 41.316406 40.808594 41.636719 40.078125 41.875 39.328125 C 40.589844 38.875 39.691406 37.660156 39.691406 36.214844 C 39.691406 34.785156 40.601562 33.558594 41.875 33.101562 C 41.410156 31.601562 40.613281 30.191406 39.511719 29.011719 C 38.476562 29.886719 36.964844 30.066406 35.714844 29.339844 C 34.476562 28.625 33.875 27.226562 34.113281 25.898438 C 33.328125 25.714844 32.523438 25.625 31.738281 25.625 Z M 31.75 32.25 C 33.941406 32.25 35.714844 34.023438 35.714844 36.214844 C 35.714844 38.421875 33.941406 40.183594 31.75 40.183594 C 29.558594 40.183594 27.785156 38.421875 27.785156 36.214844 C 27.785156 34.023438 29.558594 32.25 31.75 32.25 Z M 31.75 32.25 "/>
</g>
</svg>
