
<svg xmlns="http://www.w3.org/2000/svg" xmlns:xlink="http://www.w3.org/1999/xlink" width="22px" height="22px" viewBox="0 0 22 22" version="1.1">
<g id="surface1">
<defs>
  <style id="current-color-scheme" type="text/css">
   .ColorScheme-Text { color:#424242; } .ColorScheme-Highlight { color:#eeeeee; }
  </style>
 </defs>
<path style="fill:currentColor" class="ColorScheme-Text" d="M 11 4 C 8.914062 4 6.914062 4.214844 5.035156 4.605469 C 5 14 7 17 11 18 C 15 17 17 14 16.964844 4.605469 C 15.085938 4.214844 13.085938 4 11 4 Z M 11 6 C 12.398438 6 13.742188 6.152344 15 6.429688 C 15.023438 13.140625 14 15 11 16 C 8 15 6.976562 13.140625 7 6.429688 C 8.257812 6.152344 9.601562 6 11 6 Z M 11 6 "/>
<defs>
  <style id="current-color-scheme" type="text/css">
   .ColorScheme-Text { color:#424242; } .ColorScheme-Highlight { color:#eeeeee; }
  </style>
 </defs>
<path style="fill:currentColor;fill-opacity:0.5" d="M 11 7 C 10.445312 7 10 7.445312 10 8 C 10 8.554688 10.445312 9 11 9 C 11.554688 9 12 8.554688 12 8 C 12 7.445312 11.554688 7 11 7 Z M 11 10 C 10.445312 10 10 10.445312 10 11 C 10 11.554688 10.445312 12 11 12 C 11.554688 12 12 11.554688 12 11 C 12 10.445312 11.554688 10 11 10 Z M 11 13 C 10.445312 13 10 13.445312 10 14 C 10 14.554688 10.445312 15 11 15 C 11.554688 15 12 14.554688 12 14 C 12 13.445312 11.554688 13 11 13 Z M 11 13 "/>
</g>
</svg>
