
<svg xmlns="http://www.w3.org/2000/svg" xmlns:xlink="http://www.w3.org/1999/xlink" width="22px" height="22px" viewBox="0 0 22 22" version="1.1">
<g id="surface1">
<defs>
  <style id="current-color-scheme" type="text/css">
   .ColorScheme-Text { color:#424242; } .ColorScheme-Highlight { color:#eeeeee; }
  </style>
 </defs>
<path style="fill:currentColor;fill-opacity:0.5" class="ColorScheme-Text" d="M 11 4 C 8.230469 4 6 6.230469 6 9 C 6 11.058594 7.234375 12.8125 9 13.582031 L 9 15 L 13 14 L 13 13.582031 C 14.765625 12.8125 16 11.058594 16 9 C 16 6.230469 13.769531 4 11 4 Z M 11 6 C 12.660156 6 14 7.339844 14 9 C 14 10.660156 12.660156 12 11 12 C 9.339844 12 8 10.660156 8 9 C 8 7.339844 9.339844 6 11 6 Z M 9 16 L 9 17 L 10 17 L 10 18 L 12 18 L 12 17 L 13 17 L 13 15 Z M 9 16 "/>
</g>
</svg>
