<?xml version="1.0" encoding="UTF-8"?>
<svg xmlns="http://www.w3.org/2000/svg" xmlns:xlink="http://www.w3.org/1999/xlink" width="16px" height="16px" viewBox="0 0 16 16" version="1.1">
<g id="surface1">
<defs>
  <style id="current-color-scheme" type="text/css">
   .ColorScheme-Text { color:#424242; } .ColorScheme-Highlight { color:#eeeeee; }
  </style>
 </defs>
<path style="fill:currentColor" class="ColorScheme-Text" d="M 15 1 L 15 3 L 5 3 L 5 1 Z M 3 1 L 3 3 L 1 3 L 1 1 Z M 15 5 L 15 7 L 5 7 L 5 5 Z M 3 5 L 3 7 L 1 7 L 1 5 Z M 15 9 L 15 11 L 5 11 L 5 9 Z M 3 9 L 3 11 L 1 11 L 1 9 Z M 15 13 L 15 15 L 5 15 L 5 13 Z M 3 13 L 3 15 L 1 15 L 1 13 Z M 3 13 "/>
</g>
</svg>
