<?xml version="1.0" encoding="UTF-8"?>
<svg xmlns="http://www.w3.org/2000/svg" xmlns:xlink="http://www.w3.org/1999/xlink" width="22px" height="22px" viewBox="0 0 22 22" version="1.1">
<g id="surface1">
<path style=" stroke:none;fill-rule:nonzero;fill:rgb(84.705883%,26.274511%,8.235294%);fill-opacity:1;" d="M 20.007812 21.089844 L 1.820312 21.089844 C 1.316406 21.089844 0.910156 20.683594 0.910156 20.179688 L 0.910156 1.992188 C 0.910156 1.488281 1.316406 1.082031 1.820312 1.082031 L 20.007812 1.082031 C 20.511719 1.082031 20.917969 1.488281 20.917969 1.992188 L 20.917969 20.179688 C 20.917969 20.683594 20.511719 21.089844 20.007812 21.089844 Z M 20.007812 21.089844 "/>
<path style=" stroke:none;fill-rule:nonzero;fill:rgb(100%,43.921569%,26.274511%);fill-opacity:1;" d="M 19.554688 20.179688 L 2.273438 20.179688 C 2.023438 20.179688 1.820312 19.976562 1.820312 19.726562 L 1.820312 2.445312 C 1.820312 2.195312 2.023438 1.992188 2.273438 1.992188 L 19.554688 1.992188 C 19.804688 1.992188 20.007812 2.195312 20.007812 2.445312 L 20.007812 19.726562 C 20.007812 19.976562 19.804688 20.179688 19.554688 20.179688 Z M 19.554688 20.179688 "/>
<path style=" stroke:none;fill-rule:nonzero;fill:rgb(93.333334%,93.333334%,93.333334%);fill-opacity:1;" d="M 10.914062 4.71875 L 10.914062 6.539062 C 7.890625 6.539062 5.457031 8.972656 5.457031 11.996094 C 5.457031 15.019531 7.890625 17.453125 10.914062 17.453125 C 13.933594 17.453125 16.367188 15.023438 16.371094 12.003906 C 16.371094 12.003906 16.371094 12 16.371094 12 L 16.371094 11.988281 C 16.371094 11.804688 16.207031 11.65625 16 11.65625 L 14.011719 11.65625 C 13.808594 11.65625 13.640625 11.804688 13.640625 11.988281 L 13.640625 11.996094 C 13.640625 13.507812 12.425781 14.722656 10.914062 14.722656 C 9.402344 14.722656 8.183594 13.507812 8.183594 11.996094 C 8.183594 10.484375 9.402344 9.265625 10.914062 9.265625 L 10.914062 11.539062 L 15.007812 7.902344 Z M 10.914062 4.71875 "/>
</g>
</svg>
