
<svg xmlns="http://www.w3.org/2000/svg" xmlns:xlink="http://www.w3.org/1999/xlink" width="32px" height="32px" viewBox="0 0 32 32" version="1.1">
<g id="surface1">
<path style=" stroke:none;fill-rule:nonzero;fill:rgb(93.725491%,32.549021%,31.37255%);fill-opacity:1;" d="M 15.875 2.234375 C 17.40625 2.234375 19.121094 10.515625 20.359375 11.417969 C 21.601562 12.320312 30.007812 11.390625 30.484375 12.847656 C 30.957031 14.304688 23.609375 18.496094 23.132812 19.953125 C 22.664062 21.414062 26.144531 29.117188 24.90625 30.023438 C 23.664062 30.921875 17.40625 25.226562 15.875 25.226562 C 14.34375 25.226562 8.085938 30.921875 6.84375 30.023438 C 5.605469 29.117188 9.085938 21.414062 8.617188 19.953125 C 8.140625 18.496094 0.792969 14.304688 1.265625 12.847656 C 1.742188 11.390625 10.148438 12.320312 11.390625 11.417969 C 12.628906 10.515625 14.34375 2.234375 15.875 2.234375 Z M 15.875 2.234375 "/>
</g>
</svg>
