<?xml version="1.0" encoding="UTF-8"?>
<svg xmlns="http://www.w3.org/2000/svg" xmlns:xlink="http://www.w3.org/1999/xlink" width="24px" height="24px" viewBox="0 0 24 24" version="1.1">
<g id="surface1">
     <defs>
  <style id="current-color-scheme" type="text/css">
   .ColorScheme-Text { color:#eeeeee; } .ColorScheme-Highlight { color:#424242; }
  </style>
 </defs>
<path style="fill:currentColor" class="ColorScheme-Text" d="M 5 5 L 5 19 L 11 19 L 11 17 L 7 17 L 7 7 L 10 7 L 10 9 L 12 9 L 12 7 L 17 7 L 17 11 L 19 11 L 19 5 Z M 12 9 L 12 11 L 14 11 L 14 9 Z M 12 11 L 10 11 L 10 13 L 12 13 Z M 15 13 L 15 15 L 13 15 L 13 17 L 15 17 L 15 19 L 17 19 L 17 17 L 19 17 L 19 15 L 17 15 L 17 13 Z M 15 13 "/>
</g>
</svg>
