<?xml version="1.0" encoding="UTF-8"?>
<svg xmlns="http://www.w3.org/2000/svg" xmlns:xlink="http://www.w3.org/1999/xlink" width="24px" height="24px" viewBox="0 0 24 24" version="1.1">
<g id="surface1">
<defs>
  <style id="current-color-scheme" type="text/css">
   .ColorScheme-Text { color:#eeeeee; } .ColorScheme-Highlight { color:#424242; }
  </style>
 </defs>
<path style="fill:currentColor" class="ColorScheme-Text" d="M 6 5 L 6 11 L 8 11 L 8 7 L 13 7 L 16 10 L 16 13 L 18 13 L 18 9 L 14 5 Z M 16 13 L 14 13 L 14 15 L 16 15 Z M 16 15 L 16 17 L 18 17 L 18 15 Z M 16 17 L 14 17 L 14 19 L 16 19 Z M 14 17 L 14 15 L 12 15 L 12 17 Z M 12 17 L 10 17 L 10 19 L 12 19 Z M 10 17 L 10 15 L 8 15 L 8 17 Z M 8 17 L 6 17 L 6 19 L 8 19 Z M 8 15 L 8 13 L 6 13 L 6 15 Z M 10 15 L 12 15 L 12 13 L 10 13 Z M 10 15 "/>
</g>
</svg>
