<?xml version="1.0" encoding="UTF-8"?>
<svg xmlns="http://www.w3.org/2000/svg" xmlns:xlink="http://www.w3.org/1999/xlink" width="24px" height="24px" viewBox="0 0 24 24" version="1.1">
<g id="surface1">
<defs>
  <style id="current-color-scheme" type="text/css">
   .ColorScheme-Text { color:#eeeeee; } .ColorScheme-Highlight { color:#424242; }
  </style>
 </defs>
<path style="fill:currentColor" class="ColorScheme-Text" d="M 16.5 5 C 15.285156 5 14.28125 5.855469 14.050781 7 L 7 7 L 7 8 C 8.742188 9.742188 8.800781 12.222656 7.214844 14.027344 C 5.96875 14.171875 5 15.210938 5 16.5 C 5 17.886719 6.113281 19 7.5 19 C 8.714844 19 9.71875 18.144531 9.949219 17 L 14 17 L 14 19 L 19 19 L 19 14 L 14 14 L 14 16 L 9.949219 16 C 9.777344 15.15625 9.183594 14.472656 8.394531 14.167969 C 9.683594 12.285156 9.652344 9.863281 8.304688 8 L 14.050781 8 C 14.28125 9.144531 15.285156 10 16.5 10 C 17.886719 10 19 8.886719 19 7.5 C 19 6.113281 17.886719 5 16.5 5 Z M 16.5 7 C 16.777344 7 17 7.222656 17 7.5 C 17 7.777344 16.777344 8 16.5 8 C 16.222656 8 16 7.777344 16 7.5 C 16 7.222656 16.222656 7 16.5 7 Z M 7.5 16 C 7.777344 16 8 16.222656 8 16.5 C 8 16.777344 7.777344 17 7.5 17 C 7.222656 17 7 16.777344 7 16.5 C 7 16.222656 7.222656 16 7.5 16 Z M 16 16 L 17 16 L 17 17 L 16 17 Z M 16 16 "/>
</g>
</svg>
