
<svg xmlns="http://www.w3.org/2000/svg" xmlns:xlink="http://www.w3.org/1999/xlink" width="24px" height="24px" viewBox="0 0 24 24" version="1.1">
<g id="surface1">
<defs>
  <style id="current-color-scheme" type="text/css">
   .ColorScheme-Text { color:#eeeeee; } .ColorScheme-Highlight { color:#424242; }
  </style>
 </defs>
<path style="fill:currentColor" class="ColorScheme-Text" d="M 5 7 L 5 18 L 13 18 L 13 16 L 7 16 L 7 9.835938 L 12 14 L 17 9.835938 L 17 12 L 19 12 L 19 7 Z M 8.25 9 L 15.75 9 L 12 12 Z M 17 14 C 15.890625 14 15 14.890625 15 16 L 15 19 L 19 19 L 19 16 C 19 14.890625 18.109375 14 17 14 Z M 17 15 C 17.554688 15 18 15.445312 18 16 C 18 16.554688 17.554688 17 17 17 C 16.445312 17 16 16.554688 16 16 C 16 15.445312 16.445312 15 17 15 Z M 17 15 "/>
</g>
</svg>
