<?xml version="1.0" encoding="UTF-8"?>
<svg xmlns="http://www.w3.org/2000/svg" xmlns:xlink="http://www.w3.org/1999/xlink" width="24px" height="24px" viewBox="0 0 24 24" version="1.1">
<g id="surface1">
<defs>
  <style id="current-color-scheme" type="text/css">
   .ColorScheme-Text { color:#eeeeee; } .ColorScheme-Highlight { color:#424242; }
  </style>
 </defs>
<path style="fill:currentColor" class="ColorScheme-Text" d="M 5 5 L 5 19 L 19 19 L 19 5 Z M 7 7 L 17 7 L 17 17 L 7 17 Z M 8 8 L 8 11 L 16 11 L 16 8 Z M 8 12 L 8 13 L 11 13 L 11 12 Z M 12 12 L 12 13 L 16 13 L 16 12 Z M 8 14 L 8 15 L 11 15 L 11 14 Z M 12 14 L 12 15 L 16 15 L 16 14 Z M 12 14 "/>
</g>
</svg>
