<?xml version="1.0" encoding="UTF-8"?>
<svg xmlns="http://www.w3.org/2000/svg" xmlns:xlink="http://www.w3.org/1999/xlink" width="24px" height="24px" viewBox="0 0 24 24" version="1.1">
<g id="surface1">
<defs>
  <style id="current-color-scheme" type="text/css">
   .ColorScheme-Text { color:#424242; } .ColorScheme-Highlight { color:#eeeeee; }
  </style>
 </defs>
<path style="fill:currentColor" class="ColorScheme-Text" d="M 9 5 L 9 7 C 9 8.109375 8.109375 9 7 9 L 5 9 L 5 15 L 7 15 C 8.109375 15 9 15.890625 9 17 L 9 19 L 15 19 L 15 17 C 15 15.890625 15.890625 15 17 15 L 19 15 L 19 9 L 17 9 C 15.890625 9 15 8.109375 15 7 L 15 5 Z M 11 7 L 13 7 C 13 9.214844 14.785156 11 17 11 L 17 13 C 14.785156 13 13 14.785156 13 17 L 11 17 C 11 14.785156 9.214844 13 7 13 L 7 11 C 9.214844 11 11 9.214844 11 7 Z M 11 7 "/>
</g>
</svg>
