<?xml version="1.0" encoding="UTF-8"?>
<svg xmlns="http://www.w3.org/2000/svg" xmlns:xlink="http://www.w3.org/1999/xlink" width="24px" height="24px" viewBox="0 0 24 24" version="1.1">
<g id="surface1">
<defs>
  <style id="current-color-scheme" type="text/css">
   .ColorScheme-Text { color:#424242; } .ColorScheme-Highlight { color:#eeeeee; }
  </style>
 </defs>
<path style="fill:currentColor" class="ColorScheme-Text" d="M 12.003906 5 L 11.132812 6.683594 L 10.390625 8.121094 L 7.046875 7.050781 L 8.121094 10.394531 L 5 11.996094 L 8.121094 13.609375 L 7.046875 16.945312 L 10.390625 15.878906 L 12.003906 19 L 13.605469 15.878906 L 16.949219 16.945312 L 15.878906 13.609375 L 19 11.996094 L 15.878906 10.394531 L 16.949219 7.050781 L 13.605469 8.121094 Z M 12.003906 9.257812 L 12.628906 10.480469 L 13.945312 10.054688 L 13.519531 11.371094 L 14.742188 11.996094 L 13.519531 12.628906 L 13.9375 13.9375 L 12.628906 13.523438 L 12.003906 14.742188 L 11.371094 13.523438 L 10.0625 13.9375 L 10.476562 12.628906 L 9.257812 11.996094 L 10.476562 11.371094 L 10.0625 10.0625 L 11.371094 10.480469 Z M 12.003906 9.257812 "/>
</g>
</svg>
