<?xml version="1.0" encoding="UTF-8"?>
<svg xmlns="http://www.w3.org/2000/svg" xmlns:xlink="http://www.w3.org/1999/xlink" width="24px" height="24px" viewBox="0 0 24 24" version="1.1">
<g id="surface1">
<defs>
  <style id="current-color-scheme" type="text/css">
   .ColorScheme-Text { color:#424242; } .ColorScheme-Highlight { color:#eeeeee; }
  </style>
 </defs>
<path style="fill:currentColor" class="ColorScheme-Text" d="M 12 5 L 12 7 L 14 7 L 14 5 Z M 9 6 L 9 8 L 11 8 L 11 6 Z M 15 6 L 15 8 L 17 8 L 17 6 Z M 6 8 L 6 10 L 8 10 L 8 8 Z M 17 9 L 17 11 L 19 11 L 19 9 Z M 5 11 L 5 13 L 7 13 L 7 11 Z M 15 12 L 15 14 L 17 14 L 17 12 Z M 12 13 L 12 15 L 14 15 L 14 13 Z M 7 14 L 7 16 L 9 16 L 9 14 Z M 11 16 L 11 18 L 13 18 L 13 16 Z M 8 17 L 8 19 L 10 19 L 10 17 Z M 8 17 "/>
</g>
</svg>
