<?xml version="1.0" encoding="UTF-8"?>
<svg xmlns="http://www.w3.org/2000/svg" xmlns:xlink="http://www.w3.org/1999/xlink" width="24px" height="24px" viewBox="0 0 24 24" version="1.1">
<g id="surface1">
<defs>
  <style id="current-color-scheme" type="text/css">
   .ColorScheme-Text { color:#424242; } .ColorScheme-Highlight { color:#eeeeee; }
  </style>
 </defs>
<path style="fill:currentColor" class="ColorScheme-Text" d="M 10 5 L 9 7 L 17 7 L 17 9 L 19 9 L 19 5 Z M 9 7 L 5 7 L 5 19 L 9 19 L 9 17 L 7 17 L 7 11 L 11 11 L 11 9 L 10 9 Z M 14.917969 10.996094 C 14.265625 11.007812 13.605469 11.183594 13 11.535156 C 11.378906 12.46875 10.667969 14.351562 11.148438 16.066406 L 13 15 C 13 14.308594 13.355469 13.636719 14 13.265625 C 14.644531 12.894531 15.402344 12.921875 16 13.265625 L 17.851562 12.199219 C 17.070312 11.402344 16.003906 10.976562 14.917969 10.996094 Z M 18.851562 13.929688 L 17 15 C 17 15.6875 16.644531 16.359375 16 16.730469 C 15.355469 17.101562 14.597656 17.078125 14 16.730469 L 12.148438 17.800781 C 13.394531 19.074219 15.378906 19.398438 17 18.464844 C 18.621094 17.527344 19.332031 15.648438 18.851562 13.929688 Z M 18.851562 13.929688 "/>
</g>
</svg>
