
<svg xmlns="http://www.w3.org/2000/svg" xmlns:xlink="http://www.w3.org/1999/xlink" width="24px" height="24px" viewBox="0 0 24 24" version="1.1">
<g id="surface1">
<defs>
  <style id="current-color-scheme" type="text/css">
   .ColorScheme-Text { color:#424242; } .ColorScheme-Highlight { color:#eeeeee; }
  </style>
 </defs>
<path style="fill:currentColor" class="ColorScheme-Text" d="M 8 6 L 8 8 L 12 8 C 13.660156 8 15 9.339844 15 11 L 10 11 C 8.339844 11 7 12.339844 7 14 C 7 15.660156 8.339844 17 10 17 L 12 17 L 12 15 L 10 15 C 9.445312 15 9 14.554688 9 14 C 9 13.445312 9.445312 13 10 13 L 15 13 L 15 14 L 17 14 L 17 11 C 17 8.230469 14.769531 6 12 6 Z M 17 15 L 17 16 L 14 16 L 14 18 L 17 18 L 17 19 L 19 17 Z M 17 15 "/>
</g>
</svg>
