
<svg xmlns="http://www.w3.org/2000/svg" xmlns:xlink="http://www.w3.org/1999/xlink" width="24px" height="24px" viewBox="0 0 24 24" version="1.1">
<g id="surface1">
<defs>
  <style id="current-color-scheme" type="text/css">
   .ColorScheme-Text { color:#424242; } .ColorScheme-Highlight { color:#eeeeee; }
  </style>
 </defs>
<path style="fill:currentColor" class="ColorScheme-Text" d="M 9 5 C 6.785156 5 5 6.785156 5 9 L 5 19 L 7 19 L 7 15 L 13 15 L 13 19 L 15 19 L 15 14 L 12 14 L 12 13 L 7 13 L 7 9 C 7 7.890625 7.890625 7 9 7 L 11 7 C 11.367188 7 11.703125 7.105469 12 7.277344 L 12 5.140625 C 11.679688 5.054688 11.347656 5 11 5 Z M 13 5 L 13 13 L 16.5 13 C 17.886719 13 19 11.886719 19 10.5 C 19 9.605469 18.53125 8.832031 17.832031 8.390625 C 17.9375 8.113281 18 7.8125 18 7.5 C 18 6.113281 16.886719 5 15.5 5 Z M 15 7 L 15.5 7 C 15.777344 7 16 7.222656 16 7.5 C 16 7.777344 15.777344 8 15.5 8 L 15 8 Z M 15 10 L 16.5 10 C 16.777344 10 17 10.222656 17 10.5 C 17 10.777344 16.777344 11 16.5 11 L 15 11 Z M 15 10 "/>
</g>
</svg>
