
<svg xmlns="http://www.w3.org/2000/svg" xmlns:xlink="http://www.w3.org/1999/xlink" width="24px" height="24px" viewBox="0 0 24 24" version="1.1">
<g id="surface1">
<defs>
  <style id="current-color-scheme" type="text/css">
   .ColorScheme-Text { color:#424242; } .ColorScheme-Highlight { color:#eeeeee; }
  </style>
 </defs>
<path style="fill:currentColor" class="ColorScheme-Text" d="M 8.015625 6 C 6.351562 6 5.015625 7.339844 5.015625 9 L 5.015625 14 L 7.015625 14 L 7.015625 12 L 9.015625 12 L 9.015625 14 L 11.015625 14 L 11.015625 9 C 11.015625 7.339844 9.675781 6 8.015625 6 Z M 16.160156 7.054688 C 14.765625 6.96875 13.460938 7.867188 13.085938 9.273438 L 11.792969 14.101562 L 13.722656 14.621094 L 14.242188 12.6875 L 16.171875 13.207031 L 15.65625 15.136719 L 17.585938 15.65625 L 18.878906 10.828125 C 19.3125 9.222656 18.363281 7.582031 16.757812 7.152344 C 16.558594 7.097656 16.359375 7.066406 16.160156 7.054688 Z M 8.015625 8 C 8.570312 8 9.015625 8.445312 9.015625 9 L 9.015625 10 L 7.015625 10 L 7.015625 9 C 7.015625 8.445312 7.460938 8 8.015625 8 Z M 15.84375 9.058594 C 15.972656 9.039062 16.109375 9.046875 16.242188 9.085938 C 16.777344 9.230469 17.09375 9.773438 16.949219 10.308594 L 16.691406 11.273438 L 14.757812 10.757812 L 15.015625 9.792969 C 15.125 9.390625 15.460938 9.113281 15.84375 9.058594 Z M 5.015625 15 L 5.015625 17 L 11.015625 17 L 11.015625 15 Z M 11.015625 17 L 16.808594 18.554688 L 17.328125 16.621094 L 11.53125 15.070312 Z M 11.015625 17 "/>
</g>
</svg>
