<?xml version="1.0" encoding="UTF-8"?>
<svg xmlns="http://www.w3.org/2000/svg" xmlns:xlink="http://www.w3.org/1999/xlink" width="24px" height="24px" viewBox="0 0 24 24" version="1.1">
<g id="surface1">
<defs>
  <style id="current-color-scheme" type="text/css">
   .ColorScheme-Text { color:#424242; } .ColorScheme-Highlight { color:#eeeeee; }
  </style>
 </defs>
<path style="fill:currentColor" class="ColorScheme-Text" d="M 9 6 L 9 8 L 11 8 L 11 6 Z M 13 6 L 13 8 L 15 8 L 15 6 Z M 6 8 L 6 10 L 8 10 L 8 8 Z M 16 8 L 16 10 L 18 10 L 18 8 Z M 5 11 L 5 13 L 7 13 L 7 11 Z M 17 11 L 17 13 L 19 13 L 19 11 Z M 6 14 L 6 16 L 8 16 L 8 14 Z M 16 14 L 16 16 L 18 16 L 18 14 Z M 9 16 L 9 18 L 11 18 L 11 16 Z M 13 16 L 13 18 L 15 18 L 15 16 Z M 13 16 "/>
</g>
</svg>
