<?xml version="1.0" encoding="UTF-8"?>
<svg xmlns="http://www.w3.org/2000/svg" xmlns:xlink="http://www.w3.org/1999/xlink" width="24px" height="24px" viewBox="0 0 24 24" version="1.1">
<g id="surface1">
<defs>
  <style id="current-color-scheme" type="text/css">
   .ColorScheme-Text { color:#424242; } .ColorScheme-Highlight { color:#eeeeee; }
  </style>
 </defs>
<path style="fill:currentColor" class="ColorScheme-Text" d="M 15.996094 5 C 13.109375 5 11.175781 5.59375 9.878906 6.625 C 8.582031 7.652344 8.046875 9.054688 7.773438 10.285156 C 7.5 11.511719 7.414062 12.636719 7.183594 13.25 C 7.070312 13.554688 6.957031 13.710938 6.820312 13.808594 C 6.683594 13.910156 6.476562 14 6 14 L 5 14 L 5 19 L 19 19 L 19 14 L 18 14 C 16.332031 14 15.324219 13.28125 14.953125 12.085938 C 14.585938 10.886719 14.914062 8.957031 16.78125 6.625 L 18.078125 5 Z M 14.066406 7.46875 C 13.078125 9.359375 12.585938 11.175781 13.046875 12.671875 C 13.574219 14.394531 15.152344 15.378906 16.996094 15.710938 L 16.996094 17.003906 L 6.996094 17.003906 L 6.996094 15.710938 C 7.335938 15.617188 7.734375 15.617188 8.003906 15.421875 C 8.539062 15.027344 8.859375 14.484375 9.058594 13.945312 C 9.457031 12.871094 9.496094 11.738281 9.722656 10.71875 C 9.949219 9.695312 10.289062 8.851562 11.117188 8.195312 C 11.617188 7.796875 12.925781 7.21875 14 7 Z M 14.066406 7.46875 "/>
</g>
</svg>
