
<svg xmlns="http://www.w3.org/2000/svg" xmlns:xlink="http://www.w3.org/1999/xlink" width="24px" height="24px" viewBox="0 0 24 24" version="1.1">
<g id="surface1">
<defs>
  <style id="current-color-scheme" type="text/css">
   .ColorScheme-Text { color:#424242; } .ColorScheme-Highlight { color:#eeeeee; }
  </style>
 </defs>
<path style="fill:currentColor" class="ColorScheme-Text" d="M 12 5 C 9.617188 5 7.53125 6.1875 6.269531 8 L 9.027344 8 C 9.855469 7.378906 10.878906 7 12 7 C 13.121094 7 14.144531 7.378906 14.96875 8 L 17.730469 8 C 16.46875 6.1875 14.382812 5 12 5 Z M 5 10 L 5 14 L 11 14 L 11 13 L 13 13 L 13 14 L 19 14 L 19 10 L 13 10 L 13 11 L 11 11 L 11 10 Z M 6.269531 16 C 7.53125 17.8125 9.617188 19 12 19 C 14.382812 19 16.46875 17.8125 17.730469 16 L 14.96875 16 C 14.144531 16.621094 13.121094 17 12 17 C 10.878906 17 9.855469 16.621094 9.027344 16 Z M 6.269531 16 "/>
</g>
</svg>
