<?xml version="1.0" encoding="UTF-8"?>
<svg xmlns="http://www.w3.org/2000/svg" xmlns:xlink="http://www.w3.org/1999/xlink" width="24px" height="24px" viewBox="0 0 24 24" version="1.1">
<g id="surface1">
<defs>
  <style id="current-color-scheme" type="text/css">
   .ColorScheme-Text { color:#424242; } .ColorScheme-Highlight { color:#eeeeee; }
  </style>
 </defs>
<path style="fill:currentColor" class="ColorScheme-Text" d="M 5 19 L 5 15 L 7 15 L 7 17 L 9 17 L 9 19 Z M 15 19 L 10.757812 14.757812 L 12.171875 13.34375 L 14 15.171875 L 14 11 L 16 11 L 16 15.171875 L 17.828125 13.34375 L 19.242188 14.757812 Z M 5 11 L 5 5 L 11 5 L 11 11 Z M 7 9 L 9 9 L 9 7 L 7 7 Z M 17 9 L 17 7 L 15 7 L 15 5 L 19 5 L 19 9 Z M 17 9 "/>
</g>
</svg>
