<?xml version="1.0" encoding="UTF-8"?>
<svg xmlns="http://www.w3.org/2000/svg" xmlns:xlink="http://www.w3.org/1999/xlink" width="32px" height="32px" viewBox="0 0 32 32" version="1.1">
<g id="surface1">
<path style=" stroke:none;fill-rule:nonzero;fill:rgb(21.568628%,27.843139%,30.980393%);fill-opacity:1;" d="M 29.105469 30.675781 L 2.644531 30.675781 C 1.914062 30.675781 1.324219 30.085938 1.324219 29.355469 L 1.324219 2.894531 C 1.324219 2.164062 1.914062 1.574219 2.644531 1.574219 L 29.105469 1.574219 C 29.835938 1.574219 30.425781 2.164062 30.425781 2.894531 L 30.425781 29.355469 C 30.425781 30.085938 29.835938 30.675781 29.105469 30.675781 Z M 29.105469 30.675781 "/>
<path style=" stroke:none;fill-rule:nonzero;fill:rgb(47.058824%,56.470591%,61.176473%);fill-opacity:1;" d="M 28.441406 29.355469 L 3.308594 29.355469 C 2.941406 29.355469 2.644531 29.058594 2.644531 28.691406 L 2.644531 3.558594 C 2.644531 3.191406 2.941406 2.894531 3.308594 2.894531 L 28.441406 2.894531 C 28.808594 2.894531 29.105469 3.191406 29.105469 3.558594 L 29.105469 28.691406 C 29.105469 29.058594 28.808594 29.355469 28.441406 29.355469 Z M 28.441406 29.355469 "/>
<path style=" stroke:none;fill-rule:nonzero;fill:rgb(93.333334%,93.333334%,93.333334%);fill-opacity:1;" d="M 24.761719 23.140625 L 22.890625 25.011719 C 22.632812 25.269531 22.214844 25.269531 21.957031 25.011719 L 6.988281 10.042969 C 6.730469 9.785156 6.730469 9.367188 6.988281 9.109375 L 8.859375 7.238281 C 9.117188 6.980469 9.535156 6.980469 9.792969 7.238281 L 24.761719 22.207031 C 25.019531 22.464844 25.019531 22.882812 24.761719 23.140625 Z M 24.761719 23.140625 "/>
<path style=" stroke:none;fill-rule:nonzero;fill:rgb(93.333334%,93.333334%,93.333334%);fill-opacity:1;" d="M 22.890625 7.238281 L 24.761719 9.109375 C 25.019531 9.367188 25.019531 9.785156 24.761719 10.042969 L 9.792969 25.011719 C 9.535156 25.269531 9.117188 25.269531 8.859375 25.011719 L 6.988281 23.140625 C 6.730469 22.882812 6.730469 22.464844 6.988281 22.207031 L 21.957031 7.238281 C 22.214844 6.980469 22.632812 6.980469 22.890625 7.238281 Z M 22.890625 7.238281 "/>
</g>
</svg>
