
<svg xmlns="http://www.w3.org/2000/svg" xmlns:xlink="http://www.w3.org/1999/xlink" width="48px" height="48px" viewBox="0 0 48 48" version="1.1">
<g id="surface1">
<path style=" stroke:none;fill-rule:nonzero;fill:rgb(36.078432%,41.960785%,75.294119%);fill-opacity:1;" d="M 6.449219 5.953125 L 41.175781 5.953125 C 41.449219 5.953125 41.671875 6.175781 41.671875 6.449219 L 41.671875 41.175781 C 41.671875 41.449219 41.449219 41.671875 41.175781 41.671875 L 6.449219 41.671875 C 6.175781 41.671875 5.953125 41.449219 5.953125 41.175781 L 5.953125 6.449219 C 5.953125 6.175781 6.175781 5.953125 6.449219 5.953125 Z M 6.449219 5.953125 "/>
<path style=" stroke:none;fill-rule:nonzero;fill:rgb(92.54902%,25.098041%,47.843137%);fill-opacity:1;" d="M 3.90625 1.984375 L 43.71875 1.984375 C 44.78125 1.984375 45.640625 2.84375 45.640625 3.90625 L 45.640625 43.71875 C 45.640625 44.78125 44.78125 45.640625 43.71875 45.640625 L 3.90625 45.640625 C 2.84375 45.640625 1.984375 44.78125 1.984375 43.71875 L 1.984375 3.90625 C 1.984375 2.84375 2.84375 1.984375 3.90625 1.984375 Z M 3.90625 1.984375 "/>
<path style=" stroke:none;fill-rule:nonzero;fill:rgb(97.254902%,73.333335%,81.568629%);fill-opacity:1;" d="M 4.960938 3.96875 L 42.664062 3.96875 C 43.210938 3.96875 43.65625 4.414062 43.65625 4.960938 L 43.65625 42.664062 C 43.65625 43.210938 43.210938 43.65625 42.664062 43.65625 L 4.960938 43.65625 C 4.414062 43.65625 3.96875 43.210938 3.96875 42.664062 L 3.96875 4.960938 C 3.96875 4.414062 4.414062 3.96875 4.960938 3.96875 Z M 4.960938 3.96875 "/>
<path style=" stroke:none;fill-rule:nonzero;fill:rgb(92.54902%,25.098041%,47.843137%);fill-opacity:1;" d="M 6.449219 5.953125 L 41.175781 5.953125 C 41.449219 5.953125 41.671875 6.175781 41.671875 6.449219 L 41.671875 41.175781 C 41.671875 41.449219 41.449219 41.671875 41.175781 41.671875 L 6.449219 41.671875 C 6.175781 41.671875 5.953125 41.449219 5.953125 41.175781 L 5.953125 6.449219 C 5.953125 6.175781 6.175781 5.953125 6.449219 5.953125 Z M 6.449219 5.953125 "/>
<path style=" stroke:none;fill-rule:nonzero;fill:rgb(97.254902%,73.333335%,81.568629%);fill-opacity:0.999958;" d="M 31.230469 19.347656 C 31.503906 19.347656 31.726562 19.570312 31.726562 19.84375 L 31.726562 31.253906 C 31.726562 31.527344 31.503906 31.75 31.230469 31.75 L 30.238281 31.75 C 30.226562 31.75 30.214844 31.75 30.203125 31.75 C 30.199219 31.75 30.195312 31.75 30.191406 31.746094 C 30.179688 31.746094 30.167969 31.746094 30.160156 31.742188 C 30.15625 31.742188 30.15625 31.742188 30.152344 31.742188 C 30.144531 31.742188 30.136719 31.738281 30.128906 31.738281 C 30.121094 31.734375 30.109375 31.734375 30.101562 31.730469 C 30.09375 31.730469 30.089844 31.726562 30.085938 31.726562 C 30.074219 31.722656 30.0625 31.71875 30.050781 31.714844 C 30.046875 31.710938 30.046875 31.710938 30.042969 31.710938 C 30.03125 31.707031 30.015625 31.699219 30.003906 31.691406 C 30 31.691406 29.996094 31.6875 29.992188 31.683594 C 29.984375 31.679688 29.976562 31.675781 29.96875 31.667969 C 29.960938 31.667969 29.957031 31.664062 29.953125 31.660156 C 29.945312 31.65625 29.9375 31.648438 29.929688 31.644531 C 29.925781 31.640625 29.921875 31.636719 29.917969 31.632812 C 29.910156 31.625 29.902344 31.621094 29.898438 31.613281 C 29.894531 31.609375 29.890625 31.605469 29.886719 31.601562 C 29.882812 31.601562 29.882812 31.601562 29.882812 31.601562 C 29.875 31.59375 29.867188 31.582031 29.859375 31.574219 C 29.851562 31.566406 29.847656 31.5625 29.84375 31.554688 C 29.839844 31.550781 29.835938 31.546875 29.832031 31.539062 C 29.828125 31.53125 29.824219 31.527344 29.820312 31.519531 C 29.816406 31.515625 29.8125 31.507812 29.808594 31.503906 C 29.804688 31.496094 29.800781 31.488281 29.796875 31.484375 C 29.792969 31.476562 29.792969 31.472656 29.789062 31.464844 C 29.785156 31.457031 29.78125 31.449219 29.777344 31.441406 C 29.773438 31.429688 29.769531 31.417969 29.765625 31.40625 C 29.308594 31.625 28.796875 31.75 28.253906 31.75 C 26.328125 31.75 24.78125 30.203125 24.78125 28.277344 L 24.78125 26.292969 C 24.78125 24.367188 26.328125 22.820312 28.253906 22.820312 C 28.785156 22.820312 29.289062 22.941406 29.742188 23.152344 L 29.742188 19.84375 C 29.742188 19.570312 29.964844 19.347656 30.238281 19.347656 Z M 28.253906 24.804688 C 27.429688 24.804688 26.765625 25.46875 26.765625 26.292969 L 26.765625 28.277344 C 26.765625 29.101562 27.429688 29.765625 28.253906 29.765625 C 29.078125 29.765625 29.742188 29.101562 29.742188 28.277344 L 29.742188 26.292969 C 29.742188 25.46875 29.078125 24.804688 28.253906 24.804688 Z M 28.253906 24.804688 "/>
<path style=" stroke:none;fill-rule:nonzero;fill:rgb(97.254902%,73.333335%,81.568629%);fill-opacity:0.999958;" d="M 19.347656 15.875 L 20.339844 15.875 C 20.613281 15.875 20.835938 16.097656 20.835938 16.371094 L 20.835938 31.253906 C 20.835938 31.527344 20.613281 31.75 20.339844 31.75 L 19.347656 31.75 C 19.074219 31.75 18.851562 31.527344 18.851562 31.253906 L 18.851562 16.371094 C 18.851562 16.097656 19.074219 15.875 19.347656 15.875 Z M 19.347656 15.875 "/>
</g>
</svg>
