<?xml version="1.0" encoding="UTF-8"?>
<svg xmlns="http://www.w3.org/2000/svg" xmlns:xlink="http://www.w3.org/1999/xlink" width="48px" height="48px" viewBox="0 0 48 48" version="1.1">
<g id="surface1">
<path style=" stroke:none;fill-rule:nonzero;fill:rgb(74.117649%,74.117649%,74.117649%);fill-opacity:1;" d="M 21.828125 5.335938 L 25.796875 5.335938 L 23.8125 2.359375 Z M 21.828125 5.335938 "/>
<path style=" stroke:none;fill-rule:nonzero;fill:rgb(74.117649%,74.117649%,74.117649%);fill-opacity:1;" d="M 21.828125 43.039062 L 25.796875 43.039062 L 23.8125 46.015625 Z M 21.828125 43.039062 "/>
<path style=" stroke:none;fill-rule:nonzero;fill:rgb(74.117649%,74.117649%,74.117649%);fill-opacity:1;" d="M 31.519531 6.871094 L 34.957031 8.855469 L 34.726562 5.285156 Z M 31.519531 6.871094 "/>
<path style=" stroke:none;fill-rule:nonzero;fill:rgb(74.117649%,74.117649%,74.117649%);fill-opacity:1;" d="M 12.667969 39.519531 L 16.105469 41.503906 L 12.898438 43.089844 Z M 12.667969 39.519531 "/>
<path style=" stroke:none;fill-rule:nonzero;fill:rgb(74.117649%,74.117649%,74.117649%);fill-opacity:1;" d="M 39.144531 13.042969 L 41.128906 16.480469 L 42.714844 13.273438 Z M 39.144531 13.042969 "/>
<path style=" stroke:none;fill-rule:nonzero;fill:rgb(74.117649%,74.117649%,74.117649%);fill-opacity:1;" d="M 6.496094 31.894531 L 8.480469 35.332031 L 4.910156 35.101562 Z M 6.496094 31.894531 "/>
<path style=" stroke:none;fill-rule:nonzero;fill:rgb(74.117649%,74.117649%,74.117649%);fill-opacity:1;" d="M 42.664062 22.203125 L 42.664062 26.171875 L 45.640625 24.1875 Z M 42.664062 22.203125 "/>
<path style=" stroke:none;fill-rule:nonzero;fill:rgb(74.117649%,74.117649%,74.117649%);fill-opacity:1;" d="M 4.960938 22.203125 L 4.960938 26.171875 L 1.984375 24.1875 Z M 4.960938 22.203125 "/>
<path style=" stroke:none;fill-rule:nonzero;fill:rgb(74.117649%,74.117649%,74.117649%);fill-opacity:1;" d="M 41.128906 31.894531 L 39.144531 35.332031 L 42.714844 35.101562 Z M 41.128906 31.894531 "/>
<path style=" stroke:none;fill-rule:nonzero;fill:rgb(74.117649%,74.117649%,74.117649%);fill-opacity:1;" d="M 8.480469 13.042969 L 6.496094 16.480469 L 4.910156 13.273438 Z M 8.480469 13.042969 "/>
<path style=" stroke:none;fill-rule:nonzero;fill:rgb(74.117649%,74.117649%,74.117649%);fill-opacity:1;" d="M 34.957031 39.519531 L 31.519531 41.503906 L 34.726562 43.089844 Z M 34.957031 39.519531 "/>
<path style=" stroke:none;fill-rule:nonzero;fill:rgb(74.117649%,74.117649%,74.117649%);fill-opacity:1;" d="M 16.105469 6.871094 L 12.667969 8.855469 L 12.898438 5.285156 Z M 16.105469 6.871094 "/>
<path style=" stroke:none;fill-rule:nonzero;fill:rgb(37.64706%,49.019608%,54.509807%);fill-opacity:1;" d="M 15.265625 15.703125 L 19.414062 13.308594 L 34.480469 39.402344 C 35.878906 41.820312 35.292969 44.003906 35.199219 45.4375 C 33.910156 44.800781 31.726562 44.214844 30.332031 41.796875 Z M 15.265625 15.703125 "/>
<path style=" stroke:none;fill-rule:nonzero;fill:rgb(45.882353%,45.882353%,45.882353%);fill-opacity:1;" d="M 12.351562 15.445312 L 20.648438 10.65625 L 21.449219 12.039062 L 13.148438 16.828125 Z M 12.351562 15.445312 "/>
<path style=" stroke:none;fill-rule:nonzero;fill:rgb(45.882353%,45.882353%,45.882353%);fill-opacity:1;" d="M 11.261719 15.152344 C 12.023438 14.710938 13 14.972656 13.441406 15.738281 C 13.882812 16.503906 13.621094 17.480469 12.855469 17.921875 C 12.09375 18.359375 11.117188 18.097656 10.675781 17.335938 C 10.234375 16.570312 10.496094 15.59375 11.261719 15.152344 Z M 11.261719 15.152344 "/>
<path style=" stroke:none;fill-rule:nonzero;fill:rgb(45.882353%,45.882353%,45.882353%);fill-opacity:1;" d="M 20.941406 9.5625 C 21.707031 9.121094 22.683594 9.382812 23.125 10.148438 C 23.566406 10.914062 23.304688 11.890625 22.539062 12.328125 C 21.773438 12.769531 20.796875 12.507812 20.359375 11.746094 C 19.917969 10.980469 20.179688 10.003906 20.941406 9.5625 Z M 20.941406 9.5625 "/>
<path style=" stroke:none;fill-rule:nonzero;fill:rgb(38.039216%,38.039216%,38.039216%);fill-opacity:1;" d="M 11.125 6.933594 L 13.890625 5.335938 L 17.882812 12.25 L 15.117188 13.847656 Z M 11.125 6.933594 "/>
<path style=" stroke:none;fill-rule:nonzero;fill:rgb(45.882353%,45.882353%,45.882353%);fill-opacity:1;" d="M 10.511719 2.675781 C 11.65625 2.015625 13.121094 2.40625 13.785156 3.554688 C 14.445312 4.699219 14.050781 6.164062 12.90625 6.824219 C 11.761719 7.488281 10.296875 7.09375 9.632812 5.949219 C 8.972656 4.804688 9.363281 3.339844 10.511719 2.675781 Z M 10.511719 2.675781 "/>
<path style=" stroke:none;fill-rule:nonzero;fill:rgb(56.470591%,64.313728%,68.235296%);fill-opacity:1;" d="M 17.339844 14.507812 L 35.199219 45.4375 C 35.292969 44.003906 35.878906 41.820312 34.480469 39.402344 L 19.414062 13.308594 Z M 17.339844 14.507812 "/>
<path style=" stroke:none;fill-rule:nonzero;fill:rgb(69.01961%,74.509805%,77.254903%);fill-opacity:1;" d="M 15.222656 15.632812 C 15.886719 16.78125 17.347656 17.171875 18.496094 16.507812 C 19.644531 15.84375 20.039062 14.386719 19.375 13.234375 Z M 15.222656 15.632812 "/>
<path style=" stroke:none;fill-rule:nonzero;fill:rgb(74.117649%,74.117649%,74.117649%);fill-opacity:1;" d="M 10.128906 3.496094 C 10.398438 3.132812 10.695312 3.195312 10.789062 3.640625 C 10.882812 4.082031 10.738281 4.738281 10.46875 5.101562 C 10.195312 5.464844 9.902344 5.402344 9.808594 4.957031 C 9.714844 4.511719 9.855469 3.859375 10.128906 3.496094 Z M 10.128906 3.496094 "/>
<path style=" stroke:none;fill-rule:nonzero;fill:rgb(74.117649%,74.117649%,74.117649%);fill-opacity:1;" d="M 20.695312 10.136719 C 20.832031 9.957031 20.976562 9.988281 21.023438 10.210938 C 21.070312 10.433594 20.996094 10.757812 20.863281 10.941406 C 20.726562 11.121094 20.578125 11.089844 20.53125 10.867188 C 20.488281 10.644531 20.558594 10.320312 20.695312 10.136719 Z M 20.695312 10.136719 "/>
<path style=" stroke:none;fill-rule:nonzero;fill:rgb(74.117649%,74.117649%,74.117649%);fill-opacity:1;" d="M 10.808594 15.847656 C 10.945312 15.664062 11.089844 15.695312 11.140625 15.917969 C 11.1875 16.136719 11.117188 16.464844 10.984375 16.648438 C 10.847656 16.832031 10.703125 16.796875 10.652344 16.578125 C 10.605469 16.355469 10.675781 16.03125 10.808594 15.847656 Z M 10.808594 15.847656 "/>
<path style=" stroke:none;fill-rule:nonzero;fill:rgb(37.64706%,49.019608%,54.509807%);fill-opacity:1;" d="M 32.402344 15.703125 L 28.253906 13.308594 L 13.1875 39.402344 C 11.792969 41.820312 12.375 44.003906 12.46875 45.4375 C 13.757812 44.800781 15.941406 44.214844 17.339844 41.796875 Z M 32.402344 15.703125 "/>
<path style=" stroke:none;fill-rule:nonzero;fill:rgb(45.882353%,45.882353%,45.882353%);fill-opacity:1;" d="M 35.316406 15.445312 L 27.019531 10.65625 L 26.21875 12.039062 L 34.519531 16.828125 Z M 35.316406 15.445312 "/>
<path style=" stroke:none;fill-rule:nonzero;fill:rgb(45.882353%,45.882353%,45.882353%);fill-opacity:1;" d="M 36.410156 15.152344 C 35.644531 14.710938 34.667969 14.972656 34.226562 15.738281 C 33.785156 16.503906 34.046875 17.480469 34.8125 17.921875 C 35.574219 18.359375 36.550781 18.097656 36.992188 17.335938 C 37.433594 16.570312 37.171875 15.59375 36.410156 15.152344 Z M 36.410156 15.152344 "/>
<path style=" stroke:none;fill-rule:nonzero;fill:rgb(45.882353%,45.882353%,45.882353%);fill-opacity:1;" d="M 26.726562 9.5625 C 25.964844 9.121094 24.984375 9.382812 24.546875 10.148438 C 24.105469 10.914062 24.367188 11.890625 25.128906 12.328125 C 25.894531 12.769531 26.871094 12.507812 27.3125 11.746094 C 27.753906 10.980469 27.492188 10.003906 26.726562 9.5625 Z M 26.726562 9.5625 "/>
<path style=" stroke:none;fill-rule:nonzero;fill:rgb(38.039216%,38.039216%,38.039216%);fill-opacity:1;" d="M 36.542969 6.933594 L 33.777344 5.335938 L 29.785156 12.25 L 32.550781 13.847656 Z M 36.542969 6.933594 "/>
<path style=" stroke:none;fill-rule:nonzero;fill:rgb(45.882353%,45.882353%,45.882353%);fill-opacity:1;" d="M 37.15625 2.675781 C 36.011719 2.015625 34.546875 2.40625 33.886719 3.554688 C 33.222656 4.699219 33.617188 6.164062 34.761719 6.824219 C 35.90625 7.488281 37.375 7.09375 38.035156 5.949219 C 38.695312 4.804688 38.304688 3.339844 37.15625 2.675781 Z M 37.15625 2.675781 "/>
<path style=" stroke:none;fill-rule:nonzero;fill:rgb(56.470591%,64.313728%,68.235296%);fill-opacity:1;" d="M 30.328125 14.507812 L 12.46875 45.4375 C 12.375 44.003906 11.792969 41.820312 13.1875 39.402344 L 28.253906 13.308594 Z M 30.328125 14.507812 "/>
<path style=" stroke:none;fill-rule:nonzero;fill:rgb(69.01961%,74.509805%,77.254903%);fill-opacity:1;" d="M 32.445312 15.632812 C 31.78125 16.78125 30.320312 17.171875 29.171875 16.507812 C 28.023438 15.84375 27.632812 14.386719 28.296875 13.234375 Z M 32.445312 15.632812 "/>
<path style=" stroke:none;fill-rule:nonzero;fill:rgb(74.117649%,74.117649%,74.117649%);fill-opacity:1;" d="M 37.542969 3.496094 C 37.269531 3.132812 36.976562 3.195312 36.882812 3.640625 C 36.785156 4.082031 36.929688 4.738281 37.203125 5.101562 C 37.472656 5.464844 37.769531 5.402344 37.863281 4.957031 C 37.957031 4.511719 37.8125 3.859375 37.542969 3.496094 Z M 37.542969 3.496094 "/>
<path style=" stroke:none;fill-rule:nonzero;fill:rgb(74.117649%,74.117649%,74.117649%);fill-opacity:1;" d="M 26.972656 10.136719 C 26.839844 9.957031 26.691406 9.988281 26.644531 10.210938 C 26.597656 10.433594 26.671875 10.757812 26.808594 10.941406 C 26.941406 11.121094 27.089844 11.089844 27.136719 10.867188 C 27.183594 10.644531 27.109375 10.320312 26.972656 10.136719 Z M 26.972656 10.136719 "/>
<path style=" stroke:none;fill-rule:nonzero;fill:rgb(74.117649%,74.117649%,74.117649%);fill-opacity:1;" d="M 36.859375 15.847656 C 36.726562 15.664062 36.578125 15.695312 36.53125 15.917969 C 36.480469 16.136719 36.550781 16.464844 36.683594 16.648438 C 36.820312 16.832031 36.96875 16.796875 37.015625 16.578125 C 37.0625 16.355469 36.992188 16.03125 36.859375 15.847656 Z M 36.859375 15.847656 "/>
<path style=" stroke:none;fill-rule:nonzero;fill:rgb(93.725491%,32.549021%,31.37255%);fill-opacity:1;" d="M 23.8125 4.34375 C 34.773438 4.34375 43.65625 13.226562 43.65625 24.1875 C 43.65625 35.148438 34.773438 44.03125 23.8125 44.03125 C 12.851562 44.03125 3.96875 35.148438 3.96875 24.1875 C 3.96875 13.226562 12.851562 4.34375 23.8125 4.34375 Z M 23.8125 4.34375 "/>
<path style=" stroke:none;fill-rule:nonzero;fill:rgb(87.843138%,87.843138%,87.843138%);fill-opacity:1;" d="M 23.8125 4.511719 C 19.125 8.238281 11.839844 8.296875 5.953125 8.292969 C 6.121094 16.40625 8.28125 25.402344 11.535156 32.382812 C 13.230469 36.019531 15.21875 39.109375 17.332031 41.25 C 19.441406 43.390625 21.640625 44.566406 23.8125 44.566406 C 25.984375 44.566406 28.183594 43.390625 30.292969 41.25 C 32.40625 39.109375 34.394531 36.019531 36.089844 32.382812 C 39.34375 25.402344 41.503906 16.40625 41.671875 8.292969 C 35.785156 8.296875 28.5 8.238281 23.8125 4.511719 Z M 23.8125 4.511719 "/>
<path style=" stroke:none;fill-rule:nonzero;fill:rgb(61.960787%,61.960787%,61.960787%);fill-opacity:1;" d="M 23.8125 6.335938 C 19.644531 9.75 13.167969 9.804688 7.9375 9.800781 C 8.085938 17.238281 10.007812 25.488281 12.898438 31.890625 C 14.40625 35.226562 16.175781 38.058594 18.050781 40.019531 C 19.929688 41.984375 21.882812 43.058594 23.8125 43.058594 C 25.742188 43.058594 27.695312 41.984375 29.574219 40.019531 C 31.449219 38.058594 33.21875 35.226562 34.726562 31.890625 C 37.617188 25.488281 39.539062 17.238281 39.6875 9.800781 C 34.457031 9.804688 27.980469 9.75 23.8125 6.335938 Z M 23.8125 6.335938 "/>
</g>
</svg>
