<?xml version="1.0" encoding="UTF-8"?>
<svg xmlns="http://www.w3.org/2000/svg" xmlns:xlink="http://www.w3.org/1999/xlink" width="48px" height="48px" viewBox="0 0 48 48" version="1.1">
<g id="surface1">
<path style=" stroke:none;fill-rule:nonzero;fill:rgb(24.705882%,31.764707%,70.980394%);fill-opacity:1;" d="M 5.953125 2.359375 L 41.671875 2.359375 C 43.863281 2.359375 45.640625 4.136719 45.640625 6.328125 L 45.640625 42.046875 C 45.640625 44.238281 43.863281 46.015625 41.671875 46.015625 L 5.953125 46.015625 C 3.761719 46.015625 1.984375 44.238281 1.984375 42.046875 L 1.984375 6.328125 C 1.984375 4.136719 3.761719 2.359375 5.953125 2.359375 Z M 5.953125 2.359375 "/>
<path style=" stroke:none;fill-rule:nonzero;fill:rgb(36.078432%,41.960785%,75.294119%);fill-opacity:1;" d="M 5.953125 4.34375 L 41.671875 4.34375 C 42.769531 4.34375 43.65625 5.230469 43.65625 6.328125 L 43.65625 42.046875 C 43.65625 43.144531 42.769531 44.03125 41.671875 44.03125 L 5.953125 44.03125 C 4.855469 44.03125 3.96875 43.144531 3.96875 42.046875 L 3.96875 6.328125 C 3.96875 5.230469 4.855469 4.34375 5.953125 4.34375 Z M 5.953125 4.34375 "/>
<path style=" stroke:none;fill-rule:nonzero;fill:rgb(93.333334%,93.333334%,93.333334%);fill-opacity:1;" d="M 23.8125 13.769531 C 19.691406 13.769531 16.371094 16.867188 16.371094 20.714844 L 16.371094 33.613281 C 16.371094 34.164062 16.8125 34.605469 17.363281 34.605469 L 18.355469 34.605469 C 18.90625 34.605469 19.347656 34.164062 19.347656 33.613281 L 19.347656 27.660156 L 28.277344 27.660156 L 28.277344 33.613281 C 28.277344 34.164062 28.71875 34.605469 29.269531 34.605469 L 30.261719 34.605469 C 30.8125 34.605469 31.253906 34.164062 31.253906 33.613281 L 31.253906 20.714844 C 31.253906 16.867188 27.933594 13.769531 23.8125 13.769531 Z M 23.8125 16.746094 C 26.285156 16.746094 28.277344 18.957031 28.277344 21.707031 L 28.277344 24.683594 L 19.347656 24.683594 L 19.347656 21.707031 C 19.347656 18.957031 21.339844 16.746094 23.8125 16.746094 Z M 23.8125 16.746094 "/>
</g>
</svg>
