<?xml version="1.0" encoding="UTF-8"?>
<svg xmlns="http://www.w3.org/2000/svg" xmlns:xlink="http://www.w3.org/1999/xlink" width="48px" height="48px" viewBox="0 0 48 48" version="1.1">
<g id="surface1">
<path style=" stroke:none;fill-rule:nonzero;fill:rgb(92.54902%,25.098041%,47.843137%);fill-opacity:1;" d="M 3.96875 2.359375 L 43.65625 2.359375 C 44.753906 2.359375 45.640625 3.246094 45.640625 4.34375 L 45.640625 44.03125 C 45.640625 45.128906 44.753906 46.015625 43.65625 46.015625 L 3.96875 46.015625 C 2.871094 46.015625 1.984375 45.128906 1.984375 44.03125 L 1.984375 4.34375 C 1.984375 3.246094 2.871094 2.359375 3.96875 2.359375 Z M 3.96875 2.359375 "/>
<path style=" stroke:none;fill-rule:nonzero;fill:rgb(93.333334%,93.333334%,93.333334%);fill-opacity:1;" d="M 23.8125 7.320312 C 22.796875 7.320312 21.800781 7.410156 20.835938 7.578125 L 20.835938 32.125 L 16.867188 32.125 L 16.867188 8.800781 C 11.007812 11.441406 6.945312 17.320312 6.945312 24.1875 C 6.945312 33.53125 14.46875 41.054688 23.8125 41.054688 C 33.15625 41.054688 40.679688 33.53125 40.679688 24.1875 C 40.679688 14.84375 33.15625 7.320312 23.8125 7.320312 Z M 21.828125 16.25 L 34.726562 24.1875 L 21.828125 32.125 Z M 21.828125 16.25 "/>
</g>
</svg>
