<?xml version="1.0" encoding="UTF-8"?>
<svg xmlns="http://www.w3.org/2000/svg" xmlns:xlink="http://www.w3.org/1999/xlink" width="48px" height="48px" viewBox="0 0 48 48" version="1.1">
<g id="surface1">
<path style=" stroke:none;fill-rule:nonzero;fill:rgb(98.431373%,54.901963%,0%);fill-opacity:1;" d="M 7.9375 2.359375 L 39.6875 2.359375 C 40.785156 2.359375 41.671875 3.246094 41.671875 4.34375 L 41.671875 44.03125 C 41.671875 45.128906 40.785156 46.015625 39.6875 46.015625 L 7.9375 46.015625 C 6.839844 46.015625 5.953125 45.128906 5.953125 44.03125 L 5.953125 4.34375 C 5.953125 3.246094 6.839844 2.359375 7.9375 2.359375 Z M 7.9375 2.359375 "/>
<path style=" stroke:none;fill-rule:nonzero;fill:rgb(96.078432%,96.078432%,96.078432%);fill-opacity:1;" d="M 10.914062 3.351562 L 39.6875 3.351562 C 40.234375 3.351562 40.679688 3.796875 40.679688 4.34375 L 40.679688 44.03125 C 40.679688 44.578125 40.234375 45.023438 39.6875 45.023438 L 10.914062 45.023438 C 10.367188 45.023438 9.921875 44.578125 9.921875 44.03125 L 9.921875 4.34375 C 9.921875 3.796875 10.367188 3.351562 10.914062 3.351562 Z M 10.914062 3.351562 "/>
<path style=" stroke:none;fill-rule:nonzero;fill:rgb(100%,65.490198%,14.901961%);fill-opacity:1;" d="M 11.90625 2.359375 L 11.90625 46.015625 L 37.703125 46.015625 C 38.800781 46.015625 39.6875 45.128906 39.6875 44.03125 L 39.6875 4.34375 C 39.6875 3.246094 38.800781 2.359375 37.703125 2.359375 Z M 11.90625 2.359375 "/>
<path style=" stroke:none;fill-rule:nonzero;fill:rgb(25.882354%,25.882354%,25.882354%);fill-opacity:1;" d="M 7.9375 2.359375 C 6.839844 2.359375 5.953125 3.246094 5.953125 4.34375 L 5.953125 44.03125 C 5.953125 45.128906 6.839844 46.015625 7.9375 46.015625 L 11.90625 46.015625 L 11.90625 2.359375 Z M 7.9375 2.359375 "/>
<path style=" stroke:none;fill-rule:nonzero;fill:rgb(38.039216%,38.039216%,38.039216%);fill-opacity:1;" d="M 5.953125 23.195312 L 10.914062 23.195312 L 10.914062 25.179688 L 5.953125 25.179688 Z M 5.953125 23.195312 "/>
<path style=" stroke:none;fill-rule:nonzero;fill:rgb(38.039216%,38.039216%,38.039216%);fill-opacity:1;" d="M 5.953125 12.28125 L 10.914062 12.28125 L 10.914062 14.265625 L 5.953125 14.265625 Z M 5.953125 12.28125 "/>
<path style=" stroke:none;fill-rule:nonzero;fill:rgb(38.039216%,38.039216%,38.039216%);fill-opacity:1;" d="M 5.953125 34.109375 L 10.914062 34.109375 L 10.914062 36.09375 L 5.953125 36.09375 Z M 5.953125 34.109375 "/>
<path style=" stroke:none;fill-rule:nonzero;fill:rgb(25.882354%,25.882354%,25.882354%);fill-opacity:1;" d="M 14.882812 2.359375 L 18.851562 2.359375 L 18.851562 28.15625 L 16.867188 25.179688 L 14.882812 28.15625 Z M 14.882812 2.359375 "/>
<path style=" stroke:none;fill-rule:nonzero;fill:rgb(25.882354%,25.882354%,25.882354%);fill-opacity:1;" d="M 28.441406 29.140625 C 27.503906 30.1875 26.808594 31.402344 26.378906 32.703125 L 28.640625 34.964844 L 28.640625 36.804688 L 26.382812 39.058594 C 26.597656 39.703125 26.882812 40.335938 27.234375 40.945312 C 27.585938 41.558594 27.996094 42.121094 28.445312 42.628906 L 31.523438 41.800781 L 33.121094 42.722656 L 33.945312 45.808594 C 35.289062 46.085938 36.691406 46.09375 38.0625 45.804688 L 38.890625 42.722656 L 40.484375 41.800781 L 43.566406 42.628906 C 44.503906 41.582031 45.199219 40.363281 45.628906 39.0625 L 43.371094 36.804688 L 43.371094 34.964844 L 45.625 32.707031 C 45.410156 32.0625 45.128906 31.433594 44.773438 30.820312 C 44.421875 30.207031 44.015625 29.648438 43.566406 29.140625 L 40.484375 29.964844 L 38.890625 29.042969 L 38.0625 25.957031 C 36.722656 25.679688 35.320312 25.671875 33.945312 25.960938 L 33.121094 29.042969 L 31.523438 29.964844 Z M 28.441406 29.140625 "/>
<path style=" stroke:none;fill-rule:nonzero;fill:rgb(74.117649%,74.117649%,74.117649%);fill-opacity:1;" d="M 36.003906 28.519531 C 40.074219 28.519531 43.371094 31.816406 43.371094 35.882812 C 43.371094 39.953125 40.074219 43.25 36.003906 43.25 C 31.9375 43.25 28.640625 39.953125 28.640625 35.882812 C 28.640625 31.816406 31.9375 28.519531 36.003906 28.519531 Z M 36.003906 28.519531 "/>
<path style=" stroke:none;fill-rule:nonzero;fill:rgb(25.882354%,25.882354%,25.882354%);fill-opacity:1;" d="M 36.003906 30.359375 C 39.054688 30.359375 41.527344 32.832031 41.527344 35.882812 C 41.527344 38.933594 39.054688 41.40625 36.003906 41.40625 C 32.953125 41.40625 30.480469 38.933594 30.480469 35.882812 C 30.480469 32.832031 32.953125 30.359375 36.003906 30.359375 Z M 36.003906 30.359375 "/>
<path style=" stroke:none;fill-rule:nonzero;fill:rgb(74.117649%,74.117649%,74.117649%);fill-opacity:1;" d="M 36.003906 32.199219 C 38.039062 32.199219 39.6875 33.851562 39.6875 35.882812 C 39.6875 37.917969 38.039062 39.566406 36.003906 39.566406 C 33.972656 39.566406 32.324219 37.917969 32.324219 35.882812 C 32.324219 33.851562 33.972656 32.199219 36.003906 32.199219 Z M 36.003906 32.199219 "/>
</g>
</svg>
