<?xml version="1.0" encoding="UTF-8"?>
<svg xmlns="http://www.w3.org/2000/svg" xmlns:xlink="http://www.w3.org/1999/xlink" width="48px" height="48px" viewBox="0 0 48 48" version="1.1">
<g id="surface1">
<path style=" stroke:none;fill-rule:nonzero;fill:rgb(87.843138%,87.843138%,87.843138%);fill-opacity:1;" d="M 23.8125 2.359375 C 18.753906 6.421875 10.894531 6.484375 4.542969 6.480469 C 4.722656 15.320312 7.054688 25.125 10.566406 32.738281 C 12.394531 36.703125 14.542969 40.070312 16.820312 42.402344 C 19.097656 44.734375 21.46875 46.015625 23.8125 46.015625 C 26.15625 46.015625 28.527344 44.734375 30.804688 42.402344 C 33.082031 40.070312 35.230469 36.703125 37.058594 32.738281 C 40.570312 25.125 42.902344 15.320312 43.082031 6.480469 C 36.730469 6.484375 28.871094 6.421875 23.8125 2.359375 Z M 23.8125 2.359375 "/>
<path style=" stroke:none;fill-rule:nonzero;fill:rgb(25.882354%,25.882354%,25.882354%);fill-opacity:1;" d="M 23.8125 6.328125 C 19.644531 9.675781 13.167969 9.726562 7.9375 9.722656 C 8.085938 17.007812 10.007812 25.085938 12.898438 31.355469 C 14.40625 34.621094 16.175781 37.394531 18.050781 39.316406 C 19.929688 41.238281 21.882812 42.292969 23.8125 42.292969 C 25.742188 42.292969 27.695312 41.238281 29.574219 39.316406 C 31.449219 37.394531 33.21875 34.621094 34.726562 31.355469 C 37.617188 25.085938 39.539062 17.007812 39.6875 9.722656 C 34.457031 9.726562 27.980469 9.675781 23.8125 6.328125 Z M 23.8125 6.328125 "/>
<path style=" stroke:none;fill-rule:nonzero;fill:rgb(37.64706%,49.019608%,54.509807%);fill-opacity:1;" d="M 19.867188 15.859375 L 27.757812 15.859375 L 27.757812 40.097656 C 27.757812 42.070312 25.785156 44.042969 23.8125 46.015625 C 21.839844 44.042969 19.867188 42.070312 19.867188 40.097656 Z M 19.867188 15.859375 "/>
<path style=" stroke:none;fill-rule:nonzero;fill:rgb(38.039216%,38.039216%,38.039216%);fill-opacity:1;" d="M 17.894531 14.273438 L 29.730469 14.273438 L 29.730469 15.859375 L 17.894531 15.859375 Z M 17.894531 14.273438 "/>
<path style=" stroke:none;fill-rule:nonzero;fill:rgb(45.882353%,45.882353%,45.882353%);fill-opacity:1;" d="M 16.53125 13.476562 C 17.410156 13.476562 18.117188 14.1875 18.117188 15.066406 C 18.117188 15.941406 17.410156 16.652344 16.53125 16.652344 C 15.65625 16.652344 14.945312 15.941406 14.945312 15.066406 C 14.945312 14.1875 15.65625 13.476562 16.53125 13.476562 Z M 16.53125 13.476562 "/>
<path style=" stroke:none;fill-rule:nonzero;fill:rgb(45.882353%,45.882353%,45.882353%);fill-opacity:1;" d="M 31.097656 13.476562 C 31.976562 13.476562 32.6875 14.1875 32.6875 15.066406 C 32.6875 15.941406 31.976562 16.652344 31.097656 16.652344 C 30.222656 16.652344 29.511719 15.941406 29.511719 15.066406 C 29.511719 14.1875 30.222656 13.476562 31.097656 13.476562 Z M 31.097656 13.476562 "/>
<path style=" stroke:none;fill-rule:nonzero;fill:rgb(47.450981%,33.333334%,28.235295%);fill-opacity:1;" d="M 22.226562 6.335938 L 25.398438 6.335938 L 25.398438 14.273438 L 22.226562 14.273438 Z M 22.226562 6.335938 "/>
<path style=" stroke:none;fill-rule:nonzero;fill:rgb(45.882353%,45.882353%,45.882353%);fill-opacity:1;" d="M 23.8125 2.367188 C 25.128906 2.367188 26.191406 3.433594 26.191406 4.75 C 26.191406 6.0625 25.128906 7.128906 23.8125 7.128906 C 22.496094 7.128906 21.433594 6.0625 21.433594 4.75 C 21.433594 3.433594 22.496094 2.367188 23.8125 2.367188 Z M 23.8125 2.367188 "/>
<path style=" stroke:none;fill-rule:nonzero;fill:rgb(56.470591%,64.313728%,68.235296%);fill-opacity:1;" d="M 19.867188 15.859375 L 19.867188 40.097656 C 19.867188 42.070312 21.839844 44.042969 23.8125 46.015625 L 23.8125 15.859375 Z M 19.867188 15.859375 "/>
<path style=" stroke:none;fill-rule:nonzero;fill:rgb(69.01961%,74.509805%,77.254903%);fill-opacity:1;" d="M 21.433594 15.859375 C 21.433594 17.175781 22.492188 18.238281 23.8125 18.238281 C 25.132812 18.238281 26.191406 17.175781 26.191406 15.859375 Z M 21.433594 15.859375 "/>
<path style=" stroke:none;fill-rule:nonzero;fill:rgb(74.117649%,74.117649%,74.117649%);fill-opacity:1;" d="M 23.074219 2.882812 C 23.488281 2.703125 23.710938 2.90625 23.574219 3.332031 C 23.433594 3.761719 22.984375 4.253906 22.570312 4.433594 C 22.15625 4.613281 21.933594 4.410156 22.074219 3.980469 C 22.214844 3.550781 22.664062 3.058594 23.074219 2.882812 Z M 23.074219 2.882812 "/>
<path style=" stroke:none;fill-rule:nonzero;fill:rgb(74.117649%,74.117649%,74.117649%);fill-opacity:1;" d="M 30.601562 13.851562 C 30.808594 13.761719 30.917969 13.863281 30.847656 14.078125 C 30.777344 14.289062 30.554688 14.535156 30.347656 14.625 C 30.140625 14.710938 30.027344 14.609375 30.097656 14.398438 C 30.167969 14.183594 30.394531 13.9375 30.601562 13.851562 Z M 30.601562 13.851562 "/>
<path style=" stroke:none;fill-rule:nonzero;fill:rgb(74.117649%,74.117649%,74.117649%);fill-opacity:1;" d="M 15.800781 13.851562 C 16.003906 13.761719 16.117188 13.859375 16.046875 14.074219 C 15.980469 14.289062 15.757812 14.535156 15.550781 14.625 C 15.34375 14.71875 15.234375 14.617188 15.300781 14.402344 C 15.371094 14.1875 15.59375 13.941406 15.800781 13.851562 Z M 15.800781 13.851562 "/>
<path style=" stroke:none;fill-rule:nonzero;fill:rgb(55.29412%,43.137255%,38.82353%);fill-opacity:1;" d="M 22.210938 13.476562 L 25.414062 13.476562 C 25.617188 13.476562 25.785156 13.640625 25.785156 13.847656 C 25.785156 14.050781 25.617188 14.214844 25.414062 14.214844 L 22.210938 14.214844 C 22.007812 14.214844 21.839844 14.050781 21.839844 13.847656 C 21.839844 13.640625 22.007812 13.476562 22.210938 13.476562 Z M 22.210938 13.476562 "/>
<path style=" stroke:none;fill-rule:nonzero;fill:rgb(55.29412%,43.137255%,38.82353%);fill-opacity:1;" d="M 22.210938 12.246094 L 25.414062 12.246094 C 25.617188 12.246094 25.785156 12.410156 25.785156 12.613281 C 25.785156 12.820312 25.617188 12.984375 25.414062 12.984375 L 22.210938 12.984375 C 22.007812 12.984375 21.839844 12.820312 21.839844 12.613281 C 21.839844 12.410156 22.007812 12.246094 22.210938 12.246094 Z M 22.210938 12.246094 "/>
<path style=" stroke:none;fill-rule:nonzero;fill:rgb(55.29412%,43.137255%,38.82353%);fill-opacity:1;" d="M 22.210938 11.011719 L 25.414062 11.011719 C 25.617188 11.011719 25.785156 11.175781 25.785156 11.382812 C 25.785156 11.585938 25.617188 11.75 25.414062 11.75 L 22.210938 11.75 C 22.007812 11.75 21.839844 11.585938 21.839844 11.382812 C 21.839844 11.175781 22.007812 11.011719 22.210938 11.011719 Z M 22.210938 11.011719 "/>
<path style=" stroke:none;fill-rule:nonzero;fill:rgb(55.29412%,43.137255%,38.82353%);fill-opacity:1;" d="M 22.210938 9.78125 L 25.414062 9.78125 C 25.617188 9.78125 25.785156 9.945312 25.785156 10.148438 C 25.785156 10.351562 25.617188 10.519531 25.414062 10.519531 L 22.210938 10.519531 C 22.007812 10.519531 21.839844 10.351562 21.839844 10.148438 C 21.839844 9.945312 22.007812 9.78125 22.210938 9.78125 Z M 22.210938 9.78125 "/>
<path style=" stroke:none;fill-rule:nonzero;fill:rgb(55.29412%,43.137255%,38.82353%);fill-opacity:1;" d="M 22.210938 8.546875 L 25.414062 8.546875 C 25.617188 8.546875 25.785156 8.710938 25.785156 8.917969 C 25.785156 9.121094 25.617188 9.285156 25.414062 9.285156 L 22.210938 9.285156 C 22.007812 9.285156 21.839844 9.121094 21.839844 8.917969 C 21.839844 8.710938 22.007812 8.546875 22.210938 8.546875 Z M 22.210938 8.546875 "/>
<path style=" stroke:none;fill-rule:nonzero;fill:rgb(55.29412%,43.137255%,38.82353%);fill-opacity:1;" d="M 22.210938 7.3125 L 25.414062 7.3125 C 25.617188 7.3125 25.785156 7.480469 25.785156 7.683594 C 25.785156 7.886719 25.617188 8.054688 25.414062 8.054688 L 22.210938 8.054688 C 22.007812 8.054688 21.839844 7.886719 21.839844 7.683594 C 21.839844 7.480469 22.007812 7.3125 22.210938 7.3125 Z M 22.210938 7.3125 "/>
</g>
</svg>
