<?xml version="1.0" encoding="UTF-8"?>
<svg xmlns="http://www.w3.org/2000/svg" xmlns:xlink="http://www.w3.org/1999/xlink" width="48px" height="48px" viewBox="0 0 48 48" version="1.1">
<g id="surface1">
<path style=" stroke:none;fill-rule:nonzero;fill:rgb(25.882354%,25.882354%,25.882354%);fill-opacity:1;" d="M 23.8125 2.359375 C 35.867188 2.359375 45.640625 12.132812 45.640625 24.1875 C 45.640625 36.242188 35.867188 46.015625 23.8125 46.015625 C 11.757812 46.015625 1.984375 36.242188 1.984375 24.1875 C 1.984375 12.132812 11.757812 2.359375 23.8125 2.359375 Z M 23.8125 2.359375 "/>
<path style=" stroke:none;fill-rule:nonzero;fill:rgb(93.725491%,32.549021%,31.37255%);fill-opacity:1;" d="M 8.058594 14.265625 C 10.4375 20.652344 16.578125 25.179688 23.8125 25.179688 C 31.046875 25.179688 37.1875 20.652344 39.566406 14.265625 C 34.664062 16.078125 29.359375 17.066406 23.8125 17.066406 C 18.265625 17.066406 12.960938 16.078125 8.058594 14.265625 Z M 8.058594 14.265625 "/>
<path style=" stroke:none;fill-rule:nonzero;fill:rgb(93.725491%,32.549021%,31.37255%);fill-opacity:1;" d="M 23.8125 10.296875 C 31.484375 10.296875 37.703125 16.515625 37.703125 24.1875 C 37.703125 31.859375 31.484375 38.078125 23.8125 38.078125 C 16.140625 38.078125 9.921875 31.859375 9.921875 24.1875 C 9.921875 16.515625 16.140625 10.296875 23.8125 10.296875 Z M 23.8125 10.296875 "/>
<path style=" stroke:none;fill-rule:nonzero;fill:rgb(93.333334%,93.333334%,93.333334%);fill-opacity:1;" d="M 15.558594 21.964844 C 15.132812 22.601562 14.882812 23.363281 14.882812 24.1875 C 14.882812 26.386719 16.652344 28.15625 18.851562 28.15625 C 21.050781 28.15625 22.820312 26.386719 22.820312 24.1875 C 22.820312 24.171875 22.820312 24.15625 22.820312 24.140625 C 22.492188 24.171875 22.164062 24.1875 21.828125 24.1875 C 19.445312 24.1875 17.265625 23.355469 15.558594 21.964844 Z M 15.558594 21.964844 "/>
<path style=" stroke:none;fill-rule:nonzero;fill:rgb(93.333334%,93.333334%,93.333334%);fill-opacity:1;" d="M 32.066406 21.964844 C 32.492188 22.601562 32.742188 23.363281 32.742188 24.1875 C 32.742188 26.386719 30.972656 28.15625 28.773438 28.15625 C 26.574219 28.15625 24.804688 26.386719 24.804688 24.1875 C 24.804688 24.171875 24.804688 24.15625 24.804688 24.140625 C 25.128906 24.171875 25.460938 24.1875 25.796875 24.1875 C 28.179688 24.1875 30.359375 23.355469 32.066406 21.964844 Z M 32.066406 21.964844 "/>
<path style=" stroke:none;fill-rule:nonzero;fill:rgb(25.882354%,25.882354%,25.882354%);fill-opacity:1;" d="M 18.152344 23.488281 C 17.964844 24.015625 17.859375 24.585938 17.859375 25.179688 C 17.859375 26.296875 18.226562 27.328125 18.847656 28.15625 C 18.847656 28.15625 18.851562 28.15625 18.851562 28.15625 C 19.195312 28.15625 19.527344 28.113281 19.84375 28.03125 C 19.875 26.546875 20.441406 25.199219 21.363281 24.175781 C 20.230469 24.125 19.152344 23.886719 18.152344 23.488281 Z M 18.152344 23.488281 "/>
<path style=" stroke:none;fill-rule:nonzero;fill:rgb(25.882354%,25.882354%,25.882354%);fill-opacity:1;" d="M 29.472656 23.488281 C 28.472656 23.886719 27.394531 24.125 26.261719 24.175781 C 27.183594 25.199219 27.75 26.546875 27.78125 28.03125 C 28.097656 28.113281 28.429688 28.15625 28.773438 28.15625 C 28.773438 28.15625 28.777344 28.15625 28.777344 28.15625 C 29.398438 27.328125 29.765625 26.296875 29.765625 25.179688 C 29.765625 24.585938 29.660156 24.015625 29.472656 23.488281 Z M 29.472656 23.488281 "/>
</g>
</svg>
