<?xml version="1.0" encoding="UTF-8"?>
<svg xmlns="http://www.w3.org/2000/svg" xmlns:xlink="http://www.w3.org/1999/xlink" width="48px" height="48px" viewBox="0 0 48 48" version="1.1">
<g id="surface1">
<path style=" stroke:none;fill-rule:nonzero;fill:rgb(14.901961%,65.098041%,60.392159%);fill-opacity:1;" d="M 3.96875 2.359375 L 43.65625 2.359375 C 44.753906 2.359375 45.640625 3.246094 45.640625 4.34375 L 45.640625 44.03125 C 45.640625 45.128906 44.753906 46.015625 43.65625 46.015625 L 3.96875 46.015625 C 2.871094 46.015625 1.984375 45.128906 1.984375 44.03125 L 1.984375 4.34375 C 1.984375 3.246094 2.871094 2.359375 3.96875 2.359375 Z M 3.96875 2.359375 "/>
<path style=" stroke:none;fill-rule:nonzero;fill:rgb(93.333334%,93.333334%,93.333334%);fill-opacity:1;" d="M 10.914062 28.15625 C 10.363281 28.15625 9.921875 28.597656 9.921875 29.148438 L 9.921875 39.070312 C 9.921875 39.621094 10.363281 40.0625 10.914062 40.0625 L 36.710938 40.0625 C 37.261719 40.0625 37.703125 39.621094 37.703125 39.070312 L 37.703125 29.148438 C 37.703125 28.597656 37.261719 28.15625 36.710938 28.15625 Z M 13.394531 32.125 C 14.21875 32.125 14.882812 32.789062 14.882812 33.613281 C 14.882812 34.4375 14.21875 35.101562 13.394531 35.101562 C 12.570312 35.101562 11.90625 34.4375 11.90625 33.613281 C 11.90625 32.789062 12.570312 32.125 13.394531 32.125 Z M 18.355469 32.125 C 19.179688 32.125 19.84375 32.789062 19.84375 33.613281 C 19.84375 34.4375 19.179688 35.101562 18.355469 35.101562 C 17.53125 35.101562 16.867188 34.4375 16.867188 33.613281 C 16.867188 32.789062 17.53125 32.125 18.355469 32.125 Z M 23.8125 32.125 C 24.636719 32.125 25.300781 32.789062 25.300781 33.613281 C 25.300781 34.4375 24.636719 35.101562 23.8125 35.101562 C 22.988281 35.101562 22.324219 34.4375 22.324219 33.613281 C 22.324219 32.789062 22.988281 32.125 23.8125 32.125 Z M 23.8125 32.125 "/>
<path style=" stroke:none;fill-rule:nonzero;fill:rgb(93.333334%,93.333334%,93.333334%);fill-opacity:1;" d="M 22.820312 15.257812 L 24.804688 15.257812 L 24.804688 32.125 L 22.820312 32.125 Z M 22.820312 15.257812 "/>
<path style=" stroke:none;fill-rule:nonzero;fill:rgb(93.333334%,93.333334%,93.333334%);fill-opacity:1;" d="M 33.734375 20.21875 L 35.71875 20.21875 L 35.71875 32.125 L 33.734375 32.125 Z M 33.734375 20.21875 "/>
<path style=" stroke:none;fill-rule:nonzero;fill:rgb(93.333334%,93.333334%,93.333334%);fill-opacity:1;" d="M 11.90625 19.226562 L 13.890625 19.226562 L 13.890625 32.125 L 11.90625 32.125 Z M 11.90625 19.226562 "/>
<path style=" stroke:none;fill-rule:nonzero;fill:rgb(93.333334%,93.333334%,93.333334%);fill-opacity:1;" d="M 23.8125 8.3125 C 21.613281 8.3125 19.84375 10.082031 19.84375 12.28125 C 19.84375 14.480469 21.613281 16.25 23.8125 16.25 C 26.011719 16.25 27.78125 14.480469 27.78125 12.28125 C 27.78125 10.082031 26.011719 8.3125 23.8125 8.3125 Z M 23.8125 10.296875 C 24.910156 10.296875 25.796875 11.183594 25.796875 12.28125 C 25.796875 13.378906 24.910156 14.265625 23.8125 14.265625 C 22.714844 14.265625 21.828125 13.378906 21.828125 12.28125 C 21.828125 11.183594 22.714844 10.296875 23.8125 10.296875 Z M 23.8125 10.296875 "/>
<path style=" stroke:none;fill-rule:nonzero;fill:rgb(93.333334%,93.333334%,93.333334%);fill-opacity:1;" d="M 12.898438 15.257812 C 11.25 15.257812 9.921875 16.585938 9.921875 18.234375 C 9.921875 19.882812 11.25 21.210938 12.898438 21.210938 C 14.546875 21.210938 15.875 19.882812 15.875 18.234375 C 15.875 16.585938 14.546875 15.257812 12.898438 15.257812 Z M 12.898438 17.242188 C 13.449219 17.242188 13.890625 17.683594 13.890625 18.234375 C 13.890625 18.785156 13.449219 19.226562 12.898438 19.226562 C 12.347656 19.226562 11.90625 18.785156 11.90625 18.234375 C 11.90625 17.683594 12.347656 17.242188 12.898438 17.242188 Z M 12.898438 17.242188 "/>
<path style=" stroke:none;fill-rule:nonzero;fill:rgb(93.333334%,93.333334%,93.333334%);fill-opacity:1;" d="M 34.726562 15.257812 C 33.078125 15.257812 31.75 16.585938 31.75 18.234375 C 31.75 19.882812 33.078125 21.210938 34.726562 21.210938 C 36.375 21.210938 37.703125 19.882812 37.703125 18.234375 C 37.703125 16.585938 36.375 15.257812 34.726562 15.257812 Z M 34.726562 17.242188 C 35.277344 17.242188 35.71875 17.683594 35.71875 18.234375 C 35.71875 18.785156 35.277344 19.226562 34.726562 19.226562 C 34.175781 19.226562 33.734375 18.785156 33.734375 18.234375 C 33.734375 17.683594 34.175781 17.242188 34.726562 17.242188 Z M 34.726562 17.242188 "/>
</g>
</svg>
