<?xml version="1.0" encoding="UTF-8"?>
<svg xmlns="http://www.w3.org/2000/svg" xmlns:xlink="http://www.w3.org/1999/xlink" width="48" height="48" viewBox="0 0 48 48" version="1.1">
<g id="surface1">
<path style=" stroke:none;fill-rule:nonzero;fill:rgb(36.078432%,41.960785%,75.294119%);fill-opacity:1;" d="M 39.246094 8.378906 C 41.570312 10.703125 40.316406 15.726562 36.441406 19.601562 C 32.566406 23.476562 27.539062 24.734375 25.214844 22.410156 C 22.890625 20.085938 24.148438 15.058594 28.023438 11.183594 C 31.898438 7.308594 36.921875 6.054688 39.246094 8.378906 Z M 39.246094 8.378906 "/>
<path style=" stroke:none;fill-rule:nonzero;fill:rgb(49.411765%,34.117648%,76.078433%);fill-opacity:1;" d="M 45.640625 23.8125 C 45.640625 27.101562 41.199219 29.765625 35.71875 29.765625 C 30.238281 29.765625 25.796875 27.101562 25.796875 23.8125 C 25.796875 20.523438 30.238281 17.859375 35.71875 17.859375 C 41.199219 17.859375 45.640625 20.523438 45.640625 23.8125 Z M 45.640625 23.8125 "/>
<path style=" stroke:none;fill-rule:nonzero;fill:rgb(92.54902%,25.098041%,47.843137%);fill-opacity:1;" d="M 39.246094 39.246094 C 36.921875 41.570312 31.898438 40.316406 28.023438 36.441406 C 24.148438 32.566406 22.890625 27.539062 25.214844 25.214844 C 27.539062 22.890625 32.566406 24.148438 36.441406 28.023438 C 40.316406 31.898438 41.570312 36.921875 39.246094 39.246094 Z M 39.246094 39.246094 "/>
<path style=" stroke:none;fill-rule:nonzero;fill:rgb(93.725491%,32.549021%,31.37255%);fill-opacity:1;" d="M 23.8125 45.640625 C 20.523438 45.640625 17.859375 41.199219 17.859375 35.71875 C 17.859375 30.238281 20.523438 25.796875 23.8125 25.796875 C 27.101562 25.796875 29.765625 30.238281 29.765625 35.71875 C 29.765625 41.199219 27.101562 45.640625 23.8125 45.640625 Z M 23.8125 45.640625 "/>
<path style=" stroke:none;fill-rule:nonzero;fill:rgb(100%,43.921569%,26.274511%);fill-opacity:1;" d="M 22.410156 25.214844 C 24.734375 27.539062 23.476562 32.566406 19.601562 36.441406 C 15.726562 40.316406 10.703125 41.570312 8.378906 39.246094 C 6.054688 36.921875 7.308594 31.898438 11.183594 28.023438 C 15.058594 24.148438 20.085938 22.890625 22.410156 25.214844 Z M 22.410156 25.214844 "/>
<path style=" stroke:none;fill-rule:nonzero;fill:rgb(100%,65.490198%,14.901961%);fill-opacity:1;" d="M 21.828125 23.8125 C 21.828125 27.101562 17.386719 29.765625 11.90625 29.765625 C 6.425781 29.765625 1.984375 27.101562 1.984375 23.8125 C 1.984375 20.523438 6.425781 17.859375 11.90625 17.859375 C 17.386719 17.859375 21.828125 20.523438 21.828125 23.8125 Z M 21.828125 23.8125 "/>
<path style=" stroke:none;fill-rule:nonzero;fill:rgb(61.176473%,80.000001%,39.607844%);fill-opacity:1;" d="M 22.410156 22.410156 C 20.085938 24.734375 15.058594 23.476562 11.183594 19.601562 C 7.308594 15.726562 6.054688 10.703125 8.378906 8.378906 C 10.703125 6.054688 15.726562 7.308594 19.601562 11.183594 C 23.476562 15.058594 24.734375 20.085938 22.410156 22.410156 Z M 22.410156 22.410156 "/>
<path style=" stroke:none;fill-rule:nonzero;fill:rgb(14.901961%,65.098041%,60.392159%);fill-opacity:1;" d="M 23.8125 21.828125 C 20.523438 21.828125 17.859375 17.386719 17.859375 11.90625 C 17.859375 6.425781 20.523438 1.984375 23.8125 1.984375 C 27.101562 1.984375 29.765625 6.425781 29.765625 11.90625 C 29.765625 17.386719 27.101562 21.828125 23.8125 21.828125 Z M 23.8125 21.828125 "/>
<path style=" stroke:none;fill-rule:nonzero;fill:rgb(36.078432%,41.960785%,75.294119%);fill-opacity:1;" d="M 39.246094 8.378906 C 36.914062 6.046875 31.910156 7.296875 28.023438 11.183594 C 24.136719 15.070312 22.882812 20.078125 25.214844 22.410156 Z M 39.246094 8.378906 "/>
<path style=" stroke:none;fill-rule:nonzero;fill:rgb(93.333334%,93.333334%,93.333334%);fill-opacity:0.996078;" d="M 23.8125 12.898438 C 17.765625 12.898438 12.898438 17.765625 12.898438 23.8125 C 12.898438 29.859375 17.765625 34.726562 23.8125 34.726562 C 29.859375 34.726562 34.726562 29.859375 34.726562 23.8125 C 34.726562 23.476562 34.710938 23.148438 34.679688 22.820312 L 34.726562 22.820312 L 34.726562 15.875 C 34.726562 14.226562 33.398438 12.898438 31.75 12.898438 Z M 23.8125 12.898438 "/>
<path style=" stroke:none;fill-rule:nonzero;fill:rgb(36.078432%,41.960785%,75.294119%);fill-opacity:1;" d="M 29.765625 14.882812 C 31.410156 14.882812 32.742188 16.214844 32.742188 17.859375 C 32.742188 19.503906 31.410156 20.835938 29.765625 20.835938 C 28.121094 20.835938 26.789062 19.503906 26.789062 17.859375 C 26.789062 16.214844 28.121094 14.882812 29.765625 14.882812 Z M 29.765625 14.882812 "/>
</g>
</svg>
