<?xml version="1.0" encoding="UTF-8"?>
<svg xmlns="http://www.w3.org/2000/svg" xmlns:xlink="http://www.w3.org/1999/xlink" width="48px" height="48px" viewBox="0 0 48 48" version="1.1">
<g id="surface1">
<path style=" stroke:none;fill-rule:nonzero;fill:rgb(74.117649%,74.117649%,74.117649%);fill-opacity:1;" d="M 33.238281 44.03125 L 39.6875 37.582031 L 34.726562 37.582031 C 33.902344 37.582031 33.238281 38.246094 33.238281 39.070312 Z M 33.238281 44.03125 "/>
<path style=" stroke:none;fill-rule:nonzero;fill:rgb(49.411765%,34.117648%,76.078433%);fill-opacity:1;" d="M 7.9375 6.328125 L 39.6875 6.328125 C 40.785156 6.328125 41.671875 7.214844 41.671875 8.3125 L 41.671875 44.03125 C 41.671875 45.128906 40.785156 46.015625 39.6875 46.015625 L 7.9375 46.015625 C 6.839844 46.015625 5.953125 45.128906 5.953125 44.03125 L 5.953125 8.3125 C 5.953125 7.214844 6.839844 6.328125 7.9375 6.328125 Z M 7.9375 6.328125 "/>
<path style=" stroke:none;fill-rule:nonzero;fill:rgb(93.333334%,93.333334%,93.333334%);fill-opacity:1;" d="M 8.929688 8.3125 C 8.378906 8.3125 7.9375 8.753906 7.9375 9.304688 L 7.9375 43.039062 C 7.9375 43.589844 8.378906 44.027344 8.929688 44.03125 L 31.75 44.03125 L 39.6875 36.09375 L 39.6875 9.304688 C 39.6875 8.753906 39.246094 8.3125 38.695312 8.3125 Z M 8.929688 8.3125 "/>
<path style=" stroke:none;fill-rule:nonzero;fill:rgb(100%,65.490198%,14.901961%);fill-opacity:1;" d="M 23.8125 2.359375 C 22.164062 2.359375 20.835938 3.6875 20.835938 5.335938 L 12.402344 5.335938 C 11.578125 5.335938 10.914062 6 10.914062 6.824219 L 10.914062 11.289062 L 36.710938 11.289062 L 36.710938 6.824219 C 36.710938 6 36.046875 5.335938 35.222656 5.335938 L 26.789062 5.335938 C 26.789062 3.6875 25.460938 2.359375 23.8125 2.359375 Z M 23.8125 4.34375 C 24.363281 4.34375 24.804688 4.785156 24.804688 5.335938 C 24.804688 5.886719 24.363281 6.328125 23.8125 6.328125 C 23.261719 6.328125 22.820312 5.886719 22.820312 5.335938 C 22.820312 4.785156 23.261719 4.34375 23.8125 4.34375 Z M 23.8125 4.34375 "/>
<path style=" stroke:none;fill-rule:nonzero;fill:rgb(25.882354%,25.882354%,25.882354%);fill-opacity:1;" d="M 14.882812 14.265625 L 32.742188 14.265625 C 33.289062 14.265625 33.734375 14.664062 33.734375 15.160156 L 33.734375 15.355469 C 33.734375 15.851562 33.289062 16.25 32.742188 16.25 L 14.882812 16.25 C 14.335938 16.25 13.890625 15.851562 13.890625 15.355469 L 13.890625 15.160156 C 13.890625 14.664062 14.335938 14.265625 14.882812 14.265625 Z M 14.882812 14.265625 "/>
<path style=" stroke:none;fill-rule:nonzero;fill:rgb(61.960787%,61.960787%,61.960787%);fill-opacity:1;" d="M 17.859375 32.125 L 18.851562 32.125 C 19.398438 32.125 19.84375 32.570312 19.84375 33.117188 C 19.84375 33.664062 19.398438 34.109375 18.851562 34.109375 L 17.859375 34.109375 C 17.3125 34.109375 16.867188 33.664062 16.867188 33.117188 C 16.867188 32.570312 17.3125 32.125 17.859375 32.125 Z M 17.859375 32.125 "/>
<path style=" stroke:none;fill-rule:nonzero;fill:rgb(25.882354%,25.882354%,25.882354%);fill-opacity:1;" d="M 12.898438 26.171875 L 28.773438 26.171875 C 29.320312 26.171875 29.765625 26.585938 29.765625 27.09375 L 29.765625 27.234375 C 29.765625 27.742188 29.320312 28.15625 28.773438 28.15625 L 12.898438 28.15625 C 12.351562 28.15625 11.90625 27.742188 11.90625 27.234375 L 11.90625 27.09375 C 11.90625 26.585938 12.351562 26.171875 12.898438 26.171875 Z M 12.898438 26.171875 "/>
<path style=" stroke:none;fill-rule:nonzero;fill:rgb(61.960787%,61.960787%,61.960787%);fill-opacity:1;" d="M 21.828125 20.21875 L 32.742188 20.21875 C 33.289062 20.21875 33.734375 20.664062 33.734375 21.210938 C 33.734375 21.757812 33.289062 22.203125 32.742188 22.203125 L 21.828125 22.203125 C 21.28125 22.203125 20.835938 21.757812 20.835938 21.210938 C 20.835938 20.664062 21.28125 20.21875 21.828125 20.21875 Z M 21.828125 20.21875 "/>
<path style=" stroke:none;fill-rule:nonzero;fill:rgb(61.960787%,61.960787%,61.960787%);fill-opacity:1;" d="M 22.820312 32.125 L 34.726562 32.125 C 35.273438 32.125 35.71875 32.570312 35.71875 33.117188 C 35.71875 33.664062 35.273438 34.109375 34.726562 34.109375 L 22.820312 34.109375 C 22.273438 34.109375 21.828125 33.664062 21.828125 33.117188 C 21.828125 32.570312 22.273438 32.125 22.820312 32.125 Z M 22.820312 32.125 "/>
<path style=" stroke:none;fill-rule:nonzero;fill:rgb(74.117649%,74.117649%,74.117649%);fill-opacity:1;" d="M 39.6875 36.09375 L 31.75 44.03125 L 38.695312 44.03125 C 39.246094 44.03125 39.6875 43.589844 39.6875 43.039062 Z M 39.6875 36.09375 "/>
<path style=" stroke:none;fill-rule:nonzero;fill:rgb(87.843138%,87.843138%,87.843138%);fill-opacity:1;" d="M 31.75 44.03125 L 39.6875 36.09375 L 32.742188 36.09375 C 32.191406 36.09375 31.75 36.535156 31.75 37.085938 Z M 31.75 44.03125 "/>
</g>
</svg>
