<?xml version="1.0" encoding="UTF-8"?>
<svg xmlns="http://www.w3.org/2000/svg" xmlns:xlink="http://www.w3.org/1999/xlink" width="48px" height="48px" viewBox="0 0 48 48" version="1.1">
<g id="surface1">
<path style=" stroke:none;fill-rule:nonzero;fill:rgb(30.980393%,76.47059%,96.862745%);fill-opacity:1;" d="M 3.96875 4.34375 L 43.65625 4.34375 C 44.753906 4.34375 45.640625 5.230469 45.640625 6.328125 L 45.640625 42.046875 C 45.640625 43.144531 44.753906 44.03125 43.65625 44.03125 L 3.96875 44.03125 C 2.871094 44.03125 1.984375 43.144531 1.984375 42.046875 L 1.984375 6.328125 C 1.984375 5.230469 2.871094 4.34375 3.96875 4.34375 Z M 3.96875 4.34375 "/>
<path style=" stroke:none;fill-rule:nonzero;fill:rgb(25.882354%,25.882354%,25.882354%);fill-opacity:1;" d="M 29.765625 16.25 C 34.148438 16.25 37.703125 19.804688 37.703125 24.1875 C 37.703125 28.570312 34.148438 32.125 29.765625 32.125 C 25.382812 32.125 21.828125 28.570312 21.828125 24.1875 C 21.828125 19.804688 25.382812 16.25 29.765625 16.25 Z M 29.765625 16.25 "/>
<path style=" stroke:none;fill-rule:nonzero;fill:rgb(87.843138%,87.843138%,87.843138%);fill-opacity:1;" d="M 3.96875 4.34375 C 2.871094 4.34375 1.984375 5.230469 1.984375 6.328125 L 1.984375 42.046875 C 1.984375 43.144531 2.871094 44.03125 3.96875 44.03125 L 13.890625 44.03125 L 13.890625 4.34375 Z M 3.96875 4.34375 "/>
<path style=" stroke:none;fill-rule:nonzero;fill:rgb(87.843138%,87.843138%,87.843138%);fill-opacity:1;" d="M 23.101562 21.03125 C 22.90625 21.226562 22.90625 21.539062 23.101562 21.730469 L 28.011719 26.644531 L 29.414062 28.046875 C 29.589844 28.222656 29.863281 28.238281 30.058594 28.097656 C 30.078125 28.082031 30.097656 28.0625 30.117188 28.046875 L 31.519531 26.644531 L 39.585938 18.574219 C 39.78125 18.378906 39.78125 18.066406 39.585938 17.875 L 38.183594 16.46875 C 37.992188 16.277344 37.675781 16.277344 37.484375 16.46875 L 29.765625 24.1875 L 25.207031 19.628906 C 25.011719 19.433594 24.699219 19.433594 24.503906 19.628906 Z M 23.101562 21.03125 "/>
</g>
</svg>
