<?xml version="1.0" encoding="UTF-8"?>
<svg xmlns="http://www.w3.org/2000/svg" xmlns:xlink="http://www.w3.org/1999/xlink" width="48px" height="48px" viewBox="0 0 48 48" version="1.1">
<g id="surface1">
<path style=" stroke:none;fill-rule:nonzero;fill:rgb(74.117649%,74.117649%,74.117649%);fill-opacity:1;" d="M 16.867188 15.257812 C 21.800781 15.257812 25.796875 19.253906 25.796875 24.1875 C 25.796875 29.121094 21.800781 33.117188 16.867188 33.117188 C 11.933594 33.117188 7.9375 29.121094 7.9375 24.1875 C 7.9375 19.253906 11.933594 15.257812 16.867188 15.257812 Z M 16.867188 15.257812 "/>
<path style=" stroke:none;fill-rule:nonzero;fill:rgb(74.117649%,74.117649%,74.117649%);fill-opacity:1;" d="M 30.757812 9.304688 C 37.332031 9.304688 42.664062 14.636719 42.664062 21.210938 C 42.664062 27.785156 37.332031 33.117188 30.757812 33.117188 C 24.183594 33.117188 18.851562 27.785156 18.851562 21.210938 C 18.851562 14.636719 24.183594 9.304688 30.757812 9.304688 Z M 30.757812 9.304688 "/>
<path style=" stroke:none;fill-rule:nonzero;fill:rgb(93.333334%,93.333334%,93.333334%);fill-opacity:1;" d="M 23.8125 17.242188 C 29.839844 17.242188 34.726562 22.128906 34.726562 28.15625 C 34.726562 34.183594 29.839844 39.070312 23.8125 39.070312 C 17.785156 39.070312 12.898438 34.183594 12.898438 28.15625 C 12.898438 22.128906 17.785156 17.242188 23.8125 17.242188 Z M 23.8125 17.242188 "/>
<path style=" stroke:none;fill-rule:nonzero;fill:rgb(93.333334%,93.333334%,93.333334%);fill-opacity:1;" d="M 34.726562 19.226562 C 29.910156 19.226562 25.914062 22.625 25 27.164062 L 17.796875 27.164062 C 16.425781 24.789062 13.863281 23.195312 10.914062 23.195312 C 6.515625 23.195312 2.976562 26.734375 2.976562 31.132812 C 2.976562 35.195312 5.996094 38.523438 9.921875 39.007812 L 9.921875 39.070312 L 35.71875 39.070312 L 35.71875 39.023438 C 40.746094 38.527344 44.648438 34.308594 44.648438 29.148438 C 44.648438 23.652344 40.222656 19.226562 34.726562 19.226562 Z M 34.726562 19.226562 "/>
<path style=" stroke:none;fill-rule:nonzero;fill:rgb(49.411765%,34.117648%,76.078433%);fill-opacity:1;" d="M 20.835938 30.140625 C 21.386719 30.140625 21.828125 29.699219 21.828125 29.148438 L 21.828125 12.28125 L 25.796875 12.28125 L 17.859375 2.359375 L 9.921875 12.28125 L 13.890625 12.28125 L 13.890625 29.148438 C 13.890625 29.699219 14.332031 30.140625 14.882812 30.140625 Z M 20.835938 30.140625 "/>
<path style=" stroke:none;fill-rule:nonzero;fill:rgb(25.882354%,64.705884%,96.078432%);fill-opacity:1;" d="M 32.742188 18.234375 C 33.292969 18.234375 33.734375 18.675781 33.734375 19.226562 L 33.734375 36.09375 L 37.703125 36.09375 L 29.765625 46.015625 L 21.828125 36.09375 L 25.796875 36.09375 L 25.796875 19.226562 C 25.796875 18.675781 26.238281 18.234375 26.789062 18.234375 Z M 32.742188 18.234375 "/>
</g>
</svg>
