<?xml version="1.0" encoding="UTF-8"?>
<svg xmlns="http://www.w3.org/2000/svg" xmlns:xlink="http://www.w3.org/1999/xlink" width="48px" height="48px" viewBox="0 0 48 48" version="1.1">
<g id="surface1">
<path style=" stroke:none;fill-rule:nonzero;fill:rgb(67.058825%,27.843139%,73.725492%);fill-opacity:1;" d="M 3.96875 2.359375 L 43.65625 2.359375 C 44.753906 2.359375 45.640625 3.246094 45.640625 4.34375 L 45.640625 44.03125 C 45.640625 45.128906 44.753906 46.015625 43.65625 46.015625 L 3.96875 46.015625 C 2.871094 46.015625 1.984375 45.128906 1.984375 44.03125 L 1.984375 4.34375 C 1.984375 3.246094 2.871094 2.359375 3.96875 2.359375 Z M 3.96875 2.359375 "/>
<path style=" stroke:none;fill-rule:nonzero;fill:rgb(93.333334%,93.333334%,93.333334%);fill-opacity:1;" d="M 18.253906 16.921875 C 17.925781 16.921875 17.566406 17.023438 17.503906 17.230469 L 13.675781 28.363281 L 13.621094 25.328125 C 13.59375 23.660156 13.546875 21.128906 13.519531 19.695312 L 13.472656 17.101562 L 12.546875 17.144531 C 11.972656 17.167969 11.398438 17.242188 11.046875 17.335938 C 9.347656 17.777344 7.6875 18.894531 6.898438 20.117188 C 6.472656 20.773438 6.335938 21.230469 6.335938 21.929688 C 6.339844 22.582031 6.5 23.003906 6.855469 23.28125 C 7.085938 23.460938 7.6875 23.652344 8.027344 23.652344 L 8.261719 23.652344 L 8.160156 23.378906 C 8.027344 23.003906 8.03125 21.746094 8.171875 21.167969 C 8.339844 20.480469 8.691406 19.851562 9.191406 19.359375 C 9.617188 18.941406 10.25 18.511719 10.605469 18.40625 C 10.765625 18.363281 10.773438 18.382812 10.773438 18.75 C 10.769531 19.566406 10.996094 29.089844 11.039062 29.949219 L 11.082031 30.847656 C 11.300781 31.675781 13.363281 31.675781 13.742188 30.71875 C 13.933594 30.242188 18.773438 17.253906 18.773438 17.226562 C 18.863281 17.023438 18.578125 16.921875 18.253906 16.921875 Z M 31.0625 17.378906 C 30.335938 17.378906 29.332031 17.792969 29.128906 18.417969 C 29.097656 18.453125 28.667969 20.378906 28.175781 22.699219 C 27.683594 25.023438 27.21875 27.164062 27.136719 27.457031 C 26.859375 28.507812 26.390625 29.136719 25.835938 29.210938 C 25.207031 29.296875 24.925781 29.054688 24.929688 28.449219 C 24.929688 28.253906 25.234375 26.6875 25.597656 24.96875 C 25.960938 23.246094 26.261719 21.800781 26.261719 21.757812 C 26.601562 20.792969 23.953125 20.792969 23.636719 21.671875 L 23.585938 22.003906 C 23.53125 22.390625 23.472656 22.414062 23.339844 22.117188 C 23.183594 21.765625 22.742188 21.601562 21.949219 21.601562 C 20.773438 21.601562 20.039062 21.933594 19.160156 22.882812 C 18.113281 24.007812 17.492188 25.476562 17.292969 27.308594 C 17.007812 29.894531 18.410156 31.414062 20.484375 30.777344 C 21.039062 30.601562 21.707031 30.140625 22.113281 29.644531 L 22.398438 29.296875 L 22.515625 29.6875 C 22.683594 30.222656 22.847656 30.453125 23.230469 30.679688 C 23.882812 31.0625 25.042969 30.96875 25.886719 30.460938 C 26.101562 30.332031 26.449219 30.035156 26.660156 29.808594 L 27.039062 29.390625 L 27.167969 29.75 C 27.5 30.695312 28.46875 31.097656 29.722656 30.816406 C 30.417969 30.664062 30.957031 30.351562 31.527344 29.777344 L 31.984375 29.308594 L 32.121094 29.625 C 32.328125 30.078125 32.675781 30.453125 33.117188 30.683594 C 33.445312 30.855469 33.582031 30.878906 34.1875 30.882812 C 34.828125 30.882812 34.933594 30.867188 35.394531 30.644531 C 35.765625 30.46875 36.046875 30.253906 36.441406 29.859375 C 36.972656 29.320312 36.976562 29.3125 37.019531 29.511719 C 37.269531 30.667969 38.238281 31.15625 39.585938 30.8125 C 40.226562 30.640625 40.480469 30.5 40.980469 29.964844 C 41.457031 29.46875 41.308594 28.292969 41.015625 28.734375 C 40.734375 29.179688 40.621094 29.234375 40.179688 29.234375 C 39.695312 29.234375 39.476562 29.007812 39.476562 28.519531 C 39.476562 28.242188 40.253906 24.359375 40.792969 21.949219 L 40.855469 21.671875 C 41.015625 20.792969 38.367188 20.792969 38.191406 21.707031 L 38.058594 22.488281 L 37.925781 22.183594 C 37.714844 21.71875 37.320312 21.578125 36.328125 21.609375 C 35.613281 21.632812 35.5 21.660156 34.996094 21.898438 C 33.316406 22.699219 32.078125 24.859375 31.839844 27.421875 C 31.765625 28.1875 31.746094 28.25 31.511719 28.542969 C 31.230469 28.878906 30.738281 29.160156 30.417969 29.160156 C 30.3125 29.160156 30.109375 29.113281 29.972656 29.054688 C 29.773438 28.972656 29.710938 28.894531 29.671875 28.691406 C 29.609375 28.355469 29.609375 28.335938 30.804688 22.773438 C 31.359375 20.167969 31.8125 18.03125 31.804688 18.019531 C 31.917969 17.570312 31.554688 17.378906 31.0625 17.378906 Z M 22.558594 22.699219 C 22.898438 22.699219 23.253906 23.027344 23.253906 23.34375 C 23.253906 23.746094 22.367188 27.726562 22.195312 28.097656 C 21.992188 28.539062 21.703125 28.839844 21.308594 29.023438 C 20.953125 29.183594 20.714844 29.191406 20.445312 29.046875 C 19.992188 28.796875 19.863281 28.050781 20.054688 26.753906 C 20.273438 25.261719 20.761719 24.054688 21.453125 23.300781 C 21.851562 22.859375 22.152344 22.699219 22.558594 22.699219 Z M 37.042969 22.699219 C 37.378906 22.699219 37.621094 22.839844 37.742188 23.101562 C 37.851562 23.324219 37.832031 23.453125 37.378906 25.566406 C 37.074219 27.015625 36.835938 27.9375 36.71875 28.1875 C 36.351562 28.941406 35.539062 29.347656 34.996094 29.054688 C 34.609375 28.84375 34.46875 28.222656 34.566406 27.167969 C 34.785156 24.8125 35.957031 22.699219 37.042969 22.699219 Z M 37.042969 22.699219 "/>
</g>
</svg>
