<?xml version="1.0" encoding="UTF-8"?>
<svg xmlns="http://www.w3.org/2000/svg" xmlns:xlink="http://www.w3.org/1999/xlink" width="48px" height="48px" viewBox="0 0 48 48" version="1.1">
<g id="surface1">
<path style=" stroke:none;fill-rule:nonzero;fill:rgb(87.843138%,87.843138%,87.843138%);fill-opacity:1;" d="M 23.8125 2.359375 C 35.867188 2.359375 45.640625 12.132812 45.640625 24.1875 C 45.640625 36.242188 35.867188 46.015625 23.8125 46.015625 C 11.757812 46.015625 1.984375 36.242188 1.984375 24.1875 C 1.984375 12.132812 11.757812 2.359375 23.8125 2.359375 Z M 23.8125 2.359375 "/>
<path style=" stroke:none;fill-rule:nonzero;fill:rgb(25.882354%,64.705884%,96.078432%);fill-opacity:1;" d="M 23.8125 4.34375 C 34.773438 4.34375 43.65625 13.226562 43.65625 24.1875 C 43.65625 35.148438 34.773438 44.03125 23.8125 44.03125 C 12.851562 44.03125 3.96875 35.148438 3.96875 24.1875 C 3.96875 13.226562 12.851562 4.34375 23.8125 4.34375 Z M 23.8125 4.34375 "/>
<path style=" stroke:none;fill-rule:nonzero;fill:rgb(87.843138%,87.843138%,87.843138%);fill-opacity:1;" d="M 11.886719 11.109375 C 11.730469 11.109375 11.574219 11.167969 11.453125 11.289062 L 10.914062 11.828125 C 10.675781 12.066406 10.675781 12.453125 10.914062 12.691406 L 22.328125 24.105469 C 22.367188 23.347656 22.972656 22.742188 23.730469 22.703125 L 12.316406 11.289062 C 12.199219 11.167969 12.042969 11.109375 11.886719 11.109375 Z M 25.296875 24.269531 C 25.257812 25.027344 24.652344 25.632812 23.894531 25.671875 L 24.082031 25.859375 C 24.320312 26.101562 24.707031 26.101562 24.945312 25.859375 L 25.484375 25.320312 C 25.726562 25.082031 25.726562 24.695312 25.484375 24.457031 Z M 25.296875 24.269531 "/>
<path style=" stroke:none;fill-rule:nonzero;fill:rgb(87.843138%,87.843138%,87.843138%);fill-opacity:0.995763;" d="M 19.429688 41.503906 L 18.949219 41.375 C 18.816406 41.339844 18.738281 41.203125 18.773438 41.070312 L 22.753906 26.214844 C 22.789062 26.082031 22.925781 26.003906 23.058594 26.039062 L 23.539062 26.167969 C 23.671875 26.203125 23.75 26.339844 23.714844 26.472656 L 19.734375 41.328125 C 19.699219 41.460938 19.5625 41.539062 19.429688 41.503906 Z M 19.429688 41.503906 "/>
<path style=" stroke:none;fill-rule:nonzero;fill:rgb(87.843138%,87.843138%,87.843138%);fill-opacity:1;" d="M 34.894531 14.515625 C 34.769531 14.511719 34.644531 14.550781 34.539062 14.628906 L 25.035156 21.472656 C 24.664062 21.304688 24.25 21.210938 23.8125 21.210938 C 22.164062 21.210938 20.835938 22.539062 20.835938 24.1875 C 20.835938 25.835938 22.164062 27.164062 23.8125 27.164062 C 25.460938 27.164062 26.789062 25.835938 26.789062 24.1875 C 26.789062 24.085938 26.785156 23.988281 26.773438 23.886719 L 36.277344 17.042969 C 36.542969 16.851562 36.605469 16.480469 36.410156 16.214844 L 35.363281 14.761719 C 35.25 14.601562 35.074219 14.519531 34.894531 14.515625 Z M 23.8125 22.699219 C 24.636719 22.699219 25.300781 23.363281 25.300781 24.1875 C 25.300781 25.011719 24.636719 25.675781 23.8125 25.675781 C 22.988281 25.675781 22.324219 25.011719 22.324219 24.1875 C 22.324219 23.363281 22.988281 22.699219 23.8125 22.699219 Z M 23.8125 22.699219 "/>
</g>
</svg>
