<?xml version="1.0" encoding="UTF-8"?>
<svg xmlns="http://www.w3.org/2000/svg" xmlns:xlink="http://www.w3.org/1999/xlink" width="48px" height="48px" viewBox="0 0 48 48" version="1.1">
<defs>
<linearGradient id="linear0" gradientUnits="userSpaceOnUse" x1="169.333328" y1="233.5" x2="169.333328" y2="-168.666656" gradientTransform="matrix(0.107843,0,0,0.108562,-3.350764,20.145357)">
<stop offset="0" style="stop-color:rgb(25.882354%,64.705884%,96.078432%);stop-opacity:1;"/>
<stop offset="1" style="stop-color:rgb(39.215687%,70.980394%,96.470588%);stop-opacity:1;"/>
</linearGradient>
</defs>
<g id="surface1">
<path style=" stroke:none;fill-rule:nonzero;fill:rgb(25.882354%,25.882354%,25.882354%);fill-opacity:1;" d="M 5.953125 4.34375 L 41.671875 4.34375 C 42.769531 4.34375 43.65625 5.230469 43.65625 6.328125 L 43.65625 42.046875 C 43.65625 43.144531 42.769531 44.03125 41.671875 44.03125 L 5.953125 44.03125 C 4.855469 44.03125 3.96875 43.144531 3.96875 42.046875 L 3.96875 6.328125 C 3.96875 5.230469 4.855469 4.34375 5.953125 4.34375 Z M 5.953125 4.34375 "/>
<path style=" stroke:none;fill-rule:nonzero;fill:url(#linear0);" d="M 3.96875 2.359375 C 2.871094 2.359375 1.984375 3.246094 1.984375 4.34375 L 1.984375 44.03125 C 1.984375 45.128906 2.871094 46.015625 3.96875 46.015625 L 43.65625 46.015625 C 44.753906 46.015625 45.640625 45.128906 45.640625 44.03125 L 45.640625 4.34375 C 45.640625 3.246094 44.753906 2.359375 43.65625 2.359375 Z M 6.945312 6.328125 L 40.679688 6.328125 C 41.230469 6.328125 41.671875 6.769531 41.671875 7.320312 L 41.671875 41.054688 C 41.671875 41.605469 41.230469 42.046875 40.679688 42.046875 L 21.828125 42.046875 C 21.773438 41.96875 21.714844 41.882812 21.65625 41.800781 C 21.039062 40.722656 19.636719 38.644531 18.589844 37.972656 C 18.589844 37.972656 18.589844 37.910156 17.550781 37.910156 C 17.492188 37.167969 17.675781 36.566406 17.859375 35.761719 C 17.859375 35.15625 18.285156 35.492188 18.410156 34.148438 C 18.71875 33.011719 18.59375 33.679688 18.839844 32.539062 C 19.082031 32.003906 19.207031 31.464844 19.207031 30.589844 C 20.121094 30.925781 21.957031 30.859375 22.753906 30.589844 L 22.9375 30.726562 C 23.1875 30.792969 23.242188 30.390625 23.425781 30.328125 C 24.832031 29.519531 25.324219 28.109375 26.484375 27.976562 C 26.484375 27.976562 27.101562 27.640625 28.015625 27.976562 C 28.382812 27.976562 28.691406 28.042969 28.691406 27.640625 C 28.75 27.035156 28.75 26.566406 29.058594 26.160156 C 29.300781 27.773438 29.972656 29.585938 31.199219 31.332031 L 32.421875 30.394531 C 31.261719 28.851562 30.527344 27.105469 30.402344 25.09375 C 30.460938 25.226562 30.527344 25.359375 30.648438 25.492188 C 31.078125 25.492188 31.320312 24.488281 31.8125 24.554688 C 31.871094 24.421875 32 23.816406 32.121094 23.34375 L 36.707031 23.34375 L 38.355469 22.945312 L 38.355469 22.003906 L 37.132812 21.871094 L 37.132812 20.796875 L 36.828125 20.796875 L 36.828125 19.589844 L 36.09375 19.589844 L 36.09375 20.730469 L 34.195312 20.59375 L 34.195312 19.859375 L 33.464844 19.859375 L 33.464844 20.527344 L 31.507812 20.328125 L 31.507812 19.320312 L 30.769531 19.320312 L 30.769531 20.261719 L 27.890625 20.058594 L 27.890625 19.726562 L 27.894531 19.726562 L 27.886719 19.714844 L 25.746094 19.714844 L 25.746094 19.113281 L 24.589844 19.113281 L 24.589844 19.449219 C 24.460938 19.515625 24.339844 19.652344 24.21875 19.714844 L 24.097656 19.714844 C 22.074219 17.972656 21.953125 21.53125 20.605469 20.722656 C 20.484375 19.984375 20.542969 19.3125 20.542969 18.441406 C 22.871094 18.375 22.011719 17.699219 21.34375 16.828125 C 21.101562 16.492188 20.976562 15.957031 20.914062 15.621094 C 20.519531 14.035156 19.238281 12.890625 17.324219 12.902344 C 16.570312 12.902344 15.726562 13.082031 14.796875 13.476562 C 12.652344 14.347656 13.207031 17.503906 13.390625 19.652344 C 13.269531 19.851562 13.019531 19.785156 12.835938 19.785156 C 10.511719 19.917969 9.472656 22.601562 8.984375 24.753906 C 9.105469 26.699219 8.859375 28.847656 8.554688 30.722656 C 8.246094 32.601562 7.632812 34.078125 7.574219 35.890625 C 7.453125 37.5 8.003906 39.378906 7.878906 40.855469 C 7.753906 41.269531 7.632812 41.660156 7.511719 42.046875 L 6.945312 42.046875 C 6.394531 42.046875 5.953125 41.605469 5.953125 41.054688 L 5.953125 7.320312 C 5.953125 6.769531 6.394531 6.328125 6.945312 6.328125 Z M 21.1875 23.242188 C 21.480469 23.242188 21.648438 23.34375 21.648438 23.34375 C 22.378906 23.207031 23.050781 23.410156 24.21875 23.34375 C 24.03125 25.558594 22.5625 24.617188 20.972656 25.824219 C 20.542969 25.757812 20.054688 25.757812 19.382812 25.757812 C 19.261719 24.28125 19.75 24.015625 19.992188 23.746094 C 20.484375 23.34375 20.898438 23.242188 21.1875 23.242188 Z M 21.1875 23.242188 "/>
</g>
</svg>
