<?xml version="1.0" encoding="UTF-8"?>
<svg xmlns="http://www.w3.org/2000/svg" xmlns:xlink="http://www.w3.org/1999/xlink" width="48px" height="48px" viewBox="0 0 48 48" version="1.1">
<g id="surface1">
<path style=" stroke:none;fill-rule:nonzero;fill:rgb(25.882354%,25.882354%,25.882354%);fill-opacity:1;" d="M 3.96875 2.359375 L 43.65625 2.359375 C 44.753906 2.359375 45.640625 3.246094 45.640625 4.34375 L 45.640625 44.03125 C 45.640625 45.128906 44.753906 46.015625 43.65625 46.015625 L 3.96875 46.015625 C 2.871094 46.015625 1.984375 45.128906 1.984375 44.03125 L 1.984375 4.34375 C 1.984375 3.246094 2.871094 2.359375 3.96875 2.359375 Z M 3.96875 2.359375 "/>
<path style=" stroke:none;fill-rule:nonzero;fill:rgb(38.039216%,38.039216%,38.039216%);fill-opacity:1;" d="M 3.96875 2.359375 C 3.886719 2.359375 3.804688 2.363281 3.722656 2.375 L 2.015625 5.335938 L 12.898438 5.335938 L 11.179688 2.359375 Z M 12.898438 5.335938 L 7.457031 14.761719 L 18.339844 14.761719 Z M 18.339844 14.761719 L 12.898438 24.1875 L 23.78125 24.1875 Z M 12.898438 24.1875 Z M 12.898438 24.1875 L 7.457031 14.761719 L 2.015625 24.1875 Z M 12.867188 24.1875 L 7.425781 33.613281 L 18.308594 33.613281 Z M 7.425781 33.613281 Z M 7.425781 33.613281 L 1.984375 24.1875 L 1.984375 33.613281 Z M 7.410156 33.613281 L 1.984375 43.011719 L 1.984375 43.039062 L 12.851562 43.039062 Z M 7.457031 14.761719 L 2.015625 5.335938 L 1.984375 5.386719 L 1.984375 14.761719 Z M 2.015625 5.335938 L 1.984375 5.285156 L 1.984375 5.335938 Z M 2.015625 5.335938 Z M 7.457031 14.761719 Z M 14.675781 2.359375 L 12.957031 5.335938 L 23.84375 5.335938 L 22.125 2.359375 Z M 23.84375 5.335938 Z M 23.84375 5.335938 L 18.402344 14.761719 L 29.285156 14.761719 Z M 29.285156 14.761719 Z M 29.285156 14.761719 L 40.167969 14.761719 L 34.726562 5.335938 Z M 34.726562 5.335938 L 33.007812 2.359375 L 25.5625 2.359375 L 23.84375 5.335938 Z M 40.167969 14.761719 L 34.726562 24.1875 L 45.609375 24.1875 Z M 34.726562 24.1875 Z M 34.726562 24.1875 L 29.285156 14.761719 L 23.84375 24.1875 Z M 34.695312 24.1875 L 29.253906 33.613281 L 40.136719 33.613281 Z M 29.253906 33.613281 Z M 29.253906 33.613281 L 23.8125 24.1875 L 18.371094 33.613281 Z M 29.238281 33.613281 L 23.796875 43.039062 L 34.679688 43.039062 Z M 23.796875 43.039062 Z M 23.796875 43.039062 L 18.355469 33.613281 L 12.914062 43.039062 Z M 36.488281 2.359375 L 34.773438 5.335938 L 45.640625 5.335938 L 45.640625 5.308594 L 43.949219 2.378906 C 43.855469 2.367188 43.757812 2.359375 43.65625 2.359375 Z M 45.640625 5.363281 L 40.214844 14.761719 L 45.640625 14.761719 Z M 45.625 24.1875 L 40.183594 33.613281 L 45.640625 33.613281 L 45.640625 24.214844 Z M 40.167969 33.613281 L 34.726562 43.039062 L 45.609375 43.039062 Z M 45.609375 43.039062 Z M 45.609375 43.039062 L 45.640625 43.039062 L 45.640625 42.988281 Z M 2.058594 43.039062 L 1.984375 43.167969 L 1.984375 44.03125 C 1.984375 45.0625 2.765625 45.90625 3.773438 46.007812 Z M 12.945312 43.039062 L 11.226562 46.015625 L 14.660156 46.015625 Z M 23.886719 43.039062 L 22.167969 46.015625 L 25.605469 46.015625 Z M 34.773438 43.039062 L 33.054688 46.015625 L 36.488281 46.015625 Z M 45.640625 43.144531 L 44 45.984375 C 44.933594 45.824219 45.640625 45.011719 45.640625 44.03125 Z M 45.640625 43.144531 "/>
<path style=" stroke:none;fill-rule:nonzero;fill:rgb(100%,87.843138%,50.980395%);fill-opacity:1;" d="M 4.960938 16.25 L 4.960938 32.125 L 19.671875 32.125 L 22.820312 28.15625 L 22.820312 20.21875 L 19.914062 16.25 L 9.921875 16.25 L 12.898438 20.21875 L 18.851562 20.21875 L 18.851562 28.15625 L 8.929688 28.15625 L 8.929688 16.25 Z M 4.960938 16.25 "/>
<path style=" stroke:none;fill-rule:nonzero;fill:rgb(100%,87.843138%,50.980395%);fill-opacity:1;" d="M 27.710938 16.25 L 24.804688 20.21875 L 24.804688 22.203125 L 26.316406 24.109375 L 24.804688 26.171875 L 24.804688 28.15625 L 27.953125 32.125 L 42.664062 32.125 L 42.664062 28.15625 L 28.773438 28.15625 L 28.773438 20.21875 L 42.664062 20.21875 L 42.664062 16.25 Z M 42.664062 22.203125 L 28.773438 22.203125 L 31.75 26.171875 L 42.664062 26.171875 Z M 42.664062 22.203125 "/>
<path style=" stroke:none;fill-rule:nonzero;fill:rgb(100%,65.490198%,14.901961%);fill-opacity:1;" d="M 4.960938 24.1875 L 4.960938 32.125 L 19.671875 32.125 L 22.820312 28.15625 L 22.820312 24.1875 L 18.851562 24.1875 L 18.851562 28.15625 L 8.929688 28.15625 L 8.929688 24.1875 Z M 4.960938 24.1875 "/>
<path style=" stroke:none;fill-rule:nonzero;fill:rgb(100%,65.490198%,14.901961%);fill-opacity:1;" d="M 26.257812 24.1875 L 24.804688 26.171875 L 24.804688 28.15625 L 27.953125 32.125 L 42.664062 32.125 L 42.664062 28.15625 L 28.773438 28.15625 L 28.773438 24.1875 Z M 30.261719 24.1875 L 31.75 26.171875 L 42.664062 26.171875 L 42.664062 24.1875 Z M 30.261719 24.1875 "/>
</g>
</svg>
