
<svg xmlns="http://www.w3.org/2000/svg" xmlns:xlink="http://www.w3.org/1999/xlink" width="48px" height="48px" viewBox="0 0 48 48" version="1.1">
<g id="surface1">
<path style=" stroke:none;fill-rule:nonzero;fill:rgb(25.882354%,25.882354%,25.882354%);fill-opacity:1;" d="M 3.96875 1.984375 L 43.65625 1.984375 C 44.753906 1.984375 45.640625 2.871094 45.640625 3.96875 L 45.640625 43.65625 C 45.640625 44.753906 44.753906 45.640625 43.65625 45.640625 L 3.96875 45.640625 C 2.871094 45.640625 1.984375 44.753906 1.984375 43.65625 L 1.984375 3.96875 C 1.984375 2.871094 2.871094 1.984375 3.96875 1.984375 Z M 3.96875 1.984375 "/>
<path style=" stroke:none;fill-rule:nonzero;fill:rgb(100%,65.490198%,14.901961%);fill-opacity:1;" d="M 34.726562 24.804688 C 33.570312 24.785156 32.46875 25.074219 31.621094 25.753906 C 30.773438 26.4375 30.253906 27.53125 30.253906 28.773438 C 30.253906 30.09375 31.03125 31.109375 31.890625 31.65625 C 32.75 32.203125 33.691406 32.453125 34.402344 32.691406 C 35.179688 32.949219 35.972656 33.195312 36.480469 33.515625 C 36.984375 33.835938 37.199219 34.0625 37.199219 34.726562 C 37.199219 35.46875 36.972656 35.867188 36.578125 36.183594 C 36.183594 36.5 35.542969 36.710938 34.714844 36.710938 C 33.890625 36.710938 33.214844 36.492188 32.804688 36.207031 C 32.394531 35.921875 32.234375 35.636719 32.234375 35.222656 C 32.242188 34.863281 32.050781 34.53125 31.742188 34.351562 C 31.433594 34.171875 31.054688 34.171875 30.742188 34.351562 C 30.433594 34.53125 30.246094 34.863281 30.253906 35.222656 C 30.253906 36.296875 30.835938 37.25 31.667969 37.832031 C 32.5 38.414062 33.558594 38.695312 34.714844 38.695312 C 35.875 38.695312 36.96875 38.410156 37.816406 37.734375 C 38.664062 37.054688 39.179688 35.964844 39.179688 34.726562 C 39.179688 33.402344 38.402344 32.390625 37.542969 31.84375 C 36.683594 31.296875 35.742188 31.046875 35.03125 30.808594 C 34.253906 30.550781 33.460938 30.304688 32.953125 29.980469 C 32.449219 29.660156 32.234375 29.433594 32.234375 28.773438 C 32.234375 28.03125 32.46875 27.617188 32.863281 27.300781 C 33.261719 26.980469 33.890625 26.773438 34.699219 26.789062 C 34.703125 26.789062 34.710938 26.789062 34.714844 26.789062 C 35.542969 26.789062 36.21875 27.003906 36.628906 27.289062 C 37.039062 27.578125 37.199219 27.863281 37.199219 28.277344 C 37.191406 28.632812 37.378906 28.964844 37.6875 29.148438 C 38 29.328125 38.378906 29.328125 38.6875 29.148438 C 38.996094 28.964844 39.1875 28.632812 39.179688 28.277344 C 39.179688 27.203125 38.597656 26.246094 37.765625 25.664062 C 36.9375 25.085938 35.878906 24.804688 34.726562 24.804688 Z M 34.726562 24.804688 "/>
<path style=" stroke:none;fill-rule:nonzero;fill:rgb(25.882354%,64.705884%,96.078432%);fill-opacity:1;" d="M 22.324219 24.804688 C 20.675781 24.804688 19.347656 26.132812 19.347656 27.78125 L 19.347656 35.71875 C 19.347656 37.367188 20.675781 38.695312 22.324219 38.695312 L 25.300781 38.695312 C 26.949219 38.695312 28.277344 37.367188 28.277344 35.71875 L 28.277344 27.78125 C 28.277344 26.132812 26.949219 24.804688 25.300781 24.804688 Z M 22.324219 26.789062 L 25.300781 26.789062 C 25.851562 26.789062 26.292969 27.230469 26.292969 27.78125 L 26.292969 35.71875 C 26.292969 36.269531 25.851562 36.710938 25.300781 36.710938 L 22.324219 36.710938 C 21.773438 36.710938 21.332031 36.269531 21.332031 35.71875 L 21.332031 27.78125 C 21.332031 27.230469 21.773438 26.789062 22.324219 26.789062 Z M 22.324219 26.789062 "/>
<path style=" stroke:none;fill-rule:nonzero;fill:rgb(93.725491%,32.549021%,31.37255%);fill-opacity:1;" d="M 9.425781 24.804688 C 8.875 24.804688 8.433594 25.246094 8.433594 25.796875 L 8.433594 37.703125 C 8.433594 37.738281 8.433594 37.769531 8.4375 37.804688 C 8.441406 37.820312 8.441406 37.839844 8.445312 37.855469 C 8.515625 38.332031 8.925781 38.695312 9.425781 38.695312 L 14.386719 38.695312 C 16.035156 38.695312 17.363281 37.367188 17.363281 35.71875 L 17.363281 27.78125 C 17.363281 26.132812 16.035156 24.804688 14.386719 24.804688 Z M 10.417969 26.789062 L 14.386719 26.789062 C 14.9375 26.789062 15.378906 27.230469 15.378906 27.78125 L 15.378906 35.71875 C 15.378906 36.269531 14.9375 36.710938 14.386719 36.710938 L 10.417969 36.710938 Z M 10.417969 26.789062 "/>
<path style=" stroke:none;fill-rule:nonzero;fill:rgb(93.333334%,93.333334%,93.333334%);fill-opacity:1;" d="M 30.261719 7.441406 C 28.824219 7.441406 27.5 7.867188 26.492188 8.640625 C 25.488281 9.410156 24.804688 10.582031 24.804688 11.90625 C 24.804688 13.238281 25.554688 14.34375 26.546875 15.042969 C 27.542969 15.738281 28.78125 16.136719 30.09375 16.386719 C 31.246094 16.601562 32.242188 16.953125 32.863281 17.378906 C 33.480469 17.804688 33.734375 18.191406 33.734375 18.851562 C 33.734375 19.511719 33.425781 20.078125 32.820312 20.546875 C 32.210938 21.011719 31.304688 21.332031 30.261719 21.332031 C 29.21875 21.332031 28.3125 21.011719 27.703125 20.546875 C 27.097656 20.078125 26.789062 19.511719 26.789062 18.851562 L 26.789062 18.777344 C 26.789062 18.542969 26.566406 18.355469 26.292969 18.355469 L 25.300781 18.355469 C 25.027344 18.355469 24.804688 18.542969 24.804688 18.777344 L 24.804688 18.851562 C 24.804688 18.867188 24.804688 18.878906 24.804688 18.894531 L 24.804688 18.925781 C 24.804688 18.933594 24.804688 18.941406 24.804688 18.949219 C 24.839844 20.234375 25.511719 21.367188 26.492188 22.117188 C 27.5 22.890625 28.824219 23.316406 30.261719 23.316406 C 31.699219 23.316406 33.023438 22.890625 34.027344 22.117188 C 35.035156 21.347656 35.71875 20.175781 35.71875 18.851562 C 35.71875 17.527344 34.976562 16.425781 33.988281 15.742188 C 33 15.0625 31.773438 14.683594 30.464844 14.433594 C 29.320312 14.21875 28.320312 13.859375 27.6875 13.414062 C 27.054688 12.972656 26.789062 12.558594 26.789062 11.90625 C 26.789062 11.246094 27.097656 10.679688 27.703125 10.210938 C 28.3125 9.746094 29.21875 9.425781 30.261719 9.425781 C 31.304688 9.425781 32.210938 9.746094 32.820312 10.210938 C 33.425781 10.679688 33.734375 11.246094 33.734375 11.90625 L 33.734375 11.980469 C 33.734375 12.214844 33.957031 12.402344 34.230469 12.402344 L 35.222656 12.402344 C 35.496094 12.402344 35.71875 12.214844 35.71875 11.980469 L 35.71875 11.90625 C 35.71875 11.894531 35.71875 11.882812 35.71875 11.875 L 35.71875 11.832031 C 35.71875 11.824219 35.71875 11.8125 35.71875 11.804688 C 35.683594 10.523438 35.007812 9.390625 34.027344 8.640625 C 33.023438 7.867188 31.699219 7.441406 30.261719 7.441406 Z M 30.261719 7.441406 "/>
<path style=" stroke:none;fill-rule:nonzero;fill:rgb(93.333334%,93.333334%,93.333334%);fill-opacity:1;" d="M 12.898438 7.589844 C 12.351562 7.589844 11.90625 8.035156 11.90625 8.582031 L 11.90625 16.023438 C 11.90625 16.027344 11.90625 16.035156 11.90625 16.039062 L 11.90625 22.96875 C 11.90625 23.242188 12.128906 23.464844 12.402344 23.464844 L 13.394531 23.464844 C 13.667969 23.464844 13.890625 23.242188 13.890625 22.96875 L 13.890625 16.054688 C 13.890625 16.046875 13.890625 16.035156 13.890625 16.023438 L 13.890625 11.960938 L 16.527344 16.066406 C 16.710938 16.347656 17.027344 16.519531 17.363281 16.519531 C 17.703125 16.519531 18.015625 16.347656 18.199219 16.066406 L 20.835938 11.960938 L 20.835938 16.023438 C 20.835938 16.027344 20.835938 16.035156 20.835938 16.039062 L 20.835938 22.96875 C 20.835938 23.242188 21.058594 23.464844 21.332031 23.464844 L 22.324219 23.464844 C 22.597656 23.464844 22.820312 23.242188 22.820312 22.96875 L 22.820312 16.054688 C 22.820312 16.046875 22.820312 16.035156 22.820312 16.023438 L 22.820312 8.582031 C 22.820312 8.140625 22.53125 7.753906 22.109375 7.628906 C 21.6875 7.507812 21.230469 7.675781 20.992188 8.046875 L 17.363281 13.691406 L 13.734375 8.046875 C 13.550781 7.761719 13.234375 7.589844 12.898438 7.589844 Z M 12.898438 7.589844 "/>
</g>
</svg>
