
<svg xmlns="http://www.w3.org/2000/svg" xmlns:xlink="http://www.w3.org/1999/xlink" width="48px" height="48px" viewBox="0 0 48 48" version="1.1">
<defs>
<filter id="alpha" filterUnits="objectBoundingBox" x="0%" y="0%" width="100%" height="100%">
  <feColorMatrix type="matrix" in="SourceGraphic" values="0 0 0 0 1 0 0 0 0 1 0 0 0 0 1 0 0 0 1 0"/>
</filter>
<mask id="mask0">
  <g filter="url(#alpha)">
<rect x="0" y="0" width="48" height="48" style="fill:rgb(0%,0%,0%);fill-opacity:0.986432;stroke:none;"/>
  </g>
</mask>
<clipPath id="clip1">
  <rect x="0" y="0" width="48" height="48"/>
</clipPath>
<g id="surface5" clip-path="url(#clip1)">
<path style=" stroke:none;fill-rule:nonzero;fill:rgb(36.078432%,41.960785%,75.294119%);fill-opacity:1;" d="M 11.90625 3.96875 L 35.71875 3.96875 C 36.816406 3.96875 37.703125 4.855469 37.703125 5.953125 L 37.703125 21.828125 C 37.703125 22.925781 36.816406 23.8125 35.71875 23.8125 L 11.90625 23.8125 C 10.808594 23.8125 9.921875 22.925781 9.921875 21.828125 L 9.921875 5.953125 C 9.921875 4.855469 10.808594 3.96875 11.90625 3.96875 Z M 11.90625 3.96875 "/>
</g>
<mask id="mask1">
  <g filter="url(#alpha)">
<rect x="0" y="0" width="48" height="48" style="fill:rgb(0%,0%,0%);fill-opacity:0.99;stroke:none;"/>
  </g>
</mask>
<clipPath id="clip2">
  <rect x="0" y="0" width="48" height="48"/>
</clipPath>
<g id="surface8" clip-path="url(#clip2)">
<path style=" stroke:none;fill-rule:nonzero;fill:rgb(38.039216%,38.039216%,38.039216%);fill-opacity:1;" d="M 9.921875 14.882812 L 37.703125 14.882812 C 38.25 14.882812 38.695312 15.214844 38.695312 15.625 L 38.695312 24.0625 C 38.695312 24.472656 38.25 24.804688 37.703125 24.804688 L 9.921875 24.804688 C 9.375 24.804688 8.929688 24.472656 8.929688 24.0625 L 8.929688 15.625 C 8.929688 15.214844 9.375 14.882812 9.921875 14.882812 Z M 9.921875 14.882812 "/>
</g>
<mask id="mask2">
  <g filter="url(#alpha)">
<rect x="0" y="0" width="48" height="48" style="fill:rgb(0%,0%,0%);fill-opacity:0.966;stroke:none;"/>
  </g>
</mask>
<clipPath id="clip3">
  <rect x="0" y="0" width="48" height="48"/>
</clipPath>
<g id="surface11" clip-path="url(#clip3)">
<path style=" stroke:none;fill-rule:nonzero;fill:rgb(25.882354%,25.882354%,25.882354%);fill-opacity:1;" d="M 10.417969 15.625 L 38.695312 15.625 L 38.695312 16.371094 L 10.417969 16.371094 Z M 10.417969 15.625 "/>
</g>
<mask id="mask3">
  <g filter="url(#alpha)">
<rect x="0" y="0" width="48" height="48" style="fill:rgb(0%,0%,0%);fill-opacity:0.98;stroke:none;"/>
  </g>
</mask>
<clipPath id="clip4">
  <rect x="0" y="0" width="48" height="48"/>
</clipPath>
<g id="surface14" clip-path="url(#clip4)">
<path style=" stroke:none;fill-rule:nonzero;fill:rgb(45.882353%,45.882353%,45.882353%);fill-opacity:1;" d="M 9.425781 35.71875 L 38.199219 35.71875 C 38.472656 35.71875 38.695312 35.773438 38.695312 35.84375 L 38.695312 36.585938 C 38.695312 36.65625 38.472656 36.710938 38.199219 36.710938 L 9.425781 36.710938 C 9.152344 36.710938 8.929688 36.65625 8.929688 36.585938 L 8.929688 35.84375 C 8.929688 35.773438 9.152344 35.71875 9.425781 35.71875 Z M 9.425781 35.71875 "/>
</g>
<mask id="mask4">
  <g filter="url(#alpha)">
<rect x="0" y="0" width="48" height="48" style="fill:rgb(0%,0%,0%);fill-opacity:0.98;stroke:none;"/>
  </g>
</mask>
<clipPath id="clip5">
  <rect x="0" y="0" width="48" height="48"/>
</clipPath>
<g id="surface17" clip-path="url(#clip5)">
<path style=" stroke:none;fill-rule:nonzero;fill:rgb(45.882353%,45.882353%,45.882353%);fill-opacity:1;" d="M 19.84375 28.773438 L 19.84375 40.679688 L 27.78125 40.679688 L 27.78125 28.773438 Z M 19.84375 28.773438 "/>
</g>
<mask id="mask5">
  <g filter="url(#alpha)">
<rect x="0" y="0" width="48" height="48" style="fill:rgb(0%,0%,0%);fill-opacity:0.99;stroke:none;"/>
  </g>
</mask>
<clipPath id="clip6">
  <rect x="0" y="0" width="48" height="48"/>
</clipPath>
<g id="surface20" clip-path="url(#clip6)">
<path style=" stroke:none;fill-rule:nonzero;fill:rgb(38.039216%,38.039216%,38.039216%);fill-opacity:1;" d="M 23.734375 21.828125 L 23.890625 21.828125 C 32.066406 21.828125 38.695312 22.496094 38.695312 23.316406 L 38.695312 24.308594 C 38.695312 25.128906 32.066406 25.796875 23.890625 25.796875 L 23.734375 25.796875 C 15.558594 25.796875 8.929688 25.128906 8.929688 24.308594 L 8.929688 23.316406 C 8.929688 22.496094 15.558594 21.828125 23.734375 21.828125 Z M 23.734375 21.828125 "/>
</g>
<mask id="mask6">
  <g filter="url(#alpha)">
<rect x="0" y="0" width="48" height="48" style="fill:rgb(0%,0%,0%);fill-opacity:0.966;stroke:none;"/>
  </g>
</mask>
<clipPath id="clip7">
  <rect x="0" y="0" width="48" height="48"/>
</clipPath>
<g id="surface23" clip-path="url(#clip7)">
<path style=" stroke:none;fill-rule:nonzero;fill:rgb(24.705882%,31.764707%,70.980394%);fill-opacity:1;" d="M 8.929688 31.007812 L 9.425781 30.757812 L 12.402344 30.757812 L 8.929688 30.261719 Z M 8.929688 31.007812 "/>
</g>
<mask id="mask7">
  <g filter="url(#alpha)">
<rect x="0" y="0" width="48" height="48" style="fill:rgb(0%,0%,0%);fill-opacity:0.966;stroke:none;"/>
  </g>
</mask>
<clipPath id="clip8">
  <rect x="0" y="0" width="48" height="48"/>
</clipPath>
<g id="surface26" clip-path="url(#clip8)">
<path style=" stroke:none;fill-rule:nonzero;fill:rgb(24.705882%,31.764707%,70.980394%);fill-opacity:1;" d="M 38.695312 31.007812 L 38.199219 30.757812 L 35.222656 30.757812 L 38.695312 30.261719 Z M 38.695312 31.007812 "/>
</g>
<mask id="mask8">
  <g filter="url(#alpha)">
<rect x="0" y="0" width="48" height="48" style="fill:rgb(0%,0%,0%);fill-opacity:0.99;stroke:none;"/>
  </g>
</mask>
<clipPath id="clip9">
  <rect x="0" y="0" width="48" height="48"/>
</clipPath>
<g id="surface29" clip-path="url(#clip9)">
<path style=" stroke:none;fill-rule:nonzero;fill:rgb(61.960787%,61.960787%,61.960787%);fill-opacity:1;" d="M 10.167969 16.867188 C 10.308594 16.867188 10.417969 16.976562 10.417969 17.117188 L 10.417969 23.5625 C 10.417969 23.703125 10.308594 23.8125 10.167969 23.8125 C 10.03125 23.8125 9.921875 23.703125 9.921875 23.5625 L 9.921875 17.117188 C 9.921875 16.976562 10.03125 16.867188 10.167969 16.867188 Z M 10.167969 16.867188 "/>
</g>
<mask id="mask9">
  <g filter="url(#alpha)">
<rect x="0" y="0" width="48" height="48" style="fill:rgb(0%,0%,0%);fill-opacity:0.99;stroke:none;"/>
  </g>
</mask>
<clipPath id="clip10">
  <rect x="0" y="0" width="48" height="48"/>
</clipPath>
<g id="surface32" clip-path="url(#clip10)">
<path style=" stroke:none;fill-rule:nonzero;fill:rgb(25.882354%,25.882354%,25.882354%);fill-opacity:1;" d="M 37.457031 16.867188 C 37.59375 16.867188 37.703125 16.976562 37.703125 17.117188 L 37.703125 23.5625 C 37.703125 23.703125 37.59375 23.8125 37.457031 23.8125 C 37.316406 23.8125 37.207031 23.703125 37.207031 23.5625 L 37.207031 17.117188 C 37.207031 16.976562 37.316406 16.867188 37.457031 16.867188 Z M 37.457031 16.867188 "/>
</g>
<mask id="mask10">
  <g filter="url(#alpha)">
<rect x="0" y="0" width="48" height="48" style="fill:rgb(0%,0%,0%);fill-opacity:0.99;stroke:none;"/>
  </g>
</mask>
<clipPath id="clip11">
  <rect x="0" y="0" width="48" height="48"/>
</clipPath>
<g id="surface35" clip-path="url(#clip11)">
<path style=" stroke:none;fill-rule:nonzero;fill:rgb(61.960787%,61.960787%,61.960787%);fill-opacity:1;" d="M 8.929688 23.8125 L 8.929688 24.375 C 8.929688 25.199219 15.53125 25.863281 23.734375 25.863281 L 23.890625 25.863281 C 32.09375 25.863281 38.695312 25.199219 38.695312 24.375 L 38.695312 23.8125 C 38.695312 24.636719 32.09375 25.300781 23.890625 25.300781 L 23.734375 25.300781 C 15.53125 25.300781 8.929688 24.636719 8.929688 23.8125 Z M 8.929688 23.8125 "/>
</g>
<mask id="mask11">
  <g filter="url(#alpha)">
<rect x="0" y="0" width="48" height="48" style="fill:rgb(0%,0%,0%);fill-opacity:0.986432;stroke:none;"/>
  </g>
</mask>
<clipPath id="clip12">
  <rect x="0" y="0" width="48" height="48"/>
</clipPath>
<g id="surface38" clip-path="url(#clip12)">
<path style=" stroke:none;fill-rule:nonzero;fill:rgb(47.450981%,52.549022%,79.607844%);fill-opacity:1;" d="M 23.8125 4.960938 C 30.386719 4.960938 35.71875 5.183594 35.71875 5.457031 C 35.71875 5.730469 30.386719 5.953125 23.8125 5.953125 C 17.238281 5.953125 11.90625 5.730469 11.90625 5.457031 C 11.90625 5.183594 17.238281 4.960938 23.8125 4.960938 Z M 23.8125 4.960938 "/>
</g>
<mask id="mask12">
  <g filter="url(#alpha)">
<rect x="0" y="0" width="48" height="48" style="fill:rgb(0%,0%,0%);fill-opacity:0.986432;stroke:none;"/>
  </g>
</mask>
<clipPath id="clip13">
  <rect x="0" y="0" width="48" height="48"/>
</clipPath>
<g id="surface41" clip-path="url(#clip13)">
<path style=" stroke:none;fill-rule:nonzero;fill:rgb(87.843138%,87.843138%,87.843138%);fill-opacity:1;" d="M 32.789062 26.480469 C 33.199219 26.445312 33.535156 26.472656 33.539062 26.539062 C 33.546875 26.609375 33.21875 26.691406 32.808594 26.730469 C 32.402344 26.765625 32.0625 26.738281 32.058594 26.671875 C 32.050781 26.601562 32.378906 26.519531 32.789062 26.480469 Z M 32.789062 26.480469 "/>
</g>
<mask id="mask13">
  <g filter="url(#alpha)">
<rect x="0" y="0" width="48" height="48" style="fill:rgb(0%,0%,0%);fill-opacity:0.986432;stroke:none;"/>
  </g>
</mask>
<clipPath id="clip14">
  <rect x="0" y="0" width="48" height="48"/>
</clipPath>
<g id="surface44" clip-path="url(#clip14)">
<path style=" stroke:none;fill-rule:nonzero;fill:rgb(87.843138%,87.843138%,87.843138%);fill-opacity:1;" d="M 14.90625 26.476562 C 14.496094 26.441406 14.160156 26.46875 14.15625 26.535156 C 14.148438 26.605469 14.476562 26.6875 14.886719 26.722656 C 15.296875 26.761719 15.632812 26.734375 15.636719 26.664062 C 15.644531 26.597656 15.316406 26.511719 14.90625 26.476562 Z M 14.90625 26.476562 "/>
</g>
</defs>
<g id="surface1">
<path style=" stroke:none;fill-rule:nonzero;fill:rgb(61.960787%,61.960787%,61.960787%);fill-opacity:1;" d="M 12.898438 25.054688 L 34.726562 25.054688 L 34.726562 25.796875 L 12.898438 25.796875 Z M 12.898438 25.054688 "/>
<path style=" stroke:none;fill-rule:nonzero;fill:rgb(74.117649%,74.117649%,74.117649%);fill-opacity:1;" d="M 8.929688 1.984375 L 38.695312 1.984375 C 39.242188 1.984375 39.6875 2.429688 39.6875 2.976562 L 39.6875 37.207031 C 39.6875 37.753906 39.242188 38.199219 38.695312 38.199219 L 8.929688 38.199219 C 8.382812 38.199219 7.9375 37.753906 7.9375 37.207031 L 7.9375 2.976562 C 7.9375 2.429688 8.382812 1.984375 8.929688 1.984375 Z M 8.929688 1.984375 "/>
<use xlink:href="#surface5" mask="url(#mask0)"/>
<path style=" stroke:none;fill-rule:nonzero;fill:rgb(25.882354%,25.882354%,25.882354%);fill-opacity:1;" d="M 9.921875 37.703125 L 12.898438 37.703125 C 13.445312 37.703125 13.890625 38.148438 13.890625 38.695312 L 13.890625 44.648438 C 13.890625 45.195312 13.445312 45.640625 12.898438 45.640625 L 9.921875 45.640625 C 9.375 45.640625 8.929688 45.195312 8.929688 44.648438 L 8.929688 38.695312 C 8.929688 38.148438 9.375 37.703125 9.921875 37.703125 Z M 9.921875 37.703125 "/>
<path style=" stroke:none;fill-rule:nonzero;fill:rgb(25.882354%,25.882354%,25.882354%);fill-opacity:1;" d="M 34.726562 37.703125 L 37.703125 37.703125 C 38.25 37.703125 38.695312 38.148438 38.695312 38.695312 L 38.695312 44.648438 C 38.695312 45.195312 38.25 45.640625 37.703125 45.640625 L 34.726562 45.640625 C 34.179688 45.640625 33.734375 45.195312 33.734375 44.648438 L 33.734375 38.695312 C 33.734375 38.148438 34.179688 37.703125 34.726562 37.703125 Z M 34.726562 37.703125 "/>
<path style=" stroke:none;fill-rule:nonzero;fill:rgb(61.960787%,61.960787%,61.960787%);fill-opacity:1;" d="M 9.425781 41.175781 L 38.695312 41.175781 C 38.96875 41.175781 39.191406 41.398438 39.191406 41.671875 L 39.191406 42.664062 C 39.191406 42.9375 38.96875 43.160156 38.695312 43.160156 L 9.425781 43.160156 C 9.152344 43.160156 8.929688 42.9375 8.929688 42.664062 L 8.929688 41.671875 C 8.929688 41.398438 9.152344 41.175781 9.425781 41.175781 Z M 9.425781 41.175781 "/>
<path style=" stroke:none;fill-rule:nonzero;fill:rgb(36.078432%,41.960785%,75.294119%);fill-opacity:1;" d="M 9.921875 11.90625 L 37.703125 11.90625 C 38.25 11.90625 38.695312 12.351562 38.695312 12.898438 L 38.695312 40.679688 C 38.695312 41.226562 38.25 41.671875 37.703125 41.671875 L 9.921875 41.671875 C 9.375 41.671875 8.929688 41.226562 8.929688 40.679688 L 8.929688 12.898438 C 8.929688 12.351562 9.375 11.90625 9.921875 11.90625 Z M 9.921875 11.90625 "/>
<path style=" stroke:none;fill-rule:nonzero;fill:rgb(25.882354%,25.882354%,25.882354%);fill-opacity:1;" d="M 4.960938 16.867188 L 6.945312 16.867188 C 7.492188 16.867188 7.9375 17.3125 7.9375 17.859375 L 7.9375 22.820312 C 7.9375 23.367188 7.492188 23.8125 6.945312 23.8125 L 4.960938 23.8125 C 4.414062 23.8125 3.96875 23.367188 3.96875 22.820312 L 3.96875 17.859375 C 3.96875 17.3125 4.414062 16.867188 4.960938 16.867188 Z M 4.960938 16.867188 "/>
<path style=" stroke:none;fill-rule:nonzero;fill:rgb(25.882354%,25.882354%,25.882354%);fill-opacity:1;" d="M 40.679688 16.867188 L 42.664062 16.867188 C 43.210938 16.867188 43.65625 17.3125 43.65625 17.859375 L 43.65625 22.820312 C 43.65625 23.367188 43.210938 23.8125 42.664062 23.8125 L 40.679688 23.8125 C 40.132812 23.8125 39.6875 23.367188 39.6875 22.820312 L 39.6875 17.859375 C 39.6875 17.3125 40.132812 16.867188 40.679688 16.867188 Z M 40.679688 16.867188 "/>
<use xlink:href="#surface8" mask="url(#mask1)"/>
<use xlink:href="#surface11" mask="url(#mask2)"/>
<path style=" stroke:none;fill-rule:nonzero;fill:rgb(38.039216%,38.039216%,38.039216%);fill-opacity:1;" d="M 8.679688 36.460938 C 8.660156 36.542969 8.652344 36.625 8.652344 36.710938 L 8.652344 41.671875 C 8.652344 42.222656 9.09375 42.664062 9.644531 42.664062 L 37.980469 42.664062 C 38.53125 42.664062 38.972656 42.222656 38.972656 41.671875 L 38.972656 36.710938 C 38.972656 36.625 38.964844 36.542969 38.941406 36.460938 C 38.832031 36.890625 38.445312 37.207031 37.980469 37.207031 L 9.644531 37.207031 C 9.179688 37.207031 8.792969 36.890625 8.679688 36.460938 Z M 8.679688 36.460938 "/>
<use xlink:href="#surface14" mask="url(#mask3)"/>
<path style=" stroke:none;fill-rule:nonzero;fill:rgb(96.078432%,96.078432%,96.078432%);fill-opacity:1;" d="M 38.449219 36.464844 L 34.230469 36.464844 C 33.957031 36.464844 33.734375 36.683594 33.734375 36.960938 L 33.734375 38.449219 C 33.734375 38.722656 33.957031 38.945312 34.230469 38.945312 L 38.449219 38.945312 C 38.722656 38.945312 38.945312 38.722656 38.945312 38.449219 L 38.945312 36.960938 C 38.945312 36.683594 38.722656 36.464844 38.449219 36.464844 Z M 38.449219 36.464844 "/>
<path style=" stroke:none;fill-rule:nonzero;fill:rgb(100%,43.921569%,26.274511%);fill-opacity:1;" d="M 38.945312 36.957031 L 38.199219 37.332031 L 38.199219 38.941406 L 38.941406 38.941406 Z M 38.945312 36.957031 "/>
<path style=" stroke:none;fill-rule:nonzero;fill:rgb(61.960787%,61.960787%,61.960787%);fill-opacity:1;" d="M 37.953125 37.453125 L 37.453125 37.949219 L 36.960938 38.941406 L 37.953125 38.941406 Z M 37.953125 37.453125 "/>
<path style=" stroke:none;fill-rule:nonzero;fill:rgb(74.117649%,74.117649%,74.117649%);fill-opacity:1;" d="M 37.953125 37.453125 L 37.453125 37.949219 L 37.453125 38.445312 L 37.953125 38.199219 Z M 37.953125 37.453125 "/>
<path style=" stroke:none;fill-rule:nonzero;fill:rgb(74.117649%,74.117649%,74.117649%);fill-opacity:1;" d="M 38.945312 36.464844 L 33.734375 36.464844 L 33.734375 36.710938 L 38.945312 36.710938 Z M 38.945312 36.464844 "/>
<path style=" stroke:none;fill-rule:nonzero;fill:rgb(87.843138%,87.843138%,87.843138%);fill-opacity:1;" d="M 38.199219 37.453125 L 38.199219 37.332031 L 35.59375 37.949219 L 38.199219 37.578125 Z M 38.199219 37.453125 "/>
<path style=" stroke:none;fill-rule:nonzero;fill:rgb(96.078432%,96.078432%,96.078432%);fill-opacity:1;" d="M 9.175781 36.464844 L 13.394531 36.464844 C 13.667969 36.464844 13.890625 36.683594 13.890625 36.960938 L 13.890625 38.449219 C 13.890625 38.722656 13.667969 38.945312 13.394531 38.945312 L 9.175781 38.945312 C 8.902344 38.945312 8.679688 38.722656 8.679688 38.449219 L 8.679688 36.960938 C 8.679688 36.683594 8.902344 36.464844 9.175781 36.464844 Z M 9.175781 36.464844 "/>
<path style=" stroke:none;fill-rule:nonzero;fill:rgb(100%,43.921569%,26.274511%);fill-opacity:1;" d="M 8.679688 36.957031 L 9.425781 37.332031 L 9.425781 38.941406 L 8.683594 38.941406 Z M 8.679688 36.957031 "/>
<path style=" stroke:none;fill-rule:nonzero;fill:rgb(61.960787%,61.960787%,61.960787%);fill-opacity:1;" d="M 9.671875 37.453125 L 10.171875 37.953125 L 10.664062 38.941406 L 9.671875 38.941406 Z M 9.671875 37.453125 "/>
<path style=" stroke:none;fill-rule:nonzero;fill:rgb(74.117649%,74.117649%,74.117649%);fill-opacity:1;" d="M 9.671875 37.453125 L 10.171875 37.953125 L 10.171875 38.445312 L 9.671875 38.199219 Z M 9.671875 37.453125 "/>
<path style=" stroke:none;fill-rule:nonzero;fill:rgb(74.117649%,74.117649%,74.117649%);fill-opacity:1;" d="M 8.679688 36.464844 L 13.890625 36.464844 L 13.890625 36.710938 L 8.679688 36.710938 Z M 8.679688 36.464844 "/>
<path style=" stroke:none;fill-rule:nonzero;fill:rgb(87.843138%,87.843138%,87.843138%);fill-opacity:1;" d="M 9.425781 37.453125 L 9.425781 37.332031 L 12.03125 37.953125 L 9.425781 37.578125 Z M 9.425781 37.453125 "/>
<path style=" stroke:none;fill-rule:nonzero;fill:rgb(74.117649%,74.117649%,74.117649%);fill-opacity:1;" d="M 8.679688 38.199219 C 8.660156 38.277344 8.652344 38.363281 8.652344 38.449219 L 8.652344 38.941406 C 8.652344 38.859375 8.660156 38.773438 8.679688 38.695312 C 8.792969 39.125 9.179688 39.441406 9.644531 39.441406 L 37.980469 39.441406 C 38.445312 39.441406 38.832031 39.125 38.941406 38.695312 C 38.964844 38.773438 38.972656 38.859375 38.972656 38.941406 L 38.972656 38.449219 C 38.972656 38.363281 38.964844 38.277344 38.941406 38.199219 C 38.832031 38.628906 38.445312 38.941406 37.980469 38.941406 L 9.644531 38.941406 C 9.179688 38.941406 8.792969 38.628906 8.679688 38.199219 Z M 8.679688 38.199219 "/>
<path style=" stroke:none;fill-rule:nonzero;fill:rgb(25.882354%,25.882354%,25.882354%);fill-opacity:1;" d="M 13.890625 23.632812 C 13.210938 23.632812 12.675781 24.207031 12.722656 24.882812 L 13.714844 39.765625 C 13.753906 40.382812 14.265625 40.859375 14.882812 40.859375 L 32.742188 40.859375 C 33.359375 40.859375 33.871094 40.382812 33.910156 39.765625 L 34.902344 24.882812 C 34.949219 24.207031 34.414062 23.632812 33.734375 23.632812 Z M 13.890625 23.632812 "/>
<use xlink:href="#surface17" mask="url(#mask4)"/>
<use xlink:href="#surface20" mask="url(#mask5)"/>
<path style=" stroke:none;fill-rule:nonzero;fill:rgb(62.352943%,65.882355%,85.490197%);fill-opacity:1;" d="M 9.054688 13.890625 L 38.695312 13.890625 C 38.832031 13.890625 38.941406 14 38.941406 14.140625 L 38.941406 15.378906 C 38.941406 15.515625 38.832031 15.628906 38.695312 15.628906 L 9.054688 15.628906 C 8.917969 15.628906 8.804688 15.515625 8.804688 15.378906 L 8.804688 14.140625 C 8.804688 14 8.917969 13.890625 9.054688 13.890625 Z M 9.054688 13.890625 "/>
<path style=" stroke:none;fill-rule:nonzero;fill:rgb(36.078432%,41.960785%,75.294119%);fill-opacity:1;" d="M 8.433594 29.765625 L 12.402344 30.261719 L 12.898438 35.71875 L 8.433594 35.71875 Z M 8.433594 29.765625 "/>
<path style=" stroke:none;fill-rule:nonzero;fill:rgb(62.352943%,65.882355%,85.490197%);fill-opacity:1;" d="M 8.929688 34.480469 L 9.671875 34.726562 L 12.898438 35.222656 L 8.929688 35.222656 Z M 8.929688 34.480469 "/>
<use xlink:href="#surface23" mask="url(#mask6)"/>
<path style=" stroke:none;fill-rule:nonzero;fill:rgb(25.882354%,25.882354%,25.882354%);fill-opacity:1;" d="M 8.929688 30.261719 L 9.671875 30.757812 L 9.671875 34.726562 L 8.929688 35.222656 Z M 8.929688 30.261719 "/>
<path style=" stroke:none;fill-rule:nonzero;fill:rgb(36.078432%,41.960785%,75.294119%);fill-opacity:1;" d="M 39.191406 29.765625 L 35.222656 30.261719 L 34.726562 35.71875 L 39.191406 35.71875 Z M 39.191406 29.765625 "/>
<path style=" stroke:none;fill-rule:nonzero;fill:rgb(62.352943%,65.882355%,85.490197%);fill-opacity:1;" d="M 38.695312 34.480469 L 37.953125 34.726562 L 34.726562 35.222656 L 38.695312 35.222656 Z M 38.695312 34.480469 "/>
<use xlink:href="#surface26" mask="url(#mask7)"/>
<path style=" stroke:none;fill-rule:nonzero;fill:rgb(25.882354%,25.882354%,25.882354%);fill-opacity:1;" d="M 38.695312 30.261719 L 37.953125 30.757812 L 37.953125 34.726562 L 38.695312 35.222656 Z M 38.695312 30.261719 "/>
<path style=" stroke:none;fill-rule:nonzero;fill:rgb(61.960787%,61.960787%,61.960787%);fill-opacity:1;" d="M 12.949219 28.277344 L 12.996094 29.019531 L 34.628906 29.019531 L 34.675781 28.277344 Z M 13.097656 30.507812 L 13.144531 31.253906 L 34.480469 31.253906 L 34.527344 30.507812 Z M 13.246094 32.742188 L 13.296875 33.484375 L 34.328125 33.484375 L 34.378906 32.742188 Z M 13.394531 34.972656 L 13.445312 35.71875 L 34.179688 35.71875 L 34.230469 34.972656 Z M 13.542969 37.207031 L 13.59375 37.949219 L 34.03125 37.949219 L 34.082031 37.207031 Z M 13.691406 39.4375 L 13.714844 39.765625 C 13.722656 39.914062 13.761719 40.054688 13.820312 40.183594 L 33.804688 40.183594 C 33.863281 40.054688 33.902344 39.914062 33.910156 39.765625 L 33.933594 39.4375 Z M 13.691406 39.4375 "/>
<path style=" stroke:none;fill-rule:nonzero;fill:rgb(36.078432%,41.960785%,75.294119%);fill-opacity:1;" d="M 23.8125 9.921875 C 31.484375 9.921875 37.703125 10.808594 37.703125 11.90625 C 37.703125 13.003906 31.484375 13.890625 23.8125 13.890625 C 16.140625 13.890625 9.921875 13.003906 9.921875 11.90625 C 9.921875 10.808594 16.140625 9.921875 23.8125 9.921875 Z M 23.8125 9.921875 "/>
<path style=" stroke:none;fill-rule:nonzero;fill:rgb(47.450981%,52.549022%,79.607844%);fill-opacity:1;" d="M 23.8125 12.402344 C 31.484375 12.402344 37.703125 12.570312 37.703125 12.773438 C 37.703125 12.980469 31.484375 13.144531 23.8125 13.144531 C 16.140625 13.144531 9.921875 12.980469 9.921875 12.773438 C 9.921875 12.570312 16.140625 12.402344 23.8125 12.402344 Z M 23.8125 12.402344 "/>
<path style=" stroke:none;fill-rule:nonzero;fill:rgb(22.352941%,28.627452%,67.058825%);fill-opacity:1;" d="M 23.8125 9.921875 C 22.433594 9.921875 21.101562 9.949219 19.84375 10.003906 L 19.84375 12.152344 C 19.84375 12.292969 19.953125 12.402344 20.089844 12.402344 L 27.53125 12.402344 C 27.671875 12.402344 27.78125 12.292969 27.78125 12.152344 L 27.78125 10.003906 C 26.523438 9.949219 25.191406 9.921875 23.8125 9.921875 Z M 16.371094 10.230469 C 15.851562 10.277344 15.351562 10.328125 14.882812 10.382812 L 14.882812 12.152344 C 14.882812 12.292969 14.964844 12.402344 15.070312 12.402344 L 16.183594 12.402344 C 16.289062 12.402344 16.371094 12.292969 16.371094 12.152344 Z M 31.253906 10.230469 L 31.253906 12.152344 C 31.253906 12.292969 31.363281 12.402344 31.5 12.402344 L 32.492188 12.402344 C 32.632812 12.402344 32.742188 12.292969 32.742188 12.152344 L 32.742188 10.382812 C 32.273438 10.328125 31.773438 10.277344 31.253906 10.230469 Z M 31.253906 10.230469 "/>
<path style=" stroke:none;fill-rule:nonzero;fill:rgb(62.352943%,65.882355%,85.490197%);fill-opacity:1;" d="M 23.8125 9.425781 C 16.117188 9.425781 9.921875 10.3125 9.921875 11.410156 C 9.921875 11.496094 9.957031 11.578125 10.027344 11.65625 C 10.878906 10.675781 16.707031 9.921875 23.8125 9.921875 C 30.917969 9.921875 36.746094 10.675781 37.597656 11.65625 C 37.667969 11.578125 37.703125 11.496094 37.703125 11.410156 C 37.703125 10.3125 31.507812 9.425781 23.8125 9.425781 Z M 23.8125 9.425781 "/>
<path style=" stroke:none;fill-rule:nonzero;fill:rgb(47.450981%,52.549022%,79.607844%);fill-opacity:1;" d="M 17.859375 9.804688 C 17.34375 9.839844 16.847656 9.878906 16.371094 9.921875 L 16.371094 11.847656 C 16.371094 11.984375 16.453125 12.09375 16.558594 12.09375 L 17.671875 12.09375 C 17.777344 12.09375 17.859375 11.984375 17.859375 11.847656 Z M 29.765625 9.804688 L 29.765625 11.847656 C 29.765625 11.984375 29.847656 12.09375 29.953125 12.09375 L 31.066406 12.09375 C 31.171875 12.09375 31.253906 11.984375 31.253906 11.847656 L 31.253906 9.921875 C 30.777344 9.878906 30.28125 9.839844 29.765625 9.804688 Z M 14.882812 10.078125 C 14.351562 10.140625 13.855469 10.210938 13.394531 10.285156 L 13.394531 11.847656 C 13.394531 11.984375 13.476562 12.09375 13.582031 12.09375 L 14.695312 12.09375 C 14.800781 12.09375 14.882812 11.984375 14.882812 11.847656 Z M 32.742188 10.078125 L 32.742188 11.847656 C 32.742188 11.984375 32.824219 12.09375 32.929688 12.09375 L 34.042969 12.09375 C 34.148438 12.09375 34.230469 11.984375 34.230469 11.847656 L 34.230469 10.285156 C 33.769531 10.210938 33.273438 10.140625 32.742188 10.078125 Z M 32.742188 10.078125 "/>
<path style=" stroke:none;fill-rule:nonzero;fill:rgb(45.882353%,45.882353%,45.882353%);fill-opacity:1;" d="M 7.9375 2.976562 L 39.6875 2.976562 L 39.6875 3.222656 L 7.9375 3.222656 Z M 7.9375 2.976562 "/>
<path style=" stroke:none;fill-rule:nonzero;fill:rgb(100%,43.921569%,26.274511%);fill-opacity:1;" d="M 37.207031 2.109375 L 38.570312 2.109375 C 38.640625 2.109375 38.695312 2.164062 38.695312 2.230469 L 38.695312 2.605469 C 38.695312 2.671875 38.640625 2.726562 38.570312 2.726562 L 37.207031 2.726562 C 37.136719 2.726562 37.082031 2.671875 37.082031 2.605469 L 37.082031 2.230469 C 37.082031 2.164062 37.136719 2.109375 37.207031 2.109375 Z M 37.207031 2.109375 "/>
<path style=" stroke:none;fill-rule:nonzero;fill:rgb(100%,67.058825%,56.862748%);fill-opacity:1;" d="M 37.207031 2.109375 L 37.828125 2.109375 C 37.894531 2.109375 37.949219 2.164062 37.949219 2.230469 L 37.949219 2.480469 C 37.949219 2.550781 37.894531 2.605469 37.828125 2.605469 L 37.207031 2.605469 C 37.136719 2.605469 37.082031 2.550781 37.082031 2.480469 L 37.082031 2.230469 C 37.082031 2.164062 37.136719 2.109375 37.207031 2.109375 Z M 37.207031 2.109375 "/>
<path style=" stroke:none;fill-rule:nonzero;fill:rgb(100%,43.921569%,26.274511%);fill-opacity:1;" d="M 9.179688 2.109375 L 10.542969 2.109375 C 10.609375 2.109375 10.664062 2.164062 10.664062 2.230469 L 10.664062 2.605469 C 10.664062 2.671875 10.609375 2.726562 10.542969 2.726562 L 9.179688 2.726562 C 9.109375 2.726562 9.054688 2.671875 9.054688 2.605469 L 9.054688 2.230469 C 9.054688 2.164062 9.109375 2.109375 9.179688 2.109375 Z M 9.179688 2.109375 "/>
<path style=" stroke:none;fill-rule:nonzero;fill:rgb(100%,67.058825%,56.862748%);fill-opacity:1;" d="M 9.179688 2.109375 L 9.796875 2.109375 C 9.867188 2.109375 9.921875 2.164062 9.921875 2.230469 L 9.921875 2.480469 C 9.921875 2.550781 9.867188 2.605469 9.796875 2.605469 L 9.179688 2.605469 C 9.109375 2.605469 9.054688 2.550781 9.054688 2.480469 L 9.054688 2.230469 C 9.054688 2.164062 9.109375 2.109375 9.179688 2.109375 Z M 9.179688 2.109375 "/>
<path style=" stroke:none;fill-rule:nonzero;fill:rgb(38.039216%,38.039216%,38.039216%);fill-opacity:1;" d="M 4.960938 17.363281 L 6.945312 17.363281 C 7.21875 17.363281 7.441406 17.585938 7.441406 17.859375 C 7.441406 18.132812 7.21875 18.355469 6.945312 18.355469 L 4.960938 18.355469 C 4.6875 18.355469 4.464844 18.132812 4.464844 17.859375 C 4.464844 17.585938 4.6875 17.363281 4.960938 17.363281 Z M 4.960938 17.363281 "/>
<path style=" stroke:none;fill-rule:nonzero;fill:rgb(38.039216%,38.039216%,38.039216%);fill-opacity:1;" d="M 40.679688 17.363281 L 42.664062 17.363281 C 42.9375 17.363281 43.160156 17.585938 43.160156 17.859375 C 43.160156 18.132812 42.9375 18.355469 42.664062 18.355469 L 40.679688 18.355469 C 40.40625 18.355469 40.183594 18.132812 40.183594 17.859375 C 40.183594 17.585938 40.40625 17.363281 40.679688 17.363281 Z M 40.679688 17.363281 "/>
<use xlink:href="#surface29" mask="url(#mask8)"/>
<use xlink:href="#surface32" mask="url(#mask9)"/>
<use xlink:href="#surface35" mask="url(#mask10)"/>
<use xlink:href="#surface38" mask="url(#mask11)"/>
<path style=" stroke:none;fill-rule:nonzero;fill:rgb(12.941177%,12.941177%,12.941177%);fill-opacity:1;" d="M 13.398438 26.046875 L 13.398438 28.027344 L 16.707031 28.03125 C 18.03125 28.03125 17.367188 26.046875 13.398438 26.046875 Z M 13.398438 26.046875 "/>
<path style=" stroke:none;fill-rule:nonzero;fill:rgb(45.882353%,45.882353%,45.882353%);fill-opacity:1;" d="M 13.890625 26.292969 L 13.890625 27.78125 L 16.371094 27.78125 C 17.363281 27.78125 16.867188 26.292969 13.890625 26.292969 Z M 13.890625 26.292969 "/>
<path style=" stroke:none;fill-rule:nonzero;fill:rgb(12.941177%,12.941177%,12.941177%);fill-opacity:1;" d="M 34.226562 26.046875 L 34.226562 28.027344 L 30.917969 28.03125 C 29.59375 28.03125 30.257812 26.046875 34.226562 26.046875 Z M 34.226562 26.046875 "/>
<path style=" stroke:none;fill-rule:nonzero;fill:rgb(45.882353%,45.882353%,45.882353%);fill-opacity:1;" d="M 33.734375 26.292969 L 33.734375 27.78125 L 31.253906 27.78125 C 30.261719 27.78125 30.757812 26.292969 33.734375 26.292969 Z M 33.734375 26.292969 "/>
<use xlink:href="#surface41" mask="url(#mask12)"/>
<use xlink:href="#surface44" mask="url(#mask13)"/>
<path style=" stroke:none;fill-rule:nonzero;fill:rgb(45.882353%,45.882353%,45.882353%);fill-opacity:1;" d="M 13.609375 38.695312 L 13.714844 40.261719 C 13.753906 40.878906 14.265625 41.355469 14.882812 41.355469 L 32.742188 41.355469 C 33.359375 41.355469 33.871094 40.878906 33.910156 40.261719 L 34.015625 38.695312 L 33.984375 38.695312 L 33.910156 39.765625 C 33.871094 40.382812 33.359375 40.859375 32.742188 40.859375 L 14.882812 40.859375 C 14.265625 40.859375 13.753906 40.382812 13.714844 39.765625 L 13.640625 38.695312 Z M 13.609375 38.695312 "/>
<path style="fill:none;stroke-width:31.75;stroke-linecap:butt;stroke-linejoin:miter;stroke:rgb(100%,65.490198%,14.901961%);stroke-opacity:1;stroke-miterlimit:4;" d="M 486.833333 255.958333 L 381 255.958333 C 381 203.041667 470.958333 203.041667 470.958333 166 C 470.958333 123.666667 386.291667 118.375 386.291667 171.291667 " transform="matrix(0.09375,0,0,0.09375,0,20.15625)"/>
<path style="fill:none;stroke-width:21.167;stroke-linecap:butt;stroke-linejoin:miter;stroke:rgb(93.725491%,32.549021%,31.37255%);stroke-opacity:1;stroke-miterlimit:4;" d="M 481.541667 255.958333 L 381 255.958333 C 381 203.041667 470.958333 203.041667 470.958333 166 C 470.958333 123.666667 386.291667 123.666667 386.291667 166 " transform="matrix(0.09375,0,0,0.09375,0,20.15625)"/>
<path style="fill:none;stroke-width:6;stroke-linecap:round;stroke-linejoin:round;stroke:rgb(38.039216%,38.039216%,38.039216%);stroke-opacity:1;stroke-miterlimit:4;" d="M 52.916667 33.708333 L 82 33.708333 L 84.666667 46.916667 L 97.875 46.916667 " transform="matrix(0.09375,0,0,0.09375,0,20.15625)"/>
<path style="fill:none;stroke-width:6;stroke-linecap:round;stroke-linejoin:round;stroke:rgb(25.882354%,25.882354%,25.882354%);stroke-opacity:1;stroke-miterlimit:4;" d="M 74.083333 -33.75 L 95.25 -33.75 " transform="matrix(0.09375,0,0,0.09375,0,20.15625)"/>
<path style="fill:none;stroke-width:6;stroke-linecap:round;stroke-linejoin:round;stroke:rgb(38.039216%,38.039216%,38.039216%);stroke-opacity:1;stroke-miterlimit:4;" d="M 455.083333 33.708333 L 426 33.708333 L 423.333333 46.916667 L 410.125 46.916667 " transform="matrix(0.09375,0,0,0.09375,0,20.15625)"/>
<path style="fill:none;stroke-width:6;stroke-linecap:round;stroke-linejoin:round;stroke:rgb(25.882354%,25.882354%,25.882354%);stroke-opacity:1;stroke-miterlimit:4;" d="M 433.916667 -33.75 L 412.75 -33.75 " transform="matrix(0.09375,0,0,0.09375,0,20.15625)"/>
</g>
</svg>
