
<svg xmlns="http://www.w3.org/2000/svg" xmlns:xlink="http://www.w3.org/1999/xlink" width="48px" height="48px" viewBox="0 0 48 48" version="1.1">
<g id="surface1">
<path style=" stroke:none;fill-rule:nonzero;fill:rgb(49.411765%,34.117648%,76.078433%);fill-opacity:1;" d="M 3.96875 2.359375 L 43.65625 2.359375 C 44.753906 2.359375 45.640625 3.246094 45.640625 4.34375 L 45.640625 44.03125 C 45.640625 45.128906 44.753906 46.015625 43.65625 46.015625 L 3.96875 46.015625 C 2.871094 46.015625 1.984375 45.128906 1.984375 44.03125 L 1.984375 4.34375 C 1.984375 3.246094 2.871094 2.359375 3.96875 2.359375 Z M 3.96875 2.359375 "/>
<path style=" stroke:none;fill-rule:nonzero;fill:rgb(93.333334%,93.333334%,93.333334%);fill-opacity:1;" d="M 14.882812 9.304688 L 14.882812 15.257812 L 8.929688 15.257812 L 8.929688 27.164062 L 14.882812 27.164062 L 14.882812 33.117188 L 32.742188 33.117188 L 32.742188 27.164062 L 38.695312 27.164062 L 38.695312 15.257812 L 32.742188 15.257812 L 32.742188 9.304688 L 26.789062 9.304688 L 26.789062 15.257812 L 20.835938 15.257812 L 20.835938 9.304688 Z M 32.742188 33.117188 L 32.742188 39.070312 L 38.695312 39.070312 L 38.695312 33.117188 Z M 14.882812 33.117188 L 8.929688 33.117188 L 8.929688 39.070312 L 14.882812 39.070312 Z M 14.882812 21.210938 L 32.742188 21.210938 L 32.742188 27.164062 L 14.882812 27.164062 Z M 14.882812 21.210938 "/>
</g>
</svg>
