
<svg xmlns="http://www.w3.org/2000/svg" xmlns:xlink="http://www.w3.org/1999/xlink" width="48px" height="48px" viewBox="0 0 48 48" version="1.1">
<g id="surface1">
<path style=" stroke:none;fill-rule:nonzero;fill:rgb(25.882354%,64.705884%,96.078432%);fill-opacity:1;" d="M 3.96875 1.984375 L 43.65625 1.984375 C 44.753906 1.984375 45.640625 2.871094 45.640625 3.96875 L 45.640625 43.65625 C 45.640625 44.753906 44.753906 45.640625 43.65625 45.640625 L 3.96875 45.640625 C 2.871094 45.640625 1.984375 44.753906 1.984375 43.65625 L 1.984375 3.96875 C 1.984375 2.871094 2.871094 1.984375 3.96875 1.984375 Z M 3.96875 1.984375 "/>
<path style=" stroke:none;fill-rule:nonzero;fill:rgb(93.333334%,93.333334%,93.333334%);fill-opacity:1;" d="M 23.8125 8.929688 C 18.316406 8.929688 13.890625 13.355469 13.890625 18.851562 C 13.890625 24.347656 18.316406 28.773438 23.8125 28.773438 C 26.050781 28.773438 28.109375 28.039062 29.765625 26.800781 L 29.765625 28.773438 C 29.765625 32.070312 27.109375 34.726562 23.8125 34.726562 C 21.59375 34.726562 19.664062 33.523438 18.640625 31.730469 C 18.382812 31.742188 18.121094 31.75 17.859375 31.75 L 14.339844 31.75 C 15.601562 35.785156 19.355469 38.695312 23.8125 38.695312 C 29.308594 38.695312 33.734375 34.269531 33.734375 28.773438 L 33.734375 8.929688 L 29.765625 8.929688 L 29.765625 10.902344 C 28.109375 9.664062 26.050781 8.929688 23.8125 8.929688 Z M 23.738281 12.898438 L 23.886719 12.898438 C 27.144531 12.898438 29.765625 15.546875 29.765625 18.839844 L 29.765625 18.863281 C 29.765625 22.15625 27.144531 24.804688 23.886719 24.804688 L 23.738281 24.804688 C 20.480469 24.804688 17.859375 22.15625 17.859375 18.863281 L 17.859375 18.839844 C 17.859375 15.546875 20.480469 12.898438 23.738281 12.898438 Z M 23.738281 12.898438 "/>
</g>
</svg>
