
<svg xmlns="http://www.w3.org/2000/svg" xmlns:xlink="http://www.w3.org/1999/xlink" width="48px" height="48px" viewBox="0 0 48 48" version="1.1">
<g id="surface1">
<path style=" stroke:none;fill-rule:nonzero;fill:rgb(93.333334%,93.333334%,93.333334%);fill-opacity:1;" d="M 3.96875 1.984375 L 43.65625 1.984375 C 44.753906 1.984375 45.640625 2.871094 45.640625 3.96875 L 45.640625 43.65625 C 45.640625 44.753906 44.753906 45.640625 43.65625 45.640625 L 3.96875 45.640625 C 2.871094 45.640625 1.984375 44.753906 1.984375 43.65625 L 1.984375 3.96875 C 1.984375 2.871094 2.871094 1.984375 3.96875 1.984375 Z M 3.96875 1.984375 "/>
<path style=" stroke:none;fill-rule:nonzero;fill:rgb(25.882354%,64.705884%,96.078432%);fill-opacity:1;" d="M 23.738281 5.902344 C 23.6875 5.902344 23.632812 5.90625 23.582031 5.90625 C 21.136719 5.933594 18.695312 6.460938 16.464844 7.464844 C 13.847656 8.636719 11.523438 10.449219 9.75 12.699219 C 8.078125 14.808594 6.894531 17.304688 6.320312 19.933594 C 5.59375 23.25 5.816406 26.777344 6.984375 29.96875 C 7.964844 32.675781 9.617188 35.132812 11.746094 37.066406 C 13.804688 38.945312 16.3125 40.332031 19 41.070312 C 22.625 42.074219 26.5625 41.914062 30.089844 40.597656 C 32.863281 39.570312 35.371094 37.832031 37.316406 35.601562 C 39.121094 33.535156 40.441406 31.050781 41.132812 28.394531 C 41.527344 26.902344 41.722656 25.355469 41.722656 23.8125 L 41.671875 23.8125 L 41.671875 20.835938 L 23.8125 20.835938 L 23.8125 26.789062 L 35.398438 26.789062 C 35.117188 27.890625 34.679688 28.949219 34.101562 29.925781 C 32.949219 31.871094 31.230469 33.476562 29.210938 34.492188 C 27.433594 35.390625 25.429688 35.824219 23.441406 35.761719 C 21.421875 35.707031 19.417969 35.128906 17.683594 34.089844 C 15.757812 32.949219 14.167969 31.25 13.15625 29.253906 C 12.269531 27.519531 11.824219 25.5625 11.859375 23.617188 C 11.886719 21.632812 12.414062 19.660156 13.390625 17.933594 C 14.488281 15.976562 16.15625 14.34375 18.132812 13.28125 C 19.824219 12.367188 21.738281 11.878906 23.65625 11.859375 C 23.703125 11.855469 23.746094 11.855469 23.792969 11.855469 C 23.925781 11.855469 24.058594 11.859375 24.191406 11.863281 C 26.203125 11.921875 28.203125 12.496094 29.933594 13.53125 C 30.785156 14.035156 31.574219 14.648438 32.273438 15.351562 L 36.488281 11.136719 C 36.289062 10.9375 36.085938 10.746094 35.878906 10.558594 C 33.820312 8.679688 31.3125 7.292969 28.625 6.554688 C 27.039062 6.113281 25.386719 5.898438 23.738281 5.902344 Z M 23.738281 5.902344 "/>
<path style=" stroke:none;fill-rule:nonzero;fill:rgb(93.725491%,32.549021%,31.37255%);fill-opacity:1;" d="M 23.738281 5.902344 C 23.6875 5.902344 23.632812 5.90625 23.582031 5.90625 C 21.136719 5.933594 18.695312 6.460938 16.464844 7.464844 C 14.484375 8.351562 12.671875 9.605469 11.136719 11.136719 L 15.351562 15.351562 C 16.171875 14.53125 17.109375 13.828125 18.132812 13.28125 C 19.824219 12.367188 21.738281 11.878906 23.65625 11.859375 C 23.703125 11.855469 23.746094 11.855469 23.792969 11.855469 C 23.925781 11.855469 24.058594 11.859375 24.191406 11.863281 C 26.203125 11.921875 28.203125 12.496094 29.933594 13.53125 C 30.785156 14.035156 31.574219 14.648438 32.273438 15.351562 L 36.488281 11.136719 C 36.289062 10.9375 36.085938 10.746094 35.878906 10.558594 C 33.820312 8.679688 31.3125 7.292969 28.625 6.554688 C 27.039062 6.113281 25.386719 5.898438 23.738281 5.902344 Z M 23.738281 5.902344 "/>
<path style=" stroke:none;fill-rule:nonzero;fill:rgb(100%,65.490198%,14.901961%);fill-opacity:1;" d="M 11.136719 11.136719 C 10.644531 11.628906 10.179688 12.152344 9.75 12.699219 C 8.078125 14.808594 6.894531 17.304688 6.320312 19.933594 C 5.59375 23.25 5.816406 26.777344 6.984375 29.96875 C 7.867188 32.410156 9.300781 34.652344 11.136719 36.488281 L 15.351562 32.273438 C 14.46875 31.390625 13.722656 30.367188 13.15625 29.253906 C 12.269531 27.519531 11.824219 25.5625 11.859375 23.617188 C 11.886719 21.632812 12.414062 19.660156 13.390625 17.933594 C 13.921875 16.988281 14.585938 16.117188 15.351562 15.351562 Z M 11.136719 11.136719 "/>
<path style=" stroke:none;fill-rule:nonzero;fill:rgb(40.000001%,73.333335%,41.568628%);fill-opacity:1;" d="M 15.351562 32.273438 L 11.136719 36.488281 C 11.335938 36.6875 11.539062 36.878906 11.746094 37.066406 C 13.804688 38.945312 16.3125 40.332031 19 41.070312 C 22.625 42.074219 26.5625 41.914062 30.089844 40.597656 C 32.484375 39.710938 34.679688 38.292969 36.488281 36.488281 L 32.273438 32.273438 C 31.378906 33.167969 30.34375 33.921875 29.210938 34.492188 C 27.433594 35.390625 25.429688 35.824219 23.441406 35.761719 C 21.421875 35.707031 19.417969 35.128906 17.683594 34.089844 C 16.835938 33.585938 16.050781 32.972656 15.351562 32.273438 Z M 15.351562 32.273438 "/>
</g>
</svg>
