
<svg xmlns="http://www.w3.org/2000/svg" xmlns:xlink="http://www.w3.org/1999/xlink" width="48px" height="48px" viewBox="0 0 48 48" version="1.1">
<g id="surface1">
<path style=" stroke:none;fill-rule:nonzero;fill:rgb(93.725491%,32.549021%,31.37255%);fill-opacity:1;" d="M 23.8125 1.984375 C 35.867188 1.984375 45.640625 11.757812 45.640625 23.8125 C 45.640625 35.867188 35.867188 45.640625 23.8125 45.640625 C 11.757812 45.640625 1.984375 35.867188 1.984375 23.8125 C 1.984375 11.757812 11.757812 1.984375 23.8125 1.984375 Z M 23.8125 1.984375 "/>
<path style=" stroke:none;fill-rule:nonzero;fill:rgb(74.117649%,74.117649%,74.117649%);fill-opacity:1;" d="M 24.207031 13.683594 L 24.207031 36.476562 L 22.222656 36.746094 L 17.207031 37.546875 L 12.355469 39.375 C 4.929688 34.660156 11.292969 22.082031 15.683594 15.160156 C 16.660156 13.765625 20.347656 13.863281 24.207031 13.683594 Z M 24.207031 13.683594 "/>
<path style=" stroke:none;fill-rule:nonzero;fill:rgb(93.333334%,93.333334%,93.333334%);fill-opacity:1;" d="M 35.910156 22.761719 C 37.90625 20.921875 44.496094 18.246094 36.53125 12.378906 C 35.855469 9.308594 37.6875 7.039062 36.59375 2.335938 C 35.449219 7.753906 31.824219 11.941406 34.878906 16.246094 C 34.976562 17.304688 33.703125 17.191406 32.695312 17.304688 L 35.097656 23.574219 Z M 35.910156 22.761719 "/>
<path style=" stroke:none;fill-rule:nonzero;fill:rgb(87.843138%,87.843138%,87.843138%);fill-opacity:1;" d="M 39.570312 15.304688 C 39.582031 15.324219 39.59375 15.34375 39.609375 15.363281 C 39.527344 15.335938 39.46875 15.328125 39.46875 15.328125 Z M 40.148438 16.402344 C 41.339844 19.601562 37.378906 21.410156 35.910156 22.761719 L 35.378906 23.292969 L 34.335938 21.589844 L 34.097656 20.957031 C 34.738281 20.695312 38.152344 19.230469 39.53125 17.480469 C 39.882812 17.035156 40.070312 16.683594 40.148438 16.402344 Z M 40.148438 16.402344 "/>
<path style=" stroke:none;fill-rule:nonzero;fill:rgb(93.333334%,93.333334%,93.333334%);fill-opacity:1;" d="M 11.773438 22.761719 C 9.773438 20.921875 3.183594 18.246094 11.148438 12.378906 C 11.824219 9.308594 9.996094 7.039062 11.085938 2.335938 C 12.230469 7.753906 15.855469 11.941406 12.800781 16.246094 C 12.707031 17.304688 13.976562 17.191406 14.984375 17.304688 L 12.585938 23.574219 Z M 11.773438 22.761719 "/>
<path style=" stroke:none;fill-rule:nonzero;fill:rgb(61.960787%,61.960787%,61.960787%);fill-opacity:1;" d="M 23.8125 14.726562 L 23.8125 38.957031 L 17.207031 37.546875 C 16.550781 37.5 12.5625 39.820312 12.355469 39.375 C 11.667969 37.066406 10.15625 23.339844 14.496094 20.40625 C 18.164062 17.925781 22.539062 15.4375 23.8125 14.726562 Z M 23.8125 14.726562 "/>
<path style=" stroke:none;fill-rule:nonzero;fill:rgb(87.843138%,87.843138%,87.843138%);fill-opacity:1;" d="M 8.113281 15.304688 C 8.101562 15.324219 8.085938 15.34375 8.074219 15.363281 C 8.15625 15.335938 8.210938 15.328125 8.210938 15.328125 Z M 7.53125 16.402344 C 6.34375 19.601562 10.300781 21.410156 11.773438 22.761719 L 12.304688 23.292969 L 13.34375 21.589844 L 13.585938 20.957031 C 12.941406 20.695312 9.53125 19.230469 8.148438 17.480469 C 7.796875 17.035156 7.609375 16.683594 7.53125 16.402344 Z M 7.53125 16.402344 "/>
<path style=" stroke:none;fill-rule:nonzero;fill:rgb(74.117649%,74.117649%,74.117649%);fill-opacity:1;" d="M 23.8125 13.683594 L 23.8125 36.476562 L 25.796875 36.746094 L 30.8125 37.546875 L 35.664062 39.375 C 43.089844 34.660156 37.34375 22.699219 32.953125 15.777344 C 31.976562 14.382812 27.671875 13.863281 23.8125 13.683594 Z M 23.8125 13.683594 "/>
<path style=" stroke:none;fill-rule:nonzero;fill:rgb(61.960787%,61.960787%,61.960787%);fill-opacity:1;" d="M 24.207031 14.726562 L 24.207031 38.957031 L 30.8125 37.546875 C 31.46875 37.5 35.457031 39.820312 35.664062 39.375 C 36.351562 37.066406 37.863281 23.339844 33.523438 20.40625 C 29.855469 17.925781 25.476562 15.4375 24.207031 14.726562 Z M 24.207031 14.726562 "/>
<path style=" stroke:none;fill-rule:nonzero;fill:rgb(84.313726%,80.000001%,78.431374%);fill-opacity:1;" d="M 12.882812 22.832031 C 14.234375 27.019531 13.65625 34.621094 24.128906 38.972656 C 37.734375 33.445312 33.828125 23.535156 33.523438 20.40625 L 29.113281 13.039062 L 19.585938 12.953125 Z M 12.882812 22.832031 "/>
<path style=" stroke:none;fill-rule:nonzero;fill:rgb(73.725492%,66.666669%,64.313728%);fill-opacity:1;" d="M 31.9375 17.761719 L 27.417969 14.894531 C 33.785156 27.757812 35.003906 33.4375 24.128906 38.972656 C 37.734375 33.445312 33.828125 23.535156 33.523438 20.40625 Z M 31.9375 17.761719 "/>
<path style=" stroke:none;fill-rule:nonzero;fill:rgb(93.333334%,93.333334%,93.333334%);fill-opacity:1;" d="M 18.199219 31.65625 C 21.648438 33.75 24.054688 34.664062 29.996094 33.113281 C 29.996094 33.113281 26.753906 37.214844 23.402344 36.507812 C 20.050781 35.800781 18.199219 31.65625 18.199219 31.65625 Z M 18.199219 31.65625 "/>
<path style=" stroke:none;fill-rule:nonzero;fill:rgb(93.333334%,93.333334%,93.333334%);fill-opacity:1;" d="M 14.757812 25.21875 C 17.597656 25.558594 20.054688 26.535156 22.367188 27.753906 C 22.476562 28.402344 22.648438 29.046875 22.367188 29.695312 C 16.328125 31.597656 15.164062 28.773438 14.757812 25.21875 Z M 14.757812 25.21875 "/>
<path style=" stroke:none;fill-rule:nonzero;fill:rgb(95.686275%,31.764707%,11.764706%);fill-opacity:1;" d="M 18.554688 26.085938 C 18.355469 26.460938 18.242188 26.910156 18.242188 27.390625 C 18.242188 28.714844 19.105469 29.78125 20.179688 29.78125 C 21.191406 29.78125 22.015625 28.835938 22.109375 27.621094 C 20.96875 27.03125 19.792969 26.503906 18.554688 26.085938 Z M 18.554688 26.085938 "/>
<path style=" stroke:none;fill-rule:nonzero;fill:rgb(100%,43.921569%,26.274511%);fill-opacity:1;" d="M 19.269531 26.339844 C 19.0625 26.617188 18.933594 26.984375 18.933594 27.390625 C 18.933594 28.242188 19.488281 28.925781 20.179688 28.925781 C 20.867188 28.925781 21.425781 28.242188 21.425781 27.390625 C 21.425781 27.351562 21.421875 27.3125 21.421875 27.273438 C 20.722656 26.933594 20.003906 26.621094 19.269531 26.339844 Z M 19.269531 26.339844 "/>
<path style=" stroke:none;fill-rule:nonzero;fill:rgb(25.882354%,25.882354%,25.882354%);fill-opacity:1;" d="M 19.90625 26.59375 C 19.925781 27.339844 20.039062 27.914062 20.179688 27.914062 C 20.304688 27.914062 20.410156 27.453125 20.441406 26.820312 C 20.265625 26.742188 20.085938 26.667969 19.90625 26.59375 Z M 19.90625 26.59375 "/>
<path style=" stroke:none;fill-rule:nonzero;fill:rgb(93.333334%,93.333334%,93.333334%);fill-opacity:1;" d="M 33.523438 25.21875 C 30.683594 25.558594 28.226562 26.535156 25.914062 27.753906 C 25.804688 28.402344 25.628906 29.046875 25.914062 29.695312 C 31.953125 31.597656 33.113281 28.773438 33.523438 25.21875 Z M 33.523438 25.21875 "/>
<path style=" stroke:none;fill-rule:nonzero;fill:rgb(95.686275%,31.764707%,11.764706%);fill-opacity:1;" d="M 29.726562 26.085938 C 29.921875 26.460938 30.039062 26.910156 30.039062 27.390625 C 30.039062 28.714844 29.175781 29.78125 28.101562 29.78125 C 27.089844 29.78125 26.265625 28.835938 26.171875 27.621094 C 27.308594 27.03125 28.484375 26.503906 29.726562 26.085938 Z M 29.726562 26.085938 "/>
<path style=" stroke:none;fill-rule:nonzero;fill:rgb(100%,43.921569%,26.274511%);fill-opacity:1;" d="M 29.011719 26.339844 C 29.21875 26.617188 29.34375 26.984375 29.34375 27.390625 C 29.34375 28.242188 28.789062 28.925781 28.101562 28.925781 C 27.410156 28.925781 26.855469 28.242188 26.855469 27.390625 C 26.855469 27.351562 26.859375 27.3125 26.859375 27.273438 C 27.558594 26.933594 28.273438 26.621094 29.011719 26.339844 Z M 29.011719 26.339844 "/>
<path style=" stroke:none;fill-rule:nonzero;fill:rgb(25.882354%,25.882354%,25.882354%);fill-opacity:1;" d="M 28.371094 26.59375 C 28.351562 27.339844 28.238281 27.914062 28.101562 27.914062 C 27.976562 27.914062 27.871094 27.453125 27.839844 26.820312 C 28.015625 26.742188 28.191406 26.667969 28.371094 26.59375 Z M 28.371094 26.59375 "/>
<path style=" stroke:none;fill-rule:nonzero;fill:rgb(25.882354%,25.882354%,25.882354%);fill-opacity:1;" d="M 20.992188 33.125 C 20.503906 33.777344 20.953125 34.46875 21.242188 34.929688 C 20.976562 34.429688 21.066406 33.808594 21.210938 33.210938 C 21.136719 33.183594 21.066406 33.15625 20.992188 33.125 Z M 21.242188 34.929688 C 21.265625 34.980469 21.296875 35.027344 21.328125 35.074219 C 21.300781 35.03125 21.273438 34.980469 21.242188 34.929688 Z M 21.242188 34.929688 "/>
<path style=" stroke:none;fill-rule:nonzero;fill:rgb(25.882354%,25.882354%,25.882354%);fill-opacity:1;" d="M 22.917969 33.707031 C 22.835938 34.5 22.867188 35.296875 23.644531 36.089844 C 23.035156 35.207031 23.164062 34.484375 23.40625 33.789062 C 23.242188 33.765625 23.078125 33.738281 22.917969 33.707031 Z M 22.917969 33.707031 "/>
<path style=" stroke:none;fill-rule:nonzero;fill:rgb(25.882354%,25.882354%,25.882354%);fill-opacity:1;" d="M 27.972656 33.570312 C 27.835938 33.597656 27.703125 33.621094 27.574219 33.644531 C 27.679688 34.058594 27.707031 34.492188 27.535156 34.96875 C 27.566406 34.992188 27.597656 35.015625 27.632812 35.039062 C 27.925781 34.550781 27.988281 34.0625 27.972656 33.570312 Z M 27.972656 33.570312 "/>
<path style=" stroke:none;fill-rule:nonzero;fill:rgb(87.843138%,87.843138%,87.843138%);fill-opacity:1;" d="M 12.882812 22.832031 L 15.898438 23.644531 L 18.144531 21.117188 L 16.894531 24.082031 L 19.203125 24.269531 L 19.921875 22.023438 L 19.765625 24.488281 L 24.972656 24.640625 L 25.222656 17.066406 L 27.15625 24.394531 L 30.054688 24.488281 L 29.183594 17.46875 L 32.65625 24.582031 L 35.554688 24.082031 L 36.402344 23.019531 C 32.382812 8.46875 17.425781 3.054688 12.882812 22.832031 Z M 12.882812 22.832031 "/>
<path style=" stroke:none;fill-rule:nonzero;fill:rgb(96.078432%,96.078432%,96.078432%);fill-opacity:1;" d="M 35.34375 19.960938 C 33.859375 20.214844 32.300781 20.417969 30.703125 20.585938 L 32.0625 23.371094 C 33.566406 23.09375 34.949219 22.703125 36.152344 22.175781 C 35.914062 21.410156 35.640625 20.671875 35.34375 19.960938 Z M 29.582031 20.695312 C 28.480469 20.800781 27.367188 20.882812 26.246094 20.953125 L 27.027344 23.90625 C 28.03125 23.863281 29.011719 23.789062 29.957031 23.683594 Z M 25.089844 21.019531 C 22.714844 21.148438 20.34375 21.214844 18.09375 21.234375 L 17.121094 23.546875 C 17.867188 23.617188 18.621094 23.683594 19.371094 23.738281 L 19.921875 22.023438 L 19.808594 23.769531 C 21.550781 23.890625 23.292969 23.957031 24.996094 23.949219 Z M 13.289062 21.226562 C 13.148438 21.742188 13.011719 22.277344 12.882812 22.832031 L 14.425781 23.246094 C 14.972656 23.316406 15.523438 23.378906 16.082031 23.4375 L 18.039062 21.238281 C 16.375 21.253906 14.773438 21.246094 13.289062 21.226562 Z M 13.289062 21.226562 "/>
<path style=" stroke:none;fill-rule:nonzero;fill:rgb(38.039216%,38.039216%,38.039216%);fill-opacity:1;" d="M 23.710938 9.96875 C 21.632812 9.960938 19.582031 10.785156 17.773438 12.605469 L 19.105469 14.316406 C 20.472656 12.515625 22.027344 12.25 23.8125 12.207031 L 23.8125 9.96875 C 23.777344 9.96875 23.746094 9.96875 23.710938 9.96875 Z M 23.710938 9.96875 "/>
<path style=" stroke:none;fill-rule:nonzero;fill:rgb(45.882353%,45.882353%,45.882353%);fill-opacity:1;" d="M 20.863281 10.914062 L 20.929688 4.949219 L 22.804688 10.914062 C 22.855469 11.648438 21.121094 12.191406 20.863281 10.914062 Z M 20.863281 10.914062 "/>
<path style=" stroke:none;fill-rule:nonzero;fill:rgb(45.882353%,45.882353%,45.882353%);fill-opacity:1;" d="M 18.699219 12.726562 L 15.773438 7.527344 L 20.378906 11.757812 C 20.792969 12.367188 19.5625 13.703125 18.699219 12.726562 Z M 18.699219 12.726562 "/>
<path style=" stroke:none;fill-rule:nonzero;fill:rgb(38.039216%,38.039216%,38.039216%);fill-opacity:1;" d="M 23.914062 9.96875 C 25.992188 9.960938 28.042969 10.785156 29.851562 12.605469 L 28.519531 14.316406 C 27.152344 12.515625 25.597656 12.25 23.8125 12.207031 L 23.8125 9.96875 C 23.847656 9.96875 23.878906 9.96875 23.914062 9.96875 Z M 23.914062 9.96875 "/>
<path style=" stroke:none;fill-rule:nonzero;fill:rgb(45.882353%,45.882353%,45.882353%);fill-opacity:1;" d="M 26.761719 10.914062 L 26.695312 4.949219 L 24.820312 10.914062 C 24.769531 11.648438 26.503906 12.191406 26.761719 10.914062 Z M 26.761719 10.914062 "/>
<path style=" stroke:none;fill-rule:nonzero;fill:rgb(45.882353%,45.882353%,45.882353%);fill-opacity:1;" d="M 28.925781 12.726562 L 31.851562 7.527344 L 27.246094 11.757812 C 26.832031 12.367188 28.0625 13.703125 28.925781 12.726562 Z M 28.925781 12.726562 "/>
</g>
</svg>
