<?xml version="1.0" encoding="UTF-8"?>
<svg xmlns="http://www.w3.org/2000/svg" xmlns:xlink="http://www.w3.org/1999/xlink" width="48px" height="48px" viewBox="0 0 48 48" version="1.1">
<g id="surface1">
<path style=" stroke:none;fill-rule:nonzero;fill:rgb(25.882354%,25.882354%,25.882354%);fill-opacity:1;" d="M 3.96875 2.359375 L 43.65625 2.359375 C 44.753906 2.359375 45.640625 3.246094 45.640625 4.34375 L 45.640625 44.03125 C 45.640625 45.128906 44.753906 46.015625 43.65625 46.015625 L 3.96875 46.015625 C 2.871094 46.015625 1.984375 45.128906 1.984375 44.03125 L 1.984375 4.34375 C 1.984375 3.246094 2.871094 2.359375 3.96875 2.359375 Z M 3.96875 2.359375 "/>
<path style=" stroke:none;fill-rule:nonzero;fill:rgb(100%,65.490198%,14.901961%);fill-opacity:1;" d="M 5.953125 5.335938 C 5.402344 5.335938 4.960938 5.777344 4.960938 6.328125 L 4.960938 42.046875 C 4.960938 42.597656 5.402344 43.039062 5.953125 43.039062 L 41.671875 43.039062 C 42.222656 43.039062 42.664062 42.597656 42.664062 42.046875 L 42.664062 6.328125 C 42.664062 5.777344 42.222656 5.335938 41.671875 5.335938 Z M 7.441406 7.320312 L 40.183594 7.320312 C 40.457031 7.320312 40.679688 7.542969 40.679688 7.816406 L 40.679688 40.558594 C 40.679688 40.832031 40.457031 41.054688 40.183594 41.054688 L 7.441406 41.054688 C 7.167969 41.054688 6.945312 40.832031 6.945312 40.558594 L 6.945312 7.816406 C 6.945312 7.542969 7.167969 7.320312 7.441406 7.320312 Z M 7.441406 7.320312 "/>
<path style=" stroke:none;fill-rule:nonzero;fill:rgb(100%,65.490198%,14.901961%);fill-opacity:1;" d="M 29.765625 18.234375 L 30.757812 18.234375 C 31.03125 18.234375 31.253906 18.457031 31.253906 18.730469 L 31.253906 33.613281 C 31.253906 33.886719 31.03125 34.109375 30.757812 34.109375 L 29.765625 34.109375 C 29.492188 34.109375 29.269531 33.886719 29.269531 33.613281 L 29.269531 18.730469 C 29.269531 18.457031 29.492188 18.234375 29.765625 18.234375 Z M 29.765625 18.234375 "/>
<path style=" stroke:none;fill-rule:nonzero;fill:rgb(100%,65.490198%,14.901961%);fill-opacity:1;" d="M 17.363281 14.265625 C 14.339844 14.265625 11.90625 16.476562 11.90625 19.226562 L 11.90625 29.644531 C 11.90625 29.917969 12.128906 30.140625 12.402344 30.140625 L 13.394531 30.140625 C 13.667969 30.140625 13.890625 29.917969 13.890625 29.644531 L 13.890625 25.179688 L 20.835938 25.179688 L 20.835938 29.644531 C 20.835938 29.917969 21.058594 30.140625 21.332031 30.140625 L 22.324219 30.140625 C 22.597656 30.140625 22.820312 29.917969 22.820312 29.644531 L 22.820312 19.226562 C 22.820312 16.476562 20.386719 14.265625 17.363281 14.265625 Z M 17.363281 16.25 C 19.289062 16.25 20.835938 17.578125 20.835938 19.226562 L 20.835938 23.195312 L 13.890625 23.195312 L 13.890625 19.226562 C 13.890625 17.578125 15.4375 16.25 17.363281 16.25 Z M 17.363281 16.25 "/>
</g>
</svg>
