<?xml version="1.0" encoding="UTF-8"?>
<svg xmlns="http://www.w3.org/2000/svg" xmlns:xlink="http://www.w3.org/1999/xlink" width="48px" height="48px" viewBox="0 0 48 48" version="1.1">
<g id="surface1">
<path style=" stroke:none;fill-rule:nonzero;fill:rgb(25.882354%,64.705884%,96.078432%);fill-opacity:1;" d="M 23.8125 2.359375 C 35.867188 2.359375 45.640625 12.132812 45.640625 24.1875 C 45.640625 36.242188 35.867188 46.015625 23.8125 46.015625 C 11.757812 46.015625 1.984375 36.242188 1.984375 24.1875 C 1.984375 12.132812 11.757812 2.359375 23.8125 2.359375 Z M 23.8125 2.359375 "/>
<path style=" stroke:none;fill-rule:nonzero;fill:rgb(87.843138%,87.843138%,87.843138%);fill-opacity:1;" d="M 14.882812 2.359375 C 14.332031 2.359375 13.890625 2.800781 13.890625 3.351562 L 13.890625 34.109375 C 13.890625 34.660156 14.332031 35.101562 14.882812 35.101562 L 18.851562 35.101562 C 18.972656 35.101562 19.089844 35.078125 19.199219 35.039062 C 29.394531 34.488281 35.617188 30.285156 38.605469 24.539062 C 41.820312 18.367188 41.671875 11.164062 41.671875 5.089844 L 41.671875 3.351562 C 41.671875 2.800781 41.230469 2.359375 40.679688 2.359375 L 36.710938 2.359375 C 36.160156 2.359375 35.71875 2.800781 35.71875 3.351562 L 35.71875 5.089844 C 35.71875 11.164062 35.570312 17.480469 33.328125 21.789062 C 31.3125 25.652344 27.90625 28.503906 19.84375 29.050781 L 19.84375 3.351562 C 19.84375 2.800781 19.402344 2.359375 18.851562 2.359375 Z M 14.882812 2.359375 "/>
</g>
</svg>
