<?xml version="1.0" encoding="UTF-8"?>
<svg xmlns="http://www.w3.org/2000/svg" xmlns:xlink="http://www.w3.org/1999/xlink" width="48px" height="48px" viewBox="0 0 48 48" version="1.1">
<g id="surface1">
<path style=" stroke:none;fill-rule:nonzero;fill:rgb(38.039216%,38.039216%,38.039216%);fill-opacity:1;" d="M 8.695312 10.296875 L 10.128906 13.167969 L 23.8125 40.535156 L 38.929688 10.296875 Z M 15.117188 14.265625 L 32.507812 14.265625 L 23.8125 31.652344 Z M 15.117188 14.265625 "/>
<path style=" stroke:none;fill-rule:nonzero;fill:rgb(25.882354%,25.882354%,25.882354%);fill-opacity:1;" d="M 11.90625 2.359375 C 17.386719 2.359375 21.828125 6.800781 21.828125 12.28125 C 21.828125 17.761719 17.386719 22.203125 11.90625 22.203125 C 6.425781 22.203125 1.984375 17.761719 1.984375 12.28125 C 1.984375 6.800781 6.425781 2.359375 11.90625 2.359375 Z M 11.90625 2.359375 "/>
<path style=" stroke:none;fill-rule:nonzero;fill:rgb(25.882354%,64.705884%,96.078432%);fill-opacity:1;" d="M 35.71875 2.359375 C 41.199219 2.359375 45.640625 6.800781 45.640625 12.28125 C 45.640625 17.761719 41.199219 22.203125 35.71875 22.203125 C 30.238281 22.203125 25.796875 17.761719 25.796875 12.28125 C 25.796875 6.800781 30.238281 2.359375 35.71875 2.359375 Z M 35.71875 2.359375 "/>
<path style=" stroke:none;fill-rule:nonzero;fill:rgb(93.725491%,32.549021%,31.37255%);fill-opacity:1;" d="M 23.8125 26.171875 C 29.292969 26.171875 33.734375 30.613281 33.734375 36.09375 C 33.734375 41.574219 29.292969 46.015625 23.8125 46.015625 C 18.332031 46.015625 13.890625 41.574219 13.890625 36.09375 C 13.890625 30.613281 18.332031 26.171875 23.8125 26.171875 Z M 23.8125 26.171875 "/>
</g>
</svg>
