<?xml version="1.0" encoding="UTF-8"?>
<svg xmlns="http://www.w3.org/2000/svg" xmlns:xlink="http://www.w3.org/1999/xlink" width="48px" height="48px" viewBox="0 0 48 48" version="1.1">
<g id="surface1">
<path style=" stroke:none;fill-rule:nonzero;fill:rgb(93.725491%,32.549021%,31.37255%);fill-opacity:0.973109;" d="M 13.9375 2.707031 L 22.65625 11.425781 C 23.394531 12.164062 23.394531 13.363281 22.65625 14.105469 L 13.9375 22.820312 C 13.199219 23.5625 11.996094 23.5625 11.257812 22.820312 L 2.542969 14.105469 C 1.800781 13.363281 1.800781 12.164062 2.542969 11.425781 L 11.257812 2.707031 C 11.996094 1.96875 13.199219 1.96875 13.9375 2.707031 Z M 13.9375 2.707031 "/>
<path style=" stroke:none;fill-rule:nonzero;fill:rgb(100%,65.490198%,14.901961%);fill-opacity:0.973109;" d="M 36.363281 2.707031 L 45.078125 11.425781 C 45.820312 12.164062 45.820312 13.363281 45.078125 14.105469 L 36.363281 22.820312 C 35.621094 23.5625 34.421875 23.5625 33.679688 22.820312 L 24.964844 14.105469 C 24.226562 13.363281 24.226562 12.164062 24.964844 11.425781 L 33.679688 2.707031 C 34.421875 1.96875 35.621094 1.96875 36.363281 2.707031 Z M 36.363281 2.707031 "/>
<path style=" stroke:none;fill-rule:nonzero;fill:rgb(40.000001%,73.333335%,41.568628%);fill-opacity:0.973109;" d="M 13.9375 25.304688 L 22.65625 34.019531 C 23.394531 34.761719 23.394531 35.960938 22.65625 36.703125 L 13.9375 45.417969 C 13.199219 46.160156 11.996094 46.160156 11.257812 45.417969 L 2.542969 36.703125 C 1.800781 35.960938 1.800781 34.761719 2.542969 34.019531 L 11.257812 25.304688 C 11.996094 24.566406 13.199219 24.566406 13.9375 25.304688 Z M 13.9375 25.304688 "/>
<path style=" stroke:none;fill-rule:nonzero;fill:rgb(25.882354%,64.705884%,96.078432%);fill-opacity:0.973109;" d="M 36.363281 25.304688 L 45.078125 34.019531 C 45.820312 34.761719 45.820312 35.960938 45.078125 36.703125 L 36.363281 45.417969 C 35.621094 46.160156 34.421875 46.160156 33.679688 45.417969 L 24.964844 36.703125 C 24.226562 35.960938 24.226562 34.761719 24.964844 34.019531 L 33.679688 25.304688 C 34.421875 24.566406 35.621094 24.566406 36.363281 25.304688 Z M 36.363281 25.304688 "/>
</g>
</svg>
