
<svg xmlns="http://www.w3.org/2000/svg" xmlns:xlink="http://www.w3.org/1999/xlink" width="48px" height="48px" viewBox="0 0 48 48" version="1.1">
<g id="surface1">
<path style=" stroke:none;fill-rule:nonzero;fill:rgb(95.686275%,56.078434%,69.411767%);fill-opacity:1;" d="M 23.8125 1.984375 C 35.867188 1.984375 45.640625 11.757812 45.640625 23.8125 C 45.640625 35.867188 35.867188 45.640625 23.8125 45.640625 C 11.757812 45.640625 1.984375 35.867188 1.984375 23.8125 C 1.984375 11.757812 11.757812 1.984375 23.8125 1.984375 Z M 23.8125 1.984375 "/>
<path style=" stroke:none;fill-rule:nonzero;fill:rgb(93.333334%,93.333334%,93.333334%);fill-opacity:1;" d="M 23.8125 4.960938 C 34.222656 4.960938 42.664062 13.402344 42.664062 23.8125 C 42.664062 34.222656 34.222656 42.664062 23.8125 42.664062 C 13.402344 42.664062 4.960938 34.222656 4.960938 23.8125 C 4.960938 13.402344 13.402344 4.960938 23.8125 4.960938 Z M 23.8125 4.960938 "/>
<path style=" stroke:none;fill-rule:nonzero;fill:rgb(100%,79.215688%,15.686275%);fill-opacity:1;" d="M 6.703125 29.054688 C 7.597656 28.164062 11.421875 30.0625 12.671875 29.867188 C 13.917969 29.667969 16.96875 26.679688 18.09375 27.253906 C 19.222656 27.824219 18.597656 32.050781 19.171875 33.175781 C 19.742188 34.304688 23.53125 36.28125 23.332031 37.527344 C 23.132812 38.777344 18.921875 39.488281 18.027344 40.382812 C 17.132812 41.277344 16.425781 45.488281 15.175781 45.683594 C 13.925781 45.882812 11.949219 42.097656 10.824219 41.523438 C 9.695312 40.949219 5.472656 41.574219 4.898438 40.449219 C 4.324219 39.320312 7.3125 36.273438 7.511719 35.023438 C 7.710938 33.773438 5.808594 29.949219 6.703125 29.054688 Z M 6.703125 29.054688 "/>
<path style=" stroke:none;fill-rule:nonzero;fill:rgb(36.078432%,41.960785%,75.294119%);fill-opacity:1;" d="M 21.796875 14.800781 L 22.054688 27.226562 L 32.363281 25.679688 L 30.917969 21.195312 L 26.230469 22.277344 L 26.382812 21.605469 L 29.167969 20.933594 L 28.546875 18.101562 L 25.714844 18.769531 L 25.714844 17.945312 L 30.714844 16.707031 L 29.785156 12.019531 Z M 21.796875 14.800781 "/>
<path style=" stroke:none;fill-rule:nonzero;fill:rgb(61.176473%,80.000001%,39.607844%);fill-opacity:1;" d="M 17.566406 15.972656 C 15.089844 15.972656 13.09375 17.96875 13.09375 20.445312 C 13.09375 22.921875 15.089844 24.917969 17.566406 24.917969 L 17.980469 24.917969 C 20.457031 24.917969 22.449219 22.921875 22.449219 20.445312 C 22.449219 17.96875 20.457031 15.972656 17.980469 15.972656 Z M 17.304688 19.425781 L 17.425781 19.425781 C 18.136719 19.425781 18.710938 19.878906 18.710938 20.445312 C 18.710938 21.007812 18.136719 21.464844 17.425781 21.464844 L 17.304688 21.464844 C 16.59375 21.464844 16.019531 21.007812 16.019531 20.445312 C 16.019531 19.878906 16.59375 19.425781 17.304688 19.425781 Z M 17.304688 19.425781 "/>
<path style=" stroke:none;fill-rule:nonzero;fill:rgb(92.54902%,25.098041%,47.843137%);fill-opacity:1;" d="M 3.652344 28.460938 L 2.3125 17.171875 L 6.433594 15.988281 L 8.855469 19.542969 L 9.835938 15.472656 L 14.527344 15.058594 L 16.796875 25.214844 L 12.570312 26.296875 L 11.742188 22.894531 L 9.941406 25.472656 L 7.363281 23.769531 L 8.082031 26.761719 Z M 3.652344 28.460938 "/>
<path style=" stroke:none;fill-rule:nonzero;fill:rgb(61.176473%,80.000001%,39.607844%);fill-opacity:1;" d="M 40.371094 26.742188 L 36.503906 33.097656 L 39.058594 34.566406 L 39.6875 33.355469 L 41.273438 33.457031 L 41.597656 34.941406 L 44.90625 33.820312 L 42.730469 27 Z M 41.054688 29.875 L 41.273438 30.957031 L 40.421875 30.957031 Z M 41.054688 29.875 "/>
<path style=" stroke:none;fill-rule:nonzero;fill:rgb(100%,65.490198%,14.901961%);fill-opacity:1;" d="M 33.457031 26.722656 C 32.609375 26.71875 31.695312 26.828125 30.746094 27.0625 L 31.6875 34.796875 L 34.597656 33.84375 L 34.238281 32.542969 L 36.6875 34.734375 L 38.398438 32.207031 L 36.609375 31.628906 C 39.996094 29.214844 37.535156 26.726562 33.457031 26.722656 Z M 33.398438 29.191406 L 35.550781 29.296875 L 33.59375 30.160156 Z M 33.398438 29.191406 "/>
<path style=" stroke:none;fill-rule:nonzero;fill:rgb(92.54902%,25.098041%,47.843137%);fill-opacity:1;" d="M 24.269531 27.738281 L 25.09375 36.605469 L 32.105469 35.214844 L 31.796875 32.019531 L 28.03125 33 L 27.929688 32.484375 L 30.09375 31.914062 L 29.785156 30.007812 L 27.464844 30.625 L 27.570312 29.957031 L 31.074219 29.027344 L 30.199219 25.832031 Z M 24.269531 27.738281 "/>
<path style=" stroke:none;fill-rule:nonzero;fill:rgb(61.176473%,80.000001%,39.607844%);fill-opacity:1;" d="M 14.726562 13.175781 C 15 12.902344 15.648438 13.105469 16.171875 13.628906 C 16.695312 14.152344 16.898438 14.796875 16.625 15.074219 C 16.351562 15.347656 15.703125 15.144531 15.179688 14.621094 C 14.65625 14.09375 14.453125 13.449219 14.726562 13.175781 Z M 14.726562 13.175781 "/>
<path style=" stroke:none;fill-rule:nonzero;fill:rgb(61.176473%,80.000001%,39.607844%);fill-opacity:1;" d="M 18.492188 12.167969 C 18.867188 12.265625 19.011719 12.929688 18.820312 13.644531 C 18.628906 14.359375 18.171875 14.859375 17.796875 14.757812 C 17.421875 14.65625 17.277344 13.996094 17.46875 13.28125 C 17.660156 12.566406 18.117188 12.066406 18.492188 12.167969 Z M 18.492188 12.167969 "/>
<path style=" stroke:none;fill-rule:nonzero;fill:rgb(61.176473%,80.000001%,39.607844%);fill-opacity:1;" d="M 21.84375 13.519531 C 22.035156 13.855469 21.671875 14.425781 21.03125 14.796875 C 20.390625 15.167969 19.710938 15.195312 19.519531 14.859375 C 19.324219 14.527344 19.6875 13.953125 20.328125 13.582031 C 20.972656 13.210938 21.648438 13.183594 21.84375 13.519531 Z M 21.84375 13.519531 "/>
<path style=" stroke:none;fill-rule:nonzero;fill:rgb(100%,79.215688%,15.686275%);fill-opacity:1;" d="M 36.929688 8.082031 C 36.617188 8.082031 36.28125 8.125 35.945312 8.214844 C 34.703125 8.546875 33.839844 9.410156 33.890625 10.222656 C 33.476562 13.757812 33.65625 17.636719 34.566406 20.238281 C 34.8125 20.816406 34.949219 21.011719 35.417969 21.011719 C 35.863281 21.011719 36.078125 20.902344 36.265625 20.308594 C 37.378906 17.003906 39.0625 12.234375 38.804688 9.125 C 38.6875 8.472656 37.871094 8.082031 36.929688 8.082031 Z M 43.453125 11.320312 C 43.339844 11.320312 43.222656 11.328125 43.105469 11.339844 C 42.105469 11.445312 41.339844 12.007812 41.277344 12.640625 C 40.535156 15.316406 40.207031 18.324219 40.59375 20.441406 C 40.714844 20.917969 40.796875 21.082031 41.160156 21.136719 C 41.5 21.191406 41.679688 21.132812 41.894531 20.699219 C 43.152344 18.285156 45.023438 14.816406 45.199219 12.386719 C 45.1875 11.867188 44.601562 11.472656 43.878906 11.355469 C 43.742188 11.335938 43.601562 11.324219 43.453125 11.320312 Z M 40.894531 22.082031 C 40.777344 22.082031 40.660156 22.085938 40.542969 22.101562 C 39.457031 22.214844 38.644531 22.871094 38.71875 23.566406 C 38.792969 24.265625 39.726562 24.734375 40.8125 24.617188 C 41.898438 24.5 42.710938 23.84375 42.636719 23.148438 C 42.582031 22.625 42.042969 22.230469 41.316406 22.117188 C 41.183594 22.09375 41.039062 22.082031 40.894531 22.082031 Z M 35.8125 22.21875 C 35.5 22.214844 35.167969 22.257812 34.828125 22.351562 C 33.476562 22.710938 32.574219 23.703125 32.808594 24.570312 C 33.039062 25.4375 34.316406 25.847656 35.667969 25.484375 C 37.019531 25.121094 37.921875 24.132812 37.691406 23.261719 C 37.515625 22.613281 36.753906 22.21875 35.8125 22.21875 Z M 35.8125 22.21875 "/>
</g>
</svg>
