
<svg xmlns="http://www.w3.org/2000/svg" xmlns:xlink="http://www.w3.org/1999/xlink" width="48px" height="48px" viewBox="0 0 48 48" version="1.1">
<g id="surface1">
<path style=" stroke:none;fill-rule:nonzero;fill:rgb(100%,65.490198%,14.901961%);fill-opacity:1;" d="M 23.8125 1.984375 C 35.867188 1.984375 45.640625 11.757812 45.640625 23.8125 C 45.640625 35.867188 35.867188 45.640625 23.8125 45.640625 C 11.757812 45.640625 1.984375 35.867188 1.984375 23.8125 C 1.984375 11.757812 11.757812 1.984375 23.8125 1.984375 Z M 23.8125 1.984375 "/>
<path style=" stroke:none;fill-rule:nonzero;fill:rgb(25.882354%,25.882354%,25.882354%);fill-opacity:1;" d="M 23.8125 3.96875 C 34.773438 3.96875 43.65625 12.851562 43.65625 23.8125 C 43.65625 34.773438 34.773438 43.65625 23.8125 43.65625 C 12.851562 43.65625 3.96875 34.773438 3.96875 23.8125 C 3.96875 12.851562 12.851562 3.96875 23.8125 3.96875 Z M 23.8125 3.96875 "/>
<path style=" stroke:none;fill-rule:nonzero;fill:rgb(93.725491%,32.549021%,31.37255%);fill-opacity:1;" d="M 23.8125 5.953125 C 33.675781 5.953125 41.671875 13.949219 41.671875 23.8125 C 41.671875 33.675781 33.675781 41.671875 23.8125 41.671875 C 13.949219 41.671875 5.953125 33.675781 5.953125 23.8125 C 5.953125 13.949219 13.949219 5.953125 23.8125 5.953125 Z M 23.8125 5.953125 "/>
<path style=" stroke:none;fill-rule:nonzero;fill:rgb(100%,43.921569%,26.274511%);fill-opacity:1;" d="M 23.8125 5.953125 C 13.894531 5.953125 5.914062 13.933594 5.914062 23.851562 C 5.914062 32.269531 11.671875 39.296875 19.480469 41.222656 C 24.574219 32.886719 32.378906 26.398438 41.6875 22.96875 C 41.230469 13.46875 33.429688 5.953125 23.8125 5.953125 Z M 23.8125 5.953125 "/>
<path style=" stroke:none;fill-rule:nonzero;fill:rgb(100%,65.490198%,14.901961%);fill-opacity:1;" d="M 23.8125 5.953125 C 13.894531 5.953125 5.914062 13.933594 5.914062 23.851562 C 5.914062 25.738281 6.203125 27.558594 6.742188 29.265625 C 13.546875 19.613281 24.164062 12.855469 36.4375 11.144531 C 33.207031 7.933594 28.746094 5.953125 23.8125 5.953125 Z M 23.8125 5.953125 "/>
<path style=" stroke:none;fill-rule:nonzero;fill:rgb(25.882354%,25.882354%,25.882354%);fill-opacity:1;" d="M 20.273438 5.59375 C 18.71875 5.570312 17.070312 7.617188 19.621094 9.804688 C 13.617188 9.65625 16.585938 7.457031 17.886719 8.503906 C 16.660156 5.746094 11.542969 8.78125 17.53125 10.570312 C 16.253906 10.949219 12.652344 10.351562 10.902344 14.460938 C 10.636719 15.097656 9.800781 14.546875 9.757812 14.097656 C 9.382812 14.785156 9.574219 15.234375 10.28125 15.921875 C 8 18.027344 8.664062 22.847656 8.4375 23.847656 C 8.222656 24.804688 8.082031 25.722656 6.933594 26.109375 C 7.09375 26.453125 9.039062 27.050781 9.824219 25.714844 C 10.210938 27.300781 10.832031 28.332031 12.101562 29.949219 C 12.234375 32.378906 12.605469 34.46875 10.363281 33.546875 C 10.546875 33.941406 12.714844 36.175781 13.28125 32.832031 C 13.417969 31.976562 13.761719 31.796875 14.636719 32.417969 C 15.730469 33.308594 15.277344 34.339844 15.035156 35.542969 C 15.859375 35.53125 15.960938 34.617188 16.265625 33.960938 C 17.523438 33.617188 23.796875 36.117188 18.714844 37.867188 C 14.824219 38.945312 9.53125 35.074219 9.53125 35.074219 C 12.976562 40.097656 19.894531 42.398438 24.550781 42.804688 C 29.851562 42.636719 35.996094 38.632812 36.835938 35.613281 C 38.613281 28.363281 34.472656 25.582031 29.59375 25.027344 C 25.582031 24.414062 20.972656 26.445312 18.285156 23.847656 C 17.691406 23.207031 16.457031 21.996094 17.953125 19.394531 C 16.570312 19.0625 17.257812 16.914062 17.414062 16.972656 C 17.566406 18.246094 17.925781 20.230469 19.867188 20.117188 C 21.375 19.945312 22.46875 18.746094 23.796875 18.71875 C 26.511719 19.105469 28.941406 22.429688 30.269531 22.929688 C 34.9375 24.359375 34.515625 21.625 34.984375 22.941406 C 35.730469 24.847656 36.207031 29.328125 38.519531 29.433594 C 39.683594 29.429688 40.15625 28.910156 40.445312 28.148438 C 38.234375 29.253906 37.699219 28.277344 37.515625 27.667969 C 41.503906 28.773438 41.867188 23.984375 39.515625 24.367188 C 40.898438 24.855469 40.613281 28.507812 37.328125 26.550781 C 36.011719 25.003906 36.390625 22.765625 34.355469 20.714844 C 34.6875 20.554688 35.304688 20.367188 35.824219 21.636719 C 36.054688 21.558594 36.40625 21.261719 36.417969 20.484375 C 36.347656 20.25 36.519531 20.230469 36.617188 20.144531 C 36.574219 19.855469 36.589844 19.585938 36.710938 19.34375 C 36.710938 19.34375 36.902344 19.152344 36.878906 18.90625 C 36.855469 18.660156 36.445312 18.226562 36.445312 18.226562 C 36.644531 17.964844 36.992188 18.066406 37.328125 18.140625 C 37.054688 17.6875 36.558594 16.574219 36.089844 16.722656 C 34.847656 17.144531 34.957031 16.980469 34.652344 17 C 33.585938 16.449219 32.195312 15.921875 31.410156 15.894531 C 30.726562 15.832031 29.414062 14.304688 29.566406 14.050781 C 29.925781 13.449219 30.507812 13.558594 31.089844 13.589844 C 30.820312 12.640625 30.140625 11.007812 27.972656 11.449219 C 27.8125 10.972656 28.046875 10.5 27.308594 10.023438 C 26.257812 9.535156 24.789062 10.3125 23.109375 9.753906 C 23.015625 9.480469 23.425781 9.203125 23.601562 8.929688 C 22.925781 9.132812 22.472656 9.613281 22.101562 9.976562 C 17.101562 8.503906 20.457031 4.960938 22.003906 7.46875 C 21.824219 6.148438 21.0625 5.605469 20.273438 5.59375 Z M 24.65625 12.863281 C 25.753906 12.871094 26.707031 13.910156 26.878906 13.917969 C 27.074219 13.925781 27.210938 13.953125 27.1875 14.199219 C 27.160156 14.445312 26.375 14.445312 25.640625 14.148438 C 24.902344 13.855469 24.3125 13.757812 23.796875 13.78125 C 23.28125 13.804688 23.304688 13.757812 23.304688 13.757812 C 23.238281 13.710938 23.394531 13.082031 24.3125 12.898438 C 24.429688 12.875 24.542969 12.863281 24.65625 12.863281 Z M 25.914062 16.167969 C 26.070312 16.167969 26.230469 16.183594 26.398438 16.210938 C 28.710938 16.59375 29.921875 19.199219 31.71875 19.882812 C 32.871094 20.289062 32.785156 20.363281 32.796875 20.535156 C 32.808594 20.707031 32.933594 22.167969 32.933594 22.167969 C 32.933594 22.167969 32.417969 22.402344 31.804688 22.117188 C 31.1875 21.835938 27.1875 19.332031 25.785156 18.570312 C 24.386719 17.808594 23.539062 17.441406 23.539062 17.441406 C 23.539062 17.441406 24.40625 16.167969 25.914062 16.167969 Z M 25.914062 16.167969 "/>
<path style=" stroke:none;fill-rule:nonzero;fill:rgb(100%,65.490198%,14.901961%);fill-opacity:1;" d="M 31.75 30.757812 L 31.75 32.742188 L 33.617188 32.742188 L 36.480469 37.703125 L 33.617188 42.664062 L 31.75 42.664062 L 31.75 44.648438 L 36.710938 44.648438 L 36.710938 43.257812 L 38.199219 40.679688 L 39.6875 43.257812 L 39.6875 44.648438 L 44.648438 44.648438 L 44.648438 42.664062 L 42.78125 42.664062 L 39.917969 37.703125 L 42.78125 32.742188 L 44.648438 32.742188 L 44.648438 30.757812 L 39.6875 30.757812 L 39.6875 32.148438 L 38.199219 34.726562 L 36.710938 32.148438 L 36.710938 30.757812 Z M 31.75 30.757812 "/>
<path style=" stroke:none;fill-rule:nonzero;fill:rgb(100%,65.490198%,14.901961%);fill-opacity:1;" d="M 31.75 29.765625 C 31.203125 29.765625 30.757812 30.210938 30.757812 30.757812 L 30.757812 32.742188 C 30.757812 33.289062 31.203125 33.734375 31.75 33.734375 L 33.042969 33.734375 L 35.335938 37.703125 L 33.042969 41.671875 L 31.75 41.671875 C 31.203125 41.671875 30.757812 42.117188 30.757812 42.664062 L 30.757812 44.648438 C 30.757812 45.195312 31.203125 45.640625 31.75 45.640625 L 36.710938 45.640625 C 37.257812 45.640625 37.703125 45.195312 37.703125 44.648438 L 37.703125 43.523438 L 38.199219 42.664062 L 38.695312 43.523438 L 38.695312 44.648438 C 38.695312 45.195312 39.140625 45.640625 39.6875 45.640625 L 44.648438 45.640625 C 45.195312 45.640625 45.640625 45.195312 45.640625 44.648438 L 45.640625 42.664062 C 45.640625 42.117188 45.195312 41.671875 44.648438 41.671875 L 43.355469 41.671875 L 41.0625 37.703125 L 43.355469 33.734375 L 44.648438 33.734375 C 45.195312 33.734375 45.640625 33.289062 45.640625 32.742188 L 45.640625 30.757812 C 45.640625 30.210938 45.195312 29.765625 44.648438 29.765625 L 39.6875 29.765625 C 39.140625 29.765625 38.695312 30.210938 38.695312 30.757812 L 38.695312 31.882812 L 38.199219 32.742188 L 37.703125 31.882812 L 37.703125 30.757812 C 37.703125 30.210938 37.257812 29.765625 36.710938 29.765625 Z M 33.628906 31.75 L 35.71875 31.75 L 35.71875 32.148438 C 35.71875 32.324219 35.765625 32.492188 35.851562 32.644531 L 37.339844 35.222656 C 37.515625 35.53125 37.84375 35.71875 38.199219 35.71875 C 38.554688 35.71875 38.882812 35.53125 39.058594 35.222656 L 40.546875 32.644531 C 40.632812 32.492188 40.679688 32.324219 40.679688 32.148438 L 40.679688 31.75 L 42.78125 31.75 C 42.425781 31.75 42.101562 31.9375 41.921875 32.246094 L 39.058594 37.207031 C 38.882812 37.515625 38.882812 37.890625 39.058594 38.199219 L 41.921875 43.160156 C 42.097656 43.464844 42.417969 43.652344 42.769531 43.65625 L 40.679688 43.65625 L 40.679688 43.257812 C 40.679688 43.082031 40.632812 42.914062 40.546875 42.761719 L 39.058594 40.183594 C 38.882812 39.875 38.554688 39.6875 38.199219 39.6875 C 37.84375 39.6875 37.515625 39.875 37.339844 40.183594 L 35.851562 42.761719 C 35.765625 42.914062 35.71875 43.082031 35.71875 43.257812 L 35.71875 43.65625 L 33.617188 43.65625 C 33.972656 43.65625 34.296875 43.46875 34.476562 43.160156 L 37.339844 38.199219 C 37.515625 37.890625 37.515625 37.515625 37.339844 37.207031 L 34.476562 32.246094 C 34.300781 31.941406 33.980469 31.753906 33.628906 31.75 Z M 33.628906 31.75 "/>
<path style=" stroke:none;fill-rule:nonzero;fill:rgb(25.882354%,25.882354%,25.882354%);fill-opacity:1;" d="M 31.75 30.757812 L 31.75 32.742188 L 33.617188 32.742188 L 36.480469 37.703125 L 33.617188 42.664062 L 31.75 42.664062 L 31.75 44.648438 L 36.710938 44.648438 L 36.710938 43.257812 L 38.199219 40.679688 L 39.6875 43.257812 L 39.6875 44.648438 L 44.648438 44.648438 L 44.648438 42.664062 L 42.78125 42.664062 L 39.917969 37.703125 L 42.78125 32.742188 L 44.648438 32.742188 L 44.648438 30.757812 L 39.6875 30.757812 L 39.6875 32.148438 L 38.199219 34.726562 L 36.710938 32.148438 L 36.710938 30.757812 Z M 31.75 30.757812 "/>
</g>
</svg>
