
<svg xmlns="http://www.w3.org/2000/svg" xmlns:xlink="http://www.w3.org/1999/xlink" width="48px" height="48px" viewBox="0 0 48 48" version="1.1">
<g id="surface1">
<path style=" stroke:none;fill-rule:nonzero;fill:rgb(98.431373%,54.901963%,0%);fill-opacity:1;" d="M 11.351562 27.777344 C -6.785156 39.535156 15.070312 48.882812 12.867188 39.5625 C 13.179688 36.285156 12.660156 26.375 11.351562 27.777344 Z M 11.351562 27.777344 "/>
<path style=" stroke:none;fill-rule:nonzero;fill:rgb(98.431373%,54.901963%,0%);fill-opacity:1;" d="M 40.507812 27.039062 C 52.90625 13.816406 38.316406 4.210938 36.894531 21.484375 C 36.582031 24.757812 39.199219 28.441406 40.507812 27.039062 Z M 40.507812 27.039062 "/>
<path style=" stroke:none;fill-rule:nonzero;fill:rgb(98.431373%,54.901963%,0%);fill-opacity:1;" d="M 27.449219 29.9375 C 10.320312 36.683594 23.394531 49.660156 29.6875 44.394531 C 30.644531 43.496094 28.898438 42.855469 29.007812 42.285156 C 28.882812 40.28125 39.964844 35.074219 27.449219 29.9375 Z M 27.449219 29.9375 "/>
<path style=" stroke:none;fill-rule:nonzero;fill:rgb(100%,79.215688%,15.686275%);fill-opacity:0.997014;" d="M 9.964844 10.402344 C 16.957031 -3.292969 36.375 2.933594 40.398438 12.582031 C 45.640625 26.289062 38.265625 35.265625 32.886719 38.386719 C 19.257812 45.070312 13.390625 40.953125 6.222656 34.847656 C 3.871094 32.589844 4.207031 29.707031 4.871094 26.753906 Z M 9.964844 10.402344 "/>
<path style=" stroke:none;fill-rule:nonzero;fill:rgb(100%,83.529413%,30.980393%);fill-opacity:0.997014;" d="M 23.066406 2.464844 C 17.886719 2.476562 12.859375 4.730469 9.964844 10.402344 L 4.402344 28.871094 C 10.898438 21.449219 14.082031 -2.378906 36.351562 7.332031 C 32.851562 4.394531 27.890625 2.457031 23.066406 2.464844 Z M 23.066406 2.464844 "/>
<path style=" stroke:none;fill-rule:nonzero;fill:rgb(100%,71.764708%,30.19608%);fill-opacity:1;" d="M 7.558594 22.410156 C -6.304688 7.1875 10.410156 -1.105469 11.828125 16.164062 C 12.144531 19.441406 8.867188 23.8125 7.558594 22.410156 Z M 7.558594 22.410156 "/>
<path style=" stroke:none;fill-rule:nonzero;fill:rgb(82.745099%,18.431373%,18.431373%);fill-opacity:1;" d="M 18.164062 22.082031 C 25.257812 22.253906 32.257812 25.328125 37.601562 25.226562 C 30.644531 28.855469 29.644531 34.339844 23.8125 34.5625 C 13.378906 33.878906 16.460938 25.683594 15.5625 22.214844 C 14.96875 19.554688 15.5625 22.214844 18.164062 22.082031 Z M 18.164062 22.082031 "/>
<path style=" stroke:none;fill-rule:nonzero;fill:rgb(81.176472%,84.705883%,86.274511%);fill-opacity:1;" d="M 18.894531 22.117188 L 18.847656 23.8125 C 19.628906 24.53125 20.449219 25.171875 21.308594 25.71875 L 21.804688 25.113281 L 21.769531 26.003906 C 22.496094 26.433594 23.246094 26.796875 24.027344 27.089844 L 24.703125 26.394531 L 24.417969 27.230469 C 25.328125 27.539062 26.269531 27.75 27.25 27.847656 L 27.617188 27.375 L 27.554688 27.875 C 28.574219 27.957031 29.632812 27.917969 30.734375 27.746094 L 30.847656 27.453125 L 30.875 27.722656 C 31.570312 27.609375 32.277344 27.441406 33.003906 27.21875 L 33.878906 24.894531 C 29.492188 23.5 24.578125 22.421875 18.894531 22.117188 Z M 18.894531 22.117188 "/>
<path style=" stroke:none;fill-rule:nonzero;fill:rgb(93.725491%,32.549021%,31.37255%);fill-opacity:1;" d="M 16.46875 23.8125 C 19.460938 26.074219 21.316406 33.863281 25.730469 30.648438 C 29.53125 27.6875 18.894531 22.117188 16.46875 23.8125 Z M 16.46875 23.8125 "/>
<path style=" stroke:none;fill-rule:nonzero;fill:rgb(93.333334%,93.333334%,93.333334%);fill-opacity:1;" d="M 23.746094 23.875 C 23.179688 23.878906 22.480469 24.246094 21.804688 25.113281 L 21.769531 26.003906 C 22.496094 26.433594 23.246094 26.796875 24.027344 27.089844 L 24.703125 26.394531 C 25.359375 24.980469 24.757812 23.859375 23.746094 23.875 Z M 23.746094 23.875 "/>
<path style=" stroke:none;fill-rule:nonzero;fill:rgb(87.843138%,87.843138%,87.843138%);fill-opacity:1;" d="M 16.480469 24.214844 C 16.332031 24.214844 16.1875 24.230469 16.046875 24.265625 L 15.761719 24.242188 C 15.8125 28.160156 15.082031 33.992188 23.8125 34.5625 C 26.25 34.46875 27.839844 33.457031 29.378906 32.046875 C 30.433594 30.253906 29.40625 28.289062 28.804688 26.542969 L 26.453125 27.886719 C 27.714844 30.628906 28.054688 33.308594 23.8125 33.15625 C 19.6875 33.011719 18.105469 29.707031 18.636719 25.703125 C 18.628906 24.960938 17.511719 24.214844 16.480469 24.214844 Z M 16.480469 24.214844 "/>
<path style=" stroke:none;fill-rule:nonzero;fill:rgb(93.333334%,93.333334%,93.333334%);fill-opacity:1;" d="M 26.734375 24.324219 C 26.160156 24.328125 25.4375 24.890625 24.703125 26.394531 L 24.417969 27.230469 C 25.320312 27.539062 26.261719 27.746094 27.234375 27.847656 L 27.617188 27.375 C 28.265625 25.980469 27.726562 24.320312 26.734375 24.324219 Z M 26.734375 24.324219 "/>
<path style=" stroke:none;fill-rule:nonzero;fill:rgb(93.333334%,93.333334%,93.333334%);fill-opacity:1;" d="M 29.789062 24.503906 C 29.109375 24.496094 28.285156 25.246094 27.617188 27.375 L 27.554688 27.875 C 28.546875 27.953125 29.574219 27.917969 30.640625 27.761719 L 30.847656 27.453125 C 31.453125 26.144531 30.78125 24.515625 29.789062 24.503906 Z M 27.617188 27.375 L 27.179688 27.84375 C 27.203125 27.84375 27.226562 27.847656 27.25 27.847656 Z M 27.617188 27.375 "/>
<path style=" stroke:none;fill-rule:nonzero;fill:rgb(93.333334%,93.333334%,93.333334%);fill-opacity:1;" d="M 32.636719 25.128906 C 32.132812 25.148438 31.425781 25.804688 30.847656 27.453125 L 30.875 27.722656 C 31.570312 27.609375 32.277344 27.441406 33.003906 27.21875 L 33.195312 26.707031 C 33.464844 25.769531 33.160156 25.113281 32.636719 25.128906 Z M 30.847656 27.453125 L 30.542969 27.773438 C 30.609375 27.765625 30.671875 27.757812 30.734375 27.746094 Z M 30.847656 27.453125 "/>
<path style=" stroke:none;fill-rule:nonzero;fill:rgb(93.333334%,93.333334%,93.333334%);fill-opacity:1;" d="M 20.847656 22.59375 C 20.277344 22.601562 19.582031 22.964844 18.902344 23.835938 L 18.871094 24.726562 C 19.59375 25.15625 20.347656 25.519531 21.128906 25.8125 L 21.804688 25.113281 C 22.460938 23.703125 21.859375 22.582031 20.847656 22.59375 Z M 20.847656 22.59375 "/>
<path style=" stroke:none;fill-rule:nonzero;fill:rgb(56.470591%,64.313728%,68.235296%);fill-opacity:1;" d="M 17.257812 26.128906 C 16.808594 26.136719 16.339844 26.394531 15.78125 26.828125 C 15.789062 26.992188 15.796875 27.160156 15.808594 27.328125 C 16.757812 26.445312 17.570312 26.238281 18.539062 27.046875 C 18.539062 26.984375 18.539062 26.917969 18.542969 26.851562 C 18.089844 26.339844 17.679688 26.121094 17.257812 26.128906 Z M 28.304688 28.484375 C 27.800781 28.488281 27.304688 28.59375 26.835938 28.804688 C 26.882812 28.925781 26.925781 29.046875 26.964844 29.164062 C 27.867188 28.894531 28.863281 28.886719 29.683594 29.15625 C 29.648438 28.996094 29.605469 28.839844 29.558594 28.683594 C 29.148438 28.550781 28.726562 28.480469 28.304688 28.484375 Z M 17.476562 28.597656 C 16.867188 28.605469 16.484375 28.957031 16.152344 29.59375 C 16.203125 29.777344 16.261719 29.960938 16.324219 30.140625 C 16.746094 29.082031 17.417969 28.65625 18.726562 28.992188 C 18.722656 28.960938 18.714844 28.933594 18.707031 28.902344 C 18.210938 28.691406 17.808594 28.589844 17.476562 28.597656 Z M 28.003906 30.105469 C 27.746094 30.109375 27.484375 30.136719 27.226562 30.195312 C 27.253906 30.347656 27.273438 30.5 27.28125 30.644531 C 28.160156 30.5 29.074219 30.59375 29.785156 30.933594 C 29.808594 30.800781 29.820312 30.667969 29.828125 30.535156 C 29.25 30.25 28.625 30.101562 28.003906 30.105469 Z M 18.839844 30.230469 C 17.820312 30.222656 17.363281 30.601562 16.964844 31.449219 C 17.027344 31.539062 17.089844 31.632812 17.15625 31.722656 C 17.515625 30.90625 18.066406 30.480469 19.203125 30.378906 C 19.183594 30.332031 19.160156 30.289062 19.140625 30.242188 C 19.035156 30.234375 18.933594 30.230469 18.839844 30.230469 Z M 26.996094 32.0625 C 26.957031 32.128906 26.914062 32.191406 26.867188 32.25 C 27.382812 32.378906 27.878906 32.617188 28.328125 32.929688 C 28.453125 32.835938 28.574219 32.738281 28.699219 32.636719 C 28.207031 32.316406 27.632812 32.113281 26.996094 32.0625 Z M 26.996094 32.0625 "/>
<path style=" stroke:none;fill-rule:nonzero;fill:rgb(25.882354%,25.882354%,25.882354%);fill-opacity:1;" d="M 16.535156 11.773438 C 20.554688 12.855469 23.25 14.886719 25.132812 19.386719 C 25.347656 19.929688 25.730469 20.65625 25.199219 20.554688 C 21.878906 19.703125 18.378906 19.324219 14.8125 19.277344 C 16.535156 18.347656 19.746094 18.40625 22.3125 18.8125 C 20.785156 15.742188 18.71875 14.046875 16.535156 11.773438 Z M 16.535156 11.773438 "/>
<path style=" stroke:none;fill-rule:nonzero;fill:rgb(25.882354%,25.882354%,25.882354%);fill-opacity:1;" d="M 40.265625 16.925781 C 37.128906 16.558594 34.671875 17.410156 32.132812 20.605469 C 31.835938 20.996094 31.367188 21.484375 31.773438 21.570312 C 34.351562 21.914062 36.933594 22.710938 39.472656 23.8125 C 38.503906 22.480469 36.210938 21.503906 34.285156 21.023438 C 36.191406 18.921875 38.109375 18.148438 40.265625 16.925781 Z M 40.265625 16.925781 "/>
<path style=" stroke:none;fill-rule:nonzero;fill:rgb(100%,79.215688%,15.686275%);fill-opacity:1;" d="M 5.824219 6.515625 C 3.015625 6.515625 0.753906 10.082031 3.019531 15.597656 C 3.625 16.429688 4.324219 17.285156 5.125 18.167969 C 6.4375 19.570312 9.710938 15.199219 9.398438 11.925781 C 9.265625 10.308594 9 8.917969 8.636719 7.734375 C 7.734375 6.902344 6.75 6.515625 5.824219 6.515625 Z M 5.824219 6.515625 "/>
<path style=" stroke:none;fill-rule:nonzero;fill:rgb(100%,75.686276%,2.745098%);fill-opacity:0.997014;" d="M 39.316406 10.578125 C 44.074219 23.910156 36.851562 32.648438 31.558594 35.722656 C 17.929688 42.402344 12.0625 38.285156 4.894531 32.183594 C 4.761719 32.054688 4.640625 31.925781 4.523438 31.796875 C 4.746094 32.894531 5.257812 33.921875 6.222656 34.847656 C 13.390625 40.953125 19.257812 45.070312 32.886719 38.386719 C 38.265625 35.265625 45.640625 26.289062 40.398438 12.582031 C 40.113281 11.894531 39.746094 11.226562 39.316406 10.578125 Z M 39.316406 10.578125 "/>
<path style=" stroke:none;fill-rule:nonzero;fill:rgb(100%,83.529413%,30.980393%);fill-opacity:1;" d="M 6.761719 20.675781 L 4.871094 26.753906 C 4.207031 29.707031 3.871094 32.589844 6.222656 34.847656 C 7.082031 35.578125 7.917969 36.28125 8.753906 36.9375 C 7.363281 33.886719 5.339844 31.117188 9.273438 25.683594 L 8.175781 22.726562 L 8.613281 20.964844 Z M 6.761719 20.675781 "/>
<path style=" stroke:none;fill-rule:nonzero;fill:rgb(100%,79.215688%,15.686275%);fill-opacity:1;" d="M 4.027344 7.058594 C 1.351562 8.824219 0.570312 14.738281 7.558594 22.410156 C 8.273438 23.175781 9.574219 22.21875 10.558594 20.660156 C 9.925781 21.152344 9.316406 21.285156 8.902344 20.84375 C 3.332031 14.726562 2.699219 9.730469 4.027344 7.058594 Z M 4.027344 7.058594 "/>
<path style=" stroke:none;fill-rule:nonzero;fill:rgb(93.725491%,60.392159%,60.392159%);fill-opacity:1;" d="M 19.996094 27.675781 C 21.261719 29.582031 22.617188 31.210938 24.542969 30.382812 C 22.964844 30.355469 21.171875 29.082031 19.996094 27.675781 Z M 19.996094 27.675781 "/>
</g>
</svg>
