
<svg xmlns="http://www.w3.org/2000/svg" xmlns:xlink="http://www.w3.org/1999/xlink" width="48px" height="48px" viewBox="0 0 48 48" version="1.1">
<g id="surface1">
<path style=" stroke:none;fill-rule:nonzero;fill:rgb(61.960787%,61.960787%,61.960787%);fill-opacity:1;" d="M 8.929688 1.984375 L 38.695312 1.984375 C 39.792969 1.984375 40.679688 2.871094 40.679688 3.96875 L 40.679688 43.65625 C 40.679688 44.753906 39.792969 45.640625 38.695312 45.640625 L 8.929688 45.640625 C 7.832031 45.640625 6.945312 44.753906 6.945312 43.65625 L 6.945312 3.96875 C 6.945312 2.871094 7.832031 1.984375 8.929688 1.984375 Z M 8.929688 1.984375 "/>
<path style=" stroke:none;fill-rule:nonzero;fill:rgb(74.117649%,74.117649%,74.117649%);fill-opacity:1;" d="M 8.929688 1.984375 L 38.695312 1.984375 C 39.792969 1.984375 40.679688 2.871094 40.679688 3.96875 L 40.679688 41.671875 C 40.679688 42.769531 39.792969 43.65625 38.695312 43.65625 L 8.929688 43.65625 C 7.832031 43.65625 6.945312 42.769531 6.945312 41.671875 L 6.945312 3.96875 C 6.945312 2.871094 7.832031 1.984375 8.929688 1.984375 Z M 8.929688 1.984375 "/>
<path style=" stroke:none;fill-rule:nonzero;fill:rgb(93.333334%,93.333334%,93.333334%);fill-opacity:1;" d="M 23.8125 3.96875 C 31.484375 3.96875 37.703125 10.1875 37.703125 17.859375 C 37.703125 25.53125 31.484375 31.75 23.8125 31.75 C 16.140625 31.75 9.921875 25.53125 9.921875 17.859375 C 9.921875 10.1875 16.140625 3.96875 23.8125 3.96875 Z M 23.8125 3.96875 "/>
<path style=" stroke:none;fill-rule:nonzero;fill:rgb(87.843138%,87.843138%,87.843138%);fill-opacity:1;" d="M 23.8125 6.945312 C 29.839844 6.945312 34.726562 11.832031 34.726562 17.859375 C 34.726562 23.886719 29.839844 28.773438 23.8125 28.773438 C 17.785156 28.773438 12.898438 23.886719 12.898438 17.859375 C 12.898438 11.832031 17.785156 6.945312 23.8125 6.945312 Z M 23.8125 6.945312 "/>
<path style=" stroke:none;fill-rule:nonzero;fill:rgb(93.333334%,93.333334%,93.333334%);fill-opacity:1;" d="M 20.566406 23.066406 C 20.417969 22.917969 20.195312 22.875 20.003906 22.960938 L 13.859375 25.753906 C 12.855469 25.765625 11.855469 26.152344 11.089844 26.921875 C 9.535156 28.476562 9.535156 30.980469 11.089844 32.535156 C 12.644531 34.089844 15.148438 34.089844 16.703125 32.535156 C 17.46875 31.765625 17.859375 30.765625 17.867188 29.765625 L 20.664062 23.617188 C 20.746094 23.433594 20.707031 23.210938 20.566406 23.066406 Z M 20.566406 23.066406 "/>
<path style=" stroke:none;fill-rule:nonzero;fill:rgb(45.882353%,45.882353%,45.882353%);fill-opacity:1;" d="M 11.90625 36.710938 C 13.003906 36.710938 13.890625 37.597656 13.890625 38.695312 C 13.890625 39.792969 13.003906 40.679688 11.90625 40.679688 C 10.808594 40.679688 9.921875 39.792969 9.921875 38.695312 C 9.921875 37.597656 10.808594 36.710938 11.90625 36.710938 Z M 11.90625 36.710938 "/>
<path style=" stroke:none;fill-rule:nonzero;fill:rgb(45.882353%,45.882353%,45.882353%);fill-opacity:1;" d="M 35.71875 36.710938 C 36.816406 36.710938 37.703125 37.597656 37.703125 38.695312 C 37.703125 39.792969 36.816406 40.679688 35.71875 40.679688 C 34.621094 40.679688 33.734375 39.792969 33.734375 38.695312 C 33.734375 37.597656 34.621094 36.710938 35.71875 36.710938 Z M 35.71875 36.710938 "/>
<path style=" stroke:none;fill-rule:nonzero;fill:rgb(45.882353%,45.882353%,45.882353%);fill-opacity:1;" d="M 17.859375 35.71875 L 29.765625 35.71875 C 30.3125 35.71875 30.757812 36.164062 30.757812 36.710938 C 30.757812 37.257812 30.3125 37.703125 29.765625 37.703125 L 17.859375 37.703125 C 17.3125 37.703125 16.867188 37.257812 16.867188 36.710938 C 16.867188 36.164062 17.3125 35.71875 17.859375 35.71875 Z M 17.859375 35.71875 "/>
<path style=" stroke:none;fill-rule:nonzero;fill:rgb(74.117649%,74.117649%,74.117649%);fill-opacity:1;" d="M 11.90625 37.703125 C 12.453125 37.703125 12.898438 38.148438 12.898438 38.695312 C 12.898438 39.242188 12.453125 39.6875 11.90625 39.6875 C 11.359375 39.6875 10.914062 39.242188 10.914062 38.695312 C 10.914062 38.148438 11.359375 37.703125 11.90625 37.703125 Z M 11.90625 37.703125 "/>
<path style=" stroke:none;fill-rule:nonzero;fill:rgb(74.117649%,74.117649%,74.117649%);fill-opacity:1;" d="M 35.71875 37.703125 C 36.265625 37.703125 36.710938 38.148438 36.710938 38.695312 C 36.710938 39.242188 36.265625 39.6875 35.71875 39.6875 C 35.171875 39.6875 34.726562 39.242188 34.726562 38.695312 C 34.726562 38.148438 35.171875 37.703125 35.71875 37.703125 Z M 35.71875 37.703125 "/>
<path style=" stroke:none;fill-rule:nonzero;fill:rgb(93.725491%,32.549021%,31.37255%);fill-opacity:1;" d="M 22.820312 9.921875 C 22.269531 9.921875 21.828125 10.363281 21.828125 10.914062 L 21.828125 15.875 L 16.867188 15.875 C 16.316406 15.875 15.875 16.316406 15.875 16.867188 L 15.875 18.851562 C 15.875 19.402344 16.316406 19.84375 16.867188 19.84375 L 21.828125 19.84375 L 21.828125 24.804688 C 21.828125 25.355469 22.269531 25.796875 22.820312 25.796875 L 24.804688 25.796875 C 25.355469 25.796875 25.796875 25.355469 25.796875 24.804688 L 25.796875 19.84375 L 30.757812 19.84375 C 31.308594 19.84375 31.75 19.402344 31.75 18.851562 L 31.75 16.867188 C 31.75 16.316406 31.308594 15.875 30.757812 15.875 L 25.796875 15.875 L 25.796875 10.914062 C 25.796875 10.363281 25.355469 9.921875 24.804688 9.921875 Z M 22.820312 9.921875 "/>
</g>
</svg>
