
<svg xmlns="http://www.w3.org/2000/svg" xmlns:xlink="http://www.w3.org/1999/xlink" width="48px" height="48px" viewBox="0 0 48 48" version="1.1">
<g id="surface1">
<path style=" stroke:none;fill-rule:nonzero;fill:rgb(25.882354%,25.882354%,25.882354%);fill-opacity:1;" d="M 25.53125 15.644531 C 22 15.644531 19.15625 18.488281 19.15625 22.019531 L 19.15625 32.945312 C 19.15625 33.953125 19.96875 34.765625 20.976562 34.765625 L 21.886719 34.765625 C 22.894531 34.765625 23.707031 33.953125 23.707031 32.945312 L 23.707031 23.601562 C 23.707031 23.351562 23.910156 23.148438 24.164062 23.148438 C 24.417969 23.148438 24.617188 23.351562 24.617188 23.601562 L 24.617188 32.945312 C 24.617188 33.953125 25.429688 34.765625 26.441406 34.765625 L 37.367188 34.765625 C 38.375 34.765625 39.1875 33.953125 39.1875 32.945312 L 39.1875 23.601562 C 39.1875 23.351562 39.390625 23.148438 39.644531 23.148438 C 39.898438 23.148438 40.101562 23.351562 40.101562 23.601562 L 40.101562 32.945312 C 40.101562 33.953125 40.910156 34.765625 41.921875 34.765625 L 42.832031 34.765625 C 43.839844 34.765625 44.652344 33.953125 44.652344 32.945312 L 44.652344 22.019531 C 44.652344 18.488281 41.808594 15.644531 38.277344 15.644531 Z M 25.53125 15.644531 "/>
<path style=" stroke:none;fill-rule:nonzero;fill:rgb(25.882354%,25.882354%,25.882354%);fill-opacity:1;" d="M 31.902344 1.984375 C 35.425781 1.984375 38.277344 4.839844 38.277344 8.359375 C 38.277344 11.878906 35.425781 14.734375 31.902344 14.734375 C 28.382812 14.734375 25.53125 11.878906 25.53125 8.359375 C 25.53125 4.839844 28.382812 1.984375 31.902344 1.984375 Z M 31.902344 1.984375 "/>
<path style=" stroke:none;fill-rule:nonzero;fill:rgb(12.941177%,58.823532%,95.294118%);fill-opacity:1;" d="M 9.40625 26.519531 C 5.875 26.519531 3.03125 29.359375 3.03125 32.890625 L 3.03125 43.820312 C 3.03125 44.828125 3.84375 45.640625 4.851562 45.640625 L 5.765625 45.640625 C 6.773438 45.640625 7.585938 44.828125 7.585938 43.820312 L 7.585938 33.347656 C 7.585938 33.09375 7.789062 32.890625 8.039062 32.890625 C 8.292969 32.890625 8.496094 33.09375 8.496094 33.347656 L 8.496094 43.820312 C 8.496094 44.828125 9.308594 45.640625 10.316406 45.640625 L 21.246094 45.640625 C 22.253906 45.640625 23.066406 44.828125 23.066406 43.820312 L 23.066406 33.347656 C 23.066406 33.09375 23.269531 32.890625 23.519531 32.890625 C 23.773438 32.890625 23.976562 33.09375 23.976562 33.347656 L 23.976562 43.820312 C 23.976562 44.828125 24.789062 45.640625 25.796875 45.640625 L 26.707031 45.640625 C 27.71875 45.640625 28.53125 44.828125 28.53125 43.820312 L 28.53125 32.890625 C 28.53125 29.359375 25.6875 26.519531 22.15625 26.519531 Z M 9.40625 26.519531 "/>
<path style=" stroke:none;fill-rule:nonzero;fill:rgb(12.941177%,58.823532%,95.294118%);fill-opacity:1;" d="M 15.78125 12.859375 C 19.300781 12.859375 22.15625 15.710938 22.15625 19.234375 C 22.15625 22.753906 19.300781 25.605469 15.78125 25.605469 C 12.261719 25.605469 9.40625 22.753906 9.40625 19.234375 C 9.40625 15.710938 12.261719 12.859375 15.78125 12.859375 Z M 15.78125 12.859375 "/>
</g>
</svg>
