
<svg xmlns="http://www.w3.org/2000/svg" xmlns:xlink="http://www.w3.org/1999/xlink" width="48px" height="48px" viewBox="0 0 48 48" version="1.1">
<g id="surface1">
<path style=" stroke:none;fill-rule:nonzero;fill:rgb(87.843138%,87.843138%,87.843138%);fill-opacity:1;" d="M 7.9375 1.984375 L 39.6875 1.984375 C 42.976562 1.984375 45.640625 4.648438 45.640625 7.9375 L 45.640625 39.6875 C 45.640625 42.976562 42.976562 45.640625 39.6875 45.640625 L 7.9375 45.640625 C 4.648438 45.640625 1.984375 42.976562 1.984375 39.6875 L 1.984375 7.9375 C 1.984375 4.648438 4.648438 1.984375 7.9375 1.984375 Z M 7.9375 1.984375 "/>
<path style=" stroke:none;fill-rule:nonzero;fill:rgb(93.333334%,93.333334%,93.333334%);fill-opacity:1;" d="M 23.8125 3.96875 C 34.773438 3.96875 43.65625 12.851562 43.65625 23.8125 C 43.65625 34.773438 34.773438 43.65625 23.8125 43.65625 C 12.851562 43.65625 3.96875 34.773438 3.96875 23.8125 C 3.96875 12.851562 12.851562 3.96875 23.8125 3.96875 Z M 23.8125 3.96875 "/>
<path style=" stroke:none;fill-rule:nonzero;fill:rgb(14.901961%,65.098041%,60.392159%);fill-opacity:1;" d="M 21.578125 8.09375 C 19.679688 8.839844 18.46875 9.746094 17.765625 10.625 C 16.84375 11.777344 16.636719 12.902344 16.902344 14.246094 C 17.4375 16.941406 20.484375 20.328125 24.574219 21.96875 C 29.839844 24.082031 33.015625 28.691406 33.019531 33.433594 C 33.023438 34.742188 32.761719 36.046875 32.25 37.28125 C 38.03125 33.6875 41.027344 26.632812 39.167969 19.699219 C 37.058594 11.824219 29.449219 6.945312 21.578125 8.09375 Z M 12.914062 12.269531 C 8.816406 16.140625 6.933594 22.070312 8.5 27.917969 C 10.507812 35.414062 17.496094 40.191406 24.945312 39.652344 C 27.953125 38.109375 29.054688 35.789062 29.050781 33.4375 C 29.050781 30.476562 27.039062 27.234375 23.097656 25.652344 C 17.976562 23.597656 13.925781 19.640625 13.007812 15.019531 C 12.832031 14.121094 12.796875 13.191406 12.914062 12.269531 Z M 12.914062 12.269531 "/>
</g>
</svg>
