
<svg xmlns="http://www.w3.org/2000/svg" xmlns:xlink="http://www.w3.org/1999/xlink" width="48px" height="48px" viewBox="0 0 48 48" version="1.1">
<g id="surface1">
<path style=" stroke:none;fill-rule:nonzero;fill:rgb(87.843138%,87.843138%,87.843138%);fill-opacity:1;" d="M 1.984375 13.273438 L 1.984375 41.242188 C 1.984375 42.238281 2.871094 43.039062 3.96875 43.039062 L 43.65625 43.039062 C 44.753906 43.039062 45.640625 42.238281 45.640625 41.242188 L 45.640625 13.273438 Z M 1.984375 13.273438 "/>
<path style=" stroke:none;fill-rule:nonzero;fill:rgb(25.882354%,25.882354%,25.882354%);fill-opacity:1;" d="M 3.96875 5.335938 C 2.871094 5.335938 1.984375 6.222656 1.984375 7.320312 L 1.984375 13.273438 L 45.640625 13.273438 L 45.640625 7.320312 C 45.640625 6.222656 44.753906 5.335938 43.65625 5.335938 Z M 3.96875 5.335938 "/>
<path style=" stroke:none;fill-rule:nonzero;fill:rgb(93.725491%,32.549021%,31.37255%);fill-opacity:1;" d="M 43.28125 7.199219 C 43.472656 7.394531 43.472656 7.707031 43.28125 7.902344 L 39.773438 11.410156 C 39.578125 11.601562 39.265625 11.601562 39.070312 11.410156 C 38.878906 11.214844 38.878906 10.902344 39.070312 10.707031 L 42.578125 7.199219 C 42.773438 7.007812 43.085938 7.007812 43.28125 7.199219 Z M 43.28125 7.199219 "/>
<path style=" stroke:none;fill-rule:nonzero;fill:rgb(93.725491%,32.549021%,31.37255%);fill-opacity:1;" d="M 43.28125 11.410156 C 43.085938 11.601562 42.773438 11.601562 42.578125 11.410156 L 39.070312 7.902344 C 38.878906 7.707031 38.878906 7.394531 39.070312 7.199219 C 39.265625 7.007812 39.578125 7.007812 39.773438 7.199219 L 43.28125 10.707031 C 43.472656 10.902344 43.472656 11.214844 43.28125 11.410156 Z M 43.28125 11.410156 "/>
<path style=" stroke:none;fill-rule:nonzero;fill:rgb(16.078432%,71.372551%,96.470588%);fill-opacity:1;" d="M 1.984375 13.273438 L 45.640625 13.273438 L 45.640625 13.769531 L 1.984375 13.769531 Z M 1.984375 13.273438 "/>
<path style=" stroke:none;fill-rule:nonzero;fill:rgb(93.333334%,93.333334%,93.333334%);fill-opacity:0.986239;" d="M 2.976562 13.769531 L 2.976562 41.054688 C 2.976562 41.605469 3.417969 42.046875 3.96875 42.046875 L 43.65625 42.046875 C 44.207031 42.046875 44.648438 41.605469 44.648438 41.054688 L 44.648438 13.769531 Z M 2.976562 13.769531 "/>
<path style=" stroke:none;fill-rule:nonzero;fill:rgb(25.882354%,25.882354%,25.882354%);fill-opacity:1;" d="M 35.71875 22.820312 C 35.71875 23.367188 35.273438 23.8125 34.726562 23.8125 L 14.882812 23.8125 C 14.335938 23.8125 13.890625 23.367188 13.890625 22.820312 C 13.890625 22.273438 14.335938 21.828125 14.882812 21.828125 L 34.726562 21.828125 C 35.273438 21.828125 35.71875 22.273438 35.71875 22.820312 Z M 35.71875 22.820312 "/>
<path style=" stroke:none;fill-rule:nonzero;fill:rgb(25.882354%,25.882354%,25.882354%);fill-opacity:1;" d="M 35.71875 32.742188 C 35.71875 33.289062 35.273438 33.734375 34.726562 33.734375 L 14.882812 33.734375 C 14.335938 33.734375 13.890625 33.289062 13.890625 32.742188 C 13.890625 32.195312 14.335938 31.75 14.882812 31.75 L 34.726562 31.75 C 35.273438 31.75 35.71875 32.195312 35.71875 32.742188 Z M 35.71875 32.742188 "/>
<path style=" stroke:none;fill-rule:nonzero;fill:rgb(40.000001%,73.333335%,41.568628%);fill-opacity:1;" d="M 30.757812 32.742188 C 30.757812 33.289062 30.3125 33.734375 29.765625 33.734375 L 14.882812 33.734375 C 14.335938 33.734375 13.890625 33.289062 13.890625 32.742188 C 13.890625 32.195312 14.335938 31.75 14.882812 31.75 L 29.765625 31.75 C 30.3125 31.75 30.757812 32.195312 30.757812 32.742188 Z M 30.757812 32.742188 "/>
<path style=" stroke:none;fill-rule:nonzero;fill:rgb(40.000001%,73.333335%,41.568628%);fill-opacity:1;" d="M 33.734375 32.742188 C 33.734375 34.386719 32.402344 35.71875 30.757812 35.71875 C 29.113281 35.71875 27.78125 34.386719 27.78125 32.742188 C 27.78125 31.097656 29.113281 29.765625 30.757812 29.765625 C 32.402344 29.765625 33.734375 31.097656 33.734375 32.742188 Z M 33.734375 32.742188 "/>
<path style=" stroke:none;fill-rule:nonzero;fill:rgb(40.000001%,73.333335%,41.568628%);fill-opacity:1;" d="M 35.71875 22.820312 C 35.71875 23.367188 35.273438 23.8125 34.726562 23.8125 L 19.84375 23.8125 C 19.296875 23.8125 18.851562 23.367188 18.851562 22.820312 C 18.851562 22.273438 19.296875 21.828125 19.84375 21.828125 L 34.726562 21.828125 C 35.273438 21.828125 35.71875 22.273438 35.71875 22.820312 Z M 35.71875 22.820312 "/>
<path style=" stroke:none;fill-rule:nonzero;fill:rgb(40.000001%,73.333335%,41.568628%);fill-opacity:1;" d="M 21.828125 22.820312 C 21.828125 24.464844 20.496094 25.796875 18.851562 25.796875 C 17.207031 25.796875 15.875 24.464844 15.875 22.820312 C 15.875 21.175781 17.207031 19.84375 18.851562 19.84375 C 20.496094 19.84375 21.828125 21.175781 21.828125 22.820312 Z M 21.828125 22.820312 "/>
</g>
</svg>
