
<svg xmlns="http://www.w3.org/2000/svg" xmlns:xlink="http://www.w3.org/1999/xlink" width="48px" height="48px" viewBox="0 0 48 48" version="1.1">
<g id="surface1">
<path style=" stroke:none;fill-rule:nonzero;fill:rgb(92.54902%,25.098041%,47.843137%);fill-opacity:1;" d="M 18.355469 1.984375 C 15.605469 1.984375 13.394531 3.53125 13.394531 5.457031 C 13.394531 7.441406 18.355469 9.425781 13.394531 12.898438 L 4.960938 12.898438 C 3.3125 12.898438 1.984375 14.226562 1.984375 15.875 L 1.984375 24.308594 C 5.457031 29.269531 7.441406 24.308594 9.425781 24.308594 C 11.351562 24.308594 12.898438 26.519531 12.898438 29.269531 C 12.898438 32.019531 11.351562 34.230469 9.425781 34.230469 C 7.441406 34.230469 5.457031 29.269531 1.984375 34.230469 L 1.984375 42.664062 C 1.984375 44.3125 3.3125 45.640625 4.960938 45.640625 L 13.394531 45.640625 C 18.355469 42.167969 13.394531 40.183594 13.394531 38.199219 C 13.394531 36.273438 15.605469 34.726562 18.355469 34.726562 C 21.105469 34.726562 23.316406 36.273438 23.316406 38.199219 C 23.316406 40.183594 18.355469 42.167969 23.316406 45.640625 L 31.75 45.640625 C 33.398438 45.640625 34.726562 44.3125 34.726562 42.664062 L 34.726562 34.230469 C 38.199219 29.269531 40.183594 34.230469 42.167969 34.230469 C 44.09375 34.230469 45.640625 32.019531 45.640625 29.269531 C 45.640625 26.519531 44.09375 24.308594 42.167969 24.308594 C 40.183594 24.308594 38.199219 29.269531 34.726562 24.308594 L 34.726562 15.875 C 34.726562 14.226562 33.398438 12.898438 31.75 12.898438 L 23.316406 12.898438 C 18.355469 9.425781 23.316406 7.441406 23.316406 5.457031 C 23.316406 3.53125 21.105469 1.984375 18.355469 1.984375 Z M 18.355469 1.984375 "/>
</g>
</svg>
