
<svg xmlns="http://www.w3.org/2000/svg" xmlns:xlink="http://www.w3.org/1999/xlink" width="48px" height="48px" viewBox="0 0 48 48" version="1.1">
<g id="surface1">
<path style=" stroke:none;fill-rule:nonzero;fill:rgb(74.117649%,74.117649%,74.117649%);fill-opacity:1;" d="M 7.9375 2.359375 C 7.386719 2.359375 6.945312 2.800781 6.945312 3.351562 L 6.945312 7.320312 L 2.976562 7.320312 C 2.425781 7.320312 1.984375 7.761719 1.984375 8.3125 C 1.984375 8.863281 2.425781 9.304688 2.976562 9.304688 L 6.945312 9.304688 L 6.945312 11.289062 L 2.976562 11.289062 C 2.425781 11.289062 1.984375 11.730469 1.984375 12.28125 C 1.984375 12.832031 2.425781 13.273438 2.976562 13.273438 L 6.945312 13.273438 L 6.945312 15.257812 L 2.976562 15.257812 C 2.425781 15.257812 1.984375 15.699219 1.984375 16.25 C 1.984375 16.800781 2.425781 17.242188 2.976562 17.242188 L 6.945312 17.242188 L 6.945312 19.226562 L 2.976562 19.226562 C 2.425781 19.226562 1.984375 19.667969 1.984375 20.21875 C 1.984375 20.769531 2.425781 21.210938 2.976562 21.210938 L 6.945312 21.210938 L 6.945312 23.195312 L 2.976562 23.195312 C 2.425781 23.195312 1.984375 23.636719 1.984375 24.1875 C 1.984375 24.738281 2.425781 25.179688 2.976562 25.179688 L 6.945312 25.179688 L 6.945312 27.164062 L 2.976562 27.164062 C 2.425781 27.164062 1.984375 27.605469 1.984375 28.15625 C 1.984375 28.707031 2.425781 29.148438 2.976562 29.148438 L 6.945312 29.148438 L 6.945312 31.132812 L 2.976562 31.132812 C 2.425781 31.132812 1.984375 31.574219 1.984375 32.125 C 1.984375 32.675781 2.425781 33.117188 2.976562 33.117188 L 6.945312 33.117188 L 6.945312 35.101562 L 2.976562 35.101562 C 2.425781 35.101562 1.984375 35.542969 1.984375 36.09375 C 1.984375 36.644531 2.425781 37.085938 2.976562 37.085938 L 6.945312 37.085938 L 6.945312 39.070312 L 2.976562 39.070312 C 2.425781 39.070312 1.984375 39.511719 1.984375 40.0625 C 1.984375 40.613281 2.425781 41.054688 2.976562 41.054688 L 6.945312 41.054688 L 6.945312 45.023438 C 6.945312 45.574219 7.386719 46.015625 7.9375 46.015625 C 8.488281 46.015625 8.929688 45.574219 8.929688 45.023438 L 8.929688 41.054688 L 10.914062 41.054688 L 10.914062 45.023438 C 10.914062 45.574219 11.355469 46.015625 11.90625 46.015625 C 12.457031 46.015625 12.898438 45.574219 12.898438 45.023438 L 12.898438 41.054688 L 14.882812 41.054688 L 14.882812 45.023438 C 14.882812 45.574219 15.324219 46.015625 15.875 46.015625 C 16.425781 46.015625 16.867188 45.574219 16.867188 45.023438 L 16.867188 41.054688 L 18.851562 41.054688 L 18.851562 45.023438 C 18.851562 45.574219 19.292969 46.015625 19.84375 46.015625 C 20.394531 46.015625 20.835938 45.574219 20.835938 45.023438 L 20.835938 41.054688 L 22.820312 41.054688 L 22.820312 45.023438 C 22.820312 45.574219 23.261719 46.015625 23.8125 46.015625 C 24.363281 46.015625 24.804688 45.574219 24.804688 45.023438 L 24.804688 41.054688 L 26.789062 41.054688 L 26.789062 45.023438 C 26.789062 45.574219 27.230469 46.015625 27.78125 46.015625 C 28.332031 46.015625 28.773438 45.574219 28.773438 45.023438 L 28.773438 41.054688 L 30.757812 41.054688 L 30.757812 45.023438 C 30.757812 45.574219 31.199219 46.015625 31.75 46.015625 C 32.300781 46.015625 32.742188 45.574219 32.742188 45.023438 L 32.742188 41.054688 L 34.726562 41.054688 L 34.726562 45.023438 C 34.726562 45.574219 35.167969 46.015625 35.71875 46.015625 C 36.269531 46.015625 36.710938 45.574219 36.710938 45.023438 L 36.710938 41.054688 L 38.695312 41.054688 L 38.695312 45.023438 C 38.695312 45.574219 39.136719 46.015625 39.6875 46.015625 C 40.238281 46.015625 40.679688 45.574219 40.679688 45.023438 L 40.679688 41.054688 L 44.648438 41.054688 C 45.199219 41.054688 45.640625 40.613281 45.640625 40.0625 C 45.640625 39.511719 45.199219 39.070312 44.648438 39.070312 L 40.679688 39.070312 L 40.679688 37.085938 L 44.648438 37.085938 C 45.199219 37.085938 45.640625 36.644531 45.640625 36.09375 C 45.640625 35.542969 45.199219 35.101562 44.648438 35.101562 L 40.679688 35.101562 L 40.679688 33.117188 L 44.648438 33.117188 C 45.199219 33.117188 45.640625 32.675781 45.640625 32.125 C 45.640625 31.574219 45.199219 31.132812 44.648438 31.132812 L 40.679688 31.132812 L 40.679688 29.148438 L 44.648438 29.148438 C 45.199219 29.148438 45.640625 28.707031 45.640625 28.15625 C 45.640625 27.605469 45.199219 27.164062 44.648438 27.164062 L 40.679688 27.164062 L 40.679688 25.179688 L 44.648438 25.179688 C 45.199219 25.179688 45.640625 24.738281 45.640625 24.1875 C 45.640625 23.636719 45.199219 23.195312 44.648438 23.195312 L 40.679688 23.195312 L 40.679688 21.210938 L 44.648438 21.210938 C 45.199219 21.210938 45.640625 20.769531 45.640625 20.21875 C 45.640625 19.667969 45.199219 19.226562 44.648438 19.226562 L 40.679688 19.226562 L 40.679688 17.242188 L 44.648438 17.242188 C 45.199219 17.242188 45.640625 16.800781 45.640625 16.25 C 45.640625 15.699219 45.199219 15.257812 44.648438 15.257812 L 40.679688 15.257812 L 40.679688 13.273438 L 44.648438 13.273438 C 45.199219 13.273438 45.640625 12.832031 45.640625 12.28125 C 45.640625 11.730469 45.199219 11.289062 44.648438 11.289062 L 40.679688 11.289062 L 40.679688 9.304688 L 44.648438 9.304688 C 45.199219 9.304688 45.640625 8.863281 45.640625 8.3125 C 45.640625 7.761719 45.199219 7.320312 44.648438 7.320312 L 40.679688 7.320312 L 40.679688 3.351562 C 40.679688 2.800781 40.238281 2.359375 39.6875 2.359375 C 39.136719 2.359375 38.695312 2.800781 38.695312 3.351562 L 38.695312 7.320312 L 36.710938 7.320312 L 36.710938 3.351562 C 36.710938 2.800781 36.269531 2.359375 35.71875 2.359375 C 35.167969 2.359375 34.726562 2.800781 34.726562 3.351562 L 34.726562 7.320312 L 32.742188 7.320312 L 32.742188 3.351562 C 32.742188 2.800781 32.300781 2.359375 31.75 2.359375 C 31.199219 2.359375 30.757812 2.800781 30.757812 3.351562 L 30.757812 7.320312 L 28.773438 7.320312 L 28.773438 3.351562 C 28.773438 2.800781 28.332031 2.359375 27.78125 2.359375 C 27.230469 2.359375 26.789062 2.800781 26.789062 3.351562 L 26.789062 7.320312 L 24.804688 7.320312 L 24.804688 3.351562 C 24.804688 2.800781 24.363281 2.359375 23.8125 2.359375 C 23.261719 2.359375 22.820312 2.800781 22.820312 3.351562 L 22.820312 7.320312 L 20.835938 7.320312 L 20.835938 3.351562 C 20.835938 2.800781 20.394531 2.359375 19.84375 2.359375 C 19.292969 2.359375 18.851562 2.800781 18.851562 3.351562 L 18.851562 7.320312 L 16.867188 7.320312 L 16.867188 3.351562 C 16.867188 2.800781 16.425781 2.359375 15.875 2.359375 C 15.324219 2.359375 14.882812 2.800781 14.882812 3.351562 L 14.882812 7.320312 L 12.898438 7.320312 L 12.898438 3.351562 C 12.898438 2.800781 12.457031 2.359375 11.90625 2.359375 C 11.355469 2.359375 10.914062 2.800781 10.914062 3.351562 L 10.914062 7.320312 L 8.929688 7.320312 L 8.929688 3.351562 C 8.929688 2.800781 8.488281 2.359375 7.9375 2.359375 Z M 8.929688 9.304688 L 10.914062 9.304688 L 10.914062 11.289062 L 8.929688 11.289062 Z M 12.898438 9.304688 L 14.882812 9.304688 L 14.882812 11.289062 L 12.898438 11.289062 Z M 16.867188 9.304688 L 18.851562 9.304688 L 18.851562 11.289062 L 16.867188 11.289062 Z M 20.835938 9.304688 L 22.820312 9.304688 L 22.820312 11.289062 L 20.835938 11.289062 Z M 24.804688 9.304688 L 26.789062 9.304688 L 26.789062 11.289062 L 24.804688 11.289062 Z M 28.773438 9.304688 L 30.757812 9.304688 L 30.757812 11.289062 L 28.773438 11.289062 Z M 32.742188 9.304688 L 34.726562 9.304688 L 34.726562 11.289062 L 32.742188 11.289062 Z M 36.710938 9.304688 L 38.695312 9.304688 L 38.695312 11.289062 L 36.710938 11.289062 Z M 8.929688 13.273438 L 10.914062 13.273438 L 10.914062 15.257812 L 8.929688 15.257812 Z M 12.898438 13.273438 L 14.882812 13.273438 L 14.882812 15.257812 L 12.898438 15.257812 Z M 16.867188 13.273438 L 18.851562 13.273438 L 18.851562 15.257812 L 16.867188 15.257812 Z M 20.835938 13.273438 L 22.820312 13.273438 L 22.820312 15.257812 L 20.835938 15.257812 Z M 24.804688 13.273438 L 26.789062 13.273438 L 26.789062 15.257812 L 24.804688 15.257812 Z M 28.773438 13.273438 L 30.757812 13.273438 L 30.757812 15.257812 L 28.773438 15.257812 Z M 32.742188 13.273438 L 34.726562 13.273438 L 34.726562 15.257812 L 32.742188 15.257812 Z M 36.710938 13.273438 L 38.695312 13.273438 L 38.695312 15.257812 L 36.710938 15.257812 Z M 8.929688 17.242188 L 10.914062 17.242188 L 10.914062 19.226562 L 8.929688 19.226562 Z M 12.898438 17.242188 L 14.882812 17.242188 L 14.882812 19.226562 L 12.898438 19.226562 Z M 16.867188 17.242188 L 18.851562 17.242188 L 18.851562 19.226562 L 16.867188 19.226562 Z M 20.835938 17.242188 L 22.820312 17.242188 L 22.820312 19.226562 L 20.835938 19.226562 Z M 24.804688 17.242188 L 26.789062 17.242188 L 26.789062 19.226562 L 24.804688 19.226562 Z M 28.773438 17.242188 L 30.757812 17.242188 L 30.757812 19.226562 L 28.773438 19.226562 Z M 32.742188 17.242188 L 34.726562 17.242188 L 34.726562 19.226562 L 32.742188 19.226562 Z M 36.710938 17.242188 L 38.695312 17.242188 L 38.695312 19.226562 L 36.710938 19.226562 Z M 8.929688 21.210938 L 10.914062 21.210938 L 10.914062 23.195312 L 8.929688 23.195312 Z M 12.898438 21.210938 L 14.882812 21.210938 L 14.882812 23.195312 L 12.898438 23.195312 Z M 16.867188 21.210938 L 18.851562 21.210938 L 18.851562 23.195312 L 16.867188 23.195312 Z M 20.835938 21.210938 L 22.820312 21.210938 L 22.820312 23.195312 L 20.835938 23.195312 Z M 24.804688 21.210938 L 26.789062 21.210938 L 26.789062 23.195312 L 24.804688 23.195312 Z M 28.773438 21.210938 L 30.757812 21.210938 L 30.757812 23.195312 L 28.773438 23.195312 Z M 32.742188 21.210938 L 34.726562 21.210938 L 34.726562 23.195312 L 32.742188 23.195312 Z M 36.710938 21.210938 L 38.695312 21.210938 L 38.695312 23.195312 L 36.710938 23.195312 Z M 8.929688 25.179688 L 10.914062 25.179688 L 10.914062 27.164062 L 8.929688 27.164062 Z M 12.898438 25.179688 L 14.882812 25.179688 L 14.882812 27.164062 L 12.898438 27.164062 Z M 16.867188 25.179688 L 18.851562 25.179688 L 18.851562 27.164062 L 16.867188 27.164062 Z M 20.835938 25.179688 L 22.820312 25.179688 L 22.820312 27.164062 L 20.835938 27.164062 Z M 24.804688 25.179688 L 26.789062 25.179688 L 26.789062 27.164062 L 24.804688 27.164062 Z M 28.773438 25.179688 L 30.757812 25.179688 L 30.757812 27.164062 L 28.773438 27.164062 Z M 32.742188 25.179688 L 34.726562 25.179688 L 34.726562 27.164062 L 32.742188 27.164062 Z M 36.710938 25.179688 L 38.695312 25.179688 L 38.695312 27.164062 L 36.710938 27.164062 Z M 8.929688 29.148438 L 10.914062 29.148438 L 10.914062 31.132812 L 8.929688 31.132812 Z M 12.898438 29.148438 L 14.882812 29.148438 L 14.882812 31.132812 L 12.898438 31.132812 Z M 16.867188 29.148438 L 18.851562 29.148438 L 18.851562 31.132812 L 16.867188 31.132812 Z M 20.835938 29.148438 L 22.820312 29.148438 L 22.820312 31.132812 L 20.835938 31.132812 Z M 24.804688 29.148438 L 26.789062 29.148438 L 26.789062 31.132812 L 24.804688 31.132812 Z M 28.773438 29.148438 L 30.757812 29.148438 L 30.757812 31.132812 L 28.773438 31.132812 Z M 32.742188 29.148438 L 34.726562 29.148438 L 34.726562 31.132812 L 32.742188 31.132812 Z M 36.710938 29.148438 L 38.695312 29.148438 L 38.695312 31.132812 L 36.710938 31.132812 Z M 8.929688 33.117188 L 10.914062 33.117188 L 10.914062 35.101562 L 8.929688 35.101562 Z M 12.898438 33.117188 L 14.882812 33.117188 L 14.882812 35.101562 L 12.898438 35.101562 Z M 16.867188 33.117188 L 18.851562 33.117188 L 18.851562 35.101562 L 16.867188 35.101562 Z M 20.835938 33.117188 L 22.820312 33.117188 L 22.820312 35.101562 L 20.835938 35.101562 Z M 24.804688 33.117188 L 26.789062 33.117188 L 26.789062 35.101562 L 24.804688 35.101562 Z M 28.773438 33.117188 L 30.757812 33.117188 L 30.757812 35.101562 L 28.773438 35.101562 Z M 32.742188 33.117188 L 34.726562 33.117188 L 34.726562 35.101562 L 32.742188 35.101562 Z M 36.710938 33.117188 L 38.695312 33.117188 L 38.695312 35.101562 L 36.710938 35.101562 Z M 8.929688 37.085938 L 10.914062 37.085938 L 10.914062 39.070312 L 8.929688 39.070312 Z M 12.898438 37.085938 L 14.882812 37.085938 L 14.882812 39.070312 L 12.898438 39.070312 Z M 16.867188 37.085938 L 18.851562 37.085938 L 18.851562 39.070312 L 16.867188 39.070312 Z M 20.835938 37.085938 L 22.820312 37.085938 L 22.820312 39.070312 L 20.835938 39.070312 Z M 24.804688 37.085938 L 26.789062 37.085938 L 26.789062 39.070312 L 24.804688 39.070312 Z M 28.773438 37.085938 L 30.757812 37.085938 L 30.757812 39.070312 L 28.773438 39.070312 Z M 32.742188 37.085938 L 34.726562 37.085938 L 34.726562 39.070312 L 32.742188 39.070312 Z M 36.710938 37.085938 L 38.695312 37.085938 L 38.695312 39.070312 L 36.710938 39.070312 Z M 36.710938 37.085938 "/>
<path style=" stroke:none;fill-rule:nonzero;fill:rgb(25.882354%,25.882354%,25.882354%);fill-opacity:1;" d="M 5.953125 4.34375 L 41.671875 4.34375 C 42.769531 4.34375 43.65625 5.230469 43.65625 6.328125 L 43.65625 42.046875 C 43.65625 43.144531 42.769531 44.03125 41.671875 44.03125 L 5.953125 44.03125 C 4.855469 44.03125 3.96875 43.144531 3.96875 42.046875 L 3.96875 6.328125 C 3.96875 5.230469 4.855469 4.34375 5.953125 4.34375 Z M 5.953125 4.34375 "/>
<path style="fill:none;stroke-width:0.105641;stroke-linecap:round;stroke-linejoin:round;stroke:rgb(96.078432%,96.078432%,96.078432%);stroke-opacity:1;stroke-miterlimit:4;" d="M 398.583333 89.541667 C 392.25 89.541667 385.875 90.208333 379.583333 91.5 L 372 119.833333 L 357.375 128.25 L 329.041667 120.666667 C 320.458333 130.291667 314.083333 141.458333 310.125 153.416667 L 330.875 174.125 L 330.875 191.041667 L 310.166667 211.75 C 312.125 217.666667 314.75 223.458333 317.958333 229.083333 C 321.208333 234.708333 324.958333 239.833333 329.083333 244.5 L 357.375 236.916667 L 372 245.375 L 379.583333 273.708333 C 391.916667 276.25 404.75 276.333333 417.375 273.666667 L 424.958333 245.375 L 439.625 236.916667 L 467.916667 244.5 C 476.5 234.916667 482.875 223.75 486.833333 211.791667 L 466.083333 191.041667 L 466.083333 174.125 L 486.791667 153.458333 C 484.833333 147.541667 482.25 141.75 479 136.125 C 475.75 130.5 472 125.333333 467.875 120.708333 L 439.625 128.25 L 424.958333 119.833333 L 417.375 91.5 C 411.208333 90.208333 404.916667 89.541667 398.583333 89.541667 Z M 398.5 144.291667 C 419.708333 144.291667 436.791667 161.375 436.791667 182.583333 C 436.791667 203.791667 419.708333 220.875 398.5 220.875 C 377.291667 220.875 360.208333 203.791667 360.208333 182.583333 C 360.208333 161.375 377.291667 144.291667 398.5 144.291667 Z M 398.5 144.291667 " transform="matrix(0.09375,0,0,0.09375,0,20.15625)"/>
<path style=" stroke:none;fill-rule:nonzero;fill:rgb(74.117649%,74.117649%,74.117649%);fill-opacity:1;" d="M 37.367188 28.550781 C 36.773438 28.550781 36.175781 28.613281 35.585938 28.734375 L 34.875 31.390625 L 33.503906 32.179688 L 30.847656 31.46875 C 30.042969 32.371094 29.445312 33.417969 29.074219 34.539062 L 31.019531 36.480469 L 31.019531 38.066406 L 29.078125 40.007812 C 29.261719 40.5625 29.507812 41.105469 29.808594 41.632812 C 30.113281 42.160156 30.464844 42.640625 30.851562 43.078125 L 33.503906 42.367188 L 34.875 43.160156 L 35.585938 45.816406 C 36.742188 46.054688 37.945312 46.0625 39.128906 45.8125 L 39.839844 43.160156 L 41.214844 42.367188 L 43.867188 43.078125 C 44.671875 42.179688 45.269531 41.132812 45.640625 40.011719 L 43.695312 38.066406 L 43.695312 36.480469 L 45.636719 34.542969 C 45.453125 33.988281 45.210938 33.445312 44.90625 32.917969 C 44.601562 32.390625 44.25 31.90625 43.863281 31.472656 L 41.214844 32.179688 L 39.839844 31.390625 L 39.128906 28.734375 C 38.550781 28.613281 37.960938 28.550781 37.367188 28.550781 Z M 37.359375 33.683594 C 39.347656 33.683594 40.949219 35.285156 40.949219 37.273438 C 40.949219 39.261719 39.347656 40.863281 37.359375 40.863281 C 35.371094 40.863281 33.769531 39.261719 33.769531 37.273438 C 33.769531 35.285156 35.371094 33.683594 37.359375 33.683594 Z M 37.359375 33.683594 "/>
<path style=" stroke:none;fill-rule:nonzero;fill:rgb(87.843138%,87.843138%,87.843138%);fill-opacity:1;" d="M 37.359375 30.9375 C 33.847656 30.9375 31.019531 33.761719 31.019531 37.273438 C 31.019531 40.785156 33.847656 43.613281 37.359375 43.613281 C 40.871094 43.613281 43.695312 40.785156 43.695312 37.273438 C 43.695312 33.761719 40.871094 30.9375 37.359375 30.9375 Z M 37.359375 33.683594 C 39.347656 33.683594 40.949219 35.285156 40.949219 37.273438 C 40.949219 39.261719 39.347656 40.863281 37.359375 40.863281 C 35.371094 40.863281 33.769531 39.261719 33.769531 37.273438 C 33.769531 35.285156 35.371094 33.683594 37.359375 33.683594 Z M 37.359375 33.683594 "/>
<path style=" stroke:none;fill-rule:nonzero;fill:rgb(45.882353%,45.882353%,45.882353%);fill-opacity:1;" d="M 37.359375 33.683594 C 35.382812 33.683594 33.792969 35.273438 33.792969 37.25 C 33.792969 39.226562 35.382812 40.816406 37.359375 40.816406 C 39.332031 40.816406 40.921875 39.226562 40.921875 37.25 C 40.921875 35.273438 39.332031 33.683594 37.359375 33.683594 Z M 37.359375 34.082031 C 39.113281 34.082031 40.527344 35.496094 40.527344 37.25 C 40.527344 39.007812 39.113281 40.417969 37.359375 40.417969 C 35.601562 40.417969 34.1875 39.007812 34.1875 37.25 C 34.1875 35.496094 35.601562 34.082031 37.359375 34.082031 Z M 37.359375 34.082031 "/>
<path style=" stroke:none;fill-rule:nonzero;fill:rgb(74.117649%,74.117649%,74.117649%);fill-opacity:1;" d="M 37.359375 33.289062 C 35.164062 33.289062 33.394531 35.054688 33.394531 37.25 C 33.394531 39.445312 35.164062 41.210938 37.359375 41.210938 C 39.550781 41.210938 41.320312 39.445312 41.320312 37.25 C 41.320312 35.054688 39.550781 33.289062 37.359375 33.289062 Z M 37.359375 33.683594 C 39.332031 33.683594 40.921875 35.273438 40.921875 37.25 C 40.921875 39.226562 39.332031 40.816406 37.359375 40.816406 C 35.382812 40.816406 33.792969 39.226562 33.792969 37.25 C 33.792969 35.273438 35.382812 33.683594 37.359375 33.683594 Z M 37.359375 33.683594 "/>
</g>
</svg>
