<?xml version="1.0" encoding="UTF-8"?>
<svg xmlns="http://www.w3.org/2000/svg" xmlns:xlink="http://www.w3.org/1999/xlink" width="48px" height="48px" viewBox="0 0 48 48" version="1.1">
<g id="surface1">
<path style=" stroke:none;fill-rule:nonzero;fill:rgb(100%,34.117648%,13.333334%);fill-opacity:1;" d="M 17.859375 8.808594 C 22.324219 9.21875 25.574219 7.910156 29.765625 12.28125 C 29.765625 20.714844 36.710938 23.691406 33.066406 35.488281 C 30.628906 43.382812 28.773438 43.039062 28.773438 43.039062 L 19.84375 46.015625 C 19.84375 46.015625 19.058594 45.957031 17.859375 45.847656 Z M 17.859375 8.808594 "/>
<path style=" stroke:none;fill-rule:nonzero;fill:rgb(100%,34.117648%,13.333334%);fill-opacity:1;" d="M 17.859375 8.808594 C 13.394531 9.21875 9.152344 12.871094 4.960938 17.242188 C 4.960938 18.730469 1.984375 32.125 2.652344 35.488281 C 4.261719 43.589844 6.945312 43.039062 6.945312 43.039062 L 15.875 46.015625 C 15.875 46.015625 16.660156 45.957031 17.859375 45.847656 Z M 17.859375 8.808594 "/>
<path style=" stroke:none;fill-rule:nonzero;fill:rgb(100%,87.843138%,69.803923%);fill-opacity:1;" d="M 26.480469 12.761719 C 26.667969 13.65625 26.789062 14.515625 26.789062 15.257812 C 26.789062 18.234375 22.820312 29.148438 19.84375 31.132812 C 18.417969 32.085938 16.761719 32.351562 15.425781 32.371094 C 16.15625 32.816406 16.988281 33.117188 17.929688 33.117188 C 20.90625 33.117188 22.84375 30.15625 23.882812 29.148438 C 27.425781 25.660156 26.535156 23.011719 27.851562 18.234375 C 27.851562 16.011719 27.332031 14.199219 26.480469 12.761719 Z M 26.480469 12.761719 "/>
<path style=" stroke:none;fill-rule:nonzero;fill:rgb(100%,95.294118%,87.843138%);fill-opacity:1;" d="M 27.605469 17.242188 C 28.5625 17.242188 29.339844 18.398438 29.339844 19.820312 L 29.339844 20.617188 C 29.339844 22.039062 28.5625 23.195312 27.605469 23.195312 C 26.644531 23.195312 25.867188 22.039062 25.867188 20.617188 L 25.867188 19.820312 C 25.867188 18.398438 26.644531 17.242188 27.605469 17.242188 Z M 27.605469 17.242188 "/>
<path style=" stroke:none;fill-rule:nonzero;fill:rgb(100%,80.000001%,50.196081%);fill-opacity:1;" d="M 27.308594 18.125 C 28.140625 18.125 28.820312 18.917969 28.820312 19.890625 L 28.820312 20.4375 C 28.820312 21.410156 28.140625 22.203125 27.308594 22.203125 C 26.472656 22.203125 25.796875 21.410156 25.796875 20.4375 L 25.796875 19.890625 C 25.796875 18.917969 26.472656 18.125 27.308594 18.125 Z M 27.308594 18.125 "/>
<path style=" stroke:none;fill-rule:nonzero;fill:rgb(100%,95.294118%,87.843138%);fill-opacity:1;" d="M 7.761719 17.242188 C 8.71875 17.242188 9.496094 18.398438 9.496094 19.820312 L 9.496094 20.617188 C 9.496094 22.039062 8.71875 23.195312 7.761719 23.195312 C 6.800781 23.195312 6.023438 22.039062 6.023438 20.617188 L 6.023438 19.820312 C 6.023438 18.398438 6.800781 17.242188 7.761719 17.242188 Z M 7.761719 17.242188 "/>
<path style=" stroke:none;fill-rule:nonzero;fill:rgb(100%,87.843138%,69.803923%);fill-opacity:1;" d="M 7.960938 18.125 C 8.792969 18.125 9.472656 18.917969 9.472656 19.890625 L 9.472656 20.4375 C 9.472656 21.410156 8.792969 22.203125 7.960938 22.203125 C 7.125 22.203125 6.449219 21.410156 6.449219 20.4375 L 6.449219 19.890625 C 6.449219 18.917969 7.125 18.125 7.960938 18.125 Z M 7.960938 18.125 "/>
<path style=" stroke:none;fill-rule:nonzero;fill:rgb(94.117647%,38.431373%,57.254905%);fill-opacity:1;" d="M 38.695312 2.359375 C 34.917969 2.359375 31.875 5.402344 31.875 9.179688 L 31.875 10.421875 C 31.875 10.765625 32.152344 11.039062 32.496094 11.039062 L 33.734375 11.039062 C 34.078125 11.039062 34.355469 10.765625 34.355469 10.421875 L 34.355469 9.179688 C 34.355469 6.777344 36.289062 4.839844 38.695312 4.839844 C 41.101562 4.839844 43.035156 6.777344 43.035156 9.179688 L 43.035156 9.800781 C 43.035156 10.898438 42.789062 11.386719 42.472656 11.746094 C 42.15625 12.105469 41.660156 12.375 41.007812 12.644531 C 40.355469 12.917969 39.566406 13.164062 38.8125 13.742188 C 38.054688 14.324219 37.453125 15.382812 37.453125 16.621094 L 37.457031 16.621094 L 37.457031 17.242188 C 37.457031 17.585938 37.730469 17.863281 38.074219 17.863281 L 39.316406 17.863281 C 39.660156 17.863281 39.933594 17.585938 39.933594 17.242188 L 39.933594 16.621094 L 39.9375 16.621094 C 39.9375 16.003906 40.03125 15.933594 40.324219 15.710938 C 40.617188 15.488281 41.222656 15.246094 41.964844 14.9375 C 42.707031 14.625 43.605469 14.214844 44.335938 13.382812 C 45.066406 12.554688 45.515625 11.335938 45.515625 9.800781 L 45.515625 9.179688 C 45.515625 5.402344 42.472656 2.359375 38.695312 2.359375 Z M 38.695312 18.820312 C 37.757812 18.820312 37.003906 19.574219 37.003906 20.511719 C 37.003906 21.449219 37.757812 22.203125 38.695312 22.203125 C 39.632812 22.203125 40.386719 21.449219 40.386719 20.511719 C 40.386719 19.574219 39.632812 18.820312 38.695312 18.820312 Z M 38.695312 18.820312 "/>
<path style=" stroke:none;fill-rule:nonzero;fill:rgb(98.431373%,54.901963%,0%);fill-opacity:1;" d="M 23.070312 33.363281 C 25.957031 33.351562 27.113281 33.9375 29.023438 35.84375 C 25.433594 35.996094 24.351562 36.570312 23.070312 33.363281 Z M 23.070312 33.363281 "/>
<path style=" stroke:none;fill-rule:nonzero;fill:rgb(100%,80.000001%,50.196081%);fill-opacity:1;" d="M 22.628906 33.503906 C 25.417969 32.742188 26.683594 33.007812 29.023438 34.355469 C 25.59375 35.433594 24.695312 36.265625 22.628906 33.503906 Z M 22.628906 33.503906 "/>
<path style=" stroke:none;fill-rule:nonzero;fill:rgb(25.882354%,64.705884%,96.078432%);fill-opacity:1;" d="M 22.632812 32.871094 C 22.875 32.871094 23.066406 33.257812 23.066406 33.738281 C 23.066406 34.214844 22.875 34.605469 22.632812 34.605469 C 22.394531 34.605469 22.199219 34.214844 22.199219 33.738281 C 22.199219 33.257812 22.394531 32.871094 22.632812 32.871094 Z M 22.632812 32.871094 "/>
<path style=" stroke:none;fill-rule:nonzero;fill:rgb(100%,80.392158%,51.372552%);fill-opacity:1;" d="M 13.394531 29.148438 L 23.316406 29.148438 C 22.820312 31.628906 21.734375 34.097656 23.316406 36.589844 L 12.898438 36.589844 C 14.1875 34.230469 13.542969 32.183594 13.394531 29.148438 Z M 13.394531 29.148438 "/>
<path style=" stroke:none;fill-rule:nonzero;fill:rgb(100%,71.764708%,30.19608%);fill-opacity:1;" d="M 22.546875 32.765625 L 13.6875 33.253906 C 13.691406 33.9375 13.332031 35.183594 13.144531 35.84375 L 22.820312 35.597656 C 22.695312 34.933594 22.46875 33.429688 22.546875 32.765625 Z M 22.546875 32.765625 "/>
<path style=" stroke:none;fill-rule:nonzero;fill:rgb(98.431373%,54.901963%,0%);fill-opacity:1;" d="M 22.558594 32.683594 L 18.652344 33.339844 L 22.511719 33.125 C 22.523438 32.980469 22.539062 32.832031 22.558594 32.683594 Z M 13.667969 33.914062 C 13.652344 34.132812 13.628906 34.347656 13.597656 34.558594 L 16.933594 34.070312 C 16.933594 34.070312 15.210938 33.976562 13.667969 33.914062 Z M 18.914062 33.960938 L 22.539062 34.480469 C 22.523438 34.359375 22.511719 34.242188 22.503906 34.121094 Z M 18.914062 33.960938 "/>
<path style=" stroke:none;fill-rule:nonzero;fill:rgb(100%,95.294118%,87.843138%);fill-opacity:1;" d="M 8.007812 16.25 C 10.019531 16.480469 13.996094 8.375 18.386719 8.355469 C 22.777344 8.339844 27.851562 11.289062 27.851562 18.234375 C 26.535156 23.011719 27.425781 25.660156 23.882812 29.148438 C 22.84375 30.15625 20.90625 33.117188 17.929688 33.117188 C 14.953125 33.117188 13.09375 30.109375 11.976562 29.148438 C 7.863281 25.164062 8.046875 21.785156 8.007812 16.25 Z M 8.007812 16.25 "/>
<path style=" stroke:none;fill-rule:nonzero;fill:rgb(100%,87.843138%,69.803923%);fill-opacity:1;" d="M 26.480469 12.761719 C 26.667969 13.65625 26.789062 14.515625 26.789062 15.257812 C 26.789062 18.234375 22.820312 29.148438 19.84375 31.132812 C 18.417969 32.085938 16.761719 32.351562 15.425781 32.371094 C 16.15625 32.816406 16.988281 33.117188 17.929688 33.117188 C 20.90625 33.117188 22.84375 30.15625 23.882812 29.148438 C 27.425781 25.660156 26.535156 23.011719 27.851562 18.234375 C 27.851562 16.011719 27.332031 14.199219 26.480469 12.761719 Z M 26.480469 12.761719 "/>
<path style=" stroke:none;fill-rule:nonzero;fill:rgb(77.254903%,79.215688%,91.37255%);fill-opacity:1;" d="M 23.636719 16.746094 C 22.261719 16.746094 21.15625 18.292969 21.15625 20.21875 C 21.15625 21.066406 21.367188 21.839844 21.726562 22.4375 C 22.144531 22.289062 22.628906 22.203125 23.140625 22.203125 C 23.984375 22.203125 24.746094 22.4375 25.289062 22.8125 C 25.796875 22.175781 26.117188 21.253906 26.117188 20.21875 C 26.117188 18.292969 25.007812 16.746094 23.636719 16.746094 Z M 23.636719 16.746094 "/>
<path style=" stroke:none;fill-rule:nonzero;fill:rgb(36.078432%,41.960785%,75.294119%);fill-opacity:1;" d="M 23.386719 16.746094 C 22.566406 16.746094 21.898438 17.855469 21.898438 19.226562 C 21.898438 20.597656 22.566406 21.707031 23.386719 21.707031 C 24.210938 21.707031 24.875 20.597656 24.875 19.226562 C 24.875 17.855469 24.210938 16.746094 23.386719 16.746094 Z M 23.386719 16.746094 "/>
<path style=" stroke:none;fill-rule:nonzero;fill:rgb(70.19608%,89.803922%,98.823529%);fill-opacity:1;" d="M 23.140625 17.242188 C 22.726562 17.242188 22.394531 17.574219 22.394531 17.984375 L 22.394531 17.988281 C 22.394531 18.398438 22.726562 18.730469 23.140625 18.730469 C 23.550781 18.730469 23.882812 18.398438 23.882812 17.988281 L 23.882812 17.984375 C 23.882812 17.574219 23.550781 17.242188 23.140625 17.242188 Z M 23.140625 17.242188 "/>
<path style=" stroke:none;fill-rule:nonzero;fill:rgb(38.039216%,38.039216%,38.039216%);fill-opacity:1;" d="M 18.109375 24.683594 L 18.601562 24.683594 C 18.742188 24.683594 18.851562 24.792969 18.851562 24.933594 C 18.851562 25.070312 18.742188 25.179688 18.601562 25.179688 L 18.109375 25.179688 C 17.96875 25.179688 17.859375 25.070312 17.859375 24.933594 C 17.859375 24.792969 17.96875 24.683594 18.109375 24.683594 Z M 18.109375 24.683594 "/>
<path style=" stroke:none;fill-rule:nonzero;fill:rgb(55.29412%,43.137255%,38.82353%);fill-opacity:1;" d="M 23.304688 16.609375 C 23.738281 16.582031 24.160156 16.675781 24.558594 16.851562 C 26.136719 16.832031 27.460938 20.335938 26.929688 19.746094 C 26.09375 18.734375 25.199219 17.769531 24.320312 17.378906 C 23.882812 17.183594 23.460938 17.125 23.015625 17.242188 C 22.167969 17.328125 20.871094 18.5 21.425781 17.824219 C 21.996094 17.171875 22.285156 16.835938 22.867188 16.683594 C 23.015625 16.644531 23.160156 16.621094 23.304688 16.609375 Z M 23.304688 16.609375 "/>
<path style=" stroke:none;fill-rule:nonzero;fill:rgb(100%,43.921569%,26.274511%);fill-opacity:1;" d="M 18.871094 2.359375 C 7.957031 2.359375 5.160156 9.890625 4.980469 15.257812 C 4.980469 16.464844 5.195312 17.628906 5.585938 18.710938 C 6.664062 18.125 7.914062 17.589844 9.265625 17.128906 C 9.621094 16.429688 9.882812 15.664062 9.941406 14.761719 C 10.242188 15.503906 10.382812 16.15625 10.425781 16.757812 C 10.679688 16.683594 10.9375 16.609375 11.195312 16.539062 C 11.316406 16.140625 11.402344 15.71875 11.429688 15.257812 C 11.59375 15.65625 11.707031 16.03125 11.785156 16.386719 C 12.179688 16.285156 12.578125 16.195312 12.980469 16.109375 C 13.210938 15.550781 13.371094 14.949219 13.414062 14.265625 C 13.660156 14.871094 13.800781 15.421875 13.867188 15.933594 C 14.730469 15.773438 15.605469 15.644531 16.480469 15.554688 C 16.953125 14.742188 17.3125 13.855469 17.382812 12.777344 C 17.796875 13.800781 17.914062 14.664062 17.875 15.441406 C 18.277344 15.417969 18.679688 15.402344 19.078125 15.394531 C 19.925781 14.195312 20.746094 12.980469 20.855469 11.289062 C 21.550781 13.011719 21.40625 14.273438 21.09375 15.445312 C 21.445312 15.46875 21.796875 15.5 22.140625 15.539062 C 22.75 14.597656 23.25 13.578125 23.335938 12.28125 C 23.90625 13.695312 23.910156 14.796875 23.722656 15.792969 C 24.363281 15.925781 24.972656 16.09375 25.550781 16.296875 C 25.953125 15.554688 26.25 14.742188 26.3125 13.769531 C 26.796875 14.964844 26.875 15.941406 26.773438 16.816406 C 26.972656 16.914062 27.164062 17.019531 27.351562 17.132812 C 27.589844 16.566406 27.757812 15.953125 27.800781 15.257812 C 28.191406 16.226562 28.316406 17.046875 28.296875 17.789062 C 28.46875 17.929688 28.636719 18.078125 28.792969 18.234375 C 33.34375 12.003906 28.792969 2.359375 18.871094 2.359375 Z M 18.871094 2.359375 "/>
<path style=" stroke:none;fill-rule:nonzero;fill:rgb(100%,67.058825%,56.862748%);fill-opacity:1;" d="M 29.835938 9.152344 C 28.214844 11.980469 24.648438 11.808594 20.921875 11.453125 C 21.457031 12.871094 21.421875 13.972656 21.207031 14.976562 C 21.652344 14.957031 22.085938 14.941406 22.503906 14.933594 C 22.941406 14.15625 23.269531 13.308594 23.335938 12.28125 C 23.75 13.304688 23.867188 14.164062 23.828125 14.941406 C 24.660156 14.960938 25.410156 15.023438 26.050781 15.136719 C 26.1875 14.714844 26.28125 14.261719 26.3125 13.769531 C 26.535156 14.320312 26.671875 14.820312 26.742188 15.289062 C 27.011719 15.363281 27.359375 15.476562 27.765625 15.617188 C 27.78125 15.5 27.792969 15.378906 27.800781 15.257812 C 27.859375 15.402344 27.914062 15.546875 27.960938 15.683594 C 28.519531 15.882812 29.171875 16.125 29.847656 16.378906 C 30.828125 14.050781 30.777344 11.464844 29.835938 9.152344 Z M 5 14.886719 C 4.992188 15.011719 4.984375 15.136719 4.980469 15.257812 C 4.980469 15.742188 5.015625 16.21875 5.082031 16.6875 C 6.523438 16.535156 8.078125 16.347656 9.675781 16.152344 C 9.8125 15.722656 9.910156 15.261719 9.941406 14.761719 C 10.132812 15.230469 10.257812 15.664062 10.335938 16.070312 C 10.671875 16.027344 11.007812 15.988281 11.34375 15.945312 C 11.386719 15.726562 11.414062 15.496094 11.429688 15.257812 C 11.519531 15.480469 11.597656 15.699219 11.660156 15.90625 C 12.148438 15.847656 12.632812 15.789062 13.121094 15.730469 C 13.273438 15.277344 13.378906 14.796875 13.414062 14.265625 C 13.613281 14.761719 13.746094 15.21875 13.820312 15.644531 C 14.757812 15.535156 15.691406 15.433594 16.601562 15.339844 C 17.011719 14.585938 17.320312 13.761719 17.382812 12.777344 C 17.757812 13.703125 17.886719 14.496094 17.878906 15.214844 C 18.359375 15.171875 18.828125 15.132812 19.289062 15.097656 C 20.03125 14.027344 20.707031 12.917969 20.84375 11.445312 C 14.769531 11.210938 12.230469 11.945312 5 14.886719 Z M 5 14.886719 "/>
<path style=" stroke:none;fill-rule:nonzero;fill:rgb(38.039216%,38.039216%,38.039216%);fill-opacity:1;" d="M 14.953125 27.515625 C 18.921875 25.53125 19.914062 27.515625 21.898438 27.515625 C 18.425781 31.484375 17.929688 31.484375 14.953125 27.515625 Z M 14.953125 27.515625 "/>
<path style=" stroke:none;fill-rule:nonzero;fill:rgb(93.725491%,32.549021%,31.37255%);fill-opacity:1;" d="M 18.039062 26.722656 C 17.367188 26.730469 16.566406 26.890625 15.558594 27.324219 C 16.96875 30.09375 18.414062 31.84375 21.152344 27.515625 C 20.1875 27.289062 19.355469 26.710938 18.039062 26.722656 Z M 18.039062 26.722656 "/>
<path style=" stroke:none;fill-rule:nonzero;fill:rgb(98.039216%,98.039216%,98.039216%);fill-opacity:1;" d="M 18.039062 26.632812 C 17.578125 26.636719 17.054688 26.714844 16.441406 26.902344 L 16.441406 26.910156 C 16.441406 27.183594 16.664062 27.40625 16.9375 27.40625 L 19.914062 27.40625 C 20.097656 27.40625 20.253906 27.308594 20.339844 27.164062 C 19.671875 26.914062 18.980469 26.625 18.039062 26.632812 Z M 18.039062 26.632812 "/>
<path style=" stroke:none;fill-rule:nonzero;fill:rgb(77.254903%,79.215688%,91.37255%);fill-opacity:1;" d="M 12.472656 16.746094 C 11.097656 16.746094 9.992188 18.292969 9.992188 20.21875 C 9.992188 21.253906 10.3125 22.175781 10.820312 22.8125 C 11.363281 22.4375 12.125 22.203125 12.96875 22.203125 C 13.480469 22.203125 13.964844 22.289062 14.382812 22.4375 C 14.738281 21.839844 14.953125 21.066406 14.953125 20.21875 C 14.953125 18.292969 13.847656 16.746094 12.472656 16.746094 Z M 12.472656 16.746094 "/>
<path style=" stroke:none;fill-rule:nonzero;fill:rgb(36.078432%,41.960785%,75.294119%);fill-opacity:1;" d="M 12.96875 16.746094 C 13.792969 16.746094 14.457031 17.855469 14.457031 19.226562 C 14.457031 20.597656 13.792969 21.707031 12.96875 21.707031 C 12.148438 21.707031 11.480469 20.597656 11.480469 19.226562 C 11.480469 17.855469 12.148438 16.746094 12.96875 16.746094 Z M 12.96875 16.746094 "/>
<path style=" stroke:none;fill-rule:nonzero;fill:rgb(70.19608%,89.803922%,98.823529%);fill-opacity:1;" d="M 13.21875 17.242188 C 13.628906 17.242188 13.960938 17.574219 13.960938 17.984375 L 13.960938 17.988281 C 13.960938 18.398438 13.628906 18.730469 13.21875 18.730469 C 12.804688 18.730469 12.472656 18.398438 12.472656 17.988281 L 12.472656 17.984375 C 12.472656 17.574219 12.804688 17.242188 13.21875 17.242188 Z M 13.21875 17.242188 "/>
<path style=" stroke:none;fill-rule:nonzero;fill:rgb(55.29412%,43.137255%,38.82353%);fill-opacity:1;" d="M 13.003906 16.609375 C 12.570312 16.582031 12.148438 16.675781 11.75 16.851562 C 10.171875 16.832031 8.847656 20.335938 9.378906 19.746094 C 10.214844 18.734375 11.109375 17.769531 11.984375 17.378906 C 12.425781 17.183594 12.847656 17.125 13.292969 17.242188 C 14.140625 17.328125 15.4375 18.5 14.882812 17.824219 C 14.3125 17.171875 14.023438 16.835938 13.4375 16.683594 C 13.292969 16.644531 13.148438 16.621094 13.003906 16.609375 Z M 13.003906 16.609375 "/>
<path style=" stroke:none;fill-rule:nonzero;fill:rgb(100%,67.058825%,56.862748%);fill-opacity:1;" d="M 11.90625 4.484375 C 10.675781 5.9375 8.617188 5.824219 8.855469 10.054688 C 10.03125 6.828125 11.121094 6.636719 11.90625 4.484375 Z M 11.90625 4.484375 "/>
<path style=" stroke:none;fill-rule:nonzero;fill:rgb(100%,67.058825%,56.862748%);fill-opacity:1;" d="M 14.410156 3.734375 C 13.617188 4.667969 12.292969 4.597656 12.445312 7.320312 C 13.207031 5.242188 13.90625 5.117188 14.410156 3.734375 Z M 14.410156 3.734375 "/>
<path style=" stroke:none;fill-rule:nonzero;fill:rgb(90.196079%,29.019609%,9.803922%);fill-opacity:1;" d="M 5.808594 22.796875 C 5.472656 24.671875 3.632812 25.605469 5.953125 29.148438 C 5.359375 25.761719 6.207031 25.054688 5.808594 22.796875 Z M 5.808594 22.796875 "/>
<path style=" stroke:none;fill-rule:nonzero;fill:rgb(90.196079%,29.019609%,9.803922%);fill-opacity:1;" d="M 7.792969 24.78125 C 7.457031 26.65625 5.617188 27.589844 7.9375 31.132812 C 7.34375 27.746094 8.191406 27.039062 7.792969 24.78125 Z M 7.792969 24.78125 "/>
<path style=" stroke:none;fill-rule:nonzero;fill:rgb(90.196079%,29.019609%,9.803922%);fill-opacity:1;" d="M 27.78125 23.195312 C 28.121094 25.070312 29.957031 26.003906 27.636719 29.546875 C 28.230469 26.160156 27.386719 25.453125 27.78125 23.195312 Z M 27.78125 23.195312 "/>
<path style=" stroke:none;fill-rule:nonzero;fill:rgb(16.078432%,71.372551%,96.470588%);fill-opacity:1;" d="M 12.898438 36.09375 C 6.851562 36.09375 1.984375 38.304688 1.984375 41.054688 L 1.984375 45.023438 C 1.984375 45.574219 2.425781 46.015625 2.976562 46.015625 L 33.734375 46.015625 C 34.285156 46.015625 34.726562 45.574219 34.726562 45.023438 L 34.726562 41.054688 C 34.726562 38.304688 29.859375 36.09375 23.8125 36.09375 Z M 12.898438 36.09375 "/>
<path style=" stroke:none;fill-rule:nonzero;fill:rgb(100%,95.294118%,87.843138%);fill-opacity:1;" d="M 9.671875 36.339844 C 9.671875 40.738281 11.003906 41.964844 14.882812 44.03125 C 16.59375 44.941406 18.347656 45.714844 20.835938 44.03125 C 24.480469 41.566406 26.789062 40.492188 26.789062 36.09375 C 22.820312 35.351562 13.890625 35.597656 9.671875 36.339844 Z M 9.671875 36.339844 "/>
<path style=" stroke:none;fill-rule:nonzero;fill:rgb(100%,87.843138%,69.803923%);fill-opacity:1;" d="M 16.867188 40.558594 C 17.363281 39.945312 14.71875 37.730469 10.695312 39.050781 C 14.117188 39.355469 15.875 39.945312 16.867188 40.558594 Z M 16.867188 40.558594 "/>
<path style=" stroke:none;fill-rule:nonzero;fill:rgb(100%,87.843138%,69.803923%);fill-opacity:1;" d="M 19.625 40.578125 C 19.128906 39.964844 21.773438 37.746094 25.796875 39.070312 C 22.375 39.371094 20.617188 39.964844 19.625 40.578125 Z M 19.625 40.578125 "/>
</g>
</svg>
