<?xml version="1.0" encoding="UTF-8"?>
<svg xmlns="http://www.w3.org/2000/svg" xmlns:xlink="http://www.w3.org/1999/xlink" width="48px" height="48px" viewBox="0 0 48 48" version="1.1">
<g id="surface1">
<path style=" stroke:none;fill-rule:nonzero;fill:rgb(25.882354%,25.882354%,25.882354%);fill-opacity:1;" d="M 23.8125 4.34375 C 34.773438 4.34375 43.65625 13.226562 43.65625 24.1875 C 43.65625 35.148438 34.773438 44.03125 23.8125 44.03125 C 12.851562 44.03125 3.96875 35.148438 3.96875 24.1875 C 3.96875 13.226562 12.851562 4.34375 23.8125 4.34375 Z M 23.8125 4.34375 "/>
<path style=" stroke:none;fill-rule:nonzero;fill:rgb(74.117649%,74.117649%,74.117649%);fill-opacity:1;" d="M 23.8125 2.359375 C 11.71875 2.359375 1.984375 12.09375 1.984375 24.1875 C 1.984375 36.28125 11.71875 46.015625 23.8125 46.015625 C 35.90625 46.015625 45.640625 36.28125 45.640625 24.1875 C 45.640625 12.09375 35.90625 2.359375 23.8125 2.359375 Z M 23.8125 5.335938 C 34.257812 5.335938 42.664062 13.742188 42.664062 24.1875 C 42.664062 34.632812 34.257812 43.039062 23.8125 43.039062 C 13.367188 43.039062 4.960938 34.632812 4.960938 24.1875 C 4.960938 13.742188 13.367188 5.335938 23.8125 5.335938 Z M 23.8125 5.335938 "/>
<path style=" stroke:none;fill-rule:nonzero;fill:rgb(74.117649%,74.117649%,74.117649%);fill-opacity:1;" d="M 23.8125 8.3125 L 28.828125 17.28125 L 38.910156 19.28125 L 31.929688 26.824219 L 33.144531 37.03125 L 23.8125 32.722656 L 14.480469 37.03125 L 15.695312 26.824219 L 8.714844 19.28125 L 18.796875 17.28125 Z M 23.8125 8.3125 "/>
<path style=" stroke:none;fill-rule:nonzero;fill:rgb(74.117649%,74.117649%,74.117649%);fill-opacity:1;" d="M 39.90625 19.558594 C 40.324219 21.039062 39.460938 22.578125 37.980469 22.996094 C 36.5 23.414062 34.960938 22.554688 34.542969 21.070312 C 34.125 19.589844 34.984375 18.050781 36.46875 17.632812 C 37.949219 17.214844 39.488281 18.078125 39.90625 19.558594 Z M 39.90625 19.558594 "/>
<path style=" stroke:none;fill-rule:nonzero;fill:rgb(74.117649%,74.117649%,74.117649%);fill-opacity:1;" d="M 33.5625 37.683594 C 32.3125 38.582031 30.570312 38.296875 29.671875 37.046875 C 28.777344 35.792969 29.0625 34.054688 30.3125 33.15625 C 31.5625 32.257812 33.304688 32.542969 34.203125 33.796875 C 35.097656 35.046875 34.8125 36.785156 33.5625 37.683594 Z M 33.5625 37.683594 "/>
<path style=" stroke:none;fill-rule:nonzero;fill:rgb(74.117649%,74.117649%,74.117649%);fill-opacity:1;" d="M 13.992188 37.632812 C 12.746094 36.730469 12.46875 34.984375 13.371094 33.738281 C 14.277344 32.496094 16.019531 32.21875 17.265625 33.121094 C 18.511719 34.023438 18.789062 35.769531 17.882812 37.015625 C 16.980469 38.257812 15.238281 38.535156 13.992188 37.632812 Z M 13.992188 37.632812 "/>
<path style=" stroke:none;fill-rule:nonzero;fill:rgb(74.117649%,74.117649%,74.117649%);fill-opacity:1;" d="M 13.082031 21.070312 C 12.664062 22.554688 11.125 23.414062 9.644531 22.996094 C 8.164062 22.578125 7.300781 21.039062 7.71875 19.558594 C 8.136719 18.078125 9.675781 17.214844 11.15625 17.632812 C 12.640625 18.050781 13.5 19.589844 13.082031 21.070312 Z M 13.082031 21.070312 "/>
<path style=" stroke:none;fill-rule:nonzero;fill:rgb(74.117649%,74.117649%,74.117649%);fill-opacity:1;" d="M 23.8125 7.375 C 25.351562 7.375 26.597656 8.625 26.597656 10.164062 C 26.597656 11.703125 25.351562 12.949219 23.8125 12.949219 C 22.273438 12.949219 21.027344 11.703125 21.027344 10.164062 C 21.027344 8.625 22.273438 7.375 23.8125 7.375 Z M 23.8125 7.375 "/>
<path style=" stroke:none;fill-rule:nonzero;fill:rgb(87.843138%,87.843138%,87.843138%);fill-opacity:1;" d="M 10.3125 18.03125 C 10.585938 18.304688 10.367188 18.964844 9.820312 19.511719 C 9.277344 20.054688 8.613281 20.273438 8.34375 20.003906 C 8.070312 19.730469 8.292969 19.070312 8.835938 18.523438 C 9.378906 17.980469 10.042969 17.761719 10.3125 18.03125 Z M 10.3125 18.03125 "/>
<path style=" stroke:none;fill-rule:nonzero;fill:rgb(87.843138%,87.843138%,87.843138%);fill-opacity:1;" d="M 23.785156 7.8125 C 24.054688 8.085938 23.835938 8.746094 23.292969 9.292969 C 22.746094 9.835938 22.085938 10.054688 21.8125 9.785156 C 21.542969 9.511719 21.761719 8.851562 22.304688 8.304688 C 22.851562 7.761719 23.511719 7.539062 23.785156 7.8125 Z M 23.785156 7.8125 "/>
<path style=" stroke:none;fill-rule:nonzero;fill:rgb(87.843138%,87.843138%,87.843138%);fill-opacity:1;" d="M 37.253906 18.03125 C 37.527344 18.304688 37.304688 18.964844 36.761719 19.511719 C 36.21875 20.054688 35.554688 20.273438 35.285156 20.003906 C 35.011719 19.730469 35.234375 19.070312 35.777344 18.523438 C 36.320312 17.980469 36.984375 17.761719 37.253906 18.03125 Z M 37.253906 18.03125 "/>
<path style=" stroke:none;fill-rule:nonzero;fill:rgb(87.843138%,87.843138%,87.843138%);fill-opacity:1;" d="M 32.144531 32.894531 C 32.417969 33.167969 32.195312 33.828125 31.652344 34.375 C 31.109375 34.917969 30.445312 35.140625 30.175781 34.867188 C 29.902344 34.59375 30.125 33.933594 30.667969 33.390625 C 31.210938 32.84375 31.875 32.625 32.144531 32.894531 Z M 32.144531 32.894531 "/>
<path style=" stroke:none;fill-rule:nonzero;fill:rgb(87.843138%,87.843138%,87.843138%);fill-opacity:1;" d="M 15.886719 32.894531 C 16.160156 33.167969 15.9375 33.828125 15.394531 34.375 C 14.851562 34.917969 14.1875 35.140625 13.917969 34.867188 C 13.644531 34.59375 13.867188 33.933594 14.410156 33.390625 C 14.953125 32.84375 15.617188 32.625 15.886719 32.894531 Z M 15.886719 32.894531 "/>
<path style="fill:none;stroke-width:0.264583;stroke-linecap:butt;stroke-linejoin:miter;stroke:rgb(0%,0%,0%);stroke-opacity:1;stroke-miterlimit:4;" d="M 63.5 127.666667 C 64.541667 128.375 65.458333 129.458333 66.666667 129.791667 C 68.25 130.166667 67.541667 128.041667 67.75 127.666667 C 67.958333 127.208333 69.291667 126.625 68.791667 126.625 C 67 126.625 65.25 127.333333 63.5 127.666667 " transform="matrix(0.09375,0,0,0.09375,0,20.15625)"/>
</g>
</svg>
