
<svg xmlns="http://www.w3.org/2000/svg" xmlns:xlink="http://www.w3.org/1999/xlink" width="48px" height="48px" viewBox="0 0 48 48" version="1.1">
<g id="surface1">
<path style=" stroke:none;fill-rule:nonzero;fill:rgb(40.000001%,73.333335%,41.568628%);fill-opacity:1;" d="M 23.8125 1.984375 C 35.867188 1.984375 45.640625 11.757812 45.640625 23.8125 C 45.640625 35.867188 35.867188 45.640625 23.8125 45.640625 C 11.757812 45.640625 1.984375 35.867188 1.984375 23.8125 C 1.984375 11.757812 11.757812 1.984375 23.8125 1.984375 Z M 23.8125 1.984375 "/>
<path style=" stroke:none;fill-rule:nonzero;fill:rgb(93.333334%,93.333334%,93.333334%);fill-opacity:1;" d="M 23.8125 3.96875 C 34.773438 3.96875 43.65625 12.851562 43.65625 23.8125 C 43.65625 34.773438 34.773438 43.65625 23.8125 43.65625 C 12.851562 43.65625 3.96875 34.773438 3.96875 23.8125 C 3.96875 12.851562 12.851562 3.96875 23.8125 3.96875 Z M 23.8125 3.96875 "/>
<path style=" stroke:none;fill-rule:nonzero;fill:rgb(40.000001%,73.333335%,41.568628%);fill-opacity:1;" d="M 21.851562 22.210938 C 18.988281 22.179688 16.21875 22.632812 13.636719 23.496094 C 12.804688 23.769531 12.359375 24.667969 12.636719 25.496094 C 12.914062 26.324219 13.808594 26.773438 14.636719 26.496094 C 17.214844 25.632812 20.003906 25.238281 22.898438 25.410156 C 26.722656 25.632812 30.242188 26.8125 33.257812 28.695312 C 34 29.160156 34.976562 28.933594 35.4375 28.195312 C 35.902344 27.453125 35.675781 26.476562 34.9375 26.015625 C 31.480469 23.855469 27.441406 22.507812 23.085938 22.253906 C 22.671875 22.226562 22.261719 22.214844 21.851562 22.210938 Z M 21.851562 22.210938 "/>
<path style=" stroke:none;fill-rule:nonzero;fill:rgb(40.000001%,73.333335%,41.568628%);fill-opacity:1;" d="M 21.996094 13.890625 C 18.371094 13.894531 14.898438 14.664062 11.757812 16.050781 C 10.773438 16.488281 10.328125 17.636719 10.761719 18.621094 C 11.199219 19.605469 12.347656 20.050781 13.332031 19.617188 C 16.371094 18.273438 19.761719 17.617188 23.328125 17.824219 C 28.066406 18.101562 32.320312 19.863281 35.710938 22.628906 C 36.542969 23.308594 37.773438 23.183594 38.453125 22.351562 C 39.132812 21.519531 39.007812 20.289062 38.175781 19.609375 C 34.171875 16.34375 29.121094 14.261719 23.558594 13.933594 C 23.035156 13.90625 22.511719 13.890625 21.996094 13.890625 Z M 21.996094 13.890625 "/>
<path style=" stroke:none;fill-rule:nonzero;fill:rgb(40.000001%,73.333335%,41.568628%);fill-opacity:1;" d="M 20.441406 29.214844 C 18.644531 29.238281 16.886719 29.457031 15.191406 29.84375 C 14.503906 30.003906 14.070312 30.691406 14.230469 31.382812 C 14.390625 32.074219 15.078125 32.503906 15.769531 32.34375 C 17.789062 31.878906 19.914062 31.691406 22.101562 31.820312 C 25.144531 31.996094 27.996094 32.773438 30.5625 34.023438 C 31.203125 34.332031 31.96875 34.066406 32.277344 33.429688 C 32.589844 32.792969 32.324219 32.027344 31.6875 31.714844 C 28.824219 30.320312 25.632812 29.457031 22.25 29.257812 C 21.644531 29.222656 21.039062 29.210938 20.441406 29.214844 Z M 20.441406 29.214844 "/>
</g>
</svg>
