<?xml version="1.0" encoding="UTF-8"?>
<svg xmlns="http://www.w3.org/2000/svg" xmlns:xlink="http://www.w3.org/1999/xlink" width="48px" height="48px" viewBox="0 0 48 48" version="1.1">
<g id="surface1">
<path style=" stroke:none;fill-rule:nonzero;fill:rgb(22.352941%,28.627452%,67.058825%);fill-opacity:1;" d="M 38.695312 8.3125 C 35.945312 8.3125 33.734375 10.523438 33.734375 13.273438 C 33.734375 16.023438 35.945312 18.234375 38.695312 18.234375 C 41.445312 18.234375 43.65625 16.023438 43.65625 13.273438 C 43.65625 10.523438 41.445312 8.3125 38.695312 8.3125 Z M 33.734375 20.21875 C 32.636719 20.21875 31.75 21.105469 31.75 22.203125 L 31.75 33.117188 C 31.75 36.964844 34.847656 40.0625 38.695312 40.0625 C 42.542969 40.0625 45.640625 36.964844 45.640625 33.117188 L 45.640625 22.203125 C 45.640625 21.105469 44.753906 20.21875 43.65625 20.21875 Z M 33.734375 20.21875 "/>
<path style=" stroke:none;fill-rule:nonzero;fill:rgb(36.078432%,41.960785%,75.294119%);fill-opacity:1;" d="M 23.8125 2.359375 C 20.238281 2.359375 17.363281 5.234375 17.363281 8.808594 C 17.363281 12.382812 20.238281 15.257812 23.8125 15.257812 C 27.386719 15.257812 30.261719 12.382812 30.261719 8.808594 C 30.261719 5.234375 27.386719 2.359375 23.8125 2.359375 Z M 16.867188 18.234375 C 15.769531 18.234375 14.882812 19.121094 14.882812 20.21875 L 14.882812 37.085938 C 14.882812 42.03125 18.867188 46.015625 23.8125 46.015625 C 28.757812 46.015625 32.742188 42.03125 32.742188 37.085938 L 32.742188 20.21875 C 32.742188 19.121094 31.855469 18.234375 30.757812 18.234375 Z M 16.867188 18.234375 "/>
<path style=" stroke:none;fill-rule:nonzero;fill:rgb(22.352941%,28.627452%,67.058825%);fill-opacity:1;" d="M 3.96875 16.25 L 19.84375 16.25 C 20.941406 16.25 21.828125 17.136719 21.828125 18.234375 L 21.828125 34.109375 C 21.828125 35.207031 20.941406 36.09375 19.84375 36.09375 L 3.96875 36.09375 C 2.871094 36.09375 1.984375 35.207031 1.984375 34.109375 L 1.984375 18.234375 C 1.984375 17.136719 2.871094 16.25 3.96875 16.25 Z M 3.96875 16.25 "/>
<path style=" stroke:none;fill-rule:nonzero;fill:rgb(77.254903%,79.215688%,91.37255%);fill-opacity:1;" d="M 11.410156 22.203125 L 12.402344 22.203125 C 12.675781 22.203125 12.898438 22.425781 12.898438 22.699219 L 12.898438 30.636719 C 12.898438 30.910156 12.675781 31.132812 12.402344 31.132812 L 11.410156 31.132812 C 11.136719 31.132812 10.914062 30.910156 10.914062 30.636719 L 10.914062 22.699219 C 10.914062 22.425781 11.136719 22.203125 11.410156 22.203125 Z M 11.410156 22.203125 "/>
<path style=" stroke:none;fill-rule:nonzero;fill:rgb(77.254903%,79.215688%,91.37255%);fill-opacity:1;" d="M 8.433594 22.203125 L 15.378906 22.203125 C 15.652344 22.203125 15.875 22.425781 15.875 22.699219 L 15.875 23.195312 C 15.875 23.46875 15.652344 23.691406 15.378906 23.691406 L 8.433594 23.691406 C 8.160156 23.691406 7.9375 23.46875 7.9375 23.195312 L 7.9375 22.699219 C 7.9375 22.425781 8.160156 22.203125 8.433594 22.203125 Z M 8.433594 22.203125 "/>
</g>
</svg>
