<?xml version="1.0" encoding="UTF-8"?>
<svg xmlns="http://www.w3.org/2000/svg" xmlns:xlink="http://www.w3.org/1999/xlink" width="48px" height="48px" viewBox="0 0 48 48" version="1.1">
<g id="surface1">
<path style=" stroke:none;fill-rule:nonzero;fill:rgb(40.000001%,73.333335%,41.568628%);fill-opacity:1;" d="M 25.429688 2.984375 L 45.015625 22.570312 C 45.910156 23.464844 45.910156 24.910156 45.015625 25.804688 L 25.429688 45.390625 C 24.535156 46.285156 23.089844 46.285156 22.195312 45.390625 L 2.609375 25.804688 C 1.714844 24.910156 1.714844 23.464844 2.609375 22.570312 L 22.195312 2.984375 C 23.089844 2.089844 24.535156 2.089844 25.429688 2.984375 Z M 25.429688 2.984375 "/>
<path style=" stroke:none;fill-rule:nonzero;fill:rgb(87.843138%,87.843138%,87.843138%);fill-opacity:1;" d="M 6.945312 4.34375 C 6.394531 4.34375 5.953125 4.785156 5.953125 5.335938 L 5.953125 9.304688 C 5.953125 9.855469 6.394531 10.296875 6.945312 10.296875 L 7.933594 10.296875 L 7.933594 40.066406 L 15.789062 40.066406 L 37.816406 12.792969 L 39.832031 10.296875 L 40.679688 10.296875 C 41.230469 10.296875 41.671875 9.855469 41.671875 9.304688 L 41.671875 5.335938 C 41.671875 4.785156 41.230469 4.34375 40.679688 4.34375 L 30.757812 4.34375 C 30.207031 4.34375 29.765625 4.785156 29.765625 5.335938 L 29.765625 9.304688 C 29.765625 9.523438 29.835938 9.722656 29.953125 9.886719 L 15.878906 27.3125 L 15.878906 10.296875 L 16.867188 10.296875 C 17.417969 10.296875 17.859375 9.855469 17.859375 9.304688 L 17.859375 5.335938 C 17.859375 4.785156 17.417969 4.34375 16.867188 4.34375 Z M 6.945312 4.34375 "/>
</g>
</svg>
