<?xml version="1.0" encoding="UTF-8"?>
<svg xmlns="http://www.w3.org/2000/svg" xmlns:xlink="http://www.w3.org/1999/xlink" width="48px" height="48px" viewBox="0 0 48 48" version="1.1">
<g id="surface1">
<path style=" stroke:none;fill-rule:nonzero;fill:rgb(26.274511%,62.7451%,27.843139%);fill-opacity:1;" d="M 30.28125 35.242188 C 29.734375 35.242188 29.296875 35.683594 29.296875 36.226562 L 29.296875 44.03125 C 29.296875 44.78125 30.101562 45.257812 30.757812 44.890625 L 39.6875 39.070312 C 40 38.898438 40.195312 38.566406 40.195312 38.210938 L 40.195312 36.226562 C 40.195312 35.683594 39.753906 35.242188 39.210938 35.242188 Z M 30.28125 35.242188 "/>
<path style=" stroke:none;fill-rule:nonzero;fill:rgb(40.000001%,73.333335%,41.568628%);fill-opacity:1;" d="M 3.96875 3.351562 L 43.65625 3.351562 C 44.753906 3.351562 45.640625 4.238281 45.640625 5.335938 L 45.640625 37.085938 C 45.640625 38.183594 44.753906 39.070312 43.65625 39.070312 L 3.96875 39.070312 C 2.871094 39.070312 1.984375 38.183594 1.984375 37.085938 L 1.984375 5.335938 C 1.984375 4.238281 2.871094 3.351562 3.96875 3.351562 Z M 3.96875 3.351562 "/>
<path style=" stroke:none;fill-rule:nonzero;fill:rgb(93.333334%,93.333334%,93.333334%);fill-opacity:1;" d="M 16.152344 15.5625 C 15.730469 15.972656 15.625 16.609375 15.890625 17.132812 C 16.65625 19.734375 18.414062 22.253906 20.546875 24.367188 C 22.664062 26.5 25.183594 28.257812 27.78125 29.023438 C 28.304688 29.292969 28.941406 29.1875 29.355469 28.765625 L 31.238281 26.882812 C 31.761719 26.355469 31.761719 25.507812 31.238281 24.984375 L 28.726562 22.472656 C 28.203125 21.949219 27.355469 21.949219 26.828125 22.472656 L 24.945312 24.355469 C 24.898438 24.402344 24.855469 24.457031 24.816406 24.507812 C 23.992188 23.910156 23.1875 23.222656 22.445312 22.46875 C 21.695312 21.726562 21.007812 20.921875 20.410156 20.097656 C 20.460938 20.058594 20.511719 20.015625 20.558594 19.96875 L 22.445312 18.085938 C 22.96875 17.5625 22.96875 16.710938 22.445312 16.191406 L 19.929688 13.679688 C 19.410156 13.152344 18.558594 13.152344 18.035156 13.679688 Z M 16.152344 15.5625 "/>
</g>
</svg>
