<?xml version="1.0" encoding="UTF-8"?>
<svg xmlns="http://www.w3.org/2000/svg" xmlns:xlink="http://www.w3.org/1999/xlink" width="48px" height="48px" viewBox="0 0 48 48" version="1.1">
<g id="surface1">
<path style=" stroke:none;fill-rule:nonzero;fill:rgb(100%,71.764708%,30.19608%);fill-opacity:1;" d="M 3.96875 5.335938 L 43.65625 5.335938 C 44.753906 5.335938 45.640625 6.222656 45.640625 7.320312 L 45.640625 41.054688 C 45.640625 42.152344 44.753906 43.039062 43.65625 43.039062 L 3.96875 43.039062 C 2.871094 43.039062 1.984375 42.152344 1.984375 41.054688 L 1.984375 7.320312 C 1.984375 6.222656 2.871094 5.335938 3.96875 5.335938 Z M 3.96875 5.335938 "/>
<path style=" stroke:none;fill-rule:nonzero;fill:rgb(94.117647%,38.431373%,57.254905%);fill-opacity:1;" d="M 2.636719 5.847656 C 2.234375 6.210938 1.984375 6.734375 1.984375 7.320312 L 1.984375 41.054688 C 1.984375 42.152344 2.871094 43.039062 3.96875 43.039062 L 43.65625 43.039062 C 44.160156 43.039062 44.617188 42.855469 44.964844 42.546875 L 12.058594 13.273438 Z M 2.636719 5.847656 "/>
<path style=" stroke:none;fill-rule:nonzero;fill:rgb(72.941178%,40.784314%,78.431374%);fill-opacity:1;" d="M 45.015625 5.875 L 2.609375 42.5 C 2.960938 42.835938 3.441406 43.039062 3.96875 43.039062 L 43.65625 43.039062 C 44.753906 43.039062 45.640625 42.152344 45.640625 41.054688 L 45.640625 7.320312 C 45.640625 6.75 45.402344 6.234375 45.015625 5.875 Z M 45.015625 5.875 "/>
<path style=" stroke:none;fill-rule:nonzero;fill:rgb(96.078432%,96.078432%,96.078432%);fill-opacity:1;" d="M 26.789062 25.179688 L 42.664062 25.179688 C 43.210938 25.179688 43.65625 25.625 43.65625 26.171875 L 43.65625 40.0625 C 43.65625 40.609375 43.210938 41.054688 42.664062 41.054688 L 26.789062 41.054688 C 26.242188 41.054688 25.796875 40.609375 25.796875 40.0625 L 25.796875 26.171875 C 25.796875 25.625 26.242188 25.179688 26.789062 25.179688 Z M 26.789062 25.179688 "/>
</g>
</svg>
