
<svg xmlns="http://www.w3.org/2000/svg" xmlns:xlink="http://www.w3.org/1999/xlink" width="48px" height="48px" viewBox="0 0 48 48" version="1.1">
<g id="surface1">
<path style=" stroke:none;fill-rule:nonzero;fill:rgb(98.431373%,54.901963%,0%);fill-opacity:1;" d="M 18.660156 4.644531 C 18.496094 4.644531 18.328125 4.667969 18.164062 4.710938 C 17.101562 4.996094 16.476562 6.082031 16.761719 7.144531 L 19.980469 19.15625 L 11.183594 10.363281 C 10.40625 9.585938 9.15625 9.585938 8.378906 10.363281 C 7.601562 11.140625 7.601562 12.390625 8.378906 13.167969 L 21.007812 25.796875 L 26.617188 25.796875 L 39.246094 13.167969 C 40.023438 12.390625 40.023438 11.140625 39.246094 10.363281 C 38.46875 9.585938 37.21875 9.585938 36.441406 10.363281 L 27.644531 19.15625 L 30.863281 7.144531 C 31.148438 6.082031 30.523438 4.996094 29.460938 4.710938 C 28.398438 4.429688 27.316406 5.054688 27.03125 6.117188 L 23.8125 18.128906 L 20.59375 6.117188 C 20.351562 5.21875 19.542969 4.632812 18.660156 4.644531 Z M 18.660156 4.644531 "/>
<path style=" stroke:none;fill-rule:nonzero;fill:rgb(100%,65.490198%,14.901961%);fill-opacity:1;" d="M 23.8125 11.90625 C 10.914062 11.90625 7.9375 21.828125 3.96875 23.8125 C 2.871094 23.8125 1.984375 24.699219 1.984375 25.796875 C 1.984375 26.894531 2.871094 27.78125 3.96875 27.78125 C 7.9375 29.765625 10.914062 39.6875 23.8125 39.6875 C 36.710938 39.6875 39.6875 29.765625 43.65625 27.78125 C 44.753906 27.78125 45.640625 26.894531 45.640625 25.796875 C 45.640625 24.699219 44.753906 23.8125 43.65625 23.8125 C 39.6875 21.828125 36.710938 11.90625 23.8125 11.90625 Z M 23.8125 11.90625 "/>
<path style=" stroke:none;fill-rule:nonzero;fill:rgb(74.117649%,74.117649%,74.117649%);fill-opacity:1;" d="M 23.8125 14.882812 C 29.839844 14.882812 34.726562 19.769531 34.726562 25.796875 C 34.726562 31.824219 29.839844 36.710938 23.8125 36.710938 C 17.785156 36.710938 12.898438 31.824219 12.898438 25.796875 C 12.898438 19.769531 17.785156 14.882812 23.8125 14.882812 Z M 23.8125 14.882812 "/>
<path style=" stroke:none;fill-rule:nonzero;fill:rgb(93.333334%,93.333334%,93.333334%);fill-opacity:1;" d="M 23.8125 15.875 C 29.292969 15.875 33.734375 20.316406 33.734375 25.796875 C 33.734375 31.277344 29.292969 35.71875 23.8125 35.71875 C 18.332031 35.71875 13.890625 31.277344 13.890625 25.796875 C 13.890625 20.316406 18.332031 15.875 23.8125 15.875 Z M 23.8125 15.875 "/>
<path style=" stroke:none;fill-rule:nonzero;fill:rgb(11.764706%,53.333336%,89.803922%);fill-opacity:1;" d="M 23.8125 18.851562 C 19.964844 18.851562 16.867188 21.949219 16.867188 25.796875 C 16.867188 29.644531 19.964844 32.742188 23.8125 32.742188 C 27.660156 32.742188 30.757812 29.644531 30.757812 25.796875 C 30.757812 24.804688 30.550781 23.867188 30.179688 23.015625 C 29.871094 24.328125 28.695312 25.300781 27.285156 25.300781 C 25.636719 25.300781 24.308594 23.972656 24.308594 22.324219 C 24.308594 20.914062 25.28125 19.738281 26.59375 19.429688 C 25.742188 19.058594 24.804688 18.851562 23.8125 18.851562 Z M 23.8125 18.851562 "/>
<path style=" stroke:none;fill-rule:nonzero;fill:rgb(25.882354%,64.705884%,96.078432%);fill-opacity:1;" d="M 23.8125 20.339844 C 20.789062 20.339844 18.355469 22.773438 18.355469 25.796875 C 18.355469 28.820312 20.789062 31.253906 23.8125 31.253906 C 26.835938 31.253906 29.269531 28.820312 29.269531 25.796875 C 29.269531 25.402344 29.226562 25.019531 29.148438 24.648438 C 28.640625 25.058594 27.992188 25.300781 27.285156 25.300781 C 25.636719 25.300781 24.308594 23.972656 24.308594 22.324219 C 24.308594 21.617188 24.550781 20.96875 24.960938 20.460938 C 24.589844 20.382812 24.207031 20.339844 23.8125 20.339844 Z M 23.8125 20.339844 "/>
</g>
</svg>
