
<svg xmlns="http://www.w3.org/2000/svg" xmlns:xlink="http://www.w3.org/1999/xlink" width="48px" height="48px" viewBox="0 0 48 48" version="1.1">
<g id="surface1">
<path style=" stroke:none;fill-rule:nonzero;fill:rgb(0%,53.725493%,48.235294%);fill-opacity:1;" d="M 6.945312 5.335938 C 5.84375 5.335938 4.960938 6.21875 4.960938 7.320312 L 4.960938 10.296875 L 3.96875 10.296875 C 2.867188 10.296875 1.984375 11.183594 1.984375 12.28125 L 1.984375 31.132812 C 1.984375 32.230469 2.867188 33.117188 3.96875 33.117188 L 40.679688 33.117188 C 41.78125 33.117188 42.664062 32.230469 42.664062 31.132812 L 42.664062 28.15625 L 43.65625 28.15625 C 44.757812 28.15625 45.640625 27.273438 45.640625 26.171875 L 45.640625 7.320312 C 45.640625 6.21875 44.757812 5.335938 43.65625 5.335938 Z M 6.945312 5.335938 "/>
<path style=" stroke:none;fill-rule:nonzero;fill:rgb(14.901961%,65.098041%,60.392159%);fill-opacity:1;" d="M 3.96875 17.140625 C 2.867188 17.140625 1.984375 18.027344 1.984375 19.128906 L 1.984375 41.054688 C 1.984375 42.15625 2.867188 43.039062 3.96875 43.039062 L 43.65625 43.039062 C 44.757812 43.039062 45.640625 42.15625 45.640625 41.054688 L 45.640625 23.09375 C 45.640625 21.996094 44.757812 21.113281 43.65625 21.113281 L 30.757812 21.113281 C 29.65625 21.113281 28.773438 20.226562 28.773438 19.128906 C 28.773438 18.027344 27.886719 17.140625 26.789062 17.140625 Z M 3.96875 17.140625 "/>
</g>
</svg>
