
<svg xmlns="http://www.w3.org/2000/svg" xmlns:xlink="http://www.w3.org/1999/xlink" width="48px" height="48px" viewBox="0 0 48 48" version="1.1">
<g id="surface1">
<path style=" stroke:none;fill-rule:nonzero;fill:rgb(26.274511%,62.7451%,27.843139%);fill-opacity:1;" d="M 6.945312 5.335938 L 43.652344 5.335938 C 44.753906 5.335938 45.640625 6.222656 45.640625 7.320312 L 45.640625 19.226562 C 45.640625 20.328125 44.753906 21.214844 43.652344 21.214844 L 6.945312 21.214844 C 5.847656 21.214844 4.960938 20.328125 4.960938 19.226562 L 4.960938 7.320312 C 4.960938 6.222656 5.847656 5.335938 6.945312 5.335938 Z M 6.945312 5.335938 "/>
<path style=" stroke:none;fill-rule:nonzero;fill:rgb(96.078432%,96.078432%,96.078432%);fill-opacity:1;" d="M 23.8125 11.292969 L 43.652344 11.292969 C 44.207031 11.292969 44.652344 11.734375 44.652344 12.28125 L 44.652344 19.226562 C 44.652344 19.773438 44.207031 20.214844 43.652344 20.214844 L 23.8125 20.214844 C 23.265625 20.214844 22.824219 19.773438 22.824219 19.226562 L 22.824219 12.28125 C 22.824219 11.734375 23.265625 11.292969 23.8125 11.292969 Z M 23.8125 11.292969 "/>
<path style=" stroke:none;fill-rule:nonzero;fill:rgb(40.000001%,73.333335%,41.568628%);fill-opacity:1;" d="M 3.972656 9.308594 C 2.871094 9.308594 1.984375 10.191406 1.984375 11.292969 L 1.984375 41.054688 C 1.984375 42.152344 2.871094 43.039062 3.972656 43.039062 L 43.652344 43.039062 C 44.753906 43.039062 45.640625 42.152344 45.640625 41.054688 L 45.640625 17.242188 C 45.640625 16.140625 44.753906 15.253906 43.652344 15.253906 L 30.757812 15.253906 C 29.660156 15.253906 28.773438 14.371094 28.773438 13.269531 L 28.773438 11.292969 C 28.773438 10.191406 27.886719 9.308594 26.785156 9.308594 Z M 3.972656 9.308594 "/>
<path style=" stroke:none;fill-rule:nonzero;fill:rgb(100%,100%,100%);fill-opacity:0.352941;" d="M 18.359375 19.210938 C 16.703125 19.210938 15.375 20.539062 15.375 22.191406 C 15.375 23.839844 16.703125 25.167969 18.359375 25.167969 C 18.640625 25.167969 18.910156 25.125 19.167969 25.058594 L 21.910156 29.8125 C 21.253906 30.359375 20.839844 31.183594 20.839844 32.113281 C 20.839844 33.757812 22.167969 35.089844 23.8125 35.089844 C 25.457031 35.089844 26.785156 33.757812 26.785156 32.113281 C 26.785156 31.183594 26.371094 30.359375 25.714844 29.8125 L 28.457031 25.058594 C 28.714844 25.125 28.984375 25.167969 29.265625 25.167969 C 30.921875 25.167969 32.25 23.839844 32.25 22.191406 C 32.25 20.539062 30.921875 19.210938 29.265625 19.210938 C 27.621094 19.210938 26.292969 20.539062 26.292969 22.191406 C 26.292969 23.199219 26.796875 24.09375 27.5625 24.628906 L 24.851562 29.316406 C 24.527344 29.199219 24.179688 29.140625 23.8125 29.140625 C 23.445312 29.140625 23.097656 29.199219 22.773438 29.316406 L 20.0625 24.628906 C 20.828125 24.09375 21.332031 23.199219 21.332031 22.191406 C 21.332031 20.539062 20.003906 19.210938 18.359375 19.210938 Z M 18.359375 19.210938 "/>
</g>
</svg>
