
<svg xmlns="http://www.w3.org/2000/svg" xmlns:xlink="http://www.w3.org/1999/xlink" width="48px" height="48px" viewBox="0 0 48 48" version="1.1">
<g id="surface1">
<path style=" stroke:none;fill-rule:nonzero;fill:rgb(26.274511%,62.7451%,27.843139%);fill-opacity:1;" d="M 6.945312 5.335938 L 43.652344 5.335938 C 44.753906 5.335938 45.640625 6.222656 45.640625 7.320312 L 45.640625 19.226562 C 45.640625 20.328125 44.753906 21.214844 43.652344 21.214844 L 6.945312 21.214844 C 5.847656 21.214844 4.960938 20.328125 4.960938 19.226562 L 4.960938 7.320312 C 4.960938 6.222656 5.847656 5.335938 6.945312 5.335938 Z M 6.945312 5.335938 "/>
<path style=" stroke:none;fill-rule:nonzero;fill:rgb(96.078432%,96.078432%,96.078432%);fill-opacity:1;" d="M 23.8125 11.292969 L 43.652344 11.292969 C 44.207031 11.292969 44.652344 11.734375 44.652344 12.28125 L 44.652344 19.226562 C 44.652344 19.773438 44.207031 20.214844 43.652344 20.214844 L 23.8125 20.214844 C 23.265625 20.214844 22.824219 19.773438 22.824219 19.226562 L 22.824219 12.28125 C 22.824219 11.734375 23.265625 11.292969 23.8125 11.292969 Z M 23.8125 11.292969 "/>
<path style=" stroke:none;fill-rule:nonzero;fill:rgb(40.000001%,73.333335%,41.568628%);fill-opacity:1;" d="M 3.972656 9.308594 C 2.871094 9.308594 1.984375 10.191406 1.984375 11.292969 L 1.984375 41.054688 C 1.984375 42.152344 2.871094 43.039062 3.972656 43.039062 L 43.652344 43.039062 C 44.753906 43.039062 45.640625 42.152344 45.640625 41.054688 L 45.640625 17.242188 C 45.640625 16.140625 44.753906 15.246094 43.652344 15.253906 L 30.757812 15.253906 C 29.660156 15.253906 28.773438 14.371094 28.773438 13.269531 L 28.773438 11.292969 C 28.773438 10.191406 27.886719 9.308594 26.785156 9.308594 Z M 3.972656 9.308594 "/>
<path style=" stroke:none;fill-rule:nonzero;fill:rgb(100%,100%,100%);fill-opacity:0.352941;" d="M 23.8125 18.230469 C 19.414062 18.230469 15.878906 21.777344 15.878906 26.171875 C 15.878906 30.570312 19.414062 34.109375 23.8125 34.109375 C 28.210938 34.109375 31.746094 30.570312 31.746094 26.171875 C 31.746094 21.777344 28.210938 18.230469 23.8125 18.230469 Z M 23.8125 20.214844 C 24.742188 20.214844 25.621094 20.429688 26.402344 20.804688 C 26.394531 20.804688 26.394531 20.8125 26.394531 20.8125 C 26.34375 20.828125 26.265625 20.828125 26.265625 20.871094 C 26.257812 20.914062 26.308594 20.921875 26.308594 20.957031 C 26.292969 21.007812 26.25 21.015625 26.242188 21.066406 C 26.308594 21.171875 26.464844 21.066406 26.546875 21.050781 C 26.582031 21.035156 26.617188 21.050781 26.632812 21.027344 C 26.640625 21.007812 26.640625 20.964844 26.640625 20.933594 C 26.703125 20.957031 26.761719 20.992188 26.8125 21.027344 C 26.804688 21.035156 26.796875 21.042969 26.785156 21.066406 C 26.796875 21.101562 26.820312 21.09375 26.828125 21.136719 C 26.820312 21.179688 26.769531 21.179688 26.785156 21.222656 C 26.855469 21.273438 26.914062 21.230469 26.984375 21.222656 C 27.027344 21.214844 27.066406 21.214844 27.109375 21.214844 C 27.171875 21.246094 27.222656 21.289062 27.28125 21.324219 C 27.246094 21.347656 27.214844 21.375 27.195312 21.375 C 27.160156 21.375 27.09375 21.339844 27.066406 21.347656 C 27.027344 21.367188 27.042969 21.425781 27 21.441406 C 26.914062 21.46875 26.769531 21.359375 26.746094 21.484375 C 26.777344 21.554688 26.898438 21.527344 26.957031 21.570312 C 27 21.597656 27.058594 21.722656 27.066406 21.765625 C 27.078125 21.800781 27.085938 21.921875 27.066406 21.964844 C 27.027344 22.066406 26.921875 22.046875 26.804688 22.046875 C 26.769531 22.046875 26.746094 22.046875 26.71875 22.046875 C 26.523438 22.03125 26.328125 21.972656 26.242188 22.109375 C 26.25 22.21875 26.265625 22.277344 26.242188 22.371094 C 26.222656 22.441406 26.148438 22.484375 26.15625 22.542969 C 26.15625 22.578125 26.214844 22.636719 26.214844 22.679688 C 26.222656 22.695312 26.207031 22.738281 26.214844 22.765625 C 26.25 22.824219 26.335938 22.753906 26.394531 22.765625 C 26.445312 22.773438 26.503906 22.847656 26.503906 22.917969 C 26.503906 22.960938 26.488281 23.046875 26.453125 23.089844 C 26.402344 23.171875 26.300781 23.148438 26.214844 23.199219 C 26.15625 23.234375 26.128906 23.328125 26.089844 23.394531 C 26.046875 23.464844 26.011719 23.488281 26.027344 23.589844 C 25.96875 23.703125 25.902344 23.769531 25.789062 23.820312 C 25.753906 23.839844 25.714844 23.863281 25.679688 23.890625 C 25.652344 23.90625 25.628906 23.941406 25.59375 23.972656 C 25.542969 24.027344 25.484375 24.050781 25.457031 24.085938 C 25.441406 24.109375 25.457031 24.179688 25.441406 24.214844 C 25.414062 24.273438 25.363281 24.316406 25.328125 24.367188 C 25.3125 24.390625 25.285156 24.417969 25.269531 24.453125 C 25.226562 24.527344 25.167969 24.589844 25.175781 24.648438 C 25.183594 24.707031 25.261719 24.722656 25.269531 24.777344 C 25.269531 24.808594 25.246094 24.835938 25.246094 24.871094 C 25.246094 24.910156 25.261719 24.9375 25.269531 24.972656 C 25.269531 25.066406 25.21875 25.109375 25.203125 25.167969 C 25.191406 25.203125 25.210938 25.234375 25.203125 25.253906 C 25.183594 25.304688 25.117188 25.328125 25.117188 25.390625 C 25.117188 25.421875 25.175781 25.457031 25.175781 25.515625 C 25.183594 25.550781 25.152344 25.59375 25.160156 25.628906 C 25.167969 25.695312 25.304688 25.789062 25.355469 25.839844 C 25.421875 25.917969 25.492188 25.960938 25.527344 26.035156 C 25.550781 26.105469 25.566406 26.207031 25.609375 26.257812 C 25.652344 26.292969 25.722656 26.300781 25.765625 26.34375 C 25.808594 26.378906 25.867188 26.394531 25.917969 26.429688 C 25.996094 26.488281 26.097656 26.609375 26.222656 26.597656 C 26.285156 26.597656 26.34375 26.574219 26.410156 26.558594 C 26.488281 26.546875 26.582031 26.503906 26.660156 26.515625 C 26.710938 26.523438 26.769531 26.566406 26.828125 26.558594 C 26.890625 26.558594 26.972656 26.523438 27.042969 26.496094 C 27.171875 26.4375 27.367188 26.335938 27.546875 26.359375 C 27.683594 26.386719 27.683594 26.539062 27.785156 26.597656 C 27.894531 26.617188 27.980469 26.582031 28.066406 26.597656 C 28.132812 26.617188 28.210938 26.746094 28.21875 26.796875 C 28.21875 26.855469 28.183594 26.890625 28.175781 26.921875 C 28.160156 27 28.140625 27.09375 28.132812 27.144531 C 28.117188 27.179688 28.109375 27.214844 28.109375 27.253906 C 28.109375 27.28125 28.160156 27.359375 28.191406 27.402344 C 28.234375 27.460938 28.296875 27.496094 28.347656 27.554688 C 28.441406 27.664062 28.484375 27.808594 28.542969 27.945312 C 28.558594 27.980469 28.527344 27.988281 28.542969 28.03125 C 28.515625 28.246094 28.441406 28.378906 28.304688 28.621094 C 28.234375 28.695312 28.175781 28.78125 28.175781 28.882812 C 28.167969 29.105469 28.296875 29.222656 28.277344 29.445312 C 28.261719 29.734375 28.285156 29.785156 28.261719 29.941406 C 28.3125 29.964844 28.320312 30.015625 28.320312 30.066406 C 27.230469 31.328125 25.621094 32.121094 23.8125 32.121094 C 23.070312 32.121094 22.355469 31.984375 21.699219 31.738281 C 21.707031 31.738281 21.707031 31.730469 21.707031 31.722656 C 21.734375 31.6875 21.878906 31.660156 21.929688 31.652344 C 21.996094 31.644531 22.066406 31.660156 22.097656 31.636719 C 22.140625 31.609375 22.191406 31.542969 22.183594 31.457031 C 22.183594 31.421875 22.152344 31.40625 22.125 31.371094 C 22.097656 31.347656 22.117188 31.3125 22.097656 31.285156 C 22.074219 31.246094 22.03125 31.21875 22.015625 31.160156 C 22.109375 31.140625 22.226562 31.261719 22.363281 31.21875 C 22.421875 31.203125 22.527344 31.082031 22.558594 31.03125 C 22.566406 31.003906 22.550781 30.9375 22.558594 30.921875 C 22.566406 30.894531 22.59375 30.886719 22.601562 30.878906 C 22.609375 30.84375 22.59375 30.835938 22.601562 30.808594 C 22.628906 30.75 22.695312 30.707031 22.730469 30.65625 C 22.753906 30.621094 22.789062 30.589844 22.816406 30.554688 C 22.847656 30.511719 22.867188 30.496094 22.882812 30.460938 C 22.902344 30.347656 22.816406 30.265625 22.839844 30.160156 C 22.867188 30.042969 23.035156 29.972656 23.140625 29.921875 C 23.183594 29.90625 23.214844 29.863281 23.25 29.855469 C 23.328125 29.828125 23.421875 29.839844 23.488281 29.8125 C 23.609375 29.769531 23.652344 29.640625 23.710938 29.53125 C 23.734375 29.480469 23.769531 29.4375 23.769531 29.402344 C 23.777344 29.371094 23.769531 29.328125 23.769531 29.292969 C 23.777344 29.257812 23.777344 29.222656 23.796875 29.183594 C 23.804688 29.128906 23.8125 29.027344 23.8125 28.96875 C 23.8125 28.917969 23.796875 28.902344 23.796875 28.859375 C 23.785156 28.695312 23.839844 28.6875 23.898438 28.601562 C 23.933594 28.550781 23.949219 28.472656 23.964844 28.449219 C 24.066406 28.296875 24.238281 28.21875 24.230469 27.988281 C 24.222656 27.910156 24.195312 27.757812 24.136719 27.734375 C 24.109375 27.714844 24.035156 27.722656 23.992188 27.707031 C 23.839844 27.65625 23.726562 27.484375 23.574219 27.46875 C 23.539062 27.46875 23.523438 27.476562 23.488281 27.46875 C 23.429688 27.46875 23.359375 27.417969 23.292969 27.410156 C 23.25 27.402344 23.164062 27.417969 23.140625 27.410156 C 23.105469 27.390625 23.105469 27.324219 23.078125 27.296875 C 23.054688 27.28125 23.011719 27.273438 22.96875 27.253906 C 22.910156 27.230469 22.867188 27.214844 22.796875 27.214844 C 22.773438 27.214844 22.714844 27.214844 22.6875 27.214844 C 22.644531 27.203125 22.609375 27.171875 22.578125 27.144531 C 22.535156 27.121094 22.507812 27.101562 22.492188 27.058594 C 22.535156 26.921875 22.390625 26.898438 22.363281 26.820312 C 22.347656 26.785156 22.371094 26.726562 22.363281 26.691406 C 22.347656 26.640625 22.304688 26.625 22.253906 26.582031 C 22.160156 26.515625 22.082031 26.445312 21.945312 26.429688 C 21.894531 26.429688 21.828125 26.4375 21.757812 26.429688 C 21.683594 26.429688 21.597656 26.386719 21.535156 26.328125 C 21.484375 26.257812 21.476562 26.199219 21.425781 26.171875 C 21.382812 26.140625 21.308594 26.128906 21.28125 26.105469 C 21.265625 26.097656 21.273438 26.070312 21.253906 26.035156 C 21.230469 25.996094 21.1875 25.984375 21.214844 25.933594 C 21.160156 25.910156 21.179688 25.960938 21.128906 25.953125 C 21.078125 25.882812 21.042969 25.839844 20.933594 25.867188 C 20.878906 25.875 20.839844 25.953125 20.777344 25.953125 C 20.726562 25.953125 20.691406 25.875 20.625 25.867188 C 20.574219 25.859375 20.503906 25.917969 20.472656 25.910156 C 20.421875 25.902344 20.410156 25.832031 20.371094 25.796875 C 20.328125 25.78125 20.257812 25.714844 20.234375 25.714844 C 20.171875 25.714844 20.128906 25.847656 20.046875 25.796875 C 20.003906 25.746094 20.113281 25.746094 20.0625 25.695312 C 20.027344 25.652344 20.003906 25.695312 19.976562 25.714844 C 19.941406 25.738281 19.910156 25.765625 19.867188 25.78125 C 19.78125 25.816406 19.722656 25.808594 19.652344 25.839844 C 19.585938 25.875 19.578125 25.933594 19.542969 25.996094 C 19.515625 26.046875 19.457031 26.121094 19.414062 26.121094 C 19.355469 26.128906 19.304688 26.0625 19.261719 26.035156 C 19.117188 25.976562 19.03125 26.078125 18.910156 26.078125 C 18.800781 26.089844 18.648438 25.910156 18.65625 25.796875 C 18.65625 25.738281 18.691406 25.644531 18.699219 25.558594 C 18.699219 25.5 18.757812 25.449219 18.757812 25.390625 C 18.757812 25.3125 18.640625 25.246094 18.589844 25.234375 C 18.46875 25.21875 18.308594 25.285156 18.179688 25.234375 C 18.152344 25.191406 18.222656 25.167969 18.238281 25.125 C 18.246094 25.109375 18.230469 25.089844 18.238281 25.066406 C 18.253906 25.023438 18.308594 24.996094 18.324219 24.953125 C 18.339844 24.921875 18.332031 24.871094 18.347656 24.828125 C 18.367188 24.777344 18.410156 24.75 18.417969 24.714844 C 18.417969 24.671875 18.382812 24.613281 18.347656 24.589844 C 18.246094 24.589844 18.171875 24.605469 18.109375 24.628906 C 18.085938 24.640625 18.058594 24.65625 18.042969 24.683594 C 18.144531 24.289062 18.28125 23.921875 18.453125 23.566406 C 18.453125 23.566406 18.453125 23.566406 18.460938 23.566406 C 18.554688 23.582031 18.605469 23.558594 18.699219 23.566406 C 18.757812 23.574219 18.84375 23.652344 18.894531 23.652344 C 18.929688 23.660156 18.9375 23.609375 18.980469 23.609375 C 19.015625 23.617188 19.082031 23.691406 19.082031 23.746094 C 19.089844 23.796875 19.046875 23.855469 19.066406 23.914062 C 19.125 23.972656 19.246094 24.007812 19.328125 24.042969 C 19.378906 24 19.328125 23.890625 19.328125 23.828125 C 19.320312 23.796875 19.328125 23.769531 19.328125 23.746094 C 19.320312 23.691406 19.304688 23.652344 19.304688 23.609375 C 19.304688 23.429688 19.441406 23.351562 19.566406 23.285156 C 19.621094 23.257812 19.671875 23.199219 19.714844 23.171875 C 19.78125 23.148438 19.816406 23.140625 19.867188 23.113281 C 19.96875 23.054688 20.054688 23.003906 20.128906 22.933594 C 20.164062 22.859375 20.121094 22.753906 20.128906 22.679688 C 20.164062 22.652344 20.183594 22.679688 20.214844 22.679688 C 20.277344 22.660156 20.292969 22.578125 20.328125 22.550781 C 20.34375 22.527344 20.410156 22.527344 20.429688 22.507812 C 20.488281 22.457031 20.488281 22.398438 20.539062 22.371094 C 20.558594 22.371094 20.597656 22.363281 20.625 22.355469 C 20.667969 22.347656 20.71875 22.3125 20.777344 22.285156 C 20.820312 22.277344 20.914062 22.277344 20.933594 22.269531 C 20.949219 22.253906 20.921875 22.167969 20.933594 22.132812 C 20.957031 21.996094 21.171875 21.988281 21.296875 21.945312 C 21.390625 21.910156 21.484375 21.835938 21.578125 21.851562 C 21.5625 21.921875 21.476562 21.902344 21.496094 21.988281 C 21.519531 22.097656 21.648438 21.953125 21.691406 21.945312 C 21.765625 21.910156 21.910156 21.894531 22.015625 21.851562 C 22.109375 21.828125 22.253906 21.757812 22.167969 21.65625 C 22.097656 21.65625 22.074219 21.722656 22.015625 21.75 C 21.972656 21.75 21.964844 21.722656 21.929688 21.722656 C 21.894531 21.722656 21.878906 21.75 21.84375 21.75 C 21.808594 21.742188 21.757812 21.683594 21.757812 21.640625 C 21.742188 21.535156 21.859375 21.503906 21.902344 21.417969 C 21.878906 21.324219 21.75 21.417969 21.664062 21.375 C 21.671875 21.324219 21.707031 21.253906 21.777344 21.246094 C 21.835938 21.238281 21.964844 21.265625 21.996094 21.289062 C 22.015625 21.308594 21.988281 21.347656 22.015625 21.375 C 22.046875 21.410156 22.097656 21.382812 22.140625 21.375 C 22.160156 21.308594 22.046875 21.339844 22.058594 21.289062 C 22.140625 21.238281 22.304688 21.265625 22.40625 21.246094 C 22.464844 21.238281 22.527344 21.1875 22.578125 21.160156 C 22.628906 21.136719 22.679688 21.09375 22.730469 21.136719 C 22.746094 21.195312 22.695312 21.222656 22.660156 21.246094 C 22.566406 21.332031 22.484375 21.433594 22.40625 21.527344 C 22.449219 21.578125 22.527344 21.546875 22.601562 21.554688 C 22.628906 21.554688 22.679688 21.570312 22.703125 21.570312 C 22.746094 21.578125 22.789062 21.570312 22.816406 21.570312 C 22.867188 21.589844 22.875 21.65625 22.925781 21.65625 C 23.011719 21.65625 23.019531 21.589844 22.96875 21.527344 C 22.984375 21.46875 23.011719 21.417969 22.984375 21.375 C 22.953125 21.296875 22.796875 21.390625 22.796875 21.289062 C 22.789062 21.230469 22.859375 21.203125 22.882812 21.160156 C 22.867188 21.042969 22.976562 21.035156 22.96875 20.921875 C 22.960938 20.878906 22.910156 20.878906 22.882812 20.839844 C 22.867188 20.8125 22.859375 20.761719 22.839844 20.746094 C 22.773438 20.691406 22.652344 20.703125 22.644531 20.597656 C 22.636719 20.53125 22.652344 20.488281 22.644531 20.421875 C 22.636719 20.402344 22.628906 20.371094 22.621094 20.335938 C 23.003906 20.257812 23.402344 20.214844 23.8125 20.214844 Z M 19.847656 21.722656 C 19.875 21.734375 19.902344 21.785156 19.925781 21.785156 C 19.960938 21.792969 20.019531 21.757812 20.035156 21.765625 C 20.089844 21.777344 20.113281 21.878906 20.0625 21.921875 C 20.019531 21.921875 20.003906 21.871094 19.96875 21.878906 C 19.882812 21.886719 19.867188 22.046875 19.796875 22.046875 C 19.738281 22.039062 19.695312 21.921875 19.753906 21.878906 C 19.753906 21.851562 19.746094 21.835938 19.738281 21.816406 C 19.78125 21.785156 19.816406 21.757812 19.847656 21.722656 Z M 28.039062 21.972656 C 28.253906 22.191406 28.457031 22.421875 28.636719 22.679688 C 28.585938 22.679688 28.550781 22.695312 28.515625 22.722656 C 28.558594 22.789062 28.644531 22.808594 28.738281 22.824219 C 28.890625 23.054688 29.035156 23.285156 29.15625 23.53125 C 29.113281 23.515625 29.070312 23.488281 29.019531 23.480469 C 28.976562 23.472656 28.917969 23.488281 28.890625 23.480469 C 28.816406 23.453125 28.839844 23.371094 28.78125 23.328125 C 28.746094 23.300781 28.660156 23.265625 28.609375 23.257812 C 28.578125 23.257812 28.558594 23.265625 28.515625 23.257812 C 28.472656 23.257812 28.40625 23.257812 28.371094 23.242188 C 28.339844 23.214844 28.246094 23.183594 28.234375 23.15625 C 28.226562 23.105469 28.347656 23.035156 28.347656 23.003906 C 28.347656 22.96875 28.3125 22.960938 28.304688 22.917969 C 28.296875 22.882812 28.3125 22.847656 28.304688 22.824219 C 28.296875 22.796875 28.246094 22.765625 28.191406 22.765625 C 28.152344 22.765625 28.109375 22.78125 28.066406 22.78125 C 28.003906 22.78125 27.894531 22.753906 27.828125 22.765625 C 27.785156 22.765625 27.757812 22.78125 27.714844 22.78125 C 27.605469 22.789062 27.546875 22.78125 27.460938 22.78125 C 27.390625 22.789062 27.273438 22.824219 27.222656 22.847656 C 27.1875 22.859375 27.171875 22.890625 27.128906 22.917969 C 27.109375 22.917969 27.09375 22.925781 27.066406 22.933594 C 27.035156 22.953125 26.972656 22.996094 26.941406 23.003906 C 26.890625 23.011719 26.828125 22.996094 26.746094 23.003906 C 26.675781 23.003906 26.566406 22.984375 26.566406 22.910156 C 26.566406 22.796875 26.777344 22.847656 26.898438 22.824219 C 26.933594 22.816406 26.949219 22.765625 27 22.738281 C 27.027344 22.730469 27.042969 22.714844 27.066406 22.695312 C 27.101562 22.671875 27.171875 22.621094 27.179688 22.585938 C 27.179688 22.558594 27.144531 22.515625 27.152344 22.5 C 27.160156 22.472656 27.203125 22.449219 27.238281 22.414062 C 27.296875 22.363281 27.324219 22.296875 27.390625 22.261719 C 27.433594 22.234375 27.527344 22.234375 27.546875 22.191406 C 27.554688 22.160156 27.546875 22.152344 27.546875 22.109375 C 27.570312 22.082031 27.5625 22.074219 27.589844 22.066406 C 27.65625 22.046875 27.722656 22.089844 27.800781 22.089844 C 27.835938 22.082031 27.878906 22.089844 27.910156 22.066406 C 27.945312 22.046875 27.972656 22.015625 27.996094 22.003906 C 28.015625 21.996094 28.023438 21.980469 28.039062 21.972656 Z M 20.371094 21.996094 C 20.378906 21.996094 20.386719 21.996094 20.386719 22.003906 C 20.359375 22.082031 20.164062 22.058594 20.105469 22.023438 C 20.105469 22.003906 20.128906 22.003906 20.148438 22.003906 C 20.164062 21.996094 20.191406 22.003906 20.214844 22.003906 C 20.242188 22.003906 20.265625 22.003906 20.300781 22.003906 C 20.316406 22.003906 20.351562 21.996094 20.371094 21.996094 Z M 28.140625 22.140625 C 28.132812 22.140625 28.132812 22.152344 28.125 22.160156 C 28.089844 22.167969 28.066406 22.253906 28.125 22.261719 C 28.160156 22.246094 28.160156 22.210938 28.152344 22.160156 C 28.140625 22.152344 28.140625 22.140625 28.140625 22.140625 Z M 19.960938 22.152344 C 19.960938 22.152344 19.96875 22.152344 19.96875 22.160156 C 19.917969 22.203125 19.832031 22.234375 19.730469 22.261719 C 19.6875 22.277344 19.609375 22.296875 19.601562 22.246094 C 19.59375 22.175781 19.644531 22.183594 19.6875 22.175781 C 19.746094 22.175781 19.839844 22.160156 19.910156 22.160156 C 19.925781 22.160156 19.941406 22.152344 19.960938 22.152344 Z M 28.132812 22.328125 C 28.125 22.328125 28.117188 22.328125 28.109375 22.328125 C 28.082031 22.328125 28.066406 22.328125 28.039062 22.347656 C 28.039062 22.421875 28.058594 22.457031 28.039062 22.527344 C 28.082031 22.601562 28.175781 22.550781 28.191406 22.5 C 28.21875 22.390625 28.175781 22.328125 28.132812 22.328125 Z M 17.898438 25.515625 C 17.921875 25.527344 17.949219 25.550781 17.972656 25.558594 C 18.042969 25.585938 18.144531 25.578125 18.195312 25.601562 C 18.273438 25.636719 18.324219 25.78125 18.390625 25.824219 C 18.390625 25.859375 18.375 25.902344 18.390625 25.925781 C 18.425781 25.96875 18.484375 25.984375 18.546875 26.011719 C 18.605469 26.054688 18.628906 26.140625 18.691406 26.164062 C 18.714844 26.171875 18.75 26.15625 18.785156 26.164062 C 18.859375 26.191406 18.886719 26.316406 18.953125 26.300781 C 18.996094 26.285156 19.015625 26.214844 19.023438 26.164062 C 19.046875 26.128906 19.082031 26.078125 19.125 26.078125 C 19.203125 26.078125 19.226562 26.171875 19.261719 26.25 C 19.269531 26.292969 19.3125 26.335938 19.320312 26.386719 C 19.339844 26.464844 19.339844 26.683594 19.320312 26.726562 C 19.304688 26.785156 19.21875 26.820312 19.167969 26.878906 C 19.152344 26.914062 19.125 26.949219 19.109375 26.964844 C 19.074219 27.007812 19.039062 27.027344 19.023438 27.058594 C 19.003906 27.078125 19.003906 27.121094 18.996094 27.144531 C 18.964844 27.222656 18.902344 27.28125 18.929688 27.382812 C 18.945312 27.417969 18.996094 27.46875 18.996094 27.511719 C 18.996094 27.570312 18.878906 27.578125 18.871094 27.640625 C 18.859375 27.683594 18.921875 27.777344 18.929688 27.835938 C 18.945312 27.878906 19.015625 27.921875 19.039062 27.945312 C 19.082031 27.996094 19.132812 28.058594 19.167969 28.117188 C 19.253906 28.246094 19.285156 28.390625 19.363281 28.507812 C 19.40625 28.566406 19.492188 28.621094 19.515625 28.679688 C 19.535156 28.714844 19.507812 28.78125 19.515625 28.816406 C 19.566406 28.917969 19.78125 29.019531 19.882812 29.070312 C 19.933594 29.097656 19.976562 29.113281 20.019531 29.140625 C 20.089844 29.171875 20.222656 29.25 20.257812 29.308594 C 20.285156 29.359375 20.308594 29.488281 20.316406 29.574219 C 20.34375 29.683594 20.316406 29.777344 20.316406 29.898438 C 20.328125 29.964844 20.34375 30.007812 20.34375 30.066406 C 20.34375 30.09375 20.34375 30.136719 20.34375 30.152344 C 20.34375 30.238281 20.34375 30.316406 20.34375 30.390625 C 20.34375 30.433594 20.34375 30.484375 20.34375 30.527344 C 20.34375 30.5625 20.386719 30.578125 20.386719 30.613281 C 20.386719 30.648438 20.335938 30.691406 20.34375 30.722656 C 20.351562 30.800781 20.4375 30.859375 20.453125 30.9375 C 20.464844 30.972656 20.472656 31.039062 20.472656 31.109375 C 18.894531 30.035156 17.855469 28.226562 17.855469 26.171875 C 17.855469 25.953125 17.871094 25.730469 17.898438 25.515625 Z M 20.035156 25.96875 C 20.070312 25.96875 20.0625 26.054688 20.019531 26.0625 C 19.96875 26.0625 19.96875 25.996094 20.019531 25.96875 C 20.027344 25.96875 20.027344 25.96875 20.035156 25.96875 Z M 20.035156 25.96875 "/>
</g>
</svg>
