
<svg xmlns="http://www.w3.org/2000/svg" xmlns:xlink="http://www.w3.org/1999/xlink" width="48px" height="48px" viewBox="0 0 48 48" version="1.1">
<g id="surface1">
<path style=" stroke:none;fill-rule:nonzero;fill:rgb(26.274511%,62.7451%,27.843139%);fill-opacity:1;" d="M 6.945312 5.335938 L 43.652344 5.335938 C 44.753906 5.335938 45.640625 6.222656 45.640625 7.320312 L 45.640625 19.226562 C 45.640625 20.328125 44.753906 21.214844 43.652344 21.214844 L 6.945312 21.214844 C 5.847656 21.214844 4.960938 20.328125 4.960938 19.226562 L 4.960938 7.320312 C 4.960938 6.222656 5.847656 5.335938 6.945312 5.335938 Z M 6.945312 5.335938 "/>
<path style=" stroke:none;fill-rule:nonzero;fill:rgb(96.078432%,96.078432%,96.078432%);fill-opacity:1;" d="M 23.8125 11.292969 L 43.652344 11.292969 C 44.207031 11.292969 44.652344 11.734375 44.652344 12.28125 L 44.652344 19.226562 C 44.652344 19.773438 44.207031 20.214844 43.652344 20.214844 L 23.8125 20.214844 C 23.265625 20.214844 22.824219 19.773438 22.824219 19.226562 L 22.824219 12.28125 C 22.824219 11.734375 23.265625 11.292969 23.8125 11.292969 Z M 23.8125 11.292969 "/>
<path style=" stroke:none;fill-rule:nonzero;fill:rgb(40.000001%,73.333335%,41.568628%);fill-opacity:1;" d="M 3.972656 9.308594 C 2.871094 9.308594 1.984375 10.191406 1.984375 11.292969 L 1.984375 41.054688 C 1.984375 42.152344 2.871094 43.039062 3.972656 43.039062 L 43.652344 43.039062 C 44.753906 43.039062 45.640625 42.152344 45.640625 41.054688 L 45.640625 17.242188 C 45.640625 16.140625 44.753906 15.246094 43.652344 15.253906 L 30.757812 15.253906 C 29.660156 15.253906 28.773438 14.371094 28.773438 13.269531 L 28.773438 11.292969 C 28.773438 10.191406 27.886719 9.308594 26.785156 9.308594 Z M 3.972656 9.308594 "/>
<path style=" stroke:none;fill-rule:nonzero;fill:rgb(100%,100%,100%);fill-opacity:0.352941;" d="M 23.8125 18.238281 C 21.066406 18.238281 18.851562 20.445312 18.851562 23.199219 L 18.851562 27.160156 L 17.855469 27.160156 C 17.308594 27.160156 16.867188 27.605469 16.867188 28.160156 L 16.867188 33.121094 C 16.867188 33.664062 17.308594 34.109375 17.855469 34.109375 L 29.761719 34.109375 C 30.316406 34.109375 30.757812 33.664062 30.757812 33.121094 L 30.757812 28.160156 C 30.757812 27.605469 30.316406 27.160156 29.761719 27.160156 L 28.773438 27.160156 L 28.773438 23.199219 C 28.773438 20.445312 26.558594 18.238281 23.8125 18.238281 Z M 23.8125 20.214844 C 25.457031 20.214844 26.785156 21.546875 26.785156 23.199219 L 26.785156 27.160156 L 20.839844 27.160156 L 20.839844 23.199219 C 20.839844 21.546875 22.167969 20.214844 23.8125 20.214844 Z M 23.8125 20.214844 "/>
</g>
</svg>
