<?xml version="1.0" encoding="UTF-8"?>
<svg xmlns="http://www.w3.org/2000/svg" xmlns:xlink="http://www.w3.org/1999/xlink" width="22px" height="22px" viewBox="0 0 22 22" version="1.1">
<defs>
<linearGradient id="linear0" gradientUnits="userSpaceOnUse" x1="7" y1="17" x2="17" y2="7" gradientTransform="matrix(1,0,0,1,-1,-1.000013)">
<stop offset="0" style="stop-color:rgb(16.078432%,71.372551%,96.470588%);stop-opacity:1;"/>
<stop offset="1" style="stop-color:rgb(88.235295%,96.078432%,99.607843%);stop-opacity:1;"/>
</linearGradient>
</defs>
<g id="surface1">
<path style=" stroke:none;fill-rule:nonzero;fill:url(#linear0);" d="M 6 6 L 6 13 L 9 13 L 9 16 L 16 16 L 16 9 L 13 9 L 13 6 Z M 6 6 "/>
<defs>
  <style id="current-color-scheme" type="text/css">
   .ColorScheme-Text { color:#424242; } .ColorScheme-Highlight { color:#eeeeee; }
  </style>
 </defs>
<path style="fill:currentColor" class="ColorScheme-Text" d="M 13 4 L 13 7.585938 L 7.585938 13 L 4 13 L 4 18 L 9 18 L 9 14.414062 L 14.414062 9 L 18 9 L 18 4 Z M 15 6 L 16 6 L 16 7 L 15 7 Z M 6 15 L 7 15 L 7 16 L 6 16 Z M 6 15 "/>
</g>
</svg>
