
<svg xmlns="http://www.w3.org/2000/svg" xmlns:xlink="http://www.w3.org/1999/xlink" width="22px" height="22px" viewBox="0 0 22 22" version="1.1">
<g id="surface1">
<defs>
  <style id="current-color-scheme" type="text/css">
   .ColorScheme-Text { color:#424242; } .ColorScheme-Highlight { color:#eeeeee; }
  </style>
 </defs>
<path style="fill:currentColor" class="ColorScheme-Text" d="M 11 4 C 9.339844 4 8 5.339844 8 7 C 8 8.660156 9.339844 10 11 10 C 12.660156 10 14 8.660156 14 7 C 14 5.339844 12.660156 4 11 4 Z M 7 11 C 5.890625 11 5 11.890625 5 13 L 5 18 L 7 18 L 7 15.5 C 7 15.222656 7.195312 15 7.4375 15 L 7.5625 15 C 7.804688 15 8 15.222656 8 15.5 L 8 18 L 13 18 L 13 17 L 11 17 L 11 13 L 13 13 L 13 11 Z M 14 12 L 14 14 L 12 14 L 12 16 L 14 16 L 14 18 L 16 18 L 16 16 L 18 16 L 18 14 L 16 14 L 16 12 Z M 14 12 "/>
</g>
</svg>
