
<svg xmlns="http://www.w3.org/2000/svg" xmlns:xlink="http://www.w3.org/1999/xlink" width="22px" height="22px" viewBox="0 0 22 22" version="1.1">
<g id="surface1">
<defs>
  <style id="current-color-scheme" type="text/css">
   .ColorScheme-Text { color:#424242; } .ColorScheme-Highlight { color:#eeeeee; }
  </style>
 </defs>
<path style="fill:currentColor" class="ColorScheme-Text" d="M 6.5 5 L 6.5 7.996094 L 11 7.996094 C 11.347656 7.996094 11.675781 8.066406 11.972656 8.191406 C 12.273438 8.316406 12.546875 8.5 12.773438 8.726562 C 13 8.953125 13.179688 9.226562 13.308594 9.523438 C 13.367188 9.671875 13.367188 9.839844 13.402344 10 L 9.003906 10 C 7.074219 10 5.5 11.566406 5.5 13.496094 C 5.5 15.425781 7.074219 17.003906 9.003906 17.003906 L 16.5 17.003906 L 16.5 10.5 C 16.5 7.460938 14.039062 4.996094 11 4.996094 L 8.003906 4.996094 Z M 9.003906 12.996094 L 13.503906 12.996094 L 13.503906 13.996094 L 9.003906 13.996094 C 8.71875 13.996094 8.503906 13.78125 8.503906 13.496094 C 8.503906 13.210938 8.71875 12.996094 9.003906 12.996094 Z M 9.003906 12.996094 "/>
</g>
</svg>
