
<svg xmlns="http://www.w3.org/2000/svg" xmlns:xlink="http://www.w3.org/1999/xlink" width="22px" height="22px" viewBox="0 0 22 22" version="1.1">
<g id="surface1">
<defs>
  <style id="current-color-scheme" type="text/css">
   .ColorScheme-Text { color:#424242; } .ColorScheme-Highlight { color:#eeeeee; }
  </style>
 </defs>
<path style="fill:currentColor" class="ColorScheme-Text" d="M 14.996094 4 C 12.109375 4 10.175781 4.59375 8.878906 5.625 C 7.582031 6.652344 7.046875 8.054688 6.773438 9.285156 C 6.5 10.511719 6.414062 11.636719 6.183594 12.25 C 6.070312 12.554688 5.957031 12.710938 5.820312 12.808594 C 5.683594 12.910156 5.476562 13 5 13 L 4 13 L 4 18 L 18 18 L 18 13 L 17 13 C 15.332031 13 14.324219 12.28125 13.953125 11.085938 C 13.585938 9.886719 13.914062 7.957031 15.78125 5.625 L 17.078125 4 Z M 13.066406 6.46875 C 12.078125 8.359375 11.585938 10.175781 12.046875 11.671875 C 12.574219 13.394531 14.152344 14.378906 15.996094 14.710938 L 15.996094 16.003906 L 5.996094 16.003906 L 5.996094 14.710938 C 6.335938 14.617188 6.734375 14.617188 7.003906 14.421875 C 7.539062 14.027344 7.859375 13.484375 8.058594 12.945312 C 8.457031 11.871094 8.496094 10.738281 8.722656 9.71875 C 8.949219 8.695312 9.289062 7.851562 10.117188 7.195312 C 10.617188 6.796875 11.925781 6.21875 13 6 Z M 13.066406 6.46875 "/>
</g>
</svg>
