
<svg xmlns="http://www.w3.org/2000/svg" xmlns:xlink="http://www.w3.org/1999/xlink" width="22px" height="22px" viewBox="0 0 22 22" version="1.1">
<g id="surface1">
<defs>
  <style id="current-color-scheme" type="text/css">
   .ColorScheme-Text { color:#424242; } .ColorScheme-Highlight { color:#eeeeee; }
  </style>
 </defs>
<path style="fill:currentColor" class="ColorScheme-Text" d="M 8 4 L 8 6 L 4 6 L 4 18 L 18 18 L 18 6 L 14 6 L 14 4 Z M 9 5 L 13 5 L 13 6 L 9 6 Z M 6 8 L 16 8 L 16 11 L 14 11 L 14 10 L 13 10 L 13 11 L 9 11 L 9 10 L 8 10 L 8 11 L 6 11 Z M 6 12 L 8 12 L 8 13 L 9 13 L 9 12 L 13 12 L 13 13 L 14 13 L 14 12 L 16 12 L 16 16 L 6 16 Z M 6 12 "/>
</g>
</svg>
