
<svg xmlns="http://www.w3.org/2000/svg" xmlns:xlink="http://www.w3.org/1999/xlink" width="22px" height="22px" viewBox="0 0 22 22" version="1.1">
<g id="surface1">
<defs>
  <style id="current-color-scheme" type="text/css">
   .ColorScheme-Text { color:#424242; } .ColorScheme-Highlight { color:#eeeeee; }
  </style>
 </defs>
<path style="fill:currentColor" class="ColorScheme-Text" d="M 11 4 C 10.445312 4 10 4.445312 10 5 L 10 10.25 C 10 10.386719 9.886719 10.5 9.75 10.5 C 9.613281 10.5 9.5 10.386719 9.5 10.25 L 9.5 6 C 9.5 5.445312 9.054688 5 8.5 5 C 7.945312 5 7.5 5.445312 7.5 6 L 7.5 12.140625 L 5.914062 11 C 5.523438 10.609375 4.890625 10.609375 4.5 11 C 4.109375 11.390625 4.109375 12.023438 4.5 12.414062 L 7.976562 16.292969 C 8.738281 17.300781 10.355469 18 12.25 18 C 14.882812 18 17 17.042969 17 13.519531 L 17 7.5 C 17 6.945312 16.554688 6.5 16 6.5 C 15.445312 6.5 15 6.945312 15 7.5 L 15 10.25 C 15 10.386719 14.886719 10.5 14.75 10.5 C 14.613281 10.5 14.5 10.386719 14.5 10.25 L 14.5 6 C 14.5 5.445312 14.054688 5 13.5 5 C 12.945312 5 12.5 5.445312 12.5 6 L 12.5 10.25 C 12.5 10.386719 12.386719 10.5 12.25 10.5 C 12.113281 10.5 12 10.386719 12 10.25 L 12 5 C 12 4.445312 11.554688 4 11 4 Z M 11 4 "/>
</g>
</svg>
