<?xml version="1.0" encoding="UTF-8"?>
<svg xmlns="http://www.w3.org/2000/svg" xmlns:xlink="http://www.w3.org/1999/xlink" width="22px" height="22px" viewBox="0 0 22 22" version="1.1">
<g id="surface1">
<defs>
  <style id="current-color-scheme" type="text/css">
   .ColorScheme-Text { color:#424242; } .ColorScheme-Highlight { color:#eeeeee; }
  </style>
 </defs>
<path style="fill:currentColor" class="ColorScheme-Text" d="M 4 4 L 4 8 L 6 8 L 6 6 L 8 6 L 8 4 Z M 14 4 L 9.757812 8.242188 L 11.171875 9.65625 L 13 7.828125 L 13 12 L 15 12 L 15 7.828125 L 16.828125 9.65625 L 18.242188 8.242188 Z M 4 12 L 4 18 L 10 18 L 10 12 Z M 6 14 L 8 14 L 8 16 L 6 16 Z M 16 14 L 16 16 L 14 16 L 14 18 L 18 18 L 18 14 Z M 16 14 "/>
</g>
</svg>
