<?xml version="1.0" encoding="UTF-8"?>
<svg xmlns="http://www.w3.org/2000/svg" xmlns:xlink="http://www.w3.org/1999/xlink" width="32px" height="32px" viewBox="0 0 32 32" version="1.1">
<g id="surface1">
<path style=" stroke:none;fill-rule:nonzero;fill:rgb(25.882354%,25.882354%,25.882354%);fill-opacity:0.392157;" d="M 12 6.667969 L 12 8 L 9.332031 8 L 9.332031 9.332031 L 22.667969 9.332031 L 22.667969 8 L 20 8 L 20 6.667969 Z M 9.332031 10.667969 L 9.332031 13.332031 L 22.667969 13.332031 L 22.667969 10.667969 Z M 9.332031 14.667969 L 9.332031 17.332031 L 22.667969 17.332031 L 22.667969 14.667969 Z M 9.332031 18.667969 L 9.332031 21.332031 L 22.667969 21.332031 L 22.667969 18.667969 Z M 9.332031 22.667969 L 9.332031 25.332031 L 22.667969 25.332031 L 22.667969 22.667969 Z M 9.332031 22.667969 "/>
<path style=" stroke:none;fill-rule:nonzero;fill:rgb(100%,43.921569%,26.274511%);fill-opacity:1;" d="M 22 15.335938 C 20.152344 15.335938 18.667969 16.820312 18.667969 18.667969 C 18.667969 18.898438 18.695312 19.117188 18.738281 19.335938 L 19.332031 19.335938 C 19.566406 19.335938 19.792969 19.363281 20 19.410156 L 20 18.667969 C 20 17.558594 20.890625 16.667969 22 16.667969 C 23.109375 16.667969 24 17.558594 24 18.667969 L 24 20 L 22.667969 20 C 21.929688 20 21.332031 20.59375 21.332031 21.332031 L 21.332031 22.667969 L 22.667969 22.667969 L 22.667969 21.332031 L 24 21.332031 C 24.738281 21.332031 25.332031 20.738281 25.332031 20 L 25.332031 18.667969 C 25.332031 16.820312 23.847656 15.335938 22 15.335938 Z M 21.332031 24 L 21.332031 25.332031 L 22.667969 25.332031 L 22.667969 24 Z M 21.332031 24 "/>
</g>
</svg>
