<?xml version="1.0" encoding="UTF-8"?>
<svg xmlns="http://www.w3.org/2000/svg" xmlns:xlink="http://www.w3.org/1999/xlink" width="16px" height="16px" viewBox="0 0 16 16" version="1.1">
<g id="surface1">
<path style=" stroke:none;fill-rule:nonzero;fill:rgb(74.117649%,74.117649%,74.117649%);fill-opacity:1;" d="M 11.078125 14.675781 L 13.230469 12.527344 L 11.574219 12.527344 C 11.300781 12.527344 11.078125 12.75 11.078125 13.023438 Z M 11.078125 14.675781 "/>
<path style=" stroke:none;fill-rule:nonzero;fill:rgb(25.882354%,25.882354%,25.882354%);fill-opacity:1;" d="M 2.644531 0.785156 L 13.230469 0.785156 C 13.59375 0.785156 13.890625 1.082031 13.890625 1.449219 L 13.890625 14.675781 C 13.890625 15.042969 13.59375 15.339844 13.230469 15.339844 L 2.644531 15.339844 C 2.28125 15.339844 1.984375 15.042969 1.984375 14.675781 L 1.984375 1.449219 C 1.984375 1.082031 2.28125 0.785156 2.644531 0.785156 Z M 2.644531 0.785156 "/>
<path style=" stroke:none;fill-rule:nonzero;fill:rgb(100%,79.215688%,15.686275%);fill-opacity:1;" d="M 2.976562 1.449219 C 2.792969 1.449219 2.644531 1.59375 2.644531 1.777344 L 2.644531 14.347656 C 2.644531 14.53125 2.792969 14.675781 2.976562 14.675781 L 10.582031 14.675781 L 13.230469 12.03125 L 13.230469 1.777344 C 13.230469 1.59375 13.082031 1.449219 12.898438 1.449219 Z M 2.976562 1.449219 "/>
<path style=" stroke:none;fill-rule:nonzero;fill:rgb(38.039216%,38.039216%,38.039216%);fill-opacity:1;" d="M 2.480469 0.785156 C 2.207031 0.785156 1.984375 1.007812 1.984375 1.28125 L 1.984375 3.433594 L 13.890625 3.433594 L 13.890625 1.28125 C 13.890625 1.007812 13.667969 0.785156 13.394531 0.785156 Z M 2.480469 0.785156 "/>
<path style=" stroke:none;fill-rule:nonzero;fill:rgb(0%,0%,0%);fill-opacity:0.235294;" d="M 3.96875 1.777344 C 4.152344 1.777344 4.300781 1.925781 4.300781 2.109375 C 4.300781 2.292969 4.152344 2.441406 3.96875 2.441406 C 3.785156 2.441406 3.636719 2.292969 3.636719 2.109375 C 3.636719 1.925781 3.785156 1.777344 3.96875 1.777344 Z M 3.96875 1.777344 "/>
<path style=" stroke:none;fill-rule:nonzero;fill:rgb(87.843138%,87.843138%,87.843138%);fill-opacity:1;" d="M 3.96875 1.449219 C 3.601562 1.449219 3.308594 1.742188 3.308594 2.109375 C 3.308594 2.476562 3.601562 2.769531 3.96875 2.769531 C 4.335938 2.769531 4.628906 2.476562 4.628906 2.109375 C 4.628906 1.742188 4.335938 1.449219 3.96875 1.449219 Z M 3.96875 1.777344 C 4.152344 1.777344 4.300781 1.925781 4.300781 2.109375 C 4.300781 2.292969 4.152344 2.441406 3.96875 2.441406 C 3.785156 2.441406 3.636719 2.292969 3.636719 2.109375 C 3.636719 1.925781 3.785156 1.777344 3.96875 1.777344 Z M 3.96875 1.777344 "/>
<path style=" stroke:none;fill-rule:nonzero;fill:rgb(0%,0%,0%);fill-opacity:0.235294;" d="M 7.9375 1.777344 C 8.121094 1.777344 8.269531 1.925781 8.269531 2.109375 C 8.269531 2.292969 8.121094 2.441406 7.9375 2.441406 C 7.753906 2.441406 7.605469 2.292969 7.605469 2.109375 C 7.605469 1.925781 7.753906 1.777344 7.9375 1.777344 Z M 7.9375 1.777344 "/>
<path style=" stroke:none;fill-rule:nonzero;fill:rgb(87.843138%,87.843138%,87.843138%);fill-opacity:1;" d="M 7.9375 1.449219 C 7.570312 1.449219 7.277344 1.742188 7.277344 2.109375 C 7.277344 2.476562 7.570312 2.769531 7.9375 2.769531 C 8.304688 2.769531 8.597656 2.476562 8.597656 2.109375 C 8.597656 1.742188 8.304688 1.449219 7.9375 1.449219 Z M 7.9375 1.777344 C 8.121094 1.777344 8.269531 1.925781 8.269531 2.109375 C 8.269531 2.292969 8.121094 2.441406 7.9375 2.441406 C 7.753906 2.441406 7.605469 2.292969 7.605469 2.109375 C 7.605469 1.925781 7.753906 1.777344 7.9375 1.777344 Z M 7.9375 1.777344 "/>
<path style=" stroke:none;fill-rule:nonzero;fill:rgb(0%,0%,0%);fill-opacity:0.235294;" d="M 11.90625 1.777344 C 12.089844 1.777344 12.238281 1.925781 12.238281 2.109375 C 12.238281 2.292969 12.089844 2.441406 11.90625 2.441406 C 11.722656 2.441406 11.574219 2.292969 11.574219 2.109375 C 11.574219 1.925781 11.722656 1.777344 11.90625 1.777344 Z M 11.90625 1.777344 "/>
<path style=" stroke:none;fill-rule:nonzero;fill:rgb(87.843138%,87.843138%,87.843138%);fill-opacity:1;" d="M 11.90625 1.449219 C 11.539062 1.449219 11.246094 1.742188 11.246094 2.109375 C 11.246094 2.476562 11.539062 2.769531 11.90625 2.769531 C 12.273438 2.769531 12.566406 2.476562 12.566406 2.109375 C 12.566406 1.742188 12.273438 1.449219 11.90625 1.449219 Z M 11.90625 1.777344 C 12.089844 1.777344 12.238281 1.925781 12.238281 2.109375 C 12.238281 2.292969 12.089844 2.441406 11.90625 2.441406 C 11.722656 2.441406 11.574219 2.292969 11.574219 2.109375 C 11.574219 1.925781 11.722656 1.777344 11.90625 1.777344 Z M 11.90625 1.777344 "/>
<path style=" stroke:none;fill-rule:nonzero;fill:rgb(100%,75.686276%,2.745098%);fill-opacity:1;" d="M 13.230469 12.03125 L 10.582031 14.675781 L 12.898438 14.675781 C 13.082031 14.675781 13.230469 14.53125 13.230469 14.347656 Z M 13.230469 12.03125 "/>
<path style=" stroke:none;fill-rule:nonzero;fill:rgb(100%,87.843138%,50.980395%);fill-opacity:1;" d="M 10.582031 14.675781 L 13.230469 12.03125 L 10.914062 12.03125 C 10.730469 12.03125 10.582031 12.179688 10.582031 12.363281 Z M 10.582031 14.675781 "/>
</g>
</svg>
