<?xml version="1.0" encoding="UTF-8"?>
<svg xmlns="http://www.w3.org/2000/svg" xmlns:xlink="http://www.w3.org/1999/xlink" width="16px" height="16px" viewBox="0 0 16 16" version="1.1">
<g id="surface1">
<path style=" stroke:none;fill-rule:nonzero;fill:rgb(25.882354%,25.882354%,25.882354%);fill-opacity:1;" d="M 0.660156 8.0625 L 0.660156 14.675781 C 0.660156 15.042969 0.957031 15.339844 1.324219 15.339844 L 14.550781 15.339844 C 14.917969 15.339844 15.214844 15.042969 15.214844 14.675781 L 15.214844 8.0625 Z M 0.660156 8.0625 "/>
<path style=" stroke:none;fill-rule:nonzero;fill:rgb(12.941177%,12.941177%,12.941177%);fill-opacity:1;" d="M 0.660156 6.078125 L 15.214844 6.078125 L 15.214844 8.0625 L 0.660156 8.0625 Z M 0.660156 6.078125 "/>
<path style=" stroke:none;fill-rule:nonzero;fill:rgb(25.882354%,64.705884%,96.078432%);fill-opacity:1;" d="M 2.792969 9.75 L 13.082031 9.75 C 13.164062 9.75 13.230469 9.816406 13.230469 9.898438 C 13.230469 9.980469 13.164062 10.046875 13.082031 10.046875 L 2.792969 10.046875 C 2.710938 10.046875 2.644531 9.980469 2.644531 9.898438 C 2.644531 9.816406 2.710938 9.75 2.792969 9.75 Z M 2.792969 9.75 "/>
<path style=" stroke:none;fill-rule:nonzero;fill:rgb(25.882354%,64.705884%,96.078432%);fill-opacity:1;" d="M 2.804688 11.71875 L 13.070312 11.71875 C 13.160156 11.71875 13.230469 11.789062 13.230469 11.875 C 13.230469 11.960938 13.160156 12.03125 13.070312 12.03125 L 2.804688 12.03125 C 2.714844 12.03125 2.644531 11.960938 2.644531 11.875 C 2.644531 11.789062 2.714844 11.71875 2.804688 11.71875 Z M 2.804688 11.71875 "/>
<path style=" stroke:none;fill-rule:nonzero;fill:rgb(12.941177%,12.941177%,12.941177%);fill-opacity:1;" d="M 0.660156 6.078125 L 15.214844 6.078125 L 15.214844 8.0625 L 0.660156 8.0625 Z M 0.660156 6.078125 "/>
<path style=" stroke:none;fill-rule:nonzero;fill:rgb(93.333334%,93.333334%,93.333334%);fill-opacity:1;" d="M 1.976562 6.078125 L 0.832031 8.0625 L 2.742188 8.0625 L 3.886719 6.078125 Z M 5.945312 6.078125 L 4.800781 8.0625 L 6.710938 8.0625 L 7.855469 6.078125 Z M 10.023438 6.078125 L 8.878906 8.0625 L 10.789062 8.0625 L 11.933594 6.078125 Z M 13.882812 6.078125 L 12.738281 8.0625 L 14.648438 8.0625 L 15.214844 7.082031 L 15.214844 6.078125 Z M 13.882812 6.078125 "/>
<path style=" stroke:none;fill-rule:nonzero;fill:rgb(12.941177%,12.941177%,12.941177%);fill-opacity:1;" d="M 13.949219 0.707031 C 14.300781 0.609375 14.664062 0.820312 14.757812 1.175781 L 15.101562 2.453125 L 1.042969 6.21875 L 0.703125 4.941406 C 0.605469 4.585938 0.816406 4.226562 1.167969 4.128906 Z M 13.949219 0.707031 "/>
<path style=" stroke:none;fill-rule:nonzero;fill:rgb(93.333334%,93.333334%,93.333334%);fill-opacity:1;" d="M 1.167969 4.128906 C 1.019531 4.171875 0.894531 4.257812 0.808594 4.371094 L 2.316406 5.878906 L 4.160156 5.382812 L 2.539062 3.761719 Z M 4.527344 3.230469 L 6.148438 4.851562 L 7.992188 4.355469 L 6.371094 2.734375 Z M 8.46875 2.175781 L 10.085938 3.792969 L 11.933594 3.300781 L 10.3125 1.679688 Z M 12.195312 1.175781 L 13.816406 2.796875 L 15.101562 2.453125 L 14.839844 1.480469 L 14.046875 0.6875 C 14.011719 0.691406 13.980469 0.699219 13.949219 0.707031 Z M 12.195312 1.175781 "/>
<path style=" stroke:none;fill-rule:nonzero;fill:rgb(38.039216%,38.039216%,38.039216%);fill-opacity:1;" d="M 1.820312 4.09375 C 1.175781 4.09375 0.660156 4.609375 0.660156 5.25 L 0.660156 7.898438 C 0.660156 7.953125 0.664062 8.007812 0.671875 8.0625 L 2.964844 8.0625 C 2.972656 8.007812 2.976562 7.953125 2.976562 7.898438 L 2.976562 5.25 C 2.976562 4.609375 2.460938 4.09375 1.820312 4.09375 Z M 1.820312 4.09375 "/>
<path style=" stroke:none;fill-rule:nonzero;fill:rgb(12.941177%,12.941177%,12.941177%);fill-opacity:1;" d="M 1.820312 4.589844 C 2.09375 4.589844 2.316406 4.8125 2.316406 5.085938 C 2.316406 5.359375 2.09375 5.582031 1.820312 5.582031 C 1.546875 5.582031 1.324219 5.359375 1.324219 5.085938 C 1.324219 4.8125 1.546875 4.589844 1.820312 4.589844 Z M 1.820312 4.589844 "/>
<path style=" stroke:none;fill-rule:nonzero;fill:rgb(12.941177%,12.941177%,12.941177%);fill-opacity:1;" d="M 1.820312 6.574219 C 2.09375 6.574219 2.316406 6.796875 2.316406 7.070312 C 2.316406 7.34375 2.09375 7.566406 1.820312 7.566406 C 1.546875 7.566406 1.324219 7.34375 1.324219 7.070312 C 1.324219 6.796875 1.546875 6.574219 1.820312 6.574219 Z M 1.820312 6.574219 "/>
</g>
</svg>
