
<svg xmlns="http://www.w3.org/2000/svg" xmlns:xlink="http://www.w3.org/1999/xlink" width="16px" height="16px" viewBox="0 0 16 16" version="1.1">
<g id="surface1">
<path style="fill-rule:nonzero;fill:rgb(38.039216%,38.039216%,38.039216%);fill-opacity:1;stroke-width:0.264583;stroke-linecap:butt;stroke-linejoin:miter;stroke:rgb(0%,0%,0%);stroke-opacity:1;stroke-miterlimit:4;" d="M 21.125 -151.5 L 74.125 -193.875 L 74.125 -119.75 Z M 21.125 -151.5 " transform="matrix(0.03125,0,0,0.03125,0,6.71875)"/>
<path style="fill-rule:nonzero;fill:rgb(38.039216%,38.039216%,38.039216%);fill-opacity:1;stroke-width:0.264583;stroke-linecap:butt;stroke-linejoin:miter;stroke:rgb(0%,0%,0%);stroke-opacity:1;stroke-miterlimit:4;" d="M 486.875 -151.5 L 433.875 -193.875 L 433.875 -119.75 Z M 486.875 -151.5 " transform="matrix(0.03125,0,0,0.03125,0,6.71875)"/>
<path style=" stroke:none;fill-rule:nonzero;fill:rgb(25.882354%,25.882354%,25.882354%);fill-opacity:1;" d="M 2.316406 1.324219 L 13.558594 1.324219 L 13.558594 2.316406 L 2.316406 2.316406 Z M 2.316406 1.324219 "/>
<path style=" stroke:none;fill-rule:nonzero;fill:rgb(38.039216%,38.039216%,38.039216%);fill-opacity:1;" d="M 2.316406 1.324219 L 13.558594 1.324219 L 13.558594 1.820312 L 2.316406 1.820312 Z M 2.316406 1.324219 "/>
<path style=" stroke:none;fill-rule:nonzero;fill:rgb(94.117647%,38.431373%,57.254905%);fill-opacity:1;" d="M 5.621094 1.324219 L 6.945312 1.324219 L 6.945312 1.488281 L 5.621094 1.488281 Z M 5.621094 1.324219 "/>
<path style=" stroke:none;fill-rule:nonzero;fill:rgb(94.117647%,38.431373%,57.254905%);fill-opacity:1;" d="M 8.929688 1.324219 L 10.253906 1.324219 L 10.253906 1.488281 L 8.929688 1.488281 Z M 8.929688 1.324219 "/>
<path style=" stroke:none;fill-rule:nonzero;fill:rgb(94.117647%,38.431373%,57.254905%);fill-opacity:1;" d="M 2.644531 1.324219 L 3.96875 1.324219 L 3.96875 1.488281 L 2.644531 1.488281 Z M 2.644531 1.324219 "/>
<path style=" stroke:none;fill-rule:nonzero;fill:rgb(95.686275%,56.078434%,69.411767%);fill-opacity:1;" d="M 2.644531 1.324219 L 2.644531 5.851562 C 3.117188 6.222656 3.636719 6.613281 3.636719 6.613281 L 3.308594 6.613281 L 2.976562 7.277344 L 2.976562 8.269531 L 2.644531 8.335938 L 2.644531 12.566406 L 4.628906 13.558594 L 5.292969 12.898438 L 5.070312 13.78125 L 5.292969 13.890625 L 5.621094 13.558594 L 5.480469 13.984375 L 7.9375 15.214844 L 10.070312 14.148438 L 10.253906 13.230469 L 10.804688 13.78125 L 10.914062 13.726562 L 10.914062 12.898438 L 11.296875 13.535156 L 13.230469 12.566406 L 13.230469 7.605469 L 12.238281 7.277344 L 13.230469 7.078125 L 13.230469 6.78125 L 12.566406 6.613281 L 13.230469 6.394531 L 13.230469 1.324219 L 11.90625 1.324219 L 11.90625 3.308594 L 10.253906 3.308594 L 10.253906 1.324219 L 8.929688 1.324219 L 8.929688 3.308594 L 6.945312 3.308594 L 6.945312 1.324219 L 5.621094 1.324219 L 5.621094 3.308594 L 3.96875 3.308594 L 3.96875 1.324219 Z M 2.644531 1.324219 "/>
<path style=" stroke:none;fill-rule:nonzero;fill:rgb(92.54902%,25.098041%,47.843137%);fill-opacity:1;" d="M 2.976562 1.652344 L 2.976562 6.109375 C 3.332031 6.382812 3.636719 6.613281 3.636719 6.613281 L 3.308594 6.613281 L 2.976562 7.277344 L 2.976562 12.320312 L 4.882812 13.304688 L 5.292969 12.898438 L 5.15625 13.445312 L 5.539062 13.644531 L 5.621094 13.558594 L 5.585938 13.667969 L 7.9375 14.882812 L 10.152344 13.738281 L 10.253906 13.230469 L 10.554688 13.53125 L 10.914062 13.34375 L 10.914062 12.898438 L 11.117188 13.238281 L 12.898438 12.320312 L 12.898438 7.496094 L 12.238281 7.277344 L 12.898438 7.144531 L 12.898438 6.695312 L 12.566406 6.613281 L 12.898438 6.503906 L 12.898438 1.652344 L 12.238281 1.652344 L 12.238281 3.636719 L 9.921875 3.636719 L 9.921875 1.652344 L 9.261719 1.652344 L 9.261719 3.636719 L 6.613281 3.636719 L 6.613281 1.652344 L 5.953125 1.652344 L 5.953125 3.636719 L 3.636719 3.636719 L 3.636719 1.652344 Z M 2.976562 1.652344 "/>
<path style=" stroke:none;fill-rule:nonzero;fill:rgb(97.254902%,73.333335%,81.568629%);fill-opacity:1;" d="M 11.90625 1.324219 L 13.230469 1.324219 L 13.230469 1.820312 L 11.90625 1.820312 Z M 11.90625 1.324219 "/>
<path style=" stroke:none;fill-rule:nonzero;fill:rgb(94.117647%,38.431373%,57.254905%);fill-opacity:1;" d="M 12.238281 1.652344 L 12.898438 1.652344 L 12.898438 1.820312 L 12.238281 1.820312 Z M 12.238281 1.652344 "/>
<path style=" stroke:none;fill-rule:nonzero;fill:rgb(97.254902%,73.333335%,81.568629%);fill-opacity:1;" d="M 8.929688 1.324219 L 10.253906 1.324219 L 10.253906 1.820312 L 8.929688 1.820312 Z M 8.929688 1.324219 "/>
<path style=" stroke:none;fill-rule:nonzero;fill:rgb(94.117647%,38.431373%,57.254905%);fill-opacity:1;" d="M 9.261719 1.652344 L 9.921875 1.652344 L 9.921875 1.820312 L 9.261719 1.820312 Z M 9.261719 1.652344 "/>
<path style=" stroke:none;fill-rule:nonzero;fill:rgb(97.254902%,73.333335%,81.568629%);fill-opacity:1;" d="M 2.644531 1.324219 L 3.96875 1.324219 L 3.96875 1.820312 L 2.644531 1.820312 Z M 2.644531 1.324219 "/>
<path style=" stroke:none;fill-rule:nonzero;fill:rgb(94.117647%,38.431373%,57.254905%);fill-opacity:1;" d="M 2.976562 1.652344 L 3.636719 1.652344 L 3.636719 1.820312 L 2.976562 1.820312 Z M 2.976562 1.652344 "/>
<path style=" stroke:none;fill-rule:nonzero;fill:rgb(97.254902%,73.333335%,81.568629%);fill-opacity:1;" d="M 5.621094 1.324219 L 6.945312 1.324219 L 6.945312 1.820312 L 5.621094 1.820312 Z M 5.621094 1.324219 "/>
<path style=" stroke:none;fill-rule:nonzero;fill:rgb(94.117647%,38.431373%,57.254905%);fill-opacity:1;" d="M 5.953125 1.652344 L 6.613281 1.652344 L 6.613281 1.820312 L 5.953125 1.820312 Z M 5.953125 1.652344 "/>
<path style=" stroke:none;fill-rule:nonzero;fill:rgb(96.078432%,96.078432%,96.078432%);fill-opacity:1;" d="M 5.953125 5.292969 L 5.953125 6.613281 L 6.246094 6.613281 C 6.574219 6.46875 6.945312 6.285156 6.945312 6.285156 L 7.109375 6.449219 L 8.101562 6.613281 L 8.433594 6.285156 L 8.597656 6.449219 L 9.09375 6.449219 L 9.148438 6.503906 L 8.929688 5.953125 L 8.597656 5.953125 L 8.597656 5.292969 L 7.277344 5.292969 L 7.277344 5.953125 L 6.820312 5.953125 L 6.449219 6.199219 L 6.648438 5.953125 L 6.613281 5.953125 L 6.613281 5.292969 Z M 8.929688 5.953125 L 9.480469 6.503906 L 9.589844 6.449219 L 9.921875 6.582031 L 9.921875 5.292969 L 9.261719 5.292969 L 9.261719 5.953125 Z M 7.027344 6.945312 L 6.863281 7.027344 L 6.613281 6.964844 L 6.613281 7.9375 L 9.261719 7.9375 L 9.261719 7.0625 L 9.117188 6.945312 L 9.011719 6.945312 L 9.011719 7.027344 L 8.929688 6.945312 L 8.679688 7.027344 L 8.597656 6.945312 L 8.269531 7.027344 L 8.019531 7.109375 L 7.964844 6.945312 L 7.835938 6.945312 L 7.523438 7.191406 L 7.277344 6.945312 Z M 6.613281 8.269531 L 6.613281 10.636719 L 7.277344 10.859375 L 7.277344 10.582031 C 7.277344 10.21875 7.570312 9.921875 7.9375 9.921875 C 8.277344 9.921875 8.554688 10.175781 8.59375 10.503906 L 8.929688 10.253906 L 8.765625 10.253906 L 9.09375 9.921875 L 8.929688 9.921875 L 9.261719 9.671875 L 9.261719 8.269531 L 7.070312 8.269531 L 6.863281 8.679688 L 6.921875 8.269531 Z M 7.441406 8.597656 L 8.433594 8.597656 L 8.433594 9.589844 L 7.441406 9.589844 L 7.441406 8.929688 L 6.945312 9.09375 L 7.441406 8.847656 Z M 9.261719 10.085938 L 8.597656 10.53125 C 8.597656 10.546875 8.597656 10.566406 8.597656 10.582031 L 8.597656 11.574219 L 9.261719 11.574219 Z M 6.820312 10.789062 L 7.277344 10.957031 L 7.277344 10.882812 Z M 6.613281 10.859375 L 6.613281 11.574219 L 7.277344 11.574219 L 7.277344 11.007812 Z M 6.613281 10.859375 "/>
</g>
</svg>
