<?xml version="1.0" encoding="UTF-8"?>
<svg xmlns="http://www.w3.org/2000/svg" xmlns:xlink="http://www.w3.org/1999/xlink" width="16px" height="16px" viewBox="0 0 16 16" version="1.1">
<g id="surface1">
<path style=" stroke:none;fill-rule:nonzero;fill:rgb(98.431373%,54.901963%,0%);fill-opacity:1;" d="M 2.644531 0.785156 L 13.230469 0.785156 C 13.59375 0.785156 13.890625 1.082031 13.890625 1.449219 L 13.890625 14.675781 C 13.890625 15.042969 13.59375 15.339844 13.230469 15.339844 L 2.644531 15.339844 C 2.28125 15.339844 1.984375 15.042969 1.984375 14.675781 L 1.984375 1.449219 C 1.984375 1.082031 2.28125 0.785156 2.644531 0.785156 Z M 2.644531 0.785156 "/>
<path style=" stroke:none;fill-rule:nonzero;fill:rgb(96.078432%,96.078432%,96.078432%);fill-opacity:1;" d="M 3.636719 1.117188 L 13.230469 1.117188 C 13.410156 1.117188 13.558594 1.265625 13.558594 1.449219 L 13.558594 14.675781 C 13.558594 14.859375 13.410156 15.007812 13.230469 15.007812 L 3.636719 15.007812 C 3.457031 15.007812 3.308594 14.859375 3.308594 14.675781 L 3.308594 1.449219 C 3.308594 1.265625 3.457031 1.117188 3.636719 1.117188 Z M 3.636719 1.117188 "/>
<path style=" stroke:none;fill-rule:nonzero;fill:rgb(100%,65.490198%,14.901961%);fill-opacity:1;" d="M 3.96875 0.785156 L 3.96875 15.339844 L 12.566406 15.339844 C 12.933594 15.339844 13.230469 15.042969 13.230469 14.675781 L 13.230469 1.449219 C 13.230469 1.082031 12.933594 0.785156 12.566406 0.785156 Z M 3.96875 0.785156 "/>
<path style=" stroke:none;fill-rule:nonzero;fill:rgb(25.882354%,25.882354%,25.882354%);fill-opacity:1;" d="M 2.644531 0.785156 C 2.28125 0.785156 1.984375 1.082031 1.984375 1.449219 L 1.984375 14.675781 C 1.984375 15.042969 2.28125 15.339844 2.644531 15.339844 L 3.96875 15.339844 L 3.96875 0.785156 Z M 2.644531 0.785156 "/>
<path style=" stroke:none;fill-rule:nonzero;fill:rgb(38.039216%,38.039216%,38.039216%);fill-opacity:1;" d="M 1.984375 7.730469 L 3.636719 7.730469 L 3.636719 8.394531 L 1.984375 8.394531 Z M 1.984375 7.730469 "/>
<path style=" stroke:none;fill-rule:nonzero;fill:rgb(38.039216%,38.039216%,38.039216%);fill-opacity:1;" d="M 1.984375 4.09375 L 3.636719 4.09375 L 3.636719 4.753906 L 1.984375 4.753906 Z M 1.984375 4.09375 "/>
<path style=" stroke:none;fill-rule:nonzero;fill:rgb(38.039216%,38.039216%,38.039216%);fill-opacity:1;" d="M 1.984375 11.371094 L 3.636719 11.371094 L 3.636719 12.03125 L 1.984375 12.03125 Z M 1.984375 11.371094 "/>
<path style=" stroke:none;fill-rule:nonzero;fill:rgb(25.882354%,25.882354%,25.882354%);fill-opacity:1;" d="M 4.960938 0.785156 L 6.285156 0.785156 L 6.285156 9.386719 L 5.621094 8.394531 L 4.960938 9.386719 Z M 4.960938 0.785156 "/>
<path style=" stroke:none;fill-rule:nonzero;fill:rgb(25.882354%,25.882354%,25.882354%);fill-opacity:1;" d="M 9.480469 9.714844 C 9.167969 10.0625 8.9375 10.46875 8.792969 10.902344 L 9.546875 11.65625 L 9.546875 12.269531 L 8.792969 13.019531 C 8.867188 13.234375 8.960938 13.445312 9.078125 13.648438 C 9.195312 13.851562 9.332031 14.039062 9.480469 14.210938 L 10.507812 13.933594 L 11.039062 14.242188 L 11.316406 15.269531 C 11.761719 15.363281 12.230469 15.363281 12.6875 15.269531 L 12.964844 14.242188 L 13.496094 13.933594 L 14.523438 14.210938 C 14.835938 13.859375 15.066406 13.453125 15.210938 13.019531 L 14.457031 12.269531 L 14.457031 11.65625 L 15.207031 10.902344 C 15.136719 10.6875 15.042969 10.476562 14.925781 10.273438 C 14.808594 10.070312 14.671875 9.882812 14.523438 9.714844 L 13.496094 9.988281 L 12.964844 9.679688 L 12.6875 8.652344 C 12.242188 8.558594 11.773438 8.558594 11.316406 8.652344 L 11.039062 9.679688 L 10.507812 9.988281 Z M 9.480469 9.714844 "/>
<path style=" stroke:none;fill-rule:nonzero;fill:rgb(74.117649%,74.117649%,74.117649%);fill-opacity:1;" d="M 12 9.507812 C 13.359375 9.507812 14.457031 10.605469 14.457031 11.960938 C 14.457031 13.316406 13.359375 14.417969 12 14.417969 C 10.644531 14.417969 9.546875 13.316406 9.546875 11.960938 C 9.546875 10.605469 10.644531 9.507812 12 9.507812 Z M 12 9.507812 "/>
<path style=" stroke:none;fill-rule:nonzero;fill:rgb(25.882354%,25.882354%,25.882354%);fill-opacity:1;" d="M 12 10.121094 C 13.019531 10.121094 13.84375 10.945312 13.84375 11.960938 C 13.84375 12.976562 13.019531 13.800781 12 13.800781 C 10.984375 13.800781 10.160156 12.976562 10.160156 11.960938 C 10.160156 10.945312 10.984375 10.121094 12 10.121094 Z M 12 10.121094 "/>
<path style=" stroke:none;fill-rule:nonzero;fill:rgb(74.117649%,74.117649%,74.117649%);fill-opacity:1;" d="M 12 10.734375 C 12.679688 10.734375 13.230469 11.285156 13.230469 11.960938 C 13.230469 12.640625 12.679688 13.1875 12 13.1875 C 11.324219 13.1875 10.773438 12.640625 10.773438 11.960938 C 10.773438 11.285156 11.324219 10.734375 12 10.734375 Z M 12 10.734375 "/>
</g>
</svg>
