<?xml version="1.0" encoding="UTF-8"?>
<svg xmlns="http://www.w3.org/2000/svg" xmlns:xlink="http://www.w3.org/1999/xlink" width="16px" height="16px" viewBox="0 0 16 16" version="1.1">
<g id="surface1">
<path style=" stroke:none;fill-rule:nonzero;fill:rgb(87.843138%,87.843138%,87.843138%);fill-opacity:1;" d="M 7.9375 0.785156 C 6.25 2.140625 3.632812 2.160156 1.515625 2.160156 C 1.574219 5.105469 2.351562 8.375 3.523438 10.914062 C 4.132812 12.234375 4.847656 13.355469 5.605469 14.132812 C 6.367188 14.910156 7.15625 15.339844 7.9375 15.339844 C 8.71875 15.339844 9.507812 14.910156 10.269531 14.132812 C 11.027344 13.355469 11.742188 12.234375 12.351562 10.914062 C 13.523438 8.375 14.300781 5.105469 14.359375 2.160156 C 12.242188 2.160156 9.625 2.140625 7.9375 0.785156 Z M 7.9375 0.785156 "/>
<path style=" stroke:none;fill-rule:nonzero;fill:rgb(25.882354%,25.882354%,25.882354%);fill-opacity:1;" d="M 7.9375 2.109375 C 6.546875 3.226562 4.390625 3.242188 2.644531 3.242188 C 2.695312 5.667969 3.335938 8.363281 4.300781 10.453125 C 4.800781 11.539062 5.390625 12.464844 6.015625 13.105469 C 6.644531 13.746094 7.292969 14.097656 7.9375 14.097656 C 8.582031 14.097656 9.230469 13.746094 9.859375 13.105469 C 10.484375 12.464844 11.074219 11.539062 11.574219 10.453125 C 12.539062 8.363281 13.179688 5.667969 13.230469 3.242188 C 11.484375 3.242188 9.328125 3.226562 7.9375 2.109375 Z M 7.9375 2.109375 "/>
<path style=" stroke:none;fill-rule:nonzero;fill:rgb(37.64706%,49.019608%,54.509807%);fill-opacity:1;" d="M 6.621094 5.285156 L 9.253906 5.285156 L 9.253906 13.367188 C 9.253906 14.023438 8.59375 14.679688 7.9375 15.339844 C 7.28125 14.679688 6.621094 14.023438 6.621094 13.367188 Z M 6.621094 5.285156 "/>
<path style=" stroke:none;fill-rule:nonzero;fill:rgb(38.039216%,38.039216%,38.039216%);fill-opacity:1;" d="M 5.964844 4.757812 L 9.910156 4.757812 L 9.910156 5.285156 L 5.964844 5.285156 Z M 5.964844 4.757812 "/>
<path style=" stroke:none;fill-rule:nonzero;fill:rgb(45.882353%,45.882353%,45.882353%);fill-opacity:1;" d="M 5.511719 4.492188 C 5.804688 4.492188 6.039062 4.730469 6.039062 5.023438 C 6.039062 5.3125 5.804688 5.550781 5.511719 5.550781 C 5.21875 5.550781 4.980469 5.3125 4.980469 5.023438 C 4.980469 4.730469 5.21875 4.492188 5.511719 4.492188 Z M 5.511719 4.492188 "/>
<path style=" stroke:none;fill-rule:nonzero;fill:rgb(45.882353%,45.882353%,45.882353%);fill-opacity:1;" d="M 10.367188 4.492188 C 10.660156 4.492188 10.894531 4.730469 10.894531 5.023438 C 10.894531 5.3125 10.660156 5.550781 10.367188 5.550781 C 10.074219 5.550781 9.835938 5.3125 9.835938 5.023438 C 9.835938 4.730469 10.074219 4.492188 10.367188 4.492188 Z M 10.367188 4.492188 "/>
<path style=" stroke:none;fill-rule:nonzero;fill:rgb(47.450981%,33.333334%,28.235295%);fill-opacity:1;" d="M 7.410156 2.113281 L 8.464844 2.113281 L 8.464844 4.757812 L 7.410156 4.757812 Z M 7.410156 2.113281 "/>
<path style=" stroke:none;fill-rule:nonzero;fill:rgb(45.882353%,45.882353%,45.882353%);fill-opacity:1;" d="M 7.9375 0.789062 C 8.375 0.789062 8.730469 1.144531 8.730469 1.582031 C 8.730469 2.019531 8.375 2.375 7.9375 2.375 C 7.5 2.375 7.144531 2.019531 7.144531 1.582031 C 7.144531 1.144531 7.5 0.789062 7.9375 0.789062 Z M 7.9375 0.789062 "/>
<path style=" stroke:none;fill-rule:nonzero;fill:rgb(56.470591%,64.313728%,68.235296%);fill-opacity:1;" d="M 6.621094 5.285156 L 6.621094 13.367188 C 6.621094 14.023438 7.28125 14.679688 7.9375 15.339844 L 7.9375 5.285156 Z M 6.621094 5.285156 "/>
<path style=" stroke:none;fill-rule:nonzero;fill:rgb(69.01961%,74.509805%,77.254903%);fill-opacity:1;" d="M 7.144531 5.285156 C 7.144531 5.726562 7.496094 6.078125 7.9375 6.078125 C 8.378906 6.078125 8.730469 5.726562 8.730469 5.285156 Z M 7.144531 5.285156 "/>
<path style=" stroke:none;fill-rule:nonzero;fill:rgb(74.117649%,74.117649%,74.117649%);fill-opacity:1;" d="M 7.691406 0.960938 C 7.828125 0.902344 7.902344 0.96875 7.859375 1.109375 C 7.8125 1.253906 7.660156 1.417969 7.523438 1.476562 C 7.386719 1.539062 7.3125 1.46875 7.359375 1.328125 C 7.40625 1.183594 7.554688 1.019531 7.691406 0.960938 Z M 7.691406 0.960938 "/>
<path style=" stroke:none;fill-rule:nonzero;fill:rgb(74.117649%,74.117649%,74.117649%);fill-opacity:1;" d="M 10.199219 4.617188 C 10.269531 4.585938 10.304688 4.621094 10.28125 4.691406 C 10.257812 4.761719 10.183594 4.84375 10.117188 4.875 C 10.046875 4.902344 10.007812 4.871094 10.03125 4.800781 C 10.054688 4.726562 10.132812 4.644531 10.199219 4.617188 Z M 10.199219 4.617188 "/>
<path style=" stroke:none;fill-rule:nonzero;fill:rgb(74.117649%,74.117649%,74.117649%);fill-opacity:1;" d="M 5.265625 4.617188 C 5.335938 4.585938 5.371094 4.621094 5.347656 4.691406 C 5.328125 4.761719 5.253906 4.84375 5.183594 4.875 C 5.113281 4.90625 5.078125 4.871094 5.101562 4.800781 C 5.125 4.730469 5.199219 4.648438 5.265625 4.617188 Z M 5.265625 4.617188 "/>
<path style=" stroke:none;fill-rule:nonzero;fill:rgb(55.29412%,43.137255%,38.82353%);fill-opacity:1;" d="M 7.402344 4.492188 L 8.472656 4.492188 C 8.539062 4.492188 8.59375 4.546875 8.59375 4.617188 C 8.59375 4.683594 8.539062 4.738281 8.472656 4.738281 L 7.402344 4.738281 C 7.335938 4.738281 7.28125 4.683594 7.28125 4.617188 C 7.28125 4.546875 7.335938 4.492188 7.402344 4.492188 Z M 7.402344 4.492188 "/>
<path style=" stroke:none;fill-rule:nonzero;fill:rgb(55.29412%,43.137255%,38.82353%);fill-opacity:1;" d="M 7.402344 4.082031 L 8.472656 4.082031 C 8.539062 4.082031 8.59375 4.136719 8.59375 4.203125 C 8.59375 4.273438 8.539062 4.328125 8.472656 4.328125 L 7.402344 4.328125 C 7.335938 4.328125 7.28125 4.273438 7.28125 4.203125 C 7.28125 4.136719 7.335938 4.082031 7.402344 4.082031 Z M 7.402344 4.082031 "/>
<path style=" stroke:none;fill-rule:nonzero;fill:rgb(55.29412%,43.137255%,38.82353%);fill-opacity:1;" d="M 7.402344 3.671875 L 8.472656 3.671875 C 8.539062 3.671875 8.59375 3.726562 8.59375 3.792969 C 8.59375 3.863281 8.539062 3.917969 8.472656 3.917969 L 7.402344 3.917969 C 7.335938 3.917969 7.28125 3.863281 7.28125 3.792969 C 7.28125 3.726562 7.335938 3.671875 7.402344 3.671875 Z M 7.402344 3.671875 "/>
<path style=" stroke:none;fill-rule:nonzero;fill:rgb(55.29412%,43.137255%,38.82353%);fill-opacity:1;" d="M 7.402344 3.261719 L 8.472656 3.261719 C 8.539062 3.261719 8.59375 3.316406 8.59375 3.382812 C 8.59375 3.449219 8.539062 3.507812 8.472656 3.507812 L 7.402344 3.507812 C 7.335938 3.507812 7.28125 3.449219 7.28125 3.382812 C 7.28125 3.316406 7.335938 3.261719 7.402344 3.261719 Z M 7.402344 3.261719 "/>
<path style=" stroke:none;fill-rule:nonzero;fill:rgb(55.29412%,43.137255%,38.82353%);fill-opacity:1;" d="M 7.402344 2.847656 L 8.472656 2.847656 C 8.539062 2.847656 8.59375 2.902344 8.59375 2.972656 C 8.59375 3.039062 8.539062 3.09375 8.472656 3.09375 L 7.402344 3.09375 C 7.335938 3.09375 7.28125 3.039062 7.28125 2.972656 C 7.28125 2.902344 7.335938 2.847656 7.402344 2.847656 Z M 7.402344 2.847656 "/>
<path style=" stroke:none;fill-rule:nonzero;fill:rgb(55.29412%,43.137255%,38.82353%);fill-opacity:1;" d="M 7.402344 2.4375 L 8.472656 2.4375 C 8.539062 2.4375 8.59375 2.492188 8.59375 2.5625 C 8.59375 2.628906 8.539062 2.683594 8.472656 2.683594 L 7.402344 2.683594 C 7.335938 2.683594 7.28125 2.628906 7.28125 2.5625 C 7.28125 2.492188 7.335938 2.4375 7.402344 2.4375 Z M 7.402344 2.4375 "/>
</g>
</svg>
