<?xml version="1.0" encoding="UTF-8"?>
<svg xmlns="http://www.w3.org/2000/svg" xmlns:xlink="http://www.w3.org/1999/xlink" width="16px" height="16px" viewBox="0 0 16 16" version="1.1">
<g id="surface1">
<path style=" stroke:none;fill-rule:nonzero;fill:rgb(47.058824%,56.470591%,61.176473%);fill-opacity:1;" d="M 7.9375 0.785156 C 11.957031 0.785156 15.214844 4.042969 15.214844 8.0625 C 15.214844 12.082031 11.957031 15.339844 7.9375 15.339844 C 3.917969 15.339844 0.660156 12.082031 0.660156 8.0625 C 0.660156 4.042969 3.917969 0.785156 7.9375 0.785156 Z M 7.9375 0.785156 "/>
<path style=" stroke:none;fill-rule:nonzero;fill:rgb(87.843138%,87.843138%,87.843138%);fill-opacity:1;" d="M 7.9375 3.433594 C 10.496094 3.433594 12.566406 5.503906 12.566406 8.0625 C 12.566406 10.621094 10.496094 12.691406 7.9375 12.691406 C 5.378906 12.691406 3.308594 10.621094 3.308594 8.0625 C 3.308594 5.503906 5.378906 3.433594 7.9375 3.433594 Z M 7.9375 3.433594 "/>
<path style=" stroke:none;fill-rule:nonzero;fill:rgb(25.882354%,25.882354%,25.882354%);fill-opacity:1;" d="M 7.9375 7.402344 C 7.019531 7.402344 6.285156 8.136719 6.285156 9.054688 C 6.285156 9.972656 7.019531 10.707031 7.9375 10.707031 C 8.855469 10.707031 9.589844 9.972656 9.589844 9.054688 C 9.589844 8.136719 8.855469 7.402344 7.9375 7.402344 Z M 7.9375 8.226562 C 8.394531 8.226562 8.765625 8.597656 8.765625 9.054688 C 8.765625 9.511719 8.394531 9.882812 7.9375 9.882812 C 7.480469 9.882812 7.109375 9.511719 7.109375 9.054688 C 7.109375 8.597656 7.480469 8.226562 7.9375 8.226562 Z M 7.9375 8.226562 "/>
<path style=" stroke:none;fill-rule:nonzero;fill:rgb(25.882354%,25.882354%,25.882354%);fill-opacity:1;" d="M 7.9375 5.582031 C 7.203125 5.582031 6.613281 6.171875 6.613281 6.90625 C 6.613281 7.636719 7.203125 8.226562 7.9375 8.226562 C 8.671875 8.226562 9.261719 7.636719 9.261719 6.90625 C 9.261719 6.171875 8.671875 5.582031 7.9375 5.582031 Z M 7.9375 6.410156 C 8.210938 6.410156 8.433594 6.628906 8.433594 6.90625 C 8.433594 7.179688 8.210938 7.402344 7.9375 7.402344 C 7.664062 7.402344 7.441406 7.179688 7.441406 6.90625 C 7.441406 6.628906 7.664062 6.410156 7.9375 6.410156 Z M 7.9375 6.410156 "/>
<path style=" stroke:none;fill-rule:nonzero;fill:rgb(69.01961%,74.509805%,77.254903%);fill-opacity:1;" d="M 4.824219 2.964844 C 5.082031 3.222656 4.871094 3.851562 4.355469 4.367188 C 3.839844 4.882812 3.210938 5.09375 2.953125 4.835938 C 2.695312 4.578125 2.902344 3.949219 3.421875 3.433594 C 3.9375 2.914062 4.566406 2.707031 4.824219 2.964844 Z M 4.824219 2.964844 "/>
</g>
</svg>
