
<svg xmlns="http://www.w3.org/2000/svg" xmlns:xlink="http://www.w3.org/1999/xlink" width="16px" height="16px" viewBox="0 0 16 16" version="1.1">
<g id="surface1">
<path style=" stroke:none;fill-rule:nonzero;fill:rgb(49.411765%,34.117648%,76.078433%);fill-opacity:1;" d="M 1.324219 0.785156 L 14.550781 0.785156 C 14.917969 0.785156 15.214844 1.082031 15.214844 1.449219 L 15.214844 14.675781 C 15.214844 15.042969 14.917969 15.339844 14.550781 15.339844 L 1.324219 15.339844 C 0.957031 15.339844 0.660156 15.042969 0.660156 14.675781 L 0.660156 1.449219 C 0.660156 1.082031 0.957031 0.785156 1.324219 0.785156 Z M 1.324219 0.785156 "/>
<path style=" stroke:none;fill-rule:nonzero;fill:rgb(70.19608%,61.56863%,85.882354%);fill-opacity:1;" d="M 6.324219 3.085938 L 5.796875 3.226562 C 5.363281 3.34375 5.105469 3.789062 5.222656 4.222656 L 6.417969 8.679688 C 6.476562 8.902344 6.617188 9.078125 6.800781 9.179688 L 9.070312 9.179688 C 9.253906 9.078125 9.398438 8.902344 9.457031 8.679688 L 10.652344 4.222656 C 10.769531 3.789062 10.511719 3.34375 10.074219 3.226562 L 9.550781 3.085938 L 8.144531 8.328125 C 8.078125 8.3125 8.007812 8.300781 7.9375 8.300781 C 7.863281 8.300781 7.792969 8.3125 7.726562 8.328125 Z M 6.324219 3.085938 "/>
<path style=" stroke:none;fill-rule:nonzero;fill:rgb(81.960785%,76.862746%,91.37255%);fill-opacity:1;" d="M 6.226562 9.3125 C 5.515625 9.304688 4.824219 9.902344 4.585938 10.785156 C 4.316406 11.796875 4.75 12.78125 5.554688 12.996094 C 6.363281 13.214844 7.230469 12.574219 7.5 11.566406 C 7.617188 11.121094 7.601562 10.679688 7.476562 10.308594 C 7.59375 10.210938 7.667969 10.0625 7.667969 9.894531 C 7.667969 9.878906 7.667969 9.863281 7.667969 9.847656 C 7.75 9.878906 7.84375 9.894531 7.9375 9.894531 C 8.03125 9.894531 8.125 9.878906 8.207031 9.847656 C 8.207031 9.863281 8.207031 9.878906 8.207031 9.894531 C 8.207031 10.0625 8.28125 10.210938 8.398438 10.308594 C 8.273438 10.679688 8.257812 11.121094 8.375 11.566406 C 8.644531 12.574219 9.511719 13.214844 10.320312 12.996094 C 11.128906 12.78125 11.558594 11.796875 11.289062 10.785156 C 11.019531 9.777344 10.152344 9.140625 9.34375 9.355469 C 9.246094 9.382812 9.15625 9.417969 9.070312 9.464844 C 8.980469 9.398438 8.867188 9.355469 8.746094 9.355469 C 8.730469 9.355469 8.714844 9.355469 8.699219 9.359375 C 8.699219 9.355469 8.699219 9.355469 8.699219 9.355469 C 8.691406 9.355469 8.683594 9.355469 8.675781 9.355469 L 7.175781 9.355469 C 7.175781 9.355469 7.175781 9.355469 7.175781 9.359375 C 7.160156 9.355469 7.144531 9.355469 7.128906 9.355469 C 7.007812 9.355469 6.894531 9.398438 6.804688 9.464844 C 6.71875 9.417969 6.628906 9.382812 6.53125 9.355469 C 6.429688 9.328125 6.328125 9.316406 6.226562 9.3125 Z M 6.148438 10.113281 C 6.207031 10.113281 6.265625 10.121094 6.320312 10.136719 C 6.78125 10.257812 7.03125 10.824219 6.875 11.398438 C 6.722656 11.976562 6.226562 12.339844 5.765625 12.21875 C 5.304688 12.09375 5.054688 11.53125 5.210938 10.953125 C 5.34375 10.449219 5.742188 10.105469 6.148438 10.113281 Z M 9.726562 10.113281 C 10.132812 10.105469 10.53125 10.449219 10.664062 10.953125 C 10.820312 11.53125 10.574219 12.09375 10.109375 12.21875 C 9.648438 12.339844 9.152344 11.976562 9 11.398438 C 8.84375 10.824219 9.09375 10.257812 9.554688 10.136719 C 9.609375 10.121094 9.667969 10.113281 9.726562 10.113281 Z M 9.726562 10.113281 "/>
<path style=" stroke:none;fill-rule:nonzero;fill:rgb(87.843138%,87.843138%,87.843138%);fill-opacity:1;" d="M 7.9375 8.335938 C 8.382812 8.335938 8.746094 8.699219 8.746094 9.144531 C 8.746094 9.59375 8.382812 9.953125 7.9375 9.953125 C 7.492188 9.953125 7.128906 9.59375 7.128906 9.144531 C 7.128906 8.699219 7.492188 8.335938 7.9375 8.335938 Z M 7.9375 8.335938 "/>
<path style=" stroke:none;fill-rule:nonzero;fill:rgb(45.882353%,45.882353%,45.882353%);fill-opacity:1;" d="M 7.9375 9.550781 C 8.160156 9.550781 8.339844 9.367188 8.339844 9.144531 C 8.339844 8.921875 8.160156 8.742188 7.9375 8.742188 C 7.714844 8.742188 7.535156 8.921875 7.535156 9.144531 C 7.535156 9.367188 7.714844 9.550781 7.9375 9.550781 Z M 7.9375 9.550781 "/>
<path style=" stroke:none;fill-rule:nonzero;fill:rgb(70.19608%,61.56863%,85.882354%);fill-opacity:1;" d="M 1.652344 1.449219 L 2.644531 1.449219 L 2.644531 2.441406 L 1.652344 2.441406 Z M 1.652344 1.449219 "/>
<path style=" stroke:none;fill-rule:nonzero;fill:rgb(70.19608%,61.56863%,85.882354%);fill-opacity:1;" d="M 3.96875 1.449219 L 4.960938 1.449219 L 4.960938 2.441406 L 3.96875 2.441406 Z M 3.96875 1.449219 "/>
<path style=" stroke:none;fill-rule:nonzero;fill:rgb(70.19608%,61.56863%,85.882354%);fill-opacity:1;" d="M 6.285156 1.449219 L 7.277344 1.449219 L 7.277344 2.441406 L 6.285156 2.441406 Z M 6.285156 1.449219 "/>
<path style=" stroke:none;fill-rule:nonzero;fill:rgb(70.19608%,61.56863%,85.882354%);fill-opacity:1;" d="M 8.597656 1.449219 L 9.589844 1.449219 L 9.589844 2.441406 L 8.597656 2.441406 Z M 8.597656 1.449219 "/>
<path style=" stroke:none;fill-rule:nonzero;fill:rgb(70.19608%,61.56863%,85.882354%);fill-opacity:1;" d="M 10.914062 1.449219 L 11.90625 1.449219 L 11.90625 2.441406 L 10.914062 2.441406 Z M 10.914062 1.449219 "/>
<path style=" stroke:none;fill-rule:nonzero;fill:rgb(70.19608%,61.56863%,85.882354%);fill-opacity:1;" d="M 13.230469 1.449219 L 14.222656 1.449219 L 14.222656 2.441406 L 13.230469 2.441406 Z M 13.230469 1.449219 "/>
<path style=" stroke:none;fill-rule:nonzero;fill:rgb(70.19608%,61.56863%,85.882354%);fill-opacity:1;" d="M 1.652344 13.683594 L 2.644531 13.683594 L 2.644531 14.675781 L 1.652344 14.675781 Z M 1.652344 13.683594 "/>
<path style=" stroke:none;fill-rule:nonzero;fill:rgb(70.19608%,61.56863%,85.882354%);fill-opacity:1;" d="M 3.96875 13.683594 L 4.960938 13.683594 L 4.960938 14.675781 L 3.96875 14.675781 Z M 3.96875 13.683594 "/>
<path style=" stroke:none;fill-rule:nonzero;fill:rgb(70.19608%,61.56863%,85.882354%);fill-opacity:1;" d="M 6.285156 13.683594 L 7.277344 13.683594 L 7.277344 14.675781 L 6.285156 14.675781 Z M 6.285156 13.683594 "/>
<path style=" stroke:none;fill-rule:nonzero;fill:rgb(70.19608%,61.56863%,85.882354%);fill-opacity:1;" d="M 8.597656 13.683594 L 9.589844 13.683594 L 9.589844 14.675781 L 8.597656 14.675781 Z M 8.597656 13.683594 "/>
<path style=" stroke:none;fill-rule:nonzero;fill:rgb(70.19608%,61.56863%,85.882354%);fill-opacity:1;" d="M 10.914062 13.683594 L 11.90625 13.683594 L 11.90625 14.675781 L 10.914062 14.675781 Z M 10.914062 13.683594 "/>
<path style=" stroke:none;fill-rule:nonzero;fill:rgb(70.19608%,61.56863%,85.882354%);fill-opacity:1;" d="M 13.230469 13.683594 L 14.222656 13.683594 L 14.222656 14.675781 L 13.230469 14.675781 Z M 13.230469 13.683594 "/>
</g>
</svg>
