<?xml version="1.0" encoding="UTF-8"?>
<svg xmlns="http://www.w3.org/2000/svg" xmlns:xlink="http://www.w3.org/1999/xlink" width="16px" height="16px" viewBox="0 0 16 16" version="1.1">
<g id="surface1">
<path style=" stroke:none;fill-rule:nonzero;fill:rgb(74.117649%,74.117649%,74.117649%);fill-opacity:1;" d="M 7.933594 0.785156 C 7.945312 0.785156 7.953125 0.789062 7.964844 0.789062 C 7.953125 0.789062 7.945312 0.785156 7.933594 0.785156 Z M 7.933594 0.785156 C 7.921875 0.789062 7.910156 0.789062 7.898438 0.789062 C 7.910156 0.789062 7.921875 0.789062 7.933594 0.785156 Z M 7.964844 0.789062 C 7.976562 0.789062 7.988281 0.789062 7.996094 0.792969 C 7.988281 0.789062 7.976562 0.789062 7.964844 0.789062 Z M 7.898438 0.789062 C 7.886719 0.789062 7.878906 0.792969 7.867188 0.792969 C 7.878906 0.792969 7.886719 0.789062 7.898438 0.789062 Z M 8 0.792969 C 8.007812 0.792969 8.019531 0.796875 8.03125 0.800781 C 8.019531 0.796875 8.007812 0.792969 8 0.792969 Z M 8.03125 0.800781 C 8.050781 0.804688 8.070312 0.816406 8.089844 0.824219 C 8.070312 0.816406 8.050781 0.804688 8.03125 0.800781 Z M 7.867188 0.796875 C 7.855469 0.796875 7.847656 0.800781 7.835938 0.804688 C 7.847656 0.800781 7.855469 0.796875 7.867188 0.796875 Z M 7.832031 0.804688 C 7.824219 0.808594 7.816406 0.8125 7.804688 0.816406 C 7.816406 0.8125 7.824219 0.808594 7.832031 0.804688 Z M 7.800781 0.816406 C 7.792969 0.820312 7.785156 0.824219 7.777344 0.828125 C 7.785156 0.824219 7.792969 0.820312 7.800781 0.816406 Z M 8.09375 0.824219 C 8.101562 0.832031 8.109375 0.835938 8.121094 0.84375 C 8.109375 0.835938 8.101562 0.832031 8.09375 0.824219 Z M 7.773438 0.832031 C 7.765625 0.835938 7.757812 0.839844 7.75 0.847656 C 7.757812 0.839844 7.765625 0.835938 7.773438 0.832031 Z M 8.121094 0.84375 C 8.128906 0.847656 8.136719 0.855469 8.144531 0.863281 C 8.136719 0.855469 8.128906 0.847656 8.121094 0.84375 Z M 7.746094 0.847656 C 7.738281 0.855469 7.730469 0.859375 7.722656 0.867188 C 7.730469 0.859375 7.738281 0.855469 7.746094 0.847656 Z M 8.148438 0.863281 C 8.15625 0.867188 8.164062 0.875 8.171875 0.882812 C 8.164062 0.875 8.15625 0.867188 8.148438 0.863281 Z M 7.71875 0.871094 C 7.714844 0.875 7.707031 0.878906 7.703125 0.882812 C 7.707031 0.878906 7.714844 0.875 7.71875 0.871094 Z M 7.9375 1.585938 L 1.789062 7.730469 L 14.085938 7.730469 Z M 0.757812 7.828125 C 0.671875 7.917969 0.648438 8.03125 0.667969 8.132812 C 0.644531 8.023438 0.679688 7.910156 0.757812 7.828125 Z M 15.117188 7.828125 C 15.121094 7.832031 15.125 7.835938 15.128906 7.84375 C 15.125 7.835938 15.121094 7.832031 15.117188 7.828125 Z M 15.128906 7.84375 C 15.203125 7.925781 15.230469 8.042969 15.199219 8.148438 C 15.230469 8.046875 15.210938 7.933594 15.128906 7.84375 Z M 0.671875 8.132812 C 0.671875 8.144531 0.675781 8.152344 0.679688 8.164062 C 0.675781 8.152344 0.671875 8.144531 0.671875 8.132812 Z M 15.199219 8.152344 C 15.199219 8.160156 15.195312 8.167969 15.191406 8.179688 C 15.195312 8.167969 15.199219 8.160156 15.199219 8.152344 Z M 0.679688 8.164062 C 0.679688 8.175781 0.683594 8.183594 0.6875 8.191406 C 0.683594 8.183594 0.679688 8.175781 0.679688 8.164062 Z M 15.1875 8.183594 C 15.1875 8.195312 15.183594 8.203125 15.175781 8.210938 C 15.183594 8.203125 15.1875 8.195312 15.1875 8.183594 Z M 0.691406 8.199219 C 0.695312 8.207031 0.699219 8.214844 0.703125 8.222656 C 0.699219 8.214844 0.695312 8.207031 0.691406 8.199219 Z M 15.175781 8.214844 C 15.171875 8.222656 15.167969 8.230469 15.160156 8.238281 C 15.167969 8.230469 15.171875 8.222656 15.175781 8.214844 Z M 0.707031 8.226562 C 0.757812 8.316406 0.851562 8.386719 0.972656 8.390625 C 0.863281 8.386719 0.761719 8.324219 0.707031 8.226562 Z M 15.160156 8.242188 C 15.097656 8.335938 14.996094 8.394531 14.882812 8.394531 C 15.007812 8.394531 15.105469 8.328125 15.160156 8.242188 Z M 0.976562 8.390625 C 0.980469 8.390625 0.984375 8.394531 0.992188 8.394531 C 0.988281 8.394531 0.980469 8.390625 0.976562 8.390625 Z M 0.976562 8.390625 "/>
<path style=" stroke:none;fill-rule:nonzero;fill:rgb(87.843138%,87.843138%,87.843138%);fill-opacity:1;" d="M 1.652344 14.015625 L 14.222656 14.015625 C 14.402344 14.015625 14.550781 14.164062 14.550781 14.347656 L 14.550781 15.007812 C 14.550781 15.191406 14.402344 15.339844 14.222656 15.339844 L 1.652344 15.339844 C 1.472656 15.339844 1.324219 15.191406 1.324219 15.007812 L 1.324219 14.347656 C 1.324219 14.164062 1.472656 14.015625 1.652344 14.015625 Z M 1.652344 14.015625 "/>
<path style=" stroke:none;fill-rule:nonzero;fill:rgb(87.843138%,87.843138%,87.843138%);fill-opacity:1;" d="M 1.652344 8.394531 L 14.222656 8.394531 C 14.402344 8.394531 14.550781 8.542969 14.550781 8.722656 C 14.550781 8.90625 14.402344 9.054688 14.222656 9.054688 L 1.652344 9.054688 C 1.472656 9.054688 1.324219 8.90625 1.324219 8.722656 C 1.324219 8.542969 1.472656 8.394531 1.652344 8.394531 Z M 1.652344 8.394531 "/>
<path style=" stroke:none;fill-rule:nonzero;fill:rgb(93.333334%,93.333334%,93.333334%);fill-opacity:1;" d="M 7.933594 0.785156 C 7.847656 0.789062 7.765625 0.824219 7.703125 0.882812 L 0.757812 7.828125 C 0.664062 7.921875 0.636719 8.066406 0.6875 8.1875 C 0.738281 8.3125 0.859375 8.394531 0.992188 8.394531 L 14.882812 8.394531 C 15.015625 8.394531 15.136719 8.3125 15.1875 8.1875 C 15.238281 8.066406 15.210938 7.921875 15.117188 7.828125 L 8.171875 0.882812 C 8.109375 0.820312 8.023438 0.785156 7.933594 0.785156 Z M 7.9375 1.585938 L 14.085938 7.730469 L 1.789062 7.730469 Z M 7.9375 1.585938 "/>
<path style=" stroke:none;fill-rule:nonzero;fill:rgb(93.333334%,93.333334%,93.333334%);fill-opacity:1;" d="M 1.984375 9.054688 L 13.890625 9.054688 L 13.890625 14.015625 L 1.984375 14.015625 Z M 1.984375 9.054688 "/>
<path style=" stroke:none;fill-rule:nonzero;fill:rgb(87.843138%,87.843138%,87.843138%);fill-opacity:1;" d="M 7.9375 4.09375 C 8.667969 4.09375 9.261719 4.6875 9.261719 5.417969 C 9.261719 6.148438 8.667969 6.738281 7.9375 6.738281 C 7.207031 6.738281 6.613281 6.148438 6.613281 5.417969 C 6.613281 4.6875 7.207031 4.09375 7.9375 4.09375 Z M 7.9375 4.09375 "/>
<path style=" stroke:none;fill-rule:nonzero;fill:rgb(45.882353%,45.882353%,45.882353%);fill-opacity:1;" d="M 7.9375 4.425781 C 8.484375 4.425781 8.929688 4.867188 8.929688 5.417969 C 8.929688 5.964844 8.484375 6.410156 7.9375 6.410156 C 7.390625 6.410156 6.945312 5.964844 6.945312 5.417969 C 6.945312 4.867188 7.390625 4.425781 7.9375 4.425781 Z M 7.9375 4.425781 "/>
<path style=" stroke:none;fill-rule:nonzero;fill:rgb(74.117649%,74.117649%,74.117649%);fill-opacity:1;" d="M 12.238281 9.386719 L 12.566406 9.386719 C 12.75 9.386719 12.898438 9.535156 12.898438 9.714844 L 12.898438 13.355469 C 12.898438 13.535156 12.75 13.683594 12.566406 13.683594 L 12.238281 13.683594 C 12.054688 13.683594 11.90625 13.535156 11.90625 13.355469 L 11.90625 9.714844 C 11.90625 9.535156 12.054688 9.386719 12.238281 9.386719 Z M 12.238281 9.386719 "/>
<path style=" stroke:none;fill-rule:nonzero;fill:rgb(74.117649%,74.117649%,74.117649%);fill-opacity:1;" d="M 1.984375 14.347656 L 13.890625 14.347656 C 13.980469 14.347656 14.054688 14.421875 14.054688 14.511719 L 14.054688 14.84375 C 14.054688 14.933594 13.980469 15.007812 13.890625 15.007812 L 1.984375 15.007812 C 1.894531 15.007812 1.820312 14.933594 1.820312 14.84375 L 1.820312 14.511719 C 1.820312 14.421875 1.894531 14.347656 1.984375 14.347656 Z M 1.984375 14.347656 "/>
<path style=" stroke:none;fill-rule:nonzero;fill:rgb(74.117649%,74.117649%,74.117649%);fill-opacity:1;" d="M 7.773438 9.386719 L 8.101562 9.386719 C 8.285156 9.386719 8.433594 9.535156 8.433594 9.714844 L 8.433594 13.355469 C 8.433594 13.535156 8.285156 13.683594 8.101562 13.683594 L 7.773438 13.683594 C 7.589844 13.683594 7.441406 13.535156 7.441406 13.355469 L 7.441406 9.714844 C 7.441406 9.535156 7.589844 9.386719 7.773438 9.386719 Z M 7.773438 9.386719 "/>
<path style=" stroke:none;fill-rule:nonzero;fill:rgb(74.117649%,74.117649%,74.117649%);fill-opacity:1;" d="M 9.261719 9.386719 L 9.589844 9.386719 C 9.773438 9.386719 9.921875 9.535156 9.921875 9.714844 L 9.921875 13.355469 C 9.921875 13.535156 9.773438 13.683594 9.589844 13.683594 L 9.261719 13.683594 C 9.078125 13.683594 8.929688 13.535156 8.929688 13.355469 L 8.929688 9.714844 C 8.929688 9.535156 9.078125 9.386719 9.261719 9.386719 Z M 9.261719 9.386719 "/>
<path style=" stroke:none;fill-rule:nonzero;fill:rgb(74.117649%,74.117649%,74.117649%);fill-opacity:1;" d="M 10.75 9.386719 L 11.078125 9.386719 C 11.261719 9.386719 11.410156 9.535156 11.410156 9.714844 L 11.410156 13.355469 C 11.410156 13.535156 11.261719 13.683594 11.078125 13.683594 L 10.75 13.683594 C 10.566406 13.683594 10.417969 13.535156 10.417969 13.355469 L 10.417969 9.714844 C 10.417969 9.535156 10.566406 9.386719 10.75 9.386719 Z M 10.75 9.386719 "/>
<path style=" stroke:none;fill-rule:nonzero;fill:rgb(74.117649%,74.117649%,74.117649%);fill-opacity:1;" d="M 6.285156 9.386719 L 6.613281 9.386719 C 6.796875 9.386719 6.945312 9.535156 6.945312 9.714844 L 6.945312 13.355469 C 6.945312 13.535156 6.796875 13.683594 6.613281 13.683594 L 6.285156 13.683594 C 6.101562 13.683594 5.953125 13.535156 5.953125 13.355469 L 5.953125 9.714844 C 5.953125 9.535156 6.101562 9.386719 6.285156 9.386719 Z M 6.285156 9.386719 "/>
<path style=" stroke:none;fill-rule:nonzero;fill:rgb(74.117649%,74.117649%,74.117649%);fill-opacity:1;" d="M 3.308594 9.386719 L 3.636719 9.386719 C 3.820312 9.386719 3.96875 9.535156 3.96875 9.714844 L 3.96875 13.355469 C 3.96875 13.535156 3.820312 13.683594 3.636719 13.683594 L 3.308594 13.683594 C 3.125 13.683594 2.976562 13.535156 2.976562 13.355469 L 2.976562 9.714844 C 2.976562 9.535156 3.125 9.386719 3.308594 9.386719 Z M 3.308594 9.386719 "/>
<path style=" stroke:none;fill-rule:nonzero;fill:rgb(74.117649%,74.117649%,74.117649%);fill-opacity:1;" d="M 4.796875 9.386719 L 5.125 9.386719 C 5.308594 9.386719 5.457031 9.535156 5.457031 9.714844 L 5.457031 13.355469 C 5.457031 13.535156 5.308594 13.683594 5.125 13.683594 L 4.796875 13.683594 C 4.613281 13.683594 4.464844 13.535156 4.464844 13.355469 L 4.464844 9.714844 C 4.464844 9.535156 4.613281 9.386719 4.796875 9.386719 Z M 4.796875 9.386719 "/>
</g>
</svg>
