
<svg xmlns="http://www.w3.org/2000/svg" xmlns:xlink="http://www.w3.org/1999/xlink" width="16px" height="16px" viewBox="0 0 16 16" version="1.1">
<defs>
<radialGradient id="radial0" gradientUnits="userSpaceOnUse" cx="254" cy="42.999756" fx="254" fy="42.999756" r="232.833328" gradientTransform="matrix(0.03125,0,0,0.0284091,-0.000000288542,6.715916)">
<stop offset="0" style="stop-color:rgb(100%,100%,100%);stop-opacity:0.470588;"/>
<stop offset="1" style="stop-color:rgb(100%,100%,100%);stop-opacity:0.0235294;"/>
</radialGradient>
</defs>
<g id="surface1">
<path style=" stroke:none;fill-rule:nonzero;fill:rgb(49.411765%,34.117648%,76.078433%);fill-opacity:1;" d="M 1.324219 1.324219 L 14.550781 1.324219 C 14.917969 1.324219 15.214844 1.617188 15.214844 1.984375 L 15.214844 13.890625 C 15.214844 14.257812 14.917969 14.550781 14.550781 14.550781 L 1.324219 14.550781 C 0.957031 14.550781 0.660156 14.257812 0.660156 13.890625 L 0.660156 1.984375 C 0.660156 1.617188 0.957031 1.324219 1.324219 1.324219 Z M 1.324219 1.324219 "/>
<path style=" stroke:none;fill-rule:nonzero;fill:url(#radial0);" d="M 2.8125 1.324219 L 2.8125 2.8125 L 0.660156 2.8125 L 0.660156 3.140625 L 2.8125 3.140625 L 2.8125 5.292969 L 0.660156 5.292969 L 0.660156 5.621094 L 2.8125 5.621094 L 2.8125 7.773438 L 0.660156 7.773438 L 0.660156 8.101562 L 2.8125 8.101562 L 2.8125 10.253906 L 0.660156 10.253906 L 0.660156 10.582031 L 2.8125 10.582031 L 2.8125 12.734375 L 0.660156 12.734375 L 0.660156 13.0625 L 2.8125 13.0625 L 2.8125 14.550781 L 3.140625 14.550781 L 3.140625 13.0625 L 5.292969 13.0625 L 5.292969 14.550781 L 5.621094 14.550781 L 5.621094 13.0625 L 7.773438 13.0625 L 7.773438 14.550781 L 8.101562 14.550781 L 8.101562 13.0625 L 10.253906 13.0625 L 10.253906 14.550781 L 10.582031 14.550781 L 10.582031 13.0625 L 12.734375 13.0625 L 12.734375 14.550781 L 13.0625 14.550781 L 13.0625 13.0625 L 15.214844 13.0625 L 15.214844 12.734375 L 13.0625 12.734375 L 13.0625 10.582031 L 15.214844 10.582031 L 15.214844 10.253906 L 13.0625 10.253906 L 13.0625 8.101562 L 15.214844 8.101562 L 15.214844 7.773438 L 13.0625 7.773438 L 13.0625 5.621094 L 15.214844 5.621094 L 15.214844 5.292969 L 13.0625 5.292969 L 13.0625 3.140625 L 15.214844 3.140625 L 15.214844 2.8125 L 13.0625 2.8125 L 13.0625 1.324219 L 12.734375 1.324219 L 12.734375 2.8125 L 10.582031 2.8125 L 10.582031 1.324219 L 10.253906 1.324219 L 10.253906 2.8125 L 8.101562 2.8125 L 8.101562 1.324219 L 7.773438 1.324219 L 7.773438 2.8125 L 5.621094 2.8125 L 5.621094 1.324219 L 5.292969 1.324219 L 5.292969 2.8125 L 3.140625 2.8125 L 3.140625 1.324219 Z M 3.140625 3.140625 L 5.292969 3.140625 L 5.292969 5.292969 L 3.140625 5.292969 Z M 5.621094 3.140625 L 7.773438 3.140625 L 7.773438 5.292969 L 5.621094 5.292969 Z M 8.101562 3.140625 L 10.253906 3.140625 L 10.253906 5.292969 L 8.101562 5.292969 Z M 10.582031 3.140625 L 12.734375 3.140625 L 12.734375 5.292969 L 10.582031 5.292969 Z M 3.140625 5.621094 L 5.292969 5.621094 L 5.292969 7.773438 L 3.140625 7.773438 Z M 5.621094 5.621094 L 7.773438 5.621094 L 7.773438 7.773438 L 5.621094 7.773438 Z M 8.101562 5.621094 L 10.253906 5.621094 L 10.253906 7.773438 L 8.101562 7.773438 Z M 10.582031 5.621094 L 12.734375 5.621094 L 12.734375 7.773438 L 10.582031 7.773438 Z M 3.140625 8.101562 L 5.292969 8.101562 L 5.292969 10.253906 L 3.140625 10.253906 Z M 5.621094 8.101562 L 7.773438 8.101562 L 7.773438 10.253906 L 5.621094 10.253906 Z M 8.101562 8.101562 L 10.253906 8.101562 L 10.253906 10.253906 L 8.101562 10.253906 Z M 10.582031 8.101562 L 12.734375 8.101562 L 12.734375 10.253906 L 10.582031 10.253906 Z M 3.140625 10.582031 L 5.292969 10.582031 L 5.292969 12.734375 L 3.140625 12.734375 Z M 5.621094 10.582031 L 7.773438 10.582031 L 7.773438 12.734375 L 5.621094 12.734375 Z M 8.101562 10.582031 L 10.253906 10.582031 L 10.253906 12.734375 L 8.101562 12.734375 Z M 10.582031 10.582031 L 12.734375 10.582031 L 12.734375 12.734375 L 10.582031 12.734375 Z M 10.582031 10.582031 "/>
<path style=" stroke:none;fill-rule:nonzero;fill:rgb(93.333334%,93.333334%,93.333334%);fill-opacity:1;" d="M 7.277344 3.71875 C 7.171875 3.71875 7.082031 3.78125 7.042969 3.875 L 4.582031 10.03125 L 3.1875 7.804688 C 3.144531 7.730469 3.0625 7.6875 2.976562 7.6875 L 1.984375 7.6875 C 1.894531 7.6875 1.808594 7.734375 1.765625 7.8125 C 1.71875 7.890625 1.71875 7.984375 1.765625 8.0625 C 1.808594 8.140625 1.894531 8.1875 1.984375 8.1875 L 2.839844 8.1875 L 4.417969 10.714844 C 4.46875 10.796875 4.558594 10.839844 4.652344 10.832031 C 4.746094 10.824219 4.828125 10.761719 4.863281 10.675781 L 7.273438 4.648438 L 10.019531 11.667969 C 10.058594 11.761719 10.148438 11.824219 10.25 11.824219 C 10.355469 11.824219 10.445312 11.761719 10.484375 11.667969 L 12.261719 7.222656 L 12.675781 8.050781 C 12.71875 8.132812 12.804688 8.1875 12.898438 8.1875 L 13.890625 8.1875 C 13.980469 8.1875 14.066406 8.140625 14.109375 8.0625 C 14.15625 7.984375 14.15625 7.890625 14.109375 7.8125 C 14.066406 7.734375 13.980469 7.6875 13.890625 7.6875 L 13.054688 7.6875 L 12.460938 6.503906 C 12.417969 6.414062 12.324219 6.359375 12.226562 6.363281 C 12.128906 6.367188 12.042969 6.429688 12.003906 6.523438 L 10.253906 10.894531 L 7.507812 3.878906 C 7.472656 3.78125 7.378906 3.71875 7.277344 3.71875 Z M 7.277344 3.71875 "/>
</g>
</svg>
