
<svg xmlns="http://www.w3.org/2000/svg" xmlns:xlink="http://www.w3.org/1999/xlink" width="16px" height="16px" viewBox="0 0 16 16" version="1.1">
<g id="surface1">
<path style=" stroke:none;fill-rule:nonzero;fill:rgb(25.882354%,25.882354%,25.882354%);fill-opacity:1;" d="M 1.324219 0.660156 L 14.550781 0.660156 C 14.917969 0.660156 15.214844 0.957031 15.214844 1.324219 L 15.214844 14.550781 C 15.214844 14.917969 14.917969 15.214844 14.550781 15.214844 L 1.324219 15.214844 C 0.957031 15.214844 0.660156 14.917969 0.660156 14.550781 L 0.660156 1.324219 C 0.660156 0.957031 0.957031 0.660156 1.324219 0.660156 Z M 1.324219 0.660156 "/>
<path style=" stroke:none;fill-rule:nonzero;fill:rgb(93.333334%,93.333334%,93.333334%);fill-opacity:1;" d="M 1.652344 1.652344 L 1.984375 1.652344 L 1.984375 14.222656 L 1.652344 14.222656 Z M 1.652344 1.652344 "/>
<path style=" stroke:none;fill-rule:nonzero;fill:rgb(93.333334%,93.333334%,93.333334%);fill-opacity:1;" d="M 14.222656 13.890625 L 14.222656 14.222656 L 1.652344 14.222656 L 1.652344 13.890625 Z M 14.222656 13.890625 "/>
<path style=" stroke:none;fill-rule:nonzero;fill:rgb(93.333334%,93.333334%,93.333334%);fill-opacity:1;" d="M 1.652344 1.652344 L 2.644531 1.652344 L 2.644531 1.984375 L 1.652344 1.984375 Z M 1.652344 1.652344 "/>
<path style=" stroke:none;fill-rule:nonzero;fill:rgb(93.333334%,93.333334%,93.333334%);fill-opacity:1;" d="M 1.652344 7.773438 L 2.644531 7.773438 L 2.644531 8.101562 L 1.652344 8.101562 Z M 1.652344 7.773438 "/>
<path style=" stroke:none;fill-rule:nonzero;fill:rgb(93.333334%,93.333334%,93.333334%);fill-opacity:1;" d="M 8.101562 13.230469 L 8.101562 14.222656 L 7.773438 14.222656 L 7.773438 13.230469 Z M 8.101562 13.230469 "/>
<path style=" stroke:none;fill-rule:nonzero;fill:rgb(93.333334%,93.333334%,93.333334%);fill-opacity:1;" d="M 14.222656 13.1875 L 14.222656 14.179688 L 13.890625 14.179688 L 13.890625 13.1875 Z M 14.222656 13.1875 "/>
<path style=" stroke:none;fill-rule:nonzero;fill:rgb(93.725491%,32.549021%,31.37255%);fill-opacity:1;" d="M 13.890625 1.984375 C 7.292969 1.984375 1.984375 7.292969 1.984375 13.890625 L 2.644531 13.890625 C 2.644531 7.660156 7.660156 2.644531 13.890625 2.644531 Z M 13.890625 1.984375 "/>
<path style=" stroke:none;fill-rule:nonzero;fill:rgb(61.176473%,80.000001%,39.607844%);fill-opacity:1;" d="M 13.890625 2.644531 C 7.660156 2.644531 2.644531 7.660156 2.644531 13.890625 L 3.308594 13.890625 C 3.308594 8.027344 8.027344 3.308594 13.890625 3.308594 Z M 13.890625 2.644531 "/>
<path style=" stroke:none;fill-rule:nonzero;fill:rgb(36.078432%,41.960785%,75.294119%);fill-opacity:1;" d="M 13.890625 3.308594 C 8.027344 3.308594 3.308594 8.027344 3.308594 13.890625 L 3.96875 13.890625 C 3.96875 8.394531 8.394531 3.96875 13.890625 3.96875 Z M 13.890625 3.308594 "/>
</g>
</svg>
