<?xml version="1.0" encoding="UTF-8"?>
<svg xmlns="http://www.w3.org/2000/svg" xmlns:xlink="http://www.w3.org/1999/xlink" width="16" height="16" viewBox="0 0 16 16" version="1.1">
<g id="surface1">
<path style=" stroke:none;fill-rule:nonzero;fill:rgb(47.058824%,56.470591%,61.176473%);fill-opacity:1;" d="M 7.9375 0.660156 C 11.957031 0.660156 15.214844 3.917969 15.214844 7.9375 C 15.214844 11.957031 11.957031 15.214844 7.9375 15.214844 C 3.917969 15.214844 0.660156 11.957031 0.660156 7.9375 C 0.660156 3.917969 3.917969 0.660156 7.9375 0.660156 Z M 7.9375 0.660156 "/>
<path style=" stroke:none;fill-rule:nonzero;fill:rgb(93.333334%,93.333334%,93.333334%);fill-opacity:1;" d="M 7.9375 1.324219 C 11.589844 1.324219 14.550781 4.285156 14.550781 7.9375 C 14.550781 11.589844 11.589844 14.550781 7.9375 14.550781 C 4.285156 14.550781 1.324219 11.589844 1.324219 7.9375 C 1.324219 4.285156 4.285156 1.324219 7.9375 1.324219 Z M 7.9375 1.324219 "/>
<path style=" stroke:none;fill-rule:evenodd;fill:rgb(47.058824%,56.470591%,61.176473%);fill-opacity:1;" d="M 12.039062 10.890625 C 11.824219 11.179688 11.796875 11.207031 11.675781 11.339844 C 11.5625 11.464844 11.53125 11.496094 11.300781 11.703125 C 11.074219 11.902344 11.035156 11.929688 10.898438 12.027344 C 10.761719 12.128906 10.722656 12.152344 10.453125 12.308594 C 10.183594 12.460938 10.144531 12.476562 9.988281 12.546875 C 9.835938 12.613281 9.792969 12.632812 9.511719 12.722656 C 9.21875 12.816406 9.175781 12.824219 9.007812 12.859375 C 8.851562 12.894531 8.804688 12.902344 8.527344 12.933594 C 8.167969 12.96875 8.132812 12.96875 7.953125 12.96875 C 7.785156 12.96875 7.738281 12.96875 7.429688 12.9375 C 7.125 12.90625 7.078125 12.898438 6.914062 12.863281 C 6.746094 12.828125 6.703125 12.816406 6.410156 12.722656 C 6.128906 12.632812 6.085938 12.613281 5.933594 12.546875 C 5.777344 12.476562 5.738281 12.460938 5.464844 12.308594 C 5.199219 12.152344 5.160156 12.128906 5.023438 12.03125 C 4.886719 11.929688 4.847656 11.902344 4.613281 11.695312 C 4.390625 11.496094 4.359375 11.464844 4.246094 11.339844 C 4.125 11.207031 4.097656 11.179688 3.882812 10.890625 C 4.019531 11.253906 3.679688 11.734375 3.078125 12.410156 C 3.765625 11.894531 4.257812 11.601562 4.605469 11.71875 C 4.761719 12.046875 4.53125 12.574219 4.101562 13.316406 C 4.671875 12.671875 5.09375 12.28125 5.457031 12.324219 C 5.679688 12.617188 5.5625 13.179688 5.296875 13.996094 C 5.714844 13.253906 6.046875 12.789062 6.410156 12.746094 C 6.679688 12.988281 6.679688 13.5625 6.585938 14.410156 C 6.847656 13.589844 7.078125 13.0625 7.429688 12.957031 C 7.75 13.132812 7.867188 13.695312 7.953125 14.550781 C 8.039062 13.691406 8.160156 13.128906 8.484375 12.953125 C 8.839844 13.054688 9.074219 13.582031 9.335938 14.410156 C 9.242188 13.5625 9.242188 12.988281 9.511719 12.746094 C 9.875 12.785156 10.207031 13.253906 10.625 13.996094 C 10.359375 13.175781 10.242188 12.613281 10.464844 12.324219 C 10.828125 12.28125 11.25 12.667969 11.820312 13.316406 C 11.390625 12.570312 11.160156 12.046875 11.316406 11.714844 C 11.664062 11.601562 12.15625 11.894531 12.84375 12.40625 C 12.242188 11.734375 11.902344 11.253906 12.039062 10.890625 Z M 12.039062 10.890625 "/>
<path style=" stroke:none;fill-rule:evenodd;fill:rgb(47.058824%,56.470591%,61.176473%);fill-opacity:1;" d="M 8.023438 3.351562 C 6.496094 3.335938 5.003906 4.082031 4.125 5.382812 C 2.816406 7.351562 3.128906 10.246094 5.390625 11.777344 C 7.371094 13.085938 9.226562 12.511719 10.363281 11.878906 L 9.867188 11.027344 C 9.308594 11.375 8.648438 11.574219 7.9375 11.574219 C 5.921875 11.574219 4.300781 9.953125 4.300781 7.9375 C 4.300781 5.921875 5.921875 4.300781 7.9375 4.300781 C 9.953125 4.300781 11.574219 5.921875 11.574219 7.9375 C 11.574219 8.917969 11.191406 9.808594 10.5625 10.460938 L 11.371094 11 C 11.625 10.738281 11.625 10.738281 11.78125 10.5 C 13.144531 8.46875 12.671875 5.558594 10.523438 4.128906 C 9.75 3.609375 8.882812 3.359375 8.023438 3.351562 Z M 8.023438 3.351562 "/>
<path style=" stroke:none;fill-rule:evenodd;fill:rgb(47.058824%,56.470591%,61.176473%);fill-opacity:1;" d="M 7.9375 1.324219 C 7.851562 2.179688 7.734375 2.742188 7.414062 2.917969 C 7.0625 2.8125 6.832031 2.285156 6.570312 1.464844 C 6.664062 2.3125 6.664062 2.886719 6.394531 3.128906 C 6.035156 3.085938 5.703125 2.621094 5.285156 1.878906 C 5.546875 2.695312 5.667969 3.257812 5.441406 3.550781 C 5.078125 3.59375 4.65625 3.203125 4.089844 2.558594 C 4.515625 3.300781 4.746094 3.828125 4.589844 4.15625 C 4.246094 4.273438 3.75 3.980469 3.066406 3.464844 C 3.667969 4.140625 4.003906 4.621094 3.867188 4.984375 C 4.085938 4.695312 4.109375 4.667969 4.230469 4.535156 C 4.34375 4.410156 4.375 4.378906 4.601562 4.175781 C 4.835938 3.96875 4.871094 3.945312 5.007812 3.84375 C 5.148438 3.746094 5.183594 3.71875 5.453125 3.566406 C 5.722656 3.414062 5.761719 3.394531 5.917969 3.328125 C 6.070312 3.261719 6.113281 3.242188 6.394531 3.152344 C 6.6875 3.058594 6.734375 3.046875 6.898438 3.011719 C 7.0625 2.976562 7.109375 2.96875 7.414062 2.9375 C 7.722656 2.90625 7.769531 2.90625 7.9375 2.90625 C 8.117188 2.90625 8.15625 2.90625 8.515625 2.941406 C 8.789062 2.972656 8.835938 2.980469 8.996094 3.015625 C 9.160156 3.050781 9.203125 3.058594 9.496094 3.152344 C 9.777344 3.242188 9.820312 3.261719 9.972656 3.328125 C 10.128906 3.398438 10.171875 3.414062 10.441406 3.566406 C 10.707031 3.722656 10.746094 3.746094 10.882812 3.847656 C 11.023438 3.945312 11.058594 3.972656 11.289062 4.175781 C 11.515625 4.378906 11.546875 4.410156 11.664062 4.535156 C 11.785156 4.667969 11.808594 4.695312 12.023438 4.984375 C 11.886719 4.621094 12.226562 4.140625 12.828125 3.46875 C 12.140625 3.980469 11.648438 4.273438 11.300781 4.160156 C 11.144531 3.828125 11.378906 3.304688 11.804688 2.558594 C 11.238281 3.207031 10.8125 3.59375 10.449219 3.550781 C 10.226562 3.261719 10.34375 2.699219 10.609375 1.878906 C 10.191406 2.621094 9.859375 3.089844 9.5 3.128906 C 9.226562 2.886719 9.230469 2.3125 9.320312 1.464844 C 9.058594 2.292969 8.824219 2.820312 8.46875 2.921875 C 8.144531 2.746094 8.023438 2.183594 7.9375 1.324219 Z M 7.9375 1.324219 "/>
<path style=" stroke:none;fill-rule:nonzero;fill:rgb(47.058824%,56.470591%,61.176473%);fill-opacity:1;" d="M 6.613281 4.902344 C 5.445312 5.414062 4.628906 6.578125 4.628906 7.9375 C 4.628906 9.296875 5.445312 10.460938 6.613281 10.972656 Z M 9.261719 4.902344 L 9.261719 10.972656 C 10.429688 10.460938 11.246094 9.296875 11.246094 7.9375 C 11.246094 6.578125 10.429688 5.414062 9.261719 4.902344 Z M 9.261719 4.902344 "/>
<path style=" stroke:none;fill-rule:nonzero;fill:rgb(47.058824%,56.470591%,61.176473%);fill-opacity:1;" d="M 6.285156 5.953125 L 8.597656 5.953125 L 8.597656 6.945312 L 6.285156 6.945312 Z M 6.285156 5.953125 "/>
<path style=" stroke:none;fill-rule:nonzero;fill:rgb(47.058824%,56.470591%,61.176473%);fill-opacity:1;" d="M 6.285156 8.929688 L 8.597656 8.929688 L 8.597656 9.921875 L 6.285156 9.921875 Z M 6.285156 8.929688 "/>
</g>
</svg>
