<?xml version="1.0" encoding="UTF-8"?>
<svg xmlns="http://www.w3.org/2000/svg" xmlns:xlink="http://www.w3.org/1999/xlink" width="16px" height="16px" viewBox="0 0 16 16" version="1.1">
<g id="surface1">
<path style=" stroke:none;fill-rule:nonzero;fill:rgb(49.411765%,34.117648%,76.078433%);fill-opacity:1;" d="M 7.9375 0.785156 C 11.957031 0.785156 15.214844 4.042969 15.214844 8.0625 C 15.214844 12.082031 11.957031 15.339844 7.9375 15.339844 C 3.917969 15.339844 0.660156 12.082031 0.660156 8.0625 C 0.660156 4.042969 3.917969 0.785156 7.9375 0.785156 Z M 7.9375 0.785156 "/>
<path style=" stroke:none;fill-rule:nonzero;fill:rgb(93.333334%,93.333334%,93.333334%);fill-opacity:1;" d="M 7.941406 3.164062 C 6.683594 3.15625 5.394531 3.679688 4.597656 4.660156 C 4.5625 4.800781 4.578125 4.890625 4.617188 4.941406 C 4.65625 4.992188 4.722656 5.015625 4.8125 5.015625 C 4.988281 5.011719 5.21875 4.882812 5.304688 4.695312 C 5.304688 4.6875 5.3125 4.683594 5.316406 4.675781 C 6.652344 3.457031 8.871094 3.367188 10.296875 4.472656 C 10.304688 4.480469 10.3125 4.488281 10.316406 4.496094 C 10.394531 4.648438 10.597656 4.785156 10.761719 4.804688 C 10.84375 4.816406 10.910156 4.800781 10.957031 4.757812 C 11.003906 4.71875 11.035156 4.644531 11.03125 4.519531 C 10.773438 4.035156 10.234375 3.738281 9.730469 3.507812 C 9.164062 3.273438 8.554688 3.164062 7.941406 3.164062 Z M 8.085938 4.207031 C 8.066406 4.207031 8.046875 4.207031 8.027344 4.207031 C 6.394531 4.199219 4.871094 5.257812 4.136719 6.691406 C 4.121094 6.820312 4.152344 6.894531 4.199219 6.941406 C 4.246094 6.988281 4.316406 7.011719 4.402344 7.003906 C 4.566406 6.988281 4.753906 6.855469 4.785156 6.652344 C 4.785156 6.640625 4.789062 6.632812 4.792969 6.625 C 5.519531 5.460938 6.859375 4.652344 8.257812 4.753906 C 9.367188 4.808594 10.4375 5.449219 10.964844 6.4375 C 11.074219 6.566406 11.167969 6.597656 11.234375 6.585938 C 11.304688 6.578125 11.367188 6.523438 11.40625 6.441406 C 11.488281 6.269531 11.464844 5.996094 11.25 5.859375 C 11.242188 5.855469 11.234375 5.851562 11.230469 5.84375 C 10.535156 4.824219 9.316406 4.210938 8.085938 4.207031 Z M 8 5.167969 C 7.128906 5.171875 6.246094 5.5 5.683594 6.179688 C 5.171875 6.761719 4.707031 7.382812 4.164062 7.941406 C 4.113281 8.0625 4.121094 8.144531 4.15625 8.199219 C 4.1875 8.257812 4.253906 8.296875 4.335938 8.3125 C 4.5 8.339844 4.714844 8.261719 4.789062 8.066406 C 4.789062 8.058594 4.796875 8.050781 4.800781 8.042969 C 5.421875 7.4375 5.863281 6.632812 6.585938 6.089844 C 6.585938 6.089844 6.589844 6.085938 6.589844 6.085938 C 7.191406 5.683594 7.964844 5.644531 8.644531 5.773438 C 8.648438 5.773438 8.648438 5.773438 8.652344 5.773438 C 9.445312 6 10.144531 6.660156 10.335938 7.472656 C 10.335938 7.472656 10.335938 7.476562 10.335938 7.476562 C 10.453125 8.007812 10.402344 8.542969 10.367188 9.070312 C 10.328125 9.59375 10.308594 10.113281 10.46875 10.609375 C 10.546875 10.792969 10.679688 11.042969 10.839844 11.210938 C 10.921875 11.292969 11.011719 11.355469 11.105469 11.382812 C 11.191406 11.410156 11.28125 11.40625 11.382812 11.359375 C 11.460938 11.246094 11.46875 11.160156 11.433594 11.070312 C 11.402344 10.976562 11.320312 10.875 11.226562 10.769531 C 11.132812 10.664062 11.027344 10.554688 10.953125 10.425781 C 10.882812 10.296875 10.847656 10.148438 10.890625 9.984375 C 10.84375 8.929688 11.136719 7.851562 10.714844 6.882812 C 10.246094 5.910156 9.230469 5.160156 8.132812 5.167969 C 8.132812 5.167969 8.128906 5.167969 8.128906 5.167969 C 8.085938 5.167969 8.042969 5.167969 8 5.167969 Z M 7.839844 6.046875 C 7.097656 6.046875 6.410156 6.488281 6.03125 7.121094 C 5.542969 7.855469 5.207031 8.859375 4.273438 9.21875 C 4.269531 9.222656 4.269531 9.222656 4.265625 9.222656 C 4.125 9.253906 4.0625 9.320312 4.035156 9.390625 C 4.011719 9.460938 4.027344 9.546875 4.070312 9.621094 C 4.117188 9.699219 4.191406 9.757812 4.273438 9.777344 C 4.355469 9.796875 4.449219 9.78125 4.550781 9.691406 C 4.554688 9.6875 4.5625 9.683594 4.566406 9.683594 C 5.472656 9.300781 5.917969 8.371094 6.402344 7.546875 C 6.6875 7.035156 7.191406 6.570312 7.828125 6.589844 C 8.695312 6.535156 9.5 7.285156 9.472656 8.160156 C 9.503906 8.632812 9.398438 9.09375 9.332031 9.546875 C 9.261719 10.003906 9.230469 10.445312 9.402344 10.878906 C 9.402344 10.882812 9.402344 10.882812 9.402344 10.882812 C 9.59375 11.453125 10.058594 11.964844 10.65625 12.078125 C 10.773438 12.066406 10.839844 12.027344 10.875 11.972656 C 10.914062 11.921875 10.921875 11.851562 10.90625 11.773438 C 10.871094 11.625 10.730469 11.46875 10.542969 11.464844 C 10.53125 11.464844 10.519531 11.460938 10.511719 11.457031 C 10.179688 11.261719 9.976562 10.945312 9.882812 10.59375 C 9.785156 10.246094 9.792969 9.863281 9.882812 9.523438 C 10.050781 8.617188 10.167969 7.574219 9.550781 6.835938 C 9.15625 6.347656 8.539062 6.046875 7.914062 6.046875 C 7.910156 6.046875 7.910156 6.046875 7.910156 6.046875 C 7.886719 6.046875 7.863281 6.046875 7.839844 6.046875 Z M 11.417969 6.921875 C 11.289062 6.949219 11.230469 6.996094 11.199219 7.058594 C 11.167969 7.125 11.167969 7.214844 11.183594 7.316406 C 11.214844 7.527344 11.324219 7.777344 11.304688 7.992188 C 11.363281 8.695312 11.246094 9.390625 11.160156 10.078125 C 11.207031 10.21875 11.273438 10.285156 11.332031 10.304688 C 11.394531 10.328125 11.46875 10.308594 11.542969 10.253906 C 11.691406 10.148438 11.808594 9.902344 11.757812 9.695312 C 11.757812 9.6875 11.757812 9.679688 11.757812 9.671875 C 11.867188 8.789062 11.96875 7.851562 11.636719 7.027344 C 11.585938 6.960938 11.503906 6.921875 11.417969 6.921875 Z M 7.914062 7.144531 C 7.375 7.195312 7.023438 7.671875 6.789062 8.140625 C 6.789062 8.140625 6.785156 8.140625 6.785156 8.140625 C 6.230469 9.179688 5.265625 9.910156 4.269531 10.472656 C 4.15625 10.550781 4.125 10.628906 4.125 10.699219 C 4.125 10.769531 4.167969 10.84375 4.234375 10.894531 C 4.300781 10.949219 4.394531 10.980469 4.480469 10.976562 C 4.570312 10.972656 4.65625 10.933594 4.726562 10.835938 C 4.734375 10.828125 4.738281 10.824219 4.746094 10.820312 C 5.816406 10.191406 6.785156 9.34375 7.359375 8.234375 C 7.425781 7.988281 7.636719 7.796875 7.867188 7.722656 C 7.984375 7.683594 8.109375 7.679688 8.226562 7.71875 C 8.34375 7.757812 8.449219 7.839844 8.519531 7.972656 C 8.523438 7.976562 8.523438 7.980469 8.523438 7.984375 C 8.753906 8.640625 8.421875 9.335938 7.976562 9.800781 C 7.222656 10.644531 6.320312 11.332031 5.5 12.085938 C 5.4375 12.183594 5.433594 12.257812 5.453125 12.320312 C 5.476562 12.386719 5.53125 12.441406 5.605469 12.472656 C 5.675781 12.503906 5.765625 12.515625 5.84375 12.492188 C 5.921875 12.46875 5.992188 12.421875 6.042969 12.328125 C 6.042969 12.320312 6.050781 12.316406 6.054688 12.308594 C 6.976562 11.476562 7.988281 10.726562 8.722656 9.730469 C 9.121094 9.136719 9.304688 8.3125 8.964844 7.667969 C 8.753906 7.316406 8.324219 7.140625 7.914062 7.144531 Z M 8.015625 8.019531 C 7.925781 8.039062 7.863281 8.078125 7.816406 8.136719 C 7.765625 8.199219 7.726562 8.28125 7.691406 8.375 C 7.625 8.558594 7.578125 8.78125 7.425781 8.933594 C 6.710938 10.027344 5.613281 10.761719 4.617188 11.542969 C 4.558594 11.640625 4.550781 11.71875 4.574219 11.777344 C 4.597656 11.84375 4.652344 11.894531 4.726562 11.925781 C 4.871094 11.988281 5.074219 11.960938 5.179688 11.785156 C 5.183594 11.777344 5.1875 11.773438 5.195312 11.765625 C 6.304688 10.941406 7.460938 10.078125 8.101562 8.839844 C 8.175781 8.695312 8.269531 8.480469 8.28125 8.3125 C 8.289062 8.230469 8.273438 8.160156 8.234375 8.113281 C 8.199219 8.066406 8.132812 8.03125 8.015625 8.019531 Z M 8.789062 10.109375 C 8.695312 10.125 8.628906 10.164062 8.582031 10.226562 C 8.53125 10.289062 8.496094 10.371094 8.472656 10.46875 C 8.425781 10.660156 8.421875 10.894531 8.375 11.070312 C 8.335938 11.414062 8.441406 11.726562 8.625 12.003906 C 8.808594 12.28125 9.070312 12.519531 9.335938 12.710938 C 9.460938 12.75 9.546875 12.734375 9.601562 12.695312 C 9.65625 12.65625 9.6875 12.589844 9.691406 12.503906 C 9.703125 12.332031 9.597656 12.117188 9.398438 12.054688 C 9.390625 12.050781 9.386719 12.046875 9.378906 12.042969 C 8.96875 11.738281 8.804688 11.207031 8.976562 10.722656 C 9.03125 10.589844 9.066406 10.425781 9.046875 10.308594 C 9.035156 10.25 9.011719 10.203125 8.972656 10.167969 C 8.933594 10.136719 8.875 10.113281 8.789062 10.109375 Z M 7.644531 11.695312 C 7.636719 11.695312 7.632812 11.695312 7.625 11.695312 C 7.160156 11.710938 6.839844 12.109375 6.488281 12.417969 C 6.421875 12.527344 6.421875 12.609375 6.445312 12.671875 C 6.472656 12.734375 6.53125 12.78125 6.609375 12.808594 C 6.769531 12.859375 6.984375 12.8125 7.082031 12.625 C 7.085938 12.621094 7.085938 12.617188 7.089844 12.617188 C 7.238281 12.421875 7.425781 12.292969 7.617188 12.285156 C 7.714844 12.285156 7.808594 12.316406 7.886719 12.386719 C 7.960938 12.460938 8.023438 12.566406 8.058594 12.710938 C 8.097656 12.851562 8.167969 12.914062 8.242188 12.9375 C 8.316406 12.960938 8.40625 12.945312 8.480469 12.894531 C 8.554688 12.847656 8.613281 12.769531 8.628906 12.683594 C 8.640625 12.597656 8.617188 12.503906 8.515625 12.40625 C 8.511719 12.402344 8.507812 12.394531 8.503906 12.390625 C 8.410156 12.214844 8.292969 12.035156 8.144531 11.90625 C 8.003906 11.777344 7.839844 11.699219 7.644531 11.695312 Z M 7.644531 11.695312 "/>
</g>
</svg>
