<?xml version="1.0" encoding="UTF-8"?>
<svg xmlns="http://www.w3.org/2000/svg" xmlns:xlink="http://www.w3.org/1999/xlink" width="16px" height="16px" viewBox="0 0 16 16" version="1.1">
<g id="surface1">
<path style=" stroke:none;fill-rule:nonzero;fill:rgb(87.843138%,87.843138%,87.843138%);fill-opacity:1;" d="M 9.183594 0.890625 C 8.332031 0.742188 7.480469 0.746094 6.65625 0.894531 C 6.722656 1.59375 6.332031 2.28125 5.644531 2.566406 C 4.960938 2.851562 4.199219 2.648438 3.746094 2.109375 C 3.0625 2.589844 2.460938 3.191406 1.96875 3.902344 C 2.503906 4.351562 2.710938 5.113281 2.429688 5.796875 C 2.148438 6.480469 1.46875 6.875 0.769531 6.816406 C 0.621094 7.664062 0.625 8.519531 0.773438 9.339844 C 1.039062 9.316406 1.304688 9.359375 1.542969 9.457031 C 1.9375 9.617188 2.265625 9.929688 2.441406 10.351562 C 2.726562 11.035156 2.519531 11.796875 1.988281 12.25 C 2.46875 12.929688 3.070312 13.535156 3.777344 14.027344 C 4.230469 13.492188 4.988281 13.285156 5.671875 13.566406 C 6.351562 13.847656 6.746094 14.527344 6.691406 15.226562 C 7.539062 15.375 8.390625 15.371094 9.214844 15.222656 C 9.152344 14.527344 9.542969 13.839844 10.226562 13.558594 C 10.910156 13.273438 11.671875 13.476562 12.125 14.011719 C 12.804688 13.53125 13.410156 12.929688 13.902344 12.222656 C 13.367188 11.769531 13.160156 11.011719 13.441406 10.328125 C 13.722656 9.644531 14.40625 9.25 15.105469 9.308594 C 15.253906 8.457031 15.25 7.605469 15.101562 6.785156 C 14.402344 6.847656 13.714844 6.457031 13.429688 5.773438 C 13.144531 5.085938 13.351562 4.324219 13.890625 3.871094 C 13.410156 3.1875 12.808594 2.582031 12.097656 2.089844 C 11.648438 2.628906 10.886719 2.839844 10.203125 2.558594 C 9.515625 2.273438 9.121094 1.589844 9.183594 0.890625 Z M 9.183594 0.890625 "/>
<path style=" stroke:none;fill-rule:nonzero;fill:rgb(61.960787%,61.960787%,61.960787%);fill-opacity:1;" d="M 7.9375 3.425781 C 10.496094 3.425781 12.566406 5.5 12.566406 8.058594 C 12.566406 10.613281 10.496094 12.6875 7.9375 12.6875 C 5.378906 12.6875 3.308594 10.613281 3.308594 8.058594 C 3.308594 5.5 5.378906 3.425781 7.9375 3.425781 Z M 7.9375 3.425781 "/>
<path style=" stroke:none;fill-rule:nonzero;fill:rgb(38.039216%,38.039216%,38.039216%);fill-opacity:1;" d="M 7.9375 4.089844 C 10.128906 4.089844 11.90625 5.867188 11.90625 8.058594 C 11.90625 10.25 10.128906 12.027344 7.9375 12.027344 C 5.746094 12.027344 3.96875 10.25 3.96875 8.058594 C 3.96875 5.867188 5.746094 4.089844 7.9375 4.089844 Z M 7.9375 4.089844 "/>
<path style=" stroke:none;fill-rule:nonzero;fill:rgb(40.000001%,73.333335%,41.568628%);fill-opacity:1;" d="M 7.9375 5.410156 C 9.398438 5.410156 10.582031 6.597656 10.582031 8.058594 C 10.582031 9.519531 9.398438 10.703125 7.9375 10.703125 C 6.476562 10.703125 5.292969 9.519531 5.292969 8.058594 C 5.292969 6.597656 6.476562 5.410156 7.9375 5.410156 Z M 7.9375 5.410156 "/>
<path style=" stroke:none;fill-rule:nonzero;fill:rgb(40.000001%,73.333335%,41.568628%);fill-opacity:1;" d="M 10.085938 0.785156 L 10.253906 0.785156 C 10.433594 0.785156 10.582031 0.933594 10.582031 1.117188 L 10.582031 7.730469 C 10.582031 7.914062 10.433594 8.0625 10.253906 8.0625 L 10.085938 8.0625 C 9.90625 8.0625 9.757812 7.914062 9.757812 7.730469 L 9.757812 1.117188 C 9.757812 0.933594 9.90625 0.785156 10.085938 0.785156 Z M 10.085938 0.785156 "/>
<path style=" stroke:none;fill-rule:nonzero;fill:rgb(40.000001%,73.333335%,41.568628%);fill-opacity:1;" d="M 10.253906 0.785156 C 15.214844 3.433594 16.207031 3.433594 11.90625 6.738281 C 12.898438 5.085938 14.222656 4.09375 9.921875 2.769531 Z M 10.253906 0.785156 "/>
</g>
</svg>
