<?xml version="1.0" encoding="UTF-8"?>
<svg xmlns="http://www.w3.org/2000/svg" xmlns:xlink="http://www.w3.org/1999/xlink" width="16px" height="16px" viewBox="0 0 16 16" version="1.1">
<g id="surface1">
<path style=" stroke:none;fill-rule:nonzero;fill:rgb(25.882354%,25.882354%,25.882354%);fill-opacity:1;" d="M 7.941406 0.789062 C 7.753906 0.789062 7.578125 0.867188 7.449219 1.003906 L 0.835938 8.28125 C 0.511719 8.640625 0.667969 9.214844 1.132812 9.355469 L 3.636719 10.378906 C 4.546875 10.789062 2.59375 11.148438 2.5625 11.78125 C 2.644531 12.363281 3.96875 12.691406 4.628906 12.691406 C 6.285156 12.691406 4.300781 13.355469 4.960938 14.015625 C 5.789062 14.675781 7.277344 14.535156 7.277344 14.675781 C 7.277344 15.042969 7.71875 15.339844 8.269531 15.339844 C 8.863281 15.328125 10.417969 14.675781 9.261719 13.851562 C 8.101562 13.023438 13.230469 12.859375 11.410156 11.699219 C 10.75 11.203125 11.492188 10.625 12.566406 10.210938 L 14.742188 9.355469 C 15.214844 9.21875 15.363281 8.640625 15.039062 8.28125 L 8.425781 1.003906 C 8.304688 0.875 8.136719 0.796875 7.960938 0.789062 C 7.953125 0.789062 7.945312 0.789062 7.941406 0.789062 Z M 7.941406 0.789062 "/>
<path style=" stroke:none;fill-rule:nonzero;fill:rgb(93.333334%,93.333334%,93.333334%);fill-opacity:1;" d="M 7.941406 0.789062 C 7.753906 0.789062 7.578125 0.867188 7.449219 1.003906 L 3.617188 5.222656 C 3.871094 5.523438 4.25 5.796875 4.628906 5.417969 C 5.292969 4.753906 6.613281 4.753906 6.613281 4.753906 L 7.277344 3.433594 L 7.277344 4.09375 C 7.277344 5.417969 8.597656 4.753906 8.597656 4.753906 C 8.597656 4.753906 9.921875 3.433594 10.582031 4.753906 C 11.136719 5.863281 12.15625 5.578125 12.472656 5.457031 L 8.425781 1.003906 C 8.304688 0.875 8.136719 0.796875 7.960938 0.789062 C 7.953125 0.789062 7.945312 0.789062 7.941406 0.789062 Z M 7.941406 0.789062 "/>
<path style=" stroke:none;fill-rule:nonzero;fill:rgb(25.882354%,25.882354%,25.882354%);fill-opacity:1;" d="M 12.238281 11.699219 C 12.238281 11.699219 13.863281 10.625 14.390625 11.675781 C 14.914062 12.722656 12.238281 11.699219 12.238281 11.699219 Z M 12.238281 11.699219 "/>
<path style=" stroke:none;fill-rule:nonzero;fill:rgb(25.882354%,25.882354%,25.882354%);fill-opacity:1;" d="M 12.238281 12.363281 C 12.238281 12.363281 13.335938 12.910156 12.929688 13.527344 C 12.523438 14.144531 12.238281 12.363281 12.238281 12.363281 Z M 12.238281 12.363281 "/>
<path style=" stroke:none;fill-rule:nonzero;fill:rgb(25.882354%,25.882354%,25.882354%);fill-opacity:1;" d="M 3.96875 13.023438 C 3.96875 13.023438 2.480469 12.53125 2.589844 13.636719 C 2.699219 14.746094 3.96875 13.023438 3.96875 13.023438 Z M 3.96875 13.023438 "/>
<path style=" stroke:none;fill-rule:nonzero;fill:rgb(93.725491%,32.549021%,31.37255%);fill-opacity:1;" d="M 2.710938 8.574219 L 2.578125 8.875 L 7.9375 11.21875 L 13.296875 8.875 L 13.164062 8.574219 L 7.9375 10.859375 Z M 2.710938 8.574219 "/>
<path style=" stroke:none;fill-rule:nonzero;fill:rgb(25.882354%,64.705884%,96.078432%);fill-opacity:1;" d="M 7.921875 10.078125 L 7.953125 10.078125 C 8.492188 10.078125 8.929688 10.515625 8.929688 11.054688 C 8.929688 11.59375 8.492188 12.03125 7.953125 12.03125 L 7.921875 12.03125 C 7.382812 12.03125 6.945312 11.59375 6.945312 11.054688 C 6.945312 10.515625 7.382812 10.078125 7.921875 10.078125 Z M 7.921875 10.078125 "/>
<path style=" stroke:none;fill-rule:nonzero;fill:rgb(25.882354%,64.705884%,96.078432%);fill-opacity:1;" d="M 2.636719 8.082031 L 2.65625 8.082031 C 3.015625 8.082031 3.308594 8.375 3.308594 8.734375 C 3.308594 9.09375 3.015625 9.386719 2.65625 9.386719 L 2.636719 9.386719 C 2.277344 9.386719 1.984375 9.09375 1.984375 8.734375 C 1.984375 8.375 2.277344 8.082031 2.636719 8.082031 Z M 2.636719 8.082031 "/>
<path style=" stroke:none;fill-rule:nonzero;fill:rgb(25.882354%,64.705884%,96.078432%);fill-opacity:1;" d="M 13.21875 8.082031 L 13.238281 8.082031 C 13.597656 8.082031 13.890625 8.375 13.890625 8.734375 C 13.890625 9.09375 13.597656 9.386719 13.238281 9.386719 L 13.21875 9.386719 C 12.859375 9.386719 12.566406 9.09375 12.566406 8.734375 C 12.566406 8.375 12.859375 8.082031 13.21875 8.082031 Z M 13.21875 8.082031 "/>
</g>
</svg>
