<?xml version="1.0" encoding="UTF-8"?>
<svg xmlns="http://www.w3.org/2000/svg" xmlns:xlink="http://www.w3.org/1999/xlink" width="16px" height="16px" viewBox="0 0 16 16" version="1.1">
<g id="surface1">
<path style=" stroke:none;fill-rule:nonzero;fill:rgb(74.117649%,74.117649%,74.117649%);fill-opacity:1;" d="M 1.324219 0.785156 L 10.582031 0.785156 C 10.949219 0.785156 11.246094 1.082031 11.246094 1.449219 L 11.246094 14.675781 C 11.246094 15.042969 10.949219 15.339844 10.582031 15.339844 L 1.324219 15.339844 C 0.957031 15.339844 0.660156 15.042969 0.660156 14.675781 L 0.660156 1.449219 C 0.660156 1.082031 0.957031 0.785156 1.324219 0.785156 Z M 1.324219 0.785156 "/>
<path style=" stroke:none;fill-rule:nonzero;fill:rgb(67.058825%,27.843139%,73.725492%);fill-opacity:1;" d="M 1.652344 1.449219 L 10.253906 1.449219 C 10.433594 1.449219 10.582031 1.597656 10.582031 1.777344 L 10.582031 14.347656 C 10.582031 14.527344 10.433594 14.675781 10.253906 14.675781 L 1.652344 14.675781 C 1.472656 14.675781 1.324219 14.527344 1.324219 14.347656 L 1.324219 1.777344 C 1.324219 1.597656 1.472656 1.449219 1.652344 1.449219 Z M 1.652344 1.449219 "/>
<path style=" stroke:none;fill-rule:nonzero;fill:rgb(61.176473%,15.294118%,69.01961%);fill-opacity:1;" d="M 1.652344 1.449219 C 1.621094 1.449219 1.59375 1.453125 1.5625 1.460938 L 1.976562 1.875 L 1.324219 2.527344 L 1.324219 3.558594 L 1.976562 4.210938 L 1.324219 4.867188 L 1.324219 5.894531 L 1.976562 6.550781 L 1.324219 7.207031 L 1.324219 8.234375 L 1.976562 8.890625 L 1.324219 9.542969 L 1.324219 10.574219 L 1.976562 11.226562 L 1.324219 11.882812 L 1.324219 12.910156 L 1.976562 13.566406 L 1.324219 14.222656 L 1.324219 14.347656 C 1.324219 14.53125 1.46875 14.675781 1.652344 14.675781 L 1.800781 14.675781 L 2.445312 14.035156 L 3.089844 14.675781 L 4.140625 14.675781 L 4.785156 14.035156 L 5.425781 14.675781 L 6.480469 14.675781 L 7.121094 14.035156 L 7.765625 14.675781 L 8.816406 14.675781 L 9.460938 14.035156 L 10.105469 14.675781 L 10.253906 14.675781 C 10.4375 14.675781 10.582031 14.53125 10.582031 14.347656 L 10.582031 14.222656 L 9.929688 13.566406 L 10.582031 12.910156 L 10.582031 11.882812 L 9.929688 11.226562 L 10.582031 10.574219 L 10.582031 9.542969 L 9.929688 8.890625 L 10.582031 8.234375 L 10.582031 7.207031 L 9.929688 6.550781 L 10.582031 5.894531 L 10.582031 4.867188 L 9.929688 4.210938 L 10.582031 3.558594 L 10.582031 2.527344 L 9.929688 1.875 L 10.34375 1.460938 C 10.3125 1.453125 10.285156 1.449219 10.253906 1.449219 L 8.566406 1.449219 L 8.992188 1.875 L 8.292969 2.574219 L 7.589844 1.875 L 8.015625 1.449219 L 6.230469 1.449219 L 6.65625 1.875 L 5.953125 2.574219 L 5.25 1.875 L 5.675781 1.449219 L 3.890625 1.449219 L 4.316406 1.875 L 3.613281 2.574219 L 2.914062 1.875 L 3.339844 1.449219 Z M 4.785156 2.339844 L 5.484375 3.042969 L 4.785156 3.746094 L 4.082031 3.042969 Z M 7.121094 2.339844 L 7.824219 3.042969 L 7.121094 3.746094 L 6.421875 3.042969 Z M 2.445312 2.339844 L 3.148438 3.042969 L 2.445312 3.746094 L 1.742188 3.042969 Z M 9.460938 2.339844 L 10.164062 3.042969 L 9.460938 3.746094 L 8.757812 3.042969 Z M 3.613281 3.511719 L 4.316406 4.210938 L 3.613281 4.914062 L 2.914062 4.210938 Z M 5.953125 3.511719 L 6.65625 4.210938 L 5.953125 4.914062 L 5.25 4.210938 Z M 8.292969 3.511719 L 8.992188 4.210938 L 8.292969 4.914062 L 7.589844 4.210938 Z M 2.445312 4.679688 L 3.148438 5.382812 L 2.445312 6.082031 L 1.742188 5.382812 Z M 4.785156 4.679688 L 5.484375 5.382812 L 4.785156 6.082031 L 4.082031 5.382812 Z M 7.121094 4.679688 L 7.824219 5.382812 L 7.121094 6.082031 L 6.421875 5.382812 Z M 9.460938 4.679688 L 10.164062 5.382812 L 9.460938 6.082031 L 8.757812 5.382812 Z M 5.953125 5.847656 L 6.65625 6.550781 L 5.953125 7.253906 L 5.25 6.550781 Z M 3.613281 5.847656 L 4.316406 6.550781 L 3.613281 7.253906 L 2.914062 6.550781 Z M 8.292969 5.847656 L 8.992188 6.550781 L 8.292969 7.253906 L 7.589844 6.550781 Z M 2.445312 7.019531 L 3.148438 7.71875 L 2.445312 8.421875 L 1.742188 7.71875 Z M 4.785156 7.019531 L 5.484375 7.71875 L 4.785156 8.421875 L 4.082031 7.71875 Z M 7.121094 7.019531 L 7.824219 7.71875 L 7.121094 8.421875 L 6.421875 7.71875 Z M 9.460938 7.019531 L 10.164062 7.71875 L 9.460938 8.421875 L 8.757812 7.71875 Z M 3.613281 8.1875 L 4.316406 8.890625 L 3.613281 9.589844 L 2.914062 8.890625 Z M 5.953125 8.1875 L 6.65625 8.890625 L 5.953125 9.589844 L 5.25 8.890625 Z M 8.292969 8.1875 L 8.992188 8.890625 L 8.292969 9.589844 L 7.589844 8.890625 Z M 2.445312 9.355469 L 3.148438 10.058594 L 2.445312 10.761719 L 1.742188 10.058594 Z M 4.785156 9.355469 L 5.484375 10.058594 L 4.785156 10.761719 L 4.082031 10.058594 Z M 7.121094 9.355469 L 7.824219 10.058594 L 7.121094 10.761719 L 6.421875 10.058594 Z M 9.460938 9.355469 L 10.164062 10.058594 L 9.460938 10.761719 L 8.757812 10.058594 Z M 3.613281 10.527344 L 4.316406 11.226562 L 3.613281 11.929688 L 2.914062 11.226562 Z M 5.953125 10.527344 L 6.65625 11.226562 L 5.953125 11.929688 L 5.25 11.226562 Z M 8.292969 10.527344 L 8.992188 11.226562 L 8.292969 11.929688 L 7.589844 11.226562 Z M 2.445312 11.695312 L 3.148438 12.398438 L 2.445312 13.097656 L 1.742188 12.398438 Z M 4.785156 11.695312 L 5.484375 12.398438 L 4.785156 13.097656 L 4.082031 12.398438 Z M 7.121094 11.695312 L 7.824219 12.398438 L 7.121094 13.097656 L 6.421875 12.398438 Z M 9.460938 11.695312 L 10.164062 12.398438 L 9.460938 13.097656 L 8.757812 12.398438 Z M 3.613281 12.863281 L 4.316406 13.566406 L 3.613281 14.269531 L 2.914062 13.566406 Z M 5.953125 12.863281 L 6.65625 13.566406 L 5.953125 14.269531 L 5.25 13.566406 Z M 8.292969 12.863281 L 8.992188 13.566406 L 8.292969 14.269531 L 7.589844 13.566406 Z M 8.292969 12.863281 "/>
<path style=" stroke:none;fill-rule:nonzero;fill:rgb(93.333334%,93.333334%,93.333334%);fill-opacity:1;" d="M 5.292969 0.785156 L 14.550781 0.785156 C 14.917969 0.785156 15.214844 1.082031 15.214844 1.449219 L 15.214844 14.675781 C 15.214844 15.042969 14.917969 15.339844 14.550781 15.339844 L 5.292969 15.339844 C 4.925781 15.339844 4.628906 15.042969 4.628906 14.675781 L 4.628906 1.449219 C 4.628906 1.082031 4.925781 0.785156 5.292969 0.785156 Z M 5.292969 0.785156 "/>
<path style=" stroke:none;fill-rule:nonzero;fill:rgb(93.725491%,32.549021%,31.37255%);fill-opacity:1;" d="M 9.921875 6.078125 L 8.597656 8.0625 L 9.921875 10.046875 L 11.246094 8.0625 Z M 9.921875 6.078125 "/>
<path style=" stroke:none;fill-rule:nonzero;fill:rgb(93.725491%,32.549021%,31.37255%);fill-opacity:1;" d="M 13.726562 11.203125 L 13.0625 12.03125 L 13.726562 12.859375 L 14.386719 12.03125 Z M 13.726562 11.203125 "/>
<path style=" stroke:none;fill-rule:nonzero;fill:rgb(93.725491%,32.549021%,31.37255%);fill-opacity:1;" d="M 6.117188 3.265625 L 5.457031 4.09375 L 6.117188 4.921875 L 6.78125 4.09375 Z M 6.117188 3.265625 "/>
<path style=" stroke:none;fill-rule:nonzero;fill:rgb(93.725491%,32.549021%,31.37255%);fill-opacity:1;" d="M 5.703125 1.777344 C 5.660156 1.777344 5.621094 1.816406 5.621094 1.859375 L 5.621094 2.027344 C 5.621094 2.074219 5.660156 2.109375 5.703125 2.109375 L 5.953125 2.109375 L 5.953125 2.851562 C 5.953125 2.898438 5.988281 2.9375 6.035156 2.9375 L 6.203125 2.9375 C 6.246094 2.9375 6.285156 2.898438 6.285156 2.851562 L 6.285156 2.109375 L 6.53125 2.109375 C 6.578125 2.109375 6.613281 2.074219 6.613281 2.027344 L 6.613281 1.859375 C 6.613281 1.816406 6.578125 1.777344 6.53125 1.777344 Z M 5.703125 1.777344 "/>
<path style=" stroke:none;fill-rule:nonzero;fill:rgb(93.725491%,32.549021%,31.37255%);fill-opacity:1;" d="M 13.3125 14.347656 C 13.265625 14.347656 13.230469 14.308594 13.230469 14.265625 L 13.230469 14.097656 C 13.230469 14.050781 13.265625 14.015625 13.3125 14.015625 L 13.558594 14.015625 L 13.558594 13.273438 C 13.558594 13.226562 13.597656 13.1875 13.640625 13.1875 L 13.808594 13.1875 C 13.855469 13.1875 13.890625 13.226562 13.890625 13.273438 L 13.890625 14.015625 L 14.136719 14.015625 C 14.183594 14.015625 14.222656 14.050781 14.222656 14.097656 L 14.222656 14.265625 C 14.222656 14.308594 14.183594 14.347656 14.136719 14.347656 Z M 13.3125 14.347656 "/>
</g>
</svg>
