<?xml version="1.0" encoding="UTF-8"?>
<svg xmlns="http://www.w3.org/2000/svg" xmlns:xlink="http://www.w3.org/1999/xlink" width="16px" height="16px" viewBox="0 0 16 16" version="1.1">
<g id="surface1">
<path style=" stroke:none;fill-rule:nonzero;fill:rgb(93.333334%,93.333334%,93.333334%);fill-opacity:1;" d="M 1.324219 0.785156 L 14.550781 0.785156 C 14.917969 0.785156 15.214844 1.082031 15.214844 1.449219 L 15.214844 14.675781 C 15.214844 15.042969 14.917969 15.339844 14.550781 15.339844 L 1.324219 15.339844 C 0.957031 15.339844 0.660156 15.042969 0.660156 14.675781 L 0.660156 1.449219 C 0.660156 1.082031 0.957031 0.785156 1.324219 0.785156 Z M 1.324219 0.785156 "/>
<path style=" stroke:none;fill-rule:nonzero;fill:rgb(61.960787%,61.960787%,61.960787%);fill-opacity:1;" d="M 5.292969 0.785156 L 5.621094 0.785156 L 5.621094 15.339844 L 5.292969 15.339844 Z M 5.292969 0.785156 "/>
<path style=" stroke:none;fill-rule:nonzero;fill:rgb(61.960787%,61.960787%,61.960787%);fill-opacity:1;" d="M 15.214844 5.417969 L 15.214844 5.746094 L 0.660156 5.746094 L 0.660156 5.417969 Z M 15.214844 5.417969 "/>
<path style=" stroke:none;fill-rule:nonzero;fill:rgb(61.960787%,61.960787%,61.960787%);fill-opacity:1;" d="M 10.253906 0.785156 L 10.582031 0.785156 L 10.582031 15.339844 L 10.253906 15.339844 Z M 10.253906 0.785156 "/>
<path style=" stroke:none;fill-rule:nonzero;fill:rgb(61.960787%,61.960787%,61.960787%);fill-opacity:1;" d="M 15.214844 10.378906 L 15.214844 10.707031 L 0.660156 10.707031 L 0.660156 10.378906 Z M 15.214844 10.378906 "/>
<path style=" stroke:none;fill-rule:nonzero;fill:rgb(25.882354%,25.882354%,25.882354%);fill-opacity:1;" d="M 2.148438 1.449219 C 2.058594 1.449219 1.984375 1.523438 1.984375 1.613281 L 1.984375 3.265625 C 1.984375 3.359375 2.058594 3.433594 2.148438 3.433594 L 3.308594 3.433594 L 3.308594 4.09375 L 2.148438 4.09375 C 2.058594 4.09375 1.984375 4.167969 1.984375 4.257812 L 1.984375 4.589844 C 1.984375 4.679688 2.058594 4.753906 2.148438 4.753906 L 3.804688 4.753906 C 3.894531 4.753906 3.96875 4.679688 3.96875 4.589844 L 3.96875 2.9375 C 3.96875 2.84375 3.894531 2.769531 3.804688 2.769531 L 2.644531 2.769531 L 2.644531 2.109375 L 3.804688 2.109375 C 3.894531 2.109375 3.96875 2.035156 3.96875 1.945312 L 3.96875 1.613281 C 3.96875 1.523438 3.894531 1.449219 3.804688 1.449219 Z M 2.148438 1.449219 "/>
<path style=" stroke:none;fill-rule:nonzero;fill:rgb(25.882354%,25.882354%,25.882354%);fill-opacity:1;" d="M 2.148438 11.371094 C 2.058594 11.371094 1.984375 11.445312 1.984375 11.535156 L 1.984375 13.1875 C 1.984375 13.28125 2.058594 13.355469 2.148438 13.355469 L 3.308594 13.355469 L 3.308594 14.015625 L 2.148438 14.015625 C 2.058594 14.015625 1.984375 14.089844 1.984375 14.179688 L 1.984375 14.511719 C 1.984375 14.601562 2.058594 14.675781 2.148438 14.675781 L 3.804688 14.675781 C 3.894531 14.675781 3.96875 14.601562 3.96875 14.511719 L 3.96875 12.859375 C 3.96875 12.765625 3.894531 12.691406 3.804688 12.691406 L 2.644531 12.691406 L 2.644531 12.03125 L 3.804688 12.03125 C 3.894531 12.03125 3.96875 11.957031 3.96875 11.867188 L 3.96875 11.535156 C 3.96875 11.445312 3.894531 11.371094 3.804688 11.371094 Z M 2.148438 11.371094 "/>
<path style=" stroke:none;fill-rule:nonzero;fill:rgb(25.882354%,25.882354%,25.882354%);fill-opacity:1;" d="M 7.109375 6.410156 C 7.019531 6.410156 6.945312 6.484375 6.945312 6.574219 L 6.945312 6.90625 C 6.945312 6.996094 7.019531 7.070312 7.109375 7.070312 L 8.269531 7.070312 L 8.269531 7.730469 L 7.109375 7.730469 C 7.019531 7.730469 6.945312 7.804688 6.945312 7.898438 L 6.945312 9.550781 C 6.945312 9.640625 7.019531 9.714844 7.109375 9.714844 L 8.765625 9.714844 C 8.855469 9.714844 8.929688 9.640625 8.929688 9.550781 L 8.929688 9.21875 C 8.929688 9.128906 8.855469 9.054688 8.765625 9.054688 L 7.605469 9.054688 L 7.605469 8.394531 L 8.765625 8.394531 C 8.855469 8.394531 8.929688 8.320312 8.929688 8.226562 L 8.929688 6.574219 C 8.929688 6.484375 8.859375 6.414062 8.773438 6.410156 C 8.769531 6.410156 8.765625 6.410156 8.765625 6.410156 Z M 7.109375 6.410156 "/>
<path style=" stroke:none;fill-rule:nonzero;fill:rgb(25.882354%,25.882354%,25.882354%);fill-opacity:1;" d="M 12.070312 11.371094 C 11.980469 11.371094 11.90625 11.445312 11.90625 11.535156 L 11.90625 11.867188 C 11.90625 11.957031 11.980469 12.03125 12.070312 12.03125 L 13.230469 12.03125 L 13.230469 12.691406 L 12.070312 12.691406 C 11.980469 12.691406 11.90625 12.765625 11.90625 12.859375 L 11.90625 14.511719 C 11.90625 14.601562 11.980469 14.675781 12.070312 14.675781 L 13.726562 14.675781 C 13.816406 14.675781 13.890625 14.601562 13.890625 14.511719 L 13.890625 14.179688 C 13.890625 14.089844 13.816406 14.015625 13.726562 14.015625 L 12.566406 14.015625 L 12.566406 13.355469 L 13.726562 13.355469 C 13.816406 13.355469 13.890625 13.28125 13.890625 13.1875 L 13.890625 11.535156 C 13.890625 11.445312 13.820312 11.375 13.734375 11.371094 C 13.730469 11.371094 13.726562 11.371094 13.726562 11.371094 Z M 12.070312 11.371094 "/>
</g>
</svg>
