<?xml version="1.0" encoding="UTF-8"?>
<svg xmlns="http://www.w3.org/2000/svg" xmlns:xlink="http://www.w3.org/1999/xlink" width="16px" height="16px" viewBox="0 0 16 16" version="1.1">
<g id="surface1">
<path style=" stroke:none;fill-rule:nonzero;fill:rgb(25.882354%,25.882354%,25.882354%);fill-opacity:1;" d="M 1.324219 0.785156 L 14.550781 0.785156 C 14.917969 0.785156 15.214844 1.082031 15.214844 1.449219 L 15.214844 14.675781 C 15.214844 15.042969 14.917969 15.339844 14.550781 15.339844 L 1.324219 15.339844 C 0.957031 15.339844 0.660156 15.042969 0.660156 14.675781 L 0.660156 1.449219 C 0.660156 1.082031 0.957031 0.785156 1.324219 0.785156 Z M 1.324219 0.785156 "/>
<path style=" stroke:none;fill-rule:nonzero;fill:rgb(14.901961%,77.64706%,85.490197%);fill-opacity:1;" d="M 1.984375 1.777344 L 13.890625 1.777344 C 14.074219 1.777344 14.222656 1.925781 14.222656 2.109375 L 14.222656 14.015625 C 14.222656 14.199219 14.074219 14.347656 13.890625 14.347656 L 1.984375 14.347656 C 1.800781 14.347656 1.652344 14.199219 1.652344 14.015625 L 1.652344 2.109375 C 1.652344 1.925781 1.800781 1.777344 1.984375 1.777344 Z M 1.984375 1.777344 "/>
<path style=" stroke:none;fill-rule:nonzero;fill:rgb(25.882354%,25.882354%,25.882354%);fill-opacity:1;" d="M 2.480469 5.417969 C 2.390625 5.417969 2.316406 5.492188 2.316406 5.582031 L 2.316406 10.542969 C 2.316406 10.632812 2.390625 10.707031 2.480469 10.707031 L 5.789062 10.707031 C 5.878906 10.707031 5.953125 10.632812 5.953125 10.542969 L 5.953125 10.210938 C 5.953125 10.121094 5.878906 10.046875 5.789062 10.046875 L 2.976562 10.046875 L 2.976562 5.582031 C 2.976562 5.492188 2.902344 5.417969 2.8125 5.417969 Z M 2.480469 5.417969 "/>
<path style=" stroke:none;fill-rule:nonzero;fill:rgb(25.882354%,25.882354%,25.882354%);fill-opacity:1;" d="M 7.773438 5.417969 C 7.292969 5.417969 6.851562 5.558594 6.515625 5.816406 C 6.179688 6.074219 5.953125 6.464844 5.953125 6.90625 C 5.953125 7.347656 6.203125 7.71875 6.535156 7.949219 C 6.867188 8.183594 7.277344 8.316406 7.714844 8.398438 C 8.101562 8.46875 8.433594 8.585938 8.640625 8.730469 C 8.84375 8.871094 8.929688 9 8.929688 9.21875 C 8.929688 9.441406 8.828125 9.628906 8.625 9.785156 C 8.421875 9.941406 8.121094 10.046875 7.773438 10.046875 C 7.425781 10.046875 7.121094 9.941406 6.917969 9.785156 C 6.71875 9.628906 6.613281 9.441406 6.613281 9.21875 L 6.613281 9.195312 C 6.613281 9.117188 6.539062 9.054688 6.449219 9.054688 L 6.117188 9.054688 C 6.027344 9.054688 5.953125 9.117188 5.953125 9.195312 L 5.953125 9.21875 C 5.953125 9.226562 5.953125 9.230469 5.953125 9.234375 L 5.953125 9.246094 C 5.953125 9.246094 5.953125 9.25 5.953125 9.253906 C 5.964844 9.679688 6.191406 10.058594 6.515625 10.308594 C 6.851562 10.566406 7.292969 10.707031 7.773438 10.707031 C 8.25 10.707031 8.691406 10.566406 9.027344 10.308594 C 9.363281 10.050781 9.589844 9.660156 9.589844 9.21875 C 9.589844 8.777344 9.34375 8.410156 9.015625 8.183594 C 8.683594 7.957031 8.277344 7.832031 7.839844 7.746094 C 7.460938 7.675781 7.125 7.554688 6.914062 7.40625 C 6.703125 7.261719 6.613281 7.125 6.613281 6.90625 C 6.613281 6.683594 6.71875 6.496094 6.917969 6.339844 C 7.121094 6.183594 7.425781 6.078125 7.773438 6.078125 C 8.121094 6.078125 8.421875 6.183594 8.625 6.339844 C 8.828125 6.496094 8.929688 6.683594 8.929688 6.90625 L 8.929688 6.929688 C 8.929688 7.007812 9.003906 7.070312 9.09375 7.070312 L 9.425781 7.070312 C 9.515625 7.070312 9.589844 7.007812 9.589844 6.929688 L 9.589844 6.90625 C 9.589844 6.902344 9.589844 6.898438 9.589844 6.894531 L 9.589844 6.878906 C 9.589844 6.878906 9.589844 6.875 9.589844 6.871094 C 9.578125 6.445312 9.355469 6.066406 9.027344 5.816406 C 8.691406 5.558594 8.25 5.417969 7.773438 5.417969 Z M 7.773438 5.417969 "/>
<path style=" stroke:none;fill-rule:nonzero;fill:rgb(25.882354%,25.882354%,25.882354%);fill-opacity:1;" d="M 10.085938 5.417969 C 9.996094 5.417969 9.921875 5.492188 9.921875 5.582031 L 9.921875 10.542969 C 9.921875 10.632812 9.996094 10.707031 10.085938 10.707031 L 10.417969 10.707031 C 10.507812 10.707031 10.582031 10.632812 10.582031 10.542969 L 10.582031 8.890625 L 11.90625 8.890625 C 12.824219 8.890625 13.558594 8.113281 13.558594 7.152344 C 13.558594 6.191406 12.824219 5.417969 11.90625 5.417969 Z M 10.582031 6.078125 L 11.90625 6.078125 C 12.457031 6.078125 12.898438 6.519531 12.898438 7.070312 L 12.898438 7.234375 C 12.898438 7.785156 12.457031 8.226562 11.90625 8.226562 L 10.582031 8.226562 Z M 10.582031 6.078125 "/>
</g>
</svg>
