<?xml version="1.0" encoding="UTF-8"?>
<svg xmlns="http://www.w3.org/2000/svg" xmlns:xlink="http://www.w3.org/1999/xlink" width="16px" height="16px" viewBox="0 0 16 16" version="1.1">
<g id="surface1">
<path style=" stroke:none;fill-rule:nonzero;fill:rgb(25.882354%,25.882354%,25.882354%);fill-opacity:1;" d="M 1.324219 1.449219 L 14.550781 1.449219 C 14.917969 1.449219 15.214844 1.742188 15.214844 2.109375 L 15.214844 14.015625 C 15.214844 14.382812 14.917969 14.675781 14.550781 14.675781 L 1.324219 14.675781 C 0.957031 14.675781 0.660156 14.382812 0.660156 14.015625 L 0.660156 2.109375 C 0.660156 1.742188 0.957031 1.449219 1.324219 1.449219 Z M 1.324219 1.449219 "/>
<path style=" stroke:none;fill-rule:nonzero;fill:rgb(87.843138%,87.843138%,87.843138%);fill-opacity:1;" d="M 7.277344 2.441406 L 8.597656 2.441406 L 8.597656 13.683594 L 7.277344 13.683594 Z M 7.277344 2.441406 "/>
<path style=" stroke:none;fill-rule:nonzero;fill:rgb(61.176473%,80.000001%,39.607844%);fill-opacity:1;" d="M 9.921875 7.730469 C 9.921875 7.546875 10.070312 7.402344 10.253906 7.402344 L 11.574219 7.402344 L 11.574219 5.746094 L 13.890625 8.394531 L 11.574219 11.039062 L 11.574219 9.386719 L 10.253906 9.386719 C 10.070312 9.386719 9.921875 9.238281 9.921875 9.054688 Z M 9.921875 7.730469 "/>
<path style=" stroke:none;fill-rule:nonzero;fill:rgb(61.176473%,80.000001%,39.607844%);fill-opacity:1;" d="M 5.953125 7.730469 C 5.953125 7.546875 5.804688 7.402344 5.621094 7.402344 L 4.300781 7.402344 L 4.300781 5.746094 L 1.984375 8.394531 L 4.300781 11.039062 L 4.300781 9.386719 L 5.621094 9.386719 C 5.804688 9.386719 5.953125 9.238281 5.953125 9.054688 Z M 5.953125 7.730469 "/>
</g>
</svg>
