<?xml version="1.0" encoding="UTF-8"?>
<svg xmlns="http://www.w3.org/2000/svg" xmlns:xlink="http://www.w3.org/1999/xlink" width="16px" height="16px" viewBox="0 0 16 16" version="1.1">
<g id="surface1">
<path style=" stroke:none;fill-rule:nonzero;fill:rgb(67.058825%,27.843139%,73.725492%);fill-opacity:1;" d="M 0.660156 9.363281 C 0.660156 5.925781 7.535156 -2.933594 15.128906 3.214844 C 16.578125 16.597656 3.554688 18.046875 0.660156 9.363281 Z M 0.660156 9.363281 "/>
<path style=" stroke:none;fill-rule:nonzero;fill:rgb(93.333334%,93.333334%,93.333334%);fill-opacity:1;" d="M 5.003906 5.746094 C 4.800781 5.746094 4.640625 5.910156 4.640625 6.109375 L 4.640625 10.449219 C 4.640625 10.652344 4.800781 10.8125 5.003906 10.8125 L 5.726562 10.8125 C 5.925781 10.8125 6.085938 10.652344 6.085938 10.449219 L 6.085938 7.195312 L 7.171875 7.195312 L 7.171875 10.449219 C 7.171875 10.546875 7.210938 10.636719 7.277344 10.707031 C 7.347656 10.773438 7.4375 10.8125 7.535156 10.8125 L 8.257812 10.8125 C 8.355469 10.8125 8.445312 10.773438 8.515625 10.707031 C 8.582031 10.636719 8.621094 10.546875 8.621094 10.449219 L 8.621094 7.195312 L 9.707031 7.195312 L 9.707031 10.449219 C 9.703125 10.546875 9.742188 10.636719 9.8125 10.707031 C 9.878906 10.773438 9.972656 10.8125 10.066406 10.8125 L 10.789062 10.8125 C 10.886719 10.8125 10.980469 10.773438 11.046875 10.707031 C 11.113281 10.636719 11.152344 10.546875 11.152344 10.449219 L 11.152344 6.46875 C 11.152344 6.070312 10.828125 5.746094 10.429688 5.746094 Z M 5.003906 5.746094 "/>
</g>
</svg>
