
<svg xmlns="http://www.w3.org/2000/svg" xmlns:xlink="http://www.w3.org/1999/xlink" width="16px" height="16px" viewBox="0 0 16 16" version="1.1">
<g id="surface1">
<path style=" stroke:none;fill-rule:nonzero;fill:rgb(25.882354%,25.882354%,25.882354%);fill-opacity:1;" d="M 7.9375 0.660156 C 11.957031 0.660156 15.214844 3.917969 15.214844 7.9375 C 15.214844 11.957031 11.957031 15.214844 7.9375 15.214844 C 3.917969 15.214844 0.660156 11.957031 0.660156 7.9375 C 0.660156 3.917969 3.917969 0.660156 7.9375 0.660156 Z M 7.9375 0.660156 "/>
<path style=" stroke:none;fill-rule:nonzero;fill:rgb(100%,65.490198%,14.901961%);fill-opacity:1;" d="M 7.9375 1.324219 C 11.589844 1.324219 14.550781 4.285156 14.550781 7.9375 C 14.550781 11.589844 11.589844 14.550781 7.9375 14.550781 C 4.285156 14.550781 1.324219 11.589844 1.324219 7.9375 C 1.324219 4.285156 4.285156 1.324219 7.9375 1.324219 Z M 7.9375 1.324219 "/>
<path style=" stroke:none;fill-rule:nonzero;fill:rgb(25.882354%,25.882354%,25.882354%);fill-opacity:1;" d="M 7.9375 1.984375 C 11.226562 1.984375 13.890625 4.648438 13.890625 7.9375 C 13.890625 11.226562 11.226562 13.890625 7.9375 13.890625 C 4.648438 13.890625 1.984375 11.226562 1.984375 7.9375 C 1.984375 4.648438 4.648438 1.984375 7.9375 1.984375 Z M 7.9375 1.984375 "/>
<path style=" stroke:none;fill-rule:nonzero;fill:rgb(100%,65.490198%,14.901961%);fill-opacity:1;" d="M 6.765625 1.863281 C 6.246094 1.855469 5.695312 2.539062 6.546875 3.269531 C 4.542969 3.21875 5.535156 2.484375 5.96875 2.835938 C 5.558594 1.914062 3.851562 2.925781 5.847656 3.523438 C 5.421875 3.648438 4.222656 3.449219 3.640625 4.820312 C 3.550781 5.03125 3.273438 4.847656 3.257812 4.699219 C 3.132812 4.929688 3.195312 5.078125 3.433594 5.308594 C 2.671875 6.007812 2.894531 7.617188 2.816406 7.949219 C 2.746094 8.269531 2.699219 8.574219 2.316406 8.703125 C 2.371094 8.816406 3.019531 9.015625 3.28125 8.570312 C 3.410156 9.101562 3.617188 9.445312 4.039062 9.984375 C 4.085938 10.792969 4.207031 11.488281 3.460938 11.183594 C 3.523438 11.3125 4.242188 12.058594 4.433594 10.945312 C 4.476562 10.660156 4.59375 10.597656 4.882812 10.804688 C 5.25 11.101562 5.097656 11.445312 5.015625 11.847656 C 5.292969 11.84375 5.324219 11.539062 5.429688 11.320312 C 5.847656 11.207031 7.9375 12.039062 6.246094 12.621094 C 4.949219 12.980469 3.183594 11.691406 3.183594 11.691406 C 4.332031 13.367188 6.636719 14.132812 8.1875 14.269531 C 9.957031 14.210938 12.003906 12.878906 12.285156 11.871094 C 12.878906 9.453125 11.496094 8.527344 9.871094 8.34375 C 8.53125 8.136719 6.996094 8.816406 6.101562 7.949219 C 5.902344 7.734375 5.492188 7.332031 5.988281 6.464844 C 5.527344 6.355469 5.757812 5.636719 5.808594 5.65625 C 5.859375 6.082031 5.980469 6.742188 6.628906 6.707031 C 7.128906 6.648438 7.496094 6.25 7.9375 6.238281 C 8.84375 6.367188 9.652344 7.476562 10.09375 7.644531 C 11.652344 8.121094 11.511719 7.207031 11.667969 7.648438 C 11.917969 8.28125 12.074219 9.777344 12.847656 9.8125 C 13.234375 9.808594 13.390625 9.636719 13.488281 9.382812 C 12.75 9.75 12.570312 9.425781 12.511719 9.222656 C 13.839844 9.589844 13.960938 7.996094 13.175781 8.121094 C 13.640625 8.285156 13.542969 9.503906 12.449219 8.851562 C 12.007812 8.335938 12.136719 7.589844 11.457031 6.90625 C 11.566406 6.851562 11.773438 6.789062 11.945312 7.210938 C 12.023438 7.1875 12.140625 7.085938 12.144531 6.828125 C 12.121094 6.75 12.179688 6.742188 12.210938 6.714844 C 12.195312 6.617188 12.203125 6.527344 12.242188 6.449219 C 12.242188 6.449219 12.308594 6.382812 12.296875 6.300781 C 12.289062 6.21875 12.152344 6.074219 12.152344 6.074219 C 12.222656 5.988281 12.335938 6.023438 12.449219 6.046875 C 12.355469 5.894531 12.191406 5.523438 12.035156 5.574219 C 11.621094 5.714844 11.65625 5.660156 11.554688 5.667969 C 11.199219 5.484375 10.738281 5.308594 10.476562 5.296875 C 10.25 5.277344 9.808594 4.769531 9.863281 4.683594 C 9.980469 4.484375 10.175781 4.519531 10.371094 4.53125 C 10.28125 4.214844 10.050781 3.667969 9.328125 3.816406 C 9.277344 3.65625 9.355469 3.5 9.109375 3.339844 C 8.757812 3.179688 8.269531 3.4375 7.707031 3.25 C 7.675781 3.160156 7.816406 3.066406 7.871094 2.976562 C 7.648438 3.042969 7.496094 3.203125 7.375 3.324219 C 5.707031 2.835938 6.824219 1.652344 7.339844 2.488281 C 7.28125 2.050781 7.027344 1.867188 6.765625 1.863281 Z M 8.226562 4.289062 C 8.589844 4.289062 8.90625 4.636719 8.964844 4.640625 C 9.03125 4.640625 9.074219 4.652344 9.066406 4.734375 C 9.058594 4.816406 8.796875 4.816406 8.550781 4.714844 C 8.304688 4.617188 8.109375 4.585938 7.9375 4.59375 C 7.765625 4.601562 7.773438 4.585938 7.773438 4.585938 C 7.75 4.570312 7.804688 4.359375 8.109375 4.300781 C 8.148438 4.292969 8.1875 4.289062 8.226562 4.289062 Z M 8.644531 5.390625 C 8.695312 5.390625 8.75 5.394531 8.804688 5.402344 C 9.578125 5.53125 9.980469 6.398438 10.578125 6.628906 C 10.960938 6.761719 10.933594 6.789062 10.9375 6.84375 C 10.941406 6.902344 10.984375 7.390625 10.984375 7.390625 C 10.984375 7.390625 10.8125 7.46875 10.605469 7.371094 C 10.402344 7.277344 9.066406 6.445312 8.601562 6.191406 C 8.132812 5.9375 7.851562 5.8125 7.851562 5.8125 C 7.851562 5.8125 8.140625 5.390625 8.644531 5.390625 Z M 8.644531 5.390625 "/>
<path style="fill-rule:nonzero;fill:rgb(25.882354%,25.882354%,25.882354%);fill-opacity:1;stroke-width:0.264583;stroke-linecap:butt;stroke-linejoin:miter;stroke:rgb(0%,0%,0%);stroke-opacity:1;stroke-miterlimit:4;" d="M 161.375 129 L 240.75 49.625 L 240.75 271.875 L 193.125 218.875 L 193.125 129 " transform="matrix(0.03125,0,0,0.03125,0,6.71875)"/>
<path style=" stroke:none;fill-rule:nonzero;fill:rgb(100%,80.000001%,50.196081%);fill-opacity:1;" d="M 7.195312 14.386719 L 6.367188 13.394531 L 6.367188 10.417969 L 5.871094 10.417969 L 7.195312 9.09375 Z M 7.195312 14.386719 "/>
<path style=" stroke:none;fill-rule:nonzero;fill:rgb(25.882354%,25.882354%,25.882354%);fill-opacity:1;" d="M 7.359375 10.75 L 9.839844 8.269531 L 9.839844 15.214844 L 8.351562 13.558594 L 8.351562 10.75 "/>
<path style=" stroke:none;fill-rule:nonzero;fill:rgb(100%,80.000001%,50.196081%);fill-opacity:1;" d="M 9.507812 14.386719 L 8.683594 13.394531 L 8.683594 10.417969 L 8.1875 10.417969 L 9.507812 9.09375 Z M 9.507812 14.386719 "/>
</g>
</svg>
