<?xml version="1.0" encoding="UTF-8"?>
<svg xmlns="http://www.w3.org/2000/svg" xmlns:xlink="http://www.w3.org/1999/xlink" width="16px" height="16px" viewBox="0 0 16 16" version="1.1">
<g id="surface1">
<path style=" stroke:none;fill-rule:nonzero;fill:rgb(93.333334%,93.333334%,93.333334%);fill-opacity:1;" d="M 4.628906 15.339844 L 13.890625 15.339844 C 14.257812 15.339844 14.550781 15.042969 14.550781 14.675781 L 14.550781 1.449219 C 14.550781 1.082031 14.257812 0.785156 13.890625 0.785156 L 4.628906 0.785156 Z M 4.628906 15.339844 "/>
<path style=" stroke:none;fill-rule:nonzero;fill:rgb(25.882354%,25.882354%,25.882354%);fill-opacity:1;" d="M 4.628906 15.339844 L 4.628906 0.785156 L 1.984375 0.785156 C 1.617188 0.785156 1.324219 1.082031 1.324219 1.449219 L 1.324219 14.675781 C 1.324219 15.042969 1.617188 15.339844 1.984375 15.339844 Z M 4.628906 15.339844 "/>
<path style=" stroke:none;fill-rule:nonzero;fill:rgb(87.843138%,87.843138%,87.843138%);fill-opacity:1;" d="M 6.738281 0.785156 L 4.691406 4.332031 L 10.089844 7.449219 L 13.207031 2.050781 L 11.015625 0.785156 Z M 13.925781 2.464844 L 10.808594 7.863281 L 14.550781 10.023438 L 14.550781 2.828125 Z M 4.628906 5.253906 L 4.628906 12.449219 L 6.558594 13.5625 L 9.675781 8.167969 Z M 10.394531 8.582031 L 7.277344 13.980469 L 9.632812 15.339844 L 13.6875 15.339844 L 14.550781 13.84375 L 14.550781 10.984375 Z M 10.394531 8.582031 "/>
<path style=" stroke:none;fill-rule:nonzero;fill:rgb(25.882354%,25.882354%,25.882354%);fill-opacity:1;" d="M 8.269531 8.0625 C 8.085938 8.0625 7.9375 8.210938 7.9375 8.394531 L 7.9375 14.015625 C 7.9375 14.199219 8.085938 14.347656 8.269531 14.347656 L 13.230469 14.347656 C 13.414062 14.347656 13.558594 14.199219 13.558594 14.015625 L 13.558594 8.394531 C 13.558594 8.210938 13.414062 8.0625 13.230469 8.0625 Z M 8.929688 8.722656 L 12.566406 8.722656 C 12.75 8.722656 12.898438 8.871094 12.898438 9.054688 L 12.898438 13.355469 C 12.898438 13.539062 12.75 13.683594 12.566406 13.683594 L 8.929688 13.683594 C 8.746094 13.683594 8.597656 13.539062 8.597656 13.355469 L 8.597656 9.054688 C 8.597656 8.871094 8.746094 8.722656 8.929688 8.722656 Z M 8.929688 8.722656 "/>
<path style=" stroke:none;fill-rule:nonzero;fill:rgb(25.882354%,25.882354%,25.882354%);fill-opacity:1;" d="M 9.09375 9.054688 C 9.003906 9.054688 8.929688 9.128906 8.929688 9.21875 L 8.929688 13.1875 C 8.929688 13.28125 9.003906 13.355469 9.09375 13.355469 L 12.402344 13.355469 C 12.492188 13.355469 12.566406 13.28125 12.566406 13.1875 L 12.566406 9.21875 C 12.566406 9.128906 12.492188 9.054688 12.402344 9.054688 Z M 11.90625 10.707031 L 12.070312 10.707031 C 12.164062 10.707031 12.238281 10.78125 12.238281 10.875 L 12.238281 11.535156 C 12.238281 11.625 12.164062 11.699219 12.070312 11.699219 L 11.90625 11.699219 C 11.816406 11.699219 11.742188 11.625 11.742188 11.535156 L 11.742188 10.875 C 11.742188 10.78125 11.816406 10.707031 11.90625 10.707031 Z M 11.90625 10.707031 "/>
</g>
</svg>
