
<svg xmlns="http://www.w3.org/2000/svg" xmlns:xlink="http://www.w3.org/1999/xlink" width="16px" height="16px" viewBox="0 0 16 16" version="1.1">
<g id="surface1">
<path style=" stroke:none;fill-rule:nonzero;fill:rgb(25.882354%,25.882354%,25.882354%);fill-opacity:1;" d="M 7.9375 14.121094 C 8.742188 14.121094 9.390625 14.367188 9.390625 14.667969 C 9.390625 14.96875 8.742188 15.214844 7.9375 15.214844 C 7.132812 15.214844 6.480469 14.96875 6.480469 14.667969 C 6.480469 14.367188 7.132812 14.121094 7.9375 14.121094 Z M 7.9375 14.121094 "/>
<path style=" stroke:none;fill-rule:nonzero;fill:rgb(47.058824%,56.470591%,61.176473%);fill-opacity:1;" d="M 7.917969 7.9375 L 7.957031 7.9375 C 9.550781 7.9375 10.847656 8.589844 10.847656 9.394531 L 10.847656 13.394531 C 10.847656 14.199219 9.550781 14.851562 7.957031 14.851562 L 7.917969 14.851562 C 6.320312 14.851562 5.027344 14.199219 5.027344 13.394531 L 5.027344 9.394531 C 5.027344 8.589844 6.320312 7.9375 7.917969 7.9375 Z M 7.917969 7.9375 "/>
<path style=" stroke:none;fill-rule:nonzero;fill:rgb(100%,65.490198%,14.901961%);fill-opacity:1;" d="M 7.941406 0.660156 C 5.523438 0.660156 3.578125 2.527344 3.578125 4.84375 L 3.578125 5.210938 C 3.578125 6.453125 4.140625 7.566406 5.03125 8.332031 L 5.03125 8.664062 C 5.03125 8.726562 5.039062 8.789062 5.054688 8.847656 L 10.832031 8.847656 C 10.847656 8.789062 10.855469 8.726562 10.855469 8.664062 L 10.855469 8.332031 C 11.746094 7.566406 12.308594 6.453125 12.308594 5.210938 L 12.308594 4.84375 C 12.308594 2.527344 10.363281 0.660156 7.941406 0.660156 Z M 7.941406 0.660156 "/>
<path style=" stroke:none;fill-rule:nonzero;fill:rgb(100%,59.607846%,0%);fill-opacity:1;" d="M 7.941406 7.9375 C 9.550781 7.9375 10.855469 8.34375 10.855469 8.847656 C 10.855469 9.347656 9.550781 9.757812 7.941406 9.757812 C 6.335938 9.757812 5.03125 9.347656 5.03125 8.847656 C 5.03125 8.34375 6.335938 7.9375 7.941406 7.9375 Z M 7.941406 7.9375 "/>
<path style=" stroke:none;fill-rule:nonzero;fill:rgb(96.078432%,48.627451%,0%);fill-opacity:1;" d="M 7.941406 8.300781 C 8.546875 8.300781 9.035156 8.449219 9.035156 8.628906 L 9.035156 8.703125 C 9.035156 8.882812 8.546875 9.027344 7.941406 9.027344 C 7.339844 9.027344 6.851562 8.882812 6.851562 8.703125 L 6.851562 8.628906 C 6.851562 8.449219 7.339844 8.300781 7.941406 8.300781 Z M 7.941406 8.300781 "/>
<path style=" stroke:none;fill-rule:nonzero;fill:rgb(96.078432%,48.627451%,0%);fill-opacity:1;" d="M 7.90625 7.574219 C 7.523438 7.574219 7.214844 7.816406 7.214844 8.121094 L 7.214844 8.664062 L 8.671875 8.664062 L 8.671875 8.121094 C 8.671875 7.816406 8.363281 7.574219 7.980469 7.574219 Z M 7.90625 7.574219 "/>
<path style=" stroke:none;fill-rule:nonzero;fill:rgb(96.078432%,48.627451%,0%);fill-opacity:1;" d="M 5.761719 4.160156 C 5.714844 4.160156 5.667969 4.183594 5.644531 4.226562 C 5.617188 4.265625 5.613281 4.316406 5.636719 4.359375 L 7.457031 8 C 7.476562 8.042969 7.523438 8.074219 7.570312 8.078125 C 7.621094 8.082031 7.667969 8.058594 7.695312 8.015625 C 7.722656 7.972656 7.726562 7.921875 7.703125 7.875 L 5.882812 4.238281 C 5.859375 4.191406 5.8125 4.160156 5.761719 4.160156 Z M 5.761719 4.160156 "/>
<path style=" stroke:none;fill-rule:nonzero;fill:rgb(96.078432%,48.627451%,0%);fill-opacity:1;" d="M 10.121094 4.160156 C 10.070312 4.164062 10.023438 4.191406 10.003906 4.238281 L 8.183594 7.875 C 8.160156 7.921875 8.164062 7.972656 8.191406 8.011719 C 8.21875 8.054688 8.265625 8.078125 8.316406 8.074219 C 8.363281 8.070312 8.40625 8.042969 8.429688 8 L 10.25 4.359375 C 10.273438 4.316406 10.269531 4.265625 10.242188 4.222656 C 10.214844 4.183594 10.167969 4.15625 10.121094 4.160156 Z M 10.121094 4.160156 "/>
<path style=" stroke:none;fill-rule:nonzero;fill:rgb(96.078432%,48.627451%,0%);fill-opacity:1;" d="M 5.757812 4.265625 C 5.742188 4.265625 5.730469 4.277344 5.726562 4.292969 C 5.722656 4.308594 5.730469 4.324219 5.746094 4.332031 L 6.472656 4.695312 C 6.480469 4.699219 6.492188 4.699219 6.503906 4.695312 L 7.214844 4.339844 L 7.929688 4.695312 C 7.9375 4.699219 7.949219 4.699219 7.957031 4.695312 L 8.671875 4.339844 L 9.382812 4.695312 C 9.394531 4.699219 9.402344 4.699219 9.414062 4.695312 L 10.140625 4.332031 C 10.152344 4.324219 10.160156 4.3125 10.160156 4.300781 C 10.160156 4.289062 10.15625 4.277344 10.144531 4.269531 C 10.132812 4.265625 10.121094 4.261719 10.109375 4.269531 L 9.398438 4.625 L 8.6875 4.269531 C 8.675781 4.265625 8.664062 4.265625 8.65625 4.269531 L 7.941406 4.625 L 7.230469 4.269531 C 7.222656 4.265625 7.210938 4.265625 7.199219 4.269531 L 6.488281 4.625 L 5.777344 4.269531 C 5.769531 4.265625 5.765625 4.265625 5.757812 4.265625 Z M 5.757812 4.265625 "/>
<path style=" stroke:none;fill-rule:nonzero;fill:rgb(56.470591%,64.313728%,68.235296%);fill-opacity:1;" d="M 5.207031 10.300781 C 5.007812 10.300781 4.84375 10.464844 4.84375 10.664062 C 4.84375 10.824219 4.945312 10.957031 5.085938 11.007812 C 6.996094 11.769531 9.210938 11.757812 10.664062 11.757812 C 10.867188 11.757812 11.027344 11.59375 11.027344 11.394531 C 11.027344 11.191406 10.867188 11.03125 10.664062 11.03125 C 9.210938 11.03125 7.078125 11.019531 5.351562 10.332031 C 5.308594 10.3125 5.261719 10.300781 5.207031 10.300781 Z M 5.207031 12.121094 C 5.007812 12.121094 4.84375 12.285156 4.84375 12.484375 C 4.84375 12.644531 4.945312 12.777344 5.085938 12.828125 C 6.996094 13.585938 9.214844 13.578125 10.664062 13.578125 C 10.867188 13.578125 11.027344 13.414062 11.027344 13.210938 C 11.027344 13.011719 10.867188 12.847656 10.664062 12.847656 C 9.210938 12.847656 7.078125 12.835938 5.351562 12.152344 C 5.308594 12.132812 5.257812 12.121094 5.207031 12.121094 Z M 5.207031 12.121094 "/>
</g>
</svg>
