
<svg xmlns="http://www.w3.org/2000/svg" xmlns:xlink="http://www.w3.org/1999/xlink" width="16px" height="16px" viewBox="0 0 16 16" version="1.1">
<defs>
<linearGradient id="linear0" gradientUnits="userSpaceOnUse" x1="254" y1="212.333328" x2="254" y2="127.666656" gradientTransform="matrix(0.03125,0,0,0.03125,0,6.59375)">
<stop offset="0" style="stop-color:rgb(0%,0%,0%);stop-opacity:0.0784314;"/>
<stop offset="1" style="stop-color:rgb(0%,0%,0%);stop-opacity:0;"/>
</linearGradient>
</defs>
<g id="surface1">
<path style=" stroke:none;fill-rule:nonzero;fill:rgb(11.764706%,53.333336%,89.803922%);fill-opacity:1;" d="M 1.652344 0.660156 L 14.222656 0.660156 C 14.585938 0.660156 14.882812 0.957031 14.882812 1.324219 L 14.882812 14.550781 C 14.882812 14.917969 14.585938 15.214844 14.222656 15.214844 L 1.652344 15.214844 C 1.289062 15.214844 0.992188 14.917969 0.992188 14.550781 L 0.992188 1.324219 C 0.992188 0.957031 1.289062 0.660156 1.652344 0.660156 Z M 1.652344 0.660156 "/>
<path style=" stroke:none;fill-rule:nonzero;fill:rgb(25.882354%,64.705884%,96.078432%);fill-opacity:1;" d="M 1.324219 1.488281 L 14.550781 1.488281 C 14.917969 1.488281 15.214844 1.785156 15.214844 2.148438 L 15.214844 14.550781 C 15.214844 14.917969 14.917969 15.214844 14.550781 15.214844 L 1.324219 15.214844 C 0.957031 15.214844 0.660156 14.917969 0.660156 14.550781 L 0.660156 2.148438 C 0.660156 1.785156 0.957031 1.488281 1.324219 1.488281 Z M 1.324219 1.488281 "/>
<path style=" stroke:none;fill-rule:nonzero;fill:rgb(39.215687%,70.980394%,96.470588%);fill-opacity:1;" d="M 4.628906 7.277344 C 4.628906 7.277344 2.664062 9.269531 0.660156 11.953125 L 0.660156 14.550781 C 0.660156 14.917969 0.957031 15.214844 1.324219 15.214844 L 14.550781 15.214844 C 14.917969 15.214844 15.214844 14.917969 15.214844 14.550781 L 15.214844 12.566406 L 11.90625 9.921875 L 9.261719 11.246094 Z M 4.628906 7.277344 "/>
<path style=" stroke:none;fill-rule:nonzero;fill:rgb(96.078432%,96.078432%,96.078432%);fill-opacity:1;" d="M 4.300781 2.976562 C 3.75 2.976562 3.308594 3.417969 3.308594 3.96875 C 3.308594 4.519531 3.75 4.960938 4.300781 4.960938 C 4.847656 4.960938 5.292969 4.519531 5.292969 3.96875 C 5.292969 3.417969 4.847656 2.976562 4.300781 2.976562 Z M 4.300781 3.308594 C 4.664062 3.308594 4.960938 3.601562 4.960938 3.96875 C 4.960938 4.335938 4.664062 4.628906 4.300781 4.628906 C 3.933594 4.628906 3.636719 4.335938 3.636719 3.96875 C 3.636719 3.601562 3.933594 3.308594 4.300781 3.308594 Z M 4.300781 3.308594 "/>
<path style=" stroke:none;fill-rule:nonzero;fill:rgb(0%,0%,0%);fill-opacity:0.235294;" d="M 4.300781 3.308594 C 4.664062 3.308594 4.960938 3.601562 4.960938 3.96875 C 4.960938 4.335938 4.664062 4.628906 4.300781 4.628906 C 3.933594 4.628906 3.636719 4.335938 3.636719 3.96875 C 3.636719 3.601562 3.933594 3.308594 4.300781 3.308594 Z M 4.300781 3.308594 "/>
<path style=" stroke:none;fill-rule:nonzero;fill:rgb(96.078432%,96.078432%,96.078432%);fill-opacity:1;" d="M 11.574219 2.976562 C 11.027344 2.976562 10.582031 3.417969 10.582031 3.96875 C 10.582031 4.519531 11.027344 4.960938 11.574219 4.960938 C 12.125 4.960938 12.566406 4.519531 12.566406 3.96875 C 12.566406 3.417969 12.125 2.976562 11.574219 2.976562 Z M 11.574219 3.308594 C 11.941406 3.308594 12.238281 3.601562 12.238281 3.96875 C 12.238281 4.335938 11.941406 4.628906 11.574219 4.628906 C 11.210938 4.628906 10.914062 4.335938 10.914062 3.96875 C 10.914062 3.601562 11.210938 3.308594 11.574219 3.308594 Z M 11.574219 3.308594 "/>
<path style=" stroke:none;fill-rule:nonzero;fill:rgb(0%,0%,0%);fill-opacity:0.235294;" d="M 11.574219 3.308594 C 11.941406 3.308594 12.238281 3.601562 12.238281 3.96875 C 12.238281 4.335938 11.941406 4.628906 11.574219 4.628906 C 11.210938 4.628906 10.914062 4.335938 10.914062 3.96875 C 10.914062 3.601562 11.210938 3.308594 11.574219 3.308594 Z M 11.574219 3.308594 "/>
<path style=" stroke:none;fill-rule:nonzero;fill:rgb(96.078432%,96.078432%,96.078432%);fill-opacity:1;" d="M 4.300781 3.636719 C 4.117188 3.636719 3.96875 3.785156 3.96875 3.96875 L 3.96875 5.621094 C 3.96875 7.820312 5.738281 9.589844 7.9375 9.589844 C 10.136719 9.589844 11.90625 7.820312 11.90625 5.621094 L 11.90625 3.96875 C 11.90625 3.785156 11.757812 3.636719 11.574219 3.636719 C 11.390625 3.636719 11.246094 3.785156 11.246094 3.96875 L 11.246094 5.621094 C 11.246094 7.453125 9.769531 8.929688 7.9375 8.929688 C 6.105469 8.929688 4.628906 7.453125 4.628906 5.621094 L 4.628906 3.96875 C 4.628906 3.785156 4.484375 3.636719 4.300781 3.636719 Z M 4.300781 3.636719 "/>
<path style=" stroke:none;fill-rule:nonzero;fill:url(#linear0);" d="M 0.660156 10.582031 L 15.214844 10.582031 L 15.214844 13.230469 L 0.660156 13.230469 Z M 0.660156 10.582031 "/>
</g>
</svg>
