<?xml version="1.0" encoding="UTF-8"?>
<svg xmlns="http://www.w3.org/2000/svg" xmlns:xlink="http://www.w3.org/1999/xlink" width="16px" height="16px" viewBox="0 0 16 16" version="1.1">
<g id="surface1">
<path style=" stroke:none;fill-rule:nonzero;fill:rgb(37.64706%,49.019608%,54.509807%);fill-opacity:1;" d="M 3.96875 0.785156 L 13.230469 0.785156 C 13.59375 0.785156 13.890625 1.082031 13.890625 1.449219 L 13.890625 14.675781 C 13.890625 15.042969 13.59375 15.339844 13.230469 15.339844 L 3.96875 15.339844 C 3.601562 15.339844 3.308594 15.042969 3.308594 14.675781 L 3.308594 1.449219 C 3.308594 1.082031 3.601562 0.785156 3.96875 0.785156 Z M 3.96875 0.785156 "/>
<path style=" stroke:none;fill-rule:nonzero;fill:rgb(96.078432%,96.078432%,96.078432%);fill-opacity:1;" d="M 3.636719 1.117188 L 13.230469 1.117188 C 13.410156 1.117188 13.558594 1.265625 13.558594 1.449219 L 13.558594 14.675781 C 13.558594 14.859375 13.410156 15.007812 13.230469 15.007812 L 3.636719 15.007812 C 3.457031 15.007812 3.308594 14.859375 3.308594 14.675781 L 3.308594 1.449219 C 3.308594 1.265625 3.457031 1.117188 3.636719 1.117188 Z M 3.636719 1.117188 "/>
<path style=" stroke:none;fill-rule:nonzero;fill:rgb(47.058824%,56.470591%,61.176473%);fill-opacity:1;" d="M 3.636719 0.785156 L 12.566406 0.785156 C 12.933594 0.785156 13.230469 1.082031 13.230469 1.449219 L 13.230469 14.675781 C 13.230469 15.042969 12.933594 15.339844 12.566406 15.339844 L 3.636719 15.339844 C 3.273438 15.339844 2.976562 15.042969 2.976562 14.675781 L 2.976562 1.449219 C 2.976562 1.082031 3.273438 0.785156 3.636719 0.785156 Z M 3.636719 0.785156 "/>
<path style=" stroke:none;fill-rule:nonzero;fill:rgb(25.882354%,25.882354%,25.882354%);fill-opacity:1;" d="M 2.644531 0.785156 C 2.28125 0.785156 1.984375 1.082031 1.984375 1.449219 L 1.984375 14.675781 C 1.984375 15.042969 2.28125 15.339844 2.644531 15.339844 L 3.96875 15.339844 L 3.96875 0.785156 Z M 2.644531 0.785156 "/>
<path style=" stroke:none;fill-rule:nonzero;fill:rgb(38.039216%,38.039216%,38.039216%);fill-opacity:1;" d="M 1.984375 7.730469 L 3.636719 7.730469 L 3.636719 8.394531 L 1.984375 8.394531 Z M 1.984375 7.730469 "/>
<path style=" stroke:none;fill-rule:nonzero;fill:rgb(38.039216%,38.039216%,38.039216%);fill-opacity:1;" d="M 1.984375 4.09375 L 3.636719 4.09375 L 3.636719 4.753906 L 1.984375 4.753906 Z M 1.984375 4.09375 "/>
<path style=" stroke:none;fill-rule:nonzero;fill:rgb(38.039216%,38.039216%,38.039216%);fill-opacity:1;" d="M 1.984375 11.371094 L 3.636719 11.371094 L 3.636719 12.03125 L 1.984375 12.03125 Z M 1.984375 11.371094 "/>
<path style=" stroke:none;fill-rule:nonzero;fill:rgb(25.882354%,25.882354%,25.882354%);fill-opacity:1;" d="M 7.277344 7.566406 C 6.632812 7.566406 6.117188 8.082031 6.117188 8.722656 L 6.117188 10.707031 C 6.117188 10.890625 6.265625 11.039062 6.449219 11.039062 L 6.613281 11.039062 C 6.796875 11.039062 6.945312 10.890625 6.945312 10.707031 L 6.945312 8.804688 C 6.945312 8.761719 6.980469 8.722656 7.027344 8.722656 C 7.074219 8.722656 7.109375 8.761719 7.109375 8.804688 L 7.109375 10.707031 C 7.109375 10.890625 7.257812 11.039062 7.441406 11.039062 L 9.425781 11.039062 C 9.609375 11.039062 9.757812 10.890625 9.757812 10.707031 L 9.757812 8.804688 C 9.757812 8.761719 9.792969 8.722656 9.839844 8.722656 C 9.886719 8.722656 9.921875 8.761719 9.921875 8.804688 L 9.921875 10.707031 C 9.921875 10.890625 10.070312 11.039062 10.253906 11.039062 L 10.417969 11.039062 C 10.601562 11.039062 10.75 10.890625 10.75 10.707031 L 10.75 8.722656 C 10.75 8.082031 10.234375 7.566406 9.589844 7.566406 Z M 7.277344 7.566406 "/>
<path style=" stroke:none;fill-rule:nonzero;fill:rgb(25.882354%,25.882354%,25.882354%);fill-opacity:1;" d="M 8.433594 5.085938 C 9.074219 5.085938 9.589844 5.605469 9.589844 6.242188 C 9.589844 6.882812 9.074219 7.402344 8.433594 7.402344 C 7.792969 7.402344 7.277344 6.882812 7.277344 6.242188 C 7.277344 5.605469 7.792969 5.085938 8.433594 5.085938 Z M 8.433594 5.085938 "/>
</g>
</svg>
