
<svg xmlns="http://www.w3.org/2000/svg" xmlns:xlink="http://www.w3.org/1999/xlink" width="16px" height="16px" viewBox="0 0 16 16" version="1.1">
<g id="surface1">
<path style=" stroke:none;fill-rule:nonzero;fill:rgb(25.882354%,64.705884%,96.078432%);fill-opacity:1;" d="M 1.199219 15.214844 C 0.902344 15.214844 0.660156 14.972656 0.660156 14.675781 L 0.660156 9.921875 L 7.9375 9.921875 L 7.9375 15.214844 Z M 1.199219 15.214844 "/>
<path style=" stroke:none;fill-rule:nonzero;fill:rgb(24.705882%,31.764707%,70.980394%);fill-opacity:1;" d="M 14.675781 15.214844 C 14.972656 15.214844 15.214844 14.972656 15.214844 14.675781 L 15.214844 9.921875 L 7.9375 9.921875 L 7.9375 15.214844 Z M 14.675781 15.214844 "/>
<path style=" stroke:none;fill-rule:nonzero;fill:rgb(93.333334%,93.333334%,93.333334%);fill-opacity:1;" d="M 1.199219 4.628906 C 0.902344 4.628906 0.660156 4.871094 0.660156 5.167969 L 0.660156 9.921875 L 7.9375 9.921875 L 7.9375 4.628906 Z M 1.199219 4.628906 "/>
<path style=" stroke:none;fill-rule:nonzero;fill:rgb(38.039216%,38.039216%,38.039216%);fill-opacity:1;" d="M 14.675781 4.628906 C 14.972656 4.628906 15.214844 4.871094 15.214844 5.167969 L 15.214844 9.921875 L 7.9375 9.921875 L 7.9375 4.628906 Z M 14.675781 4.628906 "/>
<path style=" stroke:none;fill-rule:nonzero;fill:rgb(61.960787%,61.960787%,61.960787%);fill-opacity:1;" d="M 6.703125 5.453125 L 3.066406 11.753906 L 2.976562 13.230469 L 4.210938 12.414062 L 5.625 9.96875 C 6.304688 10.359375 7.09375 10.582031 7.9375 10.582031 C 8.78125 10.582031 9.570312 10.359375 10.25 9.96875 L 11.664062 12.414062 L 12.898438 13.230469 L 12.808594 11.753906 L 11.300781 9.140625 C 12.085938 8.3125 12.566406 7.191406 12.566406 5.953125 C 12.566406 5.816406 12.421875 5.707031 12.238281 5.707031 C 12.054688 5.707031 11.90625 5.816406 11.90625 5.953125 C 11.90625 6.941406 11.546875 7.84375 10.953125 8.539062 L 9.171875 5.453125 L 8.027344 6.113281 L 9.921875 9.394531 C 9.339844 9.730469 8.660156 9.921875 7.9375 9.921875 C 7.214844 9.921875 6.535156 9.730469 5.953125 9.394531 L 7.847656 6.113281 Z M 6.703125 5.453125 "/>
<path style=" stroke:none;fill-rule:nonzero;fill:rgb(25.882354%,25.882354%,25.882354%);fill-opacity:1;" d="M 7.9375 0.660156 C 7.570312 0.660156 7.277344 0.957031 7.277344 1.324219 L 7.277344 3.96875 L 6.945312 3.96875 C 6.761719 3.96875 6.613281 4.117188 6.613281 4.300781 L 6.613281 5.457031 C 6.613281 5.554688 6.65625 5.648438 6.734375 5.710938 L 7.726562 6.539062 C 7.847656 6.640625 8.027344 6.640625 8.148438 6.539062 L 9.140625 5.710938 C 9.21875 5.648438 9.261719 5.554688 9.261719 5.457031 L 9.261719 4.300781 C 9.261719 4.117188 9.113281 3.96875 8.929688 3.96875 L 8.597656 3.96875 L 8.597656 1.324219 C 8.597656 0.957031 8.304688 0.660156 7.9375 0.660156 Z M 7.9375 0.660156 "/>
<path style=" stroke:none;fill-rule:nonzero;fill:rgb(93.333334%,93.333334%,93.333334%);fill-opacity:0.943478;" d="M 7.9375 4.628906 C 8.210938 4.628906 8.433594 4.851562 8.433594 5.125 C 8.433594 5.402344 8.210938 5.621094 7.9375 5.621094 C 7.664062 5.621094 7.441406 5.402344 7.441406 5.125 C 7.441406 4.851562 7.664062 4.628906 7.9375 4.628906 Z M 7.9375 4.628906 "/>
</g>
</svg>
