
<svg xmlns="http://www.w3.org/2000/svg" xmlns:xlink="http://www.w3.org/1999/xlink" width="16px" height="16px" viewBox="0 0 16 16" version="1.1">
<g id="surface1">
<path style=" stroke:none;fill-rule:nonzero;fill:rgb(93.725491%,32.549021%,31.37255%);fill-opacity:1;" d="M 1.984375 0.660156 C 1.617188 0.660156 1.324219 0.957031 1.324219 1.324219 L 1.324219 8.597656 C 1.324219 12.261719 4.273438 15.214844 7.9375 15.214844 C 11.601562 15.214844 14.550781 12.261719 14.550781 8.597656 L 14.550781 1.324219 C 14.550781 0.957031 14.257812 0.660156 13.890625 0.660156 Z M 1.984375 0.660156 "/>
<path style=" stroke:none;fill-rule:nonzero;fill:rgb(96.078432%,96.078432%,96.078432%);fill-opacity:1;" d="M 3.96875 4.632812 C 3.792969 4.632812 3.625 4.703125 3.503906 4.828125 C 3.246094 5.082031 3.246094 5.5 3.503906 5.757812 L 7.472656 9.726562 C 7.730469 9.984375 8.144531 9.984375 8.402344 9.726562 L 12.371094 5.757812 C 12.628906 5.5 12.628906 5.082031 12.371094 4.828125 C 12.113281 4.570312 11.699219 4.570312 11.441406 4.828125 L 7.9375 8.328125 L 4.433594 4.828125 C 4.308594 4.703125 4.140625 4.632812 3.96875 4.632812 Z M 3.96875 4.632812 "/>
</g>
</svg>
