<?xml version="1.0" encoding="UTF-8"?>
<svg xmlns="http://www.w3.org/2000/svg" xmlns:xlink="http://www.w3.org/1999/xlink" width="16px" height="16px" viewBox="0 0 16 16" version="1.1">
<g id="surface1">
<path style=" stroke:none;fill-rule:nonzero;fill:rgb(61.960787%,61.960787%,61.960787%);fill-opacity:1;" d="M 7.277344 1.777344 L 8.597656 1.777344 L 8.597656 3.101562 L 7.277344 3.101562 Z M 7.277344 1.777344 "/>
<path style=" stroke:none;fill-rule:nonzero;fill:rgb(74.117649%,74.117649%,74.117649%);fill-opacity:1;" d="M 7.9375 0.785156 C 7.527344 0.785156 7.152344 0.863281 6.851562 1.015625 C 6.554688 1.164062 6.285156 1.417969 6.285156 1.777344 L 6.285156 1.945312 C 6.285156 2.125 6.433594 2.273438 6.613281 2.273438 L 9.261719 2.273438 C 9.441406 2.273438 9.589844 2.125 9.589844 1.945312 L 9.589844 1.777344 C 9.589844 1.417969 9.320312 1.164062 9.023438 1.015625 C 8.722656 0.863281 8.347656 0.785156 7.9375 0.785156 Z M 7.9375 0.785156 "/>
<path style=" stroke:none;fill-rule:nonzero;fill:rgb(61.960787%,61.960787%,61.960787%);fill-opacity:1;" d="M 2.644531 7.402344 L 13.230469 7.402344 C 13.59375 7.402344 13.890625 7.875 13.890625 8.460938 L 13.890625 11.632812 C 13.890625 12.21875 13.59375 12.691406 13.230469 12.691406 L 2.644531 12.691406 C 2.28125 12.691406 1.984375 12.21875 1.984375 11.632812 L 1.984375 8.460938 C 1.984375 7.875 2.28125 7.402344 2.644531 7.402344 Z M 2.644531 7.402344 "/>
<path style=" stroke:none;fill-rule:nonzero;fill:rgb(74.117649%,74.117649%,74.117649%);fill-opacity:1;" d="M 7.9375 2.769531 C 3.90625 2.769531 0.660156 5.722656 0.660156 9.386719 L 15.214844 9.386719 C 15.214844 5.722656 11.96875 2.769531 7.9375 2.769531 Z M 7.9375 2.769531 "/>
<path style=" stroke:none;fill-rule:nonzero;fill:rgb(55.29412%,43.137255%,38.82353%);fill-opacity:1;" d="M 1.324219 10.707031 L 14.550781 10.707031 C 14.917969 10.707031 15.214844 10.9375 15.214844 11.222656 L 15.214844 14.824219 C 15.214844 15.109375 14.917969 15.339844 14.550781 15.339844 L 1.324219 15.339844 C 0.957031 15.339844 0.660156 15.109375 0.660156 14.824219 L 0.660156 11.222656 C 0.660156 10.9375 0.957031 10.707031 1.324219 10.707031 Z M 1.324219 10.707031 "/>
<path style=" stroke:none;fill-rule:nonzero;fill:rgb(47.450981%,33.333334%,28.235295%);fill-opacity:1;" d="M 0.660156 13.355469 L 15.214844 13.355469 L 15.214844 14.015625 L 0.660156 14.015625 Z M 0.660156 13.355469 "/>
<path style=" stroke:none;fill-rule:nonzero;fill:rgb(47.450981%,33.333334%,28.235295%);fill-opacity:1;" d="M 0.660156 12.03125 L 15.214844 12.03125 L 15.214844 12.691406 L 0.660156 12.691406 Z M 0.660156 12.03125 "/>
</g>
</svg>
