<?xml version="1.0" encoding="UTF-8"?>
<svg xmlns="http://www.w3.org/2000/svg" xmlns:xlink="http://www.w3.org/1999/xlink" width="16px" height="16px" viewBox="0 0 16 16" version="1.1">
<g id="surface1">
<path style=" stroke:none;fill-rule:nonzero;fill:rgb(87.843138%,87.843138%,87.843138%);fill-opacity:1;" d="M 0.660156 4.425781 L 0.660156 13.746094 C 0.660156 14.078125 0.957031 14.347656 1.324219 14.347656 L 14.550781 14.347656 C 14.917969 14.347656 15.214844 14.078125 15.214844 13.746094 L 15.214844 4.425781 Z M 0.660156 4.425781 "/>
<path style=" stroke:none;fill-rule:nonzero;fill:rgb(93.333334%,93.333334%,93.333334%);fill-opacity:0.986239;" d="M 0.992188 4.589844 L 0.992188 13.683594 C 0.992188 13.867188 1.140625 14.015625 1.324219 14.015625 L 14.550781 14.015625 C 14.734375 14.015625 14.882812 13.867188 14.882812 13.683594 L 14.882812 4.589844 Z M 0.992188 4.589844 "/>
<path style=" stroke:none;fill-rule:nonzero;fill:rgb(25.882354%,25.882354%,25.882354%);fill-opacity:1;" d="M 1.324219 1.777344 C 0.957031 1.777344 0.660156 2.074219 0.660156 2.441406 L 0.660156 4.425781 L 7.9375 4.425781 L 7.9375 1.777344 Z M 1.324219 1.777344 "/>
<path style=" stroke:none;fill-rule:nonzero;fill:rgb(93.333334%,93.333334%,93.333334%);fill-opacity:1;" d="M 7.9375 1.777344 L 7.9375 4.425781 L 15.214844 4.425781 L 15.214844 2.441406 C 15.214844 2.074219 14.917969 1.777344 14.550781 1.777344 Z M 7.9375 1.777344 "/>
<path style=" stroke:none;fill-rule:nonzero;fill:rgb(93.725491%,32.549021%,31.37255%);fill-opacity:1;" d="M 14.425781 3.804688 C 14.363281 3.867188 14.257812 3.867188 14.191406 3.804688 L 13.023438 2.632812 C 12.960938 2.570312 12.960938 2.464844 13.023438 2.398438 C 13.089844 2.335938 13.191406 2.335938 13.257812 2.398438 L 14.425781 3.570312 C 14.492188 3.632812 14.492188 3.738281 14.425781 3.804688 Z M 14.425781 3.804688 "/>
<path style=" stroke:none;fill-rule:nonzero;fill:rgb(93.725491%,32.549021%,31.37255%);fill-opacity:1;" d="M 13.023438 3.804688 C 13.089844 3.867188 13.191406 3.867188 13.257812 3.804688 L 14.425781 2.632812 C 14.492188 2.570312 14.492188 2.464844 14.425781 2.398438 C 14.363281 2.335938 14.257812 2.335938 14.191406 2.398438 L 13.023438 3.570312 C 12.960938 3.632812 12.960938 3.738281 13.023438 3.804688 Z M 13.023438 3.804688 "/>
<path style=" stroke:none;fill-rule:nonzero;fill:rgb(36.078432%,41.960785%,75.294119%);fill-opacity:1;" d="M 7.9375 5.746094 C 8.484375 5.746094 8.929688 6.488281 8.929688 7.402344 C 8.929688 8.3125 8.484375 9.054688 7.9375 9.054688 C 7.390625 9.054688 6.945312 8.3125 6.945312 7.402344 C 6.945312 6.488281 7.390625 5.746094 7.9375 5.746094 Z M 7.9375 5.746094 "/>
<path style=" stroke:none;fill-rule:nonzero;fill:rgb(67.058825%,27.843139%,73.725492%);fill-opacity:1;" d="M 10.511719 6.8125 C 10.898438 7.199219 10.6875 8.039062 10.042969 8.683594 C 9.394531 9.328125 8.558594 9.539062 8.171875 9.152344 C 7.785156 8.765625 7.992188 7.925781 8.640625 7.28125 C 9.285156 6.636719 10.121094 6.425781 10.511719 6.8125 Z M 10.511719 6.8125 "/>
<path style=" stroke:none;fill-rule:nonzero;fill:rgb(92.54902%,25.098041%,47.843137%);fill-opacity:1;" d="M 11.574219 9.386719 C 11.574219 9.933594 10.835938 10.378906 9.921875 10.378906 C 9.007812 10.378906 8.269531 9.933594 8.269531 9.386719 C 8.269531 8.835938 9.007812 8.394531 9.921875 8.394531 C 10.835938 8.394531 11.574219 8.835938 11.574219 9.386719 Z M 11.574219 9.386719 "/>
<path style=" stroke:none;fill-rule:nonzero;fill:rgb(93.725491%,32.549021%,31.37255%);fill-opacity:1;" d="M 10.511719 11.957031 C 10.121094 12.34375 9.285156 12.136719 8.640625 11.488281 C 7.992188 10.84375 7.785156 10.007812 8.171875 9.621094 C 8.558594 9.230469 9.394531 9.441406 10.042969 10.085938 C 10.6875 10.734375 10.898438 11.570312 10.511719 11.957031 Z M 10.511719 11.957031 "/>
<path style=" stroke:none;fill-rule:nonzero;fill:rgb(100%,43.921569%,26.274511%);fill-opacity:1;" d="M 7.9375 9.714844 C 8.484375 9.714844 8.929688 10.457031 8.929688 11.371094 C 8.929688 12.28125 8.484375 13.023438 7.9375 13.023438 C 7.390625 13.023438 6.945312 12.28125 6.945312 11.371094 C 6.945312 10.457031 7.390625 9.714844 7.9375 9.714844 Z M 7.9375 9.714844 "/>
<path style=" stroke:none;fill-rule:nonzero;fill:rgb(100%,65.490198%,14.901961%);fill-opacity:1;" d="M 7.703125 9.621094 C 8.089844 10.007812 7.882812 10.84375 7.234375 11.488281 C 6.589844 12.136719 5.753906 12.34375 5.363281 11.957031 C 4.976562 11.570312 5.1875 10.734375 5.832031 10.085938 C 6.480469 9.441406 7.316406 9.230469 7.703125 9.621094 Z M 7.703125 9.621094 "/>
<path style=" stroke:none;fill-rule:nonzero;fill:rgb(61.176473%,80.000001%,39.607844%);fill-opacity:1;" d="M 7.605469 9.386719 C 7.605469 9.933594 6.867188 10.378906 5.953125 10.378906 C 5.039062 10.378906 4.300781 9.933594 4.300781 9.386719 C 4.300781 8.835938 5.039062 8.394531 5.953125 8.394531 C 6.867188 8.394531 7.605469 8.835938 7.605469 9.386719 Z M 7.605469 9.386719 "/>
<path style=" stroke:none;fill-rule:nonzero;fill:rgb(14.901961%,65.098041%,60.392159%);fill-opacity:1;" d="M 7.703125 9.152344 C 7.316406 9.539062 6.480469 9.328125 5.832031 8.683594 C 5.1875 8.039062 4.976562 7.199219 5.363281 6.8125 C 5.753906 6.425781 6.589844 6.636719 7.234375 7.28125 C 7.882812 7.925781 8.089844 8.765625 7.703125 9.152344 Z M 7.703125 9.152344 "/>
<path style=" stroke:none;fill-rule:nonzero;fill:rgb(36.078432%,41.960785%,75.294119%);fill-opacity:1;" d="M 7.9375 5.746094 C 7.386719 5.746094 6.945312 6.484375 6.945312 7.402344 C 6.945312 8.316406 7.386719 9.054688 7.9375 9.054688 Z M 7.9375 5.746094 "/>
<path style=" stroke:none;fill-rule:nonzero;fill:rgb(25.882354%,25.882354%,25.882354%);fill-opacity:1;" d="M 7.9375 8.722656 C 8.304688 8.722656 8.597656 9.019531 8.597656 9.386719 C 8.597656 9.75 8.304688 10.046875 7.9375 10.046875 C 7.570312 10.046875 7.277344 9.75 7.277344 9.386719 C 7.277344 9.019531 7.570312 8.722656 7.9375 8.722656 Z M 7.9375 8.722656 "/>
<path style=" stroke:none;fill-rule:nonzero;fill:rgb(16.078432%,71.372551%,96.470588%);fill-opacity:1;" d="M 0.660156 4.425781 L 15.214844 4.425781 L 15.214844 4.589844 L 0.660156 4.589844 Z M 0.660156 4.425781 "/>
</g>
</svg>
