<?xml version="1.0" encoding="UTF-8"?>
<svg xmlns="http://www.w3.org/2000/svg" xmlns:xlink="http://www.w3.org/1999/xlink" width="16px" height="16px" viewBox="0 0 16 16" version="1.1">
<g id="surface1">
<path style=" stroke:none;fill-rule:nonzero;fill:rgb(100%,71.764708%,30.19608%);fill-opacity:1;" d="M 1.324219 1.777344 L 14.550781 1.777344 C 14.917969 1.777344 15.214844 2.074219 15.214844 2.441406 L 15.214844 13.683594 C 15.214844 14.050781 14.917969 14.347656 14.550781 14.347656 L 1.324219 14.347656 C 0.957031 14.347656 0.660156 14.050781 0.660156 13.683594 L 0.660156 2.441406 C 0.660156 2.074219 0.957031 1.777344 1.324219 1.777344 Z M 1.324219 1.777344 "/>
<path style=" stroke:none;fill-rule:nonzero;fill:rgb(94.117647%,38.431373%,57.254905%);fill-opacity:1;" d="M 0.878906 1.949219 C 0.746094 2.070312 0.660156 2.246094 0.660156 2.441406 L 0.660156 13.683594 C 0.660156 14.050781 0.957031 14.347656 1.324219 14.347656 L 14.550781 14.347656 C 14.71875 14.347656 14.871094 14.285156 14.988281 14.183594 L 4.019531 4.425781 Z M 0.878906 1.949219 "/>
<path style=" stroke:none;fill-rule:nonzero;fill:rgb(72.941178%,40.784314%,78.431374%);fill-opacity:1;" d="M 15.003906 1.957031 L 0.871094 14.167969 C 0.988281 14.277344 1.148438 14.347656 1.324219 14.347656 L 14.550781 14.347656 C 14.917969 14.347656 15.214844 14.050781 15.214844 13.683594 L 15.214844 2.441406 C 15.214844 2.25 15.132812 2.078125 15.003906 1.957031 Z M 15.003906 1.957031 "/>
<path style=" stroke:none;fill-rule:nonzero;fill:rgb(25.882354%,25.882354%,25.882354%);fill-opacity:1;" d="M 7.332031 7.070312 L 14.496094 7.070312 C 14.894531 7.070312 15.214844 7.367188 15.214844 7.730469 L 15.214844 13.683594 C 15.214844 14.050781 14.894531 14.347656 14.496094 14.347656 L 7.332031 14.347656 C 6.933594 14.347656 6.613281 14.050781 6.613281 13.683594 L 6.613281 7.730469 C 6.613281 7.367188 6.933594 7.070312 7.332031 7.070312 Z M 7.332031 7.070312 "/>
<path style=" stroke:none;fill-rule:nonzero;fill:rgb(56.470591%,64.313728%,68.235296%);fill-opacity:1;" d="M 7.613281 7.730469 L 14.324219 7.730469 C 14.507812 7.730469 14.65625 7.871094 14.65625 8.042969 L 14.65625 13.328125 C 14.65625 13.5 14.507812 13.640625 14.324219 13.640625 L 7.613281 13.640625 C 7.425781 13.640625 7.277344 13.5 7.277344 13.328125 L 7.277344 8.042969 C 7.277344 7.871094 7.425781 7.730469 7.613281 7.730469 Z M 7.613281 7.730469 "/>
<path style=" stroke:none;fill-rule:nonzero;fill:rgb(30.19608%,71.372551%,67.450982%);fill-opacity:1;" d="M 7.386719 7.8125 C 7.320312 7.867188 7.277344 7.949219 7.277344 8.042969 L 7.277344 13.328125 C 7.277344 13.5 7.425781 13.640625 7.613281 13.640625 L 14.324219 13.640625 C 14.40625 13.640625 14.484375 13.609375 14.542969 13.5625 L 8.980469 8.976562 Z M 7.386719 7.8125 "/>
<path style=" stroke:none;fill-rule:nonzero;fill:rgb(100%,54.11765%,39.607844%);fill-opacity:1;" d="M 14.550781 7.816406 L 7.382812 13.554688 C 7.441406 13.609375 7.523438 13.640625 7.613281 13.640625 L 14.324219 13.640625 C 14.507812 13.640625 14.65625 13.5 14.65625 13.328125 L 14.65625 8.042969 C 14.65625 7.953125 14.617188 7.871094 14.550781 7.816406 Z M 14.550781 7.816406 "/>
</g>
</svg>
