
<svg xmlns="http://www.w3.org/2000/svg" xmlns:xlink="http://www.w3.org/1999/xlink" width="16px" height="16px" viewBox="0 0 16 16" version="1.1">
<g id="surface1">
<path style=" stroke:none;fill-rule:nonzero;fill:rgb(100%,71.764708%,30.19608%);fill-opacity:1;" d="M 1.324219 1.777344 L 14.550781 1.777344 C 14.917969 1.777344 15.214844 2.074219 15.214844 2.441406 L 15.214844 13.683594 C 15.214844 14.050781 14.917969 14.347656 14.550781 14.347656 L 1.324219 14.347656 C 0.957031 14.347656 0.660156 14.050781 0.660156 13.683594 L 0.660156 2.441406 C 0.660156 2.074219 0.957031 1.777344 1.324219 1.777344 Z M 1.324219 1.777344 "/>
<path style=" stroke:none;fill-rule:nonzero;fill:rgb(94.117647%,38.431373%,57.254905%);fill-opacity:1;" d="M 0.878906 1.949219 C 0.746094 2.070312 0.660156 2.246094 0.660156 2.441406 L 0.660156 13.683594 C 0.660156 14.050781 0.957031 14.347656 1.324219 14.347656 L 14.550781 14.347656 C 14.71875 14.347656 14.871094 14.285156 14.988281 14.183594 L 4.019531 4.425781 Z M 0.878906 1.949219 "/>
<path style=" stroke:none;fill-rule:nonzero;fill:rgb(72.941178%,40.784314%,78.431374%);fill-opacity:1;" d="M 15.003906 1.957031 L 0.871094 14.167969 C 0.988281 14.277344 1.148438 14.347656 1.324219 14.347656 L 14.550781 14.347656 C 14.917969 14.347656 15.214844 14.050781 15.214844 13.683594 L 15.214844 2.441406 C 15.214844 2.25 15.132812 2.078125 15.003906 1.957031 Z M 15.003906 1.957031 "/>
<path style=" stroke:none;fill-rule:nonzero;fill:rgb(93.333334%,93.333334%,93.333334%);fill-opacity:1;" d="M 1.984375 2.976562 L 6.613281 2.976562 C 6.796875 2.976562 6.945312 3.125 6.945312 3.308594 L 6.945312 6.613281 C 6.945312 6.796875 6.796875 6.945312 6.613281 6.945312 L 1.984375 6.945312 C 1.800781 6.945312 1.652344 6.796875 1.652344 6.613281 L 1.652344 3.308594 C 1.652344 3.125 1.800781 2.976562 1.984375 2.976562 Z M 1.984375 2.976562 "/>
<path style=" stroke:none;fill-rule:nonzero;fill:rgb(93.333334%,93.333334%,93.333334%);fill-opacity:1;" d="M 3.636719 8.929688 L 8.269531 8.929688 C 8.449219 8.929688 8.597656 9.078125 8.597656 9.261719 L 8.597656 12.566406 C 8.597656 12.75 8.449219 12.898438 8.269531 12.898438 L 3.636719 12.898438 C 3.457031 12.898438 3.308594 12.75 3.308594 12.566406 L 3.308594 9.261719 C 3.308594 9.078125 3.457031 8.929688 3.636719 8.929688 Z M 3.636719 8.929688 "/>
<path style=" stroke:none;fill-rule:nonzero;fill:rgb(93.333334%,93.333334%,93.333334%);fill-opacity:1;" d="M 8.929688 3.96875 L 13.558594 3.96875 C 13.742188 3.96875 13.890625 4.117188 13.890625 4.300781 L 13.890625 7.605469 C 13.890625 7.789062 13.742188 7.9375 13.558594 7.9375 L 8.929688 7.9375 C 8.746094 7.9375 8.597656 7.789062 8.597656 7.605469 L 8.597656 4.300781 C 8.597656 4.117188 8.746094 3.96875 8.929688 3.96875 Z M 8.929688 3.96875 "/>
</g>
</svg>
