<?xml version="1.0" encoding="UTF-8"?>
<svg xmlns="http://www.w3.org/2000/svg" xmlns:xlink="http://www.w3.org/1999/xlink" width="16px" height="16px" viewBox="0 0 16 16" version="1.1">
<g id="surface1">
<path style=" stroke:none;fill-rule:nonzero;fill:rgb(100%,95.294118%,87.843138%);fill-opacity:1;" d="M 12.890625 9.640625 C 12.484375 10.671875 12.582031 11.796875 11.660156 12.722656 C 10.875 13.332031 10.101562 13.953125 8.886719 13.953125 L 7.347656 13.953125 C 6.269531 13.859375 5.5 13.335938 4.882812 13.027344 L 3.960938 11.796875 L 3.34375 8.71875 L 3.652344 5.945312 L 10.425781 4.40625 L 13.507812 5.945312 Z M 12.890625 9.640625 "/>
<path style=" stroke:none;fill-rule:nonzero;fill:rgb(93.725491%,32.549021%,31.37255%);fill-opacity:1;" d="M 8.578125 1.945312 C 3.777344 2.175781 2.316406 3.761719 1.652344 6.410156 L 1.578125 7.191406 C 1.601562 6.726562 1.652344 6.410156 1.652344 6.410156 C 0.992188 9.054688 0.992188 10.378906 1.007812 13.261719 L 2.046875 13.953125 L 2.113281 12.722656 L 2.242188 12.980469 C 2.402344 13.316406 2.628906 13.835938 2.738281 13.953125 L 6.730469 15.339844 C 6.207031 14.9375 5.714844 14.269531 5.304688 13.492188 C 5.519531 13.527344 5.765625 13.542969 6.046875 13.539062 C 5.394531 13.375 5.082031 12.949219 4.847656 12.484375 C 4.53125 11.664062 4.304688 10.726562 4.261719 9.820312 C 4.257812 9.621094 4.257812 9.417969 4.257812 9.214844 C 4.292969 8.429688 4.492188 7.703125 4.914062 7.148438 L 5.109375 6.953125 C 4.746094 7.996094 4.707031 8.484375 4.796875 9.550781 C 4.800781 9.457031 4.808594 9.363281 4.816406 9.273438 L 4.796875 9.550781 C 5.292969 8.0625 5.527344 6.726562 6.78125 6.078125 C 5.953125 7.070312 5.625 7.78125 5.789062 9.054688 C 5.851562 8.578125 6.09375 8.097656 6.398438 7.652344 C 6.171875 8.203125 6.132812 8.75 6.152344 9.136719 C 6.335938 8.269531 6.582031 7.601562 7.1875 6.992188 C 7.1875 6.992188 7.1875 6.996094 7.1875 6.996094 C 6.679688 7.742188 6.78125 8.726562 7.039062 9.335938 C 7.277344 8.0625 7.441406 7.402344 7.9375 6.410156 C 7.378906 7.773438 7.441406 8.890625 7.964844 9.949219 C 8.101562 9.054688 8.292969 7.5625 8.597656 6.738281 C 8.507812 7.878906 8.929688 8.0625 8.886719 9.640625 C 9.425781 8.558594 9.144531 7.8125 9.261719 7.070312 C 10.050781 7.832031 9.589844 8.394531 9.261719 10.046875 C 10.71875 8.332031 10.417969 7.566406 10.417969 7.070312 C 10.605469 7.382812 10.703125 7.664062 10.914062 8.722656 C 11.246094 8.394531 11.125 6.695312 10.75 6.242188 C 11.242188 6.8125 11.574219 7.730469 11.574219 8.722656 L 12.070312 6.738281 C 12.238281 8.0625 11.90625 8.394531 12.238281 9.714844 C 12.257812 9.210938 12.566406 8.722656 12.566406 8.394531 C 12.539062 9.304688 12.898438 10.378906 12.390625 11.191406 C 11.574219 12.363281 10.976562 13.175781 9.84375 13.476562 C 10.363281 13.484375 10.757812 13.421875 11.070312 13.3125 C 10.636719 13.820312 10.03125 14.453125 9.148438 15.339844 C 10.914062 15.339844 11.90625 14.675781 12.566406 13.683594 C 12.566406 14.347656 12.566406 14.347656 12.238281 15.007812 C 13.230469 14.015625 14.222656 13.023438 14.429688 11.796875 L 14.738281 13.335938 C 15.648438 7.433594 14.171875 2.175781 8.578125 1.945312 Z M 8.578125 1.945312 "/>
<path style=" stroke:none;fill-rule:nonzero;fill:rgb(89.803922%,45.09804%,45.09804%);fill-opacity:1;" d="M 7.808594 12.414062 C 8.433594 12.28125 8.765625 12.195312 9.042969 12.414062 C 9.011719 12.941406 8.597656 13.023438 8.117188 13.027344 C 7.9375 13.023438 7.808594 12.773438 7.808594 12.414062 Z M 7.808594 12.414062 "/>
<path style=" stroke:none;fill-rule:nonzero;fill:rgb(36.078432%,41.960785%,75.294119%);fill-opacity:1;" d="M 4.882812 10.566406 C 5.824219 12.023438 7.195312 10.875 7.347656 10.566406 C 7.5 10.257812 7.65625 9.949219 7.347656 9.640625 C 6.171875 8.640625 5.039062 9.640625 4.882812 10.566406 Z M 4.882812 10.566406 "/>
<path style=" stroke:none;fill-rule:nonzero;fill:rgb(24.705882%,31.764707%,70.980394%);fill-opacity:1;" d="M 7.300781 9.972656 C 6.882812 10.683594 5.617188 10.984375 5.078125 10.574219 C 5.898438 11.617188 7.113281 10.660156 7.242188 10.402344 C 7.265625 10.355469 7.285156 10.019531 7.300781 9.972656 Z M 7.300781 9.972656 "/>
<path style=" stroke:none;fill-rule:nonzero;fill:rgb(47.450981%,52.549022%,79.607844%);fill-opacity:1;" d="M 7.261719 10.390625 C 6.964844 10.734375 6.527344 10.949219 6.039062 10.949219 C 5.710938 10.949219 5.40625 10.851562 5.148438 10.683594 C 5.96875 11.726562 7.078125 10.789062 7.207031 10.527344 C 7.230469 10.484375 7.25 10.4375 7.261719 10.390625 Z M 7.261719 10.390625 "/>
<path style=" stroke:none;fill-rule:nonzero;fill:rgb(90.980393%,91.764706%,96.470588%);fill-opacity:1;" d="M 6.898438 9.421875 C 6.882812 9.457031 6.871094 9.496094 6.871094 9.539062 C 6.871094 9.699219 7 9.828125 7.164062 9.828125 C 7.234375 9.828125 7.296875 9.804688 7.347656 9.761719 C 7.332031 9.71875 7.300781 9.679688 7.257812 9.636719 C 7.136719 9.53125 7.015625 9.460938 6.898438 9.421875 Z M 6.898438 9.421875 "/>
<path style=" stroke:none;fill-rule:nonzero;fill:rgb(25.882354%,25.882354%,25.882354%);fill-opacity:1;" d="M 4.730469 10.71875 C 5.121094 9.917969 6.375 9.277344 7.414062 9.621094 C 6.375 8.929688 5.191406 9.179688 4.730469 10.71875 Z M 4.730469 10.71875 "/>
<path style=" stroke:none;fill-rule:nonzero;fill:rgb(36.078432%,41.960785%,75.294119%);fill-opacity:1;" d="M 9.8125 10.566406 C 10.753906 12.023438 11.589844 10.875 11.742188 10.566406 C 11.898438 10.257812 12.050781 9.949219 11.742188 9.640625 C 10.570312 8.640625 9.964844 9.640625 9.8125 10.566406 Z M 9.8125 10.566406 "/>
<path style=" stroke:none;fill-rule:nonzero;fill:rgb(24.705882%,31.764707%,70.980394%);fill-opacity:1;" d="M 10.011719 10.402344 C 10.617188 10.832031 11.144531 10.710938 11.746094 10.316406 C 10.925781 11.355469 10.230469 10.921875 10.101562 10.660156 C 10.078125 10.617188 10.027344 10.449219 10.011719 10.402344 Z M 10.011719 10.402344 "/>
<path style=" stroke:none;fill-rule:nonzero;fill:rgb(47.450981%,52.549022%,79.607844%);fill-opacity:1;" d="M 11.660156 10.390625 C 11.089844 11.078125 10.359375 11.007812 10.011719 10.488281 C 10.359375 11.703125 11.472656 10.789062 11.601562 10.527344 C 11.625 10.484375 11.644531 10.4375 11.660156 10.390625 Z M 11.660156 10.390625 "/>
<path style=" stroke:none;fill-rule:nonzero;fill:rgb(90.980393%,91.764706%,96.470588%);fill-opacity:1;" d="M 11.292969 9.421875 C 11.277344 9.457031 11.269531 9.496094 11.269531 9.539062 C 11.269531 9.699219 11.398438 9.828125 11.558594 9.828125 C 11.628906 9.828125 11.695312 9.804688 11.742188 9.761719 C 11.726562 9.71875 11.699219 9.679688 11.65625 9.636719 C 11.53125 9.53125 11.410156 9.460938 11.292969 9.421875 Z M 11.292969 9.421875 "/>
<path style=" stroke:none;fill-rule:nonzero;fill:rgb(25.882354%,25.882354%,25.882354%);fill-opacity:1;" d="M 11.964844 10.71875 C 11.964844 9.488281 11.042969 9.101562 10.195312 9.566406 C 10.425781 8.871094 12.273438 9.027344 11.964844 10.71875 Z M 11.964844 10.71875 "/>
<path style=" stroke:none;fill-rule:nonzero;fill:rgb(89.803922%,45.09804%,45.09804%);fill-opacity:1;" d="M 7.492188 2.707031 C 8.347656 2.953125 9.328125 2.339844 10.609375 2.707031 C 9.234375 1.882812 8.523438 2.234375 7.933594 2.519531 C 8.574219 2.148438 9.132812 1.410156 10.191406 1.148438 C 8.171875 1.113281 8 2.171875 7.492188 2.707031 Z M 7.492188 2.707031 "/>
<path style=" stroke:none;fill-rule:nonzero;fill:rgb(89.803922%,45.09804%,45.09804%);fill-opacity:1;" d="M 8.378906 2.347656 C 7.523438 2.59375 6.539062 1.980469 5.257812 2.347656 C 6.636719 1.523438 7.34375 1.875 7.933594 2.160156 C 7.292969 1.785156 6.738281 1.050781 5.675781 0.789062 C 7.695312 0.753906 7.867188 1.8125 8.378906 2.347656 Z M 8.378906 2.347656 "/>
<path style=" stroke:none;fill-rule:nonzero;fill:rgb(89.803922%,45.09804%,45.09804%);fill-opacity:1;" d="M 8.378906 2.347656 C 7.523438 2.59375 6.539062 1.980469 5.257812 2.347656 C 6.636719 1.523438 7.34375 1.875 7.933594 2.160156 C 7.292969 1.785156 6.738281 1.050781 5.675781 0.789062 C 7.695312 0.753906 7.867188 1.8125 8.378906 2.347656 Z M 8.378906 2.347656 "/>
<path style=" stroke:none;fill-rule:nonzero;fill:rgb(89.803922%,45.09804%,45.09804%);fill-opacity:1;" d="M 8.007812 3.039062 C 8.859375 3.285156 9.84375 2.671875 11.125 3.039062 C 9.746094 2.214844 9.039062 2.570312 8.449219 2.855469 C 9.089844 2.480469 9.644531 1.746094 10.707031 1.480469 C 8.6875 1.449219 8.515625 2.503906 8.007812 3.039062 Z M 8.007812 3.039062 "/>
<path style=" stroke:none;fill-rule:nonzero;fill:rgb(89.803922%,45.09804%,45.09804%);fill-opacity:1;" d="M 8.578125 1.945312 C 3.980469 2.164062 2.445312 3.628906 1.742188 6.078125 L 1.652344 8.394531 C 1.671875 7.769531 2.398438 6.796875 2.644531 6.410156 C 2.644531 7.070312 1.984375 7.730469 1.984375 9.386719 C 2.644531 7.730469 3.636719 6.410156 4.300781 6.078125 C 3.636719 6.738281 3.804688 7.070312 3.804688 7.730469 C 4.132812 7.070312 5.015625 6.523438 5.457031 6.410156 C 5.292969 6.738281 4.960938 7.402344 4.960938 8.0625 C 5.789062 6.410156 6.117188 6.078125 7.109375 5.746094 C 6.78125 6.242188 6.117188 7.234375 5.953125 8.0625 C 6.433594 7.261719 6.988281 6.558594 7.773438 5.914062 C 7.460938 6.320312 7.292969 7.042969 7.109375 7.730469 C 7.484375 6.859375 7.859375 5.980469 8.433594 5.914062 C 7.773438 6.90625 7.773438 7.402344 7.9375 8.226562 C 8.25 7.0625 8.433594 6.410156 8.765625 6.078125 C 8.765625 6.574219 8.765625 6.90625 8.929688 7.402344 C 9.046875 7.09375 9 6.332031 9.261719 6.242188 C 9.425781 6.410156 10.085938 7.234375 10.085938 7.730469 C 10.347656 7.214844 9.839844 6.539062 9.890625 6.234375 L 10.75 7.234375 L 10.617188 6.0625 C 10.730469 6.0625 10.855469 6.0625 10.992188 6.066406 L 11.65625 7.566406 C 11.832031 6.996094 11.824219 6.324219 11.824219 5.996094 C 12.816406 6.738281 12.238281 7.898438 12.238281 8.804688 C 12.355469 8.578125 12.898438 7.070312 12.765625 6.085938 C 13.304688 6.847656 13.09375 7.730469 13.230469 8.558594 C 13.476562 7.8125 13.640625 7.175781 13.382812 6.09375 C 13.890625 6.738281 14.304688 8.722656 14.136719 10.542969 C 14.632812 8.804688 14.632812 7.484375 14.328125 6.078125 C 13.445312 3.683594 11.621094 2.070312 8.578125 1.945312 Z M 8.578125 1.945312 "/>
<path style=" stroke:none;fill-rule:nonzero;fill:rgb(98.039216%,98.039216%,98.039216%);fill-opacity:1;" d="M 8.625 12.304688 C 8.417969 12.304688 8.160156 12.363281 7.808594 12.4375 C 7.808594 12.457031 7.808594 12.476562 7.8125 12.5 C 7.964844 12.53125 8.167969 12.550781 8.390625 12.550781 C 8.648438 12.550781 8.878906 12.523438 9.039062 12.484375 C 9.039062 12.46875 9.039062 12.453125 9.042969 12.4375 C 8.921875 12.34375 8.789062 12.304688 8.625 12.304688 Z M 8.625 12.304688 "/>
</g>
</svg>
