
<svg xmlns="http://www.w3.org/2000/svg" xmlns:xlink="http://www.w3.org/1999/xlink" width="16px" height="16px" viewBox="0 0 16 16" version="1.1">
<g id="surface1">
<path style=" stroke:none;fill-rule:nonzero;fill:rgb(89.803922%,22.352941%,20.784314%);fill-opacity:1;" d="M 7.9375 0.660156 C 5.515625 0.660156 3.273438 1.109375 1.40625 1.875 C 1.761719 9.484375 3.371094 14.074219 7.9375 15.214844 C 12.503906 14.074219 14.113281 9.484375 14.46875 1.875 C 12.601562 1.109375 10.359375 0.660156 7.9375 0.660156 Z M 7.9375 0.660156 "/>
<path style=" stroke:none;fill-rule:nonzero;fill:rgb(96.078432%,96.078432%,96.078432%);fill-opacity:1;" d="M 7.9375 1.679688 C 5.855469 1.679688 3.925781 2.066406 2.320312 2.726562 C 2.625 9.269531 4.011719 13.214844 7.9375 14.195312 C 11.863281 13.214844 13.25 9.269531 13.554688 2.726562 C 11.949219 2.066406 10.019531 1.679688 7.9375 1.679688 Z M 7.9375 1.679688 "/>
<path style=" stroke:none;fill-rule:nonzero;fill:rgb(93.725491%,32.549021%,31.37255%);fill-opacity:1;" d="M 7.9375 1.617188 C 5.835938 1.617188 3.882812 2.007812 2.261719 2.671875 C 2.574219 9.28125 3.972656 13.265625 7.9375 14.257812 C 11.902344 13.265625 13.300781 9.28125 13.613281 2.671875 C 11.992188 2.007812 10.039062 1.617188 7.9375 1.617188 Z M 7.9375 1.617188 "/>
<path style=" stroke:none;fill-rule:nonzero;fill:rgb(96.078432%,96.078432%,96.078432%);fill-opacity:1;" d="M 7.605469 4.300781 L 8.269531 4.300781 C 8.449219 4.300781 8.597656 4.449219 8.597656 4.628906 L 8.597656 7.9375 C 8.597656 8.121094 8.449219 8.269531 8.269531 8.269531 L 7.605469 8.269531 C 7.425781 8.269531 7.277344 8.121094 7.277344 7.9375 L 7.277344 4.628906 C 7.277344 4.449219 7.425781 4.300781 7.605469 4.300781 Z M 7.605469 4.300781 "/>
<path style=" stroke:none;fill-rule:nonzero;fill:rgb(96.078432%,96.078432%,96.078432%);fill-opacity:1;" d="M 7.605469 8.929688 L 8.269531 8.929688 C 8.449219 8.929688 8.597656 9.078125 8.597656 9.261719 L 8.597656 9.921875 C 8.597656 10.105469 8.449219 10.253906 8.269531 10.253906 L 7.605469 10.253906 C 7.425781 10.253906 7.277344 10.105469 7.277344 9.921875 L 7.277344 9.261719 C 7.277344 9.078125 7.425781 8.929688 7.605469 8.929688 Z M 7.605469 8.929688 "/>
</g>
</svg>
