<?xml version="1.0" encoding="UTF-8"?>
<svg xmlns="http://www.w3.org/2000/svg" xmlns:xlink="http://www.w3.org/1999/xlink" width="16px" height="16px" viewBox="0 0 16 16" version="1.1">
<g id="surface1">
<path style=" stroke:none;fill-rule:nonzero;fill:rgb(25.882354%,25.882354%,25.882354%);fill-opacity:1;" d="M 1.324219 0.785156 L 14.550781 0.785156 C 14.917969 0.785156 15.214844 1.082031 15.214844 1.449219 L 15.214844 14.675781 C 15.214844 15.042969 14.917969 15.339844 14.550781 15.339844 L 1.324219 15.339844 C 0.957031 15.339844 0.660156 15.042969 0.660156 14.675781 L 0.660156 1.449219 C 0.660156 1.082031 0.957031 0.785156 1.324219 0.785156 Z M 1.324219 0.785156 "/>
<path style=" stroke:none;fill-rule:nonzero;fill:rgb(56.470591%,79.215688%,97.647059%);fill-opacity:1;" d="M 5.261719 3.910156 C 5.175781 3.910156 5.09375 3.945312 5.035156 4.007812 L 3.164062 5.878906 C 3.035156 6.007812 3.035156 6.214844 3.164062 6.34375 L 6.4375 9.621094 C 6.566406 9.75 6.777344 9.75 6.90625 9.621094 L 7.839844 8.683594 L 8.777344 7.75 C 8.90625 7.621094 8.90625 7.410156 8.777344 7.28125 L 5.503906 4.007812 C 5.4375 3.941406 5.351562 3.910156 5.261719 3.910156 Z M 5.261719 3.910156 "/>
<path style=" stroke:none;fill-rule:nonzero;fill:rgb(25.882354%,64.705884%,96.078432%);fill-opacity:1;" d="M 6.613281 6.410156 C 6.527344 6.410156 6.441406 6.445312 6.378906 6.503906 L 3.105469 9.78125 C 2.976562 9.910156 2.976562 10.117188 3.105469 10.246094 L 4.976562 12.117188 C 5.105469 12.246094 5.316406 12.246094 5.445312 12.117188 L 7.847656 9.714844 L 11.246094 9.714844 C 11.332031 9.714844 11.417969 9.679688 11.480469 9.621094 L 12.800781 8.296875 C 12.929688 8.167969 12.929688 7.957031 12.800781 7.828125 L 11.480469 6.503906 C 11.417969 6.445312 11.332031 6.410156 11.246094 6.410156 Z M 6.613281 6.410156 "/>
</g>
</svg>
