
<svg xmlns="http://www.w3.org/2000/svg" xmlns:xlink="http://www.w3.org/1999/xlink" width="16px" height="16px" viewBox="0 0 16 16" version="1.1">
<defs>
<filter id="alpha" filterUnits="objectBoundingBox" x="0%" y="0%" width="100%" height="100%">
  <feColorMatrix type="matrix" in="SourceGraphic" values="0 0 0 0 1 0 0 0 0 1 0 0 0 0 1 0 0 0 1 0"/>
</filter>
<mask id="mask0">
  <g filter="url(#alpha)">
<rect x="0" y="0" width="16" height="16" style="fill:rgb(0%,0%,0%);fill-opacity:0.986432;stroke:none;"/>
  </g>
</mask>
<clipPath id="clip1">
  <rect x="0" y="0" width="16" height="16"/>
</clipPath>
<g id="surface5" clip-path="url(#clip1)">
<path style=" stroke:none;fill-rule:nonzero;fill:rgb(98.431373%,54.901963%,0%);fill-opacity:1;" d="M 5.621094 7.9375 C 5.546875 8.089844 5.5 8.269531 5.441406 8.425781 L 10.488281 10.160156 C 10.523438 9.96875 10.554688 9.78125 10.582031 9.589844 Z M 5.621094 7.9375 "/>
</g>
<mask id="mask1">
  <g filter="url(#alpha)">
<rect x="0" y="0" width="16" height="16" style="fill:rgb(0%,0%,0%);fill-opacity:0.986432;stroke:none;"/>
  </g>
</mask>
<clipPath id="clip2">
  <rect x="0" y="0" width="16" height="16"/>
</clipPath>
<g id="surface8" clip-path="url(#clip2)">
<path style=" stroke:none;fill-rule:nonzero;fill:rgb(25.882354%,64.705884%,96.078432%);fill-opacity:1;" d="M 4.300781 11.90625 C 5.210938 11.90625 5.953125 12.648438 5.953125 13.558594 C 5.953125 14.472656 5.210938 15.214844 4.300781 15.214844 C 3.386719 15.214844 2.644531 14.472656 2.644531 13.558594 C 2.644531 12.648438 3.386719 11.90625 4.300781 11.90625 Z M 4.300781 11.90625 "/>
</g>
<mask id="mask2">
  <g filter="url(#alpha)">
<rect x="0" y="0" width="16" height="16" style="fill:rgb(0%,0%,0%);fill-opacity:0.986432;stroke:none;"/>
  </g>
</mask>
<clipPath id="clip3">
  <rect x="0" y="0" width="16" height="16"/>
</clipPath>
<g id="surface11" clip-path="url(#clip3)">
<path style=" stroke:none;fill-rule:nonzero;fill:rgb(25.882354%,64.705884%,96.078432%);fill-opacity:1;" d="M 11.410156 12.898438 C 11.867188 12.898438 12.238281 13.269531 12.238281 13.726562 C 12.238281 14.183594 11.867188 14.550781 11.410156 14.550781 C 10.953125 14.550781 10.582031 14.183594 10.582031 13.726562 C 10.582031 13.269531 10.953125 12.898438 11.410156 12.898438 Z M 11.410156 12.898438 "/>
</g>
<mask id="mask3">
  <g filter="url(#alpha)">
<rect x="0" y="0" width="16" height="16" style="fill:rgb(0%,0%,0%);fill-opacity:0.986432;stroke:none;"/>
  </g>
</mask>
<clipPath id="clip4">
  <rect x="0" y="0" width="16" height="16"/>
</clipPath>
<g id="surface14" clip-path="url(#clip4)">
<path style=" stroke:none;fill-rule:nonzero;fill:rgb(25.882354%,64.705884%,96.078432%);fill-opacity:1;" d="M 2.257812 6.863281 C 2.4375 7.285156 2.246094 7.769531 1.824219 7.949219 C 1.40625 8.128906 0.917969 7.933594 0.738281 7.515625 C 0.558594 7.09375 0.753906 6.609375 1.171875 6.429688 C 1.59375 6.25 2.078125 6.445312 2.257812 6.863281 Z M 2.257812 6.863281 "/>
</g>
</defs>
<g id="surface1">
<path style=" stroke:none;fill-rule:nonzero;fill:rgb(100%,65.490198%,14.901961%);fill-opacity:1;" d="M 5.488281 8.285156 L 10.582031 9.589844 C 10.253906 11.90625 9.261719 14.222656 7.9375 15.214844 C 7.9375 15.214844 3.636719 15.214844 1.324219 10.914062 C 2.644531 10.582031 5.078125 9.609375 5.488281 8.285156 Z M 5.488281 8.285156 "/>
<use xlink:href="#surface5" mask="url(#mask0)"/>
<path style=" stroke:none;fill-rule:nonzero;fill:rgb(22.352941%,28.627452%,67.058825%);fill-opacity:1;" d="M 10.265625 0.667969 C 9.914062 0.574219 9.550781 0.78125 9.457031 1.136719 L 7.574219 8.164062 C 7.476562 8.515625 7.6875 8.878906 8.039062 8.972656 C 8.394531 9.066406 8.757812 8.859375 8.851562 8.503906 L 10.734375 1.476562 C 10.828125 1.125 10.621094 0.761719 10.265625 0.667969 Z M 10.265625 0.667969 "/>
<path style=" stroke:none;fill-rule:nonzero;fill:rgb(36.078432%,41.960785%,75.294119%);fill-opacity:1;" d="M 8.726562 6.417969 C 10.140625 6.796875 10.976562 8.242188 10.597656 9.65625 L 5.484375 8.289062 C 5.863281 6.871094 7.308594 6.039062 8.726562 6.417969 Z M 8.726562 6.417969 "/>
<path style=" stroke:none;fill-rule:nonzero;fill:rgb(96.078432%,48.627451%,0%);fill-opacity:1;" d="M 4.859375 10.328125 C 4.003906 11.183594 2.851562 11.671875 1.941406 11.90625 C 2.101562 12.128906 2.265625 12.332031 2.433594 12.523438 C 3.445312 11.980469 4.242188 11.5625 4.859375 10.328125 Z M 6.84375 10.660156 C 5.964844 11.832031 4.511719 13.09375 3.460938 13.503906 C 3.734375 13.722656 4.015625 13.914062 4.289062 14.078125 C 5.171875 13.578125 6.253906 12.128906 6.84375 10.660156 Z M 8.164062 12.3125 C 7.578125 13.492188 6.484375 14.34375 5.738281 14.765625 C 6.054688 14.878906 6.355469 14.964844 6.625 15.027344 C 7.574219 14.136719 8.164062 12.941406 8.164062 12.3125 Z M 8.164062 12.3125 "/>
<path style="fill:none;stroke-width:20;stroke-linecap:butt;stroke-linejoin:miter;stroke:rgb(93.725491%,32.549021%,31.37255%);stroke-opacity:1;stroke-miterlimit:4;" d="M 47.625 15.125 L 137.625 224.25 L 365.125 224.25 " transform="matrix(0.03125,0,0,0.03125,0,6.71875)"/>
<use xlink:href="#surface8" mask="url(#mask1)"/>
<use xlink:href="#surface11" mask="url(#mask2)"/>
<use xlink:href="#surface14" mask="url(#mask3)"/>
</g>
</svg>
