<?xml version="1.0" encoding="UTF-8"?>
<svg xmlns="http://www.w3.org/2000/svg" xmlns:xlink="http://www.w3.org/1999/xlink" width="16px" height="16px" viewBox="0 0 16 16" version="1.1">
<g id="surface1">
<path style=" stroke:none;fill-rule:nonzero;fill:rgb(63.137257%,53.333336%,49.803922%);fill-opacity:1;" d="M 1.324219 0.785156 L 14.550781 0.785156 C 14.917969 0.785156 15.214844 1.082031 15.214844 1.449219 L 15.214844 14.675781 C 15.214844 15.042969 14.917969 15.339844 14.550781 15.339844 L 1.324219 15.339844 C 0.957031 15.339844 0.660156 15.042969 0.660156 14.675781 L 0.660156 1.449219 C 0.660156 1.082031 0.957031 0.785156 1.324219 0.785156 Z M 1.324219 0.785156 "/>
<path style=" stroke:none;fill-rule:nonzero;fill:rgb(73.725492%,66.666669%,64.313728%);fill-opacity:1;" d="M 0.992188 0.785156 L 14.882812 0.785156 C 15.066406 0.785156 15.214844 0.933594 15.214844 1.117188 C 15.214844 1.300781 15.066406 1.449219 14.882812 1.449219 L 0.992188 1.449219 C 0.808594 1.449219 0.660156 1.300781 0.660156 1.117188 C 0.660156 0.933594 0.808594 0.785156 0.992188 0.785156 Z M 0.992188 0.785156 "/>
<path style=" stroke:none;fill-rule:nonzero;fill:rgb(84.313726%,80.000001%,78.431374%);fill-opacity:1;" d="M 6.613281 1.449219 L 9.261719 1.449219 L 9.261719 8.394531 L 11.246094 8.394531 L 7.9375 11.371094 L 4.628906 8.394531 L 6.613281 8.394531 Z M 6.613281 1.449219 "/>
<path style=" stroke:none;fill-rule:nonzero;fill:rgb(84.313726%,80.000001%,78.431374%);fill-opacity:1;" d="M 6.613281 11.039062 L 6.613281 15.339844 L 9.261719 15.339844 L 9.261719 11.039062 L 7.9375 12.195312 Z M 6.613281 11.039062 "/>
<path style=" stroke:none;fill-rule:nonzero;fill:rgb(36.470589%,25.098041%,21.568628%);fill-opacity:1;" d="M 1.984375 13.023438 C 2.351562 13.023438 2.644531 13.320312 2.644531 13.683594 C 2.644531 14.050781 2.351562 14.347656 1.984375 14.347656 C 1.617188 14.347656 1.324219 14.050781 1.324219 13.683594 C 1.324219 13.320312 1.617188 13.023438 1.984375 13.023438 Z M 1.984375 13.023438 "/>
<path style=" stroke:none;fill-rule:nonzero;fill:rgb(36.470589%,25.098041%,21.568628%);fill-opacity:1;" d="M 3.308594 13.023438 L 4.628906 13.023438 L 4.628906 14.347656 L 3.308594 14.347656 Z M 3.308594 13.023438 "/>
<path style=" stroke:none;fill-rule:nonzero;fill:rgb(93.725491%,92.156863%,91.37255%);fill-opacity:1;" d="M 6.613281 1.449219 L 6.78125 0.785156 L 9.09375 0.785156 L 9.261719 1.449219 Z M 6.613281 1.449219 "/>
</g>
</svg>
