
<svg xmlns="http://www.w3.org/2000/svg" xmlns:xlink="http://www.w3.org/1999/xlink" width="16px" height="16px" viewBox="0 0 16 16" version="1.1">
<g id="surface1">
<path style=" stroke:none;fill-rule:nonzero;fill:rgb(74.117649%,74.117649%,74.117649%);fill-opacity:1;" d="M 11.078125 14.550781 L 13.230469 12.402344 L 11.574219 12.402344 C 11.300781 12.402344 11.078125 12.625 11.078125 12.898438 Z M 11.078125 14.550781 "/>
<path style=" stroke:none;fill-rule:nonzero;fill:rgb(61.960787%,61.960787%,61.960787%);fill-opacity:1;" d="M 2.644531 0.660156 L 13.230469 0.660156 C 13.59375 0.660156 13.890625 0.957031 13.890625 1.324219 L 13.890625 14.550781 C 13.890625 14.917969 13.59375 15.214844 13.230469 15.214844 L 2.644531 15.214844 C 2.28125 15.214844 1.984375 14.917969 1.984375 14.550781 L 1.984375 1.324219 C 1.984375 0.957031 2.28125 0.660156 2.644531 0.660156 Z M 2.644531 0.660156 "/>
<path style=" stroke:none;fill-rule:nonzero;fill:rgb(96.078432%,96.078432%,96.078432%);fill-opacity:1;" d="M 2.976562 1.324219 C 2.792969 1.324219 2.644531 1.46875 2.644531 1.652344 L 2.644531 14.222656 C 2.644531 14.40625 2.792969 14.550781 2.976562 14.550781 L 10.582031 14.550781 L 13.230469 11.90625 L 13.230469 1.652344 C 13.230469 1.46875 13.082031 1.324219 12.898438 1.324219 Z M 2.976562 1.324219 "/>
<path style=" stroke:none;fill-rule:nonzero;fill:rgb(25.882354%,25.882354%,25.882354%);fill-opacity:1;" d="M 2.480469 0.660156 C 2.207031 0.660156 1.984375 0.882812 1.984375 1.15625 L 1.984375 3.308594 L 13.890625 3.308594 L 13.890625 1.15625 C 13.890625 0.882812 13.667969 0.660156 13.394531 0.660156 Z M 2.480469 0.660156 "/>
<path style=" stroke:none;fill-rule:nonzero;fill:rgb(25.882354%,25.882354%,25.882354%);fill-opacity:1;" d="M 3.96875 1.652344 C 4.152344 1.652344 4.300781 1.800781 4.300781 1.984375 C 4.300781 2.167969 4.152344 2.316406 3.96875 2.316406 C 3.785156 2.316406 3.636719 2.167969 3.636719 1.984375 C 3.636719 1.800781 3.785156 1.652344 3.96875 1.652344 Z M 3.96875 1.652344 "/>
<path style=" stroke:none;fill-rule:nonzero;fill:rgb(87.843138%,87.843138%,87.843138%);fill-opacity:1;" d="M 3.96875 1.324219 C 3.601562 1.324219 3.308594 1.617188 3.308594 1.984375 C 3.308594 2.351562 3.601562 2.644531 3.96875 2.644531 C 4.335938 2.644531 4.628906 2.351562 4.628906 1.984375 C 4.628906 1.617188 4.335938 1.324219 3.96875 1.324219 Z M 3.96875 1.652344 C 4.152344 1.652344 4.300781 1.800781 4.300781 1.984375 C 4.300781 2.167969 4.152344 2.316406 3.96875 2.316406 C 3.785156 2.316406 3.636719 2.167969 3.636719 1.984375 C 3.636719 1.800781 3.785156 1.652344 3.96875 1.652344 Z M 3.96875 1.652344 "/>
<path style=" stroke:none;fill-rule:nonzero;fill:rgb(25.882354%,25.882354%,25.882354%);fill-opacity:1;" d="M 7.9375 1.652344 C 8.121094 1.652344 8.269531 1.800781 8.269531 1.984375 C 8.269531 2.167969 8.121094 2.316406 7.9375 2.316406 C 7.753906 2.316406 7.605469 2.167969 7.605469 1.984375 C 7.605469 1.800781 7.753906 1.652344 7.9375 1.652344 Z M 7.9375 1.652344 "/>
<path style=" stroke:none;fill-rule:nonzero;fill:rgb(87.843138%,87.843138%,87.843138%);fill-opacity:1;" d="M 7.9375 1.324219 C 7.570312 1.324219 7.277344 1.617188 7.277344 1.984375 C 7.277344 2.351562 7.570312 2.644531 7.9375 2.644531 C 8.304688 2.644531 8.597656 2.351562 8.597656 1.984375 C 8.597656 1.617188 8.304688 1.324219 7.9375 1.324219 Z M 7.9375 1.652344 C 8.121094 1.652344 8.269531 1.800781 8.269531 1.984375 C 8.269531 2.167969 8.121094 2.316406 7.9375 2.316406 C 7.753906 2.316406 7.605469 2.167969 7.605469 1.984375 C 7.605469 1.800781 7.753906 1.652344 7.9375 1.652344 Z M 7.9375 1.652344 "/>
<path style=" stroke:none;fill-rule:nonzero;fill:rgb(25.882354%,25.882354%,25.882354%);fill-opacity:1;" d="M 11.90625 1.652344 C 12.089844 1.652344 12.238281 1.800781 12.238281 1.984375 C 12.238281 2.167969 12.089844 2.316406 11.90625 2.316406 C 11.722656 2.316406 11.574219 2.167969 11.574219 1.984375 C 11.574219 1.800781 11.722656 1.652344 11.90625 1.652344 Z M 11.90625 1.652344 "/>
<path style=" stroke:none;fill-rule:nonzero;fill:rgb(87.843138%,87.843138%,87.843138%);fill-opacity:1;" d="M 11.90625 1.324219 C 11.539062 1.324219 11.246094 1.617188 11.246094 1.984375 C 11.246094 2.351562 11.539062 2.644531 11.90625 2.644531 C 12.273438 2.644531 12.566406 2.351562 12.566406 1.984375 C 12.566406 1.617188 12.273438 1.324219 11.90625 1.324219 Z M 11.90625 1.652344 C 12.089844 1.652344 12.238281 1.800781 12.238281 1.984375 C 12.238281 2.167969 12.089844 2.316406 11.90625 2.316406 C 11.722656 2.316406 11.574219 2.167969 11.574219 1.984375 C 11.574219 1.800781 11.722656 1.652344 11.90625 1.652344 Z M 11.90625 1.652344 "/>
<path style=" stroke:none;fill-rule:nonzero;fill:rgb(74.117649%,74.117649%,74.117649%);fill-opacity:1;" d="M 13.230469 11.90625 L 10.582031 14.550781 L 12.898438 14.550781 C 13.082031 14.550781 13.230469 14.40625 13.230469 14.222656 Z M 13.230469 11.90625 "/>
<path style=" stroke:none;fill-rule:nonzero;fill:rgb(87.843138%,87.843138%,87.843138%);fill-opacity:1;" d="M 10.582031 14.550781 L 13.230469 11.90625 L 10.914062 11.90625 C 10.730469 11.90625 10.582031 12.054688 10.582031 12.238281 Z M 10.582031 14.550781 "/>
<path style=" stroke:none;fill-rule:nonzero;fill:rgb(25.882354%,25.882354%,25.882354%);fill-opacity:1;" d="M 4.628906 5.621094 L 4.628906 6.613281 L 5.292969 6.613281 L 5.292969 6.285156 L 7.277344 6.285156 L 7.277344 10.914062 L 6.613281 10.914062 L 6.613281 11.574219 L 9.261719 11.574219 L 9.261719 10.914062 L 8.597656 10.914062 L 8.597656 6.285156 L 10.582031 6.285156 L 10.582031 6.613281 L 11.246094 6.613281 L 11.246094 5.621094 Z M 4.628906 5.621094 "/>
</g>
</svg>
