
<svg xmlns="http://www.w3.org/2000/svg" xmlns:xlink="http://www.w3.org/1999/xlink" width="16px" height="16px" viewBox="0 0 16 16" version="1.1">
<g id="surface1">
<path style=" stroke:none;fill-rule:nonzero;fill:rgb(74.117649%,74.117649%,74.117649%);fill-opacity:1;" d="M 1.652344 0.660156 L 14.222656 0.660156 C 14.769531 0.660156 15.214844 1.105469 15.214844 1.652344 L 15.214844 14.222656 C 15.214844 14.769531 14.769531 15.214844 14.222656 15.214844 L 1.652344 15.214844 C 1.105469 15.214844 0.660156 14.769531 0.660156 14.222656 L 0.660156 1.652344 C 0.660156 1.105469 1.105469 0.660156 1.652344 0.660156 Z M 1.652344 0.660156 "/>
<path style=" stroke:none;fill-rule:nonzero;fill:rgb(25.882354%,25.882354%,25.882354%);fill-opacity:1;" d="M 9.1875 7.9375 L 11.015625 4.679688 L 11.886719 7.9375 L 11.015625 11.195312 Z M 8.292969 8.742188 L 10.125 11.722656 L 6.933594 10.882812 L 4.628906 8.742188 Z M 10.125 4.152344 L 8.292969 7.664062 L 4.628906 7.664062 L 6.933594 4.992188 Z M 12.738281 6.804688 L 11.621094 2.546875 L 7.453125 3.695312 L 6.835938 4.8125 L 5.582031 4.804688 L 2.527344 7.9375 L 5.582031 11.070312 L 6.832031 11.0625 L 7.453125 12.179688 L 11.621094 13.328125 L 12.738281 9.070312 L 12.171875 7.9375 "/>
</g>
</svg>
