<?xml version="1.0" encoding="UTF-8"?>
<svg xmlns="http://www.w3.org/2000/svg" xmlns:xlink="http://www.w3.org/1999/xlink" width="16px" height="16px" viewBox="0 0 16 16" version="1.1">
<g id="surface1">
<path style=" stroke:none;fill-rule:nonzero;fill:rgb(38.039216%,38.039216%,38.039216%);fill-opacity:1;" d="M 10.582031 0.785156 L 2.644531 0.785156 C 2.28125 0.785156 1.984375 1.082031 1.984375 1.449219 L 1.984375 14.675781 C 1.984375 15.042969 2.28125 15.339844 2.644531 15.339844 L 13.230469 15.339844 C 13.59375 15.339844 13.890625 15.042969 13.890625 14.675781 L 13.890625 4.09375 Z M 10.582031 0.785156 "/>
<path style=" stroke:none;fill-rule:nonzero;fill:rgb(25.882354%,25.882354%,25.882354%);fill-opacity:1;" d="M 13.890625 4.09375 L 10.582031 0.785156 L 10.582031 3.433594 C 10.582031 3.796875 10.878906 4.09375 11.246094 4.09375 Z M 13.890625 4.09375 "/>
<path style=" stroke:none;fill-rule:nonzero;fill:rgb(93.725491%,32.549021%,31.37255%);fill-opacity:1;" d="M 6.117188 4.425781 L 7.773438 4.425781 C 7.863281 4.425781 7.9375 4.5 7.9375 4.589844 C 7.9375 4.679688 7.863281 4.753906 7.773438 4.753906 L 6.117188 4.753906 C 6.027344 4.753906 5.953125 4.679688 5.953125 4.589844 C 5.953125 4.5 6.027344 4.425781 6.117188 4.425781 Z M 6.117188 4.425781 "/>
<path style=" stroke:none;fill-rule:nonzero;fill:rgb(96.078432%,96.078432%,96.078432%);fill-opacity:1;" d="M 6.105469 8.089844 L 11.09375 8.089844 C 11.175781 8.089844 11.246094 8.15625 11.246094 8.242188 C 11.246094 8.324219 11.175781 8.394531 11.09375 8.394531 L 6.105469 8.394531 C 6.019531 8.394531 5.953125 8.324219 5.953125 8.242188 C 5.953125 8.15625 6.019531 8.089844 6.105469 8.089844 Z M 6.105469 8.089844 "/>
<path style=" stroke:none;fill-rule:nonzero;fill:rgb(96.078432%,96.078432%,96.078432%);fill-opacity:1;" d="M 6.117188 10.707031 L 10.417969 10.707031 C 10.507812 10.707031 10.582031 10.78125 10.582031 10.875 C 10.582031 10.964844 10.507812 11.039062 10.417969 11.039062 L 6.117188 11.039062 C 6.027344 11.039062 5.953125 10.964844 5.953125 10.875 C 5.953125 10.78125 6.027344 10.707031 6.117188 10.707031 Z M 6.117188 10.707031 "/>
<path style=" stroke:none;fill-rule:nonzero;fill:rgb(25.882354%,64.705884%,96.078432%);fill-opacity:1;" d="M 4.628906 7.070312 C 4.996094 7.070312 5.292969 7.367188 5.292969 7.730469 C 5.292969 8.097656 4.996094 8.394531 4.628906 8.394531 C 4.265625 8.394531 3.96875 8.097656 3.96875 7.730469 C 3.96875 7.367188 4.265625 7.070312 4.628906 7.070312 Z M 4.628906 7.070312 "/>
<path style=" stroke:none;fill-rule:nonzero;fill:rgb(25.882354%,64.705884%,96.078432%);fill-opacity:1;" d="M 4.628906 9.714844 C 4.996094 9.714844 5.292969 10.011719 5.292969 10.378906 C 5.292969 10.742188 4.996094 11.039062 4.628906 11.039062 C 4.265625 11.039062 3.96875 10.742188 3.96875 10.378906 C 3.96875 10.011719 4.265625 9.714844 4.628906 9.714844 Z M 4.628906 9.714844 "/>
<path style=" stroke:none;fill-rule:nonzero;fill:rgb(93.725491%,32.549021%,31.37255%);fill-opacity:1;" d="M 4.628906 4.402344 C 4.40625 4.402344 4.179688 4.476562 4.015625 4.636719 C 3.984375 4.667969 3.96875 4.710938 3.96875 4.753906 C 3.96875 4.976562 4.066406 5.179688 4.183594 5.351562 C 4.296875 5.523438 4.414062 5.660156 4.554688 5.730469 C 4.601562 5.753906 4.65625 5.753906 4.703125 5.730469 C 4.847656 5.660156 4.964844 5.523438 5.078125 5.351562 C 5.191406 5.179688 5.292969 4.976562 5.292969 4.753906 C 5.292969 4.710938 5.273438 4.667969 5.242188 4.636719 C 5.082031 4.476562 4.851562 4.402344 4.628906 4.402344 Z M 4.628906 4.402344 "/>
<path style=" stroke:none;fill-rule:nonzero;fill:rgb(96.078432%,96.078432%,96.078432%);fill-opacity:1;" d="M 6.117188 5.417969 L 9.425781 5.417969 C 9.515625 5.417969 9.589844 5.492188 9.589844 5.582031 C 9.589844 5.671875 9.515625 5.746094 9.425781 5.746094 L 6.117188 5.746094 C 6.027344 5.746094 5.953125 5.671875 5.953125 5.582031 C 5.953125 5.492188 6.027344 5.417969 6.117188 5.417969 Z M 6.117188 5.417969 "/>
<path style=" stroke:none;fill-rule:nonzero;fill:rgb(25.882354%,64.705884%,96.078432%);fill-opacity:1;" d="M 6.117188 7.070312 L 7.773438 7.070312 C 7.863281 7.070312 7.9375 7.144531 7.9375 7.234375 C 7.9375 7.328125 7.863281 7.402344 7.773438 7.402344 L 6.117188 7.402344 C 6.027344 7.402344 5.953125 7.328125 5.953125 7.234375 C 5.953125 7.144531 6.027344 7.070312 6.117188 7.070312 Z M 6.117188 7.070312 "/>
<path style=" stroke:none;fill-rule:nonzero;fill:rgb(25.882354%,64.705884%,96.078432%);fill-opacity:1;" d="M 6.117188 9.714844 L 7.773438 9.714844 C 7.863281 9.714844 7.9375 9.789062 7.9375 9.882812 C 7.9375 9.972656 7.863281 10.046875 7.773438 10.046875 L 6.117188 10.046875 C 6.027344 10.046875 5.953125 9.972656 5.953125 9.882812 C 5.953125 9.789062 6.027344 9.714844 6.117188 9.714844 Z M 6.117188 9.714844 "/>
<path style=" stroke:none;fill-rule:nonzero;fill:rgb(96.078432%,96.078432%,96.078432%);fill-opacity:1;" d="M 8.433594 7.402344 L 11.742188 7.402344 C 11.832031 7.402344 11.90625 7.328125 11.90625 7.234375 C 11.90625 7.144531 11.832031 7.070312 11.742188 7.070312 L 8.433594 7.070312 C 8.34375 7.070312 8.269531 7.144531 8.269531 7.234375 C 8.269531 7.328125 8.34375 7.402344 8.433594 7.402344 Z M 8.433594 7.402344 "/>
<path style=" stroke:none;fill-rule:nonzero;fill:rgb(96.078432%,96.078432%,96.078432%);fill-opacity:1;" d="M 8.433594 4.753906 L 11.742188 4.753906 C 11.832031 4.753906 11.90625 4.679688 11.90625 4.589844 C 11.90625 4.5 11.832031 4.425781 11.742188 4.425781 L 8.433594 4.425781 C 8.34375 4.425781 8.269531 4.5 8.269531 4.589844 C 8.269531 4.679688 8.34375 4.753906 8.433594 4.753906 Z M 8.433594 4.753906 "/>
<path style=" stroke:none;fill-rule:nonzero;fill:rgb(96.078432%,96.078432%,96.078432%);fill-opacity:1;" d="M 8.433594 10.046875 L 11.742188 10.046875 C 11.832031 10.046875 11.90625 9.972656 11.90625 9.882812 C 11.90625 9.789062 11.832031 9.714844 11.742188 9.714844 L 8.433594 9.714844 C 8.34375 9.714844 8.269531 9.789062 8.269531 9.882812 C 8.269531 9.972656 8.34375 10.046875 8.433594 10.046875 Z M 8.433594 10.046875 "/>
</g>
</svg>
