
<svg xmlns="http://www.w3.org/2000/svg" xmlns:xlink="http://www.w3.org/1999/xlink" width="16px" height="16px" viewBox="0 0 16 16" version="1.1">
<g id="surface1">
<path style=" stroke:none;fill-rule:nonzero;fill:rgb(95.686275%,31.764707%,11.764706%);fill-opacity:1;" d="M 3.09375 10.914062 L 12.78125 10.914062 C 13.058594 10.914062 13.3125 11.066406 13.445312 11.308594 L 15 14.15625 C 15.140625 14.417969 15.214844 14.707031 15.214844 15 C 15.148438 15.183594 14.949219 15.277344 14.765625 15.214844 L 1.109375 15.214844 C 0.863281 15.214844 0.660156 15.011719 0.660156 14.765625 C 0.679688 14.546875 0.753906 14.339844 0.875 14.15625 L 2.429688 11.308594 C 2.5625 11.066406 2.816406 10.914062 3.09375 10.914062 Z M 3.09375 10.914062 "/>
<path style=" stroke:none;fill-rule:nonzero;fill:rgb(100%,43.921569%,26.274511%);fill-opacity:1;" d="M 7.9375 0.621094 C 7.679688 0.621094 7.421875 0.757812 7.324219 1.039062 L 3.308594 12.464844 C 3.269531 12.519531 3.25 12.570312 3.25 12.625 C 3.25 13.195312 5.339844 13.652344 7.9375 13.652344 C 10.535156 13.652344 12.625 13.195312 12.625 12.625 C 12.625 12.570312 12.605469 12.519531 12.566406 12.464844 L 8.550781 1.039062 C 8.453125 0.757812 8.195312 0.621094 7.9375 0.621094 Z M 7.9375 0.621094 "/>
<path style=" stroke:none;fill-rule:nonzero;fill:rgb(98.039216%,98.039216%,98.039216%);fill-opacity:1;" d="M 6.511719 3.347656 L 5.582031 5.996094 C 6.273438 6.082031 7.078125 6.132812 7.9375 6.132812 C 8.796875 6.132812 9.601562 6.082031 10.292969 5.996094 L 9.363281 3.347656 C 8.914062 3.378906 8.433594 3.398438 7.9375 3.398438 C 7.441406 3.398438 6.960938 3.378906 6.511719 3.347656 Z M 4.785156 8.257812 L 3.90625 10.757812 C 4.722656 11.058594 6.21875 11.257812 7.9375 11.257812 C 9.65625 11.257812 11.152344 11.058594 11.96875 10.757812 L 11.089844 8.257812 C 10.257812 8.425781 9.152344 8.523438 7.9375 8.523438 C 6.722656 8.523438 5.617188 8.425781 4.785156 8.257812 Z M 4.785156 8.257812 "/>
<path style=" stroke:none;fill-rule:nonzero;fill:rgb(100%,43.921569%,26.274511%);fill-opacity:1;" d="M 0.992188 14.550781 L 14.882812 14.550781 C 15.066406 14.550781 15.214844 14.699219 15.214844 14.882812 C 15.214844 15.066406 15.066406 15.214844 14.882812 15.214844 L 0.992188 15.214844 C 0.808594 15.214844 0.660156 15.066406 0.660156 14.882812 C 0.660156 14.699219 0.808594 14.550781 0.992188 14.550781 Z M 0.992188 14.550781 "/>
</g>
</svg>
