<?xml version="1.0" encoding="UTF-8"?>
<svg xmlns="http://www.w3.org/2000/svg" xmlns:xlink="http://www.w3.org/1999/xlink" width="16px" height="16px" viewBox="0 0 16 16" version="1.1">
<g id="surface1">
<path style=" stroke:none;fill-rule:nonzero;fill:rgb(93.333334%,93.333334%,93.333334%);fill-opacity:1;" d="M 10.582031 0.785156 L 2.644531 0.785156 C 2.28125 0.785156 1.984375 1.082031 1.984375 1.449219 L 1.984375 14.675781 C 1.984375 15.042969 2.28125 15.339844 2.644531 15.339844 L 13.230469 15.339844 C 13.59375 15.339844 13.890625 15.042969 13.890625 14.675781 L 13.890625 4.09375 Z M 10.582031 0.785156 "/>
<path style=" stroke:none;fill-rule:nonzero;fill:rgb(61.960787%,61.960787%,61.960787%);fill-opacity:1;" d="M 3.769531 6.675781 C 3.554688 6.800781 3.480469 7.070312 3.605469 7.285156 L 6.738281 12.714844 C 6.863281 12.929688 7.136719 13 7.351562 12.878906 L 12.003906 10.191406 C 12.21875 10.066406 12.292969 9.796875 12.167969 9.582031 L 9.035156 4.152344 C 8.910156 3.9375 8.636719 3.863281 8.421875 3.988281 Z M 4.800781 7.113281 L 8.289062 5.101562 C 8.394531 5.039062 8.53125 5.074219 8.59375 5.183594 L 9.269531 6.351562 C 9.332031 6.460938 9.296875 6.597656 9.1875 6.660156 L 5.699219 8.671875 C 5.589844 8.734375 5.457031 8.699219 5.394531 8.589844 L 4.71875 7.421875 C 4.65625 7.3125 4.691406 7.175781 4.800781 7.113281 Z M 6.046875 9.5 L 6.53125 9.21875 C 6.585938 9.191406 6.652344 9.207031 6.683594 9.261719 L 6.910156 9.648438 C 6.941406 9.703125 6.921875 9.769531 6.867188 9.800781 L 6.382812 10.082031 C 6.328125 10.113281 6.261719 10.09375 6.230469 10.039062 L 6.007812 9.652344 C 5.976562 9.597656 5.992188 9.53125 6.046875 9.5 Z M 7.113281 8.886719 L 7.597656 8.605469 C 7.652344 8.574219 7.71875 8.59375 7.75 8.644531 L 7.976562 9.035156 C 8.003906 9.085938 7.988281 9.15625 7.933594 9.1875 L 7.449219 9.464844 C 7.394531 9.496094 7.328125 9.480469 7.296875 9.425781 L 7.074219 9.039062 C 7.042969 8.984375 7.058594 8.914062 7.113281 8.886719 Z M 8.179688 8.269531 L 8.664062 7.988281 C 8.71875 7.957031 8.785156 7.976562 8.816406 8.03125 L 9.039062 8.417969 C 9.070312 8.472656 9.054688 8.539062 9 8.570312 L 8.515625 8.851562 C 8.460938 8.882812 8.394531 8.863281 8.363281 8.808594 L 8.136719 8.421875 C 8.109375 8.367188 8.125 8.300781 8.179688 8.269531 Z M 9.246094 7.652344 L 9.730469 7.375 C 9.785156 7.34375 9.851562 7.359375 9.882812 7.414062 L 10.105469 7.800781 C 10.136719 7.855469 10.121094 7.925781 10.066406 7.957031 L 9.582031 8.234375 C 9.527344 8.265625 9.460938 8.25 9.429688 8.195312 L 9.203125 7.808594 C 9.171875 7.753906 9.191406 7.683594 9.246094 7.652344 Z M 6.550781 10.371094 L 7.035156 10.09375 C 7.089844 10.0625 7.15625 10.082031 7.1875 10.132812 L 7.414062 10.523438 C 7.441406 10.574219 7.425781 10.644531 7.371094 10.675781 L 6.886719 10.953125 C 6.832031 10.984375 6.765625 10.96875 6.734375 10.914062 L 6.511719 10.527344 C 6.480469 10.472656 6.496094 10.402344 6.550781 10.371094 Z M 7.617188 9.757812 L 8.101562 9.476562 C 8.15625 9.445312 8.222656 9.464844 8.253906 9.519531 L 8.476562 9.90625 C 8.507812 9.960938 8.492188 10.027344 8.4375 10.058594 L 7.953125 10.339844 C 7.898438 10.371094 7.832031 10.351562 7.800781 10.296875 L 7.574219 9.910156 C 7.546875 9.855469 7.5625 9.789062 7.617188 9.757812 Z M 8.683594 9.140625 L 9.167969 8.863281 C 9.222656 8.832031 9.289062 8.847656 9.320312 8.902344 L 9.542969 9.289062 C 9.574219 9.34375 9.558594 9.414062 9.503906 9.445312 L 9.019531 9.722656 C 8.964844 9.753906 8.898438 9.734375 8.867188 9.683594 L 8.640625 9.292969 C 8.609375 9.242188 8.628906 9.171875 8.683594 9.140625 Z M 9.75 8.527344 L 10.234375 8.246094 C 10.289062 8.214844 10.355469 8.234375 10.386719 8.289062 L 10.609375 8.675781 C 10.640625 8.730469 10.625 8.796875 10.570312 8.828125 L 10.085938 9.109375 C 10.03125 9.136719 9.964844 9.121094 9.933594 9.066406 L 9.707031 8.679688 C 9.675781 8.625 9.695312 8.558594 9.75 8.527344 Z M 7.054688 11.246094 L 7.539062 10.964844 C 7.59375 10.933594 7.660156 10.953125 7.691406 11.007812 L 7.914062 11.394531 C 7.945312 11.449219 7.929688 11.515625 7.875 11.546875 L 7.390625 11.828125 C 7.335938 11.859375 7.269531 11.839844 7.238281 11.785156 L 7.011719 11.398438 C 6.984375 11.34375 7 11.277344 7.054688 11.246094 Z M 8.121094 10.628906 L 8.605469 10.351562 C 8.660156 10.320312 8.726562 10.335938 8.757812 10.390625 L 8.980469 10.777344 C 9.011719 10.832031 8.996094 10.898438 8.941406 10.929688 L 8.457031 11.210938 C 8.402344 11.242188 8.335938 11.222656 8.304688 11.171875 L 8.078125 10.78125 C 8.046875 10.730469 8.066406 10.660156 8.121094 10.628906 Z M 9.1875 10.015625 L 9.671875 9.734375 C 9.726562 9.703125 9.792969 9.722656 9.824219 9.773438 L 10.046875 10.164062 C 10.078125 10.214844 10.0625 10.285156 10.007812 10.316406 L 9.523438 10.59375 C 9.46875 10.625 9.402344 10.609375 9.371094 10.554688 L 9.144531 10.167969 C 9.113281 10.113281 9.132812 10.042969 9.1875 10.015625 Z M 10.253906 9.398438 L 10.738281 9.117188 C 10.792969 9.085938 10.859375 9.105469 10.890625 9.160156 L 11.113281 9.546875 C 11.144531 9.601562 11.125 9.667969 11.074219 9.699219 L 10.589844 9.980469 C 10.535156 10.011719 10.464844 9.992188 10.4375 9.9375 L 10.210938 9.550781 C 10.179688 9.496094 10.199219 9.429688 10.253906 9.398438 Z M 10.253906 9.398438 "/>
<path style=" stroke:none;fill-rule:nonzero;fill:rgb(40.000001%,73.333335%,41.568628%);fill-opacity:1;" d="M 13.890625 4.09375 L 10.582031 0.785156 L 10.582031 3.433594 C 10.582031 3.796875 10.878906 4.09375 11.246094 4.09375 Z M 13.890625 4.09375 "/>
<path style=" stroke:none;fill-rule:nonzero;fill:rgb(40.000001%,73.333335%,41.568628%);fill-opacity:1;" d="M 1.984375 8.394531 L 13.890625 8.394531 L 13.890625 12.363281 L 1.984375 12.363281 Z M 1.984375 8.394531 "/>
</g>
</svg>
