<?xml version="1.0" encoding="UTF-8"?>
<svg xmlns="http://www.w3.org/2000/svg" xmlns:xlink="http://www.w3.org/1999/xlink" width="16px" height="16px" viewBox="0 0 16 16" version="1.1">
<g id="surface1">
<path style=" stroke:none;fill-rule:nonzero;fill:rgb(25.882354%,25.882354%,25.882354%);fill-opacity:1;" d="M 1.324219 0.785156 L 14.550781 0.785156 C 14.917969 0.785156 15.214844 1.082031 15.214844 1.449219 L 15.214844 14.675781 C 15.214844 15.042969 14.917969 15.339844 14.550781 15.339844 L 1.324219 15.339844 C 0.957031 15.339844 0.660156 15.042969 0.660156 14.675781 L 0.660156 1.449219 C 0.660156 1.082031 0.957031 0.785156 1.324219 0.785156 Z M 1.324219 0.785156 "/>
<path style=" stroke:none;fill-rule:nonzero;fill:rgb(38.039216%,38.039216%,38.039216%);fill-opacity:1;" d="M 7.9375 1.117188 C 11.773438 1.117188 14.882812 4.226562 14.882812 8.0625 C 14.882812 11.898438 11.773438 15.007812 7.9375 15.007812 C 4.101562 15.007812 0.992188 11.898438 0.992188 8.0625 C 0.992188 4.226562 4.101562 1.117188 7.9375 1.117188 Z M 7.9375 1.117188 "/>
<path style=" stroke:none;fill-rule:nonzero;fill:rgb(87.843138%,87.843138%,87.843138%);fill-opacity:1;" d="M 7.9375 1.777344 C 11.40625 1.777344 14.222656 4.59375 14.222656 8.0625 C 14.222656 11.53125 11.40625 14.347656 7.9375 14.347656 C 4.46875 14.347656 1.652344 11.53125 1.652344 8.0625 C 1.652344 4.59375 4.46875 1.777344 7.9375 1.777344 Z M 7.9375 1.777344 "/>
<path style=" stroke:none;fill-rule:nonzero;fill:rgb(92.54902%,25.098041%,47.843137%);fill-opacity:1;" d="M 11.914062 4.085938 C 11.535156 3.707031 11.113281 3.394531 10.667969 3.144531 L 7.9375 8.0625 L 12.855469 5.332031 C 12.605469 4.886719 12.292969 4.464844 11.914062 4.085938 Z M 11.914062 4.085938 "/>
<path style=" stroke:none;fill-rule:nonzero;fill:rgb(61.176473%,80.000001%,39.607844%);fill-opacity:1;" d="M 3.960938 12.039062 C 3.582031 11.660156 3.269531 11.238281 3.019531 10.792969 L 7.9375 8.0625 L 5.207031 12.980469 C 4.761719 12.730469 4.339844 12.417969 3.960938 12.039062 Z M 3.960938 12.039062 "/>
<path style=" stroke:none;fill-rule:nonzero;fill:rgb(93.725491%,32.549021%,31.37255%);fill-opacity:1;" d="M 13.558594 8.0625 C 13.558594 7.527344 13.484375 7.007812 13.347656 6.515625 L 7.9375 8.0625 L 13.347656 9.609375 C 13.484375 9.117188 13.558594 8.597656 13.558594 8.0625 Z M 13.558594 8.0625 "/>
<path style=" stroke:none;fill-rule:nonzero;fill:rgb(0%,58.823532%,53.333336%);fill-opacity:1;" d="M 2.316406 8.0625 C 2.316406 7.527344 2.390625 7.007812 2.527344 6.515625 L 7.9375 8.0625 L 2.527344 9.609375 C 2.390625 9.117188 2.316406 8.597656 2.316406 8.0625 Z M 2.316406 8.0625 "/>
<path style=" stroke:none;fill-rule:nonzero;fill:rgb(100%,43.921569%,26.274511%);fill-opacity:1;" d="M 11.914062 12.039062 C 12.292969 11.660156 12.605469 11.238281 12.855469 10.792969 L 7.9375 8.0625 L 10.667969 12.980469 C 11.113281 12.730469 11.535156 12.417969 11.914062 12.039062 Z M 11.914062 12.039062 "/>
<path style=" stroke:none;fill-rule:nonzero;fill:rgb(25.882354%,64.705884%,96.078432%);fill-opacity:1;" d="M 3.960938 4.085938 C 4.339844 3.707031 4.761719 3.394531 5.207031 3.144531 L 7.9375 8.0625 L 3.019531 5.332031 C 3.269531 4.886719 3.582031 4.464844 3.960938 4.085938 Z M 3.960938 4.085938 "/>
<path style=" stroke:none;fill-rule:nonzero;fill:rgb(100%,65.490198%,14.901961%);fill-opacity:1;" d="M 7.9375 13.683594 C 8.472656 13.683594 8.992188 13.609375 9.484375 13.472656 L 7.9375 8.0625 L 6.390625 13.472656 C 6.882812 13.609375 7.402344 13.683594 7.9375 13.683594 Z M 7.9375 13.683594 "/>
<path style=" stroke:none;fill-rule:nonzero;fill:rgb(67.058825%,27.843139%,73.725492%);fill-opacity:1;" d="M 7.9375 2.441406 C 8.472656 2.441406 8.992188 2.515625 9.484375 2.652344 L 7.9375 8.0625 L 6.390625 2.652344 C 6.882812 2.515625 7.402344 2.441406 7.9375 2.441406 Z M 7.9375 2.441406 "/>
<path style=" stroke:none;fill-rule:nonzero;fill:rgb(25.882354%,25.882354%,25.882354%);fill-opacity:1;" d="M 7.9375 6.738281 C 8.667969 6.738281 9.261719 7.332031 9.261719 8.0625 C 9.261719 8.792969 8.667969 9.386719 7.9375 9.386719 C 7.207031 9.386719 6.613281 8.792969 6.613281 8.0625 C 6.613281 7.332031 7.207031 6.738281 7.9375 6.738281 Z M 7.9375 6.738281 "/>
<path style=" stroke:none;fill-rule:nonzero;fill:rgb(45.882353%,45.882353%,45.882353%);fill-opacity:1;" d="M 7.9375 7.402344 C 8.304688 7.402344 8.597656 7.695312 8.597656 8.0625 C 8.597656 8.429688 8.304688 8.722656 7.9375 8.722656 C 7.570312 8.722656 7.277344 8.429688 7.277344 8.0625 C 7.277344 7.695312 7.570312 7.402344 7.9375 7.402344 Z M 7.9375 7.402344 "/>
</g>
</svg>
