
<svg xmlns="http://www.w3.org/2000/svg" xmlns:xlink="http://www.w3.org/1999/xlink" width="16px" height="16px" viewBox="0 0 16 16" version="1.1">
<g id="surface1">
<path style=" stroke:none;fill-rule:nonzero;fill:rgb(69.01961%,74.509805%,77.254903%);fill-opacity:1;" d="M 1.984375 0.660156 L 5.621094 7.9375 L 0.660156 15.214844 L 5.292969 15.214844 L 7.582031 11.855469 L 9.261719 15.214844 L 13.890625 15.214844 L 10.253906 7.9375 L 15.214844 0.660156 L 10.582031 0.660156 L 8.292969 4.019531 L 6.613281 0.660156 Z M 1.984375 0.660156 "/>
<path style=" stroke:none;fill-rule:nonzero;fill:rgb(69.01961%,74.509805%,77.254903%);fill-opacity:1;" d="M 2.644531 1.117188 L 6.285156 8.0625 L 1.652344 14.675781 L 4.960938 14.675781 L 7.605469 10.707031 L 9.589844 14.675781 L 12.898438 14.675781 L 9.589844 8.0625 L 13.890625 1.449219 L 10.914062 1.449219 L 8.269531 5.417969 L 5.953125 1.117188 Z M 2.644531 1.117188 "/>
<path style=" stroke:none;fill-rule:nonzero;fill:rgb(56.470591%,64.313728%,68.235296%);fill-opacity:1;" d="M 10.476562 8.332031 L 4.050781 10.28125 L 0.6875 15.214844 L 5.316406 15.214844 L 7.605469 11.855469 L 9.285156 15.214844 L 13.917969 15.214844 Z M 10.476562 8.332031 "/>
<path style=" stroke:none;fill-rule:nonzero;fill:rgb(37.64706%,49.019608%,54.509807%);fill-opacity:1;" d="M 2.976562 1.324219 L 6.285156 7.9375 L 1.652344 14.550781 L 4.960938 14.550781 L 7.605469 10.582031 L 9.589844 14.550781 L 12.898438 14.550781 L 9.589844 7.9375 L 13.890625 1.324219 L 10.914062 1.324219 L 8.269531 5.292969 L 6.285156 1.324219 Z M 2.976562 1.324219 "/>
</g>
</svg>
