<?xml version="1.0" encoding="UTF-8"?>
<svg xmlns="http://www.w3.org/2000/svg" xmlns:xlink="http://www.w3.org/1999/xlink" width="24px" height="24px" viewBox="0 0 24 24" version="1.1">
<g id="surface1">
<path style=" stroke:none;fill-rule:nonzero;fill:rgb(87.843138%,87.843138%,87.843138%);fill-opacity:1;" d="M 0.992188 6.636719 L 0.992188 15.566406 C 0.992188 16.117188 1.433594 16.558594 1.984375 16.558594 L 17.363281 16.558594 C 17.914062 16.558594 18.355469 16.117188 18.355469 15.566406 L 18.355469 6.636719 Z M 0.992188 6.636719 "/>
<path style=" stroke:none;fill-rule:nonzero;fill:rgb(93.333334%,93.333334%,93.333334%);fill-opacity:1;" d="M 1.488281 6.636719 L 1.488281 15.566406 C 1.488281 15.839844 1.710938 16.0625 1.984375 16.0625 L 17.363281 16.0625 C 17.636719 16.0625 17.859375 15.839844 17.859375 15.566406 L 17.859375 6.636719 Z M 1.488281 6.636719 "/>
<path style=" stroke:none;fill-rule:nonzero;fill:rgb(25.882354%,25.882354%,25.882354%);fill-opacity:1;" d="M 1.984375 2.667969 C 1.433594 2.667969 0.992188 3.109375 0.992188 3.660156 L 0.992188 6.636719 L 18.355469 6.636719 L 18.355469 3.660156 C 18.355469 3.109375 17.914062 2.667969 17.363281 2.667969 Z M 1.984375 2.667969 "/>
<path style=" stroke:none;fill-rule:nonzero;fill:rgb(93.725491%,32.549021%,31.37255%);fill-opacity:1;" d="M 17.042969 3.601562 C 17.140625 3.695312 17.140625 3.855469 17.042969 3.949219 L 15.289062 5.703125 C 15.191406 5.800781 15.035156 5.800781 14.9375 5.703125 C 14.839844 5.609375 14.839844 5.449219 14.9375 5.355469 L 16.691406 3.601562 C 16.789062 3.503906 16.945312 3.503906 17.042969 3.601562 Z M 17.042969 3.601562 "/>
<path style=" stroke:none;fill-rule:nonzero;fill:rgb(93.725491%,32.549021%,31.37255%);fill-opacity:1;" d="M 17.042969 5.703125 C 16.945312 5.800781 16.789062 5.800781 16.691406 5.703125 L 14.9375 3.949219 C 14.839844 3.855469 14.839844 3.695312 14.9375 3.601562 C 15.035156 3.503906 15.191406 3.503906 15.289062 3.601562 L 17.042969 5.355469 C 17.140625 5.449219 17.140625 5.609375 17.042969 5.703125 Z M 17.042969 5.703125 "/>
<path style=" stroke:none;fill-rule:nonzero;fill:rgb(16.078432%,71.372551%,96.470588%);fill-opacity:1;" d="M 0.992188 6.636719 L 18.355469 6.636719 L 18.355469 6.882812 L 0.992188 6.882812 Z M 0.992188 6.636719 "/>
<path style=" stroke:none;fill-rule:nonzero;fill:rgb(87.843138%,87.843138%,87.843138%);fill-opacity:1;" d="M 2.976562 9.117188 L 2.976562 18.046875 C 2.976562 18.597656 3.417969 19.039062 3.96875 19.039062 L 19.347656 19.039062 C 19.898438 19.039062 20.339844 18.597656 20.339844 18.046875 L 20.339844 9.117188 Z M 2.976562 9.117188 "/>
<path style=" stroke:none;fill-rule:nonzero;fill:rgb(93.333334%,93.333334%,93.333334%);fill-opacity:1;" d="M 3.472656 9.117188 L 3.472656 18.046875 C 3.472656 18.320312 3.695312 18.542969 3.96875 18.542969 L 19.347656 18.542969 C 19.621094 18.542969 19.84375 18.320312 19.84375 18.046875 L 19.84375 9.117188 Z M 3.472656 9.117188 "/>
<path style=" stroke:none;fill-rule:nonzero;fill:rgb(25.882354%,25.882354%,25.882354%);fill-opacity:1;" d="M 3.96875 5.148438 C 3.417969 5.148438 2.976562 5.589844 2.976562 6.140625 L 2.976562 9.117188 L 20.339844 9.117188 L 20.339844 6.140625 C 20.339844 5.589844 19.898438 5.148438 19.347656 5.148438 Z M 3.96875 5.148438 "/>
<path style=" stroke:none;fill-rule:nonzero;fill:rgb(93.725491%,32.549021%,31.37255%);fill-opacity:1;" d="M 19.027344 6.082031 C 19.125 6.175781 19.125 6.335938 19.027344 6.429688 L 17.273438 8.183594 C 17.175781 8.28125 17.019531 8.28125 16.921875 8.183594 C 16.824219 8.089844 16.824219 7.929688 16.921875 7.835938 L 18.675781 6.082031 C 18.773438 5.984375 18.929688 5.984375 19.027344 6.082031 Z M 19.027344 6.082031 "/>
<path style=" stroke:none;fill-rule:nonzero;fill:rgb(93.725491%,32.549021%,31.37255%);fill-opacity:1;" d="M 19.027344 8.183594 C 18.929688 8.28125 18.773438 8.28125 18.675781 8.183594 L 16.921875 6.429688 C 16.824219 6.335938 16.824219 6.175781 16.921875 6.082031 C 17.019531 5.984375 17.175781 5.984375 17.273438 6.082031 L 19.027344 7.835938 C 19.125 7.929688 19.125 8.089844 19.027344 8.183594 Z M 19.027344 8.183594 "/>
<path style=" stroke:none;fill-rule:nonzero;fill:rgb(16.078432%,71.372551%,96.470588%);fill-opacity:1;" d="M 2.976562 9.117188 L 20.339844 9.117188 L 20.339844 9.367188 L 2.976562 9.367188 Z M 2.976562 9.117188 "/>
<path style=" stroke:none;fill-rule:nonzero;fill:rgb(87.843138%,87.843138%,87.843138%);fill-opacity:1;" d="M 5.457031 11.597656 L 5.457031 20.527344 C 5.457031 21.078125 5.898438 21.519531 6.449219 21.519531 L 21.828125 21.519531 C 22.378906 21.519531 22.820312 21.078125 22.820312 20.527344 L 22.820312 11.597656 Z M 5.457031 11.597656 "/>
<path style=" stroke:none;fill-rule:nonzero;fill:rgb(93.333334%,93.333334%,93.333334%);fill-opacity:1;" d="M 5.953125 11.597656 L 5.953125 20.527344 C 5.953125 20.800781 6.175781 21.023438 6.449219 21.023438 L 21.828125 21.023438 C 22.101562 21.023438 22.324219 20.800781 22.324219 20.527344 L 22.324219 11.597656 Z M 5.953125 11.597656 "/>
<path style=" stroke:none;fill-rule:nonzero;fill:rgb(25.882354%,25.882354%,25.882354%);fill-opacity:1;" d="M 6.449219 7.628906 C 5.898438 7.628906 5.457031 8.070312 5.457031 8.621094 L 5.457031 11.597656 L 22.820312 11.597656 L 22.820312 8.621094 C 22.820312 8.070312 22.378906 7.628906 21.828125 7.628906 Z M 6.449219 7.628906 "/>
<path style=" stroke:none;fill-rule:nonzero;fill:rgb(93.725491%,32.549021%,31.37255%);fill-opacity:1;" d="M 21.507812 8.5625 C 21.605469 8.65625 21.605469 8.816406 21.507812 8.910156 L 19.753906 10.664062 C 19.65625 10.761719 19.5 10.761719 19.402344 10.664062 C 19.304688 10.570312 19.304688 10.410156 19.402344 10.316406 L 21.15625 8.5625 C 21.253906 8.464844 21.410156 8.464844 21.507812 8.5625 Z M 21.507812 8.5625 "/>
<path style=" stroke:none;fill-rule:nonzero;fill:rgb(93.725491%,32.549021%,31.37255%);fill-opacity:1;" d="M 21.507812 10.664062 C 21.410156 10.761719 21.253906 10.761719 21.15625 10.664062 L 19.402344 8.910156 C 19.304688 8.816406 19.304688 8.65625 19.402344 8.5625 C 19.5 8.464844 19.65625 8.464844 19.753906 8.5625 L 21.507812 10.316406 C 21.605469 10.410156 21.605469 10.570312 21.507812 10.664062 Z M 21.507812 10.664062 "/>
<path style=" stroke:none;fill-rule:nonzero;fill:rgb(16.078432%,71.372551%,96.470588%);fill-opacity:1;" d="M 5.457031 11.597656 L 22.820312 11.597656 L 22.820312 11.84375 L 5.457031 11.84375 Z M 5.457031 11.597656 "/>
</g>
</svg>
