<?xml version="1.0" encoding="UTF-8"?>
<svg xmlns="http://www.w3.org/2000/svg" xmlns:xlink="http://www.w3.org/1999/xlink" width="24px" height="24px" viewBox="0 0 24 24" version="1.1">
<g id="surface1">
<path style=" stroke:none;fill-rule:nonzero;fill:rgb(100%,71.764708%,30.19608%);fill-opacity:1;" d="M 11.90625 1.179688 C 8.710938 1.179688 5.84375 2.539062 3.851562 4.714844 L 4.582031 5.292969 L 12.070312 11.953125 L 20.171875 4.953125 C 18.175781 2.640625 15.21875 1.179688 11.90625 1.179688 Z M 3.851562 4.714844 C 3.824219 4.746094 3.796875 4.773438 3.769531 4.804688 C 3.796875 4.773438 3.824219 4.746094 3.851562 4.714844 Z M 3.765625 4.808594 C 3.738281 4.839844 3.710938 4.867188 3.6875 4.898438 C 3.710938 4.867188 3.738281 4.839844 3.765625 4.808594 Z M 3.683594 4.902344 C 3.660156 4.929688 3.632812 4.960938 3.605469 4.992188 C 3.632812 4.960938 3.660156 4.929688 3.683594 4.902344 Z M 3.601562 4.996094 C 3.578125 5.027344 3.550781 5.054688 3.523438 5.085938 C 3.550781 5.054688 3.578125 5.027344 3.601562 4.996094 Z M 3.523438 5.085938 C 3.472656 5.152344 3.421875 5.214844 3.371094 5.277344 C 3.421875 5.214844 3.472656 5.152344 3.523438 5.085938 Z M 3.371094 5.277344 C 3.113281 5.601562 2.875 5.9375 2.652344 6.285156 C 2.875 5.9375 3.113281 5.601562 3.371094 5.277344 Z M 20.402344 5.230469 C 20.421875 5.25 20.4375 5.273438 20.457031 5.292969 C 20.4375 5.273438 20.421875 5.25 20.402344 5.230469 Z M 20.484375 5.328125 C 20.5 5.347656 20.511719 5.367188 20.527344 5.386719 C 20.511719 5.367188 20.5 5.347656 20.484375 5.328125 Z M 20.558594 5.425781 C 20.574219 5.445312 20.589844 5.464844 20.605469 5.484375 C 20.589844 5.464844 20.574219 5.445312 20.558594 5.425781 Z M 20.632812 5.523438 C 20.648438 5.542969 20.664062 5.566406 20.679688 5.585938 C 20.664062 5.566406 20.648438 5.542969 20.632812 5.523438 Z M 20.707031 5.625 C 20.722656 5.644531 20.738281 5.664062 20.753906 5.6875 C 20.738281 5.664062 20.722656 5.644531 20.707031 5.625 Z M 20.777344 5.71875 C 20.792969 5.742188 20.808594 5.765625 20.824219 5.785156 C 20.808594 5.765625 20.792969 5.742188 20.777344 5.71875 Z M 20.847656 5.816406 C 20.863281 5.839844 20.878906 5.867188 20.898438 5.890625 C 20.878906 5.867188 20.863281 5.839844 20.847656 5.816406 Z M 21.097656 6.191406 C 21.109375 6.210938 21.125 6.234375 21.140625 6.253906 C 21.125 6.234375 21.109375 6.210938 21.097656 6.191406 Z M 2.652344 6.285156 C 2.632812 6.320312 2.609375 6.355469 2.589844 6.390625 C 2.609375 6.355469 2.632812 6.320312 2.652344 6.285156 Z M 21.164062 6.296875 C 21.179688 6.316406 21.191406 6.339844 21.203125 6.359375 C 21.191406 6.339844 21.179688 6.316406 21.164062 6.296875 Z M 2.589844 6.390625 C 2.566406 6.425781 2.546875 6.460938 2.527344 6.492188 C 2.546875 6.460938 2.566406 6.425781 2.589844 6.390625 Z M 21.230469 6.402344 C 21.242188 6.421875 21.253906 6.445312 21.269531 6.464844 C 21.253906 6.445312 21.242188 6.421875 21.230469 6.402344 Z M 2.523438 6.5 C 2.503906 6.535156 2.484375 6.566406 2.464844 6.597656 C 2.484375 6.566406 2.503906 6.535156 2.523438 6.5 Z M 21.292969 6.507812 C 21.308594 6.53125 21.320312 6.550781 21.332031 6.574219 C 21.320312 6.550781 21.308594 6.53125 21.292969 6.507812 Z M 2.460938 6.609375 C 2.441406 6.640625 2.421875 6.671875 2.40625 6.703125 C 2.421875 6.671875 2.441406 6.640625 2.460938 6.609375 Z M 21.359375 6.617188 C 21.371094 6.636719 21.382812 6.660156 21.394531 6.679688 C 21.382812 6.660156 21.371094 6.636719 21.359375 6.617188 Z M 2.394531 6.722656 C 2.378906 6.753906 2.363281 6.78125 2.34375 6.8125 C 2.363281 6.78125 2.378906 6.753906 2.394531 6.722656 Z M 21.421875 6.730469 C 21.433594 6.75 21.441406 6.769531 21.453125 6.785156 C 21.441406 6.769531 21.433594 6.75 21.421875 6.730469 Z M 2.332031 6.832031 C 2.316406 6.863281 2.300781 6.890625 2.285156 6.921875 C 2.300781 6.890625 2.316406 6.863281 2.332031 6.832031 Z M 21.484375 6.839844 C 21.492188 6.859375 21.503906 6.878906 21.515625 6.898438 C 21.503906 6.878906 21.492188 6.859375 21.484375 6.839844 Z M 2.273438 6.945312 C 2.257812 6.976562 2.242188 7.003906 2.226562 7.035156 C 2.242188 7.003906 2.257812 6.976562 2.273438 6.945312 Z M 21.542969 6.949219 C 21.554688 6.96875 21.5625 6.988281 21.574219 7.007812 C 21.5625 6.988281 21.554688 6.96875 21.542969 6.949219 Z M 2.214844 7.050781 C 2.199219 7.085938 2.183594 7.117188 2.167969 7.148438 C 2.183594 7.117188 2.199219 7.085938 2.214844 7.050781 Z M 2.160156 7.160156 C 2.144531 7.195312 2.128906 7.226562 2.109375 7.261719 C 2.128906 7.226562 2.144531 7.195312 2.160156 7.160156 Z M 21.683594 7.226562 C 21.695312 7.246094 21.707031 7.269531 21.714844 7.289062 C 21.707031 7.269531 21.695312 7.246094 21.683594 7.226562 Z M 2.105469 7.269531 C 2.089844 7.304688 2.070312 7.339844 2.054688 7.375 C 2.070312 7.339844 2.089844 7.304688 2.105469 7.269531 Z M 2.054688 7.375 C 1.964844 7.5625 1.882812 7.753906 1.800781 7.949219 C 1.882812 7.753906 1.964844 7.5625 2.054688 7.375 Z M 1.800781 7.949219 C 1.789062 7.980469 1.773438 8.011719 1.761719 8.046875 C 1.773438 8.011719 1.789062 7.980469 1.800781 7.949219 Z M 21.742188 7.339844 C 21.75 7.359375 21.761719 7.382812 21.769531 7.402344 C 21.761719 7.382812 21.75 7.359375 21.742188 7.339844 Z M 21.792969 7.453125 C 21.804688 7.472656 21.8125 7.496094 21.824219 7.515625 C 21.8125 7.496094 21.804688 7.472656 21.792969 7.453125 Z M 21.847656 7.570312 C 21.855469 7.589844 21.867188 7.609375 21.875 7.628906 C 21.867188 7.609375 21.855469 7.589844 21.847656 7.570312 Z M 21.898438 7.683594 C 21.90625 7.703125 21.917969 7.722656 21.925781 7.746094 C 21.917969 7.722656 21.90625 7.703125 21.898438 7.683594 Z M 21.949219 7.800781 C 21.957031 7.820312 21.964844 7.839844 21.976562 7.859375 C 21.964844 7.839844 21.957031 7.820312 21.949219 7.800781 Z M 22 7.917969 C 22.007812 7.9375 22.015625 7.957031 22.023438 7.976562 C 22.015625 7.957031 22.007812 7.9375 22 7.917969 Z M 22.046875 8.035156 C 22.054688 8.054688 22.0625 8.074219 22.070312 8.09375 C 22.0625 8.074219 22.054688 8.054688 22.046875 8.035156 Z M 1.753906 8.066406 C 1.742188 8.097656 1.730469 8.125 1.71875 8.152344 C 1.730469 8.125 1.742188 8.097656 1.753906 8.066406 Z M 22.09375 8.160156 C 22.101562 8.179688 22.109375 8.195312 22.117188 8.214844 C 22.109375 8.195312 22.101562 8.179688 22.09375 8.160156 Z M 1.707031 8.1875 C 1.695312 8.214844 1.683594 8.246094 1.675781 8.273438 C 1.683594 8.246094 1.695312 8.214844 1.707031 8.1875 Z M 1.664062 8.308594 C 1.652344 8.335938 1.640625 8.363281 1.632812 8.390625 C 1.640625 8.363281 1.652344 8.335938 1.664062 8.308594 Z M 22.15625 8.328125 C 22.164062 8.347656 22.171875 8.371094 22.179688 8.390625 C 22.171875 8.371094 22.164062 8.347656 22.15625 8.328125 Z M 1.617188 8.429688 C 1.609375 8.457031 1.597656 8.484375 1.589844 8.511719 C 1.597656 8.484375 1.609375 8.457031 1.617188 8.429688 Z M 22.199219 8.449219 C 22.207031 8.46875 22.214844 8.488281 22.222656 8.507812 C 22.214844 8.488281 22.207031 8.46875 22.199219 8.449219 Z M 1.574219 8.550781 C 1.566406 8.578125 1.558594 8.605469 1.550781 8.632812 C 1.558594 8.605469 1.566406 8.578125 1.574219 8.550781 Z M 22.242188 8.570312 C 22.25 8.589844 22.257812 8.609375 22.261719 8.628906 C 22.257812 8.609375 22.25 8.589844 22.242188 8.570312 Z M 1.535156 8.675781 C 1.527344 8.703125 1.515625 8.726562 1.507812 8.753906 C 1.515625 8.726562 1.527344 8.703125 1.535156 8.675781 Z M 22.28125 8.6875 C 22.289062 8.710938 22.296875 8.730469 22.300781 8.75 C 22.296875 8.730469 22.289062 8.710938 22.28125 8.6875 Z M 1.492188 8.800781 C 1.484375 8.828125 1.476562 8.851562 1.472656 8.875 C 1.476562 8.851562 1.484375 8.828125 1.492188 8.800781 Z M 22.324219 8.8125 C 22.328125 8.832031 22.335938 8.851562 22.339844 8.871094 C 22.335938 8.851562 22.328125 8.832031 22.324219 8.8125 Z M 1.457031 8.925781 C 1.449219 8.949219 1.441406 8.976562 1.433594 9 C 1.441406 8.976562 1.449219 8.949219 1.457031 8.925781 Z M 22.359375 8.9375 C 22.367188 8.957031 22.371094 8.976562 22.378906 8.992188 C 22.371094 8.976562 22.367188 8.957031 22.359375 8.9375 Z M 1.417969 9.050781 C 1.410156 9.074219 1.40625 9.101562 1.398438 9.125 C 1.40625 9.101562 1.410156 9.074219 1.417969 9.050781 Z M 22.398438 9.0625 C 22.402344 9.082031 22.40625 9.101562 22.414062 9.117188 C 22.40625 9.101562 22.402344 9.082031 22.398438 9.0625 Z M 1.382812 9.175781 C 1.375 9.203125 1.371094 9.226562 1.363281 9.25 C 1.371094 9.226562 1.375 9.203125 1.382812 9.175781 Z M 22.433594 9.1875 C 22.4375 9.207031 22.441406 9.222656 22.445312 9.242188 C 22.441406 9.222656 22.4375 9.207031 22.433594 9.1875 Z M 1.351562 9.300781 C 1.34375 9.328125 1.335938 9.351562 1.332031 9.378906 C 1.335938 9.351562 1.34375 9.328125 1.351562 9.300781 Z M 22.464844 9.3125 C 22.46875 9.332031 22.476562 9.351562 22.480469 9.367188 C 22.476562 9.351562 22.46875 9.332031 22.464844 9.3125 Z M 1.316406 9.429688 C 1.3125 9.453125 1.304688 9.480469 1.300781 9.503906 C 1.304688 9.480469 1.3125 9.453125 1.316406 9.429688 Z M 1.285156 9.558594 C 1.28125 9.582031 1.273438 9.605469 1.269531 9.632812 C 1.273438 9.605469 1.28125 9.582031 1.285156 9.558594 Z M 22.539062 9.617188 C 22.542969 9.632812 22.546875 9.648438 22.550781 9.664062 C 22.546875 9.648438 22.542969 9.632812 22.539062 9.617188 Z M 1.257812 9.683594 C 1.25 9.710938 1.246094 9.734375 1.238281 9.761719 C 1.246094 9.734375 1.25 9.710938 1.257812 9.683594 Z M 22.570312 9.742188 C 22.574219 9.761719 22.574219 9.777344 22.578125 9.796875 C 22.574219 9.777344 22.574219 9.761719 22.570312 9.742188 Z M 22.59375 9.871094 C 22.597656 9.886719 22.601562 9.90625 22.605469 9.925781 C 22.601562 9.90625 22.597656 9.886719 22.59375 9.871094 Z M 1.214844 9.886719 C 1.210938 9.90625 1.207031 9.929688 1.199219 9.949219 C 1.207031 9.929688 1.210938 9.90625 1.214844 9.886719 Z M 22.621094 10 C 22.625 10.019531 22.628906 10.035156 22.632812 10.054688 C 22.628906 10.035156 22.625 10.019531 22.621094 10 Z M 1.1875 10.015625 C 1.183594 10.035156 1.179688 10.058594 1.175781 10.078125 C 1.179688 10.058594 1.183594 10.035156 1.1875 10.015625 Z M 22.644531 10.125 C 22.648438 10.144531 22.652344 10.164062 22.65625 10.183594 C 22.652344 10.164062 22.648438 10.144531 22.644531 10.125 Z M 1.164062 10.148438 C 1.160156 10.167969 1.15625 10.1875 1.152344 10.207031 C 1.15625 10.1875 1.160156 10.167969 1.164062 10.148438 Z M 22.667969 10.257812 C 22.671875 10.277344 22.675781 10.292969 22.675781 10.3125 C 22.675781 10.292969 22.671875 10.277344 22.667969 10.257812 Z M 1.140625 10.277344 C 1.136719 10.300781 1.132812 10.320312 1.132812 10.34375 C 1.132812 10.320312 1.136719 10.300781 1.140625 10.277344 Z M 22.6875 10.386719 C 22.691406 10.40625 22.695312 10.425781 22.699219 10.445312 C 22.695312 10.425781 22.691406 10.40625 22.6875 10.386719 Z M 1.121094 10.40625 C 1.117188 10.429688 1.113281 10.453125 1.109375 10.476562 C 1.113281 10.453125 1.117188 10.429688 1.121094 10.40625 Z M 22.707031 10.523438 C 22.710938 10.539062 22.714844 10.554688 22.714844 10.574219 C 22.714844 10.554688 22.710938 10.539062 22.707031 10.523438 Z M 1.101562 10.542969 C 1.097656 10.5625 1.09375 10.585938 1.09375 10.605469 C 1.09375 10.585938 1.097656 10.5625 1.101562 10.542969 Z M 22.726562 10.664062 C 22.730469 10.675781 22.730469 10.691406 22.734375 10.703125 C 22.730469 10.691406 22.730469 10.675781 22.726562 10.664062 Z M 1.082031 10.675781 C 1.082031 10.695312 1.078125 10.71875 1.074219 10.738281 C 1.078125 10.71875 1.082031 10.695312 1.082031 10.675781 Z M 1.066406 10.808594 C 1.0625 10.828125 1.0625 10.851562 1.058594 10.871094 C 1.0625 10.851562 1.0625 10.828125 1.066406 10.808594 Z M 22.75 10.832031 C 22.75 10.847656 22.75 10.859375 22.753906 10.875 C 22.75 10.859375 22.75 10.847656 22.75 10.832031 Z M 1.050781 10.941406 C 1.050781 10.964844 1.046875 10.984375 1.046875 11.003906 C 1.046875 10.984375 1.050781 10.964844 1.050781 10.941406 Z M 22.761719 10.964844 C 22.765625 10.980469 22.765625 10.996094 22.769531 11.011719 C 22.765625 10.996094 22.765625 10.980469 22.761719 10.964844 Z M 1.039062 11.078125 C 1.035156 11.097656 1.035156 11.117188 1.03125 11.140625 C 1.035156 11.117188 1.035156 11.097656 1.039062 11.078125 Z M 22.777344 11.097656 C 22.777344 11.113281 22.777344 11.132812 22.78125 11.152344 C 22.777344 11.132812 22.777344 11.113281 22.777344 11.097656 Z M 1.027344 11.214844 C 1.023438 11.234375 1.023438 11.253906 1.023438 11.273438 C 1.023438 11.253906 1.023438 11.234375 1.027344 11.214844 Z M 22.785156 11.230469 C 22.789062 11.25 22.789062 11.269531 22.792969 11.285156 C 22.789062 11.269531 22.789062 11.25 22.785156 11.230469 Z M 1.015625 11.347656 C 1.015625 11.371094 1.015625 11.390625 1.011719 11.410156 C 1.015625 11.390625 1.015625 11.371094 1.015625 11.347656 Z M 22.796875 11.363281 C 22.796875 11.382812 22.796875 11.402344 22.800781 11.421875 C 22.796875 11.402344 22.796875 11.382812 22.796875 11.363281 Z M 1.007812 11.484375 C 1.007812 11.507812 1.007812 11.527344 1.003906 11.546875 C 1.007812 11.527344 1.007812 11.507812 1.007812 11.484375 Z M 22.804688 11.5 C 22.804688 11.515625 22.804688 11.535156 22.808594 11.554688 C 22.804688 11.535156 22.804688 11.515625 22.804688 11.5 Z M 1.003906 11.621094 C 1 11.640625 1 11.664062 1 11.683594 C 1 11.664062 1 11.640625 1.003906 11.621094 Z M 22.8125 11.632812 C 22.8125 11.652344 22.8125 11.671875 22.8125 11.691406 C 22.8125 11.671875 22.8125 11.652344 22.8125 11.632812 Z M 0.996094 11.765625 C 0.996094 11.785156 0.996094 11.800781 0.996094 11.816406 C 0.996094 11.800781 0.996094 11.785156 0.996094 11.765625 Z M 22.816406 11.769531 C 22.816406 11.789062 22.816406 11.804688 22.816406 11.824219 C 22.816406 11.804688 22.816406 11.789062 22.816406 11.769531 Z M 0.992188 11.914062 C 0.992188 11.929688 0.992188 11.941406 0.992188 11.957031 C 0.992188 11.941406 0.992188 11.929688 0.992188 11.914062 Z M 22.820312 11.917969 C 22.820312 11.933594 22.820312 11.945312 22.820312 11.957031 C 22.820312 11.945312 22.820312 11.933594 22.820312 11.917969 Z M 0.992188 12.09375 C 0.992188 12.140625 0.992188 12.183594 0.992188 12.230469 C 0.992188 12.183594 0.992188 12.140625 0.992188 12.09375 Z M 0.992188 12.269531 C 0.996094 12.300781 0.996094 12.332031 0.996094 12.363281 C 0.996094 12.332031 0.996094 12.300781 0.992188 12.269531 Z M 0.996094 12.417969 C 0.996094 12.441406 1 12.46875 1 12.496094 C 1 12.46875 0.996094 12.441406 0.996094 12.417969 Z M 1 12.554688 C 1.003906 12.582031 1.003906 12.605469 1.003906 12.632812 C 1.003906 12.605469 1.003906 12.582031 1 12.554688 Z M 1.007812 12.6875 C 1.007812 12.714844 1.011719 12.742188 1.011719 12.765625 C 1.011719 12.742188 1.007812 12.714844 1.007812 12.6875 Z M 1.015625 12.824219 C 1.019531 12.851562 1.019531 12.875 1.019531 12.902344 C 1.019531 12.875 1.019531 12.851562 1.015625 12.824219 Z M 1.027344 12.957031 C 1.027344 12.984375 1.03125 13.011719 1.03125 13.035156 C 1.03125 13.011719 1.027344 12.984375 1.027344 12.957031 Z M 1.035156 13.089844 C 1.039062 13.117188 1.042969 13.148438 1.042969 13.175781 C 1.042969 13.148438 1.039062 13.117188 1.035156 13.089844 Z M 1.050781 13.222656 C 1.050781 13.25 1.054688 13.28125 1.058594 13.3125 C 1.054688 13.28125 1.050781 13.25 1.050781 13.222656 Z M 1.0625 13.355469 C 1.070312 13.398438 1.074219 13.441406 1.078125 13.484375 C 1.074219 13.441406 1.070312 13.398438 1.0625 13.355469 Z M 1.085938 13.523438 C 1.089844 13.554688 1.09375 13.585938 1.097656 13.613281 C 1.09375 13.585938 1.089844 13.554688 1.085938 13.523438 Z M 1.105469 13.664062 C 1.109375 13.691406 1.109375 13.71875 1.113281 13.742188 C 1.109375 13.71875 1.109375 13.691406 1.105469 13.664062 Z M 1.125 13.800781 C 1.128906 13.824219 1.132812 13.851562 1.136719 13.875 C 1.132812 13.851562 1.128906 13.824219 1.125 13.800781 Z M 1.144531 13.929688 C 1.148438 13.953125 1.152344 13.980469 1.15625 14.003906 C 1.152344 13.980469 1.148438 13.953125 1.144531 13.929688 Z M 1.167969 14.0625 C 1.171875 14.085938 1.175781 14.109375 1.179688 14.132812 C 1.175781 14.109375 1.171875 14.085938 1.167969 14.0625 Z M 1.191406 14.1875 C 1.195312 14.214844 1.199219 14.238281 1.207031 14.261719 C 1.199219 14.238281 1.195312 14.214844 1.191406 14.1875 Z M 1.21875 14.316406 C 1.222656 14.34375 1.226562 14.367188 1.234375 14.390625 C 1.226562 14.367188 1.222656 14.34375 1.21875 14.316406 Z M 1.242188 14.445312 C 1.25 14.472656 1.253906 14.496094 1.261719 14.523438 C 1.253906 14.496094 1.25 14.472656 1.242188 14.445312 Z M 1.273438 14.570312 C 1.28125 14.609375 1.289062 14.652344 1.300781 14.691406 C 1.289062 14.652344 1.28125 14.609375 1.273438 14.570312 Z M 1.304688 14.707031 C 1.3125 14.746094 1.324219 14.78125 1.332031 14.820312 C 1.324219 14.78125 1.3125 14.746094 1.304688 14.707031 Z M 1.347656 14.875 C 1.351562 14.898438 1.359375 14.921875 1.367188 14.945312 C 1.359375 14.921875 1.351562 14.898438 1.347656 14.875 Z M 1.378906 15 C 1.386719 15.023438 1.394531 15.046875 1.398438 15.070312 C 1.394531 15.046875 1.386719 15.023438 1.378906 15 Z M 1.414062 15.125 C 1.421875 15.148438 1.429688 15.171875 1.433594 15.191406 C 1.429688 15.171875 1.421875 15.148438 1.414062 15.125 Z M 1.453125 15.25 C 1.457031 15.273438 1.464844 15.292969 1.472656 15.316406 C 1.464844 15.292969 1.457031 15.273438 1.453125 15.25 Z M 1.488281 15.375 C 1.496094 15.394531 1.503906 15.414062 1.511719 15.4375 C 1.503906 15.414062 1.496094 15.394531 1.488281 15.375 Z M 1.53125 15.5 C 1.535156 15.519531 1.542969 15.539062 1.550781 15.558594 C 1.542969 15.539062 1.535156 15.519531 1.53125 15.5 Z M 1.570312 15.617188 C 1.578125 15.636719 1.582031 15.660156 1.589844 15.679688 C 1.582031 15.660156 1.578125 15.636719 1.570312 15.617188 Z M 1.613281 15.738281 C 1.617188 15.757812 1.625 15.777344 1.632812 15.796875 C 1.625 15.777344 1.617188 15.757812 1.613281 15.738281 Z M 1.65625 15.859375 C 1.667969 15.898438 1.683594 15.9375 1.695312 15.972656 C 1.683594 15.9375 1.667969 15.898438 1.65625 15.859375 Z M 1.71875 16.027344 C 1.726562 16.046875 1.734375 16.070312 1.742188 16.09375 C 1.734375 16.070312 1.726562 16.046875 1.71875 16.027344 Z M 1.765625 16.152344 C 1.773438 16.171875 1.78125 16.191406 1.789062 16.210938 C 1.78125 16.191406 1.773438 16.171875 1.765625 16.152344 Z M 1.8125 16.269531 C 1.820312 16.289062 1.828125 16.308594 1.835938 16.328125 C 1.828125 16.308594 1.820312 16.289062 1.8125 16.269531 Z M 1.863281 16.386719 C 1.871094 16.40625 1.878906 16.425781 1.886719 16.441406 C 1.878906 16.425781 1.871094 16.40625 1.863281 16.386719 Z M 1.914062 16.503906 C 1.921875 16.523438 1.929688 16.539062 1.9375 16.558594 C 1.929688 16.539062 1.921875 16.523438 1.914062 16.503906 Z M 1.964844 16.617188 C 1.972656 16.636719 1.980469 16.65625 1.988281 16.671875 C 1.980469 16.65625 1.972656 16.636719 1.964844 16.617188 Z M 2.019531 16.734375 C 2.027344 16.75 2.035156 16.769531 2.042969 16.785156 C 2.035156 16.769531 2.027344 16.75 2.019531 16.734375 Z M 2.070312 16.847656 C 2.082031 16.863281 2.089844 16.882812 2.097656 16.898438 C 2.089844 16.882812 2.082031 16.863281 2.070312 16.847656 Z M 2.128906 16.960938 C 2.132812 16.972656 2.136719 16.980469 2.144531 16.992188 C 2.136719 16.980469 2.132812 16.972656 2.128906 16.960938 Z M 2.21875 17.136719 C 2.222656 17.152344 2.230469 17.164062 2.238281 17.179688 C 2.230469 17.164062 2.222656 17.152344 2.21875 17.136719 Z M 2.273438 17.242188 C 2.28125 17.257812 2.289062 17.273438 2.296875 17.289062 C 2.289062 17.273438 2.28125 17.257812 2.273438 17.242188 Z M 2.332031 17.351562 C 2.339844 17.367188 2.347656 17.382812 2.359375 17.398438 C 2.347656 17.382812 2.339844 17.367188 2.332031 17.351562 Z M 2.390625 17.457031 C 2.402344 17.476562 2.410156 17.492188 2.417969 17.507812 C 2.410156 17.492188 2.402344 17.476562 2.390625 17.457031 Z M 2.453125 17.570312 C 2.464844 17.585938 2.472656 17.601562 2.480469 17.613281 C 2.472656 17.601562 2.464844 17.585938 2.453125 17.570312 Z M 2.519531 17.679688 C 2.527344 17.691406 2.535156 17.707031 2.542969 17.722656 C 2.535156 17.707031 2.527344 17.691406 2.519531 17.679688 Z M 2.582031 17.785156 C 2.589844 17.800781 2.601562 17.8125 2.609375 17.828125 C 2.601562 17.8125 2.589844 17.800781 2.582031 17.785156 Z M 2.648438 17.890625 C 2.65625 17.90625 2.664062 17.917969 2.671875 17.933594 C 2.664062 17.917969 2.65625 17.90625 2.648438 17.890625 Z M 2.714844 17.996094 C 2.71875 18.003906 2.726562 18.015625 2.730469 18.023438 C 2.726562 18.015625 2.71875 18.003906 2.714844 17.996094 Z M 2.964844 18.371094 C 2.972656 18.378906 2.980469 18.390625 2.988281 18.402344 C 2.980469 18.390625 2.972656 18.378906 2.964844 18.371094 Z M 3.035156 18.46875 C 3.042969 18.476562 3.050781 18.488281 3.058594 18.5 C 3.050781 18.488281 3.042969 18.476562 3.035156 18.46875 Z M 3.105469 18.5625 C 3.113281 18.578125 3.125 18.589844 3.132812 18.601562 C 3.125 18.589844 3.113281 18.578125 3.105469 18.5625 Z M 3.175781 18.660156 C 3.1875 18.675781 3.199219 18.691406 3.207031 18.703125 C 3.199219 18.691406 3.1875 18.675781 3.175781 18.660156 Z M 3.253906 18.761719 C 3.261719 18.773438 3.273438 18.789062 3.285156 18.800781 C 3.273438 18.789062 3.261719 18.773438 3.253906 18.761719 Z M 3.328125 18.859375 C 3.339844 18.871094 3.347656 18.882812 3.355469 18.894531 C 3.347656 18.882812 3.339844 18.871094 3.328125 18.859375 Z M 3.410156 18.957031 C 3.414062 18.964844 3.417969 18.96875 3.421875 18.976562 C 3.417969 18.96875 3.414062 18.964844 3.410156 18.957031 Z M 3.410156 18.957031 "/>
<path style=" stroke:none;fill-rule:nonzero;fill:rgb(94.117647%,38.431373%,57.254905%);fill-opacity:1;" d="M 3.851562 4.714844 C 2.074219 6.65625 0.992188 9.242188 0.992188 12.09375 C 0.992188 14.828125 1.988281 17.324219 3.640625 19.234375 L 12.070312 11.953125 L 4.582031 5.292969 Z M 3.640625 19.234375 C 3.703125 19.304688 3.765625 19.378906 3.828125 19.445312 C 3.765625 19.378906 3.703125 19.304688 3.640625 19.234375 Z M 3.835938 19.453125 C 3.863281 19.488281 3.894531 19.519531 3.925781 19.550781 C 3.894531 19.519531 3.863281 19.488281 3.835938 19.453125 Z M 3.933594 19.5625 C 3.960938 19.589844 3.988281 19.621094 4.019531 19.648438 C 3.988281 19.621094 3.960938 19.589844 3.933594 19.5625 Z M 4.042969 19.675781 C 4.066406 19.699219 4.089844 19.722656 4.113281 19.75 C 4.089844 19.722656 4.066406 19.699219 4.042969 19.675781 Z M 4.140625 19.777344 C 4.164062 19.800781 4.1875 19.824219 4.210938 19.847656 C 4.1875 19.824219 4.164062 19.800781 4.140625 19.777344 Z M 4.242188 19.875 C 4.265625 19.898438 4.289062 19.921875 4.3125 19.945312 C 4.289062 19.921875 4.265625 19.898438 4.242188 19.875 Z M 4.339844 19.972656 C 4.367188 19.996094 4.390625 20.019531 4.414062 20.042969 C 4.390625 20.019531 4.367188 19.996094 4.339844 19.972656 Z M 4.441406 20.070312 C 4.46875 20.09375 4.496094 20.117188 4.523438 20.144531 C 4.496094 20.117188 4.46875 20.09375 4.441406 20.070312 Z M 4.542969 20.164062 C 4.570312 20.1875 4.601562 20.214844 4.628906 20.242188 C 4.601562 20.214844 4.570312 20.1875 4.542969 20.164062 Z M 19.203125 20.222656 C 19.203125 20.222656 19.203125 20.226562 19.199219 20.226562 C 19.203125 20.226562 19.203125 20.222656 19.203125 20.222656 Z M 4.648438 20.257812 C 4.679688 20.289062 4.714844 20.316406 4.75 20.347656 C 4.714844 20.316406 4.679688 20.289062 4.648438 20.257812 Z M 4.75 20.347656 C 4.824219 20.410156 4.894531 20.472656 4.96875 20.53125 C 4.894531 20.472656 4.824219 20.410156 4.75 20.347656 Z M 4.980469 20.542969 C 5.011719 20.566406 5.042969 20.59375 5.074219 20.617188 C 5.042969 20.59375 5.011719 20.566406 4.980469 20.542969 Z M 5.101562 20.636719 C 5.128906 20.660156 5.15625 20.683594 5.183594 20.703125 C 5.15625 20.683594 5.128906 20.660156 5.101562 20.636719 Z M 5.210938 20.726562 C 5.238281 20.746094 5.265625 20.769531 5.292969 20.789062 C 5.265625 20.769531 5.238281 20.746094 5.210938 20.726562 Z M 5.328125 20.816406 C 5.351562 20.832031 5.378906 20.851562 5.40625 20.871094 C 5.378906 20.851562 5.351562 20.832031 5.328125 20.816406 Z M 5.441406 20.898438 C 5.464844 20.917969 5.492188 20.9375 5.519531 20.957031 C 5.492188 20.9375 5.464844 20.917969 5.441406 20.898438 Z M 18.304688 20.945312 C 18.304688 20.949219 18.300781 20.949219 18.300781 20.949219 C 18.300781 20.949219 18.304688 20.949219 18.304688 20.945312 Z M 5.550781 20.980469 C 5.582031 21 5.609375 21.019531 5.636719 21.039062 C 5.609375 21.019531 5.582031 21 5.550781 20.980469 Z M 18.191406 21.03125 C 18.1875 21.03125 18.183594 21.03125 18.183594 21.035156 C 18.183594 21.03125 18.1875 21.03125 18.191406 21.03125 Z M 5.664062 21.058594 C 5.695312 21.078125 5.726562 21.101562 5.757812 21.121094 C 5.726562 21.101562 5.695312 21.078125 5.664062 21.058594 Z M 18.074219 21.109375 C 18.070312 21.113281 18.066406 21.117188 18.058594 21.117188 C 18.066406 21.117188 18.070312 21.113281 18.074219 21.109375 Z M 5.78125 21.136719 C 5.816406 21.160156 5.847656 21.183594 5.882812 21.207031 C 5.847656 21.183594 5.816406 21.160156 5.78125 21.136719 Z M 17.953125 21.191406 C 17.949219 21.191406 17.945312 21.195312 17.941406 21.199219 C 17.945312 21.195312 17.949219 21.191406 17.953125 21.191406 Z M 5.894531 21.214844 C 5.976562 21.269531 6.054688 21.320312 6.136719 21.367188 C 6.054688 21.320312 5.976562 21.269531 5.894531 21.214844 Z M 17.835938 21.269531 C 17.832031 21.269531 17.828125 21.273438 17.824219 21.277344 C 17.828125 21.273438 17.832031 21.269531 17.835938 21.269531 Z M 6.148438 21.375 C 6.183594 21.398438 6.21875 21.417969 6.253906 21.441406 C 6.21875 21.417969 6.183594 21.398438 6.148438 21.375 Z M 6.28125 21.457031 C 6.3125 21.476562 6.34375 21.496094 6.371094 21.511719 C 6.34375 21.496094 6.3125 21.476562 6.28125 21.457031 Z M 6.410156 21.53125 C 6.4375 21.550781 6.464844 21.566406 6.492188 21.582031 C 6.464844 21.566406 6.4375 21.550781 6.410156 21.53125 Z M 6.535156 21.605469 C 6.5625 21.621094 6.585938 21.632812 6.613281 21.648438 C 6.585938 21.632812 6.5625 21.621094 6.535156 21.605469 Z M 17.207031 21.644531 C 17.203125 21.648438 17.199219 21.648438 17.195312 21.652344 C 17.199219 21.648438 17.203125 21.648438 17.207031 21.644531 Z M 6.660156 21.675781 C 6.683594 21.6875 6.710938 21.703125 6.734375 21.714844 C 6.710938 21.703125 6.683594 21.6875 6.660156 21.675781 Z M 17.085938 21.710938 C 17.078125 21.714844 17.070312 21.71875 17.0625 21.722656 C 17.070312 21.71875 17.078125 21.714844 17.085938 21.710938 Z M 6.78125 21.742188 C 6.808594 21.753906 6.835938 21.769531 6.859375 21.78125 C 6.835938 21.769531 6.808594 21.753906 6.78125 21.742188 Z M 16.957031 21.777344 C 16.949219 21.78125 16.941406 21.785156 16.933594 21.789062 C 16.941406 21.785156 16.949219 21.78125 16.957031 21.777344 Z M 6.90625 21.804688 C 6.933594 21.820312 6.960938 21.832031 6.988281 21.847656 C 6.960938 21.832031 6.933594 21.820312 6.90625 21.804688 Z M 16.832031 21.84375 C 16.824219 21.847656 16.816406 21.851562 16.804688 21.855469 C 16.816406 21.851562 16.824219 21.847656 16.832031 21.84375 Z M 7.03125 21.867188 C 7.0625 21.882812 7.09375 21.898438 7.125 21.914062 C 7.09375 21.898438 7.0625 21.882812 7.03125 21.867188 Z M 16.703125 21.90625 C 16.695312 21.910156 16.6875 21.914062 16.679688 21.917969 C 16.6875 21.914062 16.695312 21.910156 16.703125 21.90625 Z M 7.15625 21.929688 C 7.195312 21.949219 7.234375 21.96875 7.273438 21.984375 C 7.234375 21.96875 7.195312 21.949219 7.15625 21.929688 Z M 16.574219 21.96875 C 16.566406 21.972656 16.558594 21.976562 16.550781 21.980469 C 16.558594 21.976562 16.566406 21.972656 16.574219 21.96875 Z M 7.28125 21.988281 C 7.324219 22.007812 7.367188 22.027344 7.410156 22.046875 C 7.367188 22.027344 7.324219 22.007812 7.28125 21.988281 Z M 16.433594 22.035156 C 16.429688 22.035156 16.425781 22.039062 16.421875 22.039062 C 16.425781 22.039062 16.429688 22.035156 16.433594 22.035156 Z M 7.417969 22.050781 C 7.457031 22.070312 7.5 22.085938 7.539062 22.105469 C 7.5 22.085938 7.457031 22.070312 7.417969 22.050781 Z M 7.582031 22.121094 C 7.609375 22.136719 7.636719 22.148438 7.667969 22.160156 C 7.636719 22.148438 7.609375 22.136719 7.582031 22.121094 Z M 7.714844 22.179688 C 7.742188 22.191406 7.769531 22.203125 7.796875 22.210938 C 7.769531 22.203125 7.742188 22.191406 7.714844 22.179688 Z M 16.023438 22.210938 C 16.019531 22.210938 16.011719 22.214844 16.007812 22.214844 C 16.011719 22.214844 16.019531 22.210938 16.023438 22.210938 Z M 7.847656 22.234375 C 7.875 22.242188 7.902344 22.253906 7.925781 22.265625 C 7.902344 22.253906 7.875 22.242188 7.847656 22.234375 Z M 15.894531 22.261719 C 15.882812 22.265625 15.871094 22.269531 15.859375 22.273438 C 15.871094 22.269531 15.882812 22.265625 15.894531 22.261719 Z M 7.980469 22.285156 C 8.007812 22.296875 8.03125 22.304688 8.058594 22.316406 C 8.03125 22.304688 8.007812 22.296875 7.980469 22.285156 Z M 15.761719 22.3125 C 15.75 22.316406 15.734375 22.320312 15.722656 22.328125 C 15.734375 22.320312 15.75 22.316406 15.761719 22.3125 Z M 8.113281 22.335938 C 8.140625 22.34375 8.164062 22.355469 8.191406 22.363281 C 8.164062 22.355469 8.140625 22.34375 8.113281 22.335938 Z M 15.625 22.363281 C 15.613281 22.367188 15.601562 22.371094 15.585938 22.375 C 15.601562 22.371094 15.613281 22.367188 15.625 22.363281 Z M 8.246094 22.382812 C 8.273438 22.390625 8.300781 22.402344 8.328125 22.410156 C 8.300781 22.402344 8.273438 22.390625 8.246094 22.382812 Z M 15.492188 22.410156 C 15.476562 22.414062 15.464844 22.417969 15.453125 22.421875 C 15.464844 22.417969 15.476562 22.414062 15.492188 22.410156 Z M 8.378906 22.429688 C 8.40625 22.4375 8.4375 22.449219 8.464844 22.457031 C 8.4375 22.449219 8.40625 22.4375 8.378906 22.429688 Z M 15.355469 22.457031 C 15.339844 22.460938 15.328125 22.464844 15.316406 22.46875 C 15.328125 22.464844 15.339844 22.460938 15.355469 22.457031 Z M 8.511719 22.472656 C 8.542969 22.484375 8.578125 22.496094 8.613281 22.503906 C 8.578125 22.496094 8.546875 22.484375 8.511719 22.472656 Z M 15.214844 22.5 C 15.203125 22.503906 15.191406 22.507812 15.179688 22.511719 C 15.191406 22.507812 15.203125 22.503906 15.214844 22.5 Z M 8.644531 22.515625 C 8.691406 22.53125 8.738281 22.542969 8.78125 22.558594 C 8.738281 22.542969 8.691406 22.53125 8.644531 22.515625 Z M 8.78125 22.558594 C 8.828125 22.570312 8.871094 22.582031 8.917969 22.597656 C 8.871094 22.582031 8.828125 22.570312 8.78125 22.558594 Z M 15.074219 22.542969 C 15.0625 22.546875 15.050781 22.550781 15.042969 22.554688 C 15.050781 22.550781 15.0625 22.546875 15.074219 22.542969 Z M 8.964844 22.609375 C 8.996094 22.617188 9.023438 22.625 9.054688 22.636719 C 9.023438 22.625 8.996094 22.617188 8.964844 22.609375 Z M 14.765625 22.632812 C 14.757812 22.632812 14.75 22.636719 14.746094 22.636719 C 14.75 22.636719 14.757812 22.632812 14.765625 22.632812 Z M 9.105469 22.648438 C 9.132812 22.65625 9.164062 22.664062 9.191406 22.671875 C 9.164062 22.664062 9.132812 22.65625 9.105469 22.648438 Z M 14.625 22.667969 C 14.613281 22.671875 14.601562 22.675781 14.585938 22.679688 C 14.601562 22.675781 14.613281 22.671875 14.625 22.667969 Z M 9.25 22.683594 C 9.277344 22.691406 9.304688 22.699219 9.332031 22.703125 C 9.304688 22.699219 9.277344 22.691406 9.25 22.683594 Z M 14.488281 22.703125 C 14.472656 22.707031 14.453125 22.710938 14.4375 22.714844 C 14.453125 22.710938 14.472656 22.707031 14.488281 22.703125 Z M 9.386719 22.71875 C 9.414062 22.722656 9.441406 22.730469 9.46875 22.738281 C 9.441406 22.730469 9.414062 22.722656 9.386719 22.71875 Z M 14.347656 22.734375 C 14.328125 22.738281 14.3125 22.742188 14.296875 22.746094 C 14.3125 22.742188 14.328125 22.738281 14.347656 22.734375 Z M 9.53125 22.75 C 9.554688 22.757812 9.582031 22.761719 9.609375 22.765625 C 9.582031 22.761719 9.554688 22.757812 9.53125 22.75 Z M 14.207031 22.765625 C 14.1875 22.769531 14.171875 22.773438 14.152344 22.777344 C 14.171875 22.773438 14.1875 22.769531 14.207031 22.765625 Z M 9.671875 22.78125 C 9.695312 22.785156 9.722656 22.792969 9.75 22.796875 C 9.722656 22.792969 9.695312 22.785156 9.671875 22.78125 Z M 14.066406 22.796875 C 14.046875 22.800781 14.027344 22.804688 14.011719 22.808594 C 14.027344 22.804688 14.046875 22.800781 14.066406 22.796875 Z M 9.8125 22.808594 C 9.839844 22.8125 9.867188 22.820312 9.894531 22.824219 C 9.867188 22.820312 9.839844 22.8125 9.8125 22.808594 Z M 13.925781 22.824219 C 13.90625 22.828125 13.886719 22.832031 13.867188 22.832031 C 13.886719 22.832031 13.90625 22.828125 13.925781 22.824219 Z M 9.953125 22.835938 C 9.980469 22.839844 10.011719 22.84375 10.042969 22.851562 C 10.011719 22.84375 9.980469 22.839844 9.953125 22.835938 Z M 13.777344 22.847656 C 13.757812 22.851562 13.742188 22.855469 13.726562 22.859375 C 13.742188 22.855469 13.757812 22.851562 13.777344 22.847656 Z M 10.09375 22.859375 C 10.128906 22.863281 10.160156 22.871094 10.195312 22.875 C 10.160156 22.871094 10.128906 22.863281 10.09375 22.859375 Z M 13.625 22.875 C 13.609375 22.875 13.597656 22.878906 13.582031 22.882812 C 13.597656 22.878906 13.609375 22.875 13.625 22.875 Z M 10.238281 22.882812 C 10.285156 22.890625 10.332031 22.894531 10.378906 22.902344 C 10.332031 22.894531 10.285156 22.890625 10.238281 22.882812 Z M 13.460938 22.898438 C 13.453125 22.898438 13.445312 22.902344 13.4375 22.902344 C 13.445312 22.902344 13.453125 22.898438 13.460938 22.898438 Z M 10.417969 22.90625 C 10.453125 22.914062 10.488281 22.917969 10.523438 22.921875 C 10.488281 22.917969 10.453125 22.914062 10.417969 22.90625 Z M 13.292969 22.921875 C 13.28125 22.921875 13.265625 22.925781 13.25 22.925781 C 13.265625 22.925781 13.28125 22.921875 13.292969 22.921875 Z M 10.574219 22.929688 C 10.605469 22.933594 10.636719 22.933594 10.667969 22.9375 C 10.636719 22.933594 10.605469 22.933594 10.574219 22.929688 Z M 13.148438 22.9375 C 13.128906 22.941406 13.113281 22.941406 13.09375 22.945312 C 13.113281 22.941406 13.128906 22.941406 13.148438 22.9375 Z M 10.726562 22.945312 C 10.753906 22.949219 10.78125 22.949219 10.808594 22.953125 C 10.78125 22.949219 10.753906 22.949219 10.726562 22.945312 Z M 13.003906 22.953125 C 12.984375 22.957031 12.964844 22.957031 12.945312 22.960938 C 12.964844 22.957031 12.984375 22.957031 13.003906 22.953125 Z M 10.875 22.960938 C 10.902344 22.960938 10.929688 22.964844 10.957031 22.96875 C 10.929688 22.964844 10.902344 22.960938 10.875 22.960938 Z M 12.855469 22.96875 C 12.835938 22.96875 12.816406 22.96875 12.796875 22.972656 C 12.816406 22.96875 12.835938 22.96875 12.855469 22.96875 Z M 11.019531 22.972656 C 11.046875 22.976562 11.074219 22.976562 11.105469 22.980469 C 11.074219 22.976562 11.046875 22.976562 11.019531 22.972656 Z M 12.710938 22.980469 C 12.691406 22.980469 12.667969 22.980469 12.648438 22.984375 C 12.667969 22.980469 12.691406 22.980469 12.710938 22.980469 Z M 11.167969 22.984375 C 11.195312 22.984375 11.222656 22.988281 11.25 22.988281 C 11.222656 22.988281 11.195312 22.984375 11.167969 22.984375 Z M 12.5625 22.988281 C 12.542969 22.988281 12.519531 22.992188 12.5 22.992188 C 12.519531 22.992188 12.542969 22.988281 12.5625 22.988281 Z M 11.316406 22.992188 C 11.34375 22.992188 11.371094 22.996094 11.402344 22.996094 C 11.371094 22.996094 11.34375 22.992188 11.316406 22.992188 Z M 12.414062 22.996094 C 12.394531 22.996094 12.371094 22.996094 12.351562 23 C 12.371094 22.996094 12.394531 22.996094 12.414062 22.996094 Z M 11.460938 23 C 11.492188 23 11.523438 23 11.550781 23.003906 C 11.523438 23 11.492188 23 11.460938 23 Z M 12.261719 23 C 12.242188 23.003906 12.222656 23.003906 12.203125 23.003906 C 12.222656 23.003906 12.242188 23.003906 12.261719 23 Z M 11.609375 23.003906 C 11.640625 23.003906 11.671875 23.003906 11.703125 23.003906 C 11.671875 23.003906 11.640625 23.003906 11.609375 23.003906 Z M 12.105469 23.003906 C 12.085938 23.007812 12.070312 23.007812 12.054688 23.007812 C 12.070312 23.007812 12.085938 23.007812 12.105469 23.003906 Z M 11.757812 23.007812 C 11.808594 23.007812 11.855469 23.007812 11.90625 23.007812 C 11.855469 23.007812 11.808594 23.007812 11.757812 23.007812 Z M 11.757812 23.007812 "/>
<path style=" stroke:none;fill-rule:nonzero;fill:rgb(72.941178%,40.784314%,78.431374%);fill-opacity:1;" d="M 20.171875 4.953125 L 3.640625 19.234375 C 5.636719 21.546875 8.59375 23.007812 11.90625 23.007812 C 17.953125 23.007812 22.820312 18.140625 22.820312 12.09375 C 22.820312 9.359375 21.824219 6.863281 20.171875 4.953125 Z M 20.171875 4.953125 "/>
<path style=" stroke:none;fill-rule:nonzero;fill:rgb(93.333334%,93.333334%,93.333334%);fill-opacity:1;" d="M 9.589844 11.101562 C 8.308594 11.101562 7.277344 12.132812 7.277344 13.417969 L 7.277344 17.386719 C 7.277344 17.75 7.570312 18.046875 7.9375 18.046875 L 8.269531 18.046875 C 8.632812 18.046875 8.929688 17.75 8.929688 17.386719 L 8.929688 13.582031 C 8.929688 13.492188 9.003906 13.417969 9.09375 13.417969 C 9.1875 13.417969 9.261719 13.492188 9.261719 13.582031 L 9.261719 17.386719 C 9.261719 17.75 9.554688 18.046875 9.921875 18.046875 L 13.890625 18.046875 C 14.257812 18.046875 14.550781 17.75 14.550781 17.386719 L 14.550781 13.582031 C 14.550781 13.492188 14.625 13.417969 14.71875 13.417969 C 14.808594 13.417969 14.882812 13.492188 14.882812 13.582031 L 14.882812 17.386719 C 14.882812 17.75 15.179688 18.046875 15.542969 18.046875 L 15.875 18.046875 C 16.242188 18.046875 16.535156 17.75 16.535156 17.386719 L 16.535156 13.417969 C 16.535156 12.132812 15.503906 11.101562 14.222656 11.101562 Z M 9.589844 11.101562 "/>
<path style=" stroke:none;fill-rule:nonzero;fill:rgb(93.333334%,93.333334%,93.333334%);fill-opacity:1;" d="M 11.90625 6.140625 C 13.183594 6.140625 14.222656 7.175781 14.222656 8.457031 C 14.222656 9.734375 13.183594 10.769531 11.90625 10.769531 C 10.628906 10.769531 9.589844 9.734375 9.589844 8.457031 C 9.589844 7.175781 10.628906 6.140625 11.90625 6.140625 Z M 11.90625 6.140625 "/>
</g>
</svg>
