<?xml version="1.0" encoding="UTF-8"?>
<svg xmlns="http://www.w3.org/2000/svg" xmlns:xlink="http://www.w3.org/1999/xlink" width="24px" height="24px" viewBox="0 0 24 24" version="1.1">
<g id="surface1">
<path style=" stroke:none;fill-rule:nonzero;fill:rgb(49.411765%,34.117648%,76.078433%);fill-opacity:1;" d="M 2.144531 19.5625 L 2.144531 19.617188 C 2.144531 21.496094 6.496094 23.007812 11.90625 23.007812 C 17.316406 23.007812 21.671875 21.496094 21.671875 19.617188 L 21.671875 19.5625 C 21.671875 10.945312 14.203125 10.945312 14.203125 6.351562 C 14.203125 4.914062 15.316406 4.03125 15.929688 2.902344 C 16.789062 1.46875 15.988281 1.417969 14.347656 1.179688 C 13.34375 1.179688 14.136719 2.667969 13.34375 2.617188 C 12.769531 2.578125 12.464844 1.179688 11.90625 1.179688 C 11.160156 1.179688 11.621094 3.210938 10.757812 3.191406 C 9.671875 3.164062 10.472656 1.179688 9.464844 1.179688 C 6.828125 1.398438 6.882812 2.117188 7.3125 2.902344 C 8.078125 4.054688 9.609375 5.199219 9.609375 6.351562 C 9.609375 10.945312 2.144531 10.945312 2.144531 19.5625 Z M 2.144531 19.5625 "/>
<path style=" stroke:none;fill-rule:nonzero;fill:rgb(100%,65.490198%,14.901961%);fill-opacity:1;" d="M 9.671875 6.636719 L 14.140625 6.636719 C 14.277344 6.636719 14.386719 6.746094 14.386719 6.882812 L 14.386719 6.886719 C 14.386719 7.023438 14.277344 7.132812 14.140625 7.132812 L 9.671875 7.132812 C 9.535156 7.132812 9.425781 7.023438 9.425781 6.886719 L 9.425781 6.882812 C 9.425781 6.746094 9.535156 6.636719 9.671875 6.636719 Z M 9.671875 6.636719 "/>
<path style=" stroke:none;fill-rule:nonzero;fill:rgb(100%,65.490198%,14.901961%);fill-opacity:1;" d="M 12.660156 6.511719 C 12.585938 6.507812 12.515625 6.539062 12.464844 6.59375 C 12.464844 6.59375 11.203125 7.964844 10.679688 9.40625 C 10.460938 10.003906 9.839844 10.679688 9.261719 11.175781 C 8.6875 11.675781 8.175781 12.007812 8.175781 12.007812 C 8.097656 12.058594 8.054688 12.140625 8.058594 12.230469 C 8.0625 12.320312 8.113281 12.402344 8.195312 12.441406 C 8.273438 12.484375 8.371094 12.476562 8.445312 12.425781 C 8.445312 12.425781 8.984375 12.078125 9.589844 11.550781 C 10.191406 11.027344 10.871094 10.335938 11.148438 9.574219 C 11.617188 8.285156 12.835938 6.925781 12.835938 6.925781 C 12.902344 6.855469 12.917969 6.753906 12.882812 6.660156 C 12.84375 6.570312 12.757812 6.511719 12.660156 6.511719 Z M 12.660156 6.511719 "/>
<path style=" stroke:none;fill-rule:nonzero;fill:rgb(100%,65.490198%,14.901961%);fill-opacity:1;" d="M 12.648438 6.507812 C 12.578125 6.507812 12.511719 6.539062 12.464844 6.589844 C 12.417969 6.644531 12.394531 6.710938 12.402344 6.78125 C 12.402344 6.78125 12.539062 8.78125 13.851562 9.726562 C 14.992188 10.550781 16.167969 12.234375 16.167969 12.234375 C 16.214844 12.308594 16.300781 12.351562 16.390625 12.34375 C 16.480469 12.335938 16.558594 12.28125 16.597656 12.203125 C 16.636719 12.121094 16.628906 12.027344 16.574219 11.953125 C 16.574219 11.953125 15.410156 10.238281 14.140625 9.324219 C 13.097656 8.570312 12.898438 6.738281 12.898438 6.738281 C 12.886719 6.609375 12.78125 6.507812 12.648438 6.507812 Z M 12.648438 6.507812 "/>
<path style=" stroke:none;fill-rule:nonzero;fill:rgb(100%,71.764708%,30.19608%);fill-opacity:1;" d="M 12.527344 6.265625 C 12.867188 6.265625 13.148438 6.515625 13.148438 6.828125 L 13.148438 6.941406 C 13.148438 7.253906 12.867188 7.503906 12.527344 7.503906 C 12.183594 7.503906 11.90625 7.253906 11.90625 6.941406 L 11.90625 6.828125 C 11.90625 6.515625 12.183594 6.265625 12.527344 6.265625 Z M 12.527344 6.265625 "/>
</g>
</svg>
