<?xml version="1.0" encoding="UTF-8"?>
<svg xmlns="http://www.w3.org/2000/svg" xmlns:xlink="http://www.w3.org/1999/xlink" width="24px" height="24px" viewBox="0 0 24 24" version="1.1">
<g id="surface1">
<path style=" stroke:none;fill-rule:nonzero;fill:rgb(14.901961%,77.64706%,85.490197%);fill-opacity:1;" d="M 4.730469 3.632812 L 8.167969 1.648438 C 8.640625 1.375 9.25 1.539062 9.523438 2.011719 L 19.445312 19.199219 C 19.71875 19.671875 19.554688 20.28125 19.082031 20.554688 L 15.644531 22.539062 C 15.171875 22.8125 14.5625 22.648438 14.289062 22.175781 L 4.367188 4.988281 C 4.09375 4.515625 4.257812 3.90625 4.730469 3.632812 Z M 4.730469 3.632812 "/>
<path style=" stroke:none;fill-rule:nonzero;fill:rgb(30.19608%,81.568629%,88.235295%);fill-opacity:1;" d="M 22.820312 10.109375 L 22.820312 14.078125 C 22.820312 14.625 22.375 15.070312 21.828125 15.070312 L 1.984375 15.070312 C 1.4375 15.070312 0.992188 14.625 0.992188 14.078125 L 0.992188 10.109375 C 0.992188 9.5625 1.4375 9.117188 1.984375 9.117188 L 21.828125 9.117188 C 22.375 9.117188 22.820312 9.5625 22.820312 10.109375 Z M 22.820312 10.109375 "/>
<path style=" stroke:none;fill-rule:nonzero;fill:rgb(50.196081%,87.058824%,91.764706%);fill-opacity:1;" d="M 15.644531 1.648438 L 19.082031 3.632812 C 19.554688 3.90625 19.71875 4.515625 19.445312 4.988281 L 9.523438 22.175781 C 9.25 22.648438 8.640625 22.8125 8.167969 22.539062 L 4.730469 20.554688 C 4.257812 20.28125 4.09375 19.671875 4.367188 19.199219 L 14.289062 2.011719 C 14.5625 1.539062 15.171875 1.375 15.644531 1.648438 Z M 15.644531 1.648438 "/>
</g>
</svg>
