<?xml version="1.0" encoding="UTF-8"?>
<svg xmlns="http://www.w3.org/2000/svg" xmlns:xlink="http://www.w3.org/1999/xlink" width="24px" height="24px" viewBox="0 0 24 24" version="1.1">
<defs>
<linearGradient id="linear0" gradientUnits="userSpaceOnUse" x1="42.333332" y1="42.999996" x2="465.666656" y2="42.999996" gradientTransform="matrix(0.046875,0,0,0.046875,0.0000003125,10.078124)">
<stop offset="0" style="stop-color:rgb(97.254902%,97.254902%,97.254902%);stop-opacity:0;"/>
<stop offset="0.5" style="stop-color:rgb(100%,100%,100%);stop-opacity:0.0784314;"/>
<stop offset="1" style="stop-color:rgb(99.607843%,99.607843%,99.607843%);stop-opacity:0;"/>
</linearGradient>
</defs>
<g id="surface1">
<path style=" stroke:none;fill-rule:nonzero;fill:rgb(74.117649%,74.117649%,74.117649%);fill-opacity:1;" d="M 1.984375 2.171875 L 21.828125 2.171875 C 22.375 2.171875 22.820312 2.617188 22.820312 3.164062 L 22.820312 21.023438 C 22.820312 21.570312 22.375 22.015625 21.828125 22.015625 L 1.984375 22.015625 C 1.4375 22.015625 0.992188 21.570312 0.992188 21.023438 L 0.992188 3.164062 C 0.992188 2.617188 1.4375 2.171875 1.984375 2.171875 Z M 1.984375 2.171875 "/>
<path style=" stroke:none;fill-rule:nonzero;fill:rgb(93.725491%,32.549021%,31.37255%);fill-opacity:1;" d="M 2.480469 3.164062 L 10.914062 3.164062 C 11.1875 3.164062 11.410156 3.375 11.410156 3.632812 L 11.410156 11.128906 C 11.410156 11.386719 11.1875 11.597656 10.914062 11.597656 L 2.480469 11.597656 C 2.207031 11.597656 1.984375 11.386719 1.984375 11.128906 L 1.984375 3.632812 C 1.984375 3.375 2.207031 3.164062 2.480469 3.164062 Z M 2.480469 3.164062 "/>
<path style=" stroke:none;fill-rule:nonzero;fill:rgb(93.725491%,32.549021%,31.37255%);fill-opacity:1;" d="M 12.898438 3.164062 L 21.332031 3.164062 C 21.605469 3.164062 21.828125 3.375 21.828125 3.632812 L 21.828125 11.128906 C 21.828125 11.386719 21.605469 11.597656 21.332031 11.597656 L 12.898438 11.597656 C 12.625 11.597656 12.402344 11.386719 12.402344 11.128906 L 12.402344 3.632812 C 12.402344 3.375 12.625 3.164062 12.898438 3.164062 Z M 12.898438 3.164062 "/>
<path style=" stroke:none;fill-rule:nonzero;fill:rgb(93.725491%,32.549021%,31.37255%);fill-opacity:1;" d="M 2.480469 12.589844 L 10.914062 12.589844 C 11.1875 12.589844 11.410156 12.800781 11.410156 13.058594 L 11.410156 20.554688 C 11.410156 20.8125 11.1875 21.023438 10.914062 21.023438 L 2.480469 21.023438 C 2.207031 21.023438 1.984375 20.8125 1.984375 20.554688 L 1.984375 13.058594 C 1.984375 12.800781 2.207031 12.589844 2.480469 12.589844 Z M 2.480469 12.589844 "/>
<path style=" stroke:none;fill-rule:nonzero;fill:rgb(93.725491%,32.549021%,31.37255%);fill-opacity:1;" d="M 12.898438 12.589844 L 21.332031 12.589844 C 21.605469 12.589844 21.828125 12.800781 21.828125 13.058594 L 21.828125 20.554688 C 21.828125 20.8125 21.605469 21.023438 21.332031 21.023438 L 12.898438 21.023438 C 12.625 21.023438 12.402344 20.8125 12.402344 20.554688 L 12.402344 13.058594 C 12.402344 12.800781 12.625 12.589844 12.898438 12.589844 Z M 12.898438 12.589844 "/>
<path style=" stroke:none;fill-rule:nonzero;fill:url(#linear0);" d="M 2.480469 3.164062 C 2.289062 3.164062 2.125 3.265625 2.042969 3.410156 L 11.351562 3.410156 C 11.269531 3.265625 11.105469 3.164062 10.914062 3.164062 Z M 12.898438 3.164062 C 12.707031 3.164062 12.542969 3.265625 12.460938 3.410156 L 21.769531 3.410156 C 21.6875 3.265625 21.523438 3.164062 21.332031 3.164062 Z M 1.984375 4.402344 L 1.984375 4.898438 L 11.410156 4.898438 L 11.410156 4.402344 Z M 12.402344 4.402344 L 12.402344 4.898438 L 21.828125 4.898438 L 21.828125 4.402344 Z M 1.984375 5.890625 L 1.984375 6.386719 L 11.410156 6.386719 L 11.410156 5.890625 Z M 12.402344 5.890625 L 12.402344 6.386719 L 21.828125 6.386719 L 21.828125 5.890625 Z M 1.984375 7.378906 L 1.984375 7.875 L 11.410156 7.875 L 11.410156 7.378906 Z M 12.402344 7.378906 L 12.402344 7.875 L 21.828125 7.875 L 21.828125 7.378906 Z M 1.984375 8.867188 L 1.984375 9.363281 L 11.410156 9.363281 L 11.410156 8.867188 Z M 12.402344 8.867188 L 12.402344 9.363281 L 21.828125 9.363281 L 21.828125 8.867188 Z M 1.984375 10.355469 L 1.984375 10.851562 L 11.410156 10.851562 L 11.410156 10.355469 Z M 12.402344 10.355469 L 12.402344 10.851562 L 21.828125 10.851562 L 21.828125 10.355469 Z M 1.984375 13.332031 L 1.984375 13.828125 L 11.410156 13.828125 L 11.410156 13.332031 Z M 12.402344 13.332031 L 12.402344 13.828125 L 21.828125 13.828125 L 21.828125 13.332031 Z M 1.984375 14.820312 L 1.984375 15.316406 L 11.410156 15.316406 L 11.410156 14.820312 Z M 12.402344 14.820312 L 12.402344 15.316406 L 21.828125 15.316406 L 21.828125 14.820312 Z M 1.984375 16.308594 L 1.984375 16.804688 L 11.410156 16.804688 L 11.410156 16.308594 Z M 12.402344 16.308594 L 12.402344 16.804688 L 21.828125 16.804688 L 21.828125 16.308594 Z M 1.984375 17.796875 L 1.984375 18.292969 L 11.410156 18.292969 L 11.410156 17.796875 Z M 12.402344 17.796875 L 12.402344 18.292969 L 21.828125 18.292969 L 21.828125 17.796875 Z M 1.984375 19.285156 L 1.984375 19.78125 L 11.410156 19.78125 L 11.410156 19.285156 Z M 12.402344 19.285156 L 12.402344 19.78125 L 21.828125 19.78125 L 21.828125 19.285156 Z M 2.042969 20.773438 C 2.125 20.921875 2.289062 21.023438 2.480469 21.023438 L 10.914062 21.023438 C 11.105469 21.023438 11.269531 20.921875 11.351562 20.773438 Z M 12.460938 20.773438 C 12.542969 20.921875 12.707031 21.023438 12.898438 21.023438 L 21.332031 21.023438 C 21.523438 21.023438 21.6875 20.921875 21.769531 20.773438 Z M 12.460938 20.773438 "/>
<path style=" stroke:none;fill-rule:nonzero;fill:rgb(96.078432%,96.078432%,96.078432%);fill-opacity:1;" d="M 3.835938 13.332031 C 3.773438 13.332031 3.71875 13.386719 3.71875 13.449219 L 3.71875 13.582031 C 3.539062 13.609375 3.367188 13.675781 3.226562 13.789062 C 3.027344 13.949219 2.90625 14.207031 2.90625 14.5 C 2.90625 14.808594 3.089844 15.046875 3.289062 15.175781 C 3.492188 15.304688 3.710938 15.363281 3.878906 15.417969 C 4.0625 15.480469 4.25 15.535156 4.367188 15.613281 C 4.484375 15.6875 4.535156 15.742188 4.535156 15.898438 C 4.535156 16.070312 4.484375 16.164062 4.390625 16.238281 C 4.296875 16.3125 4.148438 16.363281 3.953125 16.363281 C 3.757812 16.363281 3.601562 16.3125 3.503906 16.246094 C 3.410156 16.175781 3.371094 16.109375 3.371094 16.011719 C 3.371094 15.929688 3.328125 15.851562 3.253906 15.808594 C 3.183594 15.765625 3.09375 15.765625 3.019531 15.808594 C 2.949219 15.851562 2.902344 15.929688 2.90625 16.011719 C 2.90625 16.265625 3.042969 16.488281 3.238281 16.625 C 3.375 16.722656 3.539062 16.785156 3.71875 16.8125 L 3.71875 16.945312 C 3.71875 17.007812 3.773438 17.0625 3.835938 17.0625 L 4.070312 17.0625 C 4.132812 17.0625 4.1875 17.007812 4.1875 16.945312 L 4.1875 16.8125 C 4.371094 16.78125 4.539062 16.714844 4.683594 16.601562 C 4.878906 16.445312 5.003906 16.1875 5.003906 15.898438 C 5.003906 15.585938 4.820312 15.347656 4.617188 15.21875 C 4.414062 15.089844 4.195312 15.03125 4.027344 14.976562 C 3.84375 14.914062 3.660156 14.859375 3.539062 14.78125 C 3.421875 14.707031 3.371094 14.652344 3.371094 14.5 C 3.371094 14.324219 3.425781 14.226562 3.519531 14.152344 C 3.613281 14.078125 3.761719 14.027344 3.949219 14.03125 C 3.949219 14.03125 3.953125 14.03125 3.953125 14.03125 C 4.148438 14.03125 4.304688 14.082031 4.402344 14.152344 C 4.5 14.21875 4.535156 14.285156 4.535156 14.382812 C 4.535156 14.464844 4.578125 14.542969 4.652344 14.585938 C 4.722656 14.628906 4.8125 14.628906 4.886719 14.585938 C 4.957031 14.542969 5.003906 14.464844 5.003906 14.382812 C 5.003906 14.128906 4.863281 13.90625 4.667969 13.769531 C 4.53125 13.671875 4.367188 13.613281 4.1875 13.585938 L 4.1875 13.449219 C 4.1875 13.386719 4.132812 13.332031 4.070312 13.332031 Z M 5.703125 16.246094 C 5.570312 16.246094 5.46875 16.351562 5.46875 16.480469 C 5.46875 16.609375 5.570312 16.710938 5.703125 16.710938 L 6.285156 16.710938 C 6.414062 16.710938 6.515625 16.609375 6.515625 16.480469 C 6.515625 16.351562 6.414062 16.246094 6.285156 16.246094 Z M 5.703125 16.246094 "/>
<path style=" stroke:none;fill-rule:nonzero;fill:rgb(96.078432%,96.078432%,96.078432%);fill-opacity:1;" d="M 3.835938 3.90625 C 3.773438 3.90625 3.71875 3.957031 3.71875 4.023438 L 3.71875 4.152344 C 3.539062 4.183594 3.367188 4.25 3.226562 4.363281 C 3.027344 4.523438 2.90625 4.777344 2.90625 5.070312 C 2.90625 5.382812 3.089844 5.621094 3.289062 5.746094 C 3.492188 5.875 3.710938 5.933594 3.878906 5.992188 C 4.0625 6.050781 4.25 6.109375 4.367188 6.183594 C 4.484375 6.261719 4.535156 6.3125 4.535156 6.46875 C 4.535156 6.644531 4.484375 6.738281 4.390625 6.8125 C 4.296875 6.886719 4.148438 6.933594 3.953125 6.933594 C 3.757812 6.933594 3.601562 6.882812 3.503906 6.816406 C 3.410156 6.75 3.371094 6.683594 3.371094 6.585938 C 3.371094 6.5 3.328125 6.421875 3.253906 6.378906 C 3.183594 6.339844 3.09375 6.339844 3.019531 6.378906 C 2.949219 6.421875 2.902344 6.5 2.90625 6.585938 C 2.90625 6.835938 3.042969 7.0625 3.238281 7.199219 C 3.375 7.292969 3.539062 7.355469 3.71875 7.382812 L 3.71875 7.515625 C 3.71875 7.582031 3.773438 7.632812 3.835938 7.632812 L 4.070312 7.632812 C 4.132812 7.632812 4.1875 7.582031 4.1875 7.515625 L 4.1875 7.382812 C 4.371094 7.355469 4.539062 7.289062 4.683594 7.175781 C 4.878906 7.015625 5.003906 6.761719 5.003906 6.46875 C 5.003906 6.15625 4.820312 5.921875 4.617188 5.792969 C 4.414062 5.664062 4.195312 5.605469 4.027344 5.546875 C 3.84375 5.488281 3.660156 5.429688 3.539062 5.355469 C 3.421875 5.28125 3.371094 5.226562 3.371094 5.070312 C 3.371094 4.898438 3.425781 4.800781 3.519531 4.726562 C 3.613281 4.648438 3.761719 4.601562 3.949219 4.605469 C 3.949219 4.605469 3.953125 4.605469 3.953125 4.605469 C 4.148438 4.605469 4.304688 4.65625 4.402344 4.722656 C 4.5 4.789062 4.535156 4.855469 4.535156 4.953125 C 4.535156 5.039062 4.578125 5.117188 4.652344 5.15625 C 4.722656 5.199219 4.8125 5.199219 4.886719 5.15625 C 4.957031 5.117188 5.003906 5.039062 5.003906 4.953125 C 5.003906 4.703125 4.863281 4.476562 4.667969 4.339844 C 4.53125 4.246094 4.367188 4.183594 4.1875 4.15625 L 4.1875 4.023438 C 4.1875 3.957031 4.132812 3.90625 4.070312 3.90625 Z M 5.703125 6.816406 C 5.570312 6.816406 5.46875 6.921875 5.46875 7.050781 C 5.46875 7.179688 5.570312 7.285156 5.703125 7.285156 L 6.285156 7.285156 C 6.414062 7.285156 6.515625 7.179688 6.515625 7.050781 C 6.515625 6.921875 6.414062 6.816406 6.285156 6.816406 Z M 5.703125 6.816406 "/>
<path style=" stroke:none;fill-rule:nonzero;fill:rgb(96.078432%,96.078432%,96.078432%);fill-opacity:1;" d="M 14.535156 13.332031 C 14.46875 13.332031 14.417969 13.386719 14.417969 13.449219 L 14.417969 13.582031 C 14.234375 13.609375 14.0625 13.675781 13.921875 13.789062 C 13.722656 13.949219 13.601562 14.207031 13.601562 14.5 C 13.601562 14.808594 13.785156 15.046875 13.984375 15.175781 C 14.1875 15.304688 14.410156 15.363281 14.574219 15.417969 C 14.757812 15.480469 14.945312 15.535156 15.0625 15.613281 C 15.183594 15.6875 15.230469 15.742188 15.230469 15.898438 C 15.230469 16.070312 15.179688 16.164062 15.085938 16.238281 C 14.996094 16.3125 14.84375 16.363281 14.648438 16.363281 C 14.457031 16.363281 14.296875 16.3125 14.199219 16.246094 C 14.105469 16.175781 14.066406 16.109375 14.066406 16.011719 C 14.070312 15.929688 14.023438 15.851562 13.953125 15.808594 C 13.878906 15.765625 13.789062 15.765625 13.71875 15.808594 C 13.644531 15.851562 13.601562 15.929688 13.601562 16.011719 C 13.601562 16.265625 13.738281 16.488281 13.933594 16.625 C 14.070312 16.722656 14.234375 16.785156 14.417969 16.8125 L 14.417969 16.945312 C 14.417969 17.007812 14.46875 17.0625 14.535156 17.0625 L 14.765625 17.0625 C 14.832031 17.0625 14.882812 17.007812 14.882812 16.945312 L 14.882812 16.8125 C 15.066406 16.78125 15.238281 16.714844 15.378906 16.601562 C 15.578125 16.445312 15.699219 16.1875 15.699219 15.898438 C 15.699219 15.585938 15.515625 15.347656 15.3125 15.21875 C 15.113281 15.089844 14.890625 15.03125 14.722656 14.976562 C 14.542969 14.914062 14.355469 14.859375 14.234375 14.78125 C 14.117188 14.707031 14.066406 14.652344 14.066406 14.5 C 14.066406 14.324219 14.121094 14.226562 14.214844 14.152344 C 14.308594 14.078125 14.457031 14.027344 14.644531 14.03125 C 14.648438 14.03125 14.648438 14.03125 14.648438 14.03125 C 14.84375 14.03125 15.003906 14.082031 15.097656 14.152344 C 15.195312 14.21875 15.230469 14.285156 15.230469 14.382812 C 15.230469 14.464844 15.277344 14.542969 15.347656 14.585938 C 15.421875 14.628906 15.511719 14.628906 15.582031 14.585938 C 15.65625 14.542969 15.699219 14.464844 15.699219 14.382812 C 15.699219 14.128906 15.5625 13.90625 15.367188 13.769531 C 15.226562 13.671875 15.0625 13.613281 14.882812 13.585938 L 14.882812 13.449219 C 14.882812 13.386719 14.832031 13.332031 14.765625 13.332031 Z M 16.398438 16.246094 C 16.269531 16.246094 16.164062 16.351562 16.164062 16.480469 C 16.164062 16.609375 16.269531 16.710938 16.398438 16.710938 L 16.980469 16.710938 C 17.109375 16.710938 17.210938 16.609375 17.210938 16.480469 C 17.210938 16.351562 17.109375 16.246094 16.980469 16.246094 Z M 16.398438 16.246094 "/>
<path style=" stroke:none;fill-rule:nonzero;fill:rgb(96.078432%,96.078432%,96.078432%);fill-opacity:1;" d="M 14.535156 3.90625 C 14.46875 3.90625 14.417969 3.957031 14.417969 4.023438 L 14.417969 4.152344 C 14.234375 4.183594 14.0625 4.25 13.921875 4.363281 C 13.722656 4.523438 13.601562 4.777344 13.601562 5.070312 C 13.601562 5.382812 13.785156 5.621094 13.984375 5.746094 C 14.1875 5.875 14.410156 5.933594 14.574219 5.992188 C 14.757812 6.050781 14.945312 6.109375 15.0625 6.183594 C 15.183594 6.261719 15.230469 6.3125 15.230469 6.46875 C 15.230469 6.644531 15.179688 6.738281 15.085938 6.8125 C 14.996094 6.886719 14.84375 6.933594 14.648438 6.933594 C 14.457031 6.933594 14.296875 6.882812 14.199219 6.816406 C 14.105469 6.75 14.066406 6.683594 14.066406 6.585938 C 14.070312 6.5 14.023438 6.421875 13.953125 6.378906 C 13.878906 6.339844 13.789062 6.339844 13.71875 6.378906 C 13.644531 6.421875 13.601562 6.5 13.601562 6.585938 C 13.601562 6.835938 13.738281 7.0625 13.933594 7.199219 C 14.070312 7.292969 14.234375 7.355469 14.417969 7.382812 L 14.417969 7.515625 C 14.417969 7.582031 14.46875 7.632812 14.535156 7.632812 L 14.765625 7.632812 C 14.832031 7.632812 14.882812 7.582031 14.882812 7.515625 L 14.882812 7.382812 C 15.066406 7.355469 15.238281 7.289062 15.378906 7.175781 C 15.578125 7.015625 15.699219 6.761719 15.699219 6.46875 C 15.699219 6.15625 15.515625 5.921875 15.3125 5.792969 C 15.113281 5.664062 14.890625 5.605469 14.722656 5.546875 C 14.542969 5.488281 14.355469 5.429688 14.234375 5.355469 C 14.117188 5.28125 14.066406 5.226562 14.066406 5.070312 C 14.066406 4.898438 14.121094 4.800781 14.214844 4.726562 C 14.308594 4.648438 14.457031 4.601562 14.644531 4.605469 C 14.648438 4.605469 14.648438 4.605469 14.648438 4.605469 C 14.84375 4.605469 15.003906 4.65625 15.097656 4.722656 C 15.195312 4.789062 15.230469 4.855469 15.230469 4.953125 C 15.230469 5.039062 15.277344 5.117188 15.347656 5.15625 C 15.421875 5.199219 15.511719 5.199219 15.582031 5.15625 C 15.65625 5.117188 15.699219 5.039062 15.699219 4.953125 C 15.699219 4.703125 15.5625 4.476562 15.367188 4.339844 C 15.226562 4.246094 15.0625 4.183594 14.882812 4.15625 L 14.882812 4.023438 C 14.882812 3.957031 14.832031 3.90625 14.765625 3.90625 Z M 16.398438 6.816406 C 16.269531 6.816406 16.164062 6.921875 16.164062 7.050781 C 16.164062 7.179688 16.269531 7.285156 16.398438 7.285156 L 16.980469 7.285156 C 17.109375 7.285156 17.210938 7.179688 17.210938 7.050781 C 17.210938 6.921875 17.109375 6.816406 16.980469 6.816406 Z M 16.398438 6.816406 "/>
</g>
</svg>
