<?xml version="1.0" encoding="UTF-8"?>
<svg xmlns="http://www.w3.org/2000/svg" xmlns:xlink="http://www.w3.org/1999/xlink" width="24px" height="24px" viewBox="0 0 24 24" version="1.1">
<defs>
<linearGradient id="linear0" gradientUnits="userSpaceOnUse" x1="275.166656" y1="-20.499998" x2="275.166656" y2="106.5" gradientTransform="matrix(0.046875,0,0,0.046875,0,10.078125)">
<stop offset="0" style="stop-color:rgb(87.843138%,87.843138%,87.843138%);stop-opacity:1;"/>
<stop offset="1" style="stop-color:rgb(93.333334%,93.333334%,93.333334%);stop-opacity:1;"/>
</linearGradient>
<linearGradient id="linear1" gradientUnits="userSpaceOnUse" x1="269.875" y1="-20.500025" x2="269.875" y2="106.500023" gradientTransform="matrix(0.09375,0,0,0.09375,-11.906242,8.062502)">
<stop offset="0" style="stop-color:rgb(87.843138%,87.843138%,87.843138%);stop-opacity:1;"/>
<stop offset="1" style="stop-color:rgb(93.333334%,93.333334%,93.333334%);stop-opacity:1;"/>
</linearGradient>
</defs>
<g id="surface1">
<path style=" stroke:none;fill-rule:nonzero;fill:rgb(67.058825%,27.843139%,73.725492%);fill-opacity:1;" d="M 11.90625 1.179688 C 17.933594 1.179688 22.820312 6.066406 22.820312 12.09375 C 22.820312 18.121094 17.933594 23.007812 11.90625 23.007812 C 5.878906 23.007812 0.992188 18.121094 0.992188 12.09375 C 0.992188 6.066406 5.878906 1.179688 11.90625 1.179688 Z M 11.90625 1.179688 "/>
<path style=" stroke:none;fill-rule:nonzero;fill:url(#linear0);" d="M 11.90625 9.117188 L 11.90625 15.070312 C 13.554688 15.070312 14.882812 13.742188 14.882812 12.09375 C 14.882812 10.445312 13.554688 9.117188 11.90625 9.117188 Z M 11.90625 9.117188 "/>
<path style=" stroke:none;fill-rule:nonzero;fill:rgb(93.333334%,93.333334%,93.333334%);fill-opacity:1;" d="M 11.90625 3.164062 L 11.90625 4.652344 C 16.027344 4.652344 19.347656 7.972656 19.347656 12.09375 C 19.347656 16.214844 16.027344 19.535156 11.90625 19.535156 L 11.90625 21.023438 C 16.851562 21.023438 20.835938 17.039062 20.835938 12.09375 C 20.835938 7.148438 16.851562 3.164062 11.90625 3.164062 Z M 11.90625 3.164062 "/>
<path style=" stroke:none;fill-rule:nonzero;fill:url(#linear1);" d="M 11.90625 6.140625 L 11.90625 7.628906 C 14.378906 7.628906 16.371094 9.621094 16.371094 12.09375 C 16.371094 14.566406 14.378906 16.558594 11.90625 16.558594 L 11.90625 18.046875 C 15.203125 18.046875 17.859375 15.390625 17.859375 12.09375 C 17.859375 8.796875 15.203125 6.140625 11.90625 6.140625 Z M 11.90625 6.140625 "/>
<path style=" stroke:none;fill-rule:nonzero;fill:rgb(93.333334%,93.333334%,93.333334%);fill-opacity:0.0784314;" d="M 11.90625 9.117188 L 11.90625 15.070312 C 10.257812 15.070312 8.929688 13.742188 8.929688 12.09375 C 8.929688 10.445312 10.257812 9.117188 11.90625 9.117188 Z M 11.90625 9.117188 "/>
<path style=" stroke:none;fill-rule:nonzero;fill:rgb(93.333334%,93.333334%,93.333334%);fill-opacity:0.0784314;" d="M 11.90625 3.164062 L 11.90625 4.652344 C 7.785156 4.652344 4.464844 7.972656 4.464844 12.09375 C 4.464844 16.214844 7.785156 19.535156 11.90625 19.535156 L 11.90625 21.023438 C 6.960938 21.023438 2.976562 17.039062 2.976562 12.09375 C 2.976562 7.148438 6.960938 3.164062 11.90625 3.164062 Z M 11.90625 3.164062 "/>
<path style=" stroke:none;fill-rule:nonzero;fill:rgb(93.333334%,93.333334%,93.333334%);fill-opacity:0.0784314;" d="M 11.90625 6.140625 L 11.90625 7.628906 C 9.433594 7.628906 7.441406 9.621094 7.441406 12.09375 C 7.441406 14.566406 9.433594 16.558594 11.90625 16.558594 L 11.90625 18.046875 C 8.609375 18.046875 5.953125 15.390625 5.953125 12.09375 C 5.953125 8.796875 8.609375 6.140625 11.90625 6.140625 Z M 11.90625 6.140625 "/>
</g>
</svg>
