<?xml version="1.0" encoding="UTF-8"?>
<svg xmlns="http://www.w3.org/2000/svg" xmlns:xlink="http://www.w3.org/1999/xlink" width="24px" height="24px" viewBox="0 0 24 24" version="1.1">
<g id="surface1">
<path style=" stroke:none;fill-rule:nonzero;fill:rgb(61.960787%,61.960787%,61.960787%);fill-opacity:1;" d="M 11.90625 1.179688 C 5.859375 1.179688 0.992188 6.046875 0.992188 12.09375 C 0.992188 18.140625 5.859375 23.007812 11.90625 23.007812 C 17.953125 23.007812 22.820312 18.140625 22.820312 12.09375 C 22.820312 6.046875 17.953125 1.179688 11.90625 1.179688 Z M 11.90625 9.117188 C 13.554688 9.117188 14.882812 10.445312 14.882812 12.09375 C 14.882812 13.742188 13.554688 15.070312 11.90625 15.070312 C 10.257812 15.070312 8.929688 13.742188 8.929688 12.09375 C 8.929688 10.445312 10.257812 9.117188 11.90625 9.117188 Z M 11.90625 9.117188 "/>
<path style=" stroke:none;fill-rule:nonzero;fill:rgb(93.333334%,93.333334%,93.333334%);fill-opacity:1;" d="M 11.90625 1.675781 C 6.132812 1.675781 1.488281 6.320312 1.488281 12.09375 C 1.488281 17.867188 6.132812 22.511719 11.90625 22.511719 C 17.679688 22.511719 22.324219 17.867188 22.324219 12.09375 C 22.324219 6.320312 17.679688 1.675781 11.90625 1.675781 Z M 11.90625 9.117188 C 13.554688 9.117188 14.882812 10.445312 14.882812 12.09375 C 14.882812 13.742188 13.554688 15.070312 11.90625 15.070312 C 10.257812 15.070312 8.929688 13.742188 8.929688 12.09375 C 8.929688 10.445312 10.257812 9.117188 11.90625 9.117188 Z M 11.90625 9.117188 "/>
<path style=" stroke:none;fill-rule:nonzero;fill:rgb(61.960787%,61.960787%,61.960787%);fill-opacity:1;" d="M 11.90625 7.132812 C 9.15625 7.132812 6.945312 9.34375 6.945312 12.09375 C 6.945312 14.84375 9.15625 17.054688 11.90625 17.054688 C 14.65625 17.054688 16.867188 14.84375 16.867188 12.09375 C 16.867188 9.34375 14.65625 7.132812 11.90625 7.132812 Z M 11.90625 10.605469 C 12.730469 10.605469 13.394531 11.269531 13.394531 12.09375 C 13.394531 12.917969 12.730469 13.582031 11.90625 13.582031 C 11.082031 13.582031 10.417969 12.917969 10.417969 12.09375 C 10.417969 11.269531 11.082031 10.605469 11.90625 10.605469 Z M 11.90625 10.605469 "/>
<path style=" stroke:none;fill-rule:nonzero;fill:rgb(74.117649%,74.117649%,74.117649%);fill-opacity:1;" d="M 3.96875 1.179688 L 11.90625 1.179688 C 12.453125 1.179688 12.898438 1.625 12.898438 2.171875 L 12.898438 10.605469 C 12.898438 11.152344 12.453125 11.597656 11.90625 11.597656 L 3.96875 11.597656 C 3.421875 11.597656 2.976562 11.152344 2.976562 10.605469 L 2.976562 2.171875 C 2.976562 1.625 3.421875 1.179688 3.96875 1.179688 Z M 3.96875 1.179688 "/>
<path style=" stroke:none;fill-rule:nonzero;fill:rgb(25.882354%,25.882354%,25.882354%);fill-opacity:1;" d="M 1.488281 12.589844 L 14.386719 12.589844 L 14.386719 19.535156 L 1.488281 19.535156 Z M 1.488281 12.589844 "/>
<path style=" stroke:none;fill-rule:nonzero;fill:rgb(100%,65.490198%,14.901961%);fill-opacity:1;" d="M 3.84375 2.667969 L 4.589844 2.667969 C 4.792969 2.667969 4.960938 2.890625 4.960938 3.164062 L 4.960938 7.132812 C 4.960938 7.40625 4.792969 7.628906 4.589844 7.628906 L 3.84375 7.628906 C 3.640625 7.628906 3.472656 7.40625 3.472656 7.132812 L 3.472656 3.164062 C 3.472656 2.890625 3.640625 2.667969 3.84375 2.667969 Z M 3.84375 2.667969 "/>
<path style=" stroke:none;fill-rule:nonzero;fill:rgb(100%,65.490198%,14.901961%);fill-opacity:1;" d="M 11.285156 2.667969 L 12.03125 2.667969 C 12.234375 2.667969 12.402344 2.890625 12.402344 3.164062 L 12.402344 7.132812 C 12.402344 7.40625 12.234375 7.628906 12.03125 7.628906 L 11.285156 7.628906 C 11.082031 7.628906 10.914062 7.40625 10.914062 7.132812 L 10.914062 3.164062 C 10.914062 2.890625 11.082031 2.667969 11.285156 2.667969 Z M 11.285156 2.667969 "/>
<path style=" stroke:none;fill-rule:nonzero;fill:rgb(100%,65.490198%,14.901961%);fill-opacity:1;" d="M 6.324219 4.15625 L 7.070312 4.15625 C 7.273438 4.15625 7.441406 4.378906 7.441406 4.652344 L 7.441406 7.132812 C 7.441406 7.40625 7.273438 7.628906 7.070312 7.628906 L 6.324219 7.628906 C 6.121094 7.628906 5.953125 7.40625 5.953125 7.132812 L 5.953125 4.652344 C 5.953125 4.378906 6.121094 4.15625 6.324219 4.15625 Z M 6.324219 4.15625 "/>
<path style=" stroke:none;fill-rule:nonzero;fill:rgb(100%,65.490198%,14.901961%);fill-opacity:1;" d="M 8.804688 4.15625 L 9.550781 4.15625 C 9.753906 4.15625 9.921875 4.378906 9.921875 4.652344 L 9.921875 7.132812 C 9.921875 7.40625 9.753906 7.628906 9.550781 7.628906 L 8.804688 7.628906 C 8.601562 7.628906 8.433594 7.40625 8.433594 7.132812 L 8.433594 4.652344 C 8.433594 4.378906 8.601562 4.15625 8.804688 4.15625 Z M 8.804688 4.15625 "/>
<path style=" stroke:none;fill-rule:nonzero;fill:rgb(38.039216%,38.039216%,38.039216%);fill-opacity:1;" d="M 1.984375 9.117188 C 1.433594 9.117188 0.992188 9.558594 0.992188 10.109375 L 0.992188 13.085938 L 14.882812 13.085938 L 14.882812 10.109375 C 14.882812 9.558594 14.441406 9.117188 13.890625 9.117188 Z M 1.984375 9.117188 "/>
<path style=" stroke:none;fill-rule:nonzero;fill:rgb(38.039216%,38.039216%,38.039216%);fill-opacity:1;" d="M 1.984375 23.007812 C 1.433594 23.007812 0.992188 22.566406 0.992188 22.015625 L 0.992188 19.039062 L 14.882812 19.039062 L 14.882812 22.015625 C 14.882812 22.566406 14.441406 23.007812 13.890625 23.007812 Z M 1.984375 23.007812 "/>
</g>
</svg>
