<?xml version="1.0" encoding="UTF-8"?>
<svg xmlns="http://www.w3.org/2000/svg" xmlns:xlink="http://www.w3.org/1999/xlink" width="48px" height="48px" viewBox="0 0 48 48" version="1.1">
<g id="surface1">
<path style=" stroke:none;fill-rule:nonzero;fill:rgb(36.862746%,20.784314%,69.411767%);fill-opacity:1;" d="M 6.945312 5.335938 L 43.65625 5.335938 C 44.753906 5.335938 45.640625 6.222656 45.640625 7.320312 L 45.640625 19.226562 C 45.640625 20.324219 44.753906 21.210938 43.65625 21.210938 L 6.945312 21.210938 C 5.847656 21.210938 4.960938 20.324219 4.960938 19.226562 L 4.960938 7.320312 C 4.960938 6.222656 5.847656 5.335938 6.945312 5.335938 Z M 6.945312 5.335938 "/>
<path style=" stroke:none;fill-rule:nonzero;fill:rgb(96.078432%,96.078432%,96.078432%);fill-opacity:1;" d="M 23.8125 11.289062 L 43.65625 11.289062 C 44.203125 11.289062 44.648438 11.734375 44.648438 12.28125 L 44.648438 19.226562 C 44.648438 19.773438 44.203125 20.21875 43.65625 20.21875 L 23.8125 20.21875 C 23.265625 20.21875 22.820312 19.773438 22.820312 19.226562 L 22.820312 12.28125 C 22.820312 11.734375 23.265625 11.289062 23.8125 11.289062 Z M 23.8125 11.289062 "/>
<path style=" stroke:none;fill-rule:nonzero;fill:rgb(49.411765%,34.117648%,76.078433%);fill-opacity:1;" d="M 3.96875 9.304688 C 2.871094 9.304688 1.984375 10.191406 1.984375 11.289062 L 1.984375 41.054688 C 1.984375 42.152344 2.871094 43.039062 3.96875 43.039062 L 43.65625 43.039062 C 44.753906 43.039062 45.640625 42.152344 45.640625 41.054688 L 45.640625 18.234375 C 45.640625 17.136719 44.753906 16.265625 43.65625 16.25 L 30.757812 16.25 C 29.660156 16.25 28.773438 15.363281 28.773438 14.265625 L 28.773438 11.289062 C 28.773438 10.191406 27.886719 9.304688 26.789062 9.304688 Z M 3.96875 9.304688 "/>
<path style=" stroke:none;fill-rule:nonzero;fill:rgb(100%,100%,100%);fill-opacity:0.313726;" d="M 6.945312 25.179688 C 5.847656 25.179688 4.960938 26.066406 4.960938 27.164062 C 4.960938 28.09375 5.589844 28.867188 6.449219 29.085938 L 6.449219 38.054688 C 6.449219 38.058594 6.449219 38.0625 6.449219 38.066406 C 6.449219 38.070312 6.449219 38.074219 6.449219 38.078125 C 6.449219 38.351562 6.671875 38.574219 6.945312 38.574219 L 9.960938 38.574219 C 10.199219 39.984375 11.417969 41.054688 12.898438 41.054688 C 14.378906 41.054688 15.597656 39.984375 15.835938 38.574219 L 18.851562 38.574219 C 18.855469 38.574219 18.859375 38.574219 18.863281 38.574219 C 18.867188 38.574219 18.871094 38.574219 18.875 38.574219 C 19.160156 38.574219 19.394531 38.34375 19.394531 38.054688 L 19.394531 29.074219 C 20.226562 28.839844 20.835938 28.074219 20.835938 27.164062 C 20.835938 26.066406 19.949219 25.179688 18.851562 25.179688 C 17.753906 25.179688 16.867188 26.066406 16.867188 27.164062 C 16.867188 28.09375 17.496094 28.867188 18.355469 29.085938 L 18.355469 37.582031 L 15.832031 37.582031 C 15.625 36.332031 14.644531 35.351562 13.394531 35.144531 L 13.394531 32.558594 C 14.253906 32.339844 14.882812 31.566406 14.882812 30.636719 C 14.882812 29.539062 13.996094 28.652344 12.898438 28.652344 C 11.800781 28.652344 10.914062 29.539062 10.914062 30.636719 C 10.914062 31.566406 11.542969 32.339844 12.402344 32.558594 L 12.402344 35.144531 C 11.152344 35.351562 10.171875 36.332031 9.964844 37.582031 L 7.488281 37.582031 L 7.488281 29.074219 C 8.320312 28.835938 8.929688 28.074219 8.929688 27.164062 C 8.929688 26.066406 8.042969 25.179688 6.945312 25.179688 Z M 6.945312 25.179688 "/>
</g>
</svg>
