<?xml version="1.0" encoding="UTF-8"?>
<svg xmlns="http://www.w3.org/2000/svg" xmlns:xlink="http://www.w3.org/1999/xlink" width="16px" height="16px" viewBox="0 0 16 16" version="1.1">
<g id="surface1">
<path style=" stroke:none;fill-rule:nonzero;fill:rgb(89.803922%,22.352941%,20.784314%);fill-opacity:1;" d="M 2.644531 0.785156 L 13.230469 0.785156 C 13.59375 0.785156 13.890625 1.082031 13.890625 1.449219 L 13.890625 14.675781 C 13.890625 15.042969 13.59375 15.339844 13.230469 15.339844 L 2.644531 15.339844 C 2.28125 15.339844 1.984375 15.042969 1.984375 14.675781 L 1.984375 1.449219 C 1.984375 1.082031 2.28125 0.785156 2.644531 0.785156 Z M 2.644531 0.785156 "/>
<path style=" stroke:none;fill-rule:nonzero;fill:rgb(96.078432%,96.078432%,96.078432%);fill-opacity:1;" d="M 3.636719 1.117188 L 13.230469 1.117188 C 13.410156 1.117188 13.558594 1.265625 13.558594 1.449219 L 13.558594 14.675781 C 13.558594 14.859375 13.410156 15.007812 13.230469 15.007812 L 3.636719 15.007812 C 3.457031 15.007812 3.308594 14.859375 3.308594 14.675781 L 3.308594 1.449219 C 3.308594 1.265625 3.457031 1.117188 3.636719 1.117188 Z M 3.636719 1.117188 "/>
<path style=" stroke:none;fill-rule:nonzero;fill:rgb(93.725491%,32.549021%,31.37255%);fill-opacity:1;" d="M 2.644531 0.785156 L 12.566406 0.785156 C 12.933594 0.785156 13.230469 1.082031 13.230469 1.449219 L 13.230469 14.675781 C 13.230469 15.042969 12.933594 15.339844 12.566406 15.339844 L 2.644531 15.339844 C 2.28125 15.339844 1.984375 15.042969 1.984375 14.675781 L 1.984375 1.449219 C 1.984375 1.082031 2.28125 0.785156 2.644531 0.785156 Z M 2.644531 0.785156 "/>
<path style=" stroke:none;fill-rule:nonzero;fill:rgb(89.803922%,22.352941%,20.784314%);fill-opacity:1;" d="M 2.644531 0.785156 C 2.28125 0.785156 1.984375 1.082031 1.984375 1.449219 L 1.984375 14.675781 C 1.984375 15.042969 2.28125 15.339844 2.644531 15.339844 L 3.96875 15.339844 L 3.96875 0.785156 Z M 2.644531 0.785156 "/>
<path style=" stroke:none;fill-rule:nonzero;fill:rgb(93.725491%,60.392159%,60.392159%);fill-opacity:1;" d="M 9.261719 0.785156 L 10.582031 0.785156 L 10.582031 9.386719 L 9.921875 8.394531 L 9.261719 9.386719 Z M 9.261719 0.785156 "/>
</g>
</svg>
