
<svg xmlns="http://www.w3.org/2000/svg" xmlns:xlink="http://www.w3.org/1999/xlink" width="16px" height="16px" viewBox="0 0 16 16" version="1.1">
<g id="surface1">
<path style=" stroke:none;fill-rule:nonzero;fill:rgb(55.29412%,43.137255%,38.82353%);fill-opacity:1;" d="M 1.324219 0.660156 L 14.550781 0.660156 C 14.917969 0.660156 15.214844 0.957031 15.214844 1.324219 L 15.214844 14.550781 C 15.214844 14.917969 14.917969 15.214844 14.550781 15.214844 L 1.324219 15.214844 C 0.957031 15.214844 0.660156 14.917969 0.660156 14.550781 L 0.660156 1.324219 C 0.660156 0.957031 0.957031 0.660156 1.324219 0.660156 Z M 1.324219 0.660156 "/>
<path style=" stroke:none;fill-rule:nonzero;fill:rgb(93.333334%,93.333334%,93.333334%);fill-opacity:1;" d="M 6.613281 0.660156 L 6.613281 6.613281 L 5.292969 6.613281 L 7.9375 9.261719 L 10.582031 6.613281 L 9.261719 6.613281 L 9.261719 0.660156 Z M 6.613281 0.660156 "/>
<path style=" stroke:none;fill-rule:nonzero;fill:rgb(93.333334%,93.333334%,93.333334%);fill-opacity:1;" d="M 9.96875 7.890625 L 8.785156 9.074219 C 8.875 9.222656 8.929688 9.402344 8.929688 9.589844 C 8.929688 10.140625 8.488281 10.582031 7.9375 10.582031 C 7.386719 10.582031 6.945312 10.140625 6.945312 9.589844 C 6.945312 9.402344 7 9.222656 7.089844 9.074219 L 5.90625 7.890625 C 5.8125 8.007812 5.722656 8.132812 5.644531 8.269531 C 5.542969 8.445312 5.464844 8.628906 5.40625 8.8125 C 5.453125 8.828125 5.496094 8.851562 5.539062 8.875 C 5.785156 9.015625 5.953125 9.285156 5.953125 9.589844 C 5.953125 9.949219 5.726562 10.253906 5.40625 10.371094 C 5.523438 10.746094 5.722656 11.097656 6 11.394531 C 6.257812 11.175781 6.632812 11.128906 6.945312 11.308594 C 7.257812 11.488281 7.40625 11.839844 7.347656 12.171875 C 7.742188 12.261719 8.144531 12.261719 8.527344 12.171875 C 8.46875 11.839844 8.617188 11.488281 8.929688 11.308594 C 9.195312 11.15625 9.511719 11.167969 9.757812 11.308594 C 9.800781 11.335938 9.839844 11.363281 9.875 11.394531 C 10.007812 11.25 10.128906 11.089844 10.230469 10.914062 C 10.332031 10.738281 10.410156 10.554688 10.46875 10.371094 C 10.148438 10.253906 9.921875 9.949219 9.921875 9.589844 C 9.921875 9.230469 10.148438 8.925781 10.46875 8.8125 C 10.367188 8.480469 10.195312 8.164062 9.96875 7.890625 Z M 9.96875 7.890625 "/>
<path style=" stroke:none;fill-rule:nonzero;fill:rgb(42.745098%,29.803923%,25.490198%);fill-opacity:1;" d="M 2.316406 13.230469 L 2.976562 13.230469 L 2.976562 13.890625 L 2.316406 13.890625 Z M 2.316406 13.230469 "/>
<path style=" stroke:none;fill-rule:nonzero;fill:rgb(42.745098%,29.803923%,25.490198%);fill-opacity:1;" d="M 3.636719 13.230469 L 4.300781 13.230469 L 4.300781 13.890625 L 3.636719 13.890625 Z M 3.636719 13.230469 "/>
<path style=" stroke:none;fill-rule:nonzero;fill:rgb(42.745098%,29.803923%,25.490198%);fill-opacity:1;" d="M 4.960938 13.230469 L 5.621094 13.230469 L 5.621094 13.890625 L 4.960938 13.890625 Z M 4.960938 13.230469 "/>
</g>
</svg>
