<?xml version="1.0" encoding="UTF-8"?>
<svg xmlns="http://www.w3.org/2000/svg" xmlns:xlink="http://www.w3.org/1999/xlink" width="16px" height="16px" viewBox="0 0 16 16" version="1.1">
<g id="surface1">
<path style=" stroke:none;fill-rule:nonzero;fill:rgb(14.901961%,77.64706%,85.490197%);fill-opacity:1;" d="M 2.644531 0.785156 C 2.28125 0.785156 1.984375 1.082031 1.984375 1.449219 L 1.984375 8.296875 L 3.472656 7.445312 C 3.523438 7.417969 3.578125 7.402344 3.632812 7.402344 C 3.699219 7.402344 3.765625 7.421875 3.820312 7.457031 L 5.636719 8.667969 L 7.773438 7.445312 C 7.875 7.386719 8 7.386719 8.101562 7.445312 L 10.238281 8.667969 L 12.054688 7.457031 C 12.164062 7.382812 12.308594 7.382812 12.421875 7.457031 L 13.890625 8.4375 L 13.890625 4.09375 L 10.582031 0.785156 Z M 2.644531 0.785156 "/>
<path style=" stroke:none;fill-rule:nonzero;fill:rgb(45.882353%,45.882353%,45.882353%);fill-opacity:1;" d="M 7.9375 8.113281 L 5.785156 9.339844 C 5.675781 9.402344 5.542969 9.398438 5.4375 9.328125 L 3.625 8.121094 L 1.984375 9.058594 L 1.984375 14.675781 C 1.984375 15.042969 2.28125 15.339844 2.644531 15.339844 L 13.230469 15.339844 C 13.59375 15.339844 13.890625 15.042969 13.890625 14.675781 L 13.890625 9.230469 L 12.238281 8.128906 L 10.4375 9.328125 C 10.332031 9.398438 10.199219 9.402344 10.089844 9.339844 Z M 7.9375 8.113281 "/>
<path style=" stroke:none;fill-rule:nonzero;fill:rgb(0%,67.450982%,75.686276%);fill-opacity:1;" d="M 13.890625 4.09375 L 10.582031 0.785156 L 10.582031 3.433594 C 10.582031 3.796875 10.878906 4.09375 11.246094 4.09375 Z M 13.890625 4.09375 "/>
</g>
</svg>
