<?xml version="1.0" encoding="UTF-8"?>
<svg xmlns="http://www.w3.org/2000/svg" xmlns:xlink="http://www.w3.org/1999/xlink" width="64px" height="64px" viewBox="0 0 64 64" version="1.1">
<g id="surface1">
<path style=" stroke:none;fill-rule:nonzero;fill:rgb(55.29412%,43.137255%,38.82353%);fill-opacity:1;" d="M 5.292969 3.144531 L 58.207031 3.144531 C 59.667969 3.144531 60.855469 4.332031 60.855469 5.792969 L 60.855469 58.707031 C 60.855469 60.167969 59.667969 61.355469 58.207031 61.355469 L 5.292969 61.355469 C 3.832031 61.355469 2.644531 60.167969 2.644531 58.707031 L 2.644531 5.792969 C 2.644531 4.332031 3.832031 3.144531 5.292969 3.144531 Z M 5.292969 3.144531 "/>
<path style=" stroke:none;fill-rule:nonzero;fill:rgb(63.137257%,53.333336%,49.803922%);fill-opacity:1;" d="M 5.292969 3.144531 C 3.824219 3.144531 2.644531 4.324219 2.644531 5.792969 L 2.644531 6.121094 L 60.855469 6.121094 L 60.855469 5.792969 C 60.855469 4.324219 59.675781 3.144531 58.207031 3.144531 Z M 5.292969 3.144531 "/>
<path style=" stroke:none;fill-rule:nonzero;fill:rgb(73.725492%,66.666669%,64.313728%);fill-opacity:1;" d="M 26.457031 6.121094 L 26.457031 33.574219 L 21.167969 33.574219 L 31.75 44.15625 L 42.332031 33.574219 L 37.042969 33.574219 L 37.042969 6.121094 Z M 26.457031 6.121094 "/>
<path style=" stroke:none;fill-rule:nonzero;fill:rgb(84.313726%,80.000001%,78.431374%);fill-opacity:1;" d="M 26.789062 3.144531 L 36.710938 3.144531 L 37.042969 6.121094 L 26.457031 6.121094 Z M 26.789062 3.144531 "/>
</g>
</svg>
