<?xml version="1.0" encoding="UTF-8"?>
<svg xmlns="http://www.w3.org/2000/svg" xmlns:xlink="http://www.w3.org/1999/xlink" width="64px" height="64px" viewBox="0 0 64 64" version="1.1">
<g id="surface1">
<path style=" stroke:none;fill-rule:nonzero;fill:rgb(38.039216%,38.039216%,38.039216%);fill-opacity:1;" d="M 42.332031 3.144531 L 10.582031 3.144531 C 9.117188 3.144531 7.9375 4.324219 7.9375 5.792969 L 7.9375 58.707031 C 7.9375 60.175781 9.117188 61.355469 10.582031 61.355469 L 52.917969 61.355469 C 54.382812 61.355469 55.5625 60.175781 55.5625 58.707031 L 55.5625 16.375 Z M 42.332031 3.144531 "/>
<path style=" stroke:none;fill-rule:nonzero;fill:rgb(25.882354%,25.882354%,25.882354%);fill-opacity:1;" d="M 55.5625 16.375 L 42.332031 3.144531 L 42.332031 13.730469 C 42.332031 15.195312 43.511719 16.375 44.980469 16.375 Z M 55.5625 16.375 "/>
<path style=" stroke:none;fill-rule:nonzero;fill:rgb(96.078432%,96.078432%,96.078432%);fill-opacity:1;" d="M 25.136719 22.988281 L 38.363281 22.988281 C 38.730469 22.988281 39.027344 23.285156 39.027344 23.652344 L 39.027344 24.972656 C 39.027344 25.339844 38.730469 25.636719 38.363281 25.636719 L 25.136719 25.636719 C 24.769531 25.636719 24.472656 25.339844 24.472656 24.972656 L 24.472656 23.652344 C 24.472656 23.285156 24.769531 22.988281 25.136719 22.988281 Z M 25.136719 22.988281 "/>
<path style=" stroke:none;fill-rule:nonzero;fill:rgb(96.078432%,96.078432%,96.078432%);fill-opacity:1;" d="M 25.136719 41.511719 L 38.363281 41.511719 C 38.730469 41.511719 39.027344 41.804688 39.027344 42.171875 L 39.027344 43.496094 C 39.027344 43.859375 38.730469 44.15625 38.363281 44.15625 L 25.136719 44.15625 C 24.769531 44.15625 24.472656 43.859375 24.472656 43.496094 L 24.472656 42.171875 C 24.472656 41.804688 24.769531 41.511719 25.136719 41.511719 Z M 25.136719 41.511719 "/>
<path style=" stroke:none;fill-rule:nonzero;fill:rgb(96.078432%,96.078432%,96.078432%);fill-opacity:1;" d="M 25.777344 22.96875 C 25.046875 22.980469 24.460938 23.582031 24.472656 24.3125 C 24.472656 27.730469 26.296875 30.03125 28.179688 31.351562 C 28.828125 31.804688 29.460938 32.132812 30.066406 32.417969 C 27.667969 33.964844 24.472656 36.824219 24.472656 41.511719 C 24.464844 41.988281 24.714844 42.433594 25.128906 42.671875 C 25.542969 42.914062 26.050781 42.914062 26.464844 42.671875 C 26.878906 42.433594 27.128906 41.988281 27.121094 41.511719 C 27.121094 36.441406 32.183594 34.175781 33.664062 33.433594 C 34.113281 33.210938 34.398438 32.75 34.398438 32.25 C 34.398438 31.75 34.113281 31.289062 33.664062 31.066406 C 33.136719 30.800781 32.582031 30.636719 31.886719 30.347656 C 31.191406 30.054688 30.410156 29.679688 29.699219 29.179688 C 28.273438 28.183594 27.121094 26.847656 27.121094 24.3125 C 27.125 23.953125 26.984375 23.609375 26.734375 23.355469 C 26.480469 23.105469 26.132812 22.964844 25.777344 22.96875 Z M 25.777344 22.96875 "/>
</g>
</svg>
