<?xml version="1.0" encoding="UTF-8"?>
<svg xmlns="http://www.w3.org/2000/svg" xmlns:xlink="http://www.w3.org/1999/xlink" width="16px" height="16px" viewBox="0 0 16 16" version="1.1">
<g id="surface1">
<defs>
  <style id="current-color-scheme" type="text/css">
   .ColorScheme-Text { color:#eeeeee; } .ColorScheme-Highlight { color:#424242; }
  </style>
 </defs>
<path style="fill:currentColor" class="ColorScheme-Text" d="M 6 1 L 6 6.664062 L 2 4 L 2 6 L 4.664062 8 L 2 10 L 2 12 L 6 9.332031 L 6 15 L 14 11 L 8 8 L 14 5 Z M 8 4 L 10 5 L 8 6 Z M 14 7 C 13.445312 7 13 7.445312 13 8 C 13 8.554688 13.445312 9 14 9 C 14.554688 9 15 8.554688 15 8 C 15 7.445312 14.554688 7 14 7 Z M 8 10 L 10 11 L 8 12 Z M 8 10 "/>
</g>
</svg>
