<?xml version="1.0" encoding="UTF-8"?>
<svg xmlns="http://www.w3.org/2000/svg" xmlns:xlink="http://www.w3.org/1999/xlink" width="16px" height="16px" viewBox="0 0 16 16" version="1.1">
<g id="surface1">
     <defs>
  <style id="current-color-scheme" type="text/css">
   .ColorScheme-Text { color:#eeeeee; } .ColorScheme-Highlight { color:#3f3f3f; }
  </style>
 </defs>
<path style="fill:currentColor;fill-opacity:0.392157" class="ColorScheme-Text" d="M 8 2 C 5.324219 2 2.84375 2.800781 0.785156 4.175781 L 1.894531 5.839844 C 3.640625 4.679688 5.738281 4 8 4 C 10.261719 4 12.359375 4.679688 14.105469 5.839844 L 15.214844 4.175781 C 13.15625 2.800781 10.675781 2 8 2 Z M 8 5 C 5.941406 5 4.035156 5.617188 2.449219 6.671875 L 3.558594 8.339844 C 4.828125 7.492188 6.355469 7 8 7 C 9.644531 7 11.171875 7.492188 12.441406 8.339844 L 13.550781 6.671875 C 11.964844 5.617188 10.058594 5 8 5 Z M 8 8 C 6.558594 8 5.222656 8.429688 4.113281 9.171875 L 5.222656 10.835938 C 6.015625 10.308594 6.972656 10 8 10 C 9.027344 10 9.984375 10.308594 10.777344 10.835938 L 11.886719 9.171875 C 10.777344 8.429688 9.441406 8 8 8 Z M 8 11 C 7.167969 11 6.5 11.667969 6.5 12.5 C 6.5 13.332031 7.167969 14 8 14 C 8.832031 14 9.5 13.332031 9.5 12.5 C 9.5 11.667969 8.832031 11 8 11 Z M 8 11 "/>
</g>
</svg>
