
<svg xmlns="http://www.w3.org/2000/svg" xmlns:xlink="http://www.w3.org/1999/xlink" width="16px" height="16px" viewBox="0 0 16 16" version="1.1">
<g id="surface1">
<defs>
  <style id="current-color-scheme" type="text/css">
   .ColorScheme-Text { color:#eeeeee; } .ColorScheme-Highlight { color:#424242; }
  </style>
 </defs>
<path style="fill:currentColor;fill-opacity:0.5" class="ColorScheme-Text" d="M 8 1 C 4.585938 1 1.757812 3.421875 1.132812 6.648438 L 3.453125 5.9375 C 4.238281 4.203125 5.96875 3 8 3 C 8.957031 3 9.835938 3.277344 10.59375 3.742188 L 12.929688 3.023438 C 11.667969 1.769531 9.925781 1 8 1 Z M 12.972656 3.066406 L 12.152344 5.207031 C 12.6875 6.003906 13 6.964844 13 8 C 13 10.347656 11.390625 12.289062 9.21875 12.832031 L 8.390625 14.980469 C 12.085938 14.777344 15 11.746094 15 8 C 15 6.070312 14.226562 4.328125 12.972656 3.066406 Z M 12 4 L 2 7.078125 L 5.078125 9.382812 L 7.382812 7.84375 L 5.84375 10.15625 L 8.15625 14 Z M 1.113281 6.773438 C 1.042969 7.171875 1 7.582031 1 8 C 1 11.878906 4.121094 15 8 15 C 8.125 15 8.25 14.988281 8.375 14.984375 L 7.136719 12.921875 C 4.847656 12.523438 3.101562 10.582031 3.007812 8.199219 Z M 1.113281 6.773438 "/>
</g>
</svg>
