<?xml version="1.0" encoding="UTF-8"?>
<svg xmlns="http://www.w3.org/2000/svg" xmlns:xlink="http://www.w3.org/1999/xlink" width="16px" height="16px" viewBox="0 0 16 16" version="1.1">
<g id="surface1">
     <defs>
  <style id="current-color-scheme" type="text/css">
   .ColorScheme-Text { color:#eeeeee; } .ColorScheme-Highlight { color:#424242; }
  </style>
 </defs>
<path style="fill:currentColor" class="ColorScheme-Text" d="M 8 1 C 4.121094 1 1 4.121094 1 8 C 1 11.878906 4.121094 15 8 15 C 8.339844 15 8.671875 14.972656 9 14.929688 L 9 12.902344 C 8.675781 12.964844 8.34375 13 8 13 C 5.230469 13 3 10.769531 3 8 C 3 5.230469 5.230469 3 8 3 C 10.769531 3 13 5.230469 13 8 C 13 8.34375 12.964844 8.675781 12.902344 9 L 14.929688 9 C 14.972656 8.671875 15 8.339844 15 8 C 15 4.121094 11.878906 1 8 1 Z M 8 4 L 5 7 L 7 7 L 7 11 L 9 11 L 9 7 L 11 7 Z M 8 4 "/>
<path style=" stroke:none;fill-rule:nonzero;fill:rgb(93.725491%,32.549021%,31.37255%);fill-opacity:1;" d="M 13 11 C 14.105469 11 15 11.894531 15 13 C 15 14.105469 14.105469 15 13 15 C 11.894531 15 11 14.105469 11 13 C 11 11.894531 11.894531 11 13 11 Z M 13 11 "/>
</g>
</svg>
