<?xml version="1.0" encoding="UTF-8"?>
<svg xmlns="http://www.w3.org/2000/svg" xmlns:xlink="http://www.w3.org/1999/xlink" width="22px" height="22px" viewBox="0 0 22 22" version="1.1">
<g id="surface1">
<defs>
  <style id="current-color-scheme" type="text/css">
   .ColorScheme-Text { color:#eeeeee; } .ColorScheme-Highlight { color:#424242; }
  </style>
 </defs>
<path style="fill:currentColor" class="ColorScheme-Text" d="M 18 12 L 17 12 L 17 15 L 12 15 L 12 12 L 10 12 L 10 17 L 5 17 L 5 12 L 4 12 L 4 10 L 5 10 L 5 5 L 10 5 L 10 10 L 12 10 L 12 7 L 17 7 L 17 10 L 18 10 Z M 15 13 L 15 9 L 14 9 L 14 13 Z M 8 15 L 8 7 L 7 7 L 7 15 Z M 8 15 "/>
</g>
</svg>
