<?xml version="1.0" encoding="UTF-8"?>
<svg xmlns="http://www.w3.org/2000/svg" xmlns:xlink="http://www.w3.org/1999/xlink" width="22px" height="22px" viewBox="0 0 22 22" version="1.1">
<g id="surface1">
<defs>
  <style id="current-color-scheme" type="text/css">
   .ColorScheme-Text { color:#eeeeee; } .ColorScheme-Highlight { color:#424242; }
  </style>
 </defs>
<path style="fill:currentColor" class="ColorScheme-Text" d="M 5 4 L 5 6 L 7 6 L 7 4 Z M 7 6 L 7 8 L 9 8 L 9 6 Z M 9 6 L 11 6 L 11 4 L 9 4 Z M 11 6 L 11 8 L 13 8 L 13 6 Z M 13 6 L 15 6 L 15 4 L 13 4 Z M 15 6 L 15 8 L 17 8 L 17 6 Z M 7 8 L 5 8 L 5 10 L 7 10 Z M 13.050781 9.0625 C 10.835938 9.0625 9.050781 10.847656 9.050781 13.066406 C 9.050781 15.28125 10.835938 17.0625 13.050781 17.0625 C 13.792969 17.0625 14.484375 16.859375 15.082031 16.511719 L 16.585938 18.015625 L 18 16.601562 L 16.496094 15.09375 C 16.847656 14.5 17.050781 13.808594 17.050781 13.066406 C 17.050781 10.847656 15.265625 9.0625 13.050781 9.0625 Z M 13.050781 11.0625 C 14.160156 11.0625 15.050781 11.957031 15.050781 13.066406 C 15.050781 14.171875 14.160156 15.0625 13.050781 15.0625 C 11.941406 15.0625 11.050781 14.171875 11.050781 13.066406 C 11.050781 11.957031 11.941406 11.0625 13.050781 11.0625 Z M 5 12 L 5 18 L 8 18 L 8 16 L 7 16 L 7 12 Z M 5 12 "/>
</g>
</svg>
