<?xml version="1.0" encoding="UTF-8"?>
<svg xmlns="http://www.w3.org/2000/svg" xmlns:xlink="http://www.w3.org/1999/xlink" width="22px" height="22px" viewBox="0 0 22 22" version="1.1">
<g id="surface1">
<defs>
  <style id="current-color-scheme" type="text/css">
   .ColorScheme-Text { color:#eeeeee; } .ColorScheme-Highlight { color:#424242; }
  </style>
 </defs>
<path style="fill:currentColor" class="ColorScheme-Text" d="M 5 18 L 5 12 L 7 12 L 7 16 L 15 16 L 15 10 L 17 10 L 17 18 Z M 15 10 L 13 10 L 13 8 L 15 8 Z M 15 8 L 15 6 L 17 6 L 17 8 Z M 15 6 L 13 6 L 13 4 L 15 4 Z M 13 6 L 13 8 L 11 8 L 11 6 Z M 11 6 L 9 6 L 9 4 L 11 4 Z M 9 6 L 9 8 L 7 8 L 7 6 Z M 7 6 L 5 6 L 5 4 L 7 4 Z M 7 8 L 7 10 L 5 10 L 5 8 Z M 9 8 L 11 8 L 11 10 L 9 10 Z M 9 8 "/>
</g>
</svg>
