
<svg xmlns="http://www.w3.org/2000/svg" xmlns:xlink="http://www.w3.org/1999/xlink" width="22px" height="22px" viewBox="0 0 22 22" version="1.1">
<g id="surface1">
<defs>
  <style id="current-color-scheme" type="text/css">
   .ColorScheme-Text { color:#eeeeee; } .ColorScheme-Highlight { color:#424242; }
  </style>
 </defs>
<path style="fill:currentColor" class="ColorScheme-Text" d="M 14.136719 3.574219 L 6.132812 17.429688 L 7.867188 18.429688 L 15.863281 4.574219 Z M 4 4 L 4 6 L 11.578125 6 L 12.730469 4 Z M 16.875 4 L 17.230469 4.207031 L 16.195312 6 L 18 6 L 18 4 Z M 4 7 L 4 9 L 6 9 L 6 7 Z M 16 7 L 16 9 L 18 9 L 18 7 Z M 4 10 L 4 12 L 8.113281 12 L 9.269531 10 Z M 13.886719 10 L 12.734375 12 L 18 12 L 18 10 Z M 4 13 L 4 15 L 6 15 L 6 13 Z M 16 13 L 16 15 L 18 15 L 18 13 Z M 4 16 L 4 18 L 5.121094 18 L 4.769531 17.792969 L 5.804688 16 Z M 10.425781 16 L 9.269531 18 L 18 18 L 18 16 Z M 10.425781 16 "/>
</g>
</svg>
