
<svg xmlns="http://www.w3.org/2000/svg" xmlns:xlink="http://www.w3.org/1999/xlink" width="22px" height="22px" viewBox="0 0 22 22" version="1.1">
<g id="surface1">
<defs>
  <style id="current-color-scheme" type="text/css">
   .ColorScheme-Text { color:#eeeeee; } .ColorScheme-Highlight { color:#424242; }
  </style>
 </defs>
<path style="fill:currentColor" class="ColorScheme-Text" d="M 4 6 L 4 17 L 12 17 L 12 15 L 6 15 L 6 8.835938 L 11 13 L 16 8.835938 L 16 11 L 18 11 L 18 6 Z M 7.25 8 L 14.75 8 L 11 11 Z M 14 13 L 14 14 L 15 14 L 15 13 Z M 15 14 L 15 15 L 16 15 L 16 14 Z M 16 14 L 17 14 L 17 13 L 16 13 Z M 17 14 L 17 15 L 18 15 L 18 14 Z M 17 15 L 16 15 L 16 16 L 17 16 Z M 17 16 L 17 17 L 18 17 L 18 16 Z M 16 16 L 15 16 L 15 17 L 16 17 Z M 15 16 L 15 15 L 14 15 L 14 16 Z M 15 16 "/>
</g>
</svg>
