<?xml version="1.0" encoding="UTF-8"?>
<svg xmlns="http://www.w3.org/2000/svg" xmlns:xlink="http://www.w3.org/1999/xlink" width="22px" height="22px" viewBox="0 0 22 22" version="1.1">
<g id="surface1">
     <defs>
  <style id="current-color-scheme" type="text/css">
   .ColorScheme-Text { color:#eeeeee; } .ColorScheme-Highlight { color:#424242; }
  </style>
 </defs>
<path style="fill:currentColor" class="ColorScheme-Text" d="M 5 4 L 5 7 L 4 7 L 4 9 L 5 9 L 5 12 L 9 12 L 9 10 L 7 10 L 7 6 L 9 6 L 9 4 Z M 13 4 L 13 6 L 15 6 L 15 10 L 17 10 L 17 9 L 18 9 L 18 7 L 17 7 L 17 4 Z M 9 7 L 9 9 L 13 9 L 13 7 Z M 9 7 "/>
<path style=" stroke:none;fill-rule:nonzero;fill:rgb(93.725491%,32.549021%,31.37255%);fill-opacity:1;" d="M 13.585938 12.171875 L 12.171875 13.585938 L 13.585938 15 L 12.171875 16.414062 L 13.585938 17.828125 L 15 16.414062 L 16.414062 17.828125 L 17.828125 16.414062 L 16.414062 15 L 17.828125 13.585938 L 16.414062 12.171875 L 15 13.585938 Z M 13.585938 12.171875 "/>
</g>
</svg>
