
<svg xmlns="http://www.w3.org/2000/svg" xmlns:xlink="http://www.w3.org/1999/xlink" width="22px" height="22px" viewBox="0 0 22 22" version="1.1">
<g id="surface1">
<defs>
  <style id="current-color-scheme" type="text/css">
   .ColorScheme-Text { color:#eeeeee; } .ColorScheme-Highlight { color:#424242; }
  </style>
 </defs>
<path style="fill:currentColor;fill-opacity:0.5" class="ColorScheme-Text" d="M 9 4 C 6.785156 4 5 5.785156 5 8 L 5 18 L 7 18 L 7 14 L 13 14 L 13 18 L 14 18 L 14 13 L 15 13 L 15 8 C 15 5.785156 13.214844 4 11 4 Z M 9 6 L 11 6 C 12.109375 6 13 6.890625 13 8 L 13 12 L 7 12 L 7 8 C 7 6.890625 7.890625 6 9 6 Z M 15 14 L 15 18 L 18 16 Z M 15 14 "/>
</g>
</svg>
