
<svg xmlns="http://www.w3.org/2000/svg" xmlns:xlink="http://www.w3.org/1999/xlink" width="22px" height="22px" viewBox="0 0 22 22" version="1.1">
<g id="surface1">
<defs>
  <style id="current-color-scheme" type="text/css">
   .ColorScheme-Text { color:#eeeeee; } .ColorScheme-Highlight { color:#424242; }
  </style>
 </defs>
<path style="fill:currentColor" class="ColorScheme-Text" d="M 8 5 L 8 7 L 10 7 L 10 5 Z M 12 5 L 12 7 L 14 7 L 14 5 Z M 5 7 L 5 9 L 7 9 L 7 7 Z M 15 7 L 15 9 L 17 9 L 17 7 Z M 4 10 L 4 12 L 6 12 L 6 10 Z M 16 10 L 16 12 L 18 12 L 18 10 Z M 5 13 L 5 15 L 7 15 L 7 13 Z M 15 13 L 15 15 L 17 15 L 17 13 Z M 8 15 L 8 17 L 10 17 L 10 15 Z M 12 15 L 12 17 L 14 17 L 14 15 Z M 12 15 "/>
</g>
</svg>
