<?xml version="1.0" encoding="UTF-8"?>
<svg xmlns="http://www.w3.org/2000/svg" xmlns:xlink="http://www.w3.org/1999/xlink" width="16px" height="16px" viewBox="0 0 16 16" version="1.1">
<g id="surface1">
<path style=" stroke:none;fill-rule:nonzero;fill:rgb(100%,67.058825%,56.862748%);fill-opacity:1;" d="M 10.582031 0.785156 L 2.644531 0.785156 C 2.28125 0.785156 1.984375 1.082031 1.984375 1.449219 L 1.984375 14.675781 C 1.984375 15.042969 2.28125 15.339844 2.644531 15.339844 L 13.230469 15.339844 C 13.59375 15.339844 13.890625 15.042969 13.890625 14.675781 L 13.890625 4.09375 Z M 10.582031 0.785156 "/>
<path style=" stroke:none;fill-rule:nonzero;fill:rgb(100%,43.921569%,26.274511%);fill-opacity:1;" d="M 13.890625 4.09375 L 10.582031 0.785156 L 10.582031 3.433594 C 10.582031 3.796875 10.878906 4.09375 11.246094 4.09375 Z M 13.890625 4.09375 "/>
<path style=" stroke:none;fill-rule:nonzero;fill:rgb(96.078432%,96.078432%,96.078432%);fill-opacity:1;" d="M 7.9375 5.746094 C 6.472656 5.746094 5.292969 6.925781 5.292969 8.394531 C 5.292969 9.859375 6.472656 11.039062 7.9375 11.039062 C 9.402344 11.039062 10.582031 9.859375 10.582031 8.394531 L 8.269531 8.394531 C 8.246094 8.394531 8.222656 8.390625 8.203125 8.386719 C 8.179688 8.382812 8.160156 8.375 8.140625 8.367188 C 8.121094 8.359375 8.101562 8.347656 8.082031 8.335938 C 8.066406 8.324219 8.050781 8.3125 8.035156 8.296875 C 8.019531 8.28125 8.003906 8.265625 7.992188 8.246094 C 7.980469 8.230469 7.972656 8.210938 7.964844 8.191406 C 7.953125 8.171875 7.949219 8.152344 7.945312 8.128906 C 7.941406 8.109375 7.9375 8.085938 7.9375 8.0625 Z M 7.9375 5.746094 "/>
<path style=" stroke:none;fill-rule:nonzero;fill:rgb(100%,80.000001%,73.725492%);fill-opacity:1;" d="M 8.269531 5.417969 L 8.269531 7.730469 C 8.269531 7.753906 8.269531 7.777344 8.273438 7.796875 C 8.28125 7.820312 8.285156 7.839844 8.292969 7.859375 C 8.300781 7.878906 8.3125 7.898438 8.324219 7.917969 C 8.335938 7.933594 8.351562 7.949219 8.363281 7.964844 C 8.378906 7.980469 8.394531 7.996094 8.414062 8.007812 C 8.429688 8.019531 8.449219 8.027344 8.46875 8.035156 C 8.488281 8.046875 8.511719 8.050781 8.53125 8.054688 C 8.554688 8.058594 8.574219 8.0625 8.597656 8.0625 L 10.914062 8.0625 C 10.914062 6.597656 9.734375 5.417969 8.269531 5.417969 Z M 8.269531 5.417969 "/>
</g>
</svg>
