<?xml version="1.0" encoding="UTF-8"?>
<svg xmlns="http://www.w3.org/2000/svg" xmlns:xlink="http://www.w3.org/1999/xlink" width="16px" height="16px" viewBox="0 0 16 16" version="1.1">
<g id="surface1">
<path style=" stroke:none;fill-rule:nonzero;fill:rgb(100%,65.490198%,14.901961%);fill-opacity:1;" d="M 1.324219 2.769531 L 14.550781 2.769531 C 14.917969 2.769531 15.214844 3.066406 15.214844 3.433594 L 15.214844 12.691406 C 15.214844 13.058594 14.917969 13.355469 14.550781 13.355469 L 1.324219 13.355469 C 0.957031 13.355469 0.660156 13.058594 0.660156 12.691406 L 0.660156 3.433594 C 0.660156 3.066406 0.957031 2.769531 1.324219 2.769531 Z M 1.324219 2.769531 "/>
<path style=" stroke:none;fill-rule:nonzero;fill:rgb(25.882354%,64.705884%,96.078432%);fill-opacity:1;" d="M 7.9375 4.753906 C 6.105469 4.753906 4.628906 6.230469 4.628906 8.0625 C 4.628906 9.894531 6.105469 11.371094 7.9375 11.371094 C 9.769531 11.371094 11.246094 9.894531 11.246094 8.0625 C 11.246094 6.230469 9.769531 4.753906 7.9375 4.753906 Z M 7.277344 6.191406 L 7.277344 9.714844 C 7.277344 9.796875 7.289062 9.875 7.316406 9.949219 C 6.523438 9.691406 5.953125 8.945312 5.953125 8.0625 C 5.953125 7.195312 6.503906 6.460938 7.277344 6.191406 Z M 8.597656 6.191406 C 9.371094 6.460938 9.921875 7.195312 9.921875 8.0625 C 9.921875 8.945312 9.351562 9.691406 8.558594 9.949219 C 8.585938 9.875 8.597656 9.796875 8.597656 9.714844 Z M 8.597656 6.191406 "/>
</g>
</svg>
