<?xml version="1.0" encoding="UTF-8"?>
<svg xmlns="http://www.w3.org/2000/svg" xmlns:xlink="http://www.w3.org/1999/xlink" width="16px" height="16px" viewBox="0 0 16 16" version="1.1">
<g id="surface1">
<path style=" stroke:none;fill-rule:nonzero;fill:rgb(36.078432%,41.960785%,75.294119%);fill-opacity:1;" d="M 10.582031 0.785156 L 2.644531 0.785156 C 2.28125 0.785156 1.984375 1.082031 1.984375 1.449219 L 1.984375 14.675781 C 1.984375 15.042969 2.28125 15.339844 2.644531 15.339844 L 13.230469 15.339844 C 13.59375 15.339844 13.890625 15.042969 13.890625 14.675781 L 13.890625 4.09375 Z M 10.582031 0.785156 "/>
<path style=" stroke:none;fill-rule:nonzero;fill:rgb(22.352941%,28.627452%,67.058825%);fill-opacity:1;" d="M 13.890625 4.09375 L 10.582031 0.785156 L 10.582031 3.433594 C 10.582031 3.796875 10.878906 4.09375 11.246094 4.09375 Z M 13.890625 4.09375 "/>
<path style=" stroke:none;fill-rule:nonzero;fill:rgb(96.078432%,96.078432%,96.078432%);fill-opacity:1;" d="M 3.140625 6.410156 L 3.804688 6.410156 C 3.894531 6.410156 3.96875 6.484375 3.96875 6.574219 L 3.96875 7.234375 C 3.96875 7.328125 3.894531 7.402344 3.804688 7.402344 L 3.140625 7.402344 C 3.050781 7.402344 2.976562 7.328125 2.976562 7.234375 L 2.976562 6.574219 C 2.976562 6.484375 3.050781 6.410156 3.140625 6.410156 Z M 3.140625 6.410156 "/>
<path style=" stroke:none;fill-rule:nonzero;fill:rgb(96.078432%,96.078432%,96.078432%);fill-opacity:1;" d="M 3.140625 4.425781 L 3.804688 4.425781 C 3.894531 4.425781 3.96875 4.5 3.96875 4.589844 L 3.96875 5.25 C 3.96875 5.34375 3.894531 5.417969 3.804688 5.417969 L 3.140625 5.417969 C 3.050781 5.417969 2.976562 5.34375 2.976562 5.25 L 2.976562 4.589844 C 2.976562 4.5 3.050781 4.425781 3.140625 4.425781 Z M 3.140625 4.425781 "/>
<path style=" stroke:none;fill-rule:nonzero;fill:rgb(96.078432%,96.078432%,96.078432%);fill-opacity:1;" d="M 3.140625 8.394531 L 3.804688 8.394531 C 3.894531 8.394531 3.96875 8.46875 3.96875 8.558594 L 3.96875 9.21875 C 3.96875 9.3125 3.894531 9.386719 3.804688 9.386719 L 3.140625 9.386719 C 3.050781 9.386719 2.976562 9.3125 2.976562 9.21875 L 2.976562 8.558594 C 2.976562 8.46875 3.050781 8.394531 3.140625 8.394531 Z M 3.140625 8.394531 "/>
<path style=" stroke:none;fill-rule:nonzero;fill:rgb(96.078432%,96.078432%,96.078432%);fill-opacity:1;" d="M 3.140625 12.363281 L 3.804688 12.363281 C 3.894531 12.363281 3.96875 12.4375 3.96875 12.527344 L 3.96875 13.1875 C 3.96875 13.28125 3.894531 13.355469 3.804688 13.355469 L 3.140625 13.355469 C 3.050781 13.355469 2.976562 13.28125 2.976562 13.1875 L 2.976562 12.527344 C 2.976562 12.4375 3.050781 12.363281 3.140625 12.363281 Z M 3.140625 12.363281 "/>
<path style=" stroke:none;fill-rule:nonzero;fill:rgb(96.078432%,96.078432%,96.078432%);fill-opacity:1;" d="M 3.140625 10.378906 L 3.804688 10.378906 C 3.894531 10.378906 3.96875 10.453125 3.96875 10.542969 L 3.96875 11.203125 C 3.96875 11.296875 3.894531 11.371094 3.804688 11.371094 L 3.140625 11.371094 C 3.050781 11.371094 2.976562 11.296875 2.976562 11.203125 L 2.976562 10.542969 C 2.976562 10.453125 3.050781 10.378906 3.140625 10.378906 Z M 3.140625 10.378906 "/>
<path style=" stroke:none;fill-rule:nonzero;fill:rgb(96.078432%,96.078432%,96.078432%);fill-opacity:1;" d="M 12.070312 6.410156 L 12.734375 6.410156 C 12.824219 6.410156 12.898438 6.484375 12.898438 6.574219 L 12.898438 7.234375 C 12.898438 7.328125 12.824219 7.402344 12.734375 7.402344 L 12.070312 7.402344 C 11.980469 7.402344 11.90625 7.328125 11.90625 7.234375 L 11.90625 6.574219 C 11.90625 6.484375 11.980469 6.410156 12.070312 6.410156 Z M 12.070312 6.410156 "/>
<path style=" stroke:none;fill-rule:nonzero;fill:rgb(96.078432%,96.078432%,96.078432%);fill-opacity:1;" d="M 12.070312 4.425781 L 12.734375 4.425781 C 12.824219 4.425781 12.898438 4.5 12.898438 4.589844 L 12.898438 5.25 C 12.898438 5.34375 12.824219 5.417969 12.734375 5.417969 L 12.070312 5.417969 C 11.980469 5.417969 11.90625 5.34375 11.90625 5.25 L 11.90625 4.589844 C 11.90625 4.5 11.980469 4.425781 12.070312 4.425781 Z M 12.070312 4.425781 "/>
<path style=" stroke:none;fill-rule:nonzero;fill:rgb(96.078432%,96.078432%,96.078432%);fill-opacity:1;" d="M 12.070312 8.394531 L 12.734375 8.394531 C 12.824219 8.394531 12.898438 8.46875 12.898438 8.558594 L 12.898438 9.21875 C 12.898438 9.3125 12.824219 9.386719 12.734375 9.386719 L 12.070312 9.386719 C 11.980469 9.386719 11.90625 9.3125 11.90625 9.21875 L 11.90625 8.558594 C 11.90625 8.46875 11.980469 8.394531 12.070312 8.394531 Z M 12.070312 8.394531 "/>
<path style=" stroke:none;fill-rule:nonzero;fill:rgb(96.078432%,96.078432%,96.078432%);fill-opacity:1;" d="M 12.070312 12.363281 L 12.734375 12.363281 C 12.824219 12.363281 12.898438 12.4375 12.898438 12.527344 L 12.898438 13.1875 C 12.898438 13.28125 12.824219 13.355469 12.734375 13.355469 L 12.070312 13.355469 C 11.980469 13.355469 11.90625 13.28125 11.90625 13.1875 L 11.90625 12.527344 C 11.90625 12.4375 11.980469 12.363281 12.070312 12.363281 Z M 12.070312 12.363281 "/>
<path style=" stroke:none;fill-rule:nonzero;fill:rgb(96.078432%,96.078432%,96.078432%);fill-opacity:1;" d="M 12.070312 10.378906 L 12.734375 10.378906 C 12.824219 10.378906 12.898438 10.453125 12.898438 10.542969 L 12.898438 11.203125 C 12.898438 11.296875 12.824219 11.371094 12.734375 11.371094 L 12.070312 11.371094 C 11.980469 11.371094 11.90625 11.296875 11.90625 11.203125 L 11.90625 10.542969 C 11.90625 10.453125 11.980469 10.378906 12.070312 10.378906 Z M 12.070312 10.378906 "/>
</g>
</svg>
