<?xml version="1.0" encoding="UTF-8"?>
<svg xmlns="http://www.w3.org/2000/svg" xmlns:xlink="http://www.w3.org/1999/xlink" width="48px" height="48px" viewBox="0 0 48 48" version="1.1">
<g id="surface1">
<path style=" stroke:none;fill-rule:nonzero;fill:rgb(74.117649%,74.117649%,74.117649%);fill-opacity:1;" d="M 33.238281 44.03125 L 39.6875 37.582031 L 34.726562 37.582031 C 33.902344 37.582031 33.238281 38.246094 33.238281 39.070312 Z M 33.238281 44.03125 "/>
<path style=" stroke:none;fill-rule:nonzero;fill:rgb(25.882354%,25.882354%,25.882354%);fill-opacity:1;" d="M 7.9375 2.359375 L 39.6875 2.359375 C 40.785156 2.359375 41.671875 3.246094 41.671875 4.34375 L 41.671875 44.03125 C 41.671875 45.128906 40.785156 46.015625 39.6875 46.015625 L 7.9375 46.015625 C 6.839844 46.015625 5.953125 45.128906 5.953125 44.03125 L 5.953125 4.34375 C 5.953125 3.246094 6.839844 2.359375 7.9375 2.359375 Z M 7.9375 2.359375 "/>
<path style=" stroke:none;fill-rule:nonzero;fill:rgb(100%,79.215688%,15.686275%);fill-opacity:1;" d="M 8.929688 4.34375 C 8.378906 4.34375 7.9375 4.785156 7.9375 5.335938 L 7.9375 43.039062 C 7.9375 43.589844 8.378906 44.03125 8.929688 44.03125 L 31.75 44.03125 L 39.6875 36.09375 L 39.6875 5.335938 C 39.6875 4.785156 39.246094 4.34375 38.695312 4.34375 Z M 8.929688 4.34375 "/>
<path style=" stroke:none;fill-rule:nonzero;fill:rgb(38.039216%,38.039216%,38.039216%);fill-opacity:1;" d="M 7.441406 2.359375 C 6.617188 2.359375 5.953125 3.023438 5.953125 3.847656 L 5.953125 10.296875 L 41.671875 10.296875 L 41.671875 3.847656 C 41.671875 3.023438 41.007812 2.359375 40.183594 2.359375 Z M 7.441406 2.359375 "/>
<path style=" stroke:none;fill-rule:nonzero;fill:rgb(0%,0%,0%);fill-opacity:0.235294;" d="M 11.90625 5.335938 C 12.453125 5.335938 12.898438 5.78125 12.898438 6.328125 C 12.898438 6.875 12.453125 7.320312 11.90625 7.320312 C 11.359375 7.320312 10.914062 6.875 10.914062 6.328125 C 10.914062 5.78125 11.359375 5.335938 11.90625 5.335938 Z M 11.90625 5.335938 "/>
<path style=" stroke:none;fill-rule:nonzero;fill:rgb(87.843138%,87.843138%,87.843138%);fill-opacity:1;" d="M 11.90625 4.34375 C 10.808594 4.34375 9.921875 5.230469 9.921875 6.328125 C 9.921875 7.425781 10.808594 8.3125 11.90625 8.3125 C 13.003906 8.3125 13.890625 7.425781 13.890625 6.328125 C 13.890625 5.230469 13.003906 4.34375 11.90625 4.34375 Z M 11.90625 5.335938 C 12.457031 5.335938 12.898438 5.777344 12.898438 6.328125 C 12.898438 6.878906 12.457031 7.320312 11.90625 7.320312 C 11.355469 7.320312 10.914062 6.878906 10.914062 6.328125 C 10.914062 5.777344 11.355469 5.335938 11.90625 5.335938 Z M 11.90625 5.335938 "/>
<path style=" stroke:none;fill-rule:nonzero;fill:rgb(0%,0%,0%);fill-opacity:0.235294;" d="M 23.8125 5.335938 C 24.359375 5.335938 24.804688 5.78125 24.804688 6.328125 C 24.804688 6.875 24.359375 7.320312 23.8125 7.320312 C 23.265625 7.320312 22.820312 6.875 22.820312 6.328125 C 22.820312 5.78125 23.265625 5.335938 23.8125 5.335938 Z M 23.8125 5.335938 "/>
<path style=" stroke:none;fill-rule:nonzero;fill:rgb(87.843138%,87.843138%,87.843138%);fill-opacity:1;" d="M 23.8125 4.34375 C 22.714844 4.34375 21.828125 5.230469 21.828125 6.328125 C 21.828125 7.425781 22.714844 8.3125 23.8125 8.3125 C 24.910156 8.3125 25.796875 7.425781 25.796875 6.328125 C 25.796875 5.230469 24.910156 4.34375 23.8125 4.34375 Z M 23.8125 5.335938 C 24.363281 5.335938 24.804688 5.777344 24.804688 6.328125 C 24.804688 6.878906 24.363281 7.320312 23.8125 7.320312 C 23.261719 7.320312 22.820312 6.878906 22.820312 6.328125 C 22.820312 5.777344 23.261719 5.335938 23.8125 5.335938 Z M 23.8125 5.335938 "/>
<path style=" stroke:none;fill-rule:nonzero;fill:rgb(0%,0%,0%);fill-opacity:0.235294;" d="M 35.71875 5.335938 C 36.265625 5.335938 36.710938 5.78125 36.710938 6.328125 C 36.710938 6.875 36.265625 7.320312 35.71875 7.320312 C 35.171875 7.320312 34.726562 6.875 34.726562 6.328125 C 34.726562 5.78125 35.171875 5.335938 35.71875 5.335938 Z M 35.71875 5.335938 "/>
<path style=" stroke:none;fill-rule:nonzero;fill:rgb(87.843138%,87.843138%,87.843138%);fill-opacity:1;" d="M 35.71875 4.34375 C 34.621094 4.34375 33.734375 5.230469 33.734375 6.328125 C 33.734375 7.425781 34.621094 8.3125 35.71875 8.3125 C 36.816406 8.3125 37.703125 7.425781 37.703125 6.328125 C 37.703125 5.230469 36.816406 4.34375 35.71875 4.34375 Z M 35.71875 5.335938 C 36.269531 5.335938 36.710938 5.777344 36.710938 6.328125 C 36.710938 6.878906 36.269531 7.320312 35.71875 7.320312 C 35.167969 7.320312 34.726562 6.878906 34.726562 6.328125 C 34.726562 5.777344 35.167969 5.335938 35.71875 5.335938 Z M 35.71875 5.335938 "/>
<path style=" stroke:none;fill-rule:nonzero;fill:rgb(100%,75.686276%,2.745098%);fill-opacity:1;" d="M 39.6875 36.09375 L 31.75 44.03125 L 38.695312 44.03125 C 39.246094 44.03125 39.6875 43.589844 39.6875 43.039062 Z M 39.6875 36.09375 "/>
<path style=" stroke:none;fill-rule:nonzero;fill:rgb(100%,87.843138%,50.980395%);fill-opacity:1;" d="M 31.75 44.03125 L 39.6875 36.09375 L 32.742188 36.09375 C 32.191406 36.09375 31.75 36.535156 31.75 37.085938 Z M 31.75 44.03125 "/>
</g>
</svg>
