
<svg xmlns="http://www.w3.org/2000/svg" xmlns:xlink="http://www.w3.org/1999/xlink" width="48px" height="48px" viewBox="0 0 48 48" version="1.1">
<g id="surface1">
<path style=" stroke:none;fill-rule:nonzero;fill:rgb(36.078432%,41.960785%,75.294119%);fill-opacity:1;" d="M 6.449219 5.953125 L 41.175781 5.953125 C 41.449219 5.953125 41.671875 6.175781 41.671875 6.449219 L 41.671875 41.175781 C 41.671875 41.449219 41.449219 41.671875 41.175781 41.671875 L 6.449219 41.671875 C 6.175781 41.671875 5.953125 41.449219 5.953125 41.175781 L 5.953125 6.449219 C 5.953125 6.175781 6.175781 5.953125 6.449219 5.953125 Z M 6.449219 5.953125 "/>
<path style=" stroke:none;fill-rule:nonzero;fill:rgb(100%,43.921569%,26.274511%);fill-opacity:1;" d="M 3.90625 1.984375 L 43.71875 1.984375 C 44.78125 1.984375 45.640625 2.84375 45.640625 3.90625 L 45.640625 43.71875 C 45.640625 44.78125 44.78125 45.640625 43.71875 45.640625 L 3.90625 45.640625 C 2.84375 45.640625 1.984375 44.78125 1.984375 43.71875 L 1.984375 3.90625 C 1.984375 2.84375 2.84375 1.984375 3.90625 1.984375 Z M 3.90625 1.984375 "/>
<path style=" stroke:none;fill-rule:nonzero;fill:rgb(100%,87.843138%,69.803923%);fill-opacity:1;" d="M 4.960938 3.96875 L 42.664062 3.96875 C 43.210938 3.96875 43.65625 4.414062 43.65625 4.960938 L 43.65625 42.664062 C 43.65625 43.210938 43.210938 43.65625 42.664062 43.65625 L 4.960938 43.65625 C 4.414062 43.65625 3.96875 43.210938 3.96875 42.664062 L 3.96875 4.960938 C 3.96875 4.414062 4.414062 3.96875 4.960938 3.96875 Z M 4.960938 3.96875 "/>
<path style=" stroke:none;fill-rule:nonzero;fill:rgb(100%,43.921569%,26.274511%);fill-opacity:1;" d="M 6.449219 5.953125 L 41.175781 5.953125 C 41.449219 5.953125 41.671875 6.175781 41.671875 6.449219 L 41.671875 41.175781 C 41.671875 41.449219 41.449219 41.671875 41.175781 41.671875 L 6.449219 41.671875 C 6.175781 41.671875 5.953125 41.449219 5.953125 41.175781 L 5.953125 6.449219 C 5.953125 6.175781 6.175781 5.953125 6.449219 5.953125 Z M 6.449219 5.953125 "/>
<path style=" stroke:none;fill-rule:nonzero;fill:rgb(100%,87.843138%,69.803923%);fill-opacity:1;" d="M 20.339844 15.875 C 17.316406 15.875 14.882812 18.085938 14.882812 20.835938 L 14.882812 31.253906 C 14.882812 31.527344 15.105469 31.75 15.378906 31.75 L 16.371094 31.75 C 16.644531 31.75 16.867188 31.527344 16.867188 31.253906 L 16.867188 26.789062 L 23.8125 26.789062 L 23.8125 31.253906 C 23.8125 31.527344 24.035156 31.75 24.308594 31.75 L 25.300781 31.75 C 25.574219 31.75 25.796875 31.527344 25.796875 31.253906 L 25.796875 20.835938 C 25.796875 18.085938 23.363281 15.875 20.339844 15.875 Z M 20.339844 17.859375 C 22.265625 17.859375 23.8125 19.1875 23.8125 20.835938 L 23.8125 24.804688 L 16.867188 24.804688 L 16.867188 20.835938 C 16.867188 19.1875 18.414062 17.859375 20.339844 17.859375 Z M 20.339844 17.859375 "/>
<path style=" stroke:none;fill-rule:nonzero;fill:rgb(100%,87.843138%,69.803923%);fill-opacity:0.999958;" d="M 30.261719 22.820312 L 31.253906 22.820312 C 31.527344 22.820312 31.75 23.042969 31.75 23.316406 L 31.75 31.253906 C 31.75 31.527344 31.527344 31.75 31.253906 31.75 L 30.261719 31.75 C 29.988281 31.75 29.765625 31.527344 29.765625 31.253906 L 29.765625 23.316406 C 29.765625 23.042969 29.988281 22.820312 30.261719 22.820312 Z M 30.261719 22.820312 "/>
</g>
</svg>
