
<svg xmlns="http://www.w3.org/2000/svg" xmlns:xlink="http://www.w3.org/1999/xlink" width="48px" height="48px" viewBox="0 0 48 48" version="1.1">
<g id="surface1">
<path style=" stroke:none;fill-rule:nonzero;fill:rgb(36.078432%,41.960785%,75.294119%);fill-opacity:1;" d="M 6.449219 5.953125 L 41.175781 5.953125 C 41.449219 5.953125 41.671875 6.175781 41.671875 6.449219 L 41.671875 41.175781 C 41.671875 41.449219 41.449219 41.671875 41.175781 41.671875 L 6.449219 41.671875 C 6.175781 41.671875 5.953125 41.449219 5.953125 41.175781 L 5.953125 6.449219 C 5.953125 6.175781 6.175781 5.953125 6.449219 5.953125 Z M 6.449219 5.953125 "/>
<path style=" stroke:none;fill-rule:nonzero;fill:rgb(36.078432%,41.960785%,75.294119%);fill-opacity:1;" d="M 3.90625 1.984375 L 43.71875 1.984375 C 44.78125 1.984375 45.640625 2.84375 45.640625 3.90625 L 45.640625 43.71875 C 45.640625 44.78125 44.78125 45.640625 43.71875 45.640625 L 3.90625 45.640625 C 2.84375 45.640625 1.984375 44.78125 1.984375 43.71875 L 1.984375 3.90625 C 1.984375 2.84375 2.84375 1.984375 3.90625 1.984375 Z M 3.90625 1.984375 "/>
<path style=" stroke:none;fill-rule:nonzero;fill:rgb(81.960785%,76.862746%,91.37255%);fill-opacity:1;" d="M 4.960938 3.96875 L 42.664062 3.96875 C 43.210938 3.96875 43.65625 4.414062 43.65625 4.960938 L 43.65625 42.664062 C 43.65625 43.210938 43.210938 43.65625 42.664062 43.65625 L 4.960938 43.65625 C 4.414062 43.65625 3.96875 43.210938 3.96875 42.664062 L 3.96875 4.960938 C 3.96875 4.414062 4.414062 3.96875 4.960938 3.96875 Z M 4.960938 3.96875 "/>
<path style=" stroke:none;fill-rule:nonzero;fill:rgb(36.078432%,41.960785%,75.294119%);fill-opacity:1;" d="M 6.449219 5.953125 L 41.175781 5.953125 C 41.449219 5.953125 41.671875 6.175781 41.671875 6.449219 L 41.671875 41.175781 C 41.671875 41.449219 41.449219 41.671875 41.175781 41.671875 L 6.449219 41.671875 C 6.175781 41.671875 5.953125 41.449219 5.953125 41.175781 L 5.953125 6.449219 C 5.953125 6.175781 6.175781 5.953125 6.449219 5.953125 Z M 6.449219 5.953125 "/>
<path style=" stroke:none;fill-rule:nonzero;fill:rgb(81.960785%,76.862746%,91.37255%);fill-opacity:0.999958;" d="M 33.238281 31.75 C 33.511719 31.75 33.734375 31.527344 33.734375 31.253906 L 33.734375 26.292969 C 33.734375 24.367188 32.1875 22.820312 30.261719 22.820312 C 29.71875 22.820312 29.207031 22.945312 28.75 23.164062 C 28.683594 22.964844 28.5 22.820312 28.277344 22.820312 L 27.285156 22.820312 C 27.011719 22.820312 26.789062 23.042969 26.789062 23.316406 L 26.789062 31.253906 C 26.789062 31.527344 27.011719 31.75 27.285156 31.75 L 28.277344 31.75 C 28.550781 31.75 28.773438 31.527344 28.773438 31.253906 L 28.773438 26.292969 C 28.773438 25.46875 29.4375 24.804688 30.261719 24.804688 C 31.085938 24.804688 31.75 25.46875 31.75 26.292969 L 31.75 31.253906 C 31.75 31.527344 31.972656 31.75 32.246094 31.75 Z M 33.238281 31.75 "/>
<path style=" stroke:none;fill-rule:nonzero;fill:rgb(81.960785%,76.862746%,91.37255%);fill-opacity:1;" d="M 14.386719 15.875 C 14.113281 15.875 13.890625 16.097656 13.890625 16.371094 L 13.890625 31.253906 C 13.890625 31.527344 14.113281 31.75 14.386719 31.75 L 24.308594 31.75 C 24.582031 31.75 24.804688 31.527344 24.804688 31.253906 L 24.804688 30.261719 C 24.804688 29.988281 24.582031 29.765625 24.308594 29.765625 L 15.875 29.765625 L 15.875 24.804688 L 21.332031 24.804688 C 21.605469 24.804688 21.828125 24.582031 21.828125 24.308594 L 21.828125 23.316406 C 21.828125 23.042969 21.605469 22.820312 21.332031 22.820312 L 15.875 22.820312 L 15.875 17.859375 L 24.308594 17.859375 C 24.582031 17.859375 24.804688 17.636719 24.804688 17.363281 L 24.804688 16.371094 C 24.804688 16.097656 24.582031 15.875 24.308594 15.875 Z M 14.386719 15.875 "/>
</g>
</svg>
