
<svg xmlns="http://www.w3.org/2000/svg" xmlns:xlink="http://www.w3.org/1999/xlink" width="48px" height="48px" viewBox="0 0 48 48" version="1.1">
<g id="surface1">
<path style=" stroke:none;fill-rule:nonzero;fill:rgb(36.078432%,41.960785%,75.294119%);fill-opacity:1;" d="M 6.449219 5.953125 L 41.175781 5.953125 C 41.449219 5.953125 41.671875 6.175781 41.671875 6.449219 L 41.671875 41.175781 C 41.671875 41.449219 41.449219 41.671875 41.175781 41.671875 L 6.449219 41.671875 C 6.175781 41.671875 5.953125 41.449219 5.953125 41.175781 L 5.953125 6.449219 C 5.953125 6.175781 6.175781 5.953125 6.449219 5.953125 Z M 6.449219 5.953125 "/>
<path style=" stroke:none;fill-rule:nonzero;fill:rgb(49.411765%,34.117648%,76.078433%);fill-opacity:1;" d="M 3.90625 1.984375 L 43.71875 1.984375 C 44.78125 1.984375 45.640625 2.84375 45.640625 3.90625 L 45.640625 43.71875 C 45.640625 44.78125 44.78125 45.640625 43.71875 45.640625 L 3.90625 45.640625 C 2.84375 45.640625 1.984375 44.78125 1.984375 43.71875 L 1.984375 3.90625 C 1.984375 2.84375 2.84375 1.984375 3.90625 1.984375 Z M 3.90625 1.984375 "/>
<path style=" stroke:none;fill-rule:nonzero;fill:rgb(81.960785%,76.862746%,91.37255%);fill-opacity:1;" d="M 4.960938 3.96875 L 42.664062 3.96875 C 43.210938 3.96875 43.65625 4.414062 43.65625 4.960938 L 43.65625 42.664062 C 43.65625 43.210938 43.210938 43.65625 42.664062 43.65625 L 4.960938 43.65625 C 4.414062 43.65625 3.96875 43.210938 3.96875 42.664062 L 3.96875 4.960938 C 3.96875 4.414062 4.414062 3.96875 4.960938 3.96875 Z M 4.960938 3.96875 "/>
<path style=" stroke:none;fill-rule:nonzero;fill:rgb(49.411765%,34.117648%,76.078433%);fill-opacity:1;" d="M 6.449219 5.953125 L 41.175781 5.953125 C 41.449219 5.953125 41.671875 6.175781 41.671875 6.449219 L 41.671875 41.175781 C 41.671875 41.449219 41.449219 41.671875 41.175781 41.671875 L 6.449219 41.671875 C 6.175781 41.671875 5.953125 41.449219 5.953125 41.175781 L 5.953125 6.449219 C 5.953125 6.175781 6.175781 5.953125 6.449219 5.953125 Z M 6.449219 5.953125 "/>
<path style=" stroke:none;fill-rule:nonzero;fill:rgb(81.960785%,76.862746%,91.37255%);fill-opacity:1;" d="M 14.882812 15.875 C 14.609375 15.875 14.386719 16.097656 14.386719 16.371094 L 14.386719 31.253906 C 14.386719 31.527344 14.609375 31.75 14.882812 31.75 L 15.875 31.75 C 16.148438 31.75 16.371094 31.527344 16.371094 31.253906 L 16.371094 26.292969 L 20.339844 26.292969 C 23.089844 26.292969 25.300781 23.96875 25.300781 21.082031 C 25.300781 18.199219 23.089844 15.875 20.339844 15.875 Z M 16.371094 17.859375 L 20.339844 17.859375 C 21.988281 17.859375 23.316406 19.1875 23.316406 20.835938 L 23.316406 21.332031 C 23.316406 22.980469 21.988281 24.308594 20.339844 24.308594 L 16.371094 24.308594 Z M 16.371094 17.859375 "/>
<path style=" stroke:none;fill-rule:nonzero;fill:rgb(81.960785%,76.862746%,91.37255%);fill-opacity:0.999958;" d="M 27.285156 31.75 L 28.277344 31.75 C 28.550781 31.75 28.773438 31.527344 28.773438 31.253906 L 28.773438 23.316406 C 28.773438 23.042969 28.550781 22.820312 28.277344 22.820312 L 27.285156 22.820312 C 27.011719 22.820312 26.789062 23.042969 26.789062 23.316406 L 26.789062 31.253906 C 26.789062 31.527344 27.011719 31.75 27.285156 31.75 Z M 27.285156 31.75 "/>
<path style=" stroke:none;fill-rule:nonzero;fill:rgb(81.960785%,76.862746%,91.37255%);fill-opacity:0.999958;" d="M 27.285156 24.804688 L 32.742188 24.804688 C 33.015625 24.804688 33.238281 24.582031 33.238281 24.308594 L 33.238281 23.316406 C 33.238281 23.042969 33.015625 22.820312 32.742188 22.820312 L 27.285156 22.820312 C 27.011719 22.820312 26.789062 23.042969 26.789062 23.316406 L 26.789062 24.308594 C 26.789062 24.582031 27.011719 24.804688 27.285156 24.804688 Z M 27.285156 24.804688 "/>
</g>
</svg>
