
<svg xmlns="http://www.w3.org/2000/svg" xmlns:xlink="http://www.w3.org/1999/xlink" width="48px" height="48px" viewBox="0 0 48 48" version="1.1">
<g id="surface1">
<path style=" stroke:none;fill-rule:nonzero;fill:rgb(36.078432%,41.960785%,75.294119%);fill-opacity:1;" d="M 6.449219 5.953125 L 41.175781 5.953125 C 41.449219 5.953125 41.671875 6.175781 41.671875 6.449219 L 41.671875 41.175781 C 41.671875 41.449219 41.449219 41.671875 41.175781 41.671875 L 6.449219 41.671875 C 6.175781 41.671875 5.953125 41.449219 5.953125 41.175781 L 5.953125 6.449219 C 5.953125 6.175781 6.175781 5.953125 6.449219 5.953125 Z M 6.449219 5.953125 "/>
<path style=" stroke:none;fill-rule:nonzero;fill:rgb(36.078432%,41.960785%,75.294119%);fill-opacity:1;" d="M 3.90625 1.984375 L 43.71875 1.984375 C 44.78125 1.984375 45.640625 2.84375 45.640625 3.90625 L 45.640625 43.71875 C 45.640625 44.78125 44.78125 45.640625 43.71875 45.640625 L 3.90625 45.640625 C 2.84375 45.640625 1.984375 44.78125 1.984375 43.71875 L 1.984375 3.90625 C 1.984375 2.84375 2.84375 1.984375 3.90625 1.984375 Z M 3.90625 1.984375 "/>
<path style=" stroke:none;fill-rule:nonzero;fill:rgb(77.254903%,79.215688%,91.37255%);fill-opacity:1;" d="M 4.960938 3.96875 L 42.664062 3.96875 C 43.210938 3.96875 43.65625 4.414062 43.65625 4.960938 L 43.65625 42.664062 C 43.65625 43.210938 43.210938 43.65625 42.664062 43.65625 L 4.960938 43.65625 C 4.414062 43.65625 3.96875 43.210938 3.96875 42.664062 L 3.96875 4.960938 C 3.96875 4.414062 4.414062 3.96875 4.960938 3.96875 Z M 4.960938 3.96875 "/>
<path style=" stroke:none;fill-rule:nonzero;fill:rgb(36.078432%,41.960785%,75.294119%);fill-opacity:1;" d="M 6.449219 5.953125 L 41.175781 5.953125 C 41.449219 5.953125 41.671875 6.175781 41.671875 6.449219 L 41.671875 41.175781 C 41.671875 41.449219 41.449219 41.671875 41.175781 41.671875 L 6.449219 41.671875 C 6.175781 41.671875 5.953125 41.449219 5.953125 41.175781 L 5.953125 6.449219 C 5.953125 6.175781 6.175781 5.953125 6.449219 5.953125 Z M 6.449219 5.953125 "/>
<path style=" stroke:none;fill-rule:nonzero;fill:rgb(77.254903%,79.215688%,91.37255%);fill-opacity:1;" d="M 9.976562 9.976562 L 9.976562 37.648438 L 37.648438 37.648438 L 37.648438 34.574219 L 34.574219 34.574219 L 34.574219 31.5 L 31.5 31.5 L 31.5 28.425781 L 28.425781 28.425781 L 28.425781 25.351562 L 25.351562 25.351562 L 25.351562 22.273438 L 22.273438 22.273438 L 22.273438 19.199219 L 19.199219 19.199219 L 19.199219 16.125 L 16.125 16.125 L 16.125 13.050781 L 13.050781 13.050781 L 13.050781 9.976562 Z M 16.125 13.050781 L 19.199219 13.050781 L 19.199219 9.976562 L 16.125 9.976562 Z M 19.199219 13.050781 L 19.199219 16.125 L 22.273438 16.125 L 22.273438 13.050781 Z M 22.273438 16.125 L 22.273438 19.199219 L 25.351562 19.199219 L 25.351562 16.125 Z M 25.351562 16.125 L 28.425781 16.125 L 28.425781 13.050781 L 25.351562 13.050781 Z M 25.351562 19.199219 L 25.351562 22.273438 L 28.425781 22.273438 L 28.425781 19.199219 Z M 28.425781 22.273438 L 28.425781 25.351562 L 31.5 25.351562 L 31.5 22.273438 Z M 31.5 22.273438 L 34.574219 22.273438 L 34.574219 19.199219 L 31.5 19.199219 Z M 34.574219 22.273438 L 34.574219 25.351562 L 37.648438 25.351562 L 37.648438 22.273438 Z M 34.574219 25.351562 L 31.5 25.351562 L 31.5 28.425781 L 34.574219 28.425781 Z M 34.574219 28.425781 L 34.574219 31.5 L 37.648438 31.5 L 37.648438 28.425781 Z M 31.5 13.050781 L 31.5 16.125 L 34.574219 16.125 L 34.574219 13.050781 Z M 31.5 13.050781 "/>
</g>
</svg>
