
<svg xmlns="http://www.w3.org/2000/svg" xmlns:xlink="http://www.w3.org/1999/xlink" width="48px" height="48px" viewBox="0 0 48 48" version="1.1">
<g id="surface1">
<path style=" stroke:none;fill-rule:nonzero;fill:rgb(74.117649%,74.117649%,74.117649%);fill-opacity:1;" d="M 31.273438 36.113281 C 30.726562 36.113281 30.289062 36.554688 30.289062 37.097656 L 30.289062 44.902344 C 30.289062 45.65625 31.09375 46.128906 31.75 45.765625 L 40.679688 39.941406 C 40.992188 39.769531 41.1875 39.441406 41.1875 39.082031 L 41.1875 37.097656 C 41.1875 36.554688 40.746094 36.113281 40.203125 36.113281 Z M 31.273438 36.113281 "/>
<path style=" stroke:none;fill-rule:nonzero;fill:rgb(87.843138%,87.843138%,87.843138%);fill-opacity:1;" d="M 7.9375 2.109375 L 39.6875 2.109375 C 40.785156 2.109375 41.671875 2.996094 41.671875 4.09375 L 41.671875 39.8125 C 41.671875 40.90625 40.785156 41.796875 39.6875 41.796875 L 7.9375 41.796875 C 6.839844 41.796875 5.953125 40.90625 5.953125 39.8125 L 5.953125 4.09375 C 5.953125 2.996094 6.839844 2.109375 7.9375 2.109375 Z M 7.9375 2.109375 "/>
<path style=" stroke:none;fill-rule:nonzero;fill:rgb(61.960787%,61.960787%,61.960787%);fill-opacity:1;" d="M 18.851562 15.007812 L 34.726562 15.007812 C 35.273438 15.007812 35.71875 15.433594 35.71875 15.960938 C 35.71875 16.484375 35.273438 16.910156 34.726562 16.910156 L 18.851562 16.910156 C 18.304688 16.910156 17.859375 16.484375 17.859375 15.960938 C 17.859375 15.433594 18.304688 15.007812 18.851562 15.007812 Z M 18.851562 15.007812 "/>
<path style=" stroke:none;fill-rule:nonzero;fill:rgb(61.960787%,61.960787%,61.960787%);fill-opacity:1;" d="M 18.851562 11.039062 L 34.726562 11.039062 C 35.273438 11.039062 35.71875 11.480469 35.71875 12.03125 C 35.71875 12.578125 35.273438 13.023438 34.726562 13.023438 L 18.851562 13.023438 C 18.304688 13.023438 17.859375 12.578125 17.859375 12.03125 C 17.859375 11.480469 18.304688 11.039062 18.851562 11.039062 Z M 18.851562 11.039062 "/>
<path style=" stroke:none;fill-rule:nonzero;fill:rgb(61.960787%,61.960787%,61.960787%);fill-opacity:1;" d="M 18.851562 22.945312 L 34.726562 22.945312 C 35.273438 22.945312 35.71875 23.386719 35.71875 23.9375 C 35.71875 24.484375 35.273438 24.929688 34.726562 24.929688 L 18.851562 24.929688 C 18.304688 24.929688 17.859375 24.484375 17.859375 23.9375 C 17.859375 23.386719 18.304688 22.945312 18.851562 22.945312 Z M 18.851562 22.945312 "/>
<path style=" stroke:none;fill-rule:nonzero;fill:rgb(61.960787%,61.960787%,61.960787%);fill-opacity:1;" d="M 18.851562 30.882812 L 34.726562 30.882812 C 35.273438 30.882812 35.71875 31.324219 35.71875 31.875 C 35.71875 32.421875 35.273438 32.867188 34.726562 32.867188 L 18.851562 32.867188 C 18.304688 32.867188 17.859375 32.421875 17.859375 31.875 C 17.859375 31.324219 18.304688 30.882812 18.851562 30.882812 Z M 18.851562 30.882812 "/>
<path style=" stroke:none;fill-rule:nonzero;fill:rgb(100%,54.11765%,39.607844%);fill-opacity:1;" d="M 18.8125 19.054688 L 34.765625 19.054688 C 35.292969 19.054688 35.71875 19.480469 35.71875 20.007812 C 35.71875 20.535156 35.292969 20.960938 34.765625 20.960938 L 18.8125 20.960938 C 18.285156 20.960938 17.859375 20.535156 17.859375 20.007812 C 17.859375 19.480469 18.285156 19.054688 18.8125 19.054688 Z M 18.8125 19.054688 "/>
<path style=" stroke:none;fill-rule:nonzero;fill:rgb(61.960787%,61.960787%,61.960787%);fill-opacity:1;" d="M 18.851562 26.914062 L 34.726562 26.914062 C 35.273438 26.914062 35.71875 27.355469 35.71875 27.90625 C 35.71875 28.453125 35.273438 28.898438 34.726562 28.898438 L 18.851562 28.898438 C 18.304688 28.898438 17.859375 28.453125 17.859375 27.90625 C 17.859375 27.355469 18.304688 26.914062 18.851562 26.914062 Z M 18.851562 26.914062 "/>
<path style=" stroke:none;fill-rule:nonzero;fill:rgb(61.960787%,61.960787%,61.960787%);fill-opacity:1;" d="M 13.890625 10.542969 C 14.710938 10.542969 15.378906 11.207031 15.378906 12.03125 C 15.378906 12.851562 14.710938 13.519531 13.890625 13.519531 C 13.070312 13.519531 12.402344 12.851562 12.402344 12.03125 C 12.402344 11.207031 13.070312 10.542969 13.890625 10.542969 Z M 13.890625 10.542969 "/>
<path style=" stroke:none;fill-rule:nonzero;fill:rgb(61.960787%,61.960787%,61.960787%);fill-opacity:1;" d="M 13.890625 14.511719 C 14.710938 14.511719 15.378906 15.175781 15.378906 16 C 15.378906 16.820312 14.710938 17.488281 13.890625 17.488281 C 13.070312 17.488281 12.402344 16.820312 12.402344 16 C 12.402344 15.175781 13.070312 14.511719 13.890625 14.511719 Z M 13.890625 14.511719 "/>
<path style=" stroke:none;fill-rule:nonzero;fill:rgb(100%,54.11765%,39.607844%);fill-opacity:1;" d="M 13.890625 18.480469 C 14.710938 18.480469 15.378906 19.144531 15.378906 19.96875 C 15.378906 20.789062 14.710938 21.457031 13.890625 21.457031 C 13.070312 21.457031 12.402344 20.789062 12.402344 19.96875 C 12.402344 19.144531 13.070312 18.480469 13.890625 18.480469 Z M 13.890625 18.480469 "/>
<path style=" stroke:none;fill-rule:nonzero;fill:rgb(61.960787%,61.960787%,61.960787%);fill-opacity:1;" d="M 13.890625 22.449219 C 14.710938 22.449219 15.378906 23.113281 15.378906 23.9375 C 15.378906 24.757812 14.710938 25.425781 13.890625 25.425781 C 13.070312 25.425781 12.402344 24.757812 12.402344 23.9375 C 12.402344 23.113281 13.070312 22.449219 13.890625 22.449219 Z M 13.890625 22.449219 "/>
<path style=" stroke:none;fill-rule:nonzero;fill:rgb(61.960787%,61.960787%,61.960787%);fill-opacity:1;" d="M 13.890625 26.417969 C 14.710938 26.417969 15.378906 27.082031 15.378906 27.90625 C 15.378906 28.726562 14.710938 29.394531 13.890625 29.394531 C 13.070312 29.394531 12.402344 28.726562 12.402344 27.90625 C 12.402344 27.082031 13.070312 26.417969 13.890625 26.417969 Z M 13.890625 26.417969 "/>
<path style=" stroke:none;fill-rule:nonzero;fill:rgb(61.960787%,61.960787%,61.960787%);fill-opacity:1;" d="M 13.890625 30.386719 C 14.710938 30.386719 15.378906 31.050781 15.378906 31.875 C 15.378906 32.695312 14.710938 33.363281 13.890625 33.363281 C 13.070312 33.363281 12.402344 32.695312 12.402344 31.875 C 12.402344 31.050781 13.070312 30.386719 13.890625 30.386719 Z M 13.890625 30.386719 "/>
<path style=" stroke:none;fill-rule:nonzero;fill:rgb(25.882354%,25.882354%,25.882354%);fill-opacity:1;" d="M 17.207031 39.449219 L 29.984375 26.527344 L 30.5 22.777344 L 28.5625 20.859375 L 24.816406 21.417969 L 12.035156 34.339844 Z M 17.207031 39.449219 "/>
<path style=" stroke:none;fill-rule:nonzero;fill:rgb(50.588238%,78.039217%,51.764709%);fill-opacity:1;" d="M 16.351562 40.316406 L 15.488281 39.460938 L 16.34375 38.597656 L 17.207031 39.449219 Z M 16.351562 40.316406 "/>
<path style=" stroke:none;fill-rule:nonzero;fill:rgb(100%,54.11765%,39.607844%);fill-opacity:1;" d="M 9.527344 45.492188 C 10.007812 45.960938 10.769531 45.957031 11.242188 45.480469 L 12.09375 44.621094 L 12.945312 43.757812 L 16.355469 40.3125 L 11.183594 35.199219 L 7.777344 38.648438 L 6.925781 39.507812 L 6.074219 40.371094 C 5.601562 40.847656 5.605469 41.609375 6.082031 42.082031 Z M 9.527344 45.492188 "/>
<path style=" stroke:none;fill-rule:nonzero;fill:rgb(50.588238%,78.039217%,51.764709%);fill-opacity:1;" d="M 12.042969 36.054688 L 11.183594 35.203125 L 12.035156 34.339844 L 12.898438 35.191406 Z M 12.042969 36.054688 "/>
<path style=" stroke:none;fill-rule:nonzero;fill:rgb(45.882353%,45.882353%,45.882353%);fill-opacity:1;" d="M 14.863281 37.164062 L 26.761719 24.617188 C 27.109375 24.253906 27.351562 23.925781 27.292969 23.867188 L 24.816406 21.417969 L 12.035156 34.339844 L 11.183594 35.199219 L 7.777344 38.648438 L 12.035156 34.339844 Z M 14.863281 37.164062 "/>
<path style=" stroke:none;fill-rule:nonzero;fill:rgb(100%,87.843138%,69.803923%);fill-opacity:1;" d="M 29.984375 26.527344 L 30.5 22.777344 L 28.5625 20.859375 L 24.816406 21.417969 L 25.679688 22.910156 C 26.25 22.941406 27.378906 23.101562 27.816406 23.53125 L 27.835938 23.550781 C 28.273438 23.980469 28.234375 25.542969 28.269531 26.109375 Z M 29.984375 26.527344 "/>
<path style=" stroke:none;fill-rule:nonzero;fill:rgb(100%,87.843138%,69.803923%);fill-opacity:1;" d="M 28.382812 27.070312 C 28.679688 27.367188 29.207031 27.316406 29.558594 26.957031 L 29.984375 26.527344 L 30.289062 24.3125 C 30.101562 24.347656 29.914062 24.445312 29.761719 24.601562 L 28.480469 25.894531 C 28.128906 26.25 28.082031 26.777344 28.382812 27.070312 Z M 24.699219 22.792969 C 25.035156 23.125 25.625 23.066406 26.023438 22.664062 L 27.460938 21.210938 C 27.527344 21.144531 27.582031 21.074219 27.628906 21 L 24.867188 21.410156 L 24.8125 21.464844 C 24.414062 21.867188 24.363281 22.460938 24.699219 22.792969 Z M 24.699219 22.792969 "/>
<path style=" stroke:none;fill-rule:nonzero;fill:rgb(100%,34.117648%,13.333334%);fill-opacity:0.999893;" d="M 11.242188 45.480469 L 11.191406 39.289062 L 15.492188 39.460938 L 16.351562 40.316406 L 17.382812 39.273438 Z M 11.242188 45.480469 "/>
<path style=" stroke:none;fill-rule:nonzero;fill:rgb(38.039216%,38.039216%,38.039216%);fill-opacity:1;" d="M 16.34375 38.597656 L 24.863281 29.984375 L 26.566406 28.261719 L 27.84375 26.96875 C 28.789062 26.011719 28.785156 24.488281 27.835938 23.550781 L 27.816406 23.53125 C 26.867188 22.59375 25.34375 22.605469 24.398438 23.558594 L 23.121094 24.851562 L 21.417969 26.574219 L 12.898438 35.191406 Z M 16.34375 38.597656 "/>
<path style=" stroke:none;fill-rule:nonzero;fill:rgb(100%,43.921569%,26.274511%);fill-opacity:1;" d="M 9.519531 43.777344 C 9.996094 44.25 10.761719 44.246094 11.234375 43.769531 L 15.492188 39.460938 L 12.046875 36.050781 L 7.785156 40.359375 C 7.316406 40.835938 7.320312 41.601562 7.796875 42.074219 Z M 9.519531 43.777344 "/>
<path style=" stroke:none;fill-rule:nonzero;fill:rgb(100%,43.921569%,26.274511%);fill-opacity:1;" d="M 30.5 22.777344 L 30.808594 20.527344 L 28.5625 20.859375 Z M 30.5 22.777344 "/>
<path style=" stroke:none;fill-rule:nonzero;fill:rgb(100%,67.058825%,56.862748%);fill-opacity:1;" d="M 29.523438 21.125 C 29.496094 21.046875 29.667969 20.917969 29.90625 20.839844 C 30.144531 20.761719 30.359375 20.761719 30.386719 20.839844 C 30.410156 20.921875 30.238281 21.050781 30 21.128906 C 29.761719 21.207031 29.546875 21.203125 29.523438 21.125 Z M 29.523438 21.125 "/>
<path style=" stroke:none;fill-rule:nonzero;fill:rgb(74.117649%,74.117649%,74.117649%);fill-opacity:1;" d="M 15.488281 39.460938 L 12.042969 36.054688 L 12.898438 35.191406 L 16.34375 38.597656 Z M 15.488281 39.460938 "/>
<path style=" stroke:none;fill-rule:nonzero;fill:rgb(87.843138%,87.843138%,87.843138%);fill-opacity:1;" d="M 12.042969 36.054688 L 11.183594 35.203125 L 12.035156 34.339844 L 12.898438 35.191406 Z M 12.042969 36.054688 "/>
<path style=" stroke:none;fill-rule:nonzero;fill:rgb(45.882353%,45.882353%,45.882353%);fill-opacity:1;" d="M 16.355469 40.3125 L 15.492188 39.460938 L 16.347656 38.597656 L 17.207031 39.449219 Z M 16.355469 40.3125 "/>
</g>
</svg>
