<?xml version="1.0" encoding="UTF-8"?>
<svg xmlns="http://www.w3.org/2000/svg" xmlns:xlink="http://www.w3.org/1999/xlink" width="48px" height="48px" viewBox="0 0 48 48" version="1.1">
<g id="surface1">
<path style=" stroke:none;fill-rule:nonzero;fill:rgb(25.882354%,25.882354%,25.882354%);fill-opacity:1;" d="M 3.96875 2.359375 L 43.65625 2.359375 C 44.753906 2.359375 45.640625 3.246094 45.640625 4.34375 L 45.640625 44.03125 C 45.640625 45.128906 44.753906 46.015625 43.65625 46.015625 L 3.96875 46.015625 C 2.871094 46.015625 1.984375 45.128906 1.984375 44.03125 L 1.984375 4.34375 C 1.984375 3.246094 2.871094 2.359375 3.96875 2.359375 Z M 3.96875 2.359375 "/>
<path style=" stroke:none;fill-rule:nonzero;fill:rgb(83.137256%,88.235295%,34.117648%);fill-opacity:1;" d="M 39.242188 14.9375 C 36.492188 17.027344 32.644531 20.316406 28.34375 23.175781 C 26.554688 19.585938 24.964844 15.539062 21.019531 15.023438 C 14.417969 14.160156 10.640625 19.96875 8.113281 25.5625 C 7.777344 26.304688 6.171875 29.726562 6.84375 31.949219 C 7.488281 34.078125 10.445312 33.625 12.453125 33.136719 C 15.800781 32.320312 18.09375 31.367188 20.703125 29.871094 C 21.976562 29.125 23.136719 28.421875 24.203125 27.757812 C 24.511719 28.226562 24.824219 28.683594 25.144531 29.128906 C 26.605469 31.144531 28.597656 33.183594 30.417969 33.457031 C 34.820312 33.757812 37.96875 30.445312 40.792969 27.34375 L 40.792969 27.339844 C 36.351562 29.664062 34.628906 29.527344 32.3125 28.257812 C 30.925781 27.496094 29.925781 26.105469 29.039062 24.5 C 33.398438 21.304688 35.789062 18.648438 39.242188 14.9375 Z M 16.371094 18.015625 C 18.023438 18.011719 19.128906 19.402344 20.066406 20.8125 C 21.128906 22.574219 22.144531 24.421875 23.21875 26.191406 C 20.058594 27.78125 16.800781 28.863281 13.65625 28.890625 C 11.375 28.914062 8.929688 25.550781 10.335938 23.039062 C 11.214844 21.464844 12.347656 19.996094 13.507812 19.179688 C 14.621094 18.351562 15.5625 18.019531 16.371094 18.015625 Z M 16.371094 18.015625 "/>
</g>
</svg>
