
<svg xmlns="http://www.w3.org/2000/svg" xmlns:xlink="http://www.w3.org/1999/xlink" width="48px" height="48px" viewBox="0 0 48 48" version="1.1">
<defs>
<filter id="alpha" filterUnits="objectBoundingBox" x="0%" y="0%" width="100%" height="100%">
  <feColorMatrix type="matrix" in="SourceGraphic" values="0 0 0 0 1 0 0 0 0 1 0 0 0 0 1 0 0 0 1 0"/>
</filter>
<mask id="mask0">
  <g filter="url(#alpha)">
<rect x="0" y="0" width="48" height="48" style="fill:rgb(0%,0%,0%);fill-opacity:0.986432;stroke:none;"/>
  </g>
</mask>
<clipPath id="clip1">
  <rect x="0" y="0" width="48" height="48"/>
</clipPath>
<g id="surface5" clip-path="url(#clip1)">
<path style=" stroke:none;fill-rule:nonzero;fill:rgb(76.078433%,9.411765%,35.686275%);fill-opacity:1;" d="M 12.898438 3.96875 L 34.726562 3.96875 C 35.824219 3.96875 36.710938 4.855469 36.710938 5.953125 L 36.710938 32.246094 C 36.710938 33.34375 35.824219 34.230469 34.726562 34.230469 L 12.898438 34.230469 C 11.800781 34.230469 10.914062 33.34375 10.914062 32.246094 L 10.914062 5.953125 C 10.914062 4.855469 11.800781 3.96875 12.898438 3.96875 Z M 12.898438 3.96875 "/>
</g>
<mask id="mask1">
  <g filter="url(#alpha)">
<rect x="0" y="0" width="48" height="48" style="fill:rgb(0%,0%,0%);fill-opacity:0.99;stroke:none;"/>
  </g>
</mask>
<clipPath id="clip2">
  <rect x="0" y="0" width="48" height="48"/>
</clipPath>
<g id="surface8" clip-path="url(#clip2)">
<path style=" stroke:none;fill-rule:nonzero;fill:rgb(38.039216%,38.039216%,38.039216%);fill-opacity:1;" d="M 15.378906 15.378906 L 32.246094 15.378906 C 32.519531 15.378906 32.742188 15.601562 32.742188 15.875 L 32.742188 22.820312 C 32.742188 23.09375 32.519531 23.316406 32.246094 23.316406 L 15.378906 23.316406 C 15.105469 23.316406 14.882812 23.09375 14.882812 22.820312 L 14.882812 15.875 C 14.882812 15.601562 15.105469 15.378906 15.378906 15.378906 Z M 15.378906 15.378906 "/>
</g>
<mask id="mask2">
  <g filter="url(#alpha)">
<rect x="0" y="0" width="48" height="48" style="fill:rgb(0%,0%,0%);fill-opacity:0.99;stroke:none;"/>
  </g>
</mask>
<clipPath id="clip3">
  <rect x="0" y="0" width="48" height="48"/>
</clipPath>
<g id="surface11" clip-path="url(#clip3)">
<path style=" stroke:none;fill-rule:nonzero;fill:rgb(61.960787%,61.960787%,61.960787%);fill-opacity:1;" d="M 15.007812 15.625 C 15.074219 15.625 15.128906 15.738281 15.128906 15.875 L 15.128906 23.066406 C 15.128906 23.207031 15.074219 23.316406 15.007812 23.316406 C 14.9375 23.316406 14.882812 23.207031 14.882812 23.066406 L 14.882812 15.875 C 14.882812 15.738281 14.9375 15.625 15.007812 15.625 Z M 15.007812 15.625 "/>
</g>
<mask id="mask3">
  <g filter="url(#alpha)">
<rect x="0" y="0" width="48" height="48" style="fill:rgb(0%,0%,0%);fill-opacity:0.966;stroke:none;"/>
  </g>
</mask>
<clipPath id="clip4">
  <rect x="0" y="0" width="48" height="48"/>
</clipPath>
<g id="surface14" clip-path="url(#clip4)">
<path style=" stroke:none;fill-rule:nonzero;fill:rgb(25.882354%,25.882354%,25.882354%);fill-opacity:1;" d="M 15.875 15.875 L 32.742188 15.875 L 32.742188 17.859375 L 15.875 17.859375 Z M 15.875 15.875 "/>
</g>
<mask id="mask4">
  <g filter="url(#alpha)">
<rect x="0" y="0" width="48" height="48" style="fill:rgb(0%,0%,0%);fill-opacity:0.99;stroke:none;"/>
  </g>
</mask>
<clipPath id="clip5">
  <rect x="0" y="0" width="48" height="48"/>
</clipPath>
<g id="surface17" clip-path="url(#clip5)">
<path style=" stroke:none;fill-rule:nonzero;fill:rgb(61.960787%,61.960787%,61.960787%);fill-opacity:1;" d="M 23.8125 15.875 C 23.949219 15.875 24.058594 15.984375 24.058594 16.125 L 24.058594 23.066406 C 24.058594 23.207031 23.949219 23.316406 23.8125 23.316406 C 23.675781 23.316406 23.5625 23.207031 23.5625 23.066406 L 23.5625 16.125 C 23.5625 15.984375 23.675781 15.875 23.8125 15.875 Z M 23.8125 15.875 "/>
</g>
<mask id="mask5">
  <g filter="url(#alpha)">
<rect x="0" y="0" width="48" height="48" style="fill:rgb(0%,0%,0%);fill-opacity:0.986432;stroke:none;"/>
  </g>
</mask>
<clipPath id="clip6">
  <rect x="0" y="0" width="48" height="48"/>
</clipPath>
<g id="surface20" clip-path="url(#clip6)">
<path style=" stroke:none;fill-rule:nonzero;fill:rgb(92.54902%,25.098041%,47.843137%);fill-opacity:1;" d="M 9.921875 32.246094 L 37.703125 32.246094 C 38.25 32.246094 38.695312 32.691406 38.695312 33.238281 L 38.695312 35.71875 C 38.695312 36.265625 38.25 36.710938 37.703125 36.710938 L 9.921875 36.710938 C 9.375 36.710938 8.929688 36.265625 8.929688 35.71875 L 8.929688 33.238281 C 8.929688 32.691406 9.375 32.246094 9.921875 32.246094 Z M 9.921875 32.246094 "/>
</g>
<mask id="mask6">
  <g filter="url(#alpha)">
<rect x="0" y="0" width="48" height="48" style="fill:rgb(0%,0%,0%);fill-opacity:0.986432;stroke:none;"/>
  </g>
</mask>
<clipPath id="clip7">
  <rect x="0" y="0" width="48" height="48"/>
</clipPath>
<g id="surface23" clip-path="url(#clip7)">
<path style=" stroke:none;fill-rule:nonzero;fill:rgb(84.705883%,10.588235%,37.64706%);fill-opacity:1;" d="M 15.875 24.507812 L 15.875 35.917969 C 15.875 36.46875 16.316406 36.910156 16.867188 36.910156 L 30.757812 36.910156 C 31.308594 36.910156 31.734375 36.464844 31.75 35.917969 L 31.75 24.507812 Z M 15.875 24.507812 "/>
</g>
<mask id="mask7">
  <g filter="url(#alpha)">
<rect x="0" y="0" width="48" height="48" style="fill:rgb(0%,0%,0%);fill-opacity:0.986432;stroke:none;"/>
  </g>
</mask>
<clipPath id="clip8">
  <rect x="0" y="0" width="48" height="48"/>
</clipPath>
<g id="surface26" clip-path="url(#clip8)">
<path style=" stroke:none;fill-rule:nonzero;fill:rgb(91.37255%,11.764706%,38.82353%);fill-opacity:1;" d="M 9.921875 35.71875 L 37.703125 35.71875 C 38.25 35.71875 38.695312 35.816406 38.695312 35.9375 L 38.695312 36.492188 C 38.695312 36.613281 38.25 36.710938 37.703125 36.710938 L 9.921875 36.710938 C 9.375 36.710938 8.929688 36.613281 8.929688 36.492188 L 8.929688 35.9375 C 8.929688 35.816406 9.375 35.71875 9.921875 35.71875 Z M 9.921875 35.71875 "/>
</g>
<mask id="mask8">
  <g filter="url(#alpha)">
<rect x="0" y="0" width="48" height="48" style="fill:rgb(0%,0%,0%);fill-opacity:0.99;stroke:none;"/>
  </g>
</mask>
<clipPath id="clip9">
  <rect x="0" y="0" width="48" height="48"/>
</clipPath>
<g id="surface29" clip-path="url(#clip9)">
<path style=" stroke:none;fill-rule:nonzero;fill:rgb(61.960787%,61.960787%,61.960787%);fill-opacity:1;" d="M 32.617188 15.625 C 32.6875 15.625 32.742188 15.683594 32.742188 15.75 L 32.742188 23.191406 C 32.742188 23.261719 32.6875 23.316406 32.617188 23.316406 C 32.550781 23.316406 32.492188 23.261719 32.492188 23.191406 L 32.492188 15.75 C 32.492188 15.683594 32.550781 15.625 32.617188 15.625 Z M 32.617188 15.625 "/>
</g>
<mask id="mask9">
  <g filter="url(#alpha)">
<rect x="0" y="0" width="48" height="48" style="fill:rgb(0%,0%,0%);fill-opacity:0.99;stroke:none;"/>
  </g>
</mask>
<clipPath id="clip10">
  <rect x="0" y="0" width="48" height="48"/>
</clipPath>
<g id="surface32" clip-path="url(#clip10)">
<path style=" stroke:none;fill-rule:nonzero;fill:rgb(25.882354%,25.882354%,25.882354%);fill-opacity:1;" d="M 31.992188 16.867188 L 32.074219 16.867188 C 32.167969 16.867188 32.246094 16.976562 32.246094 17.117188 L 32.246094 22.074219 C 32.246094 22.214844 32.167969 22.324219 32.074219 22.324219 L 31.992188 22.324219 C 31.898438 22.324219 31.820312 22.214844 31.820312 22.074219 L 31.820312 17.117188 C 31.820312 16.976562 31.898438 16.867188 31.992188 16.867188 Z M 31.992188 16.867188 "/>
</g>
<mask id="mask10">
  <g filter="url(#alpha)">
<rect x="0" y="0" width="48" height="48" style="fill:rgb(0%,0%,0%);fill-opacity:0.986432;stroke:none;"/>
  </g>
</mask>
<clipPath id="clip11">
  <rect x="0" y="0" width="48" height="48"/>
</clipPath>
<g id="surface35" clip-path="url(#clip11)">
<path style=" stroke:none;fill-rule:nonzero;fill:rgb(94.117647%,38.431373%,57.254905%);fill-opacity:1;" d="M 23.8125 4.960938 C 30.386719 4.960938 35.71875 5.183594 35.71875 5.457031 C 35.71875 5.730469 30.386719 5.953125 23.8125 5.953125 C 17.238281 5.953125 11.90625 5.730469 11.90625 5.457031 C 11.90625 5.183594 17.238281 4.960938 23.8125 4.960938 Z M 23.8125 4.960938 "/>
</g>
<mask id="mask11">
  <g filter="url(#alpha)">
<rect x="0" y="0" width="48" height="48" style="fill:rgb(0%,0%,0%);fill-opacity:0.986432;stroke:none;"/>
  </g>
</mask>
<clipPath id="clip12">
  <rect x="0" y="0" width="48" height="48"/>
</clipPath>
<g id="surface38" clip-path="url(#clip12)">
<path style=" stroke:none;fill-rule:nonzero;fill:rgb(45.882353%,45.882353%,45.882353%);fill-opacity:1;" d="M 22.324219 38.199219 L 25.300781 38.199219 L 25.300781 40.183594 L 22.324219 40.183594 Z M 22.324219 38.199219 "/>
</g>
<mask id="mask12">
  <g filter="url(#alpha)">
<rect x="0" y="0" width="48" height="48" style="fill:rgb(0%,0%,0%);fill-opacity:0.986432;stroke:none;"/>
  </g>
</mask>
<clipPath id="clip13">
  <rect x="0" y="0" width="48" height="48"/>
</clipPath>
<g id="surface41" clip-path="url(#clip13)">
<path style=" stroke:none;fill-rule:nonzero;fill:rgb(74.117649%,74.117649%,74.117649%);fill-opacity:1;" d="M 15.875 24.308594 L 15.875 35.71875 C 15.875 36.269531 16.316406 36.710938 16.867188 36.710938 L 30.757812 36.710938 C 31.308594 36.710938 31.734375 36.269531 31.75 35.71875 L 31.75 24.308594 Z M 15.875 24.308594 "/>
</g>
<mask id="mask13">
  <g filter="url(#alpha)">
<rect x="0" y="0" width="48" height="48" style="fill:rgb(0%,0%,0%);fill-opacity:0.99;stroke:none;"/>
  </g>
</mask>
<clipPath id="clip14">
  <rect x="0" y="0" width="48" height="48"/>
</clipPath>
<g id="surface44" clip-path="url(#clip14)">
<path style=" stroke:none;fill-rule:nonzero;fill:rgb(61.960787%,61.960787%,61.960787%);fill-opacity:1;" d="M 15.132812 22.820312 L 32.492188 22.820312 C 32.632812 22.820312 32.742188 22.929688 32.742188 23.066406 C 32.742188 23.207031 32.632812 23.316406 32.492188 23.316406 L 15.132812 23.316406 C 14.992188 23.316406 14.882812 23.207031 14.882812 23.066406 C 14.882812 22.929688 14.992188 22.820312 15.132812 22.820312 Z M 15.132812 22.820312 "/>
</g>
<mask id="mask14">
  <g filter="url(#alpha)">
<rect x="0" y="0" width="48" height="48" style="fill:rgb(0%,0%,0%);fill-opacity:0.986432;stroke:none;"/>
  </g>
</mask>
<clipPath id="clip15">
  <rect x="0" y="0" width="48" height="48"/>
</clipPath>
<g id="surface47" clip-path="url(#clip15)">
<path style=" stroke:none;fill-rule:nonzero;fill:rgb(74.117649%,74.117649%,74.117649%);fill-opacity:1;" d="M 23.8125 22.820312 C 28.195312 22.820312 31.75 23.488281 31.75 24.308594 L 31.75 25.796875 C 31.75 26.617188 28.195312 27.285156 23.8125 27.285156 C 19.429688 27.285156 15.875 26.617188 15.875 25.796875 L 15.875 24.308594 C 15.875 23.488281 19.429688 22.820312 23.8125 22.820312 Z M 23.8125 22.820312 "/>
</g>
<mask id="mask15">
  <g filter="url(#alpha)">
<rect x="0" y="0" width="48" height="48" style="fill:rgb(0%,0%,0%);fill-opacity:0.986432;stroke:none;"/>
  </g>
</mask>
<clipPath id="clip16">
  <rect x="0" y="0" width="48" height="48"/>
</clipPath>
<g id="surface50" clip-path="url(#clip16)">
<path style=" stroke:none;fill-rule:nonzero;fill:rgb(61.960787%,61.960787%,61.960787%);fill-opacity:1;" d="M 23.8125 24.308594 C 20.238281 24.308594 17.363281 24.972656 17.363281 25.796875 L 17.363281 34.230469 C 17.363281 34.78125 17.804688 35.222656 18.355469 35.222656 L 29.269531 35.222656 C 29.820312 35.222656 30.261719 34.78125 30.261719 34.230469 L 30.261719 25.796875 C 30.261719 24.972656 27.386719 24.308594 23.8125 24.308594 Z M 23.8125 24.308594 "/>
</g>
<mask id="mask16">
  <g filter="url(#alpha)">
<rect x="0" y="0" width="48" height="48" style="fill:rgb(0%,0%,0%);fill-opacity:0.986432;stroke:none;"/>
  </g>
</mask>
<clipPath id="clip17">
  <rect x="0" y="0" width="48" height="48"/>
</clipPath>
<g id="surface53" clip-path="url(#clip17)">
<path style=" stroke:none;fill-rule:nonzero;fill:rgb(74.117649%,74.117649%,74.117649%);fill-opacity:1;" d="M 18.355469 24.308594 L 18.851562 24.308594 L 18.851562 36.214844 L 18.355469 36.214844 Z M 18.355469 24.308594 "/>
</g>
<mask id="mask17">
  <g filter="url(#alpha)">
<rect x="0" y="0" width="48" height="48" style="fill:rgb(0%,0%,0%);fill-opacity:0.986432;stroke:none;"/>
  </g>
</mask>
<clipPath id="clip18">
  <rect x="0" y="0" width="48" height="48"/>
</clipPath>
<g id="surface56" clip-path="url(#clip18)">
<path style=" stroke:none;fill-rule:nonzero;fill:rgb(74.117649%,74.117649%,74.117649%);fill-opacity:1;" d="M 19.84375 24.308594 L 20.339844 24.308594 L 20.339844 36.214844 L 19.84375 36.214844 Z M 19.84375 24.308594 "/>
</g>
<mask id="mask18">
  <g filter="url(#alpha)">
<rect x="0" y="0" width="48" height="48" style="fill:rgb(0%,0%,0%);fill-opacity:0.986432;stroke:none;"/>
  </g>
</mask>
<clipPath id="clip19">
  <rect x="0" y="0" width="48" height="48"/>
</clipPath>
<g id="surface59" clip-path="url(#clip19)">
<path style=" stroke:none;fill-rule:nonzero;fill:rgb(74.117649%,74.117649%,74.117649%);fill-opacity:1;" d="M 21.332031 24.308594 L 21.828125 24.308594 L 21.828125 36.214844 L 21.332031 36.214844 Z M 21.332031 24.308594 "/>
</g>
<mask id="mask19">
  <g filter="url(#alpha)">
<rect x="0" y="0" width="48" height="48" style="fill:rgb(0%,0%,0%);fill-opacity:0.986432;stroke:none;"/>
  </g>
</mask>
<clipPath id="clip20">
  <rect x="0" y="0" width="48" height="48"/>
</clipPath>
<g id="surface62" clip-path="url(#clip20)">
<path style=" stroke:none;fill-rule:nonzero;fill:rgb(74.117649%,74.117649%,74.117649%);fill-opacity:1;" d="M 22.820312 24.308594 L 23.316406 24.308594 L 23.316406 36.214844 L 22.820312 36.214844 Z M 22.820312 24.308594 "/>
</g>
<mask id="mask20">
  <g filter="url(#alpha)">
<rect x="0" y="0" width="48" height="48" style="fill:rgb(0%,0%,0%);fill-opacity:0.986432;stroke:none;"/>
  </g>
</mask>
<clipPath id="clip21">
  <rect x="0" y="0" width="48" height="48"/>
</clipPath>
<g id="surface65" clip-path="url(#clip21)">
<path style=" stroke:none;fill-rule:nonzero;fill:rgb(74.117649%,74.117649%,74.117649%);fill-opacity:1;" d="M 24.308594 24.308594 L 24.804688 24.308594 L 24.804688 36.214844 L 24.308594 36.214844 Z M 24.308594 24.308594 "/>
</g>
<mask id="mask21">
  <g filter="url(#alpha)">
<rect x="0" y="0" width="48" height="48" style="fill:rgb(0%,0%,0%);fill-opacity:0.986432;stroke:none;"/>
  </g>
</mask>
<clipPath id="clip22">
  <rect x="0" y="0" width="48" height="48"/>
</clipPath>
<g id="surface68" clip-path="url(#clip22)">
<path style=" stroke:none;fill-rule:nonzero;fill:rgb(74.117649%,74.117649%,74.117649%);fill-opacity:1;" d="M 25.796875 24.308594 L 26.292969 24.308594 L 26.292969 36.214844 L 25.796875 36.214844 Z M 25.796875 24.308594 "/>
</g>
<mask id="mask22">
  <g filter="url(#alpha)">
<rect x="0" y="0" width="48" height="48" style="fill:rgb(0%,0%,0%);fill-opacity:0.986432;stroke:none;"/>
  </g>
</mask>
<clipPath id="clip23">
  <rect x="0" y="0" width="48" height="48"/>
</clipPath>
<g id="surface71" clip-path="url(#clip23)">
<path style=" stroke:none;fill-rule:nonzero;fill:rgb(74.117649%,74.117649%,74.117649%);fill-opacity:1;" d="M 27.285156 24.308594 L 27.78125 24.308594 L 27.78125 36.214844 L 27.285156 36.214844 Z M 27.285156 24.308594 "/>
</g>
<mask id="mask23">
  <g filter="url(#alpha)">
<rect x="0" y="0" width="48" height="48" style="fill:rgb(0%,0%,0%);fill-opacity:0.986432;stroke:none;"/>
  </g>
</mask>
<clipPath id="clip24">
  <rect x="0" y="0" width="48" height="48"/>
</clipPath>
<g id="surface74" clip-path="url(#clip24)">
<path style=" stroke:none;fill-rule:nonzero;fill:rgb(74.117649%,74.117649%,74.117649%);fill-opacity:1;" d="M 28.773438 24.308594 L 29.269531 24.308594 L 29.269531 36.214844 L 28.773438 36.214844 Z M 28.773438 24.308594 "/>
</g>
<mask id="mask24">
  <g filter="url(#alpha)">
<rect x="0" y="0" width="48" height="48" style="fill:rgb(0%,0%,0%);fill-opacity:0.986432;stroke:none;"/>
  </g>
</mask>
<clipPath id="clip25">
  <rect x="0" y="0" width="48" height="48"/>
</clipPath>
<g id="surface77" clip-path="url(#clip25)">
<path style=" stroke:none;fill-rule:nonzero;fill:rgb(100%,43.921569%,26.274511%);fill-opacity:1;" d="M 38.449219 31.253906 L 36.710938 31.253906 C 36.4375 31.253906 36.214844 31.476562 36.214844 31.75 L 36.214844 33.238281 C 36.214844 33.511719 36.4375 33.734375 36.710938 33.734375 L 38.449219 33.734375 C 38.722656 33.734375 38.945312 33.511719 38.945312 33.238281 L 38.945312 31.75 C 38.945312 31.476562 38.722656 31.253906 38.449219 31.253906 Z M 38.449219 31.253906 "/>
</g>
<mask id="mask25">
  <g filter="url(#alpha)">
<rect x="0" y="0" width="48" height="48" style="fill:rgb(0%,0%,0%);fill-opacity:0.986432;stroke:none;"/>
  </g>
</mask>
<clipPath id="clip26">
  <rect x="0" y="0" width="48" height="48"/>
</clipPath>
<g id="surface80" clip-path="url(#clip26)">
<path style=" stroke:none;fill-rule:nonzero;fill:rgb(87.843138%,87.843138%,87.843138%);fill-opacity:1;" d="M 37.453125 31.253906 L 32.492188 31.253906 C 32.21875 31.253906 31.996094 31.476562 31.996094 31.75 L 31.996094 33.238281 C 31.996094 33.511719 32.21875 33.734375 32.492188 33.734375 L 37.453125 33.734375 C 37.730469 33.734375 37.953125 33.511719 37.953125 33.238281 L 37.953125 31.75 C 37.953125 31.476562 37.730469 31.253906 37.453125 31.253906 Z M 37.453125 31.253906 "/>
</g>
<mask id="mask26">
  <g filter="url(#alpha)">
<rect x="0" y="0" width="48" height="48" style="fill:rgb(0%,0%,0%);fill-opacity:0.986432;stroke:none;"/>
  </g>
</mask>
<clipPath id="clip27">
  <rect x="0" y="0" width="48" height="48"/>
</clipPath>
<g id="surface83" clip-path="url(#clip27)">
<path style=" stroke:none;fill-rule:nonzero;fill:rgb(45.882353%,45.882353%,45.882353%);fill-opacity:1;" d="M 36.957031 31.75 L 35.472656 31.75 C 35.332031 31.75 35.222656 31.859375 35.222656 32 L 35.222656 32.988281 C 35.222656 33.128906 35.332031 33.238281 35.472656 33.238281 L 36.957031 33.238281 C 37.097656 33.238281 37.207031 33.128906 37.207031 32.988281 L 37.207031 32 C 37.207031 31.859375 37.097656 31.75 36.957031 31.75 Z M 36.957031 31.75 "/>
</g>
<mask id="mask27">
  <g filter="url(#alpha)">
<rect x="0" y="0" width="48" height="48" style="fill:rgb(0%,0%,0%);fill-opacity:0.986432;stroke:none;"/>
  </g>
</mask>
<clipPath id="clip28">
  <rect x="0" y="0" width="48" height="48"/>
</clipPath>
<g id="surface86" clip-path="url(#clip28)">
<path style=" stroke:none;fill-rule:nonzero;fill:rgb(45.882353%,45.882353%,45.882353%);fill-opacity:1;" d="M 34.476562 31.75 L 32.992188 31.75 C 32.851562 31.75 32.742188 31.859375 32.742188 32 L 32.742188 32.988281 C 32.742188 33.128906 32.851562 33.238281 32.992188 33.238281 L 34.476562 33.238281 C 34.617188 33.238281 34.726562 33.128906 34.726562 32.988281 L 34.726562 32 C 34.726562 31.859375 34.617188 31.75 34.476562 31.75 Z M 34.476562 31.75 "/>
</g>
<mask id="mask28">
  <g filter="url(#alpha)">
<rect x="0" y="0" width="48" height="48" style="fill:rgb(0%,0%,0%);fill-opacity:0.986432;stroke:none;"/>
  </g>
</mask>
<clipPath id="clip29">
  <rect x="0" y="0" width="48" height="48"/>
</clipPath>
<g id="surface89" clip-path="url(#clip29)">
<path style=" stroke:none;fill-rule:nonzero;fill:rgb(100%,67.058825%,56.862748%);fill-opacity:1;" d="M 38.480469 31.503906 L 38.414062 31.503906 C 38.292969 31.503906 38.199219 31.722656 38.199219 32 L 38.199219 32.496094 C 38.199219 32.769531 38.292969 32.992188 38.414062 32.992188 L 38.480469 32.992188 C 38.601562 32.992188 38.695312 32.769531 38.695312 32.496094 L 38.695312 32 C 38.695312 31.722656 38.601562 31.503906 38.480469 31.503906 Z M 38.480469 31.503906 "/>
</g>
<mask id="mask29">
  <g filter="url(#alpha)">
<rect x="0" y="0" width="48" height="48" style="fill:rgb(0%,0%,0%);fill-opacity:0.986432;stroke:none;"/>
  </g>
</mask>
<clipPath id="clip30">
  <rect x="0" y="0" width="48" height="48"/>
</clipPath>
<g id="surface92" clip-path="url(#clip30)">
<path style=" stroke:none;fill-rule:nonzero;fill:rgb(100%,43.921569%,26.274511%);fill-opacity:1;" d="M 9.175781 31.253906 L 10.914062 31.253906 C 11.1875 31.253906 11.410156 31.476562 11.410156 31.75 L 11.410156 33.238281 C 11.410156 33.511719 11.1875 33.734375 10.914062 33.734375 L 9.175781 33.734375 C 8.902344 33.734375 8.679688 33.511719 8.679688 33.238281 L 8.679688 31.75 C 8.679688 31.476562 8.902344 31.253906 9.175781 31.253906 Z M 9.175781 31.253906 "/>
</g>
<mask id="mask30">
  <g filter="url(#alpha)">
<rect x="0" y="0" width="48" height="48" style="fill:rgb(0%,0%,0%);fill-opacity:0.986432;stroke:none;"/>
  </g>
</mask>
<clipPath id="clip31">
  <rect x="0" y="0" width="48" height="48"/>
</clipPath>
<g id="surface95" clip-path="url(#clip31)">
<path style=" stroke:none;fill-rule:nonzero;fill:rgb(87.843138%,87.843138%,87.843138%);fill-opacity:1;" d="M 10.171875 31.253906 L 15.132812 31.253906 C 15.40625 31.253906 15.628906 31.476562 15.628906 31.75 L 15.628906 33.238281 C 15.628906 33.511719 15.40625 33.734375 15.132812 33.734375 L 10.171875 33.734375 C 9.894531 33.734375 9.671875 33.511719 9.671875 33.238281 L 9.671875 31.75 C 9.671875 31.476562 9.894531 31.253906 10.171875 31.253906 Z M 10.171875 31.253906 "/>
</g>
<mask id="mask31">
  <g filter="url(#alpha)">
<rect x="0" y="0" width="48" height="48" style="fill:rgb(0%,0%,0%);fill-opacity:0.986432;stroke:none;"/>
  </g>
</mask>
<clipPath id="clip32">
  <rect x="0" y="0" width="48" height="48"/>
</clipPath>
<g id="surface98" clip-path="url(#clip32)">
<path style=" stroke:none;fill-rule:nonzero;fill:rgb(45.882353%,45.882353%,45.882353%);fill-opacity:1;" d="M 10.667969 31.75 L 12.152344 31.75 C 12.292969 31.75 12.402344 31.859375 12.402344 32 L 12.402344 32.988281 C 12.402344 33.128906 12.292969 33.238281 12.152344 33.238281 L 10.667969 33.238281 C 10.527344 33.238281 10.417969 33.128906 10.417969 32.988281 L 10.417969 32 C 10.417969 31.859375 10.527344 31.75 10.667969 31.75 Z M 10.667969 31.75 "/>
</g>
<mask id="mask32">
  <g filter="url(#alpha)">
<rect x="0" y="0" width="48" height="48" style="fill:rgb(0%,0%,0%);fill-opacity:0.986432;stroke:none;"/>
  </g>
</mask>
<clipPath id="clip33">
  <rect x="0" y="0" width="48" height="48"/>
</clipPath>
<g id="surface101" clip-path="url(#clip33)">
<path style=" stroke:none;fill-rule:nonzero;fill:rgb(45.882353%,45.882353%,45.882353%);fill-opacity:1;" d="M 13.148438 31.75 L 14.632812 31.75 C 14.773438 31.75 14.882812 31.859375 14.882812 32 L 14.882812 32.988281 C 14.882812 33.128906 14.773438 33.238281 14.632812 33.238281 L 13.148438 33.238281 C 13.007812 33.238281 12.898438 33.128906 12.898438 32.988281 L 12.898438 32 C 12.898438 31.859375 13.007812 31.75 13.148438 31.75 Z M 13.148438 31.75 "/>
</g>
<mask id="mask33">
  <g filter="url(#alpha)">
<rect x="0" y="0" width="48" height="48" style="fill:rgb(0%,0%,0%);fill-opacity:0.986432;stroke:none;"/>
  </g>
</mask>
<clipPath id="clip34">
  <rect x="0" y="0" width="48" height="48"/>
</clipPath>
<g id="surface104" clip-path="url(#clip34)">
<path style=" stroke:none;fill-rule:nonzero;fill:rgb(100%,67.058825%,56.862748%);fill-opacity:1;" d="M 9.144531 31.503906 L 9.210938 31.503906 C 9.332031 31.503906 9.425781 31.722656 9.425781 32 L 9.425781 32.496094 C 9.425781 32.769531 9.332031 32.992188 9.210938 32.992188 L 9.144531 32.992188 C 9.023438 32.992188 8.929688 32.769531 8.929688 32.496094 L 8.929688 32 C 8.929688 31.722656 9.023438 31.503906 9.144531 31.503906 Z M 9.144531 31.503906 "/>
</g>
<mask id="mask34">
  <g filter="url(#alpha)">
<rect x="0" y="0" width="48" height="48" style="fill:rgb(0%,0%,0%);fill-opacity:0.986432;stroke:none;"/>
  </g>
</mask>
<clipPath id="clip35">
  <rect x="0" y="0" width="48" height="48"/>
</clipPath>
<g id="surface107" clip-path="url(#clip35)">
<path style=" stroke:none;fill-rule:nonzero;fill:rgb(61.960787%,61.960787%,61.960787%);fill-opacity:1;" d="M 11.039062 32 L 11.285156 32 C 11.492188 32 11.660156 32.164062 11.660156 32.371094 C 11.660156 32.574219 11.492188 32.742188 11.285156 32.742188 L 11.039062 32.742188 C 10.832031 32.742188 10.667969 32.574219 10.667969 32.371094 C 10.667969 32.164062 10.832031 32 11.039062 32 Z M 11.039062 32 "/>
</g>
<mask id="mask35">
  <g filter="url(#alpha)">
<rect x="0" y="0" width="48" height="48" style="fill:rgb(0%,0%,0%);fill-opacity:0.986432;stroke:none;"/>
  </g>
</mask>
<clipPath id="clip36">
  <rect x="0" y="0" width="48" height="48"/>
</clipPath>
<g id="surface110" clip-path="url(#clip36)">
<path style=" stroke:none;fill-rule:nonzero;fill:rgb(61.960787%,61.960787%,61.960787%);fill-opacity:1;" d="M 13.519531 32 L 13.765625 32 C 13.972656 32 14.140625 32.164062 14.140625 32.371094 C 14.140625 32.574219 13.972656 32.742188 13.765625 32.742188 L 13.519531 32.742188 C 13.3125 32.742188 13.148438 32.574219 13.148438 32.371094 C 13.148438 32.164062 13.3125 32 13.519531 32 Z M 13.519531 32 "/>
</g>
<mask id="mask36">
  <g filter="url(#alpha)">
<rect x="0" y="0" width="48" height="48" style="fill:rgb(0%,0%,0%);fill-opacity:0.986432;stroke:none;"/>
  </g>
</mask>
<clipPath id="clip37">
  <rect x="0" y="0" width="48" height="48"/>
</clipPath>
<g id="surface113" clip-path="url(#clip37)">
<path style=" stroke:none;fill-rule:nonzero;fill:rgb(61.960787%,61.960787%,61.960787%);fill-opacity:1;" d="M 33.363281 32 L 33.609375 32 C 33.816406 32 33.980469 32.164062 33.980469 32.371094 C 33.980469 32.574219 33.816406 32.742188 33.609375 32.742188 L 33.363281 32.742188 C 33.15625 32.742188 32.988281 32.574219 32.988281 32.371094 C 32.988281 32.164062 33.15625 32 33.363281 32 Z M 33.363281 32 "/>
</g>
<mask id="mask37">
  <g filter="url(#alpha)">
<rect x="0" y="0" width="48" height="48" style="fill:rgb(0%,0%,0%);fill-opacity:0.986432;stroke:none;"/>
  </g>
</mask>
<clipPath id="clip38">
  <rect x="0" y="0" width="48" height="48"/>
</clipPath>
<g id="surface116" clip-path="url(#clip38)">
<path style=" stroke:none;fill-rule:nonzero;fill:rgb(61.960787%,61.960787%,61.960787%);fill-opacity:1;" d="M 35.84375 32 L 36.089844 32 C 36.296875 32 36.460938 32.164062 36.460938 32.371094 C 36.460938 32.574219 36.296875 32.742188 36.089844 32.742188 L 35.84375 32.742188 C 35.636719 32.742188 35.46875 32.574219 35.46875 32.371094 C 35.46875 32.164062 35.636719 32 35.84375 32 Z M 35.84375 32 "/>
</g>
<mask id="mask38">
  <g filter="url(#alpha)">
<rect x="0" y="0" width="48" height="48" style="fill:rgb(0%,0%,0%);fill-opacity:0.99;stroke:none;"/>
  </g>
</mask>
<clipPath id="clip39">
  <rect x="0" y="0" width="48" height="48"/>
</clipPath>
<g id="surface119" clip-path="url(#clip39)">
<path style=" stroke:none;fill-rule:nonzero;fill:rgb(45.882353%,45.882353%,45.882353%);fill-opacity:1;" d="M 15.621094 16.867188 L 15.703125 16.867188 C 15.796875 16.867188 15.875 16.976562 15.875 17.117188 L 15.875 22.074219 C 15.875 22.214844 15.796875 22.324219 15.703125 22.324219 L 15.621094 22.324219 C 15.527344 22.324219 15.449219 22.214844 15.449219 22.074219 L 15.449219 17.117188 C 15.449219 16.976562 15.527344 16.867188 15.621094 16.867188 Z M 15.621094 16.867188 "/>
</g>
<mask id="mask39">
  <g filter="url(#alpha)">
<rect x="0" y="0" width="48" height="48" style="fill:rgb(0%,0%,0%);fill-opacity:0.986432;stroke:none;"/>
  </g>
</mask>
<clipPath id="clip40">
  <rect x="0" y="0" width="48" height="48"/>
</clipPath>
<g id="surface122" clip-path="url(#clip40)">
<path style=" stroke:none;fill-rule:nonzero;fill:rgb(87.843138%,87.843138%,87.843138%);fill-opacity:1;" d="M 23.8125 22.820312 C 19.414062 22.820312 15.875 23.484375 15.875 24.308594 L 15.875 24.804688 C 15.875 23.980469 19.414062 23.316406 23.8125 23.316406 C 28.210938 23.316406 31.75 23.980469 31.75 24.804688 L 31.75 24.308594 C 31.75 23.484375 28.210938 22.820312 23.8125 22.820312 Z M 23.8125 22.820312 "/>
</g>
<mask id="mask40">
  <g filter="url(#alpha)">
<rect x="0" y="0" width="48" height="48" style="fill:rgb(0%,0%,0%);fill-opacity:0.986432;stroke:none;"/>
  </g>
</mask>
<clipPath id="clip41">
  <rect x="0" y="0" width="48" height="48"/>
</clipPath>
<g id="surface125" clip-path="url(#clip41)">
<path style=" stroke:none;fill-rule:nonzero;fill:rgb(61.960787%,61.960787%,61.960787%);fill-opacity:1;" d="M 15.875 35.53125 L 15.875 35.71875 C 15.875 36.269531 16.316406 36.710938 16.867188 36.710938 L 30.757812 36.710938 C 31.308594 36.710938 31.734375 36.269531 31.75 35.71875 L 31.75 35.53125 C 31.734375 36.078125 31.308594 36.523438 30.757812 36.523438 L 16.867188 36.523438 C 16.316406 36.523438 15.875 36.078125 15.875 35.53125 Z M 15.875 35.53125 "/>
</g>
</defs>
<g id="surface1">
<path style=" stroke:none;fill-rule:nonzero;fill:rgb(61.960787%,61.960787%,61.960787%);fill-opacity:1;" d="M 8.929688 1.984375 L 38.695312 1.984375 C 39.242188 1.984375 39.6875 2.429688 39.6875 2.976562 L 39.6875 33.734375 C 39.6875 34.28125 39.242188 34.726562 38.695312 34.726562 L 8.929688 34.726562 C 8.382812 34.726562 7.9375 34.28125 7.9375 33.734375 L 7.9375 2.976562 C 7.9375 2.429688 8.382812 1.984375 8.929688 1.984375 Z M 8.929688 1.984375 "/>
<use xlink:href="#surface5" mask="url(#mask0)"/>
<path style=" stroke:none;fill-rule:nonzero;fill:rgb(25.882354%,25.882354%,25.882354%);fill-opacity:1;" d="M 9.921875 34.726562 L 12.898438 34.726562 C 13.445312 34.726562 13.890625 35.171875 13.890625 35.71875 L 13.890625 44.648438 C 13.890625 45.195312 13.445312 45.640625 12.898438 45.640625 L 9.921875 45.640625 C 9.375 45.640625 8.929688 45.195312 8.929688 44.648438 L 8.929688 35.71875 C 8.929688 35.171875 9.375 34.726562 9.921875 34.726562 Z M 9.921875 34.726562 "/>
<path style=" stroke:none;fill-rule:nonzero;fill:rgb(25.882354%,25.882354%,25.882354%);fill-opacity:1;" d="M 34.726562 34.726562 L 37.703125 34.726562 C 38.25 34.726562 38.695312 35.171875 38.695312 35.71875 L 38.695312 44.648438 C 38.695312 45.195312 38.25 45.640625 37.703125 45.640625 L 34.726562 45.640625 C 34.179688 45.640625 33.734375 45.195312 33.734375 44.648438 L 33.734375 35.71875 C 33.734375 35.171875 34.179688 34.726562 34.726562 34.726562 Z M 34.726562 34.726562 "/>
<path style=" stroke:none;fill-rule:nonzero;fill:rgb(92.54902%,25.098041%,47.843137%);fill-opacity:1;" d="M 14.882812 11.90625 L 32.742188 11.90625 C 33.289062 11.90625 33.734375 12.351562 33.734375 12.898438 L 33.734375 40.679688 C 33.734375 41.226562 33.289062 41.671875 32.742188 41.671875 L 14.882812 41.671875 C 14.335938 41.671875 13.890625 41.226562 13.890625 40.679688 L 13.890625 12.898438 C 13.890625 12.351562 14.335938 11.90625 14.882812 11.90625 Z M 14.882812 11.90625 "/>
<use xlink:href="#surface8" mask="url(#mask1)"/>
<use xlink:href="#surface11" mask="url(#mask2)"/>
<use xlink:href="#surface14" mask="url(#mask3)"/>
<use xlink:href="#surface17" mask="url(#mask4)"/>
<path style=" stroke:none;fill-rule:nonzero;fill:rgb(91.37255%,11.764706%,38.82353%);fill-opacity:1;" d="M 13.890625 23.316406 L 33.734375 23.316406 C 34.007812 23.316406 34.230469 23.539062 34.230469 23.8125 L 34.230469 41.175781 C 34.230469 41.449219 34.007812 41.671875 33.734375 41.671875 L 13.890625 41.671875 C 13.617188 41.671875 13.394531 41.449219 13.394531 41.175781 L 13.394531 23.8125 C 13.394531 23.539062 13.617188 23.316406 13.890625 23.316406 Z M 13.890625 23.316406 "/>
<use xlink:href="#surface20" mask="url(#mask5)"/>
<use xlink:href="#surface23" mask="url(#mask6)"/>
<use xlink:href="#surface26" mask="url(#mask7)"/>
<path style=" stroke:none;fill-rule:nonzero;fill:rgb(74.117649%,74.117649%,74.117649%);fill-opacity:1;" d="M 8.679688 36.460938 C 8.660156 36.542969 8.652344 36.625 8.652344 36.710938 L 8.652344 41.671875 C 8.652344 42.222656 9.09375 42.664062 9.644531 42.664062 L 37.980469 42.664062 C 38.53125 42.664062 38.972656 42.222656 38.972656 41.671875 L 38.972656 36.710938 C 38.972656 36.625 38.964844 36.542969 38.941406 36.460938 C 38.832031 36.890625 38.445312 37.207031 37.980469 37.207031 L 9.644531 37.207031 C 9.179688 37.207031 8.792969 36.890625 8.679688 36.460938 Z M 8.679688 36.460938 "/>
<use xlink:href="#surface29" mask="url(#mask8)"/>
<path style=" stroke:none;fill-rule:nonzero;fill:rgb(95.686275%,56.078434%,69.411767%);fill-opacity:1;" d="M 14.140625 13.890625 L 33.488281 13.890625 C 33.625 13.890625 33.734375 14 33.734375 14.136719 L 33.734375 16.105469 C 33.734375 16.242188 33.625 16.351562 33.488281 16.351562 L 14.140625 16.351562 C 14 16.351562 13.890625 16.242188 13.890625 16.105469 L 13.890625 14.136719 C 13.890625 14 14 13.890625 14.140625 13.890625 Z M 14.140625 13.890625 "/>
<path style=" stroke:none;fill-rule:nonzero;fill:rgb(45.882353%,45.882353%,45.882353%);fill-opacity:1;" d="M 7.9375 2.976562 L 39.6875 2.976562 L 39.6875 3.222656 L 7.9375 3.222656 Z M 7.9375 2.976562 "/>
<path style=" stroke:none;fill-rule:nonzero;fill:rgb(100%,43.921569%,26.274511%);fill-opacity:1;" d="M 37.207031 2.109375 L 38.570312 2.109375 C 38.640625 2.109375 38.695312 2.164062 38.695312 2.230469 L 38.695312 2.605469 C 38.695312 2.671875 38.640625 2.726562 38.570312 2.726562 L 37.207031 2.726562 C 37.136719 2.726562 37.082031 2.671875 37.082031 2.605469 L 37.082031 2.230469 C 37.082031 2.164062 37.136719 2.109375 37.207031 2.109375 Z M 37.207031 2.109375 "/>
<path style=" stroke:none;fill-rule:nonzero;fill:rgb(100%,67.058825%,56.862748%);fill-opacity:1;" d="M 37.207031 2.109375 L 37.828125 2.109375 C 37.894531 2.109375 37.949219 2.164062 37.949219 2.230469 L 37.949219 2.480469 C 37.949219 2.550781 37.894531 2.605469 37.828125 2.605469 L 37.207031 2.605469 C 37.136719 2.605469 37.082031 2.550781 37.082031 2.480469 L 37.082031 2.230469 C 37.082031 2.164062 37.136719 2.109375 37.207031 2.109375 Z M 37.207031 2.109375 "/>
<path style=" stroke:none;fill-rule:nonzero;fill:rgb(100%,43.921569%,26.274511%);fill-opacity:1;" d="M 9.179688 2.109375 L 10.542969 2.109375 C 10.609375 2.109375 10.664062 2.164062 10.664062 2.230469 L 10.664062 2.605469 C 10.664062 2.671875 10.609375 2.726562 10.542969 2.726562 L 9.179688 2.726562 C 9.109375 2.726562 9.054688 2.671875 9.054688 2.605469 L 9.054688 2.230469 C 9.054688 2.164062 9.109375 2.109375 9.179688 2.109375 Z M 9.179688 2.109375 "/>
<path style=" stroke:none;fill-rule:nonzero;fill:rgb(100%,67.058825%,56.862748%);fill-opacity:1;" d="M 9.179688 2.109375 L 9.796875 2.109375 C 9.867188 2.109375 9.921875 2.164062 9.921875 2.230469 L 9.921875 2.480469 C 9.921875 2.550781 9.867188 2.605469 9.796875 2.605469 L 9.179688 2.605469 C 9.109375 2.605469 9.054688 2.550781 9.054688 2.480469 L 9.054688 2.230469 C 9.054688 2.164062 9.109375 2.109375 9.179688 2.109375 Z M 9.179688 2.109375 "/>
<use xlink:href="#surface32" mask="url(#mask9)"/>
<use xlink:href="#surface35" mask="url(#mask10)"/>
<path style=" stroke:none;fill-rule:nonzero;fill:rgb(61.960787%,61.960787%,61.960787%);fill-opacity:1;" d="M 38.941406 36.460938 C 38.832031 36.890625 38.445312 37.207031 37.980469 37.207031 L 37.207031 37.207031 L 37.207031 42.664062 L 37.980469 42.664062 C 38.53125 42.664062 38.972656 42.222656 38.972656 41.671875 L 38.972656 36.710938 C 38.972656 36.625 38.964844 36.542969 38.941406 36.460938 Z M 38.941406 36.460938 "/>
<path style=" stroke:none;fill-rule:nonzero;fill:rgb(87.843138%,87.843138%,87.843138%);fill-opacity:1;" d="M 8.679688 36.460938 C 8.792969 36.890625 9.179688 37.207031 9.644531 37.207031 L 10.417969 37.207031 L 10.417969 42.664062 L 9.644531 42.664062 C 9.09375 42.664062 8.652344 42.222656 8.652344 41.671875 L 8.652344 36.710938 C 8.652344 36.625 8.660156 36.542969 8.679688 36.464844 Z M 8.679688 36.460938 "/>
<use xlink:href="#surface38" mask="url(#mask11)"/>
<use xlink:href="#surface41" mask="url(#mask12)"/>
<path style=" stroke:none;fill-rule:nonzero;fill:rgb(94.117647%,38.431373%,57.254905%);fill-opacity:1;" d="M 14.882812 11.90625 C 14.332031 11.90625 13.890625 12.347656 13.890625 12.898438 L 33.734375 12.898438 C 33.734375 12.347656 33.292969 11.90625 32.742188 11.90625 Z M 14.882812 11.90625 "/>
<use xlink:href="#surface44" mask="url(#mask13)"/>
<use xlink:href="#surface47" mask="url(#mask14)"/>
<use xlink:href="#surface50" mask="url(#mask15)"/>
<use xlink:href="#surface53" mask="url(#mask16)"/>
<use xlink:href="#surface56" mask="url(#mask17)"/>
<use xlink:href="#surface59" mask="url(#mask18)"/>
<use xlink:href="#surface62" mask="url(#mask19)"/>
<use xlink:href="#surface65" mask="url(#mask20)"/>
<use xlink:href="#surface68" mask="url(#mask21)"/>
<use xlink:href="#surface71" mask="url(#mask22)"/>
<use xlink:href="#surface74" mask="url(#mask23)"/>
<use xlink:href="#surface77" mask="url(#mask24)"/>
<use xlink:href="#surface80" mask="url(#mask25)"/>
<use xlink:href="#surface83" mask="url(#mask26)"/>
<use xlink:href="#surface86" mask="url(#mask27)"/>
<use xlink:href="#surface89" mask="url(#mask28)"/>
<use xlink:href="#surface92" mask="url(#mask29)"/>
<use xlink:href="#surface95" mask="url(#mask30)"/>
<use xlink:href="#surface98" mask="url(#mask31)"/>
<use xlink:href="#surface101" mask="url(#mask32)"/>
<use xlink:href="#surface104" mask="url(#mask33)"/>
<use xlink:href="#surface107" mask="url(#mask34)"/>
<use xlink:href="#surface110" mask="url(#mask35)"/>
<use xlink:href="#surface113" mask="url(#mask36)"/>
<use xlink:href="#surface116" mask="url(#mask37)"/>
<use xlink:href="#surface119" mask="url(#mask38)"/>
<path style=" stroke:none;fill-rule:nonzero;fill:rgb(74.117649%,74.117649%,74.117649%);fill-opacity:1;" d="M 37.207031 16.371094 L 37.703125 16.371094 C 38.25 16.371094 38.695312 16.816406 38.695312 17.363281 L 38.695312 21.332031 C 38.695312 21.878906 38.25 22.324219 37.703125 22.324219 L 37.207031 22.324219 C 36.660156 22.324219 36.214844 21.878906 36.214844 21.332031 L 36.214844 17.363281 C 36.214844 16.816406 36.660156 16.371094 37.207031 16.371094 Z M 37.207031 16.371094 "/>
<path style=" stroke:none;fill-rule:nonzero;fill:rgb(87.843138%,87.843138%,87.843138%);fill-opacity:1;" d="M 36.960938 17.363281 C 37.097656 17.363281 37.207031 17.472656 37.207031 17.609375 L 37.207031 19.597656 C 37.207031 19.734375 37.097656 19.84375 36.960938 19.84375 C 36.820312 19.84375 36.710938 19.734375 36.710938 19.597656 L 36.710938 17.609375 C 36.710938 17.472656 36.820312 17.363281 36.960938 17.363281 Z M 36.960938 17.363281 "/>
<path style="fill:none;stroke-width:6.00001;stroke-linecap:round;stroke-linejoin:round;stroke:rgb(87.843138%,87.843138%,87.843138%);stroke-opacity:1;stroke-miterlimit:4;" d="M 354.541667 -24.5 L 381 -29.791667 L 381 23.125 L 357.208333 41.666667 " transform="matrix(0.09375,0,0,0.09375,0,20.15625)"/>
<path style="fill:none;stroke-width:6.00001;stroke-linecap:round;stroke-linejoin:round;stroke:rgb(87.843138%,87.843138%,87.843138%);stroke-opacity:1;stroke-miterlimit:4;" d="M 402.166667 7.25 L 381 7.25 " transform="matrix(0.09375,0,0,0.09375,0,20.15625)"/>
<path style="fill:none;stroke-width:6.00001;stroke-linecap:round;stroke-linejoin:round;stroke:rgb(87.843138%,87.843138%,87.843138%);stroke-opacity:1;stroke-miterlimit:4;" d="M 396.875 -35.083333 L 381 -35.083333 L 381 23.125 L 402.166667 17.833333 " transform="matrix(0.09375,0,0,0.09375,0,20.15625)"/>
<path style=" stroke:none;fill-rule:nonzero;fill:rgb(74.117649%,74.117649%,74.117649%);fill-opacity:1;" d="M 10.417969 16.371094 L 9.921875 16.371094 C 9.375 16.371094 8.929688 16.816406 8.929688 17.363281 L 8.929688 21.332031 C 8.929688 21.878906 9.375 22.324219 9.921875 22.324219 L 10.417969 22.324219 C 10.964844 22.324219 11.410156 21.878906 11.410156 21.332031 L 11.410156 17.363281 C 11.410156 16.816406 10.964844 16.371094 10.417969 16.371094 Z M 10.417969 16.371094 "/>
<path style=" stroke:none;fill-rule:nonzero;fill:rgb(87.843138%,87.843138%,87.843138%);fill-opacity:1;" d="M 10.664062 17.363281 C 10.527344 17.363281 10.417969 17.472656 10.417969 17.609375 L 10.417969 19.597656 C 10.417969 19.734375 10.527344 19.84375 10.664062 19.84375 C 10.804688 19.84375 10.914062 19.734375 10.914062 19.597656 L 10.914062 17.609375 C 10.914062 17.472656 10.804688 17.363281 10.664062 17.363281 Z M 10.664062 17.363281 "/>
<path style="fill:none;stroke-width:6.00001;stroke-linecap:round;stroke-linejoin:round;stroke:rgb(87.843138%,87.843138%,87.843138%);stroke-opacity:1;stroke-miterlimit:4;" d="M 354.541667 -24.5 L 381 -29.791667 L 381 23.125 L 357.208333 41.666667 " transform="matrix(-0.09375,0,0,0.09375,47.625,20.15625)"/>
<path style="fill:none;stroke-width:6.00001;stroke-linecap:round;stroke-linejoin:round;stroke:rgb(87.843138%,87.843138%,87.843138%);stroke-opacity:1;stroke-miterlimit:4;" d="M 402.166667 7.25 L 381 7.25 " transform="matrix(-0.09375,0,0,0.09375,47.625,20.15625)"/>
<path style="fill:none;stroke-width:6.00001;stroke-linecap:round;stroke-linejoin:round;stroke:rgb(87.843138%,87.843138%,87.843138%);stroke-opacity:1;stroke-miterlimit:4;" d="M 396.875 -35.083333 L 381 -35.083333 L 381 23.125 L 402.166667 17.833333 " transform="matrix(-0.09375,0,0,0.09375,47.625,20.15625)"/>
<path style=" stroke:none;fill-rule:nonzero;fill:rgb(87.843138%,87.843138%,87.843138%);fill-opacity:1;" d="M 8.679688 36.460938 C 8.660156 36.542969 8.652344 36.625 8.652344 36.710938 L 8.652344 37.207031 C 8.652344 37.121094 8.660156 37.039062 8.679688 36.957031 C 8.792969 37.386719 9.179688 37.703125 9.644531 37.703125 L 37.980469 37.703125 C 38.445312 37.703125 38.832031 37.386719 38.941406 36.957031 C 38.964844 37.039062 38.972656 37.121094 38.972656 37.207031 L 38.972656 36.710938 C 38.972656 36.625 38.964844 36.542969 38.941406 36.460938 C 38.832031 36.890625 38.445312 37.207031 37.980469 37.207031 L 9.644531 37.207031 C 9.179688 37.207031 8.792969 36.890625 8.679688 36.460938 Z M 8.679688 36.460938 "/>
<use xlink:href="#surface122" mask="url(#mask39)"/>
<use xlink:href="#surface125" mask="url(#mask40)"/>
</g>
</svg>
