<?xml version="1.0" encoding="UTF-8"?>
<svg xmlns="http://www.w3.org/2000/svg" xmlns:xlink="http://www.w3.org/1999/xlink" width="48px" height="48px" viewBox="0 0 48 48" version="1.1">
<g id="surface1">
<path style=" stroke:none;fill-rule:nonzero;fill:rgb(81.176472%,84.705883%,86.274511%);fill-opacity:1;" d="M 19.84375 6.328125 L 19.84375 21.902344 C 14.921875 26.914062 6.980469 34.878906 5.492188 39.359375 C 3.199219 46.230469 23.8125 46.015625 23.8125 46.015625 C 23.8125 46.015625 44.421875 46.226562 42.132812 39.359375 C 40.644531 34.878906 32.703125 26.914062 27.78125 21.902344 L 27.78125 6.328125 Z M 19.84375 6.328125 "/>
<path style=" stroke:none;fill-rule:nonzero;fill:rgb(81.176472%,84.705883%,86.274511%);fill-opacity:1;" d="M 19.84375 2.359375 L 27.78125 2.359375 C 29.425781 2.359375 30.757812 3.691406 30.757812 5.335938 C 30.757812 6.980469 29.425781 8.3125 27.78125 8.3125 L 19.84375 8.3125 C 18.199219 8.3125 16.867188 6.980469 16.867188 5.335938 C 16.867188 3.691406 18.199219 2.359375 19.84375 2.359375 Z M 19.84375 2.359375 "/>
<path style=" stroke:none;fill-rule:nonzero;fill:rgb(67.058825%,27.843139%,73.725492%);fill-opacity:1;" d="M 12.898438 31.128906 C 10.777344 33.730469 8.414062 36.246094 7.804688 38.082031 C 5.804688 44.078125 23.785156 43.894531 23.785156 43.894531 C 23.785156 43.894531 41.765625 44.078125 39.769531 38.082031 C 39.15625 36.25 36.84375 33.730469 34.726562 31.128906 C 29.480469 33.558594 15.675781 28.773438 12.898438 31.128906 Z M 12.898438 31.128906 "/>
<path style=" stroke:none;fill-rule:nonzero;fill:rgb(72.941178%,40.784314%,78.431374%);fill-opacity:1;" d="M 21.332031 34.109375 C 21.878906 34.109375 22.324219 34.554688 22.324219 35.101562 C 22.324219 35.648438 21.878906 36.09375 21.332031 36.09375 C 20.785156 36.09375 20.339844 35.648438 20.339844 35.101562 C 20.339844 34.554688 20.785156 34.109375 21.332031 34.109375 Z M 21.332031 34.109375 "/>
<path style=" stroke:none;fill-rule:nonzero;fill:rgb(72.941178%,40.784314%,78.431374%);fill-opacity:1;" d="M 26.542969 34.109375 C 26.953125 34.109375 27.285156 34.441406 27.285156 34.851562 C 27.285156 35.265625 26.953125 35.597656 26.542969 35.597656 C 26.128906 35.597656 25.796875 35.265625 25.796875 34.851562 C 25.796875 34.441406 26.128906 34.109375 26.542969 34.109375 Z M 26.542969 34.109375 "/>
<path style=" stroke:none;fill-rule:nonzero;fill:rgb(72.941178%,40.784314%,78.431374%);fill-opacity:1;" d="M 25.300781 38.078125 C 26.121094 38.078125 26.789062 38.746094 26.789062 39.566406 C 26.789062 40.386719 26.121094 41.054688 25.300781 41.054688 C 24.480469 41.054688 23.8125 40.386719 23.8125 39.566406 C 23.8125 38.746094 24.480469 38.078125 25.300781 38.078125 Z M 25.300781 38.078125 "/>
<path style=" stroke:none;fill-rule:nonzero;fill:rgb(72.941178%,40.784314%,78.431374%);fill-opacity:1;" d="M 16.371094 37.085938 C 17.191406 37.085938 17.859375 37.753906 17.859375 38.574219 C 17.859375 39.394531 17.191406 40.0625 16.371094 40.0625 C 15.550781 40.0625 14.882812 39.394531 14.882812 38.574219 C 14.882812 37.753906 15.550781 37.085938 16.371094 37.085938 Z M 16.371094 37.085938 "/>
<path style=" stroke:none;fill-rule:nonzero;fill:rgb(72.941178%,40.784314%,78.431374%);fill-opacity:1;" d="M 34.230469 37.085938 C 35.050781 37.085938 35.71875 37.753906 35.71875 38.574219 C 35.71875 39.394531 35.050781 40.0625 34.230469 40.0625 C 33.410156 40.0625 32.742188 39.394531 32.742188 38.574219 C 32.742188 37.753906 33.410156 37.085938 34.230469 37.085938 Z M 34.230469 37.085938 "/>
<path style=" stroke:none;fill-rule:nonzero;fill:rgb(72.941178%,40.784314%,78.431374%);fill-opacity:1;" d="M 16.125 32.621094 C 16.535156 32.621094 16.867188 32.953125 16.867188 33.363281 C 16.867188 33.777344 16.535156 34.109375 16.125 34.109375 C 15.710938 34.109375 15.378906 33.777344 15.378906 33.363281 C 15.378906 32.953125 15.710938 32.621094 16.125 32.621094 Z M 16.125 32.621094 "/>
<path style=" stroke:none;fill-rule:nonzero;fill:rgb(92.54902%,93.725491%,94.509804%);fill-opacity:1;" d="M 20.074219 3.351562 L 22.589844 3.351562 C 23.539062 3.351562 24.308594 3.941406 24.308594 4.667969 L 24.308594 5.011719 C 24.308594 5.738281 23.539062 6.328125 22.589844 6.328125 L 20.074219 6.328125 C 19.125 6.328125 18.355469 5.738281 18.355469 5.011719 L 18.355469 4.667969 C 18.355469 3.941406 19.125 3.351562 20.074219 3.351562 Z M 20.074219 3.351562 "/>
<path style=" stroke:none;fill-rule:nonzero;fill:rgb(98.039216%,98.039216%,98.039216%);fill-opacity:1;" d="M 19.84375 3.847656 C 20.390625 3.847656 20.835938 4.070312 20.835938 4.34375 C 20.835938 4.617188 20.390625 4.839844 19.84375 4.839844 C 19.296875 4.839844 18.851562 4.617188 18.851562 4.34375 C 18.851562 4.070312 19.296875 3.847656 19.84375 3.847656 Z M 19.84375 3.847656 "/>
<path style=" stroke:none;fill-rule:nonzero;fill:rgb(92.54902%,93.725491%,94.509804%);fill-opacity:1;" d="M 20.132812 24.476562 C 20.523438 24.867188 20.523438 25.492188 20.132812 25.882812 L 17.679688 28.335938 C 17.292969 28.722656 16.664062 28.722656 16.277344 28.335938 C 15.886719 27.949219 15.886719 27.320312 16.277344 26.933594 L 18.730469 24.476562 C 19.117188 24.089844 19.746094 24.089844 20.132812 24.476562 Z M 20.132812 24.476562 "/>
<path style=" stroke:none;fill-rule:nonzero;fill:rgb(80.784315%,57.647061%,84.705883%);fill-opacity:1;" d="M 15.945312 30.460938 C 14.5625 30.457031 13.484375 30.636719 12.898438 31.132812 C 21.828125 32.128906 32.742188 34.113281 34.726562 31.132812 C 30.585938 33.050781 21.121094 30.476562 15.945312 30.460938 Z M 15.945312 30.460938 "/>
<path style=" stroke:none;fill-rule:nonzero;fill:rgb(72.941178%,40.784314%,78.431374%);fill-opacity:1;" d="M 30.015625 36.09375 C 30.425781 36.09375 30.757812 36.425781 30.757812 36.835938 C 30.757812 37.25 30.425781 37.582031 30.015625 37.582031 C 29.601562 37.582031 29.269531 37.25 29.269531 36.835938 C 29.269531 36.425781 29.601562 36.09375 30.015625 36.09375 Z M 30.015625 36.09375 "/>
<path style=" stroke:none;fill-rule:nonzero;fill:rgb(72.941178%,40.784314%,78.431374%);fill-opacity:1;" d="M 32.492188 33.613281 L 32.496094 33.613281 C 32.90625 33.613281 33.238281 33.945312 33.238281 34.359375 C 33.238281 34.769531 32.90625 35.101562 32.496094 35.101562 L 32.492188 35.101562 C 32.082031 35.101562 31.75 34.769531 31.75 34.359375 C 31.75 33.945312 32.082031 33.613281 32.492188 33.613281 Z M 32.492188 33.613281 "/>
<path style=" stroke:none;fill-rule:nonzero;fill:rgb(54.509807%,76.47059%,29.019609%);fill-opacity:1;" d="M 19.347656 21.707031 C 19.347656 21.707031 15.105469 16.953125 11.078125 20.253906 C 9.71875 21.367188 7.066406 22.898438 7.066406 22.898438 C 7.066406 22.898438 10.933594 26.894531 14.097656 26.242188 C 17.261719 25.597656 19.347656 21.707031 19.347656 21.707031 Z M 19.347656 21.707031 "/>
<path style=" stroke:none;fill-rule:nonzero;fill:rgb(54.509807%,76.47059%,29.019609%);fill-opacity:1;" d="M 27.960938 20.21875 C 27.960938 20.21875 29.257812 26.457031 34.394531 25.613281 C 36.128906 25.328125 39.191406 25.328125 39.191406 25.328125 C 39.191406 25.328125 37.839844 19.933594 34.773438 18.914062 C 31.714844 17.890625 27.960938 20.21875 27.960938 20.21875 Z M 27.960938 20.21875 "/>
<path style=" stroke:none;fill-rule:nonzero;fill:rgb(61.176473%,80.000001%,39.607844%);fill-opacity:1;" d="M 18.355469 21.90625 C 18.355469 21.90625 21.851562 16.578125 17.621094 13.542969 C 16.191406 12.519531 14.027344 10.355469 14.027344 10.355469 C 14.027344 10.355469 11.167969 15.125 12.613281 18.011719 C 14.054688 20.898438 18.355469 21.90625 18.355469 21.90625 Z M 18.355469 21.90625 "/>
<path style=" stroke:none;fill-rule:nonzero;fill:rgb(61.176473%,80.000001%,39.607844%);fill-opacity:1;" d="M 28.277344 21.539062 C 28.277344 21.539062 34.636719 21.898438 35.152344 16.71875 C 35.324219 14.96875 36.117188 12.011719 36.117188 12.011719 C 36.117188 12.011719 30.558594 11.921875 28.78125 14.617188 C 27 17.3125 28.277344 21.539062 28.277344 21.539062 Z M 28.277344 21.539062 "/>
<path style=" stroke:none;fill-rule:nonzero;fill:rgb(92.54902%,93.725491%,94.509804%);fill-opacity:1;" d="M 21.828125 9.304688 C 22.375 9.304688 22.820312 9.75 22.820312 10.296875 L 22.820312 21.210938 C 22.820312 21.757812 22.375 22.203125 21.828125 22.203125 C 21.28125 22.203125 20.835938 21.757812 20.835938 21.210938 L 20.835938 10.296875 C 20.835938 9.75 21.28125 9.304688 21.828125 9.304688 Z M 21.828125 9.304688 "/>
<path style=" stroke:none;fill-rule:nonzero;fill:rgb(72.941178%,40.784314%,78.431374%);fill-opacity:1;" d="M 12.15625 35.597656 C 12.566406 35.597656 12.898438 35.929688 12.898438 36.339844 C 12.898438 36.753906 12.566406 37.085938 12.15625 37.085938 C 11.742188 37.085938 11.410156 36.753906 11.410156 36.339844 C 11.410156 35.929688 11.742188 35.597656 12.15625 35.597656 Z M 12.15625 35.597656 "/>
</g>
</svg>
