<?xml version="1.0" encoding="UTF-8"?>
<svg xmlns="http://www.w3.org/2000/svg" xmlns:xlink="http://www.w3.org/1999/xlink" width="48px" height="48px" viewBox="0 0 48 48" version="1.1">
<g id="surface1">
<path style=" stroke:none;fill-rule:nonzero;fill:rgb(25.882354%,64.705884%,96.078432%);fill-opacity:1;" d="M 3.96875 2.359375 L 43.65625 2.359375 C 44.753906 2.359375 45.640625 3.246094 45.640625 4.34375 L 45.640625 44.03125 C 45.640625 45.128906 44.753906 46.015625 43.65625 46.015625 L 3.96875 46.015625 C 2.871094 46.015625 1.984375 45.128906 1.984375 44.03125 L 1.984375 4.34375 C 1.984375 3.246094 2.871094 2.359375 3.96875 2.359375 Z M 3.96875 2.359375 "/>
<path style=" stroke:none;fill-rule:nonzero;fill:rgb(93.333334%,93.333334%,93.333334%);fill-opacity:1;" d="M 5.953125 5.335938 C 5.402344 5.335938 4.960938 5.777344 4.960938 6.328125 L 4.960938 21.210938 C 4.960938 21.761719 5.402344 22.203125 5.953125 22.203125 L 20.835938 22.203125 C 21.386719 22.203125 21.828125 21.761719 21.828125 21.210938 L 21.828125 6.328125 C 21.828125 5.777344 21.386719 5.335938 20.835938 5.335938 Z M 7.441406 7.320312 L 19.347656 7.320312 C 19.621094 7.320312 19.84375 7.542969 19.84375 7.816406 L 19.84375 19.722656 C 19.84375 19.996094 19.621094 20.21875 19.347656 20.21875 L 7.441406 20.21875 C 7.167969 20.21875 6.945312 19.996094 6.945312 19.722656 L 6.945312 7.816406 C 6.945312 7.542969 7.167969 7.320312 7.441406 7.320312 Z M 7.441406 7.320312 "/>
<path style=" stroke:none;fill-rule:nonzero;fill:rgb(93.333334%,93.333334%,93.333334%);fill-opacity:1;" d="M 26.789062 5.335938 C 26.238281 5.335938 25.796875 5.777344 25.796875 6.328125 L 25.796875 21.210938 C 25.796875 21.761719 26.238281 22.203125 26.789062 22.203125 L 41.671875 22.203125 C 42.222656 22.203125 42.664062 21.761719 42.664062 21.210938 L 42.664062 6.328125 C 42.664062 5.777344 42.222656 5.335938 41.671875 5.335938 Z M 28.277344 7.320312 L 40.183594 7.320312 C 40.457031 7.320312 40.679688 7.542969 40.679688 7.816406 L 40.679688 19.722656 C 40.679688 19.996094 40.457031 20.21875 40.183594 20.21875 L 28.277344 20.21875 C 28.003906 20.21875 27.78125 19.996094 27.78125 19.722656 L 27.78125 7.816406 C 27.78125 7.542969 28.003906 7.320312 28.277344 7.320312 Z M 28.277344 7.320312 "/>
<path style=" stroke:none;fill-rule:nonzero;fill:rgb(93.333334%,93.333334%,93.333334%);fill-opacity:1;" d="M 5.953125 26.171875 C 5.402344 26.171875 4.960938 26.613281 4.960938 27.164062 L 4.960938 42.046875 C 4.960938 42.597656 5.402344 43.039062 5.953125 43.039062 L 20.835938 43.039062 C 21.386719 43.039062 21.828125 42.597656 21.828125 42.046875 L 21.828125 27.164062 C 21.828125 26.613281 21.386719 26.171875 20.835938 26.171875 Z M 7.441406 28.15625 L 19.347656 28.15625 C 19.621094 28.15625 19.84375 28.378906 19.84375 28.652344 L 19.84375 40.558594 C 19.84375 40.832031 19.621094 41.054688 19.347656 41.054688 L 7.441406 41.054688 C 7.167969 41.054688 6.945312 40.832031 6.945312 40.558594 L 6.945312 28.652344 C 6.945312 28.378906 7.167969 28.15625 7.441406 28.15625 Z M 7.441406 28.15625 "/>
<path style=" stroke:none;fill-rule:nonzero;fill:rgb(93.333334%,93.333334%,93.333334%);fill-opacity:1;" d="M 26.789062 26.171875 C 26.238281 26.171875 25.796875 26.613281 25.796875 27.164062 L 25.796875 42.046875 C 25.796875 42.597656 26.238281 43.039062 26.789062 43.039062 L 41.671875 43.039062 C 42.222656 43.039062 42.664062 42.597656 42.664062 42.046875 L 42.664062 27.164062 C 42.664062 26.613281 42.222656 26.171875 41.671875 26.171875 Z M 28.277344 28.15625 L 40.183594 28.15625 C 40.457031 28.15625 40.679688 28.378906 40.679688 28.652344 L 40.679688 40.558594 C 40.679688 40.832031 40.457031 41.054688 40.183594 41.054688 L 28.277344 41.054688 C 28.003906 41.054688 27.78125 40.832031 27.78125 40.558594 L 27.78125 28.652344 C 27.78125 28.378906 28.003906 28.15625 28.277344 28.15625 Z M 28.277344 28.15625 "/>
</g>
</svg>
