<?xml version="1.0" encoding="UTF-8"?>
<svg xmlns="http://www.w3.org/2000/svg" xmlns:xlink="http://www.w3.org/1999/xlink" width="48px" height="48px" viewBox="0 0 48 48" version="1.1">
<g id="surface1">
<path style=" stroke:none;fill-rule:nonzero;fill:rgb(47.058824%,56.470591%,61.176473%);fill-opacity:1;" d="M 26.789062 8.3125 C 37.199219 8.3125 45.640625 16.753906 45.640625 27.164062 C 45.640625 37.574219 37.199219 46.015625 26.789062 46.015625 C 16.378906 46.015625 7.9375 37.574219 7.9375 27.164062 C 7.9375 16.753906 16.378906 8.3125 26.789062 8.3125 Z M 26.789062 8.3125 "/>
<path style=" stroke:none;fill-rule:nonzero;fill:rgb(100%,65.490198%,14.901961%);fill-opacity:1;" d="M 29.765625 16.25 C 30.316406 16.25 30.757812 15.808594 30.757812 15.257812 L 30.757812 9.304688 L 34.726562 9.304688 L 26.789062 2.359375 L 18.851562 9.304688 L 22.820312 9.304688 L 22.820312 15.257812 C 22.820312 15.808594 23.261719 16.25 23.8125 16.25 Z M 29.765625 16.25 "/>
<path style=" stroke:none;fill-rule:nonzero;fill:rgb(93.333334%,93.333334%,93.333334%);fill-opacity:1;" d="M 20.339844 19.226562 L 24.308594 19.226562 C 24.582031 19.226562 24.804688 19.449219 24.804688 19.722656 L 24.804688 34.605469 C 24.804688 34.878906 24.582031 35.101562 24.308594 35.101562 L 20.339844 35.101562 C 20.066406 35.101562 19.84375 34.878906 19.84375 34.605469 L 19.84375 19.722656 C 19.84375 19.449219 20.066406 19.226562 20.339844 19.226562 Z M 20.339844 19.226562 "/>
<path style=" stroke:none;fill-rule:nonzero;fill:rgb(93.333334%,93.333334%,93.333334%);fill-opacity:1;" d="M 22.324219 25.179688 L 31.253906 25.179688 C 31.527344 25.179688 31.75 25.402344 31.75 25.675781 L 31.75 28.652344 C 31.75 28.925781 31.527344 29.148438 31.253906 29.148438 L 22.324219 29.148438 C 22.050781 29.148438 21.828125 28.925781 21.828125 28.652344 L 21.828125 25.675781 C 21.828125 25.402344 22.050781 25.179688 22.324219 25.179688 Z M 22.324219 25.179688 "/>
<path style=" stroke:none;fill-rule:nonzero;fill:rgb(93.333334%,93.333334%,93.333334%);fill-opacity:1;" d="M 29.269531 19.226562 L 33.238281 19.226562 C 33.511719 19.226562 33.734375 19.449219 33.734375 19.722656 L 33.734375 34.605469 C 33.734375 34.878906 33.511719 35.101562 33.238281 35.101562 L 29.269531 35.101562 C 28.996094 35.101562 28.773438 34.878906 28.773438 34.605469 L 28.773438 19.722656 C 28.773438 19.449219 28.996094 19.226562 29.269531 19.226562 Z M 29.269531 19.226562 "/>
<path style=" stroke:none;fill-rule:nonzero;fill:rgb(100%,65.490198%,14.901961%);fill-opacity:1;" d="M 15.875 24.1875 C 15.875 23.636719 15.433594 23.195312 14.882812 23.195312 L 8.929688 23.195312 L 8.929688 19.226562 L 1.984375 27.164062 L 8.929688 35.101562 L 8.929688 31.132812 L 14.882812 31.132812 C 15.433594 31.132812 15.875 30.691406 15.875 30.140625 Z M 15.875 24.1875 "/>
</g>
</svg>
