<?xml version="1.0" encoding="UTF-8"?>
<svg xmlns="http://www.w3.org/2000/svg" xmlns:xlink="http://www.w3.org/1999/xlink" width="48px" height="48px" viewBox="0 0 48 48" version="1.1">
<g id="surface1">
<path style="fill:none;stroke-width:10.59;stroke-linecap:butt;stroke-linejoin:miter;stroke:rgb(25.882354%,25.882354%,25.882354%);stroke-opacity:1;stroke-miterlimit:4;" d="M 391.583333 -41.666667 C 349.25 -41.666667 222.25 64.166667 201.083333 -84 " transform="matrix(0.09375,0,0,0.09375,0,20.15625)"/>
<path style="fill:none;stroke-width:10.59;stroke-linecap:butt;stroke-linejoin:miter;stroke:rgb(25.882354%,25.882354%,25.882354%);stroke-opacity:1;stroke-miterlimit:4;" d="M 63.5 53.583333 C 21.166667 53.583333 10.583333 -274.5 127 -147.5 " transform="matrix(0.09375,0,0,0.09375,0,20.15625)"/>
<path style=" stroke:none;fill-rule:nonzero;fill:rgb(25.882354%,25.882354%,25.882354%);fill-opacity:1;" d="M 42.664062 24.683594 C 43.484375 24.683594 44.152344 25.351562 44.152344 26.171875 C 44.152344 26.992188 43.484375 27.660156 42.664062 27.660156 C 41.84375 27.660156 41.175781 26.992188 41.175781 26.171875 C 41.175781 25.351562 41.84375 24.683594 42.664062 24.683594 Z M 42.664062 24.683594 "/>
<path style=" stroke:none;fill-rule:nonzero;fill:rgb(25.882354%,25.882354%,25.882354%);fill-opacity:1;" d="M 32.742188 24.683594 C 33.5625 24.683594 34.230469 25.351562 34.230469 26.171875 C 34.230469 26.992188 33.5625 27.660156 32.742188 27.660156 C 31.921875 27.660156 31.253906 26.992188 31.253906 26.171875 C 31.253906 25.351562 31.921875 24.683594 32.742188 24.683594 Z M 32.742188 24.683594 "/>
<path style=" stroke:none;fill-rule:nonzero;fill:rgb(25.882354%,25.882354%,25.882354%);fill-opacity:1;" d="M 36.710938 17.242188 L 38.695312 17.242188 L 38.695312 24.1875 L 36.710938 24.1875 Z M 36.710938 17.242188 "/>
<path style=" stroke:none;fill-rule:nonzero;fill:rgb(98.431373%,54.901963%,0%);fill-opacity:1;" d="M 37.703125 21.210938 C 38.800781 21.210938 39.6875 22.097656 39.6875 23.195312 C 39.6875 24.292969 38.800781 25.179688 37.703125 25.179688 C 36.605469 25.179688 35.71875 24.292969 35.71875 23.195312 C 35.71875 22.097656 36.605469 21.210938 37.703125 21.210938 Z M 37.703125 21.210938 "/>
<path style=" stroke:none;fill-rule:nonzero;fill:rgb(98.431373%,54.901963%,0%);fill-opacity:1;" d="M 17.894531 4.480469 L 15.839844 12.144531 L 36.480469 15.621094 L 37.507812 11.789062 Z M 17.894531 4.480469 "/>
<path style=" stroke:none;fill-rule:nonzero;fill:rgb(98.431373%,54.901963%,0%);fill-opacity:1;" d="M 5.164062 27.609375 L 16.664062 30.6875 L 19.507812 4.746094 L 15.675781 3.71875 Z M 5.164062 27.609375 "/>
<path style=" stroke:none;fill-rule:nonzero;fill:rgb(98.431373%,54.901963%,0%);fill-opacity:1;" d="M 6.945312 32.125 L 14.882812 32.125 C 15.429688 32.125 15.875 32.570312 15.875 33.117188 L 15.875 41.054688 C 15.875 41.601562 15.429688 42.046875 14.882812 42.046875 L 6.945312 42.046875 C 6.398438 42.046875 5.953125 41.601562 5.953125 41.054688 L 5.953125 33.117188 C 5.953125 32.570312 6.398438 32.125 6.945312 32.125 Z M 6.945312 32.125 "/>
<path style=" stroke:none;fill-rule:nonzero;fill:rgb(25.882354%,25.882354%,25.882354%);fill-opacity:1;" d="M 2.976562 40.0625 L 32.742188 40.0625 C 33.289062 40.0625 33.734375 40.507812 33.734375 41.054688 L 33.734375 45.023438 C 33.734375 45.570312 33.289062 46.015625 32.742188 46.015625 L 2.976562 46.015625 C 2.429688 46.015625 1.984375 45.570312 1.984375 45.023438 L 1.984375 41.054688 C 1.984375 40.507812 2.429688 40.0625 2.976562 40.0625 Z M 2.976562 40.0625 "/>
<path style=" stroke:none;fill-rule:nonzero;fill:rgb(100%,65.490198%,14.901961%);fill-opacity:1;" d="M 10.914062 22.203125 C 14.75 22.203125 17.859375 25.3125 17.859375 29.148438 C 17.859375 32.984375 14.75 36.09375 10.914062 36.09375 C 7.078125 36.09375 3.96875 32.984375 3.96875 29.148438 C 3.96875 25.3125 7.078125 22.203125 10.914062 22.203125 Z M 10.914062 22.203125 "/>
<path style=" stroke:none;fill-rule:nonzero;fill:rgb(25.882354%,25.882354%,25.882354%);fill-opacity:1;" d="M 10.914062 24.1875 C 13.652344 24.1875 15.875 26.410156 15.875 29.148438 C 15.875 31.886719 13.652344 34.109375 10.914062 34.109375 C 8.175781 34.109375 5.953125 31.886719 5.953125 29.148438 C 5.953125 26.410156 8.175781 24.1875 10.914062 24.1875 Z M 10.914062 24.1875 "/>
<path style=" stroke:none;fill-rule:nonzero;fill:rgb(100%,65.490198%,14.901961%);fill-opacity:1;" d="M 16.867188 2.359375 C 20.15625 2.359375 22.820312 5.023438 22.820312 8.3125 C 22.820312 11.601562 20.15625 14.265625 16.867188 14.265625 C 13.578125 14.265625 10.914062 11.601562 10.914062 8.3125 C 10.914062 5.023438 13.578125 2.359375 16.867188 2.359375 Z M 16.867188 2.359375 "/>
<path style=" stroke:none;fill-rule:nonzero;fill:rgb(25.882354%,25.882354%,25.882354%);fill-opacity:1;" d="M 16.867188 4.34375 C 19.058594 4.34375 20.835938 6.121094 20.835938 8.3125 C 20.835938 10.503906 19.058594 12.28125 16.867188 12.28125 C 14.675781 12.28125 12.898438 10.503906 12.898438 8.3125 C 12.898438 6.121094 14.675781 4.34375 16.867188 4.34375 Z M 16.867188 4.34375 "/>
<path style=" stroke:none;fill-rule:nonzero;fill:rgb(100%,65.490198%,14.901961%);fill-opacity:1;" d="M 37.703125 10.296875 C 39.894531 10.296875 41.671875 12.074219 41.671875 14.265625 C 41.671875 16.457031 39.894531 18.234375 37.703125 18.234375 C 35.511719 18.234375 33.734375 16.457031 33.734375 14.265625 C 33.734375 12.074219 35.511719 10.296875 37.703125 10.296875 Z M 37.703125 10.296875 "/>
<path style=" stroke:none;fill-rule:nonzero;fill:rgb(25.882354%,25.882354%,25.882354%);fill-opacity:1;" d="M 37.703125 12.28125 C 38.800781 12.28125 39.6875 13.167969 39.6875 14.265625 C 39.6875 15.363281 38.800781 16.25 37.703125 16.25 C 36.605469 16.25 35.71875 15.363281 35.71875 14.265625 C 35.71875 13.167969 36.605469 12.28125 37.703125 12.28125 Z M 37.703125 12.28125 "/>
<path style=" stroke:none;fill-rule:nonzero;fill:rgb(100%,65.490198%,14.901961%);fill-opacity:1;" d="M 33.734375 23.195312 L 41.671875 23.195312 C 42.21875 23.195312 42.664062 23.640625 42.664062 24.1875 L 42.664062 25.179688 C 42.664062 25.726562 42.21875 26.171875 41.671875 26.171875 L 33.734375 26.171875 C 33.1875 26.171875 32.742188 25.726562 32.742188 25.179688 L 32.742188 24.1875 C 32.742188 23.640625 33.1875 23.195312 33.734375 23.195312 Z M 33.734375 23.195312 "/>
<path style=" stroke:none;fill-rule:nonzero;fill:rgb(100%,65.490198%,14.901961%);fill-opacity:1;" d="M 32.671875 26.171875 L 32.8125 26.171875 C 33.320312 26.171875 33.734375 26.617188 33.734375 27.164062 L 33.734375 30.140625 C 33.734375 30.6875 33.320312 31.132812 32.8125 31.132812 L 32.671875 31.132812 C 32.164062 31.132812 31.75 30.6875 31.75 30.140625 L 31.75 27.164062 C 31.75 26.617188 32.164062 26.171875 32.671875 26.171875 Z M 32.671875 26.171875 "/>
<path style=" stroke:none;fill-rule:nonzero;fill:rgb(100%,65.490198%,14.901961%);fill-opacity:1;" d="M 32.246094 29.28125 C 32.71875 29.007812 33.328125 29.171875 33.601562 29.644531 L 35.089844 32.222656 C 35.363281 32.695312 35.199219 33.304688 34.726562 33.578125 C 34.25 33.851562 33.644531 33.6875 33.371094 33.214844 L 31.882812 30.636719 C 31.609375 30.164062 31.769531 29.554688 32.246094 29.28125 Z M 32.246094 29.28125 "/>
<path style=" stroke:none;fill-rule:nonzero;fill:rgb(100%,65.490198%,14.901961%);fill-opacity:1;" d="M 42.726562 26.171875 L 42.582031 26.171875 C 42.074219 26.171875 41.660156 26.617188 41.660156 27.164062 L 41.660156 30.140625 C 41.660156 30.6875 42.074219 31.132812 42.582031 31.132812 L 42.726562 31.132812 C 43.234375 31.132812 43.644531 30.6875 43.644531 30.140625 L 43.644531 27.164062 C 43.644531 26.617188 43.234375 26.171875 42.726562 26.171875 Z M 42.726562 26.171875 "/>
<path style=" stroke:none;fill-rule:nonzero;fill:rgb(100%,65.490198%,14.901961%);fill-opacity:1;" d="M 43.152344 29.28125 C 42.675781 29.007812 42.070312 29.171875 41.796875 29.644531 L 40.308594 32.222656 C 40.035156 32.695312 40.195312 33.304688 40.671875 33.578125 C 41.144531 33.851562 41.753906 33.6875 42.027344 33.214844 L 43.515625 30.636719 C 43.789062 30.164062 43.625 29.554688 43.152344 29.28125 Z M 43.152344 29.28125 "/>
<path style=" stroke:none;fill-rule:nonzero;fill:rgb(25.882354%,25.882354%,25.882354%);fill-opacity:1;" d="M 32.742188 29.148438 C 33.289062 29.148438 33.734375 29.59375 33.734375 30.140625 C 33.734375 30.6875 33.289062 31.132812 32.742188 31.132812 C 32.195312 31.132812 31.75 30.6875 31.75 30.140625 C 31.75 29.59375 32.195312 29.148438 32.742188 29.148438 Z M 32.742188 29.148438 "/>
<path style=" stroke:none;fill-rule:nonzero;fill:rgb(25.882354%,25.882354%,25.882354%);fill-opacity:1;" d="M 42.664062 29.148438 C 43.210938 29.148438 43.65625 29.59375 43.65625 30.140625 C 43.65625 30.6875 43.210938 31.132812 42.664062 31.132812 C 42.117188 31.132812 41.671875 30.6875 41.671875 30.140625 C 41.671875 29.59375 42.117188 29.148438 42.664062 29.148438 Z M 42.664062 29.148438 "/>
<path style=" stroke:none;fill-rule:nonzero;fill:rgb(100%,65.490198%,14.901961%);fill-opacity:1;" d="M 36.710938 26.171875 L 38.695312 26.171875 C 39.242188 26.171875 39.6875 26.617188 39.6875 27.164062 L 39.6875 32.621094 C 39.6875 33.167969 39.242188 33.613281 38.695312 33.613281 L 36.710938 33.613281 C 36.164062 33.613281 35.71875 33.167969 35.71875 32.621094 L 35.71875 27.164062 C 35.71875 26.617188 36.164062 26.171875 36.710938 26.171875 Z M 36.710938 26.171875 "/>
<path style=" stroke:none;fill-rule:nonzero;fill:rgb(25.882354%,25.882354%,25.882354%);fill-opacity:1;" d="M 35.71875 29.148438 L 39.6875 29.148438 C 39.960938 29.148438 40.183594 29.371094 40.183594 29.644531 L 40.183594 30.636719 C 40.183594 30.910156 39.960938 31.132812 39.6875 31.132812 L 35.71875 31.132812 C 35.445312 31.132812 35.222656 30.910156 35.222656 30.636719 L 35.222656 29.644531 C 35.222656 29.371094 35.445312 29.148438 35.71875 29.148438 Z M 35.71875 29.148438 "/>
<path style=" stroke:none;fill-rule:nonzero;fill:rgb(25.882354%,25.882354%,25.882354%);fill-opacity:1;" d="M 36.710938 24.683594 L 38.695312 24.683594 C 38.96875 24.683594 39.191406 24.90625 39.191406 25.179688 L 39.191406 27.164062 C 39.191406 27.4375 38.96875 27.660156 38.695312 27.660156 L 36.710938 27.660156 C 36.4375 27.660156 36.214844 27.4375 36.214844 27.164062 L 36.214844 25.179688 C 36.214844 24.90625 36.4375 24.683594 36.710938 24.683594 Z M 36.710938 24.683594 "/>
<path style=" stroke:none;fill-rule:nonzero;fill:rgb(38.039216%,38.039216%,38.039216%);fill-opacity:1;" d="M 16.867188 6.328125 C 17.964844 6.328125 18.851562 7.214844 18.851562 8.3125 C 18.851562 9.410156 17.964844 10.296875 16.867188 10.296875 C 15.769531 10.296875 14.882812 9.410156 14.882812 8.3125 C 14.882812 7.214844 15.769531 6.328125 16.867188 6.328125 Z M 16.867188 6.328125 "/>
<path style=" stroke:none;fill-rule:nonzero;fill:rgb(38.039216%,38.039216%,38.039216%);fill-opacity:1;" d="M 10.914062 26.171875 C 12.558594 26.171875 13.890625 27.503906 13.890625 29.148438 C 13.890625 30.792969 12.558594 32.125 10.914062 32.125 C 9.269531 32.125 7.9375 30.792969 7.9375 29.148438 C 7.9375 27.503906 9.269531 26.171875 10.914062 26.171875 Z M 10.914062 26.171875 "/>
<path style=" stroke:none;fill-rule:nonzero;fill:rgb(38.039216%,38.039216%,38.039216%);fill-opacity:1;" d="M 37.703125 13.273438 C 38.25 13.273438 38.695312 13.71875 38.695312 14.265625 C 38.695312 14.8125 38.25 15.257812 37.703125 15.257812 C 37.15625 15.257812 36.710938 14.8125 36.710938 14.265625 C 36.710938 13.71875 37.15625 13.273438 37.703125 13.273438 Z M 37.703125 13.273438 "/>
</g>
</svg>
