<?xml version="1.0" encoding="UTF-8"?>
<svg xmlns="http://www.w3.org/2000/svg" xmlns:xlink="http://www.w3.org/1999/xlink" width="48px" height="48px" viewBox="0 0 48 48" version="1.1">
<g id="surface1">
<path style=" stroke:none;fill-rule:nonzero;fill:rgb(11.764706%,53.333336%,89.803922%);fill-opacity:1;" d="M 16.867188 22.203125 C 21.800781 22.203125 25.796875 26.199219 25.796875 31.132812 C 25.796875 36.066406 21.800781 40.0625 16.867188 40.0625 C 11.933594 40.0625 7.9375 36.066406 7.9375 31.132812 C 7.9375 26.199219 11.933594 22.203125 16.867188 22.203125 Z M 16.867188 22.203125 "/>
<path style=" stroke:none;fill-rule:nonzero;fill:rgb(11.764706%,53.333336%,89.803922%);fill-opacity:1;" d="M 30.757812 16.25 C 37.332031 16.25 42.664062 21.582031 42.664062 28.15625 C 42.664062 34.730469 37.332031 40.0625 30.757812 40.0625 C 24.183594 40.0625 18.851562 34.730469 18.851562 28.15625 C 18.851562 21.582031 24.183594 16.25 30.757812 16.25 Z M 30.757812 16.25 "/>
<path style=" stroke:none;fill-rule:nonzero;fill:rgb(25.882354%,64.705884%,96.078432%);fill-opacity:1;" d="M 23.8125 24.1875 C 29.839844 24.1875 34.726562 29.074219 34.726562 35.101562 C 34.726562 41.128906 29.839844 46.015625 23.8125 46.015625 C 17.785156 46.015625 12.898438 41.128906 12.898438 35.101562 C 12.898438 29.074219 17.785156 24.1875 23.8125 24.1875 Z M 23.8125 24.1875 "/>
<path style=" stroke:none;fill-rule:nonzero;fill:rgb(25.882354%,64.705884%,96.078432%);fill-opacity:1;" d="M 34.726562 26.171875 C 29.910156 26.171875 25.914062 29.570312 25 34.109375 L 17.796875 34.109375 C 16.425781 31.734375 13.863281 30.140625 10.914062 30.140625 C 6.515625 30.140625 2.976562 33.679688 2.976562 38.078125 C 2.976562 42.140625 5.996094 45.46875 9.921875 45.953125 L 9.921875 46.015625 L 35.71875 46.015625 L 35.71875 45.96875 C 40.746094 45.472656 44.648438 41.253906 44.648438 36.09375 C 44.648438 30.597656 40.222656 26.171875 34.726562 26.171875 Z M 34.726562 26.171875 "/>
<path style=" stroke:none;fill-rule:nonzero;fill:rgb(93.333334%,93.333334%,93.333334%);fill-opacity:1;" d="M 5.953125 4.34375 L 13.890625 4.34375 L 19.84375 24.1875 L 23.8125 14.265625 L 27.78125 24.1875 L 33.734375 4.34375 L 41.671875 4.34375 L 33.734375 36.09375 L 27.78125 36.09375 L 23.8125 28.15625 L 19.84375 36.09375 L 13.890625 36.09375 Z M 5.953125 4.34375 "/>
</g>
</svg>
