<?xml version="1.0" encoding="UTF-8"?>
<svg xmlns="http://www.w3.org/2000/svg" xmlns:xlink="http://www.w3.org/1999/xlink" width="48px" height="48px" viewBox="0 0 48 48" version="1.1">
<g id="surface1">
<path style=" stroke:none;fill-rule:nonzero;fill:rgb(61.960787%,61.960787%,61.960787%);fill-opacity:1;" d="M 3.96875 4.34375 L 43.65625 4.34375 C 44.753906 4.34375 45.640625 5.230469 45.640625 6.328125 L 45.640625 38.078125 C 45.640625 39.175781 44.753906 40.0625 43.65625 40.0625 L 3.96875 40.0625 C 2.871094 40.0625 1.984375 39.175781 1.984375 38.078125 L 1.984375 6.328125 C 1.984375 5.230469 2.871094 4.34375 3.96875 4.34375 Z M 3.96875 4.34375 "/>
<path style=" stroke:none;fill-rule:nonzero;fill:rgb(74.117649%,74.117649%,74.117649%);fill-opacity:1;" d="M 3.96875 3.351562 L 43.65625 3.351562 C 44.753906 3.351562 45.640625 4.238281 45.640625 5.335938 L 45.640625 37.085938 C 45.640625 38.183594 44.753906 39.070312 43.65625 39.070312 L 3.96875 39.070312 C 2.871094 39.070312 1.984375 38.183594 1.984375 37.085938 L 1.984375 5.335938 C 1.984375 4.238281 2.871094 3.351562 3.96875 3.351562 Z M 3.96875 3.351562 "/>
<path style=" stroke:none;fill-rule:nonzero;fill:rgb(93.333334%,93.333334%,93.333334%);fill-opacity:1;" d="M 3.96875 2.359375 L 43.65625 2.359375 C 44.753906 2.359375 45.640625 3.246094 45.640625 4.34375 L 45.640625 36.09375 C 45.640625 37.191406 44.753906 38.078125 43.65625 38.078125 L 3.96875 38.078125 C 2.871094 38.078125 1.984375 37.191406 1.984375 36.09375 L 1.984375 4.34375 C 1.984375 3.246094 2.871094 2.359375 3.96875 2.359375 Z M 3.96875 2.359375 "/>
<path style=" stroke:none;fill-rule:nonzero;fill:rgb(92.54902%,25.098041%,47.843137%);fill-opacity:1;" d="M 4.960938 4.34375 L 42.664062 4.34375 C 43.210938 4.34375 43.65625 4.789062 43.65625 5.335938 L 43.65625 35.101562 C 43.65625 35.648438 43.210938 36.09375 42.664062 36.09375 L 4.960938 36.09375 C 4.414062 36.09375 3.96875 35.648438 3.96875 35.101562 L 3.96875 5.335938 C 3.96875 4.789062 4.414062 4.34375 4.960938 4.34375 Z M 4.960938 4.34375 "/>
<path style=" stroke:none;fill-rule:nonzero;fill:rgb(25.882354%,25.882354%,25.882354%);fill-opacity:1;" d="M 13.789062 15.59375 C 13.484375 15.597656 13.1875 15.722656 12.976562 15.9375 L 3.96875 24.945312 L 3.96875 35.101562 C 3.96875 35.652344 4.410156 36.09375 4.960938 36.09375 L 42.664062 36.09375 C 43.214844 36.09375 43.65625 35.652344 43.65625 35.101562 L 43.65625 26.257812 L 36.015625 19.464844 C 35.527344 19.027344 34.773438 19.074219 34.339844 19.570312 L 26.84375 28.140625 L 14.644531 15.9375 C 14.417969 15.714844 14.109375 15.585938 13.789062 15.59375 Z M 13.789062 15.59375 "/>
<path style=" stroke:none;fill-rule:nonzero;fill:rgb(97.254902%,73.333335%,81.568629%);fill-opacity:1;" d="M 13.789062 15.59375 C 13.484375 15.597656 13.1875 15.722656 12.976562 15.9375 L 8.328125 20.582031 L 9.644531 22.128906 C 10.238281 22.722656 11.964844 22.757812 13.808594 21.535156 C 14.988281 20.363281 16.402344 20.46875 17.378906 21.535156 C 18.761719 22.820312 20.015625 22.722656 21.429688 22.722656 L 14.644531 15.9375 C 14.417969 15.714844 14.109375 15.585938 13.789062 15.59375 Z M 35.214844 19.164062 C 34.890625 19.167969 34.570312 19.304688 34.339844 19.570312 L 31.578125 22.722656 L 31.660156 22.722656 C 31.867188 23.175781 31.957031 24.808594 32.847656 23.914062 C 34.375 22.390625 34.632812 23.023438 35.230469 23.617188 C 36.125 24.507812 36.71875 25.402344 37.609375 25.105469 C 39.097656 24.507812 39.359375 23.039062 38.695312 21.847656 L 36.015625 19.464844 C 35.785156 19.257812 35.496094 19.160156 35.214844 19.164062 Z M 35.214844 19.164062 "/>
<path style=" stroke:none;fill-rule:nonzero;fill:rgb(100%,65.490198%,14.901961%);fill-opacity:1;" d="M 35.222656 7.320312 C 37.140625 7.320312 38.695312 8.875 38.695312 10.792969 C 38.695312 12.710938 37.140625 14.265625 35.222656 14.265625 C 33.304688 14.265625 31.75 12.710938 31.75 10.792969 C 31.75 8.875 33.304688 7.320312 35.222656 7.320312 Z M 35.222656 7.320312 "/>
<path style=" stroke:none;fill-rule:nonzero;fill:rgb(74.117649%,74.117649%,74.117649%);fill-opacity:1;" d="M 30.503906 16.152344 L 28.929688 16.570312 C 27.621094 16.921875 26.851562 18.257812 27.203125 19.566406 L 30.785156 32.9375 C 30.960938 33.601562 31.390625 34.125 31.941406 34.433594 L 38.746094 34.433594 C 39.300781 34.125 39.730469 33.601562 39.90625 32.9375 L 43.488281 19.566406 C 43.839844 18.257812 43.070312 16.921875 41.761719 16.570312 L 40.1875 16.152344 L 35.972656 31.882812 C 35.773438 31.828125 35.566406 31.800781 35.347656 31.800781 C 35.128906 31.800781 34.921875 31.832031 34.71875 31.882812 Z M 30.503906 16.152344 "/>
<path style=" stroke:none;fill-rule:nonzero;fill:rgb(11.764706%,53.333336%,89.803922%);fill-opacity:1;" d="M 30.214844 34.835938 C 28.085938 34.8125 26.003906 36.605469 25.292969 39.253906 C 24.484375 42.28125 25.78125 45.238281 28.203125 45.886719 C 30.621094 46.535156 33.222656 44.621094 34.035156 41.597656 C 34.390625 40.257812 34.339844 38.9375 33.960938 37.820312 C 34.316406 37.523438 34.539062 37.078125 34.539062 36.578125 C 34.539062 36.53125 34.539062 36.484375 34.535156 36.441406 C 34.789062 36.527344 35.0625 36.578125 35.347656 36.578125 C 35.632812 36.578125 35.910156 36.527344 36.160156 36.441406 C 36.160156 36.484375 36.15625 36.53125 36.15625 36.578125 C 36.15625 37.078125 36.382812 37.523438 36.738281 37.820312 C 36.355469 38.9375 36.304688 40.257812 36.664062 41.597656 C 37.472656 44.621094 40.074219 46.535156 42.496094 45.886719 C 44.917969 45.238281 46.214844 42.28125 45.402344 39.253906 C 44.589844 36.226562 41.988281 34.316406 39.566406 34.964844 C 39.277344 35.039062 39.003906 35.152344 38.75 35.289062 C 38.480469 35.085938 38.140625 34.964844 37.773438 34.964844 C 37.726562 34.964844 37.679688 34.964844 37.632812 34.96875 C 37.632812 34.964844 37.636719 34.964844 37.636719 34.960938 C 37.613281 34.960938 37.585938 34.964844 37.5625 34.964844 L 33.0625 34.964844 C 33.0625 34.964844 33.0625 34.964844 33.0625 34.96875 C 33.019531 34.964844 32.972656 34.964844 32.925781 34.964844 C 32.558594 34.964844 32.21875 35.085938 31.945312 35.289062 C 31.691406 35.152344 31.417969 35.039062 31.128906 34.964844 C 30.824219 34.882812 30.519531 34.839844 30.214844 34.835938 Z M 29.980469 37.230469 C 30.152344 37.234375 30.328125 37.257812 30.5 37.304688 C 31.882812 37.671875 32.625 39.363281 32.160156 41.09375 C 31.699219 42.824219 30.210938 43.917969 28.828125 43.546875 C 27.445312 43.175781 26.703125 41.484375 27.167969 39.753906 C 27.570312 38.242188 28.761719 37.214844 29.980469 37.230469 Z M 40.71875 37.230469 C 41.933594 37.214844 43.125 38.242188 43.53125 39.753906 C 43.992188 41.484375 43.253906 43.175781 41.871094 43.546875 C 40.484375 43.917969 38.996094 42.824219 38.535156 41.09375 C 38.070312 39.363281 38.8125 37.671875 40.195312 37.304688 C 40.367188 37.257812 40.542969 37.234375 40.71875 37.230469 Z M 40.71875 37.230469 "/>
<path style=" stroke:none;fill-rule:nonzero;fill:rgb(87.843138%,87.843138%,87.843138%);fill-opacity:1;" d="M 35.347656 31.90625 C 36.6875 31.90625 37.773438 32.992188 37.773438 34.332031 C 37.773438 35.671875 36.6875 36.757812 35.347656 36.757812 C 34.007812 36.757812 32.921875 35.671875 32.921875 34.332031 C 32.921875 32.992188 34.007812 31.90625 35.347656 31.90625 Z M 35.347656 31.90625 "/>
<path style=" stroke:none;fill-rule:nonzero;fill:rgb(45.882353%,45.882353%,45.882353%);fill-opacity:1;" d="M 35.347656 35.546875 C 36.019531 35.546875 36.5625 35 36.5625 34.332031 C 36.5625 33.660156 36.019531 33.121094 35.347656 33.121094 C 34.679688 33.121094 34.136719 33.660156 34.136719 34.332031 C 34.136719 35 34.679688 35.546875 35.347656 35.546875 Z M 35.347656 35.546875 "/>
</g>
</svg>
