<?xml version="1.0" encoding="UTF-8"?>
<svg xmlns="http://www.w3.org/2000/svg" xmlns:xlink="http://www.w3.org/1999/xlink" width="48px" height="48px" viewBox="0 0 48 48" version="1.1">
<g id="surface1">
<path style=" stroke:none;fill-rule:nonzero;fill:rgb(25.882354%,25.882354%,25.882354%);fill-opacity:1;" d="M 23.8125 2.359375 C 35.867188 2.359375 45.640625 12.132812 45.640625 24.1875 C 45.640625 36.242188 35.867188 46.015625 23.8125 46.015625 C 11.757812 46.015625 1.984375 36.242188 1.984375 24.1875 C 1.984375 12.132812 11.757812 2.359375 23.8125 2.359375 Z M 23.8125 2.359375 "/>
<path style=" stroke:none;fill-rule:nonzero;fill:rgb(93.333334%,93.333334%,93.333334%);fill-opacity:1;" d="M 20.835938 9.601562 C 14.027344 10.972656 8.929688 16.960938 8.929688 24.1875 C 8.929688 32.433594 15.566406 39.070312 23.8125 39.070312 C 32.058594 39.070312 38.695312 32.433594 38.695312 24.1875 C 38.695312 16.960938 33.597656 10.972656 26.789062 9.601562 L 26.789062 12.652344 C 31.933594 13.96875 35.71875 18.621094 35.71875 24.1875 C 35.71875 30.785156 30.410156 36.09375 23.8125 36.09375 C 17.214844 36.09375 11.90625 30.785156 11.90625 24.1875 C 11.90625 18.621094 15.691406 13.96875 20.835938 12.652344 Z M 20.835938 9.601562 "/>
<path style=" stroke:none;fill-rule:nonzero;fill:rgb(93.333334%,93.333334%,93.333334%);fill-opacity:1;" d="M 23.8125 9.304688 C 24.359375 9.304688 24.804688 9.75 24.804688 10.296875 L 24.804688 24.1875 C 24.804688 24.734375 24.359375 25.179688 23.8125 25.179688 C 23.265625 25.179688 22.820312 24.734375 22.820312 24.1875 L 22.820312 10.296875 C 22.820312 9.75 23.265625 9.304688 23.8125 9.304688 Z M 23.8125 9.304688 "/>
<path style=" stroke:none;fill-rule:nonzero;fill:rgb(93.333334%,93.333334%,93.333334%);fill-opacity:1;" d="M 23.8125 23.195312 L 31.75 23.195312 C 32.296875 23.195312 32.742188 23.640625 32.742188 24.1875 C 32.742188 24.734375 32.296875 25.179688 31.75 25.179688 L 23.8125 25.179688 C 23.265625 25.179688 22.820312 24.734375 22.820312 24.1875 C 22.820312 23.640625 23.265625 23.195312 23.8125 23.195312 Z M 23.8125 23.195312 "/>
</g>
</svg>
