<?xml version="1.0" encoding="UTF-8"?>
<svg xmlns="http://www.w3.org/2000/svg" xmlns:xlink="http://www.w3.org/1999/xlink" width="48px" height="48px" viewBox="0 0 48 48" version="1.1">
<g id="surface1">
<path style=" stroke:none;fill-rule:nonzero;fill:rgb(74.117649%,74.117649%,74.117649%);fill-opacity:1;" d="M 43.84375 4.199219 C 43.199219 4.273438 42.695312 4.742188 42.558594 5.34375 L 11.90625 8.757812 L 12.015625 9.742188 L 42.667969 6.328125 C 42.933594 6.882812 43.527344 7.230469 44.171875 7.160156 C 44.992188 7.066406 45.578125 6.335938 45.488281 5.515625 C 45.398438 4.695312 44.664062 4.109375 43.84375 4.199219 Z M 43.84375 4.199219 "/>
<path style=" stroke:none;fill-rule:nonzero;fill:rgb(87.843138%,87.843138%,87.843138%);fill-opacity:1;" d="M 29.109375 6.339844 L 29.328125 8.3125 L 11.578125 10.292969 L 11.359375 8.320312 Z M 29.109375 6.339844 "/>
<path style=" stroke:none;fill-rule:nonzero;fill:rgb(98.431373%,54.901963%,0%);fill-opacity:1;" d="M 11.90625 8.3125 C 13.003906 8.3125 13.890625 9.199219 13.890625 10.296875 C 13.890625 11.394531 13.003906 12.28125 11.90625 12.28125 C 10.808594 12.28125 9.921875 11.394531 9.921875 10.296875 C 9.921875 9.199219 10.808594 8.3125 11.90625 8.3125 Z M 11.90625 8.3125 "/>
<path style=" stroke:none;fill-rule:nonzero;fill:rgb(74.117649%,74.117649%,74.117649%);fill-opacity:1;" d="M 11.90625 9.054688 C 12.453125 9.054688 12.898438 9.5 12.898438 10.046875 C 12.898438 10.597656 12.453125 11.039062 11.90625 11.039062 C 11.359375 11.039062 10.914062 10.597656 10.914062 10.046875 C 10.914062 9.5 11.359375 9.054688 11.90625 9.054688 Z M 11.90625 9.054688 "/>
<path style=" stroke:none;fill-rule:nonzero;fill:rgb(98.431373%,54.901963%,0%);fill-opacity:1;" d="M 8.929688 10.296875 L 14.882812 10.296875 C 15.429688 10.296875 15.875 10.742188 15.875 11.289062 L 15.875 13.273438 C 15.875 13.820312 15.429688 14.265625 14.882812 14.265625 L 8.929688 14.265625 C 8.382812 14.265625 7.9375 13.820312 7.9375 13.273438 L 7.9375 11.289062 C 7.9375 10.742188 8.382812 10.296875 8.929688 10.296875 Z M 8.929688 10.296875 "/>
<path style=" stroke:none;fill-rule:nonzero;fill:rgb(100%,65.490198%,14.901961%);fill-opacity:1;" d="M 3.96875 12.28125 L 43.65625 12.28125 C 44.753906 12.28125 45.640625 13.167969 45.640625 14.265625 L 45.640625 44.03125 C 45.640625 45.128906 44.753906 46.015625 43.65625 46.015625 L 3.96875 46.015625 C 2.871094 46.015625 1.984375 45.128906 1.984375 44.03125 L 1.984375 14.265625 C 1.984375 13.167969 2.871094 12.28125 3.96875 12.28125 Z M 3.96875 12.28125 "/>
<path style=" stroke:none;fill-rule:nonzero;fill:rgb(87.843138%,87.843138%,87.843138%);fill-opacity:1;" d="M 17.859375 17.242188 C 11.261719 17.242188 5.953125 22.550781 5.953125 29.148438 C 5.953125 35.746094 11.261719 41.054688 17.859375 41.054688 C 24.457031 41.054688 29.765625 35.746094 29.765625 29.148438 C 29.765625 22.550781 24.457031 17.242188 17.859375 17.242188 Z M 17.859375 18.234375 C 23.90625 18.234375 28.773438 23.101562 28.773438 29.148438 C 28.773438 35.195312 23.90625 40.0625 17.859375 40.0625 C 11.8125 40.0625 6.945312 35.195312 6.945312 29.148438 C 6.945312 23.101562 11.8125 18.234375 17.859375 18.234375 Z M 17.859375 18.234375 "/>
<path style=" stroke:none;fill-rule:nonzero;fill:rgb(87.843138%,87.843138%,87.843138%);fill-opacity:1;" d="M 38.695312 27.164062 C 40.339844 27.164062 41.671875 28.496094 41.671875 30.140625 C 41.671875 31.785156 40.339844 33.117188 38.695312 33.117188 C 37.050781 33.117188 35.71875 31.785156 35.71875 30.140625 C 35.71875 28.496094 37.050781 27.164062 38.695312 27.164062 Z M 38.695312 27.164062 "/>
<path style=" stroke:none;fill-rule:nonzero;fill:rgb(25.882354%,25.882354%,25.882354%);fill-opacity:1;" d="M 38.695312 28.15625 C 39.792969 28.15625 40.679688 29.042969 40.679688 30.140625 C 40.679688 31.238281 39.792969 32.125 38.695312 32.125 C 37.597656 32.125 36.710938 31.238281 36.710938 30.140625 C 36.710938 29.042969 37.597656 28.15625 38.695312 28.15625 Z M 38.695312 28.15625 "/>
<path style=" stroke:none;fill-rule:nonzero;fill:rgb(87.843138%,87.843138%,87.843138%);fill-opacity:1;" d="M 38.695312 17.242188 C 40.339844 17.242188 41.671875 18.574219 41.671875 20.21875 C 41.671875 21.863281 40.339844 23.195312 38.695312 23.195312 C 37.050781 23.195312 35.71875 21.863281 35.71875 20.21875 C 35.71875 18.574219 37.050781 17.242188 38.695312 17.242188 Z M 38.695312 17.242188 "/>
<path style=" stroke:none;fill-rule:nonzero;fill:rgb(25.882354%,25.882354%,25.882354%);fill-opacity:1;" d="M 38.695312 18.234375 C 39.792969 18.234375 40.679688 19.121094 40.679688 20.21875 C 40.679688 21.316406 39.792969 22.203125 38.695312 22.203125 C 37.597656 22.203125 36.710938 21.316406 36.710938 20.21875 C 36.710938 19.121094 37.597656 18.234375 38.695312 18.234375 Z M 38.695312 18.234375 "/>
<path style=" stroke:none;fill-rule:nonzero;fill:rgb(87.843138%,87.843138%,87.843138%);fill-opacity:1;" d="M 33.238281 37.085938 L 42.167969 37.085938 C 42.988281 37.085938 43.65625 37.753906 43.65625 38.574219 L 43.65625 41.550781 C 43.65625 42.371094 42.988281 43.039062 42.167969 43.039062 L 33.238281 43.039062 C 32.417969 43.039062 31.75 42.371094 31.75 41.550781 L 31.75 38.574219 C 31.75 37.753906 32.417969 37.085938 33.238281 37.085938 Z M 33.238281 37.085938 "/>
<path style=" stroke:none;fill-rule:nonzero;fill:rgb(93.725491%,32.549021%,31.37255%);fill-opacity:1;" d="M 33.734375 38.078125 C 33.183594 38.078125 32.742188 38.519531 32.742188 39.070312 L 32.742188 41.054688 C 32.742188 41.605469 33.183594 42.046875 33.734375 42.046875 L 37.703125 42.046875 L 37.703125 38.078125 Z M 33.734375 38.078125 "/>
<path style=" stroke:none;fill-rule:nonzero;fill:rgb(40.000001%,73.333335%,41.568628%);fill-opacity:1;" d="M 41.671875 38.078125 C 42.222656 38.078125 42.664062 38.519531 42.664062 39.070312 L 42.664062 41.054688 C 42.664062 41.605469 42.222656 42.046875 41.671875 42.046875 L 37.703125 42.046875 L 37.703125 38.078125 Z M 41.671875 38.078125 "/>
<path style=" stroke:none;fill-rule:nonzero;fill:rgb(98.431373%,54.901963%,0%);fill-opacity:1;" d="M 17.859375 18.234375 C 15.511719 18.234375 13.34375 18.96875 11.566406 20.21875 L 24.152344 20.21875 C 22.375 18.96875 20.207031 18.234375 17.859375 18.234375 Z M 9.425781 22.203125 C 8.925781 22.8125 8.488281 23.476562 8.128906 24.1875 L 27.589844 24.1875 C 27.230469 23.476562 26.792969 22.8125 26.292969 22.203125 Z M 7.351562 26.171875 C 7.171875 26.8125 7.050781 27.472656 6.988281 28.15625 L 28.730469 28.15625 C 28.667969 27.472656 28.546875 26.8125 28.367188 26.171875 Z M 6.988281 30.140625 C 7.050781 30.824219 7.171875 31.484375 7.351562 32.125 L 28.367188 32.125 C 28.546875 31.484375 28.667969 30.824219 28.730469 30.140625 Z M 8.128906 34.109375 C 8.488281 34.820312 8.925781 35.484375 9.425781 36.09375 L 26.292969 36.09375 C 26.792969 35.484375 27.230469 34.820312 27.589844 34.109375 Z M 11.566406 38.078125 C 13.34375 39.328125 15.511719 40.0625 17.859375 40.0625 C 20.207031 40.0625 22.375 39.328125 24.152344 38.078125 Z M 11.566406 38.078125 "/>
</g>
</svg>
