<?xml version="1.0" encoding="UTF-8"?>
<svg xmlns="http://www.w3.org/2000/svg" xmlns:xlink="http://www.w3.org/1999/xlink" width="48px" height="48px" viewBox="0 0 48 48" version="1.1">
<g id="surface1">
<path style=" stroke:none;fill-rule:nonzero;fill:rgb(74.117649%,74.117649%,74.117649%);fill-opacity:1;" d="M 33.238281 44.03125 L 39.6875 37.582031 L 34.726562 37.582031 C 33.902344 37.582031 33.238281 38.246094 33.238281 39.070312 Z M 33.238281 44.03125 "/>
<path style=" stroke:none;fill-rule:nonzero;fill:rgb(55.29412%,43.137255%,38.82353%);fill-opacity:1;" d="M 7.9375 6.328125 L 39.6875 6.328125 C 40.785156 6.328125 41.671875 7.214844 41.671875 8.3125 L 41.671875 44.03125 C 41.671875 45.128906 40.785156 46.015625 39.6875 46.015625 L 7.9375 46.015625 C 6.839844 46.015625 5.953125 45.128906 5.953125 44.03125 L 5.953125 8.3125 C 5.953125 7.214844 6.839844 6.328125 7.9375 6.328125 Z M 7.9375 6.328125 "/>
<path style=" stroke:none;fill-rule:nonzero;fill:rgb(93.333334%,93.333334%,93.333334%);fill-opacity:1;" d="M 8.929688 8.3125 C 8.378906 8.3125 7.9375 8.753906 7.9375 9.304688 L 7.9375 43.039062 C 7.9375 43.589844 8.378906 44.027344 8.929688 44.03125 L 31.75 44.03125 L 39.6875 36.09375 L 39.6875 9.304688 C 39.6875 8.753906 39.246094 8.3125 38.695312 8.3125 Z M 8.929688 8.3125 "/>
<path style=" stroke:none;fill-rule:nonzero;fill:rgb(81.176472%,84.705883%,86.274511%);fill-opacity:1;" d="M 23.8125 2.359375 C 22.164062 2.359375 20.835938 3.6875 20.835938 5.335938 L 12.402344 5.335938 C 11.578125 5.335938 10.914062 6 10.914062 6.824219 L 10.914062 11.289062 L 36.710938 11.289062 L 36.710938 6.824219 C 36.710938 6 36.046875 5.335938 35.222656 5.335938 L 26.789062 5.335938 C 26.789062 3.6875 25.460938 2.359375 23.8125 2.359375 Z M 23.8125 4.34375 C 24.363281 4.34375 24.804688 4.785156 24.804688 5.335938 C 24.804688 5.886719 24.363281 6.328125 23.8125 6.328125 C 23.261719 6.328125 22.820312 5.886719 22.820312 5.335938 C 22.820312 4.785156 23.261719 4.34375 23.8125 4.34375 Z M 23.8125 4.34375 "/>
<path style=" stroke:none;fill-rule:nonzero;fill:rgb(47.058824%,56.470591%,61.176473%);fill-opacity:1;" d="M 18.851562 14.265625 L 34.726562 14.265625 C 35.273438 14.265625 35.71875 14.710938 35.71875 15.257812 C 35.71875 15.804688 35.273438 16.25 34.726562 16.25 L 18.851562 16.25 C 18.304688 16.25 17.859375 15.804688 17.859375 15.257812 C 17.859375 14.710938 18.304688 14.265625 18.851562 14.265625 Z M 18.851562 14.265625 "/>
<path style=" stroke:none;fill-rule:nonzero;fill:rgb(74.117649%,74.117649%,74.117649%);fill-opacity:1;" d="M 39.6875 36.09375 L 31.75 44.03125 L 38.695312 44.03125 C 39.246094 44.03125 39.6875 43.589844 39.6875 43.039062 Z M 39.6875 36.09375 "/>
<path style=" stroke:none;fill-rule:nonzero;fill:rgb(87.843138%,87.843138%,87.843138%);fill-opacity:1;" d="M 31.75 44.03125 L 39.6875 36.09375 L 32.742188 36.09375 C 32.191406 36.09375 31.75 36.535156 31.75 37.085938 Z M 31.75 44.03125 "/>
<path style=" stroke:none;fill-rule:nonzero;fill:rgb(47.058824%,56.470591%,61.176473%);fill-opacity:1;" d="M 13.890625 13.273438 C 12.792969 13.273438 11.90625 14.160156 11.90625 15.257812 C 11.90625 16.355469 12.792969 17.242188 13.890625 17.242188 C 14.988281 17.242188 15.875 16.355469 15.875 15.257812 C 15.875 14.160156 14.988281 13.273438 13.890625 13.273438 Z M 13.890625 14.265625 C 14.441406 14.265625 14.882812 14.707031 14.882812 15.257812 C 14.882812 15.808594 14.441406 16.25 13.890625 16.25 C 13.339844 16.25 12.898438 15.808594 12.898438 15.257812 C 12.898438 14.707031 13.339844 14.265625 13.890625 14.265625 Z M 13.890625 14.265625 "/>
<path style=" stroke:none;fill-rule:nonzero;fill:rgb(47.058824%,56.470591%,61.176473%);fill-opacity:1;" d="M 13.890625 19.226562 C 12.792969 19.226562 11.90625 20.113281 11.90625 21.210938 C 11.90625 22.308594 12.792969 23.195312 13.890625 23.195312 C 14.988281 23.195312 15.875 22.308594 15.875 21.210938 C 15.875 20.113281 14.988281 19.226562 13.890625 19.226562 Z M 13.890625 20.21875 C 14.441406 20.21875 14.882812 20.660156 14.882812 21.210938 C 14.882812 21.761719 14.441406 22.203125 13.890625 22.203125 C 13.339844 22.203125 12.898438 21.761719 12.898438 21.210938 C 12.898438 20.660156 13.339844 20.21875 13.890625 20.21875 Z M 13.890625 20.21875 "/>
<path style=" stroke:none;fill-rule:nonzero;fill:rgb(47.058824%,56.470591%,61.176473%);fill-opacity:1;" d="M 13.890625 25.179688 C 12.792969 25.179688 11.90625 26.066406 11.90625 27.164062 C 11.90625 28.261719 12.792969 29.148438 13.890625 29.148438 C 14.988281 29.148438 15.875 28.261719 15.875 27.164062 C 15.875 26.066406 14.988281 25.179688 13.890625 25.179688 Z M 13.890625 26.171875 C 14.441406 26.171875 14.882812 26.613281 14.882812 27.164062 C 14.882812 27.714844 14.441406 28.15625 13.890625 28.15625 C 13.339844 28.15625 12.898438 27.714844 12.898438 27.164062 C 12.898438 26.613281 13.339844 26.171875 13.890625 26.171875 Z M 13.890625 26.171875 "/>
<path style=" stroke:none;fill-rule:nonzero;fill:rgb(47.058824%,56.470591%,61.176473%);fill-opacity:1;" d="M 13.890625 31.132812 C 12.792969 31.132812 11.90625 32.019531 11.90625 33.117188 C 11.90625 34.214844 12.792969 35.101562 13.890625 35.101562 C 14.988281 35.101562 15.875 34.214844 15.875 33.117188 C 15.875 32.019531 14.988281 31.132812 13.890625 31.132812 Z M 13.890625 32.125 C 14.441406 32.125 14.882812 32.566406 14.882812 33.117188 C 14.882812 33.667969 14.441406 34.109375 13.890625 34.109375 C 13.339844 34.109375 12.898438 33.667969 12.898438 33.117188 C 12.898438 32.566406 13.339844 32.125 13.890625 32.125 Z M 13.890625 32.125 "/>
<path style=" stroke:none;fill-rule:nonzero;fill:rgb(47.058824%,56.470591%,61.176473%);fill-opacity:1;" d="M 18.851562 20.21875 L 34.726562 20.21875 C 35.273438 20.21875 35.71875 20.664062 35.71875 21.210938 C 35.71875 21.757812 35.273438 22.203125 34.726562 22.203125 L 18.851562 22.203125 C 18.304688 22.203125 17.859375 21.757812 17.859375 21.210938 C 17.859375 20.664062 18.304688 20.21875 18.851562 20.21875 Z M 18.851562 20.21875 "/>
<path style=" stroke:none;fill-rule:nonzero;fill:rgb(47.058824%,56.470591%,61.176473%);fill-opacity:1;" d="M 18.851562 26.171875 L 34.726562 26.171875 C 35.273438 26.171875 35.71875 26.617188 35.71875 27.164062 C 35.71875 27.710938 35.273438 28.15625 34.726562 28.15625 L 18.851562 28.15625 C 18.304688 28.15625 17.859375 27.710938 17.859375 27.164062 C 17.859375 26.617188 18.304688 26.171875 18.851562 26.171875 Z M 18.851562 26.171875 "/>
<path style=" stroke:none;fill-rule:nonzero;fill:rgb(47.058824%,56.470591%,61.176473%);fill-opacity:1;" d="M 18.851562 32.125 L 34.726562 32.125 C 35.273438 32.125 35.71875 32.570312 35.71875 33.117188 C 35.71875 33.664062 35.273438 34.109375 34.726562 34.109375 L 18.851562 34.109375 C 18.304688 34.109375 17.859375 33.664062 17.859375 33.117188 C 17.859375 32.570312 18.304688 32.125 18.851562 32.125 Z M 18.851562 32.125 "/>
<path style=" stroke:none;fill-rule:nonzero;fill:rgb(93.725491%,32.549021%,31.37255%);fill-opacity:1;" d="M 11.785156 13.648438 L 13.890625 15.753906 L 16.695312 12.949219 L 15.996094 12.246094 L 13.890625 14.351562 L 12.488281 12.949219 Z M 11.785156 13.648438 "/>
<path style=" stroke:none;fill-rule:nonzero;fill:rgb(93.725491%,32.549021%,31.37255%);fill-opacity:1;" d="M 11.785156 19.601562 L 13.890625 21.707031 L 16.695312 18.902344 L 15.996094 18.199219 L 13.890625 20.304688 L 12.488281 18.902344 Z M 11.785156 19.601562 "/>
</g>
</svg>
