<?xml version="1.0" encoding="UTF-8"?>
<svg xmlns="http://www.w3.org/2000/svg" xmlns:xlink="http://www.w3.org/1999/xlink" width="48px" height="48px" viewBox="0 0 48 48" version="1.1">
<g id="surface1">
<path style=" stroke:none;fill-rule:nonzero;fill:rgb(40.000001%,73.333335%,41.568628%);fill-opacity:1;" d="M 23.8125 2.359375 C 35.867188 2.359375 45.640625 12.132812 45.640625 24.1875 C 45.640625 36.242188 35.867188 46.015625 23.8125 46.015625 C 11.757812 46.015625 1.984375 36.242188 1.984375 24.1875 C 1.984375 12.132812 11.757812 2.359375 23.8125 2.359375 Z M 23.8125 2.359375 "/>
<path style=" stroke:none;fill-rule:nonzero;fill:rgb(26.274511%,62.7451%,27.843139%);fill-opacity:1;" d="M 23.8125 6.328125 C 33.675781 6.328125 41.671875 14.324219 41.671875 24.1875 C 41.671875 34.050781 33.675781 42.046875 23.8125 42.046875 C 13.949219 42.046875 5.953125 34.050781 5.953125 24.1875 C 5.953125 14.324219 13.949219 6.328125 23.8125 6.328125 Z M 23.8125 6.328125 "/>
<path style=" stroke:none;fill-rule:nonzero;fill:rgb(87.843138%,87.843138%,87.843138%);fill-opacity:1;" d="M 23.8125 10.296875 C 31.484375 10.296875 37.703125 16.515625 37.703125 24.1875 C 37.703125 31.859375 31.484375 38.078125 23.8125 38.078125 C 16.140625 38.078125 9.921875 31.859375 9.921875 24.1875 C 9.921875 16.515625 16.140625 10.296875 23.8125 10.296875 Z M 23.8125 10.296875 "/>
<path style=" stroke:none;fill-rule:nonzero;fill:rgb(25.882354%,25.882354%,25.882354%);fill-opacity:1;" d="M 28.765625 11.199219 C 28.820312 11.828125 28.792969 12.53125 28.683594 13.308594 L 28.671875 13.386719 C 27.101562 13.496094 25.660156 13.808594 24.359375 14.324219 L 24.144531 14.1875 C 22.804688 13.328125 20.847656 12.890625 18.839844 12.839844 C 18.832031 12.199219 18.800781 11.667969 18.746094 11.242188 C 15.84375 12.375 13.421875 14.445312 11.855469 17.09375 C 12.464844 16.972656 13.113281 16.980469 13.796875 17.109375 L 13.800781 17.203125 C 13.894531 19.492188 14.183594 21.316406 14.675781 22.695312 L 14.757812 22.933594 C 13.871094 24.210938 13.3125 25.519531 13.085938 26.863281 L 12.953125 26.890625 C 12.15625 27.066406 11.3125 27.070312 10.414062 26.890625 L 10.171875 26.839844 C 10.222656 27.109375 10.277344 27.367188 10.347656 27.632812 C 10.347656 27.628906 10.347656 27.625 10.347656 27.625 C 11.304688 27.808594 12.234375 27.804688 13.113281 27.609375 L 13.175781 27.59375 C 13.8125 29.03125 14.859375 30.332031 16.335938 31.488281 L 16.351562 31.808594 C 16.4375 33.179688 16.847656 34.679688 17.417969 35.835938 C 17.027344 35.882812 16.617188 35.875 16.175781 35.808594 C 18.285156 37.195312 20.800781 38.019531 23.511719 38.078125 C 25.628906 37.742188 27.410156 36.828125 28.472656 35.566406 L 28.699219 35.296875 C 30.558594 35.15625 32.042969 34.675781 33.152344 33.855469 L 33.171875 33.875 L 33.464844 34.195312 C 33.640625 34.023438 33.8125 33.851562 33.980469 33.671875 L 33.707031 33.378906 L 33.628906 33.296875 C 34.367188 31.980469 34.84375 30.726562 35.066406 29.539062 L 35.140625 29.609375 L 35.398438 29.355469 C 36.214844 28.539062 36.992188 27.234375 37.617188 25.753906 C 37.671875 25.242188 37.703125 24.71875 37.703125 24.1875 C 37.703125 22.132812 37.261719 20.179688 36.464844 18.429688 L 36.375 18.550781 C 35.402344 17.925781 34.132812 17.386719 32.953125 17.117188 L 32.597656 17.035156 L 32.589844 17.058594 C 31.488281 15.472656 30.417969 14.3125 29.386719 13.582031 L 29.40625 13.414062 C 29.503906 12.738281 29.542969 12.097656 29.519531 11.507812 C 29.269531 11.398438 29.019531 11.292969 28.761719 11.199219 Z M 18.117188 13.53125 L 18.117188 13.570312 L 18.480469 13.570312 C 20.507812 13.570312 22.523438 14.015625 23.746094 14.804688 L 24.03125 14.984375 C 24.25 16.316406 24.445312 17.703125 24.605469 19.164062 L 24.417969 19.316406 C 22.144531 21.210938 20.625 22.628906 19.832031 23.617188 L 19.746094 23.734375 C 18.238281 23.273438 16.804688 22.910156 15.433594 22.648438 L 15.359375 22.449219 C 14.910156 21.183594 14.628906 19.417969 14.53125 17.175781 L 14.519531 16.808594 L 14.449219 16.8125 C 15.644531 15.25 16.863281 14.160156 18.117188 13.53125 Z M 32.675781 17.804688 L 32.789062 17.828125 C 33.964844 18.101562 35.308594 18.691406 36.203125 19.316406 L 36.34375 19.417969 C 37.070312 21.292969 37.472656 22.84375 37.546875 24.070312 L 37.480469 24.042969 L 37.355469 24.390625 C 36.707031 26.238281 35.753906 27.960938 34.882812 28.835938 L 34.785156 28.929688 C 33.703125 28.425781 32.761719 28.011719 31.972656 27.6875 L 31.960938 27.515625 C 31.867188 25.675781 31.433594 23.613281 30.667969 21.324219 L 30.582031 21.058594 C 31.40625 19.847656 32.109375 18.761719 32.675781 17.804688 Z M 25.109375 19.695312 C 26.695312 20.042969 28.285156 20.558594 29.871094 21.242188 L 29.972656 21.554688 C 30.722656 23.800781 31.136719 25.800781 31.234375 27.550781 L 31.253906 27.917969 L 31.273438 27.917969 C 30.152344 29.214844 28.933594 30.320312 27.621094 31.222656 L 27.625 31.199219 L 27.265625 31.140625 C 25.027344 30.769531 23.128906 30.164062 21.5625 29.335938 L 21.273438 29.183594 C 20.820312 27.335938 20.464844 25.71875 20.207031 24.328125 L 20.402344 24.078125 C 21.121094 23.179688 22.628906 21.761719 24.886719 19.878906 Z M 21 29.863281 L 21.222656 29.984375 C 22.875 30.855469 24.847656 31.480469 27.144531 31.863281 L 27.324219 31.894531 C 27.609375 32.859375 27.867188 33.855469 28.097656 34.878906 L 27.917969 35.089844 C 26.957031 36.226562 25.214844 37.117188 23.117188 37.390625 L 22.753906 37.441406 L 22.765625 37.523438 C 21.15625 37.308594 19.695312 36.824219 18.382812 36.074219 L 18.3125 35.957031 C 17.6875 34.890625 17.171875 33.207031 17.082031 31.761719 L 17.078125 31.640625 C 18.484375 31.085938 19.789062 30.488281 21 29.863281 Z M 21 29.863281 "/>
</g>
</svg>
