<?xml version="1.0" encoding="UTF-8"?>
<svg xmlns="http://www.w3.org/2000/svg" xmlns:xlink="http://www.w3.org/1999/xlink" width="48px" height="48px" viewBox="0 0 48 48" version="1.1">
<g id="surface1">
<path style=" stroke:none;fill-rule:nonzero;fill:rgb(61.176473%,80.000001%,39.607844%);fill-opacity:1;" d="M 27.78125 18.234375 L 43.65625 18.234375 C 44.753906 18.234375 45.640625 19.121094 45.640625 20.21875 L 45.640625 36.09375 C 45.640625 37.191406 44.753906 38.078125 43.65625 38.078125 L 27.78125 38.078125 C 26.683594 38.078125 25.796875 37.191406 25.796875 36.09375 L 25.796875 20.21875 C 25.796875 19.121094 26.683594 18.234375 27.78125 18.234375 Z M 27.78125 18.234375 "/>
<path style=" stroke:none;fill-rule:nonzero;fill:rgb(25.882354%,64.705884%,96.078432%);fill-opacity:1;" d="M 15.875 2.359375 L 31.75 2.359375 C 32.847656 2.359375 33.734375 3.246094 33.734375 4.34375 L 33.734375 20.21875 C 33.734375 21.316406 32.847656 22.203125 31.75 22.203125 L 15.875 22.203125 C 14.777344 22.203125 13.890625 21.316406 13.890625 20.21875 L 13.890625 4.34375 C 13.890625 3.246094 14.777344 2.359375 15.875 2.359375 Z M 15.875 2.359375 "/>
<path style=" stroke:none;fill-rule:nonzero;fill:rgb(100%,65.490198%,14.901961%);fill-opacity:1;" d="M 15.875 26.171875 L 31.75 26.171875 C 32.847656 26.171875 33.734375 27.058594 33.734375 28.15625 L 33.734375 44.03125 C 33.734375 45.128906 32.847656 46.015625 31.75 46.015625 L 15.875 46.015625 C 14.777344 46.015625 13.890625 45.128906 13.890625 44.03125 L 13.890625 28.15625 C 13.890625 27.058594 14.777344 26.171875 15.875 26.171875 Z M 15.875 26.171875 "/>
<path style=" stroke:none;fill-rule:nonzero;fill:rgb(93.725491%,32.549021%,31.37255%);fill-opacity:1;" d="M 3.96875 14.265625 L 19.84375 14.265625 C 20.941406 14.265625 21.828125 15.152344 21.828125 16.25 L 21.828125 32.125 C 21.828125 33.222656 20.941406 34.109375 19.84375 34.109375 L 3.96875 34.109375 C 2.871094 34.109375 1.984375 33.222656 1.984375 32.125 L 1.984375 16.25 C 1.984375 15.152344 2.871094 14.265625 3.96875 14.265625 Z M 3.96875 14.265625 "/>
</g>
</svg>
