
<svg xmlns="http://www.w3.org/2000/svg" xmlns:xlink="http://www.w3.org/1999/xlink" width="48px" height="48px" viewBox="0 0 48 48" version="1.1">
<g id="surface1">
<path style=" stroke:none;fill-rule:nonzero;fill:rgb(91.37255%,11.764706%,38.82353%);fill-opacity:1;" d="M 23.8125 2.292969 C 23.210938 2.292969 22.679688 2.863281 22.1875 3.683594 C 20.242188 6.914062 18.40625 15.046875 16.878906 16.152344 C 15.351562 17.261719 7.054688 16.5 3.378906 17.347656 C 2.445312 17.5625 1.742188 17.890625 1.554688 18.464844 C 1.367188 19.039062 1.746094 19.71875 2.375 20.441406 C 4.847656 23.289062 12.011719 27.546875 12.59375 29.34375 C 13.175781 31.136719 9.886719 38.792969 9.558594 42.550781 C 9.472656 43.503906 9.566406 44.277344 10.054688 44.632812 C 10.542969 44.984375 11.308594 44.835938 12.1875 44.460938 C 15.660156 42.988281 21.925781 37.492188 23.8125 37.492188 C 25.699219 37.492188 31.964844 42.988281 35.4375 44.460938 C 36.316406 44.835938 37.082031 44.984375 37.570312 44.632812 C 38.058594 44.277344 38.152344 43.503906 38.066406 42.550781 C 37.738281 38.792969 34.449219 31.136719 35.03125 29.34375 C 35.613281 27.546875 42.777344 23.289062 45.25 20.441406 C 45.878906 19.71875 46.257812 19.039062 46.070312 18.464844 C 45.882812 17.890625 45.179688 17.5625 44.246094 17.347656 C 40.570312 16.5 32.273438 17.261719 30.746094 16.152344 C 29.21875 15.046875 27.382812 6.914062 25.4375 3.683594 C 24.945312 2.863281 24.414062 2.292969 23.8125 2.292969 Z M 23.8125 2.292969 "/>
<path style=" stroke:none;fill-rule:nonzero;fill:rgb(92.54902%,25.098041%,47.843137%);fill-opacity:1;" d="M 23.8125 4.621094 C 23.804688 4.628906 23.800781 4.636719 23.792969 4.648438 C 21.964844 7.695312 20.214844 16.046875 17.980469 17.671875 C 15.75 19.292969 7.261719 18.375 3.800781 19.175781 C 3.785156 19.179688 3.777344 19.179688 3.765625 19.183594 C 3.773438 19.195312 3.78125 19.199219 3.789062 19.210938 C 6.117188 21.890625 13.523438 26.136719 14.378906 28.761719 C 15.230469 31.386719 11.734375 39.175781 11.425781 42.714844 C 11.425781 42.726562 11.425781 42.734375 11.421875 42.75 C 11.433594 42.746094 11.445312 42.742188 11.457031 42.738281 C 14.726562 41.347656 21.050781 35.617188 23.8125 35.617188 C 26.574219 35.617188 32.898438 41.347656 36.167969 42.738281 C 36.179688 42.742188 36.191406 42.746094 36.203125 42.75 C 36.199219 42.734375 36.199219 42.726562 36.199219 42.714844 C 35.890625 39.175781 32.394531 31.386719 33.246094 28.761719 C 34.101562 26.136719 41.507812 21.890625 43.835938 19.210938 C 43.84375 19.199219 43.851562 19.195312 43.859375 19.183594 C 43.847656 19.179688 43.839844 19.179688 43.824219 19.175781 C 40.363281 18.375 31.875 19.292969 29.644531 17.671875 C 27.410156 16.046875 25.660156 7.695312 23.832031 4.648438 C 23.824219 4.636719 23.820312 4.628906 23.8125 4.621094 Z M 23.8125 4.621094 "/>
</g>
</svg>
