
<svg xmlns="http://www.w3.org/2000/svg" xmlns:xlink="http://www.w3.org/1999/xlink" width="48px" height="48px" viewBox="0 0 48 48" version="1.1">
<g id="surface1">
<path style=" stroke:none;fill-rule:nonzero;fill:rgb(25.882354%,64.705884%,96.078432%);fill-opacity:1;" d="M 7.9375 29.765625 C 7.9375 38.558594 15.019531 45.640625 23.8125 45.640625 C 32.605469 45.640625 39.6875 38.558594 39.6875 29.765625 C 39.6875 19.84375 29.765625 11.90625 23.8125 1.984375 C 17.859375 11.90625 8.191406 19.925781 7.9375 29.765625 Z M 7.9375 29.765625 "/>
<path style=" stroke:none;fill-rule:nonzero;fill:rgb(39.215687%,70.980394%,96.470588%);fill-opacity:1;" d="M 14.835938 22.820312 C 14.835938 29.417969 18.882812 34.726562 23.90625 34.726562 C 28.933594 34.726562 32.976562 29.417969 32.976562 22.820312 C 32.976562 15.378906 27.308594 9.425781 23.90625 1.984375 C 20.503906 9.425781 14.980469 15.441406 14.835938 22.820312 Z M 14.835938 22.820312 "/>
<path style=" stroke:none;fill-rule:nonzero;fill:rgb(56.470591%,79.215688%,97.647059%);fill-opacity:1;" d="M 16.625 17.808594 C 17.574219 18.359375 17.457031 20.339844 16.359375 22.238281 C 15.265625 24.136719 13.605469 25.230469 12.65625 24.683594 C 11.707031 24.136719 11.828125 22.152344 12.921875 20.253906 C 14.019531 18.355469 15.675781 17.261719 16.625 17.808594 Z M 16.625 17.808594 "/>
<path style=" stroke:none;fill-rule:nonzero;fill:rgb(56.470591%,79.215688%,97.647059%);fill-opacity:1;" d="M 19.996094 13.558594 C 20.460938 13.742188 20.402344 14.402344 19.863281 15.035156 C 19.328125 15.667969 18.515625 16.03125 18.050781 15.847656 C 17.585938 15.667969 17.644531 15.007812 18.179688 14.375 C 18.71875 13.742188 19.53125 13.378906 19.996094 13.558594 Z M 19.996094 13.558594 "/>
</g>
</svg>
