
<svg xmlns="http://www.w3.org/2000/svg" xmlns:xlink="http://www.w3.org/1999/xlink" width="48px" height="48px" viewBox="0 0 48 48" version="1.1">
<g id="surface1">
<path style=" stroke:none;fill-rule:nonzero;fill:rgb(89.803922%,45.09804%,45.09804%);fill-opacity:1;" d="M 33.300781 7.378906 C 42.375 12.621094 45.484375 24.222656 40.246094 33.300781 C 35.003906 42.375 23.402344 45.484375 14.324219 40.246094 C 5.25 35.003906 2.140625 23.402344 7.378906 14.324219 C 12.621094 5.25 24.222656 2.140625 33.300781 7.378906 Z M 33.300781 7.378906 "/>
<path style=" stroke:none;fill-rule:nonzero;fill:rgb(25.882354%,25.882354%,25.882354%);fill-opacity:1;" d="M 34.726562 4.910156 C 45.167969 10.9375 48.742188 24.285156 42.714844 34.726562 C 36.6875 45.167969 23.339844 48.742188 12.898438 42.714844 C 2.457031 36.6875 -1.117188 23.339844 4.910156 12.898438 C 10.9375 2.457031 24.285156 -1.117188 34.726562 4.910156 Z M 34.726562 4.910156 "/>
<path style=" stroke:none;fill-rule:nonzero;fill:rgb(93.333334%,93.333334%,93.333334%);fill-opacity:1;" d="M 28.917969 6.449219 C 28.488281 6.457031 28.042969 6.496094 27.511719 6.601562 C 26.546875 6.792969 25.539062 7.378906 24.6875 7.96875 C 21.796875 9.980469 21.035156 13.914062 22.976562 16.753906 C 24.601562 19.132812 27.636719 19.964844 30.289062 19.054688 C 30.847656 18.863281 31.070312 18.84375 31.503906 18.808594 C 32.0625 18.761719 32.964844 18.828125 33.769531 19.226562 C 34.425781 19.550781 34.988281 19.832031 35.351562 20.585938 C 35.445312 20.78125 35.613281 21.128906 35.648438 21.566406 C 35.703125 22.265625 35.566406 22.605469 35.101562 23.496094 C 35.839844 22.902344 36.191406 22.804688 37.285156 21.472656 C 39.460938 18.828125 39.574219 14.40625 37.203125 10.9375 C 35.449219 8.367188 32.757812 6.726562 30.21875 6.511719 C 29.757812 6.472656 29.34375 6.445312 28.917969 6.449219 Z M 13.15625 14.570312 C 10.308594 14.632812 7.335938 16.597656 5.859375 19.8125 C 4.605469 22.535156 4.542969 25.601562 5.570312 27.84375 C 5.945312 28.664062 6.25 29.292969 6.921875 30.085938 C 7.535156 30.808594 8.484375 31.378906 9.367188 31.8125 C 12.367188 33.28125 15.914062 32.027344 17.296875 29.015625 C 18.457031 26.5 17.699219 23.53125 15.710938 21.734375 C 15.289062 21.355469 15.167969 21.175781 14.933594 20.828125 C 14.628906 20.378906 14.261719 19.585938 14.203125 18.710938 C 14.152344 18.003906 14.113281 17.390625 14.550781 16.722656 C 14.664062 16.546875 14.871094 16.238281 15.210938 15.996094 C 15.75 15.613281 16.089844 15.5625 17.03125 15.527344 C 16.199219 15.191406 15.957031 14.941406 14.363281 14.660156 C 13.964844 14.589844 13.5625 14.5625 13.15625 14.570312 Z M 30.65625 27.554688 C 30.457031 27.554688 30.253906 27.554688 30.046875 27.574219 C 27.304688 27.796875 25.160156 29.921875 24.632812 32.550781 C 24.523438 33.105469 24.433594 33.296875 24.253906 33.675781 C 24.023438 34.160156 23.53125 34.878906 22.816406 35.355469 C 22.234375 35.75 21.730469 36.082031 20.933594 36.027344 C 20.726562 36.011719 20.363281 35.984375 19.984375 35.804688 C 19.378906 35.519531 19.164062 35.246094 18.65625 34.441406 C 18.792969 35.332031 18.699219 35.667969 19.269531 37.207031 C 20.40625 40.265625 24 42.460938 28 42.136719 C 30.96875 41.898438 33.617188 40.449219 35.011719 38.445312 C 35.523438 37.710938 35.902344 37.136719 36.242188 36.15625 C 36.546875 35.261719 36.550781 34.148438 36.472656 33.160156 C 36.21875 30.019531 33.675781 27.628906 30.65625 27.558594 Z M 30.65625 27.554688 "/>
</g>
</svg>
