
<svg xmlns="http://www.w3.org/2000/svg" xmlns:xlink="http://www.w3.org/1999/xlink" width="48px" height="48px" viewBox="0 0 48 48" version="1.1">
<g id="surface1">
<path style=" stroke:none;fill-rule:nonzero;fill:rgb(45.09804%,72.941178%,14.509805%);fill-opacity:1;" d="M 23.8125 4.960938 C 34.222656 4.960938 42.664062 13.402344 42.664062 23.8125 C 42.664062 34.222656 34.222656 42.664062 23.8125 42.664062 C 13.402344 42.664062 4.960938 34.222656 4.960938 23.8125 C 4.960938 13.402344 13.402344 4.960938 23.8125 4.960938 Z M 23.8125 4.960938 "/>
<path style=" stroke:none;fill-rule:nonzero;fill:rgb(96.078432%,96.078432%,96.078432%);fill-opacity:1;" d="M 23.859375 1.964844 C 16.457031 1.945312 9.257812 5.710938 5.152344 12.488281 C 5.117188 12.546875 5.078125 12.605469 5.042969 12.667969 C 5.035156 12.679688 5.027344 12.691406 5.019531 12.707031 C 4.984375 12.769531 4.945312 12.835938 4.910156 12.898438 C 4.867188 12.972656 4.824219 13.050781 4.78125 13.125 C 4.765625 13.148438 4.753906 13.175781 4.738281 13.199219 C 4.710938 13.25 4.679688 13.304688 4.652344 13.355469 C 4.636719 13.382812 4.621094 13.410156 4.609375 13.4375 C 4.578125 13.488281 4.550781 13.539062 4.527344 13.589844 C 4.511719 13.617188 4.496094 13.644531 4.484375 13.667969 C 4.453125 13.726562 4.425781 13.78125 4.394531 13.839844 C 4.386719 13.859375 4.375 13.882812 4.363281 13.902344 C 4.324219 13.980469 4.285156 14.054688 4.246094 14.132812 C 4.238281 14.148438 4.234375 14.160156 4.226562 14.175781 C 4.195312 14.238281 4.164062 14.300781 4.132812 14.363281 C 4.121094 14.390625 4.109375 14.417969 4.09375 14.445312 C 4.070312 14.496094 4.046875 14.550781 4.019531 14.601562 C 4.007812 14.628906 3.996094 14.65625 3.984375 14.679688 C 3.960938 14.734375 3.9375 14.785156 3.914062 14.835938 C 3.898438 14.867188 3.886719 14.894531 3.875 14.921875 C 3.847656 14.980469 3.824219 15.035156 3.796875 15.09375 C 3.789062 15.113281 3.78125 15.136719 3.769531 15.15625 C 3.738281 15.230469 3.703125 15.308594 3.671875 15.386719 C 3.664062 15.410156 3.652344 15.433594 3.640625 15.460938 C 3.617188 15.515625 3.597656 15.570312 3.574219 15.621094 C 3.5625 15.652344 3.550781 15.679688 3.539062 15.707031 C 3.519531 15.761719 3.5 15.8125 3.476562 15.863281 C 3.464844 15.894531 3.453125 15.921875 3.445312 15.953125 C 3.421875 16.003906 3.402344 16.054688 3.382812 16.105469 C 3.375 16.132812 3.363281 16.160156 3.351562 16.191406 C 3.328125 16.257812 3.300781 16.324219 3.277344 16.390625 C 3.273438 16.402344 3.269531 16.414062 3.265625 16.425781 C 3.265625 16.425781 3.265625 16.429688 3.265625 16.429688 C 3.234375 16.507812 3.207031 16.585938 3.179688 16.664062 C 3.171875 16.6875 3.164062 16.710938 3.15625 16.738281 C 3.136719 16.789062 3.117188 16.84375 3.101562 16.898438 C 3.089844 16.929688 3.078125 16.964844 3.066406 17 C 3.050781 17.046875 3.035156 17.09375 3.019531 17.140625 C 3.011719 17.171875 3 17.203125 2.992188 17.234375 C 2.972656 17.289062 2.953125 17.347656 2.9375 17.402344 C 2.929688 17.425781 2.921875 17.449219 2.914062 17.472656 C 2.890625 17.550781 2.867188 17.628906 2.84375 17.707031 C 2.84375 17.710938 2.84375 17.710938 2.84375 17.710938 C 2.839844 17.726562 2.835938 17.742188 2.832031 17.757812 C 2.8125 17.820312 2.792969 17.886719 2.777344 17.949219 C 2.765625 17.980469 2.757812 18.007812 2.75 18.035156 C 2.738281 18.089844 2.722656 18.140625 2.707031 18.195312 C 2.699219 18.226562 2.691406 18.257812 2.683594 18.289062 C 2.671875 18.335938 2.660156 18.382812 2.644531 18.433594 C 2.636719 18.464844 2.628906 18.5 2.621094 18.535156 C 2.605469 18.585938 2.59375 18.636719 2.582031 18.691406 C 2.574219 18.71875 2.566406 18.746094 2.5625 18.773438 C 2.542969 18.851562 2.523438 18.929688 2.507812 19.007812 C 2.5 19.035156 2.496094 19.0625 2.488281 19.085938 C 2.476562 19.140625 2.464844 19.195312 2.453125 19.246094 C 2.445312 19.28125 2.4375 19.316406 2.429688 19.351562 C 2.421875 19.398438 2.410156 19.445312 2.402344 19.488281 C 2.394531 19.523438 2.386719 19.558594 2.382812 19.597656 C 2.371094 19.644531 2.363281 19.691406 2.355469 19.738281 C 2.347656 19.773438 2.339844 19.808594 2.332031 19.84375 C 2.324219 19.894531 2.316406 19.945312 2.304688 20 C 2.300781 20.027344 2.296875 20.054688 2.289062 20.082031 C 2.277344 20.160156 2.261719 20.238281 2.25 20.316406 C 2.246094 20.347656 2.242188 20.375 2.238281 20.402344 C 2.230469 20.453125 2.222656 20.503906 2.214844 20.554688 C 2.207031 20.589844 2.203125 20.628906 2.195312 20.664062 C 2.191406 20.707031 2.183594 20.753906 2.175781 20.800781 C 2.171875 20.835938 2.167969 20.875 2.160156 20.910156 C 2.15625 20.953125 2.148438 21 2.144531 21.042969 C 2.140625 21.082031 2.136719 21.117188 2.128906 21.152344 C 2.121094 21.222656 2.113281 21.289062 2.105469 21.359375 C 2.105469 21.367188 2.105469 21.378906 2.101562 21.386719 C 2.101562 21.402344 2.097656 21.417969 2.097656 21.429688 C 2.089844 21.496094 2.082031 21.5625 2.078125 21.625 C 2.074219 21.660156 2.070312 21.691406 2.066406 21.726562 C 2.0625 21.773438 2.058594 21.820312 2.054688 21.871094 C 2.050781 21.90625 2.046875 21.941406 2.042969 21.976562 C 2.039062 22.023438 2.035156 22.070312 2.03125 22.113281 C 2.03125 22.148438 2.027344 22.183594 2.023438 22.222656 C 2.019531 22.269531 2.019531 22.320312 2.015625 22.371094 C 2.011719 22.402344 2.011719 22.433594 2.007812 22.464844 C 2.003906 22.539062 2 22.617188 1.996094 22.695312 C 1.992188 22.726562 1.992188 22.757812 1.992188 22.789062 C 1.988281 22.839844 1.984375 22.890625 1.984375 22.9375 C 1.980469 22.976562 1.980469 23.011719 1.980469 23.046875 C 1.976562 23.09375 1.976562 23.136719 1.976562 23.179688 C 1.972656 23.21875 1.972656 23.257812 1.972656 23.292969 C 1.972656 23.339844 1.96875 23.382812 1.96875 23.425781 C 1.96875 23.464844 1.96875 23.5 1.96875 23.539062 C 1.96875 23.582031 1.964844 23.628906 1.964844 23.675781 C 1.964844 23.710938 1.964844 23.746094 1.964844 23.78125 C 1.964844 23.855469 1.964844 23.929688 1.964844 24.003906 C 1.964844 24.046875 1.96875 24.085938 1.96875 24.128906 C 1.96875 24.167969 1.96875 24.203125 1.96875 24.242188 C 1.96875 24.285156 1.972656 24.328125 1.972656 24.371094 C 1.972656 24.410156 1.972656 24.445312 1.976562 24.480469 C 1.976562 24.527344 1.976562 24.570312 1.980469 24.617188 C 1.980469 24.648438 1.984375 24.683594 1.984375 24.71875 C 1.984375 24.761719 1.988281 24.808594 1.988281 24.855469 C 1.992188 24.886719 1.992188 24.917969 1.996094 24.949219 C 2 25.039062 2.003906 25.128906 2.011719 25.21875 C 2.011719 25.25 2.015625 25.277344 2.015625 25.308594 C 2.019531 25.351562 2.023438 25.394531 2.027344 25.441406 C 2.027344 25.476562 2.03125 25.511719 2.035156 25.546875 C 2.039062 25.59375 2.042969 25.640625 2.046875 25.683594 C 2.046875 25.714844 2.050781 25.746094 2.054688 25.777344 C 2.058594 25.824219 2.0625 25.871094 2.066406 25.921875 C 2.070312 25.949219 2.074219 25.980469 2.074219 26.011719 C 2.082031 26.0625 2.085938 26.109375 2.089844 26.160156 C 2.09375 26.167969 2.09375 26.179688 2.09375 26.1875 C 2.105469 26.296875 2.121094 26.410156 2.132812 26.519531 C 2.136719 26.546875 2.140625 26.574219 2.144531 26.601562 C 2.148438 26.652344 2.15625 26.703125 2.164062 26.75 C 2.167969 26.777344 2.171875 26.804688 2.175781 26.832031 C 2.183594 26.886719 2.1875 26.9375 2.195312 26.988281 C 2.199219 27.011719 2.203125 27.035156 2.207031 27.058594 C 2.214844 27.113281 2.222656 27.167969 2.230469 27.21875 C 2.234375 27.238281 2.238281 27.257812 2.242188 27.277344 C 2.269531 27.460938 2.300781 27.640625 2.335938 27.820312 C 2.339844 27.84375 2.34375 27.863281 2.347656 27.882812 C 2.359375 27.9375 2.367188 27.988281 2.378906 28.042969 C 2.382812 28.066406 2.386719 28.089844 2.390625 28.109375 C 2.402344 28.164062 2.414062 28.214844 2.425781 28.269531 C 2.429688 28.292969 2.433594 28.316406 2.4375 28.335938 C 2.449219 28.390625 2.460938 28.445312 2.472656 28.5 C 2.476562 28.511719 2.480469 28.527344 2.484375 28.539062 C 2.523438 28.726562 2.570312 28.917969 2.617188 29.105469 C 2.617188 29.117188 2.621094 29.132812 2.625 29.144531 C 2.640625 29.203125 2.652344 29.257812 2.667969 29.3125 C 2.675781 29.332031 2.679688 29.351562 2.683594 29.375 C 2.699219 29.425781 2.714844 29.480469 2.726562 29.535156 C 2.730469 29.550781 2.738281 29.570312 2.742188 29.589844 C 2.8125 29.84375 2.886719 30.097656 2.964844 30.351562 C 2.972656 30.367188 2.976562 30.378906 2.980469 30.394531 C 2.996094 30.453125 3.015625 30.507812 3.035156 30.566406 C 3.039062 30.578125 3.042969 30.59375 3.050781 30.609375 C 3.070312 30.667969 3.085938 30.726562 3.109375 30.785156 C 3.109375 30.792969 3.113281 30.800781 3.113281 30.804688 C 3.183594 31.003906 3.25 31.203125 3.324219 31.402344 C 3.347656 31.464844 3.371094 31.523438 3.394531 31.585938 C 3.398438 31.597656 3.402344 31.605469 3.40625 31.613281 C 3.429688 31.675781 3.453125 31.734375 3.476562 31.796875 C 3.480469 31.804688 3.480469 31.808594 3.484375 31.816406 C 3.507812 31.878906 3.535156 31.941406 3.558594 32.003906 C 3.640625 32.203125 3.722656 32.402344 3.808594 32.601562 C 3.8125 32.601562 3.8125 32.601562 3.8125 32.601562 C 3.839844 32.664062 3.867188 32.726562 3.894531 32.789062 C 3.898438 32.796875 3.898438 32.800781 3.902344 32.808594 C 3.929688 32.871094 3.960938 32.933594 3.988281 32.996094 C 4.109375 33.257812 4.238281 33.519531 4.367188 33.773438 C 4.367188 33.773438 4.367188 33.773438 4.371094 33.777344 C 4.402344 33.839844 4.433594 33.902344 4.464844 33.964844 C 4.46875 33.964844 4.46875 33.96875 4.472656 33.972656 C 4.503906 34.035156 4.539062 34.097656 4.570312 34.160156 C 4.707031 34.410156 4.84375 34.65625 4.988281 34.902344 C 4.992188 34.910156 5 34.917969 5.003906 34.921875 C 5.039062 34.980469 5.074219 35.042969 5.109375 35.101562 C 5.109375 35.101562 5.109375 35.105469 5.109375 35.105469 C 5.296875 35.414062 5.492188 35.71875 5.695312 36.019531 C 5.738281 36.082031 5.777344 36.140625 5.820312 36.199219 C 6.023438 36.5 6.238281 36.792969 6.457031 37.078125 C 6.460938 37.082031 6.464844 37.085938 6.46875 37.089844 C 6.6875 37.378906 6.917969 37.664062 7.15625 37.941406 C 7.203125 37.996094 7.25 38.050781 7.296875 38.105469 C 7.296875 38.109375 7.300781 38.109375 7.300781 38.109375 C 7.539062 38.386719 7.789062 38.660156 8.042969 38.925781 C 8.046875 38.925781 8.046875 38.925781 8.046875 38.925781 C 9.441406 40.375 11.0625 41.65625 12.898438 42.714844 C 23.371094 48.761719 36.667969 45.199219 42.714844 34.726562 C 48.761719 24.253906 45.199219 10.957031 34.726562 4.910156 C 31.289062 2.925781 27.550781 1.976562 23.859375 1.964844 Z M 23.8125 4.960938 C 34.257812 4.960938 42.664062 13.367188 42.664062 23.8125 C 42.664062 34.257812 34.257812 42.664062 23.8125 42.664062 C 18.15625 42.664062 13.101562 40.199219 9.652344 36.28125 C 11.003906 35.539062 13.074219 35.773438 15.574219 36.054688 C 16.886719 36.207031 18.378906 36.378906 19.925781 36.414062 C 24.246094 36.441406 28.894531 35.644531 31.761719 34.390625 C 33.617188 33.585938 34.800781 33.046875 35.542969 32.375 C 35.808594 32.152344 35.945312 31.792969 36.089844 31.40625 L 36.191406 31.152344 C 36.3125 30.839844 36.488281 30.179688 36.566406 29.820312 C 36.597656 29.660156 36.613281 29.492188 36.5 29.402344 L 36.105469 29.476562 C 34.847656 30.234375 31.699219 31.667969 28.757812 31.730469 C 25.105469 31.804688 17.753906 28.058594 16.984375 27.660156 L 16.910156 27.574219 C 16.730469 27.132812 15.628906 24.523438 15.390625 23.972656 C 20.6875 27.460938 25.078125 29.386719 28.4375 29.683594 C 32.179688 30.019531 35.097656 27.976562 36.34375 27.101562 C 36.589844 26.941406 36.773438 26.804688 36.847656 26.773438 L 36.929688 26.648438 C 36.722656 25.335938 34.765625 18.972656 33.285156 17.445312 C 32.878906 17.027344 32.550781 16.617188 31.890625 16.230469 C 26.539062 13.113281 13.847656 11.230469 13.25 11.144531 L 13.148438 11.171875 L 13.113281 11.261719 C 13.113281 11.261719 13.0625 13.894531 13.054688 14.1875 C 12.558594 14.019531 10.863281 13.46875 8.464844 12.835938 C 11.878906 8.0625 17.46875 4.960938 23.8125 4.960938 Z M 27.308594 16.515625 C 27.355469 16.515625 27.398438 16.515625 27.445312 16.515625 C 30.4375 16.625 32.789062 19.152344 32.6875 22.140625 C 32.628906 23.589844 32.023438 24.9375 30.964844 25.917969 C 29.902344 26.914062 28.523438 27.429688 27.066406 27.378906 C 24.078125 27.269531 21.726562 24.75 21.828125 21.757812 C 21.882812 20.308594 22.488281 18.960938 23.550781 17.972656 C 24.578125 17.015625 25.90625 16.503906 27.308594 16.515625 Z M 27.210938 18.113281 C 26.265625 18.125 25.375 18.480469 24.6875 19.128906 C 23.949219 19.820312 23.515625 20.753906 23.488281 21.765625 C 23.414062 23.855469 25.054688 25.617188 27.140625 25.691406 C 28.152344 25.722656 29.121094 25.363281 29.859375 24.675781 C 30.601562 23.980469 31.023438 23.046875 31.058594 22.039062 C 31.128906 19.949219 29.492188 18.191406 27.398438 18.117188 C 27.367188 18.117188 27.335938 18.117188 27.304688 18.113281 C 27.273438 18.113281 27.242188 18.113281 27.210938 18.113281 Z M 28.019531 20.019531 C 28.949219 20.019531 29.699219 20.519531 29.699219 21.140625 C 29.699219 21.757812 28.949219 22.257812 28.019531 22.257812 C 27.089844 22.257812 26.339844 21.757812 26.339844 21.140625 C 26.339844 20.519531 27.089844 20.019531 28.019531 20.019531 Z M 28.019531 20.019531 "/>
<path style=" stroke:none;fill-rule:nonzero;fill:rgb(45.09804%,72.941178%,14.509805%);fill-opacity:1;" d="M 23.8125 1.984375 C 11.71875 1.984375 1.984375 11.71875 1.984375 23.8125 C 1.984375 35.90625 11.71875 45.640625 23.8125 45.640625 C 35.90625 45.640625 45.640625 35.90625 45.640625 23.8125 C 45.640625 11.71875 35.90625 1.984375 23.8125 1.984375 Z M 23.8125 2.976562 C 35.355469 2.976562 44.648438 12.269531 44.648438 23.8125 C 44.648438 35.355469 35.355469 44.648438 23.8125 44.648438 C 12.269531 44.648438 2.976562 35.355469 2.976562 23.8125 C 2.976562 12.269531 12.269531 2.976562 23.8125 2.976562 Z M 23.8125 2.976562 "/>
</g>
</svg>
