
<svg xmlns="http://www.w3.org/2000/svg" xmlns:xlink="http://www.w3.org/1999/xlink" width="48px" height="48px" viewBox="0 0 48 48" version="1.1">
<g id="surface1">
<path style=" stroke:none;fill-rule:nonzero;fill:rgb(25.882354%,64.705884%,96.078432%);fill-opacity:1;" d="M 34.726562 4.910156 C 45.167969 10.9375 48.742188 24.285156 42.714844 34.726562 C 36.6875 45.167969 23.339844 48.742188 12.898438 42.714844 C 2.457031 36.6875 -1.117188 23.339844 4.910156 12.898438 C 10.9375 2.457031 24.285156 -1.117188 34.726562 4.910156 Z M 34.726562 4.910156 "/>
<path style=" stroke:none;fill-rule:evenodd;fill:rgb(96.078432%,96.078432%,96.078432%);fill-opacity:1;" d="M 17.246094 41.503906 C 16.070312 41.070312 14.972656 40.523438 13.9375 39.898438 C 19.082031 40.296875 25.792969 39.109375 30.320312 34.871094 C 30.320312 34.871094 38.949219 27.976562 32.707031 16.660156 C 32.707031 16.660156 33.714844 21.222656 32.429688 24.972656 C 32.429688 24.972656 31.207031 30.25 25.765625 31.730469 C 17.757812 33.914062 8.628906 28.132812 4.8125 25.414062 C 4.523438 22.625 4.777344 19.738281 5.804688 16.921875 C 7.320312 12.75 10.433594 9.496094 13.917969 7.3125 C 13.046875 13.40625 13.734375 19.015625 14.722656 21.367188 C 16.054688 24.519531 18.101562 28.367188 22.605469 28.839844 C 27.109375 29.3125 29.59375 24.921875 29.59375 24.921875 C 31.90625 21.410156 32.265625 16.367188 32.230469 16.246094 C 32.195312 16.125 31.617188 15.789062 31.617188 15.789062 C 30.058594 22.082031 27.496094 24.1875 27.496094 24.1875 C 23.453125 28.089844 20.242188 25.296875 20.242188 25.296875 C 17.164062 21.988281 19.316406 16.617188 19.316406 16.617188 C 20.523438 12.957031 24.382812 7.683594 28.367188 4.960938 C 29.027344 5.125 29.695312 5.226562 30.351562 5.464844 C 32.761719 6.34375 34.871094 7.667969 36.65625 9.292969 C 33.742188 10.359375 29.042969 12.605469 29.042969 12.605469 C 21.59375 15.742188 21.089844 20.488281 21.089844 20.488281 C 20.320312 25.378906 24.199219 23.308594 24.199219 23.308594 C 28.195312 21.363281 30.15625 15.300781 30.15625 15.300781 C 28.910156 15.0625 27.929688 15.441406 27.929688 15.441406 C 26.335938 19.375 23.082031 20.996094 23.082031 20.996094 C 21.800781 21.671875 21.503906 20.476562 21.503906 20.476562 C 21.289062 19.578125 22.429688 19.425781 22.429688 19.425781 C 24.203125 18.738281 25.335938 16.875 25.59375 16.113281 C 25.847656 15.351562 26.324219 15.289062 26.324219 15.289062 C 30.757812 12.402344 37.703125 14.386719 41.511719 16.214844 C 43.203125 20.441406 43.46875 25.429688 41.792969 30.042969 C 38.179688 39.992188 27.1875 45.125 17.246094 41.503906 Z M 17.246094 41.503906 "/>
</g>
</svg>
