
<svg xmlns="http://www.w3.org/2000/svg" xmlns:xlink="http://www.w3.org/1999/xlink" width="48px" height="48px" viewBox="0 0 48 48" version="1.1">
<g id="surface1">
<path style=" stroke:none;fill-rule:nonzero;fill:rgb(61.960787%,61.960787%,61.960787%);fill-opacity:1;" d="M 23.8125 1.984375 C 35.867188 1.984375 45.640625 11.757812 45.640625 23.8125 C 45.640625 35.867188 35.867188 45.640625 23.8125 45.640625 C 11.757812 45.640625 1.984375 35.867188 1.984375 23.8125 C 1.984375 11.757812 11.757812 1.984375 23.8125 1.984375 Z M 23.8125 1.984375 "/>
<path style=" stroke:none;fill-rule:nonzero;fill:rgb(87.843138%,87.843138%,87.843138%);fill-opacity:1;" d="M 23.8125 7.9375 C 20.515625 7.9375 17.859375 10.59375 17.859375 13.890625 C 17.859375 17.859375 21.828125 20.835938 23.8125 22.820312 C 25.796875 20.835938 29.765625 17.859375 29.765625 13.890625 C 29.765625 10.59375 27.109375 7.9375 23.8125 7.9375 Z M 23.8125 7.9375 "/>
<path style=" stroke:none;fill-rule:nonzero;fill:rgb(87.843138%,87.843138%,87.843138%);fill-opacity:1;" d="M 10.0625 31.75 C 8.414062 28.894531 9.386719 25.265625 12.242188 23.617188 C 15.679688 21.632812 20.242188 23.582031 22.953125 24.308594 C 22.226562 27.019531 21.632812 31.945312 18.195312 33.929688 C 15.339844 35.578125 11.714844 34.605469 10.0625 31.75 Z M 10.0625 31.75 "/>
<path style=" stroke:none;fill-rule:nonzero;fill:rgb(87.843138%,87.843138%,87.843138%);fill-opacity:1;" d="M 37.5625 31.75 C 39.210938 28.894531 38.238281 25.265625 35.382812 23.617188 C 31.945312 21.632812 27.382812 23.582031 24.671875 24.308594 C 25.398438 27.019531 25.992188 31.945312 29.429688 33.929688 C 32.285156 35.578125 35.910156 34.605469 37.5625 31.75 Z M 37.5625 31.75 "/>
<path style=" stroke:none;fill-rule:nonzero;fill:rgb(93.725491%,32.549021%,31.37255%);fill-opacity:1;" d="M 37.953125 30.359375 C 37.566406 30.359375 37.257812 30.671875 37.257812 31.054688 L 37.257812 32.097656 C 37.257812 32.480469 37.566406 32.792969 37.953125 32.792969 L 37.953125 31.402344 C 37.953125 31.210938 38.105469 31.054688 38.296875 31.054688 L 39.6875 31.054688 C 39.878906 31.054688 40.035156 31.210938 40.035156 31.402344 L 40.035156 32.792969 C 40.417969 32.792969 40.730469 32.480469 40.730469 32.097656 L 40.730469 31.054688 C 40.730469 30.671875 40.417969 30.359375 40.035156 30.359375 Z M 37.953125 30.359375 "/>
<path style=" stroke:none;fill-rule:nonzero;fill:rgb(93.725491%,32.549021%,31.37255%);fill-opacity:1;" d="M 33.785156 31.75 L 44.203125 31.75 C 44.585938 31.75 44.898438 32.0625 44.898438 32.445312 L 44.898438 44.945312 C 44.898438 45.328125 44.585938 45.640625 44.203125 45.640625 L 33.785156 45.640625 C 33.402344 45.640625 33.089844 45.328125 33.089844 44.945312 L 33.089844 32.445312 C 33.089844 32.0625 33.402344 31.75 33.785156 31.75 Z M 33.785156 31.75 "/>
<path style=" stroke:none;fill-rule:nonzero;fill:rgb(89.803922%,45.09804%,45.09804%);fill-opacity:1;" d="M 33.089844 31.75 C 32.703125 31.75 32.394531 32.058594 32.394531 32.445312 L 32.394531 34.179688 L 45.589844 34.179688 L 45.589844 32.445312 C 45.589844 32.058594 45.28125 31.75 44.894531 31.75 Z M 33.089844 31.75 "/>
<path style=" stroke:none;fill-rule:nonzero;fill:rgb(0%,0%,0%);fill-opacity:0.196078;" d="M 36.214844 34.875 C 36.597656 34.875 36.910156 35.1875 36.910156 35.570312 L 36.910156 43.210938 C 36.910156 43.59375 36.597656 43.90625 36.214844 43.90625 C 35.832031 43.90625 35.519531 43.59375 35.519531 43.210938 L 35.519531 35.570312 C 35.519531 35.1875 35.832031 34.875 36.214844 34.875 Z M 36.214844 34.875 "/>
<path style=" stroke:none;fill-rule:nonzero;fill:rgb(0%,0%,0%);fill-opacity:0.196078;" d="M 38.980469 34.875 L 39.003906 34.875 C 39.382812 34.875 39.6875 35.1875 39.6875 35.570312 L 39.6875 43.210938 C 39.6875 43.59375 39.382812 43.90625 39.003906 43.90625 L 38.980469 43.90625 C 38.605469 43.90625 38.296875 43.59375 38.296875 43.210938 L 38.296875 35.570312 C 38.296875 35.1875 38.605469 34.875 38.980469 34.875 Z M 38.980469 34.875 "/>
<path style=" stroke:none;fill-rule:nonzero;fill:rgb(0%,0%,0%);fill-opacity:0.196078;" d="M 41.769531 34.875 C 42.15625 34.875 42.464844 35.1875 42.464844 35.570312 L 42.464844 43.210938 C 42.464844 43.59375 42.15625 43.90625 41.769531 43.90625 C 41.386719 43.90625 41.078125 43.59375 41.078125 43.210938 L 41.078125 35.570312 C 41.078125 35.1875 41.386719 34.875 41.769531 34.875 Z M 41.769531 34.875 "/>
</g>
</svg>
