<?xml version="1.0" encoding="UTF-8"?>
<svg xmlns="http://www.w3.org/2000/svg" xmlns:xlink="http://www.w3.org/1999/xlink" width="48px" height="48px" viewBox="0 0 48 48" version="1.1">
<g id="surface1">
<path style=" stroke:none;fill-rule:nonzero;fill:rgb(14.901961%,65.098041%,60.392159%);fill-opacity:1;" d="M 23.8125 2.359375 C 19.84375 2.359375 13.941406 8.3125 13.941406 14.265625 C 13.890625 17.242188 15.378906 18.730469 15.574219 21.71875 C 13.515625 21.871094 11.90625 23.578125 11.90625 25.675781 C 11.90625 27.53125 13.167969 29.082031 14.882812 29.519531 L 14.882812 36.113281 C 11.265625 33.402344 8.929688 29.085938 8.929688 24.1875 C 8.929688 20.390625 10.332031 16.949219 12.648438 14.324219 C 12.910156 14.035156 12.980469 13.617188 12.820312 13.261719 C 12.664062 12.902344 12.3125 12.667969 11.921875 12.664062 C 11.628906 12.664062 11.351562 12.789062 11.160156 13.011719 C 8.535156 15.984375 6.945312 19.902344 6.945312 24.1875 C 6.945312 30.441406 10.328125 35.902344 15.378906 38.808594 C 15.722656 39.015625 16.15625 38.992188 16.480469 38.75 C 16.800781 38.507812 16.945312 38.097656 16.84375 37.707031 C 16.859375 37.65625 16.867188 37.601562 16.867188 37.546875 L 16.867188 30.804688 C 17.433594 31.503906 18.101562 32.113281 18.851562 32.613281 L 18.851562 43.410156 C 10.273438 41.222656 3.96875 33.480469 3.96875 24.1875 C 3.96875 17.40625 7.324219 11.460938 12.46875 7.882812 C 12.824219 7.644531 12.984375 7.203125 12.871094 6.792969 C 12.753906 6.378906 12.390625 6.089844 11.960938 6.070312 C 11.738281 6.058594 11.519531 6.121094 11.335938 6.253906 C 5.675781 10.1875 1.984375 16.75 1.984375 24.1875 C 1.984375 34.84375 9.566406 43.691406 19.65625 45.625 C 20.339844 45.765625 20.949219 45.175781 20.835938 44.492188 L 20.835938 33.605469 C 21.765625 33.933594 22.769531 34.109375 23.8125 34.109375 C 24.855469 34.109375 25.859375 33.933594 26.789062 33.605469 L 26.789062 44.492188 C 26.675781 45.175781 27.285156 45.765625 27.96875 45.625 C 38.058594 43.691406 45.640625 34.84375 45.640625 24.1875 C 45.640625 16.75 41.949219 10.1875 36.289062 6.253906 C 36.125 6.136719 35.933594 6.070312 35.730469 6.066406 C 35.292969 6.058594 34.898438 6.339844 34.765625 6.757812 C 34.632812 7.179688 34.789062 7.636719 35.15625 7.882812 C 40.300781 11.460938 43.65625 17.40625 43.65625 24.1875 C 43.65625 33.480469 37.351562 41.222656 28.773438 43.410156 L 28.773438 32.613281 C 29.523438 32.113281 30.191406 31.503906 30.757812 30.804688 L 30.757812 37.5625 C 30.757812 37.617188 30.765625 37.667969 30.777344 37.714844 C 30.679688 38.101562 30.828125 38.511719 31.148438 38.75 C 31.46875 38.992188 31.902344 39.015625 32.246094 38.808594 C 37.296875 35.902344 40.679688 30.441406 40.679688 24.1875 C 40.679688 19.902344 39.089844 15.984375 36.464844 13.011719 C 36.269531 12.78125 35.976562 12.65625 35.675781 12.667969 C 35.289062 12.679688 34.945312 12.917969 34.796875 13.273438 C 34.648438 13.628906 34.71875 14.039062 34.976562 14.324219 C 37.292969 16.949219 38.695312 20.390625 38.695312 24.1875 C 38.695312 29.085938 36.359375 33.402344 32.742188 36.113281 L 32.742188 29.519531 C 34.457031 29.082031 35.71875 27.53125 35.71875 25.675781 C 35.71875 23.578125 34.109375 21.871094 32.050781 21.71875 C 32.246094 18.730469 33.734375 17.242188 33.734375 14.265625 C 33.734375 8.3125 27.78125 2.359375 23.8125 2.359375 Z M 23.8125 2.359375 "/>
<path style=" stroke:none;fill-rule:nonzero;fill:rgb(100%,65.490198%,14.901961%);fill-opacity:0.995763;" d="M 32.828125 23.484375 C 31.582031 22.238281 29.726562 22.070312 28.6875 23.109375 C 27.648438 24.148438 27.816406 26.003906 29.0625 27.25 C 30.3125 28.496094 32.164062 28.667969 33.203125 27.625 C 34.246094 26.585938 34.074219 24.734375 32.828125 23.484375 Z M 32.828125 23.484375 "/>
<path style=" stroke:none;fill-rule:nonzero;fill:rgb(25.882354%,25.882354%,25.882354%);fill-opacity:0.995763;" d="M 30.003906 24.425781 C 29.589844 24.011719 28.914062 24.011719 28.5 24.425781 C 28.082031 24.84375 28.082031 25.515625 28.5 25.933594 C 28.914062 26.347656 29.589844 26.347656 30.003906 25.933594 C 30.421875 25.515625 30.421875 24.84375 30.003906 24.425781 Z M 30.003906 24.425781 "/>
<path style=" stroke:none;fill-rule:nonzero;fill:rgb(100%,65.490198%,14.901961%);fill-opacity:0.995763;" d="M 14.785156 23.484375 C 16.03125 22.238281 17.886719 22.070312 18.925781 23.109375 C 19.964844 24.148438 19.796875 26.003906 18.550781 27.25 C 17.300781 28.496094 15.449219 28.667969 14.410156 27.625 C 13.371094 26.585938 13.539062 24.734375 14.785156 23.484375 Z M 14.785156 23.484375 "/>
<path style=" stroke:none;fill-rule:nonzero;fill:rgb(25.882354%,25.882354%,25.882354%);fill-opacity:0.995763;" d="M 17.609375 24.425781 C 18.023438 24.011719 18.699219 24.011719 19.113281 24.425781 C 19.53125 24.84375 19.53125 25.515625 19.113281 25.933594 C 18.699219 26.347656 18.023438 26.347656 17.609375 25.933594 C 17.191406 25.515625 17.191406 24.84375 17.609375 24.425781 Z M 17.609375 24.425781 "/>
<path style=" stroke:none;fill-rule:nonzero;fill:rgb(50.196081%,79.607844%,76.862746%);fill-opacity:1;" d="M 20.386719 6.148438 C 20.773438 6.535156 20.460938 7.476562 19.6875 8.253906 C 18.910156 9.027344 17.96875 9.339844 17.582031 8.953125 C 17.195312 8.566406 17.507812 7.625 18.28125 6.847656 C 19.058594 6.074219 20 5.761719 20.386719 6.148438 Z M 20.386719 6.148438 "/>
<path style=" stroke:none;fill-rule:nonzero;fill:rgb(50.196081%,79.607844%,76.862746%);fill-opacity:1;" d="M 17.042969 10.523438 C 17.496094 10.671875 17.605469 11.394531 17.289062 12.136719 C 16.972656 12.878906 16.351562 13.363281 15.902344 13.214844 C 15.453125 13.066406 15.34375 12.34375 15.660156 11.601562 C 15.972656 10.859375 16.59375 10.378906 17.042969 10.523438 Z M 17.042969 10.523438 "/>
</g>
</svg>
