<?xml version="1.0" encoding="UTF-8"?>
<svg xmlns="http://www.w3.org/2000/svg" xmlns:xlink="http://www.w3.org/1999/xlink" width="48px" height="48px" viewBox="0 0 48 48" version="1.1">
<g id="surface1">
<path style=" stroke:none;fill-rule:nonzero;fill:rgb(100%,43.921569%,26.274511%);fill-opacity:1;" d="M 23.8125 2.359375 C 14.742188 2.359375 7.441406 9.660156 7.441406 18.730469 L 7.441406 36.09375 L 40.183594 36.09375 L 40.183594 18.730469 C 40.183594 9.660156 32.882812 2.359375 23.8125 2.359375 Z M 23.8125 2.359375 "/>
<path style=" stroke:none;fill-rule:nonzero;fill:rgb(38.039216%,38.039216%,38.039216%);fill-opacity:1;" d="M 3.472656 32.125 L 44.152344 32.125 C 44.972656 32.125 45.640625 32.792969 45.640625 33.613281 L 45.640625 44.527344 C 45.640625 45.347656 44.972656 46.015625 44.152344 46.015625 L 3.472656 46.015625 C 2.652344 46.015625 1.984375 45.347656 1.984375 44.527344 L 1.984375 33.613281 C 1.984375 32.792969 2.652344 32.125 3.472656 32.125 Z M 3.472656 32.125 "/>
<path style=" stroke:none;fill-rule:nonzero;fill:rgb(100%,67.058825%,56.862748%);fill-opacity:1;" d="M 17 7.453125 C 17.617188 8.070312 17.035156 9.660156 15.695312 11 C 14.359375 12.339844 12.769531 12.921875 12.148438 12.300781 C 11.527344 11.679688 12.113281 10.089844 13.449219 8.753906 C 14.789062 7.414062 16.378906 6.832031 17 7.453125 Z M 17 7.453125 "/>
<path style=" stroke:none;fill-rule:nonzero;fill:rgb(90.196079%,29.019609%,9.803922%);fill-opacity:1;" d="M 18.324219 18.730469 C 16.070312 18.75 14.261719 20.566406 14.261719 22.824219 C 14.261719 25.089844 16.089844 26.914062 18.355469 26.914062 L 18.75 26.914062 C 18.183594 25.550781 17.859375 23.9375 17.859375 22.203125 C 17.859375 20.96875 18.023438 19.796875 18.324219 18.730469 Z M 29.300781 18.730469 C 29.601562 19.796875 29.765625 20.96875 29.765625 22.203125 C 29.765625 23.9375 29.441406 25.550781 28.875 26.914062 L 29.269531 26.914062 C 31.535156 26.914062 33.363281 25.089844 33.363281 22.824219 C 33.363281 20.566406 31.554688 18.75 29.300781 18.730469 Z M 29.300781 18.730469 "/>
<path style=" stroke:none;fill-rule:nonzero;fill:rgb(100%,93.333334%,34.509805%);fill-opacity:1;" d="M 20.835938 14.265625 L 26.789062 14.265625 C 27.335938 14.265625 27.78125 14.710938 27.78125 15.257812 L 27.78125 33.117188 C 27.78125 33.664062 27.335938 34.109375 26.789062 34.109375 L 20.835938 34.109375 C 20.289062 34.109375 19.84375 33.664062 19.84375 33.117188 L 19.84375 15.257812 C 19.84375 14.710938 20.289062 14.265625 20.835938 14.265625 Z M 20.835938 14.265625 "/>
<path style=" stroke:none;fill-rule:nonzero;fill:rgb(25.882354%,25.882354%,25.882354%);fill-opacity:1;" d="M 1.984375 37.085938 L 45.640625 37.085938 L 45.640625 42.046875 L 1.984375 42.046875 Z M 1.984375 37.085938 "/>
<path style=" stroke:none;fill-rule:nonzero;fill:rgb(100%,93.333334%,34.509805%);fill-opacity:1;" d="M 23.8125 38.078125 C 26.003906 38.078125 27.78125 39.855469 27.78125 42.046875 C 27.78125 44.238281 26.003906 46.015625 23.8125 46.015625 C 21.621094 46.015625 19.84375 44.238281 19.84375 42.046875 C 19.84375 39.855469 21.621094 38.078125 23.8125 38.078125 Z M 23.8125 38.078125 "/>
</g>
</svg>
