
<svg xmlns="http://www.w3.org/2000/svg" xmlns:xlink="http://www.w3.org/1999/xlink" width="48px" height="48px" viewBox="0 0 48 48" version="1.1">
<g id="surface1">
<path style=" stroke:none;fill-rule:nonzero;fill:rgb(87.843138%,87.843138%,87.843138%);fill-opacity:1;" d="M 23.8125 2.359375 C 11.71875 2.359375 1.984375 12.09375 1.984375 24.1875 C 1.984375 36.28125 11.71875 46.015625 23.8125 46.015625 C 35.90625 46.015625 45.640625 36.28125 45.640625 24.1875 C 45.640625 12.09375 35.90625 2.359375 23.8125 2.359375 Z M 23.8125 18.234375 C 27.109375 18.234375 29.765625 20.890625 29.765625 24.1875 C 29.765625 27.484375 27.109375 30.140625 23.8125 30.140625 C 20.515625 30.140625 17.859375 27.484375 17.859375 24.1875 C 17.859375 20.890625 20.515625 18.234375 23.8125 18.234375 Z M 23.8125 18.234375 "/>
<path style=" stroke:none;fill-rule:nonzero;fill:rgb(96.078432%,96.078432%,96.078432%);fill-opacity:1;" d="M 23.8125 3.351562 C 12.269531 3.351562 2.976562 12.644531 2.976562 24.1875 C 2.976562 35.730469 12.269531 45.023438 23.8125 45.023438 C 35.355469 45.023438 44.648438 35.730469 44.648438 24.1875 C 44.648438 12.644531 35.355469 3.351562 23.8125 3.351562 Z M 23.8125 18.234375 C 27.109375 18.234375 29.765625 20.890625 29.765625 24.1875 C 29.765625 27.484375 27.109375 30.140625 23.8125 30.140625 C 20.515625 30.140625 17.859375 27.484375 17.859375 24.1875 C 17.859375 20.890625 20.515625 18.234375 23.8125 18.234375 Z M 23.8125 18.234375 "/>
<path style=" stroke:none;fill-rule:nonzero;fill:rgb(40.000001%,73.333335%,41.568628%);fill-opacity:1;" d="M 23.8125 14.265625 C 18.316406 14.265625 13.890625 18.691406 13.890625 24.1875 C 13.890625 29.683594 18.316406 34.109375 23.8125 34.109375 C 29.308594 34.109375 33.734375 29.683594 33.734375 24.1875 C 33.734375 18.691406 29.308594 14.265625 23.8125 14.265625 Z M 23.8125 21.210938 C 25.460938 21.210938 26.789062 22.539062 26.789062 24.1875 C 26.789062 25.835938 25.460938 27.164062 23.8125 27.164062 C 22.164062 27.164062 20.835938 25.835938 20.835938 24.1875 C 20.835938 22.539062 22.164062 21.210938 23.8125 21.210938 Z M 23.8125 21.210938 "/>
<path style=" stroke:none;fill-rule:nonzero;fill:rgb(40.000001%,73.333335%,41.568628%);fill-opacity:1;" d="M 34.726562 24.1875 C 34.175781 24.1875 33.734375 24.628906 33.734375 25.179688 L 33.734375 36.09375 L 29.765625 36.09375 L 37.703125 46.015625 L 45.640625 36.09375 L 41.671875 36.09375 L 41.671875 25.179688 C 41.671875 24.628906 41.230469 24.1875 40.679688 24.1875 Z M 34.726562 24.1875 "/>
<path style="fill:none;stroke-width:0.12885;stroke-linecap:round;stroke-linejoin:round;stroke:rgb(96.078432%,96.078432%,96.078432%);stroke-opacity:1;stroke-miterlimit:4;" d="M 129 48.541667 C 121.291667 48.541667 113.5 49.333333 105.833333 50.958333 L 96.583333 85.458333 L 78.708333 95.75 L 44.208333 86.5 C 33.708333 98.25 25.916667 111.875 21.125 126.416667 L 46.416667 151.708333 L 46.416667 172.333333 L 21.166667 197.583333 C 23.583333 204.791667 26.708333 211.875 30.666667 218.708333 C 34.625 225.583333 39.166667 231.833333 44.25 237.541667 L 78.708333 228.291667 L 96.583333 238.583333 L 105.833333 273.166667 C 120.875 276.291667 136.541667 276.333333 151.916667 273.125 L 161.166667 238.583333 L 179.041667 228.291667 L 213.541667 237.541667 C 224.041667 225.833333 231.833333 212.208333 236.625 197.625 L 211.333333 172.333333 L 211.333333 151.708333 L 236.583333 126.458333 C 234.208333 119.25 231.041667 112.166667 227.083333 105.333333 C 223.125 98.5 218.583333 92.208333 213.541667 86.541667 L 179.041667 95.75 L 161.166667 85.458333 L 151.916667 50.916667 C 144.416667 49.333333 136.75 48.541667 129 48.541667 Z M 128.875 115.333333 C 154.75 115.333333 175.583333 136.166667 175.583333 162.041667 C 175.583333 187.916667 154.75 208.75 128.875 208.75 C 103 208.75 82.166667 187.916667 82.166667 162.041667 C 82.166667 136.166667 103 115.333333 128.875 115.333333 Z M 128.875 115.333333 " transform="matrix(0.09375,0,0,0.09375,0,20.15625)"/>
<path style=" stroke:none;fill-rule:nonzero;fill:rgb(38.039216%,38.039216%,38.039216%);fill-opacity:1;" d="M 12.09375 24.707031 C 11.371094 24.707031 10.640625 24.78125 9.921875 24.933594 L 9.054688 28.167969 L 7.378906 29.132812 L 4.144531 28.265625 C 3.160156 29.367188 2.429688 30.644531 1.980469 32.007812 L 4.351562 34.378906 L 4.351562 36.3125 L 1.984375 38.679688 C 2.210938 39.355469 2.503906 40.019531 2.875 40.660156 C 3.246094 41.304688 3.671875 41.890625 4.148438 42.425781 L 7.378906 41.558594 L 9.054688 42.523438 L 9.921875 45.765625 C 11.332031 46.058594 12.800781 46.0625 14.242188 45.761719 L 15.109375 42.523438 L 16.785156 41.558594 L 20.019531 42.425781 C 21.003906 41.328125 21.734375 40.050781 22.183594 38.683594 L 19.8125 36.3125 L 19.8125 34.378906 L 22.179688 32.011719 C 21.957031 31.335938 21.660156 30.671875 21.289062 30.03125 C 20.917969 29.390625 20.492188 28.800781 20.019531 28.269531 L 16.785156 29.132812 L 15.109375 28.167969 L 14.242188 24.929688 C 13.539062 24.78125 12.820312 24.707031 12.09375 24.707031 Z M 12.082031 30.96875 C 14.507812 30.96875 16.460938 32.921875 16.460938 35.347656 C 16.460938 37.773438 14.507812 39.726562 12.082031 39.726562 C 9.65625 39.726562 7.703125 37.773438 7.703125 35.347656 C 7.703125 32.921875 9.65625 30.96875 12.082031 30.96875 Z M 12.082031 30.96875 "/>
<path style=" stroke:none;fill-rule:nonzero;fill:rgb(45.882353%,45.882353%,45.882353%);fill-opacity:1;" d="M 12.082031 27.617188 C 7.800781 27.617188 4.351562 31.0625 4.351562 35.347656 C 4.351562 39.628906 7.800781 43.078125 12.082031 43.078125 C 16.367188 43.078125 19.8125 39.628906 19.8125 35.347656 C 19.8125 31.0625 16.367188 27.617188 12.082031 27.617188 Z M 12.082031 30.96875 C 14.507812 30.96875 16.460938 32.921875 16.460938 35.347656 C 16.460938 37.773438 14.507812 39.726562 12.082031 39.726562 C 9.65625 39.726562 7.703125 37.773438 7.703125 35.347656 C 7.703125 32.921875 9.65625 30.96875 12.082031 30.96875 Z M 12.082031 30.96875 "/>
<path style=" stroke:none;fill-rule:nonzero;fill:rgb(45.882353%,45.882353%,45.882353%);fill-opacity:1;" d="M 12.082031 30.96875 C 9.671875 30.96875 7.734375 32.90625 7.734375 35.316406 C 7.734375 37.726562 9.671875 39.664062 12.082031 39.664062 C 14.492188 39.664062 16.429688 37.726562 16.429688 35.316406 C 16.429688 32.90625 14.492188 30.96875 12.082031 30.96875 Z M 12.082031 31.453125 C 14.222656 31.453125 15.949219 33.175781 15.949219 35.316406 C 15.949219 37.457031 14.222656 39.183594 12.082031 39.183594 C 9.941406 39.183594 8.21875 37.457031 8.21875 35.316406 C 8.21875 33.175781 9.941406 31.453125 12.082031 31.453125 Z M 12.082031 31.453125 "/>
<path style=" stroke:none;fill-rule:nonzero;fill:rgb(74.117649%,74.117649%,74.117649%);fill-opacity:1;" d="M 12.082031 30.484375 C 9.40625 30.484375 7.25 32.640625 7.25 35.316406 C 7.25 37.992188 9.40625 40.148438 12.082031 40.148438 C 14.757812 40.148438 16.914062 37.992188 16.914062 35.316406 C 16.914062 32.640625 14.757812 30.484375 12.082031 30.484375 Z M 12.082031 30.96875 C 14.492188 30.96875 16.429688 32.90625 16.429688 35.316406 C 16.429688 37.726562 14.492188 39.664062 12.082031 39.664062 C 9.671875 39.664062 7.734375 37.726562 7.734375 35.316406 C 7.734375 32.90625 9.671875 30.96875 12.082031 30.96875 Z M 12.082031 30.96875 "/>
</g>
</svg>
