<?xml version="1.0" encoding="UTF-8"?>
<svg xmlns="http://www.w3.org/2000/svg" xmlns:xlink="http://www.w3.org/1999/xlink" width="48px" height="48px" viewBox="0 0 48 48" version="1.1">
<g id="surface1">
<path style=" stroke:none;fill-rule:nonzero;fill:rgb(100%,79.215688%,15.686275%);fill-opacity:1;" d="M 26.195312 2.484375 C 26.058594 2.464844 25.933594 2.5625 25.917969 2.699219 L 25.882812 2.941406 C 25.867188 3.078125 25.960938 3.203125 26.097656 3.222656 L 27.082031 3.351562 C 27.21875 3.371094 27.339844 3.277344 27.359375 3.140625 L 27.390625 2.894531 C 27.410156 2.757812 27.316406 2.632812 27.179688 2.613281 Z M 21.554688 2.480469 C 21.53125 2.476562 21.507812 2.476562 21.480469 2.480469 L 20.496094 2.605469 C 20.359375 2.625 20.265625 2.75 20.28125 2.886719 L 20.316406 3.132812 C 20.332031 3.265625 20.457031 3.363281 20.59375 3.34375 L 21.578125 3.214844 C 21.714844 3.199219 21.808594 3.074219 21.789062 2.9375 L 21.757812 2.691406 C 21.746094 2.582031 21.660156 2.496094 21.554688 2.480469 Z M 31.660156 3.820312 C 31.554688 3.8125 31.449219 3.871094 31.40625 3.972656 L 31.3125 4.203125 C 31.257812 4.332031 31.320312 4.476562 31.445312 4.527344 L 32.363281 4.910156 C 32.488281 4.960938 32.632812 4.902344 32.6875 4.773438 L 32.78125 4.546875 C 32.835938 4.417969 32.773438 4.273438 32.648438 4.222656 L 31.730469 3.839844 C 31.707031 3.832031 31.683594 3.824219 31.660156 3.820312 Z M 16.0625 3.804688 C 16.023438 3.800781 15.980469 3.804688 15.941406 3.820312 L 15.023438 4.199219 C 14.898438 4.253906 14.835938 4.398438 14.890625 4.523438 L 14.984375 4.753906 C 15.035156 4.878906 15.179688 4.941406 15.308594 4.886719 L 16.226562 4.507812 C 16.351562 4.457031 16.414062 4.3125 16.359375 4.1875 L 16.265625 3.957031 C 16.230469 3.867188 16.148438 3.8125 16.0625 3.804688 Z M 36.617188 6.535156 C 36.527344 6.519531 36.4375 6.554688 36.378906 6.628906 L 36.230469 6.824219 C 36.144531 6.933594 36.164062 7.089844 36.273438 7.171875 L 37.058594 7.777344 C 37.167969 7.863281 37.324219 7.839844 37.410156 7.734375 L 37.558594 7.535156 C 37.644531 7.425781 37.625 7.273438 37.515625 7.1875 L 36.726562 6.582031 C 36.695312 6.558594 36.65625 6.539062 36.617188 6.535156 Z M 11.121094 6.503906 C 11.058594 6.496094 10.992188 6.511719 10.9375 6.554688 L 10.152344 7.15625 C 10.042969 7.238281 10.019531 7.394531 10.105469 7.503906 L 10.253906 7.699219 C 10.339844 7.808594 10.492188 7.832031 10.601562 7.746094 L 11.390625 7.144531 C 11.5 7.058594 11.519531 6.90625 11.4375 6.796875 L 11.285156 6.597656 C 11.246094 6.542969 11.183594 6.511719 11.121094 6.503906 Z M 40.679688 10.429688 C 40.617188 10.421875 40.550781 10.4375 40.496094 10.480469 L 40.300781 10.628906 C 40.191406 10.714844 40.167969 10.867188 40.253906 10.976562 L 40.855469 11.765625 C 40.941406 11.875 41.09375 11.894531 41.203125 11.8125 L 41.402344 11.660156 C 41.511719 11.578125 41.53125 11.421875 41.445312 11.3125 L 40.84375 10.527344 C 40.800781 10.472656 40.742188 10.4375 40.679688 10.429688 Z M 7.050781 10.390625 C 6.960938 10.378906 6.871094 10.410156 6.8125 10.484375 L 6.207031 11.273438 C 6.125 11.382812 6.144531 11.535156 6.253906 11.621094 L 6.449219 11.769531 C 6.558594 11.855469 6.714844 11.835938 6.796875 11.726562 L 7.402344 10.941406 C 7.488281 10.832031 7.464844 10.675781 7.359375 10.589844 L 7.160156 10.441406 C 7.125 10.414062 7.089844 10.398438 7.050781 10.390625 Z M 43.597656 15.246094 C 43.558594 15.242188 43.515625 15.25 43.476562 15.265625 L 43.246094 15.359375 C 43.121094 15.410156 43.058594 15.554688 43.113281 15.683594 L 43.492188 16.601562 C 43.542969 16.726562 43.6875 16.789062 43.8125 16.734375 L 44.042969 16.640625 C 44.171875 16.589844 44.230469 16.445312 44.179688 16.316406 L 43.800781 15.398438 C 43.761719 15.3125 43.683594 15.257812 43.597656 15.246094 Z M 4.097656 15.199219 C 3.992188 15.191406 3.890625 15.25 3.847656 15.351562 L 3.464844 16.269531 C 3.414062 16.394531 3.472656 16.539062 3.597656 16.59375 L 3.828125 16.6875 C 3.957031 16.742188 4.101562 16.679688 4.152344 16.554688 L 4.535156 15.636719 C 4.585938 15.511719 4.527344 15.367188 4.398438 15.3125 L 4.171875 15.21875 C 4.148438 15.207031 4.121094 15.203125 4.097656 15.199219 Z M 45.191406 20.660156 C 45.164062 20.65625 45.140625 20.65625 45.113281 20.65625 L 44.867188 20.691406 C 44.734375 20.707031 44.636719 20.832031 44.65625 20.96875 L 44.785156 21.953125 C 44.800781 22.089844 44.925781 22.183594 45.0625 22.164062 L 45.308594 22.132812 C 45.445312 22.117188 45.539062 21.992188 45.519531 21.855469 L 45.394531 20.871094 C 45.378906 20.761719 45.292969 20.675781 45.191406 20.660156 Z M 2.519531 20.609375 C 2.382812 20.589844 2.257812 20.683594 2.238281 20.820312 L 2.109375 21.804688 C 2.089844 21.941406 2.1875 22.066406 2.324219 22.082031 L 2.566406 22.117188 C 2.703125 22.132812 2.828125 22.039062 2.847656 21.902344 L 2.976562 20.917969 C 2.996094 20.78125 2.902344 20.660156 2.765625 20.640625 Z M 45.058594 26.257812 C 44.921875 26.242188 44.796875 26.335938 44.777344 26.472656 L 44.648438 27.457031 C 44.628906 27.59375 44.722656 27.714844 44.859375 27.734375 L 45.105469 27.765625 C 45.242188 27.785156 45.367188 27.691406 45.386719 27.554688 L 45.515625 26.570312 C 45.535156 26.433594 45.4375 26.308594 45.300781 26.292969 Z M 2.636719 26.210938 C 2.613281 26.207031 2.589844 26.207031 2.5625 26.210938 L 2.316406 26.242188 C 2.179688 26.257812 2.085938 26.382812 2.105469 26.519531 L 2.230469 27.503906 C 2.25 27.640625 2.375 27.734375 2.511719 27.71875 L 2.757812 27.683594 C 2.890625 27.667969 2.988281 27.542969 2.96875 27.40625 L 2.839844 26.421875 C 2.828125 26.3125 2.742188 26.230469 2.636719 26.210938 Z M 43.722656 31.667969 C 43.617188 31.660156 43.515625 31.71875 43.472656 31.820312 L 43.089844 32.738281 C 43.039062 32.863281 43.097656 33.007812 43.226562 33.0625 L 43.453125 33.15625 C 43.582031 33.210938 43.726562 33.148438 43.777344 33.023438 L 44.160156 32.105469 C 44.210938 31.980469 44.152344 31.835938 44.027344 31.78125 L 43.796875 31.6875 C 43.773438 31.675781 43.75 31.671875 43.722656 31.667969 Z M 3.929688 31.621094 C 3.890625 31.617188 3.851562 31.625 3.8125 31.640625 L 3.582031 31.734375 C 3.453125 31.785156 3.394531 31.929688 3.445312 32.058594 L 3.824219 32.976562 C 3.878906 33.101562 4.023438 33.164062 4.148438 33.109375 L 4.378906 33.015625 C 4.503906 32.964844 4.566406 32.820312 4.511719 32.691406 L 4.132812 31.773438 C 4.097656 31.6875 4.019531 31.632812 3.929688 31.621094 Z M 41.0625 36.554688 C 40.976562 36.542969 40.882812 36.574219 40.828125 36.648438 L 40.222656 37.433594 C 40.136719 37.542969 40.160156 37.699219 40.265625 37.785156 L 40.464844 37.933594 C 40.574219 38.019531 40.726562 37.996094 40.8125 37.890625 L 41.417969 37.101562 C 41.5 36.992188 41.480469 36.839844 41.371094 36.753906 L 41.175781 36.605469 C 41.140625 36.578125 41.101562 36.5625 41.0625 36.554688 Z M 6.605469 36.515625 C 6.542969 36.503906 6.476562 36.519531 6.421875 36.5625 L 6.222656 36.714844 C 6.113281 36.796875 6.09375 36.953125 6.179688 37.0625 L 6.78125 37.847656 C 6.863281 37.957031 7.019531 37.980469 7.128906 37.894531 L 7.324219 37.746094 C 7.433594 37.660156 7.457031 37.507812 7.371094 37.398438 L 6.769531 36.609375 C 6.726562 36.554688 6.667969 36.523438 6.605469 36.515625 Z M 37.207031 40.578125 C 37.140625 40.570312 37.078125 40.585938 37.023438 40.628906 L 36.234375 41.230469 C 36.125 41.316406 36.105469 41.46875 36.1875 41.578125 L 36.339844 41.777344 C 36.421875 41.886719 36.578125 41.90625 36.6875 41.820312 L 37.472656 41.21875 C 37.582031 41.136719 37.605469 40.980469 37.519531 40.871094 L 37.371094 40.675781 C 37.328125 40.621094 37.269531 40.585938 37.207031 40.578125 Z M 10.453125 40.546875 C 10.367188 40.535156 10.273438 40.566406 10.214844 40.640625 L 10.066406 40.839844 C 9.980469 40.949219 10 41.101562 10.109375 41.1875 L 10.898438 41.792969 C 11.007812 41.875 11.160156 41.855469 11.246094 41.746094 L 11.394531 41.550781 C 11.480469 41.441406 11.460938 41.285156 11.351562 41.203125 L 10.566406 40.597656 C 10.53125 40.570312 10.492188 40.554688 10.453125 40.546875 Z M 32.4375 43.46875 C 32.398438 43.464844 32.355469 43.46875 32.316406 43.488281 L 31.398438 43.867188 C 31.273438 43.917969 31.210938 44.0625 31.265625 44.1875 L 31.359375 44.417969 C 31.410156 44.546875 31.554688 44.605469 31.683594 44.554688 L 32.601562 44.175781 C 32.726562 44.121094 32.789062 43.976562 32.734375 43.851562 L 32.640625 43.621094 C 32.605469 43.535156 32.523438 43.476562 32.4375 43.46875 Z M 15.191406 43.449219 C 15.085938 43.4375 14.980469 43.496094 14.9375 43.601562 L 14.84375 43.828125 C 14.789062 43.957031 14.851562 44.101562 14.976562 44.152344 L 15.894531 44.535156 C 16.019531 44.585938 16.164062 44.527344 16.21875 44.402344 L 16.3125 44.171875 C 16.367188 44.042969 16.304688 43.898438 16.179688 43.847656 L 15.261719 43.464844 C 15.238281 43.457031 15.214844 43.449219 15.191406 43.449219 Z M 27.105469 45.03125 C 27.082031 45.027344 27.058594 45.027344 27.03125 45.03125 L 26.046875 45.160156 C 25.910156 45.175781 25.816406 45.300781 25.835938 45.4375 L 25.867188 45.683594 C 25.882812 45.820312 26.007812 45.914062 26.144531 45.894531 L 27.128906 45.769531 C 27.265625 45.75 27.359375 45.625 27.34375 45.488281 L 27.308594 45.242188 C 27.296875 45.132812 27.210938 45.050781 27.105469 45.03125 Z M 20.542969 45.023438 C 20.40625 45.003906 20.285156 45.097656 20.265625 45.234375 L 20.234375 45.480469 C 20.214844 45.617188 20.308594 45.742188 20.445312 45.761719 L 21.429688 45.890625 C 21.566406 45.910156 21.691406 45.8125 21.707031 45.675781 L 21.742188 45.433594 C 21.757812 45.296875 21.664062 45.171875 21.527344 45.152344 Z M 20.542969 45.023438 "/>
<path style=" stroke:none;fill-rule:nonzero;fill:rgb(100%,79.215688%,15.686275%);fill-opacity:1;" d="M 23.316406 2.359375 C 23.179688 2.359375 23.066406 2.46875 23.066406 2.605469 L 23.066406 2.855469 C 23.066406 2.992188 23.179688 3.101562 23.316406 3.101562 L 24.308594 3.101562 C 24.445312 3.101562 24.554688 2.992188 24.554688 2.855469 L 24.554688 2.605469 C 24.554688 2.46875 24.445312 2.359375 24.308594 2.359375 Z M 18.714844 2.964844 C 18.691406 2.964844 18.667969 2.96875 18.640625 2.976562 L 17.683594 3.230469 C 17.550781 3.265625 17.472656 3.402344 17.507812 3.535156 L 17.574219 3.773438 C 17.609375 3.90625 17.742188 3.984375 17.875 3.949219 L 18.835938 3.695312 C 18.96875 3.65625 19.046875 3.523438 19.011719 3.390625 L 18.945312 3.148438 C 18.917969 3.042969 18.820312 2.96875 18.714844 2.964844 Z M 28.910156 2.964844 C 28.804688 2.96875 28.707031 3.042969 28.679688 3.148438 L 28.613281 3.390625 C 28.578125 3.523438 28.65625 3.65625 28.789062 3.695312 L 29.75 3.949219 C 29.882812 3.984375 30.015625 3.90625 30.050781 3.773438 L 30.117188 3.535156 C 30.152344 3.402344 30.074219 3.265625 29.941406 3.230469 L 28.984375 2.976562 C 28.957031 2.96875 28.933594 2.964844 28.910156 2.964844 Z M 13.445312 5.003906 C 13.40625 5.003906 13.367188 5.015625 13.328125 5.035156 L 12.46875 5.53125 C 12.351562 5.601562 12.308594 5.75 12.378906 5.871094 L 12.503906 6.085938 C 12.570312 6.203125 12.722656 6.246094 12.839844 6.175781 L 13.699219 5.679688 C 13.820312 5.613281 13.859375 5.460938 13.789062 5.339844 L 13.667969 5.125 C 13.621094 5.042969 13.535156 5 13.445312 5.003906 Z M 34.179688 5.003906 C 34.089844 5 34.003906 5.042969 33.957031 5.125 L 33.835938 5.339844 C 33.765625 5.460938 33.804688 5.613281 33.925781 5.679688 L 34.785156 6.175781 C 34.902344 6.246094 35.054688 6.203125 35.121094 6.085938 L 35.246094 5.871094 C 35.316406 5.75 35.273438 5.601562 35.15625 5.53125 L 34.296875 5.035156 C 34.257812 5.015625 34.21875 5.003906 34.179688 5.003906 Z M 8.902344 8.328125 C 8.839844 8.328125 8.777344 8.351562 8.726562 8.402344 L 8.027344 9.101562 C 7.929688 9.199219 7.929688 9.355469 8.027344 9.453125 L 8.203125 9.628906 C 8.300781 9.726562 8.457031 9.726562 8.554688 9.628906 L 9.253906 8.929688 C 9.351562 8.832031 9.351562 8.675781 9.253906 8.578125 L 9.078125 8.402344 C 9.03125 8.351562 8.96875 8.328125 8.902344 8.328125 Z M 38.722656 8.328125 C 38.65625 8.328125 38.59375 8.351562 38.546875 8.402344 L 38.371094 8.578125 C 38.273438 8.675781 38.273438 8.832031 38.371094 8.929688 L 39.070312 9.628906 C 39.167969 9.726562 39.324219 9.726562 39.421875 9.628906 L 39.597656 9.453125 C 39.695312 9.355469 39.695312 9.199219 39.597656 9.101562 L 38.898438 8.402344 C 38.847656 8.351562 38.785156 8.328125 38.722656 8.328125 Z M 5.378906 12.71875 C 5.289062 12.71875 5.203125 12.761719 5.15625 12.84375 L 4.660156 13.703125 C 4.59375 13.820312 4.632812 13.972656 4.75 14.042969 L 4.964844 14.164062 C 5.085938 14.234375 5.238281 14.195312 5.304688 14.074219 L 5.800781 13.214844 C 5.871094 13.097656 5.828125 12.945312 5.710938 12.878906 L 5.496094 12.753906 C 5.457031 12.730469 5.417969 12.71875 5.378906 12.71875 Z M 42.246094 12.71875 C 42.207031 12.71875 42.167969 12.730469 42.128906 12.753906 L 41.914062 12.878906 C 41.796875 12.945312 41.753906 13.097656 41.824219 13.214844 L 42.320312 14.074219 C 42.386719 14.195312 42.539062 14.234375 42.660156 14.164062 L 42.875 14.042969 C 42.992188 13.972656 43.03125 13.820312 42.964844 13.703125 L 42.46875 12.84375 C 42.421875 12.761719 42.335938 12.71875 42.246094 12.71875 Z M 3.085938 17.875 C 2.980469 17.878906 2.886719 17.949219 2.855469 18.058594 L 2.601562 19.015625 C 2.5625 19.148438 2.640625 19.285156 2.773438 19.320312 L 3.015625 19.386719 C 3.148438 19.421875 3.28125 19.34375 3.320312 19.210938 L 3.574219 18.25 C 3.609375 18.117188 3.53125 17.984375 3.398438 17.949219 L 3.160156 17.882812 C 3.136719 17.875 3.109375 17.875 3.085938 17.875 Z M 44.539062 17.875 C 44.515625 17.875 44.488281 17.875 44.464844 17.882812 L 44.226562 17.949219 C 44.09375 17.984375 44.015625 18.117188 44.050781 18.25 L 44.304688 19.210938 C 44.34375 19.34375 44.476562 19.421875 44.609375 19.386719 L 44.851562 19.320312 C 44.984375 19.285156 45.0625 19.148438 45.023438 19.015625 L 44.769531 18.058594 C 44.738281 17.949219 44.644531 17.878906 44.539062 17.875 Z M 2.230469 23.441406 C 2.09375 23.441406 1.984375 23.554688 1.984375 23.691406 L 1.984375 24.683594 C 1.984375 24.820312 2.09375 24.929688 2.230469 24.929688 L 2.480469 24.929688 C 2.617188 24.929688 2.730469 24.820312 2.726562 24.683594 L 2.726562 23.691406 C 2.726562 23.554688 2.617188 23.441406 2.480469 23.441406 Z M 45.144531 23.441406 C 45.007812 23.441406 44.894531 23.554688 44.894531 23.691406 L 44.894531 24.683594 C 44.894531 24.820312 45.007812 24.929688 45.144531 24.929688 L 45.390625 24.929688 C 45.53125 24.929688 45.640625 24.820312 45.640625 24.683594 L 45.640625 23.691406 C 45.640625 23.554688 45.53125 23.441406 45.390625 23.441406 Z M 3.089844 28.980469 C 3.066406 28.980469 3.039062 28.984375 3.015625 28.988281 L 2.773438 29.054688 C 2.640625 29.089844 2.5625 29.226562 2.601562 29.359375 L 2.855469 30.316406 C 2.890625 30.449219 3.027344 30.527344 3.160156 30.492188 L 3.398438 30.425781 C 3.53125 30.390625 3.609375 30.257812 3.574219 30.125 L 3.320312 29.164062 C 3.289062 29.058594 3.195312 28.984375 3.089844 28.980469 Z M 44.535156 28.980469 C 44.429688 28.984375 44.335938 29.058594 44.304688 29.164062 L 44.050781 30.125 C 44.015625 30.257812 44.09375 30.390625 44.226562 30.425781 L 44.464844 30.492188 C 44.597656 30.527344 44.734375 30.449219 44.769531 30.316406 L 45.023438 29.359375 C 45.0625 29.226562 44.984375 29.089844 44.851562 29.054688 L 44.609375 28.988281 C 44.585938 28.984375 44.558594 28.980469 44.535156 28.980469 Z M 5.082031 34.175781 C 5.042969 34.175781 5.003906 34.1875 4.964844 34.210938 L 4.75 34.332031 C 4.632812 34.402344 4.59375 34.554688 4.660156 34.671875 L 5.15625 35.53125 C 5.226562 35.648438 5.375 35.691406 5.496094 35.621094 L 5.710938 35.496094 C 5.828125 35.429688 5.871094 35.277344 5.800781 35.160156 L 5.304688 34.300781 C 5.257812 34.21875 5.171875 34.171875 5.082031 34.175781 Z M 42.542969 34.175781 C 42.453125 34.171875 42.367188 34.21875 42.320312 34.300781 L 41.824219 35.160156 C 41.753906 35.277344 41.796875 35.429688 41.914062 35.496094 L 42.128906 35.621094 C 42.25 35.691406 42.398438 35.648438 42.46875 35.53125 L 42.964844 34.671875 C 43.03125 34.554688 42.992188 34.402344 42.875 34.332031 L 42.660156 34.210938 C 42.621094 34.1875 42.582031 34.175781 42.542969 34.175781 Z M 8.378906 38.671875 C 8.3125 38.671875 8.25 38.695312 8.203125 38.746094 L 8.027344 38.921875 C 7.929688 39.019531 7.929688 39.175781 8.027344 39.273438 L 8.726562 39.972656 C 8.824219 40.070312 8.980469 40.070312 9.078125 39.972656 L 9.253906 39.796875 C 9.351562 39.699219 9.351562 39.542969 9.253906 39.445312 L 8.554688 38.746094 C 8.503906 38.695312 8.441406 38.671875 8.378906 38.671875 Z M 39.246094 38.671875 C 39.183594 38.671875 39.121094 38.695312 39.070312 38.746094 L 38.371094 39.445312 C 38.273438 39.542969 38.273438 39.699219 38.371094 39.796875 L 38.546875 39.972656 C 38.644531 40.070312 38.800781 40.070312 38.898438 39.972656 L 39.597656 39.273438 C 39.695312 39.175781 39.695312 39.019531 39.597656 38.921875 L 39.421875 38.746094 C 39.375 38.695312 39.3125 38.671875 39.246094 38.671875 Z M 12.722656 42.164062 C 12.636719 42.164062 12.550781 42.207031 12.503906 42.289062 L 12.378906 42.503906 C 12.308594 42.625 12.351562 42.773438 12.46875 42.84375 L 13.328125 43.339844 C 13.445312 43.40625 13.597656 43.367188 13.667969 43.25 L 13.789062 43.035156 C 13.859375 42.914062 13.820312 42.761719 13.699219 42.695312 L 12.839844 42.199219 C 12.804688 42.175781 12.761719 42.167969 12.722656 42.164062 Z M 34.902344 42.164062 C 34.863281 42.167969 34.820312 42.175781 34.785156 42.199219 L 33.925781 42.695312 C 33.804688 42.761719 33.765625 42.914062 33.835938 43.035156 L 33.957031 43.25 C 34.027344 43.367188 34.179688 43.40625 34.296875 43.339844 L 35.15625 42.84375 C 35.273438 42.773438 35.316406 42.625 35.246094 42.503906 L 35.121094 42.289062 C 35.074219 42.207031 34.988281 42.164062 34.902344 42.164062 Z M 17.800781 44.417969 C 17.695312 44.421875 17.601562 44.492188 17.574219 44.601562 L 17.507812 44.839844 C 17.472656 44.972656 17.550781 45.109375 17.683594 45.144531 L 18.640625 45.398438 C 18.773438 45.4375 18.910156 45.359375 18.945312 45.226562 L 19.011719 44.984375 C 19.046875 44.851562 18.96875 44.71875 18.835938 44.679688 L 17.875 44.425781 C 17.851562 44.417969 17.828125 44.414062 17.800781 44.417969 Z M 29.824219 44.417969 C 29.796875 44.414062 29.773438 44.417969 29.75 44.425781 L 28.789062 44.679688 C 28.65625 44.71875 28.578125 44.851562 28.613281 44.984375 L 28.679688 45.226562 C 28.714844 45.359375 28.851562 45.4375 28.984375 45.398438 L 29.941406 45.144531 C 30.074219 45.109375 30.152344 44.972656 30.117188 44.839844 L 30.050781 44.601562 C 30.023438 44.492188 29.929688 44.421875 29.824219 44.417969 Z M 23.316406 45.269531 C 23.179688 45.269531 23.066406 45.382812 23.066406 45.519531 L 23.066406 45.769531 C 23.066406 45.90625 23.179688 46.015625 23.316406 46.015625 L 24.308594 46.015625 C 24.445312 46.015625 24.554688 45.90625 24.554688 45.769531 L 24.554688 45.519531 C 24.554688 45.382812 24.445312 45.269531 24.308594 45.269531 Z M 23.316406 45.269531 "/>
<path style=" stroke:none;fill-rule:nonzero;fill:rgb(100%,87.843138%,50.980395%);fill-opacity:1;" d="M 23.8125 2.609375 C 35.730469 2.609375 45.390625 12.269531 45.390625 24.1875 C 45.390625 36.105469 35.730469 45.769531 23.8125 45.769531 C 11.894531 45.769531 2.234375 36.105469 2.234375 24.1875 C 2.234375 12.269531 11.894531 2.609375 23.8125 2.609375 Z M 23.8125 2.609375 "/>
<path style=" stroke:none;fill-rule:nonzero;fill:rgb(100%,79.215688%,15.686275%);fill-opacity:1;" d="M 23.8125 3.351562 C 35.320312 3.351562 44.648438 12.679688 44.648438 24.1875 C 44.648438 35.695312 35.320312 45.023438 23.8125 45.023438 C 12.304688 45.023438 2.976562 35.695312 2.976562 24.1875 C 2.976562 12.679688 12.304688 3.351562 23.8125 3.351562 Z M 23.8125 3.351562 "/>
<path style=" stroke:none;fill-rule:nonzero;fill:rgb(100%,62.7451%,0%);fill-opacity:1;" d="M 23.8125 7.320312 C 33.128906 7.320312 40.679688 14.871094 40.679688 24.1875 C 40.679688 33.503906 33.128906 41.054688 23.8125 41.054688 C 14.496094 41.054688 6.945312 33.503906 6.945312 24.1875 C 6.945312 14.871094 14.496094 7.320312 23.8125 7.320312 Z M 23.8125 7.320312 "/>
<path style=" stroke:none;fill-rule:nonzero;fill:rgb(74.117649%,74.117649%,74.117649%);fill-opacity:1;" d="M 23.8125 7.816406 C 32.855469 7.816406 40.183594 15.144531 40.183594 24.1875 C 40.183594 33.230469 32.855469 40.558594 23.8125 40.558594 C 14.769531 40.558594 7.441406 33.230469 7.441406 24.1875 C 7.441406 15.144531 14.769531 7.816406 23.8125 7.816406 Z M 23.8125 7.816406 "/>
<path style=" stroke:none;fill-rule:nonzero;fill:rgb(61.960787%,61.960787%,61.960787%);fill-opacity:1;" d="M 23.8125 13.550781 L 12.652344 23.472656 L 16.371094 23.472656 L 16.371094 32.152344 C 16.371094 32.839844 16.925781 33.394531 17.609375 33.394531 L 30.011719 33.394531 C 30.699219 33.394531 31.253906 32.839844 31.253906 32.152344 L 31.253906 23.472656 L 34.972656 23.472656 L 31.253906 20.164062 L 31.253906 17.269531 L 28.773438 17.269531 L 28.773438 17.957031 Z M 23.8125 13.550781 "/>
<path style=" stroke:none;fill-rule:nonzero;fill:rgb(87.843138%,87.843138%,87.843138%);fill-opacity:1;" d="M 23.8125 14.046875 L 13.207031 23.472656 L 16.742188 23.472656 L 16.742188 31.71875 C 16.742188 32.371094 17.269531 32.898438 17.921875 32.898438 L 29.703125 32.898438 C 30.355469 32.898438 30.882812 32.371094 30.882812 31.71875 L 30.882812 23.472656 L 34.417969 23.472656 L 30.882812 20.328125 L 30.882812 17.578125 L 28.523438 17.578125 L 28.523438 18.234375 Z M 23.8125 14.046875 "/>
</g>
</svg>
