
<svg xmlns="http://www.w3.org/2000/svg" xmlns:xlink="http://www.w3.org/1999/xlink" width="48px" height="48px" viewBox="0 0 48 48" version="1.1">
<g id="surface1">
<path style=" stroke:none;fill-rule:nonzero;fill:rgb(56.470591%,64.313728%,68.235296%);fill-opacity:0.995763;" d="M 31.75 6.945312 C 38.640625 13.75 44.371094 20.625 40.679688 27.78125 C 39.765625 22.886719 36.359375 16.402344 32.089844 11.902344 Z M 31.75 6.945312 "/>
<path style=" stroke:none;fill-rule:nonzero;fill:rgb(0%,73.725492%,83.137256%);fill-opacity:1;" d="M 23.8125 38.695312 C 13.367188 38.695312 4.960938 41.570312 4.960938 45.144531 C 4.960938 45.3125 4.980469 45.476562 5.015625 45.640625 L 42.609375 45.640625 C 42.644531 45.476562 42.664062 45.3125 42.664062 45.144531 C 42.664062 41.570312 34.257812 38.695312 23.8125 38.695312 Z M 23.8125 38.695312 "/>
<path style=" stroke:none;fill-rule:nonzero;fill:rgb(69.01961%,74.509805%,77.254903%);fill-opacity:0.995763;" d="M 37.589844 17.859375 C 41.21875 28.511719 38.027344 39.140625 31.75 44.648438 C 32.871094 39.089844 32.328125 30.589844 30.195312 23.695312 Z M 37.589844 17.859375 "/>
<path style=" stroke:none;fill-rule:nonzero;fill:rgb(30.19608%,81.568629%,88.235295%);fill-opacity:1;" d="M 22.273438 30.757812 L 25.351562 30.757812 C 29.433594 30.757812 32.742188 32.296875 32.742188 34.199219 L 32.742188 40.214844 C 32.742188 42.117188 29.433594 43.65625 25.351562 43.65625 L 22.273438 43.65625 C 18.191406 43.65625 14.882812 42.117188 14.882812 40.214844 L 14.882812 34.199219 C 14.882812 32.296875 18.191406 30.757812 22.273438 30.757812 Z M 22.273438 30.757812 "/>
<path style=" stroke:none;fill-rule:nonzero;fill:rgb(56.470591%,64.313728%,68.235296%);fill-opacity:0.995763;" d="M 37.703125 16.867188 C 43.210938 24.835938 42.183594 34.652344 37.230469 41 C 37.242188 36.019531 35.097656 29.015625 31.738281 23.800781 Z M 37.703125 16.867188 "/>
<path style=" stroke:none;fill-rule:nonzero;fill:rgb(69.01961%,74.509805%,77.254903%);fill-opacity:0.995763;" d="M 7.453125 19.050781 C 4.890625 28.390625 9.101562 37.316406 15.875 41.671875 C 14.21875 36.972656 13.925781 29.65625 15.375 23.625 Z M 7.453125 19.050781 "/>
<path style=" stroke:none;fill-rule:nonzero;fill:rgb(81.176472%,84.705883%,86.274511%);fill-opacity:0.995763;" d="M 40.628906 18.183594 C 43.265625 27.503906 39.125 36.464844 32.386719 40.871094 C 34.003906 36.160156 34.238281 28.839844 32.742188 22.820312 Z M 40.628906 18.183594 "/>
<path style=" stroke:none;fill-rule:nonzero;fill:rgb(81.176472%,84.705883%,86.274511%);fill-opacity:0.995763;" d="M 39.445312 11.707031 C 45.234375 19.472656 44.566406 29.316406 39.84375 35.839844 C 39.675781 30.863281 37.28125 23.941406 33.734375 18.851562 Z M 39.445312 11.707031 "/>
<path style=" stroke:none;fill-rule:nonzero;fill:rgb(56.470591%,64.313728%,68.235296%);fill-opacity:0.995763;" d="M 7.058594 16.867188 C 3.429688 27.519531 6.621094 38.148438 12.898438 43.65625 C 11.777344 38.097656 12.320312 29.597656 14.453125 22.703125 Z M 7.058594 16.867188 "/>
<path style=" stroke:none;fill-rule:nonzero;fill:rgb(81.176472%,84.705883%,86.274511%);fill-opacity:0.995763;" d="M 9.40625 16.351562 C 4.511719 24.710938 6.269531 34.421875 11.6875 40.382812 C 11.304688 35.414062 12.914062 28.269531 15.875 22.820312 Z M 9.40625 16.351562 "/>
<path style=" stroke:none;fill-rule:nonzero;fill:rgb(81.176472%,84.705883%,86.274511%);fill-opacity:0.995763;" d="M 9.96875 11.917969 C 3.078125 18.722656 2.261719 28.5625 5.953125 35.71875 C 6.867188 30.824219 10.273438 24.339844 14.542969 19.839844 Z M 9.96875 11.917969 "/>
<path style=" stroke:none;fill-rule:nonzero;fill:rgb(0%,67.450982%,75.686276%);fill-opacity:1;" d="M 23.8125 36.214844 C 24.359375 36.214844 24.804688 36.660156 24.804688 37.207031 L 24.804688 41.671875 C 24.804688 42.21875 24.359375 42.664062 23.8125 42.664062 C 23.265625 42.664062 22.820312 42.21875 22.820312 41.671875 L 22.820312 37.207031 C 22.820312 36.660156 23.265625 36.214844 23.8125 36.214844 Z M 23.8125 36.214844 "/>
<path style=" stroke:none;fill-rule:nonzero;fill:rgb(100%,87.843138%,69.803923%);fill-opacity:0.995763;" d="M 23.8125 2.976562 C 32.578125 2.976562 39.6875 10.75 39.6875 20.339844 C 39.6875 29.929688 32.578125 37.703125 23.8125 37.703125 C 15.046875 37.703125 7.9375 29.929688 7.9375 20.339844 C 7.9375 10.75 15.046875 2.976562 23.8125 2.976562 Z M 23.8125 2.976562 "/>
<path style=" stroke:none;fill-rule:nonzero;fill:rgb(96.078432%,96.078432%,96.078432%);fill-opacity:0.995763;" d="M 33.605469 19.109375 C 31.808594 17.3125 29.140625 17.070312 27.644531 18.566406 C 26.144531 20.0625 26.386719 22.730469 28.183594 24.527344 C 29.980469 26.324219 32.652344 26.566406 34.148438 25.070312 C 35.644531 23.574219 35.402344 20.902344 33.605469 19.109375 Z M 33.605469 19.109375 "/>
<path style=" stroke:none;fill-rule:nonzero;fill:rgb(25.882354%,64.705884%,96.078432%);fill-opacity:0.995763;" d="M 31.058594 19.53125 C 30.101562 18.570312 28.546875 18.570312 27.589844 19.53125 C 26.632812 20.488281 26.632812 22.042969 27.589844 23 C 28.546875 23.957031 30.101562 23.957031 31.058594 23 C 32.015625 22.042969 32.015625 20.488281 31.058594 19.53125 Z M 31.058594 19.53125 "/>
<path style=" stroke:none;fill-rule:nonzero;fill:rgb(25.882354%,25.882354%,25.882354%);fill-opacity:0.995763;" d="M 30.0625 20 C 29.472656 19.40625 28.511719 19.40625 27.917969 20 C 27.324219 20.59375 27.324219 21.554688 27.917969 22.144531 C 28.511719 22.738281 29.472656 22.738281 30.0625 22.144531 C 30.65625 21.554688 30.65625 20.59375 30.0625 20 Z M 30.0625 20 "/>
<path style=" stroke:none;fill-rule:nonzero;fill:rgb(96.078432%,96.078432%,96.078432%);fill-opacity:0.995763;" d="M 14.261719 19.082031 C 16.03125 17.308594 18.664062 17.070312 20.140625 18.546875 C 21.613281 20.023438 21.375 22.652344 19.605469 24.425781 C 17.835938 26.195312 15.203125 26.433594 13.726562 24.957031 C 12.25 23.484375 12.492188 20.851562 14.261719 19.082031 Z M 14.261719 19.082031 "/>
<path style=" stroke:none;fill-rule:nonzero;fill:rgb(25.882354%,64.705884%,96.078432%);fill-opacity:0.995763;" d="M 20.207031 19.53125 C 19.25 18.570312 17.695312 18.570312 16.738281 19.53125 C 15.777344 20.488281 15.777344 22.042969 16.738281 23 C 17.695312 23.957031 19.25 23.957031 20.207031 23 C 21.164062 22.042969 21.164062 20.488281 20.207031 19.53125 Z M 20.207031 19.53125 "/>
<path style=" stroke:none;fill-rule:nonzero;fill:rgb(25.882354%,25.882354%,25.882354%);fill-opacity:0.995763;" d="M 17.765625 20 C 18.359375 19.40625 19.316406 19.40625 19.910156 20 C 20.503906 20.59375 20.503906 21.554688 19.910156 22.144531 C 19.316406 22.738281 18.359375 22.738281 17.765625 22.144531 C 17.171875 21.554688 17.171875 20.59375 17.765625 20 Z M 17.765625 20 "/>
<path style=" stroke:none;fill-rule:nonzero;fill:rgb(69.01961%,74.509805%,77.254903%);fill-opacity:0.995763;" d="M 9.921875 7.9375 C 5.027344 16.296875 4.285156 25.492188 9.703125 31.453125 C 9.320312 26.484375 10.929688 19.339844 13.890625 13.890625 Z M 9.921875 7.9375 "/>
<path style=" stroke:none;fill-rule:nonzero;fill:rgb(81.176472%,84.705883%,86.274511%);fill-opacity:0.995763;" d="M 23.8125 2.976562 C 10.90625 2.976562 2.9375 12.699219 2.480469 22.324219 C 6.839844 17.230469 16.550781 11.90625 23.8125 11.90625 C 31.074219 11.90625 40.785156 17.230469 45.144531 22.324219 C 44.6875 12.699219 35.71875 2.976562 23.8125 2.976562 Z M 23.8125 2.976562 "/>
<path style=" stroke:none;fill-rule:nonzero;fill:rgb(81.176472%,84.705883%,86.274511%);fill-opacity:0.995763;" d="M 23.8125 2.757812 C 14.441406 5.207031 8.816406 13.316406 8.433594 21.363281 C 11.671875 17.578125 17.867188 13.667969 23.8125 11.90625 Z M 23.8125 2.757812 "/>
<path style=" stroke:none;fill-rule:nonzero;fill:rgb(81.176472%,84.705883%,86.274511%);fill-opacity:0.995763;" d="M 23.8125 4.820312 C 21.097656 8.191406 19.542969 12.304688 19.347656 16.402344 C 20.507812 15.046875 22.042969 13.679688 23.8125 12.394531 Z M 23.8125 4.820312 "/>
<path style=" stroke:none;fill-rule:nonzero;fill:rgb(81.176472%,84.705883%,86.274511%);fill-opacity:0.995763;" d="M 24.804688 4.328125 C 27.519531 7.703125 29.074219 11.816406 29.269531 15.910156 C 28.109375 14.558594 26.574219 13.1875 24.804688 11.90625 Z M 24.804688 4.328125 "/>
<path style=" stroke:none;fill-rule:nonzero;fill:rgb(69.01961%,74.509805%,77.254903%);fill-opacity:0.995763;" d="M 34.308594 7.964844 C 39.835938 15.917969 44.207031 23.722656 39.269531 30.082031 C 39.269531 25.101562 37.105469 18.105469 33.734375 12.898438 Z M 34.308594 7.964844 "/>
<path style=" stroke:none;fill-rule:nonzero;fill:rgb(81.176472%,84.705883%,86.274511%);fill-opacity:0.995763;" d="M 28.339844 3.792969 L 27.082031 6.753906 C 31.863281 10.703125 36.03125 16.726562 37.53125 21.476562 C 38.1875 19.703125 38.578125 17.808594 38.695312 15.875 C 37.050781 10.148438 33.121094 5.738281 28.339844 3.792969 Z M 28.339844 3.792969 "/>
<path style=" stroke:none;fill-rule:nonzero;fill:rgb(25.882354%,25.882354%,25.882354%);fill-opacity:1;" d="M 23.8125 28.277344 C 23.503906 28.277344 23.246094 28.171875 23.171875 28.03125 C 23.160156 28.003906 23.152344 27.976562 23.152344 27.945312 C 23.152344 27.886719 23.183594 27.828125 23.238281 27.78125 C 23.351562 27.878906 23.566406 27.945312 23.8125 27.945312 C 24.058594 27.945312 24.273438 27.878906 24.386719 27.78125 C 24.441406 27.828125 24.472656 27.886719 24.472656 27.945312 C 24.472656 27.976562 24.464844 28.003906 24.453125 28.03125 C 24.378906 28.171875 24.121094 28.277344 23.8125 28.277344 Z M 23.8125 28.277344 "/>
<path style=" stroke:none;fill-rule:nonzero;fill:rgb(69.01961%,74.509805%,77.254903%);fill-opacity:0.995763;" d="M 29.285156 8.929688 C 27.761719 5.933594 25.007812 3.398438 21.582031 1.738281 C 22.15625 2.984375 22.554688 4.476562 22.761719 6.082031 Z M 29.285156 8.929688 "/>
<path style=" stroke:none;fill-rule:nonzero;fill:rgb(69.01961%,74.509805%,77.254903%);fill-opacity:0.995763;" d="M 18.867188 7.195312 C 21.042969 4.632812 24.308594 2.804688 28.03125 1.984375 C 27.179688 3.0625 26.445312 4.421875 25.871094 5.9375 Z M 18.867188 7.195312 "/>
<path style=" stroke:none;fill-rule:nonzero;fill:rgb(69.01961%,74.509805%,77.254903%);fill-opacity:0.995763;" d="M 16.632812 7.195312 C 18.8125 4.632812 22.078125 2.804688 25.796875 1.984375 C 24.945312 3.0625 24.214844 4.421875 23.640625 5.9375 Z M 16.632812 7.195312 "/>
<path style=" stroke:none;fill-rule:nonzero;fill:rgb(69.01961%,74.509805%,77.254903%);fill-opacity:0.995763;" d="M 27.96875 5.953125 C 25.417969 3.761719 21.910156 2.464844 18.105469 2.234375 C 19.113281 3.164062 20.050781 4.394531 20.851562 5.804688 Z M 27.96875 5.953125 "/>
<path style=" stroke:none;fill-rule:nonzero;fill:rgb(92.54902%,25.098041%,47.843137%);fill-opacity:1;" d="M 9.726562 11.460938 C 9.964844 10.738281 10.148438 10.40625 9.59375 9.78125 C 9.164062 9.480469 8.617188 9.464844 7.648438 10.492188 C 7.078125 10.429688 6.703125 10.785156 6.246094 10.964844 C 6.875 11.488281 7.359375 12.277344 8.425781 12.132812 L 8.992188 12.695312 L 9.292969 13.75 C 9.917969 13.96875 10.53125 14.125 10.996094 13.375 C 11.878906 13.316406 12.542969 13.28125 13.015625 12.648438 C 12.542969 11.480469 11.066406 11.839844 9.96875 11.917969 Z M 9.726562 11.460938 "/>
<path style=" stroke:none;fill-rule:nonzero;fill:rgb(96.078432%,96.078432%,96.078432%);fill-opacity:0.995763;" d="M 17.984375 19.878906 C 17.675781 19.570312 17.175781 19.570312 16.867188 19.878906 C 16.558594 20.1875 16.558594 20.6875 16.867188 20.996094 C 17.175781 21.304688 17.675781 21.304688 17.984375 20.996094 C 18.292969 20.6875 18.292969 20.1875 17.984375 19.878906 Z M 17.984375 19.878906 "/>
<path style=" stroke:none;fill-rule:nonzero;fill:rgb(96.078432%,96.078432%,96.078432%);fill-opacity:0.995763;" d="M 28.546875 19.8125 C 28.238281 19.503906 27.738281 19.503906 27.429688 19.8125 C 27.121094 20.121094 27.121094 20.621094 27.429688 20.929688 C 27.738281 21.238281 28.238281 21.238281 28.546875 20.929688 C 28.855469 20.621094 28.855469 20.121094 28.546875 19.8125 Z M 28.546875 19.8125 "/>
<path style=" stroke:none;fill-rule:nonzero;fill:rgb(100%,80.392158%,82.352942%);fill-opacity:1;" d="M 13.773438 28.511719 C 14 28.308594 14.207031 28.082031 14.410156 27.855469 C 14.496094 27.761719 14.574219 27.664062 14.660156 27.570312 C 14.683594 27.542969 14.703125 27.53125 14.671875 27.554688 C 14.683594 27.550781 14.644531 27.429688 14.636719 27.433594 C 14.621094 27.4375 14.609375 27.441406 14.59375 27.449219 C 14.558594 27.46875 14.507812 27.515625 14.480469 27.542969 C 14.410156 27.609375 14.34375 27.683594 14.277344 27.753906 C 14.078125 27.976562 13.875 28.199219 13.675781 28.421875 C 13.667969 28.429688 13.769531 28.515625 13.773438 28.511719 Z M 13.773438 28.511719 "/>
<path style=" stroke:none;fill-rule:nonzero;fill:rgb(100%,80.392158%,82.352942%);fill-opacity:1;" d="M 14.40625 28.515625 C 14.632812 28.347656 14.832031 28.148438 15.027344 27.949219 C 15.132812 27.835938 15.222656 27.710938 15.316406 27.589844 C 15.359375 27.535156 15.394531 27.480469 15.453125 27.445312 C 15.460938 27.4375 15.375 27.335938 15.367188 27.339844 C 15.289062 27.386719 15.25 27.429688 15.191406 27.5 C 15.09375 27.613281 15.003906 27.734375 14.898438 27.84375 C 14.710938 28.042969 14.511719 28.230469 14.3125 28.421875 C 14.308594 28.429688 14.398438 28.519531 14.40625 28.515625 Z M 14.40625 28.515625 "/>
<path style=" stroke:none;fill-rule:nonzero;fill:rgb(100%,80.392158%,82.352942%);fill-opacity:1;" d="M 15.019531 28.542969 C 15.335938 28.347656 15.632812 28.121094 15.921875 27.886719 C 16.21875 27.644531 16.492188 27.371094 16.742188 27.078125 C 16.785156 27.03125 16.828125 26.976562 16.867188 26.925781 C 16.875 26.917969 16.738281 26.816406 16.730469 26.824219 C 16.429688 27.144531 16.128906 27.46875 15.789062 27.753906 C 15.507812 27.988281 15.222656 28.214844 14.9375 28.445312 C 14.929688 28.449219 15.011719 28.550781 15.019531 28.542969 Z M 15.019531 28.542969 "/>
<path style=" stroke:none;fill-rule:nonzero;fill:rgb(100%,80.392158%,82.352942%);fill-opacity:1;" d="M 16.183594 28.300781 C 16.683594 27.902344 17.164062 27.484375 17.648438 27.0625 C 18.066406 26.6875 17.867188 26.871094 18.246094 26.515625 C 18.253906 26.503906 18.097656 26.363281 18.089844 26.371094 C 17.699219 26.710938 17.898438 26.535156 17.480469 26.90625 C 17.003906 27.328125 16.523438 27.75 16.082031 28.210938 C 16.078125 28.21875 16.175781 28.308594 16.183594 28.300781 Z M 16.183594 28.300781 "/>
<path style=" stroke:none;fill-rule:nonzero;fill:rgb(100%,80.392158%,82.352942%);fill-opacity:1;" d="M 17.964844 27.460938 C 18.195312 27.285156 18.394531 27.082031 18.59375 26.875 C 18.601562 26.863281 18.457031 26.746094 18.449219 26.757812 C 18.257812 26.960938 18.0625 27.167969 17.863281 27.367188 C 17.859375 27.375 17.960938 27.46875 17.964844 27.460938 Z M 17.964844 27.460938 "/>
<path style=" stroke:none;fill-rule:nonzero;fill:rgb(100%,80.392158%,82.352942%);fill-opacity:1;" d="M 34.117188 28.511719 C 33.890625 28.308594 33.683594 28.082031 33.480469 27.855469 C 33.398438 27.761719 33.316406 27.664062 33.230469 27.570312 C 33.207031 27.542969 33.1875 27.53125 33.21875 27.554688 C 33.210938 27.550781 33.246094 27.429688 33.253906 27.433594 C 33.269531 27.4375 33.285156 27.441406 33.296875 27.449219 C 33.335938 27.46875 33.386719 27.515625 33.410156 27.542969 C 33.480469 27.609375 33.546875 27.683594 33.613281 27.753906 C 33.816406 27.976562 34.015625 28.199219 34.214844 28.421875 C 34.222656 28.429688 34.125 28.515625 34.117188 28.511719 Z M 34.117188 28.511719 "/>
<path style=" stroke:none;fill-rule:nonzero;fill:rgb(100%,80.392158%,82.352942%);fill-opacity:1;" d="M 33.484375 28.515625 C 33.261719 28.347656 33.058594 28.148438 32.863281 27.949219 C 32.757812 27.835938 32.667969 27.710938 32.574219 27.589844 C 32.535156 27.535156 32.496094 27.480469 32.4375 27.445312 C 32.433594 27.4375 32.515625 27.335938 32.523438 27.339844 C 32.601562 27.386719 32.640625 27.429688 32.703125 27.5 C 32.800781 27.613281 32.890625 27.734375 32.992188 27.84375 C 33.179688 28.042969 33.382812 28.230469 33.578125 28.421875 C 33.585938 28.429688 33.492188 28.519531 33.484375 28.515625 Z M 33.484375 28.515625 "/>
<path style=" stroke:none;fill-rule:nonzero;fill:rgb(100%,80.392158%,82.352942%);fill-opacity:1;" d="M 32.871094 28.542969 C 32.554688 28.347656 32.257812 28.121094 31.96875 27.886719 C 31.671875 27.644531 31.398438 27.371094 31.148438 27.078125 C 31.105469 27.03125 31.066406 26.976562 31.023438 26.925781 C 31.015625 26.917969 31.152344 26.816406 31.160156 26.824219 C 31.460938 27.144531 31.765625 27.46875 32.101562 27.753906 C 32.382812 27.988281 32.667969 28.214844 32.957031 28.445312 C 32.960938 28.449219 32.878906 28.550781 32.871094 28.542969 Z M 32.871094 28.542969 "/>
<path style=" stroke:none;fill-rule:nonzero;fill:rgb(100%,80.392158%,82.352942%);fill-opacity:1;" d="M 31.707031 28.300781 C 31.210938 27.902344 30.726562 27.484375 30.242188 27.0625 C 29.828125 26.6875 30.023438 26.871094 29.648438 26.515625 C 29.636719 26.503906 29.792969 26.363281 29.804688 26.371094 C 30.195312 26.710938 29.992188 26.535156 30.410156 26.90625 C 30.886719 27.328125 31.367188 27.75 31.808594 28.210938 C 31.816406 28.21875 31.714844 28.308594 31.707031 28.300781 Z M 31.707031 28.300781 "/>
<path style=" stroke:none;fill-rule:nonzero;fill:rgb(100%,80.392158%,82.352942%);fill-opacity:1;" d="M 29.925781 27.460938 C 29.695312 27.285156 29.496094 27.082031 29.296875 26.875 C 29.289062 26.863281 29.433594 26.746094 29.441406 26.757812 C 29.636719 26.960938 29.832031 27.167969 30.027344 27.367188 C 30.035156 27.375 29.933594 27.46875 29.925781 27.460938 Z M 29.925781 27.460938 "/>
<path style="fill:none;stroke-width:1.97768;stroke-linecap:butt;stroke-linejoin:miter;stroke:rgb(63.137257%,53.333336%,49.803922%);stroke-opacity:1;stroke-miterlimit:4;" d="M 235.458333 130.166667 C 235.458333 130.166667 235.25 124.208333 241.25 126.125 C 247.291667 128.041667 251.333333 125.541667 251.333333 125.541667 " transform="matrix(0.09375,0,0,0.09375,0,20.15625)"/>
<path style="fill:none;stroke-width:1.97768;stroke-linecap:butt;stroke-linejoin:miter;stroke:rgb(63.137257%,53.333336%,49.803922%);stroke-opacity:1;stroke-miterlimit:4;" d="M 277.208333 130.833333 C 277.208333 130.833333 278.208333 124.916667 272 126.041667 C 265.791667 127.125 262.083333 124.083333 262.083333 124.083333 " transform="matrix(0.09375,0,0,0.09375,0,20.15625)"/>
<path style=" stroke:none;fill-rule:nonzero;fill:rgb(92.54902%,25.098041%,47.843137%);fill-opacity:1;" d="M 37.023438 11.710938 C 36.785156 10.988281 36.601562 10.652344 37.15625 10.03125 C 37.585938 9.726562 38.132812 9.710938 39.101562 10.738281 C 39.671875 10.675781 40.046875 11.03125 40.503906 11.214844 C 39.875 11.738281 39.390625 12.527344 38.324219 12.382812 L 37.757812 12.945312 L 37.457031 13.996094 C 36.832031 14.214844 36.21875 14.375 35.753906 13.625 C 34.871094 13.566406 34.207031 13.53125 33.734375 12.898438 C 34.207031 11.730469 35.683594 12.089844 36.777344 12.167969 Z M 37.023438 11.710938 "/>
</g>
</svg>
