<?xml version="1.0" encoding="UTF-8"?>
<svg xmlns="http://www.w3.org/2000/svg" xmlns:xlink="http://www.w3.org/1999/xlink" width="48px" height="48px" viewBox="0 0 48 48" version="1.1">
<g id="surface1">
<path style=" stroke:none;fill-rule:nonzero;fill:rgb(56.470591%,64.313728%,68.235296%);fill-opacity:0.995763;" d="M 31.75 7.320312 C 38.640625 14.125 44.371094 21 40.679688 28.15625 C 39.765625 23.261719 36.359375 16.777344 32.089844 12.277344 Z M 31.75 7.320312 "/>
<path style=" stroke:none;fill-rule:nonzero;fill:rgb(0%,73.725492%,83.137256%);fill-opacity:1;" d="M 23.8125 39.070312 C 13.367188 39.070312 4.960938 41.945312 4.960938 45.519531 C 4.960938 45.6875 4.980469 45.851562 5.015625 46.015625 L 42.609375 46.015625 C 42.644531 45.851562 42.664062 45.6875 42.664062 45.519531 C 42.664062 41.945312 34.257812 39.070312 23.8125 39.070312 Z M 23.8125 39.070312 "/>
<path style=" stroke:none;fill-rule:nonzero;fill:rgb(69.01961%,74.509805%,77.254903%);fill-opacity:0.995763;" d="M 37.589844 18.234375 C 41.21875 28.886719 38.027344 39.515625 31.75 45.023438 C 32.871094 39.464844 32.328125 30.964844 30.195312 24.070312 Z M 37.589844 18.234375 "/>
<path style=" stroke:none;fill-rule:nonzero;fill:rgb(30.19608%,81.568629%,88.235295%);fill-opacity:1;" d="M 22.273438 31.132812 L 25.351562 31.132812 C 29.433594 31.132812 32.742188 32.671875 32.742188 34.574219 L 32.742188 40.589844 C 32.742188 42.492188 29.433594 44.03125 25.351562 44.03125 L 22.273438 44.03125 C 18.191406 44.03125 14.882812 42.492188 14.882812 40.589844 L 14.882812 34.574219 C 14.882812 32.671875 18.191406 31.132812 22.273438 31.132812 Z M 22.273438 31.132812 "/>
<path style=" stroke:none;fill-rule:nonzero;fill:rgb(56.470591%,64.313728%,68.235296%);fill-opacity:0.995763;" d="M 37.703125 17.242188 C 43.210938 25.210938 42.183594 35.027344 37.230469 41.375 C 37.242188 36.394531 35.097656 29.390625 31.738281 24.175781 Z M 37.703125 17.242188 "/>
<path style=" stroke:none;fill-rule:nonzero;fill:rgb(69.01961%,74.509805%,77.254903%);fill-opacity:0.995763;" d="M 7.453125 19.425781 C 4.890625 28.765625 9.101562 37.691406 15.875 42.046875 C 14.21875 37.347656 13.925781 30.03125 15.375 24 Z M 7.453125 19.425781 "/>
<path style=" stroke:none;fill-rule:nonzero;fill:rgb(81.176472%,84.705883%,86.274511%);fill-opacity:0.995763;" d="M 40.628906 18.558594 C 43.265625 27.878906 39.125 36.839844 32.386719 41.246094 C 34.003906 36.535156 34.238281 29.214844 32.742188 23.195312 Z M 40.628906 18.558594 "/>
<path style=" stroke:none;fill-rule:nonzero;fill:rgb(81.176472%,84.705883%,86.274511%);fill-opacity:0.995763;" d="M 39.445312 12.082031 C 45.234375 19.847656 44.566406 29.691406 39.84375 36.214844 C 39.675781 31.238281 37.28125 24.316406 33.734375 19.226562 Z M 39.445312 12.082031 "/>
<path style=" stroke:none;fill-rule:nonzero;fill:rgb(56.470591%,64.313728%,68.235296%);fill-opacity:0.995763;" d="M 7.058594 17.242188 C 3.429688 27.894531 6.621094 38.523438 12.898438 44.03125 C 11.777344 38.472656 12.320312 29.972656 14.453125 23.078125 Z M 7.058594 17.242188 "/>
<path style=" stroke:none;fill-rule:nonzero;fill:rgb(81.176472%,84.705883%,86.274511%);fill-opacity:0.995763;" d="M 9.40625 16.726562 C 4.511719 25.085938 6.269531 34.796875 11.6875 40.757812 C 11.304688 35.789062 12.914062 28.644531 15.875 23.195312 Z M 9.40625 16.726562 "/>
<path style=" stroke:none;fill-rule:nonzero;fill:rgb(81.176472%,84.705883%,86.274511%);fill-opacity:0.995763;" d="M 9.96875 12.292969 C 3.078125 19.097656 2.261719 28.9375 5.953125 36.09375 C 6.867188 31.199219 10.273438 24.714844 14.542969 20.214844 Z M 9.96875 12.292969 "/>
<path style=" stroke:none;fill-rule:nonzero;fill:rgb(0%,67.450982%,75.686276%);fill-opacity:1;" d="M 23.8125 36.589844 C 24.359375 36.589844 24.804688 37.035156 24.804688 37.582031 L 24.804688 42.046875 C 24.804688 42.59375 24.359375 43.039062 23.8125 43.039062 C 23.265625 43.039062 22.820312 42.59375 22.820312 42.046875 L 22.820312 37.582031 C 22.820312 37.035156 23.265625 36.589844 23.8125 36.589844 Z M 23.8125 36.589844 "/>
<path style=" stroke:none;fill-rule:nonzero;fill:rgb(100%,87.843138%,69.803923%);fill-opacity:0.995763;" d="M 23.8125 3.351562 C 32.578125 3.351562 39.6875 11.125 39.6875 20.714844 C 39.6875 30.304688 32.578125 38.078125 23.8125 38.078125 C 15.046875 38.078125 7.9375 30.304688 7.9375 20.714844 C 7.9375 11.125 15.046875 3.351562 23.8125 3.351562 Z M 23.8125 3.351562 "/>
<path style=" stroke:none;fill-rule:nonzero;fill:rgb(96.078432%,96.078432%,96.078432%);fill-opacity:0.995763;" d="M 33.605469 19.484375 C 31.808594 17.6875 29.140625 17.445312 27.644531 18.941406 C 26.144531 20.4375 26.386719 23.105469 28.183594 24.902344 C 29.980469 26.699219 32.652344 26.941406 34.148438 25.445312 C 35.644531 23.949219 35.402344 21.277344 33.605469 19.484375 Z M 33.605469 19.484375 "/>
<path style=" stroke:none;fill-rule:nonzero;fill:rgb(25.882354%,25.882354%,25.882354%);fill-opacity:0.995763;" d="M 30.0625 20.375 C 29.472656 19.78125 28.511719 19.78125 27.917969 20.375 C 27.324219 20.96875 27.324219 21.929688 27.917969 22.519531 C 28.511719 23.113281 29.472656 23.113281 30.0625 22.519531 C 30.65625 21.929688 30.65625 20.96875 30.0625 20.375 Z M 30.0625 20.375 "/>
<path style=" stroke:none;fill-rule:nonzero;fill:rgb(96.078432%,96.078432%,96.078432%);fill-opacity:0.995763;" d="M 14.261719 19.457031 C 16.03125 17.683594 18.664062 17.445312 20.140625 18.921875 C 21.613281 20.398438 21.375 23.027344 19.605469 24.800781 C 17.835938 26.570312 15.203125 26.808594 13.726562 25.332031 C 12.25 23.859375 12.492188 21.226562 14.261719 19.457031 Z M 14.261719 19.457031 "/>
<path style=" stroke:none;fill-rule:nonzero;fill:rgb(25.882354%,25.882354%,25.882354%);fill-opacity:0.995763;" d="M 17.765625 20.375 C 18.359375 19.78125 19.316406 19.78125 19.910156 20.375 C 20.503906 20.96875 20.503906 21.929688 19.910156 22.519531 C 19.316406 23.113281 18.359375 23.113281 17.765625 22.519531 C 17.171875 21.929688 17.171875 20.96875 17.765625 20.375 Z M 17.765625 20.375 "/>
<path style=" stroke:none;fill-rule:nonzero;fill:rgb(93.725491%,32.549021%,31.37255%);fill-opacity:1;" d="M 23.8125 32.621094 C 24.910156 32.621094 25.796875 33.066406 25.796875 33.613281 C 25.796875 34.160156 24.910156 34.605469 23.8125 34.605469 C 22.714844 34.605469 21.828125 34.160156 21.828125 33.613281 C 21.828125 33.066406 22.714844 32.621094 23.8125 32.621094 Z M 23.8125 32.621094 "/>
<path style=" stroke:none;fill-rule:nonzero;fill:rgb(69.01961%,74.509805%,77.254903%);fill-opacity:0.995763;" d="M 9.921875 8.3125 C 5.027344 16.671875 4.285156 25.867188 9.703125 31.828125 C 9.320312 26.859375 10.929688 19.714844 13.890625 14.265625 Z M 9.921875 8.3125 "/>
<path style=" stroke:none;fill-rule:nonzero;fill:rgb(81.176472%,84.705883%,86.274511%);fill-opacity:0.995763;" d="M 23.8125 3.351562 C 10.90625 3.351562 2.9375 13.074219 2.480469 22.699219 C 6.839844 17.605469 16.550781 12.28125 23.8125 12.28125 C 31.074219 12.28125 40.785156 17.605469 45.144531 22.699219 C 44.6875 13.074219 35.71875 3.351562 23.8125 3.351562 Z M 23.8125 3.351562 "/>
<path style=" stroke:none;fill-rule:nonzero;fill:rgb(81.176472%,84.705883%,86.274511%);fill-opacity:0.995763;" d="M 23.8125 3.132812 C 14.441406 5.582031 8.816406 13.691406 8.433594 21.738281 C 11.671875 17.953125 17.867188 14.042969 23.8125 12.28125 Z M 23.8125 3.132812 "/>
<path style=" stroke:none;fill-rule:nonzero;fill:rgb(81.176472%,84.705883%,86.274511%);fill-opacity:0.995763;" d="M 23.8125 5.195312 C 21.097656 8.566406 19.542969 12.679688 19.347656 16.777344 C 20.507812 15.421875 22.042969 14.054688 23.8125 12.769531 Z M 23.8125 5.195312 "/>
<path style=" stroke:none;fill-rule:nonzero;fill:rgb(81.176472%,84.705883%,86.274511%);fill-opacity:0.995763;" d="M 24.804688 4.703125 C 27.519531 8.078125 29.074219 12.191406 29.269531 16.285156 C 28.109375 14.933594 26.574219 13.5625 24.804688 12.28125 Z M 24.804688 4.703125 "/>
<path style=" stroke:none;fill-rule:nonzero;fill:rgb(69.01961%,74.509805%,77.254903%);fill-opacity:0.995763;" d="M 34.308594 8.339844 C 39.835938 16.292969 44.207031 24.097656 39.269531 30.457031 C 39.269531 25.476562 37.105469 18.480469 33.734375 13.273438 Z M 34.308594 8.339844 "/>
<path style=" stroke:none;fill-rule:nonzero;fill:rgb(81.176472%,84.705883%,86.274511%);fill-opacity:0.995763;" d="M 28.339844 4.167969 L 27.082031 7.128906 C 31.863281 11.078125 36.03125 17.101562 37.53125 21.851562 C 38.1875 20.078125 38.578125 18.183594 38.695312 16.25 C 37.050781 10.523438 33.121094 6.113281 28.339844 4.167969 Z M 28.339844 4.167969 "/>
<path style=" stroke:none;fill-rule:nonzero;fill:rgb(25.882354%,25.882354%,25.882354%);fill-opacity:1;" d="M 23.8125 28.652344 C 23.503906 28.652344 23.246094 28.546875 23.171875 28.402344 C 23.160156 28.378906 23.152344 28.351562 23.152344 28.320312 C 23.152344 28.261719 23.183594 28.203125 23.238281 28.15625 C 23.351562 28.253906 23.566406 28.320312 23.8125 28.320312 C 24.058594 28.320312 24.273438 28.253906 24.386719 28.15625 C 24.441406 28.203125 24.472656 28.261719 24.472656 28.320312 C 24.472656 28.351562 24.464844 28.378906 24.453125 28.402344 C 24.453125 28.40625 24.453125 28.40625 24.453125 28.40625 C 24.378906 28.546875 24.121094 28.652344 23.8125 28.652344 Z M 23.8125 28.652344 "/>
<path style=" stroke:none;fill-rule:nonzero;fill:rgb(69.01961%,74.509805%,77.254903%);fill-opacity:0.995763;" d="M 29.285156 9.304688 C 27.761719 6.308594 25.007812 3.773438 21.582031 2.109375 C 22.15625 3.359375 22.554688 4.851562 22.761719 6.457031 Z M 29.285156 9.304688 "/>
<path style=" stroke:none;fill-rule:nonzero;fill:rgb(69.01961%,74.509805%,77.254903%);fill-opacity:0.995763;" d="M 18.867188 7.566406 C 21.042969 5.007812 24.308594 3.179688 28.03125 2.359375 C 27.179688 3.4375 26.445312 4.796875 25.871094 6.3125 Z M 18.867188 7.566406 "/>
<path style=" stroke:none;fill-rule:nonzero;fill:rgb(69.01961%,74.509805%,77.254903%);fill-opacity:0.995763;" d="M 16.632812 7.566406 C 18.8125 5.007812 22.078125 3.179688 25.796875 2.359375 C 24.945312 3.4375 24.214844 4.796875 23.640625 6.3125 Z M 16.632812 7.566406 "/>
<path style=" stroke:none;fill-rule:nonzero;fill:rgb(69.01961%,74.509805%,77.254903%);fill-opacity:0.995763;" d="M 27.96875 6.328125 C 25.417969 4.136719 21.910156 2.839844 18.105469 2.609375 C 19.113281 3.539062 20.050781 4.769531 20.851562 6.179688 Z M 27.96875 6.328125 "/>
</g>
</svg>
