
<svg xmlns="http://www.w3.org/2000/svg" xmlns:xlink="http://www.w3.org/1999/xlink" width="48px" height="48px" viewBox="0 0 48 48" version="1.1">
<g id="surface1">
<path style=" stroke:none;fill-rule:nonzero;fill:rgb(74.117649%,74.117649%,74.117649%);fill-opacity:1;" d="M 3.96875 2.976562 L 19.84375 2.976562 C 20.941406 2.976562 21.828125 3.863281 21.828125 4.960938 L 21.828125 20.835938 C 21.828125 21.933594 20.941406 22.820312 19.84375 22.820312 L 3.96875 22.820312 C 2.871094 22.820312 1.984375 21.933594 1.984375 20.835938 L 1.984375 4.960938 C 1.984375 3.863281 2.871094 2.976562 3.96875 2.976562 Z M 3.96875 2.976562 "/>
<path style=" stroke:none;fill-rule:nonzero;fill:rgb(87.843138%,87.843138%,87.843138%);fill-opacity:1;" d="M 4.960938 3.96875 L 18.851562 3.96875 C 19.398438 3.96875 19.84375 4.414062 19.84375 4.960938 L 19.84375 18.851562 C 19.84375 19.398438 19.398438 19.84375 18.851562 19.84375 L 4.960938 19.84375 C 4.414062 19.84375 3.96875 19.398438 3.96875 18.851562 L 3.96875 4.960938 C 3.96875 4.414062 4.414062 3.96875 4.960938 3.96875 Z M 4.960938 3.96875 "/>
<path style=" stroke:none;fill-rule:nonzero;fill:rgb(74.117649%,74.117649%,74.117649%);fill-opacity:1;" d="M 25.796875 2.976562 L 41.671875 2.976562 C 42.769531 2.976562 43.65625 3.863281 43.65625 4.960938 L 43.65625 20.835938 C 43.65625 21.933594 42.769531 22.820312 41.671875 22.820312 L 25.796875 22.820312 C 24.699219 22.820312 23.8125 21.933594 23.8125 20.835938 L 23.8125 4.960938 C 23.8125 3.863281 24.699219 2.976562 25.796875 2.976562 Z M 25.796875 2.976562 "/>
<path style=" stroke:none;fill-rule:nonzero;fill:rgb(87.843138%,87.843138%,87.843138%);fill-opacity:1;" d="M 26.789062 3.96875 L 40.679688 3.96875 C 41.226562 3.96875 41.671875 4.414062 41.671875 4.960938 L 41.671875 18.851562 C 41.671875 19.398438 41.226562 19.84375 40.679688 19.84375 L 26.789062 19.84375 C 26.242188 19.84375 25.796875 19.398438 25.796875 18.851562 L 25.796875 4.960938 C 25.796875 4.414062 26.242188 3.96875 26.789062 3.96875 Z M 26.789062 3.96875 "/>
<path style=" stroke:none;fill-rule:nonzero;fill:rgb(74.117649%,74.117649%,74.117649%);fill-opacity:1;" d="M 5.953125 24.804688 L 21.828125 24.804688 C 22.925781 24.804688 23.8125 25.691406 23.8125 26.789062 L 23.8125 42.664062 C 23.8125 43.761719 22.925781 44.648438 21.828125 44.648438 L 5.953125 44.648438 C 4.855469 44.648438 3.96875 43.761719 3.96875 42.664062 L 3.96875 26.789062 C 3.96875 25.691406 4.855469 24.804688 5.953125 24.804688 Z M 5.953125 24.804688 "/>
<path style=" stroke:none;fill-rule:nonzero;fill:rgb(93.333334%,93.333334%,93.333334%);fill-opacity:1;" d="M 6.945312 25.796875 L 20.835938 25.796875 C 21.382812 25.796875 21.828125 26.242188 21.828125 26.789062 L 21.828125 40.679688 C 21.828125 41.226562 21.382812 41.671875 20.835938 41.671875 L 6.945312 41.671875 C 6.398438 41.671875 5.953125 41.226562 5.953125 40.679688 L 5.953125 26.789062 C 5.953125 26.242188 6.398438 25.796875 6.945312 25.796875 Z M 6.945312 25.796875 "/>
<path style=" stroke:none;fill-rule:nonzero;fill:rgb(74.117649%,74.117649%,74.117649%);fill-opacity:1;" d="M 27.78125 24.804688 L 43.65625 24.804688 C 44.753906 24.804688 45.640625 25.691406 45.640625 26.789062 L 45.640625 42.664062 C 45.640625 43.761719 44.753906 44.648438 43.65625 44.648438 L 27.78125 44.648438 C 26.683594 44.648438 25.796875 43.761719 25.796875 42.664062 L 25.796875 26.789062 C 25.796875 25.691406 26.683594 24.804688 27.78125 24.804688 Z M 27.78125 24.804688 "/>
<path style=" stroke:none;fill-rule:nonzero;fill:rgb(87.843138%,87.843138%,87.843138%);fill-opacity:1;" d="M 28.773438 25.796875 L 42.664062 25.796875 C 43.210938 25.796875 43.65625 26.242188 43.65625 26.789062 L 43.65625 40.679688 C 43.65625 41.226562 43.210938 41.671875 42.664062 41.671875 L 28.773438 41.671875 C 28.226562 41.671875 27.78125 41.226562 27.78125 40.679688 L 27.78125 26.789062 C 27.78125 26.242188 28.226562 25.796875 28.773438 25.796875 Z M 28.773438 25.796875 "/>
<path style=" stroke:none;fill-rule:nonzero;fill:rgb(38.039216%,38.039216%,38.039216%);fill-opacity:1;" d="M 30.757812 6.945312 C 30.484375 6.945312 30.261719 7.167969 30.261719 7.441406 L 30.261719 16.371094 C 30.261719 16.398438 30.265625 16.421875 30.265625 16.445312 C 30.304688 16.683594 30.507812 16.867188 30.757812 16.867188 L 36.710938 16.867188 C 36.984375 16.867188 37.207031 16.644531 37.207031 16.371094 L 37.207031 15.378906 C 37.207031 15.105469 36.984375 14.882812 36.710938 14.882812 L 32.246094 14.882812 L 32.246094 7.441406 C 32.246094 7.167969 32.023438 6.945312 31.75 6.945312 Z M 30.757812 6.945312 "/>
<path style=" stroke:none;fill-rule:nonzero;fill:rgb(40.000001%,73.333335%,41.568628%);fill-opacity:1;" d="M 12.402344 28.773438 C 11.304688 28.773438 10.417969 29.660156 10.417969 30.757812 L 10.417969 38.199219 C 10.417969 38.472656 10.640625 38.695312 10.914062 38.695312 L 11.90625 38.695312 C 12.179688 38.695312 12.402344 38.472656 12.402344 38.199219 L 12.402344 35.71875 L 15.378906 35.71875 L 15.378906 38.199219 C 15.378906 38.472656 15.601562 38.695312 15.875 38.695312 L 16.867188 38.695312 C 17.140625 38.695312 17.363281 38.472656 17.363281 38.199219 L 17.363281 30.757812 C 17.363281 29.660156 16.476562 28.773438 15.378906 28.773438 Z M 13.394531 30.757812 L 14.386719 30.757812 C 14.9375 30.757812 15.378906 31.199219 15.378906 31.75 L 15.378906 33.734375 L 12.402344 33.734375 L 12.402344 31.75 C 12.402344 31.199219 12.84375 30.757812 13.394531 30.757812 Z M 13.394531 30.757812 "/>
<path style=" stroke:none;fill-rule:nonzero;fill:rgb(38.039216%,38.039216%,38.039216%);fill-opacity:1;" d="M 14.203125 6.921875 C 14.074219 6.921875 13.949219 6.972656 13.851562 7.070312 L 10.4375 10.480469 L 10.394531 10.441406 L 10.394531 7.464844 C 10.394531 7.1875 10.175781 6.96875 9.898438 6.96875 L 8.90625 6.96875 C 8.632812 6.96875 8.410156 7.1875 8.410156 7.464844 L 8.410156 16.394531 C 8.410156 16.667969 8.632812 16.890625 8.90625 16.890625 L 9.898438 16.890625 C 10.175781 16.890625 10.394531 16.667969 10.394531 16.394531 L 10.394531 13.332031 L 10.4375 13.289062 L 13.851562 16.699219 C 14.046875 16.894531 14.359375 16.894531 14.554688 16.699219 L 15.253906 16 C 15.449219 15.804688 15.449219 15.492188 15.253906 15.296875 L 11.84375 11.886719 L 15.253906 8.472656 C 15.449219 8.277344 15.449219 7.964844 15.253906 7.769531 L 14.554688 7.070312 C 14.457031 6.972656 14.328125 6.921875 14.203125 6.921875 Z M 14.203125 6.921875 "/>
<path style=" stroke:none;fill-rule:nonzero;fill:rgb(38.039216%,38.039216%,38.039216%);fill-opacity:1;" d="M 33.804688 28.796875 C 33.753906 28.796875 33.707031 28.800781 33.65625 28.8125 L 32.695312 29.070312 C 32.429688 29.140625 32.273438 29.414062 32.347656 29.679688 L 34.65625 38.304688 C 34.730469 38.570312 34.972656 38.671875 35.273438 38.671875 C 35.71875 38.671875 35.71875 38.671875 36.164062 38.671875 C 36.460938 38.671875 36.707031 38.570312 36.78125 38.304688 L 39.089844 29.679688 C 39.164062 29.414062 39.007812 29.140625 38.742188 29.070312 L 37.78125 28.8125 C 37.515625 28.742188 37.246094 28.898438 37.175781 29.164062 L 35.71875 34.597656 L 34.261719 29.164062 C 34.207031 28.949219 34.015625 28.804688 33.804688 28.796875 Z M 33.804688 28.796875 "/>
</g>
</svg>
