<?xml version="1.0" encoding="UTF-8"?>
<svg xmlns="http://www.w3.org/2000/svg" xmlns:xlink="http://www.w3.org/1999/xlink" width="48px" height="48px" viewBox="0 0 48 48" version="1.1">
<g id="surface1">
<path style=" stroke:none;fill-rule:nonzero;fill:rgb(11.764706%,53.333336%,89.803922%);fill-opacity:1;" d="M 6.945312 5.335938 L 43.65625 5.335938 C 44.753906 5.335938 45.640625 6.222656 45.640625 7.320312 L 45.640625 19.226562 C 45.640625 20.324219 44.753906 21.210938 43.65625 21.210938 L 6.945312 21.210938 C 5.847656 21.210938 4.960938 20.324219 4.960938 19.226562 L 4.960938 7.320312 C 4.960938 6.222656 5.847656 5.335938 6.945312 5.335938 Z M 6.945312 5.335938 "/>
<path style=" stroke:none;fill-rule:nonzero;fill:rgb(96.078432%,96.078432%,96.078432%);fill-opacity:1;" d="M 23.8125 11.289062 L 43.65625 11.289062 C 44.203125 11.289062 44.648438 11.734375 44.648438 12.28125 L 44.648438 19.226562 C 44.648438 19.773438 44.203125 20.21875 43.65625 20.21875 L 23.8125 20.21875 C 23.265625 20.21875 22.820312 19.773438 22.820312 19.226562 L 22.820312 12.28125 C 22.820312 11.734375 23.265625 11.289062 23.8125 11.289062 Z M 23.8125 11.289062 "/>
<path style=" stroke:none;fill-rule:nonzero;fill:rgb(25.882354%,64.705884%,96.078432%);fill-opacity:1;" d="M 3.96875 9.304688 C 2.871094 9.304688 1.984375 10.191406 1.984375 11.289062 L 1.984375 41.054688 C 1.984375 42.152344 2.871094 43.039062 3.96875 43.039062 L 43.65625 43.039062 C 44.753906 43.039062 45.640625 42.152344 45.640625 41.054688 L 45.640625 18.234375 C 45.640625 17.136719 44.753906 16.265625 43.65625 16.25 L 30.757812 16.25 C 29.660156 16.25 28.773438 15.363281 28.773438 14.265625 L 28.773438 11.289062 C 28.773438 10.191406 27.886719 9.304688 26.789062 9.304688 Z M 3.96875 9.304688 "/>
<path style=" stroke:none;fill-rule:nonzero;fill:rgb(93.333334%,93.333334%,93.333334%);fill-opacity:1;" d="M 7.441406 25.191406 C 5.792969 25.191406 4.464844 26.519531 4.464844 28.167969 C 4.464844 29.816406 5.792969 31.144531 7.441406 31.144531 C 7.722656 31.144531 7.996094 31.105469 8.25 31.03125 L 11 35.792969 C 10.339844 36.339844 9.921875 37.164062 9.921875 38.089844 C 9.921875 39.738281 11.25 41.066406 12.898438 41.066406 C 14.546875 41.066406 15.875 39.738281 15.875 38.089844 C 15.875 37.164062 15.457031 36.339844 14.796875 35.792969 L 17.546875 31.03125 C 17.800781 31.105469 18.074219 31.144531 18.355469 31.144531 C 20.003906 31.144531 21.332031 29.816406 21.332031 28.167969 C 21.332031 26.519531 20.003906 25.191406 18.355469 25.191406 C 16.707031 25.191406 15.378906 26.519531 15.378906 28.167969 C 15.378906 29.179688 15.878906 30.070312 16.644531 30.605469 L 13.9375 35.296875 C 13.613281 35.179688 13.265625 35.113281 12.898438 35.113281 C 12.53125 35.113281 12.183594 35.179688 11.859375 35.296875 L 9.152344 30.605469 C 9.917969 30.070312 10.417969 29.179688 10.417969 28.167969 C 10.417969 26.519531 9.089844 25.191406 7.441406 25.191406 Z M 7.441406 25.191406 "/>
</g>
</svg>
