<?xml version="1.0" encoding="UTF-8"?>
<svg xmlns="http://www.w3.org/2000/svg" xmlns:xlink="http://www.w3.org/1999/xlink" width="48px" height="48px" viewBox="0 0 48 48" version="1.1">
<g id="surface1">
<path style=" stroke:none;fill-rule:nonzero;fill:rgb(87.843138%,87.843138%,87.843138%);fill-opacity:1;" d="M 7.9375 2.359375 L 39.6875 2.359375 C 40.785156 2.359375 41.671875 3.246094 41.671875 4.34375 L 41.671875 30.140625 C 41.671875 31.238281 40.785156 32.125 39.6875 32.125 L 7.9375 32.125 C 6.839844 32.125 5.953125 31.238281 5.953125 30.140625 L 5.953125 4.34375 C 5.953125 3.246094 6.839844 2.359375 7.9375 2.359375 Z M 7.9375 2.359375 "/>
<path style=" stroke:none;fill-rule:nonzero;fill:rgb(93.333334%,93.333334%,93.333334%);fill-opacity:1;" d="M 3.96875 30.140625 L 43.65625 30.140625 C 44.753906 30.140625 45.640625 31.027344 45.640625 32.125 L 45.640625 44.03125 C 45.640625 45.128906 44.753906 46.015625 43.65625 46.015625 L 3.96875 46.015625 C 2.871094 46.015625 1.984375 45.128906 1.984375 44.03125 L 1.984375 32.125 C 1.984375 31.027344 2.871094 30.140625 3.96875 30.140625 Z M 3.96875 30.140625 "/>
<path style=" stroke:none;fill-rule:nonzero;fill:rgb(14.901961%,65.098041%,60.392159%);fill-opacity:1;" d="M 9.425781 5.335938 L 21.332031 5.335938 C 21.605469 5.335938 21.828125 5.558594 21.828125 5.832031 L 21.828125 6.824219 C 21.828125 7.097656 21.605469 7.320312 21.332031 7.320312 L 9.425781 7.320312 C 9.152344 7.320312 8.929688 7.097656 8.929688 6.824219 L 8.929688 5.832031 C 8.929688 5.558594 9.152344 5.335938 9.425781 5.335938 Z M 9.425781 5.335938 "/>
<path style=" stroke:none;fill-rule:nonzero;fill:rgb(25.882354%,64.705884%,96.078432%);fill-opacity:1;" d="M 26.292969 5.335938 L 38.199219 5.335938 C 38.472656 5.335938 38.695312 5.558594 38.695312 5.832031 L 38.695312 6.824219 C 38.695312 7.097656 38.472656 7.320312 38.199219 7.320312 L 26.292969 7.320312 C 26.019531 7.320312 25.796875 7.097656 25.796875 6.824219 L 25.796875 5.832031 C 25.796875 5.558594 26.019531 5.335938 26.292969 5.335938 Z M 26.292969 5.335938 "/>
<path style=" stroke:none;fill-rule:nonzero;fill:rgb(14.901961%,65.098041%,60.392159%);fill-opacity:1;" d="M 5.953125 39.070312 C 5.953125 38.519531 6.394531 38.078125 6.945312 38.078125 L 18.851562 38.078125 L 18.851562 35.101562 L 24.804688 40.0625 L 18.851562 45.023438 L 18.851562 42.046875 L 6.945312 42.046875 C 6.394531 42.046875 5.953125 41.605469 5.953125 41.054688 Z M 5.953125 39.070312 "/>
<path style=" stroke:none;fill-rule:nonzero;fill:rgb(61.960787%,61.960787%,61.960787%);fill-opacity:1;" d="M 9.425781 10.296875 L 21.332031 10.296875 C 21.605469 10.296875 21.828125 10.519531 21.828125 10.792969 L 21.828125 11.785156 C 21.828125 12.058594 21.605469 12.28125 21.332031 12.28125 L 9.425781 12.28125 C 9.152344 12.28125 8.929688 12.058594 8.929688 11.785156 L 8.929688 10.792969 C 8.929688 10.519531 9.152344 10.296875 9.425781 10.296875 Z M 9.425781 10.296875 "/>
<path style=" stroke:none;fill-rule:nonzero;fill:rgb(61.960787%,61.960787%,61.960787%);fill-opacity:1;" d="M 26.292969 10.296875 L 38.199219 10.296875 C 38.472656 10.296875 38.695312 10.519531 38.695312 10.792969 L 38.695312 11.785156 C 38.695312 12.058594 38.472656 12.28125 38.199219 12.28125 L 26.292969 12.28125 C 26.019531 12.28125 25.796875 12.058594 25.796875 11.785156 L 25.796875 10.792969 C 25.796875 10.519531 26.019531 10.296875 26.292969 10.296875 Z M 26.292969 10.296875 "/>
<path style=" stroke:none;fill-rule:nonzero;fill:rgb(61.960787%,61.960787%,61.960787%);fill-opacity:1;" d="M 9.425781 15.257812 L 21.332031 15.257812 C 21.605469 15.257812 21.828125 15.480469 21.828125 15.753906 L 21.828125 16.746094 C 21.828125 17.019531 21.605469 17.242188 21.332031 17.242188 L 9.425781 17.242188 C 9.152344 17.242188 8.929688 17.019531 8.929688 16.746094 L 8.929688 15.753906 C 8.929688 15.480469 9.152344 15.257812 9.425781 15.257812 Z M 9.425781 15.257812 "/>
<path style=" stroke:none;fill-rule:nonzero;fill:rgb(61.960787%,61.960787%,61.960787%);fill-opacity:1;" d="M 26.292969 15.257812 L 38.199219 15.257812 C 38.472656 15.257812 38.695312 15.480469 38.695312 15.753906 L 38.695312 16.746094 C 38.695312 17.019531 38.472656 17.242188 38.199219 17.242188 L 26.292969 17.242188 C 26.019531 17.242188 25.796875 17.019531 25.796875 16.746094 L 25.796875 15.753906 C 25.796875 15.480469 26.019531 15.257812 26.292969 15.257812 Z M 26.292969 15.257812 "/>
<path style=" stroke:none;fill-rule:nonzero;fill:rgb(61.960787%,61.960787%,61.960787%);fill-opacity:1;" d="M 9.425781 20.21875 L 21.332031 20.21875 C 21.605469 20.21875 21.828125 20.441406 21.828125 20.714844 L 21.828125 21.707031 C 21.828125 21.980469 21.605469 22.203125 21.332031 22.203125 L 9.425781 22.203125 C 9.152344 22.203125 8.929688 21.980469 8.929688 21.707031 L 8.929688 20.714844 C 8.929688 20.441406 9.152344 20.21875 9.425781 20.21875 Z M 9.425781 20.21875 "/>
<path style=" stroke:none;fill-rule:nonzero;fill:rgb(61.960787%,61.960787%,61.960787%);fill-opacity:1;" d="M 26.292969 20.21875 L 38.199219 20.21875 C 38.472656 20.21875 38.695312 20.441406 38.695312 20.714844 L 38.695312 21.707031 C 38.695312 21.980469 38.472656 22.203125 38.199219 22.203125 L 26.292969 22.203125 C 26.019531 22.203125 25.796875 21.980469 25.796875 21.707031 L 25.796875 20.714844 C 25.796875 20.441406 26.019531 20.21875 26.292969 20.21875 Z M 26.292969 20.21875 "/>
<path style=" stroke:none;fill-rule:nonzero;fill:rgb(61.960787%,61.960787%,61.960787%);fill-opacity:1;" d="M 9.425781 25.179688 L 21.332031 25.179688 C 21.605469 25.179688 21.828125 25.402344 21.828125 25.675781 L 21.828125 26.667969 C 21.828125 26.941406 21.605469 27.164062 21.332031 27.164062 L 9.425781 27.164062 C 9.152344 27.164062 8.929688 26.941406 8.929688 26.667969 L 8.929688 25.675781 C 8.929688 25.402344 9.152344 25.179688 9.425781 25.179688 Z M 9.425781 25.179688 "/>
<path style=" stroke:none;fill-rule:nonzero;fill:rgb(61.960787%,61.960787%,61.960787%);fill-opacity:1;" d="M 26.292969 25.179688 L 38.199219 25.179688 C 38.472656 25.179688 38.695312 25.402344 38.695312 25.675781 L 38.695312 26.667969 C 38.695312 26.941406 38.472656 27.164062 38.199219 27.164062 L 26.292969 27.164062 C 26.019531 27.164062 25.796875 26.941406 25.796875 26.667969 L 25.796875 25.675781 C 25.796875 25.402344 26.019531 25.179688 26.292969 25.179688 Z M 26.292969 25.179688 "/>
<path style=" stroke:none;fill-rule:nonzero;fill:rgb(25.882354%,64.705884%,96.078432%);fill-opacity:1;" d="M 41.671875 35.101562 C 41.671875 34.550781 41.230469 34.109375 40.679688 34.109375 L 28.773438 34.109375 L 28.773438 31.132812 L 22.820312 36.09375 L 28.773438 41.054688 L 28.773438 38.078125 L 40.679688 38.078125 C 41.230469 38.078125 41.671875 37.636719 41.671875 37.085938 Z M 41.671875 35.101562 "/>
</g>
</svg>
