<?xml version="1.0" encoding="UTF-8"?>
<svg xmlns="http://www.w3.org/2000/svg" xmlns:xlink="http://www.w3.org/1999/xlink" width="48px" height="48px" viewBox="0 0 48 48" version="1.1">
<g id="surface1">
<path style=" stroke:none;fill-rule:nonzero;fill:rgb(55.29412%,43.137255%,38.82353%);fill-opacity:1;" d="M 23.355469 2.359375 C 29.398438 2.359375 32.902344 4.5625 36.851562 8.507812 C 40.796875 12.453125 41.734375 16.992188 41.734375 23.035156 C 41.734375 29.082031 42.75 35.6875 38.800781 39.632812 C 34.707031 43.730469 29.144531 46.027344 23.355469 46.011719 C 17.308594 46.011719 11.847656 43.578125 7.90625 39.632812 C 3.960938 35.6875 6.699219 31.261719 6.699219 25.21875 C 6.699219 19.171875 6.257812 14.175781 10.203125 10.230469 C 14.148438 6.285156 17.308594 2.359375 23.355469 2.359375 Z M 23.355469 2.359375 "/>
<path style=" stroke:none;fill-rule:nonzero;fill:rgb(96.078432%,96.078432%,96.078432%);fill-opacity:0.995763;" d="M 14.722656 16.734375 C 16.855469 14.601562 20.023438 14.3125 21.800781 16.089844 C 23.578125 17.867188 23.289062 21.035156 21.15625 23.167969 C 19.023438 25.300781 15.855469 25.589844 14.078125 23.8125 C 12.300781 22.035156 12.589844 18.867188 14.722656 16.734375 Z M 14.722656 16.734375 "/>
<path style=" stroke:none;fill-rule:nonzero;fill:rgb(25.882354%,25.882354%,25.882354%);fill-opacity:0.995763;" d="M 19.546875 18.339844 C 20.257812 17.632812 21.414062 17.632812 22.125 18.339844 C 22.832031 19.050781 22.832031 20.207031 22.125 20.914062 C 21.414062 21.625 20.257812 21.625 19.546875 20.914062 C 18.839844 20.207031 18.839844 19.050781 19.546875 18.339844 Z M 19.546875 18.339844 "/>
<path style=" stroke:none;fill-rule:nonzero;fill:rgb(96.078432%,96.078432%,96.078432%);fill-opacity:0.995763;" d="M 33.304688 23.167969 C 31.171875 25.300781 28.003906 25.589844 26.226562 23.8125 C 24.449219 22.035156 24.738281 18.867188 26.871094 16.734375 C 29.003906 14.601562 32.171875 14.3125 33.949219 16.089844 C 35.726562 17.867188 35.4375 21.035156 33.304688 23.167969 Z M 33.304688 23.167969 "/>
<path style=" stroke:none;fill-rule:nonzero;fill:rgb(25.882354%,25.882354%,25.882354%);fill-opacity:0.995763;" d="M 29.964844 23.988281 C 29.257812 24.695312 28.101562 24.695312 27.390625 23.988281 C 26.683594 23.277344 26.683594 22.121094 27.390625 21.410156 C 28.101562 20.703125 29.257812 20.703125 29.964844 21.410156 C 30.675781 22.121094 30.675781 23.277344 29.964844 23.988281 Z M 29.964844 23.988281 "/>
<path style=" stroke:none;fill-rule:nonzero;fill:rgb(100%,65.490198%,14.901961%);fill-opacity:1;" d="M 23.8125 22.203125 C 23.316406 22.203125 22.324219 24.1875 21.332031 27.164062 C 19.683594 27.164062 18.355469 28.492188 18.355469 30.140625 C 18.355469 31.789062 19.683594 33.117188 21.332031 33.117188 C 21.347656 33.117188 21.363281 33.117188 21.382812 33.117188 C 21.609375 34.25 22.609375 34.207031 23.8125 34.207031 C 25.015625 34.207031 26.015625 34.25 26.242188 33.117188 C 26.261719 33.117188 26.277344 33.117188 26.292969 33.117188 C 27.941406 33.117188 29.269531 31.789062 29.269531 30.140625 C 29.269531 28.492188 27.941406 27.164062 26.292969 27.164062 C 25.300781 24.1875 24.308594 22.203125 23.8125 22.203125 Z M 23.8125 22.203125 "/>
<path style=" stroke:none;fill-rule:nonzero;fill:rgb(98.431373%,54.901963%,0%);fill-opacity:1;" d="M 20.835938 30.636719 C 21.65625 30.636719 22.324219 31.191406 22.324219 31.878906 C 22.324219 32.5625 21.65625 33.117188 20.835938 33.117188 C 20.015625 33.117188 19.347656 32.5625 19.347656 31.878906 C 19.347656 31.191406 20.015625 30.636719 20.835938 30.636719 Z M 20.835938 30.636719 "/>
<path style=" stroke:none;fill-rule:nonzero;fill:rgb(98.431373%,54.901963%,0%);fill-opacity:1;" d="M 26.789062 30.636719 C 27.609375 30.636719 28.277344 31.191406 28.277344 31.878906 C 28.277344 32.5625 27.609375 33.117188 26.789062 33.117188 C 25.96875 33.117188 25.300781 32.5625 25.300781 31.878906 C 25.300781 31.191406 25.96875 30.636719 26.789062 30.636719 Z M 26.789062 30.636719 "/>
</g>
</svg>
