
<svg xmlns="http://www.w3.org/2000/svg" xmlns:xlink="http://www.w3.org/1999/xlink" width="48px" height="48px" viewBox="0 0 48 48" version="1.1">
<g id="surface1">
<path style=" stroke:none;fill-rule:nonzero;fill:rgb(93.725491%,32.549021%,31.37255%);fill-opacity:1;" d="M 3.96875 1.984375 L 43.65625 1.984375 C 44.753906 1.984375 45.640625 2.871094 45.640625 3.96875 L 45.640625 43.65625 C 45.640625 44.753906 44.753906 45.640625 43.65625 45.640625 L 3.96875 45.640625 C 2.871094 45.640625 1.984375 44.753906 1.984375 43.65625 L 1.984375 3.96875 C 1.984375 2.871094 2.871094 1.984375 3.96875 1.984375 Z M 3.96875 1.984375 "/>
<path style=" stroke:none;fill-rule:nonzero;fill:rgb(96.078432%,96.078432%,96.078432%);fill-opacity:1;" d="M 16.210938 33.351562 C 15.59375 33.265625 14.5 32.90625 13.765625 32.546875 C 9 30.226562 7.050781 24.386719 9.398438 19.464844 C 12.082031 13.835938 19.398438 12.402344 23.800781 16.640625 C 25.074219 17.863281 25.640625 18.910156 27.558594 23.539062 C 29.558594 28.378906 29.929688 29.140625 30.578125 29.785156 C 31.273438 30.472656 31.917969 30.703125 33.148438 30.703125 C 35.171875 30.703125 36.617188 29.433594 36.617188 27.660156 C 36.617188 26.160156 36.097656 25.679688 33.449219 24.722656 C 29.417969 23.246094 28.109375 21.910156 28.105469 19.230469 C 28.105469 17.796875 28.460938 16.84375 29.371094 15.855469 C 30.671875 14.445312 32.917969 13.976562 34.902344 14.679688 C 35.753906 14.984375 37.527344 16.578125 37.527344 17.035156 C 37.527344 17.257812 36.496094 17.933594 35.925781 18.09375 C 35.625 18.171875 35.367188 18.074219 35.019531 17.730469 C 34.316406 17.046875 33.839844 16.832031 32.996094 16.832031 C 31.539062 16.832031 30.636719 17.722656 30.636719 19.15625 C 30.636719 20.589844 31.210938 21.074219 34.078125 22.054688 C 38.03125 23.410156 39.195312 24.632812 39.21875 27.464844 C 39.246094 29.910156 38.160156 31.675781 36 32.71875 C 35.019531 33.191406 34.6875 33.25 33.082031 33.25 C 30.792969 33.25 29.765625 32.820312 28.484375 31.351562 C 27.621094 30.363281 26.746094 28.511719 23.945312 21.742188 C 22.78125 18.941406 21.292969 17.566406 18.804688 17.023438 C 17.542969 16.75 15.789062 17.007812 14.644531 17.617188 C 13.527344 18.210938 12.28125 19.546875 11.695312 20.769531 C 11.207031 21.761719 11.160156 22.039062 11.160156 23.765625 C 11.160156 25.414062 11.226562 25.800781 11.632812 26.707031 C 12.25 28.085938 13.464844 29.359375 14.796875 30.046875 C 15.761719 30.539062 16.0625 30.601562 17.597656 30.601562 C 19.078125 30.601562 19.457031 30.53125 20.335938 30.101562 C 21.34375 29.601562 22.695312 28.378906 23.246094 27.464844 L 23.53125 26.988281 L 24.097656 28.300781 C 24.414062 29.023438 24.667969 29.707031 24.667969 29.828125 C 24.667969 30.191406 23.390625 31.378906 22.21875 32.117188 C 20.4375 33.230469 18.394531 33.648438 16.214844 33.347656 M 16.210938 33.347656 "/>
</g>
</svg>
