
<svg xmlns="http://www.w3.org/2000/svg" xmlns:xlink="http://www.w3.org/1999/xlink" width="48px" height="48px" viewBox="0 0 48 48" version="1.1">
<g id="surface1">
<path style=" stroke:none;fill-rule:nonzero;fill:rgb(61.960787%,61.960787%,61.960787%);fill-opacity:1;" d="M 3.90625 1.984375 L 43.71875 1.984375 C 44.78125 1.984375 45.640625 2.84375 45.640625 3.90625 L 45.640625 43.71875 C 45.640625 44.78125 44.78125 45.640625 43.71875 45.640625 L 3.90625 45.640625 C 2.84375 45.640625 1.984375 44.78125 1.984375 43.71875 L 1.984375 3.90625 C 1.984375 2.84375 2.84375 1.984375 3.90625 1.984375 Z M 3.90625 1.984375 "/>
<path style=" stroke:none;fill-rule:nonzero;fill:rgb(74.117649%,74.117649%,74.117649%);fill-opacity:1;" d="M 15.980469 1.984375 L 15.945312 2.003906 L 36.78125 38.09375 L 38.5 37.101562 L 18.226562 1.984375 Z M 22.808594 1.984375 L 35.984375 24.804688 L 37.703125 23.8125 L 25.101562 1.984375 Z M 6.363281 5.246094 L 4.644531 6.238281 L 25.480469 42.328125 L 27.199219 41.335938 Z M 17.46875 12.582031 L 15.75 13.574219 L 34.265625 45.640625 L 36.558594 45.640625 Z M 39.882812 15.679688 L 38.164062 16.671875 L 45.640625 29.625 L 45.640625 25.65625 Z M 8.152344 20.253906 L 6.433594 21.246094 L 20.519531 45.640625 L 22.808594 45.640625 Z M 1.984375 21.476562 L 1.984375 25.445312 L 13.644531 45.640625 L 15.933594 45.640625 Z M 1.984375 21.476562 "/>
<path style=" stroke:none;fill-rule:nonzero;fill:rgb(25.882354%,25.882354%,25.882354%);fill-opacity:1;" d="M 19.019531 40.640625 C 19.265625 38.328125 20.429688 36.460938 22.34375 34.964844 C 22.652344 34.445312 21.863281 33.90625 21.652344 33.652344 C 15.023438 29.132812 8.871094 27.066406 9.671875 18.898438 C 9.328125 18.941406 8.9375 18.882812 8.984375 18.386719 L 9.359375 17.652344 C 9.554688 17.386719 9.746094 17.414062 9.941406 17.335938 C 9.84375 17.078125 9.574219 16.765625 9.691406 16.433594 C 10.300781 14.65625 11.011719 13.445312 12.117188 12.082031 C 12.542969 11.792969 12.949219 11.425781 13.417969 11.339844 C 14.035156 10.710938 14.242188 10.265625 15.144531 9.660156 C 15.609375 9.4375 15.953125 9.511719 16.203125 9.820312 C 16.410156 9.398438 17.285156 9.101562 17.902344 8.636719 C 18.140625 8.417969 18.324219 8.570312 18.515625 8.648438 C 20.984375 6.894531 21.257812 6.53125 23.164062 5.980469 C 23.898438 6.078125 23.445312 6.574219 23.46875 6.910156 C 24.777344 6.023438 26.109375 5.488281 27.464844 5.445312 C 28.230469 4.777344 30.320312 4.671875 29.976562 5.953125 C 30.921875 5.75 31.558594 5.640625 32.574219 5.773438 C 33.8125 5.898438 33.921875 6.230469 33.574219 6.949219 C 34.832031 6.707031 36.136719 7.628906 35.78125 8.09375 L 35.65625 8.609375 C 36.058594 8.558594 36.214844 8.683594 36.46875 8.738281 C 36.777344 8.9375 36.730469 9.136719 36.6875 9.332031 C 36.316406 9.800781 35.519531 10.433594 34.570312 10.796875 L 35.25 10.996094 C 35.386719 11.023438 35.628906 11.152344 35.511719 11.269531 C 34.824219 12.503906 33.9375 13.378906 33.089844 14.324219 C 33.71875 16.398438 33.917969 17.480469 34.335938 19.058594 C 34.433594 19.808594 34.625 20.363281 34.914062 21.027344 C 37.097656 29.40625 30.511719 31.589844 29.019531 33.359375 C 28.734375 33.898438 28.527344 34.453125 28.910156 35.09375 C 30.277344 35.828125 31.726562 40.515625 31.394531 40.636719 C 26.242188 42.914062 23.8125 42.761719 19.019531 40.640625 Z M 19.019531 40.640625 "/>
<path style=" stroke:none;fill-rule:nonzero;fill:rgb(61.960787%,61.960787%,61.960787%);fill-opacity:1;" d="M 26.136719 20.898438 C 26.871094 20.898438 27.46875 21.496094 27.46875 22.230469 C 27.46875 22.964844 26.871094 23.5625 26.136719 23.5625 C 25.402344 23.5625 24.804688 22.964844 24.804688 22.230469 C 24.804688 21.496094 25.402344 20.898438 26.136719 20.898438 Z M 26.136719 20.898438 "/>
<path style=" stroke:none;fill-rule:nonzero;fill:rgb(93.333334%,93.333334%,93.333334%);fill-opacity:1;" d="M 26.136719 21.199219 C 26.703125 21.199219 27.167969 21.660156 27.167969 22.230469 C 27.167969 22.800781 26.703125 23.261719 26.136719 23.261719 C 25.566406 23.261719 25.105469 22.800781 25.105469 22.230469 C 25.105469 21.660156 25.566406 21.199219 26.136719 21.199219 Z M 26.136719 21.199219 "/>
<path style=" stroke:none;fill-rule:nonzero;fill:rgb(74.117649%,74.117649%,74.117649%);fill-opacity:1;" d="M 32.871094 18.683594 C 33.601562 18.683594 34.195312 19.273438 34.195312 20.007812 C 34.195312 20.738281 33.601562 21.332031 32.871094 21.332031 C 32.136719 21.332031 31.546875 20.738281 31.546875 20.007812 C 31.546875 19.273438 32.136719 18.683594 32.871094 18.683594 Z M 32.871094 18.683594 "/>
<path style=" stroke:none;fill-rule:nonzero;fill:rgb(93.333334%,93.333334%,93.333334%);fill-opacity:1;" d="M 32.871094 19.011719 C 33.417969 19.011719 33.863281 19.457031 33.863281 20.007812 C 33.863281 20.554688 33.417969 21 32.871094 21 C 32.320312 21 31.875 20.554688 31.875 20.007812 C 31.875 19.457031 32.320312 19.011719 32.871094 19.011719 Z M 32.871094 19.011719 "/>
</g>
</svg>
