<?xml version="1.0" encoding="UTF-8"?>
<svg xmlns="http://www.w3.org/2000/svg" xmlns:xlink="http://www.w3.org/1999/xlink" width="48px" height="48px" viewBox="0 0 48 48" version="1.1">
<g id="surface1">
<path style=" stroke:none;fill-rule:nonzero;fill:rgb(25.882354%,64.705884%,96.078432%);fill-opacity:1;" d="M 3.96875 2.359375 L 43.65625 2.359375 C 44.753906 2.359375 45.640625 3.246094 45.640625 4.34375 L 45.640625 44.03125 C 45.640625 45.128906 44.753906 46.015625 43.65625 46.015625 L 3.96875 46.015625 C 2.871094 46.015625 1.984375 45.128906 1.984375 44.03125 L 1.984375 4.34375 C 1.984375 3.246094 2.871094 2.359375 3.96875 2.359375 Z M 3.96875 2.359375 "/>
<path style=" stroke:none;fill-rule:nonzero;fill:rgb(40.000001%,73.333335%,41.568628%);fill-opacity:1;" d="M 45.0625 2.9375 L 2.5625 45.4375 C 2.921875 45.792969 3.417969 46.015625 3.96875 46.015625 L 43.65625 46.015625 C 44.753906 46.015625 45.640625 45.128906 45.640625 44.03125 L 45.640625 4.34375 C 45.640625 3.792969 45.417969 3.296875 45.0625 2.9375 Z M 45.0625 2.9375 "/>
<path style=" stroke:none;fill-rule:nonzero;fill:rgb(93.333334%,93.333334%,93.333334%);fill-opacity:1;" d="M 42.664062 2.359375 L 1.984375 43.039062 L 1.984375 44.03125 C 1.984375 45.128906 2.871094 46.015625 3.96875 46.015625 L 4.960938 46.015625 L 23.984375 26.992188 L 43.003906 46.015625 L 43.65625 46.015625 C 44.753906 46.015625 45.640625 45.128906 45.640625 44.03125 L 45.640625 43.039062 L 26.789062 24.1875 L 45.640625 5.335938 L 45.640625 4.34375 C 45.640625 3.246094 44.753906 2.359375 43.65625 2.359375 Z M 42.664062 2.359375 "/>
<path style=" stroke:none;fill-rule:nonzero;fill:rgb(93.725491%,32.549021%,31.37255%);fill-opacity:1;" d="M 23.8125 5.335938 C 20.015625 5.335938 16.957031 8.394531 16.957031 12.191406 C 16.957031 17.332031 20.386719 20.761719 23.8125 24.1875 C 27.238281 20.761719 30.667969 17.332031 30.667969 12.191406 C 30.667969 8.394531 27.609375 5.335938 23.8125 5.335938 Z M 23.8125 8.761719 C 25.710938 8.761719 27.238281 10.292969 27.238281 12.191406 C 27.238281 14.089844 25.710938 15.617188 23.8125 15.617188 C 21.914062 15.617188 20.386719 14.089844 20.386719 12.191406 C 20.386719 10.292969 21.914062 8.761719 23.8125 8.761719 Z M 23.8125 8.761719 "/>
</g>
</svg>
