
<svg xmlns="http://www.w3.org/2000/svg" xmlns:xlink="http://www.w3.org/1999/xlink" width="48px" height="48px" viewBox="0 0 48 48" version="1.1">
<g id="surface1">
<path style=" stroke:none;fill-rule:nonzero;fill:rgb(93.333334%,93.333334%,93.333334%);fill-opacity:1;" d="M 3.96875 1.984375 L 43.65625 1.984375 C 44.753906 1.984375 45.640625 2.871094 45.640625 3.96875 L 45.640625 43.65625 C 45.640625 44.753906 44.753906 45.640625 43.65625 45.640625 L 3.96875 45.640625 C 2.871094 45.640625 1.984375 44.753906 1.984375 43.65625 L 1.984375 3.96875 C 1.984375 2.871094 2.871094 1.984375 3.96875 1.984375 Z M 3.96875 1.984375 "/>
<path style=" stroke:none;fill-rule:nonzero;fill:rgb(40.000001%,73.333335%,41.568628%);fill-opacity:1;" d="M 24.804688 8.929688 L 24.804688 22.820312 L 38.695312 22.820312 L 38.695312 10.914062 C 38.695312 9.816406 37.808594 8.929688 36.710938 8.929688 Z M 24.804688 8.929688 "/>
<path style=" stroke:none;fill-rule:nonzero;fill:rgb(93.725491%,32.549021%,31.37255%);fill-opacity:1;" d="M 22.820312 8.929688 L 22.820312 22.820312 L 8.929688 22.820312 L 8.929688 10.914062 C 8.929688 9.816406 9.816406 8.929688 10.914062 8.929688 Z M 22.820312 8.929688 "/>
<path style=" stroke:none;fill-rule:nonzero;fill:rgb(100%,79.215688%,15.686275%);fill-opacity:1;" d="M 24.804688 38.695312 L 24.804688 24.804688 L 38.695312 24.804688 L 38.695312 36.710938 C 38.695312 37.808594 37.808594 38.695312 36.710938 38.695312 Z M 24.804688 38.695312 "/>
<path style=" stroke:none;fill-rule:nonzero;fill:rgb(25.882354%,64.705884%,96.078432%);fill-opacity:1;" d="M 22.820312 38.695312 L 22.820312 24.804688 L 8.929688 24.804688 L 8.929688 36.710938 C 8.929688 37.808594 9.816406 38.695312 10.914062 38.695312 Z M 22.820312 38.695312 "/>
</g>
</svg>
