<?xml version="1.0" encoding="UTF-8"?>
<svg xmlns="http://www.w3.org/2000/svg" xmlns:xlink="http://www.w3.org/1999/xlink" width="48px" height="48px" viewBox="0 0 48 48" version="1.1">
<g id="surface1">
<path style=" stroke:none;fill-rule:nonzero;fill:rgb(61.176473%,80.000001%,39.607844%);fill-opacity:1;" d="M 31.75 2.359375 L 7.9375 2.359375 C 6.839844 2.359375 5.953125 3.246094 5.953125 4.34375 L 5.953125 44.03125 C 5.953125 45.128906 6.839844 46.015625 7.9375 46.015625 L 39.6875 46.015625 C 40.785156 46.015625 41.671875 45.128906 41.671875 44.03125 L 41.671875 12.28125 Z M 31.75 2.359375 "/>
<path style=" stroke:none;fill-rule:nonzero;fill:rgb(77.254903%,88.235295%,64.705884%);fill-opacity:1;" d="M 41.671875 12.28125 L 31.75 2.359375 L 31.75 10.296875 C 31.75 11.394531 32.636719 12.28125 33.734375 12.28125 Z M 41.671875 12.28125 "/>
<path style=" stroke:none;fill-rule:nonzero;fill:rgb(93.725491%,32.549021%,31.37255%);fill-opacity:1;" d="M 18.355469 13.273438 L 23.316406 13.273438 C 23.589844 13.273438 23.8125 13.496094 23.8125 13.769531 C 23.8125 14.042969 23.589844 14.265625 23.316406 14.265625 L 18.355469 14.265625 C 18.082031 14.265625 17.859375 14.042969 17.859375 13.769531 C 17.859375 13.496094 18.082031 13.273438 18.355469 13.273438 Z M 18.355469 13.273438 "/>
<path style=" stroke:none;fill-rule:nonzero;fill:rgb(96.078432%,96.078432%,96.078432%);fill-opacity:1;" d="M 18.316406 24.265625 L 33.277344 24.265625 C 33.53125 24.265625 33.734375 24.472656 33.734375 24.722656 C 33.734375 24.976562 33.53125 25.179688 33.277344 25.179688 L 18.316406 25.179688 C 18.0625 25.179688 17.859375 24.976562 17.859375 24.722656 C 17.859375 24.472656 18.0625 24.265625 18.316406 24.265625 Z M 18.316406 24.265625 "/>
<path style=" stroke:none;fill-rule:nonzero;fill:rgb(96.078432%,96.078432%,96.078432%);fill-opacity:1;" d="M 18.355469 32.125 L 31.253906 32.125 C 31.527344 32.125 31.75 32.347656 31.75 32.621094 C 31.75 32.894531 31.527344 33.117188 31.253906 33.117188 L 18.355469 33.117188 C 18.082031 33.117188 17.859375 32.894531 17.859375 32.621094 C 17.859375 32.347656 18.082031 32.125 18.355469 32.125 Z M 18.355469 32.125 "/>
<path style=" stroke:none;fill-rule:nonzero;fill:rgb(25.882354%,64.705884%,96.078432%);fill-opacity:1;" d="M 13.890625 21.210938 C 14.988281 21.210938 15.875 22.097656 15.875 23.195312 C 15.875 24.292969 14.988281 25.179688 13.890625 25.179688 C 12.792969 25.179688 11.90625 24.292969 11.90625 23.195312 C 11.90625 22.097656 12.792969 21.210938 13.890625 21.210938 Z M 13.890625 21.210938 "/>
<path style=" stroke:none;fill-rule:nonzero;fill:rgb(25.882354%,64.705884%,96.078432%);fill-opacity:1;" d="M 13.890625 29.148438 C 14.988281 29.148438 15.875 30.035156 15.875 31.132812 C 15.875 32.230469 14.988281 33.117188 13.890625 33.117188 C 12.792969 33.117188 11.90625 32.230469 11.90625 31.132812 C 11.90625 30.035156 12.792969 29.148438 13.890625 29.148438 Z M 13.890625 29.148438 "/>
<path style=" stroke:none;fill-rule:nonzero;fill:rgb(93.725491%,32.549021%,31.37255%);fill-opacity:1;" d="M 13.890625 13.210938 C 13.222656 13.210938 12.539062 13.425781 12.050781 13.914062 C 11.957031 14.007812 11.90625 14.132812 11.90625 14.265625 C 11.90625 14.925781 12.203125 15.542969 12.546875 16.058594 C 12.890625 16.574219 13.242188 16.976562 13.667969 17.191406 C 13.808594 17.261719 13.972656 17.261719 14.113281 17.191406 C 14.539062 16.976562 14.890625 16.574219 15.234375 16.058594 C 15.578125 15.542969 15.875 14.925781 15.875 14.265625 C 15.875 14.132812 15.824219 14.007812 15.730469 13.914062 C 15.242188 13.425781 14.558594 13.210938 13.890625 13.210938 Z M 13.890625 13.210938 "/>
<path style=" stroke:none;fill-rule:nonzero;fill:rgb(96.078432%,96.078432%,96.078432%);fill-opacity:1;" d="M 18.355469 16.25 L 28.277344 16.25 C 28.550781 16.25 28.773438 16.472656 28.773438 16.746094 C 28.773438 17.019531 28.550781 17.242188 28.277344 17.242188 L 18.355469 17.242188 C 18.082031 17.242188 17.859375 17.019531 17.859375 16.746094 C 17.859375 16.472656 18.082031 16.25 18.355469 16.25 Z M 18.355469 16.25 "/>
<path style=" stroke:none;fill-rule:nonzero;fill:rgb(25.882354%,64.705884%,96.078432%);fill-opacity:1;" d="M 18.355469 21.210938 L 23.316406 21.210938 C 23.589844 21.210938 23.8125 21.433594 23.8125 21.707031 C 23.8125 21.980469 23.589844 22.203125 23.316406 22.203125 L 18.355469 22.203125 C 18.082031 22.203125 17.859375 21.980469 17.859375 21.707031 C 17.859375 21.433594 18.082031 21.210938 18.355469 21.210938 Z M 18.355469 21.210938 "/>
<path style=" stroke:none;fill-rule:nonzero;fill:rgb(25.882354%,64.705884%,96.078432%);fill-opacity:1;" d="M 18.355469 29.148438 L 23.316406 29.148438 C 23.589844 29.148438 23.8125 29.371094 23.8125 29.644531 C 23.8125 29.917969 23.589844 30.140625 23.316406 30.140625 L 18.355469 30.140625 C 18.082031 30.140625 17.859375 29.917969 17.859375 29.644531 C 17.859375 29.371094 18.082031 29.148438 18.355469 29.148438 Z M 18.355469 29.148438 "/>
<path style=" stroke:none;fill-rule:nonzero;fill:rgb(96.078432%,96.078432%,96.078432%);fill-opacity:1;" d="M 25.300781 22.203125 L 35.222656 22.203125 C 35.496094 22.203125 35.71875 21.980469 35.71875 21.707031 C 35.71875 21.433594 35.496094 21.210938 35.222656 21.210938 L 25.300781 21.210938 C 25.027344 21.210938 24.804688 21.433594 24.804688 21.707031 C 24.804688 21.980469 25.027344 22.203125 25.300781 22.203125 Z M 25.300781 22.203125 "/>
<path style=" stroke:none;fill-rule:nonzero;fill:rgb(96.078432%,96.078432%,96.078432%);fill-opacity:1;" d="M 25.300781 14.265625 L 35.222656 14.265625 C 35.496094 14.265625 35.71875 14.042969 35.71875 13.769531 C 35.71875 13.496094 35.496094 13.273438 35.222656 13.273438 L 25.300781 13.273438 C 25.027344 13.273438 24.804688 13.496094 24.804688 13.769531 C 24.804688 14.042969 25.027344 14.265625 25.300781 14.265625 Z M 25.300781 14.265625 "/>
<path style=" stroke:none;fill-rule:nonzero;fill:rgb(96.078432%,96.078432%,96.078432%);fill-opacity:1;" d="M 25.300781 30.140625 L 35.222656 30.140625 C 35.496094 30.140625 35.71875 29.917969 35.71875 29.644531 C 35.71875 29.371094 35.496094 29.148438 35.222656 29.148438 L 25.300781 29.148438 C 25.027344 29.148438 24.804688 29.371094 24.804688 29.644531 C 24.804688 29.917969 25.027344 30.140625 25.300781 30.140625 Z M 25.300781 30.140625 "/>
</g>
</svg>
