<?xml version="1.0" encoding="UTF-8"?>
<svg xmlns="http://www.w3.org/2000/svg" xmlns:xlink="http://www.w3.org/1999/xlink" width="48px" height="48px" viewBox="0 0 48 48" version="1.1">
<g id="surface1">
<path style=" stroke:none;fill-rule:nonzero;fill:rgb(72.941178%,40.784314%,78.431374%);fill-opacity:1;" d="M 23.8125 2.359375 C 35.867188 2.359375 45.640625 12.132812 45.640625 24.1875 C 45.640625 36.242188 35.867188 46.015625 23.8125 46.015625 C 11.757812 46.015625 1.984375 36.242188 1.984375 24.1875 C 1.984375 12.132812 11.757812 2.359375 23.8125 2.359375 Z M 23.8125 2.359375 "/>
<path style=" stroke:none;fill-rule:nonzero;fill:rgb(67.058825%,27.843139%,73.725492%);fill-opacity:1;" d="M 23.8125 42.046875 C 33.402344 42.046875 41.175781 34.273438 41.175781 24.683594 C 41.175781 15.09375 33.402344 7.320312 23.8125 7.320312 C 14.222656 7.320312 6.449219 15.09375 6.449219 24.683594 C 6.449219 34.273438 14.222656 42.046875 23.8125 42.046875 Z M 23.8125 42.046875 "/>
<path style=" stroke:none;fill-rule:nonzero;fill:rgb(96.078432%,96.078432%,96.078432%);fill-opacity:1;" d="M 23.8125 10.296875 C 31.757812 10.296875 38.199219 16.738281 38.199219 24.683594 C 38.199219 32.628906 31.757812 39.070312 23.8125 39.070312 C 15.867188 39.070312 9.425781 32.628906 9.425781 24.683594 C 9.425781 16.738281 15.867188 10.296875 23.8125 10.296875 Z M 23.8125 10.296875 "/>
<path style=" stroke:none;fill-rule:nonzero;fill:rgb(67.058825%,27.843139%,73.725492%);fill-opacity:1;" d="M 19.84375 16.25 C 19.3125 16.269531 18.890625 16.703125 18.890625 17.238281 L 18.890625 31.128906 C 18.890625 31.90625 19.75 32.378906 20.40625 31.960938 L 31.320312 25.015625 C 31.929688 24.628906 31.929688 23.738281 31.320312 23.347656 L 20.40625 16.402344 C 20.238281 16.296875 20.042969 16.242188 19.84375 16.25 Z M 19.84375 16.25 "/>
</g>
</svg>
