<?xml version="1.0" encoding="UTF-8"?>
<svg xmlns="http://www.w3.org/2000/svg" xmlns:xlink="http://www.w3.org/1999/xlink" width="48px" height="48px" viewBox="0 0 48 48" version="1.1">
<g id="surface1">
<path style=" stroke:none;fill-rule:nonzero;fill:rgb(40.000001%,73.333335%,41.568628%);fill-opacity:1;" d="M 3.96875 2.359375 L 43.65625 2.359375 C 44.753906 2.359375 45.640625 3.246094 45.640625 4.34375 L 45.640625 44.03125 C 45.640625 45.128906 44.753906 46.015625 43.65625 46.015625 L 3.96875 46.015625 C 2.871094 46.015625 1.984375 45.128906 1.984375 44.03125 L 1.984375 4.34375 C 1.984375 3.246094 2.871094 2.359375 3.96875 2.359375 Z M 3.96875 2.359375 "/>
<path style=" stroke:none;fill-rule:nonzero;fill:rgb(93.333334%,93.333334%,93.333334%);fill-opacity:1;" d="M 9.582031 22.53125 C 9.582031 22.53125 12.796875 17.730469 19.207031 17.234375 L 19.207031 15.492188 C 12.105469 16.070312 5.953125 22.164062 5.953125 22.164062 C 5.953125 22.164062 9.4375 32.367188 19.210938 33.300781 L 19.210938 31.449219 C 12.039062 30.535156 9.582031 22.53125 9.582031 22.53125 Z M 19.207031 27.765625 L 19.207031 29.464844 C 13.789062 28.484375 12.289062 22.777344 12.289062 22.777344 C 12.289062 22.777344 14.886719 19.859375 19.210938 19.382812 L 19.210938 21.246094 L 19.203125 21.246094 C 16.933594 20.96875 15.160156 23.113281 15.160156 23.113281 C 15.160156 23.113281 16.152344 26.726562 19.207031 27.765625 M 19.207031 12.28125 L 19.207031 15.492188 C 19.414062 15.472656 19.628906 15.460938 19.835938 15.457031 C 27.914062 15.179688 33.175781 22.167969 33.175781 22.167969 C 33.175781 22.167969 27.128906 29.609375 20.835938 29.609375 C 20.257812 29.609375 19.714844 29.554688 19.207031 29.464844 L 19.207031 31.453125 C 19.644531 31.503906 20.089844 31.539062 20.5625 31.539062 C 26.421875 31.539062 30.660156 28.507812 34.761719 24.921875 C 35.445312 25.472656 38.226562 26.816406 38.800781 27.402344 C 34.898438 30.710938 25.808594 33.378906 20.648438 33.378906 C 20.15625 33.378906 19.675781 33.347656 19.207031 33.300781 L 19.207031 36.09375 L 41.480469 36.09375 L 41.480469 12.28125 Z M 19.207031 19.382812 L 19.207031 17.234375 C 19.414062 17.21875 19.621094 17.207031 19.835938 17.203125 C 25.644531 17.019531 29.453125 22.257812 29.453125 22.257812 C 29.453125 22.257812 25.339844 28.046875 20.925781 28.046875 C 20.339844 28.050781 19.761719 27.957031 19.207031 27.769531 L 19.207031 21.246094 C 21.46875 21.523438 21.925781 22.535156 23.285156 24.828125 L 26.304688 22.25 C 26.304688 22.25 24.101562 19.316406 20.378906 19.316406 C 19.976562 19.316406 19.589844 19.34375 19.207031 19.386719 "/>
</g>
</svg>
