<?xml version="1.0" encoding="UTF-8"?>
<svg xmlns="http://www.w3.org/2000/svg" xmlns:xlink="http://www.w3.org/1999/xlink" width="48px" height="48px" viewBox="0 0 48 48" version="1.1">
<g id="surface1">
<path style=" stroke:none;fill-rule:nonzero;fill:rgb(25.882354%,25.882354%,25.882354%);fill-opacity:1;" d="M 23.8125 2.359375 C 35.867188 2.359375 45.640625 12.132812 45.640625 24.1875 C 45.640625 36.242188 35.867188 46.015625 23.8125 46.015625 C 11.757812 46.015625 1.984375 36.242188 1.984375 24.1875 C 1.984375 12.132812 11.757812 2.359375 23.8125 2.359375 Z M 23.8125 2.359375 "/>
<path style=" stroke:none;fill-rule:nonzero;fill:rgb(100%,43.921569%,26.274511%);fill-opacity:1;" d="M 20.375 11.289062 C 19.890625 11.289062 19.445312 11.546875 19.203125 11.964844 L 9.019531 29.621094 C 8.75 30.089844 8.78125 30.675781 9.105469 31.109375 L 13.183594 36.539062 C 13.769531 37.324219 14.96875 37.242188 15.445312 36.390625 L 28.347656 13.300781 C 28.851562 12.398438 28.199219 11.289062 27.164062 11.289062 Z M 20.375 11.289062 "/>
<path style=" stroke:none;fill-rule:nonzero;fill:rgb(45.882353%,45.882353%,45.882353%);fill-opacity:1;" d="M 19.953125 28.257812 L 15.445312 36.390625 C 15.210938 36.808594 14.800781 37.039062 14.375 37.078125 L 14.441406 37.078125 L 33.277344 37.085938 L 33.277344 28.257812 Z M 19.953125 28.257812 "/>
<path style=" stroke:none;fill-rule:nonzero;fill:rgb(100%,65.490198%,14.901961%);fill-opacity:1;" d="M 27.164062 11.289062 C 27.648438 11.289062 28.097656 11.546875 28.335938 11.964844 L 38.523438 29.621094 C 38.792969 30.089844 38.757812 30.675781 38.433594 31.109375 L 34.359375 36.539062 C 33.773438 37.324219 32.574219 37.242188 32.097656 36.390625 L 19.195312 13.300781 C 18.691406 12.398438 19.34375 11.289062 20.375 11.289062 Z M 27.164062 11.289062 "/>
<path style=" stroke:none;fill-rule:nonzero;fill:rgb(45.882353%,45.882353%,45.882353%);fill-opacity:1;" d="M 37.742188 28.242188 L 33.277344 28.25 L 33.277344 28.257812 L 21.054688 28.257812 L 21.054688 37.085938 L 33.277344 37.085938 L 33.277344 37.082031 C 33.679688 37.082031 34.085938 36.902344 34.359375 36.539062 L 38.433594 31.109375 C 38.757812 30.675781 38.792969 30.089844 38.523438 29.621094 Z M 37.742188 28.242188 "/>
</g>
</svg>
