<?xml version="1.0" encoding="UTF-8"?>
<svg xmlns="http://www.w3.org/2000/svg" xmlns:xlink="http://www.w3.org/1999/xlink" width="48px" height="48px" viewBox="0 0 48 48" version="1.1">
<g id="surface1">
<path style=" stroke:none;fill-rule:nonzero;fill:rgb(36.078432%,41.960785%,75.294119%);fill-opacity:1;" d="M 23.8125 2.359375 L 23.8125 35.101562 L 43.65625 35.101562 C 44.753906 35.101562 45.640625 34.214844 45.640625 33.117188 L 45.640625 4.34375 C 45.640625 3.246094 44.753906 2.359375 43.65625 2.359375 Z M 23.8125 2.359375 "/>
<path style=" stroke:none;fill-rule:nonzero;fill:rgb(87.843138%,87.843138%,87.843138%);fill-opacity:1;" d="M 23.8125 2.359375 L 23.8125 35.101562 L 3.96875 35.101562 C 2.871094 35.101562 1.984375 34.214844 1.984375 33.117188 L 1.984375 4.34375 C 1.984375 3.246094 2.871094 2.359375 3.96875 2.359375 Z M 23.8125 2.359375 "/>
<path style=" stroke:none;fill-rule:nonzero;fill:rgb(25.882354%,25.882354%,25.882354%);fill-opacity:1;" d="M 30.757812 16.25 C 22.511719 16.25 15.875 22.886719 15.875 31.132812 C 15.875 39.378906 22.511719 46.015625 30.757812 46.015625 C 39.003906 46.015625 45.640625 39.378906 45.640625 31.132812 C 45.640625 22.886719 39.003906 16.25 30.757812 16.25 Z M 30.757812 20.21875 C 36.804688 20.21875 41.671875 25.085938 41.671875 31.132812 C 41.671875 37.179688 36.804688 42.046875 30.757812 42.046875 C 24.710938 42.046875 19.84375 37.179688 19.84375 31.132812 C 19.84375 25.085938 24.710938 20.21875 30.757812 20.21875 Z M 30.757812 20.21875 "/>
<path style=" stroke:none;fill-rule:nonzero;fill:rgb(16.078432%,71.372551%,96.470588%);fill-opacity:0.392157;" d="M 30.757812 20.21875 C 36.785156 20.21875 41.671875 25.105469 41.671875 31.132812 C 41.671875 37.160156 36.785156 42.046875 30.757812 42.046875 C 24.730469 42.046875 19.84375 37.160156 19.84375 31.132812 C 19.84375 25.105469 24.730469 20.21875 30.757812 20.21875 Z M 30.757812 20.21875 "/>
</g>
</svg>
