<?xml version="1.0" encoding="UTF-8"?>
<svg xmlns="http://www.w3.org/2000/svg" xmlns:xlink="http://www.w3.org/1999/xlink" width="48px" height="48px" viewBox="0 0 48 48" version="1.1">
<g id="surface1">
<path style=" stroke:none;fill-rule:nonzero;fill:rgb(39.215687%,70.980394%,96.470588%);fill-opacity:1;" d="M 23.8125 2.359375 C 35.867188 2.359375 45.640625 12.132812 45.640625 24.1875 C 45.640625 36.242188 35.867188 46.015625 23.8125 46.015625 C 11.757812 46.015625 1.984375 36.242188 1.984375 24.1875 C 1.984375 12.132812 11.757812 2.359375 23.8125 2.359375 Z M 23.8125 2.359375 "/>
<path style=" stroke:none;fill-rule:nonzero;fill:rgb(56.470591%,79.215688%,97.647059%);fill-opacity:1;" d="M 13.652344 7.679688 C 16.488281 6.101562 19.464844 6.050781 20.304688 7.5625 C 21.148438 9.070312 19.53125 11.574219 16.699219 13.152344 C 13.867188 14.726562 10.886719 14.78125 10.046875 13.269531 C 9.207031 11.757812 10.820312 9.257812 13.652344 7.679688 Z M 13.652344 7.679688 "/>
<path style=" stroke:none;fill-rule:nonzero;fill:rgb(25.882354%,64.705884%,96.078432%);fill-opacity:1;" d="M 45.359375 20.65625 C 37.609375 31.234375 25.089844 38.078125 10.914062 38.078125 C 9.523438 38.078125 8.148438 38.011719 6.789062 37.882812 C 10.785156 42.847656 16.914062 46.015625 23.8125 46.015625 C 35.90625 46.015625 45.640625 36.28125 45.640625 24.1875 C 45.640625 22.984375 45.542969 21.804688 45.359375 20.65625 Z M 45.359375 20.65625 "/>
</g>
</svg>
