<?xml version="1.0" encoding="UTF-8"?>
<svg xmlns="http://www.w3.org/2000/svg" xmlns:xlink="http://www.w3.org/1999/xlink" width="48px" height="48px" viewBox="0 0 48 48" version="1.1">
<g id="surface1">
<path style=" stroke:none;fill-rule:nonzero;fill:rgb(25.882354%,25.882354%,25.882354%);fill-opacity:1;" d="M 3.96875 2.359375 L 43.65625 2.359375 C 44.753906 2.359375 45.640625 3.246094 45.640625 4.34375 L 45.640625 44.03125 C 45.640625 45.128906 44.753906 46.015625 43.65625 46.015625 L 3.96875 46.015625 C 2.871094 46.015625 1.984375 45.128906 1.984375 44.03125 L 1.984375 4.34375 C 1.984375 3.246094 2.871094 2.359375 3.96875 2.359375 Z M 3.96875 2.359375 "/>
<path style=" stroke:none;fill-rule:nonzero;fill:rgb(25.882354%,64.705884%,96.078432%);fill-opacity:1;" d="M 5.953125 25.179688 L 21.828125 25.179688 C 22.375 25.179688 22.820312 25.625 22.820312 26.171875 L 22.820312 42.046875 C 22.820312 42.59375 22.375 43.039062 21.828125 43.039062 L 5.953125 43.039062 C 5.40625 43.039062 4.960938 42.59375 4.960938 42.046875 L 4.960938 26.171875 C 4.960938 25.625 5.40625 25.179688 5.953125 25.179688 Z M 5.953125 25.179688 "/>
<path style=" stroke:none;fill-rule:nonzero;fill:rgb(25.882354%,64.705884%,96.078432%);fill-opacity:1;" d="M 25.796875 25.179688 L 41.671875 25.179688 C 42.21875 25.179688 42.664062 25.625 42.664062 26.171875 L 42.664062 42.046875 C 42.664062 42.59375 42.21875 43.039062 41.671875 43.039062 L 25.796875 43.039062 C 25.25 43.039062 24.804688 42.59375 24.804688 42.046875 L 24.804688 26.171875 C 24.804688 25.625 25.25 25.179688 25.796875 25.179688 Z M 25.796875 25.179688 "/>
<path style=" stroke:none;fill-rule:nonzero;fill:rgb(25.882354%,64.705884%,96.078432%);fill-opacity:1;" d="M 5.953125 5.335938 L 21.828125 5.335938 C 22.375 5.335938 22.820312 5.78125 22.820312 6.328125 L 22.820312 22.203125 C 22.820312 22.75 22.375 23.195312 21.828125 23.195312 L 5.953125 23.195312 C 5.40625 23.195312 4.960938 22.75 4.960938 22.203125 L 4.960938 6.328125 C 4.960938 5.78125 5.40625 5.335938 5.953125 5.335938 Z M 5.953125 5.335938 "/>
<path style=" stroke:none;fill-rule:nonzero;fill:rgb(25.882354%,64.705884%,96.078432%);fill-opacity:1;" d="M 25.796875 5.335938 L 41.671875 5.335938 C 42.21875 5.335938 42.664062 5.78125 42.664062 6.328125 L 42.664062 22.203125 C 42.664062 22.75 42.21875 23.195312 41.671875 23.195312 L 25.796875 23.195312 C 25.25 23.195312 24.804688 22.75 24.804688 22.203125 L 24.804688 6.328125 C 24.804688 5.78125 25.25 5.335938 25.796875 5.335938 Z M 25.796875 5.335938 "/>
<path style=" stroke:none;fill-rule:nonzero;fill:rgb(93.333334%,93.333334%,93.333334%);fill-opacity:1;" d="M 30.757812 10.296875 L 30.757812 12.28125 L 14.882812 12.28125 C 13.789062 12.28125 12.898438 13.167969 12.898438 14.265625 L 12.898438 24.1875 C 12.898438 25.285156 13.789062 26.171875 14.882812 26.171875 L 30.757812 26.171875 L 30.757812 32.125 L 16.867188 32.125 L 16.867188 30.140625 L 10.914062 34.109375 L 16.867188 38.078125 L 16.867188 36.09375 L 32.742188 36.09375 C 33.839844 36.09375 34.730469 35.207031 34.730469 34.109375 L 34.730469 24.1875 C 34.730469 23.089844 33.839844 22.203125 32.742188 22.203125 L 16.871094 22.203125 L 16.871094 16.25 L 30.757812 16.25 L 30.757812 18.234375 L 36.710938 14.265625 Z M 30.757812 10.296875 "/>
</g>
</svg>
