
<svg xmlns="http://www.w3.org/2000/svg" xmlns:xlink="http://www.w3.org/1999/xlink" width="48px" height="48px" viewBox="0 0 48 48" version="1.1">
<g id="surface1">
<path style=" stroke:none;fill-rule:nonzero;fill:rgb(100%,71.764708%,30.19608%);fill-opacity:1;" d="M 3.96875 5.335938 L 43.65625 5.335938 C 44.753906 5.335938 45.640625 6.222656 45.640625 7.320312 L 45.640625 41.054688 C 45.640625 42.152344 44.753906 43.039062 43.65625 43.039062 L 3.96875 43.039062 C 2.871094 43.039062 1.984375 42.152344 1.984375 41.054688 L 1.984375 7.320312 C 1.984375 6.222656 2.871094 5.335938 3.96875 5.335938 Z M 3.96875 5.335938 "/>
<path style=" stroke:none;fill-rule:nonzero;fill:rgb(94.117647%,38.431373%,57.254905%);fill-opacity:1;" d="M 2.636719 5.847656 C 2.234375 6.210938 1.984375 6.734375 1.984375 7.320312 L 1.984375 41.054688 C 1.984375 42.152344 2.871094 43.039062 3.96875 43.039062 L 43.65625 43.039062 C 44.160156 43.039062 44.617188 42.855469 44.964844 42.546875 L 12.058594 13.273438 Z M 2.636719 5.847656 "/>
<path style=" stroke:none;fill-rule:nonzero;fill:rgb(72.941178%,40.784314%,78.431374%);fill-opacity:1;" d="M 45.015625 5.875 L 2.609375 42.5 C 2.960938 42.835938 3.441406 43.039062 3.96875 43.039062 L 43.65625 43.039062 C 44.753906 43.039062 45.640625 42.152344 45.640625 41.054688 L 45.640625 7.320312 C 45.640625 6.75 45.402344 6.234375 45.015625 5.875 Z M 45.015625 5.875 "/>
<path style=" stroke:none;fill-rule:nonzero;fill:rgb(93.333334%,93.333334%,93.333334%);fill-opacity:1;" d="M 5.953125 8.929688 L 19.84375 8.929688 C 20.390625 8.929688 20.835938 9.375 20.835938 9.921875 L 20.835938 19.84375 C 20.835938 20.390625 20.390625 20.835938 19.84375 20.835938 L 5.953125 20.835938 C 5.40625 20.835938 4.960938 20.390625 4.960938 19.84375 L 4.960938 9.921875 C 4.960938 9.375 5.40625 8.929688 5.953125 8.929688 Z M 5.953125 8.929688 "/>
<path style=" stroke:none;fill-rule:nonzero;fill:rgb(93.333334%,93.333334%,93.333334%);fill-opacity:1;" d="M 10.914062 26.789062 L 24.804688 26.789062 C 25.351562 26.789062 25.796875 27.234375 25.796875 27.78125 L 25.796875 37.703125 C 25.796875 38.25 25.351562 38.695312 24.804688 38.695312 L 10.914062 38.695312 C 10.367188 38.695312 9.921875 38.25 9.921875 37.703125 L 9.921875 27.78125 C 9.921875 27.234375 10.367188 26.789062 10.914062 26.789062 Z M 10.914062 26.789062 "/>
<path style=" stroke:none;fill-rule:nonzero;fill:rgb(93.333334%,93.333334%,93.333334%);fill-opacity:1;" d="M 26.789062 11.90625 L 40.679688 11.90625 C 41.226562 11.90625 41.671875 12.351562 41.671875 12.898438 L 41.671875 22.820312 C 41.671875 23.367188 41.226562 23.8125 40.679688 23.8125 L 26.789062 23.8125 C 26.242188 23.8125 25.796875 23.367188 25.796875 22.820312 L 25.796875 12.898438 C 25.796875 12.351562 26.242188 11.90625 26.789062 11.90625 Z M 26.789062 11.90625 "/>
</g>
</svg>
