
<svg xmlns="http://www.w3.org/2000/svg" xmlns:xlink="http://www.w3.org/1999/xlink" width="48px" height="48px" viewBox="0 0 48 48" version="1.1">
<g id="surface1">
<path style=" stroke:none;fill-rule:nonzero;fill:rgb(93.725491%,32.549021%,31.37255%);fill-opacity:1;" d="M 23.8125 1.984375 C 35.867188 1.984375 45.640625 11.757812 45.640625 23.8125 C 45.640625 35.867188 35.867188 45.640625 23.8125 45.640625 C 11.757812 45.640625 1.984375 35.867188 1.984375 23.8125 C 1.984375 11.757812 11.757812 1.984375 23.8125 1.984375 Z M 23.8125 1.984375 "/>
<path style=" stroke:none;fill-rule:nonzero;fill:rgb(100%,65.490198%,14.901961%);fill-opacity:1;" d="M 23.8125 11.90625 C 32.578125 11.90625 39.6875 19.015625 39.6875 27.78125 C 39.6875 36.546875 32.578125 43.65625 23.8125 43.65625 C 15.046875 43.65625 7.9375 36.546875 7.9375 27.78125 C 7.9375 19.015625 15.046875 11.90625 23.8125 11.90625 Z M 23.8125 11.90625 "/>
<path style=" stroke:none;fill-rule:nonzero;fill:rgb(25.882354%,25.882354%,25.882354%);fill-opacity:1;" d="M 23.8125 24.441406 C 16.367188 24.441406 9.101562 24.945312 2.082031 25.90625 C 3.128906 37.011719 12.425781 45.640625 23.8125 45.640625 C 35.199219 45.640625 44.496094 37.011719 45.542969 25.90625 C 38.523438 24.945312 31.257812 24.441406 23.8125 24.441406 Z M 23.8125 24.441406 "/>
<path style=" stroke:none;fill-rule:nonzero;fill:rgb(25.882354%,25.882354%,25.882354%);fill-opacity:1;" d="M 31.863281 17.503906 L 32.75 18.445312 L 31.820312 20.054688 L 30.28125 19.742188 L 31.539062 17.316406 Z M 31.863281 17.503906 "/>
<path style=" stroke:none;fill-rule:nonzero;fill:rgb(25.882354%,25.882354%,25.882354%);fill-opacity:1;" d="M 34.886719 29.128906 C 34.78125 29.992188 34.328125 30.738281 33.585938 31.386719 C 33.441406 31.453125 33.628906 31.554688 33.800781 31.511719 C 34.519531 31.109375 35 30.644531 35.253906 29.484375 Z M 34.886719 29.128906 "/>
<path style=" stroke:none;fill-rule:nonzero;fill:rgb(38.039216%,38.039216%,38.039216%);fill-opacity:1;" d="M 39.617188 27.136719 L 29.078125 24.058594 L 29.367188 24.796875 C 30.808594 25.773438 32.1875 26.855469 31.523438 27.761719 C 30.566406 28.925781 30.496094 30.03125 31.664062 30.992188 C 32.394531 31.585938 33.363281 32.261719 33.8125 32.234375 C 34.535156 32.222656 35.941406 31.027344 36.890625 31.863281 C 37.742188 32.65625 38.617188 33.46875 38.042969 35.820312 C 37.5625 37.527344 36.519531 38.867188 35.5 40.222656 C 35.375 40.4375 35.421875 40.734375 35.636719 40.734375 L 42.25 44.40625 C 42.355469 44.46875 43.125 44.628906 43.113281 43.90625 C 42.882812 41.453125 43.433594 38.507812 43.65625 35.769531 C 43.402344 34.476562 43.785156 31.34375 39.855469 28.707031 C 40.046875 27.957031 39.835938 27.542969 39.617188 27.136719 Z M 33.46875 27.992188 C 33.566406 28.050781 33.664062 28.117188 33.757812 28.191406 L 34.714844 28.984375 C 35.453125 29.597656 35.609375 30.621094 35.0625 31.285156 C 34.515625 31.949219 33.476562 31.988281 32.734375 31.375 L 31.777344 30.582031 C 31.039062 29.972656 30.882812 28.945312 31.429688 28.28125 C 31.910156 27.703125 32.765625 27.597656 33.46875 27.992188 Z M 33.46875 27.992188 "/>
<path style=" stroke:none;fill-rule:nonzero;fill:rgb(25.882354%,25.882354%,25.882354%);fill-opacity:1;" d="M 37.121094 21.542969 L 39.054688 22.65625 L 36.695312 26.738281 L 34.765625 25.621094 Z M 37.121094 21.542969 "/>
<path style=" stroke:none;fill-rule:nonzero;fill:rgb(25.882354%,25.882354%,25.882354%);fill-opacity:1;" d="M 23.261719 17.265625 L 29.0625 20.613281 L 28.195312 22.117188 L 22.394531 18.769531 Z M 23.261719 17.265625 "/>
<path style=" stroke:none;fill-rule:nonzero;fill:rgb(38.039216%,38.039216%,38.039216%);fill-opacity:1;" d="M 7.585938 7.210938 L 7.445312 7.703125 L 20.257812 15.527344 C 22.007812 16.523438 21.320312 17.363281 21.277344 17.976562 C 21.210938 19.085938 22.300781 19.429688 22.824219 19.015625 C 23.519531 18.558594 23.257812 17.910156 24.121094 17.761719 L 24.71875 15.238281 L 8.527344 6.324219 L 7.679688 6.550781 Z M 7.585938 7.210938 "/>
<path style=" stroke:none;fill-rule:nonzero;fill:rgb(25.882354%,25.882354%,25.882354%);fill-opacity:1;" d="M 7.5 5.871094 L 6.910156 7.390625 L 7.230469 7.578125 L 8.128906 6.519531 L 8.035156 6.183594 Z M 7.5 5.871094 "/>
<path style=" stroke:none;fill-rule:nonzero;fill:rgb(25.882354%,25.882354%,25.882354%);fill-opacity:1;" d="M 29.878906 20.941406 L 31.058594 21.621094 L 31.804688 20.332031 L 30.515625 19.589844 Z M 29.878906 20.941406 "/>
<path style=" stroke:none;fill-rule:nonzero;fill:rgb(45.882353%,45.882353%,45.882353%);fill-opacity:1;" d="M 7.417969 3.535156 L 31.921875 17.394531 L 28.390625 23.515625 C 26.992188 22.710938 27.546875 21.984375 27.554688 20.746094 C 27.542969 20.023438 25.566406 19.058594 24.582031 18.453125 C 23.613281 17.898438 23.679688 16.789062 24.007812 15.976562 L 6.300781 5.464844 Z M 7.417969 3.535156 "/>
<path style=" stroke:none;fill-rule:nonzero;fill:rgb(25.882354%,25.882354%,25.882354%);fill-opacity:1;" d="M 22.691406 17.507812 C 22.988281 17.679688 23.089844 18.058594 22.921875 18.355469 C 22.75 18.652344 22.371094 18.753906 22.074219 18.582031 C 21.777344 18.410156 21.675781 18.03125 21.847656 17.734375 C 22.015625 17.4375 22.398438 17.335938 22.691406 17.507812 Z M 22.691406 17.507812 "/>
<path style=" stroke:none;fill-rule:nonzero;fill:rgb(25.882354%,25.882354%,25.882354%);fill-opacity:1;" d="M 38.046875 20.929688 L 37.796875 21.359375 L 35.070312 26.085938 L 39.464844 26.90625 C 39.976562 26.695312 40.683594 26.035156 40.707031 24.757812 C 40.980469 24.773438 41.582031 24.976562 42.015625 24.222656 C 42.28125 23.859375 42.632812 22.996094 43.464844 23.199219 C 42.972656 22.28125 42.394531 22.96875 41.664062 23.59375 C 41.261719 23.789062 40.816406 23.820312 40.621094 23.417969 C 40.078125 21.984375 39.078125 21.65625 38.046875 20.929688 Z M 38.046875 20.929688 "/>
<path style=" stroke:none;fill-rule:nonzero;fill:rgb(61.960787%,61.960787%,61.960787%);fill-opacity:1;" d="M 32.8125 18.335938 L 29.960938 23.277344 L 35.757812 26.625 L 36.132812 25.980469 L 35.210938 25.59375 L 35.769531 24.628906 L 36.75 24.910156 L 37.433594 23.726562 L 36.636719 23.125 L 37.257812 22.050781 L 38.054688 22.652344 L 38.425781 22.007812 L 37.753906 21.191406 Z M 32.8125 18.335938 "/>
<path style=" stroke:none;fill-rule:nonzero;fill:rgb(45.882353%,45.882353%,45.882353%);fill-opacity:1;" d="M 28.886719 22.65625 L 35.929688 26.582031 L 39.050781 26.378906 L 39.617188 27.136719 L 37.570312 30.679688 L 28.390625 23.515625 Z M 28.886719 22.65625 "/>
<path style=" stroke:none;fill-rule:nonzero;fill:rgb(61.960787%,61.960787%,61.960787%);fill-opacity:1;" d="M 38.59375 21.964844 L 35.929688 26.582031 C 37.003906 27.203125 38.832031 27.257812 39.703125 25.753906 C 40.753906 23.925781 39.453125 22.460938 38.59375 21.964844 Z M 38.59375 21.964844 "/>
<path style=" stroke:none;fill-rule:nonzero;fill:rgb(25.882354%,25.882354%,25.882354%);fill-opacity:1;" d="M 38.308594 27.667969 C 38.605469 27.839844 38.707031 28.21875 38.535156 28.515625 C 38.363281 28.8125 37.984375 28.914062 37.6875 28.742188 C 37.390625 28.570312 37.289062 28.191406 37.460938 27.894531 C 37.632812 27.597656 38.011719 27.496094 38.308594 27.667969 Z M 38.308594 27.667969 "/>
<path style=" stroke:none;fill-rule:nonzero;fill:rgb(25.882354%,25.882354%,25.882354%);fill-opacity:1;" d="M 34.910156 26.855469 C 35.148438 26.992188 35.230469 27.292969 35.09375 27.53125 C 34.957031 27.769531 34.652344 27.851562 34.414062 27.714844 C 34.179688 27.574219 34.097656 27.273438 34.234375 27.035156 C 34.371094 26.796875 34.675781 26.71875 34.910156 26.855469 Z M 34.910156 26.855469 "/>
<path style=" stroke:none;fill-rule:nonzero;fill:rgb(25.882354%,25.882354%,25.882354%);fill-opacity:1;" d="M 35.523438 27.78125 C 35.761719 27.917969 35.84375 28.21875 35.703125 28.457031 C 35.566406 28.695312 35.265625 28.777344 35.027344 28.640625 C 34.789062 28.5 34.707031 28.199219 34.84375 27.960938 C 34.984375 27.722656 35.285156 27.640625 35.523438 27.78125 Z M 35.523438 27.78125 "/>
<path style=" stroke:none;fill-rule:nonzero;fill:rgb(55.29412%,43.137255%,38.82353%);fill-opacity:1;" d="M 38.6875 28.746094 L 36.890625 31.863281 C 37.742188 32.65625 38.617188 33.46875 38.042969 35.820312 C 37.5625 37.527344 36.519531 38.867188 35.5 40.222656 C 35.375 40.4375 35.421875 40.734375 35.636719 40.734375 L 42.25 44.40625 C 42.355469 44.46875 43.125 44.628906 43.113281 43.90625 C 42.882812 41.453125 43.433594 38.507812 43.65625 35.769531 C 43.480469 34.878906 43.605469 33.121094 42.425781 31.253906 L 42 30.945312 Z M 38.6875 28.746094 "/>
<path style=" stroke:none;fill-rule:nonzero;fill:rgb(38.039216%,38.039216%,38.039216%);fill-opacity:1;" d="M 9.382812 4.097656 L 8.796875 4.617188 L 9.441406 4.988281 Z M 9.382812 4.097656 "/>
<path style=" stroke:none;fill-rule:nonzero;fill:rgb(61.960787%,61.960787%,61.960787%);fill-opacity:1;" d="M 31.921875 17.394531 L 7.417969 3.535156 L 7.171875 3.964844 L 31.550781 18.039062 Z M 31.921875 17.394531 "/>
<path style=" stroke:none;fill-rule:nonzero;fill:rgb(74.117649%,74.117649%,74.117649%);fill-opacity:1;" d="M 32.8125 18.335938 L 32.5 18.875 L 38.300781 22.222656 L 38.425781 22.007812 L 37.753906 21.191406 Z M 32.8125 18.335938 "/>
<path style=" stroke:none;fill-rule:nonzero;fill:rgb(47.450981%,33.333334%,28.235295%);fill-opacity:1;" d="M 37.460938 30.875 L 36.890625 31.863281 C 37.742188 32.65625 38.617188 33.46875 38.042969 35.820312 C 37.5625 37.527344 36.519531 38.867188 35.5 40.222656 C 35.375 40.4375 35.421875 40.734375 35.636719 40.734375 L 36.777344 41.367188 C 38.796875 37.121094 40.039062 33.871094 37.460938 30.875 Z M 37.460938 30.875 "/>
<path style=" stroke:none;fill-rule:nonzero;fill:rgb(25.882354%,25.882354%,25.882354%);fill-opacity:1;" d="M 25.171875 16.933594 C 25.410156 17.070312 25.492188 17.375 25.355469 17.613281 C 25.21875 17.847656 24.914062 17.929688 24.675781 17.792969 C 24.4375 17.65625 24.359375 17.351562 24.496094 17.117188 C 24.632812 16.878906 24.933594 16.796875 25.171875 16.933594 Z M 25.171875 16.933594 "/>
<path style=" stroke:none;fill-rule:nonzero;fill:rgb(25.882354%,25.882354%,25.882354%);fill-opacity:1;" d="M 28.964844 18.550781 C 29.144531 18.652344 29.203125 18.882812 29.101562 19.058594 C 29 19.238281 28.769531 19.296875 28.59375 19.195312 C 28.414062 19.09375 28.355469 18.867188 28.457031 18.6875 C 28.558594 18.507812 28.785156 18.449219 28.964844 18.550781 Z M 28.964844 18.550781 "/>
<path style=" stroke:none;fill-rule:nonzero;fill:rgb(25.882354%,25.882354%,25.882354%);fill-opacity:1;" d="M 27.503906 18.851562 L 29.21875 19.84375 L 28.972656 20.273438 L 27.253906 19.28125 Z M 27.503906 18.851562 "/>
<path style=" stroke:none;fill-rule:nonzero;fill:rgb(25.882354%,25.882354%,25.882354%);fill-opacity:1;" d="M 15.761719 17.503906 L 14.875 18.445312 L 15.804688 20.054688 L 17.34375 19.742188 L 16.085938 17.316406 Z M 15.761719 17.503906 "/>
<path style=" stroke:none;fill-rule:nonzero;fill:rgb(25.882354%,25.882354%,25.882354%);fill-opacity:1;" d="M 12.738281 29.128906 C 12.84375 29.992188 13.296875 30.738281 14.039062 31.386719 C 14.183594 31.453125 13.996094 31.554688 13.824219 31.511719 C 13.105469 31.109375 12.625 30.644531 12.371094 29.484375 Z M 12.738281 29.128906 "/>
<path style=" stroke:none;fill-rule:nonzero;fill:rgb(38.039216%,38.039216%,38.039216%);fill-opacity:1;" d="M 8.007812 27.136719 L 18.546875 24.058594 L 18.257812 24.796875 C 16.816406 25.773438 15.4375 26.855469 16.101562 27.761719 C 17.058594 28.925781 17.128906 30.03125 15.960938 30.992188 C 15.230469 31.585938 14.261719 32.261719 13.8125 32.234375 C 13.089844 32.222656 11.683594 31.027344 10.734375 31.863281 C 9.882812 32.65625 9.007812 33.46875 9.582031 35.820312 C 10.0625 37.527344 11.105469 38.867188 12.125 40.222656 C 12.25 40.4375 12.203125 40.734375 11.988281 40.734375 L 5.375 44.40625 C 5.269531 44.46875 4.5 44.628906 4.511719 43.90625 C 4.742188 41.453125 4.191406 38.507812 3.96875 35.769531 C 4.222656 34.476562 3.839844 31.34375 7.769531 28.707031 C 7.578125 27.957031 7.789062 27.542969 8.007812 27.136719 Z M 14.15625 27.992188 C 14.058594 28.050781 13.960938 28.117188 13.867188 28.191406 L 12.910156 28.984375 C 12.171875 29.597656 12.015625 30.621094 12.5625 31.285156 C 13.109375 31.949219 14.148438 31.988281 14.890625 31.375 L 15.847656 30.582031 C 16.585938 29.972656 16.742188 28.945312 16.195312 28.28125 C 15.714844 27.703125 14.859375 27.597656 14.15625 27.992188 Z M 14.15625 27.992188 "/>
<path style=" stroke:none;fill-rule:nonzero;fill:rgb(25.882354%,25.882354%,25.882354%);fill-opacity:1;" d="M 10.503906 21.542969 L 8.570312 22.65625 L 10.929688 26.738281 L 12.859375 25.621094 Z M 10.503906 21.542969 "/>
<path style=" stroke:none;fill-rule:nonzero;fill:rgb(25.882354%,25.882354%,25.882354%);fill-opacity:1;" d="M 24.363281 17.265625 L 18.5625 20.613281 L 19.429688 22.117188 L 25.230469 18.769531 Z M 24.363281 17.265625 "/>
<path style=" stroke:none;fill-rule:nonzero;fill:rgb(38.039216%,38.039216%,38.039216%);fill-opacity:1;" d="M 40.039062 7.210938 L 40.179688 7.703125 L 27.367188 15.527344 C 25.617188 16.523438 26.304688 17.363281 26.347656 17.976562 C 26.414062 19.085938 25.324219 19.429688 24.800781 19.015625 C 24.105469 18.558594 24.367188 17.910156 23.503906 17.761719 L 22.90625 15.238281 L 39.097656 6.324219 L 39.945312 6.550781 Z M 40.039062 7.210938 "/>
<path style=" stroke:none;fill-rule:nonzero;fill:rgb(25.882354%,25.882354%,25.882354%);fill-opacity:1;" d="M 40.125 5.871094 L 40.714844 7.390625 L 40.394531 7.578125 L 39.496094 6.519531 L 39.589844 6.183594 Z M 40.125 5.871094 "/>
<path style=" stroke:none;fill-rule:nonzero;fill:rgb(25.882354%,25.882354%,25.882354%);fill-opacity:1;" d="M 17.746094 20.941406 L 16.566406 21.621094 L 15.820312 20.332031 L 17.109375 19.589844 Z M 17.746094 20.941406 "/>
<path style=" stroke:none;fill-rule:nonzero;fill:rgb(45.882353%,45.882353%,45.882353%);fill-opacity:1;" d="M 40.207031 3.535156 L 15.703125 17.394531 L 19.234375 23.515625 C 20.632812 22.710938 20.078125 21.984375 20.070312 20.746094 C 20.082031 20.023438 22.058594 19.058594 23.042969 18.453125 C 24.011719 17.898438 23.945312 16.789062 23.617188 15.976562 L 41.324219 5.464844 Z M 40.207031 3.535156 "/>
<path style=" stroke:none;fill-rule:nonzero;fill:rgb(25.882354%,25.882354%,25.882354%);fill-opacity:1;" d="M 24.933594 17.507812 C 24.636719 17.679688 24.535156 18.058594 24.703125 18.355469 C 24.875 18.652344 25.253906 18.753906 25.550781 18.582031 C 25.847656 18.410156 25.949219 18.03125 25.777344 17.734375 C 25.609375 17.4375 25.226562 17.335938 24.933594 17.507812 Z M 24.933594 17.507812 "/>
<path style=" stroke:none;fill-rule:nonzero;fill:rgb(25.882354%,25.882354%,25.882354%);fill-opacity:1;" d="M 9.578125 20.929688 L 9.828125 21.359375 L 12.554688 26.085938 L 8.160156 26.90625 C 7.648438 26.695312 6.941406 26.035156 6.917969 24.757812 C 6.644531 24.773438 6.042969 24.976562 5.609375 24.222656 C 5.34375 23.859375 4.992188 22.996094 4.160156 23.199219 C 4.652344 22.28125 5.230469 22.96875 5.960938 23.59375 C 6.363281 23.789062 6.808594 23.820312 7.003906 23.417969 C 7.546875 21.984375 8.546875 21.65625 9.578125 20.929688 Z M 9.578125 20.929688 "/>
<path style=" stroke:none;fill-rule:nonzero;fill:rgb(61.960787%,61.960787%,61.960787%);fill-opacity:1;" d="M 14.8125 18.335938 L 17.664062 23.277344 L 11.867188 26.625 L 11.492188 25.980469 L 12.414062 25.59375 L 11.855469 24.628906 L 10.875 24.910156 L 10.191406 23.726562 L 10.988281 23.125 L 10.367188 22.050781 L 9.570312 22.652344 L 9.199219 22.007812 L 9.871094 21.191406 Z M 14.8125 18.335938 "/>
<path style=" stroke:none;fill-rule:nonzero;fill:rgb(45.882353%,45.882353%,45.882353%);fill-opacity:1;" d="M 18.738281 22.65625 L 11.695312 26.582031 L 8.574219 26.378906 L 8.007812 27.136719 L 10.054688 30.679688 L 19.234375 23.515625 Z M 18.738281 22.65625 "/>
<path style=" stroke:none;fill-rule:nonzero;fill:rgb(61.960787%,61.960787%,61.960787%);fill-opacity:1;" d="M 9.03125 21.964844 L 11.695312 26.582031 C 10.621094 27.203125 8.792969 27.257812 7.921875 25.753906 C 6.871094 23.925781 8.171875 22.460938 9.03125 21.964844 Z M 9.03125 21.964844 "/>
<path style=" stroke:none;fill-rule:nonzero;fill:rgb(25.882354%,25.882354%,25.882354%);fill-opacity:1;" d="M 9.316406 27.667969 C 9.019531 27.839844 8.917969 28.21875 9.089844 28.515625 C 9.261719 28.8125 9.640625 28.914062 9.9375 28.742188 C 10.234375 28.570312 10.335938 28.191406 10.164062 27.894531 C 9.992188 27.597656 9.613281 27.496094 9.316406 27.667969 Z M 9.316406 27.667969 "/>
<path style=" stroke:none;fill-rule:nonzero;fill:rgb(25.882354%,25.882354%,25.882354%);fill-opacity:1;" d="M 12.714844 26.855469 C 12.476562 26.992188 12.394531 27.292969 12.53125 27.53125 C 12.667969 27.769531 12.972656 27.851562 13.210938 27.714844 C 13.445312 27.574219 13.527344 27.273438 13.390625 27.035156 C 13.253906 26.796875 12.949219 26.71875 12.714844 26.855469 Z M 12.714844 26.855469 "/>
<path style=" stroke:none;fill-rule:nonzero;fill:rgb(25.882354%,25.882354%,25.882354%);fill-opacity:1;" d="M 12.101562 27.78125 C 11.863281 27.917969 11.78125 28.21875 11.921875 28.457031 C 12.058594 28.695312 12.359375 28.777344 12.597656 28.640625 C 12.835938 28.5 12.917969 28.199219 12.78125 27.960938 C 12.640625 27.722656 12.339844 27.640625 12.101562 27.78125 Z M 12.101562 27.78125 "/>
<path style=" stroke:none;fill-rule:nonzero;fill:rgb(55.29412%,43.137255%,38.82353%);fill-opacity:1;" d="M 8.9375 28.746094 L 10.734375 31.863281 C 9.882812 32.65625 9.007812 33.46875 9.582031 35.820312 C 10.0625 37.527344 11.105469 38.867188 12.125 40.222656 C 12.25 40.4375 12.203125 40.734375 11.988281 40.734375 L 5.375 44.40625 C 5.269531 44.46875 4.5 44.628906 4.511719 43.90625 C 4.742188 41.453125 4.191406 38.507812 3.96875 35.769531 C 4.144531 34.878906 4.019531 33.121094 5.199219 31.253906 L 5.625 30.945312 Z M 8.9375 28.746094 "/>
<path style=" stroke:none;fill-rule:nonzero;fill:rgb(38.039216%,38.039216%,38.039216%);fill-opacity:1;" d="M 38.242188 4.097656 L 38.828125 4.617188 L 38.183594 4.988281 Z M 38.242188 4.097656 "/>
<path style=" stroke:none;fill-rule:nonzero;fill:rgb(61.960787%,61.960787%,61.960787%);fill-opacity:1;" d="M 15.703125 17.394531 L 40.207031 3.535156 L 40.453125 3.964844 L 16.074219 18.039062 Z M 15.703125 17.394531 "/>
<path style=" stroke:none;fill-rule:nonzero;fill:rgb(74.117649%,74.117649%,74.117649%);fill-opacity:1;" d="M 14.8125 18.335938 L 15.125 18.875 L 9.324219 22.222656 L 9.199219 22.007812 L 9.871094 21.191406 Z M 14.8125 18.335938 "/>
<path style=" stroke:none;fill-rule:nonzero;fill:rgb(47.450981%,33.333334%,28.235295%);fill-opacity:1;" d="M 10.164062 30.875 L 10.734375 31.863281 C 9.882812 32.65625 9.007812 33.46875 9.582031 35.820312 C 10.0625 37.527344 11.105469 38.867188 12.125 40.222656 C 12.25 40.4375 12.203125 40.734375 11.988281 40.734375 L 10.847656 41.367188 C 8.828125 37.121094 7.585938 33.871094 10.164062 30.875 Z M 10.164062 30.875 "/>
<path style=" stroke:none;fill-rule:nonzero;fill:rgb(25.882354%,25.882354%,25.882354%);fill-opacity:1;" d="M 22.453125 16.933594 C 22.214844 17.070312 22.132812 17.375 22.269531 17.613281 C 22.40625 17.847656 22.710938 17.929688 22.949219 17.792969 C 23.1875 17.65625 23.265625 17.351562 23.128906 17.117188 C 22.992188 16.878906 22.691406 16.796875 22.453125 16.933594 Z M 22.453125 16.933594 "/>
<path style=" stroke:none;fill-rule:nonzero;fill:rgb(25.882354%,25.882354%,25.882354%);fill-opacity:1;" d="M 18.660156 18.550781 C 18.480469 18.652344 18.421875 18.882812 18.523438 19.058594 C 18.625 19.238281 18.855469 19.296875 19.03125 19.195312 C 19.210938 19.09375 19.269531 18.867188 19.167969 18.6875 C 19.066406 18.507812 18.839844 18.449219 18.660156 18.550781 Z M 18.660156 18.550781 "/>
<path style=" stroke:none;fill-rule:nonzero;fill:rgb(25.882354%,25.882354%,25.882354%);fill-opacity:1;" d="M 20.121094 18.851562 L 18.40625 19.84375 L 18.652344 20.273438 L 20.371094 19.28125 Z M 20.121094 18.851562 "/>
<path style=" stroke:none;fill-rule:nonzero;fill:rgb(93.725491%,32.549021%,31.37255%);fill-opacity:1;" d="M 23.8125 27.78125 C 21.0625 27.78125 18.851562 30.4375 18.851562 33.734375 L 18.851562 35.71875 C 18.851562 39.015625 21.0625 41.671875 23.8125 41.671875 C 26.5625 41.671875 28.773438 39.015625 28.773438 35.71875 L 28.773438 33.734375 C 28.773438 30.4375 26.5625 27.78125 23.8125 27.78125 Z M 23.8125 29.765625 C 24.910156 29.765625 25.796875 31.976562 25.796875 34.726562 C 25.796875 37.476562 24.910156 39.6875 23.8125 39.6875 C 22.714844 39.6875 21.828125 37.476562 21.828125 34.726562 C 21.828125 31.976562 22.714844 29.765625 23.8125 29.765625 Z M 23.8125 29.765625 "/>
</g>
</svg>
