<?xml version="1.0" encoding="UTF-8"?>
<svg xmlns="http://www.w3.org/2000/svg" xmlns:xlink="http://www.w3.org/1999/xlink" width="48px" height="48px" viewBox="0 0 48 48" version="1.1">
<g id="surface1">
<path style=" stroke:none;fill-rule:nonzero;fill:rgb(100%,34.117648%,13.333334%);fill-opacity:1;" d="M 17.859375 9.65625 C 22.324219 10.054688 29.765625 13.273438 29.765625 17.242188 C 30.757812 23.691406 36.710938 34.378906 28.773438 43.105469 L 19.84375 46.015625 C 19.84375 46.015625 19.058594 45.960938 17.859375 45.851562 Z M 17.859375 9.65625 "/>
<path style=" stroke:none;fill-rule:nonzero;fill:rgb(100%,34.117648%,13.333334%);fill-opacity:1;" d="M 17.859375 9.65625 C 13.394531 10.054688 10.394531 12.226562 6.199219 16.5 C 5.457031 23.691406 -0.992188 34.378906 6.945312 43.105469 L 15.875 46.015625 C 15.875 46.015625 16.660156 45.960938 17.859375 45.851562 Z M 17.859375 9.65625 "/>
<path style=" stroke:none;fill-rule:nonzero;fill:rgb(100%,87.843138%,69.803923%);fill-opacity:1;" d="M 26.480469 13.515625 C 26.667969 14.390625 26.789062 15.234375 26.789062 15.957031 C 26.789062 18.867188 22.820312 29.53125 19.84375 31.472656 C 18.417969 32.402344 16.761719 32.660156 15.425781 32.683594 C 16.15625 33.113281 16.988281 33.410156 17.929688 33.410156 C 20.90625 33.410156 22.84375 30.515625 23.882812 29.53125 C 27.425781 26.125 26.535156 23.535156 27.851562 18.867188 C 27.851562 16.695312 27.332031 14.921875 26.480469 13.515625 Z M 26.480469 13.515625 "/>
<path style=" stroke:none;fill-rule:nonzero;fill:rgb(100%,95.294118%,87.843138%);fill-opacity:1;" d="M 27.605469 17.894531 C 28.5625 17.894531 29.339844 19.023438 29.339844 20.417969 L 29.339844 21.191406 C 29.339844 22.585938 28.5625 23.714844 27.605469 23.714844 C 26.644531 23.714844 25.867188 22.585938 25.867188 21.191406 L 25.867188 20.417969 C 25.867188 19.023438 26.644531 17.894531 27.605469 17.894531 Z M 27.605469 17.894531 "/>
<path style=" stroke:none;fill-rule:nonzero;fill:rgb(100%,80.000001%,50.196081%);fill-opacity:1;" d="M 27.308594 18.757812 C 28.140625 18.757812 28.820312 19.53125 28.820312 20.484375 L 28.820312 21.015625 C 28.820312 21.972656 28.140625 22.746094 27.308594 22.746094 C 26.472656 22.746094 25.796875 21.972656 25.796875 21.015625 L 25.796875 20.484375 C 25.796875 19.53125 26.472656 18.757812 27.308594 18.757812 Z M 27.308594 18.757812 "/>
<path style=" stroke:none;fill-rule:nonzero;fill:rgb(100%,95.294118%,87.843138%);fill-opacity:1;" d="M 7.761719 17.894531 C 8.71875 17.894531 9.496094 19.023438 9.496094 20.417969 L 9.496094 21.191406 C 9.496094 22.585938 8.71875 23.714844 7.761719 23.714844 C 6.800781 23.714844 6.023438 22.585938 6.023438 21.191406 L 6.023438 20.417969 C 6.023438 19.023438 6.800781 17.894531 7.761719 17.894531 Z M 7.761719 17.894531 "/>
<path style=" stroke:none;fill-rule:nonzero;fill:rgb(100%,87.843138%,69.803923%);fill-opacity:1;" d="M 7.960938 18.757812 C 8.792969 18.757812 9.472656 19.53125 9.472656 20.484375 L 9.472656 21.015625 C 9.472656 21.972656 8.792969 22.746094 7.960938 22.746094 C 7.125 22.746094 6.449219 21.972656 6.449219 21.015625 L 6.449219 20.484375 C 6.449219 19.53125 7.125 18.757812 7.960938 18.757812 Z M 7.960938 18.757812 "/>
<path style=" stroke:none;fill-rule:nonzero;fill:rgb(14.901961%,77.64706%,85.490197%);fill-opacity:1;" d="M 38.695312 2.359375 C 34.917969 2.359375 31.875 5.402344 31.875 9.179688 L 31.875 10.421875 C 31.875 10.765625 32.152344 11.039062 32.496094 11.039062 L 33.734375 11.039062 C 34.078125 11.039062 34.355469 10.765625 34.355469 10.421875 L 34.355469 9.179688 C 34.355469 6.777344 36.289062 4.839844 38.695312 4.839844 C 41.101562 4.839844 43.035156 6.777344 43.035156 9.179688 L 43.035156 9.800781 C 43.035156 10.898438 42.789062 11.386719 42.472656 11.746094 C 42.15625 12.105469 41.660156 12.375 41.007812 12.644531 C 40.355469 12.917969 39.566406 13.164062 38.8125 13.742188 C 38.054688 14.324219 37.453125 15.382812 37.453125 16.621094 L 37.457031 16.621094 L 37.457031 17.242188 C 37.457031 17.585938 37.730469 17.863281 38.074219 17.863281 L 39.316406 17.863281 C 39.660156 17.863281 39.933594 17.585938 39.933594 17.242188 L 39.933594 16.621094 L 39.9375 16.621094 C 39.9375 16.003906 40.03125 15.933594 40.324219 15.710938 C 40.617188 15.488281 41.222656 15.246094 41.964844 14.9375 C 42.707031 14.625 43.605469 14.214844 44.335938 13.382812 C 45.066406 12.554688 45.515625 11.335938 45.515625 9.800781 L 45.515625 9.179688 C 45.515625 5.402344 42.472656 2.359375 38.695312 2.359375 Z M 38.695312 18.820312 C 37.757812 18.820312 37.003906 19.574219 37.003906 20.511719 C 37.003906 21.449219 37.757812 22.203125 38.695312 22.203125 C 39.632812 22.203125 40.386719 21.449219 40.386719 20.511719 C 40.386719 19.574219 39.632812 18.820312 38.695312 18.820312 Z M 38.695312 18.820312 "/>
<path style=" stroke:none;fill-rule:nonzero;fill:rgb(98.431373%,54.901963%,0%);fill-opacity:1;" d="M 23.070312 33.652344 C 25.957031 33.640625 27.113281 34.210938 29.023438 36.078125 C 25.433594 36.222656 24.351562 36.785156 23.070312 33.652344 Z M 23.070312 33.652344 "/>
<path style=" stroke:none;fill-rule:nonzero;fill:rgb(100%,80.000001%,50.196081%);fill-opacity:1;" d="M 22.628906 33.785156 C 25.417969 33.042969 26.683594 33.304688 29.023438 34.621094 C 25.59375 35.671875 24.695312 36.488281 22.628906 33.785156 Z M 22.628906 33.785156 "/>
<path style=" stroke:none;fill-rule:nonzero;fill:rgb(25.882354%,64.705884%,96.078432%);fill-opacity:1;" d="M 22.632812 33.167969 C 22.875 33.167969 23.066406 33.546875 23.066406 34.015625 C 23.066406 34.484375 22.875 34.863281 22.632812 34.863281 C 22.394531 34.863281 22.199219 34.484375 22.199219 34.015625 C 22.199219 33.546875 22.394531 33.167969 22.632812 33.167969 Z M 22.632812 33.167969 "/>
<path style=" stroke:none;fill-rule:nonzero;fill:rgb(100%,80.392158%,51.372552%);fill-opacity:1;" d="M 13.394531 29.53125 L 23.316406 29.53125 C 22.820312 31.957031 21.734375 34.367188 23.316406 36.804688 L 12.898438 36.804688 C 14.1875 34.5 13.542969 32.5 13.394531 29.53125 Z M 13.394531 29.53125 "/>
<path style=" stroke:none;fill-rule:nonzero;fill:rgb(100%,71.764708%,30.19608%);fill-opacity:1;" d="M 22.546875 33.066406 L 13.6875 33.546875 C 13.691406 34.214844 13.332031 35.429688 13.144531 36.078125 L 22.820312 35.835938 C 22.695312 35.1875 22.46875 33.714844 22.546875 33.066406 Z M 22.546875 33.066406 "/>
<path style=" stroke:none;fill-rule:nonzero;fill:rgb(98.431373%,54.901963%,0%);fill-opacity:1;" d="M 22.558594 32.988281 L 18.652344 33.625 L 22.511719 33.417969 C 22.523438 33.273438 22.539062 33.132812 22.558594 32.988281 Z M 13.667969 34.191406 C 13.652344 34.402344 13.628906 34.613281 13.597656 34.820312 L 16.933594 34.34375 C 16.933594 34.34375 15.210938 34.25 13.667969 34.191406 Z M 18.914062 34.234375 L 22.539062 34.742188 C 22.523438 34.625 22.511719 34.507812 22.503906 34.390625 Z M 18.914062 34.234375 "/>
<path style=" stroke:none;fill-rule:nonzero;fill:rgb(100%,95.294118%,87.843138%);fill-opacity:1;" d="M 8.007812 16.925781 C 10.019531 17.152344 13.996094 9.230469 18.386719 9.210938 C 22.777344 9.195312 27.851562 12.078125 27.851562 18.867188 C 26.535156 23.535156 27.425781 26.125 23.882812 29.53125 C 22.84375 30.515625 20.90625 33.410156 17.929688 33.410156 C 14.953125 33.410156 13.09375 30.472656 11.976562 29.53125 C 7.863281 25.640625 8.046875 22.335938 8.007812 16.925781 Z M 8.007812 16.925781 "/>
<path style=" stroke:none;fill-rule:nonzero;fill:rgb(100%,87.843138%,69.803923%);fill-opacity:1;" d="M 26.480469 13.515625 C 26.667969 14.390625 26.789062 15.234375 26.789062 15.957031 C 26.789062 18.867188 22.820312 29.53125 19.84375 31.472656 C 18.417969 32.402344 16.761719 32.660156 15.425781 32.683594 C 16.15625 33.113281 16.988281 33.410156 17.929688 33.410156 C 20.90625 33.410156 22.84375 30.515625 23.882812 29.53125 C 27.425781 26.125 26.535156 23.535156 27.851562 18.867188 C 27.851562 16.695312 27.332031 14.921875 26.480469 13.515625 Z M 26.480469 13.515625 "/>
<path style=" stroke:none;fill-rule:nonzero;fill:rgb(77.254903%,79.215688%,91.37255%);fill-opacity:1;" d="M 23.636719 17.410156 C 22.261719 17.410156 21.15625 18.925781 21.15625 20.804688 C 21.15625 21.632812 21.367188 22.386719 21.726562 22.976562 C 22.144531 22.828125 22.628906 22.746094 23.140625 22.746094 C 23.984375 22.746094 24.746094 22.972656 25.289062 23.339844 C 25.796875 22.71875 26.117188 21.816406 26.117188 20.804688 C 26.117188 18.925781 25.007812 17.410156 23.636719 17.410156 Z M 23.636719 17.410156 "/>
<path style=" stroke:none;fill-rule:nonzero;fill:rgb(36.078432%,41.960785%,75.294119%);fill-opacity:1;" d="M 23.386719 17.410156 C 22.566406 17.410156 21.898438 18.496094 21.898438 19.835938 C 21.898438 21.175781 22.566406 22.257812 23.386719 22.257812 C 24.210938 22.257812 24.875 21.175781 24.875 19.835938 C 24.875 18.496094 24.210938 17.410156 23.386719 17.410156 Z M 23.386719 17.410156 "/>
<path style=" stroke:none;fill-rule:nonzero;fill:rgb(70.19608%,89.803922%,98.823529%);fill-opacity:1;" d="M 23.140625 17.894531 C 22.726562 17.894531 22.394531 18.222656 22.394531 18.625 C 22.394531 19.023438 22.726562 19.351562 23.140625 19.351562 C 23.550781 19.351562 23.882812 19.023438 23.882812 18.625 C 23.882812 18.222656 23.550781 17.894531 23.140625 17.894531 Z M 23.140625 17.894531 "/>
<path style=" stroke:none;fill-rule:nonzero;fill:rgb(38.039216%,38.039216%,38.039216%);fill-opacity:1;" d="M 18.109375 25.167969 L 18.601562 25.167969 C 18.742188 25.167969 18.851562 25.277344 18.851562 25.410156 C 18.851562 25.542969 18.742188 25.652344 18.601562 25.652344 L 18.109375 25.652344 C 17.96875 25.652344 17.859375 25.542969 17.859375 25.410156 C 17.859375 25.277344 17.96875 25.167969 18.109375 25.167969 Z M 18.109375 25.167969 "/>
<path style=" stroke:none;fill-rule:nonzero;fill:rgb(55.29412%,43.137255%,38.82353%);fill-opacity:1;" d="M 23.304688 17.28125 C 23.738281 17.25 24.160156 17.34375 24.558594 17.515625 C 26.136719 17.496094 27.460938 20.917969 26.929688 20.34375 C 26.09375 19.355469 25.199219 18.414062 24.320312 18.03125 C 23.882812 17.839844 23.460938 17.78125 23.015625 17.894531 C 22.167969 17.980469 20.871094 19.125 21.425781 18.464844 C 21.996094 17.828125 22.285156 17.5 22.867188 17.347656 C 23.015625 17.3125 23.160156 17.289062 23.304688 17.28125 Z M 23.304688 17.28125 "/>
<path style=" stroke:none;fill-rule:nonzero;fill:rgb(100%,43.921569%,26.274511%);fill-opacity:1;" d="M 18.035156 3.355469 C 8.753906 3.585938 6.351562 10.796875 6.199219 15.957031 C 6.199219 17.136719 6.351562 17.175781 6.699219 18.234375 C 7.652344 17.660156 8.792969 18.234375 9.988281 17.785156 C 10.304688 17.101562 10.535156 16.351562 10.589844 15.472656 C 10.851562 16.195312 10.980469 16.835938 11.015625 17.421875 C 11.242188 17.347656 11.46875 17.277344 11.699219 17.210938 C 11.804688 16.820312 11.878906 16.40625 11.90625 15.957031 C 12.046875 16.347656 12.152344 16.710938 12.222656 17.058594 C 12.570312 16.960938 12.921875 16.871094 13.277344 16.789062 C 13.480469 16.242188 13.621094 15.652344 13.664062 14.988281 C 13.878906 15.582031 14.003906 16.117188 14.0625 16.617188 C 14.828125 16.460938 15.601562 16.335938 16.375 16.246094 C 16.792969 15.453125 17.113281 14.589844 17.175781 13.53125 C 17.539062 14.535156 17.644531 15.375 17.609375 16.136719 C 17.75 16.125 17.894531 16.117188 18.035156 16.113281 C 18.175781 16.117188 18.320312 16.125 18.460938 16.136719 C 18.425781 15.375 19.304688 13.511719 19.347656 12.28125 C 19.800781 13.511719 19.277344 15.453125 19.691406 16.246094 C 20.46875 16.335938 21.242188 16.460938 22.007812 16.617188 C 22.066406 16.117188 21.828125 14.761719 21.828125 13.769531 C 22.324219 14.761719 22.589844 16.242188 22.792969 16.789062 C 23.148438 16.871094 22.96875 16.648438 23.316406 16.746094 C 23.386719 16.398438 23.8125 15.257812 23.316406 14.265625 C 24.308594 15.257812 24.347656 16.773438 24.371094 17.210938 C 24.601562 17.277344 24.828125 17.347656 25.050781 17.421875 C 25.089844 16.835938 25.300781 15.753906 24.804688 14.761719 C 25.796875 15.753906 25.765625 17.101562 26.082031 17.785156 C 27.277344 18.234375 27.820312 17.90625 28.773438 18.480469 C 29.121094 17.421875 29.871094 17.136719 29.871094 15.957031 C 29.71875 10.796875 27.316406 3.585938 18.035156 3.355469 Z M 18.035156 3.355469 "/>
<path style=" stroke:none;fill-rule:nonzero;fill:rgb(38.039216%,38.039216%,38.039216%);fill-opacity:1;" d="M 14.953125 27.933594 C 18.921875 25.996094 19.914062 27.933594 21.898438 27.933594 C 18.425781 31.8125 17.929688 31.8125 14.953125 27.933594 Z M 14.953125 27.933594 "/>
<path style=" stroke:none;fill-rule:nonzero;fill:rgb(93.725491%,32.549021%,31.37255%);fill-opacity:1;" d="M 18.039062 27.164062 C 17.367188 27.167969 16.566406 27.324219 15.558594 27.75 C 16.96875 30.457031 18.414062 32.167969 21.152344 27.933594 C 20.1875 27.714844 19.355469 27.152344 18.039062 27.164062 Z M 18.039062 27.164062 "/>
<path style=" stroke:none;fill-rule:nonzero;fill:rgb(98.039216%,98.039216%,98.039216%);fill-opacity:1;" d="M 18.039062 27.074219 C 17.578125 27.078125 17.054688 27.152344 16.441406 27.335938 L 16.441406 27.34375 C 16.441406 27.609375 16.664062 27.828125 16.9375 27.828125 L 19.914062 27.828125 C 20.097656 27.828125 20.253906 27.734375 20.339844 27.59375 C 19.671875 27.347656 18.980469 27.066406 18.039062 27.074219 Z M 18.039062 27.074219 "/>
<path style=" stroke:none;fill-rule:nonzero;fill:rgb(77.254903%,79.215688%,91.37255%);fill-opacity:1;" d="M 12.472656 17.410156 C 11.097656 17.410156 9.992188 18.925781 9.992188 20.804688 C 9.992188 21.816406 10.3125 22.71875 10.820312 23.339844 C 11.363281 22.972656 12.125 22.746094 12.96875 22.746094 C 13.480469 22.746094 13.964844 22.828125 14.382812 22.976562 C 14.738281 22.386719 14.953125 21.632812 14.953125 20.804688 C 14.953125 18.925781 13.847656 17.410156 12.472656 17.410156 Z M 12.472656 17.410156 "/>
<path style=" stroke:none;fill-rule:nonzero;fill:rgb(36.078432%,41.960785%,75.294119%);fill-opacity:1;" d="M 12.96875 17.410156 C 13.792969 17.410156 14.457031 18.496094 14.457031 19.835938 C 14.457031 21.175781 13.792969 22.257812 12.96875 22.257812 C 12.148438 22.257812 11.480469 21.175781 11.480469 19.835938 C 11.480469 18.496094 12.148438 17.410156 12.96875 17.410156 Z M 12.96875 17.410156 "/>
<path style=" stroke:none;fill-rule:nonzero;fill:rgb(70.19608%,89.803922%,98.823529%);fill-opacity:1;" d="M 13.21875 17.894531 C 13.628906 17.894531 13.960938 18.222656 13.960938 18.625 C 13.960938 19.023438 13.628906 19.351562 13.21875 19.351562 C 12.804688 19.351562 12.472656 19.023438 12.472656 18.625 C 12.472656 18.222656 12.804688 17.894531 13.21875 17.894531 Z M 13.21875 17.894531 "/>
<path style=" stroke:none;fill-rule:nonzero;fill:rgb(55.29412%,43.137255%,38.82353%);fill-opacity:1;" d="M 13.003906 17.28125 C 12.570312 17.25 12.148438 17.34375 11.75 17.515625 C 10.171875 17.496094 8.847656 20.917969 9.378906 20.34375 C 10.214844 19.355469 11.109375 18.414062 11.984375 18.03125 C 12.425781 17.839844 12.847656 17.78125 13.292969 17.894531 C 14.140625 17.980469 15.4375 19.125 14.882812 18.464844 C 14.3125 17.828125 14.023438 17.5 13.4375 17.347656 C 13.292969 17.3125 13.148438 17.289062 13.003906 17.28125 Z M 13.003906 17.28125 "/>
<path style=" stroke:none;fill-rule:nonzero;fill:rgb(100%,67.058825%,56.862748%);fill-opacity:1;" d="M 11.90625 5.425781 C 10.675781 6.847656 8.617188 6.738281 8.855469 10.871094 C 10.03125 7.71875 11.121094 7.53125 11.90625 5.425781 Z M 11.90625 5.425781 "/>
<path style=" stroke:none;fill-rule:nonzero;fill:rgb(100%,67.058825%,56.862748%);fill-opacity:1;" d="M 14.410156 4.695312 C 13.617188 5.609375 12.292969 5.539062 12.445312 8.199219 C 13.207031 6.167969 13.90625 6.046875 14.410156 4.695312 Z M 14.410156 4.695312 "/>
<path style=" stroke:none;fill-rule:nonzero;fill:rgb(90.196079%,29.019609%,9.803922%);fill-opacity:1;" d="M 9.28125 27.40625 C 8.945312 29.238281 6.609375 29.652344 8.929688 33.117188 C 8.335938 29.808594 9.679688 29.613281 9.28125 27.40625 Z M 9.28125 27.40625 "/>
<path style=" stroke:none;fill-rule:nonzero;fill:rgb(90.196079%,29.019609%,9.803922%);fill-opacity:1;" d="M 6.449219 30.140625 C 6.109375 31.972656 3.777344 32.386719 6.097656 35.851562 C 5.503906 32.542969 6.84375 32.347656 6.449219 30.140625 Z M 6.449219 30.140625 "/>
<path style=" stroke:none;fill-rule:nonzero;fill:rgb(90.196079%,29.019609%,9.803922%);fill-opacity:1;" d="M 30.261719 28.675781 C 30.601562 30.507812 33.574219 31.636719 31.253906 35.101562 C 31.847656 31.792969 29.867188 30.878906 30.261719 28.675781 Z M 30.261719 28.675781 "/>
<path style=" stroke:none;fill-rule:nonzero;fill:rgb(16.078432%,71.372551%,96.470588%);fill-opacity:1;" d="M 12.898438 36.09375 C 6.851562 36.09375 1.984375 38.304688 1.984375 41.054688 L 1.984375 45.023438 C 1.984375 45.574219 2.425781 46.015625 2.976562 46.015625 L 33.734375 46.015625 C 34.285156 46.015625 34.726562 45.574219 34.726562 45.023438 L 34.726562 41.054688 C 34.726562 38.304688 29.859375 36.09375 23.8125 36.09375 Z M 12.898438 36.09375 "/>
<path style=" stroke:none;fill-rule:nonzero;fill:rgb(100%,95.294118%,87.843138%);fill-opacity:1;" d="M 12.898438 36.09375 C 12.21875 36.09375 11.558594 36.121094 10.914062 36.175781 L 10.914062 40.0625 C 10.914062 42.8125 14.121094 45.023438 18.105469 45.023438 C 22.09375 45.023438 25.300781 42.8125 25.300781 40.0625 L 25.300781 36.140625 C 24.8125 36.109375 24.316406 36.09375 23.8125 36.09375 Z M 12.898438 36.09375 "/>
<path style=" stroke:none;fill-rule:nonzero;fill:rgb(100%,87.843138%,69.803923%);fill-opacity:1;" d="M 16.867188 40.558594 C 17.363281 39.945312 15.433594 37.746094 11.410156 39.070312 C 14.832031 39.371094 15.875 39.945312 16.867188 40.558594 Z M 16.867188 40.558594 "/>
<path style=" stroke:none;fill-rule:nonzero;fill:rgb(100%,87.843138%,69.803923%);fill-opacity:1;" d="M 19.625 40.578125 C 19.128906 39.964844 20.78125 37.746094 24.804688 39.070312 C 21.382812 39.371094 20.617188 39.964844 19.625 40.578125 Z M 19.625 40.578125 "/>
<path style=" stroke:none;fill-rule:nonzero;fill:rgb(100%,54.11765%,39.607844%);fill-opacity:1;" d="M 18.78125 10.992188 C 17.058594 10.996094 15.160156 11.339844 12.898438 12.28125 C 10.535156 13.265625 8.253906 13.78125 6.355469 14.042969 C 6.265625 14.699219 6.214844 15.34375 6.199219 15.957031 C 6.199219 15.960938 6.199219 15.964844 6.199219 15.972656 C 7.484375 16.023438 8.957031 15.992188 10.542969 15.929688 C 10.5625 15.78125 10.578125 15.628906 10.589844 15.472656 C 10.644531 15.625 10.695312 15.773438 10.738281 15.921875 C 11.648438 15.886719 12.59375 15.84375 13.558594 15.800781 C 13.609375 15.542969 13.644531 15.273438 13.664062 14.988281 C 13.765625 15.265625 13.84375 15.53125 13.910156 15.789062 C 14.808594 15.75 15.722656 15.71875 16.640625 15.699219 C 16.921875 15.054688 17.125 14.351562 17.175781 13.53125 C 17.46875 14.339844 17.59375 15.042969 17.613281 15.683594 C 17.910156 15.679688 18.210938 15.679688 18.511719 15.679688 C 18.691406 14.78125 19.3125 13.308594 19.347656 12.28125 C 19.714844 13.277344 19.4375 14.75 19.546875 15.691406 C 20.367188 15.707031 21.183594 15.738281 21.980469 15.800781 C 21.925781 15.1875 21.828125 14.402344 21.828125 13.769531 C 22.136719 14.386719 22.355469 15.191406 22.527344 15.84375 C 22.855469 15.871094 23.179688 15.90625 23.5 15.945312 C 23.582031 15.457031 23.601562 14.835938 23.316406 14.265625 C 23.839844 14.789062 24.101562 15.464844 24.230469 16.042969 C 24.535156 16.089844 24.832031 16.140625 25.128906 16.195312 C 25.117188 15.738281 25.042969 15.242188 24.804688 14.761719 C 25.277344 15.234375 25.515625 15.785156 25.671875 16.304688 C 27.179688 16.632812 28.113281 16.917969 29.269531 17.613281 C 29.375 17.011719 29.871094 16.589844 29.871094 15.957031 C 29.835938 14.746094 29.675781 13.425781 29.332031 12.105469 C 28.859375 12.503906 27.871094 12.800781 25.796875 12.28125 C 23.441406 11.691406 21.300781 10.984375 18.78125 10.992188 Z M 18.78125 10.992188 "/>
<path style=" stroke:none;fill-rule:nonzero;fill:rgb(90.196079%,29.019609%,9.803922%);fill-opacity:1;" d="M 27.285156 24.707031 C 27.625 26.539062 30.597656 27.667969 28.277344 31.132812 C 28.871094 27.824219 26.890625 26.910156 27.285156 24.707031 Z M 27.285156 24.707031 "/>
</g>
</svg>
