<?xml version="1.0" encoding="UTF-8"?>
<svg xmlns="http://www.w3.org/2000/svg" xmlns:xlink="http://www.w3.org/1999/xlink" width="48px" height="48px" viewBox="0 0 48 48" version="1.1">
<defs>
<linearGradient id="linear0" gradientUnits="userSpaceOnUse" x1="42.333332" y1="42.999996" x2="465.666656" y2="42.999996" gradientTransform="matrix(0.09375,0,0,0.09375,0.000000625,19.781249)">
<stop offset="0" style="stop-color:rgb(97.254902%,97.254902%,97.254902%);stop-opacity:0;"/>
<stop offset="0.5" style="stop-color:rgb(61.176473%,80.000001%,39.607844%);stop-opacity:0.0784314;"/>
<stop offset="1" style="stop-color:rgb(61.176473%,80.000001%,39.607844%);stop-opacity:0;"/>
</linearGradient>
</defs>
<g id="surface1">
<path style=" stroke:none;fill-rule:nonzero;fill:rgb(25.882354%,25.882354%,25.882354%);fill-opacity:1;" d="M 3.96875 3.96875 L 43.65625 3.96875 C 44.753906 3.96875 45.640625 4.855469 45.640625 5.953125 L 45.640625 41.671875 C 45.640625 42.769531 44.753906 43.65625 43.65625 43.65625 L 3.96875 43.65625 C 2.871094 43.65625 1.984375 42.769531 1.984375 41.671875 L 1.984375 5.953125 C 1.984375 4.855469 2.871094 3.96875 3.96875 3.96875 Z M 3.96875 3.96875 "/>
<path style=" stroke:none;fill-rule:nonzero;fill:url(#linear0);" d="M 3.96875 5.457031 L 3.96875 6.449219 L 43.65625 6.449219 L 43.65625 5.457031 Z M 3.96875 8.433594 L 3.96875 9.425781 L 43.65625 9.425781 L 43.65625 8.433594 Z M 3.96875 11.410156 L 3.96875 12.402344 L 43.65625 12.402344 L 43.65625 11.410156 Z M 3.96875 14.386719 L 3.96875 15.378906 L 43.65625 15.378906 L 43.65625 14.386719 Z M 3.96875 17.363281 L 3.96875 18.355469 L 43.65625 18.355469 L 43.65625 17.363281 Z M 3.96875 20.339844 L 3.96875 21.332031 L 43.65625 21.332031 L 43.65625 20.339844 Z M 3.96875 23.316406 L 3.96875 24.308594 L 43.65625 24.308594 L 43.65625 23.316406 Z M 3.96875 26.292969 L 3.96875 27.285156 L 43.65625 27.285156 L 43.65625 26.292969 Z M 3.96875 29.269531 L 3.96875 30.261719 L 43.65625 30.261719 L 43.65625 29.269531 Z M 3.96875 32.246094 L 3.96875 33.238281 L 43.65625 33.238281 L 43.65625 32.246094 Z M 3.96875 35.222656 L 3.96875 36.214844 L 43.65625 36.214844 L 43.65625 35.222656 Z M 3.96875 38.199219 L 3.96875 39.191406 L 43.65625 39.191406 L 43.65625 38.199219 Z M 3.96875 41.175781 L 3.96875 42.167969 L 43.65625 42.167969 L 43.65625 41.175781 Z M 3.96875 41.175781 "/>
<path style=" stroke:none;fill-rule:nonzero;fill:rgb(74.117649%,74.117649%,74.117649%);fill-opacity:1;" d="M 8.859375 28.277344 C 7.691406 28.28125 6.527344 28.675781 5.597656 29.386719 C 4.597656 30.152344 3.875 31.273438 3.605469 32.503906 C 3.496094 32.976562 3.464844 33.464844 3.472656 33.949219 C 3.472656 34.894531 3.472656 35.839844 3.472656 36.785156 C 3.507812 36.828125 3.585938 36.792969 3.636719 36.804688 C 4.105469 36.804688 4.570312 36.804688 5.035156 36.804688 C 5.078125 36.769531 5.046875 36.691406 5.054688 36.640625 C 5.058594 35.617188 5.054688 34.597656 5.058594 33.574219 C 5.082031 32.675781 5.4375 31.792969 6.039062 31.128906 C 6.664062 30.425781 7.554688 29.976562 8.488281 29.878906 C 9.375 29.785156 10.300781 30.007812 11.042969 30.511719 C 11.816406 31.03125 12.386719 31.835938 12.613281 32.738281 C 12.71875 33.125 12.742188 33.527344 12.734375 33.929688 C 12.734375 34.882812 12.734375 35.832031 12.734375 36.785156 C 12.769531 36.828125 12.847656 36.792969 12.898438 36.804688 C 13.363281 36.804688 13.832031 36.804688 14.296875 36.804688 C 14.339844 36.769531 14.304688 36.691406 14.316406 36.640625 C 14.316406 35.605469 14.320312 34.574219 14.3125 33.539062 C 14.285156 32.359375 13.855469 31.195312 13.109375 30.28125 C 12.328125 29.308594 11.195312 28.625 9.972656 28.382812 C 9.605469 28.308594 9.234375 28.273438 8.859375 28.277344 Z M 8.859375 28.277344 "/>
<path style=" stroke:none;fill-rule:nonzero;fill:rgb(61.176473%,80.000001%,39.607844%);fill-opacity:1;" d="M 2.757812 36.378906 L 15.101562 36.378906 C 15.53125 36.378906 15.875 36.726562 15.875 37.152344 L 15.875 44.867188 C 15.875 45.296875 15.53125 45.640625 15.101562 45.640625 L 2.757812 45.640625 C 2.328125 45.640625 1.984375 45.296875 1.984375 44.867188 L 1.984375 37.152344 C 1.984375 36.726562 2.328125 36.378906 2.757812 36.378906 Z M 2.757812 36.378906 "/>
<path style=" stroke:none;fill-rule:nonzero;fill:rgb(48.627451%,70.19608%,25.882354%);fill-opacity:1;" d="M 1.984375 37.703125 L 5.457031 37.703125 L 5.457031 38.476562 L 1.984375 38.476562 Z M 1.984375 37.703125 "/>
<path style=" stroke:none;fill-rule:nonzero;fill:rgb(48.627451%,70.19608%,25.882354%);fill-opacity:1;" d="M 1.984375 39.246094 L 5.457031 39.246094 L 5.457031 40.019531 L 1.984375 40.019531 Z M 1.984375 39.246094 "/>
<path style=" stroke:none;fill-rule:nonzero;fill:rgb(48.627451%,70.19608%,25.882354%);fill-opacity:1;" d="M 1.984375 40.789062 L 5.457031 40.789062 L 5.457031 41.5625 L 1.984375 41.5625 Z M 1.984375 40.789062 "/>
<path style=" stroke:none;fill-rule:nonzero;fill:rgb(48.627451%,70.19608%,25.882354%);fill-opacity:1;" d="M 1.984375 42.332031 L 5.457031 42.332031 L 5.457031 43.105469 L 1.984375 43.105469 Z M 1.984375 42.332031 "/>
<path style=" stroke:none;fill-rule:nonzero;fill:rgb(48.627451%,70.19608%,25.882354%);fill-opacity:1;" d="M 1.984375 43.875 L 5.457031 43.875 L 5.457031 44.648438 L 1.984375 44.648438 Z M 1.984375 43.875 "/>
<path style=" stroke:none;fill-rule:nonzero;fill:rgb(48.627451%,70.19608%,25.882354%);fill-opacity:1;" d="M 12.402344 37.703125 L 15.875 37.703125 L 15.875 38.476562 L 12.402344 38.476562 Z M 12.402344 37.703125 "/>
<path style=" stroke:none;fill-rule:nonzero;fill:rgb(48.627451%,70.19608%,25.882354%);fill-opacity:1;" d="M 12.402344 39.246094 L 15.875 39.246094 L 15.875 40.019531 L 12.402344 40.019531 Z M 12.402344 39.246094 "/>
<path style=" stroke:none;fill-rule:nonzero;fill:rgb(48.627451%,70.19608%,25.882354%);fill-opacity:1;" d="M 12.402344 40.789062 L 15.875 40.789062 L 15.875 41.5625 L 12.402344 41.5625 Z M 12.402344 40.789062 "/>
<path style=" stroke:none;fill-rule:nonzero;fill:rgb(48.627451%,70.19608%,25.882354%);fill-opacity:1;" d="M 12.402344 42.332031 L 15.875 42.332031 L 15.875 43.105469 L 12.402344 43.105469 Z M 12.402344 42.332031 "/>
<path style=" stroke:none;fill-rule:nonzero;fill:rgb(48.627451%,70.19608%,25.882354%);fill-opacity:1;" d="M 12.402344 43.875 L 15.875 43.875 L 15.875 44.648438 L 12.402344 44.648438 Z M 12.402344 43.875 "/>
<path style=" stroke:none;fill-rule:nonzero;fill:rgb(61.176473%,80.000001%,39.607844%);fill-opacity:1;" d="M 8.433594 6.449219 L 9.425781 6.449219 C 9.699219 6.449219 9.921875 6.671875 9.921875 6.945312 L 9.921875 8.433594 C 9.921875 8.707031 9.699219 8.929688 9.425781 8.929688 L 8.433594 8.929688 C 8.160156 8.929688 7.9375 8.707031 7.9375 8.433594 L 7.9375 6.945312 C 7.9375 6.671875 8.160156 6.449219 8.433594 6.449219 Z M 8.433594 6.449219 "/>
<path style=" stroke:none;fill-rule:nonzero;fill:rgb(61.176473%,80.000001%,39.607844%);fill-opacity:1;" d="M 16.371094 18.851562 L 18.851562 18.851562 C 19.398438 18.851562 19.84375 19.296875 19.84375 19.84375 C 19.84375 20.390625 19.398438 20.835938 18.851562 20.835938 L 16.371094 20.835938 C 15.824219 20.835938 15.378906 20.390625 15.378906 19.84375 C 15.378906 19.296875 15.824219 18.851562 16.371094 18.851562 Z M 16.371094 18.851562 "/>
<path style=" stroke:none;fill-rule:nonzero;fill:rgb(61.176473%,80.000001%,39.607844%);fill-opacity:1;" d="M 8.433594 19.84375 L 9.425781 19.84375 C 9.699219 19.84375 9.921875 20.066406 9.921875 20.339844 L 9.921875 21.828125 C 9.921875 22.101562 9.699219 22.324219 9.425781 22.324219 L 8.433594 22.324219 C 8.160156 22.324219 7.9375 22.101562 7.9375 21.828125 L 7.9375 20.339844 C 7.9375 20.066406 8.160156 19.84375 8.433594 19.84375 Z M 8.433594 19.84375 "/>
<path style=" stroke:none;fill-rule:nonzero;fill:rgb(61.176473%,80.000001%,39.607844%);fill-opacity:1;" d="M 8.941406 7.441406 C 7.78125 7.421875 6.679688 7.710938 5.832031 8.390625 C 4.984375 9.074219 4.464844 10.167969 4.464844 11.410156 C 4.464844 12.734375 5.242188 13.746094 6.101562 14.292969 C 6.960938 14.839844 7.902344 15.089844 8.617188 15.328125 C 9.390625 15.585938 10.1875 15.832031 10.691406 16.152344 C 11.195312 16.476562 11.410156 16.703125 11.410156 17.363281 C 11.410156 18.109375 11.183594 18.507812 10.789062 18.820312 C 10.398438 19.136719 9.757812 19.347656 8.929688 19.347656 C 8.101562 19.347656 7.425781 19.132812 7.019531 18.84375 C 6.609375 18.558594 6.449219 18.273438 6.449219 17.859375 C 6.453125 17.5 6.265625 17.167969 5.957031 16.988281 C 5.648438 16.808594 5.265625 16.808594 4.957031 16.988281 C 4.648438 17.167969 4.460938 17.5 4.464844 17.859375 C 4.464844 18.933594 5.050781 19.886719 5.878906 20.46875 C 6.710938 21.050781 7.773438 21.332031 8.929688 21.332031 C 10.085938 21.332031 11.183594 21.046875 12.03125 20.371094 C 12.875 19.691406 13.394531 18.601562 13.394531 17.363281 C 13.394531 16.039062 12.617188 15.027344 11.757812 14.480469 C 10.898438 13.933594 9.957031 13.683594 9.242188 13.445312 C 8.46875 13.1875 7.671875 12.941406 7.167969 12.621094 C 6.664062 12.296875 6.449219 12.070312 6.449219 11.410156 C 6.449219 10.667969 6.679688 10.253906 7.078125 9.9375 C 7.472656 9.617188 8.105469 9.410156 8.910156 9.425781 C 8.917969 9.425781 8.921875 9.425781 8.929688 9.425781 C 9.757812 9.425781 10.433594 9.640625 10.839844 9.929688 C 11.25 10.214844 11.410156 10.5 11.410156 10.914062 C 11.40625 11.273438 11.59375 11.605469 11.902344 11.785156 C 12.210938 11.964844 12.59375 11.964844 12.902344 11.785156 C 13.210938 11.605469 13.398438 11.273438 13.394531 10.914062 C 13.394531 9.839844 12.808594 8.886719 11.980469 8.304688 C 11.152344 7.722656 10.09375 7.445312 8.941406 7.441406 Z M 8.941406 7.441406 "/>
</g>
</svg>
