<?xml version="1.0" encoding="UTF-8"?>
<svg xmlns="http://www.w3.org/2000/svg" xmlns:xlink="http://www.w3.org/1999/xlink" width="48px" height="48px" viewBox="0 0 48 48" version="1.1">
<g id="surface1">
<path style=" stroke:none;fill-rule:nonzero;fill:rgb(87.843138%,87.843138%,87.843138%);fill-opacity:1;" d="M 7.9375 2.359375 L 39.6875 2.359375 C 40.785156 2.359375 41.671875 3.246094 41.671875 4.34375 L 41.671875 44.03125 C 41.671875 45.128906 40.785156 46.015625 39.6875 46.015625 L 7.9375 46.015625 C 6.839844 46.015625 5.953125 45.128906 5.953125 44.03125 L 5.953125 4.34375 C 5.953125 3.246094 6.839844 2.359375 7.9375 2.359375 Z M 7.9375 2.359375 "/>
<path style=" stroke:none;fill-rule:nonzero;fill:rgb(25.882354%,25.882354%,25.882354%);fill-opacity:1;" d="M 9.425781 6.328125 L 38.199219 6.328125 C 39.019531 6.328125 39.6875 6.996094 39.6875 7.816406 L 39.6875 42.542969 C 39.6875 43.363281 39.019531 44.03125 38.199219 44.03125 L 9.425781 44.03125 C 8.605469 44.03125 7.9375 43.363281 7.9375 42.542969 L 7.9375 7.816406 C 7.9375 6.996094 8.605469 6.328125 9.425781 6.328125 Z M 9.425781 6.328125 "/>
<path style=" stroke:none;fill-rule:nonzero;fill:rgb(93.333334%,93.333334%,93.333334%);fill-opacity:1;" d="M 10.914062 8.3125 L 36.710938 8.3125 C 37.257812 8.3125 37.703125 8.757812 37.703125 9.304688 L 37.703125 41.054688 C 37.703125 41.601562 37.257812 42.046875 36.710938 42.046875 L 10.914062 42.046875 C 10.367188 42.046875 9.921875 41.601562 9.921875 41.054688 L 9.921875 9.304688 C 9.921875 8.757812 10.367188 8.3125 10.914062 8.3125 Z M 10.914062 8.3125 "/>
<path style=" stroke:none;fill-rule:nonzero;fill:rgb(100%,80.392158%,82.352942%);fill-opacity:1;" d="M 10.914062 8.3125 C 10.363281 8.3125 9.921875 8.753906 9.921875 9.304688 L 9.921875 20.21875 L 37.703125 20.21875 L 37.703125 9.304688 C 37.703125 8.753906 37.261719 8.3125 36.710938 8.3125 Z M 10.914062 8.3125 "/>
<path style=" stroke:none;fill-rule:nonzero;fill:rgb(93.725491%,32.549021%,31.37255%);fill-opacity:1;" d="M 14.386719 13.273438 L 33.238281 13.273438 C 33.511719 13.273438 33.734375 13.496094 33.734375 13.769531 L 33.734375 14.761719 C 33.734375 15.035156 33.511719 15.257812 33.238281 15.257812 L 14.386719 15.257812 C 14.113281 15.257812 13.890625 15.035156 13.890625 14.761719 L 13.890625 13.769531 C 13.890625 13.496094 14.113281 13.273438 14.386719 13.273438 Z M 14.386719 13.273438 "/>
<path style=" stroke:none;fill-rule:nonzero;fill:rgb(93.725491%,32.549021%,31.37255%);fill-opacity:1;" d="M 14.386719 18.234375 L 33.238281 18.234375 C 33.511719 18.234375 33.734375 18.457031 33.734375 18.730469 L 33.734375 19.722656 C 33.734375 19.996094 33.511719 20.21875 33.238281 20.21875 L 14.386719 20.21875 C 14.113281 20.21875 13.890625 19.996094 13.890625 19.722656 L 13.890625 18.730469 C 13.890625 18.457031 14.113281 18.234375 14.386719 18.234375 Z M 14.386719 18.234375 "/>
<path style=" stroke:none;fill-rule:nonzero;fill:rgb(25.882354%,25.882354%,25.882354%);fill-opacity:1;" d="M 14.386719 23.195312 L 33.238281 23.195312 C 33.511719 23.195312 33.734375 23.417969 33.734375 23.691406 L 33.734375 24.683594 C 33.734375 24.957031 33.511719 25.179688 33.238281 25.179688 L 14.386719 25.179688 C 14.113281 25.179688 13.890625 24.957031 13.890625 24.683594 L 13.890625 23.691406 C 13.890625 23.417969 14.113281 23.195312 14.386719 23.195312 Z M 14.386719 23.195312 "/>
<path style=" stroke:none;fill-rule:nonzero;fill:rgb(25.882354%,25.882354%,25.882354%);fill-opacity:1;" d="M 14.386719 28.15625 L 33.238281 28.15625 C 33.511719 28.15625 33.734375 28.378906 33.734375 28.652344 L 33.734375 29.644531 C 33.734375 29.917969 33.511719 30.140625 33.238281 30.140625 L 14.386719 30.140625 C 14.113281 30.140625 13.890625 29.917969 13.890625 29.644531 L 13.890625 28.652344 C 13.890625 28.378906 14.113281 28.15625 14.386719 28.15625 Z M 14.386719 28.15625 "/>
<path style=" stroke:none;fill-rule:nonzero;fill:rgb(25.882354%,25.882354%,25.882354%);fill-opacity:1;" d="M 18.355469 33.117188 L 33.238281 33.117188 C 33.511719 33.117188 33.734375 33.339844 33.734375 33.613281 L 33.734375 34.605469 C 33.734375 34.878906 33.511719 35.101562 33.238281 35.101562 L 18.355469 35.101562 C 18.082031 35.101562 17.859375 34.878906 17.859375 34.605469 L 17.859375 33.613281 C 17.859375 33.339844 18.082031 33.117188 18.355469 33.117188 Z M 18.355469 33.117188 "/>
<path style=" stroke:none;fill-rule:nonzero;fill:rgb(61.960787%,61.960787%,61.960787%);fill-opacity:1;" d="M 6.945312 19.226562 L 10.914062 19.226562 C 11.460938 19.226562 11.90625 19.671875 11.90625 20.21875 L 11.90625 21.210938 C 11.90625 21.757812 11.460938 22.203125 10.914062 22.203125 L 6.945312 22.203125 C 6.398438 22.203125 5.953125 21.757812 5.953125 21.210938 L 5.953125 20.21875 C 5.953125 19.671875 6.398438 19.226562 6.945312 19.226562 Z M 6.945312 19.226562 "/>
<path style=" stroke:none;fill-rule:nonzero;fill:rgb(61.960787%,61.960787%,61.960787%);fill-opacity:1;" d="M 36.710938 19.226562 L 40.679688 19.226562 C 41.226562 19.226562 41.671875 19.671875 41.671875 20.21875 L 41.671875 21.210938 C 41.671875 21.757812 41.226562 22.203125 40.679688 22.203125 L 36.710938 22.203125 C 36.164062 22.203125 35.71875 21.757812 35.71875 21.210938 L 35.71875 20.21875 C 35.71875 19.671875 36.164062 19.226562 36.710938 19.226562 Z M 36.710938 19.226562 "/>
<path style=" stroke:none;fill-rule:nonzero;fill:rgb(93.725491%,32.549021%,31.37255%);fill-opacity:1;" d="M 11.90625 20.21875 L 35.71875 20.21875 L 35.71875 21.210938 L 11.90625 21.210938 Z M 11.90625 20.21875 "/>
<path style=" stroke:none;fill-rule:nonzero;fill:rgb(93.333334%,93.333334%,93.333334%);fill-opacity:1;" d="M 7.9375 2.359375 C 6.839844 2.359375 5.953125 3.246094 5.953125 4.34375 L 5.953125 10.296875 L 41.671875 10.296875 L 41.671875 4.34375 C 41.671875 3.246094 40.785156 2.359375 39.6875 2.359375 Z M 7.9375 2.359375 "/>
<path style=" stroke:none;fill-rule:nonzero;fill:rgb(38.039216%,38.039216%,38.039216%);fill-opacity:1;" d="M 9.425781 4.34375 L 16.371094 4.34375 C 16.644531 4.34375 16.867188 4.566406 16.867188 4.839844 L 16.867188 7.816406 C 16.867188 8.089844 16.644531 8.3125 16.371094 8.3125 L 9.425781 8.3125 C 9.152344 8.3125 8.929688 8.089844 8.929688 7.816406 L 8.929688 4.839844 C 8.929688 4.566406 9.152344 4.34375 9.425781 4.34375 Z M 9.425781 4.34375 "/>
<path style=" stroke:none;fill-rule:nonzero;fill:rgb(38.039216%,38.039216%,38.039216%);fill-opacity:1;" d="M 19.347656 4.34375 L 22.324219 4.34375 C 22.597656 4.34375 22.820312 4.566406 22.820312 4.839844 L 22.820312 5.832031 C 22.820312 6.105469 22.597656 6.328125 22.324219 6.328125 L 19.347656 6.328125 C 19.074219 6.328125 18.851562 6.105469 18.851562 5.832031 L 18.851562 4.839844 C 18.851562 4.566406 19.074219 4.34375 19.347656 4.34375 Z M 19.347656 4.34375 "/>
<path style=" stroke:none;fill-rule:nonzero;fill:rgb(38.039216%,38.039216%,38.039216%);fill-opacity:1;" d="M 19.347656 7.320312 L 22.324219 7.320312 C 22.597656 7.320312 22.820312 7.542969 22.820312 7.816406 C 22.820312 8.089844 22.597656 8.3125 22.324219 8.3125 L 19.347656 8.3125 C 19.074219 8.3125 18.851562 8.089844 18.851562 7.816406 C 18.851562 7.542969 19.074219 7.320312 19.347656 7.320312 Z M 19.347656 7.320312 "/>
<path style=" stroke:none;fill-rule:nonzero;fill:rgb(38.039216%,38.039216%,38.039216%);fill-opacity:1;" d="M 29.269531 4.34375 L 32.246094 4.34375 C 32.519531 4.34375 32.742188 4.566406 32.742188 4.839844 L 32.742188 7.816406 C 32.742188 8.089844 32.519531 8.3125 32.246094 8.3125 L 29.269531 8.3125 C 28.996094 8.3125 28.773438 8.089844 28.773438 7.816406 L 28.773438 4.839844 C 28.773438 4.566406 28.996094 4.34375 29.269531 4.34375 Z M 29.269531 4.34375 "/>
<path style=" stroke:none;fill-rule:nonzero;fill:rgb(38.039216%,38.039216%,38.039216%);fill-opacity:1;" d="M 35.222656 4.34375 L 38.199219 4.34375 C 38.472656 4.34375 38.695312 4.566406 38.695312 4.839844 L 38.695312 7.816406 C 38.695312 8.089844 38.472656 8.3125 38.199219 8.3125 L 35.222656 8.3125 C 34.949219 8.3125 34.726562 8.089844 34.726562 7.816406 L 34.726562 4.839844 C 34.726562 4.566406 34.949219 4.34375 35.222656 4.34375 Z M 35.222656 4.34375 "/>
</g>
</svg>
