
<svg xmlns="http://www.w3.org/2000/svg" xmlns:xlink="http://www.w3.org/1999/xlink" width="48px" height="48px" viewBox="0 0 48 48" version="1.1">
<g id="surface1">
<path style=" stroke:none;fill-rule:nonzero;fill:rgb(40.000001%,73.333335%,41.568628%);fill-opacity:1;" d="M 29.269531 2.976562 C 31.734375 2.976562 33.734375 4.976562 33.734375 7.441406 L 33.734375 18.355469 C 33.734375 20.820312 31.734375 22.820312 29.269531 22.820312 C 26.804688 22.820312 24.804688 20.820312 24.804688 18.355469 L 24.804688 7.441406 C 24.804688 4.976562 26.804688 2.976562 29.269531 2.976562 Z M 29.269531 2.976562 "/>
<path style=" stroke:none;fill-rule:nonzero;fill:rgb(40.000001%,73.333335%,41.568628%);fill-opacity:1;" d="M 40.183594 13.890625 C 37.710938 13.890625 35.71875 15.882812 35.71875 18.355469 L 35.71875 22.820312 L 40.183594 22.820312 C 42.65625 22.820312 44.648438 20.828125 44.648438 18.355469 C 44.648438 15.882812 42.65625 13.890625 40.183594 13.890625 Z M 40.183594 13.890625 "/>
<path style=" stroke:none;fill-rule:nonzero;fill:rgb(92.54902%,25.098041%,47.843137%);fill-opacity:1;" d="M 18.355469 44.648438 C 15.890625 44.648438 13.890625 42.648438 13.890625 40.183594 L 13.890625 29.269531 C 13.890625 26.804688 15.890625 24.804688 18.355469 24.804688 C 20.820312 24.804688 22.820312 26.804688 22.820312 29.269531 L 22.820312 40.183594 C 22.820312 42.648438 20.820312 44.648438 18.355469 44.648438 Z M 18.355469 44.648438 "/>
<path style=" stroke:none;fill-rule:nonzero;fill:rgb(92.54902%,25.098041%,47.843137%);fill-opacity:1;" d="M 7.441406 33.734375 C 9.914062 33.734375 11.90625 31.742188 11.90625 29.269531 L 11.90625 24.804688 L 7.441406 24.804688 C 4.96875 24.804688 2.976562 26.796875 2.976562 29.269531 C 2.976562 31.742188 4.96875 33.734375 7.441406 33.734375 Z M 7.441406 33.734375 "/>
<path style=" stroke:none;fill-rule:nonzero;fill:rgb(100%,65.490198%,14.901961%);fill-opacity:1;" d="M 43.65625 29.269531 C 43.65625 31.734375 41.65625 33.734375 39.191406 33.734375 L 29.269531 33.734375 C 26.804688 33.734375 24.804688 31.734375 24.804688 29.269531 C 24.804688 26.804688 26.804688 24.804688 29.269531 24.804688 L 39.191406 24.804688 C 41.65625 24.804688 43.65625 26.804688 43.65625 29.269531 Z M 43.65625 29.269531 "/>
<path style=" stroke:none;fill-rule:nonzero;fill:rgb(100%,65.490198%,14.901961%);fill-opacity:1;" d="M 33.734375 40.183594 C 33.734375 37.710938 31.742188 35.71875 29.269531 35.71875 L 24.804688 35.71875 L 24.804688 40.183594 C 24.804688 42.65625 26.796875 44.648438 29.269531 44.648438 C 31.742188 44.648438 33.734375 42.65625 33.734375 40.183594 Z M 33.734375 40.183594 "/>
<path style=" stroke:none;fill-rule:nonzero;fill:rgb(16.078432%,71.372551%,96.470588%);fill-opacity:1;" d="M 2.976562 18.355469 C 2.976562 15.890625 4.976562 13.890625 7.441406 13.890625 L 18.355469 13.890625 C 20.820312 13.890625 22.820312 15.890625 22.820312 18.355469 C 22.820312 20.820312 20.820312 22.820312 18.355469 22.820312 L 7.441406 22.820312 C 4.976562 22.820312 2.976562 20.820312 2.976562 18.355469 Z M 2.976562 18.355469 "/>
<path style=" stroke:none;fill-rule:nonzero;fill:rgb(16.078432%,71.372551%,96.470588%);fill-opacity:1;" d="M 13.890625 7.441406 C 13.890625 9.914062 15.882812 11.90625 18.355469 11.90625 L 22.820312 11.90625 L 22.820312 7.441406 C 22.820312 4.96875 20.828125 2.976562 18.355469 2.976562 C 15.882812 2.976562 13.890625 4.96875 13.890625 7.441406 Z M 13.890625 7.441406 "/>
</g>
</svg>
