<?xml version="1.0" encoding="UTF-8"?>
<svg xmlns="http://www.w3.org/2000/svg" xmlns:xlink="http://www.w3.org/1999/xlink" width="48px" height="48px" viewBox="0 0 48 48" version="1.1">
<defs>
<linearGradient id="linear0" gradientUnits="userSpaceOnUse" x1="275.166656" y1="-20.499998" x2="275.166656" y2="106.5" gradientTransform="matrix(0.09375,0,0,0.09375,0,20.15625)">
<stop offset="0" style="stop-color:rgb(87.843138%,87.843138%,87.843138%);stop-opacity:1;"/>
<stop offset="1" style="stop-color:rgb(93.333334%,93.333334%,93.333334%);stop-opacity:1;"/>
</linearGradient>
<linearGradient id="linear1" gradientUnits="userSpaceOnUse" x1="269.875" y1="-20.500025" x2="269.875" y2="106.500023" gradientTransform="matrix(0.1875,0,0,0.1875,-23.812484,16.125004)">
<stop offset="0" style="stop-color:rgb(87.843138%,87.843138%,87.843138%);stop-opacity:1;"/>
<stop offset="1" style="stop-color:rgb(93.333334%,93.333334%,93.333334%);stop-opacity:1;"/>
</linearGradient>
</defs>
<g id="surface1">
<path style=" stroke:none;fill-rule:nonzero;fill:rgb(67.058825%,27.843139%,73.725492%);fill-opacity:1;" d="M 23.8125 2.359375 C 35.867188 2.359375 45.640625 12.132812 45.640625 24.1875 C 45.640625 36.242188 35.867188 46.015625 23.8125 46.015625 C 11.757812 46.015625 1.984375 36.242188 1.984375 24.1875 C 1.984375 12.132812 11.757812 2.359375 23.8125 2.359375 Z M 23.8125 2.359375 "/>
<path style=" stroke:none;fill-rule:nonzero;fill:url(#linear0);" d="M 23.8125 18.234375 L 23.8125 30.140625 C 27.109375 30.140625 29.765625 27.484375 29.765625 24.1875 C 29.765625 20.890625 27.109375 18.234375 23.8125 18.234375 Z M 23.8125 18.234375 "/>
<path style=" stroke:none;fill-rule:nonzero;fill:rgb(93.333334%,93.333334%,93.333334%);fill-opacity:1;" d="M 23.8125 6.328125 L 23.8125 9.304688 C 32.058594 9.304688 38.695312 15.941406 38.695312 24.1875 C 38.695312 32.433594 32.058594 39.070312 23.8125 39.070312 L 23.8125 42.046875 C 33.707031 42.046875 41.671875 34.082031 41.671875 24.1875 C 41.671875 14.292969 33.707031 6.328125 23.8125 6.328125 Z M 23.8125 6.328125 "/>
<path style=" stroke:none;fill-rule:nonzero;fill:url(#linear1);" d="M 23.8125 12.28125 L 23.8125 15.257812 C 28.757812 15.257812 32.742188 19.242188 32.742188 24.1875 C 32.742188 29.132812 28.757812 33.117188 23.8125 33.117188 L 23.8125 36.09375 C 30.410156 36.09375 35.71875 30.785156 35.71875 24.1875 C 35.71875 17.589844 30.410156 12.28125 23.8125 12.28125 Z M 23.8125 12.28125 "/>
<path style=" stroke:none;fill-rule:nonzero;fill:rgb(93.333334%,93.333334%,93.333334%);fill-opacity:0.0784314;" d="M 23.8125 18.234375 L 23.8125 30.140625 C 20.515625 30.140625 17.859375 27.484375 17.859375 24.1875 C 17.859375 20.890625 20.515625 18.234375 23.8125 18.234375 Z M 23.8125 18.234375 "/>
<path style=" stroke:none;fill-rule:nonzero;fill:rgb(93.333334%,93.333334%,93.333334%);fill-opacity:0.0784314;" d="M 23.8125 6.328125 L 23.8125 9.304688 C 15.566406 9.304688 8.929688 15.941406 8.929688 24.1875 C 8.929688 32.433594 15.566406 39.070312 23.8125 39.070312 L 23.8125 42.046875 C 13.917969 42.046875 5.953125 34.082031 5.953125 24.1875 C 5.953125 14.292969 13.917969 6.328125 23.8125 6.328125 Z M 23.8125 6.328125 "/>
<path style=" stroke:none;fill-rule:nonzero;fill:rgb(93.333334%,93.333334%,93.333334%);fill-opacity:0.0784314;" d="M 23.8125 12.28125 L 23.8125 15.257812 C 18.867188 15.257812 14.882812 19.242188 14.882812 24.1875 C 14.882812 29.132812 18.867188 33.117188 23.8125 33.117188 L 23.8125 36.09375 C 17.214844 36.09375 11.90625 30.785156 11.90625 24.1875 C 11.90625 17.589844 17.214844 12.28125 23.8125 12.28125 Z M 23.8125 12.28125 "/>
</g>
</svg>
