<?xml version="1.0" encoding="UTF-8"?>
<svg xmlns="http://www.w3.org/2000/svg" xmlns:xlink="http://www.w3.org/1999/xlink" width="48px" height="48px" viewBox="0 0 48 48" version="1.1">
<g id="surface1">
<path style=" stroke:none;fill-rule:nonzero;fill:rgb(89.803922%,22.352941%,20.784314%);fill-opacity:1;" d="M 9.914062 2.359375 C 8.8125 2.359375 7.929688 3.246094 7.929688 4.34375 L 7.929688 11.511719 C 8.917969 12.796875 8.921875 13.273438 8.921875 13.273438 C 10.9375 16.164062 7.996094 15.355469 7.929688 17.242188 C 7.929688 19.226562 8.921875 20.21875 8.921875 20.21875 L 7.929688 22.203125 L 7.929688 27.496094 L 8.921875 28.15625 L 9.417969 29.148438 L 8.921875 32.125 C 8.855469 32.503906 8.472656 32.59375 7.929688 32.671875 L 7.929688 39.070312 C 7.929688 40.0625 8.921875 42.046875 7.929688 42.046875 L 7.929688 44.03125 C 7.929688 45.128906 8.8125 46.015625 9.914062 46.015625 L 12.953125 46.015625 C 14.953125 44.40625 18.261719 44.742188 22.191406 46.015625 L 37.695312 46.015625 C 38.792969 46.015625 39.679688 45.128906 39.679688 44.03125 L 39.679688 43.039062 L 38.6875 40.0625 L 38.6875 37.085938 C 38.6875 36.4375 39.109375 35.367188 39.679688 34.703125 L 39.679688 30.535156 C 39.117188 30.074219 38.6875 29.609375 38.6875 29.148438 C 38.6875 28.15625 36.703125 30.140625 37.695312 27.164062 C 38.121094 25.886719 38.914062 24.972656 39.679688 24.347656 L 39.679688 19.226562 C 39.679688 18.234375 38.6875 18.234375 38.6875 17.242188 C 38.6875 16.25 39.679688 14.265625 39.679688 14.265625 L 39.679688 10.296875 C 38.6875 9.304688 37.695312 8.3125 39.679688 7.320312 L 39.679688 4.34375 C 39.679688 3.246094 38.792969 2.359375 37.695312 2.359375 L 32.734375 2.359375 C 32.734375 2.359375 34.71875 3.351562 32.734375 3.351562 C 30.75 3.351562 30.75 4.34375 29.757812 3.351562 C 29.480469 3.074219 29.28125 2.722656 29.136719 2.359375 L 26.109375 2.359375 C 25.628906 3.246094 25.226562 4.0625 23.804688 3.351562 C 21.820312 2.359375 21.820312 2.359375 20.828125 2.359375 L 19.3125 2.359375 C 19.171875 2.929688 19.144531 3.351562 17.851562 3.351562 C 15.867188 3.351562 13.882812 2.359375 13.882812 2.359375 Z M 9.914062 2.359375 "/>
<path style=" stroke:none;fill-rule:nonzero;fill:rgb(93.725491%,32.549021%,31.37255%);fill-opacity:1;" d="M 21.210938 4.332031 C 21.167969 4.328125 21.074219 4.335938 20.828125 4.335938 L 20.53125 4.335938 C 20.480469 4.390625 20.433594 4.445312 20.375 4.5 C 19.625 5.210938 18.710938 5.328125 17.851562 5.328125 C 15.902344 5.328125 14.199219 4.675781 13.433594 4.335938 L 9.914062 4.335938 C 9.90625 4.335938 9.902344 4.332031 9.898438 4.332031 C 9.902344 4.335938 9.902344 4.335938 9.902344 4.34375 L 9.902344 10.867188 C 10.230469 11.339844 10.449219 11.730469 10.601562 12.074219 C 10.660156 12.203125 10.703125 12.324219 10.746094 12.445312 C 11.242188 13.195312 11.582031 13.894531 11.601562 14.808594 C 11.621094 15.84375 10.902344 16.804688 10.445312 17.171875 C 10.210938 17.359375 10.035156 17.484375 9.917969 17.566406 C 9.957031 18.046875 10.082031 18.375 10.191406 18.589844 C 10.320312 18.851562 10.316406 18.824219 10.316406 18.824219 C 10.917969 19.421875 11.066406 20.339844 10.6875 21.101562 L 9.902344 22.667969 L 9.902344 26.4375 L 10.015625 26.511719 C 10.300781 26.703125 10.53125 26.964844 10.6875 27.273438 L 11.183594 28.265625 C 11.371094 28.636719 11.433594 29.0625 11.363281 29.472656 L 10.867188 32.449219 C 10.769531 33.039062 10.339844 33.621094 9.902344 33.992188 L 9.902344 39.070312 C 9.902344 38.90625 10.074219 39.722656 10.238281 40.542969 C 10.320312 40.953125 10.449219 41.386719 10.269531 42.164062 C 10.214844 42.410156 10.101562 42.714844 9.902344 43.003906 L 9.902344 44.03125 C 9.902344 44.039062 9.902344 44.039062 9.898438 44.042969 C 9.902344 44.042969 9.90625 44.039062 9.914062 44.039062 L 12.335938 44.039062 C 13.6875 43.203125 15.289062 42.917969 16.902344 42.960938 C 18.671875 43.007812 20.535156 43.421875 22.492188 44.039062 L 37.695312 44.039062 C 37.699219 44.039062 37.703125 44.042969 37.707031 44.042969 C 37.703125 44.039062 37.703125 44.039062 37.703125 44.03125 L 37.703125 43.359375 L 36.8125 40.6875 C 36.746094 40.484375 36.710938 40.273438 36.710938 40.0625 L 36.710938 37.085938 C 36.710938 35.859375 37.066406 34.925781 37.703125 34.03125 L 37.703125 31.453125 C 37.503906 31.261719 37.3125 31.050781 37.148438 30.789062 C 36.933594 30.730469 36.695312 30.632812 36.453125 30.46875 C 35.917969 30.101562 35.578125 29.441406 35.488281 28.953125 C 35.308594 27.984375 35.53125 27.410156 35.820312 26.539062 C 36.25 25.25 36.960938 24.242188 37.703125 23.480469 L 37.703125 19.542969 C 37.394531 19.203125 36.710938 18.296875 36.710938 17.242188 C 36.710938 16.085938 37.066406 15.351562 37.347656 14.648438 C 37.476562 14.328125 37.601562 14.046875 37.703125 13.824219 L 37.703125 11.144531 C 37.300781 10.746094 36.875 10.210938 36.644531 9.289062 C 36.472656 8.589844 36.617188 7.609375 37.074219 6.945312 C 37.261719 6.671875 37.472656 6.449219 37.703125 6.25 L 37.703125 4.34375 C 37.703125 4.335938 37.703125 4.335938 37.707031 4.332031 C 37.703125 4.332031 37.699219 4.335938 37.695312 4.335938 L 35.164062 4.335938 C 35.105469 4.429688 35.039062 4.519531 34.964844 4.59375 C 34.453125 5.105469 34.023438 5.179688 33.691406 5.246094 C 33.355469 5.3125 33.0625 5.328125 32.734375 5.328125 C 32.070312 5.328125 32.117188 5.390625 31.496094 5.597656 C 31.1875 5.699219 30.519531 5.859375 29.839844 5.675781 C 29.164062 5.492188 28.722656 5.113281 28.359375 4.746094 C 28.226562 4.613281 28.105469 4.476562 27.996094 4.335938 L 27.238281 4.335938 C 27.042969 4.585938 26.777344 4.847656 26.40625 5.097656 C 25.445312 5.738281 23.96875 5.640625 22.917969 5.117188 C 21.925781 4.621094 21.441406 4.398438 21.316406 4.355469 C 21.257812 4.335938 21.257812 4.332031 21.210938 4.332031 Z M 21.210938 4.332031 "/>
<path style=" stroke:none;fill-rule:nonzero;fill:rgb(93.333334%,93.333334%,93.333334%);fill-opacity:1;" d="M 20.085938 7.96875 C 19.421875 8.050781 19.320312 8.253906 19.78125 8.578125 C 20.566406 9.066406 21.453125 9.199219 22.4375 8.984375 L 27.453125 8.171875 C 28.234375 8.039062 28.683594 7.910156 28.789062 7.785156 C 28.964844 7.652344 29.015625 7.503906 28.933594 7.339844 C 28.796875 7.125 28.472656 6.941406 27.957031 6.792969 C 27.390625 6.65625 26.292969 6.832031 24.671875 7.320312 C 22.925781 7.6875 21.398438 7.902344 20.085938 7.96875 Z M 20.105469 13.0625 C 19.742188 13.117188 19.765625 13.320312 20.1875 13.671875 C 20.402344 13.847656 20.753906 13.910156 21.242188 13.855469 C 23.570312 13.570312 25.597656 13.355469 27.328125 13.207031 C 27.832031 13.152344 27.992188 12.980469 27.816406 12.699219 C 27.613281 12.375 27.25 12.148438 26.722656 12.027344 C 26.21875 11.933594 25.53125 11.972656 24.652344 12.148438 C 23.027344 12.515625 21.511719 12.820312 20.105469 13.0625 Z M 15.175781 18.683594 C 14.796875 18.699219 14.742188 18.875 15.011719 19.210938 C 15.582031 19.78125 16.210938 19.984375 16.898438 19.820312 C 20.808594 18.847656 25.828125 18.507812 31.957031 18.804688 C 31.96875 18.792969 31.996094 18.792969 32.039062 18.804688 C 32.402344 18.820312 32.632812 18.746094 32.726562 18.582031 C 32.824219 18.367188 32.726562 18.128906 32.445312 17.871094 C 31.511719 17.128906 30.691406 16.824219 29.988281 16.960938 C 27.226562 17.445312 22.289062 18.019531 15.175781 18.683594 Z M 15.175781 18.683594 "/>
<path style=" stroke:none;fill-rule:nonzero;fill:rgb(93.333334%,93.333334%,93.333334%);fill-opacity:1;" d="M 20.816406 34.484375 C 21.789062 34.28125 22.566406 34.152344 23.148438 34.097656 C 23.285156 34.082031 23.351562 34.023438 23.351562 33.914062 C 23.351562 33.832031 23.21875 33.710938 22.945312 33.550781 C 23.148438 32.695312 23.367188 32.148438 23.597656 31.90625 C 23.851562 31.621094 23.851562 31.40625 23.597656 31.257812 L 22.824219 30.789062 C 22.609375 30.667969 22.398438 30.675781 22.195312 30.808594 C 21.9375 30.984375 21.632812 31.121094 21.28125 31.214844 C 20.984375 31.308594 20.605469 31.40625 20.144531 31.5 C 20.050781 31.445312 19.867188 31.398438 19.597656 31.359375 C 19.476562 31.34375 19.394531 31.359375 19.355469 31.398438 C 19.300781 31.453125 19.3125 31.566406 19.394531 31.742188 C 19.679688 32.324219 19.910156 33.089844 20.085938 34.035156 C 20.125 34.320312 20.226562 34.558594 20.390625 34.746094 C 20.566406 34.960938 20.6875 34.996094 20.753906 34.847656 C 20.769531 34.753906 20.789062 34.632812 20.816406 34.484375 Z M 21.972656 33.488281 C 21.511719 33.652344 21.105469 33.777344 20.753906 33.875 C 20.59375 32.886719 20.503906 32.25 20.492188 31.964844 C 20.53125 31.953125 20.984375 31.84375 21.851562 31.640625 C 22.109375 31.601562 22.261719 31.628906 22.316406 31.722656 C 22.359375 31.761719 22.304688 32.339844 22.15625 33.449219 C 22.074219 33.449219 22.011719 33.460938 21.972656 33.488281 Z M 19.253906 36.148438 C 19.117188 36.160156 19.042969 36.226562 19.03125 36.347656 C 19.015625 36.484375 19.058594 36.59375 19.152344 36.675781 C 19.410156 36.835938 19.714844 37.003906 20.066406 37.179688 C 20.160156 37.195312 20.273438 37.160156 20.410156 37.078125 C 20.585938 36.917969 21.480469 36.398438 23.089844 35.515625 C 23.304688 35.421875 23.480469 35.300781 23.617188 35.152344 C 23.75 35.058594 23.820312 34.960938 23.820312 34.867188 C 23.765625 34.8125 23.671875 34.808594 23.535156 34.847656 C 21.125 35.699219 19.699219 36.132812 19.253906 36.148438 Z M 25.160156 34.15625 C 24.710938 34.941406 23.832031 36.078125 22.519531 37.566406 C 22.425781 37.621094 22.445312 37.660156 22.582031 37.6875 C 23.394531 37.484375 24.351562 36.621094 25.460938 35.089844 C 25.476562 35.039062 25.503906 34.996094 25.542969 34.96875 C 26.167969 36.078125 26.847656 36.910156 27.59375 37.464844 C 27.890625 37.710938 28.121094 37.832031 28.285156 37.832031 C 28.445312 37.84375 28.566406 37.789062 28.648438 37.667969 C 28.730469 37.574219 28.722656 37.289062 28.628906 36.816406 C 28.546875 36.046875 28.535156 35.367188 28.589844 34.785156 C 28.628906 34.488281 28.601562 34.328125 28.507812 34.300781 C 28.425781 34.285156 28.332031 34.414062 28.222656 34.683594 C 27.898438 35.59375 27.621094 35.96875 27.390625 35.820312 C 27.148438 35.660156 26.707031 35.113281 26.070312 34.179688 C 26.449219 33.554688 26.902344 32.710938 27.429688 31.640625 C 27.632812 31.261719 27.734375 31.046875 27.734375 30.992188 C 27.695312 30.871094 27.59375 30.75 27.429688 30.625 C 27.253906 30.492188 27.050781 30.402344 26.824219 30.363281 C 26.566406 30.308594 26.375 30.308594 26.253906 30.363281 C 26.160156 30.375 26.132812 30.464844 26.171875 30.625 C 26.335938 31.167969 26.144531 32.035156 25.605469 33.222656 C 25.199219 32.359375 24.808594 31.058594 24.429688 29.328125 L 26.621094 28.839844 C 26.632812 28.800781 26.660156 28.765625 26.699219 28.738281 C 26.714844 28.605469 26.585938 28.484375 26.316406 28.375 C 25.949219 28.117188 25.285156 28.171875 24.328125 28.535156 C 24.3125 28.535156 24.292969 28.542969 24.265625 28.558594 C 24.226562 28.152344 24.199219 27.777344 24.183594 27.441406 C 24.277344 27.15625 24.300781 26.953125 24.246094 26.832031 C 24.191406 26.738281 24.027344 26.621094 23.757812 26.488281 C 23.515625 26.351562 23.320312 26.277344 23.167969 26.265625 C 23.046875 26.277344 22.980469 26.285156 22.96875 26.285156 C 22.722656 26.367188 22.710938 26.519531 22.925781 26.75 C 23.089844 26.792969 23.296875 27.460938 23.554688 28.761719 C 23.472656 28.761719 22.304688 28.996094 20.042969 29.46875 C 19.71875 29.523438 19.691406 29.644531 19.964844 29.835938 C 20.371094 30.121094 20.726562 30.214844 21.039062 30.121094 C 21.808594 29.902344 22.695312 29.695312 23.699219 29.492188 C 24.074219 31.316406 24.5625 32.871094 25.160156 34.15625 Z M 26.375 27.339844 C 26.671875 27.597656 26.984375 27.886719 27.308594 28.210938 C 27.472656 28.347656 27.632812 28.414062 27.796875 28.414062 C 27.917969 28.402344 28.007812 28.320312 28.058594 28.171875 C 28.113281 28.007812 28.09375 27.765625 28 27.441406 C 27.945312 27.222656 27.742188 27.035156 27.390625 26.871094 C 26.621094 26.546875 26.132812 26.425781 25.929688 26.507812 C 25.875 26.5625 25.855469 26.65625 25.867188 26.792969 C 25.910156 26.925781 26.078125 27.109375 26.375 27.339844 Z M 18.402344 40.367188 C 18.496094 40.367188 18.597656 40.359375 18.707031 40.347656 C 20.828125 40.007812 24.144531 39.800781 28.648438 39.71875 C 28.933594 40.003906 29.238281 40.480469 29.5625 41.160156 C 29.695312 41.484375 29.875 41.640625 30.089844 41.625 C 30.265625 41.613281 30.421875 41.457031 30.554688 41.160156 C 31.003906 40.347656 31.0625 38.621094 30.738281 35.984375 C 30.414062 30.019531 30.414062 26.796875 30.738281 26.324219 C 30.753906 26.242188 30.792969 26.183594 30.859375 26.140625 C 31.023438 25.9375 31.097656 25.785156 31.082031 25.675781 C 31.070312 25.5 30.828125 25.25 30.351562 24.925781 C 29.609375 24.425781 29.136719 24.195312 28.933594 24.234375 C 28.796875 24.234375 28.667969 24.261719 28.546875 24.316406 C 28.304688 24.410156 27.808594 24.527344 27.066406 24.660156 C 24.875 24.917969 22.472656 25.289062 19.863281 25.777344 C 19.375 25.832031 18.910156 25.859375 18.460938 25.859375 C 18.300781 25.695312 18.0625 25.558594 17.75 25.453125 C 17.589844 25.371094 17.421875 25.363281 17.246094 25.433594 C 17.121094 25.511719 17.109375 25.65625 17.203125 25.859375 L 17.75 27.96875 C 17.953125 30.242188 17.90625 32.933594 17.609375 36.046875 C 17.527344 36.789062 17.367188 37.609375 17.121094 38.5 C 16.878906 39.394531 17.046875 40.191406 17.628906 40.894531 C 17.804688 41.113281 17.976562 41.117188 18.136719 40.914062 C 18.273438 40.738281 18.359375 40.558594 18.402344 40.367188 Z M 28.628906 38.742188 C 28.371094 38.566406 27.992188 38.519531 27.492188 38.601562 C 24.164062 39.101562 21.167969 39.40625 18.503906 39.515625 C 18.554688 38.988281 18.582031 38.332031 18.582031 37.546875 C 18.71875 30.917969 18.8125 27.386719 18.867188 26.953125 L 18.867188 26.8125 C 19.003906 26.796875 19.1875 26.757812 19.414062 26.691406 C 19.617188 26.609375 20.597656 26.414062 22.359375 26.101562 C 24.5625 25.722656 26.511719 25.464844 28.203125 25.332031 C 28.566406 25.316406 28.789062 25.398438 28.871094 25.574219 C 29.238281 25.9375 29.417969 28.300781 29.417969 32.65625 C 29.460938 35.308594 29.496094 36.9375 29.519531 37.546875 C 29.574219 38.238281 29.527344 38.722656 29.378906 39.007812 C 29.324219 39.183594 29.257812 39.273438 29.175781 39.273438 C 29.082031 39.136719 28.898438 38.960938 28.628906 38.742188 Z M 28.628906 38.742188 "/>
</g>
</svg>
