
<svg xmlns="http://www.w3.org/2000/svg" xmlns:xlink="http://www.w3.org/1999/xlink" width="48px" height="48px" viewBox="0 0 48 48" version="1.1">
<g id="surface1">
<path style=" stroke:none;fill-rule:nonzero;fill:rgb(95.686275%,31.764707%,11.764706%);fill-opacity:1;" d="M 9.285156 32.742188 L 38.339844 32.742188 C 39.171875 32.742188 39.933594 33.195312 40.332031 33.925781 L 44.996094 42.472656 C 45.417969 43.25 45.640625 44.117188 45.640625 45.003906 C 45.445312 45.550781 44.84375 45.835938 44.292969 45.640625 L 3.332031 45.640625 C 2.585938 45.640625 1.984375 45.039062 1.984375 44.292969 C 2.042969 43.644531 2.265625 43.019531 2.628906 42.472656 L 7.292969 33.925781 C 7.691406 33.195312 8.453125 32.742188 9.285156 32.742188 Z M 9.285156 32.742188 "/>
<path style=" stroke:none;fill-rule:nonzero;fill:rgb(100%,43.921569%,26.274511%);fill-opacity:1;" d="M 23.8125 1.859375 C 23.039062 1.859375 22.269531 2.277344 21.972656 3.117188 L 9.921875 37.398438 C 9.8125 37.554688 9.753906 37.714844 9.753906 37.878906 C 9.753906 39.585938 16.023438 40.957031 23.8125 40.957031 C 31.601562 40.957031 37.871094 39.585938 37.871094 37.878906 C 37.871094 37.714844 37.8125 37.554688 37.703125 37.398438 L 25.652344 3.117188 C 25.355469 2.277344 24.585938 1.859375 23.8125 1.859375 Z M 23.8125 1.859375 "/>
<path style=" stroke:none;fill-rule:nonzero;fill:rgb(98.039216%,98.039216%,98.039216%);fill-opacity:1;" d="M 19.539062 10.046875 L 16.746094 17.984375 C 18.820312 18.246094 21.234375 18.394531 23.8125 18.394531 C 26.390625 18.394531 28.804688 18.246094 30.878906 17.984375 L 28.085938 10.046875 C 26.742188 10.140625 25.304688 10.191406 23.8125 10.191406 C 22.320312 10.191406 20.882812 10.140625 19.539062 10.046875 Z M 14.359375 24.777344 L 11.722656 32.277344 C 14.171875 33.175781 18.660156 33.777344 23.8125 33.777344 C 28.964844 33.777344 33.453125 33.175781 35.902344 32.277344 L 33.265625 24.777344 C 30.773438 25.273438 27.460938 25.574219 23.8125 25.574219 C 20.164062 25.574219 16.851562 25.273438 14.359375 24.777344 Z M 14.359375 24.777344 "/>
<path style=" stroke:none;fill-rule:nonzero;fill:rgb(100%,43.921569%,26.274511%);fill-opacity:1;" d="M 2.976562 43.65625 L 44.648438 43.65625 C 45.195312 43.65625 45.640625 44.101562 45.640625 44.648438 C 45.640625 45.195312 45.195312 45.640625 44.648438 45.640625 L 2.976562 45.640625 C 2.429688 45.640625 1.984375 45.195312 1.984375 44.648438 C 1.984375 44.101562 2.429688 43.65625 2.976562 43.65625 Z M 2.976562 43.65625 "/>
</g>
</svg>
