<?xml version="1.0" encoding="UTF-8"?>
<svg xmlns="http://www.w3.org/2000/svg" xmlns:xlink="http://www.w3.org/1999/xlink" width="32px" height="32px" viewBox="0 0 32 32" version="1.1">
<g id="surface1">
<path style=" stroke:none;fill-rule:nonzero;fill:rgb(36.862746%,20.784314%,69.411767%);fill-opacity:1;" d="M 4.628906 3.558594 L 29.105469 3.558594 C 29.835938 3.558594 30.425781 4.148438 30.425781 4.878906 L 30.425781 12.816406 C 30.425781 13.546875 29.835938 14.140625 29.105469 14.140625 L 4.628906 14.140625 C 3.898438 14.140625 3.308594 13.546875 3.308594 12.816406 L 3.308594 4.878906 C 3.308594 4.148438 3.898438 3.558594 4.628906 3.558594 Z M 4.628906 3.558594 "/>
<path style=" stroke:none;fill-rule:nonzero;fill:rgb(96.078432%,96.078432%,96.078432%);fill-opacity:1;" d="M 15.875 7.527344 L 29.105469 7.527344 C 29.46875 7.527344 29.765625 7.820312 29.765625 8.1875 L 29.765625 12.816406 C 29.765625 13.183594 29.46875 13.480469 29.105469 13.480469 L 15.875 13.480469 C 15.507812 13.480469 15.214844 13.183594 15.214844 12.816406 L 15.214844 8.1875 C 15.214844 7.820312 15.507812 7.527344 15.875 7.527344 Z M 15.875 7.527344 "/>
<path style=" stroke:none;fill-rule:nonzero;fill:rgb(49.411765%,34.117648%,76.078433%);fill-opacity:1;" d="M 2.644531 6.203125 C 1.914062 6.203125 1.324219 6.792969 1.324219 7.527344 L 1.324219 27.371094 C 1.324219 28.101562 1.914062 28.691406 2.644531 28.691406 L 29.105469 28.691406 C 29.835938 28.691406 30.425781 28.101562 30.425781 27.371094 L 30.425781 11.496094 C 30.425781 10.761719 29.835938 10.171875 29.105469 10.171875 L 20.503906 10.171875 C 19.773438 10.171875 19.183594 9.582031 19.183594 8.847656 L 19.183594 7.527344 C 19.183594 6.792969 18.59375 6.203125 17.859375 6.203125 Z M 2.644531 6.203125 "/>
<path style=" stroke:none;fill-rule:nonzero;fill:rgb(100%,100%,100%);fill-opacity:0.27451;" d="M 15.875 12.816406 C 14.042969 12.816406 12.566406 14.292969 12.566406 16.125 L 12.566406 16.785156 L 13.890625 16.785156 L 13.890625 16.125 C 13.890625 15.027344 14.777344 14.140625 15.875 14.140625 C 16.972656 14.140625 17.859375 15.027344 17.859375 16.125 L 17.859375 18.769531 L 11.90625 18.769531 C 11.539062 18.769531 11.246094 19.066406 11.246094 19.433594 L 11.246094 22.738281 C 11.246094 23.105469 11.539062 23.402344 11.90625 23.402344 L 19.84375 23.402344 C 20.210938 23.402344 20.503906 23.105469 20.503906 22.738281 L 20.503906 19.433594 C 20.503906 19.066406 20.210938 18.769531 19.84375 18.769531 L 19.183594 18.769531 L 19.183594 16.125 C 19.183594 14.292969 17.707031 12.816406 15.875 12.816406 Z M 15.875 19.433594 C 16.425781 19.433594 16.867188 19.875 16.867188 20.425781 C 16.867188 20.71875 16.738281 20.984375 16.535156 21.164062 L 16.535156 22.078125 C 16.535156 22.445312 16.242188 22.738281 15.875 22.738281 C 15.507812 22.738281 15.214844 22.445312 15.214844 22.078125 L 15.214844 21.164062 C 15.011719 20.984375 14.882812 20.71875 14.882812 20.425781 C 14.882812 19.875 15.324219 19.433594 15.875 19.433594 Z M 15.875 19.433594 "/>
</g>
</svg>
