<?xml version="1.0" encoding="UTF-8"?>
<svg xmlns="http://www.w3.org/2000/svg" xmlns:xlink="http://www.w3.org/1999/xlink" width="32px" height="32px" viewBox="0 0 32 32" version="1.1">
<g id="surface1">
<path style=" stroke:none;fill-rule:nonzero;fill:rgb(36.862746%,20.784314%,69.411767%);fill-opacity:1;" d="M 4.628906 3.558594 L 29.105469 3.558594 C 29.835938 3.558594 30.425781 4.148438 30.425781 4.878906 L 30.425781 12.816406 C 30.425781 13.546875 29.835938 14.140625 29.105469 14.140625 L 4.628906 14.140625 C 3.898438 14.140625 3.308594 13.546875 3.308594 12.816406 L 3.308594 4.878906 C 3.308594 4.148438 3.898438 3.558594 4.628906 3.558594 Z M 4.628906 3.558594 "/>
<path style=" stroke:none;fill-rule:nonzero;fill:rgb(96.078432%,96.078432%,96.078432%);fill-opacity:1;" d="M 15.875 7.527344 L 29.105469 7.527344 C 29.46875 7.527344 29.765625 7.820312 29.765625 8.1875 L 29.765625 12.816406 C 29.765625 13.183594 29.46875 13.480469 29.105469 13.480469 L 15.875 13.480469 C 15.507812 13.480469 15.214844 13.183594 15.214844 12.816406 L 15.214844 8.1875 C 15.214844 7.820312 15.507812 7.527344 15.875 7.527344 Z M 15.875 7.527344 "/>
<path style=" stroke:none;fill-rule:nonzero;fill:rgb(49.411765%,34.117648%,76.078433%);fill-opacity:1;" d="M 2.644531 6.203125 C 1.914062 6.203125 1.324219 6.792969 1.324219 7.527344 L 1.324219 27.371094 C 1.324219 28.101562 1.914062 28.691406 2.644531 28.691406 L 29.105469 28.691406 C 29.835938 28.691406 30.425781 28.101562 30.425781 27.371094 L 30.425781 12.15625 C 30.425781 11.421875 29.835938 10.84375 29.105469 10.832031 L 20.503906 10.832031 C 19.773438 10.832031 19.183594 10.242188 19.183594 9.511719 L 19.183594 7.527344 C 19.183594 6.792969 18.59375 6.203125 17.859375 6.203125 Z M 2.644531 6.203125 "/>
<path style=" stroke:none;fill-rule:nonzero;fill:rgb(100%,100%,100%);fill-opacity:0.313726;" d="M 8.597656 16.785156 C 9.214844 16.785156 9.835938 19.871094 10.335938 20.234375 C 10.835938 20.597656 13.960938 20.234375 14.152344 20.820312 C 14.34375 21.40625 11.597656 22.949219 11.410156 23.539062 C 11.21875 24.125 12.53125 26.984375 12.03125 27.347656 C 11.53125 27.710938 9.214844 25.578125 8.597656 25.578125 C 7.980469 25.578125 5.667969 27.710938 5.167969 27.347656 C 4.667969 26.984375 5.980469 24.125 5.789062 23.539062 C 5.597656 22.949219 2.855469 21.40625 3.046875 20.820312 C 3.238281 20.234375 6.363281 20.597656 6.863281 20.234375 C 7.363281 19.871094 7.980469 16.785156 8.597656 16.785156 Z M 8.597656 16.785156 "/>
</g>
</svg>
