<?xml version="1.0" encoding="UTF-8"?>
<svg xmlns="http://www.w3.org/2000/svg" xmlns:xlink="http://www.w3.org/1999/xlink" width="24px" height="24px" viewBox="0 0 24 24" version="1.1">
<g id="surface1">
<path style=" stroke:none;fill-rule:nonzero;fill:rgb(12.941177%,12.941177%,12.941177%);fill-opacity:1;" d="M 3.472656 2.667969 L 21.828125 2.667969 C 22.375 2.667969 22.820312 3.113281 22.820312 3.660156 L 22.820312 9.613281 C 22.820312 10.160156 22.375 10.605469 21.828125 10.605469 L 3.472656 10.605469 C 2.925781 10.605469 2.480469 10.160156 2.480469 9.613281 L 2.480469 3.660156 C 2.480469 3.113281 2.925781 2.667969 3.472656 2.667969 Z M 3.472656 2.667969 "/>
<path style=" stroke:none;fill-rule:nonzero;fill:rgb(96.078432%,96.078432%,96.078432%);fill-opacity:1;" d="M 11.90625 5.644531 L 21.828125 5.644531 C 22.101562 5.644531 22.324219 5.867188 22.324219 6.140625 L 22.324219 9.613281 C 22.324219 9.886719 22.101562 10.109375 21.828125 10.109375 L 11.90625 10.109375 C 11.632812 10.109375 11.410156 9.886719 11.410156 9.613281 L 11.410156 6.140625 C 11.410156 5.867188 11.632812 5.644531 11.90625 5.644531 Z M 11.90625 5.644531 "/>
<path style=" stroke:none;fill-rule:nonzero;fill:rgb(25.882354%,25.882354%,25.882354%);fill-opacity:1;" d="M 1.984375 4.652344 C 1.433594 4.652344 0.992188 5.09375 0.992188 5.644531 L 0.992188 20.527344 C 0.992188 21.078125 1.433594 21.519531 1.984375 21.519531 L 21.828125 21.519531 C 22.378906 21.519531 22.820312 21.078125 22.820312 20.527344 L 22.820312 8.621094 C 22.820312 8.070312 22.378906 7.625 21.828125 7.628906 L 15.378906 7.628906 C 14.828125 7.628906 14.386719 7.1875 14.386719 6.636719 L 14.386719 5.644531 C 14.386719 5.09375 13.945312 4.652344 13.394531 4.652344 Z M 1.984375 4.652344 "/>
<path style=" stroke:none;fill-rule:nonzero;fill:rgb(12.941177%,12.941177%,12.941177%);fill-opacity:1;" d="M 11.90625 9.117188 C 10.53125 9.117188 9.425781 10.222656 9.425781 11.597656 L 9.425781 13.582031 L 8.929688 13.582031 C 8.65625 13.582031 8.433594 13.804688 8.433594 14.078125 L 8.433594 16.558594 C 8.433594 16.832031 8.65625 17.054688 8.929688 17.054688 L 14.882812 17.054688 C 15.15625 17.054688 15.378906 16.832031 15.378906 16.558594 L 15.378906 14.078125 C 15.378906 13.804688 15.15625 13.582031 14.882812 13.582031 L 14.386719 13.582031 L 14.386719 11.597656 C 14.386719 10.222656 13.28125 9.117188 11.90625 9.117188 Z M 11.90625 10.109375 C 12.730469 10.109375 13.394531 10.773438 13.394531 11.597656 L 13.394531 13.582031 L 10.417969 13.582031 L 10.417969 11.597656 C 10.417969 10.773438 11.082031 10.109375 11.90625 10.109375 Z M 11.90625 10.109375 "/>
<path style=" stroke:none;fill-rule:nonzero;fill:rgb(100%,100%,100%);fill-opacity:0.27451;" d="M 1.488281 18.046875 L 1.488281 19.039062 L 2.480469 19.039062 L 2.480469 18.046875 Z M 2.480469 19.039062 L 2.480469 20.03125 L 3.472656 20.03125 L 3.472656 19.039062 Z M 3.472656 19.039062 L 4.464844 19.039062 L 4.464844 18.046875 L 3.472656 18.046875 Z M 4.464844 19.039062 L 4.464844 20.03125 L 5.457031 20.03125 L 5.457031 19.039062 Z M 5.457031 19.039062 L 6.449219 19.039062 L 6.449219 18.046875 L 5.457031 18.046875 Z M 6.449219 19.039062 L 6.449219 20.03125 L 7.441406 20.03125 L 7.441406 19.039062 Z M 7.441406 19.039062 L 8.433594 19.039062 L 8.433594 18.046875 L 7.441406 18.046875 Z M 8.433594 19.039062 L 8.433594 20.03125 L 9.425781 20.03125 L 9.425781 19.039062 Z M 9.425781 19.039062 L 10.417969 19.039062 L 10.417969 18.046875 L 9.425781 18.046875 Z M 10.417969 19.039062 L 10.417969 20.03125 L 11.410156 20.03125 L 11.410156 19.039062 Z M 11.410156 19.039062 L 12.402344 19.039062 L 12.402344 18.046875 L 11.410156 18.046875 Z M 12.402344 19.039062 L 12.402344 20.03125 L 13.394531 20.03125 L 13.394531 19.039062 Z M 13.394531 19.039062 L 14.386719 19.039062 L 14.386719 18.046875 L 13.394531 18.046875 Z M 14.386719 19.039062 L 14.386719 20.03125 L 15.378906 20.03125 L 15.378906 19.039062 Z M 15.378906 19.039062 L 16.371094 19.039062 L 16.371094 18.046875 L 15.378906 18.046875 Z M 16.371094 19.039062 L 16.371094 20.03125 L 17.363281 20.03125 L 17.363281 19.039062 Z M 17.363281 19.039062 L 18.355469 19.039062 L 18.355469 18.046875 L 17.363281 18.046875 Z M 18.355469 19.039062 L 18.355469 20.03125 L 19.347656 20.03125 L 19.347656 19.039062 Z M 19.347656 19.039062 L 20.339844 19.039062 L 20.339844 18.046875 L 19.347656 18.046875 Z M 20.339844 19.039062 L 20.339844 20.03125 L 21.332031 20.03125 L 21.332031 19.039062 Z M 21.332031 19.039062 L 22.324219 19.039062 L 22.324219 18.046875 L 21.332031 18.046875 Z M 22.324219 19.039062 L 22.324219 20.03125 L 22.820312 20.03125 L 22.820312 19.039062 Z M 22.324219 20.03125 L 21.332031 20.03125 L 21.332031 21.023438 L 22.324219 21.023438 Z M 20.339844 20.03125 L 19.347656 20.03125 L 19.347656 21.023438 L 20.339844 21.023438 Z M 18.355469 20.03125 L 17.363281 20.03125 L 17.363281 21.023438 L 18.355469 21.023438 Z M 16.371094 20.03125 L 15.378906 20.03125 L 15.378906 21.023438 L 16.371094 21.023438 Z M 14.386719 20.03125 L 13.394531 20.03125 L 13.394531 21.023438 L 14.386719 21.023438 Z M 12.402344 20.03125 L 11.410156 20.03125 L 11.410156 21.023438 L 12.402344 21.023438 Z M 10.417969 20.03125 L 9.425781 20.03125 L 9.425781 21.023438 L 10.417969 21.023438 Z M 8.433594 20.03125 L 7.441406 20.03125 L 7.441406 21.023438 L 8.433594 21.023438 Z M 6.449219 20.03125 L 5.457031 20.03125 L 5.457031 21.023438 L 6.449219 21.023438 Z M 4.464844 20.03125 L 3.472656 20.03125 L 3.472656 21.023438 L 4.464844 21.023438 Z M 2.480469 20.03125 L 1.488281 20.03125 L 1.488281 21.023438 L 2.480469 21.023438 Z M 1.488281 20.03125 L 1.488281 19.039062 L 0.992188 19.039062 L 0.992188 20.03125 Z M 1.488281 20.03125 "/>
</g>
</svg>
