<?xml version="1.0" encoding="UTF-8"?>
<svg xmlns="http://www.w3.org/2000/svg" xmlns:xlink="http://www.w3.org/1999/xlink" width="48px" height="48px" viewBox="0 0 48 48" version="1.1">
<g id="surface1">
<path style=" stroke:none;fill-rule:nonzero;fill:rgb(36.862746%,20.784314%,69.411767%);fill-opacity:1;" d="M 6.945312 5.335938 L 43.65625 5.335938 C 44.753906 5.335938 45.640625 6.222656 45.640625 7.320312 L 45.640625 19.226562 C 45.640625 20.324219 44.753906 21.210938 43.65625 21.210938 L 6.945312 21.210938 C 5.847656 21.210938 4.960938 20.324219 4.960938 19.226562 L 4.960938 7.320312 C 4.960938 6.222656 5.847656 5.335938 6.945312 5.335938 Z M 6.945312 5.335938 "/>
<path style=" stroke:none;fill-rule:nonzero;fill:rgb(96.078432%,96.078432%,96.078432%);fill-opacity:1;" d="M 23.8125 11.289062 L 43.65625 11.289062 C 44.203125 11.289062 44.648438 11.734375 44.648438 12.28125 L 44.648438 19.226562 C 44.648438 19.773438 44.203125 20.21875 43.65625 20.21875 L 23.8125 20.21875 C 23.265625 20.21875 22.820312 19.773438 22.820312 19.226562 L 22.820312 12.28125 C 22.820312 11.734375 23.265625 11.289062 23.8125 11.289062 Z M 23.8125 11.289062 "/>
<path style=" stroke:none;fill-rule:nonzero;fill:rgb(49.411765%,34.117648%,76.078433%);fill-opacity:1;" d="M 3.96875 9.304688 C 2.871094 9.304688 1.984375 10.191406 1.984375 11.289062 L 1.984375 41.054688 C 1.984375 42.152344 2.871094 43.039062 3.96875 43.039062 L 43.65625 43.039062 C 44.753906 43.039062 45.640625 42.152344 45.640625 41.054688 L 45.640625 17.242188 C 45.640625 16.144531 44.753906 15.257812 43.65625 15.257812 L 30.757812 15.257812 C 29.660156 15.257812 28.773438 14.371094 28.773438 13.273438 L 28.773438 11.289062 C 28.773438 10.191406 27.886719 9.304688 26.789062 9.304688 Z M 3.96875 9.304688 "/>
<path style=" stroke:none;fill-rule:nonzero;fill:rgb(100%,100%,100%);fill-opacity:0.27451;" d="M 20.339844 19.152344 C 20.066406 19.152344 19.84375 19.375 19.84375 19.648438 L 19.84375 20.210938 C 19.0625 20.328125 18.335938 20.613281 17.742188 21.09375 C 16.890625 21.777344 16.371094 22.871094 16.371094 24.113281 C 16.371094 25.4375 17.148438 26.449219 18.007812 26.996094 C 18.867188 27.542969 19.808594 27.792969 20.523438 28.03125 C 21.296875 28.289062 22.09375 28.535156 22.597656 28.855469 C 23.101562 29.179688 23.316406 29.40625 23.316406 30.066406 C 23.316406 30.8125 23.089844 31.210938 22.695312 31.523438 C 22.304688 31.839844 21.664062 32.050781 20.835938 32.050781 C 20.007812 32.050781 19.332031 31.835938 18.925781 31.546875 C 18.515625 31.261719 18.355469 30.976562 18.355469 30.5625 C 18.359375 30.203125 18.171875 29.871094 17.863281 29.691406 C 17.554688 29.511719 17.171875 29.511719 16.863281 29.691406 C 16.554688 29.871094 16.367188 30.203125 16.371094 30.5625 C 16.371094 31.636719 16.957031 32.59375 17.785156 33.171875 C 18.375 33.585938 19.074219 33.84375 19.84375 33.960938 L 19.84375 34.53125 C 19.84375 34.804688 20.066406 35.027344 20.339844 35.027344 L 21.332031 35.027344 C 21.605469 35.027344 21.828125 34.804688 21.828125 34.53125 L 21.828125 33.960938 C 22.609375 33.835938 23.335938 33.554688 23.9375 33.074219 C 24.78125 32.394531 25.300781 31.308594 25.300781 30.066406 C 25.300781 28.742188 24.523438 27.730469 23.664062 27.183594 C 22.804688 26.636719 21.863281 26.386719 21.148438 26.148438 C 20.375 25.890625 19.578125 25.644531 19.074219 25.324219 C 18.570312 25 18.355469 24.773438 18.355469 24.113281 C 18.355469 23.371094 18.585938 22.957031 18.984375 22.640625 C 19.378906 22.320312 20.011719 22.113281 20.816406 22.128906 C 20.824219 22.128906 20.828125 22.128906 20.835938 22.128906 C 21.664062 22.128906 22.339844 22.34375 22.746094 22.632812 C 23.15625 22.917969 23.316406 23.203125 23.316406 23.617188 C 23.3125 23.976562 23.5 24.308594 23.808594 24.488281 C 24.117188 24.667969 24.5 24.667969 24.808594 24.488281 C 25.117188 24.308594 25.304688 23.976562 25.300781 23.617188 C 25.300781 22.542969 24.714844 21.589844 23.886719 21.007812 C 23.296875 20.597656 22.597656 20.335938 21.828125 20.21875 L 21.828125 19.648438 C 21.828125 19.375 21.605469 19.152344 21.332031 19.152344 Z M 27.78125 31.554688 C 27.230469 31.554688 26.789062 31.996094 26.789062 32.546875 C 26.789062 33.097656 27.230469 33.539062 27.78125 33.539062 L 30.261719 33.539062 C 30.8125 33.539062 31.253906 33.097656 31.253906 32.546875 C 31.253906 31.996094 30.8125 31.554688 30.261719 31.554688 Z M 27.78125 31.554688 "/>
</g>
</svg>
