<?xml version="1.0" encoding="UTF-8"?>
<svg xmlns="http://www.w3.org/2000/svg" xmlns:xlink="http://www.w3.org/1999/xlink" width="22px" height="22px" viewBox="0 0 22 22" version="1.1">
<g id="surface1">
<path style=" stroke:none;fill-rule:nonzero;fill:rgb(25.882354%,64.705884%,96.078432%);fill-opacity:1;" d="M 14.550781 1.082031 L 3.636719 1.082031 C 3.132812 1.082031 2.726562 1.488281 2.726562 1.992188 L 2.726562 20.179688 C 2.726562 20.683594 3.132812 21.089844 3.636719 21.089844 L 18.191406 21.089844 C 18.695312 21.089844 19.097656 20.683594 19.097656 20.179688 L 19.097656 5.628906 Z M 14.550781 1.082031 "/>
<path style=" stroke:none;fill-rule:nonzero;fill:rgb(11.764706%,53.333336%,89.803922%);fill-opacity:1;" d="M 19.097656 5.628906 L 14.550781 1.082031 L 14.550781 4.71875 C 14.550781 5.222656 14.957031 5.628906 15.460938 5.628906 Z M 19.097656 5.628906 "/>
<path style=" stroke:none;fill-rule:nonzero;fill:rgb(96.078432%,96.078432%,96.078432%);fill-opacity:1;" d="M 8.640625 7.902344 L 13.1875 7.902344 C 13.3125 7.902344 13.414062 8.003906 13.414062 8.128906 L 13.414062 8.585938 C 13.414062 8.710938 13.3125 8.8125 13.1875 8.8125 L 8.640625 8.8125 C 8.515625 8.8125 8.414062 8.710938 8.414062 8.585938 L 8.414062 8.128906 C 8.414062 8.003906 8.515625 7.902344 8.640625 7.902344 Z M 8.640625 7.902344 "/>
<path style=" stroke:none;fill-rule:nonzero;fill:rgb(96.078432%,96.078432%,96.078432%);fill-opacity:1;" d="M 8.640625 14.269531 L 13.1875 14.269531 C 13.3125 14.269531 13.414062 14.371094 13.414062 14.496094 L 13.414062 14.953125 C 13.414062 15.078125 13.3125 15.179688 13.1875 15.179688 L 8.640625 15.179688 C 8.515625 15.179688 8.414062 15.078125 8.414062 14.953125 L 8.414062 14.496094 C 8.414062 14.371094 8.515625 14.269531 8.640625 14.269531 Z M 8.640625 14.269531 "/>
<path style=" stroke:none;fill-rule:nonzero;fill:rgb(96.078432%,96.078432%,96.078432%);fill-opacity:1;" d="M 8.859375 7.894531 C 8.609375 7.898438 8.410156 8.105469 8.414062 8.359375 C 8.414062 9.53125 9.039062 10.324219 9.6875 10.777344 C 9.910156 10.933594 10.128906 11.046875 10.335938 11.144531 C 9.511719 11.675781 8.414062 12.660156 8.414062 14.269531 C 8.410156 14.433594 8.496094 14.585938 8.636719 14.667969 C 8.78125 14.75 8.957031 14.75 9.097656 14.667969 C 9.238281 14.585938 9.324219 14.433594 9.324219 14.269531 C 9.324219 12.527344 11.0625 11.746094 11.574219 11.492188 C 11.726562 11.414062 11.824219 11.257812 11.824219 11.085938 C 11.824219 10.914062 11.726562 10.757812 11.574219 10.679688 C 11.390625 10.589844 11.199219 10.53125 10.960938 10.429688 C 10.722656 10.332031 10.453125 10.203125 10.207031 10.03125 C 9.71875 9.6875 9.324219 9.230469 9.324219 8.359375 C 9.324219 8.234375 9.277344 8.117188 9.1875 8.027344 C 9.101562 7.941406 8.984375 7.894531 8.859375 7.894531 Z M 8.859375 7.894531 "/>
</g>
</svg>
