
<svg xmlns="http://www.w3.org/2000/svg" xmlns:xlink="http://www.w3.org/1999/xlink" width="22px" height="22px" viewBox="0 0 22 22" version="1.1">
<g id="surface1">
<path style=" stroke:none;fill-rule:nonzero;fill:rgb(55.29412%,43.137255%,38.82353%);fill-opacity:1;" d="M 1.820312 0.910156 L 20.007812 0.910156 C 20.511719 0.910156 20.917969 1.316406 20.917969 1.820312 L 20.917969 20.007812 C 20.917969 20.511719 20.511719 20.917969 20.007812 20.917969 L 1.820312 20.917969 C 1.316406 20.917969 0.910156 20.511719 0.910156 20.007812 L 0.910156 1.820312 C 0.910156 1.316406 1.316406 0.910156 1.820312 0.910156 Z M 1.820312 0.910156 "/>
<path style=" stroke:none;fill-rule:nonzero;fill:rgb(93.333334%,93.333334%,93.333334%);fill-opacity:1;" d="M 9.09375 0.910156 L 9.09375 9.09375 L 7.277344 9.09375 L 10.914062 12.734375 L 14.550781 9.09375 L 12.734375 9.09375 L 12.734375 0.910156 Z M 9.09375 0.910156 "/>
<path style=" stroke:none;fill-rule:nonzero;fill:rgb(93.333334%,93.333334%,93.333334%);fill-opacity:1;" d="M 13.707031 10.851562 L 12.078125 12.476562 C 12.207031 12.683594 12.277344 12.925781 12.277344 13.1875 C 12.277344 13.945312 11.667969 14.550781 10.914062 14.550781 C 10.160156 14.550781 9.550781 13.945312 9.550781 13.1875 C 9.550781 12.925781 9.621094 12.683594 9.75 12.476562 L 8.125 10.851562 C 7.992188 11.011719 7.871094 11.183594 7.761719 11.367188 C 7.625 11.609375 7.515625 11.863281 7.433594 12.117188 C 7.5 12.140625 7.558594 12.167969 7.617188 12.199219 C 7.957031 12.398438 8.183594 12.765625 8.183594 13.1875 C 8.183594 13.683594 7.871094 14.101562 7.433594 14.257812 C 7.59375 14.777344 7.867188 15.257812 8.246094 15.664062 C 8.601562 15.363281 9.121094 15.304688 9.550781 15.550781 C 9.976562 15.796875 10.183594 16.277344 10.101562 16.734375 C 10.644531 16.863281 11.199219 16.859375 11.726562 16.738281 C 11.644531 16.277344 11.851562 15.796875 12.277344 15.550781 C 12.644531 15.339844 13.078125 15.355469 13.417969 15.550781 C 13.476562 15.585938 13.527344 15.621094 13.578125 15.664062 C 13.761719 15.46875 13.925781 15.25 14.066406 15.007812 C 14.203125 14.765625 14.3125 14.511719 14.394531 14.257812 C 13.953125 14.101562 13.640625 13.683594 13.640625 13.1875 C 13.640625 12.695312 13.957031 12.273438 14.394531 12.117188 C 14.253906 11.660156 14.019531 11.226562 13.707031 10.851562 Z M 13.707031 10.851562 "/>
<path style=" stroke:none;fill-rule:nonzero;fill:rgb(42.745098%,29.803923%,25.490198%);fill-opacity:1;" d="M 3.183594 18.191406 L 4.09375 18.191406 L 4.09375 19.097656 L 3.183594 19.097656 Z M 3.183594 18.191406 "/>
<path style=" stroke:none;fill-rule:nonzero;fill:rgb(42.745098%,29.803923%,25.490198%);fill-opacity:1;" d="M 5.003906 18.191406 L 5.910156 18.191406 L 5.910156 19.097656 L 5.003906 19.097656 Z M 5.003906 18.191406 "/>
<path style=" stroke:none;fill-rule:nonzero;fill:rgb(42.745098%,29.803923%,25.490198%);fill-opacity:1;" d="M 6.820312 18.191406 L 7.730469 18.191406 L 7.730469 19.097656 L 6.820312 19.097656 Z M 6.820312 18.191406 "/>
</g>
</svg>
