<?xml version="1.0" encoding="UTF-8"?>
<svg xmlns="http://www.w3.org/2000/svg" xmlns:xlink="http://www.w3.org/1999/xlink" width="22px" height="22px" viewBox="0 0 22 22" version="1.1">
<g id="surface1">
<path style=" stroke:none;fill-rule:nonzero;fill:rgb(55.29412%,43.137255%,38.82353%);fill-opacity:1;" d="M 1.820312 1.082031 L 20.007812 1.082031 C 20.511719 1.082031 20.917969 1.488281 20.917969 1.992188 L 20.917969 20.179688 C 20.917969 20.683594 20.511719 21.089844 20.007812 21.089844 L 1.820312 21.089844 C 1.316406 21.089844 0.910156 20.683594 0.910156 20.179688 L 0.910156 1.992188 C 0.910156 1.488281 1.316406 1.082031 1.820312 1.082031 Z M 1.820312 1.082031 "/>
<path style=" stroke:none;fill-rule:nonzero;fill:rgb(93.725491%,92.156863%,91.37255%);fill-opacity:1;" d="M 9.09375 1.535156 L 9.09375 7.902344 L 7.277344 7.902344 L 10.914062 11.539062 L 14.550781 7.902344 L 12.734375 7.902344 L 12.734375 1.535156 Z M 9.09375 1.535156 "/>
<path style=" stroke:none;fill-rule:nonzero;fill:rgb(63.137257%,53.333336%,49.803922%);fill-opacity:1;" d="M 1.820312 1.082031 C 1.480469 1.082031 1.1875 1.265625 1.03125 1.535156 L 20.796875 1.535156 C 20.640625 1.265625 20.347656 1.082031 20.007812 1.082031 Z M 1.820312 1.082031 "/>
<path style=" stroke:none;fill-rule:nonzero;fill:rgb(96.078432%,96.078432%,96.078432%);fill-opacity:1;" d="M 9.207031 1.082031 L 12.621094 1.082031 L 12.734375 1.535156 L 9.09375 1.535156 Z M 9.207031 1.082031 "/>
<path style=" stroke:none;fill-rule:nonzero;fill:rgb(93.725491%,92.156863%,91.37255%);fill-opacity:1;" d="M 13.707031 9.660156 L 12.078125 11.285156 C 12.207031 11.492188 12.277344 11.734375 12.277344 11.996094 C 12.277344 12.75 11.667969 13.359375 10.914062 13.359375 C 10.160156 13.359375 9.550781 12.75 9.550781 11.996094 C 9.550781 11.734375 9.621094 11.492188 9.75 11.285156 L 8.125 9.660156 C 7.992188 9.820312 7.871094 9.992188 7.761719 10.175781 C 7.625 10.417969 7.515625 10.667969 7.433594 10.925781 C 7.5 10.949219 7.558594 10.976562 7.617188 11.007812 C 7.957031 11.203125 8.183594 11.574219 8.183594 11.996094 C 8.183594 12.488281 7.871094 12.910156 7.433594 13.066406 C 7.59375 13.582031 7.867188 14.066406 8.246094 14.472656 C 8.601562 14.171875 9.121094 14.113281 9.550781 14.359375 C 9.976562 14.605469 10.183594 15.085938 10.101562 15.542969 C 10.644531 15.667969 11.199219 15.664062 11.726562 15.542969 C 11.644531 15.085938 11.851562 14.605469 12.277344 14.359375 C 12.644531 14.148438 13.078125 14.160156 13.417969 14.359375 C 13.476562 14.390625 13.527344 14.429688 13.578125 14.472656 C 13.761719 14.277344 13.925781 14.058594 14.066406 13.816406 C 14.203125 13.574219 14.3125 13.320312 14.394531 13.066406 C 13.953125 12.90625 13.640625 12.488281 13.640625 11.996094 C 13.640625 11.5 13.957031 11.082031 14.394531 10.925781 C 14.253906 10.464844 14.019531 10.035156 13.707031 9.660156 Z M 13.707031 9.660156 "/>
</g>
</svg>
