<?xml version="1.0" encoding="UTF-8"?>
<svg xmlns="http://www.w3.org/2000/svg" xmlns:xlink="http://www.w3.org/1999/xlink" width="22px" height="22px" viewBox="0 0 22 22" version="1.1">
<g id="surface1">
<path style=" stroke:none;fill-rule:nonzero;fill:rgb(38.039216%,38.039216%,38.039216%);fill-opacity:1;" d="M 14.550781 1.082031 L 3.636719 1.082031 C 3.132812 1.082031 2.726562 1.488281 2.726562 1.992188 L 2.726562 20.179688 C 2.726562 20.683594 3.132812 21.089844 3.636719 21.089844 L 18.191406 21.089844 C 18.695312 21.089844 19.097656 20.683594 19.097656 20.179688 L 19.097656 5.628906 Z M 14.550781 1.082031 "/>
<path style=" stroke:none;fill-rule:nonzero;fill:rgb(25.882354%,25.882354%,25.882354%);fill-opacity:1;" d="M 19.097656 5.628906 L 14.550781 1.082031 L 14.550781 4.71875 C 14.550781 5.222656 14.957031 5.628906 15.460938 5.628906 Z M 19.097656 5.628906 "/>
<path style=" stroke:none;fill-rule:nonzero;fill:rgb(96.078432%,96.078432%,96.078432%);fill-opacity:1;" d="M 7.730469 7.902344 C 7.480469 7.902344 7.277344 8.105469 7.277344 8.355469 L 7.277344 9.949219 C 7.277344 10.074219 7.378906 10.175781 7.503906 10.175781 L 7.957031 10.175781 C 8.085938 10.175781 8.183594 10.074219 8.183594 9.949219 L 8.183594 9.039062 C 8.183594 8.914062 8.285156 8.8125 8.414062 8.8125 L 9.324219 8.8125 C 9.449219 8.8125 9.550781 8.710938 9.550781 8.585938 L 9.550781 8.128906 C 9.550781 8.003906 9.449219 7.902344 9.324219 7.902344 Z M 12.503906 7.902344 C 12.378906 7.902344 12.277344 8.003906 12.277344 8.128906 L 12.277344 8.585938 C 12.277344 8.710938 12.378906 8.8125 12.503906 8.8125 L 13.414062 8.8125 C 13.542969 8.8125 13.640625 8.914062 13.640625 9.039062 L 13.640625 9.949219 C 13.640625 10.074219 13.742188 10.175781 13.871094 10.175781 L 14.324219 10.175781 C 14.449219 10.175781 14.550781 10.074219 14.550781 9.949219 L 14.550781 8.355469 C 14.550781 8.105469 14.347656 7.902344 14.097656 7.902344 Z M 7.503906 12.90625 C 7.378906 12.90625 7.277344 13.007812 7.277344 13.132812 L 7.277344 14.722656 C 7.277344 14.976562 7.480469 15.179688 7.730469 15.179688 L 9.324219 15.179688 C 9.449219 15.179688 9.550781 15.078125 9.550781 14.953125 L 9.550781 14.496094 C 9.550781 14.371094 9.449219 14.269531 9.324219 14.269531 L 8.414062 14.269531 C 8.285156 14.269531 8.183594 14.167969 8.183594 14.042969 L 8.183594 13.132812 C 8.183594 13.007812 8.085938 12.90625 7.957031 12.90625 Z M 13.871094 12.90625 C 13.742188 12.90625 13.640625 13.007812 13.640625 13.132812 L 13.640625 14.042969 C 13.640625 14.167969 13.542969 14.269531 13.414062 14.269531 L 12.503906 14.269531 C 12.378906 14.269531 12.277344 14.371094 12.277344 14.496094 L 12.277344 14.953125 C 12.277344 15.078125 12.378906 15.179688 12.503906 15.179688 L 14.097656 15.179688 C 14.347656 15.179688 14.550781 14.976562 14.550781 14.722656 L 14.550781 13.132812 C 14.550781 13.007812 14.449219 12.90625 14.324219 12.90625 Z M 13.871094 12.90625 "/>
</g>
</svg>
