<?xml version="1.0" encoding="UTF-8"?>
<svg xmlns="http://www.w3.org/2000/svg" xmlns:xlink="http://www.w3.org/1999/xlink" width="22px" height="22px" viewBox="0 0 22 22" version="1.1">
<g id="surface1">
<path style=" stroke:none;fill-rule:nonzero;fill:rgb(47.058824%,56.470591%,61.176473%);fill-opacity:1;" d="M 14.550781 1.082031 L 3.636719 1.082031 C 3.132812 1.082031 2.726562 1.488281 2.726562 1.992188 L 2.726562 20.179688 C 2.726562 20.683594 3.132812 21.089844 3.636719 21.089844 L 18.191406 21.089844 C 18.695312 21.089844 19.097656 20.683594 19.097656 20.179688 L 19.097656 5.628906 Z M 14.550781 1.082031 "/>
<path style=" stroke:none;fill-rule:nonzero;fill:rgb(69.01961%,74.509805%,77.254903%);fill-opacity:1;" d="M 9.324219 6.992188 C 7.9375 6.992188 6.820312 8.007812 6.820312 9.265625 L 6.820312 14.042969 C 6.820312 14.167969 6.921875 14.269531 7.046875 14.269531 L 7.503906 14.269531 C 7.628906 14.269531 7.730469 14.167969 7.730469 14.042969 L 7.730469 11.996094 L 10.914062 11.996094 L 10.914062 14.042969 C 10.914062 14.167969 11.015625 14.269531 11.140625 14.269531 L 11.597656 14.269531 C 11.722656 14.269531 11.824219 14.167969 11.824219 14.042969 L 11.824219 9.265625 C 11.824219 8.007812 10.707031 6.992188 9.324219 6.992188 Z M 9.324219 7.902344 C 10.203125 7.902344 10.914062 8.511719 10.914062 9.265625 L 10.914062 11.085938 L 7.730469 11.085938 L 7.730469 9.265625 C 7.730469 8.511719 8.441406 7.902344 9.324219 7.902344 Z M 9.324219 7.902344 "/>
<path style=" stroke:none;fill-rule:nonzero;fill:rgb(32.941177%,43.137255%,47.843137%);fill-opacity:1;" d="M 19.097656 5.628906 L 14.550781 1.082031 L 14.550781 4.71875 C 14.550781 5.222656 14.957031 5.628906 15.460938 5.628906 Z M 19.097656 5.628906 "/>
<path style=" stroke:none;fill-rule:nonzero;fill:rgb(96.078432%,96.078432%,96.078432%);fill-opacity:1;" d="M 11.816406 8.804688 C 11.617188 8.808594 11.441406 8.945312 11.386719 9.136719 C 11.277344 9.503906 11.191406 9.871094 11.128906 10.242188 C 10.523438 10.28125 9.9375 10.257812 9.386719 10.179688 C 9.222656 10.15625 9.0625 10.21875 8.960938 10.347656 C 8.855469 10.476562 8.832031 10.648438 8.894531 10.800781 C 8.957031 10.953125 9.09375 11.0625 9.257812 11.082031 C 9.824219 11.164062 10.414062 11.1875 11.019531 11.160156 C 10.992188 11.578125 10.992188 11.988281 11.019531 12.386719 C 10.25 12.683594 9.582031 13.175781 9.183594 13.769531 C 8.949219 14.121094 8.804688 14.542969 8.898438 14.972656 C 8.992188 15.402344 9.328125 15.765625 9.8125 15.988281 L 9.824219 15.996094 C 10.167969 16.140625 10.542969 16.121094 10.941406 16.019531 C 11.269531 15.9375 11.613281 15.785156 11.953125 15.566406 C 11.972656 15.597656 11.992188 15.628906 12.011719 15.660156 C 12.101562 15.796875 12.257812 15.875 12.421875 15.867188 C 12.585938 15.855469 12.730469 15.757812 12.804688 15.609375 C 12.875 15.464844 12.863281 15.289062 12.769531 15.152344 C 12.734375 15.097656 12.699219 15.039062 12.664062 14.980469 C 13.058594 14.570312 13.414062 14.046875 13.667969 13.40625 C 13.765625 13.484375 13.847656 13.566406 13.914062 13.652344 C 14.082031 13.886719 14.136719 14.136719 14.078125 14.398438 C 14.019531 14.660156 13.828125 14.960938 13.390625 15.253906 C 13.253906 15.34375 13.175781 15.5 13.183594 15.664062 C 13.195312 15.828125 13.292969 15.972656 13.4375 16.042969 C 13.585938 16.117188 13.757812 16.105469 13.894531 16.011719 C 14.480469 15.621094 14.84375 15.128906 14.964844 14.601562 C 15.085938 14.074219 14.953125 13.542969 14.652344 13.121094 C 14.46875 12.867188 14.222656 12.65625 13.9375 12.488281 C 13.949219 12.425781 13.964844 12.363281 13.976562 12.296875 C 14.003906 12.160156 13.964844 12.019531 13.871094 11.917969 C 13.78125 11.8125 13.644531 11.753906 13.507812 11.761719 C 13.292969 11.773438 13.113281 11.933594 13.078125 12.148438 C 13.078125 12.152344 13.078125 12.160156 13.078125 12.164062 C 12.722656 12.09375 12.339844 12.078125 11.9375 12.140625 C 11.921875 11.792969 11.925781 11.4375 11.953125 11.078125 C 12.855469 10.957031 13.785156 10.722656 14.710938 10.375 C 14.921875 10.300781 15.042969 10.085938 15.007812 9.867188 C 14.96875 9.648438 14.777344 9.492188 14.558594 9.492188 C 14.5 9.492188 14.445312 9.503906 14.390625 9.523438 C 13.613281 9.816406 12.832031 10.019531 12.078125 10.140625 C 12.125 9.890625 12.1875 9.640625 12.257812 9.398438 C 12.304688 9.257812 12.277344 9.105469 12.1875 8.988281 C 12.101562 8.871094 11.960938 8.800781 11.816406 8.804688 Z M 12.453125 13.007812 C 12.589844 13.007812 12.714844 13.023438 12.835938 13.042969 C 12.683594 13.441406 12.488281 13.777344 12.265625 14.058594 C 12.167969 13.746094 12.085938 13.40625 12.03125 13.042969 C 12.175781 13.019531 12.320312 13.007812 12.453125 13.007812 Z M 11.132812 13.332031 C 11.222656 13.839844 11.359375 14.316406 11.535156 14.746094 C 11.246094 14.949219 10.957031 15.078125 10.714844 15.140625 C 10.449219 15.207031 10.246094 15.183594 10.1875 15.160156 C 9.882812 15.015625 9.808594 14.890625 9.785156 14.78125 C 9.761719 14.667969 9.792969 14.496094 9.941406 14.273438 C 10.160156 13.945312 10.613281 13.582031 11.132812 13.332031 Z M 11.132812 13.332031 "/>
</g>
</svg>
