<?xml version="1.0" encoding="UTF-8"?>
<svg xmlns="http://www.w3.org/2000/svg" xmlns:xlink="http://www.w3.org/1999/xlink" width="22px" height="22px" viewBox="0 0 22 22" version="1.1">
<g id="surface1">
<path style=" stroke:none;fill-rule:nonzero;fill:rgb(64.705884%,83.92157%,65.490198%);fill-opacity:1;" d="M 14.550781 1.082031 L 3.636719 1.082031 C 3.132812 1.082031 2.726562 1.488281 2.726562 1.992188 L 2.726562 20.179688 C 2.726562 20.683594 3.132812 21.089844 3.636719 21.089844 L 18.191406 21.089844 C 18.695312 21.089844 19.097656 20.683594 19.097656 20.179688 L 19.097656 5.628906 Z M 14.550781 1.082031 "/>
<path style=" stroke:none;fill-rule:nonzero;fill:rgb(40.000001%,73.333335%,41.568628%);fill-opacity:1;" d="M 19.097656 5.628906 L 14.550781 1.082031 L 14.550781 4.71875 C 14.550781 5.222656 14.957031 5.628906 15.460938 5.628906 Z M 19.097656 5.628906 "/>
<path style=" stroke:none;fill-rule:nonzero;fill:rgb(96.078432%,96.078432%,96.078432%);fill-opacity:1;" d="M 8.183594 7.902344 C 7.933594 7.902344 7.730469 8.105469 7.730469 8.355469 L 7.730469 14.722656 C 7.730469 14.976562 7.933594 15.179688 8.183594 15.179688 L 13.640625 15.179688 C 13.894531 15.179688 14.097656 14.976562 14.097656 14.722656 L 14.097656 8.355469 C 14.097656 8.105469 13.894531 7.902344 13.640625 7.902344 Z M 8.867188 8.8125 L 12.960938 8.8125 C 13.085938 8.8125 13.1875 8.914062 13.1875 9.039062 L 13.1875 10.414062 C 13.1875 10.539062 13.085938 10.640625 12.960938 10.640625 L 8.867188 10.640625 C 8.742188 10.640625 8.640625 10.539062 8.640625 10.414062 L 8.640625 9.039062 C 8.640625 8.914062 8.742188 8.8125 8.867188 8.8125 Z M 8.753906 11.546875 L 9.324219 11.546875 C 9.386719 11.546875 9.4375 11.597656 9.4375 11.660156 L 9.4375 12.113281 C 9.4375 12.175781 9.386719 12.226562 9.324219 12.226562 L 8.753906 12.226562 C 8.691406 12.226562 8.640625 12.175781 8.640625 12.113281 L 8.640625 11.660156 C 8.640625 11.597656 8.691406 11.546875 8.753906 11.546875 Z M 10.003906 11.546875 L 10.574219 11.546875 C 10.636719 11.546875 10.6875 11.597656 10.6875 11.660156 L 10.6875 12.113281 C 10.6875 12.175781 10.636719 12.226562 10.574219 12.226562 L 10.003906 12.226562 C 9.941406 12.226562 9.890625 12.175781 9.890625 12.113281 L 9.890625 11.660156 C 9.890625 11.597656 9.941406 11.546875 10.003906 11.546875 Z M 11.253906 11.546875 L 11.824219 11.546875 C 11.886719 11.546875 11.9375 11.597656 11.9375 11.660156 L 11.9375 12.113281 C 11.9375 12.175781 11.886719 12.226562 11.824219 12.226562 L 11.253906 12.226562 C 11.191406 12.226562 11.140625 12.175781 11.140625 12.113281 L 11.140625 11.660156 C 11.140625 11.597656 11.191406 11.546875 11.253906 11.546875 Z M 12.503906 11.546875 L 13.074219 11.546875 C 13.136719 11.546875 13.1875 11.597656 13.1875 11.660156 L 13.1875 12.113281 C 13.1875 12.175781 13.136719 12.226562 13.074219 12.226562 L 12.503906 12.226562 C 12.441406 12.226562 12.390625 12.175781 12.390625 12.113281 L 12.390625 11.660156 C 12.390625 11.597656 12.441406 11.546875 12.503906 11.546875 Z M 8.753906 12.570312 L 9.324219 12.570312 C 9.386719 12.570312 9.4375 12.621094 9.4375 12.683594 L 9.4375 13.136719 C 9.4375 13.199219 9.386719 13.25 9.324219 13.25 L 8.753906 13.25 C 8.691406 13.25 8.640625 13.199219 8.640625 13.136719 L 8.640625 12.683594 C 8.640625 12.621094 8.691406 12.570312 8.753906 12.570312 Z M 10.003906 12.570312 L 10.574219 12.570312 C 10.636719 12.570312 10.6875 12.621094 10.6875 12.683594 L 10.6875 13.136719 C 10.6875 13.199219 10.636719 13.25 10.574219 13.25 L 10.003906 13.25 C 9.941406 13.25 9.890625 13.199219 9.890625 13.136719 L 9.890625 12.683594 C 9.890625 12.621094 9.941406 12.570312 10.003906 12.570312 Z M 11.253906 12.570312 L 11.824219 12.570312 C 11.886719 12.570312 11.9375 12.621094 11.9375 12.683594 L 11.9375 13.136719 C 11.9375 13.199219 11.886719 13.25 11.824219 13.25 L 11.253906 13.25 C 11.191406 13.25 11.140625 13.199219 11.140625 13.136719 L 11.140625 12.683594 C 11.140625 12.621094 11.191406 12.570312 11.253906 12.570312 Z M 12.503906 12.570312 L 13.074219 12.570312 C 13.136719 12.570312 13.1875 12.621094 13.1875 12.683594 L 13.1875 13.136719 C 13.1875 13.199219 13.136719 13.25 13.074219 13.25 L 12.503906 13.25 C 12.441406 13.25 12.390625 13.199219 12.390625 13.136719 L 12.390625 12.683594 C 12.390625 12.621094 12.441406 12.570312 12.503906 12.570312 Z M 8.753906 13.589844 L 9.324219 13.589844 C 9.386719 13.589844 9.4375 13.640625 9.4375 13.707031 L 9.4375 14.160156 C 9.4375 14.222656 9.386719 14.273438 9.324219 14.273438 L 8.753906 14.273438 C 8.691406 14.273438 8.640625 14.222656 8.640625 14.160156 L 8.640625 13.707031 C 8.640625 13.640625 8.691406 13.589844 8.753906 13.589844 Z M 10.003906 13.589844 L 10.574219 13.589844 C 10.636719 13.589844 10.6875 13.640625 10.6875 13.707031 L 10.6875 14.160156 C 10.6875 14.222656 10.636719 14.273438 10.574219 14.273438 L 10.003906 14.273438 C 9.941406 14.273438 9.890625 14.222656 9.890625 14.160156 L 9.890625 13.707031 C 9.890625 13.640625 9.941406 13.589844 10.003906 13.589844 Z M 11.253906 13.589844 L 11.824219 13.589844 C 11.886719 13.589844 11.9375 13.640625 11.9375 13.707031 L 11.9375 14.160156 C 11.9375 14.222656 11.886719 14.273438 11.824219 14.273438 L 11.253906 14.273438 C 11.191406 14.273438 11.140625 14.222656 11.140625 14.160156 L 11.140625 13.707031 C 11.140625 13.640625 11.191406 13.589844 11.253906 13.589844 Z M 12.503906 13.589844 L 13.074219 13.589844 C 13.136719 13.589844 13.1875 13.640625 13.1875 13.707031 L 13.1875 14.160156 C 13.1875 14.222656 13.136719 14.273438 13.074219 14.273438 L 12.503906 14.273438 C 12.441406 14.273438 12.390625 14.222656 12.390625 14.160156 L 12.390625 13.707031 C 12.390625 13.640625 12.441406 13.589844 12.503906 13.589844 Z M 12.503906 13.589844 "/>
</g>
</svg>
