<?xml version="1.0" encoding="UTF-8"?>
<svg xmlns="http://www.w3.org/2000/svg" xmlns:xlink="http://www.w3.org/1999/xlink" width="22px" height="22px" viewBox="0 0 22 22" version="1.1">
<g id="surface1">
<defs>
  <style id="current-color-scheme" type="text/css">
   .ColorScheme-Text { color:#eeeeee; } .ColorScheme-Highlight { color:#424242; }
  </style>
 </defs>
<path style="fill:currentColor;fill-opacity:0.5" class="ColorScheme-Text" d="M 8 4 L 8 5 L 6 5 L 6 18 L 16 18 L 16 5 L 14 5 L 14 4 Z M 8 4 "/>
<path style=" stroke:none;fill-rule:nonzero;fill:rgb(100%,43.137255%,25.882354%);fill-opacity:1;" d="M 15.5 10.5 C 14.113281 10.5 13 11.617188 13 13 C 13 13.171875 13.019531 13.339844 13.054688 13.5 L 13.5 13.5 C 13.675781 13.5 13.84375 13.523438 14 13.558594 L 14 13 C 14 12.167969 14.667969 11.5 15.5 11.5 C 16.332031 11.5 17 12.167969 17 13 L 17 14 L 16 14 C 15.445312 14 15 14.445312 15 15 L 15 16 L 16 16 L 16 15 L 17 15 C 17.554688 15 18 14.554688 18 14 L 18 13 C 18 11.617188 16.882812 10.5 15.5 10.5 Z M 15 17 L 15 18 L 16 18 L 16 17 Z M 15 17 "/>
</g>
</svg>
