<?xml version="1.0" encoding="UTF-8"?>
<svg xmlns="http://www.w3.org/2000/svg" xmlns:xlink="http://www.w3.org/1999/xlink" width="16px" height="16px" viewBox="0 0 16 16" version="1.1">
<g id="surface1">
<path style=" stroke:none;fill-rule:nonzero;fill:rgb(36.078432%,41.960785%,75.294119%);fill-opacity:1;" d="M 10.582031 0.785156 L 2.644531 0.785156 C 2.28125 0.785156 1.984375 1.082031 1.984375 1.449219 L 1.984375 14.675781 C 1.984375 15.042969 2.28125 15.339844 2.644531 15.339844 L 13.230469 15.339844 C 13.59375 15.339844 13.890625 15.042969 13.890625 14.675781 L 13.890625 4.09375 Z M 10.582031 0.785156 "/>
<path style=" stroke:none;fill-rule:nonzero;fill:rgb(22.352941%,28.627452%,67.058825%);fill-opacity:1;" d="M 13.890625 4.09375 L 10.582031 0.785156 L 10.582031 3.433594 C 10.582031 3.796875 10.878906 4.09375 11.246094 4.09375 Z M 13.890625 4.09375 "/>
<path style=" stroke:none;fill-rule:nonzero;fill:rgb(96.078432%,96.078432%,96.078432%);fill-opacity:1;" d="M 5.457031 5.746094 L 5.789062 5.746094 C 5.878906 5.746094 5.953125 5.820312 5.953125 5.914062 L 5.953125 10.542969 C 5.953125 10.632812 5.878906 10.707031 5.789062 10.707031 L 5.457031 10.707031 C 5.367188 10.707031 5.292969 10.632812 5.292969 10.542969 L 5.292969 5.914062 C 5.292969 5.820312 5.367188 5.746094 5.457031 5.746094 Z M 5.457031 5.746094 "/>
<path style=" stroke:none;fill-rule:nonzero;fill:rgb(96.078432%,96.078432%,96.078432%);fill-opacity:1;" d="M 8.101562 5.746094 L 8.433594 5.746094 C 8.523438 5.746094 8.597656 5.820312 8.597656 5.914062 L 8.597656 10.542969 C 8.597656 10.632812 8.523438 10.707031 8.433594 10.707031 L 8.101562 10.707031 C 8.011719 10.707031 7.9375 10.632812 7.9375 10.542969 L 7.9375 5.914062 C 7.9375 5.820312 8.011719 5.746094 8.101562 5.746094 Z M 8.101562 5.746094 "/>
<path style=" stroke:none;fill-rule:nonzero;fill:rgb(96.078432%,96.078432%,96.078432%);fill-opacity:1;" d="M 9.425781 6.738281 L 9.425781 7.070312 C 9.425781 7.160156 9.351562 7.234375 9.261719 7.234375 L 4.628906 7.234375 C 4.539062 7.234375 4.464844 7.160156 4.464844 7.070312 L 4.464844 6.738281 C 4.464844 6.648438 4.539062 6.574219 4.628906 6.574219 L 9.261719 6.574219 C 9.351562 6.574219 9.425781 6.648438 9.425781 6.738281 Z M 9.425781 6.738281 "/>
<path style=" stroke:none;fill-rule:nonzero;fill:rgb(96.078432%,96.078432%,96.078432%);fill-opacity:1;" d="M 9.425781 9.386719 L 9.425781 9.714844 C 9.425781 9.808594 9.351562 9.882812 9.261719 9.882812 L 4.628906 9.882812 C 4.539062 9.882812 4.464844 9.808594 4.464844 9.714844 L 4.464844 9.386719 C 4.464844 9.292969 4.539062 9.21875 4.628906 9.21875 L 9.261719 9.21875 C 9.351562 9.21875 9.425781 9.292969 9.425781 9.386719 Z M 9.425781 9.386719 "/>
<path style=" stroke:none;fill-rule:nonzero;fill:rgb(96.078432%,96.078432%,96.078432%);fill-opacity:1;" d="M 10.417969 5.746094 L 10.75 5.746094 C 10.839844 5.746094 10.914062 5.820312 10.914062 5.914062 L 10.914062 9.21875 C 10.914062 9.3125 10.839844 9.386719 10.75 9.386719 L 10.417969 9.386719 C 10.328125 9.386719 10.253906 9.3125 10.253906 9.21875 L 10.253906 5.914062 C 10.253906 5.820312 10.328125 5.746094 10.417969 5.746094 Z M 10.417969 5.746094 "/>
<path style=" stroke:none;fill-rule:nonzero;fill:rgb(96.078432%,96.078432%,96.078432%);fill-opacity:1;" d="M 10.417969 10.046875 L 10.75 10.046875 C 10.839844 10.046875 10.914062 10.121094 10.914062 10.210938 L 10.914062 10.542969 C 10.914062 10.632812 10.839844 10.707031 10.75 10.707031 L 10.417969 10.707031 C 10.328125 10.707031 10.253906 10.632812 10.253906 10.542969 L 10.253906 10.210938 C 10.253906 10.121094 10.328125 10.046875 10.417969 10.046875 Z M 10.417969 10.046875 "/>
</g>
</svg>
