<?xml version="1.0" encoding="UTF-8"?>
<svg xmlns="http://www.w3.org/2000/svg" xmlns:xlink="http://www.w3.org/1999/xlink" width="16px" height="16px" viewBox="0 0 16 16" version="1.1">
<g id="surface1">
<path style=" stroke:none;fill-rule:nonzero;fill:rgb(49.411765%,34.117648%,76.078433%);fill-opacity:1;" d="M 10.582031 0.785156 L 2.644531 0.785156 C 2.28125 0.785156 1.984375 1.082031 1.984375 1.449219 L 1.984375 14.675781 C 1.984375 15.042969 2.28125 15.339844 2.644531 15.339844 L 13.230469 15.339844 C 13.59375 15.339844 13.890625 15.042969 13.890625 14.675781 L 13.890625 4.09375 Z M 10.582031 0.785156 "/>
<path style=" stroke:none;fill-rule:nonzero;fill:rgb(36.862746%,20.784314%,69.411767%);fill-opacity:1;" d="M 13.890625 4.09375 L 10.582031 0.785156 L 10.582031 3.433594 C 10.582031 3.796875 10.878906 4.09375 11.246094 4.09375 Z M 13.890625 4.09375 "/>
<path style=" stroke:none;fill-rule:nonzero;fill:rgb(96.078432%,96.078432%,96.078432%);fill-opacity:1;" d="M 5.789062 6.875 C 5.722656 6.808594 5.617188 6.808594 5.554688 6.875 L 4.382812 8.042969 L 4.152344 8.277344 C 4.09375 8.335938 4.085938 8.425781 4.132812 8.492188 C 4.140625 8.496094 4.144531 8.503906 4.152344 8.511719 L 5.554688 9.914062 C 5.617188 9.976562 5.722656 9.976562 5.789062 9.914062 L 6.023438 9.679688 C 6.085938 9.613281 6.085938 9.511719 6.023438 9.445312 L 4.96875 8.394531 L 6.023438 7.339844 C 6.085938 7.277344 6.085938 7.171875 6.023438 7.105469 Z M 5.789062 6.875 "/>
<path style=" stroke:none;fill-rule:nonzero;fill:rgb(96.078432%,96.078432%,96.078432%);fill-opacity:1;" d="M 7.644531 5.792969 L 7.964844 5.878906 C 8.050781 5.902344 8.105469 5.996094 8.082031 6.082031 L 6.796875 10.875 C 6.773438 10.964844 6.683594 11.015625 6.59375 10.992188 L 6.273438 10.90625 C 6.1875 10.882812 6.132812 10.792969 6.15625 10.703125 L 7.441406 5.910156 C 7.464844 5.824219 7.554688 5.769531 7.644531 5.792969 Z M 7.644531 5.792969 "/>
<path style=" stroke:none;fill-rule:nonzero;fill:rgb(96.078432%,96.078432%,96.078432%);fill-opacity:1;" d="M 9.929688 5.746094 C 8.921875 5.746094 8.109375 6.558594 8.109375 7.566406 L 8.109375 7.898438 C 8.109375 7.988281 8.183594 8.0625 8.277344 8.0625 L 8.605469 8.0625 C 8.699219 8.0625 8.773438 7.988281 8.773438 7.898438 L 8.773438 7.566406 C 8.773438 6.925781 9.289062 6.410156 9.929688 6.410156 C 10.570312 6.410156 11.085938 6.925781 11.085938 7.566406 L 11.085938 7.730469 C 11.085938 8.023438 11.023438 8.15625 10.9375 8.25 C 10.851562 8.347656 10.722656 8.417969 10.546875 8.492188 C 10.371094 8.5625 10.164062 8.628906 9.960938 8.78125 C 9.757812 8.9375 9.597656 9.21875 9.597656 9.550781 L 9.597656 9.714844 C 9.597656 9.808594 9.671875 9.882812 9.765625 9.882812 L 10.09375 9.882812 C 10.1875 9.882812 10.261719 9.808594 10.261719 9.714844 L 10.261719 9.550781 C 10.261719 9.386719 10.285156 9.367188 10.363281 9.308594 C 10.441406 9.246094 10.605469 9.183594 10.800781 9.101562 C 11 9.019531 11.238281 8.910156 11.433594 8.6875 C 11.628906 8.464844 11.75 8.140625 11.75 7.730469 L 11.75 7.566406 C 11.75 6.558594 10.9375 5.746094 9.929688 5.746094 Z M 9.765625 10.378906 C 9.671875 10.378906 9.597656 10.453125 9.597656 10.542969 L 9.597656 10.875 C 9.597656 10.964844 9.671875 11.039062 9.765625 11.039062 L 10.09375 11.039062 C 10.1875 11.039062 10.261719 10.964844 10.261719 10.875 L 10.261719 10.542969 C 10.261719 10.453125 10.1875 10.378906 10.09375 10.378906 Z M 9.765625 10.378906 "/>
</g>
</svg>
