<?xml version="1.0" encoding="UTF-8"?>
<svg xmlns="http://www.w3.org/2000/svg" xmlns:xlink="http://www.w3.org/1999/xlink" width="16px" height="16px" viewBox="0 0 16 16" version="1.1">
<defs>
<linearGradient id="linear0" gradientUnits="userSpaceOnUse" x1="381" y1="-41.666668" x2="381" y2="-62.833332" gradientTransform="matrix(0.0132576,0,0,-0.03125,2.781131,7.421868)">
<stop offset="0" style="stop-color:rgb(12.941177%,12.941177%,12.941177%);stop-opacity:0.392157;"/>
<stop offset="1" style="stop-color:rgb(49.411765%,34.117648%,76.078433%);stop-opacity:0;"/>
</linearGradient>
</defs>
<g id="surface1">
<path style=" stroke:none;fill-rule:nonzero;fill:rgb(83.137256%,88.235295%,34.117648%);fill-opacity:1;" d="M 1.324219 0.785156 L 14.550781 0.785156 C 14.917969 0.785156 15.214844 1.082031 15.214844 1.449219 L 15.214844 14.675781 C 15.214844 15.042969 14.917969 15.339844 14.550781 15.339844 L 1.324219 15.339844 C 0.957031 15.339844 0.660156 15.042969 0.660156 14.675781 L 0.660156 1.449219 C 0.660156 1.082031 0.957031 0.785156 1.324219 0.785156 Z M 1.324219 0.785156 "/>
<path style=" stroke:none;fill-rule:nonzero;fill:rgb(0%,0%,0%);fill-opacity:0.235294;" d="M 6.613281 0.785156 L 6.613281 8.0625 C 6.613281 8.429688 6.910156 8.722656 7.277344 8.722656 L 8.597656 8.722656 C 8.964844 8.722656 9.261719 8.429688 9.261719 8.0625 L 9.261719 0.785156 Z M 6.613281 0.785156 "/>
<path style=" stroke:none;fill-rule:nonzero;fill:rgb(0%,0%,0%);fill-opacity:0.313726;" d="M 6.945312 0.785156 L 8.929688 0.785156 L 8.929688 8.394531 L 6.945312 8.394531 Z M 6.945312 0.785156 "/>
<path style=" stroke:none;fill-rule:nonzero;fill:rgb(87.843138%,87.843138%,87.843138%);fill-opacity:1;" d="M 7.027344 5.5 C 6.9375 5.5 6.863281 5.574219 6.863281 5.664062 L 6.863281 5.828125 C 6.863281 5.921875 6.9375 5.996094 7.027344 5.996094 L 7.523438 5.996094 C 7.617188 5.996094 7.691406 5.921875 7.691406 5.828125 L 7.792969 5.828125 C 7.824219 5.878906 7.875 5.914062 7.9375 5.914062 C 8.027344 5.914062 8.101562 5.839844 8.101562 5.746094 C 8.101562 5.65625 8.027344 5.582031 7.9375 5.582031 C 7.875 5.582031 7.824219 5.617188 7.792969 5.664062 L 7.691406 5.664062 C 7.691406 5.574219 7.617188 5.5 7.523438 5.5 Z M 7.027344 5.5 "/>
<path style=" stroke:none;fill-rule:nonzero;fill:rgb(87.843138%,87.843138%,87.843138%);fill-opacity:1;" d="M 7.027344 6.324219 C 6.9375 6.324219 6.863281 6.398438 6.863281 6.492188 L 6.863281 6.65625 C 6.863281 6.75 6.9375 6.820312 7.027344 6.820312 L 7.523438 6.820312 C 7.617188 6.820312 7.691406 6.75 7.691406 6.65625 L 7.792969 6.65625 C 7.824219 6.707031 7.875 6.738281 7.9375 6.738281 C 8.027344 6.738281 8.101562 6.664062 8.101562 6.574219 C 8.101562 6.484375 8.027344 6.410156 7.9375 6.410156 C 7.875 6.410156 7.824219 6.441406 7.792969 6.492188 L 7.691406 6.492188 C 7.691406 6.398438 7.617188 6.324219 7.523438 6.324219 Z M 7.027344 6.324219 "/>
<path style=" stroke:none;fill-rule:nonzero;fill:rgb(87.843138%,87.843138%,87.843138%);fill-opacity:1;" d="M 7.027344 7.152344 C 6.9375 7.152344 6.863281 7.226562 6.863281 7.316406 L 6.863281 7.484375 C 6.863281 7.574219 6.9375 7.648438 7.027344 7.648438 L 7.523438 7.648438 C 7.617188 7.648438 7.691406 7.574219 7.691406 7.484375 L 7.792969 7.484375 C 7.824219 7.53125 7.875 7.566406 7.9375 7.566406 C 8.027344 7.566406 8.101562 7.492188 8.101562 7.402344 C 8.101562 7.308594 8.027344 7.234375 7.9375 7.234375 C 7.875 7.234375 7.824219 7.269531 7.792969 7.316406 L 7.691406 7.316406 C 7.691406 7.226562 7.617188 7.152344 7.523438 7.152344 Z M 7.027344 7.152344 "/>
<path style=" stroke:none;fill-rule:nonzero;fill:rgb(87.843138%,87.843138%,87.843138%);fill-opacity:1;" d="M 7.027344 4.671875 C 6.9375 4.671875 6.863281 4.746094 6.863281 4.835938 L 6.863281 5.003906 C 6.863281 5.09375 6.9375 5.167969 7.027344 5.167969 L 7.523438 5.167969 C 7.617188 5.167969 7.691406 5.09375 7.691406 5.003906 L 7.792969 5.003906 C 7.824219 5.050781 7.875 5.085938 7.9375 5.085938 C 8.027344 5.085938 8.101562 5.011719 8.101562 4.921875 C 8.101562 4.828125 8.027344 4.753906 7.9375 4.753906 C 7.875 4.753906 7.824219 4.789062 7.792969 4.835938 L 7.691406 4.835938 C 7.691406 4.746094 7.617188 4.671875 7.523438 4.671875 Z M 7.027344 4.671875 "/>
<path style=" stroke:none;fill-rule:nonzero;fill:rgb(87.843138%,87.843138%,87.843138%);fill-opacity:1;" d="M 7.027344 3.84375 C 6.9375 3.84375 6.863281 3.917969 6.863281 4.011719 L 6.863281 4.175781 C 6.863281 4.269531 6.9375 4.339844 7.027344 4.339844 L 7.523438 4.339844 C 7.617188 4.339844 7.691406 4.269531 7.691406 4.175781 L 7.792969 4.175781 C 7.824219 4.226562 7.875 4.257812 7.9375 4.257812 C 8.027344 4.257812 8.101562 4.183594 8.101562 4.09375 C 8.101562 4.003906 8.027344 3.929688 7.9375 3.929688 C 7.875 3.929688 7.824219 3.960938 7.792969 4.011719 L 7.691406 4.011719 C 7.691406 3.917969 7.617188 3.84375 7.523438 3.84375 Z M 7.027344 3.84375 "/>
<path style=" stroke:none;fill-rule:nonzero;fill:rgb(87.843138%,87.843138%,87.843138%);fill-opacity:1;" d="M 7.027344 3.019531 C 6.9375 3.019531 6.863281 3.09375 6.863281 3.183594 L 6.863281 3.347656 C 6.863281 3.441406 6.9375 3.515625 7.027344 3.515625 L 7.523438 3.515625 C 7.617188 3.515625 7.691406 3.441406 7.691406 3.347656 L 7.792969 3.347656 C 7.824219 3.398438 7.875 3.433594 7.9375 3.433594 C 8.027344 3.433594 8.101562 3.359375 8.101562 3.265625 C 8.101562 3.175781 8.027344 3.101562 7.9375 3.101562 C 7.875 3.101562 7.824219 3.136719 7.792969 3.183594 L 7.691406 3.183594 C 7.691406 3.09375 7.617188 3.019531 7.523438 3.019531 Z M 7.027344 3.019531 "/>
<path style=" stroke:none;fill-rule:nonzero;fill:rgb(87.843138%,87.843138%,87.843138%);fill-opacity:1;" d="M 7.027344 2.191406 C 6.9375 2.191406 6.863281 2.265625 6.863281 2.355469 L 6.863281 2.523438 C 6.863281 2.613281 6.9375 2.6875 7.027344 2.6875 L 7.523438 2.6875 C 7.617188 2.6875 7.691406 2.613281 7.691406 2.523438 L 7.792969 2.523438 C 7.824219 2.570312 7.875 2.605469 7.9375 2.605469 C 8.027344 2.605469 8.101562 2.53125 8.101562 2.441406 C 8.101562 2.347656 8.027344 2.273438 7.9375 2.273438 C 7.875 2.273438 7.824219 2.308594 7.792969 2.355469 L 7.691406 2.355469 C 7.691406 2.265625 7.617188 2.191406 7.523438 2.191406 Z M 7.027344 2.191406 "/>
<path style=" stroke:none;fill-rule:nonzero;fill:rgb(87.843138%,87.843138%,87.843138%);fill-opacity:1;" d="M 7.027344 1.363281 C 6.9375 1.363281 6.863281 1.4375 6.863281 1.53125 L 6.863281 1.695312 C 6.863281 1.789062 6.9375 1.859375 7.027344 1.859375 L 7.523438 1.859375 C 7.617188 1.859375 7.691406 1.789062 7.691406 1.695312 L 7.792969 1.695312 C 7.824219 1.746094 7.875 1.777344 7.9375 1.777344 C 8.027344 1.777344 8.101562 1.703125 8.101562 1.613281 C 8.101562 1.523438 8.027344 1.449219 7.9375 1.449219 C 7.875 1.449219 7.824219 1.480469 7.792969 1.53125 L 7.691406 1.53125 C 7.691406 1.4375 7.617188 1.363281 7.523438 1.363281 Z M 7.027344 1.363281 "/>
<path style=" stroke:none;fill-rule:nonzero;fill:rgb(87.843138%,87.843138%,87.843138%);fill-opacity:1;" d="M 8.847656 5.085938 C 8.9375 5.085938 9.011719 5.160156 9.011719 5.25 L 9.011719 5.417969 C 9.011719 5.507812 8.9375 5.582031 8.847656 5.582031 L 8.351562 5.582031 C 8.257812 5.582031 8.1875 5.507812 8.1875 5.417969 L 8.082031 5.417969 C 8.050781 5.464844 8 5.5 7.9375 5.5 C 7.847656 5.5 7.773438 5.425781 7.773438 5.332031 C 7.773438 5.242188 7.847656 5.167969 7.9375 5.167969 C 8 5.167969 8.050781 5.203125 8.082031 5.25 L 8.1875 5.25 C 8.1875 5.160156 8.257812 5.085938 8.351562 5.085938 Z M 8.847656 5.085938 "/>
<path style=" stroke:none;fill-rule:nonzero;fill:rgb(87.843138%,87.843138%,87.843138%);fill-opacity:1;" d="M 8.847656 5.914062 C 8.9375 5.914062 9.011719 5.988281 9.011719 6.078125 L 9.011719 6.242188 C 9.011719 6.335938 8.9375 6.410156 8.847656 6.410156 L 8.351562 6.410156 C 8.257812 6.410156 8.1875 6.335938 8.1875 6.242188 L 8.082031 6.242188 C 8.050781 6.292969 8 6.328125 7.9375 6.328125 C 7.847656 6.328125 7.773438 6.253906 7.773438 6.160156 C 7.773438 6.070312 7.847656 5.996094 7.9375 5.996094 C 8 5.996094 8.050781 6.027344 8.082031 6.078125 L 8.1875 6.078125 C 8.1875 5.988281 8.257812 5.914062 8.351562 5.914062 Z M 8.847656 5.914062 "/>
<path style=" stroke:none;fill-rule:nonzero;fill:rgb(87.843138%,87.843138%,87.843138%);fill-opacity:1;" d="M 8.847656 6.738281 C 8.9375 6.738281 9.011719 6.8125 9.011719 6.90625 L 9.011719 7.070312 C 9.011719 7.160156 8.9375 7.234375 8.847656 7.234375 L 8.351562 7.234375 C 8.257812 7.234375 8.1875 7.160156 8.1875 7.070312 L 8.082031 7.070312 C 8.050781 7.121094 8 7.152344 7.9375 7.152344 C 7.847656 7.152344 7.773438 7.078125 7.773438 6.988281 C 7.773438 6.894531 7.847656 6.824219 7.9375 6.824219 C 8 6.824219 8.050781 6.855469 8.082031 6.90625 L 8.1875 6.90625 C 8.1875 6.8125 8.257812 6.738281 8.351562 6.738281 Z M 8.847656 6.738281 "/>
<path style=" stroke:none;fill-rule:nonzero;fill:rgb(87.843138%,87.843138%,87.843138%);fill-opacity:1;" d="M 8.847656 7.566406 C 8.9375 7.566406 9.011719 7.640625 9.011719 7.730469 L 9.011719 7.898438 C 9.011719 7.988281 8.9375 8.0625 8.847656 8.0625 L 8.351562 8.0625 C 8.257812 8.0625 8.1875 7.988281 8.1875 7.898438 L 8.082031 7.898438 C 8.050781 7.945312 8 7.980469 7.9375 7.980469 C 7.847656 7.980469 7.773438 7.90625 7.773438 7.816406 C 7.773438 7.722656 7.847656 7.648438 7.9375 7.648438 C 8 7.648438 8.050781 7.683594 8.082031 7.730469 L 8.1875 7.730469 C 8.1875 7.640625 8.257812 7.566406 8.351562 7.566406 Z M 8.847656 7.566406 "/>
<path style=" stroke:none;fill-rule:nonzero;fill:rgb(87.843138%,87.843138%,87.843138%);fill-opacity:1;" d="M 8.847656 4.257812 C 8.9375 4.257812 9.011719 4.332031 9.011719 4.425781 L 9.011719 4.589844 C 9.011719 4.679688 8.9375 4.753906 8.847656 4.753906 L 8.351562 4.753906 C 8.257812 4.753906 8.1875 4.679688 8.1875 4.589844 L 8.082031 4.589844 C 8.050781 4.640625 8 4.671875 7.9375 4.671875 C 7.847656 4.671875 7.773438 4.597656 7.773438 4.507812 C 7.773438 4.414062 7.847656 4.34375 7.9375 4.34375 C 8 4.34375 8.050781 4.375 8.082031 4.425781 L 8.1875 4.425781 C 8.1875 4.332031 8.257812 4.257812 8.351562 4.257812 Z M 8.847656 4.257812 "/>
<path style=" stroke:none;fill-rule:nonzero;fill:rgb(87.843138%,87.843138%,87.843138%);fill-opacity:1;" d="M 8.847656 3.433594 C 8.9375 3.433594 9.011719 3.507812 9.011719 3.597656 L 9.011719 3.761719 C 9.011719 3.855469 8.9375 3.929688 8.847656 3.929688 L 8.351562 3.929688 C 8.257812 3.929688 8.1875 3.855469 8.1875 3.761719 L 8.082031 3.761719 C 8.050781 3.8125 8 3.847656 7.9375 3.847656 C 7.847656 3.847656 7.773438 3.773438 7.773438 3.679688 C 7.773438 3.589844 7.847656 3.515625 7.9375 3.515625 C 8 3.515625 8.050781 3.546875 8.082031 3.597656 L 8.1875 3.597656 C 8.1875 3.507812 8.257812 3.433594 8.351562 3.433594 Z M 8.847656 3.433594 "/>
<path style=" stroke:none;fill-rule:nonzero;fill:rgb(87.843138%,87.843138%,87.843138%);fill-opacity:1;" d="M 8.847656 2.605469 C 8.9375 2.605469 9.011719 2.679688 9.011719 2.769531 L 9.011719 2.9375 C 9.011719 3.027344 8.9375 3.101562 8.847656 3.101562 L 8.351562 3.101562 C 8.257812 3.101562 8.1875 3.027344 8.1875 2.9375 L 8.082031 2.9375 C 8.050781 2.984375 8 3.019531 7.9375 3.019531 C 7.847656 3.019531 7.773438 2.945312 7.773438 2.855469 C 7.773438 2.761719 7.847656 2.6875 7.9375 2.6875 C 8 2.6875 8.050781 2.722656 8.082031 2.769531 L 8.1875 2.769531 C 8.1875 2.679688 8.257812 2.605469 8.351562 2.605469 Z M 8.847656 2.605469 "/>
<path style=" stroke:none;fill-rule:nonzero;fill:rgb(87.843138%,87.843138%,87.843138%);fill-opacity:1;" d="M 8.847656 1.777344 C 8.9375 1.777344 9.011719 1.851562 9.011719 1.945312 L 9.011719 2.109375 C 9.011719 2.199219 8.9375 2.273438 8.847656 2.273438 L 8.351562 2.273438 C 8.257812 2.273438 8.1875 2.199219 8.1875 2.109375 L 8.082031 2.109375 C 8.050781 2.160156 8 2.191406 7.9375 2.191406 C 7.847656 2.191406 7.773438 2.117188 7.773438 2.027344 C 7.773438 1.933594 7.847656 1.859375 7.9375 1.859375 C 8 1.859375 8.050781 1.894531 8.082031 1.945312 L 8.1875 1.945312 C 8.1875 1.851562 8.257812 1.777344 8.351562 1.777344 Z M 8.847656 1.777344 "/>
<path style=" stroke:none;fill-rule:nonzero;fill:rgb(87.843138%,87.843138%,87.843138%);fill-opacity:1;" d="M 8.847656 0.953125 C 8.9375 0.953125 9.011719 1.027344 9.011719 1.117188 L 9.011719 1.28125 C 9.011719 1.375 8.9375 1.449219 8.847656 1.449219 L 8.351562 1.449219 C 8.257812 1.449219 8.1875 1.375 8.1875 1.28125 L 8.082031 1.28125 C 8.050781 1.332031 8 1.367188 7.9375 1.367188 C 7.847656 1.367188 7.773438 1.292969 7.773438 1.199219 C 7.773438 1.109375 7.847656 1.035156 7.9375 1.035156 C 8 1.035156 8.050781 1.066406 8.082031 1.117188 L 8.1875 1.117188 C 8.1875 1.027344 8.257812 0.953125 8.351562 0.953125 Z M 8.847656 0.953125 "/>
<path style=" stroke:none;fill-rule:nonzero;fill:rgb(87.843138%,87.843138%,87.843138%);fill-opacity:1;" d="M 6.863281 0.785156 L 6.863281 0.867188 C 6.863281 0.960938 6.9375 1.035156 7.027344 1.035156 L 7.523438 1.035156 C 7.617188 1.035156 7.6875 0.960938 7.6875 0.867188 L 7.792969 0.867188 C 7.824219 0.917969 7.875 0.953125 7.9375 0.953125 C 8.027344 0.953125 8.101562 0.878906 8.101562 0.785156 Z M 6.863281 0.785156 "/>
<path style=" stroke:none;fill-rule:nonzero;fill:url(#linear0);" d="M 6.78125 9.386719 L 9.09375 9.386719 L 9.09375 8.394531 L 6.78125 8.394531 Z M 6.78125 9.386719 "/>
<path style=" stroke:none;fill-rule:nonzero;fill:rgb(74.117649%,74.117649%,74.117649%);fill-opacity:1;" d="M 7.9375 7.566406 C 8.578125 7.566406 9.09375 7.972656 9.09375 8.476562 C 9.09375 8.976562 8.578125 9.386719 7.9375 9.386719 C 7.296875 9.386719 6.78125 8.976562 6.78125 8.476562 C 6.78125 7.972656 7.296875 7.566406 7.9375 7.566406 Z M 7.9375 7.566406 "/>
<path style=" stroke:none;fill-rule:nonzero;fill:rgb(61.960787%,61.960787%,61.960787%);fill-opacity:1;" d="M 7.9375 8.394531 C 7.570312 8.394531 7.277344 8.6875 7.277344 9.054688 L 6.945312 11.699219 L 6.945312 12.363281 C 6.945312 12.910156 7.386719 13.355469 7.9375 13.355469 C 8.488281 13.355469 8.929688 12.910156 8.929688 12.363281 L 8.929688 11.699219 L 8.597656 9.054688 C 8.597656 8.6875 8.304688 8.394531 7.9375 8.394531 Z M 7.9375 8.722656 C 8.121094 8.722656 8.269531 8.871094 8.269531 9.054688 C 8.269531 9.238281 8.121094 9.386719 7.9375 9.386719 C 7.753906 9.386719 7.605469 9.238281 7.605469 9.054688 C 7.605469 8.871094 7.753906 8.722656 7.9375 8.722656 Z M 7.9375 10.046875 C 8.210938 10.046875 8.433594 10.269531 8.433594 10.542969 L 8.433594 10.875 C 8.433594 11.148438 8.210938 11.371094 7.9375 11.371094 C 7.664062 11.371094 7.441406 11.148438 7.441406 10.875 L 7.441406 10.542969 C 7.441406 10.269531 7.664062 10.046875 7.9375 10.046875 Z M 7.9375 11.699219 C 8.304688 11.699219 8.597656 11.996094 8.597656 12.363281 C 8.597656 12.726562 8.304688 13.023438 7.9375 13.023438 C 7.570312 13.023438 7.277344 12.726562 7.277344 12.363281 C 7.277344 11.996094 7.570312 11.699219 7.9375 11.699219 Z M 7.9375 11.699219 "/>
<path style=" stroke:none;fill-rule:nonzero;fill:rgb(87.843138%,87.843138%,87.843138%);fill-opacity:1;" d="M 7.773438 7.730469 L 8.101562 7.730469 C 8.195312 7.730469 8.269531 7.804688 8.269531 7.898438 L 8.269531 9.054688 C 8.269531 9.144531 8.195312 9.21875 8.101562 9.21875 L 7.773438 9.21875 C 7.679688 9.21875 7.605469 9.144531 7.605469 9.054688 L 7.605469 7.898438 C 7.605469 7.804688 7.679688 7.730469 7.773438 7.730469 Z M 7.773438 7.730469 "/>
</g>
</svg>
