<?xml version="1.0" encoding="UTF-8"?>
<svg xmlns="http://www.w3.org/2000/svg" xmlns:xlink="http://www.w3.org/1999/xlink" width="16px" height="16px" viewBox="0 0 16 16" version="1.1">
<g id="surface1">
<path style=" stroke:none;fill-rule:nonzero;fill:rgb(38.039216%,38.039216%,38.039216%);fill-opacity:1;" d="M 10.582031 0.785156 L 2.644531 0.785156 C 2.28125 0.785156 1.984375 1.082031 1.984375 1.449219 L 1.984375 14.675781 C 1.984375 15.042969 2.28125 15.339844 2.644531 15.339844 L 13.230469 15.339844 C 13.59375 15.339844 13.890625 15.042969 13.890625 14.675781 L 13.890625 4.09375 Z M 10.582031 0.785156 "/>
<path style=" stroke:none;fill-rule:nonzero;fill:rgb(25.882354%,25.882354%,25.882354%);fill-opacity:1;" d="M 13.890625 4.09375 L 10.582031 0.785156 L 10.582031 3.433594 C 10.582031 3.796875 10.878906 4.09375 11.246094 4.09375 Z M 13.890625 4.09375 "/>
<path style=" stroke:none;fill-rule:nonzero;fill:rgb(96.078432%,96.078432%,96.078432%);fill-opacity:1;" d="M 7.207031 5.746094 C 6.890625 5.746094 6.472656 6 6.472656 6.3125 C 6.472656 6.324219 6.472656 6.335938 6.472656 6.347656 C 6.414062 6.328125 6.347656 6.3125 6.28125 6.3125 C 5.96875 6.3125 5.714844 6.566406 5.714844 6.882812 C 5.714844 6.957031 5.730469 7.027344 5.753906 7.089844 C 5.511719 7.15625 5.335938 7.375 5.335938 7.636719 C 5.335938 7.78125 5.390625 7.914062 5.480469 8.015625 C 5.390625 8.117188 5.335938 8.25 5.335938 8.394531 C 5.335938 8.539062 5.390625 8.671875 5.480469 8.773438 C 5.390625 8.871094 5.335938 9.003906 5.335938 9.148438 C 5.335938 9.414062 5.511719 9.632812 5.753906 9.695312 C 5.730469 9.761719 5.714844 9.832031 5.714844 9.90625 C 5.714844 10.160156 5.878906 10.375 6.109375 10.445312 C 6.183594 10.785156 6.652344 11.039062 7.015625 11.039062 C 7.371094 11.039062 7.664062 10.800781 7.75 10.472656 C 7.773438 10.285156 7.765625 10.03125 7.773438 9.808594 L 7.773438 6.3125 C 7.773438 6 7.519531 5.746094 7.207031 5.746094 Z M 8.667969 5.746094 C 8.355469 5.746094 8.101562 6 8.101562 6.3125 L 8.101562 9.808594 C 8.109375 10.03125 8.101562 10.285156 8.125 10.472656 C 8.210938 10.800781 8.503906 11.039062 8.859375 11.039062 C 9.222656 11.039062 9.691406 10.785156 9.765625 10.445312 C 9.996094 10.375 10.160156 10.160156 10.160156 9.90625 C 10.160156 9.832031 10.144531 9.761719 10.121094 9.695312 C 10.363281 9.632812 10.539062 9.414062 10.539062 9.148438 C 10.539062 9.003906 10.484375 8.871094 10.394531 8.773438 C 10.484375 8.671875 10.539062 8.539062 10.539062 8.394531 C 10.539062 8.25 10.484375 8.117188 10.394531 8.015625 C 10.484375 7.914062 10.539062 7.78125 10.539062 7.636719 C 10.539062 7.375 10.363281 7.15625 10.121094 7.089844 C 10.144531 7.027344 10.160156 6.957031 10.160156 6.882812 C 10.160156 6.566406 9.90625 6.3125 9.59375 6.3125 C 9.527344 6.3125 9.460938 6.328125 9.402344 6.347656 C 9.402344 6.335938 9.40625 6.324219 9.40625 6.3125 C 9.40625 6 8.984375 5.746094 8.667969 5.746094 Z M 8.667969 5.746094 "/>
</g>
</svg>
