<?xml version="1.0" encoding="UTF-8"?>
<svg xmlns="http://www.w3.org/2000/svg" xmlns:xlink="http://www.w3.org/1999/xlink" width="16px" height="16px" viewBox="0 0 16 16" version="1.1">
<g id="surface1">
<path style=" stroke:none;fill-rule:nonzero;fill:rgb(100%,43.921569%,26.274511%);fill-opacity:1;" d="M 10.582031 0.785156 L 2.644531 0.785156 C 2.28125 0.785156 1.984375 1.082031 1.984375 1.449219 L 1.984375 14.675781 C 1.984375 15.042969 2.28125 15.339844 2.644531 15.339844 L 13.230469 15.339844 C 13.59375 15.339844 13.890625 15.042969 13.890625 14.675781 L 13.890625 4.09375 Z M 10.582031 0.785156 "/>
<path style=" stroke:none;fill-rule:nonzero;fill:rgb(95.686275%,31.764707%,11.764706%);fill-opacity:1;" d="M 13.890625 4.09375 L 10.582031 0.785156 L 10.582031 3.433594 C 10.582031 3.796875 10.878906 4.09375 11.246094 4.09375 Z M 13.890625 4.09375 "/>
<path style=" stroke:none;fill-rule:nonzero;fill:rgb(98.039216%,98.039216%,98.039216%);fill-opacity:1;" d="M 7.59375 5.613281 C 7.511719 5.613281 7.425781 5.648438 7.359375 5.710938 C 7.230469 5.839844 7.230469 6.050781 7.359375 6.179688 L 8.582031 7.402344 L 5.621094 7.402344 C 5.4375 7.402344 5.292969 7.546875 5.292969 7.730469 C 5.292969 7.914062 5.4375 8.0625 5.621094 8.0625 L 7.347656 8.0625 L 5.257812 10.15625 C 5.125 10.285156 5.125 10.492188 5.257812 10.625 C 5.386719 10.753906 5.59375 10.753906 5.722656 10.625 L 6.953125 9.394531 C 7.039062 10.320312 7.816406 11.039062 8.765625 11.039062 C 9.773438 11.039062 10.582031 10.226562 10.582031 9.21875 C 10.582031 8.671875 10.34375 8.179688 9.960938 7.847656 C 9.953125 7.835938 9.945312 7.828125 9.933594 7.816406 L 7.828125 5.710938 C 7.765625 5.648438 7.679688 5.613281 7.59375 5.613281 Z M 8.765625 8.0625 C 9.40625 8.0625 9.921875 8.578125 9.921875 9.21875 C 9.921875 9.859375 9.40625 10.378906 8.765625 10.378906 C 8.121094 10.378906 7.605469 9.859375 7.605469 9.21875 C 7.605469 8.578125 8.121094 8.0625 8.765625 8.0625 Z M 8.765625 8.640625 C 8.445312 8.640625 8.183594 8.898438 8.183594 9.21875 C 8.183594 9.539062 8.445312 9.796875 8.765625 9.796875 C 9.085938 9.796875 9.34375 9.539062 9.34375 9.21875 C 9.34375 8.898438 9.085938 8.640625 8.765625 8.640625 Z M 8.765625 8.640625 "/>
</g>
</svg>
