<?xml version="1.0" encoding="UTF-8"?>
<svg xmlns="http://www.w3.org/2000/svg" xmlns:xlink="http://www.w3.org/1999/xlink" width="16px" height="16px" viewBox="0 0 16 16" version="1.1">
<g id="surface1">
<path style=" stroke:none;fill-rule:nonzero;fill:rgb(38.039216%,38.039216%,38.039216%);fill-opacity:1;" d="M 10.582031 0.785156 L 2.644531 0.785156 C 2.28125 0.785156 1.984375 1.082031 1.984375 1.449219 L 1.984375 14.675781 C 1.984375 15.042969 2.28125 15.339844 2.644531 15.339844 L 13.230469 15.339844 C 13.59375 15.339844 13.890625 15.042969 13.890625 14.675781 L 13.890625 4.09375 Z M 10.582031 0.785156 "/>
<path style=" stroke:none;fill-rule:nonzero;fill:rgb(25.882354%,25.882354%,25.882354%);fill-opacity:1;" d="M 13.890625 4.09375 L 10.582031 0.785156 L 10.582031 3.433594 C 10.582031 3.796875 10.878906 4.09375 11.246094 4.09375 Z M 13.890625 4.09375 "/>
<path style=" stroke:none;fill-rule:nonzero;fill:rgb(96.078432%,96.078432%,96.078432%);fill-opacity:1;" d="M 7.9375 4.425781 C 7.785156 4.425781 7.65625 4.53125 7.621094 4.675781 L 7.125 6.652344 L 6.546875 5.882812 C 6.484375 5.796875 6.386719 5.75 6.285156 5.75 L 5.621094 5.75 C 5.503906 5.75 5.394531 5.808594 5.335938 5.914062 C 5.273438 6.015625 5.273438 6.140625 5.335938 6.242188 C 5.394531 6.347656 5.503906 6.40625 5.621094 6.40625 L 6.121094 6.40625 L 7.011719 7.597656 C 7.089844 7.699219 7.21875 7.746094 7.339844 7.722656 C 7.464844 7.699219 7.5625 7.601562 7.59375 7.480469 L 8.195312 5.082031 L 10.253906 5.082031 C 10.371094 5.085938 10.480469 5.023438 10.539062 4.921875 C 10.601562 4.816406 10.601562 4.691406 10.539062 4.589844 C 10.480469 4.488281 10.371094 4.425781 10.253906 4.425781 Z M 9.933594 5.414062 C 9.8125 5.414062 9.699219 5.476562 9.640625 5.578125 L 9.425781 5.9375 L 9.210938 5.578125 C 9.15625 5.480469 9.054688 5.421875 8.941406 5.414062 C 8.820312 5.410156 8.707031 5.472656 8.644531 5.578125 C 8.582031 5.683594 8.585938 5.8125 8.648438 5.917969 L 9.042969 6.574219 L 8.648438 7.230469 C 8.585938 7.332031 8.582031 7.457031 8.640625 7.5625 C 8.695312 7.664062 8.804688 7.730469 8.921875 7.730469 C 9.042969 7.734375 9.152344 7.671875 9.210938 7.570312 L 9.425781 7.210938 L 9.640625 7.570312 C 9.699219 7.671875 9.808594 7.734375 9.929688 7.730469 C 10.046875 7.730469 10.15625 7.664062 10.210938 7.5625 C 10.269531 7.457031 10.265625 7.332031 10.203125 7.230469 L 9.808594 6.574219 L 10.203125 5.917969 C 10.265625 5.816406 10.269531 5.691406 10.214844 5.585938 C 10.15625 5.484375 10.050781 5.417969 9.933594 5.414062 Z M 4.628906 8.066406 C 4.511719 8.0625 4.402344 8.125 4.34375 8.226562 C 4.28125 8.328125 4.28125 8.457031 4.34375 8.558594 C 4.402344 8.660156 4.511719 8.722656 4.628906 8.722656 L 11.246094 8.722656 C 11.363281 8.722656 11.472656 8.660156 11.53125 8.558594 C 11.59375 8.457031 11.59375 8.328125 11.53125 8.226562 C 11.472656 8.125 11.363281 8.0625 11.246094 8.066406 Z M 8.929688 9.054688 C 8.8125 9.054688 8.699219 9.121094 8.644531 9.222656 L 8.015625 10.339844 L 7.398438 9.226562 C 7.339844 9.117188 7.222656 9.050781 7.101562 9.054688 C 6.984375 9.054688 6.878906 9.121094 6.824219 9.21875 C 6.765625 9.320312 6.765625 9.445312 6.824219 9.542969 L 7.636719 11.011719 L 7.15625 11.871094 C 7.097656 11.972656 7.097656 12.097656 7.160156 12.199219 C 7.21875 12.300781 7.328125 12.363281 7.445312 12.359375 C 7.5625 12.359375 7.671875 12.292969 7.726562 12.191406 L 9.214844 9.546875 C 9.273438 9.445312 9.273438 9.320312 9.214844 9.21875 C 9.15625 9.117188 9.046875 9.054688 8.929688 9.054688 Z M 8.929688 9.054688 "/>
</g>
</svg>
