<?xml version="1.0" encoding="UTF-8"?>
<svg xmlns="http://www.w3.org/2000/svg" xmlns:xlink="http://www.w3.org/1999/xlink" width="16px" height="16px" viewBox="0 0 16 16" version="1.1">
<g id="surface1">
<path style=" stroke:none;fill-rule:nonzero;fill:rgb(55.29412%,43.137255%,38.82353%);fill-opacity:1;" d="M 10.582031 0.785156 L 2.644531 0.785156 C 2.28125 0.785156 1.984375 1.082031 1.984375 1.449219 L 1.984375 14.675781 C 1.984375 15.042969 2.28125 15.339844 2.644531 15.339844 L 13.230469 15.339844 C 13.59375 15.339844 13.890625 15.042969 13.890625 14.675781 L 13.890625 4.09375 Z M 10.582031 0.785156 "/>
<path style=" stroke:none;fill-rule:nonzero;fill:rgb(42.745098%,29.803923%,25.490198%);fill-opacity:1;" d="M 13.890625 4.09375 L 10.582031 0.785156 L 10.582031 3.433594 C 10.582031 3.796875 10.878906 4.09375 11.246094 4.09375 Z M 13.890625 4.09375 "/>
<path style=" stroke:none;fill-rule:nonzero;fill:rgb(96.078432%,96.078432%,96.078432%);fill-opacity:1;" d="M 5.9375 5.777344 C 5.398438 5.777344 4.960938 6.210938 4.960938 6.753906 C 4.960938 7.273438 5.359375 7.695312 5.871094 7.730469 C 6.066406 8.800781 6.585938 9.433594 7.242188 9.777344 C 7.316406 9.816406 7.390625 9.851562 7.46875 9.882812 L 6.597656 9.882812 C 6.527344 9.597656 6.269531 9.386719 5.964844 9.386719 L 5.941406 9.386719 C 5.582031 9.386719 5.292969 9.675781 5.292969 10.035156 C 5.292969 10.398438 5.582031 10.6875 5.941406 10.6875 L 5.964844 10.6875 C 6.261719 10.6875 6.515625 10.488281 6.589844 10.210938 L 8.941406 10.210938 C 9.011719 10.679688 9.417969 11.039062 9.90625 11.039062 L 9.9375 11.039062 C 10.476562 11.039062 10.914062 10.601562 10.914062 10.0625 C 10.914062 9.519531 10.476562 9.085938 9.9375 9.085938 L 9.90625 9.085938 C 9.433594 9.085938 9.042969 9.414062 8.949219 9.859375 C 8.402344 9.824219 7.851562 9.730469 7.394531 9.488281 C 6.824219 9.1875 6.371094 8.671875 6.195312 7.703125 C 6.625 7.601562 6.945312 7.21875 6.945312 6.753906 C 6.945312 6.210938 6.507812 5.777344 5.96875 5.777344 Z M 5.9375 5.777344 "/>
</g>
</svg>
