<?xml version="1.0" encoding="UTF-8"?>
<svg xmlns="http://www.w3.org/2000/svg" xmlns:xlink="http://www.w3.org/1999/xlink" width="16px" height="16px" viewBox="0 0 16 16" version="1.1">
<g id="surface1">
<path style=" stroke:none;fill-rule:nonzero;fill:rgb(55.29412%,43.137255%,38.82353%);fill-opacity:1;" d="M 7.9375 0.785156 C 11.957031 0.785156 15.214844 4.042969 15.214844 8.0625 C 15.214844 12.082031 11.957031 15.339844 7.9375 15.339844 C 3.917969 15.339844 0.660156 12.082031 0.660156 8.0625 C 0.660156 4.042969 3.917969 0.785156 7.9375 0.785156 Z M 7.9375 0.785156 "/>
<path style=" stroke:none;fill-rule:nonzero;fill:rgb(100%,65.490198%,14.901961%);fill-opacity:1;" d="M 7.9375 2.109375 C 11.226562 2.109375 13.890625 4.773438 13.890625 8.0625 C 13.890625 11.351562 11.226562 14.015625 7.9375 14.015625 C 4.648438 14.015625 1.984375 11.351562 1.984375 8.0625 C 1.984375 4.773438 4.648438 2.109375 7.9375 2.109375 Z M 7.9375 2.109375 "/>
<path style=" stroke:none;fill-rule:nonzero;fill:rgb(55.29412%,43.137255%,38.82353%);fill-opacity:1;" d="M 7.277344 1.449219 L 8.597656 1.449219 L 8.597656 14.675781 L 7.277344 14.675781 Z M 7.277344 1.449219 "/>
<path style=" stroke:none;fill-rule:nonzero;fill:rgb(55.29412%,43.137255%,38.82353%);fill-opacity:1;" d="M 14.550781 7.402344 L 14.550781 8.722656 L 1.324219 8.722656 L 1.324219 7.402344 Z M 14.550781 7.402344 "/>
</g>
</svg>
