<?xml version="1.0" encoding="UTF-8"?>
<svg xmlns="http://www.w3.org/2000/svg" xmlns:xlink="http://www.w3.org/1999/xlink" width="16px" height="16px" viewBox="0 0 16 16" version="1.1">
<g id="surface1">
<path style=" stroke:none;fill-rule:nonzero;fill:rgb(74.117649%,74.117649%,74.117649%);fill-opacity:1;" d="M 1.984375 0.785156 L 13.890625 0.785156 C 14.621094 0.785156 15.214844 1.378906 15.214844 2.109375 L 15.214844 14.015625 C 15.214844 14.746094 14.621094 15.339844 13.890625 15.339844 L 1.984375 15.339844 C 1.253906 15.339844 0.660156 14.746094 0.660156 14.015625 L 0.660156 2.109375 C 0.660156 1.378906 1.253906 0.785156 1.984375 0.785156 Z M 1.984375 0.785156 "/>
<path style=" stroke:none;fill-rule:nonzero;fill:rgb(93.333334%,93.333334%,93.333334%);fill-opacity:1;" d="M 1.984375 1.449219 L 13.890625 1.449219 C 14.257812 1.449219 14.550781 1.742188 14.550781 2.109375 L 14.550781 13.355469 C 14.550781 13.71875 14.257812 14.015625 13.890625 14.015625 L 1.984375 14.015625 C 1.617188 14.015625 1.324219 13.71875 1.324219 13.355469 L 1.324219 2.109375 C 1.324219 1.742188 1.617188 1.449219 1.984375 1.449219 Z M 1.984375 1.449219 "/>
<path style=" stroke:none;fill-rule:nonzero;fill:rgb(25.882354%,25.882354%,25.882354%);fill-opacity:1;" d="M 10.75 8.0625 C 9.375 8.0625 8.269531 9.09375 8.269531 10.378906 C 8.269531 11.660156 9.375 12.691406 10.75 12.691406 C 11.308594 12.691406 11.824219 12.523438 12.238281 12.230469 L 12.238281 12.363281 C 12.238281 12.546875 12.382812 12.691406 12.566406 12.691406 L 12.898438 12.691406 C 13.082031 12.691406 13.230469 12.546875 13.230469 12.363281 L 13.230469 8.394531 C 13.230469 8.210938 13.082031 8.0625 12.898438 8.0625 L 12.566406 8.0625 C 12.382812 8.0625 12.238281 8.210938 12.238281 8.394531 L 12.238281 8.523438 C 11.824219 8.234375 11.308594 8.0625 10.75 8.0625 Z M 10.75 9.058594 C 11.574219 9.058594 12.238281 9.648438 12.238281 10.378906 C 12.238281 11.113281 11.574219 11.699219 10.75 11.699219 C 9.925781 11.699219 9.261719 11.113281 9.261719 10.378906 C 9.261719 9.648438 9.925781 9.058594 10.75 9.058594 Z M 10.75 9.058594 "/>
<path style=" stroke:none;fill-rule:nonzero;fill:rgb(25.882354%,25.882354%,25.882354%);fill-opacity:1;" d="M 9.300781 5.394531 C 9.125 5.347656 8.945312 5.449219 8.898438 5.625 L 8.726562 6.265625 C 8.703125 6.351562 8.71875 6.449219 8.769531 6.527344 C 8.820312 6.605469 8.902344 6.65625 8.992188 6.671875 L 12.273438 7.210938 C 12.4375 7.234375 12.597656 7.132812 12.640625 6.96875 C 12.6875 6.808594 12.597656 6.636719 12.441406 6.578125 L 9.332031 5.402344 C 9.324219 5.398438 9.3125 5.394531 9.300781 5.394531 Z M 9.300781 5.394531 "/>
</g>
</svg>
