<?xml version="1.0" encoding="UTF-8"?>
<svg xmlns="http://www.w3.org/2000/svg" xmlns:xlink="http://www.w3.org/1999/xlink" width="16px" height="16px" viewBox="0 0 16 16" version="1.1">
<g id="surface1">
<path style=" stroke:none;fill-rule:nonzero;fill:rgb(47.058824%,56.470591%,61.176473%);fill-opacity:1;" d="M 1.324219 0.785156 L 14.550781 0.785156 C 14.917969 0.785156 15.214844 1.082031 15.214844 1.449219 L 15.214844 14.675781 C 15.214844 15.042969 14.917969 15.339844 14.550781 15.339844 L 1.324219 15.339844 C 0.957031 15.339844 0.660156 15.042969 0.660156 14.675781 L 0.660156 1.449219 C 0.660156 1.082031 0.957031 0.785156 1.324219 0.785156 Z M 1.324219 0.785156 "/>
<path style=" stroke:none;fill-rule:nonzero;fill:rgb(93.333334%,93.333334%,93.333334%);fill-opacity:1;" d="M 1.652344 1.449219 L 14.222656 1.449219 C 14.402344 1.449219 14.550781 1.597656 14.550781 1.777344 L 14.550781 14.347656 C 14.550781 14.527344 14.402344 14.675781 14.222656 14.675781 L 1.652344 14.675781 C 1.472656 14.675781 1.324219 14.527344 1.324219 14.347656 L 1.324219 1.777344 C 1.324219 1.597656 1.472656 1.449219 1.652344 1.449219 Z M 1.652344 1.449219 "/>
<path style=" stroke:none;fill-rule:nonzero;fill:rgb(69.01961%,74.509805%,77.254903%);fill-opacity:1;" d="M 1.652344 1.449219 C 1.46875 1.449219 1.324219 1.59375 1.324219 1.777344 L 1.324219 2.769531 C 1.324219 2.039062 1.914062 1.449219 2.644531 1.449219 Z M 13.230469 1.449219 C 13.960938 1.449219 14.550781 2.039062 14.550781 2.769531 L 14.550781 1.777344 C 14.550781 1.59375 14.40625 1.449219 14.222656 1.449219 Z M 1.324219 11.699219 L 1.324219 14.347656 C 1.324219 14.53125 1.46875 14.675781 1.652344 14.675781 L 14.222656 14.675781 C 14.40625 14.675781 14.550781 14.53125 14.550781 14.347656 L 14.550781 11.699219 C 14.550781 12.433594 13.960938 13.023438 13.230469 13.023438 L 2.644531 13.023438 C 1.914062 13.023438 1.324219 12.433594 1.324219 11.699219 Z M 1.324219 11.699219 "/>
<path style=" stroke:none;fill-rule:nonzero;fill:rgb(25.882354%,25.882354%,25.882354%);fill-opacity:1;" d="M 4.960938 4.09375 L 5.621094 4.09375 C 5.804688 4.09375 5.953125 4.242188 5.953125 4.425781 L 5.953125 9.054688 C 5.953125 9.238281 5.804688 9.386719 5.621094 9.386719 L 4.960938 9.386719 C 4.777344 9.386719 4.628906 9.238281 4.628906 9.054688 L 4.628906 4.425781 C 4.628906 4.242188 4.777344 4.09375 4.960938 4.09375 Z M 4.960938 4.09375 "/>
<path style=" stroke:none;fill-rule:nonzero;fill:rgb(25.882354%,25.882354%,25.882354%);fill-opacity:1;" d="M 10.253906 4.09375 L 10.914062 4.09375 C 11.097656 4.09375 11.246094 4.242188 11.246094 4.425781 L 11.246094 9.054688 C 11.246094 9.238281 11.097656 9.386719 10.914062 9.386719 L 10.253906 9.386719 C 10.070312 9.386719 9.921875 9.238281 9.921875 9.054688 L 9.921875 4.425781 C 9.921875 4.242188 10.070312 4.09375 10.253906 4.09375 Z M 10.253906 4.09375 "/>
</g>
</svg>
