<?xml version="1.0" encoding="UTF-8"?>
<svg xmlns="http://www.w3.org/2000/svg" xmlns:xlink="http://www.w3.org/1999/xlink" width="16" height="16" viewBox="0 0 16 16" version="1.1">
<g id="surface1">
<path style=" stroke:none;fill-rule:nonzero;fill:rgb(36.078432%,41.960785%,75.294119%);fill-opacity:1;" d="M 1.324219 0.660156 L 14.550781 0.660156 C 14.917969 0.660156 15.214844 0.957031 15.214844 1.324219 L 15.214844 14.550781 C 15.214844 14.917969 14.917969 15.214844 14.550781 15.214844 L 1.324219 15.214844 C 0.957031 15.214844 0.660156 14.917969 0.660156 14.550781 L 0.660156 1.324219 C 0.660156 0.957031 0.957031 0.660156 1.324219 0.660156 Z M 1.324219 0.660156 "/>
<path style=" stroke:none;fill-rule:nonzero;fill:rgb(93.333334%,93.333334%,93.333334%);fill-opacity:1;" d="M 2.316406 1.984375 C 2.132812 1.984375 1.984375 2.132812 1.984375 2.316406 L 1.984375 13.558594 C 1.984375 13.742188 2.132812 13.890625 2.316406 13.890625 L 13.558594 13.890625 C 13.742188 13.890625 13.890625 13.742188 13.890625 13.558594 L 13.890625 2.316406 C 13.890625 2.132812 13.742188 1.984375 13.558594 1.984375 Z M 2.8125 2.644531 L 13.0625 2.644531 C 13.15625 2.644531 13.230469 2.71875 13.230469 2.8125 L 13.230469 13.0625 C 13.230469 13.15625 13.15625 13.230469 13.0625 13.230469 L 2.8125 13.230469 C 2.71875 13.230469 2.644531 13.15625 2.644531 13.0625 L 2.644531 2.8125 C 2.644531 2.71875 2.71875 2.644531 2.8125 2.644531 Z M 2.8125 2.644531 "/>
<path style=" stroke:none;fill-rule:nonzero;fill:rgb(93.333334%,93.333334%,93.333334%);fill-opacity:1;" d="M 4.945312 5.738281 C 5.027344 5.738281 5.089844 5.722656 5.128906 5.683594 C 5.171875 5.648438 5.195312 5.597656 5.195312 5.527344 C 5.195312 5.457031 5.171875 5.40625 5.128906 5.367188 C 5.089844 5.332031 5.027344 5.3125 4.945312 5.3125 L 4.65625 5.3125 L 4.65625 5.738281 Z M 4.960938 6.617188 C 5.066406 6.617188 5.144531 6.59375 5.195312 6.550781 C 5.25 6.507812 5.277344 6.441406 5.277344 6.351562 C 5.277344 6.265625 5.25 6.199219 5.199219 6.15625 C 5.144531 6.113281 5.066406 6.089844 4.960938 6.089844 L 4.65625 6.089844 L 4.65625 6.617188 Z M 5.445312 5.894531 C 5.554688 5.925781 5.640625 5.988281 5.703125 6.074219 C 5.761719 6.160156 5.792969 6.269531 5.792969 6.394531 C 5.792969 6.589844 5.726562 6.730469 5.597656 6.828125 C 5.464844 6.921875 5.265625 6.96875 5 6.96875 L 4.140625 6.96875 L 4.140625 4.960938 L 4.917969 4.960938 C 5.195312 4.960938 5.398438 5.003906 5.523438 5.085938 C 5.648438 5.171875 5.710938 5.308594 5.710938 5.492188 C 5.710938 5.589844 5.6875 5.671875 5.644531 5.742188 C 5.597656 5.8125 5.53125 5.863281 5.445312 5.894531 Z M 5.445312 5.894531 "/>
<path style=" stroke:none;fill-rule:nonzero;fill:rgb(93.333334%,93.333334%,93.333334%);fill-opacity:1;" d="M 7.460938 6.605469 L 6.648438 6.605469 L 6.523438 6.96875 L 6 6.96875 L 6.746094 4.960938 L 7.363281 4.960938 L 8.105469 6.96875 L 7.585938 6.96875 Z M 6.777344 6.230469 L 7.328125 6.230469 L 7.054688 5.433594 Z M 6.777344 6.230469 "/>
<path style=" stroke:none;fill-rule:nonzero;fill:rgb(93.333334%,93.333334%,93.333334%);fill-opacity:1;" d="M 9.773438 5.023438 L 9.773438 5.449219 C 9.660156 5.398438 9.554688 5.363281 9.449219 5.335938 C 9.34375 5.3125 9.246094 5.300781 9.152344 5.300781 C 9.027344 5.300781 8.9375 5.316406 8.875 5.351562 C 8.816406 5.386719 8.789062 5.4375 8.789062 5.511719 C 8.789062 5.5625 8.808594 5.605469 8.847656 5.636719 C 8.886719 5.667969 8.960938 5.691406 9.066406 5.714844 L 9.285156 5.757812 C 9.507812 5.800781 9.667969 5.871094 9.761719 5.960938 C 9.855469 6.054688 9.902344 6.183594 9.902344 6.351562 C 9.902344 6.574219 9.835938 6.738281 9.707031 6.847656 C 9.574219 6.957031 9.375 7.007812 9.105469 7.007812 C 8.976562 7.007812 8.847656 6.996094 8.722656 6.972656 C 8.59375 6.949219 8.464844 6.914062 8.335938 6.863281 L 8.335938 6.429688 C 8.464844 6.496094 8.589844 6.546875 8.707031 6.582031 C 8.828125 6.617188 8.941406 6.632812 9.054688 6.632812 C 9.167969 6.632812 9.253906 6.613281 9.3125 6.578125 C 9.375 6.539062 9.40625 6.484375 9.40625 6.414062 C 9.40625 6.351562 9.382812 6.304688 9.34375 6.269531 C 9.300781 6.234375 9.222656 6.207031 9.097656 6.179688 L 8.898438 6.132812 C 8.699219 6.089844 8.550781 6.023438 8.457031 5.929688 C 8.363281 5.835938 8.316406 5.707031 8.316406 5.546875 C 8.316406 5.347656 8.382812 5.195312 8.511719 5.085938 C 8.640625 4.976562 8.828125 4.925781 9.070312 4.925781 C 9.179688 4.925781 9.292969 4.933594 9.410156 4.949219 C 9.527344 4.964844 9.648438 4.992188 9.773438 5.023438 Z M 9.773438 5.023438 "/>
<path style=" stroke:none;fill-rule:nonzero;fill:rgb(93.333334%,93.333334%,93.333334%);fill-opacity:1;" d="M 10.359375 4.960938 L 11.757812 4.960938 L 11.757812 5.351562 L 10.875 5.351562 L 10.875 5.726562 L 11.703125 5.726562 L 11.703125 6.117188 L 10.875 6.117188 L 10.875 6.578125 L 11.785156 6.578125 L 11.785156 6.96875 L 10.359375 6.96875 Z M 10.359375 4.960938 "/>
<path style=" stroke:none;fill-rule:nonzero;fill:rgb(93.333334%,93.333334%,93.333334%);fill-opacity:1;" d="M 4.25 9.035156 L 4.816406 9.035156 L 5.210938 9.960938 L 5.605469 9.035156 L 6.171875 9.035156 L 6.171875 10.761719 L 5.75 10.761719 L 5.75 9.5 L 5.351562 10.429688 L 5.070312 10.429688 L 4.671875 9.5 L 4.671875 10.761719 L 4.25 10.761719 Z M 4.25 9.035156 "/>
<path style=" stroke:none;fill-rule:nonzero;fill:rgb(93.333334%,93.333334%,93.333334%);fill-opacity:1;" d="M 7.65625 10.449219 L 6.960938 10.449219 L 6.851562 10.761719 L 6.402344 10.761719 L 7.042969 9.035156 L 7.574219 9.035156 L 8.214844 10.761719 L 7.765625 10.761719 Z M 7.070312 10.128906 L 7.546875 10.128906 L 7.308594 9.441406 Z M 7.070312 10.128906 "/>
<path style=" stroke:none;fill-rule:nonzero;fill:rgb(93.333334%,93.333334%,93.333334%);fill-opacity:1;" d="M 9.078125 9.800781 C 9.171875 9.800781 9.238281 9.785156 9.277344 9.75 C 9.320312 9.714844 9.339844 9.65625 9.339844 9.578125 C 9.339844 9.5 9.320312 9.441406 9.277344 9.40625 C 9.238281 9.375 9.171875 9.355469 9.078125 9.355469 L 8.890625 9.355469 L 8.890625 9.800781 Z M 8.890625 10.109375 L 8.890625 10.761719 L 8.445312 10.761719 L 8.445312 9.035156 L 9.125 9.035156 C 9.351562 9.035156 9.519531 9.074219 9.625 9.148438 C 9.730469 9.226562 9.785156 9.347656 9.785156 9.511719 C 9.785156 9.625 9.757812 9.71875 9.703125 9.792969 C 9.648438 9.867188 9.5625 9.921875 9.453125 9.953125 C 9.515625 9.96875 9.570312 10 9.617188 10.050781 C 9.664062 10.097656 9.714844 10.171875 9.761719 10.273438 L 10.003906 10.761719 L 9.53125 10.761719 L 9.320312 10.332031 C 9.277344 10.246094 9.234375 10.1875 9.191406 10.15625 C 9.148438 10.125 9.089844 10.109375 9.015625 10.109375 Z M 8.890625 10.109375 "/>
<path style=" stroke:none;fill-rule:nonzero;fill:rgb(93.333334%,93.333334%,93.333334%);fill-opacity:1;" d="M 10.269531 9.035156 L 10.714844 9.035156 L 10.714844 9.664062 L 11.359375 9.035156 L 11.875 9.035156 L 11.042969 9.851562 L 11.960938 10.761719 L 11.402344 10.761719 L 10.714844 10.082031 L 10.714844 10.761719 L 10.269531 10.761719 Z M 10.269531 9.035156 "/>
</g>
</svg>
