<?xml version="1.0" encoding="UTF-8"?>
<svg xmlns="http://www.w3.org/2000/svg" xmlns:xlink="http://www.w3.org/1999/xlink" width="16px" height="16px" viewBox="0 0 16 16" version="1.1">
<g id="surface1">
<path style=" stroke:none;fill-rule:nonzero;fill:rgb(98.431373%,54.901963%,0%);fill-opacity:1;" d="M 2.644531 0.785156 L 13.230469 0.785156 C 13.59375 0.785156 13.890625 1.082031 13.890625 1.449219 L 13.890625 14.675781 C 13.890625 15.042969 13.59375 15.339844 13.230469 15.339844 L 2.644531 15.339844 C 2.28125 15.339844 1.984375 15.042969 1.984375 14.675781 L 1.984375 1.449219 C 1.984375 1.082031 2.28125 0.785156 2.644531 0.785156 Z M 2.644531 0.785156 "/>
<path style=" stroke:none;fill-rule:nonzero;fill:rgb(96.078432%,96.078432%,96.078432%);fill-opacity:1;" d="M 3.636719 1.117188 L 13.230469 1.117188 C 13.410156 1.117188 13.558594 1.265625 13.558594 1.449219 L 13.558594 14.675781 C 13.558594 14.859375 13.410156 15.007812 13.230469 15.007812 L 3.636719 15.007812 C 3.457031 15.007812 3.308594 14.859375 3.308594 14.675781 L 3.308594 1.449219 C 3.308594 1.265625 3.457031 1.117188 3.636719 1.117188 Z M 3.636719 1.117188 "/>
<path style=" stroke:none;fill-rule:nonzero;fill:rgb(100%,65.490198%,14.901961%);fill-opacity:1;" d="M 3.96875 0.785156 L 3.96875 15.339844 L 12.566406 15.339844 C 12.933594 15.339844 13.230469 15.042969 13.230469 14.675781 L 13.230469 1.449219 C 13.230469 1.082031 12.933594 0.785156 12.566406 0.785156 Z M 3.96875 0.785156 "/>
<path style=" stroke:none;fill-rule:nonzero;fill:rgb(25.882354%,25.882354%,25.882354%);fill-opacity:1;" d="M 2.644531 0.785156 C 2.28125 0.785156 1.984375 1.082031 1.984375 1.449219 L 1.984375 14.675781 C 1.984375 15.042969 2.28125 15.339844 2.644531 15.339844 L 3.96875 15.339844 L 3.96875 0.785156 Z M 2.644531 0.785156 "/>
<path style=" stroke:none;fill-rule:nonzero;fill:rgb(38.039216%,38.039216%,38.039216%);fill-opacity:1;" d="M 1.984375 7.730469 L 3.636719 7.730469 L 3.636719 8.394531 L 1.984375 8.394531 Z M 1.984375 7.730469 "/>
<path style=" stroke:none;fill-rule:nonzero;fill:rgb(38.039216%,38.039216%,38.039216%);fill-opacity:1;" d="M 1.984375 4.09375 L 3.636719 4.09375 L 3.636719 4.753906 L 1.984375 4.753906 Z M 1.984375 4.09375 "/>
<path style=" stroke:none;fill-rule:nonzero;fill:rgb(38.039216%,38.039216%,38.039216%);fill-opacity:1;" d="M 1.984375 11.371094 L 3.636719 11.371094 L 3.636719 12.03125 L 1.984375 12.03125 Z M 1.984375 11.371094 "/>
<path style=" stroke:none;fill-rule:nonzero;fill:rgb(25.882354%,25.882354%,25.882354%);fill-opacity:1;" d="M 10.582031 0.785156 L 11.90625 0.785156 L 11.90625 9.386719 L 11.246094 8.394531 L 10.582031 9.386719 Z M 10.582031 0.785156 "/>
<path style=" stroke:none;fill-rule:nonzero;fill:rgb(36.470589%,25.098041%,21.568628%);fill-opacity:1;" d="M 14.71875 11.699219 C 14.992188 11.699219 15.214844 11.921875 15.214844 12.195312 C 15.214844 12.472656 14.992188 12.691406 14.71875 12.691406 L 8.765625 12.691406 C 7.605469 12.691406 4.796875 13.355469 4.796875 15.339844 C 3.804688 15.339844 2.644531 15.339844 2.8125 14.675781 C 3.308594 13.1875 4.796875 11.699219 7.441406 11.699219 Z M 14.71875 11.699219 "/>
<path style=" stroke:none;fill-rule:nonzero;fill:rgb(47.450981%,33.333334%,28.235295%);fill-opacity:1;" d="M 3.140625 11.699219 C 2.867188 11.699219 2.644531 11.921875 2.644531 12.195312 C 2.644531 12.472656 2.867188 12.691406 3.140625 12.691406 L 9.09375 12.691406 C 10.253906 12.691406 13.0625 13.355469 13.0625 15.339844 C 14.054688 15.339844 15.214844 15.339844 15.046875 14.675781 C 14.550781 13.1875 13.0625 11.699219 10.417969 11.699219 Z M 3.140625 11.699219 "/>
<path style=" stroke:none;fill-rule:nonzero;fill:rgb(69.01961%,74.509805%,77.254903%);fill-opacity:0.54902;" d="M 12.238281 11.039062 C 13.515625 11.039062 14.550781 11.832031 14.550781 12.8125 L 14.550781 12.90625 C 14.550781 13.882812 13.515625 14.675781 12.238281 14.675781 C 10.957031 14.675781 9.921875 13.882812 9.921875 12.90625 L 9.921875 12.8125 C 9.921875 11.832031 10.957031 11.039062 12.238281 11.039062 Z M 12.238281 11.039062 "/>
<path style=" stroke:none;fill-rule:nonzero;fill:rgb(55.29412%,43.137255%,38.82353%);fill-opacity:1;" d="M 8.929688 11.699219 C 8.378906 11.699219 7.9375 12.144531 7.9375 12.691406 C 7.9375 12.875 8.085938 13.023438 8.269531 13.023438 C 8.453125 13.023438 8.597656 12.875 8.597656 12.691406 C 8.597656 12.507812 8.746094 12.363281 8.929688 12.363281 C 9.113281 12.363281 9.261719 12.507812 9.261719 12.691406 L 9.273438 12.691406 C 9.265625 12.71875 9.261719 12.746094 9.261719 12.777344 C 9.261719 12.914062 9.371094 13.023438 9.507812 13.023438 C 9.644531 13.023438 9.757812 12.914062 9.757812 12.777344 C 9.757812 12.746094 9.75 12.71875 9.742188 12.691406 L 9.921875 12.691406 C 9.921875 12.144531 9.480469 11.699219 8.929688 11.699219 Z M 8.929688 11.699219 "/>
<path style=" stroke:none;fill-rule:nonzero;fill:rgb(55.29412%,43.137255%,38.82353%);fill-opacity:1;" d="M 12.210938 10.378906 C 10.734375 10.378906 9.542969 11.429688 9.542969 12.734375 L 9.542969 12.980469 C 9.542969 14.289062 10.734375 15.339844 12.210938 15.339844 C 13.691406 15.339844 14.882812 14.289062 14.882812 12.980469 L 14.882812 12.734375 C 14.882812 11.429688 13.691406 10.378906 12.210938 10.378906 Z M 12.210938 11.039062 C 13.296875 11.039062 14.171875 11.808594 14.171875 12.765625 L 14.171875 12.949219 C 14.171875 13.90625 13.296875 14.675781 12.210938 14.675781 C 11.128906 14.675781 10.253906 13.90625 10.253906 12.949219 L 10.253906 12.765625 C 10.253906 11.808594 11.128906 11.039062 12.210938 11.039062 Z M 12.210938 11.039062 "/>
<path style=" stroke:none;fill-rule:nonzero;fill:rgb(69.01961%,74.509805%,77.254903%);fill-opacity:0.54902;" d="M 5.621094 11.039062 C 6.902344 11.039062 7.9375 11.832031 7.9375 12.8125 L 7.9375 12.90625 C 7.9375 13.882812 6.902344 14.675781 5.621094 14.675781 C 4.34375 14.675781 3.308594 13.882812 3.308594 12.90625 L 3.308594 12.8125 C 3.308594 11.832031 4.34375 11.039062 5.621094 11.039062 Z M 5.621094 11.039062 "/>
<path style=" stroke:none;fill-rule:nonzero;fill:rgb(55.29412%,43.137255%,38.82353%);fill-opacity:1;" d="M 5.621094 10.378906 C 4.144531 10.378906 2.953125 11.429688 2.953125 12.734375 L 2.953125 12.980469 C 2.953125 14.289062 4.144531 15.339844 5.621094 15.339844 C 7.101562 15.339844 8.292969 14.289062 8.292969 12.980469 L 8.292969 12.734375 C 8.292969 11.429688 7.101562 10.378906 5.621094 10.378906 Z M 5.621094 11.039062 C 6.707031 11.039062 7.582031 11.808594 7.582031 12.765625 L 7.582031 12.949219 C 7.582031 13.90625 6.707031 14.675781 5.621094 14.675781 C 4.539062 14.675781 3.664062 13.90625 3.664062 12.949219 L 3.664062 12.765625 C 3.664062 11.808594 4.539062 11.039062 5.621094 11.039062 Z M 5.621094 11.039062 "/>
</g>
</svg>
