<?xml version="1.0" encoding="UTF-8"?>
<svg xmlns="http://www.w3.org/2000/svg" xmlns:xlink="http://www.w3.org/1999/xlink" width="16px" height="16px" viewBox="0 0 16 16" version="1.1">
<g id="surface1">
<path style="fill-rule:nonzero;fill:rgb(0%,53.725493%,48.235294%);fill-opacity:1;stroke-width:0.264583;stroke-linecap:round;stroke-linejoin:round;stroke:rgb(96.078432%,96.078432%,96.078432%);stroke-opacity:1;stroke-miterlimit:4;" d="M 80.125 -112 C 58.625 -88 42.625 -60 32.75 -30.125 L 84.625 21.875 L 84.625 64.125 L 32.875 116 C 37.75 130.875 44.25 145.375 52.375 159.375 C 60.5 173.5 69.875 186.375 80.125 198 L 151 179.125 L 187.625 200.25 L 206.625 271.125 C 237.5 277.625 269.75 277.75 301.375 271.125 L 320.375 200.25 L 357 179.125 L 427.875 198 C 449.375 174 465.375 146 475.25 116.125 L 423.375 64.125 L 423.375 21.875 L 475.125 -30 C 470.25 -44.875 463.75 -59.375 455.625 -73.375 C 447.5 -87.5 438.125 -100.375 427.875 -112 L 357 -93.125 L 320.375 -114.25 L 301.375 -185.125 C 270.5 -191.625 238.25 -191.75 206.625 -185.125 L 187.625 -114.25 L 151 -93.125 Z M 80.125 -112 " transform="matrix(0.03125,0,0,0.03125,0,6.71875)"/>
<path style=" stroke:none;fill-rule:nonzero;fill:rgb(74.117649%,74.117649%,74.117649%);fill-opacity:1;" d="M 7.9375 2.769531 C 10.859375 2.769531 13.230469 5.140625 13.230469 8.0625 C 13.230469 10.984375 10.859375 13.355469 7.9375 13.355469 C 5.015625 13.355469 2.644531 10.984375 2.644531 8.0625 C 2.644531 5.140625 5.015625 2.769531 7.9375 2.769531 Z M 7.9375 2.769531 "/>
<path style=" stroke:none;fill-rule:nonzero;fill:rgb(0%,53.725493%,48.235294%);fill-opacity:1;" d="M 7.9375 4.09375 C 10.128906 4.09375 11.90625 5.871094 11.90625 8.0625 C 11.90625 10.253906 10.128906 12.03125 7.9375 12.03125 C 5.746094 12.03125 3.96875 10.253906 3.96875 8.0625 C 3.96875 5.871094 5.746094 4.09375 7.9375 4.09375 Z M 7.9375 4.09375 "/>
<path style=" stroke:none;fill-rule:nonzero;fill:rgb(74.117649%,74.117649%,74.117649%);fill-opacity:1;" d="M 7.9375 5.417969 C 9.398438 5.417969 10.582031 6.601562 10.582031 8.0625 C 10.582031 9.523438 9.398438 10.707031 7.9375 10.707031 C 6.476562 10.707031 5.292969 9.523438 5.292969 8.0625 C 5.292969 6.601562 6.476562 5.417969 7.9375 5.417969 Z M 7.9375 5.417969 "/>
<path style=" stroke:none;fill-rule:nonzero;fill:rgb(25.882354%,25.882354%,25.882354%);fill-opacity:1;" d="M 10.476562 6.929688 L 9.070312 5.523438 L 10.007812 4.589844 L 11.410156 5.992188 Z M 10.476562 6.929688 "/>
<path style=" stroke:none;fill-rule:nonzero;fill:rgb(38.039216%,38.039216%,38.039216%);fill-opacity:1;" d="M 11.058594 6.34375 C 11.125 6.410156 11.226562 6.410156 11.292969 6.34375 L 15.035156 2.601562 C 15.292969 2.34375 15.292969 1.925781 15.035156 1.667969 L 14.332031 0.964844 C 14.074219 0.707031 13.65625 0.707031 13.398438 0.964844 L 9.65625 4.707031 C 9.589844 4.773438 9.589844 4.875 9.65625 4.941406 Z M 11.058594 6.34375 "/>
<path style=" stroke:none;fill-rule:nonzero;fill:rgb(38.039216%,38.039216%,38.039216%);fill-opacity:1;" d="M 7.785156 8.214844 C 7.871094 8.300781 8.003906 8.335938 8.125 8.292969 C 8.847656 8.054688 10.046875 7.589844 10.824219 6.8125 L 9.1875 5.175781 C 8.410156 5.953125 7.945312 7.152344 7.707031 7.875 C 7.667969 7.996094 7.695312 8.125 7.785156 8.214844 Z M 7.785156 8.214844 "/>
</g>
</svg>
