<?xml version="1.0" encoding="UTF-8"?>
<svg xmlns="http://www.w3.org/2000/svg" xmlns:xlink="http://www.w3.org/1999/xlink" width="16" height="16" viewBox="0 0 16 16" version="1.1">
<g id="surface1">
<path style=" stroke:none;fill-rule:nonzero;fill:rgb(61.176473%,80.000001%,39.607844%);fill-opacity:1;" d="M 7.9375 0.660156 C 11.957031 0.660156 15.214844 3.917969 15.214844 7.9375 C 15.214844 11.957031 11.957031 15.214844 7.9375 15.214844 C 3.917969 15.214844 0.660156 11.957031 0.660156 7.9375 C 0.660156 3.917969 3.917969 0.660156 7.9375 0.660156 Z M 7.9375 0.660156 "/>
<path style=" stroke:none;fill-rule:nonzero;fill:rgb(93.333334%,93.333334%,93.333334%);fill-opacity:1;" d="M 7.867188 4.285156 C 6.933594 4.292969 6 4.464844 5.136719 4.828125 C 4.515625 5.09375 3.929688 5.464844 3.464844 5.960938 C 3.128906 6.320312 2.863281 6.75 2.730469 7.226562 C 2.589844 7.707031 2.597656 8.230469 2.746094 8.707031 C 2.910156 9.234375 3.234375 9.703125 3.632812 10.082031 C 4.128906 10.550781 4.730469 10.894531 5.363281 11.136719 C 6.242188 11.46875 7.183594 11.609375 8.121094 11.589844 C 8.992188 11.570312 9.863281 11.40625 10.667969 11.074219 C 11.25 10.835938 11.796875 10.507812 12.253906 10.070312 C 12.617188 9.722656 12.921875 9.296875 13.089844 8.820312 C 13.25 8.378906 13.289062 7.898438 13.195312 7.4375 C 13.101562 6.953125 12.867188 6.503906 12.554688 6.128906 C 12.160156 5.652344 11.652344 5.28125 11.105469 5 C 10.332031 4.605469 9.472656 4.386719 8.605469 4.3125 C 8.359375 4.289062 8.113281 4.28125 7.867188 4.285156 Z M 7.9375 5.289062 C 8.40625 5.292969 8.878906 5.351562 9.332031 5.476562 C 9.820312 5.613281 10.296875 5.828125 10.703125 6.148438 C 11.003906 6.386719 11.265625 6.683594 11.429688 7.039062 C 11.566406 7.339844 11.621094 7.683594 11.578125 8.011719 C 11.53125 8.367188 11.371094 8.695312 11.15625 8.964844 C 10.878906 9.3125 10.519531 9.574219 10.136719 9.769531 C 9.597656 10.046875 9.003906 10.195312 8.40625 10.25 C 7.738281 10.304688 7.054688 10.242188 6.410156 10.042969 C 5.925781 9.890625 5.457031 9.660156 5.0625 9.320312 C 4.78125 9.074219 4.535156 8.769531 4.398438 8.40625 C 4.277344 8.085938 4.25 7.726562 4.328125 7.390625 C 4.410156 7.027344 4.605469 6.707031 4.847656 6.445312 C 5.160156 6.109375 5.550781 5.863281 5.957031 5.683594 C 6.554688 5.425781 7.199219 5.304688 7.84375 5.292969 C 7.875 5.292969 7.90625 5.289062 7.9375 5.289062 Z M 7.9375 5.289062 "/>
<path style=" stroke:none;fill-rule:nonzero;fill:rgb(93.333334%,93.333334%,93.333334%);fill-opacity:1;" d="M 7.9375 6.613281 C 8.796875 6.613281 9.496094 7.058594 9.496094 7.605469 C 9.496094 8.15625 8.796875 8.597656 7.9375 8.597656 C 7.078125 8.597656 6.378906 8.15625 6.378906 7.605469 C 6.378906 7.058594 7.078125 6.613281 7.9375 6.613281 Z M 7.9375 6.613281 "/>
</g>
</svg>
