
<svg xmlns="http://www.w3.org/2000/svg" xmlns:xlink="http://www.w3.org/1999/xlink" width="16px" height="16px" viewBox="0 0 16 16" version="1.1">
<g id="surface1">
<path style=" stroke:none;fill-rule:nonzero;fill:rgb(93.333334%,93.333334%,93.333334%);fill-opacity:1;" d="M 14.550781 13.890625 L 7.277344 13.890625 C 6.890625 13.890625 6.558594 13.621094 6.476562 13.242188 L 4.769531 5.277344 C 4.734375 5.117188 4.773438 4.953125 4.875 4.828125 C 4.976562 4.703125 5.128906 4.628906 5.292969 4.628906 L 14.550781 4.628906 C 14.917969 4.628906 15.214844 4.925781 15.214844 5.292969 L 15.214844 13.230469 C 15.214844 13.59375 14.917969 13.890625 14.550781 13.890625 Z M 14.550781 13.890625 "/>
<path style=" stroke:none;fill-rule:nonzero;fill:rgb(45.882353%,45.882353%,45.882353%);fill-opacity:1;" d="M 12.792969 6.710938 C 12.949219 6.757812 13.078125 6.800781 13.175781 6.84375 C 13.273438 6.882812 13.367188 6.933594 13.449219 6.992188 C 13.53125 7.050781 13.585938 7.117188 13.613281 7.1875 C 13.636719 7.238281 13.636719 7.28125 13.621094 7.324219 L 13.585938 7.386719 C 13.53125 7.449219 13.480469 7.480469 13.4375 7.484375 C 13.394531 7.484375 13.359375 7.457031 13.324219 7.398438 L 13.199219 7.210938 C 13.15625 7.136719 13.105469 7.074219 13.046875 7.015625 C 12.988281 6.953125 12.894531 6.878906 12.769531 6.785156 C 12.730469 6.746094 12.738281 6.71875 12.792969 6.710938 Z M 12.230469 7.078125 C 12.382812 7.136719 12.507812 7.195312 12.601562 7.25 C 12.695312 7.304688 12.78125 7.363281 12.855469 7.433594 C 12.929688 7.507812 12.976562 7.582031 12.996094 7.65625 C 13.007812 7.707031 13.003906 7.75 12.984375 7.789062 L 12.941406 7.847656 C 12.878906 7.902344 12.828125 7.925781 12.78125 7.921875 C 12.738281 7.917969 12.707031 7.886719 12.683594 7.832031 C 12.652344 7.769531 12.621094 7.699219 12.582031 7.621094 C 12.542969 7.542969 12.496094 7.46875 12.449219 7.402344 C 12.398438 7.339844 12.316406 7.25 12.199219 7.144531 C 12.179688 7.117188 12.175781 7.09375 12.1875 7.082031 C 12.195312 7.078125 12.210938 7.078125 12.230469 7.078125 Z M 9.691406 6.679688 C 9.949219 6.726562 10.15625 6.804688 10.320312 6.917969 C 10.492188 7.03125 10.578125 7.105469 10.582031 7.136719 C 10.585938 7.164062 10.574219 7.191406 10.550781 7.21875 L 10.5 7.261719 C 10.445312 7.3125 10.390625 7.394531 10.339844 7.515625 C 10.296875 7.636719 10.230469 7.855469 10.148438 8.183594 C 10.382812 8.152344 10.597656 8.109375 10.792969 8.054688 C 10.988281 7.992188 11.125 7.9375 11.191406 7.890625 C 11.261719 7.851562 11.320312 7.804688 11.367188 7.75 C 11.414062 7.691406 11.5 7.671875 11.621094 7.683594 C 11.738281 7.699219 11.847656 7.714844 11.941406 7.730469 C 12.03125 7.753906 12.078125 7.78125 12.078125 7.824219 C 12.078125 7.867188 12.019531 7.90625 11.902344 7.941406 L 11.472656 8.078125 C 11.296875 8.132812 11.101562 8.183594 10.878906 8.238281 C 10.660156 8.289062 10.402344 8.328125 10.105469 8.363281 C 10.039062 8.628906 9.992188 8.859375 9.964844 9.054688 C 9.933594 9.25 9.914062 9.433594 9.902344 9.597656 C 9.890625 9.757812 9.882812 9.863281 9.882812 9.917969 C 9.882812 9.972656 9.902344 9.984375 9.9375 9.957031 C 9.976562 9.925781 10.09375 9.855469 10.296875 9.738281 C 10.496094 9.625 10.710938 9.53125 10.945312 9.460938 C 11.179688 9.394531 11.390625 9.359375 11.570312 9.351562 C 11.75 9.34375 11.9375 9.363281 12.125 9.414062 C 12.320312 9.464844 12.484375 9.542969 12.621094 9.640625 C 12.753906 9.738281 12.84375 9.871094 12.898438 10.035156 C 12.941406 10.160156 12.953125 10.292969 12.941406 10.429688 C 12.9375 10.480469 12.929688 10.53125 12.917969 10.585938 C 12.875 10.789062 12.753906 10.988281 12.546875 11.191406 C 12.339844 11.394531 12.105469 11.542969 11.84375 11.640625 C 11.578125 11.742188 11.300781 11.8125 11.015625 11.859375 C 10.726562 11.898438 10.394531 11.929688 10.027344 11.953125 C 9.988281 11.929688 9.972656 11.90625 9.980469 11.882812 C 9.988281 11.871094 9.996094 11.855469 10.011719 11.839844 C 10.351562 11.816406 10.652344 11.773438 10.914062 11.710938 C 11.179688 11.644531 11.429688 11.554688 11.664062 11.4375 C 11.898438 11.328125 12.082031 11.199219 12.210938 11.054688 C 12.347656 10.914062 12.4375 10.753906 12.484375 10.574219 C 12.523438 10.429688 12.535156 10.300781 12.527344 10.183594 C 12.523438 10.160156 12.519531 10.136719 12.515625 10.109375 C 12.492188 9.976562 12.4375 9.871094 12.359375 9.78125 C 12.28125 9.691406 12.175781 9.617188 12.039062 9.558594 C 11.898438 9.507812 11.75 9.480469 11.589844 9.484375 C 11.429688 9.496094 11.238281 9.53125 11.015625 9.597656 C 10.792969 9.660156 10.601562 9.75 10.445312 9.875 C 10.285156 10 10.175781 10.109375 10.113281 10.203125 C 10.046875 10.296875 10.011719 10.398438 10.007812 10.503906 C 10.003906 10.605469 9.957031 10.648438 9.863281 10.636719 C 9.773438 10.613281 9.699219 10.578125 9.636719 10.523438 C 9.574219 10.46875 9.539062 10.386719 9.53125 10.277344 C 9.523438 10.164062 9.539062 9.988281 9.582031 9.746094 C 9.617188 9.5 9.683594 9.050781 9.777344 8.398438 C 9.472656 8.421875 9.261719 8.433594 9.148438 8.429688 L 9.109375 8.429688 C 9.003906 8.421875 8.898438 8.355469 8.796875 8.226562 C 8.691406 8.09375 8.632812 7.976562 8.617188 7.875 C 8.632812 7.832031 8.652344 7.816406 8.671875 7.824219 C 8.679688 7.828125 8.691406 7.835938 8.703125 7.847656 C 8.738281 7.914062 8.777344 7.96875 8.828125 8.007812 C 8.875 8.050781 8.964844 8.097656 9.085938 8.152344 C 9.195312 8.203125 9.398438 8.222656 9.699219 8.214844 C 9.730469 8.210938 9.765625 8.207031 9.804688 8.207031 C 9.863281 7.804688 9.902344 7.550781 9.914062 7.449219 C 9.929688 7.339844 9.933594 7.222656 9.921875 7.089844 C 9.910156 6.953125 9.824219 6.847656 9.671875 6.773438 C 9.644531 6.753906 9.652344 6.722656 9.691406 6.679688 Z M 9.691406 6.679688 "/>
<path style=" stroke:none;fill-rule:nonzero;fill:rgb(55.686277%,14.117648%,66.666669%);fill-opacity:1;" d="M 5.941406 10.75 L 6.476562 13.242188 C 6.558594 13.621094 6.890625 13.890625 7.277344 13.890625 C 6.863281 11.839844 11.40625 12.320312 11.078125 10.75 Z M 5.941406 10.75 "/>
<path style=" stroke:none;fill-rule:nonzero;fill:rgb(67.058825%,27.843139%,73.725492%);fill-opacity:1;" d="M 1.324219 1.984375 L 8.597656 1.984375 C 8.984375 1.984375 9.316406 2.253906 9.398438 2.632812 L 11.105469 10.597656 C 11.140625 10.757812 11.101562 10.921875 11 11.046875 C 10.898438 11.171875 10.746094 11.246094 10.582031 11.246094 L 1.324219 11.246094 C 0.957031 11.246094 0.660156 10.949219 0.660156 10.582031 L 0.660156 2.644531 C 0.660156 2.28125 0.957031 1.984375 1.324219 1.984375 Z M 1.324219 1.984375 "/>
<path style=" stroke:none;fill-rule:nonzero;fill:rgb(88.235295%,74.509805%,90.588236%);fill-opacity:1;" d="M 2.976562 3.96875 L 2.976562 9.261719 L 5.621094 9.261719 C 6.722656 9.261719 7.605469 8.375 7.605469 7.277344 L 7.605469 5.953125 C 7.605469 4.855469 6.722656 3.96875 5.621094 3.96875 Z M 4.300781 5.292969 L 5.292969 5.292969 C 5.839844 5.292969 6.285156 5.734375 6.285156 6.285156 L 6.285156 6.945312 C 6.285156 7.496094 5.839844 7.9375 5.292969 7.9375 L 4.300781 7.9375 Z M 4.300781 5.292969 "/>
<path style=" stroke:none;fill-rule:nonzero;fill:rgb(67.058825%,27.843139%,73.725492%);fill-opacity:1;" d="M 11.117188 10.691406 L 10.675781 10.75 C 10.558594 10.878906 9.757812 11.042969 9.589844 11.246094 C 10.066406 11.246094 10.238281 11.625 9.589844 11.988281 C 10.582031 11.742188 11.246094 11.328125 11.117188 10.691406 Z M 11.117188 10.691406 "/>
</g>
</svg>
