<?xml version="1.0" encoding="UTF-8"?>
<svg xmlns="http://www.w3.org/2000/svg" xmlns:xlink="http://www.w3.org/1999/xlink" width="16px" height="16px" viewBox="0 0 16 16" version="1.1">
<g id="surface1">
<path style=" stroke:none;fill-rule:nonzero;fill:rgb(25.882354%,25.882354%,25.882354%);fill-opacity:1;" d="M 1.324219 0.785156 L 14.550781 0.785156 C 14.917969 0.785156 15.214844 1.082031 15.214844 1.449219 L 15.214844 14.675781 C 15.214844 15.042969 14.917969 15.339844 14.550781 15.339844 L 1.324219 15.339844 C 0.957031 15.339844 0.660156 15.042969 0.660156 14.675781 L 0.660156 1.449219 C 0.660156 1.082031 0.957031 0.785156 1.324219 0.785156 Z M 1.324219 0.785156 "/>
<path style=" stroke:none;fill-rule:nonzero;fill:rgb(11.764706%,53.333336%,89.803922%);fill-opacity:1;" d="M 12.378906 3.160156 L 6.058594 7.582031 L 3.59375 3.269531 L 3.019531 3.597656 L 5.847656 8.542969 L 5.953125 8.464844 L 12.378906 12.964844 L 12.757812 12.421875 L 6.53125 8.0625 L 12.757812 3.703125 Z M 12.378906 3.160156 "/>
<path style=" stroke:none;fill-rule:nonzero;fill:rgb(25.882354%,64.705884%,96.078432%);fill-opacity:1;" d="M 3.308594 2.109375 C 4.039062 2.109375 4.628906 2.703125 4.628906 3.433594 C 4.628906 4.164062 4.039062 4.753906 3.308594 4.753906 C 2.578125 4.753906 1.984375 4.164062 1.984375 3.433594 C 1.984375 2.703125 2.578125 2.109375 3.308594 2.109375 Z M 3.308594 2.109375 "/>
<path style=" stroke:none;fill-rule:nonzero;fill:rgb(25.882354%,64.705884%,96.078432%);fill-opacity:1;" d="M 12.566406 2.109375 C 13.296875 2.109375 13.890625 2.703125 13.890625 3.433594 C 13.890625 4.164062 13.296875 4.753906 12.566406 4.753906 C 11.835938 4.753906 11.246094 4.164062 11.246094 3.433594 C 11.246094 2.703125 11.835938 2.109375 12.566406 2.109375 Z M 12.566406 2.109375 "/>
<path style=" stroke:none;fill-rule:nonzero;fill:rgb(25.882354%,64.705884%,96.078432%);fill-opacity:1;" d="M 12.566406 11.371094 C 13.296875 11.371094 13.890625 11.960938 13.890625 12.691406 C 13.890625 13.421875 13.296875 14.015625 12.566406 14.015625 C 11.835938 14.015625 11.246094 13.421875 11.246094 12.691406 C 11.246094 11.960938 11.835938 11.371094 12.566406 11.371094 Z M 12.566406 11.371094 "/>
<path style=" stroke:none;fill-rule:nonzero;fill:rgb(25.882354%,64.705884%,96.078432%);fill-opacity:1;" d="M 5.953125 6.738281 C 6.683594 6.738281 7.277344 7.332031 7.277344 8.0625 C 7.277344 8.792969 6.683594 9.386719 5.953125 9.386719 C 5.222656 9.386719 4.628906 8.792969 4.628906 8.0625 C 4.628906 7.332031 5.222656 6.738281 5.953125 6.738281 Z M 5.953125 6.738281 "/>
</g>
</svg>
