<?xml version="1.0" encoding="UTF-8"?>
<svg xmlns="http://www.w3.org/2000/svg" xmlns:xlink="http://www.w3.org/1999/xlink" width="16px" height="16px" viewBox="0 0 16 16" version="1.1">
<g id="surface1">
<path style=" stroke:none;fill-rule:nonzero;fill:rgb(14.901961%,65.098041%,60.392159%);fill-opacity:1;" d="M 1.324219 0.785156 L 14.550781 0.785156 C 14.917969 0.785156 15.214844 1.082031 15.214844 1.449219 L 15.214844 14.675781 C 15.214844 15.042969 14.917969 15.339844 14.550781 15.339844 L 1.324219 15.339844 C 0.957031 15.339844 0.660156 15.042969 0.660156 14.675781 L 0.660156 1.449219 C 0.660156 1.082031 0.957031 0.785156 1.324219 0.785156 Z M 1.324219 0.785156 "/>
<path style=" stroke:none;fill-rule:nonzero;fill:rgb(93.333334%,93.333334%,93.333334%);fill-opacity:1;" d="M 3.636719 9.386719 C 3.453125 9.386719 3.308594 9.53125 3.308594 9.714844 L 3.308594 13.023438 C 3.308594 13.207031 3.453125 13.355469 3.636719 13.355469 L 12.238281 13.355469 C 12.421875 13.355469 12.566406 13.207031 12.566406 13.023438 L 12.566406 9.714844 C 12.566406 9.53125 12.421875 9.386719 12.238281 9.386719 Z M 4.464844 10.707031 C 4.738281 10.707031 4.960938 10.929688 4.960938 11.203125 C 4.960938 11.480469 4.738281 11.699219 4.464844 11.699219 C 4.191406 11.699219 3.96875 11.480469 3.96875 11.203125 C 3.96875 10.929688 4.191406 10.707031 4.464844 10.707031 Z M 6.117188 10.707031 C 6.394531 10.707031 6.613281 10.929688 6.613281 11.203125 C 6.613281 11.480469 6.394531 11.699219 6.117188 11.699219 C 5.84375 11.699219 5.621094 11.480469 5.621094 11.203125 C 5.621094 10.929688 5.84375 10.707031 6.117188 10.707031 Z M 7.9375 10.707031 C 8.210938 10.707031 8.433594 10.929688 8.433594 11.203125 C 8.433594 11.480469 8.210938 11.699219 7.9375 11.699219 C 7.664062 11.699219 7.441406 11.480469 7.441406 11.203125 C 7.441406 10.929688 7.664062 10.707031 7.9375 10.707031 Z M 7.9375 10.707031 "/>
<path style=" stroke:none;fill-rule:nonzero;fill:rgb(93.333334%,93.333334%,93.333334%);fill-opacity:1;" d="M 7.605469 5.085938 L 8.269531 5.085938 L 8.269531 10.707031 L 7.605469 10.707031 Z M 7.605469 5.085938 "/>
<path style=" stroke:none;fill-rule:nonzero;fill:rgb(93.333334%,93.333334%,93.333334%);fill-opacity:1;" d="M 11.246094 6.738281 L 11.90625 6.738281 L 11.90625 10.707031 L 11.246094 10.707031 Z M 11.246094 6.738281 "/>
<path style=" stroke:none;fill-rule:nonzero;fill:rgb(93.333334%,93.333334%,93.333334%);fill-opacity:1;" d="M 3.96875 6.410156 L 4.628906 6.410156 L 4.628906 10.707031 L 3.96875 10.707031 Z M 3.96875 6.410156 "/>
<path style=" stroke:none;fill-rule:nonzero;fill:rgb(93.333334%,93.333334%,93.333334%);fill-opacity:1;" d="M 7.9375 2.769531 C 7.203125 2.769531 6.613281 3.359375 6.613281 4.09375 C 6.613281 4.828125 7.203125 5.417969 7.9375 5.417969 C 8.671875 5.417969 9.261719 4.828125 9.261719 4.09375 C 9.261719 3.359375 8.671875 2.769531 7.9375 2.769531 Z M 7.9375 3.433594 C 8.304688 3.433594 8.597656 3.726562 8.597656 4.09375 C 8.597656 4.460938 8.304688 4.753906 7.9375 4.753906 C 7.570312 4.753906 7.277344 4.460938 7.277344 4.09375 C 7.277344 3.726562 7.570312 3.433594 7.9375 3.433594 Z M 7.9375 3.433594 "/>
<path style=" stroke:none;fill-rule:nonzero;fill:rgb(93.333334%,93.333334%,93.333334%);fill-opacity:1;" d="M 4.300781 5.085938 C 3.75 5.085938 3.308594 5.527344 3.308594 6.078125 C 3.308594 6.628906 3.75 7.070312 4.300781 7.070312 C 4.847656 7.070312 5.292969 6.628906 5.292969 6.078125 C 5.292969 5.527344 4.847656 5.085938 4.300781 5.085938 Z M 4.300781 5.746094 C 4.484375 5.746094 4.628906 5.894531 4.628906 6.078125 C 4.628906 6.261719 4.484375 6.410156 4.300781 6.410156 C 4.117188 6.410156 3.96875 6.261719 3.96875 6.078125 C 3.96875 5.894531 4.117188 5.746094 4.300781 5.746094 Z M 4.300781 5.746094 "/>
<path style=" stroke:none;fill-rule:nonzero;fill:rgb(93.333334%,93.333334%,93.333334%);fill-opacity:1;" d="M 11.574219 5.085938 C 11.027344 5.085938 10.582031 5.527344 10.582031 6.078125 C 10.582031 6.628906 11.027344 7.070312 11.574219 7.070312 C 12.125 7.070312 12.566406 6.628906 12.566406 6.078125 C 12.566406 5.527344 12.125 5.085938 11.574219 5.085938 Z M 11.574219 5.746094 C 11.757812 5.746094 11.90625 5.894531 11.90625 6.078125 C 11.90625 6.261719 11.757812 6.410156 11.574219 6.410156 C 11.390625 6.410156 11.246094 6.261719 11.246094 6.078125 C 11.246094 5.894531 11.390625 5.746094 11.574219 5.746094 Z M 11.574219 5.746094 "/>
</g>
</svg>
