<?xml version="1.0" encoding="UTF-8"?>
<svg xmlns="http://www.w3.org/2000/svg" xmlns:xlink="http://www.w3.org/1999/xlink" width="16px" height="16px" viewBox="0 0 16 16" version="1.1">
<g id="surface1">
<path style=" stroke:none;fill-rule:nonzero;fill:rgb(63.137257%,53.333336%,49.803922%);fill-opacity:1;" d="M 5.246094 9.773438 C 5.246094 9.964844 5.332031 10.316406 5.339844 10.5 C 5.394531 11.535156 5.074219 12.8125 5.535156 13.773438 C 5.605469 13.917969 5.824219 14.015625 5.824219 13.867188 C 5.632812 12.871094 5.84375 11.734375 5.894531 10.636719 C 5.898438 10.527344 5.980469 10.445312 6.085938 10.445312 C 6.191406 10.445312 6.289062 10.53125 6.277344 10.636719 C 6.15625 11.90625 5.917969 13.097656 6.398438 14.347656 C 6.589844 14.828125 6.976562 15.023438 6.976562 14.792969 C 6.558594 13.632812 6.476562 12.386719 6.824219 10.992188 C 6.851562 10.890625 6.910156 10.800781 7.015625 10.800781 C 7.125 10.800781 7.234375 10.890625 7.210938 10.992188 C 6.9375 12.136719 7.121094 13.359375 7.363281 14.734375 C 7.363281 15.242188 7.746094 15.503906 7.746094 15.214844 C 7.660156 13.890625 7.359375 12.507812 7.746094 11.3125 C 7.777344 11.210938 7.832031 11.121094 7.9375 11.121094 C 8.046875 11.121094 8.097656 11.210938 8.128906 11.3125 C 8.515625 12.507812 8.21875 13.890625 8.128906 15.214844 C 8.128906 15.503906 8.511719 15.242188 8.515625 14.734375 C 8.757812 13.359375 8.9375 12.136719 8.667969 10.992188 C 8.640625 10.890625 8.75 10.800781 8.859375 10.800781 C 8.964844 10.800781 9.027344 10.890625 9.050781 10.992188 C 9.402344 12.386719 9.316406 13.632812 8.902344 14.792969 C 8.902344 15.023438 9.285156 14.828125 9.476562 14.347656 C 9.957031 13.097656 9.722656 11.90625 9.597656 10.636719 C 9.589844 10.53125 9.683594 10.445312 9.792969 10.445312 C 9.898438 10.445312 9.980469 10.527344 9.984375 10.636719 C 10.03125 11.734375 10.242188 12.871094 10.054688 13.867188 C 10.054688 14.015625 10.269531 13.917969 10.34375 13.773438 C 10.804688 12.8125 10.480469 11.535156 10.535156 10.5 C 10.542969 10.316406 10.632812 9.964844 10.632812 9.773438 Z M 5.246094 9.773438 "/>
<path style=" stroke:none;fill-rule:nonzero;fill:rgb(96.078432%,48.627451%,0%);fill-opacity:1;" d="M 7.9375 0.785156 C 8.789062 0.785156 9.476562 1.820312 9.476562 3.09375 C 9.476562 4.367188 8.789062 5.402344 7.9375 5.402344 C 7.089844 5.402344 6.398438 4.367188 6.398438 3.09375 C 6.398438 1.820312 7.089844 0.785156 7.9375 0.785156 Z M 7.9375 0.785156 "/>
<path style=" stroke:none;fill-rule:nonzero;fill:rgb(100%,65.490198%,14.901961%);fill-opacity:1;" d="M 7.9375 2.109375 C 6.285156 2.109375 4.300781 5.417969 4.300781 7.730469 C 4.300781 8.105469 4.355469 8.464844 4.457031 8.800781 C 3.789062 9.011719 3.308594 9.636719 3.308594 10.378906 C 3.308594 11.292969 4.042969 12.03125 4.960938 12.03125 C 5.632812 12.03125 6.207031 11.636719 6.46875 11.0625 C 6.917969 11.261719 7.414062 11.371094 7.9375 11.371094 C 8.460938 11.371094 8.957031 11.261719 9.40625 11.0625 C 9.667969 11.636719 10.242188 12.03125 10.914062 12.03125 C 11.832031 12.03125 12.566406 11.292969 12.566406 10.378906 C 12.566406 9.636719 12.085938 9.011719 11.417969 8.800781 C 11.519531 8.464844 11.574219 8.105469 11.574219 7.730469 C 11.574219 5.417969 9.589844 2.109375 7.9375 2.109375 Z M 7.9375 2.109375 "/>
<path style=" stroke:none;fill-rule:nonzero;fill:rgb(16.078432%,71.372551%,96.470588%);fill-opacity:1;" d="M 4.878906 9.386719 C 5.472656 9.386719 5.953125 9.867188 5.953125 10.460938 C 5.953125 11.054688 5.472656 11.535156 4.878906 11.535156 C 4.285156 11.535156 3.804688 11.054688 3.804688 10.460938 C 3.804688 9.867188 4.285156 9.386719 4.878906 9.386719 Z M 4.878906 9.386719 "/>
<path style=" stroke:none;fill-rule:nonzero;fill:rgb(16.078432%,71.372551%,96.470588%);fill-opacity:1;" d="M 10.996094 9.386719 C 11.589844 9.386719 12.070312 9.867188 12.070312 10.460938 C 12.070312 11.054688 11.589844 11.535156 10.996094 11.535156 C 10.402344 11.535156 9.921875 11.054688 9.921875 10.460938 C 9.921875 9.867188 10.402344 9.386719 10.996094 9.386719 Z M 10.996094 9.386719 "/>
<path style=" stroke:none;fill-rule:nonzero;fill:rgb(12.941177%,12.941177%,12.941177%);fill-opacity:1;" d="M 4.878906 9.964844 C 5.0625 9.964844 5.207031 10.261719 5.207031 10.625 C 5.207031 10.992188 5.0625 11.285156 4.878906 11.285156 C 4.695312 11.285156 4.546875 10.992188 4.546875 10.625 C 4.546875 10.261719 4.695312 9.964844 4.878906 9.964844 Z M 4.878906 9.964844 "/>
<path style=" stroke:none;fill-rule:nonzero;fill:rgb(12.941177%,12.941177%,12.941177%);fill-opacity:1;" d="M 10.996094 9.964844 C 11.179688 9.964844 11.328125 10.261719 11.328125 10.625 C 11.328125 10.992188 11.179688 11.285156 10.996094 11.285156 C 10.8125 11.285156 10.664062 10.992188 10.664062 10.625 C 10.664062 10.261719 10.8125 9.964844 10.996094 9.964844 Z M 10.996094 9.964844 "/>
<path style=" stroke:none;fill-rule:nonzero;fill:rgb(100%,80.000001%,50.196081%);fill-opacity:1;" d="M 4.878906 9.386719 C 4.28125 9.386719 3.804688 9.863281 3.804688 10.460938 C 3.804688 10.550781 3.8125 10.636719 3.835938 10.71875 C 4.078125 10.410156 4.453125 10.210938 4.878906 10.210938 C 5.304688 10.210938 5.679688 10.410156 5.921875 10.71875 C 5.941406 10.636719 5.953125 10.550781 5.953125 10.460938 C 5.953125 9.863281 5.472656 9.386719 4.878906 9.386719 Z M 4.878906 9.386719 "/>
<path style=" stroke:none;fill-rule:nonzero;fill:rgb(100%,80.000001%,50.196081%);fill-opacity:1;" d="M 10.996094 9.386719 C 10.402344 9.386719 9.921875 9.863281 9.921875 10.460938 C 9.921875 10.550781 9.933594 10.636719 9.953125 10.71875 C 10.195312 10.410156 10.570312 10.210938 10.996094 10.210938 C 11.421875 10.210938 11.796875 10.410156 12.039062 10.71875 C 12.0625 10.636719 12.070312 10.550781 12.070312 10.460938 C 12.070312 9.863281 11.59375 9.386719 10.996094 9.386719 Z M 10.996094 9.386719 "/>
<path style=" stroke:none;fill-rule:nonzero;fill:rgb(67.058825%,27.843139%,73.725492%);fill-opacity:1;" d="M 7.941406 2.769531 C 8.167969 2.769531 8.351562 3.066406 8.351562 3.433594 C 8.351562 3.796875 8.167969 4.09375 7.941406 4.09375 C 7.714844 4.09375 7.535156 3.796875 7.535156 3.433594 C 7.535156 3.066406 7.714844 2.769531 7.941406 2.769531 Z M 7.941406 2.769531 "/>
<path style=" stroke:none;fill-rule:nonzero;fill:rgb(67.058825%,27.843139%,73.725492%);fill-opacity:1;" d="M 7.941406 4.753906 C 8.167969 4.753906 8.351562 5.050781 8.351562 5.417969 C 8.351562 5.78125 8.167969 6.078125 7.941406 6.078125 C 7.714844 6.078125 7.535156 5.78125 7.535156 5.417969 C 7.535156 5.050781 7.714844 4.753906 7.941406 4.753906 Z M 7.941406 4.753906 "/>
<path style=" stroke:none;fill-rule:nonzero;fill:rgb(67.058825%,27.843139%,73.725492%);fill-opacity:1;" d="M 9.183594 3.761719 C 9.40625 3.761719 9.589844 4.058594 9.589844 4.425781 C 9.589844 4.789062 9.40625 5.085938 9.183594 5.085938 C 8.957031 5.085938 8.773438 4.789062 8.773438 4.425781 C 8.773438 4.058594 8.957031 3.761719 9.183594 3.761719 Z M 9.183594 3.761719 "/>
<path style=" stroke:none;fill-rule:nonzero;fill:rgb(67.058825%,27.843139%,73.725492%);fill-opacity:1;" d="M 6.703125 3.761719 C 6.925781 3.761719 7.109375 4.058594 7.109375 4.425781 C 7.109375 4.789062 6.925781 5.085938 6.703125 5.085938 C 6.476562 5.085938 6.292969 4.789062 6.292969 4.425781 C 6.292969 4.058594 6.476562 3.761719 6.703125 3.761719 Z M 6.703125 3.761719 "/>
</g>
</svg>
