<?xml version="1.0" encoding="UTF-8"?>
<svg xmlns="http://www.w3.org/2000/svg" xmlns:xlink="http://www.w3.org/1999/xlink" width="16px" height="16px" viewBox="0 0 16 16" version="1.1">
<g id="surface1">
<path style="fill-rule:nonzero;fill:rgb(32.941177%,43.137255%,47.843137%);fill-opacity:1;stroke-width:0.264583;stroke-linecap:round;stroke-linejoin:round;stroke:rgb(96.078432%,96.078432%,96.078432%);stroke-opacity:1;stroke-miterlimit:4;" d="M 80.125 -112 C 58.625 -88 42.625 -60 32.75 -30.125 L 84.625 21.875 L 84.625 64.125 L 32.875 116 C 37.75 130.875 44.25 145.375 52.375 159.375 C 60.5 173.5 69.875 186.375 80.125 198 L 151 179.125 L 187.625 200.25 L 206.625 271.125 C 237.5 277.625 269.75 277.75 301.375 271.125 L 320.375 200.25 L 357 179.125 L 427.875 198 C 449.375 174 465.375 146 475.25 116.125 L 423.375 64.125 L 423.375 21.875 L 475.125 -30 C 470.25 -44.875 463.75 -59.375 455.625 -73.375 C 447.5 -87.5 438.125 -100.375 427.875 -112 L 357 -93.125 L 320.375 -114.25 L 301.375 -185.125 C 270.5 -191.625 238.25 -191.75 206.625 -185.125 L 187.625 -114.25 L 151 -93.125 Z M 80.125 -112 " transform="matrix(0.03125,0,0,0.03125,0,6.71875)"/>
<path style=" stroke:none;fill-rule:nonzero;fill:rgb(47.058824%,56.470591%,61.176473%);fill-opacity:1;" d="M 7.9375 2.769531 C 10.859375 2.769531 13.230469 5.140625 13.230469 8.0625 C 13.230469 10.984375 10.859375 13.355469 7.9375 13.355469 C 5.015625 13.355469 2.644531 10.984375 2.644531 8.0625 C 2.644531 5.140625 5.015625 2.769531 7.9375 2.769531 Z M 7.9375 2.769531 "/>
<path style=" stroke:none;fill-rule:nonzero;fill:rgb(32.941177%,43.137255%,47.843137%);fill-opacity:1;" d="M 5.621094 4.425781 C 5.804688 4.425781 5.953125 4.574219 5.953125 4.753906 L 5.953125 11.371094 C 5.953125 11.550781 5.804688 11.699219 5.621094 11.699219 C 5.441406 11.699219 5.292969 11.550781 5.292969 11.371094 L 5.292969 4.753906 C 5.292969 4.574219 5.441406 4.425781 5.621094 4.425781 Z M 5.621094 4.425781 "/>
<path style=" stroke:none;fill-rule:nonzero;fill:rgb(25.882354%,25.882354%,25.882354%);fill-opacity:1;" d="M 5.621094 8.0625 C 5.804688 8.0625 5.953125 8.210938 5.953125 8.394531 L 5.953125 11.371094 C 5.953125 11.550781 5.804688 11.699219 5.621094 11.699219 C 5.441406 11.699219 5.292969 11.550781 5.292969 11.371094 L 5.292969 8.394531 C 5.292969 8.210938 5.441406 8.0625 5.621094 8.0625 Z M 5.621094 8.0625 "/>
<path style=" stroke:none;fill-rule:nonzero;fill:rgb(87.843138%,87.843138%,87.843138%);fill-opacity:1;" d="M 5.621094 7.070312 C 6.171875 7.070312 6.613281 7.515625 6.613281 8.0625 C 6.613281 8.609375 6.171875 9.054688 5.621094 9.054688 C 5.074219 9.054688 4.628906 8.609375 4.628906 8.0625 C 4.628906 7.515625 5.074219 7.070312 5.621094 7.070312 Z M 5.621094 7.070312 "/>
<path style=" stroke:none;fill-rule:nonzero;fill:rgb(32.941177%,43.137255%,47.843137%);fill-opacity:1;" d="M 7.9375 4.425781 C 8.121094 4.425781 8.269531 4.574219 8.269531 4.753906 L 8.269531 11.371094 C 8.269531 11.550781 8.121094 11.699219 7.9375 11.699219 C 7.753906 11.699219 7.605469 11.550781 7.605469 11.371094 L 7.605469 4.753906 C 7.605469 4.574219 7.753906 4.425781 7.9375 4.425781 Z M 7.9375 4.425781 "/>
<path style=" stroke:none;fill-rule:nonzero;fill:rgb(32.941177%,43.137255%,47.843137%);fill-opacity:1;" d="M 10.253906 4.425781 C 10.433594 4.425781 10.582031 4.574219 10.582031 4.753906 L 10.582031 11.371094 C 10.582031 11.550781 10.433594 11.699219 10.253906 11.699219 C 10.070312 11.699219 9.921875 11.550781 9.921875 11.371094 L 9.921875 4.753906 C 9.921875 4.574219 10.070312 4.425781 10.253906 4.425781 Z M 10.253906 4.425781 "/>
<path style=" stroke:none;fill-rule:nonzero;fill:rgb(25.882354%,25.882354%,25.882354%);fill-opacity:1;" d="M 10.253906 6.078125 C 10.433594 6.078125 10.582031 6.226562 10.582031 6.410156 L 10.582031 11.371094 C 10.582031 11.550781 10.433594 11.699219 10.253906 11.699219 C 10.070312 11.699219 9.921875 11.550781 9.921875 11.371094 L 9.921875 6.410156 C 9.921875 6.226562 10.070312 6.078125 10.253906 6.078125 Z M 10.253906 6.078125 "/>
<path style=" stroke:none;fill-rule:nonzero;fill:rgb(87.843138%,87.843138%,87.843138%);fill-opacity:1;" d="M 10.253906 5.085938 C 10.800781 5.085938 11.246094 5.53125 11.246094 6.078125 C 11.246094 6.625 10.800781 7.070312 10.253906 7.070312 C 9.703125 7.070312 9.261719 6.625 9.261719 6.078125 C 9.261719 5.53125 9.703125 5.085938 10.253906 5.085938 Z M 10.253906 5.085938 "/>
<path style=" stroke:none;fill-rule:nonzero;fill:rgb(25.882354%,25.882354%,25.882354%);fill-opacity:1;" d="M 7.9375 9.386719 C 8.121094 9.386719 8.269531 9.535156 8.269531 9.714844 L 8.269531 11.371094 C 8.269531 11.550781 8.121094 11.699219 7.9375 11.699219 C 7.753906 11.699219 7.605469 11.550781 7.605469 11.371094 L 7.605469 9.714844 C 7.605469 9.535156 7.753906 9.386719 7.9375 9.386719 Z M 7.9375 9.386719 "/>
<path style=" stroke:none;fill-rule:nonzero;fill:rgb(87.843138%,87.843138%,87.843138%);fill-opacity:1;" d="M 7.9375 9.054688 C 8.484375 9.054688 8.929688 9.5 8.929688 10.046875 C 8.929688 10.59375 8.484375 11.039062 7.9375 11.039062 C 7.390625 11.039062 6.945312 10.59375 6.945312 10.046875 C 6.945312 9.5 7.390625 9.054688 7.9375 9.054688 Z M 7.9375 9.054688 "/>
</g>
</svg>
