
<svg xmlns="http://www.w3.org/2000/svg" xmlns:xlink="http://www.w3.org/1999/xlink" width="16px" height="16px" viewBox="0 0 16 16" version="1.1">
<g id="surface1">
<path style=" stroke:none;fill-rule:nonzero;fill:rgb(36.078432%,41.960785%,75.294119%);fill-opacity:1;" d="M 4.105469 1.777344 C 3.644531 2.0625 3.210938 2.40625 2.808594 2.808594 C 2.285156 3.332031 1.859375 3.910156 1.53125 4.527344 L 5.015625 6.386719 C 5.167969 6.105469 5.363281 5.839844 5.601562 5.601562 C 5.785156 5.417969 5.984375 5.261719 6.195312 5.128906 Z M 4.105469 1.777344 "/>
<path style=" stroke:none;fill-rule:nonzero;fill:rgb(25.882354%,64.705884%,96.078432%);fill-opacity:1;" d="M 5.019531 6.382812 L 1.515625 4.515625 C 0.902344 5.65625 0.617188 6.925781 0.660156 8.183594 L 4.632812 8.050781 C 4.613281 7.480469 4.742188 6.902344 5.019531 6.382812 Z M 5.019531 6.382812 "/>
<path style=" stroke:none;fill-rule:nonzero;fill:rgb(93.725491%,32.549021%,31.37255%);fill-opacity:1;" d="M 14.019531 1.859375 L 13.085938 2.796875 C 12.5625 2.273438 11.984375 1.847656 11.367188 1.515625 L 9.496094 5.019531 C 9.777344 5.171875 10.042969 5.363281 10.277344 5.601562 L 9.34375 6.535156 L 14.253906 6.769531 Z M 14.019531 1.859375 "/>
<path style=" stroke:none;fill-rule:nonzero;fill:rgb(40.000001%,73.333335%,41.568628%);fill-opacity:1;" d="M 6.382812 10.859375 C 6.101562 10.710938 5.839844 10.515625 5.601562 10.277344 C 5.417969 10.097656 5.261719 9.898438 5.132812 9.691406 L 1.761719 11.789062 C 2.050781 12.25 2.394531 12.683594 2.796875 13.085938 C 3.316406 13.605469 3.898438 14.03125 4.515625 14.363281 Z M 6.382812 10.859375 "/>
<path style=" stroke:none;fill-rule:nonzero;fill:rgb(100%,79.215688%,15.686275%);fill-opacity:1;" d="M 14.363281 11.367188 L 10.859375 9.496094 C 10.710938 9.777344 10.515625 10.042969 10.277344 10.277344 C 10.097656 10.460938 9.898438 10.617188 9.691406 10.75 L 11.789062 14.117188 C 12.25 13.828125 12.683594 13.484375 13.085938 13.085938 C 13.605469 12.5625 14.03125 11.984375 14.363281 11.367188 Z M 14.363281 11.367188 "/>
<path style=" stroke:none;fill-rule:nonzero;fill:rgb(14.901961%,77.64706%,85.490197%);fill-opacity:1;" d="M 4.632812 8.050781 L 0.660156 8.183594 C 0.703125 9.441406 1.070312 10.6875 1.761719 11.789062 L 5.132812 9.691406 C 4.816406 9.1875 4.652344 8.621094 4.632812 8.050781 Z M 4.632812 8.050781 "/>
<path style=" stroke:none;fill-rule:nonzero;fill:rgb(92.54902%,25.098041%,47.843137%);fill-opacity:1;" d="M 11.367188 1.515625 C 10.222656 0.902344 8.953125 0.617188 7.695312 0.660156 L 7.828125 4.632812 C 8.402344 4.613281 8.976562 4.742188 9.496094 5.019531 Z M 11.367188 1.515625 "/>
<path style=" stroke:none;fill-rule:nonzero;fill:rgb(61.176473%,80.000001%,39.607844%);fill-opacity:1;" d="M 8.050781 11.25 C 7.480469 11.265625 6.902344 11.136719 6.382812 10.859375 L 4.515625 14.363281 C 5.65625 14.976562 6.925781 15.261719 8.183594 15.21875 Z M 8.050781 11.25 "/>
<path style=" stroke:none;fill-rule:nonzero;fill:rgb(67.058825%,27.843139%,73.725492%);fill-opacity:1;" d="M 7.695312 0.660156 C 6.441406 0.703125 5.195312 1.070312 4.089844 1.761719 L 6.191406 5.132812 C 6.691406 4.816406 7.257812 4.652344 7.828125 4.632812 Z M 7.695312 0.660156 "/>
<path style=" stroke:none;fill-rule:nonzero;fill:rgb(100%,93.333334%,34.509805%);fill-opacity:1;" d="M 9.691406 10.75 C 9.1875 11.0625 8.621094 11.230469 8.050781 11.25 L 8.183594 15.21875 C 9.441406 15.175781 10.6875 14.808594 11.789062 14.117188 Z M 9.691406 10.75 "/>
</g>
</svg>
