
<svg xmlns="http://www.w3.org/2000/svg" xmlns:xlink="http://www.w3.org/1999/xlink" width="16px" height="16px" viewBox="0 0 16 16" version="1.1">
<g id="surface1">
<path style=" stroke:none;fill-rule:nonzero;fill:rgb(25.882354%,25.882354%,25.882354%);fill-opacity:1;" d="M 11.574219 1.636719 C 15.054688 3.644531 16.246094 8.09375 14.238281 11.574219 C 12.230469 15.054688 7.78125 16.246094 4.300781 14.238281 C 0.820312 12.230469 -0.371094 7.78125 1.636719 4.300781 C 3.644531 0.820312 8.09375 -0.371094 11.574219 1.636719 Z M 11.574219 1.636719 "/>
<path style=" stroke:none;fill-rule:evenodd;fill:rgb(93.333334%,93.333334%,93.333334%);fill-opacity:1;" d="M 8.382812 5.035156 C 9.484375 7.304688 9.484375 9.546875 8.839844 11.203125 C 9.75 11.210938 11.230469 11.3125 12.835938 10.519531 C 11.515625 7.503906 8.382812 5.035156 8.382812 5.035156 Z M 8.382812 5.035156 "/>
<path style=" stroke:none;fill-rule:evenodd;fill:rgb(93.333334%,93.333334%,93.333334%);fill-opacity:1;" d="M 5.527344 1.152344 C 4.785156 4.183594 2.648438 7.914062 1.300781 10.289062 L 2.492188 10.574219 C 3.242188 10.683594 4.167969 10.789062 5.0625 10.882812 C 6.710938 11.054688 8.023438 11.183594 8.269531 11.203125 C 8.234375 10.746094 7.894531 5.769531 7.8125 4.808594 C 6.980469 3.304688 6.308594 2.523438 5.527344 1.152344 Z M 5.527344 1.152344 "/>
<path style=" stroke:none;fill-rule:evenodd;fill:rgb(93.333334%,93.333334%,93.333334%);fill-opacity:1;" d="M 10.554688 6.40625 C 11.238281 6.863281 11.886719 7.28125 12.382812 7.777344 C 13.050781 8.449219 13.390625 9.351562 13.292969 10.289062 C 14.191406 9.839844 14.78125 9.089844 15.121094 8.464844 C 14.527344 7.914062 13.492188 7.371094 12.382812 6.976562 C 11.765625 6.761719 11.121094 6.5625 10.554688 6.40625 Z M 10.554688 6.40625 "/>
<path style=" stroke:none;fill-rule:evenodd;fill:rgb(36.078432%,41.960785%,75.294119%);fill-opacity:1;" d="M 15.035156 9.558594 C 13.910156 10.839844 11.929688 11.542969 9.703125 11.863281 C 7.261719 12.214844 4.363281 12.117188 1.832031 11.902344 C 2.4375 12.835938 3.265625 13.644531 4.300781 14.238281 C 7.789062 16.253906 12.222656 15.066406 14.238281 11.574219 C 14.613281 10.929688 14.875 10.25 15.035156 9.558594 Z M 15.035156 9.558594 "/>
<path style=" stroke:none;fill-rule:evenodd;fill:rgb(93.333334%,93.333334%,93.333334%);fill-opacity:1;" d="M 15.035156 9.558594 C 13.910156 10.839844 11.929688 11.542969 9.703125 11.863281 C 7.261719 12.214844 4.363281 12.117188 1.832031 11.902344 C 1.949219 12.085938 2.074219 12.257812 2.207031 12.429688 C 4.648438 12.621094 7.402344 12.695312 9.773438 12.351562 C 11.667969 12.078125 13.484375 11.539062 14.726562 10.554688 C 14.835938 10.273438 14.929688 9.988281 15.003906 9.695312 C 15.011719 9.648438 15.023438 9.605469 15.035156 9.558594 Z M 15.035156 9.558594 "/>
</g>
</svg>
