
<svg xmlns="http://www.w3.org/2000/svg" xmlns:xlink="http://www.w3.org/1999/xlink" width="16px" height="16px" viewBox="0 0 16 16" version="1.1">
<g id="surface1">
<path style=" stroke:none;fill-rule:nonzero;fill:rgb(92.54902%,25.098041%,47.843137%);fill-opacity:1;" d="M 8 0.660156 C 12.019531 0.660156 15.277344 3.917969 15.277344 7.9375 C 15.277344 11.957031 12.019531 15.214844 8 15.214844 C 3.980469 15.214844 0.722656 11.957031 0.722656 7.9375 C 0.722656 3.917969 3.980469 0.660156 8 0.660156 Z M 8 0.660156 "/>
<path style=" stroke:none;fill-rule:nonzero;fill:rgb(100%,100%,100%);fill-opacity:1;" d="M 3.929688 6.261719 C 3.984375 6.09375 3.996094 5.992188 4.015625 5.894531 C 3.867188 6.089844 3.945312 6.128906 3.929688 6.261719 M 4.207031 5.085938 C 4.234375 5.339844 4.019531 5.4375 4.253906 5.269531 C 4.382812 4.980469 4.207031 5.191406 4.207031 5.085938 M 8.316406 2.863281 C 8.433594 2.820312 8.601562 2.839844 8.726562 2.808594 C 8.566406 2.824219 8.40625 2.832031 8.246094 2.851562 L 8.316406 2.863281 M 12.074219 7.605469 L 12.050781 7.671875 C 12.003906 8.007812 11.902344 8.34375 11.75 8.652344 C 11.917969 8.324219 12.03125 7.96875 12.074219 7.605469 M 7.316406 8.660156 C 7.257812 8.59375 7.222656 8.511719 7.183594 8.429688 C 7.21875 8.570312 7.296875 8.695312 7.371094 8.820312 L 7.316406 8.660156 M 7.050781 8.671875 L 7.023438 8.792969 C 7.136719 8.953125 7.230469 9.121094 7.375 9.246094 C 7.269531 9.039062 7.191406 8.953125 7.050781 8.671875 M 8.464844 3 L 8.402344 3.011719 L 8.460938 3.007812 L 8.464844 3 M 8.28125 2.945312 C 8.375 2.964844 8.480469 2.976562 8.464844 3 C 8.566406 2.976562 8.589844 2.957031 8.28125 2.945312 M 10.210938 7.285156 C 10.230469 6.96875 10.148438 7.066406 10.121094 7.1875 C 10.152344 7.207031 10.179688 7.414062 10.210938 7.285156 M 9.867188 8.191406 C 9.972656 8.046875 10.046875 7.890625 10.074219 7.726562 C 10.050781 7.84375 9.988281 7.945312 9.929688 8.050781 C 9.605469 8.257812 9.898438 7.925781 9.929688 7.800781 C 9.582031 8.246094 9.878906 8.070312 9.867188 8.191406 M 8.9375 8.429688 C 8.765625 8.429688 8.972656 8.519531 9.195312 8.554688 C 9.261719 8.503906 9.316406 8.453125 9.367188 8.40625 C 9.226562 8.441406 9.082031 8.441406 8.9375 8.429688 M 3.933594 6.261719 C 3.988281 6.09375 3.996094 5.992188 4.015625 5.894531 C 3.867188 6.089844 3.949219 6.128906 3.933594 6.261719 M 4.207031 5.085938 C 4.234375 5.339844 4.019531 5.4375 4.257812 5.273438 C 4.382812 4.980469 4.207031 5.191406 4.207031 5.085938 M 8.316406 2.863281 C 8.433594 2.820312 8.605469 2.839844 8.730469 2.808594 C 8.566406 2.824219 8.40625 2.832031 8.246094 2.851562 L 8.316406 2.863281 M 12.078125 7.605469 L 12.050781 7.671875 C 12.003906 8.007812 11.902344 8.34375 11.75 8.652344 C 11.921875 8.324219 12.03125 7.96875 12.078125 7.605469 M 7.320312 8.660156 C 7.257812 8.59375 7.222656 8.511719 7.183594 8.429688 C 7.222656 8.570312 7.300781 8.695312 7.371094 8.820312 L 7.320312 8.660156 M 7.050781 8.671875 L 7.023438 8.792969 C 7.140625 8.953125 7.230469 9.121094 7.375 9.246094 C 7.269531 9.039062 7.191406 8.953125 7.050781 8.671875 M 8.464844 3 L 8.402344 3.011719 L 8.460938 3.007812 L 8.46875 3 M 11.046875 7.417969 C 11.058594 7.683594 10.972656 7.8125 10.898438 8.042969 L 10.761719 8.113281 C 10.648438 8.339844 10.769531 8.257812 10.691406 8.4375 C 10.515625 8.597656 10.160156 8.941406 10.046875 8.972656 C 9.960938 8.972656 10.101562 8.871094 10.121094 8.832031 C 9.886719 9 9.933594 9.082031 9.574219 9.1875 L 9.5625 9.160156 C 8.679688 9.59375 7.453125 8.738281 7.46875 7.566406 C 7.460938 7.640625 7.441406 7.625 7.421875 7.652344 C 7.378906 7.050781 7.691406 6.449219 8.21875 6.203125 C 8.734375 5.9375 9.335938 6.046875 9.707031 6.402344 C 9.503906 6.125 9.101562 5.832031 8.621094 5.859375 C 8.152344 5.867188 7.714844 6.179688 7.566406 6.515625 C 7.328125 6.671875 7.300781 7.121094 7.195312 7.203125 C 7.054688 8.28125 7.460938 8.746094 8.144531 9.292969 C 8.253906 9.367188 8.175781 9.378906 8.191406 9.4375 C 7.964844 9.328125 7.753906 9.160156 7.582031 8.953125 C 7.675781 9.09375 7.773438 9.226562 7.898438 9.332031 C 7.683594 9.257812 7.398438 8.789062 7.3125 8.773438 C 7.683594 9.460938 8.816406 9.980469 9.410156 9.722656 C 9.136719 9.734375 8.785156 9.730469 8.476562 9.613281 C 8.347656 9.542969 8.171875 9.398438 8.203125 9.371094 C 9.015625 9.6875 9.851562 9.609375 10.550781 9.027344 C 10.730469 8.882812 10.921875 8.636719 10.980469 8.632812 C 10.894531 8.765625 10.996094 8.695312 10.929688 8.8125 C 11.105469 8.515625 10.851562 8.691406 11.113281 8.296875 L 11.210938 8.4375 C 11.171875 8.1875 11.503906 7.890625 11.472656 7.496094 C 11.546875 7.378906 11.554688 7.625 11.476562 7.902344 C 11.585938 7.597656 11.503906 7.546875 11.53125 7.296875 C 11.5625 7.378906 11.605469 7.46875 11.625 7.558594 C 11.550781 7.265625 11.699219 7.0625 11.738281 6.890625 C 11.699219 6.875 11.625 7.019531 11.605469 6.671875 C 11.609375 6.523438 11.648438 6.59375 11.660156 6.554688 C 11.632812 6.539062 11.558594 6.421875 11.511719 6.199219 C 11.546875 6.148438 11.601562 6.335938 11.644531 6.34375 C 11.617188 6.167969 11.566406 6.03125 11.566406 5.898438 C 11.433594 5.609375 11.519531 5.933594 11.414062 5.773438 C 11.273438 5.320312 11.527344 5.667969 11.546875 5.460938 C 11.757812 5.78125 11.878906 6.277344 11.933594 6.480469 C 11.890625 6.230469 11.824219 5.988281 11.738281 5.753906 C 11.804688 5.785156 11.636719 5.242188 11.824219 5.601562 C 11.621094 4.835938 10.964844 4.117188 10.363281 3.78125 C 10.4375 3.851562 10.53125 3.941406 10.496094 3.957031 C 10.195312 3.769531 10.25 3.753906 10.207031 3.675781 C 9.960938 3.574219 9.945312 3.683594 9.78125 3.675781 C 9.320312 3.421875 9.234375 3.449219 8.808594 3.289062 L 8.828125 3.382812 C 8.523438 3.277344 8.472656 3.421875 8.140625 3.382812 C 8.121094 3.367188 8.246094 3.324219 8.351562 3.308594 C 8.054688 3.351562 8.070312 3.25 7.78125 3.320312 C 7.851562 3.269531 7.925781 3.234375 8.003906 3.191406 C 7.761719 3.203125 7.425781 3.335938 7.53125 3.214844 C 7.136719 3.398438 6.441406 3.65625 6.046875 4.035156 L 6.035156 3.953125 C 5.855469 4.175781 5.253906 4.621094 5.207031 4.910156 L 5.15625 4.921875 C 5.0625 5.085938 5.003906 5.273438 4.929688 5.441406 C 4.808594 5.660156 4.75 5.527344 4.769531 5.558594 C 4.527344 6.066406 4.410156 6.492188 4.304688 6.839844 C 4.378906 6.957031 4.308594 7.527344 4.335938 7.988281 C 4.214844 10.253906 5.863281 12.453125 7.667969 12.960938 C 7.929688 13.058594 8.324219 13.054688 8.660156 13.066406 C 8.265625 12.949219 8.214844 13.003906 7.828125 12.863281 C 7.550781 12.726562 7.492188 12.574219 7.292969 12.394531 L 7.371094 12.539062 C 6.988281 12.398438 7.148438 12.363281 6.835938 12.261719 L 6.917969 12.148438 C 6.792969 12.136719 6.589844 11.929688 6.53125 11.8125 L 6.394531 11.820312 C 6.230469 11.609375 6.144531 11.457031 6.148438 11.339844 L 6.105469 11.421875 C 6.054688 11.332031 5.503906 10.632812 5.789062 10.792969 C 5.738281 10.746094 5.664062 10.710938 5.589844 10.566406 L 5.648438 10.496094 C 5.507812 10.3125 5.394531 10.074219 5.402344 9.996094 C 5.476562 10.101562 5.527344 10.121094 5.578125 10.136719 C 5.226562 9.238281 5.207031 10.085938 4.945312 9.21875 L 5 9.214844 C 4.957031 9.148438 4.929688 9.074219 4.898438 9.003906 L 4.921875 8.75 C 4.671875 8.449219 4.851562 7.46875 4.886719 6.929688 C 4.914062 6.710938 5.097656 6.476562 5.238281 6.109375 L 5.152344 6.09375 C 5.316406 5.796875 6.085938 4.902344 6.441406 4.949219 C 6.613281 4.722656 6.40625 4.949219 6.375 4.890625 C 6.753906 4.484375 6.871094 4.601562 7.128906 4.53125 C 7.40625 4.359375 6.890625 4.597656 7.023438 4.464844 C 7.5 4.339844 7.359375 4.175781 7.984375 4.113281 C 8.050781 4.152344 7.832031 4.171875 7.777344 4.222656 C 8.175781 4.019531 9.035156 4.066406 9.59375 4.335938 C 10.242188 4.652344 10.972656 5.582031 11 6.460938 L 11.035156 6.46875 C 11.019531 6.816406 11.085938 7.222656 10.96875 7.589844 L 11.046875 7.414062 M 8.28125 2.945312 C 8.375 2.964844 8.484375 2.976562 8.46875 3 C 8.570312 2.976562 8.589844 2.957031 8.28125 2.945312 M 10.210938 7.285156 C 10.230469 6.96875 10.148438 7.066406 10.121094 7.1875 C 10.152344 7.207031 10.179688 7.414062 10.210938 7.285156 M 9.867188 8.195312 C 9.972656 8.050781 10.046875 7.890625 10.074219 7.726562 C 10.050781 7.84375 9.988281 7.945312 9.929688 8.050781 C 9.605469 8.257812 9.898438 7.925781 9.929688 7.800781 C 9.582031 8.246094 9.878906 8.070312 9.867188 8.195312 M 8.9375 8.429688 C 8.765625 8.429688 8.972656 8.519531 9.199219 8.554688 C 9.261719 8.507812 9.316406 8.457031 9.367188 8.40625 C 9.226562 8.441406 9.082031 8.441406 8.9375 8.429688 "/>
</g>
</svg>
