
<svg xmlns="http://www.w3.org/2000/svg" xmlns:xlink="http://www.w3.org/1999/xlink" width="16px" height="16px" viewBox="0 0 16 16" version="1.1">
<g id="surface1">
<path style=" stroke:none;fill-rule:nonzero;fill:rgb(100%,43.921569%,26.274511%);fill-opacity:1;" d="M 11.574219 1.636719 C 15.054688 3.644531 16.246094 8.09375 14.238281 11.574219 C 12.230469 15.054688 7.78125 16.246094 4.300781 14.238281 C 0.820312 12.230469 -0.371094 7.78125 1.636719 4.300781 C 3.644531 0.820312 8.09375 -0.371094 11.574219 1.636719 Z M 11.574219 1.636719 "/>
<path style=" stroke:none;fill-rule:nonzero;fill:rgb(93.333334%,93.333334%,93.333334%);fill-opacity:1;" d="M 8.941406 3.753906 C 7.96875 3.519531 6.957031 3.636719 6.078125 4.054688 L 6.742188 5.207031 C 7.578125 4.84375 8.570312 4.867188 9.425781 5.359375 C 10.28125 5.851562 10.796875 6.699219 10.898438 7.605469 L 12.226562 7.605469 C 12.152344 6.636719 11.75 5.703125 11.058594 4.976562 C 10.648438 5.292969 10.070312 5.351562 9.589844 5.074219 C 9.113281 4.796875 8.871094 4.269531 8.941406 3.753906 Z M 5.507812 4.386719 C 4.992188 4.738281 4.546875 5.210938 4.214844 5.789062 C 4.042969 6.085938 3.910156 6.398438 3.8125 6.714844 C 3.867188 6.734375 3.917969 6.761719 3.964844 6.789062 C 4.363281 7.015625 4.628906 7.445312 4.628906 7.9375 C 4.628906 8.492188 4.292969 8.964844 3.8125 9.160156 C 4.085938 10.078125 4.664062 10.910156 5.507812 11.484375 L 6.171875 10.335938 C 4.960938 9.445312 4.589844 7.78125 5.359375 6.449219 C 5.570312 6.082031 5.851562 5.777344 6.171875 5.539062 Z M 12.226562 8.269531 L 10.898438 8.269531 C 10.851562 8.664062 10.726562 9.058594 10.515625 9.425781 C 9.746094 10.757812 8.117188 11.269531 6.746094 10.664062 L 6.082031 11.816406 C 7 12.257812 8.007812 12.34375 8.941406 12.121094 C 8.871094 11.605469 9.113281 11.078125 9.589844 10.800781 C 10.019531 10.554688 10.519531 10.570312 10.917969 10.800781 C 10.964844 10.832031 11.011719 10.863281 11.058594 10.898438 C 11.285156 10.65625 11.488281 10.386719 11.660156 10.085938 C 11.996094 9.511719 12.179688 8.890625 12.226562 8.269531 Z M 12.226562 8.269531 "/>
<path style=" stroke:none;fill-rule:nonzero;fill:rgb(93.333334%,93.333334%,93.333334%);fill-opacity:1;" d="M 10.75 3.070312 C 11.226562 3.34375 11.386719 3.949219 11.113281 4.421875 C 10.835938 4.898438 10.234375 5.0625 9.757812 4.785156 C 9.28125 4.511719 9.117188 3.90625 9.394531 3.429688 C 9.667969 2.957031 10.273438 2.792969 10.75 3.070312 Z M 10.75 3.070312 "/>
<path style=" stroke:none;fill-rule:nonzero;fill:rgb(93.333334%,93.333334%,93.333334%);fill-opacity:1;" d="M 4.300781 7.9375 C 4.300781 8.488281 3.855469 8.929688 3.308594 8.929688 C 2.757812 8.929688 2.316406 8.488281 2.316406 7.9375 C 2.316406 7.386719 2.757812 6.945312 3.308594 6.945312 C 3.855469 6.945312 4.300781 7.386719 4.300781 7.9375 Z M 4.300781 7.9375 "/>
<path style=" stroke:none;fill-rule:nonzero;fill:rgb(93.333334%,93.333334%,93.333334%);fill-opacity:1;" d="M 10.507812 12.90625 C 9.976562 13.046875 9.4375 12.734375 9.292969 12.203125 C 9.152344 11.671875 9.464844 11.132812 9.996094 10.988281 C 10.527344 10.847656 11.070312 11.160156 11.210938 11.691406 C 11.351562 12.222656 11.039062 12.761719 10.507812 12.90625 Z M 10.507812 12.90625 "/>
</g>
</svg>
