
<svg xmlns="http://www.w3.org/2000/svg" xmlns:xlink="http://www.w3.org/1999/xlink" width="16px" height="16px" viewBox="0 0 16 16" version="1.1">
<g id="surface1">
<path style=" stroke:none;fill-rule:nonzero;fill:rgb(47.450981%,52.549022%,79.607844%);fill-opacity:1;" d="M 7.9375 0.660156 C 11.957031 0.660156 15.214844 3.917969 15.214844 7.9375 C 15.214844 11.957031 11.957031 15.214844 7.9375 15.214844 C 3.917969 15.214844 0.660156 11.957031 0.660156 7.9375 C 0.660156 3.917969 3.917969 0.660156 7.9375 0.660156 Z M 7.9375 0.660156 "/>
<path style=" stroke:none;fill-rule:nonzero;fill:rgb(62.352943%,65.882355%,85.490197%);fill-opacity:1;" d="M 7.9375 0.660156 C 11.40625 0.660156 14.222656 3.476562 14.222656 6.945312 C 14.222656 10.414062 11.40625 13.230469 7.9375 13.230469 C 4.46875 13.230469 1.652344 10.414062 1.652344 6.945312 C 1.652344 3.476562 4.46875 0.660156 7.9375 0.660156 Z M 7.9375 0.660156 "/>
<path style=" stroke:none;fill-rule:nonzero;fill:rgb(77.254903%,79.215688%,91.37255%);fill-opacity:1;" d="M 10.753906 10.632812 C 11.046875 10.867188 11.339844 11.253906 11.628906 10.378906 C 11.921875 9.726562 11.792969 9.167969 11.84375 8.570312 C 10.304688 8.421875 10.453125 9.476562 10.753906 10.632812 Z M 10.753906 10.632812 "/>
<path style=" stroke:none;fill-rule:nonzero;fill:rgb(77.254903%,79.215688%,91.37255%);fill-opacity:1;" d="M 5.949219 10.773438 C 5.710938 11.0625 5.507812 11.503906 5.039062 10.714844 C 4.613281 10.140625 4.621094 9.566406 4.4375 8.992188 C 5.914062 8.515625 5.992188 9.578125 5.949219 10.773438 Z M 5.949219 10.773438 "/>
<path style=" stroke:none;fill-rule:nonzero;fill:rgb(25.882354%,25.882354%,25.882354%);fill-opacity:1;" d="M 5.519531 9.738281 C 4.59375 9.675781 3.921875 8.988281 3.191406 8.4375 C 3.726562 8.113281 5.015625 8.472656 2.257812 5.148438 C 3.085938 3.882812 4.222656 2.78125 5.570312 1.792969 C 4.449219 3.097656 4.398438 4.246094 6.050781 5.132812 C 6.597656 5.109375 7.492188 5.457031 7.375 4.707031 C 7.125 2.554688 6.542969 3.46875 6.039062 4.222656 C 6.453125 1.195312 8.332031 2.195312 10.148438 4.132812 L 9.976562 5.054688 C 11.085938 4.628906 11.898438 4.167969 11.421875 2.664062 C 11.1875 1.949219 10.148438 4.132812 11.289062 3.328125 C 10.0625 4.328125 10.386719 2.761719 11.042969 1.84375 C 12.039062 2.539062 12.796875 4.03125 13.617188 5.863281 C 12.179688 6.714844 12.128906 7.082031 11.914062 7.59375 C 12.027344 7.875 12.339844 7.875 12.617188 7.929688 C 12.046875 8.542969 11.347656 9.117188 10.875 9.894531 Z M 5.519531 9.738281 "/>
<path style=" stroke:none;fill-rule:nonzero;fill:rgb(90.980393%,91.764706%,96.470588%);fill-opacity:1;" d="M 5.300781 6.507812 C 6.375 6.554688 7.449219 6.609375 8.421875 7.261719 C 9.03125 6.589844 10 6.519531 10.972656 6.457031 C 10.671875 8.945312 11.609375 11.273438 8.941406 14.078125 C 4.601562 11.832031 5.667969 8.242188 5.300781 6.507812 Z M 5.300781 6.507812 "/>
<path style=" stroke:none;fill-rule:nonzero;fill:rgb(25.882354%,25.882354%,25.882354%);fill-opacity:1;" d="M 7.457031 9.210938 C 7.644531 9.210938 7.792969 9.375 7.792969 9.574219 C 7.792969 9.777344 7.644531 9.941406 7.457031 9.941406 C 7.269531 9.941406 7.117188 9.777344 7.117188 9.574219 C 7.117188 9.375 7.269531 9.210938 7.457031 9.210938 Z M 7.457031 9.210938 "/>
<path style=" stroke:none;fill-rule:nonzero;fill:rgb(87.843138%,87.843138%,87.843138%);fill-opacity:1;" d="M 7.375 9.28125 C 7.472656 9.28125 7.550781 9.367188 7.550781 9.472656 C 7.550781 9.578125 7.472656 9.664062 7.375 9.664062 C 7.277344 9.664062 7.195312 9.578125 7.195312 9.472656 C 7.195312 9.367188 7.277344 9.28125 7.375 9.28125 Z M 7.375 9.28125 "/>
<path style=" stroke:none;fill-rule:nonzero;fill:rgb(25.882354%,25.882354%,25.882354%);fill-opacity:1;" d="M 9.332031 9.128906 C 9.519531 9.128906 9.671875 9.292969 9.671875 9.492188 C 9.671875 9.695312 9.519531 9.859375 9.332031 9.859375 C 9.144531 9.859375 8.996094 9.695312 8.996094 9.492188 C 8.996094 9.292969 9.144531 9.128906 9.332031 9.128906 Z M 9.332031 9.128906 "/>
<path style=" stroke:none;fill-rule:nonzero;fill:rgb(87.843138%,87.843138%,87.843138%);fill-opacity:1;" d="M 9.25 9.199219 C 9.347656 9.199219 9.425781 9.285156 9.425781 9.390625 C 9.425781 9.496094 9.347656 9.582031 9.25 9.582031 C 9.152344 9.582031 9.074219 9.496094 9.074219 9.390625 C 9.074219 9.285156 9.152344 9.199219 9.25 9.199219 Z M 9.25 9.199219 "/>
<path style=" stroke:none;fill-rule:nonzero;fill:rgb(25.882354%,25.882354%,25.882354%);fill-opacity:1;" d="M 6.230469 8.300781 L 7.839844 8.769531 L 7.992188 9.101562 L 6.074219 8.945312 L 6.140625 8.828125 L 7.484375 8.9375 L 6.089844 8.699219 L 6.152344 8.546875 L 7.71875 8.902344 L 6.175781 8.425781 Z M 6.230469 8.300781 "/>
<path style=" stroke:none;fill-rule:nonzero;fill:rgb(25.882354%,25.882354%,25.882354%);fill-opacity:1;" d="M 8.875 8.6875 L 8.796875 9.019531 C 9.203125 8.902344 9.441406 8.992188 9.816406 9.140625 L 10.671875 8.925781 C 10.0625 8.777344 9.492188 8.621094 8.875 8.6875 Z M 8.875 8.6875 "/>
<path style=" stroke:none;fill-rule:nonzero;fill:rgb(81.960785%,76.862746%,91.37255%);fill-opacity:1;" d="M 7.792969 9.941406 L 7.867188 9.996094 C 7.742188 10.167969 7.582031 10.292969 7.410156 10.402344 L 7.320312 10.335938 C 7.523438 10.21875 7.660156 10.082031 7.792969 9.941406 Z M 7.792969 9.941406 "/>
<path style=" stroke:none;fill-rule:nonzero;fill:rgb(81.960785%,76.862746%,91.37255%);fill-opacity:1;" d="M 9.113281 9.910156 L 9.101562 9.996094 C 9.226562 10.167969 9.175781 10.066406 9.34375 10.179688 L 9.433594 10.113281 C 9.234375 9.996094 9.179688 9.984375 9.113281 9.910156 Z M 9.113281 9.910156 "/>
<path style=" stroke:none;fill-rule:nonzero;fill:rgb(25.882354%,25.882354%,25.882354%);fill-opacity:1;" d="M 8.828125 9.890625 C 8.8125 10.382812 8.753906 10.835938 8.792969 11.382812 C 8.546875 11.34375 8.429688 11.175781 8.3125 11.007812 L 8.378906 10.964844 C 8.476562 11.046875 8.566406 11.214844 8.671875 11.167969 C 8.679688 10.742188 8.683594 10.492188 8.734375 10.078125 Z M 8.828125 9.890625 "/>
<path style=" stroke:none;fill-rule:nonzero;fill:rgb(25.882354%,25.882354%,25.882354%);fill-opacity:1;" d="M 8.136719 11.785156 L 8.167969 11.914062 L 9.058594 11.703125 L 9.046875 11.574219 Z M 8.136719 11.785156 "/>
<path style=" stroke:none;fill-rule:nonzero;fill:rgb(36.078432%,41.960785%,75.294119%);fill-opacity:1;" d="M 13.230469 7.9375 L 13.230469 12.566406 L 12.566406 10.582031 L 12.238281 13.558594 L 12.144531 13.882812 C 12.917969 13.335938 13.578125 12.640625 14.089844 11.835938 L 13.890625 11.246094 L 14.3125 11.457031 C 14.351562 11.382812 14.390625 11.3125 14.429688 11.238281 Z M 13.230469 7.9375 "/>
<path style=" stroke:none;fill-rule:nonzero;fill:rgb(36.078432%,41.960785%,75.294119%);fill-opacity:1;" d="M 2.976562 9.589844 L 2.976562 13.269531 C 3.316406 13.585938 3.6875 13.867188 4.082031 14.113281 L 3.96875 13.890625 L 3.636719 12.898438 L 4.300781 13.230469 Z M 4.628906 11.90625 L 4.367188 14.285156 C 5.167969 14.734375 6.0625 15.035156 7.015625 15.15625 C 6.515625 14.484375 5.582031 13.480469 6.285156 14.882812 L 5.292969 13.890625 Z M 2.316406 12.238281 L 2.28125 12.527344 C 2.351562 12.613281 2.421875 12.695312 2.496094 12.777344 Z M 2.316406 12.238281 "/>
</g>
</svg>
