<?xml version="1.0" encoding="UTF-8"?>
<svg xmlns="http://www.w3.org/2000/svg" xmlns:xlink="http://www.w3.org/1999/xlink" width="16px" height="16px" viewBox="0 0 16 16" version="1.1">
<g id="surface1">
<path style=" stroke:none;fill-rule:nonzero;fill:rgb(55.29412%,43.137255%,38.82353%);fill-opacity:1;" d="M 1.324219 0.785156 L 14.550781 0.785156 C 14.917969 0.785156 15.214844 1.082031 15.214844 1.449219 L 15.214844 14.675781 C 15.214844 15.042969 14.917969 15.339844 14.550781 15.339844 L 1.324219 15.339844 C 0.957031 15.339844 0.660156 15.042969 0.660156 14.675781 L 0.660156 1.449219 C 0.660156 1.082031 0.957031 0.785156 1.324219 0.785156 Z M 1.324219 0.785156 "/>
<path style=" stroke:none;fill-rule:nonzero;fill:rgb(25.882354%,25.882354%,25.882354%);fill-opacity:1;" d="M 2.316406 2.109375 L 13.558594 2.109375 C 13.742188 2.109375 13.890625 2.257812 13.890625 2.441406 L 13.890625 13.683594 C 13.890625 13.867188 13.742188 14.015625 13.558594 14.015625 L 2.316406 14.015625 C 2.132812 14.015625 1.984375 13.867188 1.984375 13.683594 L 1.984375 2.441406 C 1.984375 2.257812 2.132812 2.109375 2.316406 2.109375 Z M 2.316406 2.109375 "/>
<path style=" stroke:none;fill-rule:nonzero;fill:rgb(100%,65.490198%,14.901961%);fill-opacity:1;" d="M 11.574219 5.746094 C 11.191406 5.742188 10.824219 5.835938 10.539062 6.0625 C 10.257812 6.292969 10.085938 6.65625 10.085938 7.070312 C 10.085938 7.511719 10.34375 7.847656 10.628906 8.03125 C 10.917969 8.214844 11.230469 8.296875 11.46875 8.375 C 11.726562 8.460938 11.992188 8.542969 12.160156 8.652344 C 12.328125 8.757812 12.398438 8.832031 12.398438 9.054688 C 12.398438 9.300781 12.324219 9.433594 12.191406 9.539062 C 12.0625 9.644531 11.847656 9.714844 11.570312 9.714844 C 11.296875 9.714844 11.070312 9.644531 10.933594 9.546875 C 10.796875 9.453125 10.746094 9.359375 10.746094 9.21875 C 10.746094 9.101562 10.683594 8.988281 10.582031 8.929688 C 10.476562 8.871094 10.351562 8.871094 10.246094 8.929688 C 10.144531 8.988281 10.082031 9.101562 10.085938 9.21875 C 10.085938 9.578125 10.277344 9.894531 10.554688 10.089844 C 10.832031 10.285156 11.1875 10.378906 11.570312 10.378906 C 11.957031 10.378906 12.324219 10.28125 12.605469 10.058594 C 12.886719 9.832031 13.058594 9.46875 13.058594 9.054688 C 13.058594 8.613281 12.800781 8.277344 12.515625 8.09375 C 12.226562 7.910156 11.914062 7.828125 11.675781 7.75 C 11.417969 7.664062 11.152344 7.582031 10.984375 7.472656 C 10.816406 7.367188 10.746094 7.289062 10.746094 7.070312 C 10.746094 6.824219 10.824219 6.683594 10.953125 6.578125 C 11.085938 6.472656 11.296875 6.402344 11.566406 6.410156 C 11.566406 6.410156 11.570312 6.410156 11.570312 6.410156 C 11.847656 6.410156 12.074219 6.480469 12.210938 6.574219 C 12.347656 6.671875 12.398438 6.765625 12.398438 6.90625 C 12.398438 7.023438 12.460938 7.132812 12.5625 7.195312 C 12.667969 7.253906 12.792969 7.253906 12.894531 7.195312 C 13 7.132812 13.0625 7.023438 13.058594 6.90625 C 13.058594 6.546875 12.867188 6.226562 12.589844 6.035156 C 12.3125 5.839844 11.960938 5.746094 11.574219 5.746094 Z M 11.574219 5.746094 "/>
<path style=" stroke:none;fill-rule:nonzero;fill:rgb(49.411765%,34.117648%,76.078433%);fill-opacity:1;" d="M 7.441406 5.746094 C 6.890625 5.746094 6.449219 6.191406 6.449219 6.738281 L 6.449219 9.386719 C 6.449219 9.933594 6.890625 10.378906 7.441406 10.378906 L 8.433594 10.378906 C 8.984375 10.378906 9.425781 9.933594 9.425781 9.386719 L 9.425781 6.738281 C 9.425781 6.191406 8.984375 5.746094 8.433594 5.746094 Z M 7.441406 6.410156 L 8.433594 6.410156 C 8.617188 6.410156 8.765625 6.554688 8.765625 6.738281 L 8.765625 9.386719 C 8.765625 9.570312 8.617188 9.714844 8.433594 9.714844 L 7.441406 9.714844 C 7.257812 9.714844 7.109375 9.570312 7.109375 9.386719 L 7.109375 6.738281 C 7.109375 6.554688 7.257812 6.410156 7.441406 6.410156 Z M 7.441406 6.410156 "/>
<path style=" stroke:none;fill-rule:nonzero;fill:rgb(93.725491%,32.549021%,31.37255%);fill-opacity:1;" d="M 3.140625 5.746094 C 2.957031 5.746094 2.8125 5.894531 2.8125 6.078125 L 2.8125 10.046875 C 2.8125 10.058594 2.8125 10.070312 2.8125 10.082031 C 2.8125 10.085938 2.8125 10.09375 2.816406 10.097656 C 2.839844 10.257812 2.976562 10.378906 3.140625 10.378906 L 4.796875 10.378906 C 5.34375 10.378906 5.789062 9.933594 5.789062 9.386719 L 5.789062 6.738281 C 5.789062 6.191406 5.34375 5.746094 4.796875 5.746094 Z M 3.472656 6.410156 L 4.796875 6.410156 C 4.980469 6.410156 5.125 6.554688 5.125 6.738281 L 5.125 9.386719 C 5.125 9.570312 4.980469 9.714844 4.796875 9.714844 L 3.472656 9.714844 Z M 3.472656 6.410156 "/>
</g>
</svg>
