<?xml version="1.0" encoding="UTF-8"?>
<svg xmlns="http://www.w3.org/2000/svg" xmlns:xlink="http://www.w3.org/1999/xlink" width="16px" height="16px" viewBox="0 0 16 16" version="1.1">
<g id="surface1">
<path style=" stroke:none;fill-rule:nonzero;fill:rgb(54.509807%,76.47059%,29.019609%);fill-opacity:1;" d="M 2.644531 15.339844 C 2.28125 15.339844 1.984375 15.042969 1.984375 14.675781 L 1.984375 14.015625 L 1.324219 14.015625 C 0.957031 14.015625 0.660156 13.71875 0.660156 13.355469 C 0.660156 12.988281 0.957031 12.691406 1.324219 12.691406 L 1.984375 12.691406 L 1.984375 9.457031 C 1.984375 9.445312 1.984375 9.433594 1.984375 9.421875 C 1.984375 9.410156 1.984375 9.398438 1.984375 9.386719 C 1.984375 9.019531 2.28125 8.722656 2.644531 8.722656 L 13.230469 8.722656 C 13.59375 8.722656 13.890625 9.019531 13.890625 9.386719 C 13.890625 9.398438 13.890625 9.410156 13.890625 9.421875 C 13.890625 9.433594 13.890625 9.445312 13.890625 9.457031 L 13.890625 12.691406 L 14.550781 12.691406 C 14.917969 12.691406 15.214844 12.988281 15.214844 13.355469 C 15.214844 13.71875 14.917969 14.015625 14.550781 14.015625 L 13.890625 14.015625 L 13.890625 14.675781 C 13.890625 15.042969 13.59375 15.339844 13.230469 15.339844 C 12.863281 15.339844 12.566406 15.042969 12.566406 14.675781 L 12.566406 10.046875 L 3.308594 10.046875 L 3.308594 14.675781 C 3.308594 15.042969 3.011719 15.339844 2.644531 15.339844 Z M 2.644531 15.339844 "/>
<path style=" stroke:none;fill-rule:nonzero;fill:rgb(54.509807%,76.47059%,29.019609%);fill-opacity:1;" d="M 2.644531 0.785156 C 2.28125 0.785156 1.984375 1.082031 1.984375 1.449219 L 1.984375 2.109375 L 1.324219 2.109375 C 0.957031 2.109375 0.660156 2.40625 0.660156 2.769531 C 0.660156 3.136719 0.957031 3.433594 1.324219 3.433594 L 1.984375 3.433594 L 1.984375 6.007812 C 1.984375 6.019531 1.984375 6.03125 1.984375 6.042969 C 1.984375 6.054688 1.984375 6.066406 1.984375 6.078125 C 1.984375 6.445312 2.28125 6.738281 2.644531 6.738281 L 13.230469 6.738281 C 13.59375 6.738281 13.890625 6.445312 13.890625 6.078125 C 13.890625 6.066406 13.890625 6.054688 13.890625 6.042969 C 13.890625 6.03125 13.890625 6.019531 13.890625 6.007812 L 13.890625 3.433594 L 14.550781 3.433594 C 14.917969 3.433594 15.214844 3.136719 15.214844 2.769531 C 15.214844 2.40625 14.917969 2.109375 14.550781 2.109375 L 13.890625 2.109375 L 13.890625 1.449219 C 13.890625 1.082031 13.59375 0.785156 13.230469 0.785156 C 12.863281 0.785156 12.566406 1.082031 12.566406 1.449219 L 12.566406 5.417969 L 3.308594 5.417969 L 3.308594 1.449219 C 3.308594 1.082031 3.011719 0.785156 2.644531 0.785156 Z M 2.644531 0.785156 "/>
<path style=" stroke:none;fill-rule:nonzero;fill:rgb(61.176473%,80.000001%,39.607844%);fill-opacity:1;" d="M 7.9375 2.109375 C 9.992188 2.109375 11.65625 3.773438 11.65625 5.828125 L 11.65625 10.296875 C 11.65625 12.351562 9.992188 14.015625 7.9375 14.015625 C 5.882812 14.015625 4.21875 12.351562 4.21875 10.296875 L 4.21875 5.828125 C 4.21875 3.773438 5.882812 2.109375 7.9375 2.109375 Z M 7.9375 2.109375 "/>
<path style=" stroke:none;fill-rule:nonzero;fill:rgb(25.882354%,25.882354%,25.882354%);fill-opacity:1;" d="M 5.953125 2.109375 C 6.683594 2.109375 7.277344 2.703125 7.277344 3.433594 C 7.277344 4.164062 6.683594 4.753906 5.953125 4.753906 C 5.222656 4.753906 4.628906 4.164062 4.628906 3.433594 C 4.628906 2.703125 5.222656 2.109375 5.953125 2.109375 Z M 5.953125 2.109375 "/>
<path style=" stroke:none;fill-rule:nonzero;fill:rgb(25.882354%,25.882354%,25.882354%);fill-opacity:1;" d="M 9.921875 2.109375 C 10.652344 2.109375 11.246094 2.703125 11.246094 3.433594 C 11.246094 4.164062 10.652344 4.753906 9.921875 4.753906 C 9.191406 4.753906 8.597656 4.164062 8.597656 3.433594 C 8.597656 2.703125 9.191406 2.109375 9.921875 2.109375 Z M 9.921875 2.109375 "/>
<path style=" stroke:none;fill-rule:nonzero;fill:rgb(93.725491%,32.549021%,31.37255%);fill-opacity:1;" d="M 7.9375 8.394531 C 8.210938 8.394531 8.433594 8.617188 8.433594 8.890625 C 8.433594 9.164062 8.210938 9.386719 7.9375 9.386719 C 7.664062 9.386719 7.441406 9.164062 7.441406 8.890625 C 7.441406 8.617188 7.664062 8.394531 7.9375 8.394531 Z M 7.9375 8.394531 "/>
<path style=" stroke:none;fill-rule:nonzero;fill:rgb(93.725491%,32.549021%,31.37255%);fill-opacity:1;" d="M 7.9375 9.714844 C 8.210938 9.714844 8.433594 9.9375 8.433594 10.210938 C 8.433594 10.484375 8.210938 10.707031 7.9375 10.707031 C 7.664062 10.707031 7.441406 10.484375 7.441406 10.210938 C 7.441406 9.9375 7.664062 9.714844 7.9375 9.714844 Z M 7.9375 9.714844 "/>
<path style=" stroke:none;fill-rule:nonzero;fill:rgb(93.725491%,32.549021%,31.37255%);fill-opacity:1;" d="M 7.9375 11.039062 C 8.210938 11.039062 8.433594 11.261719 8.433594 11.535156 C 8.433594 11.808594 8.210938 12.03125 7.9375 12.03125 C 7.664062 12.03125 7.441406 11.808594 7.441406 11.535156 C 7.441406 11.261719 7.664062 11.039062 7.9375 11.039062 Z M 7.9375 11.039062 "/>
<path style=" stroke:none;fill-rule:nonzero;fill:rgb(93.725491%,32.549021%,31.37255%);fill-opacity:1;" d="M 7.9375 12.363281 C 8.210938 12.363281 8.433594 12.585938 8.433594 12.859375 C 8.433594 13.132812 8.210938 13.355469 7.9375 13.355469 C 7.664062 13.355469 7.441406 13.132812 7.441406 12.859375 C 7.441406 12.585938 7.664062 12.363281 7.9375 12.363281 Z M 7.9375 12.363281 "/>
<path style=" stroke:none;fill-rule:nonzero;fill:rgb(45.882353%,45.882353%,45.882353%);fill-opacity:1;" d="M 5.789062 2.441406 C 6.0625 2.441406 6.285156 2.664062 6.285156 2.9375 C 6.285156 3.210938 6.0625 3.433594 5.789062 3.433594 C 5.515625 3.433594 5.292969 3.210938 5.292969 2.9375 C 5.292969 2.664062 5.515625 2.441406 5.789062 2.441406 Z M 5.789062 2.441406 "/>
<path style=" stroke:none;fill-rule:nonzero;fill:rgb(45.882353%,45.882353%,45.882353%);fill-opacity:1;" d="M 10.085938 2.441406 C 10.359375 2.441406 10.582031 2.664062 10.582031 2.9375 C 10.582031 3.210938 10.359375 3.433594 10.085938 3.433594 C 9.8125 3.433594 9.589844 3.210938 9.589844 2.9375 C 9.589844 2.664062 9.8125 2.441406 10.085938 2.441406 Z M 10.085938 2.441406 "/>
</g>
</svg>
