
<svg xmlns="http://www.w3.org/2000/svg" xmlns:xlink="http://www.w3.org/1999/xlink" width="16px" height="16px" viewBox="0 0 16 16" version="1.1">
<g id="surface1">
<path style=" stroke:none;fill-rule:nonzero;fill:rgb(69.01961%,74.509805%,77.254903%);fill-opacity:1;" d="M 2.644531 1.324219 L 13.230469 1.324219 C 13.960938 1.324219 14.550781 1.914062 14.550781 2.644531 L 14.550781 13.230469 C 14.550781 13.960938 13.960938 14.550781 13.230469 14.550781 L 2.644531 14.550781 C 1.914062 14.550781 1.324219 13.960938 1.324219 13.230469 L 1.324219 2.644531 C 1.324219 1.914062 1.914062 1.324219 2.644531 1.324219 Z M 2.644531 1.324219 "/>
<path style=" stroke:none;fill-rule:nonzero;fill:rgb(69.01961%,74.509805%,77.254903%);fill-opacity:1;" d="M 7.9375 0.660156 C 11.957031 0.660156 15.214844 3.917969 15.214844 7.9375 C 15.214844 11.957031 11.957031 15.214844 7.9375 15.214844 C 3.917969 15.214844 0.660156 11.957031 0.660156 7.9375 C 0.660156 3.917969 3.917969 0.660156 7.9375 0.660156 Z M 7.9375 0.660156 "/>
<path style=" stroke:none;fill-rule:nonzero;fill:rgb(25.882354%,25.882354%,25.882354%);fill-opacity:1;" d="M 7.9375 1.324219 C 11.589844 1.324219 14.550781 4.285156 14.550781 7.9375 C 14.550781 11.589844 11.589844 14.550781 7.9375 14.550781 C 4.285156 14.550781 1.324219 11.589844 1.324219 7.9375 C 1.324219 4.285156 4.285156 1.324219 7.9375 1.324219 Z M 7.9375 1.324219 "/>
<path style=" stroke:none;fill-rule:nonzero;fill:rgb(38.039216%,38.039216%,38.039216%);fill-opacity:1;" d="M 7.9375 1.984375 C 11.226562 1.984375 13.890625 4.648438 13.890625 7.9375 C 13.890625 11.226562 11.226562 13.890625 7.9375 13.890625 C 4.648438 13.890625 1.984375 11.226562 1.984375 7.9375 C 1.984375 4.648438 4.648438 1.984375 7.9375 1.984375 Z M 7.9375 1.984375 "/>
<path style=" stroke:none;fill-rule:nonzero;fill:rgb(100%,79.215688%,15.686275%);fill-opacity:1;" d="M 7.9375 2.214844 C 11.097656 2.214844 13.660156 4.777344 13.660156 7.9375 C 13.660156 11.097656 11.097656 13.660156 7.9375 13.660156 C 4.777344 13.660156 2.214844 11.097656 2.214844 7.9375 C 2.214844 4.777344 4.777344 2.214844 7.9375 2.214844 Z M 7.9375 2.214844 "/>
<path style=" stroke:none;fill-rule:nonzero;fill:rgb(25.882354%,25.882354%,25.882354%);fill-opacity:1;" d="M 7.9375 5.292969 C 9.398438 5.292969 10.582031 6.476562 10.582031 7.9375 C 10.582031 9.398438 9.398438 10.582031 7.9375 10.582031 C 6.476562 10.582031 5.292969 9.398438 5.292969 7.9375 C 5.292969 6.476562 6.476562 5.292969 7.9375 5.292969 Z M 7.9375 5.292969 "/>
<path style=" stroke:none;fill-rule:nonzero;fill:rgb(74.117649%,74.117649%,74.117649%);fill-opacity:1;" d="M 7.9375 5.953125 C 9.035156 5.953125 9.921875 6.839844 9.921875 7.9375 C 9.921875 9.035156 9.035156 9.921875 7.9375 9.921875 C 6.839844 9.921875 5.953125 9.035156 5.953125 7.9375 C 5.953125 6.839844 6.839844 5.953125 7.9375 5.953125 Z M 7.9375 5.953125 "/>
<path style=" stroke:none;fill-rule:nonzero;fill:rgb(87.843138%,87.843138%,87.843138%);fill-opacity:1;" d="M 7.230469 6.449219 C 7.390625 6.539062 7.332031 6.933594 7.105469 7.332031 C 6.875 7.726562 6.5625 7.972656 6.40625 7.882812 C 6.246094 7.789062 6.304688 7.394531 6.53125 7 C 6.761719 6.605469 7.074219 6.359375 7.230469 6.449219 Z M 7.230469 6.449219 "/>
<path style=" stroke:none;fill-rule:nonzero;fill:rgb(25.882354%,25.882354%,25.882354%);fill-opacity:1;" d="M 13.230469 2.316406 C 13.410156 2.316406 13.558594 2.464844 13.558594 2.644531 C 13.558594 2.828125 13.410156 2.976562 13.230469 2.976562 C 13.046875 2.976562 12.898438 2.828125 12.898438 2.644531 C 12.898438 2.464844 13.046875 2.316406 13.230469 2.316406 Z M 13.230469 2.316406 "/>
<path style=" stroke:none;fill-rule:nonzero;fill:rgb(25.882354%,25.882354%,25.882354%);fill-opacity:1;" d="M 13.230469 12.898438 C 13.410156 12.898438 13.558594 13.046875 13.558594 13.230469 C 13.558594 13.410156 13.410156 13.558594 13.230469 13.558594 C 13.046875 13.558594 12.898438 13.410156 12.898438 13.230469 C 12.898438 13.046875 13.046875 12.898438 13.230469 12.898438 Z M 13.230469 12.898438 "/>
<path style=" stroke:none;fill-rule:nonzero;fill:rgb(25.882354%,25.882354%,25.882354%);fill-opacity:1;" d="M 2.644531 2.316406 C 2.828125 2.316406 2.976562 2.464844 2.976562 2.644531 C 2.976562 2.828125 2.828125 2.976562 2.644531 2.976562 C 2.464844 2.976562 2.316406 2.828125 2.316406 2.644531 C 2.316406 2.464844 2.464844 2.316406 2.644531 2.316406 Z M 2.644531 2.316406 "/>
<path style=" stroke:none;fill-rule:nonzero;fill:rgb(25.882354%,25.882354%,25.882354%);fill-opacity:1;" d="M 2.644531 12.898438 C 2.828125 12.898438 2.976562 13.046875 2.976562 13.230469 C 2.976562 13.410156 2.828125 13.558594 2.644531 13.558594 C 2.464844 13.558594 2.316406 13.410156 2.316406 13.230469 C 2.316406 13.046875 2.464844 12.898438 2.644531 12.898438 Z M 2.644531 12.898438 "/>
</g>
</svg>
