<?xml version="1.0" encoding="UTF-8"?>
<svg xmlns="http://www.w3.org/2000/svg" xmlns:xlink="http://www.w3.org/1999/xlink" width="16px" height="16px" viewBox="0 0 16 16" version="1.1">
<g id="surface1">
<path style=" stroke:none;fill-rule:nonzero;fill:rgb(25.882354%,25.882354%,25.882354%);fill-opacity:1;" d="M 1.324219 0.785156 L 14.550781 0.785156 C 14.917969 0.785156 15.214844 1.082031 15.214844 1.449219 L 15.214844 14.675781 C 15.214844 15.042969 14.917969 15.339844 14.550781 15.339844 L 1.324219 15.339844 C 0.957031 15.339844 0.660156 15.042969 0.660156 14.675781 L 0.660156 1.449219 C 0.660156 1.082031 0.957031 0.785156 1.324219 0.785156 Z M 1.324219 0.785156 "/>
<path style=" stroke:none;fill-rule:nonzero;fill:rgb(100%,65.490198%,14.901961%);fill-opacity:1;" d="M 1.984375 1.777344 C 1.800781 1.777344 1.652344 1.925781 1.652344 2.109375 L 1.652344 14.015625 C 1.652344 14.199219 1.800781 14.347656 1.984375 14.347656 L 13.890625 14.347656 C 14.074219 14.347656 14.222656 14.199219 14.222656 14.015625 L 14.222656 2.109375 C 14.222656 1.925781 14.074219 1.777344 13.890625 1.777344 Z M 2.480469 2.441406 L 13.394531 2.441406 C 13.484375 2.441406 13.558594 2.515625 13.558594 2.605469 L 13.558594 13.519531 C 13.558594 13.609375 13.484375 13.683594 13.394531 13.683594 L 2.480469 13.683594 C 2.390625 13.683594 2.316406 13.609375 2.316406 13.519531 L 2.316406 2.605469 C 2.316406 2.515625 2.390625 2.441406 2.480469 2.441406 Z M 2.480469 2.441406 "/>
<path style=" stroke:none;fill-rule:nonzero;fill:rgb(100%,65.490198%,14.901961%);fill-opacity:1;" d="M 9.921875 6.078125 L 10.253906 6.078125 C 10.34375 6.078125 10.417969 6.152344 10.417969 6.242188 L 10.417969 11.203125 C 10.417969 11.296875 10.34375 11.371094 10.253906 11.371094 L 9.921875 11.371094 C 9.832031 11.371094 9.757812 11.296875 9.757812 11.203125 L 9.757812 6.242188 C 9.757812 6.152344 9.832031 6.078125 9.921875 6.078125 Z M 9.921875 6.078125 "/>
<path style=" stroke:none;fill-rule:nonzero;fill:rgb(100%,65.490198%,14.901961%);fill-opacity:1;" d="M 5.789062 4.753906 C 4.78125 4.753906 3.96875 5.492188 3.96875 6.410156 L 3.96875 9.882812 C 3.96875 9.972656 4.042969 10.046875 4.132812 10.046875 L 4.464844 10.046875 C 4.554688 10.046875 4.628906 9.972656 4.628906 9.882812 L 4.628906 8.394531 L 6.945312 8.394531 L 6.945312 9.882812 C 6.945312 9.972656 7.019531 10.046875 7.109375 10.046875 L 7.441406 10.046875 C 7.53125 10.046875 7.605469 9.972656 7.605469 9.882812 L 7.605469 6.410156 C 7.605469 5.492188 6.796875 4.753906 5.789062 4.753906 Z M 5.789062 5.417969 C 6.429688 5.417969 6.945312 5.859375 6.945312 6.410156 L 6.945312 7.730469 L 4.628906 7.730469 L 4.628906 6.410156 C 4.628906 5.859375 5.144531 5.417969 5.789062 5.417969 Z M 5.789062 5.417969 "/>
</g>
</svg>
