<?xml version="1.0" encoding="UTF-8"?>
<svg xmlns="http://www.w3.org/2000/svg" xmlns:xlink="http://www.w3.org/1999/xlink" width="16px" height="16px" viewBox="0 0 16 16" version="1.1">
<g id="surface1">
<path style=" stroke:none;fill-rule:nonzero;fill:rgb(74.117649%,74.117649%,74.117649%);fill-opacity:1;" d="M 2.644531 0.785156 C 2.460938 0.785156 2.316406 0.933594 2.316406 1.117188 L 2.316406 2.441406 L 0.992188 2.441406 C 0.808594 2.441406 0.660156 2.585938 0.660156 2.769531 C 0.660156 2.953125 0.808594 3.101562 0.992188 3.101562 L 2.316406 3.101562 L 2.316406 3.761719 L 0.992188 3.761719 C 0.808594 3.761719 0.660156 3.910156 0.660156 4.09375 C 0.660156 4.277344 0.808594 4.425781 0.992188 4.425781 L 2.316406 4.425781 L 2.316406 5.085938 L 0.992188 5.085938 C 0.808594 5.085938 0.660156 5.234375 0.660156 5.417969 C 0.660156 5.601562 0.808594 5.746094 0.992188 5.746094 L 2.316406 5.746094 L 2.316406 6.410156 L 0.992188 6.410156 C 0.808594 6.410156 0.660156 6.554688 0.660156 6.738281 C 0.660156 6.921875 0.808594 7.070312 0.992188 7.070312 L 2.316406 7.070312 L 2.316406 7.730469 L 0.992188 7.730469 C 0.808594 7.730469 0.660156 7.878906 0.660156 8.0625 C 0.660156 8.246094 0.808594 8.394531 0.992188 8.394531 L 2.316406 8.394531 L 2.316406 9.054688 L 0.992188 9.054688 C 0.808594 9.054688 0.660156 9.203125 0.660156 9.386719 C 0.660156 9.570312 0.808594 9.714844 0.992188 9.714844 L 2.316406 9.714844 L 2.316406 10.378906 L 0.992188 10.378906 C 0.808594 10.378906 0.660156 10.523438 0.660156 10.707031 C 0.660156 10.890625 0.808594 11.039062 0.992188 11.039062 L 2.316406 11.039062 L 2.316406 11.699219 L 0.992188 11.699219 C 0.808594 11.699219 0.660156 11.847656 0.660156 12.03125 C 0.660156 12.214844 0.808594 12.363281 0.992188 12.363281 L 2.316406 12.363281 L 2.316406 13.023438 L 0.992188 13.023438 C 0.808594 13.023438 0.660156 13.171875 0.660156 13.355469 C 0.660156 13.539062 0.808594 13.683594 0.992188 13.683594 L 2.316406 13.683594 L 2.316406 15.007812 C 2.316406 15.191406 2.460938 15.339844 2.644531 15.339844 C 2.828125 15.339844 2.976562 15.191406 2.976562 15.007812 L 2.976562 13.683594 L 3.636719 13.683594 L 3.636719 15.007812 C 3.636719 15.191406 3.785156 15.339844 3.96875 15.339844 C 4.152344 15.339844 4.300781 15.191406 4.300781 15.007812 L 4.300781 13.683594 L 4.960938 13.683594 L 4.960938 15.007812 C 4.960938 15.191406 5.109375 15.339844 5.292969 15.339844 C 5.476562 15.339844 5.621094 15.191406 5.621094 15.007812 L 5.621094 13.683594 L 6.285156 13.683594 L 6.285156 15.007812 C 6.285156 15.191406 6.429688 15.339844 6.613281 15.339844 C 6.796875 15.339844 6.945312 15.191406 6.945312 15.007812 L 6.945312 13.683594 L 7.605469 13.683594 L 7.605469 15.007812 C 7.605469 15.191406 7.753906 15.339844 7.9375 15.339844 C 8.121094 15.339844 8.269531 15.191406 8.269531 15.007812 L 8.269531 13.683594 L 8.929688 13.683594 L 8.929688 15.007812 C 8.929688 15.191406 9.078125 15.339844 9.261719 15.339844 C 9.445312 15.339844 9.589844 15.191406 9.589844 15.007812 L 9.589844 13.683594 L 10.253906 13.683594 L 10.253906 15.007812 C 10.253906 15.191406 10.398438 15.339844 10.582031 15.339844 C 10.765625 15.339844 10.914062 15.191406 10.914062 15.007812 L 10.914062 13.683594 L 11.574219 13.683594 L 11.574219 15.007812 C 11.574219 15.191406 11.722656 15.339844 11.90625 15.339844 C 12.089844 15.339844 12.238281 15.191406 12.238281 15.007812 L 12.238281 13.683594 L 12.898438 13.683594 L 12.898438 15.007812 C 12.898438 15.191406 13.046875 15.339844 13.230469 15.339844 C 13.414062 15.339844 13.558594 15.191406 13.558594 15.007812 L 13.558594 13.683594 L 14.882812 13.683594 C 15.066406 13.683594 15.214844 13.539062 15.214844 13.355469 C 15.214844 13.171875 15.066406 13.023438 14.882812 13.023438 L 13.558594 13.023438 L 13.558594 12.363281 L 14.882812 12.363281 C 15.066406 12.363281 15.214844 12.214844 15.214844 12.03125 C 15.214844 11.847656 15.066406 11.699219 14.882812 11.699219 L 13.558594 11.699219 L 13.558594 11.039062 L 14.882812 11.039062 C 15.066406 11.039062 15.214844 10.890625 15.214844 10.707031 C 15.214844 10.523438 15.066406 10.378906 14.882812 10.378906 L 13.558594 10.378906 L 13.558594 9.714844 L 14.882812 9.714844 C 15.066406 9.714844 15.214844 9.570312 15.214844 9.386719 C 15.214844 9.203125 15.066406 9.054688 14.882812 9.054688 L 13.558594 9.054688 L 13.558594 8.394531 L 14.882812 8.394531 C 15.066406 8.394531 15.214844 8.246094 15.214844 8.0625 C 15.214844 7.878906 15.066406 7.730469 14.882812 7.730469 L 13.558594 7.730469 L 13.558594 7.070312 L 14.882812 7.070312 C 15.066406 7.070312 15.214844 6.921875 15.214844 6.738281 C 15.214844 6.554688 15.066406 6.410156 14.882812 6.410156 L 13.558594 6.410156 L 13.558594 5.746094 L 14.882812 5.746094 C 15.066406 5.746094 15.214844 5.601562 15.214844 5.417969 C 15.214844 5.234375 15.066406 5.085938 14.882812 5.085938 L 13.558594 5.085938 L 13.558594 4.425781 L 14.882812 4.425781 C 15.066406 4.425781 15.214844 4.277344 15.214844 4.09375 C 15.214844 3.910156 15.066406 3.761719 14.882812 3.761719 L 13.558594 3.761719 L 13.558594 3.101562 L 14.882812 3.101562 C 15.066406 3.101562 15.214844 2.953125 15.214844 2.769531 C 15.214844 2.585938 15.066406 2.441406 14.882812 2.441406 L 13.558594 2.441406 L 13.558594 1.117188 C 13.558594 0.933594 13.414062 0.785156 13.230469 0.785156 C 13.046875 0.785156 12.898438 0.933594 12.898438 1.117188 L 12.898438 2.441406 L 12.238281 2.441406 L 12.238281 1.117188 C 12.238281 0.933594 12.089844 0.785156 11.90625 0.785156 C 11.722656 0.785156 11.574219 0.933594 11.574219 1.117188 L 11.574219 2.441406 L 10.914062 2.441406 L 10.914062 1.117188 C 10.914062 0.933594 10.765625 0.785156 10.582031 0.785156 C 10.398438 0.785156 10.253906 0.933594 10.253906 1.117188 L 10.253906 2.441406 L 9.589844 2.441406 L 9.589844 1.117188 C 9.589844 0.933594 9.445312 0.785156 9.261719 0.785156 C 9.078125 0.785156 8.929688 0.933594 8.929688 1.117188 L 8.929688 2.441406 L 8.269531 2.441406 L 8.269531 1.117188 C 8.269531 0.933594 8.121094 0.785156 7.9375 0.785156 C 7.753906 0.785156 7.605469 0.933594 7.605469 1.117188 L 7.605469 2.441406 L 6.945312 2.441406 L 6.945312 1.117188 C 6.945312 0.933594 6.796875 0.785156 6.613281 0.785156 C 6.429688 0.785156 6.285156 0.933594 6.285156 1.117188 L 6.285156 2.441406 L 5.621094 2.441406 L 5.621094 1.117188 C 5.621094 0.933594 5.476562 0.785156 5.292969 0.785156 C 5.109375 0.785156 4.960938 0.933594 4.960938 1.117188 L 4.960938 2.441406 L 4.300781 2.441406 L 4.300781 1.117188 C 4.300781 0.933594 4.152344 0.785156 3.96875 0.785156 C 3.785156 0.785156 3.636719 0.933594 3.636719 1.117188 L 3.636719 2.441406 L 2.976562 2.441406 L 2.976562 1.117188 C 2.976562 0.933594 2.828125 0.785156 2.644531 0.785156 Z M 2.976562 3.101562 L 3.636719 3.101562 L 3.636719 3.761719 L 2.976562 3.761719 Z M 4.300781 3.101562 L 4.960938 3.101562 L 4.960938 3.761719 L 4.300781 3.761719 Z M 5.621094 3.101562 L 6.285156 3.101562 L 6.285156 3.761719 L 5.621094 3.761719 Z M 6.945312 3.101562 L 7.605469 3.101562 L 7.605469 3.761719 L 6.945312 3.761719 Z M 8.269531 3.101562 L 8.929688 3.101562 L 8.929688 3.761719 L 8.269531 3.761719 Z M 9.589844 3.101562 L 10.253906 3.101562 L 10.253906 3.761719 L 9.589844 3.761719 Z M 10.914062 3.101562 L 11.574219 3.101562 L 11.574219 3.761719 L 10.914062 3.761719 Z M 12.238281 3.101562 L 12.898438 3.101562 L 12.898438 3.761719 L 12.238281 3.761719 Z M 2.976562 4.425781 L 3.636719 4.425781 L 3.636719 5.085938 L 2.976562 5.085938 Z M 4.300781 4.425781 L 4.960938 4.425781 L 4.960938 5.085938 L 4.300781 5.085938 Z M 5.621094 4.425781 L 6.285156 4.425781 L 6.285156 5.085938 L 5.621094 5.085938 Z M 6.945312 4.425781 L 7.605469 4.425781 L 7.605469 5.085938 L 6.945312 5.085938 Z M 8.269531 4.425781 L 8.929688 4.425781 L 8.929688 5.085938 L 8.269531 5.085938 Z M 9.589844 4.425781 L 10.253906 4.425781 L 10.253906 5.085938 L 9.589844 5.085938 Z M 10.914062 4.425781 L 11.574219 4.425781 L 11.574219 5.085938 L 10.914062 5.085938 Z M 12.238281 4.425781 L 12.898438 4.425781 L 12.898438 5.085938 L 12.238281 5.085938 Z M 2.976562 5.746094 L 3.636719 5.746094 L 3.636719 6.410156 L 2.976562 6.410156 Z M 4.300781 5.746094 L 4.960938 5.746094 L 4.960938 6.410156 L 4.300781 6.410156 Z M 5.621094 5.746094 L 6.285156 5.746094 L 6.285156 6.410156 L 5.621094 6.410156 Z M 6.945312 5.746094 L 7.605469 5.746094 L 7.605469 6.410156 L 6.945312 6.410156 Z M 8.269531 5.746094 L 8.929688 5.746094 L 8.929688 6.410156 L 8.269531 6.410156 Z M 9.589844 5.746094 L 10.253906 5.746094 L 10.253906 6.410156 L 9.589844 6.410156 Z M 10.914062 5.746094 L 11.574219 5.746094 L 11.574219 6.410156 L 10.914062 6.410156 Z M 12.238281 5.746094 L 12.898438 5.746094 L 12.898438 6.410156 L 12.238281 6.410156 Z M 2.976562 7.070312 L 3.636719 7.070312 L 3.636719 7.730469 L 2.976562 7.730469 Z M 4.300781 7.070312 L 4.960938 7.070312 L 4.960938 7.730469 L 4.300781 7.730469 Z M 5.621094 7.070312 L 6.285156 7.070312 L 6.285156 7.730469 L 5.621094 7.730469 Z M 6.945312 7.070312 L 7.605469 7.070312 L 7.605469 7.730469 L 6.945312 7.730469 Z M 8.269531 7.070312 L 8.929688 7.070312 L 8.929688 7.730469 L 8.269531 7.730469 Z M 9.589844 7.070312 L 10.253906 7.070312 L 10.253906 7.730469 L 9.589844 7.730469 Z M 10.914062 7.070312 L 11.574219 7.070312 L 11.574219 7.730469 L 10.914062 7.730469 Z M 12.238281 7.070312 L 12.898438 7.070312 L 12.898438 7.730469 L 12.238281 7.730469 Z M 2.976562 8.394531 L 3.636719 8.394531 L 3.636719 9.054688 L 2.976562 9.054688 Z M 4.300781 8.394531 L 4.960938 8.394531 L 4.960938 9.054688 L 4.300781 9.054688 Z M 5.621094 8.394531 L 6.285156 8.394531 L 6.285156 9.054688 L 5.621094 9.054688 Z M 6.945312 8.394531 L 7.605469 8.394531 L 7.605469 9.054688 L 6.945312 9.054688 Z M 8.269531 8.394531 L 8.929688 8.394531 L 8.929688 9.054688 L 8.269531 9.054688 Z M 9.589844 8.394531 L 10.253906 8.394531 L 10.253906 9.054688 L 9.589844 9.054688 Z M 10.914062 8.394531 L 11.574219 8.394531 L 11.574219 9.054688 L 10.914062 9.054688 Z M 12.238281 8.394531 L 12.898438 8.394531 L 12.898438 9.054688 L 12.238281 9.054688 Z M 2.976562 9.714844 L 3.636719 9.714844 L 3.636719 10.378906 L 2.976562 10.378906 Z M 4.300781 9.714844 L 4.960938 9.714844 L 4.960938 10.378906 L 4.300781 10.378906 Z M 5.621094 9.714844 L 6.285156 9.714844 L 6.285156 10.378906 L 5.621094 10.378906 Z M 6.945312 9.714844 L 7.605469 9.714844 L 7.605469 10.378906 L 6.945312 10.378906 Z M 8.269531 9.714844 L 8.929688 9.714844 L 8.929688 10.378906 L 8.269531 10.378906 Z M 9.589844 9.714844 L 10.253906 9.714844 L 10.253906 10.378906 L 9.589844 10.378906 Z M 10.914062 9.714844 L 11.574219 9.714844 L 11.574219 10.378906 L 10.914062 10.378906 Z M 12.238281 9.714844 L 12.898438 9.714844 L 12.898438 10.378906 L 12.238281 10.378906 Z M 2.976562 11.039062 L 3.636719 11.039062 L 3.636719 11.699219 L 2.976562 11.699219 Z M 4.300781 11.039062 L 4.960938 11.039062 L 4.960938 11.699219 L 4.300781 11.699219 Z M 5.621094 11.039062 L 6.285156 11.039062 L 6.285156 11.699219 L 5.621094 11.699219 Z M 6.945312 11.039062 L 7.605469 11.039062 L 7.605469 11.699219 L 6.945312 11.699219 Z M 8.269531 11.039062 L 8.929688 11.039062 L 8.929688 11.699219 L 8.269531 11.699219 Z M 9.589844 11.039062 L 10.253906 11.039062 L 10.253906 11.699219 L 9.589844 11.699219 Z M 10.914062 11.039062 L 11.574219 11.039062 L 11.574219 11.699219 L 10.914062 11.699219 Z M 12.238281 11.039062 L 12.898438 11.039062 L 12.898438 11.699219 L 12.238281 11.699219 Z M 2.976562 12.363281 L 3.636719 12.363281 L 3.636719 13.023438 L 2.976562 13.023438 Z M 4.300781 12.363281 L 4.960938 12.363281 L 4.960938 13.023438 L 4.300781 13.023438 Z M 5.621094 12.363281 L 6.285156 12.363281 L 6.285156 13.023438 L 5.621094 13.023438 Z M 6.945312 12.363281 L 7.605469 12.363281 L 7.605469 13.023438 L 6.945312 13.023438 Z M 8.269531 12.363281 L 8.929688 12.363281 L 8.929688 13.023438 L 8.269531 13.023438 Z M 9.589844 12.363281 L 10.253906 12.363281 L 10.253906 13.023438 L 9.589844 13.023438 Z M 10.914062 12.363281 L 11.574219 12.363281 L 11.574219 13.023438 L 10.914062 13.023438 Z M 12.238281 12.363281 L 12.898438 12.363281 L 12.898438 13.023438 L 12.238281 13.023438 Z M 12.238281 12.363281 "/>
<path style=" stroke:none;fill-rule:nonzero;fill:rgb(25.882354%,25.882354%,25.882354%);fill-opacity:1;" d="M 1.984375 1.449219 L 13.890625 1.449219 C 14.257812 1.449219 14.550781 1.742188 14.550781 2.109375 L 14.550781 14.015625 C 14.550781 14.382812 14.257812 14.675781 13.890625 14.675781 L 1.984375 14.675781 C 1.617188 14.675781 1.324219 14.382812 1.324219 14.015625 L 1.324219 2.109375 C 1.324219 1.742188 1.617188 1.449219 1.984375 1.449219 Z M 1.984375 1.449219 "/>
<path style=" stroke:none;fill-rule:nonzero;fill:rgb(69.01961%,74.509805%,77.254903%);fill-opacity:1;" d="M 7.9375 6.410156 C 9.945312 6.410156 11.574219 8.039062 11.574219 10.046875 C 11.574219 12.054688 9.945312 13.683594 7.9375 13.683594 C 5.929688 13.683594 4.300781 12.054688 4.300781 10.046875 C 4.300781 8.039062 5.929688 6.410156 7.9375 6.410156 Z M 7.9375 6.410156 "/>
<path style=" stroke:none;fill-rule:nonzero;fill:rgb(69.01961%,74.509805%,77.254903%);fill-opacity:1;" d="M 6.285156 2.769531 L 9.589844 2.769531 L 9.589844 9.054688 L 6.285156 9.054688 Z M 6.285156 2.769531 "/>
<path style=" stroke:none;fill-rule:nonzero;fill:rgb(100%,65.490198%,14.901961%);fill-opacity:1;" d="M 6.945312 4.753906 L 8.929688 4.753906 L 8.929688 7.730469 L 6.945312 7.730469 Z M 6.945312 4.753906 "/>
<path style=" stroke:none;fill-rule:nonzero;fill:rgb(93.725491%,32.549021%,31.37255%);fill-opacity:1;" d="M 7.9375 7.070312 C 9.582031 7.070312 10.914062 8.402344 10.914062 10.046875 C 10.914062 11.691406 9.582031 13.023438 7.9375 13.023438 C 6.292969 13.023438 4.960938 11.691406 4.960938 10.046875 C 4.960938 8.402344 6.292969 7.070312 7.9375 7.070312 Z M 7.9375 7.070312 "/>
<path style=" stroke:none;fill-rule:nonzero;fill:rgb(81.176472%,84.705883%,86.274511%);fill-opacity:1;" d="M 6.285156 2.109375 L 9.589844 2.109375 C 9.773438 2.109375 9.921875 2.257812 9.921875 2.441406 C 9.921875 2.621094 9.773438 2.769531 9.589844 2.769531 L 6.285156 2.769531 C 6.101562 2.769531 5.953125 2.621094 5.953125 2.441406 C 5.953125 2.257812 6.101562 2.109375 6.285156 2.109375 Z M 6.285156 2.109375 "/>
<path style=" stroke:none;fill-rule:nonzero;fill:rgb(40.000001%,73.333335%,41.568628%);fill-opacity:1;" d="M 6.945312 2.769531 L 8.929688 2.769531 L 8.929688 4.753906 L 6.945312 4.753906 Z M 6.945312 2.769531 "/>
<path style=" stroke:none;fill-rule:nonzero;fill:rgb(93.725491%,32.549021%,31.37255%);fill-opacity:1;" d="M 6.945312 6.738281 L 8.929688 6.738281 L 8.929688 8.394531 L 6.945312 8.394531 Z M 6.945312 6.738281 "/>
</g>
</svg>
