<?xml version="1.0" encoding="UTF-8"?>
<svg xmlns="http://www.w3.org/2000/svg" xmlns:xlink="http://www.w3.org/1999/xlink" width="16px" height="16px" viewBox="0 0 16 16" version="1.1">
<g id="surface1">
<path style=" stroke:none;fill-rule:nonzero;fill:rgb(38.039216%,38.039216%,38.039216%);fill-opacity:1;" d="M 7.9375 0.785156 C 5.371094 0.785156 3.308594 2.851562 3.308594 5.417969 L 3.308594 12.691406 L 4.628906 12.691406 L 4.628906 8.722656 L 11.246094 8.722656 L 11.246094 12.691406 L 12.566406 12.691406 L 12.566406 5.417969 C 12.566406 2.851562 10.503906 0.785156 7.9375 0.785156 Z M 7.9375 2.109375 C 9.769531 2.109375 11.246094 3.585938 11.246094 5.417969 L 11.246094 7.402344 L 4.628906 7.402344 L 4.628906 5.417969 C 4.628906 3.585938 6.105469 2.109375 7.9375 2.109375 Z M 7.9375 2.109375 "/>
<path style=" stroke:none;fill-rule:nonzero;fill:rgb(40.000001%,73.333335%,41.568628%);fill-opacity:1;" d="M 0.992188 14.015625 L 14.882812 14.015625 C 15.066406 14.015625 15.214844 14.164062 15.214844 14.347656 L 15.214844 15.007812 C 15.214844 15.191406 15.066406 15.339844 14.882812 15.339844 L 0.992188 15.339844 C 0.808594 15.339844 0.660156 15.191406 0.660156 15.007812 L 0.660156 14.347656 C 0.660156 14.164062 0.808594 14.015625 0.992188 14.015625 Z M 0.992188 14.015625 "/>
</g>
</svg>
