<?xml version="1.0" encoding="UTF-8"?>
<svg xmlns="http://www.w3.org/2000/svg" xmlns:xlink="http://www.w3.org/1999/xlink" width="16px" height="16px" viewBox="0 0 16 16" version="1.1">
<g id="surface1">
<path style=" stroke:none;fill-rule:nonzero;fill:rgb(24.705882%,31.764707%,70.980394%);fill-opacity:1;" d="M 13.230469 11.746094 C 13.410156 11.746094 13.558594 11.894531 13.558594 12.074219 L 13.558594 14.675781 C 13.558594 14.925781 13.289062 15.085938 13.070312 14.964844 L 10.09375 13.023438 C 9.988281 12.964844 9.925781 12.855469 9.925781 12.738281 L 9.925781 12.074219 C 9.925781 11.894531 10.070312 11.746094 10.253906 11.746094 Z M 13.230469 11.746094 "/>
<path style=" stroke:none;fill-rule:nonzero;fill:rgb(36.078432%,41.960785%,75.294119%);fill-opacity:1;" d="M 1.324219 1.117188 L 14.550781 1.117188 C 14.917969 1.117188 15.214844 1.414062 15.214844 1.777344 L 15.214844 12.363281 C 15.214844 12.726562 14.917969 13.023438 14.550781 13.023438 L 1.324219 13.023438 C 0.957031 13.023438 0.660156 12.726562 0.660156 12.363281 L 0.660156 1.777344 C 0.660156 1.414062 0.957031 1.117188 1.324219 1.117188 Z M 1.324219 1.117188 "/>
<path style=" stroke:none;fill-rule:nonzero;fill:rgb(93.333334%,93.333334%,93.333334%);fill-opacity:1;" d="M 6.316406 7.996094 C 5.886719 7.996094 5.539062 8.339844 5.539062 8.769531 C 5.539062 9.167969 5.832031 9.492188 6.214844 9.539062 C 6.097656 9.902344 5.796875 10.011719 6.003906 10.011719 C 6.511719 9.960938 7.078125 9.40625 7.089844 8.792969 C 7.089844 8.785156 7.089844 8.777344 7.089844 8.769531 C 7.089844 8.339844 6.746094 7.996094 6.316406 7.996094 Z M 6.316406 7.996094 "/>
<path style=" stroke:none;fill-rule:nonzero;fill:rgb(93.333334%,93.333334%,93.333334%);fill-opacity:1;" d="M 5.519531 5.371094 C 5.519531 4.945312 5.867188 4.597656 6.292969 4.597656 C 6.722656 4.597656 7.070312 4.945312 7.070312 5.371094 C 7.070312 5.800781 6.722656 6.148438 6.292969 6.148438 C 5.867188 6.148438 5.519531 5.800781 5.519531 5.371094 Z M 5.519531 5.371094 "/>
<path style=" stroke:none;fill-rule:nonzero;fill:rgb(93.333334%,93.333334%,93.333334%);fill-opacity:1;" d="M 9.378906 4.421875 C 9.253906 4.421875 9.136719 4.496094 9.082031 4.613281 C 9.03125 4.730469 9.050781 4.871094 9.132812 4.96875 C 9.453125 5.351562 9.675781 6.210938 9.675781 7.070312 C 9.675781 7.929688 9.453125 8.789062 9.132812 9.171875 C 9.054688 9.265625 9.03125 9.390625 9.074219 9.5 C 9.113281 9.613281 9.210938 9.695312 9.328125 9.714844 C 9.445312 9.734375 9.566406 9.691406 9.640625 9.597656 C 10.148438 8.988281 10.339844 8.03125 10.339844 7.070312 C 10.339844 6.109375 10.148438 5.152344 9.640625 4.542969 C 9.578125 4.464844 9.480469 4.417969 9.378906 4.421875 Z M 9.378906 4.421875 "/>
</g>
</svg>
