
<svg xmlns="http://www.w3.org/2000/svg" xmlns:xlink="http://www.w3.org/1999/xlink" width="16px" height="16px" viewBox="0 0 16 16" version="1.1">
<g id="surface1">
<path style=" stroke:none;fill-rule:nonzero;fill:rgb(61.176473%,80.000001%,39.607844%);fill-opacity:1;" d="M 7.9375 0.660156 C 5.539062 0.660156 3.417969 1.8125 2.09375 3.59375 C 2.429688 3.8125 2.800781 4.054688 3.203125 4.316406 C 4.289062 2.898438 6.003906 1.984375 7.9375 1.984375 C 11.234375 1.984375 13.890625 4.640625 13.890625 7.9375 C 13.890625 11.234375 11.234375 13.890625 7.9375 13.890625 C 6.175781 13.890625 4.59375 13.132812 3.507812 11.921875 L 2.410156 12.679688 C 3.742188 14.234375 5.722656 15.214844 7.9375 15.214844 C 11.96875 15.214844 15.214844 11.96875 15.214844 7.9375 C 15.214844 3.90625 11.96875 0.660156 7.9375 0.660156 Z M 0.660156 3.308594 L 0.660156 12.566406 L 7.9375 7.9375 C 7.277344 7.9375 0.660156 3.308594 0.660156 3.308594 Z M 7.9375 3.308594 C 6.472656 3.308594 5.167969 3.980469 4.320312 5.039062 C 4.691406 5.28125 5.070312 5.519531 5.445312 5.757812 C 6.050781 5.066406 6.941406 4.628906 7.9375 4.628906 C 9.769531 4.628906 11.246094 6.105469 11.246094 7.9375 C 11.246094 9.769531 9.769531 11.246094 7.9375 11.246094 C 7.082031 11.246094 6.300781 10.921875 5.714844 10.390625 L 4.605469 11.160156 C 5.445312 12.027344 6.628906 12.566406 7.9375 12.566406 C 10.503906 12.566406 12.566406 10.503906 12.566406 7.9375 C 12.566406 5.371094 10.503906 3.308594 7.9375 3.308594 Z M 7.9375 3.308594 "/>
</g>
</svg>
