
<svg xmlns="http://www.w3.org/2000/svg" xmlns:xlink="http://www.w3.org/1999/xlink" width="16px" height="16px" viewBox="0 0 16 16" version="1.1">
<g id="surface1">
<path style=" stroke:none;fill-rule:nonzero;fill:rgb(45.882353%,45.882353%,45.882353%);fill-opacity:1;" d="M 2.316406 1.652344 L 14.550781 1.652344 C 14.917969 1.652344 15.214844 1.949219 15.214844 2.316406 L 15.214844 6.285156 C 15.214844 6.648438 14.917969 6.945312 14.550781 6.945312 L 2.316406 6.945312 C 1.949219 6.945312 1.652344 6.648438 1.652344 6.285156 L 1.652344 2.316406 C 1.652344 1.949219 1.949219 1.652344 2.316406 1.652344 Z M 2.316406 1.652344 "/>
<path style=" stroke:none;fill-rule:nonzero;fill:rgb(96.078432%,96.078432%,96.078432%);fill-opacity:1;" d="M 7.9375 3.636719 L 14.550781 3.636719 C 14.734375 3.636719 14.882812 3.785156 14.882812 3.96875 L 14.882812 6.285156 C 14.882812 6.464844 14.734375 6.613281 14.550781 6.613281 L 7.9375 6.613281 C 7.753906 6.613281 7.605469 6.464844 7.605469 6.285156 L 7.605469 3.96875 C 7.605469 3.785156 7.753906 3.636719 7.9375 3.636719 Z M 7.9375 3.636719 "/>
<path style=" stroke:none;fill-rule:nonzero;fill:rgb(61.960787%,61.960787%,61.960787%);fill-opacity:1;" d="M 1.324219 2.976562 C 0.957031 2.976562 0.660156 3.273438 0.660156 3.636719 L 0.660156 13.558594 C 0.660156 13.925781 0.957031 14.222656 1.324219 14.222656 L 14.550781 14.222656 C 14.917969 14.222656 15.214844 13.925781 15.214844 13.558594 L 15.214844 5.621094 C 15.214844 5.257812 14.917969 4.960938 14.550781 4.960938 L 10.253906 4.960938 C 9.886719 4.960938 9.589844 4.664062 9.589844 4.300781 L 9.589844 3.636719 C 9.589844 3.273438 9.296875 2.976562 8.929688 2.976562 Z M 1.324219 2.976562 "/>
</g>
</svg>
