
<svg xmlns="http://www.w3.org/2000/svg" xmlns:xlink="http://www.w3.org/1999/xlink" width="16px" height="16px" viewBox="0 0 16 16" version="1.1">
<g id="surface1">
<path style=" stroke:none;fill-rule:nonzero;fill:rgb(87.843138%,87.843138%,87.843138%);fill-opacity:1;" d="M 2.644531 0.660156 L 13.230469 0.660156 C 14.324219 0.660156 15.214844 1.550781 15.214844 2.644531 L 15.214844 13.230469 C 15.214844 14.324219 14.324219 15.214844 13.230469 15.214844 L 2.644531 15.214844 C 1.550781 15.214844 0.660156 14.324219 0.660156 13.230469 L 0.660156 2.644531 C 0.660156 1.550781 1.550781 0.660156 2.644531 0.660156 Z M 2.644531 0.660156 "/>
<path style=" stroke:none;fill-rule:nonzero;fill:rgb(93.333334%,93.333334%,93.333334%);fill-opacity:1;" d="M 7.9375 1.324219 C 11.589844 1.324219 14.550781 4.285156 14.550781 7.9375 C 14.550781 11.589844 11.589844 14.550781 7.9375 14.550781 C 4.285156 14.550781 1.324219 11.589844 1.324219 7.9375 C 1.324219 4.285156 4.285156 1.324219 7.9375 1.324219 Z M 7.9375 1.324219 "/>
<path style=" stroke:none;fill-rule:nonzero;fill:rgb(14.901961%,65.098041%,60.392159%);fill-opacity:1;" d="M 7.191406 2.699219 C 6.558594 2.945312 6.15625 3.25 5.921875 3.542969 C 5.613281 3.925781 5.546875 4.300781 5.632812 4.75 C 5.8125 5.648438 6.828125 6.777344 8.191406 7.324219 C 9.945312 8.027344 11.003906 9.5625 11.007812 11.144531 C 11.007812 11.582031 10.921875 12.015625 10.75 12.425781 C 12.675781 11.230469 13.675781 8.878906 13.054688 6.566406 C 12.351562 3.941406 9.816406 2.316406 7.191406 2.699219 Z M 4.304688 4.089844 C 2.9375 5.378906 2.3125 7.355469 2.832031 9.304688 C 3.503906 11.804688 5.832031 13.398438 8.316406 13.21875 C 9.316406 12.703125 9.683594 11.929688 9.683594 11.144531 C 9.683594 10.160156 9.011719 9.078125 7.699219 8.550781 C 5.992188 7.867188 4.640625 6.546875 4.335938 5.007812 C 4.277344 4.707031 4.265625 4.398438 4.304688 4.089844 Z M 4.304688 4.089844 "/>
</g>
</svg>
