<?xml version="1.0" encoding="UTF-8"?>
<svg xmlns="http://www.w3.org/2000/svg" xmlns:xlink="http://www.w3.org/1999/xlink" width="16px" height="16px" viewBox="0 0 16 16" version="1.1">
<g id="surface1">
<path style=" stroke:none;fill-rule:nonzero;fill:rgb(39.215687%,70.980394%,96.470588%);fill-opacity:1;" d="M 7.9375 0.785156 C 11.957031 0.785156 15.214844 4.042969 15.214844 8.0625 C 15.214844 12.082031 11.957031 15.339844 7.9375 15.339844 C 3.917969 15.339844 0.660156 12.082031 0.660156 8.0625 C 0.660156 4.042969 3.917969 0.785156 7.9375 0.785156 Z M 7.9375 0.785156 "/>
<path style=" stroke:none;fill-rule:nonzero;fill:rgb(56.470591%,79.215688%,97.647059%);fill-opacity:1;" d="M 4.550781 2.558594 C 5.496094 2.035156 6.488281 2.015625 6.769531 2.519531 C 7.050781 3.023438 6.511719 3.859375 5.566406 4.382812 C 4.621094 4.910156 3.628906 4.925781 3.347656 4.421875 C 3.070312 3.917969 3.605469 3.085938 4.550781 2.558594 Z M 4.550781 2.558594 "/>
<path style=" stroke:none;fill-rule:nonzero;fill:rgb(25.882354%,64.705884%,96.078432%);fill-opacity:1;" d="M 15.121094 6.886719 C 12.535156 10.410156 8.363281 12.691406 3.636719 12.691406 C 3.175781 12.691406 2.714844 12.671875 2.261719 12.628906 C 3.59375 14.28125 5.636719 15.339844 7.9375 15.339844 C 11.96875 15.339844 15.214844 12.09375 15.214844 8.0625 C 15.214844 7.660156 15.179688 7.269531 15.121094 6.886719 Z M 15.121094 6.886719 "/>
</g>
</svg>
