<?xml version="1.0" encoding="UTF-8"?>
<svg xmlns="http://www.w3.org/2000/svg" xmlns:xlink="http://www.w3.org/1999/xlink" width="16px" height="16px" viewBox="0 0 16 16" version="1.1">
<g id="surface1">
<path style=" stroke:none;fill-rule:nonzero;fill:rgb(100%,65.490198%,14.901961%);fill-opacity:1;" d="M 7.9375 0.785156 C 11.957031 0.785156 15.214844 4.042969 15.214844 8.0625 C 15.214844 12.082031 11.957031 15.339844 7.9375 15.339844 C 3.917969 15.339844 0.660156 12.082031 0.660156 8.0625 C 0.660156 4.042969 3.917969 0.785156 7.9375 0.785156 Z M 7.9375 0.785156 "/>
<path style=" stroke:none;fill-rule:nonzero;fill:rgb(25.882354%,25.882354%,25.882354%);fill-opacity:1;" d="M 7.605469 3.761719 C 7.058594 3.761719 6.613281 4.207031 6.613281 4.753906 C 6.613281 5.304688 7.058594 5.746094 7.605469 5.746094 C 8.15625 5.746094 8.597656 5.304688 8.597656 4.753906 C 8.597656 4.207031 8.15625 3.761719 7.605469 3.761719 Z M 7.605469 6.078125 C 7.058594 6.078125 6.613281 6.519531 6.613281 7.070312 L 6.613281 9.550781 C 6.613281 9.824219 6.835938 10.046875 7.109375 10.046875 L 9.921875 10.046875 L 9.921875 11.867188 C 9.921875 12.140625 10.144531 12.363281 10.417969 12.363281 C 10.691406 12.363281 10.914062 12.140625 10.914062 11.867188 L 10.914062 9.550781 C 10.914062 9.449219 10.882812 9.351562 10.828125 9.273438 C 10.820312 9.261719 10.8125 9.246094 10.800781 9.234375 C 10.726562 9.144531 10.617188 9.078125 10.492188 9.058594 C 10.476562 9.058594 10.460938 9.054688 10.445312 9.054688 C 10.433594 9.054688 10.425781 9.054688 10.417969 9.054688 L 8.597656 9.054688 L 8.597656 7.730469 L 10.417969 7.730469 C 10.691406 7.730469 10.914062 7.511719 10.914062 7.234375 C 10.914062 6.960938 10.691406 6.738281 10.417969 6.738281 L 8.542969 6.738281 C 8.40625 6.351562 8.039062 6.078125 7.605469 6.078125 Z M 6.285156 7.421875 C 5.492188 7.878906 4.960938 8.734375 4.960938 9.714844 C 4.960938 11.183594 6.140625 12.363281 7.605469 12.363281 C 8.398438 12.363281 9.105469 12.015625 9.589844 11.46875 L 9.589844 10.707031 L 8.929688 10.707031 C 8.628906 11.109375 8.148438 11.371094 7.605469 11.371094 C 6.691406 11.371094 5.953125 10.632812 5.953125 9.714844 C 5.953125 9.34375 6.074219 8.996094 6.285156 8.722656 Z M 6.285156 7.421875 "/>
</g>
</svg>
