<?xml version="1.0" encoding="UTF-8"?>
<svg xmlns="http://www.w3.org/2000/svg" xmlns:xlink="http://www.w3.org/1999/xlink" width="16px" height="16px" viewBox="0 0 16 16" version="1.1">
<g id="surface1">
<path style=" stroke:none;fill-rule:nonzero;fill:rgb(100%,71.764708%,30.19608%);fill-opacity:1;" d="M 1.324219 1.777344 L 14.550781 1.777344 C 14.917969 1.777344 15.214844 2.074219 15.214844 2.441406 L 15.214844 13.683594 C 15.214844 14.050781 14.917969 14.347656 14.550781 14.347656 L 1.324219 14.347656 C 0.957031 14.347656 0.660156 14.050781 0.660156 13.683594 L 0.660156 2.441406 C 0.660156 2.074219 0.957031 1.777344 1.324219 1.777344 Z M 1.324219 1.777344 "/>
<path style=" stroke:none;fill-rule:nonzero;fill:rgb(94.117647%,38.431373%,57.254905%);fill-opacity:1;" d="M 0.878906 1.949219 C 0.746094 2.070312 0.660156 2.246094 0.660156 2.441406 L 0.660156 13.683594 C 0.660156 14.050781 0.957031 14.347656 1.324219 14.347656 L 14.550781 14.347656 C 14.71875 14.347656 14.871094 14.285156 14.988281 14.183594 L 4.019531 4.425781 Z M 0.878906 1.949219 "/>
<path style=" stroke:none;fill-rule:nonzero;fill:rgb(72.941178%,40.784314%,78.431374%);fill-opacity:1;" d="M 15.003906 1.957031 L 0.871094 14.167969 C 0.988281 14.277344 1.148438 14.347656 1.324219 14.347656 L 14.550781 14.347656 C 14.917969 14.347656 15.214844 14.050781 15.214844 13.683594 L 15.214844 2.441406 C 15.214844 2.25 15.132812 2.078125 15.003906 1.957031 Z M 15.003906 1.957031 "/>
<path style=" stroke:none;fill-rule:nonzero;fill:rgb(93.333334%,93.333334%,93.333334%);fill-opacity:1;" d="M 6.664062 4.601562 C 6.527344 4.601562 6.390625 4.613281 6.253906 4.644531 L 6.089844 5.253906 L 5.773438 5.433594 L 5.164062 5.273438 C 4.980469 5.480469 4.839844 5.71875 4.757812 5.976562 L 5.203125 6.421875 L 5.203125 6.789062 L 4.757812 7.234375 C 4.800781 7.363281 4.855469 7.488281 4.925781 7.609375 C 4.996094 7.730469 5.074219 7.839844 5.164062 7.941406 L 5.773438 7.777344 L 6.089844 7.957031 L 6.253906 8.570312 C 6.519531 8.625 6.796875 8.625 7.066406 8.570312 L 7.230469 7.957031 L 7.546875 7.777344 L 8.15625 7.941406 C 8.34375 7.734375 8.480469 7.492188 8.5625 7.234375 L 8.117188 6.789062 L 8.117188 6.421875 L 8.5625 5.976562 C 8.519531 5.851562 8.464844 5.726562 8.394531 5.605469 C 8.324219 5.484375 8.246094 5.371094 8.15625 5.273438 L 7.546875 5.433594 L 7.230469 5.253906 L 7.066406 4.640625 C 6.933594 4.613281 6.800781 4.601562 6.664062 4.601562 Z M 6.660156 5.761719 C 7.128906 5.761719 7.503906 6.136719 7.503906 6.605469 C 7.503906 7.074219 7.128906 7.449219 6.660156 7.449219 C 6.191406 7.449219 5.816406 7.074219 5.816406 6.605469 C 5.816406 6.136719 6.191406 5.761719 6.660156 5.761719 Z M 6.660156 5.761719 "/>
<path style=" stroke:none;fill-rule:nonzero;fill:rgb(93.333334%,93.333334%,93.333334%);fill-opacity:1;" d="M 9.425781 7.695312 C 9.289062 7.691406 9.152344 7.707031 9.015625 7.734375 L 8.851562 8.34375 L 8.535156 8.527344 L 7.925781 8.363281 C 7.742188 8.570312 7.601562 8.8125 7.519531 9.070312 L 7.964844 9.515625 L 7.964844 9.878906 L 7.519531 10.328125 C 7.5625 10.453125 7.617188 10.578125 7.6875 10.699219 C 7.757812 10.820312 7.835938 10.933594 7.925781 11.03125 L 8.535156 10.871094 L 8.851562 11.050781 L 9.015625 11.664062 C 9.28125 11.71875 9.558594 11.71875 9.828125 11.660156 L 9.992188 11.050781 L 10.308594 10.871094 L 10.917969 11.03125 C 11.105469 10.824219 11.242188 10.585938 11.328125 10.328125 L 10.878906 9.878906 L 10.878906 9.515625 L 11.324219 9.070312 C 11.285156 8.941406 11.226562 8.816406 11.15625 8.695312 C 11.085938 8.574219 11.007812 8.464844 10.917969 8.363281 L 10.308594 8.527344 L 9.992188 8.34375 L 9.828125 7.734375 C 9.695312 7.707031 9.5625 7.695312 9.425781 7.695312 Z M 9.421875 8.855469 C 9.890625 8.855469 10.265625 9.230469 10.265625 9.699219 C 10.265625 10.167969 9.890625 10.542969 9.421875 10.542969 C 8.953125 10.542969 8.578125 10.167969 8.578125 9.699219 C 8.578125 9.230469 8.953125 8.855469 9.421875 8.855469 Z M 9.421875 8.855469 "/>
</g>
</svg>
