
<svg xmlns="http://www.w3.org/2000/svg" xmlns:xlink="http://www.w3.org/1999/xlink" width="16px" height="16px" viewBox="0 0 16 16" version="1.1">
<g id="surface1">
<path style=" stroke:none;fill-rule:nonzero;fill:rgb(45.882353%,45.882353%,45.882353%);fill-opacity:0.995763;" d="M 2.992188 11.90625 L 7.589844 11.90625 C 7.78125 11.90625 7.9375 12.0625 7.9375 12.253906 L 7.9375 13.542969 C 7.9375 13.734375 7.78125 13.890625 7.589844 13.890625 L 2.992188 13.890625 C 2.800781 13.890625 2.644531 13.734375 2.644531 13.542969 L 2.644531 12.253906 C 2.644531 12.0625 2.800781 11.90625 2.992188 11.90625 Z M 2.992188 11.90625 "/>
<path style=" stroke:none;fill-rule:nonzero;fill:rgb(45.882353%,45.882353%,45.882353%);fill-opacity:0.995763;" d="M 8.613281 11.90625 L 10.238281 11.90625 C 10.429688 11.90625 10.582031 12.0625 10.582031 12.253906 L 10.582031 13.542969 C 10.582031 13.734375 10.429688 13.890625 10.238281 13.890625 L 8.613281 13.890625 C 8.421875 13.890625 8.269531 13.734375 8.269531 13.542969 L 8.269531 12.253906 C 8.269531 12.0625 8.421875 11.90625 8.613281 11.90625 Z M 8.613281 11.90625 "/>
<path style=" stroke:none;fill-rule:nonzero;fill:rgb(93.725491%,32.549021%,31.37255%);fill-opacity:0.995763;" d="M 1.652344 3.308594 L 1.652344 12.566406 L 14.222656 12.566406 C 14.769531 12.566406 15.214844 12.125 15.214844 11.574219 L 15.214844 4.300781 C 15.214844 3.75 14.769531 3.308594 14.222656 3.308594 Z M 1.652344 3.308594 "/>
<path style=" stroke:none;fill-rule:nonzero;fill:rgb(74.117649%,74.117649%,74.117649%);fill-opacity:0.995763;" d="M 1.652344 0.660156 C 1.835938 0.660156 1.984375 0.808594 1.984375 0.992188 L 1.984375 14.882812 C 1.984375 15.066406 1.835938 15.214844 1.652344 15.214844 C 1.472656 15.214844 1.324219 15.066406 1.324219 14.882812 L 1.324219 0.992188 C 1.324219 0.808594 1.472656 0.660156 1.652344 0.660156 Z M 1.652344 0.660156 "/>
<path style=" stroke:none;fill-rule:nonzero;fill:rgb(74.117649%,74.117649%,74.117649%);fill-opacity:0.995763;" d="M 0.992188 0.660156 L 1.652344 0.660156 C 1.835938 0.660156 1.984375 0.808594 1.984375 0.992188 C 1.984375 1.175781 1.835938 1.324219 1.652344 1.324219 L 0.992188 1.324219 C 0.808594 1.324219 0.660156 1.175781 0.660156 0.992188 C 0.660156 0.808594 0.808594 0.660156 0.992188 0.660156 Z M 0.992188 0.660156 "/>
<path style=" stroke:none;fill-rule:nonzero;fill:rgb(100%,65.490198%,14.901961%);fill-opacity:0.995763;" d="M 7.117188 13.230469 L 7.433594 13.230469 C 7.527344 13.230469 7.605469 13.308594 7.605469 13.402344 L 7.605469 13.882812 C 7.605469 13.976562 7.527344 14.054688 7.433594 14.054688 L 7.117188 14.054688 C 7.023438 14.054688 6.945312 13.976562 6.945312 13.882812 L 6.945312 13.402344 C 6.945312 13.308594 7.023438 13.230469 7.117188 13.230469 Z M 7.117188 13.230469 "/>
<path style=" stroke:none;fill-rule:nonzero;fill:rgb(100%,65.490198%,14.901961%);fill-opacity:0.995763;" d="M 5.132812 13.230469 L 5.449219 13.230469 C 5.542969 13.230469 5.621094 13.308594 5.621094 13.402344 L 5.621094 13.882812 C 5.621094 13.976562 5.542969 14.054688 5.449219 14.054688 L 5.132812 14.054688 C 5.039062 14.054688 4.960938 13.976562 4.960938 13.882812 L 4.960938 13.402344 C 4.960938 13.308594 5.039062 13.230469 5.132812 13.230469 Z M 5.132812 13.230469 "/>
<path style=" stroke:none;fill-rule:nonzero;fill:rgb(100%,65.490198%,14.901961%);fill-opacity:0.995763;" d="M 4.140625 13.230469 L 4.457031 13.230469 C 4.550781 13.230469 4.628906 13.308594 4.628906 13.402344 L 4.628906 13.882812 C 4.628906 13.976562 4.550781 14.054688 4.457031 14.054688 L 4.140625 14.054688 C 4.046875 14.054688 3.96875 13.976562 3.96875 13.882812 L 3.96875 13.402344 C 3.96875 13.308594 4.046875 13.230469 4.140625 13.230469 Z M 4.140625 13.230469 "/>
<path style=" stroke:none;fill-rule:nonzero;fill:rgb(100%,65.490198%,14.901961%);fill-opacity:0.995763;" d="M 3.148438 13.230469 L 3.464844 13.230469 C 3.558594 13.230469 3.636719 13.308594 3.636719 13.402344 L 3.636719 13.882812 C 3.636719 13.976562 3.558594 14.054688 3.464844 14.054688 L 3.148438 14.054688 C 3.054688 14.054688 2.976562 13.976562 2.976562 13.882812 L 2.976562 13.402344 C 2.976562 13.308594 3.054688 13.230469 3.148438 13.230469 Z M 3.148438 13.230469 "/>
<path style=" stroke:none;fill-rule:nonzero;fill:rgb(100%,65.490198%,14.901961%);fill-opacity:0.995763;" d="M 6.125 13.230469 L 6.441406 13.230469 C 6.535156 13.230469 6.613281 13.308594 6.613281 13.402344 L 6.613281 13.882812 C 6.613281 13.976562 6.535156 14.054688 6.441406 14.054688 L 6.125 14.054688 C 6.03125 14.054688 5.953125 13.976562 5.953125 13.882812 L 5.953125 13.402344 C 5.953125 13.308594 6.03125 13.230469 6.125 13.230469 Z M 6.125 13.230469 "/>
<path style=" stroke:none;fill-rule:nonzero;fill:rgb(45.882353%,45.882353%,45.882353%);fill-opacity:0.995763;" d="M 8.597656 12.898438 L 10.914062 12.898438 C 11.097656 12.898438 11.246094 13.046875 11.246094 13.230469 L 11.246094 13.558594 C 11.246094 13.742188 11.097656 13.890625 10.914062 13.890625 L 8.597656 13.890625 C 8.417969 13.890625 8.269531 13.742188 8.269531 13.558594 L 8.269531 13.230469 C 8.269531 13.046875 8.417969 12.898438 8.597656 12.898438 Z M 8.597656 12.898438 "/>
<path style=" stroke:none;fill-rule:nonzero;fill:rgb(100%,65.490198%,14.901961%);fill-opacity:0.995763;" d="M 9.765625 13.230469 L 10.078125 13.230469 C 10.175781 13.230469 10.253906 13.308594 10.253906 13.402344 L 10.253906 13.882812 C 10.253906 13.976562 10.175781 14.054688 10.078125 14.054688 L 9.765625 14.054688 C 9.667969 14.054688 9.589844 13.976562 9.589844 13.882812 L 9.589844 13.402344 C 9.589844 13.308594 9.667969 13.230469 9.765625 13.230469 Z M 9.765625 13.230469 "/>
<path style=" stroke:none;fill-rule:nonzero;fill:rgb(100%,65.490198%,14.901961%);fill-opacity:0.995763;" d="M 8.773438 13.230469 L 9.085938 13.230469 C 9.183594 13.230469 9.261719 13.308594 9.261719 13.402344 L 9.261719 13.882812 C 9.261719 13.976562 9.183594 14.054688 9.085938 14.054688 L 8.773438 14.054688 C 8.675781 14.054688 8.597656 13.976562 8.597656 13.882812 L 8.597656 13.402344 C 8.597656 13.308594 8.675781 13.230469 8.773438 13.230469 Z M 8.773438 13.230469 "/>
<path style=" stroke:none;fill-rule:nonzero;fill:rgb(82.745099%,18.431373%,18.431373%);fill-opacity:1;" d="M 11.90625 4.796875 C 13.640625 4.796875 15.046875 6.203125 15.046875 7.9375 C 15.046875 9.671875 13.640625 11.078125 11.90625 11.078125 C 10.171875 11.078125 8.765625 9.671875 8.765625 7.9375 C 8.765625 6.203125 10.171875 4.796875 11.90625 4.796875 Z M 11.90625 4.796875 "/>
<path style=" stroke:none;fill-rule:nonzero;fill:rgb(25.882354%,25.882354%,25.882354%);fill-opacity:1;" d="M 11.90625 5.125 C 13.457031 5.125 14.71875 6.386719 14.71875 7.9375 C 14.71875 9.488281 13.457031 10.75 11.90625 10.75 C 10.355469 10.75 9.09375 9.488281 9.09375 7.9375 C 9.09375 6.386719 10.355469 5.125 11.90625 5.125 Z M 11.90625 5.125 "/>
<path style=" stroke:none;fill-rule:nonzero;fill:rgb(74.117649%,74.117649%,74.117649%);fill-opacity:1;" d="M 11.90625 5.457031 C 11.644531 5.457031 11.394531 5.496094 11.160156 5.570312 L 11.90625 7.9375 L 12.652344 5.570312 C 12.417969 5.496094 12.167969 5.457031 11.90625 5.457031 Z M 11.90625 5.457031 "/>
<path style=" stroke:none;fill-rule:nonzero;fill:rgb(74.117649%,74.117649%,74.117649%);fill-opacity:1;" d="M 11.90625 10.417969 C 11.644531 10.417969 11.394531 10.378906 11.160156 10.304688 L 11.90625 7.9375 L 12.652344 10.304688 C 12.417969 10.378906 12.167969 10.417969 11.90625 10.417969 Z M 11.90625 10.417969 "/>
<path style=" stroke:none;fill-rule:nonzero;fill:rgb(74.117649%,74.117649%,74.117649%);fill-opacity:1;" d="M 14.054688 6.699219 C 13.925781 6.472656 13.765625 6.273438 13.582031 6.105469 L 11.90625 7.9375 L 14.328125 7.402344 C 14.277344 7.160156 14.183594 6.921875 14.054688 6.699219 Z M 14.054688 6.699219 "/>
<path style=" stroke:none;fill-rule:nonzero;fill:rgb(74.117649%,74.117649%,74.117649%);fill-opacity:1;" d="M 9.757812 9.179688 C 9.628906 8.953125 9.535156 8.714844 9.484375 8.472656 L 11.90625 7.9375 L 10.230469 9.769531 C 10.046875 9.601562 9.886719 9.402344 9.757812 9.179688 Z M 9.757812 9.179688 "/>
<path style=" stroke:none;fill-rule:nonzero;fill:rgb(74.117649%,74.117649%,74.117649%);fill-opacity:1;" d="M 14.054688 9.175781 C 14.183594 8.953125 14.277344 8.714844 14.328125 8.472656 L 11.90625 7.9375 L 13.582031 9.769531 C 13.765625 9.601562 13.925781 9.402344 14.054688 9.175781 Z M 14.054688 9.175781 "/>
<path style=" stroke:none;fill-rule:nonzero;fill:rgb(74.117649%,74.117649%,74.117649%);fill-opacity:1;" d="M 9.757812 6.699219 C 9.886719 6.472656 10.046875 6.273438 10.230469 6.105469 L 11.90625 7.9375 L 9.484375 7.402344 C 9.535156 7.160156 9.628906 6.921875 9.757812 6.699219 Z M 9.757812 6.699219 "/>
<path style=" stroke:none;fill-rule:nonzero;fill:rgb(87.843138%,87.843138%,87.843138%);fill-opacity:1;" d="M 11.90625 7.277344 C 12.273438 7.277344 12.566406 7.570312 12.566406 7.9375 C 12.566406 8.304688 12.273438 8.597656 11.90625 8.597656 C 11.539062 8.597656 11.246094 8.304688 11.246094 7.9375 C 11.246094 7.570312 11.539062 7.277344 11.90625 7.277344 Z M 11.90625 7.277344 "/>
<path style=" stroke:none;fill-rule:nonzero;fill:rgb(82.745099%,18.431373%,18.431373%);fill-opacity:1;" d="M 5.398438 4.796875 C 7.136719 4.796875 8.542969 6.203125 8.542969 7.9375 C 8.542969 9.671875 7.136719 11.078125 5.398438 11.078125 C 3.664062 11.078125 2.257812 9.671875 2.257812 7.9375 C 2.257812 6.203125 3.664062 4.796875 5.398438 4.796875 Z M 5.398438 4.796875 "/>
<path style=" stroke:none;fill-rule:nonzero;fill:rgb(25.882354%,25.882354%,25.882354%);fill-opacity:1;" d="M 5.398438 5.125 C 6.953125 5.125 8.210938 6.386719 8.210938 7.9375 C 8.210938 9.488281 6.953125 10.75 5.398438 10.75 C 3.847656 10.75 2.589844 9.488281 2.589844 7.9375 C 2.589844 6.386719 3.847656 5.125 5.398438 5.125 Z M 5.398438 5.125 "/>
<path style=" stroke:none;fill-rule:nonzero;fill:rgb(74.117649%,74.117649%,74.117649%);fill-opacity:1;" d="M 5.398438 5.457031 C 5.140625 5.457031 4.886719 5.496094 4.652344 5.570312 L 5.398438 7.9375 L 6.148438 5.570312 C 5.910156 5.496094 5.660156 5.457031 5.398438 5.457031 Z M 5.398438 5.457031 "/>
<path style=" stroke:none;fill-rule:nonzero;fill:rgb(74.117649%,74.117649%,74.117649%);fill-opacity:1;" d="M 5.398438 10.417969 C 5.140625 10.417969 4.886719 10.378906 4.652344 10.304688 L 5.398438 7.9375 L 6.148438 10.304688 C 5.910156 10.378906 5.660156 10.417969 5.398438 10.417969 Z M 5.398438 10.417969 "/>
<path style=" stroke:none;fill-rule:nonzero;fill:rgb(74.117649%,74.117649%,74.117649%);fill-opacity:1;" d="M 7.546875 6.699219 C 7.417969 6.472656 7.257812 6.273438 7.074219 6.105469 L 5.398438 7.9375 L 7.824219 7.402344 C 7.769531 7.160156 7.679688 6.921875 7.546875 6.699219 Z M 7.546875 6.699219 "/>
<path style=" stroke:none;fill-rule:nonzero;fill:rgb(74.117649%,74.117649%,74.117649%);fill-opacity:1;" d="M 3.25 9.179688 C 3.121094 8.953125 3.03125 8.714844 2.976562 8.472656 L 5.398438 7.9375 L 3.722656 9.769531 C 3.542969 9.601562 3.382812 9.402344 3.25 9.179688 Z M 3.25 9.179688 "/>
<path style=" stroke:none;fill-rule:nonzero;fill:rgb(74.117649%,74.117649%,74.117649%);fill-opacity:1;" d="M 7.546875 9.175781 C 7.679688 8.953125 7.769531 8.714844 7.824219 8.472656 L 5.398438 7.9375 L 7.074219 9.769531 C 7.257812 9.601562 7.417969 9.402344 7.546875 9.175781 Z M 7.546875 9.175781 "/>
<path style=" stroke:none;fill-rule:nonzero;fill:rgb(74.117649%,74.117649%,74.117649%);fill-opacity:1;" d="M 3.25 6.699219 C 3.382812 6.472656 3.542969 6.273438 3.722656 6.105469 L 5.398438 7.9375 L 2.976562 7.402344 C 3.03125 7.160156 3.121094 6.921875 3.25 6.699219 Z M 3.25 6.699219 "/>
<path style=" stroke:none;fill-rule:nonzero;fill:rgb(87.843138%,87.843138%,87.843138%);fill-opacity:1;" d="M 5.398438 7.277344 C 5.765625 7.277344 6.0625 7.570312 6.0625 7.9375 C 6.0625 8.304688 5.765625 8.597656 5.398438 8.597656 C 5.035156 8.597656 4.738281 8.304688 4.738281 7.9375 C 4.738281 7.570312 5.035156 7.277344 5.398438 7.277344 Z M 5.398438 7.277344 "/>
</g>
</svg>
