
<svg xmlns="http://www.w3.org/2000/svg" xmlns:xlink="http://www.w3.org/1999/xlink" width="16px" height="16px" viewBox="0 0 16 16" version="1.1">
<g id="surface1">
<path style=" stroke:none;fill-rule:nonzero;fill:rgb(8.235294%,39.607844%,75.294119%);fill-opacity:1;" d="M 5.445312 0.976562 C 4.652344 1.433594 5.636719 4.613281 7.652344 8.101562 C 9.667969 11.59375 11.929688 14.035156 12.722656 13.578125 C 12.726562 13.574219 12.734375 13.570312 12.738281 13.566406 C 12.777344 13.542969 12.808594 13.511719 12.835938 13.476562 C 12.851562 13.492188 12.859375 13.496094 12.863281 13.496094 C 12.867188 13.492188 12.867188 13.480469 12.863281 13.460938 C 12.914062 13.453125 12.964844 13.4375 13.007812 13.410156 C 13.800781 12.953125 12.816406 9.773438 10.800781 6.285156 C 8.785156 2.792969 6.523438 0.351562 5.730469 0.808594 C 5.6875 0.835938 5.648438 0.867188 5.617188 0.910156 C 5.601562 0.894531 5.59375 0.890625 5.589844 0.890625 C 5.582031 0.894531 5.585938 0.90625 5.589844 0.925781 C 5.535156 0.933594 5.488281 0.949219 5.445312 0.976562 Z M 5.445312 0.976562 "/>
<path style=" stroke:none;fill-rule:nonzero;fill:rgb(25.882354%,64.705884%,96.078432%);fill-opacity:1;" d="M 13.007812 2.464844 C 13.800781 2.921875 12.816406 6.101562 10.800781 9.589844 C 8.785156 13.082031 6.523438 15.523438 5.730469 15.066406 L 3.152344 13.578125 C 3.945312 14.035156 6.207031 11.59375 8.222656 8.101562 C 10.238281 4.613281 11.222656 1.433594 10.429688 0.976562 Z M 10.429688 0.976562 C 10.386719 0.949219 10.339844 0.933594 10.285156 0.925781 C 10.289062 0.90625 10.292969 0.894531 10.285156 0.890625 Z M 10.285156 0.890625 C 10.28125 0.890625 10.273438 0.894531 10.257812 0.910156 C 10.226562 0.867188 10.1875 0.835938 10.144531 0.808594 Z M 3.152344 13.578125 L 3.011719 13.496094 C 3.015625 13.496094 3.023438 13.492188 3.039062 13.476562 C 3.066406 13.511719 3.097656 13.542969 3.136719 13.566406 C 3.140625 13.570312 3.148438 13.574219 3.152344 13.578125 Z M 3.011719 13.496094 L 2.867188 13.410156 C 2.910156 13.4375 2.960938 13.453125 3.011719 13.460938 C 3.007812 13.480469 3.007812 13.492188 3.011719 13.496094 Z M 3.011719 13.496094 "/>
<path style=" stroke:none;fill-rule:nonzero;fill:rgb(9.803922%,46.27451%,82.352942%);fill-opacity:1;" d="M 10.429688 0.976562 C 11.222656 1.433594 10.238281 4.613281 8.222656 8.101562 C 6.207031 11.59375 3.945312 14.035156 3.152344 13.578125 C 3.148438 13.574219 3.140625 13.570312 3.136719 13.566406 C 3.097656 13.542969 3.066406 13.511719 3.039062 13.476562 C 3.023438 13.492188 3.015625 13.496094 3.011719 13.496094 C 3.007812 13.492188 3.007812 13.480469 3.011719 13.460938 C 2.960938 13.453125 2.910156 13.4375 2.867188 13.410156 C 2.074219 12.953125 3.058594 9.773438 5.074219 6.285156 C 7.089844 2.792969 9.351562 0.351562 10.144531 0.808594 C 10.1875 0.835938 10.226562 0.867188 10.257812 0.910156 C 10.273438 0.894531 10.28125 0.890625 10.285156 0.890625 C 10.292969 0.894531 10.289062 0.90625 10.285156 0.925781 C 10.339844 0.933594 10.386719 0.949219 10.429688 0.976562 Z M 10.429688 0.976562 "/>
<path style=" stroke:none;fill-rule:nonzero;fill:rgb(12.941177%,58.823532%,95.294118%);fill-opacity:1;" d="M 2.867188 2.464844 C 2.074219 2.921875 3.058594 6.101562 5.074219 9.589844 C 7.089844 13.082031 9.351562 15.523438 10.144531 15.066406 L 12.722656 13.578125 C 11.929688 14.035156 9.667969 11.59375 7.652344 8.101562 C 5.636719 4.613281 4.652344 1.433594 5.445312 0.976562 Z M 5.445312 0.976562 C 5.488281 0.949219 5.535156 0.933594 5.589844 0.925781 C 5.585938 0.90625 5.582031 0.894531 5.589844 0.890625 Z M 5.589844 0.890625 C 5.59375 0.890625 5.601562 0.894531 5.617188 0.910156 C 5.648438 0.867188 5.6875 0.835938 5.730469 0.808594 Z M 12.722656 13.578125 L 12.863281 13.496094 C 12.859375 13.496094 12.851562 13.492188 12.835938 13.476562 C 12.808594 13.511719 12.777344 13.542969 12.738281 13.566406 C 12.734375 13.570312 12.726562 13.574219 12.722656 13.578125 Z M 12.863281 13.496094 L 13.007812 13.410156 C 12.964844 13.4375 12.914062 13.453125 12.863281 13.460938 C 12.867188 13.480469 12.867188 13.492188 12.863281 13.496094 Z M 12.863281 13.496094 "/>
<path style=" stroke:none;fill-rule:nonzero;fill:rgb(11.764706%,53.333336%,89.803922%);fill-opacity:1;" d="M 15.214844 8.480469 C 15.214844 7.566406 11.96875 6.828125 7.9375 6.828125 C 3.90625 6.828125 0.660156 7.566406 0.660156 8.480469 C 0.660156 8.488281 0.660156 8.496094 0.660156 8.503906 C 0.664062 8.546875 0.675781 9.367188 0.691406 9.410156 C 0.671875 9.414062 0.660156 9.421875 0.660156 9.425781 C 0.660156 9.429688 0.671875 9.4375 0.691406 9.441406 C 0.671875 9.492188 0.660156 9.539062 0.660156 9.589844 C 0.660156 10.507812 3.90625 11.246094 7.9375 11.246094 C 11.96875 11.246094 15.214844 10.507812 15.214844 9.589844 C 15.214844 9.539062 15.203125 8.710938 15.183594 8.664062 C 15.203125 8.65625 15.214844 8.652344 15.214844 8.648438 C 15.214844 8.640625 15.203125 8.636719 15.183594 8.632812 C 15.203125 8.582031 15.214844 8.53125 15.214844 8.480469 Z M 15.214844 8.480469 "/>
<path style=" stroke:none;fill-rule:nonzero;fill:rgb(39.215687%,70.980394%,96.470588%);fill-opacity:1;" d="M 15.214844 6.285156 C 15.214844 5.367188 11.96875 4.628906 7.9375 4.628906 C 3.90625 4.628906 0.660156 5.367188 0.660156 6.285156 L 0.660156 9.261719 C 0.660156 8.34375 3.90625 7.605469 7.9375 7.605469 C 11.96875 7.605469 15.214844 8.34375 15.214844 9.261719 Z M 15.214844 9.261719 C 15.214844 9.3125 15.203125 9.359375 15.183594 9.410156 C 15.203125 9.414062 15.214844 9.421875 15.214844 9.425781 Z M 15.214844 9.425781 C 15.214844 9.429688 15.203125 9.4375 15.183594 9.441406 C 15.203125 9.492188 15.214844 9.539062 15.214844 9.589844 Z M 0.660156 9.261719 L 0.660156 9.425781 C 0.660156 9.421875 0.671875 9.414062 0.691406 9.410156 C 0.675781 9.367188 0.664062 9.324219 0.660156 9.28125 C 0.660156 9.273438 0.660156 9.265625 0.660156 9.261719 Z M 0.660156 9.425781 L 0.660156 9.589844 C 0.660156 9.539062 0.671875 9.492188 0.691406 9.441406 C 0.671875 9.4375 0.660156 9.429688 0.660156 9.425781 Z M 0.660156 9.425781 "/>
<path style=" stroke:none;fill-rule:nonzero;fill:rgb(25.882354%,64.705884%,96.078432%);fill-opacity:1;" d="M 13.007812 2.464844 C 13.800781 2.921875 12.816406 6.101562 10.800781 9.589844 C 8.785156 13.082031 6.523438 15.523438 5.730469 15.066406 L 3.152344 13.578125 C 3.945312 14.035156 6.207031 11.59375 8.222656 8.101562 C 10.238281 4.613281 11.222656 1.433594 10.429688 0.976562 Z M 10.429688 0.976562 C 10.386719 0.949219 10.339844 0.933594 10.285156 0.925781 C 10.289062 0.90625 10.292969 0.894531 10.285156 0.890625 Z M 10.285156 0.890625 C 10.28125 0.890625 10.273438 0.894531 10.257812 0.910156 C 10.226562 0.867188 10.1875 0.835938 10.144531 0.808594 Z M 3.152344 13.578125 L 3.011719 13.496094 C 3.015625 13.496094 3.023438 13.492188 3.039062 13.476562 C 3.066406 13.511719 3.097656 13.542969 3.136719 13.566406 C 3.140625 13.570312 3.148438 13.574219 3.152344 13.578125 Z M 3.011719 13.496094 L 2.867188 13.410156 C 2.910156 13.4375 2.960938 13.453125 3.011719 13.460938 C 3.007812 13.480469 3.007812 13.492188 3.011719 13.496094 Z M 3.011719 13.496094 "/>
<path style=" stroke:none;fill-rule:nonzero;fill:rgb(12.941177%,58.823532%,95.294118%);fill-opacity:1;" d="M 7.375 7.613281 C 6.191406 7.632812 5.09375 7.714844 4.136719 7.847656 C 4.417969 8.414062 4.730469 8.996094 5.074219 9.589844 C 7.089844 13.082031 9.351562 15.523438 10.144531 15.066406 L 12.722656 13.578125 C 11.929688 14.035156 9.667969 11.59375 7.652344 8.101562 C 7.554688 7.9375 7.464844 7.773438 7.375 7.613281 Z M 12.722656 13.578125 L 12.863281 13.496094 C 12.859375 13.496094 12.851562 13.492188 12.835938 13.476562 C 12.808594 13.511719 12.777344 13.542969 12.738281 13.566406 C 12.734375 13.570312 12.726562 13.574219 12.722656 13.578125 Z M 12.863281 13.496094 L 13.007812 13.410156 C 12.964844 13.4375 12.914062 13.453125 12.863281 13.460938 C 12.867188 13.480469 12.867188 13.492188 12.863281 13.496094 Z M 12.863281 13.496094 "/>
<path style=" stroke:none;fill-rule:nonzero;fill:rgb(8.235294%,39.607844%,75.294119%);fill-opacity:1;" d="M 11.691406 7.9375 C 11.425781 8.472656 11.128906 9.027344 10.800781 9.589844 C 10.457031 10.1875 10.105469 10.75 9.757812 11.269531 C 11.054688 12.933594 12.203125 13.875 12.722656 13.578125 C 12.726562 13.574219 12.734375 13.570312 12.738281 13.566406 C 12.777344 13.542969 12.808594 13.511719 12.835938 13.476562 C 12.851562 13.492188 12.859375 13.496094 12.863281 13.496094 C 12.867188 13.492188 12.867188 13.480469 12.863281 13.460938 C 12.914062 13.453125 12.964844 13.4375 13.007812 13.410156 C 13.671875 13.027344 13.085938 10.726562 11.691406 7.9375 Z M 11.691406 7.9375 "/>
</g>
</svg>
