
<svg xmlns="http://www.w3.org/2000/svg" xmlns:xlink="http://www.w3.org/1999/xlink" width="16px" height="16px" viewBox="0 0 16 16" version="1.1">
<g id="surface1">
<path style=" stroke:none;fill-rule:nonzero;fill:rgb(61.960787%,61.960787%,61.960787%);fill-opacity:1;" d="M 1.984375 9.054688 L 2.644531 9.054688 C 3.195312 9.054688 3.636719 9.5 3.636719 10.046875 L 3.636719 14.347656 C 3.636719 14.894531 3.195312 15.339844 2.644531 15.339844 L 1.984375 15.339844 C 1.4375 15.339844 0.992188 14.894531 0.992188 14.347656 L 0.992188 10.046875 C 0.992188 9.5 1.4375 9.054688 1.984375 9.054688 Z M 1.984375 9.054688 "/>
<path style=" stroke:none;fill-rule:nonzero;fill:rgb(61.960787%,61.960787%,61.960787%);fill-opacity:1;" d="M 7.277344 9.054688 L 7.9375 9.054688 C 8.484375 9.054688 8.929688 9.5 8.929688 10.046875 L 8.929688 14.347656 C 8.929688 14.894531 8.484375 15.339844 7.9375 15.339844 L 7.277344 15.339844 C 6.726562 15.339844 6.285156 14.894531 6.285156 14.347656 L 6.285156 10.046875 C 6.285156 9.5 6.726562 9.054688 7.277344 9.054688 Z M 7.277344 9.054688 "/>
<path style=" stroke:none;fill-rule:nonzero;fill:rgb(100%,95.294118%,87.843138%);fill-opacity:1;" d="M 2.308594 6.078125 L 2.324219 6.078125 C 2.867188 6.078125 3.308594 6.523438 3.308594 7.070312 C 3.308594 7.617188 2.867188 8.0625 2.324219 8.0625 L 2.308594 8.0625 C 1.765625 8.0625 1.324219 7.617188 1.324219 7.070312 C 1.324219 6.523438 1.765625 6.078125 2.308594 6.078125 Z M 2.308594 6.078125 "/>
<path style=" stroke:none;fill-rule:nonzero;fill:rgb(38.039216%,38.039216%,38.039216%);fill-opacity:1;" d="M 10.148438 5.429688 L 9.625 5.566406 C 9.191406 5.683594 8.933594 6.128906 9.050781 6.566406 L 10.242188 11.023438 C 10.304688 11.246094 10.445312 11.417969 10.628906 11.523438 L 12.898438 11.523438 C 13.082031 11.417969 13.226562 11.246094 13.285156 11.023438 L 14.480469 6.566406 C 14.597656 6.128906 14.339844 5.683594 13.902344 5.566406 L 13.378906 5.429688 L 11.972656 10.671875 C 11.90625 10.652344 11.835938 10.644531 11.765625 10.644531 C 11.691406 10.644531 11.621094 10.65625 11.554688 10.671875 Z M 10.148438 5.429688 "/>
<path style=" stroke:none;fill-rule:nonzero;fill:rgb(25.882354%,25.882354%,25.882354%);fill-opacity:1;" d="M 10.054688 11.65625 C 9.34375 11.648438 8.652344 12.246094 8.414062 13.128906 C 8.144531 14.136719 8.574219 15.125 9.382812 15.339844 C 10.191406 15.558594 11.058594 14.917969 11.328125 13.910156 C 11.445312 13.464844 11.429688 13.023438 11.300781 12.652344 C 11.421875 12.550781 11.496094 12.402344 11.496094 12.238281 C 11.496094 12.222656 11.496094 12.207031 11.492188 12.191406 C 11.578125 12.21875 11.667969 12.238281 11.765625 12.238281 C 11.859375 12.238281 11.953125 12.21875 12.035156 12.191406 C 12.035156 12.207031 12.035156 12.222656 12.035156 12.238281 C 12.035156 12.402344 12.109375 12.550781 12.226562 12.652344 C 12.101562 13.023438 12.085938 13.464844 12.203125 13.910156 C 12.472656 14.917969 13.339844 15.558594 14.148438 15.339844 C 14.953125 15.125 15.386719 14.136719 15.117188 13.128906 C 14.847656 12.121094 13.980469 11.484375 13.171875 11.699219 C 13.074219 11.722656 12.984375 11.761719 12.898438 11.808594 C 12.808594 11.738281 12.695312 11.699219 12.574219 11.699219 C 12.558594 11.699219 12.542969 11.699219 12.527344 11.699219 C 12.519531 11.699219 12.511719 11.699219 12.503906 11.699219 L 11.003906 11.699219 C 10.988281 11.699219 10.972656 11.699219 10.957031 11.699219 C 10.835938 11.699219 10.722656 11.738281 10.632812 11.808594 C 10.546875 11.761719 10.453125 11.722656 10.359375 11.699219 C 10.257812 11.671875 10.15625 11.65625 10.054688 11.65625 Z M 9.976562 12.453125 C 10.035156 12.457031 10.089844 12.464844 10.148438 12.480469 C 10.609375 12.601562 10.855469 13.164062 10.703125 13.742188 C 10.546875 14.320312 10.054688 14.683594 9.59375 14.558594 C 9.132812 14.4375 8.882812 13.871094 9.039062 13.296875 C 9.171875 12.792969 9.570312 12.449219 9.976562 12.453125 Z M 13.554688 12.453125 C 13.960938 12.449219 14.355469 12.792969 14.492188 13.296875 C 14.648438 13.871094 14.398438 14.4375 13.9375 14.558594 C 13.476562 14.683594 12.980469 14.320312 12.828125 13.742188 C 12.671875 13.164062 12.917969 12.601562 13.378906 12.480469 C 13.4375 12.464844 13.496094 12.457031 13.554688 12.453125 Z M 13.554688 12.453125 "/>
<path style=" stroke:none;fill-rule:nonzero;fill:rgb(87.843138%,87.843138%,87.843138%);fill-opacity:1;" d="M 11.765625 10.679688 C 12.210938 10.679688 12.574219 11.042969 12.574219 11.488281 C 12.574219 11.933594 12.210938 12.296875 11.765625 12.296875 C 11.320312 12.296875 10.957031 11.933594 10.957031 11.488281 C 10.957031 11.042969 11.320312 10.679688 11.765625 10.679688 Z M 11.765625 10.679688 "/>
<path style=" stroke:none;fill-rule:nonzero;fill:rgb(45.882353%,45.882353%,45.882353%);fill-opacity:1;" d="M 11.765625 11.894531 C 11.988281 11.894531 12.167969 11.710938 12.167969 11.488281 C 12.167969 11.265625 11.988281 11.085938 11.765625 11.085938 C 11.542969 11.085938 11.359375 11.265625 11.359375 11.488281 C 11.359375 11.710938 11.542969 11.894531 11.765625 11.894531 Z M 11.765625 11.894531 "/>
<path style=" stroke:none;fill-rule:nonzero;fill:rgb(100%,95.294118%,87.843138%);fill-opacity:1;" d="M 1.644531 7.402344 L 1.660156 7.402344 C 2.203125 7.402344 2.644531 7.84375 2.644531 8.394531 C 2.644531 8.941406 2.203125 9.386719 1.660156 9.386719 L 1.644531 9.386719 C 1.101562 9.386719 0.660156 8.941406 0.660156 8.394531 C 0.660156 7.84375 1.101562 7.402344 1.644531 7.402344 Z M 1.644531 7.402344 "/>
<path style=" stroke:none;fill-rule:nonzero;fill:rgb(100%,95.294118%,87.843138%);fill-opacity:1;" d="M 2.96875 6.738281 L 2.984375 6.738281 C 3.527344 6.738281 3.96875 7.183594 3.96875 7.730469 C 3.96875 8.28125 3.527344 8.722656 2.984375 8.722656 L 2.96875 8.722656 C 2.425781 8.722656 1.984375 8.28125 1.984375 7.730469 C 1.984375 7.183594 2.425781 6.738281 2.96875 6.738281 Z M 2.96875 6.738281 "/>
<path style=" stroke:none;fill-rule:nonzero;fill:rgb(100%,95.294118%,87.843138%);fill-opacity:1;" d="M 2.308594 8.0625 L 2.324219 8.0625 C 2.867188 8.0625 3.308594 8.507812 3.308594 9.054688 C 3.308594 9.601562 2.867188 10.046875 2.324219 10.046875 L 2.308594 10.046875 C 1.765625 10.046875 1.324219 9.601562 1.324219 9.054688 C 1.324219 8.507812 1.765625 8.0625 2.308594 8.0625 Z M 2.308594 8.0625 "/>
<path style=" stroke:none;fill-rule:nonzero;fill:rgb(100%,95.294118%,87.843138%);fill-opacity:1;" d="M 3.300781 9.054688 L 3.316406 9.054688 C 3.859375 9.054688 4.300781 9.5 4.300781 10.046875 C 4.300781 10.59375 3.859375 11.039062 3.316406 11.039062 L 3.300781 11.039062 C 2.757812 11.039062 2.316406 10.59375 2.316406 10.046875 C 2.316406 9.5 2.757812 9.054688 3.300781 9.054688 Z M 3.300781 9.054688 "/>
<path style=" stroke:none;fill-rule:nonzero;fill:rgb(100%,95.294118%,87.843138%);fill-opacity:1;" d="M 4.953125 9.386719 L 4.96875 9.386719 C 5.511719 9.386719 5.953125 9.828125 5.953125 10.378906 C 5.953125 10.925781 5.511719 11.371094 4.96875 11.371094 L 4.953125 11.371094 C 4.410156 11.371094 3.96875 10.925781 3.96875 10.378906 C 3.96875 9.828125 4.410156 9.386719 4.953125 9.386719 Z M 4.953125 9.386719 "/>
<path style=" stroke:none;fill-rule:nonzero;fill:rgb(100%,95.294118%,87.843138%);fill-opacity:1;" d="M 6.9375 9.386719 L 6.953125 9.386719 C 7.496094 9.386719 7.9375 9.828125 7.9375 10.378906 C 7.9375 10.925781 7.496094 11.371094 6.953125 11.371094 L 6.9375 11.371094 C 6.394531 11.371094 5.953125 10.925781 5.953125 10.378906 C 5.953125 9.828125 6.394531 9.386719 6.9375 9.386719 Z M 6.9375 9.386719 "/>
<path style=" stroke:none;fill-rule:nonzero;fill:rgb(100%,95.294118%,87.843138%);fill-opacity:1;" d="M 8.261719 8.394531 L 8.277344 8.394531 C 8.820312 8.394531 9.261719 8.835938 9.261719 9.386719 C 9.261719 9.933594 8.820312 10.378906 8.277344 10.378906 L 8.261719 10.378906 C 7.71875 10.378906 7.277344 9.933594 7.277344 9.386719 C 7.277344 8.835938 7.71875 8.394531 8.261719 8.394531 Z M 8.261719 8.394531 "/>
<path style=" stroke:none;fill-rule:nonzero;fill:rgb(100%,95.294118%,87.843138%);fill-opacity:1;" d="M 8.261719 7.070312 L 8.277344 7.070312 C 8.820312 7.070312 9.261719 7.515625 9.261719 8.0625 C 9.261719 8.609375 8.820312 9.054688 8.277344 9.054688 L 8.261719 9.054688 C 7.71875 9.054688 7.277344 8.609375 7.277344 8.0625 C 7.277344 7.515625 7.71875 7.070312 8.261719 7.070312 Z M 8.261719 7.070312 "/>
<path style=" stroke:none;fill-rule:nonzero;fill:rgb(100%,95.294118%,87.843138%);fill-opacity:1;" d="M 6.605469 7.402344 L 6.621094 7.402344 C 7.164062 7.402344 7.605469 7.84375 7.605469 8.394531 C 7.605469 8.941406 7.164062 9.386719 6.621094 9.386719 L 6.605469 9.386719 C 6.0625 9.386719 5.621094 8.941406 5.621094 8.394531 C 5.621094 7.84375 6.0625 7.402344 6.605469 7.402344 Z M 6.605469 7.402344 "/>
<path style=" stroke:none;fill-rule:nonzero;fill:rgb(100%,95.294118%,87.843138%);fill-opacity:1;" d="M 5.285156 7.402344 L 5.300781 7.402344 C 5.84375 7.402344 6.285156 7.84375 6.285156 8.394531 C 6.285156 8.941406 5.84375 9.386719 5.300781 9.386719 L 5.285156 9.386719 C 4.742188 9.386719 4.300781 8.941406 4.300781 8.394531 C 4.300781 7.84375 4.742188 7.402344 5.285156 7.402344 Z M 5.285156 7.402344 "/>
<path style=" stroke:none;fill-rule:nonzero;fill:rgb(100%,95.294118%,87.843138%);fill-opacity:1;" d="M 6.605469 8.0625 L 6.621094 8.0625 C 7.164062 8.0625 7.605469 8.507812 7.605469 9.054688 C 7.605469 9.601562 7.164062 10.046875 6.621094 10.046875 L 6.605469 10.046875 C 6.0625 10.046875 5.621094 9.601562 5.621094 9.054688 C 5.621094 8.507812 6.0625 8.0625 6.605469 8.0625 Z M 6.605469 8.0625 "/>
<path style=" stroke:none;fill-rule:nonzero;fill:rgb(100%,95.294118%,87.843138%);fill-opacity:1;" d="M 5.613281 8.722656 L 5.628906 8.722656 C 6.171875 8.722656 6.613281 9.167969 6.613281 9.714844 C 6.613281 10.265625 6.171875 10.707031 5.628906 10.707031 L 5.613281 10.707031 C 5.070312 10.707031 4.628906 10.265625 4.628906 9.714844 C 4.628906 9.167969 5.070312 8.722656 5.613281 8.722656 Z M 5.613281 8.722656 "/>
<path style=" stroke:none;fill-rule:nonzero;fill:rgb(100%,95.294118%,87.843138%);fill-opacity:1;" d="M 3.960938 7.730469 L 3.976562 7.730469 C 4.519531 7.730469 4.960938 8.175781 4.960938 8.722656 C 4.960938 9.273438 4.519531 9.714844 3.976562 9.714844 L 3.960938 9.714844 C 3.417969 9.714844 2.976562 9.273438 2.976562 8.722656 C 2.976562 8.175781 3.417969 7.730469 3.960938 7.730469 Z M 3.960938 7.730469 "/>
<path style=" stroke:none;fill-rule:nonzero;fill:rgb(100%,95.294118%,87.843138%);fill-opacity:1;" d="M 7.597656 6.078125 L 7.613281 6.078125 C 8.15625 6.078125 8.597656 6.523438 8.597656 7.070312 C 8.597656 7.617188 8.15625 8.0625 7.613281 8.0625 L 7.597656 8.0625 C 7.054688 8.0625 6.613281 7.617188 6.613281 7.070312 C 6.613281 6.523438 7.054688 6.078125 7.597656 6.078125 Z M 7.597656 6.078125 "/>
<path style=" stroke:none;fill-rule:nonzero;fill:rgb(100%,95.294118%,87.843138%);fill-opacity:1;" d="M 5.285156 10.378906 L 5.300781 10.378906 C 5.84375 10.378906 6.285156 10.820312 6.285156 11.371094 C 6.285156 11.917969 5.84375 12.363281 5.300781 12.363281 L 5.285156 12.363281 C 4.742188 12.363281 4.300781 11.917969 4.300781 11.371094 C 4.300781 10.820312 4.742188 10.378906 5.285156 10.378906 Z M 5.285156 10.378906 "/>
<path style=" stroke:none;fill-rule:nonzero;fill:rgb(100%,95.294118%,87.843138%);fill-opacity:1;" d="M 4.292969 10.046875 L 4.308594 10.046875 C 4.851562 10.046875 5.292969 10.492188 5.292969 11.039062 C 5.292969 11.585938 4.851562 12.03125 4.308594 12.03125 L 4.292969 12.03125 C 3.75 12.03125 3.308594 11.585938 3.308594 11.039062 C 3.308594 10.492188 3.75 10.046875 4.292969 10.046875 Z M 4.292969 10.046875 "/>
<path style=" stroke:none;fill-rule:nonzero;fill:rgb(100%,95.294118%,87.843138%);fill-opacity:1;" d="M 6.605469 10.046875 L 6.621094 10.046875 C 7.164062 10.046875 7.605469 10.492188 7.605469 11.039062 C 7.605469 11.585938 7.164062 12.03125 6.621094 12.03125 L 6.605469 12.03125 C 6.0625 12.03125 5.621094 11.585938 5.621094 11.039062 C 5.621094 10.492188 6.0625 10.046875 6.605469 10.046875 Z M 6.605469 10.046875 "/>
<path style=" stroke:none;fill-rule:nonzero;fill:rgb(100%,95.294118%,87.843138%);fill-opacity:1;" d="M 5.285156 10.046875 L 5.300781 10.046875 C 5.84375 10.046875 6.285156 10.492188 6.285156 11.039062 C 6.285156 11.585938 5.84375 12.03125 5.300781 12.03125 L 5.285156 12.03125 C 4.742188 12.03125 4.300781 11.585938 4.300781 11.039062 C 4.300781 10.492188 4.742188 10.046875 5.285156 10.046875 Z M 5.285156 10.046875 "/>
<path style=" stroke:none;fill-rule:nonzero;fill:rgb(100%,95.294118%,87.843138%);fill-opacity:1;" d="M 8.261719 8.722656 L 8.277344 8.722656 C 8.820312 8.722656 9.261719 9.167969 9.261719 9.714844 C 9.261719 10.265625 8.820312 10.707031 8.277344 10.707031 L 8.261719 10.707031 C 7.71875 10.707031 7.277344 10.265625 7.277344 9.714844 C 7.277344 9.167969 7.71875 8.722656 8.261719 8.722656 Z M 8.261719 8.722656 "/>
<path style=" stroke:none;fill-rule:nonzero;fill:rgb(100%,95.294118%,87.843138%);fill-opacity:1;" d="M 2.308594 9.386719 L 2.324219 9.386719 C 2.867188 9.386719 3.308594 9.828125 3.308594 10.378906 C 3.308594 10.925781 2.867188 11.371094 2.324219 11.371094 L 2.308594 11.371094 C 1.765625 11.371094 1.324219 10.925781 1.324219 10.378906 C 1.324219 9.828125 1.765625 9.386719 2.308594 9.386719 Z M 2.308594 9.386719 "/>
<path style=" stroke:none;fill-rule:nonzero;fill:rgb(100%,95.294118%,87.843138%);fill-opacity:1;" d="M 3.300781 9.386719 L 3.316406 9.386719 C 3.859375 9.386719 4.300781 9.828125 4.300781 10.378906 C 4.300781 10.925781 3.859375 11.371094 3.316406 11.371094 L 3.300781 11.371094 C 2.757812 11.371094 2.316406 10.925781 2.316406 10.378906 C 2.316406 9.828125 2.757812 9.386719 3.300781 9.386719 Z M 3.300781 9.386719 "/>
<path style=" stroke:none;fill-rule:nonzero;fill:rgb(100%,95.294118%,87.843138%);fill-opacity:1;" d="M 1.644531 8.0625 L 1.660156 8.0625 C 2.203125 8.0625 2.644531 8.507812 2.644531 9.054688 C 2.644531 9.601562 2.203125 10.046875 1.660156 10.046875 L 1.644531 10.046875 C 1.101562 10.046875 0.660156 9.601562 0.660156 9.054688 C 0.660156 8.507812 1.101562 8.0625 1.644531 8.0625 Z M 1.644531 8.0625 "/>
<path style=" stroke:none;fill-rule:nonzero;fill:rgb(100%,95.294118%,87.843138%);fill-opacity:1;" d="M 1.644531 8.0625 L 1.660156 8.0625 C 2.203125 8.0625 2.644531 8.507812 2.644531 9.054688 C 2.644531 9.601562 2.203125 10.046875 1.660156 10.046875 L 1.644531 10.046875 C 1.101562 10.046875 0.660156 9.601562 0.660156 9.054688 C 0.660156 8.507812 1.101562 8.0625 1.644531 8.0625 Z M 1.644531 8.0625 "/>
<path style=" stroke:none;fill-rule:nonzero;fill:rgb(61.960787%,61.960787%,61.960787%);fill-opacity:1;" d="M 2.855469 2.003906 L 2.925781 2.074219 C 3.226562 2.382812 3.042969 3.046875 2.519531 3.554688 C 1.996094 4.066406 1.332031 4.230469 1.03125 3.921875 L 0.960938 3.851562 C 0.664062 3.542969 0.84375 2.878906 1.367188 2.371094 C 1.890625 1.859375 2.558594 1.695312 2.855469 2.003906 Z M 2.855469 2.003906 "/>
<path style=" stroke:none;fill-rule:nonzero;fill:rgb(61.960787%,61.960787%,61.960787%);fill-opacity:1;" d="M 6.984375 2.003906 L 6.914062 2.074219 C 6.617188 2.382812 6.796875 3.046875 7.320312 3.554688 C 7.84375 4.066406 8.511719 4.230469 8.808594 3.921875 L 8.878906 3.851562 C 9.179688 3.542969 8.996094 2.878906 8.472656 2.371094 C 7.949219 1.859375 7.285156 1.695312 6.984375 2.003906 Z M 6.984375 2.003906 "/>
<path style=" stroke:none;fill-rule:nonzero;fill:rgb(87.843138%,87.843138%,87.843138%);fill-opacity:1;" d="M 4.960938 0.785156 C 6.421875 0.785156 7.605469 2.117188 7.605469 3.761719 L 7.605469 5.085938 C 7.605469 6.730469 6.421875 8.0625 4.960938 8.0625 C 3.5 8.0625 2.316406 6.730469 2.316406 5.085938 L 2.316406 3.761719 C 2.316406 2.117188 3.5 0.785156 4.960938 0.785156 Z M 4.960938 0.785156 "/>
<path style=" stroke:none;fill-rule:nonzero;fill:rgb(96.078432%,96.078432%,96.078432%);fill-opacity:0.995763;" d="M 3.242188 3.769531 C 3.53125 3.480469 3.960938 3.441406 4.199219 3.683594 C 4.441406 3.921875 4.402344 4.351562 4.113281 4.640625 C 3.824219 4.929688 3.394531 4.96875 3.15625 4.726562 C 2.914062 4.488281 2.953125 4.058594 3.242188 3.769531 Z M 3.242188 3.769531 "/>
<path style=" stroke:none;fill-rule:nonzero;fill:rgb(25.882354%,25.882354%,25.882354%);fill-opacity:0.995763;" d="M 3.8125 3.917969 C 3.910156 3.824219 4.066406 3.824219 4.164062 3.917969 C 4.257812 4.015625 4.257812 4.171875 4.164062 4.269531 C 4.066406 4.363281 3.910156 4.363281 3.8125 4.269531 C 3.714844 4.171875 3.714844 4.015625 3.8125 3.917969 Z M 3.8125 3.917969 "/>
<path style=" stroke:none;fill-rule:nonzero;fill:rgb(96.078432%,96.078432%,96.078432%);fill-opacity:0.995763;" d="M 6.679688 3.769531 C 6.390625 3.480469 5.960938 3.441406 5.722656 3.683594 C 5.480469 3.921875 5.519531 4.351562 5.808594 4.640625 C 6.097656 4.929688 6.527344 4.96875 6.765625 4.726562 C 7.007812 4.488281 6.96875 4.058594 6.679688 3.769531 Z M 6.679688 3.769531 "/>
<path style=" stroke:none;fill-rule:nonzero;fill:rgb(25.882354%,25.882354%,25.882354%);fill-opacity:0.995763;" d="M 6.109375 3.917969 C 6.011719 3.824219 5.855469 3.824219 5.757812 3.917969 C 5.664062 4.015625 5.664062 4.171875 5.757812 4.269531 C 5.855469 4.363281 6.011719 4.363281 6.109375 4.269531 C 6.207031 4.171875 6.207031 4.015625 6.109375 3.917969 Z M 6.109375 3.917969 "/>
</g>
</svg>
