
<svg xmlns="http://www.w3.org/2000/svg" xmlns:xlink="http://www.w3.org/1999/xlink" width="16px" height="16px" viewBox="0 0 16 16" version="1.1">
<g id="surface1">
<path style=" stroke:none;fill-rule:nonzero;fill:rgb(93.725491%,32.549021%,31.37255%);fill-opacity:1;" d="M 4.082031 1.292969 C 2.195312 1.292969 0.675781 2.765625 0.660156 4.597656 C 0.660156 4.601562 0.660156 4.609375 0.660156 4.613281 C 0.660156 4.617188 0.660156 4.621094 0.660156 4.625 L 0.660156 4.902344 C 0.660156 5.488281 0.816406 6.039062 1.085938 6.515625 C 1.601562 7.769531 2.511719 8.859375 3.507812 9.851562 C 3.535156 10.433594 3.246094 10.886719 3.308594 11.90625 C 3.308594 12.386719 3.601562 12.769531 3.96875 12.769531 C 4.335938 12.769531 4.796875 12.554688 4.628906 11.90625 C 4.628906 11.90625 4.492188 11.183594 4.4375 10.734375 C 5.929688 12.101562 7.414062 13.660156 7.9375 14.882812 C 8.929688 12.566406 13.566406 9.882812 14.863281 6.378906 C 15.085938 5.933594 15.214844 5.433594 15.214844 4.902344 L 15.214844 4.625 C 15.214844 4.621094 15.214844 4.617188 15.214844 4.613281 C 15.214844 4.609375 15.214844 4.601562 15.214844 4.597656 C 15.199219 2.765625 13.679688 1.292969 11.792969 1.292969 L 11.691406 1.292969 C 9.804688 1.292969 8.28125 2.765625 8.269531 4.597656 C 8.269531 5.175781 8.019531 5.921875 7.9375 6.253906 C 7.855469 5.921875 7.660156 5.117188 7.605469 4.597656 C 7.59375 2.765625 6.070312 1.292969 4.183594 1.292969 Z M 4.082031 1.292969 "/>
<path style=" stroke:none;fill-rule:nonzero;fill:rgb(87.843138%,87.843138%,87.843138%);fill-opacity:1;" d="M 7.921875 2.613281 C 7.90625 2.613281 7.890625 2.613281 7.878906 2.613281 C 5.796875 2.636719 4.128906 4.320312 4.128906 6.40625 C 4.128906 6.414062 4.128906 6.421875 4.128906 6.433594 C 3.792969 6.773438 3.585938 7.242188 3.585938 7.761719 C 3.585938 8.679688 4.230469 9.441406 5.09375 9.617188 C 5.753906 9.929688 5.828125 10.769531 6.160156 11.511719 C 6.457031 12.179688 7.378906 12.367188 7.921875 12.367188 C 8.460938 12.367188 9.382812 12.179688 9.679688 11.511719 C 10.011719 10.769531 10.085938 9.929688 10.746094 9.617188 C 11.609375 9.441406 12.253906 8.679688 12.253906 7.761719 C 12.253906 7.242188 12.046875 6.773438 11.710938 6.433594 C 11.710938 6.421875 11.710938 6.414062 11.710938 6.40625 C 11.710938 4.320312 10.042969 2.636719 7.960938 2.613281 C 7.949219 2.613281 7.933594 2.613281 7.921875 2.613281 Z M 7.921875 2.613281 "/>
<path style=" stroke:none;fill-rule:nonzero;fill:rgb(96.078432%,96.078432%,96.078432%);fill-opacity:1;" d="M 7.398438 5.3125 C 7.789062 5.089844 7.980469 4.695312 7.832031 4.4375 C 7.683594 4.179688 7.246094 4.152344 6.855469 4.375 C 6.46875 4.597656 6.273438 4.992188 6.425781 5.25 C 6.574219 5.511719 7.011719 5.539062 7.398438 5.3125 Z M 7.398438 5.3125 "/>
<path style=" stroke:none;fill-rule:nonzero;fill:rgb(96.078432%,96.078432%,96.078432%);fill-opacity:1;" d="M 8.476562 4.375 C 8.085938 4.597656 7.894531 4.992188 8.042969 5.25 C 8.191406 5.511719 8.628906 5.539062 9.019531 5.3125 C 9.40625 5.089844 9.601562 4.695312 9.449219 4.4375 C 9.300781 4.179688 8.863281 4.152344 8.476562 4.375 Z M 8.476562 4.375 "/>
<path style=" stroke:none;fill-rule:nonzero;fill:rgb(96.078432%,96.078432%,96.078432%);fill-opacity:1;" d="M 7.832031 4.5 C 7.691406 4.65625 7.621094 4.925781 7.671875 5.105469 C 7.726562 5.285156 7.886719 5.304688 8.027344 5.148438 C 8.167969 4.992188 8.238281 4.722656 8.183594 4.542969 C 8.132812 4.367188 7.972656 4.347656 7.832031 4.5 Z M 7.832031 4.5 "/>
<path style=" stroke:none;fill-rule:nonzero;fill:rgb(74.117649%,74.117649%,74.117649%);fill-opacity:1;" d="M 9.421875 9.355469 C 8.960938 9.355469 8.460938 9.414062 7.9375 9.414062 C 6.886719 9.414062 5.925781 9.1875 5.179688 9.664062 C 5.460938 9.828125 5.625 10.101562 5.753906 10.417969 C 7.25 10.59375 8.71875 10.679688 10.085938 10.417969 C 10.21875 10.09375 10.386719 9.816406 10.679688 9.652344 C 10.308594 9.417969 9.882812 9.355469 9.421875 9.355469 Z M 9.421875 9.355469 "/>
<path style=" stroke:none;fill-rule:nonzero;fill:rgb(74.117649%,74.117649%,74.117649%);fill-opacity:1;" d="M 7.9375 11.890625 C 7.195312 11.890625 6.539062 11.328125 6.15625 11.503906 C 6.15625 11.507812 6.15625 11.507812 6.160156 11.511719 C 6.457031 12.179688 7.378906 12.367188 7.921875 12.367188 C 8.460938 12.367188 9.382812 12.179688 9.679688 11.511719 C 9.683594 11.503906 9.6875 11.496094 9.691406 11.492188 C 9.300781 11.324219 8.664062 11.890625 7.9375 11.890625 Z M 7.9375 11.890625 "/>
<path style=" stroke:none;fill-rule:nonzero;fill:rgb(25.882354%,25.882354%,25.882354%);fill-opacity:1;" d="M 7.921875 9.757812 L 7.953125 9.757812 C 8.035156 9.757812 8.101562 10.050781 8.101562 10.417969 C 8.101562 10.785156 8.035156 11.078125 7.953125 11.078125 L 7.921875 11.078125 C 7.839844 11.078125 7.773438 10.785156 7.773438 10.417969 C 7.773438 10.050781 7.839844 9.757812 7.921875 9.757812 Z M 7.921875 9.757812 "/>
<path style=" stroke:none;fill-rule:nonzero;fill:rgb(25.882354%,25.882354%,25.882354%);fill-opacity:1;" d="M 6.980469 9.921875 L 7.003906 9.921875 C 7.066406 9.921875 7.21875 10.144531 7.21875 10.417969 C 7.21875 10.691406 7.066406 10.914062 7.003906 10.914062 L 6.980469 10.914062 C 6.917969 10.914062 6.972656 10.691406 6.972656 10.417969 C 6.972656 10.144531 6.917969 9.921875 6.980469 9.921875 Z M 6.980469 9.921875 "/>
<path style=" stroke:none;fill-rule:nonzero;fill:rgb(25.882354%,25.882354%,25.882354%);fill-opacity:1;" d="M 6.15625 9.921875 L 6.179688 9.921875 C 6.242188 9.921875 6.417969 10.144531 6.417969 10.417969 C 6.417969 10.691406 6.242188 10.914062 6.179688 10.914062 L 6.15625 10.914062 C 6.09375 10.914062 6.171875 10.691406 6.171875 10.417969 C 6.171875 10.144531 6.09375 9.921875 6.15625 9.921875 Z M 6.15625 9.921875 "/>
<path style=" stroke:none;fill-rule:nonzero;fill:rgb(25.882354%,25.882354%,25.882354%);fill-opacity:1;" d="M 9.722656 9.921875 L 9.746094 9.921875 C 9.808594 9.921875 9.71875 10.144531 9.71875 10.417969 C 9.71875 10.691406 9.808594 10.914062 9.746094 10.914062 L 9.722656 10.914062 C 9.660156 10.914062 9.472656 10.691406 9.472656 10.417969 C 9.472656 10.144531 9.660156 9.921875 9.722656 9.921875 Z M 9.722656 9.921875 "/>
<path style=" stroke:none;fill-rule:nonzero;fill:rgb(25.882354%,25.882354%,25.882354%);fill-opacity:1;" d="M 8.898438 9.921875 L 8.917969 9.921875 C 8.980469 9.921875 8.90625 10.144531 8.90625 10.417969 C 8.90625 10.691406 8.980469 10.914062 8.917969 10.914062 L 8.898438 10.914062 C 8.835938 10.914062 8.65625 10.691406 8.65625 10.417969 C 8.65625 10.144531 8.835938 9.921875 8.898438 9.921875 Z M 8.898438 9.921875 "/>
<path style=" stroke:none;fill-rule:nonzero;fill:rgb(25.882354%,25.882354%,25.882354%);fill-opacity:1;" d="M 6.1875 6.15625 C 5.710938 5.882812 5.109375 6.042969 4.832031 6.519531 C 4.558594 6.996094 4.71875 7.601562 5.195312 7.875 C 5.769531 8.207031 6.710938 8.558594 7.410156 8.007812 C 8.109375 7.457031 6.902344 6.570312 6.1875 6.15625 Z M 6.1875 6.15625 "/>
<path style=" stroke:none;fill-rule:nonzero;fill:rgb(25.882354%,25.882354%,25.882354%);fill-opacity:1;" d="M 9.589844 6.15625 C 10.066406 5.882812 10.671875 6.042969 10.945312 6.519531 C 11.222656 6.996094 11.058594 7.601562 10.582031 7.875 C 10.011719 8.207031 9.070312 8.558594 8.367188 8.007812 C 7.667969 7.457031 8.875 6.570312 9.589844 6.15625 Z M 9.589844 6.15625 "/>
<path style=" stroke:none;fill-rule:nonzero;fill:rgb(25.882354%,25.882354%,25.882354%);fill-opacity:1;" d="M 5.941406 10.3125 C 5.859375 10.3125 5.796875 10.316406 5.753906 10.324219 C 6.75 10.644531 7.414062 10.757812 7.9375 10.761719 C 8.460938 10.757812 9.125 10.644531 10.121094 10.324219 C 10.078125 10.316406 10.015625 10.3125 9.933594 10.3125 C 9.546875 10.3125 8.75 10.378906 7.9375 10.425781 C 7.125 10.378906 6.328125 10.3125 5.941406 10.3125 Z M 5.941406 10.3125 "/>
</g>
</svg>
