
<svg xmlns="http://www.w3.org/2000/svg" xmlns:xlink="http://www.w3.org/1999/xlink" width="16px" height="16px" viewBox="0 0 16 16" version="1.1">
<g id="surface1">
<path style=" stroke:none;fill-rule:nonzero;fill:rgb(25.882354%,25.882354%,25.882354%);fill-opacity:1;" d="M 7.9375 10.914062 C 10.859375 10.914062 13.230469 11.875 13.230469 13.0625 C 13.230469 14.25 10.859375 15.214844 7.9375 15.214844 C 5.015625 15.214844 2.644531 14.25 2.644531 13.0625 C 2.644531 11.875 5.015625 10.914062 7.9375 10.914062 Z M 7.9375 10.914062 "/>
<path style=" stroke:none;fill-rule:nonzero;fill:rgb(100%,65.490198%,14.901961%);fill-opacity:1;" d="M 7.9375 0.660156 C 11.554688 0.660156 14.488281 3.59375 14.488281 7.214844 C 14.488281 10.832031 11.554688 13.765625 7.9375 13.765625 C 4.320312 13.765625 1.386719 10.832031 1.386719 7.214844 C 1.386719 3.59375 4.320312 0.660156 7.9375 0.660156 Z M 7.9375 0.660156 "/>
<path style=" stroke:none;fill-rule:nonzero;fill:rgb(61.960787%,61.960787%,61.960787%);fill-opacity:1;" d="M 4.613281 3.636719 C 2.414062 3.636719 0.644531 5.40625 0.644531 7.605469 C 0.644531 9.804688 2.414062 11.574219 4.613281 11.574219 C 5.625 11.574219 6.546875 11.203125 7.246094 10.582031 L 8.597656 10.582031 C 9.296875 11.203125 10.21875 11.574219 11.230469 11.574219 C 13.429688 11.574219 15.199219 9.804688 15.199219 7.605469 C 15.199219 5.40625 13.429688 3.636719 11.230469 3.636719 C 10.21875 3.636719 9.296875 4.011719 8.597656 4.628906 L 7.246094 4.628906 C 6.546875 4.011719 5.625 3.636719 4.613281 3.636719 Z M 4.613281 3.636719 "/>
<path style=" stroke:none;fill-rule:nonzero;fill:rgb(25.882354%,25.882354%,25.882354%);fill-opacity:1;" d="M 4.628906 4.960938 C 6.089844 4.960938 7.277344 6.144531 7.277344 7.605469 C 7.277344 9.066406 6.089844 10.253906 4.628906 10.253906 C 3.167969 10.253906 1.984375 9.066406 1.984375 7.605469 C 1.984375 6.144531 3.167969 4.960938 4.628906 4.960938 Z M 4.628906 4.960938 "/>
<path style=" stroke:none;fill-rule:nonzero;fill:rgb(25.882354%,25.882354%,25.882354%);fill-opacity:1;" d="M 11.246094 4.960938 C 12.707031 4.960938 13.890625 6.144531 13.890625 7.605469 C 13.890625 9.066406 12.707031 10.253906 11.246094 10.253906 C 9.785156 10.253906 8.597656 9.066406 8.597656 7.605469 C 8.597656 6.144531 9.785156 4.960938 11.246094 4.960938 Z M 11.246094 4.960938 "/>
<path style=" stroke:none;fill-rule:nonzero;fill:rgb(40.000001%,73.333335%,41.568628%);fill-opacity:1;" d="M 11.246094 5.621094 C 12.339844 5.621094 13.230469 6.511719 13.230469 7.605469 C 13.230469 8.703125 12.339844 9.589844 11.246094 9.589844 C 10.148438 9.589844 9.261719 8.703125 9.261719 7.605469 C 9.261719 6.511719 10.148438 5.621094 11.246094 5.621094 Z M 11.246094 5.621094 "/>
<path style=" stroke:none;fill-rule:nonzero;fill:rgb(40.000001%,73.333335%,41.568628%);fill-opacity:1;" d="M 4.628906 5.621094 C 5.726562 5.621094 6.613281 6.511719 6.613281 7.605469 C 6.613281 8.703125 5.726562 9.589844 4.628906 9.589844 C 3.535156 9.589844 2.644531 8.703125 2.644531 7.605469 C 2.644531 6.511719 3.535156 5.621094 4.628906 5.621094 Z M 4.628906 5.621094 "/>
<path style=" stroke:none;fill-rule:nonzero;fill:rgb(25.882354%,25.882354%,25.882354%);fill-opacity:1;" d="M 7.9375 11.988281 C 8.304688 11.988281 8.597656 12.117188 8.597656 12.277344 C 8.597656 12.4375 8.304688 12.566406 7.9375 12.566406 C 7.570312 12.566406 7.277344 12.4375 7.277344 12.277344 C 7.277344 12.117188 7.570312 11.988281 7.9375 11.988281 Z M 7.9375 11.988281 "/>
<path style=" stroke:none;fill-rule:nonzero;fill:rgb(61.176473%,80.000001%,39.607844%);fill-opacity:1;" d="M 3.148438 6.285156 C 3.058594 6.386719 2.976562 6.496094 2.910156 6.613281 L 6.351562 6.613281 C 6.28125 6.496094 6.203125 6.386719 6.113281 6.285156 Z M 9.761719 6.285156 C 9.671875 6.386719 9.59375 6.496094 9.523438 6.613281 L 12.964844 6.613281 C 12.898438 6.496094 12.816406 6.386719 12.726562 6.285156 Z M 2.707031 7.109375 C 2.679688 7.21875 2.660156 7.328125 2.652344 7.441406 L 6.609375 7.441406 C 6.597656 7.328125 6.578125 7.21875 6.550781 7.109375 Z M 9.324219 7.109375 C 9.296875 7.21875 9.277344 7.328125 9.265625 7.441406 L 13.222656 7.441406 C 13.214844 7.328125 13.195312 7.21875 13.167969 7.109375 Z M 2.671875 7.9375 C 2.691406 8.050781 2.722656 8.160156 2.757812 8.269531 L 6.503906 8.269531 C 6.539062 8.160156 6.566406 8.050781 6.585938 7.9375 Z M 9.289062 7.9375 C 9.308594 8.050781 9.335938 8.160156 9.371094 8.269531 L 13.117188 8.269531 C 13.152344 8.160156 13.183594 8.050781 13.203125 7.9375 Z M 3.015625 8.765625 C 3.101562 8.886719 3.203125 8.996094 3.316406 9.09375 L 5.945312 9.09375 C 6.058594 8.996094 6.15625 8.886719 6.242188 8.765625 Z M 9.632812 8.765625 C 9.71875 8.886719 9.816406 8.996094 9.929688 9.09375 L 12.558594 9.09375 C 12.671875 8.996094 12.773438 8.886719 12.859375 8.765625 Z M 9.632812 8.765625 "/>
<path style=" stroke:none;fill-rule:nonzero;fill:rgb(100%,80.000001%,50.196081%);fill-opacity:1;" d="M 6.199219 1.71875 C 6.339844 1.957031 6.160156 2.316406 5.804688 2.523438 C 5.449219 2.726562 5.050781 2.703125 4.914062 2.464844 C 4.773438 2.226562 4.953125 1.867188 5.308594 1.664062 C 5.664062 1.457031 6.0625 1.484375 6.199219 1.71875 Z M 6.199219 1.71875 "/>
</g>
</svg>
