<?xml version="1.0" encoding="UTF-8"?>
<svg xmlns="http://www.w3.org/2000/svg" xmlns:xlink="http://www.w3.org/1999/xlink" width="16px" height="16px" viewBox="0 0 16 16" version="1.1">
<g id="surface1">
<path style=" stroke:none;fill-rule:nonzero;fill:rgb(36.078432%,41.960785%,75.294119%);fill-opacity:1;" d="M 8.476562 0.996094 L 15.003906 7.523438 C 15.304688 7.820312 15.304688 8.304688 15.003906 8.601562 L 8.476562 15.128906 C 8.179688 15.429688 7.695312 15.429688 7.398438 15.128906 L 0.871094 8.601562 C 0.570312 8.304688 0.570312 7.820312 0.871094 7.523438 L 7.398438 0.996094 C 7.695312 0.695312 8.179688 0.695312 8.476562 0.996094 Z M 8.476562 0.996094 "/>
<path style=" stroke:none;fill-rule:nonzero;fill:rgb(49.411765%,34.117648%,76.078433%);fill-opacity:1;" d="M 7.9375 0.769531 C 7.742188 0.769531 7.546875 0.84375 7.398438 0.996094 L 0.871094 7.523438 C 0.71875 7.671875 0.644531 7.867188 0.644531 8.0625 L 15.230469 8.0625 C 15.230469 7.867188 15.15625 7.671875 15.003906 7.523438 L 8.476562 0.996094 C 8.328125 0.84375 8.132812 0.769531 7.9375 0.769531 Z M 7.9375 0.769531 "/>
<path style=" stroke:none;fill-rule:nonzero;fill:rgb(93.333334%,93.333334%,93.333334%);fill-opacity:1;" d="M 6.613281 5.417969 C 6.4375 5.421875 6.296875 5.566406 6.296875 5.746094 L 6.296875 10.375 C 6.296875 10.636719 6.582031 10.792969 6.800781 10.652344 L 10.441406 8.339844 C 10.644531 8.210938 10.644531 7.914062 10.441406 7.78125 L 6.800781 5.46875 C 6.746094 5.433594 6.679688 5.414062 6.613281 5.417969 Z M 6.613281 5.417969 "/>
</g>
</svg>
