
<svg xmlns="http://www.w3.org/2000/svg" xmlns:xlink="http://www.w3.org/1999/xlink" width="16px" height="16px" viewBox="0 0 16 16" version="1.1">
<g id="surface1">
<path style=" stroke:none;fill-rule:nonzero;fill:rgb(100%,79.215688%,15.686275%);fill-opacity:1;" d="M 7.9375 0.660156 C 11.957031 0.660156 15.214844 3.917969 15.214844 7.9375 C 15.214844 11.957031 11.957031 15.214844 7.9375 15.214844 C 3.917969 15.214844 0.660156 11.957031 0.660156 7.9375 C 0.660156 3.917969 3.917969 0.660156 7.9375 0.660156 Z M 7.9375 0.660156 "/>
<path style=" stroke:none;fill-rule:nonzero;fill:rgb(25.882354%,25.882354%,25.882354%);fill-opacity:1;" d="M 7.9375 9.726562 L 6.539062 10.265625 C 6.808594 11.566406 6.621094 12.867188 7.371094 14.167969 C 7.601562 14.046875 7.640625 13.976562 7.9375 13.992188 C 8.234375 13.976562 8.273438 14.046875 8.503906 14.167969 C 9.253906 12.867188 9.066406 11.566406 9.335938 10.265625 Z M 7.9375 9.726562 "/>
<path style=" stroke:none;fill-rule:nonzero;fill:rgb(38.039216%,38.039216%,38.039216%);fill-opacity:1;" d="M 7.9375 9.726562 L 7.0625 10.0625 C 7.230469 10.878906 7.113281 11.691406 7.582031 12.503906 C 7.726562 12.429688 7.753906 12.386719 7.9375 12.398438 C 8.121094 12.386719 8.148438 12.429688 8.292969 12.503906 C 8.761719 11.691406 8.644531 10.878906 8.8125 10.0625 Z M 7.9375 9.726562 "/>
<path style=" stroke:none;fill-rule:nonzero;fill:rgb(45.882353%,45.882353%,45.882353%);fill-opacity:1;" d="M 12.871094 7 L 14.410156 5.648438 L 13.230469 4.910156 L 10.871094 6.871094 Z M 12.871094 7 "/>
<path style=" stroke:none;fill-rule:nonzero;fill:rgb(45.882353%,45.882353%,45.882353%);fill-opacity:1;" d="M 9.460938 2.9375 L 10.921875 1.894531 L 11.777344 3.179688 L 9.113281 4.179688 Z M 9.460938 2.9375 "/>
<path style=" stroke:none;fill-rule:nonzero;fill:rgb(25.882354%,25.882354%,25.882354%);fill-opacity:1;" d="M 11.082031 9.773438 C 11.09375 9.878906 11.402344 13.199219 11.402344 13.199219 L 9.023438 11.023438 L 9.082031 9.539062 Z M 11.082031 9.773438 "/>
<path style=" stroke:none;fill-rule:nonzero;fill:rgb(38.039216%,38.039216%,38.039216%);fill-opacity:1;" d="M 8.515625 7.515625 L 7.9375 7.816406 L 9.082031 9.539062 L 14.167969 10.496094 L 12.433594 7.996094 Z M 7 7.972656 L 3.441406 7.996094 L 1.707031 10.496094 L 6.792969 9.539062 L 7.21875 8.097656 Z M 7 7.972656 "/>
<path style=" stroke:none;fill-rule:nonzero;fill:rgb(61.960787%,61.960787%,61.960787%);fill-opacity:1;" d="M 8.875 8.339844 L 15.214844 7.988281 L 12.484375 6.597656 C 10.414062 6.707031 10.027344 7.730469 8.875 8.339844 Z M 8.875 8.339844 "/>
<path style=" stroke:none;fill-rule:nonzero;fill:rgb(61.960787%,61.960787%,61.960787%);fill-opacity:1;" d="M 6.847656 9.855469 C 6.886719 11.070312 6.851562 11.933594 7.109375 12.527344 C 7.003906 12.101562 6.980469 11.65625 7.050781 11.191406 C 7.082031 11.738281 7.035156 12.0625 7.269531 12.472656 C 7.109375 11.5 7.261719 10.144531 7.492188 9.800781 Z M 6.847656 9.855469 "/>
<path style=" stroke:none;fill-rule:nonzero;fill:rgb(45.882353%,45.882353%,45.882353%);fill-opacity:1;" d="M 3.003906 7 L 1.464844 5.648438 L 2.644531 4.910156 L 5.003906 6.871094 Z M 3.003906 7 "/>
<path style=" stroke:none;fill-rule:nonzero;fill:rgb(61.960787%,61.960787%,61.960787%);fill-opacity:1;" d="M 7.0625 2.6875 L 6.722656 2.597656 L 6.070312 2.210938 L 6.4375 3.40625 L 7.40625 3.679688 Z M 7.0625 2.6875 "/>
<path style=" stroke:none;fill-rule:nonzero;fill:rgb(45.882353%,45.882353%,45.882353%);fill-opacity:1;" d="M 6.414062 2.9375 L 4.953125 1.894531 L 4.097656 3.179688 L 6.761719 4.179688 Z M 6.414062 2.9375 "/>
<path style=" stroke:none;fill-rule:nonzero;fill:rgb(61.960787%,61.960787%,61.960787%);fill-opacity:1;" d="M 2.453125 1.515625 C 0.660156 4.097656 2.832031 5.3125 3.824219 6.699219 L 6.167969 4.132812 L 5.316406 3.417969 C 4.363281 2.835938 2.3125 2.933594 2.453125 1.515625 Z M 13.421875 1.515625 C 13.5625 2.933594 11.511719 2.835938 10.558594 3.417969 L 9.707031 4.132812 L 12.050781 6.699219 C 13.042969 5.3125 15.214844 4.097656 13.421875 1.515625 Z M 13.421875 1.515625 "/>
<path style=" stroke:none;fill-rule:nonzero;fill:rgb(45.882353%,45.882353%,45.882353%);fill-opacity:1;" d="M 2.386719 2.328125 C 1.449219 4.242188 3 5.484375 3.929688 6.519531 L 6.125 4.597656 L 5.328125 4.0625 C 4.433594 3.625 2.257812 3.390625 2.386719 2.328125 Z M 2.386719 2.328125 "/>
<path style=" stroke:none;fill-rule:nonzero;fill:rgb(25.882354%,25.882354%,25.882354%);fill-opacity:1;" d="M 4.792969 9.773438 C 4.78125 9.878906 4.472656 13.199219 4.472656 13.199219 L 6.851562 11.023438 L 6.792969 9.539062 Z M 4.792969 9.773438 "/>
<path style=" stroke:none;fill-rule:nonzero;fill:rgb(61.960787%,61.960787%,61.960787%);fill-opacity:1;" d="M 7 8.339844 L 0.660156 7.988281 L 3.390625 6.597656 C 5.460938 6.707031 5.847656 7.730469 7 8.339844 Z M 7 8.339844 "/>
<path style=" stroke:none;fill-rule:nonzero;fill:rgb(45.882353%,45.882353%,45.882353%);fill-opacity:1;" d="M 7.9375 8.949219 L 6.761719 9.257812 C 6.519531 9.59375 7.496094 10.253906 7.9375 10.179688 C 8.378906 10.253906 9.355469 9.59375 9.113281 9.257812 Z M 7.9375 8.949219 "/>
<path style=" stroke:none;fill-rule:nonzero;fill:rgb(61.960787%,61.960787%,61.960787%);fill-opacity:1;" d="M 6.96875 9.132812 C 7.101562 9.496094 7.496094 9.800781 7.9375 9.726562 L 7.9375 8.742188 Z M 6.96875 9.132812 "/>
<path style=" stroke:none;fill-rule:nonzero;fill:rgb(45.882353%,45.882353%,45.882353%);fill-opacity:1;" d="M 13.507812 2.328125 C 14.445312 4.242188 12.894531 5.484375 11.964844 6.519531 L 9.773438 4.597656 L 10.570312 4.0625 C 11.464844 3.625 13.640625 3.390625 13.507812 2.328125 Z M 13.507812 2.328125 "/>
<path style=" stroke:none;fill-rule:nonzero;fill:rgb(61.960787%,61.960787%,61.960787%);fill-opacity:1;" d="M 8.8125 2.6875 L 9.152344 2.597656 L 9.804688 2.210938 L 9.4375 3.40625 L 8.46875 3.679688 Z M 8.8125 2.6875 "/>
<path style=" stroke:none;fill-rule:nonzero;fill:rgb(61.960787%,61.960787%,61.960787%);fill-opacity:1;" d="M 8.90625 9.132812 C 8.773438 9.496094 8.378906 9.800781 7.9375 9.726562 L 7.9375 8.742188 Z M 8.90625 9.132812 "/>
<path style=" stroke:none;fill-rule:nonzero;fill:rgb(74.117649%,74.117649%,74.117649%);fill-opacity:1;" d="M 6.59375 2.226562 L 7.035156 3.339844 L 5.769531 3.492188 C 5.253906 4.753906 4.453125 5.785156 3.390625 6.597656 C 4.445312 6.867188 5.398438 7.292969 6.199219 7.953125 C 6.734375 8.546875 6.46875 9.335938 6.761719 9.257812 C 7.347656 9.167969 7.539062 9.183594 7.9375 9.195312 C 8.335938 9.183594 8.527344 9.167969 9.113281 9.257812 C 9.40625 9.335938 9.140625 8.546875 9.671875 7.953125 C 10.476562 7.292969 11.429688 6.867188 12.484375 6.597656 C 11.421875 5.785156 10.621094 4.753906 10.105469 3.492188 L 8.839844 3.339844 L 9.28125 2.226562 C 8.835938 2.300781 8.386719 2.394531 7.9375 2.375 C 7.488281 2.394531 7.039062 2.300781 6.59375 2.226562 Z M 6.59375 2.226562 "/>
<path style=" stroke:none;fill-rule:nonzero;fill:rgb(38.039216%,38.039216%,38.039216%);fill-opacity:1;" d="M 5.011719 5.449219 L 4.777344 5.804688 C 4.6875 7.0625 5.066406 7.859375 6.648438 7.460938 C 7.007812 7.773438 6.839844 8.648438 7.566406 8.75 L 8.308594 8.75 C 9.035156 8.648438 8.867188 7.773438 9.226562 7.460938 C 10.808594 7.859375 11.1875 7.0625 11.097656 5.804688 L 10.863281 5.449219 L 8.472656 6.636719 L 7.9375 7.507812 L 7.402344 6.636719 Z M 5.011719 5.449219 "/>
<path style=" stroke:none;fill-rule:nonzero;fill:rgb(45.882353%,45.882353%,45.882353%);fill-opacity:1;" d="M 5.011719 4.992188 L 4.777344 5.347656 C 4.6875 6.605469 5.066406 7.402344 6.648438 7.003906 C 7.007812 7.316406 6.839844 8.191406 7.566406 8.292969 L 8.308594 8.292969 C 9.035156 8.191406 8.867188 7.316406 9.226562 7.003906 C 10.808594 7.402344 11.1875 6.605469 11.097656 5.347656 L 10.863281 4.992188 L 8.472656 6.175781 L 7.9375 7.050781 L 7.402344 6.175781 Z M 5.011719 4.992188 "/>
<path style=" stroke:none;fill-rule:nonzero;fill:rgb(25.882354%,25.882354%,25.882354%);fill-opacity:1;" d="M 6.15625 4.5625 C 6.792969 4.5625 7.3125 5.078125 7.3125 5.714844 C 7.3125 6.351562 6.792969 6.871094 6.15625 6.871094 C 5.519531 6.871094 5.003906 6.351562 5.003906 5.714844 C 5.003906 5.078125 5.519531 4.5625 6.15625 4.5625 Z M 6.15625 4.5625 "/>
<path style=" stroke:none;fill-rule:nonzero;fill:rgb(100%,79.215688%,15.686275%);fill-opacity:1;" d="M 6.160156 5.453125 C 6.464844 5.453125 6.714844 5.703125 6.714844 6.007812 C 6.714844 6.3125 6.464844 6.558594 6.160156 6.558594 C 5.855469 6.558594 5.609375 6.3125 5.609375 6.007812 C 5.609375 5.703125 5.855469 5.453125 6.160156 5.453125 Z M 6.160156 5.453125 "/>
<path style=" stroke:none;fill-rule:nonzero;fill:rgb(100%,92.54902%,70.19608%);fill-opacity:1;" d="M 6.160156 5.667969 C 6.347656 5.667969 6.5 5.820312 6.5 6.007812 C 6.5 6.195312 6.347656 6.347656 6.160156 6.347656 C 5.972656 6.347656 5.820312 6.195312 5.820312 6.007812 C 5.820312 5.820312 5.972656 5.667969 6.160156 5.667969 Z M 6.160156 5.667969 "/>
<path style=" stroke:none;fill-rule:nonzero;fill:rgb(38.039216%,38.039216%,38.039216%);fill-opacity:1;" d="M 5.644531 3.59375 C 5.328125 4.378906 7.699219 4.597656 7.03125 6.167969 L 4.96875 4.835938 Z M 5.644531 3.59375 "/>
<path style=" stroke:none;fill-rule:nonzero;fill:rgb(74.117649%,74.117649%,74.117649%);fill-opacity:1;" d="M 7.933594 5.902344 C 8.253906 5.902344 8.515625 6.085938 8.515625 6.316406 L 8.515625 7.539062 C 8.515625 7.769531 8.253906 7.953125 7.933594 7.953125 C 7.613281 7.953125 7.351562 7.769531 7.351562 7.539062 L 7.351562 6.316406 C 7.351562 6.085938 7.613281 5.902344 7.933594 5.902344 Z M 7.933594 5.902344 "/>
<path style=" stroke:none;fill-rule:nonzero;fill:rgb(25.882354%,25.882354%,25.882354%);fill-opacity:1;" d="M 6.65625 4.734375 L 7.601562 4.609375 L 7.9375 7.058594 L 6.78125 6.09375 Z M 6.65625 4.734375 "/>
<path style=" stroke:none;fill-rule:nonzero;fill:rgb(87.843138%,87.843138%,87.843138%);fill-opacity:1;" d="M 4.96875 4.835938 L 7.695312 6.34375 L 7.9375 7.058594 L 4.605469 5.21875 Z M 4.96875 4.835938 "/>
<path style=" stroke:none;fill-rule:nonzero;fill:rgb(87.843138%,87.843138%,87.843138%);fill-opacity:1;" d="M 6.792969 9.539062 C 6.992188 9.386719 6.992188 9.355469 7.308594 9.777344 C 7.144531 10.089844 7.003906 10.40625 7.042969 10.753906 C 6.886719 10.394531 6.785156 10 6.792969 9.539062 Z M 6.792969 9.539062 "/>
<path style=" stroke:none;fill-rule:nonzero;fill:rgb(87.843138%,87.843138%,87.843138%);fill-opacity:1;" d="M 7.3125 9.839844 C 7.40625 9.777344 7.410156 9.765625 7.5625 9.933594 C 7.480469 10.058594 7.414062 10.183594 7.433594 10.324219 C 7.355469 10.179688 7.308594 10.023438 7.3125 9.839844 Z M 7.3125 9.839844 "/>
<path style=" stroke:none;fill-rule:nonzero;fill:rgb(87.843138%,87.843138%,87.843138%);fill-opacity:1;" d="M 7.613281 9.941406 C 7.710938 9.882812 7.8125 9.71875 7.871094 9.992188 C 7.789062 10.242188 7.722656 10.210938 7.742188 10.351562 C 7.652344 10.210938 7.546875 10.152344 7.613281 9.941406 Z M 7.613281 9.941406 "/>
<path style=" stroke:none;fill-rule:nonzero;fill:rgb(61.960787%,61.960787%,61.960787%);fill-opacity:1;" d="M 7.117188 13.722656 C 7.144531 13.402344 7.640625 13.554688 7.9375 13.507812 L 7.9375 14.351562 C 7.679688 14.335938 7.175781 14.242188 7.164062 14.121094 C 7.121094 13.996094 7.246094 13.882812 7.117188 13.722656 Z M 7.117188 13.722656 "/>
<path style=" stroke:none;fill-rule:nonzero;fill:rgb(87.843138%,87.843138%,87.843138%);fill-opacity:1;" d="M 7.117188 13.722656 C 7.316406 13.875 7.210938 13.613281 7.410156 13.347656 C 7.246094 13.035156 7.183594 12.890625 7.109375 12.527344 C 6.949219 12.890625 7.003906 13.449219 7.117188 13.722656 Z M 7.117188 13.722656 "/>
<path style=" stroke:none;fill-rule:nonzero;fill:rgb(93.333334%,93.333334%,93.333334%);fill-opacity:1;" d="M 7.410156 13.347656 C 7.460938 13.332031 7.476562 13.363281 7.496094 13.398438 C 7.480469 13.535156 7.5 13.621094 7.511719 13.722656 C 7.40625 13.617188 7.328125 13.550781 7.410156 13.347656 Z M 7.410156 13.347656 "/>
<path style=" stroke:none;fill-rule:nonzero;fill:rgb(93.333334%,93.333334%,93.333334%);fill-opacity:1;" d="M 7.566406 13.40625 C 7.613281 13.375 7.640625 13.394531 7.667969 13.417969 C 7.660156 13.519531 7.675781 13.609375 7.703125 13.707031 L 7.570312 13.703125 C 7.546875 13.597656 7.550781 13.511719 7.566406 13.40625 Z M 7.566406 13.40625 "/>
<path style=" stroke:none;fill-rule:nonzero;fill:rgb(93.333334%,93.333334%,93.333334%);fill-opacity:1;" d="M 7.78125 13.402344 C 7.777344 13.5625 7.660156 13.726562 7.886719 13.710938 L 7.859375 13.628906 L 7.847656 13.398438 Z M 7.78125 13.402344 "/>
<path style=" stroke:none;fill-rule:nonzero;fill:rgb(61.960787%,61.960787%,61.960787%);fill-opacity:1;" d="M 9.027344 9.855469 C 8.988281 11.070312 9.023438 11.933594 8.765625 12.527344 C 8.871094 12.101562 8.894531 11.65625 8.824219 11.191406 C 8.792969 11.738281 8.839844 12.0625 8.605469 12.472656 C 8.765625 11.5 8.613281 10.144531 8.382812 9.800781 Z M 9.027344 9.855469 "/>
<path style=" stroke:none;fill-rule:nonzero;fill:rgb(25.882354%,25.882354%,25.882354%);fill-opacity:1;" d="M 9.71875 4.5625 C 9.082031 4.5625 8.5625 5.078125 8.5625 5.714844 C 8.5625 6.351562 9.082031 6.871094 9.71875 6.871094 C 10.355469 6.871094 10.871094 6.351562 10.871094 5.714844 C 10.871094 5.078125 10.355469 4.5625 9.71875 4.5625 Z M 9.71875 4.5625 "/>
<path style=" stroke:none;fill-rule:nonzero;fill:rgb(100%,79.215688%,15.686275%);fill-opacity:1;" d="M 9.714844 5.453125 C 9.410156 5.453125 9.160156 5.703125 9.160156 6.007812 C 9.160156 6.3125 9.410156 6.558594 9.714844 6.558594 C 10.019531 6.558594 10.265625 6.3125 10.265625 6.007812 C 10.265625 5.703125 10.019531 5.453125 9.714844 5.453125 Z M 9.714844 5.453125 "/>
<path style=" stroke:none;fill-rule:nonzero;fill:rgb(100%,92.54902%,70.19608%);fill-opacity:1;" d="M 9.714844 5.667969 C 9.527344 5.667969 9.375 5.820312 9.375 6.007812 C 9.375 6.195312 9.527344 6.347656 9.714844 6.347656 C 9.902344 6.347656 10.054688 6.195312 10.054688 6.007812 C 10.054688 5.820312 9.902344 5.667969 9.714844 5.667969 Z M 9.714844 5.667969 "/>
<path style=" stroke:none;fill-rule:nonzero;fill:rgb(38.039216%,38.039216%,38.039216%);fill-opacity:1;" d="M 10.230469 3.59375 C 10.546875 4.378906 8.175781 4.597656 8.84375 6.167969 L 10.90625 4.835938 Z M 10.230469 3.59375 "/>
<path style=" stroke:none;fill-rule:nonzero;fill:rgb(25.882354%,25.882354%,25.882354%);fill-opacity:1;" d="M 9.21875 4.734375 L 8.273438 4.609375 L 7.9375 7.058594 L 9.09375 6.09375 Z M 9.21875 4.734375 "/>
<path style=" stroke:none;fill-rule:nonzero;fill:rgb(87.843138%,87.843138%,87.843138%);fill-opacity:1;" d="M 10.90625 4.835938 L 8.179688 6.34375 L 7.9375 7.058594 L 11.269531 5.21875 Z M 10.90625 4.835938 "/>
<path style=" stroke:none;fill-rule:nonzero;fill:rgb(87.843138%,87.843138%,87.843138%);fill-opacity:1;" d="M 9.082031 9.539062 C 8.882812 9.386719 8.882812 9.355469 8.566406 9.777344 C 8.730469 10.089844 8.871094 10.40625 8.832031 10.753906 C 8.988281 10.394531 9.089844 10 9.082031 9.539062 Z M 9.082031 9.539062 "/>
<path style=" stroke:none;fill-rule:nonzero;fill:rgb(87.843138%,87.843138%,87.843138%);fill-opacity:1;" d="M 8.5625 9.839844 C 8.46875 9.777344 8.464844 9.765625 8.3125 9.933594 C 8.394531 10.058594 8.460938 10.183594 8.441406 10.324219 C 8.519531 10.179688 8.566406 10.023438 8.5625 9.839844 Z M 8.5625 9.839844 "/>
<path style=" stroke:none;fill-rule:nonzero;fill:rgb(87.843138%,87.843138%,87.843138%);fill-opacity:1;" d="M 8.261719 9.941406 C 8.164062 9.882812 8.0625 9.71875 8.003906 9.992188 C 8.085938 10.242188 8.152344 10.210938 8.132812 10.351562 C 8.222656 10.210938 8.328125 10.152344 8.261719 9.941406 Z M 8.261719 9.941406 "/>
<path style=" stroke:none;fill-rule:nonzero;fill:rgb(61.960787%,61.960787%,61.960787%);fill-opacity:1;" d="M 8.757812 13.722656 C 8.730469 13.402344 8.234375 13.554688 7.9375 13.507812 L 7.9375 14.351562 C 8.195312 14.335938 8.699219 14.242188 8.710938 14.121094 C 8.753906 13.996094 8.628906 13.882812 8.757812 13.722656 Z M 8.757812 13.722656 "/>
<path style=" stroke:none;fill-rule:nonzero;fill:rgb(87.843138%,87.843138%,87.843138%);fill-opacity:1;" d="M 8.757812 13.722656 C 8.558594 13.875 8.664062 13.613281 8.464844 13.347656 C 8.628906 13.035156 8.691406 12.890625 8.765625 12.527344 C 8.925781 12.890625 8.871094 13.449219 8.757812 13.722656 Z M 8.757812 13.722656 "/>
<path style=" stroke:none;fill-rule:nonzero;fill:rgb(93.333334%,93.333334%,93.333334%);fill-opacity:1;" d="M 8.464844 13.347656 C 8.414062 13.332031 8.398438 13.363281 8.378906 13.398438 C 8.394531 13.535156 8.375 13.621094 8.363281 13.722656 C 8.46875 13.617188 8.546875 13.550781 8.464844 13.347656 Z M 8.464844 13.347656 "/>
<path style=" stroke:none;fill-rule:nonzero;fill:rgb(93.333334%,93.333334%,93.333334%);fill-opacity:1;" d="M 8.308594 13.40625 C 8.261719 13.375 8.234375 13.394531 8.207031 13.417969 C 8.214844 13.519531 8.199219 13.609375 8.171875 13.707031 L 8.304688 13.703125 C 8.328125 13.597656 8.324219 13.511719 8.308594 13.40625 Z M 8.308594 13.40625 "/>
<path style=" stroke:none;fill-rule:nonzero;fill:rgb(93.333334%,93.333334%,93.333334%);fill-opacity:1;" d="M 8.09375 13.402344 C 8.097656 13.5625 8.214844 13.726562 7.988281 13.710938 L 8.015625 13.628906 L 8.027344 13.398438 Z M 8.09375 13.402344 "/>
<path style=" stroke:none;fill-rule:nonzero;fill:rgb(25.882354%,25.882354%,25.882354%);fill-opacity:1;" d="M 7.65625 8.414062 C 7.753906 8.445312 7.820312 8.503906 7.808594 8.542969 C 7.796875 8.585938 7.707031 8.59375 7.609375 8.558594 C 7.511719 8.527344 7.441406 8.46875 7.457031 8.429688 C 7.46875 8.386719 7.558594 8.382812 7.65625 8.414062 Z M 7.65625 8.414062 "/>
<path style=" stroke:none;fill-rule:nonzero;fill:rgb(25.882354%,25.882354%,25.882354%);fill-opacity:1;" d="M 8.222656 8.414062 C 8.125 8.445312 8.054688 8.503906 8.070312 8.542969 C 8.082031 8.585938 8.171875 8.59375 8.269531 8.558594 C 8.367188 8.527344 8.4375 8.46875 8.421875 8.429688 C 8.410156 8.386719 8.320312 8.382812 8.222656 8.414062 Z M 8.222656 8.414062 "/>
</g>
</svg>
