
<svg xmlns="http://www.w3.org/2000/svg" xmlns:xlink="http://www.w3.org/1999/xlink" width="16px" height="16px" viewBox="0 0 16 16" version="1.1">
<g id="surface1">
<path style=" stroke:none;fill-rule:nonzero;fill:rgb(87.843138%,87.843138%,87.843138%);fill-opacity:1;" d="M 10.75 0.660156 C 13.214844 0.660156 15.214844 2.660156 15.214844 5.125 C 15.214844 7.59375 13.214844 9.589844 10.75 9.589844 C 8.28125 9.589844 6.285156 7.59375 6.285156 5.125 C 6.285156 2.660156 8.28125 0.660156 10.75 0.660156 Z M 10.75 0.660156 "/>
<path style=" stroke:none;fill-rule:nonzero;fill:rgb(40.000001%,73.333335%,41.568628%);fill-opacity:1;" d="M 10.085938 2.644531 C 11.273438 2.644531 12.238281 3.609375 12.238281 4.796875 C 12.238281 5.984375 11.273438 6.945312 10.085938 6.945312 C 8.898438 6.945312 7.9375 5.984375 7.9375 4.796875 C 7.9375 3.609375 8.898438 2.644531 10.085938 2.644531 Z M 10.085938 2.644531 "/>
<path style=" stroke:none;fill-rule:nonzero;fill:rgb(25.882354%,25.882354%,25.882354%);fill-opacity:1;" d="M 10.085938 3.636719 C 10.726562 3.636719 11.246094 4.15625 11.246094 4.796875 C 11.246094 5.433594 10.726562 5.953125 10.085938 5.953125 C 9.449219 5.953125 8.929688 5.433594 8.929688 4.796875 C 8.929688 4.15625 9.449219 3.636719 10.085938 3.636719 Z M 10.085938 3.636719 "/>
<path style=" stroke:none;fill-rule:nonzero;fill:rgb(93.333334%,93.333334%,93.333334%);fill-opacity:1;" d="M 5.125 6.285156 C 7.59375 6.285156 9.589844 8.28125 9.589844 10.75 C 9.589844 13.214844 7.59375 15.214844 5.125 15.214844 C 2.660156 15.214844 0.660156 13.214844 0.660156 10.75 C 0.660156 8.28125 2.660156 6.285156 5.125 6.285156 Z M 5.125 6.285156 "/>
<path style=" stroke:none;fill-rule:nonzero;fill:rgb(40.000001%,73.333335%,41.568628%);fill-opacity:1;" d="M 5.457031 8.269531 C 6.644531 8.269531 7.605469 9.230469 7.605469 10.417969 C 7.605469 11.605469 6.644531 12.566406 5.457031 12.566406 C 4.269531 12.566406 3.308594 11.605469 3.308594 10.417969 C 3.308594 9.230469 4.269531 8.269531 5.457031 8.269531 Z M 5.457031 8.269531 "/>
<path style=" stroke:none;fill-rule:nonzero;fill:rgb(25.882354%,25.882354%,25.882354%);fill-opacity:1;" d="M 5.457031 9.261719 C 6.097656 9.261719 6.613281 9.777344 6.613281 10.417969 C 6.613281 11.058594 6.097656 11.574219 5.457031 11.574219 C 4.816406 11.574219 4.300781 11.058594 4.300781 10.417969 C 4.300781 9.777344 4.816406 9.261719 5.457031 9.261719 Z M 5.457031 9.261719 "/>
<path style=" stroke:none;fill-rule:nonzero;fill:rgb(38.039216%,38.039216%,38.039216%);fill-opacity:1;" d="M 9.675781 3.96875 C 9.902344 3.96875 10.085938 4.152344 10.085938 4.382812 C 10.085938 4.609375 9.902344 4.796875 9.675781 4.796875 C 9.445312 4.796875 9.261719 4.609375 9.261719 4.382812 C 9.261719 4.152344 9.445312 3.96875 9.675781 3.96875 Z M 9.675781 3.96875 "/>
<path style=" stroke:none;fill-rule:nonzero;fill:rgb(38.039216%,38.039216%,38.039216%);fill-opacity:1;" d="M 5.042969 9.589844 C 5.273438 9.589844 5.457031 9.777344 5.457031 10.003906 C 5.457031 10.234375 5.273438 10.417969 5.042969 10.417969 C 4.816406 10.417969 4.628906 10.234375 4.628906 10.003906 C 4.628906 9.777344 4.816406 9.589844 5.042969 9.589844 Z M 5.042969 9.589844 "/>
</g>
</svg>
