<?xml version="1.0" encoding="UTF-8"?>
<svg xmlns="http://www.w3.org/2000/svg" xmlns:xlink="http://www.w3.org/1999/xlink" width="16px" height="16px" viewBox="0 0 16 16" version="1.1">
<g id="surface1">
<path style=" stroke:none;fill-rule:nonzero;fill:rgb(81.176472%,84.705883%,86.274511%);fill-opacity:1;" d="M 6.613281 2.109375 L 6.613281 7.300781 C 4.972656 8.972656 2.328125 11.625 1.832031 13.121094 C 1.066406 15.410156 7.9375 15.339844 7.9375 15.339844 C 7.9375 15.339844 14.808594 15.410156 14.042969 13.121094 C 13.546875 11.625 10.902344 8.972656 9.261719 7.300781 L 9.261719 2.109375 Z M 6.613281 2.109375 "/>
<path style=" stroke:none;fill-rule:nonzero;fill:rgb(81.176472%,84.705883%,86.274511%);fill-opacity:1;" d="M 6.613281 0.785156 L 9.261719 0.785156 C 9.808594 0.785156 10.253906 1.230469 10.253906 1.777344 C 10.253906 2.328125 9.808594 2.769531 9.261719 2.769531 L 6.613281 2.769531 C 6.066406 2.769531 5.621094 2.328125 5.621094 1.777344 C 5.621094 1.230469 6.066406 0.785156 6.613281 0.785156 Z M 6.613281 0.785156 "/>
<path style=" stroke:none;fill-rule:nonzero;fill:rgb(40.000001%,73.333335%,41.568628%);fill-opacity:1;" d="M 4.300781 10.375 C 3.59375 11.242188 2.804688 12.082031 2.601562 12.695312 C 1.933594 14.691406 7.929688 14.632812 7.929688 14.632812 C 7.929688 14.632812 13.921875 14.691406 13.257812 12.695312 C 13.050781 12.082031 12.28125 11.242188 11.574219 10.375 C 9.828125 11.1875 5.226562 9.589844 4.300781 10.375 Z M 4.300781 10.375 "/>
<path style=" stroke:none;fill-rule:nonzero;fill:rgb(64.705884%,83.92157%,65.490198%);fill-opacity:1;" d="M 7.109375 11.371094 C 7.292969 11.371094 7.441406 11.519531 7.441406 11.699219 C 7.441406 11.882812 7.292969 12.03125 7.109375 12.03125 C 6.929688 12.03125 6.78125 11.882812 6.78125 11.699219 C 6.78125 11.519531 6.929688 11.371094 7.109375 11.371094 Z M 7.109375 11.371094 "/>
<path style=" stroke:none;fill-rule:nonzero;fill:rgb(64.705884%,83.92157%,65.490198%);fill-opacity:1;" d="M 8.847656 11.371094 C 8.984375 11.371094 9.09375 11.480469 9.09375 11.617188 C 9.09375 11.753906 8.984375 11.867188 8.847656 11.867188 C 8.710938 11.867188 8.597656 11.753906 8.597656 11.617188 C 8.597656 11.480469 8.710938 11.371094 8.847656 11.371094 Z M 8.847656 11.371094 "/>
<path style=" stroke:none;fill-rule:nonzero;fill:rgb(64.705884%,83.92157%,65.490198%);fill-opacity:1;" d="M 8.433594 12.691406 C 8.707031 12.691406 8.929688 12.914062 8.929688 13.1875 C 8.929688 13.460938 8.707031 13.683594 8.433594 13.683594 C 8.160156 13.683594 7.9375 13.460938 7.9375 13.1875 C 7.9375 12.914062 8.160156 12.691406 8.433594 12.691406 Z M 8.433594 12.691406 "/>
<path style=" stroke:none;fill-rule:nonzero;fill:rgb(64.705884%,83.92157%,65.490198%);fill-opacity:1;" d="M 5.457031 12.363281 C 5.730469 12.363281 5.953125 12.585938 5.953125 12.859375 C 5.953125 13.132812 5.730469 13.355469 5.457031 13.355469 C 5.183594 13.355469 4.960938 13.132812 4.960938 12.859375 C 4.960938 12.585938 5.183594 12.363281 5.457031 12.363281 Z M 5.457031 12.363281 "/>
<path style=" stroke:none;fill-rule:nonzero;fill:rgb(64.705884%,83.92157%,65.490198%);fill-opacity:1;" d="M 11.410156 12.363281 C 11.683594 12.363281 11.90625 12.585938 11.90625 12.859375 C 11.90625 13.132812 11.683594 13.355469 11.410156 13.355469 C 11.136719 13.355469 10.914062 13.132812 10.914062 12.859375 C 10.914062 12.585938 11.136719 12.363281 11.410156 12.363281 Z M 11.410156 12.363281 "/>
<path style=" stroke:none;fill-rule:nonzero;fill:rgb(64.705884%,83.92157%,65.490198%);fill-opacity:1;" d="M 5.375 10.875 C 5.511719 10.875 5.621094 10.984375 5.621094 11.121094 C 5.621094 11.257812 5.511719 11.371094 5.375 11.371094 C 5.238281 11.371094 5.125 11.257812 5.125 11.121094 C 5.125 10.984375 5.238281 10.875 5.375 10.875 Z M 5.375 10.875 "/>
<path style=" stroke:none;fill-rule:nonzero;fill:rgb(92.54902%,93.725491%,94.509804%);fill-opacity:1;" d="M 7.277344 3.101562 C 7.457031 3.101562 7.605469 3.25 7.605469 3.433594 L 7.605469 7.070312 C 7.605469 7.253906 7.457031 7.402344 7.277344 7.402344 C 7.09375 7.402344 6.945312 7.253906 6.945312 7.070312 L 6.945312 3.433594 C 6.945312 3.25 7.09375 3.101562 7.277344 3.101562 Z M 7.277344 3.101562 "/>
<path style=" stroke:none;fill-rule:nonzero;fill:rgb(92.54902%,93.725491%,94.509804%);fill-opacity:1;" d="M 6.691406 1.117188 L 7.53125 1.117188 C 7.847656 1.117188 8.101562 1.3125 8.101562 1.554688 L 8.101562 1.671875 C 8.101562 1.914062 7.847656 2.109375 7.53125 2.109375 L 6.691406 2.109375 C 6.375 2.109375 6.117188 1.914062 6.117188 1.671875 L 6.117188 1.554688 C 6.117188 1.3125 6.375 1.117188 6.691406 1.117188 Z M 6.691406 1.117188 "/>
<path style=" stroke:none;fill-rule:nonzero;fill:rgb(98.039216%,98.039216%,98.039216%);fill-opacity:1;" d="M 6.613281 1.28125 C 6.796875 1.28125 6.945312 1.355469 6.945312 1.449219 C 6.945312 1.539062 6.796875 1.613281 6.613281 1.613281 C 6.433594 1.613281 6.285156 1.539062 6.285156 1.449219 C 6.285156 1.355469 6.433594 1.28125 6.613281 1.28125 Z M 6.613281 1.28125 "/>
<path style=" stroke:none;fill-rule:nonzero;fill:rgb(92.54902%,93.725491%,94.509804%);fill-opacity:1;" d="M 6.710938 8.160156 C 6.839844 8.289062 6.839844 8.496094 6.710938 8.628906 L 5.894531 9.445312 C 5.765625 9.574219 5.554688 9.574219 5.425781 9.445312 C 5.296875 9.316406 5.296875 9.105469 5.425781 8.976562 L 6.242188 8.160156 C 6.371094 8.03125 6.582031 8.03125 6.710938 8.160156 Z M 6.710938 8.160156 "/>
<path style=" stroke:none;fill-rule:nonzero;fill:rgb(50.588238%,78.039217%,51.764709%);fill-opacity:1;" d="M 5.316406 10.152344 C 4.855469 10.152344 4.496094 10.210938 4.300781 10.378906 C 7.277344 10.710938 10.914062 11.371094 11.574219 10.378906 C 10.195312 11.015625 7.039062 10.160156 5.316406 10.152344 Z M 5.316406 10.152344 "/>
<path style=" stroke:none;fill-rule:nonzero;fill:rgb(64.705884%,83.92157%,65.490198%);fill-opacity:1;" d="M 10.003906 12.03125 C 10.140625 12.03125 10.253906 12.140625 10.253906 12.277344 C 10.253906 12.417969 10.140625 12.527344 10.003906 12.527344 C 9.867188 12.527344 9.757812 12.417969 9.757812 12.277344 C 9.757812 12.140625 9.867188 12.03125 10.003906 12.03125 Z M 10.003906 12.03125 "/>
<path style=" stroke:none;fill-rule:nonzero;fill:rgb(64.705884%,83.92157%,65.490198%);fill-opacity:1;" d="M 10.832031 11.203125 C 10.96875 11.203125 11.078125 11.316406 11.078125 11.453125 C 11.078125 11.589844 10.96875 11.699219 10.832031 11.699219 C 10.695312 11.699219 10.582031 11.589844 10.582031 11.453125 C 10.582031 11.316406 10.695312 11.203125 10.832031 11.203125 Z M 10.832031 11.203125 "/>
<path style=" stroke:none;fill-rule:nonzero;fill:rgb(64.705884%,83.92157%,65.490198%);fill-opacity:1;" d="M 4.050781 11.867188 C 4.1875 11.867188 4.300781 11.976562 4.300781 12.113281 C 4.300781 12.25 4.1875 12.363281 4.050781 12.363281 C 3.914062 12.363281 3.804688 12.25 3.804688 12.113281 C 3.804688 11.976562 3.914062 11.867188 4.050781 11.867188 Z M 4.050781 11.867188 "/>
</g>
</svg>
