
<svg xmlns="http://www.w3.org/2000/svg" xmlns:xlink="http://www.w3.org/1999/xlink" width="24px" height="24px" viewBox="0 0 24 24" version="1.1">
<g id="surface1">
<defs>
  <style id="current-color-scheme" type="text/css">
   .ColorScheme-Text { color:#424242; } .ColorScheme-Highlight { color:#eeeeee; }
  </style>
 </defs>
<path style="fill:currentColor;fill-opacity:1" class="ColorScheme-Text" d="M 12 5 C 8.675781 5 6 7.453125 6 10.5 L 6 11 L 5 11 L 5 15 L 6 15 L 6 16 L 8 16 L 8 11 C 8 8.785156 9.785156 7 12 7 C 14.214844 7 16 8.785156 16 11 L 16 17 L 14 17 L 14 16 L 10 16 L 10 19 L 14 19 L 14 18 L 17 18 L 17 16 L 18 16 L 18 15 L 19 15 L 19 11 L 18 11 L 18 10.5 C 18 7.453125 15.324219 5 12 5 Z M 9 11 L 9 12 L 15 12 L 15 11 Z M 11 13 L 11 14 L 13 14 L 13 13 Z M 11 13 "/>
</g>
</svg>
