
<svg xmlns="http://www.w3.org/2000/svg" xmlns:xlink="http://www.w3.org/1999/xlink" width="24px" height="24px" viewBox="0 0 24 24" version="1.1">
<g id="surface1">
<path style=" stroke:none;fill-rule:nonzero;fill:rgb(40.000001%,73.333335%,41.568628%);fill-opacity:1;" d="M 10.582031 6.3125 C 10.582031 6.3125 9.042969 6.277344 7.410156 7.625 C 5.777344 8.972656 5 11.761719 5 15.785156 C 5 15.785156 6.871094 17.597656 9.375 17.6875 C 9.375 17.6875 9.910156 17.292969 10.25 16.8125 C 8.8125 16.332031 8.007812 14.742188 8.007812 14.742188 C 9.335938 15.574219 10.625 15.921875 12 15.9375 C 13.375 15.921875 14.664062 15.574219 15.992188 14.742188 C 15.992188 14.742188 15.1875 16.332031 13.75 16.8125 C 14.089844 17.292969 14.625 17.6875 14.625 17.6875 C 17.128906 17.597656 19 15.785156 19 15.785156 C 19 11.761719 18.222656 8.972656 16.589844 7.625 C 14.957031 6.273438 13.417969 6.3125 13.417969 6.3125 L 13.304688 6.464844 C 15.34375 7.105469 16.273438 8.539062 16.273438 8.539062 C 16.273438 8.539062 16.023438 8.390625 15.605469 8.1875 C 14.332031 7.5 13.167969 7.1875 12 7.1875 C 10.832031 7.1875 9.667969 7.5 8.394531 8.1875 C 7.976562 8.390625 7.726562 8.539062 7.726562 8.539062 C 7.726562 8.539062 8.65625 7.105469 10.695312 6.464844 Z M 9.8125 11.5625 C 10.546875 11.5625 11.136719 12.148438 11.125 12.875 C 11.125 13.601562 10.546875 14.1875 9.8125 14.1875 C 9.09375 14.1875 8.5 13.601562 8.5 12.875 C 8.5 12.148438 9.078125 11.5625 9.8125 11.5625 Z M 14.1875 11.5625 C 14.921875 11.5625 15.5 12.148438 15.5 12.875 C 15.5 13.601562 14.90625 14.1875 14.1875 14.1875 C 13.453125 14.1875 12.875 13.601562 12.875 12.875 C 12.863281 12.148438 13.453125 11.5625 14.1875 11.5625 Z M 14.1875 11.5625 "/>
</g>
</svg>
