
<svg xmlns="http://www.w3.org/2000/svg" xmlns:xlink="http://www.w3.org/1999/xlink" width="24px" height="24px" viewBox="0 0 24 24" version="1.1">
<g id="surface1">
<defs>
  <style id="current-color-scheme" type="text/css">
   .ColorScheme-Text { color:#424242; } .ColorScheme-Highlight { color:#eeeeee; }
  </style>
 </defs>
<path style="fill:currentColor;fill-opacity:0.5" class="ColorScheme-Text" d="M 12 5 C 10.339844 5 9 6.339844 9 8 L 9 12 C 9 12.054688 9.011719 12.105469 9.015625 12.15625 L 11 10.171875 L 11 8 C 11 7.445312 11.445312 7 12 7 C 12.554688 7 13 7.445312 13 8 L 13 8.171875 L 14.617188 6.554688 C 14.105469 5.628906 13.132812 5 12 5 Z M 16.949219 5.636719 L 5.636719 16.949219 L 7.050781 18.363281 L 18.363281 7.050781 Z M 6 10 L 6 13 C 6 13.628906 6.136719 14.226562 6.390625 14.78125 L 8.144531 13.027344 C 8.058594 12.695312 8 12.355469 8 12 L 8 10 Z M 16.828125 10 L 16 10.828125 L 16 12 C 16 14.214844 14.214844 16 12 16 C 11.644531 16 11.304688 15.941406 10.972656 15.855469 L 9.359375 17.46875 C 9.871094 17.679688 10.417969 17.84375 11 17.925781 L 11 19 L 13 19 L 13 17.925781 C 15.84375 17.53125 18 15.484375 18 13 L 18 10 Z M 15 11.828125 L 11.84375 14.984375 C 11.898438 14.988281 11.945312 15 12 15 C 13.660156 15 15 13.660156 15 12 Z M 15 11.828125 "/>
</g>
</svg>
