<?xml version="1.0" encoding="UTF-8"?>
<svg xmlns="http://www.w3.org/2000/svg" xmlns:xlink="http://www.w3.org/1999/xlink" width="24px" height="24px" viewBox="0 0 24 24" version="1.1">
<g id="surface1">
<defs>
  <style id="current-color-scheme" type="text/css">
   .ColorScheme-Text { color:#424242; } .ColorScheme-Highlight { color:#eeeeee; }
  </style>
 </defs>
<path style="fill:currentColor" class="ColorScheme-Text" d="M 5 5 L 5 19 L 10 19 L 10 16 L 9 16 L 9 14 L 7 14 L 7 8 L 8 8 L 8 9 L 9 9 L 9 8 L 10 8 L 10 9 L 11 9 L 11 8 L 13 8 L 13 9 L 14 9 L 14 8 L 15 8 L 15 9 L 16 9 L 16 8 L 17 8 L 17 14 L 15 14 L 15 16 L 19 16 L 19 5 Z M 12 17 C 11.445312 17 11 17.445312 11 18 C 11 18.554688 11.445312 19 12 19 C 12.554688 19 13 18.554688 13 18 C 13 17.445312 12.554688 17 12 17 Z M 15 17 C 14.445312 17 14 17.445312 14 18 C 14 18.554688 14.445312 19 15 19 C 15.554688 19 16 18.554688 16 18 C 16 17.445312 15.554688 17 15 17 Z M 18 17 C 17.445312 17 17 17.445312 17 18 C 17 18.554688 17.445312 19 18 19 C 18.554688 19 19 18.554688 19 18 C 19 17.445312 18.554688 17 18 17 Z M 18 17 "/>
</g>
</svg>
