
<svg xmlns="http://www.w3.org/2000/svg" xmlns:xlink="http://www.w3.org/1999/xlink" width="24px" height="24px" viewBox="0 0 24 24" version="1.1">
<g id="surface1">
<defs>
  <style id="current-color-scheme" type="text/css">
   .ColorScheme-Text { color:#424242; } .ColorScheme-Highlight { color:#eeeeee; }
  </style>
 </defs>
<path style="fill:currentColor;fill-opacity:0.5" class="ColorScheme-Text" d="M 12 5 C 11.445312 5 11 5.445312 11 6 C 11 6.035156 11.015625 6.0625 11.019531 6.097656 C 8.722656 6.550781 7 8.566406 7 11 L 7 16 L 6 16 L 6 18 L 11 18 C 11 18.554688 11.445312 19 12 19 C 12.554688 19 13 18.554688 13 18 L 18 18 L 18 16 L 17 16 L 17 11 C 17 8.566406 15.277344 6.550781 12.980469 6.097656 C 12.984375 6.0625 13 6.035156 13 6 C 13 5.445312 12.554688 5 12 5 Z M 12 8 C 13.660156 8 15 9.339844 15 11 L 15 16 L 9 16 L 9 11 C 9 9.339844 10.339844 8 12 8 Z M 10.585938 9.878906 L 9.878906 10.585938 L 11.292969 12 L 9.878906 13.414062 L 10.585938 14.121094 L 12 12.707031 L 13.414062 14.121094 L 14.121094 13.414062 L 12.707031 12 L 14.121094 10.585938 L 13.414062 9.878906 L 12 11.292969 Z M 10.585938 9.878906 "/>
</g>
</svg>
