
<svg xmlns="http://www.w3.org/2000/svg" xmlns:xlink="http://www.w3.org/1999/xlink" width="24px" height="24px" viewBox="0 0 24 24" version="1.1">
<g id="surface1">
<defs>
  <style id="current-color-scheme" type="text/css">
   .ColorScheme-Text { color:#424242; } .ColorScheme-Highlight { color:#eeeeee; }
  </style>
 </defs>
<path style="fill:currentColor" class="ColorScheme-Text" d="M 12 5 C 10.5 5 9.117188 5.46875 7.980469 6.265625 C 7.691406 6.101562 7.359375 6 7 6 C 5.890625 6 5 6.890625 5 8 C 5 8.519531 5.199219 8.988281 5.523438 9.339844 C 5.1875 10.160156 5 11.058594 5 12 C 5 15.878906 8.121094 19 12 19 C 15.878906 19 19 15.878906 19 12 C 19 11.058594 18.8125 10.160156 18.476562 9.339844 C 18.800781 8.988281 19 8.519531 19 8 C 19 6.890625 18.109375 6 17 6 C 16.640625 6 16.308594 6.101562 16.019531 6.265625 C 14.882812 5.46875 13.5 5 12 5 Z M 12 7 C 14.769531 7 17 9.230469 17 12 C 17 14.769531 14.769531 17 12 17 C 9.230469 17 7 14.769531 7 12 C 7 9.230469 9.230469 7 12 7 Z M 12 8 L 12 12 L 8.089844 12.832031 C 8.523438 14.886719 10.476562 16.253906 12.558594 15.960938 C 14.636719 15.667969 16.136719 13.816406 15.988281 11.71875 C 15.84375 9.625 14.101562 8 12 8 Z M 12 8 "/>
</g>
</svg>
