<?xml version="1.0" encoding="UTF-8"?>
<svg xmlns="http://www.w3.org/2000/svg" xmlns:xlink="http://www.w3.org/1999/xlink" width="22px" height="22px" viewBox="0 0 22 22" version="1.1">
<g id="surface1">
<path style=" stroke:none;fill-rule:nonzero;fill:rgb(40.000001%,73.333335%,41.568628%);fill-opacity:1;" d="M 11 4 C 10.257812 4 9.613281 4.402344 9.269531 5 L 4 5 L 4 7 L 9.269531 7 C 9.613281 7.597656 10.257812 8 11 8 C 11.742188 8 12.386719 7.597656 12.730469 7 L 18 7 L 18 5 L 12.730469 5 C 12.386719 4.402344 11.742188 4 11 4 Z M 11 5 C 11.554688 5 12 5.445312 12 6 C 12 6.554688 11.554688 7 11 7 C 10.445312 7 10 6.554688 10 6 C 10 5.445312 10.445312 5 11 5 Z M 11 5 "/>
<path style=" stroke:none;fill-rule:nonzero;fill:rgb(25.882354%,64.705884%,96.078432%);fill-opacity:1;" d="M 8 9 C 7.257812 9 6.613281 9.402344 6.269531 10 L 4 10 L 4 12 L 6.269531 12 C 6.613281 12.597656 7.257812 13 8 13 C 8.742188 13 9.386719 12.597656 9.730469 12 L 18 12 L 18 10 L 9.730469 10 C 9.386719 9.402344 8.742188 9 8 9 Z M 8 10 C 8.554688 10 9 10.445312 9 11 C 9 11.554688 8.554688 12 8 12 C 7.445312 12 7 11.554688 7 11 C 7 10.445312 7.445312 10 8 10 Z M 8 10 "/>
<path style=" stroke:none;fill-rule:nonzero;fill:rgb(93.725491%,32.549021%,31.37255%);fill-opacity:1;" d="M 14 14 C 13.257812 14 12.613281 14.402344 12.269531 15 L 4 15 L 4 17 L 12.269531 17 C 12.613281 17.597656 13.257812 18 14 18 C 14.742188 18 15.386719 17.597656 15.730469 17 L 18 17 L 18 15 L 15.730469 15 C 15.386719 14.402344 14.742188 14 14 14 Z M 14 15 C 14.554688 15 15 15.445312 15 16 C 15 16.554688 14.554688 17 14 17 C 13.445312 17 13 16.554688 13 16 C 13 15.445312 13.445312 15 14 15 Z M 14 15 "/>
</g>
</svg>
