<?xml version="1.0" encoding="UTF-8"?>
<svg xmlns="http://www.w3.org/2000/svg" xmlns:xlink="http://www.w3.org/1999/xlink" width="22px" height="22px" viewBox="0 0 22 22" version="1.1">
<g id="surface1">
<path style=" stroke:none;fill-rule:nonzero;fill:rgb(100%,43.921569%,26.274511%);fill-opacity:1;" d="M 11 4 C 7.121094 4 4 7.121094 4 11 C 4 14.878906 7.121094 18 11 18 C 14.878906 18 18 14.878906 18 11 C 18 7.121094 14.878906 4 11 4 Z M 11 6 C 13.769531 6 16 8.230469 16 11 L 13 11 C 13 9.890625 12.109375 9 11 9 Z M 11 10 C 11.554688 10 12 10.445312 12 11 C 12 11.554688 11.554688 12 11 12 C 10.445312 12 10 11.554688 10 11 C 10 10.445312 10.445312 10 11 10 Z M 6 11 L 9 11 C 9 12.109375 9.890625 13 11 13 L 11 16 C 8.230469 16 6 13.769531 6 11 Z M 6 11 "/>
</g>
</svg>
