<?xml version="1.0" encoding="UTF-8"?>
<svg xmlns="http://www.w3.org/2000/svg" xmlns:xlink="http://www.w3.org/1999/xlink" width="16px" height="16px" viewBox="0 0 16 16" version="1.1">
<g id="surface1">
<path style=" stroke:none;fill-rule:nonzero;fill:rgb(74.117649%,74.117649%,74.117649%);fill-opacity:1;" d="M 2.976562 0.785156 L 12.898438 0.785156 C 13.265625 0.785156 13.558594 1.082031 13.558594 1.449219 L 13.558594 14.675781 C 13.558594 15.042969 13.265625 15.339844 12.898438 15.339844 L 2.976562 15.339844 C 2.609375 15.339844 2.316406 15.042969 2.316406 14.675781 L 2.316406 1.449219 C 2.316406 1.082031 2.609375 0.785156 2.976562 0.785156 Z M 2.976562 0.785156 "/>
<path style=" stroke:none;fill-rule:nonzero;fill:rgb(93.333334%,93.333334%,93.333334%);fill-opacity:1;" d="M 7.9375 1.777344 C 10.3125 1.777344 12.238281 3.703125 12.238281 6.078125 C 12.238281 8.453125 10.3125 10.378906 7.9375 10.378906 C 5.5625 10.378906 3.636719 8.453125 3.636719 6.078125 C 3.636719 3.703125 5.5625 1.777344 7.9375 1.777344 Z M 7.9375 1.777344 "/>
<path style=" stroke:none;fill-rule:nonzero;fill:rgb(74.117649%,74.117649%,74.117649%);fill-opacity:1;" d="M 7.9375 2.109375 C 10.128906 2.109375 11.90625 3.886719 11.90625 6.078125 C 11.90625 8.269531 10.128906 10.046875 7.9375 10.046875 C 5.746094 10.046875 3.96875 8.269531 3.96875 6.078125 C 3.96875 3.886719 5.746094 2.109375 7.9375 2.109375 Z M 7.9375 2.109375 "/>
<path style=" stroke:none;fill-rule:nonzero;fill:rgb(25.882354%,25.882354%,25.882354%);fill-opacity:1;" d="M 7.9375 3.433594 C 7.019531 3.433594 6.285156 4.167969 6.285156 5.085938 L 6.285156 6.410156 L 5.953125 6.410156 C 5.769531 6.410156 5.621094 6.554688 5.621094 6.738281 L 5.621094 8.394531 C 5.621094 8.578125 5.769531 8.722656 5.953125 8.722656 L 9.921875 8.722656 C 10.105469 8.722656 10.253906 8.578125 10.253906 8.394531 L 10.253906 6.738281 C 10.253906 6.554688 10.105469 6.410156 9.921875 6.410156 L 9.589844 6.410156 L 9.589844 5.085938 C 9.589844 4.167969 8.855469 3.433594 7.9375 3.433594 Z M 7.9375 4.09375 C 8.488281 4.09375 8.929688 4.535156 8.929688 5.085938 L 8.929688 6.410156 L 6.945312 6.410156 L 6.945312 5.085938 C 6.945312 4.535156 7.386719 4.09375 7.9375 4.09375 Z M 7.9375 4.09375 "/>
<path style=" stroke:none;fill-rule:nonzero;fill:rgb(45.882353%,45.882353%,45.882353%);fill-opacity:1;" d="M 3.96875 13.355469 C 4.335938 13.355469 4.628906 13.648438 4.628906 14.015625 C 4.628906 14.382812 4.335938 14.675781 3.96875 14.675781 C 3.601562 14.675781 3.308594 14.382812 3.308594 14.015625 C 3.308594 13.648438 3.601562 13.355469 3.96875 13.355469 Z M 3.96875 13.355469 "/>
<path style=" stroke:none;fill-rule:nonzero;fill:rgb(45.882353%,45.882353%,45.882353%);fill-opacity:1;" d="M 11.90625 13.355469 C 12.273438 13.355469 12.566406 13.648438 12.566406 14.015625 C 12.566406 14.382812 12.273438 14.675781 11.90625 14.675781 C 11.539062 14.675781 11.246094 14.382812 11.246094 14.015625 C 11.246094 13.648438 11.539062 13.355469 11.90625 13.355469 Z M 11.90625 13.355469 "/>
<path style=" stroke:none;fill-rule:nonzero;fill:rgb(74.117649%,74.117649%,74.117649%);fill-opacity:1;" d="M 3.96875 13.683594 C 4.152344 13.683594 4.300781 13.832031 4.300781 14.015625 C 4.300781 14.199219 4.152344 14.347656 3.96875 14.347656 C 3.785156 14.347656 3.636719 14.199219 3.636719 14.015625 C 3.636719 13.832031 3.785156 13.683594 3.96875 13.683594 Z M 3.96875 13.683594 "/>
<path style=" stroke:none;fill-rule:nonzero;fill:rgb(74.117649%,74.117649%,74.117649%);fill-opacity:1;" d="M 11.90625 13.683594 C 12.089844 13.683594 12.238281 13.832031 12.238281 14.015625 C 12.238281 14.199219 12.089844 14.347656 11.90625 14.347656 C 11.722656 14.347656 11.574219 14.199219 11.574219 14.015625 C 11.574219 13.832031 11.722656 13.683594 11.90625 13.683594 Z M 11.90625 13.683594 "/>
<path style=" stroke:none;fill-rule:nonzero;fill:rgb(38.039216%,38.039216%,38.039216%);fill-opacity:1;" d="M 5.621094 11.371094 C 5.4375 11.371094 5.292969 11.515625 5.292969 11.699219 L 5.292969 15.339844 L 10.582031 15.339844 L 10.582031 11.699219 C 10.582031 11.515625 10.4375 11.371094 10.253906 11.371094 Z M 5.621094 11.371094 "/>
<path style=" stroke:none;fill-rule:nonzero;fill:rgb(100%,65.490198%,14.901961%);fill-opacity:1;" d="M 5.789062 11.699219 L 10.085938 11.699219 C 10.179688 11.699219 10.253906 11.773438 10.253906 11.867188 L 10.253906 14.84375 C 10.253906 14.933594 10.179688 15.007812 10.085938 15.007812 L 5.789062 15.007812 C 5.695312 15.007812 5.621094 14.933594 5.621094 14.84375 L 5.621094 11.867188 C 5.621094 11.773438 5.695312 11.699219 5.789062 11.699219 Z M 5.789062 11.699219 "/>
</g>
</svg>
