
<svg xmlns="http://www.w3.org/2000/svg" xmlns:xlink="http://www.w3.org/1999/xlink" width="24px" height="24px" viewBox="0 0 24 24" version="1.1">
<g id="surface1">
<path style=" stroke:none;fill-rule:nonzero;fill:rgb(45.490196%,59.215689%,31.764707%);fill-opacity:1;" d="M 3.472656 2.667969 L 21.828125 2.667969 C 22.375 2.667969 22.820312 3.109375 22.820312 3.660156 L 22.820312 9.613281 C 22.820312 10.164062 22.375 10.605469 21.828125 10.605469 L 3.472656 10.605469 C 2.921875 10.605469 2.480469 10.164062 2.480469 9.613281 L 2.480469 3.660156 C 2.480469 3.109375 2.921875 2.667969 3.472656 2.667969 Z M 3.472656 2.667969 "/>
<path style=" stroke:none;fill-rule:nonzero;fill:rgb(96.078432%,96.078432%,96.078432%);fill-opacity:1;" d="M 11.90625 5.644531 L 21.828125 5.644531 C 22.105469 5.644531 22.324219 5.867188 22.324219 6.140625 L 22.324219 9.613281 C 22.324219 9.886719 22.105469 10.109375 21.828125 10.109375 L 11.90625 10.109375 C 11.632812 10.109375 11.410156 9.886719 11.410156 9.613281 L 11.410156 6.140625 C 11.410156 5.867188 11.632812 5.644531 11.90625 5.644531 Z M 11.90625 5.644531 "/>
<path style=" stroke:none;fill-rule:nonzero;fill:rgb(57.254905%,70.19608%,44.705883%);fill-opacity:1;" d="M 1.984375 4.652344 C 1.4375 4.652344 0.992188 5.097656 0.992188 5.644531 L 0.992188 20.527344 C 0.992188 21.078125 1.4375 21.519531 1.984375 21.519531 L 21.828125 21.519531 C 22.375 21.519531 22.820312 21.078125 22.820312 20.527344 L 22.820312 8.621094 C 22.820312 8.070312 22.375 7.628906 21.828125 7.628906 L 15.378906 7.628906 C 14.828125 7.628906 14.386719 7.183594 14.386719 6.636719 L 14.386719 5.644531 C 14.386719 5.097656 13.941406 4.652344 13.394531 4.652344 Z M 1.984375 4.652344 "/>
<path style=" stroke:none;fill-rule:nonzero;fill:rgb(100%,100%,100%);fill-opacity:0.352941;" d="M 11.90625 9.617188 C 11.714844 9.617188 11.519531 9.691406 11.371094 9.839844 L 8.160156 13.046875 C 7.867188 13.34375 7.867188 13.820312 8.160156 14.117188 L 11.371094 17.328125 C 11.667969 17.621094 12.144531 17.621094 12.441406 17.328125 L 15.652344 14.117188 C 15.945312 13.820312 15.945312 13.34375 15.652344 13.046875 L 12.441406 9.839844 C 12.292969 9.691406 12.097656 9.617188 11.90625 9.617188 Z M 11.90625 10.359375 C 12.320312 10.359375 12.652344 10.6875 12.652344 11.101562 C 12.652344 11.515625 12.320312 11.847656 11.90625 11.847656 C 11.492188 11.847656 11.160156 11.515625 11.160156 11.101562 C 11.160156 10.6875 11.492188 10.359375 11.90625 10.359375 Z M 9.425781 12.839844 C 9.839844 12.839844 10.171875 13.171875 10.171875 13.582031 C 10.171875 13.996094 9.839844 14.328125 9.425781 14.328125 C 9.011719 14.328125 8.679688 13.996094 8.679688 13.582031 C 8.679688 13.171875 9.011719 12.839844 9.425781 12.839844 Z M 11.90625 12.839844 C 12.320312 12.839844 12.652344 13.171875 12.652344 13.582031 C 12.652344 13.996094 12.320312 14.328125 11.90625 14.328125 C 11.492188 14.328125 11.160156 13.996094 11.160156 13.582031 C 11.160156 13.171875 11.492188 12.839844 11.90625 12.839844 Z M 14.386719 12.839844 C 14.800781 12.839844 15.132812 13.171875 15.132812 13.582031 C 15.132812 13.996094 14.800781 14.328125 14.386719 14.328125 C 13.972656 14.328125 13.640625 13.996094 13.640625 13.582031 C 13.640625 13.171875 13.972656 12.839844 14.386719 12.839844 Z M 11.90625 15.320312 C 12.320312 15.320312 12.652344 15.652344 12.652344 16.0625 C 12.652344 16.472656 12.320312 16.808594 11.90625 16.808594 C 11.492188 16.808594 11.160156 16.472656 11.160156 16.0625 C 11.160156 15.652344 11.492188 15.320312 11.90625 15.320312 Z M 11.90625 15.320312 "/>
</g>
</svg>
