
<svg xmlns="http://www.w3.org/2000/svg" xmlns:xlink="http://www.w3.org/1999/xlink" width="24px" height="24px" viewBox="0 0 24 24" version="1.1">
<g id="surface1">
<path style=" stroke:none;fill-rule:nonzero;fill:rgb(26.274511%,62.7451%,27.843139%);fill-opacity:1;" d="M 3.472656 2.667969 L 21.828125 2.667969 C 22.375 2.667969 22.820312 3.109375 22.820312 3.660156 L 22.820312 9.613281 C 22.820312 10.164062 22.375 10.605469 21.828125 10.605469 L 3.472656 10.605469 C 2.921875 10.605469 2.480469 10.164062 2.480469 9.613281 L 2.480469 3.660156 C 2.480469 3.109375 2.921875 2.667969 3.472656 2.667969 Z M 3.472656 2.667969 "/>
<path style=" stroke:none;fill-rule:nonzero;fill:rgb(96.078432%,96.078432%,96.078432%);fill-opacity:1;" d="M 11.90625 5.644531 L 21.828125 5.644531 C 22.105469 5.644531 22.324219 5.867188 22.324219 6.140625 L 22.324219 9.613281 C 22.324219 9.886719 22.105469 10.109375 21.828125 10.109375 L 11.90625 10.109375 C 11.632812 10.109375 11.410156 9.886719 11.410156 9.613281 L 11.410156 6.140625 C 11.410156 5.867188 11.632812 5.644531 11.90625 5.644531 Z M 11.90625 5.644531 "/>
<path style=" stroke:none;fill-rule:nonzero;fill:rgb(40.000001%,73.333335%,41.568628%);fill-opacity:1;" d="M 1.984375 4.652344 C 1.4375 4.652344 0.992188 5.097656 0.992188 5.644531 L 0.992188 20.527344 C 0.992188 21.078125 1.4375 21.519531 1.984375 21.519531 L 21.828125 21.519531 C 22.375 21.519531 22.820312 21.078125 22.820312 20.527344 L 22.820312 8.621094 C 22.820312 8.070312 22.375 7.628906 21.828125 7.628906 L 15.378906 7.628906 C 14.828125 7.628906 14.386719 7.183594 14.386719 6.636719 L 14.386719 5.644531 C 14.386719 5.097656 13.941406 4.652344 13.394531 4.652344 Z M 1.984375 4.652344 "/>
<path style=" stroke:none;fill-rule:nonzero;fill:rgb(100%,100%,100%);fill-opacity:0.352941;" d="M 11.90625 9.613281 C 10.535156 9.613281 9.425781 10.722656 9.425781 12.09375 L 9.425781 12.589844 L 10.417969 12.589844 L 10.417969 12.09375 C 10.417969 11.269531 11.082031 10.605469 11.90625 10.605469 C 12.730469 10.605469 13.394531 11.269531 13.394531 12.09375 L 13.394531 14.078125 L 8.933594 14.078125 C 8.65625 14.078125 8.433594 14.300781 8.433594 14.574219 L 8.433594 17.054688 C 8.433594 17.332031 8.65625 17.550781 8.933594 17.550781 L 14.878906 17.550781 C 15.15625 17.550781 15.378906 17.332031 15.378906 17.054688 L 15.378906 14.574219 C 15.378906 14.300781 15.15625 14.078125 14.878906 14.078125 L 14.386719 14.078125 L 14.386719 12.09375 C 14.386719 10.722656 13.277344 9.613281 11.90625 9.613281 Z M 11.90625 14.574219 C 12.320312 14.574219 12.652344 14.90625 12.652344 15.320312 C 12.652344 15.542969 12.554688 15.738281 12.402344 15.875 L 12.402344 16.558594 C 12.402344 16.832031 12.179688 17.054688 11.90625 17.054688 C 11.632812 17.054688 11.410156 16.832031 11.410156 16.558594 L 11.410156 15.875 C 11.257812 15.738281 11.160156 15.542969 11.160156 15.320312 C 11.160156 14.90625 11.492188 14.574219 11.90625 14.574219 Z M 11.90625 14.574219 "/>
</g>
</svg>
