
<svg xmlns="http://www.w3.org/2000/svg" xmlns:xlink="http://www.w3.org/1999/xlink" width="24px" height="24px" viewBox="0 0 24 24" version="1.1">
<g id="surface1">
<path style=" stroke:none;fill-rule:nonzero;fill:rgb(26.274511%,62.7451%,27.843139%);fill-opacity:1;" d="M 3.472656 2.667969 L 21.828125 2.667969 C 22.375 2.667969 22.820312 3.109375 22.820312 3.660156 L 22.820312 9.613281 C 22.820312 10.164062 22.375 10.605469 21.828125 10.605469 L 3.472656 10.605469 C 2.921875 10.605469 2.480469 10.164062 2.480469 9.613281 L 2.480469 3.660156 C 2.480469 3.109375 2.921875 2.667969 3.472656 2.667969 Z M 3.472656 2.667969 "/>
<path style=" stroke:none;fill-rule:nonzero;fill:rgb(96.078432%,96.078432%,96.078432%);fill-opacity:1;" d="M 11.90625 5.644531 L 21.828125 5.644531 C 22.105469 5.644531 22.324219 5.867188 22.324219 6.140625 L 22.324219 9.613281 C 22.324219 9.886719 22.105469 10.109375 21.828125 10.109375 L 11.90625 10.109375 C 11.632812 10.109375 11.410156 9.886719 11.410156 9.613281 L 11.410156 6.140625 C 11.410156 5.867188 11.632812 5.644531 11.90625 5.644531 Z M 11.90625 5.644531 "/>
<path style=" stroke:none;fill-rule:nonzero;fill:rgb(40.000001%,73.333335%,41.568628%);fill-opacity:1;" d="M 1.984375 4.652344 C 1.4375 4.652344 0.992188 5.097656 0.992188 5.644531 L 0.992188 20.527344 C 0.992188 21.078125 1.4375 21.519531 1.984375 21.519531 L 21.828125 21.519531 C 22.375 21.519531 22.820312 21.078125 22.820312 20.527344 L 22.820312 8.621094 C 22.820312 8.070312 22.375 7.625 21.828125 7.628906 L 15.378906 7.628906 C 14.828125 7.628906 14.386719 7.183594 14.386719 6.636719 L 14.386719 5.644531 C 14.386719 5.097656 13.941406 4.652344 13.394531 4.652344 Z M 1.984375 4.652344 "/>
<path style=" stroke:none;fill-rule:nonzero;fill:rgb(97.254902%,97.254902%,97.254902%);fill-opacity:0.352941;" d="M 11.90625 9.121094 C 12.371094 9.121094 12.835938 11.429688 13.210938 11.703125 C 13.585938 11.972656 15.929688 11.703125 16.070312 12.140625 C 16.214844 12.582031 14.15625 13.738281 14.011719 14.183594 C 13.871094 14.621094 14.855469 16.765625 14.480469 17.035156 C 14.105469 17.308594 12.371094 15.710938 11.90625 15.710938 C 11.441406 15.710938 9.707031 17.308594 9.332031 17.035156 C 8.957031 16.765625 9.941406 14.621094 9.800781 14.183594 C 9.65625 13.738281 7.597656 12.582031 7.742188 12.140625 C 7.882812 11.703125 10.226562 11.972656 10.601562 11.703125 C 10.976562 11.429688 11.441406 9.121094 11.90625 9.121094 Z M 11.90625 9.121094 "/>
</g>
</svg>
