<?xml version="1.0" encoding="UTF-8"?>
<svg xmlns="http://www.w3.org/2000/svg" xmlns:xlink="http://www.w3.org/1999/xlink" width="16px" height="16px" viewBox="0 0 16 16" version="1.1">
<g id="surface1">
<path style=" stroke:none;fill-rule:nonzero;fill:rgb(36.862746%,20.784314%,69.411767%);fill-opacity:1;" d="M 2.316406 1.777344 L 14.550781 1.777344 C 14.917969 1.777344 15.214844 2.074219 15.214844 2.441406 L 15.214844 6.410156 C 15.214844 6.773438 14.917969 7.070312 14.550781 7.070312 L 2.316406 7.070312 C 1.949219 7.070312 1.652344 6.773438 1.652344 6.410156 L 1.652344 2.441406 C 1.652344 2.074219 1.949219 1.777344 2.316406 1.777344 Z M 2.316406 1.777344 "/>
<path style=" stroke:none;fill-rule:nonzero;fill:rgb(96.078432%,96.078432%,96.078432%);fill-opacity:1;" d="M 7.9375 3.761719 L 14.550781 3.761719 C 14.734375 3.761719 14.882812 3.910156 14.882812 4.09375 L 14.882812 6.410156 C 14.882812 6.589844 14.734375 6.738281 14.550781 6.738281 L 7.9375 6.738281 C 7.753906 6.738281 7.605469 6.589844 7.605469 6.410156 L 7.605469 4.09375 C 7.605469 3.910156 7.753906 3.761719 7.9375 3.761719 Z M 7.9375 3.761719 "/>
<path style=" stroke:none;fill-rule:nonzero;fill:rgb(49.411765%,34.117648%,76.078433%);fill-opacity:1;" d="M 1.324219 3.101562 C 0.957031 3.101562 0.660156 3.398438 0.660156 3.761719 L 0.660156 13.683594 C 0.660156 14.050781 0.957031 14.347656 1.324219 14.347656 L 14.550781 14.347656 C 14.917969 14.347656 15.214844 14.050781 15.214844 13.683594 L 15.214844 6.078125 C 15.214844 5.710938 14.917969 5.421875 14.550781 5.417969 L 10.253906 5.417969 C 9.886719 5.417969 9.589844 5.121094 9.589844 4.753906 L 9.589844 3.761719 C 9.589844 3.398438 9.296875 3.101562 8.929688 3.101562 Z M 1.324219 3.101562 "/>
<path style=" stroke:none;fill-rule:nonzero;fill:rgb(100%,100%,100%);fill-opacity:0.313726;" d="M 2.316406 8.394531 C 2.132812 8.394531 1.984375 8.539062 1.984375 8.722656 L 1.984375 13.355469 C 1.984375 13.539062 2.132812 13.683594 2.316406 13.683594 L 2.644531 13.683594 L 2.644531 8.394531 Z M 2.976562 8.394531 L 2.976562 13.683594 L 6.285156 13.683594 C 6.46875 13.683594 6.613281 13.539062 6.613281 13.355469 L 6.613281 8.722656 C 6.613281 8.539062 6.46875 8.394531 6.285156 8.394531 Z M 3.96875 9.550781 L 5.457031 9.550781 C 5.546875 9.550781 5.621094 9.625 5.621094 9.714844 C 5.621094 9.808594 5.546875 9.882812 5.457031 9.882812 L 3.96875 9.882812 C 3.878906 9.882812 3.804688 9.808594 3.804688 9.714844 C 3.804688 9.625 3.878906 9.550781 3.96875 9.550781 Z M 3.96875 10.378906 L 5.457031 10.378906 C 5.546875 10.378906 5.621094 10.453125 5.621094 10.542969 C 5.621094 10.632812 5.546875 10.707031 5.457031 10.707031 L 3.96875 10.707031 C 3.878906 10.707031 3.804688 10.632812 3.804688 10.542969 C 3.804688 10.453125 3.878906 10.378906 3.96875 10.378906 Z M 3.96875 11.203125 L 5.457031 11.203125 C 5.546875 11.203125 5.621094 11.277344 5.621094 11.371094 C 5.621094 11.460938 5.546875 11.535156 5.457031 11.535156 L 3.96875 11.535156 C 3.878906 11.535156 3.804688 11.460938 3.804688 11.371094 C 3.804688 11.277344 3.878906 11.203125 3.96875 11.203125 Z M 3.96875 11.203125 "/>
</g>
</svg>
