<?xml version="1.0" encoding="UTF-8"?>
<svg xmlns="http://www.w3.org/2000/svg" xmlns:xlink="http://www.w3.org/1999/xlink" width="16px" height="16px" viewBox="0 0 16 16" version="1.1">
<defs>
<linearGradient id="linear0" gradientUnits="userSpaceOnUse" x1="1400" y1="1095.118164" x2="1480" y2="1215.118164" gradientTransform="matrix(0.00826823,0,0,0.00826823,0,0)">
<stop offset="0" style="stop-color:rgb(73.725492%,66.666669%,64.313728%);stop-opacity:1;"/>
<stop offset="1" style="stop-color:rgb(73.725492%,66.666669%,64.313728%);stop-opacity:0;"/>
</linearGradient>
<linearGradient id="linear1" gradientUnits="userSpaceOnUse" x1="1720" y1="975.118103" x2="1600" y2="1375.118164" gradientTransform="matrix(0.00826823,0,0,0.00826823,0,0)">
<stop offset="0" style="stop-color:rgb(73.725492%,66.666669%,64.313728%);stop-opacity:1;"/>
<stop offset="1" style="stop-color:rgb(73.725492%,66.666669%,64.313728%);stop-opacity:0;"/>
</linearGradient>
</defs>
<g id="surface1">
<path style=" stroke:none;fill-rule:nonzero;fill:rgb(36.078432%,41.960785%,75.294119%);fill-opacity:1;" d="M 7.929688 4.582031 C 9.851562 4.582031 11.410156 6.140625 11.410156 8.0625 C 11.410156 9.984375 9.851562 11.542969 7.929688 11.542969 C 6.007812 11.542969 4.453125 9.984375 4.453125 8.0625 C 4.453125 6.140625 6.007812 4.582031 7.929688 4.582031 Z M 7.929688 4.582031 "/>
<path style=" stroke:none;fill-rule:nonzero;fill:rgb(47.450981%,33.333334%,28.235295%);fill-opacity:1;" d="M 5.949219 2.253906 C 4.414062 2.980469 3.175781 4.234375 2.464844 5.78125 C 3.816406 5.125 5.089844 4.882812 6.015625 4.425781 C 5.855469 4.359375 5.632812 4.234375 5.632812 3.851562 C 5.632812 3.277344 5.804688 2.632812 5.949219 2.253906 Z M 5.949219 2.253906 "/>
<path style=" stroke:none;fill-rule:nonzero;fill:rgb(55.29412%,43.137255%,38.82353%);fill-opacity:1;" d="M 9.460938 0.785156 C 8.324219 1.960938 7.980469 2.820312 7.941406 3.851562 C 7.9375 3.851562 7.933594 3.851562 7.929688 3.851562 L 7.929688 4.617188 C 9.839844 4.617188 11.378906 6.152344 11.378906 8.0625 C 11.378906 9.972656 9.839844 11.507812 7.929688 11.507812 C 6.023438 11.507812 4.484375 9.972656 4.484375 8.0625 C 4.460938 5.53125 7.929688 7.296875 8.3125 5.765625 C 7.546875 5.382812 6.398438 4.042969 6.015625 3.851562 C 5.605469 3.605469 5.25 3.085938 4.484375 3.085938 C 4.484375 2.507812 4.65625 1.867188 4.800781 1.488281 C 2.347656 2.652344 0.65625 5.152344 0.65625 8.0625 C 0.65625 12.09375 3.898438 15.339844 7.929688 15.339844 C 11.960938 15.339844 15.207031 12.09375 15.207031 8.0625 C 15.207031 4.234375 11.507812 3.332031 9.460938 0.785156 Z M 9.460938 0.785156 "/>
<path style=" stroke:none;fill-rule:nonzero;fill:url(#linear0);" d="M 9.078125 6.53125 C 10.773438 7.265625 10.996094 8.574219 10.996094 10.546875 C 10.996094 10.800781 10.976562 11.050781 10.9375 11.292969 C 11.457031 11.5 11.914062 11.820312 12.285156 12.226562 C 12.441406 11.761719 12.527344 11.261719 12.527344 10.742188 C 12.527344 8.261719 11.539062 6.628906 9.078125 6.53125 Z M 9.078125 6.53125 "/>
<path style=" stroke:none;fill-rule:nonzero;fill:url(#linear1);" d="M 12.527344 3.085938 C 14.222656 5.746094 14.222656 10.378906 10.421875 11.132812 C 11.597656 11.40625 12.550781 12.246094 12.984375 13.351562 C 14.023438 12.359375 14.828125 10.914062 15.097656 9.304688 C 15.46875 7.078125 14.875 3.816406 12.527344 3.085938 Z M 12.527344 3.085938 "/>
<path style=" stroke:none;fill-rule:nonzero;fill:rgb(73.725492%,66.666669%,64.313728%);fill-opacity:1;" d="M 3.820312 5.394531 C 3.175781 5.398438 2.671875 5.621094 2.671875 6.285156 C 2.671875 6.667969 4.484375 6.914062 4.484375 6.914062 C 4.167969 7.867188 4.375 8.554688 4.675781 9.199219 C 4.550781 8.84375 4.484375 8.460938 4.484375 8.0625 C 4.460938 5.582031 7.800781 7.230469 8.289062 5.847656 C 7.695312 5.945312 6.554688 6.058594 5.507812 5.710938 C 4.988281 5.535156 4.355469 5.390625 3.820312 5.394531 Z M 3.820312 5.394531 "/>
</g>
</svg>
