<?xml version="1.0" encoding="UTF-8"?>
<svg xmlns="http://www.w3.org/2000/svg" xmlns:xlink="http://www.w3.org/1999/xlink" width="16px" height="16px" viewBox="0 0 16 16" version="1.1">
<g id="surface1">
<path style=" stroke:none;fill-rule:nonzero;fill:rgb(93.725491%,32.549021%,31.37255%);fill-opacity:1;" d="M 1.324219 0.785156 L 6.613281 0.785156 C 6.980469 0.785156 7.277344 1.082031 7.277344 1.449219 L 7.277344 9.054688 C 7.277344 9.421875 6.980469 9.714844 6.613281 9.714844 L 1.324219 9.714844 C 0.957031 9.714844 0.660156 9.421875 0.660156 9.054688 L 0.660156 1.449219 C 0.660156 1.082031 0.957031 0.785156 1.324219 0.785156 Z M 1.324219 0.785156 "/>
<path style=" stroke:none;fill-rule:nonzero;fill:rgb(93.725491%,32.549021%,31.37255%);fill-opacity:1;" d="M 9.261719 0.785156 L 14.550781 0.785156 C 14.917969 0.785156 15.214844 1.082031 15.214844 1.449219 L 15.214844 9.054688 C 15.214844 9.421875 14.917969 9.714844 14.550781 9.714844 L 9.261719 9.714844 C 8.894531 9.714844 8.597656 9.421875 8.597656 9.054688 L 8.597656 1.449219 C 8.597656 1.082031 8.894531 0.785156 9.261719 0.785156 Z M 9.261719 0.785156 "/>
<path style=" stroke:none;fill-rule:nonzero;fill:rgb(89.803922%,45.09804%,45.09804%);fill-opacity:1;" d="M 5.292969 6.410156 L 10.582031 6.410156 C 10.949219 6.410156 11.246094 6.703125 11.246094 7.070312 L 11.246094 14.675781 C 11.246094 15.042969 10.949219 15.339844 10.582031 15.339844 L 5.292969 15.339844 C 4.925781 15.339844 4.628906 15.042969 4.628906 14.675781 L 4.628906 7.070312 C 4.628906 6.703125 4.925781 6.410156 5.292969 6.410156 Z M 5.292969 6.410156 "/>
<path style=" stroke:none;fill-rule:nonzero;fill:rgb(89.803922%,22.352941%,20.784314%);fill-opacity:1;" d="M 11.90625 4.425781 C 12.363281 4.425781 12.734375 4.792969 12.734375 5.25 C 12.734375 5.707031 12.363281 6.078125 11.90625 6.078125 C 11.449219 6.078125 11.078125 5.707031 11.078125 5.25 C 11.078125 4.792969 11.449219 4.425781 11.90625 4.425781 Z M 11.90625 4.425781 "/>
<path style=" stroke:none;fill-rule:nonzero;fill:rgb(89.803922%,22.352941%,20.784314%);fill-opacity:1;" d="M 7.9375 7.402344 C 8.394531 7.402344 8.765625 7.769531 8.765625 8.226562 C 8.765625 8.683594 8.394531 9.054688 7.9375 9.054688 C 7.480469 9.054688 7.109375 8.683594 7.109375 8.226562 C 7.109375 7.769531 7.480469 7.402344 7.9375 7.402344 Z M 7.9375 7.402344 "/>
<path style=" stroke:none;fill-rule:nonzero;fill:rgb(89.803922%,22.352941%,20.784314%);fill-opacity:1;" d="M 7.9375 12.691406 C 8.394531 12.691406 8.765625 13.0625 8.765625 13.519531 C 8.765625 13.976562 8.394531 14.347656 7.9375 14.347656 C 7.480469 14.347656 7.109375 13.976562 7.109375 13.519531 C 7.109375 13.0625 7.480469 12.691406 7.9375 12.691406 Z M 7.9375 12.691406 "/>
<path style=" stroke:none;fill-rule:nonzero;fill:rgb(89.803922%,22.352941%,20.784314%);fill-opacity:1;" d="M 2.480469 1.777344 C 2.9375 1.777344 3.308594 2.148438 3.308594 2.605469 C 3.308594 3.0625 2.9375 3.433594 2.480469 3.433594 C 2.023438 3.433594 1.652344 3.0625 1.652344 2.605469 C 1.652344 2.148438 2.023438 1.777344 2.480469 1.777344 Z M 2.480469 1.777344 "/>
<path style=" stroke:none;fill-rule:nonzero;fill:rgb(89.803922%,22.352941%,20.784314%);fill-opacity:1;" d="M 5.457031 1.777344 C 5.914062 1.777344 6.285156 2.148438 6.285156 2.605469 C 6.285156 3.0625 5.914062 3.433594 5.457031 3.433594 C 5 3.433594 4.628906 3.0625 4.628906 2.605469 C 4.628906 2.148438 5 1.777344 5.457031 1.777344 Z M 5.457031 1.777344 "/>
<path style=" stroke:none;fill-rule:nonzero;fill:rgb(89.803922%,22.352941%,20.784314%);fill-opacity:1;" d="M 3.96875 4.425781 C 4.425781 4.425781 4.796875 4.792969 4.796875 5.25 C 4.796875 5.707031 4.425781 6.078125 3.96875 6.078125 C 3.511719 6.078125 3.140625 5.707031 3.140625 5.25 C 3.140625 4.792969 3.511719 4.425781 3.96875 4.425781 Z M 3.96875 4.425781 "/>
<path style=" stroke:none;fill-rule:nonzero;fill:rgb(89.803922%,22.352941%,20.784314%);fill-opacity:1;" d="M 2.480469 7.070312 C 2.9375 7.070312 3.308594 7.441406 3.308594 7.898438 C 3.308594 8.355469 2.9375 8.722656 2.480469 8.722656 C 2.023438 8.722656 1.652344 8.355469 1.652344 7.898438 C 1.652344 7.441406 2.023438 7.070312 2.480469 7.070312 Z M 2.480469 7.070312 "/>
<path style=" stroke:none;fill-rule:nonzero;fill:rgb(93.333334%,93.333334%,93.333334%);fill-opacity:1;" d="M 11.90625 4.589844 C 12.273438 4.589844 12.566406 4.886719 12.566406 5.25 C 12.566406 5.617188 12.273438 5.914062 11.90625 5.914062 C 11.539062 5.914062 11.246094 5.617188 11.246094 5.25 C 11.246094 4.886719 11.539062 4.589844 11.90625 4.589844 Z M 11.90625 4.589844 "/>
<path style=" stroke:none;fill-rule:nonzero;fill:rgb(93.333334%,93.333334%,93.333334%);fill-opacity:1;" d="M 7.9375 7.566406 C 8.304688 7.566406 8.597656 7.863281 8.597656 8.226562 C 8.597656 8.59375 8.304688 8.890625 7.9375 8.890625 C 7.570312 8.890625 7.277344 8.59375 7.277344 8.226562 C 7.277344 7.863281 7.570312 7.566406 7.9375 7.566406 Z M 7.9375 7.566406 "/>
<path style=" stroke:none;fill-rule:nonzero;fill:rgb(93.333334%,93.333334%,93.333334%);fill-opacity:1;" d="M 7.9375 12.859375 C 8.304688 12.859375 8.597656 13.152344 8.597656 13.519531 C 8.597656 13.886719 8.304688 14.179688 7.9375 14.179688 C 7.570312 14.179688 7.277344 13.886719 7.277344 13.519531 C 7.277344 13.152344 7.570312 12.859375 7.9375 12.859375 Z M 7.9375 12.859375 "/>
<path style=" stroke:none;fill-rule:nonzero;fill:rgb(93.333334%,93.333334%,93.333334%);fill-opacity:1;" d="M 5.457031 1.945312 C 5.824219 1.945312 6.117188 2.238281 6.117188 2.605469 C 6.117188 2.972656 5.824219 3.265625 5.457031 3.265625 C 5.089844 3.265625 4.796875 2.972656 4.796875 2.605469 C 4.796875 2.238281 5.089844 1.945312 5.457031 1.945312 Z M 5.457031 1.945312 "/>
<path style=" stroke:none;fill-rule:nonzero;fill:rgb(93.333334%,93.333334%,93.333334%);fill-opacity:1;" d="M 2.480469 1.945312 C 2.847656 1.945312 3.140625 2.238281 3.140625 2.605469 C 3.140625 2.972656 2.847656 3.265625 2.480469 3.265625 C 2.113281 3.265625 1.820312 2.972656 1.820312 2.605469 C 1.820312 2.238281 2.113281 1.945312 2.480469 1.945312 Z M 2.480469 1.945312 "/>
<path style=" stroke:none;fill-rule:nonzero;fill:rgb(93.333334%,93.333334%,93.333334%);fill-opacity:1;" d="M 3.96875 4.589844 C 4.335938 4.589844 4.628906 4.886719 4.628906 5.25 C 4.628906 5.617188 4.335938 5.914062 3.96875 5.914062 C 3.601562 5.914062 3.308594 5.617188 3.308594 5.25 C 3.308594 4.886719 3.601562 4.589844 3.96875 4.589844 Z M 3.96875 4.589844 "/>
<path style=" stroke:none;fill-rule:nonzero;fill:rgb(93.333334%,93.333334%,93.333334%);fill-opacity:1;" d="M 2.480469 7.234375 C 2.847656 7.234375 3.140625 7.53125 3.140625 7.898438 C 3.140625 8.261719 2.847656 8.558594 2.480469 8.558594 C 2.113281 8.558594 1.820312 8.261719 1.820312 7.898438 C 1.820312 7.53125 2.113281 7.234375 2.480469 7.234375 Z M 2.480469 7.234375 "/>
</g>
</svg>
