<?xml version="1.0" encoding="UTF-8"?>
<svg xmlns="http://www.w3.org/2000/svg" xmlns:xlink="http://www.w3.org/1999/xlink" width="16px" height="16px" viewBox="0 0 16 16" version="1.1">
<g id="surface1">
<path style=" stroke:none;fill-rule:nonzero;fill:rgb(87.843138%,87.843138%,87.843138%);fill-opacity:1;" d="M 1.984375 0.785156 L 13.890625 0.785156 C 14.621094 0.785156 15.214844 1.378906 15.214844 2.109375 L 15.214844 14.015625 C 15.214844 14.746094 14.621094 15.339844 13.890625 15.339844 L 1.984375 15.339844 C 1.253906 15.339844 0.660156 14.746094 0.660156 14.015625 L 0.660156 2.109375 C 0.660156 1.378906 1.253906 0.785156 1.984375 0.785156 Z M 1.984375 0.785156 "/>
<path style=" stroke:none;fill-rule:nonzero;fill:rgb(93.333334%,93.333334%,93.333334%);fill-opacity:1;" d="M 1.984375 1.449219 L 13.890625 1.449219 C 14.257812 1.449219 14.550781 1.742188 14.550781 2.109375 L 14.550781 14.015625 C 14.550781 14.382812 14.257812 14.675781 13.890625 14.675781 L 1.984375 14.675781 C 1.617188 14.675781 1.324219 14.382812 1.324219 14.015625 L 1.324219 2.109375 C 1.324219 1.742188 1.617188 1.449219 1.984375 1.449219 Z M 1.984375 1.449219 "/>
<path style=" stroke:none;fill-rule:nonzero;fill:rgb(25.882354%,25.882354%,25.882354%);fill-opacity:1;" d="M 6.117188 2.441406 C 4.746094 2.441406 3.636719 3.472656 3.636719 4.753906 L 3.636719 9.054688 C 3.636719 9.238281 3.785156 9.386719 3.96875 9.386719 L 4.300781 9.386719 C 4.484375 9.386719 4.628906 9.238281 4.628906 9.054688 L 4.628906 7.070312 L 7.605469 7.070312 L 7.605469 9.054688 C 7.605469 9.238281 7.753906 9.386719 7.9375 9.386719 L 8.269531 9.386719 C 8.453125 9.386719 8.597656 9.238281 8.597656 9.054688 L 8.597656 4.753906 C 8.597656 3.472656 7.492188 2.441406 6.117188 2.441406 Z M 6.117188 3.433594 C 6.941406 3.433594 7.605469 4.167969 7.605469 5.085938 L 7.605469 6.078125 L 4.628906 6.078125 L 4.628906 5.085938 C 4.628906 4.167969 5.292969 3.433594 6.117188 3.433594 Z M 6.117188 3.433594 "/>
<path style=" stroke:none;fill-rule:nonzero;fill:rgb(93.725491%,32.549021%,31.37255%);fill-opacity:1;" d="M 9.640625 6.75 C 9.386719 6.738281 9.167969 6.921875 9.132812 7.175781 C 9.085938 7.457031 9.050781 7.738281 9.019531 8.015625 C 8.566406 8.015625 8.167969 7.976562 7.695312 7.917969 C 7.519531 7.894531 7.34375 7.964844 7.234375 8.109375 C 7.125 8.25 7.105469 8.4375 7.175781 8.601562 C 7.246094 8.765625 7.398438 8.878906 7.574219 8.898438 C 8.042969 8.953125 8.464844 8.996094 8.9375 8.996094 C 8.921875 9.355469 8.925781 9.703125 8.945312 10.046875 C 7.59375 10.597656 6.96875 11.773438 7.195312 12.738281 C 7.320312 13.261719 7.816406 13.714844 8.425781 13.722656 C 8.910156 13.730469 9.421875 13.527344 9.992188 13.109375 C 10.179688 13.246094 10.4375 13.234375 10.613281 13.082031 C 10.785156 12.925781 10.828125 12.671875 10.714844 12.46875 C 11.125 12.042969 11.457031 11.636719 11.726562 11.21875 C 11.855469 11.316406 11.957031 11.410156 12.023438 11.492188 C 12.171875 11.683594 12.1875 11.804688 12.167969 11.933594 C 12.128906 12.1875 11.777344 12.5625 11.277344 12.734375 C 11.109375 12.792969 10.980469 12.933594 10.945312 13.109375 C 10.910156 13.285156 10.972656 13.464844 11.109375 13.582031 C 11.246094 13.699219 11.433594 13.730469 11.601562 13.671875 C 12.347656 13.410156 13.023438 12.875 13.144531 12.082031 C 13.207031 11.683594 13.085938 11.246094 12.800781 10.882812 C 12.644531 10.683594 12.4375 10.503906 12.191406 10.335938 C 12.203125 10.304688 12.214844 10.273438 12.230469 10.246094 C 12.292969 10.089844 12.273438 9.910156 12.179688 9.773438 C 12.082031 9.636719 11.921875 9.554688 11.753906 9.5625 C 11.558594 9.566406 11.382812 9.691406 11.3125 9.878906 C 11.308594 9.878906 11.308594 9.882812 11.308594 9.886719 C 10.875 9.753906 10.464844 9.703125 9.921875 9.785156 C 9.914062 9.515625 9.914062 9.238281 9.929688 8.949219 C 10.566406 8.890625 11.335938 8.769531 12.363281 8.5625 C 12.621094 8.511719 12.792969 8.277344 12.765625 8.019531 C 12.734375 7.761719 12.507812 7.570312 12.25 7.582031 C 12.222656 7.582031 12.195312 7.585938 12.167969 7.59375 C 11.25 7.78125 10.574219 7.894531 10.019531 7.953125 C 10.046875 7.75 10.074219 7.539062 10.109375 7.324219 C 10.132812 7.183594 10.09375 7.042969 10.003906 6.929688 C 9.914062 6.820312 9.78125 6.753906 9.640625 6.75 Z M 10.414062 10.707031 C 10.429688 10.707031 10.441406 10.707031 10.453125 10.707031 C 10.582031 10.710938 10.703125 10.738281 10.835938 10.773438 C 10.667969 11.023438 10.472656 11.269531 10.238281 11.53125 C 10.148438 11.285156 10.078125 11.027344 10.027344 10.757812 C 10.179688 10.726562 10.304688 10.710938 10.414062 10.707031 Z M 9.082031 11.078125 C 9.167969 11.488281 9.296875 11.882812 9.46875 12.265625 C 8.980469 12.628906 8.617188 12.738281 8.4375 12.734375 C 8.21875 12.730469 8.199219 12.691406 8.15625 12.511719 C 8.085938 12.210938 8.296875 11.503906 9.082031 11.078125 Z M 9.082031 11.078125 "/>
</g>
</svg>
