<?xml version="1.0" encoding="UTF-8"?>
<svg xmlns="http://www.w3.org/2000/svg" xmlns:xlink="http://www.w3.org/1999/xlink" width="16px" height="16px" viewBox="0 0 16 16" version="1.1">
<g id="surface1">
<path style=" stroke:none;fill-rule:nonzero;fill:rgb(100%,71.764708%,30.19608%);fill-opacity:1;" d="M 0.660156 4.425781 L 0.660156 13.683594 C 0.660156 14.050781 0.957031 14.347656 1.324219 14.347656 L 14.550781 14.347656 C 14.917969 14.347656 15.214844 14.050781 15.214844 13.683594 L 15.214844 4.425781 Z M 0.660156 4.425781 "/>
<path style=" stroke:none;fill-rule:nonzero;fill:rgb(94.117647%,38.431373%,57.254905%);fill-opacity:1;" d="M 0.660156 4.425781 L 0.660156 13.746094 C 0.660156 14.078125 0.957031 14.347656 1.324219 14.347656 L 14.550781 14.347656 C 14.734375 14.347656 14.898438 14.28125 15.019531 14.171875 L 4.019531 4.425781 Z M 0.660156 4.425781 "/>
<path style=" stroke:none;fill-rule:nonzero;fill:rgb(72.941178%,40.784314%,78.431374%);fill-opacity:1;" d="M 12.148438 4.425781 L 0.859375 14.175781 C 0.980469 14.28125 1.140625 14.347656 1.324219 14.347656 L 14.550781 14.347656 C 14.917969 14.347656 15.214844 14.078125 15.214844 13.746094 L 15.214844 4.425781 Z M 12.148438 4.425781 "/>
<path style=" stroke:none;fill-rule:nonzero;fill:rgb(25.882354%,25.882354%,25.882354%);fill-opacity:1;" d="M 1.324219 1.777344 C 0.957031 1.777344 0.660156 2.074219 0.660156 2.441406 L 0.660156 4.425781 L 15.214844 4.425781 L 15.214844 2.441406 C 15.214844 2.074219 14.917969 1.777344 14.550781 1.777344 Z M 1.324219 1.777344 "/>
<path style=" stroke:none;fill-rule:nonzero;fill:rgb(93.725491%,32.549021%,31.37255%);fill-opacity:1;" d="M 14.425781 2.398438 C 14.492188 2.464844 14.492188 2.570312 14.425781 2.632812 L 13.257812 3.804688 C 13.191406 3.867188 13.089844 3.867188 13.023438 3.804688 C 12.960938 3.738281 12.960938 3.632812 13.023438 3.570312 L 14.191406 2.398438 C 14.257812 2.335938 14.363281 2.335938 14.425781 2.398438 Z M 14.425781 2.398438 "/>
<path style=" stroke:none;fill-rule:nonzero;fill:rgb(93.725491%,32.549021%,31.37255%);fill-opacity:1;" d="M 14.425781 3.804688 C 14.363281 3.867188 14.257812 3.867188 14.191406 3.804688 L 13.023438 2.632812 C 12.960938 2.570312 12.960938 2.464844 13.023438 2.398438 C 13.089844 2.335938 13.191406 2.335938 13.257812 2.398438 L 14.425781 3.570312 C 14.492188 3.632812 14.492188 3.738281 14.425781 3.804688 Z M 14.425781 3.804688 "/>
<path style=" stroke:none;fill-rule:nonzero;fill:rgb(93.333334%,93.333334%,93.333334%);fill-opacity:1;" d="M 3.308594 7.402344 L 12.566406 7.402344 C 12.75 7.402344 12.898438 7.550781 12.898438 7.730469 L 12.898438 11.039062 C 12.898438 11.222656 12.75 11.371094 12.566406 11.371094 L 3.308594 11.371094 C 3.125 11.371094 2.976562 11.222656 2.976562 11.039062 L 2.976562 7.730469 C 2.976562 7.550781 3.125 7.402344 3.308594 7.402344 Z M 3.308594 7.402344 "/>
<path style=" stroke:none;fill-rule:nonzero;fill:rgb(25.882354%,25.882354%,25.882354%);fill-opacity:1;" d="M 5.789062 8.558594 C 5.695312 8.558594 5.621094 8.632812 5.621094 8.722656 L 5.621094 9.097656 L 5.296875 8.910156 C 5.21875 8.867188 5.117188 8.894531 5.070312 8.972656 C 5.027344 9.050781 5.054688 9.152344 5.132812 9.199219 L 5.457031 9.386719 L 5.132812 9.574219 C 5.054688 9.617188 5.027344 9.71875 5.070312 9.796875 C 5.117188 9.878906 5.21875 9.90625 5.296875 9.859375 L 5.621094 9.671875 L 5.621094 10.046875 C 5.621094 10.136719 5.695312 10.210938 5.789062 10.210938 C 5.878906 10.210938 5.953125 10.136719 5.953125 10.046875 L 5.953125 9.671875 L 6.277344 9.859375 C 6.355469 9.90625 6.457031 9.878906 6.503906 9.796875 C 6.550781 9.71875 6.523438 9.617188 6.441406 9.574219 L 6.117188 9.386719 L 6.441406 9.199219 C 6.523438 9.152344 6.550781 9.050781 6.503906 8.972656 C 6.457031 8.894531 6.355469 8.867188 6.277344 8.910156 L 5.953125 9.097656 L 5.953125 8.722656 C 5.953125 8.632812 5.878906 8.558594 5.789062 8.558594 Z M 5.789062 8.558594 "/>
<path style=" stroke:none;fill-rule:nonzero;fill:rgb(25.882354%,25.882354%,25.882354%);fill-opacity:1;" d="M 7.9375 8.558594 C 7.847656 8.558594 7.773438 8.632812 7.773438 8.722656 L 7.773438 9.097656 L 7.449219 8.910156 C 7.367188 8.867188 7.265625 8.894531 7.222656 8.972656 C 7.175781 9.050781 7.203125 9.152344 7.28125 9.199219 L 7.605469 9.386719 L 7.28125 9.574219 C 7.203125 9.617188 7.175781 9.71875 7.222656 9.796875 C 7.265625 9.878906 7.367188 9.90625 7.449219 9.859375 L 7.773438 9.671875 L 7.773438 10.046875 C 7.773438 10.136719 7.847656 10.210938 7.9375 10.210938 C 8.027344 10.210938 8.101562 10.136719 8.101562 10.046875 L 8.101562 9.671875 L 8.425781 9.859375 C 8.507812 9.90625 8.609375 9.878906 8.652344 9.796875 C 8.699219 9.71875 8.671875 9.617188 8.59375 9.574219 L 8.269531 9.386719 L 8.59375 9.199219 C 8.671875 9.152344 8.699219 9.050781 8.652344 8.972656 C 8.609375 8.894531 8.507812 8.867188 8.425781 8.910156 L 8.101562 9.097656 L 8.101562 8.722656 C 8.101562 8.632812 8.027344 8.558594 7.9375 8.558594 Z M 7.9375 8.558594 "/>
<path style=" stroke:none;fill-rule:nonzero;fill:rgb(93.725491%,32.549021%,31.37255%);fill-opacity:1;" d="M 10.085938 8.558594 C 9.996094 8.558594 9.921875 8.632812 9.921875 8.722656 L 9.921875 9.097656 L 9.597656 8.910156 C 9.519531 8.867188 9.417969 8.894531 9.371094 8.972656 C 9.324219 9.050781 9.351562 9.152344 9.433594 9.199219 L 9.757812 9.386719 L 9.433594 9.574219 C 9.351562 9.617188 9.324219 9.71875 9.371094 9.796875 C 9.417969 9.878906 9.519531 9.90625 9.597656 9.859375 L 9.921875 9.671875 L 9.921875 10.046875 C 9.921875 10.136719 9.996094 10.210938 10.085938 10.210938 C 10.179688 10.210938 10.253906 10.136719 10.253906 10.046875 L 10.253906 9.671875 L 10.578125 9.859375 C 10.65625 9.90625 10.757812 9.878906 10.804688 9.796875 C 10.847656 9.71875 10.820312 9.617188 10.742188 9.574219 L 10.417969 9.386719 L 10.742188 9.199219 C 10.820312 9.152344 10.847656 9.050781 10.804688 8.972656 C 10.757812 8.894531 10.65625 8.867188 10.578125 8.910156 L 10.253906 9.097656 L 10.253906 8.722656 C 10.253906 8.632812 10.179688 8.558594 10.085938 8.558594 Z M 10.085938 8.558594 "/>
</g>
</svg>
