<?xml version="1.0" encoding="UTF-8"?>
<svg xmlns="http://www.w3.org/2000/svg" xmlns:xlink="http://www.w3.org/1999/xlink" width="16px" height="16px" viewBox="0 0 16 16" version="1.1">
<g id="surface1">
<path style=" stroke:none;fill-rule:nonzero;fill:rgb(14.901961%,77.64706%,85.490197%);fill-opacity:1;" d="M 3.152344 2.421875 L 5.445312 1.101562 C 5.761719 0.917969 6.167969 1.027344 6.347656 1.34375 L 12.964844 12.796875 C 13.144531 13.113281 13.039062 13.519531 12.722656 13.703125 L 10.429688 15.023438 C 10.113281 15.207031 9.707031 15.097656 9.527344 14.78125 L 2.910156 3.328125 C 2.730469 3.011719 2.835938 2.605469 3.152344 2.421875 Z M 3.152344 2.421875 "/>
<path style=" stroke:none;fill-rule:nonzero;fill:rgb(30.19608%,81.568629%,88.235295%);fill-opacity:1;" d="M 15.214844 6.738281 L 15.214844 9.386719 C 15.214844 9.75 14.917969 10.046875 14.550781 10.046875 L 1.324219 10.046875 C 0.957031 10.046875 0.660156 9.75 0.660156 9.386719 L 0.660156 6.738281 C 0.660156 6.375 0.957031 6.078125 1.324219 6.078125 L 14.550781 6.078125 C 14.917969 6.078125 15.214844 6.375 15.214844 6.738281 Z M 15.214844 6.738281 "/>
<path style=" stroke:none;fill-rule:nonzero;fill:rgb(50.196081%,87.058824%,91.764706%);fill-opacity:1;" d="M 10.429688 1.101562 L 12.722656 2.421875 C 13.039062 2.605469 13.144531 3.011719 12.964844 3.328125 L 6.347656 14.78125 C 6.167969 15.097656 5.761719 15.207031 5.445312 15.023438 L 3.152344 13.703125 C 2.835938 13.519531 2.730469 13.113281 2.910156 12.796875 L 9.527344 1.34375 C 9.707031 1.027344 10.113281 0.917969 10.429688 1.101562 Z M 10.429688 1.101562 "/>
</g>
</svg>
