<?xml version="1.0" encoding="UTF-8"?>
<svg xmlns="http://www.w3.org/2000/svg" xmlns:xlink="http://www.w3.org/1999/xlink" width="16px" height="16px" viewBox="0 0 16 16" version="1.1">
<g id="surface1">
<path style=" stroke:none;fill-rule:nonzero;fill:rgb(36.078432%,41.960785%,75.294119%);fill-opacity:1;" d="M 1.324219 0.785156 L 14.550781 0.785156 C 14.917969 0.785156 15.214844 1.082031 15.214844 1.449219 L 15.214844 14.675781 C 15.214844 15.042969 14.917969 15.339844 14.550781 15.339844 L 1.324219 15.339844 C 0.957031 15.339844 0.660156 15.042969 0.660156 14.675781 L 0.660156 1.449219 C 0.660156 1.082031 0.957031 0.785156 1.324219 0.785156 Z M 1.324219 0.785156 "/>
<path style=" stroke:none;fill-rule:nonzero;fill:rgb(14.901961%,77.64706%,85.490197%);fill-opacity:1;" d="M 7.914062 3.761719 C 7.632812 3.773438 7.390625 3.957031 7.308594 4.222656 L 5.511719 9.859375 L 4.570312 7.789062 C 4.464844 7.550781 4.226562 7.402344 3.96875 7.402344 L 1.324219 7.402344 C 1.320312 7.402344 1.316406 7.402344 1.3125 7.402344 L 0.828125 7.402344 C 0.644531 7.402344 0.496094 7.546875 0.496094 7.730469 L 0.496094 8.394531 C 0.496094 8.578125 0.644531 8.722656 0.828125 8.722656 L 1.304688 8.722656 C 1.308594 8.722656 1.316406 8.722656 1.324219 8.722656 L 3.542969 8.722656 L 5.019531 11.972656 C 5.132812 12.222656 5.386719 12.378906 5.660156 12.359375 C 5.933594 12.34375 6.171875 12.160156 6.253906 11.902344 L 7.9375 6.609375 L 9.621094 11.902344 C 9.703125 12.160156 9.941406 12.34375 10.214844 12.359375 C 10.488281 12.378906 10.742188 12.222656 10.855469 11.972656 L 12.332031 8.722656 L 14.554688 8.722656 C 14.558594 8.722656 14.5625 8.722656 14.566406 8.722656 L 15.050781 8.722656 C 15.234375 8.722656 15.382812 8.578125 15.382812 8.394531 L 15.382812 7.730469 C 15.382812 7.546875 15.234375 7.402344 15.050781 7.402344 L 14.574219 7.402344 C 14.570312 7.402344 14.5625 7.402344 14.554688 7.402344 L 11.90625 7.402344 C 11.648438 7.402344 11.410156 7.550781 11.304688 7.789062 L 10.363281 9.859375 L 8.566406 4.222656 C 8.476562 3.941406 8.210938 3.753906 7.914062 3.761719 Z M 7.914062 3.761719 "/>
</g>
</svg>
