
<svg xmlns="http://www.w3.org/2000/svg" xmlns:xlink="http://www.w3.org/1999/xlink" width="22px" height="22px" viewBox="0 0 22 22" version="1.1">
<g id="surface1">
<path style=" stroke:none;fill-rule:nonzero;fill:rgb(36.078432%,41.960785%,75.294119%);fill-opacity:1;" d="M 2.957031 2.726562 L 18.871094 2.726562 C 18.996094 2.726562 19.101562 2.832031 19.101562 2.957031 L 19.101562 18.871094 C 19.101562 18.996094 18.996094 19.101562 18.871094 19.101562 L 2.957031 19.101562 C 2.832031 19.101562 2.726562 18.996094 2.726562 18.871094 L 2.726562 2.957031 C 2.726562 2.832031 2.832031 2.726562 2.957031 2.726562 Z M 2.957031 2.726562 "/>
<path style=" stroke:none;fill-rule:nonzero;fill:rgb(67.058825%,27.843139%,73.725492%);fill-opacity:1;" d="M 1.789062 0.910156 L 20.039062 0.910156 C 20.523438 0.910156 20.917969 1.304688 20.917969 1.789062 L 20.917969 20.039062 C 20.917969 20.523438 20.523438 20.917969 20.039062 20.917969 L 1.789062 20.917969 C 1.304688 20.917969 0.910156 20.523438 0.910156 20.039062 L 0.910156 1.789062 C 0.910156 1.304688 1.304688 0.910156 1.789062 0.910156 Z M 1.789062 0.910156 "/>
<path style=" stroke:none;fill-rule:nonzero;fill:rgb(97.254902%,73.333335%,81.568629%);fill-opacity:1;" d="M 2.273438 1.820312 L 19.554688 1.820312 C 19.804688 1.820312 20.007812 2.023438 20.007812 2.273438 L 20.007812 19.554688 C 20.007812 19.804688 19.804688 20.007812 19.554688 20.007812 L 2.273438 20.007812 C 2.023438 20.007812 1.820312 19.804688 1.820312 19.554688 L 1.820312 2.273438 C 1.820312 2.023438 2.023438 1.820312 2.273438 1.820312 Z M 2.273438 1.820312 "/>
<path style=" stroke:none;fill-rule:nonzero;fill:rgb(67.058825%,27.843139%,73.725492%);fill-opacity:1;" d="M 2.957031 2.726562 L 18.871094 2.726562 C 18.996094 2.726562 19.101562 2.832031 19.101562 2.957031 L 19.101562 18.871094 C 19.101562 18.996094 18.996094 19.101562 18.871094 19.101562 L 2.957031 19.101562 C 2.832031 19.101562 2.726562 18.996094 2.726562 18.871094 L 2.726562 2.957031 C 2.726562 2.832031 2.832031 2.726562 2.957031 2.726562 Z M 2.957031 2.726562 "/>
<path style=" stroke:none;fill-rule:nonzero;fill:rgb(97.254902%,73.333335%,81.568629%);fill-opacity:0.999958;" d="M 14.78125 8.867188 C 14.90625 8.867188 15.007812 8.96875 15.007812 9.09375 L 15.007812 14.324219 C 15.007812 14.449219 14.90625 14.550781 14.78125 14.550781 L 14.324219 14.550781 C 14.320312 14.550781 14.3125 14.550781 14.308594 14.550781 C 14.308594 14.550781 14.304688 14.550781 14.304688 14.550781 C 14.296875 14.550781 14.292969 14.550781 14.289062 14.550781 C 14.289062 14.550781 14.285156 14.550781 14.285156 14.546875 C 14.28125 14.546875 14.277344 14.546875 14.273438 14.546875 C 14.269531 14.546875 14.265625 14.542969 14.261719 14.542969 C 14.257812 14.542969 14.257812 14.542969 14.253906 14.542969 C 14.25 14.539062 14.242188 14.539062 14.238281 14.535156 C 14.238281 14.535156 14.238281 14.535156 14.234375 14.535156 C 14.230469 14.53125 14.222656 14.527344 14.21875 14.527344 C 14.214844 14.523438 14.214844 14.523438 14.210938 14.523438 C 14.207031 14.519531 14.203125 14.519531 14.199219 14.515625 C 14.199219 14.515625 14.195312 14.511719 14.195312 14.511719 C 14.191406 14.507812 14.1875 14.507812 14.183594 14.503906 C 14.183594 14.5 14.179688 14.5 14.175781 14.5 C 14.175781 14.496094 14.171875 14.492188 14.167969 14.488281 C 14.167969 14.488281 14.164062 14.488281 14.164062 14.484375 C 14.160156 14.480469 14.15625 14.476562 14.152344 14.472656 C 14.148438 14.46875 14.148438 14.464844 14.144531 14.464844 C 14.140625 14.460938 14.140625 14.457031 14.140625 14.457031 C 14.136719 14.453125 14.132812 14.449219 14.132812 14.445312 C 14.132812 14.445312 14.128906 14.441406 14.128906 14.4375 C 14.125 14.4375 14.125 14.433594 14.121094 14.429688 C 14.121094 14.425781 14.121094 14.425781 14.117188 14.421875 C 14.117188 14.417969 14.117188 14.414062 14.113281 14.410156 C 14.113281 14.40625 14.109375 14.402344 14.109375 14.394531 C 13.898438 14.496094 13.664062 14.550781 13.414062 14.550781 C 12.535156 14.550781 11.824219 13.84375 11.824219 12.960938 L 11.824219 12.050781 C 11.824219 11.167969 12.535156 10.460938 13.414062 10.460938 C 13.660156 10.460938 13.890625 10.515625 14.097656 10.613281 L 14.097656 9.09375 C 14.097656 8.96875 14.199219 8.867188 14.324219 8.867188 Z M 13.414062 11.367188 C 13.039062 11.367188 12.734375 11.671875 12.734375 12.050781 L 12.734375 12.960938 C 12.734375 13.339844 13.039062 13.640625 13.414062 13.640625 C 13.792969 13.640625 14.097656 13.339844 14.097656 12.960938 L 14.097656 12.050781 C 14.097656 11.671875 13.792969 11.367188 13.414062 11.367188 Z M 13.414062 11.367188 "/>
<path style=" stroke:none;fill-rule:nonzero;fill:rgb(97.254902%,73.333335%,81.568629%);fill-opacity:0.999958;" d="M 7.363281 7.226562 C 7.328125 7.226562 7.289062 7.234375 7.257812 7.257812 L 6.863281 7.484375 C 6.753906 7.546875 6.714844 7.683594 6.78125 7.792969 L 8.582031 10.914062 L 6.78125 14.035156 C 6.714844 14.144531 6.753906 14.28125 6.863281 14.34375 L 7.257812 14.570312 C 7.367188 14.636719 7.503906 14.597656 7.566406 14.488281 L 9.105469 11.824219 L 10.644531 14.488281 C 10.707031 14.597656 10.847656 14.636719 10.957031 14.570312 L 11.347656 14.34375 C 11.457031 14.28125 11.496094 14.144531 11.433594 14.035156 L 9.632812 10.914062 L 11.433594 7.792969 C 11.496094 7.683594 11.457031 7.546875 11.347656 7.484375 L 10.957031 7.257812 C 10.847656 7.191406 10.707031 7.230469 10.644531 7.339844 L 9.105469 10.003906 L 7.566406 7.339844 C 7.523438 7.265625 7.445312 7.222656 7.363281 7.226562 Z M 7.363281 7.226562 "/>
</g>
</svg>
