
<svg xmlns="http://www.w3.org/2000/svg" xmlns:xlink="http://www.w3.org/1999/xlink" width="22px" height="22px" viewBox="0 0 22 22" version="1.1">
<g id="surface1">
<path style=" stroke:none;fill-rule:nonzero;fill:rgb(61.176473%,80.000001%,39.607844%);fill-opacity:1;" d="M 10.914062 0.910156 C 16.4375 0.910156 20.917969 5.390625 20.917969 10.914062 C 20.917969 16.4375 16.4375 20.917969 10.914062 20.917969 C 5.390625 20.917969 0.910156 16.4375 0.910156 10.914062 C 0.910156 5.390625 5.390625 0.910156 10.914062 0.910156 Z M 10.914062 0.910156 "/>
<path style=" stroke:none;fill-rule:nonzero;fill:rgb(25.882354%,25.882354%,25.882354%);fill-opacity:1;" d="M 11.773438 3.175781 C 11.300781 3.179688 10.78125 3.226562 10.207031 3.328125 C 7.410156 3.785156 6.464844 7.75 5.484375 7.683594 C 2.765625 7.484375 2.96875 9.40625 3.546875 10.503906 L 5.242188 12.796875 L 8.253906 14.597656 L 10.15625 11.679688 L 15.472656 10.914062 C 15.203125 9.113281 16.390625 7.242188 14.320312 6.089844 L 14.519531 5.683594 L 16.378906 5.359375 C 15.519531 4.464844 14.332031 3.164062 11.773438 3.175781 Z M 11.773438 3.175781 "/>
<path style=" stroke:none;fill-rule:nonzero;fill:rgb(100%,80.000001%,73.725492%);fill-opacity:1;" d="M 6.367188 15.257812 C 7.042969 16.511719 7.429688 17.835938 8.914062 18.914062 C 11.335938 20.730469 18.863281 19.660156 17.785156 14.429688 C 17.316406 12.8125 15.890625 12.011719 14.976562 9.921875 C 14.765625 7.070312 13.835938 6.941406 13.421875 6.667969 C 11.226562 8.921875 8.78125 8.214844 6.367188 8.285156 C 7.296875 9.351562 7.820312 10.558594 7.882812 11.851562 L 6.738281 13.054688 C 6.496094 12.808594 5.976562 12.714844 5.195312 12.8125 C 4.375 12.882812 3.53125 14.53125 6.367188 15.257812 Z M 6.367188 15.257812 "/>
<path style=" stroke:none;fill-rule:nonzero;fill:rgb(25.882354%,25.882354%,25.882354%);fill-opacity:1;" d="M 9.855469 10.40625 C 10.167969 10.40625 10.421875 10.824219 10.421875 11.34375 C 10.421875 11.863281 10.167969 12.285156 9.855469 12.285156 C 9.542969 12.285156 9.289062 11.863281 9.289062 11.34375 C 9.289062 10.824219 9.542969 10.40625 9.855469 10.40625 Z M 9.855469 10.40625 "/>
<path style=" stroke:none;fill-rule:nonzero;fill:rgb(25.882354%,25.882354%,25.882354%);fill-opacity:1;" d="M 13.941406 9.640625 C 14.242188 9.5625 14.585938 9.863281 14.707031 10.316406 C 14.828125 10.769531 14.683594 11.199219 14.378906 11.28125 C 14.078125 11.363281 13.734375 11.0625 13.613281 10.609375 C 13.492188 10.15625 13.640625 9.722656 13.941406 9.640625 Z M 13.941406 9.640625 "/>
<path style=" stroke:none;fill-rule:nonzero;fill:rgb(93.333334%,93.333334%,93.333334%);fill-opacity:0.999919;" d="M 15.484375 12.851562 C 15.253906 13.59375 14.601562 13.914062 14.039062 14.324219 C 13.277344 14.789062 11.65625 14.664062 10.914062 14.054688 C 7.765625 10.914062 7.675781 15.960938 11.765625 17.164062 C 12.742188 17.332031 14.042969 17.121094 15.171875 15.175781 C 15.519531 14.394531 15.464844 13.6875 15.484375 12.851562 Z M 15.484375 12.851562 "/>
<path style=" stroke:none;fill-rule:nonzero;fill:rgb(25.882354%,25.882354%,25.882354%);fill-opacity:1;" d="M 7.875 10.660156 C 8.21875 9.816406 8.8125 9.394531 9.859375 9.292969 C 8.511719 8.605469 8.035156 9.402344 7.875 10.660156 Z M 7.875 10.660156 "/>
<path style=" stroke:none;fill-rule:nonzero;fill:rgb(25.882354%,25.882354%,25.882354%);fill-opacity:1;" d="M 14.570312 8.707031 C 13.203125 8.316406 13.574219 8.722656 12.527344 8.621094 C 13.550781 7.960938 14.15625 7.855469 14.570312 8.707031 Z M 14.570312 8.707031 "/>
<path style=" stroke:none;fill-rule:nonzero;fill:rgb(74.117649%,74.117649%,74.117649%);fill-opacity:1;" d="M 15.484375 12.851562 C 15.253906 13.59375 14.601562 13.914062 14.039062 14.324219 L 14.386719 14.417969 L 14.359375 14.734375 L 14.851562 14.734375 C 14.289062 16.703125 12.675781 16.960938 10.78125 16.765625 C 11.078125 16.925781 11.40625 17.058594 11.765625 17.164062 C 12.742188 17.332031 14.042969 17.121094 15.171875 15.175781 C 15.519531 14.394531 15.464844 13.6875 15.484375 12.851562 Z M 15.484375 12.851562 "/>
<path style=" stroke:none;fill-rule:nonzero;fill:rgb(25.882354%,25.882354%,25.882354%);fill-opacity:1;" d="M 8.632812 14.046875 C 8.644531 14.132812 8.660156 14.222656 8.683594 14.316406 C 9.582031 14.789062 10.460938 15.359375 11.476562 15.125 C 10.675781 15.078125 9.257812 14.445312 8.632812 14.046875 Z M 8.632812 14.046875 "/>
<path style=" stroke:none;fill-rule:nonzero;fill:rgb(25.882354%,25.882354%,25.882354%);fill-opacity:1;" d="M 12.695312 10.304688 C 13.167969 10.847656 13.691406 11.375 14.367188 11.847656 C 14.339844 12.492188 14.183594 12.765625 14.003906 13.277344 C 14.003906 13.277344 13.625 13.335938 13.703125 13.097656 C 13.875 12.800781 14.148438 12.476562 14.105469 12.054688 C 13.640625 11.289062 12.882812 11 12.695312 10.304688 Z M 12.695312 10.304688 "/>
<path style=" stroke:none;fill-rule:nonzero;fill:rgb(25.882354%,25.882354%,25.882354%);fill-opacity:1;" d="M 14.449219 17.402344 C 14.898438 17.929688 15.214844 18.484375 15.207031 19.101562 C 15.285156 19.066406 15.363281 19.03125 15.441406 18.996094 C 15.332031 18.355469 14.96875 17.839844 14.449219 17.402344 Z M 14.449219 17.402344 "/>
<path style=" stroke:none;fill-rule:nonzero;fill:rgb(37.64706%,49.019608%,54.509807%);fill-opacity:1;" d="M 0.910156 4.027344 C 1.953125 2.738281 3.058594 1.5625 4.804688 1.710938 C 5.054688 3.089844 5.523438 3.96875 5.914062 5.027344 C 5.460938 5.621094 4.917969 6.097656 4.257812 6.425781 C 3.335938 5.492188 2.574219 4.445312 0.910156 4.027344 Z M 0.910156 4.027344 "/>
<path style=" stroke:none;fill-rule:nonzero;fill:rgb(56.470591%,64.313728%,68.235296%);fill-opacity:1;" d="M 2.824219 7.039062 L 3.308594 7.726562 C 5.046875 7.089844 6.464844 6.0625 7.277344 4.300781 L 6.84375 3.617188 C 6.023438 5.308594 4.601562 6.46875 2.824219 7.039062 Z M 2.824219 7.039062 "/>
<path style=" stroke:none;fill-rule:nonzero;fill:rgb(93.725491%,32.549021%,31.37255%);fill-opacity:1;" d="M 5.59375 4.210938 C 4.851562 4.609375 4.167969 5.089844 3.640625 5.78125 C 3.847656 5.996094 4.046875 6.214844 4.257812 6.425781 C 4.917969 6.097656 5.460938 5.621094 5.914062 5.027344 C 5.808594 4.746094 5.703125 4.476562 5.59375 4.210938 Z M 5.59375 4.210938 "/>
<path style=" stroke:none;fill-rule:nonzero;fill:rgb(25.882354%,25.882354%,25.882354%);fill-opacity:1;" d="M 7.910156 14.6875 C 7.96875 13.996094 8.136719 13.382812 8.578125 12.949219 C 8.5 12.917969 8.417969 12.890625 8.339844 12.863281 C 7.960938 13.390625 7.855469 14.011719 7.910156 14.6875 Z M 7.910156 14.6875 "/>
<path style=" stroke:none;fill-rule:nonzero;fill:rgb(25.882354%,25.882354%,25.882354%);fill-opacity:1;" d="M 6.917969 13.230469 C 7.269531 12.925781 7.683594 12.371094 8.121094 11.9375 C 8.042969 11.90625 7.960938 11.878906 7.882812 11.851562 C 7.503906 12.378906 7.042969 12.816406 6.917969 13.230469 Z M 6.917969 13.230469 "/>
<path style=" stroke:none;fill-rule:nonzero;fill:rgb(25.882354%,25.882354%,25.882354%);fill-opacity:1;" d="M 7.101562 13.6875 C 7.453125 13.382812 7.480469 13.140625 7.917969 12.707031 C 7.839844 12.675781 7.761719 12.648438 7.679688 12.617188 C 7.300781 13.148438 7.226562 13.273438 7.101562 13.6875 Z M 7.101562 13.6875 "/>
<path style=" stroke:none;fill-rule:nonzero;fill:rgb(93.333334%,93.333334%,93.333334%);fill-opacity:1;" d="M 13.816406 9.808594 C 13.957031 9.773438 14.117188 9.914062 14.175781 10.125 C 14.230469 10.335938 14.164062 10.539062 14.019531 10.578125 C 13.878906 10.617188 13.71875 10.472656 13.664062 10.261719 C 13.605469 10.050781 13.675781 9.847656 13.816406 9.808594 Z M 13.816406 9.808594 "/>
<path style=" stroke:none;fill-rule:nonzero;fill:rgb(93.333334%,93.333334%,93.333334%);fill-opacity:1;" d="M 9.570312 10.597656 C 9.714844 10.558594 9.875 10.699219 9.929688 10.914062 C 9.988281 11.125 9.917969 11.328125 9.777344 11.363281 C 9.636719 11.402344 9.476562 11.261719 9.417969 11.050781 C 9.363281 10.835938 9.429688 10.636719 9.570312 10.597656 Z M 9.570312 10.597656 "/>
<path style=" stroke:none;fill-rule:nonzero;fill:rgb(45.882353%,45.882353%,45.882353%);fill-opacity:1;" d="M 9.601562 4.359375 C 9.730469 4.488281 9.609375 4.8125 9.332031 5.089844 C 9.058594 5.367188 8.730469 5.488281 8.601562 5.359375 C 8.472656 5.230469 8.59375 4.902344 8.867188 4.625 C 9.144531 4.347656 9.472656 4.230469 9.601562 4.359375 Z M 9.601562 4.359375 "/>
<path style=" stroke:none;fill-rule:nonzero;fill:rgb(45.882353%,45.882353%,45.882353%);fill-opacity:1;" d="M 4.167969 8.285156 C 4.246094 8.375 4.175781 8.601562 4.007812 8.789062 C 3.839844 8.980469 3.640625 9.0625 3.5625 8.972656 C 3.484375 8.886719 3.558594 8.660156 3.726562 8.46875 C 3.894531 8.28125 4.089844 8.195312 4.167969 8.285156 Z M 4.167969 8.285156 "/>
</g>
</svg>
