<?xml version="1.0" encoding="UTF-8"?>
<svg xmlns="http://www.w3.org/2000/svg" xmlns:xlink="http://www.w3.org/1999/xlink" width="22px" height="22px" viewBox="0 0 22 22" version="1.1">
<g id="surface1">
<path style=" stroke:none;fill-rule:nonzero;fill:rgb(74.117649%,74.117649%,74.117649%);fill-opacity:1;" d="M 10.003906 2.445312 L 11.824219 2.445312 L 10.914062 1.082031 Z M 10.003906 2.445312 "/>
<path style=" stroke:none;fill-rule:nonzero;fill:rgb(74.117649%,74.117649%,74.117649%);fill-opacity:1;" d="M 10.003906 19.726562 L 11.824219 19.726562 L 10.914062 21.089844 Z M 10.003906 19.726562 "/>
<path style=" stroke:none;fill-rule:nonzero;fill:rgb(74.117649%,74.117649%,74.117649%);fill-opacity:1;" d="M 14.445312 3.148438 L 16.023438 4.058594 L 15.917969 2.421875 Z M 14.445312 3.148438 "/>
<path style=" stroke:none;fill-rule:nonzero;fill:rgb(74.117649%,74.117649%,74.117649%);fill-opacity:1;" d="M 5.804688 18.113281 L 7.382812 19.023438 L 5.910156 19.75 Z M 5.804688 18.113281 "/>
<path style=" stroke:none;fill-rule:nonzero;fill:rgb(74.117649%,74.117649%,74.117649%);fill-opacity:1;" d="M 17.941406 5.976562 L 18.851562 7.554688 L 19.578125 6.082031 Z M 17.941406 5.976562 "/>
<path style=" stroke:none;fill-rule:nonzero;fill:rgb(74.117649%,74.117649%,74.117649%);fill-opacity:1;" d="M 2.976562 14.617188 L 3.886719 16.195312 L 2.25 16.089844 Z M 2.976562 14.617188 "/>
<path style=" stroke:none;fill-rule:nonzero;fill:rgb(74.117649%,74.117649%,74.117649%);fill-opacity:1;" d="M 19.554688 10.175781 L 19.554688 11.996094 L 20.917969 11.085938 Z M 19.554688 10.175781 "/>
<path style=" stroke:none;fill-rule:nonzero;fill:rgb(74.117649%,74.117649%,74.117649%);fill-opacity:1;" d="M 2.273438 10.175781 L 2.273438 11.996094 L 0.910156 11.085938 Z M 2.273438 10.175781 "/>
<path style=" stroke:none;fill-rule:nonzero;fill:rgb(74.117649%,74.117649%,74.117649%);fill-opacity:1;" d="M 18.851562 14.617188 L 17.941406 16.195312 L 19.578125 16.089844 Z M 18.851562 14.617188 "/>
<path style=" stroke:none;fill-rule:nonzero;fill:rgb(74.117649%,74.117649%,74.117649%);fill-opacity:1;" d="M 3.886719 5.976562 L 2.976562 7.554688 L 2.25 6.082031 Z M 3.886719 5.976562 "/>
<path style=" stroke:none;fill-rule:nonzero;fill:rgb(74.117649%,74.117649%,74.117649%);fill-opacity:1;" d="M 16.023438 18.113281 L 14.445312 19.023438 L 15.917969 19.75 Z M 16.023438 18.113281 "/>
<path style=" stroke:none;fill-rule:nonzero;fill:rgb(74.117649%,74.117649%,74.117649%);fill-opacity:1;" d="M 7.382812 3.148438 L 5.804688 4.058594 L 5.910156 2.421875 Z M 7.382812 3.148438 "/>
<path style=" stroke:none;fill-rule:nonzero;fill:rgb(37.64706%,49.019608%,54.509807%);fill-opacity:1;" d="M 6.996094 7.199219 L 8.898438 6.097656 L 15.804688 18.058594 C 16.445312 19.167969 16.175781 20.167969 16.132812 20.828125 C 15.542969 20.535156 14.542969 20.265625 13.902344 19.15625 Z M 6.996094 7.199219 "/>
<path style=" stroke:none;fill-rule:nonzero;fill:rgb(45.882353%,45.882353%,45.882353%);fill-opacity:1;" d="M 5.660156 7.078125 L 9.464844 4.882812 L 9.832031 5.515625 L 6.027344 7.714844 Z M 5.660156 7.078125 "/>
<path style=" stroke:none;fill-rule:nonzero;fill:rgb(45.882353%,45.882353%,45.882353%);fill-opacity:1;" d="M 5.160156 6.945312 C 5.511719 6.742188 5.957031 6.863281 6.160156 7.214844 C 6.363281 7.5625 6.242188 8.011719 5.894531 8.214844 C 5.542969 8.414062 5.09375 8.296875 4.894531 7.945312 C 4.691406 7.59375 4.8125 7.148438 5.160156 6.945312 Z M 5.160156 6.945312 "/>
<path style=" stroke:none;fill-rule:nonzero;fill:rgb(45.882353%,45.882353%,45.882353%);fill-opacity:1;" d="M 9.597656 4.382812 C 9.949219 4.179688 10.394531 4.300781 10.597656 4.652344 C 10.800781 5 10.679688 5.449219 10.332031 5.652344 C 9.980469 5.851562 9.53125 5.734375 9.332031 5.382812 C 9.128906 5.035156 9.25 4.585938 9.597656 4.382812 Z M 9.597656 4.382812 "/>
<path style=" stroke:none;fill-rule:nonzero;fill:rgb(38.039216%,38.039216%,38.039216%);fill-opacity:1;" d="M 5.097656 3.175781 L 6.367188 2.445312 L 8.195312 5.617188 L 6.929688 6.347656 Z M 5.097656 3.175781 "/>
<path style=" stroke:none;fill-rule:nonzero;fill:rgb(45.882353%,45.882353%,45.882353%);fill-opacity:1;" d="M 4.816406 1.226562 C 5.34375 0.921875 6.015625 1.101562 6.316406 1.628906 C 6.621094 2.152344 6.441406 2.824219 5.914062 3.128906 C 5.390625 3.433594 4.71875 3.25 4.414062 2.726562 C 4.113281 2.203125 4.292969 1.53125 4.816406 1.226562 Z M 4.816406 1.226562 "/>
<path style=" stroke:none;fill-rule:nonzero;fill:rgb(56.470591%,64.313728%,68.235296%);fill-opacity:1;" d="M 7.949219 6.648438 L 16.132812 20.828125 C 16.175781 20.167969 16.445312 19.167969 15.804688 18.058594 L 8.898438 6.097656 Z M 7.949219 6.648438 "/>
<path style=" stroke:none;fill-rule:nonzero;fill:rgb(69.01961%,74.509805%,77.254903%);fill-opacity:1;" d="M 6.976562 7.164062 C 7.28125 7.691406 7.949219 7.871094 8.476562 7.566406 C 9.003906 7.261719 9.183594 6.59375 8.878906 6.066406 Z M 6.976562 7.164062 "/>
<path style=" stroke:none;fill-rule:nonzero;fill:rgb(74.117649%,74.117649%,74.117649%);fill-opacity:1;" d="M 4.640625 1.601562 C 4.765625 1.433594 4.902344 1.464844 4.945312 1.667969 C 4.988281 1.871094 4.921875 2.171875 4.796875 2.339844 C 4.671875 2.503906 4.539062 2.476562 4.496094 2.273438 C 4.453125 2.070312 4.519531 1.769531 4.640625 1.601562 Z M 4.640625 1.601562 "/>
<path style=" stroke:none;fill-rule:nonzero;fill:rgb(74.117649%,74.117649%,74.117649%);fill-opacity:1;" d="M 9.484375 4.648438 C 9.546875 4.5625 9.613281 4.578125 9.636719 4.679688 C 9.65625 4.78125 9.625 4.929688 9.5625 5.015625 C 9.5 5.097656 9.433594 5.082031 9.410156 4.980469 C 9.390625 4.878906 9.421875 4.730469 9.484375 4.648438 Z M 9.484375 4.648438 "/>
<path style=" stroke:none;fill-rule:nonzero;fill:rgb(74.117649%,74.117649%,74.117649%);fill-opacity:1;" d="M 4.953125 7.261719 C 5.015625 7.179688 5.082031 7.195312 5.105469 7.296875 C 5.128906 7.398438 5.09375 7.546875 5.035156 7.628906 C 4.972656 7.714844 4.90625 7.699219 4.882812 7.597656 C 4.859375 7.496094 4.894531 7.347656 4.953125 7.261719 Z M 4.953125 7.261719 "/>
<path style=" stroke:none;fill-rule:nonzero;fill:rgb(37.64706%,49.019608%,54.509807%);fill-opacity:1;" d="M 14.851562 7.199219 L 12.949219 6.097656 L 6.046875 18.058594 C 5.40625 19.167969 5.671875 20.167969 5.714844 20.828125 C 6.304688 20.535156 7.304688 20.265625 7.945312 19.15625 Z M 14.851562 7.199219 "/>
<path style=" stroke:none;fill-rule:nonzero;fill:rgb(45.882353%,45.882353%,45.882353%);fill-opacity:1;" d="M 16.1875 7.078125 L 12.382812 4.882812 L 12.019531 5.515625 L 15.820312 7.714844 Z M 16.1875 7.078125 "/>
<path style=" stroke:none;fill-rule:nonzero;fill:rgb(45.882353%,45.882353%,45.882353%);fill-opacity:1;" d="M 16.6875 6.945312 C 16.335938 6.742188 15.890625 6.863281 15.6875 7.214844 C 15.484375 7.5625 15.605469 8.011719 15.957031 8.214844 C 16.304688 8.414062 16.753906 8.296875 16.957031 7.945312 C 17.15625 7.59375 17.039062 7.148438 16.6875 6.945312 Z M 16.6875 6.945312 "/>
<path style=" stroke:none;fill-rule:nonzero;fill:rgb(45.882353%,45.882353%,45.882353%);fill-opacity:1;" d="M 12.25 4.382812 C 11.898438 4.179688 11.453125 4.300781 11.25 4.652344 C 11.046875 5 11.167969 5.449219 11.519531 5.652344 C 11.867188 5.851562 12.316406 5.734375 12.519531 5.382812 C 12.71875 5.035156 12.601562 4.585938 12.25 4.382812 Z M 12.25 4.382812 "/>
<path style=" stroke:none;fill-rule:nonzero;fill:rgb(38.039216%,38.039216%,38.039216%);fill-opacity:1;" d="M 16.75 3.175781 L 15.480469 2.445312 L 13.652344 5.617188 L 14.917969 6.347656 Z M 16.75 3.175781 "/>
<path style=" stroke:none;fill-rule:nonzero;fill:rgb(45.882353%,45.882353%,45.882353%);fill-opacity:1;" d="M 17.03125 1.226562 C 16.503906 0.921875 15.835938 1.101562 15.53125 1.628906 C 15.226562 2.152344 15.40625 2.824219 15.933594 3.128906 C 16.457031 3.433594 17.128906 3.25 17.433594 2.726562 C 17.734375 2.203125 17.554688 1.53125 17.03125 1.226562 Z M 17.03125 1.226562 "/>
<path style=" stroke:none;fill-rule:nonzero;fill:rgb(56.470591%,64.313728%,68.235296%);fill-opacity:1;" d="M 13.902344 6.648438 L 5.714844 20.828125 C 5.671875 20.167969 5.40625 19.167969 6.046875 18.058594 L 12.949219 6.097656 Z M 13.902344 6.648438 "/>
<path style=" stroke:none;fill-rule:nonzero;fill:rgb(69.01961%,74.509805%,77.254903%);fill-opacity:1;" d="M 14.871094 7.164062 C 14.566406 7.691406 13.898438 7.871094 13.371094 7.566406 C 12.84375 7.261719 12.664062 6.59375 12.96875 6.066406 Z M 14.871094 7.164062 "/>
<path style=" stroke:none;fill-rule:nonzero;fill:rgb(74.117649%,74.117649%,74.117649%);fill-opacity:1;" d="M 17.207031 1.601562 C 17.082031 1.433594 16.945312 1.464844 16.902344 1.667969 C 16.859375 1.871094 16.925781 2.171875 17.050781 2.339844 C 17.175781 2.503906 17.308594 2.476562 17.351562 2.273438 C 17.394531 2.070312 17.332031 1.769531 17.207031 1.601562 Z M 17.207031 1.601562 "/>
<path style=" stroke:none;fill-rule:nonzero;fill:rgb(74.117649%,74.117649%,74.117649%);fill-opacity:1;" d="M 12.363281 4.648438 C 12.300781 4.5625 12.234375 4.578125 12.210938 4.679688 C 12.191406 4.78125 12.222656 4.929688 12.285156 5.015625 C 12.347656 5.097656 12.417969 5.082031 12.4375 4.980469 C 12.457031 4.878906 12.425781 4.730469 12.363281 4.648438 Z M 12.363281 4.648438 "/>
<path style=" stroke:none;fill-rule:nonzero;fill:rgb(74.117649%,74.117649%,74.117649%);fill-opacity:1;" d="M 16.894531 7.261719 C 16.832031 7.179688 16.765625 7.195312 16.742188 7.296875 C 16.722656 7.398438 16.753906 7.546875 16.8125 7.628906 C 16.875 7.714844 16.941406 7.699219 16.964844 7.597656 C 16.988281 7.496094 16.957031 7.347656 16.894531 7.261719 Z M 16.894531 7.261719 "/>
<path style=" stroke:none;fill-rule:nonzero;fill:rgb(93.725491%,32.549021%,31.37255%);fill-opacity:1;" d="M 10.914062 1.992188 C 15.9375 1.992188 20.007812 6.0625 20.007812 11.085938 C 20.007812 16.109375 15.9375 20.179688 10.914062 20.179688 C 5.890625 20.179688 1.820312 16.109375 1.820312 11.085938 C 1.820312 6.0625 5.890625 1.992188 10.914062 1.992188 Z M 10.914062 1.992188 "/>
<path style=" stroke:none;fill-rule:nonzero;fill:rgb(87.843138%,87.843138%,87.843138%);fill-opacity:1;" d="M 10.914062 2.066406 C 8.765625 3.777344 5.425781 3.800781 2.726562 3.800781 C 2.804688 7.519531 3.796875 11.640625 5.285156 14.84375 C 6.0625 16.511719 6.976562 17.925781 7.945312 18.90625 C 8.910156 19.886719 9.917969 20.425781 10.914062 20.425781 C 11.910156 20.425781 12.917969 19.886719 13.882812 18.90625 C 14.851562 17.925781 15.765625 16.511719 16.542969 14.84375 C 18.03125 11.640625 19.023438 7.519531 19.101562 3.800781 C 16.402344 3.800781 13.0625 3.777344 10.914062 2.066406 Z M 10.914062 2.066406 "/>
<path style=" stroke:none;fill-rule:nonzero;fill:rgb(61.960787%,61.960787%,61.960787%);fill-opacity:1;" d="M 10.914062 2.902344 C 9.003906 4.46875 6.035156 4.492188 3.636719 4.492188 C 3.707031 7.902344 4.585938 11.683594 5.914062 14.617188 C 6.601562 16.144531 7.414062 17.441406 8.273438 18.34375 C 9.132812 19.242188 10.027344 19.734375 10.914062 19.734375 C 11.800781 19.734375 12.695312 19.242188 13.554688 18.34375 C 14.414062 17.441406 15.226562 16.144531 15.914062 14.617188 C 17.242188 11.683594 18.121094 7.902344 18.191406 4.492188 C 15.792969 4.492188 12.824219 4.46875 10.914062 2.902344 Z M 10.914062 2.902344 "/>
</g>
</svg>
