<?xml version="1.0" encoding="UTF-8"?>
<svg xmlns="http://www.w3.org/2000/svg" xmlns:xlink="http://www.w3.org/1999/xlink" width="22px" height="22px" viewBox="0 0 22 22" version="1.1">
<g id="surface1">
<path style=" stroke:none;fill-rule:nonzero;fill:rgb(14.901961%,65.098041%,60.392159%);fill-opacity:1;" d="M 1.820312 1.082031 C 1.316406 1.082031 0.910156 1.488281 0.910156 1.992188 L 0.910156 11.085938 L 10.914062 11.085938 L 10.914062 1.082031 Z M 1.820312 1.082031 "/>
<path style=" stroke:none;fill-rule:nonzero;fill:rgb(16.078432%,71.372551%,96.470588%);fill-opacity:1;" d="M 20.007812 1.082031 C 20.511719 1.082031 20.917969 1.488281 20.917969 1.992188 L 20.917969 11.085938 L 10.914062 11.085938 L 10.914062 1.082031 Z M 20.007812 1.082031 "/>
<path style=" stroke:none;fill-rule:nonzero;fill:rgb(16.078432%,71.372551%,96.470588%);fill-opacity:1;" d="M 1.820312 21.089844 C 1.316406 21.089844 0.910156 20.683594 0.910156 20.179688 L 0.910156 11.085938 L 10.914062 11.085938 L 10.914062 21.089844 Z M 1.820312 21.089844 "/>
<path style=" stroke:none;fill-rule:nonzero;fill:rgb(14.901961%,65.098041%,60.392159%);fill-opacity:1;" d="M 20.007812 21.089844 C 20.511719 21.089844 20.917969 20.683594 20.917969 20.179688 L 20.917969 11.085938 L 10.914062 11.085938 L 10.914062 21.089844 Z M 20.007812 21.089844 "/>
<path style=" stroke:none;fill-rule:nonzero;fill:rgb(25.882354%,25.882354%,25.882354%);fill-opacity:1;" d="M 5.429688 4.746094 L 16.398438 4.746094 C 16.886719 4.746094 17.28125 5.140625 17.28125 5.628906 L 17.28125 16.996094 C 17.28125 17.484375 16.886719 17.878906 16.398438 17.878906 L 5.429688 17.878906 C 4.941406 17.878906 4.546875 17.484375 4.546875 16.996094 L 4.546875 5.628906 C 4.546875 5.140625 4.941406 4.746094 5.429688 4.746094 Z M 5.429688 4.746094 "/>
<path style=" stroke:none;fill-rule:nonzero;fill:rgb(93.333334%,93.333334%,93.333334%);fill-opacity:1;" d="M 7.957031 7.449219 C 6.574219 7.449219 5.457031 8.460938 5.457031 9.722656 L 5.457031 14.496094 C 5.457031 14.621094 5.558594 14.722656 5.683594 14.722656 L 6.140625 14.722656 C 6.265625 14.722656 6.367188 14.621094 6.367188 14.496094 L 6.367188 12.449219 L 9.550781 12.449219 L 9.550781 14.496094 C 9.550781 14.621094 9.652344 14.722656 9.777344 14.722656 L 10.230469 14.722656 C 10.359375 14.722656 10.460938 14.621094 10.460938 14.496094 L 10.460938 9.722656 C 10.460938 8.460938 9.34375 7.449219 7.957031 7.449219 Z M 7.957031 8.359375 C 8.839844 8.359375 9.550781 8.964844 9.550781 9.722656 L 9.550781 11.539062 L 6.367188 11.539062 L 6.367188 9.722656 C 6.367188 8.964844 7.078125 8.359375 7.957031 8.359375 Z M 7.957031 8.359375 "/>
<path style=" stroke:none;fill-rule:nonzero;fill:rgb(93.333334%,93.333334%,93.333334%);fill-opacity:1;" d="M 13.640625 7.449219 C 12.382812 7.449219 11.367188 8.460938 11.367188 9.722656 L 11.367188 12.449219 C 11.367188 13.710938 12.382812 14.722656 13.640625 14.722656 L 14.097656 14.722656 C 15.355469 14.722656 16.371094 13.710938 16.371094 12.449219 C 16.371094 12.324219 16.269531 12.222656 16.144531 12.222656 L 15.6875 12.222656 C 15.5625 12.222656 15.460938 12.324219 15.460938 12.449219 C 15.460938 13.207031 14.851562 13.8125 14.097656 13.8125 L 13.640625 13.8125 C 12.886719 13.8125 12.277344 13.207031 12.277344 12.449219 L 12.277344 9.722656 C 12.277344 8.964844 12.886719 8.355469 13.640625 8.355469 L 14.097656 8.355469 C 14.851562 8.355469 15.460938 8.964844 15.460938 9.722656 C 15.460938 9.847656 15.5625 9.949219 15.6875 9.949219 L 16.144531 9.949219 C 16.269531 9.949219 16.371094 9.847656 16.371094 9.722656 C 16.371094 8.460938 15.355469 7.449219 14.097656 7.449219 Z M 13.640625 7.449219 "/>
</g>
</svg>
