<?xml version="1.0" encoding="UTF-8"?>
<svg xmlns="http://www.w3.org/2000/svg" xmlns:xlink="http://www.w3.org/1999/xlink" width="22px" height="22px" viewBox="0 0 22 22" version="1.1">
<g id="surface1">
<path style=" stroke:none;fill-rule:nonzero;fill:rgb(92.54902%,25.098041%,47.843137%);fill-opacity:1;" d="M 1.820312 1.082031 L 20.007812 1.082031 C 20.511719 1.082031 20.917969 1.488281 20.917969 1.992188 L 20.917969 20.179688 C 20.917969 20.683594 20.511719 21.089844 20.007812 21.089844 L 1.820312 21.089844 C 1.316406 21.089844 0.910156 20.683594 0.910156 20.179688 L 0.910156 1.992188 C 0.910156 1.488281 1.316406 1.082031 1.820312 1.082031 Z M 1.820312 1.082031 "/>
<path style=" stroke:none;fill-rule:nonzero;fill:rgb(93.333334%,93.333334%,93.333334%);fill-opacity:1;" d="M 10.230469 8.359375 L 11.597656 8.359375 C 11.722656 8.359375 11.824219 8.460938 11.824219 8.585938 L 11.824219 9.496094 C 11.824219 9.621094 11.722656 9.722656 11.597656 9.722656 L 10.230469 9.722656 C 10.105469 9.722656 10.003906 9.621094 10.003906 9.496094 L 10.003906 8.585938 C 10.003906 8.460938 10.105469 8.359375 10.230469 8.359375 Z M 10.230469 8.359375 "/>
<path style=" stroke:none;fill-rule:nonzero;fill:rgb(93.333334%,93.333334%,93.333334%);fill-opacity:1;" d="M 10.230469 11.085938 L 11.597656 11.085938 C 11.722656 11.085938 11.824219 11.1875 11.824219 11.3125 L 11.824219 12.222656 C 11.824219 12.347656 11.722656 12.449219 11.597656 12.449219 L 10.230469 12.449219 C 10.105469 12.449219 10.003906 12.347656 10.003906 12.222656 L 10.003906 11.3125 C 10.003906 11.1875 10.105469 11.085938 10.230469 11.085938 Z M 10.230469 11.085938 "/>
<path style=" stroke:none;fill-rule:nonzero;fill:rgb(93.333334%,93.333334%,93.333334%);fill-opacity:1;" d="M 10.230469 13.816406 L 11.597656 13.816406 C 11.722656 13.816406 11.824219 13.917969 11.824219 14.042969 L 11.824219 14.953125 C 11.824219 15.078125 11.722656 15.179688 11.597656 15.179688 L 10.230469 15.179688 C 10.105469 15.179688 10.003906 15.078125 10.003906 14.953125 L 10.003906 14.042969 C 10.003906 13.917969 10.105469 13.816406 10.230469 13.816406 Z M 10.230469 13.816406 "/>
<path style=" stroke:none;fill-rule:nonzero;fill:rgb(93.333334%,93.333334%,93.333334%);fill-opacity:1;" d="M 10.230469 16.542969 L 11.597656 16.542969 C 11.722656 16.542969 11.824219 16.644531 11.824219 16.769531 L 11.824219 17.679688 C 11.824219 17.804688 11.722656 17.90625 11.597656 17.90625 L 10.230469 17.90625 C 10.105469 17.90625 10.003906 17.804688 10.003906 17.679688 L 10.003906 16.769531 C 10.003906 16.644531 10.105469 16.542969 10.230469 16.542969 Z M 10.230469 16.542969 "/>
<path style=" stroke:none;fill-rule:nonzero;fill:rgb(93.333334%,93.333334%,93.333334%);fill-opacity:1;" d="M 7.046875 5.628906 L 8.414062 5.628906 C 8.539062 5.628906 8.640625 5.730469 8.640625 5.855469 L 8.640625 6.765625 C 8.640625 6.890625 8.539062 6.992188 8.414062 6.992188 L 7.046875 6.992188 C 6.921875 6.992188 6.820312 6.890625 6.820312 6.765625 L 6.820312 5.855469 C 6.820312 5.730469 6.921875 5.628906 7.046875 5.628906 Z M 7.046875 5.628906 "/>
<path style=" stroke:none;fill-rule:nonzero;fill:rgb(93.333334%,93.333334%,93.333334%);fill-opacity:1;" d="M 7.046875 8.359375 L 8.414062 8.359375 C 8.539062 8.359375 8.640625 8.460938 8.640625 8.585938 L 8.640625 9.496094 C 8.640625 9.621094 8.539062 9.722656 8.414062 9.722656 L 7.046875 9.722656 C 6.921875 9.722656 6.820312 9.621094 6.820312 9.496094 L 6.820312 8.585938 C 6.820312 8.460938 6.921875 8.359375 7.046875 8.359375 Z M 7.046875 8.359375 "/>
<path style=" stroke:none;fill-rule:nonzero;fill:rgb(93.333334%,93.333334%,93.333334%);fill-opacity:1;" d="M 7.046875 11.085938 L 8.414062 11.085938 C 8.539062 11.085938 8.640625 11.1875 8.640625 11.3125 L 8.640625 12.222656 C 8.640625 12.347656 8.539062 12.449219 8.414062 12.449219 L 7.046875 12.449219 C 6.921875 12.449219 6.820312 12.347656 6.820312 12.222656 L 6.820312 11.3125 C 6.820312 11.1875 6.921875 11.085938 7.046875 11.085938 Z M 7.046875 11.085938 "/>
<path style=" stroke:none;fill-rule:nonzero;fill:rgb(93.333334%,93.333334%,93.333334%);fill-opacity:1;" d="M 7.046875 13.8125 L 8.414062 13.8125 C 8.539062 13.8125 8.640625 13.917969 8.640625 14.042969 L 8.640625 14.953125 C 8.640625 15.078125 8.539062 15.179688 8.414062 15.179688 L 7.046875 15.179688 C 6.921875 15.179688 6.820312 15.078125 6.820312 14.953125 L 6.820312 14.042969 C 6.820312 13.917969 6.921875 13.8125 7.046875 13.8125 Z M 7.046875 13.8125 "/>
<path style=" stroke:none;fill-rule:nonzero;fill:rgb(93.333334%,93.333334%,93.333334%);fill-opacity:1;" d="M 13.414062 5.628906 L 14.78125 5.628906 C 14.90625 5.628906 15.007812 5.730469 15.007812 5.855469 L 15.007812 6.765625 C 15.007812 6.890625 14.90625 6.992188 14.78125 6.992188 L 13.414062 6.992188 C 13.289062 6.992188 13.1875 6.890625 13.1875 6.765625 L 13.1875 5.855469 C 13.1875 5.730469 13.289062 5.628906 13.414062 5.628906 Z M 13.414062 5.628906 "/>
<path style=" stroke:none;fill-rule:nonzero;fill:rgb(93.333334%,93.333334%,93.333334%);fill-opacity:1;" d="M 13.414062 8.359375 L 14.78125 8.359375 C 14.90625 8.359375 15.007812 8.460938 15.007812 8.585938 L 15.007812 9.496094 C 15.007812 9.621094 14.90625 9.722656 14.78125 9.722656 L 13.414062 9.722656 C 13.289062 9.722656 13.1875 9.621094 13.1875 9.496094 L 13.1875 8.585938 C 13.1875 8.460938 13.289062 8.359375 13.414062 8.359375 Z M 13.414062 8.359375 "/>
<path style=" stroke:none;fill-rule:nonzero;fill:rgb(93.333334%,93.333334%,93.333334%);fill-opacity:1;" d="M 13.414062 11.085938 L 14.78125 11.085938 C 14.90625 11.085938 15.007812 11.1875 15.007812 11.3125 L 15.007812 12.222656 C 15.007812 12.347656 14.90625 12.449219 14.78125 12.449219 L 13.414062 12.449219 C 13.289062 12.449219 13.1875 12.347656 13.1875 12.222656 L 13.1875 11.3125 C 13.1875 11.1875 13.289062 11.085938 13.414062 11.085938 Z M 13.414062 11.085938 "/>
<path style=" stroke:none;fill-rule:nonzero;fill:rgb(93.333334%,93.333334%,93.333334%);fill-opacity:1;" d="M 13.414062 13.8125 L 14.78125 13.8125 C 14.90625 13.8125 15.007812 13.917969 15.007812 14.042969 L 15.007812 14.953125 C 15.007812 15.078125 14.90625 15.179688 14.78125 15.179688 L 13.414062 15.179688 C 13.289062 15.179688 13.1875 15.078125 13.1875 14.953125 L 13.1875 14.042969 C 13.1875 13.917969 13.289062 13.8125 13.414062 13.8125 Z M 13.414062 13.8125 "/>
<path style=" stroke:none;fill-rule:nonzero;fill:rgb(93.333334%,93.333334%,93.333334%);fill-opacity:1;" d="M 3.867188 6.992188 L 5.230469 6.992188 C 5.355469 6.992188 5.457031 7.09375 5.457031 7.21875 L 5.457031 8.128906 C 5.457031 8.253906 5.355469 8.355469 5.230469 8.355469 L 3.867188 8.355469 C 3.738281 8.355469 3.636719 8.253906 3.636719 8.128906 L 3.636719 7.21875 C 3.636719 7.09375 3.738281 6.992188 3.867188 6.992188 Z M 3.867188 6.992188 "/>
<path style=" stroke:none;fill-rule:nonzero;fill:rgb(93.333334%,93.333334%,93.333334%);fill-opacity:1;" d="M 3.867188 9.722656 L 5.230469 9.722656 C 5.355469 9.722656 5.457031 9.824219 5.457031 9.949219 L 5.457031 10.859375 C 5.457031 10.984375 5.355469 11.085938 5.230469 11.085938 L 3.867188 11.085938 C 3.738281 11.085938 3.636719 10.984375 3.636719 10.859375 L 3.636719 9.949219 C 3.636719 9.824219 3.738281 9.722656 3.867188 9.722656 Z M 3.867188 9.722656 "/>
<path style=" stroke:none;fill-rule:nonzero;fill:rgb(93.333334%,93.333334%,93.333334%);fill-opacity:1;" d="M 3.867188 12.449219 L 5.230469 12.449219 C 5.355469 12.449219 5.457031 12.550781 5.457031 12.675781 L 5.457031 13.585938 C 5.457031 13.710938 5.355469 13.8125 5.230469 13.8125 L 3.867188 13.8125 C 3.738281 13.8125 3.636719 13.710938 3.636719 13.585938 L 3.636719 12.675781 C 3.636719 12.550781 3.738281 12.449219 3.867188 12.449219 Z M 3.867188 12.449219 "/>
<path style=" stroke:none;fill-rule:nonzero;fill:rgb(93.333334%,93.333334%,93.333334%);fill-opacity:1;" d="M 16.597656 6.992188 L 17.960938 6.992188 C 18.089844 6.992188 18.191406 7.09375 18.191406 7.21875 L 18.191406 8.128906 C 18.191406 8.253906 18.089844 8.355469 17.960938 8.355469 L 16.597656 8.355469 C 16.472656 8.355469 16.371094 8.253906 16.371094 8.128906 L 16.371094 7.21875 C 16.371094 7.09375 16.472656 6.992188 16.597656 6.992188 Z M 16.597656 6.992188 "/>
<path style=" stroke:none;fill-rule:nonzero;fill:rgb(93.333334%,93.333334%,93.333334%);fill-opacity:1;" d="M 16.597656 9.722656 L 17.960938 9.722656 C 18.089844 9.722656 18.191406 9.824219 18.191406 9.949219 L 18.191406 10.859375 C 18.191406 10.984375 18.089844 11.085938 17.960938 11.085938 L 16.597656 11.085938 C 16.472656 11.085938 16.371094 10.984375 16.371094 10.859375 L 16.371094 9.949219 C 16.371094 9.824219 16.472656 9.722656 16.597656 9.722656 Z M 16.597656 9.722656 "/>
<path style=" stroke:none;fill-rule:nonzero;fill:rgb(93.333334%,93.333334%,93.333334%);fill-opacity:1;" d="M 16.597656 12.449219 L 17.960938 12.449219 C 18.089844 12.449219 18.191406 12.550781 18.191406 12.675781 L 18.191406 13.585938 C 18.191406 13.710938 18.089844 13.8125 17.960938 13.8125 L 16.597656 13.8125 C 16.472656 13.8125 16.371094 13.710938 16.371094 13.585938 L 16.371094 12.675781 C 16.371094 12.550781 16.472656 12.449219 16.597656 12.449219 Z M 16.597656 12.449219 "/>
</g>
</svg>
