
<svg xmlns="http://www.w3.org/2000/svg" xmlns:xlink="http://www.w3.org/1999/xlink" width="22px" height="22px" viewBox="0 0 22 22" version="1.1">
<g id="surface1">
<path style=" stroke:none;fill-rule:nonzero;fill:rgb(25.882354%,25.882354%,25.882354%);fill-opacity:0.999958;" d="M 10.914062 0.910156 C 16.4375 0.910156 20.917969 5.390625 20.917969 10.914062 C 20.917969 16.4375 16.4375 20.917969 10.914062 20.917969 C 5.390625 20.917969 0.910156 16.4375 0.910156 10.914062 C 0.910156 5.390625 5.390625 0.910156 10.914062 0.910156 Z M 10.914062 0.910156 "/>
<path style=" stroke:none;fill-rule:nonzero;fill:rgb(100%,65.490198%,14.901961%);fill-opacity:0.999958;" d="M 10.914062 1.820312 C 15.9375 1.820312 20.007812 5.890625 20.007812 10.914062 C 20.007812 15.9375 15.9375 20.007812 10.914062 20.007812 C 5.890625 20.007812 1.820312 15.9375 1.820312 10.914062 C 1.820312 5.890625 5.890625 1.820312 10.914062 1.820312 Z M 10.914062 1.820312 "/>
<path style=" stroke:none;fill-rule:nonzero;fill:rgb(25.882354%,25.882354%,25.882354%);fill-opacity:0.999958;" d="M 10.914062 2.726562 C 15.433594 2.726562 19.101562 6.394531 19.101562 10.914062 C 19.101562 15.433594 15.433594 19.101562 10.914062 19.101562 C 6.394531 19.101562 2.726562 15.433594 2.726562 10.914062 C 2.726562 6.394531 6.394531 2.726562 10.914062 2.726562 Z M 10.914062 2.726562 "/>
<path style=" stroke:none;fill-rule:nonzero;fill:rgb(61.960787%,61.960787%,61.960787%);fill-opacity:1;" d="M 6.402344 6.921875 C 2.882812 7.679688 1.671875 10.453125 1.53125 11.414062 C 4.09375 10.730469 5.691406 11.214844 6.039062 12.933594 C 8.339844 11.601562 10.203125 13.757812 10.910156 15 L 10.910156 15.011719 C 10.914062 15.007812 10.914062 15.007812 10.914062 15.003906 C 10.914062 15.007812 10.914062 15.007812 10.917969 15.011719 L 10.917969 15 C 11.625 13.757812 13.488281 11.601562 15.789062 12.933594 C 16.136719 11.214844 17.734375 10.730469 20.296875 11.414062 C 20.15625 10.453125 18.945312 7.679688 15.425781 6.921875 C 16.105469 7.691406 16.714844 9.585938 12.089844 9.746094 L 11.703125 7.730469 L 11.269531 8.824219 C 11.140625 8.753906 10.6875 8.753906 10.558594 8.824219 L 10.125 7.730469 L 9.738281 9.746094 C 5.113281 9.585938 5.722656 7.691406 6.402344 6.921875 Z M 6.402344 6.921875 "/>
</g>
</svg>
