<?xml version="1.0" encoding="UTF-8"?>
<svg xmlns="http://www.w3.org/2000/svg" xmlns:xlink="http://www.w3.org/1999/xlink" width="22px" height="22px" viewBox="0 0 22 22" version="1.1">
<defs>
<linearGradient id="linear0" gradientUnits="userSpaceOnUse" x1="84.518761" y1="85.406731" x2="400.64682" y2="85.406731" gradientTransform="matrix(0.0429688,0,0,0.0429688,0,9.238281)">
<stop offset="0" style="stop-color:rgb(100%,65.490198%,14.901961%);stop-opacity:1;"/>
<stop offset="1" style="stop-color:rgb(100%,65.490198%,14.901961%);stop-opacity:0;"/>
</linearGradient>
<radialGradient id="radial0" gradientUnits="userSpaceOnUse" cx="111.125" cy="-31.091059" fx="111.125" fy="-31.091059" r="27.716444" gradientTransform="matrix(0.0429688,0,0,0.0426147,0,8.923761)">
<stop offset="0" style="stop-color:rgb(100%,43.921569%,26.274511%);stop-opacity:1;"/>
<stop offset="1" style="stop-color:rgb(100%,79.215688%,15.686275%);stop-opacity:1;"/>
</radialGradient>
</defs>
<g id="surface1">
<path style=" stroke:none;fill-rule:nonzero;fill:rgb(87.843138%,87.843138%,87.843138%);fill-opacity:1;" d="M 10.914062 1.082031 C 5.371094 1.082031 0.910156 5.542969 0.910156 11.085938 C 0.910156 16.628906 5.371094 21.089844 10.914062 21.089844 C 16.457031 21.089844 20.917969 16.628906 20.917969 11.085938 C 20.917969 5.542969 16.457031 1.082031 10.914062 1.082031 Z M 10.914062 8.355469 C 12.425781 8.355469 13.640625 9.574219 13.640625 11.085938 C 13.640625 12.597656 12.425781 13.8125 10.914062 13.8125 C 9.402344 13.8125 8.183594 12.597656 8.183594 11.085938 C 8.183594 9.574219 9.402344 8.355469 10.914062 8.355469 Z M 10.914062 8.355469 "/>
<path style=" stroke:none;fill-rule:nonzero;fill:rgb(96.078432%,96.078432%,96.078432%);fill-opacity:1;" d="M 10.914062 1.535156 C 5.625 1.535156 1.363281 5.796875 1.363281 11.085938 C 1.363281 16.375 5.625 20.636719 10.914062 20.636719 C 16.203125 20.636719 20.464844 16.375 20.464844 11.085938 C 20.464844 5.796875 16.203125 1.535156 10.914062 1.535156 Z M 10.914062 8.355469 C 12.425781 8.355469 13.640625 9.574219 13.640625 11.085938 C 13.640625 12.597656 12.425781 13.8125 10.914062 13.8125 C 9.402344 13.8125 8.183594 12.597656 8.183594 11.085938 C 8.183594 9.574219 9.402344 8.355469 10.914062 8.355469 Z M 10.914062 8.355469 "/>
<path style=" stroke:none;fill-rule:nonzero;fill:rgb(74.117649%,74.117649%,74.117649%);fill-opacity:1;" d="M 10.914062 6.539062 C 8.394531 6.539062 6.367188 8.566406 6.367188 11.085938 C 6.367188 13.605469 8.394531 15.632812 10.914062 15.632812 C 13.433594 15.632812 15.460938 13.605469 15.460938 11.085938 C 15.460938 8.566406 13.433594 6.539062 10.914062 6.539062 Z M 10.914062 9.722656 C 11.667969 9.722656 12.277344 10.332031 12.277344 11.085938 C 12.277344 11.839844 11.667969 12.449219 10.914062 12.449219 C 10.160156 12.449219 9.550781 11.839844 9.550781 11.085938 C 9.550781 10.332031 10.160156 9.722656 10.914062 9.722656 Z M 10.914062 9.722656 "/>
<path style=" stroke:none;fill-rule:nonzero;fill:url(#linear0);" d="M 4.613281 7.449219 C 2.597656 10.9375 3.785156 15.371094 7.277344 17.386719 C 10.765625 19.402344 15.199219 18.214844 17.214844 14.722656 L 16.820312 14.496094 C 14.933594 17.769531 10.777344 18.882812 7.503906 16.992188 C 4.230469 15.105469 3.117188 10.949219 5.007812 7.675781 Z M 4.613281 7.449219 "/>
<path style=" stroke:none;fill-rule:nonzero;fill:url(#radial0);" d="M 5.382812 6.539062 C 5.449219 6.578125 5.347656 7.113281 5.390625 7.175781 C 5.433594 7.238281 5.96875 7.339844 5.980469 7.417969 C 5.992188 7.492188 5.511719 7.746094 5.488281 7.820312 C 5.464844 7.894531 5.71875 8.375 5.667969 8.433594 C 5.613281 8.488281 5.117188 8.269531 5.042969 8.300781 C 4.972656 8.328125 4.753906 8.824219 4.679688 8.820312 C 4.601562 8.8125 4.460938 8.289062 4.394531 8.25 C 4.328125 8.210938 3.800781 8.351562 3.757812 8.289062 C 3.714844 8.226562 4.035156 7.785156 4.023438 7.710938 C 4.015625 7.636719 3.578125 7.3125 3.597656 7.238281 C 3.621094 7.164062 4.164062 7.144531 4.21875 7.085938 C 4.269531 7.03125 4.25 6.488281 4.320312 6.460938 C 4.394531 6.429688 4.75 6.84375 4.824219 6.847656 C 4.902344 6.855469 5.316406 6.5 5.382812 6.539062 Z M 5.382812 6.539062 "/>
</g>
</svg>
