
<svg xmlns="http://www.w3.org/2000/svg" xmlns:xlink="http://www.w3.org/1999/xlink" width="22px" height="22px" viewBox="0 0 22 22" version="1.1">
<g id="surface1">
<path style=" stroke:none;fill-rule:nonzero;fill:rgb(55.29412%,43.137255%,38.82353%);fill-opacity:1;" d="M 1.820312 0.910156 L 20.007812 0.910156 C 20.511719 0.910156 20.917969 1.316406 20.917969 1.820312 L 20.917969 20.007812 C 20.917969 20.511719 20.511719 20.917969 20.007812 20.917969 L 1.820312 20.917969 C 1.316406 20.917969 0.910156 20.511719 0.910156 20.007812 L 0.910156 1.820312 C 0.910156 1.316406 1.316406 0.910156 1.820312 0.910156 Z M 1.820312 0.910156 "/>
<path style=" stroke:none;fill-rule:nonzero;fill:rgb(47.450981%,33.333334%,28.235295%);fill-opacity:1;" d="M 2.726562 2.273438 L 19.097656 2.273438 C 19.351562 2.273438 19.554688 2.476562 19.554688 2.726562 L 19.554688 19.101562 C 19.554688 19.351562 19.351562 19.554688 19.097656 19.554688 L 2.726562 19.554688 C 2.476562 19.554688 2.273438 19.351562 2.273438 19.101562 L 2.273438 2.726562 C 2.273438 2.476562 2.476562 2.273438 2.726562 2.273438 Z M 2.726562 2.273438 "/>
<path style=" stroke:none;fill-rule:nonzero;fill:rgb(25.882354%,25.882354%,25.882354%);fill-opacity:1;" d="M 3.183594 2.726562 L 18.644531 2.726562 C 18.894531 2.726562 19.101562 2.933594 19.101562 3.183594 L 19.101562 18.644531 C 19.101562 18.894531 18.894531 19.101562 18.644531 19.101562 L 3.183594 19.101562 C 2.933594 19.101562 2.726562 18.894531 2.726562 18.644531 L 2.726562 3.183594 C 2.726562 2.933594 2.933594 2.726562 3.183594 2.726562 Z M 3.183594 2.726562 "/>
<path style=" stroke:none;fill-rule:nonzero;fill:rgb(16.078432%,71.372551%,96.470588%);fill-opacity:1;" d="M 12.734375 18.191406 L 15.007812 18.191406 L 15.007812 19.097656 L 12.734375 19.097656 Z M 12.734375 18.191406 "/>
<path style=" stroke:none;fill-rule:nonzero;fill:rgb(93.333334%,93.333334%,93.333334%);fill-opacity:1;" d="M 15.460938 18.191406 L 17.734375 18.191406 L 17.734375 19.097656 L 15.460938 19.097656 Z M 15.460938 18.191406 "/>
<path style=" stroke:none;fill-rule:nonzero;fill:rgb(93.333334%,93.333334%,93.333334%);fill-opacity:1;" d="M 5.457031 12.277344 L 16.371094 12.277344 L 16.371094 12.734375 L 5.457031 12.734375 Z M 5.457031 12.277344 "/>
<path style=" stroke:none;fill-rule:nonzero;fill:rgb(93.333334%,93.333334%,93.333334%);fill-opacity:1;" d="M 9.839844 5.910156 L 8.582031 9.886719 L 7.636719 8.1875 L 6.367188 8.1875 L 6.367188 8.640625 L 7.371094 8.640625 L 8.699219 11.03125 L 10.171875 6.367188 L 13.640625 6.367188 L 13.640625 5.910156 Z M 9.839844 5.910156 "/>
<path style=" stroke:none;fill-rule:nonzero;fill:rgb(93.333334%,93.333334%,93.333334%);fill-opacity:1;" d="M 9.09375 14.097656 L 12.734375 14.097656 L 12.734375 14.550781 L 9.09375 14.550781 Z M 9.09375 14.097656 "/>
<path style=" stroke:none;fill-rule:nonzero;fill:rgb(93.333334%,93.333334%,93.333334%);fill-opacity:1;" d="M 12.050781 7.730469 C 11.421875 7.730469 10.914062 8.238281 10.914062 8.867188 L 10.914062 10.003906 C 10.914062 10.632812 11.421875 11.140625 12.050781 11.140625 L 12.734375 11.140625 C 13.363281 11.140625 13.871094 10.632812 13.871094 10.003906 L 13.871094 8.867188 C 13.871094 8.238281 13.363281 7.730469 12.734375 7.730469 Z M 12.050781 8.183594 L 12.734375 8.183594 C 13.109375 8.183594 13.414062 8.488281 13.414062 8.867188 L 13.414062 10.003906 C 13.414062 10.382812 13.109375 10.6875 12.734375 10.6875 L 12.050781 10.6875 C 11.671875 10.6875 11.367188 10.382812 11.367188 10.003906 L 11.367188 8.867188 C 11.367188 8.488281 11.671875 8.183594 12.050781 8.183594 Z M 12.050781 8.183594 "/>
<path style=" stroke:none;fill-rule:nonzero;fill:rgb(93.333334%,93.333334%,93.333334%);fill-opacity:1;" d="M 13.414062 7.730469 L 13.871094 7.730469 L 13.871094 11.140625 L 13.414062 11.140625 Z M 13.414062 7.730469 "/>
</g>
</svg>
