
<svg xmlns="http://www.w3.org/2000/svg" xmlns:xlink="http://www.w3.org/1999/xlink" width="22px" height="22px" viewBox="0 0 22 22" version="1.1">
<g id="surface1">
<path style=" stroke:none;fill-rule:nonzero;fill:rgb(93.333334%,93.333334%,93.333334%);fill-opacity:1;" d="M 1.820312 0.910156 C 1.316406 0.910156 0.910156 1.316406 0.910156 1.820312 L 0.910156 10.914062 L 10.914062 10.914062 L 10.914062 0.910156 Z M 1.820312 0.910156 "/>
<path style=" stroke:none;fill-rule:nonzero;fill:rgb(25.882354%,25.882354%,25.882354%);fill-opacity:1;" d="M 20.007812 0.910156 C 20.511719 0.910156 20.917969 1.316406 20.917969 1.820312 L 20.917969 10.914062 L 10.914062 10.914062 L 10.914062 0.910156 Z M 20.007812 0.910156 "/>
<path style=" stroke:none;fill-rule:nonzero;fill:rgb(25.882354%,25.882354%,25.882354%);fill-opacity:1;" d="M 1.820312 20.917969 C 1.316406 20.917969 0.910156 20.511719 0.910156 20.007812 L 0.910156 10.914062 L 10.914062 10.914062 L 10.914062 20.917969 Z M 1.820312 20.917969 "/>
<path style=" stroke:none;fill-rule:nonzero;fill:rgb(93.333334%,93.333334%,93.333334%);fill-opacity:1;" d="M 20.007812 20.917969 C 20.511719 20.917969 20.917969 20.511719 20.917969 20.007812 L 20.917969 10.914062 L 10.914062 10.914062 L 10.914062 20.917969 Z M 20.007812 20.917969 "/>
<path style=" stroke:none;fill-rule:nonzero;fill:rgb(25.882354%,25.882354%,25.882354%);fill-opacity:1;" d="M 5.910156 2.726562 C 7.667969 2.726562 9.09375 4.152344 9.09375 5.910156 C 9.09375 7.667969 7.667969 9.09375 5.910156 9.09375 C 4.152344 9.09375 2.726562 7.667969 2.726562 5.910156 C 2.726562 4.152344 4.152344 2.726562 5.910156 2.726562 Z M 5.910156 2.726562 "/>
<path style=" stroke:none;fill-rule:nonzero;fill:rgb(38.039216%,38.039216%,38.039216%);fill-opacity:1;" d="M 5.910156 3.183594 C 7.417969 3.183594 8.640625 4.40625 8.640625 5.910156 C 8.640625 7.417969 7.417969 8.640625 5.910156 8.640625 C 4.40625 8.640625 3.183594 7.417969 3.183594 5.910156 C 3.183594 4.40625 4.40625 3.183594 5.910156 3.183594 Z M 5.910156 3.183594 "/>
<path style=" stroke:none;fill-rule:nonzero;fill:rgb(87.843138%,87.843138%,87.843138%);fill-opacity:1;" d="M 15.917969 2.726562 C 17.675781 2.726562 19.101562 4.152344 19.101562 5.910156 C 19.101562 7.667969 17.675781 9.09375 15.917969 9.09375 C 14.160156 9.09375 12.734375 7.667969 12.734375 5.910156 C 12.734375 4.152344 14.160156 2.726562 15.917969 2.726562 Z M 15.917969 2.726562 "/>
<path style=" stroke:none;fill-rule:nonzero;fill:rgb(93.333334%,93.333334%,93.333334%);fill-opacity:1;" d="M 15.917969 3.183594 C 17.421875 3.183594 18.644531 4.40625 18.644531 5.910156 C 18.644531 7.417969 17.421875 8.640625 15.917969 8.640625 C 14.410156 8.640625 13.1875 7.417969 13.1875 5.910156 C 13.1875 4.40625 14.410156 3.183594 15.917969 3.183594 Z M 15.917969 3.183594 "/>
</g>
</svg>
