<?xml version="1.0" encoding="UTF-8"?>
<svg xmlns="http://www.w3.org/2000/svg" xmlns:xlink="http://www.w3.org/1999/xlink" width="22px" height="22px" viewBox="0 0 22 22" version="1.1">
<g id="surface1">
<path style=" stroke:none;fill-rule:nonzero;fill:rgb(25.882354%,64.705884%,96.078432%);fill-opacity:1;" d="M 1.820312 1.082031 L 20.007812 1.082031 C 20.511719 1.082031 20.917969 1.488281 20.917969 1.992188 L 20.917969 20.179688 C 20.917969 20.683594 20.511719 21.089844 20.007812 21.089844 L 1.820312 21.089844 C 1.316406 21.089844 0.910156 20.683594 0.910156 20.179688 L 0.910156 1.992188 C 0.910156 1.488281 1.316406 1.082031 1.820312 1.082031 Z M 1.820312 1.082031 "/>
<path style=" stroke:none;fill-rule:nonzero;fill:rgb(89.019608%,94.901961%,99.215686%);fill-opacity:1;" d="M 1.820312 18.816406 L 3.636719 18.816406 L 3.636719 20.179688 L 1.820312 20.179688 Z M 1.820312 18.816406 "/>
<path style=" stroke:none;fill-rule:nonzero;fill:rgb(89.019608%,94.901961%,99.215686%);fill-opacity:1;" d="M 4.546875 18.816406 L 6.367188 18.816406 L 6.367188 20.179688 L 4.546875 20.179688 Z M 4.546875 18.816406 "/>
<path style=" stroke:none;fill-rule:nonzero;fill:rgb(89.019608%,94.901961%,99.215686%);fill-opacity:1;" d="M 7.277344 18.816406 L 9.09375 18.816406 L 9.09375 20.179688 L 7.277344 20.179688 Z M 7.277344 18.816406 "/>
<path style=" stroke:none;fill-rule:nonzero;fill:rgb(89.019608%,94.901961%,99.215686%);fill-opacity:1;" d="M 10.003906 18.816406 L 11.824219 18.816406 L 11.824219 20.179688 L 10.003906 20.179688 Z M 10.003906 18.816406 "/>
<path style=" stroke:none;fill-rule:nonzero;fill:rgb(89.019608%,94.901961%,99.215686%);fill-opacity:1;" d="M 12.734375 18.816406 L 14.550781 18.816406 L 14.550781 20.179688 L 12.734375 20.179688 Z M 12.734375 18.816406 "/>
<path style=" stroke:none;fill-rule:nonzero;fill:rgb(89.019608%,94.901961%,99.215686%);fill-opacity:1;" d="M 15.460938 18.816406 L 17.28125 18.816406 L 17.28125 20.179688 L 15.460938 20.179688 Z M 15.460938 18.816406 "/>
<path style=" stroke:none;fill-rule:nonzero;fill:rgb(89.019608%,94.901961%,99.215686%);fill-opacity:1;" d="M 18.191406 18.816406 L 20.007812 18.816406 L 20.007812 20.179688 L 18.191406 20.179688 Z M 18.191406 18.816406 "/>
<path style=" stroke:none;fill-rule:nonzero;fill:rgb(73.333335%,87.058824%,98.431373%);fill-opacity:1;" d="M 1.820312 16.542969 L 3.636719 16.542969 L 3.636719 17.90625 L 1.820312 17.90625 Z M 1.820312 16.542969 "/>
<path style=" stroke:none;fill-rule:nonzero;fill:rgb(73.333335%,87.058824%,98.431373%);fill-opacity:1;" d="M 7.277344 16.542969 L 9.09375 16.542969 L 9.09375 17.90625 L 7.277344 17.90625 Z M 7.277344 16.542969 "/>
<path style=" stroke:none;fill-rule:nonzero;fill:rgb(73.333335%,87.058824%,98.431373%);fill-opacity:1;" d="M 10.003906 16.542969 L 11.824219 16.542969 L 11.824219 17.90625 L 10.003906 17.90625 Z M 10.003906 16.542969 "/>
<path style=" stroke:none;fill-rule:nonzero;fill:rgb(73.333335%,87.058824%,98.431373%);fill-opacity:1;" d="M 12.734375 16.542969 L 14.550781 16.542969 L 14.550781 17.90625 L 12.734375 17.90625 Z M 12.734375 16.542969 "/>
<path style=" stroke:none;fill-rule:nonzero;fill:rgb(73.333335%,87.058824%,98.431373%);fill-opacity:1;" d="M 18.191406 16.542969 L 20.007812 16.542969 L 20.007812 17.90625 L 18.191406 17.90625 Z M 18.191406 16.542969 "/>
<path style=" stroke:none;fill-rule:nonzero;fill:rgb(56.470591%,79.215688%,97.647059%);fill-opacity:1;" d="M 10.003906 14.269531 L 11.824219 14.269531 L 11.824219 15.632812 L 10.003906 15.632812 Z M 10.003906 14.269531 "/>
<path style=" stroke:none;fill-rule:nonzero;fill:rgb(56.470591%,79.215688%,97.647059%);fill-opacity:1;" d="M 18.191406 14.269531 L 20.007812 14.269531 L 20.007812 15.632812 L 18.191406 15.632812 Z M 18.191406 14.269531 "/>
<path style=" stroke:none;fill-rule:nonzero;fill:rgb(89.019608%,94.901961%,99.215686%);fill-opacity:1;" d="M 10.914062 1.992188 C 7.386719 1.992188 4.546875 4.425781 4.546875 7.449219 L 4.546875 9.722656 L 4.09375 9.722656 C 3.839844 9.722656 3.636719 9.925781 3.636719 10.175781 L 3.636719 12.449219 C 3.636719 12.703125 3.839844 12.90625 4.09375 12.90625 L 5.457031 12.90625 L 5.457031 13.359375 C 5.457031 13.613281 5.660156 13.8125 5.910156 13.8125 L 6.820312 13.8125 L 6.820312 14.269531 C 6.820312 14.519531 7.023438 14.722656 7.277344 14.722656 L 8.640625 14.722656 C 8.890625 14.722656 9.09375 14.519531 9.09375 14.269531 L 9.09375 8.8125 C 9.09375 8.558594 8.890625 8.355469 8.640625 8.355469 L 7.277344 8.355469 C 7.023438 8.355469 6.820312 8.558594 6.820312 8.8125 L 6.820312 9.265625 L 6.367188 9.265625 L 6.367188 7.449219 C 6.367188 5.433594 8.242188 3.808594 10.574219 3.808594 L 11.253906 3.808594 C 13.585938 3.808594 15.460938 5.433594 15.460938 7.449219 L 15.460938 9.265625 L 15.007812 9.265625 L 15.007812 8.8125 C 15.007812 8.558594 14.804688 8.355469 14.550781 8.355469 L 13.1875 8.355469 C 12.9375 8.355469 12.734375 8.558594 12.734375 8.8125 L 12.734375 14.269531 C 12.734375 14.519531 12.9375 14.722656 13.1875 14.722656 L 14.550781 14.722656 C 14.804688 14.722656 15.007812 14.519531 15.007812 14.269531 L 15.007812 13.8125 L 16.371094 13.8125 C 16.621094 13.8125 16.824219 13.613281 16.824219 13.359375 L 16.824219 12.90625 L 17.734375 12.90625 C 17.988281 12.90625 18.191406 12.703125 18.191406 12.449219 L 18.191406 10.175781 C 18.191406 9.925781 17.988281 9.722656 17.734375 9.722656 L 17.28125 9.722656 L 17.28125 7.449219 C 17.28125 4.425781 14.441406 1.992188 10.914062 1.992188 Z M 10.914062 1.992188 "/>
</g>
</svg>
