<?xml version="1.0" encoding="UTF-8"?>
<svg xmlns="http://www.w3.org/2000/svg" xmlns:xlink="http://www.w3.org/1999/xlink" width="22px" height="22px" viewBox="0 0 22 22" version="1.1">
<g id="surface1">
<path style=" stroke:none;fill-rule:nonzero;fill:rgb(36.078432%,41.960785%,75.294119%);fill-opacity:1;" d="M 1.820312 1.082031 L 20.007812 1.082031 C 20.511719 1.082031 20.917969 1.488281 20.917969 1.992188 L 20.917969 20.179688 C 20.917969 20.683594 20.511719 21.089844 20.007812 21.089844 L 1.820312 21.089844 C 1.316406 21.089844 0.910156 20.683594 0.910156 20.179688 L 0.910156 1.992188 C 0.910156 1.488281 1.316406 1.082031 1.820312 1.082031 Z M 1.820312 1.082031 "/>
<path style=" stroke:none;fill-rule:nonzero;fill:rgb(25.882354%,25.882354%,25.882354%);fill-opacity:1;" d="M 14.46875 14.875 C 14.03125 14.875 13.605469 14.875 13.164062 14.875 C 13.550781 12.878906 13.9375 10.886719 14.324219 8.894531 C 14.363281 8.890625 14.394531 8.886719 14.425781 8.886719 C 15.269531 8.886719 16.109375 8.878906 16.953125 8.890625 C 17.1875 8.894531 17.433594 8.925781 17.664062 8.988281 C 18.414062 9.175781 18.859375 9.734375 18.867188 10.507812 C 18.875 11.417969 18.542969 12.175781 17.824219 12.753906 C 17.355469 13.125 16.808594 13.257812 16.226562 13.277344 C 15.789062 13.289062 15.347656 13.285156 14.910156 13.28125 C 14.816406 13.28125 14.773438 13.304688 14.753906 13.40625 C 14.667969 13.894531 14.566406 14.378906 14.46875 14.875 Z M 14.960938 12.355469 C 15.417969 12.339844 15.839844 12.34375 16.257812 12.300781 C 16.808594 12.242188 17.195312 11.949219 17.355469 11.414062 C 17.433594 11.15625 17.484375 10.882812 17.492188 10.617188 C 17.511719 10.195312 17.335938 9.953125 16.914062 9.894531 C 16.4375 9.832031 15.949219 9.832031 15.457031 9.800781 C 15.289062 10.664062 15.128906 11.492188 14.960938 12.355469 Z M 4.265625 14.875 C 3.828125 14.875 3.398438 14.875 2.960938 14.875 C 3.347656 12.878906 3.734375 10.890625 4.121094 8.894531 C 4.167969 8.890625 4.207031 8.886719 4.246094 8.886719 C 5.074219 8.886719 5.898438 8.878906 6.726562 8.890625 C 6.957031 8.890625 7.195312 8.921875 7.421875 8.976562 C 8.167969 9.160156 8.597656 9.632812 8.652344 10.390625 C 8.765625 11.875 7.769531 12.921875 6.789062 13.164062 C 6.527344 13.226562 6.253906 13.261719 5.984375 13.273438 C 5.554688 13.292969 5.125 13.285156 4.695312 13.28125 C 4.609375 13.28125 4.570312 13.304688 4.554688 13.398438 C 4.464844 13.886719 4.363281 14.371094 4.265625 14.875 Z M 4.757812 12.355469 C 5.210938 12.339844 5.632812 12.34375 6.054688 12.300781 C 6.613281 12.242188 7.003906 11.9375 7.160156 11.386719 C 7.234375 11.136719 7.277344 10.875 7.289062 10.617188 C 7.308594 10.195312 7.132812 9.953125 6.714844 9.894531 C 6.234375 9.832031 5.75 9.832031 5.253906 9.800781 C 5.085938 10.664062 4.925781 11.492188 4.757812 12.355469 Z M 9.566406 7.296875 L 10.863281 7.296875 C 10.757812 7.828125 10.660156 8.347656 10.554688 8.886719 C 10.90625 8.886719 11.246094 8.871094 11.585938 8.890625 C 11.929688 8.902344 12.277344 8.910156 12.613281 8.984375 C 13.316406 9.132812 13.613281 9.59375 13.488281 10.3125 C 13.34375 11.128906 13.179688 11.945312 13.023438 12.757812 C 12.996094 12.902344 12.972656 13.046875 12.9375 13.1875 C 12.925781 13.226562 12.875 13.28125 12.84375 13.28125 C 12.4375 13.285156 12.027344 13.285156 11.605469 13.285156 C 11.679688 12.886719 11.753906 12.511719 11.824219 12.132812 C 11.929688 11.582031 12.042969 11.035156 12.136719 10.484375 C 12.207031 10.082031 12.050781 9.882812 11.640625 9.863281 C 11.222656 9.847656 10.804688 9.859375 10.363281 9.859375 C 10.144531 10.992188 9.921875 12.128906 9.699219 13.273438 C 9.273438 13.273438 8.847656 13.273438 8.402344 13.273438 C 8.792969 11.277344 9.175781 9.292969 9.566406 7.296875 Z M 9.566406 7.296875 "/>
</g>
</svg>
