<?xml version="1.0" encoding="UTF-8"?>
<svg xmlns="http://www.w3.org/2000/svg" xmlns:xlink="http://www.w3.org/1999/xlink" width="22px" height="22px" viewBox="0 0 22 22" version="1.1">
<g id="surface1">
<path style=" stroke:none;fill-rule:nonzero;fill:rgb(74.117649%,74.117649%,74.117649%);fill-opacity:1;" d="M 10.90625 1.082031 C 10.921875 1.082031 10.9375 1.082031 10.953125 1.082031 C 10.9375 1.082031 10.921875 1.082031 10.90625 1.082031 Z M 10.90625 1.082031 C 10.890625 1.082031 10.878906 1.082031 10.863281 1.085938 C 10.878906 1.082031 10.890625 1.082031 10.90625 1.082031 Z M 10.953125 1.082031 C 10.96875 1.085938 10.984375 1.085938 10.996094 1.089844 C 10.984375 1.085938 10.96875 1.085938 10.953125 1.082031 Z M 10.859375 1.085938 C 10.847656 1.085938 10.832031 1.089844 10.816406 1.09375 C 10.832031 1.089844 10.847656 1.085938 10.859375 1.085938 Z M 10.996094 1.089844 C 11.011719 1.09375 11.027344 1.097656 11.042969 1.101562 C 11.027344 1.097656 11.011719 1.09375 10.996094 1.089844 Z M 11.042969 1.101562 C 11.070312 1.109375 11.097656 1.121094 11.125 1.132812 C 11.097656 1.121094 11.070312 1.109375 11.042969 1.101562 Z M 10.816406 1.09375 C 10.800781 1.097656 10.789062 1.101562 10.773438 1.105469 C 10.789062 1.101562 10.800781 1.097656 10.816406 1.09375 Z M 10.769531 1.105469 C 10.757812 1.109375 10.746094 1.113281 10.734375 1.121094 C 10.746094 1.113281 10.757812 1.109375 10.769531 1.105469 Z M 10.730469 1.121094 C 10.714844 1.128906 10.703125 1.132812 10.691406 1.140625 C 10.703125 1.132812 10.714844 1.128906 10.730469 1.121094 Z M 11.125 1.136719 C 11.140625 1.140625 11.152344 1.148438 11.164062 1.15625 C 11.152344 1.148438 11.140625 1.140625 11.125 1.136719 Z M 10.6875 1.140625 C 10.675781 1.148438 10.664062 1.15625 10.652344 1.164062 C 10.664062 1.15625 10.675781 1.148438 10.6875 1.140625 Z M 11.164062 1.15625 C 11.175781 1.167969 11.191406 1.175781 11.199219 1.183594 C 11.191406 1.175781 11.175781 1.167969 11.164062 1.15625 Z M 10.648438 1.167969 C 10.640625 1.175781 10.628906 1.183594 10.617188 1.191406 C 10.628906 1.183594 10.640625 1.175781 10.648438 1.167969 Z M 11.203125 1.183594 C 11.214844 1.195312 11.222656 1.203125 11.234375 1.214844 C 11.222656 1.203125 11.214844 1.195312 11.203125 1.183594 Z M 10.613281 1.195312 C 10.605469 1.203125 10.601562 1.207031 10.59375 1.214844 C 10.601562 1.207031 10.605469 1.203125 10.613281 1.195312 Z M 10.914062 2.179688 L 2.460938 10.632812 L 19.367188 10.632812 Z M 1.042969 10.765625 C 0.921875 10.886719 0.890625 11.042969 0.921875 11.183594 C 0.886719 11.03125 0.933594 10.875 1.042969 10.765625 Z M 20.785156 10.765625 C 20.789062 10.769531 20.796875 10.777344 20.800781 10.78125 C 20.796875 10.777344 20.789062 10.769531 20.785156 10.765625 Z M 20.800781 10.785156 C 20.90625 10.898438 20.941406 11.058594 20.902344 11.207031 C 20.941406 11.066406 20.914062 10.90625 20.800781 10.785156 Z M 0.921875 11.183594 C 0.925781 11.199219 0.929688 11.210938 0.933594 11.222656 C 0.929688 11.210938 0.925781 11.199219 0.921875 11.183594 Z M 20.898438 11.210938 C 20.898438 11.222656 20.894531 11.234375 20.890625 11.246094 C 20.894531 11.234375 20.898438 11.222656 20.898438 11.210938 Z M 0.933594 11.226562 C 0.9375 11.238281 0.941406 11.253906 0.949219 11.265625 C 0.941406 11.253906 0.9375 11.238281 0.933594 11.226562 Z M 20.886719 11.253906 C 20.878906 11.265625 20.875 11.277344 20.867188 11.292969 C 20.875 11.277344 20.878906 11.265625 20.886719 11.253906 Z M 0.953125 11.273438 C 0.957031 11.285156 0.960938 11.296875 0.96875 11.304688 C 0.960938 11.296875 0.957031 11.285156 0.953125 11.273438 Z M 20.867188 11.292969 C 20.859375 11.304688 20.855469 11.316406 20.847656 11.328125 C 20.855469 11.316406 20.859375 11.304688 20.867188 11.292969 Z M 0.96875 11.3125 C 1.042969 11.4375 1.171875 11.53125 1.339844 11.539062 C 1.183594 11.53125 1.046875 11.445312 0.96875 11.3125 Z M 20.84375 11.332031 C 20.761719 11.460938 20.617188 11.539062 20.464844 11.539062 C 20.632812 11.539062 20.769531 11.453125 20.84375 11.332031 Z M 1.339844 11.539062 C 1.347656 11.539062 1.355469 11.539062 1.363281 11.539062 C 1.355469 11.539062 1.347656 11.539062 1.339844 11.539062 Z M 1.339844 11.539062 "/>
<path style=" stroke:none;fill-rule:nonzero;fill:rgb(87.843138%,87.843138%,87.843138%);fill-opacity:1;" d="M 2.273438 19.273438 L 19.554688 19.273438 C 19.804688 19.273438 20.007812 19.476562 20.007812 19.726562 L 20.007812 20.636719 C 20.007812 20.886719 19.804688 21.089844 19.554688 21.089844 L 2.273438 21.089844 C 2.023438 21.089844 1.820312 20.886719 1.820312 20.636719 L 1.820312 19.726562 C 1.820312 19.476562 2.023438 19.273438 2.273438 19.273438 Z M 2.273438 19.273438 "/>
<path style=" stroke:none;fill-rule:nonzero;fill:rgb(87.843138%,87.843138%,87.843138%);fill-opacity:1;" d="M 2.273438 11.539062 L 19.554688 11.539062 C 19.804688 11.539062 20.007812 11.746094 20.007812 11.996094 C 20.007812 12.246094 19.804688 12.449219 19.554688 12.449219 L 2.273438 12.449219 C 2.023438 12.449219 1.820312 12.246094 1.820312 11.996094 C 1.820312 11.746094 2.023438 11.539062 2.273438 11.539062 Z M 2.273438 11.539062 "/>
<path style=" stroke:none;fill-rule:nonzero;fill:rgb(93.333334%,93.333334%,93.333334%);fill-opacity:1;" d="M 10.90625 1.082031 C 10.789062 1.082031 10.675781 1.132812 10.59375 1.214844 L 1.042969 10.765625 C 0.914062 10.894531 0.875 11.089844 0.945312 11.257812 C 1.015625 11.429688 1.179688 11.539062 1.363281 11.539062 L 20.464844 11.539062 C 20.648438 11.539062 20.8125 11.429688 20.882812 11.257812 C 20.953125 11.089844 20.914062 10.894531 20.785156 10.765625 L 11.234375 1.214844 C 11.148438 1.128906 11.03125 1.082031 10.90625 1.082031 Z M 10.914062 2.179688 L 19.367188 10.632812 L 2.460938 10.632812 Z M 10.914062 2.179688 "/>
<path style=" stroke:none;fill-rule:nonzero;fill:rgb(93.333334%,93.333334%,93.333334%);fill-opacity:1;" d="M 2.726562 12.449219 L 19.101562 12.449219 L 19.101562 19.273438 L 2.726562 19.273438 Z M 2.726562 12.449219 "/>
<path style=" stroke:none;fill-rule:nonzero;fill:rgb(87.843138%,87.843138%,87.843138%);fill-opacity:1;" d="M 10.914062 5.628906 C 11.917969 5.628906 12.734375 6.441406 12.734375 7.449219 C 12.734375 8.453125 11.917969 9.265625 10.914062 9.265625 C 9.910156 9.265625 9.09375 8.453125 9.09375 7.449219 C 9.09375 6.441406 9.910156 5.628906 10.914062 5.628906 Z M 10.914062 5.628906 "/>
<path style=" stroke:none;fill-rule:nonzero;fill:rgb(45.882353%,45.882353%,45.882353%);fill-opacity:1;" d="M 10.914062 6.082031 C 11.667969 6.082031 12.277344 6.695312 12.277344 7.449219 C 12.277344 8.203125 11.667969 8.8125 10.914062 8.8125 C 10.160156 8.8125 9.550781 8.203125 9.550781 7.449219 C 9.550781 6.695312 10.160156 6.082031 10.914062 6.082031 Z M 10.914062 6.082031 "/>
<path style=" stroke:none;fill-rule:nonzero;fill:rgb(74.117649%,74.117649%,74.117649%);fill-opacity:1;" d="M 16.824219 12.90625 L 17.28125 12.90625 C 17.53125 12.90625 17.734375 13.109375 17.734375 13.359375 L 17.734375 18.363281 C 17.734375 18.613281 17.53125 18.816406 17.28125 18.816406 L 16.824219 18.816406 C 16.574219 18.816406 16.371094 18.613281 16.371094 18.363281 L 16.371094 13.359375 C 16.371094 13.109375 16.574219 12.90625 16.824219 12.90625 Z M 16.824219 12.90625 "/>
<path style=" stroke:none;fill-rule:nonzero;fill:rgb(74.117649%,74.117649%,74.117649%);fill-opacity:1;" d="M 2.726562 19.726562 L 19.097656 19.726562 C 19.226562 19.726562 19.328125 19.828125 19.328125 19.953125 L 19.328125 20.410156 C 19.328125 20.535156 19.226562 20.636719 19.097656 20.636719 L 2.726562 20.636719 C 2.601562 20.636719 2.5 20.535156 2.5 20.410156 L 2.5 19.953125 C 2.5 19.828125 2.601562 19.726562 2.726562 19.726562 Z M 2.726562 19.726562 "/>
<path style=" stroke:none;fill-rule:nonzero;fill:rgb(74.117649%,74.117649%,74.117649%);fill-opacity:1;" d="M 10.6875 12.90625 L 11.140625 12.90625 C 11.394531 12.90625 11.597656 13.109375 11.597656 13.359375 L 11.597656 18.363281 C 11.597656 18.613281 11.394531 18.816406 11.140625 18.816406 L 10.6875 18.816406 C 10.433594 18.816406 10.230469 18.613281 10.230469 18.363281 L 10.230469 13.359375 C 10.230469 13.109375 10.433594 12.90625 10.6875 12.90625 Z M 10.6875 12.90625 "/>
<path style=" stroke:none;fill-rule:nonzero;fill:rgb(74.117649%,74.117649%,74.117649%);fill-opacity:1;" d="M 12.734375 12.90625 L 13.1875 12.90625 C 13.4375 12.90625 13.640625 13.109375 13.640625 13.359375 L 13.640625 18.363281 C 13.640625 18.613281 13.4375 18.816406 13.1875 18.816406 L 12.734375 18.816406 C 12.480469 18.816406 12.277344 18.613281 12.277344 18.363281 L 12.277344 13.359375 C 12.277344 13.109375 12.480469 12.90625 12.734375 12.90625 Z M 12.734375 12.90625 "/>
<path style=" stroke:none;fill-rule:nonzero;fill:rgb(74.117649%,74.117649%,74.117649%);fill-opacity:1;" d="M 14.78125 12.90625 L 15.234375 12.90625 C 15.484375 12.90625 15.6875 13.109375 15.6875 13.359375 L 15.6875 18.363281 C 15.6875 18.613281 15.484375 18.816406 15.234375 18.816406 L 14.78125 18.816406 C 14.527344 18.816406 14.324219 18.613281 14.324219 18.363281 L 14.324219 13.359375 C 14.324219 13.109375 14.527344 12.90625 14.78125 12.90625 Z M 14.78125 12.90625 "/>
<path style=" stroke:none;fill-rule:nonzero;fill:rgb(74.117649%,74.117649%,74.117649%);fill-opacity:1;" d="M 8.640625 12.90625 L 9.09375 12.90625 C 9.347656 12.90625 9.550781 13.109375 9.550781 13.359375 L 9.550781 18.363281 C 9.550781 18.613281 9.347656 18.816406 9.09375 18.816406 L 8.640625 18.816406 C 8.390625 18.816406 8.1875 18.613281 8.1875 18.363281 L 8.1875 13.359375 C 8.1875 13.109375 8.390625 12.90625 8.640625 12.90625 Z M 8.640625 12.90625 "/>
<path style=" stroke:none;fill-rule:nonzero;fill:rgb(74.117649%,74.117649%,74.117649%);fill-opacity:1;" d="M 4.546875 12.90625 L 5.003906 12.90625 C 5.253906 12.90625 5.457031 13.109375 5.457031 13.359375 L 5.457031 18.363281 C 5.457031 18.613281 5.253906 18.816406 5.003906 18.816406 L 4.546875 18.816406 C 4.296875 18.816406 4.09375 18.613281 4.09375 18.363281 L 4.09375 13.359375 C 4.09375 13.109375 4.296875 12.90625 4.546875 12.90625 Z M 4.546875 12.90625 "/>
<path style=" stroke:none;fill-rule:nonzero;fill:rgb(74.117649%,74.117649%,74.117649%);fill-opacity:1;" d="M 6.59375 12.90625 L 7.046875 12.90625 C 7.300781 12.90625 7.503906 13.109375 7.503906 13.359375 L 7.503906 18.363281 C 7.503906 18.613281 7.300781 18.816406 7.046875 18.816406 L 6.59375 18.816406 C 6.34375 18.816406 6.140625 18.613281 6.140625 18.363281 L 6.140625 13.359375 C 6.140625 13.109375 6.34375 12.90625 6.59375 12.90625 Z M 6.59375 12.90625 "/>
</g>
</svg>
