<?xml version="1.0" encoding="UTF-8"?>
<svg xmlns="http://www.w3.org/2000/svg" xmlns:xlink="http://www.w3.org/1999/xlink" width="22px" height="22px" viewBox="0 0 22 22" version="1.1">
<g id="surface1">
<path style=" stroke:none;fill-rule:nonzero;fill:rgb(25.882354%,25.882354%,25.882354%);fill-opacity:1;" d="M 2.726562 1.992188 L 19.101562 1.992188 C 19.601562 1.992188 20.007812 2.398438 20.007812 2.898438 L 20.007812 19.273438 C 20.007812 19.773438 19.601562 20.179688 19.101562 20.179688 L 2.726562 20.179688 C 2.226562 20.179688 1.820312 19.773438 1.820312 19.273438 L 1.820312 2.898438 C 1.820312 2.398438 2.226562 1.992188 2.726562 1.992188 Z M 2.726562 1.992188 "/>
<path style=" stroke:none;fill-rule:nonzero;fill:rgb(93.333334%,93.333334%,93.333334%);fill-opacity:1;" d="M 1.820312 1.082031 C 1.316406 1.082031 0.910156 1.488281 0.910156 1.992188 L 0.910156 20.179688 C 0.910156 20.683594 1.316406 21.089844 1.820312 21.089844 L 20.007812 21.089844 C 20.511719 21.089844 20.917969 20.683594 20.917969 20.179688 L 20.917969 1.992188 C 20.917969 1.488281 20.511719 1.082031 20.007812 1.082031 Z M 3.183594 2.898438 L 18.644531 2.898438 C 18.898438 2.898438 19.097656 3.101562 19.097656 3.355469 L 19.097656 18.816406 C 19.097656 19.070312 18.898438 19.273438 18.644531 19.273438 L 18.382812 19.273438 L 18.382812 19.269531 L 10.003906 19.269531 C 9.980469 19.234375 9.953125 19.195312 9.925781 19.15625 C 9.644531 18.664062 9 17.710938 8.519531 17.402344 C 8.519531 17.402344 8.519531 17.375 8.042969 17.375 C 8.015625 17.035156 8.101562 16.757812 8.183594 16.390625 C 8.183594 16.113281 8.382812 16.269531 8.4375 15.652344 C 8.578125 15.128906 8.523438 15.4375 8.632812 14.914062 C 8.746094 14.667969 8.804688 14.421875 8.804688 14.019531 C 9.222656 14.175781 10.0625 14.144531 10.429688 14.019531 L 10.511719 14.082031 C 10.628906 14.113281 10.652344 13.929688 10.738281 13.898438 C 11.382812 13.53125 11.605469 12.882812 12.140625 12.820312 C 12.140625 12.820312 12.421875 12.667969 12.839844 12.820312 C 13.007812 12.820312 13.152344 12.851562 13.152344 12.667969 C 13.175781 12.390625 13.175781 12.175781 13.320312 11.992188 C 13.429688 12.730469 13.738281 13.5625 14.300781 14.359375 L 14.859375 13.929688 C 14.328125 13.222656 13.992188 12.421875 13.933594 11.5 C 13.960938 11.5625 13.992188 11.625 14.046875 11.683594 C 14.242188 11.683594 14.355469 11.222656 14.582031 11.253906 C 14.605469 11.191406 14.664062 10.917969 14.722656 10.699219 L 16.824219 10.699219 L 17.582031 10.515625 L 17.582031 10.085938 L 17.019531 10.023438 L 17.019531 9.53125 L 16.878906 9.53125 L 16.878906 8.980469 L 16.542969 8.980469 L 16.542969 9.5 L 15.671875 9.4375 L 15.671875 9.101562 L 15.335938 9.101562 L 15.335938 9.40625 L 14.441406 9.316406 L 14.441406 8.855469 L 14.101562 8.855469 L 14.101562 9.285156 L 12.78125 9.195312 L 12.78125 9.042969 L 12.785156 9.042969 L 12.78125 9.035156 L 11.800781 9.035156 L 11.800781 8.757812 L 11.269531 8.757812 L 11.269531 8.914062 C 11.210938 8.945312 11.15625 9.007812 11.097656 9.035156 L 11.042969 9.035156 C 10.117188 8.238281 10.0625 9.867188 9.445312 9.5 C 9.386719 9.160156 9.417969 8.851562 9.417969 8.453125 C 10.484375 8.421875 10.089844 8.113281 9.78125 7.714844 C 9.671875 7.558594 9.613281 7.3125 9.585938 7.160156 C 9.40625 6.433594 8.816406 5.90625 7.941406 5.914062 C 7.59375 5.914062 7.207031 5.996094 6.78125 6.175781 C 5.800781 6.578125 6.054688 8.023438 6.136719 9.007812 C 6.082031 9.097656 5.96875 9.070312 5.882812 9.070312 C 4.816406 9.128906 4.339844 10.359375 4.117188 11.34375 C 4.171875 12.238281 4.0625 13.222656 3.921875 14.082031 C 3.777344 14.941406 3.5 15.621094 3.472656 16.449219 C 3.414062 17.1875 3.667969 18.050781 3.613281 18.726562 C 3.554688 18.914062 3.496094 19.09375 3.445312 19.269531 L 3.183594 19.269531 C 2.929688 19.269531 2.726562 19.070312 2.726562 18.816406 L 2.726562 3.355469 C 2.726562 3.101562 2.929688 2.898438 3.183594 2.898438 Z M 9.710938 10.652344 C 9.84375 10.652344 9.921875 10.699219 9.921875 10.699219 C 10.257812 10.636719 10.566406 10.730469 11.097656 10.699219 C 11.015625 11.714844 10.339844 11.28125 9.613281 11.835938 C 9.417969 11.804688 9.191406 11.804688 8.882812 11.804688 C 8.828125 11.128906 9.050781 11.007812 9.164062 10.882812 C 9.386719 10.699219 9.578125 10.652344 9.710938 10.652344 Z M 9.710938 10.652344 "/>
<path style=" stroke:none;fill-rule:nonzero;fill:rgb(93.333334%,93.333334%,93.333334%);fill-opacity:1;" d="M 15.6875 3.808594 C 15.5625 3.808594 15.460938 3.910156 15.460938 4.039062 L 15.460938 5.855469 C 15.460938 5.980469 15.5625 6.082031 15.6875 6.082031 L 17.28125 6.082031 L 17.28125 6.539062 L 15.6875 6.539062 C 15.5625 6.539062 15.460938 6.640625 15.460938 6.765625 L 15.460938 7.21875 C 15.460938 7.347656 15.5625 7.449219 15.6875 7.449219 L 17.960938 7.449219 C 18.089844 7.449219 18.191406 7.347656 18.191406 7.21875 L 18.191406 5.402344 C 18.191406 5.289062 18.105469 5.195312 17.996094 5.175781 C 17.988281 5.175781 17.980469 5.175781 17.972656 5.175781 C 17.96875 5.175781 17.964844 5.175781 17.960938 5.175781 L 16.371094 5.175781 L 16.371094 4.71875 L 17.960938 4.71875 C 18.089844 4.71875 18.191406 4.617188 18.191406 4.492188 L 18.191406 4.039062 C 18.191406 3.910156 18.089844 3.808594 17.960938 3.808594 Z M 15.6875 3.808594 "/>
<path style=" stroke:none;fill-rule:nonzero;fill:rgb(93.333334%,93.333334%,93.333334%);fill-opacity:1;" d="M 12.277344 3.808594 C 12.273438 3.808594 12.269531 3.808594 12.265625 3.808594 C 12.261719 3.808594 12.257812 3.8125 12.253906 3.8125 C 12.25 3.8125 12.246094 3.8125 12.242188 3.8125 C 12.132812 3.828125 12.050781 3.921875 12.050781 4.039062 L 12.050781 7.21875 C 12.050781 7.335938 12.132812 7.429688 12.242188 7.445312 C 12.25 7.445312 12.257812 7.445312 12.265625 7.449219 C 12.269531 7.449219 12.273438 7.449219 12.277344 7.449219 L 14.550781 7.449219 C 14.679688 7.449219 14.78125 7.347656 14.78125 7.21875 L 14.78125 6.765625 C 14.78125 6.640625 14.679688 6.539062 14.550781 6.539062 L 12.960938 6.539062 L 12.960938 4.71875 L 14.550781 4.71875 C 14.679688 4.71875 14.78125 4.617188 14.78125 4.492188 L 14.78125 4.039062 C 14.78125 3.910156 14.679688 3.808594 14.550781 3.808594 Z M 12.277344 3.808594 "/>
</g>
</svg>
