<?xml version="1.0" encoding="UTF-8"?>
<svg xmlns="http://www.w3.org/2000/svg" xmlns:xlink="http://www.w3.org/1999/xlink" width="22px" height="22px" viewBox="0 0 22 22" version="1.1">
<g id="surface1">
<path style=" stroke:none;fill-rule:nonzero;fill:rgb(25.882354%,25.882354%,25.882354%);fill-opacity:1;" d="M 1.820312 1.082031 L 20.007812 1.082031 C 20.511719 1.082031 20.917969 1.488281 20.917969 1.992188 L 20.917969 20.179688 C 20.917969 20.683594 20.511719 21.089844 20.007812 21.089844 L 1.820312 21.089844 C 1.316406 21.089844 0.910156 20.683594 0.910156 20.179688 L 0.910156 1.992188 C 0.910156 1.488281 1.316406 1.082031 1.820312 1.082031 Z M 1.820312 1.082031 "/>
<path style=" stroke:none;fill-rule:nonzero;fill:rgb(38.039216%,38.039216%,38.039216%);fill-opacity:1;" d="M 1.820312 1.082031 C 1.78125 1.082031 1.742188 1.082031 1.707031 1.089844 L 0.921875 2.445312 L 5.910156 2.445312 L 5.125 1.082031 Z M 5.910156 2.445312 L 3.417969 6.765625 L 8.40625 6.765625 Z M 8.40625 6.765625 L 5.910156 11.085938 L 10.898438 11.085938 Z M 5.910156 11.085938 Z M 5.910156 11.085938 L 3.417969 6.765625 L 0.921875 11.085938 Z M 5.898438 11.085938 L 3.402344 15.40625 L 8.390625 15.40625 Z M 3.402344 15.40625 Z M 3.402344 15.40625 L 0.910156 11.085938 L 0.910156 15.40625 Z M 3.398438 15.40625 L 0.910156 19.714844 L 0.910156 19.726562 L 5.890625 19.726562 Z M 3.417969 6.765625 L 0.921875 2.445312 L 0.910156 2.46875 L 0.910156 6.765625 Z M 0.921875 2.445312 L 0.910156 2.421875 L 0.910156 2.445312 Z M 0.921875 2.445312 Z M 3.417969 6.765625 Z M 6.726562 1.082031 L 5.9375 2.445312 L 10.929688 2.445312 L 10.140625 1.082031 Z M 10.929688 2.445312 Z M 10.929688 2.445312 L 8.433594 6.765625 L 13.421875 6.765625 Z M 13.421875 6.765625 Z M 13.421875 6.765625 L 18.410156 6.765625 L 15.917969 2.445312 Z M 15.917969 2.445312 L 15.128906 1.082031 L 11.714844 1.082031 L 10.929688 2.445312 Z M 18.410156 6.765625 L 15.917969 11.085938 L 20.90625 11.085938 Z M 15.917969 11.085938 Z M 15.917969 11.085938 L 13.421875 6.765625 L 10.929688 11.085938 Z M 15.902344 11.085938 L 13.410156 15.40625 L 18.398438 15.40625 Z M 13.410156 15.40625 Z M 13.410156 15.40625 L 10.914062 11.085938 L 8.417969 15.40625 Z M 13.402344 15.40625 L 10.90625 19.726562 L 15.894531 19.726562 Z M 10.90625 19.726562 Z M 10.90625 19.726562 L 8.414062 15.40625 L 5.917969 19.726562 Z M 16.726562 1.082031 L 15.9375 2.445312 L 20.917969 2.445312 L 20.917969 2.433594 L 20.144531 1.089844 C 20.101562 1.085938 20.054688 1.082031 20.007812 1.082031 Z M 20.917969 2.457031 L 18.429688 6.765625 L 20.917969 6.765625 Z M 20.910156 11.085938 L 18.417969 15.40625 L 20.917969 15.40625 L 20.917969 11.097656 Z M 18.410156 15.40625 L 15.917969 19.726562 L 20.90625 19.726562 Z M 20.90625 19.726562 Z M 20.90625 19.726562 L 20.917969 19.726562 L 20.917969 19.703125 Z M 0.945312 19.726562 L 0.910156 19.785156 L 0.910156 20.179688 C 0.910156 20.65625 1.269531 21.042969 1.730469 21.085938 Z M 5.933594 19.726562 L 5.144531 21.089844 L 6.71875 21.089844 Z M 10.949219 19.726562 L 10.160156 21.089844 L 11.734375 21.089844 Z M 15.9375 19.726562 L 15.148438 21.089844 L 16.726562 21.089844 Z M 20.917969 19.773438 L 20.167969 21.078125 C 20.59375 21.003906 20.917969 20.632812 20.917969 20.179688 Z M 20.917969 19.773438 "/>
<path style=" stroke:none;fill-rule:nonzero;fill:rgb(100%,87.843138%,50.980395%);fill-opacity:1;" d="M 2.273438 7.449219 L 2.273438 14.722656 L 9.015625 14.722656 L 10.460938 12.90625 L 10.460938 9.265625 L 9.128906 7.449219 L 4.546875 7.449219 L 5.910156 9.265625 L 8.640625 9.265625 L 8.640625 12.90625 L 4.09375 12.90625 L 4.09375 7.449219 Z M 2.273438 7.449219 "/>
<path style=" stroke:none;fill-rule:nonzero;fill:rgb(100%,87.843138%,50.980395%);fill-opacity:1;" d="M 12.699219 7.449219 L 11.367188 9.265625 L 11.367188 10.175781 L 12.0625 11.050781 L 11.367188 11.996094 L 11.367188 12.90625 L 12.8125 14.722656 L 19.554688 14.722656 L 19.554688 12.90625 L 13.1875 12.90625 L 13.1875 9.265625 L 19.554688 9.265625 L 19.554688 7.449219 Z M 19.554688 10.175781 L 13.1875 10.175781 L 14.550781 11.996094 L 19.554688 11.996094 Z M 19.554688 10.175781 "/>
<path style=" stroke:none;fill-rule:nonzero;fill:rgb(100%,65.490198%,14.901961%);fill-opacity:1;" d="M 2.273438 11.085938 L 2.273438 14.722656 L 9.015625 14.722656 L 10.460938 12.90625 L 10.460938 11.085938 L 8.640625 11.085938 L 8.640625 12.90625 L 4.09375 12.90625 L 4.09375 11.085938 Z M 2.273438 11.085938 "/>
<path style=" stroke:none;fill-rule:nonzero;fill:rgb(100%,65.490198%,14.901961%);fill-opacity:1;" d="M 12.035156 11.085938 L 11.367188 11.996094 L 11.367188 12.90625 L 12.8125 14.722656 L 19.554688 14.722656 L 19.554688 12.90625 L 13.1875 12.90625 L 13.1875 11.085938 Z M 13.871094 11.085938 L 14.550781 11.996094 L 19.554688 11.996094 L 19.554688 11.085938 Z M 13.871094 11.085938 "/>
</g>
</svg>
