
<svg xmlns="http://www.w3.org/2000/svg" xmlns:xlink="http://www.w3.org/1999/xlink" width="22px" height="22px" viewBox="0 0 22 22" version="1.1">
<g id="surface1">
<path style=" stroke:none;fill-rule:nonzero;fill:rgb(36.078432%,41.960785%,75.294119%);fill-opacity:1;" d="M 1.191406 8.648438 C 1.023438 9.378906 0.9375 10.136719 0.9375 10.914062 C 0.9375 11.929688 1.085938 12.90625 1.363281 13.828125 L 6.5625 12.246094 C 6.433594 11.824219 6.367188 11.378906 6.367188 10.914062 C 6.367188 10.558594 6.40625 10.210938 6.484375 9.878906 Z M 1.191406 8.648438 "/>
<path style=" stroke:none;fill-rule:nonzero;fill:rgb(25.882354%,64.705884%,96.078432%);fill-opacity:1;" d="M 6.5625 12.238281 L 1.335938 13.828125 C 1.851562 15.535156 2.808594 17.046875 4.074219 18.230469 L 7.804688 14.238281 C 7.230469 13.699219 6.796875 13.015625 6.5625 12.238281 Z M 6.5625 12.238281 "/>
<path style=" stroke:none;fill-rule:nonzero;fill:rgb(93.725491%,32.549021%,31.37255%);fill-opacity:1;" d="M 10.914062 0.910156 C 9.898438 0.910156 8.921875 1.058594 8 1.335938 L 9.589844 6.5625 C 10.007812 6.433594 10.453125 6.367188 10.914062 6.367188 C 11.375 6.367188 11.820312 6.433594 12.238281 6.5625 L 13.828125 1.335938 C 12.90625 1.058594 11.929688 0.910156 10.914062 0.910156 Z M 10.914062 0.910156 "/>
<path style=" stroke:none;fill-rule:nonzero;fill:rgb(40.000001%,73.333335%,41.568628%);fill-opacity:1;" d="M 12.238281 15.265625 C 11.820312 15.394531 11.375 15.460938 10.914062 15.460938 C 10.558594 15.460938 10.214844 15.421875 9.886719 15.34375 L 8.648438 20.664062 C 9.378906 20.832031 10.136719 20.917969 10.914062 20.917969 C 11.929688 20.917969 12.90625 20.769531 13.828125 20.492188 Z M 12.238281 15.265625 "/>
<path style=" stroke:none;fill-rule:nonzero;fill:rgb(100%,79.215688%,15.686275%);fill-opacity:1;" d="M 20.492188 8 L 15.265625 9.589844 C 15.394531 10.007812 15.460938 10.453125 15.460938 10.914062 C 15.460938 11.269531 15.421875 11.613281 15.34375 11.941406 L 20.664062 13.179688 C 20.832031 12.449219 20.917969 11.691406 20.917969 10.914062 C 20.917969 9.898438 20.769531 8.921875 20.492188 8 Z M 20.492188 8 "/>
<path style=" stroke:none;fill-rule:nonzero;fill:rgb(100%,65.490198%,14.901961%);fill-opacity:1;" d="M 17.753906 3.597656 L 14.023438 7.589844 C 14.597656 8.128906 15.03125 8.8125 15.265625 9.589844 L 20.492188 8 C 19.976562 6.292969 19.019531 4.78125 17.753906 3.597656 Z M 17.753906 3.597656 "/>
<path style=" stroke:none;fill-rule:nonzero;fill:rgb(100%,43.921569%,26.274511%);fill-opacity:1;" d="M 13.828125 1.335938 L 12.238281 6.5625 C 12.914062 6.765625 13.519531 7.121094 14.023438 7.589844 L 17.753906 3.597656 C 16.648438 2.570312 15.3125 1.785156 13.828125 1.335938 Z M 13.828125 1.335938 "/>
<path style=" stroke:none;fill-rule:nonzero;fill:rgb(14.901961%,77.64706%,85.490197%);fill-opacity:1;" d="M 7.804688 14.238281 L 4.074219 18.230469 C 5.335938 19.40625 6.90625 20.261719 8.648438 20.664062 L 9.886719 15.34375 C 9.089844 15.164062 8.378906 14.773438 7.804688 14.238281 Z M 7.804688 14.238281 "/>
<path style=" stroke:none;fill-rule:nonzero;fill:rgb(92.54902%,25.098041%,47.843137%);fill-opacity:1;" d="M 8 1.335938 C 6.292969 1.851562 4.78125 2.808594 3.597656 4.074219 L 7.589844 7.804688 C 8.128906 7.230469 8.8125 6.796875 9.589844 6.5625 Z M 8 1.335938 "/>
<path style=" stroke:none;fill-rule:nonzero;fill:rgb(61.176473%,80.000001%,39.607844%);fill-opacity:1;" d="M 14.238281 14.023438 C 13.699219 14.597656 13.015625 15.03125 12.238281 15.265625 L 13.828125 20.492188 C 15.535156 19.976562 17.046875 19.019531 18.230469 17.753906 Z M 14.238281 14.023438 "/>
<path style=" stroke:none;fill-rule:nonzero;fill:rgb(67.058825%,27.843139%,73.725492%);fill-opacity:1;" d="M 3.597656 4.074219 C 2.421875 5.335938 1.566406 6.90625 1.164062 8.648438 L 6.484375 9.886719 C 6.664062 9.089844 7.054688 8.378906 7.589844 7.804688 Z M 3.597656 4.074219 "/>
<path style=" stroke:none;fill-rule:nonzero;fill:rgb(100%,93.333334%,34.509805%);fill-opacity:1;" d="M 15.34375 11.941406 C 15.164062 12.738281 14.773438 13.449219 14.238281 14.023438 L 18.230469 17.753906 C 19.40625 16.492188 20.261719 14.921875 20.664062 13.179688 Z M 15.34375 11.941406 "/>
<path style=" stroke:none;fill-rule:nonzero;fill:rgb(25.882354%,25.882354%,25.882354%);fill-opacity:1;" d="M 4.21875 7.046875 C 6.355469 3.351562 11.082031 2.085938 14.78125 4.21875 C 18.476562 6.355469 19.742188 11.082031 17.609375 14.78125 C 15.472656 18.476562 10.746094 19.742188 7.046875 17.609375 C 3.351562 15.472656 2.085938 10.746094 4.21875 7.046875 Z M 4.21875 7.046875 "/>
<path style=" stroke:none;fill-rule:nonzero;fill:rgb(38.039216%,38.039216%,38.039216%);fill-opacity:1;" d="M 5.792969 7.957031 C 7.425781 5.128906 11.042969 4.160156 13.871094 5.792969 C 16.699219 7.425781 17.667969 11.042969 16.035156 13.871094 C 14.402344 16.699219 10.785156 17.667969 7.957031 16.035156 C 5.128906 14.402344 4.160156 10.785156 5.792969 7.957031 Z M 5.792969 7.957031 "/>
<path style=" stroke:none;fill-rule:nonzero;fill:rgb(87.843138%,87.843138%,87.843138%);fill-opacity:1;" d="M 4.609375 7.285156 L 4.617188 7.265625 C 4.742188 7.054688 5.015625 6.984375 5.234375 7.109375 L 7.597656 8.472656 C 7.816406 8.597656 7.890625 8.875 7.769531 9.085938 L 7.757812 9.105469 C 7.636719 9.316406 7.359375 9.386719 7.140625 9.261719 L 4.777344 7.898438 C 4.5625 7.773438 4.484375 7.496094 4.609375 7.285156 Z M 4.609375 7.285156 "/>
</g>
</svg>
