
<svg xmlns="http://www.w3.org/2000/svg" xmlns:xlink="http://www.w3.org/1999/xlink" width="22px" height="22px" viewBox="0 0 22 22" version="1.1">
<g id="surface1">
<path style=" stroke:none;fill-rule:nonzero;fill:rgb(25.882354%,25.882354%,25.882354%);fill-opacity:1;" d="M 2.273438 0.910156 L 19.554688 0.910156 C 20.308594 0.910156 20.917969 1.519531 20.917969 2.273438 L 20.917969 19.554688 C 20.917969 20.308594 20.308594 20.917969 19.554688 20.917969 L 2.273438 20.917969 C 1.519531 20.917969 0.910156 20.308594 0.910156 19.554688 L 0.910156 2.273438 C 0.910156 1.519531 1.519531 0.910156 2.273438 0.910156 Z M 2.273438 0.910156 "/>
<path style=" stroke:none;fill-rule:nonzero;fill:rgb(100%,79.215688%,15.686275%);fill-opacity:1;" d="M 15.460938 8.1875 L 19.097656 8.1875 C 19.601562 8.1875 20.007812 8.59375 20.007812 9.09375 L 20.007812 12.734375 C 20.007812 13.234375 19.601562 13.644531 19.097656 13.644531 L 15.460938 13.644531 C 14.960938 13.644531 14.550781 13.234375 14.550781 12.734375 L 14.550781 9.09375 C 14.550781 8.59375 14.960938 8.1875 15.460938 8.1875 Z M 15.460938 8.1875 "/>
<path style=" stroke:none;fill-rule:nonzero;fill:rgb(16.078432%,71.372551%,96.470588%);fill-opacity:1;" d="M 9.09375 8.1875 L 12.734375 8.1875 C 13.234375 8.1875 13.640625 8.59375 13.640625 9.09375 L 13.640625 12.734375 C 13.640625 13.234375 13.234375 13.644531 12.734375 13.644531 L 9.09375 13.644531 C 8.59375 13.644531 8.1875 13.234375 8.1875 12.734375 L 8.1875 9.09375 C 8.1875 8.59375 8.59375 8.1875 9.09375 8.1875 Z M 9.09375 8.1875 "/>
<path style=" stroke:none;fill-rule:nonzero;fill:rgb(92.54902%,25.098041%,47.843137%);fill-opacity:1;" d="M 2.726562 8.1875 L 6.367188 8.1875 C 6.867188 8.1875 7.277344 8.59375 7.277344 9.09375 L 7.277344 12.734375 C 7.277344 13.234375 6.867188 13.644531 6.367188 13.644531 L 2.726562 13.644531 C 2.226562 13.644531 1.820312 13.234375 1.820312 12.734375 L 1.820312 9.09375 C 1.820312 8.59375 2.226562 8.1875 2.726562 8.1875 Z M 2.726562 8.1875 "/>
<path style=" stroke:none;fill-rule:nonzero;fill:rgb(87.843138%,87.843138%,87.843138%);fill-opacity:1;" d="M 15.460938 1.820312 L 19.097656 1.820312 C 19.601562 1.820312 20.007812 2.226562 20.007812 2.726562 L 20.007812 6.367188 C 20.007812 6.867188 19.601562 7.277344 19.097656 7.277344 L 15.460938 7.277344 C 14.960938 7.277344 14.550781 6.867188 14.550781 6.367188 L 14.550781 2.726562 C 14.550781 2.226562 14.960938 1.820312 15.460938 1.820312 Z M 15.460938 1.820312 "/>
<path style=" stroke:none;fill-rule:nonzero;fill:rgb(61.960787%,61.960787%,61.960787%);fill-opacity:1;" d="M 9.09375 1.820312 L 12.734375 1.820312 C 13.234375 1.820312 13.640625 2.226562 13.640625 2.726562 L 13.640625 6.367188 C 13.640625 6.867188 13.234375 7.277344 12.734375 7.277344 L 9.09375 7.277344 C 8.59375 7.277344 8.1875 6.867188 8.1875 6.367188 L 8.1875 2.726562 C 8.1875 2.226562 8.59375 1.820312 9.09375 1.820312 Z M 9.09375 1.820312 "/>
<path style=" stroke:none;fill-rule:nonzero;fill:rgb(38.039216%,38.039216%,38.039216%);fill-opacity:1;" d="M 2.726562 1.820312 L 6.367188 1.820312 C 6.867188 1.820312 7.277344 2.226562 7.277344 2.726562 L 7.277344 6.367188 C 7.277344 6.867188 6.867188 7.277344 6.367188 7.277344 L 2.726562 7.277344 C 2.226562 7.277344 1.820312 6.867188 1.820312 6.367188 L 1.820312 2.726562 C 1.820312 2.226562 2.226562 1.820312 2.726562 1.820312 Z M 2.726562 1.820312 "/>
<path style=" stroke:none;fill-rule:nonzero;fill:rgb(61.176473%,80.000001%,39.607844%);fill-opacity:1;" d="M 15.460938 14.550781 L 19.097656 14.550781 C 19.601562 14.550781 20.007812 14.960938 20.007812 15.460938 L 20.007812 19.101562 C 20.007812 19.601562 19.601562 20.007812 19.097656 20.007812 L 15.460938 20.007812 C 14.960938 20.007812 14.550781 19.601562 14.550781 19.101562 L 14.550781 15.460938 C 14.550781 14.960938 14.960938 14.550781 15.460938 14.550781 Z M 15.460938 14.550781 "/>
<path style=" stroke:none;fill-rule:nonzero;fill:rgb(93.725491%,32.549021%,31.37255%);fill-opacity:1;" d="M 9.09375 14.550781 L 12.734375 14.550781 C 13.234375 14.550781 13.640625 14.960938 13.640625 15.460938 L 13.640625 19.101562 C 13.640625 19.601562 13.234375 20.007812 12.734375 20.007812 L 9.09375 20.007812 C 8.59375 20.007812 8.1875 19.601562 8.1875 19.101562 L 8.1875 15.460938 C 8.1875 14.960938 8.59375 14.550781 9.09375 14.550781 Z M 9.09375 14.550781 "/>
<path style=" stroke:none;fill-rule:nonzero;fill:rgb(36.078432%,41.960785%,75.294119%);fill-opacity:1;" d="M 2.726562 14.550781 L 6.367188 14.550781 C 6.867188 14.550781 7.277344 14.960938 7.277344 15.460938 L 7.277344 19.101562 C 7.277344 19.601562 6.867188 20.007812 6.367188 20.007812 L 2.726562 20.007812 C 2.226562 20.007812 1.820312 19.601562 1.820312 19.101562 L 1.820312 15.460938 C 1.820312 14.960938 2.226562 14.550781 2.726562 14.550781 Z M 2.726562 14.550781 "/>
</g>
</svg>
