
<svg xmlns="http://www.w3.org/2000/svg" xmlns:xlink="http://www.w3.org/1999/xlink" width="22px" height="22px" viewBox="0 0 22 22" version="1.1">
<g id="surface1">
<path style=" stroke:none;fill-rule:nonzero;fill:rgb(93.333334%,93.333334%,93.333334%);fill-opacity:1;" d="M 10.914062 0.910156 C 16.4375 0.910156 20.917969 5.390625 20.917969 10.914062 C 20.917969 16.4375 16.4375 20.917969 10.914062 20.917969 C 5.390625 20.917969 0.910156 16.4375 0.910156 10.914062 C 0.910156 5.390625 5.390625 0.910156 10.914062 0.910156 Z M 10.914062 0.910156 "/>
<path style=" stroke:none;fill-rule:nonzero;fill:rgb(61.960787%,85.09804%,87.843138%);fill-opacity:1;" d="M 9.027344 16.238281 C 8.988281 16.183594 8.988281 16.183594 9.042969 16.226562 C 9.074219 16.25 9.097656 16.273438 9.097656 16.28125 C 9.097656 16.308594 9.070312 16.292969 9.027344 16.238281 Z M 10.605469 15.980469 C 10.605469 15.941406 10.613281 15.933594 10.625 15.960938 C 10.632812 15.984375 10.632812 16.011719 10.621094 16.023438 C 10.609375 16.035156 10.605469 16.015625 10.605469 15.980469 Z M 10.605469 15.589844 C 10.605469 15.550781 10.613281 15.542969 10.625 15.570312 C 10.632812 15.59375 10.632812 15.621094 10.621094 15.632812 C 10.609375 15.640625 10.605469 15.625 10.605469 15.589844 Z M 9.253906 11.777344 C 9.273438 11.753906 9.300781 11.746094 9.3125 11.757812 C 9.320312 11.765625 9.304688 11.785156 9.269531 11.796875 C 9.226562 11.8125 9.222656 11.808594 9.253906 11.777344 Z M 10.636719 10.984375 C 10.636719 10.976562 10.660156 10.953125 10.691406 10.929688 C 10.742188 10.886719 10.746094 10.886719 10.703125 10.941406 C 10.660156 10.996094 10.636719 11.011719 10.636719 10.984375 Z M 11.191406 10.429688 C 11.191406 10.421875 11.214844 10.398438 11.25 10.371094 C 11.300781 10.332031 11.300781 10.332031 11.261719 10.382812 C 11.21875 10.4375 11.191406 10.457031 11.191406 10.429688 Z M 8.394531 9.550781 L 8.265625 9.410156 L 8.402344 9.539062 C 8.53125 9.660156 8.558594 9.691406 8.53125 9.691406 C 8.527344 9.691406 8.464844 9.628906 8.394531 9.550781 Z M 9.496094 8.726562 C 9.496094 8.671875 9.503906 8.652344 9.511719 8.683594 C 9.523438 8.714844 9.519531 8.761719 9.511719 8.78125 C 9.503906 8.804688 9.496094 8.777344 9.496094 8.726562 Z M 9.460938 8.328125 C 9.460938 8.292969 9.46875 8.285156 9.480469 8.308594 C 9.488281 8.332031 9.488281 8.363281 9.476562 8.371094 C 9.46875 8.382812 9.460938 8.363281 9.460938 8.328125 Z M 12.210938 8.1875 C 12.210938 8.140625 12.21875 8.121094 12.226562 8.144531 C 12.234375 8.167969 12.234375 8.203125 12.226562 8.226562 C 12.21875 8.25 12.210938 8.230469 12.210938 8.1875 Z M 12.210938 7.644531 C 12.210938 7.59375 12.21875 7.574219 12.226562 7.605469 C 12.234375 7.636719 12.234375 7.683594 12.226562 7.703125 C 12.21875 7.726562 12.210938 7.699219 12.210938 7.644531 Z M 7.105469 6.664062 C 7.109375 6.625 7.117188 6.617188 7.125 6.644531 C 7.136719 6.667969 7.132812 6.695312 7.125 6.707031 C 7.113281 6.714844 7.105469 6.695312 7.105469 6.664062 Z M 8.667969 6.589844 C 8.628906 6.539062 8.628906 6.539062 8.679688 6.578125 C 8.734375 6.621094 8.753906 6.648438 8.726562 6.648438 C 8.71875 6.648438 8.695312 6.621094 8.667969 6.589844 Z M 8.410156 6.296875 L 8.328125 6.207031 L 8.417969 6.285156 C 8.503906 6.359375 8.523438 6.386719 8.5 6.386719 C 8.492188 6.386719 8.453125 6.347656 8.410156 6.296875 Z M 7.105469 6.269531 C 7.109375 6.230469 7.117188 6.222656 7.125 6.25 C 7.136719 6.273438 7.132812 6.300781 7.125 6.3125 C 7.113281 6.324219 7.105469 6.304688 7.105469 6.269531 Z M 8.144531 6.070312 C 8.105469 6.015625 8.105469 6.015625 8.160156 6.054688 C 8.210938 6.097656 8.230469 6.125 8.203125 6.125 C 8.195312 6.125 8.171875 6.101562 8.144531 6.070312 Z M 4.503906 5.601562 C 4.609375 5.496094 4.707031 5.40625 4.714844 5.40625 C 4.722656 5.40625 4.644531 5.496094 4.535156 5.601562 C 4.429688 5.710938 4.335938 5.796875 4.328125 5.796875 C 4.316406 5.796875 4.398438 5.710938 4.503906 5.601562 Z M 11.253906 5.085938 C 11.210938 5.035156 11.210938 5.035156 11.265625 5.074219 C 11.296875 5.101562 11.320312 5.125 11.320312 5.132812 C 11.320312 5.160156 11.292969 5.140625 11.253906 5.085938 Z M 10.761719 4.597656 C 10.722656 4.546875 10.722656 4.542969 10.773438 4.585938 C 10.828125 4.628906 10.847656 4.652344 10.820312 4.652344 C 10.8125 4.652344 10.785156 4.628906 10.761719 4.597656 Z M 7.980469 3.75 C 8.003906 3.738281 8.03125 3.742188 8.042969 3.75 C 8.054688 3.761719 8.035156 3.769531 8 3.769531 C 7.960938 3.765625 7.953125 3.757812 7.980469 3.75 Z M 8.796875 3.75 C 8.820312 3.738281 8.851562 3.742188 8.859375 3.75 C 8.871094 3.761719 8.851562 3.769531 8.816406 3.769531 C 8.78125 3.765625 8.773438 3.757812 8.796875 3.75 Z M 8.796875 3.75 "/>
<path style=" stroke:none;fill-rule:nonzero;fill:rgb(30.19608%,71.372551%,67.450982%);fill-opacity:1;" d="M 12.664062 15.960938 C 12.277344 15.792969 12.132812 15.230469 12.375 14.84375 C 12.609375 14.460938 13.070312 14.339844 13.363281 14.585938 C 13.414062 14.628906 13.492188 14.742188 13.53125 14.835938 C 13.59375 14.980469 13.601562 15.050781 13.589844 15.277344 C 13.574219 15.613281 13.464844 15.8125 13.242188 15.929688 C 13.078125 16.019531 12.824219 16.03125 12.664062 15.960938 Z M 13.242188 13.558594 C 12.914062 13.46875 12.898438 12.171875 13.191406 9.828125 C 13.347656 8.566406 13.425781 8.230469 13.628906 7.929688 C 13.761719 7.730469 13.902344 7.644531 14.1875 7.585938 C 14.683594 7.480469 15.273438 7.605469 15.695312 7.90625 C 16.164062 8.246094 16.230469 8.519531 16 9.175781 C 15.773438 9.816406 15.21875 10.933594 14.585938 12.019531 C 14.023438 12.984375 13.695312 13.4375 13.488281 13.535156 C 13.367188 13.59375 13.359375 13.59375 13.242188 13.558594 Z M 13.242188 13.558594 "/>
<path style=" stroke:none;fill-rule:nonzero;fill:rgb(30.19608%,71.372551%,67.450982%);fill-opacity:1;" d="M 8.449219 3.070312 C 8.019531 3.066406 7.585938 3.132812 7.144531 3.277344 C 6.0625 3.628906 4.429688 4.816406 4.09375 5.496094 C 3.996094 5.691406 3.980469 5.757812 3.984375 5.953125 C 3.984375 6.269531 4.042969 6.417969 4.511719 7.359375 C 5.8125 9.964844 7.367188 12.871094 8.207031 14.277344 C 8.9375 15.496094 9.226562 15.835938 9.632812 15.960938 C 9.816406 16.019531 9.90625 16.019531 10.105469 15.957031 C 10.472656 15.847656 10.621094 15.5625 10.59375 15.015625 C 10.574219 14.597656 10.5625 14.5625 9.84375 12.707031 C 9.519531 11.871094 9.25 11.167969 9.25 11.140625 C 9.246094 11.117188 9.363281 11.046875 9.523438 10.976562 C 10.457031 10.574219 11.230469 9.867188 11.769531 8.925781 C 12.101562 8.347656 12.203125 7.941406 12.203125 7.21875 C 12.203125 6.261719 11.980469 5.480469 11.507812 4.765625 C 11.125 4.191406 10.628906 3.75 10.03125 3.453125 C 9.527344 3.207031 8.996094 3.078125 8.449219 3.070312 Z M 7.539062 5.121094 C 7.808594 5.121094 8.0625 5.261719 8.425781 5.625 C 8.917969 6.113281 9.25 6.679688 9.414062 7.308594 C 9.523438 7.714844 9.539062 8.335938 9.449219 8.628906 C 9.386719 8.828125 9.242188 9.019531 9.09375 9.09375 C 8.972656 9.160156 8.777344 9.152344 8.640625 9.078125 C 8.390625 8.949219 7.984375 8.417969 7.710938 7.871094 C 7.347656 7.148438 7.144531 6.488281 7.113281 5.9375 C 7.082031 5.351562 7.203125 5.121094 7.539062 5.121094 Z M 7.539062 5.121094 "/>
<path style=" stroke:none;fill-rule:nonzero;fill:rgb(30.19608%,71.372551%,67.450982%);fill-opacity:1;" d="M 6.140625 17.28125 L 15.6875 17.28125 C 16.066406 17.28125 16.371094 17.585938 16.371094 17.960938 C 16.371094 18.339844 16.066406 18.644531 15.6875 18.644531 L 6.140625 18.644531 C 5.761719 18.644531 5.457031 18.339844 5.457031 17.960938 C 5.457031 17.585938 5.761719 17.28125 6.140625 17.28125 Z M 6.140625 17.28125 "/>
</g>
</svg>
