<?xml version="1.0" encoding="UTF-8"?>
<svg xmlns="http://www.w3.org/2000/svg" xmlns:xlink="http://www.w3.org/1999/xlink" width="22px" height="22px" viewBox="0 0 22 22" version="1.1">
<g id="surface1">
<path style=" stroke:none;fill-rule:nonzero;fill:rgb(55.29412%,43.137255%,38.82353%);fill-opacity:1;" d="M 1.820312 1.082031 L 20.007812 1.082031 C 20.511719 1.082031 20.917969 1.488281 20.917969 1.992188 L 20.917969 20.179688 C 20.917969 20.683594 20.511719 21.089844 20.007812 21.089844 L 1.820312 21.089844 C 1.316406 21.089844 0.910156 20.683594 0.910156 20.179688 L 0.910156 1.992188 C 0.910156 1.488281 1.316406 1.082031 1.820312 1.082031 Z M 1.820312 1.082031 "/>
<path style=" stroke:none;fill-rule:nonzero;fill:rgb(25.882354%,25.882354%,25.882354%);fill-opacity:1;" d="M 3.183594 2.898438 L 18.644531 2.898438 C 18.894531 2.898438 19.101562 3.105469 19.101562 3.355469 L 19.101562 18.816406 C 19.101562 19.066406 18.894531 19.273438 18.644531 19.273438 L 3.183594 19.273438 C 2.933594 19.273438 2.726562 19.066406 2.726562 18.816406 L 2.726562 3.355469 C 2.726562 3.105469 2.933594 2.898438 3.183594 2.898438 Z M 3.183594 2.898438 "/>
<path style=" stroke:none;fill-rule:nonzero;fill:rgb(100%,65.490198%,14.901961%);fill-opacity:1;" d="M 15.917969 7.902344 C 15.386719 7.894531 14.882812 8.027344 14.492188 8.335938 C 14.105469 8.652344 13.867188 9.152344 13.867188 9.722656 C 13.867188 10.328125 14.222656 10.792969 14.617188 11.042969 C 15.011719 11.292969 15.441406 11.40625 15.769531 11.515625 C 16.125 11.636719 16.488281 11.75 16.71875 11.894531 C 16.949219 12.042969 17.046875 12.148438 17.046875 12.449219 C 17.046875 12.789062 16.945312 12.972656 16.765625 13.117188 C 16.585938 13.261719 16.289062 13.359375 15.910156 13.359375 C 15.53125 13.359375 15.222656 13.261719 15.035156 13.128906 C 14.847656 12.996094 14.773438 12.867188 14.773438 12.675781 C 14.777344 12.511719 14.691406 12.359375 14.550781 12.277344 C 14.40625 12.195312 14.234375 12.195312 14.089844 12.277344 C 13.949219 12.359375 13.863281 12.511719 13.867188 12.675781 C 13.867188 13.167969 14.132812 13.605469 14.515625 13.875 C 14.894531 14.140625 15.382812 14.269531 15.910156 14.269531 C 16.441406 14.269531 16.945312 14.136719 17.332031 13.828125 C 17.722656 13.515625 17.957031 13.019531 17.957031 12.449219 C 17.957031 11.84375 17.601562 11.378906 17.207031 11.128906 C 16.8125 10.878906 16.382812 10.761719 16.054688 10.652344 C 15.699219 10.535156 15.335938 10.421875 15.105469 10.277344 C 14.871094 10.128906 14.773438 10.023438 14.773438 9.722656 C 14.773438 9.382812 14.882812 9.191406 15.0625 9.046875 C 15.246094 8.898438 15.535156 8.804688 15.902344 8.8125 C 15.90625 8.8125 15.910156 8.8125 15.910156 8.8125 C 16.289062 8.8125 16.601562 8.910156 16.789062 9.042969 C 16.976562 9.171875 17.046875 9.304688 17.046875 9.492188 C 17.046875 9.65625 17.132812 9.808594 17.273438 9.894531 C 17.414062 9.976562 17.589844 9.976562 17.734375 9.894531 C 17.875 9.808594 17.960938 9.65625 17.957031 9.492188 C 17.957031 9 17.691406 8.5625 17.308594 8.296875 C 16.929688 8.03125 16.445312 7.902344 15.917969 7.902344 Z M 15.917969 7.902344 "/>
<path style=" stroke:none;fill-rule:nonzero;fill:rgb(49.411765%,34.117648%,76.078433%);fill-opacity:1;" d="M 10.230469 7.902344 C 9.476562 7.902344 8.867188 8.511719 8.867188 9.265625 L 8.867188 12.90625 C 8.867188 13.660156 9.476562 14.269531 10.230469 14.269531 L 11.597656 14.269531 C 12.351562 14.269531 12.960938 13.660156 12.960938 12.90625 L 12.960938 9.265625 C 12.960938 8.511719 12.351562 7.902344 11.597656 7.902344 Z M 10.230469 8.8125 L 11.597656 8.8125 C 11.847656 8.8125 12.050781 9.015625 12.050781 9.265625 L 12.050781 12.90625 C 12.050781 13.15625 11.847656 13.359375 11.597656 13.359375 L 10.230469 13.359375 C 9.980469 13.359375 9.777344 13.15625 9.777344 12.90625 L 9.777344 9.265625 C 9.777344 9.015625 9.980469 8.8125 10.230469 8.8125 Z M 10.230469 8.8125 "/>
<path style=" stroke:none;fill-rule:nonzero;fill:rgb(93.725491%,32.549021%,31.37255%);fill-opacity:1;" d="M 4.320312 7.902344 C 4.066406 7.902344 3.867188 8.105469 3.867188 8.355469 L 3.867188 13.8125 C 3.867188 13.832031 3.867188 13.847656 3.867188 13.859375 C 3.867188 13.867188 3.871094 13.875 3.871094 13.882812 C 3.902344 14.101562 4.09375 14.269531 4.320312 14.269531 L 6.59375 14.269531 C 7.351562 14.269531 7.957031 13.660156 7.957031 12.90625 L 7.957031 9.265625 C 7.957031 8.511719 7.351562 7.902344 6.59375 7.902344 Z M 4.773438 8.8125 L 6.59375 8.8125 C 6.847656 8.8125 7.046875 9.015625 7.046875 9.265625 L 7.046875 12.90625 C 7.046875 13.15625 6.847656 13.359375 6.59375 13.359375 L 4.773438 13.359375 Z M 4.773438 8.8125 "/>
</g>
</svg>
