
<svg xmlns="http://www.w3.org/2000/svg" xmlns:xlink="http://www.w3.org/1999/xlink" width="22px" height="22px" viewBox="0 0 22 22" version="1.1">
<g id="surface1">
<path style=" stroke:none;fill-rule:nonzero;fill:rgb(36.078432%,41.960785%,75.294119%);fill-opacity:1;" d="M 2.957031 2.726562 L 18.871094 2.726562 C 18.996094 2.726562 19.101562 2.832031 19.101562 2.957031 L 19.101562 18.871094 C 19.101562 18.996094 18.996094 19.101562 18.871094 19.101562 L 2.957031 19.101562 C 2.832031 19.101562 2.726562 18.996094 2.726562 18.871094 L 2.726562 2.957031 C 2.726562 2.832031 2.832031 2.726562 2.957031 2.726562 Z M 2.957031 2.726562 "/>
<path style=" stroke:none;fill-rule:nonzero;fill:rgb(40.000001%,73.333335%,41.568628%);fill-opacity:1;" d="M 1.789062 0.910156 L 20.039062 0.910156 C 20.523438 0.910156 20.917969 1.304688 20.917969 1.789062 L 20.917969 20.039062 C 20.917969 20.523438 20.523438 20.917969 20.039062 20.917969 L 1.789062 20.917969 C 1.304688 20.917969 0.910156 20.523438 0.910156 20.039062 L 0.910156 1.789062 C 0.910156 1.304688 1.304688 0.910156 1.789062 0.910156 Z M 1.789062 0.910156 "/>
<path style=" stroke:none;fill-rule:nonzero;fill:rgb(96.078432%,96.078432%,96.078432%);fill-opacity:1;" d="M 2.273438 1.820312 C 2.023438 1.820312 1.820312 2.023438 1.820312 2.273438 L 1.820312 17.28125 L 4.546875 17.28125 L 4.546875 20.007812 L 19.554688 20.007812 C 19.804688 20.007812 20.007812 19.804688 20.007812 19.554688 L 20.007812 2.273438 C 20.007812 2.023438 19.804688 1.820312 19.554688 1.820312 Z M 2.273438 1.820312 "/>
<path style=" stroke:none;fill-rule:nonzero;fill:rgb(40.000001%,73.333335%,41.568628%);fill-opacity:1;" d="M 3.496094 3.183594 L 18.503906 3.183594 C 18.628906 3.183594 18.730469 3.285156 18.730469 3.410156 L 18.730469 18.417969 C 18.730469 18.542969 18.628906 18.644531 18.503906 18.644531 L 3.496094 18.644531 C 3.371094 18.644531 3.269531 18.542969 3.269531 18.417969 L 3.269531 3.410156 C 3.269531 3.285156 3.371094 3.183594 3.496094 3.183594 Z M 3.496094 3.183594 "/>
<path style=" stroke:none;fill-rule:nonzero;fill:rgb(93.333334%,93.333334%,93.333334%);fill-opacity:1;" d="M 1.820312 18.191406 L 1.820312 19.554688 C 1.820312 19.804688 2.023438 20.007812 2.273438 20.007812 L 3.636719 20.007812 L 3.636719 18.191406 Z M 1.820312 18.191406 "/>
<path style=" stroke:none;fill-rule:nonzero;fill:rgb(96.078432%,96.078432%,96.078432%);fill-opacity:1;" d="M 7.308594 5.910156 L 7.308594 15.894531 L 9.527344 15.894531 L 9.527344 12.011719 L 12.855469 12.011719 C 13.777344 12.011719 14.519531 11.269531 14.519531 10.347656 L 14.519531 7.574219 C 14.519531 6.652344 13.777344 5.910156 12.855469 5.910156 Z M 9.527344 8.128906 L 11.746094 8.128906 C 12.054688 8.128906 12.300781 8.378906 12.300781 8.683594 L 12.300781 9.238281 C 12.300781 9.546875 12.054688 9.792969 11.746094 9.792969 L 9.527344 9.792969 Z M 9.527344 8.128906 "/>
</g>
</svg>
