<?xml version="1.0" encoding="UTF-8"?>
<svg xmlns="http://www.w3.org/2000/svg" xmlns:xlink="http://www.w3.org/1999/xlink" width="22px" height="22px" viewBox="0 0 22 22" version="1.1">
<g id="surface1">
<path style=" stroke:none;fill-rule:nonzero;fill:rgb(93.333334%,93.333334%,93.333334%);fill-opacity:1;" d="M 1.820312 1.082031 L 20.007812 1.082031 C 20.511719 1.082031 20.917969 1.488281 20.917969 1.992188 L 20.917969 20.179688 C 20.917969 20.683594 20.511719 21.089844 20.007812 21.089844 L 1.820312 21.089844 C 1.316406 21.089844 0.910156 20.683594 0.910156 20.179688 L 0.910156 1.992188 C 0.910156 1.488281 1.316406 1.082031 1.820312 1.082031 Z M 1.820312 1.082031 "/>
<path style=" stroke:none;fill-rule:nonzero;fill:rgb(61.960787%,61.960787%,61.960787%);fill-opacity:1;" d="M 7.277344 1.082031 L 7.730469 1.082031 L 7.730469 21.089844 L 7.277344 21.089844 Z M 7.277344 1.082031 "/>
<path style=" stroke:none;fill-rule:nonzero;fill:rgb(61.960787%,61.960787%,61.960787%);fill-opacity:1;" d="M 20.917969 7.449219 L 20.917969 7.902344 L 0.910156 7.902344 L 0.910156 7.449219 Z M 20.917969 7.449219 "/>
<path style=" stroke:none;fill-rule:nonzero;fill:rgb(61.960787%,61.960787%,61.960787%);fill-opacity:1;" d="M 14.097656 1.082031 L 14.550781 1.082031 L 14.550781 21.089844 L 14.097656 21.089844 Z M 14.097656 1.082031 "/>
<path style=" stroke:none;fill-rule:nonzero;fill:rgb(61.960787%,61.960787%,61.960787%);fill-opacity:1;" d="M 20.917969 14.269531 L 20.917969 14.722656 L 0.910156 14.722656 L 0.910156 14.269531 Z M 20.917969 14.269531 "/>
<path style=" stroke:none;fill-rule:nonzero;fill:rgb(93.725491%,32.549021%,31.37255%);fill-opacity:1;" d="M 7.730469 14.722656 L 14.097656 14.722656 L 14.097656 21.089844 L 7.730469 21.089844 Z M 7.730469 14.722656 "/>
<path style=" stroke:none;fill-rule:nonzero;fill:rgb(25.882354%,25.882354%,25.882354%);fill-opacity:1;" d="M 7.730469 1.082031 L 14.097656 1.082031 L 14.097656 7.449219 L 7.730469 7.449219 Z M 7.730469 1.082031 "/>
<path style=" stroke:none;fill-rule:nonzero;fill:rgb(40.000001%,73.333335%,41.568628%);fill-opacity:1;" d="M 14.550781 7.902344 L 20.917969 7.902344 L 20.917969 14.269531 L 14.550781 14.269531 Z M 14.550781 7.902344 "/>
<path style=" stroke:none;fill-rule:nonzero;fill:rgb(93.725491%,32.549021%,31.37255%);fill-opacity:1;" d="M 0.910156 14.722656 L 0.910156 20.179688 C 0.910156 20.683594 1.316406 21.089844 1.820312 21.089844 L 7.277344 21.089844 L 7.277344 14.722656 Z M 0.910156 14.722656 "/>
</g>
</svg>
