<?xml version="1.0" encoding="UTF-8"?>
<svg xmlns="http://www.w3.org/2000/svg" xmlns:xlink="http://www.w3.org/1999/xlink" width="22px" height="22px" viewBox="0 0 22 22" version="1.1">
<g id="surface1">
<path style=" stroke:none;fill-rule:nonzero;fill:rgb(25.882354%,25.882354%,25.882354%);fill-opacity:1;" d="M 10.003906 13.359375 C 7.34375 16.308594 7.277344 21.089844 7.730469 21.089844 C 8.414062 21.089844 8.277344 18.441406 10.914062 18 C 13.550781 18.441406 13.414062 21.089844 14.097656 21.089844 C 14.550781 21.089844 14.484375 16.308594 11.824219 13.359375 L 10.914062 13.585938 Z M 10.003906 13.359375 "/>
<path style=" stroke:none;fill-rule:nonzero;fill:rgb(74.117649%,74.117649%,74.117649%);fill-opacity:1;" d="M 7.679688 1.082031 C 6.003906 1.164062 4.675781 2.972656 4.675781 5.207031 L 4.675781 5.269531 C 4.675781 7.554688 6.066406 9.398438 7.796875 9.398438 L 14.03125 9.398438 C 15.761719 9.398438 17.152344 7.554688 17.152344 5.269531 L 17.152344 5.207031 C 17.152344 2.972656 15.824219 1.164062 14.148438 1.082031 C 13.902344 1.082031 14.355469 1.339844 14.492188 1.492188 C 14.914062 1.953125 13.53125 1.457031 13.773438 1.859375 C 16.132812 3.769531 17.007812 6.898438 13.640625 7.902344 L 10.914062 8.355469 L 8.183594 7.902344 C 4.820312 6.898438 5.695312 3.769531 8.054688 1.859375 C 8.296875 1.457031 6.914062 1.953125 7.335938 1.492188 C 7.472656 1.339844 7.925781 1.082031 7.679688 1.082031 Z M 7.679688 1.082031 "/>
<path style=" stroke:none;fill-rule:nonzero;fill:rgb(25.882354%,25.882354%,25.882354%);fill-opacity:1;" d="M 10.003906 13.359375 C 8.445312 13.660156 4.773438 16.316406 5.457031 16.542969 C 6.140625 16.542969 8.046875 15.277344 9.550781 15.632812 Z M 10.003906 13.359375 "/>
<path style=" stroke:none;fill-rule:nonzero;fill:rgb(32.941177%,43.137255%,47.843137%);fill-opacity:1;" d="M 16.824219 15.632812 L 16.371094 16.542969 L 16.371094 17.90625 L 16.824219 16.542969 Z M 16.824219 15.632812 "/>
<path style=" stroke:none;fill-rule:nonzero;fill:rgb(47.058824%,56.470591%,61.176473%);fill-opacity:1;" d="M 16.484375 16.769531 L 16.597656 16.429688 L 15.6875 15.972656 L 15.574219 16.203125 Z M 16.484375 16.769531 "/>
<path style=" stroke:none;fill-rule:nonzero;fill:rgb(25.882354%,25.882354%,25.882354%);fill-opacity:1;" d="M 11.824219 13.359375 C 13.382812 13.660156 17.054688 16.316406 16.371094 16.542969 C 15.6875 16.542969 13.78125 15.277344 12.277344 15.632812 Z M 11.824219 13.359375 "/>
<path style=" stroke:none;fill-rule:nonzero;fill:rgb(56.470591%,64.313728%,68.235296%);fill-opacity:1;" d="M 16.371094 17.90625 L 20.917969 19.273438 L 16.824219 16.542969 "/>
<path style=" stroke:none;fill-rule:nonzero;fill:rgb(81.176472%,84.705883%,86.274511%);fill-opacity:1;" d="M 20.917969 19.273438 L 16.824219 16.542969 L 16.371094 17.90625 "/>
<path style=" stroke:none;fill-rule:nonzero;fill:rgb(69.01961%,74.509805%,77.254903%);fill-opacity:1;" d="M 20.917969 19.273438 L 16.824219 16.542969 L 16.824219 15.632812 "/>
<path style=" stroke:none;fill-rule:nonzero;fill:rgb(87.843138%,87.843138%,87.843138%);fill-opacity:1;" d="M 10.914062 6.277344 C 8.609375 6.277344 6.757812 7.207031 6.757812 8.355469 L 6.757812 10.4375 C 6.757812 12.164062 8.148438 13.554688 9.875 13.554688 L 11.953125 13.554688 C 13.679688 13.554688 15.070312 12.164062 15.070312 10.4375 L 15.070312 8.355469 C 15.070312 7.207031 13.21875 6.277344 10.914062 6.277344 Z M 10.914062 6.277344 "/>
<path style=" stroke:none;fill-rule:nonzero;fill:rgb(25.882354%,25.882354%,25.882354%);fill-opacity:1;" d="M 8.519531 8.972656 C 9.125 8.808594 9.789062 9.316406 10 10.105469 C 10.210938 10.894531 9.890625 11.664062 9.285156 11.828125 C 8.675781 11.992188 8.015625 11.484375 7.804688 10.695312 C 7.589844 9.90625 7.914062 9.136719 8.519531 8.972656 Z M 8.519531 8.972656 "/>
<path style=" stroke:none;fill-rule:nonzero;fill:rgb(25.882354%,25.882354%,25.882354%);fill-opacity:1;" d="M 13.308594 8.972656 C 13.914062 9.136719 14.238281 9.90625 14.023438 10.695312 C 13.8125 11.484375 13.152344 11.992188 12.542969 11.828125 C 11.9375 11.664062 11.617188 10.894531 11.828125 10.105469 C 12.039062 9.316406 12.703125 8.808594 13.308594 8.972656 Z M 13.308594 8.972656 "/>
<path style=" stroke:none;fill-rule:nonzero;fill:rgb(36.078432%,41.960785%,75.294119%);fill-opacity:1;" d="M 7.652344 13.238281 C 6.308594 13.242188 5.300781 13.617188 3.636719 14.722656 C 4.164062 14.371094 5.03125 14.328125 6.027344 14.324219 C 5.113281 14.914062 4.554688 15.8125 4.289062 16.339844 C 5.238281 14.941406 8.835938 14.835938 10.914062 13.585938 C 10.914062 13.585938 10.902344 13.585938 10.882812 13.582031 C 9.5 13.378906 8.507812 13.234375 7.652344 13.238281 Z M 4.289062 16.339844 C 4.199219 16.472656 4.132812 16.613281 4.09375 16.769531 C 4.09375 16.769531 4.15625 16.597656 4.289062 16.339844 Z M 4.289062 16.339844 "/>
<path style=" stroke:none;fill-rule:nonzero;fill:rgb(47.450981%,52.549022%,79.607844%);fill-opacity:1;" d="M 9.519531 13.476562 C 8.226562 13.480469 7.589844 13.878906 6.753906 14.378906 C 4.957031 14.878906 3.867188 15.292969 2.726562 14.722656 C 2.835938 15.261719 3.222656 15.558594 3.785156 15.679688 C 3.230469 15.832031 2.582031 15.96875 1.820312 16.089844 C 3.183594 17.453125 8.640625 14.953125 10.914062 13.585938 C 10.371094 13.507812 9.914062 13.472656 9.519531 13.476562 Z M 9.519531 13.476562 "/>
<path style=" stroke:none;fill-rule:nonzero;fill:rgb(62.352943%,65.882355%,85.490197%);fill-opacity:1;" d="M 10.914062 13.585938 C 8.640625 14.953125 7.277344 18.363281 4.09375 16.996094 C 7.277344 16.089844 6.570312 12.953125 10.914062 13.585938 Z M 10.914062 13.585938 "/>
<path style=" stroke:none;fill-rule:nonzero;fill:rgb(47.450981%,52.549022%,79.607844%);fill-opacity:1;" d="M 10.914062 14.042969 C 8.1875 14.722656 8.1875 16.542969 5.457031 16.996094 C 8.1875 16.089844 6.367188 13.359375 10.914062 14.042969 Z M 10.914062 14.042969 "/>
<path style=" stroke:none;fill-rule:nonzero;fill:rgb(36.078432%,41.960785%,75.294119%);fill-opacity:1;" d="M 10.914062 13.585938 C 8.640625 14.953125 10.460938 16.542969 7.730469 17.453125 C 10.460938 15.632812 6.570312 12.953125 10.914062 13.585938 Z M 10.914062 13.585938 "/>
<path style=" stroke:none;fill-rule:nonzero;fill:rgb(47.450981%,52.549022%,79.607844%);fill-opacity:1;" d="M 10.914062 13.585938 C 10.914062 14.269531 10.914062 15.179688 10.003906 16.542969 C 10.460938 14.722656 8.640625 13.359375 10.914062 13.585938 Z M 10.914062 13.585938 "/>
<path style=" stroke:none;fill-rule:nonzero;fill:rgb(47.450981%,52.549022%,79.607844%);fill-opacity:1;" d="M 10.914062 13.585938 C 10.914062 14.269531 11.824219 14.269531 12.277344 15.40625 C 12.503906 14.496094 12.734375 14.042969 10.914062 13.585938 Z M 10.914062 13.585938 "/>
<path style=" stroke:none;fill-rule:nonzero;fill:rgb(62.352943%,65.882355%,85.490197%);fill-opacity:1;" d="M 10.914062 13.585938 C 10.914062 14.269531 13.1875 14.269531 13.640625 16.089844 C 13.640625 13.8125 13.1875 13.8125 10.914062 13.585938 Z M 10.914062 13.585938 "/>
<path style=" stroke:none;fill-rule:nonzero;fill:rgb(36.078432%,41.960785%,75.294119%);fill-opacity:1;" d="M 10.914062 13.585938 C 10.914062 14.269531 14.097656 13.359375 14.550781 15.179688 C 14.550781 12.90625 12.960938 13.585938 10.914062 13.585938 Z M 10.914062 13.585938 "/>
<path style=" stroke:none;fill-rule:nonzero;fill:rgb(96.078432%,96.078432%,96.078432%);fill-opacity:1;" d="M 10.914062 6.445312 C 12.675781 6.445312 14.097656 7.296875 14.097656 7.675781 C 14.097656 8.054688 12.742188 7.296875 10.976562 7.296875 C 9.214844 7.296875 7.730469 8.054688 7.730469 7.675781 C 7.730469 7.296875 9.152344 6.445312 10.914062 6.445312 Z M 10.914062 6.445312 "/>
<path style=" stroke:none;fill-rule:nonzero;fill:rgb(45.882353%,45.882353%,45.882353%);fill-opacity:1;" d="M 13.078125 8.941406 C 12.542969 8.941406 12.015625 9.414062 11.828125 10.105469 C 11.769531 10.328125 11.75 10.550781 11.769531 10.753906 C 11.78125 10.648438 11.800781 10.539062 11.828125 10.429688 C 12.015625 9.738281 12.542969 9.265625 13.078125 9.265625 C 13.15625 9.265625 13.234375 9.277344 13.308594 9.296875 C 13.746094 9.414062 14.035156 9.84375 14.082031 10.371094 C 14.144531 9.703125 13.835938 9.113281 13.308594 8.972656 C 13.234375 8.953125 13.15625 8.941406 13.078125 8.941406 Z M 13.078125 8.941406 "/>
<path style=" stroke:none;fill-rule:nonzero;fill:rgb(38.039216%,38.039216%,38.039216%);fill-opacity:1;" d="M 8.75 8.941406 C 8.671875 8.941406 8.59375 8.953125 8.519531 8.972656 C 7.988281 9.113281 7.679688 9.714844 7.746094 10.386719 C 7.800781 9.871094 8.085938 9.449219 8.519531 9.332031 C 9.128906 9.171875 9.789062 9.675781 10 10.46875 C 10.027344 10.570312 10.046875 10.671875 10.054688 10.773438 C 10.078125 10.5625 10.0625 10.335938 10 10.105469 C 9.8125 9.414062 9.285156 8.941406 8.75 8.941406 Z M 8.75 8.941406 "/>
<path style=" stroke:none;fill-rule:nonzero;fill:rgb(50.588238%,83.137256%,98.039216%);fill-opacity:1;" d="M 1.027344 5.628906 C 1.0625 5.878906 1.488281 6.027344 1.988281 5.957031 C 2.445312 5.898438 2.800781 5.679688 2.828125 5.449219 C 2.84375 5.449219 2.855469 5.445312 2.867188 5.4375 C 3.101562 5.339844 3.132812 4.890625 2.9375 4.425781 C 2.746094 3.957031 2.402344 3.664062 2.167969 3.757812 C 1.9375 3.855469 1.90625 4.308594 2.097656 4.773438 C 2.140625 4.875 2.1875 4.964844 2.242188 5.046875 C 2.125 5.039062 2 5.039062 1.867188 5.058594 C 1.367188 5.125 0.992188 5.378906 1.027344 5.628906 Z M 1.027344 5.628906 "/>
<path style=" stroke:none;fill-rule:nonzero;fill:rgb(16.078432%,71.372551%,96.470588%);fill-opacity:1;" d="M 2.265625 8.582031 C 2.066406 8.734375 2.152344 9.179688 2.460938 9.578125 C 2.742188 9.945312 3.109375 10.140625 3.320312 10.054688 C 3.328125 10.0625 3.339844 10.074219 3.351562 10.082031 C 3.550781 10.234375 3.957031 10.035156 4.265625 9.632812 C 4.570312 9.234375 4.65625 8.789062 4.453125 8.636719 C 4.253906 8.484375 3.847656 8.683594 3.542969 9.082031 C 3.476562 9.167969 3.421875 9.253906 3.375 9.34375 C 3.328125 9.238281 3.261719 9.128906 3.179688 9.023438 C 2.871094 8.625 2.464844 8.425781 2.265625 8.582031 Z M 2.265625 8.582031 "/>
<path style=" stroke:none;fill-rule:nonzero;fill:rgb(30.980393%,76.47059%,96.862745%);fill-opacity:1;" d="M 8.664062 3.695312 C 8.570312 3.929688 8.867188 4.273438 9.332031 4.464844 C 9.761719 4.640625 10.175781 4.625 10.316406 4.445312 C 10.328125 4.449219 10.34375 4.453125 10.355469 4.453125 C 10.605469 4.484375 10.859375 4.109375 10.921875 3.609375 C 10.988281 3.109375 10.839844 2.679688 10.589844 2.648438 C 10.339844 2.617188 10.085938 2.992188 10.019531 3.492188 C 10.007812 3.601562 10.003906 3.703125 10.007812 3.800781 C 9.914062 3.734375 9.800781 3.671875 9.679688 3.621094 C 9.214844 3.429688 8.761719 3.464844 8.664062 3.695312 Z M 8.664062 3.695312 "/>
<path style=" stroke:none;fill-rule:nonzero;fill:rgb(16.078432%,71.372551%,96.470588%);fill-opacity:1;" d="M 17.941406 9.761719 C 17.691406 9.730469 17.441406 10.105469 17.375 10.605469 C 17.316406 11.0625 17.4375 11.460938 17.648438 11.550781 C 17.648438 11.5625 17.648438 11.578125 17.648438 11.589844 C 17.683594 11.839844 18.113281 11.988281 18.613281 11.921875 C 19.109375 11.855469 19.484375 11.597656 19.453125 11.347656 C 19.417969 11.097656 18.992188 10.953125 18.492188 11.019531 C 18.382812 11.035156 18.28125 11.054688 18.191406 11.085938 C 18.230469 10.976562 18.261719 10.855469 18.277344 10.722656 C 18.339844 10.222656 18.191406 9.792969 17.941406 9.761719 Z M 17.941406 9.761719 "/>
<path style=" stroke:none;fill-rule:nonzero;fill:rgb(50.588238%,83.137256%,98.039216%);fill-opacity:1;" d="M 18.851562 3.394531 C 18.601562 3.363281 18.347656 3.738281 18.285156 4.238281 C 18.226562 4.695312 18.34375 5.09375 18.558594 5.183594 C 18.558594 5.195312 18.558594 5.210938 18.558594 5.222656 C 18.59375 5.472656 19.023438 5.621094 19.519531 5.554688 C 20.019531 5.488281 20.394531 5.230469 20.363281 4.984375 C 20.328125 4.734375 19.898438 4.585938 19.402344 4.652344 C 19.292969 4.667969 19.191406 4.691406 19.101562 4.71875 C 19.140625 4.609375 19.167969 4.488281 19.1875 4.355469 C 19.25 3.855469 19.101562 3.429688 18.851562 3.394531 Z M 18.851562 3.394531 "/>
</g>
</svg>
