
<svg xmlns="http://www.w3.org/2000/svg" xmlns:xlink="http://www.w3.org/1999/xlink" width="22px" height="22px" viewBox="0 0 22 22" version="1.1">
<g id="surface1">
<path style=" stroke:none;fill-rule:nonzero;fill:rgb(40.000001%,73.333335%,41.568628%);fill-opacity:1;" d="M 1.820312 0.910156 L 20.007812 0.910156 C 20.511719 0.910156 20.917969 1.316406 20.917969 1.820312 L 20.917969 20.007812 C 20.917969 20.511719 20.511719 20.917969 20.007812 20.917969 L 1.820312 20.917969 C 1.316406 20.917969 0.910156 20.511719 0.910156 20.007812 L 0.910156 1.820312 C 0.910156 1.316406 1.316406 0.910156 1.820312 0.910156 Z M 1.820312 0.910156 "/>
<path style=" stroke:none;fill-rule:nonzero;fill:rgb(26.274511%,62.7451%,27.843139%);fill-opacity:1;" d="M 20.007812 3.867188 C 20.007812 3.738281 19.90625 3.636719 19.78125 3.636719 L 2.046875 3.636719 C 1.921875 3.636719 1.820312 3.738281 1.820312 3.867188 L 1.820312 4.320312 C 1.820312 4.445312 1.921875 4.546875 2.046875 4.546875 L 19.78125 4.546875 C 19.90625 4.546875 20.007812 4.445312 20.007812 4.320312 Z M 20.007812 6.59375 C 20.007812 6.46875 19.90625 6.367188 19.78125 6.367188 L 2.046875 6.367188 C 1.921875 6.367188 1.820312 6.46875 1.820312 6.59375 L 1.820312 7.046875 C 1.820312 7.175781 1.921875 7.277344 2.046875 7.277344 L 19.78125 7.277344 C 19.90625 7.277344 20.007812 7.175781 20.007812 7.046875 Z M 20.007812 9.324219 C 20.007812 9.195312 19.90625 9.09375 19.78125 9.09375 L 2.046875 9.09375 C 1.921875 9.09375 1.820312 9.195312 1.820312 9.324219 L 1.820312 9.777344 C 1.820312 9.902344 1.921875 10.003906 2.046875 10.003906 L 19.78125 10.003906 C 19.90625 10.003906 20.007812 9.902344 20.007812 9.777344 Z M 20.007812 12.050781 C 20.007812 11.925781 19.90625 11.824219 19.78125 11.824219 L 2.046875 11.824219 C 1.921875 11.824219 1.820312 11.925781 1.820312 12.050781 L 1.820312 12.503906 C 1.820312 12.632812 1.921875 12.734375 2.046875 12.734375 L 19.78125 12.734375 C 19.90625 12.734375 20.007812 12.632812 20.007812 12.503906 Z M 20.007812 14.78125 C 20.007812 14.652344 19.90625 14.550781 19.78125 14.550781 L 2.046875 14.550781 C 1.921875 14.550781 1.820312 14.652344 1.820312 14.78125 L 1.820312 15.234375 C 1.820312 15.359375 1.921875 15.460938 2.046875 15.460938 L 19.78125 15.460938 C 19.90625 15.460938 20.007812 15.359375 20.007812 15.234375 Z M 20.007812 17.507812 C 20.007812 17.382812 19.90625 17.28125 19.78125 17.28125 L 2.046875 17.28125 C 1.921875 17.28125 1.820312 17.382812 1.820312 17.507812 L 1.820312 17.960938 C 1.820312 18.089844 1.921875 18.191406 2.046875 18.191406 L 19.78125 18.191406 C 19.90625 18.191406 20.007812 18.089844 20.007812 17.960938 Z M 20.007812 17.507812 "/>
<path style=" stroke:none;fill-rule:nonzero;fill:rgb(26.274511%,62.7451%,27.843139%);fill-opacity:1;" d="M 3.867188 1.820312 C 3.738281 1.820312 3.636719 1.921875 3.636719 2.046875 L 3.636719 19.78125 C 3.636719 19.90625 3.738281 20.007812 3.867188 20.007812 L 4.320312 20.007812 C 4.445312 20.007812 4.546875 19.90625 4.546875 19.78125 L 4.546875 2.046875 C 4.546875 1.921875 4.445312 1.820312 4.320312 1.820312 Z M 6.59375 1.820312 C 6.46875 1.820312 6.367188 1.921875 6.367188 2.046875 L 6.367188 19.78125 C 6.367188 19.90625 6.46875 20.007812 6.59375 20.007812 L 7.046875 20.007812 C 7.175781 20.007812 7.277344 19.90625 7.277344 19.78125 L 7.277344 2.046875 C 7.277344 1.921875 7.175781 1.820312 7.046875 1.820312 Z M 9.324219 1.820312 C 9.195312 1.820312 9.09375 1.921875 9.09375 2.046875 L 9.09375 19.78125 C 9.09375 19.90625 9.195312 20.007812 9.324219 20.007812 L 9.777344 20.007812 C 9.902344 20.007812 10.003906 19.90625 10.003906 19.78125 L 10.003906 2.046875 C 10.003906 1.921875 9.902344 1.820312 9.777344 1.820312 Z M 12.050781 1.820312 C 11.925781 1.820312 11.824219 1.921875 11.824219 2.046875 L 11.824219 19.78125 C 11.824219 19.90625 11.925781 20.007812 12.050781 20.007812 L 12.503906 20.007812 C 12.632812 20.007812 12.734375 19.90625 12.734375 19.78125 L 12.734375 2.046875 C 12.734375 1.921875 12.632812 1.820312 12.503906 1.820312 Z M 14.78125 1.820312 C 14.652344 1.820312 14.550781 1.921875 14.550781 2.046875 L 14.550781 19.78125 C 14.550781 19.90625 14.652344 20.007812 14.78125 20.007812 L 15.234375 20.007812 C 15.359375 20.007812 15.460938 19.90625 15.460938 19.78125 L 15.460938 2.046875 C 15.460938 1.921875 15.359375 1.820312 15.234375 1.820312 Z M 17.507812 1.820312 C 17.382812 1.820312 17.28125 1.921875 17.28125 2.046875 L 17.28125 19.78125 C 17.28125 19.90625 17.382812 20.007812 17.507812 20.007812 L 17.960938 20.007812 C 18.089844 20.007812 18.191406 19.90625 18.191406 19.78125 L 18.191406 2.046875 C 18.191406 1.921875 18.089844 1.820312 17.960938 1.820312 Z M 17.507812 1.820312 "/>
<path style=" stroke:none;fill-rule:nonzero;fill:rgb(26.274511%,62.7451%,27.843139%);fill-opacity:1;" d="M 2.726562 2.273438 L 19.097656 2.273438 C 19.351562 2.273438 19.554688 2.476562 19.554688 2.726562 L 19.554688 19.101562 C 19.554688 19.351562 19.351562 19.554688 19.097656 19.554688 L 2.726562 19.554688 C 2.476562 19.554688 2.273438 19.351562 2.273438 19.101562 L 2.273438 2.726562 C 2.273438 2.476562 2.476562 2.273438 2.726562 2.273438 Z M 2.726562 2.273438 "/>
<path style=" stroke:none;fill-rule:nonzero;fill:rgb(74.117649%,74.117649%,74.117649%);fill-opacity:1;" d="M 4.773438 2.726562 C 4.648438 2.726562 4.546875 2.828125 4.546875 2.957031 L 4.546875 3.867188 C 4.546875 3.992188 4.648438 4.09375 4.773438 4.09375 C 4.902344 4.09375 5.003906 3.992188 5.003906 3.867188 L 5.003906 2.957031 C 5.003906 2.828125 4.902344 2.726562 4.773438 2.726562 Z M 6.140625 2.726562 C 6.011719 2.726562 5.910156 2.828125 5.910156 2.957031 L 5.910156 3.867188 C 5.910156 3.992188 6.011719 4.09375 6.140625 4.09375 C 6.265625 4.09375 6.367188 3.992188 6.367188 3.867188 L 6.367188 2.957031 C 6.367188 2.828125 6.265625 2.726562 6.140625 2.726562 Z M 7.503906 2.726562 C 7.378906 2.726562 7.277344 2.828125 7.277344 2.957031 L 7.277344 3.867188 C 7.277344 3.992188 7.378906 4.09375 7.503906 4.09375 C 7.628906 4.09375 7.730469 3.992188 7.730469 3.867188 L 7.730469 2.957031 C 7.730469 2.828125 7.628906 2.726562 7.503906 2.726562 Z M 8.867188 2.726562 C 8.742188 2.726562 8.640625 2.828125 8.640625 2.957031 L 8.640625 3.867188 C 8.640625 3.992188 8.742188 4.09375 8.867188 4.09375 C 8.992188 4.09375 9.09375 3.992188 9.09375 3.867188 L 9.09375 2.957031 C 9.09375 2.828125 8.992188 2.726562 8.867188 2.726562 Z M 10.230469 2.726562 C 10.105469 2.726562 10.003906 2.828125 10.003906 2.957031 L 10.003906 3.867188 C 10.003906 3.992188 10.105469 4.09375 10.230469 4.09375 C 10.359375 4.09375 10.460938 3.992188 10.460938 3.867188 L 10.460938 2.957031 C 10.460938 2.828125 10.359375 2.726562 10.230469 2.726562 Z M 11.597656 2.726562 C 11.46875 2.726562 11.367188 2.828125 11.367188 2.957031 L 11.367188 3.867188 C 11.367188 3.992188 11.46875 4.09375 11.597656 4.09375 C 11.722656 4.09375 11.824219 3.992188 11.824219 3.867188 L 11.824219 2.957031 C 11.824219 2.828125 11.722656 2.726562 11.597656 2.726562 Z M 12.960938 2.726562 C 12.835938 2.726562 12.734375 2.828125 12.734375 2.957031 L 12.734375 3.867188 C 12.734375 3.992188 12.835938 4.09375 12.960938 4.09375 C 13.085938 4.09375 13.1875 3.992188 13.1875 3.867188 L 13.1875 2.957031 C 13.1875 2.828125 13.085938 2.726562 12.960938 2.726562 Z M 14.324219 2.726562 C 14.199219 2.726562 14.097656 2.828125 14.097656 2.957031 L 14.097656 3.867188 C 14.097656 3.992188 14.199219 4.09375 14.324219 4.09375 C 14.449219 4.09375 14.550781 3.992188 14.550781 3.867188 L 14.550781 2.957031 C 14.550781 2.828125 14.449219 2.726562 14.324219 2.726562 Z M 15.6875 2.726562 C 15.5625 2.726562 15.460938 2.828125 15.460938 2.957031 L 15.460938 3.867188 C 15.460938 3.992188 15.5625 4.09375 15.6875 4.09375 C 15.816406 4.09375 15.917969 3.992188 15.917969 3.867188 L 15.917969 2.957031 C 15.917969 2.828125 15.816406 2.726562 15.6875 2.726562 Z M 17.054688 2.726562 C 16.925781 2.726562 16.824219 2.828125 16.824219 2.957031 L 16.824219 3.867188 C 16.824219 3.992188 16.925781 4.09375 17.054688 4.09375 C 17.179688 4.09375 17.28125 3.992188 17.28125 3.867188 L 17.28125 2.957031 C 17.28125 2.828125 17.179688 2.726562 17.054688 2.726562 Z M 2.957031 4.546875 C 2.828125 4.546875 2.726562 4.648438 2.726562 4.773438 C 2.726562 4.902344 2.828125 5.003906 2.957031 5.003906 L 3.867188 5.003906 C 3.992188 5.003906 4.09375 4.902344 4.09375 4.773438 C 4.09375 4.648438 3.992188 4.546875 3.867188 4.546875 Z M 17.960938 4.546875 C 17.835938 4.546875 17.734375 4.648438 17.734375 4.773438 C 17.734375 4.902344 17.835938 5.003906 17.960938 5.003906 L 18.871094 5.003906 C 19 5.003906 19.097656 4.902344 19.097656 4.773438 C 19.097656 4.648438 19 4.546875 18.871094 4.546875 Z M 2.957031 5.910156 C 2.828125 5.910156 2.726562 6.011719 2.726562 6.140625 C 2.726562 6.265625 2.828125 6.367188 2.957031 6.367188 L 3.867188 6.367188 C 3.992188 6.367188 4.09375 6.265625 4.09375 6.140625 C 4.09375 6.011719 3.992188 5.910156 3.867188 5.910156 Z M 17.960938 5.910156 C 17.835938 5.910156 17.734375 6.011719 17.734375 6.140625 C 17.734375 6.265625 17.835938 6.367188 17.960938 6.367188 L 18.871094 6.367188 C 19 6.367188 19.097656 6.265625 19.097656 6.140625 C 19.097656 6.011719 19 5.910156 18.871094 5.910156 Z M 2.957031 7.277344 C 2.828125 7.277344 2.726562 7.378906 2.726562 7.503906 C 2.726562 7.628906 2.828125 7.730469 2.957031 7.730469 L 3.867188 7.730469 C 3.992188 7.730469 4.09375 7.628906 4.09375 7.503906 C 4.09375 7.378906 3.992188 7.277344 3.867188 7.277344 Z M 17.960938 7.277344 C 17.835938 7.277344 17.734375 7.378906 17.734375 7.503906 C 17.734375 7.628906 17.835938 7.730469 17.960938 7.730469 L 18.871094 7.730469 C 19 7.730469 19.097656 7.628906 19.097656 7.503906 C 19.097656 7.378906 19 7.277344 18.871094 7.277344 Z M 2.957031 8.640625 C 2.828125 8.640625 2.726562 8.742188 2.726562 8.867188 C 2.726562 8.992188 2.828125 9.09375 2.957031 9.09375 L 3.867188 9.09375 C 3.992188 9.09375 4.09375 8.992188 4.09375 8.867188 C 4.09375 8.742188 3.992188 8.640625 3.867188 8.640625 Z M 17.960938 8.640625 C 17.835938 8.640625 17.734375 8.742188 17.734375 8.867188 C 17.734375 8.992188 17.835938 9.09375 17.960938 9.09375 L 18.871094 9.09375 C 19 9.09375 19.097656 8.992188 19.097656 8.867188 C 19.097656 8.742188 19 8.640625 18.871094 8.640625 Z M 2.957031 10.003906 C 2.828125 10.003906 2.726562 10.105469 2.726562 10.230469 C 2.726562 10.359375 2.828125 10.460938 2.957031 10.460938 L 3.867188 10.460938 C 3.992188 10.460938 4.09375 10.359375 4.09375 10.230469 C 4.09375 10.105469 3.992188 10.003906 3.867188 10.003906 Z M 17.960938 10.003906 C 17.835938 10.003906 17.734375 10.105469 17.734375 10.230469 C 17.734375 10.359375 17.835938 10.460938 17.960938 10.460938 L 18.871094 10.460938 C 19 10.460938 19.097656 10.359375 19.097656 10.230469 C 19.097656 10.105469 19 10.003906 18.871094 10.003906 Z M 2.957031 11.367188 C 2.828125 11.367188 2.726562 11.46875 2.726562 11.597656 C 2.726562 11.722656 2.828125 11.824219 2.957031 11.824219 L 3.867188 11.824219 C 3.992188 11.824219 4.09375 11.722656 4.09375 11.597656 C 4.09375 11.46875 3.992188 11.367188 3.867188 11.367188 Z M 17.960938 11.367188 C 17.835938 11.367188 17.734375 11.46875 17.734375 11.597656 C 17.734375 11.722656 17.835938 11.824219 17.960938 11.824219 L 18.871094 11.824219 C 19 11.824219 19.097656 11.722656 19.097656 11.597656 C 19.097656 11.46875 19 11.367188 18.871094 11.367188 Z M 2.957031 12.734375 C 2.828125 12.734375 2.726562 12.835938 2.726562 12.960938 C 2.726562 13.085938 2.828125 13.1875 2.957031 13.1875 L 3.867188 13.1875 C 3.992188 13.1875 4.09375 13.085938 4.09375 12.960938 C 4.09375 12.835938 3.992188 12.734375 3.867188 12.734375 Z M 17.960938 12.734375 C 17.835938 12.734375 17.734375 12.835938 17.734375 12.960938 C 17.734375 13.085938 17.835938 13.1875 17.960938 13.1875 L 18.871094 13.1875 C 19 13.1875 19.097656 13.085938 19.097656 12.960938 C 19.097656 12.835938 19 12.734375 18.871094 12.734375 Z M 2.957031 14.097656 C 2.828125 14.097656 2.726562 14.199219 2.726562 14.324219 C 2.726562 14.449219 2.828125 14.550781 2.957031 14.550781 L 3.867188 14.550781 C 3.992188 14.550781 4.09375 14.449219 4.09375 14.324219 C 4.09375 14.199219 3.992188 14.097656 3.867188 14.097656 Z M 17.960938 14.097656 C 17.835938 14.097656 17.734375 14.199219 17.734375 14.324219 C 17.734375 14.449219 17.835938 14.550781 17.960938 14.550781 L 18.871094 14.550781 C 19 14.550781 19.097656 14.449219 19.097656 14.324219 C 19.097656 14.199219 19 14.097656 18.871094 14.097656 Z M 2.957031 15.460938 C 2.828125 15.460938 2.726562 15.5625 2.726562 15.6875 C 2.726562 15.816406 2.828125 15.917969 2.957031 15.917969 L 3.867188 15.917969 C 3.992188 15.917969 4.09375 15.816406 4.09375 15.6875 C 4.09375 15.5625 3.992188 15.460938 3.867188 15.460938 Z M 17.960938 15.460938 C 17.835938 15.460938 17.734375 15.5625 17.734375 15.6875 C 17.734375 15.816406 17.835938 15.917969 17.960938 15.917969 L 18.871094 15.917969 C 19 15.917969 19.097656 15.816406 19.097656 15.6875 C 19.097656 15.5625 19 15.460938 18.871094 15.460938 Z M 2.957031 16.824219 C 2.828125 16.824219 2.726562 16.925781 2.726562 17.054688 C 2.726562 17.179688 2.828125 17.28125 2.957031 17.28125 L 3.867188 17.28125 C 3.992188 17.28125 4.09375 17.179688 4.09375 17.054688 C 4.09375 16.925781 3.992188 16.824219 3.867188 16.824219 Z M 17.960938 16.824219 C 17.835938 16.824219 17.734375 16.925781 17.734375 17.054688 C 17.734375 17.179688 17.835938 17.28125 17.960938 17.28125 L 18.871094 17.28125 C 19 17.28125 19.097656 17.179688 19.097656 17.054688 C 19.097656 16.925781 19 16.824219 18.871094 16.824219 Z M 4.773438 17.734375 C 4.648438 17.734375 4.546875 17.835938 4.546875 17.960938 L 4.546875 18.871094 C 4.546875 19 4.648438 19.097656 4.773438 19.097656 C 4.902344 19.097656 5.003906 19 5.003906 18.871094 L 5.003906 17.960938 C 5.003906 17.835938 4.902344 17.734375 4.773438 17.734375 Z M 6.140625 17.734375 C 6.011719 17.734375 5.910156 17.835938 5.910156 17.960938 L 5.910156 18.871094 C 5.910156 19 6.011719 19.097656 6.140625 19.097656 C 6.265625 19.097656 6.367188 19 6.367188 18.871094 L 6.367188 17.960938 C 6.367188 17.835938 6.265625 17.734375 6.140625 17.734375 Z M 7.503906 17.734375 C 7.378906 17.734375 7.277344 17.835938 7.277344 17.960938 L 7.277344 18.871094 C 7.277344 19 7.378906 19.097656 7.503906 19.097656 C 7.628906 19.097656 7.730469 19 7.730469 18.871094 L 7.730469 17.960938 C 7.730469 17.835938 7.628906 17.734375 7.503906 17.734375 Z M 8.867188 17.734375 C 8.742188 17.734375 8.640625 17.835938 8.640625 17.960938 L 8.640625 18.871094 C 8.640625 19 8.742188 19.097656 8.867188 19.097656 C 8.992188 19.097656 9.09375 19 9.09375 18.871094 L 9.09375 17.960938 C 9.09375 17.835938 8.992188 17.734375 8.867188 17.734375 Z M 10.230469 17.734375 C 10.105469 17.734375 10.003906 17.835938 10.003906 17.960938 L 10.003906 18.871094 C 10.003906 19 10.105469 19.097656 10.230469 19.097656 C 10.359375 19.097656 10.460938 19 10.460938 18.871094 L 10.460938 17.960938 C 10.460938 17.835938 10.359375 17.734375 10.230469 17.734375 Z M 11.597656 17.734375 C 11.46875 17.734375 11.367188 17.835938 11.367188 17.960938 L 11.367188 18.871094 C 11.367188 19 11.46875 19.097656 11.597656 19.097656 C 11.722656 19.097656 11.824219 19 11.824219 18.871094 L 11.824219 17.960938 C 11.824219 17.835938 11.722656 17.734375 11.597656 17.734375 Z M 12.960938 17.734375 C 12.835938 17.734375 12.734375 17.835938 12.734375 17.960938 L 12.734375 18.871094 C 12.734375 19 12.835938 19.097656 12.960938 19.097656 C 13.085938 19.097656 13.1875 19 13.1875 18.871094 L 13.1875 17.960938 C 13.1875 17.835938 13.085938 17.734375 12.960938 17.734375 Z M 14.324219 17.734375 C 14.199219 17.734375 14.097656 17.835938 14.097656 17.960938 L 14.097656 18.871094 C 14.097656 19 14.199219 19.097656 14.324219 19.097656 C 14.449219 19.097656 14.550781 19 14.550781 18.871094 L 14.550781 17.960938 C 14.550781 17.835938 14.449219 17.734375 14.324219 17.734375 Z M 15.6875 17.734375 C 15.5625 17.734375 15.460938 17.835938 15.460938 17.960938 L 15.460938 18.871094 C 15.460938 19 15.5625 19.097656 15.6875 19.097656 C 15.816406 19.097656 15.917969 19 15.917969 18.871094 L 15.917969 17.960938 C 15.917969 17.835938 15.816406 17.734375 15.6875 17.734375 Z M 17.054688 17.734375 C 16.925781 17.734375 16.824219 17.835938 16.824219 17.960938 L 16.824219 18.871094 C 16.824219 19 16.925781 19.097656 17.054688 19.097656 C 17.179688 19.097656 17.28125 19 17.28125 18.871094 L 17.28125 17.960938 C 17.28125 17.835938 17.179688 17.734375 17.054688 17.734375 Z M 17.054688 17.734375 "/>
<path style=" stroke:none;fill-rule:nonzero;fill:rgb(87.843138%,87.843138%,87.843138%);fill-opacity:1;" d="M 4.09375 3.183594 L 17.734375 3.183594 C 18.238281 3.183594 18.644531 3.589844 18.644531 4.09375 L 18.644531 17.734375 C 18.644531 18.238281 18.238281 18.644531 17.734375 18.644531 L 4.09375 18.644531 C 3.589844 18.644531 3.183594 18.238281 3.183594 17.734375 L 3.183594 4.09375 C 3.183594 3.589844 3.589844 3.183594 4.09375 3.183594 Z M 4.09375 3.183594 "/>
<path style=" stroke:none;fill-rule:nonzero;fill:rgb(61.960787%,61.960787%,61.960787%);fill-opacity:0.999958;" d="M 5.003906 7.503906 L 5.457031 7.503906 C 5.582031 7.503906 5.683594 7.605469 5.683594 7.730469 L 5.683594 12.734375 C 5.683594 12.859375 5.582031 12.960938 5.457031 12.960938 L 5.003906 12.960938 C 4.875 12.960938 4.773438 12.859375 4.773438 12.734375 L 4.773438 7.730469 C 4.773438 7.605469 4.875 7.503906 5.003906 7.503906 Z M 5.003906 7.503906 "/>
<path style=" stroke:none;fill-rule:nonzero;fill:rgb(61.960787%,61.960787%,61.960787%);fill-opacity:0.999958;" d="M 12.742188 8.875 C 11.863281 8.875 11.152344 9.585938 11.152344 10.46875 L 11.152344 11.378906 C 11.152344 12.257812 11.863281 12.96875 12.742188 12.96875 C 12.800781 12.96875 12.855469 12.964844 12.910156 12.960938 C 12.929688 12.964844 12.949219 12.96875 12.96875 12.96875 L 14.109375 12.96875 C 14.234375 12.96875 14.335938 12.867188 14.335938 12.742188 L 14.335938 12.285156 C 14.335938 12.183594 14.269531 12.101562 14.175781 12.070312 C 14.179688 12.066406 14.179688 12.0625 14.183594 12.058594 L 12.742188 12.058594 C 12.367188 12.058594 12.0625 11.753906 12.0625 11.378906 L 14.335938 11.378906 L 14.335938 10.46875 C 14.335938 9.585938 13.625 8.875 12.742188 8.875 Z M 12.742188 9.785156 C 13.121094 9.785156 13.425781 10.089844 13.425781 10.46875 L 12.0625 10.46875 C 12.0625 10.089844 12.367188 9.785156 12.742188 9.785156 Z M 12.742188 9.785156 "/>
<path style=" stroke:none;fill-rule:nonzero;fill:rgb(61.960787%,61.960787%,61.960787%);fill-opacity:0.999958;" d="M 15.265625 8.800781 C 15.226562 8.800781 15.191406 8.8125 15.15625 8.832031 L 14.761719 9.058594 C 14.652344 9.121094 14.617188 9.261719 14.679688 9.371094 L 15.570312 10.914062 L 14.679688 12.457031 C 14.617188 12.566406 14.652344 12.707031 14.761719 12.769531 L 15.15625 12.996094 C 15.265625 13.058594 15.40625 13.023438 15.46875 12.914062 L 16.097656 11.824219 L 16.726562 12.914062 C 16.789062 13.023438 16.929688 13.058594 17.035156 12.996094 L 17.429688 12.769531 C 17.539062 12.707031 17.578125 12.566406 17.515625 12.457031 L 16.621094 10.914062 L 17.515625 9.371094 C 17.578125 9.261719 17.539062 9.121094 17.429688 9.058594 L 17.035156 8.832031 C 16.929688 8.769531 16.789062 8.804688 16.726562 8.914062 L 16.097656 10.003906 L 15.46875 8.914062 C 15.425781 8.839844 15.34375 8.796875 15.265625 8.800781 Z M 15.265625 8.800781 "/>
<path style=" stroke:none;fill-rule:nonzero;fill:rgb(61.960787%,61.960787%,61.960787%);fill-opacity:1;" d="M 6.59375 10.460938 L 7.046875 10.460938 C 7.175781 10.460938 7.277344 10.5625 7.277344 10.6875 L 7.277344 11.140625 C 7.277344 11.265625 7.175781 11.367188 7.046875 11.367188 L 6.59375 11.367188 C 6.46875 11.367188 6.367188 11.265625 6.367188 11.140625 L 6.367188 10.6875 C 6.367188 10.5625 6.46875 10.460938 6.59375 10.460938 Z M 6.59375 10.460938 "/>
<path style=" stroke:none;fill-rule:nonzero;fill:rgb(100%,79.215688%,15.686275%);fill-opacity:1;" d="M 1.363281 20.464844 L 1.363281 18.191406 L 3.636719 20.464844 Z M 1.363281 20.464844 "/>
<path style=" stroke:none;fill-rule:nonzero;fill:rgb(61.960787%,61.960787%,61.960787%);fill-opacity:0.999958;" d="M 7.957031 7.503906 C 7.832031 7.503906 7.730469 7.605469 7.730469 7.730469 L 7.730469 12.734375 C 7.730469 12.859375 7.832031 12.960938 7.957031 12.960938 L 8.414062 12.960938 C 8.539062 12.960938 8.640625 12.859375 8.640625 12.734375 L 8.640625 9.890625 L 10.003906 12.960938 L 10.6875 12.960938 C 10.8125 12.960938 10.914062 12.859375 10.914062 12.734375 L 10.914062 7.730469 C 10.914062 7.605469 10.8125 7.503906 10.6875 7.503906 L 10.230469 7.503906 C 10.105469 7.503906 10.003906 7.605469 10.003906 7.730469 L 10.003906 10.742188 L 8.640625 7.503906 Z M 7.957031 7.503906 "/>
</g>
</svg>
