
<svg xmlns="http://www.w3.org/2000/svg" xmlns:xlink="http://www.w3.org/1999/xlink" width="22px" height="22px" viewBox="0 0 22 22" version="1.1">
<g id="surface1">
<path style=" stroke:none;fill-rule:nonzero;fill:rgb(24.705882%,31.764707%,70.980394%);fill-opacity:1;" d="M 2.273438 0.910156 L 19.554688 0.910156 C 20.308594 0.910156 20.917969 1.519531 20.917969 2.273438 L 20.917969 19.554688 C 20.917969 20.308594 20.308594 20.917969 19.554688 20.917969 L 2.273438 20.917969 C 1.519531 20.917969 0.910156 20.308594 0.910156 19.554688 L 0.910156 2.273438 C 0.910156 1.519531 1.519531 0.910156 2.273438 0.910156 Z M 2.273438 0.910156 "/>
<path style=" stroke:none;fill-rule:nonzero;fill:rgb(36.078432%,41.960785%,75.294119%);fill-opacity:1;" d="M 2.726562 1.363281 L 19.101562 1.363281 C 19.601562 1.363281 20.007812 1.769531 20.007812 2.273438 L 20.007812 17.734375 C 20.007812 18.238281 19.601562 18.644531 19.101562 18.644531 L 2.726562 18.644531 C 2.226562 18.644531 1.820312 18.238281 1.820312 17.734375 L 1.820312 2.273438 C 1.820312 1.769531 2.226562 1.363281 2.726562 1.363281 Z M 2.726562 1.363281 "/>
<path style=" stroke:none;fill-rule:nonzero;fill:rgb(93.333334%,93.333334%,93.333334%);fill-opacity:1;" d="M 17.148438 6.886719 C 17.105469 11.085938 16.953125 13.664062 16.695312 14.617188 C 16.261719 15.957031 15.375 16.628906 14.03125 16.628906 C 13.339844 16.628906 12.34375 16.480469 11.042969 16.175781 L 11.042969 14.488281 C 12.257812 14.917969 13.144531 15.136719 13.707031 15.136719 C 14.398438 15.136719 14.875 14.832031 15.136719 14.226562 C 15.4375 13.578125 15.613281 11.605469 15.65625 8.316406 L 5.132812 8.316406 L 4.679688 7.082031 C 5.804688 5.867188 6.863281 4.636719 7.859375 3.378906 L 9.160156 4.160156 C 8.769531 4.636719 7.96875 5.542969 6.757812 6.886719 Z M 17.148438 6.886719 "/>
</g>
</svg>
