
<svg xmlns="http://www.w3.org/2000/svg" xmlns:xlink="http://www.w3.org/1999/xlink" width="22px" height="22px" viewBox="0 0 22 22" version="1.1">
<g id="surface1">
<path style=" stroke:none;fill-rule:nonzero;fill:rgb(56.470591%,64.313728%,68.235296%);fill-opacity:0.995763;" d="M 14.550781 3.183594 C 17.710938 6.300781 20.335938 9.453125 18.644531 12.734375 C 18.226562 10.488281 16.664062 7.515625 14.707031 5.457031 Z M 14.550781 3.183594 "/>
<path style=" stroke:none;fill-rule:nonzero;fill:rgb(0%,73.725492%,83.137256%);fill-opacity:1;" d="M 10.914062 17.734375 C 6.128906 17.734375 2.273438 19.054688 2.273438 20.691406 C 2.273438 20.769531 2.28125 20.84375 2.296875 20.917969 L 19.53125 20.917969 C 19.546875 20.84375 19.554688 20.769531 19.554688 20.691406 C 19.554688 19.054688 15.699219 17.734375 10.914062 17.734375 Z M 10.914062 17.734375 "/>
<path style=" stroke:none;fill-rule:nonzero;fill:rgb(69.01961%,74.509805%,77.254903%);fill-opacity:0.995763;" d="M 17.230469 8.183594 C 18.890625 13.066406 17.429688 17.941406 14.550781 20.464844 C 15.066406 17.917969 14.816406 14.019531 13.839844 10.859375 Z M 17.230469 8.183594 "/>
<path style=" stroke:none;fill-rule:nonzero;fill:rgb(30.19608%,81.568629%,88.235295%);fill-opacity:1;" d="M 10.210938 14.097656 L 11.617188 14.097656 C 13.488281 14.097656 15.007812 14.804688 15.007812 15.671875 L 15.007812 18.433594 C 15.007812 19.304688 13.488281 20.007812 11.617188 20.007812 L 10.210938 20.007812 C 8.339844 20.007812 6.820312 19.304688 6.820312 18.433594 L 6.820312 15.671875 C 6.820312 14.804688 8.339844 14.097656 10.210938 14.097656 Z M 10.210938 14.097656 "/>
<path style=" stroke:none;fill-rule:nonzero;fill:rgb(56.470591%,64.313728%,68.235296%);fill-opacity:0.995763;" d="M 17.28125 7.730469 C 19.804688 11.382812 19.335938 15.882812 17.0625 18.792969 C 17.070312 16.507812 16.085938 13.296875 14.546875 10.910156 Z M 17.28125 7.730469 "/>
<path style=" stroke:none;fill-rule:nonzero;fill:rgb(69.01961%,74.509805%,77.254903%);fill-opacity:0.995763;" d="M 3.417969 8.730469 C 2.242188 13.011719 4.171875 17.105469 7.277344 19.101562 C 6.515625 16.945312 6.382812 13.59375 7.046875 10.828125 Z M 3.417969 8.730469 "/>
<path style=" stroke:none;fill-rule:nonzero;fill:rgb(81.176472%,84.705883%,86.274511%);fill-opacity:0.995763;" d="M 18.621094 8.335938 C 19.828125 12.605469 17.933594 16.710938 14.84375 18.730469 C 15.585938 16.574219 15.691406 13.21875 15.007812 10.460938 Z M 18.621094 8.335938 "/>
<path style=" stroke:none;fill-rule:nonzero;fill:rgb(81.176472%,84.705883%,86.274511%);fill-opacity:0.995763;" d="M 18.078125 5.367188 C 20.734375 8.925781 20.425781 13.4375 18.261719 16.425781 C 18.183594 14.144531 17.085938 10.972656 15.460938 8.640625 Z M 18.078125 5.367188 "/>
<path style=" stroke:none;fill-rule:nonzero;fill:rgb(56.470591%,64.313728%,68.235296%);fill-opacity:0.995763;" d="M 3.234375 7.730469 C 1.574219 12.613281 3.035156 17.484375 5.910156 20.007812 C 5.398438 17.460938 5.648438 13.566406 6.625 10.40625 Z M 3.234375 7.730469 "/>
<path style=" stroke:none;fill-rule:nonzero;fill:rgb(81.176472%,84.705883%,86.274511%);fill-opacity:0.995763;" d="M 4.3125 7.496094 C 2.066406 11.324219 2.875 15.777344 5.355469 18.507812 C 5.179688 16.230469 5.917969 12.957031 7.277344 10.460938 Z M 4.3125 7.496094 "/>
<path style=" stroke:none;fill-rule:nonzero;fill:rgb(81.176472%,84.705883%,86.274511%);fill-opacity:0.995763;" d="M 4.570312 5.460938 C 1.410156 8.582031 1.035156 13.089844 2.730469 16.371094 C 3.148438 14.128906 4.707031 11.15625 6.664062 9.09375 Z M 4.570312 5.460938 "/>
<path style=" stroke:none;fill-rule:nonzero;fill:rgb(0%,67.450982%,75.686276%);fill-opacity:1;" d="M 10.914062 16.597656 C 11.164062 16.597656 11.367188 16.800781 11.367188 17.054688 L 11.367188 19.101562 C 11.367188 19.351562 11.164062 19.554688 10.914062 19.554688 C 10.664062 19.554688 10.460938 19.351562 10.460938 19.101562 L 10.460938 17.054688 C 10.460938 16.800781 10.664062 16.597656 10.914062 16.597656 Z M 10.914062 16.597656 "/>
<path style=" stroke:none;fill-rule:nonzero;fill:rgb(100%,87.843138%,69.803923%);fill-opacity:0.995763;" d="M 10.914062 1.363281 C 14.933594 1.363281 18.191406 4.925781 18.191406 9.324219 C 18.191406 13.71875 14.933594 17.28125 10.914062 17.28125 C 6.894531 17.28125 3.636719 13.71875 3.636719 9.324219 C 3.636719 4.925781 6.894531 1.363281 10.914062 1.363281 Z M 10.914062 1.363281 "/>
<path style=" stroke:none;fill-rule:nonzero;fill:rgb(96.078432%,96.078432%,96.078432%);fill-opacity:0.995763;" d="M 15.402344 8.757812 C 14.578125 7.933594 13.355469 7.824219 12.667969 8.507812 C 11.984375 9.195312 12.09375 10.417969 12.917969 11.242188 C 13.742188 12.066406 14.964844 12.175781 15.652344 11.492188 C 16.335938 10.804688 16.226562 9.582031 15.402344 8.757812 Z M 15.402344 8.757812 "/>
<path style=" stroke:none;fill-rule:nonzero;fill:rgb(25.882354%,64.705884%,96.078432%);fill-opacity:0.995763;" d="M 14.234375 8.953125 C 13.796875 8.511719 13.085938 8.511719 12.644531 8.953125 C 12.207031 9.390625 12.207031 10.101562 12.644531 10.542969 C 13.085938 10.980469 13.796875 10.980469 14.234375 10.542969 C 14.675781 10.101562 14.675781 9.390625 14.234375 8.953125 Z M 14.234375 8.953125 "/>
<path style=" stroke:none;fill-rule:nonzero;fill:rgb(25.882354%,25.882354%,25.882354%);fill-opacity:0.995763;" d="M 13.777344 9.167969 C 13.507812 8.894531 13.066406 8.894531 12.796875 9.167969 C 12.523438 9.4375 12.523438 9.878906 12.796875 10.148438 C 13.066406 10.421875 13.507812 10.421875 13.777344 10.148438 C 14.050781 9.878906 14.050781 9.4375 13.777344 9.167969 Z M 13.777344 9.167969 "/>
<path style=" stroke:none;fill-rule:nonzero;fill:rgb(96.078432%,96.078432%,96.078432%);fill-opacity:0.995763;" d="M 6.535156 8.746094 C 7.347656 7.933594 8.554688 7.824219 9.230469 8.5 C 9.90625 9.175781 9.796875 10.382812 8.984375 11.195312 C 8.175781 12.007812 6.96875 12.117188 6.292969 11.4375 C 5.617188 10.761719 5.726562 9.558594 6.535156 8.746094 Z M 6.535156 8.746094 "/>
<path style=" stroke:none;fill-rule:nonzero;fill:rgb(25.882354%,64.705884%,96.078432%);fill-opacity:0.995763;" d="M 9.261719 8.953125 C 8.824219 8.511719 8.109375 8.511719 7.671875 8.953125 C 7.230469 9.390625 7.230469 10.101562 7.671875 10.542969 C 8.109375 10.980469 8.824219 10.980469 9.261719 10.542969 C 9.699219 10.101562 9.699219 9.390625 9.261719 8.953125 Z M 9.261719 8.953125 "/>
<path style=" stroke:none;fill-rule:nonzero;fill:rgb(25.882354%,25.882354%,25.882354%);fill-opacity:0.995763;" d="M 8.140625 9.167969 C 8.414062 8.894531 8.855469 8.894531 9.125 9.167969 C 9.398438 9.4375 9.398438 9.878906 9.125 10.148438 C 8.855469 10.421875 8.414062 10.421875 8.140625 10.148438 C 7.871094 9.878906 7.871094 9.4375 8.140625 9.167969 Z M 8.140625 9.167969 "/>
<path style=" stroke:none;fill-rule:nonzero;fill:rgb(69.01961%,74.509805%,77.254903%);fill-opacity:0.995763;" d="M 4.546875 3.636719 C 2.304688 7.46875 1.964844 11.683594 4.445312 14.414062 C 4.269531 12.140625 5.011719 8.863281 6.367188 6.367188 Z M 4.546875 3.636719 "/>
<path style=" stroke:none;fill-rule:nonzero;fill:rgb(81.176472%,84.705883%,86.274511%);fill-opacity:0.995763;" d="M 10.914062 1.363281 C 4.996094 1.363281 1.347656 5.820312 1.136719 10.230469 C 3.136719 7.898438 7.585938 5.457031 10.914062 5.457031 C 14.242188 5.457031 18.691406 7.898438 20.691406 10.230469 C 20.480469 5.820312 16.371094 1.363281 10.914062 1.363281 Z M 10.914062 1.363281 "/>
<path style=" stroke:none;fill-rule:nonzero;fill:rgb(81.176472%,84.705883%,86.274511%);fill-opacity:0.995763;" d="M 10.914062 1.265625 C 6.621094 2.386719 4.039062 6.105469 3.867188 9.792969 C 5.351562 8.058594 8.1875 6.265625 10.914062 5.457031 Z M 10.914062 1.265625 "/>
<path style=" stroke:none;fill-rule:nonzero;fill:rgb(81.176472%,84.705883%,86.274511%);fill-opacity:0.995763;" d="M 10.914062 2.207031 C 9.667969 3.753906 8.957031 5.640625 8.867188 7.515625 C 9.398438 6.898438 10.101562 6.269531 10.914062 5.679688 Z M 10.914062 2.207031 "/>
<path style=" stroke:none;fill-rule:nonzero;fill:rgb(81.176472%,84.705883%,86.274511%);fill-opacity:0.995763;" d="M 11.367188 1.984375 C 12.613281 3.53125 13.324219 5.414062 13.414062 7.292969 C 12.882812 6.671875 12.179688 6.042969 11.367188 5.457031 Z M 11.367188 1.984375 "/>
<path style=" stroke:none;fill-rule:nonzero;fill:rgb(69.01961%,74.509805%,77.254903%);fill-opacity:0.995763;" d="M 15.726562 3.648438 C 18.257812 7.296875 20.261719 10.871094 18 13.789062 C 17.996094 11.503906 17.007812 8.296875 15.460938 5.910156 Z M 15.726562 3.648438 "/>
<path style=" stroke:none;fill-rule:nonzero;fill:rgb(81.176472%,84.705883%,86.274511%);fill-opacity:0.995763;" d="M 12.988281 1.738281 L 12.410156 3.097656 C 14.605469 4.90625 16.511719 7.667969 17.199219 9.84375 C 17.503906 9.03125 17.683594 8.164062 17.734375 7.277344 C 16.980469 4.652344 15.179688 2.628906 12.988281 1.738281 Z M 12.988281 1.738281 "/>
<path style=" stroke:none;fill-rule:nonzero;fill:rgb(25.882354%,25.882354%,25.882354%);fill-opacity:1;" d="M 10.914062 12.960938 C 10.773438 12.960938 10.652344 12.914062 10.621094 12.847656 C 10.613281 12.835938 10.609375 12.820312 10.609375 12.808594 C 10.609375 12.78125 10.625 12.753906 10.652344 12.734375 C 10.703125 12.777344 10.800781 12.808594 10.914062 12.808594 C 11.027344 12.808594 11.125 12.777344 11.175781 12.734375 C 11.203125 12.753906 11.21875 12.78125 11.21875 12.808594 C 11.21875 12.820312 11.214844 12.835938 11.207031 12.847656 C 11.175781 12.914062 11.054688 12.960938 10.914062 12.960938 Z M 10.914062 12.960938 "/>
<path style=" stroke:none;fill-rule:nonzero;fill:rgb(69.01961%,74.509805%,77.254903%);fill-opacity:0.995763;" d="M 13.421875 4.09375 C 12.722656 2.71875 11.460938 1.558594 9.890625 0.796875 C 10.15625 1.367188 10.335938 2.050781 10.433594 2.789062 Z M 13.421875 4.09375 "/>
<path style=" stroke:none;fill-rule:nonzero;fill:rgb(69.01961%,74.509805%,77.254903%);fill-opacity:0.995763;" d="M 8.648438 3.296875 C 9.644531 2.125 11.140625 1.285156 12.847656 0.910156 C 12.457031 1.402344 12.121094 2.027344 11.859375 2.722656 Z M 8.648438 3.296875 "/>
<path style=" stroke:none;fill-rule:nonzero;fill:rgb(69.01961%,74.509805%,77.254903%);fill-opacity:0.995763;" d="M 7.625 3.296875 C 8.621094 2.125 10.117188 1.285156 11.824219 0.910156 C 11.433594 1.402344 11.097656 2.027344 10.835938 2.722656 Z M 7.625 3.296875 "/>
<path style=" stroke:none;fill-rule:nonzero;fill:rgb(69.01961%,74.509805%,77.254903%);fill-opacity:0.995763;" d="M 12.820312 2.730469 C 11.652344 1.726562 10.042969 1.128906 8.300781 1.023438 C 8.761719 1.449219 9.191406 2.015625 9.558594 2.660156 Z M 12.820312 2.730469 "/>
<path style=" stroke:none;fill-rule:nonzero;fill:rgb(92.54902%,25.098041%,47.843137%);fill-opacity:1;" d="M 4.457031 5.253906 C 4.566406 4.921875 4.652344 4.769531 4.394531 4.484375 C 4.199219 4.34375 3.949219 4.335938 3.507812 4.808594 C 3.242188 4.78125 3.070312 4.941406 2.863281 5.027344 C 3.152344 5.265625 3.375 5.628906 3.863281 5.5625 L 4.121094 5.820312 L 4.257812 6.300781 C 4.546875 6.402344 4.828125 6.472656 5.039062 6.128906 C 5.445312 6.105469 5.75 6.089844 5.964844 5.796875 C 5.75 5.261719 5.070312 5.425781 4.570312 5.460938 Z M 4.457031 5.253906 "/>
<path style=" stroke:none;fill-rule:nonzero;fill:rgb(96.078432%,96.078432%,96.078432%);fill-opacity:0.995763;" d="M 8.242188 9.113281 C 8.101562 8.96875 7.871094 8.96875 7.730469 9.113281 C 7.589844 9.253906 7.589844 9.480469 7.730469 9.625 C 7.871094 9.765625 8.101562 9.765625 8.242188 9.625 C 8.382812 9.480469 8.382812 9.253906 8.242188 9.113281 Z M 8.242188 9.113281 "/>
<path style=" stroke:none;fill-rule:nonzero;fill:rgb(96.078432%,96.078432%,96.078432%);fill-opacity:0.995763;" d="M 13.082031 9.082031 C 12.941406 8.941406 12.710938 8.941406 12.570312 9.082031 C 12.429688 9.222656 12.429688 9.453125 12.570312 9.59375 C 12.710938 9.734375 12.941406 9.734375 13.082031 9.59375 C 13.226562 9.453125 13.226562 9.222656 13.082031 9.082031 Z M 13.082031 9.082031 "/>
<path style=" stroke:none;fill-rule:nonzero;fill:rgb(100%,80.392158%,82.352942%);fill-opacity:1;" d="M 6.3125 13.066406 C 6.417969 12.972656 6.511719 12.871094 6.605469 12.769531 C 6.644531 12.722656 6.679688 12.679688 6.71875 12.636719 C 6.730469 12.625 6.738281 12.617188 6.726562 12.628906 C 6.730469 12.628906 6.710938 12.574219 6.707031 12.574219 C 6.703125 12.574219 6.695312 12.578125 6.6875 12.582031 C 6.671875 12.589844 6.648438 12.613281 6.636719 12.625 C 6.605469 12.65625 6.574219 12.6875 6.542969 12.722656 C 6.453125 12.824219 6.359375 12.925781 6.269531 13.027344 C 6.265625 13.03125 6.308594 13.070312 6.3125 13.066406 Z M 6.3125 13.066406 "/>
<path style=" stroke:none;fill-rule:nonzero;fill:rgb(100%,80.392158%,82.352942%);fill-opacity:1;" d="M 6.601562 13.070312 C 6.707031 12.992188 6.796875 12.902344 6.886719 12.808594 C 6.9375 12.757812 6.976562 12.699219 7.019531 12.644531 C 7.039062 12.621094 7.058594 12.597656 7.082031 12.578125 C 7.085938 12.574219 7.046875 12.527344 7.042969 12.53125 C 7.007812 12.554688 6.988281 12.574219 6.960938 12.605469 C 6.917969 12.65625 6.875 12.710938 6.828125 12.761719 C 6.742188 12.855469 6.652344 12.941406 6.558594 13.027344 C 6.558594 13.03125 6.601562 13.070312 6.601562 13.070312 Z M 6.601562 13.070312 "/>
<path style=" stroke:none;fill-rule:nonzero;fill:rgb(100%,80.392158%,82.352942%);fill-opacity:1;" d="M 6.882812 13.082031 C 7.03125 12.992188 7.164062 12.886719 7.296875 12.78125 C 7.433594 12.667969 7.558594 12.546875 7.675781 12.410156 C 7.695312 12.386719 7.710938 12.363281 7.730469 12.339844 C 7.734375 12.335938 7.671875 12.289062 7.667969 12.292969 C 7.53125 12.441406 7.390625 12.589844 7.238281 12.71875 C 7.109375 12.828125 6.976562 12.933594 6.847656 13.035156 C 6.84375 13.039062 6.882812 13.085938 6.882812 13.082031 Z M 6.882812 13.082031 "/>
<path style=" stroke:none;fill-rule:nonzero;fill:rgb(100%,80.392158%,82.352942%);fill-opacity:1;" d="M 7.417969 12.972656 C 7.644531 12.789062 7.867188 12.597656 8.089844 12.402344 C 8.28125 12.234375 8.1875 12.316406 8.363281 12.152344 C 8.367188 12.148438 8.296875 12.082031 8.289062 12.085938 C 8.109375 12.242188 8.203125 12.160156 8.011719 12.332031 C 7.792969 12.523438 7.574219 12.71875 7.371094 12.929688 C 7.367188 12.933594 7.414062 12.976562 7.417969 12.972656 Z M 7.417969 12.972656 "/>
<path style=" stroke:none;fill-rule:nonzero;fill:rgb(100%,80.392158%,82.352942%);fill-opacity:1;" d="M 8.234375 12.585938 C 8.339844 12.507812 8.429688 12.414062 8.523438 12.316406 C 8.527344 12.3125 8.460938 12.257812 8.457031 12.265625 C 8.367188 12.359375 8.277344 12.453125 8.1875 12.542969 C 8.183594 12.546875 8.230469 12.589844 8.234375 12.585938 Z M 8.234375 12.585938 "/>
<path style=" stroke:none;fill-rule:nonzero;fill:rgb(100%,80.392158%,82.352942%);fill-opacity:1;" d="M 15.636719 13.066406 C 15.53125 12.972656 15.4375 12.871094 15.34375 12.769531 C 15.308594 12.722656 15.269531 12.679688 15.230469 12.636719 C 15.21875 12.625 15.210938 12.617188 15.226562 12.628906 C 15.222656 12.628906 15.238281 12.574219 15.242188 12.574219 C 15.25 12.574219 15.253906 12.578125 15.261719 12.582031 C 15.277344 12.589844 15.300781 12.613281 15.3125 12.625 C 15.34375 12.65625 15.375 12.6875 15.40625 12.722656 C 15.5 12.824219 15.589844 12.925781 15.683594 13.027344 C 15.683594 13.03125 15.640625 13.070312 15.636719 13.066406 Z M 15.636719 13.066406 "/>
<path style=" stroke:none;fill-rule:nonzero;fill:rgb(100%,80.392158%,82.352942%);fill-opacity:1;" d="M 15.347656 13.070312 C 15.246094 12.992188 15.152344 12.902344 15.0625 12.808594 C 15.015625 12.757812 14.972656 12.699219 14.929688 12.644531 C 14.910156 12.621094 14.894531 12.597656 14.867188 12.578125 C 14.863281 12.574219 14.902344 12.527344 14.90625 12.53125 C 14.941406 12.554688 14.960938 12.574219 14.988281 12.605469 C 15.03125 12.65625 15.074219 12.710938 15.121094 12.761719 C 15.207031 12.855469 15.300781 12.941406 15.390625 13.027344 C 15.394531 13.03125 15.351562 13.070312 15.347656 13.070312 Z M 15.347656 13.070312 "/>
<path style=" stroke:none;fill-rule:nonzero;fill:rgb(100%,80.392158%,82.352942%);fill-opacity:1;" d="M 15.066406 13.082031 C 14.921875 12.992188 14.785156 12.886719 14.652344 12.78125 C 14.515625 12.667969 14.390625 12.546875 14.277344 12.410156 C 14.257812 12.386719 14.238281 12.363281 14.21875 12.339844 C 14.214844 12.335938 14.277344 12.289062 14.28125 12.292969 C 14.421875 12.441406 14.558594 12.589844 14.714844 12.71875 C 14.84375 12.828125 14.972656 12.933594 15.105469 13.035156 C 15.109375 13.039062 15.070312 13.085938 15.066406 13.082031 Z M 15.066406 13.082031 "/>
<path style=" stroke:none;fill-rule:nonzero;fill:rgb(100%,80.392158%,82.352942%);fill-opacity:1;" d="M 14.53125 12.972656 C 14.304688 12.789062 14.082031 12.597656 13.863281 12.402344 C 13.671875 12.234375 13.761719 12.316406 13.589844 12.152344 C 13.582031 12.148438 13.65625 12.082031 13.660156 12.085938 C 13.839844 12.242188 13.746094 12.160156 13.9375 12.332031 C 14.15625 12.523438 14.378906 12.71875 14.578125 12.929688 C 14.582031 12.933594 14.535156 12.976562 14.53125 12.972656 Z M 14.53125 12.972656 "/>
<path style=" stroke:none;fill-rule:nonzero;fill:rgb(100%,80.392158%,82.352942%);fill-opacity:1;" d="M 13.714844 12.585938 C 13.609375 12.507812 13.519531 12.414062 13.429688 12.316406 C 13.425781 12.3125 13.492188 12.257812 13.496094 12.265625 C 13.582031 12.359375 13.671875 12.453125 13.761719 12.542969 C 13.765625 12.546875 13.71875 12.589844 13.714844 12.585938 Z M 13.714844 12.585938 "/>
<path style="fill:none;stroke-width:1.97768;stroke-linecap:butt;stroke-linejoin:miter;stroke:rgb(63.137257%,53.333336%,49.803922%);stroke-opacity:1;stroke-miterlimit:4;" d="M 235.454545 130.181818 C 235.454545 130.181818 235.272727 124.181818 241.272727 126.090909 C 247.272727 128 251.363636 125.545455 251.363636 125.545455 " transform="matrix(0.0429688,0,0,0.0429688,0,9.238281)"/>
<path style="fill:none;stroke-width:1.97768;stroke-linecap:butt;stroke-linejoin:miter;stroke:rgb(63.137257%,53.333336%,49.803922%);stroke-opacity:1;stroke-miterlimit:4;" d="M 277.181818 130.818182 C 277.181818 130.818182 278.181818 124.909091 272 126 C 265.818182 127.090909 262.090909 124.090909 262.090909 124.090909 " transform="matrix(0.0429688,0,0,0.0429688,0,9.238281)"/>
<path style=" stroke:none;fill-rule:nonzero;fill:rgb(92.54902%,25.098041%,47.843137%);fill-opacity:1;" d="M 16.96875 5.367188 C 16.859375 5.035156 16.777344 4.882812 17.03125 4.597656 C 17.226562 4.457031 17.476562 4.449219 17.921875 4.921875 C 18.183594 4.894531 18.355469 5.054688 18.5625 5.140625 C 18.273438 5.378906 18.054688 5.742188 17.566406 5.675781 L 17.304688 5.933594 L 17.167969 6.414062 C 16.882812 6.515625 16.597656 6.589844 16.386719 6.242188 C 15.980469 6.21875 15.679688 6.203125 15.460938 5.910156 C 15.679688 5.375 16.355469 5.539062 16.855469 5.578125 Z M 16.96875 5.367188 "/>
</g>
</svg>
