
<svg xmlns="http://www.w3.org/2000/svg" xmlns:xlink="http://www.w3.org/1999/xlink" width="22px" height="22px" viewBox="0 0 22 22" version="1.1">
<g id="surface1">
<path style=" stroke:none;fill-rule:nonzero;fill:rgb(74.117649%,74.117649%,74.117649%);fill-opacity:1;" d="M 0.910156 18.191406 L 20.917969 18.191406 L 20.917969 20.917969 L 0.910156 20.917969 Z M 0.910156 18.191406 "/>
<path style=" stroke:none;fill-rule:nonzero;fill:rgb(87.843138%,87.843138%,87.843138%);fill-opacity:1;" d="M 1.820312 0.921875 L 16.371094 0.921875 C 16.875 0.921875 17.28125 1.292969 17.28125 1.746094 L 17.28125 16.015625 C 17.28125 16.472656 16.875 16.839844 16.371094 16.839844 L 1.820312 16.839844 C 1.316406 16.839844 0.910156 16.472656 0.910156 16.015625 L 0.910156 1.746094 C 0.910156 1.292969 1.316406 0.921875 1.820312 0.921875 Z M 1.820312 0.921875 "/>
<path style=" stroke:none;fill-rule:nonzero;fill:rgb(93.333334%,93.333334%,93.333334%);fill-opacity:0.986239;" d="M 1.363281 4.5625 L 1.363281 15.929688 C 1.363281 16.183594 1.566406 16.386719 1.820312 16.386719 L 16.371094 16.386719 C 16.621094 16.386719 16.824219 16.183594 16.824219 15.929688 L 16.824219 4.5625 Z M 1.363281 4.5625 "/>
<path style=" stroke:none;fill-rule:nonzero;fill:rgb(25.882354%,25.882354%,25.882354%);fill-opacity:1;" d="M 0.910156 4.332031 L 0.910156 1.820312 C 0.910156 1.316406 1.316406 0.910156 1.820312 0.910156 L 16.371094 0.910156 C 16.875 0.910156 17.28125 1.316406 17.28125 1.820312 L 17.28125 4.332031 Z M 0.910156 4.332031 "/>
<path style=" stroke:none;fill-rule:nonzero;fill:rgb(93.725491%,32.549021%,31.37255%);fill-opacity:1;" d="M 16.09375 1.660156 C 16.183594 1.746094 16.183594 1.890625 16.09375 1.980469 L 14.484375 3.585938 C 14.398438 3.675781 14.253906 3.675781 14.164062 3.585938 C 14.074219 3.5 14.074219 3.355469 14.164062 3.265625 L 15.773438 1.660156 C 15.859375 1.570312 16.003906 1.570312 16.09375 1.660156 Z M 16.09375 1.660156 "/>
<path style=" stroke:none;fill-rule:nonzero;fill:rgb(93.725491%,32.549021%,31.37255%);fill-opacity:1;" d="M 16.09375 3.585938 C 16.003906 3.675781 15.859375 3.675781 15.773438 3.585938 L 14.164062 1.980469 C 14.074219 1.890625 14.074219 1.746094 14.164062 1.660156 C 14.253906 1.570312 14.398438 1.570312 14.484375 1.660156 L 16.09375 3.265625 C 16.183594 3.355469 16.183594 3.5 16.09375 3.585938 Z M 16.09375 3.585938 "/>
<path style=" stroke:none;fill-rule:nonzero;fill:rgb(16.078432%,71.372551%,96.470588%);fill-opacity:1;" d="M 0.910156 4.316406 L 17.28125 4.316406 L 17.28125 4.5625 L 0.910156 4.5625 Z M 0.910156 4.316406 "/>
<path style=" stroke:none;fill-rule:nonzero;fill:rgb(25.882354%,25.882354%,25.882354%);fill-opacity:1;" d="M 3.835938 16.003906 L 2.90625 16.144531 L 2.90625 19.507812 L 3.835938 19.257812 L 3.835938 17.957031 L 4.765625 19.488281 L 5.695312 19.140625 L 4.535156 17.746094 L 5.695312 16.234375 L 4.792969 16.003906 L 3.835938 17.527344 Z M 1.945312 16.914062 C 1.921875 16.914062 1.898438 16.921875 1.882812 16.941406 L 1.515625 17.304688 C 1.484375 17.339844 1.492188 17.386719 1.515625 17.429688 L 1.894531 18.023438 C 1.867188 18.082031 1.84375 18.140625 1.824219 18.203125 C 1.820312 18.203125 1.820312 18.207031 1.820312 18.207031 L 1.132812 18.363281 C 1.085938 18.371094 1.046875 18.402344 1.046875 18.449219 L 1.046875 18.90625 C 1.046875 18.953125 1.085938 18.980469 1.132812 18.992188 L 1.820312 19.144531 C 1.820312 19.148438 1.824219 19.152344 1.824219 19.15625 C 1.84375 19.214844 1.867188 19.273438 1.894531 19.332031 L 1.515625 19.925781 C 1.492188 19.964844 1.484375 20.011719 1.515625 20.046875 L 1.882812 20.414062 C 1.914062 20.445312 1.96875 20.445312 2.003906 20.414062 L 2.597656 20.035156 C 2.65625 20.0625 2.714844 20.085938 2.777344 20.109375 C 2.78125 20.109375 2.785156 20.113281 2.789062 20.113281 L 2.941406 20.800781 C 2.941406 20.847656 2.980469 20.886719 3.027344 20.886719 L 3.542969 20.886719 C 3.589844 20.886719 3.617188 20.84375 3.628906 20.800781 L 3.78125 20.09375 C 3.851562 20.066406 3.917969 20.035156 3.984375 20 L 4.5625 20.410156 C 4.597656 20.445312 4.652344 20.445312 4.683594 20.410156 L 5.050781 20.046875 C 5.085938 20.011719 5.074219 19.964844 5.050781 19.925781 L 4.828125 19.589844 L 4.808594 19.597656 C 4.753906 19.617188 4.695312 19.597656 4.667969 19.550781 L 4.433594 19.167969 C 4.242188 19.632812 3.785156 19.953125 3.253906 19.953125 C 2.550781 19.953125 1.976562 19.382812 1.976562 18.675781 C 1.976562 18.136719 2.3125 17.671875 2.789062 17.484375 L 2.789062 17.230469 L 2.789062 17.238281 C 2.785156 17.242188 2.777344 17.242188 2.773438 17.246094 C 2.710938 17.265625 2.652344 17.289062 2.597656 17.316406 L 2.003906 16.941406 C 1.988281 16.921875 1.964844 16.914062 1.941406 16.914062 Z M 1.945312 16.914062 "/>
<path style=" stroke:none;fill-rule:nonzero;fill:rgb(87.843138%,87.843138%,87.843138%);fill-opacity:1;" d="M 12.734375 18.644531 L 19.554688 18.644531 L 19.554688 20.464844 L 12.734375 20.464844 Z M 12.734375 18.644531 "/>
<path style=" stroke:none;fill-rule:nonzero;fill:rgb(40.000001%,73.333335%,41.568628%);fill-opacity:1;" d="M 10.914062 10.914062 C 12.734375 11.367188 14.550781 12.734375 14.550781 15.917969 L 12.734375 15.917969 L 16.144531 19.554688 L 19.554688 15.917969 L 17.734375 15.917969 C 17.734375 12.277344 15.007812 10.914062 10.914062 10.914062 Z M 10.914062 10.914062 "/>
</g>
</svg>
