<?xml version="1.0" encoding="UTF-8"?>
<svg xmlns="http://www.w3.org/2000/svg" xmlns:xlink="http://www.w3.org/1999/xlink" width="22px" height="22px" viewBox="0 0 22 22" version="1.1">
<g id="surface1">
<path style=" stroke:none;fill-rule:nonzero;fill:rgb(84.313726%,80.000001%,78.431374%);fill-opacity:1;" d="M 1.820312 1.082031 C 1.316406 1.082031 0.910156 1.488281 0.910156 1.992188 L 0.910156 11.085938 L 10.914062 11.085938 L 10.914062 1.082031 Z M 1.820312 1.082031 "/>
<path style=" stroke:none;fill-rule:nonzero;fill:rgb(84.313726%,80.000001%,78.431374%);fill-opacity:1;" d="M 20.007812 1.082031 C 20.511719 1.082031 20.917969 1.488281 20.917969 1.992188 L 20.917969 11.085938 L 10.914062 11.085938 L 10.914062 1.082031 Z M 20.007812 1.082031 "/>
<path style=" stroke:none;fill-rule:nonzero;fill:rgb(84.313726%,80.000001%,78.431374%);fill-opacity:1;" d="M 1.820312 21.089844 C 1.316406 21.089844 0.910156 20.683594 0.910156 20.179688 L 0.910156 11.085938 L 10.914062 11.085938 L 10.914062 21.089844 Z M 1.820312 21.089844 "/>
<path style=" stroke:none;fill-rule:nonzero;fill:rgb(84.313726%,80.000001%,78.431374%);fill-opacity:1;" d="M 20.007812 21.089844 C 20.511719 21.089844 20.917969 20.683594 20.917969 20.179688 L 20.917969 11.085938 L 10.914062 11.085938 L 10.914062 21.089844 Z M 20.007812 21.089844 "/>
<path style=" stroke:none;fill-rule:nonzero;fill:rgb(47.450981%,33.333334%,28.235295%);fill-opacity:1;" d="M 0.910156 10.859375 L 20.917969 10.859375 L 20.917969 11.3125 L 0.910156 11.3125 Z M 0.910156 10.859375 "/>
<path style=" stroke:none;fill-rule:nonzero;fill:rgb(47.450981%,33.333334%,28.235295%);fill-opacity:1;" d="M 10.6875 1.082031 L 10.6875 21.089844 L 11.101562 21.089844 C 11.121094 21.089844 11.140625 12.167969 11.140625 1.082031 Z M 10.6875 1.082031 "/>
<path style=" stroke:none;fill-rule:nonzero;fill:rgb(25.882354%,25.882354%,25.882354%);fill-opacity:1;" d="M 10.914062 6.082031 C 13.675781 6.082031 15.917969 8.324219 15.917969 11.085938 C 15.917969 13.847656 13.675781 16.089844 10.914062 16.089844 C 8.152344 16.089844 5.910156 13.847656 5.910156 11.085938 C 5.910156 8.324219 8.152344 6.082031 10.914062 6.082031 Z M 10.914062 6.082031 "/>
<path style=" stroke:none;fill-rule:nonzero;fill:rgb(61.960787%,61.960787%,61.960787%);fill-opacity:1;" d="M 8.046875 8.195312 C 8.667969 7.574219 9.460938 7.359375 9.816406 7.714844 C 10.171875 8.070312 9.957031 8.859375 9.332031 9.484375 C 8.710938 10.105469 7.921875 10.320312 7.566406 9.964844 C 7.210938 9.609375 7.425781 8.816406 8.046875 8.195312 Z M 8.046875 8.195312 "/>
</g>
</svg>
