<?xml version="1.0" encoding="UTF-8"?>
<svg xmlns="http://www.w3.org/2000/svg" xmlns:xlink="http://www.w3.org/1999/xlink" width="22px" height="22px" viewBox="0 0 22 22" version="1.1">
<g id="surface1">
<path style=" stroke:none;fill-rule:nonzero;fill:rgb(93.333334%,93.333334%,93.333334%);fill-opacity:1;" d="M 1.820312 1.082031 L 20.007812 1.082031 C 20.511719 1.082031 20.917969 1.488281 20.917969 1.992188 L 20.917969 20.179688 C 20.917969 20.683594 20.511719 21.089844 20.007812 21.089844 L 1.820312 21.089844 C 1.316406 21.089844 0.910156 20.683594 0.910156 20.179688 L 0.910156 1.992188 C 0.910156 1.488281 1.316406 1.082031 1.820312 1.082031 Z M 1.820312 1.082031 "/>
<path style=" stroke:none;fill-rule:nonzero;fill:rgb(61.960787%,61.960787%,61.960787%);fill-opacity:1;" d="M 7.277344 1.082031 L 7.730469 1.082031 L 7.730469 21.089844 L 7.277344 21.089844 Z M 7.277344 1.082031 "/>
<path style=" stroke:none;fill-rule:nonzero;fill:rgb(61.960787%,61.960787%,61.960787%);fill-opacity:1;" d="M 20.917969 7.449219 L 20.917969 7.902344 L 0.910156 7.902344 L 0.910156 7.449219 Z M 20.917969 7.449219 "/>
<path style=" stroke:none;fill-rule:nonzero;fill:rgb(61.960787%,61.960787%,61.960787%);fill-opacity:1;" d="M 14.097656 1.082031 L 14.550781 1.082031 L 14.550781 21.089844 L 14.097656 21.089844 Z M 14.097656 1.082031 "/>
<path style=" stroke:none;fill-rule:nonzero;fill:rgb(61.960787%,61.960787%,61.960787%);fill-opacity:1;" d="M 20.917969 14.269531 L 20.917969 14.722656 L 0.910156 14.722656 L 0.910156 14.269531 Z M 20.917969 14.269531 "/>
<path style=" stroke:none;fill-rule:nonzero;fill:rgb(25.882354%,25.882354%,25.882354%);fill-opacity:1;" d="M 7.503906 5.628906 C 8.632812 5.628906 9.550781 6.546875 9.550781 7.675781 C 9.550781 8.804688 8.632812 9.722656 7.503906 9.722656 C 6.375 9.722656 5.457031 8.804688 5.457031 7.675781 C 5.457031 6.546875 6.375 5.628906 7.503906 5.628906 Z M 7.503906 5.628906 "/>
<path style=" stroke:none;fill-rule:nonzero;fill:rgb(25.882354%,25.882354%,25.882354%);fill-opacity:1;" d="M 14.324219 5.628906 C 15.453125 5.628906 16.371094 6.546875 16.371094 7.675781 C 16.371094 8.804688 15.453125 9.722656 14.324219 9.722656 C 13.195312 9.722656 12.277344 8.804688 12.277344 7.675781 C 12.277344 6.546875 13.195312 5.628906 14.324219 5.628906 Z M 14.324219 5.628906 "/>
<path style=" stroke:none;fill-rule:nonzero;fill:rgb(25.882354%,25.882354%,25.882354%);fill-opacity:1;" d="M 7.503906 12.449219 C 8.632812 12.449219 9.550781 13.367188 9.550781 14.496094 C 9.550781 15.625 8.632812 16.542969 7.503906 16.542969 C 6.375 16.542969 5.457031 15.625 5.457031 14.496094 C 5.457031 13.367188 6.375 12.449219 7.503906 12.449219 Z M 7.503906 12.449219 "/>
<path style=" stroke:none;fill-rule:nonzero;fill:rgb(25.882354%,25.882354%,25.882354%);fill-opacity:1;" d="M 14.324219 12.449219 C 15.453125 12.449219 16.371094 13.367188 16.371094 14.496094 C 16.371094 15.625 15.453125 16.542969 14.324219 16.542969 C 13.195312 16.542969 12.277344 15.625 12.277344 14.496094 C 12.277344 13.367188 13.195312 12.449219 14.324219 12.449219 Z M 14.324219 12.449219 "/>
</g>
</svg>
