<?xml version="1.0" encoding="UTF-8"?>
<svg xmlns="http://www.w3.org/2000/svg" xmlns:xlink="http://www.w3.org/1999/xlink" width="22px" height="22px" viewBox="0 0 22 22" version="1.1">
<g id="surface1">
<path style=" stroke:none;fill-rule:nonzero;fill:rgb(72.941178%,40.784314%,78.431374%);fill-opacity:1;" d="M 10.914062 1.082031 C 16.4375 1.082031 20.917969 5.5625 20.917969 11.085938 C 20.917969 16.609375 16.4375 21.089844 10.914062 21.089844 C 5.390625 21.089844 0.910156 16.609375 0.910156 11.085938 C 0.910156 5.5625 5.390625 1.082031 10.914062 1.082031 Z M 10.914062 1.082031 "/>
<path style=" stroke:none;fill-rule:nonzero;fill:rgb(67.058825%,27.843139%,73.725492%);fill-opacity:1;" d="M 10.914062 19.273438 C 15.308594 19.273438 18.871094 15.707031 18.871094 11.3125 C 18.871094 6.917969 15.308594 3.355469 10.914062 3.355469 C 6.519531 3.355469 2.957031 6.917969 2.957031 11.3125 C 2.957031 15.707031 6.519531 19.273438 10.914062 19.273438 Z M 10.914062 19.273438 "/>
<path style=" stroke:none;fill-rule:nonzero;fill:rgb(96.078432%,96.078432%,96.078432%);fill-opacity:1;" d="M 10.914062 4.71875 C 14.554688 4.71875 17.507812 7.671875 17.507812 11.3125 C 17.507812 14.953125 14.554688 17.90625 10.914062 17.90625 C 7.273438 17.90625 4.320312 14.953125 4.320312 11.3125 C 4.320312 7.671875 7.273438 4.71875 10.914062 4.71875 Z M 10.914062 4.71875 "/>
<path style=" stroke:none;fill-rule:nonzero;fill:rgb(67.058825%,27.843139%,73.725492%);fill-opacity:1;" d="M 9.09375 7.449219 C 8.851562 7.457031 8.65625 7.65625 8.65625 7.898438 L 8.65625 14.265625 C 8.65625 14.625 9.050781 14.839844 9.351562 14.648438 L 14.355469 11.464844 C 14.636719 11.289062 14.636719 10.878906 14.355469 10.703125 L 9.351562 7.519531 C 9.277344 7.46875 9.1875 7.445312 9.09375 7.449219 Z M 9.09375 7.449219 "/>
</g>
</svg>
