<?xml version="1.0" encoding="UTF-8"?>
<svg xmlns="http://www.w3.org/2000/svg" xmlns:xlink="http://www.w3.org/1999/xlink" width="22px" height="22px" viewBox="0 0 22 22" version="1.1">
<g id="surface1">
<path style=" stroke:none;fill-rule:nonzero;fill:rgb(93.333334%,93.333334%,93.333334%);fill-opacity:1;" d="M 6.367188 21.089844 L 19.097656 21.089844 C 19.601562 21.089844 20.007812 20.683594 20.007812 20.179688 L 20.007812 1.992188 C 20.007812 1.488281 19.601562 1.082031 19.097656 1.082031 L 6.367188 1.082031 Z M 6.367188 21.089844 "/>
<path style=" stroke:none;fill-rule:nonzero;fill:rgb(49.411765%,34.117648%,76.078433%);fill-opacity:1;" d="M 6.367188 21.089844 L 6.367188 1.082031 L 2.726562 1.082031 C 2.226562 1.082031 1.820312 1.488281 1.820312 1.992188 L 1.820312 20.179688 C 1.820312 20.683594 2.226562 21.089844 2.726562 21.089844 Z M 6.367188 21.089844 "/>
<path style=" stroke:none;fill-rule:nonzero;fill:rgb(87.843138%,87.843138%,87.843138%);fill-opacity:1;" d="M 9.265625 1.082031 L 6.453125 5.957031 L 13.871094 10.242188 L 18.15625 2.820312 L 15.144531 1.082031 Z M 19.148438 3.390625 L 14.863281 10.8125 L 20.007812 13.78125 L 20.007812 3.890625 Z M 6.367188 7.226562 L 6.367188 17.121094 L 9.015625 18.648438 L 13.300781 11.230469 Z M 14.292969 11.800781 L 10.007812 19.222656 L 13.246094 21.089844 L 18.820312 21.089844 L 20.007812 19.035156 L 20.007812 15.101562 Z M 14.292969 11.800781 "/>
<path style=" stroke:none;fill-rule:nonzero;fill:rgb(49.411765%,34.117648%,76.078433%);fill-opacity:1;" d="M 15.421875 11.085938 C 16.398438 11.085938 17.1875 11.878906 17.1875 12.855469 C 17.1875 13.832031 16.398438 14.625 15.421875 14.625 C 14.441406 14.625 13.652344 13.832031 13.652344 12.855469 C 13.652344 11.878906 14.441406 11.085938 15.421875 11.085938 Z M 15.421875 11.085938 "/>
<path style=" stroke:none;fill-rule:nonzero;fill:rgb(49.411765%,34.117648%,76.078433%);fill-opacity:1;" d="M 13.652344 14.820312 C 12.78125 14.820312 12.085938 15.523438 12.078125 16.394531 L 12.078125 19.339844 C 12.078125 19.558594 12.253906 19.734375 12.472656 19.734375 L 12.863281 19.734375 C 13.082031 19.734375 13.257812 19.558594 13.257812 19.339844 L 13.257812 16.882812 C 13.257812 16.828125 13.300781 16.785156 13.355469 16.785156 C 13.410156 16.785156 13.457031 16.828125 13.453125 16.882812 L 13.453125 19.339844 C 13.453125 19.558594 13.628906 19.734375 13.847656 19.734375 L 16.992188 19.734375 C 17.210938 19.734375 17.386719 19.558594 17.386719 19.339844 L 17.386719 16.882812 C 17.386719 16.828125 17.429688 16.785156 17.484375 16.785156 C 17.539062 16.785156 17.582031 16.828125 17.582031 16.882812 L 17.582031 19.339844 C 17.582031 19.558594 17.757812 19.734375 17.976562 19.734375 L 18.367188 19.734375 C 18.585938 19.734375 18.761719 19.558594 18.761719 19.339844 L 18.761719 16.394531 C 18.761719 15.523438 18.058594 14.820312 17.1875 14.820312 Z M 13.652344 14.820312 "/>
</g>
</svg>
