
<svg xmlns="http://www.w3.org/2000/svg" xmlns:xlink="http://www.w3.org/1999/xlink" width="22px" height="22px" viewBox="0 0 22 22" version="1.1">
<g id="surface1">
<path style=" stroke:none;fill-rule:nonzero;fill:rgb(92.54902%,25.098041%,47.843137%);fill-opacity:1;" d="M 15.917969 2.726562 C 14.804688 2.726562 13.800781 3.167969 13.0625 3.882812 C 12.527344 3.722656 11.957031 3.636719 11.367188 3.636719 C 8.546875 3.636719 6.199219 5.59375 5.605469 8.230469 C 5.40625 8.199219 5.207031 8.183594 5.003906 8.183594 C 2.734375 8.183594 0.910156 10.011719 0.910156 12.277344 C 0.910156 14.546875 2.734375 16.371094 5.003906 16.371094 C 5.050781 16.371094 5.101562 16.371094 5.148438 16.367188 C 5.851562 16.9375 6.75 17.28125 7.730469 17.28125 C 8.050781 17.28125 8.363281 17.242188 8.664062 17.175781 C 9.386719 17.808594 10.332031 18.191406 11.367188 18.191406 C 11.847656 18.191406 12.308594 18.109375 12.734375 17.957031 C 13.160156 18.109375 13.617188 18.191406 14.097656 18.191406 C 15.949219 18.191406 17.507812 16.96875 18.015625 15.289062 C 19.699219 14.78125 20.917969 13.222656 20.917969 11.367188 C 20.917969 10.214844 20.445312 9.175781 19.683594 8.433594 C 19.894531 7.9375 20.007812 7.394531 20.007812 6.820312 C 20.007812 4.554688 18.183594 2.726562 15.917969 2.726562 Z M 15.917969 2.726562 "/>
<path style=" stroke:none;fill-rule:nonzero;fill:rgb(92.54902%,25.098041%,47.843137%);fill-opacity:1;" d="M 3.636719 1.363281 C 4.644531 1.363281 5.457031 2.179688 5.457031 3.183594 C 5.457031 4.1875 4.644531 5.003906 3.636719 5.003906 C 2.632812 5.003906 1.820312 4.1875 1.820312 3.183594 C 1.820312 2.179688 2.632812 1.363281 3.636719 1.363281 Z M 3.636719 1.363281 "/>
<path style=" stroke:none;fill-rule:nonzero;fill:rgb(67.058825%,27.843139%,73.725492%);fill-opacity:1;" d="M 3.410156 16.824219 C 4.039062 16.824219 4.546875 17.335938 4.546875 17.960938 C 4.546875 18.589844 4.039062 19.097656 3.410156 19.097656 C 2.78125 19.097656 2.273438 18.589844 2.273438 17.960938 C 2.273438 17.335938 2.78125 16.824219 3.410156 16.824219 Z M 3.410156 16.824219 "/>
<path style=" stroke:none;fill-rule:nonzero;fill:rgb(67.058825%,27.843139%,73.725492%);fill-opacity:1;" d="M 6.367188 6.367188 C 6.867188 6.367188 7.277344 6.773438 7.277344 7.277344 C 7.277344 7.777344 6.867188 8.1875 6.367188 8.1875 C 5.863281 8.1875 5.457031 7.777344 5.457031 7.277344 C 5.457031 6.773438 5.863281 6.367188 6.367188 6.367188 Z M 6.367188 6.367188 "/>
<path style=" stroke:none;fill-rule:nonzero;fill:rgb(67.058825%,27.843139%,73.725492%);fill-opacity:1;" d="M 8.414062 4.09375 C 9.039062 4.09375 9.550781 4.601562 9.550781 5.230469 C 9.550781 5.859375 9.039062 6.367188 8.414062 6.367188 C 7.785156 6.367188 7.277344 5.859375 7.277344 5.230469 C 7.277344 4.601562 7.785156 4.09375 8.414062 4.09375 Z M 8.414062 4.09375 "/>
<path style=" stroke:none;fill-rule:nonzero;fill:rgb(67.058825%,27.843139%,73.725492%);fill-opacity:1;" d="M 10.6875 7.730469 C 10.148438 7.730469 9.648438 7.898438 9.238281 8.1875 C 9.191406 8.1875 9.144531 8.183594 9.09375 8.183594 C 8.234375 8.183594 7.46875 8.578125 6.972656 9.199219 C 6.78125 9.132812 6.578125 9.09375 6.367188 9.09375 C 5.359375 9.09375 4.546875 9.90625 4.546875 10.914062 C 4.546875 11.089844 4.574219 11.261719 4.621094 11.421875 C 4.050781 11.585938 3.636719 12.109375 3.636719 12.734375 C 3.636719 13.488281 4.246094 14.097656 5.003906 14.097656 C 5.054688 14.097656 5.101562 14.09375 5.152344 14.089844 C 5.472656 14.378906 5.898438 14.550781 6.367188 14.550781 C 6.679688 14.550781 6.972656 14.472656 7.226562 14.335938 C 7.5625 14.746094 8.070312 15.007812 8.640625 15.007812 C 9.105469 15.007812 9.527344 14.832031 9.851562 14.546875 C 10.285156 14.839844 10.804688 15.007812 11.367188 15.007812 C 12.878906 15.007812 14.097656 13.789062 14.097656 12.277344 C 14.097656 11.46875 13.746094 10.742188 13.1875 10.242188 C 13.1875 10.238281 13.1875 10.234375 13.1875 10.230469 C 13.1875 8.847656 12.074219 7.730469 10.6875 7.730469 Z M 10.6875 7.730469 "/>
<path style=" stroke:none;fill-rule:nonzero;fill:rgb(67.058825%,27.843139%,73.725492%);fill-opacity:1;" d="M 17.054688 9.09375 C 17.679688 9.09375 18.191406 9.605469 18.191406 10.230469 C 18.191406 10.859375 17.679688 11.367188 17.054688 11.367188 C 16.425781 11.367188 15.917969 10.859375 15.917969 10.230469 C 15.917969 9.605469 16.425781 9.09375 17.054688 9.09375 Z M 17.054688 9.09375 "/>
<path style=" stroke:none;fill-rule:nonzero;fill:rgb(67.058825%,27.843139%,73.725492%);fill-opacity:1;" d="M 13.1875 15.917969 C 13.941406 15.917969 14.550781 16.527344 14.550781 17.28125 C 14.550781 18.035156 13.941406 18.644531 13.1875 18.644531 C 12.433594 18.644531 11.824219 18.035156 11.824219 17.28125 C 11.824219 16.527344 12.433594 15.917969 13.1875 15.917969 Z M 13.1875 15.917969 "/>
<path style=" stroke:none;fill-rule:nonzero;fill:rgb(93.333334%,93.333334%,93.333334%);fill-opacity:1;" d="M 5.457031 10.914062 C 6.109375 10.738281 7.375 12.644531 8.003906 12.886719 C 8.636719 13.128906 10.851562 12.558594 11.21875 13.125 C 11.585938 13.691406 10.167969 15.484375 10.132812 16.160156 C 10.097656 16.835938 11.320312 18.761719 10.894531 19.289062 C 10.46875 19.816406 8.328125 19.015625 7.675781 19.191406 C 7.023438 19.367188 5.566406 21.128906 4.933594 20.886719 C 4.304688 20.644531 4.398438 18.359375 4.03125 17.792969 C 3.664062 17.226562 1.539062 16.386719 1.574219 15.710938 C 1.609375 15.035156 3.808594 14.421875 4.234375 13.894531 C 4.660156 13.371094 4.804688 11.089844 5.457031 10.914062 Z M 5.457031 10.914062 "/>
<path style=" stroke:none;fill-rule:nonzero;fill:rgb(16.078432%,71.372551%,96.470588%);fill-opacity:1;" d="M 5.578125 11.367188 C 6.171875 11.210938 7.324219 12.941406 7.898438 13.164062 C 8.472656 13.382812 10.488281 12.867188 10.824219 13.382812 C 11.160156 13.898438 9.867188 15.527344 9.835938 16.144531 C 9.800781 16.757812 10.917969 18.515625 10.53125 18.992188 C 10.140625 19.472656 8.191406 18.746094 7.597656 18.90625 C 7.003906 19.0625 5.679688 20.667969 5.101562 20.445312 C 4.527344 20.226562 4.617188 18.148438 4.28125 17.632812 C 3.945312 17.113281 2.011719 16.351562 2.042969 15.734375 C 2.074219 15.121094 4.078125 14.5625 4.46875 14.082031 C 4.855469 13.605469 4.984375 11.527344 5.578125 11.367188 Z M 5.578125 11.367188 "/>
<path style=" stroke:none;fill-rule:nonzero;fill:rgb(88.235295%,96.078432%,99.607843%);fill-opacity:1;" d="M 6.066406 13.1875 C 6.425781 13.089844 7.125 14.140625 7.472656 14.273438 C 7.820312 14.410156 9.042969 14.09375 9.246094 14.40625 C 9.449219 14.722656 8.664062 15.707031 8.644531 16.082031 C 8.625 16.453125 9.300781 17.515625 9.066406 17.808594 C 8.832031 18.097656 7.648438 17.65625 7.289062 17.753906 C 6.929688 17.851562 6.125 18.820312 5.777344 18.6875 C 5.429688 18.554688 5.484375 17.296875 5.28125 16.980469 C 5.078125 16.667969 3.90625 16.207031 3.925781 15.832031 C 3.945312 15.460938 5.15625 15.121094 5.390625 14.832031 C 5.628906 14.542969 5.707031 13.285156 6.066406 13.1875 Z M 6.066406 13.1875 "/>
<path style=" stroke:none;fill-rule:nonzero;fill:rgb(94.117647%,38.431373%,57.254905%);fill-opacity:1;" d="M 18.191406 0.910156 C 16.679688 0.910156 15.460938 2.125 15.460938 3.636719 C 15.460938 3.792969 15.472656 3.945312 15.5 4.09375 L 15.460938 4.09375 C 15.460938 2.832031 14.449219 1.820312 13.1875 1.820312 C 11.929688 1.820312 10.914062 2.832031 10.914062 4.09375 C 10.722656 7.109375 12.902344 9.457031 15.007812 11.824219 C 16.824219 9.324219 20.917969 8.414062 20.917969 3.636719 C 20.917969 2.125 19.703125 0.910156 18.191406 0.910156 Z M 18.191406 0.910156 "/>
<path style=" stroke:none;fill-rule:nonzero;fill:rgb(98.039216%,98.039216%,98.039216%);fill-opacity:1;" d="M 18 1.363281 C 16.613281 1.363281 15.5 2.480469 15.5 3.867188 C 15.5 4.007812 15.511719 4.148438 15.535156 4.28125 L 15.5 4.28125 C 15.5 3.128906 14.570312 2.199219 13.414062 2.199219 C 12.261719 2.199219 11.332031 3.128906 11.332031 4.28125 C 11.15625 7.046875 13.152344 9.199219 15.082031 11.367188 C 16.75 9.074219 20.5 8.242188 20.5 3.867188 C 20.5 2.480469 19.386719 1.363281 18 1.363281 Z M 18 1.363281 "/>
<path style=" stroke:none;fill-rule:nonzero;fill:rgb(94.117647%,38.431373%,57.254905%);fill-opacity:1;" d="M 17.429688 2.726562 C 16.421875 2.726562 15.609375 3.539062 15.609375 4.546875 C 15.609375 4.652344 15.621094 4.753906 15.636719 4.851562 L 15.609375 4.851562 C 15.609375 4.011719 14.933594 3.335938 14.09375 3.335938 C 13.253906 3.335938 12.578125 4.011719 12.578125 4.851562 C 12.453125 6.863281 13.90625 8.425781 15.308594 10.003906 C 16.519531 8.335938 19.25 7.730469 19.25 4.546875 C 19.25 3.539062 18.4375 2.726562 17.429688 2.726562 Z M 17.429688 2.726562 "/>
</g>
</svg>
