
<svg xmlns="http://www.w3.org/2000/svg" xmlns:xlink="http://www.w3.org/1999/xlink" width="22px" height="22px" viewBox="0 0 22 22" version="1.1">
<g id="surface1">
<path style=" stroke:none;fill-rule:nonzero;fill:rgb(61.960787%,61.960787%,61.960787%);fill-opacity:1;" d="M 9.550781 18.191406 L 12.734375 18.191406 C 12.984375 18.191406 13.1875 18.394531 13.1875 18.644531 L 13.1875 20.007812 C 13.1875 20.261719 12.984375 20.464844 12.734375 20.464844 L 9.550781 20.464844 C 9.296875 20.464844 9.09375 20.261719 9.09375 20.007812 L 9.09375 18.644531 C 9.09375 18.394531 9.296875 18.191406 9.550781 18.191406 Z M 9.550781 18.191406 "/>
<path style=" stroke:none;fill-rule:nonzero;fill:rgb(25.882354%,64.705884%,96.078432%);fill-opacity:1;" d="M 1.820312 2.273438 L 20.007812 2.273438 C 20.511719 2.273438 20.917969 2.679688 20.917969 3.183594 L 20.917969 17.734375 C 20.917969 18.238281 20.511719 18.644531 20.007812 18.644531 L 1.820312 18.644531 C 1.316406 18.644531 0.910156 18.238281 0.910156 17.734375 L 0.910156 3.183594 C 0.910156 2.679688 1.316406 2.273438 1.820312 2.273438 Z M 1.820312 2.273438 "/>
<path style=" stroke:none;fill-rule:nonzero;fill:rgb(74.117649%,74.117649%,74.117649%);fill-opacity:1;" d="M 6.820312 19.554688 L 15.007812 19.554688 C 15.257812 19.554688 15.460938 19.757812 15.460938 20.007812 C 15.460938 20.261719 15.257812 20.464844 15.007812 20.464844 L 6.820312 20.464844 C 6.570312 20.464844 6.367188 20.261719 6.367188 20.007812 C 6.367188 19.757812 6.570312 19.554688 6.820312 19.554688 Z M 6.820312 19.554688 "/>
<path style=" stroke:none;fill-rule:nonzero;fill:rgb(74.117649%,74.117649%,74.117649%);fill-opacity:1;" d="M 1.820312 2.273438 C 1.316406 2.273438 0.910156 2.679688 0.910156 3.183594 L 20.917969 3.183594 C 20.917969 2.679688 20.511719 2.273438 20.007812 2.273438 Z M 0.910156 17.734375 C 0.910156 18.238281 1.316406 18.644531 1.820312 18.644531 L 20.007812 18.644531 C 20.511719 18.644531 20.917969 18.238281 20.917969 17.734375 Z M 0.910156 17.734375 "/>
<path style=" stroke:none;fill-rule:nonzero;fill:rgb(25.882354%,25.882354%,25.882354%);fill-opacity:1;" d="M 10.929688 6.492188 C 10.25 6.488281 9.5625 6.660156 8.933594 7.027344 C 8.738281 7.136719 8.5625 7.261719 8.394531 7.398438 L 12.09375 9.449219 L 12.046875 6.65625 C 11.683594 6.550781 11.308594 6.492188 10.929688 6.492188 Z M 12.304688 6.746094 L 12.378906 10.976562 L 14.773438 9.539062 C 14.53125 8.519531 13.882812 7.597656 12.894531 7.027344 C 12.703125 6.914062 12.507812 6.824219 12.304688 6.746094 Z M 8.1875 7.578125 C 7.425781 8.296875 6.949219 9.320312 6.949219 10.460938 C 6.949219 10.679688 6.96875 10.898438 7.003906 11.109375 L 10.628906 8.933594 Z M 14.824219 9.808594 L 11.199219 11.984375 L 13.640625 13.339844 C 14.402344 12.621094 14.878906 11.597656 14.878906 10.460938 C 14.878906 10.238281 14.859375 10.019531 14.824219 9.808594 Z M 9.449219 9.941406 L 7.054688 11.378906 C 7.296875 12.398438 7.945312 13.324219 8.933594 13.890625 C 9.125 14.003906 9.320312 14.09375 9.523438 14.171875 Z M 9.734375 11.46875 L 9.78125 14.261719 C 10.785156 14.5625 11.910156 14.460938 12.894531 13.890625 C 13.089844 13.78125 13.265625 13.65625 13.433594 13.519531 Z M 9.734375 11.46875 "/>
<path style=" stroke:none;fill-rule:nonzero;fill:rgb(93.333334%,93.333334%,93.333334%);fill-opacity:1;" d="M 10.914062 9.324219 C 11.542969 9.324219 12.050781 9.832031 12.050781 10.460938 C 12.050781 11.085938 11.542969 11.597656 10.914062 11.597656 C 10.285156 11.597656 9.777344 11.085938 9.777344 10.460938 C 9.777344 9.832031 10.285156 9.324219 10.914062 9.324219 Z M 10.914062 9.324219 "/>
<path style=" stroke:none;fill-rule:nonzero;fill:rgb(93.333334%,93.333334%,93.333334%);fill-opacity:1;" d="M 10.914062 5.910156 C 8.394531 5.910156 6.367188 7.941406 6.367188 10.460938 C 6.367188 12.980469 8.394531 15.007812 10.914062 15.007812 C 13.433594 15.007812 15.460938 12.980469 15.460938 10.460938 C 15.460938 7.941406 13.433594 5.910156 10.914062 5.910156 Z M 10.914062 6.59375 C 13.054688 6.59375 14.78125 8.316406 14.78125 10.460938 C 14.78125 12.601562 13.054688 14.324219 10.914062 14.324219 C 8.773438 14.324219 7.046875 12.601562 7.046875 10.460938 C 7.046875 8.316406 8.773438 6.59375 10.914062 6.59375 Z M 10.914062 6.59375 "/>
</g>
</svg>
