
<svg xmlns="http://www.w3.org/2000/svg" xmlns:xlink="http://www.w3.org/1999/xlink" width="22px" height="22px" viewBox="0 0 22 22" version="1.1">
<g id="surface1">
<path style=" stroke:none;fill-rule:nonzero;fill:rgb(87.843138%,87.843138%,87.843138%);fill-opacity:1;" d="M 3.636719 0.910156 L 18.191406 0.910156 C 19.695312 0.910156 20.917969 2.132812 20.917969 3.636719 L 20.917969 18.191406 C 20.917969 19.695312 19.695312 20.917969 18.191406 20.917969 L 3.636719 20.917969 C 2.132812 20.917969 0.910156 19.695312 0.910156 18.191406 L 0.910156 3.636719 C 0.910156 2.132812 2.132812 0.910156 3.636719 0.910156 Z M 3.636719 0.910156 "/>
<path style=" stroke:none;fill-rule:nonzero;fill:rgb(93.333334%,93.333334%,93.333334%);fill-opacity:1;" d="M 10.914062 1.820312 C 15.9375 1.820312 20.007812 5.890625 20.007812 10.914062 C 20.007812 15.9375 15.9375 20.007812 10.914062 20.007812 C 5.890625 20.007812 1.820312 15.9375 1.820312 10.914062 C 1.820312 5.890625 5.890625 1.820312 10.914062 1.820312 Z M 10.914062 1.820312 "/>
<path style=" stroke:none;fill-rule:nonzero;fill:rgb(14.901961%,65.098041%,60.392159%);fill-opacity:1;" d="M 9.890625 3.710938 C 9.019531 4.050781 8.464844 4.464844 8.140625 4.871094 C 7.71875 5.398438 7.625 5.914062 7.746094 6.53125 C 7.992188 7.765625 9.390625 9.316406 11.261719 10.070312 C 13.675781 11.039062 15.132812 13.152344 15.132812 15.324219 C 15.136719 15.925781 15.015625 16.519531 14.78125 17.085938 C 17.433594 15.4375 18.804688 12.207031 17.953125 9.03125 C 16.984375 5.417969 13.496094 3.183594 9.890625 3.710938 Z M 5.917969 5.621094 C 4.042969 7.398438 3.179688 10.117188 3.894531 12.796875 C 4.816406 16.230469 8.019531 18.421875 11.433594 18.171875 C 12.8125 17.464844 13.316406 16.402344 13.316406 15.324219 C 13.3125 13.96875 12.390625 12.480469 10.585938 11.757812 C 8.238281 10.816406 6.382812 9 5.960938 6.882812 C 5.882812 6.472656 5.863281 6.046875 5.917969 5.621094 Z M 5.917969 5.621094 "/>
</g>
</svg>
