<?xml version="1.0" encoding="UTF-8"?>
<svg xmlns="http://www.w3.org/2000/svg" xmlns:xlink="http://www.w3.org/1999/xlink" width="22px" height="22px" viewBox="0 0 22 22" version="1.1">
<g id="surface1">
<path style=" stroke:none;fill-rule:nonzero;fill:rgb(61.960787%,61.960787%,61.960787%);fill-opacity:1;" d="M 9.550781 18.363281 L 12.734375 18.363281 C 12.984375 18.363281 13.1875 18.566406 13.1875 18.816406 L 13.1875 20.179688 C 13.1875 20.433594 12.984375 20.636719 12.734375 20.636719 L 9.550781 20.636719 C 9.296875 20.636719 9.09375 20.433594 9.09375 20.179688 L 9.09375 18.816406 C 9.09375 18.566406 9.296875 18.363281 9.550781 18.363281 Z M 9.550781 18.363281 "/>
<path style=" stroke:none;fill-rule:nonzero;fill:rgb(25.882354%,25.882354%,25.882354%);fill-opacity:1;" d="M 1.820312 2.445312 L 20.007812 2.445312 C 20.511719 2.445312 20.917969 2.851562 20.917969 3.355469 L 20.917969 17.90625 C 20.917969 18.410156 20.511719 18.816406 20.007812 18.816406 L 1.820312 18.816406 C 1.316406 18.816406 0.910156 18.410156 0.910156 17.90625 L 0.910156 3.355469 C 0.910156 2.851562 1.316406 2.445312 1.820312 2.445312 Z M 1.820312 2.445312 "/>
<path style=" stroke:none;fill-rule:nonzero;fill:rgb(74.117649%,74.117649%,74.117649%);fill-opacity:1;" d="M 6.820312 19.726562 L 15.007812 19.726562 C 15.257812 19.726562 15.460938 19.929688 15.460938 20.179688 C 15.460938 20.433594 15.257812 20.636719 15.007812 20.636719 L 6.820312 20.636719 C 6.570312 20.636719 6.367188 20.433594 6.367188 20.179688 C 6.367188 19.929688 6.570312 19.726562 6.820312 19.726562 Z M 6.820312 19.726562 "/>
<path style=" stroke:none;fill-rule:nonzero;fill:rgb(74.117649%,74.117649%,74.117649%);fill-opacity:1;" d="M 1.820312 2.445312 C 1.316406 2.445312 0.910156 2.851562 0.910156 3.355469 L 20.917969 3.355469 C 20.917969 2.851562 20.511719 2.445312 20.007812 2.445312 Z M 0.910156 17.90625 C 0.910156 18.410156 1.316406 18.816406 1.820312 18.816406 L 20.007812 18.816406 C 20.511719 18.816406 20.917969 18.410156 20.917969 17.90625 Z M 0.910156 17.90625 "/>
<path style=" stroke:none;fill-rule:nonzero;fill:rgb(100%,65.490198%,14.901961%);fill-opacity:1;" d="M 13.640625 10.632812 L 10.914062 6.539062 L 8.1875 6.539062 L 10.914062 10.632812 L 8.1875 14.722656 L 10.914062 14.722656 Z M 13.640625 10.632812 "/>
<path style=" stroke:none;fill-rule:nonzero;fill:rgb(93.725491%,32.549021%,31.37255%);fill-opacity:1;" d="M 10.914062 10.632812 L 8.183594 14.722656 L 10.914062 14.722656 L 13.640625 10.632812 Z M 10.914062 10.632812 "/>
</g>
</svg>
