
<svg xmlns="http://www.w3.org/2000/svg" xmlns:xlink="http://www.w3.org/1999/xlink" width="22px" height="22px" viewBox="0 0 22 22" version="1.1">
<g id="surface1">
<path style=" stroke:none;fill-rule:nonzero;fill:rgb(100%,43.921569%,26.274511%);fill-opacity:1;" d="M 10.914062 0.910156 C 16.4375 0.910156 20.917969 5.390625 20.917969 10.914062 C 20.917969 16.4375 16.4375 20.917969 10.914062 20.917969 C 5.390625 20.917969 0.910156 16.4375 0.910156 10.914062 C 0.910156 5.390625 5.390625 0.910156 10.914062 0.910156 Z M 10.914062 0.910156 "/>
<path style=" stroke:none;fill-rule:nonzero;fill:rgb(93.333334%,93.333334%,93.333334%);fill-opacity:1;" d="M 5.144531 2.726562 C 4.753906 3.003906 4.382812 3.308594 4.035156 3.636719 L 17.792969 3.636719 C 17.445312 3.308594 17.074219 3.003906 16.683594 2.726562 Z M 10.914062 5.457031 C 9.792969 5.457031 8.753906 5.792969 7.890625 6.367188 L 1.992188 6.367188 C 1.84375 6.660156 1.707031 6.964844 1.585938 7.277344 L 6.839844 7.277344 C 6.167969 8.027344 5.703125 8.964844 5.53125 10.003906 L 0.949219 10.003906 C 0.921875 10.304688 0.910156 10.605469 0.910156 10.914062 C 0.910156 11.222656 0.921875 11.523438 0.949219 11.824219 L 5.53125 11.824219 C 5.703125 12.863281 6.167969 13.800781 6.839844 14.550781 L 1.585938 14.550781 C 1.972656 15.550781 2.515625 16.46875 3.183594 17.28125 L 10.914062 17.28125 L 10.914062 16.371094 C 13.9375 16.371094 16.371094 13.9375 16.371094 10.914062 C 16.371094 7.890625 13.9375 5.457031 10.914062 5.457031 Z M 10.914062 5.457031 "/>
<path style=" stroke:none;fill-rule:nonzero;fill:rgb(93.333334%,93.333334%,93.333334%);fill-opacity:1;" d="M 10.914062 5.457031 C 13.929688 5.457031 16.371094 7.898438 16.371094 10.914062 C 16.371094 13.929688 13.929688 16.371094 10.914062 16.371094 C 7.898438 16.371094 5.457031 13.929688 5.457031 10.914062 C 5.457031 7.898438 7.898438 5.457031 10.914062 5.457031 Z M 10.914062 5.457031 "/>
<path style=" stroke:none;fill-rule:nonzero;fill:rgb(16.078432%,71.372551%,96.470588%);fill-opacity:1;" d="M 16.371094 2.519531 L 16.371094 10.914062 C 16.371094 10.9375 16.371094 10.960938 16.371094 10.984375 C 16.371094 11.007812 16.371094 11.03125 16.371094 11.050781 C 16.367188 11.066406 16.367188 11.082031 16.367188 11.097656 C 16.367188 11.105469 16.367188 11.113281 16.367188 11.121094 C 16.367188 11.140625 16.367188 11.15625 16.363281 11.171875 C 16.363281 11.179688 16.363281 11.183594 16.363281 11.191406 C 16.363281 11.210938 16.363281 11.226562 16.359375 11.246094 C 16.359375 11.25 16.359375 11.253906 16.359375 11.257812 C 16.359375 11.277344 16.359375 11.296875 16.355469 11.316406 C 16.355469 11.320312 16.355469 11.324219 16.355469 11.328125 C 16.355469 11.34375 16.351562 11.363281 16.351562 11.382812 C 16.351562 11.386719 16.351562 11.390625 16.351562 11.394531 C 16.347656 11.414062 16.347656 11.433594 16.34375 11.457031 C 16.34375 11.457031 16.34375 11.457031 16.34375 11.460938 L 20.320312 7.484375 C 19.574219 5.429688 18.175781 3.691406 16.371094 2.519531 Z M 20.621094 8.46875 L 15.859375 13.230469 C 15.847656 13.257812 15.835938 13.28125 15.824219 13.308594 C 15.820312 13.3125 15.816406 13.316406 15.816406 13.320312 C 15.804688 13.347656 15.789062 13.375 15.777344 13.398438 C 15.765625 13.425781 15.75 13.453125 15.738281 13.476562 C 15.734375 13.480469 15.730469 13.488281 15.730469 13.492188 C 15.71875 13.515625 15.703125 13.539062 15.691406 13.5625 C 15.691406 13.5625 15.6875 13.566406 15.6875 13.566406 C 15.671875 13.59375 15.660156 13.617188 15.644531 13.644531 C 15.644531 13.648438 15.640625 13.652344 15.640625 13.652344 C 15.625 13.675781 15.613281 13.699219 15.597656 13.722656 C 15.597656 13.726562 15.59375 13.726562 15.59375 13.730469 C 15.5625 13.78125 15.53125 13.832031 15.5 13.882812 C 15.496094 13.882812 15.496094 13.886719 15.492188 13.890625 C 15.476562 13.914062 15.460938 13.9375 15.445312 13.964844 C 15.429688 13.988281 15.410156 14.011719 15.394531 14.039062 C 15.394531 14.039062 15.390625 14.042969 15.390625 14.046875 C 15.375 14.066406 15.359375 14.089844 15.34375 14.113281 C 15.339844 14.113281 15.339844 14.117188 15.335938 14.117188 C 15.320312 14.144531 15.300781 14.167969 15.285156 14.191406 C 15.265625 14.214844 15.25 14.238281 15.230469 14.261719 C 15.226562 14.261719 15.226562 14.265625 15.222656 14.269531 C 15.1875 14.316406 15.152344 14.363281 15.113281 14.40625 C 15.109375 14.410156 15.109375 14.410156 15.109375 14.414062 C 15.089844 14.4375 15.070312 14.457031 15.050781 14.480469 C 15.03125 14.503906 15.011719 14.527344 14.988281 14.550781 C 14.96875 14.574219 14.949219 14.597656 14.929688 14.617188 C 14.929688 14.617188 14.925781 14.617188 14.925781 14.621094 C 14.886719 14.664062 14.84375 14.707031 14.800781 14.75 C 14.800781 14.753906 14.796875 14.753906 14.796875 14.753906 C 14.753906 14.800781 14.710938 14.839844 14.664062 14.882812 C 14.597656 14.949219 14.527344 15.007812 14.457031 15.070312 C 14.410156 15.109375 14.363281 15.148438 14.316406 15.1875 C 14.265625 15.226562 14.21875 15.265625 14.167969 15.300781 C 14.144531 15.320312 14.117188 15.335938 14.09375 15.355469 C 14.042969 15.390625 13.992188 15.425781 13.9375 15.460938 L 19.835938 15.460938 C 20.527344 14.097656 20.917969 12.554688 20.917969 10.914062 C 20.917969 10.070312 20.816406 9.253906 20.621094 8.46875 Z M 6.367188 13.9375 L 6.367188 19.835938 C 7.730469 20.527344 9.273438 20.917969 10.914062 20.917969 C 11.757812 20.917969 12.574219 20.816406 13.359375 20.621094 L 8.597656 15.859375 C 8.570312 15.847656 8.546875 15.835938 8.519531 15.824219 C 8.515625 15.820312 8.511719 15.816406 8.507812 15.816406 C 8.480469 15.804688 8.453125 15.789062 8.429688 15.777344 C 8.402344 15.765625 8.375 15.75 8.351562 15.738281 C 8.347656 15.734375 8.339844 15.730469 8.335938 15.730469 C 8.3125 15.71875 8.289062 15.703125 8.265625 15.691406 C 8.265625 15.691406 8.261719 15.6875 8.261719 15.6875 C 8.234375 15.671875 8.210938 15.660156 8.183594 15.644531 C 8.179688 15.644531 8.175781 15.640625 8.175781 15.640625 C 8.152344 15.625 8.128906 15.613281 8.105469 15.597656 C 8.101562 15.597656 8.101562 15.59375 8.097656 15.59375 C 8.046875 15.5625 7.996094 15.53125 7.945312 15.5 C 7.945312 15.496094 7.941406 15.496094 7.9375 15.492188 C 7.914062 15.476562 7.890625 15.460938 7.863281 15.445312 C 7.839844 15.429688 7.816406 15.410156 7.789062 15.394531 C 7.789062 15.394531 7.785156 15.390625 7.78125 15.390625 C 7.761719 15.375 7.738281 15.359375 7.714844 15.34375 C 7.714844 15.339844 7.710938 15.339844 7.710938 15.335938 C 7.683594 15.320312 7.660156 15.300781 7.636719 15.285156 C 7.613281 15.265625 7.589844 15.25 7.566406 15.230469 C 7.566406 15.226562 7.5625 15.226562 7.558594 15.222656 C 7.511719 15.1875 7.464844 15.152344 7.421875 15.113281 C 7.417969 15.109375 7.417969 15.109375 7.414062 15.109375 C 7.390625 15.089844 7.371094 15.070312 7.347656 15.050781 C 7.324219 15.03125 7.300781 15.011719 7.277344 14.988281 C 7.253906 14.96875 7.230469 14.949219 7.210938 14.929688 C 7.210938 14.925781 7.207031 14.925781 7.207031 14.925781 C 7.164062 14.886719 7.121094 14.84375 7.078125 14.800781 C 7.074219 14.800781 7.074219 14.796875 7.074219 14.796875 C 7.027344 14.753906 6.988281 14.710938 6.945312 14.664062 C 6.878906 14.597656 6.820312 14.527344 6.757812 14.457031 C 6.71875 14.410156 6.679688 14.363281 6.640625 14.316406 C 6.601562 14.265625 6.5625 14.21875 6.527344 14.167969 C 6.507812 14.144531 6.492188 14.117188 6.472656 14.09375 C 6.4375 14.042969 6.402344 13.992188 6.367188 13.9375 Z M 10.367188 16.34375 L 14.34375 20.320312 C 16.398438 19.574219 18.136719 18.175781 19.308594 16.371094 L 10.460938 16.371094 L 10.460938 16.351562 C 10.457031 16.351562 10.457031 16.351562 10.457031 16.351562 C 10.429688 16.351562 10.398438 16.347656 10.371094 16.34375 C 10.367188 16.34375 10.367188 16.34375 10.367188 16.34375 Z M 10.367188 16.34375 "/>
<path style=" stroke:none;fill-rule:nonzero;fill:rgb(93.333334%,93.333334%,93.333334%);fill-opacity:1;" d="M 15.460938 1.992188 L 15.460938 10.914062 L 16.371094 10.914062 L 16.371094 2.519531 C 16.078125 2.328125 15.773438 2.152344 15.460938 1.992188 Z M 20.320312 7.484375 L 13.808594 13.996094 L 14.453125 14.640625 L 20.621094 8.46875 C 20.535156 8.136719 20.4375 7.804688 20.320312 7.484375 Z M 5.457031 10.003906 L 5.457031 19.308594 C 5.75 19.5 6.054688 19.675781 6.367188 19.835938 L 6.367188 10.003906 Z M 7.375 13.351562 L 6.734375 13.996094 L 13.359375 20.621094 C 13.691406 20.535156 14.023438 20.4375 14.34375 20.320312 Z M 10.460938 15.460938 L 10.460938 16.371094 L 19.308594 16.371094 C 19.5 16.078125 19.675781 15.773438 19.835938 15.460938 Z M 10.460938 15.460938 "/>
<path style=" stroke:none;fill-rule:nonzero;fill:rgb(87.843138%,87.843138%,87.843138%);fill-opacity:1;" d="M 10.914062 6.367188 C 13.425781 6.367188 15.460938 8.402344 15.460938 10.914062 C 15.460938 13.425781 13.425781 15.460938 10.914062 15.460938 C 8.402344 15.460938 6.367188 13.425781 6.367188 10.914062 C 6.367188 8.402344 8.402344 6.367188 10.914062 6.367188 Z M 10.914062 6.367188 "/>
</g>
</svg>
