<?xml version="1.0" encoding="UTF-8"?>
<svg xmlns="http://www.w3.org/2000/svg" xmlns:xlink="http://www.w3.org/1999/xlink" width="22px" height="22px" viewBox="0 0 22 22" version="1.1">
<g id="surface1">
<defs>
  <style id="current-color-scheme" type="text/css">
   .ColorScheme-Text { color:#eeeeee; } .ColorScheme-Highlight { color:#424242; }
  </style>
 </defs>
<path style="fill:currentColor" class="ColorScheme-Text" d="M 10 4 L 10 5 L 9 5 L 9 6 L 10 6 L 10 7 L 11 7 L 11 6 L 12 6 L 12 8 L 4 8 L 4 18 L 18 18 L 18 8 L 13 8 L 13 6 L 14 6 L 14 7 L 15 7 L 15 6 L 16 6 L 16 5 L 15 5 L 15 4 L 14 4 L 14 5 L 13 5 L 13 4 L 12 4 L 12 5 L 11 5 L 11 4 Z M 6 10 L 16 10 L 16 16 L 6 16 Z M 7 11 L 7 14 L 9 14 L 9 11 Z M 10 11 L 10 12 L 15 12 L 15 11 Z M 10 13 L 10 14 L 15 14 L 15 13 Z M 10 13 "/>
</g>
</svg>
