<?xml version="1.0" encoding="UTF-8"?>
<svg xmlns="http://www.w3.org/2000/svg" xmlns:xlink="http://www.w3.org/1999/xlink" width="22px" height="22px" viewBox="0 0 22 22" version="1.1">
<g id="surface1">
<path style=" stroke:none;fill-rule:nonzero;fill:rgb(40.000001%,73.333335%,41.568628%);fill-opacity:1;" d="M 17.28125 6.082031 L 19.554688 6.082031 C 20.058594 6.082031 20.464844 6.492188 20.464844 6.992188 L 20.464844 20.179688 C 20.464844 20.683594 20.058594 21.089844 19.554688 21.089844 L 17.28125 21.089844 C 16.777344 21.089844 16.371094 20.683594 16.371094 20.179688 L 16.371094 6.992188 C 16.371094 6.492188 16.777344 6.082031 17.28125 6.082031 Z M 17.28125 6.082031 "/>
<path style=" stroke:none;fill-rule:nonzero;fill:rgb(93.725491%,32.549021%,31.37255%);fill-opacity:1;" d="M 12.277344 16.996094 L 14.550781 16.996094 C 15.054688 16.996094 15.460938 17.40625 15.460938 17.90625 L 15.460938 20.179688 C 15.460938 20.683594 15.054688 21.089844 14.550781 21.089844 L 12.277344 21.089844 C 11.777344 21.089844 11.367188 20.683594 11.367188 20.179688 L 11.367188 17.90625 C 11.367188 17.40625 11.777344 16.996094 12.277344 16.996094 Z M 12.277344 16.996094 "/>
<path style=" stroke:none;fill-rule:nonzero;fill:rgb(100%,65.490198%,14.901961%);fill-opacity:1;" d="M 7.277344 11.085938 L 9.550781 11.085938 C 10.050781 11.085938 10.460938 11.492188 10.460938 11.996094 L 10.460938 20.179688 C 10.460938 20.683594 10.050781 21.089844 9.550781 21.089844 L 7.277344 21.089844 C 6.773438 21.089844 6.367188 20.683594 6.367188 20.179688 L 6.367188 11.996094 C 6.367188 11.492188 6.773438 11.085938 7.277344 11.085938 Z M 7.277344 11.085938 "/>
<path style=" stroke:none;fill-rule:nonzero;fill:rgb(14.901961%,65.098041%,60.392159%);fill-opacity:1;" d="M 2.273438 1.082031 L 4.546875 1.082031 C 5.050781 1.082031 5.457031 1.488281 5.457031 1.992188 L 5.457031 20.179688 C 5.457031 20.683594 5.050781 21.089844 4.546875 21.089844 L 2.273438 21.089844 C 1.769531 21.089844 1.363281 20.683594 1.363281 20.179688 L 1.363281 1.992188 C 1.363281 1.488281 1.769531 1.082031 2.273438 1.082031 Z M 2.273438 1.082031 "/>
</g>
</svg>
