<?xml version="1.0" encoding="UTF-8"?>
<svg xmlns="http://www.w3.org/2000/svg" xmlns:xlink="http://www.w3.org/1999/xlink" width="22px" height="22px" viewBox="0 0 22 22" version="1.1">
<g id="surface1">
<path style=" stroke:none;fill-rule:nonzero;fill:rgb(93.333334%,93.333334%,93.333334%);fill-opacity:1;" d="M 14.550781 1.082031 L 3.636719 1.082031 C 3.132812 1.082031 2.726562 1.488281 2.726562 1.992188 L 2.726562 20.179688 C 2.726562 20.683594 3.132812 21.089844 3.636719 21.089844 L 18.191406 21.089844 C 18.695312 21.089844 19.097656 20.683594 19.097656 20.179688 L 19.097656 5.628906 Z M 14.550781 1.082031 "/>
<path style=" stroke:none;fill-rule:nonzero;fill:rgb(61.960787%,61.960787%,61.960787%);fill-opacity:1;" d="M 5.183594 9.179688 C 4.886719 9.347656 4.789062 9.722656 4.957031 10.019531 L 9.265625 17.480469 C 9.4375 17.777344 9.8125 17.878906 10.109375 17.707031 L 16.503906 14.015625 C 16.800781 13.84375 16.898438 13.46875 16.730469 13.171875 L 12.421875 5.710938 C 12.25 5.414062 11.875 5.3125 11.582031 5.484375 Z M 6.597656 9.78125 L 11.394531 7.011719 C 11.542969 6.925781 11.730469 6.976562 11.816406 7.125 L 12.746094 8.734375 C 12.832031 8.882812 12.78125 9.070312 12.632812 9.15625 L 7.835938 11.925781 C 7.6875 12.011719 7.5 11.960938 7.414062 11.8125 L 6.484375 10.203125 C 6.402344 10.054688 6.449219 9.867188 6.597656 9.78125 Z M 8.316406 13.0625 L 8.980469 12.679688 C 9.054688 12.636719 9.148438 12.660156 9.191406 12.734375 L 9.5 13.269531 C 9.542969 13.339844 9.515625 13.433594 9.441406 13.476562 L 8.777344 13.863281 C 8.703125 13.90625 8.609375 13.878906 8.566406 13.804688 L 8.257812 13.273438 C 8.214844 13.199219 8.242188 13.105469 8.316406 13.0625 Z M 9.78125 12.214844 L 10.449219 11.832031 C 10.519531 11.789062 10.613281 11.816406 10.65625 11.886719 L 10.964844 12.421875 C 11.007812 12.496094 10.984375 12.589844 10.910156 12.632812 L 10.242188 13.015625 C 10.167969 13.058594 10.074219 13.035156 10.03125 12.960938 L 9.726562 12.425781 C 9.683594 12.351562 9.707031 12.257812 9.78125 12.214844 Z M 11.246094 11.371094 L 11.914062 10.984375 C 11.988281 10.941406 12.082031 10.96875 12.125 11.042969 L 12.429688 11.574219 C 12.472656 11.648438 12.449219 11.742188 12.375 11.785156 L 11.707031 12.171875 C 11.632812 12.210938 11.539062 12.1875 11.5 12.113281 L 11.191406 11.582031 C 11.148438 11.507812 11.171875 11.414062 11.246094 11.371094 Z M 12.710938 10.523438 L 13.378906 10.140625 C 13.453125 10.097656 13.546875 10.121094 13.589844 10.195312 L 13.898438 10.730469 C 13.941406 10.800781 13.914062 10.894531 13.839844 10.9375 L 13.175781 11.324219 C 13.101562 11.367188 13.007812 11.339844 12.964844 11.265625 L 12.65625 10.734375 C 12.613281 10.660156 12.640625 10.566406 12.710938 10.523438 Z M 9.007812 14.261719 L 9.675781 13.878906 C 9.746094 13.835938 9.839844 13.859375 9.882812 13.933594 L 10.191406 14.46875 C 10.234375 14.539062 10.210938 14.632812 10.136719 14.675781 L 9.46875 15.0625 C 9.394531 15.105469 9.300781 15.078125 9.257812 15.003906 L 8.953125 14.472656 C 8.910156 14.398438 8.933594 14.304688 9.007812 14.261719 Z M 10.472656 13.417969 L 11.140625 13.03125 C 11.214844 12.988281 11.308594 13.015625 11.351562 13.085938 L 11.65625 13.621094 C 11.699219 13.695312 11.675781 13.789062 11.601562 13.832031 L 10.933594 14.214844 C 10.859375 14.257812 10.765625 14.234375 10.726562 14.160156 L 10.417969 13.625 C 10.375 13.550781 10.398438 13.457031 10.472656 13.417969 Z M 11.9375 12.570312 L 12.605469 12.183594 C 12.679688 12.140625 12.773438 12.167969 12.816406 12.242188 L 13.125 12.773438 C 13.167969 12.847656 13.140625 12.941406 13.066406 12.984375 L 12.402344 13.371094 C 12.328125 13.410156 12.234375 13.386719 12.191406 13.3125 L 11.882812 12.78125 C 11.839844 12.707031 11.867188 12.613281 11.9375 12.570312 Z M 13.40625 11.722656 L 14.070312 11.339844 C 14.144531 11.296875 14.238281 11.320312 14.28125 11.394531 L 14.589844 11.929688 C 14.632812 12 14.605469 12.09375 14.535156 12.136719 L 13.867188 12.523438 C 13.792969 12.566406 13.699219 12.539062 13.65625 12.464844 L 13.347656 11.933594 C 13.304688 11.859375 13.332031 11.765625 13.40625 11.722656 Z M 9.699219 15.460938 L 10.367188 15.078125 C 10.441406 15.035156 10.535156 15.058594 10.578125 15.132812 L 10.882812 15.667969 C 10.925781 15.742188 10.902344 15.835938 10.828125 15.875 L 10.160156 16.261719 C 10.085938 16.304688 9.992188 16.277344 9.953125 16.207031 L 9.644531 15.671875 C 9.601562 15.597656 9.625 15.503906 9.699219 15.460938 Z M 11.164062 14.617188 L 11.832031 14.230469 C 11.90625 14.1875 12 14.214844 12.042969 14.285156 L 12.351562 14.820312 C 12.394531 14.894531 12.367188 14.988281 12.292969 15.03125 L 11.628906 15.414062 C 11.554688 15.457031 11.460938 15.433594 11.417969 15.359375 L 11.109375 14.824219 C 11.066406 14.75 11.09375 14.65625 11.164062 14.617188 Z M 12.632812 13.769531 L 13.296875 13.382812 C 13.371094 13.34375 13.464844 13.367188 13.507812 13.441406 L 13.816406 13.972656 C 13.859375 14.046875 13.832031 14.140625 13.761719 14.183594 L 13.09375 14.570312 C 13.019531 14.613281 12.925781 14.585938 12.882812 14.511719 L 12.574219 13.980469 C 12.53125 13.90625 12.558594 13.8125 12.632812 13.769531 Z M 14.097656 12.921875 L 14.765625 12.539062 C 14.839844 12.496094 14.933594 12.519531 14.972656 12.59375 L 15.28125 13.128906 C 15.324219 13.203125 15.300781 13.296875 15.226562 13.335938 L 14.558594 13.722656 C 14.484375 13.765625 14.390625 13.738281 14.347656 13.667969 L 14.042969 13.132812 C 14 13.058594 14.023438 12.964844 14.097656 12.921875 Z M 14.097656 12.921875 "/>
<path style=" stroke:none;fill-rule:nonzero;fill:rgb(40.000001%,73.333335%,41.568628%);fill-opacity:1;" d="M 19.097656 5.628906 L 14.550781 1.082031 L 14.550781 4.71875 C 14.550781 5.222656 14.957031 5.628906 15.460938 5.628906 Z M 19.097656 5.628906 "/>
<path style=" stroke:none;fill-rule:nonzero;fill:rgb(40.000001%,73.333335%,41.568628%);fill-opacity:1;" d="M 2.726562 11.539062 L 19.101562 11.539062 L 19.101562 16.996094 L 2.726562 16.996094 Z M 2.726562 11.539062 "/>
</g>
</svg>
