<?xml version="1.0" encoding="UTF-8"?>
<svg xmlns="http://www.w3.org/2000/svg" xmlns:xlink="http://www.w3.org/1999/xlink" width="24px" height="24px" viewBox="0 0 24 24" version="1.1">
<g id="surface1">
<path style=" stroke:none;fill-rule:nonzero;fill:rgb(67.058825%,27.843139%,73.725492%);fill-opacity:1;" d="M 15.875 1.179688 L 3.96875 1.179688 C 3.417969 1.179688 2.976562 1.621094 2.976562 2.171875 L 2.976562 22.015625 C 2.976562 22.566406 3.417969 23.007812 3.96875 23.007812 L 19.84375 23.007812 C 20.394531 23.007812 20.835938 22.566406 20.835938 22.015625 L 20.835938 6.140625 Z M 15.875 1.179688 "/>
<path style=" stroke:none;fill-rule:nonzero;fill:rgb(55.686277%,14.117648%,66.666669%);fill-opacity:1;" d="M 20.835938 6.140625 L 15.875 1.179688 L 15.875 5.148438 C 15.875 5.699219 16.316406 6.140625 16.867188 6.140625 Z M 20.835938 6.140625 "/>
<path style=" stroke:none;fill-rule:nonzero;fill:rgb(96.078432%,96.078432%,96.078432%);fill-opacity:1;" d="M 9.921875 8.621094 L 10.417969 8.621094 C 10.554688 8.621094 10.667969 8.730469 10.667969 8.871094 L 10.667969 16.308594 C 10.667969 16.449219 10.554688 16.558594 10.417969 16.558594 L 9.921875 16.558594 C 9.785156 16.558594 9.671875 16.449219 9.671875 16.308594 L 9.671875 8.871094 C 9.671875 8.730469 9.785156 8.621094 9.921875 8.621094 Z M 9.921875 8.621094 "/>
<path style=" stroke:none;fill-rule:nonzero;fill:rgb(96.078432%,96.078432%,96.078432%);fill-opacity:1;" d="M 9.671875 16.0625 L 10.664062 16.0625 L 10.664062 14.328125 C 10.664062 13.640625 11.21875 13.085938 11.90625 13.085938 C 12.59375 13.085938 13.144531 13.640625 13.144531 14.328125 L 13.144531 16.0625 L 14.136719 16.0625 L 14.136719 14.328125 C 14.136719 13.089844 13.144531 12.09375 11.90625 12.09375 C 10.667969 12.09375 9.671875 13.089844 9.671875 14.328125 Z M 9.671875 16.0625 "/>
<path style=" stroke:none;fill-rule:nonzero;fill:rgb(96.078432%,96.078432%,96.078432%);fill-opacity:1;" d="M 13.394531 15.070312 L 13.890625 15.070312 C 14.027344 15.070312 14.140625 15.179688 14.140625 15.320312 L 14.140625 16.3125 C 14.140625 16.449219 14.027344 16.558594 13.890625 16.558594 L 13.394531 16.558594 C 13.257812 16.558594 13.144531 16.449219 13.144531 16.3125 L 13.144531 15.320312 C 13.144531 15.179688 13.257812 15.070312 13.394531 15.070312 Z M 13.394531 15.070312 "/>
</g>
</svg>
