<?xml version="1.0" encoding="UTF-8"?>
<svg xmlns="http://www.w3.org/2000/svg" xmlns:xlink="http://www.w3.org/1999/xlink" width="24px" height="24px" viewBox="0 0 24 24" version="1.1">
<g id="surface1">
<path style=" stroke:none;fill-rule:nonzero;fill:rgb(67.058825%,27.843139%,73.725492%);fill-opacity:1;" d="M 15.875 1.179688 L 3.96875 1.179688 C 3.417969 1.179688 2.976562 1.621094 2.976562 2.171875 L 2.976562 22.015625 C 2.976562 22.566406 3.417969 23.007812 3.96875 23.007812 L 19.84375 23.007812 C 20.394531 23.007812 20.835938 22.566406 20.835938 22.015625 L 20.835938 6.140625 Z M 15.875 1.179688 "/>
<path style=" stroke:none;fill-rule:nonzero;fill:rgb(55.686277%,14.117648%,66.666669%);fill-opacity:1;" d="M 20.835938 6.140625 L 15.875 1.179688 L 15.875 5.148438 C 15.875 5.699219 16.316406 6.140625 16.867188 6.140625 Z M 20.835938 6.140625 "/>
<path style=" stroke:none;fill-rule:nonzero;fill:rgb(96.078432%,96.078432%,96.078432%);fill-opacity:1;" d="M 11.90625 11.597656 C 12.523438 11.597656 13.023438 12.097656 13.023438 12.714844 C 13.023438 13.332031 12.523438 13.832031 11.90625 13.832031 C 11.289062 13.832031 10.789062 13.332031 10.789062 12.714844 C 10.789062 12.097656 11.289062 11.597656 11.90625 11.597656 Z M 11.90625 11.597656 "/>
<path style=" stroke:none;fill-rule:nonzero;fill:rgb(96.078432%,96.078432%,96.078432%);fill-opacity:1;" d="M 11.160156 14.324219 C 10.613281 14.324219 10.167969 14.769531 10.167969 15.316406 L 10.167969 16.558594 L 13.640625 16.558594 L 13.640625 15.316406 C 13.640625 14.769531 13.199219 14.324219 12.648438 14.324219 Z M 11.160156 14.324219 "/>
<path style=" stroke:none;fill-rule:nonzero;fill:rgb(96.078432%,96.078432%,96.078432%);fill-opacity:1;" d="M 11.90625 8.621094 C 9.707031 8.621094 7.9375 10.390625 7.9375 12.589844 C 7.9375 13.847656 8.515625 14.964844 9.425781 15.691406 L 9.425781 14.820312 C 9.425781 14.769531 9.429688 14.71875 9.433594 14.667969 C 8.964844 14.105469 8.679688 13.382812 8.679688 12.589844 C 8.679688 10.804688 10.121094 9.363281 11.90625 9.363281 C 13.691406 9.363281 15.128906 10.804688 15.128906 12.589844 C 15.128906 13.382812 14.847656 14.105469 14.378906 14.667969 C 14.382812 14.71875 14.386719 14.769531 14.386719 14.820312 L 14.386719 15.691406 C 15.296875 14.964844 15.875 13.847656 15.875 12.589844 C 15.875 10.390625 14.105469 8.621094 11.90625 8.621094 Z M 11.90625 8.621094 "/>
<path style=" stroke:none;fill-rule:nonzero;fill:rgb(96.078432%,96.078432%,96.078432%);fill-opacity:1;" d="M 11.90625 10.109375 C 10.53125 10.109375 9.425781 11.214844 9.425781 12.589844 C 9.425781 13.082031 9.566406 13.539062 9.8125 13.921875 C 9.992188 13.75 10.226562 13.632812 10.488281 13.59375 C 10.289062 13.3125 10.167969 12.964844 10.167969 12.589844 C 10.167969 11.628906 10.945312 10.855469 11.90625 10.855469 C 12.867188 10.855469 13.640625 11.628906 13.640625 12.589844 C 13.640625 12.964844 13.523438 13.3125 13.324219 13.59375 C 13.585938 13.632812 13.820312 13.75 14 13.921875 C 14.246094 13.539062 14.386719 13.082031 14.386719 12.589844 C 14.386719 11.214844 13.28125 10.109375 11.90625 10.109375 Z M 11.90625 10.109375 "/>
</g>
</svg>
