
<svg xmlns="http://www.w3.org/2000/svg" xmlns:xlink="http://www.w3.org/1999/xlink" width="64px" height="64px" viewBox="0 0 64 64" version="1.1">
<g id="surface1">
<path style=" stroke:none;fill-rule:nonzero;fill:rgb(45.490196%,59.215689%,31.764707%);fill-opacity:1;" d="M 9.261719 7.113281 L 58.203125 7.113281 C 59.671875 7.113281 60.851562 8.296875 60.851562 9.761719 L 60.851562 25.636719 C 60.851562 27.101562 59.671875 28.285156 58.203125 28.285156 L 9.261719 28.285156 C 7.796875 28.285156 6.613281 27.101562 6.613281 25.636719 L 6.613281 9.761719 C 6.613281 8.296875 7.796875 7.113281 9.261719 7.113281 Z M 9.261719 7.113281 "/>
<path style=" stroke:none;fill-rule:nonzero;fill:rgb(96.078432%,96.078432%,96.078432%);fill-opacity:1;" d="M 31.75 15.058594 L 58.203125 15.058594 C 58.941406 15.058594 59.535156 15.648438 59.535156 16.375 L 59.535156 25.636719 C 59.535156 26.363281 58.941406 26.953125 58.203125 26.953125 L 31.75 26.953125 C 31.023438 26.953125 30.433594 26.363281 30.433594 25.636719 L 30.433594 16.375 C 30.433594 15.648438 31.023438 15.058594 31.75 15.058594 Z M 31.75 15.058594 "/>
<path style=" stroke:none;fill-rule:nonzero;fill:rgb(57.254905%,70.19608%,44.705883%);fill-opacity:1;" d="M 5.296875 12.410156 C 3.828125 12.410156 2.648438 13.589844 2.648438 15.058594 L 2.648438 54.738281 C 2.648438 56.203125 3.828125 57.386719 5.296875 57.386719 L 58.203125 57.386719 C 59.671875 57.386719 60.851562 56.203125 60.851562 54.738281 L 60.851562 22.988281 C 60.851562 21.523438 59.671875 20.339844 58.203125 20.339844 L 41.011719 20.339844 C 39.546875 20.339844 38.363281 19.160156 38.363281 17.691406 L 38.363281 15.058594 C 38.363281 13.589844 37.183594 12.410156 35.714844 12.410156 Z M 5.296875 12.410156 "/>
<path style=" stroke:none;fill-rule:nonzero;fill:rgb(100%,100%,100%);fill-opacity:0.352941;" d="M 22.464844 25.636719 C 21.726562 25.636719 21.136719 26.226562 21.136719 26.953125 L 21.136719 45.476562 C 21.136719 46.214844 21.726562 46.808594 22.464844 46.808594 L 40.976562 46.808594 C 41.714844 46.808594 42.308594 46.214844 42.308594 45.476562 L 42.308594 26.953125 C 42.308594 26.226562 41.714844 25.636719 40.976562 25.636719 Z M 24.441406 28.285156 L 39 28.285156 C 39.363281 28.285156 39.660156 28.578125 39.660156 28.941406 L 39.660156 42.828125 L 36.351562 39.523438 L 33.046875 42.828125 L 28.421875 37.546875 C 28.421875 37.546875 24.453125 42.078125 23.863281 43.796875 C 23.808594 43.703125 23.785156 43.601562 23.785156 43.5 L 23.785156 28.941406 C 23.785156 28.578125 24.078125 28.285156 24.441406 28.285156 Z M 35.058594 30.261719 C 33.953125 30.261719 33.066406 31.148438 33.066406 32.25 C 33.066406 33.351562 33.953125 34.238281 35.058594 34.238281 C 36.160156 34.238281 37.046875 33.351562 37.046875 32.25 C 37.046875 31.148438 36.160156 30.261719 35.058594 30.261719 Z M 35.058594 30.261719 "/>
</g>
</svg>
