<?xml version="1.0" encoding="UTF-8"?>
<svg xmlns="http://www.w3.org/2000/svg" xmlns:xlink="http://www.w3.org/1999/xlink" width="22px" height="22px" viewBox="0 0 22 22" version="1.1">
<g id="surface1">
<path style=" stroke:none;fill-rule:nonzero;fill:rgb(14.901961%,77.64706%,85.490197%);fill-opacity:1;" d="M 14.550781 1.082031 L 3.636719 1.082031 C 3.132812 1.082031 2.726562 1.488281 2.726562 1.992188 L 2.726562 20.179688 C 2.726562 20.683594 3.132812 21.089844 3.636719 21.089844 L 18.191406 21.089844 C 18.695312 21.089844 19.097656 20.683594 19.097656 20.179688 L 19.097656 5.628906 Z M 14.550781 1.082031 "/>
<path style=" stroke:none;fill-rule:nonzero;fill:rgb(0%,67.450982%,75.686276%);fill-opacity:1;" d="M 19.097656 5.628906 L 14.550781 1.082031 L 14.550781 4.71875 C 14.550781 5.222656 14.957031 5.628906 15.460938 5.628906 Z M 19.097656 5.628906 "/>
<path style=" stroke:none;fill-rule:nonzero;fill:rgb(96.078432%,96.078432%,96.078432%);fill-opacity:1;" d="M 11.773438 7.902344 C 10.984375 7.898438 10.222656 8.308594 9.796875 9.039062 C 9.328125 9.851562 9.414062 10.824219 9.9375 11.527344 L 8.589844 13.859375 C 8.339844 14.292969 8.488281 14.847656 8.925781 15.101562 C 9.292969 15.3125 9.746094 15.242188 10.027344 14.949219 L 9.953125 14.90625 C 9.792969 14.8125 9.734375 14.605469 9.828125 14.441406 L 10.851562 12.667969 C 10.949219 12.503906 11.15625 12.449219 11.320312 12.542969 L 11.417969 12.601562 L 11.511719 12.4375 C 12.382812 12.539062 13.269531 12.125 13.734375 11.3125 C 14.367188 10.222656 13.996094 8.839844 12.902344 8.207031 C 12.546875 8 12.15625 7.902344 11.773438 7.902344 Z M 12.265625 8.519531 C 12.4375 8.523438 12.613281 8.566406 12.773438 8.660156 C 13.265625 8.941406 13.433594 9.566406 13.148438 10.058594 C 12.867188 10.546875 12.242188 10.714844 11.75 10.429688 C 11.261719 10.148438 11.09375 9.523438 11.378906 9.035156 C 11.566406 8.703125 11.910156 8.519531 12.265625 8.519531 Z M 10.234375 11.917969 L 10.433594 12.03125 L 9.238281 14.101562 C 9.207031 14.15625 9.136719 14.171875 9.082031 14.140625 C 9.03125 14.109375 9.011719 14.042969 9.042969 13.988281 Z M 11.105469 12.683594 L 10.878906 13.078125 L 11.078125 13.191406 L 11.304688 12.796875 Z M 10.707031 13.375 L 10.480469 13.769531 L 10.679688 13.882812 L 10.90625 13.488281 Z M 10.253906 14.160156 L 10.027344 14.554688 L 10.222656 14.667969 L 10.449219 14.273438 Z M 10.253906 14.160156 "/>
</g>
</svg>
