<?xml version="1.0" encoding="UTF-8"?>
<svg xmlns="http://www.w3.org/2000/svg" xmlns:xlink="http://www.w3.org/1999/xlink" width="22px" height="22px" viewBox="0 0 22 22" version="1.1">
<g id="surface1">
<path style=" stroke:none;fill-rule:nonzero;fill:rgb(92.54902%,25.098041%,47.843137%);fill-opacity:1;" d="M 14.550781 1.082031 L 3.636719 1.082031 C 3.132812 1.082031 2.726562 1.488281 2.726562 1.992188 L 2.726562 20.179688 C 2.726562 20.683594 3.132812 21.089844 3.636719 21.089844 L 18.191406 21.089844 C 18.695312 21.089844 19.097656 20.683594 19.097656 20.179688 L 19.097656 5.628906 Z M 14.550781 1.082031 "/>
<path style=" stroke:none;fill-rule:nonzero;fill:rgb(84.705883%,10.588235%,37.64706%);fill-opacity:1;" d="M 19.097656 5.628906 L 14.550781 1.082031 L 14.550781 4.71875 C 14.550781 5.222656 14.957031 5.628906 15.460938 5.628906 Z M 19.097656 5.628906 "/>
<path style=" stroke:none;fill-rule:nonzero;fill:rgb(96.078432%,96.078432%,96.078432%);fill-opacity:1;" d="M 9.09375 7.90625 C 8.945312 7.90625 8.804688 7.980469 8.71875 8.105469 L 6.902344 10.835938 C 6.78125 11.015625 6.804688 11.253906 6.957031 11.40625 L 10.59375 15.042969 C 10.769531 15.21875 11.058594 15.21875 11.234375 15.042969 L 14.871094 11.40625 C 15.023438 11.253906 15.046875 11.015625 14.925781 10.835938 L 13.109375 8.105469 C 13.023438 7.980469 12.882812 7.90625 12.734375 7.90625 Z M 9.09375 7.90625 "/>
</g>
</svg>
