<?xml version="1.0" encoding="UTF-8"?>
<svg xmlns="http://www.w3.org/2000/svg" xmlns:xlink="http://www.w3.org/1999/xlink" width="22px" height="22px" viewBox="0 0 22 22" version="1.1">
<g id="surface1">
<path style=" stroke:none;fill-rule:nonzero;fill:rgb(25.882354%,64.705884%,96.078432%);fill-opacity:1;" d="M 14.550781 1.082031 L 3.636719 1.082031 C 3.132812 1.082031 2.726562 1.488281 2.726562 1.992188 L 2.726562 20.179688 C 2.726562 20.683594 3.132812 21.089844 3.636719 21.089844 L 18.191406 21.089844 C 18.695312 21.089844 19.097656 20.683594 19.097656 20.179688 L 19.097656 5.628906 Z M 14.550781 1.082031 "/>
<path style=" stroke:none;fill-rule:nonzero;fill:rgb(11.764706%,53.333336%,89.803922%);fill-opacity:1;" d="M 19.097656 5.628906 L 14.550781 1.082031 L 14.550781 4.71875 C 14.550781 5.222656 14.957031 5.628906 15.460938 5.628906 Z M 19.097656 5.628906 "/>
<path style=" stroke:none;fill-rule:nonzero;fill:rgb(96.078432%,96.078432%,96.078432%);fill-opacity:1;" d="M 7.730469 7.902344 C 7.480469 7.902344 7.277344 8.105469 7.277344 8.355469 L 7.277344 14.722656 C 7.277344 14.976562 7.480469 15.179688 7.730469 15.179688 L 14.097656 15.179688 C 14.347656 15.179688 14.550781 14.976562 14.550781 14.722656 L 14.550781 8.355469 C 14.550781 8.105469 14.347656 7.902344 14.097656 7.902344 Z M 8.414062 8.8125 L 13.414062 8.8125 C 13.542969 8.8125 13.640625 8.914062 13.640625 9.039062 L 13.640625 13.8125 L 12.503906 12.675781 L 11.367188 13.8125 L 9.777344 11.996094 C 9.777344 11.996094 8.414062 13.554688 8.210938 14.144531 C 8.195312 14.113281 8.1875 14.078125 8.1875 14.042969 L 8.1875 9.039062 C 8.1875 8.914062 8.285156 8.8125 8.414062 8.8125 Z M 12.058594 9.496094 C 11.683594 9.496094 11.378906 9.796875 11.378906 10.175781 C 11.378906 10.554688 11.683594 10.859375 12.058594 10.859375 C 12.4375 10.859375 12.742188 10.554688 12.742188 10.175781 C 12.742188 9.796875 12.4375 9.496094 12.058594 9.496094 Z M 12.058594 9.496094 "/>
</g>
</svg>
