<?xml version="1.0" encoding="UTF-8"?>
<svg xmlns="http://www.w3.org/2000/svg" xmlns:xlink="http://www.w3.org/1999/xlink" width="22px" height="22px" viewBox="0 0 22 22" version="1.1">
<g id="surface1">
<path style=" stroke:none;fill-rule:nonzero;fill:rgb(87.843138%,87.843138%,87.843138%);fill-opacity:1;" d="M 1.820312 3.808594 L 20.007812 3.808594 C 20.511719 3.808594 20.917969 4.21875 20.917969 4.71875 L 20.917969 17.453125 C 20.917969 17.953125 20.511719 18.363281 20.007812 18.363281 L 1.820312 18.363281 C 1.316406 18.363281 0.910156 17.953125 0.910156 17.453125 L 0.910156 4.71875 C 0.910156 4.21875 1.316406 3.808594 1.820312 3.808594 Z M 1.820312 3.808594 "/>
<path style=" stroke:none;fill-rule:nonzero;fill:rgb(36.078432%,41.960785%,75.294119%);fill-opacity:1;" d="M 12.785156 8.609375 C 11.546875 8.609375 10.671875 9.273438 10.667969 10.214844 C 10.65625 10.914062 11.289062 11.300781 11.765625 11.535156 C 12.25 11.773438 12.417969 11.925781 12.417969 12.136719 C 12.414062 12.464844 12.023438 12.613281 11.664062 12.613281 C 11.164062 12.613281 10.894531 12.535156 10.484375 12.355469 L 10.320312 12.277344 L 10.144531 13.367188 C 10.441406 13.5 10.980469 13.617188 11.546875 13.625 C 12.863281 13.625 13.71875 12.972656 13.730469 11.96875 C 13.734375 11.414062 13.398438 10.992188 12.675781 10.644531 C 12.238281 10.421875 11.96875 10.273438 11.96875 10.046875 C 11.972656 9.839844 12.195312 9.628906 12.691406 9.628906 C 13.097656 9.617188 13.398438 9.714844 13.625 9.8125 L 13.738281 9.867188 L 13.910156 8.816406 C 13.660156 8.71875 13.269531 8.609375 12.785156 8.609375 Z M 7.058594 8.699219 L 5.828125 12.007812 L 5.695312 11.339844 C 5.46875 10.5625 4.753906 9.722656 3.960938 9.304688 L 5.085938 13.546875 L 6.414062 13.546875 L 8.382812 8.699219 Z M 8.890625 8.699219 L 8.105469 13.550781 L 9.359375 13.550781 L 10.144531 8.699219 Z M 16.15625 8.699219 C 15.855469 8.699219 15.628906 8.785156 15.5 9.101562 L 13.636719 13.550781 L 14.953125 13.550781 C 14.953125 13.550781 15.167969 12.953125 15.214844 12.824219 L 16.824219 12.824219 C 16.863281 12.996094 16.976562 13.550781 16.976562 13.550781 L 18.136719 13.550781 L 17.125 8.699219 Z M 16.242188 10.011719 L 16.328125 10.429688 C 16.328125 10.429688 16.566406 11.589844 16.617188 11.832031 L 15.578125 11.832031 C 15.679688 11.554688 16.078125 10.476562 16.078125 10.476562 C 16.070312 10.484375 16.179688 10.191406 16.242188 10.011719 Z M 16.242188 10.011719 "/>
<path style=" stroke:none;fill-rule:nonzero;fill:rgb(100%,65.490198%,14.901961%);fill-opacity:1;" d="M 4.6875 8.699219 L 2.667969 8.699219 L 2.648438 8.796875 C 4.222656 9.199219 5.265625 10.171875 5.695312 11.339844 L 5.257812 9.105469 C 5.183594 8.796875 4.960938 8.710938 4.6875 8.699219 Z M 4.6875 8.699219 "/>
<path style=" stroke:none;fill-rule:nonzero;fill:rgb(36.078432%,41.960785%,75.294119%);fill-opacity:1;" d="M 1.820312 3.808594 C 1.316406 3.808594 0.910156 4.214844 0.910156 4.71875 L 0.910156 6.992188 L 20.917969 6.992188 L 20.917969 4.71875 C 20.917969 4.214844 20.511719 3.808594 20.007812 3.808594 Z M 1.820312 3.808594 "/>
<path style=" stroke:none;fill-rule:nonzero;fill:rgb(100%,65.490198%,14.901961%);fill-opacity:1;" d="M 1.820312 18.363281 C 1.316406 18.363281 0.910156 17.957031 0.910156 17.453125 L 0.910156 15.179688 L 20.917969 15.179688 L 20.917969 17.453125 C 20.917969 17.957031 20.511719 18.363281 20.007812 18.363281 Z M 1.820312 18.363281 "/>
</g>
</svg>
