<?xml version="1.0" encoding="UTF-8"?>
<svg xmlns="http://www.w3.org/2000/svg" xmlns:xlink="http://www.w3.org/1999/xlink" width="32px" height="32px" viewBox="0 0 32 32" version="1.1">
<g id="surface1">
<path style=" stroke:none;fill-rule:nonzero;fill:rgb(74.117649%,74.117649%,74.117649%);fill-opacity:1;" d="M 3.96875 1.574219 L 27.78125 1.574219 C 29.242188 1.574219 30.425781 2.757812 30.425781 4.21875 L 30.425781 28.03125 C 30.425781 29.492188 29.242188 30.675781 27.78125 30.675781 L 3.96875 30.675781 C 2.507812 30.675781 1.324219 29.492188 1.324219 28.03125 L 1.324219 4.21875 C 1.324219 2.757812 2.507812 1.574219 3.96875 1.574219 Z M 3.96875 1.574219 "/>
<path style=" stroke:none;fill-rule:nonzero;fill:rgb(93.333334%,93.333334%,93.333334%);fill-opacity:1;" d="M 3.96875 2.894531 L 27.78125 2.894531 C 28.511719 2.894531 29.105469 3.488281 29.105469 4.21875 L 29.105469 26.707031 C 29.105469 27.4375 28.511719 28.03125 27.78125 28.03125 L 3.96875 28.03125 C 3.238281 28.03125 2.644531 27.4375 2.644531 26.707031 L 2.644531 4.21875 C 2.644531 3.488281 3.238281 2.894531 3.96875 2.894531 Z M 3.96875 2.894531 "/>
<path style=" stroke:none;fill-rule:nonzero;fill:rgb(25.882354%,25.882354%,25.882354%);fill-opacity:1;" d="M 21.496094 16.125 C 18.75 16.125 16.535156 18.191406 16.535156 20.753906 C 16.535156 23.320312 18.75 25.386719 21.496094 25.386719 C 22.617188 25.386719 23.644531 25.042969 24.472656 24.464844 L 24.472656 24.722656 C 24.472656 25.089844 24.769531 25.386719 25.136719 25.386719 L 25.796875 25.386719 C 26.164062 25.386719 26.457031 25.089844 26.457031 24.722656 L 26.457031 16.785156 C 26.457031 16.421875 26.164062 16.125 25.796875 16.125 L 25.136719 16.125 C 24.769531 16.125 24.472656 16.421875 24.472656 16.785156 L 24.472656 17.046875 C 23.644531 16.46875 22.617188 16.125 21.496094 16.125 Z M 21.496094 18.117188 C 23.144531 18.117188 24.472656 19.296875 24.472656 20.757812 C 24.472656 22.222656 23.144531 23.402344 21.496094 23.402344 C 19.847656 23.402344 18.519531 22.222656 18.519531 20.757812 C 18.519531 19.296875 19.847656 18.117188 21.496094 18.117188 Z M 21.496094 18.117188 "/>
<path style=" stroke:none;fill-rule:nonzero;fill:rgb(25.882354%,25.882354%,25.882354%);fill-opacity:1;" d="M 18.601562 10.785156 C 18.253906 10.691406 17.894531 10.898438 17.800781 11.25 L 17.457031 12.527344 C 17.410156 12.707031 17.4375 12.898438 17.539062 13.054688 C 17.640625 13.210938 17.800781 13.316406 17.984375 13.34375 L 24.546875 14.417969 C 24.878906 14.472656 25.199219 14.265625 25.285156 13.941406 C 25.371094 13.613281 25.199219 13.277344 24.882812 13.15625 L 18.664062 10.804688 C 18.644531 10.796875 18.625 10.792969 18.601562 10.785156 Z M 18.601562 10.785156 "/>
</g>
</svg>
