<?xml version="1.0" encoding="UTF-8"?>
<svg xmlns="http://www.w3.org/2000/svg" xmlns:xlink="http://www.w3.org/1999/xlink" width="32px" height="32px" viewBox="0 0 32 32" version="1.1">
<g id="surface1">
<path style=" stroke:none;fill-rule:nonzero;fill:rgb(55.29412%,43.137255%,38.82353%);fill-opacity:1;" d="M 2.644531 1.914062 C 1.914062 1.914062 1.324219 2.503906 1.324219 3.234375 L 1.324219 29.355469 C 1.324219 29.367188 1.324219 29.378906 1.324219 29.386719 C 1.324219 29.410156 1.324219 29.433594 1.328125 29.457031 C 1.328125 29.46875 1.328125 29.480469 1.328125 29.488281 C 1.332031 29.511719 1.335938 29.535156 1.339844 29.554688 C 1.339844 29.578125 1.34375 29.601562 1.351562 29.621094 C 1.359375 29.664062 1.371094 29.707031 1.382812 29.75 C 1.394531 29.789062 1.410156 29.832031 1.425781 29.871094 C 1.433594 29.890625 1.445312 29.910156 1.453125 29.929688 C 1.460938 29.949219 1.472656 29.964844 1.480469 29.984375 C 1.492188 30.003906 1.503906 30.023438 1.515625 30.039062 C 1.535156 30.078125 1.558594 30.113281 1.585938 30.144531 C 1.609375 30.179688 1.636719 30.214844 1.664062 30.246094 C 1.679688 30.261719 1.695312 30.273438 1.710938 30.289062 C 1.722656 30.304688 1.738281 30.320312 1.753906 30.332031 C 1.847656 30.417969 1.957031 30.492188 2.070312 30.546875 C 2.128906 30.574219 2.1875 30.597656 2.25 30.617188 C 2.292969 30.628906 2.335938 30.640625 2.378906 30.648438 C 2.398438 30.652344 2.421875 30.65625 2.445312 30.660156 C 2.476562 30.667969 2.511719 30.671875 2.542969 30.671875 C 2.578125 30.675781 2.613281 30.675781 2.644531 30.675781 L 29.109375 30.675781 C 29.84375 30.675781 30.433594 30.085938 30.433594 29.355469 L 30.433594 27.371094 L 30.421875 27.371094 L 30.425781 27.363281 L 4.628906 1.914062 Z M 5.292969 8.847656 L 23.8125 26.707031 L 5.292969 26.707031 Z M 5.292969 8.847656 "/>
<path style=" stroke:none;fill-rule:nonzero;fill:rgb(42.745098%,29.803923%,25.490198%);fill-opacity:1;" d="M 8.269531 28.539062 C 8.085938 28.539062 7.9375 28.6875 7.9375 28.867188 L 7.9375 30.675781 L 8.597656 30.675781 L 8.597656 28.867188 C 8.597656 28.6875 8.453125 28.539062 8.269531 28.539062 Z M 16.207031 28.539062 C 16.023438 28.539062 15.875 28.6875 15.875 28.867188 L 15.875 30.675781 L 16.535156 30.675781 L 16.535156 28.867188 C 16.535156 28.6875 16.390625 28.539062 16.207031 28.539062 Z M 24.144531 28.539062 C 23.960938 28.539062 23.8125 28.6875 23.8125 28.867188 L 23.8125 30.675781 L 24.472656 30.675781 L 24.472656 28.867188 C 24.472656 28.6875 24.328125 28.539062 24.144531 28.539062 Z M 2.976562 29.199219 C 2.792969 29.199219 2.644531 29.347656 2.644531 29.53125 L 2.644531 30.675781 L 3.308594 30.675781 L 3.308594 29.53125 C 3.308594 29.347656 3.160156 29.199219 2.976562 29.199219 Z M 4.300781 29.199219 C 4.117188 29.199219 3.96875 29.347656 3.96875 29.53125 L 3.96875 30.675781 L 4.628906 30.675781 L 4.628906 29.53125 C 4.628906 29.347656 4.484375 29.199219 4.300781 29.199219 Z M 5.621094 29.199219 C 5.4375 29.199219 5.292969 29.347656 5.292969 29.53125 L 5.292969 30.675781 L 5.953125 30.675781 L 5.953125 29.53125 C 5.953125 29.347656 5.804688 29.199219 5.621094 29.199219 Z M 6.945312 29.199219 C 6.761719 29.199219 6.613281 29.347656 6.613281 29.53125 L 6.613281 30.675781 L 7.277344 30.675781 L 7.277344 29.53125 C 7.277344 29.347656 7.128906 29.199219 6.945312 29.199219 Z M 9.589844 29.199219 C 9.40625 29.199219 9.261719 29.347656 9.261719 29.53125 L 9.261719 30.675781 L 9.921875 30.675781 L 9.921875 29.53125 C 9.921875 29.347656 9.773438 29.199219 9.589844 29.199219 Z M 10.914062 29.199219 C 10.730469 29.199219 10.582031 29.347656 10.582031 29.53125 L 10.582031 30.675781 L 11.246094 30.675781 L 11.246094 29.53125 C 11.246094 29.347656 11.097656 29.199219 10.914062 29.199219 Z M 12.238281 29.199219 C 12.054688 29.199219 11.90625 29.347656 11.90625 29.53125 L 11.90625 30.675781 L 12.566406 30.675781 L 12.566406 29.53125 C 12.566406 29.347656 12.421875 29.199219 12.238281 29.199219 Z M 13.558594 29.199219 C 13.375 29.199219 13.230469 29.347656 13.230469 29.53125 L 13.230469 30.675781 L 13.890625 30.675781 L 13.890625 29.53125 C 13.890625 29.347656 13.742188 29.199219 13.558594 29.199219 Z M 14.882812 29.199219 C 14.699219 29.199219 14.550781 29.347656 14.550781 29.53125 L 14.550781 30.675781 L 15.214844 30.675781 L 15.214844 29.53125 C 15.214844 29.347656 15.066406 29.199219 14.882812 29.199219 Z M 17.527344 29.199219 C 17.34375 29.199219 17.199219 29.347656 17.199219 29.53125 L 17.199219 30.675781 L 17.859375 30.675781 L 17.859375 29.53125 C 17.859375 29.347656 17.710938 29.199219 17.527344 29.199219 Z M 18.851562 29.199219 C 18.839844 29.199219 18.828125 29.199219 18.816406 29.203125 C 18.652344 29.21875 18.519531 29.359375 18.519531 29.53125 L 18.519531 30.675781 L 19.183594 30.675781 L 19.183594 29.53125 C 19.183594 29.347656 19.035156 29.199219 18.851562 29.199219 Z M 20.175781 29.199219 C 20.167969 29.199219 20.164062 29.199219 20.15625 29.199219 C 19.980469 29.210938 19.84375 29.351562 19.84375 29.53125 L 19.84375 30.675781 L 20.503906 30.675781 L 20.503906 29.53125 C 20.503906 29.359375 20.375 29.21875 20.207031 29.203125 C 20.195312 29.199219 20.1875 29.199219 20.175781 29.199219 Z M 21.496094 29.199219 C 21.492188 29.199219 21.484375 29.199219 21.480469 29.199219 C 21.304688 29.210938 21.167969 29.351562 21.167969 29.53125 L 21.167969 30.675781 L 21.828125 30.675781 L 21.828125 29.53125 C 21.828125 29.347656 21.679688 29.199219 21.496094 29.199219 Z M 22.820312 29.199219 C 22.816406 29.199219 22.808594 29.199219 22.804688 29.199219 C 22.796875 29.199219 22.792969 29.199219 22.785156 29.203125 C 22.621094 29.21875 22.488281 29.359375 22.488281 29.53125 L 22.488281 30.675781 L 23.152344 30.675781 L 23.152344 29.53125 C 23.152344 29.347656 23.003906 29.199219 22.820312 29.199219 Z M 25.464844 29.199219 C 25.28125 29.199219 25.136719 29.347656 25.136719 29.53125 L 25.136719 30.675781 L 25.796875 30.675781 L 25.796875 29.53125 C 25.796875 29.347656 25.648438 29.199219 25.464844 29.199219 Z M 26.789062 29.199219 C 26.605469 29.199219 26.457031 29.347656 26.457031 29.53125 L 26.457031 30.675781 L 27.121094 30.675781 L 27.121094 29.53125 C 27.121094 29.347656 26.972656 29.199219 26.789062 29.199219 Z M 28.113281 29.199219 C 27.929688 29.199219 27.78125 29.347656 27.78125 29.53125 L 27.78125 30.675781 L 28.441406 30.675781 L 28.441406 29.53125 C 28.441406 29.347656 28.296875 29.199219 28.113281 29.199219 Z M 29.433594 29.199219 C 29.25 29.199219 29.105469 29.347656 29.105469 29.53125 L 29.105469 30.675781 L 29.109375 30.675781 C 29.347656 30.675781 29.574219 30.613281 29.765625 30.503906 L 29.765625 29.53125 C 29.765625 29.347656 29.617188 29.199219 29.433594 29.199219 Z M 29.433594 29.199219 "/>
<path style=" stroke:none;fill-rule:nonzero;fill:rgb(74.117649%,74.117649%,74.117649%);fill-opacity:1;" d="M 15.585938 1.574219 L 14.050781 1.984375 C 12.773438 2.328125 12.019531 3.628906 12.363281 4.90625 L 15.863281 17.972656 C 16.035156 18.617188 16.457031 19.128906 16.992188 19.433594 L 23.640625 19.433594 C 24.179688 19.128906 24.597656 18.617188 24.773438 17.972656 L 28.273438 4.90625 C 28.617188 3.628906 27.863281 2.328125 26.582031 1.984375 L 25.046875 1.574219 L 20.929688 16.9375 C 20.734375 16.886719 20.53125 16.859375 20.320312 16.859375 C 20.105469 16.859375 19.902344 16.886719 19.703125 16.941406 Z M 15.585938 1.574219 "/>
<path style=" stroke:none;fill-rule:nonzero;fill:rgb(14.901961%,65.098041%,60.392159%);fill-opacity:1;" d="M 15.304688 19.824219 C 13.226562 19.800781 11.195312 21.554688 10.5 24.140625 C 9.707031 27.097656 10.976562 29.984375 13.339844 30.617188 C 15.703125 31.253906 18.242188 29.382812 19.035156 26.425781 C 19.386719 25.121094 19.335938 23.828125 18.964844 22.738281 C 19.3125 22.449219 19.53125 22.015625 19.53125 21.527344 C 19.53125 21.480469 19.53125 21.433594 19.527344 21.390625 C 19.773438 21.476562 20.039062 21.527344 20.320312 21.527344 C 20.597656 21.527344 20.867188 21.476562 21.113281 21.390625 C 21.113281 21.433594 21.109375 21.480469 21.109375 21.527344 C 21.109375 22.015625 21.328125 22.449219 21.675781 22.738281 C 21.304688 23.828125 21.253906 25.121094 21.605469 26.425781 C 22.394531 29.382812 24.9375 31.253906 27.300781 30.617188 C 29.667969 29.984375 30.933594 27.097656 30.140625 24.140625 C 29.347656 21.183594 26.804688 19.316406 24.441406 19.949219 C 24.160156 20.023438 23.890625 20.132812 23.640625 20.269531 C 23.378906 20.066406 23.046875 19.949219 22.6875 19.949219 C 22.644531 19.949219 22.597656 19.949219 22.550781 19.953125 C 22.550781 19.949219 22.554688 19.949219 22.554688 19.945312 C 22.53125 19.945312 22.503906 19.949219 22.480469 19.949219 L 18.089844 19.949219 C 18.089844 19.949219 18.089844 19.949219 18.089844 19.953125 C 18.042969 19.949219 18 19.949219 17.953125 19.949219 C 17.59375 19.949219 17.261719 20.066406 16.996094 20.269531 C 16.75 20.132812 16.480469 20.023438 16.199219 19.949219 C 15.902344 19.871094 15.605469 19.828125 15.304688 19.824219 Z M 15.074219 22.164062 C 15.246094 22.167969 15.414062 22.191406 15.585938 22.234375 C 16.9375 22.59375 17.660156 24.246094 17.207031 25.9375 C 16.753906 27.625 15.304688 28.695312 13.953125 28.332031 C 12.601562 27.96875 11.875 26.316406 12.328125 24.628906 C 12.726562 23.152344 13.886719 22.148438 15.074219 22.164062 Z M 25.5625 22.164062 C 26.753906 22.148438 27.914062 23.152344 28.3125 24.628906 C 28.761719 26.316406 28.039062 27.96875 26.691406 28.332031 C 25.339844 28.695312 23.882812 27.625 23.433594 25.9375 C 22.980469 24.246094 23.703125 22.59375 25.054688 22.234375 C 25.222656 22.191406 25.394531 22.167969 25.5625 22.164062 Z M 25.5625 22.164062 "/>
<path style=" stroke:none;fill-rule:nonzero;fill:rgb(87.843138%,87.843138%,87.843138%);fill-opacity:1;" d="M 20.320312 16.964844 C 21.628906 16.964844 22.6875 18.023438 22.6875 19.332031 C 22.6875 20.640625 21.628906 21.699219 20.320312 21.699219 C 19.011719 21.699219 17.949219 20.640625 17.949219 19.332031 C 17.949219 18.023438 19.011719 16.964844 20.320312 16.964844 Z M 20.320312 16.964844 "/>
<path style=" stroke:none;fill-rule:nonzero;fill:rgb(45.882353%,45.882353%,45.882353%);fill-opacity:1;" d="M 20.320312 20.515625 C 20.976562 20.515625 21.503906 19.984375 21.503906 19.332031 C 21.503906 18.675781 20.976562 18.148438 20.320312 18.148438 C 19.667969 18.148438 19.136719 18.675781 19.136719 19.332031 C 19.136719 19.984375 19.667969 20.515625 20.320312 20.515625 Z M 20.320312 20.515625 "/>
</g>
</svg>
