<?xml version="1.0" encoding="UTF-8"?>
<svg xmlns="http://www.w3.org/2000/svg" xmlns:xlink="http://www.w3.org/1999/xlink" width="32px" height="32px" viewBox="0 0 32 32" version="1.1">
<g id="surface1">
<path style="fill-rule:nonzero;fill:rgb(61.960787%,61.960787%,61.960787%);fill-opacity:1;stroke-width:0.264583;stroke-linecap:round;stroke-linejoin:round;stroke:rgb(96.078432%,96.078432%,96.078432%);stroke-opacity:1;stroke-miterlimit:4;" d="M 80.125 -112.0625 C 58.5625 -88 42.625 -60 32.75 -30.125 L 84.6875 21.8125 L 84.6875 64.1875 L 32.8125 116 C 37.75 130.8125 44.25 145.375 52.375 159.4375 C 60.5 173.5 69.8125 186.375 80.1875 198.0625 L 151 179.0625 L 187.6875 200.25 L 206.6875 271.1875 C 237.5 277.5625 269.75 277.75 301.3125 271.125 L 320.3125 200.25 L 357 179.0625 L 427.875 198.0625 C 449.4375 174 465.375 146 475.25 116.125 L 423.3125 64.1875 L 423.3125 21.8125 L 475.1875 -30 C 470.25 -44.8125 463.75 -59.375 455.625 -73.4375 C 447.5 -87.5 438.1875 -100.375 427.8125 -112.0625 L 357 -93.0625 L 320.3125 -114.25 L 301.3125 -185.1875 C 270.5 -191.5625 238.25 -191.75 206.6875 -185.125 L 187.6875 -114.25 L 151 -93.0625 Z M 80.125 -112.0625 " transform="matrix(0.0625,0,0,0.0625,0,13.4375)"/>
<path style=" stroke:none;fill-rule:nonzero;fill:rgb(74.117649%,74.117649%,74.117649%);fill-opacity:1;" d="M 15.875 5.542969 C 21.71875 5.542969 26.457031 10.28125 26.457031 16.125 C 26.457031 21.96875 21.71875 26.707031 15.875 26.707031 C 10.03125 26.707031 5.292969 21.96875 5.292969 16.125 C 5.292969 10.28125 10.03125 5.542969 15.875 5.542969 Z M 15.875 5.542969 "/>
<path style=" stroke:none;fill-rule:nonzero;fill:rgb(61.960787%,61.960787%,61.960787%);fill-opacity:1;" d="M 15.875 8.1875 C 20.257812 8.1875 23.8125 11.742188 23.8125 16.125 C 23.8125 20.507812 20.257812 24.0625 15.875 24.0625 C 11.492188 24.0625 7.9375 20.507812 7.9375 16.125 C 7.9375 11.742188 11.492188 8.1875 15.875 8.1875 Z M 15.875 8.1875 "/>
<path style=" stroke:none;fill-rule:nonzero;fill:rgb(74.117649%,74.117649%,74.117649%);fill-opacity:1;" d="M 15.875 10.832031 C 18.796875 10.832031 21.167969 13.203125 21.167969 16.125 C 21.167969 19.046875 18.796875 21.417969 15.875 21.417969 C 12.953125 21.417969 10.582031 19.046875 10.582031 16.125 C 10.582031 13.203125 12.953125 10.832031 15.875 10.832031 Z M 15.875 10.832031 "/>
</g>
</svg>
