<?xml version="1.0" encoding="UTF-8"?>
<svg xmlns="http://www.w3.org/2000/svg" xmlns:xlink="http://www.w3.org/1999/xlink" width="32px" height="32px" viewBox="0 0 32 32" version="1.1">
<g id="surface1">
<path style=" stroke:none;fill-rule:nonzero;fill:rgb(32.941177%,43.137255%,47.843137%);fill-opacity:1;" d="M 19.183594 2.894531 L 16.535156 8.1875 L 22.488281 30.675781 L 27.121094 23.402344 L 24.144531 15.710938 L 22.488281 16.125 L 23.636719 14.402344 Z M 19.183594 2.894531 "/>
<path style=" stroke:none;fill-rule:nonzero;fill:rgb(32.941177%,43.137255%,47.843137%);fill-opacity:1;" d="M 12.566406 2.894531 L 4.628906 23.402344 L 9.261719 30.675781 L 11.246094 24.0625 L 18.519531 24.0625 L 17.859375 15.132812 L 16.535156 18.109375 L 12.585938 18.109375 L 15.214844 8.1875 Z M 12.566406 2.894531 "/>
<path style=" stroke:none;fill-rule:nonzero;fill:rgb(47.058824%,56.470591%,61.176473%);fill-opacity:1;" d="M 12.644531 4.535156 L 5.371094 23.328125 L 9.042969 29.097656 L 10.609375 23.871094 C 10.695312 23.589844 10.953125 23.398438 11.246094 23.398438 L 17.804688 23.398438 L 17.394531 17.816406 L 17.144531 18.378906 C 17.035156 18.617188 16.796875 18.773438 16.535156 18.773438 L 12.585938 18.773438 C 12.382812 18.773438 12.1875 18.675781 12.0625 18.515625 C 11.9375 18.351562 11.894531 18.136719 11.945312 17.941406 L 14.507812 8.261719 Z M 19.105469 4.535156 L 17.242188 8.261719 L 22.742188 29.042969 L 26.378906 23.328125 L 23.734375 16.496094 L 22.652344 16.769531 C 22.382812 16.835938 22.105469 16.730469 21.949219 16.507812 C 21.789062 16.28125 21.785156 15.984375 21.9375 15.757812 L 22.894531 14.320312 Z M 19.105469 4.535156 "/>
<path style=" stroke:none;fill-rule:nonzero;fill:rgb(93.725491%,32.549021%,31.37255%);fill-opacity:1;" d="M 4.597656 24.726562 C 4.371094 24.738281 4.167969 24.863281 4.058594 25.058594 L 1.410156 29.6875 C 1.160156 30.128906 1.476562 30.675781 1.984375 30.675781 L 7.277344 30.675781 C 7.78125 30.675781 8.101562 30.128906 7.847656 29.6875 L 5.203125 25.058594 C 5.082031 24.84375 4.847656 24.714844 4.597656 24.726562 Z M 4.597656 24.726562 "/>
<path style=" stroke:none;fill-rule:nonzero;fill:rgb(83.137256%,88.235295%,34.117648%);fill-opacity:1;" d="M 27.085938 24.726562 C 26.863281 24.738281 26.660156 24.863281 26.546875 25.058594 L 23.902344 29.6875 C 23.648438 30.128906 23.96875 30.675781 24.472656 30.675781 L 29.765625 30.675781 C 30.273438 30.675781 30.589844 30.128906 30.339844 29.6875 L 27.691406 25.058594 C 27.570312 24.84375 27.335938 24.714844 27.085938 24.726562 Z M 27.085938 24.726562 "/>
<path style=" stroke:none;fill-rule:nonzero;fill:rgb(36.078432%,41.960785%,75.294119%);fill-opacity:1;" d="M 13.230469 1.574219 C 12.722656 1.574219 12.40625 2.121094 12.65625 2.5625 L 15.300781 7.191406 C 15.554688 7.636719 16.195312 7.636719 16.449219 7.191406 L 19.09375 2.5625 C 19.34375 2.121094 19.027344 1.574219 18.519531 1.574219 Z M 13.230469 1.574219 "/>
<path style=" stroke:none;fill-rule:nonzero;fill:rgb(62.352943%,65.882355%,85.490197%);fill-opacity:0.68705;" d="M 14.386719 1.992188 C 14.625 2.128906 14.707031 2.433594 14.566406 2.671875 L 14.402344 2.957031 C 14.265625 3.195312 13.960938 3.273438 13.726562 3.136719 C 13.488281 3 13.40625 2.699219 13.542969 2.460938 L 13.710938 2.175781 C 13.847656 1.9375 14.148438 1.855469 14.386719 1.992188 Z M 14.386719 1.992188 "/>
<path style=" stroke:none;fill-rule:nonzero;fill:rgb(93.725491%,60.392159%,60.392159%);fill-opacity:0.68705;" d="M 4.695312 25.632812 C 4.933594 25.769531 5.015625 26.074219 4.878906 26.3125 L 4.714844 26.597656 C 4.574219 26.835938 4.273438 26.917969 4.035156 26.777344 C 3.796875 26.640625 3.714844 26.339844 3.855469 26.101562 L 4.019531 25.816406 C 4.15625 25.578125 4.460938 25.496094 4.695312 25.632812 Z M 4.695312 25.632812 "/>
<path style=" stroke:none;fill-rule:nonzero;fill:rgb(94.117647%,95.686275%,76.47059%);fill-opacity:0.68705;" d="M 27.21875 25.632812 C 27.457031 25.769531 27.539062 26.074219 27.398438 26.3125 L 27.234375 26.597656 C 27.097656 26.835938 26.792969 26.917969 26.558594 26.777344 C 26.320312 26.640625 26.238281 26.339844 26.375 26.101562 L 26.542969 25.816406 C 26.679688 25.578125 26.980469 25.496094 27.21875 25.632812 Z M 27.21875 25.632812 "/>
</g>
</svg>
