<?xml version="1.0" encoding="UTF-8"?>
<svg xmlns="http://www.w3.org/2000/svg" xmlns:xlink="http://www.w3.org/1999/xlink" width="32px" height="32px" viewBox="0 0 32 32" version="1.1">
<g id="surface1">
<path style=" stroke:none;fill-rule:nonzero;fill:rgb(48.627451%,70.19608%,25.882354%);fill-opacity:1;" d="M 15.914062 1.574219 C 15.632812 1.566406 15.355469 1.636719 15.113281 1.777344 L 3.832031 8.289062 C 3.359375 8.5625 3.066406 9.066406 3.066406 9.613281 L 3.066406 22.640625 C 3.066406 23.183594 3.359375 23.6875 3.832031 23.960938 L 15.113281 30.472656 C 15.585938 30.746094 16.164062 30.746094 16.636719 30.472656 L 27.917969 23.960938 C 28.390625 23.6875 28.683594 23.183594 28.683594 22.640625 L 28.683594 9.613281 C 28.683594 9.066406 28.390625 8.5625 27.917969 8.289062 L 16.636719 1.777344 C 16.417969 1.648438 16.167969 1.578125 15.914062 1.574219 Z M 15.914062 1.574219 "/>
<path style=" stroke:none;fill-rule:nonzero;fill:rgb(68.235296%,83.529413%,50.588238%);fill-opacity:1;" d="M 15.914062 1.574219 C 15.632812 1.566406 15.355469 1.636719 15.113281 1.777344 L 4.648438 7.820312 C 5.75 8.285156 6.929688 8.785156 8.109375 9.34375 L 15.875 4.859375 L 23.640625 9.34375 C 24.820312 8.785156 26 8.285156 27.105469 7.820312 L 16.636719 1.777344 C 16.417969 1.648438 16.167969 1.578125 15.914062 1.574219 Z M 3.953125 9.257812 C 4.753906 9.59375 5.585938 9.945312 6.417969 10.320312 C 5.585938 9.945312 4.757812 9.589844 3.953125 9.257812 Z M 27.792969 9.257812 C 26.996094 9.589844 26.164062 9.945312 25.332031 10.320312 C 26.164062 9.945312 26.996094 9.59375 27.796875 9.257812 C 27.792969 9.257812 27.792969 9.257812 27.792969 9.257812 Z M 3.066406 10.605469 L 3.066406 22.640625 C 3.066406 23.183594 3.359375 23.6875 3.832031 23.960938 L 14.285156 29.996094 L 14.285156 26.472656 L 6.117188 21.757812 L 6.117188 11.929688 C 5.09375 11.460938 4.0625 11.023438 3.066406 10.605469 Z M 28.683594 10.605469 C 27.691406 11.023438 26.65625 11.460938 25.632812 11.929688 L 25.632812 21.757812 L 17.464844 26.472656 L 17.464844 29.996094 L 27.917969 23.960938 C 28.390625 23.6875 28.683594 23.183594 28.683594 22.640625 Z M 28.683594 10.605469 "/>
<path style=" stroke:none;fill-rule:nonzero;fill:rgb(94.509804%,97.254902%,91.37255%);fill-opacity:1;" d="M 3.78125 8.320312 C 3.339844 8.597656 3.066406 9.085938 3.066406 9.613281 L 3.066406 9.742188 C 5.511719 10.773438 8.300781 11.941406 10.570312 13.351562 C 13.257812 15.019531 15.082031 16.921875 15.082031 19.191406 L 15.082031 30.457031 L 15.113281 30.472656 C 15.585938 30.746094 16.164062 30.746094 16.636719 30.472656 L 16.671875 30.457031 L 16.671875 19.191406 C 16.671875 16.921875 18.496094 15.019531 21.179688 13.351562 C 23.449219 11.941406 26.242188 10.773438 28.683594 9.742188 L 28.683594 9.613281 C 28.683594 9.085938 28.410156 8.597656 27.96875 8.320312 C 25.554688 9.332031 22.738281 10.515625 20.34375 12.003906 C 18.472656 13.160156 16.8125 14.542969 15.875 16.21875 C 14.941406 14.542969 13.277344 13.160156 11.410156 12.003906 C 9.015625 10.515625 6.199219 9.332031 3.785156 8.320312 Z M 3.78125 8.320312 "/>
</g>
</svg>
