<?xml version="1.0" encoding="UTF-8"?>
<svg xmlns="http://www.w3.org/2000/svg" xmlns:xlink="http://www.w3.org/1999/xlink" width="32px" height="32px" viewBox="0 0 32 32" version="1.1">
<g id="surface1">
<path style=" stroke:none;fill-rule:nonzero;fill:rgb(25.882354%,25.882354%,25.882354%);fill-opacity:1;" d="M 15.875 1.574219 C 23.910156 1.574219 30.425781 8.089844 30.425781 16.125 C 30.425781 24.160156 23.910156 30.675781 15.875 30.675781 C 7.839844 30.675781 1.324219 24.160156 1.324219 16.125 C 1.324219 8.089844 7.839844 1.574219 15.875 1.574219 Z M 15.875 1.574219 "/>
<path style=" stroke:none;fill-rule:nonzero;fill:rgb(100%,65.490198%,14.901961%);fill-opacity:1;" d="M 8.597656 13.480469 C 8.234375 13.480469 7.9375 13.773438 7.9375 14.140625 L 7.9375 24.0625 L 3.96875 24.0625 L 10.582031 30.675781 L 17.199219 24.0625 L 13.230469 24.0625 L 13.230469 14.140625 C 13.230469 13.773438 12.933594 13.480469 12.566406 13.480469 Z M 8.597656 13.480469 "/>
<path style=" stroke:none;fill-rule:nonzero;fill:rgb(14.901961%,65.098041%,60.392159%);fill-opacity:1;" d="M 19.183594 18.769531 C 18.816406 18.769531 18.519531 18.476562 18.519531 18.109375 L 18.519531 8.1875 L 14.550781 8.1875 L 21.167969 1.574219 L 27.78125 8.1875 L 23.8125 8.1875 L 23.8125 18.109375 C 23.8125 18.476562 23.515625 18.769531 23.152344 18.769531 Z M 19.183594 18.769531 "/>
</g>
</svg>
