
<svg xmlns="http://www.w3.org/2000/svg" xmlns:xlink="http://www.w3.org/1999/xlink" width="32px" height="32px" viewBox="0 0 32 32" version="1.1">
<g id="surface1">
<path style=" stroke:none;fill-rule:nonzero;fill:rgb(25.882354%,25.882354%,25.882354%);fill-opacity:0.999958;" d="M 15.875 1.324219 C 23.910156 1.324219 30.425781 7.839844 30.425781 15.875 C 30.425781 23.910156 23.910156 30.425781 15.875 30.425781 C 7.839844 30.425781 1.324219 23.910156 1.324219 15.875 C 1.324219 7.839844 7.839844 1.324219 15.875 1.324219 Z M 15.875 1.324219 "/>
<path style=" stroke:none;fill-rule:nonzero;fill:rgb(38.039216%,38.039216%,38.039216%);fill-opacity:0.999958;" d="M 15.875 2.644531 C 23.179688 2.644531 29.105469 8.570312 29.105469 15.875 C 29.105469 23.179688 23.179688 29.105469 15.875 29.105469 C 8.570312 29.105469 2.644531 23.179688 2.644531 15.875 C 2.644531 8.570312 8.570312 2.644531 15.875 2.644531 Z M 15.875 2.644531 "/>
<path style=" stroke:none;fill-rule:nonzero;fill:rgb(25.882354%,25.882354%,25.882354%);fill-opacity:0.999958;" d="M 15.875 3.96875 C 22.449219 3.96875 27.78125 9.300781 27.78125 15.875 C 27.78125 22.449219 22.449219 27.78125 15.875 27.78125 C 9.300781 27.78125 3.96875 22.449219 3.96875 15.875 C 3.96875 9.300781 9.300781 3.96875 15.875 3.96875 Z M 15.875 3.96875 "/>
<path style=" stroke:none;fill-rule:nonzero;fill:rgb(87.843138%,87.843138%,87.843138%);fill-opacity:1;" d="M 9.3125 10.066406 C 4.195312 11.167969 2.433594 15.203125 2.230469 16.601562 C 5.953125 15.609375 8.277344 16.3125 8.78125 18.808594 C 12.132812 16.878906 14.839844 20.007812 15.871094 21.820312 L 15.871094 21.832031 C 15.871094 21.832031 15.875 21.828125 15.875 21.828125 C 15.875 21.828125 15.878906 21.832031 15.878906 21.832031 L 15.878906 21.820312 C 16.910156 20.007812 19.617188 16.878906 22.96875 18.808594 C 23.472656 16.3125 25.796875 15.609375 29.519531 16.601562 C 29.316406 15.203125 27.554688 11.167969 22.4375 10.066406 C 23.425781 11.1875 24.3125 13.945312 17.585938 14.175781 L 17.023438 11.246094 L 16.390625 12.835938 C 16.207031 12.734375 15.542969 12.734375 15.359375 12.835938 L 14.726562 11.246094 L 14.164062 14.175781 C 7.4375 13.945312 8.324219 11.1875 9.3125 10.066406 Z M 9.3125 10.066406 "/>
</g>
</svg>
