<?xml version="1.0" encoding="UTF-8"?>
<svg xmlns="http://www.w3.org/2000/svg" xmlns:xlink="http://www.w3.org/1999/xlink" width="32px" height="32px" viewBox="0 0 32 32" version="1.1">
<g id="surface1">
<path style=" stroke:none;fill-rule:nonzero;fill:rgb(93.333334%,93.333334%,93.333334%);fill-opacity:1;" d="M 2.644531 1.574219 L 29.105469 1.574219 C 29.835938 1.574219 30.425781 2.164062 30.425781 2.894531 L 30.425781 29.355469 C 30.425781 30.085938 29.835938 30.675781 29.105469 30.675781 L 2.644531 30.675781 C 1.914062 30.675781 1.324219 30.085938 1.324219 29.355469 L 1.324219 2.894531 C 1.324219 2.164062 1.914062 1.574219 2.644531 1.574219 Z M 2.644531 1.574219 "/>
<path style=" stroke:none;fill-rule:nonzero;fill:rgb(61.960787%,61.960787%,61.960787%);fill-opacity:1;" d="M 10.582031 1.574219 L 11.246094 1.574219 L 11.246094 30.675781 L 10.582031 30.675781 Z M 10.582031 1.574219 "/>
<path style=" stroke:none;fill-rule:nonzero;fill:rgb(61.960787%,61.960787%,61.960787%);fill-opacity:1;" d="M 30.425781 10.832031 L 30.425781 11.496094 L 1.324219 11.496094 L 1.324219 10.832031 Z M 30.425781 10.832031 "/>
<path style=" stroke:none;fill-rule:nonzero;fill:rgb(61.960787%,61.960787%,61.960787%);fill-opacity:1;" d="M 20.503906 1.574219 L 21.167969 1.574219 L 21.167969 30.675781 L 20.503906 30.675781 Z M 20.503906 1.574219 "/>
<path style=" stroke:none;fill-rule:nonzero;fill:rgb(61.960787%,61.960787%,61.960787%);fill-opacity:1;" d="M 30.425781 20.753906 L 30.425781 21.417969 L 1.324219 21.417969 L 1.324219 20.753906 Z M 30.425781 20.753906 "/>
<path style=" stroke:none;fill-rule:nonzero;fill:rgb(49.411765%,34.117648%,76.078433%);fill-opacity:1;" d="M 22.992188 22.578125 C 22.820312 22.578125 22.652344 22.644531 22.523438 22.773438 C 22.265625 23.03125 22.265625 23.449219 22.523438 23.707031 L 24.863281 26.046875 L 22.523438 28.386719 C 22.265625 28.644531 22.265625 29.0625 22.523438 29.320312 C 22.78125 29.578125 23.199219 29.578125 23.457031 29.320312 L 25.796875 26.980469 L 28.136719 29.320312 C 28.394531 29.578125 28.8125 29.578125 29.070312 29.320312 C 29.328125 29.0625 29.328125 28.644531 29.070312 28.386719 L 26.730469 26.046875 L 29.070312 23.707031 C 29.328125 23.449219 29.328125 23.03125 29.070312 22.773438 C 28.8125 22.515625 28.394531 22.515625 28.136719 22.773438 L 25.796875 25.113281 L 23.457031 22.773438 C 23.328125 22.644531 23.160156 22.578125 22.992188 22.578125 Z M 22.992188 22.578125 "/>
<path style=" stroke:none;fill-rule:nonzero;fill:rgb(92.54902%,25.098041%,47.843137%);fill-opacity:1;" d="M 5.953125 2.894531 C 4.121094 2.894531 2.644531 4.371094 2.644531 6.203125 C 2.644531 8.035156 4.121094 9.511719 5.953125 9.511719 C 7.785156 9.511719 9.261719 8.035156 9.261719 6.203125 C 9.261719 4.371094 7.785156 2.894531 5.953125 2.894531 Z M 5.953125 4.21875 C 7.050781 4.21875 7.9375 5.105469 7.9375 6.203125 C 7.9375 7.300781 7.050781 8.1875 5.953125 8.1875 C 4.855469 8.1875 3.96875 7.300781 3.96875 6.203125 C 3.96875 5.105469 4.855469 4.21875 5.953125 4.21875 Z M 5.953125 4.21875 "/>
<path style=" stroke:none;fill-rule:nonzero;fill:rgb(92.54902%,25.098041%,47.843137%);fill-opacity:1;" d="M 15.875 12.816406 C 14.042969 12.816406 12.566406 14.292969 12.566406 16.125 C 12.566406 17.957031 14.042969 19.433594 15.875 19.433594 C 17.707031 19.433594 19.183594 17.957031 19.183594 16.125 C 19.183594 14.292969 17.707031 12.816406 15.875 12.816406 Z M 15.875 14.140625 C 16.972656 14.140625 17.859375 15.027344 17.859375 16.125 C 17.859375 17.222656 16.972656 18.109375 15.875 18.109375 C 14.777344 18.109375 13.890625 17.222656 13.890625 16.125 C 13.890625 15.027344 14.777344 14.140625 15.875 14.140625 Z M 15.875 14.140625 "/>
<path style=" stroke:none;fill-rule:nonzero;fill:rgb(49.411765%,34.117648%,76.078433%);fill-opacity:1;" d="M 3.148438 22.578125 C 2.976562 22.578125 2.808594 22.644531 2.679688 22.773438 C 2.421875 23.03125 2.421875 23.449219 2.679688 23.707031 L 5.019531 26.046875 L 2.679688 28.386719 C 2.421875 28.644531 2.421875 29.0625 2.679688 29.320312 C 2.9375 29.578125 3.355469 29.578125 3.613281 29.320312 L 5.953125 26.980469 L 8.292969 29.320312 C 8.550781 29.578125 8.96875 29.578125 9.226562 29.320312 C 9.484375 29.0625 9.484375 28.644531 9.226562 28.386719 L 6.886719 26.046875 L 9.226562 23.707031 C 9.484375 23.449219 9.484375 23.03125 9.226562 22.773438 C 8.96875 22.515625 8.550781 22.515625 8.292969 22.773438 L 5.953125 25.113281 L 3.613281 22.773438 C 3.484375 22.644531 3.316406 22.578125 3.148438 22.578125 Z M 3.148438 22.578125 "/>
</g>
</svg>
