<?xml version="1.0" encoding="UTF-8"?>
<svg xmlns="http://www.w3.org/2000/svg" xmlns:xlink="http://www.w3.org/1999/xlink" width="32px" height="32px" viewBox="0 0 32 32" version="1.1">
<defs>
<linearGradient id="linear0" gradientUnits="userSpaceOnUse" x1="35.726398" y1="54.751305" x2="35.726398" y2="7.116104" gradientTransform="matrix(0.349737,0,0,0.349737,4.763865,4.207927)">
<stop offset="0" style="stop-color:rgb(95.686275%,26.274511%,21.176471%);stop-opacity:1;"/>
<stop offset="1" style="stop-color:rgb(93.725491%,32.549021%,31.37255%);stop-opacity:1;"/>
</linearGradient>
</defs>
<g id="surface1">
<path style=" stroke:none;fill-rule:nonzero;fill:rgb(25.882354%,25.882354%,25.882354%);fill-opacity:1;" d="M 15.875 1.574219 C 23.910156 1.574219 30.425781 8.089844 30.425781 16.125 C 30.425781 24.160156 23.910156 30.675781 15.875 30.675781 C 7.839844 30.675781 1.324219 24.160156 1.324219 16.125 C 1.324219 8.089844 7.839844 1.574219 15.875 1.574219 Z M 15.875 1.574219 "/>
<path style=" stroke:none;fill-rule:nonzero;fill:rgb(100%,100%,100%);fill-opacity:0.392;" d="M 15.894531 6.6875 L 15.890625 6.6875 L 15.890625 6.703125 C 15.554688 6.699219 15.246094 6.878906 15.078125 7.167969 L 6.519531 21.996094 C 6.410156 22.183594 6.371094 22.398438 6.402344 22.609375 C 6.421875 22.5 6.460938 22.386719 6.519531 22.28125 L 15.078125 7.453125 C 15.246094 7.164062 15.554688 6.984375 15.890625 6.984375 L 15.890625 6.96875 L 15.898438 6.96875 C 16.214844 6.96875 16.527344 7.140625 16.699219 7.441406 L 25.261719 22.265625 C 25.320312 22.371094 25.359375 22.484375 25.375 22.59375 C 25.410156 22.390625 25.371094 22.175781 25.261719 21.980469 L 16.699219 7.15625 C 16.535156 6.867188 16.230469 6.6875 15.898438 6.6875 Z M 13.132812 18.070312 L 6.601562 23.152344 L 6.609375 23.160156 L 12.902344 18.261719 L 17.726562 20.21875 L 17.6875 19.917969 Z M 13.132812 18.070312 "/>
<path style=" stroke:none;fill-rule:nonzero;fill:url(#linear0);" d="M 15.894531 6.6875 L 15.890625 6.6875 L 15.890625 6.703125 L 15.871094 6.703125 L 17.027344 14.792969 L 17.015625 14.800781 L 17.726562 19.9375 L 15.3125 18.957031 L 25.207031 23.007812 C 25.210938 23 25.214844 22.996094 25.21875 22.988281 C 25.21875 22.988281 25.21875 22.984375 25.21875 22.984375 L 25.222656 22.980469 L 25.21875 22.980469 C 25.417969 22.699219 25.449219 22.308594 25.257812 21.980469 L 16.699219 7.15625 C 16.535156 6.867188 16.230469 6.6875 15.898438 6.6875 Z M 15.871094 6.703125 C 15.859375 6.703125 15.851562 6.703125 15.84375 6.703125 C 15.851562 6.703125 15.859375 6.703125 15.871094 6.703125 Z M 15.839844 6.703125 C 15.832031 6.703125 15.820312 6.703125 15.8125 6.703125 C 15.820312 6.703125 15.832031 6.703125 15.839844 6.703125 Z M 15.722656 6.714844 C 15.714844 6.714844 15.707031 6.71875 15.699219 6.71875 C 15.707031 6.71875 15.714844 6.714844 15.722656 6.714844 Z M 15.664062 6.726562 C 15.65625 6.730469 15.648438 6.730469 15.640625 6.734375 Z M 15.605469 6.742188 C 15.601562 6.746094 15.59375 6.746094 15.585938 6.75 C 15.59375 6.75 15.601562 6.746094 15.605469 6.742188 Z M 15.578125 6.753906 L 15.558594 6.761719 Z M 15.523438 6.773438 C 15.515625 6.777344 15.511719 6.78125 15.503906 6.78125 Z M 15.496094 6.789062 L 15.476562 6.796875 Z M 15.441406 6.816406 C 15.4375 6.816406 15.429688 6.820312 15.425781 6.824219 C 15.429688 6.820312 15.4375 6.816406 15.441406 6.816406 Z M 15.414062 6.828125 C 15.410156 6.832031 15.40625 6.835938 15.398438 6.839844 C 15.40625 6.835938 15.410156 6.832031 15.414062 6.828125 Z M 15.363281 6.859375 C 15.359375 6.863281 15.355469 6.867188 15.347656 6.871094 C 15.355469 6.867188 15.359375 6.863281 15.367188 6.859375 Z M 15.339844 6.878906 L 15.324219 6.890625 Z M 15.316406 6.898438 C 15.308594 6.902344 15.304688 6.90625 15.300781 6.910156 C 15.308594 6.90625 15.3125 6.902344 15.316406 6.898438 Z M 15.292969 6.917969 C 15.289062 6.921875 15.28125 6.925781 15.277344 6.929688 C 15.285156 6.925781 15.289062 6.921875 15.292969 6.917969 Z M 15.269531 6.9375 C 15.261719 6.941406 15.257812 6.945312 15.253906 6.949219 C 15.261719 6.945312 15.265625 6.941406 15.269531 6.9375 Z M 15.203125 7 C 15.199219 7.003906 15.195312 7.007812 15.191406 7.015625 C 15.195312 7.007812 15.199219 7.003906 15.203125 7 Z M 15.179688 7.027344 L 15.171875 7.039062 Z M 15.140625 7.078125 C 15.136719 7.082031 15.132812 7.085938 15.132812 7.089844 C 15.132812 7.085938 15.136719 7.082031 15.140625 7.078125 Z M 15.101562 7.132812 C 15.101562 7.136719 15.097656 7.140625 15.097656 7.144531 C 15.097656 7.140625 15.101562 7.136719 15.101562 7.132812 Z M 12.898438 17.976562 L 6.460938 22.941406 L 12.910156 17.980469 Z M 6.367188 22.574219 C 6.367188 22.582031 6.367188 22.589844 6.367188 22.59375 C 6.367188 22.589844 6.367188 22.582031 6.367188 22.574219 Z M 6.367188 22.601562 C 6.367188 22.605469 6.367188 22.613281 6.367188 22.617188 C 6.367188 22.613281 6.367188 22.605469 6.367188 22.601562 Z M 6.371094 22.628906 C 6.371094 22.632812 6.371094 22.640625 6.371094 22.644531 C 6.371094 22.636719 6.371094 22.632812 6.371094 22.628906 Z M 6.375 22.652344 C 6.375 22.660156 6.375 22.664062 6.375 22.667969 C 6.375 22.664062 6.375 22.65625 6.375 22.652344 Z M 6.375 22.675781 C 6.375 22.683594 6.378906 22.691406 6.378906 22.699219 C 6.378906 22.691406 6.378906 22.683594 6.375 22.675781 Z M 6.378906 22.699219 C 6.378906 22.710938 6.382812 22.722656 6.386719 22.730469 C 6.382812 22.71875 6.382812 22.710938 6.378906 22.699219 Z M 6.394531 22.765625 C 6.394531 22.765625 6.394531 22.769531 6.394531 22.773438 C 6.394531 22.769531 6.394531 22.765625 6.390625 22.765625 Z M 6.40625 22.804688 L 6.410156 22.816406 L 6.40625 22.808594 Z M 6.4375 22.894531 L 6.441406 22.902344 Z M 6.472656 22.96875 C 6.476562 22.972656 6.480469 22.980469 6.484375 22.984375 C 6.480469 22.980469 6.476562 22.976562 6.472656 22.96875 Z M 6.492188 23 C 6.496094 23.007812 6.5 23.015625 6.503906 23.019531 C 6.5 23.015625 6.496094 23.007812 6.492188 23.003906 Z M 25.203125 23.007812 C 25.199219 23.015625 25.195312 23.023438 25.191406 23.03125 C 25.195312 23.023438 25.199219 23.015625 25.203125 23.007812 Z M 6.515625 23.035156 C 6.519531 23.042969 6.523438 23.050781 6.53125 23.0625 C 6.523438 23.050781 6.519531 23.042969 6.515625 23.035156 Z M 25.171875 23.058594 C 25.167969 23.066406 25.164062 23.070312 25.15625 23.078125 C 25.164062 23.070312 25.167969 23.066406 25.171875 23.058594 Z M 25.15625 23.078125 C 25.148438 23.085938 25.144531 23.09375 25.140625 23.101562 C 25.144531 23.09375 25.148438 23.085938 25.15625 23.078125 Z M 25.136719 23.101562 L 25.121094 23.121094 Z M 6.566406 23.109375 C 6.570312 23.113281 6.574219 23.117188 6.578125 23.121094 C 6.574219 23.117188 6.570312 23.113281 6.566406 23.109375 Z M 25.117188 23.125 C 25.113281 23.132812 25.109375 23.136719 25.105469 23.144531 C 25.109375 23.136719 25.113281 23.132812 25.117188 23.125 Z M 6.601562 23.148438 L 6.613281 23.160156 Z M 25.097656 23.148438 L 25.082031 23.164062 Z M 25.078125 23.167969 L 25.0625 23.183594 Z M 6.628906 23.175781 C 6.632812 23.179688 6.636719 23.183594 6.640625 23.1875 C 6.636719 23.183594 6.632812 23.179688 6.628906 23.175781 Z M 25.058594 23.1875 C 25.054688 23.195312 25.046875 23.199219 25.042969 23.203125 C 25.046875 23.199219 25.054688 23.195312 25.058594 23.1875 Z M 6.660156 23.207031 C 6.664062 23.210938 6.671875 23.214844 6.675781 23.222656 C 6.671875 23.214844 6.664062 23.210938 6.660156 23.207031 Z M 25.035156 23.210938 L 25.023438 23.222656 C 25.027344 23.21875 25.03125 23.214844 25.035156 23.210938 Z M 25.015625 23.230469 C 25.011719 23.234375 25.003906 23.238281 25 23.242188 C 25.003906 23.238281 25.007812 23.234375 25.015625 23.230469 Z M 6.695312 23.238281 C 6.699219 23.238281 6.703125 23.242188 6.707031 23.246094 C 6.703125 23.242188 6.699219 23.238281 6.695312 23.238281 Z M 24.992188 23.246094 L 24.976562 23.261719 Z M 6.726562 23.261719 L 6.738281 23.269531 Z M 24.945312 23.28125 C 24.9375 23.285156 24.933594 23.289062 24.929688 23.292969 C 24.933594 23.289062 24.9375 23.285156 24.945312 23.28125 Z M 6.769531 23.289062 L 6.78125 23.296875 Z M 24.917969 23.300781 C 24.914062 23.300781 24.910156 23.304688 24.90625 23.308594 C 24.910156 23.304688 24.914062 23.300781 24.917969 23.300781 Z M 6.800781 23.3125 C 6.804688 23.316406 6.8125 23.316406 6.816406 23.320312 C 6.8125 23.316406 6.808594 23.316406 6.800781 23.3125 Z M 24.894531 23.316406 C 24.890625 23.316406 24.882812 23.320312 24.878906 23.324219 C 24.882812 23.320312 24.890625 23.316406 24.894531 23.316406 Z M 24.867188 23.328125 L 24.851562 23.339844 Z M 6.84375 23.335938 C 6.847656 23.339844 6.851562 23.339844 6.855469 23.339844 C 6.851562 23.339844 6.847656 23.339844 6.84375 23.335938 Z M 24.839844 23.34375 C 24.835938 23.347656 24.832031 23.347656 24.828125 23.351562 C 24.832031 23.347656 24.835938 23.347656 24.839844 23.34375 Z M 24.8125 23.355469 C 24.808594 23.359375 24.804688 23.359375 24.800781 23.363281 C 24.804688 23.359375 24.808594 23.359375 24.8125 23.355469 Z M 24.785156 23.367188 C 24.78125 23.371094 24.777344 23.371094 24.773438 23.375 C 24.777344 23.371094 24.78125 23.371094 24.785156 23.367188 Z M 6.921875 23.371094 L 6.933594 23.375 Z M 24.757812 23.378906 C 24.753906 23.382812 24.75 23.382812 24.746094 23.386719 C 24.75 23.382812 24.753906 23.382812 24.757812 23.378906 Z M 24.730469 23.390625 C 24.726562 23.390625 24.722656 23.394531 24.714844 23.394531 C 24.722656 23.394531 24.726562 23.390625 24.730469 23.390625 Z M 24.644531 23.417969 C 24.640625 23.417969 24.632812 23.421875 24.628906 23.421875 C 24.632812 23.421875 24.640625 23.417969 24.644531 23.417969 Z M 24.617188 23.421875 L 24.597656 23.425781 Z M 7.097656 23.425781 C 7.101562 23.425781 7.105469 23.429688 7.109375 23.429688 C 7.105469 23.429688 7.101562 23.425781 7.097656 23.425781 Z M 24.582031 23.429688 C 24.578125 23.429688 24.574219 23.433594 24.566406 23.433594 C 24.574219 23.433594 24.578125 23.433594 24.582031 23.429688 Z M 7.144531 23.433594 C 7.144531 23.433594 7.148438 23.433594 7.152344 23.433594 C 7.148438 23.433594 7.144531 23.433594 7.144531 23.433594 Z M 24.550781 23.433594 C 24.546875 23.4375 24.542969 23.4375 24.539062 23.4375 C 24.542969 23.4375 24.546875 23.4375 24.550781 23.433594 Z M 24.515625 23.4375 C 24.511719 23.441406 24.511719 23.441406 24.507812 23.441406 C 24.511719 23.441406 24.515625 23.441406 24.515625 23.4375 Z M 7.191406 23.441406 C 7.203125 23.441406 7.210938 23.441406 7.222656 23.441406 C 7.210938 23.441406 7.203125 23.441406 7.191406 23.441406 Z M 24.484375 23.441406 L 24.476562 23.441406 Z M 7.226562 23.441406 C 7.234375 23.441406 7.242188 23.445312 7.253906 23.445312 C 7.246094 23.445312 7.234375 23.441406 7.226562 23.441406 Z M 24.453125 23.445312 L 24.441406 23.445312 Z M 7.261719 23.445312 C 7.269531 23.445312 7.28125 23.445312 7.289062 23.445312 C 7.28125 23.445312 7.269531 23.445312 7.261719 23.445312 Z M 7.261719 23.445312 "/>
<path style=" stroke:none;fill-rule:nonzero;fill:rgb(49.411765%,34.117648%,76.078433%);fill-opacity:1;" d="M 15.871094 6.703125 C 15.175781 6.703125 14.964844 7.429688 14.652344 7.910156 C 11.929688 12.636719 9.191406 17.355469 6.472656 22.089844 C 6.246094 22.46875 6.378906 23.226562 6.796875 22.679688 C 9.144531 20.863281 11.519531 19.050781 13.839844 17.234375 C 14.898438 16.410156 15.953125 15.589844 17.011719 14.765625 C 17.027344 14.71875 16.953125 14.320312 16.933594 14.140625 C 16.578125 11.660156 16.226562 9.179688 15.867188 6.699219 Z M 15.871094 6.703125 "/>
<path style=" stroke:none;fill-rule:nonzero;fill:rgb(40.000001%,73.333335%,41.568628%);fill-opacity:1;" d="M 12.910156 17.980469 L 6.460938 22.941406 C 6.609375 23.242188 6.925781 23.449219 7.292969 23.449219 L 24.410156 23.449219 C 24.75 23.449219 25.042969 23.269531 25.207031 23.007812 L 15.308594 18.953125 Z M 12.910156 17.980469 "/>
<path style=" stroke:none;fill-rule:nonzero;fill:rgb(93.725491%,32.549021%,31.37255%);fill-opacity:1;" d="M 15.871094 6.695312 L 17.726562 19.9375 C 16.921875 19.609375 16.117188 19.28125 15.3125 18.957031 L 25.207031 23.007812 C 25.667969 22.40625 25.121094 21.769531 24.828125 21.234375 C 22.09375 16.507812 19.375 11.769531 16.628906 7.046875 C 16.457031 6.824219 16.152344 6.695312 15.871094 6.695312 Z M 12.898438 17.976562 C 10.753906 19.628906 8.601562 21.285156 6.460938 22.941406 C 8.609375 21.289062 10.761719 19.632812 12.910156 17.980469 Z M 6.367188 22.542969 L 6.367188 22.570312 Z M 6.367188 22.574219 L 6.367188 22.59375 Z M 6.367188 22.601562 L 6.367188 22.617188 Z M 6.371094 22.628906 L 6.371094 22.644531 Z M 6.375 22.652344 L 6.375 22.667969 Z M 6.375 22.675781 L 6.378906 22.699219 Z M 6.378906 22.699219 L 6.386719 22.730469 Z M 6.394531 22.765625 L 6.394531 22.773438 Z M 6.40625 22.804688 L 6.410156 22.816406 Z M 6.421875 22.851562 L 6.425781 22.863281 Z M 6.4375 22.894531 L 6.441406 22.902344 Z M 6.453125 22.929688 L 6.460938 22.9375 Z M 6.472656 22.96875 L 6.484375 22.984375 Z M 6.492188 23.003906 L 6.503906 23.019531 Z M 25.203125 23.007812 L 25.191406 23.03125 Z M 25.191406 23.035156 L 25.171875 23.054688 Z M 6.515625 23.035156 L 6.53125 23.0625 Z M 25.171875 23.058594 L 25.15625 23.078125 Z M 6.542969 23.078125 L 6.554688 23.09375 Z M 25.15625 23.082031 L 25.140625 23.101562 Z M 25.136719 23.101562 L 25.121094 23.121094 Z M 6.566406 23.109375 L 6.578125 23.121094 Z M 25.117188 23.125 L 25.105469 23.144531 Z M 6.601562 23.148438 L 6.613281 23.160156 Z M 25.097656 23.148438 L 25.082031 23.164062 Z M 25.078125 23.167969 L 25.0625 23.1875 Z M 6.628906 23.175781 L 6.640625 23.1875 Z M 25.058594 23.191406 L 25.042969 23.203125 Z M 6.660156 23.207031 L 6.675781 23.222656 Z M 25.035156 23.210938 L 25.023438 23.222656 Z M 25.015625 23.230469 L 25 23.242188 Z M 6.695312 23.238281 L 6.707031 23.246094 Z M 24.992188 23.246094 L 24.976562 23.261719 Z M 6.726562 23.261719 L 6.738281 23.269531 Z M 24.96875 23.265625 L 24.953125 23.277344 Z M 24.945312 23.28125 L 24.929688 23.292969 Z M 6.769531 23.289062 L 6.78125 23.296875 Z M 24.917969 23.300781 L 24.90625 23.308594 Z M 6.804688 23.3125 L 6.816406 23.320312 Z M 24.894531 23.316406 L 24.878906 23.324219 Z M 24.867188 23.328125 L 24.851562 23.335938 Z M 6.84375 23.335938 L 6.855469 23.339844 Z M 24.839844 23.34375 L 24.828125 23.351562 Z M 6.882812 23.355469 L 6.894531 23.359375 Z M 24.8125 23.355469 L 24.800781 23.363281 Z M 24.785156 23.367188 L 24.773438 23.375 Z M 6.921875 23.371094 L 6.933594 23.375 Z M 24.757812 23.378906 L 24.746094 23.386719 Z M 6.96875 23.390625 L 6.980469 23.390625 Z M 24.730469 23.390625 L 24.714844 23.394531 Z M 24.703125 23.398438 L 24.6875 23.40625 Z M 7.007812 23.402344 L 7.019531 23.40625 Z M 24.671875 23.410156 L 24.660156 23.414062 Z M 24.644531 23.414062 L 24.628906 23.421875 Z M 24.617188 23.421875 L 24.597656 23.425781 Z M 7.097656 23.425781 L 7.109375 23.425781 Z M 24.582031 23.429688 L 24.570312 23.433594 Z M 7.144531 23.433594 L 7.152344 23.433594 Z M 24.550781 23.433594 L 24.539062 23.4375 Z M 24.519531 23.4375 L 24.507812 23.441406 Z M 7.195312 23.441406 L 7.222656 23.441406 Z M 24.484375 23.441406 L 24.476562 23.441406 Z M 7.226562 23.441406 L 7.253906 23.445312 Z M 24.457031 23.445312 L 24.441406 23.445312 Z M 7.261719 23.445312 L 7.289062 23.445312 Z M 7.261719 23.445312 "/>
</g>
</svg>
