<?xml version="1.0" encoding="UTF-8"?>
<svg xmlns="http://www.w3.org/2000/svg" xmlns:xlink="http://www.w3.org/1999/xlink" width="32px" height="32px" viewBox="0 0 32 32" version="1.1">
<g id="surface1">
<path style=" stroke:none;fill-rule:nonzero;fill:rgb(88.235295%,74.509805%,90.588236%);fill-opacity:1;" d="M 2.644531 3.558594 L 29.105469 3.558594 C 29.835938 3.558594 30.425781 4.148438 30.425781 4.878906 L 30.425781 27.371094 C 30.425781 28.101562 29.835938 28.691406 29.105469 28.691406 L 2.644531 28.691406 C 1.914062 28.691406 1.324219 28.101562 1.324219 27.371094 L 1.324219 4.878906 C 1.324219 4.148438 1.914062 3.558594 2.644531 3.558594 Z M 2.644531 3.558594 "/>
<path style=" stroke:none;fill-rule:nonzero;fill:rgb(80.784315%,57.647061%,84.705883%);fill-opacity:1;" d="M 1.757812 3.898438 C 1.488281 4.140625 1.324219 4.488281 1.324219 4.878906 L 1.324219 27.371094 C 1.324219 28.101562 1.914062 28.691406 2.644531 28.691406 L 29.105469 28.691406 C 29.4375 28.691406 29.746094 28.570312 29.976562 28.363281 L 8.039062 8.847656 Z M 1.757812 3.898438 "/>
<path style=" stroke:none;fill-rule:nonzero;fill:rgb(72.941178%,40.784314%,78.431374%);fill-opacity:1;" d="M 30.011719 3.917969 L 1.738281 28.332031 C 1.976562 28.554688 2.292969 28.691406 2.644531 28.691406 L 29.105469 28.691406 C 29.835938 28.691406 30.425781 28.101562 30.425781 27.371094 L 30.425781 4.878906 C 30.425781 4.5 30.265625 4.15625 30.011719 3.917969 Z M 30.011719 3.917969 "/>
<path style=" stroke:none;fill-rule:nonzero;fill:rgb(25.882354%,64.705884%,96.078432%);fill-opacity:1;" d="M 5.953125 11.496094 L 9.261719 11.496094 C 9.625 11.496094 9.921875 11.789062 9.921875 12.15625 L 9.921875 14.800781 C 9.921875 15.167969 9.625 15.464844 9.261719 15.464844 L 5.953125 15.464844 C 5.585938 15.464844 5.292969 15.167969 5.292969 14.800781 L 5.292969 12.15625 C 5.292969 11.789062 5.585938 11.496094 5.953125 11.496094 Z M 5.953125 11.496094 "/>
<path style=" stroke:none;fill-rule:nonzero;fill:rgb(49.411765%,34.117648%,76.078433%);fill-opacity:1;" d="M 11.90625 11.496094 L 15.214844 11.496094 C 15.578125 11.496094 15.875 11.789062 15.875 12.15625 L 15.875 14.800781 C 15.875 15.167969 15.578125 15.464844 15.214844 15.464844 L 11.90625 15.464844 C 11.539062 15.464844 11.246094 15.167969 11.246094 14.800781 L 11.246094 12.15625 C 11.246094 11.789062 11.539062 11.496094 11.90625 11.496094 Z M 11.90625 11.496094 "/>
<path style=" stroke:none;fill-rule:nonzero;fill:rgb(40.000001%,73.333335%,41.568628%);fill-opacity:1;" d="M 17.859375 11.496094 L 21.167969 11.496094 C 21.53125 11.496094 21.828125 11.789062 21.828125 12.15625 L 21.828125 14.800781 C 21.828125 15.167969 21.53125 15.464844 21.167969 15.464844 L 17.859375 15.464844 C 17.492188 15.464844 17.199219 15.167969 17.199219 14.800781 L 17.199219 12.15625 C 17.199219 11.789062 17.492188 11.496094 17.859375 11.496094 Z M 17.859375 11.496094 "/>
<path style=" stroke:none;fill-rule:nonzero;fill:rgb(93.725491%,32.549021%,31.37255%);fill-opacity:1;" d="M 23.8125 11.496094 L 27.121094 11.496094 C 27.484375 11.496094 27.78125 11.789062 27.78125 12.15625 L 27.78125 14.800781 C 27.78125 15.167969 27.484375 15.464844 27.121094 15.464844 L 23.8125 15.464844 C 23.445312 15.464844 23.152344 15.167969 23.152344 14.800781 L 23.152344 12.15625 C 23.152344 11.789062 23.445312 11.496094 23.8125 11.496094 Z M 23.8125 11.496094 "/>
<path style=" stroke:none;fill-rule:nonzero;fill:rgb(36.078432%,41.960785%,75.294119%);fill-opacity:1;" d="M 5.953125 18.109375 L 9.261719 18.109375 C 9.625 18.109375 9.921875 18.40625 9.921875 18.769531 L 9.921875 21.417969 C 9.921875 21.78125 9.625 22.078125 9.261719 22.078125 L 5.953125 22.078125 C 5.585938 22.078125 5.292969 21.78125 5.292969 21.417969 L 5.292969 18.769531 C 5.292969 18.40625 5.585938 18.109375 5.953125 18.109375 Z M 5.953125 18.109375 "/>
<path style=" stroke:none;fill-rule:nonzero;fill:rgb(100%,65.490198%,14.901961%);fill-opacity:1;" d="M 11.90625 18.109375 L 15.214844 18.109375 C 15.578125 18.109375 15.875 18.40625 15.875 18.769531 L 15.875 21.417969 C 15.875 21.78125 15.578125 22.078125 15.214844 22.078125 L 11.90625 22.078125 C 11.539062 22.078125 11.246094 21.78125 11.246094 21.417969 L 11.246094 18.769531 C 11.246094 18.40625 11.539062 18.109375 11.90625 18.109375 Z M 11.90625 18.109375 "/>
<path style=" stroke:none;fill-rule:nonzero;fill:rgb(47.058824%,56.470591%,61.176473%);fill-opacity:1;" d="M 17.859375 18.109375 L 21.167969 18.109375 C 21.53125 18.109375 21.828125 18.40625 21.828125 18.769531 L 21.828125 21.417969 C 21.828125 21.78125 21.53125 22.078125 21.167969 22.078125 L 17.859375 22.078125 C 17.492188 22.078125 17.199219 21.78125 17.199219 21.417969 L 17.199219 18.769531 C 17.199219 18.40625 17.492188 18.109375 17.859375 18.109375 Z M 17.859375 18.109375 "/>
</g>
</svg>
