<?xml version="1.0" encoding="UTF-8"?>
<svg xmlns="http://www.w3.org/2000/svg" xmlns:xlink="http://www.w3.org/1999/xlink" width="32px" height="32px" viewBox="0 0 32 32" version="1.1">
<g id="surface1">
<path style=" stroke:none;fill-rule:nonzero;fill:rgb(100%,65.490198%,14.901961%);fill-opacity:1;" d="M 2.644531 1.574219 L 29.105469 1.574219 C 29.835938 1.574219 30.425781 2.164062 30.425781 2.894531 L 30.425781 29.355469 C 30.425781 30.085938 29.835938 30.675781 29.105469 30.675781 L 2.644531 30.675781 C 1.914062 30.675781 1.324219 30.085938 1.324219 29.355469 L 1.324219 2.894531 C 1.324219 2.164062 1.914062 1.574219 2.644531 1.574219 Z M 2.644531 1.574219 "/>
<path style=" stroke:none;fill-rule:nonzero;fill:rgb(25.882354%,25.882354%,25.882354%);fill-opacity:1;" d="M 14.550781 12.15625 L 17.199219 12.15625 C 17.5625 12.15625 17.859375 12.453125 17.859375 12.816406 L 17.859375 15.464844 C 17.859375 15.828125 17.5625 16.125 17.199219 16.125 L 14.550781 16.125 C 14.1875 16.125 13.890625 15.828125 13.890625 15.464844 L 13.890625 12.816406 C 13.890625 12.453125 14.1875 12.15625 14.550781 12.15625 Z M 14.550781 12.15625 "/>
<path style=" stroke:none;fill-rule:nonzero;fill:rgb(25.882354%,25.882354%,25.882354%);fill-opacity:1;" d="M 10.582031 16.125 L 13.230469 16.125 C 13.59375 16.125 13.890625 16.421875 13.890625 16.785156 L 13.890625 19.433594 C 13.890625 19.796875 13.59375 20.09375 13.230469 20.09375 L 10.582031 20.09375 C 10.21875 20.09375 9.921875 19.796875 9.921875 19.433594 L 9.921875 16.785156 C 9.921875 16.421875 10.21875 16.125 10.582031 16.125 Z M 10.582031 16.125 "/>
<path style=" stroke:none;fill-rule:nonzero;fill:rgb(25.882354%,25.882354%,25.882354%);fill-opacity:1;" d="M 18.519531 16.125 L 21.167969 16.125 C 21.53125 16.125 21.828125 16.421875 21.828125 16.785156 L 21.828125 19.433594 C 21.828125 19.796875 21.53125 20.09375 21.167969 20.09375 L 18.519531 20.09375 C 18.15625 20.09375 17.859375 19.796875 17.859375 19.433594 L 17.859375 16.785156 C 17.859375 16.421875 18.15625 16.125 18.519531 16.125 Z M 18.519531 16.125 "/>
<path style=" stroke:none;fill-rule:nonzero;fill:rgb(25.882354%,25.882354%,25.882354%);fill-opacity:1;" d="M 22.488281 12.15625 L 25.136719 12.15625 C 25.5 12.15625 25.796875 12.453125 25.796875 12.816406 L 25.796875 15.464844 C 25.796875 15.828125 25.5 16.125 25.136719 16.125 L 22.488281 16.125 C 22.125 16.125 21.828125 15.828125 21.828125 15.464844 L 21.828125 12.816406 C 21.828125 12.453125 22.125 12.15625 22.488281 12.15625 Z M 22.488281 12.15625 "/>
<path style=" stroke:none;fill-rule:nonzero;fill:rgb(25.882354%,25.882354%,25.882354%);fill-opacity:1;" d="M 6.613281 12.15625 L 9.261719 12.15625 C 9.625 12.15625 9.921875 12.453125 9.921875 12.816406 L 9.921875 15.464844 C 9.921875 15.828125 9.625 16.125 9.261719 16.125 L 6.613281 16.125 C 6.25 16.125 5.953125 15.828125 5.953125 15.464844 L 5.953125 12.816406 C 5.953125 12.453125 6.25 12.15625 6.613281 12.15625 Z M 6.613281 12.15625 "/>
<path style=" stroke:none;fill-rule:nonzero;fill:rgb(25.882354%,25.882354%,25.882354%);fill-opacity:1;" d="M 22.488281 12.15625 L 25.136719 12.15625 C 25.5 12.15625 25.796875 12.453125 25.796875 12.816406 L 25.796875 15.464844 C 25.796875 15.828125 25.5 16.125 25.136719 16.125 L 22.488281 16.125 C 22.125 16.125 21.828125 15.828125 21.828125 15.464844 L 21.828125 12.816406 C 21.828125 12.453125 22.125 12.15625 22.488281 12.15625 Z M 22.488281 12.15625 "/>
</g>
</svg>
