<?xml version="1.0" encoding="UTF-8"?>
<svg xmlns="http://www.w3.org/2000/svg" xmlns:xlink="http://www.w3.org/1999/xlink" width="32px" height="32px" viewBox="0 0 32 32" version="1.1">
<g id="surface1">
<path style=" stroke:none;fill-rule:nonzero;fill:rgb(89.803922%,22.352941%,20.784314%);fill-opacity:1;" d="M 5.292969 1.574219 L 26.457031 1.574219 C 27.1875 1.574219 27.78125 2.164062 27.78125 2.894531 L 27.78125 29.355469 C 27.78125 30.085938 27.1875 30.675781 26.457031 30.675781 L 5.292969 30.675781 C 4.5625 30.675781 3.96875 30.085938 3.96875 29.355469 L 3.96875 2.894531 C 3.96875 2.164062 4.5625 1.574219 5.292969 1.574219 Z M 5.292969 1.574219 "/>
<path style=" stroke:none;fill-rule:nonzero;fill:rgb(96.078432%,96.078432%,96.078432%);fill-opacity:1;" d="M 7.277344 2.234375 L 26.457031 2.234375 C 26.824219 2.234375 27.121094 2.53125 27.121094 2.894531 L 27.121094 29.355469 C 27.121094 29.71875 26.824219 30.015625 26.457031 30.015625 L 7.277344 30.015625 C 6.910156 30.015625 6.613281 29.71875 6.613281 29.355469 L 6.613281 2.894531 C 6.613281 2.53125 6.910156 2.234375 7.277344 2.234375 Z M 7.277344 2.234375 "/>
<path style=" stroke:none;fill-rule:nonzero;fill:rgb(93.725491%,32.549021%,31.37255%);fill-opacity:1;" d="M 7.9375 1.574219 L 7.9375 30.675781 L 25.136719 30.675781 C 25.867188 30.675781 26.457031 30.085938 26.457031 29.355469 L 26.457031 2.894531 C 26.457031 2.164062 25.867188 1.574219 25.136719 1.574219 Z M 7.9375 1.574219 "/>
<path style=" stroke:none;fill-rule:nonzero;fill:rgb(25.882354%,25.882354%,25.882354%);fill-opacity:1;" d="M 5.292969 1.574219 C 4.558594 1.574219 3.96875 2.164062 3.96875 2.894531 L 3.96875 29.355469 C 3.96875 30.085938 4.558594 30.675781 5.292969 30.675781 L 7.9375 30.675781 L 7.9375 1.574219 Z M 5.292969 1.574219 "/>
<path style=" stroke:none;fill-rule:nonzero;fill:rgb(38.039216%,38.039216%,38.039216%);fill-opacity:1;" d="M 3.96875 15.464844 L 7.277344 15.464844 L 7.277344 16.785156 L 3.96875 16.785156 Z M 3.96875 15.464844 "/>
<path style=" stroke:none;fill-rule:nonzero;fill:rgb(38.039216%,38.039216%,38.039216%);fill-opacity:1;" d="M 3.96875 8.1875 L 7.277344 8.1875 L 7.277344 9.511719 L 3.96875 9.511719 Z M 3.96875 8.1875 "/>
<path style=" stroke:none;fill-rule:nonzero;fill:rgb(38.039216%,38.039216%,38.039216%);fill-opacity:1;" d="M 3.96875 22.738281 L 7.277344 22.738281 L 7.277344 24.0625 L 3.96875 24.0625 Z M 3.96875 22.738281 "/>
<path style=" stroke:none;fill-rule:nonzero;fill:rgb(25.882354%,25.882354%,25.882354%);fill-opacity:1;" d="M 17.199219 7.527344 C 13.796875 7.527344 11.054688 10.082031 11.054688 13.257812 L 11.054688 23.90625 C 11.054688 24.359375 11.421875 24.722656 11.875 24.722656 L 12.695312 24.722656 C 13.148438 24.722656 13.511719 24.359375 13.511719 23.90625 L 13.511719 18.992188 L 20.882812 18.992188 L 20.882812 23.90625 C 20.882812 24.359375 21.25 24.722656 21.703125 24.722656 L 22.519531 24.722656 C 22.976562 24.722656 23.339844 24.359375 23.339844 23.90625 L 23.339844 13.257812 C 23.339844 10.082031 20.601562 7.527344 17.199219 7.527344 Z M 17.199219 9.984375 C 19.238281 9.984375 20.882812 11.808594 20.882812 14.078125 L 20.882812 16.535156 L 13.511719 16.535156 L 13.511719 14.078125 C 13.511719 11.808594 15.15625 9.984375 17.199219 9.984375 Z M 17.199219 9.984375 "/>
</g>
</svg>
