
<svg xmlns="http://www.w3.org/2000/svg" xmlns:xlink="http://www.w3.org/1999/xlink" width="32px" height="32px" viewBox="0 0 32 32" version="1.1">
<g id="surface1">
<path style=" stroke:none;fill-rule:nonzero;fill:rgb(25.882354%,25.882354%,25.882354%);fill-opacity:1;" d="M 2.644531 2.644531 L 29.105469 2.644531 C 29.835938 2.644531 30.425781 3.238281 30.425781 3.96875 L 30.425781 24.472656 C 30.425781 25.203125 29.835938 25.796875 29.105469 25.796875 L 2.644531 25.796875 C 1.914062 25.796875 1.324219 25.203125 1.324219 24.472656 L 1.324219 3.96875 C 1.324219 3.238281 1.914062 2.644531 2.644531 2.644531 Z M 2.644531 2.644531 "/>
<path style=" stroke:none;fill-rule:nonzero;fill:rgb(87.843138%,87.843138%,87.843138%);fill-opacity:1;" d="M 15.835938 21.167969 L 15.914062 21.167969 C 18.449219 21.167969 20.503906 23.238281 20.503906 25.796875 C 20.503906 28.355469 18.449219 30.425781 15.914062 30.425781 L 15.835938 30.425781 C 13.300781 30.425781 11.246094 28.355469 11.246094 25.796875 C 11.246094 23.238281 13.300781 21.167969 15.835938 21.167969 Z M 15.835938 21.167969 "/>
<path style=" stroke:none;fill-rule:nonzero;fill:rgb(87.843138%,87.843138%,87.843138%);fill-opacity:1;" d="M 24.445312 22.488281 L 24.503906 22.488281 C 26.3125 22.488281 27.78125 23.96875 27.78125 25.796875 C 27.78125 27.625 26.3125 29.105469 24.503906 29.105469 L 24.445312 29.105469 C 22.632812 29.105469 21.167969 27.625 21.167969 25.796875 C 21.167969 23.96875 22.632812 22.488281 24.445312 22.488281 Z M 24.445312 22.488281 "/>
<path style=" stroke:none;fill-rule:nonzero;fill:rgb(25.882354%,25.882354%,25.882354%);fill-opacity:1;" d="M 24.449219 23.152344 L 24.496094 23.152344 C 25.945312 23.152344 27.121094 24.335938 27.121094 25.796875 C 27.121094 27.257812 25.945312 28.441406 24.496094 28.441406 L 24.449219 28.441406 C 23.003906 28.441406 21.828125 27.257812 21.828125 25.796875 C 21.828125 24.335938 23.003906 23.152344 24.449219 23.152344 Z M 24.449219 23.152344 "/>
<path style=" stroke:none;fill-rule:nonzero;fill:rgb(87.843138%,87.843138%,87.843138%);fill-opacity:1;" d="M 7.246094 22.488281 L 7.304688 22.488281 C 9.117188 22.488281 10.582031 23.96875 10.582031 25.796875 C 10.582031 27.625 9.117188 29.105469 7.304688 29.105469 L 7.246094 29.105469 C 5.4375 29.105469 3.96875 27.625 3.96875 25.796875 C 3.96875 23.96875 5.4375 22.488281 7.246094 22.488281 Z M 7.246094 22.488281 "/>
<path style=" stroke:none;fill-rule:nonzero;fill:rgb(25.882354%,25.882354%,25.882354%);fill-opacity:1;" d="M 15.839844 21.828125 L 15.910156 21.828125 C 18.082031 21.828125 19.84375 23.605469 19.84375 25.796875 C 19.84375 27.988281 18.082031 29.765625 15.910156 29.765625 L 15.839844 29.765625 C 13.667969 29.765625 11.90625 27.988281 11.90625 25.796875 C 11.90625 23.605469 13.667969 21.828125 15.839844 21.828125 Z M 15.839844 21.828125 "/>
<path style=" stroke:none;fill-rule:nonzero;fill:rgb(96.078432%,96.078432%,96.078432%);fill-opacity:1;" d="M 14.566406 23.480469 C 14.378906 23.472656 14.222656 23.625 14.222656 23.8125 L 14.222656 27.78125 C 14.222656 28.039062 14.5 28.195312 14.722656 28.066406 L 18.03125 26.082031 C 18.242188 25.953125 18.242188 25.640625 18.03125 25.511719 L 14.722656 23.527344 C 14.675781 23.5 14.621094 23.484375 14.566406 23.480469 Z M 14.566406 23.480469 "/>
<path style=" stroke:none;fill-rule:nonzero;fill:rgb(96.078432%,96.078432%,96.078432%);fill-opacity:1;" d="M 24.96875 24.144531 C 24.789062 24.144531 24.644531 24.292969 24.644531 24.472656 L 24.644531 27.121094 C 24.644531 27.414062 25 27.5625 25.207031 27.355469 L 26.53125 26.03125 C 26.660156 25.902344 26.660156 25.691406 26.53125 25.5625 L 25.207031 24.238281 C 25.144531 24.175781 25.058594 24.140625 24.96875 24.144531 Z M 24.96875 24.144531 "/>
<path style=" stroke:none;fill-rule:nonzero;fill:rgb(96.078432%,96.078432%,96.078432%);fill-opacity:1;" d="M 22.980469 24.144531 C 22.800781 24.144531 22.65625 24.292969 22.65625 24.472656 L 22.65625 27.121094 C 22.65625 27.414062 23.011719 27.5625 23.21875 27.355469 L 24.542969 26.03125 C 24.671875 25.902344 24.671875 25.691406 24.542969 25.5625 L 23.21875 24.238281 C 23.15625 24.175781 23.070312 24.140625 22.980469 24.144531 Z M 22.980469 24.144531 "/>
<path style=" stroke:none;fill-rule:nonzero;fill:rgb(25.882354%,25.882354%,25.882354%);fill-opacity:1;" d="M 7.253906 23.152344 L 7.300781 23.152344 C 8.746094 23.152344 9.921875 24.335938 9.921875 25.796875 C 9.921875 27.257812 8.746094 28.441406 7.300781 28.441406 L 7.253906 28.441406 C 5.804688 28.441406 4.628906 27.257812 4.628906 25.796875 C 4.628906 24.335938 5.804688 23.152344 7.253906 23.152344 Z M 7.253906 23.152344 "/>
<path style=" stroke:none;fill-rule:nonzero;fill:rgb(96.078432%,96.078432%,96.078432%);fill-opacity:1;" d="M 6.613281 24.144531 C 6.796875 24.144531 6.941406 24.292969 6.941406 24.472656 L 6.941406 27.121094 C 6.941406 27.414062 6.585938 27.5625 6.375 27.355469 L 5.054688 26.03125 C 4.921875 25.902344 4.921875 25.691406 5.054688 25.5625 L 6.375 24.238281 C 6.4375 24.175781 6.523438 24.140625 6.613281 24.144531 Z M 6.613281 24.144531 "/>
<path style=" stroke:none;fill-rule:nonzero;fill:rgb(96.078432%,96.078432%,96.078432%);fill-opacity:1;" d="M 8.605469 24.144531 C 8.785156 24.144531 8.929688 24.292969 8.929688 24.472656 L 8.929688 27.121094 C 8.929688 27.414062 8.574219 27.5625 8.363281 27.355469 L 7.042969 26.03125 C 6.914062 25.902344 6.914062 25.691406 7.042969 25.5625 L 8.363281 24.238281 C 8.429688 24.175781 8.515625 24.140625 8.605469 24.144531 Z M 8.605469 24.144531 "/>
<path style=" stroke:none;fill-rule:nonzero;fill:rgb(93.333334%,93.333334%,93.333334%);fill-opacity:1;" d="M 25.136719 3.96875 L 29.105469 3.96875 L 29.105469 21.167969 L 25.136719 21.167969 Z M 25.136719 3.96875 "/>
<path style=" stroke:none;fill-rule:nonzero;fill:rgb(25.882354%,25.882354%,25.882354%);fill-opacity:1;" d="M 26.457031 5.292969 L 27.78125 5.292969 L 27.78125 6.613281 L 26.457031 6.613281 Z M 26.457031 5.292969 "/>
<path style=" stroke:none;fill-rule:nonzero;fill:rgb(25.882354%,25.882354%,25.882354%);fill-opacity:1;" d="M 26.457031 11.90625 L 27.78125 11.90625 L 27.78125 13.230469 L 26.457031 13.230469 Z M 26.457031 11.90625 "/>
<path style=" stroke:none;fill-rule:nonzero;fill:rgb(25.882354%,25.882354%,25.882354%);fill-opacity:1;" d="M 26.457031 18.519531 L 27.78125 18.519531 L 27.78125 19.84375 L 26.457031 19.84375 Z M 26.457031 18.519531 "/>
<path style=" stroke:none;fill-rule:nonzero;fill:rgb(93.333334%,93.333334%,93.333334%);fill-opacity:1;" d="M 6.613281 11.90625 L 25.136719 11.90625 L 25.136719 13.230469 L 6.613281 13.230469 Z M 6.613281 11.90625 "/>
<path style=" stroke:none;fill-rule:nonzero;fill:rgb(93.333334%,93.333334%,93.333334%);fill-opacity:1;" d="M 25.136719 3.96875 L 29.105469 3.96875 L 29.105469 21.167969 L 25.136719 21.167969 Z M 25.136719 3.96875 "/>
<path style=" stroke:none;fill-rule:nonzero;fill:rgb(25.882354%,25.882354%,25.882354%);fill-opacity:1;" d="M 26.457031 5.292969 L 27.78125 5.292969 L 27.78125 6.613281 L 26.457031 6.613281 Z M 26.457031 5.292969 "/>
<path style=" stroke:none;fill-rule:nonzero;fill:rgb(25.882354%,25.882354%,25.882354%);fill-opacity:1;" d="M 26.457031 11.90625 L 27.78125 11.90625 L 27.78125 13.230469 L 26.457031 13.230469 Z M 26.457031 11.90625 "/>
<path style=" stroke:none;fill-rule:nonzero;fill:rgb(25.882354%,25.882354%,25.882354%);fill-opacity:1;" d="M 26.457031 18.519531 L 27.78125 18.519531 L 27.78125 19.84375 L 26.457031 19.84375 Z M 26.457031 18.519531 "/>
<path style=" stroke:none;fill-rule:nonzero;fill:rgb(93.333334%,93.333334%,93.333334%);fill-opacity:1;" d="M 2.644531 3.96875 L 6.613281 3.96875 L 6.613281 21.167969 L 2.644531 21.167969 Z M 2.644531 3.96875 "/>
<path style=" stroke:none;fill-rule:nonzero;fill:rgb(25.882354%,25.882354%,25.882354%);fill-opacity:1;" d="M 3.96875 5.292969 L 5.292969 5.292969 L 5.292969 6.613281 L 3.96875 6.613281 Z M 3.96875 5.292969 "/>
<path style=" stroke:none;fill-rule:nonzero;fill:rgb(25.882354%,25.882354%,25.882354%);fill-opacity:1;" d="M 3.96875 11.90625 L 5.292969 11.90625 L 5.292969 13.230469 L 3.96875 13.230469 Z M 3.96875 11.90625 "/>
<path style=" stroke:none;fill-rule:nonzero;fill:rgb(25.882354%,25.882354%,25.882354%);fill-opacity:1;" d="M 3.96875 18.519531 L 5.292969 18.519531 L 5.292969 19.84375 L 3.96875 19.84375 Z M 3.96875 18.519531 "/>
</g>
</svg>
