<?xml version="1.0" encoding="UTF-8"?>
<svg xmlns="http://www.w3.org/2000/svg" xmlns:xlink="http://www.w3.org/1999/xlink" width="32" height="32" viewBox="0 0 32 32" version="1.1">
<g id="surface1">
<path style=" stroke:none;fill-rule:nonzero;fill:rgb(36.078432%,41.960785%,75.294119%);fill-opacity:1;" d="M 26.164062 5.585938 C 27.714844 7.136719 26.878906 10.484375 24.292969 13.070312 C 21.710938 15.652344 18.359375 16.488281 16.808594 14.941406 C 15.261719 13.390625 16.097656 10.039062 18.679688 7.457031 C 21.265625 4.871094 24.613281 4.035156 26.164062 5.585938 Z M 26.164062 5.585938 "/>
<path style=" stroke:none;fill-rule:nonzero;fill:rgb(49.411765%,34.117648%,76.078433%);fill-opacity:1;" d="M 30.425781 15.875 C 30.425781 18.066406 27.464844 19.84375 23.8125 19.84375 C 20.160156 19.84375 17.199219 18.066406 17.199219 15.875 C 17.199219 13.683594 20.160156 11.90625 23.8125 11.90625 C 27.464844 11.90625 30.425781 13.683594 30.425781 15.875 Z M 30.425781 15.875 "/>
<path style=" stroke:none;fill-rule:nonzero;fill:rgb(92.54902%,25.098041%,47.843137%);fill-opacity:1;" d="M 26.164062 26.164062 C 24.613281 27.714844 21.265625 26.878906 18.679688 24.292969 C 16.097656 21.710938 15.261719 18.359375 16.808594 16.808594 C 18.359375 15.261719 21.710938 16.097656 24.292969 18.679688 C 26.878906 21.265625 27.714844 24.613281 26.164062 26.164062 Z M 26.164062 26.164062 "/>
<path style=" stroke:none;fill-rule:nonzero;fill:rgb(93.725491%,32.549021%,31.37255%);fill-opacity:1;" d="M 15.875 30.425781 C 13.683594 30.425781 11.90625 27.464844 11.90625 23.8125 C 11.90625 20.160156 13.683594 17.199219 15.875 17.199219 C 18.066406 17.199219 19.84375 20.160156 19.84375 23.8125 C 19.84375 27.464844 18.066406 30.425781 15.875 30.425781 Z M 15.875 30.425781 "/>
<path style=" stroke:none;fill-rule:nonzero;fill:rgb(100%,43.921569%,26.274511%);fill-opacity:1;" d="M 14.941406 16.808594 C 16.488281 18.359375 15.652344 21.710938 13.070312 24.292969 C 10.484375 26.878906 7.136719 27.714844 5.585938 26.164062 C 4.035156 24.613281 4.871094 21.265625 7.457031 18.679688 C 10.039062 16.097656 13.390625 15.261719 14.941406 16.808594 Z M 14.941406 16.808594 "/>
<path style=" stroke:none;fill-rule:nonzero;fill:rgb(100%,65.490198%,14.901961%);fill-opacity:1;" d="M 14.550781 15.875 C 14.550781 18.066406 11.589844 19.84375 7.9375 19.84375 C 4.285156 19.84375 1.324219 18.066406 1.324219 15.875 C 1.324219 13.683594 4.285156 11.90625 7.9375 11.90625 C 11.589844 11.90625 14.550781 13.683594 14.550781 15.875 Z M 14.550781 15.875 "/>
<path style=" stroke:none;fill-rule:nonzero;fill:rgb(61.176473%,80.000001%,39.607844%);fill-opacity:1;" d="M 14.941406 14.941406 C 13.390625 16.488281 10.039062 15.652344 7.457031 13.070312 C 4.871094 10.484375 4.035156 7.136719 5.585938 5.585938 C 7.136719 4.035156 10.484375 4.871094 13.070312 7.457031 C 15.652344 10.039062 16.488281 13.390625 14.941406 14.941406 Z M 14.941406 14.941406 "/>
<path style=" stroke:none;fill-rule:nonzero;fill:rgb(14.901961%,65.098041%,60.392159%);fill-opacity:1;" d="M 15.875 14.550781 C 13.683594 14.550781 11.90625 11.589844 11.90625 7.9375 C 11.90625 4.285156 13.683594 1.324219 15.875 1.324219 C 18.066406 1.324219 19.84375 4.285156 19.84375 7.9375 C 19.84375 11.589844 18.066406 14.550781 15.875 14.550781 Z M 15.875 14.550781 "/>
<path style=" stroke:none;fill-rule:nonzero;fill:rgb(36.078432%,41.960785%,75.294119%);fill-opacity:1;" d="M 26.164062 5.585938 C 24.609375 4.03125 21.273438 4.863281 18.679688 7.457031 C 16.089844 10.046875 15.253906 13.386719 16.808594 14.941406 Z M 26.164062 5.585938 "/>
<path style=" stroke:none;fill-rule:nonzero;fill:rgb(93.333334%,93.333334%,93.333334%);fill-opacity:0.996078;" d="M 15.875 8.597656 C 11.84375 8.597656 8.597656 11.84375 8.597656 15.875 C 8.597656 19.90625 11.84375 23.152344 15.875 23.152344 C 19.90625 23.152344 23.152344 19.90625 23.152344 15.875 C 23.152344 15.652344 23.140625 15.429688 23.121094 15.214844 L 23.152344 15.214844 L 23.152344 10.582031 C 23.152344 9.484375 22.265625 8.597656 21.167969 8.597656 Z M 15.875 8.597656 "/>
<path style=" stroke:none;fill-rule:nonzero;fill:rgb(36.078432%,41.960785%,75.294119%);fill-opacity:1;" d="M 19.84375 9.921875 C 20.941406 9.921875 21.828125 10.808594 21.828125 11.90625 C 21.828125 13.003906 20.941406 13.890625 19.84375 13.890625 C 18.746094 13.890625 17.859375 13.003906 17.859375 11.90625 C 17.859375 10.808594 18.746094 9.921875 19.84375 9.921875 Z M 19.84375 9.921875 "/>
</g>
</svg>
