<?xml version="1.0" encoding="UTF-8"?>
<svg xmlns="http://www.w3.org/2000/svg" xmlns:xlink="http://www.w3.org/1999/xlink" width="32px" height="32px" viewBox="0 0 32 32" version="1.1">
<g id="surface1">
<path style=" stroke:none;fill-rule:nonzero;fill:rgb(67.058825%,27.843139%,73.725492%);fill-opacity:1;" d="M 15.875 1.574219 C 23.910156 1.574219 30.425781 8.089844 30.425781 16.125 C 30.425781 24.160156 23.910156 30.675781 15.875 30.675781 C 7.839844 30.675781 1.324219 24.160156 1.324219 16.125 C 1.324219 8.089844 7.839844 1.574219 15.875 1.574219 Z M 15.875 1.574219 "/>
<path style=" stroke:none;fill-rule:nonzero;fill:rgb(93.333334%,93.333334%,93.333334%);fill-opacity:1;" d="M 23.15625 13.105469 C 23.125 14.441406 23.273438 15.882812 22.613281 17.097656 C 22.164062 17.851562 21.441406 18.398438 20.671875 18.804688 C 20.773438 20.496094 20.808594 22.910156 19.839844 24.007812 C 19.324219 24.597656 18.675781 24.921875 17.527344 24.996094 C 15.78125 25.085938 13.992188 25.167969 12.273438 24.753906 C 11.453125 24.515625 10.402344 24.285156 10.132812 23.34375 C 9.730469 22.535156 9.9375 21.625 9.867188 20.757812 C 9.804688 17.148438 10.347656 13.558594 10.949219 10.011719 C 10.710938 9.769531 9.542969 10.128906 9.542969 9.261719 C 9.542969 8.398438 11.550781 7.464844 12.597656 7.398438 C 14.257812 7.039062 15.984375 7.179688 17.648438 7.414062 C 18.59375 7.785156 19.605469 7.554688 20.566406 7.75 C 23.207031 8.691406 23.136719 10.742188 23.15625 13.105469 Z M 21.265625 14.523438 C 21.207031 13.152344 21.398438 11.921875 20.855469 10.746094 C 20.347656 9.980469 19.480469 9.695312 19.84375 11.246094 C 20.125 13.105469 20.265625 14.980469 20.441406 16.851562 C 21.257812 16.390625 21.199219 15.324219 21.265625 14.523438 Z M 21.265625 14.523438 "/>
</g>
</svg>
