<?xml version="1.0" encoding="UTF-8"?>
<svg xmlns="http://www.w3.org/2000/svg" xmlns:xlink="http://www.w3.org/1999/xlink" width="32px" height="32px" viewBox="0 0 32 32" version="1.1">
<g id="surface1">
<path style=" stroke:none;fill-rule:nonzero;fill:rgb(74.117649%,74.117649%,74.117649%);fill-opacity:1;" d="M 5.292969 1.574219 L 26.457031 1.574219 C 27.1875 1.574219 27.78125 2.164062 27.78125 2.894531 L 27.78125 29.355469 C 27.78125 30.085938 27.1875 30.675781 26.457031 30.675781 L 5.292969 30.675781 C 4.5625 30.675781 3.96875 30.085938 3.96875 29.355469 L 3.96875 2.894531 C 3.96875 2.164062 4.5625 1.574219 5.292969 1.574219 Z M 5.292969 1.574219 "/>
<path style=" stroke:none;fill-rule:nonzero;fill:rgb(93.333334%,93.333334%,93.333334%);fill-opacity:1;" d="M 15.875 4.21875 C 20.988281 4.21875 25.136719 8.363281 25.136719 13.480469 C 25.136719 18.59375 20.988281 22.738281 15.875 22.738281 C 10.761719 22.738281 6.613281 18.59375 6.613281 13.480469 C 6.613281 8.363281 10.761719 4.21875 15.875 4.21875 Z M 15.875 4.21875 "/>
<path style=" stroke:none;fill-rule:nonzero;fill:rgb(87.843138%,87.843138%,87.843138%);fill-opacity:1;" d="M 15.875 4.878906 C 20.625 4.878906 24.472656 8.730469 24.472656 13.480469 C 24.472656 18.226562 20.625 22.078125 15.875 22.078125 C 11.125 22.078125 7.277344 18.226562 7.277344 13.480469 C 7.277344 8.730469 11.125 4.878906 15.875 4.878906 Z M 15.875 4.878906 "/>
<path style=" stroke:none;fill-rule:nonzero;fill:rgb(100%,43.921569%,26.274511%);fill-opacity:1;" d="M 7.277344 13.480469 C 7.277344 18.242188 11.109375 22.078125 15.875 22.078125 C 20.640625 22.078125 24.472656 18.242188 24.472656 13.480469 C 18.519531 10.832031 13.230469 17.449219 7.277344 13.480469 Z M 7.277344 13.480469 "/>
<path style=" stroke:none;fill-rule:nonzero;fill:rgb(93.333334%,93.333334%,93.333334%);fill-opacity:1;" d="M 13.710938 16.976562 C 13.613281 16.878906 13.464844 16.851562 13.335938 16.90625 L 9.238281 18.769531 C 8.570312 18.777344 7.90625 19.035156 7.394531 19.546875 C 6.355469 20.582031 6.355469 22.253906 7.394531 23.289062 C 8.429688 24.324219 10.097656 24.324219 11.136719 23.289062 C 11.648438 22.777344 11.90625 22.113281 11.910156 21.445312 L 13.773438 17.34375 C 13.832031 17.222656 13.804688 17.074219 13.710938 16.976562 Z M 13.710938 16.976562 "/>
<path style=" stroke:none;fill-rule:nonzero;fill:rgb(45.882353%,45.882353%,45.882353%);fill-opacity:1;" d="M 7.9375 26.707031 C 8.667969 26.707031 9.261719 27.300781 9.261719 28.03125 C 9.261719 28.761719 8.667969 29.355469 7.9375 29.355469 C 7.207031 29.355469 6.613281 28.761719 6.613281 28.03125 C 6.613281 27.300781 7.207031 26.707031 7.9375 26.707031 Z M 7.9375 26.707031 "/>
<path style=" stroke:none;fill-rule:nonzero;fill:rgb(45.882353%,45.882353%,45.882353%);fill-opacity:1;" d="M 23.8125 26.707031 C 24.542969 26.707031 25.136719 27.300781 25.136719 28.03125 C 25.136719 28.761719 24.542969 29.355469 23.8125 29.355469 C 23.082031 29.355469 22.488281 28.761719 22.488281 28.03125 C 22.488281 27.300781 23.082031 26.707031 23.8125 26.707031 Z M 23.8125 26.707031 "/>
<path style=" stroke:none;fill-rule:nonzero;fill:rgb(45.882353%,45.882353%,45.882353%);fill-opacity:1;" d="M 11.90625 25.386719 L 19.84375 25.386719 C 20.210938 25.386719 20.503906 25.679688 20.503906 26.046875 C 20.503906 26.414062 20.210938 26.707031 19.84375 26.707031 L 11.90625 26.707031 C 11.539062 26.707031 11.246094 26.414062 11.246094 26.046875 C 11.246094 25.679688 11.539062 25.386719 11.90625 25.386719 Z M 11.90625 25.386719 "/>
<path style=" stroke:none;fill-rule:nonzero;fill:rgb(74.117649%,74.117649%,74.117649%);fill-opacity:1;" d="M 7.9375 27.371094 C 8.304688 27.371094 8.597656 27.664062 8.597656 28.03125 C 8.597656 28.398438 8.304688 28.691406 7.9375 28.691406 C 7.570312 28.691406 7.277344 28.398438 7.277344 28.03125 C 7.277344 27.664062 7.570312 27.371094 7.9375 27.371094 Z M 7.9375 27.371094 "/>
<path style=" stroke:none;fill-rule:nonzero;fill:rgb(74.117649%,74.117649%,74.117649%);fill-opacity:1;" d="M 23.8125 27.371094 C 24.179688 27.371094 24.472656 27.664062 24.472656 28.03125 C 24.472656 28.398438 24.179688 28.691406 23.8125 28.691406 C 23.445312 28.691406 23.152344 28.398438 23.152344 28.03125 C 23.152344 27.664062 23.445312 27.371094 23.8125 27.371094 Z M 23.8125 27.371094 "/>
</g>
</svg>
