
<svg xmlns="http://www.w3.org/2000/svg" xmlns:xlink="http://www.w3.org/1999/xlink" width="32px" height="32px" viewBox="0 0 32 32" version="1.1">
<g id="surface1">
<path style=" stroke:none;fill-rule:nonzero;fill:rgb(92.54902%,25.098041%,47.843137%);fill-opacity:1;" d="M 16 1.324219 C 24.035156 1.324219 30.550781 7.839844 30.550781 15.875 C 30.550781 23.910156 24.035156 30.425781 16 30.425781 C 7.964844 30.425781 1.449219 23.910156 1.449219 15.875 C 1.449219 7.839844 7.964844 1.324219 16 1.324219 Z M 16 1.324219 "/>
<path style=" stroke:none;fill-rule:nonzero;fill:rgb(100%,100%,100%);fill-opacity:1;" d="M 7.863281 12.523438 C 7.96875 12.1875 7.988281 11.984375 8.03125 11.785156 C 7.730469 12.175781 7.894531 12.261719 7.863281 12.523438 M 8.414062 10.171875 C 8.46875 10.679688 8.039062 10.878906 8.511719 10.542969 C 8.761719 9.964844 8.410156 10.382812 8.414062 10.171875 M 16.632812 5.722656 C 16.867188 5.636719 17.207031 5.675781 17.457031 5.617188 C 17.132812 5.644531 16.808594 5.664062 16.492188 5.703125 L 16.632812 5.722656 M 24.152344 15.214844 L 24.101562 15.34375 C 24.007812 16.015625 23.804688 16.683594 23.496094 17.304688 C 23.839844 16.652344 24.058594 15.9375 24.152344 15.214844 M 14.636719 17.320312 C 14.515625 17.183594 14.445312 17.019531 14.363281 16.859375 C 14.441406 17.144531 14.597656 17.390625 14.742188 17.640625 L 14.636719 17.320312 M 14.097656 17.339844 L 14.050781 17.589844 C 14.277344 17.902344 14.457031 18.246094 14.746094 18.488281 C 14.539062 18.074219 14.382812 17.902344 14.097656 17.339844 M 16.933594 5.996094 L 16.800781 6.023438 L 16.921875 6.015625 L 16.933594 6 M 16.566406 5.894531 C 16.75 5.925781 16.964844 5.953125 16.933594 6 C 17.136719 5.953125 17.183594 5.910156 16.566406 5.894531 M 20.421875 14.570312 C 20.460938 13.933594 20.296875 14.136719 20.242188 14.378906 C 20.308594 14.410156 20.359375 14.824219 20.421875 14.570312 M 19.734375 16.386719 C 19.941406 16.097656 20.089844 15.78125 20.144531 15.453125 C 20.097656 15.683594 19.972656 15.886719 19.855469 16.101562 C 19.210938 16.515625 19.796875 15.855469 19.855469 15.601562 C 19.160156 16.496094 19.761719 16.136719 19.734375 16.386719 M 17.878906 16.859375 C 17.53125 16.863281 17.941406 17.039062 18.394531 17.109375 C 18.519531 17.011719 18.632812 16.910156 18.734375 16.8125 C 18.453125 16.882812 18.164062 16.882812 17.878906 16.855469 M 7.863281 12.527344 C 7.972656 12.1875 7.992188 11.984375 8.035156 11.789062 C 7.734375 12.175781 7.894531 12.261719 7.863281 12.527344 M 8.417969 10.171875 C 8.472656 10.679688 8.042969 10.878906 8.511719 10.542969 C 8.765625 9.964844 8.414062 10.382812 8.417969 10.171875 M 16.632812 5.722656 C 16.867188 5.636719 17.207031 5.675781 17.457031 5.617188 C 17.132812 5.644531 16.8125 5.664062 16.492188 5.703125 L 16.632812 5.722656 M 24.152344 15.214844 L 24.101562 15.34375 C 24.011719 16.019531 23.808594 16.683594 23.5 17.304688 C 23.839844 16.652344 24.058594 15.9375 24.152344 15.214844 M 14.636719 17.320312 C 14.515625 17.183594 14.445312 17.019531 14.367188 16.859375 C 14.441406 17.144531 14.597656 17.390625 14.742188 17.640625 L 14.636719 17.320312 M 14.097656 17.339844 L 14.050781 17.589844 C 14.277344 17.902344 14.460938 18.246094 14.75 18.488281 C 14.539062 18.074219 14.386719 17.902344 14.097656 17.339844 M 16.933594 5.996094 L 16.804688 6.023438 L 16.925781 6.011719 L 16.933594 5.996094 M 22.097656 14.832031 C 22.117188 15.367188 21.945312 15.625 21.792969 16.082031 L 21.519531 16.226562 C 21.296875 16.679688 21.542969 16.511719 21.382812 16.871094 C 21.03125 17.195312 20.320312 17.886719 20.09375 17.949219 C 19.925781 17.945312 20.203125 17.742188 20.242188 17.664062 C 19.773438 18 19.863281 18.167969 19.148438 18.371094 L 19.128906 18.324219 C 17.359375 19.1875 14.90625 17.472656 14.9375 15.136719 C 14.917969 15.285156 14.886719 15.246094 14.847656 15.308594 C 14.753906 14.105469 15.378906 12.898438 16.433594 12.402344 C 17.464844 11.871094 18.675781 12.089844 19.414062 12.808594 C 19.007812 12.253906 18.199219 11.667969 17.242188 11.722656 C 16.304688 11.738281 15.429688 12.359375 15.136719 13.03125 C 14.65625 13.34375 14.597656 14.242188 14.390625 14.40625 C 14.109375 16.5625 14.921875 17.492188 16.292969 18.585938 C 16.507812 18.734375 16.355469 18.757812 16.382812 18.875 C 15.925781 18.652344 15.507812 18.316406 15.164062 17.90625 C 15.347656 18.183594 15.542969 18.453125 15.796875 18.664062 C 15.367188 18.515625 14.792969 17.582031 14.625 17.542969 C 15.367188 18.925781 17.632812 19.964844 18.820312 19.449219 C 18.269531 19.46875 17.574219 19.460938 16.957031 19.222656 C 16.695312 19.082031 16.34375 18.796875 16.410156 18.742188 C 18.027344 19.371094 19.699219 19.21875 21.101562 18.050781 C 21.457031 17.761719 21.847656 17.269531 21.960938 17.265625 C 21.789062 17.53125 21.988281 17.390625 21.859375 17.625 C 22.214844 17.03125 21.703125 17.382812 22.226562 16.597656 L 22.417969 16.871094 C 22.347656 16.378906 23.007812 15.777344 22.941406 14.996094 C 23.09375 14.757812 23.109375 15.253906 22.949219 15.804688 C 23.171875 15.191406 23.007812 15.09375 23.066406 14.589844 C 23.128906 14.761719 23.210938 14.941406 23.25 15.117188 C 23.105469 14.527344 23.402344 14.125 23.472656 13.78125 C 23.402344 13.75 23.25 14.042969 23.214844 13.347656 C 23.21875 13.042969 23.292969 13.1875 23.324219 13.113281 C 23.265625 13.078125 23.117188 12.847656 23.027344 12.402344 C 23.089844 12.296875 23.203125 12.671875 23.292969 12.6875 C 23.234375 12.335938 23.136719 12.066406 23.132812 11.792969 C 22.867188 11.222656 23.039062 11.871094 22.824219 11.546875 C 22.546875 10.640625 23.058594 11.335938 23.089844 10.925781 C 23.515625 11.5625 23.757812 12.554688 23.867188 12.964844 C 23.785156 12.464844 23.648438 11.980469 23.480469 11.511719 C 23.609375 11.566406 23.273438 10.480469 23.648438 11.199219 C 23.246094 9.667969 21.933594 8.238281 20.726562 7.566406 C 20.871094 7.707031 21.058594 7.882812 20.992188 7.910156 C 20.390625 7.539062 20.496094 7.507812 20.410156 7.351562 C 19.921875 7.144531 19.890625 7.371094 19.566406 7.351562 C 18.644531 6.84375 18.464844 6.898438 17.617188 6.578125 L 17.65625 6.765625 C 17.042969 6.554688 16.941406 6.847656 16.28125 6.765625 C 16.242188 6.734375 16.496094 6.648438 16.703125 6.617188 C 16.109375 6.699219 16.136719 6.496094 15.558594 6.640625 C 15.703125 6.535156 15.855469 6.46875 16.003906 6.378906 C 15.523438 6.410156 14.855469 6.671875 15.0625 6.433594 C 14.277344 6.796875 12.878906 7.308594 12.097656 8.074219 L 12.070312 7.902344 C 11.714844 8.351562 10.507812 9.242188 10.410156 9.820312 L 10.316406 9.84375 C 10.128906 10.175781 10.007812 10.546875 9.859375 10.886719 C 9.613281 11.316406 9.5 11.050781 9.535156 11.121094 C 9.054688 12.132812 8.816406 12.984375 8.609375 13.683594 C 8.757812 13.910156 8.613281 15.058594 8.667969 15.972656 C 8.429688 20.507812 11.726562 24.90625 15.332031 25.921875 C 15.863281 26.117188 16.648438 26.113281 17.316406 26.132812 C 16.527344 25.898438 16.425781 26.007812 15.65625 25.726562 C 15.101562 25.457031 14.980469 25.148438 14.589844 24.792969 L 14.746094 25.078125 C 13.976562 24.792969 14.296875 24.726562 13.671875 24.519531 L 13.835938 24.296875 C 13.589844 24.277344 13.175781 23.859375 13.0625 23.625 L 12.789062 23.636719 C 12.460938 23.21875 12.289062 22.914062 12.300781 22.679688 L 12.210938 22.84375 C 12.113281 22.664062 11.003906 21.261719 11.578125 21.589844 C 11.472656 21.488281 11.332031 21.425781 11.175781 21.132812 L 11.292969 20.996094 C 11.019531 20.625 10.785156 20.152344 10.804688 19.992188 C 10.949219 20.199219 11.054688 20.238281 11.15625 20.273438 C 10.457031 18.472656 10.417969 20.175781 9.890625 18.441406 L 10 18.429688 C 9.914062 18.296875 9.863281 18.152344 9.792969 18.007812 L 9.84375 17.503906 C 9.339844 16.898438 9.703125 14.933594 9.773438 13.855469 C 9.824219 13.417969 10.195312 12.953125 10.472656 12.21875 L 10.304688 12.191406 C 10.628906 11.597656 12.171875 9.808594 12.882812 9.898438 C 13.230469 9.449219 12.816406 9.898438 12.746094 9.785156 C 13.507812 8.96875 13.746094 9.207031 14.257812 9.058594 C 14.808594 8.71875 13.785156 9.191406 14.046875 8.929688 C 15 8.675781 14.722656 8.351562 15.96875 8.222656 C 16.097656 8.300781 15.664062 8.34375 15.554688 8.445312 C 16.347656 8.039062 18.070312 8.132812 19.191406 8.667969 C 20.488281 9.300781 21.945312 11.164062 22.003906 12.921875 L 22.070312 12.9375 C 22.035156 13.636719 22.171875 14.441406 21.9375 15.183594 L 22.09375 14.832031 M 16.566406 5.894531 C 16.75 5.925781 16.964844 5.953125 16.933594 6 C 17.136719 5.953125 17.183594 5.914062 16.566406 5.894531 M 20.421875 14.570312 C 20.464844 13.933594 20.300781 14.136719 20.242188 14.378906 C 20.308594 14.414062 20.359375 14.824219 20.421875 14.570312 M 19.734375 16.386719 C 19.941406 16.097656 20.09375 15.78125 20.144531 15.453125 C 20.097656 15.6875 19.976562 15.886719 19.855469 16.101562 C 19.210938 16.515625 19.796875 15.855469 19.855469 15.601562 C 19.160156 16.496094 19.761719 16.136719 19.734375 16.386719 M 17.878906 16.859375 C 17.53125 16.863281 17.945312 17.039062 18.394531 17.113281 C 18.519531 17.011719 18.632812 16.910156 18.734375 16.8125 C 18.453125 16.882812 18.167969 16.886719 17.878906 16.859375 "/>
</g>
</svg>
