
<svg xmlns="http://www.w3.org/2000/svg" xmlns:xlink="http://www.w3.org/1999/xlink" width="32px" height="32px" viewBox="0 0 32 32" version="1.1">
<g id="surface1">
<path style=" stroke:none;fill-rule:nonzero;fill:rgb(36.078432%,41.960785%,75.294119%);fill-opacity:1;" d="M 29.78125 11.65625 C 29.464844 10.617188 29.023438 9.601562 28.457031 8.617188 C 27.71875 7.339844 26.820312 6.214844 25.796875 5.257812 L 20.398438 11.03125 C 20.867188 11.46875 21.277344 11.984375 21.617188 12.566406 C 21.875 13.015625 22.074219 13.480469 22.222656 13.957031 Z M 29.78125 11.65625 "/>
<path style=" stroke:none;fill-rule:nonzero;fill:rgb(25.882354%,64.705884%,96.078432%);fill-opacity:1;" d="M 20.40625 11.039062 L 25.832031 5.238281 C 23.941406 3.464844 21.636719 2.257812 19.183594 1.6875 L 17.386719 9.425781 C 18.5 9.683594 19.546875 10.234375 20.40625 11.039062 Z M 20.40625 11.039062 "/>
<path style=" stroke:none;fill-rule:nonzero;fill:rgb(93.725491%,32.549021%,31.37255%);fill-opacity:1;" d="M 23.164062 28.476562 C 24.441406 27.738281 25.566406 26.839844 26.523438 25.820312 L 20.722656 20.394531 C 20.285156 20.859375 19.777344 21.269531 19.195312 21.601562 C 18.613281 21.9375 18.003906 22.175781 17.386719 22.320312 L 19.179688 30.058594 C 20.542969 29.738281 21.886719 29.214844 23.164062 28.476562 Z M 23.164062 28.476562 "/>
<path style=" stroke:none;fill-rule:nonzero;fill:rgb(40.000001%,73.333335%,41.568628%);fill-opacity:1;" d="M 11.054688 11.355469 C 11.488281 10.890625 12 10.480469 12.582031 10.148438 C 13.027344 9.890625 13.488281 9.6875 13.960938 9.542969 L 11.648438 1.949219 C 10.613281 2.265625 9.59375 2.707031 8.613281 3.273438 C 7.332031 4.011719 6.210938 4.910156 5.25 5.929688 Z M 11.054688 11.355469 "/>
<path style=" stroke:none;fill-rule:nonzero;fill:rgb(100%,79.215688%,15.686275%);fill-opacity:1;" d="M 5.945312 26.511719 L 11.367188 20.710938 C 10.902344 20.273438 10.496094 19.761719 10.160156 19.183594 C 9.902344 18.734375 9.703125 18.273438 9.558594 17.800781 L 1.960938 20.113281 C 2.277344 21.152344 2.71875 22.167969 3.285156 23.152344 C 4.023438 24.429688 4.921875 25.554688 5.945312 26.511719 Z M 5.945312 26.511719 "/>
<path style=" stroke:none;fill-rule:nonzero;fill:rgb(100%,65.490198%,14.901961%);fill-opacity:1;" d="M 12.59375 30.0625 L 14.390625 22.324219 C 13.273438 22.066406 12.226562 21.515625 11.367188 20.710938 L 5.945312 26.511719 C 7.832031 28.285156 10.136719 29.492188 12.59375 30.0625 Z M 12.59375 30.0625 "/>
<path style=" stroke:none;fill-rule:nonzero;fill:rgb(100%,43.921569%,26.274511%);fill-opacity:1;" d="M 19.179688 30.058594 L 17.386719 22.320312 C 16.386719 22.554688 15.363281 22.550781 14.390625 22.324219 L 12.59375 30.0625 C 14.730469 30.558594 16.984375 30.574219 19.179688 30.058594 Z M 19.179688 30.058594 "/>
<path style=" stroke:none;fill-rule:nonzero;fill:rgb(14.901961%,77.64706%,85.490197%);fill-opacity:1;" d="M 17.386719 9.425781 L 19.183594 1.6875 C 16.738281 1.121094 14.140625 1.183594 11.648438 1.949219 L 13.960938 9.542969 C 15.09375 9.195312 16.273438 9.167969 17.386719 9.425781 Z M 17.386719 9.425781 "/>
<path style=" stroke:none;fill-rule:nonzero;fill:rgb(92.54902%,25.098041%,47.843137%);fill-opacity:1;" d="M 26.523438 25.820312 C 28.296875 23.929688 29.503906 21.625 30.074219 19.167969 L 22.335938 17.371094 C 22.078125 18.488281 21.527344 19.535156 20.722656 20.394531 Z M 26.523438 25.820312 "/>
<path style=" stroke:none;fill-rule:nonzero;fill:rgb(61.176473%,80.000001%,39.607844%);fill-opacity:1;" d="M 9.4375 14.378906 C 9.699219 13.261719 10.246094 12.214844 11.054688 11.355469 L 5.25 5.929688 C 3.476562 7.820312 2.269531 10.125 1.699219 12.582031 Z M 9.4375 14.378906 "/>
<path style=" stroke:none;fill-rule:nonzero;fill:rgb(67.058825%,27.843139%,73.725492%);fill-opacity:1;" d="M 30.074219 19.167969 C 30.644531 16.722656 30.578125 14.125 29.816406 11.636719 L 22.21875 13.949219 C 22.566406 15.082031 22.59375 16.261719 22.335938 17.371094 Z M 30.074219 19.167969 "/>
<path style=" stroke:none;fill-rule:nonzero;fill:rgb(100%,93.333334%,34.509805%);fill-opacity:1;" d="M 9.558594 17.800781 C 9.210938 16.667969 9.179688 15.488281 9.4375 14.378906 L 1.699219 12.582031 C 1.132812 15.027344 1.195312 17.625 1.960938 20.113281 Z M 9.558594 17.800781 "/>
<path style=" stroke:none;fill-rule:nonzero;fill:rgb(25.882354%,25.882354%,25.882354%);fill-opacity:1;" d="M 15.875 2.644531 C 23.179688 2.644531 29.105469 8.570312 29.105469 15.875 C 29.105469 23.179688 23.179688 29.105469 15.875 29.105469 C 8.570312 29.105469 2.644531 23.179688 2.644531 15.875 C 2.644531 8.570312 8.570312 2.644531 15.875 2.644531 Z M 15.875 2.644531 "/>
<path style=" stroke:none;fill-rule:nonzero;fill:rgb(14.901961%,77.64706%,85.490197%);fill-opacity:1;" d="M 15.875 5.292969 C 13.675781 5.292969 11.90625 7.0625 11.90625 9.261719 C 11.90625 11.90625 14.550781 13.890625 15.875 15.214844 C 17.199219 13.890625 19.84375 11.90625 19.84375 9.261719 C 19.84375 7.0625 18.074219 5.292969 15.875 5.292969 Z M 15.875 5.292969 "/>
<path style=" stroke:none;fill-rule:nonzero;fill:rgb(100%,79.215688%,15.686275%);fill-opacity:1;" d="M 6.710938 21.167969 C 5.609375 19.261719 6.257812 16.84375 8.164062 15.746094 C 10.453125 14.421875 13.496094 15.722656 15.300781 16.207031 C 14.816406 18.011719 14.421875 21.296875 12.132812 22.621094 C 10.226562 23.71875 7.808594 23.070312 6.710938 21.167969 Z M 6.710938 21.167969 "/>
<path style=" stroke:none;fill-rule:nonzero;fill:rgb(93.725491%,32.549021%,31.37255%);fill-opacity:1;" d="M 25.039062 21.167969 C 26.140625 19.261719 25.492188 16.84375 23.585938 15.746094 C 21.296875 14.421875 18.253906 15.722656 16.449219 16.207031 C 16.933594 18.011719 17.328125 21.296875 19.617188 22.621094 C 21.523438 23.71875 23.941406 23.070312 25.039062 21.167969 Z M 25.039062 21.167969 "/>
<path style=" stroke:none;fill-rule:nonzero;fill:rgb(50.196081%,87.058824%,91.764706%);fill-opacity:1;" d="M 14.640625 6.285156 C 14.957031 6.464844 14.917969 7.128906 14.550781 7.761719 C 14.1875 8.394531 13.632812 8.757812 13.316406 8.574219 C 13 8.390625 13.042969 7.730469 13.40625 7.097656 C 13.773438 6.464844 14.324219 6.101562 14.640625 6.285156 Z M 14.640625 6.285156 "/>
<path style=" stroke:none;fill-rule:nonzero;fill:rgb(100%,87.843138%,50.980395%);fill-opacity:1;" d="M 8.6875 16.207031 C 9.003906 16.386719 8.964844 17.050781 8.597656 17.683594 C 8.234375 18.316406 7.679688 18.679688 7.363281 18.496094 C 7.046875 18.3125 7.089844 17.652344 7.453125 17.019531 C 7.820312 16.386719 8.371094 16.023438 8.6875 16.207031 Z M 8.6875 16.207031 "/>
<path style=" stroke:none;fill-rule:nonzero;fill:rgb(89.803922%,45.09804%,45.09804%);fill-opacity:1;" d="M 19.09375 16.207031 C 19.410156 16.386719 19.371094 17.050781 19.003906 17.683594 C 18.640625 18.316406 18.085938 18.679688 17.769531 18.496094 C 17.453125 18.3125 17.492188 17.652344 17.859375 17.019531 C 18.226562 16.386719 18.777344 16.023438 19.09375 16.207031 Z M 19.09375 16.207031 "/>
</g>
</svg>
