<?xml version="1.0" encoding="UTF-8"?>
<svg xmlns="http://www.w3.org/2000/svg" xmlns:xlink="http://www.w3.org/1999/xlink" width="32" height="32" viewBox="0 0 32 32" version="1.1">
<g id="surface1">
<path style=" stroke:none;fill-rule:nonzero;fill:rgb(18.431373%,25.098041%,32.549021%);fill-opacity:1;" d="M 15.875 1.324219 C 23.910156 1.324219 30.425781 7.839844 30.425781 15.875 C 30.425781 23.910156 23.910156 30.425781 15.875 30.425781 C 7.839844 30.425781 1.324219 23.910156 1.324219 15.875 C 1.324219 7.839844 7.839844 1.324219 15.875 1.324219 Z M 15.875 1.324219 "/>
<path style=" stroke:none;fill-rule:nonzero;fill:rgb(90.980393%,91.764706%,96.470588%);fill-opacity:1;" d="M 15.875 3.96875 C 22.449219 3.96875 27.78125 9.300781 27.78125 15.875 C 27.78125 22.449219 22.449219 27.78125 15.875 27.78125 C 9.300781 27.78125 3.96875 22.449219 3.96875 15.875 C 3.96875 9.300781 9.300781 3.96875 15.875 3.96875 Z M 15.875 3.96875 "/>
<path style=" stroke:none;fill-rule:nonzero;fill:rgb(18.431373%,25.098041%,32.549021%);fill-opacity:1;" d="M 17.199219 7.9375 C 14.265625 7.9375 11.90625 10.296875 11.90625 13.230469 L 11.90625 17.199219 L 9.261719 17.199219 L 9.261719 19.84375 L 11.90625 19.84375 L 11.90625 28.691406 L 14.550781 28.691406 L 14.550781 19.84375 L 19.84375 19.84375 L 19.84375 17.199219 L 14.550781 17.199219 L 14.550781 13.230469 C 14.550781 11.761719 15.730469 10.582031 17.199219 10.582031 C 18.101562 10.582031 18.894531 11.03125 19.371094 11.71875 L 21.257812 9.828125 C 20.289062 8.671875 18.832031 7.9375 17.199219 7.9375 Z M 17.199219 7.9375 "/>
<path style=" stroke:none;fill-rule:nonzero;fill:rgb(90.980393%,91.764706%,96.470588%);fill-opacity:1;" d="M 11.574219 25.464844 L 11.90625 25.464844 L 11.90625 29.433594 L 11.574219 29.433594 Z M 11.574219 25.464844 "/>
<path style=" stroke:none;fill-rule:nonzero;fill:rgb(90.980393%,91.764706%,96.470588%);fill-opacity:1;" d="M 14.550781 26.128906 L 14.882812 26.128906 L 14.882812 30.097656 L 14.550781 30.097656 Z M 14.550781 26.128906 "/>
</g>
</svg>
