
<svg xmlns="http://www.w3.org/2000/svg" xmlns:xlink="http://www.w3.org/1999/xlink" width="32px" height="32px" viewBox="0 0 32 32" version="1.1">
<g id="surface1">
<path style=" stroke:none;fill-rule:nonzero;fill:rgb(36.078432%,41.960785%,75.294119%);fill-opacity:1;" d="M 4.300781 3.96875 L 27.449219 3.96875 C 27.632812 3.96875 27.78125 4.117188 27.78125 4.300781 L 27.78125 27.449219 C 27.78125 27.632812 27.632812 27.78125 27.449219 27.78125 L 4.300781 27.78125 C 4.117188 27.78125 3.96875 27.632812 3.96875 27.449219 L 3.96875 4.300781 C 3.96875 4.117188 4.117188 3.96875 4.300781 3.96875 Z M 4.300781 3.96875 "/>
<path style=" stroke:none;fill-rule:nonzero;fill:rgb(40.000001%,73.333335%,41.568628%);fill-opacity:1;" d="M 2.605469 1.324219 L 29.144531 1.324219 C 29.851562 1.324219 30.425781 1.898438 30.425781 2.605469 L 30.425781 29.144531 C 30.425781 29.851562 29.851562 30.425781 29.144531 30.425781 L 2.605469 30.425781 C 1.898438 30.425781 1.324219 29.851562 1.324219 29.144531 L 1.324219 2.605469 C 1.324219 1.898438 1.898438 1.324219 2.605469 1.324219 Z M 2.605469 1.324219 "/>
<path style=" stroke:none;fill-rule:nonzero;fill:rgb(96.078432%,96.078432%,96.078432%);fill-opacity:1;" d="M 3.308594 2.644531 C 2.941406 2.644531 2.644531 2.941406 2.644531 3.308594 L 2.644531 25.136719 L 6.613281 25.136719 L 6.613281 29.105469 L 28.441406 29.105469 C 28.808594 29.105469 29.105469 28.808594 29.105469 28.441406 L 29.105469 3.308594 C 29.105469 2.941406 28.808594 2.644531 28.441406 2.644531 Z M 3.308594 2.644531 "/>
<path style=" stroke:none;fill-rule:nonzero;fill:rgb(40.000001%,73.333335%,41.568628%);fill-opacity:1;" d="M 5.085938 4.628906 L 26.914062 4.628906 C 27.097656 4.628906 27.246094 4.777344 27.246094 4.960938 L 27.246094 26.789062 C 27.246094 26.972656 27.097656 27.121094 26.914062 27.121094 L 5.085938 27.121094 C 4.902344 27.121094 4.753906 26.972656 4.753906 26.789062 L 4.753906 4.960938 C 4.753906 4.777344 4.902344 4.628906 5.085938 4.628906 Z M 5.085938 4.628906 "/>
<path style=" stroke:none;fill-rule:nonzero;fill:rgb(93.333334%,93.333334%,93.333334%);fill-opacity:1;" d="M 2.644531 26.457031 L 2.644531 28.441406 C 2.644531 28.808594 2.941406 29.105469 3.308594 29.105469 L 5.292969 29.105469 L 5.292969 26.457031 Z M 2.644531 26.457031 "/>
<path style=" stroke:none;fill-rule:nonzero;fill:rgb(96.078432%,96.078432%,96.078432%);fill-opacity:1;" d="M 10.628906 8.597656 L 10.628906 23.121094 L 13.859375 23.121094 L 13.859375 17.472656 L 18.699219 17.472656 C 20.039062 17.472656 21.121094 16.394531 21.121094 15.054688 L 21.121094 11.019531 C 21.121094 9.679688 20.039062 8.597656 18.699219 8.597656 Z M 13.859375 11.828125 L 17.085938 11.828125 C 17.53125 11.828125 17.890625 12.1875 17.890625 12.632812 L 17.890625 13.441406 C 17.890625 13.886719 17.53125 14.246094 17.085938 14.246094 L 13.859375 14.246094 Z M 13.859375 11.828125 "/>
</g>
</svg>
