<?xml version="1.0" encoding="UTF-8"?>
<svg xmlns="http://www.w3.org/2000/svg" xmlns:xlink="http://www.w3.org/1999/xlink" width="32px" height="32px" viewBox="0 0 32 32" version="1.1">
<g id="surface1">
<path style=" stroke:none;fill-rule:nonzero;fill:rgb(61.176473%,80.000001%,39.607844%);fill-opacity:1;" d="M 15.875 1.574219 C 23.910156 1.574219 30.425781 8.089844 30.425781 16.125 C 30.425781 24.160156 23.910156 30.675781 15.875 30.675781 C 7.839844 30.675781 1.324219 24.160156 1.324219 16.125 C 1.324219 8.089844 7.839844 1.574219 15.875 1.574219 Z M 15.875 1.574219 "/>
<path style=" stroke:none;fill-rule:nonzero;fill:rgb(77.254903%,88.235295%,64.705884%);fill-opacity:1;" d="M 15.898438 1.511719 C 14.496094 1.652344 13.027344 1.839844 11.765625 2.472656 C 11.65625 3.148438 14.054688 4.035156 12.121094 4.632812 C 12.359375 5.703125 13.570312 6.667969 14.027344 5.074219 C 14.835938 4.328125 16.597656 4.59375 16.9375 3.28125 C 17.675781 1.9375 17.070312 1.984375 15.902344 1.511719 C 15.898438 1.511719 15.898438 1.511719 15.898438 1.511719 Z M 11.671875 2.125 C 11.117188 2.289062 10.578125 2.488281 10.054688 2.714844 C 10.65625 2.601562 11.382812 2.417969 11.671875 2.125 Z M 9.128906 3.214844 C 8.695312 3.375 8.59375 4.015625 8.382812 3.574219 C 8.355469 3.589844 8.324219 3.609375 8.296875 3.625 C 8.171875 4.3125 7.210938 4.925781 7.773438 5.351562 C 8.292969 4.652344 9.289062 3.53125 10.21875 4.6875 C 11.03125 5.492188 11.753906 4.386719 10.621094 4.066406 C 10.488281 3.335938 9.347656 3.867188 9.128906 3.214844 Z M 23.3125 3.769531 C 21.859375 3.820312 21.328125 5.003906 20.417969 5.789062 C 20.285156 7.199219 21.46875 5.824219 22.023438 6.898438 C 22.652344 6.304688 22.058594 4.824219 23.289062 4.566406 C 23.25 5.125 22.640625 6.277344 23.765625 5.988281 C 23.121094 6.5 21.980469 8.332031 21.316406 6.964844 C 20.816406 6.621094 21.210938 8.050781 20.382812 7.742188 C 20.128906 8.675781 18.207031 8.535156 19.414062 9.464844 C 18.480469 9.527344 17.347656 10.84375 18.617188 11.507812 C 19.835938 11.691406 19.875 9.628906 21.242188 9.777344 C 21.847656 10.171875 22.265625 10.613281 22.199219 11.109375 C 23.453125 10.910156 21.511719 9.148438 22.816406 10.066406 C 22.949219 10.683594 23.730469 12.132812 23.726562 10.621094 C 24.578125 10.714844 24.867188 12.011719 25.925781 11.722656 C 26.359375 12.96875 24.230469 12.757812 23.496094 12.359375 C 22.355469 13.523438 21.914062 11.085938 20.460938 11.597656 C 18.796875 11.59375 17.605469 12.890625 16.597656 14.0625 C 16.15625 15.058594 15.894531 16.09375 16.015625 17.121094 C 16.394531 18.121094 17.832031 19.605469 18.644531 19.347656 C 19.65625 18.917969 20.753906 19.113281 21.960938 19.355469 C 22.472656 19.972656 21.683594 20.773438 22.519531 21.324219 C 22.503906 22.453125 23.058594 23.335938 22.417969 24.390625 C 22.390625 25.835938 23.480469 27.023438 23.550781 28.441406 C 24.441406 27.890625 25.269531 27.242188 26.019531 26.515625 C 26.023438 26.488281 26.03125 26.457031 26.039062 26.425781 C 26.824219 25.941406 25.394531 25.097656 26.816406 24.703125 C 28.234375 23.820312 26.464844 21.675781 27.835938 20.539062 C 28.445312 19.804688 29.582031 18.09375 29.023438 17.53125 C 27.378906 17.5 30.234375 16.34375 30.417969 15.523438 C 30.410156 15.28125 30.394531 15.042969 30.375 14.808594 C 30.207031 14.433594 29.851562 14.199219 29.632812 14.773438 C 28.925781 14.730469 28.191406 12.59375 29.191406 13.667969 C 29.496094 13.558594 29.921875 13.84375 30.292969 14.074219 C 29.8125 10.539062 28.074219 7.414062 25.535156 5.164062 C 25.109375 5.472656 24.488281 5.222656 24.59375 4.527344 C 24.65625 4.527344 24.714844 4.527344 24.765625 4.527344 C 24.542969 4.355469 24.316406 4.191406 24.082031 4.03125 C 23.820312 3.957031 23.570312 3.863281 23.3125 3.769531 Z M 7.570312 4.097656 C 3.789062 6.722656 1.324219 11.09375 1.324219 16.0625 C 1.324219 16.261719 1.328125 16.460938 1.335938 16.660156 C 2.242188 17.203125 3.492188 17.230469 4.074219 18.238281 C 4.984375 18.640625 5.988281 18.800781 5.070312 20.007812 C 4.460938 21.089844 4.277344 22.34375 5.234375 23.3125 C 5.757812 24.394531 7.183594 25.179688 6.710938 26.554688 C 6.953125 27.027344 7.152344 27.394531 7.265625 27.8125 C 8.046875 28.382812 8.886719 28.878906 9.777344 29.289062 C 9.871094 29.183594 9.957031 29.042969 10.027344 28.863281 C 11.683594 28.585938 10.402344 26.261719 11.816406 25.898438 C 13.378906 25.386719 11.800781 23.371094 13.402344 22.820312 C 14.445312 21.367188 12.113281 21.046875 11.207031 20.535156 C 10.363281 19.992188 10.042969 19.132812 9.046875 18.9375 C 9.027344 17.445312 7.136719 18.75 6.800781 17.328125 C 6.058594 16.710938 5.433594 19.234375 4.484375 17.886719 C 4.160156 17.460938 4.515625 16.242188 3.5625 16.671875 C 4.042969 15.746094 3.410156 14.761719 2.769531 15.90625 C 1.261719 16.085938 1.765625 13.511719 3.050781 13.464844 C 3.769531 12.996094 4.667969 13.183594 5.15625 13.925781 C 4.6875 12.417969 6.769531 12.253906 6.691406 10.878906 C 7.40625 10.039062 9.316406 10.460938 9.597656 9.15625 C 9.121094 9.050781 7.554688 9.335938 8.738281 8.632812 C 9.601562 8.265625 11.96875 8.140625 10.234375 6.964844 C 10.578125 5.714844 9.121094 6.84375 9.289062 5.804688 C 8.035156 4.832031 8.320312 7.210938 7.378906 7.3125 C 6.863281 8.777344 6.921875 6.765625 5.914062 6.957031 C 4.542969 5.742188 8.402344 5.410156 7.570312 4.097656 Z M 18.195312 4.269531 C 17.566406 4.296875 16.226562 4.839844 17.542969 5.074219 C 17.914062 4.941406 18.949219 4.753906 18.195312 4.269531 Z M 9.730469 4.769531 C 8.480469 5.519531 11.433594 5.695312 9.890625 4.800781 Z M 19.015625 6.300781 C 19.535156 6.898438 18.644531 8.863281 19.898438 8.109375 C 20.507812 7.636719 19.417969 6.472656 19.015625 6.300781 Z M 18.78125 7.097656 C 17.378906 7.644531 19.644531 8.496094 18.78125 7.097656 Z M 10.675781 8.296875 C 10.445312 9.132812 11.449219 9.277344 10.96875 8.511719 L 10.808594 8.40625 Z M 26.015625 13.480469 C 26.929688 14.234375 27.105469 15.53125 27.847656 16.371094 C 27.773438 17.0625 28.371094 18.125 27.296875 17.25 C 27.34375 15.851562 25.621094 14.8125 25.847656 13.542969 Z M 26.015625 13.480469 "/>
<path style=" stroke:none;fill-rule:nonzero;fill:rgb(45.882353%,45.882353%,45.882353%);fill-opacity:1;" d="M 18.96875 19.421875 C 18.34375 20.121094 17.882812 20.933594 17.59375 21.800781 L 19.101562 23.304688 L 19.101562 24.535156 L 17.597656 26.035156 C 17.738281 26.464844 17.929688 26.886719 18.164062 27.296875 C 18.398438 27.703125 18.671875 28.078125 18.96875 28.414062 L 21.023438 27.867188 L 22.085938 28.480469 L 22.636719 30.535156 C 23.53125 30.722656 24.46875 30.726562 25.382812 30.535156 L 25.933594 28.480469 L 26.996094 27.867188 L 29.054688 28.414062 C 29.675781 27.71875 30.140625 26.90625 30.425781 26.039062 L 28.921875 24.535156 L 28.921875 23.304688 L 30.425781 21.804688 C 30.28125 21.375 30.09375 20.953125 29.859375 20.542969 C 29.621094 20.136719 29.351562 19.761719 29.050781 19.425781 L 26.996094 19.972656 L 25.933594 19.359375 L 25.382812 17.304688 C 24.488281 17.117188 23.554688 17.113281 22.636719 17.304688 L 22.085938 19.359375 L 21.023438 19.972656 Z M 18.96875 19.421875 "/>
<path style=" stroke:none;fill-rule:nonzero;fill:rgb(93.333334%,93.333334%,93.333334%);fill-opacity:1;" d="M 24.011719 19.007812 C 26.722656 19.007812 28.921875 21.207031 28.921875 23.917969 C 28.921875 26.632812 26.722656 28.828125 24.011719 28.828125 C 21.300781 28.828125 19.101562 26.632812 19.101562 23.917969 C 19.101562 21.207031 21.300781 19.007812 24.011719 19.007812 Z M 24.011719 19.007812 "/>
<path style=" stroke:none;fill-rule:nonzero;fill:rgb(74.117649%,74.117649%,74.117649%);fill-opacity:1;" d="M 24.011719 20.238281 C 26.042969 20.238281 27.695312 21.886719 27.695312 23.917969 C 27.695312 25.953125 26.042969 27.601562 24.011719 27.601562 C 21.976562 27.601562 20.328125 25.953125 20.328125 23.917969 C 20.328125 21.886719 21.976562 20.238281 24.011719 20.238281 Z M 24.011719 20.238281 "/>
<path style=" stroke:none;fill-rule:nonzero;fill:rgb(93.333334%,93.333334%,93.333334%);fill-opacity:1;" d="M 24.011719 21.464844 C 25.367188 21.464844 26.464844 22.5625 26.464844 23.917969 C 26.464844 25.277344 25.367188 26.375 24.011719 26.375 C 22.65625 26.375 21.554688 25.277344 21.554688 23.917969 C 21.554688 22.5625 22.65625 21.464844 24.011719 21.464844 Z M 24.011719 21.464844 "/>
</g>
</svg>
