
<svg xmlns="http://www.w3.org/2000/svg" xmlns:xlink="http://www.w3.org/1999/xlink" width="32px" height="32px" viewBox="0 0 32 32" version="1.1">
<defs>
<linearGradient id="linear0" gradientUnits="userSpaceOnUse" x1="31.753056" y1="56.067898" x2="31.753056" y2="5.792224" gradientTransform="matrix(0.578088,0,0,0.578088,-2.481726,-1.734948)">
<stop offset="0" style="stop-color:rgb(87.843138%,87.843138%,87.843138%);stop-opacity:1;"/>
<stop offset="1" style="stop-color:rgb(93.333334%,93.333334%,93.333334%);stop-opacity:1;"/>
</linearGradient>
</defs>
<g id="surface1">
<path style=" stroke:none;fill-rule:nonzero;fill:url(#linear0);" d="M 3.636719 17.675781 L 3.636719 18.4375 C 3.636719 25.21875 9.097656 30.675781 15.875 30.675781 C 22.652344 30.675781 28.113281 25.21875 28.113281 18.4375 L 28.113281 17.675781 C 28.113281 9.644531 21.992188 1.574219 15.875 1.574219 C 9.753906 1.574219 3.636719 9.644531 3.636719 17.675781 Z M 3.636719 17.675781 "/>
<path style=" stroke:none;fill-rule:nonzero;fill:rgb(98.039216%,98.039216%,98.039216%);fill-opacity:1;" d="M 10.988281 6.085938 L 11.105469 6.152344 C 11.546875 6.40625 11.460938 7.382812 10.914062 8.332031 C 10.367188 9.28125 9.5625 9.84375 9.121094 9.589844 L 9.003906 9.519531 C 8.5625 9.265625 8.648438 8.289062 9.195312 7.339844 C 9.742188 6.390625 10.546875 5.828125 10.988281 6.085938 Z M 10.988281 6.085938 "/>
<path style=" stroke:none;fill-rule:nonzero;fill:rgb(25.882354%,25.882354%,25.882354%);fill-opacity:1;" d="M 3.96875 15.324219 L 3.96875 18.191406 L 4.628906 18.191406 L 4.628906 15.53125 C 4.40625 15.464844 4.1875 15.394531 3.96875 15.324219 Z M 9.261719 16.570312 L 9.261719 19.511719 L 9.921875 19.511719 L 9.921875 16.667969 C 9.699219 16.636719 9.480469 16.605469 9.261719 16.570312 Z M 15.542969 17.066406 L 15.542969 19.84375 L 16.207031 19.84375 L 16.207031 17.066406 C 15.984375 17.070312 15.765625 17.070312 15.542969 17.066406 Z M 15.542969 17.066406 "/>
<path style=" stroke:none;fill-rule:nonzero;fill:rgb(25.882354%,25.882354%,25.882354%);fill-opacity:1;" d="M 5.292969 17.046875 L 5.292969 18.519531 L 5.789062 18.519531 L 5.789062 17.179688 C 5.621094 17.136719 5.457031 17.09375 5.292969 17.046875 Z M 6.78125 17.421875 L 6.78125 19.015625 L 7.277344 19.015625 L 7.277344 17.53125 C 7.109375 17.496094 6.945312 17.457031 6.78125 17.421875 Z M 8.101562 17.695312 L 8.101562 19.511719 L 8.597656 19.511719 L 8.597656 17.785156 C 8.433594 17.753906 8.265625 17.726562 8.101562 17.695312 Z M 11.246094 18.152344 L 11.246094 19.679688 L 11.742188 19.679688 L 11.742188 18.199219 C 11.574219 18.183594 11.410156 18.167969 11.246094 18.152344 Z M 12.898438 18.292969 L 12.898438 19.84375 L 13.394531 19.84375 L 13.394531 18.324219 C 13.230469 18.3125 13.0625 18.304688 12.898438 18.292969 Z M 14.386719 18.367188 L 14.386719 20.007812 L 14.882812 20.007812 L 14.882812 18.378906 C 14.71875 18.375 14.550781 18.371094 14.386719 18.367188 Z M 14.386719 18.367188 "/>
<path style=" stroke:none;fill-rule:nonzero;fill:rgb(74.117649%,74.117649%,74.117649%);fill-opacity:1;" d="M 3.652344 17.863281 C 3.644531 18.082031 3.636719 18.300781 3.636719 18.519531 C 10.835938 20.992188 20.914062 20.992188 28.113281 18.519531 C 28.109375 18.300781 28.105469 18.082031 28.097656 17.863281 C 21 20.363281 10.75 20.363281 3.652344 17.863281 Z M 3.652344 17.863281 "/>
<path style=" stroke:none;fill-rule:nonzero;fill:rgb(25.882354%,25.882354%,25.882354%);fill-opacity:1;" d="M 15.875 20.835938 L 13.558594 23.152344 L 18.191406 23.152344 Z M 15.875 20.835938 "/>
</g>
</svg>
