<?xml version="1.0" encoding="UTF-8"?>
<svg xmlns="http://www.w3.org/2000/svg" xmlns:xlink="http://www.w3.org/1999/xlink" width="32px" height="32px" viewBox="0 0 32 32" version="1.1">
<g id="surface1">
<path style="fill:none;stroke-width:16;stroke-linecap:butt;stroke-linejoin:miter;stroke:rgb(45.882353%,45.882353%,45.882353%);stroke-opacity:1;stroke-miterlimit:4;" d="M 378.375 -86.625 C 378.375 -86.625 370.4375 -105.1875 391.5625 -94.5625 C 412.75 -84 433.9375 -89.3125 423.3125 -126.3125 C 402.1875 -147.5 444.5 -147.5 444.5 -147.5 " transform="matrix(0.0625,0,0,0.0625,0,13.4375)"/>
<path style=" stroke:none;fill-rule:nonzero;fill:rgb(25.882354%,25.882354%,25.882354%);fill-opacity:1;" d="M 20.4375 4.351562 L 26.988281 10.898438 C 27.503906 11.417969 27.503906 12.253906 26.988281 12.769531 L 19.035156 20.722656 C 18.519531 21.238281 17.683594 21.238281 17.164062 20.722656 L 10.617188 14.175781 C 10.101562 13.65625 10.101562 12.820312 10.617188 12.304688 L 18.566406 4.351562 C 19.085938 3.835938 19.921875 3.835938 20.4375 4.351562 Z M 20.4375 4.351562 "/>
<path style=" stroke:none;fill-rule:nonzero;fill:rgb(38.039216%,38.039216%,38.039216%);fill-opacity:1;" d="M 13.890625 6.203125 C 20.648438 6.203125 26.128906 11.683594 26.128906 18.441406 C 26.128906 25.199219 20.648438 30.675781 13.890625 30.675781 C 7.132812 30.675781 1.652344 25.199219 1.652344 18.441406 C 1.652344 11.683594 7.132812 6.203125 13.890625 6.203125 Z M 13.890625 6.203125 "/>
<path style=" stroke:none;fill-rule:nonzero;fill:rgb(100%,65.490198%,14.901961%);fill-opacity:1;" d="M 27.449219 1.574219 C 27.433594 1.574219 27.960938 3.199219 27.945312 3.195312 C 27.929688 3.1875 29.3125 2.183594 29.300781 2.175781 C 29.285156 2.164062 28.757812 3.789062 28.75 3.777344 C 28.738281 3.761719 30.449219 3.765625 30.445312 3.746094 C 30.4375 3.730469 29.054688 4.738281 29.054688 4.71875 C 29.054688 4.703125 30.4375 5.707031 30.445312 5.691406 C 30.449219 5.675781 28.738281 5.675781 28.75 5.664062 C 28.757812 5.648438 29.285156 7.277344 29.300781 7.265625 C 29.3125 7.257812 27.929688 6.25 27.945312 6.246094 C 27.960938 6.242188 27.433594 7.867188 27.449219 7.867188 C 27.46875 7.867188 26.9375 6.242188 26.953125 6.246094 C 26.96875 6.25 25.585938 7.257812 25.601562 7.265625 C 25.613281 7.277344 26.140625 5.648438 26.152344 5.664062 C 26.160156 5.675781 24.453125 5.675781 24.457031 5.691406 C 24.460938 5.707031 25.84375 4.703125 25.84375 4.71875 C 25.84375 4.738281 24.460938 3.730469 24.457031 3.746094 C 24.453125 3.765625 26.160156 3.761719 26.152344 3.777344 C 26.140625 3.789062 25.613281 2.164062 25.601562 2.175781 C 25.585938 2.183594 26.96875 3.1875 26.953125 3.195312 C 26.9375 3.199219 27.46875 1.574219 27.449219 1.574219 Z M 27.449219 1.574219 "/>
<path style=" stroke:none;fill-rule:nonzero;fill:rgb(93.725491%,32.549021%,31.37255%);fill-opacity:1;" d="M 27.449219 2.894531 C 27.441406 2.894531 27.738281 3.871094 27.726562 3.867188 C 27.71875 3.867188 28.53125 3.25 28.523438 3.246094 C 28.515625 3.238281 28.179688 4.203125 28.175781 4.195312 C 28.167969 4.1875 29.1875 4.164062 29.183594 4.15625 C 29.183594 4.148438 28.347656 4.730469 28.347656 4.71875 C 28.347656 4.710938 29.183594 5.292969 29.183594 5.285156 C 29.1875 5.273438 28.167969 5.253906 28.175781 5.246094 C 28.179688 5.238281 28.515625 6.203125 28.523438 6.195312 C 28.53125 6.191406 27.71875 5.574219 27.726562 5.570312 C 27.738281 5.570312 27.441406 6.542969 27.449219 6.542969 C 27.460938 6.542969 27.164062 5.570312 27.171875 5.570312 C 27.183594 5.574219 26.371094 6.191406 26.378906 6.195312 C 26.386719 6.203125 26.71875 5.238281 26.726562 5.246094 C 26.730469 5.253906 25.710938 5.273438 25.714844 5.285156 C 25.71875 5.292969 26.554688 4.710938 26.554688 4.71875 C 26.554688 4.730469 25.71875 4.148438 25.714844 4.15625 C 25.710938 4.164062 26.730469 4.1875 26.726562 4.195312 C 26.71875 4.203125 26.386719 3.238281 26.378906 3.246094 C 26.371094 3.25 27.183594 3.867188 27.171875 3.867188 C 27.164062 3.871094 27.460938 2.894531 27.449219 2.894531 Z M 27.449219 2.894531 "/>
<path style=" stroke:none;fill-rule:nonzero;fill:rgb(61.960787%,61.960787%,61.960787%);fill-opacity:1;" d="M 7.421875 11.175781 C 8.4375 10.257812 9.65625 9.949219 10.148438 10.492188 C 10.640625 11.03125 10.214844 12.21875 9.199219 13.136719 C 8.183594 14.054688 6.960938 14.363281 6.472656 13.820312 C 5.980469 13.28125 6.40625 12.09375 7.421875 11.175781 Z M 7.421875 11.175781 "/>
</g>
</svg>
