<?xml version="1.0" encoding="UTF-8"?>
<svg xmlns="http://www.w3.org/2000/svg" xmlns:xlink="http://www.w3.org/1999/xlink" width="32px" height="32px" viewBox="0 0 32 32" version="1.1">
<g id="surface1">
<path style=" stroke:none;fill-rule:nonzero;fill:rgb(14.901961%,65.098041%,60.392159%);fill-opacity:1;" d="M 3.96875 1.574219 L 27.78125 1.574219 C 28.511719 1.574219 29.105469 2.164062 29.105469 2.894531 L 29.105469 29.355469 C 29.105469 30.085938 28.511719 30.675781 27.78125 30.675781 L 3.96875 30.675781 C 3.238281 30.675781 2.644531 30.085938 2.644531 29.355469 L 2.644531 2.894531 C 2.644531 2.164062 3.238281 1.574219 3.96875 1.574219 Z M 3.96875 1.574219 "/>
<path style=" stroke:none;fill-rule:nonzero;fill:rgb(93.333334%,93.333334%,93.333334%);fill-opacity:1;" d="M 15.875 7.527344 C 21.71875 7.527344 26.457031 12.265625 26.457031 18.109375 C 26.457031 23.953125 21.71875 28.691406 15.875 28.691406 C 10.03125 28.691406 5.292969 23.953125 5.292969 18.109375 C 5.292969 12.265625 10.03125 7.527344 15.875 7.527344 Z M 15.875 7.527344 "/>
<path style=" stroke:none;fill-rule:nonzero;fill:rgb(25.882354%,25.882354%,25.882354%);fill-opacity:1;" d="M 15.875 9.511719 C 20.625 9.511719 24.472656 13.359375 24.472656 18.109375 C 24.472656 22.859375 20.625 26.707031 15.875 26.707031 C 11.125 26.707031 7.277344 22.859375 7.277344 18.109375 C 7.277344 13.359375 11.125 9.511719 15.875 9.511719 Z M 15.875 9.511719 "/>
<path style=" stroke:none;fill-rule:nonzero;fill:rgb(100%,65.490198%,14.901961%);fill-opacity:1;" d="M 15.875 10.832031 C 19.894531 10.832031 23.152344 14.089844 23.152344 18.109375 C 23.152344 22.128906 19.894531 25.386719 15.875 25.386719 C 11.855469 25.386719 8.597656 22.128906 8.597656 18.109375 C 8.597656 14.089844 11.855469 10.832031 15.875 10.832031 Z M 15.875 10.832031 "/>
<path style=" stroke:none;fill-rule:nonzero;fill:rgb(25.882354%,25.882354%,25.882354%);fill-opacity:1;" d="M 15.875 14.800781 C 17.703125 14.800781 19.183594 16.28125 19.183594 18.109375 C 19.183594 19.9375 17.703125 21.417969 15.875 21.417969 C 14.046875 21.417969 12.566406 19.9375 12.566406 18.109375 C 12.566406 16.28125 14.046875 14.800781 15.875 14.800781 Z M 15.875 14.800781 "/>
<path style=" stroke:none;fill-rule:nonzero;fill:rgb(61.960787%,61.960787%,61.960787%);fill-opacity:1;" d="M 23.066406 10.835938 C 23.261719 11.027344 23.261719 11.34375 23.066406 11.535156 C 22.871094 11.730469 22.558594 11.730469 22.363281 11.535156 C 22.171875 11.34375 22.171875 11.027344 22.363281 10.835938 C 22.558594 10.640625 22.871094 10.640625 23.066406 10.835938 Z M 23.066406 10.835938 "/>
<path style=" stroke:none;fill-rule:nonzero;fill:rgb(61.960787%,61.960787%,61.960787%);fill-opacity:1;" d="M 22.949219 24.515625 C 23.144531 24.710938 23.144531 25.023438 22.949219 25.21875 C 22.753906 25.410156 22.441406 25.410156 22.246094 25.21875 C 22.054688 25.023438 22.054688 24.710938 22.246094 24.515625 C 22.441406 24.324219 22.753906 24.324219 22.949219 24.515625 Z M 22.949219 24.515625 "/>
<path style=" stroke:none;fill-rule:nonzero;fill:rgb(61.960787%,61.960787%,61.960787%);fill-opacity:1;" d="M 9.386719 10.953125 C 9.578125 11.144531 9.578125 11.460938 9.386719 11.652344 C 9.191406 11.847656 8.878906 11.847656 8.683594 11.652344 C 8.488281 11.460938 8.488281 11.144531 8.683594 10.953125 C 8.878906 10.757812 9.191406 10.757812 9.386719 10.953125 Z M 9.386719 10.953125 "/>
<path style=" stroke:none;fill-rule:nonzero;fill:rgb(61.960787%,61.960787%,61.960787%);fill-opacity:1;" d="M 9.386719 24.515625 C 9.578125 24.710938 9.578125 25.023438 9.386719 25.21875 C 9.191406 25.410156 8.878906 25.410156 8.683594 25.21875 C 8.488281 25.023438 8.488281 24.710938 8.683594 24.515625 C 8.878906 24.324219 9.191406 24.324219 9.386719 24.515625 Z M 9.386719 24.515625 "/>
<path style=" stroke:none;fill-rule:nonzero;fill:rgb(93.333334%,93.333334%,93.333334%);fill-opacity:1;" d="M 7.9375 2.894531 C 9.035156 2.894531 9.921875 3.785156 9.921875 4.878906 C 9.921875 5.976562 9.035156 6.863281 7.9375 6.863281 C 6.839844 6.863281 5.953125 5.976562 5.953125 4.878906 C 5.953125 3.785156 6.839844 2.894531 7.9375 2.894531 Z M 7.9375 2.894531 "/>
<path style=" stroke:none;fill-rule:nonzero;fill:rgb(93.333334%,93.333334%,93.333334%);fill-opacity:1;" d="M 23.8125 2.894531 C 24.910156 2.894531 25.796875 3.785156 25.796875 4.878906 C 25.796875 5.976562 24.910156 6.863281 23.8125 6.863281 C 22.714844 6.863281 21.828125 5.976562 21.828125 4.878906 C 21.828125 3.785156 22.714844 2.894531 23.8125 2.894531 Z M 23.8125 2.894531 "/>
<path style=" stroke:none;fill-rule:nonzero;fill:rgb(25.882354%,25.882354%,25.882354%);fill-opacity:1;" d="M 7.9375 3.886719 C 8.484375 3.886719 8.929688 4.332031 8.929688 4.878906 C 8.929688 5.429688 8.484375 5.871094 7.9375 5.871094 C 7.390625 5.871094 6.945312 5.429688 6.945312 4.878906 C 6.945312 4.332031 7.390625 3.886719 7.9375 3.886719 Z M 7.9375 3.886719 "/>
<path style=" stroke:none;fill-rule:nonzero;fill:rgb(25.882354%,25.882354%,25.882354%);fill-opacity:1;" d="M 23.8125 3.886719 C 24.359375 3.886719 24.804688 4.332031 24.804688 4.878906 C 24.804688 5.429688 24.359375 5.871094 23.8125 5.871094 C 23.265625 5.871094 22.820312 5.429688 22.820312 4.878906 C 22.820312 4.332031 23.265625 3.886719 23.8125 3.886719 Z M 23.8125 3.886719 "/>
</g>
</svg>
