
<svg xmlns="http://www.w3.org/2000/svg" xmlns:xlink="http://www.w3.org/1999/xlink" width="32px" height="32px" viewBox="0 0 32 32" version="1.1">
<g id="surface1">
<path style=" stroke:none;fill-rule:nonzero;fill:rgb(74.117649%,74.117649%,74.117649%);fill-opacity:1;" d="M 18.519531 1.324219 L 2.644531 1.324219 C 1.914062 1.324219 1.324219 1.914062 1.324219 2.644531 L 1.324219 29.105469 C 1.324219 29.835938 1.914062 30.425781 2.644531 30.425781 L 23.8125 30.425781 C 24.546875 30.425781 25.136719 29.835938 25.136719 29.105469 L 25.136719 7.9375 Z M 18.519531 1.324219 "/>
<path style=" stroke:none;fill-rule:nonzero;fill:rgb(87.843138%,87.843138%,87.843138%);fill-opacity:1;" d="M 25.136719 7.9375 L 18.519531 1.324219 L 18.519531 6.613281 C 18.519531 7.347656 19.109375 7.9375 19.84375 7.9375 Z M 25.136719 7.9375 "/>
<path style=" stroke:none;fill-rule:nonzero;fill:rgb(25.882354%,25.882354%,25.882354%);fill-opacity:1;" d="M 24.542969 8.980469 L 9.921875 8.980469 C 9.382812 8.980469 8.945312 9.417969 8.945312 9.957031 L 8.945312 29.453125 C 8.945312 29.992188 9.382812 30.425781 9.921875 30.425781 L 29.417969 30.425781 C 29.957031 30.425781 30.390625 29.992188 30.390625 29.453125 L 30.390625 10.929688 L 28.441406 8.980469 Z M 24.542969 8.980469 "/>
<path style=" stroke:none;fill-rule:nonzero;fill:rgb(87.843138%,87.843138%,87.843138%);fill-opacity:1;" d="M 11.871094 8.980469 L 11.871094 15.804688 C 11.871094 16.34375 12.304688 16.78125 12.847656 16.78125 L 24.542969 16.78125 C 25.082031 16.78125 25.519531 16.34375 25.519531 15.804688 L 25.519531 8.980469 Z M 11.871094 8.980469 "/>
<path style=" stroke:none;fill-rule:nonzero;fill:rgb(25.882354%,25.882354%,25.882354%);fill-opacity:1;" d="M 21.621094 9.957031 L 21.621094 10.445312 L 20.644531 10.445312 L 20.644531 15.804688 L 23.570312 15.804688 L 23.570312 10.445312 L 22.59375 10.445312 L 22.59375 9.957031 Z M 21.621094 9.957031 "/>
<path style=" stroke:none;fill-rule:nonzero;fill:rgb(38.039216%,38.039216%,38.039216%);fill-opacity:1;" d="M 19.667969 17.265625 C 21.554688 17.265625 23.082031 18.796875 23.082031 20.679688 C 23.082031 22.5625 21.554688 24.089844 19.667969 24.089844 C 17.785156 24.089844 16.257812 22.5625 16.257812 20.679688 C 16.257812 18.796875 17.785156 17.265625 19.667969 17.265625 Z M 19.667969 17.265625 "/>
<path style=" stroke:none;fill-rule:nonzero;fill:rgb(87.843138%,87.843138%,87.843138%);fill-opacity:1;" d="M 19.667969 17.753906 C 21.285156 17.753906 22.59375 19.0625 22.59375 20.679688 C 22.59375 22.292969 21.285156 23.605469 19.667969 23.605469 C 18.054688 23.605469 16.746094 22.292969 16.746094 20.679688 C 16.746094 19.0625 18.054688 17.753906 19.667969 17.753906 Z M 19.667969 17.753906 "/>
<path style=" stroke:none;fill-rule:nonzero;fill:rgb(25.882354%,25.882354%,25.882354%);fill-opacity:1;" d="M 19.148438 20.46875 L 20.089844 20.21875 L 20.277344 20.921875 L 19.335938 21.175781 Z M 19.148438 20.46875 "/>
<path style=" stroke:none;fill-rule:nonzero;fill:rgb(25.882354%,25.882354%,25.882354%);fill-opacity:1;" d="M 21.253906 21.507812 L 21.621094 22.140625 L 20.457031 22.8125 L 20.09375 22.179688 Z M 21.253906 21.507812 "/>
<path style=" stroke:none;fill-rule:nonzero;fill:rgb(38.039216%,38.039216%,38.039216%);fill-opacity:1;" d="M 12.847656 26.527344 C 12.304688 26.527344 11.871094 26.960938 11.871094 27.503906 L 11.871094 30.425781 L 28.441406 30.425781 L 28.441406 27.503906 C 28.441406 26.960938 28.007812 26.527344 27.46875 26.527344 Z M 12.847656 26.527344 "/>
<path style=" stroke:none;fill-rule:nonzero;fill:rgb(40.000001%,73.333335%,41.568628%);fill-opacity:1;" d="M 9.140625 5.410156 C 8.808594 5.410156 8.539062 5.679688 8.539062 6.011719 L 8.539062 13.230469 L 4.929688 13.230469 L 11.546875 18.640625 L 18.160156 13.230469 L 14.550781 13.230469 L 14.550781 6.011719 C 14.550781 5.679688 14.285156 5.410156 13.949219 5.410156 Z M 9.140625 5.410156 "/>
</g>
</svg>
