<?xml version="1.0" encoding="UTF-8"?>
<svg xmlns="http://www.w3.org/2000/svg" xmlns:xlink="http://www.w3.org/1999/xlink" width="32px" height="32px" viewBox="0 0 32 32" version="1.1">
<g id="surface1">
<path style=" stroke:none;fill-rule:nonzero;fill:rgb(25.882354%,25.882354%,25.882354%);fill-opacity:1;" d="M 15.214844 1.574219 C 14.847656 1.574219 14.550781 1.867188 14.550781 2.234375 L 14.550781 12.929688 L 6.988281 5.367188 C 6.730469 5.109375 6.3125 5.109375 6.054688 5.367188 L 5.117188 6.304688 C 4.859375 6.5625 4.859375 6.980469 5.117188 7.238281 L 12.679688 14.800781 L 1.984375 14.800781 C 1.617188 14.800781 1.324219 15.097656 1.324219 15.464844 L 1.324219 16.785156 C 1.324219 17.152344 1.617188 17.449219 1.984375 17.449219 L 12.679688 17.449219 L 5.117188 25.011719 C 4.859375 25.269531 4.859375 25.6875 5.117188 25.945312 L 6.054688 26.882812 C 6.3125 27.140625 6.730469 27.140625 6.988281 26.882812 L 14.550781 19.320312 L 14.550781 30.015625 C 14.550781 30.382812 14.847656 30.675781 15.214844 30.675781 L 16.535156 30.675781 C 16.902344 30.675781 17.199219 30.382812 17.199219 30.015625 L 17.199219 19.320312 L 24.761719 26.882812 C 25.019531 27.140625 25.4375 27.140625 25.695312 26.882812 L 26.632812 25.945312 C 26.890625 25.6875 26.890625 25.269531 26.632812 25.011719 L 19.070312 17.449219 L 29.765625 17.449219 C 30.132812 17.449219 30.425781 17.152344 30.425781 16.785156 L 30.425781 15.464844 C 30.425781 15.097656 30.132812 14.800781 29.765625 14.800781 L 19.070312 14.800781 L 26.632812 7.238281 C 26.890625 6.980469 26.890625 6.5625 26.632812 6.304688 L 25.695312 5.367188 C 25.4375 5.109375 25.019531 5.109375 24.761719 5.367188 L 17.199219 12.929688 L 17.199219 2.234375 C 17.199219 1.867188 16.902344 1.574219 16.535156 1.574219 Z M 15.214844 1.574219 "/>
<path style=" stroke:none;fill-rule:nonzero;fill:rgb(45.882353%,45.882353%,45.882353%);fill-opacity:1;" d="M 15.875 4.21875 C 22.449219 4.21875 27.78125 9.550781 27.78125 16.125 C 27.78125 22.699219 22.449219 28.03125 15.875 28.03125 C 9.300781 28.03125 3.96875 22.699219 3.96875 16.125 C 3.96875 9.550781 9.300781 4.21875 15.875 4.21875 Z M 15.875 4.21875 "/>
<path style=" stroke:none;fill-rule:nonzero;fill:rgb(25.882354%,25.882354%,25.882354%);fill-opacity:1;" d="M 15.875 14.800781 C 16.605469 14.800781 17.199219 15.394531 17.199219 16.125 C 17.199219 16.855469 16.605469 17.449219 15.875 17.449219 C 15.144531 17.449219 14.550781 16.855469 14.550781 16.125 C 14.550781 15.394531 15.144531 14.800781 15.875 14.800781 Z M 15.875 14.800781 "/>
</g>
</svg>
