<?xml version="1.0" encoding="UTF-8"?>
<svg xmlns="http://www.w3.org/2000/svg" xmlns:xlink="http://www.w3.org/1999/xlink" width="32px" height="32px" viewBox="0 0 32 32" version="1.1">
<g id="surface1">
<path style=" stroke:none;fill-rule:nonzero;fill:rgb(73.725492%,66.666669%,64.313728%);fill-opacity:1;" d="M 2.644531 1.574219 L 13.230469 1.574219 C 13.960938 1.574219 14.550781 2.164062 14.550781 2.894531 L 14.550781 18.109375 C 14.550781 18.839844 13.960938 19.433594 13.230469 19.433594 L 2.644531 19.433594 C 1.914062 19.433594 1.324219 18.839844 1.324219 18.109375 L 1.324219 2.894531 C 1.324219 2.164062 1.914062 1.574219 2.644531 1.574219 Z M 2.644531 1.574219 "/>
<path style=" stroke:none;fill-rule:nonzero;fill:rgb(55.29412%,43.137255%,38.82353%);fill-opacity:1;" d="M 3.96875 13.148438 L 3.96875 14.472656 L 4.628906 14.472656 L 4.628906 14.800781 L 3.96875 14.800781 L 3.96875 16.125 L 4.628906 16.125 L 4.628906 16.785156 L 3.96875 16.785156 L 3.96875 18.109375 L 7.277344 18.109375 L 7.277344 16.785156 L 6.613281 16.785156 L 6.613281 16.125 L 7.277344 16.125 L 7.277344 14.800781 L 6.613281 14.800781 L 6.613281 14.472656 L 7.277344 14.472656 L 7.277344 13.148438 Z M 3.96875 13.148438 "/>
<path style=" stroke:none;fill-rule:nonzero;fill:rgb(40.000001%,73.333335%,41.568628%);fill-opacity:1;" d="M 4.300781 13.480469 L 4.300781 14.140625 L 4.960938 14.140625 L 4.960938 15.132812 L 4.300781 15.132812 L 4.300781 15.792969 L 4.960938 15.792969 L 4.960938 17.117188 L 4.300781 17.117188 L 4.300781 17.777344 L 6.945312 17.777344 L 6.945312 17.117188 L 6.285156 17.117188 L 6.285156 15.792969 L 6.945312 15.792969 L 6.945312 15.132812 L 6.285156 15.132812 L 6.285156 14.140625 L 6.945312 14.140625 L 6.945312 13.480469 Z M 4.300781 13.480469 "/>
<path style=" stroke:none;fill-rule:nonzero;fill:rgb(73.725492%,66.666669%,64.313728%);fill-opacity:1;" d="M 17.199219 1.574219 L 27.78125 1.574219 C 28.511719 1.574219 29.105469 2.164062 29.105469 2.894531 L 29.105469 18.109375 C 29.105469 18.839844 28.511719 19.433594 27.78125 19.433594 L 17.199219 19.433594 C 16.46875 19.433594 15.875 18.839844 15.875 18.109375 L 15.875 2.894531 C 15.875 2.164062 16.46875 1.574219 17.199219 1.574219 Z M 17.199219 1.574219 "/>
<path style=" stroke:none;fill-rule:nonzero;fill:rgb(55.29412%,43.137255%,38.82353%);fill-opacity:1;" d="M 20.835938 13.148438 L 20.835938 14.472656 L 21.496094 14.472656 L 21.496094 14.800781 L 20.835938 14.800781 L 20.835938 16.125 L 21.496094 16.125 L 21.496094 16.785156 L 20.835938 16.785156 L 20.835938 18.109375 L 24.144531 18.109375 L 24.144531 16.785156 L 23.480469 16.785156 L 23.480469 16.125 L 24.144531 16.125 L 24.144531 14.800781 L 23.480469 14.800781 L 23.480469 14.472656 L 24.144531 14.472656 L 24.144531 13.148438 Z M 20.835938 13.148438 "/>
<path style=" stroke:none;fill-rule:nonzero;fill:rgb(40.000001%,73.333335%,41.568628%);fill-opacity:1;" d="M 21.167969 13.480469 L 21.167969 14.140625 L 21.828125 14.140625 L 21.828125 15.132812 L 21.167969 15.132812 L 21.167969 15.792969 L 21.828125 15.792969 L 21.828125 17.117188 L 21.167969 17.117188 L 21.167969 17.777344 L 23.8125 17.777344 L 23.8125 17.117188 L 23.152344 17.117188 L 23.152344 15.792969 L 23.8125 15.792969 L 23.8125 15.132812 L 23.152344 15.132812 L 23.152344 14.140625 L 23.8125 14.140625 L 23.8125 13.480469 Z M 21.167969 13.480469 "/>
<path style=" stroke:none;fill-rule:nonzero;fill:rgb(84.313726%,80.000001%,78.431374%);fill-opacity:1;" d="M 3.96875 12.816406 L 14.550781 12.816406 C 15.28125 12.816406 15.875 13.410156 15.875 14.140625 L 15.875 29.355469 C 15.875 30.085938 15.28125 30.675781 14.550781 30.675781 L 3.96875 30.675781 C 3.238281 30.675781 2.644531 30.085938 2.644531 29.355469 L 2.644531 14.140625 C 2.644531 13.410156 3.238281 12.816406 3.96875 12.816406 Z M 3.96875 12.816406 "/>
<path style=" stroke:none;fill-rule:nonzero;fill:rgb(55.29412%,43.137255%,38.82353%);fill-opacity:1;" d="M 3.96875 14.140625 L 3.96875 15.464844 L 4.628906 15.464844 L 4.628906 15.792969 L 3.96875 15.792969 L 3.96875 17.117188 L 4.628906 17.117188 L 4.628906 17.777344 L 3.96875 17.777344 L 3.96875 19.101562 L 7.277344 19.101562 L 7.277344 17.777344 L 6.613281 17.777344 L 6.613281 17.117188 L 7.277344 17.117188 L 7.277344 15.792969 L 6.613281 15.792969 L 6.613281 15.464844 L 7.277344 15.464844 L 7.277344 14.140625 Z M 3.96875 14.140625 "/>
<path style=" stroke:none;fill-rule:nonzero;fill:rgb(40.000001%,73.333335%,41.568628%);fill-opacity:1;" d="M 4.300781 14.472656 L 4.300781 15.132812 L 4.960938 15.132812 L 4.960938 16.125 L 4.300781 16.125 L 4.300781 16.785156 L 4.960938 16.785156 L 4.960938 18.109375 L 4.300781 18.109375 L 4.300781 18.769531 L 6.945312 18.769531 L 6.945312 18.109375 L 6.285156 18.109375 L 6.285156 16.785156 L 6.945312 16.785156 L 6.945312 16.125 L 6.285156 16.125 L 6.285156 15.132812 L 6.945312 15.132812 L 6.945312 14.472656 Z M 4.300781 14.472656 "/>
<path style=" stroke:none;fill-rule:nonzero;fill:rgb(55.29412%,43.137255%,38.82353%);fill-opacity:1;" d="M 7.605469 24.394531 L 7.605469 25.714844 L 8.269531 25.714844 L 8.269531 26.046875 L 7.605469 26.046875 L 7.605469 27.371094 L 8.269531 27.371094 L 8.269531 28.03125 L 7.605469 28.03125 L 7.605469 29.355469 L 10.914062 29.355469 L 10.914062 28.03125 L 10.253906 28.03125 L 10.253906 27.371094 L 10.914062 27.371094 L 10.914062 26.046875 L 10.253906 26.046875 L 10.253906 25.714844 L 10.914062 25.714844 L 10.914062 24.394531 Z M 7.605469 24.394531 "/>
<path style=" stroke:none;fill-rule:nonzero;fill:rgb(40.000001%,73.333335%,41.568628%);fill-opacity:1;" d="M 7.9375 24.722656 L 7.9375 25.386719 L 8.597656 25.386719 L 8.597656 26.378906 L 7.9375 26.378906 L 7.9375 27.039062 L 8.597656 27.039062 L 8.597656 28.363281 L 7.9375 28.363281 L 7.9375 29.023438 L 10.582031 29.023438 L 10.582031 28.363281 L 9.921875 28.363281 L 9.921875 27.039062 L 10.582031 27.039062 L 10.582031 26.378906 L 9.921875 26.378906 L 9.921875 25.386719 L 10.582031 25.386719 L 10.582031 24.722656 Z M 7.9375 24.722656 "/>
<path style=" stroke:none;fill-rule:nonzero;fill:rgb(55.29412%,43.137255%,38.82353%);fill-opacity:1;" d="M 11.246094 14.140625 L 11.246094 15.464844 L 11.90625 15.464844 L 11.90625 15.792969 L 11.246094 15.792969 L 11.246094 17.117188 L 11.90625 17.117188 L 11.90625 17.777344 L 11.246094 17.777344 L 11.246094 19.101562 L 14.550781 19.101562 L 14.550781 17.777344 L 13.890625 17.777344 L 13.890625 17.117188 L 14.550781 17.117188 L 14.550781 15.792969 L 13.890625 15.792969 L 13.890625 15.464844 L 14.550781 15.464844 L 14.550781 14.140625 Z M 11.246094 14.140625 "/>
<path style=" stroke:none;fill-rule:nonzero;fill:rgb(40.000001%,73.333335%,41.568628%);fill-opacity:1;" d="M 11.574219 14.472656 L 11.574219 15.132812 L 12.238281 15.132812 L 12.238281 16.125 L 11.574219 16.125 L 11.574219 16.785156 L 12.238281 16.785156 L 12.238281 18.109375 L 11.574219 18.109375 L 11.574219 18.769531 L 14.222656 18.769531 L 14.222656 18.109375 L 13.558594 18.109375 L 13.558594 16.785156 L 14.222656 16.785156 L 14.222656 16.125 L 13.558594 16.125 L 13.558594 15.132812 L 14.222656 15.132812 L 14.222656 14.472656 Z M 11.574219 14.472656 "/>
<path style=" stroke:none;fill-rule:nonzero;fill:rgb(55.29412%,43.137255%,38.82353%);fill-opacity:1;" d="M 3.96875 14.140625 L 3.96875 15.464844 L 4.628906 15.464844 L 4.628906 15.792969 L 3.96875 15.792969 L 3.96875 17.117188 L 4.628906 17.117188 L 4.628906 17.777344 L 3.96875 17.777344 L 3.96875 19.101562 L 7.277344 19.101562 L 7.277344 17.777344 L 6.613281 17.777344 L 6.613281 17.117188 L 7.277344 17.117188 L 7.277344 15.792969 L 6.613281 15.792969 L 6.613281 15.464844 L 7.277344 15.464844 L 7.277344 14.140625 Z M 3.96875 14.140625 "/>
<path style=" stroke:none;fill-rule:nonzero;fill:rgb(40.000001%,73.333335%,41.568628%);fill-opacity:1;" d="M 4.300781 14.472656 L 4.300781 15.132812 L 4.960938 15.132812 L 4.960938 16.125 L 4.300781 16.125 L 4.300781 16.785156 L 4.960938 16.785156 L 4.960938 18.109375 L 4.300781 18.109375 L 4.300781 18.769531 L 6.945312 18.769531 L 6.945312 18.109375 L 6.285156 18.109375 L 6.285156 16.785156 L 6.945312 16.785156 L 6.945312 16.125 L 6.285156 16.125 L 6.285156 15.132812 L 6.945312 15.132812 L 6.945312 14.472656 Z M 4.300781 14.472656 "/>
<path style=" stroke:none;fill-rule:nonzero;fill:rgb(55.29412%,43.137255%,38.82353%);fill-opacity:1;" d="M 11.246094 14.140625 L 11.246094 15.464844 L 11.90625 15.464844 L 11.90625 15.792969 L 11.246094 15.792969 L 11.246094 17.117188 L 11.90625 17.117188 L 11.90625 17.777344 L 11.246094 17.777344 L 11.246094 19.101562 L 14.550781 19.101562 L 14.550781 17.777344 L 13.890625 17.777344 L 13.890625 17.117188 L 14.550781 17.117188 L 14.550781 15.792969 L 13.890625 15.792969 L 13.890625 15.464844 L 14.550781 15.464844 L 14.550781 14.140625 Z M 11.246094 14.140625 "/>
<path style=" stroke:none;fill-rule:nonzero;fill:rgb(40.000001%,73.333335%,41.568628%);fill-opacity:1;" d="M 11.574219 14.472656 L 11.574219 15.132812 L 12.238281 15.132812 L 12.238281 16.125 L 11.574219 16.125 L 11.574219 16.785156 L 12.238281 16.785156 L 12.238281 18.109375 L 11.574219 18.109375 L 11.574219 18.769531 L 14.222656 18.769531 L 14.222656 18.109375 L 13.558594 18.109375 L 13.558594 16.785156 L 14.222656 16.785156 L 14.222656 16.125 L 13.558594 16.125 L 13.558594 15.132812 L 14.222656 15.132812 L 14.222656 14.472656 Z M 11.574219 14.472656 "/>
<path style=" stroke:none;fill-rule:nonzero;fill:rgb(55.29412%,43.137255%,38.82353%);fill-opacity:1;" d="M 2.644531 2.894531 L 2.644531 4.21875 L 3.308594 4.21875 L 3.308594 4.550781 L 2.644531 4.550781 L 2.644531 5.871094 L 3.308594 5.871094 L 3.308594 6.535156 L 2.644531 6.535156 L 2.644531 7.855469 L 5.953125 7.855469 L 5.953125 6.535156 L 5.292969 6.535156 L 5.292969 5.871094 L 5.953125 5.871094 L 5.953125 4.550781 L 5.292969 4.550781 L 5.292969 4.21875 L 5.953125 4.21875 L 5.953125 2.894531 Z M 2.644531 2.894531 "/>
<path style=" stroke:none;fill-rule:nonzero;fill:rgb(40.000001%,73.333335%,41.568628%);fill-opacity:1;" d="M 2.976562 3.226562 L 2.976562 3.886719 L 3.636719 3.886719 L 3.636719 4.878906 L 2.976562 4.878906 L 2.976562 5.542969 L 3.636719 5.542969 L 3.636719 6.863281 L 2.976562 6.863281 L 2.976562 7.527344 L 5.621094 7.527344 L 5.621094 6.863281 L 4.960938 6.863281 L 4.960938 5.542969 L 5.621094 5.542969 L 5.621094 4.878906 L 4.960938 4.878906 L 4.960938 3.886719 L 5.621094 3.886719 L 5.621094 3.226562 Z M 2.976562 3.226562 "/>
<path style=" stroke:none;fill-rule:nonzero;fill:rgb(55.29412%,43.137255%,38.82353%);fill-opacity:1;" d="M 9.921875 2.894531 L 9.921875 4.21875 L 10.582031 4.21875 L 10.582031 4.550781 L 9.921875 4.550781 L 9.921875 5.871094 L 10.582031 5.871094 L 10.582031 6.535156 L 9.921875 6.535156 L 9.921875 7.855469 L 13.230469 7.855469 L 13.230469 6.535156 L 12.566406 6.535156 L 12.566406 5.871094 L 13.230469 5.871094 L 13.230469 4.550781 L 12.566406 4.550781 L 12.566406 4.21875 L 13.230469 4.21875 L 13.230469 2.894531 Z M 9.921875 2.894531 "/>
<path style=" stroke:none;fill-rule:nonzero;fill:rgb(40.000001%,73.333335%,41.568628%);fill-opacity:1;" d="M 10.253906 3.226562 L 10.253906 3.886719 L 10.914062 3.886719 L 10.914062 4.878906 L 10.253906 4.878906 L 10.253906 5.542969 L 10.914062 5.542969 L 10.914062 6.863281 L 10.253906 6.863281 L 10.253906 7.527344 L 12.898438 7.527344 L 12.898438 6.863281 L 12.238281 6.863281 L 12.238281 5.542969 L 12.898438 5.542969 L 12.898438 4.878906 L 12.238281 4.878906 L 12.238281 3.886719 L 12.898438 3.886719 L 12.898438 3.226562 Z M 10.253906 3.226562 "/>
<path style=" stroke:none;fill-rule:nonzero;fill:rgb(55.29412%,43.137255%,38.82353%);fill-opacity:1;" d="M 20.835938 2.894531 L 20.835938 4.21875 L 21.496094 4.21875 L 21.496094 4.550781 L 20.835938 4.550781 L 20.835938 5.871094 L 21.496094 5.871094 L 21.496094 6.535156 L 20.835938 6.535156 L 20.835938 7.855469 L 24.144531 7.855469 L 24.144531 6.535156 L 23.480469 6.535156 L 23.480469 5.871094 L 24.144531 5.871094 L 24.144531 4.550781 L 23.480469 4.550781 L 23.480469 4.21875 L 24.144531 4.21875 L 24.144531 2.894531 Z M 20.835938 2.894531 "/>
<path style=" stroke:none;fill-rule:nonzero;fill:rgb(40.000001%,73.333335%,41.568628%);fill-opacity:1;" d="M 21.167969 3.226562 L 21.167969 3.886719 L 21.828125 3.886719 L 21.828125 4.878906 L 21.167969 4.878906 L 21.167969 5.542969 L 21.828125 5.542969 L 21.828125 6.863281 L 21.167969 6.863281 L 21.167969 7.527344 L 23.8125 7.527344 L 23.8125 6.863281 L 23.152344 6.863281 L 23.152344 5.542969 L 23.8125 5.542969 L 23.8125 4.878906 L 23.152344 4.878906 L 23.152344 3.886719 L 23.8125 3.886719 L 23.8125 3.226562 Z M 21.167969 3.226562 "/>
<path style=" stroke:none;fill-rule:nonzero;fill:rgb(84.313726%,80.000001%,78.431374%);fill-opacity:1;" d="M 18.519531 12.816406 L 29.105469 12.816406 C 29.835938 12.816406 30.425781 13.410156 30.425781 14.140625 L 30.425781 29.355469 C 30.425781 30.085938 29.835938 30.675781 29.105469 30.675781 L 18.519531 30.675781 C 17.789062 30.675781 17.199219 30.085938 17.199219 29.355469 L 17.199219 14.140625 C 17.199219 13.410156 17.789062 12.816406 18.519531 12.816406 Z M 18.519531 12.816406 "/>
<path style=" stroke:none;fill-rule:nonzero;fill:rgb(55.29412%,43.137255%,38.82353%);fill-opacity:1;" d="M 22.160156 24.394531 L 22.160156 25.714844 L 22.820312 25.714844 L 22.820312 26.046875 L 22.160156 26.046875 L 22.160156 27.371094 L 22.820312 27.371094 L 22.820312 28.03125 L 22.160156 28.03125 L 22.160156 29.355469 L 25.464844 29.355469 L 25.464844 28.03125 L 24.804688 28.03125 L 24.804688 27.371094 L 25.464844 27.371094 L 25.464844 26.046875 L 24.804688 26.046875 L 24.804688 25.714844 L 25.464844 25.714844 L 25.464844 24.394531 Z M 22.160156 24.394531 "/>
<path style=" stroke:none;fill-rule:nonzero;fill:rgb(40.000001%,73.333335%,41.568628%);fill-opacity:1;" d="M 22.488281 24.722656 L 22.488281 25.386719 L 23.152344 25.386719 L 23.152344 26.378906 L 22.488281 26.378906 L 22.488281 27.039062 L 23.152344 27.039062 L 23.152344 28.363281 L 22.488281 28.363281 L 22.488281 29.023438 L 25.136719 29.023438 L 25.136719 28.363281 L 24.472656 28.363281 L 24.472656 27.039062 L 25.136719 27.039062 L 25.136719 26.378906 L 24.472656 26.378906 L 24.472656 25.386719 L 25.136719 25.386719 L 25.136719 24.722656 Z M 22.488281 24.722656 "/>
<path style=" stroke:none;fill-rule:nonzero;fill:rgb(55.29412%,43.137255%,38.82353%);fill-opacity:1;" d="M 18.519531 14.140625 L 18.519531 15.464844 L 19.183594 15.464844 L 19.183594 15.792969 L 18.519531 15.792969 L 18.519531 17.117188 L 19.183594 17.117188 L 19.183594 17.777344 L 18.519531 17.777344 L 18.519531 19.101562 L 21.828125 19.101562 L 21.828125 17.777344 L 21.167969 17.777344 L 21.167969 17.117188 L 21.828125 17.117188 L 21.828125 15.792969 L 21.167969 15.792969 L 21.167969 15.464844 L 21.828125 15.464844 L 21.828125 14.140625 Z M 18.519531 14.140625 "/>
<path style=" stroke:none;fill-rule:nonzero;fill:rgb(40.000001%,73.333335%,41.568628%);fill-opacity:1;" d="M 18.851562 14.472656 L 18.851562 15.132812 L 19.511719 15.132812 L 19.511719 16.125 L 18.851562 16.125 L 18.851562 16.785156 L 19.511719 16.785156 L 19.511719 18.109375 L 18.851562 18.109375 L 18.851562 18.769531 L 21.496094 18.769531 L 21.496094 18.109375 L 20.835938 18.109375 L 20.835938 16.785156 L 21.496094 16.785156 L 21.496094 16.125 L 20.835938 16.125 L 20.835938 15.132812 L 21.496094 15.132812 L 21.496094 14.472656 Z M 18.851562 14.472656 "/>
<path style=" stroke:none;fill-rule:nonzero;fill:rgb(55.29412%,43.137255%,38.82353%);fill-opacity:1;" d="M 25.796875 14.140625 L 25.796875 15.464844 L 26.457031 15.464844 L 26.457031 15.792969 L 25.796875 15.792969 L 25.796875 17.117188 L 26.457031 17.117188 L 26.457031 17.777344 L 25.796875 17.777344 L 25.796875 19.101562 L 29.105469 19.101562 L 29.105469 17.777344 L 28.441406 17.777344 L 28.441406 17.117188 L 29.105469 17.117188 L 29.105469 15.792969 L 28.441406 15.792969 L 28.441406 15.464844 L 29.105469 15.464844 L 29.105469 14.140625 Z M 25.796875 14.140625 "/>
<path style=" stroke:none;fill-rule:nonzero;fill:rgb(40.000001%,73.333335%,41.568628%);fill-opacity:1;" d="M 26.128906 14.472656 L 26.128906 15.132812 L 26.789062 15.132812 L 26.789062 16.125 L 26.128906 16.125 L 26.128906 16.785156 L 26.789062 16.785156 L 26.789062 18.109375 L 26.128906 18.109375 L 26.128906 18.769531 L 28.773438 18.769531 L 28.773438 18.109375 L 28.113281 18.109375 L 28.113281 16.785156 L 28.773438 16.785156 L 28.773438 16.125 L 28.113281 16.125 L 28.113281 15.132812 L 28.773438 15.132812 L 28.773438 14.472656 Z M 26.128906 14.472656 "/>
</g>
</svg>
