
<svg xmlns="http://www.w3.org/2000/svg" xmlns:xlink="http://www.w3.org/1999/xlink" width="32px" height="32px" viewBox="0 0 32 32" version="1.1">
<g id="surface1">
<path style=" stroke:none;fill-rule:nonzero;fill:rgb(61.960787%,61.960787%,61.960787%);fill-opacity:1;" d="M 13.890625 26.460938 L 18.519531 26.460938 C 18.886719 26.460938 19.183594 26.757812 19.183594 27.121094 L 19.183594 29.105469 C 19.183594 29.472656 18.886719 29.765625 18.519531 29.765625 L 13.890625 29.765625 C 13.523438 29.765625 13.230469 29.472656 13.230469 29.105469 L 13.230469 27.121094 C 13.230469 26.757812 13.523438 26.460938 13.890625 26.460938 Z M 13.890625 26.460938 "/>
<path style=" stroke:none;fill-rule:nonzero;fill:rgb(100%,71.764708%,30.19608%);fill-opacity:1;" d="M 2.644531 3.308594 L 29.105469 3.308594 C 29.835938 3.308594 30.425781 3.902344 30.425781 4.632812 L 30.425781 25.796875 C 30.425781 26.53125 29.835938 27.121094 29.105469 27.121094 L 2.644531 27.121094 C 1.914062 27.121094 1.324219 26.53125 1.324219 25.796875 L 1.324219 4.632812 C 1.324219 3.902344 1.914062 3.308594 2.644531 3.308594 Z M 2.644531 3.308594 "/>
<path style=" stroke:none;fill-rule:nonzero;fill:rgb(72.941178%,40.784314%,78.431374%);fill-opacity:1;" d="M 30 3.65625 L 1.75 26.773438 C 1.984375 26.988281 2.300781 27.121094 2.644531 27.121094 L 29.105469 27.121094 C 29.835938 27.121094 30.425781 26.53125 30.425781 25.796875 L 30.425781 4.632812 C 30.425781 4.246094 30.261719 3.898438 30 3.65625 Z M 30 3.65625 "/>
<path style=" stroke:none;fill-rule:nonzero;fill:rgb(74.117649%,74.117649%,74.117649%);fill-opacity:1;" d="M 9.921875 28.445312 L 21.828125 28.445312 C 22.195312 28.445312 22.488281 28.742188 22.488281 29.105469 C 22.488281 29.472656 22.195312 29.765625 21.828125 29.765625 L 9.921875 29.765625 C 9.554688 29.765625 9.261719 29.472656 9.261719 29.105469 C 9.261719 28.742188 9.554688 28.445312 9.921875 28.445312 Z M 9.921875 28.445312 "/>
<path style=" stroke:none;fill-rule:nonzero;fill:rgb(94.117647%,38.431373%,57.254905%);fill-opacity:1;" d="M 1.75 3.65625 C 1.488281 3.898438 1.324219 4.246094 1.324219 4.632812 L 1.324219 25.796875 C 1.324219 26.53125 1.914062 27.121094 2.644531 27.121094 L 29.105469 27.121094 C 29.449219 27.121094 29.765625 26.988281 30 26.773438 Z M 1.75 3.65625 "/>
<path style=" stroke:none;fill-rule:nonzero;fill:rgb(74.117649%,74.117649%,74.117649%);fill-opacity:1;" d="M 2.644531 3.308594 C 1.914062 3.308594 1.324219 3.898438 1.324219 4.632812 L 30.425781 4.632812 C 30.425781 3.898438 29.835938 3.308594 29.105469 3.308594 Z M 1.324219 25.796875 C 1.324219 26.53125 1.914062 27.121094 2.644531 27.121094 L 29.105469 27.121094 C 29.835938 27.121094 30.425781 26.53125 30.425781 25.796875 Z M 1.324219 25.796875 "/>
<path style=" stroke:none;fill-rule:nonzero;fill:rgb(93.333334%,93.333334%,93.333334%);fill-opacity:1;" d="M 15.542969 11.90625 L 16.207031 11.90625 C 16.386719 11.90625 16.535156 12.054688 16.535156 12.238281 L 16.535156 18.191406 C 16.535156 18.371094 16.386719 18.519531 16.207031 18.519531 L 15.542969 18.519531 C 15.363281 18.519531 15.214844 18.371094 15.214844 18.191406 L 15.214844 12.238281 C 15.214844 12.054688 15.363281 11.90625 15.542969 11.90625 Z M 15.542969 11.90625 "/>
<path style=" stroke:none;fill-rule:nonzero;fill:rgb(93.333334%,93.333334%,93.333334%);fill-opacity:1;" d="M 9.121094 7.9375 C 8.464844 7.9375 7.9375 8.527344 7.9375 9.261719 L 7.9375 11.246094 L 9.261719 11.246094 L 9.261719 9.921875 C 9.261719 9.554688 9.554688 9.285156 9.921875 9.261719 L 12.566406 9.261719 L 12.566406 7.9375 Z M 19.183594 7.9375 L 19.183594 9.261719 L 21.828125 9.261719 C 22.195312 9.261719 22.488281 9.554688 22.488281 9.921875 L 22.488281 11.246094 L 23.8125 11.246094 L 23.8125 9.261719 C 23.8125 8.527344 23.285156 7.9375 22.628906 7.9375 Z M 7.9375 19.183594 L 7.9375 21.167969 C 7.9375 21.898438 8.464844 22.488281 9.121094 22.488281 L 12.566406 22.488281 L 12.566406 21.167969 L 9.921875 21.167969 C 9.554688 21.167969 9.261719 20.871094 9.261719 20.503906 L 9.261719 19.183594 Z M 22.488281 19.183594 L 22.488281 20.503906 C 22.488281 20.871094 22.195312 21.179688 21.828125 21.167969 L 19.183594 21.167969 L 19.183594 22.488281 L 22.628906 22.488281 C 23.285156 22.488281 23.8125 21.898438 23.8125 21.167969 L 23.8125 19.183594 Z M 22.488281 19.183594 "/>
<path style=" stroke:none;fill-rule:nonzero;fill:rgb(93.333334%,93.333334%,93.333334%);fill-opacity:1;" d="M 19.183594 14.882812 L 19.183594 15.542969 C 19.183594 15.726562 19.035156 15.875 18.851562 15.875 L 12.898438 15.875 C 12.714844 15.875 12.566406 15.726562 12.566406 15.542969 L 12.566406 14.882812 C 12.566406 14.699219 12.714844 14.550781 12.898438 14.550781 L 18.851562 14.550781 C 19.035156 14.550781 19.183594 14.699219 19.183594 14.882812 Z M 19.183594 14.882812 "/>
</g>
</svg>
