<?xml version="1.0" encoding="UTF-8"?>
<svg xmlns="http://www.w3.org/2000/svg" xmlns:xlink="http://www.w3.org/1999/xlink" width="32px" height="32px" viewBox="0 0 32 32" version="1.1">
<g id="surface1">
<path style=" stroke:none;fill-rule:nonzero;fill:rgb(25.882354%,25.882354%,25.882354%);fill-opacity:1;" d="M 7.277344 4.691406 C 7.179688 4.691406 7.101562 4.761719 7.089844 4.855469 L 7.078125 4.960938 L 7.191406 4.960938 C 7.238281 4.960938 7.277344 5 7.277344 5.046875 L 7.277344 5.210938 C 7.277344 5.257812 7.238281 5.292969 7.191406 5.292969 L 7.035156 5.292969 L 6.992188 5.625 L 7.109375 5.625 C 7.15625 5.625 7.191406 5.660156 7.191406 5.707031 L 7.191406 5.871094 C 7.191406 5.917969 7.15625 5.953125 7.109375 5.953125 L 6.953125 5.953125 L 6.925781 6.179688 C 6.910156 6.292969 6.996094 6.390625 7.109375 6.390625 L 8.101562 6.390625 C 8.214844 6.390625 8.304688 6.292969 8.289062 6.179688 L 8.261719 5.953125 L 8.101562 5.953125 C 8.058594 5.953125 8.019531 5.917969 8.019531 5.871094 L 8.019531 5.707031 C 8.019531 5.660156 8.058594 5.625 8.101562 5.625 L 8.21875 5.625 L 8.179688 5.292969 L 8.019531 5.292969 C 7.972656 5.292969 7.9375 5.257812 7.9375 5.210938 L 7.9375 5.046875 C 7.9375 5 7.972656 4.960938 8.019531 4.960938 L 8.136719 4.960938 L 8.125 4.855469 C 8.113281 4.761719 8.03125 4.691406 7.9375 4.691406 Z M 7.277344 4.691406 "/>
<path style=" stroke:none;fill-rule:nonzero;fill:rgb(38.039216%,38.039216%,38.039216%);fill-opacity:1;" d="M 2.644531 6.203125 L 29.105469 6.203125 C 29.835938 6.203125 30.425781 6.738281 30.425781 7.398438 L 30.425781 24.851562 C 30.425781 25.511719 29.835938 26.046875 29.105469 26.046875 L 2.644531 26.046875 C 1.914062 26.046875 1.324219 25.511719 1.324219 24.851562 L 1.324219 7.398438 C 1.324219 6.738281 1.914062 6.203125 2.644531 6.203125 Z M 2.644531 6.203125 "/>
<path style=" stroke:none;fill-rule:nonzero;fill:rgb(93.725491%,32.549021%,31.37255%);fill-opacity:1;" d="M 6.945312 12.816406 L 8.929688 12.816406 C 9.296875 12.816406 9.589844 12.523438 9.589844 12.15625 L 9.589844 10.171875 C 9.589844 9.804688 9.296875 9.511719 8.929688 9.511719 L 6.945312 9.511719 C 6.578125 9.511719 6.285156 9.804688 6.285156 10.171875 L 6.285156 12.15625 C 6.285156 12.523438 6.578125 12.816406 6.945312 12.816406 Z M 6.945312 12.816406 "/>
<path style=" stroke:none;fill-rule:nonzero;fill:rgb(100%,65.490198%,14.901961%);fill-opacity:1;" d="M 10.914062 12.816406 L 12.898438 12.816406 C 13.265625 12.816406 13.558594 12.523438 13.558594 12.15625 L 13.558594 10.171875 C 13.558594 9.804688 13.265625 9.511719 12.898438 9.511719 L 10.914062 9.511719 C 10.546875 9.511719 10.253906 9.804688 10.253906 10.171875 L 10.253906 12.15625 C 10.253906 12.523438 10.546875 12.816406 10.914062 12.816406 Z M 10.914062 12.816406 "/>
<path style=" stroke:none;fill-rule:nonzero;fill:rgb(47.058824%,56.470591%,61.176473%);fill-opacity:1;" d="M 14.882812 12.816406 L 16.867188 12.816406 C 17.234375 12.816406 17.527344 12.523438 17.527344 12.15625 L 17.527344 10.171875 C 17.527344 9.804688 17.234375 9.511719 16.867188 9.511719 L 14.882812 9.511719 C 14.515625 9.511719 14.222656 9.804688 14.222656 10.171875 L 14.222656 12.15625 C 14.222656 12.523438 14.515625 12.816406 14.882812 12.816406 Z M 14.882812 12.816406 "/>
<path style=" stroke:none;fill-rule:nonzero;fill:rgb(14.901961%,65.098041%,60.392159%);fill-opacity:1;" d="M 18.851562 12.816406 L 20.835938 12.816406 C 21.203125 12.816406 21.496094 12.523438 21.496094 12.15625 L 21.496094 10.171875 C 21.496094 9.804688 21.203125 9.511719 20.835938 9.511719 L 18.851562 9.511719 C 18.484375 9.511719 18.191406 9.804688 18.191406 10.171875 L 18.191406 12.15625 C 18.191406 12.523438 18.484375 12.816406 18.851562 12.816406 Z M 18.851562 12.816406 "/>
<path style=" stroke:none;fill-rule:nonzero;fill:rgb(55.29412%,43.137255%,38.82353%);fill-opacity:1;" d="M 22.820312 12.816406 L 24.804688 12.816406 C 25.171875 12.816406 25.464844 12.523438 25.464844 12.15625 L 25.464844 10.171875 C 25.464844 9.804688 25.171875 9.511719 24.804688 9.511719 L 22.820312 9.511719 C 22.453125 9.511719 22.160156 9.804688 22.160156 10.171875 L 22.160156 12.15625 C 22.160156 12.523438 22.453125 12.816406 22.820312 12.816406 Z M 22.820312 12.816406 "/>
<path style=" stroke:none;fill-rule:nonzero;fill:rgb(14.901961%,77.64706%,85.490197%);fill-opacity:1;" d="M 2.976562 16.785156 L 6.285156 16.785156 C 6.648438 16.785156 6.945312 16.492188 6.945312 16.125 L 6.945312 14.140625 C 6.945312 13.773438 6.648438 13.480469 6.285156 13.480469 L 2.976562 13.480469 C 2.609375 13.480469 2.316406 13.773438 2.316406 14.140625 L 2.316406 16.125 C 2.316406 16.492188 2.609375 16.785156 2.976562 16.785156 Z M 2.976562 16.785156 "/>
<path style=" stroke:none;fill-rule:nonzero;fill:rgb(40.000001%,73.333335%,41.568628%);fill-opacity:1;" d="M 8.269531 16.785156 L 10.253906 16.785156 C 10.617188 16.785156 10.914062 16.492188 10.914062 16.125 L 10.914062 14.140625 C 10.914062 13.773438 10.617188 13.480469 10.253906 13.480469 L 8.269531 13.480469 C 7.902344 13.480469 7.605469 13.773438 7.605469 14.140625 L 7.605469 16.125 C 7.605469 16.492188 7.902344 16.785156 8.269531 16.785156 Z M 8.269531 16.785156 "/>
<path style=" stroke:none;fill-rule:nonzero;fill:rgb(25.882354%,64.705884%,96.078432%);fill-opacity:1;" d="M 16.207031 16.785156 L 18.191406 16.785156 C 18.554688 16.785156 18.851562 16.492188 18.851562 16.125 L 18.851562 14.140625 C 18.851562 13.773438 18.554688 13.480469 18.191406 13.480469 L 16.207031 13.480469 C 15.839844 13.480469 15.542969 13.773438 15.542969 14.140625 L 15.542969 16.125 C 15.542969 16.492188 15.839844 16.785156 16.207031 16.785156 Z M 16.207031 16.785156 "/>
<path style=" stroke:none;fill-rule:nonzero;fill:rgb(40.000001%,73.333335%,41.568628%);fill-opacity:1;" d="M 20.175781 16.785156 L 22.160156 16.785156 C 22.523438 16.785156 22.820312 16.492188 22.820312 16.125 L 22.820312 14.140625 C 22.820312 13.773438 22.523438 13.480469 22.160156 13.480469 L 20.175781 13.480469 C 19.808594 13.480469 19.511719 13.773438 19.511719 14.140625 L 19.511719 16.125 C 19.511719 16.492188 19.808594 16.785156 20.175781 16.785156 Z M 20.175781 16.785156 "/>
<path style=" stroke:none;fill-rule:nonzero;fill:rgb(100%,79.215688%,15.686275%);fill-opacity:1;" d="M 2.976562 20.753906 L 6.945312 20.753906 C 7.3125 20.753906 7.605469 20.460938 7.605469 20.09375 L 7.605469 18.109375 C 7.605469 17.742188 7.3125 17.449219 6.945312 17.449219 L 2.976562 17.449219 C 2.609375 17.449219 2.316406 17.742188 2.316406 18.109375 L 2.316406 20.09375 C 2.316406 20.460938 2.609375 20.753906 2.976562 20.753906 Z M 2.976562 20.753906 "/>
<path style=" stroke:none;fill-rule:nonzero;fill:rgb(16.078432%,71.372551%,96.470588%);fill-opacity:1;" d="M 8.929688 20.753906 L 10.914062 20.753906 C 11.28125 20.753906 11.574219 20.460938 11.574219 20.09375 L 11.574219 18.109375 C 11.574219 17.742188 11.28125 17.449219 10.914062 17.449219 L 8.929688 17.449219 C 8.5625 17.449219 8.269531 17.742188 8.269531 18.109375 L 8.269531 20.09375 C 8.269531 20.460938 8.5625 20.753906 8.929688 20.753906 Z M 8.929688 20.753906 "/>
<path style=" stroke:none;fill-rule:nonzero;fill:rgb(100%,43.921569%,26.274511%);fill-opacity:1;" d="M 12.898438 20.753906 L 14.882812 20.753906 C 15.25 20.753906 15.542969 20.460938 15.542969 20.09375 L 15.542969 18.109375 C 15.542969 17.742188 15.25 17.449219 14.882812 17.449219 L 12.898438 17.449219 C 12.53125 17.449219 12.238281 17.742188 12.238281 18.109375 L 12.238281 20.09375 C 12.238281 20.460938 12.53125 20.753906 12.898438 20.753906 Z M 12.898438 20.753906 "/>
<path style=" stroke:none;fill-rule:nonzero;fill:rgb(36.078432%,41.960785%,75.294119%);fill-opacity:1;" d="M 20.835938 20.753906 L 22.820312 20.753906 C 23.1875 20.753906 23.480469 20.460938 23.480469 20.09375 L 23.480469 18.109375 C 23.480469 17.742188 23.1875 17.449219 22.820312 17.449219 L 20.835938 17.449219 C 20.46875 17.449219 20.175781 17.742188 20.175781 18.109375 L 20.175781 20.09375 C 20.175781 20.460938 20.46875 20.753906 20.835938 20.753906 Z M 20.835938 20.753906 "/>
<path style=" stroke:none;fill-rule:nonzero;fill:rgb(14.901961%,77.64706%,85.490197%);fill-opacity:1;" d="M 24.804688 20.753906 L 28.773438 20.753906 C 29.140625 20.753906 29.433594 20.460938 29.433594 20.09375 L 29.433594 18.109375 C 29.433594 17.742188 29.140625 17.449219 28.773438 17.449219 L 24.804688 17.449219 C 24.4375 17.449219 24.144531 17.742188 24.144531 18.109375 L 24.144531 20.09375 C 24.144531 20.460938 24.4375 20.753906 24.804688 20.753906 Z M 24.804688 20.753906 "/>
<path style=" stroke:none;fill-rule:nonzero;fill:rgb(47.450981%,52.549022%,79.607844%);fill-opacity:1;" d="M 7.605469 24.722656 L 10.253906 24.722656 C 10.617188 24.722656 10.914062 24.429688 10.914062 24.0625 L 10.914062 22.078125 C 10.914062 21.710938 10.617188 21.417969 10.253906 21.417969 L 7.605469 21.417969 C 7.242188 21.417969 6.945312 21.710938 6.945312 22.078125 L 6.945312 24.0625 C 6.945312 24.429688 7.242188 24.722656 7.605469 24.722656 Z M 7.605469 24.722656 "/>
<path style=" stroke:none;fill-rule:nonzero;fill:rgb(83.137256%,88.235295%,34.117648%);fill-opacity:1;" d="M 12.238281 24.722656 L 19.511719 24.722656 C 19.878906 24.722656 20.175781 24.429688 20.175781 24.0625 L 20.175781 22.078125 C 20.175781 21.710938 19.878906 21.417969 19.511719 21.417969 L 12.238281 21.417969 C 11.871094 21.417969 11.574219 21.710938 11.574219 22.078125 L 11.574219 24.0625 C 11.574219 24.429688 11.871094 24.722656 12.238281 24.722656 Z M 12.238281 24.722656 "/>
<path style=" stroke:none;fill-rule:nonzero;fill:rgb(14.901961%,65.098041%,60.392159%);fill-opacity:1;" d="M 21.496094 24.722656 L 24.144531 24.722656 C 24.507812 24.722656 24.804688 24.429688 24.804688 24.0625 L 24.804688 22.078125 C 24.804688 21.710938 24.507812 21.417969 24.144531 21.417969 L 21.496094 21.417969 C 21.132812 21.417969 20.835938 21.710938 20.835938 22.078125 L 20.835938 24.0625 C 20.835938 24.429688 21.132812 24.722656 21.496094 24.722656 Z M 21.496094 24.722656 "/>
<path style=" stroke:none;fill-rule:nonzero;fill:rgb(100%,65.490198%,14.901961%);fill-opacity:1;" d="M 26.128906 24.722656 L 28.773438 24.722656 C 29.140625 24.722656 29.433594 24.429688 29.433594 24.0625 L 29.433594 22.078125 C 29.433594 21.710938 29.140625 21.417969 28.773438 21.417969 L 26.128906 21.417969 C 25.761719 21.417969 25.464844 21.710938 25.464844 22.078125 L 25.464844 24.0625 C 25.464844 24.429688 25.761719 24.722656 26.128906 24.722656 Z M 26.128906 24.722656 "/>
<path style=" stroke:none;fill-rule:nonzero;fill:rgb(100%,93.333334%,34.509805%);fill-opacity:1;" d="M 24.144531 16.785156 L 28.773438 16.785156 C 29.140625 16.785156 29.433594 16.492188 29.433594 16.125 L 29.433594 14.140625 C 29.433594 13.773438 29.140625 13.480469 28.773438 13.480469 L 24.144531 13.480469 C 23.777344 13.480469 23.480469 13.773438 23.480469 14.140625 L 23.480469 16.125 C 23.480469 16.492188 23.777344 16.785156 24.144531 16.785156 Z M 24.144531 16.785156 "/>
<path style=" stroke:none;fill-rule:nonzero;fill:rgb(100%,43.921569%,26.274511%);fill-opacity:1;" d="M 26.789062 12.816406 L 28.773438 12.816406 C 29.140625 12.816406 29.433594 12.523438 29.433594 12.15625 L 29.433594 10.171875 C 29.433594 9.804688 29.140625 9.511719 28.773438 9.511719 L 26.789062 9.511719 C 26.421875 9.511719 26.128906 9.804688 26.128906 10.171875 L 26.128906 12.15625 C 26.128906 12.523438 26.421875 12.816406 26.789062 12.816406 Z M 26.789062 12.816406 "/>
<path style=" stroke:none;fill-rule:nonzero;fill:rgb(16.078432%,71.372551%,96.470588%);fill-opacity:1;" d="M 22.488281 7.195312 C 22.855469 7.195312 23.152344 7.492188 23.152344 7.855469 C 23.152344 8.222656 22.855469 8.519531 22.488281 8.519531 C 22.125 8.519531 21.828125 8.222656 21.828125 7.855469 C 21.828125 7.492188 22.125 7.195312 22.488281 7.195312 Z M 22.488281 7.195312 "/>
<path style=" stroke:none;fill-rule:nonzero;fill:rgb(16.078432%,71.372551%,96.470588%);fill-opacity:1;" d="M 25.136719 7.195312 C 25.5 7.195312 25.796875 7.492188 25.796875 7.855469 C 25.796875 8.222656 25.5 8.519531 25.136719 8.519531 C 24.769531 8.519531 24.472656 8.222656 24.472656 7.855469 C 24.472656 7.492188 24.769531 7.195312 25.136719 7.195312 Z M 25.136719 7.195312 "/>
<path style=" stroke:none;fill-rule:nonzero;fill:rgb(16.078432%,71.372551%,96.470588%);fill-opacity:1;" d="M 27.78125 7.195312 C 28.148438 7.195312 28.441406 7.492188 28.441406 7.855469 C 28.441406 8.222656 28.148438 8.519531 27.78125 8.519531 C 27.414062 8.519531 27.121094 8.222656 27.121094 7.855469 C 27.121094 7.492188 27.414062 7.195312 27.78125 7.195312 Z M 27.78125 7.195312 "/>
<path style="fill:none;stroke-width:10.583;stroke-linecap:butt;stroke-linejoin:miter;stroke:rgb(25.882354%,25.882354%,25.882354%);stroke-opacity:1;stroke-miterlimit:4;" d="M 121.6875 -131.625 C 121.6875 -221.5625 381 -99.875 381 -189.8125 " transform="matrix(0.0625,0,0,0.0625,0,13.4375)"/>
<path style=" stroke:none;fill-rule:nonzero;fill:rgb(92.54902%,25.098041%,47.843137%);fill-opacity:1;" d="M 16.867188 20.753906 L 18.851562 20.753906 C 19.21875 20.753906 19.511719 20.460938 19.511719 20.09375 L 19.511719 18.109375 C 19.511719 17.742188 19.21875 17.449219 18.851562 17.449219 L 16.867188 17.449219 C 16.5 17.449219 16.207031 17.742188 16.207031 18.109375 L 16.207031 20.09375 C 16.207031 20.460938 16.5 20.753906 16.867188 20.753906 Z M 16.867188 20.753906 "/>
<path style=" stroke:none;fill-rule:nonzero;fill:rgb(87.843138%,87.843138%,87.843138%);fill-opacity:1;" d="M 12.238281 16.785156 L 14.222656 16.785156 C 14.585938 16.785156 14.882812 16.492188 14.882812 16.125 L 14.882812 14.140625 C 14.882812 13.773438 14.585938 13.480469 14.222656 13.480469 L 12.238281 13.480469 C 11.871094 13.480469 11.574219 13.773438 11.574219 14.140625 L 11.574219 16.125 C 11.574219 16.492188 11.871094 16.785156 12.238281 16.785156 Z M 12.238281 16.785156 "/>
<path style=" stroke:none;fill-rule:nonzero;fill:rgb(40.000001%,73.333335%,41.568628%);fill-opacity:1;" d="M 2.976562 24.722656 L 5.621094 24.722656 C 5.988281 24.722656 6.285156 24.429688 6.285156 24.0625 L 6.285156 22.078125 C 6.285156 21.710938 5.988281 21.417969 5.621094 21.417969 L 2.976562 21.417969 C 2.609375 21.417969 2.316406 21.710938 2.316406 22.078125 L 2.316406 24.0625 C 2.316406 24.429688 2.609375 24.722656 2.976562 24.722656 Z M 2.976562 24.722656 "/>
<path style=" stroke:none;fill-rule:nonzero;fill:rgb(72.941178%,40.784314%,78.431374%);fill-opacity:1;" d="M 2.976562 12.816406 L 4.960938 12.816406 C 5.328125 12.816406 5.621094 12.523438 5.621094 12.15625 L 5.621094 10.171875 C 5.621094 9.804688 5.328125 9.511719 4.960938 9.511719 L 2.976562 9.511719 C 2.609375 9.511719 2.316406 9.804688 2.316406 10.171875 L 2.316406 12.15625 C 2.316406 12.523438 2.609375 12.816406 2.976562 12.816406 Z M 2.976562 12.816406 "/>
</g>
</svg>
