
<svg xmlns="http://www.w3.org/2000/svg" xmlns:xlink="http://www.w3.org/1999/xlink" width="32px" height="32px" viewBox="0 0 32 32" version="1.1">
<defs>
<filter id="alpha" filterUnits="objectBoundingBox" x="0%" y="0%" width="100%" height="100%">
  <feColorMatrix type="matrix" in="SourceGraphic" values="0 0 0 0 1 0 0 0 0 1 0 0 0 0 1 0 0 0 1 0"/>
</filter>
<mask id="mask0">
  <g filter="url(#alpha)">
<rect x="0" y="0" width="32" height="32" style="fill:rgb(0%,0%,0%);fill-opacity:0.986432;stroke:none;"/>
  </g>
</mask>
<clipPath id="clip1">
  <rect x="0" y="0" width="32" height="32"/>
</clipPath>
<g id="surface5" clip-path="url(#clip1)">
<path style=" stroke:none;fill-rule:nonzero;fill:rgb(100%,65.490198%,14.901961%);fill-opacity:1;" d="M 25.136719 8.597656 C 24.769531 8.597656 24.472656 8.894531 24.472656 9.261719 L 24.472656 12.566406 L 28.441406 12.566406 L 28.441406 9.261719 C 28.441406 8.894531 28.148438 8.597656 27.78125 8.597656 Z M 25.136719 8.597656 "/>
</g>
<mask id="mask1">
  <g filter="url(#alpha)">
<rect x="0" y="0" width="32" height="32" style="fill:rgb(0%,0%,0%);fill-opacity:0.986432;stroke:none;"/>
  </g>
</mask>
<clipPath id="clip2">
  <rect x="0" y="0" width="32" height="32"/>
</clipPath>
<g id="surface8" clip-path="url(#clip2)">
<path style=" stroke:none;fill-rule:nonzero;fill:rgb(16.078432%,71.372551%,96.470588%);fill-opacity:1;" d="M 24.472656 12.566406 L 28.441406 12.566406 L 28.441406 16.535156 L 24.472656 16.535156 Z M 24.472656 12.566406 "/>
</g>
<mask id="mask2">
  <g filter="url(#alpha)">
<rect x="0" y="0" width="32" height="32" style="fill:rgb(0%,0%,0%);fill-opacity:0.986432;stroke:none;"/>
  </g>
</mask>
<clipPath id="clip3">
  <rect x="0" y="0" width="32" height="32"/>
</clipPath>
<g id="surface11" clip-path="url(#clip3)">
<path style=" stroke:none;fill-rule:nonzero;fill:rgb(92.54902%,25.098041%,47.843137%);fill-opacity:1;" d="M 24.472656 16.535156 L 28.441406 16.535156 L 28.441406 20.503906 L 24.472656 20.503906 Z M 24.472656 16.535156 "/>
</g>
<mask id="mask3">
  <g filter="url(#alpha)">
<rect x="0" y="0" width="32" height="32" style="fill:rgb(0%,0%,0%);fill-opacity:0.986432;stroke:none;"/>
  </g>
</mask>
<clipPath id="clip4">
  <rect x="0" y="0" width="32" height="32"/>
</clipPath>
<g id="surface14" clip-path="url(#clip4)">
<path style=" stroke:none;fill-rule:nonzero;fill:rgb(40.000001%,73.333335%,41.568628%);fill-opacity:1;" d="M 24.472656 20.503906 L 24.472656 23.8125 C 24.472656 24.179688 24.769531 24.472656 25.136719 24.472656 L 27.78125 24.472656 C 28.148438 24.472656 28.441406 24.179688 28.441406 23.8125 L 28.441406 20.503906 Z M 24.472656 20.503906 "/>
</g>
</defs>
<g id="surface1">
<path style=" stroke:none;fill-rule:nonzero;fill:rgb(32.941177%,43.137255%,47.843137%);fill-opacity:1;" d="M 5.292969 1.324219 L 26.457031 1.324219 C 27.1875 1.324219 27.78125 1.914062 27.78125 2.644531 L 27.78125 29.105469 C 27.78125 29.835938 27.1875 30.425781 26.457031 30.425781 L 5.292969 30.425781 C 4.5625 30.425781 3.96875 29.835938 3.96875 29.105469 L 3.96875 2.644531 C 3.96875 1.914062 4.5625 1.324219 5.292969 1.324219 Z M 5.292969 1.324219 "/>
<path style=" stroke:none;fill-rule:nonzero;fill:rgb(96.078432%,96.078432%,96.078432%);fill-opacity:1;" d="M 7.277344 1.984375 L 26.457031 1.984375 C 26.824219 1.984375 27.121094 2.28125 27.121094 2.644531 L 27.121094 29.105469 C 27.121094 29.46875 26.824219 29.765625 26.457031 29.765625 L 7.277344 29.765625 C 6.910156 29.765625 6.613281 29.46875 6.613281 29.105469 L 6.613281 2.644531 C 6.613281 2.28125 6.910156 1.984375 7.277344 1.984375 Z M 7.277344 1.984375 "/>
<use xlink:href="#surface5" mask="url(#mask0)"/>
<use xlink:href="#surface8" mask="url(#mask1)"/>
<use xlink:href="#surface11" mask="url(#mask2)"/>
<use xlink:href="#surface14" mask="url(#mask3)"/>
<path style=" stroke:none;fill-rule:nonzero;fill:rgb(47.058824%,56.470591%,61.176473%);fill-opacity:1;" d="M 5.292969 1.324219 L 25.136719 1.324219 C 25.867188 1.324219 26.457031 1.914062 26.457031 2.644531 L 26.457031 29.105469 C 26.457031 29.835938 25.867188 30.425781 25.136719 30.425781 L 5.292969 30.425781 C 4.5625 30.425781 3.96875 29.835938 3.96875 29.105469 L 3.96875 2.644531 C 3.96875 1.914062 4.5625 1.324219 5.292969 1.324219 Z M 5.292969 1.324219 "/>
<path style=" stroke:none;fill-rule:nonzero;fill:rgb(32.941177%,43.137255%,47.843137%);fill-opacity:1;" d="M 5.292969 1.324219 C 4.558594 1.324219 3.96875 1.914062 3.96875 2.644531 L 3.96875 29.105469 C 3.96875 29.835938 4.558594 30.425781 5.292969 30.425781 L 7.9375 30.425781 L 7.9375 1.324219 Z M 5.292969 1.324219 "/>
<path style=" stroke:none;fill-rule:nonzero;fill:rgb(56.470591%,64.313728%,68.235296%);fill-opacity:1;" d="M 3.96875 15.214844 L 7.277344 15.214844 L 7.277344 16.535156 L 3.96875 16.535156 Z M 3.96875 15.214844 "/>
<path style=" stroke:none;fill-rule:nonzero;fill:rgb(56.470591%,64.313728%,68.235296%);fill-opacity:1;" d="M 3.96875 7.9375 L 7.277344 7.9375 L 7.277344 9.261719 L 3.96875 9.261719 Z M 3.96875 7.9375 "/>
<path style=" stroke:none;fill-rule:nonzero;fill:rgb(56.470591%,64.313728%,68.235296%);fill-opacity:1;" d="M 3.96875 22.488281 L 7.277344 22.488281 L 7.277344 23.8125 L 3.96875 23.8125 Z M 3.96875 22.488281 "/>
<path style=" stroke:none;fill-rule:nonzero;fill:rgb(81.176472%,84.705883%,86.274511%);fill-opacity:1;" d="M 14.019531 14.945312 C 12.636719 14.945312 11.519531 16.058594 11.519531 17.445312 L 11.519531 21.726562 C 11.519531 22.125 11.839844 22.441406 12.234375 22.441406 L 12.589844 22.441406 C 12.988281 22.441406 13.304688 22.125 13.304688 21.726562 L 13.304688 17.621094 C 13.304688 17.523438 13.386719 17.445312 13.484375 17.445312 C 13.582031 17.445312 13.664062 17.523438 13.664062 17.621094 L 13.664062 21.726562 C 13.664062 22.125 13.980469 22.441406 14.375 22.441406 L 18.660156 22.441406 C 19.054688 22.441406 19.375 22.125 19.375 21.726562 L 19.375 17.621094 C 19.375 17.523438 19.453125 17.445312 19.550781 17.445312 C 19.652344 17.445312 19.730469 17.523438 19.730469 17.621094 L 19.730469 21.726562 C 19.730469 22.125 20.050781 22.441406 20.445312 22.441406 L 20.800781 22.441406 C 21.199219 22.441406 21.515625 22.125 21.515625 21.726562 L 21.515625 17.445312 C 21.515625 16.058594 20.402344 14.945312 19.015625 14.945312 Z M 14.019531 14.945312 "/>
<path style=" stroke:none;fill-rule:nonzero;fill:rgb(81.176472%,84.705883%,86.274511%);fill-opacity:1;" d="M 16.519531 9.589844 C 17.898438 9.589844 19.015625 10.710938 19.015625 12.089844 C 19.015625 13.46875 17.898438 14.589844 16.519531 14.589844 C 15.136719 14.589844 14.019531 13.46875 14.019531 12.089844 C 14.019531 10.710938 15.136719 9.589844 16.519531 9.589844 Z M 16.519531 9.589844 "/>
</g>
</svg>
