
<svg xmlns="http://www.w3.org/2000/svg" xmlns:xlink="http://www.w3.org/1999/xlink" width="32px" height="32px" viewBox="0 0 32 32" version="1.1">
<g id="surface1">
<path style=" stroke:none;fill-rule:nonzero;fill:rgb(25.882354%,64.705884%,96.078432%);fill-opacity:0.995763;" d="M 10.613281 23.8125 L 23.78125 23.8125 C 24.164062 23.8125 24.472656 24.121094 24.472656 24.503906 L 24.472656 27.089844 C 24.472656 27.472656 24.164062 27.78125 23.78125 27.78125 L 10.613281 27.78125 C 10.230469 27.78125 9.921875 27.472656 9.921875 27.089844 L 9.921875 24.503906 C 9.921875 24.121094 10.230469 23.8125 10.613281 23.8125 Z M 10.613281 23.8125 "/>
<path style=" stroke:none;fill-rule:nonzero;fill:rgb(25.882354%,64.705884%,96.078432%);fill-opacity:0.995763;" d="M 3.308594 6.613281 L 29.765625 6.613281 C 30.132812 6.613281 30.425781 6.910156 30.425781 7.277344 L 30.425781 24.472656 C 30.425781 24.839844 30.132812 25.136719 29.765625 25.136719 L 3.308594 25.136719 C 2.941406 25.136719 2.644531 24.839844 2.644531 24.472656 L 2.644531 7.277344 C 2.644531 6.910156 2.941406 6.613281 3.308594 6.613281 Z M 3.308594 6.613281 "/>
<path style=" stroke:none;fill-rule:nonzero;fill:rgb(92.54902%,25.098041%,47.843137%);fill-opacity:0.995763;" d="M 3.308594 18.519531 L 5.953125 18.519531 C 6.320312 18.519531 6.613281 18.816406 6.613281 19.183594 L 6.613281 21.828125 C 6.613281 22.195312 6.320312 22.488281 5.953125 22.488281 L 3.308594 22.488281 C 2.941406 22.488281 2.644531 22.195312 2.644531 21.828125 L 2.644531 19.183594 C 2.644531 18.816406 2.941406 18.519531 3.308594 18.519531 Z M 3.308594 18.519531 "/>
<path style=" stroke:none;fill-rule:nonzero;fill:rgb(100%,43.921569%,26.274511%);fill-opacity:0.995763;" d="M 3.308594 13.890625 L 5.953125 13.890625 C 6.320312 13.890625 6.613281 14.1875 6.613281 14.550781 L 6.613281 17.199219 C 6.613281 17.5625 6.320312 17.859375 5.953125 17.859375 L 3.308594 17.859375 C 2.941406 17.859375 2.644531 17.5625 2.644531 17.199219 L 2.644531 14.550781 C 2.644531 14.1875 2.941406 13.890625 3.308594 13.890625 Z M 3.308594 13.890625 "/>
<path style=" stroke:none;fill-rule:nonzero;fill:rgb(36.078432%,41.960785%,75.294119%);fill-opacity:0.995763;" d="M 3.308594 9.261719 L 5.953125 9.261719 C 6.320312 9.261719 6.613281 9.554688 6.613281 9.921875 L 6.613281 12.566406 C 6.613281 12.933594 6.320312 13.230469 5.953125 13.230469 L 3.308594 13.230469 C 2.941406 13.230469 2.644531 12.933594 2.644531 12.566406 L 2.644531 9.921875 C 2.644531 9.554688 2.941406 9.261719 3.308594 9.261719 Z M 3.308594 9.261719 "/>
<path style=" stroke:none;fill-rule:nonzero;fill:rgb(74.117649%,74.117649%,74.117649%);fill-opacity:0.995763;" d="M 3.308594 1.324219 C 3.671875 1.324219 3.96875 1.617188 3.96875 1.984375 L 3.96875 29.765625 C 3.96875 30.132812 3.671875 30.425781 3.308594 30.425781 C 2.941406 30.425781 2.644531 30.132812 2.644531 29.765625 L 2.644531 1.984375 C 2.644531 1.617188 2.941406 1.324219 3.308594 1.324219 Z M 3.308594 1.324219 "/>
<path style=" stroke:none;fill-rule:nonzero;fill:rgb(74.117649%,74.117649%,74.117649%);fill-opacity:0.995763;" d="M 1.984375 1.324219 L 3.308594 1.324219 C 3.671875 1.324219 3.96875 1.617188 3.96875 1.984375 C 3.96875 2.351562 3.671875 2.644531 3.308594 2.644531 L 1.984375 2.644531 C 1.617188 2.644531 1.324219 2.351562 1.324219 1.984375 C 1.324219 1.617188 1.617188 1.324219 1.984375 1.324219 Z M 1.984375 1.324219 "/>
<path style=" stroke:none;fill-rule:nonzero;fill:rgb(93.333334%,93.333334%,93.333334%);fill-opacity:0.995763;" d="M 12.238281 8.269531 C 12.417969 8.269531 12.566406 8.417969 12.566406 8.597656 L 12.566406 9.589844 C 12.566406 9.773438 12.417969 9.921875 12.238281 9.921875 C 12.054688 9.921875 11.90625 9.773438 11.90625 9.589844 L 11.90625 8.597656 C 11.90625 8.417969 12.054688 8.269531 12.238281 8.269531 Z M 12.238281 8.269531 "/>
<path style=" stroke:none;fill-rule:nonzero;fill:rgb(93.333334%,93.333334%,93.333334%);fill-opacity:0.995763;" d="M 13.890625 8.269531 C 14.074219 8.269531 14.222656 8.417969 14.222656 8.597656 L 14.222656 9.589844 C 14.222656 9.773438 14.074219 9.921875 13.890625 9.921875 C 13.707031 9.921875 13.558594 9.773438 13.558594 9.589844 L 13.558594 8.597656 C 13.558594 8.417969 13.707031 8.269531 13.890625 8.269531 Z M 13.890625 8.269531 "/>
<path style=" stroke:none;fill-rule:nonzero;fill:rgb(93.333334%,93.333334%,93.333334%);fill-opacity:0.995763;" d="M 15.542969 8.269531 C 15.726562 8.269531 15.875 8.417969 15.875 8.597656 L 15.875 9.589844 C 15.875 9.773438 15.726562 9.921875 15.542969 9.921875 C 15.363281 9.921875 15.214844 9.773438 15.214844 9.589844 L 15.214844 8.597656 C 15.214844 8.417969 15.363281 8.269531 15.542969 8.269531 Z M 15.542969 8.269531 "/>
<path style=" stroke:none;fill-rule:nonzero;fill:rgb(93.333334%,93.333334%,93.333334%);fill-opacity:0.995763;" d="M 17.199219 8.269531 C 17.378906 8.269531 17.527344 8.417969 17.527344 8.597656 L 17.527344 9.589844 C 17.527344 9.773438 17.378906 9.921875 17.199219 9.921875 C 17.015625 9.921875 16.867188 9.773438 16.867188 9.589844 L 16.867188 8.597656 C 16.867188 8.417969 17.015625 8.269531 17.199219 8.269531 Z M 17.199219 8.269531 "/>
<path style=" stroke:none;fill-rule:nonzero;fill:rgb(93.333334%,93.333334%,93.333334%);fill-opacity:0.995763;" d="M 18.851562 8.269531 C 19.035156 8.269531 19.183594 8.417969 19.183594 8.597656 L 19.183594 9.589844 C 19.183594 9.773438 19.035156 9.921875 18.851562 9.921875 C 18.667969 9.921875 18.519531 9.773438 18.519531 9.589844 L 18.519531 8.597656 C 18.519531 8.417969 18.667969 8.269531 18.851562 8.269531 Z M 18.851562 8.269531 "/>
<path style=" stroke:none;fill-rule:nonzero;fill:rgb(93.333334%,93.333334%,93.333334%);fill-opacity:0.995763;" d="M 20.503906 8.269531 C 20.6875 8.269531 20.835938 8.417969 20.835938 8.597656 L 20.835938 9.589844 C 20.835938 9.773438 20.6875 9.921875 20.503906 9.921875 C 20.324219 9.921875 20.175781 9.773438 20.175781 9.589844 L 20.175781 8.597656 C 20.175781 8.417969 20.324219 8.269531 20.503906 8.269531 Z M 20.503906 8.269531 "/>
<path style=" stroke:none;fill-rule:nonzero;fill:rgb(93.333334%,93.333334%,93.333334%);fill-opacity:0.995763;" d="M 22.160156 8.269531 C 22.339844 8.269531 22.488281 8.417969 22.488281 8.597656 L 22.488281 9.589844 C 22.488281 9.773438 22.339844 9.921875 22.160156 9.921875 C 21.976562 9.921875 21.828125 9.773438 21.828125 9.589844 L 21.828125 8.597656 C 21.828125 8.417969 21.976562 8.269531 22.160156 8.269531 Z M 22.160156 8.269531 "/>
<path style=" stroke:none;fill-rule:nonzero;fill:rgb(93.333334%,93.333334%,93.333334%);fill-opacity:0.995763;" d="M 12.238281 21.828125 C 12.417969 21.828125 12.566406 21.976562 12.566406 22.160156 L 12.566406 23.152344 C 12.566406 23.332031 12.417969 23.480469 12.238281 23.480469 C 12.054688 23.480469 11.90625 23.332031 11.90625 23.152344 L 11.90625 22.160156 C 11.90625 21.976562 12.054688 21.828125 12.238281 21.828125 Z M 12.238281 21.828125 "/>
<path style=" stroke:none;fill-rule:nonzero;fill:rgb(93.333334%,93.333334%,93.333334%);fill-opacity:0.995763;" d="M 13.890625 21.828125 C 14.074219 21.828125 14.222656 21.976562 14.222656 22.160156 L 14.222656 23.152344 C 14.222656 23.332031 14.074219 23.480469 13.890625 23.480469 C 13.707031 23.480469 13.558594 23.332031 13.558594 23.152344 L 13.558594 22.160156 C 13.558594 21.976562 13.707031 21.828125 13.890625 21.828125 Z M 13.890625 21.828125 "/>
<path style=" stroke:none;fill-rule:nonzero;fill:rgb(93.333334%,93.333334%,93.333334%);fill-opacity:0.995763;" d="M 15.542969 21.828125 C 15.726562 21.828125 15.875 21.976562 15.875 22.160156 L 15.875 23.152344 C 15.875 23.332031 15.726562 23.480469 15.542969 23.480469 C 15.363281 23.480469 15.214844 23.332031 15.214844 23.152344 L 15.214844 22.160156 C 15.214844 21.976562 15.363281 21.828125 15.542969 21.828125 Z M 15.542969 21.828125 "/>
<path style=" stroke:none;fill-rule:nonzero;fill:rgb(93.333334%,93.333334%,93.333334%);fill-opacity:0.995763;" d="M 17.199219 21.828125 C 17.378906 21.828125 17.527344 21.976562 17.527344 22.160156 L 17.527344 23.152344 C 17.527344 23.332031 17.378906 23.480469 17.199219 23.480469 C 17.015625 23.480469 16.867188 23.332031 16.867188 23.152344 L 16.867188 22.160156 C 16.867188 21.976562 17.015625 21.828125 17.199219 21.828125 Z M 17.199219 21.828125 "/>
<path style=" stroke:none;fill-rule:nonzero;fill:rgb(93.333334%,93.333334%,93.333334%);fill-opacity:0.995763;" d="M 18.851562 21.828125 C 19.035156 21.828125 19.183594 21.976562 19.183594 22.160156 L 19.183594 23.152344 C 19.183594 23.332031 19.035156 23.480469 18.851562 23.480469 C 18.667969 23.480469 18.519531 23.332031 18.519531 23.152344 L 18.519531 22.160156 C 18.519531 21.976562 18.667969 21.828125 18.851562 21.828125 Z M 18.851562 21.828125 "/>
<path style=" stroke:none;fill-rule:nonzero;fill:rgb(93.333334%,93.333334%,93.333334%);fill-opacity:0.995763;" d="M 20.503906 21.828125 C 20.6875 21.828125 20.835938 21.976562 20.835938 22.160156 L 20.835938 23.152344 C 20.835938 23.332031 20.6875 23.480469 20.503906 23.480469 C 20.324219 23.480469 20.175781 23.332031 20.175781 23.152344 L 20.175781 22.160156 C 20.175781 21.976562 20.324219 21.828125 20.503906 21.828125 Z M 20.503906 21.828125 "/>
<path style=" stroke:none;fill-rule:nonzero;fill:rgb(93.333334%,93.333334%,93.333334%);fill-opacity:0.995763;" d="M 22.160156 21.828125 C 22.339844 21.828125 22.488281 21.976562 22.488281 22.160156 L 22.488281 23.152344 C 22.488281 23.332031 22.339844 23.480469 22.160156 23.480469 C 21.976562 23.480469 21.828125 23.332031 21.828125 23.152344 L 21.828125 22.160156 C 21.828125 21.976562 21.976562 21.828125 22.160156 21.828125 Z M 22.160156 21.828125 "/>
<path style=" stroke:none;fill-rule:nonzero;fill:rgb(93.333334%,93.333334%,93.333334%);fill-opacity:0.995763;" d="M 11.246094 10.914062 C 11.246094 11.097656 11.097656 11.246094 10.914062 11.246094 L 9.921875 11.246094 C 9.738281 11.246094 9.589844 11.097656 9.589844 10.914062 C 9.589844 10.730469 9.738281 10.582031 9.921875 10.582031 L 10.914062 10.582031 C 11.097656 10.582031 11.246094 10.730469 11.246094 10.914062 Z M 11.246094 10.914062 "/>
<path style=" stroke:none;fill-rule:nonzero;fill:rgb(93.333334%,93.333334%,93.333334%);fill-opacity:0.995763;" d="M 11.246094 12.566406 C 11.246094 12.75 11.097656 12.898438 10.914062 12.898438 L 9.921875 12.898438 C 9.738281 12.898438 9.589844 12.75 9.589844 12.566406 C 9.589844 12.386719 9.738281 12.238281 9.921875 12.238281 L 10.914062 12.238281 C 11.097656 12.238281 11.246094 12.386719 11.246094 12.566406 Z M 11.246094 12.566406 "/>
<path style=" stroke:none;fill-rule:nonzero;fill:rgb(93.333334%,93.333334%,93.333334%);fill-opacity:0.995763;" d="M 11.246094 14.222656 C 11.246094 14.402344 11.097656 14.550781 10.914062 14.550781 L 9.921875 14.550781 C 9.738281 14.550781 9.589844 14.402344 9.589844 14.222656 C 9.589844 14.039062 9.738281 13.890625 9.921875 13.890625 L 10.914062 13.890625 C 11.097656 13.890625 11.246094 14.039062 11.246094 14.222656 Z M 11.246094 14.222656 "/>
<path style=" stroke:none;fill-rule:nonzero;fill:rgb(93.333334%,93.333334%,93.333334%);fill-opacity:0.995763;" d="M 11.246094 15.875 C 11.246094 16.058594 11.097656 16.207031 10.914062 16.207031 L 9.921875 16.207031 C 9.738281 16.207031 9.589844 16.058594 9.589844 15.875 C 9.589844 15.691406 9.738281 15.542969 9.921875 15.542969 L 10.914062 15.542969 C 11.097656 15.542969 11.246094 15.691406 11.246094 15.875 Z M 11.246094 15.875 "/>
<path style=" stroke:none;fill-rule:nonzero;fill:rgb(93.333334%,93.333334%,93.333334%);fill-opacity:0.995763;" d="M 11.246094 17.527344 C 11.246094 17.710938 11.097656 17.859375 10.914062 17.859375 L 9.921875 17.859375 C 9.738281 17.859375 9.589844 17.710938 9.589844 17.527344 C 9.589844 17.347656 9.738281 17.199219 9.921875 17.199219 L 10.914062 17.199219 C 11.097656 17.199219 11.246094 17.347656 11.246094 17.527344 Z M 11.246094 17.527344 "/>
<path style=" stroke:none;fill-rule:nonzero;fill:rgb(93.333334%,93.333334%,93.333334%);fill-opacity:0.995763;" d="M 11.246094 19.183594 C 11.246094 19.363281 11.097656 19.511719 10.914062 19.511719 L 9.921875 19.511719 C 9.738281 19.511719 9.589844 19.363281 9.589844 19.183594 C 9.589844 19 9.738281 18.851562 9.921875 18.851562 L 10.914062 18.851562 C 11.097656 18.851562 11.246094 19 11.246094 19.183594 Z M 11.246094 19.183594 "/>
<path style=" stroke:none;fill-rule:nonzero;fill:rgb(93.333334%,93.333334%,93.333334%);fill-opacity:0.995763;" d="M 11.246094 20.835938 C 11.246094 21.019531 11.097656 21.167969 10.914062 21.167969 L 9.921875 21.167969 C 9.738281 21.167969 9.589844 21.019531 9.589844 20.835938 C 9.589844 20.652344 9.738281 20.503906 9.921875 20.503906 L 10.914062 20.503906 C 11.097656 20.503906 11.246094 20.652344 11.246094 20.835938 Z M 11.246094 20.835938 "/>
<path style=" stroke:none;fill-rule:nonzero;fill:rgb(93.333334%,93.333334%,93.333334%);fill-opacity:0.995763;" d="M 24.804688 10.914062 C 24.804688 11.097656 24.65625 11.246094 24.472656 11.246094 L 23.480469 11.246094 C 23.300781 11.246094 23.152344 11.097656 23.152344 10.914062 C 23.152344 10.730469 23.300781 10.582031 23.480469 10.582031 L 24.472656 10.582031 C 24.65625 10.582031 24.804688 10.730469 24.804688 10.914062 Z M 24.804688 10.914062 "/>
<path style=" stroke:none;fill-rule:nonzero;fill:rgb(93.333334%,93.333334%,93.333334%);fill-opacity:0.995763;" d="M 24.804688 12.566406 C 24.804688 12.75 24.65625 12.898438 24.472656 12.898438 L 23.480469 12.898438 C 23.300781 12.898438 23.152344 12.75 23.152344 12.566406 C 23.152344 12.386719 23.300781 12.238281 23.480469 12.238281 L 24.472656 12.238281 C 24.65625 12.238281 24.804688 12.386719 24.804688 12.566406 Z M 24.804688 12.566406 "/>
<path style=" stroke:none;fill-rule:nonzero;fill:rgb(93.333334%,93.333334%,93.333334%);fill-opacity:0.995763;" d="M 24.804688 14.222656 C 24.804688 14.402344 24.65625 14.550781 24.472656 14.550781 L 23.480469 14.550781 C 23.300781 14.550781 23.152344 14.402344 23.152344 14.222656 C 23.152344 14.039062 23.300781 13.890625 23.480469 13.890625 L 24.472656 13.890625 C 24.65625 13.890625 24.804688 14.039062 24.804688 14.222656 Z M 24.804688 14.222656 "/>
<path style=" stroke:none;fill-rule:nonzero;fill:rgb(93.333334%,93.333334%,93.333334%);fill-opacity:0.995763;" d="M 24.804688 15.875 C 24.804688 16.058594 24.65625 16.207031 24.472656 16.207031 L 23.480469 16.207031 C 23.300781 16.207031 23.152344 16.058594 23.152344 15.875 C 23.152344 15.691406 23.300781 15.542969 23.480469 15.542969 L 24.472656 15.542969 C 24.65625 15.542969 24.804688 15.691406 24.804688 15.875 Z M 24.804688 15.875 "/>
<path style=" stroke:none;fill-rule:nonzero;fill:rgb(93.333334%,93.333334%,93.333334%);fill-opacity:0.995763;" d="M 24.804688 17.527344 C 24.804688 17.710938 24.65625 17.859375 24.472656 17.859375 L 23.480469 17.859375 C 23.300781 17.859375 23.152344 17.710938 23.152344 17.527344 C 23.152344 17.347656 23.300781 17.199219 23.480469 17.199219 L 24.472656 17.199219 C 24.65625 17.199219 24.804688 17.347656 24.804688 17.527344 Z M 24.804688 17.527344 "/>
<path style=" stroke:none;fill-rule:nonzero;fill:rgb(93.333334%,93.333334%,93.333334%);fill-opacity:0.995763;" d="M 24.804688 19.183594 C 24.804688 19.363281 24.65625 19.511719 24.472656 19.511719 L 23.480469 19.511719 C 23.300781 19.511719 23.152344 19.363281 23.152344 19.183594 C 23.152344 19 23.300781 18.851562 23.480469 18.851562 L 24.472656 18.851562 C 24.65625 18.851562 24.804688 19 24.804688 19.183594 Z M 24.804688 19.183594 "/>
<path style=" stroke:none;fill-rule:nonzero;fill:rgb(93.333334%,93.333334%,93.333334%);fill-opacity:0.995763;" d="M 24.804688 20.835938 C 24.804688 21.019531 24.65625 21.167969 24.472656 21.167969 L 23.480469 21.167969 C 23.300781 21.167969 23.152344 21.019531 23.152344 20.835938 C 23.152344 20.652344 23.300781 20.503906 23.480469 20.503906 L 24.472656 20.503906 C 24.65625 20.503906 24.804688 20.652344 24.804688 20.835938 Z M 24.804688 20.835938 "/>
<path style=" stroke:none;fill-rule:nonzero;fill:rgb(25.882354%,25.882354%,25.882354%);fill-opacity:0.995763;" d="M 11.90625 9.261719 L 22.488281 9.261719 C 23.21875 9.261719 23.8125 9.851562 23.8125 10.582031 L 23.8125 21.167969 C 23.8125 21.898438 23.21875 22.488281 22.488281 22.488281 L 11.90625 22.488281 C 11.175781 22.488281 10.582031 21.898438 10.582031 21.167969 L 10.582031 10.582031 C 10.582031 9.851562 11.175781 9.261719 11.90625 9.261719 Z M 11.90625 9.261719 "/>
<path style=" stroke:none;fill-rule:nonzero;fill:rgb(100%,65.490198%,14.901961%);fill-opacity:0.995763;" d="M 20.851562 26.457031 L 21.480469 26.457031 C 21.671875 26.457031 21.828125 26.613281 21.828125 26.804688 L 21.828125 27.765625 C 21.828125 27.957031 21.671875 28.113281 21.480469 28.113281 L 20.851562 28.113281 C 20.660156 28.113281 20.503906 27.957031 20.503906 27.765625 L 20.503906 26.804688 C 20.503906 26.613281 20.660156 26.457031 20.851562 26.457031 Z M 20.851562 26.457031 "/>
<path style=" stroke:none;fill-rule:nonzero;fill:rgb(100%,65.490198%,14.901961%);fill-opacity:0.995763;" d="M 20.851562 26.457031 L 21.480469 26.457031 C 21.671875 26.457031 21.828125 26.613281 21.828125 26.804688 L 21.828125 27.765625 C 21.828125 27.957031 21.671875 28.113281 21.480469 28.113281 L 20.851562 28.113281 C 20.660156 28.113281 20.503906 27.957031 20.503906 27.765625 L 20.503906 26.804688 C 20.503906 26.613281 20.660156 26.457031 20.851562 26.457031 Z M 20.851562 26.457031 "/>
<path style=" stroke:none;fill-rule:nonzero;fill:rgb(100%,65.490198%,14.901961%);fill-opacity:0.995763;" d="M 18.867188 26.457031 L 19.496094 26.457031 C 19.6875 26.457031 19.84375 26.613281 19.84375 26.804688 L 19.84375 27.765625 C 19.84375 27.957031 19.6875 28.113281 19.496094 28.113281 L 18.867188 28.113281 C 18.675781 28.113281 18.519531 27.957031 18.519531 27.765625 L 18.519531 26.804688 C 18.519531 26.613281 18.675781 26.457031 18.867188 26.457031 Z M 18.867188 26.457031 "/>
<path style=" stroke:none;fill-rule:nonzero;fill:rgb(100%,65.490198%,14.901961%);fill-opacity:0.995763;" d="M 14.898438 26.457031 L 15.527344 26.457031 C 15.71875 26.457031 15.875 26.613281 15.875 26.804688 L 15.875 27.765625 C 15.875 27.957031 15.71875 28.113281 15.527344 28.113281 L 14.898438 28.113281 C 14.707031 28.113281 14.550781 27.957031 14.550781 27.765625 L 14.550781 26.804688 C 14.550781 26.613281 14.707031 26.457031 14.898438 26.457031 Z M 14.898438 26.457031 "/>
<path style=" stroke:none;fill-rule:nonzero;fill:rgb(100%,65.490198%,14.901961%);fill-opacity:0.995763;" d="M 12.914062 26.457031 L 13.542969 26.457031 C 13.734375 26.457031 13.890625 26.613281 13.890625 26.804688 L 13.890625 27.765625 C 13.890625 27.957031 13.734375 28.113281 13.542969 28.113281 L 12.914062 28.113281 C 12.722656 28.113281 12.566406 27.957031 12.566406 27.765625 L 12.566406 26.804688 C 12.566406 26.613281 12.722656 26.457031 12.914062 26.457031 Z M 12.914062 26.457031 "/>
<path style=" stroke:none;fill-rule:nonzero;fill:rgb(100%,65.490198%,14.901961%);fill-opacity:0.995763;" d="M 10.929688 26.457031 L 11.558594 26.457031 C 11.75 26.457031 11.90625 26.613281 11.90625 26.804688 L 11.90625 27.765625 C 11.90625 27.957031 11.75 28.113281 11.558594 28.113281 L 10.929688 28.113281 C 10.738281 28.113281 10.582031 27.957031 10.582031 27.765625 L 10.582031 26.804688 C 10.582031 26.613281 10.738281 26.457031 10.929688 26.457031 Z M 10.929688 26.457031 "/>
<path style=" stroke:none;fill-rule:nonzero;fill:rgb(100%,65.490198%,14.901961%);fill-opacity:0.995763;" d="M 16.882812 26.457031 L 17.511719 26.457031 C 17.703125 26.457031 17.859375 26.613281 17.859375 26.804688 L 17.859375 27.765625 C 17.859375 27.957031 17.703125 28.113281 17.511719 28.113281 L 16.882812 28.113281 C 16.691406 28.113281 16.535156 27.957031 16.535156 27.765625 L 16.535156 26.804688 C 16.535156 26.613281 16.691406 26.457031 16.882812 26.457031 Z M 16.882812 26.457031 "/>
<path style=" stroke:none;fill-rule:nonzero;fill:rgb(100%,65.490198%,14.901961%);fill-opacity:0.995763;" d="M 22.835938 26.457031 L 23.464844 26.457031 C 23.65625 26.457031 23.8125 26.613281 23.8125 26.804688 L 23.8125 27.765625 C 23.8125 27.957031 23.65625 28.113281 23.464844 28.113281 L 22.835938 28.113281 C 22.644531 28.113281 22.488281 27.957031 22.488281 27.765625 L 22.488281 26.804688 C 22.488281 26.613281 22.644531 26.457031 22.835938 26.457031 Z M 22.835938 26.457031 "/>
<path style=" stroke:none;fill-rule:nonzero;fill:rgb(67.058825%,27.843139%,73.725492%);fill-opacity:1;" d="M 29.753906 19.355469 C 29.742188 19.355469 29.730469 19.355469 29.71875 19.355469 C 29.675781 19.355469 29.632812 19.363281 29.589844 19.371094 L 23.359375 20.753906 C 23.042969 20.824219 22.820312 21.105469 22.820312 21.429688 L 22.820312 27.136719 C 22.503906 27.027344 22.152344 26.96875 21.777344 26.96875 C 20.4375 26.96875 19.355469 27.742188 19.355469 28.699219 C 19.355469 29.65625 20.4375 30.429688 21.777344 30.429688 C 23.121094 30.429688 24.199219 29.65625 24.199219 28.699219 C 24.199219 28.667969 24.199219 28.636719 24.199219 28.609375 L 24.199219 21.980469 L 29.050781 20.902344 L 29.050781 25.058594 C 28.734375 24.953125 28.382812 24.890625 28.007812 24.890625 C 26.664062 24.890625 25.585938 25.664062 25.585938 26.621094 C 25.585938 27.582031 26.664062 28.351562 28.007812 28.351562 C 29.351562 28.351562 30.429688 27.582031 30.429688 26.621094 C 30.429688 26.59375 30.429688 26.5625 30.425781 26.53125 L 30.425781 20.042969 C 30.425781 19.667969 30.125 19.363281 29.753906 19.355469 Z M 29.753906 19.355469 "/>
</g>
</svg>
