<?xml version="1.0" encoding="UTF-8"?>
<svg xmlns="http://www.w3.org/2000/svg" xmlns:xlink="http://www.w3.org/1999/xlink" width="32px" height="32px" viewBox="0 0 32 32" version="1.1">
<g id="surface1">
<path style=" stroke:none;fill-rule:nonzero;fill:rgb(36.078432%,41.960785%,75.294119%);fill-opacity:1;" d="M 15.875 1.574219 L 15.875 23.402344 L 29.105469 23.402344 C 29.835938 23.402344 30.425781 22.8125 30.425781 22.078125 L 30.425781 2.894531 C 30.425781 2.164062 29.835938 1.574219 29.105469 1.574219 Z M 15.875 1.574219 "/>
<path style=" stroke:none;fill-rule:nonzero;fill:rgb(87.843138%,87.843138%,87.843138%);fill-opacity:1;" d="M 15.875 1.574219 L 15.875 23.402344 L 2.644531 23.402344 C 1.914062 23.402344 1.324219 22.8125 1.324219 22.078125 L 1.324219 2.894531 C 1.324219 2.164062 1.914062 1.574219 2.644531 1.574219 Z M 15.875 1.574219 "/>
<path style=" stroke:none;fill-rule:nonzero;fill:rgb(25.882354%,25.882354%,25.882354%);fill-opacity:1;" d="M 20.503906 10.832031 C 15.007812 10.832031 10.582031 15.257812 10.582031 20.753906 C 10.582031 26.25 15.007812 30.675781 20.503906 30.675781 C 26 30.675781 30.425781 26.25 30.425781 20.753906 C 30.425781 15.257812 26 10.832031 20.503906 10.832031 Z M 20.503906 13.480469 C 24.535156 13.480469 27.78125 16.722656 27.78125 20.753906 C 27.78125 24.785156 24.535156 28.03125 20.503906 28.03125 C 16.472656 28.03125 13.230469 24.785156 13.230469 20.753906 C 13.230469 16.722656 16.472656 13.480469 20.503906 13.480469 Z M 20.503906 13.480469 "/>
<path style=" stroke:none;fill-rule:nonzero;fill:rgb(16.078432%,71.372551%,96.470588%);fill-opacity:0.392157;" d="M 20.503906 13.480469 C 24.523438 13.480469 27.78125 16.738281 27.78125 20.753906 C 27.78125 24.773438 24.523438 28.03125 20.503906 28.03125 C 16.488281 28.03125 13.230469 24.773438 13.230469 20.753906 C 13.230469 16.738281 16.488281 13.480469 20.503906 13.480469 Z M 20.503906 13.480469 "/>
</g>
</svg>
