<?xml version="1.0" encoding="UTF-8"?>
<svg xmlns="http://www.w3.org/2000/svg" xmlns:xlink="http://www.w3.org/1999/xlink" width="32px" height="32px" viewBox="0 0 32 32" version="1.1">
<g id="surface1">
<path style=" stroke:none;fill-rule:nonzero;fill:rgb(100%,65.490198%,14.901961%);fill-opacity:1;" d="M 7.277344 1.574219 C 3.976562 1.574219 1.324219 4.226562 1.324219 7.527344 C 1.324219 12.15625 3.308594 18.109375 4.628906 24.722656 C 5.292969 28.03125 7.722656 30.675781 9.921875 30.675781 C 14.550781 30.675781 15.542969 29.023438 21.167969 24.0625 C 23.480469 22.078125 25.136719 30.675781 30.425781 30.675781 C 27.121094 30.015625 25.136719 16.785156 21.167969 18.109375 C 17.859375 19.433594 15.875 24.722656 13.230469 24.722656 C 11.90625 24.722656 12.566406 20.753906 13.195312 18.605469 C 14.550781 14.800781 15.214844 10.171875 15.148438 7.527344 C 15.148438 4.226562 13.230469 1.574219 7.277344 1.574219 Z M 7.277344 1.574219 "/>
<path style=" stroke:none;fill-rule:nonzero;fill:rgb(96.078432%,96.078432%,96.078432%);fill-opacity:1;" d="M 6.722656 7.398438 C 7.320312 7.992188 7.199219 9.078125 6.457031 9.820312 C 5.710938 10.5625 4.628906 10.683594 4.035156 10.089844 C 3.441406 9.492188 3.5625 8.410156 4.304688 7.667969 C 5.046875 6.925781 6.128906 6.804688 6.722656 7.398438 Z M 6.722656 7.398438 "/>
<path style=" stroke:none;fill-rule:nonzero;fill:rgb(96.078432%,96.078432%,96.078432%);fill-opacity:1;" d="M 8.441406 7.398438 C 9.035156 6.804688 10.117188 6.925781 10.859375 7.667969 C 11.605469 8.410156 11.722656 9.492188 11.128906 10.089844 C 10.535156 10.683594 9.453125 10.5625 8.707031 9.820312 C 7.964844 9.078125 7.847656 7.992188 8.441406 7.398438 Z M 8.441406 7.398438 "/>
<path style=" stroke:none;fill-rule:nonzero;fill:rgb(24.705882%,31.764707%,70.980394%);fill-opacity:1;" d="M 6.476562 8.382812 C 6.734375 8.640625 6.734375 9.058594 6.476562 9.316406 C 6.21875 9.574219 5.800781 9.574219 5.542969 9.316406 C 5.285156 9.058594 5.285156 8.640625 5.542969 8.382812 C 5.800781 8.121094 6.21875 8.121094 6.476562 8.382812 Z M 6.476562 8.382812 "/>
<path style=" stroke:none;fill-rule:nonzero;fill:rgb(24.705882%,31.764707%,70.980394%);fill-opacity:1;" d="M 8.734375 8.382812 C 8.996094 8.121094 9.414062 8.121094 9.671875 8.382812 C 9.929688 8.640625 9.929688 9.058594 9.671875 9.316406 C 9.414062 9.574219 8.996094 9.574219 8.734375 9.316406 C 8.476562 9.058594 8.476562 8.640625 8.734375 8.382812 Z M 8.734375 8.382812 "/>
<path style=" stroke:none;fill-rule:nonzero;fill:rgb(25.882354%,25.882354%,25.882354%);fill-opacity:1;" d="M 10.253906 4.859375 C 9.324219 4.859375 8.480469 5.839844 8.261719 6.695312 C 8.742188 6.1875 9.425781 5.871094 10.183594 5.871094 C 10.941406 5.871094 11.621094 6.1875 12.105469 6.695312 C 11.882812 5.839844 11.179688 4.859375 10.253906 4.859375 Z M 10.253906 4.859375 "/>
<path style=" stroke:none;fill-rule:nonzero;fill:rgb(25.882354%,25.882354%,25.882354%);fill-opacity:1;" d="M 4.960938 5.542969 C 4.035156 5.542969 3.351562 6.453125 3.132812 7.308594 C 3.613281 6.800781 4.296875 6.484375 5.054688 6.484375 C 5.8125 6.484375 6.496094 6.800781 6.976562 7.308594 C 6.753906 6.453125 5.886719 5.542969 4.960938 5.542969 Z M 4.960938 5.542969 "/>
<path style=" stroke:none;fill-rule:nonzero;fill:rgb(93.333334%,93.333334%,93.333334%);fill-opacity:1;" d="M 3.96875 12.816406 C 4.628906 16.125 11.246094 18.109375 12.566406 12.15625 C 9.921875 12.816406 5.953125 13.480469 3.96875 12.816406 Z M 3.96875 12.816406 "/>
<path style=" stroke:none;fill-rule:nonzero;fill:rgb(74.117649%,74.117649%,74.117649%);fill-opacity:1;" d="M 5.621094 13.976562 C 6.03125 14.609375 9.921875 14.800781 11.574219 13.148438 C 9.589844 14.140625 6.84375 14.101562 5.621094 13.976562 Z M 5.621094 13.976562 "/>
<path style=" stroke:none;fill-rule:nonzero;fill:rgb(93.725491%,42.352942%,0%);fill-opacity:1;" d="M 5.621094 23.402344 C 7.449219 23.707031 9.59375 23.300781 11.246094 22.738281 C 9.5625 23.929688 7.914062 24.628906 5.621094 23.402344 Z M 5.621094 23.402344 "/>
<path style=" stroke:none;fill-rule:nonzero;fill:rgb(93.725491%,42.352942%,0%);fill-opacity:1;" d="M 6.816406 26.074219 C 8.621094 26.050781 10.414062 25.914062 11.574219 25.054688 C 10.457031 26.113281 8.789062 26.765625 6.816406 26.074219 Z M 6.816406 26.074219 "/>
<path style=" stroke:none;fill-rule:nonzero;fill:rgb(93.725491%,42.352942%,0%);fill-opacity:1;" d="M 8.140625 28.722656 C 9.769531 28.699219 11.179688 28.070312 12.566406 27.371094 C 12.566406 27.371094 12.359375 28.125 10.746094 28.617188 C 9.136719 29.109375 8.140625 28.722656 8.140625 28.722656 Z M 8.140625 28.722656 "/>
</g>
</svg>
