
<svg xmlns="http://www.w3.org/2000/svg" xmlns:xlink="http://www.w3.org/1999/xlink" width="32px" height="32px" viewBox="0 0 32 32" version="1.1">
<defs>
<linearGradient id="linear0" gradientUnits="userSpaceOnUse" x1="42.333332" y1="42.999996" x2="465.666656" y2="42.999996" gradientTransform="matrix(0.0625,0,0,0.0625,0.000000416667,13.1875)">
<stop offset="0" style="stop-color:rgb(97.254902%,97.254902%,97.254902%);stop-opacity:0;"/>
<stop offset="0.5" style="stop-color:rgb(100%,100%,100%);stop-opacity:0.0784314;"/>
<stop offset="1" style="stop-color:rgb(99.607843%,99.607843%,99.607843%);stop-opacity:0;"/>
</linearGradient>
</defs>
<g id="surface1">
<path style=" stroke:none;fill-rule:nonzero;fill:rgb(25.882354%,25.882354%,25.882354%);fill-opacity:1;" d="M 2.644531 2.644531 L 29.105469 2.644531 C 29.835938 2.644531 30.425781 3.238281 30.425781 3.96875 L 30.425781 27.78125 C 30.425781 28.511719 29.835938 29.105469 29.105469 29.105469 L 2.644531 29.105469 C 1.914062 29.105469 1.324219 28.511719 1.324219 27.78125 L 1.324219 3.96875 C 1.324219 3.238281 1.914062 2.644531 2.644531 2.644531 Z M 2.644531 2.644531 "/>
<path style=" stroke:none;fill-rule:nonzero;fill:rgb(96.078432%,96.078432%,96.078432%);fill-opacity:1;" d="M 8.269531 15.875 L 8.929688 15.875 C 9.113281 15.875 9.261719 16.023438 9.261719 16.207031 L 9.261719 17.199219 C 9.261719 17.378906 9.113281 17.527344 8.929688 17.527344 L 8.269531 17.527344 C 8.085938 17.527344 7.9375 17.378906 7.9375 17.199219 L 7.9375 16.207031 C 7.9375 16.023438 8.085938 15.875 8.269531 15.875 Z M 8.269531 15.875 "/>
<path style=" stroke:none;fill-rule:nonzero;fill:url(#linear0);" d="M 2.644531 3.636719 L 2.644531 4.300781 L 29.105469 4.300781 L 29.105469 3.636719 Z M 2.644531 5.621094 L 2.644531 6.285156 L 29.105469 6.285156 L 29.105469 5.621094 Z M 2.644531 7.605469 L 2.644531 8.269531 L 29.105469 8.269531 L 29.105469 7.605469 Z M 2.644531 9.589844 L 2.644531 10.253906 L 29.105469 10.253906 L 29.105469 9.589844 Z M 2.644531 11.574219 L 2.644531 12.238281 L 29.105469 12.238281 L 29.105469 11.574219 Z M 2.644531 13.558594 L 2.644531 14.222656 L 29.105469 14.222656 L 29.105469 13.558594 Z M 2.644531 15.542969 L 2.644531 16.207031 L 29.105469 16.207031 L 29.105469 15.542969 Z M 2.644531 17.527344 L 2.644531 18.191406 L 29.105469 18.191406 L 29.105469 17.527344 Z M 2.644531 19.511719 L 2.644531 20.175781 L 29.105469 20.175781 L 29.105469 19.511719 Z M 2.644531 21.496094 L 2.644531 22.160156 L 29.105469 22.160156 L 29.105469 21.496094 Z M 2.644531 23.480469 L 2.644531 24.144531 L 29.105469 24.144531 L 29.105469 23.480469 Z M 2.644531 25.464844 L 2.644531 26.128906 L 29.105469 26.128906 L 29.105469 25.464844 Z M 2.644531 27.449219 L 2.644531 28.113281 L 29.105469 28.113281 L 29.105469 27.449219 Z M 2.644531 27.449219 "/>
<path style=" stroke:none;fill-rule:nonzero;fill:rgb(96.078432%,96.078432%,96.078432%);fill-opacity:1;" d="M 13.558594 24.144531 L 15.214844 24.144531 C 15.578125 24.144531 15.875 24.4375 15.875 24.804688 C 15.875 25.171875 15.578125 25.464844 15.214844 25.464844 L 13.558594 25.464844 C 13.195312 25.464844 12.898438 25.171875 12.898438 24.804688 C 12.898438 24.4375 13.195312 24.144531 13.558594 24.144531 Z M 13.558594 24.144531 "/>
<path style=" stroke:none;fill-rule:nonzero;fill:rgb(96.078432%,96.078432%,96.078432%);fill-opacity:1;" d="M 8.269531 24.804688 L 8.929688 24.804688 C 9.113281 24.804688 9.261719 24.953125 9.261719 25.136719 L 9.261719 26.128906 C 9.261719 26.308594 9.113281 26.457031 8.929688 26.457031 L 8.269531 26.457031 C 8.085938 26.457031 7.9375 26.308594 7.9375 26.128906 L 7.9375 25.136719 C 7.9375 24.953125 8.085938 24.804688 8.269531 24.804688 Z M 8.269531 24.804688 "/>
<path style=" stroke:none;fill-rule:nonzero;fill:rgb(96.078432%,96.078432%,96.078432%);fill-opacity:1;" d="M 8.605469 16.535156 C 7.832031 16.523438 7.097656 16.714844 6.535156 17.167969 C 5.96875 17.625 5.621094 18.355469 5.621094 19.183594 C 5.621094 20.0625 6.140625 20.738281 6.714844 21.105469 C 7.289062 21.46875 7.914062 21.636719 8.390625 21.792969 C 8.90625 21.964844 9.4375 22.128906 9.773438 22.34375 C 10.109375 22.558594 10.253906 22.710938 10.253906 23.152344 C 10.253906 23.648438 10.101562 23.914062 9.839844 24.121094 C 9.578125 24.332031 9.148438 24.472656 8.597656 24.472656 C 8.046875 24.472656 7.597656 24.328125 7.324219 24.140625 C 7.050781 23.949219 6.945312 23.757812 6.945312 23.480469 C 6.949219 23.242188 6.824219 23.023438 6.617188 22.902344 C 6.410156 22.78125 6.15625 22.78125 5.949219 22.902344 C 5.746094 23.023438 5.621094 23.242188 5.621094 23.480469 C 5.621094 24.199219 6.011719 24.835938 6.566406 25.222656 C 7.121094 25.609375 7.828125 25.796875 8.597656 25.796875 C 9.371094 25.796875 10.101562 25.605469 10.664062 25.15625 C 11.230469 24.703125 11.574219 23.976562 11.574219 23.152344 C 11.574219 22.269531 11.054688 21.59375 10.484375 21.230469 C 9.910156 20.863281 9.285156 20.699219 8.808594 20.539062 C 8.292969 20.367188 7.761719 20.203125 7.425781 19.988281 C 7.085938 19.773438 6.945312 19.625 6.945312 19.183594 C 6.945312 18.6875 7.101562 18.414062 7.363281 18.199219 C 7.628906 17.988281 8.050781 17.847656 8.585938 17.859375 C 8.589844 17.859375 8.59375 17.859375 8.597656 17.859375 C 9.148438 17.859375 9.601562 18.003906 9.875 18.195312 C 10.144531 18.386719 10.253906 18.574219 10.253906 18.851562 C 10.25 19.089844 10.375 19.3125 10.582031 19.433594 C 10.785156 19.550781 11.042969 19.550781 11.246094 19.433594 C 11.453125 19.3125 11.578125 19.089844 11.574219 18.851562 C 11.574219 18.136719 11.1875 17.5 10.632812 17.109375 C 10.078125 16.722656 9.375 16.539062 8.605469 16.535156 Z M 8.605469 16.535156 "/>
<path style="fill:none;stroke-width:0.114828;stroke-linecap:round;stroke-linejoin:round;stroke:rgb(96.078432%,96.078432%,96.078432%);stroke-opacity:1;stroke-miterlimit:4;" d="M 391.6875 49.5625 C 384.8125 49.5625 377.875 50.25 371.0625 51.6875 L 362.8125 82.5 L 346.875 91.6875 L 316.125 83.4375 C 306.75 93.875 299.8125 106 295.5625 119 L 318.0625 141.5625 L 318.0625 159.875 L 295.5625 182.375 C 297.75 188.8125 300.5625 195.125 304.0625 201.25 C 307.625 207.375 311.625 212.9375 316.125 218 L 346.875 209.75 L 362.8125 218.9375 L 371.0625 249.75 C 384.4375 252.5 398.4375 252.625 412.125 249.75 L 420.375 218.9375 L 436.3125 209.75 L 467.0625 218 C 476.375 207.5625 483.3125 195.4375 487.625 182.4375 L 465.0625 159.875 L 465.0625 141.5625 L 487.5625 119.0625 C 485.4375 112.625 482.625 106.3125 479.125 100.1875 C 475.5625 94.0625 471.5 88.5 467 83.4375 L 436.3125 91.6875 L 420.375 82.5 L 412.125 51.6875 C 405.4375 50.3125 398.5625 49.5625 391.6875 49.5625 Z M 391.5625 109.125 C 414.625 109.125 433.1875 127.6875 433.1875 150.75 C 433.1875 173.75 414.625 192.3125 391.5625 192.3125 C 368.5 192.3125 349.9375 173.75 349.9375 150.75 C 349.9375 127.6875 368.5 109.125 391.5625 109.125 Z M 391.5625 109.125 " transform="matrix(0.0625,0,0,0.0625,0,13.4375)"/>
<path style=" stroke:none;fill-rule:nonzero;fill:rgb(74.117649%,74.117649%,74.117649%);fill-opacity:1;" d="M 24.480469 16.535156 C 24.050781 16.535156 23.617188 16.578125 23.191406 16.667969 L 22.675781 18.59375 L 21.679688 19.167969 L 19.757812 18.652344 C 19.171875 19.304688 18.738281 20.0625 18.472656 20.875 L 19.878906 22.285156 L 19.878906 23.429688 L 18.472656 24.835938 C 18.609375 25.238281 18.785156 25.632812 19.003906 26.015625 C 19.226562 26.398438 19.476562 26.746094 19.757812 27.0625 L 21.679688 26.546875 L 22.675781 27.121094 L 23.191406 29.046875 C 24.027344 29.21875 24.902344 29.226562 25.757812 29.046875 L 26.273438 27.121094 L 27.269531 26.546875 L 29.191406 27.0625 C 29.773438 26.410156 30.207031 25.652344 30.476562 24.839844 L 29.066406 23.429688 L 29.066406 22.285156 L 30.472656 20.878906 C 30.339844 20.476562 30.164062 20.082031 29.945312 19.699219 C 29.722656 19.316406 29.46875 18.96875 29.1875 18.652344 L 27.269531 19.167969 L 26.273438 18.59375 L 25.757812 16.667969 C 25.339844 16.582031 24.910156 16.535156 24.480469 16.535156 Z M 24.472656 20.257812 C 25.914062 20.257812 27.074219 21.417969 27.074219 22.859375 C 27.074219 24.296875 25.914062 25.457031 24.472656 25.457031 C 23.03125 25.457031 21.871094 24.296875 21.871094 22.859375 C 21.871094 21.417969 23.03125 20.257812 24.472656 20.257812 Z M 24.472656 20.257812 "/>
<path style=" stroke:none;fill-rule:nonzero;fill:rgb(87.843138%,87.843138%,87.843138%);fill-opacity:1;" d="M 24.472656 18.265625 C 21.929688 18.265625 19.878906 20.3125 19.878906 22.859375 C 19.878906 25.402344 21.929688 27.449219 24.472656 27.449219 C 27.019531 27.449219 29.066406 25.402344 29.066406 22.859375 C 29.066406 20.3125 27.019531 18.265625 24.472656 18.265625 Z M 24.472656 20.257812 C 25.914062 20.257812 27.074219 21.417969 27.074219 22.859375 C 27.074219 24.296875 25.914062 25.457031 24.472656 25.457031 C 23.03125 25.457031 21.871094 24.296875 21.871094 22.859375 C 21.871094 21.417969 23.03125 20.257812 24.472656 20.257812 Z M 24.472656 20.257812 "/>
<path style=" stroke:none;fill-rule:nonzero;fill:rgb(45.882353%,45.882353%,45.882353%);fill-opacity:1;" d="M 24.472656 20.257812 C 23.042969 20.257812 21.890625 21.410156 21.890625 22.839844 C 21.890625 24.269531 23.042969 25.421875 24.472656 25.421875 C 25.90625 25.421875 27.058594 24.269531 27.058594 22.839844 C 27.058594 21.410156 25.90625 20.257812 24.472656 20.257812 Z M 24.472656 20.542969 C 25.746094 20.542969 26.769531 21.566406 26.769531 22.839844 C 26.769531 24.113281 25.746094 25.136719 24.472656 25.136719 C 23.203125 25.136719 22.175781 24.113281 22.175781 22.839844 C 22.175781 21.566406 23.203125 20.542969 24.472656 20.542969 Z M 24.472656 20.542969 "/>
<path style=" stroke:none;fill-rule:nonzero;fill:rgb(74.117649%,74.117649%,74.117649%);fill-opacity:1;" d="M 24.472656 19.96875 C 22.882812 19.96875 21.601562 21.25 21.601562 22.839844 C 21.601562 24.429688 22.882812 25.710938 24.472656 25.710938 C 26.0625 25.710938 27.34375 24.429688 27.34375 22.839844 C 27.34375 21.25 26.0625 19.96875 24.472656 19.96875 Z M 24.472656 20.257812 C 25.90625 20.257812 27.058594 21.410156 27.058594 22.839844 C 27.058594 24.269531 25.90625 25.421875 24.472656 25.421875 C 23.042969 25.421875 21.890625 24.269531 21.890625 22.839844 C 21.890625 21.410156 23.042969 20.257812 24.472656 20.257812 Z M 24.472656 20.257812 "/>
</g>
</svg>
