<?xml version="1.0" encoding="UTF-8"?>
<svg xmlns="http://www.w3.org/2000/svg" xmlns:xlink="http://www.w3.org/1999/xlink" width="32px" height="32px" viewBox="0 0 32 32" version="1.1">
<g id="surface1">
<path style=" stroke:none;fill-rule:nonzero;fill:rgb(92.54902%,25.098041%,47.843137%);fill-opacity:1;" d="M 15.875 2.894531 C 23.179688 2.894531 29.105469 8.820312 29.105469 16.125 C 29.105469 23.429688 23.179688 29.355469 15.875 29.355469 C 8.570312 29.355469 2.644531 23.429688 2.644531 16.125 C 2.644531 8.820312 8.570312 2.894531 15.875 2.894531 Z M 15.875 2.894531 "/>
<path style=" stroke:none;fill-rule:nonzero;fill:rgb(94.117647%,38.431373%,57.254905%);fill-opacity:1;" d="M 15.875 1.574219 C 23.910156 1.574219 30.425781 8.089844 30.425781 16.125 C 30.425781 24.160156 23.910156 30.675781 15.875 30.675781 C 7.839844 30.675781 1.324219 24.160156 1.324219 16.125 C 1.324219 8.089844 7.839844 1.574219 15.875 1.574219 Z M 15.875 1.574219 "/>
<path style=" stroke:none;fill-rule:nonzero;fill:rgb(93.333334%,93.333334%,93.333334%);fill-opacity:1;" d="M 15.875 2.566406 C 23.363281 2.566406 29.433594 8.636719 29.433594 16.125 C 29.433594 23.613281 23.363281 29.683594 15.875 29.683594 C 8.386719 29.683594 2.316406 23.613281 2.316406 16.125 C 2.316406 8.636719 8.386719 2.566406 15.875 2.566406 Z M 15.875 2.566406 "/>
<path style=" stroke:none;fill-rule:nonzero;fill:rgb(92.54902%,25.098041%,47.843137%);fill-opacity:1;" d="M 15.875 3.226562 C 23 3.226562 28.773438 9 28.773438 16.125 C 28.773438 23.25 23 29.023438 15.875 29.023438 C 8.75 29.023438 2.976562 23.25 2.976562 16.125 C 2.976562 9 8.75 3.226562 15.875 3.226562 Z M 15.875 3.226562 "/>
<path style=" stroke:none;fill-rule:nonzero;fill:rgb(94.117647%,38.431373%,57.254905%);fill-opacity:1;" d="M 19.066406 3.621094 C 15.433594 7.597656 13.742188 12.117188 14.695312 14.9375 C 11.875 13.984375 7.347656 15.679688 3.371094 19.316406 C 3.558594 20.0625 3.8125 20.78125 4.125 21.46875 C 9.152344 17.042969 14.007812 14.824219 15.59375 16.414062 C 16.207031 17.023438 16.253906 18.117188 15.828125 19.519531 L 13.691406 17.382812 C 13.5625 17.25 13.328125 17.277344 13.167969 17.433594 C 13.011719 17.59375 12.988281 17.828125 13.117188 17.957031 L 15.527344 20.367188 C 15.332031 20.863281 15.085938 21.386719 14.792969 21.933594 L 11.5 18.636719 C 11.371094 18.507812 11.136719 18.53125 10.976562 18.691406 C 10.820312 18.851562 10.792969 19.082031 10.925781 19.210938 L 14.382812 22.667969 C 14.179688 23.019531 13.957031 23.375 13.722656 23.734375 L 9.359375 19.371094 C 9.230469 19.242188 9 19.265625 8.839844 19.425781 C 8.679688 19.585938 8.65625 19.816406 8.785156 19.945312 L 13.261719 24.421875 C 12.960938 24.859375 12.636719 25.304688 12.292969 25.753906 L 7.402344 20.863281 C 7.273438 20.734375 7.042969 20.757812 6.882812 20.914062 C 6.722656 21.074219 6.699219 21.308594 6.828125 21.4375 L 11.789062 26.398438 C 11.457031 26.8125 11.109375 27.230469 10.742188 27.652344 L 5.445312 22.351562 C 5.316406 22.222656 5.082031 22.246094 4.925781 22.40625 C 4.828125 22.503906 4.78125 22.625 4.789062 22.738281 C 4.84375 22.832031 4.898438 22.921875 4.957031 23.011719 L 8.988281 27.042969 C 10.117188 27.753906 11.363281 28.296875 12.695312 28.632812 C 16.328125 24.65625 18.023438 20.132812 17.070312 17.3125 C 19.886719 18.265625 24.40625 16.574219 28.382812 12.945312 C 28.195312 12.199219 27.941406 11.480469 27.628906 10.792969 C 22.605469 15.210938 17.757812 17.425781 16.167969 15.835938 C 15.558594 15.226562 15.511719 14.132812 15.9375 12.730469 L 18.074219 14.867188 C 18.203125 15 18.4375 14.976562 18.59375 14.816406 C 18.753906 14.65625 18.777344 14.425781 18.648438 14.292969 L 16.234375 11.882812 C 16.433594 11.386719 16.679688 10.863281 16.96875 10.316406 L 20.265625 13.613281 C 20.394531 13.742188 20.628906 13.71875 20.785156 13.558594 C 20.945312 13.398438 20.96875 13.167969 20.839844 13.039062 L 17.382812 9.582031 C 17.585938 9.234375 17.804688 8.878906 18.042969 8.515625 L 22.402344 12.878906 C 22.53125 13.007812 22.765625 12.984375 22.925781 12.824219 C 23.082031 12.664062 23.109375 12.433594 22.976562 12.304688 L 18.503906 7.828125 C 18.804688 7.390625 19.128906 6.949219 19.472656 6.5 L 24.359375 11.386719 C 24.492188 11.515625 24.722656 11.492188 24.882812 11.335938 C 25.042969 11.175781 25.066406 10.941406 24.9375 10.8125 L 19.976562 5.851562 C 20.308594 5.4375 20.65625 5.019531 21.019531 4.597656 L 26.320312 9.898438 C 26.324219 9.902344 26.328125 9.90625 26.332031 9.910156 C 26.359375 9.9375 26.394531 9.953125 26.433594 9.964844 C 26.453125 9.972656 26.476562 9.976562 26.5 9.980469 C 26.523438 9.980469 26.546875 9.980469 26.570312 9.980469 C 26.664062 9.96875 26.761719 9.925781 26.839844 9.84375 C 26.929688 9.753906 26.976562 9.640625 26.976562 9.539062 C 26.976562 9.539062 26.976562 9.539062 26.976562 9.535156 C 26.910156 9.421875 26.839844 9.308594 26.769531 9.199219 L 22.800781 5.230469 C 21.664062 4.507812 20.410156 3.960938 19.066406 3.621094 Z M 19.066406 3.621094 "/>
<path style=" stroke:none;fill-rule:nonzero;fill:rgb(98.823529%,89.411765%,92.54902%);fill-opacity:1;" d="M 15.875 9.511719 C 14.386719 9.511719 13.015625 9.996094 11.914062 10.820312 C 12.234375 11.414062 12.683594 11.929688 13.226562 12.324219 C 13.976562 11.800781 14.886719 11.496094 15.875 11.496094 C 16.863281 11.496094 17.773438 11.800781 18.523438 12.324219 C 19.066406 11.929688 19.515625 11.414062 19.835938 10.820312 C 18.734375 9.996094 17.363281 9.511719 15.875 9.511719 Z M 11.445312 11.207031 C 10.425781 12.121094 9.695312 13.351562 9.402344 14.746094 C 9.410156 14.746094 9.414062 14.746094 9.417969 14.746094 C 10.082031 14.742188 10.742188 14.871094 11.351562 15.121094 C 11.5625 14.175781 12.054688 13.335938 12.746094 12.707031 C 12.21875 12.296875 11.777344 11.789062 11.445312 11.207031 Z M 20.304688 11.207031 C 19.972656 11.789062 19.53125 12.296875 19.003906 12.707031 C 19.695312 13.335938 20.1875 14.175781 20.398438 15.121094 C 21.007812 14.871094 21.667969 14.742188 22.332031 14.746094 C 22.335938 14.746094 22.339844 14.746094 22.347656 14.746094 C 22.054688 13.351562 21.324219 12.121094 20.304688 11.207031 Z M 9.421875 15.347656 C 9.382812 15.347656 9.34375 15.347656 9.304688 15.347656 C 9.277344 15.601562 9.261719 15.863281 9.261719 16.125 C 9.261719 18.859375 10.902344 21.199219 13.261719 22.207031 C 13.617188 21.632812 13.835938 20.988281 13.90625 20.320312 C 12.332031 19.582031 11.246094 17.984375 11.246094 16.125 C 11.246094 15.992188 11.25 15.863281 11.261719 15.734375 C 10.683594 15.476562 10.054688 15.34375 9.421875 15.347656 Z M 22.328125 15.347656 C 21.695312 15.34375 21.066406 15.476562 20.488281 15.734375 C 20.5 15.863281 20.503906 15.992188 20.503906 16.125 C 20.503906 17.984375 19.417969 19.582031 17.84375 20.320312 C 17.914062 20.988281 18.132812 21.632812 18.488281 22.207031 C 20.847656 21.199219 22.488281 18.859375 22.488281 16.125 C 22.488281 15.863281 22.472656 15.601562 22.445312 15.347656 C 22.40625 15.347656 22.367188 15.347656 22.328125 15.347656 Z M 14.480469 20.542969 C 14.390625 21.203125 14.167969 21.839844 13.832031 22.421875 C 14.472656 22.628906 15.160156 22.738281 15.875 22.738281 C 16.589844 22.738281 17.277344 22.628906 17.917969 22.421875 C 17.582031 21.839844 17.359375 21.203125 17.269531 20.542969 C 16.828125 20.679688 16.363281 20.753906 15.875 20.753906 C 15.386719 20.753906 14.921875 20.679688 14.480469 20.542969 Z M 14.480469 20.542969 "/>
<path style=" stroke:none;fill-rule:nonzero;fill:rgb(93.333334%,93.333334%,93.333334%);fill-opacity:1;" d="M 12.890625 4.921875 C 10.734375 6.011719 9.261719 8.242188 9.261719 10.832031 C 9.261719 11.378906 9.324219 11.910156 9.449219 12.414062 C 8.949219 12.5625 8.457031 12.769531 7.984375 13.042969 C 5.742188 14.335938 4.546875 16.730469 4.683594 19.140625 C 4.890625 17.746094 5.710938 16.457031 7.03125 15.691406 C 7.789062 15.257812 8.609375 15.046875 9.421875 15.046875 C 11.027344 15.042969 12.589844 15.847656 13.5 17.304688 L 14.367188 16.804688 C 14.273438 16.597656 14.222656 16.367188 14.222656 16.125 C 14.222656 15.265625 14.871094 14.5625 15.710938 14.480469 L 15.710938 13.476562 C 13.128906 13.390625 11.078125 11.285156 11.078125 8.683594 C 11.078125 7.15625 11.785156 5.800781 12.890625 4.921875 Z M 18.859375 4.921875 C 19.964844 5.800781 20.671875 7.15625 20.671875 8.683594 C 20.671875 11.285156 18.621094 13.390625 16.039062 13.476562 L 16.039062 14.480469 C 16.878906 14.5625 17.527344 15.265625 17.527344 16.125 C 17.527344 16.367188 17.476562 16.597656 17.382812 16.804688 L 18.25 17.304688 C 19.160156 15.847656 20.722656 15.042969 22.328125 15.046875 C 23.140625 15.046875 23.960938 15.257812 24.71875 15.691406 C 26.039062 16.457031 26.859375 17.746094 27.066406 19.140625 C 27.203125 16.730469 26.007812 14.335938 23.765625 13.042969 C 23.292969 12.769531 22.800781 12.5625 22.300781 12.414062 C 22.425781 11.910156 22.488281 11.378906 22.488281 10.832031 C 22.488281 8.242188 21.015625 6.011719 18.859375 4.921875 Z M 14.53125 17.089844 L 13.664062 17.59375 C 14.878906 19.871094 14.082031 22.699219 11.828125 24 C 10.503906 24.761719 8.976562 24.828125 7.667969 24.308594 C 9.6875 25.632812 12.355469 25.792969 14.597656 24.5 C 15.070312 24.226562 15.5 23.90625 15.875 23.542969 C 16.25 23.90625 16.679688 24.226562 17.152344 24.5 C 19.394531 25.792969 22.0625 25.632812 24.082031 24.308594 C 22.773438 24.828125 21.246094 24.761719 19.921875 24 C 17.667969 22.699219 16.871094 19.871094 18.085938 17.59375 L 17.21875 17.089844 C 16.917969 17.507812 16.429688 17.777344 15.875 17.777344 C 15.320312 17.777344 14.832031 17.507812 14.53125 17.089844 Z M 14.53125 17.089844 "/>
</g>
</svg>
