<?xml version="1.0" encoding="UTF-8"?>
<svg xmlns="http://www.w3.org/2000/svg" xmlns:xlink="http://www.w3.org/1999/xlink" width="32px" height="32px" viewBox="0 0 32 32" version="1.1">
<g id="surface1">
<path style=" stroke:none;fill-rule:nonzero;fill:rgb(61.960787%,61.960787%,61.960787%);fill-opacity:1;" d="M 14.550781 3.558594 L 17.199219 3.558594 L 17.199219 6.203125 L 14.550781 6.203125 Z M 14.550781 3.558594 "/>
<path style=" stroke:none;fill-rule:nonzero;fill:rgb(74.117649%,74.117649%,74.117649%);fill-opacity:1;" d="M 15.875 1.574219 C 15.054688 1.574219 14.304688 1.730469 13.707031 2.027344 C 13.105469 2.328125 12.566406 2.835938 12.566406 3.558594 L 12.566406 3.886719 C 12.566406 4.253906 12.863281 4.550781 13.230469 4.550781 L 18.519531 4.550781 C 18.886719 4.550781 19.183594 4.253906 19.183594 3.886719 L 19.183594 3.558594 C 19.183594 2.835938 18.644531 2.328125 18.042969 2.027344 C 17.445312 1.730469 16.695312 1.574219 15.875 1.574219 Z M 15.875 1.574219 "/>
<path style=" stroke:none;fill-rule:nonzero;fill:rgb(61.960787%,61.960787%,61.960787%);fill-opacity:1;" d="M 5.292969 14.800781 L 26.457031 14.800781 C 27.1875 14.800781 27.78125 15.75 27.78125 16.917969 L 27.78125 23.269531 C 27.78125 24.4375 27.1875 25.386719 26.457031 25.386719 L 5.292969 25.386719 C 4.5625 25.386719 3.96875 24.4375 3.96875 23.269531 L 3.96875 16.917969 C 3.96875 15.75 4.5625 14.800781 5.292969 14.800781 Z M 5.292969 14.800781 "/>
<path style=" stroke:none;fill-rule:nonzero;fill:rgb(74.117649%,74.117649%,74.117649%);fill-opacity:1;" d="M 15.875 5.542969 C 7.8125 5.542969 1.324219 11.441406 1.324219 18.769531 L 30.425781 18.769531 C 30.425781 11.441406 23.9375 5.542969 15.875 5.542969 Z M 15.875 5.542969 "/>
<path style=" stroke:none;fill-rule:nonzero;fill:rgb(55.29412%,43.137255%,38.82353%);fill-opacity:1;" d="M 2.644531 21.417969 L 29.105469 21.417969 C 29.835938 21.417969 30.425781 21.878906 30.425781 22.445312 L 30.425781 29.648438 C 30.425781 30.214844 29.835938 30.675781 29.105469 30.675781 L 2.644531 30.675781 C 1.914062 30.675781 1.324219 30.214844 1.324219 29.648438 L 1.324219 22.445312 C 1.324219 21.878906 1.914062 21.417969 2.644531 21.417969 Z M 2.644531 21.417969 "/>
<path style=" stroke:none;fill-rule:nonzero;fill:rgb(47.450981%,33.333334%,28.235295%);fill-opacity:1;" d="M 1.324219 26.707031 L 30.425781 26.707031 L 30.425781 28.03125 L 1.324219 28.03125 Z M 1.324219 26.707031 "/>
<path style=" stroke:none;fill-rule:nonzero;fill:rgb(47.450981%,33.333334%,28.235295%);fill-opacity:1;" d="M 1.324219 24.0625 L 30.425781 24.0625 L 30.425781 25.386719 L 1.324219 25.386719 Z M 1.324219 24.0625 "/>
</g>
</svg>
