
<svg xmlns="http://www.w3.org/2000/svg" xmlns:xlink="http://www.w3.org/1999/xlink" width="32px" height="32px" viewBox="0 0 32 32" version="1.1">
<g id="surface1">
<path style=" stroke:none;fill-rule:nonzero;fill:rgb(100%,71.764708%,30.19608%);fill-opacity:1;" d="M 2.644531 3.558594 L 29.105469 3.558594 C 29.835938 3.558594 30.425781 4.148438 30.425781 4.878906 L 30.425781 27.371094 C 30.425781 28.101562 29.835938 28.691406 29.105469 28.691406 L 2.644531 28.691406 C 1.914062 28.691406 1.324219 28.101562 1.324219 27.371094 L 1.324219 4.878906 C 1.324219 4.148438 1.914062 3.558594 2.644531 3.558594 Z M 2.644531 3.558594 "/>
<path style=" stroke:none;fill-rule:nonzero;fill:rgb(94.117647%,38.431373%,57.254905%);fill-opacity:1;" d="M 1.757812 3.898438 C 1.488281 4.140625 1.324219 4.488281 1.324219 4.878906 L 1.324219 27.371094 C 1.324219 28.101562 1.914062 28.691406 2.644531 28.691406 L 29.105469 28.691406 C 29.4375 28.691406 29.746094 28.570312 29.976562 28.363281 L 8.039062 8.847656 Z M 1.757812 3.898438 "/>
<path style=" stroke:none;fill-rule:nonzero;fill:rgb(72.941178%,40.784314%,78.431374%);fill-opacity:1;" d="M 30.011719 3.917969 L 1.738281 28.332031 C 1.976562 28.554688 2.292969 28.691406 2.644531 28.691406 L 29.105469 28.691406 C 29.835938 28.691406 30.425781 28.101562 30.425781 27.371094 L 30.425781 4.878906 C 30.425781 4.5 30.265625 4.15625 30.011719 3.917969 Z M 30.011719 3.917969 "/>
<path style=" stroke:none;fill-rule:nonzero;fill:rgb(93.333334%,93.333334%,93.333334%);fill-opacity:1;" d="M 3.96875 5.953125 L 13.230469 5.953125 C 13.59375 5.953125 13.890625 6.25 13.890625 6.613281 L 13.890625 13.230469 C 13.890625 13.59375 13.59375 13.890625 13.230469 13.890625 L 3.96875 13.890625 C 3.601562 13.890625 3.308594 13.59375 3.308594 13.230469 L 3.308594 6.613281 C 3.308594 6.25 3.601562 5.953125 3.96875 5.953125 Z M 3.96875 5.953125 "/>
<path style=" stroke:none;fill-rule:nonzero;fill:rgb(93.333334%,93.333334%,93.333334%);fill-opacity:1;" d="M 7.277344 17.859375 L 16.535156 17.859375 C 16.902344 17.859375 17.199219 18.15625 17.199219 18.519531 L 17.199219 25.136719 C 17.199219 25.5 16.902344 25.796875 16.535156 25.796875 L 7.277344 25.796875 C 6.910156 25.796875 6.613281 25.5 6.613281 25.136719 L 6.613281 18.519531 C 6.613281 18.15625 6.910156 17.859375 7.277344 17.859375 Z M 7.277344 17.859375 "/>
<path style=" stroke:none;fill-rule:nonzero;fill:rgb(93.333334%,93.333334%,93.333334%);fill-opacity:1;" d="M 17.859375 7.9375 L 27.121094 7.9375 C 27.484375 7.9375 27.78125 8.234375 27.78125 8.597656 L 27.78125 15.214844 C 27.78125 15.578125 27.484375 15.875 27.121094 15.875 L 17.859375 15.875 C 17.492188 15.875 17.199219 15.578125 17.199219 15.214844 L 17.199219 8.597656 C 17.199219 8.234375 17.492188 7.9375 17.859375 7.9375 Z M 17.859375 7.9375 "/>
</g>
</svg>
