<?xml version="1.0" encoding="UTF-8"?>
<svg xmlns="http://www.w3.org/2000/svg" xmlns:xlink="http://www.w3.org/1999/xlink" width="32px" height="32px" viewBox="0 0 32 32" version="1.1">
<g id="surface1">
<path style=" stroke:none;fill-rule:nonzero;fill:rgb(87.843138%,87.843138%,87.843138%);fill-opacity:1;" d="M 1.324219 8.847656 L 1.324219 27.496094 C 1.324219 28.160156 1.914062 28.691406 2.644531 28.691406 L 29.105469 28.691406 C 29.835938 28.691406 30.425781 28.160156 30.425781 27.496094 L 30.425781 8.847656 Z M 1.324219 8.847656 "/>
<path style=" stroke:none;fill-rule:nonzero;fill:rgb(93.333334%,93.333334%,93.333334%);fill-opacity:0.986239;" d="M 1.984375 9.179688 L 1.984375 27.371094 C 1.984375 27.734375 2.28125 28.03125 2.644531 28.03125 L 29.105469 28.03125 C 29.46875 28.03125 29.765625 27.734375 29.765625 27.371094 L 29.765625 9.179688 Z M 1.984375 9.179688 "/>
<path style=" stroke:none;fill-rule:nonzero;fill:rgb(25.882354%,64.705884%,96.078432%);fill-opacity:1;" d="M 5.292969 12.816406 L 8.597656 12.816406 C 8.964844 12.816406 9.261719 13.113281 9.261719 13.480469 L 9.261719 16.125 C 9.261719 16.492188 8.964844 16.785156 8.597656 16.785156 L 5.292969 16.785156 C 4.925781 16.785156 4.628906 16.492188 4.628906 16.125 L 4.628906 13.480469 C 4.628906 13.113281 4.925781 12.816406 5.292969 12.816406 Z M 5.292969 12.816406 "/>
<path style=" stroke:none;fill-rule:nonzero;fill:rgb(49.411765%,34.117648%,76.078433%);fill-opacity:1;" d="M 11.246094 12.816406 L 14.550781 12.816406 C 14.917969 12.816406 15.214844 13.113281 15.214844 13.480469 L 15.214844 16.125 C 15.214844 16.492188 14.917969 16.785156 14.550781 16.785156 L 11.246094 16.785156 C 10.878906 16.785156 10.582031 16.492188 10.582031 16.125 L 10.582031 13.480469 C 10.582031 13.113281 10.878906 12.816406 11.246094 12.816406 Z M 11.246094 12.816406 "/>
<path style=" stroke:none;fill-rule:nonzero;fill:rgb(40.000001%,73.333335%,41.568628%);fill-opacity:1;" d="M 17.199219 12.816406 L 20.503906 12.816406 C 20.871094 12.816406 21.167969 13.113281 21.167969 13.480469 L 21.167969 16.125 C 21.167969 16.492188 20.871094 16.785156 20.503906 16.785156 L 17.199219 16.785156 C 16.832031 16.785156 16.535156 16.492188 16.535156 16.125 L 16.535156 13.480469 C 16.535156 13.113281 16.832031 12.816406 17.199219 12.816406 Z M 17.199219 12.816406 "/>
<path style=" stroke:none;fill-rule:nonzero;fill:rgb(93.725491%,32.549021%,31.37255%);fill-opacity:1;" d="M 23.152344 12.816406 L 26.457031 12.816406 C 26.824219 12.816406 27.121094 13.113281 27.121094 13.480469 L 27.121094 16.125 C 27.121094 16.492188 26.824219 16.785156 26.457031 16.785156 L 23.152344 16.785156 C 22.785156 16.785156 22.488281 16.492188 22.488281 16.125 L 22.488281 13.480469 C 22.488281 13.113281 22.785156 12.816406 23.152344 12.816406 Z M 23.152344 12.816406 "/>
<path style=" stroke:none;fill-rule:nonzero;fill:rgb(36.078432%,41.960785%,75.294119%);fill-opacity:1;" d="M 5.292969 19.433594 L 8.597656 19.433594 C 8.964844 19.433594 9.261719 19.726562 9.261719 20.09375 L 9.261719 22.738281 C 9.261719 23.105469 8.964844 23.402344 8.597656 23.402344 L 5.292969 23.402344 C 4.925781 23.402344 4.628906 23.105469 4.628906 22.738281 L 4.628906 20.09375 C 4.628906 19.726562 4.925781 19.433594 5.292969 19.433594 Z M 5.292969 19.433594 "/>
<path style=" stroke:none;fill-rule:nonzero;fill:rgb(100%,65.490198%,14.901961%);fill-opacity:1;" d="M 11.246094 19.433594 L 14.550781 19.433594 C 14.917969 19.433594 15.214844 19.726562 15.214844 20.09375 L 15.214844 22.738281 C 15.214844 23.105469 14.917969 23.402344 14.550781 23.402344 L 11.246094 23.402344 C 10.878906 23.402344 10.582031 23.105469 10.582031 22.738281 L 10.582031 20.09375 C 10.582031 19.726562 10.878906 19.433594 11.246094 19.433594 Z M 11.246094 19.433594 "/>
<path style=" stroke:none;fill-rule:nonzero;fill:rgb(47.058824%,56.470591%,61.176473%);fill-opacity:1;" d="M 17.199219 19.433594 L 20.503906 19.433594 C 20.871094 19.433594 21.167969 19.726562 21.167969 20.09375 L 21.167969 22.738281 C 21.167969 23.105469 20.871094 23.402344 20.503906 23.402344 L 17.199219 23.402344 C 16.832031 23.402344 16.535156 23.105469 16.535156 22.738281 L 16.535156 20.09375 C 16.535156 19.726562 16.832031 19.433594 17.199219 19.433594 Z M 17.199219 19.433594 "/>
<path style=" stroke:none;fill-rule:nonzero;fill:rgb(25.882354%,25.882354%,25.882354%);fill-opacity:1;" d="M 2.644531 3.558594 C 1.914062 3.558594 1.324219 4.148438 1.324219 4.878906 L 1.324219 8.847656 L 30.425781 8.847656 L 30.425781 4.878906 C 30.425781 4.148438 29.835938 3.558594 29.105469 3.558594 Z M 2.644531 3.558594 "/>
<path style=" stroke:none;fill-rule:nonzero;fill:rgb(93.725491%,32.549021%,31.37255%);fill-opacity:1;" d="M 28.855469 4.800781 C 28.984375 4.929688 28.984375 5.136719 28.855469 5.269531 L 26.515625 7.605469 C 26.386719 7.734375 26.175781 7.734375 26.046875 7.605469 C 25.917969 7.476562 25.917969 7.269531 26.046875 7.136719 L 28.386719 4.800781 C 28.515625 4.671875 28.722656 4.671875 28.855469 4.800781 Z M 28.855469 4.800781 "/>
<path style=" stroke:none;fill-rule:nonzero;fill:rgb(93.725491%,32.549021%,31.37255%);fill-opacity:1;" d="M 28.855469 7.605469 C 28.722656 7.734375 28.515625 7.734375 28.386719 7.605469 L 26.046875 5.269531 C 25.917969 5.136719 25.917969 4.929688 26.046875 4.800781 C 26.175781 4.671875 26.386719 4.671875 26.515625 4.800781 L 28.855469 7.136719 C 28.984375 7.269531 28.984375 7.476562 28.855469 7.605469 Z M 28.855469 7.605469 "/>
<path style=" stroke:none;fill-rule:nonzero;fill:rgb(16.078432%,71.372551%,96.470588%);fill-opacity:1;" d="M 1.324219 8.847656 L 30.425781 8.847656 L 30.425781 9.179688 L 1.324219 9.179688 Z M 1.324219 8.847656 "/>
</g>
</svg>
