<?xml version="1.0" encoding="UTF-8"?>
<svg xmlns="http://www.w3.org/2000/svg" xmlns:xlink="http://www.w3.org/1999/xlink" width="32px" height="32px" viewBox="0 0 32 32" version="1.1">
<g id="surface1">
<path style=" stroke:none;fill-rule:nonzero;fill:rgb(40.000001%,73.333335%,41.568628%);fill-opacity:1;" d="M 15.875 1.574219 C 23.910156 1.574219 30.425781 8.089844 30.425781 16.125 C 30.425781 24.160156 23.910156 30.675781 15.875 30.675781 C 7.839844 30.675781 1.324219 24.160156 1.324219 16.125 C 1.324219 8.089844 7.839844 1.574219 15.875 1.574219 Z M 15.875 1.574219 "/>
<path style=" stroke:none;fill-rule:nonzero;fill:rgb(96.078432%,96.078432%,96.078432%);fill-opacity:1;" d="M 16.535156 4.21875 C 22.746094 4.21875 27.78125 9.253906 27.78125 15.464844 C 27.78125 21.675781 22.746094 26.707031 16.535156 26.707031 C 10.324219 26.707031 5.292969 21.675781 5.292969 15.464844 C 5.292969 9.253906 10.324219 4.21875 16.535156 4.21875 Z M 16.535156 4.21875 "/>
<path style=" stroke:none;fill-rule:nonzero;fill:rgb(40.000001%,73.333335%,41.568628%);fill-opacity:1;" d="M 13.890625 10.171875 C 13.535156 10.183594 13.253906 10.476562 13.253906 10.828125 L 13.253906 20.089844 C 13.253906 20.609375 13.828125 20.925781 14.265625 20.644531 L 21.542969 16.015625 C 21.949219 15.757812 21.949219 15.164062 21.542969 14.90625 L 14.265625 10.273438 C 14.152344 10.203125 14.023438 10.167969 13.890625 10.171875 Z M 13.890625 10.171875 "/>
</g>
</svg>
