<?xml version="1.0" encoding="UTF-8"?>
<svg xmlns="http://www.w3.org/2000/svg" xmlns:xlink="http://www.w3.org/1999/xlink" width="32" height="32" viewBox="0 0 32 32" version="1.1">
<g id="surface1">
<path style=" stroke:none;fill-rule:nonzero;fill:rgb(55.29412%,43.137255%,38.82353%);fill-opacity:1;" d="M 2.644531 2.644531 L 29.105469 2.644531 C 29.835938 2.644531 30.425781 3.238281 30.425781 3.96875 L 30.425781 27.78125 C 30.425781 28.511719 29.835938 29.105469 29.105469 29.105469 L 2.644531 29.105469 C 1.914062 29.105469 1.324219 28.511719 1.324219 27.78125 L 1.324219 3.96875 C 1.324219 3.238281 1.914062 2.644531 2.644531 2.644531 Z M 2.644531 2.644531 "/>
<path style=" stroke:none;fill-rule:nonzero;fill:rgb(87.843138%,87.843138%,87.843138%);fill-opacity:1;" d="M 3.308594 3.96875 L 28.441406 3.96875 C 28.808594 3.96875 29.105469 4.265625 29.105469 4.628906 L 29.105469 26.707031 C 29.105469 27.074219 28.808594 27.371094 28.441406 27.371094 L 3.308594 27.371094 C 2.941406 27.371094 2.644531 27.074219 2.644531 26.707031 L 2.644531 4.628906 C 2.644531 4.265625 2.941406 3.96875 3.308594 3.96875 Z M 3.308594 3.96875 "/>
<path style=" stroke:none;fill-rule:nonzero;fill:rgb(25.882354%,25.882354%,25.882354%);fill-opacity:1;" d="M 7.9375 5.292969 L 23.8125 5.292969 C 26.003906 5.292969 27.78125 7.070312 27.78125 9.261719 L 27.78125 19.84375 C 27.78125 22.035156 26.003906 23.8125 23.8125 23.8125 L 7.9375 23.8125 C 5.746094 23.8125 3.96875 22.035156 3.96875 19.84375 L 3.96875 9.261719 C 3.96875 7.070312 5.746094 5.292969 7.9375 5.292969 Z M 7.9375 5.292969 "/>
<path style=" stroke:none;fill-rule:nonzero;fill:rgb(38.039216%,38.039216%,38.039216%);fill-opacity:1;" d="M 26.457031 24.144531 C 27.1875 24.144531 27.78125 24.734375 27.78125 25.464844 C 27.78125 26.195312 27.1875 26.789062 26.457031 26.789062 C 25.726562 26.789062 25.136719 26.195312 25.136719 25.464844 C 25.136719 24.734375 25.726562 24.144531 26.457031 24.144531 Z M 26.457031 24.144531 "/>
<path style=" stroke:none;fill-rule:nonzero;fill:rgb(38.039216%,38.039216%,38.039216%);fill-opacity:1;" d="M 5.292969 24.144531 C 6.023438 24.144531 6.613281 24.734375 6.613281 25.464844 C 6.613281 26.195312 6.023438 26.789062 5.292969 26.789062 C 4.5625 26.789062 3.96875 26.195312 3.96875 25.464844 C 3.96875 24.734375 4.5625 24.144531 5.292969 24.144531 Z M 5.292969 24.144531 "/>
<path style=" stroke:none;fill-rule:nonzero;fill:rgb(87.843138%,87.843138%,87.843138%);fill-opacity:1;" d="M 26.457031 24.804688 C 26.824219 24.804688 27.121094 25.101562 27.121094 25.464844 C 27.121094 25.832031 26.824219 26.128906 26.457031 26.128906 C 26.09375 26.128906 25.796875 25.832031 25.796875 25.464844 C 25.796875 25.101562 26.09375 24.804688 26.457031 24.804688 Z M 26.457031 24.804688 "/>
<path style=" stroke:none;fill-rule:nonzero;fill:rgb(87.843138%,87.843138%,87.843138%);fill-opacity:1;" d="M 5.292969 24.804688 C 5.65625 24.804688 5.953125 25.101562 5.953125 25.464844 C 5.953125 25.832031 5.65625 26.128906 5.292969 26.128906 C 4.925781 26.128906 4.628906 25.832031 4.628906 25.464844 C 4.628906 25.101562 4.925781 24.804688 5.292969 24.804688 Z M 5.292969 24.804688 "/>
<path style=" stroke:none;fill-rule:nonzero;fill:rgb(45.882353%,45.882353%,45.882353%);fill-opacity:1;" d="M 7.363281 6.945312 C 7.679688 7.128906 7.492188 8.046875 6.945312 8.996094 C 6.398438 9.945312 5.695312 10.566406 5.378906 10.382812 C 5.0625 10.199219 5.25 9.28125 5.800781 8.332031 C 6.347656 7.382812 7.046875 6.761719 7.363281 6.945312 Z M 7.363281 6.945312 "/>
<path style=" stroke:none;fill-rule:nonzero;fill:rgb(61.960787%,61.960787%,61.960787%);fill-opacity:1;" d="M 15.835938 9.921875 L 15.914062 9.921875 C 18.449219 9.921875 20.503906 11.996094 20.503906 14.550781 C 20.503906 17.109375 18.449219 19.183594 15.914062 19.183594 L 15.835938 19.183594 C 13.300781 19.183594 11.246094 17.109375 11.246094 14.550781 C 11.246094 11.996094 13.300781 9.921875 15.835938 9.921875 Z M 15.835938 9.921875 "/>
<path style=" stroke:none;fill-rule:nonzero;fill:rgb(25.882354%,25.882354%,25.882354%);fill-opacity:1;" d="M 15.839844 10.582031 L 15.910156 10.582031 C 18.082031 10.582031 19.84375 12.359375 19.84375 14.550781 C 19.84375 16.742188 18.082031 18.519531 15.910156 18.519531 L 15.839844 18.519531 C 13.667969 18.519531 11.90625 16.742188 11.90625 14.550781 C 11.90625 12.359375 13.667969 10.582031 15.839844 10.582031 Z M 15.839844 10.582031 "/>
<path style=" stroke:none;fill-rule:nonzero;fill:rgb(61.960787%,61.960787%,61.960787%);fill-opacity:1;" d="M 14.566406 12.238281 C 14.378906 12.230469 14.222656 12.378906 14.222656 12.566406 L 14.222656 16.535156 C 14.222656 16.792969 14.5 16.953125 14.722656 16.820312 L 18.03125 14.835938 C 18.242188 14.707031 18.242188 14.398438 18.03125 14.269531 L 14.722656 12.285156 C 14.675781 12.253906 14.621094 12.238281 14.566406 12.238281 Z M 14.566406 12.238281 "/>
</g>
</svg>
