<?xml version="1.0" encoding="UTF-8"?>
<svg xmlns="http://www.w3.org/2000/svg" xmlns:xlink="http://www.w3.org/1999/xlink" width="32px" height="32px" viewBox="0 0 32 32" version="1.1">
<defs>
<linearGradient id="linear0" gradientUnits="userSpaceOnUse" x1="42.333332" y1="42.999996" x2="465.666656" y2="42.999996" gradientTransform="matrix(0.0625,0,0,0.0625,0.000000416667,13.187499)">
<stop offset="0" style="stop-color:rgb(97.254902%,97.254902%,97.254902%);stop-opacity:0;"/>
<stop offset="0.5" style="stop-color:rgb(61.176473%,80.000001%,39.607844%);stop-opacity:0.0784314;"/>
<stop offset="1" style="stop-color:rgb(61.176473%,80.000001%,39.607844%);stop-opacity:0;"/>
</linearGradient>
</defs>
<g id="surface1">
<path style=" stroke:none;fill-rule:nonzero;fill:rgb(25.882354%,25.882354%,25.882354%);fill-opacity:1;" d="M 2.644531 2.644531 L 29.105469 2.644531 C 29.835938 2.644531 30.425781 3.238281 30.425781 3.96875 L 30.425781 27.78125 C 30.425781 28.511719 29.835938 29.105469 29.105469 29.105469 L 2.644531 29.105469 C 1.914062 29.105469 1.324219 28.511719 1.324219 27.78125 L 1.324219 3.96875 C 1.324219 3.238281 1.914062 2.644531 2.644531 2.644531 Z M 2.644531 2.644531 "/>
<path style=" stroke:none;fill-rule:nonzero;fill:url(#linear0);" d="M 2.644531 3.636719 L 2.644531 4.300781 L 29.105469 4.300781 L 29.105469 3.636719 Z M 2.644531 5.621094 L 2.644531 6.285156 L 29.105469 6.285156 L 29.105469 5.621094 Z M 2.644531 7.605469 L 2.644531 8.269531 L 29.105469 8.269531 L 29.105469 7.605469 Z M 2.644531 9.589844 L 2.644531 10.253906 L 29.105469 10.253906 L 29.105469 9.589844 Z M 2.644531 11.574219 L 2.644531 12.238281 L 29.105469 12.238281 L 29.105469 11.574219 Z M 2.644531 13.558594 L 2.644531 14.222656 L 29.105469 14.222656 L 29.105469 13.558594 Z M 2.644531 15.542969 L 2.644531 16.207031 L 29.105469 16.207031 L 29.105469 15.542969 Z M 2.644531 17.527344 L 2.644531 18.191406 L 29.105469 18.191406 L 29.105469 17.527344 Z M 2.644531 19.511719 L 2.644531 20.175781 L 29.105469 20.175781 L 29.105469 19.511719 Z M 2.644531 21.496094 L 2.644531 22.160156 L 29.105469 22.160156 L 29.105469 21.496094 Z M 2.644531 23.480469 L 2.644531 24.144531 L 29.105469 24.144531 L 29.105469 23.480469 Z M 2.644531 25.464844 L 2.644531 26.128906 L 29.105469 26.128906 L 29.105469 25.464844 Z M 2.644531 27.449219 L 2.644531 28.113281 L 29.105469 28.113281 L 29.105469 27.449219 Z M 2.644531 27.449219 "/>
<path style=" stroke:none;fill-rule:nonzero;fill:rgb(74.117649%,74.117649%,74.117649%);fill-opacity:1;" d="M 5.90625 18.851562 C 5.128906 18.855469 4.351562 19.117188 3.730469 19.59375 C 3.0625 20.101562 2.582031 20.847656 2.402344 21.667969 C 2.332031 21.984375 2.308594 22.308594 2.316406 22.632812 C 2.316406 23.261719 2.316406 23.894531 2.316406 24.523438 C 2.339844 24.550781 2.390625 24.527344 2.425781 24.535156 C 2.734375 24.535156 3.046875 24.535156 3.359375 24.535156 C 3.386719 24.511719 3.363281 24.460938 3.371094 24.425781 C 3.371094 23.746094 3.367188 23.0625 3.371094 22.382812 C 3.386719 21.785156 3.625 21.195312 4.027344 20.75 C 4.441406 20.285156 5.035156 19.984375 5.65625 19.921875 C 6.25 19.855469 6.867188 20.003906 7.363281 20.34375 C 7.878906 20.6875 8.257812 21.222656 8.410156 21.824219 C 8.476562 22.085938 8.496094 22.351562 8.488281 22.621094 C 8.488281 23.253906 8.488281 23.890625 8.488281 24.523438 C 8.511719 24.550781 8.566406 24.527344 8.597656 24.535156 C 8.910156 24.535156 9.21875 24.535156 9.53125 24.535156 C 9.558594 24.511719 9.535156 24.460938 9.542969 24.425781 C 9.542969 23.738281 9.546875 23.046875 9.542969 22.359375 C 9.523438 21.574219 9.238281 20.796875 8.742188 20.1875 C 8.21875 19.539062 7.464844 19.082031 6.648438 18.921875 C 6.402344 18.875 6.15625 18.851562 5.90625 18.851562 Z M 5.90625 18.851562 "/>
<path style=" stroke:none;fill-rule:nonzero;fill:rgb(61.176473%,80.000001%,39.607844%);fill-opacity:1;" d="M 1.835938 24.253906 L 10.070312 24.253906 C 10.351562 24.253906 10.582031 24.484375 10.582031 24.769531 L 10.582031 29.914062 C 10.582031 30.195312 10.351562 30.425781 10.070312 30.425781 L 1.835938 30.425781 C 1.554688 30.425781 1.324219 30.195312 1.324219 29.914062 L 1.324219 24.769531 C 1.324219 24.484375 1.554688 24.253906 1.835938 24.253906 Z M 1.835938 24.253906 "/>
<path style=" stroke:none;fill-rule:nonzero;fill:rgb(48.627451%,70.19608%,25.882354%);fill-opacity:1;" d="M 1.324219 25.136719 L 3.636719 25.136719 L 3.636719 25.648438 L 1.324219 25.648438 Z M 1.324219 25.136719 "/>
<path style=" stroke:none;fill-rule:nonzero;fill:rgb(48.627451%,70.19608%,25.882354%);fill-opacity:1;" d="M 1.324219 26.164062 L 3.636719 26.164062 L 3.636719 26.679688 L 1.324219 26.679688 Z M 1.324219 26.164062 "/>
<path style=" stroke:none;fill-rule:nonzero;fill:rgb(48.627451%,70.19608%,25.882354%);fill-opacity:1;" d="M 1.324219 27.191406 L 3.636719 27.191406 L 3.636719 27.707031 L 1.324219 27.707031 Z M 1.324219 27.191406 "/>
<path style=" stroke:none;fill-rule:nonzero;fill:rgb(48.627451%,70.19608%,25.882354%);fill-opacity:1;" d="M 1.324219 28.222656 L 3.636719 28.222656 L 3.636719 28.738281 L 1.324219 28.738281 Z M 1.324219 28.222656 "/>
<path style=" stroke:none;fill-rule:nonzero;fill:rgb(48.627451%,70.19608%,25.882354%);fill-opacity:1;" d="M 1.324219 29.25 L 3.636719 29.25 L 3.636719 29.765625 L 1.324219 29.765625 Z M 1.324219 29.25 "/>
<path style=" stroke:none;fill-rule:nonzero;fill:rgb(48.627451%,70.19608%,25.882354%);fill-opacity:1;" d="M 8.269531 25.136719 L 10.582031 25.136719 L 10.582031 25.648438 L 8.269531 25.648438 Z M 8.269531 25.136719 "/>
<path style=" stroke:none;fill-rule:nonzero;fill:rgb(48.627451%,70.19608%,25.882354%);fill-opacity:1;" d="M 8.269531 26.164062 L 10.582031 26.164062 L 10.582031 26.679688 L 8.269531 26.679688 Z M 8.269531 26.164062 "/>
<path style=" stroke:none;fill-rule:nonzero;fill:rgb(48.627451%,70.19608%,25.882354%);fill-opacity:1;" d="M 8.269531 27.191406 L 10.582031 27.191406 L 10.582031 27.707031 L 8.269531 27.707031 Z M 8.269531 27.191406 "/>
<path style=" stroke:none;fill-rule:nonzero;fill:rgb(48.627451%,70.19608%,25.882354%);fill-opacity:1;" d="M 8.269531 28.222656 L 10.582031 28.222656 L 10.582031 28.738281 L 8.269531 28.738281 Z M 8.269531 28.222656 "/>
<path style=" stroke:none;fill-rule:nonzero;fill:rgb(48.627451%,70.19608%,25.882354%);fill-opacity:1;" d="M 8.269531 29.25 L 10.582031 29.25 L 10.582031 29.765625 L 8.269531 29.765625 Z M 8.269531 29.25 "/>
<path style=" stroke:none;fill-rule:nonzero;fill:rgb(61.176473%,80.000001%,39.607844%);fill-opacity:1;" d="M 5.621094 4.300781 L 6.285156 4.300781 C 6.464844 4.300781 6.613281 4.449219 6.613281 4.628906 L 6.613281 5.621094 C 6.613281 5.804688 6.464844 5.953125 6.285156 5.953125 L 5.621094 5.953125 C 5.441406 5.953125 5.292969 5.804688 5.292969 5.621094 L 5.292969 4.628906 C 5.292969 4.449219 5.441406 4.300781 5.621094 4.300781 Z M 5.621094 4.300781 "/>
<path style=" stroke:none;fill-rule:nonzero;fill:rgb(61.176473%,80.000001%,39.607844%);fill-opacity:1;" d="M 10.914062 12.566406 L 12.566406 12.566406 C 12.933594 12.566406 13.230469 12.863281 13.230469 13.230469 C 13.230469 13.59375 12.933594 13.890625 12.566406 13.890625 L 10.914062 13.890625 C 10.546875 13.890625 10.253906 13.59375 10.253906 13.230469 C 10.253906 12.863281 10.546875 12.566406 10.914062 12.566406 Z M 10.914062 12.566406 "/>
<path style=" stroke:none;fill-rule:nonzero;fill:rgb(61.176473%,80.000001%,39.607844%);fill-opacity:1;" d="M 5.621094 13.230469 L 6.285156 13.230469 C 6.464844 13.230469 6.613281 13.378906 6.613281 13.558594 L 6.613281 14.550781 C 6.613281 14.734375 6.464844 14.882812 6.285156 14.882812 L 5.621094 14.882812 C 5.441406 14.882812 5.292969 14.734375 5.292969 14.550781 L 5.292969 13.558594 C 5.292969 13.378906 5.441406 13.230469 5.621094 13.230469 Z M 5.621094 13.230469 "/>
<path style=" stroke:none;fill-rule:nonzero;fill:rgb(61.176473%,80.000001%,39.607844%);fill-opacity:1;" d="M 5.960938 4.960938 C 5.1875 4.949219 4.453125 5.140625 3.890625 5.59375 C 3.324219 6.050781 2.976562 6.777344 2.976562 7.605469 C 2.976562 8.488281 3.496094 9.164062 4.070312 9.527344 C 4.640625 9.894531 5.269531 10.058594 5.742188 10.21875 C 6.261719 10.390625 6.792969 10.554688 7.128906 10.769531 C 7.464844 10.984375 7.605469 11.132812 7.605469 11.574219 C 7.605469 12.070312 7.457031 12.335938 7.195312 12.546875 C 6.929688 12.757812 6.503906 12.898438 5.953125 12.898438 C 5.402344 12.898438 4.953125 12.753906 4.679688 12.5625 C 4.40625 12.371094 4.300781 12.183594 4.300781 11.90625 C 4.300781 11.667969 4.175781 11.445312 3.972656 11.324219 C 3.765625 11.207031 3.511719 11.207031 3.304688 11.324219 C 3.097656 11.445312 2.972656 11.667969 2.976562 11.90625 C 2.976562 12.621094 3.367188 13.257812 3.921875 13.648438 C 4.472656 14.035156 5.179688 14.222656 5.953125 14.222656 C 6.726562 14.222656 7.457031 14.03125 8.019531 13.582031 C 8.585938 13.128906 8.929688 12.402344 8.929688 11.574219 C 8.929688 10.695312 8.410156 10.019531 7.835938 9.652344 C 7.265625 9.289062 6.636719 9.121094 6.164062 8.964844 C 5.644531 8.792969 5.113281 8.628906 4.777344 8.414062 C 4.441406 8.199219 4.300781 8.046875 4.300781 7.605469 C 4.300781 7.113281 4.453125 6.835938 4.71875 6.625 C 4.980469 6.414062 5.402344 6.273438 5.941406 6.285156 C 5.945312 6.285156 5.949219 6.285156 5.953125 6.285156 C 6.503906 6.285156 6.953125 6.429688 7.226562 6.617188 C 7.5 6.808594 7.605469 7 7.605469 7.277344 C 7.605469 7.515625 7.730469 7.734375 7.933594 7.855469 C 8.140625 7.976562 8.394531 7.976562 8.601562 7.855469 C 8.808594 7.734375 8.933594 7.515625 8.929688 7.277344 C 8.929688 6.558594 8.539062 5.921875 7.984375 5.535156 C 7.433594 5.148438 6.730469 4.960938 5.960938 4.960938 Z M 5.960938 4.960938 "/>
</g>
</svg>
