<?xml version="1.0" encoding="UTF-8"?>
<svg xmlns="http://www.w3.org/2000/svg" xmlns:xlink="http://www.w3.org/1999/xlink" width="32px" height="32px" viewBox="0 0 32 32" version="1.1">
<g id="surface1">
<path style=" stroke:none;fill-rule:nonzero;fill:rgb(25.882354%,25.882354%,25.882354%);fill-opacity:1;" d="M 2.644531 1.574219 L 29.105469 1.574219 C 29.835938 1.574219 30.425781 2.164062 30.425781 2.894531 L 30.425781 29.355469 C 30.425781 30.085938 29.835938 30.675781 29.105469 30.675781 L 2.644531 30.675781 C 1.914062 30.675781 1.324219 30.085938 1.324219 29.355469 L 1.324219 2.894531 C 1.324219 2.164062 1.914062 1.574219 2.644531 1.574219 Z M 2.644531 1.574219 "/>
<path style=" stroke:none;fill-rule:nonzero;fill:rgb(56.470591%,79.215688%,97.647059%);fill-opacity:1;" d="M 10.527344 7.820312 C 10.355469 7.820312 10.191406 7.890625 10.066406 8.011719 L 6.328125 11.753906 C 6.066406 12.011719 6.066406 12.433594 6.328125 12.691406 L 12.875 19.238281 C 13.132812 19.496094 13.550781 19.496094 13.8125 19.238281 L 15.679688 17.367188 L 17.550781 15.496094 C 17.8125 15.238281 17.8125 14.820312 17.550781 14.5625 L 11.003906 8.011719 C 10.878906 7.886719 10.707031 7.816406 10.527344 7.820312 Z M 10.527344 7.820312 "/>
<path style=" stroke:none;fill-rule:nonzero;fill:rgb(25.882354%,64.705884%,96.078432%);fill-opacity:1;" d="M 13.230469 12.816406 C 13.054688 12.816406 12.886719 12.886719 12.761719 13.011719 L 6.214844 19.558594 C 5.953125 19.816406 5.953125 20.238281 6.214844 20.496094 L 9.953125 24.238281 C 10.214844 24.496094 10.632812 24.496094 10.890625 24.238281 L 15.695312 19.433594 L 22.488281 19.433594 C 22.664062 19.433594 22.832031 19.363281 22.957031 19.238281 L 25.601562 16.59375 C 25.863281 16.335938 25.863281 15.914062 25.601562 15.65625 L 22.957031 13.011719 C 22.832031 12.886719 22.664062 12.816406 22.488281 12.816406 Z M 13.230469 12.816406 "/>
</g>
</svg>
