
<svg xmlns="http://www.w3.org/2000/svg" xmlns:xlink="http://www.w3.org/1999/xlink" width="32px" height="32px" viewBox="0 0 32 32" version="1.1">
<g id="surface1">
<path style=" stroke:none;fill-rule:nonzero;fill:rgb(67.058825%,27.843139%,73.725492%);fill-opacity:1;" d="M 15.875 1.324219 C 23.910156 1.324219 30.425781 7.839844 30.425781 15.875 C 30.425781 23.910156 23.910156 30.425781 15.875 30.425781 C 7.839844 30.425781 1.324219 23.910156 1.324219 15.875 C 1.324219 7.839844 7.839844 1.324219 15.875 1.324219 Z M 15.875 1.324219 "/>
<path style=" stroke:none;fill-rule:nonzero;fill:rgb(25.882354%,25.882354%,25.882354%);fill-opacity:1;" d="M 15.875 11.246094 C 18.433594 11.246094 20.503906 13.316406 20.503906 15.875 C 20.503906 18.433594 18.433594 20.503906 15.875 20.503906 C 13.316406 20.503906 11.246094 18.433594 11.246094 15.875 C 11.246094 13.316406 13.316406 11.246094 15.875 11.246094 Z M 15.875 11.246094 "/>
<path style=" stroke:none;fill-rule:nonzero;fill:rgb(93.333334%,93.333334%,93.333334%);fill-opacity:1;" d="M 15.875 14.550781 C 16.605469 14.550781 17.199219 15.144531 17.199219 15.875 C 17.199219 16.605469 16.605469 17.199219 15.875 17.199219 C 15.144531 17.199219 14.550781 16.605469 14.550781 15.875 C 14.550781 15.144531 15.144531 14.550781 15.875 14.550781 Z M 15.875 14.550781 "/>
<path style=" stroke:none;fill-rule:nonzero;fill:rgb(80.784315%,57.647061%,84.705883%);fill-opacity:1;" d="M 10.25 4.625 C 6.125 6.683594 3.308594 10.9375 3.308594 15.875 L 9.261719 15.875 C 9.261719 13.277344 10.746094 11.035156 12.914062 9.953125 Z M 10.25 4.625 "/>
<path style=" stroke:none;fill-rule:nonzero;fill:rgb(80.784315%,57.647061%,84.705883%);fill-opacity:1;" d="M 22.488281 15.875 C 22.488281 18.472656 21.003906 20.714844 18.835938 21.796875 L 21.5 27.125 C 25.625 25.066406 28.441406 20.8125 28.441406 15.875 Z M 22.488281 15.875 "/>
</g>
</svg>
