<?xml version="1.0" encoding="UTF-8"?>
<svg xmlns="http://www.w3.org/2000/svg" xmlns:xlink="http://www.w3.org/1999/xlink" width="32px" height="32px" viewBox="0 0 32 32" version="1.1">
<g id="surface1">
<path style=" stroke:none;fill-rule:nonzero;fill:rgb(22.352941%,28.627452%,67.058825%);fill-opacity:1;" d="M 25.796875 5.542969 C 23.964844 5.542969 22.488281 7.015625 22.488281 8.847656 C 22.488281 10.679688 23.964844 12.15625 25.796875 12.15625 C 27.628906 12.15625 29.105469 10.679688 29.105469 8.847656 C 29.105469 7.015625 27.628906 5.542969 25.796875 5.542969 Z M 22.488281 13.480469 C 21.757812 13.480469 21.167969 14.070312 21.167969 14.800781 L 21.167969 22.078125 C 21.167969 24.644531 23.230469 26.707031 25.796875 26.707031 C 28.363281 26.707031 30.425781 24.644531 30.425781 22.078125 L 30.425781 14.800781 C 30.425781 14.070312 29.835938 13.480469 29.105469 13.480469 Z M 22.488281 13.480469 "/>
<path style=" stroke:none;fill-rule:nonzero;fill:rgb(36.078432%,41.960785%,75.294119%);fill-opacity:1;" d="M 15.875 1.574219 C 13.492188 1.574219 11.574219 3.492188 11.574219 5.871094 C 11.574219 8.253906 13.492188 10.171875 15.875 10.171875 C 18.257812 10.171875 20.175781 8.253906 20.175781 5.871094 C 20.175781 3.492188 18.257812 1.574219 15.875 1.574219 Z M 11.246094 12.15625 C 10.511719 12.15625 9.921875 12.746094 9.921875 13.480469 L 9.921875 24.722656 C 9.921875 28.023438 12.578125 30.675781 15.875 30.675781 C 19.171875 30.675781 21.828125 28.023438 21.828125 24.722656 L 21.828125 13.480469 C 21.828125 12.746094 21.238281 12.15625 20.503906 12.15625 Z M 11.246094 12.15625 "/>
<path style=" stroke:none;fill-rule:nonzero;fill:rgb(22.352941%,28.627452%,67.058825%);fill-opacity:1;" d="M 2.644531 10.832031 L 13.230469 10.832031 C 13.960938 10.832031 14.550781 11.425781 14.550781 12.15625 L 14.550781 22.738281 C 14.550781 23.46875 13.960938 24.0625 13.230469 24.0625 L 2.644531 24.0625 C 1.914062 24.0625 1.324219 23.46875 1.324219 22.738281 L 1.324219 12.15625 C 1.324219 11.425781 1.914062 10.832031 2.644531 10.832031 Z M 2.644531 10.832031 "/>
<path style=" stroke:none;fill-rule:nonzero;fill:rgb(77.254903%,79.215688%,91.37255%);fill-opacity:1;" d="M 7.605469 14.800781 L 8.269531 14.800781 C 8.449219 14.800781 8.597656 14.949219 8.597656 15.132812 L 8.597656 20.425781 C 8.597656 20.605469 8.449219 20.753906 8.269531 20.753906 L 7.605469 20.753906 C 7.425781 20.753906 7.277344 20.605469 7.277344 20.425781 L 7.277344 15.132812 C 7.277344 14.949219 7.425781 14.800781 7.605469 14.800781 Z M 7.605469 14.800781 "/>
<path style=" stroke:none;fill-rule:nonzero;fill:rgb(77.254903%,79.215688%,91.37255%);fill-opacity:1;" d="M 5.621094 14.800781 L 10.253906 14.800781 C 10.433594 14.800781 10.582031 14.949219 10.582031 15.132812 L 10.582031 15.464844 C 10.582031 15.644531 10.433594 15.792969 10.253906 15.792969 L 5.621094 15.792969 C 5.441406 15.792969 5.292969 15.644531 5.292969 15.464844 L 5.292969 15.132812 C 5.292969 14.949219 5.441406 14.800781 5.621094 14.800781 Z M 5.621094 14.800781 "/>
</g>
</svg>
