
<svg xmlns="http://www.w3.org/2000/svg" xmlns:xlink="http://www.w3.org/1999/xlink" width="32px" height="32px" viewBox="0 0 32 32" version="1.1">
<g id="surface1">
<path style=" stroke:none;fill-rule:nonzero;fill:rgb(100%,79.215688%,15.686275%);fill-opacity:1;" d="M 15.875 1.324219 C 23.910156 1.324219 30.425781 7.839844 30.425781 15.875 C 30.425781 23.910156 23.910156 30.425781 15.875 30.425781 C 7.839844 30.425781 1.324219 23.910156 1.324219 15.875 C 1.324219 7.839844 7.839844 1.324219 15.875 1.324219 Z M 15.875 1.324219 "/>
<path style=" stroke:none;fill-rule:nonzero;fill:rgb(25.882354%,25.882354%,25.882354%);fill-opacity:1;" d="M 15.875 19.453125 L 13.082031 20.527344 C 13.617188 23.128906 13.242188 25.730469 14.742188 28.332031 C 15.199219 28.09375 15.285156 27.953125 15.875 27.984375 C 16.464844 27.953125 16.550781 28.09375 17.007812 28.332031 C 18.507812 25.730469 18.132812 23.128906 18.667969 20.527344 Z M 15.875 19.453125 "/>
<path style=" stroke:none;fill-rule:nonzero;fill:rgb(38.039216%,38.039216%,38.039216%);fill-opacity:1;" d="M 15.875 19.453125 L 14.125 20.125 C 14.460938 21.753906 14.226562 23.382812 15.167969 25.011719 C 15.453125 24.859375 15.503906 24.773438 15.875 24.792969 C 16.246094 24.773438 16.296875 24.859375 16.582031 25.011719 C 17.523438 23.382812 17.289062 21.753906 17.625 20.125 Z M 15.875 19.453125 "/>
<path style=" stroke:none;fill-rule:nonzero;fill:rgb(45.882353%,45.882353%,45.882353%);fill-opacity:1;" d="M 25.738281 13.996094 L 28.816406 11.296875 L 26.457031 9.820312 L 21.742188 13.738281 Z M 25.738281 13.996094 "/>
<path style=" stroke:none;fill-rule:nonzero;fill:rgb(45.882353%,45.882353%,45.882353%);fill-opacity:1;" d="M 18.921875 5.875 L 21.84375 3.785156 L 23.550781 6.359375 L 18.230469 8.359375 Z M 18.921875 5.875 "/>
<path style=" stroke:none;fill-rule:nonzero;fill:rgb(25.882354%,25.882354%,25.882354%);fill-opacity:1;" d="M 22.160156 19.550781 C 22.191406 19.753906 22.808594 26.402344 22.808594 26.402344 L 18.046875 22.050781 L 18.164062 19.078125 Z M 22.160156 19.550781 "/>
<path style=" stroke:none;fill-rule:nonzero;fill:rgb(38.039216%,38.039216%,38.039216%);fill-opacity:1;" d="M 17.03125 15.03125 L 15.875 15.632812 L 18.164062 19.082031 L 28.335938 20.992188 L 24.863281 15.992188 Z M 14 15.945312 L 6.886719 15.992188 L 3.414062 20.992188 L 13.585938 19.082031 L 14.4375 16.191406 Z M 14 15.945312 "/>
<path style=" stroke:none;fill-rule:nonzero;fill:rgb(61.960787%,61.960787%,61.960787%);fill-opacity:1;" d="M 17.75 16.675781 L 30.425781 15.972656 L 24.96875 13.195312 C 20.828125 13.414062 20.058594 15.460938 17.75 16.675781 Z M 17.75 16.675781 "/>
<path style=" stroke:none;fill-rule:nonzero;fill:rgb(61.960787%,61.960787%,61.960787%);fill-opacity:1;" d="M 13.695312 19.707031 C 13.777344 22.136719 13.703125 23.867188 14.214844 25.054688 C 14.007812 24.203125 13.960938 23.316406 14.105469 22.382812 C 14.164062 23.476562 14.070312 24.125 14.539062 24.941406 C 14.214844 23.003906 14.523438 20.289062 14.980469 19.605469 Z M 13.695312 19.707031 "/>
<path style=" stroke:none;fill-rule:nonzero;fill:rgb(45.882353%,45.882353%,45.882353%);fill-opacity:1;" d="M 6.011719 13.996094 L 2.933594 11.296875 L 5.292969 9.820312 L 10.007812 13.738281 Z M 6.011719 13.996094 "/>
<path style=" stroke:none;fill-rule:nonzero;fill:rgb(61.960787%,61.960787%,61.960787%);fill-opacity:1;" d="M 14.125 5.375 L 13.445312 5.199219 L 12.140625 4.417969 L 12.875 6.816406 L 14.8125 7.359375 Z M 14.125 5.375 "/>
<path style=" stroke:none;fill-rule:nonzero;fill:rgb(45.882353%,45.882353%,45.882353%);fill-opacity:1;" d="M 12.828125 5.875 L 9.90625 3.785156 L 8.199219 6.359375 L 13.519531 8.359375 Z M 12.828125 5.875 "/>
<path style=" stroke:none;fill-rule:nonzero;fill:rgb(61.960787%,61.960787%,61.960787%);fill-opacity:1;" d="M 4.910156 3.03125 C 1.324219 8.195312 5.667969 10.628906 7.652344 13.394531 L 12.335938 8.265625 L 10.632812 6.839844 C 8.726562 5.671875 4.625 5.867188 4.910156 3.03125 Z M 26.839844 3.03125 C 27.125 5.867188 23.023438 5.671875 21.117188 6.839844 L 19.414062 8.265625 L 24.097656 13.394531 C 26.082031 10.628906 30.425781 8.195312 26.839844 3.03125 Z M 26.839844 3.03125 "/>
<path style=" stroke:none;fill-rule:nonzero;fill:rgb(45.882353%,45.882353%,45.882353%);fill-opacity:1;" d="M 4.777344 4.652344 C 2.902344 8.480469 6 10.96875 7.859375 13.042969 L 12.25 9.195312 L 10.652344 8.125 C 8.867188 7.25 4.511719 6.78125 4.777344 4.652344 Z M 4.777344 4.652344 "/>
<path style=" stroke:none;fill-rule:nonzero;fill:rgb(25.882354%,25.882354%,25.882354%);fill-opacity:1;" d="M 9.589844 19.550781 C 9.558594 19.753906 8.941406 26.402344 8.941406 26.402344 L 13.703125 22.050781 L 13.585938 19.078125 Z M 9.589844 19.550781 "/>
<path style=" stroke:none;fill-rule:nonzero;fill:rgb(61.960787%,61.960787%,61.960787%);fill-opacity:1;" d="M 14 16.675781 L 1.324219 15.972656 L 6.78125 13.195312 C 10.921875 13.414062 11.691406 15.460938 14 16.675781 Z M 14 16.675781 "/>
<path style=" stroke:none;fill-rule:nonzero;fill:rgb(45.882353%,45.882353%,45.882353%);fill-opacity:1;" d="M 15.875 17.898438 L 13.527344 18.519531 C 13.035156 19.1875 14.996094 20.507812 15.875 20.363281 C 16.753906 20.507812 18.714844 19.1875 18.222656 18.519531 Z M 15.875 17.898438 "/>
<path style=" stroke:none;fill-rule:nonzero;fill:rgb(61.960787%,61.960787%,61.960787%);fill-opacity:1;" d="M 13.941406 18.261719 C 14.199219 18.992188 14.996094 19.597656 15.875 19.453125 L 15.875 17.484375 Z M 13.941406 18.261719 "/>
<path style=" stroke:none;fill-rule:nonzero;fill:rgb(45.882353%,45.882353%,45.882353%);fill-opacity:1;" d="M 27.015625 4.652344 C 28.890625 8.480469 25.792969 10.96875 23.933594 13.042969 L 19.542969 9.195312 L 21.140625 8.125 C 22.925781 7.25 27.28125 6.78125 27.015625 4.652344 Z M 27.015625 4.652344 "/>
<path style=" stroke:none;fill-rule:nonzero;fill:rgb(61.960787%,61.960787%,61.960787%);fill-opacity:1;" d="M 17.625 5.375 L 18.304688 5.199219 L 19.609375 4.417969 L 18.875 6.816406 L 16.9375 7.359375 Z M 17.625 5.375 "/>
<path style=" stroke:none;fill-rule:nonzero;fill:rgb(61.960787%,61.960787%,61.960787%);fill-opacity:1;" d="M 17.808594 18.261719 C 17.550781 18.992188 16.753906 19.597656 15.875 19.453125 L 15.875 17.484375 Z M 17.808594 18.261719 "/>
<path style=" stroke:none;fill-rule:nonzero;fill:rgb(74.117649%,74.117649%,74.117649%);fill-opacity:1;" d="M 13.183594 4.453125 L 14.070312 6.679688 L 11.539062 6.980469 C 10.511719 9.511719 8.90625 11.566406 6.78125 13.195312 C 8.890625 13.734375 10.800781 14.585938 12.402344 15.910156 C 13.464844 17.097656 12.9375 18.671875 13.527344 18.519531 C 14.695312 18.339844 15.074219 18.367188 15.875 18.390625 C 16.675781 18.367188 17.054688 18.339844 18.222656 18.519531 C 18.8125 18.671875 18.285156 17.097656 19.347656 15.910156 C 20.949219 14.585938 22.859375 13.734375 24.96875 13.195312 C 22.84375 11.566406 21.238281 9.511719 20.210938 6.980469 L 17.679688 6.679688 L 18.566406 4.453125 C 17.667969 4.597656 16.773438 4.785156 15.875 4.746094 C 14.976562 4.785156 14.082031 4.597656 13.183594 4.453125 Z M 13.183594 4.453125 "/>
<path style=" stroke:none;fill-rule:nonzero;fill:rgb(38.039216%,38.039216%,38.039216%);fill-opacity:1;" d="M 10.019531 10.898438 L 9.550781 11.605469 C 9.378906 14.125 10.132812 15.71875 13.296875 14.925781 C 14.015625 15.542969 13.679688 17.300781 15.132812 17.503906 L 16.617188 17.503906 C 18.070312 17.300781 17.734375 15.542969 18.453125 14.925781 C 21.617188 15.71875 22.371094 14.125 22.199219 11.605469 L 21.730469 10.898438 L 16.949219 13.269531 L 15.875 15.011719 L 14.800781 13.269531 Z M 10.019531 10.898438 "/>
<path style=" stroke:none;fill-rule:nonzero;fill:rgb(45.882353%,45.882353%,45.882353%);fill-opacity:1;" d="M 10.019531 9.984375 L 9.550781 10.691406 C 9.378906 13.207031 10.132812 14.804688 13.296875 14.011719 C 14.015625 14.628906 13.679688 16.382812 15.132812 16.585938 L 16.617188 16.585938 C 18.070312 16.382812 17.734375 14.628906 18.453125 14.011719 C 21.617188 14.804688 22.371094 13.207031 22.199219 10.691406 L 21.730469 9.984375 L 16.949219 12.355469 L 15.875 14.097656 L 14.800781 12.355469 Z M 10.019531 9.984375 "/>
<path style=" stroke:none;fill-rule:nonzero;fill:rgb(25.882354%,25.882354%,25.882354%);fill-opacity:1;" d="M 12.3125 9.121094 C 13.589844 9.121094 14.621094 10.15625 14.621094 11.429688 C 14.621094 12.707031 13.589844 13.738281 12.3125 13.738281 C 11.039062 13.738281 10.007812 12.707031 10.007812 11.429688 C 10.007812 10.15625 11.039062 9.121094 12.3125 9.121094 Z M 12.3125 9.121094 "/>
<path style=" stroke:none;fill-rule:nonzero;fill:rgb(100%,79.215688%,15.686275%);fill-opacity:1;" d="M 12.320312 10.910156 C 12.929688 10.910156 13.425781 11.40625 13.425781 12.015625 C 13.425781 12.625 12.929688 13.117188 12.320312 13.117188 C 11.710938 13.117188 11.21875 12.625 11.21875 12.015625 C 11.21875 11.40625 11.710938 10.910156 12.320312 10.910156 Z M 12.320312 10.910156 "/>
<path style=" stroke:none;fill-rule:nonzero;fill:rgb(100%,92.54902%,70.19608%);fill-opacity:1;" d="M 12.320312 11.332031 C 12.699219 11.332031 13.003906 11.636719 13.003906 12.015625 C 13.003906 12.390625 12.699219 12.695312 12.320312 12.695312 C 11.945312 12.695312 11.640625 12.390625 11.640625 12.015625 C 11.640625 11.636719 11.945312 11.332031 12.320312 11.332031 Z M 12.320312 11.332031 "/>
<path style=" stroke:none;fill-rule:nonzero;fill:rgb(38.039216%,38.039216%,38.039216%);fill-opacity:1;" d="M 11.289062 7.191406 C 10.65625 8.757812 15.402344 9.191406 14.066406 12.335938 L 9.933594 9.675781 Z M 11.289062 7.191406 "/>
<path style=" stroke:none;fill-rule:nonzero;fill:rgb(74.117649%,74.117649%,74.117649%);fill-opacity:1;" d="M 15.867188 11.804688 C 16.507812 11.804688 17.03125 12.175781 17.03125 12.632812 L 17.03125 15.078125 C 17.03125 15.539062 16.507812 15.910156 15.867188 15.910156 C 15.226562 15.910156 14.703125 15.539062 14.703125 15.078125 L 14.703125 12.632812 C 14.703125 12.175781 15.226562 11.804688 15.867188 11.804688 Z M 15.867188 11.804688 "/>
<path style=" stroke:none;fill-rule:nonzero;fill:rgb(25.882354%,25.882354%,25.882354%);fill-opacity:1;" d="M 13.308594 9.46875 L 15.207031 9.21875 L 15.875 14.113281 L 13.558594 12.1875 Z M 13.308594 9.46875 "/>
<path style=" stroke:none;fill-rule:nonzero;fill:rgb(87.843138%,87.843138%,87.843138%);fill-opacity:1;" d="M 9.933594 9.675781 L 15.390625 12.6875 L 15.875 14.113281 L 9.214844 10.4375 Z M 9.933594 9.675781 "/>
<path style=" stroke:none;fill-rule:nonzero;fill:rgb(87.843138%,87.843138%,87.843138%);fill-opacity:1;" d="M 13.585938 19.078125 C 13.984375 18.769531 13.988281 18.710938 14.617188 19.554688 C 14.292969 20.179688 14.007812 20.8125 14.085938 21.511719 C 13.773438 20.789062 13.570312 20 13.585938 19.078125 Z M 13.585938 19.078125 "/>
<path style=" stroke:none;fill-rule:nonzero;fill:rgb(87.843138%,87.843138%,87.843138%);fill-opacity:1;" d="M 14.625 19.679688 C 14.816406 19.554688 14.816406 19.53125 15.121094 19.867188 C 14.964844 20.117188 14.828125 20.367188 14.867188 20.644531 C 14.714844 20.359375 14.617188 20.042969 14.625 19.679688 Z M 14.625 19.679688 "/>
<path style=" stroke:none;fill-rule:nonzero;fill:rgb(87.843138%,87.843138%,87.843138%);fill-opacity:1;" d="M 15.226562 19.886719 C 15.417969 19.761719 15.628906 19.441406 15.738281 19.988281 C 15.582031 20.484375 15.441406 20.421875 15.480469 20.699219 C 15.308594 20.421875 15.097656 20.304688 15.226562 19.886719 Z M 15.226562 19.886719 "/>
<path style=" stroke:none;fill-rule:nonzero;fill:rgb(61.960787%,61.960787%,61.960787%);fill-opacity:1;" d="M 14.234375 27.445312 C 14.289062 26.808594 15.277344 27.105469 15.875 27.011719 L 15.875 28.707031 C 15.359375 28.671875 14.351562 28.484375 14.332031 28.238281 C 14.242188 27.988281 14.488281 27.761719 14.234375 27.445312 Z M 14.234375 27.445312 "/>
<path style=" stroke:none;fill-rule:nonzero;fill:rgb(87.843138%,87.843138%,87.843138%);fill-opacity:1;" d="M 14.234375 27.445312 C 14.632812 27.753906 14.421875 27.222656 14.816406 26.691406 C 14.492188 26.070312 14.371094 25.78125 14.214844 25.054688 C 13.898438 25.777344 14.003906 26.894531 14.234375 27.445312 Z M 14.234375 27.445312 "/>
<path style=" stroke:none;fill-rule:nonzero;fill:rgb(93.333334%,93.333334%,93.333334%);fill-opacity:1;" d="M 14.816406 26.691406 C 14.917969 26.660156 14.957031 26.726562 14.988281 26.796875 C 14.960938 27.074219 15 27.246094 15.019531 27.441406 C 14.8125 27.230469 14.65625 27.101562 14.816406 26.691406 Z M 14.816406 26.691406 "/>
<path style=" stroke:none;fill-rule:nonzero;fill:rgb(93.333334%,93.333334%,93.333334%);fill-opacity:1;" d="M 15.136719 26.8125 C 15.222656 26.75 15.28125 26.785156 15.332031 26.835938 C 15.320312 27.035156 15.351562 27.21875 15.40625 27.410156 L 15.144531 27.410156 C 15.097656 27.195312 15.101562 27.019531 15.136719 26.8125 Z M 15.136719 26.8125 "/>
<path style=" stroke:none;fill-rule:nonzero;fill:rgb(93.333334%,93.333334%,93.333334%);fill-opacity:1;" d="M 15.5625 26.804688 C 15.554688 27.125 15.320312 27.453125 15.777344 27.417969 L 15.722656 27.253906 L 15.695312 26.796875 Z M 15.5625 26.804688 "/>
<path style=" stroke:none;fill-rule:nonzero;fill:rgb(61.960787%,61.960787%,61.960787%);fill-opacity:1;" d="M 18.054688 19.707031 C 17.972656 22.136719 18.046875 23.867188 17.535156 25.054688 C 17.742188 24.203125 17.789062 23.316406 17.644531 22.382812 C 17.585938 23.476562 17.679688 24.125 17.210938 24.941406 C 17.535156 23.003906 17.226562 20.289062 16.769531 19.605469 Z M 18.054688 19.707031 "/>
<path style=" stroke:none;fill-rule:nonzero;fill:rgb(25.882354%,25.882354%,25.882354%);fill-opacity:1;" d="M 19.4375 9.121094 C 18.160156 9.121094 17.128906 10.15625 17.128906 11.429688 C 17.128906 12.707031 18.160156 13.738281 19.4375 13.738281 C 20.710938 13.738281 21.742188 12.707031 21.742188 11.429688 C 21.742188 10.15625 20.710938 9.121094 19.4375 9.121094 Z M 19.4375 9.121094 "/>
<path style=" stroke:none;fill-rule:nonzero;fill:rgb(100%,79.215688%,15.686275%);fill-opacity:1;" d="M 19.429688 10.910156 C 18.820312 10.910156 18.324219 11.40625 18.324219 12.015625 C 18.324219 12.625 18.820312 13.117188 19.429688 13.117188 C 20.039062 13.117188 20.53125 12.625 20.53125 12.015625 C 20.53125 11.40625 20.039062 10.910156 19.429688 10.910156 Z M 19.429688 10.910156 "/>
<path style=" stroke:none;fill-rule:nonzero;fill:rgb(100%,92.54902%,70.19608%);fill-opacity:1;" d="M 19.429688 11.332031 C 19.050781 11.332031 18.746094 11.636719 18.746094 12.015625 C 18.746094 12.390625 19.050781 12.695312 19.429688 12.695312 C 19.804688 12.695312 20.109375 12.390625 20.109375 12.015625 C 20.109375 11.636719 19.804688 11.332031 19.429688 11.332031 Z M 19.429688 11.332031 "/>
<path style=" stroke:none;fill-rule:nonzero;fill:rgb(38.039216%,38.039216%,38.039216%);fill-opacity:1;" d="M 20.460938 7.191406 C 21.09375 8.757812 16.347656 9.191406 17.683594 12.335938 L 21.816406 9.675781 Z M 20.460938 7.191406 "/>
<path style=" stroke:none;fill-rule:nonzero;fill:rgb(25.882354%,25.882354%,25.882354%);fill-opacity:1;" d="M 18.441406 9.46875 L 16.542969 9.21875 L 15.875 14.113281 L 18.191406 12.1875 Z M 18.441406 9.46875 "/>
<path style=" stroke:none;fill-rule:nonzero;fill:rgb(87.843138%,87.843138%,87.843138%);fill-opacity:1;" d="M 21.816406 9.675781 L 16.359375 12.6875 L 15.875 14.113281 L 22.535156 10.4375 Z M 21.816406 9.675781 "/>
<path style=" stroke:none;fill-rule:nonzero;fill:rgb(87.843138%,87.843138%,87.843138%);fill-opacity:1;" d="M 18.164062 19.078125 C 17.765625 18.769531 17.761719 18.710938 17.132812 19.554688 C 17.457031 20.179688 17.742188 20.8125 17.664062 21.511719 C 17.976562 20.789062 18.179688 20 18.164062 19.078125 Z M 18.164062 19.078125 "/>
<path style=" stroke:none;fill-rule:nonzero;fill:rgb(87.843138%,87.843138%,87.843138%);fill-opacity:1;" d="M 17.125 19.679688 C 16.933594 19.554688 16.933594 19.53125 16.628906 19.867188 C 16.785156 20.117188 16.921875 20.367188 16.882812 20.644531 C 17.035156 20.359375 17.132812 20.042969 17.125 19.679688 Z M 17.125 19.679688 "/>
<path style=" stroke:none;fill-rule:nonzero;fill:rgb(87.843138%,87.843138%,87.843138%);fill-opacity:1;" d="M 16.523438 19.886719 C 16.332031 19.761719 16.121094 19.441406 16.011719 19.988281 C 16.167969 20.484375 16.308594 20.421875 16.269531 20.699219 C 16.441406 20.421875 16.652344 20.304688 16.523438 19.886719 Z M 16.523438 19.886719 "/>
<path style=" stroke:none;fill-rule:nonzero;fill:rgb(61.960787%,61.960787%,61.960787%);fill-opacity:1;" d="M 17.515625 27.445312 C 17.460938 26.808594 16.472656 27.105469 15.875 27.011719 L 15.875 28.707031 C 16.390625 28.671875 17.398438 28.484375 17.417969 28.238281 C 17.507812 27.988281 17.261719 27.761719 17.515625 27.445312 Z M 17.515625 27.445312 "/>
<path style=" stroke:none;fill-rule:nonzero;fill:rgb(87.843138%,87.843138%,87.843138%);fill-opacity:1;" d="M 17.515625 27.445312 C 17.117188 27.753906 17.328125 27.222656 16.933594 26.691406 C 17.257812 26.070312 17.378906 25.78125 17.535156 25.054688 C 17.851562 25.777344 17.746094 26.894531 17.515625 27.445312 Z M 17.515625 27.445312 "/>
<path style=" stroke:none;fill-rule:nonzero;fill:rgb(93.333334%,93.333334%,93.333334%);fill-opacity:1;" d="M 16.933594 26.691406 C 16.832031 26.660156 16.792969 26.726562 16.761719 26.796875 C 16.789062 27.074219 16.75 27.246094 16.730469 27.441406 C 16.9375 27.230469 17.09375 27.101562 16.933594 26.691406 Z M 16.933594 26.691406 "/>
<path style=" stroke:none;fill-rule:nonzero;fill:rgb(93.333334%,93.333334%,93.333334%);fill-opacity:1;" d="M 16.613281 26.8125 C 16.527344 26.75 16.46875 26.785156 16.417969 26.835938 C 16.429688 27.035156 16.398438 27.21875 16.34375 27.410156 L 16.605469 27.410156 C 16.652344 27.195312 16.648438 27.019531 16.613281 26.8125 Z M 16.613281 26.8125 "/>
<path style=" stroke:none;fill-rule:nonzero;fill:rgb(93.333334%,93.333334%,93.333334%);fill-opacity:1;" d="M 16.1875 26.804688 C 16.195312 27.125 16.429688 27.453125 15.972656 27.417969 L 16.027344 27.253906 L 16.054688 26.796875 Z M 16.1875 26.804688 "/>
<path style=" stroke:none;fill-rule:nonzero;fill:rgb(25.882354%,25.882354%,25.882354%);fill-opacity:1;" d="M 15.3125 16.824219 C 15.507812 16.890625 15.644531 17.007812 15.617188 17.089844 C 15.589844 17.171875 15.410156 17.183594 15.214844 17.121094 C 15.023438 17.058594 14.886719 16.941406 14.910156 16.859375 C 14.9375 16.777344 15.117188 16.761719 15.3125 16.824219 Z M 15.3125 16.824219 "/>
<path style=" stroke:none;fill-rule:nonzero;fill:rgb(25.882354%,25.882354%,25.882354%);fill-opacity:1;" d="M 16.445312 16.824219 C 16.25 16.890625 16.113281 17.007812 16.140625 17.089844 C 16.164062 17.171875 16.34375 17.183594 16.539062 17.121094 C 16.734375 17.058594 16.871094 16.941406 16.84375 16.859375 C 16.820312 16.777344 16.640625 16.761719 16.445312 16.824219 Z M 16.445312 16.824219 "/>
</g>
</svg>
