<?xml version="1.0" encoding="UTF-8"?>
<svg xmlns="http://www.w3.org/2000/svg" xmlns:xlink="http://www.w3.org/1999/xlink" width="32px" height="32px" viewBox="0 0 32 32" version="1.1">
<g id="surface1">
<path style=" stroke:none;fill-rule:nonzero;fill:rgb(40.000001%,73.333335%,41.568628%);fill-opacity:1;" d="M 16.953125 1.988281 L 30.011719 15.046875 C 30.605469 15.644531 30.605469 16.605469 30.011719 17.203125 L 16.953125 30.261719 C 16.355469 30.855469 15.394531 30.855469 14.796875 30.261719 L 1.738281 17.203125 C 1.144531 16.605469 1.144531 15.644531 1.738281 15.046875 L 14.796875 1.988281 C 15.394531 1.394531 16.355469 1.394531 16.953125 1.988281 Z M 16.953125 1.988281 "/>
<path style=" stroke:none;fill-rule:nonzero;fill:rgb(87.843138%,87.843138%,87.843138%);fill-opacity:1;" d="M 4.628906 2.894531 C 4.265625 2.894531 3.96875 3.191406 3.96875 3.558594 L 3.96875 6.203125 C 3.96875 6.570312 4.265625 6.863281 4.628906 6.863281 L 5.289062 6.863281 L 5.289062 26.710938 L 10.523438 26.710938 L 25.210938 8.527344 L 26.554688 6.863281 L 27.121094 6.863281 C 27.484375 6.863281 27.78125 6.570312 27.78125 6.203125 L 27.78125 3.558594 C 27.78125 3.191406 27.484375 2.894531 27.121094 2.894531 L 20.503906 2.894531 C 20.140625 2.894531 19.84375 3.191406 19.84375 3.558594 L 19.84375 6.203125 C 19.84375 6.347656 19.890625 6.480469 19.96875 6.589844 L 10.585938 18.210938 L 10.585938 6.863281 L 11.246094 6.863281 C 11.609375 6.863281 11.90625 6.570312 11.90625 6.203125 L 11.90625 3.558594 C 11.90625 3.191406 11.609375 2.894531 11.246094 2.894531 Z M 4.628906 2.894531 "/>
</g>
</svg>
