
<svg xmlns="http://www.w3.org/2000/svg" xmlns:xlink="http://www.w3.org/1999/xlink" width="32px" height="32px" viewBox="0 0 32 32" version="1.1">
<g id="surface1">
<path style=" stroke:none;fill-rule:nonzero;fill:rgb(87.843138%,87.843138%,87.843138%);fill-opacity:1;" d="M 3.96875 1.324219 L 11.246094 15.875 L 1.324219 30.425781 L 10.582031 30.425781 L 15.164062 23.710938 L 18.519531 30.425781 L 27.78125 30.425781 L 20.503906 15.875 L 30.425781 1.324219 L 21.167969 1.324219 L 16.585938 8.039062 L 13.230469 1.324219 Z M 3.96875 1.324219 "/>
<path style=" stroke:none;fill-rule:nonzero;fill:rgb(61.960787%,61.960787%,61.960787%);fill-opacity:1;" d="M 20.953125 16.667969 L 8.101562 20.5625 L 1.375 30.425781 L 10.632812 30.425781 L 15.214844 23.710938 L 18.570312 30.425781 L 27.832031 30.425781 Z M 20.953125 16.667969 "/>
<path style=" stroke:none;fill-rule:nonzero;fill:rgb(25.882354%,25.882354%,25.882354%);fill-opacity:1;" d="M 5.953125 2.644531 L 12.566406 15.875 L 3.308594 29.105469 L 9.921875 29.105469 L 15.214844 21.167969 L 19.183594 29.105469 L 25.796875 29.105469 L 19.183594 15.875 L 27.78125 2.644531 L 21.828125 2.644531 L 16.535156 10.582031 L 12.566406 2.644531 Z M 5.953125 2.644531 "/>
</g>
</svg>
