<?xml version="1.0" encoding="UTF-8"?>
<svg xmlns="http://www.w3.org/2000/svg" xmlns:xlink="http://www.w3.org/1999/xlink" width="32" height="32" viewBox="0 0 32 32" version="1.1">
<g id="surface1">
<path style=" stroke:none;fill-rule:nonzero;fill:rgb(25.882354%,25.882354%,25.882354%);fill-opacity:1;" d="M 27.78125 24.613281 C 24.414062 27.085938 7.335938 27.085938 3.96875 24.613281 C 0.601562 22.140625 0.601562 9.609375 3.96875 7.140625 C 7.335938 4.667969 24.414062 4.667969 27.78125 7.140625 C 31.148438 9.609375 31.148438 22.140625 27.78125 24.613281 Z M 27.78125 24.613281 "/>
<path style=" stroke:none;fill-rule:nonzero;fill:rgb(93.333334%,93.333334%,93.333334%);fill-opacity:1;" d="M 14.550781 9.921875 C 13.820312 9.921875 13.230469 10.511719 13.230469 11.246094 L 13.230469 16.535156 L 9.921875 16.535156 L 15.875 21.828125 L 21.828125 16.535156 L 18.519531 16.535156 L 18.519531 11.246094 C 18.519531 10.511719 17.929688 9.921875 17.199219 9.921875 Z M 14.550781 9.921875 "/>
<path style=" stroke:none;fill-rule:nonzero;fill:rgb(93.725491%,32.549021%,31.37255%);fill-opacity:1;" d="M 15.875 5.285156 C 10.765625 5.285156 5.652344 5.902344 3.96875 7.140625 C 0.601562 9.609375 0.601562 22.140625 3.96875 24.613281 C 7.335938 27.085938 24.414062 27.085938 27.78125 24.613281 C 31.148438 22.140625 31.148438 9.609375 27.78125 7.140625 C 26.097656 5.902344 20.984375 5.285156 15.875 5.285156 Z M 15.875 6.410156 C 18.386719 6.410156 20.898438 6.5625 22.953125 6.863281 C 25.003906 7.160156 26.640625 7.695312 27.117188 8.046875 C 27.59375 8.394531 28.203125 9.425781 28.589844 10.859375 C 28.976562 12.289062 29.183594 14.085938 29.183594 15.875 C 29.183594 17.667969 28.976562 19.460938 28.589844 20.894531 C 28.203125 22.328125 27.59375 23.355469 27.117188 23.707031 C 26.640625 24.054688 25.003906 24.59375 22.953125 24.890625 C 20.898438 25.1875 18.386719 25.34375 15.875 25.34375 C 13.363281 25.34375 10.851562 25.1875 8.796875 24.890625 C 6.746094 24.59375 5.109375 24.054688 4.632812 23.707031 C 4.15625 23.355469 3.546875 22.328125 3.160156 20.894531 C 2.773438 19.460938 2.566406 17.667969 2.566406 15.875 C 2.566406 14.085938 2.773438 12.289062 3.160156 10.859375 C 3.546875 9.425781 4.15625 8.394531 4.632812 8.046875 C 5.109375 7.695312 6.746094 7.160156 8.796875 6.863281 C 10.851562 6.5625 13.363281 6.410156 15.875 6.410156 Z M 15.875 6.410156 "/>
<path style=" stroke:none;fill-rule:nonzero;fill:rgb(93.725491%,32.549021%,31.37255%);fill-opacity:1;" d="M 14.550781 10.582031 L 17.199219 10.582031 C 17.5625 10.582031 17.859375 10.878906 17.859375 11.246094 L 17.859375 17.199219 C 17.859375 17.5625 17.5625 17.859375 17.199219 17.859375 L 14.550781 17.859375 C 14.1875 17.859375 13.890625 17.5625 13.890625 17.199219 L 13.890625 11.246094 C 13.890625 10.878906 14.1875 10.582031 14.550781 10.582031 Z M 14.550781 10.582031 "/>
<path style="fill-rule:nonzero;fill:rgb(93.725491%,32.549021%,31.37255%);fill-opacity:1;stroke-width:0.264583;stroke-linecap:butt;stroke-linejoin:miter;stroke:rgb(0%,0%,0%);stroke-opacity:1;stroke-miterlimit:4;" d="M 190.5 60.1875 L 317.5 60.1875 L 254 113.0625 Z M 190.5 60.1875 " transform="matrix(0.0625,0,0,0.0625,0,13.4375)"/>
</g>
</svg>
