<?xml version="1.0" encoding="UTF-8"?>
<svg xmlns="http://www.w3.org/2000/svg" xmlns:xlink="http://www.w3.org/1999/xlink" width="32px" height="32px" viewBox="0 0 32 32" version="1.1">
<g id="surface1">
<path style=" stroke:none;fill-rule:nonzero;fill:rgb(36.862746%,20.784314%,69.411767%);fill-opacity:1;" d="M 4.628906 3.558594 L 29.105469 3.558594 C 29.835938 3.558594 30.425781 4.148438 30.425781 4.878906 L 30.425781 12.816406 C 30.425781 13.546875 29.835938 14.140625 29.105469 14.140625 L 4.628906 14.140625 C 3.898438 14.140625 3.308594 13.546875 3.308594 12.816406 L 3.308594 4.878906 C 3.308594 4.148438 3.898438 3.558594 4.628906 3.558594 Z M 4.628906 3.558594 "/>
<path style=" stroke:none;fill-rule:nonzero;fill:rgb(96.078432%,96.078432%,96.078432%);fill-opacity:1;" d="M 15.875 7.527344 L 29.105469 7.527344 C 29.46875 7.527344 29.765625 7.820312 29.765625 8.1875 L 29.765625 12.816406 C 29.765625 13.183594 29.46875 13.480469 29.105469 13.480469 L 15.875 13.480469 C 15.507812 13.480469 15.214844 13.183594 15.214844 12.816406 L 15.214844 8.1875 C 15.214844 7.820312 15.507812 7.527344 15.875 7.527344 Z M 15.875 7.527344 "/>
<path style=" stroke:none;fill-rule:nonzero;fill:rgb(49.411765%,34.117648%,76.078433%);fill-opacity:1;" d="M 2.644531 6.203125 C 1.914062 6.203125 1.324219 6.792969 1.324219 7.527344 L 1.324219 27.371094 C 1.324219 28.101562 1.914062 28.691406 2.644531 28.691406 L 29.105469 28.691406 C 29.835938 28.691406 30.425781 28.101562 30.425781 27.371094 L 30.425781 11.496094 C 30.425781 10.761719 29.835938 10.171875 29.105469 10.171875 L 20.503906 10.171875 C 19.773438 10.171875 19.183594 9.582031 19.183594 8.847656 L 19.183594 7.527344 C 19.183594 6.792969 18.59375 6.203125 17.859375 6.203125 Z M 2.644531 6.203125 "/>
<path style=" stroke:none;fill-rule:nonzero;fill:rgb(100%,100%,100%);fill-opacity:0.27451;" d="M 13.558594 12.769531 C 13.375 12.769531 13.230469 12.914062 13.230469 13.097656 L 13.230469 13.472656 C 12.707031 13.554688 12.226562 13.742188 11.828125 14.0625 C 11.261719 14.519531 10.914062 15.246094 10.914062 16.074219 C 10.914062 16.957031 11.433594 17.632812 12.007812 17.996094 C 12.578125 18.363281 13.207031 18.527344 13.679688 18.6875 C 14.199219 18.859375 14.730469 19.023438 15.066406 19.238281 C 15.402344 19.453125 15.542969 19.601562 15.542969 20.042969 C 15.542969 20.539062 15.394531 20.804688 15.132812 21.015625 C 14.867188 21.226562 14.441406 21.367188 13.890625 21.367188 C 13.339844 21.367188 12.890625 21.222656 12.617188 21.03125 C 12.34375 20.839844 12.238281 20.652344 12.238281 20.375 C 12.238281 20.136719 12.113281 19.914062 11.910156 19.792969 C 11.703125 19.675781 11.449219 19.675781 11.242188 19.792969 C 11.035156 19.914062 10.910156 20.136719 10.914062 20.375 C 10.914062 21.089844 11.304688 21.726562 11.859375 22.117188 C 12.25 22.390625 12.714844 22.5625 13.230469 22.640625 L 13.230469 23.019531 C 13.230469 23.203125 13.375 23.351562 13.558594 23.351562 L 14.222656 23.351562 C 14.40625 23.351562 14.550781 23.203125 14.550781 23.019531 L 14.550781 22.640625 C 15.074219 22.558594 15.558594 22.367188 15.957031 22.050781 C 16.523438 21.597656 16.867188 20.871094 16.867188 20.042969 C 16.867188 19.164062 16.347656 18.488281 15.773438 18.121094 C 15.203125 17.757812 14.574219 17.589844 14.101562 17.433594 C 13.582031 17.261719 13.050781 17.097656 12.714844 16.882812 C 12.378906 16.667969 12.238281 16.515625 12.238281 16.074219 C 12.238281 15.582031 12.390625 15.304688 12.65625 15.09375 C 12.917969 14.882812 13.339844 14.742188 13.878906 14.753906 C 13.882812 14.753906 13.886719 14.753906 13.890625 14.753906 C 14.441406 14.753906 14.890625 14.898438 15.164062 15.085938 C 15.4375 15.277344 15.542969 15.46875 15.542969 15.746094 C 15.542969 15.984375 15.667969 16.203125 15.871094 16.324219 C 16.078125 16.445312 16.332031 16.445312 16.539062 16.324219 C 16.746094 16.203125 16.871094 15.984375 16.867188 15.746094 C 16.867188 15.027344 16.476562 14.390625 15.921875 14.003906 C 15.53125 13.730469 15.066406 13.558594 14.550781 13.480469 L 14.550781 13.097656 C 14.550781 12.914062 14.40625 12.769531 14.222656 12.769531 Z M 18.519531 21.035156 C 18.15625 21.035156 17.859375 21.332031 17.859375 21.699219 C 17.859375 22.066406 18.15625 22.359375 18.519531 22.359375 L 20.175781 22.359375 C 20.539062 22.359375 20.835938 22.066406 20.835938 21.699219 C 20.835938 21.332031 20.539062 21.035156 20.175781 21.035156 Z M 18.519531 21.035156 "/>
</g>
</svg>
