<?xml version="1.0" encoding="UTF-8"?>
<svg xmlns="http://www.w3.org/2000/svg" xmlns:xlink="http://www.w3.org/1999/xlink" width="32px" height="32px" viewBox="0 0 32 32" version="1.1">
<g id="surface1">
<path style=" stroke:none;fill-rule:nonzero;fill:rgb(36.862746%,20.784314%,69.411767%);fill-opacity:1;" d="M 4.628906 3.558594 L 29.105469 3.558594 C 29.835938 3.558594 30.425781 4.148438 30.425781 4.878906 L 30.425781 12.816406 C 30.425781 13.546875 29.835938 14.140625 29.105469 14.140625 L 4.628906 14.140625 C 3.898438 14.140625 3.308594 13.546875 3.308594 12.816406 L 3.308594 4.878906 C 3.308594 4.148438 3.898438 3.558594 4.628906 3.558594 Z M 4.628906 3.558594 "/>
<path style=" stroke:none;fill-rule:nonzero;fill:rgb(96.078432%,96.078432%,96.078432%);fill-opacity:1;" d="M 15.875 7.527344 L 29.105469 7.527344 C 29.46875 7.527344 29.765625 7.820312 29.765625 8.1875 L 29.765625 12.816406 C 29.765625 13.183594 29.46875 13.480469 29.105469 13.480469 L 15.875 13.480469 C 15.507812 13.480469 15.214844 13.183594 15.214844 12.816406 L 15.214844 8.1875 C 15.214844 7.820312 15.507812 7.527344 15.875 7.527344 Z M 15.875 7.527344 "/>
<path style=" stroke:none;fill-rule:nonzero;fill:rgb(49.411765%,34.117648%,76.078433%);fill-opacity:1;" d="M 2.644531 6.203125 C 1.914062 6.203125 1.324219 6.792969 1.324219 7.527344 L 1.324219 27.371094 C 1.324219 28.101562 1.914062 28.691406 2.644531 28.691406 L 29.105469 28.691406 C 29.835938 28.691406 30.425781 28.101562 30.425781 27.371094 L 30.425781 11.496094 C 30.425781 10.761719 29.835938 10.171875 29.105469 10.171875 L 20.503906 10.171875 C 19.773438 10.171875 19.183594 9.582031 19.183594 8.847656 L 19.183594 7.527344 C 19.183594 6.792969 18.59375 6.203125 17.859375 6.203125 Z M 2.644531 6.203125 "/>
<path style=" stroke:none;fill-rule:nonzero;fill:rgb(100%,100%,100%);fill-opacity:0.27451;" d="M 15.875 12.820312 C 15.617188 12.820312 15.359375 12.917969 15.160156 13.117188 L 10.882812 17.394531 C 10.488281 17.792969 10.488281 18.425781 10.882812 18.824219 L 15.160156 23.101562 C 15.558594 23.496094 16.191406 23.496094 16.589844 23.101562 L 20.867188 18.824219 C 21.261719 18.425781 21.261719 17.792969 20.867188 17.394531 L 16.589844 13.117188 C 16.390625 12.917969 16.132812 12.820312 15.875 12.820312 Z M 15.875 13.808594 C 16.425781 13.808594 16.867188 14.253906 16.867188 14.800781 C 16.867188 15.351562 16.425781 15.792969 15.875 15.792969 C 15.324219 15.792969 14.882812 15.351562 14.882812 14.800781 C 14.882812 14.253906 15.324219 13.808594 15.875 13.808594 Z M 12.566406 17.117188 C 13.117188 17.117188 13.558594 17.558594 13.558594 18.109375 C 13.558594 18.660156 13.117188 19.101562 12.566406 19.101562 C 12.019531 19.101562 11.574219 18.660156 11.574219 18.109375 C 11.574219 17.558594 12.019531 17.117188 12.566406 17.117188 Z M 15.875 17.117188 C 16.425781 17.117188 16.867188 17.558594 16.867188 18.109375 C 16.867188 18.660156 16.425781 19.101562 15.875 19.101562 C 15.324219 19.101562 14.882812 18.660156 14.882812 18.109375 C 14.882812 17.558594 15.324219 17.117188 15.875 17.117188 Z M 19.183594 17.117188 C 19.730469 17.117188 20.175781 17.558594 20.175781 18.109375 C 20.175781 18.660156 19.730469 19.101562 19.183594 19.101562 C 18.632812 19.101562 18.191406 18.660156 18.191406 18.109375 C 18.191406 17.558594 18.632812 17.117188 19.183594 17.117188 Z M 15.875 20.425781 C 16.425781 20.425781 16.867188 20.867188 16.867188 21.417969 C 16.867188 21.964844 16.425781 22.410156 15.875 22.410156 C 15.324219 22.410156 14.882812 21.964844 14.882812 21.417969 C 14.882812 20.867188 15.324219 20.425781 15.875 20.425781 Z M 15.875 20.425781 "/>
</g>
</svg>
